<?xml version="1.0" encoding="UTF-8" standalone="no"?>
<svg
   xmlns:dc="http://purl.org/dc/elements/1.1/"
   xmlns:cc="http://creativecommons.org/ns#"
   xmlns:rdf="http://www.w3.org/1999/02/22-rdf-syntax-ns#"
   xmlns:svg="http://www.w3.org/2000/svg"
   xmlns="http://www.w3.org/2000/svg"
   viewBox="0 0 499.45895 117.34343"
   height="117.34343"
   width="499.45895"
   xml:space="preserve"
   version="1.1"
   id="svg2"><metadata
     id="metadata8"><rdf:RDF><cc:Work
         rdf:about=""><dc:format>image/svg+xml</dc:format><dc:type
           rdf:resource="http://purl.org/dc/dcmitype/StillImage" /></cc:Work></rdf:RDF></metadata><defs
     id="defs6" /><g
     transform="matrix(1.25,0,0,-1.25,0,117.34343)"
     id="g10"><g
       id="g12"><path
         id="path14"
         style="fill:#000000;fill-opacity:1;fill-rule:nonzero;stroke:none"
         d="m 20.898,82.988 2.957,0 0,-2.953 -2.957,0 0,2.953 z" /><g
         transform="matrix(0,1,1,0,0,93.874741)"
         id="g16"><path
           id="path18"
           style="fill:#ffffff;fill-opacity:1;fill-rule:nonzero;stroke:#000000;stroke-width:2.95679998;stroke-linecap:butt;stroke-linejoin:miter;stroke-miterlimit:4;stroke-dasharray:none;stroke-opacity:1"
           d="m -6.25,7.59 c 0,3.379 -2.738,6.113 -6.113,6.113 -3.375,0 -6.114,-2.734 -6.114,-6.113 0,-3.375 2.739,-6.113 6.114,-6.113 3.375,0 6.113,2.738 6.113,6.113 z" /></g><g
         transform="matrix(0,1,1,0,0,93.874741)"
         id="g20"><path
           id="path22"
           style="fill:none;stroke:#000000;stroke-width:2.95679998;stroke-linecap:square;stroke-linejoin:miter;stroke-miterlimit:10;stroke-dasharray:none;stroke-opacity:1"
           d="m -12.363,14.984 0,5.914" /></g><path
         id="path24"
         style="fill:#000000;fill-opacity:1;fill-rule:nonzero;stroke:none"
         d="m 198.305,82.992 2.957,0 0,-2.957 -2.957,0 0,2.957 z" /><path
         id="path26"
         style="fill:#000000;fill-opacity:1;fill-rule:nonzero;stroke:none"
         d="m 198.305,9.07 2.957,0 0,-2.957 -2.957,0 0,2.957 z" /><g
         transform="matrix(1,0,0,-1,0,93.874741)"
         id="g28"><path
           id="path30"
           style="fill:none;stroke:#000000;stroke-width:2.95679998;stroke-linecap:round;stroke-linejoin:miter;stroke-miterlimit:10;stroke-dasharray:none;stroke-opacity:1"
           d="m 183.52,43.41 32.527,0" /></g><g
         transform="matrix(1,0,0,-1,0,93.874741)"
         id="g32"><path
           id="path34"
           style="fill:none;stroke:#000000;stroke-width:2.95679998;stroke-linecap:round;stroke-linejoin:miter;stroke-miterlimit:10;stroke-dasharray:none;stroke-opacity:1"
           d="m 183.52,55.238 32.527,0" /></g><g
         transform="matrix(1,0,0,-1,0,93.874741)"
         id="g36"><path
           id="path38"
           style="fill:none;stroke:#000000;stroke-width:2.95679998;stroke-linecap:square;stroke-linejoin:miter;stroke-miterlimit:10;stroke-dasharray:none;stroke-opacity:1"
           d="m 199.785,13.84 0,28.09" /></g><g
         transform="matrix(1,0,0,-1,0,93.874741)"
         id="g40"><path
           id="path42"
           style="fill:none;stroke:#000000;stroke-width:2.95679998;stroke-linecap:square;stroke-linejoin:miter;stroke-miterlimit:10;stroke-dasharray:none;stroke-opacity:1"
           d="m 199.785,56.715 0,28.09" /></g><path
         id="path44"
         style="fill:#000000;fill-opacity:1;fill-rule:nonzero;stroke:none"
         d="m 153.953,82.992 2.957,0 0,-2.957 -2.957,0 0,2.957 z" /><path
         id="path46"
         style="fill:#000000;fill-opacity:1;fill-rule:nonzero;stroke:none"
         d="m 65.25,82.992 2.957,0 0,-2.957 -2.957,0 0,2.957 z" /><g
         transform="matrix(0,-1,-1,0,0,93.874741)"
         id="g48"><path
           id="path50"
           style="fill:none;stroke:#000000;stroke-width:2.95679998;stroke-linecap:round;stroke-linejoin:round;stroke-miterlimit:10;stroke-dasharray:none;stroke-opacity:1"
           d="m 9.602,-125.863 c -4.469,0.011 -8.11,-3.289 -8.125,-7.375 -0.012,-4.078 3.605,-7.399 8.082,-7.41 l 0.027,0" /></g><g
         transform="matrix(0,-1,-1,0,0,93.874741)"
         id="g52"><path
           id="path54"
           style="fill:none;stroke:#000000;stroke-width:2.95679998;stroke-linecap:round;stroke-linejoin:round;stroke-miterlimit:10;stroke-dasharray:none;stroke-opacity:1"
           d="m 9.406,-140.648 2.957,0" /></g><g
         transform="matrix(0,-1,-1,0,0,93.874741)"
         id="g56"><path
           id="path58"
           style="fill:none;stroke:#000000;stroke-width:2.95679998;stroke-linecap:round;stroke-linejoin:round;stroke-miterlimit:10;stroke-dasharray:none;stroke-opacity:1"
           d="m 9.406,-125.863 2.957,0" /></g><g
         transform="matrix(0,-1,-1,0,0,93.874741)"
         id="g60"><path
           id="path62"
           style="fill:none;stroke:#000000;stroke-width:2.95679998;stroke-linecap:round;stroke-linejoin:round;stroke-miterlimit:10;stroke-dasharray:none;stroke-opacity:1"
           d="m 9.602,-111.078 c -4.469,0.012 -8.11,-3.289 -8.125,-7.375 -0.012,-4.078 3.605,-7.399 8.082,-7.41 l 0.027,0" /></g><g
         transform="matrix(0,-1,-1,0,0,93.874741)"
         id="g64"><path
           id="path66"
           style="fill:none;stroke:#000000;stroke-width:2.95679998;stroke-linecap:round;stroke-linejoin:round;stroke-miterlimit:10;stroke-dasharray:none;stroke-opacity:1"
           d="m 9.406,-125.863 2.957,0" /></g><g
         transform="matrix(0,-1,-1,0,0,93.874741)"
         id="g68"><path
           id="path70"
           style="fill:none;stroke:#000000;stroke-width:2.95679998;stroke-linecap:round;stroke-linejoin:round;stroke-miterlimit:10;stroke-dasharray:none;stroke-opacity:1"
           d="m 9.406,-111.078 2.957,0" /></g><g
         transform="matrix(0,-1,-1,0,0,93.874741)"
         id="g72"><path
           id="path74"
           style="fill:none;stroke:#000000;stroke-width:2.95679998;stroke-linecap:round;stroke-linejoin:round;stroke-miterlimit:10;stroke-dasharray:none;stroke-opacity:1"
           d="m 9.602,-96.297 c -4.469,0.012 -8.11,-3.289 -8.125,-7.371 -0.012,-4.078 3.605,-7.398 8.082,-7.41 l 0.027,0" /></g><g
         transform="matrix(0,-1,-1,0,0,93.874741)"
         id="g76"><path
           id="path78"
           style="fill:none;stroke:#000000;stroke-width:2.95679998;stroke-linecap:round;stroke-linejoin:round;stroke-miterlimit:10;stroke-dasharray:none;stroke-opacity:1"
           d="m 9.406,-111.078 2.957,0" /></g><g
         transform="matrix(0,-1,-1,0,0,93.874741)"
         id="g80"><path
           id="path82"
           style="fill:none;stroke:#000000;stroke-width:2.95679998;stroke-linecap:round;stroke-linejoin:round;stroke-miterlimit:10;stroke-dasharray:none;stroke-opacity:1"
           d="m 9.406,-96.297 2.957,0" /></g><g
         transform="matrix(0,-1,-1,0,0,93.874741)"
         id="g84"><path
           id="path86"
           style="fill:none;stroke:#000000;stroke-width:2.95679998;stroke-linecap:round;stroke-linejoin:round;stroke-miterlimit:10;stroke-dasharray:none;stroke-opacity:1"
           d="m 9.602,-81.512 c -4.469,0.012 -8.11,-3.289 -8.125,-7.375 -0.012,-4.078 3.605,-7.398 8.082,-7.41 l 0.027,0" /></g><g
         transform="matrix(0,-1,-1,0,0,93.874741)"
         id="g88"><path
           id="path90"
           style="fill:none;stroke:#000000;stroke-width:2.95679998;stroke-linecap:round;stroke-linejoin:round;stroke-miterlimit:10;stroke-dasharray:none;stroke-opacity:1"
           d="m 9.406,-96.297 2.957,0" /></g><g
         transform="matrix(0,-1,-1,0,0,93.874741)"
         id="g92"><path
           id="path94"
           style="fill:none;stroke:#000000;stroke-width:2.95679998;stroke-linecap:round;stroke-linejoin:round;stroke-miterlimit:10;stroke-dasharray:none;stroke-opacity:1"
           d="m 9.406,-81.512 2.957,0" /></g><g
         transform="matrix(0,-1,-1,0,0,93.874741)"
         id="g96"><path
           id="path98"
           style="fill:none;stroke:#000000;stroke-width:2.95679998;stroke-linecap:square;stroke-linejoin:miter;stroke-miterlimit:10;stroke-dasharray:none;stroke-opacity:1"
           d="m 12.363,-153.953 0,11.828" /></g><g
         transform="matrix(0,-1,-1,0,0,93.874741)"
         id="g100"><path
           id="path102"
           style="fill:none;stroke:#000000;stroke-width:2.95679998;stroke-linecap:square;stroke-linejoin:miter;stroke-miterlimit:10;stroke-dasharray:none;stroke-opacity:1"
           d="m 12.363,-80.031 0,11.824" /></g><path
         id="path104"
         style="fill:#000000;fill-opacity:1;fill-rule:nonzero;stroke:none"
         d="m 331.359,82.992 2.957,0 0,-2.957 -2.957,0 0,2.957 z" /><path
         id="path106"
         style="fill:#000000;fill-opacity:1;fill-rule:nonzero;stroke:none"
         d="m 242.656,82.992 2.957,0 0,-2.957 -2.957,0 0,2.957 z" /><g
         transform="matrix(0,-1,-1,0,0,93.874741)"
         id="g108"><path
           id="path110"
           style="fill:none;stroke:#000000;stroke-width:2.95679998;stroke-linecap:round;stroke-linejoin:round;stroke-miterlimit:10;stroke-dasharray:none;stroke-opacity:1"
           d="m 9.602,-303.273 c -4.469,0.015 -8.11,-3.289 -8.125,-7.372 -0.012,-4.078 3.605,-7.398 8.082,-7.41 l 0.027,0" /></g><g
         transform="matrix(0,-1,-1,0,0,93.874741)"
         id="g112"><path
           id="path114"
           style="fill:none;stroke:#000000;stroke-width:2.95679998;stroke-linecap:round;stroke-linejoin:round;stroke-miterlimit:10;stroke-dasharray:none;stroke-opacity:1"
           d="m 9.406,-318.055 2.957,0" /></g><g
         transform="matrix(0,-1,-1,0,0,93.874741)"
         id="g116"><path
           id="path118"
           style="fill:none;stroke:#000000;stroke-width:2.95679998;stroke-linecap:round;stroke-linejoin:round;stroke-miterlimit:10;stroke-dasharray:none;stroke-opacity:1"
           d="m 9.406,-303.273 2.957,0" /></g><g
         transform="matrix(0,-1,-1,0,0,93.874741)"
         id="g120"><path
           id="path122"
           style="fill:none;stroke:#000000;stroke-width:2.95679998;stroke-linecap:round;stroke-linejoin:round;stroke-miterlimit:10;stroke-dasharray:none;stroke-opacity:1"
           d="m 9.602,-288.488 c -4.469,0.011 -8.11,-3.289 -8.125,-7.371 -0.012,-4.079 3.605,-7.399 8.082,-7.414 l 0.027,0" /></g><g
         transform="matrix(0,-1,-1,0,0,93.874741)"
         id="g124"><path
           id="path126"
           style="fill:none;stroke:#000000;stroke-width:2.95679998;stroke-linecap:round;stroke-linejoin:round;stroke-miterlimit:10;stroke-dasharray:none;stroke-opacity:1"
           d="m 9.406,-303.273 2.957,0" /></g><g
         transform="matrix(0,-1,-1,0,0,93.874741)"
         id="g128"><path
           id="path130"
           style="fill:none;stroke:#000000;stroke-width:2.95679998;stroke-linecap:round;stroke-linejoin:round;stroke-miterlimit:10;stroke-dasharray:none;stroke-opacity:1"
           d="m 9.406,-288.488 2.957,0" /></g><g
         transform="matrix(0,-1,-1,0,0,93.874741)"
         id="g132"><path
           id="path134"
           style="fill:none;stroke:#000000;stroke-width:2.95679998;stroke-linecap:round;stroke-linejoin:round;stroke-miterlimit:10;stroke-dasharray:none;stroke-opacity:1"
           d="m 9.602,-273.703 c -4.469,0.012 -8.11,-3.289 -8.125,-7.375 -0.012,-4.078 3.605,-7.399 8.082,-7.41 l 0.027,0" /></g><g
         transform="matrix(0,-1,-1,0,0,93.874741)"
         id="g136"><path
           id="path138"
           style="fill:none;stroke:#000000;stroke-width:2.95679998;stroke-linecap:round;stroke-linejoin:round;stroke-miterlimit:10;stroke-dasharray:none;stroke-opacity:1"
           d="m 9.406,-288.488 2.957,0" /></g><g
         transform="matrix(0,-1,-1,0,0,93.874741)"
         id="g140"><path
           id="path142"
           style="fill:none;stroke:#000000;stroke-width:2.95679998;stroke-linecap:round;stroke-linejoin:round;stroke-miterlimit:10;stroke-dasharray:none;stroke-opacity:1"
           d="m 9.406,-273.703 2.957,0" /></g><g
         transform="matrix(0,-1,-1,0,0,93.874741)"
         id="g144"><path
           id="path146"
           style="fill:none;stroke:#000000;stroke-width:2.95679998;stroke-linecap:round;stroke-linejoin:round;stroke-miterlimit:10;stroke-dasharray:none;stroke-opacity:1"
           d="m 9.602,-258.918 c -4.469,0.012 -8.11,-3.293 -8.125,-7.375 -0.012,-4.078 3.605,-7.398 8.082,-7.41 l 0.027,0" /></g><g
         transform="matrix(0,-1,-1,0,0,93.874741)"
         id="g148"><path
           id="path150"
           style="fill:none;stroke:#000000;stroke-width:2.95679998;stroke-linecap:round;stroke-linejoin:round;stroke-miterlimit:10;stroke-dasharray:none;stroke-opacity:1"
           d="m 9.406,-273.703 2.957,0" /></g><g
         transform="matrix(0,-1,-1,0,0,93.874741)"
         id="g152"><path
           id="path154"
           style="fill:none;stroke:#000000;stroke-width:2.95679998;stroke-linecap:round;stroke-linejoin:round;stroke-miterlimit:10;stroke-dasharray:none;stroke-opacity:1"
           d="m 9.406,-258.918 2.957,0" /></g><g
         transform="matrix(0,-1,-1,0,0,93.874741)"
         id="g156"><path
           id="path158"
           style="fill:none;stroke:#000000;stroke-width:2.95679998;stroke-linecap:square;stroke-linejoin:miter;stroke-miterlimit:10;stroke-dasharray:none;stroke-opacity:1"
           d="m 12.363,-331.359 0,11.824" /></g><g
         transform="matrix(0,-1,-1,0,0,93.874741)"
         id="g160"><path
           id="path162"
           style="fill:none;stroke:#000000;stroke-width:2.95679998;stroke-linecap:square;stroke-linejoin:miter;stroke-miterlimit:10;stroke-dasharray:none;stroke-opacity:1"
           d="m 12.363,-257.441 0,11.828" /></g><path
         id="path164"
         style="fill:#000000;fill-opacity:1;fill-rule:nonzero;stroke:none"
         d="m 20.898,9.07 2.957,0 0,-2.957 -2.957,0 0,2.957 z" /><g
         transform="matrix(0,1,1,0,0,93.874741)"
         id="g166"><path
           id="path168"
           style="fill:#ffffff;fill-opacity:1;fill-rule:nonzero;stroke:#000000;stroke-width:2.95679998;stroke-linecap:butt;stroke-linejoin:miter;stroke-miterlimit:4;stroke-dasharray:none;stroke-opacity:1"
           d="m -80.172,7.59 c 0,3.379 -2.734,6.113 -6.109,6.113 -3.379,0 -6.114,-2.734 -6.114,-6.113 0,-3.375 2.735,-6.113 6.114,-6.113 3.375,0 6.109,2.738 6.109,6.113 z" /></g><g
         transform="matrix(0,1,1,0,0,93.874741)"
         id="g170"><path
           id="path172"
           style="fill:none;stroke:#000000;stroke-width:2.95679998;stroke-linecap:square;stroke-linejoin:miter;stroke-miterlimit:10;stroke-dasharray:none;stroke-opacity:1"
           d="m -86.281,14.984 0,5.914" /></g><path
         id="path174"
         style="fill:#000000;fill-opacity:1;fill-rule:nonzero;stroke:none"
         d="m 375.715,82.992 2.957,0 0,-2.957 -2.957,0 0,2.957 z" /><g
         transform="matrix(0,-1,-1,0,0,93.874741)"
         id="g176"><path
           id="path178"
           style="fill:#ffffff;fill-opacity:1;fill-rule:nonzero;stroke:#000000;stroke-width:2.95679998;stroke-linecap:butt;stroke-linejoin:miter;stroke-miterlimit:4;stroke-dasharray:none;stroke-opacity:1"
           d="m 18.477,-391.977 c 0,3.379 -2.739,6.114 -6.114,6.114 -3.375,0 -6.113,-2.735 -6.113,-6.114 0,-3.375 2.738,-6.113 6.113,-6.113 3.375,0 6.114,2.738 6.114,6.113 z" /></g><g
         transform="matrix(0,-1,-1,0,0,93.874741)"
         id="g180"><path
           id="path182"
           style="fill:none;stroke:#000000;stroke-width:2.95679998;stroke-linecap:square;stroke-linejoin:miter;stroke-miterlimit:10;stroke-dasharray:none;stroke-opacity:1"
           d="m 12.363,-384.582 0,5.91" /></g><path
         id="path184"
         style="fill:#000000;fill-opacity:1;fill-rule:nonzero;stroke:none"
         d="m 375.715,9.07 2.957,0 0,-2.957 -2.957,0 0,2.957 z" /><g
         transform="matrix(0,-1,-1,0,0,93.874741)"
         id="g186"><path
           id="path188"
           style="fill:#ffffff;fill-opacity:1;fill-rule:nonzero;stroke:#000000;stroke-width:2.95679998;stroke-linecap:butt;stroke-linejoin:miter;stroke-miterlimit:4;stroke-dasharray:none;stroke-opacity:1"
           d="m 92.395,-391.977 c 0,3.379 -2.735,6.114 -6.114,6.114 -3.375,0 -6.109,-2.735 -6.109,-6.114 0,-3.375 2.734,-6.113 6.109,-6.113 3.379,0 6.114,2.738 6.114,6.113 z" /></g><g
         transform="matrix(0,-1,-1,0,0,93.874741)"
         id="g190"><path
           id="path192"
           style="fill:none;stroke:#000000;stroke-width:2.95679998;stroke-linecap:square;stroke-linejoin:miter;stroke-miterlimit:10;stroke-dasharray:none;stroke-opacity:1"
           d="m 86.281,-384.582 0,5.91" /></g><g
         transform="matrix(1,0,0,-1,0,93.874741)"
         id="g194"><path
           id="path196"
           style="fill:none;stroke:#000000;stroke-width:2.95679998;stroke-linecap:butt;stroke-linejoin:miter;stroke-miterlimit:10;stroke-dasharray:none;stroke-opacity:1"
           d="m 22.375,86.281 354.816,0" /></g><g
         transform="matrix(1,0,0,-1,0,93.874741)"
         id="g198"><path
           id="path200"
           style="fill:none;stroke:#000000;stroke-width:2.95679998;stroke-linecap:butt;stroke-linejoin:miter;stroke-miterlimit:10;stroke-dasharray:none;stroke-opacity:1"
           d="m 22.375,12.363 44.352,0" /></g><g
         transform="matrix(1,0,0,-1,0,93.874741)"
         id="g202"><path
           id="path204"
           style="fill:none;stroke:#000000;stroke-width:2.95679998;stroke-linecap:butt;stroke-linejoin:miter;stroke-miterlimit:10;stroke-dasharray:none;stroke-opacity:1"
           d="m 155.43,12.363 88.707,0" /></g><g
         transform="matrix(1,0,0,-1,0,93.874741)"
         id="g206"><path
           id="path208"
           style="fill:none;stroke:#000000;stroke-width:2.95679998;stroke-linecap:butt;stroke-linejoin:miter;stroke-miterlimit:10;stroke-dasharray:none;stroke-opacity:1"
           d="m 332.84,12.363 44.351,0" /></g><g
         transform="matrix(1,0,0,-1,0,93.874741)"
         id="g210"><path
           id="path212"
           style="fill:#000000;fill-opacity:1;fill-rule:nonzero;stroke:#000000;stroke-width:2.95679998;stroke-linecap:butt;stroke-linejoin:miter;stroke-miterlimit:4;stroke-dasharray:none;stroke-opacity:1"
           d="m 202.742,12.363 c 0,1.633 -1.324,2.957 -2.957,2.957 -1.633,0 -2.957,-1.324 -2.957,-2.957 0,-1.633 1.324,-2.957 2.957,-2.957 1.633,0 2.957,1.324 2.957,2.957 z" /></g><g
         transform="matrix(1,0,0,-1,0,93.874741)"
         id="g214"><path
           id="path216"
           style="fill:#000000;fill-opacity:1;fill-rule:nonzero;stroke:#000000;stroke-width:2.95679998;stroke-linecap:butt;stroke-linejoin:miter;stroke-miterlimit:4;stroke-dasharray:none;stroke-opacity:1"
           d="m 202.742,86.281 c 0,1.637 -1.324,2.957 -2.957,2.957 -1.633,0 -2.957,-1.32 -2.957,-2.957 0,-1.633 1.324,-2.953 2.957,-2.953 1.633,0 2.957,1.32 2.957,2.953 z" /></g></g></g></svg>