<?xml version="1.0" encoding="UTF-8" standalone="no"?>
<svg
   xmlns:dc="http://purl.org/dc/elements/1.1/"
   xmlns:cc="http://creativecommons.org/ns#"
   xmlns:rdf="http://www.w3.org/1999/02/22-rdf-syntax-ns#"
   xmlns:svg="http://www.w3.org/2000/svg"
   xmlns="http://www.w3.org/2000/svg"
   viewBox="0 0 641.23254 304.3782"
   height="304.3782"
   width="641.23254"
   xml:space="preserve"
   version="1.1"
   id="svg2"><metadata
     id="metadata8"><rdf:RDF><cc:Work
         rdf:about=""><dc:format>image/svg+xml</dc:format><dc:type
           rdf:resource="http://purl.org/dc/dcmitype/StillImage" /></cc:Work></rdf:RDF></metadata><defs
     id="defs6" /><g
     transform="matrix(1.25,0,0,-1.25,0,304.3782)"
     id="g10"><g
       id="g12"><path
         id="path14"
         style="fill:#000000;fill-opacity:1;fill-rule:nonzero;stroke:none"
         d="m 146.277,219.151 2.562,0 0,-2.562 -2.562,0 0,2.562 z" /><path
         id="path16"
         style="fill:#000000;fill-opacity:1;fill-rule:nonzero;stroke:none"
         d="m 146.277,142.256 2.562,0 0,-2.562 -2.562,0 0,2.562 z" /><path
         id="path18"
         style="fill:#000000;fill-opacity:1;fill-rule:nonzero;stroke:none"
         d="m 107.828,219.151 2.562,0 0,-2.562 -2.562,0 0,2.562 z" /><path
         id="path20"
         style="fill:#000000;fill-opacity:1;fill-rule:nonzero;stroke:none"
         d="m 107.828,142.256 2.562,0 0,-2.562 -2.562,0 0,2.562 z" /><g
         transform="matrix(1,0,0,-1,0,243.50256)"
         id="g22"><path
           id="path24"
           style="fill:none;stroke:#000000;stroke-width:2.5632;stroke-linecap:round;stroke-linejoin:round;stroke-miterlimit:10;stroke-dasharray:none;stroke-opacity:1"
           d="m 141.961,51.266 c -3.879,0.004 -7.035,-2.852 -7.043,-6.387 -0.012,-3.539 3.125,-6.418 7.008,-6.43 l 0.012,0" /></g><g
         transform="matrix(1,0,0,-1,0,243.50256)"
         id="g26"><path
           id="path28"
           style="fill:none;stroke:#000000;stroke-width:2.5632;stroke-linecap:round;stroke-linejoin:round;stroke-miterlimit:10;stroke-dasharray:none;stroke-opacity:1"
           d="m 141.789,38.449 5.789,0" /></g><g
         transform="matrix(1,0,0,-1,0,243.50256)"
         id="g30"><path
           id="path32"
           style="fill:none;stroke:#000000;stroke-width:2.5632;stroke-linecap:round;stroke-linejoin:round;stroke-miterlimit:10;stroke-dasharray:none;stroke-opacity:1"
           d="m 141.789,51.266 2.563,0" /></g><g
         transform="matrix(1,0,0,-1,0,243.50256)"
         id="g34"><path
           id="path36"
           style="fill:none;stroke:#000000;stroke-width:2.5632;stroke-linecap:round;stroke-linejoin:round;stroke-miterlimit:10;stroke-dasharray:none;stroke-opacity:1"
           d="m 141.961,64.078 c -3.879,0.008 -7.035,-2.848 -7.043,-6.383 -0.012,-3.539 3.125,-6.418 7.008,-6.429 l 0.012,0" /></g><g
         transform="matrix(1,0,0,-1,0,243.50256)"
         id="g38"><path
           id="path40"
           style="fill:none;stroke:#000000;stroke-width:2.5632;stroke-linecap:round;stroke-linejoin:round;stroke-miterlimit:10;stroke-dasharray:none;stroke-opacity:1"
           d="m 141.789,51.266 2.563,0" /></g><g
         transform="matrix(1,0,0,-1,0,243.50256)"
         id="g42"><path
           id="path44"
           style="fill:none;stroke:#000000;stroke-width:2.5632;stroke-linecap:round;stroke-linejoin:round;stroke-miterlimit:10;stroke-dasharray:none;stroke-opacity:1"
           d="m 141.789,64.078 2.563,0" /></g><g
         transform="matrix(1,0,0,-1,0,243.50256)"
         id="g46"><path
           id="path48"
           style="fill:none;stroke:#000000;stroke-width:2.5632;stroke-linecap:round;stroke-linejoin:round;stroke-miterlimit:10;stroke-dasharray:none;stroke-opacity:1"
           d="m 141.961,76.895 c -3.879,0.007 -7.035,-2.848 -7.043,-6.387 -0.012,-3.535 3.125,-6.414 7.008,-6.43 l 0.012,0" /></g><g
         transform="matrix(1,0,0,-1,0,243.50256)"
         id="g50"><path
           id="path52"
           style="fill:none;stroke:#000000;stroke-width:2.5632;stroke-linecap:round;stroke-linejoin:round;stroke-miterlimit:10;stroke-dasharray:none;stroke-opacity:1"
           d="m 141.789,64.078 2.563,0" /></g><g
         transform="matrix(1,0,0,-1,0,243.50256)"
         id="g54"><path
           id="path56"
           style="fill:none;stroke:#000000;stroke-width:2.5632;stroke-linecap:round;stroke-linejoin:round;stroke-miterlimit:10;stroke-dasharray:none;stroke-opacity:1"
           d="m 141.789,76.895 2.563,0" /></g><g
         transform="matrix(1,0,0,-1,0,243.50256)"
         id="g58"><path
           id="path60"
           style="fill:none;stroke:#000000;stroke-width:2.5632;stroke-linecap:round;stroke-linejoin:round;stroke-miterlimit:10;stroke-dasharray:none;stroke-opacity:1"
           d="m 141.961,89.711 c -3.879,0.008 -7.035,-2.848 -7.043,-6.387 -0.012,-3.539 3.125,-6.414 7.008,-6.429 l 0.012,0" /></g><g
         transform="matrix(1,0,0,-1,0,243.50256)"
         id="g62"><path
           id="path64"
           style="fill:none;stroke:#000000;stroke-width:2.5632;stroke-linecap:round;stroke-linejoin:round;stroke-miterlimit:10;stroke-dasharray:none;stroke-opacity:1"
           d="m 141.789,76.895 2.563,0" /></g><g
         transform="matrix(1,0,0,-1,0,243.50256)"
         id="g66"><path
           id="path68"
           style="fill:none;stroke:#000000;stroke-width:2.5632;stroke-linecap:round;stroke-linejoin:round;stroke-miterlimit:10;stroke-dasharray:none;stroke-opacity:1"
           d="m 141.789,89.711 5.731,0" /></g><g
         transform="matrix(1,0,0,-1,0,243.50256)"
         id="g70"><path
           id="path72"
           style="fill:none;stroke:#000000;stroke-width:2.5632;stroke-linecap:square;stroke-linejoin:miter;stroke-miterlimit:10;stroke-dasharray:none;stroke-opacity:1"
           d="m 147.559,26.914 0,10.254" /></g><g
         transform="matrix(1,0,0,-1,0,243.50256)"
         id="g74"><path
           id="path76"
           style="fill:none;stroke:#000000;stroke-width:2.5632;stroke-linecap:square;stroke-linejoin:miter;stroke-miterlimit:10;stroke-dasharray:none;stroke-opacity:1"
           d="m 147.559,90.992 0,10.254" /></g><g
         transform="matrix(1,0,0,-1,0,243.50256)"
         id="g78"><path
           id="path80"
           style="fill:none;stroke:#000000;stroke-width:2.5632;stroke-linecap:round;stroke-linejoin:round;stroke-miterlimit:10;stroke-dasharray:none;stroke-opacity:1"
           d="m 130.254,38.449 0,51.262" /></g><g
         transform="matrix(1,0,0,-1,0,243.50256)"
         id="g82"><path
           id="path84"
           style="fill:none;stroke:#000000;stroke-width:2.5632;stroke-linecap:round;stroke-linejoin:round;stroke-miterlimit:10;stroke-dasharray:none;stroke-opacity:1"
           d="m 126.41,38.449 0,51.262" /></g><g
         transform="matrix(1,0,0,-1,0,243.50256)"
         id="g86"><path
           id="path88"
           style="fill:none;stroke:#000000;stroke-width:2.5632;stroke-linecap:round;stroke-linejoin:round;stroke-miterlimit:10;stroke-dasharray:none;stroke-opacity:1"
           d="m 114.707,51.266 c 3.879,0.004 7.031,-2.852 7.039,-6.387 0.016,-3.539 -3.125,-6.418 -7.004,-6.43 l -0.023,0" /></g><g
         transform="matrix(1,0,0,-1,0,243.50256)"
         id="g90"><path
           id="path92"
           style="fill:none;stroke:#000000;stroke-width:2.5632;stroke-linecap:round;stroke-linejoin:round;stroke-miterlimit:10;stroke-dasharray:none;stroke-opacity:1"
           d="m 114.875,38.449 -5.793,0" /></g><g
         transform="matrix(1,0,0,-1,0,243.50256)"
         id="g94"><path
           id="path96"
           style="fill:none;stroke:#000000;stroke-width:2.5632;stroke-linecap:round;stroke-linejoin:round;stroke-miterlimit:10;stroke-dasharray:none;stroke-opacity:1"
           d="m 114.875,51.266 -2.563,0" /></g><g
         transform="matrix(1,0,0,-1,0,243.50256)"
         id="g98"><path
           id="path100"
           style="fill:none;stroke:#000000;stroke-width:2.5632;stroke-linecap:round;stroke-linejoin:round;stroke-miterlimit:10;stroke-dasharray:none;stroke-opacity:1"
           d="m 114.707,64.078 c 3.879,0.008 7.031,-2.848 7.039,-6.383 0.016,-3.539 -3.125,-6.418 -7.004,-6.429 l -0.023,0" /></g><g
         transform="matrix(1,0,0,-1,0,243.50256)"
         id="g102"><path
           id="path104"
           style="fill:none;stroke:#000000;stroke-width:2.5632;stroke-linecap:round;stroke-linejoin:round;stroke-miterlimit:10;stroke-dasharray:none;stroke-opacity:1"
           d="m 114.875,51.266 -2.563,0" /></g><g
         transform="matrix(1,0,0,-1,0,243.50256)"
         id="g106"><path
           id="path108"
           style="fill:none;stroke:#000000;stroke-width:2.5632;stroke-linecap:round;stroke-linejoin:round;stroke-miterlimit:10;stroke-dasharray:none;stroke-opacity:1"
           d="m 114.875,64.078 -2.563,0" /></g><g
         transform="matrix(1,0,0,-1,0,243.50256)"
         id="g110"><path
           id="path112"
           style="fill:none;stroke:#000000;stroke-width:2.5632;stroke-linecap:round;stroke-linejoin:round;stroke-miterlimit:10;stroke-dasharray:none;stroke-opacity:1"
           d="m 114.707,76.895 c 3.879,0.007 7.031,-2.848 7.039,-6.387 0.016,-3.535 -3.125,-6.414 -7.004,-6.43 l -0.023,0" /></g><g
         transform="matrix(1,0,0,-1,0,243.50256)"
         id="g114"><path
           id="path116"
           style="fill:none;stroke:#000000;stroke-width:2.5632;stroke-linecap:round;stroke-linejoin:round;stroke-miterlimit:10;stroke-dasharray:none;stroke-opacity:1"
           d="m 114.875,64.078 -2.563,0" /></g><g
         transform="matrix(1,0,0,-1,0,243.50256)"
         id="g118"><path
           id="path120"
           style="fill:none;stroke:#000000;stroke-width:2.5632;stroke-linecap:round;stroke-linejoin:round;stroke-miterlimit:10;stroke-dasharray:none;stroke-opacity:1"
           d="m 114.875,76.895 -2.563,0" /></g><g
         transform="matrix(1,0,0,-1,0,243.50256)"
         id="g122"><path
           id="path124"
           style="fill:none;stroke:#000000;stroke-width:2.5632;stroke-linecap:round;stroke-linejoin:round;stroke-miterlimit:10;stroke-dasharray:none;stroke-opacity:1"
           d="m 114.707,89.711 c 3.879,0.008 7.031,-2.848 7.039,-6.387 0.016,-3.539 -3.125,-6.414 -7.004,-6.429 l -0.023,0" /></g><g
         transform="matrix(1,0,0,-1,0,243.50256)"
         id="g126"><path
           id="path128"
           style="fill:none;stroke:#000000;stroke-width:2.5632;stroke-linecap:round;stroke-linejoin:round;stroke-miterlimit:10;stroke-dasharray:none;stroke-opacity:1"
           d="m 114.875,76.895 -2.563,0" /></g><g
         transform="matrix(1,0,0,-1,0,243.50256)"
         id="g130"><path
           id="path132"
           style="fill:none;stroke:#000000;stroke-width:2.5632;stroke-linecap:round;stroke-linejoin:round;stroke-miterlimit:10;stroke-dasharray:none;stroke-opacity:1"
           d="m 114.875,89.711 -5.793,0.113" /></g><g
         transform="matrix(1,0,0,-1,0,243.50256)"
         id="g134"><path
           id="path136"
           style="fill:none;stroke:#000000;stroke-width:2.5632;stroke-linecap:square;stroke-linejoin:miter;stroke-miterlimit:10;stroke-dasharray:none;stroke-opacity:1"
           d="m 109.109,26.914 0,10.254" /></g><g
         transform="matrix(1,0,0,-1,0,243.50256)"
         id="g138"><path
           id="path140"
           style="fill:none;stroke:#000000;stroke-width:2.5632;stroke-linecap:square;stroke-linejoin:miter;stroke-miterlimit:10;stroke-dasharray:none;stroke-opacity:1"
           d="m 109.109,90.992 0,10.254" /></g><g
         transform="matrix(1,0,0,-1,0,243.50256)"
         id="g142"><path
           id="path144"
           style="fill:none;stroke:#000000;stroke-width:2.5632;stroke-linecap:butt;stroke-linejoin:miter;stroke-miterlimit:4;stroke-dasharray:none;stroke-opacity:1"
           d="m 116.086,44.855 c 0,0.707 -0.574,1.282 -1.281,1.282 -0.707,0 -1.282,-0.575 -1.282,-1.282 0,-0.707 0.575,-1.281 1.282,-1.281 0.707,0 1.281,0.574 1.281,1.281 z" /></g><g
         transform="matrix(1,0,0,-1,0,243.50256)"
         id="g146"><path
           id="path148"
           style="fill:none;stroke:#000000;stroke-width:2.5632;stroke-linecap:butt;stroke-linejoin:miter;stroke-miterlimit:4;stroke-dasharray:none;stroke-opacity:1"
           d="m 143.145,44.855 c 0,0.707 -0.575,1.282 -1.286,1.282 -0.707,0 -1.281,-0.575 -1.281,-1.282 0,-0.707 0.574,-1.281 1.281,-1.281 0.711,0 1.286,0.574 1.286,1.281 z" /></g><path
         id="path150"
         style="fill:#000000;fill-opacity:1;fill-rule:nonzero;stroke:none"
         d="m 109.719,231.796 2.609,2.625 -2.578,2.578 1.156,1.14 2.578,-2.562 2.578,2.578 1.157,-1.156 -2.578,-2.594 2.578,-2.563 -1.157,-1.171 -2.578,2.593 -2.609,-2.625 -1.156,1.157 z" /><path
         id="path152"
         style="fill:#000000;fill-opacity:1;fill-rule:nonzero;stroke:none"
         d="m 123.73,238.061 0,-8.656 -2.156,0 0,8.656 -3.328,0 0,1.656 8.828,0 0,-1.656 -3.344,0 z" /><path
         id="path154"
         style="fill:#000000;fill-opacity:1;fill-rule:nonzero;stroke:none"
         d="m 128.414,229.405 0,1.531 2.563,0 0,7.031 -2.469,-1.531 0,1.61 2.578,1.671 1.953,0 0,-8.781 2.359,0 0,-1.531 -6.984,0 z" /><path
         id="path156"
         style="fill:#000000;fill-opacity:1;fill-rule:nonzero;stroke:none"
         d="m 402.594,219.151 2.566,0 0,-2.562 -2.566,0 0,2.562 z" /><path
         id="path158"
         style="fill:#000000;fill-opacity:1;fill-rule:nonzero;stroke:none"
         d="m 402.594,142.256 2.566,0 0,-2.562 -2.566,0 0,2.562 z" /><path
         id="path160"
         style="fill:#000000;fill-opacity:1;fill-rule:nonzero;stroke:none"
         d="m 364.148,219.151 2.562,0 0,-2.562 -2.562,0 0,2.562 z" /><path
         id="path162"
         style="fill:#000000;fill-opacity:1;fill-rule:nonzero;stroke:none"
         d="m 364.148,142.256 2.562,0 0,-2.562 -2.562,0 0,2.562 z" /><g
         transform="matrix(1,0,0,-1,0,243.50256)"
         id="g164"><path
           id="path166"
           style="fill:none;stroke:#000000;stroke-width:2.5632;stroke-linecap:round;stroke-linejoin:round;stroke-miterlimit:10;stroke-dasharray:none;stroke-opacity:1"
           d="m 398.281,51.266 c -3.883,0.004 -7.035,-2.852 -7.043,-6.387 -0.011,-3.539 3.125,-6.418 7.008,-6.43 l 0.012,0" /></g><g
         transform="matrix(1,0,0,-1,0,243.50256)"
         id="g168"><path
           id="path170"
           style="fill:none;stroke:#000000;stroke-width:2.5632;stroke-linecap:round;stroke-linejoin:round;stroke-miterlimit:10;stroke-dasharray:none;stroke-opacity:1"
           d="m 398.109,38.449 5.789,0" /></g><g
         transform="matrix(1,0,0,-1,0,243.50256)"
         id="g172"><path
           id="path174"
           style="fill:none;stroke:#000000;stroke-width:2.5632;stroke-linecap:round;stroke-linejoin:round;stroke-miterlimit:10;stroke-dasharray:none;stroke-opacity:1"
           d="m 398.109,51.266 2.563,0" /></g><g
         transform="matrix(1,0,0,-1,0,243.50256)"
         id="g176"><path
           id="path178"
           style="fill:none;stroke:#000000;stroke-width:2.5632;stroke-linecap:round;stroke-linejoin:round;stroke-miterlimit:10;stroke-dasharray:none;stroke-opacity:1"
           d="m 398.281,64.078 c -3.883,0.008 -7.035,-2.848 -7.043,-6.383 -0.011,-3.539 3.125,-6.418 7.008,-6.429 l 0.012,0" /></g><g
         transform="matrix(1,0,0,-1,0,243.50256)"
         id="g180"><path
           id="path182"
           style="fill:none;stroke:#000000;stroke-width:2.5632;stroke-linecap:round;stroke-linejoin:round;stroke-miterlimit:10;stroke-dasharray:none;stroke-opacity:1"
           d="m 398.109,51.266 2.563,0" /></g><g
         transform="matrix(1,0,0,-1,0,243.50256)"
         id="g184"><path
           id="path186"
           style="fill:none;stroke:#000000;stroke-width:2.5632;stroke-linecap:round;stroke-linejoin:round;stroke-miterlimit:10;stroke-dasharray:none;stroke-opacity:1"
           d="m 398.109,64.078 2.563,0" /></g><g
         transform="matrix(1,0,0,-1,0,243.50256)"
         id="g188"><path
           id="path190"
           style="fill:none;stroke:#000000;stroke-width:2.5632;stroke-linecap:round;stroke-linejoin:round;stroke-miterlimit:10;stroke-dasharray:none;stroke-opacity:1"
           d="m 398.281,76.895 c -3.883,0.007 -7.035,-2.848 -7.043,-6.387 -0.011,-3.535 3.125,-6.414 7.008,-6.43 l 0.012,0" /></g><g
         transform="matrix(1,0,0,-1,0,243.50256)"
         id="g192"><path
           id="path194"
           style="fill:none;stroke:#000000;stroke-width:2.5632;stroke-linecap:round;stroke-linejoin:round;stroke-miterlimit:10;stroke-dasharray:none;stroke-opacity:1"
           d="m 398.109,64.078 2.563,0" /></g><g
         transform="matrix(1,0,0,-1,0,243.50256)"
         id="g196"><path
           id="path198"
           style="fill:none;stroke:#000000;stroke-width:2.5632;stroke-linecap:round;stroke-linejoin:round;stroke-miterlimit:10;stroke-dasharray:none;stroke-opacity:1"
           d="m 398.109,76.895 2.563,0" /></g><g
         transform="matrix(1,0,0,-1,0,243.50256)"
         id="g200"><path
           id="path202"
           style="fill:none;stroke:#000000;stroke-width:2.5632;stroke-linecap:round;stroke-linejoin:round;stroke-miterlimit:10;stroke-dasharray:none;stroke-opacity:1"
           d="m 398.281,89.711 c -3.883,0.008 -7.035,-2.848 -7.043,-6.387 -0.011,-3.539 3.125,-6.414 7.008,-6.429 l 0.012,0" /></g><g
         transform="matrix(1,0,0,-1,0,243.50256)"
         id="g204"><path
           id="path206"
           style="fill:none;stroke:#000000;stroke-width:2.5632;stroke-linecap:round;stroke-linejoin:round;stroke-miterlimit:10;stroke-dasharray:none;stroke-opacity:1"
           d="m 398.109,76.895 2.563,0" /></g><g
         transform="matrix(1,0,0,-1,0,243.50256)"
         id="g208"><path
           id="path210"
           style="fill:none;stroke:#000000;stroke-width:2.5632;stroke-linecap:round;stroke-linejoin:round;stroke-miterlimit:10;stroke-dasharray:none;stroke-opacity:1"
           d="m 398.109,89.711 5.731,0" /></g><g
         transform="matrix(1,0,0,-1,0,243.50256)"
         id="g212"><path
           id="path214"
           style="fill:none;stroke:#000000;stroke-width:2.5632;stroke-linecap:square;stroke-linejoin:miter;stroke-miterlimit:10;stroke-dasharray:none;stroke-opacity:1"
           d="m 403.879,26.914 0,10.254" /></g><g
         transform="matrix(1,0,0,-1,0,243.50256)"
         id="g216"><path
           id="path218"
           style="fill:none;stroke:#000000;stroke-width:2.5632;stroke-linecap:square;stroke-linejoin:miter;stroke-miterlimit:10;stroke-dasharray:none;stroke-opacity:1"
           d="m 403.879,90.992 0,10.254" /></g><g
         transform="matrix(1,0,0,-1,0,243.50256)"
         id="g220"><path
           id="path222"
           style="fill:none;stroke:#000000;stroke-width:2.5632;stroke-linecap:round;stroke-linejoin:round;stroke-miterlimit:10;stroke-dasharray:none;stroke-opacity:1"
           d="m 386.574,38.449 0,51.262" /></g><g
         transform="matrix(1,0,0,-1,0,243.50256)"
         id="g224"><path
           id="path226"
           style="fill:none;stroke:#000000;stroke-width:2.5632;stroke-linecap:round;stroke-linejoin:round;stroke-miterlimit:10;stroke-dasharray:none;stroke-opacity:1"
           d="m 382.73,38.449 0,51.262" /></g><g
         transform="matrix(1,0,0,-1,0,243.50256)"
         id="g228"><path
           id="path230"
           style="fill:none;stroke:#000000;stroke-width:2.5632;stroke-linecap:round;stroke-linejoin:round;stroke-miterlimit:10;stroke-dasharray:none;stroke-opacity:1"
           d="m 371.023,51.266 c 3.883,0.004 7.036,-2.852 7.043,-6.387 0.016,-3.539 -3.125,-6.418 -7.004,-6.43 l -0.023,0" /></g><g
         transform="matrix(1,0,0,-1,0,243.50256)"
         id="g232"><path
           id="path234"
           style="fill:none;stroke:#000000;stroke-width:2.5632;stroke-linecap:round;stroke-linejoin:round;stroke-miterlimit:10;stroke-dasharray:none;stroke-opacity:1"
           d="m 371.195,38.449 -5.793,0" /></g><g
         transform="matrix(1,0,0,-1,0,243.50256)"
         id="g236"><path
           id="path238"
           style="fill:none;stroke:#000000;stroke-width:2.5632;stroke-linecap:round;stroke-linejoin:round;stroke-miterlimit:10;stroke-dasharray:none;stroke-opacity:1"
           d="m 371.195,51.266 -2.562,0" /></g><g
         transform="matrix(1,0,0,-1,0,243.50256)"
         id="g240"><path
           id="path242"
           style="fill:none;stroke:#000000;stroke-width:2.5632;stroke-linecap:round;stroke-linejoin:round;stroke-miterlimit:10;stroke-dasharray:none;stroke-opacity:1"
           d="m 371.023,64.078 c 3.883,0.008 7.036,-2.848 7.043,-6.383 0.016,-3.539 -3.125,-6.418 -7.004,-6.429 l -0.023,0" /></g><g
         transform="matrix(1,0,0,-1,0,243.50256)"
         id="g244"><path
           id="path246"
           style="fill:none;stroke:#000000;stroke-width:2.5632;stroke-linecap:round;stroke-linejoin:round;stroke-miterlimit:10;stroke-dasharray:none;stroke-opacity:1"
           d="m 371.195,51.266 -2.562,0" /></g><g
         transform="matrix(1,0,0,-1,0,243.50256)"
         id="g248"><path
           id="path250"
           style="fill:none;stroke:#000000;stroke-width:2.5632;stroke-linecap:round;stroke-linejoin:round;stroke-miterlimit:10;stroke-dasharray:none;stroke-opacity:1"
           d="m 371.195,64.078 -2.562,0" /></g><g
         transform="matrix(1,0,0,-1,0,243.50256)"
         id="g252"><path
           id="path254"
           style="fill:none;stroke:#000000;stroke-width:2.5632;stroke-linecap:round;stroke-linejoin:round;stroke-miterlimit:10;stroke-dasharray:none;stroke-opacity:1"
           d="m 371.023,76.895 c 3.883,0.007 7.036,-2.848 7.043,-6.387 0.016,-3.535 -3.125,-6.414 -7.004,-6.43 l -0.023,0" /></g><g
         transform="matrix(1,0,0,-1,0,243.50256)"
         id="g256"><path
           id="path258"
           style="fill:none;stroke:#000000;stroke-width:2.5632;stroke-linecap:round;stroke-linejoin:round;stroke-miterlimit:10;stroke-dasharray:none;stroke-opacity:1"
           d="m 371.195,64.078 -2.562,0" /></g><g
         transform="matrix(1,0,0,-1,0,243.50256)"
         id="g260"><path
           id="path262"
           style="fill:none;stroke:#000000;stroke-width:2.5632;stroke-linecap:round;stroke-linejoin:round;stroke-miterlimit:10;stroke-dasharray:none;stroke-opacity:1"
           d="m 371.195,76.895 -2.562,0" /></g><g
         transform="matrix(1,0,0,-1,0,243.50256)"
         id="g264"><path
           id="path266"
           style="fill:none;stroke:#000000;stroke-width:2.5632;stroke-linecap:round;stroke-linejoin:round;stroke-miterlimit:10;stroke-dasharray:none;stroke-opacity:1"
           d="m 371.023,89.711 c 3.883,0.008 7.036,-2.848 7.043,-6.387 0.016,-3.539 -3.125,-6.414 -7.004,-6.429 l -0.023,0" /></g><g
         transform="matrix(1,0,0,-1,0,243.50256)"
         id="g268"><path
           id="path270"
           style="fill:none;stroke:#000000;stroke-width:2.5632;stroke-linecap:round;stroke-linejoin:round;stroke-miterlimit:10;stroke-dasharray:none;stroke-opacity:1"
           d="m 371.195,76.895 -2.562,0" /></g><g
         transform="matrix(1,0,0,-1,0,243.50256)"
         id="g272"><path
           id="path274"
           style="fill:none;stroke:#000000;stroke-width:2.5632;stroke-linecap:round;stroke-linejoin:round;stroke-miterlimit:10;stroke-dasharray:none;stroke-opacity:1"
           d="m 371.195,89.711 -5.793,0.113" /></g><g
         transform="matrix(1,0,0,-1,0,243.50256)"
         id="g276"><path
           id="path278"
           style="fill:none;stroke:#000000;stroke-width:2.5632;stroke-linecap:square;stroke-linejoin:miter;stroke-miterlimit:10;stroke-dasharray:none;stroke-opacity:1"
           d="m 365.43,26.914 0,10.254" /></g><g
         transform="matrix(1,0,0,-1,0,243.50256)"
         id="g280"><path
           id="path282"
           style="fill:none;stroke:#000000;stroke-width:2.5632;stroke-linecap:square;stroke-linejoin:miter;stroke-miterlimit:10;stroke-dasharray:none;stroke-opacity:1"
           d="m 365.43,90.992 0,10.254" /></g><g
         transform="matrix(1,0,0,-1,0,243.50256)"
         id="g284"><path
           id="path286"
           style="fill:none;stroke:#000000;stroke-width:2.5632;stroke-linecap:butt;stroke-linejoin:miter;stroke-miterlimit:4;stroke-dasharray:none;stroke-opacity:1"
           d="m 372.406,44.855 c 0,0.707 -0.574,1.282 -1.281,1.282 -0.707,0 -1.281,-0.575 -1.281,-1.282 0,-0.707 0.574,-1.281 1.281,-1.281 0.707,0 1.281,0.574 1.281,1.281 z" /></g><g
         transform="matrix(1,0,0,-1,0,243.50256)"
         id="g288"><path
           id="path290"
           style="fill:none;stroke:#000000;stroke-width:2.5632;stroke-linecap:butt;stroke-linejoin:miter;stroke-miterlimit:4;stroke-dasharray:none;stroke-opacity:1"
           d="m 399.461,44.855 c 0,0.707 -0.57,1.282 -1.281,1.282 -0.707,0 -1.282,-0.575 -1.282,-1.282 0,-0.707 0.575,-1.281 1.282,-1.281 0.711,0 1.281,0.574 1.281,1.281 z" /></g><path
         id="path292"
         style="fill:#000000;fill-opacity:1;fill-rule:nonzero;stroke:none"
         d="m 366.039,231.796 2.609,2.625 -2.578,2.578 1.157,1.14 2.578,-2.562 2.578,2.578 1.156,-1.156 -2.578,-2.594 2.578,-2.563 -1.156,-1.171 -2.578,2.593 -2.61,-2.625 -1.156,1.157 z" /><path
         id="path294"
         style="fill:#000000;fill-opacity:1;fill-rule:nonzero;stroke:none"
         d="m 380.051,238.061 0,-8.656 -2.156,0 0,8.656 -3.329,0 0,1.656 8.829,0 0,-1.656 -3.344,0 z" /><path
         id="path296"
         style="fill:#000000;fill-opacity:1;fill-rule:nonzero;stroke:none"
         d="m 384.312,229.405 0,1.422 c 0.239,0.519 0.524,0.984 0.86,1.39 0.332,0.414 0.68,0.797 1.047,1.141 0.375,0.344 0.742,0.66 1.109,0.953 0.363,0.301 0.692,0.586 0.984,0.86 0.29,0.281 0.524,0.554 0.704,0.828 0.187,0.281 0.281,0.578 0.281,0.89 0,0.457 -0.117,0.797 -0.344,1.016 -0.23,0.219 -0.57,0.328 -1.015,0.328 -0.438,0 -0.778,-0.121 -1.016,-0.359 -0.231,-0.231 -0.375,-0.586 -0.438,-1.063 l -2.078,0.125 c 0.051,0.406 0.149,0.785 0.297,1.141 0.156,0.351 0.375,0.664 0.656,0.937 0.282,0.27 0.629,0.477 1.047,0.625 0.426,0.157 0.93,0.235 1.516,0.235 0.551,0 1.039,-0.071 1.469,-0.203 0.437,-0.125 0.8,-0.313 1.093,-0.563 0.289,-0.242 0.508,-0.543 0.657,-0.906 0.156,-0.356 0.234,-0.762 0.234,-1.219 0,-0.492 -0.094,-0.934 -0.281,-1.328 -0.188,-0.387 -0.434,-0.746 -0.735,-1.078 -0.304,-0.324 -0.636,-0.633 -1,-0.922 -0.355,-0.281 -0.703,-0.563 -1.047,-0.844 -0.343,-0.273 -0.656,-0.547 -0.937,-0.828 -0.281,-0.273 -0.492,-0.57 -0.625,-0.891 l 4.781,0 0,-1.687 -7.219,0 z" /><g
         transform="matrix(1,0,0,-1,0,243.50256)"
         id="g298"><path
           id="path300"
           style="fill:none;stroke:#000000;stroke-width:2.5632;stroke-linecap:butt;stroke-linejoin:miter;stroke-miterlimit:10;stroke-dasharray:none;stroke-opacity:1"
           d="m 147.559,102.527 217.871,0" /></g><path
         id="path302"
         style="fill:#000000;fill-opacity:1;fill-rule:nonzero;stroke:none"
         d="m 261.621,219.151 2.562,0 0,-2.562 -2.562,0 0,2.562 z" /><path
         id="path304"
         style="fill:#000000;fill-opacity:1;fill-rule:nonzero;stroke:none"
         d="m 261.621,142.256 2.562,0 0,-2.562 -2.562,0 0,2.562 z" /><g
         transform="matrix(1,0,0,-1,0,243.50256)"
         id="g306"><path
           id="path308"
           style="fill:none;stroke:#000000;stroke-width:2.5632;stroke-linecap:square;stroke-linejoin:miter;stroke-miterlimit:10;stroke-dasharray:none;stroke-opacity:1"
           d="m 262.902,26.914 0,12.816" /></g><g
         transform="matrix(1,0,0,-1,0,243.50256)"
         id="g310"><path
           id="path312"
           style="fill:none;stroke:#000000;stroke-width:2.5632;stroke-linecap:square;stroke-linejoin:miter;stroke-miterlimit:10;stroke-dasharray:none;stroke-opacity:1"
           d="m 262.902,88.43 0,12.816" /></g><g
         transform="matrix(1,0,0,-1,0,243.50256)"
         id="g314"><path
           id="path316"
           style="fill:#ffffff;fill-opacity:1;fill-rule:nonzero;stroke:#000000;stroke-width:2.5632;stroke-linecap:round;stroke-linejoin:round;stroke-miterlimit:10;stroke-dasharray:none;stroke-opacity:1"
           d="m 253.93,41.012 c 17.168,-0.227 17.941,0 17.941,0 l 0,46.136 -17.941,0 0,-46.136 z" /></g><path
         id="path318"
         style="fill:#000000;fill-opacity:1;fill-rule:nonzero;stroke:none"
         d="m 288.953,187.499 0,1.515 2.047,0 0,-1.515 -2.047,0 z m -0.047,-12.469 c -0.281,0 -0.523,0.008 -0.718,0.016 -0.2,0.011 -0.376,0.027 -0.532,0.046 l 0,1.454 c 0.063,-0.008 0.125,-0.016 0.188,-0.016 0.062,-0.008 0.125,-0.016 0.187,-0.016 0.188,0 0.336,0.024 0.453,0.063 0.125,0.031 0.219,0.094 0.282,0.187 0.07,0.094 0.117,0.219 0.14,0.375 0.032,0.149 0.047,0.336 0.047,0.563 l 0,8.359 2.047,0 0,-8.859 c 0,-0.313 -0.043,-0.598 -0.125,-0.86 -0.074,-0.269 -0.195,-0.503 -0.359,-0.703 -0.168,-0.195 -0.387,-0.347 -0.657,-0.453 -0.261,-0.101 -0.578,-0.156 -0.953,-0.156 z" /><path
         id="path320"
         style="fill:#000000;fill-opacity:1;fill-rule:nonzero;stroke:none"
         d="m 302.312,181.077 c 0,-0.524 -0.109,-0.969 -0.328,-1.344 -0.211,-0.367 -0.496,-0.668 -0.859,-0.906 -0.355,-0.242 -0.777,-0.418 -1.266,-0.531 -0.48,-0.106 -0.992,-0.157 -1.531,-0.157 l -5.172,0 0,10.313 4.735,0 c 0.601,0 1.144,-0.055 1.625,-0.156 0.476,-0.106 0.879,-0.266 1.203,-0.485 0.32,-0.211 0.566,-0.476 0.734,-0.797 0.176,-0.324 0.266,-0.703 0.266,-1.14 0,-0.594 -0.168,-1.094 -0.5,-1.5 -0.324,-0.399 -0.813,-0.668 -1.469,-0.813 0.832,-0.094 1.469,-0.355 1.906,-0.781 0.438,-0.43 0.656,-0.996 0.656,-1.703 z m -2.765,4.5 c 0,0.457 -0.152,0.785 -0.453,0.984 -0.293,0.195 -0.731,0.297 -1.313,0.297 l -2.453,0 0,-2.562 2.469,0 c 0.613,0 1.055,0.101 1.328,0.312 0.281,0.219 0.422,0.539 0.422,0.969 z m 0.594,-4.328 c 0,0.269 -0.059,0.5 -0.172,0.687 -0.106,0.188 -0.25,0.336 -0.438,0.453 -0.187,0.114 -0.406,0.192 -0.656,0.235 -0.25,0.05 -0.523,0.078 -0.813,0.078 l -2.734,0 0,-2.953 2.813,0 c 0.281,0 0.539,0.019 0.781,0.062 0.25,0.051 0.461,0.133 0.64,0.25 0.176,0.113 0.317,0.266 0.422,0.453 0.102,0.196 0.157,0.442 0.157,0.735 z" /><g
         transform="matrix(1,0,0,-1,0,243.50256)"
         id="g322"><path
           id="path324"
           style="fill:none;stroke:#000000;stroke-width:2.5632;stroke-linecap:butt;stroke-linejoin:miter;stroke-miterlimit:10;stroke-dasharray:none;stroke-opacity:1"
           d="m 147.559,25.633 217.871,0" /></g><path
         id="path326"
         style="fill:#000000;fill-opacity:1;fill-rule:nonzero;stroke:none"
         d="m 18.117,219.151 2.562,0 0,-2.562 -2.562,0 0,2.562 z" /><g
         transform="matrix(0,1,1,0,0,243.50256)"
         id="g328"><path
           id="path330"
           style="fill:#ffffff;fill-opacity:1;fill-rule:nonzero;stroke:#000000;stroke-width:2.5632;stroke-linecap:butt;stroke-linejoin:miter;stroke-miterlimit:4;stroke-dasharray:none;stroke-opacity:1"
           d="m -20.332,6.582 c 0,2.926 -2.375,5.297 -5.301,5.297 -2.926,0 -5.297,-2.371 -5.297,-5.297 0,-2.93 2.371,-5.301 5.297,-5.301 2.926,0 5.301,2.371 5.301,5.301 z" /></g><g
         transform="matrix(0,1,1,0,0,243.50256)"
         id="g332"><path
           id="path334"
           style="fill:none;stroke:#000000;stroke-width:2.5632;stroke-linecap:square;stroke-linejoin:miter;stroke-miterlimit:10;stroke-dasharray:none;stroke-opacity:1"
           d="m -25.633,12.988 0,5.129" /></g><path
         id="path336"
         style="fill:#000000;fill-opacity:1;fill-rule:nonzero;stroke:none"
         d="m 18.117,142.256 2.562,0 0,-2.562 -2.562,0 0,2.562 z" /><g
         transform="matrix(0,1,1,0,0,243.50256)"
         id="g338"><path
           id="path340"
           style="fill:#ffffff;fill-opacity:1;fill-rule:nonzero;stroke:#000000;stroke-width:2.5632;stroke-linecap:butt;stroke-linejoin:miter;stroke-miterlimit:4;stroke-dasharray:none;stroke-opacity:1"
           d="m -97.23,6.582 c 0,2.926 -2.372,5.297 -5.297,5.297 -2.926,0 -5.301,-2.371 -5.301,-5.297 0,-2.93 2.375,-5.301 5.301,-5.301 2.925,0 5.297,2.371 5.297,5.301 z" /></g><g
         transform="matrix(0,1,1,0,0,243.50256)"
         id="g342"><path
           id="path344"
           style="fill:none;stroke:#000000;stroke-width:2.5632;stroke-linecap:square;stroke-linejoin:miter;stroke-miterlimit:10;stroke-dasharray:none;stroke-opacity:1"
           d="m -102.527,12.988 0,5.129" /></g><path
         id="path346"
         style="fill:#000000;fill-opacity:1;fill-rule:nonzero;stroke:none"
         d="m 492.309,219.151 2.562,0 0,-2.562 -2.562,0 0,2.562 z" /><g
         transform="matrix(0,-1,-1,0,0,243.50256)"
         id="g348"><path
           id="path350"
           style="fill:#ffffff;fill-opacity:1;fill-rule:nonzero;stroke:#000000;stroke-width:2.5632;stroke-linecap:butt;stroke-linejoin:miter;stroke-miterlimit:4;stroke-dasharray:none;stroke-opacity:1"
           d="m 30.93,-506.406 c 0,2.929 -2.371,5.301 -5.297,5.301 -2.926,0 -5.301,-2.372 -5.301,-5.301 0,-2.926 2.375,-5.297 5.301,-5.297 2.926,0 5.297,2.371 5.297,5.297 z" /></g><g
         transform="matrix(0,-1,-1,0,0,243.50256)"
         id="g352"><path
           id="path354"
           style="fill:none;stroke:#000000;stroke-width:2.5632;stroke-linecap:square;stroke-linejoin:miter;stroke-miterlimit:10;stroke-dasharray:none;stroke-opacity:1"
           d="m 25.633,-499.996 0,5.125" /></g><path
         id="path356"
         style="fill:#000000;fill-opacity:1;fill-rule:nonzero;stroke:none"
         d="m 492.309,142.256 2.562,0 0,-2.562 -2.562,0 0,2.562 z" /><g
         transform="matrix(0,-1,-1,0,0,243.50256)"
         id="g358"><path
           id="path360"
           style="fill:#ffffff;fill-opacity:1;fill-rule:nonzero;stroke:#000000;stroke-width:2.5632;stroke-linecap:butt;stroke-linejoin:miter;stroke-miterlimit:4;stroke-dasharray:none;stroke-opacity:1"
           d="m 107.828,-506.406 c 0,2.929 -2.375,5.301 -5.301,5.301 -2.925,0 -5.297,-2.372 -5.297,-5.301 0,-2.926 2.372,-5.297 5.297,-5.297 2.926,0 5.301,2.371 5.301,5.297 z" /></g><g
         transform="matrix(0,-1,-1,0,0,243.50256)"
         id="g362"><path
           id="path364"
           style="fill:none;stroke:#000000;stroke-width:2.5632;stroke-linecap:square;stroke-linejoin:miter;stroke-miterlimit:10;stroke-dasharray:none;stroke-opacity:1"
           d="m 102.527,-499.996 0,5.125" /></g><g
         transform="matrix(1,0,0,-1,0,243.50256)"
         id="g366"><path
           id="path368"
           style="fill:none;stroke:#000000;stroke-width:2.5632;stroke-linecap:butt;stroke-linejoin:miter;stroke-miterlimit:10;stroke-dasharray:none;stroke-opacity:1"
           d="m 19.398,25.633 89.711,0" /></g><g
         transform="matrix(1,0,0,-1,0,243.50256)"
         id="g370"><path
           id="path372"
           style="fill:none;stroke:#000000;stroke-width:2.5632;stroke-linecap:butt;stroke-linejoin:miter;stroke-miterlimit:10;stroke-dasharray:none;stroke-opacity:1"
           d="m 109.109,102.527 -89.711,0" /></g><g
         transform="matrix(1,0,0,-1,0,243.50256)"
         id="g374"><path
           id="path376"
           style="fill:none;stroke:#000000;stroke-width:2.5632;stroke-linecap:butt;stroke-linejoin:miter;stroke-miterlimit:10;stroke-dasharray:none;stroke-opacity:1"
           d="m 403.879,102.527 89.711,0" /></g><g
         transform="matrix(1,0,0,-1,0,243.50256)"
         id="g378"><path
           id="path380"
           style="fill:none;stroke:#000000;stroke-width:2.5632;stroke-linecap:butt;stroke-linejoin:miter;stroke-miterlimit:10;stroke-dasharray:none;stroke-opacity:1"
           d="m 403.879,25.633 89.711,0" /></g><g
         transform="matrix(1,0,0,-1,0,243.50256)"
         id="g382"><path
           id="path384"
           style="fill:#000000;fill-opacity:1;fill-rule:nonzero;stroke:#000000;stroke-width:2.5632;stroke-linecap:butt;stroke-linejoin:miter;stroke-miterlimit:4;stroke-dasharray:none;stroke-opacity:1"
           d="m 265.465,102.527 c 0,1.418 -1.149,2.563 -2.563,2.563 -1.418,0 -2.566,-1.145 -2.566,-2.563 0,-1.414 1.148,-2.562 2.566,-2.562 1.414,0 2.563,1.148 2.563,2.562 z" /></g><g
         transform="matrix(1,0,0,-1,0,243.50256)"
         id="g386"><path
           id="path388"
           style="fill:#000000;fill-opacity:1;fill-rule:nonzero;stroke:#000000;stroke-width:2.5632;stroke-linecap:butt;stroke-linejoin:miter;stroke-miterlimit:4;stroke-dasharray:none;stroke-opacity:1"
           d="m 265.465,25.633 c 0,1.414 -1.149,2.562 -2.563,2.562 -1.418,0 -2.566,-1.148 -2.566,-2.562 0,-1.418 1.148,-2.563 2.566,-2.563 1.414,0 2.563,1.145 2.563,2.563 z" /></g><g
         transform="matrix(1,0,0,-1,0,243.50256)"
         id="g390"><path
           id="path392"
           style="fill:none;stroke:#000000;stroke-width:2.5632;stroke-linecap:butt;stroke-linejoin:miter;stroke-miterlimit:10;stroke-dasharray:none;stroke-opacity:1"
           d="m 174.762,215.852 88.14,-113.325" /></g><g
         transform="matrix(1,0,0,-1,0,243.50256)"
         id="g394"><path
           id="path396"
           style="fill:none;stroke:#000000;stroke-width:2.5632;stroke-linecap:butt;stroke-linejoin:miter;stroke-miterlimit:4;stroke-dasharray:none;stroke-opacity:1"
           d="m 175.754,217.871 c 0,1.418 -1.149,2.563 -2.566,2.563 -1.415,0 -2.563,-1.145 -2.563,-2.563 0,-1.414 1.148,-2.562 2.563,-2.562 1.417,0 2.566,1.148 2.566,2.562 z" /></g><g
         transform="matrix(1,0,0,-1,0,243.50256)"
         id="g398"><path
           id="path400"
           style="fill:none;stroke:#000000;stroke-width:2.5632;stroke-linecap:butt;stroke-linejoin:miter;stroke-miterlimit:10;stroke-dasharray:none;stroke-opacity:1"
           d="m 174.762,138.953 88.14,-113.32" /></g><g
         transform="matrix(1,0,0,-1,0,243.50256)"
         id="g402"><path
           id="path404"
           style="fill:none;stroke:#000000;stroke-width:2.5632;stroke-linecap:butt;stroke-linejoin:miter;stroke-miterlimit:4;stroke-dasharray:none;stroke-opacity:1"
           d="m 175.754,140.977 c 0,1.414 -1.149,2.562 -2.566,2.562 -1.415,0 -2.563,-1.148 -2.563,-2.562 0,-1.418 1.148,-2.563 2.563,-2.563 1.417,0 2.566,1.145 2.566,2.563 z" /></g><g
         transform="matrix(1,0,0,-1,0,243.50256)"
         id="g406"><path
           id="path408"
           style="fill:none;stroke:#000000;stroke-width:2.5632;stroke-linecap:butt;stroke-linejoin:miter;stroke-miterlimit:10;stroke-dasharray:none;stroke-opacity:1"
           d="m 15.211,115.344 85.269,0" /></g><g
         transform="matrix(1,0,0,-1,0,243.50256)"
         id="g410"><path
           id="path412"
           style="fill:#000000;fill-opacity:1;fill-rule:nonzero;stroke:#000000;stroke-width:2.5632;stroke-linecap:butt;stroke-linejoin:miter;stroke-miterlimit:10;stroke-dasharray:none;stroke-opacity:1"
           d="m 9.441,115.344 7.692,-3.844 -1.922,3.844 1.922,3.844 -7.692,-3.844 z" /></g><g
         transform="matrix(1,0,0,-1,0,243.50256)"
         id="g414"><path
           id="path416"
           style="fill:#000000;fill-opacity:1;fill-rule:nonzero;stroke:#000000;stroke-width:2.5632;stroke-linecap:butt;stroke-linejoin:miter;stroke-miterlimit:10;stroke-dasharray:none;stroke-opacity:1"
           d="m 106.246,115.344 -7.687,3.844 1.921,-3.844 -1.921,-3.844 7.687,3.844 z" /></g><path
         id="path418"
         style="fill:#ffffff;fill-opacity:1;fill-rule:nonzero;stroke:none"
         d="m 50.012,123.885 18.512,0 0,-18.512 -18.512,0 0,18.512 z" /><path
         id="path420"
         style="fill:#000000;fill-opacity:1;fill-rule:nonzero;stroke:none"
         d="m 51.152,112.78 0,9.625 1.297,0 0,-8.563 4.875,0 0,-1.062 -6.172,0 z" /><path
         id="path422"
         style="fill:#000000;fill-opacity:1;fill-rule:nonzero;stroke:none"
         d="m 58.906,112.78 0,1.047 2.453,0 0,7.406 -2.171,-1.547 0,1.156 2.281,1.563 1.14,0 0,-8.578 2.344,0 0,-1.047 -6.047,0 z" /><g
         transform="matrix(1,0,0,-1,0,243.50256)"
         id="g424"><path
           id="path426"
           style="fill:none;stroke:#000000;stroke-width:2.5632;stroke-linecap:butt;stroke-linejoin:miter;stroke-miterlimit:10;stroke-dasharray:none;stroke-opacity:1"
           d="m 412.508,115.344 85.269,0" /></g><g
         transform="matrix(1,0,0,-1,0,243.50256)"
         id="g428"><path
           id="path430"
           style="fill:#000000;fill-opacity:1;fill-rule:nonzero;stroke:#000000;stroke-width:2.5632;stroke-linecap:butt;stroke-linejoin:miter;stroke-miterlimit:10;stroke-dasharray:none;stroke-opacity:1"
           d="m 406.738,115.344 7.692,-3.844 -1.922,3.844 1.922,3.844 -7.692,-3.844 z" /></g><g
         transform="matrix(1,0,0,-1,0,243.50256)"
         id="g432"><path
           id="path434"
           style="fill:#000000;fill-opacity:1;fill-rule:nonzero;stroke:#000000;stroke-width:2.5632;stroke-linecap:butt;stroke-linejoin:miter;stroke-miterlimit:10;stroke-dasharray:none;stroke-opacity:1"
           d="m 503.543,115.344 -7.691,3.844 1.925,-3.844 -1.925,-3.844 7.691,3.844 z" /></g><path
         id="path436"
         style="fill:#ffffff;fill-opacity:1;fill-rule:nonzero;stroke:none"
         d="m 447.309,123.885 18.512,0 0,-18.512 -18.512,0 0,18.512 z" /><path
         id="path438"
         style="fill:#000000;fill-opacity:1;fill-rule:nonzero;stroke:none"
         d="m 448.449,112.78 0,9.625 1.297,0 0,-8.563 4.875,0 0,-1.062 -6.172,0 z" /><path
         id="path440"
         style="fill:#000000;fill-opacity:1;fill-rule:nonzero;stroke:none"
         d="m 462.312,115.436 c 0,-0.437 -0.074,-0.836 -0.218,-1.187 -0.149,-0.344 -0.36,-0.637 -0.641,-0.875 -0.273,-0.243 -0.609,-0.422 -1.015,-0.547 -0.407,-0.125 -0.872,-0.188 -1.391,-0.188 -0.594,0 -1.102,0.075 -1.516,0.219 -0.406,0.156 -0.746,0.352 -1.015,0.594 -0.262,0.25 -0.461,0.523 -0.594,0.828 -0.125,0.312 -0.211,0.633 -0.25,0.969 l 1.281,0.125 c 0.031,-0.262 0.094,-0.496 0.188,-0.703 0.101,-0.211 0.238,-0.391 0.406,-0.547 0.164,-0.149 0.367,-0.262 0.609,-0.344 0.25,-0.086 0.547,-0.125 0.891,-0.125 0.613,0 1.098,0.148 1.453,0.453 0.352,0.313 0.531,0.77 0.531,1.375 0,0.352 -0.078,0.641 -0.234,0.859 -0.156,0.219 -0.356,0.383 -0.594,0.5 -0.23,0.125 -0.484,0.207 -0.765,0.25 -0.274,0.039 -0.524,0.063 -0.75,0.063 l -0.704,0 0,1.062 0.672,0 c 0.227,0 0.469,0.02 0.719,0.063 0.25,0.051 0.477,0.141 0.687,0.266 0.208,0.125 0.379,0.289 0.516,0.5 0.133,0.218 0.203,0.492 0.203,0.828 0,0.519 -0.152,0.925 -0.453,1.218 -0.305,0.301 -0.758,0.454 -1.359,0.454 -0.543,0 -0.981,-0.141 -1.313,-0.422 -0.336,-0.274 -0.527,-0.664 -0.578,-1.172 l -1.234,0.094 c 0.039,0.425 0.148,0.796 0.328,1.109 0.187,0.312 0.422,0.57 0.703,0.781 0.281,0.207 0.598,0.363 0.953,0.469 0.363,0.101 0.75,0.156 1.156,0.156 0.539,0 1.004,-0.07 1.391,-0.203 0.383,-0.137 0.703,-0.32 0.953,-0.547 0.25,-0.23 0.43,-0.5 0.547,-0.812 0.113,-0.313 0.172,-0.649 0.172,-1 0,-0.282 -0.043,-0.547 -0.125,-0.797 -0.074,-0.242 -0.195,-0.461 -0.36,-0.656 -0.156,-0.2 -0.367,-0.372 -0.624,-0.516 -0.25,-0.137 -0.555,-0.242 -0.907,-0.313 l 0,-0.015 c 0.383,-0.043 0.719,-0.133 1,-0.266 0.289,-0.137 0.531,-0.308 0.719,-0.515 0.188,-0.2 0.328,-0.43 0.422,-0.688 0.094,-0.25 0.14,-0.516 0.14,-0.797 z" /><g
         transform="matrix(1,0,0,-1,0,243.50256)"
         id="g442"><path
           id="path444"
           style="fill:none;stroke:#000000;stroke-width:2.5632;stroke-linecap:butt;stroke-linejoin:miter;stroke-miterlimit:10;stroke-dasharray:none;stroke-opacity:1"
           d="M 178.484,236.691 257.605,134.973" /></g><g
         transform="matrix(1,0,0,-1,0,243.50256)"
         id="g446"><path
           id="path448"
           style="fill:#000000;fill-opacity:1;fill-rule:nonzero;stroke:#000000;stroke-width:2.5632;stroke-linecap:butt;stroke-linejoin:miter;stroke-miterlimit:10;stroke-dasharray:none;stroke-opacity:1"
           d="m 174.949,241.238 1.688,-8.429 1.847,3.882 4.219,0.84 -7.754,3.707 z" /></g><g
         transform="matrix(1,0,0,-1,0,243.50256)"
         id="g450"><path
           id="path452"
           style="fill:#000000;fill-opacity:1;fill-rule:nonzero;stroke:#000000;stroke-width:2.5632;stroke-linecap:butt;stroke-linejoin:miter;stroke-miterlimit:10;stroke-dasharray:none;stroke-opacity:1"
           d="m 261.141,130.426 -1.688,8.429 -1.848,-3.882 -4.214,-0.84 7.75,-3.707 z" /></g><path
         id="path454"
         style="fill:#ffffff;fill-opacity:1;fill-rule:nonzero;stroke:none"
         d="m 220.895,53.397 18.512,0 0,-18.512 -18.512,0 0,18.512 z" /><path
         id="path456"
         style="fill:#000000;fill-opacity:1;fill-rule:nonzero;stroke:none"
         d="m 221.766,42.292 0,9.625 1.296,0 0,-8.563 4.876,0 0,-1.062 -6.172,0 z" /><path
         id="path458"
         style="fill:#000000;fill-opacity:1;fill-rule:nonzero;stroke:none"
         d="m 229.16,42.292 0,0.875 c 0.227,0.531 0.508,1 0.844,1.406 0.344,0.406 0.695,0.773 1.062,1.109 0.375,0.332 0.739,0.641 1.094,0.922 0.363,0.281 0.692,0.563 0.985,0.844 0.289,0.281 0.523,0.578 0.703,0.891 0.187,0.312 0.281,0.66 0.281,1.046 0,0.27 -0.043,0.508 -0.125,0.719 -0.086,0.207 -0.203,0.379 -0.359,0.516 -0.157,0.144 -0.344,0.254 -0.563,0.328 -0.211,0.07 -0.449,0.109 -0.719,0.109 -0.242,0 -0.468,-0.039 -0.687,-0.109 -0.219,-0.063 -0.414,-0.164 -0.578,-0.297 -0.168,-0.137 -0.309,-0.309 -0.422,-0.516 -0.106,-0.199 -0.172,-0.433 -0.203,-0.703 l -1.25,0.11 c 0.039,0.343 0.132,0.664 0.281,0.968 0.144,0.313 0.348,0.582 0.609,0.813 0.27,0.226 0.586,0.41 0.953,0.547 0.375,0.133 0.805,0.203 1.297,0.203 0.477,0 0.907,-0.059 1.282,-0.172 0.375,-0.117 0.687,-0.289 0.937,-0.516 0.258,-0.218 0.457,-0.496 0.594,-0.828 0.144,-0.324 0.219,-0.699 0.219,-1.125 0,-0.324 -0.063,-0.633 -0.188,-0.922 -0.117,-0.293 -0.273,-0.574 -0.469,-0.843 -0.187,-0.262 -0.414,-0.516 -0.672,-0.766 -0.25,-0.242 -0.515,-0.48 -0.796,-0.719 -0.274,-0.23 -0.547,-0.465 -0.829,-0.703 -0.281,-0.23 -0.546,-0.461 -0.796,-0.687 -0.25,-0.231 -0.477,-0.465 -0.672,-0.703 -0.2,-0.243 -0.352,-0.493 -0.453,-0.75 l 5.015,0 0,-1.047 -6.375,0 z" /></g></g></svg>