<?xml version="1.0" encoding="UTF-8" standalone="no"?>
<svg
   xmlns:dc="http://purl.org/dc/elements/1.1/"
   xmlns:cc="http://creativecommons.org/ns#"
   xmlns:rdf="http://www.w3.org/1999/02/22-rdf-syntax-ns#"
   xmlns:svg="http://www.w3.org/2000/svg"
   xmlns="http://www.w3.org/2000/svg"
   viewBox="0 0 576 389"
   height="389"
   width="576"
   xml:space="preserve"
   version="1.1"
   id="svg2"><metadata
     id="metadata8"><rdf:RDF><cc:Work
         rdf:about=""><dc:format>image/svg+xml</dc:format><dc:type
           rdf:resource="http://purl.org/dc/dcmitype/StillImage" /></cc:Work></rdf:RDF></metadata><defs
     id="defs6" /><g
     transform="matrix(1.25,0,0,-1.25,0,389.00001)"
     id="g10"><g
       id="g12"><path
         id="path14"
         style="fill:#000000;fill-opacity:1;fill-rule:nonzero;stroke:none"
         d="m 75.879,259.391 2.328,0 0,-2.328 -2.328,0 0,2.328 z" /><g
         transform="matrix(1,0,0,-1,0,311.20001)"
         id="g16"><path
           id="path18"
           style="fill:none;stroke:#000000;stroke-width:2.3296001;stroke-linecap:square;stroke-linejoin:miter;stroke-miterlimit:10;stroke-dasharray:none;stroke-opacity:1"
           d="m 78.207,52.973 20.969,0" /></g><path
         id="path20"
         style="fill:#000000;fill-opacity:1;fill-rule:nonzero;stroke:none"
         d="m 15.281,289.095 -1.281,3.687 -5.516,0 -1.281,-3.687 -3.031,0 5.281,14.453 3.563,0 5.25,-14.453 -2.985,0 z m -3.39,10.125 c -0.086,0.238 -0.168,0.476 -0.25,0.718 -0.075,0.239 -0.141,0.457 -0.203,0.657 -0.055,0.207 -0.102,0.375 -0.141,0.5 -0.031,0.132 -0.055,0.207 -0.063,0.218 -0.011,-0.023 -0.031,-0.101 -0.062,-0.234 -0.031,-0.125 -0.078,-0.289 -0.141,-0.484 -0.054,-0.2 -0.121,-0.418 -0.203,-0.657 -0.074,-0.242 -0.152,-0.48 -0.234,-0.718 l -1.438,-4.157 4.156,0 -1.421,4.157 z" /><g
         transform="matrix(1,0,0,-1,0,311.20001)"
         id="g22"><path
           id="path24"
           style="fill:#cccccc;fill-opacity:1;fill-rule:nonzero;stroke:#cccccc;stroke-width:1.16480005;stroke-linecap:butt;stroke-linejoin:miter;stroke-miterlimit:4;stroke-dasharray:none;stroke-opacity:1"
           d="m 77.043,99.566 69.887,0 0,151.422 -69.887,0 0,-151.422 z" /></g><g
         transform="matrix(1,0,0,-1,0,311.20001)"
         id="g26"><path
           id="path28"
           style="fill:#cccccc;fill-opacity:1;fill-rule:nonzero;stroke:#cccccc;stroke-width:1.16480005;stroke-linecap:butt;stroke-linejoin:miter;stroke-miterlimit:4;stroke-dasharray:none;stroke-opacity:1"
           d="m 30.449,41.324 372.738,0 0,23.297 -372.738,0 0,-23.297 z" /></g><path
         id="path30"
         style="fill:#000000;fill-opacity:1;fill-rule:nonzero;stroke:none"
         d="m 355.43,166.208 2.328,0 0,-2.328 -2.328,0 0,2.328 z" /><g
         transform="matrix(1,0,0,-1,0,311.20001)"
         id="g32"><path
           id="path34"
           style="fill:none;stroke:#000000;stroke-width:2.3296001;stroke-linecap:square;stroke-linejoin:miter;stroke-miterlimit:10;stroke-dasharray:none;stroke-opacity:1"
           d="m 357.758,146.156 20.969,0" /></g><path
         id="path36"
         style="fill:#000000;fill-opacity:1;fill-rule:nonzero;stroke:none"
         d="m 441.883,250.77 0,-10.015 -3.141,0 0,10.015 -1.781,0 0,2.141 1.781,0 0,1.266 c 0,0.457 0.051,0.882 0.156,1.281 0.114,0.394 0.305,0.738 0.579,1.031 0.269,0.289 0.632,0.52 1.093,0.688 0.457,0.164 1.024,0.25 1.703,0.25 0.364,0 0.719,-0.024 1.063,-0.063 0.344,-0.043 0.656,-0.086 0.937,-0.125 l 0,-2.031 c -0.136,0.031 -0.289,0.055 -0.453,0.078 -0.168,0.019 -0.324,0.031 -0.468,0.031 -0.293,0 -0.54,-0.031 -0.735,-0.094 -0.187,-0.062 -0.336,-0.156 -0.437,-0.281 -0.106,-0.117 -0.184,-0.265 -0.235,-0.453 -0.043,-0.18 -0.062,-0.387 -0.062,-0.625 l 0,-0.953 2.39,0 0,-2.141 -2.39,0 z" /><g
         transform="matrix(0,-1,-1,0,0,311.20001)"
         id="g38"><path
           id="path40"
           style="fill:#cccccc;fill-opacity:1;fill-rule:nonzero;stroke:#cccccc;stroke-width:1.16480005;stroke-linecap:butt;stroke-linejoin:miter;stroke-miterlimit:10;stroke-dasharray:none;stroke-opacity:1"
           d="m 64.621,-240.113 104.832,46.59 -104.832,46.593 0,-93.183 z" /></g><g
         transform="matrix(1,0,0,-1,0,311.20001)"
         id="g42"><path
           id="path44"
           style="fill:#cccccc;fill-opacity:1;fill-rule:nonzero;stroke:#cccccc;stroke-width:1.16480005;stroke-linecap:butt;stroke-linejoin:miter;stroke-miterlimit:4;stroke-dasharray:none;stroke-opacity:1"
           d="m 193.523,64.621 34.945,0 0,104.832 -34.945,0 0,-104.832 z" /></g><g
         transform="matrix(1,0,0,-1,0,311.20001)"
         id="g46"><path
           id="path48"
           style="fill:#cccccc;fill-opacity:1;fill-rule:nonzero;stroke:#cccccc;stroke-width:1.16480005;stroke-linecap:butt;stroke-linejoin:miter;stroke-miterlimit:4;stroke-dasharray:none;stroke-opacity:1"
           d="m 275.059,146.156 128.129,0 0,46.594 -128.129,0 0,-46.594 z" /></g><g
         transform="matrix(1,0,0,-1,0,311.20001)"
         id="g50"><path
           id="path52"
           style="fill:#cccccc;fill-opacity:1;fill-rule:nonzero;stroke:#cccccc;stroke-width:1.16480005;stroke-linecap:butt;stroke-linejoin:miter;stroke-miterlimit:4;stroke-dasharray:none;stroke-opacity:1"
           d="m 193.523,64.621 209.664,0 0,81.535 -209.664,0 0,-81.535 z" /></g><g
         transform="matrix(1,0,0,-1,0,311.20001)"
         id="g54"><path
           id="path56"
           style="fill:none;stroke:#7fff00;stroke-width:2.3296001;stroke-linecap:butt;stroke-linejoin:miter;stroke-miterlimit:10;stroke-dasharray:none;stroke-opacity:1"
           d="m 30.449,250.988 c 23.297,0 34.946,-54.355 34.946,-163.07" /></g><g
         transform="matrix(1,0,0,-1,0,311.20001)"
         id="g58"><path
           id="path60"
           style="fill:none;stroke:#7fff00;stroke-width:2.3296001;stroke-linecap:butt;stroke-linejoin:miter;stroke-miterlimit:10;stroke-dasharray:none;stroke-opacity:1"
           d="m 403.188,227.695 -75.711,0 c -42.711,0 -64.067,-11.648 -64.067,-34.945 0,-23.297 -3.883,-34.945 -11.648,-34.945 -7.766,0 -11.649,13.59 -11.649,40.769 0,27.18 -13.586,40.766 -40.765,40.766 -27.18,0 -40.77,-27.176 -40.77,-81.535 0,-54.356 -5.824,-81.535 -17.473,-81.535 -11.648,0 -17.468,1.941 -17.468,5.824 0,3.883 -3.883,5.824 -11.649,5.824 -7.765,0 -11.648,-3.883 -11.648,-11.648 0,-7.766 -5.824,-11.649 -17.473,-11.649 -11.648,0 -17.472,7.766 -17.472,23.297" /></g><g
         transform="matrix(1,0,0,-1,0,311.20001)"
         id="g62"><path
           id="path64"
           style="fill:none;stroke:#000000;stroke-width:2.3296001;stroke-linecap:butt;stroke-linejoin:miter;stroke-miterlimit:10;stroke-dasharray:none;stroke-opacity:1"
           d="m 30.449,262.637 0,-235.012" /></g><g
         transform="matrix(1,0,0,-1,0,311.20001)"
         id="g66"><path
           id="path68"
           style="fill:#000000;fill-opacity:1;fill-rule:nonzero;stroke:#000000;stroke-width:2.3296001;stroke-linecap:butt;stroke-linejoin:miter;stroke-miterlimit:10;stroke-dasharray:none;stroke-opacity:1"
           d="m 30.449,20.637 3.496,6.988 -6.988,0 3.492,-6.988 z" /></g><g
         transform="matrix(1,0,0,-1,0,311.20001)"
         id="g70"><path
           id="path72"
           style="fill:none;stroke:#000000;stroke-width:2.3296001;stroke-linecap:butt;stroke-linejoin:miter;stroke-miterlimit:10;stroke-dasharray:none;stroke-opacity:1"
           d="m 18.805,64.621 398.082,0" /></g><g
         transform="matrix(1,0,0,-1,0,311.20001)"
         id="g74"><path
           id="path76"
           style="fill:#000000;fill-opacity:1;fill-rule:nonzero;stroke:#000000;stroke-width:2.3296001;stroke-linecap:butt;stroke-linejoin:miter;stroke-miterlimit:10;stroke-dasharray:none;stroke-opacity:1"
           d="m 423.875,64.621 -6.988,3.496 0,-6.988 6.988,3.492 z" /></g></g></g></svg>