<?xml version="1.0" encoding="UTF-8" standalone="no"?>
<svg
   xmlns:dc="http://purl.org/dc/elements/1.1/"
   xmlns:cc="http://creativecommons.org/ns#"
   xmlns:rdf="http://www.w3.org/1999/02/22-rdf-syntax-ns#"
   xmlns:svg="http://www.w3.org/2000/svg"
   xmlns="http://www.w3.org/2000/svg"
   viewBox="0 0 885.82678 177.16536"
   height="177.16536"
   width="885.82678"
   xml:space="preserve"
   version="1.1"
   id="svg2"><metadata
     id="metadata8"><rdf:RDF><cc:Work
         rdf:about=""><dc:format>image/svg+xml</dc:format><dc:type
           rdf:resource="http://purl.org/dc/dcmitype/StillImage" /></cc:Work></rdf:RDF></metadata><defs
     id="defs6" /><g
     transform="matrix(1.25,0,0,-1.25,0,177.16536)"
     id="g10"><g
       id="g12"><g
         transform="matrix(1,0,0,-1,0,141.73228)"
         id="g14"><path
           id="path16"
           style="fill:none;stroke:#000000;stroke-width:1.45815098;stroke-linecap:butt;stroke-linejoin:miter;stroke-miterlimit:4;stroke-dasharray:none;stroke-opacity:1"
           d="m 8.02,73.711 69.261,0" /></g><path
         id="path18"
         style="fill:#ffffff;fill-opacity:1;fill-rule:nonzero;stroke:none"
         d="m 2.188,68.021 c 0,1.461 1.457,2.918 2.917,2.918 1.457,0 2.915,-1.457 2.915,-2.918 0,-1.457 -1.458,-2.914 -2.915,-2.914 -1.46,0 -2.917,1.457 -2.917,2.914 z" /><g
         transform="matrix(1,0,0,-1,0,141.73228)"
         id="g20"><path
           id="path22"
           style="fill:none;stroke:#000000;stroke-width:1.45815098;stroke-linecap:butt;stroke-linejoin:miter;stroke-miterlimit:4;stroke-dasharray:none;stroke-opacity:1"
           d="m 2.188,73.711 c 0,-1.461 1.457,-2.918 2.917,-2.918 1.458,0 2.915,1.457 2.915,2.918 0,1.457 -1.457,2.914 -2.915,2.914 -1.46,0 -2.917,-1.457 -2.917,-2.914" /></g><g
         transform="matrix(1,0,0,-1,0,141.73228)"
         id="g24"><path
           id="path26"
           style="fill:#ffffff;fill-opacity:1;fill-rule:nonzero;stroke:#000000;stroke-width:1.45815098;stroke-linecap:butt;stroke-linejoin:miter;stroke-miterlimit:4;stroke-dasharray:none;stroke-opacity:1"
           d="m 88.945,27.047 58.328,0 0,58.328 -58.328,0 0,-58.328 z" /></g><g
         transform="matrix(1,0,0,-1,0,141.73228)"
         id="g28"><path
           id="path30"
           style="fill:none;stroke:#000000;stroke-width:1.45815098;stroke-linecap:butt;stroke-linejoin:miter;stroke-miterlimit:4;stroke-dasharray:none;stroke-opacity:1"
           d="m 147.273,38.715 11.665,0" /></g><g
         transform="matrix(1,0,0,-1,0,141.73228)"
         id="g32"><path
           id="path34"
           style="fill:none;stroke:#000000;stroke-width:1.45815098;stroke-linecap:butt;stroke-linejoin:miter;stroke-miterlimit:4;stroke-dasharray:none;stroke-opacity:1"
           d="m 147.273,73.711 11.665,0" /></g><g
         transform="matrix(1,0,0,-1,0,141.73228)"
         id="g36"><path
           id="path38"
           style="fill:none;stroke:#000000;stroke-width:1.45815098;stroke-linecap:butt;stroke-linejoin:miter;stroke-miterlimit:4;stroke-dasharray:none;stroke-opacity:1"
           d="m 88.945,38.715 -11.664,0" /></g><g
         transform="matrix(1,0,0,-1,0,141.73228)"
         id="g40"><path
           id="path42"
           style="fill:none;stroke:#000000;stroke-width:1.45815098;stroke-linecap:butt;stroke-linejoin:miter;stroke-miterlimit:4;stroke-dasharray:none;stroke-opacity:1"
           d="m 88.945,73.711 -11.664,0" /></g><g
         transform="matrix(1,0,0,-1,0,141.73228)"
         id="g44"><path
           id="path46"
           style="fill:none;stroke:#000000;stroke-width:1.45815098;stroke-linecap:butt;stroke-linejoin:miter;stroke-miterlimit:4;stroke-dasharray:none;stroke-opacity:1"
           d="m 8.02,38.715 69.261,0" /></g><path
         id="path48"
         style="fill:#ffffff;fill-opacity:1;fill-rule:nonzero;stroke:none"
         d="m 2.188,103.017 c 0,1.461 1.457,2.918 2.917,2.918 1.457,0 2.915,-1.457 2.915,-2.918 0,-1.457 -1.458,-2.914 -2.915,-2.914 -1.46,0 -2.917,1.457 -2.917,2.914 z" /><g
         transform="matrix(1,0,0,-1,0,141.73228)"
         id="g50"><path
           id="path52"
           style="fill:none;stroke:#000000;stroke-width:1.45815098;stroke-linecap:butt;stroke-linejoin:miter;stroke-miterlimit:4;stroke-dasharray:none;stroke-opacity:1"
           d="m 2.188,38.715 c 0,-1.461 1.457,-2.918 2.917,-2.918 1.458,0 2.915,1.457 2.915,2.918 0,1.457 -1.457,2.914 -2.915,2.914 -1.46,0 -2.917,-1.457 -2.917,-2.914" /></g><g
         transform="matrix(1,0,0,-1,0,141.73228)"
         id="g54"><path
           id="path56"
           style="fill:none;stroke:#000000;stroke-width:1.45815098;stroke-linecap:butt;stroke-linejoin:miter;stroke-miterlimit:4;stroke-dasharray:none;stroke-opacity:1"
           d="m 158.938,73.711 75.824,0" /></g><g
         transform="matrix(1,0,0,-1,0,141.73228)"
         id="g58"><path
           id="path60"
           style="fill:none;stroke:#000000;stroke-width:1.45815098;stroke-linecap:butt;stroke-linejoin:miter;stroke-miterlimit:4;stroke-dasharray:none;stroke-opacity:1"
           d="m 158.938,38.715 75.824,0" /></g><g
         transform="matrix(1,0,0,-1,0,141.73228)"
         id="g62"><path
           id="path64"
           style="fill:#ffffff;fill-opacity:1;fill-rule:nonzero;stroke:#000000;stroke-width:1.45815098;stroke-linecap:butt;stroke-linejoin:miter;stroke-miterlimit:4;stroke-dasharray:none;stroke-opacity:1"
           d="m 246.426,27.047 58.328,0 0,58.328 -58.328,0 0,-58.328 z" /></g><g
         transform="matrix(1,0,0,-1,0,141.73228)"
         id="g66"><path
           id="path68"
           style="fill:none;stroke:#000000;stroke-width:1.45815098;stroke-linecap:butt;stroke-linejoin:miter;stroke-miterlimit:4;stroke-dasharray:none;stroke-opacity:1"
           d="m 304.754,38.715 11.664,0" /></g><g
         transform="matrix(1,0,0,-1,0,141.73228)"
         id="g70"><path
           id="path72"
           style="fill:none;stroke:#000000;stroke-width:1.45815098;stroke-linecap:butt;stroke-linejoin:miter;stroke-miterlimit:4;stroke-dasharray:none;stroke-opacity:1"
           d="m 304.754,73.711 11.664,0" /></g><g
         transform="matrix(1,0,0,-1,0,141.73228)"
         id="g74"><path
           id="path76"
           style="fill:none;stroke:#000000;stroke-width:1.45815098;stroke-linecap:butt;stroke-linejoin:miter;stroke-miterlimit:4;stroke-dasharray:none;stroke-opacity:1"
           d="m 246.426,38.715 -11.664,0" /></g><g
         transform="matrix(1,0,0,-1,0,141.73228)"
         id="g78"><path
           id="path80"
           style="fill:none;stroke:#000000;stroke-width:1.45815098;stroke-linecap:butt;stroke-linejoin:miter;stroke-miterlimit:4;stroke-dasharray:none;stroke-opacity:1"
           d="m 246.426,73.711 -11.664,0" /></g><g
         transform="matrix(1,0,0,-1,0,141.73228)"
         id="g82"><path
           id="path84"
           style="fill:none;stroke:#000000;stroke-width:1.45815098;stroke-linecap:butt;stroke-linejoin:miter;stroke-miterlimit:4;stroke-dasharray:none;stroke-opacity:1"
           d="m 316.418,38.715 75.824,0" /></g><g
         transform="matrix(1,0,0,-1,0,141.73228)"
         id="g86"><path
           id="path88"
           style="fill:none;stroke:#000000;stroke-width:1.45815098;stroke-linecap:butt;stroke-linejoin:miter;stroke-miterlimit:4;stroke-dasharray:none;stroke-opacity:1"
           d="m 316.418,73.711 75.824,0" /></g><g
         transform="matrix(1,0,0,-1,0,141.73228)"
         id="g90"><path
           id="path92"
           style="fill:#ffffff;fill-opacity:1;fill-rule:nonzero;stroke:#000000;stroke-width:1.45815098;stroke-linecap:butt;stroke-linejoin:miter;stroke-miterlimit:4;stroke-dasharray:none;stroke-opacity:1"
           d="m 403.906,27.047 58.328,0 0,58.328 -58.328,0 0,-58.328 z" /></g><g
         transform="matrix(1,0,0,-1,0,141.73228)"
         id="g94"><path
           id="path96"
           style="fill:none;stroke:#000000;stroke-width:1.45815098;stroke-linecap:butt;stroke-linejoin:miter;stroke-miterlimit:4;stroke-dasharray:none;stroke-opacity:1"
           d="m 462.234,38.715 11.664,0" /></g><g
         transform="matrix(1,0,0,-1,0,141.73228)"
         id="g98"><path
           id="path100"
           style="fill:none;stroke:#000000;stroke-width:1.45815098;stroke-linecap:butt;stroke-linejoin:miter;stroke-miterlimit:4;stroke-dasharray:none;stroke-opacity:1"
           d="m 462.234,73.711 11.664,0" /></g><g
         transform="matrix(1,0,0,-1,0,141.73228)"
         id="g102"><path
           id="path104"
           style="fill:none;stroke:#000000;stroke-width:1.45815098;stroke-linecap:butt;stroke-linejoin:miter;stroke-miterlimit:4;stroke-dasharray:none;stroke-opacity:1"
           d="m 403.906,38.715 -11.664,0" /></g><g
         transform="matrix(1,0,0,-1,0,141.73228)"
         id="g106"><path
           id="path108"
           style="fill:none;stroke:#000000;stroke-width:1.45815098;stroke-linecap:butt;stroke-linejoin:miter;stroke-miterlimit:4;stroke-dasharray:none;stroke-opacity:1"
           d="m 403.906,73.711 -11.664,0" /></g><g
         transform="matrix(1,0,0,-1,0,141.73228)"
         id="g110"><path
           id="path112"
           style="fill:none;stroke:#000000;stroke-width:1.45815098;stroke-linecap:butt;stroke-linejoin:miter;stroke-miterlimit:4;stroke-dasharray:none;stroke-opacity:1"
           d="m 473.898,38.715 75.825,0" /></g><g
         transform="matrix(1,0,0,-1,0,141.73228)"
         id="g114"><path
           id="path116"
           style="fill:none;stroke:#000000;stroke-width:1.45815098;stroke-linecap:butt;stroke-linejoin:miter;stroke-miterlimit:4;stroke-dasharray:none;stroke-opacity:1"
           d="m 473.898,73.711 75.825,0" /></g><g
         transform="matrix(1,0,0,-1,0,141.73228)"
         id="g118"><path
           id="path120"
           style="fill:#ffffff;fill-opacity:1;fill-rule:nonzero;stroke:#000000;stroke-width:1.45815098;stroke-linecap:butt;stroke-linejoin:miter;stroke-miterlimit:4;stroke-dasharray:none;stroke-opacity:1"
           d="m 561.387,27.047 58.328,0 0,58.328 -58.328,0 0,-58.328 z" /></g><g
         transform="matrix(1,0,0,-1,0,141.73228)"
         id="g122"><path
           id="path124"
           style="fill:none;stroke:#000000;stroke-width:1.45815098;stroke-linecap:butt;stroke-linejoin:miter;stroke-miterlimit:4;stroke-dasharray:none;stroke-opacity:1"
           d="m 619.715,38.715 11.664,0" /></g><g
         transform="matrix(1,0,0,-1,0,141.73228)"
         id="g126"><path
           id="path128"
           style="fill:none;stroke:#000000;stroke-width:1.45815098;stroke-linecap:butt;stroke-linejoin:miter;stroke-miterlimit:4;stroke-dasharray:none;stroke-opacity:1"
           d="m 619.715,73.711 11.664,0" /></g><g
         transform="matrix(1,0,0,-1,0,141.73228)"
         id="g130"><path
           id="path132"
           style="fill:none;stroke:#000000;stroke-width:1.45815098;stroke-linecap:butt;stroke-linejoin:miter;stroke-miterlimit:4;stroke-dasharray:none;stroke-opacity:1"
           d="m 561.387,38.715 -11.664,0" /></g><g
         transform="matrix(1,0,0,-1,0,141.73228)"
         id="g134"><path
           id="path136"
           style="fill:none;stroke:#000000;stroke-width:1.45815098;stroke-linecap:butt;stroke-linejoin:miter;stroke-miterlimit:4;stroke-dasharray:none;stroke-opacity:1"
           d="m 561.387,73.711 -11.664,0" /></g><g
         transform="matrix(1,0,0,-1,0,141.73228)"
         id="g138"><path
           id="path140"
           style="fill:none;stroke:#000000;stroke-width:1.45815098;stroke-linecap:butt;stroke-linejoin:miter;stroke-miterlimit:4;stroke-dasharray:none;stroke-opacity:1"
           d="m 631.379,73.711 69.262,0" /></g><path
         id="path142"
         style="fill:#ffffff;fill-opacity:1;fill-rule:nonzero;stroke:none"
         d="m 706.473,68.021 c 0,-1.457 -1.457,-2.914 -2.914,-2.914 -1.457,0 -2.918,1.457 -2.918,2.914 0,1.461 1.461,2.918 2.918,2.918 1.457,0 2.914,-1.457 2.914,-2.918 z" /><g
         transform="matrix(1,0,0,-1,0,141.73228)"
         id="g144"><path
           id="path146"
           style="fill:none;stroke:#000000;stroke-width:1.45815098;stroke-linecap:butt;stroke-linejoin:miter;stroke-miterlimit:4;stroke-dasharray:none;stroke-opacity:1"
           d="m 706.473,73.711 c 0,1.457 -1.457,2.914 -2.914,2.914 -1.457,0 -2.918,-1.457 -2.918,-2.914 0,-1.461 1.461,-2.918 2.918,-2.918 1.457,0 2.914,1.457 2.914,2.918" /></g><g
         transform="matrix(1,0,0,-1,0,141.73228)"
         id="g148"><path
           id="path150"
           style="fill:none;stroke:#000000;stroke-width:1.45815098;stroke-linecap:butt;stroke-linejoin:miter;stroke-miterlimit:4;stroke-dasharray:none;stroke-opacity:1"
           d="m 631.379,38.715 69.262,0" /></g><path
         id="path152"
         style="fill:#ffffff;fill-opacity:1;fill-rule:nonzero;stroke:none"
         d="m 706.473,103.017 c 0,-1.457 -1.457,-2.914 -2.914,-2.914 -1.457,0 -2.918,1.457 -2.918,2.914 0,1.461 1.461,2.918 2.918,2.918 1.457,0 2.914,-1.457 2.914,-2.918 z" /><g
         transform="matrix(1,0,0,-1,0,141.73228)"
         id="g154"><path
           id="path156"
           style="fill:none;stroke:#000000;stroke-width:1.45815098;stroke-linecap:butt;stroke-linejoin:miter;stroke-miterlimit:4;stroke-dasharray:none;stroke-opacity:1"
           d="m 706.473,38.715 c 0,1.457 -1.457,2.914 -2.914,2.914 -1.457,0 -2.918,-1.457 -2.918,-2.914 0,-1.461 1.461,-2.918 2.918,-2.918 1.457,0 2.914,1.457 2.914,2.918" /></g><g
         transform="matrix(1,0,0,-1,0,141.73228)"
         id="g158"><path
           id="path160"
           style="fill:none;stroke:#000000;stroke-width:1.45815098;stroke-linecap:butt;stroke-linejoin:miter;stroke-miterlimit:4;stroke-dasharray:none;stroke-opacity:1"
           d="M 39.371,73.711 13.102,128.82" /></g><path
         id="path162"
         style="fill:#000000;fill-opacity:1;fill-rule:nonzero;stroke:none"
         d="m 13.102,12.912 c -0.063,0.031 -0.098,0.125 -0.067,0.191 0.031,0.067 0.129,0.102 0.192,0.071 0.066,-0.032 0.101,-0.129 0.07,-0.196 -0.031,-0.066 -0.129,-0.101 -0.195,-0.066 z" /><g
         transform="matrix(1,0,0,-1,0,141.73228)"
         id="g164"><path
           id="path166"
           style="fill:none;stroke:#000000;stroke-width:1.45815098;stroke-linecap:butt;stroke-linejoin:miter;stroke-miterlimit:4;stroke-dasharray:none;stroke-opacity:1"
           d="m 13.102,128.82 c -0.063,-0.031 -0.098,-0.125 -0.067,-0.191 0.031,-0.067 0.129,-0.102 0.192,-0.07 0.066,0.031 0.101,0.129 0.07,0.195 -0.031,0.066 -0.129,0.101 -0.195,0.066" /></g><g
         transform="matrix(1,0,0,-1,0,141.73228)"
         id="g168"><path
           id="path170"
           style="fill:none;stroke:#000000;stroke-width:1.45815098;stroke-linecap:butt;stroke-linejoin:miter;stroke-miterlimit:4;stroke-dasharray:none;stroke-opacity:1"
           d="M 39.371,38.715 13.102,93.828" /></g><path
         id="path172"
         style="fill:#000000;fill-opacity:1;fill-rule:nonzero;stroke:none"
         d="m 13.102,47.904 c -0.063,0.035 -0.098,0.129 -0.067,0.195 0.031,0.067 0.129,0.102 0.192,0.071 0.066,-0.031 0.101,-0.129 0.07,-0.196 -0.031,-0.066 -0.129,-0.101 -0.195,-0.07 z" /><g
         transform="matrix(1,0,0,-1,0,141.73228)"
         id="g174"><path
           id="path176"
           style="fill:none;stroke:#000000;stroke-width:1.45815098;stroke-linecap:butt;stroke-linejoin:miter;stroke-miterlimit:4;stroke-dasharray:none;stroke-opacity:1"
           d="m 13.102,93.828 c -0.063,-0.035 -0.098,-0.129 -0.067,-0.195 0.031,-0.067 0.129,-0.102 0.192,-0.071 0.066,0.032 0.101,0.129 0.07,0.196 -0.031,0.066 -0.129,0.101 -0.195,0.07" /></g><g
         transform="matrix(1,0,0,-1,0,141.73228)"
         id="g178"><path
           id="path180"
           style="fill:none;stroke:#000000;stroke-width:1.45815098;stroke-linecap:butt;stroke-linejoin:miter;stroke-miterlimit:4;stroke-dasharray:none;stroke-opacity:1"
           d="m 196.852,38.715 -26.27,55.113" /></g><path
         id="path182"
         style="fill:#000000;fill-opacity:1;fill-rule:nonzero;stroke:none"
         d="m 170.582,47.904 c -0.062,0.035 -0.098,0.129 -0.066,0.195 0.031,0.067 0.129,0.102 0.191,0.071 0.066,-0.031 0.102,-0.129 0.07,-0.196 -0.031,-0.066 -0.129,-0.101 -0.195,-0.07 z" /><g
         transform="matrix(1,0,0,-1,0,141.73228)"
         id="g184"><path
           id="path186"
           style="fill:none;stroke:#000000;stroke-width:1.45815098;stroke-linecap:butt;stroke-linejoin:miter;stroke-miterlimit:4;stroke-dasharray:none;stroke-opacity:1"
           d="m 170.582,93.828 c -0.062,-0.035 -0.098,-0.129 -0.066,-0.195 0.031,-0.067 0.129,-0.102 0.191,-0.071 0.066,0.032 0.102,0.129 0.07,0.196 -0.031,0.066 -0.129,0.101 -0.195,0.07" /></g><g
         transform="matrix(1,0,0,-1,0,141.73228)"
         id="g188"><path
           id="path190"
           style="fill:none;stroke:#000000;stroke-width:1.45815098;stroke-linecap:butt;stroke-linejoin:miter;stroke-miterlimit:4;stroke-dasharray:none;stroke-opacity:1"
           d="m 196.852,73.711 -26.27,55.109" /></g><path
         id="path192"
         style="fill:#000000;fill-opacity:1;fill-rule:nonzero;stroke:none"
         d="m 170.582,12.912 c -0.062,0.031 -0.098,0.125 -0.066,0.191 0.031,0.067 0.129,0.102 0.191,0.071 0.066,-0.032 0.102,-0.129 0.07,-0.196 -0.031,-0.066 -0.129,-0.101 -0.195,-0.066 z" /><g
         transform="matrix(1,0,0,-1,0,141.73228)"
         id="g194"><path
           id="path196"
           style="fill:none;stroke:#000000;stroke-width:1.45815098;stroke-linecap:butt;stroke-linejoin:miter;stroke-miterlimit:4;stroke-dasharray:none;stroke-opacity:1"
           d="m 170.582,128.82 c -0.062,-0.031 -0.098,-0.125 -0.066,-0.191 0.031,-0.067 0.129,-0.102 0.191,-0.07 0.066,0.031 0.102,0.129 0.07,0.195 -0.031,0.066 -0.129,0.101 -0.195,0.066" /></g><g
         transform="matrix(1,0,0,-1,0,141.73228)"
         id="g198"><path
           id="path200"
           style="fill:none;stroke:#000000;stroke-width:1.45815098;stroke-linecap:butt;stroke-linejoin:miter;stroke-miterlimit:4;stroke-dasharray:none;stroke-opacity:1"
           d="M 354.332,73.711 328.063,128.82" /></g><path
         id="path202"
         style="fill:#000000;fill-opacity:1;fill-rule:nonzero;stroke:none"
         d="m 328.062,12.912 c -0.066,0.031 -0.097,0.125 -0.066,0.191 0.031,0.067 0.129,0.102 0.192,0.071 0.066,-0.032 0.101,-0.129 0.07,-0.196 -0.031,-0.066 -0.129,-0.101 -0.196,-0.066 z" /><g
         transform="matrix(1,0,0,-1,0,141.73228)"
         id="g204"><path
           id="path206"
           style="fill:none;stroke:#000000;stroke-width:1.45815098;stroke-linecap:butt;stroke-linejoin:miter;stroke-miterlimit:4;stroke-dasharray:none;stroke-opacity:1"
           d="m 328.063,128.82 c -0.067,-0.031 -0.098,-0.125 -0.067,-0.191 0.031,-0.067 0.129,-0.102 0.192,-0.07 0.066,0.031 0.101,0.129 0.07,0.195 -0.031,0.066 -0.129,0.101 -0.195,0.066" /></g><g
         transform="matrix(1,0,0,-1,0,141.73228)"
         id="g208"><path
           id="path210"
           style="fill:none;stroke:#000000;stroke-width:1.45815098;stroke-linecap:butt;stroke-linejoin:miter;stroke-miterlimit:4;stroke-dasharray:none;stroke-opacity:1"
           d="M 354.332,38.715 328.063,93.828" /></g><path
         id="path212"
         style="fill:#000000;fill-opacity:1;fill-rule:nonzero;stroke:none"
         d="m 328.062,47.904 c -0.066,0.035 -0.097,0.129 -0.066,0.195 0.031,0.067 0.129,0.102 0.192,0.071 0.066,-0.031 0.101,-0.129 0.07,-0.196 -0.031,-0.066 -0.129,-0.101 -0.196,-0.07 z" /><g
         transform="matrix(1,0,0,-1,0,141.73228)"
         id="g214"><path
           id="path216"
           style="fill:none;stroke:#000000;stroke-width:1.45815098;stroke-linecap:butt;stroke-linejoin:miter;stroke-miterlimit:4;stroke-dasharray:none;stroke-opacity:1"
           d="m 328.063,93.828 c -0.067,-0.035 -0.098,-0.129 -0.067,-0.195 0.031,-0.067 0.129,-0.102 0.192,-0.071 0.066,0.032 0.101,0.129 0.07,0.196 -0.031,0.066 -0.129,0.101 -0.195,0.07" /></g><g
         transform="matrix(1,0,0,-1,0,141.73228)"
         id="g218"><path
           id="path220"
           style="fill:none;stroke:#000000;stroke-width:1.45815098;stroke-linecap:butt;stroke-linejoin:miter;stroke-miterlimit:4;stroke-dasharray:none;stroke-opacity:1"
           d="m 511.813,73.711 -26.27,55.109" /></g><path
         id="path222"
         style="fill:#000000;fill-opacity:1;fill-rule:nonzero;stroke:none"
         d="m 485.543,12.912 c -0.066,0.031 -0.102,0.125 -0.066,0.191 0.031,0.067 0.128,0.102 0.191,0.071 0.066,-0.032 0.102,-0.129 0.07,-0.196 -0.031,-0.066 -0.129,-0.101 -0.195,-0.066 z" /><g
         transform="matrix(1,0,0,-1,0,141.73228)"
         id="g224"><path
           id="path226"
           style="fill:none;stroke:#000000;stroke-width:1.45815098;stroke-linecap:butt;stroke-linejoin:miter;stroke-miterlimit:4;stroke-dasharray:none;stroke-opacity:1"
           d="m 485.543,128.82 c -0.066,-0.031 -0.102,-0.125 -0.066,-0.191 0.031,-0.067 0.129,-0.102 0.191,-0.07 0.066,0.031 0.102,0.129 0.07,0.195 -0.031,0.066 -0.129,0.101 -0.195,0.066" /></g><g
         transform="matrix(1,0,0,-1,0,141.73228)"
         id="g228"><path
           id="path230"
           style="fill:none;stroke:#000000;stroke-width:1.45815098;stroke-linecap:butt;stroke-linejoin:miter;stroke-miterlimit:4;stroke-dasharray:none;stroke-opacity:1"
           d="m 511.813,38.715 -26.27,55.113" /></g><path
         id="path232"
         style="fill:#000000;fill-opacity:1;fill-rule:nonzero;stroke:none"
         d="m 485.543,47.904 c -0.066,0.035 -0.102,0.129 -0.066,0.195 0.031,0.067 0.128,0.102 0.191,0.071 0.066,-0.031 0.102,-0.129 0.07,-0.196 -0.031,-0.066 -0.129,-0.101 -0.195,-0.07 z" /><g
         transform="matrix(1,0,0,-1,0,141.73228)"
         id="g234"><path
           id="path236"
           style="fill:none;stroke:#000000;stroke-width:1.45815098;stroke-linecap:butt;stroke-linejoin:miter;stroke-miterlimit:4;stroke-dasharray:none;stroke-opacity:1"
           d="m 485.543,93.828 c -0.066,-0.035 -0.102,-0.129 -0.066,-0.195 0.031,-0.067 0.129,-0.102 0.191,-0.071 0.066,0.032 0.102,0.129 0.07,0.196 -0.031,0.066 -0.129,0.101 -0.195,0.07" /></g><g
         transform="matrix(1,0,0,-1,0,141.73228)"
         id="g238"><path
           id="path240"
           style="fill:none;stroke:#000000;stroke-width:1.45815098;stroke-linecap:butt;stroke-linejoin:miter;stroke-miterlimit:4;stroke-dasharray:none;stroke-opacity:1"
           d="m 669.293,73.711 -26.27,55.109" /></g><path
         id="path242"
         style="fill:#000000;fill-opacity:1;fill-rule:nonzero;stroke:none"
         d="m 643.023,12.912 c -0.066,0.031 -0.101,0.125 -0.066,0.191 0.027,0.067 0.129,0.102 0.191,0.071 0.067,-0.032 0.102,-0.129 0.071,-0.196 -0.031,-0.066 -0.129,-0.101 -0.196,-0.066 z" /><g
         transform="matrix(1,0,0,-1,0,141.73228)"
         id="g244"><path
           id="path246"
           style="fill:none;stroke:#000000;stroke-width:1.45815098;stroke-linecap:butt;stroke-linejoin:miter;stroke-miterlimit:4;stroke-dasharray:none;stroke-opacity:1"
           d="m 643.023,128.82 c -0.066,-0.031 -0.101,-0.125 -0.066,-0.191 0.027,-0.067 0.129,-0.102 0.191,-0.07 0.067,0.031 0.102,0.129 0.071,0.195 -0.031,0.066 -0.129,0.101 -0.196,0.066" /></g><g
         transform="matrix(1,0,0,-1,0,141.73228)"
         id="g248"><path
           id="path250"
           style="fill:none;stroke:#000000;stroke-width:1.45815098;stroke-linecap:butt;stroke-linejoin:miter;stroke-miterlimit:4;stroke-dasharray:none;stroke-opacity:1"
           d="m 669.293,38.715 -26.27,55.113" /></g><path
         id="path252"
         style="fill:#000000;fill-opacity:1;fill-rule:nonzero;stroke:none"
         d="m 643.023,47.904 c -0.066,0.035 -0.101,0.129 -0.066,0.195 0.027,0.067 0.129,0.102 0.191,0.071 0.067,-0.031 0.102,-0.129 0.071,-0.196 -0.031,-0.066 -0.129,-0.101 -0.196,-0.07 z" /><g
         transform="matrix(1,0,0,-1,0,141.73228)"
         id="g254"><path
           id="path256"
           style="fill:none;stroke:#000000;stroke-width:1.45815098;stroke-linecap:butt;stroke-linejoin:miter;stroke-miterlimit:4;stroke-dasharray:none;stroke-opacity:1"
           d="m 643.023,93.828 c -0.066,-0.035 -0.101,-0.129 -0.066,-0.195 0.027,-0.067 0.129,-0.102 0.191,-0.071 0.067,0.032 0.102,0.129 0.071,0.196 -0.031,0.066 -0.129,0.101 -0.196,0.07" /></g><g
         transform="matrix(1,0,0,-1,0,141.73228)"
         id="g258"><path
           id="path260"
           style="fill:none;stroke:#bf00bf;stroke-width:1.45815098;stroke-linecap:butt;stroke-linejoin:miter;stroke-miterlimit:4;stroke-dasharray:5.832605, 5.832605;stroke-dashoffset:0;stroke-opacity:1"
           d="m 170.605,27.047 0,52.496" /></g><g
         transform="matrix(1,0,0,-1,0,141.73228)"
         id="g262"><path
           id="path264"
           style="fill:none;stroke:#bf00bf;stroke-width:1.45815098;stroke-linecap:butt;stroke-linejoin:miter;stroke-miterlimit:4;stroke-dasharray:5.832605, 5.832605;stroke-dashoffset:0;stroke-opacity:1"
           d="m 328.086,27.047 0,52.496" /></g><g
         transform="matrix(1,0,0,-1,0,141.73228)"
         id="g266"><path
           id="path268"
           style="fill:none;stroke:#bf00bf;stroke-width:1.45815098;stroke-linecap:butt;stroke-linejoin:miter;stroke-miterlimit:4;stroke-dasharray:5.832605, 5.832605;stroke-dashoffset:0;stroke-opacity:1"
           d="m 380.578,27.047 0,52.496" /></g><g
         transform="matrix(1,0,0,-1,0,141.73228)"
         id="g270"><path
           id="path272"
           style="fill:none;stroke:#bf00bf;stroke-width:1.45815098;stroke-linecap:butt;stroke-linejoin:miter;stroke-miterlimit:4;stroke-dasharray:5.832605, 5.832605;stroke-dashoffset:0;stroke-opacity:1"
           d="m 538.059,27.047 0,52.496" /></g><path
         id="path274"
         style="fill:#000000;fill-opacity:1;fill-rule:nonzero;stroke:none"
         d="m 112.457,86.439 2.531,-6.75 -0.953,0 -1.531,4.047 -1.891,-4.047 -0.953,0 2.406,5.25 -0.375,0.969 c -0.148,0.406 -0.398,0.609 -0.75,0.609 l -0.468,0 0,0.766 0.578,0 c 0.726,-0.012 1.195,-0.293 1.406,-0.844 z" /><path
         id="path276"
         style="fill:#000000;fill-opacity:1;fill-rule:nonzero;stroke:none"
         d="m 117.754,86.986 0.828,0 -2.547,-8.219 -0.828,0 2.547,8.219 z" /><path
         id="path278"
         style="fill:#000000;fill-opacity:1;fill-rule:nonzero;stroke:none"
         d="m 121.715,83.158 c -0.469,0 -0.84,-0.133 -1.11,-0.391 -0.261,-0.25 -0.39,-0.593 -0.39,-1.031 0,-0.437 0.129,-0.781 0.39,-1.031 0.27,-0.25 0.641,-0.375 1.11,-0.375 0.469,0 0.836,0.125 1.109,0.375 0.27,0.25 0.406,0.594 0.406,1.031 0,0.438 -0.136,0.781 -0.406,1.031 -0.262,0.258 -0.633,0.391 -1.109,0.391 z m -0.985,0.406 c -0.418,0.102 -0.746,0.301 -0.984,0.594 -0.242,0.289 -0.359,0.645 -0.359,1.063 0,0.582 0.207,1.039 0.625,1.375 0.414,0.343 0.984,0.515 1.703,0.515 0.726,0 1.301,-0.172 1.719,-0.515 0.414,-0.336 0.625,-0.793 0.625,-1.375 0,-0.418 -0.121,-0.774 -0.36,-1.063 -0.242,-0.293 -0.57,-0.492 -0.984,-0.594 0.476,-0.105 0.847,-0.32 1.109,-0.64 0.258,-0.325 0.391,-0.719 0.391,-1.188 0,-0.711 -0.215,-1.25 -0.641,-1.625 -0.429,-0.375 -1.047,-0.562 -1.859,-0.562 -0.805,0 -1.422,0.187 -1.86,0.562 -0.429,0.375 -0.64,0.914 -0.64,1.625 0,0.469 0.133,0.863 0.406,1.188 0.27,0.32 0.641,0.535 1.109,0.64 z m -0.359,1.563 c 0,-0.375 0.117,-0.672 0.359,-0.891 0.239,-0.211 0.567,-0.312 0.985,-0.312 0.426,0 0.758,0.101 1,0.312 0.238,0.219 0.359,0.516 0.359,0.891 0,0.375 -0.121,0.664 -0.359,0.875 -0.242,0.219 -0.574,0.328 -1,0.328 -0.418,0 -0.746,-0.109 -0.985,-0.328 -0.242,-0.211 -0.359,-0.5 -0.359,-0.875 z" /><path
         id="path280"
         style="fill:#000000;fill-opacity:1;fill-rule:nonzero;stroke:none"
         d="m 269.934,86.439 2.531,-6.75 -0.953,0 -1.532,4.047 -1.89,-4.047 -0.953,0 2.406,5.25 -0.375,0.969 c -0.148,0.406 -0.398,0.609 -0.75,0.609 l -0.469,0 0,0.766 0.578,0 c 0.727,-0.012 1.196,-0.293 1.407,-0.844 z" /><path
         id="path282"
         style="fill:#000000;fill-opacity:1;fill-rule:nonzero;stroke:none"
         d="m 275.234,86.986 0.828,0 -2.546,-8.219 -0.828,0 2.546,8.219 z" /><path
         id="path284"
         style="fill:#000000;fill-opacity:1;fill-rule:nonzero;stroke:none"
         d="m 279.195,83.158 c -0.468,0 -0.84,-0.133 -1.109,-0.391 -0.262,-0.25 -0.391,-0.593 -0.391,-1.031 0,-0.437 0.129,-0.781 0.391,-1.031 0.269,-0.25 0.641,-0.375 1.109,-0.375 0.469,0 0.836,0.125 1.11,0.375 0.269,0.25 0.406,0.594 0.406,1.031 0,0.438 -0.137,0.781 -0.406,1.031 -0.262,0.258 -0.633,0.391 -1.11,0.391 z m -0.984,0.406 c -0.418,0.102 -0.746,0.301 -0.984,0.594 -0.243,0.289 -0.36,0.645 -0.36,1.063 0,0.582 0.207,1.039 0.625,1.375 0.414,0.343 0.985,0.515 1.703,0.515 0.727,0 1.301,-0.172 1.719,-0.515 0.414,-0.336 0.625,-0.793 0.625,-1.375 0,-0.418 -0.121,-0.774 -0.359,-1.063 -0.242,-0.293 -0.571,-0.492 -0.985,-0.594 0.477,-0.105 0.848,-0.32 1.11,-0.64 0.257,-0.325 0.39,-0.719 0.39,-1.188 0,-0.711 -0.215,-1.25 -0.64,-1.625 -0.43,-0.375 -1.047,-0.562 -1.86,-0.562 -0.804,0 -1.422,0.187 -1.859,0.562 -0.43,0.375 -0.641,0.914 -0.641,1.625 0,0.469 0.133,0.863 0.407,1.188 0.269,0.32 0.64,0.535 1.109,0.64 z m -0.359,1.563 c 0,-0.375 0.117,-0.672 0.359,-0.891 0.238,-0.211 0.566,-0.312 0.984,-0.312 0.426,0 0.758,0.101 1,0.312 0.239,0.219 0.36,0.516 0.36,0.891 0,0.375 -0.121,0.664 -0.36,0.875 -0.242,0.219 -0.574,0.328 -1,0.328 -0.418,0 -0.746,-0.109 -0.984,-0.328 -0.242,-0.211 -0.359,-0.5 -0.359,-0.875 z" /><path
         id="path286"
         style="fill:#000000;fill-opacity:1;fill-rule:nonzero;stroke:none"
         d="m 427.414,86.439 2.531,-6.75 -0.953,0 -1.531,4.047 -1.891,-4.047 -0.953,0 2.406,5.25 -0.375,0.969 c -0.148,0.406 -0.398,0.609 -0.75,0.609 l -0.468,0 0,0.766 0.578,0 c 0.726,-0.012 1.195,-0.293 1.406,-0.844 z" /><path
         id="path288"
         style="fill:#000000;fill-opacity:1;fill-rule:nonzero;stroke:none"
         d="m 432.715,86.986 0.828,0 -2.547,-8.219 -0.828,0 2.547,8.219 z" /><path
         id="path290"
         style="fill:#000000;fill-opacity:1;fill-rule:nonzero;stroke:none"
         d="m 436.676,83.158 c -0.469,0 -0.84,-0.133 -1.11,-0.391 -0.261,-0.25 -0.39,-0.593 -0.39,-1.031 0,-0.437 0.129,-0.781 0.39,-1.031 0.27,-0.25 0.641,-0.375 1.11,-0.375 0.469,0 0.836,0.125 1.109,0.375 0.27,0.25 0.406,0.594 0.406,1.031 0,0.438 -0.136,0.781 -0.406,1.031 -0.262,0.258 -0.633,0.391 -1.109,0.391 z m -0.985,0.406 c -0.418,0.102 -0.746,0.301 -0.984,0.594 -0.242,0.289 -0.359,0.645 -0.359,1.063 0,0.582 0.207,1.039 0.625,1.375 0.414,0.343 0.984,0.515 1.703,0.515 0.726,0 1.301,-0.172 1.719,-0.515 0.414,-0.336 0.625,-0.793 0.625,-1.375 0,-0.418 -0.122,-0.774 -0.36,-1.063 -0.242,-0.293 -0.57,-0.492 -0.984,-0.594 0.476,-0.105 0.847,-0.32 1.109,-0.64 0.258,-0.325 0.391,-0.719 0.391,-1.188 0,-0.711 -0.215,-1.25 -0.641,-1.625 -0.43,-0.375 -1.047,-0.562 -1.859,-0.562 -0.805,0 -1.422,0.187 -1.86,0.562 -0.429,0.375 -0.64,0.914 -0.64,1.625 0,0.469 0.133,0.863 0.406,1.188 0.27,0.32 0.641,0.535 1.109,0.64 z m -0.359,1.563 c 0,-0.375 0.117,-0.672 0.359,-0.891 0.239,-0.211 0.567,-0.312 0.985,-0.312 0.426,0 0.758,0.101 1,0.312 0.238,0.219 0.359,0.516 0.359,0.891 0,0.375 -0.121,0.664 -0.359,0.875 -0.242,0.219 -0.574,0.328 -1,0.328 -0.418,0 -0.746,-0.109 -0.985,-0.328 -0.242,-0.211 -0.359,-0.5 -0.359,-0.875 z" /><path
         id="path292"
         style="fill:#000000;fill-opacity:1;fill-rule:nonzero;stroke:none"
         d="m 584.895,86.439 2.531,-6.75 -0.953,0 -1.532,4.047 -1.89,-4.047 -0.953,0 2.406,5.25 -0.375,0.969 c -0.149,0.406 -0.399,0.609 -0.75,0.609 l -0.469,0 0,0.766 0.578,0 c 0.727,-0.012 1.196,-0.293 1.407,-0.844 z" /><path
         id="path294"
         style="fill:#000000;fill-opacity:1;fill-rule:nonzero;stroke:none"
         d="m 590.195,86.986 0.828,0 -2.546,-8.219 -0.829,0 2.547,8.219 z" /><path
         id="path296"
         style="fill:#000000;fill-opacity:1;fill-rule:nonzero;stroke:none"
         d="m 594.156,83.158 c -0.468,0 -0.84,-0.133 -1.109,-0.391 -0.262,-0.25 -0.391,-0.593 -0.391,-1.031 0,-0.437 0.129,-0.781 0.391,-1.031 0.269,-0.25 0.641,-0.375 1.109,-0.375 0.469,0 0.836,0.125 1.11,0.375 0.269,0.25 0.406,0.594 0.406,1.031 0,0.438 -0.137,0.781 -0.406,1.031 -0.262,0.258 -0.633,0.391 -1.11,0.391 z m -0.984,0.406 c -0.418,0.102 -0.746,0.301 -0.984,0.594 -0.243,0.289 -0.36,0.645 -0.36,1.063 0,0.582 0.207,1.039 0.625,1.375 0.414,0.343 0.985,0.515 1.703,0.515 0.727,0 1.301,-0.172 1.719,-0.515 0.414,-0.336 0.625,-0.793 0.625,-1.375 0,-0.418 -0.121,-0.774 -0.359,-1.063 -0.243,-0.293 -0.571,-0.492 -0.985,-0.594 0.477,-0.105 0.848,-0.32 1.11,-0.64 0.257,-0.325 0.39,-0.719 0.39,-1.188 0,-0.711 -0.215,-1.25 -0.64,-1.625 -0.43,-0.375 -1.047,-0.562 -1.86,-0.562 -0.804,0 -1.422,0.187 -1.859,0.562 -0.43,0.375 -0.641,0.914 -0.641,1.625 0,0.469 0.133,0.863 0.406,1.188 0.27,0.32 0.641,0.535 1.11,0.64 z m -0.36,1.563 c 0,-0.375 0.118,-0.672 0.36,-0.891 0.238,-0.211 0.566,-0.312 0.984,-0.312 0.426,0 0.758,0.101 1,0.312 0.239,0.219 0.36,0.516 0.36,0.891 0,0.375 -0.121,0.664 -0.36,0.875 -0.242,0.219 -0.574,0.328 -1,0.328 -0.418,0 -0.746,-0.109 -0.984,-0.328 -0.242,-0.211 -0.36,-0.5 -0.36,-0.875 z" /><path
         id="path298"
         style="fill:#000000;fill-opacity:1;fill-rule:nonzero;stroke:none"
         d="m 656.633,109.678 3.437,0 0,-0.829 -4.625,0 0,0.829 c 0.375,0.382 0.883,0.906 1.532,1.562 0.644,0.656 1.05,1.078 1.218,1.266 0.313,0.351 0.532,0.648 0.657,0.89 0.125,0.25 0.187,0.493 0.187,0.735 0,0.383 -0.137,0.695 -0.406,0.937 -0.274,0.25 -0.625,0.375 -1.063,0.375 -0.312,0 -0.64,-0.058 -0.984,-0.172 -0.336,-0.105 -0.699,-0.265 -1.094,-0.484 l 0,1 c 0.395,0.156 0.766,0.273 1.11,0.359 0.343,0.082 0.66,0.125 0.953,0.125 0.75,0 1.347,-0.187 1.797,-0.562 0.457,-0.375 0.687,-0.883 0.687,-1.516 0,-0.304 -0.059,-0.59 -0.172,-0.859 -0.117,-0.262 -0.32,-0.574 -0.609,-0.938 -0.086,-0.093 -0.344,-0.371 -0.781,-0.828 -0.438,-0.449 -1.055,-1.078 -1.844,-1.89 z" /><path
         id="path300"
         style="fill:#000000;fill-opacity:1;fill-rule:nonzero;stroke:none"
         d="m 662.172,110.084 1.031,0 0,-0.828 -0.797,-1.563 -0.64,0 0.406,1.563 0,0.828 z" /><path
         id="path302"
         style="fill:#000000;fill-opacity:1;fill-rule:nonzero;stroke:none"
         d="m 665.223,116.146 3.875,0 0,-0.843 -2.969,0 0,-1.782 c 0.144,0.051 0.285,0.086 0.422,0.11 0.144,0.019 0.289,0.031 0.437,0.031 0.813,0 1.453,-0.227 1.922,-0.672 0.477,-0.437 0.719,-1.039 0.719,-1.797 0,-0.793 -0.246,-1.406 -0.734,-1.844 -0.481,-0.429 -1.168,-0.64 -2.063,-0.64 -0.305,0 -0.617,0.027 -0.937,0.078 -0.313,0.055 -0.641,0.129 -0.985,0.234 l 0,0.985 c 0.301,-0.157 0.61,-0.278 0.922,-0.36 0.313,-0.074 0.641,-0.109 0.984,-0.109 0.563,0 1.004,0.145 1.329,0.437 0.332,0.301 0.5,0.708 0.5,1.219 0,0.5 -0.168,0.895 -0.5,1.188 -0.325,0.301 -0.766,0.453 -1.329,0.453 -0.261,0 -0.527,-0.031 -0.796,-0.094 -0.262,-0.055 -0.528,-0.141 -0.797,-0.266 l 0,3.672 z" /><path
         id="path304"
         style="fill:#000000;fill-opacity:1;fill-rule:nonzero;stroke:none"
         d="m 673.602,112.318 c -0.469,0 -0.84,-0.133 -1.11,-0.39 -0.262,-0.25 -0.39,-0.594 -0.39,-1.032 0,-0.437 0.128,-0.781 0.39,-1.031 0.27,-0.25 0.641,-0.375 1.11,-0.375 0.468,0 0.836,0.125 1.109,0.375 0.269,0.25 0.406,0.594 0.406,1.031 0,0.438 -0.137,0.782 -0.406,1.032 -0.262,0.257 -0.633,0.39 -1.109,0.39 z m -0.985,0.406 c -0.418,0.102 -0.746,0.301 -0.984,0.594 -0.242,0.289 -0.36,0.645 -0.36,1.063 0,0.582 0.207,1.039 0.625,1.375 0.414,0.343 0.985,0.515 1.704,0.515 0.726,0 1.3,-0.172 1.718,-0.515 0.414,-0.336 0.625,-0.793 0.625,-1.375 0,-0.418 -0.121,-0.774 -0.359,-1.063 -0.242,-0.293 -0.57,-0.492 -0.984,-0.594 0.476,-0.105 0.847,-0.32 1.109,-0.64 0.258,-0.324 0.391,-0.719 0.391,-1.188 0,-0.711 -0.215,-1.25 -0.641,-1.625 -0.43,-0.375 -1.047,-0.562 -1.859,-0.562 -0.805,0 -1.422,0.187 -1.86,0.562 -0.43,0.375 -0.64,0.914 -0.64,1.625 0,0.469 0.132,0.864 0.406,1.188 0.269,0.32 0.64,0.535 1.109,0.64 z m -0.359,1.563 c 0,-0.375 0.117,-0.672 0.359,-0.891 0.238,-0.211 0.567,-0.312 0.985,-0.312 0.425,0 0.757,0.101 1,0.312 0.238,0.219 0.359,0.516 0.359,0.891 0,0.375 -0.121,0.664 -0.359,0.875 -0.243,0.219 -0.575,0.328 -1,0.328 -0.418,0 -0.747,-0.109 -0.985,-0.328 -0.242,-0.211 -0.359,-0.5 -0.359,-0.875 z" /><path
         id="path306"
         style="fill:#000000;fill-opacity:1;fill-rule:nonzero;stroke:none"
         d="m 580.121,121.346 1.625,0 0,5.562 -1.766,-0.344 0,0.891 1.75,0.359 0.985,0 0,-6.468 1.609,0 0,-0.829 -4.203,0 0,0.829 z" /><path
         id="path308"
         style="fill:#000000;fill-opacity:1;fill-rule:nonzero;stroke:none"
         d="m 586.348,121.752 1.031,0 0,-0.828 -0.797,-1.563 -0.641,0 0.407,1.563 0,0.828 z" /><path
         id="path310"
         style="fill:#000000;fill-opacity:1;fill-rule:nonzero;stroke:none"
         d="m 591.617,124.549 c -0.437,0 -0.789,-0.153 -1.047,-0.453 -0.261,-0.305 -0.39,-0.715 -0.39,-1.235 0,-0.531 0.129,-0.949 0.39,-1.25 0.258,-0.304 0.61,-0.453 1.047,-0.453 0.445,0 0.797,0.149 1.047,0.453 0.258,0.301 0.391,0.719 0.391,1.25 0,0.52 -0.133,0.93 -0.391,1.235 -0.25,0.3 -0.602,0.453 -1.047,0.453 z m 1.969,3.093 0,-0.89 c -0.25,0.113 -0.508,0.203 -0.766,0.265 -0.25,0.063 -0.496,0.094 -0.734,0.094 -0.656,0 -1.156,-0.219 -1.5,-0.656 -0.344,-0.438 -0.539,-1.106 -0.578,-2 0.187,0.281 0.426,0.492 0.719,0.641 0.289,0.156 0.609,0.234 0.953,0.234 0.726,0 1.304,-0.227 1.734,-0.672 0.426,-0.437 0.641,-1.039 0.641,-1.797 0,-0.75 -0.227,-1.355 -0.672,-1.812 -0.438,-0.45 -1.028,-0.672 -1.766,-0.672 -0.844,0 -1.492,0.32 -1.937,0.969 -0.438,0.644 -0.657,1.582 -0.657,2.812 0,1.145 0.27,2.063 0.813,2.75 0.551,0.688 1.285,1.031 2.203,1.031 0.25,0 0.5,-0.027 0.75,-0.078 0.25,-0.043 0.516,-0.117 0.797,-0.219 z" /><path
         id="path312"
         style="fill:#000000;fill-opacity:1;fill-rule:nonzero;stroke:none"
         d="m 598.668,124.455 c 0.469,-0.106 0.832,-0.32 1.094,-0.641 0.269,-0.312 0.406,-0.703 0.406,-1.172 0,-0.718 -0.25,-1.277 -0.75,-1.671 -0.492,-0.399 -1.195,-0.594 -2.109,-0.594 -0.305,0 -0.618,0.031 -0.938,0.094 -0.324,0.062 -0.656,0.148 -1,0.265 l 0,0.953 c 0.27,-0.156 0.567,-0.277 0.891,-0.359 0.332,-0.086 0.676,-0.125 1.031,-0.125 0.613,0 1.082,0.117 1.406,0.359 0.321,0.25 0.485,0.61 0.485,1.078 0,0.426 -0.153,0.758 -0.454,1 -0.304,0.239 -0.718,0.36 -1.25,0.36 l -0.859,0 0,0.812 0.891,0 c 0.488,0 0.859,0.098 1.109,0.297 0.258,0.196 0.391,0.477 0.391,0.844 0,0.363 -0.137,0.644 -0.407,0.844 -0.261,0.207 -0.636,0.312 -1.125,0.312 -0.273,0 -0.562,-0.031 -0.875,-0.094 -0.312,-0.054 -0.652,-0.14 -1.015,-0.265 l 0,0.875 c 0.375,0.101 0.722,0.18 1.047,0.234 0.332,0.051 0.64,0.078 0.922,0.078 0.75,0 1.343,-0.172 1.781,-0.515 0.437,-0.336 0.656,-0.793 0.656,-1.375 0,-0.407 -0.117,-0.75 -0.344,-1.032 -0.23,-0.273 -0.558,-0.46 -0.984,-0.562 z" /><path
         id="path314"
         style="fill:#000000;fill-opacity:1;fill-rule:nonzero;stroke:none"
         d="m 500.402,115.49 c -0.5,0 -0.882,-0.25 -1.14,-0.75 -0.25,-0.5 -0.375,-1.25 -0.375,-2.25 0,-1 0.125,-1.75 0.375,-2.25 0.258,-0.5 0.64,-0.75 1.14,-0.75 0.52,0 0.907,0.25 1.157,0.75 0.257,0.5 0.39,1.25 0.39,2.25 0,1 -0.133,1.75 -0.39,2.25 -0.25,0.5 -0.637,0.75 -1.157,0.75 z m 0,0.781 c 0.821,0 1.446,-0.324 1.875,-0.968 0.438,-0.649 0.657,-1.586 0.657,-2.813 0,-1.23 -0.219,-2.168 -0.657,-2.812 -0.429,-0.649 -1.054,-0.969 -1.875,-0.969 -0.812,0 -1.437,0.32 -1.875,0.969 -0.429,0.644 -0.64,1.582 -0.64,2.812 0,1.227 0.211,2.164 0.64,2.813 0.438,0.644 1.063,0.968 1.875,0.968 z" /><path
         id="path316"
         style="fill:#000000;fill-opacity:1;fill-rule:nonzero;stroke:none"
         d="m 504.691,110.084 1.032,0 0,-0.828 -0.797,-1.563 -0.641,0 0.406,1.563 0,0.828 z" /><path
         id="path318"
         style="fill:#000000;fill-opacity:1;fill-rule:nonzero;stroke:none"
         d="m 510.445,115.287 -2.484,-3.891 2.484,0 0,3.891 z m -0.265,0.859 1.25,0 0,-4.75 1.031,0 0,-0.828 -1.031,0 0,-1.719 -0.985,0 0,1.719 -3.297,0 0,0.953 3.032,4.625 z" /><path
         id="path320"
         style="fill:#000000;fill-opacity:1;fill-rule:nonzero;stroke:none"
         d="m 516.121,112.318 c -0.469,0 -0.84,-0.133 -1.109,-0.39 -0.262,-0.25 -0.391,-0.594 -0.391,-1.032 0,-0.437 0.129,-0.781 0.391,-1.031 0.269,-0.25 0.64,-0.375 1.109,-0.375 0.469,0 0.836,0.125 1.109,0.375 0.27,0.25 0.407,0.594 0.407,1.031 0,0.438 -0.137,0.782 -0.407,1.032 -0.261,0.257 -0.632,0.39 -1.109,0.39 z m -0.984,0.406 c -0.418,0.102 -0.746,0.301 -0.985,0.594 -0.242,0.289 -0.359,0.645 -0.359,1.063 0,0.582 0.207,1.039 0.625,1.375 0.414,0.343 0.984,0.515 1.703,0.515 0.727,0 1.301,-0.172 1.719,-0.515 0.414,-0.336 0.625,-0.793 0.625,-1.375 0,-0.418 -0.121,-0.774 -0.36,-1.063 -0.242,-0.293 -0.57,-0.492 -0.984,-0.594 0.477,-0.105 0.848,-0.32 1.109,-0.64 0.258,-0.324 0.391,-0.719 0.391,-1.188 0,-0.711 -0.215,-1.25 -0.641,-1.625 -0.429,-0.375 -1.046,-0.562 -1.859,-0.562 -0.805,0 -1.422,0.187 -1.859,0.562 -0.43,0.375 -0.641,0.914 -0.641,1.625 0,0.469 0.133,0.864 0.406,1.188 0.27,0.32 0.641,0.535 1.11,0.64 z m -0.36,1.563 c 0,-0.375 0.118,-0.672 0.36,-0.891 0.238,-0.211 0.566,-0.312 0.984,-0.312 0.426,0 0.758,0.101 1,0.312 0.238,0.219 0.359,0.516 0.359,0.891 0,0.375 -0.121,0.664 -0.359,0.875 -0.242,0.219 -0.574,0.328 -1,0.328 -0.418,0 -0.746,-0.109 -0.984,-0.328 -0.242,-0.211 -0.36,-0.5 -0.36,-0.875 z" /><path
         id="path322"
         style="fill:#000000;fill-opacity:1;fill-rule:nonzero;stroke:none"
         d="m 422.641,121.346 1.625,0 0,5.562 -1.766,-0.344 0,0.891 1.75,0.359 0.984,0 0,-6.468 1.61,0 0,-0.829 -4.203,0 0,0.829 z" /><path
         id="path324"
         style="fill:#000000;fill-opacity:1;fill-rule:nonzero;stroke:none"
         d="m 428.867,121.752 1.031,0 0,-0.828 -0.796,-1.563 -0.641,0 0.406,1.563 0,0.828 z" /><path
         id="path326"
         style="fill:#000000;fill-opacity:1;fill-rule:nonzero;stroke:none"
         d="m 434.137,124.549 c -0.438,0 -0.789,-0.153 -1.047,-0.453 -0.262,-0.305 -0.391,-0.715 -0.391,-1.235 0,-0.531 0.129,-0.949 0.391,-1.25 0.258,-0.304 0.609,-0.453 1.047,-0.453 0.445,0 0.797,0.149 1.047,0.453 0.257,0.301 0.39,0.719 0.39,1.25 0,0.52 -0.133,0.93 -0.39,1.235 -0.25,0.3 -0.602,0.453 -1.047,0.453 z m 1.968,3.093 0,-0.89 c -0.25,0.113 -0.507,0.203 -0.765,0.265 -0.25,0.063 -0.496,0.094 -0.735,0.094 -0.656,0 -1.156,-0.219 -1.5,-0.656 -0.343,-0.438 -0.539,-1.106 -0.578,-2 0.188,0.281 0.426,0.492 0.719,0.641 0.289,0.156 0.609,0.234 0.953,0.234 0.727,0 1.305,-0.227 1.735,-0.672 0.425,-0.437 0.64,-1.039 0.64,-1.797 0,-0.75 -0.226,-1.355 -0.672,-1.812 -0.437,-0.45 -1.027,-0.672 -1.765,-0.672 -0.844,0 -1.492,0.32 -1.938,0.969 -0.437,0.644 -0.656,1.582 -0.656,2.812 0,1.145 0.269,2.063 0.812,2.75 0.551,0.688 1.286,1.031 2.204,1.031 0.25,0 0.5,-0.027 0.75,-0.078 0.25,-0.043 0.515,-0.117 0.796,-0.219 z" /><path
         id="path328"
         style="fill:#000000;fill-opacity:1;fill-rule:nonzero;stroke:none"
         d="m 440.301,127.158 c -0.5,0 -0.883,-0.25 -1.141,-0.75 -0.25,-0.5 -0.375,-1.25 -0.375,-2.25 0,-1 0.125,-1.75 0.375,-2.25 0.258,-0.5 0.641,-0.75 1.141,-0.75 0.519,0 0.906,0.25 1.156,0.75 0.258,0.5 0.391,1.25 0.391,2.25 0,1 -0.133,1.75 -0.391,2.25 -0.25,0.5 -0.637,0.75 -1.156,0.75 z m 0,0.781 c 0.82,0 1.445,-0.324 1.875,-0.968 0.437,-0.649 0.656,-1.586 0.656,-2.813 0,-1.23 -0.219,-2.168 -0.656,-2.812 -0.43,-0.649 -1.055,-0.969 -1.875,-0.969 -0.813,0 -1.438,0.32 -1.875,0.969 -0.43,0.644 -0.641,1.582 -0.641,2.812 0,1.227 0.211,2.164 0.641,2.813 0.437,0.644 1.062,0.968 1.875,0.968 z" /><path
         id="path330"
         style="fill:#000000;fill-opacity:1;fill-rule:nonzero;stroke:none"
         d="m 342.922,115.49 c -0.5,0 -0.883,-0.25 -1.141,-0.75 -0.25,-0.5 -0.375,-1.25 -0.375,-2.25 0,-1 0.125,-1.75 0.375,-2.25 0.258,-0.5 0.641,-0.75 1.141,-0.75 0.519,0 0.906,0.25 1.156,0.75 0.258,0.5 0.391,1.25 0.391,2.25 0,1 -0.133,1.75 -0.391,2.25 -0.25,0.5 -0.637,0.75 -1.156,0.75 z m 0,0.781 c 0.82,0 1.445,-0.324 1.875,-0.968 0.437,-0.649 0.656,-1.586 0.656,-2.813 0,-1.23 -0.219,-2.168 -0.656,-2.812 -0.43,-0.649 -1.055,-0.969 -1.875,-0.969 -0.813,0 -1.438,0.32 -1.875,0.969 -0.43,0.644 -0.641,1.582 -0.641,2.812 0,1.227 0.211,2.164 0.641,2.813 0.437,0.644 1.062,0.968 1.875,0.968 z" /><path
         id="path332"
         style="fill:#000000;fill-opacity:1;fill-rule:nonzero;stroke:none"
         d="m 347.211,110.084 1.031,0 0,-0.828 -0.797,-1.563 -0.64,0 0.406,1.563 0,0.828 z" /><path
         id="path334"
         style="fill:#000000;fill-opacity:1;fill-rule:nonzero;stroke:none"
         d="m 353.246,112.787 c 0.469,-0.105 0.832,-0.32 1.094,-0.641 0.269,-0.312 0.406,-0.703 0.406,-1.172 0,-0.718 -0.25,-1.277 -0.75,-1.671 -0.492,-0.399 -1.195,-0.594 -2.109,-0.594 -0.305,0 -0.617,0.031 -0.938,0.094 -0.324,0.062 -0.656,0.148 -1,0.265 l 0,0.953 c 0.27,-0.156 0.567,-0.277 0.891,-0.359 0.332,-0.086 0.676,-0.125 1.031,-0.125 0.613,0 1.082,0.117 1.406,0.359 0.321,0.25 0.485,0.61 0.485,1.078 0,0.426 -0.153,0.758 -0.453,1 -0.305,0.239 -0.719,0.36 -1.25,0.36 l -0.86,0 0,0.812 0.891,0 c 0.488,0 0.859,0.098 1.109,0.297 0.258,0.196 0.391,0.477 0.391,0.844 0,0.363 -0.137,0.645 -0.406,0.844 -0.262,0.207 -0.637,0.312 -1.125,0.312 -0.274,0 -0.563,-0.031 -0.875,-0.094 -0.313,-0.054 -0.653,-0.14 -1.016,-0.265 l 0,0.875 c 0.375,0.101 0.723,0.18 1.047,0.234 0.332,0.051 0.64,0.078 0.922,0.078 0.75,0 1.343,-0.172 1.781,-0.515 0.437,-0.336 0.656,-0.793 0.656,-1.375 0,-0.407 -0.117,-0.75 -0.344,-1.032 -0.23,-0.273 -0.558,-0.46 -0.984,-0.562 z" /><path
         id="path336"
         style="fill:#000000;fill-opacity:1;fill-rule:nonzero;stroke:none"
         d="m 356.562,109.006 0,0.89 c 0.25,-0.117 0.5,-0.203 0.75,-0.265 0.258,-0.063 0.508,-0.094 0.75,-0.094 0.657,0 1.157,0.219 1.5,0.656 0.344,0.438 0.536,1.102 0.579,2 -0.188,-0.281 -0.43,-0.5 -0.719,-0.656 -0.281,-0.148 -0.602,-0.219 -0.953,-0.219 -0.731,0 -1.309,0.219 -1.735,0.656 -0.429,0.446 -0.64,1.051 -0.64,1.813 0,0.75 0.218,1.348 0.656,1.797 0.445,0.457 1.039,0.687 1.781,0.687 0.844,0 1.485,-0.324 1.922,-0.968 0.445,-0.649 0.672,-1.586 0.672,-2.813 0,-1.148 -0.273,-2.062 -0.813,-2.75 -0.542,-0.687 -1.277,-1.031 -2.203,-1.031 -0.25,0 -0.5,0.027 -0.75,0.078 -0.25,0.043 -0.515,0.113 -0.797,0.219 z m 1.969,3.093 c 0.438,0 0.785,0.149 1.047,0.454 0.258,0.3 0.391,0.711 0.391,1.234 0,0.531 -0.133,0.945 -0.391,1.25 -0.262,0.301 -0.609,0.453 -1.047,0.453 -0.449,0 -0.804,-0.152 -1.062,-0.453 -0.25,-0.305 -0.375,-0.719 -0.375,-1.25 0,-0.523 0.125,-0.934 0.375,-1.234 0.258,-0.305 0.613,-0.454 1.062,-0.454 z" /><path
         id="path338"
         style="fill:#000000;fill-opacity:1;fill-rule:nonzero;stroke:none"
         d="m 265.16,121.346 1.625,0 0,5.562 -1.765,-0.344 0,0.891 1.75,0.359 0.984,0 0,-6.468 1.609,0 0,-0.829 -4.203,0 0,0.829 z" /><path
         id="path340"
         style="fill:#000000;fill-opacity:1;fill-rule:nonzero;stroke:none"
         d="m 271.387,121.752 1.031,0 0,-0.828 -0.797,-1.563 -0.641,0 0.407,1.563 0,0.828 z" /><path
         id="path342"
         style="fill:#000000;fill-opacity:1;fill-rule:nonzero;stroke:none"
         d="m 276.656,124.549 c -0.437,0 -0.789,-0.153 -1.047,-0.453 -0.261,-0.305 -0.39,-0.715 -0.39,-1.235 0,-0.531 0.129,-0.949 0.39,-1.25 0.258,-0.304 0.61,-0.453 1.047,-0.453 0.446,0 0.797,0.149 1.047,0.453 0.258,0.301 0.391,0.719 0.391,1.25 0,0.52 -0.133,0.93 -0.391,1.235 -0.25,0.3 -0.601,0.453 -1.047,0.453 z m 1.969,3.093 0,-0.89 c -0.25,0.113 -0.508,0.203 -0.766,0.265 -0.25,0.063 -0.496,0.094 -0.734,0.094 -0.656,0 -1.156,-0.219 -1.5,-0.656 -0.344,-0.438 -0.539,-1.106 -0.578,-2 0.187,0.281 0.426,0.492 0.719,0.641 0.289,0.156 0.609,0.234 0.953,0.234 0.726,0 1.304,-0.227 1.734,-0.672 0.426,-0.437 0.641,-1.039 0.641,-1.797 0,-0.75 -0.227,-1.355 -0.672,-1.812 -0.438,-0.45 -1.027,-0.672 -1.766,-0.672 -0.844,0 -1.492,0.32 -1.937,0.969 -0.438,0.644 -0.657,1.582 -0.657,2.812 0,1.145 0.27,2.063 0.813,2.75 0.551,0.688 1.285,1.031 2.203,1.031 0.25,0 0.5,-0.027 0.75,-0.078 0.25,-0.043 0.516,-0.117 0.797,-0.219 z" /><path
         id="path344"
         style="fill:#000000;fill-opacity:1;fill-rule:nonzero;stroke:none"
         d="m 282.82,127.158 c -0.5,0 -0.882,-0.25 -1.14,-0.75 -0.25,-0.5 -0.375,-1.25 -0.375,-2.25 0,-1 0.125,-1.75 0.375,-2.25 0.258,-0.5 0.64,-0.75 1.14,-0.75 0.52,0 0.907,0.25 1.157,0.75 0.257,0.5 0.39,1.25 0.39,2.25 0,1 -0.133,1.75 -0.39,2.25 -0.25,0.5 -0.637,0.75 -1.157,0.75 z m 0,0.781 c 0.821,0 1.446,-0.324 1.875,-0.968 0.438,-0.649 0.657,-1.586 0.657,-2.813 0,-1.23 -0.219,-2.168 -0.657,-2.812 -0.429,-0.649 -1.054,-0.969 -1.875,-0.969 -0.812,0 -1.437,0.32 -1.875,0.969 -0.429,0.644 -0.64,1.582 -0.64,2.812 0,1.227 0.211,2.164 0.64,2.813 0.438,0.644 1.063,0.968 1.875,0.968 z" /><path
         id="path346"
         style="fill:#000000;fill-opacity:1;fill-rule:nonzero;stroke:none"
         d="m 107.68,121.346 1.625,0 0,5.562 -1.766,-0.344 0,0.891 1.75,0.359 0.984,0 0,-6.468 1.61,0 0,-0.829 -4.203,0 0,0.829 z" /><path
         id="path348"
         style="fill:#000000;fill-opacity:1;fill-rule:nonzero;stroke:none"
         d="m 113.906,121.752 1.032,0 0,-0.828 -0.797,-1.563 -0.641,0 0.406,1.563 0,0.828 z" /><path
         id="path350"
         style="fill:#000000;fill-opacity:1;fill-rule:nonzero;stroke:none"
         d="m 119.176,124.549 c -0.438,0 -0.789,-0.153 -1.047,-0.453 -0.262,-0.305 -0.391,-0.715 -0.391,-1.235 0,-0.531 0.129,-0.949 0.391,-1.25 0.258,-0.304 0.609,-0.453 1.047,-0.453 0.445,0 0.797,0.149 1.047,0.453 0.257,0.301 0.39,0.719 0.39,1.25 0,0.52 -0.133,0.93 -0.39,1.235 -0.25,0.3 -0.602,0.453 -1.047,0.453 z m 1.969,3.093 0,-0.89 c -0.25,0.113 -0.508,0.203 -0.766,0.265 -0.25,0.063 -0.496,0.094 -0.734,0.094 -0.657,0 -1.157,-0.219 -1.5,-0.656 -0.344,-0.438 -0.54,-1.106 -0.579,-2 0.188,0.281 0.426,0.492 0.719,0.641 0.289,0.156 0.61,0.234 0.953,0.234 0.727,0 1.305,-0.227 1.735,-0.672 0.425,-0.437 0.64,-1.039 0.64,-1.797 0,-0.75 -0.226,-1.355 -0.672,-1.812 -0.437,-0.45 -1.027,-0.672 -1.765,-0.672 -0.844,0 -1.492,0.32 -1.938,0.969 -0.437,0.644 -0.656,1.582 -0.656,2.812 0,1.145 0.27,2.063 0.813,2.75 0.55,0.688 1.285,1.031 2.203,1.031 0.25,0 0.5,-0.027 0.75,-0.078 0.25,-0.043 0.515,-0.117 0.797,-0.219 z" /><path
         id="path352"
         style="fill:#000000;fill-opacity:1;fill-rule:nonzero;stroke:none"
         d="m 126.23,124.455 c 0.469,-0.106 0.832,-0.32 1.094,-0.641 0.27,-0.312 0.406,-0.703 0.406,-1.172 0,-0.718 -0.25,-1.277 -0.75,-1.671 -0.492,-0.399 -1.195,-0.594 -2.109,-0.594 -0.305,0 -0.617,0.031 -0.937,0.094 -0.325,0.062 -0.657,0.148 -1,0.265 l 0,0.953 c 0.269,-0.156 0.566,-0.277 0.89,-0.359 0.332,-0.086 0.676,-0.125 1.031,-0.125 0.614,0 1.083,0.117 1.407,0.359 0.32,0.25 0.484,0.61 0.484,1.078 0,0.426 -0.152,0.758 -0.453,1 -0.305,0.239 -0.719,0.36 -1.25,0.36 l -0.859,0 0,0.812 0.89,0 c 0.488,0 0.86,0.098 1.11,0.297 0.257,0.196 0.39,0.477 0.39,0.844 0,0.363 -0.136,0.644 -0.406,0.844 -0.262,0.207 -0.637,0.312 -1.125,0.312 -0.273,0 -0.563,-0.031 -0.875,-0.094 -0.313,-0.054 -0.652,-0.14 -1.016,-0.265 l 0,0.875 c 0.375,0.101 0.723,0.18 1.047,0.234 0.332,0.051 0.641,0.078 0.922,0.078 0.75,0 1.344,-0.172 1.781,-0.515 0.438,-0.336 0.657,-0.793 0.657,-1.375 0,-0.407 -0.118,-0.75 -0.344,-1.032 -0.231,-0.273 -0.559,-0.46 -0.985,-0.562 z" /><path
         id="path354"
         style="fill:#000000;fill-opacity:1;fill-rule:nonzero;stroke:none"
         d="m 188.355,115.49 c -0.5,0 -0.882,-0.25 -1.14,-0.75 -0.25,-0.5 -0.375,-1.25 -0.375,-2.25 0,-1 0.125,-1.75 0.375,-2.25 0.258,-0.5 0.64,-0.75 1.14,-0.75 0.52,0 0.907,0.25 1.157,0.75 0.258,0.5 0.39,1.25 0.39,2.25 0,1 -0.132,1.75 -0.39,2.25 -0.25,0.5 -0.637,0.75 -1.157,0.75 z m 0,0.781 c 0.821,0 1.446,-0.324 1.875,-0.968 0.438,-0.649 0.657,-1.586 0.657,-2.813 0,-1.23 -0.219,-2.168 -0.657,-2.812 -0.429,-0.649 -1.054,-0.969 -1.875,-0.969 -0.812,0 -1.437,0.32 -1.875,0.969 -0.429,0.644 -0.64,1.582 -0.64,2.812 0,1.227 0.211,2.164 0.64,2.813 0.438,0.644 1.063,0.968 1.875,0.968 z" /><path
         id="path356"
         style="fill:#000000;fill-opacity:1;fill-rule:nonzero;stroke:none"
         d="m 192.645,110.084 1.031,0 0,-0.828 -0.797,-1.563 -0.641,0 0.407,1.563 0,0.828 z" /><path
         id="path358"
         style="fill:#000000;fill-opacity:1;fill-rule:nonzero;stroke:none"
         d="m 198.398,115.287 -2.484,-3.891 2.484,0 0,3.891 z m -0.265,0.859 1.25,0 0,-4.75 1.031,0 0,-0.828 -1.031,0 0,-1.719 -0.985,0 0,1.719 -3.296,0 0,0.953 3.031,4.625 z" /><path
         id="path360"
         style="fill:#000000;fill-opacity:1;fill-rule:nonzero;stroke:none"
         d="m 204.078,112.318 c -0.469,0 -0.84,-0.133 -1.109,-0.39 -0.262,-0.25 -0.391,-0.594 -0.391,-1.032 0,-0.437 0.129,-0.781 0.391,-1.031 0.269,-0.25 0.64,-0.375 1.109,-0.375 0.469,0 0.836,0.125 1.11,0.375 0.269,0.25 0.406,0.594 0.406,1.031 0,0.438 -0.137,0.782 -0.406,1.032 -0.262,0.257 -0.633,0.39 -1.11,0.39 z m -0.984,0.406 c -0.418,0.102 -0.746,0.301 -0.985,0.594 -0.242,0.289 -0.359,0.645 -0.359,1.063 0,0.582 0.207,1.039 0.625,1.375 0.414,0.343 0.984,0.515 1.703,0.515 0.727,0 1.301,-0.172 1.719,-0.515 0.414,-0.336 0.625,-0.793 0.625,-1.375 0,-0.418 -0.121,-0.774 -0.36,-1.063 -0.242,-0.293 -0.57,-0.492 -0.984,-0.594 0.477,-0.105 0.848,-0.32 1.11,-0.64 0.257,-0.324 0.39,-0.719 0.39,-1.188 0,-0.711 -0.215,-1.25 -0.64,-1.625 -0.43,-0.375 -1.047,-0.562 -1.86,-0.562 -0.805,0 -1.422,0.187 -1.859,0.562 -0.43,0.375 -0.641,0.914 -0.641,1.625 0,0.469 0.133,0.864 0.406,1.188 0.27,0.32 0.641,0.535 1.11,0.64 z m -0.36,1.563 c 0,-0.375 0.118,-0.672 0.36,-0.891 0.238,-0.211 0.566,-0.312 0.984,-0.312 0.426,0 0.758,0.101 1,0.312 0.238,0.219 0.36,0.516 0.36,0.891 0,0.375 -0.122,0.664 -0.36,0.875 -0.242,0.219 -0.574,0.328 -1,0.328 -0.418,0 -0.746,-0.109 -0.984,-0.328 -0.242,-0.211 -0.36,-0.5 -0.36,-0.875 z" /><path
         id="path362"
         style="fill:#000000;fill-opacity:1;fill-rule:nonzero;stroke:none"
         d="m 29.625,109.678 3.437,0 0,-0.829 -4.624,0 0,0.829 c 0.374,0.382 0.882,0.906 1.531,1.562 0.644,0.656 1.051,1.078 1.219,1.266 0.312,0.351 0.531,0.648 0.656,0.89 0.125,0.25 0.187,0.493 0.187,0.735 0,0.383 -0.136,0.695 -0.406,0.937 -0.273,0.25 -0.625,0.375 -1.063,0.375 -0.312,0 -0.64,-0.058 -0.984,-0.172 -0.336,-0.105 -0.699,-0.265 -1.094,-0.484 l 0,1 c 0.395,0.156 0.766,0.273 1.11,0.359 0.344,0.082 0.66,0.125 0.953,0.125 0.75,0 1.348,-0.187 1.797,-0.562 0.457,-0.375 0.687,-0.883 0.687,-1.516 0,-0.304 -0.058,-0.59 -0.172,-0.859 -0.117,-0.262 -0.32,-0.574 -0.609,-0.938 -0.086,-0.093 -0.344,-0.371 -0.781,-0.828 -0.438,-0.449 -1.055,-1.078 -1.844,-1.89 z" /><path
         id="path364"
         style="fill:#000000;fill-opacity:1;fill-rule:nonzero;stroke:none"
         d="m 35.164,110.084 1.031,0 0,-0.828 -0.797,-1.563 -0.64,0 0.406,1.563 0,0.828 z" /><path
         id="path366"
         style="fill:#000000;fill-opacity:1;fill-rule:nonzero;stroke:none"
         d="m 38.215,116.146 3.875,0 0,-0.843 -2.969,0 0,-1.782 c 0.145,0.051 0.285,0.086 0.422,0.11 0.145,0.019 0.289,0.031 0.437,0.031 0.813,0 1.454,-0.227 1.922,-0.672 0.477,-0.437 0.719,-1.039 0.719,-1.797 0,-0.793 -0.246,-1.406 -0.734,-1.844 -0.481,-0.429 -1.168,-0.64 -2.063,-0.64 -0.304,0 -0.617,0.027 -0.937,0.078 -0.313,0.055 -0.641,0.129 -0.985,0.234 l 0,0.985 c 0.301,-0.157 0.61,-0.278 0.922,-0.36 0.313,-0.074 0.641,-0.109 0.985,-0.109 0.562,0 1.003,0.145 1.328,0.437 0.332,0.301 0.5,0.708 0.5,1.219 0,0.5 -0.168,0.895 -0.5,1.188 -0.325,0.301 -0.766,0.453 -1.328,0.453 -0.262,0 -0.528,-0.031 -0.797,-0.094 -0.262,-0.055 -0.528,-0.141 -0.797,-0.266 l 0,3.672 z" /><path
         id="path368"
         style="fill:#000000;fill-opacity:1;fill-rule:nonzero;stroke:none"
         d="m 46.598,112.318 c -0.469,0 -0.84,-0.133 -1.11,-0.39 -0.261,-0.25 -0.39,-0.594 -0.39,-1.032 0,-0.437 0.129,-0.781 0.39,-1.031 0.27,-0.25 0.641,-0.375 1.11,-0.375 0.468,0 0.836,0.125 1.109,0.375 0.27,0.25 0.406,0.594 0.406,1.031 0,0.438 -0.136,0.782 -0.406,1.032 -0.262,0.257 -0.633,0.39 -1.109,0.39 z m -0.985,0.406 c -0.418,0.102 -0.746,0.301 -0.984,0.594 -0.242,0.289 -0.359,0.645 -0.359,1.063 0,0.582 0.207,1.039 0.625,1.375 0.414,0.343 0.984,0.515 1.703,0.515 0.726,0 1.3,-0.172 1.718,-0.515 0.414,-0.336 0.625,-0.793 0.625,-1.375 0,-0.418 -0.121,-0.774 -0.359,-1.063 -0.242,-0.293 -0.57,-0.492 -0.984,-0.594 0.476,-0.105 0.847,-0.32 1.109,-0.64 0.258,-0.324 0.391,-0.719 0.391,-1.188 0,-0.711 -0.215,-1.25 -0.641,-1.625 -0.43,-0.375 -1.047,-0.562 -1.859,-0.562 -0.805,0 -1.422,0.187 -1.86,0.562 -0.429,0.375 -0.64,0.914 -0.64,1.625 0,0.469 0.132,0.864 0.406,1.188 0.269,0.32 0.641,0.535 1.109,0.64 z m -0.359,1.563 c 0,-0.375 0.117,-0.672 0.359,-0.891 0.239,-0.211 0.567,-0.312 0.985,-0.312 0.425,0 0.757,0.101 1,0.312 0.238,0.219 0.359,0.516 0.359,0.891 0,0.375 -0.121,0.664 -0.359,0.875 -0.243,0.219 -0.575,0.328 -1,0.328 -0.418,0 -0.746,-0.109 -0.985,-0.328 -0.242,-0.211 -0.359,-0.5 -0.359,-0.875 z" /></g></g></svg>