<?xml version="1.0" encoding="UTF-8" standalone="no"?>
<svg
   xmlns:dc="http://purl.org/dc/elements/1.1/"
   xmlns:cc="http://creativecommons.org/ns#"
   xmlns:rdf="http://www.w3.org/1999/02/22-rdf-syntax-ns#"
   xmlns:svg="http://www.w3.org/2000/svg"
   xmlns="http://www.w3.org/2000/svg"
   viewBox="0 0 1335.1907 249.951"
   height="249.951"
   width="1335.1907"
   xml:space="preserve"
   version="1.1"
   id="svg2"><metadata
     id="metadata8"><rdf:RDF><cc:Work
         rdf:about=""><dc:format>image/svg+xml</dc:format><dc:type
           rdf:resource="http://purl.org/dc/dcmitype/StillImage" /></cc:Work></rdf:RDF></metadata><defs
     id="defs6" /><g
     transform="matrix(1.25,0,0,-1.25,0,249.951)"
     id="g10"><g
       id="g12"><g
         transform="matrix(1,0,0,-1,0,199.9608)"
         id="g14"><path
           id="path16"
           style="fill:#ffffff;fill-opacity:1;fill-rule:nonzero;stroke:#000000;stroke-width:1.8096;stroke-linecap:butt;stroke-linejoin:miter;stroke-miterlimit:4;stroke-dasharray:none;stroke-opacity:1"
           d="m 190.254,36.191 162.863,0 0,162.863 -162.863,0 0,-162.863 z" /></g><path
         id="path18"
         style="fill:#000000;fill-opacity:1;fill-rule:nonzero;stroke:none"
         d="m 387.5,147.484 3.617,0 0,-3.621 -3.617,0 0,3.621 z" /><g
         transform="matrix(1,0,0,-1,0,199.9608)"
         id="g20"><path
           id="path22"
           style="fill:none;stroke:#000000;stroke-width:3.61919999;stroke-linecap:square;stroke-linejoin:miter;stroke-miterlimit:10;stroke-dasharray:none;stroke-opacity:1"
           d="m 354.926,54.289 32.574,0" /></g><path
         id="path24"
         style="fill:#000000;fill-opacity:1;fill-rule:nonzero;stroke:none"
         d="m 152.25,147.484 3.621,0 0,-3.621 -3.621,0 0,3.621 z" /><g
         transform="matrix(1,0,0,-1,0,199.9608)"
         id="g26"><path
           id="path28"
           style="fill:none;stroke:#000000;stroke-width:3.61919999;stroke-linecap:square;stroke-linejoin:miter;stroke-miterlimit:10;stroke-dasharray:none;stroke-opacity:1"
           d="m 155.871,54.289 32.57,0" /></g><path
         id="path30"
         style="fill:#000000;fill-opacity:1;fill-rule:nonzero;stroke:none"
         d="m 387.5,20.812 3.617,0 0,-3.621 -3.617,0 0,3.621 z" /><g
         transform="matrix(1,0,0,-1,0,199.9608)"
         id="g32"><path
           id="path34"
           style="fill:none;stroke:#000000;stroke-width:3.61919999;stroke-linecap:square;stroke-linejoin:miter;stroke-miterlimit:10;stroke-dasharray:none;stroke-opacity:1"
           d="m 354.926,180.961 32.574,0" /></g><path
         id="path36"
         style="fill:#000000;fill-opacity:1;fill-rule:nonzero;stroke:none"
         d="m 152.25,20.812 3.621,0 0,-3.621 -3.621,0 0,3.621 z" /><g
         transform="matrix(1,0,0,-1,0,199.9608)"
         id="g38"><path
           id="path40"
           style="fill:none;stroke:#000000;stroke-width:3.61919999;stroke-linecap:square;stroke-linejoin:miter;stroke-miterlimit:10;stroke-dasharray:none;stroke-opacity:1"
           d="m 155.871,180.961 32.57,0" /></g><path
         id="path42"
         style="fill:#000000;fill-opacity:1;fill-rule:nonzero;stroke:none"
         d="m 272.109,181.863 -3.156,0 -1.469,4.969 c -0.031,0.094 -0.074,0.219 -0.125,0.375 -0.043,0.164 -0.093,0.348 -0.156,0.547 -0.055,0.207 -0.109,0.422 -0.172,0.64 -0.062,0.219 -0.121,0.43 -0.172,0.641 -0.054,0.207 -0.101,0.395 -0.14,0.563 -0.031,0.175 -0.055,0.316 -0.063,0.421 -0.054,-0.199 -0.133,-0.453 -0.234,-0.765 -0.094,-0.313 -0.199,-0.641 -0.313,-0.985 -0.117,-0.336 -0.234,-0.664 -0.359,-0.984 -0.117,-0.324 -0.215,-0.594 -0.297,-0.812 l -1.969,-4.61 -3.187,0 5.094,10.813 -0.282,0.781 c -0.187,0.488 -0.367,0.906 -0.531,1.25 -0.156,0.344 -0.312,0.625 -0.469,0.844 -0.148,0.218 -0.308,0.375 -0.484,0.468 -0.168,0.102 -0.367,0.157 -0.594,0.157 -0.148,0 -0.32,-0.024 -0.515,-0.063 -0.188,-0.043 -0.352,-0.09 -0.485,-0.14 l -0.515,2.078 c 0.218,0.082 0.504,0.156 0.859,0.218 0.352,0.071 0.734,0.11 1.141,0.11 0.582,0 1.082,-0.078 1.5,-0.235 0.414,-0.156 0.781,-0.402 1.093,-0.734 0.321,-0.324 0.61,-0.742 0.86,-1.25 0.258,-0.512 0.508,-1.117 0.75,-1.812 l 4.39,-12.485 z" /><path
         id="path44"
         style="fill:#000000;fill-opacity:1;fill-rule:nonzero;stroke:none"
         d="m 272.512,181.426 3.125,16.375 2.547,0 -3.063,-16.375 -2.609,0 z" /><path
         id="path46"
         style="fill:#000000;fill-opacity:1;fill-rule:nonzero;stroke:none"
         d="m 289.879,186.129 c 0,-0.656 -0.109,-1.262 -0.328,-1.813 -0.211,-0.543 -0.539,-1.011 -0.985,-1.406 -0.449,-0.398 -1.011,-0.711 -1.687,-0.937 -0.68,-0.219 -1.484,-0.329 -2.422,-0.329 -0.937,0 -1.75,0.11 -2.437,0.329 -0.68,0.226 -1.243,0.539 -1.688,0.937 -0.449,0.395 -0.781,0.863 -1,1.406 -0.211,0.551 -0.312,1.149 -0.312,1.797 0,0.551 0.082,1.035 0.25,1.453 0.175,0.426 0.406,0.789 0.687,1.094 0.289,0.313 0.617,0.563 0.984,0.75 0.375,0.188 0.758,0.313 1.157,0.375 l 0,0.031 c -0.43,0.094 -0.809,0.25 -1.141,0.469 -0.336,0.219 -0.621,0.473 -0.859,0.766 -0.243,0.3 -0.422,0.632 -0.547,1 -0.125,0.375 -0.188,0.765 -0.188,1.172 0,0.593 0.11,1.132 0.328,1.625 0.219,0.5 0.536,0.925 0.954,1.281 0.425,0.351 0.953,0.625 1.578,0.812 0.632,0.188 1.363,0.282 2.187,0.282 0.875,0 1.629,-0.102 2.266,-0.297 0.644,-0.2 1.176,-0.477 1.594,-0.828 0.414,-0.356 0.722,-0.782 0.921,-1.282 0.207,-0.492 0.313,-1.031 0.313,-1.625 0,-0.386 -0.063,-0.765 -0.188,-1.14 -0.125,-0.368 -0.308,-0.7 -0.546,-1 -0.243,-0.305 -0.532,-0.559 -0.875,-0.766 -0.336,-0.211 -0.715,-0.355 -1.141,-0.437 l 0,-0.047 c 0.437,-0.075 0.848,-0.203 1.234,-0.391 0.383,-0.187 0.719,-0.437 1,-0.75 0.282,-0.305 0.5,-0.668 0.657,-1.094 0.156,-0.418 0.234,-0.898 0.234,-1.437 z m -3.484,6.906 c 0,0.301 -0.032,0.578 -0.094,0.828 -0.063,0.258 -0.172,0.477 -0.328,0.656 -0.149,0.188 -0.352,0.332 -0.61,0.438 -0.25,0.101 -0.57,0.156 -0.953,0.156 -0.375,0 -0.687,-0.055 -0.937,-0.156 -0.25,-0.106 -0.453,-0.25 -0.61,-0.438 -0.148,-0.179 -0.25,-0.398 -0.312,-0.656 -0.063,-0.25 -0.094,-0.527 -0.094,-0.828 0,-0.262 0.023,-0.523 0.078,-0.781 0.051,-0.262 0.149,-0.496 0.297,-0.703 0.145,-0.2 0.344,-0.368 0.594,-0.5 0.258,-0.125 0.594,-0.188 1,-0.188 0.426,0 0.769,0.063 1.031,0.188 0.27,0.132 0.473,0.304 0.609,0.515 0.133,0.207 0.223,0.438 0.266,0.688 0.039,0.258 0.063,0.519 0.063,0.781 z m 0.359,-6.656 c 0,0.301 -0.039,0.594 -0.109,0.875 -0.063,0.289 -0.184,0.547 -0.36,0.765 -0.18,0.219 -0.422,0.395 -0.734,0.532 -0.305,0.132 -0.696,0.203 -1.172,0.203 -0.43,0 -0.789,-0.071 -1.078,-0.203 -0.281,-0.137 -0.512,-0.313 -0.688,-0.532 -0.179,-0.218 -0.308,-0.476 -0.39,-0.765 -0.075,-0.293 -0.11,-0.602 -0.11,-0.922 0,-0.375 0.035,-0.727 0.11,-1.047 0.082,-0.312 0.211,-0.586 0.39,-0.812 0.188,-0.219 0.43,-0.391 0.735,-0.516 0.3,-0.125 0.675,-0.188 1.125,-0.188 0.445,0 0.816,0.063 1.109,0.188 0.301,0.125 0.535,0.301 0.703,0.531 0.176,0.227 0.297,0.504 0.36,0.828 0.07,0.321 0.109,0.676 0.109,1.063 z" /><path
         id="path48"
         style="fill:#000000;fill-opacity:1;fill-rule:nonzero;stroke:none"
         d="m 274.531,73.289 -12.156,0 0,2.25 8.187,10.406 -7.374,0 0,2.485 10.89,0 0,-2.204 -8.187,-10.453 8.64,0 0,-2.484 z" /><path
         id="path50"
         style="fill:#000000;fill-opacity:1;fill-rule:nonzero;stroke:none"
         d="m 276.383,73.289 0,2.25 3.75,0 0,10.312 -3.641,-2.265 0,2.375 3.797,2.469 2.859,0 0,-12.891 3.469,0 0,-2.25 -10.234,0 z" /><path
         id="path52"
         style="fill:#000000;fill-opacity:1;fill-rule:nonzero;stroke:none"
         d="m 97.961,129.387 3.621,0 0,-3.621 -3.621,0 0,3.621 z" /><path
         id="path54"
         style="fill:#000000;fill-opacity:1;fill-rule:nonzero;stroke:none"
         d="m 97.961,38.906 3.621,0 0,-3.617 -3.621,0 0,3.617 z" /><g
         transform="matrix(1,0,0,-1,0,199.9608)"
         id="g56"><path
           id="path58"
           style="fill:none;stroke:#000000;stroke-width:3.61919999;stroke-linecap:round;stroke-linejoin:miter;stroke-miterlimit:10;stroke-dasharray:none;stroke-opacity:1"
           d="m 79.867,110.387 39.813,0" /></g><g
         transform="matrix(1,0,0,-1,0,199.9608)"
         id="g60"><path
           id="path62"
           style="fill:none;stroke:#000000;stroke-width:3.61919999;stroke-linecap:round;stroke-linejoin:miter;stroke-miterlimit:10;stroke-dasharray:none;stroke-opacity:1"
           d="m 79.867,124.863 39.813,0" /></g><g
         transform="matrix(1,0,0,-1,0,199.9608)"
         id="g64"><path
           id="path66"
           style="fill:none;stroke:#000000;stroke-width:3.61919999;stroke-linecap:square;stroke-linejoin:miter;stroke-miterlimit:10;stroke-dasharray:none;stroke-opacity:1"
           d="m 99.773,74.195 0,34.379" /></g><g
         transform="matrix(1,0,0,-1,0,199.9608)"
         id="g68"><path
           id="path70"
           style="fill:none;stroke:#000000;stroke-width:3.61919999;stroke-linecap:square;stroke-linejoin:miter;stroke-miterlimit:10;stroke-dasharray:none;stroke-opacity:1"
           d="m 99.773,126.672 0,34.383" /></g><path
         id="path72"
         style="fill:#000000;fill-opacity:1;fill-rule:nonzero;stroke:none"
         d="m 9.164,73.289 0,2.25 3.75,0 0,10.312 -3.641,-2.265 0,2.375 3.797,2.469 2.86,0 0,-12.891 3.468,0 0,-2.25 -10.234,0 z" /><path
         id="path74"
         style="fill:#000000;fill-opacity:1;fill-rule:nonzero;stroke:none"
         d="m 26.102,72.851 3.125,16.375 2.546,0 -3.062,-16.375 -2.609,0 z" /><path
         id="path76"
         style="fill:#000000;fill-opacity:1;fill-rule:nonzero;stroke:none"
         d="m 50.742,73.289 -12.156,0 0,2.25 8.187,10.406 -7.375,0 0,2.485 10.891,0 0,-2.204 -8.187,-10.453 8.64,0 0,-2.484 z" /><path
         id="path78"
         style="fill:#000000;fill-opacity:1;fill-rule:nonzero;stroke:none"
         d="m 51.969,73.289 0,2.094 c 0.343,0.75 0.758,1.425 1.25,2.031 0.5,0.601 1.019,1.156 1.562,1.656 0.539,0.508 1.078,0.985 1.61,1.422 0.531,0.438 1.007,0.852 1.437,1.25 0.426,0.406 0.77,0.813 1.031,1.219 0.27,0.414 0.407,0.851 0.407,1.312 0,0.664 -0.172,1.16 -0.516,1.485 -0.336,0.32 -0.828,0.484 -1.484,0.484 -0.637,0 -1.125,-0.18 -1.469,-0.531 -0.344,-0.344 -0.563,-0.86 -0.656,-1.547 l -3.047,0.172 c 0.07,0.594 0.218,1.148 0.437,1.672 0.227,0.519 0.547,0.976 0.953,1.375 0.414,0.394 0.93,0.703 1.547,0.922 0.625,0.226 1.364,0.343 2.219,0.343 0.812,0 1.531,-0.093 2.156,-0.281 0.633,-0.187 1.164,-0.465 1.594,-0.828 0.438,-0.367 0.766,-0.813 0.984,-1.344 0.227,-0.523 0.344,-1.121 0.344,-1.797 0,-0.711 -0.14,-1.351 -0.422,-1.922 -0.281,-0.574 -0.64,-1.105 -1.078,-1.593 -0.437,-0.481 -0.922,-0.934 -1.453,-1.36 -0.531,-0.418 -1.055,-0.828 -1.563,-1.234 -0.5,-0.399 -0.96,-0.797 -1.374,-1.203 -0.407,-0.406 -0.711,-0.844 -0.907,-1.313 l 7.031,0 0,-2.484 -10.593,0 z" /><path
         id="path80"
         style="fill:#000000;fill-opacity:1;fill-rule:nonzero;stroke:none"
         d="m 25.578,20.812 3.621,0 0,-3.621 -3.621,0 0,3.621 z" /><g
         transform="matrix(0,1,1,0,0,199.9608)"
         id="g82"><path
           id="path84"
           style="fill:#ffffff;fill-opacity:1;fill-rule:nonzero;stroke:#000000;stroke-width:3.61919999;stroke-linecap:butt;stroke-linejoin:miter;stroke-miterlimit:4;stroke-dasharray:none;stroke-opacity:1"
           d="m -173.477,9.293 c 0,4.133 -3.351,7.48 -7.484,7.48 -4.133,0 -7.48,-3.347 -7.48,-7.48 0,-4.133 3.347,-7.484 7.48,-7.484 4.133,0 7.484,3.351 7.484,7.484 z" /></g><g
         transform="matrix(0,1,1,0,0,199.9608)"
         id="g86"><path
           id="path88"
           style="fill:none;stroke:#000000;stroke-width:3.61919999;stroke-linecap:square;stroke-linejoin:miter;stroke-miterlimit:10;stroke-dasharray:none;stroke-opacity:1"
           d="m -180.961,18.34 0,7.238" /></g><path
         id="path90"
         style="fill:#000000;fill-opacity:1;fill-rule:nonzero;stroke:none"
         d="m 25.578,147.484 3.621,0 0,-3.621 -3.621,0 0,3.621 z" /><g
         transform="matrix(0,1,1,0,0,199.9608)"
         id="g92"><path
           id="path94"
           style="fill:#ffffff;fill-opacity:1;fill-rule:nonzero;stroke:#000000;stroke-width:3.61919999;stroke-linecap:butt;stroke-linejoin:miter;stroke-miterlimit:4;stroke-dasharray:none;stroke-opacity:1"
           d="m -46.805,9.293 c 0,4.133 -3.351,7.48 -7.484,7.48 -4.133,0 -7.481,-3.347 -7.481,-7.48 0,-4.133 3.348,-7.484 7.481,-7.484 4.133,0 7.484,3.351 7.484,7.484 z" /></g><g
         transform="matrix(0,1,1,0,0,199.9608)"
         id="g96"><path
           id="path98"
           style="fill:none;stroke:#000000;stroke-width:3.61919999;stroke-linecap:square;stroke-linejoin:miter;stroke-miterlimit:10;stroke-dasharray:none;stroke-opacity:1"
           d="m -54.289,18.34 0,7.238" /></g><g
         transform="matrix(1,0,0,-1,0,199.9608)"
         id="g100"><path
           id="path102"
           style="fill:none;stroke:#000000;stroke-width:3.61919999;stroke-linecap:butt;stroke-linejoin:miter;stroke-miterlimit:10;stroke-dasharray:none;stroke-opacity:1"
           d="m 27.387,180.961 126.672,0" /></g><g
         transform="matrix(1,0,0,-1,0,199.9608)"
         id="g104"><path
           id="path106"
           style="fill:none;stroke:#000000;stroke-width:3.61919999;stroke-linecap:butt;stroke-linejoin:miter;stroke-miterlimit:10;stroke-dasharray:none;stroke-opacity:1"
           d="m 27.387,54.289 126.672,0" /></g><g
         transform="matrix(1,0,0,-1,0,199.9608)"
         id="g108"><path
           id="path110"
           style="fill:none;stroke:#000000;stroke-width:3.61919999;stroke-linecap:butt;stroke-linejoin:miter;stroke-miterlimit:10;stroke-dasharray:none;stroke-opacity:1"
           d="m 99.773,72.383 0,-14.477" /></g><g
         transform="matrix(1,0,0,-1,0,199.9608)"
         id="g112"><path
           id="path114"
           style="fill:#000000;fill-opacity:1;fill-rule:nonzero;stroke:#000000;stroke-width:3.61919999;stroke-linecap:butt;stroke-linejoin:miter;stroke-miterlimit:4;stroke-dasharray:none;stroke-opacity:1"
           d="m 103.391,54.289 c 0,1.996 -1.621,3.617 -3.618,3.617 -2,0 -3.621,-1.621 -3.621,-3.617 0,-2 1.621,-3.621 3.621,-3.621 1.997,0 3.618,1.621 3.618,3.621 z" /></g><g
         transform="matrix(1,0,0,-1,0,199.9608)"
         id="g116"><path
           id="path118"
           style="fill:none;stroke:#000000;stroke-width:3.61919999;stroke-linecap:butt;stroke-linejoin:miter;stroke-miterlimit:10;stroke-dasharray:none;stroke-opacity:1"
           d="m 99.773,162.863 0,14.477" /></g><g
         transform="matrix(1,0,0,-1,0,199.9608)"
         id="g120"><path
           id="path122"
           style="fill:#000000;fill-opacity:1;fill-rule:nonzero;stroke:#000000;stroke-width:3.61919999;stroke-linecap:butt;stroke-linejoin:miter;stroke-miterlimit:4;stroke-dasharray:none;stroke-opacity:1"
           d="m 103.391,180.961 c 0,1.996 -1.621,3.617 -3.618,3.617 -2,0 -3.621,-1.621 -3.621,-3.617 0,-2 1.621,-3.621 3.621,-3.621 1.997,0 3.618,1.621 3.618,3.621 z" /></g><path
         id="path124"
         style="fill:#000000;fill-opacity:1;fill-rule:nonzero;stroke:none"
         d="m 387.5,20.808 3.617,0 0,-3.617 -3.617,0 0,3.617 z" /><g
         transform="matrix(0,-1,-1,0,0,199.9608)"
         id="g126"><path
           id="path128"
           style="fill:#ffffff;fill-opacity:1;fill-rule:nonzero;stroke:#000000;stroke-width:3.61919999;stroke-linecap:butt;stroke-linejoin:miter;stroke-miterlimit:4;stroke-dasharray:none;stroke-opacity:1"
           d="m 188.441,-407.402 c 0,4.129 -3.347,7.48 -7.48,7.48 -4.133,0 -7.484,-3.351 -7.484,-7.48 0,-4.133 3.351,-7.485 7.484,-7.485 4.133,0 7.48,3.352 7.48,7.485 z" /></g><g
         transform="matrix(0,-1,-1,0,0,199.9608)"
         id="g130"><path
           id="path132"
           style="fill:none;stroke:#000000;stroke-width:3.61919999;stroke-linecap:square;stroke-linejoin:miter;stroke-miterlimit:10;stroke-dasharray:none;stroke-opacity:1"
           d="m 180.961,-398.355 0,7.238" /></g><path
         id="path134"
         style="fill:#000000;fill-opacity:1;fill-rule:nonzero;stroke:none"
         d="m 488.492,180.961 0,6.515 c 0,0.457 -0.039,0.875 -0.109,1.25 -0.063,0.375 -0.18,0.692 -0.344,0.954 -0.168,0.269 -0.387,0.476 -0.656,0.625 -0.262,0.156 -0.578,0.234 -0.953,0.234 -0.368,0 -0.7,-0.086 -1,-0.25 -0.305,-0.156 -0.563,-0.387 -0.782,-0.688 -0.21,-0.293 -0.371,-0.648 -0.484,-1.062 -0.117,-0.406 -0.172,-0.856 -0.172,-1.344 l 0,-6.234 -3.031,0 0,9.031 c 0,0.25 0,0.504 0,0.766 0,0.257 -0.008,0.507 -0.016,0.75 -0.011,0.25 -0.023,0.468 -0.031,0.656 -0.012,0.187 -0.023,0.328 -0.031,0.422 l 2.875,0 c 0.008,-0.086 0.019,-0.227 0.031,-0.422 0.02,-0.188 0.035,-0.399 0.047,-0.625 0.019,-0.231 0.035,-0.461 0.047,-0.688 0.008,-0.23 0.015,-0.421 0.015,-0.578 l 0.047,0 c 0.407,0.883 0.914,1.524 1.532,1.922 0.613,0.406 1.347,0.61 2.203,0.61 0.695,0 1.285,-0.118 1.765,-0.344 0.489,-0.231 0.883,-0.547 1.188,-0.953 0.312,-0.399 0.535,-0.868 0.672,-1.407 0.133,-0.543 0.203,-1.132 0.203,-1.765 l 0,-7.375 -3.016,0 z" /><path
         id="path136"
         style="fill:#000000;fill-opacity:1;fill-rule:nonzero;stroke:none"
         d="m 493.266,188.414 -0.016,1.297 c 0.176,0.383 0.398,0.719 0.672,1 0.269,0.289 0.555,0.551 0.859,0.781 0.301,0.227 0.598,0.441 0.891,0.641 0.301,0.195 0.57,0.382 0.812,0.562 0.239,0.188 0.43,0.379 0.578,0.578 0.157,0.196 0.235,0.422 0.235,0.672 0,0.289 -0.074,0.524 -0.219,0.703 -0.137,0.176 -0.351,0.266 -0.64,0.266 -0.618,0 -0.961,-0.352 -1.032,-1.047 l -2.078,0.047 c 0.039,0.332 0.141,0.641 0.297,0.922 0.156,0.289 0.359,0.539 0.609,0.75 0.258,0.219 0.571,0.383 0.938,0.5 0.363,0.125 0.785,0.187 1.266,0.187 0.5,0 0.937,-0.058 1.312,-0.172 0.383,-0.117 0.695,-0.273 0.938,-0.468 0.25,-0.2 0.429,-0.438 0.546,-0.719 0.125,-0.274 0.188,-0.57 0.188,-0.891 0,-0.375 -0.078,-0.711 -0.234,-1 -0.157,-0.281 -0.36,-0.539 -0.61,-0.765 -0.242,-0.231 -0.512,-0.446 -0.812,-0.641 -0.293,-0.187 -0.578,-0.375 -0.86,-0.562 -0.273,-0.18 -0.523,-0.36 -0.75,-0.547 -0.218,-0.188 -0.383,-0.391 -0.484,-0.61 l 3.89,0 0,-1.484 -6.296,0 z" /><path
         id="path138"
         style="fill:#000000;fill-opacity:1;fill-rule:nonzero;stroke:none"
         d="m 500.863,190.008 0,2.39 11.047,0 0,-2.39 -11.047,0 z m 0,-5.922 0,2.375 11.047,0 0,-2.375 -11.047,0 z" /><path
         id="path140"
         style="fill:#000000;fill-opacity:1;fill-rule:nonzero;stroke:none"
         d="m 514.027,180.961 0,2.25 3.75,0 0,10.312 -3.64,-2.265 0,2.375 3.797,2.468 2.859,0 0,-12.89 3.469,0 0,-2.25 -10.235,0 z" /><path
         id="path142"
         style="fill:#000000;fill-opacity:1;fill-rule:nonzero;stroke:none"
         d="m 532.363,187.07 0,-4.375 -2.437,0 0,4.375 -4.281,0 0,2.406 4.281,0 0,4.391 2.437,0 0,-4.391 4.313,0 0,-2.406 -4.313,0 z" /><path
         id="path144"
         style="fill:#000000;fill-opacity:1;fill-rule:nonzero;stroke:none"
         d="m 550.219,180.961 -12.157,0 0,2.25 8.188,10.406 -7.375,0 0,2.484 10.891,0 0,-2.203 -8.188,-10.453 8.641,0 0,-2.484 z" /><path
         id="path146"
         style="fill:#000000;fill-opacity:1;fill-rule:nonzero;stroke:none"
         d="m 551.445,180.961 0,2.094 c 0.344,0.75 0.758,1.425 1.25,2.031 0.5,0.601 1.02,1.156 1.563,1.656 0.539,0.508 1.078,0.984 1.609,1.422 0.531,0.437 1.008,0.851 1.438,1.25 0.425,0.406 0.769,0.812 1.031,1.219 0.269,0.414 0.406,0.851 0.406,1.312 0,0.664 -0.172,1.16 -0.515,1.485 -0.336,0.32 -0.829,0.484 -1.485,0.484 -0.637,0 -1.125,-0.18 -1.469,-0.531 -0.343,-0.344 -0.562,-0.86 -0.656,-1.547 l -3.047,0.172 c 0.071,0.593 0.219,1.148 0.438,1.672 0.226,0.519 0.547,0.976 0.953,1.375 0.414,0.394 0.93,0.703 1.547,0.921 0.625,0.227 1.363,0.344 2.219,0.344 0.812,0 1.531,-0.094 2.156,-0.281 0.633,-0.188 1.164,-0.465 1.594,-0.828 0.437,-0.367 0.765,-0.813 0.984,-1.344 0.227,-0.523 0.344,-1.121 0.344,-1.797 0,-0.711 -0.141,-1.351 -0.422,-1.922 -0.281,-0.574 -0.641,-1.105 -1.078,-1.593 -0.438,-0.481 -0.922,-0.934 -1.453,-1.36 -0.532,-0.418 -1.055,-0.828 -1.563,-1.234 -0.5,-0.399 -0.961,-0.797 -1.375,-1.203 -0.406,-0.407 -0.711,-0.844 -0.906,-1.313 l 7.031,0 0,-2.484 -10.594,0 z" /><path
         id="path148"
         style="fill:#000000;fill-opacity:1;fill-rule:nonzero;stroke:none"
         d="m 562.988,180.523 3.125,16.375 2.547,0 -3.062,-16.375 -2.61,0 z" /><path
         id="path150"
         style="fill:#000000;fill-opacity:1;fill-rule:nonzero;stroke:none"
         d="m 581.602,180.961 -12.157,0 0,2.25 8.188,10.406 -7.375,0 0,2.484 10.89,0 0,-2.203 -8.187,-10.453 8.641,0 0,-2.484 z" /><path
         id="path152"
         style="fill:#000000;fill-opacity:1;fill-rule:nonzero;stroke:none"
         d="m 583.457,180.961 0,2.25 3.75,0 0,10.312 -3.641,-2.265 0,2.375 3.797,2.468 2.86,0 0,-12.89 3.468,0 0,-2.25 -10.234,0 z" /><path
         id="path154"
         style="fill:#000000;fill-opacity:1;fill-rule:nonzero;stroke:none"
         d="m 387.5,147.484 3.617,0 0,-3.621 -3.617,0 0,3.621 z" /><g
         transform="matrix(0,-1,-1,0,0,199.9608)"
         id="g156"><path
           id="path158"
           style="fill:#ffffff;fill-opacity:1;fill-rule:nonzero;stroke:#000000;stroke-width:3.61919999;stroke-linecap:butt;stroke-linejoin:miter;stroke-miterlimit:4;stroke-dasharray:none;stroke-opacity:1"
           d="m 61.77,-407.402 c 0,4.129 -3.348,7.48 -7.481,7.48 -4.133,0 -7.484,-3.351 -7.484,-7.48 0,-4.133 3.351,-7.485 7.484,-7.485 4.133,0 7.481,3.352 7.481,7.485 z" /></g><g
         transform="matrix(0,-1,-1,0,0,199.9608)"
         id="g160"><path
           id="path162"
           style="fill:none;stroke:#000000;stroke-width:3.61919999;stroke-linecap:square;stroke-linejoin:miter;stroke-miterlimit:10;stroke-dasharray:none;stroke-opacity:1"
           d="m 54.289,-398.355 0,7.238" /></g><g
         transform="matrix(1,0,0,-1,0,199.9608)"
         id="g164"><path
           id="path166"
           style="fill:#ffffff;fill-opacity:1;fill-rule:nonzero;stroke:#000000;stroke-width:1.8096;stroke-linecap:butt;stroke-linejoin:miter;stroke-miterlimit:4;stroke-dasharray:none;stroke-opacity:1"
           d="m 715.035,36.191 162.863,0 0,162.863 -162.863,0 0,-162.863 z" /></g><path
         id="path168"
         style="fill:#000000;fill-opacity:1;fill-rule:nonzero;stroke:none"
         d="m 912.281,147.484 3.621,0 0,-3.621 -3.621,0 0,3.621 z" /><g
         transform="matrix(1,0,0,-1,0,199.9608)"
         id="g170"><path
           id="path172"
           style="fill:none;stroke:#000000;stroke-width:3.61919999;stroke-linecap:square;stroke-linejoin:miter;stroke-miterlimit:10;stroke-dasharray:none;stroke-opacity:1"
           d="m 879.711,54.289 32.57,0" /></g><path
         id="path174"
         style="fill:#000000;fill-opacity:1;fill-rule:nonzero;stroke:none"
         d="m 677.035,147.484 3.617,0 0,-3.621 -3.617,0 0,3.621 z" /><g
         transform="matrix(1,0,0,-1,0,199.9608)"
         id="g176"><path
           id="path178"
           style="fill:none;stroke:#000000;stroke-width:3.61919999;stroke-linecap:square;stroke-linejoin:miter;stroke-miterlimit:10;stroke-dasharray:none;stroke-opacity:1"
           d="m 680.652,54.289 32.575,0" /></g><path
         id="path180"
         style="fill:#000000;fill-opacity:1;fill-rule:nonzero;stroke:none"
         d="m 912.281,20.812 3.621,0 0,-3.621 -3.621,0 0,3.621 z" /><g
         transform="matrix(1,0,0,-1,0,199.9608)"
         id="g182"><path
           id="path184"
           style="fill:none;stroke:#000000;stroke-width:3.61919999;stroke-linecap:square;stroke-linejoin:miter;stroke-miterlimit:10;stroke-dasharray:none;stroke-opacity:1"
           d="m 879.711,180.961 32.57,0" /></g><path
         id="path186"
         style="fill:#000000;fill-opacity:1;fill-rule:nonzero;stroke:none"
         d="m 677.035,20.812 3.617,0 0,-3.621 -3.617,0 0,3.621 z" /><g
         transform="matrix(1,0,0,-1,0,199.9608)"
         id="g188"><path
           id="path190"
           style="fill:none;stroke:#000000;stroke-width:3.61919999;stroke-linecap:square;stroke-linejoin:miter;stroke-miterlimit:10;stroke-dasharray:none;stroke-opacity:1"
           d="m 680.652,180.961 32.575,0" /></g><path
         id="path192"
         style="fill:#000000;fill-opacity:1;fill-rule:nonzero;stroke:none"
         d="m 796.895,181.863 -3.157,0 -1.468,4.969 c -0.032,0.094 -0.075,0.219 -0.125,0.375 -0.043,0.164 -0.094,0.348 -0.157,0.547 -0.054,0.207 -0.109,0.422 -0.172,0.64 -0.062,0.219 -0.121,0.43 -0.171,0.641 -0.055,0.207 -0.102,0.395 -0.141,0.563 -0.031,0.175 -0.055,0.316 -0.063,0.421 -0.054,-0.199 -0.132,-0.453 -0.234,-0.765 -0.094,-0.313 -0.199,-0.641 -0.312,-0.985 -0.118,-0.336 -0.235,-0.664 -0.36,-0.984 -0.117,-0.324 -0.215,-0.594 -0.297,-0.812 l -1.968,-4.61 -3.188,0 5.094,10.813 -0.281,0.781 c -0.188,0.488 -0.368,0.906 -0.532,1.25 -0.156,0.344 -0.312,0.625 -0.468,0.844 -0.149,0.218 -0.309,0.375 -0.485,0.468 -0.168,0.102 -0.367,0.157 -0.594,0.157 -0.148,0 -0.32,-0.024 -0.515,-0.063 -0.188,-0.043 -0.352,-0.09 -0.485,-0.14 l -0.515,2.078 c 0.219,0.082 0.504,0.156 0.859,0.218 0.352,0.071 0.735,0.11 1.141,0.11 0.582,0 1.082,-0.078 1.5,-0.235 0.414,-0.156 0.781,-0.402 1.094,-0.734 0.32,-0.324 0.609,-0.742 0.859,-1.25 0.258,-0.512 0.508,-1.117 0.75,-1.812 l 4.391,-12.485 z" /><path
         id="path194"
         style="fill:#000000;fill-opacity:1;fill-rule:nonzero;stroke:none"
         d="m 797.297,181.426 3.125,16.375 2.547,0 -3.063,-16.375 -2.609,0 z" /><path
         id="path196"
         style="fill:#000000;fill-opacity:1;fill-rule:nonzero;stroke:none"
         d="m 814.66,186.129 c 0,-0.656 -0.109,-1.262 -0.328,-1.813 -0.211,-0.543 -0.539,-1.011 -0.984,-1.406 -0.45,-0.398 -1.012,-0.711 -1.688,-0.937 -0.68,-0.219 -1.484,-0.329 -2.422,-0.329 -0.937,0 -1.75,0.11 -2.437,0.329 -0.68,0.226 -1.242,0.539 -1.688,0.937 -0.449,0.395 -0.781,0.863 -1,1.406 -0.211,0.551 -0.312,1.149 -0.312,1.797 0,0.551 0.082,1.035 0.25,1.453 0.176,0.426 0.406,0.789 0.687,1.094 0.289,0.313 0.617,0.563 0.985,0.75 0.375,0.188 0.757,0.313 1.156,0.375 l 0,0.031 c -0.43,0.094 -0.809,0.25 -1.141,0.469 -0.336,0.219 -0.621,0.473 -0.859,0.766 -0.242,0.3 -0.422,0.632 -0.547,1 -0.125,0.375 -0.187,0.765 -0.187,1.172 0,0.593 0.109,1.132 0.328,1.625 0.218,0.5 0.535,0.925 0.953,1.281 0.426,0.351 0.953,0.625 1.578,0.812 0.633,0.188 1.363,0.282 2.187,0.282 0.875,0 1.629,-0.102 2.266,-0.297 0.645,-0.2 1.176,-0.477 1.594,-0.828 0.414,-0.356 0.722,-0.782 0.922,-1.282 0.207,-0.492 0.312,-1.031 0.312,-1.625 0,-0.386 -0.062,-0.765 -0.187,-1.14 -0.125,-0.368 -0.309,-0.7 -0.547,-1 -0.242,-0.305 -0.531,-0.559 -0.875,-0.766 -0.336,-0.211 -0.715,-0.355 -1.141,-0.437 l 0,-0.047 c 0.438,-0.075 0.848,-0.203 1.235,-0.391 0.382,-0.187 0.718,-0.437 1,-0.75 0.281,-0.305 0.5,-0.668 0.656,-1.094 0.156,-0.418 0.234,-0.898 0.234,-1.437 z m -3.484,6.906 c 0,0.301 -0.031,0.578 -0.094,0.828 -0.062,0.258 -0.172,0.477 -0.328,0.656 -0.149,0.188 -0.352,0.332 -0.609,0.438 -0.25,0.101 -0.571,0.156 -0.954,0.156 -0.375,0 -0.687,-0.055 -0.937,-0.156 -0.25,-0.106 -0.453,-0.25 -0.609,-0.438 -0.149,-0.179 -0.25,-0.398 -0.313,-0.656 -0.062,-0.25 -0.094,-0.527 -0.094,-0.828 0,-0.262 0.024,-0.523 0.078,-0.781 0.051,-0.262 0.149,-0.496 0.297,-0.703 0.145,-0.2 0.344,-0.368 0.594,-0.5 0.258,-0.125 0.594,-0.188 1,-0.188 0.426,0 0.77,0.063 1.031,0.188 0.27,0.132 0.473,0.304 0.61,0.515 0.132,0.207 0.222,0.438 0.265,0.688 0.039,0.258 0.063,0.519 0.063,0.781 z m 0.359,-6.656 c 0,0.301 -0.039,0.594 -0.109,0.875 -0.063,0.289 -0.184,0.547 -0.36,0.765 -0.179,0.219 -0.421,0.395 -0.734,0.532 -0.305,0.132 -0.695,0.203 -1.172,0.203 -0.43,0 -0.789,-0.071 -1.078,-0.203 -0.281,-0.137 -0.512,-0.313 -0.687,-0.532 -0.18,-0.218 -0.309,-0.476 -0.391,-0.765 -0.074,-0.293 -0.109,-0.602 -0.109,-0.922 0,-0.375 0.035,-0.727 0.109,-1.047 0.082,-0.312 0.211,-0.586 0.391,-0.812 0.187,-0.219 0.429,-0.391 0.734,-0.516 0.301,-0.125 0.676,-0.188 1.125,-0.188 0.445,0 0.816,0.063 1.109,0.188 0.301,0.125 0.535,0.301 0.703,0.531 0.176,0.227 0.297,0.504 0.36,0.828 0.07,0.321 0.109,0.676 0.109,1.063 z" /><path
         id="path198"
         style="fill:#000000;fill-opacity:1;fill-rule:nonzero;stroke:none"
         d="m 779.113,73.289 -12.156,0 0,2.25 8.188,10.406 -7.375,0 0,2.485 10.89,0 0,-2.204 -8.187,-10.453 8.64,0 0,-2.484 z" /><path
         id="path200"
         style="fill:#000000;fill-opacity:1;fill-rule:nonzero;stroke:none"
         d="m 780.34,73.289 0,2.094 c 0.344,0.75 0.758,1.425 1.25,2.031 0.5,0.601 1.019,1.156 1.562,1.656 0.539,0.508 1.078,0.985 1.61,1.422 0.531,0.438 1.008,0.852 1.437,1.25 0.426,0.406 0.77,0.813 1.031,1.219 0.27,0.414 0.407,0.851 0.407,1.312 0,0.664 -0.172,1.16 -0.516,1.485 -0.336,0.32 -0.828,0.484 -1.484,0.484 -0.637,0 -1.125,-0.18 -1.469,-0.531 -0.344,-0.344 -0.563,-0.86 -0.656,-1.547 l -3.047,0.172 c 0.07,0.594 0.219,1.148 0.437,1.672 0.227,0.519 0.547,0.976 0.953,1.375 0.415,0.394 0.93,0.703 1.547,0.922 0.625,0.226 1.364,0.343 2.219,0.343 0.813,0 1.531,-0.093 2.156,-0.281 0.633,-0.187 1.164,-0.465 1.594,-0.828 0.438,-0.367 0.766,-0.813 0.984,-1.344 0.227,-0.523 0.344,-1.121 0.344,-1.797 0,-0.711 -0.14,-1.351 -0.422,-1.922 -0.281,-0.574 -0.64,-1.105 -1.078,-1.593 -0.437,-0.481 -0.922,-0.934 -1.453,-1.36 -0.531,-0.418 -1.055,-0.828 -1.562,-1.234 -0.5,-0.399 -0.961,-0.797 -1.375,-1.203 -0.407,-0.406 -0.711,-0.844 -0.907,-1.313 l 7.032,0 0,-2.484 -10.594,0 z" /><path
         id="path202"
         style="fill:#000000;fill-opacity:1;fill-rule:nonzero;stroke:none"
         d="m 797.902,72.851 3.125,16.375 2.547,0 -3.062,-16.375 -2.61,0 z" /><path
         id="path204"
         style="fill:#000000;fill-opacity:1;fill-rule:nonzero;stroke:none"
         d="m 818.793,73.289 0,6.516 c 0,0.457 -0.039,0.875 -0.109,1.25 -0.063,0.375 -0.18,0.691 -0.344,0.953 -0.168,0.269 -0.387,0.476 -0.656,0.625 -0.262,0.156 -0.579,0.234 -0.954,0.234 -0.367,0 -0.699,-0.086 -1,-0.25 -0.304,-0.156 -0.562,-0.387 -0.781,-0.687 -0.211,-0.293 -0.371,-0.649 -0.484,-1.063 -0.117,-0.406 -0.172,-0.855 -0.172,-1.344 l 0,-6.234 -3.031,0 0,9.031 c 0,0.25 0,0.504 0,0.766 0,0.258 -0.008,0.508 -0.016,0.75 -0.012,0.25 -0.023,0.469 -0.031,0.656 -0.012,0.188 -0.024,0.328 -0.031,0.422 l 2.875,0 c 0.007,-0.086 0.019,-0.227 0.031,-0.422 0.019,-0.187 0.035,-0.398 0.047,-0.625 0.019,-0.23 0.035,-0.461 0.047,-0.687 0.007,-0.231 0.015,-0.422 0.015,-0.579 l 0.047,0 c 0.406,0.883 0.914,1.524 1.531,1.922 0.614,0.407 1.348,0.61 2.203,0.61 0.696,0 1.286,-0.118 1.766,-0.344 0.488,-0.231 0.883,-0.547 1.188,-0.953 0.312,-0.399 0.535,-0.867 0.671,-1.406 0.133,-0.543 0.204,-1.133 0.204,-1.766 l 0,-7.375 -3.016,0 z" /><path
         id="path206"
         style="fill:#000000;fill-opacity:1;fill-rule:nonzero;stroke:none"
         d="m 823.566,80.742 -0.015,1.297 c 0.176,0.383 0.398,0.719 0.672,1 0.269,0.289 0.554,0.551 0.859,0.781 0.301,0.227 0.598,0.442 0.891,0.641 0.3,0.195 0.57,0.383 0.812,0.562 0.238,0.188 0.43,0.379 0.578,0.578 0.157,0.196 0.235,0.422 0.235,0.672 0,0.289 -0.075,0.524 -0.219,0.703 -0.137,0.176 -0.352,0.266 -0.641,0.266 -0.617,0 -0.961,-0.352 -1.031,-1.047 l -2.078,0.047 c 0.039,0.332 0.141,0.641 0.297,0.922 0.156,0.289 0.359,0.539 0.609,0.75 0.258,0.219 0.57,0.383 0.938,0.5 0.363,0.125 0.785,0.187 1.265,0.187 0.5,0 0.938,-0.058 1.313,-0.171 0.383,-0.118 0.695,-0.274 0.937,-0.469 0.25,-0.199 0.43,-0.438 0.547,-0.719 0.125,-0.273 0.188,-0.57 0.188,-0.891 0,-0.375 -0.078,-0.711 -0.235,-1 -0.156,-0.281 -0.359,-0.539 -0.609,-0.765 -0.242,-0.231 -0.512,-0.446 -0.813,-0.641 -0.293,-0.187 -0.578,-0.375 -0.859,-0.562 -0.273,-0.18 -0.523,-0.36 -0.75,-0.547 -0.219,-0.188 -0.383,-0.391 -0.484,-0.61 l 3.89,0 0,-1.484 -6.297,0 z" /><path
         id="path208"
         style="fill:#000000;fill-opacity:1;fill-rule:nonzero;stroke:none"
         d="m 677.035,147.484 3.617,0 0,-3.621 -3.617,0 0,3.621 z" /><g
         transform="matrix(0,1,1,0,0,199.9608)"
         id="g210"><path
           id="path212"
           style="fill:#ffffff;fill-opacity:1;fill-rule:nonzero;stroke:#000000;stroke-width:3.61919999;stroke-linecap:butt;stroke-linejoin:miter;stroke-miterlimit:4;stroke-dasharray:none;stroke-opacity:1"
           d="m -46.805,660.75 c 0,4.133 -3.351,7.48 -7.484,7.48 -4.133,0 -7.481,-3.347 -7.481,-7.48 0,-4.133 3.348,-7.484 7.481,-7.484 4.133,0 7.484,3.351 7.484,7.484 z" /></g><g
         transform="matrix(0,1,1,0,0,199.9608)"
         id="g214"><path
           id="path216"
           style="fill:none;stroke:#000000;stroke-width:3.61919999;stroke-linecap:square;stroke-linejoin:miter;stroke-miterlimit:10;stroke-dasharray:none;stroke-opacity:1"
           d="m -54.289,669.797 0,7.238" /></g><path
         id="path218"
         style="fill:#000000;fill-opacity:1;fill-rule:nonzero;stroke:none"
         d="m 677.035,20.812 3.617,0 0,-3.621 -3.617,0 0,3.621 z" /><g
         transform="matrix(0,1,1,0,0,199.9608)"
         id="g220"><path
           id="path222"
           style="fill:#ffffff;fill-opacity:1;fill-rule:nonzero;stroke:#000000;stroke-width:3.61919999;stroke-linecap:butt;stroke-linejoin:miter;stroke-miterlimit:4;stroke-dasharray:none;stroke-opacity:1"
           d="m -173.477,660.75 c 0,4.133 -3.351,7.48 -7.484,7.48 -4.133,0 -7.48,-3.347 -7.48,-7.48 0,-4.133 3.347,-7.484 7.48,-7.484 4.133,0 7.484,3.351 7.484,7.484 z" /></g><g
         transform="matrix(0,1,1,0,0,199.9608)"
         id="g224"><path
           id="path226"
           style="fill:none;stroke:#000000;stroke-width:3.61919999;stroke-linecap:square;stroke-linejoin:miter;stroke-miterlimit:10;stroke-dasharray:none;stroke-opacity:1"
           d="m -180.961,669.797 0,7.238" /></g><path
         id="path228"
         style="fill:#000000;fill-opacity:1;fill-rule:nonzero;stroke:none"
         d="m 1020.859,147.484 3.617,0 0,-3.621 -3.617,0 0,3.621 z" /><path
         id="path230"
         style="fill:#000000;fill-opacity:1;fill-rule:nonzero;stroke:none"
         d="m 912.281,147.484 3.621,0 0,-3.621 -3.621,0 0,3.621 z" /><g
         transform="matrix(0,-1,-1,0,0,199.9608)"
         id="g232"><path
           id="path234"
           style="fill:none;stroke:#000000;stroke-width:3.61919999;stroke-linecap:round;stroke-linejoin:round;stroke-miterlimit:10;stroke-dasharray:none;stroke-opacity:1"
           d="m 50.914,-986.477 c -5.48,0.016 -9.934,-4.023 -9.949,-9.019 -0.02,-4.996 4.414,-9.063 9.89,-9.078 l 0.028,0" /></g><g
         transform="matrix(0,-1,-1,0,0,199.9608)"
         id="g236"><path
           id="path238"
           style="fill:none;stroke:#000000;stroke-width:3.61919999;stroke-linecap:round;stroke-linejoin:round;stroke-miterlimit:10;stroke-dasharray:none;stroke-opacity:1"
           d="m 50.668,-1004.574 3.621,0" /></g><g
         transform="matrix(0,-1,-1,0,0,199.9608)"
         id="g240"><path
           id="path242"
           style="fill:none;stroke:#000000;stroke-width:3.61919999;stroke-linecap:round;stroke-linejoin:round;stroke-miterlimit:10;stroke-dasharray:none;stroke-opacity:1"
           d="m 50.668,-986.477 3.621,0" /></g><g
         transform="matrix(0,-1,-1,0,0,199.9608)"
         id="g244"><path
           id="path246"
           style="fill:none;stroke:#000000;stroke-width:3.61919999;stroke-linecap:round;stroke-linejoin:round;stroke-miterlimit:10;stroke-dasharray:none;stroke-opacity:1"
           d="m 50.914,-968.379 c -5.48,0.012 -9.934,-4.023 -9.949,-9.023 -0.02,-4.996 4.414,-9.059 9.89,-9.075 l 0.028,0" /></g><g
         transform="matrix(0,-1,-1,0,0,199.9608)"
         id="g248"><path
           id="path250"
           style="fill:none;stroke:#000000;stroke-width:3.61919999;stroke-linecap:round;stroke-linejoin:round;stroke-miterlimit:10;stroke-dasharray:none;stroke-opacity:1"
           d="m 50.668,-986.477 3.621,0" /></g><g
         transform="matrix(0,-1,-1,0,0,199.9608)"
         id="g252"><path
           id="path254"
           style="fill:none;stroke:#000000;stroke-width:3.61919999;stroke-linecap:round;stroke-linejoin:round;stroke-miterlimit:10;stroke-dasharray:none;stroke-opacity:1"
           d="m 50.668,-968.379 3.621,0" /></g><g
         transform="matrix(0,-1,-1,0,0,199.9608)"
         id="g256"><path
           id="path258"
           style="fill:none;stroke:#000000;stroke-width:3.61919999;stroke-linecap:round;stroke-linejoin:round;stroke-miterlimit:10;stroke-dasharray:none;stroke-opacity:1"
           d="m 50.914,-950.285 c -5.48,0.015 -9.934,-4.024 -9.949,-9.02 -0.02,-4.996 4.414,-9.062 9.89,-9.074 l 0.028,0" /></g><g
         transform="matrix(0,-1,-1,0,0,199.9608)"
         id="g260"><path
           id="path262"
           style="fill:none;stroke:#000000;stroke-width:3.61919999;stroke-linecap:round;stroke-linejoin:round;stroke-miterlimit:10;stroke-dasharray:none;stroke-opacity:1"
           d="m 50.668,-968.379 3.621,0" /></g><g
         transform="matrix(0,-1,-1,0,0,199.9608)"
         id="g264"><path
           id="path266"
           style="fill:none;stroke:#000000;stroke-width:3.61919999;stroke-linecap:round;stroke-linejoin:round;stroke-miterlimit:10;stroke-dasharray:none;stroke-opacity:1"
           d="m 50.668,-950.285 3.621,0" /></g><g
         transform="matrix(0,-1,-1,0,0,199.9608)"
         id="g268"><path
           id="path270"
           style="fill:none;stroke:#000000;stroke-width:3.61919999;stroke-linecap:round;stroke-linejoin:round;stroke-miterlimit:10;stroke-dasharray:none;stroke-opacity:1"
           d="m 50.914,-932.188 c -5.48,0.012 -9.934,-4.023 -9.949,-9.019 -0.02,-5 4.414,-9.063 9.89,-9.078 l 0.028,0" /></g><g
         transform="matrix(0,-1,-1,0,0,199.9608)"
         id="g272"><path
           id="path274"
           style="fill:none;stroke:#000000;stroke-width:3.61919999;stroke-linecap:round;stroke-linejoin:round;stroke-miterlimit:10;stroke-dasharray:none;stroke-opacity:1"
           d="m 50.668,-950.285 3.621,0" /></g><g
         transform="matrix(0,-1,-1,0,0,199.9608)"
         id="g276"><path
           id="path278"
           style="fill:none;stroke:#000000;stroke-width:3.61919999;stroke-linecap:round;stroke-linejoin:round;stroke-miterlimit:10;stroke-dasharray:none;stroke-opacity:1"
           d="m 50.668,-932.188 3.621,0" /></g><g
         transform="matrix(0,-1,-1,0,0,199.9608)"
         id="g280"><path
           id="path282"
           style="fill:none;stroke:#000000;stroke-width:3.61919999;stroke-linecap:square;stroke-linejoin:miter;stroke-miterlimit:10;stroke-dasharray:none;stroke-opacity:1"
           d="m 54.289,-1020.859 0,14.476" /></g><g
         transform="matrix(0,-1,-1,0,0,199.9608)"
         id="g284"><path
           id="path286"
           style="fill:none;stroke:#000000;stroke-width:3.61919999;stroke-linecap:square;stroke-linejoin:miter;stroke-miterlimit:10;stroke-dasharray:none;stroke-opacity:1"
           d="m 54.289,-930.379 0,14.477" /></g><path
         id="path288"
         style="fill:#000000;fill-opacity:1;fill-rule:nonzero;stroke:none"
         d="m 960.07,109.48 -12.156,0 0,2.25 8.188,10.407 -7.375,0 0,2.484 10.89,0 0,-2.203 -8.187,-10.453 8.64,0 0,-2.485 z" /><path
         id="path290"
         style="fill:#000000;fill-opacity:1;fill-rule:nonzero;stroke:none"
         d="m 961.926,109.48 0,2.25 3.75,0 0,10.313 -3.641,-2.266 0,2.375 3.797,2.469 2.859,0 0,-12.891 3.469,0 0,-2.25 -10.234,0 z" /><path
         id="path292"
         style="fill:#000000;fill-opacity:1;fill-rule:nonzero;stroke:none"
         d="m 978.863,109.043 3.125,16.375 2.547,0 -3.062,-16.375 -2.61,0 z" /><path
         id="path294"
         style="fill:#000000;fill-opacity:1;fill-rule:nonzero;stroke:none"
         d="m 999.75,109.48 0,6.516 c 0,0.457 -0.039,0.875 -0.109,1.25 -0.063,0.375 -0.18,0.691 -0.344,0.953 -0.168,0.27 -0.387,0.477 -0.656,0.625 -0.262,0.156 -0.579,0.234 -0.953,0.234 -0.368,0 -0.7,-0.085 -1,-0.25 -0.305,-0.156 -0.563,-0.386 -0.782,-0.687 -0.211,-0.293 -0.371,-0.648 -0.484,-1.063 -0.117,-0.406 -0.172,-0.855 -0.172,-1.343 l 0,-6.235 -3.031,0 0,9.032 c 0,0.25 0,0.503 0,0.765 0,0.258 -0.008,0.508 -0.016,0.75 -0.012,0.25 -0.023,0.469 -0.031,0.656 -0.012,0.188 -0.024,0.329 -0.031,0.422 l 2.875,0 c 0.007,-0.086 0.019,-0.226 0.031,-0.422 0.019,-0.187 0.035,-0.398 0.047,-0.625 0.019,-0.23 0.035,-0.46 0.047,-0.687 0.007,-0.231 0.015,-0.422 0.015,-0.578 l 0.047,0 c 0.406,0.883 0.914,1.523 1.531,1.922 0.614,0.406 1.348,0.609 2.204,0.609 0.695,0 1.285,-0.117 1.765,-0.344 0.488,-0.23 0.883,-0.547 1.188,-0.953 0.312,-0.398 0.535,-0.867 0.671,-1.406 0.133,-0.543 0.204,-1.133 0.204,-1.766 l 0,-7.375 -3.016,0 z" /><path
         id="path296"
         style="fill:#000000;fill-opacity:1;fill-rule:nonzero;stroke:none"
         d="m 1004.527,116.933 -0.015,1.297 c 0.176,0.383 0.398,0.719 0.672,1 0.269,0.289 0.554,0.551 0.859,0.782 0.301,0.226 0.598,0.441 0.891,0.64 0.3,0.196 0.57,0.383 0.812,0.563 0.238,0.187 0.43,0.379 0.578,0.578 0.156,0.195 0.235,0.422 0.235,0.672 0,0.289 -0.075,0.523 -0.219,0.703 -0.137,0.176 -0.352,0.265 -0.641,0.265 -0.617,0 -0.961,-0.351 -1.031,-1.046 l -2.078,0.046 c 0.039,0.332 0.14,0.641 0.297,0.922 0.156,0.289 0.359,0.539 0.609,0.75 0.258,0.219 0.57,0.383 0.938,0.5 0.363,0.125 0.785,0.188 1.265,0.188 0.5,0 0.938,-0.059 1.313,-0.172 0.383,-0.117 0.695,-0.273 0.937,-0.469 0.25,-0.199 0.43,-0.437 0.547,-0.719 0.125,-0.273 0.188,-0.57 0.188,-0.89 0,-0.375 -0.079,-0.711 -0.235,-1 -0.156,-0.281 -0.359,-0.539 -0.609,-0.766 -0.242,-0.23 -0.512,-0.445 -0.813,-0.64 -0.293,-0.188 -0.578,-0.375 -0.859,-0.563 -0.273,-0.18 -0.523,-0.359 -0.75,-0.547 -0.219,-0.187 -0.383,-0.39 -0.484,-0.609 l 3.89,0 0,-1.485 -6.297,0 z" /><path
         id="path298"
         style="fill:#000000;fill-opacity:1;fill-rule:nonzero;stroke:none"
         d="m 1038.953,147.484 3.621,0 0,-3.621 -3.621,0 0,3.621 z" /><g
         transform="matrix(0,-1,-1,0,0,199.9608)"
         id="g300"><path
           id="path302"
           style="fill:#ffffff;fill-opacity:1;fill-rule:nonzero;stroke:#000000;stroke-width:3.61919999;stroke-linecap:butt;stroke-linejoin:miter;stroke-miterlimit:4;stroke-dasharray:none;stroke-opacity:1"
           d="m 61.77,-1058.859 c 0,4.132 -3.348,7.48 -7.481,7.48 -4.133,0 -7.484,-3.348 -7.484,-7.48 0,-4.133 3.351,-7.485 7.484,-7.485 4.133,0 7.481,3.352 7.481,7.485 z" /></g><g
         transform="matrix(0,-1,-1,0,0,199.9608)"
         id="g304"><path
           id="path306"
           style="fill:none;stroke:#000000;stroke-width:3.61919999;stroke-linecap:square;stroke-linejoin:miter;stroke-miterlimit:10;stroke-dasharray:none;stroke-opacity:1"
           d="m 54.289,-1049.812 0,7.238" /></g><path
         id="path308"
         style="fill:#000000;fill-opacity:1;fill-rule:nonzero;stroke:none"
         d="m 1038.953,20.812 3.621,0 0,-3.621 -3.621,0 0,3.621 z" /><g
         transform="matrix(0,-1,-1,0,0,199.9608)"
         id="g310"><path
           id="path312"
           style="fill:#ffffff;fill-opacity:1;fill-rule:nonzero;stroke:#000000;stroke-width:3.61919999;stroke-linecap:butt;stroke-linejoin:miter;stroke-miterlimit:4;stroke-dasharray:none;stroke-opacity:1"
           d="m 188.441,-1058.859 c 0,4.132 -3.347,7.48 -7.48,7.48 -4.133,0 -7.484,-3.348 -7.484,-7.48 0,-4.133 3.351,-7.485 7.484,-7.485 4.133,0 7.48,3.352 7.48,7.485 z" /></g><g
         transform="matrix(0,-1,-1,0,0,199.9608)"
         id="g314"><path
           id="path316"
           style="fill:none;stroke:#000000;stroke-width:3.61919999;stroke-linecap:square;stroke-linejoin:miter;stroke-miterlimit:10;stroke-dasharray:none;stroke-opacity:1"
           d="m 180.961,-1049.812 0,7.238" /></g><g
         transform="matrix(1,0,0,-1,0,199.9608)"
         id="g318"><path
           id="path320"
           style="fill:none;stroke:#000000;stroke-width:3.61919999;stroke-linecap:butt;stroke-linejoin:miter;stroke-miterlimit:10;stroke-dasharray:none;stroke-opacity:1"
           d="m 914.094,180.961 126.672,0" /></g><g
         transform="matrix(1,0,0,-1,0,199.9608)"
         id="g322"><path
           id="path324"
           style="fill:none;stroke:#000000;stroke-width:3.61919999;stroke-linecap:butt;stroke-linejoin:miter;stroke-miterlimit:10;stroke-dasharray:none;stroke-opacity:1"
           d="m 1040.766,54.289 -18.098,0" /></g><g
         transform="matrix(1,0,0,-1,0,199.9608)"
         id="g326"><path
           id="path328"
           style="fill:none;stroke:#000000;stroke-width:3.61919999;stroke-linecap:butt;stroke-linejoin:miter;stroke-miterlimit:10;stroke-dasharray:none;stroke-opacity:1"
           d="m 510.07,126.672 48.012,0" /></g><g
         transform="matrix(1,0,0,-1,0,199.9608)"
         id="g330"><path
           id="path332"
           style="fill:#000000;fill-opacity:1;fill-rule:nonzero;stroke:#000000;stroke-width:3.61919999;stroke-linecap:butt;stroke-linejoin:miter;stroke-miterlimit:10;stroke-dasharray:none;stroke-opacity:1"
           d="m 501.93,126.672 10.855,-5.43 -2.715,5.43 2.715,5.43 -10.855,-5.43 z" /></g><g
         transform="matrix(1,0,0,-1,0,199.9608)"
         id="g334"><path
           id="path336"
           style="fill:#000000;fill-opacity:1;fill-rule:nonzero;stroke:#000000;stroke-width:3.61919999;stroke-linecap:butt;stroke-linejoin:miter;stroke-miterlimit:10;stroke-dasharray:none;stroke-opacity:1"
           d="m 566.223,126.672 -10.856,5.43 2.715,-5.43 -2.715,-5.43 10.856,5.43 z" /></g></g></g></svg>