<?xml version="1.0" encoding="UTF-8" standalone="no"?>
<svg
   xmlns:dc="http://purl.org/dc/elements/1.1/"
   xmlns:cc="http://creativecommons.org/ns#"
   xmlns:rdf="http://www.w3.org/1999/02/22-rdf-syntax-ns#"
   xmlns:svg="http://www.w3.org/2000/svg"
   xmlns="http://www.w3.org/2000/svg"
   viewBox="0 0 673.22839 177.16536"
   height="177.16536"
   width="673.22839"
   xml:space="preserve"
   version="1.1"
   id="svg2"><metadata
     id="metadata8"><rdf:RDF><cc:Work
         rdf:about=""><dc:format>image/svg+xml</dc:format><dc:type
           rdf:resource="http://purl.org/dc/dcmitype/StillImage" /></cc:Work></rdf:RDF></metadata><defs
     id="defs6" /><g
     transform="matrix(1.25,0,0,-1.25,0,177.16536)"
     id="g10"><g
       id="g12"><g
         transform="matrix(1,0,0,-1,0,141.73228)"
         id="g14"><path
           id="path16"
           style="fill:#ffffff;fill-opacity:1;fill-rule:nonzero;stroke:#000000;stroke-width:1.42482197;stroke-linecap:butt;stroke-linejoin:miter;stroke-miterlimit:4;stroke-dasharray:none;stroke-opacity:1"
           d="m 106.863,39.449 56.992,0 0,56.992 -56.992,0 0,-56.992 z" /></g><g
         transform="matrix(1,0,0,-1,0,141.73228)"
         id="g18"><path
           id="path20"
           style="fill:none;stroke:#000000;stroke-width:1.42482197;stroke-linecap:butt;stroke-linejoin:miter;stroke-miterlimit:4;stroke-dasharray:none;stroke-opacity:1"
           d="m 163.855,50.848 11.399,0" /></g><g
         transform="matrix(1,0,0,-1,0,141.73228)"
         id="g22"><path
           id="path24"
           style="fill:none;stroke:#000000;stroke-width:1.42482197;stroke-linecap:butt;stroke-linejoin:miter;stroke-miterlimit:4;stroke-dasharray:none;stroke-opacity:1"
           d="m 163.855,85.043 11.399,0" /></g><g
         transform="matrix(1,0,0,-1,0,141.73228)"
         id="g26"><path
           id="path28"
           style="fill:none;stroke:#000000;stroke-width:1.42482197;stroke-linecap:butt;stroke-linejoin:miter;stroke-miterlimit:4;stroke-dasharray:none;stroke-opacity:1"
           d="m 106.863,50.848 -11.398,0" /></g><g
         transform="matrix(1,0,0,-1,0,141.73228)"
         id="g30"><path
           id="path32"
           style="fill:none;stroke:#000000;stroke-width:1.42482197;stroke-linecap:butt;stroke-linejoin:miter;stroke-miterlimit:4;stroke-dasharray:none;stroke-opacity:1"
           d="m 106.863,85.043 -11.398,0" /></g><g
         transform="matrix(1,0,0,-1,0,141.73228)"
         id="g34"><path
           id="path36"
           style="fill:none;stroke:#000000;stroke-width:1.42482197;stroke-linecap:butt;stroke-linejoin:miter;stroke-miterlimit:4;stroke-dasharray:none;stroke-opacity:1"
           d="m 175.254,85.043 188.074,0" /></g><g
         transform="matrix(1,0,0,-1,0,141.73228)"
         id="g38"><path
           id="path40"
           style="fill:none;stroke:#000000;stroke-width:1.42482197;stroke-linecap:butt;stroke-linejoin:miter;stroke-miterlimit:4;stroke-dasharray:none;stroke-opacity:1"
           d="m 175.254,50.848 19.988,0" /></g><g
         transform="matrix(1,0,0,-1,0,141.73228)"
         id="g42"><path
           id="path44"
           style="fill:none;stroke:#000000;stroke-width:1.42482197;stroke-linecap:butt;stroke-linejoin:miter;stroke-miterlimit:4;stroke-dasharray:none;stroke-opacity:1"
           d="m 75.516,50.848 19.949,0" /></g><g
         transform="matrix(1,0,0,-1,0,141.73228)"
         id="g46"><path
           id="path48"
           style="fill:none;stroke:#000000;stroke-width:1.42482197;stroke-linecap:butt;stroke-linejoin:miter;stroke-miterlimit:4;stroke-dasharray:none;stroke-opacity:1"
           d="m 75.516,85.043 19.949,0" /></g><g
         transform="matrix(1,0,0,-1,0,141.73228)"
         id="g50"><path
           id="path52"
           style="fill:none;stroke:#000000;stroke-width:1.42482197;stroke-linecap:butt;stroke-linejoin:miter;stroke-miterlimit:4;stroke-dasharray:none;stroke-opacity:1"
           d="M 212.297,13.801 195.199,50.848" /></g><path
         id="path54"
         style="fill:#000000;fill-opacity:1;fill-rule:nonzero;stroke:none"
         d="m 212.297,127.932 c 0.066,-0.032 0.101,-0.125 0.07,-0.192 -0.027,-0.062 -0.121,-0.098 -0.187,-0.07 -0.067,0.031 -0.102,0.125 -0.071,0.191 0.032,0.063 0.125,0.098 0.188,0.071 z" /><g
         transform="matrix(1,0,0,-1,0,141.73228)"
         id="g56"><path
           id="path58"
           style="fill:none;stroke:#000000;stroke-width:1.42482197;stroke-linecap:butt;stroke-linejoin:miter;stroke-miterlimit:4;stroke-dasharray:none;stroke-opacity:1"
           d="m 212.297,13.801 c 0.066,0.031 0.101,0.125 0.07,0.191 -0.027,0.063 -0.121,0.098 -0.187,0.07 -0.067,-0.031 -0.102,-0.124 -0.071,-0.191 0.032,-0.062 0.125,-0.098 0.188,-0.07" /></g><path
         id="path60"
         style="fill:#000000;fill-opacity:1;fill-rule:nonzero;stroke:none"
         d="m 195.199,90.885 c -0.062,0.031 -0.097,0.125 -0.07,0.191 0.031,0.063 0.125,0.098 0.191,0.066 0.063,-0.027 0.102,-0.125 0.071,-0.187 -0.032,-0.066 -0.125,-0.102 -0.192,-0.07 z" /><g
         transform="matrix(1,0,0,-1,0,141.73228)"
         id="g62"><path
           id="path64"
           style="fill:none;stroke:#000000;stroke-width:1.42482197;stroke-linecap:butt;stroke-linejoin:miter;stroke-miterlimit:4;stroke-dasharray:none;stroke-opacity:1"
           d="m 195.199,50.848 c -0.062,-0.032 -0.097,-0.125 -0.07,-0.192 0.031,-0.062 0.125,-0.097 0.191,-0.066 0.063,0.027 0.102,0.125 0.071,0.187 -0.032,0.067 -0.125,0.102 -0.192,0.071" /></g><g
         transform="matrix(1,0,0,-1,0,141.73228)"
         id="g66"><path
           id="path68"
           style="fill:none;stroke:#000000;stroke-width:1.42482197;stroke-linecap:butt;stroke-linejoin:miter;stroke-miterlimit:4;stroke-dasharray:none;stroke-opacity:1"
           d="m 212.297,13.801 37.047,0" /></g><g
         transform="matrix(1,0,0,-1,0,141.73228)"
         id="g70"><path
           id="path72"
           style="fill:none;stroke:#000000;stroke-width:1.42482197;stroke-linecap:butt;stroke-linejoin:miter;stroke-miterlimit:4;stroke-dasharray:none;stroke-opacity:1"
           d="M 249.344,13.801 232.246,50.848" /></g><path
         id="path74"
         style="fill:#000000;fill-opacity:1;fill-rule:nonzero;stroke:none"
         d="m 249.344,127.932 c 0.062,-0.032 0.101,-0.125 0.07,-0.192 -0.031,-0.062 -0.125,-0.098 -0.191,-0.07 -0.063,0.031 -0.098,0.125 -0.067,0.191 0.028,0.063 0.125,0.098 0.188,0.071 z" /><g
         transform="matrix(1,0,0,-1,0,141.73228)"
         id="g76"><path
           id="path78"
           style="fill:none;stroke:#000000;stroke-width:1.42482197;stroke-linecap:butt;stroke-linejoin:miter;stroke-miterlimit:4;stroke-dasharray:none;stroke-opacity:1"
           d="m 249.344,13.801 c 0.062,0.031 0.101,0.125 0.07,0.191 -0.031,0.063 -0.125,0.098 -0.191,0.07 -0.063,-0.031 -0.098,-0.124 -0.067,-0.191 0.028,-0.062 0.125,-0.098 0.188,-0.07" /></g><path
         id="path80"
         style="fill:#000000;fill-opacity:1;fill-rule:nonzero;stroke:none"
         d="m 232.246,90.885 c -0.062,0.031 -0.101,0.125 -0.07,0.191 0.031,0.063 0.125,0.098 0.191,0.066 0.063,-0.027 0.098,-0.125 0.067,-0.187 -0.028,-0.066 -0.125,-0.102 -0.188,-0.07 z" /><g
         transform="matrix(1,0,0,-1,0,141.73228)"
         id="g82"><path
           id="path84"
           style="fill:none;stroke:#000000;stroke-width:1.42482197;stroke-linecap:butt;stroke-linejoin:miter;stroke-miterlimit:4;stroke-dasharray:none;stroke-opacity:1"
           d="m 232.246,50.848 c -0.062,-0.032 -0.101,-0.125 -0.07,-0.192 0.031,-0.062 0.125,-0.097 0.191,-0.066 0.063,0.027 0.098,0.125 0.067,0.187 -0.028,0.067 -0.125,0.102 -0.188,0.071" /></g><g
         transform="matrix(1,0,0,-1,0,141.73228)"
         id="g86"><path
           id="path88"
           style="fill:none;stroke:#000000;stroke-width:1.42482197;stroke-linecap:butt;stroke-linejoin:miter;stroke-miterlimit:4;stroke-dasharray:none;stroke-opacity:1"
           d="m 232.246,50.848 74.09,0" /></g><g
         transform="matrix(1,0,0,-1,0,141.73228)"
         id="g90"><path
           id="path92"
           style="fill:none;stroke:#000000;stroke-width:1.42482197;stroke-linecap:butt;stroke-linejoin:miter;stroke-miterlimit:4;stroke-dasharray:none;stroke-opacity:1"
           d="M 323.434,13.801 306.336,50.848" /></g><path
         id="path94"
         style="fill:#000000;fill-opacity:1;fill-rule:nonzero;stroke:none"
         d="m 323.434,127.932 c 0.066,-0.032 0.101,-0.125 0.07,-0.192 -0.031,-0.062 -0.125,-0.098 -0.188,-0.07 -0.066,0.031 -0.101,0.125 -0.07,0.191 0.027,0.063 0.125,0.098 0.188,0.071 z" /><g
         transform="matrix(1,0,0,-1,0,141.73228)"
         id="g96"><path
           id="path98"
           style="fill:none;stroke:#000000;stroke-width:1.42482197;stroke-linecap:butt;stroke-linejoin:miter;stroke-miterlimit:4;stroke-dasharray:none;stroke-opacity:1"
           d="m 323.434,13.801 c 0.066,0.031 0.101,0.125 0.07,0.191 -0.031,0.063 -0.125,0.098 -0.188,0.07 -0.066,-0.031 -0.101,-0.124 -0.07,-0.191 0.027,-0.062 0.125,-0.098 0.188,-0.07" /></g><path
         id="path100"
         style="fill:#000000;fill-opacity:1;fill-rule:nonzero;stroke:none"
         d="m 306.336,90.885 c -0.063,0.031 -0.098,0.125 -0.07,0.191 0.031,0.063 0.125,0.098 0.191,0.066 0.063,-0.027 0.098,-0.125 0.07,-0.187 -0.031,-0.066 -0.125,-0.102 -0.191,-0.07 z" /><g
         transform="matrix(1,0,0,-1,0,141.73228)"
         id="g102"><path
           id="path104"
           style="fill:none;stroke:#000000;stroke-width:1.42482197;stroke-linecap:butt;stroke-linejoin:miter;stroke-miterlimit:4;stroke-dasharray:none;stroke-opacity:1"
           d="m 306.336,50.848 c -0.063,-0.032 -0.098,-0.125 -0.07,-0.192 0.031,-0.062 0.125,-0.097 0.191,-0.066 0.063,0.027 0.098,0.125 0.07,0.187 -0.031,0.067 -0.125,0.102 -0.191,0.071" /></g><g
         transform="matrix(1,0,0,-1,0,141.73228)"
         id="g106"><path
           id="path108"
           style="fill:#ffffff;fill-opacity:1;fill-rule:nonzero;stroke:#000000;stroke-width:1.42482197;stroke-linecap:butt;stroke-linejoin:miter;stroke-miterlimit:4;stroke-dasharray:none;stroke-opacity:1"
           d="m 374.727,39.449 56.996,0 0,56.992 -56.996,0 0,-56.992 z" /></g><g
         transform="matrix(1,0,0,-1,0,141.73228)"
         id="g110"><path
           id="path112"
           style="fill:none;stroke:#000000;stroke-width:1.42482197;stroke-linecap:butt;stroke-linejoin:miter;stroke-miterlimit:4;stroke-dasharray:none;stroke-opacity:1"
           d="m 431.723,50.848 11.398,0" /></g><g
         transform="matrix(1,0,0,-1,0,141.73228)"
         id="g114"><path
           id="path116"
           style="fill:none;stroke:#000000;stroke-width:1.42482197;stroke-linecap:butt;stroke-linejoin:miter;stroke-miterlimit:4;stroke-dasharray:none;stroke-opacity:1"
           d="m 431.723,85.043 11.398,0" /></g><g
         transform="matrix(1,0,0,-1,0,141.73228)"
         id="g118"><path
           id="path120"
           style="fill:none;stroke:#000000;stroke-width:1.42482197;stroke-linecap:butt;stroke-linejoin:miter;stroke-miterlimit:4;stroke-dasharray:none;stroke-opacity:1"
           d="m 374.727,50.848 -11.399,0" /></g><g
         transform="matrix(1,0,0,-1,0,141.73228)"
         id="g122"><path
           id="path124"
           style="fill:none;stroke:#000000;stroke-width:1.42482197;stroke-linecap:butt;stroke-linejoin:miter;stroke-miterlimit:4;stroke-dasharray:none;stroke-opacity:1"
           d="m 374.727,85.043 -11.399,0" /></g><g
         transform="matrix(1,0,0,-1,0,141.73228)"
         id="g126"><path
           id="path128"
           style="fill:none;stroke:#000000;stroke-width:1.42482197;stroke-linecap:butt;stroke-linejoin:miter;stroke-miterlimit:4;stroke-dasharray:none;stroke-opacity:1"
           d="m 343.383,50.848 19.945,0" /></g><g
         transform="matrix(1,0,0,-1,0,141.73228)"
         id="g130"><path
           id="path132"
           style="fill:none;stroke:#000000;stroke-width:1.42482197;stroke-linecap:butt;stroke-linejoin:miter;stroke-miterlimit:4;stroke-dasharray:none;stroke-opacity:1"
           d="M 360.48,13.801 343.383,50.848" /></g><path
         id="path134"
         style="fill:#000000;fill-opacity:1;fill-rule:nonzero;stroke:none"
         d="m 360.48,127.932 c 0.063,-0.032 0.098,-0.125 0.071,-0.192 -0.031,-0.062 -0.125,-0.098 -0.192,-0.07 -0.062,0.031 -0.097,0.125 -0.07,0.191 0.031,0.063 0.125,0.098 0.191,0.071 z" /><g
         transform="matrix(1,0,0,-1,0,141.73228)"
         id="g136"><path
           id="path138"
           style="fill:none;stroke:#000000;stroke-width:1.42482197;stroke-linecap:butt;stroke-linejoin:miter;stroke-miterlimit:4;stroke-dasharray:none;stroke-opacity:1"
           d="m 360.48,13.801 c 0.063,0.031 0.098,0.125 0.071,0.191 -0.031,0.063 -0.125,0.098 -0.192,0.07 -0.062,-0.031 -0.097,-0.124 -0.07,-0.191 0.031,-0.062 0.125,-0.098 0.191,-0.07" /></g><path
         id="path140"
         style="fill:#000000;fill-opacity:1;fill-rule:nonzero;stroke:none"
         d="m 343.383,90.885 c -0.067,0.031 -0.102,0.125 -0.071,0.191 0.032,0.063 0.126,0.098 0.188,0.066 0.066,-0.027 0.102,-0.125 0.07,-0.187 -0.027,-0.066 -0.125,-0.102 -0.187,-0.07 z" /><g
         transform="matrix(1,0,0,-1,0,141.73228)"
         id="g142"><path
           id="path144"
           style="fill:none;stroke:#000000;stroke-width:1.42482197;stroke-linecap:butt;stroke-linejoin:miter;stroke-miterlimit:4;stroke-dasharray:none;stroke-opacity:1"
           d="m 343.383,50.848 c -0.067,-0.032 -0.102,-0.125 -0.07,-0.192 0.031,-0.062 0.125,-0.097 0.187,-0.066 0.066,0.027 0.102,0.125 0.07,0.187 -0.027,0.067 -0.125,0.102 -0.187,0.071" /></g><g
         transform="matrix(1,0,0,-1,0,141.73228)"
         id="g146"><path
           id="path148"
           style="fill:none;stroke:#000000;stroke-width:1.42482197;stroke-linecap:butt;stroke-linejoin:miter;stroke-miterlimit:4;stroke-dasharray:none;stroke-opacity:1"
           d="m 323.434,13.801 37.046,0" /></g><g
         transform="matrix(1,0,0,-1,0,141.73228)"
         id="g150"><path
           id="path152"
           style="fill:none;stroke:#000000;stroke-width:1.42482197;stroke-linecap:butt;stroke-linejoin:miter;stroke-miterlimit:4;stroke-dasharray:none;stroke-opacity:1"
           d="m 443.121,50.848 19.945,0" /></g><g
         transform="matrix(1,0,0,-1,0,141.73228)"
         id="g154"><path
           id="path156"
           style="fill:none;stroke:#000000;stroke-width:1.42482197;stroke-linecap:butt;stroke-linejoin:miter;stroke-miterlimit:4;stroke-dasharray:none;stroke-opacity:1"
           d="m 443.121,85.043 19.945,0" /></g><g
         transform="matrix(1,0,0,-1,0,141.73228)"
         id="g158"><path
           id="path160"
           style="fill:none;stroke:#000000;stroke-width:1.42482197;stroke-linecap:butt;stroke-linejoin:miter;stroke-miterlimit:4;stroke-dasharray:none;stroke-opacity:1"
           d="M 480.164,13.801 463.066,50.848" /></g><path
         id="path162"
         style="fill:#000000;fill-opacity:1;fill-rule:nonzero;stroke:none"
         d="m 480.164,127.932 c 0.066,-0.032 0.102,-0.125 0.07,-0.192 -0.031,-0.062 -0.125,-0.098 -0.187,-0.07 -0.067,0.031 -0.102,0.125 -0.07,0.191 0.027,0.063 0.125,0.098 0.187,0.071 z" /><g
         transform="matrix(1,0,0,-1,0,141.73228)"
         id="g164"><path
           id="path166"
           style="fill:none;stroke:#000000;stroke-width:1.42482197;stroke-linecap:butt;stroke-linejoin:miter;stroke-miterlimit:4;stroke-dasharray:none;stroke-opacity:1"
           d="m 480.164,13.801 c 0.067,0.031 0.102,0.125 0.07,0.191 -0.031,0.063 -0.125,0.098 -0.187,0.07 -0.066,-0.031 -0.102,-0.124 -0.07,-0.191 0.027,-0.062 0.125,-0.098 0.187,-0.07" /></g><path
         id="path168"
         style="fill:#000000;fill-opacity:1;fill-rule:nonzero;stroke:none"
         d="m 463.066,90.885 c -0.062,0.031 -0.097,0.125 -0.07,0.191 0.031,0.063 0.125,0.098 0.192,0.066 0.062,-0.027 0.097,-0.125 0.07,-0.187 -0.031,-0.066 -0.125,-0.102 -0.192,-0.07 z" /><g
         transform="matrix(1,0,0,-1,0,141.73228)"
         id="g170"><path
           id="path172"
           style="fill:none;stroke:#000000;stroke-width:1.42482197;stroke-linecap:butt;stroke-linejoin:miter;stroke-miterlimit:4;stroke-dasharray:none;stroke-opacity:1"
           d="m 463.066,50.848 c -0.062,-0.032 -0.097,-0.125 -0.07,-0.192 0.031,-0.062 0.125,-0.097 0.192,-0.066 0.062,0.027 0.097,0.125 0.07,0.187 -0.031,0.067 -0.125,0.102 -0.192,0.071" /></g><g
         transform="matrix(1,0,0,-1,0,141.73228)"
         id="g174"><path
           id="path176"
           style="fill:none;stroke:#000000;stroke-width:1.42482197;stroke-linecap:butt;stroke-linejoin:miter;stroke-miterlimit:4;stroke-dasharray:none;stroke-opacity:1"
           d="m 480.164,13.801 37.047,0" /></g><g
         transform="matrix(1,0,0,-1,0,141.73228)"
         id="g178"><path
           id="path180"
           style="fill:none;stroke:#000000;stroke-width:1.42482197;stroke-linecap:butt;stroke-linejoin:miter;stroke-miterlimit:4;stroke-dasharray:none;stroke-opacity:1"
           d="M 517.211,13.801 500.113,50.848" /></g><path
         id="path182"
         style="fill:#000000;fill-opacity:1;fill-rule:nonzero;stroke:none"
         d="m 517.211,127.932 c 0.062,-0.032 0.098,-0.125 0.07,-0.192 -0.031,-0.062 -0.125,-0.098 -0.191,-0.07 -0.063,0.031 -0.098,0.125 -0.07,0.191 0.031,0.063 0.125,0.098 0.191,0.071 z" /><g
         transform="matrix(1,0,0,-1,0,141.73228)"
         id="g184"><path
           id="path186"
           style="fill:none;stroke:#000000;stroke-width:1.42482197;stroke-linecap:butt;stroke-linejoin:miter;stroke-miterlimit:4;stroke-dasharray:none;stroke-opacity:1"
           d="m 517.211,13.801 c 0.062,0.031 0.098,0.125 0.07,0.191 -0.031,0.063 -0.125,0.098 -0.191,0.07 -0.063,-0.031 -0.098,-0.124 -0.07,-0.191 0.031,-0.062 0.125,-0.098 0.191,-0.07" /></g><path
         id="path188"
         style="fill:#000000;fill-opacity:1;fill-rule:nonzero;stroke:none"
         d="m 500.113,90.885 c -0.066,0.031 -0.101,0.125 -0.07,0.191 0.031,0.063 0.125,0.098 0.187,0.066 0.067,-0.027 0.102,-0.125 0.071,-0.187 -0.028,-0.066 -0.125,-0.102 -0.188,-0.07 z" /><g
         transform="matrix(1,0,0,-1,0,141.73228)"
         id="g190"><path
           id="path192"
           style="fill:none;stroke:#000000;stroke-width:1.42482197;stroke-linecap:butt;stroke-linejoin:miter;stroke-miterlimit:4;stroke-dasharray:none;stroke-opacity:1"
           d="m 500.113,50.848 c -0.066,-0.032 -0.101,-0.125 -0.07,-0.192 0.031,-0.062 0.125,-0.097 0.188,-0.066 0.066,0.027 0.101,0.125 0.07,0.187 -0.028,0.067 -0.125,0.102 -0.188,0.071" /></g><g
         transform="matrix(1,0,0,-1,0,141.73228)"
         id="g194"><path
           id="path196"
           style="fill:none;stroke:#000000;stroke-width:1.42482197;stroke-linecap:butt;stroke-linejoin:miter;stroke-miterlimit:4;stroke-dasharray:none;stroke-opacity:1"
           d="m 500.113,50.848 30.633,0" /></g><path
         id="path198"
         style="fill:#ffffff;fill-opacity:1;fill-rule:nonzero;stroke:none"
         d="m 536.445,90.885 c 0,-1.426 -1.425,-2.848 -2.847,-2.848 -1.426,0 -2.852,1.422 -2.852,2.848 0,1.425 1.426,2.851 2.852,2.851 1.422,0 2.847,-1.426 2.847,-2.851 z" /><g
         transform="matrix(1,0,0,-1,0,141.73228)"
         id="g200"><path
           id="path202"
           style="fill:none;stroke:#000000;stroke-width:1.42482197;stroke-linecap:butt;stroke-linejoin:miter;stroke-miterlimit:4;stroke-dasharray:none;stroke-opacity:1"
           d="m 536.445,50.848 c 0,1.425 -1.425,2.847 -2.847,2.847 -1.426,0 -2.852,-1.422 -2.852,-2.847 0,-1.426 1.426,-2.852 2.852,-2.852 1.422,0 2.847,1.426 2.847,2.852" /></g><g
         transform="matrix(1,0,0,-1,0,141.73228)"
         id="g204"><path
           id="path206"
           style="fill:none;stroke:#000000;stroke-width:1.42482197;stroke-linecap:butt;stroke-linejoin:miter;stroke-miterlimit:4;stroke-dasharray:none;stroke-opacity:1"
           d="m 463.066,85.043 67.68,0" /></g><path
         id="path208"
         style="fill:#ffffff;fill-opacity:1;fill-rule:nonzero;stroke:none"
         d="m 536.445,56.689 c 0,-1.425 -1.425,-2.851 -2.847,-2.851 -1.426,0 -2.852,1.426 -2.852,2.851 0,1.426 1.426,2.848 2.852,2.848 1.422,0 2.847,-1.422 2.847,-2.848 z" /><g
         transform="matrix(1,0,0,-1,0,141.73228)"
         id="g210"><path
           id="path212"
           style="fill:none;stroke:#000000;stroke-width:1.42482197;stroke-linecap:butt;stroke-linejoin:miter;stroke-miterlimit:4;stroke-dasharray:none;stroke-opacity:1"
           d="m 536.445,85.043 c 0,1.426 -1.425,2.852 -2.847,2.852 -1.426,0 -2.852,-1.426 -2.852,-2.852 0,-1.426 1.426,-2.848 2.852,-2.848 1.422,0 2.847,1.422 2.847,2.848" /></g><g
         transform="matrix(1,0,0,-1,0,141.73228)"
         id="g214"><path
           id="path216"
           style="fill:none;stroke:#000000;stroke-width:1.42482197;stroke-linecap:butt;stroke-linejoin:miter;stroke-miterlimit:4;stroke-dasharray:none;stroke-opacity:1"
           d="M 92.613,13.801 75.516,50.848" /></g><path
         id="path218"
         style="fill:#000000;fill-opacity:1;fill-rule:nonzero;stroke:none"
         d="m 92.613,127.932 c 0.063,-0.032 0.102,-0.125 0.071,-0.192 -0.032,-0.062 -0.125,-0.098 -0.192,-0.07 -0.062,0.031 -0.097,0.125 -0.066,0.191 0.027,0.063 0.125,0.098 0.187,0.071 z" /><g
         transform="matrix(1,0,0,-1,0,141.73228)"
         id="g220"><path
           id="path222"
           style="fill:none;stroke:#000000;stroke-width:1.42482197;stroke-linecap:butt;stroke-linejoin:miter;stroke-miterlimit:4;stroke-dasharray:none;stroke-opacity:1"
           d="m 92.613,13.801 c 0.063,0.031 0.102,0.125 0.071,0.191 -0.032,0.063 -0.125,0.098 -0.192,0.07 -0.062,-0.031 -0.097,-0.124 -0.066,-0.191 0.027,-0.062 0.125,-0.098 0.187,-0.07" /></g><path
         id="path224"
         style="fill:#000000;fill-opacity:1;fill-rule:nonzero;stroke:none"
         d="m 75.516,90.885 c -0.063,0.031 -0.102,0.125 -0.071,0.191 0.032,0.063 0.125,0.098 0.192,0.066 0.062,-0.027 0.097,-0.125 0.066,-0.187 -0.027,-0.066 -0.125,-0.102 -0.187,-0.07 z" /><g
         transform="matrix(1,0,0,-1,0,141.73228)"
         id="g226"><path
           id="path228"
           style="fill:none;stroke:#000000;stroke-width:1.42482197;stroke-linecap:butt;stroke-linejoin:miter;stroke-miterlimit:4;stroke-dasharray:none;stroke-opacity:1"
           d="m 75.516,50.848 c -0.063,-0.032 -0.102,-0.125 -0.071,-0.192 0.032,-0.062 0.125,-0.097 0.192,-0.066 0.062,0.027 0.097,0.125 0.066,0.187 -0.027,0.067 -0.125,0.102 -0.187,0.071" /></g><g
         transform="matrix(1,0,0,-1,0,141.73228)"
         id="g230"><path
           id="path232"
           style="fill:none;stroke:#000000;stroke-width:1.42482197;stroke-linecap:butt;stroke-linejoin:miter;stroke-miterlimit:4;stroke-dasharray:none;stroke-opacity:1"
           d="m 55.566,13.801 37.047,0" /></g><g
         transform="matrix(1,0,0,-1,0,141.73228)"
         id="g234"><path
           id="path236"
           style="fill:none;stroke:#000000;stroke-width:1.42482197;stroke-linecap:butt;stroke-linejoin:miter;stroke-miterlimit:4;stroke-dasharray:none;stroke-opacity:1"
           d="M 55.566,13.801 38.469,50.848" /></g><path
         id="path238"
         style="fill:#000000;fill-opacity:1;fill-rule:nonzero;stroke:none"
         d="m 55.566,127.932 c 0.067,-0.032 0.102,-0.125 0.071,-0.192 -0.028,-0.062 -0.121,-0.098 -0.188,-0.07 -0.066,0.031 -0.101,0.125 -0.07,0.191 0.031,0.063 0.125,0.098 0.187,0.071 z" /><g
         transform="matrix(1,0,0,-1,0,141.73228)"
         id="g240"><path
           id="path242"
           style="fill:none;stroke:#000000;stroke-width:1.42482197;stroke-linecap:butt;stroke-linejoin:miter;stroke-miterlimit:4;stroke-dasharray:none;stroke-opacity:1"
           d="m 55.566,13.801 c 0.067,0.031 0.102,0.125 0.071,0.191 -0.028,0.063 -0.121,0.098 -0.188,0.07 -0.066,-0.031 -0.101,-0.124 -0.07,-0.191 0.031,-0.062 0.125,-0.098 0.187,-0.07" /></g><path
         id="path244"
         style="fill:#000000;fill-opacity:1;fill-rule:nonzero;stroke:none"
         d="m 38.469,90.885 c -0.063,0.031 -0.098,0.125 -0.071,0.191 0.032,0.063 0.125,0.098 0.192,0.066 0.062,-0.027 0.101,-0.125 0.07,-0.187 -0.031,-0.066 -0.125,-0.102 -0.191,-0.07 z" /><g
         transform="matrix(1,0,0,-1,0,141.73228)"
         id="g246"><path
           id="path248"
           style="fill:none;stroke:#000000;stroke-width:1.42482197;stroke-linecap:butt;stroke-linejoin:miter;stroke-miterlimit:4;stroke-dasharray:none;stroke-opacity:1"
           d="m 38.469,50.848 c -0.063,-0.032 -0.098,-0.125 -0.071,-0.192 0.032,-0.062 0.125,-0.097 0.192,-0.066 0.062,0.027 0.101,0.125 0.07,0.187 -0.031,0.067 -0.125,0.102 -0.191,0.071" /></g><g
         transform="matrix(1,0,0,-1,0,141.73228)"
         id="g250"><path
           id="path252"
           style="fill:none;stroke:#000000;stroke-width:1.42482197;stroke-linecap:butt;stroke-linejoin:miter;stroke-miterlimit:4;stroke-dasharray:none;stroke-opacity:1"
           d="m 7.836,85.043 67.68,0" /></g><path
         id="path254"
         style="fill:#ffffff;fill-opacity:1;fill-rule:nonzero;stroke:none"
         d="m 2.137,56.689 c 0,1.426 1.425,2.848 2.851,2.848 1.422,0 2.848,-1.422 2.848,-2.848 0,-1.425 -1.426,-2.851 -2.848,-2.851 -1.426,0 -2.851,1.426 -2.851,2.851 z" /><g
         transform="matrix(1,0,0,-1,0,141.73228)"
         id="g256"><path
           id="path258"
           style="fill:none;stroke:#000000;stroke-width:1.42482197;stroke-linecap:butt;stroke-linejoin:miter;stroke-miterlimit:4;stroke-dasharray:none;stroke-opacity:1"
           d="m 2.137,85.043 c 0,-1.426 1.426,-2.848 2.851,-2.848 1.422,0 2.848,1.422 2.848,2.848 0,1.426 -1.426,2.852 -2.848,2.852 -1.425,0 -2.851,-1.426 -2.851,-2.852" /></g><g
         transform="matrix(1,0,0,-1,0,141.73228)"
         id="g260"><path
           id="path262"
           style="fill:none;stroke:#000000;stroke-width:1.42482197;stroke-linecap:butt;stroke-linejoin:miter;stroke-miterlimit:4;stroke-dasharray:none;stroke-opacity:1"
           d="m 7.836,50.848 30.633,0" /></g><path
         id="path264"
         style="fill:#ffffff;fill-opacity:1;fill-rule:nonzero;stroke:none"
         d="m 2.137,90.885 c 0,1.425 1.425,2.851 2.851,2.851 1.422,0 2.848,-1.426 2.848,-2.851 0,-1.426 -1.426,-2.848 -2.848,-2.848 -1.426,0 -2.851,1.422 -2.851,2.848 z" /><g
         transform="matrix(1,0,0,-1,0,141.73228)"
         id="g266"><path
           id="path268"
           style="fill:none;stroke:#000000;stroke-width:1.42482197;stroke-linecap:butt;stroke-linejoin:miter;stroke-miterlimit:4;stroke-dasharray:none;stroke-opacity:1"
           d="m 2.137,50.848 c 0,-1.426 1.426,-2.852 2.851,-2.852 1.422,0 2.848,1.426 2.848,2.852 0,1.425 -1.426,2.847 -2.848,2.847 -1.425,0 -2.851,-1.422 -2.851,-2.847" /></g><g
         transform="matrix(1,0,0,-1,0,141.73228)"
         id="g270"><path
           id="path272"
           style="fill:none;stroke:#000000;stroke-width:1.42482197;stroke-linecap:butt;stroke-linejoin:miter;stroke-miterlimit:4;stroke-dasharray:none;stroke-opacity:1"
           d="m 269.293,85.043 -25.668,53.852" /></g><path
         id="path274"
         style="fill:#000000;fill-opacity:1;fill-rule:nonzero;stroke:none"
         d="m 243.625,2.838 c -0.066,0.031 -0.098,0.125 -0.066,0.187 0.027,0.067 0.125,0.098 0.187,0.071 0.066,-0.032 0.098,-0.129 0.066,-0.192 -0.027,-0.066 -0.124,-0.097 -0.187,-0.066 z" /><g
         transform="matrix(1,0,0,-1,0,141.73228)"
         id="g276"><path
           id="path278"
           style="fill:none;stroke:#000000;stroke-width:1.42482197;stroke-linecap:butt;stroke-linejoin:miter;stroke-miterlimit:4;stroke-dasharray:none;stroke-opacity:1"
           d="m 243.625,138.895 c -0.066,-0.032 -0.098,-0.125 -0.066,-0.188 0.027,-0.066 0.125,-0.098 0.187,-0.07 0.067,0.031 0.098,0.129 0.067,0.191 -0.028,0.067 -0.125,0.098 -0.188,0.067" /></g><g
         transform="matrix(1,0,0,-1,0,141.73228)"
         id="g280"><path
           id="path282"
           style="fill:none;stroke:#000000;stroke-width:1.42482197;stroke-linecap:butt;stroke-linejoin:miter;stroke-miterlimit:4;stroke-dasharray:none;stroke-opacity:1"
           d="m 269.293,50.848 -25.668,53.851" /></g><path
         id="path284"
         style="fill:#000000;fill-opacity:1;fill-rule:nonzero;stroke:none"
         d="m 243.625,37.033 c -0.066,0.031 -0.098,0.125 -0.066,0.188 0.027,0.066 0.125,0.097 0.187,0.07 0.066,-0.031 0.098,-0.129 0.066,-0.192 -0.027,-0.062 -0.124,-0.097 -0.187,-0.066 z" /><g
         transform="matrix(1,0,0,-1,0,141.73228)"
         id="g286"><path
           id="path288"
           style="fill:none;stroke:#000000;stroke-width:1.42482197;stroke-linecap:butt;stroke-linejoin:miter;stroke-miterlimit:4;stroke-dasharray:none;stroke-opacity:1"
           d="m 243.625,104.699 c -0.066,-0.031 -0.098,-0.125 -0.066,-0.187 0.027,-0.067 0.125,-0.098 0.187,-0.071 0.067,0.032 0.098,0.129 0.067,0.192 -0.028,0.062 -0.125,0.097 -0.188,0.066" /></g><g
         transform="matrix(1,0,0,-1,0,141.73228)"
         id="g290"><path
           id="path292"
           style="fill:none;stroke:#bf00bf;stroke-width:1.42482197;stroke-linecap:butt;stroke-linejoin:miter;stroke-miterlimit:4;stroke-dasharray:5.699288, 5.699288;stroke-dashoffset:0;stroke-opacity:1"
           d="m 243.645,39.449 0,51.293" /></g><g
         transform="matrix(1,0,0,-1,0,141.73228)"
         id="g294"><path
           id="path296"
           style="fill:none;stroke:#bf00bf;stroke-width:1.42482197;stroke-linecap:butt;stroke-linejoin:miter;stroke-miterlimit:4;stroke-dasharray:5.699288, 5.699288;stroke-dashoffset:0;stroke-opacity:1"
           d="m 294.938,39.449 0,51.293" /></g><g
         transform="matrix(1,0,0,-1,0,141.73228)"
         id="g298"><path
           id="path300"
           style="fill:none;stroke:#bf00bf;stroke-width:1.42482197;stroke-linecap:butt;stroke-linejoin:miter;stroke-miterlimit:4;stroke-dasharray:5.699288, 5.699288;stroke-dashoffset:0;stroke-opacity:1"
           d="m 357.629,39.449 0,51.293" /></g><g
         transform="matrix(1,0,0,-1,0,141.73228)"
         id="g302"><path
           id="path304"
           style="fill:none;stroke:#bf00bf;stroke-width:1.42482197;stroke-linecap:butt;stroke-linejoin:miter;stroke-miterlimit:4;stroke-dasharray:5.699288, 5.699288;stroke-dashoffset:0;stroke-opacity:1"
           d="m 180.953,39.449 0,51.293" /></g><path
         id="path306"
         style="fill:#000000;fill-opacity:1;fill-rule:nonzero;stroke:none"
         d="m 129.902,74.838 2.532,-6.75 -0.954,0 -1.531,4.047 -1.89,-4.047 -0.954,0 2.407,5.25 -0.375,0.969 c -0.149,0.406 -0.399,0.609 -0.75,0.609 l -0.469,0 0,0.766 0.578,0 c 0.727,-0.012 1.195,-0.293 1.406,-0.844 z" /><path
         id="path308"
         style="fill:#000000;fill-opacity:1;fill-rule:nonzero;stroke:none"
         d="m 135.066,75.385 0.829,0 -2.547,-8.219 -0.828,0 2.546,8.219 z" /><path
         id="path310"
         style="fill:#000000;fill-opacity:1;fill-rule:nonzero;stroke:none"
         d="m 138.953,71.557 c -0.469,0 -0.84,-0.133 -1.109,-0.391 -0.262,-0.25 -0.391,-0.594 -0.391,-1.031 0,-0.438 0.129,-0.782 0.391,-1.032 0.269,-0.25 0.64,-0.375 1.109,-0.375 0.469,0 0.836,0.125 1.109,0.375 0.27,0.25 0.407,0.594 0.407,1.032 0,0.437 -0.137,0.781 -0.407,1.031 -0.261,0.258 -0.632,0.391 -1.109,0.391 z m -0.984,0.406 c -0.418,0.101 -0.746,0.301 -0.985,0.594 -0.242,0.289 -0.359,0.644 -0.359,1.062 0,0.582 0.207,1.039 0.625,1.375 0.414,0.344 0.984,0.516 1.703,0.516 0.727,0 1.301,-0.172 1.719,-0.516 0.414,-0.336 0.625,-0.793 0.625,-1.375 0,-0.418 -0.121,-0.773 -0.359,-1.062 -0.243,-0.293 -0.571,-0.493 -0.985,-0.594 0.477,-0.106 0.848,-0.321 1.109,-0.641 0.258,-0.324 0.391,-0.719 0.391,-1.187 0,-0.711 -0.215,-1.25 -0.641,-1.625 -0.429,-0.375 -1.046,-0.563 -1.859,-0.563 -0.805,0 -1.422,0.188 -1.859,0.563 -0.43,0.375 -0.641,0.914 -0.641,1.625 0,0.468 0.133,0.863 0.406,1.187 0.27,0.32 0.641,0.535 1.11,0.641 z m -0.36,1.562 c 0,-0.375 0.118,-0.672 0.36,-0.89 0.238,-0.211 0.566,-0.313 0.984,-0.313 0.426,0 0.758,0.102 1,0.313 0.238,0.218 0.359,0.515 0.359,0.89 0,0.375 -0.121,0.664 -0.359,0.875 -0.242,0.219 -0.574,0.328 -1,0.328 -0.418,0 -0.746,-0.109 -0.984,-0.328 -0.242,-0.211 -0.36,-0.5 -0.36,-0.875 z" /><path
         id="path312"
         style="fill:#000000;fill-opacity:1;fill-rule:nonzero;stroke:none"
         d="m 397.77,74.838 2.531,-6.75 -0.953,0 -1.532,4.047 -1.89,-4.047 -0.953,0 2.406,5.25 -0.375,0.969 c -0.149,0.406 -0.399,0.609 -0.75,0.609 l -0.469,0 0,0.766 0.578,0 c 0.727,-0.012 1.196,-0.293 1.407,-0.844 z" /><path
         id="path314"
         style="fill:#000000;fill-opacity:1;fill-rule:nonzero;stroke:none"
         d="m 402.934,75.385 0.828,0 -2.547,-8.219 -0.828,0 2.547,8.219 z" /><path
         id="path316"
         style="fill:#000000;fill-opacity:1;fill-rule:nonzero;stroke:none"
         d="m 406.82,71.557 c -0.468,0 -0.84,-0.133 -1.109,-0.391 -0.262,-0.25 -0.391,-0.594 -0.391,-1.031 0,-0.438 0.129,-0.782 0.391,-1.032 0.269,-0.25 0.641,-0.375 1.109,-0.375 0.469,0 0.836,0.125 1.11,0.375 0.269,0.25 0.406,0.594 0.406,1.032 0,0.437 -0.137,0.781 -0.406,1.031 -0.262,0.258 -0.633,0.391 -1.11,0.391 z m -0.984,0.406 c -0.418,0.101 -0.746,0.301 -0.984,0.594 -0.243,0.289 -0.36,0.644 -0.36,1.062 0,0.582 0.207,1.039 0.625,1.375 0.414,0.344 0.985,0.516 1.703,0.516 0.727,0 1.301,-0.172 1.719,-0.516 0.414,-0.336 0.625,-0.793 0.625,-1.375 0,-0.418 -0.121,-0.773 -0.359,-1.062 -0.243,-0.293 -0.571,-0.493 -0.985,-0.594 0.477,-0.106 0.848,-0.321 1.11,-0.641 0.258,-0.324 0.39,-0.719 0.39,-1.187 0,-0.711 -0.215,-1.25 -0.64,-1.625 -0.43,-0.375 -1.047,-0.563 -1.86,-0.563 -0.804,0 -1.422,0.188 -1.859,0.563 -0.43,0.375 -0.641,0.914 -0.641,1.625 0,0.468 0.133,0.863 0.407,1.187 0.269,0.32 0.64,0.535 1.109,0.641 z m -0.359,1.562 c 0,-0.375 0.117,-0.672 0.359,-0.89 0.238,-0.211 0.566,-0.313 0.984,-0.313 0.426,0 0.758,0.102 1,0.313 0.239,0.218 0.36,0.515 0.36,0.89 0,0.375 -0.121,0.664 -0.36,0.875 -0.242,0.219 -0.574,0.328 -1,0.328 -0.418,0 -0.746,-0.109 -0.984,-0.328 -0.242,-0.211 -0.359,-0.5 -0.359,-0.875 z" /><path
         id="path318"
         style="fill:#000000;fill-opacity:1;fill-rule:nonzero;stroke:none"
         d="m 222.082,131.607 1.625,0 0,5.563 -1.766,-0.344 0,0.891 1.75,0.359 0.985,0 0,-6.469 1.609,0 0,-0.828 -4.203,0 0,0.828 z" /><path
         id="path320"
         style="fill:#000000;fill-opacity:1;fill-rule:nonzero;stroke:none"
         d="m 228.164,132.014 1.031,0 0,-0.829 -0.797,-1.562 -0.64,0 0.406,1.562 0,0.829 z" /><path
         id="path322"
         style="fill:#000000;fill-opacity:1;fill-rule:nonzero;stroke:none"
         d="m 231.988,131.607 3.438,0 0,-0.828 -4.625,0 0,0.828 c 0.375,0.383 0.883,0.907 1.531,1.563 0.645,0.656 1.051,1.078 1.219,1.265 0.312,0.352 0.531,0.649 0.656,0.891 0.125,0.25 0.188,0.492 0.188,0.734 0,0.383 -0.137,0.696 -0.407,0.938 -0.273,0.25 -0.625,0.375 -1.062,0.375 -0.313,0 -0.641,-0.059 -0.985,-0.172 -0.336,-0.105 -0.699,-0.266 -1.093,-0.484 l 0,1 c 0.394,0.156 0.765,0.273 1.109,0.359 0.344,0.082 0.66,0.125 0.953,0.125 0.75,0 1.348,-0.187 1.797,-0.562 0.457,-0.375 0.688,-0.883 0.688,-1.516 0,-0.305 -0.059,-0.59 -0.172,-0.859 -0.118,-0.262 -0.321,-0.575 -0.61,-0.938 -0.086,-0.094 -0.343,-0.371 -0.781,-0.828 -0.437,-0.449 -1.055,-1.078 -1.844,-1.891 z" /><path
         id="path324"
         style="fill:#000000;fill-opacity:1;fill-rule:nonzero;stroke:none"
         d="m 240.273,134.717 c 0.469,-0.106 0.832,-0.321 1.094,-0.641 0.27,-0.312 0.406,-0.703 0.406,-1.172 0,-0.719 -0.25,-1.277 -0.75,-1.672 -0.492,-0.398 -1.195,-0.593 -2.109,-0.593 -0.305,0 -0.617,0.031 -0.937,0.093 -0.325,0.063 -0.657,0.149 -1,0.266 l 0,0.953 c 0.269,-0.156 0.566,-0.277 0.89,-0.359 0.332,-0.086 0.676,-0.125 1.031,-0.125 0.614,0 1.082,0.117 1.407,0.359 0.32,0.25 0.484,0.609 0.484,1.078 0,0.426 -0.152,0.758 -0.453,1 -0.305,0.238 -0.719,0.36 -1.25,0.36 l -0.859,0 0,0.812 0.89,0 c 0.488,0 0.86,0.098 1.11,0.297 0.257,0.195 0.39,0.476 0.39,0.844 0,0.363 -0.137,0.644 -0.406,0.843 -0.262,0.207 -0.637,0.313 -1.125,0.313 -0.274,0 -0.563,-0.031 -0.875,-0.094 -0.313,-0.055 -0.652,-0.14 -1.016,-0.265 l 0,0.875 c 0.375,0.101 0.723,0.179 1.047,0.234 0.332,0.051 0.641,0.078 0.922,0.078 0.75,0 1.344,-0.172 1.781,-0.516 0.438,-0.336 0.657,-0.793 0.657,-1.375 0,-0.406 -0.118,-0.75 -0.344,-1.031 -0.231,-0.273 -0.559,-0.461 -0.985,-0.562 z" /><path
         id="path326"
         style="fill:#000000;fill-opacity:1;fill-rule:nonzero;stroke:none"
         d="m 330.367,131.607 1.625,0 0,5.563 -1.765,-0.344 0,0.891 1.75,0.359 0.984,0 0,-6.469 1.609,0 0,-0.828 -4.203,0 0,0.828 z" /><path
         id="path328"
         style="fill:#000000;fill-opacity:1;fill-rule:nonzero;stroke:none"
         d="m 336.449,132.014 1.031,0 0,-0.829 -0.796,-1.562 -0.641,0 0.406,1.562 0,0.829 z" /><path
         id="path330"
         style="fill:#000000;fill-opacity:1;fill-rule:nonzero;stroke:none"
         d="m 340.273,131.607 3.438,0 0,-0.828 -4.625,0 0,0.828 c 0.375,0.383 0.883,0.907 1.531,1.563 0.645,0.656 1.051,1.078 1.219,1.265 0.312,0.352 0.531,0.649 0.656,0.891 0.125,0.25 0.188,0.492 0.188,0.734 0,0.383 -0.137,0.696 -0.407,0.938 -0.273,0.25 -0.625,0.375 -1.062,0.375 -0.313,0 -0.641,-0.059 -0.984,-0.172 -0.336,-0.105 -0.7,-0.266 -1.094,-0.484 l 0,1 c 0.394,0.156 0.765,0.273 1.109,0.359 0.344,0.082 0.66,0.125 0.953,0.125 0.75,0 1.348,-0.187 1.797,-0.562 0.457,-0.375 0.688,-0.883 0.688,-1.516 0,-0.305 -0.059,-0.59 -0.172,-0.859 -0.117,-0.262 -0.32,-0.575 -0.61,-0.938 -0.086,-0.094 -0.343,-0.371 -0.781,-0.828 -0.437,-0.449 -1.055,-1.078 -1.844,-1.891 z" /><path
         id="path332"
         style="fill:#000000;fill-opacity:1;fill-rule:nonzero;stroke:none"
         d="m 348.559,134.717 c 0.468,-0.106 0.832,-0.321 1.093,-0.641 0.27,-0.312 0.407,-0.703 0.407,-1.172 0,-0.719 -0.25,-1.277 -0.75,-1.672 -0.493,-0.398 -1.196,-0.593 -2.11,-0.593 -0.304,0 -0.617,0.031 -0.937,0.093 -0.324,0.063 -0.657,0.149 -1,0.266 l 0,0.953 c 0.269,-0.156 0.566,-0.277 0.89,-0.359 0.332,-0.086 0.676,-0.125 1.032,-0.125 0.613,0 1.082,0.117 1.406,0.359 0.32,0.25 0.484,0.609 0.484,1.078 0,0.426 -0.152,0.758 -0.453,1 -0.305,0.238 -0.719,0.36 -1.25,0.36 l -0.859,0 0,0.812 0.89,0 c 0.489,0 0.86,0.098 1.11,0.297 0.258,0.195 0.39,0.476 0.39,0.844 0,0.363 -0.136,0.644 -0.406,0.843 -0.262,0.207 -0.637,0.313 -1.125,0.313 -0.273,0 -0.562,-0.031 -0.875,-0.094 -0.312,-0.055 -0.652,-0.14 -1.016,-0.265 l 0,0.875 c 0.375,0.101 0.723,0.179 1.047,0.234 0.332,0.051 0.641,0.078 0.922,0.078 0.75,0 1.344,-0.172 1.781,-0.516 0.438,-0.336 0.657,-0.793 0.657,-1.375 0,-0.406 -0.117,-0.75 -0.344,-1.031 -0.231,-0.273 -0.559,-0.461 -0.984,-0.562 z" /><path
         id="path334"
         style="fill:#000000;fill-opacity:1;fill-rule:nonzero;stroke:none"
         d="m 259.816,97.412 3.438,0 0,-0.828 -4.625,0 0,0.828 c 0.375,0.383 0.883,0.906 1.531,1.562 0.645,0.657 1.051,1.079 1.219,1.266 0.312,0.352 0.531,0.649 0.656,0.891 0.125,0.25 0.188,0.492 0.188,0.734 0,0.383 -0.137,0.695 -0.407,0.938 -0.273,0.25 -0.625,0.375 -1.062,0.375 -0.313,0 -0.641,-0.059 -0.984,-0.172 -0.336,-0.106 -0.7,-0.266 -1.094,-0.485 l 0,1 c 0.394,0.157 0.765,0.274 1.109,0.36 0.344,0.082 0.66,0.125 0.953,0.125 0.75,0 1.348,-0.188 1.797,-0.563 0.457,-0.375 0.688,-0.883 0.688,-1.515 0,-0.305 -0.059,-0.59 -0.172,-0.86 -0.117,-0.261 -0.321,-0.574 -0.61,-0.937 -0.086,-0.094 -0.343,-0.371 -0.781,-0.828 -0.437,-0.45 -1.055,-1.079 -1.844,-1.891 z" /><path
         id="path336"
         style="fill:#000000;fill-opacity:1;fill-rule:nonzero;stroke:none"
         d="m 265.211,97.818 1.031,0 0,-0.828 -0.797,-1.562 -0.64,0 0.406,1.562 0,0.828 z" /><path
         id="path338"
         style="fill:#000000;fill-opacity:1;fill-rule:nonzero;stroke:none"
         d="m 268.188,103.881 3.874,0 0,-0.844 -2.968,0 0,-1.781 c 0.144,0.051 0.285,0.086 0.422,0.109 0.144,0.02 0.289,0.031 0.437,0.031 0.813,0 1.453,-0.226 1.922,-0.672 0.477,-0.437 0.719,-1.039 0.719,-1.796 0,-0.793 -0.246,-1.407 -0.735,-1.844 -0.48,-0.43 -1.168,-0.641 -2.062,-0.641 -0.305,0 -0.617,0.028 -0.938,0.078 -0.312,0.055 -0.64,0.129 -0.984,0.235 l 0,0.984 c 0.301,-0.156 0.609,-0.277 0.922,-0.359 0.312,-0.074 0.641,-0.11 0.984,-0.11 0.563,0 1.004,0.145 1.328,0.438 0.332,0.301 0.5,0.707 0.5,1.219 0,0.5 -0.168,0.894 -0.5,1.187 -0.324,0.301 -0.765,0.453 -1.328,0.453 -0.261,0 -0.527,-0.031 -0.797,-0.094 -0.261,-0.054 -0.527,-0.14 -0.796,-0.265 l 0,3.672 z" /><path
         id="path340"
         style="fill:#000000;fill-opacity:1;fill-rule:nonzero;stroke:none"
         d="m 277.035,103.021 -2.484,-3.89 2.484,0 0,3.89 z m -0.265,0.86 1.25,0 0,-4.75 1.031,0 0,-0.828 -1.031,0 0,-1.719 -0.985,0 0,1.719 -3.297,0 0,0.953 3.032,4.625 z" /><path
         id="path342"
         style="fill:#000000;fill-opacity:1;fill-rule:nonzero;stroke:none"
         d="m 129.98,114.623 c -0.5,0 -0.882,-0.25 -1.14,-0.75 -0.25,-0.5 -0.375,-1.25 -0.375,-2.25 0,-1 0.125,-1.75 0.375,-2.25 0.258,-0.5 0.64,-0.75 1.14,-0.75 0.52,0 0.907,0.25 1.157,0.75 0.258,0.5 0.39,1.25 0.39,2.25 0,1 -0.132,1.75 -0.39,2.25 -0.25,0.5 -0.637,0.75 -1.157,0.75 z m 0,0.781 c 0.821,0 1.446,-0.324 1.875,-0.969 0.438,-0.648 0.657,-1.586 0.657,-2.812 0,-1.231 -0.219,-2.168 -0.657,-2.813 -0.429,-0.648 -1.054,-0.968 -1.875,-0.968 -0.812,0 -1.437,0.32 -1.875,0.968 -0.429,0.645 -0.64,1.582 -0.64,2.813 0,1.226 0.211,2.164 0.64,2.812 0.438,0.645 1.063,0.969 1.875,0.969 z" /><path
         id="path344"
         style="fill:#000000;fill-opacity:1;fill-rule:nonzero;stroke:none"
         d="m 134.125,109.217 1.031,0 0,-0.828 -0.797,-1.563 -0.64,0 0.406,1.563 0,0.828 z" /><path
         id="path346"
         style="fill:#000000;fill-opacity:1;fill-rule:nonzero;stroke:none"
         d="m 140.09,111.92 c 0.469,-0.106 0.832,-0.321 1.094,-0.641 0.269,-0.312 0.406,-0.703 0.406,-1.172 0,-0.718 -0.25,-1.277 -0.75,-1.672 -0.492,-0.398 -1.195,-0.593 -2.11,-0.593 -0.304,0 -0.617,0.031 -0.937,0.093 -0.324,0.063 -0.656,0.149 -1,0.266 l 0,0.953 c 0.269,-0.156 0.566,-0.277 0.891,-0.359 0.332,-0.086 0.675,-0.125 1.031,-0.125 0.613,0 1.082,0.117 1.406,0.359 0.32,0.25 0.484,0.61 0.484,1.078 0,0.426 -0.152,0.758 -0.453,1 -0.304,0.239 -0.718,0.36 -1.25,0.36 l -0.859,0 0,0.812 0.891,0 c 0.488,0 0.859,0.098 1.109,0.297 0.258,0.195 0.391,0.477 0.391,0.844 0,0.363 -0.137,0.644 -0.407,0.844 -0.261,0.207 -0.636,0.312 -1.125,0.312 -0.273,0 -0.562,-0.031 -0.875,-0.094 -0.312,-0.054 -0.652,-0.14 -1.015,-0.265 l 0,0.875 c 0.375,0.101 0.722,0.179 1.047,0.234 0.332,0.051 0.64,0.078 0.921,0.078 0.75,0 1.344,-0.172 1.782,-0.515 0.437,-0.336 0.656,-0.793 0.656,-1.375 0,-0.407 -0.117,-0.75 -0.344,-1.032 -0.23,-0.273 -0.558,-0.461 -0.984,-0.562 z" /><path
         id="path348"
         style="fill:#000000;fill-opacity:1;fill-rule:nonzero;stroke:none"
         d="m 143,115.279 4.688,0 0,-0.422 -2.657,-6.875 -1.031,0 2.5,6.453 -3.5,0 0,0.844 z" /><path
         id="path350"
         style="fill:#000000;fill-opacity:1;fill-rule:nonzero;stroke:none"
         d="m 397.848,114.623 c -0.5,0 -0.883,-0.25 -1.141,-0.75 -0.25,-0.5 -0.375,-1.25 -0.375,-2.25 0,-1 0.125,-1.75 0.375,-2.25 0.258,-0.5 0.641,-0.75 1.141,-0.75 0.519,0 0.906,0.25 1.156,0.75 0.258,0.5 0.391,1.25 0.391,2.25 0,1 -0.133,1.75 -0.391,2.25 -0.25,0.5 -0.637,0.75 -1.156,0.75 z m 0,0.781 c 0.82,0 1.445,-0.324 1.875,-0.969 0.437,-0.648 0.656,-1.586 0.656,-2.812 0,-1.231 -0.219,-2.168 -0.656,-2.813 -0.43,-0.648 -1.055,-0.968 -1.875,-0.968 -0.813,0 -1.438,0.32 -1.875,0.968 -0.43,0.645 -0.641,1.582 -0.641,2.813 0,1.226 0.211,2.164 0.641,2.812 0.437,0.645 1.062,0.969 1.875,0.969 z" /><path
         id="path352"
         style="fill:#000000;fill-opacity:1;fill-rule:nonzero;stroke:none"
         d="m 401.992,109.217 1.031,0 0,-0.828 -0.796,-1.563 -0.641,0 0.406,1.563 0,0.828 z" /><path
         id="path354"
         style="fill:#000000;fill-opacity:1;fill-rule:nonzero;stroke:none"
         d="m 407.957,111.92 c 0.469,-0.106 0.832,-0.321 1.094,-0.641 0.269,-0.312 0.406,-0.703 0.406,-1.172 0,-0.718 -0.25,-1.277 -0.75,-1.672 -0.492,-0.398 -1.195,-0.593 -2.109,-0.593 -0.305,0 -0.618,0.031 -0.938,0.093 -0.324,0.063 -0.656,0.149 -1,0.266 l 0,0.953 c 0.27,-0.156 0.567,-0.277 0.891,-0.359 0.332,-0.086 0.676,-0.125 1.031,-0.125 0.613,0 1.082,0.117 1.406,0.359 0.321,0.25 0.485,0.61 0.485,1.078 0,0.426 -0.153,0.758 -0.453,1 -0.305,0.239 -0.719,0.36 -1.25,0.36 l -0.86,0 0,0.812 0.891,0 c 0.488,0 0.859,0.098 1.109,0.297 0.258,0.195 0.391,0.477 0.391,0.844 0,0.363 -0.137,0.644 -0.406,0.844 -0.262,0.207 -0.637,0.312 -1.125,0.312 -0.274,0 -0.563,-0.031 -0.875,-0.094 -0.313,-0.054 -0.653,-0.14 -1.016,-0.265 l 0,0.875 c 0.375,0.101 0.723,0.179 1.047,0.234 0.332,0.051 0.64,0.078 0.922,0.078 0.75,0 1.343,-0.172 1.781,-0.515 0.437,-0.336 0.656,-0.793 0.656,-1.375 0,-0.407 -0.117,-0.75 -0.344,-1.032 -0.23,-0.273 -0.558,-0.461 -0.984,-0.562 z" /><path
         id="path356"
         style="fill:#000000;fill-opacity:1;fill-rule:nonzero;stroke:none"
         d="m 410.867,115.279 4.688,0 0,-0.422 -2.657,-6.875 -1.031,0 2.5,6.453 -3.5,0 0,0.844 z" /><path
         id="path358"
         style="fill:#000000;fill-opacity:1;fill-rule:nonzero;stroke:none"
         d="m 67.289,137.42 c -0.5,0 -0.883,-0.25 -1.141,-0.75 -0.25,-0.5 -0.375,-1.25 -0.375,-2.25 0,-1 0.125,-1.75 0.375,-2.25 0.258,-0.5 0.641,-0.75 1.141,-0.75 0.52,0 0.906,0.25 1.156,0.75 0.258,0.5 0.391,1.25 0.391,2.25 0,1 -0.133,1.75 -0.391,2.25 -0.25,0.5 -0.636,0.75 -1.156,0.75 z m 0,0.781 c 0.82,0 1.445,-0.324 1.875,-0.969 0.438,-0.648 0.656,-1.586 0.656,-2.812 0,-1.231 -0.218,-2.168 -0.656,-2.813 -0.43,-0.648 -1.055,-0.968 -1.875,-0.968 -0.812,0 -1.437,0.32 -1.875,0.968 -0.43,0.645 -0.641,1.582 -0.641,2.813 0,1.226 0.211,2.164 0.641,2.812 0.438,0.645 1.063,0.969 1.875,0.969 z" /><path
         id="path360"
         style="fill:#000000;fill-opacity:1;fill-rule:nonzero;stroke:none"
         d="m 71.434,132.014 1.031,0 0,-0.829 -0.797,-1.562 -0.641,0 0.407,1.562 0,0.829 z" /><path
         id="path362"
         style="fill:#000000;fill-opacity:1;fill-rule:nonzero;stroke:none"
         d="m 76.633,134.81 c -0.438,0 -0.789,-0.152 -1.047,-0.453 -0.262,-0.304 -0.391,-0.715 -0.391,-1.234 0,-0.531 0.129,-0.949 0.391,-1.25 0.258,-0.305 0.609,-0.453 1.047,-0.453 0.445,0 0.797,0.148 1.047,0.453 0.258,0.301 0.39,0.719 0.39,1.25 0,0.519 -0.132,0.93 -0.39,1.234 -0.25,0.301 -0.602,0.453 -1.047,0.453 z m 1.969,3.094 0,-0.89 c -0.25,0.113 -0.508,0.203 -0.766,0.265 -0.25,0.063 -0.496,0.094 -0.734,0.094 -0.657,0 -1.157,-0.219 -1.5,-0.656 -0.344,-0.438 -0.54,-1.106 -0.579,-2 0.188,0.281 0.426,0.492 0.719,0.64 0.289,0.157 0.61,0.235 0.953,0.235 0.727,0 1.305,-0.227 1.735,-0.672 0.425,-0.438 0.64,-1.039 0.64,-1.797 0,-0.75 -0.226,-1.356 -0.672,-1.813 -0.437,-0.449 -1.027,-0.671 -1.765,-0.671 -0.844,0 -1.492,0.32 -1.938,0.968 -0.437,0.645 -0.656,1.582 -0.656,2.813 0,1.144 0.27,2.062 0.813,2.75 0.55,0.687 1.285,1.031 2.203,1.031 0.25,0 0.5,-0.027 0.75,-0.078 0.25,-0.043 0.515,-0.117 0.797,-0.219 z" /><path
         id="path364"
         style="fill:#000000;fill-opacity:1;fill-rule:nonzero;stroke:none"
         d="m 83.543,134.717 c 0.469,-0.106 0.832,-0.321 1.094,-0.641 0.269,-0.312 0.406,-0.703 0.406,-1.172 0,-0.719 -0.25,-1.277 -0.75,-1.672 -0.492,-0.398 -1.195,-0.593 -2.109,-0.593 -0.305,0 -0.618,0.031 -0.938,0.093 -0.324,0.063 -0.656,0.149 -1,0.266 l 0,0.953 c 0.27,-0.156 0.566,-0.277 0.891,-0.359 0.332,-0.086 0.675,-0.125 1.031,-0.125 0.613,0 1.082,0.117 1.406,0.359 0.321,0.25 0.485,0.609 0.485,1.078 0,0.426 -0.153,0.758 -0.454,1 -0.304,0.238 -0.718,0.36 -1.25,0.36 l -0.859,0 0,0.812 0.891,0 c 0.488,0 0.859,0.098 1.109,0.297 0.258,0.195 0.391,0.476 0.391,0.844 0,0.363 -0.137,0.644 -0.407,0.843 -0.261,0.207 -0.636,0.313 -1.125,0.313 -0.273,0 -0.562,-0.031 -0.875,-0.094 -0.312,-0.055 -0.652,-0.14 -1.015,-0.265 l 0,0.875 c 0.375,0.101 0.723,0.179 1.047,0.234 0.332,0.051 0.64,0.078 0.922,0.078 0.75,0 1.343,-0.172 1.781,-0.516 0.437,-0.336 0.656,-0.793 0.656,-1.375 0,-0.406 -0.117,-0.75 -0.344,-1.031 -0.23,-0.273 -0.558,-0.461 -0.984,-0.562 z" /><path
         id="path366"
         style="fill:#000000;fill-opacity:1;fill-rule:nonzero;stroke:none"
         d="m 491.887,137.42 c -0.5,0 -0.883,-0.25 -1.141,-0.75 -0.25,-0.5 -0.375,-1.25 -0.375,-2.25 0,-1 0.125,-1.75 0.375,-2.25 0.258,-0.5 0.641,-0.75 1.141,-0.75 0.519,0 0.906,0.25 1.156,0.75 0.258,0.5 0.391,1.25 0.391,2.25 0,1 -0.133,1.75 -0.391,2.25 -0.25,0.5 -0.637,0.75 -1.156,0.75 z m 0,0.781 c 0.82,0 1.445,-0.324 1.875,-0.969 0.437,-0.648 0.656,-1.586 0.656,-2.812 0,-1.231 -0.219,-2.168 -0.656,-2.813 -0.43,-0.648 -1.055,-0.968 -1.875,-0.968 -0.813,0 -1.438,0.32 -1.875,0.968 -0.43,0.645 -0.641,1.582 -0.641,2.813 0,1.226 0.211,2.164 0.641,2.812 0.437,0.645 1.062,0.969 1.875,0.969 z" /><path
         id="path368"
         style="fill:#000000;fill-opacity:1;fill-rule:nonzero;stroke:none"
         d="m 496.031,132.014 1.031,0 0,-0.829 -0.796,-1.562 -0.641,0 0.406,1.562 0,0.829 z" /><path
         id="path370"
         style="fill:#000000;fill-opacity:1;fill-rule:nonzero;stroke:none"
         d="m 501.227,134.81 c -0.438,0 -0.789,-0.152 -1.047,-0.453 -0.262,-0.304 -0.391,-0.715 -0.391,-1.234 0,-0.531 0.129,-0.949 0.391,-1.25 0.258,-0.305 0.609,-0.453 1.047,-0.453 0.445,0 0.796,0.148 1.046,0.453 0.258,0.301 0.391,0.719 0.391,1.25 0,0.519 -0.133,0.93 -0.391,1.234 -0.25,0.301 -0.601,0.453 -1.046,0.453 z m 1.968,3.094 0,-0.89 c -0.25,0.113 -0.507,0.203 -0.765,0.265 -0.25,0.063 -0.496,0.094 -0.735,0.094 -0.656,0 -1.156,-0.219 -1.5,-0.656 -0.343,-0.438 -0.539,-1.106 -0.578,-2 0.188,0.281 0.426,0.492 0.719,0.64 0.289,0.157 0.609,0.235 0.953,0.235 0.727,0 1.305,-0.227 1.734,-0.672 0.426,-0.438 0.641,-1.039 0.641,-1.797 0,-0.75 -0.226,-1.356 -0.672,-1.813 -0.437,-0.449 -1.027,-0.671 -1.765,-0.671 -0.844,0 -1.493,0.32 -1.938,0.968 -0.437,0.645 -0.656,1.582 -0.656,2.813 0,1.144 0.269,2.062 0.812,2.75 0.551,0.687 1.285,1.031 2.203,1.031 0.25,0 0.5,-0.027 0.75,-0.078 0.25,-0.043 0.516,-0.117 0.797,-0.219 z" /><path
         id="path372"
         style="fill:#000000;fill-opacity:1;fill-rule:nonzero;stroke:none"
         d="m 508.137,134.717 c 0.468,-0.106 0.832,-0.321 1.093,-0.641 0.27,-0.312 0.407,-0.703 0.407,-1.172 0,-0.719 -0.25,-1.277 -0.75,-1.672 -0.492,-0.398 -1.196,-0.593 -2.11,-0.593 -0.304,0 -0.617,0.031 -0.937,0.093 -0.324,0.063 -0.656,0.149 -1,0.266 l 0,0.953 c 0.269,-0.156 0.566,-0.277 0.89,-0.359 0.332,-0.086 0.676,-0.125 1.032,-0.125 0.613,0 1.082,0.117 1.406,0.359 0.32,0.25 0.484,0.609 0.484,1.078 0,0.426 -0.152,0.758 -0.453,1 -0.304,0.238 -0.719,0.36 -1.25,0.36 l -0.859,0 0,0.812 0.89,0 c 0.489,0 0.86,0.098 1.11,0.297 0.258,0.195 0.39,0.476 0.39,0.844 0,0.363 -0.136,0.644 -0.406,0.843 -0.262,0.207 -0.636,0.313 -1.125,0.313 -0.273,0 -0.562,-0.031 -0.875,-0.094 -0.312,-0.055 -0.652,-0.14 -1.015,-0.265 l 0,0.875 c 0.375,0.101 0.722,0.179 1.046,0.234 0.333,0.051 0.641,0.078 0.922,0.078 0.75,0 1.344,-0.172 1.782,-0.516 0.437,-0.336 0.656,-0.793 0.656,-1.375 0,-0.406 -0.117,-0.75 -0.344,-1.031 -0.23,-0.273 -0.559,-0.461 -0.984,-0.562 z" /></g></g></svg>