<?xml version="1.0" encoding="UTF-8" standalone="no"?>
<svg
   xmlns:dc="http://purl.org/dc/elements/1.1/"
   xmlns:cc="http://creativecommons.org/ns#"
   xmlns:rdf="http://www.w3.org/1999/02/22-rdf-syntax-ns#"
   xmlns:svg="http://www.w3.org/2000/svg"
   xmlns="http://www.w3.org/2000/svg"
   viewBox="0 0 885.82678 177.16536"
   height="177.16536"
   width="885.82678"
   xml:space="preserve"
   version="1.1"
   id="svg2"><metadata
     id="metadata8"><rdf:RDF><cc:Work
         rdf:about=""><dc:format>image/svg+xml</dc:format><dc:type
           rdf:resource="http://purl.org/dc/dcmitype/StillImage" /></cc:Work></rdf:RDF></metadata><defs
     id="defs6" /><g
     transform="matrix(1.25,0,0,-1.25,0,177.16536)"
     id="g10"><g
       id="g12"><g
         transform="matrix(1,0,0,-1,0,141.73228)"
         id="g14"><path
           id="path16"
           style="fill:#ffffff;fill-opacity:1;fill-rule:nonzero;stroke:#000000;stroke-width:1.43453705;stroke-linecap:butt;stroke-linejoin:miter;stroke-miterlimit:4;stroke-dasharray:none;stroke-opacity:1"
           d="m 190.793,39.234 57.383,0 0,57.383 -57.383,0 0,-57.383 z" /></g><g
         transform="matrix(1,0,0,-1,0,141.73228)"
         id="g18"><path
           id="path20"
           style="fill:none;stroke:#000000;stroke-width:1.43453705;stroke-linecap:butt;stroke-linejoin:miter;stroke-miterlimit:4;stroke-dasharray:none;stroke-opacity:1"
           d="m 248.176,50.711 11.476,0" /></g><g
         transform="matrix(1,0,0,-1,0,141.73228)"
         id="g22"><path
           id="path24"
           style="fill:none;stroke:#000000;stroke-width:1.43453705;stroke-linecap:butt;stroke-linejoin:miter;stroke-miterlimit:4;stroke-dasharray:none;stroke-opacity:1"
           d="m 248.176,85.141 11.476,0" /></g><g
         transform="matrix(1,0,0,-1,0,141.73228)"
         id="g26"><path
           id="path28"
           style="fill:none;stroke:#000000;stroke-width:1.43453705;stroke-linecap:butt;stroke-linejoin:miter;stroke-miterlimit:4;stroke-dasharray:none;stroke-opacity:1"
           d="m 190.793,50.711 -11.477,0" /></g><g
         transform="matrix(1,0,0,-1,0,141.73228)"
         id="g30"><path
           id="path32"
           style="fill:none;stroke:#000000;stroke-width:1.43453705;stroke-linecap:butt;stroke-linejoin:miter;stroke-miterlimit:4;stroke-dasharray:none;stroke-opacity:1"
           d="m 190.793,85.141 -11.477,0" /></g><g
         transform="matrix(1,0,0,-1,0,141.73228)"
         id="g34"><path
           id="path36"
           style="fill:none;stroke:#000000;stroke-width:1.43453705;stroke-linecap:butt;stroke-linejoin:miter;stroke-miterlimit:4;stroke-dasharray:none;stroke-opacity:1"
           d="m 259.652,85.141 189.36,0" /></g><g
         transform="matrix(1,0,0,-1,0,141.73228)"
         id="g38"><path
           id="path40"
           style="fill:none;stroke:#000000;stroke-width:1.43453705;stroke-linecap:butt;stroke-linejoin:miter;stroke-miterlimit:4;stroke-dasharray:none;stroke-opacity:1"
           d="m 259.652,50.711 20.121,0" /></g><g
         transform="matrix(1,0,0,-1,0,141.73228)"
         id="g42"><path
           id="path44"
           style="fill:none;stroke:#000000;stroke-width:1.43453705;stroke-linecap:butt;stroke-linejoin:miter;stroke-miterlimit:4;stroke-dasharray:none;stroke-opacity:1"
           d="m 159.234,50.711 20.082,0" /></g><g
         transform="matrix(1,0,0,-1,0,141.73228)"
         id="g46"><path
           id="path48"
           style="fill:none;stroke:#000000;stroke-width:1.43453705;stroke-linecap:butt;stroke-linejoin:miter;stroke-miterlimit:4;stroke-dasharray:none;stroke-opacity:1"
           d="m 159.234,85.141 20.082,0" /></g><g
         transform="matrix(1,0,0,-1,0,141.73228)"
         id="g50"><path
           id="path52"
           style="fill:none;stroke:#000000;stroke-width:1.43453705;stroke-linecap:butt;stroke-linejoin:miter;stroke-miterlimit:4;stroke-dasharray:none;stroke-opacity:1"
           d="M 296.949,13.414 279.734,50.711" /></g><path
         id="path54"
         style="fill:#000000;fill-opacity:1;fill-rule:nonzero;stroke:none"
         d="m 296.949,128.318 c 0.067,-0.027 0.102,-0.125 0.071,-0.187 -0.032,-0.067 -0.125,-0.102 -0.192,-0.071 -0.062,0.028 -0.101,0.125 -0.07,0.188 0.031,0.066 0.125,0.101 0.191,0.07 z" /><g
         transform="matrix(1,0,0,-1,0,141.73228)"
         id="g56"><path
           id="path58"
           style="fill:none;stroke:#000000;stroke-width:1.43453705;stroke-linecap:butt;stroke-linejoin:miter;stroke-miterlimit:4;stroke-dasharray:none;stroke-opacity:1"
           d="m 296.949,13.414 c 0.067,0.027 0.102,0.125 0.071,0.188 -0.032,0.066 -0.125,0.101 -0.192,0.07 -0.062,-0.027 -0.101,-0.125 -0.07,-0.188 0.031,-0.066 0.125,-0.101 0.191,-0.07" /></g><path
         id="path60"
         style="fill:#000000;fill-opacity:1;fill-rule:nonzero;stroke:none"
         d="m 279.734,91.021 c -0.062,0.032 -0.101,0.125 -0.07,0.192 0.031,0.062 0.125,0.101 0.191,0.07 0.063,-0.031 0.102,-0.125 0.071,-0.191 -0.031,-0.067 -0.125,-0.102 -0.192,-0.071 z" /><g
         transform="matrix(1,0,0,-1,0,141.73228)"
         id="g62"><path
           id="path64"
           style="fill:none;stroke:#000000;stroke-width:1.43453705;stroke-linecap:butt;stroke-linejoin:miter;stroke-miterlimit:4;stroke-dasharray:none;stroke-opacity:1"
           d="m 279.734,50.711 c -0.062,-0.031 -0.101,-0.125 -0.07,-0.191 0.031,-0.063 0.125,-0.102 0.191,-0.071 0.063,0.031 0.102,0.125 0.071,0.192 -0.031,0.066 -0.125,0.101 -0.192,0.07" /></g><g
         transform="matrix(1,0,0,-1,0,141.73228)"
         id="g66"><path
           id="path68"
           style="fill:none;stroke:#000000;stroke-width:1.43453705;stroke-linecap:butt;stroke-linejoin:miter;stroke-miterlimit:4;stroke-dasharray:none;stroke-opacity:1"
           d="m 296.949,13.414 37.297,0" /></g><g
         transform="matrix(1,0,0,-1,0,141.73228)"
         id="g70"><path
           id="path72"
           style="fill:none;stroke:#000000;stroke-width:1.43453705;stroke-linecap:butt;stroke-linejoin:miter;stroke-miterlimit:4;stroke-dasharray:none;stroke-opacity:1"
           d="M 334.246,13.414 317.031,50.711" /></g><path
         id="path74"
         style="fill:#000000;fill-opacity:1;fill-rule:nonzero;stroke:none"
         d="m 334.246,128.318 c 0.066,-0.027 0.102,-0.125 0.07,-0.187 -0.027,-0.067 -0.125,-0.102 -0.191,-0.071 -0.063,0.028 -0.098,0.125 -0.07,0.188 0.031,0.066 0.129,0.101 0.191,0.07 z" /><g
         transform="matrix(1,0,0,-1,0,141.73228)"
         id="g76"><path
           id="path78"
           style="fill:none;stroke:#000000;stroke-width:1.43453705;stroke-linecap:butt;stroke-linejoin:miter;stroke-miterlimit:4;stroke-dasharray:none;stroke-opacity:1"
           d="m 334.246,13.414 c 0.067,0.027 0.102,0.125 0.07,0.188 -0.027,0.066 -0.125,0.101 -0.191,0.07 -0.062,-0.027 -0.098,-0.125 -0.07,-0.188 0.031,-0.066 0.129,-0.101 0.191,-0.07" /></g><path
         id="path80"
         style="fill:#000000;fill-opacity:1;fill-rule:nonzero;stroke:none"
         d="m 317.031,91.021 c -0.062,0.032 -0.097,0.125 -0.07,0.192 0.031,0.062 0.125,0.101 0.191,0.07 0.067,-0.031 0.102,-0.125 0.071,-0.191 -0.028,-0.067 -0.125,-0.102 -0.192,-0.071 z" /><g
         transform="matrix(1,0,0,-1,0,141.73228)"
         id="g82"><path
           id="path84"
           style="fill:none;stroke:#000000;stroke-width:1.43453705;stroke-linecap:butt;stroke-linejoin:miter;stroke-miterlimit:4;stroke-dasharray:none;stroke-opacity:1"
           d="m 317.031,50.711 c -0.062,-0.031 -0.097,-0.125 -0.07,-0.191 0.031,-0.063 0.125,-0.102 0.191,-0.071 0.067,0.031 0.102,0.125 0.071,0.192 -0.028,0.066 -0.125,0.101 -0.192,0.07" /></g><g
         transform="matrix(1,0,0,-1,0,141.73228)"
         id="g86"><path
           id="path88"
           style="fill:none;stroke:#000000;stroke-width:1.43453705;stroke-linecap:butt;stroke-linejoin:miter;stroke-miterlimit:4;stroke-dasharray:none;stroke-opacity:1"
           d="m 317.031,50.711 74.598,0" /></g><g
         transform="matrix(1,0,0,-1,0,141.73228)"
         id="g90"><path
           id="path92"
           style="fill:none;stroke:#000000;stroke-width:1.43453705;stroke-linecap:butt;stroke-linejoin:miter;stroke-miterlimit:4;stroke-dasharray:none;stroke-opacity:1"
           d="M 408.844,13.414 391.629,50.711" /></g><path
         id="path94"
         style="fill:#000000;fill-opacity:1;fill-rule:nonzero;stroke:none"
         d="m 408.844,128.318 c 0.062,-0.027 0.101,-0.125 0.07,-0.187 -0.031,-0.067 -0.125,-0.102 -0.191,-0.071 -0.067,0.028 -0.102,0.125 -0.071,0.188 0.032,0.066 0.125,0.101 0.192,0.07 z" /><g
         transform="matrix(1,0,0,-1,0,141.73228)"
         id="g96"><path
           id="path98"
           style="fill:none;stroke:#000000;stroke-width:1.43453705;stroke-linecap:butt;stroke-linejoin:miter;stroke-miterlimit:4;stroke-dasharray:none;stroke-opacity:1"
           d="m 408.844,13.414 c 0.062,0.027 0.101,0.125 0.07,0.188 -0.031,0.066 -0.125,0.101 -0.191,0.07 -0.067,-0.027 -0.102,-0.125 -0.071,-0.188 0.032,-0.066 0.125,-0.101 0.192,-0.07" /></g><path
         id="path100"
         style="fill:#000000;fill-opacity:1;fill-rule:nonzero;stroke:none"
         d="m 391.629,91.021 c -0.067,0.032 -0.102,0.125 -0.07,0.192 0.031,0.062 0.125,0.101 0.191,0.07 0.062,-0.031 0.098,-0.125 0.07,-0.191 -0.031,-0.067 -0.129,-0.102 -0.191,-0.071 z" /><g
         transform="matrix(1,0,0,-1,0,141.73228)"
         id="g102"><path
           id="path104"
           style="fill:none;stroke:#000000;stroke-width:1.43453705;stroke-linecap:butt;stroke-linejoin:miter;stroke-miterlimit:4;stroke-dasharray:none;stroke-opacity:1"
           d="m 391.629,50.711 c -0.066,-0.031 -0.102,-0.125 -0.07,-0.191 0.031,-0.063 0.125,-0.102 0.191,-0.071 0.063,0.031 0.098,0.125 0.07,0.192 -0.031,0.066 -0.129,0.101 -0.191,0.07" /></g><g
         transform="matrix(1,0,0,-1,0,141.73228)"
         id="g106"><path
           id="path108"
           style="fill:#ffffff;fill-opacity:1;fill-rule:nonzero;stroke:#000000;stroke-width:1.43453705;stroke-linecap:butt;stroke-linejoin:miter;stroke-miterlimit:4;stroke-dasharray:none;stroke-opacity:1"
           d="m 460.488,39.234 57.379,0 0,57.383 -57.379,0 0,-57.383 z" /></g><g
         transform="matrix(1,0,0,-1,0,141.73228)"
         id="g110"><path
           id="path112"
           style="fill:none;stroke:#000000;stroke-width:1.43453705;stroke-linecap:butt;stroke-linejoin:miter;stroke-miterlimit:4;stroke-dasharray:none;stroke-opacity:1"
           d="m 517.867,50.711 11.477,0" /></g><g
         transform="matrix(1,0,0,-1,0,141.73228)"
         id="g114"><path
           id="path116"
           style="fill:none;stroke:#000000;stroke-width:1.43453705;stroke-linecap:butt;stroke-linejoin:miter;stroke-miterlimit:4;stroke-dasharray:none;stroke-opacity:1"
           d="m 517.867,85.141 11.477,0" /></g><g
         transform="matrix(1,0,0,-1,0,141.73228)"
         id="g118"><path
           id="path120"
           style="fill:none;stroke:#000000;stroke-width:1.43453705;stroke-linecap:butt;stroke-linejoin:miter;stroke-miterlimit:4;stroke-dasharray:none;stroke-opacity:1"
           d="m 460.488,50.711 -11.476,0" /></g><g
         transform="matrix(1,0,0,-1,0,141.73228)"
         id="g122"><path
           id="path124"
           style="fill:none;stroke:#000000;stroke-width:1.43453705;stroke-linecap:butt;stroke-linejoin:miter;stroke-miterlimit:4;stroke-dasharray:none;stroke-opacity:1"
           d="m 460.488,85.141 -11.476,0" /></g><g
         transform="matrix(1,0,0,-1,0,141.73228)"
         id="g126"><path
           id="path128"
           style="fill:none;stroke:#000000;stroke-width:1.43453705;stroke-linecap:butt;stroke-linejoin:miter;stroke-miterlimit:4;stroke-dasharray:none;stroke-opacity:1"
           d="m 428.926,50.711 20.086,0" /></g><g
         transform="matrix(1,0,0,-1,0,141.73228)"
         id="g130"><path
           id="path132"
           style="fill:none;stroke:#000000;stroke-width:1.43453705;stroke-linecap:butt;stroke-linejoin:miter;stroke-miterlimit:4;stroke-dasharray:none;stroke-opacity:1"
           d="M 446.141,13.414 428.926,50.711" /></g><path
         id="path134"
         style="fill:#000000;fill-opacity:1;fill-rule:nonzero;stroke:none"
         d="m 446.141,128.318 c 0.066,-0.027 0.101,-0.125 0.07,-0.187 -0.031,-0.067 -0.125,-0.102 -0.191,-0.071 -0.063,0.028 -0.098,0.125 -0.071,0.188 0.031,0.066 0.129,0.101 0.192,0.07 z" /><g
         transform="matrix(1,0,0,-1,0,141.73228)"
         id="g136"><path
           id="path138"
           style="fill:none;stroke:#000000;stroke-width:1.43453705;stroke-linecap:butt;stroke-linejoin:miter;stroke-miterlimit:4;stroke-dasharray:none;stroke-opacity:1"
           d="m 446.141,13.414 c 0.066,0.027 0.101,0.125 0.07,0.188 -0.031,0.066 -0.125,0.101 -0.191,0.07 -0.063,-0.027 -0.098,-0.125 -0.071,-0.188 0.031,-0.066 0.129,-0.101 0.192,-0.07" /></g><path
         id="path140"
         style="fill:#000000;fill-opacity:1;fill-rule:nonzero;stroke:none"
         d="m 428.926,91.021 c -0.063,0.032 -0.098,0.125 -0.071,0.192 0.032,0.062 0.125,0.101 0.192,0.07 0.066,-0.031 0.101,-0.125 0.07,-0.191 -0.031,-0.067 -0.125,-0.102 -0.191,-0.071 z" /><g
         transform="matrix(1,0,0,-1,0,141.73228)"
         id="g142"><path
           id="path144"
           style="fill:none;stroke:#000000;stroke-width:1.43453705;stroke-linecap:butt;stroke-linejoin:miter;stroke-miterlimit:4;stroke-dasharray:none;stroke-opacity:1"
           d="m 428.926,50.711 c -0.063,-0.031 -0.098,-0.125 -0.071,-0.191 0.032,-0.063 0.125,-0.102 0.192,-0.071 0.066,0.031 0.101,0.125 0.07,0.192 -0.031,0.066 -0.125,0.101 -0.191,0.07" /></g><g
         transform="matrix(1,0,0,-1,0,141.73228)"
         id="g146"><path
           id="path148"
           style="fill:none;stroke:#000000;stroke-width:1.43453705;stroke-linecap:butt;stroke-linejoin:miter;stroke-miterlimit:4;stroke-dasharray:none;stroke-opacity:1"
           d="m 408.844,13.414 37.297,0" /></g><g
         transform="matrix(1,0,0,-1,0,141.73228)"
         id="g150"><path
           id="path152"
           style="fill:none;stroke:#000000;stroke-width:1.43453705;stroke-linecap:butt;stroke-linejoin:miter;stroke-miterlimit:4;stroke-dasharray:none;stroke-opacity:1"
           d="m 529.344,50.711 20.086,0" /></g><g
         transform="matrix(1,0,0,-1,0,141.73228)"
         id="g154"><path
           id="path156"
           style="fill:none;stroke:#000000;stroke-width:1.43453705;stroke-linecap:butt;stroke-linejoin:miter;stroke-miterlimit:4;stroke-dasharray:none;stroke-opacity:1"
           d="m 529.344,85.141 20.086,0" /></g><g
         transform="matrix(1,0,0,-1,0,141.73228)"
         id="g158"><path
           id="path160"
           style="fill:none;stroke:#000000;stroke-width:1.43453705;stroke-linecap:butt;stroke-linejoin:miter;stroke-miterlimit:4;stroke-dasharray:none;stroke-opacity:1"
           d="M 566.641,13.414 549.43,50.711" /></g><path
         id="path162"
         style="fill:#000000;fill-opacity:1;fill-rule:nonzero;stroke:none"
         d="m 566.641,128.318 c 0.066,-0.027 0.101,-0.125 0.07,-0.187 -0.027,-0.067 -0.125,-0.102 -0.188,-0.071 -0.066,0.028 -0.101,0.125 -0.07,0.188 0.027,0.066 0.125,0.101 0.188,0.07 z" /><g
         transform="matrix(1,0,0,-1,0,141.73228)"
         id="g164"><path
           id="path166"
           style="fill:none;stroke:#000000;stroke-width:1.43453705;stroke-linecap:butt;stroke-linejoin:miter;stroke-miterlimit:4;stroke-dasharray:none;stroke-opacity:1"
           d="m 566.641,13.414 c 0.066,0.027 0.101,0.125 0.07,0.188 -0.027,0.066 -0.125,0.101 -0.188,0.07 -0.066,-0.027 -0.101,-0.125 -0.07,-0.188 0.027,-0.066 0.125,-0.101 0.188,-0.07" /></g><path
         id="path168"
         style="fill:#000000;fill-opacity:1;fill-rule:nonzero;stroke:none"
         d="m 549.43,91.021 c -0.067,0.032 -0.102,0.125 -0.071,0.192 0.028,0.062 0.121,0.101 0.188,0.07 0.066,-0.031 0.101,-0.125 0.07,-0.191 -0.027,-0.067 -0.125,-0.102 -0.187,-0.071 z" /><g
         transform="matrix(1,0,0,-1,0,141.73228)"
         id="g170"><path
           id="path172"
           style="fill:none;stroke:#000000;stroke-width:1.43453705;stroke-linecap:butt;stroke-linejoin:miter;stroke-miterlimit:4;stroke-dasharray:none;stroke-opacity:1"
           d="m 549.43,50.711 c -0.067,-0.031 -0.102,-0.125 -0.071,-0.191 0.028,-0.063 0.121,-0.102 0.188,-0.071 0.066,0.031 0.101,0.125 0.07,0.192 -0.027,0.066 -0.125,0.101 -0.187,0.07" /></g><g
         transform="matrix(1,0,0,-1,0,141.73228)"
         id="g174"><path
           id="path176"
           style="fill:none;stroke:#000000;stroke-width:1.43453705;stroke-linecap:butt;stroke-linejoin:miter;stroke-miterlimit:4;stroke-dasharray:none;stroke-opacity:1"
           d="m 566.641,13.414 37.3,0" /></g><g
         transform="matrix(1,0,0,-1,0,141.73228)"
         id="g178"><path
           id="path180"
           style="fill:none;stroke:#000000;stroke-width:1.43453705;stroke-linecap:butt;stroke-linejoin:miter;stroke-miterlimit:4;stroke-dasharray:none;stroke-opacity:1"
           d="M 603.941,13.414 586.727,50.711" /></g><path
         id="path182"
         style="fill:#000000;fill-opacity:1;fill-rule:nonzero;stroke:none"
         d="m 603.941,128.318 c 0.063,-0.027 0.098,-0.125 0.071,-0.187 -0.032,-0.067 -0.125,-0.102 -0.192,-0.071 -0.066,0.028 -0.101,0.125 -0.07,0.188 0.031,0.066 0.125,0.101 0.191,0.07 z" /><g
         transform="matrix(1,0,0,-1,0,141.73228)"
         id="g184"><path
           id="path186"
           style="fill:none;stroke:#000000;stroke-width:1.43453705;stroke-linecap:butt;stroke-linejoin:miter;stroke-miterlimit:4;stroke-dasharray:none;stroke-opacity:1"
           d="m 603.941,13.414 c 0.063,0.027 0.098,0.125 0.071,0.188 -0.032,0.066 -0.125,0.101 -0.192,0.07 -0.066,-0.027 -0.101,-0.125 -0.07,-0.188 0.031,-0.066 0.125,-0.101 0.191,-0.07" /></g><path
         id="path188"
         style="fill:#000000;fill-opacity:1;fill-rule:nonzero;stroke:none"
         d="m 586.727,91.021 c -0.067,0.032 -0.102,0.125 -0.071,0.192 0.032,0.062 0.125,0.101 0.192,0.07 0.062,-0.031 0.097,-0.125 0.07,-0.191 -0.031,-0.067 -0.129,-0.102 -0.191,-0.071 z" /><g
         transform="matrix(1,0,0,-1,0,141.73228)"
         id="g190"><path
           id="path192"
           style="fill:none;stroke:#000000;stroke-width:1.43453705;stroke-linecap:butt;stroke-linejoin:miter;stroke-miterlimit:4;stroke-dasharray:none;stroke-opacity:1"
           d="m 586.727,50.711 c -0.067,-0.031 -0.102,-0.125 -0.071,-0.191 0.032,-0.063 0.125,-0.102 0.192,-0.071 0.062,0.031 0.097,0.125 0.07,0.192 -0.031,0.066 -0.129,0.101 -0.191,0.07" /></g><g
         transform="matrix(1,0,0,-1,0,141.73228)"
         id="g194"><path
           id="path196"
           style="fill:none;stroke:#000000;stroke-width:1.43453705;stroke-linecap:butt;stroke-linejoin:miter;stroke-miterlimit:4;stroke-dasharray:none;stroke-opacity:1"
           d="M 176.449,13.414 159.234,50.711" /></g><path
         id="path198"
         style="fill:#000000;fill-opacity:1;fill-rule:nonzero;stroke:none"
         d="m 176.449,128.318 c 0.063,-0.027 0.098,-0.125 0.071,-0.187 -0.032,-0.067 -0.125,-0.102 -0.192,-0.071 -0.066,0.028 -0.101,0.125 -0.07,0.188 0.031,0.066 0.125,0.101 0.191,0.07 z" /><g
         transform="matrix(1,0,0,-1,0,141.73228)"
         id="g200"><path
           id="path202"
           style="fill:none;stroke:#000000;stroke-width:1.43453705;stroke-linecap:butt;stroke-linejoin:miter;stroke-miterlimit:4;stroke-dasharray:none;stroke-opacity:1"
           d="m 176.449,13.414 c 0.063,0.027 0.098,0.125 0.071,0.188 -0.032,0.066 -0.125,0.101 -0.192,0.07 -0.066,-0.027 -0.101,-0.125 -0.07,-0.188 0.031,-0.066 0.125,-0.101 0.191,-0.07" /></g><path
         id="path204"
         style="fill:#000000;fill-opacity:1;fill-rule:nonzero;stroke:none"
         d="m 159.234,91.021 c -0.066,0.032 -0.101,0.125 -0.07,0.192 0.031,0.062 0.125,0.101 0.191,0.07 0.063,-0.031 0.098,-0.125 0.071,-0.191 -0.031,-0.067 -0.129,-0.102 -0.192,-0.071 z" /><g
         transform="matrix(1,0,0,-1,0,141.73228)"
         id="g206"><path
           id="path208"
           style="fill:none;stroke:#000000;stroke-width:1.43453705;stroke-linecap:butt;stroke-linejoin:miter;stroke-miterlimit:4;stroke-dasharray:none;stroke-opacity:1"
           d="m 159.234,50.711 c -0.066,-0.031 -0.101,-0.125 -0.07,-0.191 0.031,-0.063 0.125,-0.102 0.191,-0.071 0.063,0.031 0.098,0.125 0.071,0.192 -0.031,0.066 -0.129,0.101 -0.192,0.07" /></g><g
         transform="matrix(1,0,0,-1,0,141.73228)"
         id="g210"><path
           id="path212"
           style="fill:none;stroke:#000000;stroke-width:1.43453705;stroke-linecap:butt;stroke-linejoin:miter;stroke-miterlimit:4;stroke-dasharray:none;stroke-opacity:1"
           d="m 139.148,13.414 37.301,0" /></g><g
         transform="matrix(1,0,0,-1,0,141.73228)"
         id="g214"><path
           id="path216"
           style="fill:none;stroke:#000000;stroke-width:1.43453705;stroke-linecap:butt;stroke-linejoin:miter;stroke-miterlimit:4;stroke-dasharray:none;stroke-opacity:1"
           d="m 139.148,13.414 -17.21,37.297" /></g><path
         id="path218"
         style="fill:#000000;fill-opacity:1;fill-rule:nonzero;stroke:none"
         d="m 139.148,128.318 c 0.067,-0.027 0.102,-0.125 0.071,-0.187 -0.028,-0.067 -0.125,-0.102 -0.188,-0.071 -0.066,0.028 -0.101,0.125 -0.07,0.188 0.027,0.066 0.125,0.101 0.187,0.07 z" /><g
         transform="matrix(1,0,0,-1,0,141.73228)"
         id="g220"><path
           id="path222"
           style="fill:none;stroke:#000000;stroke-width:1.43453705;stroke-linecap:butt;stroke-linejoin:miter;stroke-miterlimit:4;stroke-dasharray:none;stroke-opacity:1"
           d="m 139.148,13.414 c 0.067,0.027 0.102,0.125 0.071,0.188 -0.028,0.066 -0.125,0.101 -0.188,0.07 -0.066,-0.027 -0.101,-0.125 -0.07,-0.188 0.027,-0.066 0.125,-0.101 0.187,-0.07" /></g><path
         id="path224"
         style="fill:#000000;fill-opacity:1;fill-rule:nonzero;stroke:none"
         d="m 121.938,91.021 c -0.067,0.032 -0.102,0.125 -0.071,0.192 0.028,0.062 0.121,0.101 0.188,0.07 0.066,-0.031 0.101,-0.125 0.07,-0.191 -0.027,-0.067 -0.125,-0.102 -0.187,-0.071 z" /><g
         transform="matrix(1,0,0,-1,0,141.73228)"
         id="g226"><path
           id="path228"
           style="fill:none;stroke:#000000;stroke-width:1.43453705;stroke-linecap:butt;stroke-linejoin:miter;stroke-miterlimit:4;stroke-dasharray:none;stroke-opacity:1"
           d="m 121.938,50.711 c -0.067,-0.031 -0.102,-0.125 -0.071,-0.191 0.028,-0.063 0.121,-0.102 0.188,-0.071 0.066,0.031 0.101,0.125 0.07,0.192 -0.027,0.066 -0.125,0.101 -0.187,0.07" /></g><g
         transform="matrix(1,0,0,-1,0,141.73228)"
         id="g230"><path
           id="path232"
           style="fill:none;stroke:#000000;stroke-width:1.43453705;stroke-linecap:butt;stroke-linejoin:miter;stroke-miterlimit:4;stroke-dasharray:none;stroke-opacity:1"
           d="m 354.332,85.141 -25.844,54.218" /></g><path
         id="path234"
         style="fill:#000000;fill-opacity:1;fill-rule:nonzero;stroke:none"
         d="m 328.488,2.373 c -0.062,0.031 -0.097,0.125 -0.066,0.191 0.031,0.063 0.125,0.098 0.191,0.067 0.063,-0.032 0.098,-0.125 0.067,-0.192 -0.032,-0.062 -0.125,-0.097 -0.192,-0.066 z" /><g
         transform="matrix(1,0,0,-1,0,141.73228)"
         id="g236"><path
           id="path238"
           style="fill:none;stroke:#000000;stroke-width:1.43453705;stroke-linecap:butt;stroke-linejoin:miter;stroke-miterlimit:4;stroke-dasharray:none;stroke-opacity:1"
           d="m 328.488,139.359 c -0.062,-0.031 -0.097,-0.125 -0.066,-0.191 0.031,-0.063 0.125,-0.098 0.191,-0.066 0.063,0.031 0.098,0.125 0.067,0.191 -0.032,0.062 -0.125,0.098 -0.192,0.066" /></g><g
         transform="matrix(1,0,0,-1,0,141.73228)"
         id="g240"><path
           id="path242"
           style="fill:none;stroke:#000000;stroke-width:1.43453705;stroke-linecap:butt;stroke-linejoin:miter;stroke-miterlimit:4;stroke-dasharray:none;stroke-opacity:1"
           d="M 354.332,50.711 328.488,104.93" /></g><path
         id="path244"
         style="fill:#000000;fill-opacity:1;fill-rule:nonzero;stroke:none"
         d="m 328.488,36.803 c -0.062,0.031 -0.097,0.125 -0.066,0.191 0.031,0.063 0.125,0.098 0.191,0.066 0.063,-0.031 0.098,-0.125 0.067,-0.191 -0.032,-0.066 -0.125,-0.098 -0.192,-0.066 z" /><g
         transform="matrix(1,0,0,-1,0,141.73228)"
         id="g246"><path
           id="path248"
           style="fill:none;stroke:#000000;stroke-width:1.43453705;stroke-linecap:butt;stroke-linejoin:miter;stroke-miterlimit:4;stroke-dasharray:none;stroke-opacity:1"
           d="m 328.488,104.93 c -0.062,-0.032 -0.097,-0.125 -0.066,-0.192 0.031,-0.062 0.125,-0.097 0.191,-0.066 0.063,0.031 0.098,0.125 0.067,0.191 -0.032,0.067 -0.125,0.098 -0.192,0.067" /></g><g
         transform="matrix(1,0,0,-1,0,141.73228)"
         id="g250"><path
           id="path252"
           style="fill:none;stroke:#bf00bf;stroke-width:1.43453705;stroke-linecap:butt;stroke-linejoin:miter;stroke-miterlimit:4;stroke-dasharray:5.738149, 5.738149;stroke-dashoffset:0;stroke-opacity:1"
           d="m 328.508,39.234 0,51.645" /></g><g
         transform="matrix(1,0,0,-1,0,141.73228)"
         id="g254"><path
           id="path256"
           style="fill:none;stroke:#bf00bf;stroke-width:1.43453705;stroke-linecap:butt;stroke-linejoin:miter;stroke-miterlimit:4;stroke-dasharray:5.738149, 5.738149;stroke-dashoffset:0;stroke-opacity:1"
           d="m 380.152,39.234 0,51.645" /></g><g
         transform="matrix(1,0,0,-1,0,141.73228)"
         id="g258"><path
           id="path260"
           style="fill:none;stroke:#bf00bf;stroke-width:1.43453705;stroke-linecap:butt;stroke-linejoin:miter;stroke-miterlimit:4;stroke-dasharray:5.738149, 5.738149;stroke-dashoffset:0;stroke-opacity:1"
           d="m 535.082,39.234 0,51.645" /></g><g
         transform="matrix(1,0,0,-1,0,141.73228)"
         id="g262"><path
           id="path264"
           style="fill:none;stroke:#bf00bf;stroke-width:1.43453705;stroke-linecap:butt;stroke-linejoin:miter;stroke-miterlimit:4;stroke-dasharray:5.738149, 5.738149;stroke-dashoffset:0;stroke-opacity:1"
           d="m 173.578,39.234 0,51.645" /></g><path
         id="path266"
         style="fill:#000000;fill-opacity:1;fill-rule:nonzero;stroke:none"
         d="m 213.973,74.818 2.531,-6.75 -0.953,0 -1.531,4.047 -1.891,-4.047 -0.953,0 2.406,5.25 -0.375,0.969 c -0.148,0.406 -0.398,0.609 -0.75,0.609 l -0.469,0 0,0.766 0.578,0 c 0.727,-0.012 1.196,-0.293 1.407,-0.844 z" /><path
         id="path268"
         style="fill:#000000;fill-opacity:1;fill-rule:nonzero;stroke:none"
         d="m 219.176,75.365 0.828,0 -2.547,-8.219 -0.828,0 2.547,8.219 z" /><path
         id="path270"
         style="fill:#000000;fill-opacity:1;fill-rule:nonzero;stroke:none"
         d="m 223.082,71.537 c -0.469,0 -0.84,-0.133 -1.109,-0.391 -0.262,-0.25 -0.391,-0.593 -0.391,-1.031 0,-0.437 0.129,-0.781 0.391,-1.031 0.269,-0.25 0.64,-0.375 1.109,-0.375 0.469,0 0.836,0.125 1.109,0.375 0.27,0.25 0.407,0.594 0.407,1.031 0,0.438 -0.137,0.781 -0.407,1.031 -0.261,0.258 -0.632,0.391 -1.109,0.391 z m -0.984,0.406 c -0.418,0.102 -0.746,0.301 -0.985,0.594 -0.242,0.289 -0.359,0.645 -0.359,1.062 0,0.583 0.207,1.04 0.625,1.375 0.414,0.344 0.984,0.516 1.703,0.516 0.727,0 1.301,-0.172 1.719,-0.516 0.414,-0.335 0.625,-0.792 0.625,-1.375 0,-0.417 -0.121,-0.773 -0.36,-1.062 -0.242,-0.293 -0.57,-0.492 -0.984,-0.594 0.477,-0.105 0.848,-0.32 1.109,-0.64 0.258,-0.325 0.391,-0.719 0.391,-1.188 0,-0.711 -0.215,-1.25 -0.641,-1.625 -0.429,-0.375 -1.046,-0.562 -1.859,-0.562 -0.805,0 -1.422,0.187 -1.859,0.562 -0.43,0.375 -0.641,0.914 -0.641,1.625 0,0.469 0.133,0.863 0.406,1.188 0.27,0.32 0.641,0.535 1.11,0.64 z m -0.36,1.563 c 0,-0.375 0.117,-0.672 0.36,-0.891 0.238,-0.211 0.566,-0.312 0.984,-0.312 0.426,0 0.758,0.101 1,0.312 0.238,0.219 0.359,0.516 0.359,0.891 0,0.375 -0.121,0.664 -0.359,0.875 -0.242,0.218 -0.574,0.328 -1,0.328 -0.418,0 -0.746,-0.11 -0.984,-0.328 -0.243,-0.211 -0.36,-0.5 -0.36,-0.875 z" /><path
         id="path272"
         style="fill:#000000;fill-opacity:1;fill-rule:nonzero;stroke:none"
         d="m 483.664,74.818 2.531,-6.75 -0.953,0 -1.531,4.047 -1.891,-4.047 -0.953,0 2.406,5.25 -0.375,0.969 c -0.148,0.406 -0.398,0.609 -0.75,0.609 l -0.468,0 0,0.766 0.578,0 c 0.726,-0.012 1.195,-0.293 1.406,-0.844 z" /><path
         id="path274"
         style="fill:#000000;fill-opacity:1;fill-rule:nonzero;stroke:none"
         d="m 488.867,75.365 0.828,0 -2.547,-8.219 -0.828,0 2.547,8.219 z" /><path
         id="path276"
         style="fill:#000000;fill-opacity:1;fill-rule:nonzero;stroke:none"
         d="m 492.773,71.537 c -0.468,0 -0.839,-0.133 -1.109,-0.391 -0.262,-0.25 -0.391,-0.593 -0.391,-1.031 0,-0.437 0.129,-0.781 0.391,-1.031 0.27,-0.25 0.641,-0.375 1.109,-0.375 0.469,0 0.836,0.125 1.11,0.375 0.269,0.25 0.406,0.594 0.406,1.031 0,0.438 -0.137,0.781 -0.406,1.031 -0.262,0.258 -0.633,0.391 -1.11,0.391 z m -0.984,0.406 c -0.418,0.102 -0.746,0.301 -0.984,0.594 -0.243,0.289 -0.36,0.645 -0.36,1.062 0,0.583 0.207,1.04 0.625,1.375 0.414,0.344 0.985,0.516 1.703,0.516 0.727,0 1.301,-0.172 1.719,-0.516 0.414,-0.335 0.625,-0.792 0.625,-1.375 0,-0.417 -0.121,-0.773 -0.359,-1.062 -0.242,-0.293 -0.57,-0.492 -0.985,-0.594 0.477,-0.105 0.848,-0.32 1.11,-0.64 0.258,-0.325 0.39,-0.719 0.39,-1.188 0,-0.711 -0.214,-1.25 -0.64,-1.625 -0.43,-0.375 -1.047,-0.562 -1.86,-0.562 -0.804,0 -1.421,0.187 -1.859,0.562 -0.43,0.375 -0.641,0.914 -0.641,1.625 0,0.469 0.133,0.863 0.407,1.188 0.269,0.32 0.64,0.535 1.109,0.64 z m -0.359,1.563 c 0,-0.375 0.117,-0.672 0.359,-0.891 0.238,-0.211 0.566,-0.312 0.984,-0.312 0.426,0 0.758,0.101 1,0.312 0.239,0.219 0.36,0.516 0.36,0.891 0,0.375 -0.121,0.664 -0.36,0.875 -0.242,0.218 -0.574,0.328 -1,0.328 -0.418,0 -0.746,-0.11 -0.984,-0.328 -0.242,-0.211 -0.359,-0.5 -0.359,-0.875 z" /><path
         id="path278"
         style="fill:#000000;fill-opacity:1;fill-rule:nonzero;stroke:none"
         d="m 306.789,132.017 1.625,0 0,5.563 -1.766,-0.344 0,0.891 1.75,0.359 0.985,0 0,-6.469 1.609,0 0,-0.828 -4.203,0 0,0.828 z" /><path
         id="path280"
         style="fill:#000000;fill-opacity:1;fill-rule:nonzero;stroke:none"
         d="m 312.914,132.424 1.031,0 0,-0.828 -0.797,-1.563 -0.64,0 0.406,1.563 0,0.828 z" /><path
         id="path282"
         style="fill:#000000;fill-opacity:1;fill-rule:nonzero;stroke:none"
         d="m 316.758,132.017 3.437,0 0,-0.828 -4.625,0 0,0.828 c 0.375,0.383 0.883,0.907 1.532,1.563 0.644,0.656 1.05,1.078 1.218,1.266 0.313,0.351 0.532,0.648 0.657,0.89 0.125,0.25 0.187,0.492 0.187,0.735 0,0.382 -0.137,0.695 -0.406,0.937 -0.274,0.25 -0.625,0.375 -1.063,0.375 -0.312,0 -0.64,-0.059 -0.984,-0.172 -0.336,-0.105 -0.699,-0.265 -1.094,-0.484 l 0,1 c 0.395,0.156 0.766,0.273 1.11,0.359 0.343,0.082 0.66,0.125 0.953,0.125 0.75,0 1.347,-0.187 1.797,-0.562 0.457,-0.375 0.687,-0.883 0.687,-1.516 0,-0.305 -0.059,-0.59 -0.172,-0.859 -0.117,-0.262 -0.32,-0.575 -0.609,-0.938 -0.086,-0.094 -0.344,-0.371 -0.781,-0.828 -0.438,-0.449 -1.055,-1.078 -1.844,-1.891 z" /><path
         id="path284"
         style="fill:#000000;fill-opacity:1;fill-rule:nonzero;stroke:none"
         d="m 325.086,135.127 c 0.469,-0.106 0.832,-0.32 1.094,-0.641 0.269,-0.312 0.406,-0.703 0.406,-1.172 0,-0.718 -0.25,-1.277 -0.75,-1.672 -0.492,-0.398 -1.195,-0.593 -2.109,-0.593 -0.305,0 -0.618,0.031 -0.938,0.093 -0.324,0.063 -0.656,0.149 -1,0.266 l 0,0.953 c 0.27,-0.156 0.566,-0.277 0.891,-0.359 0.332,-0.086 0.675,-0.125 1.031,-0.125 0.613,0 1.082,0.117 1.406,0.359 0.321,0.25 0.485,0.61 0.485,1.078 0,0.426 -0.153,0.758 -0.454,1 -0.304,0.239 -0.718,0.36 -1.25,0.36 l -0.859,0 0,0.812 0.891,0 c 0.488,0 0.859,0.098 1.109,0.297 0.258,0.195 0.391,0.477 0.391,0.844 0,0.363 -0.137,0.644 -0.407,0.844 -0.261,0.207 -0.636,0.312 -1.125,0.312 -0.273,0 -0.562,-0.031 -0.875,-0.094 -0.312,-0.054 -0.652,-0.14 -1.015,-0.265 l 0,0.875 c 0.375,0.101 0.722,0.179 1.047,0.234 0.332,0.051 0.64,0.078 0.922,0.078 0.75,0 1.343,-0.172 1.781,-0.515 0.437,-0.336 0.656,-0.793 0.656,-1.375 0,-0.407 -0.117,-0.75 -0.344,-1.032 -0.23,-0.273 -0.558,-0.461 -0.984,-0.562 z" /><path
         id="path286"
         style="fill:#000000;fill-opacity:1;fill-rule:nonzero;stroke:none"
         d="m 415.816,132.017 1.625,0 0,5.563 -1.765,-0.344 0,0.891 1.75,0.359 0.984,0 0,-6.469 1.61,0 0,-0.828 -4.204,0 0,0.828 z" /><path
         id="path288"
         style="fill:#000000;fill-opacity:1;fill-rule:nonzero;stroke:none"
         d="m 421.941,132.424 1.032,0 0,-0.828 -0.797,-1.563 -0.641,0 0.406,1.563 0,0.828 z" /><path
         id="path290"
         style="fill:#000000;fill-opacity:1;fill-rule:nonzero;stroke:none"
         d="m 425.785,132.017 3.438,0 0,-0.828 -4.625,0 0,0.828 c 0.375,0.383 0.882,0.907 1.531,1.563 0.644,0.656 1.051,1.078 1.219,1.266 0.312,0.351 0.531,0.648 0.656,0.89 0.125,0.25 0.187,0.492 0.187,0.735 0,0.382 -0.136,0.695 -0.406,0.937 -0.273,0.25 -0.625,0.375 -1.062,0.375 -0.313,0 -0.641,-0.059 -0.985,-0.172 -0.336,-0.105 -0.699,-0.265 -1.093,-0.484 l 0,1 c 0.394,0.156 0.765,0.273 1.109,0.359 0.344,0.082 0.66,0.125 0.953,0.125 0.75,0 1.348,-0.187 1.797,-0.562 0.457,-0.375 0.687,-0.883 0.687,-1.516 0,-0.305 -0.058,-0.59 -0.171,-0.859 -0.118,-0.262 -0.321,-0.575 -0.61,-0.938 -0.086,-0.094 -0.344,-0.371 -0.781,-0.828 -0.438,-0.449 -1.055,-1.078 -1.844,-1.891 z" /><path
         id="path292"
         style="fill:#000000;fill-opacity:1;fill-rule:nonzero;stroke:none"
         d="m 434.109,135.127 c 0.469,-0.106 0.832,-0.32 1.094,-0.641 0.27,-0.312 0.406,-0.703 0.406,-1.172 0,-0.718 -0.25,-1.277 -0.75,-1.672 -0.492,-0.398 -1.195,-0.593 -2.109,-0.593 -0.305,0 -0.617,0.031 -0.938,0.093 -0.324,0.063 -0.656,0.149 -1,0.266 l 0,0.953 c 0.27,-0.156 0.567,-0.277 0.891,-0.359 0.332,-0.086 0.676,-0.125 1.031,-0.125 0.614,0 1.082,0.117 1.407,0.359 0.32,0.25 0.484,0.61 0.484,1.078 0,0.426 -0.152,0.758 -0.453,1 -0.305,0.239 -0.719,0.36 -1.25,0.36 l -0.86,0 0,0.812 0.891,0 c 0.488,0 0.859,0.098 1.109,0.297 0.258,0.195 0.391,0.477 0.391,0.844 0,0.363 -0.137,0.644 -0.406,0.844 -0.262,0.207 -0.637,0.312 -1.125,0.312 -0.274,0 -0.563,-0.031 -0.875,-0.094 -0.313,-0.054 -0.652,-0.14 -1.016,-0.265 l 0,0.875 c 0.375,0.101 0.723,0.179 1.047,0.234 0.332,0.051 0.641,0.078 0.922,0.078 0.75,0 1.344,-0.172 1.781,-0.515 0.438,-0.336 0.657,-0.793 0.657,-1.375 0,-0.407 -0.118,-0.75 -0.344,-1.032 -0.231,-0.273 -0.559,-0.461 -0.985,-0.562 z" /><path
         id="path294"
         style="fill:#000000;fill-opacity:1;fill-rule:nonzero;stroke:none"
         d="m 344.777,97.588 3.438,0 0,-0.828 -4.625,0 0,0.828 c 0.375,0.383 0.883,0.906 1.531,1.562 0.645,0.657 1.051,1.078 1.219,1.266 0.312,0.351 0.531,0.648 0.656,0.891 0.125,0.25 0.188,0.492 0.188,0.734 0,0.383 -0.137,0.695 -0.407,0.937 -0.273,0.25 -0.625,0.375 -1.062,0.375 -0.313,0 -0.641,-0.058 -0.985,-0.171 -0.335,-0.106 -0.699,-0.266 -1.093,-0.485 l 0,1 c 0.394,0.156 0.765,0.274 1.109,0.36 0.344,0.082 0.66,0.125 0.953,0.125 0.75,0 1.348,-0.188 1.797,-0.563 0.457,-0.375 0.688,-0.883 0.688,-1.516 0,-0.304 -0.059,-0.589 -0.172,-0.859 -0.117,-0.262 -0.321,-0.574 -0.61,-0.937 -0.086,-0.094 -0.343,-0.372 -0.781,-0.829 -0.437,-0.449 -1.055,-1.078 -1.844,-1.89 z" /><path
         id="path296"
         style="fill:#000000;fill-opacity:1;fill-rule:nonzero;stroke:none"
         d="m 350.215,97.994 1.031,0 0,-0.828 -0.797,-1.563 -0.64,0 0.406,1.563 0,0.828 z" /><path
         id="path298"
         style="fill:#000000;fill-opacity:1;fill-rule:nonzero;stroke:none"
         d="m 353.211,104.057 3.875,0 0,-0.844 -2.969,0 0,-1.781 c 0.145,0.05 0.285,0.085 0.422,0.109 0.145,0.019 0.289,0.031 0.438,0.031 0.812,0 1.453,-0.226 1.921,-0.672 0.477,-0.437 0.719,-1.039 0.719,-1.797 0,-0.793 -0.246,-1.406 -0.734,-1.843 -0.481,-0.43 -1.168,-0.641 -2.063,-0.641 -0.304,0 -0.617,0.027 -0.937,0.078 -0.313,0.055 -0.641,0.129 -0.985,0.235 l 0,0.984 c 0.301,-0.156 0.61,-0.277 0.922,-0.359 0.313,-0.075 0.641,-0.11 0.985,-0.11 0.562,0 1.004,0.145 1.328,0.438 0.332,0.3 0.5,0.707 0.5,1.218 0,0.5 -0.168,0.895 -0.5,1.188 -0.324,0.301 -0.766,0.453 -1.328,0.453 -0.262,0 -0.528,-0.031 -0.797,-0.094 -0.262,-0.054 -0.528,-0.14 -0.797,-0.265 l 0,3.672 z" /><path
         id="path300"
         style="fill:#000000;fill-opacity:1;fill-rule:nonzero;stroke:none"
         d="m 362.102,103.197 -2.485,-3.89 2.485,0 0,3.89 z m -0.266,0.86 1.25,0 0,-4.75 1.031,0 0,-0.829 -1.031,0 0,-1.718 -0.984,0 0,1.718 -3.297,0 0,0.954 3.031,4.625 z" /><path
         id="path302"
         style="fill:#000000;fill-opacity:1;fill-rule:nonzero;stroke:none"
         d="m 214.051,114.877 c -0.5,0 -0.883,-0.25 -1.141,-0.75 -0.25,-0.5 -0.375,-1.25 -0.375,-2.25 0,-1 0.125,-1.75 0.375,-2.25 0.258,-0.5 0.641,-0.75 1.141,-0.75 0.519,0 0.906,0.25 1.156,0.75 0.258,0.5 0.391,1.25 0.391,2.25 0,1 -0.133,1.75 -0.391,2.25 -0.25,0.5 -0.637,0.75 -1.156,0.75 z m 0,0.781 c 0.82,0 1.445,-0.324 1.875,-0.969 0.437,-0.648 0.656,-1.586 0.656,-2.812 0,-1.231 -0.219,-2.168 -0.656,-2.813 -0.43,-0.648 -1.055,-0.968 -1.875,-0.968 -0.813,0 -1.438,0.32 -1.875,0.968 -0.43,0.645 -0.641,1.582 -0.641,2.813 0,1.226 0.211,2.164 0.641,2.812 0.437,0.645 1.062,0.969 1.875,0.969 z" /><path
         id="path304"
         style="fill:#000000;fill-opacity:1;fill-rule:nonzero;stroke:none"
         d="m 218.234,109.471 1.032,0 0,-0.829 -0.797,-1.562 -0.641,0 0.406,1.562 0,0.829 z" /><path
         id="path306"
         style="fill:#000000;fill-opacity:1;fill-rule:nonzero;stroke:none"
         d="m 224.219,112.174 c 0.469,-0.106 0.832,-0.321 1.093,-0.641 0.27,-0.312 0.407,-0.703 0.407,-1.172 0,-0.719 -0.25,-1.277 -0.75,-1.672 -0.492,-0.398 -1.196,-0.593 -2.11,-0.593 -0.304,0 -0.617,0.031 -0.937,0.093 -0.324,0.063 -0.656,0.149 -1,0.266 l 0,0.953 c 0.269,-0.156 0.566,-0.277 0.89,-0.359 0.333,-0.086 0.676,-0.125 1.032,-0.125 0.613,0 1.082,0.117 1.406,0.359 0.32,0.25 0.484,0.609 0.484,1.078 0,0.426 -0.152,0.758 -0.453,1 -0.304,0.238 -0.719,0.36 -1.25,0.36 l -0.859,0 0,0.812 0.89,0 c 0.489,0 0.86,0.098 1.11,0.297 0.258,0.195 0.39,0.477 0.39,0.844 0,0.363 -0.136,0.644 -0.406,0.843 -0.261,0.207 -0.636,0.313 -1.125,0.313 -0.273,0 -0.562,-0.031 -0.875,-0.094 -0.312,-0.054 -0.652,-0.14 -1.015,-0.265 l 0,0.875 c 0.375,0.101 0.722,0.179 1.047,0.234 0.332,0.051 0.64,0.078 0.921,0.078 0.75,0 1.344,-0.172 1.782,-0.516 0.437,-0.335 0.656,-0.793 0.656,-1.375 0,-0.406 -0.117,-0.75 -0.344,-1.031 -0.23,-0.273 -0.558,-0.461 -0.984,-0.562 z" /><path
         id="path308"
         style="fill:#000000;fill-opacity:1;fill-rule:nonzero;stroke:none"
         d="m 227.172,115.533 4.687,0 0,-0.422 -2.656,-6.875 -1.031,0 2.5,6.453 -3.5,0 0,0.844 z" /><path
         id="path310"
         style="fill:#000000;fill-opacity:1;fill-rule:nonzero;stroke:none"
         d="m 483.742,114.877 c -0.5,0 -0.883,-0.25 -1.14,-0.75 -0.25,-0.5 -0.375,-1.25 -0.375,-2.25 0,-1 0.125,-1.75 0.375,-2.25 0.257,-0.5 0.64,-0.75 1.14,-0.75 0.52,0 0.906,0.25 1.156,0.75 0.258,0.5 0.391,1.25 0.391,2.25 0,1 -0.133,1.75 -0.391,2.25 -0.25,0.5 -0.636,0.75 -1.156,0.75 z m 0,0.781 c 0.82,0 1.446,-0.324 1.875,-0.969 0.438,-0.648 0.656,-1.586 0.656,-2.812 0,-1.231 -0.218,-2.168 -0.656,-2.813 -0.429,-0.648 -1.055,-0.968 -1.875,-0.968 -0.812,0 -1.437,0.32 -1.875,0.968 -0.429,0.645 -0.64,1.582 -0.64,2.813 0,1.226 0.211,2.164 0.64,2.812 0.438,0.645 1.063,0.969 1.875,0.969 z" /><path
         id="path312"
         style="fill:#000000;fill-opacity:1;fill-rule:nonzero;stroke:none"
         d="m 487.93,109.471 1.031,0 0,-0.829 -0.797,-1.562 -0.641,0 0.407,1.562 0,0.829 z" /><path
         id="path314"
         style="fill:#000000;fill-opacity:1;fill-rule:nonzero;stroke:none"
         d="m 493.914,112.174 c 0.469,-0.106 0.832,-0.321 1.094,-0.641 0.269,-0.312 0.406,-0.703 0.406,-1.172 0,-0.719 -0.25,-1.277 -0.75,-1.672 -0.492,-0.398 -1.195,-0.593 -2.109,-0.593 -0.305,0 -0.617,0.031 -0.938,0.093 -0.324,0.063 -0.656,0.149 -1,0.266 l 0,0.953 c 0.27,-0.156 0.567,-0.277 0.891,-0.359 0.332,-0.086 0.676,-0.125 1.031,-0.125 0.613,0 1.082,0.117 1.406,0.359 0.321,0.25 0.485,0.609 0.485,1.078 0,0.426 -0.153,0.758 -0.453,1 -0.305,0.238 -0.719,0.36 -1.25,0.36 l -0.86,0 0,0.812 0.891,0 c 0.488,0 0.859,0.098 1.109,0.297 0.258,0.195 0.391,0.477 0.391,0.844 0,0.363 -0.137,0.644 -0.406,0.843 -0.262,0.207 -0.637,0.313 -1.125,0.313 -0.274,0 -0.563,-0.031 -0.875,-0.094 -0.313,-0.054 -0.653,-0.14 -1.016,-0.265 l 0,0.875 c 0.375,0.101 0.723,0.179 1.047,0.234 0.332,0.051 0.64,0.078 0.922,0.078 0.75,0 1.343,-0.172 1.781,-0.516 0.437,-0.335 0.656,-0.793 0.656,-1.375 0,-0.406 -0.117,-0.75 -0.344,-1.031 -0.23,-0.273 -0.558,-0.461 -0.984,-0.562 z" /><path
         id="path316"
         style="fill:#000000;fill-opacity:1;fill-rule:nonzero;stroke:none"
         d="m 496.863,115.533 4.688,0 0,-0.422 -2.656,-6.875 -1.032,0 2.5,6.453 -3.5,0 0,0.844 z" /><path
         id="path318"
         style="fill:#000000;fill-opacity:1;fill-rule:nonzero;stroke:none"
         d="m 150.93,137.83 c -0.5,0 -0.883,-0.25 -1.141,-0.75 -0.25,-0.5 -0.375,-1.25 -0.375,-2.25 0,-1 0.125,-1.75 0.375,-2.25 0.258,-0.5 0.641,-0.75 1.141,-0.75 0.519,0 0.906,0.25 1.156,0.75 0.258,0.5 0.391,1.25 0.391,2.25 0,1 -0.133,1.75 -0.391,2.25 -0.25,0.5 -0.637,0.75 -1.156,0.75 z m 0,0.781 c 0.82,0 1.445,-0.324 1.875,-0.969 0.437,-0.648 0.656,-1.585 0.656,-2.812 0,-1.231 -0.219,-2.168 -0.656,-2.813 -0.43,-0.648 -1.055,-0.968 -1.875,-0.968 -0.813,0 -1.438,0.32 -1.875,0.968 -0.43,0.645 -0.641,1.582 -0.641,2.813 0,1.227 0.211,2.164 0.641,2.812 0.437,0.645 1.062,0.969 1.875,0.969 z" /><path
         id="path320"
         style="fill:#000000;fill-opacity:1;fill-rule:nonzero;stroke:none"
         d="m 155.117,132.424 1.031,0 0,-0.828 -0.796,-1.563 -0.641,0 0.406,1.563 0,0.828 z" /><path
         id="path322"
         style="fill:#000000;fill-opacity:1;fill-rule:nonzero;stroke:none"
         d="m 160.336,135.221 c -0.438,0 -0.789,-0.153 -1.047,-0.454 -0.262,-0.304 -0.391,-0.714 -0.391,-1.234 0,-0.531 0.129,-0.949 0.391,-1.25 0.258,-0.305 0.609,-0.453 1.047,-0.453 0.445,0 0.797,0.148 1.047,0.453 0.258,0.301 0.39,0.719 0.39,1.25 0,0.52 -0.132,0.93 -0.39,1.234 -0.25,0.301 -0.602,0.454 -1.047,0.454 z m 1.969,3.093 0,-0.89 c -0.25,0.113 -0.508,0.203 -0.766,0.265 -0.25,0.063 -0.496,0.094 -0.734,0.094 -0.657,0 -1.157,-0.219 -1.5,-0.656 -0.344,-0.438 -0.539,-1.106 -0.578,-2 0.187,0.281 0.425,0.492 0.718,0.64 0.289,0.157 0.61,0.235 0.953,0.235 0.727,0 1.305,-0.227 1.735,-0.672 0.426,-0.438 0.64,-1.039 0.64,-1.797 0,-0.75 -0.226,-1.355 -0.671,-1.812 -0.438,-0.45 -1.028,-0.672 -1.766,-0.672 -0.844,0 -1.492,0.32 -1.938,0.968 -0.437,0.645 -0.656,1.582 -0.656,2.813 0,1.144 0.27,2.062 0.813,2.75 0.55,0.687 1.285,1.031 2.203,1.031 0.25,0 0.5,-0.027 0.75,-0.078 0.25,-0.043 0.515,-0.117 0.797,-0.219 z" /><path
         id="path324"
         style="fill:#000000;fill-opacity:1;fill-rule:nonzero;stroke:none"
         d="m 167.285,135.127 c 0.469,-0.106 0.832,-0.32 1.094,-0.641 0.269,-0.312 0.406,-0.703 0.406,-1.172 0,-0.718 -0.25,-1.277 -0.75,-1.672 -0.492,-0.398 -1.195,-0.593 -2.109,-0.593 -0.305,0 -0.617,0.031 -0.938,0.093 -0.324,0.063 -0.656,0.149 -1,0.266 l 0,0.953 c 0.27,-0.156 0.567,-0.277 0.891,-0.359 0.332,-0.086 0.676,-0.125 1.031,-0.125 0.613,0 1.082,0.117 1.406,0.359 0.321,0.25 0.485,0.61 0.485,1.078 0,0.426 -0.153,0.758 -0.453,1 -0.305,0.239 -0.719,0.36 -1.25,0.36 l -0.86,0 0,0.812 0.891,0 c 0.488,0 0.859,0.098 1.109,0.297 0.258,0.195 0.391,0.477 0.391,0.844 0,0.363 -0.137,0.644 -0.406,0.844 -0.262,0.207 -0.637,0.312 -1.125,0.312 -0.274,0 -0.563,-0.031 -0.875,-0.094 -0.313,-0.054 -0.653,-0.14 -1.016,-0.265 l 0,0.875 c 0.375,0.101 0.723,0.179 1.047,0.234 0.332,0.051 0.641,0.078 0.922,0.078 0.75,0 1.344,-0.172 1.781,-0.515 0.438,-0.336 0.656,-0.793 0.656,-1.375 0,-0.407 -0.117,-0.75 -0.343,-1.032 -0.231,-0.273 -0.559,-0.461 -0.985,-0.562 z" /><path
         id="path326"
         style="fill:#000000;fill-opacity:1;fill-rule:nonzero;stroke:none"
         d="m 578.422,137.83 c -0.5,0 -0.883,-0.25 -1.141,-0.75 -0.25,-0.5 -0.375,-1.25 -0.375,-2.25 0,-1 0.125,-1.75 0.375,-2.25 0.258,-0.5 0.641,-0.75 1.141,-0.75 0.519,0 0.906,0.25 1.156,0.75 0.258,0.5 0.391,1.25 0.391,2.25 0,1 -0.133,1.75 -0.391,2.25 -0.25,0.5 -0.637,0.75 -1.156,0.75 z m 0,0.781 c 0.82,0 1.445,-0.324 1.875,-0.969 0.437,-0.648 0.656,-1.585 0.656,-2.812 0,-1.231 -0.219,-2.168 -0.656,-2.813 -0.43,-0.648 -1.055,-0.968 -1.875,-0.968 -0.813,0 -1.438,0.32 -1.875,0.968 -0.43,0.645 -0.641,1.582 -0.641,2.813 0,1.227 0.211,2.164 0.641,2.812 0.437,0.645 1.062,0.969 1.875,0.969 z" /><path
         id="path328"
         style="fill:#000000;fill-opacity:1;fill-rule:nonzero;stroke:none"
         d="m 582.609,132.424 1.032,0 0,-0.828 -0.797,-1.563 -0.641,0 0.406,1.563 0,0.828 z" /><path
         id="path330"
         style="fill:#000000;fill-opacity:1;fill-rule:nonzero;stroke:none"
         d="m 587.828,135.221 c -0.437,0 -0.789,-0.153 -1.047,-0.454 -0.261,-0.304 -0.39,-0.714 -0.39,-1.234 0,-0.531 0.129,-0.949 0.39,-1.25 0.258,-0.305 0.61,-0.453 1.047,-0.453 0.445,0 0.797,0.148 1.047,0.453 0.258,0.301 0.391,0.719 0.391,1.25 0,0.52 -0.133,0.93 -0.391,1.234 -0.25,0.301 -0.602,0.454 -1.047,0.454 z m 1.969,3.093 0,-0.89 c -0.25,0.113 -0.508,0.203 -0.766,0.265 -0.25,0.063 -0.496,0.094 -0.734,0.094 -0.656,0 -1.156,-0.219 -1.5,-0.656 -0.344,-0.438 -0.539,-1.106 -0.578,-2 0.187,0.281 0.426,0.492 0.719,0.64 0.289,0.157 0.609,0.235 0.953,0.235 0.726,0 1.304,-0.227 1.734,-0.672 0.426,-0.438 0.641,-1.039 0.641,-1.797 0,-0.75 -0.227,-1.355 -0.672,-1.812 -0.438,-0.45 -1.028,-0.672 -1.766,-0.672 -0.844,0 -1.492,0.32 -1.937,0.968 -0.438,0.645 -0.657,1.582 -0.657,2.813 0,1.144 0.27,2.062 0.813,2.75 0.551,0.687 1.285,1.031 2.203,1.031 0.25,0 0.5,-0.027 0.75,-0.078 0.25,-0.043 0.516,-0.117 0.797,-0.219 z" /><path
         id="path332"
         style="fill:#000000;fill-opacity:1;fill-rule:nonzero;stroke:none"
         d="m 594.777,135.127 c 0.469,-0.106 0.832,-0.32 1.094,-0.641 0.27,-0.312 0.406,-0.703 0.406,-1.172 0,-0.718 -0.25,-1.277 -0.75,-1.672 -0.492,-0.398 -1.195,-0.593 -2.109,-0.593 -0.305,0 -0.617,0.031 -0.938,0.093 -0.324,0.063 -0.656,0.149 -1,0.266 l 0,0.953 c 0.27,-0.156 0.567,-0.277 0.891,-0.359 0.332,-0.086 0.676,-0.125 1.031,-0.125 0.614,0 1.082,0.117 1.407,0.359 0.32,0.25 0.484,0.61 0.484,1.078 0,0.426 -0.152,0.758 -0.453,1 -0.305,0.239 -0.719,0.36 -1.25,0.36 l -0.86,0 0,0.812 0.891,0 c 0.488,0 0.859,0.098 1.109,0.297 0.258,0.195 0.391,0.477 0.391,0.844 0,0.363 -0.137,0.644 -0.406,0.844 -0.262,0.207 -0.637,0.312 -1.125,0.312 -0.274,0 -0.563,-0.031 -0.875,-0.094 -0.313,-0.054 -0.653,-0.14 -1.016,-0.265 l 0,0.875 c 0.375,0.101 0.723,0.179 1.047,0.234 0.332,0.051 0.641,0.078 0.922,0.078 0.75,0 1.344,-0.172 1.781,-0.515 0.438,-0.336 0.656,-0.793 0.656,-1.375 0,-0.407 -0.117,-0.75 -0.343,-1.032 -0.231,-0.273 -0.559,-0.461 -0.985,-0.562 z" /><g
         transform="matrix(1,0,0,-1,0,141.73228)"
         id="g334"><path
           id="path336"
           style="fill:none;stroke:#000000;stroke-width:1.43453705;stroke-linecap:butt;stroke-linejoin:miter;stroke-miterlimit:4;stroke-dasharray:none;stroke-opacity:1"
           d="m 121.938,85.141 37.296,0" /></g><g
         transform="matrix(1,0,0,-1,0,141.73228)"
         id="g338"><path
           id="path340"
           style="fill:none;stroke:#000000;stroke-width:1.43453705;stroke-linecap:butt;stroke-linejoin:miter;stroke-miterlimit:4;stroke-dasharray:none;stroke-opacity:1"
           d="m 101.852,50.711 20.086,0" /></g><g
         transform="matrix(1,0,0,-1,0,141.73228)"
         id="g342"><path
           id="path344"
           style="fill:none;stroke:#000000;stroke-width:1.43453705;stroke-linecap:butt;stroke-linejoin:miter;stroke-miterlimit:4;stroke-dasharray:none;stroke-opacity:1"
           d="m 101.852,85.141 20.086,0" /></g><g
         transform="matrix(1,0,0,-1,0,141.73228)"
         id="g346"><path
           id="path348"
           style="fill:#ffffff;fill-opacity:1;fill-rule:nonzero;stroke:#000000;stroke-width:1.43453705;stroke-linecap:butt;stroke-linejoin:miter;stroke-miterlimit:4;stroke-dasharray:none;stroke-opacity:1"
           d="m 32.996,39.234 57.379,0 0,57.383 -57.379,0 0,-57.383 z" /></g><g
         transform="matrix(1,0,0,-1,0,141.73228)"
         id="g350"><path
           id="path352"
           style="fill:none;stroke:#000000;stroke-width:1.43453705;stroke-linecap:butt;stroke-linejoin:miter;stroke-miterlimit:4;stroke-dasharray:none;stroke-opacity:1"
           d="m 90.375,50.711 11.477,0" /></g><g
         transform="matrix(1,0,0,-1,0,141.73228)"
         id="g354"><path
           id="path356"
           style="fill:none;stroke:#000000;stroke-width:1.43453705;stroke-linecap:butt;stroke-linejoin:miter;stroke-miterlimit:4;stroke-dasharray:none;stroke-opacity:1"
           d="m 90.375,85.141 11.477,0" /></g><g
         transform="matrix(1,0,0,-1,0,141.73228)"
         id="g358"><path
           id="path360"
           style="fill:none;stroke:#000000;stroke-width:1.43453705;stroke-linecap:butt;stroke-linejoin:miter;stroke-miterlimit:4;stroke-dasharray:none;stroke-opacity:1"
           d="m 32.996,50.711 -11.476,0" /></g><g
         transform="matrix(1,0,0,-1,0,141.73228)"
         id="g362"><path
           id="path364"
           style="fill:none;stroke:#000000;stroke-width:1.43453705;stroke-linecap:butt;stroke-linejoin:miter;stroke-miterlimit:4;stroke-dasharray:none;stroke-opacity:1"
           d="m 32.996,85.141 -11.476,0" /></g><g
         transform="matrix(1,0,0,-1,0,141.73228)"
         id="g366"><path
           id="path368"
           style="fill:none;stroke:#000000;stroke-width:1.43453705;stroke-linecap:butt;stroke-linejoin:miter;stroke-miterlimit:4;stroke-dasharray:none;stroke-opacity:1"
           d="m 7.891,50.711 13.629,0" /></g><path
         id="path370"
         style="fill:#ffffff;fill-opacity:1;fill-rule:nonzero;stroke:none"
         d="m 2.152,91.021 c 0,1.434 1.434,2.868 2.868,2.868 1.437,0 2.871,-1.434 2.871,-2.868 0,-1.433 -1.434,-2.867 -2.871,-2.867 -1.434,0 -2.868,1.434 -2.868,2.867 z" /><g
         transform="matrix(1,0,0,-1,0,141.73228)"
         id="g372"><path
           id="path374"
           style="fill:none;stroke:#000000;stroke-width:1.43453705;stroke-linecap:butt;stroke-linejoin:miter;stroke-miterlimit:4;stroke-dasharray:none;stroke-opacity:1"
           d="m 2.152,50.711 c 0,-1.434 1.434,-2.867 2.868,-2.867 1.437,0 2.871,1.433 2.871,2.867 0,1.434 -1.434,2.867 -2.871,2.867 -1.434,0 -2.868,-1.433 -2.868,-2.867" /></g><g
         transform="matrix(1,0,0,-1,0,141.73228)"
         id="g376"><path
           id="path378"
           style="fill:none;stroke:#000000;stroke-width:1.43453705;stroke-linecap:butt;stroke-linejoin:miter;stroke-miterlimit:4;stroke-dasharray:none;stroke-opacity:1"
           d="m 7.891,85.141 13.629,0" /></g><path
         id="path380"
         style="fill:#ffffff;fill-opacity:1;fill-rule:nonzero;stroke:none"
         d="m 2.152,56.592 c 0,1.433 1.434,2.871 2.868,2.871 1.437,0 2.871,-1.438 2.871,-2.871 0,-1.434 -1.434,-2.868 -2.871,-2.868 -1.434,0 -2.868,1.434 -2.868,2.868 z" /><g
         transform="matrix(1,0,0,-1,0,141.73228)"
         id="g382"><path
           id="path384"
           style="fill:none;stroke:#000000;stroke-width:1.43453705;stroke-linecap:butt;stroke-linejoin:miter;stroke-miterlimit:4;stroke-dasharray:none;stroke-opacity:1"
           d="m 2.152,85.141 c 0,-1.434 1.434,-2.871 2.868,-2.871 1.437,0 2.871,1.437 2.871,2.871 0,1.433 -1.434,2.867 -2.871,2.867 -1.434,0 -2.868,-1.434 -2.868,-2.867" /></g><path
         id="path386"
         style="fill:#000000;fill-opacity:1;fill-rule:nonzero;stroke:none"
         d="m 56.172,74.818 2.531,-6.75 -0.953,0 -1.531,4.047 -1.891,-4.047 -0.953,0 2.406,5.25 -0.375,0.969 c -0.148,0.406 -0.398,0.609 -0.75,0.609 l -0.468,0 0,0.766 0.578,0 c 0.726,-0.012 1.195,-0.293 1.406,-0.844 z" /><path
         id="path388"
         style="fill:#000000;fill-opacity:1;fill-rule:nonzero;stroke:none"
         d="m 61.375,75.365 0.828,0 -2.547,-8.219 -0.828,0 2.547,8.219 z" /><path
         id="path390"
         style="fill:#000000;fill-opacity:1;fill-rule:nonzero;stroke:none"
         d="m 65.281,71.537 c -0.469,0 -0.84,-0.133 -1.109,-0.391 -0.262,-0.25 -0.391,-0.593 -0.391,-1.031 0,-0.437 0.129,-0.781 0.391,-1.031 0.269,-0.25 0.64,-0.375 1.109,-0.375 0.469,0 0.836,0.125 1.11,0.375 0.269,0.25 0.406,0.594 0.406,1.031 0,0.438 -0.137,0.781 -0.406,1.031 -0.262,0.258 -0.633,0.391 -1.11,0.391 z m -0.984,0.406 c -0.418,0.102 -0.746,0.301 -0.985,0.594 -0.242,0.289 -0.359,0.645 -0.359,1.062 0,0.583 0.207,1.04 0.625,1.375 0.414,0.344 0.984,0.516 1.703,0.516 0.727,0 1.301,-0.172 1.719,-0.516 0.414,-0.335 0.625,-0.792 0.625,-1.375 0,-0.417 -0.121,-0.773 -0.359,-1.062 -0.243,-0.293 -0.571,-0.492 -0.985,-0.594 0.477,-0.105 0.848,-0.32 1.11,-0.64 0.257,-0.325 0.39,-0.719 0.39,-1.188 0,-0.711 -0.215,-1.25 -0.64,-1.625 -0.43,-0.375 -1.047,-0.562 -1.86,-0.562 -0.804,0 -1.422,0.187 -1.859,0.562 -0.43,0.375 -0.641,0.914 -0.641,1.625 0,0.469 0.133,0.863 0.407,1.188 0.269,0.32 0.64,0.535 1.109,0.64 z m -0.359,1.563 c 0,-0.375 0.117,-0.672 0.359,-0.891 0.238,-0.211 0.566,-0.312 0.984,-0.312 0.426,0 0.758,0.101 1,0.312 0.239,0.219 0.36,0.516 0.36,0.891 0,0.375 -0.121,0.664 -0.36,0.875 -0.242,0.218 -0.574,0.328 -1,0.328 -0.418,0 -0.746,-0.11 -0.984,-0.328 -0.242,-0.211 -0.359,-0.5 -0.359,-0.875 z" /><path
         id="path392"
         style="fill:#000000;fill-opacity:1;fill-rule:nonzero;stroke:none"
         d="m 60.051,109.064 1.625,0 0,5.563 -1.766,-0.344 0,0.891 1.75,0.359 0.985,0 0,-6.469 1.609,0 0,-0.828 -4.203,0 0,0.828 z" /><g
         transform="matrix(1,0,0,-1,0,141.73228)"
         id="g394"><path
           id="path396"
           style="fill:none;stroke:#000000;stroke-width:1.43453705;stroke-linecap:butt;stroke-linejoin:miter;stroke-miterlimit:4;stroke-dasharray:none;stroke-opacity:1"
           d="m 549.43,85.141 37.297,0" /></g><g
         transform="matrix(1,0,0,-1,0,141.73228)"
         id="g398"><path
           id="path400"
           style="fill:none;stroke:#000000;stroke-width:1.43453705;stroke-linecap:butt;stroke-linejoin:miter;stroke-miterlimit:4;stroke-dasharray:none;stroke-opacity:1"
           d="m 586.727,50.711 20.082,0" /></g><g
         transform="matrix(1,0,0,-1,0,141.73228)"
         id="g402"><path
           id="path404"
           style="fill:none;stroke:#000000;stroke-width:1.43453705;stroke-linecap:butt;stroke-linejoin:miter;stroke-miterlimit:4;stroke-dasharray:none;stroke-opacity:1"
           d="m 586.727,85.141 20.082,0" /></g><g
         transform="matrix(1,0,0,-1,0,141.73228)"
         id="g406"><path
           id="path408"
           style="fill:#ffffff;fill-opacity:1;fill-rule:nonzero;stroke:#000000;stroke-width:1.43453705;stroke-linecap:butt;stroke-linejoin:miter;stroke-miterlimit:4;stroke-dasharray:none;stroke-opacity:1"
           d="m 618.285,39.234 57.383,0 0,57.383 -57.383,0 0,-57.383 z" /></g><g
         transform="matrix(1,0,0,-1,0,141.73228)"
         id="g410"><path
           id="path412"
           style="fill:none;stroke:#000000;stroke-width:1.43453705;stroke-linecap:butt;stroke-linejoin:miter;stroke-miterlimit:4;stroke-dasharray:none;stroke-opacity:1"
           d="m 675.668,50.711 11.477,0" /></g><g
         transform="matrix(1,0,0,-1,0,141.73228)"
         id="g414"><path
           id="path416"
           style="fill:none;stroke:#000000;stroke-width:1.43453705;stroke-linecap:butt;stroke-linejoin:miter;stroke-miterlimit:4;stroke-dasharray:none;stroke-opacity:1"
           d="m 675.668,85.141 11.477,0" /></g><g
         transform="matrix(1,0,0,-1,0,141.73228)"
         id="g418"><path
           id="path420"
           style="fill:none;stroke:#000000;stroke-width:1.43453705;stroke-linecap:butt;stroke-linejoin:miter;stroke-miterlimit:4;stroke-dasharray:none;stroke-opacity:1"
           d="m 618.285,50.711 -11.476,0" /></g><g
         transform="matrix(1,0,0,-1,0,141.73228)"
         id="g422"><path
           id="path424"
           style="fill:none;stroke:#000000;stroke-width:1.43453705;stroke-linecap:butt;stroke-linejoin:miter;stroke-miterlimit:4;stroke-dasharray:none;stroke-opacity:1"
           d="m 618.285,85.141 -11.476,0" /></g><g
         transform="matrix(1,0,0,-1,0,141.73228)"
         id="g426"><path
           id="path428"
           style="fill:none;stroke:#000000;stroke-width:1.43453705;stroke-linecap:butt;stroke-linejoin:miter;stroke-miterlimit:4;stroke-dasharray:none;stroke-opacity:1"
           d="m 687.145,85.141 13.625,0" /></g><path
         id="path430"
         style="fill:#ffffff;fill-opacity:1;fill-rule:nonzero;stroke:none"
         d="m 706.508,56.592 c 0,-1.434 -1.434,-2.868 -2.867,-2.868 -1.434,0 -2.871,1.434 -2.871,2.868 0,1.433 1.437,2.871 2.871,2.871 1.433,0 2.867,-1.438 2.867,-2.871 z" /><g
         transform="matrix(1,0,0,-1,0,141.73228)"
         id="g432"><path
           id="path434"
           style="fill:none;stroke:#000000;stroke-width:1.43453705;stroke-linecap:butt;stroke-linejoin:miter;stroke-miterlimit:4;stroke-dasharray:none;stroke-opacity:1"
           d="m 706.508,85.141 c 0,1.433 -1.434,2.867 -2.867,2.867 -1.434,0 -2.871,-1.434 -2.871,-2.867 0,-1.434 1.437,-2.871 2.871,-2.871 1.433,0 2.867,1.437 2.867,2.871" /></g><g
         transform="matrix(1,0,0,-1,0,141.73228)"
         id="g436"><path
           id="path438"
           style="fill:none;stroke:#000000;stroke-width:1.43453705;stroke-linecap:butt;stroke-linejoin:miter;stroke-miterlimit:4;stroke-dasharray:none;stroke-opacity:1"
           d="m 687.145,50.711 13.625,0" /></g><path
         id="path440"
         style="fill:#ffffff;fill-opacity:1;fill-rule:nonzero;stroke:none"
         d="m 706.508,91.021 c 0,-1.433 -1.434,-2.867 -2.867,-2.867 -1.434,0 -2.871,1.434 -2.871,2.867 0,1.434 1.437,2.868 2.871,2.868 1.433,0 2.867,-1.434 2.867,-2.868 z" /><g
         transform="matrix(1,0,0,-1,0,141.73228)"
         id="g442"><path
           id="path444"
           style="fill:none;stroke:#000000;stroke-width:1.43453705;stroke-linecap:butt;stroke-linejoin:miter;stroke-miterlimit:4;stroke-dasharray:none;stroke-opacity:1"
           d="m 706.508,50.711 c 0,1.434 -1.434,2.867 -2.867,2.867 -1.434,0 -2.871,-1.433 -2.871,-2.867 0,-1.434 1.437,-2.867 2.871,-2.867 1.433,0 2.867,1.433 2.867,2.867" /></g><path
         id="path446"
         style="fill:#000000;fill-opacity:1;fill-rule:nonzero;stroke:none"
         d="m 641.461,74.818 2.531,-6.75 -0.953,0 -1.531,4.047 -1.891,-4.047 -0.953,0 2.406,5.25 -0.375,0.969 c -0.148,0.406 -0.398,0.609 -0.75,0.609 l -0.468,0 0,0.766 0.578,0 c 0.726,-0.012 1.195,-0.293 1.406,-0.844 z" /><path
         id="path448"
         style="fill:#000000;fill-opacity:1;fill-rule:nonzero;stroke:none"
         d="m 646.668,75.365 0.828,0 -2.547,-8.219 -0.828,0 2.547,8.219 z" /><path
         id="path450"
         style="fill:#000000;fill-opacity:1;fill-rule:nonzero;stroke:none"
         d="m 650.574,71.537 c -0.469,0 -0.84,-0.133 -1.109,-0.391 -0.262,-0.25 -0.391,-0.593 -0.391,-1.031 0,-0.437 0.129,-0.781 0.391,-1.031 0.269,-0.25 0.64,-0.375 1.109,-0.375 0.469,0 0.836,0.125 1.11,0.375 0.269,0.25 0.406,0.594 0.406,1.031 0,0.438 -0.137,0.781 -0.406,1.031 -0.262,0.258 -0.633,0.391 -1.11,0.391 z m -0.984,0.406 c -0.418,0.102 -0.746,0.301 -0.985,0.594 -0.242,0.289 -0.359,0.645 -0.359,1.062 0,0.583 0.207,1.04 0.625,1.375 0.414,0.344 0.984,0.516 1.703,0.516 0.727,0 1.301,-0.172 1.719,-0.516 0.414,-0.335 0.625,-0.792 0.625,-1.375 0,-0.417 -0.121,-0.773 -0.359,-1.062 -0.243,-0.293 -0.571,-0.492 -0.985,-0.594 0.477,-0.105 0.848,-0.32 1.11,-0.64 0.257,-0.325 0.39,-0.719 0.39,-1.188 0,-0.711 -0.215,-1.25 -0.64,-1.625 -0.43,-0.375 -1.047,-0.562 -1.86,-0.562 -0.804,0 -1.422,0.187 -1.859,0.562 -0.43,0.375 -0.641,0.914 -0.641,1.625 0,0.469 0.133,0.863 0.406,1.188 0.27,0.32 0.641,0.535 1.11,0.64 z m -0.36,1.563 c 0,-0.375 0.118,-0.672 0.36,-0.891 0.238,-0.211 0.566,-0.312 0.984,-0.312 0.426,0 0.758,0.101 1,0.312 0.238,0.219 0.36,0.516 0.36,0.891 0,0.375 -0.122,0.664 -0.36,0.875 -0.242,0.218 -0.574,0.328 -1,0.328 -0.418,0 -0.746,-0.11 -0.984,-0.328 -0.242,-0.211 -0.36,-0.5 -0.36,-0.875 z" /><path
         id="path452"
         style="fill:#000000;fill-opacity:1;fill-rule:nonzero;stroke:none"
         d="m 645.34,109.064 1.625,0 0,5.563 -1.766,-0.344 0,0.891 1.75,0.359 0.985,0 0,-6.469 1.609,0 0,-0.828 -4.203,0 0,0.828 z" /></g></g></svg>