<?xml version="1.0" encoding="UTF-8" standalone="no"?>
<svg
   xmlns:dc="http://purl.org/dc/elements/1.1/"
   xmlns:cc="http://creativecommons.org/ns#"
   xmlns:rdf="http://www.w3.org/1999/02/22-rdf-syntax-ns#"
   xmlns:svg="http://www.w3.org/2000/svg"
   xmlns="http://www.w3.org/2000/svg"
   viewBox="0 0 637.79529 177.16536"
   height="177.16536"
   width="637.79529"
   xml:space="preserve"
   version="1.1"
   id="svg2"><metadata
     id="metadata8"><rdf:RDF><cc:Work
         rdf:about=""><dc:format>image/svg+xml</dc:format><dc:type
           rdf:resource="http://purl.org/dc/dcmitype/StillImage" /></cc:Work></rdf:RDF></metadata><defs
     id="defs6" /><g
     transform="matrix(1.25,0,0,-1.25,0,177.16536)"
     id="g10"><g
       id="g12"><g
         transform="matrix(1,0,0,-1,0,141.73228)"
         id="g14"><path
           id="path16"
           style="fill:none;stroke:#000000;stroke-width:1.45781803;stroke-linecap:butt;stroke-linejoin:miter;stroke-miterlimit:4;stroke-dasharray:none;stroke-opacity:1"
           d="m 103.969,85.52 303.195,0.003" /></g><g
         transform="matrix(1,0,0,-1,0,141.73228)"
         id="g18"><path
           id="path20"
           style="fill:none;stroke:#000000;stroke-width:1.45781803;stroke-linecap:butt;stroke-linejoin:miter;stroke-miterlimit:4;stroke-dasharray:none;stroke-opacity:1"
           d="m 255.566,85.523 -26.261,55.098" /></g><path
         id="path22"
         style="fill:#000000;fill-opacity:1;fill-rule:nonzero;stroke:none"
         d="m 229.305,1.111 c -0.063,0.031 -0.098,0.129 -0.067,0.196 0.032,0.062 0.129,0.097 0.192,0.066 0.066,-0.031 0.101,-0.129 0.07,-0.195 -0.031,-0.063 -0.129,-0.098 -0.195,-0.067 z" /><g
         transform="matrix(1,0,0,-1,0,141.73228)"
         id="g24"><path
           id="path26"
           style="fill:none;stroke:#000000;stroke-width:1.45781803;stroke-linecap:butt;stroke-linejoin:miter;stroke-miterlimit:4;stroke-dasharray:none;stroke-opacity:1"
           d="m 229.305,140.621 c -0.063,-0.031 -0.098,-0.129 -0.067,-0.195 0.032,-0.063 0.129,-0.098 0.192,-0.067 0.066,0.032 0.101,0.129 0.07,0.196 -0.031,0.062 -0.129,0.097 -0.195,0.066" /></g><g
         transform="matrix(1,0,0,-1,0,141.73228)"
         id="g28"><path
           id="path30"
           style="fill:none;stroke:#000000;stroke-width:1.45781803;stroke-linecap:butt;stroke-linejoin:miter;stroke-miterlimit:4;stroke-dasharray:none;stroke-opacity:1"
           d="m 141.848,50.551 -26.25,55.082" /></g><path
         id="path32"
         style="fill:#000000;fill-opacity:1;fill-rule:nonzero;stroke:none"
         d="m 115.598,36.099 c -0.067,0.032 -0.102,0.129 -0.071,0.192 0.032,0.066 0.129,0.101 0.196,0.07 0.066,-0.031 0.097,-0.129 0.066,-0.195 -0.031,-0.063 -0.129,-0.098 -0.191,-0.067 z" /><g
         transform="matrix(1,0,0,-1,0,141.73228)"
         id="g34"><path
           id="path36"
           style="fill:none;stroke:#000000;stroke-width:1.45781803;stroke-linecap:butt;stroke-linejoin:miter;stroke-miterlimit:4;stroke-dasharray:none;stroke-opacity:1"
           d="m 115.598,105.633 c -0.067,-0.031 -0.102,-0.129 -0.071,-0.192 0.032,-0.066 0.129,-0.101 0.196,-0.07 0.066,0.031 0.097,0.129 0.066,0.195 -0.031,0.063 -0.129,0.098 -0.191,0.067" /></g><g
         transform="matrix(1,0,0,-1,0,141.73228)"
         id="g38"><path
           id="path40"
           style="fill:none;stroke:#000000;stroke-width:1.45781803;stroke-linecap:butt;stroke-linejoin:miter;stroke-miterlimit:4;stroke-dasharray:none;stroke-opacity:1"
           d="m 141.867,85.535 -26.269,55.086" /></g><path
         id="path42"
         style="fill:#000000;fill-opacity:1;fill-rule:nonzero;stroke:none"
         d="m 115.598,1.111 c -0.067,0.031 -0.102,0.129 -0.071,0.196 0.032,0.062 0.129,0.097 0.196,0.066 0.066,-0.031 0.097,-0.129 0.066,-0.195 -0.031,-0.063 -0.129,-0.098 -0.191,-0.067 z" /><g
         transform="matrix(1,0,0,-1,0,141.73228)"
         id="g44"><path
           id="path46"
           style="fill:none;stroke:#000000;stroke-width:1.45781803;stroke-linecap:butt;stroke-linejoin:miter;stroke-miterlimit:4;stroke-dasharray:none;stroke-opacity:1"
           d="m 115.598,140.621 c -0.067,-0.031 -0.102,-0.129 -0.071,-0.195 0.032,-0.063 0.129,-0.098 0.196,-0.067 0.066,0.032 0.097,0.129 0.066,0.196 -0.031,0.062 -0.129,0.097 -0.191,0.066" /></g><g
         transform="matrix(1,0,0,-1,0,141.73228)"
         id="g48"><path
           id="path50"
           style="fill:none;stroke:#000000;stroke-width:1.45781803;stroke-linecap:butt;stroke-linejoin:miter;stroke-miterlimit:4;stroke-dasharray:none;stroke-opacity:1"
           d="m 369.266,85.531 -26.25,55.09" /></g><path
         id="path52"
         style="fill:#000000;fill-opacity:1;fill-rule:nonzero;stroke:none"
         d="m 343.016,1.111 c -0.067,0.031 -0.102,0.129 -0.067,0.196 0.028,0.062 0.125,0.097 0.192,0.066 0.066,-0.031 0.101,-0.129 0.07,-0.195 -0.031,-0.063 -0.129,-0.098 -0.195,-0.067 z" /><g
         transform="matrix(1,0,0,-1,0,141.73228)"
         id="g54"><path
           id="path56"
           style="fill:none;stroke:#000000;stroke-width:1.45781803;stroke-linecap:butt;stroke-linejoin:miter;stroke-miterlimit:4;stroke-dasharray:none;stroke-opacity:1"
           d="m 343.016,140.621 c -0.067,-0.031 -0.102,-0.129 -0.067,-0.195 0.028,-0.063 0.125,-0.098 0.192,-0.067 0.066,0.032 0.101,0.129 0.07,0.196 -0.031,0.062 -0.129,0.097 -0.195,0.066" /></g><g
         transform="matrix(1,0,0,-1,0,141.73228)"
         id="g58"><path
           id="path60"
           style="fill:none;stroke:#000000;stroke-width:1.45781803;stroke-linecap:butt;stroke-linejoin:miter;stroke-miterlimit:4;stroke-dasharray:none;stroke-opacity:1"
           d="m 235.047,12.82 -37.902,0.012" /></g><path
         id="path62"
         style="fill:#000000;fill-opacity:1;fill-rule:nonzero;stroke:none"
         d="m 235.047,128.912 c 0,-0.074 -0.074,-0.145 -0.145,-0.145 -0.074,0 -0.148,0.071 -0.148,0.145 0,0.074 0.074,0.145 0.148,0.145 0.071,0 0.145,-0.071 0.145,-0.145 z" /><g
         transform="matrix(1,0,0,-1,0,141.73228)"
         id="g64"><path
           id="path66"
           style="fill:none;stroke:#000000;stroke-width:1.45781803;stroke-linecap:butt;stroke-linejoin:miter;stroke-miterlimit:4;stroke-dasharray:none;stroke-opacity:1"
           d="m 235.047,12.82 c 0,0.075 -0.074,0.145 -0.145,0.145 -0.074,0 -0.148,-0.07 -0.148,-0.145 0,-0.074 0.074,-0.144 0.148,-0.144 0.071,0 0.145,0.07 0.145,0.144" /></g><path
         id="path68"
         style="fill:#000000;fill-opacity:1;fill-rule:nonzero;stroke:none"
         d="m 197.145,128.9 c 0,0.074 0.07,0.145 0.144,0.145 0.074,0 0.145,-0.071 0.145,-0.145 0,-0.074 -0.071,-0.144 -0.145,-0.144 -0.074,0 -0.144,0.07 -0.144,0.144 z" /><g
         transform="matrix(1,0,0,-1,0,141.73228)"
         id="g70"><path
           id="path72"
           style="fill:none;stroke:#000000;stroke-width:1.45781803;stroke-linecap:butt;stroke-linejoin:miter;stroke-miterlimit:4;stroke-dasharray:none;stroke-opacity:1"
           d="m 197.145,12.832 c 0,-0.074 0.07,-0.144 0.144,-0.144 0.074,0 0.145,0.07 0.145,0.144 0,0.074 -0.071,0.145 -0.145,0.145 -0.074,0 -0.144,-0.071 -0.144,-0.145" /></g><g
         transform="matrix(1,0,0,-1,0,141.73228)"
         id="g74"><path
           id="path76"
           style="fill:none;stroke:#000000;stroke-width:1.45781803;stroke-linecap:butt;stroke-linejoin:miter;stroke-miterlimit:4;stroke-dasharray:none;stroke-opacity:1"
           d="m 103.969,50.531 75.761,0.035" /></g><path
         id="path78"
         style="fill:#000000;fill-opacity:1;fill-rule:nonzero;stroke:none"
         d="m 179.73,91.166 c 0,-0.074 -0.074,-0.149 -0.144,-0.149 -0.074,0 -0.148,0.075 -0.148,0.149 0,0.07 0.074,0.144 0.148,0.144 0.07,0 0.144,-0.074 0.144,-0.144 z" /><g
         transform="matrix(1,0,0,-1,0,141.73228)"
         id="g80"><path
           id="path82"
           style="fill:none;stroke:#000000;stroke-width:1.45781803;stroke-linecap:butt;stroke-linejoin:miter;stroke-miterlimit:4;stroke-dasharray:none;stroke-opacity:1"
           d="m 179.73,50.566 c 0,0.075 -0.074,0.149 -0.144,0.149 -0.074,0 -0.148,-0.074 -0.148,-0.149 0,-0.07 0.074,-0.144 0.148,-0.144 0.07,0 0.144,0.074 0.144,0.144" /></g><g
         transform="matrix(1,0,0,-1,0,141.73228)"
         id="g84"><path
           id="path86"
           style="fill:none;stroke:#000000;stroke-width:1.45781803;stroke-linecap:butt;stroke-linejoin:miter;stroke-miterlimit:4;stroke-dasharray:none;stroke-opacity:1"
           d="m 217.645,50.512 75.804,0" /></g><path
         id="path88"
         style="fill:#000000;fill-opacity:1;fill-rule:nonzero;stroke:none"
         d="m 217.645,91.221 c 0,0.07 0.07,0.144 0.144,0.144 0.074,0 0.145,-0.074 0.145,-0.144 0,-0.075 -0.071,-0.149 -0.145,-0.149 -0.074,0 -0.144,0.074 -0.144,0.149 z" /><g
         transform="matrix(1,0,0,-1,0,141.73228)"
         id="g90"><path
           id="path92"
           style="fill:none;stroke:#000000;stroke-width:1.45781803;stroke-linecap:butt;stroke-linejoin:miter;stroke-miterlimit:4;stroke-dasharray:none;stroke-opacity:1"
           d="m 217.645,50.512 c 0,-0.071 0.07,-0.145 0.144,-0.145 0.074,0 0.145,0.074 0.145,0.145 0,0.074 -0.071,0.148 -0.145,0.148 -0.074,0 -0.144,-0.074 -0.144,-0.148" /></g><path
         id="path94"
         style="fill:#000000;fill-opacity:1;fill-rule:nonzero;stroke:none"
         d="m 293.449,91.221 c 0,-0.075 -0.07,-0.149 -0.144,-0.149 -0.075,0 -0.145,0.074 -0.145,0.149 0,0.07 0.07,0.144 0.145,0.144 0.074,0 0.144,-0.074 0.144,-0.144 z" /><g
         transform="matrix(1,0,0,-1,0,141.73228)"
         id="g96"><path
           id="path98"
           style="fill:none;stroke:#000000;stroke-width:1.45781803;stroke-linecap:butt;stroke-linejoin:miter;stroke-miterlimit:4;stroke-dasharray:none;stroke-opacity:1"
           d="m 293.449,50.512 c 0,0.074 -0.07,0.148 -0.144,0.148 -0.075,0 -0.145,-0.074 -0.145,-0.148 0,-0.071 0.07,-0.145 0.145,-0.145 0.074,0 0.144,0.074 0.144,0.145" /></g><g
         transform="matrix(1,0,0,-1,0,141.73228)"
         id="g100"><path
           id="path102"
           style="fill:none;stroke:#000000;stroke-width:1.45781803;stroke-linecap:butt;stroke-linejoin:miter;stroke-miterlimit:4;stroke-dasharray:none;stroke-opacity:1"
           d="M 407.164,50.535 331.352,50.512" /></g><path
         id="path104"
         style="fill:#000000;fill-opacity:1;fill-rule:nonzero;stroke:none"
         d="m 331.352,91.221 c 0,0.07 0.074,0.144 0.148,0.144 0.07,0 0.145,-0.074 0.145,-0.144 0,-0.075 -0.075,-0.149 -0.145,-0.149 -0.074,0 -0.148,0.074 -0.148,0.149 z" /><g
         transform="matrix(1,0,0,-1,0,141.73228)"
         id="g106"><path
           id="path108"
           style="fill:none;stroke:#000000;stroke-width:1.45781803;stroke-linecap:butt;stroke-linejoin:miter;stroke-miterlimit:4;stroke-dasharray:none;stroke-opacity:1"
           d="m 331.352,50.512 c 0,-0.071 0.074,-0.145 0.148,-0.145 0.07,0 0.145,0.074 0.145,0.145 0,0.074 -0.075,0.148 -0.145,0.148 -0.074,0 -0.148,-0.074 -0.148,-0.148" /></g><g
         transform="matrix(1,0,0,-1,0,141.73228)"
         id="g110"><path
           id="path112"
           style="fill:none;stroke:#bf00bf;stroke-width:1.45781803;stroke-linecap:butt;stroke-linejoin:miter;stroke-miterlimit:4;stroke-dasharray:5.831271, 5.831271;stroke-dashoffset:0;stroke-opacity:1"
           d="m 168.078,38.852 0,52.48" /></g><g
         transform="matrix(1,0,0,-1,0,141.73228)"
         id="g114"><path
           id="path116"
           style="fill:none;stroke:#bf00bf;stroke-width:1.45781803;stroke-linecap:butt;stroke-linejoin:miter;stroke-miterlimit:4;stroke-dasharray:5.831271, 5.831271;stroke-dashoffset:0;stroke-opacity:1"
           d="m 232.223,38.852 0,52.48" /></g><g
         transform="matrix(1,0,0,-1,0,141.73228)"
         id="g118"><path
           id="path120"
           style="fill:none;stroke:#bf00bf;stroke-width:1.45781803;stroke-linecap:butt;stroke-linejoin:miter;stroke-miterlimit:4;stroke-dasharray:5.831271, 5.831271;stroke-dashoffset:0;stroke-opacity:1"
           d="m 278.871,38.852 0,52.48" /></g><g
         transform="matrix(1,0,0,-1,0,141.73228)"
         id="g122"><path
           id="path124"
           style="fill:none;stroke:#bf00bf;stroke-width:1.45781803;stroke-linecap:butt;stroke-linejoin:miter;stroke-miterlimit:4;stroke-dasharray:5.831271, 5.831271;stroke-dashoffset:0;stroke-opacity:1"
           d="m 343.016,38.852 0,52.48" /></g><g
         transform="matrix(1,0,0,-1,0,141.73228)"
         id="g126"><path
           id="path128"
           style="fill:none;stroke:#000000;stroke-width:1.45781803;stroke-linecap:butt;stroke-linejoin:miter;stroke-miterlimit:4;stroke-dasharray:none;stroke-opacity:1"
           d="M 255.547,50.512 229.305,105.91" /></g><path
         id="path130"
         style="fill:#000000;fill-opacity:1;fill-rule:nonzero;stroke:none"
         d="m 229.305,35.822 c -0.063,0.031 -0.098,0.129 -0.071,0.195 0.036,0.063 0.129,0.098 0.196,0.067 0.066,-0.031 0.101,-0.129 0.07,-0.195 -0.031,-0.063 -0.129,-0.098 -0.195,-0.067 z" /><g
         transform="matrix(1,0,0,-1,0,141.73228)"
         id="g132"><path
           id="path134"
           style="fill:none;stroke:#000000;stroke-width:1.45781803;stroke-linecap:butt;stroke-linejoin:miter;stroke-miterlimit:4;stroke-dasharray:none;stroke-opacity:1"
           d="m 229.305,105.91 c -0.063,-0.031 -0.098,-0.129 -0.071,-0.195 0.036,-0.063 0.129,-0.098 0.196,-0.067 0.066,0.032 0.101,0.129 0.07,0.196 -0.031,0.062 -0.129,0.097 -0.195,0.066" /></g><g
         transform="matrix(1,0,0,-1,0,141.73228)"
         id="g136"><path
           id="path138"
           style="fill:none;stroke:#000000;stroke-width:1.45781803;stroke-linecap:butt;stroke-linejoin:miter;stroke-miterlimit:4;stroke-dasharray:none;stroke-opacity:1"
           d="m 369.258,50.523 -26.242,55.11" /></g><path
         id="path140"
         style="fill:#000000;fill-opacity:1;fill-rule:nonzero;stroke:none"
         d="m 343.016,36.099 c -0.067,0.032 -0.102,0.129 -0.067,0.192 0.028,0.066 0.125,0.101 0.192,0.07 0.066,-0.031 0.101,-0.129 0.07,-0.195 -0.031,-0.063 -0.129,-0.098 -0.195,-0.067 z" /><g
         transform="matrix(1,0,0,-1,0,141.73228)"
         id="g142"><path
           id="path144"
           style="fill:none;stroke:#000000;stroke-width:1.45781803;stroke-linecap:butt;stroke-linejoin:miter;stroke-miterlimit:4;stroke-dasharray:none;stroke-opacity:1"
           d="m 343.016,105.633 c -0.067,-0.031 -0.102,-0.129 -0.067,-0.192 0.028,-0.066 0.125,-0.101 0.192,-0.07 0.066,0.031 0.101,0.129 0.07,0.195 -0.031,0.063 -0.129,0.098 -0.195,0.067" /></g><g
         transform="matrix(1,0,0,-1,0,141.73228)"
         id="g146"><path
           id="path148"
           style="fill:none;stroke:#000000;stroke-width:1.45781803;stroke-linecap:butt;stroke-linejoin:miter;stroke-miterlimit:4;stroke-dasharray:none;stroke-opacity:1"
           d="M 235.137,12.609 217.645,50.512" /></g><g
         transform="matrix(1,0,0,-1,0,141.73228)"
         id="g150"><path
           id="path152"
           style="fill:none;stroke:#000000;stroke-width:1.45781803;stroke-linecap:butt;stroke-linejoin:miter;stroke-miterlimit:4;stroke-dasharray:none;stroke-opacity:1"
           d="M 197.234,12.609 179.738,50.512" /></g><g
         transform="matrix(1,0,0,-1,0,141.73228)"
         id="g154"><path
           id="path156"
           style="fill:none;stroke:#000000;stroke-width:1.45781803;stroke-linecap:butt;stroke-linejoin:miter;stroke-miterlimit:4;stroke-dasharray:none;stroke-opacity:1"
           d="M 348.629,13.078 310.727,13.09" /></g><path
         id="path158"
         style="fill:#000000;fill-opacity:1;fill-rule:nonzero;stroke:none"
         d="m 348.629,128.654 c 0,-0.07 -0.074,-0.144 -0.145,-0.144 -0.074,0 -0.148,0.074 -0.148,0.144 0,0.074 0.074,0.149 0.148,0.149 0.071,0 0.145,-0.075 0.145,-0.149 z" /><g
         transform="matrix(1,0,0,-1,0,141.73228)"
         id="g160"><path
           id="path162"
           style="fill:none;stroke:#000000;stroke-width:1.45781803;stroke-linecap:butt;stroke-linejoin:miter;stroke-miterlimit:4;stroke-dasharray:none;stroke-opacity:1"
           d="m 348.629,13.078 c 0,0.07 -0.074,0.145 -0.145,0.145 -0.074,0 -0.148,-0.075 -0.148,-0.145 0,-0.074 0.074,-0.148 0.148,-0.148 0.071,0 0.145,0.074 0.145,0.148" /></g><path
         id="path164"
         style="fill:#000000;fill-opacity:1;fill-rule:nonzero;stroke:none"
         d="m 310.727,128.642 c 0,0.075 0.07,0.149 0.144,0.149 0.074,0 0.145,-0.074 0.145,-0.149 0,-0.07 -0.071,-0.144 -0.145,-0.144 -0.074,0 -0.144,0.074 -0.144,0.144 z" /><g
         transform="matrix(1,0,0,-1,0,141.73228)"
         id="g166"><path
           id="path168"
           style="fill:none;stroke:#000000;stroke-width:1.45781803;stroke-linecap:butt;stroke-linejoin:miter;stroke-miterlimit:4;stroke-dasharray:none;stroke-opacity:1"
           d="m 310.727,13.09 c 0,-0.074 0.07,-0.149 0.144,-0.149 0.074,0 0.145,0.075 0.145,0.149 0,0.07 -0.071,0.144 -0.145,0.144 -0.074,0 -0.144,-0.074 -0.144,-0.144" /></g><g
         transform="matrix(1,0,0,-1,0,141.73228)"
         id="g170"><path
           id="path172"
           style="fill:none;stroke:#000000;stroke-width:1.45781803;stroke-linecap:butt;stroke-linejoin:miter;stroke-miterlimit:4;stroke-dasharray:none;stroke-opacity:1"
           d="M 348.719,12.867 331.227,50.77" /></g><g
         transform="matrix(1,0,0,-1,0,141.73228)"
         id="g174"><path
           id="path176"
           style="fill:none;stroke:#000000;stroke-width:1.45781803;stroke-linecap:butt;stroke-linejoin:miter;stroke-miterlimit:4;stroke-dasharray:none;stroke-opacity:1"
           d="M 310.816,12.867 293.32,50.77" /></g><g
         transform="matrix(1,0,0,-1,0,141.73228)"
         id="g178"><path
           id="path180"
           style="fill:#ffffff;fill-opacity:1;fill-rule:nonzero;stroke:#000000;stroke-width:1.45781803;stroke-linecap:butt;stroke-linejoin:miter;stroke-miterlimit:4;stroke-dasharray:none;stroke-opacity:1"
           d="m 418.828,38.871 58.312,0 0,58.316 -58.312,0 0,-58.316 z" /></g><g
         transform="matrix(1,0,0,-1,0,141.73228)"
         id="g182"><path
           id="path184"
           style="fill:none;stroke:#000000;stroke-width:1.45781803;stroke-linecap:butt;stroke-linejoin:miter;stroke-miterlimit:4;stroke-dasharray:none;stroke-opacity:1"
           d="m 477.141,50.535 11.66,0" /></g><g
         transform="matrix(1,0,0,-1,0,141.73228)"
         id="g186"><path
           id="path188"
           style="fill:none;stroke:#000000;stroke-width:1.45781803;stroke-linecap:butt;stroke-linejoin:miter;stroke-miterlimit:4;stroke-dasharray:none;stroke-opacity:1"
           d="m 477.141,85.523 11.66,0" /></g><g
         transform="matrix(1,0,0,-1,0,141.73228)"
         id="g190"><path
           id="path192"
           style="fill:none;stroke:#000000;stroke-width:1.45781803;stroke-linecap:butt;stroke-linejoin:miter;stroke-miterlimit:4;stroke-dasharray:none;stroke-opacity:1"
           d="m 418.828,50.535 -11.664,0" /></g><g
         transform="matrix(1,0,0,-1,0,141.73228)"
         id="g194"><path
           id="path196"
           style="fill:none;stroke:#000000;stroke-width:1.45781803;stroke-linecap:butt;stroke-linejoin:miter;stroke-miterlimit:4;stroke-dasharray:none;stroke-opacity:1"
           d="m 418.828,85.523 -11.664,0" /></g><g
         transform="matrix(1,0,0,-1,0,141.73228)"
         id="g198"><path
           id="path200"
           style="fill:none;stroke:#000000;stroke-width:1.45781803;stroke-linecap:butt;stroke-linejoin:miter;stroke-miterlimit:4;stroke-dasharray:none;stroke-opacity:1"
           d="m 488.801,85.523 13.851,0" /></g><path
         id="path202"
         style="fill:#ffffff;fill-opacity:1;fill-rule:nonzero;stroke:none"
         d="m 508.484,56.209 c 0,-1.457 -1.461,-2.914 -2.918,-2.914 -1.457,0 -2.914,1.457 -2.914,2.914 0,1.457 1.457,2.918 2.914,2.918 1.457,0 2.918,-1.461 2.918,-2.918 z" /><g
         transform="matrix(1,0,0,-1,0,141.73228)"
         id="g204"><path
           id="path206"
           style="fill:none;stroke:#000000;stroke-width:1.45781803;stroke-linecap:butt;stroke-linejoin:miter;stroke-miterlimit:4;stroke-dasharray:none;stroke-opacity:1"
           d="m 508.484,85.523 c 0,1.457 -1.461,2.915 -2.918,2.915 -1.457,0 -2.914,-1.458 -2.914,-2.915 0,-1.457 1.457,-2.918 2.914,-2.918 1.457,0 2.918,1.461 2.918,2.918" /></g><g
         transform="matrix(1,0,0,-1,0,141.73228)"
         id="g208"><path
           id="path210"
           style="fill:none;stroke:#000000;stroke-width:1.45781803;stroke-linecap:butt;stroke-linejoin:miter;stroke-miterlimit:4;stroke-dasharray:none;stroke-opacity:1"
           d="m 488.801,50.535 13.894,0" /></g><path
         id="path212"
         style="fill:#ffffff;fill-opacity:1;fill-rule:nonzero;stroke:none"
         d="m 508.523,91.197 c 0,-1.457 -1.457,-2.914 -2.914,-2.914 -1.457,0 -2.914,1.457 -2.914,2.914 0,1.457 1.457,2.914 2.914,2.914 1.457,0 2.914,-1.457 2.914,-2.914 z" /><g
         transform="matrix(1,0,0,-1,0,141.73228)"
         id="g214"><path
           id="path216"
           style="fill:none;stroke:#000000;stroke-width:1.45781803;stroke-linecap:butt;stroke-linejoin:miter;stroke-miterlimit:4;stroke-dasharray:none;stroke-opacity:1"
           d="m 508.523,50.535 c 0,1.457 -1.457,2.914 -2.914,2.914 -1.457,0 -2.914,-1.457 -2.914,-2.914 0,-1.457 1.457,-2.914 2.914,-2.914 1.457,0 2.914,1.457 2.914,2.914" /></g><g
         transform="matrix(1,0,0,-1,0,141.73228)"
         id="g218"><path
           id="path220"
           style="fill:#ffffff;fill-opacity:1;fill-rule:nonzero;stroke:#000000;stroke-width:1.45781803;stroke-linecap:butt;stroke-linejoin:miter;stroke-miterlimit:4;stroke-dasharray:none;stroke-opacity:1"
           d="m 33.992,38.871 58.312,0 0,58.313 -58.312,0 0,-58.313 z" /></g><g
         transform="matrix(1,0,0,-1,0,141.73228)"
         id="g222"><path
           id="path224"
           style="fill:none;stroke:#000000;stroke-width:1.45781803;stroke-linecap:butt;stroke-linejoin:miter;stroke-miterlimit:4;stroke-dasharray:none;stroke-opacity:1"
           d="m 92.305,50.531 11.664,0" /></g><g
         transform="matrix(1,0,0,-1,0,141.73228)"
         id="g226"><path
           id="path228"
           style="fill:none;stroke:#000000;stroke-width:1.45781803;stroke-linecap:butt;stroke-linejoin:miter;stroke-miterlimit:4;stroke-dasharray:none;stroke-opacity:1"
           d="m 92.305,85.52 11.664,0" /></g><g
         transform="matrix(1,0,0,-1,0,141.73228)"
         id="g230"><path
           id="path232"
           style="fill:none;stroke:#000000;stroke-width:1.45781803;stroke-linecap:butt;stroke-linejoin:miter;stroke-miterlimit:4;stroke-dasharray:none;stroke-opacity:1"
           d="m 33.992,50.531 -11.664,0" /></g><g
         transform="matrix(1,0,0,-1,0,141.73228)"
         id="g234"><path
           id="path236"
           style="fill:none;stroke:#000000;stroke-width:1.45781803;stroke-linecap:butt;stroke-linejoin:miter;stroke-miterlimit:4;stroke-dasharray:none;stroke-opacity:1"
           d="m 33.992,85.52 -11.664,0" /></g><g
         transform="matrix(1,0,0,-1,0,141.73228)"
         id="g238"><path
           id="path240"
           style="fill:none;stroke:#000000;stroke-width:1.45781803;stroke-linecap:butt;stroke-linejoin:miter;stroke-miterlimit:4;stroke-dasharray:none;stroke-opacity:1"
           d="M 8.473,50.535 22.328,50.531" /></g><path
         id="path242"
         style="fill:#ffffff;fill-opacity:1;fill-rule:nonzero;stroke:none"
         d="m 2.641,91.193 c 0,1.457 1.457,2.918 2.914,2.918 1.457,0 2.918,-1.457 2.918,-2.914 0,-1.461 -1.457,-2.918 -2.914,-2.918 -1.461,0 -2.918,1.457 -2.918,2.914 z" /><g
         transform="matrix(1,0,0,-1,0,141.73228)"
         id="g244"><path
           id="path246"
           style="fill:none;stroke:#000000;stroke-width:1.45781803;stroke-linecap:butt;stroke-linejoin:miter;stroke-miterlimit:4;stroke-dasharray:none;stroke-opacity:1"
           d="m 2.641,50.539 c 0,-1.457 1.457,-2.918 2.914,-2.918 1.457,0 2.918,1.457 2.918,2.914 0,1.461 -1.457,2.918 -2.914,2.918 -1.461,0 -2.918,-1.457 -2.918,-2.914" /></g><path
         id="path248"
         style="fill:#000000;fill-opacity:1;fill-rule:nonzero;stroke:none"
         d="m 57.031,76.889 2.531,-6.75 -0.953,0 -1.531,4.046 -1.89,-4.046 -0.954,0 2.407,5.25 -0.375,0.968 c -0.149,0.407 -0.399,0.61 -0.75,0.61 l -0.469,0 0,0.765 0.578,0 c 0.727,-0.011 1.195,-0.293 1.406,-0.843 z" /><path
         id="path250"
         style="fill:#000000;fill-opacity:1;fill-rule:nonzero;stroke:none"
         d="m 62.328,77.435 0.828,0 -2.547,-8.218 -0.828,0 2.547,8.218 z" /><path
         id="path252"
         style="fill:#000000;fill-opacity:1;fill-rule:nonzero;stroke:none"
         d="m 66.289,73.607 c -0.469,0 -0.84,-0.133 -1.109,-0.39 -0.262,-0.25 -0.391,-0.594 -0.391,-1.032 0,-0.437 0.129,-0.781 0.391,-1.031 0.269,-0.25 0.64,-0.375 1.109,-0.375 0.469,0 0.836,0.125 1.109,0.375 0.27,0.25 0.407,0.594 0.407,1.031 0,0.438 -0.137,0.782 -0.407,1.032 -0.261,0.257 -0.632,0.39 -1.109,0.39 z m -0.984,0.407 c -0.418,0.101 -0.746,0.3 -0.985,0.593 -0.242,0.289 -0.359,0.645 -0.359,1.063 0,0.582 0.207,1.039 0.625,1.375 0.414,0.344 0.984,0.515 1.703,0.515 0.727,0 1.301,-0.171 1.719,-0.515 0.414,-0.336 0.625,-0.793 0.625,-1.375 0,-0.418 -0.121,-0.774 -0.36,-1.063 -0.242,-0.293 -0.57,-0.492 -0.984,-0.593 0.477,-0.106 0.848,-0.321 1.109,-0.641 0.258,-0.324 0.391,-0.719 0.391,-1.188 0,-0.711 -0.215,-1.25 -0.641,-1.625 -0.429,-0.375 -1.046,-0.562 -1.859,-0.562 -0.805,0 -1.422,0.187 -1.859,0.562 -0.43,0.375 -0.641,0.914 -0.641,1.625 0,0.469 0.133,0.864 0.406,1.188 0.27,0.32 0.641,0.535 1.11,0.641 z m -0.36,1.562 c 0,-0.375 0.117,-0.672 0.36,-0.891 0.238,-0.211 0.566,-0.312 0.984,-0.312 0.426,0 0.758,0.101 1,0.312 0.238,0.219 0.359,0.516 0.359,0.891 0,0.375 -0.121,0.664 -0.359,0.875 -0.242,0.219 -0.574,0.328 -1,0.328 -0.418,0 -0.746,-0.109 -0.984,-0.328 -0.243,-0.211 -0.36,-0.5 -0.36,-0.875 z" /><path
         id="path254"
         style="fill:#000000;fill-opacity:1;fill-rule:nonzero;stroke:none"
         d="m 441.898,76.889 2.532,-6.75 -0.953,0 -1.532,4.046 -1.89,-4.046 -0.953,0 2.406,5.25 -0.375,0.968 c -0.149,0.407 -0.399,0.61 -0.75,0.61 l -0.469,0 0,0.765 0.578,0 c 0.727,-0.011 1.196,-0.293 1.406,-0.843 z" /><path
         id="path256"
         style="fill:#000000;fill-opacity:1;fill-rule:nonzero;stroke:none"
         d="m 447.195,77.435 0.828,0 -2.546,-8.218 -0.829,0 2.547,8.218 z" /><path
         id="path258"
         style="fill:#000000;fill-opacity:1;fill-rule:nonzero;stroke:none"
         d="m 451.156,73.607 c -0.468,0 -0.84,-0.133 -1.109,-0.39 -0.262,-0.25 -0.391,-0.594 -0.391,-1.032 0,-0.437 0.129,-0.781 0.391,-1.031 0.269,-0.25 0.641,-0.375 1.109,-0.375 0.469,0 0.836,0.125 1.11,0.375 0.269,0.25 0.406,0.594 0.406,1.031 0,0.438 -0.137,0.782 -0.406,1.032 -0.262,0.257 -0.633,0.39 -1.11,0.39 z m -0.984,0.407 c -0.418,0.101 -0.746,0.3 -0.984,0.593 -0.243,0.289 -0.36,0.645 -0.36,1.063 0,0.582 0.207,1.039 0.625,1.375 0.414,0.344 0.985,0.515 1.703,0.515 0.727,0 1.301,-0.171 1.719,-0.515 0.414,-0.336 0.625,-0.793 0.625,-1.375 0,-0.418 -0.121,-0.774 -0.359,-1.063 -0.243,-0.293 -0.571,-0.492 -0.985,-0.593 0.477,-0.106 0.848,-0.321 1.11,-0.641 0.257,-0.324 0.39,-0.719 0.39,-1.188 0,-0.711 -0.215,-1.25 -0.64,-1.625 -0.43,-0.375 -1.047,-0.562 -1.86,-0.562 -0.804,0 -1.422,0.187 -1.859,0.562 -0.43,0.375 -0.641,0.914 -0.641,1.625 0,0.469 0.133,0.864 0.406,1.188 0.27,0.32 0.641,0.535 1.11,0.641 z m -0.36,1.562 c 0,-0.375 0.118,-0.672 0.36,-0.891 0.238,-0.211 0.566,-0.312 0.984,-0.312 0.426,0 0.758,0.101 1,0.312 0.239,0.219 0.36,0.516 0.36,0.891 0,0.375 -0.121,0.664 -0.36,0.875 -0.242,0.219 -0.574,0.328 -1,0.328 -0.418,0 -0.746,-0.109 -0.984,-0.328 -0.242,-0.211 -0.36,-0.5 -0.36,-0.875 z" /><g
         transform="matrix(1,0,0,-1,0,141.73228)"
         id="g260"><path
           id="path262"
           style="fill:none;stroke:#000000;stroke-width:1.45781803;stroke-linecap:butt;stroke-linejoin:miter;stroke-miterlimit:4;stroke-dasharray:none;stroke-opacity:1"
           d="M 8.48,85.516 22.328,85.52" /></g><path
         id="path264"
         style="fill:#ffffff;fill-opacity:1;fill-rule:nonzero;stroke:none"
         d="m 2.648,56.217 c 0,1.461 1.457,2.914 2.918,2.914 1.457,0 2.914,-1.457 2.914,-2.914 0,-1.457 -1.46,-2.914 -2.918,-2.914 -1.457,0 -2.914,1.457 -2.914,2.914 z" /><g
         transform="matrix(1,0,0,-1,0,141.73228)"
         id="g266"><path
           id="path268"
           style="fill:none;stroke:#000000;stroke-width:1.45781803;stroke-linecap:butt;stroke-linejoin:miter;stroke-miterlimit:4;stroke-dasharray:none;stroke-opacity:1"
           d="m 2.648,85.516 c 0,-1.461 1.457,-2.914 2.918,-2.914 1.457,0 2.914,1.457 2.914,2.914 0,1.457 -1.46,2.914 -2.918,2.914 -1.457,0 -2.914,-1.457 -2.914,-2.914" /></g><path
         id="path270"
         style="fill:#000000;fill-opacity:1;fill-rule:nonzero;stroke:none"
         d="m 58.09,105.951 1.625,0 0,5.563 -1.766,-0.344 0,0.89 1.75,0.36 0.985,0 0,-6.469 1.609,0 0,-0.828 -4.203,0 0,0.828 z" /><path
         id="path272"
         style="fill:#000000;fill-opacity:1;fill-rule:nonzero;stroke:none"
         d="m 133.895,97.205 1.625,0 0,5.562 -1.766,-0.343 0,0.89 1.75,0.36 0.984,0 0,-6.469 1.61,0 0,-0.828 -4.203,0 0,0.828 z" /><path
         id="path274"
         style="fill:#000000;fill-opacity:1;fill-rule:nonzero;stroke:none"
         d="m 140.121,97.611 1.031,0 0,-0.828 -0.797,-1.562 -0.64,0 0.406,1.562 0,0.828 z" /><path
         id="path276"
         style="fill:#000000;fill-opacity:1;fill-rule:nonzero;stroke:none"
         d="m 142.922,103.674 4.687,0 0,-0.422 -2.656,-6.875 -1.031,0 2.5,6.453 -3.5,0 0,0.844 z" /><path
         id="path278"
         style="fill:#000000;fill-opacity:1;fill-rule:nonzero;stroke:none"
         d="m 151.551,103.017 c -0.5,0 -0.883,-0.25 -1.141,-0.75 -0.25,-0.5 -0.375,-1.25 -0.375,-2.25 0,-1 0.125,-1.75 0.375,-2.25 0.258,-0.5 0.641,-0.75 1.141,-0.75 0.519,0 0.906,0.25 1.156,0.75 0.258,0.5 0.391,1.25 0.391,2.25 0,1 -0.133,1.75 -0.391,2.25 -0.25,0.5 -0.637,0.75 -1.156,0.75 z m 0,0.782 c 0.82,0 1.445,-0.325 1.875,-0.969 0.437,-0.648 0.656,-1.586 0.656,-2.813 0,-1.23 -0.219,-2.168 -0.656,-2.812 -0.43,-0.648 -1.055,-0.969 -1.875,-0.969 -0.813,0 -1.438,0.321 -1.875,0.969 -0.43,0.644 -0.641,1.582 -0.641,2.812 0,1.227 0.211,2.165 0.641,2.813 0.437,0.644 1.062,0.969 1.875,0.969 z" /><path
         id="path280"
         style="fill:#000000;fill-opacity:1;fill-rule:nonzero;stroke:none"
         d="m 361.316,97.205 1.625,0 0,5.562 -1.765,-0.343 0,0.89 1.75,0.36 0.984,0 0,-6.469 1.61,0 0,-0.828 -4.204,0 0,0.828 z" /><path
         id="path282"
         style="fill:#000000;fill-opacity:1;fill-rule:nonzero;stroke:none"
         d="m 367.539,97.611 1.031,0 0,-0.828 -0.797,-1.562 -0.64,0 0.406,1.562 0,0.828 z" /><path
         id="path284"
         style="fill:#000000;fill-opacity:1;fill-rule:nonzero;stroke:none"
         d="m 370.34,103.674 4.687,0 0,-0.422 -2.656,-6.875 -1.031,0 2.5,6.453 -3.5,0 0,0.844 z" /><path
         id="path286"
         style="fill:#000000;fill-opacity:1;fill-rule:nonzero;stroke:none"
         d="m 378.969,103.017 c -0.5,0 -0.883,-0.25 -1.141,-0.75 -0.25,-0.5 -0.375,-1.25 -0.375,-2.25 0,-1 0.125,-1.75 0.375,-2.25 0.258,-0.5 0.641,-0.75 1.141,-0.75 0.519,0 0.906,0.25 1.156,0.75 0.258,0.5 0.391,1.25 0.391,2.25 0,1 -0.133,1.75 -0.391,2.25 -0.25,0.5 -0.637,0.75 -1.156,0.75 z m 0,0.782 c 0.82,0 1.445,-0.325 1.875,-0.969 0.437,-0.648 0.656,-1.586 0.656,-2.813 0,-1.23 -0.219,-2.168 -0.656,-2.812 -0.43,-0.648 -1.055,-0.969 -1.875,-0.969 -0.813,0 -1.438,0.321 -1.875,0.969 -0.43,0.644 -0.641,1.582 -0.641,2.812 0,1.227 0.211,2.165 0.641,2.813 0.437,0.644 1.062,0.969 1.875,0.969 z" /><path
         id="path288"
         style="fill:#000000;fill-opacity:1;fill-rule:nonzero;stroke:none"
         d="m 203.871,132.193 1.625,0 0,5.563 -1.766,-0.344 0,0.891 1.75,0.359 0.985,0 0,-6.469 1.609,0 0,-0.828 -4.203,0 0,0.828 z" /><path
         id="path290"
         style="fill:#000000;fill-opacity:1;fill-rule:nonzero;stroke:none"
         d="m 210.094,132.599 1.031,0 0,-0.828 -0.797,-1.562 -0.64,0 0.406,1.562 0,0.828 z" /><path
         id="path292"
         style="fill:#000000;fill-opacity:1;fill-rule:nonzero;stroke:none"
         d="m 213.988,132.193 3.438,0 0,-0.828 -4.625,0 0,0.828 c 0.375,0.383 0.883,0.906 1.531,1.563 0.645,0.656 1.051,1.078 1.219,1.265 0.312,0.352 0.531,0.649 0.656,0.891 0.125,0.25 0.188,0.492 0.188,0.734 0,0.383 -0.137,0.696 -0.407,0.938 -0.273,0.25 -0.625,0.375 -1.062,0.375 -0.313,0 -0.641,-0.059 -0.985,-0.172 -0.336,-0.105 -0.699,-0.266 -1.093,-0.484 l 0,1 c 0.394,0.156 0.765,0.273 1.109,0.359 0.344,0.082 0.66,0.125 0.953,0.125 0.75,0 1.348,-0.188 1.797,-0.563 0.457,-0.375 0.688,-0.882 0.688,-1.515 0,-0.305 -0.059,-0.59 -0.172,-0.86 -0.118,-0.261 -0.321,-0.574 -0.61,-0.937 -0.086,-0.094 -0.343,-0.371 -0.781,-0.828 -0.437,-0.449 -1.055,-1.078 -1.844,-1.891 z" /><path
         id="path294"
         style="fill:#000000;fill-opacity:1;fill-rule:nonzero;stroke:none"
         d="m 222.418,135.303 c 0.469,-0.106 0.832,-0.321 1.094,-0.641 0.269,-0.313 0.406,-0.703 0.406,-1.172 0,-0.719 -0.25,-1.277 -0.75,-1.672 -0.492,-0.398 -1.195,-0.594 -2.109,-0.594 -0.305,0 -0.618,0.032 -0.938,0.094 -0.324,0.063 -0.656,0.149 -1,0.266 l 0,0.953 c 0.27,-0.156 0.567,-0.277 0.891,-0.359 0.332,-0.086 0.676,-0.125 1.031,-0.125 0.613,0 1.082,0.117 1.406,0.359 0.321,0.25 0.485,0.609 0.485,1.078 0,0.426 -0.153,0.758 -0.454,1 -0.304,0.238 -0.718,0.359 -1.25,0.359 l -0.859,0 0,0.813 0.891,0 c 0.488,0 0.859,0.098 1.109,0.297 0.258,0.195 0.391,0.476 0.391,0.844 0,0.363 -0.137,0.644 -0.407,0.843 -0.261,0.207 -0.636,0.313 -1.125,0.313 -0.273,0 -0.562,-0.031 -0.875,-0.094 -0.312,-0.055 -0.652,-0.141 -1.015,-0.266 l 0,0.875 c 0.375,0.102 0.722,0.18 1.047,0.235 0.332,0.051 0.64,0.078 0.922,0.078 0.75,0 1.343,-0.172 1.781,-0.516 0.437,-0.336 0.656,-0.793 0.656,-1.375 0,-0.406 -0.117,-0.75 -0.344,-1.031 -0.23,-0.273 -0.558,-0.461 -0.984,-0.562 z" /><path
         id="path296"
         style="fill:#000000;fill-opacity:1;fill-rule:nonzero;stroke:none"
         d="m 320.496,132.193 1.625,0 0,5.563 -1.766,-0.344 0,0.891 1.75,0.359 0.985,0 0,-6.469 1.609,0 0,-0.828 -4.203,0 0,0.828 z" /><path
         id="path298"
         style="fill:#000000;fill-opacity:1;fill-rule:nonzero;stroke:none"
         d="m 326.723,132.599 1.031,0 0,-0.828 -0.797,-1.562 -0.641,0 0.407,1.562 0,0.828 z" /><path
         id="path300"
         style="fill:#000000;fill-opacity:1;fill-rule:nonzero;stroke:none"
         d="m 330.613,132.193 3.438,0 0,-0.828 -4.625,0 0,0.828 c 0.375,0.383 0.883,0.906 1.531,1.563 0.645,0.656 1.051,1.078 1.219,1.265 0.312,0.352 0.531,0.649 0.656,0.891 0.125,0.25 0.188,0.492 0.188,0.734 0,0.383 -0.137,0.696 -0.407,0.938 -0.273,0.25 -0.625,0.375 -1.062,0.375 -0.313,0 -0.641,-0.059 -0.985,-0.172 -0.336,-0.105 -0.699,-0.266 -1.093,-0.484 l 0,1 c 0.394,0.156 0.765,0.273 1.109,0.359 0.344,0.082 0.66,0.125 0.953,0.125 0.75,0 1.348,-0.188 1.797,-0.563 0.457,-0.375 0.688,-0.882 0.688,-1.515 0,-0.305 -0.059,-0.59 -0.172,-0.86 -0.118,-0.261 -0.321,-0.574 -0.61,-0.937 -0.086,-0.094 -0.343,-0.371 -0.781,-0.828 -0.437,-0.449 -1.055,-1.078 -1.844,-1.891 z" /><path
         id="path302"
         style="fill:#000000;fill-opacity:1;fill-rule:nonzero;stroke:none"
         d="m 339.043,135.303 c 0.469,-0.106 0.832,-0.321 1.094,-0.641 0.269,-0.313 0.406,-0.703 0.406,-1.172 0,-0.719 -0.25,-1.277 -0.75,-1.672 -0.492,-0.398 -1.195,-0.594 -2.109,-0.594 -0.305,0 -0.618,0.032 -0.938,0.094 -0.324,0.063 -0.656,0.149 -1,0.266 l 0,0.953 c 0.27,-0.156 0.566,-0.277 0.891,-0.359 0.332,-0.086 0.675,-0.125 1.031,-0.125 0.613,0 1.082,0.117 1.406,0.359 0.321,0.25 0.485,0.609 0.485,1.078 0,0.426 -0.153,0.758 -0.454,1 -0.304,0.238 -0.718,0.359 -1.25,0.359 l -0.859,0 0,0.813 0.891,0 c 0.488,0 0.859,0.098 1.109,0.297 0.258,0.195 0.391,0.476 0.391,0.844 0,0.363 -0.137,0.644 -0.407,0.843 -0.261,0.207 -0.636,0.313 -1.125,0.313 -0.273,0 -0.562,-0.031 -0.875,-0.094 -0.312,-0.055 -0.652,-0.141 -1.015,-0.266 l 0,0.875 c 0.375,0.102 0.723,0.18 1.047,0.235 0.332,0.051 0.64,0.078 0.922,0.078 0.75,0 1.343,-0.172 1.781,-0.516 0.437,-0.336 0.656,-0.793 0.656,-1.375 0,-0.406 -0.117,-0.75 -0.344,-1.031 -0.23,-0.273 -0.558,-0.461 -0.984,-0.562 z" /><path
         id="path304"
         style="fill:#000000;fill-opacity:1;fill-rule:nonzero;stroke:none"
         d="m 245.379,97.205 3.437,0 0,-0.828 -4.625,0 0,0.828 c 0.375,0.383 0.883,0.906 1.532,1.562 0.644,0.657 1.05,1.079 1.218,1.266 0.313,0.352 0.532,0.649 0.657,0.891 0.125,0.25 0.187,0.492 0.187,0.734 0,0.383 -0.137,0.695 -0.406,0.938 -0.274,0.25 -0.625,0.375 -1.063,0.375 -0.312,0 -0.64,-0.059 -0.984,-0.172 -0.336,-0.106 -0.699,-0.266 -1.094,-0.485 l 0,1 c 0.395,0.157 0.766,0.274 1.11,0.36 0.343,0.082 0.66,0.125 0.953,0.125 0.75,0 1.347,-0.188 1.797,-0.563 0.457,-0.375 0.687,-0.883 0.687,-1.515 0,-0.305 -0.058,-0.59 -0.172,-0.86 -0.117,-0.262 -0.32,-0.574 -0.609,-0.937 -0.086,-0.094 -0.344,-0.371 -0.781,-0.828 -0.438,-0.45 -1.055,-1.079 -1.844,-1.891 z" /><path
         id="path306"
         style="fill:#000000;fill-opacity:1;fill-rule:nonzero;stroke:none"
         d="m 250.914,97.611 1.031,0 0,-0.828 -0.797,-1.562 -0.64,0 0.406,1.562 0,0.828 z" /><path
         id="path308"
         style="fill:#000000;fill-opacity:1;fill-rule:nonzero;stroke:none"
         d="m 253.965,103.674 3.875,0 0,-0.844 -2.969,0 0,-1.781 c 0.145,0.05 0.285,0.086 0.422,0.109 0.145,0.02 0.289,0.031 0.437,0.031 0.813,0 1.454,-0.226 1.922,-0.672 0.477,-0.437 0.719,-1.039 0.719,-1.796 0,-0.793 -0.246,-1.407 -0.734,-1.844 -0.481,-0.43 -1.168,-0.641 -2.063,-0.641 -0.304,0 -0.617,0.028 -0.937,0.078 -0.313,0.055 -0.641,0.129 -0.985,0.235 l 0,0.984 c 0.301,-0.156 0.61,-0.277 0.922,-0.359 0.313,-0.075 0.641,-0.11 0.985,-0.11 0.562,0 1.003,0.145 1.328,0.438 0.332,0.301 0.5,0.707 0.5,1.219 0,0.5 -0.168,0.894 -0.5,1.187 -0.325,0.301 -0.766,0.453 -1.328,0.453 -0.262,0 -0.528,-0.031 -0.797,-0.094 -0.262,-0.054 -0.528,-0.14 -0.797,-0.265 l 0,3.672 z" /><path
         id="path310"
         style="fill:#000000;fill-opacity:1;fill-rule:nonzero;stroke:none"
         d="m 262.953,102.814 -2.484,-3.89 2.484,0 0,3.89 z m -0.265,0.86 1.25,0 0,-4.75 1.031,0 0,-0.828 -1.031,0 0,-1.719 -0.985,0 0,1.719 -3.297,0 0,0.953 3.032,4.625 z" /><path
         id="path312"
         style="fill:#000000;fill-opacity:1;fill-rule:nonzero;stroke:none"
         d="m 445.867,105.951 1.625,0 0,5.563 -1.765,-0.344 0,0.89 1.75,0.36 0.984,0 0,-6.469 1.609,0 0,-0.828 -4.203,0 0,0.828 z" /></g></g></svg>