<?xml version="1.0" encoding="UTF-8" standalone="no"?>
<svg
   xmlns:dc="http://purl.org/dc/elements/1.1/"
   xmlns:cc="http://creativecommons.org/ns#"
   xmlns:rdf="http://www.w3.org/1999/02/22-rdf-syntax-ns#"
   xmlns:svg="http://www.w3.org/2000/svg"
   xmlns="http://www.w3.org/2000/svg"
   viewBox="0 0 1133.8583 177.16536"
   height="177.16536"
   width="1133.8583"
   xml:space="preserve"
   version="1.1"
   id="svg2"><metadata
     id="metadata8"><rdf:RDF><cc:Work
         rdf:about=""><dc:format>image/svg+xml</dc:format><dc:type
           rdf:resource="http://purl.org/dc/dcmitype/StillImage" /></cc:Work></rdf:RDF></metadata><defs
     id="defs6" /><g
     transform="matrix(1.25,0,0,-1.25,0,177.16536)"
     id="g10"><g
       id="g12"><g
         transform="matrix(1,0,0,-1,0,141.73228)"
         id="g14"><path
           id="path16"
           style="fill:none;stroke:#000000;stroke-width:1.44902003;stroke-linecap:butt;stroke-linejoin:miter;stroke-miterlimit:4;stroke-dasharray:none;stroke-opacity:1"
           d="m 102.879,73.691 75.351,0" /></g><g
         transform="matrix(1,0,0,-1,0,141.73228)"
         id="g18"><path
           id="path20"
           style="fill:#ffffff;fill-opacity:1;fill-rule:nonzero;stroke:#000000;stroke-width:1.44902003;stroke-linecap:butt;stroke-linejoin:miter;stroke-miterlimit:4;stroke-dasharray:none;stroke-opacity:1"
           d="m 189.82,27.324 57.961,0 0,57.961 -57.961,0 0,-57.961 z" /></g><g
         transform="matrix(1,0,0,-1,0,141.73228)"
         id="g22"><path
           id="path24"
           style="fill:none;stroke:#000000;stroke-width:1.44902003;stroke-linecap:butt;stroke-linejoin:miter;stroke-miterlimit:4;stroke-dasharray:none;stroke-opacity:1"
           d="m 247.781,38.914 11.594,0" /></g><g
         transform="matrix(1,0,0,-1,0,141.73228)"
         id="g26"><path
           id="path28"
           style="fill:none;stroke:#000000;stroke-width:1.44902003;stroke-linecap:butt;stroke-linejoin:miter;stroke-miterlimit:4;stroke-dasharray:none;stroke-opacity:1"
           d="m 247.781,73.691 11.594,0" /></g><g
         transform="matrix(1,0,0,-1,0,141.73228)"
         id="g30"><path
           id="path32"
           style="fill:none;stroke:#000000;stroke-width:1.44902003;stroke-linecap:butt;stroke-linejoin:miter;stroke-miterlimit:4;stroke-dasharray:none;stroke-opacity:1"
           d="m 189.82,38.914 -11.59,0" /></g><g
         transform="matrix(1,0,0,-1,0,141.73228)"
         id="g34"><path
           id="path36"
           style="fill:none;stroke:#000000;stroke-width:1.44902003;stroke-linecap:butt;stroke-linejoin:miter;stroke-miterlimit:4;stroke-dasharray:none;stroke-opacity:1"
           d="m 189.82,73.691 -11.59,0" /></g><g
         transform="matrix(1,0,0,-1,0,141.73228)"
         id="g38"><path
           id="path40"
           style="fill:none;stroke:#000000;stroke-width:1.44902003;stroke-linecap:butt;stroke-linejoin:miter;stroke-miterlimit:4;stroke-dasharray:none;stroke-opacity:1"
           d="m 102.879,38.914 75.351,0" /></g><g
         transform="matrix(1,0,0,-1,0,141.73228)"
         id="g42"><path
           id="path44"
           style="fill:none;stroke:#000000;stroke-width:1.44902003;stroke-linecap:butt;stroke-linejoin:miter;stroke-miterlimit:4;stroke-dasharray:none;stroke-opacity:1"
           d="m 259.375,73.691 75.348,0" /></g><g
         transform="matrix(1,0,0,-1,0,141.73228)"
         id="g46"><path
           id="path48"
           style="fill:none;stroke:#000000;stroke-width:1.44902003;stroke-linecap:butt;stroke-linejoin:miter;stroke-miterlimit:4;stroke-dasharray:none;stroke-opacity:1"
           d="m 259.375,38.914 75.348,0" /></g><g
         transform="matrix(1,0,0,-1,0,141.73228)"
         id="g50"><path
           id="path52"
           style="fill:#ffffff;fill-opacity:1;fill-rule:nonzero;stroke:#000000;stroke-width:1.44902003;stroke-linecap:butt;stroke-linejoin:miter;stroke-miterlimit:4;stroke-dasharray:none;stroke-opacity:1"
           d="m 346.316,27.324 57.961,0 0,57.961 -57.961,0 0,-57.961 z" /></g><g
         transform="matrix(1,0,0,-1,0,141.73228)"
         id="g54"><path
           id="path56"
           style="fill:none;stroke:#000000;stroke-width:1.44902003;stroke-linecap:butt;stroke-linejoin:miter;stroke-miterlimit:4;stroke-dasharray:none;stroke-opacity:1"
           d="m 404.277,38.914 11.59,0" /></g><g
         transform="matrix(1,0,0,-1,0,141.73228)"
         id="g58"><path
           id="path60"
           style="fill:none;stroke:#000000;stroke-width:1.44902003;stroke-linecap:butt;stroke-linejoin:miter;stroke-miterlimit:4;stroke-dasharray:none;stroke-opacity:1"
           d="m 404.277,73.691 11.59,0" /></g><g
         transform="matrix(1,0,0,-1,0,141.73228)"
         id="g62"><path
           id="path64"
           style="fill:none;stroke:#000000;stroke-width:1.44902003;stroke-linecap:butt;stroke-linejoin:miter;stroke-miterlimit:4;stroke-dasharray:none;stroke-opacity:1"
           d="m 346.316,38.914 -11.593,0" /></g><g
         transform="matrix(1,0,0,-1,0,141.73228)"
         id="g66"><path
           id="path68"
           style="fill:none;stroke:#000000;stroke-width:1.44902003;stroke-linecap:butt;stroke-linejoin:miter;stroke-miterlimit:4;stroke-dasharray:none;stroke-opacity:1"
           d="m 346.316,73.691 -11.593,0" /></g><g
         transform="matrix(1,0,0,-1,0,141.73228)"
         id="g70"><path
           id="path72"
           style="fill:none;stroke:#000000;stroke-width:1.44902003;stroke-linecap:butt;stroke-linejoin:miter;stroke-miterlimit:4;stroke-dasharray:none;stroke-opacity:1"
           d="m 415.867,38.914 75.352,0" /></g><g
         transform="matrix(1,0,0,-1,0,141.73228)"
         id="g74"><path
           id="path76"
           style="fill:none;stroke:#000000;stroke-width:1.44902003;stroke-linecap:butt;stroke-linejoin:miter;stroke-miterlimit:4;stroke-dasharray:none;stroke-opacity:1"
           d="m 415.867,73.691 75.352,0" /></g><g
         transform="matrix(1,0,0,-1,0,141.73228)"
         id="g78"><path
           id="path80"
           style="fill:#ffffff;fill-opacity:1;fill-rule:nonzero;stroke:#000000;stroke-width:1.44902003;stroke-linecap:butt;stroke-linejoin:miter;stroke-miterlimit:4;stroke-dasharray:none;stroke-opacity:1"
           d="m 502.809,27.324 57.961,0 0,57.961 -57.961,0 0,-57.961 z" /></g><g
         transform="matrix(1,0,0,-1,0,141.73228)"
         id="g82"><path
           id="path84"
           style="fill:none;stroke:#000000;stroke-width:1.44902003;stroke-linecap:butt;stroke-linejoin:miter;stroke-miterlimit:4;stroke-dasharray:none;stroke-opacity:1"
           d="m 560.77,38.914 11.593,0" /></g><g
         transform="matrix(1,0,0,-1,0,141.73228)"
         id="g86"><path
           id="path88"
           style="fill:none;stroke:#000000;stroke-width:1.44902003;stroke-linecap:butt;stroke-linejoin:miter;stroke-miterlimit:4;stroke-dasharray:none;stroke-opacity:1"
           d="m 560.77,73.691 11.593,0" /></g><g
         transform="matrix(1,0,0,-1,0,141.73228)"
         id="g90"><path
           id="path92"
           style="fill:none;stroke:#000000;stroke-width:1.44902003;stroke-linecap:butt;stroke-linejoin:miter;stroke-miterlimit:4;stroke-dasharray:none;stroke-opacity:1"
           d="m 502.809,38.914 -11.59,0" /></g><g
         transform="matrix(1,0,0,-1,0,141.73228)"
         id="g94"><path
           id="path96"
           style="fill:none;stroke:#000000;stroke-width:1.44902003;stroke-linecap:butt;stroke-linejoin:miter;stroke-miterlimit:4;stroke-dasharray:none;stroke-opacity:1"
           d="m 502.809,73.691 -11.59,0" /></g><g
         transform="matrix(1,0,0,-1,0,141.73228)"
         id="g98"><path
           id="path100"
           style="fill:none;stroke:#000000;stroke-width:1.44902003;stroke-linecap:butt;stroke-linejoin:miter;stroke-miterlimit:4;stroke-dasharray:none;stroke-opacity:1"
           d="m 572.363,38.914 75.348,0" /></g><g
         transform="matrix(1,0,0,-1,0,141.73228)"
         id="g102"><path
           id="path104"
           style="fill:none;stroke:#000000;stroke-width:1.44902003;stroke-linecap:butt;stroke-linejoin:miter;stroke-miterlimit:4;stroke-dasharray:none;stroke-opacity:1"
           d="m 572.363,73.691 75.348,0" /></g><g
         transform="matrix(1,0,0,-1,0,141.73228)"
         id="g106"><path
           id="path108"
           style="fill:#ffffff;fill-opacity:1;fill-rule:nonzero;stroke:#000000;stroke-width:1.44902003;stroke-linecap:butt;stroke-linejoin:miter;stroke-miterlimit:4;stroke-dasharray:none;stroke-opacity:1"
           d="m 659.305,27.324 57.961,0 0,57.961 -57.961,0 0,-57.961 z" /></g><g
         transform="matrix(1,0,0,-1,0,141.73228)"
         id="g110"><path
           id="path112"
           style="fill:none;stroke:#000000;stroke-width:1.44902003;stroke-linecap:butt;stroke-linejoin:miter;stroke-miterlimit:4;stroke-dasharray:none;stroke-opacity:1"
           d="m 717.266,38.914 11.589,0" /></g><g
         transform="matrix(1,0,0,-1,0,141.73228)"
         id="g114"><path
           id="path116"
           style="fill:none;stroke:#000000;stroke-width:1.44902003;stroke-linecap:butt;stroke-linejoin:miter;stroke-miterlimit:4;stroke-dasharray:none;stroke-opacity:1"
           d="m 717.266,73.691 11.589,0" /></g><g
         transform="matrix(1,0,0,-1,0,141.73228)"
         id="g118"><path
           id="path120"
           style="fill:none;stroke:#000000;stroke-width:1.44902003;stroke-linecap:butt;stroke-linejoin:miter;stroke-miterlimit:4;stroke-dasharray:none;stroke-opacity:1"
           d="m 659.305,38.914 -11.594,0" /></g><g
         transform="matrix(1,0,0,-1,0,141.73228)"
         id="g122"><path
           id="path124"
           style="fill:none;stroke:#000000;stroke-width:1.44902003;stroke-linecap:butt;stroke-linejoin:miter;stroke-miterlimit:4;stroke-dasharray:none;stroke-opacity:1"
           d="m 659.305,73.691 -11.594,0" /></g><g
         transform="matrix(1,0,0,-1,0,141.73228)"
         id="g126"><path
           id="path128"
           style="fill:none;stroke:#000000;stroke-width:1.44902003;stroke-linecap:butt;stroke-linejoin:miter;stroke-miterlimit:4;stroke-dasharray:none;stroke-opacity:1"
           d="m 728.855,73.691 75.352,0" /></g><g
         transform="matrix(1,0,0,-1,0,141.73228)"
         id="g130"><path
           id="path132"
           style="fill:none;stroke:#000000;stroke-width:1.44902003;stroke-linecap:butt;stroke-linejoin:miter;stroke-miterlimit:4;stroke-dasharray:none;stroke-opacity:1"
           d="m 728.855,38.914 75.352,0" /></g><g
         transform="matrix(1,0,0,-1,0,141.73228)"
         id="g134"><path
           id="path136"
           style="fill:none;stroke:#000000;stroke-width:1.44902003;stroke-linecap:butt;stroke-linejoin:miter;stroke-miterlimit:4;stroke-dasharray:none;stroke-opacity:1"
           d="m 140.555,73.691 -26.102,54.766" /></g><path
         id="path138"
         style="fill:#000000;fill-opacity:1;fill-rule:nonzero;stroke:none"
         d="m 114.453,13.275 c -0.066,0.032 -0.101,0.125 -0.07,0.192 0.031,0.066 0.129,0.097 0.195,0.07 0.063,-0.031 0.098,-0.129 0.067,-0.195 -0.032,-0.067 -0.129,-0.102 -0.192,-0.067 z" /><g
         transform="matrix(1,0,0,-1,0,141.73228)"
         id="g140"><path
           id="path142"
           style="fill:none;stroke:#000000;stroke-width:1.44902003;stroke-linecap:butt;stroke-linejoin:miter;stroke-miterlimit:4;stroke-dasharray:none;stroke-opacity:1"
           d="m 114.453,128.457 c -0.066,-0.031 -0.101,-0.125 -0.07,-0.191 0.031,-0.067 0.129,-0.098 0.195,-0.071 0.063,0.032 0.098,0.129 0.067,0.196 -0.032,0.066 -0.129,0.101 -0.192,0.066" /></g><g
         transform="matrix(1,0,0,-1,0,141.73228)"
         id="g144"><path
           id="path146"
           style="fill:none;stroke:#000000;stroke-width:1.44902003;stroke-linecap:butt;stroke-linejoin:miter;stroke-miterlimit:4;stroke-dasharray:none;stroke-opacity:1"
           d="m 140.555,38.914 -26.102,54.77" /></g><path
         id="path148"
         style="fill:#000000;fill-opacity:1;fill-rule:nonzero;stroke:none"
         d="m 114.453,48.049 c -0.066,0.031 -0.101,0.129 -0.07,0.195 0.031,0.063 0.129,0.098 0.195,0.066 0.063,-0.031 0.098,-0.128 0.067,-0.191 -0.032,-0.066 -0.129,-0.102 -0.192,-0.07 z" /><g
         transform="matrix(1,0,0,-1,0,141.73228)"
         id="g150"><path
           id="path152"
           style="fill:none;stroke:#000000;stroke-width:1.44902003;stroke-linecap:butt;stroke-linejoin:miter;stroke-miterlimit:4;stroke-dasharray:none;stroke-opacity:1"
           d="m 114.453,93.684 c -0.066,-0.032 -0.101,-0.129 -0.07,-0.196 0.031,-0.062 0.129,-0.097 0.195,-0.066 0.063,0.031 0.098,0.129 0.067,0.191 -0.032,0.067 -0.129,0.102 -0.192,0.071" /></g><g
         transform="matrix(1,0,0,-1,0,141.73228)"
         id="g154"><path
           id="path156"
           style="fill:none;stroke:#000000;stroke-width:1.44902003;stroke-linecap:butt;stroke-linejoin:miter;stroke-miterlimit:4;stroke-dasharray:none;stroke-opacity:1"
           d="m 297.051,38.914 -26.106,54.77" /></g><path
         id="path158"
         style="fill:#000000;fill-opacity:1;fill-rule:nonzero;stroke:none"
         d="m 270.945,48.049 c -0.062,0.031 -0.097,0.129 -0.066,0.195 0.031,0.063 0.129,0.098 0.191,0.066 0.067,-0.031 0.102,-0.128 0.071,-0.191 -0.032,-0.066 -0.129,-0.102 -0.196,-0.07 z" /><g
         transform="matrix(1,0,0,-1,0,141.73228)"
         id="g160"><path
           id="path162"
           style="fill:none;stroke:#000000;stroke-width:1.44902003;stroke-linecap:butt;stroke-linejoin:miter;stroke-miterlimit:4;stroke-dasharray:none;stroke-opacity:1"
           d="m 270.945,93.684 c -0.062,-0.032 -0.097,-0.129 -0.066,-0.196 0.031,-0.062 0.129,-0.097 0.191,-0.066 0.067,0.031 0.102,0.129 0.071,0.191 -0.032,0.067 -0.129,0.102 -0.196,0.071" /></g><g
         transform="matrix(1,0,0,-1,0,141.73228)"
         id="g164"><path
           id="path166"
           style="fill:none;stroke:#000000;stroke-width:1.44902003;stroke-linecap:butt;stroke-linejoin:miter;stroke-miterlimit:4;stroke-dasharray:none;stroke-opacity:1"
           d="m 297.051,73.691 -26.106,54.766" /></g><path
         id="path168"
         style="fill:#000000;fill-opacity:1;fill-rule:nonzero;stroke:none"
         d="m 270.945,13.275 c -0.062,0.032 -0.097,0.125 -0.066,0.192 0.031,0.066 0.129,0.097 0.191,0.07 0.067,-0.031 0.102,-0.129 0.071,-0.195 -0.032,-0.067 -0.129,-0.102 -0.196,-0.067 z" /><g
         transform="matrix(1,0,0,-1,0,141.73228)"
         id="g170"><path
           id="path172"
           style="fill:none;stroke:#000000;stroke-width:1.44902003;stroke-linecap:butt;stroke-linejoin:miter;stroke-miterlimit:4;stroke-dasharray:none;stroke-opacity:1"
           d="m 270.945,128.457 c -0.062,-0.031 -0.097,-0.125 -0.066,-0.191 0.031,-0.067 0.129,-0.098 0.191,-0.071 0.067,0.032 0.102,0.129 0.071,0.196 -0.032,0.066 -0.129,0.101 -0.196,0.066" /></g><g
         transform="matrix(1,0,0,-1,0,141.73228)"
         id="g174"><path
           id="path176"
           style="fill:none;stroke:#000000;stroke-width:1.44902003;stroke-linecap:butt;stroke-linejoin:miter;stroke-miterlimit:4;stroke-dasharray:none;stroke-opacity:1"
           d="m 453.543,73.691 -26.102,54.766" /></g><path
         id="path178"
         style="fill:#000000;fill-opacity:1;fill-rule:nonzero;stroke:none"
         d="m 427.441,13.275 c -0.066,0.032 -0.101,0.125 -0.07,0.192 0.031,0.066 0.129,0.097 0.195,0.07 0.063,-0.031 0.098,-0.129 0.067,-0.195 -0.031,-0.067 -0.125,-0.102 -0.192,-0.067 z" /><g
         transform="matrix(1,0,0,-1,0,141.73228)"
         id="g180"><path
           id="path182"
           style="fill:none;stroke:#000000;stroke-width:1.44902003;stroke-linecap:butt;stroke-linejoin:miter;stroke-miterlimit:4;stroke-dasharray:none;stroke-opacity:1"
           d="m 427.441,128.457 c -0.066,-0.031 -0.101,-0.125 -0.07,-0.191 0.031,-0.067 0.129,-0.098 0.195,-0.071 0.063,0.032 0.098,0.129 0.067,0.196 -0.031,0.066 -0.125,0.101 -0.192,0.066" /></g><g
         transform="matrix(1,0,0,-1,0,141.73228)"
         id="g184"><path
           id="path186"
           style="fill:none;stroke:#000000;stroke-width:1.44902003;stroke-linecap:butt;stroke-linejoin:miter;stroke-miterlimit:4;stroke-dasharray:none;stroke-opacity:1"
           d="m 453.543,38.914 -26.102,54.77" /></g><path
         id="path188"
         style="fill:#000000;fill-opacity:1;fill-rule:nonzero;stroke:none"
         d="m 427.441,48.049 c -0.066,0.031 -0.101,0.129 -0.07,0.195 0.031,0.063 0.129,0.098 0.195,0.066 0.063,-0.031 0.098,-0.128 0.067,-0.191 -0.031,-0.066 -0.125,-0.102 -0.192,-0.07 z" /><g
         transform="matrix(1,0,0,-1,0,141.73228)"
         id="g190"><path
           id="path192"
           style="fill:none;stroke:#000000;stroke-width:1.44902003;stroke-linecap:butt;stroke-linejoin:miter;stroke-miterlimit:4;stroke-dasharray:none;stroke-opacity:1"
           d="m 427.441,93.684 c -0.066,-0.032 -0.101,-0.129 -0.07,-0.196 0.031,-0.062 0.129,-0.097 0.195,-0.066 0.063,0.031 0.098,0.129 0.067,0.191 -0.031,0.067 -0.125,0.102 -0.192,0.071" /></g><g
         transform="matrix(1,0,0,-1,0,141.73228)"
         id="g194"><path
           id="path196"
           style="fill:none;stroke:#000000;stroke-width:1.44902003;stroke-linecap:butt;stroke-linejoin:miter;stroke-miterlimit:4;stroke-dasharray:none;stroke-opacity:1"
           d="m 610.039,73.691 -26.105,54.766" /></g><path
         id="path198"
         style="fill:#000000;fill-opacity:1;fill-rule:nonzero;stroke:none"
         d="m 583.934,13.275 c -0.063,0.032 -0.098,0.125 -0.067,0.192 0.031,0.066 0.129,0.097 0.192,0.07 0.066,-0.031 0.101,-0.129 0.07,-0.195 -0.031,-0.067 -0.129,-0.102 -0.195,-0.067 z" /><g
         transform="matrix(1,0,0,-1,0,141.73228)"
         id="g200"><path
           id="path202"
           style="fill:none;stroke:#000000;stroke-width:1.44902003;stroke-linecap:butt;stroke-linejoin:miter;stroke-miterlimit:4;stroke-dasharray:none;stroke-opacity:1"
           d="m 583.934,128.457 c -0.063,-0.031 -0.098,-0.125 -0.067,-0.191 0.031,-0.067 0.129,-0.098 0.192,-0.071 0.066,0.032 0.101,0.129 0.07,0.196 -0.031,0.066 -0.129,0.101 -0.195,0.066" /></g><g
         transform="matrix(1,0,0,-1,0,141.73228)"
         id="g204"><path
           id="path206"
           style="fill:none;stroke:#000000;stroke-width:1.44902003;stroke-linecap:butt;stroke-linejoin:miter;stroke-miterlimit:4;stroke-dasharray:none;stroke-opacity:1"
           d="m 610.039,38.914 -26.105,54.77" /></g><path
         id="path208"
         style="fill:#000000;fill-opacity:1;fill-rule:nonzero;stroke:none"
         d="m 583.934,48.049 c -0.063,0.031 -0.098,0.129 -0.067,0.195 0.031,0.063 0.129,0.098 0.192,0.066 0.066,-0.031 0.101,-0.128 0.07,-0.191 -0.031,-0.066 -0.129,-0.102 -0.195,-0.07 z" /><g
         transform="matrix(1,0,0,-1,0,141.73228)"
         id="g210"><path
           id="path212"
           style="fill:none;stroke:#000000;stroke-width:1.44902003;stroke-linecap:butt;stroke-linejoin:miter;stroke-miterlimit:4;stroke-dasharray:none;stroke-opacity:1"
           d="m 583.934,93.684 c -0.063,-0.032 -0.098,-0.129 -0.067,-0.196 0.031,-0.062 0.129,-0.097 0.192,-0.066 0.066,0.031 0.101,0.129 0.07,0.191 -0.031,0.067 -0.129,0.102 -0.195,0.071" /></g><g
         transform="matrix(1,0,0,-1,0,141.73228)"
         id="g214"><path
           id="path216"
           style="fill:none;stroke:#000000;stroke-width:1.44902003;stroke-linecap:butt;stroke-linejoin:miter;stroke-miterlimit:4;stroke-dasharray:none;stroke-opacity:1"
           d="M 766.531,73.691 740.43,128.457" /></g><path
         id="path218"
         style="fill:#000000;fill-opacity:1;fill-rule:nonzero;stroke:none"
         d="m 740.43,13.275 c -0.067,0.032 -0.102,0.125 -0.071,0.192 0.032,0.066 0.129,0.097 0.196,0.07 0.062,-0.031 0.097,-0.129 0.066,-0.195 -0.031,-0.067 -0.125,-0.102 -0.191,-0.067 z" /><g
         transform="matrix(1,0,0,-1,0,141.73228)"
         id="g220"><path
           id="path222"
           style="fill:none;stroke:#000000;stroke-width:1.44902003;stroke-linecap:butt;stroke-linejoin:miter;stroke-miterlimit:4;stroke-dasharray:none;stroke-opacity:1"
           d="m 740.43,128.457 c -0.067,-0.031 -0.102,-0.125 -0.071,-0.191 0.032,-0.067 0.129,-0.098 0.196,-0.071 0.062,0.032 0.097,0.129 0.066,0.196 -0.031,0.066 -0.125,0.101 -0.191,0.066" /></g><g
         transform="matrix(1,0,0,-1,0,141.73228)"
         id="g224"><path
           id="path226"
           style="fill:none;stroke:#000000;stroke-width:1.44902003;stroke-linecap:butt;stroke-linejoin:miter;stroke-miterlimit:4;stroke-dasharray:none;stroke-opacity:1"
           d="M 766.531,38.914 740.43,93.684" /></g><path
         id="path228"
         style="fill:#000000;fill-opacity:1;fill-rule:nonzero;stroke:none"
         d="m 740.43,48.049 c -0.067,0.031 -0.102,0.129 -0.071,0.195 0.032,0.063 0.129,0.098 0.196,0.066 0.062,-0.031 0.097,-0.128 0.066,-0.191 -0.031,-0.066 -0.125,-0.102 -0.191,-0.07 z" /><g
         transform="matrix(1,0,0,-1,0,141.73228)"
         id="g230"><path
           id="path232"
           style="fill:none;stroke:#000000;stroke-width:1.44902003;stroke-linecap:butt;stroke-linejoin:miter;stroke-miterlimit:4;stroke-dasharray:none;stroke-opacity:1"
           d="m 740.43,93.684 c -0.067,-0.032 -0.102,-0.129 -0.071,-0.196 0.032,-0.062 0.129,-0.097 0.196,-0.066 0.062,0.031 0.097,0.129 0.066,0.191 -0.031,0.067 -0.125,0.102 -0.191,0.071" /></g><g
         transform="matrix(1,0,0,-1,0,141.73228)"
         id="g234"><path
           id="path236"
           style="fill:none;stroke:#bf00bf;stroke-width:1.44902003;stroke-linecap:butt;stroke-linejoin:miter;stroke-miterlimit:4;stroke-dasharray:5.796081, 5.796081;stroke-dashoffset:0;stroke-opacity:1"
           d="m 270.965,27.324 0,52.164" /></g><g
         transform="matrix(1,0,0,-1,0,141.73228)"
         id="g238"><path
           id="path240"
           style="fill:none;stroke:#bf00bf;stroke-width:1.44902003;stroke-linecap:butt;stroke-linejoin:miter;stroke-miterlimit:4;stroke-dasharray:5.796081, 5.796081;stroke-dashoffset:0;stroke-opacity:1"
           d="m 427.461,27.324 0,52.164" /></g><g
         transform="matrix(1,0,0,-1,0,141.73228)"
         id="g242"><path
           id="path244"
           style="fill:none;stroke:#bf00bf;stroke-width:1.44902003;stroke-linecap:butt;stroke-linejoin:miter;stroke-miterlimit:4;stroke-dasharray:5.796081, 5.796081;stroke-dashoffset:0;stroke-opacity:1"
           d="m 479.625,27.324 0,52.164" /></g><g
         transform="matrix(1,0,0,-1,0,141.73228)"
         id="g246"><path
           id="path248"
           style="fill:none;stroke:#bf00bf;stroke-width:1.44902003;stroke-linecap:butt;stroke-linejoin:miter;stroke-miterlimit:4;stroke-dasharray:5.796081, 5.796081;stroke-dashoffset:0;stroke-opacity:1"
           d="m 636.121,27.324 0,52.164" /></g><path
         id="path250"
         style="fill:#000000;fill-opacity:1;fill-rule:nonzero;stroke:none"
         d="m 213.203,86.385 2.531,-6.75 -0.953,0 -1.531,4.047 -1.891,-4.047 -0.953,0 2.406,5.25 -0.374,0.968 c -0.149,0.407 -0.399,0.61 -0.75,0.61 l -0.469,0 0,0.765 0.578,0 c 0.726,-0.011 1.195,-0.293 1.406,-0.843 z" /><path
         id="path252"
         style="fill:#000000;fill-opacity:1;fill-rule:nonzero;stroke:none"
         d="m 218.465,86.932 0.828,0 -2.547,-8.219 -0.828,0 2.547,8.219 z" /><path
         id="path254"
         style="fill:#000000;fill-opacity:1;fill-rule:nonzero;stroke:none"
         d="m 222.406,83.103 c -0.468,0 -0.84,-0.132 -1.109,-0.39 -0.262,-0.25 -0.391,-0.594 -0.391,-1.031 0,-0.438 0.129,-0.782 0.391,-1.032 0.269,-0.25 0.641,-0.375 1.109,-0.375 0.469,0 0.836,0.125 1.11,0.375 0.269,0.25 0.406,0.594 0.406,1.032 0,0.437 -0.137,0.781 -0.406,1.031 -0.262,0.258 -0.633,0.39 -1.11,0.39 z m -0.984,0.407 c -0.418,0.101 -0.746,0.3 -0.984,0.593 -0.243,0.289 -0.36,0.645 -0.36,1.063 0,0.582 0.207,1.039 0.625,1.375 0.414,0.344 0.985,0.516 1.703,0.516 0.727,0 1.301,-0.172 1.719,-0.516 0.414,-0.336 0.625,-0.793 0.625,-1.375 0,-0.418 -0.121,-0.774 -0.359,-1.063 -0.243,-0.293 -0.571,-0.492 -0.985,-0.593 0.477,-0.106 0.848,-0.321 1.11,-0.641 0.257,-0.324 0.39,-0.719 0.39,-1.187 0,-0.711 -0.215,-1.25 -0.64,-1.625 -0.43,-0.375 -1.047,-0.563 -1.86,-0.563 -0.804,0 -1.422,0.188 -1.859,0.563 -0.43,0.375 -0.641,0.914 -0.641,1.625 0,0.468 0.133,0.863 0.406,1.187 0.27,0.32 0.641,0.535 1.11,0.641 z m -0.36,1.562 c 0,-0.375 0.118,-0.672 0.36,-0.89 0.238,-0.211 0.566,-0.313 0.984,-0.313 0.426,0 0.758,0.102 1,0.313 0.239,0.218 0.36,0.515 0.36,0.89 0,0.375 -0.121,0.664 -0.36,0.875 -0.242,0.219 -0.574,0.328 -1,0.328 -0.418,0 -0.746,-0.109 -0.984,-0.328 -0.242,-0.211 -0.36,-0.5 -0.36,-0.875 z" /><path
         id="path256"
         style="fill:#000000;fill-opacity:1;fill-rule:nonzero;stroke:none"
         d="m 369.695,86.385 2.532,-6.75 -0.954,0 -1.531,4.047 -1.89,-4.047 -0.954,0 2.407,5.25 -0.375,0.968 c -0.149,0.407 -0.399,0.61 -0.75,0.61 l -0.469,0 0,0.765 0.578,0 c 0.727,-0.011 1.195,-0.293 1.406,-0.843 z" /><path
         id="path258"
         style="fill:#000000;fill-opacity:1;fill-rule:nonzero;stroke:none"
         d="m 374.957,86.932 0.828,0 -2.547,-8.219 -0.828,0 2.547,8.219 z" /><path
         id="path260"
         style="fill:#000000;fill-opacity:1;fill-rule:nonzero;stroke:none"
         d="m 378.898,83.103 c -0.468,0 -0.839,-0.132 -1.109,-0.39 -0.262,-0.25 -0.391,-0.594 -0.391,-1.031 0,-0.438 0.129,-0.782 0.391,-1.032 0.27,-0.25 0.641,-0.375 1.109,-0.375 0.469,0 0.836,0.125 1.11,0.375 0.269,0.25 0.406,0.594 0.406,1.032 0,0.437 -0.137,0.781 -0.406,1.031 -0.262,0.258 -0.633,0.39 -1.11,0.39 z m -0.984,0.407 c -0.418,0.101 -0.746,0.3 -0.984,0.593 -0.242,0.289 -0.36,0.645 -0.36,1.063 0,0.582 0.207,1.039 0.625,1.375 0.414,0.344 0.985,0.516 1.703,0.516 0.727,0 1.301,-0.172 1.719,-0.516 0.414,-0.336 0.625,-0.793 0.625,-1.375 0,-0.418 -0.121,-0.774 -0.359,-1.063 -0.242,-0.293 -0.571,-0.492 -0.985,-0.593 0.477,-0.106 0.848,-0.321 1.11,-0.641 0.258,-0.324 0.39,-0.719 0.39,-1.187 0,-0.711 -0.214,-1.25 -0.64,-1.625 -0.43,-0.375 -1.047,-0.563 -1.86,-0.563 -0.804,0 -1.421,0.188 -1.859,0.563 -0.43,0.375 -0.641,0.914 -0.641,1.625 0,0.468 0.133,0.863 0.407,1.187 0.269,0.32 0.64,0.535 1.109,0.641 z m -0.359,1.562 c 0,-0.375 0.117,-0.672 0.359,-0.89 0.238,-0.211 0.566,-0.313 0.984,-0.313 0.426,0 0.758,0.102 1,0.313 0.239,0.218 0.36,0.515 0.36,0.89 0,0.375 -0.121,0.664 -0.36,0.875 -0.242,0.219 -0.574,0.328 -1,0.328 -0.418,0 -0.746,-0.109 -0.984,-0.328 -0.242,-0.211 -0.359,-0.5 -0.359,-0.875 z" /><path
         id="path262"
         style="fill:#000000;fill-opacity:1;fill-rule:nonzero;stroke:none"
         d="m 526.191,86.385 2.532,-6.75 -0.953,0 -1.532,4.047 -1.89,-4.047 -0.953,0 2.406,5.25 -0.375,0.968 c -0.149,0.407 -0.399,0.61 -0.75,0.61 l -0.469,0 0,0.765 0.578,0 c 0.727,-0.011 1.195,-0.293 1.406,-0.843 z" /><path
         id="path264"
         style="fill:#000000;fill-opacity:1;fill-rule:nonzero;stroke:none"
         d="m 531.453,86.932 0.828,0 -2.547,-8.219 -0.828,0 2.547,8.219 z" /><path
         id="path266"
         style="fill:#000000;fill-opacity:1;fill-rule:nonzero;stroke:none"
         d="m 535.395,83.103 c -0.469,0 -0.84,-0.132 -1.11,-0.39 -0.262,-0.25 -0.39,-0.594 -0.39,-1.031 0,-0.438 0.128,-0.782 0.39,-1.032 0.27,-0.25 0.641,-0.375 1.11,-0.375 0.468,0 0.835,0.125 1.109,0.375 0.269,0.25 0.406,0.594 0.406,1.032 0,0.437 -0.137,0.781 -0.406,1.031 -0.262,0.258 -0.633,0.39 -1.109,0.39 z m -0.985,0.407 c -0.418,0.101 -0.746,0.3 -0.984,0.593 -0.242,0.289 -0.36,0.645 -0.36,1.063 0,0.582 0.207,1.039 0.625,1.375 0.414,0.344 0.985,0.516 1.704,0.516 0.726,0 1.3,-0.172 1.718,-0.516 0.414,-0.336 0.625,-0.793 0.625,-1.375 0,-0.418 -0.121,-0.774 -0.359,-1.063 -0.242,-0.293 -0.57,-0.492 -0.984,-0.593 0.476,-0.106 0.847,-0.321 1.109,-0.641 0.258,-0.324 0.391,-0.719 0.391,-1.187 0,-0.711 -0.215,-1.25 -0.641,-1.625 -0.43,-0.375 -1.047,-0.563 -1.859,-0.563 -0.805,0 -1.422,0.188 -1.86,0.563 -0.43,0.375 -0.64,0.914 -0.64,1.625 0,0.468 0.132,0.863 0.406,1.187 0.269,0.32 0.64,0.535 1.109,0.641 z m -0.359,1.562 c 0,-0.375 0.117,-0.672 0.359,-0.89 0.238,-0.211 0.567,-0.313 0.985,-0.313 0.425,0 0.757,0.102 1,0.313 0.238,0.218 0.359,0.515 0.359,0.89 0,0.375 -0.121,0.664 -0.359,0.875 -0.243,0.219 -0.575,0.328 -1,0.328 -0.418,0 -0.747,-0.109 -0.985,-0.328 -0.242,-0.211 -0.359,-0.5 -0.359,-0.875 z" /><path
         id="path268"
         style="fill:#000000;fill-opacity:1;fill-rule:nonzero;stroke:none"
         d="m 682.684,86.385 2.531,-6.75 -0.953,0 -1.532,4.047 -1.89,-4.047 -0.953,0 2.406,5.25 -0.375,0.968 c -0.148,0.407 -0.398,0.61 -0.75,0.61 l -0.469,0 0,0.765 0.578,0 c 0.727,-0.011 1.196,-0.293 1.407,-0.843 z" /><path
         id="path270"
         style="fill:#000000;fill-opacity:1;fill-rule:nonzero;stroke:none"
         d="m 687.945,86.932 0.828,0 -2.546,-8.219 -0.829,0 2.547,8.219 z" /><path
         id="path272"
         style="fill:#000000;fill-opacity:1;fill-rule:nonzero;stroke:none"
         d="m 691.887,83.103 c -0.469,0 -0.84,-0.132 -1.11,-0.39 -0.261,-0.25 -0.39,-0.594 -0.39,-1.031 0,-0.438 0.129,-0.782 0.39,-1.032 0.27,-0.25 0.641,-0.375 1.11,-0.375 0.468,0 0.836,0.125 1.109,0.375 0.27,0.25 0.406,0.594 0.406,1.032 0,0.437 -0.136,0.781 -0.406,1.031 -0.262,0.258 -0.633,0.39 -1.109,0.39 z m -0.985,0.407 c -0.418,0.101 -0.746,0.3 -0.984,0.593 -0.242,0.289 -0.359,0.645 -0.359,1.063 0,0.582 0.207,1.039 0.625,1.375 0.414,0.344 0.984,0.516 1.703,0.516 0.726,0 1.301,-0.172 1.718,-0.516 0.415,-0.336 0.625,-0.793 0.625,-1.375 0,-0.418 -0.121,-0.774 -0.359,-1.063 -0.242,-0.293 -0.57,-0.492 -0.984,-0.593 0.476,-0.106 0.847,-0.321 1.109,-0.641 0.258,-0.324 0.391,-0.719 0.391,-1.187 0,-0.711 -0.215,-1.25 -0.641,-1.625 -0.43,-0.375 -1.047,-0.563 -1.859,-0.563 -0.805,0 -1.422,0.188 -1.86,0.563 -0.429,0.375 -0.64,0.914 -0.64,1.625 0,0.468 0.133,0.863 0.406,1.187 0.269,0.32 0.641,0.535 1.109,0.641 z m -0.359,1.562 c 0,-0.375 0.117,-0.672 0.359,-0.89 0.239,-0.211 0.567,-0.313 0.985,-0.313 0.425,0 0.758,0.102 1,0.313 0.238,0.218 0.359,0.515 0.359,0.89 0,0.375 -0.121,0.664 -0.359,0.875 -0.242,0.219 -0.575,0.328 -1,0.328 -0.418,0 -0.746,-0.109 -0.985,-0.328 -0.242,-0.211 -0.359,-0.5 -0.359,-0.875 z" /><path
         id="path274"
         style="fill:#000000;fill-opacity:1;fill-rule:nonzero;stroke:none"
         d="m 753.965,109.439 3.437,0 0,-0.828 -4.625,0 0,0.828 c 0.375,0.383 0.883,0.907 1.532,1.563 0.644,0.656 1.05,1.078 1.218,1.265 0.313,0.352 0.532,0.649 0.657,0.891 0.125,0.25 0.187,0.492 0.187,0.734 0,0.383 -0.137,0.696 -0.406,0.938 -0.274,0.25 -0.625,0.375 -1.063,0.375 -0.312,0 -0.64,-0.059 -0.984,-0.172 -0.336,-0.105 -0.699,-0.266 -1.094,-0.484 l 0,1 c 0.395,0.156 0.766,0.273 1.11,0.359 0.343,0.082 0.66,0.125 0.953,0.125 0.75,0 1.347,-0.187 1.797,-0.562 0.457,-0.375 0.687,-0.883 0.687,-1.516 0,-0.305 -0.059,-0.59 -0.172,-0.859 -0.117,-0.262 -0.32,-0.575 -0.609,-0.938 -0.086,-0.094 -0.344,-0.371 -0.781,-0.828 -0.438,-0.449 -1.055,-1.078 -1.844,-1.891 z" /><path
         id="path276"
         style="fill:#000000;fill-opacity:1;fill-rule:nonzero;stroke:none"
         d="m 759.461,109.846 1.031,0 0,-0.829 -0.797,-1.562 -0.64,0 0.406,1.562 0,0.829 z" /><path
         id="path278"
         style="fill:#000000;fill-opacity:1;fill-rule:nonzero;stroke:none"
         d="m 762.492,115.908 3.875,0 0,-0.844 -2.969,0 0,-1.781 c 0.145,0.051 0.286,0.086 0.422,0.109 0.145,0.02 0.289,0.032 0.438,0.032 0.812,0 1.453,-0.227 1.922,-0.672 0.476,-0.438 0.718,-1.039 0.718,-1.797 0,-0.793 -0.246,-1.406 -0.734,-1.844 -0.48,-0.429 -1.168,-0.64 -2.062,-0.64 -0.305,0 -0.618,0.027 -0.938,0.078 -0.312,0.054 -0.641,0.129 -0.984,0.234 l 0,0.984 c 0.3,-0.156 0.609,-0.277 0.922,-0.359 0.312,-0.074 0.64,-0.109 0.984,-0.109 0.562,0 1.004,0.144 1.328,0.437 0.332,0.301 0.5,0.707 0.5,1.219 0,0.5 -0.168,0.894 -0.5,1.187 -0.324,0.301 -0.766,0.454 -1.328,0.454 -0.262,0 -0.527,-0.032 -0.797,-0.094 -0.262,-0.055 -0.527,-0.141 -0.797,-0.266 l 0,3.672 z" /><path
         id="path280"
         style="fill:#000000;fill-opacity:1;fill-rule:nonzero;stroke:none"
         d="m 770.836,112.08 c -0.469,0 -0.84,-0.133 -1.109,-0.391 -0.262,-0.25 -0.391,-0.593 -0.391,-1.031 0,-0.437 0.129,-0.781 0.391,-1.031 0.269,-0.25 0.64,-0.375 1.109,-0.375 0.469,0 0.836,0.125 1.109,0.375 0.27,0.25 0.407,0.594 0.407,1.031 0,0.438 -0.137,0.781 -0.407,1.031 -0.261,0.258 -0.633,0.391 -1.109,0.391 z m -0.984,0.406 c -0.418,0.102 -0.747,0.301 -0.985,0.594 -0.242,0.289 -0.359,0.644 -0.359,1.062 0,0.582 0.207,1.04 0.625,1.375 0.414,0.344 0.984,0.516 1.703,0.516 0.726,0 1.301,-0.172 1.719,-0.516 0.414,-0.335 0.625,-0.793 0.625,-1.375 0,-0.418 -0.121,-0.773 -0.36,-1.062 -0.242,-0.293 -0.57,-0.492 -0.984,-0.594 0.476,-0.105 0.848,-0.32 1.109,-0.64 0.258,-0.325 0.391,-0.719 0.391,-1.188 0,-0.711 -0.215,-1.25 -0.641,-1.625 -0.429,-0.375 -1.047,-0.562 -1.859,-0.562 -0.805,0 -1.422,0.187 -1.859,0.562 -0.43,0.375 -0.641,0.914 -0.641,1.625 0,0.469 0.133,0.863 0.406,1.188 0.27,0.32 0.641,0.535 1.11,0.64 z m -0.36,1.563 c 0,-0.375 0.117,-0.672 0.36,-0.891 0.238,-0.211 0.566,-0.312 0.984,-0.312 0.426,0 0.758,0.101 1,0.312 0.238,0.219 0.359,0.516 0.359,0.891 0,0.375 -0.121,0.664 -0.359,0.875 -0.242,0.218 -0.574,0.328 -1,0.328 -0.418,0 -0.746,-0.11 -0.984,-0.328 -0.243,-0.211 -0.36,-0.5 -0.36,-0.875 z" /><path
         id="path282"
         style="fill:#000000;fill-opacity:1;fill-rule:nonzero;stroke:none"
         d="m 677.926,121.033 1.625,0 0,5.563 -1.766,-0.344 0,0.89 1.75,0.36 0.985,0 0,-6.469 1.609,0 0,-0.828 -4.203,0 0,0.828 z" /><path
         id="path284"
         style="fill:#000000;fill-opacity:1;fill-rule:nonzero;stroke:none"
         d="m 684.113,121.439 1.032,0 0,-0.828 -0.797,-1.562 -0.641,0 0.406,1.562 0,0.828 z" /><path
         id="path286"
         style="fill:#000000;fill-opacity:1;fill-rule:nonzero;stroke:none"
         d="m 689.363,124.236 c -0.437,0 -0.789,-0.152 -1.047,-0.453 -0.261,-0.305 -0.39,-0.715 -0.39,-1.234 0,-0.532 0.129,-0.95 0.39,-1.25 0.258,-0.305 0.61,-0.453 1.047,-0.453 0.446,0 0.797,0.148 1.047,0.453 0.258,0.3 0.391,0.718 0.391,1.25 0,0.519 -0.133,0.929 -0.391,1.234 -0.25,0.301 -0.601,0.453 -1.047,0.453 z m 1.969,3.094 0,-0.891 c -0.25,0.114 -0.508,0.203 -0.766,0.266 -0.25,0.062 -0.496,0.094 -0.734,0.094 -0.656,0 -1.156,-0.219 -1.5,-0.657 -0.344,-0.437 -0.539,-1.105 -0.578,-2 0.187,0.282 0.426,0.493 0.719,0.641 0.289,0.156 0.609,0.234 0.953,0.234 0.726,0 1.304,-0.226 1.734,-0.671 0.426,-0.438 0.641,-1.039 0.641,-1.797 0,-0.75 -0.227,-1.356 -0.672,-1.813 -0.438,-0.449 -1.027,-0.672 -1.766,-0.672 -0.843,0 -1.492,0.321 -1.937,0.969 -0.438,0.645 -0.656,1.582 -0.656,2.813 0,1.144 0.269,2.062 0.812,2.75 0.551,0.687 1.285,1.031 2.203,1.031 0.25,0 0.5,-0.028 0.75,-0.078 0.25,-0.043 0.516,-0.117 0.797,-0.219 z" /><path
         id="path288"
         style="fill:#000000;fill-opacity:1;fill-rule:nonzero;stroke:none"
         d="m 696.379,124.142 c 0.469,-0.105 0.832,-0.32 1.094,-0.64 0.269,-0.313 0.406,-0.703 0.406,-1.172 0,-0.719 -0.25,-1.277 -0.75,-1.672 -0.492,-0.398 -1.195,-0.594 -2.109,-0.594 -0.305,0 -0.618,0.032 -0.938,0.094 -0.324,0.063 -0.656,0.149 -1,0.266 l 0,0.953 c 0.27,-0.156 0.566,-0.278 0.891,-0.36 0.332,-0.085 0.675,-0.125 1.031,-0.125 0.613,0 1.082,0.118 1.406,0.36 0.32,0.25 0.485,0.609 0.485,1.078 0,0.426 -0.153,0.758 -0.454,1 -0.304,0.238 -0.718,0.359 -1.25,0.359 l -0.859,0 0,0.813 0.891,0 c 0.488,0 0.859,0.097 1.109,0.297 0.258,0.195 0.391,0.476 0.391,0.843 0,0.364 -0.137,0.645 -0.407,0.844 -0.261,0.207 -0.636,0.313 -1.125,0.313 -0.273,0 -0.562,-0.032 -0.875,-0.094 -0.312,-0.055 -0.652,-0.141 -1.015,-0.266 l 0,0.875 c 0.375,0.102 0.722,0.18 1.047,0.235 0.332,0.05 0.64,0.078 0.922,0.078 0.75,0 1.343,-0.172 1.781,-0.516 0.437,-0.336 0.656,-0.793 0.656,-1.375 0,-0.406 -0.117,-0.75 -0.344,-1.031 -0.23,-0.273 -0.558,-0.461 -0.984,-0.563 z" /><path
         id="path290"
         style="fill:#000000;fill-opacity:1;fill-rule:nonzero;stroke:none"
         d="m 598.719,115.252 c -0.5,0 -0.883,-0.25 -1.141,-0.75 -0.25,-0.5 -0.375,-1.25 -0.375,-2.25 0,-1 0.125,-1.75 0.375,-2.25 0.258,-0.5 0.641,-0.75 1.141,-0.75 0.519,0 0.906,0.25 1.156,0.75 0.258,0.5 0.391,1.25 0.391,2.25 0,1 -0.133,1.75 -0.391,2.25 -0.25,0.5 -0.637,0.75 -1.156,0.75 z m 0,0.781 c 0.82,0 1.445,-0.324 1.875,-0.969 0.437,-0.648 0.656,-1.586 0.656,-2.812 0,-1.231 -0.219,-2.168 -0.656,-2.813 -0.43,-0.648 -1.055,-0.968 -1.875,-0.968 -0.813,0 -1.438,0.32 -1.875,0.968 -0.43,0.645 -0.641,1.582 -0.641,2.813 0,1.226 0.211,2.164 0.641,2.812 0.437,0.645 1.062,0.969 1.875,0.969 z" /><path
         id="path292"
         style="fill:#000000;fill-opacity:1;fill-rule:nonzero;stroke:none"
         d="m 602.969,109.846 1.031,0 0,-0.829 -0.797,-1.562 -0.641,0 0.407,1.562 0,0.829 z" /><path
         id="path294"
         style="fill:#000000;fill-opacity:1;fill-rule:nonzero;stroke:none"
         d="m 608.703,115.049 -2.484,-3.891 2.484,0 0,3.891 z m -0.265,0.859 1.25,0 0,-4.75 1.031,0 0,-0.828 -1.031,0 0,-1.719 -0.985,0 0,1.719 -3.297,0 0,0.953 3.032,4.625 z" /><path
         id="path296"
         style="fill:#000000;fill-opacity:1;fill-rule:nonzero;stroke:none"
         d="m 614.344,112.08 c -0.469,0 -0.84,-0.133 -1.11,-0.391 -0.261,-0.25 -0.39,-0.593 -0.39,-1.031 0,-0.437 0.129,-0.781 0.39,-1.031 0.27,-0.25 0.641,-0.375 1.11,-0.375 0.468,0 0.836,0.125 1.109,0.375 0.27,0.25 0.406,0.594 0.406,1.031 0,0.438 -0.136,0.781 -0.406,1.031 -0.262,0.258 -0.633,0.391 -1.109,0.391 z m -0.985,0.406 c -0.418,0.102 -0.746,0.301 -0.984,0.594 -0.242,0.289 -0.359,0.644 -0.359,1.062 0,0.582 0.207,1.04 0.625,1.375 0.414,0.344 0.984,0.516 1.703,0.516 0.726,0 1.301,-0.172 1.718,-0.516 0.415,-0.335 0.626,-0.793 0.626,-1.375 0,-0.418 -0.122,-0.773 -0.36,-1.062 -0.242,-0.293 -0.57,-0.492 -0.984,-0.594 0.476,-0.105 0.847,-0.32 1.109,-0.64 0.258,-0.325 0.391,-0.719 0.391,-1.188 0,-0.711 -0.215,-1.25 -0.641,-1.625 -0.43,-0.375 -1.047,-0.562 -1.859,-0.562 -0.805,0 -1.422,0.187 -1.86,0.562 -0.429,0.375 -0.64,0.914 -0.64,1.625 0,0.469 0.133,0.863 0.406,1.188 0.27,0.32 0.641,0.535 1.109,0.64 z M 613,114.049 c 0,-0.375 0.117,-0.672 0.359,-0.891 0.239,-0.211 0.567,-0.312 0.985,-0.312 0.426,0 0.758,0.101 1,0.312 0.238,0.219 0.359,0.516 0.359,0.891 0,0.375 -0.121,0.664 -0.359,0.875 -0.242,0.218 -0.574,0.328 -1,0.328 -0.418,0 -0.746,-0.11 -0.985,-0.328 -0.242,-0.211 -0.359,-0.5 -0.359,-0.875 z" /><path
         id="path298"
         style="fill:#000000;fill-opacity:1;fill-rule:nonzero;stroke:none"
         d="m 521.434,121.033 1.625,0 0,5.563 -1.766,-0.344 0,0.89 1.75,0.36 0.984,0 0,-6.469 1.61,0 0,-0.828 -4.203,0 0,0.828 z" /><path
         id="path300"
         style="fill:#000000;fill-opacity:1;fill-rule:nonzero;stroke:none"
         d="m 527.621,121.439 1.031,0 0,-0.828 -0.797,-1.562 -0.64,0 0.406,1.562 0,0.828 z" /><path
         id="path302"
         style="fill:#000000;fill-opacity:1;fill-rule:nonzero;stroke:none"
         d="m 532.867,124.236 c -0.437,0 -0.789,-0.152 -1.047,-0.453 -0.261,-0.305 -0.39,-0.715 -0.39,-1.234 0,-0.532 0.129,-0.95 0.39,-1.25 0.258,-0.305 0.61,-0.453 1.047,-0.453 0.445,0 0.797,0.148 1.047,0.453 0.258,0.3 0.391,0.718 0.391,1.25 0,0.519 -0.133,0.929 -0.391,1.234 -0.25,0.301 -0.602,0.453 -1.047,0.453 z m 1.969,3.094 0,-0.891 c -0.25,0.114 -0.508,0.203 -0.766,0.266 -0.25,0.062 -0.496,0.094 -0.734,0.094 -0.656,0 -1.156,-0.219 -1.5,-0.657 -0.344,-0.437 -0.539,-1.105 -0.578,-2 0.187,0.282 0.426,0.493 0.719,0.641 0.289,0.156 0.609,0.234 0.953,0.234 0.726,0 1.304,-0.226 1.734,-0.671 0.426,-0.438 0.641,-1.039 0.641,-1.797 0,-0.75 -0.227,-1.356 -0.672,-1.813 -0.438,-0.449 -1.028,-0.672 -1.766,-0.672 -0.844,0 -1.492,0.321 -1.937,0.969 -0.438,0.645 -0.657,1.582 -0.657,2.813 0,1.144 0.27,2.062 0.813,2.75 0.551,0.687 1.285,1.031 2.203,1.031 0.25,0 0.5,-0.028 0.75,-0.078 0.25,-0.043 0.516,-0.117 0.797,-0.219 z" /><path
         id="path304"
         style="fill:#000000;fill-opacity:1;fill-rule:nonzero;stroke:none"
         d="m 538.992,126.846 c -0.5,0 -0.883,-0.25 -1.14,-0.75 -0.25,-0.5 -0.375,-1.25 -0.375,-2.25 0,-1 0.125,-1.75 0.375,-2.25 0.257,-0.5 0.64,-0.75 1.14,-0.75 0.52,0 0.906,0.25 1.156,0.75 0.258,0.5 0.391,1.25 0.391,2.25 0,1 -0.133,1.75 -0.391,2.25 -0.25,0.5 -0.636,0.75 -1.156,0.75 z m 0,0.781 c 0.82,0 1.446,-0.324 1.875,-0.969 0.438,-0.648 0.656,-1.586 0.656,-2.812 0,-1.231 -0.218,-2.168 -0.656,-2.813 -0.429,-0.648 -1.055,-0.969 -1.875,-0.969 -0.812,0 -1.437,0.321 -1.875,0.969 -0.429,0.645 -0.64,1.582 -0.64,2.813 0,1.226 0.211,2.164 0.64,2.812 0.438,0.645 1.063,0.969 1.875,0.969 z" /><path
         id="path306"
         style="fill:#000000;fill-opacity:1;fill-rule:nonzero;stroke:none"
         d="m 442.227,115.252 c -0.5,0 -0.883,-0.25 -1.141,-0.75 -0.25,-0.5 -0.375,-1.25 -0.375,-2.25 0,-1 0.125,-1.75 0.375,-2.25 0.258,-0.5 0.641,-0.75 1.141,-0.75 0.519,0 0.906,0.25 1.156,0.75 0.258,0.5 0.39,1.25 0.39,2.25 0,1 -0.132,1.75 -0.39,2.25 -0.25,0.5 -0.637,0.75 -1.156,0.75 z m 0,0.781 c 0.82,0 1.445,-0.324 1.875,-0.969 0.437,-0.648 0.656,-1.586 0.656,-2.812 0,-1.231 -0.219,-2.168 -0.656,-2.813 -0.43,-0.648 -1.055,-0.968 -1.875,-0.968 -0.813,0 -1.438,0.32 -1.875,0.968 -0.43,0.645 -0.641,1.582 -0.641,2.813 0,1.226 0.211,2.164 0.641,2.812 0.437,0.645 1.062,0.969 1.875,0.969 z" /><path
         id="path308"
         style="fill:#000000;fill-opacity:1;fill-rule:nonzero;stroke:none"
         d="m 446.473,109.846 1.031,0 0,-0.829 -0.797,-1.562 -0.641,0 0.407,1.562 0,0.829 z" /><path
         id="path310"
         style="fill:#000000;fill-opacity:1;fill-rule:nonzero;stroke:none"
         d="m 452.488,112.549 c 0.469,-0.106 0.832,-0.321 1.094,-0.641 0.27,-0.312 0.406,-0.703 0.406,-1.172 0,-0.719 -0.25,-1.277 -0.75,-1.672 -0.492,-0.398 -1.195,-0.593 -2.109,-0.593 -0.305,0 -0.617,0.031 -0.938,0.093 -0.324,0.063 -0.656,0.149 -1,0.266 l 0,0.953 c 0.27,-0.156 0.567,-0.277 0.891,-0.359 0.332,-0.086 0.676,-0.125 1.031,-0.125 0.614,0 1.082,0.117 1.407,0.359 0.32,0.25 0.484,0.609 0.484,1.078 0,0.426 -0.152,0.758 -0.453,1 -0.305,0.238 -0.719,0.36 -1.25,0.36 l -0.86,0 0,0.812 0.891,0 c 0.488,0 0.859,0.098 1.109,0.297 0.258,0.195 0.391,0.477 0.391,0.844 0,0.363 -0.137,0.644 -0.406,0.843 -0.262,0.207 -0.637,0.313 -1.125,0.313 -0.274,0 -0.563,-0.031 -0.875,-0.094 -0.313,-0.054 -0.653,-0.14 -1.016,-0.265 l 0,0.875 c 0.375,0.101 0.723,0.179 1.047,0.234 0.332,0.051 0.641,0.078 0.922,0.078 0.75,0 1.344,-0.172 1.781,-0.516 0.438,-0.335 0.656,-0.793 0.656,-1.375 0,-0.406 -0.117,-0.75 -0.343,-1.031 -0.231,-0.273 -0.559,-0.461 -0.985,-0.562 z" /><path
         id="path312"
         style="fill:#000000;fill-opacity:1;fill-rule:nonzero;stroke:none"
         d="m 455.77,108.767 0,0.891 c 0.25,-0.117 0.5,-0.203 0.75,-0.266 0.257,-0.062 0.507,-0.093 0.75,-0.093 0.656,0 1.156,0.218 1.5,0.656 0.343,0.437 0.535,1.102 0.578,2 -0.188,-0.281 -0.43,-0.5 -0.719,-0.656 -0.281,-0.149 -0.602,-0.219 -0.953,-0.219 -0.731,0 -1.309,0.219 -1.735,0.656 -0.429,0.446 -0.64,1.051 -0.64,1.813 0,0.75 0.219,1.347 0.656,1.797 0.445,0.457 1.039,0.687 1.781,0.687 0.844,0 1.485,-0.324 1.922,-0.969 0.445,-0.648 0.672,-1.586 0.672,-2.812 0,-1.149 -0.273,-2.063 -0.812,-2.75 -0.543,-0.688 -1.278,-1.031 -2.204,-1.031 -0.25,0 -0.5,0.027 -0.75,0.078 -0.25,0.043 -0.515,0.113 -0.796,0.218 z m 1.968,3.094 c 0.438,0 0.785,0.149 1.047,0.453 0.258,0.301 0.391,0.711 0.391,1.235 0,0.531 -0.133,0.945 -0.391,1.25 -0.262,0.3 -0.609,0.453 -1.047,0.453 -0.449,0 -0.804,-0.153 -1.062,-0.453 -0.25,-0.305 -0.375,-0.719 -0.375,-1.25 0,-0.524 0.125,-0.934 0.375,-1.235 0.258,-0.304 0.613,-0.453 1.062,-0.453 z" /><path
         id="path314"
         style="fill:#000000;fill-opacity:1;fill-rule:nonzero;stroke:none"
         d="m 364.938,121.033 1.624,0 0,5.563 -1.765,-0.344 0,0.89 1.75,0.36 0.984,0 0,-6.469 1.61,0 0,-0.828 -4.203,0 0,0.828 z" /><path
         id="path316"
         style="fill:#000000;fill-opacity:1;fill-rule:nonzero;stroke:none"
         d="m 371.125,121.439 1.031,0 0,-0.828 -0.797,-1.562 -0.64,0 0.406,1.562 0,0.828 z" /><path
         id="path318"
         style="fill:#000000;fill-opacity:1;fill-rule:nonzero;stroke:none"
         d="m 376.375,124.236 c -0.437,0 -0.789,-0.152 -1.047,-0.453 -0.262,-0.305 -0.39,-0.715 -0.39,-1.234 0,-0.532 0.128,-0.95 0.39,-1.25 0.258,-0.305 0.61,-0.453 1.047,-0.453 0.445,0 0.797,0.148 1.047,0.453 0.258,0.3 0.39,0.718 0.39,1.25 0,0.519 -0.132,0.929 -0.39,1.234 -0.25,0.301 -0.602,0.453 -1.047,0.453 z m 1.969,3.094 0,-0.891 c -0.25,0.114 -0.508,0.203 -0.766,0.266 -0.25,0.062 -0.496,0.094 -0.734,0.094 -0.656,0 -1.156,-0.219 -1.5,-0.657 -0.344,-0.437 -0.539,-1.105 -0.578,-2 0.187,0.282 0.425,0.493 0.718,0.641 0.289,0.156 0.61,0.234 0.954,0.234 0.726,0 1.304,-0.226 1.734,-0.671 0.426,-0.438 0.64,-1.039 0.64,-1.797 0,-0.75 -0.226,-1.356 -0.671,-1.813 -0.438,-0.449 -1.028,-0.672 -1.766,-0.672 -0.844,0 -1.492,0.321 -1.937,0.969 -0.438,0.645 -0.657,1.582 -0.657,2.813 0,1.144 0.27,2.062 0.813,2.75 0.551,0.687 1.285,1.031 2.203,1.031 0.25,0 0.5,-0.028 0.75,-0.078 0.25,-0.043 0.515,-0.117 0.797,-0.219 z" /><path
         id="path320"
         style="fill:#000000;fill-opacity:1;fill-rule:nonzero;stroke:none"
         d="m 382.5,126.846 c -0.5,0 -0.883,-0.25 -1.141,-0.75 -0.25,-0.5 -0.375,-1.25 -0.375,-2.25 0,-1 0.125,-1.75 0.375,-2.25 0.258,-0.5 0.641,-0.75 1.141,-0.75 0.52,0 0.906,0.25 1.156,0.75 0.258,0.5 0.391,1.25 0.391,2.25 0,1 -0.133,1.75 -0.391,2.25 -0.25,0.5 -0.636,0.75 -1.156,0.75 z m 0,0.781 c 0.82,0 1.445,-0.324 1.875,-0.969 0.437,-0.648 0.656,-1.586 0.656,-2.812 0,-1.231 -0.219,-2.168 -0.656,-2.813 -0.43,-0.648 -1.055,-0.969 -1.875,-0.969 -0.812,0 -1.438,0.321 -1.875,0.969 -0.43,0.645 -0.641,1.582 -0.641,2.813 0,1.226 0.211,2.164 0.641,2.812 0.437,0.645 1.063,0.969 1.875,0.969 z" /><path
         id="path322"
         style="fill:#000000;fill-opacity:1;fill-rule:nonzero;stroke:none"
         d="m 208.445,121.033 1.625,0 0,5.563 -1.765,-0.344 0,0.89 1.75,0.36 0.984,0 0,-6.469 1.609,0 0,-0.828 -4.203,0 0,0.828 z" /><path
         id="path324"
         style="fill:#000000;fill-opacity:1;fill-rule:nonzero;stroke:none"
         d="m 214.633,121.439 1.031,0 0,-0.828 -0.797,-1.562 -0.64,0 0.406,1.562 0,0.828 z" /><path
         id="path326"
         style="fill:#000000;fill-opacity:1;fill-rule:nonzero;stroke:none"
         d="m 219.879,124.236 c -0.438,0 -0.789,-0.152 -1.047,-0.453 -0.262,-0.305 -0.391,-0.715 -0.391,-1.234 0,-0.532 0.129,-0.95 0.391,-1.25 0.258,-0.305 0.609,-0.453 1.047,-0.453 0.445,0 0.797,0.148 1.047,0.453 0.258,0.3 0.39,0.718 0.39,1.25 0,0.519 -0.132,0.929 -0.39,1.234 -0.25,0.301 -0.602,0.453 -1.047,0.453 z m 1.969,3.094 0,-0.891 c -0.25,0.114 -0.508,0.203 -0.766,0.266 -0.25,0.062 -0.496,0.094 -0.734,0.094 -0.657,0 -1.157,-0.219 -1.5,-0.657 -0.344,-0.437 -0.539,-1.105 -0.578,-2 0.187,0.282 0.425,0.493 0.718,0.641 0.289,0.156 0.61,0.234 0.953,0.234 0.727,0 1.305,-0.226 1.735,-0.671 0.426,-0.438 0.64,-1.039 0.64,-1.797 0,-0.75 -0.226,-1.356 -0.671,-1.813 -0.438,-0.449 -1.028,-0.672 -1.766,-0.672 -0.844,0 -1.492,0.321 -1.938,0.969 -0.437,0.645 -0.656,1.582 -0.656,2.813 0,1.144 0.27,2.062 0.813,2.75 0.55,0.687 1.285,1.031 2.203,1.031 0.25,0 0.5,-0.028 0.75,-0.078 0.25,-0.043 0.515,-0.117 0.797,-0.219 z" /><path
         id="path328"
         style="fill:#000000;fill-opacity:1;fill-rule:nonzero;stroke:none"
         d="m 226.895,124.142 c 0.468,-0.105 0.832,-0.32 1.093,-0.64 0.27,-0.313 0.407,-0.703 0.407,-1.172 0,-0.719 -0.25,-1.277 -0.75,-1.672 -0.493,-0.398 -1.196,-0.594 -2.11,-0.594 -0.305,0 -0.617,0.032 -0.937,0.094 -0.325,0.063 -0.657,0.149 -1,0.266 l 0,0.953 c 0.269,-0.156 0.566,-0.278 0.89,-0.36 0.332,-0.085 0.676,-0.125 1.032,-0.125 0.613,0 1.082,0.118 1.406,0.36 0.32,0.25 0.484,0.609 0.484,1.078 0,0.426 -0.152,0.758 -0.453,1 -0.305,0.238 -0.719,0.359 -1.25,0.359 l -0.859,0 0,0.813 0.89,0 c 0.489,0 0.86,0.097 1.11,0.297 0.257,0.195 0.39,0.476 0.39,0.843 0,0.364 -0.136,0.645 -0.406,0.844 -0.262,0.207 -0.637,0.313 -1.125,0.313 -0.273,0 -0.562,-0.032 -0.875,-0.094 -0.312,-0.055 -0.652,-0.141 -1.016,-0.266 l 0,0.875 c 0.375,0.102 0.723,0.18 1.047,0.235 0.332,0.05 0.641,0.078 0.922,0.078 0.75,0 1.344,-0.172 1.781,-0.516 0.438,-0.336 0.657,-0.793 0.657,-1.375 0,-0.406 -0.118,-0.75 -0.344,-1.031 -0.231,-0.273 -0.559,-0.461 -0.984,-0.563 z" /><path
         id="path330"
         style="fill:#000000;fill-opacity:1;fill-rule:nonzero;stroke:none"
         d="m 288.629,115.252 c -0.5,0 -0.883,-0.25 -1.141,-0.75 -0.25,-0.5 -0.375,-1.25 -0.375,-2.25 0,-1 0.125,-1.75 0.375,-2.25 0.258,-0.5 0.641,-0.75 1.141,-0.75 0.519,0 0.906,0.25 1.156,0.75 0.258,0.5 0.391,1.25 0.391,2.25 0,1 -0.133,1.75 -0.391,2.25 -0.25,0.5 -0.637,0.75 -1.156,0.75 z m 0,0.781 c 0.82,0 1.445,-0.324 1.875,-0.969 0.437,-0.648 0.656,-1.586 0.656,-2.812 0,-1.231 -0.219,-2.168 -0.656,-2.813 -0.43,-0.648 -1.055,-0.968 -1.875,-0.968 -0.813,0 -1.438,0.32 -1.875,0.968 -0.43,0.645 -0.641,1.582 -0.641,2.813 0,1.226 0.211,2.164 0.641,2.812 0.437,0.645 1.062,0.969 1.875,0.969 z" /><path
         id="path332"
         style="fill:#000000;fill-opacity:1;fill-rule:nonzero;stroke:none"
         d="m 292.879,109.846 1.031,0 0,-0.829 -0.797,-1.562 -0.64,0 0.406,1.562 0,0.829 z" /><path
         id="path334"
         style="fill:#000000;fill-opacity:1;fill-rule:nonzero;stroke:none"
         d="m 298.613,115.049 -2.484,-3.891 2.484,0 0,3.891 z m -0.265,0.859 1.25,0 0,-4.75 1.031,0 0,-0.828 -1.031,0 0,-1.719 -0.985,0 0,1.719 -3.297,0 0,0.953 3.032,4.625 z" /><path
         id="path336"
         style="fill:#000000;fill-opacity:1;fill-rule:nonzero;stroke:none"
         d="m 304.25,112.08 c -0.469,0 -0.84,-0.133 -1.109,-0.391 -0.262,-0.25 -0.391,-0.593 -0.391,-1.031 0,-0.437 0.129,-0.781 0.391,-1.031 0.269,-0.25 0.64,-0.375 1.109,-0.375 0.469,0 0.836,0.125 1.109,0.375 0.27,0.25 0.407,0.594 0.407,1.031 0,0.438 -0.137,0.781 -0.407,1.031 -0.261,0.258 -0.632,0.391 -1.109,0.391 z m -0.984,0.406 c -0.418,0.102 -0.746,0.301 -0.985,0.594 -0.242,0.289 -0.359,0.644 -0.359,1.062 0,0.582 0.207,1.04 0.625,1.375 0.414,0.344 0.984,0.516 1.703,0.516 0.727,0 1.301,-0.172 1.719,-0.516 0.414,-0.335 0.625,-0.793 0.625,-1.375 0,-0.418 -0.121,-0.773 -0.36,-1.062 -0.242,-0.293 -0.57,-0.492 -0.984,-0.594 0.477,-0.105 0.848,-0.32 1.109,-0.64 0.258,-0.325 0.391,-0.719 0.391,-1.188 0,-0.711 -0.215,-1.25 -0.641,-1.625 -0.429,-0.375 -1.047,-0.562 -1.859,-0.562 -0.805,0 -1.422,0.187 -1.859,0.562 -0.43,0.375 -0.641,0.914 -0.641,1.625 0,0.469 0.133,0.863 0.406,1.188 0.27,0.32 0.641,0.535 1.11,0.64 z m -0.36,1.563 c 0,-0.375 0.117,-0.672 0.36,-0.891 0.238,-0.211 0.566,-0.312 0.984,-0.312 0.426,0 0.758,0.101 1,0.312 0.238,0.219 0.359,0.516 0.359,0.891 0,0.375 -0.121,0.664 -0.359,0.875 -0.242,0.218 -0.574,0.328 -1,0.328 -0.418,0 -0.746,-0.11 -0.984,-0.328 -0.243,-0.211 -0.36,-0.5 -0.36,-0.875 z" /><path
         id="path338"
         style="fill:#000000;fill-opacity:1;fill-rule:nonzero;stroke:none"
         d="m 130.883,109.439 3.437,0 0,-0.828 -4.625,0 0,0.828 c 0.375,0.383 0.883,0.907 1.532,1.563 0.644,0.656 1.05,1.078 1.218,1.265 0.313,0.352 0.532,0.649 0.657,0.891 0.125,0.25 0.187,0.492 0.187,0.734 0,0.383 -0.137,0.696 -0.406,0.938 -0.274,0.25 -0.625,0.375 -1.063,0.375 -0.312,0 -0.64,-0.059 -0.984,-0.172 -0.336,-0.105 -0.699,-0.266 -1.094,-0.484 l 0,1 c 0.395,0.156 0.766,0.273 1.11,0.359 0.343,0.082 0.66,0.125 0.953,0.125 0.75,0 1.347,-0.187 1.797,-0.562 0.457,-0.375 0.687,-0.883 0.687,-1.516 0,-0.305 -0.059,-0.59 -0.172,-0.859 -0.117,-0.262 -0.32,-0.575 -0.609,-0.938 -0.086,-0.094 -0.344,-0.371 -0.781,-0.828 -0.438,-0.449 -1.055,-1.078 -1.844,-1.891 z" /><path
         id="path340"
         style="fill:#000000;fill-opacity:1;fill-rule:nonzero;stroke:none"
         d="m 136.383,109.846 1.031,0 0,-0.829 -0.797,-1.562 -0.64,0 0.406,1.562 0,0.829 z" /><path
         id="path342"
         style="fill:#000000;fill-opacity:1;fill-rule:nonzero;stroke:none"
         d="m 139.414,115.908 3.875,0 0,-0.844 -2.969,0 0,-1.781 c 0.145,0.051 0.285,0.086 0.422,0.109 0.145,0.02 0.289,0.032 0.438,0.032 0.812,0 1.453,-0.227 1.922,-0.672 0.476,-0.438 0.718,-1.039 0.718,-1.797 0,-0.793 -0.246,-1.406 -0.734,-1.844 -0.481,-0.429 -1.168,-0.64 -2.063,-0.64 -0.304,0 -0.617,0.027 -0.937,0.078 -0.313,0.054 -0.641,0.129 -0.984,0.234 l 0,0.984 c 0.3,-0.156 0.609,-0.277 0.921,-0.359 0.313,-0.074 0.641,-0.109 0.985,-0.109 0.562,0 1.004,0.144 1.328,0.437 0.332,0.301 0.5,0.707 0.5,1.219 0,0.5 -0.168,0.894 -0.5,1.187 -0.324,0.301 -0.766,0.454 -1.328,0.454 -0.262,0 -0.528,-0.032 -0.797,-0.094 -0.262,-0.055 -0.527,-0.141 -0.797,-0.266 l 0,3.672 z" /><path
         id="path344"
         style="fill:#000000;fill-opacity:1;fill-rule:nonzero;stroke:none"
         d="m 147.758,112.08 c -0.469,0 -0.84,-0.133 -1.11,-0.391 -0.261,-0.25 -0.39,-0.593 -0.39,-1.031 0,-0.437 0.129,-0.781 0.39,-1.031 0.27,-0.25 0.641,-0.375 1.11,-0.375 0.469,0 0.836,0.125 1.109,0.375 0.27,0.25 0.406,0.594 0.406,1.031 0,0.438 -0.136,0.781 -0.406,1.031 -0.262,0.258 -0.633,0.391 -1.109,0.391 z m -0.985,0.406 c -0.418,0.102 -0.746,0.301 -0.984,0.594 -0.242,0.289 -0.359,0.644 -0.359,1.062 0,0.582 0.207,1.04 0.625,1.375 0.414,0.344 0.984,0.516 1.703,0.516 0.726,0 1.301,-0.172 1.719,-0.516 0.414,-0.335 0.625,-0.793 0.625,-1.375 0,-0.418 -0.122,-0.773 -0.36,-1.062 -0.242,-0.293 -0.57,-0.492 -0.984,-0.594 0.476,-0.105 0.847,-0.32 1.109,-0.64 0.258,-0.325 0.391,-0.719 0.391,-1.188 0,-0.711 -0.215,-1.25 -0.641,-1.625 -0.429,-0.375 -1.047,-0.562 -1.859,-0.562 -0.805,0 -1.422,0.187 -1.86,0.562 -0.429,0.375 -0.64,0.914 -0.64,1.625 0,0.469 0.133,0.863 0.406,1.188 0.27,0.32 0.641,0.535 1.109,0.64 z m -0.359,1.563 c 0,-0.375 0.117,-0.672 0.359,-0.891 0.239,-0.211 0.567,-0.312 0.985,-0.312 0.426,0 0.758,0.101 1,0.312 0.238,0.219 0.359,0.516 0.359,0.891 0,0.375 -0.121,0.664 -0.359,0.875 -0.242,0.218 -0.574,0.328 -1,0.328 -0.418,0 -0.746,-0.11 -0.985,-0.328 -0.242,-0.211 -0.359,-0.5 -0.359,-0.875 z" /><g
         transform="matrix(1,0,0,-1,0,141.73228)"
         id="g346"><path
           id="path348"
           style="fill:#ffffff;fill-opacity:1;fill-rule:nonzero;stroke:#000000;stroke-width:1.44902003;stroke-linecap:butt;stroke-linejoin:miter;stroke-miterlimit:4;stroke-dasharray:none;stroke-opacity:1"
           d="m 33.328,27.324 57.961,0 0,57.961 -57.961,0 0,-57.961 z" /></g><g
         transform="matrix(1,0,0,-1,0,141.73228)"
         id="g350"><path
           id="path352"
           style="fill:none;stroke:#000000;stroke-width:1.44902003;stroke-linecap:butt;stroke-linejoin:miter;stroke-miterlimit:4;stroke-dasharray:none;stroke-opacity:1"
           d="m 91.289,38.914 11.59,0" /></g><g
         transform="matrix(1,0,0,-1,0,141.73228)"
         id="g354"><path
           id="path356"
           style="fill:none;stroke:#000000;stroke-width:1.44902003;stroke-linecap:butt;stroke-linejoin:miter;stroke-miterlimit:4;stroke-dasharray:none;stroke-opacity:1"
           d="m 91.289,73.691 11.59,0" /></g><g
         transform="matrix(1,0,0,-1,0,141.73228)"
         id="g358"><path
           id="path360"
           style="fill:none;stroke:#000000;stroke-width:1.44902003;stroke-linecap:butt;stroke-linejoin:miter;stroke-miterlimit:4;stroke-dasharray:none;stroke-opacity:1"
           d="m 33.328,38.914 -11.594,0" /></g><g
         transform="matrix(1,0,0,-1,0,141.73228)"
         id="g362"><path
           id="path364"
           style="fill:none;stroke:#000000;stroke-width:1.44902003;stroke-linecap:butt;stroke-linejoin:miter;stroke-miterlimit:4;stroke-dasharray:none;stroke-opacity:1"
           d="m 33.328,73.691 -11.594,0" /></g><g
         transform="matrix(1,0,0,-1,0,141.73228)"
         id="g366"><path
           id="path368"
           style="fill:#ffffff;fill-opacity:1;fill-rule:nonzero;stroke:#000000;stroke-width:1.44902003;stroke-linecap:butt;stroke-linejoin:miter;stroke-miterlimit:4;stroke-dasharray:none;stroke-opacity:1"
           d="m 815.797,27.324 57.961,0 0,57.961 -57.961,0 0,-57.961 z" /></g><g
         transform="matrix(1,0,0,-1,0,141.73228)"
         id="g370"><path
           id="path372"
           style="fill:none;stroke:#000000;stroke-width:1.44902003;stroke-linecap:butt;stroke-linejoin:miter;stroke-miterlimit:4;stroke-dasharray:none;stroke-opacity:1"
           d="m 873.758,38.914 11.594,0" /></g><g
         transform="matrix(1,0,0,-1,0,141.73228)"
         id="g374"><path
           id="path376"
           style="fill:none;stroke:#000000;stroke-width:1.44902003;stroke-linecap:butt;stroke-linejoin:miter;stroke-miterlimit:4;stroke-dasharray:none;stroke-opacity:1"
           d="m 873.758,73.691 11.594,0" /></g><g
         transform="matrix(1,0,0,-1,0,141.73228)"
         id="g378"><path
           id="path380"
           style="fill:none;stroke:#000000;stroke-width:1.44902003;stroke-linecap:butt;stroke-linejoin:miter;stroke-miterlimit:4;stroke-dasharray:none;stroke-opacity:1"
           d="m 815.797,38.914 -11.59,0" /></g><g
         transform="matrix(1,0,0,-1,0,141.73228)"
         id="g382"><path
           id="path384"
           style="fill:none;stroke:#000000;stroke-width:1.44902003;stroke-linecap:butt;stroke-linejoin:miter;stroke-miterlimit:4;stroke-dasharray:none;stroke-opacity:1"
           d="m 815.797,73.691 -11.59,0" /></g><g
         transform="matrix(1,0,0,-1,0,141.73228)"
         id="g386"><path
           id="path388"
           style="fill:none;stroke:#000000;stroke-width:1.44902003;stroke-linecap:butt;stroke-linejoin:miter;stroke-miterlimit:4;stroke-dasharray:none;stroke-opacity:1"
           d="m 885.352,38.914 13.765,0" /></g><path
         id="path390"
         style="fill:#ffffff;fill-opacity:1;fill-rule:nonzero;stroke:none"
         d="m 904.914,102.818 c 0,-1.449 -1.449,-2.898 -2.898,-2.898 -1.45,0 -2.899,1.449 -2.899,2.898 0,1.449 1.449,2.899 2.899,2.899 1.449,0 2.898,-1.45 2.898,-2.899 z" /><g
         transform="matrix(1,0,0,-1,0,141.73228)"
         id="g392"><path
           id="path394"
           style="fill:none;stroke:#000000;stroke-width:1.44902003;stroke-linecap:butt;stroke-linejoin:miter;stroke-miterlimit:4;stroke-dasharray:none;stroke-opacity:1"
           d="m 904.914,38.914 c 0,1.449 -1.449,2.899 -2.898,2.899 -1.45,0 -2.899,-1.45 -2.899,-2.899 0,-1.449 1.449,-2.898 2.899,-2.898 1.449,0 2.898,1.449 2.898,2.898" /></g><g
         transform="matrix(1,0,0,-1,0,141.73228)"
         id="g396"><path
           id="path398"
           style="fill:none;stroke:#000000;stroke-width:1.44902003;stroke-linecap:butt;stroke-linejoin:miter;stroke-miterlimit:4;stroke-dasharray:none;stroke-opacity:1"
           d="m 885.352,73.691 13.765,0" /></g><path
         id="path400"
         style="fill:#ffffff;fill-opacity:1;fill-rule:nonzero;stroke:none"
         d="m 904.914,68.041 c 0,-1.449 -1.449,-2.899 -2.898,-2.899 -1.45,0 -2.899,1.45 -2.899,2.899 0,1.449 1.449,2.898 2.899,2.898 1.449,0 2.898,-1.449 2.898,-2.898 z" /><g
         transform="matrix(1,0,0,-1,0,141.73228)"
         id="g402"><path
           id="path404"
           style="fill:none;stroke:#000000;stroke-width:1.44902003;stroke-linecap:butt;stroke-linejoin:miter;stroke-miterlimit:4;stroke-dasharray:none;stroke-opacity:1"
           d="m 904.914,73.691 c 0,1.45 -1.449,2.899 -2.898,2.899 -1.45,0 -2.899,-1.449 -2.899,-2.899 0,-1.449 1.449,-2.898 2.899,-2.898 1.449,0 2.898,1.449 2.898,2.898" /></g><g
         transform="matrix(1,0,0,-1,0,141.73228)"
         id="g406"><path
           id="path408"
           style="fill:none;stroke:#000000;stroke-width:1.44902003;stroke-linecap:butt;stroke-linejoin:miter;stroke-miterlimit:4;stroke-dasharray:none;stroke-opacity:1"
           d="m 7.969,38.914 13.765,0" /></g><path
         id="path410"
         style="fill:#ffffff;fill-opacity:1;fill-rule:nonzero;stroke:none"
         d="m 2.172,102.818 c 0,1.449 1.449,2.899 2.898,2.899 1.45,0 2.899,-1.45 2.899,-2.899 0,-1.449 -1.449,-2.898 -2.899,-2.898 -1.449,0 -2.898,1.449 -2.898,2.898 z" /><g
         transform="matrix(1,0,0,-1,0,141.73228)"
         id="g412"><path
           id="path414"
           style="fill:none;stroke:#000000;stroke-width:1.44902003;stroke-linecap:butt;stroke-linejoin:miter;stroke-miterlimit:4;stroke-dasharray:none;stroke-opacity:1"
           d="m 2.172,38.914 c 0,-1.449 1.449,-2.898 2.898,-2.898 1.45,0 2.899,1.449 2.899,2.898 0,1.449 -1.449,2.899 -2.899,2.899 -1.449,0 -2.898,-1.45 -2.898,-2.899" /></g><g
         transform="matrix(1,0,0,-1,0,141.73228)"
         id="g416"><path
           id="path418"
           style="fill:none;stroke:#000000;stroke-width:1.44902003;stroke-linecap:butt;stroke-linejoin:miter;stroke-miterlimit:4;stroke-dasharray:none;stroke-opacity:1"
           d="m 7.969,73.691 13.765,0" /></g><path
         id="path420"
         style="fill:#ffffff;fill-opacity:1;fill-rule:nonzero;stroke:none"
         d="m 2.172,68.041 c 0,1.449 1.449,2.898 2.898,2.898 1.45,0 2.899,-1.449 2.899,-2.898 0,-1.449 -1.449,-2.899 -2.899,-2.899 -1.449,0 -2.898,1.45 -2.898,2.899 z" /><g
         transform="matrix(1,0,0,-1,0,141.73228)"
         id="g422"><path
           id="path424"
           style="fill:none;stroke:#000000;stroke-width:1.44902003;stroke-linecap:butt;stroke-linejoin:miter;stroke-miterlimit:4;stroke-dasharray:none;stroke-opacity:1"
           d="m 2.172,73.691 c 0,-1.449 1.449,-2.898 2.898,-2.898 1.45,0 2.899,1.449 2.899,2.898 0,1.45 -1.449,2.899 -2.899,2.899 -1.449,0 -2.898,-1.449 -2.898,-2.899" /></g><path
         id="path426"
         style="fill:#000000;fill-opacity:1;fill-rule:nonzero;stroke:none"
         d="m 56.707,86.385 2.531,-6.75 -0.953,0 -1.531,4.047 -1.891,-4.047 -0.953,0 2.406,5.25 -0.375,0.968 c -0.148,0.407 -0.398,0.61 -0.75,0.61 l -0.468,0 0,0.765 0.578,0 c 0.726,-0.011 1.195,-0.293 1.406,-0.843 z" /><path
         id="path428"
         style="fill:#000000;fill-opacity:1;fill-rule:nonzero;stroke:none"
         d="m 61.969,86.932 0.828,0 -2.547,-8.219 -0.828,0 2.547,8.219 z" /><path
         id="path430"
         style="fill:#000000;fill-opacity:1;fill-rule:nonzero;stroke:none"
         d="m 66.52,86.072 -2.485,-3.89 2.485,0 0,3.89 z m -0.266,0.86 1.25,0 0,-4.75 1.031,0 0,-0.829 -1.031,0 0,-1.718 -0.984,0 0,1.718 -3.297,0 0,0.954 3.031,4.625 z" /><path
         id="path432"
         style="fill:#000000;fill-opacity:1;fill-rule:nonzero;stroke:none"
         d="m 839.18,86.385 2.531,-6.75 -0.953,0 -1.531,4.047 -1.891,-4.047 -0.953,0 2.406,5.25 -0.375,0.968 c -0.148,0.407 -0.398,0.61 -0.75,0.61 l -0.469,0 0,0.765 0.578,0 c 0.727,-0.011 1.196,-0.293 1.407,-0.843 z" /><path
         id="path434"
         style="fill:#000000;fill-opacity:1;fill-rule:nonzero;stroke:none"
         d="m 844.441,86.932 0.829,0 -2.547,-8.219 -0.828,0 2.546,8.219 z" /><path
         id="path436"
         style="fill:#000000;fill-opacity:1;fill-rule:nonzero;stroke:none"
         d="m 848.992,86.072 -2.484,-3.89 2.484,0 0,3.89 z m -0.265,0.86 1.25,0 0,-4.75 1.031,0 0,-0.829 -1.031,0 0,-1.718 -0.985,0 0,1.718 -3.297,0 0,0.954 3.032,4.625 z" /><path
         id="path438"
         style="fill:#000000;fill-opacity:1;fill-rule:nonzero;stroke:none"
         d="m 843.113,121.033 1.625,0 0,5.563 -1.765,-0.344 0,0.89 1.75,0.36 0.984,0 0,-6.469 1.609,0 0,-0.828 -4.203,0 0,0.828 z" /><path
         id="path440"
         style="fill:#000000;fill-opacity:1;fill-rule:nonzero;stroke:none"
         d="m 60.645,121.033 1.625,0 0,5.563 -1.766,-0.344 0,0.89 1.75,0.36 0.984,0 0,-6.469 1.61,0 0,-0.828 -4.203,0 0,0.828 z" /><g
         transform="matrix(1,0,0,-1,0,141.73228)"
         id="g442"><path
           id="path444"
           style="fill:none;stroke:#bf00bf;stroke-width:1.44902003;stroke-linecap:butt;stroke-linejoin:miter;stroke-miterlimit:4;stroke-dasharray:5.796081, 5.796081;stroke-dashoffset:0;stroke-opacity:1"
           d="m 114.473,27.324 0,52.164" /></g><g
         transform="matrix(1,0,0,-1,0,141.73228)"
         id="g446"><path
           id="path448"
           style="fill:none;stroke:#bf00bf;stroke-width:1.44902003;stroke-linecap:butt;stroke-linejoin:miter;stroke-miterlimit:4;stroke-dasharray:5.796081, 5.796081;stroke-dashoffset:0;stroke-opacity:1"
           d="m 792.613,27.324 0,52.164" /></g></g></g></svg>