<?xml version="1.0" encoding="UTF-8" standalone="no"?>
<svg
   xmlns:dc="http://purl.org/dc/elements/1.1/"
   xmlns:cc="http://creativecommons.org/ns#"
   xmlns:rdf="http://www.w3.org/1999/02/22-rdf-syntax-ns#"
   xmlns:svg="http://www.w3.org/2000/svg"
   xmlns="http://www.w3.org/2000/svg"
   viewBox="0 0 546.9129 216.86522"
   height="216.86522"
   width="546.9129"
   xml:space="preserve"
   version="1.1"
   id="svg2"><metadata
     id="metadata8"><rdf:RDF><cc:Work
         rdf:about=""><dc:format>image/svg+xml</dc:format><dc:type
           rdf:resource="http://purl.org/dc/dcmitype/StillImage" /></cc:Work></rdf:RDF></metadata><defs
     id="defs6" /><g
     transform="matrix(1.25,0,0,-1.25,0,216.86521)"
     id="g10"><g
       id="g12"><path
         id="path14"
         style="fill:#000000;fill-opacity:1;fill-rule:nonzero;stroke:none"
         d="m 389.172,125.664 2.992,0 0,-2.992 -2.992,0 0,2.992 z" /><path
         id="path16"
         style="fill:#000000;fill-opacity:1;fill-rule:nonzero;stroke:none"
         d="m 389.172,35.902 2.992,0 0,-2.992 -2.992,0 0,2.992 z" /><g
         transform="matrix(1,0,0,-1,0,173.49217)"
         id="g18"><path
           id="path20"
           style="fill:none;stroke:#000000;stroke-width:2.9920001;stroke-linecap:square;stroke-linejoin:miter;stroke-miterlimit:10;stroke-dasharray:none;stroke-opacity:1"
           d="m 390.668,50.82 0,14.961" /></g><g
         transform="matrix(1,0,0,-1,0,173.49217)"
         id="g22"><path
           id="path24"
           style="fill:none;stroke:#000000;stroke-width:2.9920001;stroke-linecap:square;stroke-linejoin:miter;stroke-miterlimit:10;stroke-dasharray:none;stroke-opacity:1"
           d="m 390.668,122.629 0,14.961" /></g><g
         transform="matrix(1,0,0,-1,0,173.49217)"
         id="g26"><path
           id="path28"
           style="fill:#ffffff;fill-opacity:1;fill-rule:nonzero;stroke:#000000;stroke-width:2.9920001;stroke-linecap:round;stroke-linejoin:round;stroke-miterlimit:10;stroke-dasharray:none;stroke-opacity:1"
           d="m 380.199,67.277 c 20.031,-0.265 20.942,0 20.942,0 l 0,53.856 -20.942,0 0,-53.856 z" /></g><path
         id="path30"
         style="fill:#000000;fill-opacity:1;fill-rule:nonzero;stroke:none"
         d="m 430.324,77.793 -9.953,0 0,1.844 6.703,8.515 -6.031,0 0,2.032 8.906,0 0,-1.813 -6.687,-8.547 7.062,0 0,-2.031 z" /><path
         id="path32"
         style="fill:#000000;fill-opacity:1;fill-rule:nonzero;stroke:none"
         d="m 432.066,77.793 0,7.281 c 0,0.196 0,0.41 0,0.641 0,0.226 -0.007,0.445 -0.015,0.656 -0.012,0.207 -0.024,0.395 -0.031,0.563 0,0.164 -0.008,0.289 -0.016,0.375 l 2.359,0 c 0.008,-0.075 0.02,-0.2 0.032,-0.375 0.007,-0.168 0.019,-0.356 0.031,-0.563 0.008,-0.211 0.019,-0.414 0.031,-0.609 0.008,-0.2 0.016,-0.36 0.016,-0.485 l 0.031,0 c 0.125,0.344 0.25,0.649 0.375,0.922 0.125,0.27 0.269,0.5 0.437,0.688 0.164,0.195 0.364,0.343 0.594,0.437 0.238,0.102 0.531,0.156 0.875,0.156 0.145,0 0.289,-0.015 0.438,-0.046 0.144,-0.024 0.254,-0.047 0.328,-0.079 l 0,-2.062 c -0.156,0.031 -0.321,0.055 -0.485,0.078 -0.156,0.031 -0.351,0.047 -0.578,0.047 -0.617,0 -1.093,-0.25 -1.437,-0.75 -0.336,-0.492 -0.5,-1.227 -0.5,-2.203 l 0,-4.672 -2.485,0 z" /><path
         id="path34"
         style="fill:#000000;fill-opacity:1;fill-rule:nonzero;stroke:none"
         d="m 89.973,125.664 2.992,0 0,-2.992 -2.992,0 0,2.992 z" /><g
         transform="matrix(0,1,1,0,0,173.49217)"
         id="g36"><path
           id="path38"
           style="fill:#ffffff;fill-opacity:1;fill-rule:nonzero;stroke:#000000;stroke-width:2.9920001;stroke-linecap:butt;stroke-linejoin:miter;stroke-miterlimit:4;stroke-dasharray:none;stroke-opacity:1"
           d="m -43.137,76.508 c 0,3.418 -2.769,6.187 -6.187,6.187 -3.418,0 -6.188,-2.769 -6.188,-6.187 0,-3.414 2.77,-6.184 6.188,-6.184 3.418,0 6.187,2.77 6.187,6.184 z" /></g><g
         transform="matrix(0,1,1,0,0,173.49217)"
         id="g40"><path
           id="path42"
           style="fill:none;stroke:#000000;stroke-width:2.9920001;stroke-linecap:square;stroke-linejoin:miter;stroke-miterlimit:10;stroke-dasharray:none;stroke-opacity:1"
           d="m -49.324,83.988 0,5.985" /></g><path
         id="path44"
         style="fill:#000000;fill-opacity:1;fill-rule:nonzero;stroke:none"
         d="m 89.973,35.902 2.992,0 0,-2.992 -2.992,0 0,2.992 z" /><g
         transform="matrix(0,1,1,0,0,173.49217)"
         id="g46"><path
           id="path48"
           style="fill:#ffffff;fill-opacity:1;fill-rule:nonzero;stroke:#000000;stroke-width:2.9920001;stroke-linecap:butt;stroke-linejoin:miter;stroke-miterlimit:4;stroke-dasharray:none;stroke-opacity:1"
           d="m -132.898,76.508 c 0,3.418 -2.77,6.187 -6.188,6.187 -3.414,0 -6.184,-2.769 -6.184,-6.187 0,-3.414 2.77,-6.184 6.184,-6.184 3.418,0 6.188,2.77 6.188,6.184 z" /></g><g
         transform="matrix(0,1,1,0,0,173.49217)"
         id="g50"><path
           id="path52"
           style="fill:none;stroke:#000000;stroke-width:2.9920001;stroke-linecap:square;stroke-linejoin:miter;stroke-miterlimit:10;stroke-dasharray:none;stroke-opacity:1"
           d="m -139.086,83.988 0,5.985" /></g><g
         transform="matrix(1,0,0,-1,0,173.49217)"
         id="g54"><path
           id="path56"
           style="fill:none;stroke:#000000;stroke-width:2.9920001;stroke-linecap:butt;stroke-linejoin:miter;stroke-miterlimit:10;stroke-dasharray:none;stroke-opacity:1"
           d="m 91.469,49.324 299.199,0" /></g><g
         transform="matrix(1,0,0,-1,0,173.49217)"
         id="g58"><path
           id="path60"
           style="fill:none;stroke:#000000;stroke-width:2.9920001;stroke-linecap:butt;stroke-linejoin:miter;stroke-miterlimit:10;stroke-dasharray:none;stroke-opacity:1"
           d="m 91.469,139.086 299.199,0" /></g><path
         id="path62"
         style="fill:#000000;fill-opacity:1;fill-rule:nonzero;stroke:none"
         d="m 374.215,35.902 2.992,0 0,-2.992 -2.992,0 0,2.992 z" /><g
         transform="matrix(0,1,1,0,0,173.49217)"
         id="g64"><path
           id="path66"
           style="fill:#ffffff;fill-opacity:1;fill-rule:nonzero;stroke:#000000;stroke-width:2.9920001;stroke-linecap:butt;stroke-linejoin:miter;stroke-miterlimit:4;stroke-dasharray:none;stroke-opacity:1"
           d="m -132.898,360.75 c 0,3.414 -2.77,6.184 -6.188,6.184 -3.414,0 -6.184,-2.77 -6.184,-6.184 0,-3.418 2.77,-6.188 6.184,-6.188 3.418,0 6.188,2.77 6.188,6.188 z" /></g><g
         transform="matrix(0,1,1,0,0,173.49217)"
         id="g68"><path
           id="path70"
           style="fill:none;stroke:#000000;stroke-width:2.9920001;stroke-linecap:square;stroke-linejoin:miter;stroke-miterlimit:10;stroke-dasharray:none;stroke-opacity:1"
           d="m -139.086,368.23 0,5.985" /></g><path
         id="path72"
         style="fill:#000000;fill-opacity:1;fill-rule:nonzero;stroke:none"
         d="m 220.875,77.793 -9.953,0 0,1.844 6.703,8.515 -6.031,0 0,2.032 8.906,0 0,-1.813 -6.688,-8.547 7.063,0 0,-2.031 z" /><path
         id="path74"
         style="fill:#000000;fill-opacity:1;fill-rule:nonzero;stroke:none"
         d="m 226.582,77.621 c -0.75,0 -1.414,0.117 -1.984,0.344 -0.563,0.238 -1.032,0.57 -1.407,1 -0.375,0.426 -0.656,0.937 -0.843,1.531 -0.188,0.602 -0.282,1.27 -0.282,2 0,0.789 0.098,1.492 0.297,2.109 0.207,0.625 0.504,1.145 0.891,1.563 0.394,0.426 0.875,0.75 1.437,0.969 0.563,0.226 1.204,0.343 1.922,0.343 0.614,0 1.16,-0.085 1.641,-0.25 0.476,-0.168 0.891,-0.39 1.234,-0.671 0.352,-0.282 0.633,-0.618 0.844,-1 0.219,-0.387 0.363,-0.805 0.438,-1.25 l -2.485,-0.125 c -0.062,0.488 -0.234,0.875 -0.515,1.156 -0.282,0.289 -0.684,0.437 -1.204,0.437 -0.668,0 -1.152,-0.273 -1.453,-0.812 -0.304,-0.543 -0.453,-1.336 -0.453,-2.375 0,-2.188 0.645,-3.281 1.938,-3.281 0.468,0 0.859,0.144 1.172,0.437 0.32,0.301 0.519,0.742 0.593,1.328 l 2.485,-0.109 c -0.063,-0.449 -0.2,-0.875 -0.407,-1.281 -0.211,-0.399 -0.492,-0.75 -0.843,-1.063 -0.356,-0.305 -0.782,-0.547 -1.282,-0.734 -0.5,-0.176 -1.078,-0.266 -1.734,-0.266 z" /><path
         id="path76"
         style="fill:#000000;fill-opacity:1;fill-rule:nonzero;stroke:none"
         d="m 374.215,125.664 2.992,0 0,-2.992 -2.992,0 0,2.992 z" /><g
         transform="matrix(0,1,1,0,0,173.49217)"
         id="g78"><path
           id="path80"
           style="fill:#ffffff;fill-opacity:1;fill-rule:nonzero;stroke:#000000;stroke-width:2.9920001;stroke-linecap:butt;stroke-linejoin:miter;stroke-miterlimit:4;stroke-dasharray:none;stroke-opacity:1"
           d="m -43.137,360.75 c 0,3.414 -2.769,6.184 -6.187,6.184 -3.418,0 -6.188,-2.77 -6.188,-6.184 0,-3.418 2.77,-6.188 6.188,-6.188 3.418,0 6.187,2.77 6.187,6.188 z" /></g><g
         transform="matrix(0,1,1,0,0,173.49217)"
         id="g82"><path
           id="path84"
           style="fill:none;stroke:#000000;stroke-width:2.9920001;stroke-linecap:square;stroke-linejoin:miter;stroke-miterlimit:10;stroke-dasharray:none;stroke-opacity:1"
           d="m -49.324,368.23 0,5.985" /></g><g
         transform="matrix(1,0,0,-1,0,173.49217)"
         id="g86"><path
           id="path88"
           style="fill:none;stroke:#000000;stroke-width:2.9920001;stroke-linecap:butt;stroke-linejoin:miter;stroke-miterlimit:10;stroke-dasharray:none;stroke-opacity:1"
           d="m 86.586,19.402 264.086,0" /></g><g
         transform="matrix(1,0,0,-1,0,173.49217)"
         id="g90"><path
           id="path92"
           style="fill:#000000;fill-opacity:1;fill-rule:nonzero;stroke:#000000;stroke-width:2.9920001;stroke-linecap:butt;stroke-linejoin:miter;stroke-miterlimit:10;stroke-dasharray:none;stroke-opacity:1"
           d="m 79.855,19.402 8.977,-4.484 -2.246,4.484 2.246,4.489 -8.977,-4.489 z" /></g><g
         transform="matrix(1,0,0,-1,0,173.49217)"
         id="g94"><path
           id="path96"
           style="fill:#000000;fill-opacity:1;fill-rule:nonzero;stroke:#000000;stroke-width:2.9920001;stroke-linecap:butt;stroke-linejoin:miter;stroke-miterlimit:10;stroke-dasharray:none;stroke-opacity:1"
           d="m 357.402,19.402 -8.976,4.489 2.246,-4.489 -2.246,-4.484 8.976,4.484 z" /></g><path
         id="path98"
         style="fill:#000000;fill-opacity:1;fill-rule:nonzero;stroke:none"
         d="m 217.875,173.16 1.406,0 0,-11.594 -1.406,0 0,11.594 z" /><path
         id="path100"
         style="fill:#000000;fill-opacity:1;fill-rule:nonzero;stroke:none"
         d="m 30.133,80.785 2.992,0 0,-2.992 -2.992,0 0,2.992 z" /><g
         transform="matrix(-1,0,0,1,0,173.49217)"
         id="g102"><path
           id="path104"
           style="fill:none;stroke:#000000;stroke-width:2.9920001;stroke-linecap:square;stroke-linejoin:miter;stroke-miterlimit:10;stroke-dasharray:none;stroke-opacity:1"
           d="m -58.559,-94.203 25.434,0" /></g><g
         transform="matrix(-1,0,0,1,0,173.49217)"
         id="g106"><path
           id="path108"
           style="fill:none;stroke:#000000;stroke-width:2.9920001;stroke-linecap:square;stroke-linejoin:miter;stroke-miterlimit:10;stroke-dasharray:none;stroke-opacity:1"
           d="m -51.215,-102.672 -8.449,8.469 8.449,8.465" /></g><path
         id="path110"
         style="fill:#000000;fill-opacity:1;fill-rule:nonzero;stroke:none"
         d="m 15.172,65.824 2.992,0 0,-2.992 -2.992,0 0,2.992 z" /><g
         transform="matrix(1,0,0,-1,0,173.49217)"
         id="g112"><path
           id="path114"
           style="fill:none;stroke:#000000;stroke-width:2.9920001;stroke-linecap:square;stroke-linejoin:miter;stroke-miterlimit:10;stroke-dasharray:none;stroke-opacity:1"
           d="m 16.668,110.66 0,26.93" /></g><path
         id="path116"
         style="fill:#000000;fill-opacity:1;fill-rule:nonzero;stroke:none"
         d="m 9.949,3.738 -9.953,0 0,1.844 6.703,8.516 -6.031,0 0,2.031 8.906,0 0,-1.813 -6.687,-8.546 7.062,0 0,-2.032 z" /><path
         id="path118"
         style="fill:#000000;fill-opacity:1;fill-rule:nonzero;stroke:none"
         d="m 11.691,14.957 0,1.828 2.485,0 0,-1.828 -2.485,0 z m 0,-11.219 0,9.516 2.485,0 0,-9.516 -2.485,0 z" /><path
         id="path120"
         style="fill:#000000;fill-opacity:1;fill-rule:nonzero;stroke:none"
         d="m 22.84,3.738 0,5.328 c 0,0.375 -0.031,0.711 -0.094,1.016 -0.055,0.313 -0.148,0.578 -0.281,0.797 -0.137,0.219 -0.313,0.391 -0.531,0.516 -0.219,0.125 -0.485,0.187 -0.797,0.187 -0.293,0 -0.563,-0.07 -0.813,-0.203 C 20.082,11.242 19.875,11.055 19.699,10.816 19.52,10.574 19.387,10.285 19.293,9.941 19.199,9.605 19.152,9.238 19.152,8.832 l 0,-5.094 -2.484,0 0,7.391 c 0,0.195 0,0.406 0,0.625 0,0.219 -0.008,0.426 -0.016,0.625 -0.011,0.195 -0.023,0.367 -0.031,0.516 0,0.156 -0.008,0.273 -0.016,0.359 l 2.36,0 c 0.008,-0.074 0.019,-0.188 0.031,-0.344 0.008,-0.156 0.02,-0.328 0.031,-0.515 0.008,-0.188 0.02,-0.375 0.032,-0.563 0.007,-0.187 0.015,-0.344 0.015,-0.469 l 0.031,0 c 0.333,0.719 0.75,1.239 1.25,1.563 0.508,0.332 1.114,0.5 1.813,0.5 0.57,0 1.055,-0.094 1.453,-0.281 0.395,-0.188 0.719,-0.45 0.969,-0.782 0.25,-0.324 0.426,-0.711 0.531,-1.156 0.113,-0.437 0.172,-0.918 0.172,-1.437 l 0,-6.032 -2.453,0 z" /><g
         transform="matrix(1,0,0,-1,0,173.49217)"
         id="g122"><path
           id="path124"
           style="fill:none;stroke:#000000;stroke-width:2.9920001;stroke-linecap:butt;stroke-linejoin:miter;stroke-miterlimit:10;stroke-dasharray:none;stroke-opacity:1"
           d="m 16.668,109.164 0,-14.961 14.961,0" /></g></g></g></svg>