<?xml version="1.0" encoding="UTF-8" standalone="no"?>
<svg
   xmlns:dc="http://purl.org/dc/elements/1.1/"
   xmlns:cc="http://creativecommons.org/ns#"
   xmlns:rdf="http://www.w3.org/1999/02/22-rdf-syntax-ns#"
   xmlns:svg="http://www.w3.org/2000/svg"
   xmlns="http://www.w3.org/2000/svg"
   viewBox="0 0 911.25 442.5"
   height="442.5"
   width="911.25"
   xml:space="preserve"
   version="1.1"
   id="svg2"><metadata
     id="metadata8"><rdf:RDF><cc:Work
         rdf:about=""><dc:format>image/svg+xml</dc:format><dc:type
           rdf:resource="http://purl.org/dc/dcmitype/StillImage" /></cc:Work></rdf:RDF></metadata><defs
     id="defs6"><clipPath
       id="clipPath20"
       clipPathUnits="userSpaceOnUse"><path
         id="path22"
         d="M 0,0 729,0 729,354 0,354 0,0 Z" /></clipPath><clipPath
       id="clipPath34"
       clipPathUnits="userSpaceOnUse"><path
         id="path36"
         d="M 0,0 729,0 729,354 0,354 0,0 Z" /></clipPath><clipPath
       id="clipPath46"
       clipPathUnits="userSpaceOnUse"><path
         id="path48"
         d="M 15,0 714,0 714,339 15,339 15,0 Z" /></clipPath><clipPath
       id="clipPath56"
       clipPathUnits="userSpaceOnUse"><path
         id="path58"
         d="M 15,339 714,339 714,0 15,0 15,339 Z" /></clipPath><clipPath
       id="clipPath66"
       clipPathUnits="userSpaceOnUse"><path
         id="path68"
         d="m 60,155 581,0 0,29 -581,0 0,-29 z" /></clipPath></defs><g
     transform="matrix(1.25,0,0,-1.25,0,442.5)"
     id="g10"><g
       id="g12"><g
         id="g14"><g
           id="g16"><g
             clip-path="url(#clipPath20)"
             id="g18"><g
               id="g24"><path
                 id="path26"
                 style="fill:#ffffff;fill-opacity:1;fill-rule:nonzero;stroke:none"
                 d="M 0,0 729,0 729,354 0,354 0,0 Z" /></g></g></g></g><g
         id="g28"><g
           id="g30"><g
             clip-path="url(#clipPath34)"
             id="g32"><g
               id="g38"><g
                 id="g40"><g
                   id="g42"><g
                     clip-path="url(#clipPath46)"
                     id="g44"><g
                       id="g50" /><g
                       id="g52"><g
                         clip-path="url(#clipPath56)"
                         id="g54"><g
                           id="g60"><g
                             id="g62"><g
                               clip-path="url(#clipPath66)"
                               id="g64"><g
                                 id="g70"><path
                                   id="path72"
                                   style="fill:#000000;fill-opacity:1;fill-rule:nonzero;stroke:none"
                                   d="m 99.18,172.02 5.52,0 0,-5.52 -5.52,0 0,5.52 z" /><g
                                   transform="matrix(0,1,1,0,0,354)"
                                   id="g74"><path
                                   id="path76"
                                   style="fill:#ffffff;fill-opacity:1;fill-rule:nonzero;stroke:#000000;stroke-width:5.51999998;stroke-linecap:butt;stroke-linejoin:miter;stroke-miterlimit:10;stroke-dasharray:none;stroke-opacity:1"
                                   d="m -173.328,74.34 c 0,6.305 -5.11,11.414 -11.41,11.414 -6.305,0 -11.414,-5.109 -11.414,-11.414 0,-6.305 5.109,-11.414 11.414,-11.414 6.3,0 11.41,5.109 11.41,11.414 z" /></g><g
                                   transform="matrix(0,1,1,0,0,354)"
                                   id="g78"><path
                                   id="path80"
                                   style="fill:none;stroke:#000000;stroke-width:5.51999998;stroke-linecap:square;stroke-linejoin:miter;stroke-miterlimit:10;stroke-dasharray:none;stroke-opacity:1"
                                   d="m -184.738,88.141 0,11.039" /></g><path
                                   id="path82"
                                   style="fill:#000000;fill-opacity:1;fill-rule:nonzero;stroke:none"
                                   d="m 595.98,172.02 5.52,0 0,-5.52 -5.52,0 0,5.52 z" /><g
                                   transform="matrix(0,-1,-1,0,0,354)"
                                   id="g84"><path
                                   id="path86"
                                   style="fill:#ffffff;fill-opacity:1;fill-rule:nonzero;stroke:#000000;stroke-width:5.51999998;stroke-linecap:butt;stroke-linejoin:miter;stroke-miterlimit:10;stroke-dasharray:none;stroke-opacity:1"
                                   d="m 196.152,-626.34 c 0,6.305 -5.109,11.414 -11.414,11.414 -6.3,0 -11.41,-5.109 -11.41,-11.414 0,-6.305 5.11,-11.414 11.41,-11.414 6.305,0 11.414,5.109 11.414,11.414 z" /></g><g
                                   transform="matrix(0,-1,-1,0,0,354)"
                                   id="g88"><path
                                   id="path90"
                                   style="fill:none;stroke:#000000;stroke-width:5.51999998;stroke-linecap:square;stroke-linejoin:miter;stroke-miterlimit:10;stroke-dasharray:none;stroke-opacity:1"
                                   d="m 184.738,-612.539 0,11.039" /></g><g
                                   transform="matrix(1,0,0,-1,0,354)"
                                   id="g92"><path
                                   id="path94"
                                   style="fill:none;stroke:#000000;stroke-width:5.51999998;stroke-linecap:butt;stroke-linejoin:miter;stroke-miterlimit:10;stroke-dasharray:none;stroke-opacity:1"
                                   d="m 101.941,184.738 496.797,0" /></g></g></g></g></g></g></g></g></g></g></g></g></g></g></g></g></svg>