<?xml version="1.0" encoding="UTF-8" standalone="no"?>
<svg
   xmlns:dc="http://purl.org/dc/elements/1.1/"
   xmlns:cc="http://creativecommons.org/ns#"
   xmlns:rdf="http://www.w3.org/1999/02/22-rdf-syntax-ns#"
   xmlns:svg="http://www.w3.org/2000/svg"
   xmlns="http://www.w3.org/2000/svg"
   viewBox="0 0 832.5 326.25"
   height="326.25"
   width="832.5"
   xml:space="preserve"
   version="1.1"
   id="svg2"><metadata
     id="metadata8"><rdf:RDF><cc:Work
         rdf:about=""><dc:format>image/svg+xml</dc:format><dc:type
           rdf:resource="http://purl.org/dc/dcmitype/StillImage" /></cc:Work></rdf:RDF></metadata><defs
     id="defs6"><clipPath
       id="clipPath20"
       clipPathUnits="userSpaceOnUse"><path
         id="path22"
         d="M 0,0 666,0 666,261 0,261 0,0 Z" /></clipPath><clipPath
       id="clipPath34"
       clipPathUnits="userSpaceOnUse"><path
         id="path36"
         d="M 0,0 666,0 666,261 0,261 0,0 Z" /></clipPath><clipPath
       id="clipPath46"
       clipPathUnits="userSpaceOnUse"><path
         id="path48"
         d="M 15,0 651,0 651,246 15,246 15,0 Z" /></clipPath><clipPath
       id="clipPath56"
       clipPathUnits="userSpaceOnUse"><path
         id="path58"
         d="M 15,246 651,246 651,0 15,0 15,246 Z" /></clipPath><clipPath
       id="clipPath66"
       clipPathUnits="userSpaceOnUse"><path
         id="path68"
         d="M 30,5 593,5 593,239 30,239 30,5 Z" /></clipPath></defs><g
     transform="matrix(1.25,0,0,-1.25,0,326.25)"
     id="g10"><g
       id="g12"><g
         id="g14"><g
           id="g16"><g
             clip-path="url(#clipPath20)"
             id="g18"><g
               id="g24"><path
                 id="path26"
                 style="fill:#ffffff;fill-opacity:1;fill-rule:nonzero;stroke:none"
                 d="M 0,0 666,0 666,261 0,261 0,0 Z" /></g></g></g></g><g
         id="g28"><g
           id="g30"><g
             clip-path="url(#clipPath34)"
             id="g32"><g
               id="g38"><g
                 id="g40"><g
                   id="g42"><g
                     clip-path="url(#clipPath46)"
                     id="g44"><g
                       id="g50" /><g
                       id="g52"><g
                         clip-path="url(#clipPath56)"
                         id="g54"><g
                           id="g60"><g
                             id="g62"><g
                               clip-path="url(#clipPath66)"
                               id="g64"><g
                                 id="g70"><path
                                   id="path72"
                                   style="fill:#000000;fill-opacity:1;fill-rule:nonzero;stroke:none"
                                   d="m 388.801,219.301 5.34,0 0,-5.34 -5.34,0 0,5.34 z" /><path
                                   id="path74"
                                   style="fill:#000000;fill-opacity:1;fill-rule:nonzero;stroke:none"
                                   d="m 228.602,219.301 5.34,0 0,-5.34 -5.34,0 0,5.34 z" /><g
                                   transform="matrix(0,-1,-1,0,0,261)"
                                   id="g76"><path
                                   id="path78"
                                   style="fill:none;stroke:#000000;stroke-width:5.34000015;stroke-linecap:round;stroke-linejoin:round;stroke-miterlimit:10;stroke-dasharray:none;stroke-opacity:1"
                                   d="m 39.391,-338.07 c -8.082,0.019 -14.661,-5.942 -14.68,-13.309 -0.027,-7.375 6.508,-13.371 14.598,-13.391 l 0.043,0" /></g><g
                                   transform="matrix(0,-1,-1,0,0,261)"
                                   id="g80"><path
                                   id="path82"
                                   style="fill:none;stroke:#000000;stroke-width:5.34000015;stroke-linecap:round;stroke-linejoin:round;stroke-miterlimit:10;stroke-dasharray:none;stroke-opacity:1"
                                   d="m 39.031,-364.77 5.34,0" /></g><g
                                   transform="matrix(0,-1,-1,0,0,261)"
                                   id="g84"><path
                                   id="path86"
                                   style="fill:none;stroke:#000000;stroke-width:5.34000015;stroke-linecap:round;stroke-linejoin:round;stroke-miterlimit:10;stroke-dasharray:none;stroke-opacity:1"
                                   d="m 39.031,-338.07 5.34,0" /></g><g
                                   transform="matrix(0,-1,-1,0,0,261)"
                                   id="g88"><path
                                   id="path90"
                                   style="fill:none;stroke:#000000;stroke-width:5.34000015;stroke-linecap:round;stroke-linejoin:round;stroke-miterlimit:10;stroke-dasharray:none;stroke-opacity:1"
                                   d="m 39.391,-311.371 c -8.082,0.019 -14.661,-5.941 -14.68,-13.309 -0.027,-7.375 6.508,-13.371 14.598,-13.39 l 0.043,0" /></g><g
                                   transform="matrix(0,-1,-1,0,0,261)"
                                   id="g92"><path
                                   id="path94"
                                   style="fill:none;stroke:#000000;stroke-width:5.34000015;stroke-linecap:round;stroke-linejoin:round;stroke-miterlimit:10;stroke-dasharray:none;stroke-opacity:1"
                                   d="m 39.031,-338.07 5.34,0" /></g><g
                                   transform="matrix(0,-1,-1,0,0,261)"
                                   id="g96"><path
                                   id="path98"
                                   style="fill:none;stroke:#000000;stroke-width:5.34000015;stroke-linecap:round;stroke-linejoin:round;stroke-miterlimit:10;stroke-dasharray:none;stroke-opacity:1"
                                   d="m 39.031,-311.371 5.34,0" /></g><g
                                   transform="matrix(0,-1,-1,0,0,261)"
                                   id="g100"><path
                                   id="path102"
                                   style="fill:none;stroke:#000000;stroke-width:5.34000015;stroke-linecap:round;stroke-linejoin:round;stroke-miterlimit:10;stroke-dasharray:none;stroke-opacity:1"
                                   d="m 39.391,-284.672 c -8.082,0.024 -14.661,-5.937 -14.68,-13.308 -0.027,-7.375 6.508,-13.372 14.598,-13.391 l 0.043,0" /></g><g
                                   transform="matrix(0,-1,-1,0,0,261)"
                                   id="g104"><path
                                   id="path106"
                                   style="fill:none;stroke:#000000;stroke-width:5.34000015;stroke-linecap:round;stroke-linejoin:round;stroke-miterlimit:10;stroke-dasharray:none;stroke-opacity:1"
                                   d="m 39.031,-311.371 5.34,0" /></g><g
                                   transform="matrix(0,-1,-1,0,0,261)"
                                   id="g108"><path
                                   id="path110"
                                   style="fill:none;stroke:#000000;stroke-width:5.34000015;stroke-linecap:round;stroke-linejoin:round;stroke-miterlimit:10;stroke-dasharray:none;stroke-opacity:1"
                                   d="m 39.031,-284.672 5.34,0" /></g><g
                                   transform="matrix(0,-1,-1,0,0,261)"
                                   id="g112"><path
                                   id="path114"
                                   style="fill:none;stroke:#000000;stroke-width:5.34000015;stroke-linecap:round;stroke-linejoin:round;stroke-miterlimit:10;stroke-dasharray:none;stroke-opacity:1"
                                   d="m 39.391,-257.969 c -8.082,0.02 -14.661,-5.941 -14.68,-13.312 -0.027,-7.375 6.508,-13.367 14.598,-13.391 l 0.043,0" /></g><g
                                   transform="matrix(0,-1,-1,0,0,261)"
                                   id="g116"><path
                                   id="path118"
                                   style="fill:none;stroke:#000000;stroke-width:5.34000015;stroke-linecap:round;stroke-linejoin:round;stroke-miterlimit:10;stroke-dasharray:none;stroke-opacity:1"
                                   d="m 39.031,-284.672 5.34,0" /></g><g
                                   transform="matrix(0,-1,-1,0,0,261)"
                                   id="g120"><path
                                   id="path122"
                                   style="fill:none;stroke:#000000;stroke-width:5.34000015;stroke-linecap:round;stroke-linejoin:round;stroke-miterlimit:10;stroke-dasharray:none;stroke-opacity:1"
                                   d="m 39.031,-257.969 5.34,0" /></g><g
                                   transform="matrix(0,-1,-1,0,0,261)"
                                   id="g124"><path
                                   id="path126"
                                   style="fill:none;stroke:#000000;stroke-width:5.34000015;stroke-linecap:square;stroke-linejoin:miter;stroke-miterlimit:10;stroke-dasharray:none;stroke-opacity:1"
                                   d="m 44.371,-388.801 0,21.36" /></g><g
                                   transform="matrix(0,-1,-1,0,0,261)"
                                   id="g128"><path
                                   id="path130"
                                   style="fill:none;stroke:#000000;stroke-width:5.34000015;stroke-linecap:square;stroke-linejoin:miter;stroke-miterlimit:10;stroke-dasharray:none;stroke-opacity:1"
                                   d="m 44.371,-255.301 0,21.36" /></g><path
                                   id="path132"
                                   style="fill:#000000;fill-opacity:1;fill-rule:nonzero;stroke:none"
                                   d="m 148.5,192.602 5.34,0 0,-5.34 -5.34,0 0,5.34 z" /><path
                                   id="path134"
                                   style="fill:#000000;fill-opacity:1;fill-rule:nonzero;stroke:none"
                                   d="m 148.5,59.102 5.34,0 0,-5.34 -5.34,0 0,5.34 z" /><g
                                   transform="matrix(1,0,0,-1,0,261)"
                                   id="g136"><path
                                   id="path138"
                                   style="fill:none;stroke:#000000;stroke-width:5.34000015;stroke-linecap:round;stroke-linejoin:miter;stroke-miterlimit:10;stroke-dasharray:none;stroke-opacity:1"
                                   d="m 121.801,127.141 58.738,0" /></g><g
                                   transform="matrix(1,0,0,-1,0,261)"
                                   id="g140"><path
                                   id="path142"
                                   style="fill:none;stroke:#000000;stroke-width:5.34000015;stroke-linecap:round;stroke-linejoin:miter;stroke-miterlimit:10;stroke-dasharray:none;stroke-opacity:1"
                                   d="m 121.801,148.5 58.738,0" /></g><g
                                   transform="matrix(1,0,0,-1,0,261)"
                                   id="g144"><path
                                   id="path146"
                                   style="fill:none;stroke:#000000;stroke-width:5.34000015;stroke-linecap:square;stroke-linejoin:miter;stroke-miterlimit:10;stroke-dasharray:none;stroke-opacity:1"
                                   d="m 151.172,73.738 0,50.731" /></g><g
                                   transform="matrix(1,0,0,-1,0,261)"
                                   id="g148"><path
                                   id="path150"
                                   style="fill:none;stroke:#000000;stroke-width:5.34000015;stroke-linecap:square;stroke-linejoin:miter;stroke-miterlimit:10;stroke-dasharray:none;stroke-opacity:1"
                                   d="m 151.172,151.172 0,50.726" /></g><path
                                   id="path152"
                                   style="fill:#000000;fill-opacity:1;fill-rule:nonzero;stroke:none"
                                   d="m 468.898,192.602 5.34,0 0,-5.34 -5.34,0 0,5.34 z" /><path
                                   id="path154"
                                   style="fill:#000000;fill-opacity:1;fill-rule:nonzero;stroke:none"
                                   d="m 468.898,59.102 5.34,0 0,-5.34 -5.34,0 0,5.34 z" /><g
                                   transform="matrix(1,0,0,-1,0,261)"
                                   id="g156"><path
                                   id="path158"
                                   style="fill:none;stroke:#000000;stroke-width:5.34000015;stroke-linecap:round;stroke-linejoin:miter;stroke-miterlimit:10;stroke-dasharray:none;stroke-opacity:1"
                                   d="m 442.199,127.141 58.742,0" /></g><g
                                   transform="matrix(1,0,0,-1,0,261)"
                                   id="g160"><path
                                   id="path162"
                                   style="fill:none;stroke:#000000;stroke-width:5.34000015;stroke-linecap:round;stroke-linejoin:miter;stroke-miterlimit:10;stroke-dasharray:none;stroke-opacity:1"
                                   d="m 442.199,148.5 58.742,0" /></g><g
                                   transform="matrix(1,0,0,-1,0,261)"
                                   id="g164"><path
                                   id="path166"
                                   style="fill:none;stroke:#000000;stroke-width:5.34000015;stroke-linecap:square;stroke-linejoin:miter;stroke-miterlimit:10;stroke-dasharray:none;stroke-opacity:1"
                                   d="m 471.57,73.738 0,50.731" /></g><g
                                   transform="matrix(1,0,0,-1,0,261)"
                                   id="g168"><path
                                   id="path170"
                                   style="fill:none;stroke:#000000;stroke-width:5.34000015;stroke-linecap:square;stroke-linejoin:miter;stroke-miterlimit:10;stroke-dasharray:none;stroke-opacity:1"
                                   d="m 471.57,151.172 0,50.726" /></g><path
                                   id="path172"
                                   style="fill:#000000;fill-opacity:1;fill-rule:nonzero;stroke:none"
                                   d="m 148.5,112.5 5.34,0 0,-5.34 -5.34,0 0,5.34 z" /><g
                                   transform="matrix(1,0,0,-1,0,261)"
                                   id="g174"><path
                                   id="path176"
                                   style="fill:none;stroke:#000000;stroke-width:5.34000015;stroke-linecap:round;stroke-linejoin:miter;stroke-miterlimit:10;stroke-dasharray:none;stroke-opacity:1"
                                   d="m 121.801,207.238 58.738,0" /></g><g
                                   transform="matrix(1,0,0,-1,0,261)"
                                   id="g178"><path
                                   id="path180"
                                   style="fill:none;stroke:#000000;stroke-width:5.34000015;stroke-linecap:round;stroke-linejoin:miter;stroke-miterlimit:10;stroke-dasharray:none;stroke-opacity:1"
                                   d="m 121.801,207.238 c 28.035,43.551 29.371,45.391 29.371,45.391" /></g><g
                                   transform="matrix(1,0,0,-1,0,261)"
                                   id="g182"><path
                                   id="path184"
                                   style="fill:none;stroke:#000000;stroke-width:5.34000015;stroke-linecap:round;stroke-linejoin:miter;stroke-miterlimit:10;stroke-dasharray:none;stroke-opacity:1"
                                   d="m 180.539,207.238 c -29.047,45.231 -29.367,45.391 -29.367,45.391" /></g><g
                                   transform="matrix(1,0,0,-1,0,261)"
                                   id="g186"><path
                                   id="path188"
                                   style="fill:#000000;fill-opacity:1;fill-rule:nonzero;stroke:#000000;stroke-width:5.34000015;stroke-linecap:round;stroke-linejoin:miter;stroke-miterlimit:10;stroke-dasharray:none;stroke-opacity:1"
                                   d="m 136.645,228.867 -13.375,-21.469 13.804,-0.48 c 7.582,-0.293 20.051,-0.293 27.688,0 l 13.91,0.48 -13.11,21.043 c -7.21,11.586 -13.644,21.25 -14.312,21.493 -0.668,0.214 -7.234,-9.266 -14.605,-21.067 z" /></g><g
                                   transform="matrix(1,0,0,-1,0,261)"
                                   id="g190"><path
                                   id="path192"
                                   style="fill:#000000;fill-opacity:1;fill-rule:nonzero;stroke:#000000;stroke-width:5.34000015;stroke-linecap:round;stroke-linejoin:miter;stroke-miterlimit:10;stroke-dasharray:none;stroke-opacity:1"
                                   d="m 136.645,228.867 -13.375,-21.469 13.804,-0.48 c 7.582,-0.293 20.051,-0.293 27.688,0 l 13.91,0.48 -13.11,21.043 c -7.21,11.586 -13.644,21.25 -14.312,21.493 -0.668,0.214 -7.234,-9.266 -14.605,-21.067 z" /></g><g
                                   transform="matrix(1,0,0,-1,0,261)"
                                   id="g194"><path
                                   id="path196"
                                   style="fill:none;stroke:#000000;stroke-width:5.34000015;stroke-linecap:square;stroke-linejoin:miter;stroke-miterlimit:10;stroke-dasharray:none;stroke-opacity:1"
                                   d="m 151.172,153.84 0,48.058" /></g><path
                                   id="path198"
                                   style="fill:#000000;fill-opacity:1;fill-rule:nonzero;stroke:none"
                                   d="m 468.898,112.5 5.34,0 0,-5.34 -5.34,0 0,5.34 z" /><g
                                   transform="matrix(1,0,0,-1,0,261)"
                                   id="g200"><path
                                   id="path202"
                                   style="fill:none;stroke:#000000;stroke-width:5.34000015;stroke-linecap:round;stroke-linejoin:miter;stroke-miterlimit:10;stroke-dasharray:none;stroke-opacity:1"
                                   d="m 442.199,207.238 58.742,0" /></g><g
                                   transform="matrix(1,0,0,-1,0,261)"
                                   id="g204"><path
                                   id="path206"
                                   style="fill:none;stroke:#000000;stroke-width:5.34000015;stroke-linecap:round;stroke-linejoin:miter;stroke-miterlimit:10;stroke-dasharray:none;stroke-opacity:1"
                                   d="m 442.199,207.238 c 28.035,43.551 29.371,45.391 29.371,45.391" /></g><g
                                   transform="matrix(1,0,0,-1,0,261)"
                                   id="g208"><path
                                   id="path210"
                                   style="fill:none;stroke:#000000;stroke-width:5.34000015;stroke-linecap:round;stroke-linejoin:miter;stroke-miterlimit:10;stroke-dasharray:none;stroke-opacity:1"
                                   d="m 500.941,207.238 c -29.05,45.231 -29.371,45.391 -29.371,45.391" /></g><g
                                   transform="matrix(1,0,0,-1,0,261)"
                                   id="g212"><path
                                   id="path214"
                                   style="fill:#000000;fill-opacity:1;fill-rule:nonzero;stroke:#000000;stroke-width:5.34000015;stroke-linecap:round;stroke-linejoin:miter;stroke-miterlimit:10;stroke-dasharray:none;stroke-opacity:1"
                                   d="m 457.047,228.867 -13.379,-21.469 13.805,-0.48 c 7.582,-0.293 20.05,-0.293 27.687,0 l 13.91,0.48 -13.109,21.043 c -7.207,11.586 -13.645,21.25 -14.313,21.493 -0.664,0.214 -7.234,-9.266 -14.601,-21.067 z" /></g><g
                                   transform="matrix(1,0,0,-1,0,261)"
                                   id="g216"><path
                                   id="path218"
                                   style="fill:#000000;fill-opacity:1;fill-rule:nonzero;stroke:#000000;stroke-width:5.34000015;stroke-linecap:round;stroke-linejoin:miter;stroke-miterlimit:10;stroke-dasharray:none;stroke-opacity:1"
                                   d="m 457.047,228.867 -13.379,-21.469 13.805,-0.48 c 7.582,-0.293 20.05,-0.293 27.687,0 l 13.91,0.48 -13.109,21.043 c -7.207,11.586 -13.645,21.25 -14.313,21.493 -0.664,0.214 -7.234,-9.266 -14.601,-21.067 z" /></g><g
                                   transform="matrix(1,0,0,-1,0,261)"
                                   id="g220"><path
                                   id="path222"
                                   style="fill:none;stroke:#000000;stroke-width:5.34000015;stroke-linecap:square;stroke-linejoin:miter;stroke-miterlimit:10;stroke-dasharray:none;stroke-opacity:1"
                                   d="m 471.57,153.84 0,48.058" /></g><path
                                   id="path224"
                                   style="fill:#000000;fill-opacity:1;fill-rule:nonzero;stroke:none"
                                   d="m 68.398,219.301 5.34,0 0,-5.34 -5.34,0 0,5.34 z" /><g
                                   transform="matrix(0,1,1,0,0,261)"
                                   id="g226"><path
                                   id="path228"
                                   style="fill:#ffffff;fill-opacity:1;fill-rule:nonzero;stroke:#000000;stroke-width:5.34000015;stroke-linecap:butt;stroke-linejoin:miter;stroke-miterlimit:10;stroke-dasharray:none;stroke-opacity:1"
                                   d="m -33.328,44.371 c 0,6.098 -4.945,11.039 -11.043,11.039 -6.098,0 -11.039,-4.941 -11.039,-11.039 0,-6.098 4.941,-11.043 11.039,-11.043 6.098,0 11.043,4.945 11.043,11.043 z" /></g><g
                                   transform="matrix(0,1,1,0,0,261)"
                                   id="g230"><path
                                   id="path232"
                                   style="fill:none;stroke:#000000;stroke-width:5.34000015;stroke-linecap:square;stroke-linejoin:miter;stroke-miterlimit:10;stroke-dasharray:none;stroke-opacity:1"
                                   d="m -44.371,57.719 0,10.679" /></g><path
                                   id="path234"
                                   style="fill:#000000;fill-opacity:1;fill-rule:nonzero;stroke:none"
                                   d="m 549,219.301 5.34,0 0,-5.34 -5.34,0 0,5.34 z" /><g
                                   transform="matrix(0,-1,-1,0,0,261)"
                                   id="g236"><path
                                   id="path238"
                                   style="fill:#ffffff;fill-opacity:1;fill-rule:nonzero;stroke:#000000;stroke-width:5.34000015;stroke-linecap:butt;stroke-linejoin:miter;stroke-miterlimit:10;stroke-dasharray:none;stroke-opacity:1"
                                   d="m 55.41,-578.371 c 0,6.098 -4.941,11.043 -11.039,11.043 -6.098,0 -11.043,-4.945 -11.043,-11.043 0,-6.098 4.945,-11.039 11.043,-11.039 6.098,0 11.039,4.941 11.039,11.039 z" /></g><g
                                   transform="matrix(0,-1,-1,0,0,261)"
                                   id="g240"><path
                                   id="path242"
                                   style="fill:none;stroke:#000000;stroke-width:5.34000015;stroke-linecap:square;stroke-linejoin:miter;stroke-miterlimit:10;stroke-dasharray:none;stroke-opacity:1"
                                   d="m 44.371,-565.02 0,10.68" /></g><g
                                   transform="matrix(1,0,0,-1,0,261)"
                                   id="g244"><path
                                   id="path246"
                                   style="fill:none;stroke:#000000;stroke-width:5.34000015;stroke-linecap:butt;stroke-linejoin:miter;stroke-miterlimit:10;stroke-dasharray:none;stroke-opacity:1"
                                   d="m 71.07,44.371 160.2,0" /></g><g
                                   transform="matrix(1,0,0,-1,0,261)"
                                   id="g248"><path
                                   id="path250"
                                   style="fill:none;stroke:#000000;stroke-width:5.34000015;stroke-linecap:butt;stroke-linejoin:miter;stroke-miterlimit:10;stroke-dasharray:none;stroke-opacity:1"
                                   d="m 551.672,44.371 -160.203,0" /></g><g
                                   transform="matrix(1,0,0,-1,0,261)"
                                   id="g252"><path
                                   id="path254"
                                   style="fill:none;stroke:#000000;stroke-width:5.34000015;stroke-linecap:butt;stroke-linejoin:miter;stroke-miterlimit:10;stroke-dasharray:none;stroke-opacity:1"
                                   d="m 471.57,71.07 0,-21.359" /></g><g
                                   transform="matrix(1,0,0,-1,0,261)"
                                   id="g256"><path
                                   id="path258"
                                   style="fill:#000000;fill-opacity:1;fill-rule:nonzero;stroke:#000000;stroke-width:5.34000015;stroke-linecap:butt;stroke-linejoin:miter;stroke-miterlimit:10;stroke-dasharray:none;stroke-opacity:1"
                                   d="m 476.91,44.371 c 0,2.949 -2.39,5.34 -5.34,5.34 -2.949,0 -5.34,-2.391 -5.34,-5.34 0,-2.949 2.391,-5.34 5.34,-5.34 2.95,0 5.34,2.391 5.34,5.34 z" /></g><g
                                   transform="matrix(1,0,0,-1,0,261)"
                                   id="g260"><path
                                   id="path262"
                                   style="fill:none;stroke:#000000;stroke-width:5.34000015;stroke-linecap:butt;stroke-linejoin:miter;stroke-miterlimit:10;stroke-dasharray:none;stroke-opacity:1"
                                   d="m 151.172,71.07 0,-21.359" /></g><g
                                   transform="matrix(1,0,0,-1,0,261)"
                                   id="g264"><path
                                   id="path266"
                                   style="fill:#000000;fill-opacity:1;fill-rule:nonzero;stroke:#000000;stroke-width:5.34000015;stroke-linecap:butt;stroke-linejoin:miter;stroke-miterlimit:10;stroke-dasharray:none;stroke-opacity:1"
                                   d="m 156.512,44.371 c 0,2.949 -2.391,5.34 -5.34,5.34 -2.949,0 -5.344,-2.391 -5.344,-5.34 0,-2.949 2.395,-5.34 5.344,-5.34 2.949,0 5.34,2.391 5.34,5.34 z" /></g></g></g></g></g></g></g></g></g></g></g></g></g></g></g></g></svg>