<?xml version="1.0" encoding="UTF-8" standalone="no"?>
<svg
   xmlns:dc="http://purl.org/dc/elements/1.1/"
   xmlns:cc="http://creativecommons.org/ns#"
   xmlns:rdf="http://www.w3.org/1999/02/22-rdf-syntax-ns#"
   xmlns:svg="http://www.w3.org/2000/svg"
   xmlns="http://www.w3.org/2000/svg"
   viewBox="0 0 710.71863 234.02365"
   height="234.02365"
   width="710.71863"
   xml:space="preserve"
   version="1.1"
   id="svg2"><metadata
     id="metadata8"><rdf:RDF><cc:Work
         rdf:about=""><dc:format>image/svg+xml</dc:format><dc:type
           rdf:resource="http://purl.org/dc/dcmitype/StillImage" /></cc:Work></rdf:RDF></metadata><defs
     id="defs6" /><g
     transform="matrix(1.25,0,0,-1.25,0,234.02365)"
     id="g10"><g
       id="g12"><g
         transform="matrix(1,0,0,-1,0,187.21892)"
         id="g14"><path
           id="path16"
           style="fill:#999999;fill-opacity:1;fill-rule:nonzero;stroke:#999999;stroke-width:0.56568497;stroke-linecap:round;stroke-linejoin:round;stroke-miterlimit:4;stroke-dasharray:none;stroke-opacity:1"
           d="m 221.719,115.715 0,-5.777 0.527,-0.215 c 0.293,-0.118 39.414,-16.328 86.942,-36.02 47.523,-19.695 86.488,-35.84 86.585,-35.879 0.137,-0.058 0.176,1.141 0.176,5.723 l 0,5.797 -1.379,0.566 c -0.758,0.313 -39.816,16.492 -86.797,35.957 -46.98,19.461 -85.562,35.438 -85.738,35.508 l -0.316,0.121 0,-5.781 z" /></g><g
         transform="matrix(1,0,0,-1,0,187.21892)"
         id="g18"><path
           id="path20"
           style="fill:#999999;fill-opacity:1;fill-rule:nonzero;stroke:#999999;stroke-width:0.56568497;stroke-linecap:round;stroke-linejoin:round;stroke-miterlimit:4;stroke-dasharray:none;stroke-opacity:1"
           d="m 161.754,116.41 0,-5.937 56.57,0 0,11.879 -56.57,0 0,-5.942 z" /></g><g
         transform="matrix(1,0,0,-1,0,187.21892)"
         id="g22"><path
           id="path24"
           style="fill:#999999;fill-opacity:1;fill-rule:nonzero;stroke:#999999;stroke-width:0.40749899;stroke-linecap:round;stroke-linejoin:round;stroke-miterlimit:4;stroke-dasharray:none;stroke-opacity:1"
           d="m 220.531,108.281 -0.441,-0.441 -26.32,-0.102 -26.325,-0.101 172.422,-71.414 27.985,0.004 27.988,0.003 -86.801,35.954 c -47.738,19.773 -87.082,36.086 -87.43,36.246 -0.589,0.273 -0.668,0.261 -1.078,-0.149 z" /></g><g
         transform="matrix(1,0,0,-1,0,187.21892)"
         id="g26"><path
           id="path28"
           style="fill:#999999;fill-opacity:1;fill-rule:nonzero;stroke:#999999;stroke-width:1.13137102;stroke-linecap:round;stroke-linejoin:round;stroke-miterlimit:4;stroke-dasharray:none;stroke-opacity:1"
           d="m 4.938,176.809 0,-6.223 345.351,0 0,12.445 -345.351,0 0,-6.222 z" /></g><g
         transform="matrix(1,0,0,-1,0,187.21892)"
         id="g30"><path
           id="path32"
           style="fill:#999999;fill-opacity:1;fill-rule:nonzero;stroke:#999999;stroke-width:1.13137102;stroke-linecap:round;stroke-linejoin:round;stroke-miterlimit:4;stroke-dasharray:none;stroke-opacity:1"
           d="m 353.75,176.043 0.074,-6.125 86.977,-38.414 c 47.836,-21.125 87.008,-38.414 87.047,-38.414 0.043,0 0.043,2.758 0,6.125 l -0.075,6.129 -86.691,38.277 c -47.68,21.051 -86.852,38.336 -87.051,38.41 -0.285,0.11 -0.343,-1.113 -0.281,-5.988 z" /></g><g
         transform="matrix(1,0,0,-1,0,187.21892)"
         id="g34"><path
           id="path36"
           style="fill:#dcdcdc;fill-opacity:1;fill-rule:evenodd;stroke:#000000;stroke-width:0.80000001;stroke-linecap:butt;stroke-linejoin:miter;stroke-miterlimit:4;stroke-dasharray:none;stroke-opacity:1"
           d="m 7.242,121.617 172,-72 124,0 -143.199,59.203 0,15.2 -154.402,0 1.601,-2.403 z" /></g><g
         transform="matrix(1,0,0,-1,0,187.21892)"
         id="g38"><path
           id="path40"
           style="fill:#dcdcdc;fill-opacity:1;fill-rule:evenodd;stroke:#000000;stroke-width:0.80000001;stroke-linecap:butt;stroke-linejoin:miter;stroke-miterlimit:4;stroke-dasharray:none;stroke-opacity:1"
           d="m 3.242,124.02 0,44.8 348.801,0 177.598,-78.402 0,-40 -132.797,0 -175.203,73.602 -218.399,0 z" /></g><g
         transform="matrix(1,0,0,-1,0,187.21892)"
         id="g42"><path
           id="path44"
           style="fill:none;stroke:#000000;stroke-width:3.20000005;stroke-linecap:butt;stroke-linejoin:round;stroke-miterlimit:10;stroke-dasharray:none;stroke-opacity:1"
           d="m 3.199,123.996 348.844,0 0,44.844 -348.844,0 0,-44.844 z" /></g><g
         transform="matrix(1,0,0,-1,0,187.21892)"
         id="g46"><path
           id="path48"
           style="fill:none;stroke:#000000;stroke-width:3.21962905;stroke-linecap:round;stroke-linejoin:miter;stroke-miterlimit:4;stroke-dasharray:none;stroke-opacity:1"
           d="M 3.25,124 177.609,50.43" /></g><g
         transform="matrix(1,0,0,-1,0,187.21892)"
         id="g50"><path
           id="path52"
           style="fill:none;stroke:#000000;stroke-width:3.24813509;stroke-linecap:round;stroke-linejoin:miter;stroke-miterlimit:4;stroke-dasharray:none;stroke-opacity:1"
           d="M 352.066,123.984 529.598,50.441" /></g><g
         transform="matrix(1,0,0,-1,0,187.21892)"
         id="g54"><path
           id="path56"
           style="fill:none;stroke:#323232;stroke-width:3.15461612;stroke-linecap:round;stroke-linejoin:miter;stroke-miterlimit:4;stroke-dasharray:none;stroke-opacity:1"
           d="M 352.02,168.832 529.645,90.395" /></g><g
         transform="matrix(1,0,0,-1,0,187.21892)"
         id="g58"><path
           id="path60"
           style="fill:none;stroke:#000000;stroke-width:3.20000005;stroke-linecap:round;stroke-linejoin:miter;stroke-miterlimit:4;stroke-dasharray:none;stroke-opacity:1"
           d="m 529.621,50.418 0,40" /></g><g
         transform="matrix(1,0,0,-1,0,187.21892)"
         id="g62"><path
           id="path64"
           style="fill:none;stroke:#000000;stroke-width:3.20000005;stroke-linecap:round;stroke-linejoin:miter;stroke-miterlimit:4;stroke-dasharray:none;stroke-opacity:1"
           d="M 220.066,124.008 397.598,50.465" /></g><g
         transform="matrix(1,0,0,-1,0,187.21892)"
         id="g66"><path
           id="path68"
           style="fill:none;stroke:#000000;stroke-width:3.20000005;stroke-linecap:round;stroke-linejoin:miter;stroke-miterlimit:4;stroke-dasharray:none;stroke-opacity:1"
           d="m 177.621,50.418 122.399,0" /></g><g
         transform="matrix(1,0,0,-1,0,187.21892)"
         id="g70"><path
           id="path72"
           style="fill:none;stroke:#000000;stroke-width:3.20000005;stroke-linecap:round;stroke-linejoin:miter;stroke-miterlimit:4;stroke-dasharray:none;stroke-opacity:1"
           d="M 160.043,108.832 337.57,35.289" /></g><g
         transform="matrix(1,0,0,-1,0,187.21892)"
         id="g74"><path
           id="path76"
           style="fill:none;stroke:#000000;stroke-width:3.16539192;stroke-linecap:round;stroke-linejoin:miter;stroke-miterlimit:4;stroke-dasharray:none;stroke-opacity:1"
           d="M 220.047,108.828 397.59,36.871" /></g><g
         transform="matrix(1,0,0,-1,0,187.21892)"
         id="g78"><path
           id="path80"
           style="fill:none;stroke:#000000;stroke-width:3.20000005;stroke-linecap:round;stroke-linejoin:miter;stroke-miterlimit:4;stroke-dasharray:none;stroke-opacity:1"
           d="m 160.02,108.84 0,15.203" /></g><g
         transform="matrix(1,0,0,-1,0,187.21892)"
         id="g82"><path
           id="path84"
           style="fill:none;stroke:#000000;stroke-width:3.19604397;stroke-linecap:round;stroke-linejoin:miter;stroke-miterlimit:4;stroke-dasharray:none;stroke-opacity:1"
           d="m 220.02,108.836 0,15.164" /></g><g
         transform="matrix(1,0,0,-1,0,187.21892)"
         id="g86"><path
           id="path88"
           style="fill:none;stroke:#000000;stroke-width:3.20000005;stroke-linecap:round;stroke-linejoin:miter;stroke-miterlimit:4;stroke-dasharray:none;stroke-opacity:1"
           d="m 160.02,108.84 60,0" /></g><g
         transform="matrix(1,0,0,-1,0,187.21892)"
         id="g90"><path
           id="path92"
           style="fill:none;stroke:#000000;stroke-width:3.20000005;stroke-linecap:round;stroke-linejoin:miter;stroke-miterlimit:4;stroke-dasharray:none;stroke-opacity:1"
           d="m 337.598,35.242 60,0" /></g><g
         transform="matrix(1,0,0,-1,0,187.21892)"
         id="g94"><path
           id="path96"
           style="fill:none;stroke:#000000;stroke-width:3.20000005;stroke-linecap:round;stroke-linejoin:miter;stroke-miterlimit:4;stroke-dasharray:none;stroke-opacity:1"
           d="m 528.82,50.418 -131.199,0" /></g><g
         transform="matrix(1,0,0,-1,0,187.21892)"
         id="g98"><path
           id="path100"
           style="fill:none;stroke:#000000;stroke-width:3.20000005;stroke-linecap:round;stroke-linejoin:miter;stroke-miterlimit:4;stroke-dasharray:none;stroke-opacity:1"
           d="m 397.621,35.266 0,15.199" /></g><g
         transform="matrix(1,0,0,-1,0,187.21892)"
         id="g102"><path
           id="path104"
           style="fill:none;stroke:#000000;stroke-width:3.20000005;stroke-linecap:round;stroke-linejoin:miter;stroke-miterlimit:4;stroke-dasharray:none;stroke-opacity:1"
           d="m 160.066,124.02 60,0" /></g><g
         transform="matrix(1,0,0,-1,0,187.21892)"
         id="g106"><path
           id="path108"
           style="fill:none;stroke:#000000;stroke-width:3.20332503;stroke-linecap:round;stroke-linejoin:round;stroke-miterlimit:4;stroke-dasharray:none;stroke-opacity:1"
           d="m 3.242,168.82 0,15.996 348.797,0 0,-15.996" /></g><g
         transform="matrix(1,0,0,-1,0,187.21892)"
         id="g110"><path
           id="path112"
           style="fill:none;stroke:#000000;stroke-width:3.20000005;stroke-linecap:round;stroke-linejoin:miter;stroke-miterlimit:4;stroke-dasharray:none;stroke-opacity:1"
           d="m 352.043,168.82 -348.801,0" /></g><g
         transform="matrix(1,0,0,-1,0,187.21892)"
         id="g114"><path
           id="path116"
           style="fill:none;stroke:#000000;stroke-width:3.20000005;stroke-linecap:round;stroke-linejoin:miter;stroke-miterlimit:4;stroke-dasharray:none;stroke-opacity:1"
           d="m 529.641,90.395 0,16" /></g><g
         transform="matrix(1,0,0,-1,0,187.21892)"
         id="g118"><path
           id="path120"
           style="fill:none;stroke:#000000;stroke-width:3.15461612;stroke-linecap:round;stroke-linejoin:miter;stroke-miterlimit:4;stroke-dasharray:none;stroke-opacity:1"
           d="M 352.039,184.832 529.664,106.395" /></g><g
         transform="matrix(1,0,0,-1,0,187.21892)"
         id="g122"><path
           id="path124"
           style="fill:none;stroke:#000000;stroke-width:3.15461612;stroke-linecap:round;stroke-linejoin:miter;stroke-miterlimit:4;stroke-dasharray:none;stroke-opacity:1"
           d="M 352.039,168.832 529.664,90.395" /></g><g
         transform="matrix(1,0,0,-1,0,187.21892)"
         id="g126"><path
           id="path128"
           style="fill:none;stroke:#000000;stroke-width:1.60000002;stroke-linecap:butt;stroke-linejoin:miter;stroke-miterlimit:4;stroke-dasharray:4.8, 4.8;stroke-dashoffset:0;stroke-opacity:1"
           d="m 532.043,89.617 23.199,0" /></g><g
         transform="matrix(1,0,0,-1,0,187.21892)"
         id="g130"><path
           id="path132"
           style="fill:none;stroke:#000000;stroke-width:1.60000002;stroke-linecap:butt;stroke-linejoin:miter;stroke-miterlimit:4;stroke-dasharray:4.8, 4.8;stroke-dashoffset:0;stroke-opacity:1"
           d="m 532.043,49.617 23.199,0" /></g><g
         transform="matrix(1,0,0,-1,0,187.21892)"
         id="g134"><path
           id="path136"
           style="fill:none;stroke:#000000;stroke-width:1.60000002;stroke-linecap:butt;stroke-linejoin:miter;stroke-miterlimit:4;stroke-dasharray:none;stroke-opacity:1"
           d="m 552.844,85.617 0,-32" /></g><g
         transform="matrix(0,1,1,0,0,187.21892)"
         id="g138"><path
           id="path140"
           style="fill:#000000;fill-opacity:1;fill-rule:evenodd;stroke:#000000;stroke-width:0.60000002;stroke-linecap:butt;stroke-linejoin:round;stroke-miterlimit:4;stroke-dasharray:none;stroke-opacity:1"
           d="M -77.25,556.715 -87.738,552.859 -77.25,549 c -1.676,2.277 -1.664,5.395 0,7.715 z" /></g><g
         transform="matrix(0,-1,-1,0,0,187.21892)"
         id="g142"><path
           id="path144"
           style="fill:#000000;fill-opacity:1;fill-rule:evenodd;stroke:#000000;stroke-width:0.60000002;stroke-linecap:butt;stroke-linejoin:round;stroke-miterlimit:4;stroke-dasharray:none;stroke-opacity:1"
           d="m 61.988,-548.969 -10.488,-3.859 10.488,-3.856 c -1.676,2.278 -1.664,5.395 0,7.715 z" /></g><g
         transform="matrix(1,0,0,-1,0,187.21892)"
         id="g146"><path
           id="path148"
           style="fill:none;stroke:#000000;stroke-width:1.60000002;stroke-linecap:butt;stroke-linejoin:miter;stroke-miterlimit:4;stroke-dasharray:4.8, 4.8;stroke-dashoffset:0;stroke-opacity:1"
           d="m 401.641,34.418 24,0" /></g><g
         transform="matrix(1,0,0,-1,0,187.21892)"
         id="g150"><path
           id="path152"
           style="fill:none;stroke:#000000;stroke-width:1.60000002;stroke-linecap:butt;stroke-linejoin:miter;stroke-miterlimit:4;stroke-dasharray:none;stroke-opacity:1"
           d="m 413.469,29.602 0,-28" /></g><g
         transform="matrix(0,1,1,0,0,187.21892)"
         id="g154"><path
           id="path156"
           style="fill:#000000;fill-opacity:1;fill-rule:evenodd;stroke:#000000;stroke-width:0.60000002;stroke-linecap:butt;stroke-linejoin:round;stroke-miterlimit:4;stroke-dasharray:none;stroke-opacity:1"
           d="m -21.23,417.344 -10.489,-3.86 10.489,-3.855 c -1.676,2.277 -1.665,5.391 0,7.715 z" /></g><g
         transform="matrix(1,0,0,-1,0,187.21892)"
         id="g158"><path
           id="path160"
           style="fill:none;stroke:#000000;stroke-width:1.60000002;stroke-linecap:butt;stroke-linejoin:miter;stroke-miterlimit:4;stroke-dasharray:none;stroke-opacity:1"
           d="m 413.5,54.438 0,28" /></g><g
         transform="matrix(0,-1,-1,0,0,187.21892)"
         id="g162"><path
           id="path164"
           style="fill:#000000;fill-opacity:1;fill-rule:evenodd;stroke:#000000;stroke-width:0.60000002;stroke-linecap:butt;stroke-linejoin:round;stroke-miterlimit:4;stroke-dasharray:none;stroke-opacity:1"
           d="m 62.809,-409.629 -10.489,-3.855 10.489,-3.86 c -1.676,2.278 -1.668,5.395 0,7.715 z" /></g><path
         id="path166"
         style="fill:#000000;fill-opacity:1;fill-rule:nonzero;stroke:none"
         d="m 560.414,112.422 2.203,11.328 -1.375,0 0.156,0.828 2.813,0 -1.031,-5.328 c 0.375,0.563 0.8,0.985 1.281,1.266 0.477,0.289 1,0.437 1.562,0.437 0.915,0 1.536,-0.261 1.86,-0.781 0.207,-0.324 0.312,-0.75 0.312,-1.281 0,-0.344 -0.047,-0.742 -0.14,-1.188 l -0.86,-4.453 1.282,0 -0.157,-0.828 -2.734,0 0.937,4.828 c 0.102,0.539 0.157,0.988 0.157,1.344 0,0.32 -0.043,0.566 -0.125,0.734 -0.168,0.375 -0.571,0.563 -1.203,0.563 -0.668,0 -1.227,-0.246 -1.672,-0.735 -0.45,-0.48 -0.762,-1.183 -0.938,-2.109 l -0.89,-4.625 -1.438,0 z" /><g
         transform="matrix(1,0,0,-1,0,187.21892)"
         id="g168"><path
           id="path170"
           style="fill:none;stroke:#000000;stroke-width:1.60000002;stroke-linecap:round;stroke-linejoin:miter;stroke-miterlimit:4;stroke-dasharray:none;stroke-opacity:1"
           d="M 129.402,106.137 301.879,37.102" /></g><g
         transform="matrix(1,0.40026,0.40026,-1,0,187.21892)"
         id="g172"><path
           id="path174"
           style="fill:#000000;fill-opacity:1;fill-rule:evenodd;stroke:#000000;stroke-width:0.55703598;stroke-linecap:butt;stroke-linejoin:round;stroke-miterlimit:4;stroke-dasharray:none;stroke-opacity:1"
           d="m 82.69,139.718 -9.739,-3.581 9.738,-3.579 c -1.557,2.111 -1.547,5.006 0.001,7.16 z" /></g><g
         transform="matrix(-1,-0.40026,-0.40026,1,0,187.21892)"
         id="g176"><path
           id="path178"
           style="fill:#000000;fill-opacity:1;fill-rule:evenodd;stroke:#000000;stroke-width:0.55703598;stroke-linecap:butt;stroke-linejoin:round;stroke-miterlimit:4;stroke-dasharray:none;stroke-opacity:1"
           d="m -239.626,-132.53 -9.738,-3.581 9.737,-3.579 c -1.552,2.113 -1.546,5.006 0.001,7.16 z" /></g><g
         transform="matrix(1,0,0,-1,0,187.21892)"
         id="g180"><path
           id="path182"
           style="fill:none;stroke:#000000;stroke-width:1.60000002;stroke-linecap:butt;stroke-linejoin:miter;stroke-miterlimit:4;stroke-dasharray:4.8, 4.8;stroke-dashoffset:0;stroke-opacity:1"
           d="m 157.641,108.82 -34.399,0" /></g><g
         transform="matrix(1,0,0,-1,0,187.21892)"
         id="g184"><path
           id="path186"
           style="fill:none;stroke:#000000;stroke-width:1.60000002;stroke-linecap:butt;stroke-linejoin:miter;stroke-miterlimit:4;stroke-dasharray:4.8, 4.8;stroke-dashoffset:0;stroke-opacity:1"
           d="m 159.242,124.82 0,24.797" /></g><g
         transform="matrix(1,0,0,-1,0,187.21892)"
         id="g188"><path
           id="path190"
           style="fill:none;stroke:#000000;stroke-width:1.60000002;stroke-linecap:butt;stroke-linejoin:miter;stroke-miterlimit:4;stroke-dasharray:4.8, 4.8;stroke-dashoffset:0;stroke-opacity:1"
           d="m 220.844,124.82 0,24.797" /></g><g
         transform="matrix(1,0,0,-1,0,187.21892)"
         id="g192"><path
           id="path194"
           style="fill:none;stroke:#000000;stroke-width:1.60000002;stroke-linecap:butt;stroke-linejoin:miter;stroke-miterlimit:4;stroke-dasharray:4.8, 4.8;stroke-dashoffset:0;stroke-opacity:1"
           d="m 335.242,34.418 -34.398,0" /></g><path
         id="path196"
         style="fill:#000000;fill-opacity:1;fill-rule:nonzero;stroke:none"
         d="m 194.016,27.617 c 0.687,0.75 1.109,1.258 1.265,1.532 0.571,1.039 1.141,2.41 1.703,4.109 l -1.203,0 0.157,0.844 2.093,0 -0.172,-0.844 c -0.531,-1.938 -1.054,-3.371 -1.562,-4.297 -0.742,-1.336 -1.524,-2.391 -2.344,-3.172 l -1.187,0 -0.86,6.219 -3.25,-6.219 -1.156,0 -1,7.469 -0.938,-0.016 0.157,0.86 2.14,0 0.875,-6.485 3.407,6.485 1,0 0.875,-6.485 z" /><path
         id="path198"
         style="fill:#000000;fill-opacity:1;fill-rule:nonzero;stroke:none"
         d="m 176.297,113.25 1.359,0 -0.156,-0.828 -2.797,0 2.203,11.328 -1.39,0 0.156,0.828 2.828,0 -2.203,-11.328 z" /><g
         transform="matrix(1,0,0,-1,0,187.21892)"
         id="g200"><path
           id="path202"
           style="fill:none;stroke:#000000;stroke-width:1.60000002;stroke-linecap:butt;stroke-linejoin:miter;stroke-miterlimit:4;stroke-dasharray:none;stroke-opacity:1"
           d="m 163.059,146.828 53.968,0" /></g><g
         transform="matrix(1,0,0,-1,0,187.21892)"
         id="g204"><path
           id="path206"
           style="fill:#000000;fill-opacity:1;fill-rule:evenodd;stroke:#000000;stroke-width:0.60000002;stroke-linecap:butt;stroke-linejoin:round;stroke-miterlimit:4;stroke-dasharray:none;stroke-opacity:1"
           d="m 171.426,150.699 -10.488,-3.859 10.488,-3.856 c -1.676,2.278 -1.664,5.395 0,7.715 z" /></g><g
         transform="matrix(-1,0,0,1,0,187.21892)"
         id="g208"><path
           id="path210"
           style="fill:#000000;fill-opacity:1;fill-rule:evenodd;stroke:#000000;stroke-width:0.60000002;stroke-linecap:butt;stroke-linejoin:round;stroke-miterlimit:4;stroke-dasharray:none;stroke-opacity:1"
           d="m -208.656,-142.953 -10.489,-3.859 10.489,-3.856 c -1.676,2.277 -1.668,5.395 0,7.715 z" /></g><path
         id="path212"
         style="fill:#000000;fill-opacity:1;fill-rule:nonzero;stroke:none"
         d="m 62.016,45.18 -0.313,-1.531 -0.875,-0.204 c 0.031,0.469 -0.121,0.821 -0.453,1.063 -0.324,0.227 -0.73,0.344 -1.219,0.344 -0.492,0 -0.945,-0.125 -1.359,-0.375 -0.418,-0.262 -0.656,-0.571 -0.719,-0.922 -0.094,-0.461 0.051,-0.824 0.438,-1.094 0.394,-0.273 0.937,-0.406 1.625,-0.406 l 0.375,0 -0.157,-0.813 -0.718,0 c -0.7,0 -1.309,-0.168 -1.829,-0.5 -0.523,-0.343 -0.839,-0.797 -0.953,-1.359 -0.086,-0.438 0.067,-0.824 0.453,-1.156 0.376,-0.336 0.852,-0.5 1.438,-0.5 0.602,0 1.148,0.133 1.641,0.406 0.488,0.281 0.812,0.687 0.968,1.219 l 0.813,-0.188 -0.313,-1.609 c -0.593,-0.199 -1.183,-0.344 -1.765,-0.438 -0.574,-0.093 -1.059,-0.14 -1.453,-0.14 -1.032,0 -1.86,0.211 -2.485,0.625 -0.625,0.414 -0.859,1.015 -0.703,1.797 0.156,0.812 0.524,1.421 1.109,1.828 0.301,0.195 0.848,0.347 1.641,0.453 l -1.094,0.625 c -0.386,0.219 -0.515,0.656 -0.39,1.312 0.133,0.676 0.488,1.192 1.062,1.547 0.582,0.344 1.383,0.516 2.407,0.516 0.281,0 0.679,-0.043 1.203,-0.125 0.531,-0.086 1.07,-0.211 1.625,-0.375 z" /><path
         id="path214"
         style="fill:#000000;fill-opacity:1;fill-rule:nonzero;stroke:none"
         d="m 67.406,39.289 0,-1.297 -0.515,0 c -0.024,0.25 -0.094,0.438 -0.219,0.563 -0.125,0.133 -0.313,0.203 -0.563,0.203 -0.437,0 -0.777,-0.156 -1.015,-0.469 -0.231,-0.304 -0.344,-0.742 -0.344,-1.312 l 0,-2.375 1.031,0 0,-0.516 -2.75,0 0,0.516 0.813,0 0,4.156 -0.86,0 0,0.516 1.766,0 0,-0.922 c 0.176,0.363 0.398,0.629 0.672,0.797 0.281,0.175 0.617,0.265 1.016,0.265 0.144,0 0.296,-0.011 0.453,-0.031 0.164,-0.023 0.336,-0.055 0.515,-0.094 z" /><path
         id="path216"
         style="fill:#000000;fill-opacity:1;fill-rule:nonzero;stroke:none"
         d="m 424.727,172.063 -1.266,0 0.172,0.843 1.265,0 0.5,2.579 1.438,0 -0.5,-2.579 2.703,0 -0.156,-0.843 -2.703,0 -1.032,-5.266 c -0.074,-0.418 -0.109,-0.746 -0.109,-0.984 0,-0.168 0.016,-0.293 0.047,-0.375 0.102,-0.2 0.336,-0.297 0.703,-0.297 0.375,0 0.664,0.109 0.875,0.328 0.219,0.226 0.379,0.586 0.484,1.078 l 1.094,0 c -0.187,-0.75 -0.5,-1.305 -0.937,-1.656 -0.438,-0.352 -1.039,-0.531 -1.797,-0.531 -0.824,0 -1.375,0.187 -1.656,0.562 -0.168,0.227 -0.25,0.551 -0.25,0.969 0,0.258 0.035,0.562 0.109,0.906 l 1.016,5.266 z" /><path
         id="path218"
         style="fill:#000000;fill-opacity:1;fill-rule:nonzero;stroke:none"
         d="m 64.086,128.813 -0.313,-1.532 -0.875,-0.203 c 0.032,0.469 -0.121,0.821 -0.453,1.063 -0.324,0.226 -0.73,0.344 -1.218,0.344 -0.493,0 -0.946,-0.125 -1.36,-0.375 -0.418,-0.262 -0.656,-0.571 -0.719,-0.922 -0.093,-0.461 0.051,-0.825 0.438,-1.094 0.394,-0.274 0.937,-0.406 1.625,-0.406 l 0.375,0 -0.156,-0.813 -0.719,0 c -0.699,0 -1.309,-0.168 -1.828,-0.5 -0.524,-0.344 -0.84,-0.797 -0.953,-1.359 -0.086,-0.438 0.066,-0.824 0.453,-1.156 0.375,-0.336 0.851,-0.5 1.437,-0.5 0.602,0 1.149,0.132 1.641,0.406 0.488,0.281 0.812,0.687 0.969,1.219 l 0.812,-0.188 -0.312,-1.609 c -0.594,-0.2 -1.184,-0.344 -1.766,-0.438 -0.574,-0.094 -1.059,-0.14 -1.453,-0.14 -1.031,0 -1.859,0.21 -2.484,0.625 -0.625,0.414 -0.86,1.015 -0.704,1.796 0.157,0.813 0.524,1.422 1.11,1.829 0.301,0.195 0.847,0.347 1.64,0.453 l -1.093,0.625 c -0.387,0.218 -0.516,0.656 -0.391,1.312 0.133,0.676 0.488,1.192 1.063,1.547 0.582,0.344 1.382,0.516 2.406,0.516 0.281,0 0.68,-0.043 1.203,-0.125 0.531,-0.086 1.07,-0.211 1.625,-0.375 z" /><path
         id="path220"
         style="fill:#000000;fill-opacity:1;fill-rule:nonzero;stroke:none"
         d="m 67.867,118.067 c 0.5,0 0.875,0.269 1.125,0.812 0.25,0.551 0.375,1.379 0.375,2.484 0,1.102 -0.125,1.926 -0.375,2.469 -0.25,0.551 -0.625,0.828 -1.125,0.828 -0.492,0 -0.859,-0.277 -1.109,-0.828 -0.25,-0.543 -0.375,-1.367 -0.375,-2.469 0,-1.105 0.125,-1.933 0.375,-2.484 0.25,-0.543 0.617,-0.812 1.109,-0.812 z m 0,-0.485 c -0.781,0 -1.398,0.328 -1.844,0.985 -0.449,0.664 -0.671,1.597 -0.671,2.796 0,1.196 0.222,2.125 0.671,2.782 0.446,0.664 1.063,1 1.844,1 0.801,0 1.422,-0.336 1.86,-1 0.445,-0.657 0.671,-1.586 0.671,-2.782 0,-1.199 -0.226,-2.132 -0.671,-2.796 -0.438,-0.657 -1.059,-0.985 -1.86,-0.985 z" /></g></g></svg>