<?xml version="1.0" encoding="UTF-8" standalone="no"?>
<svg
   xmlns:dc="http://purl.org/dc/elements/1.1/"
   xmlns:cc="http://creativecommons.org/ns#"
   xmlns:rdf="http://www.w3.org/1999/02/22-rdf-syntax-ns#"
   xmlns:svg="http://www.w3.org/2000/svg"
   xmlns="http://www.w3.org/2000/svg"
   viewBox="0 0 456.57001 328.23199"
   height="328.23199"
   width="456.57001"
   xml:space="preserve"
   version="1.1"
   id="svg2"><metadata
     id="metadata8"><rdf:RDF><cc:Work
         rdf:about=""><dc:format>image/svg+xml</dc:format><dc:type
           rdf:resource="http://purl.org/dc/dcmitype/StillImage" /></cc:Work></rdf:RDF></metadata><defs
     id="defs6" /><g
     transform="matrix(1.25,0,0,-1.25,0,328.232)"
     id="g10"><g
       id="g12"><g
         transform="matrix(1,0,0,-1,0,262.5856)"
         id="g14"><path
           id="path16"
           style="fill:#008080;fill-opacity:1;fill-rule:nonzero;stroke:#000000;stroke-width:0.71200001;stroke-linecap:butt;stroke-linejoin:miter;stroke-miterlimit:4;stroke-dasharray:none;stroke-opacity:1"
           d="m 133.277,17.09 70.219,0 c 1.063,0 1.914,0.851 1.914,1.914 l 0,24.648 c 0,1.063 -0.851,1.914 -1.914,1.914 l -70.219,0 c -1.058,0 -1.914,-0.851 -1.914,-1.914 l 0,-24.648 c 0,-1.063 0.856,-1.914 1.914,-1.914 z" /></g><path
         id="path18"
         style="fill:#000000;fill-opacity:1;fill-rule:nonzero;stroke:none"
         d="m 152.676,230.359 c 0,-0.25 -0.047,-0.48 -0.141,-0.687 -0.094,-0.211 -0.242,-0.387 -0.437,-0.532 -0.188,-0.148 -0.434,-0.261 -0.735,-0.343 -0.293,-0.071 -0.64,-0.11 -1.047,-0.11 -0.367,0 -0.687,0.031 -0.968,0.094 -0.282,0.07 -0.524,0.172 -0.719,0.297 -0.199,0.125 -0.359,0.281 -0.484,0.469 -0.125,0.187 -0.215,0.406 -0.266,0.656 l 1.109,0.187 c 0.032,-0.125 0.078,-0.242 0.141,-0.343 0.062,-0.106 0.144,-0.196 0.25,-0.266 0.101,-0.074 0.234,-0.133 0.391,-0.172 0.156,-0.043 0.347,-0.062 0.578,-0.062 0.382,0 0.679,0.054 0.89,0.171 0.207,0.125 0.313,0.313 0.313,0.563 0,0.156 -0.043,0.281 -0.125,0.375 -0.086,0.094 -0.199,0.172 -0.344,0.234 -0.137,0.063 -0.293,0.114 -0.469,0.157 -0.179,0.039 -0.367,0.082 -0.562,0.125 -0.156,0.039 -0.313,0.078 -0.469,0.109 -0.156,0.039 -0.309,0.086 -0.453,0.141 -0.137,0.062 -0.266,0.128 -0.391,0.203 -0.125,0.07 -0.234,0.16 -0.328,0.265 -0.086,0.114 -0.152,0.242 -0.203,0.391 -0.055,0.156 -0.078,0.332 -0.078,0.531 0,0.27 0.051,0.504 0.156,0.703 0.113,0.196 0.27,0.36 0.469,0.485 0.195,0.125 0.426,0.211 0.687,0.265 0.27,0.063 0.567,0.094 0.891,0.094 0.352,0 0.656,-0.031 0.906,-0.094 0.258,-0.054 0.477,-0.136 0.657,-0.25 0.175,-0.117 0.312,-0.261 0.406,-0.437 0.101,-0.168 0.176,-0.371 0.219,-0.61 l -1.11,-0.14 c -0.062,0.226 -0.183,0.398 -0.359,0.515 -0.168,0.125 -0.418,0.188 -0.75,0.188 -0.199,0 -0.367,-0.016 -0.5,-0.047 -0.137,-0.031 -0.246,-0.078 -0.328,-0.141 -0.075,-0.062 -0.133,-0.136 -0.172,-0.218 -0.031,-0.075 -0.047,-0.157 -0.047,-0.25 0,-0.137 0.031,-0.246 0.094,-0.328 0.07,-0.086 0.164,-0.157 0.281,-0.219 0.113,-0.063 0.25,-0.117 0.406,-0.156 0.164,-0.032 0.348,-0.071 0.547,-0.11 0.176,-0.043 0.348,-0.086 0.516,-0.125 0.164,-0.043 0.328,-0.09 0.484,-0.14 0.156,-0.055 0.297,-0.122 0.422,-0.204 0.133,-0.074 0.25,-0.168 0.344,-0.281 0.101,-0.117 0.179,-0.25 0.234,-0.406 0.063,-0.156 0.094,-0.34 0.094,-0.547 z" /><path
         id="path20"
         style="fill:#000000;fill-opacity:1;fill-rule:nonzero;stroke:none"
         d="m 153.535,233.75 0,0.812 1.094,0 0,-0.812 -1.094,0 z m 0,-4.985 0,4.235 1.094,0 0,-4.235 -1.094,0 z" /><path
         id="path22"
         style="fill:#000000;fill-opacity:1;fill-rule:nonzero;stroke:none"
         d="m 158.23,228.765 0,2.375 c 0,0.164 -0.011,0.317 -0.031,0.453 -0.023,0.133 -0.058,0.25 -0.109,0.344 -0.055,0.102 -0.121,0.18 -0.203,0.235 -0.086,0.05 -0.184,0.078 -0.297,0.078 -0.117,0 -0.219,-0.032 -0.313,-0.094 -0.086,-0.055 -0.164,-0.137 -0.234,-0.25 -0.063,-0.106 -0.117,-0.234 -0.156,-0.391 -0.032,-0.148 -0.047,-0.308 -0.047,-0.484 l 0,-2.266 -1.094,0 0,3.282 c 0,0.093 0,0.187 0,0.281 0,0.094 -0.008,0.179 -0.016,0.265 0,0.094 -0.007,0.172 -0.015,0.235 0,0.07 0,0.129 0,0.172 l 1.047,0 c 0,-0.032 0,-0.086 0,-0.157 0.008,-0.074 0.015,-0.152 0.015,-0.234 0.008,-0.086 0.016,-0.168 0.016,-0.25 0.008,-0.086 0.016,-0.152 0.016,-0.203 l 0.015,0 c 0.133,0.32 0.301,0.555 0.5,0.703 0.207,0.145 0.453,0.219 0.735,0.219 0.32,0 0.582,-0.078 0.781,-0.235 0.195,-0.156 0.328,-0.386 0.39,-0.687 l 0.032,0 c 0.07,0.176 0.148,0.32 0.234,0.437 0.094,0.114 0.192,0.207 0.297,0.282 0.102,0.07 0.219,0.125 0.344,0.156 0.125,0.031 0.258,0.047 0.406,0.047 0.227,0 0.422,-0.043 0.578,-0.125 0.164,-0.086 0.297,-0.199 0.391,-0.344 0.101,-0.148 0.176,-0.32 0.218,-0.516 0.051,-0.199 0.079,-0.414 0.079,-0.64 l 0,-2.688 -1.094,0 0,2.375 c 0,0.164 -0.012,0.317 -0.031,0.453 -0.024,0.133 -0.059,0.25 -0.11,0.344 -0.054,0.102 -0.121,0.18 -0.203,0.235 -0.086,0.05 -0.183,0.078 -0.297,0.078 -0.117,0 -0.219,-0.032 -0.312,-0.094 -0.086,-0.055 -0.164,-0.133 -0.235,-0.234 -0.062,-0.094 -0.117,-0.215 -0.156,-0.36 -0.031,-0.148 -0.047,-0.308 -0.047,-0.484 l 0,-2.313 -1.094,0 z" /><path
         id="path24"
         style="fill:#000000;fill-opacity:1;fill-rule:nonzero;stroke:none"
         d="m 163.863,233 0,-2.375 c 0,-0.168 0.008,-0.321 0.032,-0.453 0.031,-0.137 0.078,-0.258 0.14,-0.36 0.063,-0.094 0.141,-0.168 0.235,-0.219 0.093,-0.054 0.207,-0.078 0.343,-0.078 0.133,0 0.254,0.024 0.36,0.078 0.113,0.063 0.207,0.145 0.281,0.25 0.082,0.114 0.144,0.243 0.187,0.391 0.039,0.145 0.063,0.313 0.063,0.5 l 0,2.266 1.094,0 0,-3.282 c 0,-0.093 0,-0.195 0,-0.296 0,-0.094 0,-0.184 0,-0.266 0.007,-0.086 0.015,-0.164 0.015,-0.234 0.008,-0.075 0.016,-0.125 0.016,-0.157 l -1.047,0 c 0,0.032 -0.008,0.078 -0.016,0.141 0,0.07 -0.007,0.148 -0.015,0.234 0,0.082 -0.008,0.164 -0.016,0.25 0,0.082 0,0.157 0,0.219 l -0.015,0 c -0.149,-0.324 -0.336,-0.559 -0.563,-0.703 -0.219,-0.145 -0.484,-0.219 -0.797,-0.219 -0.25,0 -0.465,0.043 -0.64,0.125 -0.18,0.082 -0.325,0.195 -0.438,0.344 -0.117,0.144 -0.199,0.316 -0.25,0.516 -0.043,0.195 -0.062,0.41 -0.062,0.64 l 0,2.688 1.093,0 z" /><path
         id="path26"
         style="fill:#000000;fill-opacity:1;fill-rule:nonzero;stroke:none"
         d="m 167.707,234.562 1.094,0 0,-5.797 -1.094,0 0,5.797 z" /><path
         id="path28"
         style="fill:#000000;fill-opacity:1;fill-rule:nonzero;stroke:none"
         d="m 170.887,228.687 c -0.199,0 -0.383,0.028 -0.547,0.078 -0.156,0.063 -0.293,0.145 -0.406,0.25 -0.106,0.114 -0.188,0.25 -0.25,0.407 -0.063,0.156 -0.094,0.335 -0.094,0.546 0,0.25 0.039,0.457 0.125,0.625 0.094,0.164 0.211,0.301 0.359,0.407 0.156,0.113 0.332,0.191 0.531,0.234 0.207,0.051 0.426,0.078 0.657,0.078 l 0.906,0.016 0,0.219 c 0,0.156 -0.016,0.281 -0.047,0.375 -0.023,0.101 -0.059,0.187 -0.109,0.25 -0.055,0.07 -0.121,0.117 -0.203,0.14 -0.075,0.031 -0.157,0.047 -0.25,0.047 -0.094,0 -0.18,-0.012 -0.25,-0.031 -0.075,-0.012 -0.137,-0.043 -0.188,-0.094 -0.055,-0.043 -0.094,-0.105 -0.125,-0.187 -0.031,-0.075 -0.055,-0.168 -0.062,-0.282 l -1.157,0.047 c 0.032,0.188 0.086,0.352 0.172,0.5 0.082,0.156 0.196,0.289 0.344,0.406 0.156,0.114 0.336,0.204 0.547,0.266 0.219,0.063 0.472,0.094 0.765,0.094 0.258,0 0.489,-0.039 0.688,-0.11 0.207,-0.062 0.383,-0.164 0.531,-0.296 0.145,-0.125 0.254,-0.282 0.328,-0.469 0.071,-0.188 0.11,-0.403 0.11,-0.641 l 0,-1.547 c 0,-0.093 0.004,-0.183 0.015,-0.265 0.008,-0.075 0.024,-0.141 0.047,-0.203 0.031,-0.055 0.067,-0.094 0.11,-0.125 0.05,-0.024 0.113,-0.032 0.187,-0.032 0.082,0 0.16,0.008 0.234,0.032 l 0,-0.594 c -0.062,-0.024 -0.121,-0.043 -0.171,-0.063 -0.055,-0.008 -0.106,-0.015 -0.157,-0.015 -0.054,-0.008 -0.109,-0.016 -0.172,-0.016 -0.054,-0.008 -0.121,-0.016 -0.203,-0.016 -0.273,0 -0.476,0.067 -0.609,0.204 -0.137,0.132 -0.215,0.332 -0.234,0.593 l -0.032,0 c -0.148,-0.261 -0.336,-0.465 -0.562,-0.609 -0.219,-0.145 -0.496,-0.219 -0.828,-0.219 z m 1.281,2.031 -0.563,0 c -0.117,-0.011 -0.226,-0.023 -0.328,-0.031 -0.105,-0.012 -0.199,-0.043 -0.281,-0.094 -0.086,-0.043 -0.152,-0.109 -0.203,-0.203 -0.043,-0.086 -0.063,-0.199 -0.063,-0.343 0,-0.2 0.047,-0.352 0.141,-0.454 0.094,-0.093 0.219,-0.14 0.375,-0.14 0.133,0 0.258,0.031 0.375,0.094 0.113,0.062 0.211,0.14 0.297,0.234 0.082,0.094 0.144,0.203 0.187,0.328 0.04,0.133 0.063,0.27 0.063,0.406 l 0,0.203 z" /><path
         id="path30"
         style="fill:#000000;fill-opacity:1;fill-rule:nonzero;stroke:none"
         d="m 175.434,228.687 c -0.325,0 -0.575,0.086 -0.75,0.266 -0.168,0.176 -0.25,0.445 -0.25,0.812 l 0,2.485 -0.547,0 0,0.75 0.593,0 0.344,0.984 0.688,0 0,-0.984 0.797,0 0,-0.75 -0.797,0 0,-2.188 c 0,-0.211 0.035,-0.367 0.109,-0.469 0.082,-0.093 0.207,-0.14 0.375,-0.14 0.063,0 0.117,0.004 0.172,0.015 0.062,0.008 0.125,0.024 0.187,0.047 l 0,-0.687 c -0.136,-0.043 -0.281,-0.071 -0.437,-0.094 -0.148,-0.031 -0.309,-0.047 -0.484,-0.047 z" /><path
         id="path32"
         style="fill:#000000;fill-opacity:1;fill-rule:nonzero;stroke:none"
         d="m 177.02,233.75 0,0.812 1.093,0 0,-0.812 -1.093,0 z m 0,-4.985 0,4.235 1.093,0 0,-4.235 -1.093,0 z" /><path
         id="path34"
         style="fill:#000000;fill-opacity:1;fill-rule:nonzero;stroke:none"
         d="m 183.246,230.89 c 0,-0.324 -0.047,-0.621 -0.141,-0.89 -0.085,-0.274 -0.218,-0.508 -0.406,-0.703 -0.179,-0.188 -0.402,-0.34 -0.672,-0.454 -0.261,-0.101 -0.574,-0.156 -0.937,-0.156 -0.344,0 -0.649,0.055 -0.906,0.156 -0.262,0.114 -0.481,0.266 -0.657,0.454 -0.179,0.195 -0.312,0.425 -0.406,0.687 -0.094,0.27 -0.141,0.57 -0.141,0.906 0,0.313 0.04,0.598 0.125,0.86 0.094,0.269 0.227,0.504 0.407,0.703 0.176,0.195 0.394,0.347 0.656,0.453 0.27,0.113 0.586,0.172 0.953,0.172 0.375,0 0.695,-0.059 0.969,-0.172 0.269,-0.106 0.488,-0.258 0.656,-0.453 0.176,-0.199 0.301,-0.434 0.375,-0.703 0.082,-0.262 0.125,-0.547 0.125,-0.86 z m -1.156,0 c 0,0.5 -0.086,0.86 -0.25,1.078 -0.156,0.227 -0.391,0.344 -0.703,0.344 -0.325,0 -0.575,-0.117 -0.75,-0.344 -0.168,-0.23 -0.25,-0.589 -0.25,-1.078 0,-0.261 0.019,-0.484 0.062,-0.672 0.051,-0.179 0.117,-0.324 0.203,-0.437 0.082,-0.117 0.18,-0.203 0.297,-0.266 0.113,-0.054 0.242,-0.078 0.391,-0.078 0.156,0 0.297,0.024 0.422,0.078 0.125,0.063 0.226,0.149 0.312,0.266 0.094,0.113 0.16,0.258 0.203,0.437 0.039,0.188 0.063,0.411 0.063,0.672 z" /><path
         id="path36"
         style="fill:#000000;fill-opacity:1;fill-rule:nonzero;stroke:none"
         d="m 186.84,228.765 0,2.375 c 0,0.164 -0.016,0.317 -0.047,0.453 -0.023,0.133 -0.063,0.25 -0.125,0.344 -0.055,0.102 -0.133,0.18 -0.234,0.235 -0.094,0.05 -0.211,0.078 -0.344,0.078 -0.137,0 -0.262,-0.032 -0.375,-0.094 -0.106,-0.055 -0.199,-0.137 -0.281,-0.25 -0.075,-0.106 -0.133,-0.234 -0.172,-0.391 -0.043,-0.148 -0.063,-0.308 -0.063,-0.484 l 0,-2.266 -1.094,0 0,3.282 c 0,0.093 0,0.187 0,0.281 0,0.094 -0.007,0.179 -0.015,0.265 0,0.094 -0.008,0.172 -0.016,0.235 0,0.07 0,0.129 0,0.172 l 1.047,0 c 0,-0.032 0,-0.086 0,-0.157 0.008,-0.074 0.016,-0.152 0.016,-0.234 0.008,-0.086 0.015,-0.168 0.015,-0.25 0.008,-0.086 0.016,-0.152 0.016,-0.203 l 0.016,0 c 0.144,0.32 0.328,0.555 0.546,0.703 0.227,0.145 0.5,0.219 0.813,0.219 0.258,0 0.473,-0.043 0.641,-0.125 0.175,-0.086 0.32,-0.199 0.437,-0.344 0.113,-0.148 0.191,-0.32 0.234,-0.516 0.051,-0.199 0.079,-0.414 0.079,-0.64 l 0,-2.688 -1.094,0 z" /><g
         transform="matrix(1,0,0,-1,0,262.5856)"
         id="g38"><path
           id="path40"
           style="fill:#008080;fill-opacity:1;fill-rule:nonzero;stroke:#000000;stroke-width:0.71200001;stroke-linecap:butt;stroke-linejoin:miter;stroke-miterlimit:4;stroke-dasharray:none;stroke-opacity:1"
           d="m 2.27,153.793 70.218,0 c 1.063,0 1.914,0.852 1.914,1.914 l 0,24.648 c 0,1.063 -0.851,1.918 -1.914,1.918 l -70.218,0 c -1.059,0 -1.915,-0.855 -1.915,-1.918 l 0,-24.648 c 0,-1.062 0.856,-1.914 1.915,-1.914 z" /></g><path
         id="path42"
         style="fill:#000000;fill-opacity:1;fill-rule:nonzero;stroke:none"
         d="m 17.211,101.511 0,-1.703 2.812,0 0,-0.89 -2.812,0 0,-2.016 -1.156,0 0,5.5 4.062,0 0,-0.891 -2.906,0 z" /><path
         id="path44"
         style="fill:#000000;fill-opacity:1;fill-rule:nonzero;stroke:none"
         d="m 21.93,96.824 c -0.2,0 -0.383,0.027 -0.547,0.078 -0.156,0.063 -0.293,0.145 -0.406,0.25 -0.106,0.113 -0.188,0.25 -0.25,0.406 -0.063,0.157 -0.094,0.336 -0.094,0.547 0,0.25 0.039,0.457 0.125,0.625 0.094,0.164 0.211,0.301 0.359,0.406 0.156,0.114 0.332,0.192 0.531,0.235 0.207,0.051 0.426,0.078 0.657,0.078 l 0.906,0.016 0,0.218 c 0,0.157 -0.016,0.282 -0.047,0.375 -0.023,0.102 -0.059,0.188 -0.109,0.25 -0.055,0.071 -0.121,0.117 -0.203,0.141 -0.075,0.031 -0.157,0.047 -0.25,0.047 -0.094,0 -0.18,-0.012 -0.25,-0.031 -0.075,-0.012 -0.137,-0.043 -0.188,-0.094 -0.055,-0.043 -0.094,-0.106 -0.125,-0.188 -0.031,-0.074 -0.055,-0.168 -0.062,-0.281 l -1.157,0.047 c 0.032,0.187 0.086,0.351 0.172,0.5 0.082,0.156 0.196,0.289 0.344,0.406 0.156,0.113 0.336,0.203 0.547,0.266 0.219,0.062 0.472,0.094 0.765,0.094 0.258,0 0.489,-0.04 0.688,-0.11 0.207,-0.062 0.383,-0.164 0.531,-0.297 0.145,-0.125 0.254,-0.281 0.328,-0.468 0.071,-0.188 0.11,-0.403 0.11,-0.641 l 0,-1.547 c 0,-0.094 0.004,-0.184 0.015,-0.266 0.008,-0.074 0.024,-0.14 0.047,-0.203 0.031,-0.054 0.067,-0.093 0.11,-0.125 0.05,-0.023 0.113,-0.031 0.187,-0.031 0.082,0 0.16,0.008 0.234,0.031 l 0,-0.593 c -0.062,-0.024 -0.121,-0.043 -0.171,-0.063 -0.055,-0.008 -0.106,-0.016 -0.157,-0.016 -0.054,-0.007 -0.109,-0.015 -0.172,-0.015 -0.054,-0.008 -0.121,-0.016 -0.203,-0.016 -0.273,0 -0.476,0.067 -0.609,0.203 -0.137,0.133 -0.215,0.332 -0.234,0.594 l -0.032,0 C 23.172,97.39 22.984,97.187 22.758,97.043 22.539,96.898 22.262,96.824 21.93,96.824 Z m 1.281,2.031 -0.563,0 c -0.117,-0.012 -0.226,-0.023 -0.328,-0.031 -0.105,-0.012 -0.199,-0.043 -0.281,-0.094 -0.086,-0.043 -0.152,-0.109 -0.203,-0.203 -0.043,-0.086 -0.063,-0.199 -0.063,-0.344 0,-0.199 0.047,-0.351 0.141,-0.453 0.094,-0.094 0.219,-0.14 0.375,-0.14 0.133,0 0.258,0.031 0.375,0.093 0.113,0.063 0.211,0.141 0.297,0.235 0.082,0.093 0.144,0.203 0.187,0.328 0.04,0.133 0.063,0.269 0.063,0.406 l 0,0.203 z" /><path
         id="path46"
         style="fill:#000000;fill-opacity:1;fill-rule:nonzero;stroke:none"
         d="m 29.398,99.027 c 0,-0.312 -0.031,-0.605 -0.093,-0.875 -0.063,-0.273 -0.164,-0.508 -0.297,-0.703 -0.137,-0.199 -0.309,-0.356 -0.516,-0.469 -0.199,-0.101 -0.437,-0.156 -0.719,-0.156 -0.125,0 -0.25,0.016 -0.375,0.047 -0.125,0.023 -0.246,0.062 -0.359,0.125 -0.105,0.062 -0.203,0.14 -0.297,0.234 -0.094,0.094 -0.18,0.211 -0.25,0.36 0,-0.063 -0.008,-0.133 -0.015,-0.204 0,-0.062 -0.008,-0.132 -0.016,-0.203 0,-0.062 -0.008,-0.121 -0.016,-0.172 0,-0.054 -0.007,-0.089 -0.015,-0.109 l -1.063,0 c 0.008,0.094 0.016,0.223 0.016,0.391 0.008,0.164 0.015,0.359 0.015,0.578 l 0,4.828 1.094,0 0,-1.609 c 0,-0.086 0,-0.168 0,-0.25 0,-0.086 0,-0.157 0,-0.219 -0.012,-0.086 -0.015,-0.156 -0.015,-0.219 l 0.015,0 c 0.133,0.289 0.317,0.5 0.547,0.625 0.227,0.125 0.5,0.188 0.813,0.188 0.269,0 0.5,-0.059 0.687,-0.172 0.195,-0.106 0.359,-0.258 0.484,-0.453 0.125,-0.188 0.219,-0.418 0.282,-0.688 0.062,-0.262 0.093,-0.555 0.093,-0.875 z m -1.14,0 c 0,0.477 -0.074,0.832 -0.219,1.063 -0.137,0.238 -0.355,0.359 -0.656,0.359 -0.106,0 -0.215,-0.027 -0.328,-0.078 -0.106,-0.043 -0.203,-0.121 -0.297,-0.235 -0.086,-0.105 -0.153,-0.25 -0.203,-0.437 -0.055,-0.188 -0.078,-0.422 -0.078,-0.703 0,-0.274 0.023,-0.5 0.078,-0.688 0.05,-0.179 0.117,-0.324 0.203,-0.437 0.082,-0.106 0.176,-0.184 0.281,-0.235 0.113,-0.043 0.227,-0.062 0.344,-0.062 0.281,0 0.492,0.113 0.64,0.344 0.157,0.226 0.235,0.597 0.235,1.109 z" /><path
         id="path48"
         style="fill:#000000;fill-opacity:1;fill-rule:nonzero;stroke:none"
         d="m 30.273,96.902 0,3.234 c 0,0.094 0,0.188 0,0.282 0,0.101 -0.007,0.203 -0.015,0.297 0,0.093 -0.008,0.175 -0.016,0.25 0,0.07 0,0.128 0,0.171 l 1.047,0 c 0,-0.031 0,-0.089 0,-0.171 0.008,-0.075 0.016,-0.157 0.016,-0.25 0.007,-0.094 0.015,-0.188 0.015,-0.282 0.008,-0.086 0.016,-0.152 0.016,-0.203 l 0.016,0 c 0.05,0.156 0.101,0.289 0.156,0.406 0.062,0.125 0.129,0.227 0.203,0.313 0.07,0.082 0.16,0.144 0.266,0.187 0.101,0.051 0.234,0.079 0.39,0.079 0.063,0 0.125,-0.008 0.188,-0.016 0.062,-0.012 0.113,-0.027 0.156,-0.047 l 0,-0.922 c -0.074,0.02 -0.149,0.035 -0.219,0.047 -0.074,0.008 -0.156,0.016 -0.25,0.016 -0.281,0 -0.5,-0.11 -0.656,-0.328 -0.148,-0.219 -0.219,-0.547 -0.219,-0.985 l 0,-2.078 -1.094,0 z" /><path
         id="path50"
         style="fill:#000000;fill-opacity:1;fill-rule:nonzero;stroke:none"
         d="m 33.375,101.886 0,0.813 1.094,0 0,-0.813 -1.094,0 z m 0,-4.984 0,4.234 1.094,0 0,-4.234 -1.094,0 z" /><path
         id="path52"
         style="fill:#000000;fill-opacity:1;fill-rule:nonzero;stroke:none"
         d="m 37.352,96.824 c -0.344,0 -0.641,0.055 -0.891,0.156 -0.25,0.102 -0.461,0.25 -0.625,0.438 -0.168,0.195 -0.293,0.425 -0.375,0.687 -0.086,0.27 -0.125,0.567 -0.125,0.891 0,0.351 0.047,0.664 0.141,0.937 0.093,0.27 0.222,0.5 0.39,0.688 0.176,0.195 0.391,0.344 0.641,0.437 0.25,0.102 0.535,0.157 0.859,0.157 0.27,0 0.508,-0.04 0.719,-0.11 0.219,-0.074 0.398,-0.18 0.547,-0.312 0.156,-0.125 0.281,-0.278 0.375,-0.453 0.094,-0.168 0.16,-0.352 0.203,-0.547 l -1.109,-0.047 c -0.032,0.219 -0.11,0.39 -0.235,0.515 -0.125,0.125 -0.305,0.188 -0.531,0.188 -0.293,0 -0.508,-0.121 -0.641,-0.359 -0.136,-0.243 -0.203,-0.59 -0.203,-1.047 0,-0.981 0.285,-1.469 0.86,-1.469 0.207,0 0.378,0.062 0.515,0.187 0.145,0.133 0.235,0.332 0.266,0.594 l 1.109,-0.047 C 39.211,98.109 39.148,97.922 39.055,97.746 38.969,97.566 38.844,97.41 38.68,97.277 38.523,97.14 38.328,97.031 38.102,96.949 37.883,96.867 37.633,96.824 37.352,96.824 Z" /><path
         id="path54"
         style="fill:#000000;fill-opacity:1;fill-rule:nonzero;stroke:none"
         d="m 40.992,96.824 c -0.199,0 -0.383,0.027 -0.547,0.078 -0.156,0.063 -0.293,0.145 -0.406,0.25 -0.105,0.113 -0.187,0.25 -0.25,0.406 -0.062,0.157 -0.094,0.336 -0.094,0.547 0,0.25 0.039,0.457 0.125,0.625 0.094,0.164 0.211,0.301 0.36,0.406 0.156,0.114 0.332,0.192 0.531,0.235 0.207,0.051 0.426,0.078 0.656,0.078 l 0.906,0.016 0,0.218 c 0,0.157 -0.015,0.282 -0.046,0.375 -0.024,0.102 -0.059,0.188 -0.11,0.25 -0.055,0.071 -0.121,0.117 -0.203,0.141 -0.074,0.031 -0.156,0.047 -0.25,0.047 -0.094,0 -0.18,-0.012 -0.25,-0.031 -0.074,-0.012 -0.137,-0.043 -0.187,-0.094 -0.055,-0.043 -0.094,-0.106 -0.125,-0.188 -0.032,-0.074 -0.055,-0.168 -0.063,-0.281 l -1.156,0.047 c 0.031,0.187 0.086,0.351 0.172,0.5 0.082,0.156 0.195,0.289 0.343,0.406 0.157,0.113 0.336,0.203 0.547,0.266 0.219,0.062 0.473,0.094 0.766,0.094 0.258,0 0.488,-0.04 0.687,-0.11 0.207,-0.062 0.383,-0.164 0.532,-0.297 0.144,-0.125 0.254,-0.281 0.328,-0.468 0.07,-0.188 0.109,-0.403 0.109,-0.641 l 0,-1.547 c 0,-0.094 0.004,-0.184 0.016,-0.266 0.008,-0.074 0.023,-0.14 0.047,-0.203 0.031,-0.054 0.066,-0.093 0.109,-0.125 0.051,-0.023 0.113,-0.031 0.188,-0.031 0.082,0 0.16,0.008 0.234,0.031 l 0,-0.593 c -0.063,-0.024 -0.121,-0.043 -0.172,-0.063 -0.055,-0.008 -0.105,-0.016 -0.156,-0.016 -0.055,-0.007 -0.11,-0.015 -0.172,-0.015 -0.055,-0.008 -0.121,-0.016 -0.203,-0.016 -0.274,0 -0.477,0.067 -0.61,0.203 -0.136,0.133 -0.214,0.332 -0.234,0.594 l -0.031,0 C 42.234,97.39 42.047,97.187 41.82,97.043 41.602,96.898 41.324,96.824 40.992,96.824 Z m 1.281,2.031 -0.562,0 c -0.117,-0.012 -0.227,-0.023 -0.328,-0.031 -0.106,-0.012 -0.199,-0.043 -0.281,-0.094 -0.086,-0.043 -0.153,-0.109 -0.204,-0.203 -0.043,-0.086 -0.062,-0.199 -0.062,-0.344 0,-0.199 0.047,-0.351 0.141,-0.453 0.093,-0.094 0.218,-0.14 0.375,-0.14 0.132,0 0.257,0.031 0.375,0.093 0.113,0.063 0.211,0.141 0.296,0.235 0.082,0.093 0.145,0.203 0.188,0.328 0.039,0.133 0.062,0.269 0.062,0.406 l 0,0.203 z" /><path
         id="path56"
         style="fill:#000000;fill-opacity:1;fill-rule:nonzero;stroke:none"
         d="m 45.539,96.824 c -0.324,0 -0.574,0.086 -0.75,0.266 -0.168,0.175 -0.25,0.445 -0.25,0.812 l 0,2.484 -0.547,0 0,0.75 0.594,0 0.344,0.985 0.687,0 0,-0.985 0.797,0 0,-0.75 -0.797,0 0,-2.187 c 0,-0.211 0.035,-0.367 0.11,-0.469 0.082,-0.094 0.207,-0.14 0.375,-0.14 0.062,0 0.117,0.003 0.171,0.015 0.063,0.008 0.125,0.024 0.188,0.047 l 0,-0.687 C 46.324,96.922 46.18,96.894 46.023,96.871 45.875,96.84 45.715,96.824 45.539,96.824 Z" /><path
         id="path58"
         style="fill:#000000;fill-opacity:1;fill-rule:nonzero;stroke:none"
         d="m 47.125,101.886 0,0.813 1.094,0 0,-0.813 -1.094,0 z m 0,-4.984 0,4.234 1.094,0 0,-4.234 -1.094,0 z" /><path
         id="path60"
         style="fill:#000000;fill-opacity:1;fill-rule:nonzero;stroke:none"
         d="m 53.352,99.027 c 0,-0.324 -0.047,-0.621 -0.141,-0.891 -0.086,-0.273 -0.219,-0.507 -0.406,-0.703 -0.18,-0.187 -0.403,-0.34 -0.672,-0.453 -0.262,-0.101 -0.574,-0.156 -0.938,-0.156 -0.343,0 -0.648,0.055 -0.906,0.156 -0.262,0.113 -0.48,0.266 -0.656,0.453 -0.18,0.196 -0.313,0.426 -0.406,0.688 -0.094,0.269 -0.141,0.57 -0.141,0.906 0,0.313 0.039,0.598 0.125,0.859 0.094,0.27 0.227,0.504 0.406,0.704 0.176,0.195 0.395,0.347 0.656,0.453 0.27,0.113 0.586,0.172 0.954,0.172 0.375,0 0.695,-0.059 0.968,-0.172 0.27,-0.106 0.489,-0.258 0.657,-0.453 0.175,-0.2 0.3,-0.434 0.375,-0.704 0.082,-0.261 0.125,-0.546 0.125,-0.859 z m -1.157,0 c 0,0.5 -0.086,0.859 -0.25,1.078 -0.156,0.227 -0.39,0.344 -0.703,0.344 -0.324,0 -0.574,-0.117 -0.75,-0.344 -0.168,-0.23 -0.25,-0.59 -0.25,-1.078 0,-0.262 0.02,-0.484 0.063,-0.672 0.05,-0.18 0.117,-0.324 0.203,-0.437 0.082,-0.118 0.18,-0.203 0.297,-0.266 0.113,-0.055 0.242,-0.078 0.39,-0.078 0.157,0 0.297,0.023 0.422,0.078 0.125,0.063 0.227,0.148 0.313,0.266 0.093,0.113 0.16,0.257 0.203,0.437 0.039,0.188 0.062,0.41 0.062,0.672 z" /><path
         id="path62"
         style="fill:#000000;fill-opacity:1;fill-rule:nonzero;stroke:none"
         d="m 56.945,96.902 0,2.375 c 0,0.164 -0.015,0.316 -0.047,0.453 -0.023,0.133 -0.062,0.25 -0.125,0.344 -0.054,0.101 -0.132,0.18 -0.234,0.234 -0.094,0.051 -0.211,0.078 -0.344,0.078 -0.136,0 -0.261,-0.031 -0.375,-0.093 -0.105,-0.055 -0.199,-0.137 -0.281,-0.25 -0.074,-0.106 -0.133,-0.235 -0.172,-0.391 -0.043,-0.148 -0.062,-0.309 -0.062,-0.484 l 0,-2.266 -1.094,0 0,3.281 c 0,0.094 0,0.188 0,0.282 0,0.093 -0.008,0.179 -0.016,0.265 0,0.094 -0.007,0.172 -0.015,0.235 0,0.07 0,0.128 0,0.171 l 1.047,0 c 0,-0.031 0,-0.086 0,-0.156 0.007,-0.074 0.015,-0.152 0.015,-0.234 0.008,-0.086 0.016,-0.168 0.016,-0.25 0.008,-0.086 0.015,-0.153 0.015,-0.203 l 0.016,0 c 0.145,0.32 0.328,0.554 0.547,0.703 0.226,0.144 0.5,0.219 0.812,0.219 0.258,0 0.473,-0.043 0.641,-0.125 0.176,-0.086 0.32,-0.2 0.438,-0.344 0.113,-0.149 0.191,-0.321 0.234,-0.516 0.051,-0.199 0.078,-0.414 0.078,-0.64 l 0,-2.688 -1.094,0 z" /><path
         id="path64"
         style="fill:#000000;fill-opacity:1;fill-rule:nonzero;stroke:none"
         d="m 25.941,87.218 0,3.344 c 0,0.125 0,0.254 0,0.391 0.008,0.144 0.016,0.281 0.016,0.406 0.008,0.133 0.016,0.266 0.016,0.391 -0.055,-0.2 -0.106,-0.391 -0.157,-0.578 -0.023,-0.086 -0.043,-0.168 -0.062,-0.25 -0.024,-0.086 -0.043,-0.168 -0.063,-0.25 -0.023,-0.075 -0.043,-0.149 -0.062,-0.219 -0.024,-0.063 -0.043,-0.117 -0.063,-0.156 l -0.984,-3.079 -0.828,0 -0.984,3.079 c -0.024,0.039 -0.043,0.093 -0.063,0.156 -0.023,0.07 -0.043,0.144 -0.062,0.219 -0.024,0.082 -0.043,0.164 -0.063,0.25 -0.023,0.082 -0.047,0.164 -0.078,0.25 -0.055,0.187 -0.106,0.378 -0.156,0.578 0.007,-0.149 0.015,-0.293 0.015,-0.438 0.008,-0.125 0.016,-0.262 0.016,-0.406 0.008,-0.137 0.016,-0.25 0.016,-0.344 l 0,-3.344 -1.032,0 0,5.5 1.547,0 0.985,-3.078 c 0.031,-0.074 0.054,-0.172 0.078,-0.297 0.031,-0.117 0.062,-0.226 0.093,-0.328 0.032,-0.136 0.067,-0.273 0.11,-0.406 0.031,0.133 0.062,0.266 0.094,0.391 0.019,0.05 0.035,0.101 0.046,0.156 0.02,0.062 0.036,0.117 0.047,0.172 0.02,0.062 0.035,0.113 0.047,0.156 0.02,0.051 0.035,0.098 0.047,0.141 l 0.969,3.093 1.531,0 0,-5.5 -1.016,0 z" /><path
         id="path66"
         style="fill:#000000;fill-opacity:1;fill-rule:nonzero;stroke:none"
         d="m 29.781,87.14 c -0.312,0 -0.59,0.043 -0.828,0.125 -0.242,0.094 -0.449,0.235 -0.625,0.422 -0.168,0.188 -0.297,0.414 -0.39,0.688 -0.094,0.281 -0.141,0.609 -0.141,0.984 0,0.395 0.051,0.727 0.156,1 0.113,0.281 0.258,0.504 0.438,0.672 0.187,0.176 0.398,0.301 0.64,0.375 0.239,0.082 0.492,0.125 0.766,0.125 0.332,0 0.613,-0.063 0.844,-0.188 0.238,-0.117 0.429,-0.277 0.578,-0.484 0.156,-0.211 0.265,-0.461 0.328,-0.75 0.07,-0.281 0.109,-0.602 0.109,-0.953 l 0,-0.031 -2.703,0 c 0,-0.18 0.016,-0.344 0.047,-0.5 0.031,-0.149 0.078,-0.278 0.141,-0.391 0.07,-0.117 0.164,-0.203 0.281,-0.266 0.113,-0.062 0.25,-0.093 0.406,-0.093 0.195,0 0.352,0.039 0.469,0.125 0.125,0.082 0.211,0.207 0.265,0.375 l 1.032,-0.078 C 31.551,88.172 31.488,88.039 31.406,87.906 31.32,87.769 31.207,87.644 31.062,87.531 30.926,87.414 30.75,87.32 30.531,87.25 30.32,87.179 30.07,87.14 29.781,87.14 Z m 0,3.688 c -0.117,0 -0.226,-0.024 -0.328,-0.063 -0.094,-0.031 -0.18,-0.09 -0.25,-0.172 -0.074,-0.086 -0.133,-0.195 -0.172,-0.328 -0.043,-0.125 -0.07,-0.277 -0.078,-0.453 l 1.641,0 c -0.024,0.344 -0.106,0.598 -0.25,0.766 -0.137,0.164 -0.324,0.25 -0.563,0.25 z" /><path
         id="path68"
         style="fill:#000000;fill-opacity:1;fill-rule:nonzero;stroke:none"
         d="m 36.047,88.453 c 0,-0.199 -0.043,-0.383 -0.125,-0.547 -0.086,-0.156 -0.211,-0.293 -0.375,-0.406 -0.156,-0.118 -0.356,-0.203 -0.594,-0.266 -0.23,-0.062 -0.496,-0.094 -0.797,-0.094 -0.273,0 -0.515,0.024 -0.734,0.063 -0.211,0.039 -0.399,0.101 -0.563,0.187 -0.168,0.094 -0.308,0.207 -0.421,0.344 -0.106,0.145 -0.184,0.328 -0.235,0.547 l 0.969,0.141 c 0.031,-0.118 0.07,-0.211 0.125,-0.282 0.051,-0.074 0.117,-0.133 0.203,-0.172 0.082,-0.043 0.176,-0.07 0.281,-0.078 0.114,-0.011 0.239,-0.015 0.375,-0.015 0.125,0 0.239,0.004 0.344,0.015 0.113,0.008 0.207,0.032 0.281,0.063 0.082,0.039 0.145,0.094 0.188,0.156 0.039,0.063 0.062,0.145 0.062,0.25 0,0.102 -0.031,0.188 -0.093,0.25 -0.063,0.063 -0.153,0.113 -0.266,0.156 -0.106,0.039 -0.234,0.078 -0.391,0.11 -0.148,0.031 -0.304,0.066 -0.469,0.109 -0.179,0.031 -0.355,0.07 -0.531,0.125 -0.168,0.063 -0.32,0.141 -0.453,0.234 -0.137,0.094 -0.246,0.211 -0.328,0.36 -0.086,0.144 -0.125,0.328 -0.125,0.547 0,0.195 0.035,0.375 0.109,0.531 0.082,0.156 0.196,0.289 0.344,0.406 0.156,0.113 0.344,0.195 0.563,0.25 0.226,0.063 0.484,0.094 0.765,0.094 0.227,0 0.442,-0.024 0.641,-0.063 0.195,-0.043 0.375,-0.109 0.531,-0.203 0.156,-0.093 0.285,-0.215 0.391,-0.359 0.113,-0.149 0.191,-0.32 0.234,-0.516 l -0.984,-0.109 c -0.012,0.101 -0.043,0.187 -0.094,0.25 -0.043,0.07 -0.102,0.125 -0.172,0.156 -0.074,0.039 -0.156,0.067 -0.25,0.078 -0.086,0.02 -0.183,0.032 -0.297,0.032 -0.261,0 -0.461,-0.04 -0.594,-0.11 -0.124,-0.062 -0.187,-0.172 -0.187,-0.328 0,-0.094 0.023,-0.172 0.078,-0.234 0.063,-0.055 0.141,-0.102 0.235,-0.141 0.093,-0.031 0.207,-0.062 0.343,-0.094 0.133,-0.023 0.281,-0.054 0.438,-0.093 0.195,-0.043 0.39,-0.094 0.578,-0.157 0.187,-0.054 0.351,-0.133 0.5,-0.234 0.156,-0.094 0.273,-0.219 0.359,-0.375 0.094,-0.149 0.141,-0.34 0.141,-0.578 z" /><path
         id="path70"
         style="fill:#000000;fill-opacity:1;fill-rule:nonzero;stroke:none"
         d="m 37.957,91.453 0,-2.375 c 0,-0.168 0.008,-0.321 0.031,-0.453 0.032,-0.137 0.078,-0.258 0.141,-0.36 0.062,-0.093 0.141,-0.168 0.234,-0.218 0.094,-0.055 0.207,-0.079 0.344,-0.079 0.133,0 0.254,0.024 0.359,0.079 0.114,0.062 0.207,0.144 0.282,0.25 0.082,0.113 0.144,0.242 0.187,0.39 0.039,0.145 0.063,0.313 0.063,0.5 l 0,2.266 1.093,0 0,-3.281 c 0,-0.094 0,-0.196 0,-0.297 0,-0.094 0,-0.184 0,-0.266 0.008,-0.086 0.016,-0.164 0.016,-0.234 0.008,-0.075 0.016,-0.125 0.016,-0.157 l -1.047,0 c 0,0.032 -0.008,0.079 -0.016,0.141 0,0.07 -0.008,0.148 -0.015,0.234 0,0.082 -0.008,0.164 -0.016,0.25 0,0.082 0,0.157 0,0.219 l -0.016,0 c -0.148,-0.324 -0.336,-0.558 -0.562,-0.703 -0.219,-0.144 -0.485,-0.219 -0.797,-0.219 -0.25,0 -0.465,0.043 -0.641,0.125 -0.179,0.082 -0.324,0.196 -0.437,0.344 -0.117,0.145 -0.199,0.316 -0.25,0.516 -0.043,0.195 -0.063,0.41 -0.063,0.64 l 0,2.688 1.094,0 z" /><path
         id="path72"
         style="fill:#000000;fill-opacity:1;fill-rule:nonzero;stroke:none"
         d="m 41.801,87.218 0,3.235 c 0,0.094 0,0.187 0,0.281 0,0.102 -0.008,0.203 -0.016,0.297 0,0.094 -0.008,0.176 -0.015,0.25 0,0.07 0,0.129 0,0.172 l 1.046,0 c 0,-0.031 0,-0.09 0,-0.172 0.008,-0.074 0.016,-0.156 0.016,-0.25 0.008,-0.094 0.016,-0.188 0.016,-0.281 0.007,-0.086 0.015,-0.153 0.015,-0.203 l 0.016,0 c 0.051,0.156 0.101,0.289 0.156,0.406 0.063,0.125 0.129,0.226 0.203,0.312 0.071,0.082 0.16,0.145 0.266,0.188 0.101,0.051 0.234,0.078 0.391,0.078 0.062,0 0.125,-0.008 0.187,-0.016 0.063,-0.011 0.113,-0.027 0.156,-0.047 l 0,-0.921 c -0.074,0.019 -0.148,0.035 -0.218,0.046 -0.075,0.008 -0.157,0.016 -0.25,0.016 -0.282,0 -0.5,-0.109 -0.657,-0.328 -0.148,-0.219 -0.218,-0.547 -0.218,-0.984 l 0,-2.079 -1.094,0 z" /><path
         id="path74"
         style="fill:#000000;fill-opacity:1;fill-rule:nonzero;stroke:none"
         d="m 46.633,87.14 c -0.313,0 -0.59,0.043 -0.828,0.125 -0.243,0.094 -0.45,0.235 -0.625,0.422 -0.168,0.188 -0.297,0.414 -0.391,0.688 -0.094,0.281 -0.141,0.609 -0.141,0.984 0,0.395 0.051,0.727 0.157,1 0.113,0.281 0.257,0.504 0.437,0.672 0.188,0.176 0.399,0.301 0.641,0.375 0.238,0.082 0.492,0.125 0.765,0.125 0.332,0 0.614,-0.063 0.844,-0.188 0.238,-0.117 0.43,-0.277 0.578,-0.484 0.157,-0.211 0.266,-0.461 0.328,-0.75 0.071,-0.281 0.11,-0.602 0.11,-0.953 l 0,-0.031 -2.703,0 c 0,-0.18 0.015,-0.344 0.047,-0.5 0.031,-0.149 0.078,-0.278 0.14,-0.391 0.07,-0.117 0.164,-0.203 0.281,-0.266 0.114,-0.062 0.25,-0.093 0.407,-0.093 0.195,0 0.351,0.039 0.468,0.125 0.125,0.082 0.211,0.207 0.266,0.375 l 1.031,-0.078 C 48.402,88.172 48.34,88.039 48.258,87.906 48.172,87.769 48.059,87.644 47.914,87.531 47.777,87.414 47.602,87.32 47.383,87.25 47.172,87.179 46.922,87.14 46.633,87.14 Z m 0,3.688 c -0.117,0 -0.227,-0.024 -0.328,-0.063 -0.094,-0.031 -0.18,-0.09 -0.25,-0.172 C 45.98,90.507 45.922,90.398 45.883,90.265 45.84,90.14 45.812,89.988 45.805,89.812 l 1.64,0 c -0.023,0.344 -0.105,0.598 -0.25,0.766 -0.136,0.164 -0.324,0.25 -0.562,0.25 z" /><path
         id="path76"
         style="fill:#000000;fill-opacity:1;fill-rule:nonzero;stroke:none"
         d="m 52.898,88.453 c 0,-0.199 -0.043,-0.383 -0.125,-0.547 C 52.688,87.75 52.562,87.613 52.398,87.5 52.242,87.382 52.043,87.297 51.805,87.234 51.574,87.172 51.309,87.14 51.008,87.14 c -0.274,0 -0.516,0.024 -0.735,0.063 -0.211,0.039 -0.398,0.101 -0.562,0.187 -0.168,0.094 -0.309,0.207 -0.422,0.344 -0.105,0.145 -0.184,0.328 -0.234,0.547 l 0.968,0.141 c 0.032,-0.118 0.071,-0.211 0.125,-0.282 0.051,-0.074 0.118,-0.133 0.204,-0.172 0.082,-0.043 0.175,-0.07 0.281,-0.078 0.113,-0.011 0.238,-0.015 0.375,-0.015 0.125,0 0.238,0.004 0.344,0.015 0.113,0.008 0.207,0.032 0.281,0.063 0.082,0.039 0.144,0.094 0.187,0.156 0.039,0.063 0.063,0.145 0.063,0.25 0,0.102 -0.031,0.188 -0.094,0.25 -0.062,0.063 -0.152,0.113 -0.266,0.156 -0.105,0.039 -0.234,0.078 -0.39,0.11 -0.149,0.031 -0.305,0.066 -0.469,0.109 -0.18,0.031 -0.355,0.07 -0.531,0.125 -0.168,0.063 -0.321,0.141 -0.453,0.234 -0.137,0.094 -0.246,0.211 -0.328,0.36 -0.086,0.144 -0.125,0.328 -0.125,0.547 0,0.195 0.035,0.375 0.109,0.531 0.082,0.156 0.195,0.289 0.344,0.406 0.156,0.113 0.343,0.195 0.562,0.25 0.227,0.063 0.485,0.094 0.766,0.094 0.226,0 0.441,-0.024 0.64,-0.063 0.196,-0.043 0.375,-0.109 0.532,-0.203 0.156,-0.093 0.285,-0.215 0.39,-0.359 0.114,-0.149 0.192,-0.32 0.235,-0.516 L 51.82,90.281 c -0.011,0.101 -0.043,0.187 -0.093,0.25 -0.043,0.07 -0.102,0.125 -0.172,0.156 -0.075,0.039 -0.157,0.067 -0.25,0.078 -0.086,0.02 -0.184,0.032 -0.297,0.032 -0.262,0 -0.461,-0.04 -0.594,-0.11 -0.125,-0.062 -0.187,-0.172 -0.187,-0.328 0,-0.094 0.023,-0.172 0.078,-0.234 0.062,-0.055 0.14,-0.102 0.234,-0.141 0.094,-0.031 0.207,-0.062 0.344,-0.094 0.133,-0.023 0.281,-0.054 0.437,-0.093 0.196,-0.043 0.391,-0.094 0.578,-0.157 0.188,-0.054 0.352,-0.133 0.5,-0.234 0.157,-0.094 0.274,-0.219 0.36,-0.375 0.094,-0.149 0.14,-0.34 0.14,-0.578 z" /><g
         transform="matrix(1,0,0,-1,0,262.5856)"
         id="g78"><path
           id="path80"
           style="fill:#008080;fill-opacity:1;fill-rule:nonzero;stroke:#000000;stroke-width:0.71200001;stroke-linecap:butt;stroke-linejoin:miter;stroke-miterlimit:4;stroke-dasharray:none;stroke-opacity:1"
           d="m 207.328,153.793 70.215,0 c 1.062,0 1.918,0.852 1.918,1.914 l 0,24.648 c 0,1.063 -0.856,1.918 -1.918,1.918 l -70.215,0 c -1.062,0 -1.918,-0.855 -1.918,-1.918 l 0,-24.648 c 0,-1.062 0.856,-1.914 1.918,-1.914 z" /></g><path
         id="path82"
         style="fill:#000000;fill-opacity:1;fill-rule:nonzero;stroke:none"
         d="m 223.598,94.843 c 0,-0.429 -0.071,-0.82 -0.203,-1.171 -0.125,-0.356 -0.309,-0.657 -0.547,-0.907 -0.243,-0.25 -0.532,-0.445 -0.875,-0.578 -0.344,-0.133 -0.735,-0.203 -1.172,-0.203 -0.461,0 -0.86,0.07 -1.203,0.203 -0.344,0.145 -0.637,0.344 -0.875,0.594 -0.231,0.258 -0.403,0.562 -0.516,0.906 -0.117,0.352 -0.172,0.738 -0.172,1.156 0,0.426 0.055,0.813 0.172,1.157 0.125,0.351 0.305,0.648 0.547,0.89 0.238,0.239 0.531,0.426 0.875,0.563 0.344,0.133 0.738,0.203 1.187,0.203 0.446,0 0.844,-0.07 1.188,-0.203 0.344,-0.137 0.629,-0.328 0.859,-0.578 0.239,-0.243 0.422,-0.532 0.547,-0.875 0.125,-0.344 0.188,-0.731 0.188,-1.157 z m -1.172,0 c 0,0.289 -0.039,0.551 -0.11,0.782 -0.074,0.226 -0.179,0.425 -0.312,0.593 -0.137,0.164 -0.305,0.297 -0.5,0.391 -0.199,0.094 -0.43,0.141 -0.688,0.141 -0.273,0 -0.511,-0.047 -0.718,-0.141 -0.2,-0.094 -0.368,-0.227 -0.5,-0.391 -0.137,-0.168 -0.243,-0.367 -0.313,-0.593 -0.062,-0.231 -0.094,-0.493 -0.094,-0.782 0,-0.293 0.036,-0.558 0.11,-0.796 0.07,-0.231 0.176,-0.434 0.312,-0.61 0.133,-0.168 0.301,-0.305 0.5,-0.406 0.196,-0.094 0.426,-0.141 0.688,-0.141 0.281,0 0.519,0.047 0.719,0.141 0.207,0.101 0.378,0.238 0.515,0.406 0.133,0.176 0.235,0.383 0.297,0.625 0.063,0.238 0.094,0.5 0.094,0.781 z" /><path
         id="path84"
         style="fill:#000000;fill-opacity:1;fill-rule:nonzero;stroke:none"
         d="m 228.465,94.203 c 0,-0.324 -0.031,-0.621 -0.094,-0.891 -0.062,-0.273 -0.164,-0.508 -0.297,-0.703 -0.136,-0.199 -0.308,-0.355 -0.515,-0.469 -0.2,-0.101 -0.438,-0.156 -0.719,-0.156 -0.125,0 -0.25,0.016 -0.375,0.047 -0.125,0.023 -0.246,0.055 -0.36,0.109 -0.105,0.063 -0.203,0.141 -0.296,0.235 -0.094,0.101 -0.18,0.222 -0.25,0.359 l -0.016,0 c 0,-0.012 0,-0.043 0,-0.094 0,-0.054 0,-0.117 0,-0.187 0.008,-0.063 0.016,-0.137 0.016,-0.219 0,-0.074 0,-0.148 0,-0.219 l 0,-1.609 -1.094,0 0,4.906 c 0,0.219 -0.008,0.41 -0.016,0.578 0,0.176 -0.008,0.313 -0.015,0.407 l 1.062,0 c 0.008,-0.024 0.016,-0.059 0.016,-0.11 0.008,-0.055 0.015,-0.117 0.015,-0.187 0.008,-0.063 0.016,-0.133 0.016,-0.203 0,-0.075 0,-0.137 0,-0.188 l 0.016,0 c 0.132,0.27 0.316,0.461 0.546,0.578 0.227,0.125 0.5,0.188 0.813,0.188 0.258,0 0.488,-0.059 0.687,-0.172 0.196,-0.106 0.36,-0.258 0.485,-0.453 0.125,-0.188 0.219,-0.418 0.281,-0.688 0.063,-0.262 0.094,-0.547 0.094,-0.859 z m -1.141,0 c 0,0.476 -0.074,0.832 -0.219,1.062 -0.148,0.239 -0.367,0.36 -0.656,0.36 -0.117,0 -0.226,-0.028 -0.328,-0.078 -0.105,-0.043 -0.203,-0.122 -0.297,-0.235 -0.086,-0.105 -0.152,-0.25 -0.203,-0.437 -0.055,-0.188 -0.078,-0.422 -0.078,-0.703 0,-0.282 0.023,-0.516 0.078,-0.704 0.051,-0.179 0.117,-0.324 0.203,-0.437 0.082,-0.106 0.176,-0.184 0.281,-0.234 0.114,-0.043 0.223,-0.063 0.329,-0.063 0.144,0 0.269,0.023 0.375,0.078 0.113,0.063 0.207,0.149 0.281,0.266 0.07,0.125 0.129,0.273 0.172,0.453 0.039,0.187 0.062,0.41 0.062,0.672 z" /><path
         id="path86"
         style="fill:#000000;fill-opacity:1;fill-rule:nonzero;stroke:none"
         d="m 230.418,91.984 c -0.324,0 -0.574,0.086 -0.75,0.266 -0.168,0.175 -0.25,0.445 -0.25,0.812 l 0,2.485 -0.547,0 0,0.75 0.594,0 0.344,0.984 0.687,0 0,-0.984 0.797,0 0,-0.75 -0.797,0 0,-2.188 c 0,-0.211 0.035,-0.367 0.109,-0.469 0.083,-0.093 0.207,-0.14 0.375,-0.14 0.063,0 0.118,0.004 0.172,0.015 0.063,0.008 0.125,0.024 0.188,0.047 l 0,-0.687 c -0.137,-0.043 -0.281,-0.071 -0.438,-0.094 -0.148,-0.031 -0.308,-0.047 -0.484,-0.047 z" /><path
         id="path88"
         style="fill:#000000;fill-opacity:1;fill-rule:nonzero;stroke:none"
         d="m 232.004,97.047 0,0.812 1.094,0 0,-0.812 -1.094,0 z m 0,-4.985 0,4.235 1.094,0 0,-4.235 -1.094,0 z" /><path
         id="path90"
         style="fill:#000000;fill-opacity:1;fill-rule:nonzero;stroke:none"
         d="m 236.699,92.062 0,2.375 c 0,0.164 -0.011,0.317 -0.031,0.453 -0.023,0.133 -0.059,0.25 -0.109,0.344 -0.055,0.102 -0.121,0.18 -0.204,0.234 -0.085,0.051 -0.183,0.079 -0.296,0.079 -0.118,0 -0.219,-0.032 -0.313,-0.094 -0.086,-0.055 -0.164,-0.137 -0.234,-0.25 -0.063,-0.106 -0.117,-0.235 -0.157,-0.391 -0.031,-0.148 -0.046,-0.308 -0.046,-0.484 l 0,-2.266 -1.094,0 0,3.281 c 0,0.094 0,0.188 0,0.282 0,0.093 -0.008,0.179 -0.016,0.265 0,0.094 -0.008,0.172 -0.015,0.235 0,0.07 0,0.129 0,0.172 l 1.046,0 c 0,-0.032 0,-0.086 0,-0.157 0.008,-0.074 0.016,-0.152 0.016,-0.234 0.008,-0.086 0.016,-0.168 0.016,-0.25 0.008,-0.086 0.015,-0.152 0.015,-0.203 l 0.016,0 c 0.133,0.32 0.301,0.554 0.5,0.703 0.207,0.144 0.453,0.219 0.734,0.219 0.321,0 0.582,-0.078 0.782,-0.235 0.195,-0.156 0.328,-0.386 0.39,-0.687 l 0.031,0 c 0.071,0.176 0.149,0.32 0.235,0.437 0.094,0.114 0.191,0.207 0.297,0.282 0.101,0.07 0.218,0.125 0.343,0.156 0.125,0.031 0.258,0.047 0.407,0.047 0.226,0 0.422,-0.043 0.578,-0.125 0.164,-0.086 0.297,-0.2 0.39,-0.344 0.102,-0.149 0.176,-0.32 0.219,-0.516 0.051,-0.199 0.078,-0.414 0.078,-0.64 l 0,-2.688 -1.093,0 0,2.375 c 0,0.164 -0.012,0.317 -0.032,0.453 -0.023,0.133 -0.058,0.25 -0.109,0.344 -0.055,0.102 -0.121,0.18 -0.203,0.234 -0.086,0.051 -0.184,0.079 -0.297,0.079 -0.117,0 -0.219,-0.032 -0.313,-0.094 -0.085,-0.055 -0.164,-0.133 -0.234,-0.235 -0.062,-0.093 -0.117,-0.214 -0.156,-0.359 -0.031,-0.148 -0.047,-0.309 -0.047,-0.484 l 0,-2.313 -1.094,0 z" /><path
         id="path92"
         style="fill:#000000;fill-opacity:1;fill-rule:nonzero;stroke:none"
         d="m 241.305,97.047 0,0.812 1.093,0 0,-0.812 -1.093,0 z m 0,-4.985 0,4.235 1.093,0 0,-4.235 -1.093,0 z" /><path
         id="path94"
         style="fill:#000000;fill-opacity:1;fill-rule:nonzero;stroke:none"
         d="m 247.078,93.297 c 0,-0.2 -0.043,-0.383 -0.125,-0.547 -0.086,-0.157 -0.211,-0.293 -0.375,-0.407 -0.156,-0.117 -0.355,-0.203 -0.594,-0.265 -0.23,-0.063 -0.496,-0.094 -0.796,-0.094 -0.274,0 -0.516,0.023 -0.735,0.063 -0.211,0.039 -0.398,0.101 -0.562,0.187 -0.168,0.094 -0.309,0.207 -0.422,0.344 -0.106,0.144 -0.184,0.328 -0.235,0.547 l 0.969,0.14 c 0.031,-0.117 0.07,-0.211 0.125,-0.281 0.051,-0.074 0.117,-0.133 0.203,-0.172 0.082,-0.043 0.176,-0.07 0.281,-0.078 0.114,-0.012 0.239,-0.016 0.376,-0.016 0.124,0 0.238,0.004 0.343,0.016 0.114,0.008 0.207,0.031 0.281,0.063 0.083,0.039 0.145,0.093 0.188,0.156 0.039,0.062 0.062,0.144 0.062,0.25 0,0.101 -0.031,0.187 -0.093,0.25 -0.063,0.062 -0.153,0.113 -0.266,0.156 -0.105,0.039 -0.234,0.078 -0.391,0.109 -0.148,0.032 -0.304,0.067 -0.468,0.11 -0.18,0.031 -0.356,0.07 -0.532,0.125 -0.167,0.062 -0.32,0.14 -0.453,0.234 -0.136,0.094 -0.246,0.211 -0.328,0.36 -0.086,0.144 -0.125,0.328 -0.125,0.546 0,0.196 0.035,0.375 0.11,0.532 0.082,0.156 0.195,0.289 0.343,0.406 0.157,0.113 0.344,0.195 0.563,0.25 0.226,0.062 0.484,0.094 0.766,0.094 0.226,0 0.441,-0.024 0.64,-0.063 0.195,-0.043 0.375,-0.109 0.531,-0.203 0.157,-0.094 0.286,-0.215 0.391,-0.359 0.113,-0.149 0.191,-0.321 0.234,-0.516 L 246,95.125 c -0.012,0.101 -0.043,0.187 -0.094,0.25 -0.043,0.07 -0.101,0.125 -0.172,0.156 -0.074,0.039 -0.156,0.066 -0.25,0.078 -0.086,0.02 -0.183,0.031 -0.296,0.031 -0.262,0 -0.461,-0.039 -0.594,-0.109 -0.125,-0.063 -0.188,-0.172 -0.188,-0.328 0,-0.094 0.024,-0.172 0.078,-0.235 0.063,-0.054 0.141,-0.101 0.235,-0.14 0.093,-0.031 0.207,-0.063 0.343,-0.094 0.133,-0.023 0.282,-0.055 0.438,-0.094 0.195,-0.043 0.391,-0.093 0.578,-0.156 0.188,-0.055 0.352,-0.133 0.5,-0.234 0.156,-0.094 0.274,-0.219 0.36,-0.375 0.093,-0.149 0.14,-0.34 0.14,-0.578 z" /><path
         id="path96"
         style="fill:#000000;fill-opacity:1;fill-rule:nonzero;stroke:none"
         d="m 248.922,91.984 c -0.199,0 -0.383,0.027 -0.547,0.078 -0.156,0.063 -0.293,0.145 -0.406,0.25 -0.106,0.113 -0.188,0.25 -0.25,0.406 -0.063,0.157 -0.094,0.336 -0.094,0.547 0,0.25 0.039,0.457 0.125,0.625 0.094,0.164 0.211,0.301 0.359,0.407 0.157,0.113 0.332,0.191 0.532,0.234 0.207,0.051 0.425,0.078 0.656,0.078 l 0.906,0.016 0,0.218 c 0,0.157 -0.015,0.282 -0.047,0.375 -0.023,0.102 -0.058,0.188 -0.109,0.25 -0.055,0.071 -0.121,0.118 -0.203,0.141 -0.074,0.031 -0.156,0.047 -0.25,0.047 -0.094,0 -0.18,-0.012 -0.25,-0.031 -0.074,-0.012 -0.137,-0.043 -0.188,-0.094 -0.054,-0.043 -0.094,-0.106 -0.125,-0.188 -0.031,-0.074 -0.054,-0.168 -0.062,-0.281 l -1.157,0.047 c 0.032,0.188 0.086,0.352 0.172,0.5 0.082,0.156 0.196,0.289 0.344,0.406 0.156,0.114 0.336,0.203 0.547,0.266 0.219,0.062 0.473,0.094 0.766,0.094 0.257,0 0.488,-0.039 0.687,-0.11 0.207,-0.062 0.383,-0.164 0.531,-0.297 0.145,-0.125 0.254,-0.281 0.329,-0.468 0.07,-0.188 0.109,-0.403 0.109,-0.641 l 0,-1.547 c 0,-0.094 0.004,-0.183 0.015,-0.265 0.008,-0.075 0.024,-0.141 0.047,-0.204 0.032,-0.054 0.067,-0.093 0.11,-0.125 0.051,-0.023 0.113,-0.031 0.187,-0.031 0.082,0 0.16,0.008 0.235,0.031 l 0,-0.593 c -0.063,-0.024 -0.121,-0.043 -0.172,-0.063 -0.055,-0.008 -0.106,-0.015 -0.157,-0.015 -0.054,-0.008 -0.109,-0.016 -0.171,-0.016 -0.055,-0.008 -0.121,-0.016 -0.203,-0.016 -0.274,0 -0.477,0.067 -0.61,0.203 -0.137,0.133 -0.215,0.332 -0.234,0.594 l -0.032,0 c -0.148,-0.262 -0.335,-0.465 -0.562,-0.609 -0.219,-0.145 -0.496,-0.219 -0.828,-0.219 z m 1.281,2.031 -0.562,0 c -0.118,-0.011 -0.227,-0.023 -0.329,-0.031 -0.105,-0.012 -0.199,-0.043 -0.281,-0.094 -0.086,-0.043 -0.152,-0.109 -0.203,-0.203 -0.043,-0.086 -0.062,-0.199 -0.062,-0.344 0,-0.199 0.046,-0.351 0.14,-0.453 0.094,-0.093 0.219,-0.14 0.375,-0.14 0.133,0 0.258,0.031 0.375,0.093 0.114,0.063 0.211,0.141 0.297,0.235 0.082,0.094 0.145,0.203 0.188,0.328 0.039,0.133 0.062,0.269 0.062,0.406 l 0,0.203 z" /><path
         id="path98"
         style="fill:#000000;fill-opacity:1;fill-rule:nonzero;stroke:none"
         d="m 253.469,91.984 c -0.324,0 -0.574,0.086 -0.75,0.266 -0.168,0.175 -0.25,0.445 -0.25,0.812 l 0,2.485 -0.547,0 0,0.75 0.594,0 0.343,0.984 0.688,0 0,-0.984 0.797,0 0,-0.75 -0.797,0 0,-2.188 c 0,-0.211 0.035,-0.367 0.109,-0.469 0.082,-0.093 0.207,-0.14 0.375,-0.14 0.063,0 0.117,0.004 0.172,0.015 0.063,0.008 0.125,0.024 0.188,0.047 l 0,-0.687 c -0.137,-0.043 -0.282,-0.071 -0.438,-0.094 -0.148,-0.031 -0.308,-0.047 -0.484,-0.047 z" /><path
         id="path100"
         style="fill:#000000;fill-opacity:1;fill-rule:nonzero;stroke:none"
         d="m 255.055,97.047 0,0.812 1.093,0 0,-0.812 -1.093,0 z m 0,-4.985 0,4.235 1.093,0 0,-4.235 -1.093,0 z" /><path
         id="path102"
         style="fill:#000000;fill-opacity:1;fill-rule:nonzero;stroke:none"
         d="m 261.281,94.187 c 0,-0.324 -0.047,-0.621 -0.14,-0.89 -0.086,-0.274 -0.219,-0.508 -0.407,-0.704 -0.179,-0.187 -0.402,-0.339 -0.672,-0.453 -0.261,-0.101 -0.574,-0.156 -0.937,-0.156 -0.344,0 -0.648,0.055 -0.906,0.156 -0.262,0.114 -0.481,0.266 -0.657,0.453 -0.179,0.196 -0.312,0.426 -0.406,0.688 -0.094,0.269 -0.14,0.57 -0.14,0.906 0,0.313 0.039,0.598 0.125,0.86 0.093,0.269 0.226,0.503 0.406,0.703 0.176,0.195 0.394,0.347 0.656,0.453 0.27,0.113 0.586,0.172 0.953,0.172 0.375,0 0.696,-0.059 0.969,-0.172 0.27,-0.106 0.488,-0.258 0.656,-0.453 0.176,-0.2 0.301,-0.434 0.375,-0.703 0.082,-0.262 0.125,-0.547 0.125,-0.86 z m -1.156,0 c 0,0.5 -0.086,0.86 -0.25,1.078 -0.156,0.227 -0.391,0.344 -0.703,0.344 -0.324,0 -0.574,-0.117 -0.75,-0.344 -0.168,-0.23 -0.25,-0.59 -0.25,-1.078 0,-0.262 0.019,-0.484 0.062,-0.672 0.051,-0.179 0.118,-0.324 0.204,-0.437 0.082,-0.117 0.179,-0.203 0.296,-0.266 0.114,-0.055 0.243,-0.078 0.391,-0.078 0.156,0 0.297,0.023 0.422,0.078 0.125,0.063 0.226,0.149 0.312,0.266 0.094,0.113 0.161,0.258 0.203,0.437 0.04,0.188 0.063,0.41 0.063,0.672 z" /><path
         id="path104"
         style="fill:#000000;fill-opacity:1;fill-rule:nonzero;stroke:none"
         d="m 264.875,92.062 0,2.375 c 0,0.164 -0.016,0.317 -0.047,0.453 -0.023,0.133 -0.062,0.25 -0.125,0.344 -0.055,0.102 -0.133,0.18 -0.234,0.234 -0.094,0.051 -0.211,0.079 -0.344,0.079 -0.137,0 -0.262,-0.032 -0.375,-0.094 -0.105,-0.055 -0.199,-0.137 -0.281,-0.25 -0.074,-0.106 -0.133,-0.235 -0.172,-0.391 -0.043,-0.148 -0.063,-0.308 -0.063,-0.484 l 0,-2.266 -1.093,0 0,3.281 c 0,0.094 0,0.188 0,0.282 0,0.093 -0.008,0.179 -0.016,0.265 0,0.094 -0.008,0.172 -0.016,0.235 0,0.07 0,0.129 0,0.172 l 1.047,0 c 0,-0.032 0,-0.086 0,-0.157 0.008,-0.074 0.016,-0.152 0.016,-0.234 0.008,-0.086 0.016,-0.168 0.016,-0.25 0.007,-0.086 0.015,-0.152 0.015,-0.203 l 0.016,0 c 0.144,0.32 0.328,0.554 0.547,0.703 0.226,0.144 0.5,0.219 0.812,0.219 0.258,0 0.473,-0.043 0.641,-0.125 0.176,-0.086 0.32,-0.2 0.437,-0.344 0.114,-0.149 0.192,-0.32 0.235,-0.516 0.05,-0.199 0.078,-0.414 0.078,-0.64 l 0,-2.688 -1.094,0 z" /><g
         transform="matrix(1,0,0,-1,0,262.5856)"
         id="g106"><path
           id="path108"
           style="fill:#008080;fill-opacity:1;fill-rule:nonzero;stroke:#000000;stroke-width:0.71200001;stroke-linecap:butt;stroke-linejoin:miter;stroke-miterlimit:4;stroke-dasharray:none;stroke-opacity:1"
           d="m 133.277,56.961 70.219,0 c 1.063,0 1.914,0.851 1.914,1.914 l 0,24.648 c 0,1.063 -0.851,1.918 -1.914,1.918 l -70.219,0 c -1.058,0 -1.914,-0.855 -1.914,-1.918 l 0,-24.648 c 0,-1.063 0.856,-1.914 1.914,-1.914 z" /></g><path
         id="path110"
         style="fill:#000000;fill-opacity:1;fill-rule:nonzero;stroke:none"
         d="m 140.207,188.894 -1.266,2.094 -1.359,0 0,-2.094 -1.156,0 0,5.5 2.75,0 c 0.344,0 0.644,-0.039 0.906,-0.109 0.258,-0.074 0.473,-0.184 0.641,-0.328 0.175,-0.149 0.304,-0.321 0.39,-0.516 0.082,-0.199 0.125,-0.43 0.125,-0.687 0,-0.2 -0.031,-0.387 -0.093,-0.563 -0.063,-0.168 -0.153,-0.32 -0.266,-0.453 -0.106,-0.137 -0.231,-0.25 -0.375,-0.344 -0.149,-0.086 -0.309,-0.148 -0.484,-0.187 l 1.484,-2.313 -1.297,0 z m -0.125,3.813 c 0,0.269 -0.09,0.468 -0.266,0.593 -0.179,0.133 -0.429,0.204 -0.75,0.204 l -1.484,0 0,-1.625 1.516,0 c 0.164,0 0.312,0.019 0.437,0.062 0.125,0.039 0.223,0.098 0.297,0.172 0.082,0.07 0.145,0.16 0.188,0.266 0.039,0.101 0.062,0.211 0.062,0.328 z" /><path
         id="path112"
         style="fill:#000000;fill-opacity:1;fill-rule:nonzero;stroke:none"
         d="m 143.953,188.816 c -0.312,0 -0.59,0.043 -0.828,0.125 -0.242,0.094 -0.449,0.234 -0.625,0.422 -0.168,0.187 -0.297,0.414 -0.391,0.687 -0.093,0.282 -0.14,0.61 -0.14,0.985 0,0.394 0.051,0.726 0.156,1 0.113,0.281 0.258,0.504 0.437,0.672 0.188,0.175 0.399,0.3 0.641,0.375 0.238,0.082 0.492,0.125 0.766,0.125 0.332,0 0.613,-0.063 0.843,-0.188 0.239,-0.117 0.43,-0.277 0.579,-0.484 0.156,-0.211 0.265,-0.461 0.328,-0.75 0.07,-0.281 0.109,-0.602 0.109,-0.953 l 0,-0.032 -2.703,0 c 0,-0.179 0.016,-0.343 0.047,-0.5 0.031,-0.148 0.078,-0.277 0.14,-0.39 0.071,-0.117 0.165,-0.203 0.282,-0.266 0.113,-0.062 0.25,-0.094 0.406,-0.094 0.195,0 0.352,0.04 0.469,0.125 0.125,0.082 0.211,0.207 0.265,0.375 l 1.032,-0.078 c -0.043,-0.125 -0.106,-0.257 -0.188,-0.39 -0.086,-0.137 -0.199,-0.262 -0.344,-0.375 -0.136,-0.117 -0.312,-0.211 -0.531,-0.282 -0.211,-0.07 -0.461,-0.109 -0.75,-0.109 z m 0,3.688 c -0.117,0 -0.226,-0.024 -0.328,-0.063 -0.094,-0.031 -0.18,-0.09 -0.25,-0.172 -0.074,-0.086 -0.133,-0.195 -0.172,-0.328 -0.043,-0.125 -0.07,-0.277 -0.078,-0.453 l 1.641,0 c -0.024,0.344 -0.106,0.598 -0.25,0.766 -0.137,0.164 -0.325,0.25 -0.563,0.25 z m -0.953,1.015 0,0.125 0.984,1.125 1,0 0,-0.172 -1.328,-1.078 -0.656,0 z" /><path
         id="path114"
         style="fill:#000000;fill-opacity:1;fill-rule:nonzero;stroke:none"
         d="m 147.734,188.816 c -0.324,0 -0.574,0.086 -0.75,0.266 -0.168,0.175 -0.25,0.445 -0.25,0.812 l 0,2.485 -0.546,0 0,0.75 0.593,0 0.344,0.984 0.687,0 0,-0.984 0.797,0 0,-0.75 -0.797,0 0,-2.188 c 0,-0.211 0.036,-0.367 0.11,-0.469 0.082,-0.093 0.207,-0.14 0.375,-0.14 0.062,0 0.117,0.004 0.172,0.015 0.062,0.008 0.125,0.024 0.187,0.047 l 0,-0.687 c -0.136,-0.043 -0.281,-0.071 -0.437,-0.094 -0.149,-0.031 -0.309,-0.047 -0.485,-0.047 z" /><path
         id="path116"
         style="fill:#000000;fill-opacity:1;fill-rule:nonzero;stroke:none"
         d="m 149.32,188.894 0,3.235 c 0,0.093 0,0.187 0,0.281 0,0.101 -0.008,0.203 -0.015,0.297 0,0.093 -0.008,0.175 -0.016,0.25 0,0.07 0,0.129 0,0.172 l 1.047,0 c 0,-0.032 0,-0.09 0,-0.172 0.008,-0.075 0.016,-0.157 0.016,-0.25 0.007,-0.094 0.015,-0.188 0.015,-0.282 0.008,-0.085 0.016,-0.152 0.016,-0.203 l 0.015,0 c 0.051,0.157 0.102,0.289 0.157,0.407 0.062,0.125 0.129,0.226 0.203,0.312 0.07,0.082 0.16,0.145 0.265,0.188 0.102,0.05 0.235,0.078 0.391,0.078 0.063,0 0.125,-0.008 0.188,-0.016 0.062,-0.012 0.113,-0.027 0.156,-0.047 l 0,-0.922 c -0.074,0.02 -0.149,0.035 -0.219,0.047 -0.074,0.008 -0.156,0.016 -0.25,0.016 -0.281,0 -0.5,-0.11 -0.656,-0.328 -0.149,-0.219 -0.219,-0.547 -0.219,-0.985 l 0,-2.078 -1.094,0 z" /><path
         id="path118"
         style="fill:#000000;fill-opacity:1;fill-rule:nonzero;stroke:none"
         d="m 156.434,191.019 c 0,-0.324 -0.047,-0.621 -0.141,-0.89 -0.086,-0.274 -0.219,-0.508 -0.406,-0.704 -0.18,-0.187 -0.403,-0.339 -0.672,-0.453 -0.262,-0.101 -0.574,-0.156 -0.938,-0.156 -0.343,0 -0.648,0.055 -0.906,0.156 -0.262,0.114 -0.48,0.266 -0.656,0.453 -0.18,0.196 -0.313,0.426 -0.406,0.688 -0.094,0.269 -0.141,0.57 -0.141,0.906 0,0.313 0.039,0.598 0.125,0.86 0.094,0.269 0.227,0.503 0.406,0.703 0.176,0.195 0.395,0.347 0.656,0.453 0.27,0.113 0.586,0.172 0.954,0.172 0.375,0 0.695,-0.059 0.968,-0.172 0.27,-0.106 0.489,-0.258 0.657,-0.453 0.175,-0.2 0.3,-0.434 0.375,-0.703 0.082,-0.262 0.125,-0.547 0.125,-0.86 z m -1.157,0 c 0,0.5 -0.086,0.86 -0.25,1.078 -0.156,0.227 -0.39,0.344 -0.703,0.344 -0.324,0 -0.574,-0.117 -0.75,-0.344 -0.168,-0.23 -0.25,-0.59 -0.25,-1.078 0,-0.262 0.02,-0.484 0.063,-0.672 0.051,-0.179 0.117,-0.324 0.203,-0.437 0.082,-0.117 0.18,-0.203 0.297,-0.266 0.113,-0.054 0.242,-0.078 0.39,-0.078 0.157,0 0.297,0.024 0.422,0.078 0.125,0.063 0.227,0.149 0.313,0.266 0.093,0.113 0.16,0.258 0.203,0.437 0.039,0.188 0.062,0.41 0.062,0.672 z" /><path
         id="path120"
         style="fill:#000000;fill-opacity:1;fill-rule:nonzero;stroke:none"
         d="m 157.043,191.441 2.031,0 0,-0.953 -2.031,0 0,0.953 z" /><path
         id="path122"
         style="fill:#000000;fill-opacity:1;fill-rule:nonzero;stroke:none"
         d="m 164.426,190.488 c 0,-0.25 -0.047,-0.481 -0.141,-0.688 -0.094,-0.21 -0.242,-0.386 -0.437,-0.531 -0.188,-0.148 -0.434,-0.262 -0.735,-0.344 -0.293,-0.07 -0.64,-0.109 -1.047,-0.109 -0.367,0 -0.687,0.031 -0.968,0.094 -0.282,0.07 -0.524,0.172 -0.719,0.297 -0.199,0.125 -0.359,0.281 -0.484,0.468 -0.125,0.188 -0.215,0.407 -0.266,0.657 l 1.109,0.187 c 0.032,-0.125 0.078,-0.242 0.141,-0.344 0.062,-0.105 0.144,-0.195 0.25,-0.265 0.101,-0.074 0.234,-0.133 0.391,-0.172 0.156,-0.043 0.347,-0.063 0.578,-0.063 0.382,0 0.679,0.055 0.89,0.172 0.207,0.125 0.313,0.313 0.313,0.563 0,0.156 -0.043,0.281 -0.125,0.375 -0.086,0.094 -0.199,0.172 -0.344,0.234 -0.137,0.063 -0.293,0.113 -0.469,0.156 -0.179,0.04 -0.367,0.082 -0.562,0.125 -0.156,0.04 -0.313,0.079 -0.469,0.11 -0.156,0.039 -0.309,0.086 -0.453,0.14 -0.137,0.063 -0.266,0.129 -0.391,0.204 -0.125,0.07 -0.234,0.16 -0.328,0.265 -0.086,0.113 -0.152,0.242 -0.203,0.391 -0.055,0.156 -0.078,0.332 -0.078,0.531 0,0.27 0.051,0.504 0.156,0.703 0.113,0.196 0.27,0.36 0.469,0.485 0.195,0.125 0.426,0.211 0.687,0.265 0.27,0.063 0.567,0.094 0.891,0.094 0.352,0 0.656,-0.031 0.906,-0.094 0.258,-0.054 0.477,-0.137 0.657,-0.25 0.175,-0.117 0.312,-0.262 0.406,-0.437 0.101,-0.168 0.176,-0.371 0.219,-0.61 l -1.11,-0.14 c -0.062,0.226 -0.183,0.398 -0.359,0.515 -0.168,0.125 -0.418,0.188 -0.75,0.188 -0.199,0 -0.367,-0.016 -0.5,-0.047 -0.137,-0.031 -0.246,-0.078 -0.328,-0.141 -0.075,-0.062 -0.133,-0.136 -0.172,-0.218 -0.031,-0.075 -0.047,-0.157 -0.047,-0.25 0,-0.137 0.031,-0.247 0.094,-0.329 0.07,-0.085 0.164,-0.156 0.281,-0.218 0.113,-0.063 0.25,-0.117 0.406,-0.157 0.164,-0.031 0.348,-0.07 0.547,-0.109 0.176,-0.043 0.348,-0.086 0.516,-0.125 0.164,-0.043 0.328,-0.09 0.484,-0.141 0.156,-0.054 0.297,-0.121 0.422,-0.203 0.133,-0.074 0.25,-0.168 0.344,-0.281 0.101,-0.117 0.179,-0.25 0.234,-0.406 0.063,-0.156 0.094,-0.34 0.094,-0.547 z" /><path
         id="path124"
         style="fill:#000000;fill-opacity:1;fill-rule:nonzero;stroke:none"
         d="m 165.285,193.879 0,0.812 1.094,0 0,-0.812 -1.094,0 z m 0,-4.985 0,4.235 1.094,0 0,-4.235 -1.094,0 z" /><path
         id="path126"
         style="fill:#000000;fill-opacity:1;fill-rule:nonzero;stroke:none"
         d="m 169.98,188.894 0,2.375 c 0,0.164 -0.011,0.317 -0.031,0.453 -0.023,0.133 -0.058,0.25 -0.109,0.344 -0.055,0.102 -0.121,0.18 -0.203,0.234 -0.086,0.051 -0.184,0.079 -0.297,0.079 -0.117,0 -0.219,-0.032 -0.313,-0.094 -0.086,-0.055 -0.164,-0.137 -0.234,-0.25 -0.063,-0.106 -0.117,-0.235 -0.156,-0.391 -0.032,-0.148 -0.047,-0.308 -0.047,-0.484 l 0,-2.266 -1.094,0 0,3.281 c 0,0.094 0,0.188 0,0.282 0,0.093 -0.008,0.179 -0.016,0.265 0,0.094 -0.007,0.172 -0.015,0.235 0,0.07 0,0.129 0,0.172 l 1.047,0 c 0,-0.032 0,-0.086 0,-0.157 0.008,-0.074 0.015,-0.152 0.015,-0.234 0.008,-0.086 0.016,-0.168 0.016,-0.25 0.008,-0.086 0.016,-0.152 0.016,-0.203 l 0.015,0 c 0.133,0.32 0.301,0.555 0.5,0.703 0.207,0.144 0.453,0.219 0.735,0.219 0.32,0 0.582,-0.078 0.781,-0.235 0.195,-0.156 0.328,-0.386 0.39,-0.687 l 0.032,0 c 0.07,0.176 0.148,0.32 0.234,0.437 0.094,0.114 0.192,0.207 0.297,0.282 0.102,0.07 0.219,0.125 0.344,0.156 0.125,0.031 0.258,0.047 0.406,0.047 0.227,0 0.422,-0.043 0.578,-0.125 0.164,-0.086 0.297,-0.2 0.391,-0.344 0.101,-0.148 0.176,-0.32 0.218,-0.516 0.051,-0.199 0.079,-0.414 0.079,-0.64 l 0,-2.688 -1.094,0 0,2.375 c 0,0.164 -0.012,0.317 -0.031,0.453 -0.024,0.133 -0.059,0.25 -0.11,0.344 -0.054,0.102 -0.121,0.18 -0.203,0.234 -0.086,0.051 -0.183,0.079 -0.297,0.079 -0.117,0 -0.219,-0.032 -0.312,-0.094 -0.086,-0.055 -0.164,-0.133 -0.235,-0.235 -0.062,-0.093 -0.117,-0.214 -0.156,-0.359 -0.031,-0.148 -0.047,-0.309 -0.047,-0.484 l 0,-2.313 -1.094,0 z" /><path
         id="path128"
         style="fill:#000000;fill-opacity:1;fill-rule:nonzero;stroke:none"
         d="m 175.613,193.129 0,-2.375 c 0,-0.168 0.008,-0.321 0.032,-0.454 0.031,-0.136 0.078,-0.257 0.14,-0.359 0.063,-0.094 0.141,-0.168 0.235,-0.219 0.093,-0.054 0.207,-0.078 0.343,-0.078 0.133,0 0.254,0.024 0.36,0.078 0.113,0.063 0.207,0.145 0.281,0.25 0.082,0.114 0.144,0.243 0.187,0.391 0.039,0.144 0.063,0.312 0.063,0.5 l 0,2.266 1.094,0 0,-3.282 c 0,-0.093 0,-0.195 0,-0.297 0,-0.093 0,-0.183 0,-0.265 0.007,-0.086 0.015,-0.164 0.015,-0.235 0.008,-0.074 0.016,-0.125 0.016,-0.156 l -1.047,0 c 0,0.031 -0.008,0.078 -0.016,0.141 0,0.07 -0.007,0.148 -0.015,0.234 0,0.082 -0.008,0.164 -0.016,0.25 0,0.082 0,0.156 0,0.219 l -0.015,0 c -0.149,-0.324 -0.336,-0.559 -0.563,-0.703 -0.219,-0.145 -0.484,-0.219 -0.797,-0.219 -0.25,0 -0.465,0.043 -0.64,0.125 -0.18,0.082 -0.325,0.195 -0.438,0.344 -0.117,0.144 -0.199,0.316 -0.25,0.515 -0.043,0.196 -0.062,0.411 -0.062,0.641 l 0,2.688 1.093,0 z" /><path
         id="path130"
         style="fill:#000000;fill-opacity:1;fill-rule:nonzero;stroke:none"
         d="m 179.457,194.691 1.094,0 0,-5.797 -1.094,0 0,5.797 z" /><path
         id="path132"
         style="fill:#000000;fill-opacity:1;fill-rule:nonzero;stroke:none"
         d="m 182.637,188.816 c -0.199,0 -0.383,0.027 -0.547,0.078 -0.156,0.063 -0.293,0.145 -0.406,0.25 -0.106,0.113 -0.188,0.25 -0.25,0.406 -0.063,0.157 -0.094,0.336 -0.094,0.547 0,0.25 0.039,0.457 0.125,0.625 0.094,0.164 0.211,0.301 0.359,0.407 0.156,0.113 0.332,0.191 0.531,0.234 0.207,0.051 0.426,0.078 0.657,0.078 l 0.906,0.016 0,0.218 c 0,0.157 -0.016,0.282 -0.047,0.375 -0.023,0.102 -0.059,0.188 -0.109,0.25 -0.055,0.071 -0.121,0.118 -0.203,0.141 -0.075,0.031 -0.157,0.047 -0.25,0.047 -0.094,0 -0.18,-0.012 -0.25,-0.031 -0.075,-0.012 -0.137,-0.043 -0.188,-0.094 -0.055,-0.043 -0.094,-0.106 -0.125,-0.188 -0.031,-0.074 -0.055,-0.168 -0.062,-0.281 l -1.157,0.047 c 0.032,0.188 0.086,0.352 0.172,0.5 0.082,0.156 0.196,0.289 0.344,0.406 0.156,0.114 0.336,0.203 0.547,0.266 0.219,0.062 0.472,0.094 0.765,0.094 0.258,0 0.489,-0.039 0.688,-0.11 0.207,-0.062 0.383,-0.164 0.531,-0.297 0.145,-0.125 0.254,-0.281 0.328,-0.468 0.071,-0.188 0.11,-0.403 0.11,-0.641 l 0,-1.547 c 0,-0.094 0.004,-0.183 0.015,-0.265 0.008,-0.075 0.024,-0.141 0.047,-0.204 0.031,-0.054 0.067,-0.093 0.11,-0.125 0.05,-0.023 0.113,-0.031 0.187,-0.031 0.082,0 0.16,0.008 0.234,0.031 l 0,-0.593 c -0.062,-0.024 -0.121,-0.043 -0.171,-0.063 -0.055,-0.008 -0.106,-0.015 -0.157,-0.015 -0.054,-0.008 -0.109,-0.016 -0.172,-0.016 -0.054,-0.008 -0.121,-0.016 -0.203,-0.016 -0.273,0 -0.476,0.067 -0.609,0.203 -0.137,0.133 -0.215,0.332 -0.234,0.594 l -0.032,0 c -0.148,-0.262 -0.336,-0.465 -0.562,-0.609 -0.219,-0.145 -0.496,-0.219 -0.828,-0.219 z m 1.281,2.031 -0.563,0 c -0.117,-0.011 -0.226,-0.023 -0.328,-0.031 -0.105,-0.012 -0.199,-0.043 -0.281,-0.094 -0.086,-0.043 -0.152,-0.109 -0.203,-0.203 -0.043,-0.086 -0.063,-0.199 -0.063,-0.344 0,-0.199 0.047,-0.351 0.141,-0.453 0.094,-0.093 0.219,-0.14 0.375,-0.14 0.133,0 0.258,0.031 0.375,0.093 0.113,0.063 0.211,0.141 0.297,0.235 0.082,0.094 0.144,0.203 0.187,0.328 0.04,0.133 0.063,0.269 0.063,0.406 l 0,0.203 z" /><path
         id="path134"
         style="fill:#000000;fill-opacity:1;fill-rule:nonzero;stroke:none"
         d="m 187.188,188.816 c -0.325,0 -0.575,0.086 -0.75,0.266 -0.168,0.175 -0.25,0.445 -0.25,0.812 l 0,2.485 -0.547,0 0,0.75 0.593,0 0.344,0.984 0.688,0 0,-0.984 0.796,0 0,-0.75 -0.796,0 0,-2.188 c 0,-0.211 0.035,-0.367 0.109,-0.469 0.082,-0.093 0.207,-0.14 0.375,-0.14 0.062,0 0.117,0.004 0.172,0.015 0.062,0.008 0.125,0.024 0.187,0.047 l 0,-0.687 c -0.136,-0.043 -0.281,-0.071 -0.437,-0.094 -0.149,-0.031 -0.309,-0.047 -0.484,-0.047 z" /><path
         id="path136"
         style="fill:#000000;fill-opacity:1;fill-rule:nonzero;stroke:none"
         d="m 188.773,193.879 0,0.812 1.094,0 0,-0.812 -1.094,0 z m 0,-4.985 0,4.235 1.094,0 0,-4.235 -1.094,0 z" /><path
         id="path138"
         style="fill:#000000;fill-opacity:1;fill-rule:nonzero;stroke:none"
         d="m 195,191.019 c 0,-0.324 -0.047,-0.621 -0.141,-0.89 -0.086,-0.274 -0.218,-0.508 -0.406,-0.704 -0.18,-0.187 -0.402,-0.339 -0.672,-0.453 -0.261,-0.101 -0.574,-0.156 -0.937,-0.156 -0.344,0 -0.649,0.055 -0.906,0.156 -0.262,0.114 -0.481,0.266 -0.657,0.453 -0.179,0.196 -0.312,0.426 -0.406,0.688 -0.094,0.269 -0.141,0.57 -0.141,0.906 0,0.313 0.039,0.598 0.125,0.86 0.094,0.269 0.227,0.503 0.407,0.703 0.175,0.195 0.394,0.347 0.656,0.453 0.269,0.113 0.586,0.172 0.953,0.172 0.375,0 0.695,-0.059 0.969,-0.172 0.269,-0.106 0.488,-0.258 0.656,-0.453 0.176,-0.2 0.301,-0.434 0.375,-0.703 0.082,-0.262 0.125,-0.547 0.125,-0.86 z m -1.156,0 c 0,0.5 -0.086,0.86 -0.25,1.078 -0.156,0.227 -0.391,0.344 -0.703,0.344 -0.325,0 -0.575,-0.117 -0.75,-0.344 -0.168,-0.23 -0.25,-0.59 -0.25,-1.078 0,-0.262 0.019,-0.484 0.062,-0.672 0.051,-0.179 0.117,-0.324 0.203,-0.437 0.082,-0.117 0.18,-0.203 0.297,-0.266 0.113,-0.054 0.242,-0.078 0.391,-0.078 0.156,0 0.297,0.024 0.422,0.078 0.125,0.063 0.226,0.149 0.312,0.266 0.094,0.113 0.16,0.258 0.203,0.437 0.039,0.188 0.063,0.41 0.063,0.672 z" /><path
         id="path140"
         style="fill:#000000;fill-opacity:1;fill-rule:nonzero;stroke:none"
         d="m 198.594,188.894 0,2.375 c 0,0.164 -0.016,0.317 -0.047,0.453 -0.024,0.133 -0.063,0.25 -0.125,0.344 -0.055,0.102 -0.133,0.18 -0.234,0.234 -0.094,0.051 -0.211,0.079 -0.344,0.079 -0.137,0 -0.262,-0.032 -0.375,-0.094 -0.106,-0.055 -0.199,-0.137 -0.281,-0.25 -0.075,-0.106 -0.133,-0.235 -0.172,-0.391 -0.043,-0.148 -0.063,-0.308 -0.063,-0.484 l 0,-2.266 -1.094,0 0,3.281 c 0,0.094 0,0.188 0,0.282 0,0.093 -0.007,0.179 -0.015,0.265 0,0.094 -0.008,0.172 -0.016,0.235 0,0.07 0,0.129 0,0.172 l 1.047,0 c 0,-0.032 0,-0.086 0,-0.157 0.008,-0.074 0.016,-0.152 0.016,-0.234 0.007,-0.086 0.015,-0.168 0.015,-0.25 0.008,-0.086 0.016,-0.152 0.016,-0.203 l 0.016,0 c 0.144,0.32 0.328,0.555 0.546,0.703 0.227,0.144 0.5,0.219 0.813,0.219 0.258,0 0.473,-0.043 0.641,-0.125 0.175,-0.086 0.32,-0.2 0.437,-0.344 0.113,-0.148 0.191,-0.32 0.234,-0.516 0.051,-0.199 0.079,-0.414 0.079,-0.64 l 0,-2.688 -1.094,0 z" /><g
         transform="matrix(1,0,0,-1,0,262.5856)"
         id="g142"><path
           id="path144"
           style="fill:#008080;fill-opacity:1;fill-rule:nonzero;stroke:#000000;stroke-width:0.71200001;stroke-linecap:butt;stroke-linejoin:miter;stroke-miterlimit:4;stroke-dasharray:none;stroke-opacity:1"
           d="m 87.711,153.793 70.219,0 c 1.058,0 1.914,0.852 1.914,1.914 l 0,24.648 c 0,1.063 -0.856,1.918 -1.914,1.918 l -70.219,0 c -1.063,0 -1.914,-0.855 -1.914,-1.918 l 0,-24.648 c 0,-1.062 0.851,-1.914 1.914,-1.914 z" /></g><path
         id="path146"
         style="fill:#000000;fill-opacity:1;fill-rule:nonzero;stroke:none"
         d="m 102.648,101.511 0,-1.703 2.813,0 0,-0.89 -2.813,0 0,-2.016 -1.156,0 0,5.5 4.063,0 0,-0.891 -2.907,0 z" /><path
         id="path148"
         style="fill:#000000;fill-opacity:1;fill-rule:nonzero;stroke:none"
         d="m 107.367,96.824 c -0.199,0 -0.383,0.027 -0.547,0.078 -0.156,0.063 -0.293,0.145 -0.406,0.25 -0.105,0.113 -0.187,0.25 -0.25,0.406 -0.062,0.157 -0.094,0.336 -0.094,0.547 0,0.25 0.039,0.457 0.125,0.625 0.094,0.164 0.211,0.301 0.36,0.406 0.156,0.114 0.332,0.192 0.531,0.235 0.207,0.051 0.426,0.078 0.656,0.078 l 0.906,0.016 0,0.218 c 0,0.157 -0.015,0.282 -0.046,0.375 -0.024,0.102 -0.059,0.188 -0.11,0.25 -0.054,0.071 -0.121,0.117 -0.203,0.141 -0.074,0.031 -0.156,0.047 -0.25,0.047 -0.094,0 -0.18,-0.012 -0.25,-0.031 -0.074,-0.012 -0.137,-0.043 -0.187,-0.094 -0.055,-0.043 -0.094,-0.106 -0.125,-0.188 -0.032,-0.074 -0.055,-0.168 -0.063,-0.281 l -1.156,0.047 c 0.031,0.187 0.086,0.351 0.172,0.5 0.082,0.156 0.195,0.289 0.343,0.406 0.157,0.113 0.336,0.203 0.547,0.266 0.219,0.062 0.473,0.094 0.766,0.094 0.258,0 0.488,-0.04 0.687,-0.11 0.207,-0.062 0.383,-0.164 0.532,-0.297 0.144,-0.125 0.254,-0.281 0.328,-0.468 0.07,-0.188 0.109,-0.403 0.109,-0.641 l 0,-1.547 c 0,-0.094 0.004,-0.184 0.016,-0.266 0.008,-0.074 0.023,-0.14 0.047,-0.203 0.031,-0.054 0.066,-0.093 0.109,-0.125 0.051,-0.023 0.113,-0.031 0.188,-0.031 0.082,0 0.16,0.008 0.234,0.031 l 0,-0.593 c -0.063,-0.024 -0.121,-0.043 -0.172,-0.063 -0.055,-0.008 -0.105,-0.016 -0.156,-0.016 -0.055,-0.007 -0.11,-0.015 -0.172,-0.015 -0.055,-0.008 -0.121,-0.016 -0.203,-0.016 -0.274,0 -0.477,0.067 -0.61,0.203 -0.136,0.133 -0.214,0.332 -0.234,0.594 l -0.031,0 c -0.149,-0.262 -0.336,-0.465 -0.563,-0.609 -0.218,-0.145 -0.496,-0.219 -0.828,-0.219 z m 1.281,2.031 -0.562,0 c -0.117,-0.012 -0.227,-0.023 -0.328,-0.031 -0.106,-0.012 -0.199,-0.043 -0.281,-0.094 -0.086,-0.043 -0.153,-0.109 -0.204,-0.203 -0.043,-0.086 -0.062,-0.199 -0.062,-0.344 0,-0.199 0.047,-0.351 0.141,-0.453 0.093,-0.094 0.218,-0.14 0.375,-0.14 0.132,0 0.257,0.031 0.375,0.093 0.113,0.063 0.21,0.141 0.296,0.235 0.082,0.093 0.145,0.203 0.188,0.328 0.039,0.133 0.062,0.269 0.062,0.406 l 0,0.203 z" /><path
         id="path150"
         style="fill:#000000;fill-opacity:1;fill-rule:nonzero;stroke:none"
         d="m 114.84,99.027 c 0,-0.312 -0.031,-0.605 -0.094,-0.875 -0.062,-0.273 -0.164,-0.508 -0.297,-0.703 -0.137,-0.199 -0.308,-0.356 -0.515,-0.469 -0.2,-0.101 -0.438,-0.156 -0.719,-0.156 -0.125,0 -0.25,0.016 -0.375,0.047 -0.125,0.023 -0.246,0.062 -0.36,0.125 -0.105,0.062 -0.203,0.14 -0.296,0.234 -0.094,0.094 -0.18,0.211 -0.25,0.36 0,-0.063 -0.008,-0.133 -0.016,-0.204 0,-0.062 -0.008,-0.132 -0.016,-0.203 0,-0.062 -0.007,-0.121 -0.015,-0.172 0,-0.054 -0.008,-0.089 -0.016,-0.109 l -1.062,0 c 0.007,0.094 0.015,0.223 0.015,0.391 0.008,0.164 0.016,0.359 0.016,0.578 l 0,4.828 1.094,0 0,-1.609 c 0,-0.086 0,-0.168 0,-0.25 0,-0.086 0,-0.157 0,-0.219 -0.012,-0.086 -0.016,-0.156 -0.016,-0.219 l 0.016,0 c 0.132,0.289 0.316,0.5 0.546,0.625 0.227,0.125 0.5,0.188 0.813,0.188 0.269,0 0.5,-0.059 0.687,-0.172 0.196,-0.106 0.36,-0.258 0.485,-0.453 0.125,-0.188 0.219,-0.418 0.281,-0.688 0.063,-0.262 0.094,-0.555 0.094,-0.875 z m -1.141,0 c 0,0.477 -0.074,0.832 -0.219,1.063 -0.136,0.238 -0.355,0.359 -0.656,0.359 -0.105,0 -0.215,-0.027 -0.328,-0.078 -0.105,-0.043 -0.203,-0.121 -0.297,-0.235 -0.086,-0.105 -0.152,-0.25 -0.203,-0.437 -0.055,-0.188 -0.078,-0.422 -0.078,-0.703 0,-0.274 0.023,-0.5 0.078,-0.688 0.051,-0.179 0.117,-0.324 0.203,-0.437 0.082,-0.106 0.176,-0.184 0.281,-0.235 0.114,-0.043 0.227,-0.062 0.344,-0.062 0.281,0 0.492,0.113 0.641,0.344 0.156,0.226 0.234,0.597 0.234,1.109 z" /><path
         id="path152"
         style="fill:#000000;fill-opacity:1;fill-rule:nonzero;stroke:none"
         d="m 115.715,96.902 0,3.234 c 0,0.094 0,0.188 0,0.282 0,0.101 -0.008,0.203 -0.016,0.297 0,0.093 -0.008,0.175 -0.015,0.25 0,0.07 0,0.128 0,0.171 l 1.046,0 c 0,-0.031 0,-0.089 0,-0.171 0.008,-0.075 0.016,-0.157 0.016,-0.25 0.008,-0.094 0.016,-0.188 0.016,-0.282 0.008,-0.086 0.015,-0.152 0.015,-0.203 l 0.016,0 c 0.051,0.156 0.102,0.289 0.156,0.406 0.063,0.125 0.129,0.227 0.203,0.313 0.071,0.082 0.16,0.144 0.266,0.187 0.102,0.051 0.234,0.079 0.391,0.079 0.062,0 0.125,-0.008 0.187,-0.016 0.063,-0.012 0.113,-0.027 0.156,-0.047 l 0,-0.922 c -0.074,0.02 -0.148,0.035 -0.218,0.047 -0.075,0.008 -0.157,0.016 -0.25,0.016 -0.282,0 -0.5,-0.11 -0.657,-0.328 -0.148,-0.219 -0.218,-0.547 -0.218,-0.985 l 0,-2.078 -1.094,0 z" /><path
         id="path154"
         style="fill:#000000;fill-opacity:1;fill-rule:nonzero;stroke:none"
         d="m 118.812,101.886 0,0.813 1.094,0 0,-0.813 -1.094,0 z m 0,-4.984 0,4.234 1.094,0 0,-4.234 -1.094,0 z" /><path
         id="path156"
         style="fill:#000000;fill-opacity:1;fill-rule:nonzero;stroke:none"
         d="m 122.789,96.824 c -0.344,0 -0.641,0.055 -0.891,0.156 -0.25,0.102 -0.46,0.25 -0.625,0.438 -0.168,0.195 -0.293,0.425 -0.375,0.687 -0.086,0.27 -0.125,0.567 -0.125,0.891 0,0.351 0.047,0.664 0.141,0.937 0.094,0.27 0.223,0.5 0.391,0.688 0.175,0.195 0.39,0.344 0.64,0.437 0.25,0.102 0.535,0.157 0.86,0.157 0.269,0 0.507,-0.04 0.718,-0.11 0.219,-0.074 0.399,-0.18 0.547,-0.312 0.157,-0.125 0.282,-0.278 0.375,-0.453 0.094,-0.168 0.16,-0.352 0.203,-0.547 l -1.109,-0.047 c -0.031,0.219 -0.109,0.39 -0.234,0.515 -0.125,0.125 -0.305,0.188 -0.532,0.188 -0.293,0 -0.507,-0.121 -0.64,-0.359 -0.137,-0.243 -0.203,-0.59 -0.203,-1.047 0,-0.981 0.285,-1.469 0.859,-1.469 0.207,0 0.379,0.062 0.516,0.187 0.144,0.133 0.234,0.332 0.265,0.594 l 1.11,-0.047 c -0.032,-0.199 -0.094,-0.386 -0.188,-0.562 -0.086,-0.18 -0.211,-0.336 -0.375,-0.469 -0.156,-0.137 -0.351,-0.246 -0.578,-0.328 -0.219,-0.082 -0.469,-0.125 -0.75,-0.125 z" /><path
         id="path158"
         style="fill:#000000;fill-opacity:1;fill-rule:nonzero;stroke:none"
         d="m 126.434,96.824 c -0.2,0 -0.383,0.027 -0.547,0.078 -0.157,0.063 -0.293,0.145 -0.407,0.25 -0.105,0.113 -0.187,0.25 -0.25,0.406 -0.062,0.157 -0.093,0.336 -0.093,0.547 0,0.25 0.039,0.457 0.125,0.625 0.093,0.164 0.211,0.301 0.359,0.406 0.156,0.114 0.332,0.192 0.531,0.235 0.207,0.051 0.426,0.078 0.657,0.078 l 0.906,0.016 0,0.218 c 0,0.157 -0.016,0.282 -0.047,0.375 -0.023,0.102 -0.059,0.188 -0.109,0.25 -0.055,0.071 -0.121,0.117 -0.204,0.141 -0.074,0.031 -0.156,0.047 -0.25,0.047 -0.093,0 -0.179,-0.012 -0.25,-0.031 -0.074,-0.012 -0.136,-0.043 -0.187,-0.094 -0.055,-0.043 -0.094,-0.106 -0.125,-0.188 -0.031,-0.074 -0.055,-0.168 -0.063,-0.281 l -1.156,0.047 c 0.031,0.187 0.086,0.351 0.172,0.5 0.082,0.156 0.195,0.289 0.344,0.406 0.156,0.113 0.336,0.203 0.547,0.266 0.218,0.062 0.472,0.094 0.765,0.094 0.258,0 0.489,-0.04 0.688,-0.11 0.207,-0.062 0.383,-0.164 0.531,-0.297 0.145,-0.125 0.254,-0.281 0.328,-0.468 0.071,-0.188 0.11,-0.403 0.11,-0.641 l 0,-1.547 c 0,-0.094 0.003,-0.184 0.015,-0.266 0.008,-0.074 0.024,-0.14 0.047,-0.203 0.031,-0.054 0.067,-0.093 0.109,-0.125 0.051,-0.023 0.114,-0.031 0.188,-0.031 0.082,0 0.16,0.008 0.234,0.031 l 0,-0.593 c -0.062,-0.024 -0.121,-0.043 -0.172,-0.063 -0.054,-0.008 -0.105,-0.016 -0.156,-0.016 -0.054,-0.007 -0.109,-0.015 -0.172,-0.015 -0.054,-0.008 -0.121,-0.016 -0.203,-0.016 -0.273,0 -0.476,0.067 -0.609,0.203 -0.137,0.133 -0.215,0.332 -0.235,0.594 l -0.031,0 c -0.148,-0.262 -0.336,-0.465 -0.562,-0.609 -0.219,-0.145 -0.496,-0.219 -0.828,-0.219 z m 1.281,2.031 -0.563,0 c -0.117,-0.012 -0.226,-0.023 -0.328,-0.031 -0.105,-0.012 -0.199,-0.043 -0.281,-0.094 -0.086,-0.043 -0.152,-0.109 -0.203,-0.203 -0.043,-0.086 -0.063,-0.199 -0.063,-0.344 0,-0.199 0.047,-0.351 0.141,-0.453 0.094,-0.094 0.219,-0.14 0.375,-0.14 0.133,0 0.258,0.031 0.375,0.093 0.113,0.063 0.211,0.141 0.297,0.235 0.082,0.093 0.144,0.203 0.187,0.328 0.039,0.133 0.063,0.269 0.063,0.406 l 0,0.203 z" /><path
         id="path160"
         style="fill:#000000;fill-opacity:1;fill-rule:nonzero;stroke:none"
         d="m 130.98,96.824 c -0.324,0 -0.574,0.086 -0.75,0.266 -0.168,0.175 -0.25,0.445 -0.25,0.812 l 0,2.484 -0.546,0 0,0.75 0.593,0 0.344,0.985 0.688,0 0,-0.985 0.796,0 0,-0.75 -0.796,0 0,-2.187 c 0,-0.211 0.035,-0.367 0.109,-0.469 0.082,-0.094 0.207,-0.14 0.375,-0.14 0.062,0 0.117,0.003 0.172,0.015 0.062,0.008 0.125,0.024 0.187,0.047 l 0,-0.687 c -0.136,-0.043 -0.281,-0.071 -0.437,-0.094 -0.149,-0.031 -0.309,-0.047 -0.485,-0.047 z" /><path
         id="path162"
         style="fill:#000000;fill-opacity:1;fill-rule:nonzero;stroke:none"
         d="m 132.566,101.886 0,0.813 1.094,0 0,-0.813 -1.094,0 z m 0,-4.984 0,4.234 1.094,0 0,-4.234 -1.094,0 z" /><path
         id="path164"
         style="fill:#000000;fill-opacity:1;fill-rule:nonzero;stroke:none"
         d="m 138.793,99.027 c 0,-0.324 -0.047,-0.621 -0.141,-0.891 -0.086,-0.273 -0.218,-0.507 -0.406,-0.703 -0.18,-0.187 -0.402,-0.34 -0.672,-0.453 -0.262,-0.101 -0.574,-0.156 -0.937,-0.156 -0.344,0 -0.649,0.055 -0.907,0.156 -0.261,0.113 -0.48,0.266 -0.656,0.453 -0.179,0.196 -0.312,0.426 -0.406,0.688 -0.094,0.269 -0.141,0.57 -0.141,0.906 0,0.313 0.039,0.598 0.125,0.859 0.094,0.27 0.227,0.504 0.407,0.704 0.175,0.195 0.394,0.347 0.656,0.453 0.269,0.113 0.586,0.172 0.953,0.172 0.375,0 0.695,-0.059 0.969,-0.172 0.269,-0.106 0.488,-0.258 0.656,-0.453 0.176,-0.2 0.301,-0.434 0.375,-0.704 0.082,-0.261 0.125,-0.546 0.125,-0.859 z m -1.156,0 c 0,0.5 -0.086,0.859 -0.25,1.078 -0.157,0.227 -0.391,0.344 -0.703,0.344 -0.325,0 -0.575,-0.117 -0.75,-0.344 -0.168,-0.23 -0.25,-0.59 -0.25,-1.078 0,-0.262 0.019,-0.484 0.062,-0.672 0.051,-0.18 0.117,-0.324 0.203,-0.437 0.082,-0.118 0.18,-0.203 0.297,-0.266 0.113,-0.055 0.242,-0.078 0.391,-0.078 0.156,0 0.297,0.023 0.422,0.078 0.125,0.063 0.226,0.148 0.312,0.266 0.094,0.113 0.16,0.257 0.203,0.437 0.039,0.188 0.063,0.41 0.063,0.672 z" /><path
         id="path166"
         style="fill:#000000;fill-opacity:1;fill-rule:nonzero;stroke:none"
         d="m 142.387,96.902 0,2.375 c 0,0.164 -0.016,0.316 -0.047,0.453 -0.024,0.133 -0.063,0.25 -0.125,0.344 -0.055,0.101 -0.133,0.18 -0.235,0.234 -0.093,0.051 -0.21,0.078 -0.343,0.078 -0.137,0 -0.262,-0.031 -0.375,-0.093 -0.106,-0.055 -0.2,-0.137 -0.282,-0.25 -0.074,-0.106 -0.132,-0.235 -0.171,-0.391 -0.043,-0.148 -0.063,-0.309 -0.063,-0.484 l 0,-2.266 -1.094,0 0,3.281 c 0,0.094 0,0.188 0,0.282 0,0.093 -0.007,0.179 -0.015,0.265 0,0.094 -0.008,0.172 -0.016,0.235 0,0.07 0,0.128 0,0.171 l 1.047,0 c 0,-0.031 0,-0.086 0,-0.156 0.008,-0.074 0.016,-0.152 0.016,-0.234 0.007,-0.086 0.015,-0.168 0.015,-0.25 0.008,-0.086 0.016,-0.153 0.016,-0.203 l 0.015,0 c 0.145,0.32 0.329,0.554 0.547,0.703 0.227,0.144 0.5,0.219 0.813,0.219 0.258,0 0.472,-0.043 0.64,-0.125 0.176,-0.086 0.321,-0.2 0.438,-0.344 0.113,-0.149 0.191,-0.321 0.234,-0.516 0.051,-0.199 0.078,-0.414 0.078,-0.64 l 0,-2.688 -1.093,0 z" /><path
         id="path168"
         style="fill:#000000;fill-opacity:1;fill-rule:nonzero;stroke:none"
         d="m 111.383,87.218 0,3.344 c 0,0.125 0,0.254 0,0.391 0.008,0.144 0.015,0.281 0.015,0.406 0.008,0.133 0.016,0.266 0.016,0.391 -0.055,-0.2 -0.105,-0.391 -0.156,-0.578 -0.024,-0.086 -0.043,-0.168 -0.063,-0.25 -0.023,-0.086 -0.043,-0.168 -0.062,-0.25 -0.024,-0.075 -0.043,-0.149 -0.063,-0.219 -0.023,-0.063 -0.043,-0.117 -0.062,-0.156 l -0.985,-3.079 -0.828,0 -0.984,3.079 c -0.023,0.039 -0.043,0.093 -0.063,0.156 -0.023,0.07 -0.043,0.144 -0.062,0.219 -0.024,0.082 -0.043,0.164 -0.063,0.25 -0.023,0.082 -0.046,0.164 -0.078,0.25 -0.054,0.187 -0.105,0.378 -0.156,0.578 0.008,-0.149 0.016,-0.293 0.016,-0.438 0.007,-0.125 0.015,-0.262 0.015,-0.406 0.008,-0.137 0.016,-0.25 0.016,-0.344 l 0,-3.344 -1.031,0 0,5.5 1.547,0 0.984,-3.078 c 0.031,-0.074 0.055,-0.172 0.078,-0.297 0.031,-0.117 0.063,-0.226 0.094,-0.328 0.031,-0.136 0.066,-0.273 0.109,-0.406 0.031,0.133 0.063,0.266 0.094,0.391 0.019,0.05 0.035,0.101 0.047,0.156 0.019,0.062 0.035,0.117 0.047,0.172 0.019,0.062 0.035,0.113 0.047,0.156 0.019,0.051 0.035,0.098 0.046,0.141 l 0.969,3.093 1.531,0 0,-5.5 -1.015,0 z" /><path
         id="path170"
         style="fill:#000000;fill-opacity:1;fill-rule:nonzero;stroke:none"
         d="m 115.223,87.14 c -0.313,0 -0.59,0.043 -0.828,0.125 -0.243,0.094 -0.45,0.235 -0.625,0.422 -0.168,0.188 -0.297,0.414 -0.391,0.688 -0.094,0.281 -0.141,0.609 -0.141,0.984 0,0.395 0.051,0.727 0.157,1 0.113,0.281 0.257,0.504 0.437,0.672 0.188,0.176 0.398,0.301 0.641,0.375 0.238,0.082 0.492,0.125 0.765,0.125 0.332,0 0.614,-0.063 0.844,-0.188 0.238,-0.117 0.43,-0.277 0.578,-0.484 0.156,-0.211 0.266,-0.461 0.328,-0.75 0.071,-0.281 0.11,-0.602 0.11,-0.953 l 0,-0.031 -2.703,0 c 0,-0.18 0.015,-0.344 0.046,-0.5 0.032,-0.149 0.079,-0.278 0.141,-0.391 0.07,-0.117 0.164,-0.203 0.281,-0.266 0.114,-0.062 0.25,-0.093 0.407,-0.093 0.195,0 0.351,0.039 0.468,0.125 0.125,0.082 0.211,0.207 0.266,0.375 l 1.031,-0.078 c -0.043,-0.125 -0.105,-0.258 -0.187,-0.391 -0.086,-0.137 -0.2,-0.262 -0.344,-0.375 -0.137,-0.117 -0.313,-0.211 -0.531,-0.281 -0.211,-0.071 -0.461,-0.11 -0.75,-0.11 z m 0,3.688 c -0.118,0 -0.227,-0.024 -0.328,-0.063 -0.094,-0.031 -0.18,-0.09 -0.25,-0.172 -0.075,-0.086 -0.133,-0.195 -0.172,-0.328 -0.043,-0.125 -0.071,-0.277 -0.078,-0.453 l 1.64,0 c -0.023,0.344 -0.105,0.598 -0.25,0.766 -0.137,0.164 -0.324,0.25 -0.562,0.25 z" /><path
         id="path172"
         style="fill:#000000;fill-opacity:1;fill-rule:nonzero;stroke:none"
         d="m 121.488,88.453 c 0,-0.199 -0.043,-0.383 -0.125,-0.547 -0.086,-0.156 -0.211,-0.293 -0.375,-0.406 -0.156,-0.118 -0.355,-0.203 -0.593,-0.266 -0.231,-0.062 -0.497,-0.094 -0.797,-0.094 -0.274,0 -0.516,0.024 -0.735,0.063 -0.211,0.039 -0.398,0.101 -0.562,0.187 -0.168,0.094 -0.309,0.207 -0.422,0.344 -0.106,0.145 -0.184,0.328 -0.234,0.547 l 0.968,0.141 c 0.032,-0.118 0.071,-0.211 0.125,-0.282 0.051,-0.074 0.117,-0.133 0.203,-0.172 0.082,-0.043 0.176,-0.07 0.282,-0.078 0.113,-0.011 0.238,-0.015 0.375,-0.015 0.125,0 0.238,0.004 0.343,0.015 0.114,0.008 0.207,0.032 0.282,0.063 0.082,0.039 0.144,0.094 0.187,0.156 0.039,0.063 0.063,0.145 0.063,0.25 0,0.102 -0.032,0.188 -0.094,0.25 -0.063,0.063 -0.152,0.113 -0.266,0.156 -0.105,0.039 -0.234,0.078 -0.39,0.11 -0.149,0.031 -0.305,0.066 -0.469,0.109 -0.18,0.031 -0.356,0.07 -0.531,0.125 -0.168,0.063 -0.321,0.141 -0.453,0.234 -0.137,0.094 -0.247,0.211 -0.329,0.36 -0.086,0.144 -0.125,0.328 -0.125,0.547 0,0.195 0.036,0.375 0.11,0.531 0.082,0.156 0.195,0.289 0.344,0.406 0.156,0.113 0.343,0.195 0.562,0.25 0.227,0.063 0.484,0.094 0.766,0.094 0.226,0 0.441,-0.024 0.64,-0.063 0.196,-0.043 0.375,-0.109 0.532,-0.203 0.156,-0.093 0.285,-0.215 0.39,-0.359 0.113,-0.149 0.192,-0.32 0.235,-0.516 l -0.985,-0.109 c -0.012,0.101 -0.043,0.187 -0.094,0.25 -0.043,0.07 -0.101,0.125 -0.171,0.156 -0.075,0.039 -0.157,0.067 -0.25,0.078 -0.086,0.02 -0.184,0.032 -0.297,0.032 -0.262,0 -0.461,-0.04 -0.594,-0.11 -0.125,-0.062 -0.188,-0.172 -0.188,-0.328 0,-0.094 0.024,-0.172 0.079,-0.234 0.062,-0.055 0.14,-0.102 0.234,-0.141 0.094,-0.031 0.207,-0.062 0.344,-0.094 0.132,-0.023 0.281,-0.054 0.437,-0.093 0.195,-0.043 0.391,-0.094 0.578,-0.157 0.188,-0.054 0.352,-0.133 0.5,-0.234 0.157,-0.094 0.274,-0.219 0.36,-0.375 0.093,-0.149 0.14,-0.34 0.14,-0.578 z" /><path
         id="path174"
         style="fill:#000000;fill-opacity:1;fill-rule:nonzero;stroke:none"
         d="m 123.395,91.453 0,-2.375 c 0,-0.168 0.007,-0.321 0.031,-0.453 0.031,-0.137 0.078,-0.258 0.14,-0.36 0.063,-0.093 0.141,-0.168 0.235,-0.218 0.094,-0.055 0.207,-0.079 0.344,-0.079 0.132,0 0.253,0.024 0.359,0.079 0.113,0.062 0.207,0.144 0.281,0.25 0.082,0.113 0.145,0.242 0.188,0.39 0.039,0.145 0.062,0.313 0.062,0.5 l 0,2.266 1.094,0 0,-3.281 c 0,-0.094 0,-0.196 0,-0.297 0,-0.094 0,-0.184 0,-0.266 0.008,-0.086 0.016,-0.164 0.016,-0.234 0.007,-0.075 0.015,-0.125 0.015,-0.157 l -1.047,0 c 0,0.032 -0.008,0.079 -0.015,0.141 0,0.07 -0.008,0.148 -0.016,0.234 0,0.082 -0.008,0.164 -0.016,0.25 0,0.082 0,0.157 0,0.219 l -0.015,0 c -0.149,-0.324 -0.336,-0.558 -0.563,-0.703 -0.218,-0.144 -0.484,-0.219 -0.797,-0.219 -0.25,0 -0.464,0.043 -0.64,0.125 -0.18,0.082 -0.324,0.196 -0.438,0.344 -0.117,0.145 -0.199,0.316 -0.25,0.516 -0.043,0.195 -0.062,0.41 -0.062,0.64 l 0,2.688 1.094,0 z" /><path
         id="path176"
         style="fill:#000000;fill-opacity:1;fill-rule:nonzero;stroke:none"
         d="m 127.238,87.218 0,3.235 c 0,0.094 0,0.187 0,0.281 0,0.102 -0.008,0.203 -0.015,0.297 0,0.094 -0.008,0.176 -0.016,0.25 0,0.07 0,0.129 0,0.172 l 1.047,0 c 0,-0.031 0,-0.09 0,-0.172 0.008,-0.074 0.016,-0.156 0.016,-0.25 0.007,-0.094 0.015,-0.188 0.015,-0.281 0.008,-0.086 0.016,-0.153 0.016,-0.203 l 0.015,0 c 0.051,0.156 0.102,0.289 0.157,0.406 0.062,0.125 0.129,0.226 0.203,0.312 0.07,0.082 0.16,0.145 0.265,0.188 0.102,0.051 0.235,0.078 0.391,0.078 0.063,0 0.125,-0.008 0.188,-0.016 0.062,-0.011 0.113,-0.027 0.156,-0.047 l 0,-0.921 c -0.074,0.019 -0.149,0.035 -0.219,0.046 -0.074,0.008 -0.156,0.016 -0.25,0.016 -0.281,0 -0.5,-0.109 -0.656,-0.328 -0.149,-0.219 -0.219,-0.547 -0.219,-0.984 l 0,-2.079 -1.094,0 z" /><path
         id="path178"
         style="fill:#000000;fill-opacity:1;fill-rule:nonzero;stroke:none"
         d="m 132.074,87.14 c -0.312,0 -0.59,0.043 -0.828,0.125 -0.242,0.094 -0.449,0.235 -0.625,0.422 -0.168,0.188 -0.297,0.414 -0.391,0.688 -0.093,0.281 -0.14,0.609 -0.14,0.984 0,0.395 0.051,0.727 0.156,1 0.113,0.281 0.258,0.504 0.438,0.672 0.187,0.176 0.398,0.301 0.64,0.375 0.238,0.082 0.492,0.125 0.766,0.125 0.332,0 0.613,-0.063 0.844,-0.188 0.238,-0.117 0.429,-0.277 0.578,-0.484 0.156,-0.211 0.265,-0.461 0.328,-0.75 0.07,-0.281 0.109,-0.602 0.109,-0.953 l 0,-0.031 -2.703,0 c 0,-0.18 0.016,-0.344 0.047,-0.5 0.031,-0.149 0.078,-0.278 0.141,-0.391 0.07,-0.117 0.164,-0.203 0.281,-0.266 0.113,-0.062 0.25,-0.093 0.406,-0.093 0.195,0 0.352,0.039 0.469,0.125 0.125,0.082 0.211,0.207 0.265,0.375 l 1.032,-0.078 c -0.043,-0.125 -0.106,-0.258 -0.188,-0.391 -0.086,-0.137 -0.199,-0.262 -0.344,-0.375 -0.136,-0.117 -0.312,-0.211 -0.531,-0.281 -0.211,-0.071 -0.461,-0.11 -0.75,-0.11 z m 0,3.688 c -0.117,0 -0.226,-0.024 -0.328,-0.063 -0.094,-0.031 -0.18,-0.09 -0.25,-0.172 -0.074,-0.086 -0.133,-0.195 -0.172,-0.328 -0.043,-0.125 -0.07,-0.277 -0.078,-0.453 l 1.641,0 c -0.024,0.344 -0.106,0.598 -0.25,0.766 -0.137,0.164 -0.325,0.25 -0.563,0.25 z" /><path
         id="path180"
         style="fill:#000000;fill-opacity:1;fill-rule:nonzero;stroke:none"
         d="m 138.34,88.453 c 0,-0.199 -0.043,-0.383 -0.125,-0.547 -0.086,-0.156 -0.211,-0.293 -0.375,-0.406 -0.156,-0.118 -0.356,-0.203 -0.594,-0.266 -0.23,-0.062 -0.496,-0.094 -0.797,-0.094 -0.273,0 -0.515,0.024 -0.734,0.063 -0.211,0.039 -0.399,0.101 -0.563,0.187 -0.168,0.094 -0.308,0.207 -0.422,0.344 -0.105,0.145 -0.183,0.328 -0.234,0.547 l 0.969,0.141 c 0.031,-0.118 0.07,-0.211 0.125,-0.282 0.051,-0.074 0.117,-0.133 0.203,-0.172 0.082,-0.043 0.176,-0.07 0.281,-0.078 0.114,-0.011 0.238,-0.015 0.375,-0.015 0.125,0 0.239,0.004 0.344,0.015 0.113,0.008 0.207,0.032 0.281,0.063 0.082,0.039 0.145,0.094 0.188,0.156 0.039,0.063 0.062,0.145 0.062,0.25 0,0.102 -0.031,0.188 -0.094,0.25 -0.062,0.063 -0.152,0.113 -0.265,0.156 -0.106,0.039 -0.235,0.078 -0.391,0.11 -0.148,0.031 -0.304,0.066 -0.469,0.109 -0.179,0.031 -0.355,0.07 -0.531,0.125 -0.168,0.063 -0.32,0.141 -0.453,0.234 -0.137,0.094 -0.246,0.211 -0.328,0.36 -0.086,0.144 -0.125,0.328 -0.125,0.547 0,0.195 0.035,0.375 0.109,0.531 0.082,0.156 0.196,0.289 0.344,0.406 0.156,0.113 0.344,0.195 0.563,0.25 0.226,0.063 0.484,0.094 0.765,0.094 0.227,0 0.442,-0.024 0.641,-0.063 0.195,-0.043 0.375,-0.109 0.531,-0.203 0.156,-0.093 0.285,-0.215 0.391,-0.359 0.113,-0.149 0.191,-0.32 0.234,-0.516 l -0.984,-0.109 c -0.012,0.101 -0.043,0.187 -0.094,0.25 -0.043,0.07 -0.102,0.125 -0.172,0.156 -0.074,0.039 -0.156,0.067 -0.25,0.078 -0.086,0.02 -0.184,0.032 -0.297,0.032 -0.261,0 -0.461,-0.04 -0.594,-0.11 -0.125,-0.062 -0.187,-0.172 -0.187,-0.328 0,-0.094 0.023,-0.172 0.078,-0.234 0.063,-0.055 0.141,-0.102 0.234,-0.141 0.094,-0.031 0.208,-0.062 0.344,-0.094 0.133,-0.023 0.281,-0.054 0.438,-0.093 0.195,-0.043 0.39,-0.094 0.578,-0.157 0.187,-0.054 0.351,-0.133 0.5,-0.234 0.156,-0.094 0.273,-0.219 0.359,-0.375 0.094,-0.149 0.141,-0.34 0.141,-0.578 z" /><g
         transform="matrix(1,0,0,-1,0,262.5856)"
         id="g182"><path
           id="path184"
           style="fill:#008080;fill-opacity:1;fill-rule:nonzero;stroke:#000000;stroke-width:0.71200001;stroke-linecap:butt;stroke-linejoin:miter;stroke-miterlimit:4;stroke-dasharray:none;stroke-opacity:1"
           d="m 292.766,153.793 70.218,0 c 1.063,0 1.914,0.852 1.914,1.914 l 0,24.648 c 0,1.063 -0.851,1.918 -1.914,1.918 l -70.218,0 c -1.059,0 -1.914,-0.855 -1.914,-1.918 l 0,-24.648 c 0,-1.062 0.855,-1.914 1.914,-1.914 z" /></g><path
         id="path186"
         style="fill:#000000;fill-opacity:1;fill-rule:nonzero;stroke:none"
         d="m 309.035,94.843 c 0,-0.429 -0.07,-0.82 -0.203,-1.171 -0.125,-0.356 -0.309,-0.657 -0.547,-0.907 -0.242,-0.25 -0.531,-0.445 -0.875,-0.578 -0.344,-0.133 -0.734,-0.203 -1.172,-0.203 -0.461,0 -0.859,0.07 -1.203,0.203 -0.344,0.145 -0.637,0.344 -0.875,0.594 -0.23,0.258 -0.402,0.562 -0.515,0.906 -0.118,0.352 -0.172,0.738 -0.172,1.156 0,0.426 0.054,0.813 0.172,1.157 0.125,0.351 0.304,0.648 0.546,0.89 0.239,0.239 0.532,0.426 0.875,0.563 0.344,0.133 0.739,0.203 1.188,0.203 0.445,0 0.844,-0.07 1.187,-0.203 0.344,-0.137 0.629,-0.328 0.86,-0.578 0.238,-0.243 0.422,-0.532 0.547,-0.875 0.125,-0.344 0.187,-0.731 0.187,-1.157 z m -1.172,0 c 0,0.289 -0.039,0.551 -0.109,0.782 -0.074,0.226 -0.18,0.425 -0.313,0.593 -0.136,0.164 -0.304,0.297 -0.5,0.391 -0.199,0.094 -0.429,0.141 -0.687,0.141 -0.274,0 -0.512,-0.047 -0.719,-0.141 -0.199,-0.094 -0.367,-0.227 -0.5,-0.391 -0.137,-0.168 -0.242,-0.367 -0.312,-0.593 -0.063,-0.231 -0.094,-0.493 -0.094,-0.782 0,-0.293 0.035,-0.558 0.109,-0.796 0.071,-0.231 0.176,-0.434 0.313,-0.61 0.133,-0.168 0.301,-0.305 0.5,-0.406 0.195,-0.094 0.426,-0.141 0.687,-0.141 0.282,0 0.52,0.047 0.719,0.141 0.207,0.101 0.379,0.238 0.516,0.406 0.132,0.176 0.234,0.383 0.297,0.625 0.062,0.238 0.093,0.5 0.093,0.781 z" /><path
         id="path188"
         style="fill:#000000;fill-opacity:1;fill-rule:nonzero;stroke:none"
         d="m 313.906,94.203 c 0,-0.324 -0.031,-0.621 -0.094,-0.891 -0.062,-0.273 -0.164,-0.508 -0.296,-0.703 -0.137,-0.199 -0.309,-0.355 -0.516,-0.469 -0.199,-0.101 -0.438,-0.156 -0.719,-0.156 -0.125,0 -0.25,0.016 -0.375,0.047 -0.125,0.023 -0.246,0.055 -0.359,0.109 -0.106,0.063 -0.203,0.141 -0.297,0.235 -0.094,0.101 -0.18,0.222 -0.25,0.359 l -0.016,0 c 0,-0.012 0,-0.043 0,-0.094 0,-0.054 0,-0.117 0,-0.187 0.008,-0.063 0.016,-0.137 0.016,-0.219 0,-0.074 0,-0.148 0,-0.219 l 0,-1.609 -1.094,0 0,4.906 c 0,0.219 -0.008,0.41 -0.015,0.578 0,0.176 -0.008,0.313 -0.016,0.407 l 1.063,0 c 0.007,-0.024 0.015,-0.059 0.015,-0.11 0.008,-0.055 0.016,-0.117 0.016,-0.187 0.008,-0.063 0.015,-0.133 0.015,-0.203 0,-0.075 0,-0.137 0,-0.188 l 0.016,0 c 0.133,0.27 0.316,0.461 0.547,0.578 0.226,0.125 0.5,0.188 0.812,0.188 0.258,0 0.489,-0.059 0.688,-0.172 0.195,-0.106 0.359,-0.258 0.484,-0.453 0.125,-0.188 0.219,-0.418 0.281,-0.688 0.063,-0.262 0.094,-0.547 0.094,-0.859 z m -1.14,0 c 0,0.476 -0.075,0.832 -0.219,1.062 -0.149,0.239 -0.367,0.36 -0.656,0.36 -0.118,0 -0.227,-0.028 -0.329,-0.078 -0.105,-0.043 -0.203,-0.122 -0.296,-0.235 -0.086,-0.105 -0.153,-0.25 -0.204,-0.437 -0.054,-0.188 -0.078,-0.422 -0.078,-0.703 0,-0.282 0.024,-0.516 0.078,-0.704 0.051,-0.179 0.118,-0.324 0.204,-0.437 0.082,-0.106 0.175,-0.184 0.281,-0.234 0.113,-0.043 0.223,-0.063 0.328,-0.063 0.145,0 0.27,0.023 0.375,0.078 0.113,0.063 0.207,0.149 0.281,0.266 0.071,0.125 0.129,0.273 0.172,0.453 0.039,0.187 0.063,0.41 0.063,0.672 z" /><path
         id="path190"
         style="fill:#000000;fill-opacity:1;fill-rule:nonzero;stroke:none"
         d="m 315.859,91.984 c -0.324,0 -0.574,0.086 -0.75,0.266 -0.168,0.175 -0.25,0.445 -0.25,0.812 l 0,2.485 -0.547,0 0,0.75 0.594,0 0.344,0.984 0.688,0 0,-0.984 0.796,0 0,-0.75 -0.796,0 0,-2.188 c 0,-0.211 0.035,-0.367 0.109,-0.469 0.082,-0.093 0.207,-0.14 0.375,-0.14 0.062,0 0.117,0.004 0.172,0.015 0.062,0.008 0.125,0.024 0.187,0.047 l 0,-0.687 c -0.136,-0.043 -0.281,-0.071 -0.437,-0.094 -0.149,-0.031 -0.309,-0.047 -0.485,-0.047 z" /><path
         id="path192"
         style="fill:#000000;fill-opacity:1;fill-rule:nonzero;stroke:none"
         d="m 317.445,97.047 0,0.812 1.094,0 0,-0.812 -1.094,0 z m 0,-4.985 0,4.235 1.094,0 0,-4.235 -1.094,0 z" /><path
         id="path194"
         style="fill:#000000;fill-opacity:1;fill-rule:nonzero;stroke:none"
         d="m 322.141,92.062 0,2.375 c 0,0.164 -0.012,0.317 -0.032,0.453 -0.023,0.133 -0.058,0.25 -0.109,0.344 -0.055,0.102 -0.121,0.18 -0.203,0.234 -0.086,0.051 -0.184,0.079 -0.297,0.079 -0.117,0 -0.219,-0.032 -0.312,-0.094 -0.086,-0.055 -0.165,-0.137 -0.235,-0.25 -0.062,-0.106 -0.117,-0.235 -0.156,-0.391 -0.031,-0.148 -0.047,-0.308 -0.047,-0.484 l 0,-2.266 -1.094,0 0,3.281 c 0,0.094 0,0.188 0,0.282 0,0.093 -0.008,0.179 -0.015,0.265 0,0.094 -0.008,0.172 -0.016,0.235 0,0.07 0,0.129 0,0.172 l 1.047,0 c 0,-0.032 0,-0.086 0,-0.157 0.008,-0.074 0.016,-0.152 0.016,-0.234 0.007,-0.086 0.015,-0.168 0.015,-0.25 0.008,-0.086 0.016,-0.152 0.016,-0.203 l 0.015,0 c 0.133,0.32 0.301,0.554 0.5,0.703 0.207,0.144 0.454,0.219 0.735,0.219 0.32,0 0.582,-0.078 0.781,-0.235 0.195,-0.156 0.328,-0.386 0.391,-0.687 l 0.031,0 c 0.07,0.176 0.148,0.32 0.234,0.437 0.094,0.114 0.192,0.207 0.297,0.282 0.102,0.07 0.219,0.125 0.344,0.156 0.125,0.031 0.258,0.047 0.406,0.047 0.227,0 0.422,-0.043 0.578,-0.125 0.164,-0.086 0.297,-0.2 0.391,-0.344 0.101,-0.149 0.176,-0.32 0.219,-0.516 0.05,-0.199 0.078,-0.414 0.078,-0.64 l 0,-2.688 -1.094,0 0,2.375 c 0,0.164 -0.012,0.317 -0.031,0.453 -0.024,0.133 -0.059,0.25 -0.11,0.344 -0.054,0.102 -0.121,0.18 -0.203,0.234 -0.086,0.051 -0.183,0.079 -0.297,0.079 -0.117,0 -0.218,-0.032 -0.312,-0.094 -0.086,-0.055 -0.164,-0.133 -0.234,-0.235 -0.063,-0.093 -0.118,-0.214 -0.157,-0.359 -0.031,-0.148 -0.047,-0.309 -0.047,-0.484 l 0,-2.313 -1.093,0 z" /><path
         id="path196"
         style="fill:#000000;fill-opacity:1;fill-rule:nonzero;stroke:none"
         d="m 326.742,97.047 0,0.812 1.094,0 0,-0.812 -1.094,0 z m 0,-4.985 0,4.235 1.094,0 0,-4.235 -1.094,0 z" /><path
         id="path198"
         style="fill:#000000;fill-opacity:1;fill-rule:nonzero;stroke:none"
         d="m 332.516,93.297 c 0,-0.2 -0.043,-0.383 -0.125,-0.547 -0.086,-0.157 -0.211,-0.293 -0.375,-0.407 -0.157,-0.117 -0.356,-0.203 -0.594,-0.265 -0.231,-0.063 -0.496,-0.094 -0.797,-0.094 -0.273,0 -0.516,0.023 -0.734,0.063 -0.211,0.039 -0.399,0.101 -0.563,0.187 -0.168,0.094 -0.308,0.207 -0.422,0.344 -0.105,0.144 -0.183,0.328 -0.234,0.547 l 0.969,0.14 c 0.031,-0.117 0.07,-0.211 0.125,-0.281 0.05,-0.074 0.117,-0.133 0.203,-0.172 0.082,-0.043 0.176,-0.07 0.281,-0.078 0.113,-0.012 0.238,-0.016 0.375,-0.016 0.125,0 0.238,0.004 0.344,0.016 0.113,0.008 0.207,0.031 0.281,0.063 0.082,0.039 0.145,0.093 0.188,0.156 0.039,0.062 0.062,0.144 0.062,0.25 0,0.101 -0.031,0.187 -0.094,0.25 -0.062,0.062 -0.152,0.113 -0.265,0.156 -0.106,0.039 -0.235,0.078 -0.391,0.109 -0.148,0.032 -0.305,0.067 -0.469,0.11 -0.179,0.031 -0.355,0.07 -0.531,0.125 -0.168,0.062 -0.32,0.14 -0.453,0.234 -0.137,0.094 -0.246,0.211 -0.328,0.36 -0.086,0.144 -0.125,0.328 -0.125,0.546 0,0.196 0.035,0.375 0.109,0.532 0.082,0.156 0.195,0.289 0.344,0.406 0.156,0.113 0.344,0.195 0.562,0.25 0.227,0.062 0.485,0.094 0.766,0.094 0.227,0 0.441,-0.024 0.641,-0.063 0.195,-0.043 0.375,-0.109 0.531,-0.203 0.156,-0.094 0.285,-0.215 0.391,-0.359 0.113,-0.149 0.191,-0.321 0.234,-0.516 l -0.984,-0.109 c -0.012,0.101 -0.043,0.187 -0.094,0.25 -0.043,0.07 -0.102,0.125 -0.172,0.156 -0.074,0.039 -0.156,0.066 -0.25,0.078 -0.086,0.02 -0.184,0.031 -0.297,0.031 -0.262,0 -0.461,-0.039 -0.594,-0.109 -0.125,-0.063 -0.187,-0.172 -0.187,-0.328 0,-0.094 0.023,-0.172 0.078,-0.235 0.062,-0.054 0.14,-0.101 0.234,-0.14 0.094,-0.031 0.207,-0.063 0.344,-0.094 0.133,-0.023 0.281,-0.055 0.438,-0.094 0.195,-0.043 0.39,-0.093 0.578,-0.156 0.187,-0.055 0.351,-0.133 0.5,-0.234 0.156,-0.094 0.273,-0.219 0.359,-0.375 0.094,-0.149 0.141,-0.34 0.141,-0.578 z" /><path
         id="path200"
         style="fill:#000000;fill-opacity:1;fill-rule:nonzero;stroke:none"
         d="m 334.363,91.984 c -0.199,0 -0.383,0.027 -0.547,0.078 -0.156,0.063 -0.293,0.145 -0.406,0.25 -0.105,0.113 -0.187,0.25 -0.25,0.406 -0.062,0.157 -0.094,0.336 -0.094,0.547 0,0.25 0.039,0.457 0.125,0.625 0.094,0.164 0.211,0.301 0.36,0.407 0.156,0.113 0.332,0.191 0.531,0.234 0.207,0.051 0.426,0.078 0.656,0.078 l 0.907,0.016 0,0.218 c 0,0.157 -0.016,0.282 -0.047,0.375 -0.024,0.102 -0.059,0.188 -0.11,0.25 -0.054,0.071 -0.121,0.118 -0.203,0.141 -0.074,0.031 -0.156,0.047 -0.25,0.047 -0.094,0 -0.18,-0.012 -0.25,-0.031 -0.074,-0.012 -0.137,-0.043 -0.187,-0.094 -0.055,-0.043 -0.094,-0.106 -0.125,-0.188 -0.032,-0.074 -0.055,-0.168 -0.063,-0.281 l -1.156,0.047 c 0.031,0.188 0.086,0.352 0.172,0.5 0.082,0.156 0.195,0.289 0.344,0.406 0.156,0.114 0.335,0.203 0.546,0.266 0.219,0.062 0.473,0.094 0.766,0.094 0.258,0 0.488,-0.039 0.688,-0.11 0.207,-0.062 0.382,-0.164 0.531,-0.297 0.144,-0.125 0.254,-0.281 0.328,-0.468 0.07,-0.188 0.109,-0.403 0.109,-0.641 l 0,-1.547 c 0,-0.094 0.004,-0.183 0.016,-0.265 0.008,-0.075 0.023,-0.141 0.047,-0.204 0.031,-0.054 0.066,-0.093 0.109,-0.125 0.051,-0.023 0.113,-0.031 0.188,-0.031 0.082,0 0.16,0.008 0.234,0.031 l 0,-0.593 c -0.062,-0.024 -0.121,-0.043 -0.172,-0.063 -0.055,-0.008 -0.105,-0.015 -0.156,-0.015 -0.055,-0.008 -0.109,-0.016 -0.172,-0.016 -0.055,-0.008 -0.121,-0.016 -0.203,-0.016 -0.274,0 -0.477,0.067 -0.609,0.203 -0.137,0.133 -0.215,0.332 -0.235,0.594 l -0.031,0 c -0.149,-0.262 -0.336,-0.465 -0.563,-0.609 -0.218,-0.145 -0.496,-0.219 -0.828,-0.219 z m 1.282,2.031 -0.563,0 c -0.117,-0.011 -0.227,-0.023 -0.328,-0.031 -0.106,-0.012 -0.199,-0.043 -0.281,-0.094 -0.086,-0.043 -0.153,-0.109 -0.203,-0.203 -0.043,-0.086 -0.063,-0.199 -0.063,-0.344 0,-0.199 0.047,-0.351 0.141,-0.453 0.093,-0.093 0.218,-0.14 0.375,-0.14 0.132,0 0.257,0.031 0.375,0.093 0.113,0.063 0.211,0.141 0.297,0.235 0.082,0.094 0.144,0.203 0.187,0.328 0.039,0.133 0.063,0.269 0.063,0.406 l 0,0.203 z" /><path
         id="path202"
         style="fill:#000000;fill-opacity:1;fill-rule:nonzero;stroke:none"
         d="m 338.91,91.984 c -0.324,0 -0.574,0.086 -0.75,0.266 -0.168,0.175 -0.25,0.445 -0.25,0.812 l 0,2.485 -0.547,0 0,0.75 0.594,0 0.344,0.984 0.687,0 0,-0.984 0.797,0 0,-0.75 -0.797,0 0,-2.188 c 0,-0.211 0.035,-0.367 0.11,-0.469 0.082,-0.093 0.207,-0.14 0.375,-0.14 0.062,0 0.117,0.004 0.172,0.015 0.062,0.008 0.125,0.024 0.187,0.047 l 0,-0.687 c -0.137,-0.043 -0.281,-0.071 -0.437,-0.094 -0.149,-0.031 -0.309,-0.047 -0.485,-0.047 z" /><path
         id="path204"
         style="fill:#000000;fill-opacity:1;fill-rule:nonzero;stroke:none"
         d="m 340.496,97.047 0,0.812 1.094,0 0,-0.812 -1.094,0 z m 0,-4.985 0,4.235 1.094,0 0,-4.235 -1.094,0 z" /><path
         id="path206"
         style="fill:#000000;fill-opacity:1;fill-rule:nonzero;stroke:none"
         d="m 346.723,94.187 c 0,-0.324 -0.047,-0.621 -0.141,-0.89 -0.086,-0.274 -0.219,-0.508 -0.406,-0.704 -0.18,-0.187 -0.403,-0.339 -0.672,-0.453 -0.262,-0.101 -0.574,-0.156 -0.938,-0.156 -0.343,0 -0.648,0.055 -0.906,0.156 -0.262,0.114 -0.48,0.266 -0.656,0.453 -0.18,0.196 -0.313,0.426 -0.406,0.688 -0.094,0.269 -0.141,0.57 -0.141,0.906 0,0.313 0.039,0.598 0.125,0.86 0.094,0.269 0.227,0.503 0.406,0.703 0.176,0.195 0.395,0.347 0.657,0.453 0.269,0.113 0.585,0.172 0.953,0.172 0.375,0 0.695,-0.059 0.968,-0.172 0.27,-0.106 0.489,-0.258 0.657,-0.453 0.175,-0.2 0.3,-0.434 0.375,-0.703 0.082,-0.262 0.125,-0.547 0.125,-0.86 z m -1.157,0 c 0,0.5 -0.086,0.86 -0.25,1.078 -0.156,0.227 -0.39,0.344 -0.703,0.344 -0.324,0 -0.574,-0.117 -0.75,-0.344 -0.168,-0.23 -0.25,-0.59 -0.25,-1.078 0,-0.262 0.02,-0.484 0.063,-0.672 0.051,-0.179 0.117,-0.324 0.203,-0.437 0.082,-0.117 0.18,-0.203 0.297,-0.266 0.113,-0.055 0.242,-0.078 0.39,-0.078 0.157,0 0.297,0.023 0.422,0.078 0.125,0.063 0.227,0.149 0.313,0.266 0.094,0.113 0.16,0.258 0.203,0.437 0.039,0.188 0.062,0.41 0.062,0.672 z" /><path
         id="path208"
         style="fill:#000000;fill-opacity:1;fill-rule:nonzero;stroke:none"
         d="m 350.316,92.062 0,2.375 c 0,0.164 -0.015,0.317 -0.046,0.453 -0.024,0.133 -0.063,0.25 -0.125,0.344 -0.055,0.102 -0.133,0.18 -0.235,0.234 -0.094,0.051 -0.211,0.079 -0.344,0.079 -0.136,0 -0.261,-0.032 -0.375,-0.094 -0.105,-0.055 -0.199,-0.137 -0.281,-0.25 -0.074,-0.106 -0.133,-0.235 -0.172,-0.391 -0.043,-0.148 -0.062,-0.308 -0.062,-0.484 l 0,-2.266 -1.094,0 0,3.281 c 0,0.094 0,0.188 0,0.282 0,0.093 -0.008,0.179 -0.016,0.265 0,0.094 -0.007,0.172 -0.015,0.235 0,0.07 0,0.129 0,0.172 l 1.047,0 c 0,-0.032 0,-0.086 0,-0.157 0.007,-0.074 0.015,-0.152 0.015,-0.234 0.008,-0.086 0.016,-0.168 0.016,-0.25 0.008,-0.086 0.016,-0.152 0.016,-0.203 l 0.015,0 c 0.145,0.32 0.328,0.554 0.547,0.703 0.227,0.144 0.5,0.219 0.813,0.219 0.257,0 0.472,-0.043 0.64,-0.125 0.176,-0.086 0.32,-0.2 0.438,-0.344 0.113,-0.149 0.191,-0.32 0.234,-0.516 0.051,-0.199 0.078,-0.414 0.078,-0.64 l 0,-2.688 -1.094,0 z" /><g
         transform="matrix(1,0,0,-1,0,262.5856)"
         id="g210"><path
           id="path212"
           style="fill:none;stroke:#000000;stroke-width:1.13919997;stroke-linecap:butt;stroke-linejoin:miter;stroke-miterlimit:10;stroke-dasharray:none;stroke-opacity:1"
           d="m 205.41,31.328 c 81.645,0 122.465,39.543 122.465,118.625" /></g><g
         transform="matrix(1,0,0,-1,0,262.5856)"
         id="g214"><path
           id="path216"
           style="fill:#000000;fill-opacity:1;fill-rule:nonzero;stroke:#000000;stroke-width:1.13919997;stroke-linecap:butt;stroke-linejoin:miter;stroke-miterlimit:10;stroke-dasharray:none;stroke-opacity:1"
           d="m 327.875,152.516 -1.707,-3.414 1.707,0.851 1.711,-0.851 -1.711,3.414 z" /></g><g
         transform="matrix(1,0,0,-1,0,262.5856)"
         id="g218"><path
           id="path220"
           style="fill:none;stroke:#000000;stroke-width:1.13919997;stroke-linecap:butt;stroke-linejoin:miter;stroke-miterlimit:10;stroke-dasharray:none;stroke-opacity:1"
           d="m 205.41,74.047 c 24.684,0 37.028,25.305 37.028,75.906" /></g><g
         transform="matrix(1,0,0,-1,0,262.5856)"
         id="g222"><path
           id="path224"
           style="fill:#000000;fill-opacity:1;fill-rule:nonzero;stroke:#000000;stroke-width:1.13919997;stroke-linecap:butt;stroke-linejoin:miter;stroke-miterlimit:10;stroke-dasharray:none;stroke-opacity:1"
           d="m 242.438,152.516 -1.711,-3.414 1.711,0.851 1.707,-0.851 -1.707,3.414 z" /></g><g
         transform="matrix(1,0,0,-1,0,262.5856)"
         id="g226"><path
           id="path228"
           style="fill:none;stroke:#000000;stroke-width:1.13919997;stroke-linecap:butt;stroke-linejoin:miter;stroke-miterlimit:10;stroke-dasharray:none;stroke-opacity:1"
           d="m 127.527,71.199 c -61.996,0 -92.996,27.531 -92.996,82.594" /></g><g
         transform="matrix(1,0,0,-1,0,262.5856)"
         id="g230"><path
           id="path232"
           style="fill:#000000;fill-opacity:1;fill-rule:nonzero;stroke:#000000;stroke-width:1.13919997;stroke-linecap:butt;stroke-linejoin:miter;stroke-miterlimit:10;stroke-dasharray:none;stroke-opacity:1"
           d="m 130.09,71.199 -3.418,1.711 0.855,-1.711 -0.855,-1.707 3.418,1.707 z" /></g><g
         transform="matrix(1,0,0,-1,0,262.5856)"
         id="g234"><path
           id="path236"
           style="fill:none;stroke:#000000;stroke-width:1.13919997;stroke-linecap:butt;stroke-linejoin:miter;stroke-miterlimit:10;stroke-dasharray:none;stroke-opacity:1"
           d="m 242.438,182.273 c 0,18.985 -20.415,28.481 -61.235,28.481 -40.82,0 -61.23,-8.215 -61.23,-24.645" /></g><g
         transform="matrix(1,0,0,-1,0,262.5856)"
         id="g238"><path
           id="path240"
           style="fill:#000000;fill-opacity:1;fill-rule:nonzero;stroke:#000000;stroke-width:1.13919997;stroke-linecap:butt;stroke-linejoin:miter;stroke-miterlimit:10;stroke-dasharray:none;stroke-opacity:1"
           d="m 119.973,183.547 1.707,3.418 -1.707,-0.856 -1.711,0.856 1.711,-3.418 z" /></g><g
         transform="matrix(1,0,0,-1,0,262.5856)"
         id="g242"><path
           id="path244"
           style="fill:none;stroke:#000000;stroke-width:1.13919997;stroke-linecap:butt;stroke-linejoin:miter;stroke-miterlimit:10;stroke-dasharray:none;stroke-opacity:1"
           d="m 327.875,182.273 c 0,53.161 -48.891,79.743 -146.672,79.743 -97.781,0 -146.672,-25.301 -146.672,-75.907" /></g><g
         transform="matrix(1,0,0,-1,0,262.5856)"
         id="g246"><path
           id="path248"
           style="fill:#000000;fill-opacity:1;fill-rule:nonzero;stroke:#000000;stroke-width:1.13919997;stroke-linecap:butt;stroke-linejoin:miter;stroke-miterlimit:10;stroke-dasharray:none;stroke-opacity:1"
           d="m 34.531,183.547 1.711,3.418 -1.711,-0.856 -1.707,0.856 1.707,-3.418 z" /></g><g
         transform="matrix(1,0,0,-1,0,262.5856)"
         id="g250"><path
           id="path252"
           style="fill:none;stroke:#000000;stroke-width:1.13919997;stroke-linecap:butt;stroke-linejoin:miter;stroke-miterlimit:10;stroke-dasharray:none;stroke-opacity:1"
           d="m 45.926,0 c 0,22.785 27.199,34.176 81.601,34.176" /></g><g
         transform="matrix(1,0,0,-1,0,262.5856)"
         id="g254"><path
           id="path256"
           style="fill:#000000;fill-opacity:1;fill-rule:nonzero;stroke:#000000;stroke-width:1.13919997;stroke-linecap:butt;stroke-linejoin:miter;stroke-miterlimit:10;stroke-dasharray:none;stroke-opacity:1"
           d="m 130.09,34.176 -3.418,1.711 0.855,-1.711 -0.855,-1.707 3.418,1.707 z" /></g><g
         transform="matrix(1,0,0,-1,0,262.5856)"
         id="g258"><path
           id="path260"
           style="fill:none;stroke:#000000;stroke-width:1.13919997;stroke-linecap:butt;stroke-linejoin:miter;stroke-miterlimit:10;stroke-dasharray:none;stroke-opacity:1"
           d="m 119.973,153.793 c 0,-30.379 12.339,-45.57 37.023,-45.57 24.684,0 37.024,5.699 37.024,17.089 0,11.391 -4.747,17.086 -14.239,17.086 -9.496,0 -14.242,-3.796 -14.242,-11.39 0,-7.594 2.848,-11.391 8.547,-11.391 5.695,0 8.543,2.516 8.543,7.555" /></g><g
         transform="matrix(1,0,0,-1,0,262.5856)"
         id="g262"><path
           id="path264"
           style="fill:#000000;fill-opacity:1;fill-rule:nonzero;stroke:#000000;stroke-width:1.13919997;stroke-linecap:butt;stroke-linejoin:miter;stroke-miterlimit:10;stroke-dasharray:none;stroke-opacity:1"
           d="m 182.629,129.734 -1.711,-3.418 1.711,0.856 1.707,-0.856 -1.707,3.418 z" /></g></g></g></svg>