<?xml version="1.0" encoding="UTF-8" standalone="no"?>
<svg
   xmlns:dc="http://purl.org/dc/elements/1.1/"
   xmlns:cc="http://creativecommons.org/ns#"
   xmlns:rdf="http://www.w3.org/1999/02/22-rdf-syntax-ns#"
   xmlns:svg="http://www.w3.org/2000/svg"
   xmlns="http://www.w3.org/2000/svg"
   viewBox="0 0 122 132.48801"
   height="132.48801"
   width="122"
   xml:space="preserve"
   version="1.1"
   id="svg2"><metadata
     id="metadata8"><rdf:RDF><cc:Work
         rdf:about=""><dc:format>image/svg+xml</dc:format><dc:type
           rdf:resource="http://purl.org/dc/dcmitype/StillImage" /></cc:Work></rdf:RDF></metadata><defs
     id="defs6" /><g
     transform="matrix(1.25,0,0,-1.25,0,132.488)"
     id="g10"><g
       id="g12"><path
         id="path14"
         style="fill:#ffffff;fill-opacity:1;fill-rule:evenodd;stroke:none"
         d="m 0,105.99 97.602,0 0,-99.199 -97.602,0 0,99.199 z" /><g
         transform="matrix(1,0,0,-1,0,105.9904)"
         id="g16"><path
           id="path18"
           style="fill:none;stroke:#000080;stroke-width:1.60000002;stroke-linecap:square;stroke-linejoin:bevel;stroke-miterlimit:4;stroke-dasharray:none;stroke-opacity:1"
           d="m 12,20.801 9.602,0" /></g><g
         transform="matrix(1,0,0,-1,0,105.9904)"
         id="g20"><path
           id="path22"
           style="fill:none;stroke:#000080;stroke-width:1.60000002;stroke-linecap:square;stroke-linejoin:bevel;stroke-miterlimit:4;stroke-dasharray:none;stroke-opacity:1"
           d="m 50.398,20.801 9.602,0" /></g><g
         transform="matrix(1,0,0,-1,0,105.9904)"
         id="g24"><path
           id="path26"
           style="fill:none;stroke:#000080;stroke-width:1.60000002;stroke-linecap:square;stroke-linejoin:bevel;stroke-miterlimit:4;stroke-dasharray:none;stroke-opacity:1"
           d="m 25.602,14.398 28.796,0" /></g><g
         transform="matrix(1,0,0,-1,0,105.9904)"
         id="g28"><path
           id="path30"
           style="fill:none;stroke:#000080;stroke-width:1.60000002;stroke-linecap:square;stroke-linejoin:bevel;stroke-miterlimit:4;stroke-dasharray:none;stroke-opacity:1"
           d="m 17.602,27.199 28.796,0" /></g><g
         transform="matrix(1,0,0,-1,0,105.9904)"
         id="g32"><path
           id="path34"
           style="fill:none;stroke:#000080;stroke-width:1.60000002;stroke-linecap:square;stroke-linejoin:bevel;stroke-miterlimit:4;stroke-dasharray:none;stroke-opacity:1"
           d="m 25.602,14.398 -8,12.801" /></g><g
         transform="matrix(1,0,0,-1,0,105.9904)"
         id="g36"><path
           id="path38"
           style="fill:none;stroke:#000080;stroke-width:1.60000002;stroke-linecap:square;stroke-linejoin:bevel;stroke-miterlimit:4;stroke-dasharray:none;stroke-opacity:1"
           d="m 54.398,14.398 -8,12.801" /></g><text
         id="text40"
         style="font-variant:normal;font-weight:normal;font-size:12.80000019px;font-family:TeXGyreHeros;-inkscape-font-specification:TeXGyreHeros-Regular;writing-mode:lr-tb;fill:#000000;fill-opacity:1;fill-rule:nonzero;stroke:none"
         transform="matrix(1,0,0,-1,15.2,57.990402)"><tspan
           id="tspan42"
           y="0"
           x="0 10.6624 19.200001">MS1</tspan><tspan
           id="tspan44"
           y="18.4"
           x="0 8.5375996 15.6544 22.7712 29.132799 32.6912 40.166401 48.703999 55.820801 62.937599 69.2864 72.844803">Subst=Subst1</tspan><tspan
           id="tspan46"
           y="36.799999"
           x="0 12.0832 19.558399 25.958401 29.5168 40.179199">W=x mm</tspan><tspan
           id="tspan48"
           y="55.200001"
           x="0 7.1167998 14.592 20.992001 24.5504 35.212799">L=y mm</tspan></text>
<g
         transform="matrix(1,0,0,-1,0,105.9904)"
         id="g50"><path
           id="path52"
           style="fill:none;stroke:#ff0000;stroke-width:0.80000001;stroke-linecap:square;stroke-linejoin:bevel;stroke-miterlimit:4;stroke-dasharray:none;stroke-opacity:1"
           d="M 15.199,20.801 C 15.199,22.566 13.766,24 12,24 10.234,24 8.801,22.566 8.801,20.801 c 0,-1.77 1.433,-3.199 3.199,-3.199 1.766,0 3.199,1.429 3.199,3.199" /></g><g
         transform="matrix(1,0,0,-1,0,105.9904)"
         id="g54"><path
           id="path56"
           style="fill:none;stroke:#ff0000;stroke-width:0.80000001;stroke-linecap:square;stroke-linejoin:bevel;stroke-miterlimit:4;stroke-dasharray:none;stroke-opacity:1"
           d="M 63.199,20.801 C 63.199,22.566 61.766,24 60,24 c -1.766,0 -3.199,-1.434 -3.199,-3.199 0,-1.77 1.433,-3.199 3.199,-3.199 1.766,0 3.199,1.429 3.199,3.199" /></g></g></g></svg>