<?xml version="1.0" encoding="UTF-8" standalone="no"?>
<svg
   xmlns:dc="http://purl.org/dc/elements/1.1/"
   xmlns:cc="http://creativecommons.org/ns#"
   xmlns:rdf="http://www.w3.org/1999/02/22-rdf-syntax-ns#"
   xmlns:svg="http://www.w3.org/2000/svg"
   xmlns="http://www.w3.org/2000/svg"
   viewBox="0 0 80.937447 72.377998"
   height="72.377998"
   width="80.937447"
   xml:space="preserve"
   version="1.1"
   id="svg2"><metadata
     id="metadata8"><rdf:RDF><cc:Work
         rdf:about=""><dc:format>image/svg+xml</dc:format><dc:type
           rdf:resource="http://purl.org/dc/dcmitype/StillImage" /></cc:Work></rdf:RDF></metadata><defs
     id="defs6" /><g
     transform="matrix(1.25,0,0,-1.25,0,72.377996)"
     id="g10"><g
       id="g12"><g
         transform="matrix(1,0,0,-1,0,57.902397)"
         id="g14"><path
           id="path16"
           style="fill:none;stroke:#000080;stroke-width:1.60000002;stroke-linecap:square;stroke-linejoin:bevel;stroke-miterlimit:4;stroke-dasharray:none;stroke-opacity:1"
           d="m 3.602,7.504 9.597,0" /></g><g
         transform="matrix(1,0,0,-1,0,57.902397)"
         id="g18"><path
           id="path20"
           style="fill:none;stroke:#000080;stroke-width:1.60000002;stroke-linecap:square;stroke-linejoin:bevel;stroke-miterlimit:4;stroke-dasharray:none;stroke-opacity:1"
           d="M 17.199,1.102 38,1.102" /></g><g
         transform="matrix(1,0,0,-1,0,57.902397)"
         id="g22"><path
           id="path24"
           style="fill:none;stroke:#000080;stroke-width:1.60000002;stroke-linecap:square;stroke-linejoin:bevel;stroke-miterlimit:4;stroke-dasharray:none;stroke-opacity:1"
           d="m 9.199,13.902 20.801,0" /></g><g
         transform="matrix(1,0,0,-1,0,57.902397)"
         id="g26"><path
           id="path28"
           style="fill:none;stroke:#000080;stroke-width:1.60000002;stroke-linecap:square;stroke-linejoin:bevel;stroke-miterlimit:4;stroke-dasharray:none;stroke-opacity:1"
           d="m 17.199,1.102 -8,12.8" /></g><g
         transform="matrix(1,0,0,-1,0,57.902397)"
         id="g30"><path
           id="path32"
           style="fill:none;stroke:#000080;stroke-width:1.60000002;stroke-linecap:square;stroke-linejoin:bevel;stroke-miterlimit:4;stroke-dasharray:none;stroke-opacity:1"
           d="m 38,1.102 -8,12.8" /></g><path
         id="path34"
         style="fill:#000000;fill-opacity:1;fill-rule:nonzero;stroke:none"
         d="m 14.098,27.199 0,7 -1.235,0 -2.031,-6.093 -2.078,6.093 -1.234,0 0,-7 0.843,0 0,5.86 1.985,-5.86 0.937,0 1.969,5.86 0,-5.86 0.844,0 z" /><path
         id="path36"
         style="fill:#000000;fill-opacity:1;fill-rule:nonzero;stroke:none"
         d="m 20.758,29.121 c 0,0.86 -0.531,1.5 -1.485,1.75 l -1.75,0.469 c -0.843,0.219 -1.156,0.5 -1.156,1.047 0,0.703 0.625,1.234 1.563,1.234 1.109,0 1.75,-0.515 1.75,-1.422 l 0.843,0 c 0,1.375 -0.953,2.172 -2.562,2.172 -1.531,0 -2.484,-0.844 -2.484,-2.109 0,-0.86 0.453,-1.391 1.375,-1.641 l 1.734,-0.453 c 0.875,-0.234 1.281,-0.594 1.281,-1.141 0,-0.765 -0.578,-1.218 -1.781,-1.218 -1.328,0 -1.969,0.672 -1.969,1.672 l -0.859,0 c 0,-1.657 1.125,-2.454 2.765,-2.454 1.782,0 2.735,0.844 2.735,2.094 z" /><path
         id="path38"
         style="fill:#000000;fill-opacity:1;fill-rule:nonzero;stroke:none"
         d="m 24.547,27.199 0,6.797 -0.563,0 C 23.688,32.949 23.5,32.809 22.203,32.652 l 0,-0.609 1.5,0 0,-4.844 0.844,0 z" /><path
         id="path40"
         style="fill:#000000;fill-opacity:1;fill-rule:nonzero;stroke:none"
         d="m 12.754,15.523 c 0,0.86 -0.531,1.5 -1.484,1.75 l -1.75,0.469 c -0.844,0.219 -1.157,0.5 -1.157,1.047 0,0.703 0.625,1.234 1.563,1.234 1.109,0 1.75,-0.515 1.75,-1.421 l 0.844,0 c 0,1.375 -0.954,2.171 -2.563,2.171 -1.531,0 -2.484,-0.843 -2.484,-2.109 0,-0.859 0.453,-1.391 1.375,-1.641 l 1.734,-0.453 c 0.875,-0.234 1.281,-0.593 1.281,-1.14 0,-0.766 -0.578,-1.219 -1.781,-1.219 -1.328,0 -1.969,0.672 -1.969,1.672 l -0.859,0 c 0,-1.656 1.125,-2.453 2.766,-2.453 1.781,0 2.734,0.843 2.734,2.093 z" /><path
         id="path42"
         style="fill:#000000;fill-opacity:1;fill-rule:nonzero;stroke:none"
         d="m 17.836,13.602 0,5.031 -0.797,0 0,-2.781 c 0,-1.016 -0.531,-1.688 -1.375,-1.688 -0.625,0 -1.031,0.375 -1.031,0.984 l 0,3.485 -0.797,0 0,-3.797 c 0,-0.844 0.625,-1.375 1.594,-1.375 0.75,0 1.218,0.25 1.687,0.922 l 0,-0.781 0.719,0 z" /><path
         id="path44"
         style="fill:#000000;fill-opacity:1;fill-rule:nonzero;stroke:none"
         d="m 23.57,16.18 c 0,1.625 -0.828,2.593 -2.14,2.593 -0.703,0 -1.188,-0.265 -1.563,-0.828 l 0,2.657 -0.797,0 0,-7 0.719,0 0,0.718 c 0.391,-0.578 0.891,-0.859 1.594,-0.859 1.328,0 2.187,1.078 2.187,2.719 z m -0.828,-0.063 c 0,-1.14 -0.594,-1.906 -1.469,-1.906 -0.843,0 -1.406,0.766 -1.406,1.906 0,1.172 0.563,1.953 1.406,1.906 0.891,0 1.469,-0.781 1.469,-1.906 z" /><path
         id="path46"
         style="fill:#000000;fill-opacity:1;fill-rule:nonzero;stroke:none"
         d="m 28.305,15.008 c 0,0.75 -0.422,1.125 -1.422,1.359 l -0.766,0.188 c -0.656,0.156 -0.937,0.359 -0.937,0.718 0,0.469 0.422,0.766 1.062,0.766 0.656,0 1,-0.281 1.016,-0.812 l 0.844,0 c -0.016,0.984 -0.657,1.546 -1.829,1.546 -1.171,0 -1.921,-0.609 -1.921,-1.531 0,-0.797 0.406,-1.172 1.593,-1.453 l 0.75,-0.187 c 0.547,-0.125 0.766,-0.297 0.766,-0.657 0,-0.468 -0.469,-0.75 -1.172,-0.75 -0.719,0 -1.109,0.172 -1.219,0.938 l -0.843,0 c 0.031,-1.156 0.687,-1.672 2,-1.672 1.265,0 2.078,0.578 2.078,1.547 z" /><path
         id="path48"
         style="fill:#000000;fill-opacity:1;fill-rule:nonzero;stroke:none"
         d="m 31.082,13.602 0,0.671 c -0.109,-0.031 -0.234,-0.031 -0.391,-0.031 -0.343,0 -0.437,0.094 -0.437,0.438 l 0,3.297 0.828,0 0,0.656 -0.828,0 0,1.375 -0.797,0 0,-1.375 -0.672,0 0,-0.656 0.672,0 0,-3.641 c 0,-0.516 0.344,-0.797 0.969,-0.797 0.187,0 0.39,0.016 0.656,0.063 z" /><path
         id="path50"
         style="fill:#000000;fill-opacity:1;fill-rule:nonzero;stroke:none"
         d="m 36.258,16.539 0,0.656 -4.297,0 0,-0.656 4.297,0 z m 0,-1.734 0,0.656 -4.297,0 0,-0.656 4.297,0 z" /><path
         id="path52"
         style="fill:#000000;fill-opacity:1;fill-rule:nonzero;stroke:none"
         d="m 42.867,15.523 c 0,0.86 -0.531,1.5 -1.484,1.75 l -1.75,0.469 c -0.844,0.219 -1.156,0.5 -1.156,1.047 0,0.703 0.625,1.234 1.562,1.234 1.109,0 1.75,-0.515 1.75,-1.421 l 0.844,0 c 0,1.375 -0.953,2.171 -2.563,2.171 -1.531,0 -2.484,-0.843 -2.484,-2.109 0,-0.859 0.453,-1.391 1.375,-1.641 l 1.734,-0.453 c 0.875,-0.234 1.282,-0.593 1.282,-1.14 0,-0.766 -0.579,-1.219 -1.782,-1.219 -1.328,0 -1.968,0.672 -1.968,1.672 l -0.86,0 c 0,-1.656 1.125,-2.453 2.766,-2.453 1.781,0 2.734,0.843 2.734,2.093 z" /><path
         id="path54"
         style="fill:#000000;fill-opacity:1;fill-rule:nonzero;stroke:none"
         d="m 47.949,13.602 0,5.031 -0.797,0 0,-2.781 c 0,-1.016 -0.531,-1.688 -1.375,-1.688 -0.625,0 -1.031,0.375 -1.031,0.984 l 0,3.485 -0.797,0 0,-3.797 c 0,-0.844 0.625,-1.375 1.594,-1.375 0.75,0 1.219,0.25 1.687,0.922 l 0,-0.781 0.719,0 z" /><path
         id="path56"
         style="fill:#000000;fill-opacity:1;fill-rule:nonzero;stroke:none"
         d="m 53.684,16.18 c 0,1.625 -0.829,2.593 -2.141,2.593 -0.703,0 -1.188,-0.265 -1.563,-0.828 l 0,2.657 -0.796,0 0,-7 0.718,0 0,0.718 c 0.391,-0.578 0.891,-0.859 1.594,-0.859 1.328,0 2.188,1.078 2.188,2.719 z m -0.829,-0.063 c 0,-1.14 -0.593,-1.906 -1.468,-1.906 -0.844,0 -1.407,0.766 -1.407,1.906 0,1.172 0.563,1.953 1.407,1.906 0.89,0 1.468,-0.781 1.468,-1.906 z" /><path
         id="path58"
         style="fill:#000000;fill-opacity:1;fill-rule:nonzero;stroke:none"
         d="m 58.418,15.008 c 0,0.75 -0.422,1.125 -1.422,1.359 l -0.766,0.188 c -0.656,0.156 -0.937,0.359 -0.937,0.718 0,0.469 0.422,0.766 1.062,0.766 0.657,0 1,-0.281 1.016,-0.812 l 0.844,0 c -0.016,0.984 -0.656,1.546 -1.828,1.546 -1.172,0 -1.922,-0.609 -1.922,-1.531 0,-0.797 0.406,-1.172 1.594,-1.453 l 0.75,-0.187 c 0.546,-0.125 0.765,-0.297 0.765,-0.657 0,-0.468 -0.469,-0.75 -1.172,-0.75 -0.718,0 -1.109,0.172 -1.218,0.938 l -0.844,0 c 0.031,-1.156 0.687,-1.672 2,-1.672 1.265,0 2.078,0.578 2.078,1.547 z" /><path
         id="path60"
         style="fill:#000000;fill-opacity:1;fill-rule:nonzero;stroke:none"
         d="m 61.195,13.602 0,0.671 c -0.109,-0.031 -0.234,-0.031 -0.39,-0.031 -0.344,0 -0.438,0.094 -0.438,0.438 l 0,3.297 0.828,0 0,0.656 -0.828,0 0,1.375 -0.797,0 0,-1.375 -0.672,0 0,-0.656 0.672,0 0,-3.641 c 0,-0.516 0.344,-0.797 0.969,-0.797 0.188,0 0.391,0.016 0.656,0.063 z" /><path
         id="path62"
         style="fill:#000000;fill-opacity:1;fill-rule:nonzero;stroke:none"
         d="m 64.746,13.602 0,6.796 -0.562,0 c -0.297,-1.046 -0.485,-1.187 -1.782,-1.343 l 0,-0.61 1.5,0 0,-4.843 0.844,0 z" /><path
         id="path64"
         style="fill:#000000;fill-opacity:1;fill-rule:nonzero;stroke:none"
         d="M 15.707,7 14.723,7 13.426,1.313 11.832,7 10.879,7 9.316,1.313 8.004,7 7.02,7 8.801,0 9.785,0 11.348,5.75 12.957,0 l 0.984,0 1.766,7 z" /><path
         id="path66"
         style="fill:#000000;fill-opacity:1;fill-rule:nonzero;stroke:none"
         d="m 20.809,2.938 0,0.656 -4.297,0 0,-0.656 4.297,0 z m 0,-1.735 0,0.656 -4.297,0 0,-0.656 4.297,0 z" /><path
         id="path68"
         style="fill:#000000;fill-opacity:1;fill-rule:nonzero;stroke:none"
         d="m 24.789,0 0,6.797 -0.562,0 C 23.93,5.75 23.742,5.609 22.445,5.453 l 0,-0.609 1.5,0 0,-4.844 0.844,0 z" /><path
         id="path70"
         style="fill:#000000;fill-opacity:1;fill-rule:nonzero;stroke:none"
         d="m 36.766,0 0,3.766 c 0,0.906 -0.5,1.406 -1.438,1.406 -0.672,0 -1.078,-0.203 -1.547,-0.766 -0.297,0.532 -0.703,0.766 -1.359,0.766 -0.672,0 -1.11,-0.25 -1.547,-0.859 l 0,0.718 -0.719,0 0,-5.031 0.797,0 0,3.156 c 0,0.735 0.516,1.313 1.172,1.313 0.594,0 0.937,-0.36 0.937,-1 l 0,-3.469 0.797,0 0,3.156 c 0,0.735 0.532,1.313 1.188,1.313 0.578,0 0.922,-0.375 0.922,-1 l 0,-3.469 0.797,0 z" /><path
         id="path72"
         style="fill:#000000;fill-opacity:1;fill-rule:nonzero;stroke:none"
         d="m 44.773,0 0,3.766 c 0,0.906 -0.5,1.406 -1.437,1.406 -0.672,0 -1.078,-0.203 -1.547,-0.766 -0.297,0.532 -0.703,0.766 -1.359,0.766 -0.672,0 -1.11,-0.25 -1.547,-0.859 l 0,0.718 -0.719,0 0,-5.031 0.797,0 0,3.156 c 0,0.735 0.516,1.313 1.172,1.313 0.594,0 0.937,-0.36 0.937,-1 l 0,-3.469 0.797,0 0,3.156 c 0,0.735 0.531,1.313 1.188,1.313 0.578,0 0.922,-0.375 0.922,-1 l 0,-3.469 0.796,0 z" /><g
         transform="matrix(1,0,0,-1,0,57.902397)"
         id="g74"><path
           id="path76"
           style="fill:none;stroke:#ff0000;stroke-width:0.80000001;stroke-linecap:square;stroke-linejoin:bevel;stroke-miterlimit:4;stroke-dasharray:none;stroke-opacity:1"
           d="m 6.801,7.504 c 0,1.766 -1.434,3.199 -3.199,3.199 -1.77,0 -3.204,-1.433 -3.204,-3.199 0,-1.77 1.434,-3.203 3.204,-3.203 1.765,0 3.199,1.433 3.199,3.203" /></g></g></g></svg>