<?xml version="1.0" encoding="UTF-8" standalone="no"?>
<svg
   xmlns:dc="http://purl.org/dc/elements/1.1/"
   xmlns:cc="http://creativecommons.org/ns#"
   xmlns:rdf="http://www.w3.org/1999/02/22-rdf-syntax-ns#"
   xmlns:svg="http://www.w3.org/2000/svg"
   xmlns="http://www.w3.org/2000/svg"
   viewBox="0 0 161.9095 189.99751"
   height="189.99751"
   width="161.9095"
   xml:space="preserve"
   version="1.1"
   id="svg2"><metadata
     id="metadata8"><rdf:RDF><cc:Work
         rdf:about=""><dc:format>image/svg+xml</dc:format><dc:type
           rdf:resource="http://purl.org/dc/dcmitype/StillImage" /></cc:Work></rdf:RDF></metadata><defs
     id="defs6" /><g
     transform="matrix(1.25,0,0,-1.25,0,189.99752)"
     id="g10"><g
       id="g12"><g
         transform="matrix(1,0,0,-1,0,151.99802)"
         id="g14"><path
           id="path16"
           style="fill:none;stroke:#000080;stroke-width:3.20000005;stroke-linecap:square;stroke-linejoin:bevel;stroke-miterlimit:4;stroke-dasharray:none;stroke-opacity:1"
           d="m 7.199,20.793 19.203,0" /></g><g
         transform="matrix(1,0,0,-1,0,151.99802)"
         id="g18"><path
           id="path20"
           style="fill:none;stroke:#000080;stroke-width:3.20000005;stroke-linecap:square;stroke-linejoin:bevel;stroke-miterlimit:4;stroke-dasharray:none;stroke-opacity:1"
           d="m 83.992,20.793 19.207,0" /></g><g
         transform="matrix(1,0,0,-1,0,151.99802)"
         id="g22"><path
           id="path24"
           style="fill:none;stroke:#000080;stroke-width:3.20000005;stroke-linecap:square;stroke-linejoin:bevel;stroke-miterlimit:4;stroke-dasharray:none;stroke-opacity:1"
           d="m 26.402,1.602 28.797,0" /></g><g
         transform="matrix(1,0,0,-1,0,151.99802)"
         id="g26"><path
           id="path28"
           style="fill:none;stroke:#000080;stroke-width:3.20000005;stroke-linecap:square;stroke-linejoin:bevel;stroke-miterlimit:4;stroke-dasharray:none;stroke-opacity:1"
           d="m 26.402,39.996 28.797,0" /></g><g
         transform="matrix(1,0,0,-1,0,151.99802)"
         id="g30"><path
           id="path32"
           style="fill:none;stroke:#000080;stroke-width:3.20000005;stroke-linecap:square;stroke-linejoin:bevel;stroke-miterlimit:4;stroke-dasharray:none;stroke-opacity:1"
           d="m 26.402,1.602 0,38.394" /></g><g
         transform="matrix(1,0,0,-1,0,151.99802)"
         id="g34"><path
           id="path36"
           style="fill:none;stroke:#000080;stroke-width:3.20000005;stroke-linecap:square;stroke-linejoin:bevel;stroke-miterlimit:4;stroke-dasharray:none;stroke-opacity:1"
           d="m 55.199,9.602 28.793,0" /></g><g
         transform="matrix(1,0,0,-1,0,151.99802)"
         id="g38"><path
           id="path40"
           style="fill:none;stroke:#000080;stroke-width:3.20000005;stroke-linecap:square;stroke-linejoin:bevel;stroke-miterlimit:4;stroke-dasharray:none;stroke-opacity:1"
           d="m 55.199,31.996 28.793,0" /></g><g
         transform="matrix(1,0,0,-1,0,151.99802)"
         id="g42"><path
           id="path44"
           style="fill:none;stroke:#000080;stroke-width:3.20000005;stroke-linecap:square;stroke-linejoin:bevel;stroke-miterlimit:4;stroke-dasharray:none;stroke-opacity:1"
           d="m 83.992,9.602 0,22.394" /></g><g
         transform="matrix(1,0,0,-1,0,151.99802)"
         id="g46"><path
           id="path48"
           style="fill:none;stroke:#000080;stroke-width:3.20000005;stroke-linecap:square;stroke-linejoin:bevel;stroke-miterlimit:4;stroke-dasharray:none;stroke-opacity:1"
           d="m 55.199,1.602 0,8" /></g><g
         transform="matrix(1,0,0,-1,0,151.99802)"
         id="g50"><path
           id="path52"
           style="fill:none;stroke:#000080;stroke-width:3.20000005;stroke-linecap:square;stroke-linejoin:bevel;stroke-miterlimit:4;stroke-dasharray:none;stroke-opacity:1"
           d="m 55.199,31.996 0,8" /></g><g
         transform="matrix(1,0,0,-1,0,151.99802)"
         id="g54"><path
           id="path56"
           style="fill:none;stroke:#000080;stroke-width:3.20000005;stroke-linecap:square;stroke-linejoin:bevel;stroke-miterlimit:4;stroke-dasharray:none;stroke-opacity:1"
           d="M 19.992,14.395 13.598,27.203" /></g><path
         id="path58"
         style="fill:#000000;fill-opacity:1;fill-rule:nonzero;stroke:none"
         d="m 28.207,81.6 0,14 -2.469,0 -4.078,-12.188 -4.14,12.188 -2.485,0 0,-14 1.688,0 0,11.734 3.984,-11.734 1.875,0 3.938,11.734 0,-11.734 1.687,0 z" /><path
         id="path60"
         style="fill:#000000;fill-opacity:1;fill-rule:nonzero;stroke:none"
         d="m 41.512,85.443 c 0,1.719 -1.078,3 -2.969,3.516 l -3.516,0.937 c -1.687,0.438 -2.312,1 -2.312,2.079 0,1.421 1.25,2.468 3.14,2.468 2.219,0 3.485,-1.015 3.485,-2.843 l 1.687,0 c 0,2.75 -1.89,4.343 -5.125,4.343 -3.062,0 -4.968,-1.687 -4.968,-4.218 0,-1.719 0.906,-2.797 2.75,-3.266 l 3.468,-0.922 c 1.766,-0.469 2.578,-1.172 2.578,-2.266 0,-1.546 -1.156,-2.437 -3.578,-2.437 -2.64,0 -3.953,1.312 -3.953,3.312 l -1.687,0 c 0,-3.296 2.234,-4.89 5.531,-4.89 3.547,0 5.469,1.687 5.469,4.187 z" /><path
         id="path62"
         style="fill:#000000;fill-opacity:1;fill-rule:nonzero;stroke:none"
         d="m 49.055,81.6 0,13.609 -1.11,0 c -0.593,-2.094 -0.968,-2.375 -3.593,-2.703 l 0,-1.203 3.015,0 0,-9.703 1.688,0 z" /><path
         id="path64"
         style="fill:#000000;fill-opacity:1;fill-rule:nonzero;stroke:none"
         d="m 25.52,58.244 c 0,1.719 -1.079,3 -2.969,3.516 l -3.516,0.937 c -1.687,0.438 -2.312,1 -2.312,2.078 0,1.422 1.25,2.469 3.14,2.469 2.219,0 3.485,-1.016 3.485,-2.844 l 1.687,0 c 0,2.75 -1.89,4.344 -5.125,4.344 -3.062,0 -4.969,-1.687 -4.969,-4.219 0,-1.718 0.907,-2.797 2.75,-3.265 l 3.469,-0.922 c 1.766,-0.469 2.578,-1.172 2.578,-2.266 0,-1.547 -1.156,-2.437 -3.578,-2.437 -2.64,0 -3.953,1.312 -3.953,3.312 l -1.687,0 c 0,-3.297 2.234,-4.89 5.531,-4.89 3.547,0 5.469,1.687 5.469,4.187 z" /><path
         id="path66"
         style="fill:#000000;fill-opacity:1;fill-rule:nonzero;stroke:none"
         d="m 35.656,54.4 0,10.063 -1.594,0 0,-5.547 c 0,-2.063 -1.062,-3.406 -2.734,-3.406 -1.266,0 -2.078,0.765 -2.078,1.984 l 0,6.969 -1.594,0 0,-7.61 c 0,-1.671 1.25,-2.734 3.203,-2.734 1.485,0 2.422,0.516 3.36,1.844 l 0,-1.563 1.437,0 z" /><path
         id="path68"
         style="fill:#000000;fill-opacity:1;fill-rule:nonzero;stroke:none"
         d="m 47.125,59.541 c 0,3.266 -1.656,5.203 -4.313,5.203 -1.374,0 -2.359,-0.516 -3.109,-1.641 l 0,5.297 -1.594,0 0,-14 1.453,0 0,1.438 c 0.766,-1.172 1.782,-1.719 3.188,-1.719 2.641,0 4.375,2.156 4.375,5.422 z m -1.672,-0.094 c 0,-2.281 -1.187,-3.844 -2.937,-3.844 -1.688,0 -2.813,1.547 -2.813,3.829 0,2.359 1.125,3.89 2.813,3.828 1.781,0 2.937,-1.563 2.937,-3.813 z" /><path
         id="path70"
         style="fill:#000000;fill-opacity:1;fill-rule:nonzero;stroke:none"
         d="m 56.566,57.228 c 0,1.5 -0.843,2.235 -2.843,2.719 l -1.532,0.375 c -1.312,0.297 -1.859,0.719 -1.859,1.438 0,0.922 0.828,1.515 2.125,1.515 1.281,0 1.984,-0.562 2.016,-1.609 l 1.687,0 c -0.015,1.969 -1.312,3.078 -3.64,3.078 -2.344,0 -3.86,-1.203 -3.86,-3.062 0,-1.579 0.797,-2.329 3.188,-2.907 l 1.5,-0.359 c 1.109,-0.266 1.547,-0.594 1.547,-1.328 0,-0.938 -0.938,-1.5 -2.344,-1.5 -1.438,0 -2.25,0.344 -2.453,1.89 l -1.688,0 c 0.078,-2.328 1.375,-3.359 4.016,-3.359 2.531,0 4.14,1.172 4.14,3.109 z" /><path
         id="path72"
         style="fill:#000000;fill-opacity:1;fill-rule:nonzero;stroke:none"
         d="m 62.172,54.4 0,1.344 c -0.203,-0.062 -0.453,-0.078 -0.766,-0.078 -0.687,0 -0.89,0.187 -0.89,0.906 l 0,6.578 1.656,0 0,1.313 -1.656,0 0,2.765 -1.594,0 0,-2.765 -1.36,0 0,-1.313 1.36,0 0,-7.297 c 0,-1.015 0.703,-1.593 1.953,-1.593 0.375,0 0.766,0.047 1.297,0.14 z" /><path
         id="path74"
         style="fill:#000000;fill-opacity:1;fill-rule:nonzero;stroke:none"
         d="m 72.543,60.291 0,1.312 -8.594,0 0,-1.312 8.594,0 z m 0,-3.484 0,1.296 -8.594,0 0,-1.296 8.594,0 z" /><path
         id="path76"
         style="fill:#000000;fill-opacity:1;fill-rule:nonzero;stroke:none"
         d="m 85.77,58.244 c 0,1.719 -1.079,3 -2.969,3.516 l -3.516,0.937 c -1.687,0.438 -2.312,1 -2.312,2.078 0,1.422 1.25,2.469 3.14,2.469 2.219,0 3.485,-1.016 3.485,-2.844 l 1.687,0 c 0,2.75 -1.89,4.344 -5.125,4.344 -3.062,0 -4.969,-1.687 -4.969,-4.219 0,-1.718 0.907,-2.797 2.75,-3.265 l 3.469,-0.922 c 1.766,-0.469 2.578,-1.172 2.578,-2.266 0,-1.547 -1.156,-2.437 -3.578,-2.437 -2.64,0 -3.953,1.312 -3.953,3.312 l -1.687,0 c 0,-3.297 2.234,-4.89 5.531,-4.89 3.547,0 5.469,1.687 5.469,4.187 z" /><path
         id="path78"
         style="fill:#000000;fill-opacity:1;fill-rule:nonzero;stroke:none"
         d="m 95.902,54.4 0,10.063 -1.593,0 0,-5.547 c 0,-2.063 -1.063,-3.406 -2.735,-3.406 -1.265,0 -2.078,0.765 -2.078,1.984 l 0,6.969 -1.594,0 0,-7.61 c 0,-1.671 1.25,-2.734 3.203,-2.734 1.485,0 2.422,0.516 3.36,1.844 l 0,-1.563 1.437,0 z" /><path
         id="path80"
         style="fill:#000000;fill-opacity:1;fill-rule:nonzero;stroke:none"
         d="m 107.375,59.541 c 0,3.266 -1.656,5.203 -4.313,5.203 -1.374,0 -2.359,-0.516 -3.109,-1.641 l 0,5.297 -1.594,0 0,-14 1.453,0 0,1.438 c 0.766,-1.172 1.782,-1.719 3.188,-1.719 2.641,0 4.375,2.156 4.375,5.422 z m -1.672,-0.094 c 0,-2.281 -1.187,-3.844 -2.937,-3.844 -1.688,0 -2.813,1.547 -2.813,3.829 0,2.359 1.125,3.89 2.813,3.828 1.781,0 2.937,-1.563 2.937,-3.813 z" /><path
         id="path82"
         style="fill:#000000;fill-opacity:1;fill-rule:nonzero;stroke:none"
         d="m 116.816,57.228 c 0,1.5 -0.843,2.235 -2.843,2.719 l -1.532,0.375 c -1.312,0.297 -1.859,0.719 -1.859,1.438 0,0.922 0.828,1.515 2.125,1.515 1.281,0 1.984,-0.562 2.016,-1.609 l 1.687,0 c -0.015,1.969 -1.312,3.078 -3.64,3.078 -2.344,0 -3.86,-1.203 -3.86,-3.062 0,-1.579 0.797,-2.329 3.188,-2.907 l 1.5,-0.359 c 1.109,-0.266 1.547,-0.594 1.547,-1.328 0,-0.938 -0.938,-1.5 -2.344,-1.5 -1.438,0 -2.25,0.344 -2.453,1.89 l -1.688,0 c 0.078,-2.328 1.375,-3.359 4.016,-3.359 2.531,0 4.14,1.172 4.14,3.109 z" /><path
         id="path84"
         style="fill:#000000;fill-opacity:1;fill-rule:nonzero;stroke:none"
         d="m 122.402,54.4 0,1.344 c -0.203,-0.062 -0.453,-0.078 -0.765,-0.078 -0.688,0 -0.891,0.187 -0.891,0.906 l 0,6.578 1.656,0 0,1.313 -1.656,0 0,2.765 -1.594,0 0,-2.765 -1.359,0 0,-1.313 1.359,0 0,-7.297 c 0,-1.015 0.703,-1.593 1.953,-1.593 0.375,0 0.766,0.047 1.297,0.14 z" /><path
         id="path86"
         style="fill:#000000;fill-opacity:1;fill-rule:nonzero;stroke:none"
         d="m 129.52,54.4 0,13.61 -1.11,0 c -0.594,-2.094 -0.969,-2.375 -3.594,-2.703 l 0,-1.204 3.016,0 0,-9.703 1.688,0 z" /><path
         id="path88"
         style="fill:#000000;fill-opacity:1;fill-rule:nonzero;stroke:none"
         d="m 31.441,41.201 -2,0 -2.578,-11.375 -3.187,11.375 -1.922,0 -3.109,-11.375 -2.625,11.375 -2,0 3.593,-14 1.953,0 3.141,11.5 3.219,-11.5 1.953,0 3.562,14 z" /><path
         id="path90"
         style="fill:#000000;fill-opacity:1;fill-rule:nonzero;stroke:none"
         d="m 38.379,27.201 0,13.61 -1.109,0 c -0.594,-2.094 -0.969,-2.375 -3.594,-2.704 l 0,-1.203 3.015,0 0,-9.703 1.688,0 z" /><path
         id="path92"
         style="fill:#000000;fill-opacity:1;fill-rule:nonzero;stroke:none"
         d="m 52.305,33.092 0,1.312 -8.594,0 0,-1.312 8.594,0 z m 0,-3.485 0,1.297 -8.594,0 0,-1.297 8.594,0 z" /><path
         id="path94"
         style="fill:#000000;fill-opacity:1;fill-rule:nonzero;stroke:none"
         d="m 63.422,36.826 c 0,2.297 -1.781,3.985 -4.36,3.985 -2.781,0 -4.39,-1.422 -4.5,-4.719 l 1.704,0 c 0.125,2.281 1.062,3.25 2.734,3.25 1.547,0 2.688,-1.094 2.688,-2.563 0,-1.078 -0.626,-2 -1.844,-2.687 l -1.766,-1 c -2.844,-1.61 -3.656,-2.891 -3.812,-5.891 l 9.062,0 0,1.672 -7.172,0 c 0.188,1.109 0.797,1.828 2.469,2.797 l 1.922,1.047 c 1.891,1.015 2.875,2.437 2.875,4.109 z" /><path
         id="path96"
         style="fill:#000000;fill-opacity:1;fill-rule:nonzero;stroke:none"
         d="m 84.219,27.201 0,7.547 c 0,1.813 -1,2.797 -2.875,2.797 -1.344,0 -2.156,-0.391 -3.094,-1.531 -0.594,1.078 -1.406,1.531 -2.703,1.531 -1.344,0 -2.235,-0.5 -3.094,-1.703 l 0,1.422 -1.469,0 0,-10.063 1.594,0 0,6.313 c 0,1.468 1.063,2.64 2.36,2.64 1.203,0 1.874,-0.734 1.874,-2.015 l 0,-6.938 1.594,0 0,6.313 c 0,1.468 1.063,2.64 2.375,2.64 1.172,0 1.844,-0.75 1.844,-2.015 l 0,-6.938 1.594,0 z" /><path
         id="path98"
         style="fill:#000000;fill-opacity:1;fill-rule:nonzero;stroke:none"
         d="m 100.211,27.201 0,7.547 c 0,1.813 -1,2.797 -2.875,2.797 -1.344,0 -2.156,-0.391 -3.094,-1.531 -0.594,1.078 -1.406,1.531 -2.703,1.531 -1.344,0 -2.234,-0.5 -3.094,-1.703 l 0,1.422 -1.468,0 0,-10.063 1.593,0 0,6.313 c 0,1.468 1.063,2.64 2.36,2.64 1.203,0 1.875,-0.734 1.875,-2.015 l 0,-6.938 1.593,0 0,6.313 c 0,1.468 1.063,2.64 2.375,2.64 1.172,0 1.844,-0.75 1.844,-2.015 l 0,-6.938 1.594,0 z" /><path
         id="path100"
         style="fill:#000000;fill-opacity:1;fill-rule:nonzero;stroke:none"
         d="m 31.441,14.002 -2,0 -2.578,-11.375 -3.187,11.375 -1.922,0 -3.109,-11.375 -2.625,11.375 -2,0 3.593,-14 1.953,0 3.141,11.5 3.219,-11.5 1.953,0 3.562,14 z" /><path
         id="path102"
         style="fill:#000000;fill-opacity:1;fill-rule:nonzero;stroke:none"
         d="m 41.535,9.627 c 0,2.297 -1.781,3.984 -4.359,3.984 -2.781,0 -4.391,-1.422 -4.5,-4.718 l 1.703,0 c 0.125,2.281 1.062,3.25 2.734,3.25 1.547,0 2.688,-1.094 2.688,-2.563 0,-1.078 -0.625,-2 -1.844,-2.687 l -1.766,-1 C 33.348,4.283 32.535,3.002 32.379,0.002 l 9.062,0 0,1.672 -7.171,0 c 0.187,1.109 0.796,1.828 2.468,2.797 l 1.922,1.047 c 1.891,1.015 2.875,2.437 2.875,4.109 z" /><path
         id="path104"
         style="fill:#000000;fill-opacity:1;fill-rule:nonzero;stroke:none"
         d="m 52.305,5.893 0,1.312 -8.594,0 0,-1.312 8.594,0 z m 0,-3.485 0,1.297 -8.594,0 0,-1.297 8.594,0 z" /><path
         id="path106"
         style="fill:#000000;fill-opacity:1;fill-rule:nonzero;stroke:none"
         d="m 60.266,0.002 0,13.609 -1.11,0 c -0.594,-2.093 -0.968,-2.375 -3.594,-2.703 l 0,-1.203 3.016,0 0,-9.703 1.688,0 z" /><path
         id="path108"
         style="fill:#000000;fill-opacity:1;fill-rule:nonzero;stroke:none"
         d="m 84.219,0.002 0,7.547 c 0,1.812 -1,2.797 -2.875,2.797 -1.344,0 -2.156,-0.391 -3.094,-1.532 -0.594,1.079 -1.406,1.532 -2.703,1.532 -1.344,0 -2.235,-0.5 -3.094,-1.703 l 0,1.421 -1.469,0 0,-10.062 1.594,0 0,6.312 c 0,1.469 1.063,2.641 2.36,2.641 1.203,0 1.874,-0.734 1.874,-2.016 l 0,-6.937 1.594,0 0,6.312 c 0,1.469 1.063,2.641 2.375,2.641 1.172,0 1.844,-0.75 1.844,-2.016 l 0,-6.937 1.594,0 z" /><path
         id="path110"
         style="fill:#000000;fill-opacity:1;fill-rule:nonzero;stroke:none"
         d="m 100.211,0.002 0,7.547 c 0,1.812 -1,2.797 -2.875,2.797 -1.344,0 -2.156,-0.391 -3.094,-1.532 -0.594,1.079 -1.406,1.532 -2.703,1.532 -1.344,0 -2.234,-0.5 -3.094,-1.703 l 0,1.421 -1.468,0 0,-10.062 1.593,0 0,6.312 c 0,1.469 1.063,2.641 2.36,2.641 1.203,0 1.875,-0.734 1.875,-2.016 l 0,-6.937 1.593,0 0,6.312 c 0,1.469 1.063,2.641 2.375,2.641 1.172,0 1.844,-0.75 1.844,-2.016 l 0,-6.937 1.594,0 z" /><g
         transform="matrix(1,0,0,-1,0,151.99802)"
         id="g112"><path
           id="path114"
           style="fill:none;stroke:#ff0000;stroke-width:1.60000002;stroke-linecap:square;stroke-linejoin:bevel;stroke-miterlimit:4;stroke-dasharray:none;stroke-opacity:1"
           d="m 13.598,20.793 c 0,3.543 -2.868,6.41 -6.399,6.41 -3.535,0 -6.398,-2.867 -6.398,-6.41 0,-3.527 2.863,-6.398 6.398,-6.398 3.531,0 6.399,2.871 6.399,6.398" /></g><g
         transform="matrix(1,0,0,-1,0,151.99802)"
         id="g116"><path
           id="path118"
           style="fill:none;stroke:#ff0000;stroke-width:1.60000002;stroke-linecap:square;stroke-linejoin:bevel;stroke-miterlimit:4;stroke-dasharray:none;stroke-opacity:1"
           d="m 109.598,20.793 c 0,3.543 -2.868,6.41 -6.399,6.41 -3.535,0 -6.398,-2.867 -6.398,-6.41 0,-3.527 2.863,-6.398 6.398,-6.398 3.531,0 6.399,2.871 6.399,6.398" /></g></g></g></svg>