<?xml version="1.0" encoding="UTF-8" standalone="no"?>
<svg
   xmlns:dc="http://purl.org/dc/elements/1.1/"
   xmlns:cc="http://creativecommons.org/ns#"
   xmlns:rdf="http://www.w3.org/1999/02/22-rdf-syntax-ns#"
   xmlns:svg="http://www.w3.org/2000/svg"
   xmlns="http://www.w3.org/2000/svg"
   viewBox="0 0 117 180.24001"
   height="180.24001"
   width="117"
   xml:space="preserve"
   version="1.1"
   id="svg2"><metadata
     id="metadata8"><rdf:RDF><cc:Work
         rdf:about=""><dc:format>image/svg+xml</dc:format><dc:type
           rdf:resource="http://purl.org/dc/dcmitype/StillImage" /></cc:Work></rdf:RDF></metadata><defs
     id="defs6" /><g
     transform="matrix(1.25,0,0,-1.25,0,180.24)"
     id="g10"><g
       id="g12"><path
         id="path14"
         style="fill:#ffffff;fill-opacity:1;fill-rule:evenodd;stroke:none"
         d="m 0,144.192 93.602,0 0,-135.199 -93.602,0 0,135.199 z" /><g
         transform="matrix(1,0,0,-1,0,144.192)"
         id="g16"><path
           id="path18"
           style="fill:none;stroke:#000080;stroke-width:1.60000002;stroke-linecap:square;stroke-linejoin:bevel;stroke-miterlimit:4;stroke-dasharray:none;stroke-opacity:1"
           d="m 15.199,20.801 9.602,0" /></g><g
         transform="matrix(1,0,0,-1,0,144.192)"
         id="g20"><path
           id="path22"
           style="fill:none;stroke:#000080;stroke-width:1.60000002;stroke-linecap:square;stroke-linejoin:bevel;stroke-miterlimit:4;stroke-dasharray:none;stroke-opacity:1"
           d="m 53.602,20.801 9.597,0" /></g><g
         transform="matrix(1,0,0,-1,0,144.192)"
         id="g24"><path
           id="path26"
           style="fill:none;stroke:#000080;stroke-width:1.60000002;stroke-linecap:square;stroke-linejoin:bevel;stroke-miterlimit:4;stroke-dasharray:none;stroke-opacity:1"
           d="m 39.199,35.199 0,9.602" /></g><g
         transform="matrix(1,0,0,-1,0,144.192)"
         id="g28"><path
           id="path30"
           style="fill:none;stroke:#000080;stroke-width:1.60000002;stroke-linecap:square;stroke-linejoin:bevel;stroke-miterlimit:4;stroke-dasharray:none;stroke-opacity:1"
           d="m 24.801,14.398 28.801,0" /></g><g
         transform="matrix(1,0,0,-1,0,144.192)"
         id="g32"><path
           id="path34"
           style="fill:none;stroke:#000080;stroke-width:1.60000002;stroke-linecap:square;stroke-linejoin:bevel;stroke-miterlimit:4;stroke-dasharray:none;stroke-opacity:1"
           d="m 24.801,27.199 8,0" /></g><g
         transform="matrix(1,0,0,-1,0,144.192)"
         id="g36"><path
           id="path38"
           style="fill:none;stroke:#000080;stroke-width:1.60000002;stroke-linecap:square;stroke-linejoin:bevel;stroke-miterlimit:4;stroke-dasharray:none;stroke-opacity:1"
           d="m 45.602,27.199 8,0" /></g><g
         transform="matrix(1,0,0,-1,0,144.192)"
         id="g40"><path
           id="path42"
           style="fill:none;stroke:#000080;stroke-width:1.60000002;stroke-linecap:square;stroke-linejoin:bevel;stroke-miterlimit:4;stroke-dasharray:none;stroke-opacity:1"
           d="m 24.801,14.398 0,12.801" /></g><g
         transform="matrix(1,0,0,-1,0,144.192)"
         id="g44"><path
           id="path46"
           style="fill:none;stroke:#000080;stroke-width:1.60000002;stroke-linecap:square;stroke-linejoin:bevel;stroke-miterlimit:4;stroke-dasharray:none;stroke-opacity:1"
           d="m 53.602,14.398 0,12.801" /></g><g
         transform="matrix(1,0,0,-1,0,144.192)"
         id="g48"><path
           id="path50"
           style="fill:none;stroke:#000080;stroke-width:1.60000002;stroke-linecap:square;stroke-linejoin:bevel;stroke-miterlimit:4;stroke-dasharray:none;stroke-opacity:1"
           d="m 32.801,27.199 0,8" /></g><g
         transform="matrix(1,0,0,-1,0,144.192)"
         id="g52"><path
           id="path54"
           style="fill:none;stroke:#000080;stroke-width:1.60000002;stroke-linecap:square;stroke-linejoin:bevel;stroke-miterlimit:4;stroke-dasharray:none;stroke-opacity:1"
           d="m 45.602,27.199 0,8" /></g><g
         transform="matrix(1,0,0,-1,0,144.192)"
         id="g56"><path
           id="path58"
           style="fill:none;stroke:#000080;stroke-width:1.60000002;stroke-linecap:square;stroke-linejoin:bevel;stroke-miterlimit:4;stroke-dasharray:none;stroke-opacity:1"
           d="m 32.801,35.199 12.801,0" /></g><text
         id="text60"
         style="font-variant:normal;font-weight:normal;font-size:10.66664028px;font-family:TeXGyreHeros;-inkscape-font-specification:TeXGyreHeros-Regular;writing-mode:lr-tb;fill:#000000;fill-opacity:1;fill-rule:nonzero;stroke:none"
         transform="matrix(1,0,0,-1,18.4,108.192)"><tspan
           id="tspan62"
           y="0"
           x="0 37.599907">12</tspan><tspan
           id="tspan64"
           y="12.000002"
           x="24.000004">3</tspan></text>
<text
         id="text66"
         style="font-variant:normal;font-weight:normal;font-size:12.80000019px;font-family:TeXGyreHeros;-inkscape-font-specification:TeXGyreHeros-Regular;writing-mode:lr-tb;fill:#000000;fill-opacity:1;fill-rule:nonzero;stroke:none"
         transform="matrix(1,0,0,-1,12,73.792001)"><tspan
           id="tspan68"
           y="0"
           x="0 10.6624 19.200001">MS1</tspan><tspan
           id="tspan70"
           y="18.4"
           x="0 8.5375996 15.6544 22.7712 29.132799 32.6912 40.166401 48.703999 55.820801 62.937599 69.2864 72.844803">Subst=Subst1</tspan><tspan
           id="tspan72"
           y="36.799999"
           x="0 12.0832 19.200001 26.6752 33.075199 36.633598 47.296001">W1=x mm</tspan><tspan
           id="tspan74"
           y="55.200001"
           x="0 12.0832 19.200001 26.6752 33.075199 36.633598 47.296001">W2=y mm</tspan><tspan
           id="tspan76"
           y="73.599998"
           x="0 12.0832 19.200001 26.6752 36.633598 47.296001">W3=zmm</tspan></text>
<g
         transform="matrix(1,0,0,-1,0,144.192)"
         id="g78"><path
           id="path80"
           style="fill:none;stroke:#ff0000;stroke-width:0.80000001;stroke-linecap:square;stroke-linejoin:bevel;stroke-miterlimit:4;stroke-dasharray:none;stroke-opacity:1"
           d="M 18.398,20.801 C 18.398,22.566 16.969,24 15.199,24 13.434,24 12,22.566 12,20.801 c 0,-1.77 1.434,-3.199 3.199,-3.199 1.77,0 3.199,1.429 3.199,3.199" /></g><g
         transform="matrix(1,0,0,-1,0,144.192)"
         id="g82"><path
           id="path84"
           style="fill:none;stroke:#ff0000;stroke-width:0.80000001;stroke-linecap:square;stroke-linejoin:bevel;stroke-miterlimit:4;stroke-dasharray:none;stroke-opacity:1"
           d="M 66.398,20.801 C 66.398,22.566 64.969,24 63.199,24 61.434,24 60,22.566 60,20.801 c 0,-1.77 1.434,-3.199 3.199,-3.199 1.77,0 3.199,1.429 3.199,3.199" /></g><g
         transform="matrix(1,0,0,-1,0,144.192)"
         id="g86"><path
           id="path88"
           style="fill:none;stroke:#ff0000;stroke-width:0.80000001;stroke-linecap:square;stroke-linejoin:bevel;stroke-miterlimit:4;stroke-dasharray:none;stroke-opacity:1"
           d="M 42.398,44.801 C 42.398,46.566 40.969,48 39.199,48 37.434,48 36,46.566 36,44.801 c 0,-1.77 1.434,-3.199 3.199,-3.199 1.77,0 3.199,1.429 3.199,3.199" /></g></g></g></svg>