<?xml version="1.0" encoding="UTF-8" standalone="no"?>
<svg
   xmlns:dc="http://purl.org/dc/elements/1.1/"
   xmlns:cc="http://creativecommons.org/ns#"
   xmlns:rdf="http://www.w3.org/1999/02/22-rdf-syntax-ns#"
   xmlns:svg="http://www.w3.org/2000/svg"
   xmlns="http://www.w3.org/2000/svg"
   viewBox="0 0 100 137"
   height="137"
   width="100"
   xml:space="preserve"
   version="1.1"
   id="svg2"><metadata
     id="metadata8"><rdf:RDF><cc:Work
         rdf:about=""><dc:format>image/svg+xml</dc:format><dc:type
           rdf:resource="http://purl.org/dc/dcmitype/StillImage" /></cc:Work></rdf:RDF></metadata><defs
     id="defs6" /><g
     transform="matrix(1.25,0,0,-1.25,0,137)"
     id="g10"><g
       id="g12"><path
         id="path14"
         style="fill:#ffffff;fill-opacity:1;fill-rule:evenodd;stroke:none"
         d="m 0,109.6 80,0 0,-109.602 -80,0 0,109.602 z" /><g
         transform="matrix(1,0,0,-1,0,109.6)"
         id="g16"><path
           id="path18"
           style="fill:none;stroke:#000080;stroke-width:1.60000002;stroke-linecap:square;stroke-linejoin:bevel;stroke-miterlimit:4;stroke-dasharray:none;stroke-opacity:1"
           d="m 24,61.602 24,0" /></g><g
         transform="matrix(1,0,0,-1,0,109.6)"
         id="g20"><path
           id="path22"
           style="fill:none;stroke:#000080;stroke-width:1.60000002;stroke-linecap:square;stroke-linejoin:bevel;stroke-miterlimit:4;stroke-dasharray:none;stroke-opacity:1"
           d="m 48,61.602 0,24" /></g><g
         transform="matrix(1,0,0,-1,0,109.6)"
         id="g24"><path
           id="path26"
           style="fill:none;stroke:#000080;stroke-width:1.60000002;stroke-linecap:square;stroke-linejoin:bevel;stroke-miterlimit:4;stroke-dasharray:none;stroke-opacity:1"
           d="m 24,85.602 24,0" /></g><g
         transform="matrix(1,0,0,-1,0,109.6)"
         id="g28"><path
           id="path30"
           style="fill:none;stroke:#000080;stroke-width:1.60000002;stroke-linecap:square;stroke-linejoin:bevel;stroke-miterlimit:4;stroke-dasharray:none;stroke-opacity:1"
           d="m 24,61.602 0,24" /></g><g
         transform="matrix(1,0,0,-1,0,109.6)"
         id="g32"><path
           id="path34"
           style="fill:none;stroke:#000080;stroke-width:1.60000002;stroke-linecap:square;stroke-linejoin:bevel;stroke-miterlimit:4;stroke-dasharray:none;stroke-opacity:1"
           d="m 12,73.602 12,0" /></g><g
         transform="matrix(1,0,0,-1,0,109.6)"
         id="g36"><path
           id="path38"
           style="fill:none;stroke:#000080;stroke-width:1.60000002;stroke-linecap:square;stroke-linejoin:bevel;stroke-miterlimit:4;stroke-dasharray:none;stroke-opacity:1"
           d="m 48,73.602 12,0" /></g><g
         transform="matrix(1,0,0,-1,0,109.6)"
         id="g40"><path
           id="path42"
           style="fill:none;stroke:#000080;stroke-width:1.60000002;stroke-linecap:square;stroke-linejoin:bevel;stroke-miterlimit:4;stroke-dasharray:none;stroke-opacity:1"
           d="m 36,85.602 0,12" /></g><text
         id="text44"
         style="font-variant:normal;font-weight:normal;font-size:10.66664028px;font-family:TeXGyreHeros;-inkscape-font-specification:TeXGyreHeros-Regular;writing-mode:lr-tb;fill:#000000;fill-opacity:1;fill-rule:nonzero;stroke:none"
         transform="matrix(1,0,0,-1,28.8,27.999998)"><tspan
           id="tspan46"
           y="0"
           x="0">ﬁ</tspan></text>
<text
         id="text48"
         style="font-variant:normal;font-weight:normal;font-size:10.66664028px;font-family:TeXGyreHeros;-inkscape-font-specification:TeXGyreHeros-Regular;writing-mode:lr-tb;fill:#000000;fill-opacity:1;fill-rule:nonzero;stroke:none"
         transform="matrix(1,0,0,-1,34.13332,27.999998)"><tspan
           id="tspan50"
           y="0"
           x="0 5.3333201 11.263972 13.631966 19.562618">chier</tspan><tspan
           id="tspan52"
           y="-6.4000053"
           x="-18.13332 17.066591">12</tspan><tspan
           id="tspan54"
           y="16.79999"
           x="5.0666752 12.671989 18.602642">Ref</tspan></text>
<text
         id="text56"
         style="font-variant:normal;font-weight:normal;font-size:12.80000019px;font-family:TeXGyreHeros;-inkscape-font-specification:TeXGyreHeros-Regular;writing-mode:lr-tb;fill:#000000;fill-opacity:1;fill-rule:nonzero;stroke:none"
         transform="matrix(1,0,0,-1,15.2,82.399998)"><tspan
           id="tspan58"
           y="0"
           x="0 8.5375996">X1</tspan><tspan
           id="tspan60"
           y="18.4"
           x="0 7.8207998 10.6624 13.504 20.6208 28.096001 34.495998 38.054401 44.454399 51.6096">File=x.s2p</tspan></text>
<g
         transform="matrix(1,0,0,-1,0,109.6)"
         id="g62"><path
           id="path64"
           style="fill:none;stroke:#ff0000;stroke-width:0.80000001;stroke-linecap:square;stroke-linejoin:bevel;stroke-miterlimit:4;stroke-dasharray:none;stroke-opacity:1"
           d="m 15.199,73.602 c 0,1.765 -1.433,3.199 -3.199,3.199 -1.766,0 -3.199,-1.434 -3.199,-3.199 0,-1.77 1.433,-3.204 3.199,-3.204 1.766,0 3.199,1.434 3.199,3.204" /></g><g
         transform="matrix(1,0,0,-1,0,109.6)"
         id="g66"><path
           id="path68"
           style="fill:none;stroke:#ff0000;stroke-width:0.80000001;stroke-linecap:square;stroke-linejoin:bevel;stroke-miterlimit:4;stroke-dasharray:none;stroke-opacity:1"
           d="m 63.199,73.602 c 0,1.765 -1.433,3.199 -3.199,3.199 -1.766,0 -3.199,-1.434 -3.199,-3.199 0,-1.77 1.433,-3.204 3.199,-3.204 1.766,0 3.199,1.434 3.199,3.204" /></g><g
         transform="matrix(1,0,0,-1,0,109.6)"
         id="g70"><path
           id="path72"
           style="fill:none;stroke:#ff0000;stroke-width:0.80000001;stroke-linecap:square;stroke-linejoin:bevel;stroke-miterlimit:4;stroke-dasharray:none;stroke-opacity:1"
           d="m 39.199,97.602 c 0,1.765 -1.433,3.199 -3.199,3.199 -1.766,0 -3.199,-1.434 -3.199,-3.199 0,-1.77 1.433,-3.204 3.199,-3.204 1.766,0 3.199,1.434 3.199,3.204" /></g></g></g></svg>