<?xml version="1.0" encoding="UTF-8" standalone="no"?>
<svg
   xmlns:dc="http://purl.org/dc/elements/1.1/"
   xmlns:cc="http://creativecommons.org/ns#"
   xmlns:rdf="http://www.w3.org/1999/02/22-rdf-syntax-ns#"
   xmlns:svg="http://www.w3.org/2000/svg"
   xmlns="http://www.w3.org/2000/svg"
   viewBox="0 0 112.71028 181.53043"
   height="181.53043"
   width="112.71028"
   xml:space="preserve"
   version="1.1"
   id="svg2"><metadata
     id="metadata8"><rdf:RDF><cc:Work
         rdf:about=""><dc:format>image/svg+xml</dc:format><dc:type
           rdf:resource="http://purl.org/dc/dcmitype/StillImage" /></cc:Work></rdf:RDF></metadata><defs
     id="defs6" /><g
     transform="matrix(1.25,0,0,-1.25,0,181.53042)"
     id="g10"><g
       id="g12"><path
         id="path14"
         style="fill:none;stroke:#000080;stroke-width:1.60000002;stroke-linecap:square;stroke-linejoin:bevel;stroke-miterlimit:4;stroke-dasharray:none;stroke-opacity:1"
         d="m 1.078,124.947 48,0" /><path
         id="path16"
         style="fill:none;stroke:#000080;stroke-width:1.60000002;stroke-linecap:square;stroke-linejoin:bevel;stroke-miterlimit:4;stroke-dasharray:none;stroke-opacity:1"
         d="m 1.078,121.744 48,0" /><path
         id="path18"
         style="fill:none;stroke:#000080;stroke-width:1.60000002;stroke-linecap:square;stroke-linejoin:bevel;stroke-miterlimit:4;stroke-dasharray:none;stroke-opacity:1"
         d="m 1.078,99.345 48,0" /><path
         id="path20"
         style="fill:none;stroke:#000080;stroke-width:1.60000002;stroke-linecap:square;stroke-linejoin:bevel;stroke-miterlimit:4;stroke-dasharray:none;stroke-opacity:1"
         d="m 1.078,102.545 48,0" /><path
         id="path22"
         style="fill:none;stroke:#000080;stroke-width:1.60000002;stroke-linecap:square;stroke-linejoin:bevel;stroke-miterlimit:4;stroke-dasharray:none;stroke-opacity:1"
         d="m 1.078,124.947 0,-25.602" /><path
         id="path24"
         style="fill:none;stroke:#000080;stroke-width:1.60000002;stroke-linecap:square;stroke-linejoin:bevel;stroke-miterlimit:4;stroke-dasharray:none;stroke-opacity:1"
         d="m 49.078,124.947 0,-25.602" /><path
         id="path26"
         style="fill:none;stroke:#000080;stroke-width:1.60000002;stroke-linecap:square;stroke-linejoin:bevel;stroke-miterlimit:4;stroke-dasharray:none;stroke-opacity:1"
         d="m 1.078,124.947 36.801,19.199" /><path
         id="path28"
         style="fill:none;stroke:#000080;stroke-width:1.60000002;stroke-linecap:square;stroke-linejoin:bevel;stroke-miterlimit:4;stroke-dasharray:none;stroke-opacity:1"
         d="m 49.078,124.947 40,19.199" /><path
         id="path30"
         style="fill:none;stroke:#000080;stroke-width:1.60000002;stroke-linecap:square;stroke-linejoin:bevel;stroke-miterlimit:4;stroke-dasharray:none;stroke-opacity:1"
         d="m 49.078,121.744 40,19.203" /><path
         id="path32"
         style="fill:none;stroke:#000080;stroke-width:1.60000002;stroke-linecap:square;stroke-linejoin:bevel;stroke-miterlimit:4;stroke-dasharray:none;stroke-opacity:1"
         d="m 49.078,102.545 40,22.402" /><path
         id="path34"
         style="fill:none;stroke:#000080;stroke-width:1.60000002;stroke-linecap:square;stroke-linejoin:bevel;stroke-miterlimit:4;stroke-dasharray:none;stroke-opacity:1"
         d="m 49.078,99.345 40,22.399" /><path
         id="path36"
         style="fill:none;stroke:#000080;stroke-width:1.60000002;stroke-linecap:square;stroke-linejoin:bevel;stroke-miterlimit:4;stroke-dasharray:none;stroke-opacity:1"
         d="m 37.879,144.146 51.199,0" /><path
         id="path38"
         style="fill:none;stroke:#000080;stroke-width:1.60000002;stroke-linecap:square;stroke-linejoin:bevel;stroke-miterlimit:4;stroke-dasharray:none;stroke-opacity:1"
         d="m 89.078,144.146 0,-22.402" /><path
         id="path40"
         style="fill:none;stroke:#000080;stroke-width:0.80000001;stroke-linecap:square;stroke-linejoin:bevel;stroke-miterlimit:4;stroke-dasharray:none;stroke-opacity:1"
         d="m 1.078,112.146 9.602,9.598" /><path
         id="path42"
         style="fill:none;stroke:#000080;stroke-width:0.80000001;stroke-linecap:square;stroke-linejoin:bevel;stroke-miterlimit:4;stroke-dasharray:none;stroke-opacity:1"
         d="m 7.48,102.545 19.2,19.199" /><path
         id="path44"
         style="fill:none;stroke:#000080;stroke-width:0.80000001;stroke-linecap:square;stroke-linejoin:bevel;stroke-miterlimit:4;stroke-dasharray:none;stroke-opacity:1"
         d="m 23.48,102.545 19.2,19.199" /><path
         id="path46"
         style="fill:none;stroke:#000080;stroke-width:0.80000001;stroke-linecap:square;stroke-linejoin:bevel;stroke-miterlimit:4;stroke-dasharray:none;stroke-opacity:1"
         d="m 39.48,102.545 9.598,9.601" /><path
         id="path48"
         style="fill:none;stroke:#000080;stroke-width:0.80000001;stroke-linecap:square;stroke-linejoin:bevel;stroke-miterlimit:4;stroke-dasharray:none;stroke-opacity:1"
         d="m 49.078,111.345 5.602,-5.601" /><path
         id="path50"
         style="fill:none;stroke:#000080;stroke-width:0.80000001;stroke-linecap:square;stroke-linejoin:bevel;stroke-miterlimit:4;stroke-dasharray:none;stroke-opacity:1"
         d="m 54.68,124.146 12,-12" /><path
         id="path52"
         style="fill:none;stroke:#000080;stroke-width:0.80000001;stroke-linecap:square;stroke-linejoin:bevel;stroke-miterlimit:4;stroke-dasharray:none;stroke-opacity:1"
         d="M 66.68,129.744 77.879,118.545" /><path
         id="path54"
         style="fill:none;stroke:#000080;stroke-width:0.80000001;stroke-linecap:square;stroke-linejoin:bevel;stroke-miterlimit:4;stroke-dasharray:none;stroke-opacity:1"
         d="M 77.879,136.146 89.078,124.947" /><path
         id="path56"
         style="fill:#000000;fill-opacity:1;fill-rule:nonzero;stroke:none"
         d="m 7.035,83.666 c 0,0.859 -0.531,1.5 -1.484,1.75 l -1.75,0.468 c -0.844,0.219 -1.156,0.5 -1.156,1.047 0,0.703 0.625,1.235 1.562,1.235 1.109,0 1.75,-0.516 1.75,-1.422 l 0.844,0 c 0,1.375 -0.953,2.172 -2.563,2.172 -1.531,0 -2.484,-0.844 -2.484,-2.11 0,-0.859 0.453,-1.39 1.375,-1.64 l 1.734,-0.453 c 0.875,-0.235 1.282,-0.594 1.282,-1.141 0,-0.766 -0.579,-1.219 -1.782,-1.219 -1.328,0 -1.968,0.672 -1.968,1.672 l -0.86,0 c 0,-1.656 1.125,-2.453 2.766,-2.453 1.781,0 2.734,0.844 2.734,2.094 z" /><path
         id="path58"
         style="fill:#000000;fill-opacity:1;fill-rule:nonzero;stroke:none"
         d="m 12.109,81.744 0,5.031 -0.797,0 0,-2.781 c 0,-1.016 -0.531,-1.688 -1.374,-1.688 -0.626,0 -1.032,0.375 -1.032,0.985 l 0,3.484 -0.797,0 0,-3.797 c 0,-0.844 0.625,-1.375 1.594,-1.375 0.75,0 1.219,0.25 1.688,0.922 l 0,-0.781 0.718,0 z" /><path
         id="path60"
         style="fill:#000000;fill-opacity:1;fill-rule:nonzero;stroke:none"
         d="m 17.836,84.322 c 0,1.625 -0.828,2.594 -2.141,2.594 -0.703,0 -1.187,-0.266 -1.562,-0.828 l 0,2.656 -0.797,0 0,-7 0.719,0 0,0.719 c 0.39,-0.579 0.89,-0.86 1.593,-0.86 1.329,0 2.188,1.078 2.188,2.719 z m -0.828,-0.063 c 0,-1.14 -0.594,-1.906 -1.469,-1.906 -0.844,0 -1.406,0.766 -1.406,1.906 0,1.172 0.562,1.954 1.406,1.907 0.891,0 1.469,-0.782 1.469,-1.907 z" /><path
         id="path62"
         style="fill:#000000;fill-opacity:1;fill-rule:nonzero;stroke:none"
         d="m 22.566,83.15 c 0,0.75 -0.421,1.125 -1.421,1.359 l -0.766,0.188 c -0.656,0.156 -0.938,0.359 -0.938,0.719 0,0.468 0.422,0.765 1.063,0.765 0.656,0 1,-0.281 1.016,-0.812 l 0.843,0 c -0.015,0.984 -0.656,1.547 -1.828,1.547 -1.172,0 -1.922,-0.61 -1.922,-1.532 0,-0.796 0.407,-1.171 1.594,-1.453 l 0.75,-0.187 c 0.547,-0.125 0.766,-0.297 0.766,-0.656 0,-0.469 -0.469,-0.75 -1.172,-0.75 -0.719,0 -1.11,0.171 -1.219,0.937 l -0.844,0 c 0.032,-1.156 0.688,-1.672 2,-1.672 1.266,0 2.078,0.578 2.078,1.547 z" /><path
         id="path64"
         style="fill:#000000;fill-opacity:1;fill-rule:nonzero;stroke:none"
         d="m 25.367,81.744 0,0.672 c -0.109,-0.032 -0.234,-0.032 -0.39,-0.032 -0.344,0 -0.438,0.094 -0.438,0.438 l 0,3.297 0.828,0 0,0.656 -0.828,0 0,1.375 -0.797,0 0,-1.375 -0.672,0 0,-0.656 0.672,0 0,-3.641 c 0,-0.515 0.344,-0.797 0.969,-0.797 0.187,0 0.391,0.016 0.656,0.063 z" /><path
         id="path66"
         style="fill:#000000;fill-opacity:1;fill-rule:nonzero;stroke:none"
         d="m 28.926,81.744 0,6.797 -0.563,0 c -0.297,-1.047 -0.484,-1.188 -1.781,-1.344 l 0,-0.609 1.5,0 0,-4.844 0.844,0 z" /><path
         id="path68"
         style="fill:#000000;fill-opacity:1;fill-rule:nonzero;stroke:none"
         d="m 6.004,70.424 c 0,0.734 -0.063,1.187 -0.203,1.562 -0.328,0.828 -1.094,1.328 -2.031,1.328 -1.407,0 -2.297,-1.031 -2.297,-2.687 0,-1.657 0.859,-2.625 2.281,-2.625 1.141,0 1.937,0.656 2.141,1.672 l -0.797,0 C 4.879,69.002 4.426,68.736 3.785,68.736 c -0.844,0 -1.469,0.531 -1.484,1.688 l 3.703,0 z m -0.859,0.718 c 0,0 0,-0.047 0,-0.062 l -2.829,0 c 0.079,0.89 0.641,1.5 1.438,1.5 0.797,0 1.391,-0.656 1.391,-1.438 z" /><path
         id="path70"
         style="fill:#000000;fill-opacity:1;fill-rule:nonzero;stroke:none"
         d="m 9.496,72.47 0,0.813 c -0.141,0.016 -0.203,0.031 -0.312,0.031 -0.516,0 -0.907,-0.312 -1.36,-1.062 l 0,0.922 -0.734,0 0,-5.032 0.797,0 0,2.61 c 0,1.125 0.375,1.703 1.609,1.718 z" /><path
         id="path72"
         style="fill:#000000;fill-opacity:1;fill-rule:nonzero;stroke:none"
         d="m 14.566,71.08 0,0.656 -4.296,0 0,-0.656 4.296,0 z m 0,-1.735 0,0.657 -4.296,0 0,-0.657 4.296,0 z" /><path
         id="path74"
         style="fill:#000000;fill-opacity:1;fill-rule:nonzero;stroke:none"
         d="m 20.207,69.767 0,0.766 -1,0 0,4.406 -0.625,0 -3.094,-4.281 0,-0.891 2.875,0 0,-1.625 0.844,0 0,1.625 1,0 z m -1.844,0.766 -2.14,0 2.14,2.969 0,-2.969 z" /><path
         id="path76"
         style="fill:#000000;fill-opacity:1;fill-rule:nonzero;stroke:none"
         d="m 21.387,69.142 1,0 0,-1 -1,0 0,1 z" /><path
         id="path78"
         style="fill:#000000;fill-opacity:1;fill-rule:nonzero;stroke:none"
         d="m 28.211,74.095 0,0.704 -4.547,0 0,-0.829 3.672,0 c -1.344,-1.718 -2.313,-3.703 -2.781,-5.828 l 0.89,0 c 0.375,2.203 1.344,4.25 2.766,5.953 z" /><path
         id="path80"
         style="fill:#000000;fill-opacity:1;fill-rule:nonzero;stroke:none"
         d="m 5.738,54.545 0,3.797 c 0,0.843 -0.593,1.375 -1.578,1.375 -0.703,0 -1.14,-0.219 -1.609,-0.829 l 0,2.657 -0.797,0 0,-7 0.797,0 0,2.765 c 0,1.032 0.531,1.703 1.359,1.703 0.563,0 1.031,-0.328 1.031,-0.984 l 0,-3.484 0.797,0 z" /><path
         id="path82"
         style="fill:#000000;fill-opacity:1;fill-rule:nonzero;stroke:none"
         d="m 11.371,57.482 0,0.656 -4.297,0 0,-0.656 4.297,0 z m 0,-1.734 0,0.656 -4.297,0 0,-0.656 4.297,0 z" /><path
         id="path84"
         style="fill:#000000;fill-opacity:1;fill-rule:nonzero;stroke:none"
         d="m 15.352,54.545 0,6.797 -0.563,0 c -0.297,-1.047 -0.484,-1.188 -1.781,-1.344 l 0,-0.61 1.5,0 0,-4.843 0.844,0 z" /><path
         id="path86"
         style="fill:#000000;fill-opacity:1;fill-rule:nonzero;stroke:none"
         d="m 18.191,55.545 1,0 0,-1 -1,0 0,1 z" /><path
         id="path88"
         style="fill:#000000;fill-opacity:1;fill-rule:nonzero;stroke:none"
         d="m 24.953,56.795 c 0,1.343 -0.891,2.234 -2.203,2.234 -0.469,0 -0.859,-0.125 -1.25,-0.422 l 0.266,1.766 2.828,0 0,0.828 -3.5,0 -0.516,-3.563 0.781,0 c 0.391,0.469 0.719,0.641 1.25,0.641 0.907,0 1.485,-0.594 1.485,-1.594 0,-0.984 -0.578,-1.531 -1.485,-1.531 -0.75,0 -1.203,0.375 -1.39,1.141 l -0.86,0 c 0.282,-1.36 1.047,-1.891 2.266,-1.891 1.375,0 2.328,0.953 2.328,2.391 z" /><path
         id="path90"
         style="fill:#000000;fill-opacity:1;fill-rule:nonzero;stroke:none"
         d="m 30.289,56.795 c 0,1.343 -0.891,2.234 -2.203,2.234 -0.469,0 -0.859,-0.125 -1.25,-0.422 l 0.266,1.766 2.828,0 0,0.828 -3.5,0 -0.516,-3.563 0.781,0 c 0.391,0.469 0.719,0.641 1.25,0.641 0.907,0 1.485,-0.594 1.485,-1.594 0,-0.984 -0.578,-1.531 -1.485,-1.531 -0.75,0 -1.203,0.375 -1.39,1.141 l -0.86,0 c 0.282,-1.36 1.047,-1.891 2.266,-1.891 1.375,0 2.328,0.953 2.328,2.391 z" /><path
         id="path92"
         style="fill:#000000;fill-opacity:1;fill-rule:nonzero;stroke:none"
         d="m 40.672,54.545 0,3.765 c 0,0.907 -0.5,1.407 -1.438,1.407 -0.672,0 -1.078,-0.204 -1.546,-0.766 -0.297,0.531 -0.704,0.766 -1.36,0.766 -0.672,0 -1.109,-0.25 -1.547,-0.86 l 0,0.719 -0.719,0 0,-5.031 0.797,0 0,3.156 c 0,0.734 0.516,1.312 1.172,1.312 0.594,0 0.938,-0.359 0.938,-1 l 0,-3.468 0.797,0 0,3.156 c 0,0.734 0.531,1.312 1.187,1.312 0.578,0 0.922,-0.375 0.922,-1 l 0,-3.468 0.797,0 z" /><path
         id="path94"
         style="fill:#000000;fill-opacity:1;fill-rule:nonzero;stroke:none"
         d="m 48.695,54.545 0,3.765 c 0,0.907 -0.5,1.407 -1.437,1.407 -0.672,0 -1.078,-0.204 -1.547,-0.766 -0.297,0.531 -0.703,0.766 -1.359,0.766 -0.672,0 -1.11,-0.25 -1.547,-0.86 l 0,0.719 -0.719,0 0,-5.031 0.797,0 0,3.156 c 0,0.734 0.515,1.312 1.172,1.312 0.593,0 0.937,-0.359 0.937,-1 l 0,-3.468 0.797,0 0,3.156 c 0,0.734 0.531,1.312 1.188,1.312 0.578,0 0.921,-0.375 0.921,-1 l 0,-3.468 0.797,0 z" /><path
         id="path96"
         style="fill:#000000;fill-opacity:1;fill-rule:nonzero;stroke:none"
         d="m 3.52,40.943 0,0.672 C 3.41,41.584 3.285,41.584 3.129,41.584 c -0.344,0 -0.438,0.093 -0.438,0.437 l 0,3.297 0.829,0 0,0.656 -0.829,0 0,1.375 -0.796,0 0,-1.375 -0.672,0 0,-0.656 0.672,0 0,-3.641 c 0,-0.515 0.343,-0.796 0.968,-0.796 0.188,0 0.391,0.015 0.657,0.062 z" /><path
         id="path98"
         style="fill:#000000;fill-opacity:1;fill-rule:nonzero;stroke:none"
         d="m 8.703,43.881 0,0.656 -4.297,0 0,-0.656 4.297,0 z m 0,-1.735 0,0.656 -4.297,0 0,-0.656 4.297,0 z" /><path
         id="path100"
         style="fill:#000000;fill-opacity:1;fill-rule:nonzero;stroke:none"
         d="m 14.215,42.912 c 0,0.828 -0.344,1.312 -1.156,1.594 0.64,0.25 0.953,0.687 0.953,1.375 0,1.171 -0.782,1.859 -2.078,1.859 -1.375,0 -2.094,-0.75 -2.125,-2.188 l 0.843,0 c 0.016,1 0.438,1.454 1.297,1.454 0.75,0 1.203,-0.438 1.203,-1.157 0,-0.734 -0.328,-1.031 -1.672,-1.031 l 0,-0.703 0.454,0 c 0.937,0 1.406,-0.453 1.406,-1.203 0,-0.86 -0.516,-1.36 -1.406,-1.36 -0.922,0 -1.375,0.454 -1.422,1.438 l -0.844,0 c 0.094,-1.516 0.844,-2.188 2.234,-2.188 1.407,0 2.313,0.829 2.313,2.11 z" /><path
         id="path102"
         style="fill:#000000;fill-opacity:1;fill-rule:nonzero;stroke:none"
         d="m 19.613,43.193 c 0,1.344 -0.89,2.234 -2.203,2.234 -0.469,0 -0.859,-0.125 -1.25,-0.421 l 0.266,1.765 2.828,0 0,0.828 -3.5,0 -0.516,-3.562 0.782,0 c 0.39,0.469 0.718,0.64 1.25,0.64 0.906,0 1.484,-0.593 1.484,-1.593 0,-0.985 -0.578,-1.532 -1.484,-1.532 -0.75,0 -1.204,0.375 -1.391,1.141 l -0.859,0 c 0.281,-1.359 1.046,-1.891 2.265,-1.891 1.375,0 2.328,0.954 2.328,2.391 z" /><path
         id="path104"
         style="fill:#000000;fill-opacity:1;fill-rule:nonzero;stroke:none"
         d="m 27.324,40.943 0,5.031 -0.797,0 0,-2.781 c 0,-1.016 -0.531,-1.687 -1.375,-1.687 -0.625,0 -1.031,0.375 -1.031,0.984 l 0,3.484 -0.797,0 0,-3.797 c 0,-0.843 0.625,-1.375 1.594,-1.375 0.75,0 1.219,0.25 1.687,0.922 l 0,-0.781 0.719,0 z" /><path
         id="path106"
         style="fill:#000000;fill-opacity:1;fill-rule:nonzero;stroke:none"
         d="m 35.336,40.943 0,3.766 c 0,0.906 -0.5,1.406 -1.438,1.406 -0.671,0 -1.078,-0.203 -1.546,-0.766 -0.297,0.532 -0.704,0.766 -1.36,0.766 -0.672,0 -1.109,-0.25 -1.547,-0.859 l 0,0.718 -0.718,0 0,-5.031 0.796,0 0,3.156 c 0,0.735 0.516,1.313 1.172,1.313 0.594,0 0.938,-0.36 0.938,-1 l 0,-3.469 0.797,0 0,3.156 c 0,0.735 0.531,1.313 1.187,1.313 0.578,0 0.922,-0.375 0.922,-1 l 0,-3.469 0.797,0 z" /><path
         id="path108"
         style="fill:#000000;fill-opacity:1;fill-rule:nonzero;stroke:none"
         d="m 3.52,27.345 0,0.672 C 3.41,27.986 3.285,27.986 3.129,27.986 c -0.344,0 -0.438,0.094 -0.438,0.438 l 0,3.296 0.829,0 0,0.657 -0.829,0 0,1.375 -0.796,0 0,-1.375 -0.672,0 0,-0.657 0.672,0 0,-3.64 c 0,-0.516 0.343,-0.797 0.968,-0.797 0.188,0 0.391,0.016 0.657,0.062 z" /><path
         id="path110"
         style="fill:#000000;fill-opacity:1;fill-rule:nonzero;stroke:none"
         d="m 8.875,27.361 0,0.609 C 8.797,27.955 8.766,27.955 8.703,27.955 c -0.265,0 -0.422,0.14 -0.422,0.39 l 0,2.797 c 0,0.891 -0.656,1.375 -1.89,1.375 -1.219,0 -1.969,-0.468 -2.016,-1.625 l 0.797,0 c 0.078,0.61 0.437,0.891 1.187,0.891 0.719,0 1.125,-0.281 1.125,-0.75 l 0,-0.219 C 7.484,30.486 7.281,30.345 6.641,30.267 5.516,30.111 5.344,30.08 5.031,29.955 4.453,29.72 4.156,29.267 4.156,28.658 c 0,-0.922 0.625,-1.453 1.641,-1.453 0.656,0 1.265,0.265 1.719,0.734 0.078,-0.375 0.422,-0.656 0.812,-0.656 0.172,0 0.297,0.016 0.547,0.078 z M 7.484,29.08 c 0,-0.719 -0.734,-1.172 -1.515,-1.172 -0.61,0 -0.985,0.219 -0.985,0.766 0,0.531 0.36,0.75 1.219,0.875 0.844,0.125 1.016,0.156 1.281,0.281 l 0,-0.75 z" /><path
         id="path112"
         style="fill:#000000;fill-opacity:1;fill-rule:nonzero;stroke:none"
         d="m 13.758,27.345 0,3.797 c 0,0.844 -0.625,1.375 -1.594,1.375 -0.75,0 -1.219,-0.281 -1.672,-0.984 l 0,0.844 -0.734,0 0,-5.032 0.797,0 0,2.766 c 0,1.031 0.562,1.703 1.375,1.703 0.625,0 1.031,-0.375 1.031,-0.984 l 0,-3.485 0.797,0 z" /><path
         id="path114"
         style="fill:#000000;fill-opacity:1;fill-rule:nonzero;stroke:none"
         d="m 19.176,27.345 0,7 -0.797,0 0,-2.609 c -0.344,0.516 -0.875,0.781 -1.547,0.781 -1.297,0 -2.156,-1.015 -2.156,-2.609 0,-1.703 0.828,-2.703 2.187,-2.703 0.688,0 1.172,0.25 1.594,0.875 l 0,-0.735 0.719,0 z m -0.797,2.5 c 0,-1.171 -0.563,-1.89 -1.406,-1.89 -0.875,0 -1.469,0.734 -1.469,1.906 0,1.172 0.594,1.906 1.469,1.906 0.859,0 1.406,-0.765 1.406,-1.922 z" /><path
         id="path116"
         style="fill:#000000;fill-opacity:1;fill-rule:nonzero;stroke:none"
         d="m 24.715,30.283 0,0.656 -4.297,0 0,-0.656 4.297,0 z m 0,-1.734 0,0.656 -4.297,0 0,-0.656 4.297,0 z" /><path
         id="path118"
         style="fill:#000000;fill-opacity:1;fill-rule:nonzero;stroke:none"
         d="m 30.227,30.611 c 0,2.359 -0.75,3.531 -2.219,3.531 -1.469,0 -2.235,-1.187 -2.235,-3.468 0,-2.297 0.782,-3.469 2.235,-3.469 1.437,0 2.219,1.172 2.219,3.406 z m -0.86,0.078 c 0,-1.922 -0.437,-2.781 -1.375,-2.781 -0.89,0 -1.344,0.891 -1.344,2.75 0,1.875 0.454,2.734 1.36,2.734 0.906,0 1.359,-0.875 1.359,-2.703 z" /><path
         id="path120"
         style="fill:#000000;fill-opacity:1;fill-rule:nonzero;stroke:none"
         d="m 31.535,28.345 1,0 0,-1 -1,0 0,1 z" /><path
         id="path122"
         style="fill:#000000;fill-opacity:1;fill-rule:nonzero;stroke:none"
         d="m 38.234,30.611 c 0,2.359 -0.75,3.531 -2.218,3.531 -1.469,0 -2.235,-1.187 -2.235,-3.468 0,-2.297 0.781,-3.469 2.235,-3.469 1.437,0 2.218,1.172 2.218,3.406 z m -0.859,0.078 c 0,-1.922 -0.437,-2.781 -1.375,-2.781 -0.891,0 -1.344,0.891 -1.344,2.75 0,1.875 0.453,2.734 1.36,2.734 0.906,0 1.359,-0.875 1.359,-2.703 z" /><path
         id="path124"
         style="fill:#000000;fill-opacity:1;fill-rule:nonzero;stroke:none"
         d="m 42.039,27.345 0,6.797 -0.562,0 C 41.18,33.095 40.992,32.955 39.695,32.799 l 0,-0.61 1.5,0 0,-4.844 0.844,0 z" /><path
         id="path126"
         style="fill:#000000;fill-opacity:1;fill-rule:nonzero;stroke:none"
         d="m 49.062,28.97 0,0.766 -1,0 0,4.406 -0.624,0 -3.094,-4.281 0,-0.891 2.875,0 0,-1.625 0.843,0 0,1.625 1,0 z m -1.843,0.766 -2.141,0 2.141,2.969 0,-2.969 z" /><path
         id="path128"
         style="fill:#000000;fill-opacity:1;fill-rule:nonzero;stroke:none"
         d="m 4.16,18.072 0,0.812 c -0.14,0.016 -0.203,0.032 -0.312,0.032 -0.516,0 -0.907,-0.313 -1.36,-1.063 l 0,0.922 -0.734,0 0,-5.031 0.797,0 0,2.609 c 0,1.125 0.375,1.703 1.609,1.719 z" /><path
         id="path130"
         style="fill:#000000;fill-opacity:1;fill-rule:nonzero;stroke:none"
         d="m 8.934,13.744 0,3.797 c 0,0.843 -0.594,1.375 -1.579,1.375 -0.703,0 -1.14,-0.219 -1.609,-0.828 l 0,2.656 -0.797,0 0,-7 0.797,0 0,2.765 c 0,1.032 0.531,1.704 1.359,1.704 0.563,0 1.032,-0.329 1.032,-0.985 l 0,-3.484 0.797,0 z" /><path
         id="path132"
         style="fill:#000000;fill-opacity:1;fill-rule:nonzero;stroke:none"
         d="m 14.504,16.213 c 0,1.75 -0.828,2.703 -2.281,2.703 -1.407,0 -2.266,-0.969 -2.266,-2.657 0,-1.687 0.844,-2.656 2.281,-2.656 1.407,0 2.266,0.969 2.266,2.61 z m -0.828,0.015 c 0,-1.172 -0.563,-1.89 -1.438,-1.89 -0.89,0 -1.437,0.703 -1.437,1.921 0,1.204 0.547,1.922 1.437,1.922 0.891,0 1.438,-0.703 1.438,-1.953 z" /><path
         id="path134"
         style="fill:#000000;fill-opacity:1;fill-rule:nonzero;stroke:none"
         d="m 19.906,16.681 0,0.657 -4.297,0 0,-0.657 4.297,0 z m 0,-1.734 0,0.656 -4.297,0 0,-0.656 4.297,0 z" /><path
         id="path136"
         style="fill:#000000;fill-opacity:1;fill-rule:nonzero;stroke:none"
         d="m 23.887,13.744 0,6.797 -0.563,0 C 23.027,19.494 22.84,19.353 21.543,19.197 l 0,-0.609 1.5,0 0,-4.844 0.844,0 z" /><path
         id="path138"
         style="fill:#000000;fill-opacity:1;fill-rule:nonzero;stroke:none"
         d="m 30.848,15.853 c 0,1.266 -0.86,2.125 -2.078,2.125 -0.672,0 -1.204,-0.265 -1.563,-0.765 0,1.656 0.547,2.578 1.516,2.578 0.593,0 1,-0.375 1.14,-1.016 l 0.844,0 c -0.172,1.109 -0.891,1.766 -1.937,1.766 -1.579,0 -2.438,-1.328 -2.438,-3.703 0,-2.11 0.734,-3.235 2.297,-3.235 1.281,0 2.219,0.922 2.219,2.25 z m -0.86,-0.062 c 0,-0.86 -0.578,-1.438 -1.359,-1.438 -0.781,0 -1.375,0.61 -1.375,1.485 0,0.843 0.578,1.39 1.406,1.39 0.813,0 1.328,-0.531 1.328,-1.437 z" /><path
         id="path140"
         style="fill:#000000;fill-opacity:1;fill-rule:nonzero;stroke:none"
         d="m 32.09,14.744 1,0 0,-1 -1,0 0,1 z" /><path
         id="path142"
         style="fill:#000000;fill-opacity:1;fill-rule:nonzero;stroke:none"
         d="m 38.914,19.697 0,0.703 -4.547,0 0,-0.828 3.672,0 c -1.344,-1.719 -2.312,-3.703 -2.781,-5.828 l 0.89,0 c 0.375,2.203 1.344,4.25 2.766,5.953 z" /><path
         id="path144"
         style="fill:#000000;fill-opacity:1;fill-rule:nonzero;stroke:none"
         d="m 44.191,15.666 c 0,0.75 -0.39,1.281 -1.171,1.656 0.703,0.422 0.937,0.766 0.937,1.406 0,1.063 -0.844,1.813 -2.047,1.813 -1.203,0 -2.047,-0.75 -2.047,-1.813 0,-0.625 0.235,-0.969 0.922,-1.406 -0.781,-0.375 -1.156,-0.906 -1.156,-1.656 0,-1.235 0.937,-2.063 2.281,-2.063 1.344,0 2.281,0.828 2.281,2.063 z m -1.109,3.047 c 0,-0.625 -0.469,-1.047 -1.172,-1.047 -0.719,0 -1.187,0.422 -1.187,1.062 0,0.641 0.468,1.063 1.187,1.063 0.719,0 1.172,-0.422 1.172,-1.078 z m 0.25,-3.063 c 0,-0.797 -0.578,-1.297 -1.437,-1.297 -0.829,0 -1.407,0.5 -1.407,1.297 0,0.797 0.578,1.297 1.422,1.297 0.844,0 1.422,-0.5 1.422,-1.297 z" /><path
         id="path146"
         style="fill:#000000;fill-opacity:1;fill-rule:nonzero;stroke:none"
         d="m 49.527,16.025 c 0,0.734 -0.062,1.188 -0.203,1.563 -0.328,0.828 -1.094,1.328 -2.031,1.328 -1.406,0 -2.297,-1.032 -2.297,-2.688 0,-1.656 0.859,-2.625 2.281,-2.625 1.141,0 1.938,0.656 2.141,1.672 l -0.797,0 c -0.219,-0.672 -0.672,-0.937 -1.312,-0.937 -0.844,0 -1.469,0.531 -1.485,1.687 l 3.703,0 z m -0.859,0.719 c 0,0 0,-0.047 0,-0.063 l -2.828,0 c 0.078,0.891 0.64,1.5 1.437,1.5 0.797,0 1.391,-0.656 1.391,-1.437 z" /><path
         id="path148"
         style="fill:#000000;fill-opacity:1;fill-rule:nonzero;stroke:none"
         d="m 50.383,16.744 2.281,0 0,-0.703 -2.281,0 0,0.703 z" /><path
         id="path150"
         style="fill:#000000;fill-opacity:1;fill-rule:nonzero;stroke:none"
         d="m 58.059,17.306 c 0,2.125 -0.75,3.235 -2.297,3.235 -1.297,0 -2.235,-0.922 -2.235,-2.25 0,-1.266 0.875,-2.125 2.094,-2.125 0.641,0 1.109,0.234 1.563,0.765 -0.016,-1.656 -0.547,-2.578 -1.516,-2.578 -0.594,0 -1.016,0.375 -1.141,1.016 l -0.843,0 c 0.156,-1.11 0.89,-1.766 1.921,-1.766 1.594,0 2.454,1.344 2.454,3.703 z m -0.922,1 c 0,-0.828 -0.594,-1.39 -1.422,-1.39 -0.813,0 -1.313,0.531 -1.313,1.437 0,0.875 0.563,1.453 1.344,1.453 0.797,0 1.391,-0.609 1.391,-1.5 z" /><path
         id="path152"
         style="fill:#000000;fill-opacity:1;fill-rule:nonzero;stroke:none"
         d="m 7.488,3.642 c 0,2.172 -1.078,3.5 -2.859,3.5 l -2.688,0 0,-7 2.688,0 c 1.766,0 2.859,1.328 2.859,3.5 z M 6.582,3.627 c 0,-1.75 -0.719,-2.703 -2.109,-2.703 l -1.641,0 0,5.421 1.641,0 c 1.39,0 2.109,-0.921 2.109,-2.718 z" /><path
         id="path154"
         style="fill:#000000;fill-opacity:1;fill-rule:nonzero;stroke:none"
         d="m 12.965,3.08 0,0.656 -4.297,0 0,-0.656 4.297,0 z m 0,-1.735 0,0.657 -4.297,0 0,-0.657 4.297,0 z" /><path
         id="path156"
         style="fill:#000000;fill-opacity:1;fill-rule:nonzero;stroke:none"
         d="m 18.477,3.408 c 0,2.359 -0.75,3.531 -2.219,3.531 -1.469,0 -2.235,-1.187 -2.235,-3.469 0,-2.296 0.782,-3.468 2.235,-3.468 1.437,0 2.219,1.172 2.219,3.406 z m -0.86,0.078 c 0,-1.922 -0.437,-2.781 -1.375,-2.781 -0.89,0 -1.344,0.89 -1.344,2.75 0,1.875 0.454,2.734 1.36,2.734 0.906,0 1.359,-0.875 1.359,-2.703 z" /><path
         id="path158"
         style="fill:#000000;fill-opacity:1;fill-rule:nonzero;stroke:none"
         d="m 19.785,1.142 1,0 0,-1 -1,0 0,1 z" /><path
         id="path160"
         style="fill:#000000;fill-opacity:1;fill-rule:nonzero;stroke:none"
         d="m 24.953,0.142 0,6.797 -0.562,0 C 24.094,5.892 23.906,5.752 22.609,5.595 l 0,-0.609 1.5,0 0,-4.844 0.844,0 z" /><path
         id="path162"
         style="fill:#000000;fill-opacity:1;fill-rule:nonzero;stroke:none"
         d="m 31.883,2.392 c 0,1.344 -0.891,2.235 -2.203,2.235 -0.469,0 -0.86,-0.125 -1.25,-0.422 l 0.265,1.765 2.828,0 0,0.829 -3.5,0 -0.515,-3.563 0.781,0 c 0.391,0.469 0.719,0.641 1.25,0.641 0.906,0 1.484,-0.594 1.484,-1.594 0,-0.984 -0.578,-1.531 -1.484,-1.531 -0.75,0 -1.203,0.375 -1.391,1.14 l -0.859,0 c 0.281,-1.359 1.047,-1.89 2.266,-1.89 1.375,0 2.328,0.953 2.328,2.39 z" /><path
         id="path164"
         style="fill:#000000;fill-opacity:1;fill-rule:nonzero;stroke:none"
         d="m 37.223,2.424 c 0,0.734 -0.063,1.187 -0.203,1.562 -0.329,0.828 -1.094,1.328 -2.032,1.328 -1.406,0 -2.297,-1.031 -2.297,-2.687 0,-1.657 0.86,-2.625 2.282,-2.625 1.14,0 1.937,0.656 2.14,1.672 l -0.797,0 C 36.098,1.002 35.645,0.736 35.004,0.736 c -0.844,0 -1.469,0.531 -1.484,1.688 l 3.703,0 z m -0.86,0.718 c 0,0 0,-0.047 0,-0.062 l -2.828,0 c 0.078,0.89 0.641,1.5 1.438,1.5 0.797,0 1.39,-0.656 1.39,-1.438 z" /><path
         id="path166"
         style="fill:#000000;fill-opacity:1;fill-rule:nonzero;stroke:none"
         d="m 38.102,3.142 2.281,0 0,-0.703 -2.281,0 0,0.703 z" /><path
         id="path168"
         style="fill:#000000;fill-opacity:1;fill-rule:nonzero;stroke:none"
         d="m 45.785,2.252 c 0,1.265 -0.859,2.125 -2.078,2.125 -0.672,0 -1.203,-0.266 -1.562,-0.766 0,1.656 0.546,2.578 1.515,2.578 0.594,0 1,-0.375 1.141,-1.015 l 0.844,0 c -0.172,1.109 -0.891,1.765 -1.938,1.765 -1.578,0 -2.437,-1.328 -2.437,-3.703 0,-2.109 0.734,-3.234 2.296,-3.234 1.282,0 2.219,0.922 2.219,2.25 z M 44.926,2.189 c 0,-0.859 -0.578,-1.437 -1.36,-1.437 -0.781,0 -1.375,0.609 -1.375,1.484 0,0.844 0.579,1.391 1.407,1.391 0.812,0 1.328,-0.532 1.328,-1.438 z" /></g></g></svg>