<?xml version="1.0" encoding="UTF-8" standalone="no"?>
<svg
   xmlns:dc="http://purl.org/dc/elements/1.1/"
   xmlns:cc="http://creativecommons.org/ns#"
   xmlns:rdf="http://www.w3.org/1999/02/22-rdf-syntax-ns#"
   xmlns:svg="http://www.w3.org/2000/svg"
   xmlns="http://www.w3.org/2000/svg"
   viewBox="0 0 245.616 77.285187"
   height="77.285187"
   width="245.616"
   xml:space="preserve"
   version="1.1"
   id="svg2"><metadata
     id="metadata8"><rdf:RDF><cc:Work
         rdf:about=""><dc:format>image/svg+xml</dc:format><dc:type
           rdf:resource="http://purl.org/dc/dcmitype/StillImage" /></cc:Work></rdf:RDF></metadata><defs
     id="defs6" /><g
     transform="matrix(1.25,0,0,-1.25,0,77.285185)"
     id="g10"><g
       id="g12"><g
         transform="matrix(-1,0,0,-1,0,61.828148)"
         id="g14"><path
           id="path16"
           style="fill:#000000;fill-opacity:1;fill-rule:nonzero;stroke:#000000;stroke-width:0.65280002;stroke-linecap:butt;stroke-linejoin:miter;stroke-miterlimit:4;stroke-dasharray:none;stroke-opacity:1"
           d="m -0.328,28.863 -97.918,0 0,13.055 97.918,0 0,-13.055 z" /></g><path
         id="path18"
         style="fill:#000000;fill-opacity:1;fill-rule:nonzero;stroke:none"
         d="m 49.352,36.773 -4.391,0 0,0.563 3.359,4.328 -3.062,0 0,0.609 3.906,0 0,-0.531 -3.344,-4.359 3.532,0 0,-0.61 z" /><path
         id="path20"
         style="fill:#000000;fill-opacity:1;fill-rule:nonzero;stroke:none"
         d="m 50.109,36.773 0,0.594 1.407,0 0,4.235 -1.25,-0.875 0,0.656 1.312,0.89 0.641,0 0,-4.906 1.343,0 0,-0.594 -3.453,0 z" /><g
         transform="matrix(-1,0,0,-1,0,61.828148)"
         id="g22"><path
           id="path24"
           style="fill:#000000;fill-opacity:1;fill-rule:nonzero;stroke:#000000;stroke-width:0.65280002;stroke-linecap:butt;stroke-linejoin:miter;stroke-miterlimit:4;stroke-dasharray:none;stroke-opacity:1"
           d="m -98.246,9.277 -97.922,0 0,52.223 97.922,0 0,-52.223 z" /></g><path
         id="path26"
         style="fill:#000000;fill-opacity:1;fill-rule:nonzero;stroke:none"
         d="m 147.273,56.359 -4.39,0 0,0.563 3.359,4.328 -3.062,0 0,0.609 3.906,0 0,-0.531 -3.344,-4.359 3.531,0 0,-0.61 z" /><path
         id="path28"
         style="fill:#000000;fill-opacity:1;fill-rule:nonzero;stroke:none"
         d="m 147.828,56.359 0,0.5 c 0.133,0.301 0.297,0.567 0.484,0.797 0.188,0.239 0.383,0.453 0.594,0.641 0.219,0.187 0.43,0.359 0.641,0.516 0.207,0.164 0.394,0.328 0.562,0.484 0.164,0.164 0.297,0.336 0.391,0.516 0.102,0.175 0.156,0.378 0.156,0.609 0,0.156 -0.027,0.289 -0.078,0.406 -0.043,0.113 -0.109,0.211 -0.203,0.297 -0.086,0.082 -0.187,0.145 -0.313,0.188 -0.117,0.039 -0.25,0.062 -0.406,0.062 -0.136,0 -0.265,-0.023 -0.39,-0.062 -0.125,-0.043 -0.243,-0.106 -0.344,-0.188 -0.094,-0.074 -0.172,-0.168 -0.234,-0.281 -0.055,-0.117 -0.09,-0.25 -0.11,-0.406 l -0.719,0.062 c 0.02,0.195 0.071,0.383 0.157,0.563 0.093,0.175 0.211,0.328 0.359,0.453 0.156,0.132 0.336,0.238 0.547,0.312 0.207,0.082 0.453,0.125 0.734,0.125 0.27,0 0.508,-0.039 0.719,-0.109 0.219,-0.063 0.398,-0.156 0.547,-0.281 0.156,-0.125 0.269,-0.282 0.344,-0.469 0.082,-0.188 0.125,-0.406 0.125,-0.656 0,-0.188 -0.039,-0.368 -0.11,-0.532 -0.062,-0.168 -0.152,-0.328 -0.265,-0.484 -0.106,-0.149 -0.231,-0.293 -0.375,-0.438 -0.149,-0.136 -0.305,-0.273 -0.469,-0.406 -0.156,-0.125 -0.32,-0.258 -0.484,-0.39 -0.157,-0.137 -0.309,-0.274 -0.454,-0.407 -0.136,-0.125 -0.261,-0.258 -0.375,-0.39 -0.117,-0.137 -0.203,-0.282 -0.265,-0.438 l 2.875,0 0,-0.594 -3.641,0 z" /></g></g></svg>