<?xml version="1.0" encoding="UTF-8" standalone="no"?>
<svg
   xmlns:dc="http://purl.org/dc/elements/1.1/"
   xmlns:cc="http://creativecommons.org/ns#"
   xmlns:rdf="http://www.w3.org/1999/02/22-rdf-syntax-ns#"
   xmlns:svg="http://www.w3.org/2000/svg"
   xmlns="http://www.w3.org/2000/svg"
   viewBox="0 0 1005.3355 463.67999"
   height="463.67999"
   width="1005.3355"
   xml:space="preserve"
   version="1.1"
   id="svg2"><metadata
     id="metadata8"><rdf:RDF><cc:Work
         rdf:about=""><dc:format>image/svg+xml</dc:format><dc:type
           rdf:resource="http://purl.org/dc/dcmitype/StillImage" /></cc:Work></rdf:RDF></metadata><defs
     id="defs6" /><g
     transform="matrix(1.25,0,0,-1.25,0,463.68)"
     id="g10"><g
       id="g12"><path
         id="path14"
         style="fill:#000000;fill-opacity:1;fill-rule:nonzero;stroke:none"
         d="m 111.562,249.358 4.121,0 0,-4.121 -4.121,0 0,4.121 z" /><path
         id="path16"
         style="fill:#000000;fill-opacity:1;fill-rule:nonzero;stroke:none"
         d="m 111.562,146.315 4.121,0 0,-4.121 -4.121,0 0,4.121 z" /><g
         transform="matrix(1,0,0,-1,0,370.944)"
         id="g18"><path
           id="path20"
           style="fill:none;stroke:#000000;stroke-width:4.12160015;stroke-linecap:round;stroke-linejoin:miter;stroke-miterlimit:10;stroke-dasharray:none;stroke-opacity:1"
           d="m 90.953,166.926 45.34,0" /></g><g
         transform="matrix(1,0,0,-1,0,370.944)"
         id="g22"><path
           id="path24"
           style="fill:none;stroke:#000000;stroke-width:4.12160015;stroke-linecap:round;stroke-linejoin:miter;stroke-miterlimit:10;stroke-dasharray:none;stroke-opacity:1"
           d="m 90.953,183.41 45.34,0" /></g><g
         transform="matrix(1,0,0,-1,0,370.944)"
         id="g26"><path
           id="path28"
           style="fill:none;stroke:#000000;stroke-width:4.12160015;stroke-linecap:square;stroke-linejoin:miter;stroke-miterlimit:10;stroke-dasharray:none;stroke-opacity:1"
           d="m 113.621,125.707 0,39.156" /></g><g
         transform="matrix(1,0,0,-1,0,370.944)"
         id="g30"><path
           id="path32"
           style="fill:none;stroke:#000000;stroke-width:4.12160015;stroke-linecap:square;stroke-linejoin:miter;stroke-miterlimit:10;stroke-dasharray:none;stroke-opacity:1"
           d="m 113.621,185.473 0,39.156" /></g><path
         id="path34"
         style="fill:#000000;fill-opacity:1;fill-rule:nonzero;stroke:none"
         d="m 75.164,55.495 c -0.875,0 -1.648,0.09 -2.312,0.265 -0.657,0.18 -1.219,0.422 -1.688,0.735 -0.469,0.312 -0.844,0.687 -1.125,1.125 -0.281,0.429 -0.477,0.902 -0.578,1.422 l 3.422,0.406 c 0.125,-0.531 0.383,-0.945 0.781,-1.25 0.406,-0.301 0.938,-0.453 1.594,-0.453 0.406,0 0.773,0.058 1.109,0.172 0.344,0.117 0.633,0.312 0.875,0.593 0.238,0.274 0.426,0.633 0.563,1.079 0.133,0.449 0.203,1 0.203,1.656 0,0.226 0,0.457 0,0.687 0,0.239 0,0.457 0,0.657 0.008,0.226 0.015,0.445 0.015,0.656 l -0.015,0 c -0.406,-0.856 -0.969,-1.477 -1.688,-1.86 -0.718,-0.375 -1.574,-0.562 -2.562,-0.562 -0.844,0 -1.57,0.16 -2.172,0.484 -0.606,0.332 -1.109,0.789 -1.516,1.375 -0.398,0.594 -0.687,1.297 -0.875,2.11 -0.187,0.82 -0.281,1.726 -0.281,2.718 0,1.008 0.098,1.926 0.297,2.75 0.207,0.832 0.519,1.547 0.937,2.141 0.414,0.594 0.942,1.051 1.579,1.375 0.644,0.32 1.406,0.484 2.281,0.484 0.883,0 1.672,-0.187 2.359,-0.562 0.695,-0.375 1.242,-0.984 1.641,-1.828 l 0.062,0 c 0,0.176 0.004,0.375 0.016,0.594 0.008,0.226 0.019,0.445 0.031,0.656 0.02,0.207 0.039,0.39 0.063,0.547 0.019,0.164 0.039,0.273 0.062,0.328 l 3.235,0 C 81.465,73.702 81.449,73.292 81.43,72.76 81.418,72.237 81.414,71.635 81.414,70.948 l 0,-9.75 c 0,-0.957 -0.141,-1.789 -0.422,-2.5 -0.273,-0.719 -0.68,-1.313 -1.219,-1.781 -0.531,-0.477 -1.187,-0.832 -1.968,-1.063 -0.774,-0.238 -1.653,-0.359 -2.641,-0.359 z m 2.859,12.078 c 0,0.832 -0.085,1.523 -0.25,2.078 -0.156,0.551 -0.367,0.992 -0.625,1.328 -0.261,0.332 -0.562,0.567 -0.906,0.703 -0.336,0.145 -0.672,0.219 -1.015,0.219 -0.438,0 -0.829,-0.09 -1.172,-0.266 -0.336,-0.168 -0.621,-0.433 -0.86,-0.796 -0.23,-0.356 -0.406,-0.809 -0.531,-1.36 -0.117,-0.555 -0.172,-1.211 -0.172,-1.969 0,-1.429 0.223,-2.507 0.672,-3.234 0.457,-0.719 1.141,-1.078 2.047,-1.078 0.344,0 0.68,0.066 1.016,0.203 0.332,0.133 0.632,0.367 0.906,0.703 0.269,0.344 0.484,0.789 0.64,1.344 0.165,0.562 0.25,1.269 0.25,2.125 z" /><path
         id="path36"
         style="fill:#000000;fill-opacity:1;fill-rule:nonzero;stroke:none"
         d="m 84.578,60.792 0,2.547 4.25,0 0,11.734 -4.125,-2.578 0,2.703 4.313,2.797 3.25,0 0,-14.656 3.937,0 0,-2.547 -11.625,0 z" /><path
         id="path38"
         style="fill:#000000;fill-opacity:1;fill-rule:nonzero;stroke:none"
         d="m 97.797,71.073 0,2.719 12.547,0 0,-2.719 -12.547,0 z m 0,-6.734 0,2.703 12.547,0 0,-2.703 -12.547,0 z" /><path
         id="path40"
         style="fill:#000000;fill-opacity:1;fill-rule:nonzero;stroke:none"
         d="m 112.785,60.792 0,2.547 4.25,0 0,11.734 -4.125,-2.578 0,2.703 4.313,2.797 3.25,0 0,-14.656 3.937,0 0,-2.547 -11.625,0 z" /><path
         id="path42"
         style="fill:#000000;fill-opacity:1;fill-rule:nonzero;stroke:none"
         d="m 130.254,61.604 c 0,-0.555 -0.031,-1.051 -0.094,-1.5 -0.062,-0.445 -0.152,-0.859 -0.265,-1.234 -0.118,-0.375 -0.258,-0.719 -0.422,-1.031 -0.157,-0.321 -0.34,-0.629 -0.547,-0.922 l -2.25,0 c 0.226,0.293 0.441,0.601 0.64,0.922 0.196,0.312 0.368,0.636 0.516,0.968 0.145,0.336 0.258,0.668 0.344,1 0.082,0.336 0.125,0.664 0.125,0.985 l -1.578,0 0,3.718 3.531,0 0,-2.906 z" /><path
         id="path44"
         style="fill:#000000;fill-opacity:1;fill-rule:nonzero;stroke:none"
         d="m 144.645,75.276 c -0.782,-1.23 -1.516,-2.418 -2.204,-3.562 -0.687,-1.149 -1.289,-2.305 -1.796,-3.469 -0.512,-1.156 -0.918,-2.352 -1.219,-3.578 -0.293,-1.219 -0.438,-2.512 -0.438,-3.875 l -3.578,0 c 0,1.351 0.16,2.644 0.485,3.875 0.32,1.226 0.757,2.422 1.312,3.578 0.551,1.164 1.191,2.316 1.922,3.453 0.738,1.133 1.516,2.289 2.328,3.469 l -8.547,0 0,2.828 11.735,0 0,-2.719 z" /><path
         id="path46"
         style="fill:#000000;fill-opacity:1;fill-rule:nonzero;stroke:none"
         d="m 158.473,69.401 c 0,-1.648 -0.153,-3.031 -0.453,-4.156 -0.305,-1.125 -0.719,-2.039 -1.25,-2.735 -0.532,-0.699 -1.165,-1.203 -1.891,-1.515 -0.731,-0.301 -1.527,-0.453 -2.391,-0.453 -0.855,0 -1.648,0.152 -2.375,0.453 -0.718,0.301 -1.34,0.801 -1.859,1.5 -0.524,0.695 -0.934,1.609 -1.234,2.734 -0.293,1.125 -0.438,2.516 -0.438,4.172 0,1.727 0.145,3.16 0.438,4.297 0.289,1.133 0.695,2.039 1.218,2.719 0.532,0.675 1.164,1.148 1.907,1.422 0.738,0.269 1.554,0.406 2.453,0.406 0.832,0 1.609,-0.137 2.328,-0.406 0.719,-0.274 1.336,-0.747 1.859,-1.422 0.531,-0.68 0.942,-1.586 1.235,-2.719 0.3,-1.137 0.453,-2.57 0.453,-4.297 z m -3.438,0 c 0,1.207 -0.047,2.207 -0.14,3 -0.086,0.801 -0.227,1.43 -0.422,1.891 -0.2,0.468 -0.453,0.797 -0.766,0.984 -0.312,0.188 -0.695,0.281 -1.141,0.281 -0.48,0 -0.882,-0.093 -1.203,-0.281 -0.324,-0.187 -0.59,-0.523 -0.797,-1 -0.199,-0.469 -0.339,-1.102 -0.421,-1.891 -0.086,-0.793 -0.125,-1.789 -0.125,-2.984 0,-1.18 0.039,-2.164 0.125,-2.953 0.093,-0.793 0.238,-1.43 0.437,-1.906 0.195,-0.469 0.453,-0.805 0.766,-1 0.312,-0.2 0.703,-0.297 1.172,-0.297 0.445,0 0.828,0.097 1.14,0.297 0.32,0.195 0.582,0.531 0.781,1 0.207,0.476 0.36,1.113 0.454,1.906 0.093,0.789 0.14,1.773 0.14,2.953 z" /><path
         id="path48"
         style="fill:#000000;fill-opacity:1;fill-rule:nonzero;stroke:none"
         d="m 77.594,22.171 c 0.676,0 1.258,0.093 1.75,0.281 0.488,0.187 0.914,0.437 1.281,0.75 0.363,0.312 0.664,0.66 0.906,1.047 0.239,0.394 0.438,0.789 0.594,1.187 l 3.141,-1.187 c -0.25,-0.617 -0.586,-1.219 -1,-1.813 -0.407,-0.594 -0.918,-1.121 -1.532,-1.578 -0.605,-0.461 -1.328,-0.828 -2.172,-1.109 -0.843,-0.282 -1.835,-0.422 -2.968,-0.422 -1.492,0 -2.782,0.226 -3.875,0.672 -1.086,0.445 -1.985,1.066 -2.703,1.859 -0.711,0.789 -1.235,1.727 -1.578,2.813 -0.344,1.093 -0.516,2.285 -0.516,3.578 0,1.343 0.172,2.554 0.516,3.64 0.343,1.082 0.863,2.004 1.562,2.766 0.695,0.758 1.582,1.344 2.656,1.75 1.071,0.414 2.332,0.625 3.782,0.625 1.124,0 2.101,-0.121 2.937,-0.359 0.844,-0.231 1.57,-0.559 2.187,-0.985 0.614,-0.429 1.126,-0.933 1.532,-1.515 0.406,-0.586 0.722,-1.227 0.953,-1.922 l -3.172,-0.875 c -0.117,0.375 -0.293,0.726 -0.531,1.062 -0.242,0.332 -0.543,0.629 -0.906,0.891 -0.356,0.258 -0.778,0.469 -1.266,0.625 -0.492,0.164 -1.043,0.25 -1.656,0.25 -0.875,0 -1.625,-0.141 -2.25,-0.422 -0.625,-0.281 -1.141,-0.684 -1.547,-1.203 -0.407,-0.524 -0.703,-1.149 -0.891,-1.875 -0.187,-0.731 -0.281,-1.547 -0.281,-2.453 0,-0.887 0.094,-1.703 0.281,-2.453 0.188,-0.743 0.484,-1.383 0.891,-1.922 0.414,-0.543 0.941,-0.965 1.578,-1.266 0.633,-0.293 1.398,-0.437 2.297,-0.437 z" /><path
         id="path50"
         style="fill:#000000;fill-opacity:1;fill-rule:nonzero;stroke:none"
         d="m 86.793,29.858 0,2.719 12.547,0 0,-2.719 -12.547,0 z m 0,-6.734 0,2.703 12.547,0 0,-2.703 -12.547,0 z" /><path
         id="path52"
         style="fill:#000000;fill-opacity:1;fill-rule:nonzero;stroke:none"
         d="m 101.781,19.577 0,2.547 4.25,0 0,11.734 -4.125,-2.578 0,2.703 4.313,2.797 3.25,0 0,-14.656 3.937,0 0,-2.547 -11.625,0 z" /><path
         id="path54"
         style="fill:#000000;fill-opacity:1;fill-rule:nonzero;stroke:none"
         d="m 119.25,20.389 c 0,-0.554 -0.031,-1.05 -0.094,-1.5 -0.062,-0.445 -0.152,-0.859 -0.265,-1.234 -0.118,-0.375 -0.258,-0.719 -0.422,-1.031 -0.157,-0.321 -0.34,-0.629 -0.547,-0.922 l -2.25,0 c 0.226,0.293 0.441,0.601 0.64,0.922 0.196,0.312 0.368,0.636 0.516,0.968 0.145,0.336 0.258,0.668 0.344,1 0.082,0.336 0.125,0.665 0.125,0.985 l -1.578,0 0,3.719 3.531,0 0,-2.907 z" /><path
         id="path56"
         style="fill:#000000;fill-opacity:1;fill-rule:nonzero;stroke:none"
         d="m 133.969,24.421 c 0,-0.743 -0.125,-1.422 -0.375,-2.047 -0.242,-0.617 -0.617,-1.153 -1.125,-1.61 -0.5,-0.449 -1.141,-0.804 -1.922,-1.062 -0.774,-0.25 -1.688,-0.375 -2.75,-0.375 -1.055,0 -1.969,0.125 -2.75,0.375 -0.781,0.258 -1.43,0.613 -1.938,1.062 -0.5,0.457 -0.875,0.993 -1.125,1.61 -0.242,0.613 -0.359,1.289 -0.359,2.031 0,0.625 0.094,1.176 0.281,1.656 0.196,0.488 0.457,0.906 0.782,1.25 0.332,0.352 0.707,0.633 1.124,0.844 0.426,0.207 0.864,0.348 1.313,0.422 l 0,0.047 c -0.48,0.101 -0.914,0.273 -1.297,0.515 -0.387,0.25 -0.715,0.547 -0.984,0.891 -0.262,0.344 -0.465,0.723 -0.61,1.141 -0.136,0.414 -0.203,0.851 -0.203,1.312 0,0.676 0.117,1.297 0.36,1.859 0.25,0.563 0.613,1.04 1.093,1.438 0.477,0.406 1.071,0.711 1.782,0.922 0.718,0.219 1.546,0.328 2.484,0.328 1,0 1.863,-0.117 2.594,-0.344 0.726,-0.219 1.328,-0.531 1.797,-0.937 0.476,-0.399 0.828,-0.875 1.047,-1.438 0.226,-0.562 0.343,-1.183 0.343,-1.859 0,-0.449 -0.074,-0.883 -0.219,-1.297 -0.136,-0.418 -0.339,-0.797 -0.609,-1.141 -0.273,-0.343 -0.601,-0.636 -0.984,-0.875 -0.387,-0.23 -0.824,-0.398 -1.313,-0.5 l 0,-0.047 c 0.508,-0.074 0.977,-0.218 1.406,-0.437 0.438,-0.219 0.813,-0.5 1.126,-0.844 0.32,-0.344 0.57,-0.762 0.75,-1.25 0.187,-0.48 0.281,-1.027 0.281,-1.64 z m -3.953,7.859 c 0,0.332 -0.043,0.644 -0.125,0.937 -0.075,0.29 -0.196,0.54 -0.36,0.75 -0.168,0.207 -0.398,0.368 -0.687,0.485 -0.293,0.113 -0.656,0.172 -1.094,0.172 -0.43,0 -0.781,-0.059 -1.062,-0.172 -0.282,-0.117 -0.512,-0.278 -0.688,-0.485 -0.168,-0.21 -0.289,-0.46 -0.359,-0.75 -0.075,-0.293 -0.11,-0.605 -0.11,-0.937 0,-0.305 0.031,-0.606 0.094,-0.906 0.063,-0.293 0.172,-0.555 0.328,-0.782 0.164,-0.23 0.395,-0.418 0.688,-0.562 0.289,-0.148 0.671,-0.219 1.14,-0.219 0.477,0 0.864,0.071 1.157,0.219 0.3,0.144 0.531,0.332 0.687,0.562 0.156,0.239 0.258,0.504 0.313,0.797 0.05,0.289 0.078,0.586 0.078,0.891 z m 0.39,-7.578 c 0,0.351 -0.043,0.691 -0.125,1.015 -0.074,0.321 -0.211,0.61 -0.406,0.86 -0.199,0.25 -0.477,0.445 -0.828,0.594 -0.344,0.156 -0.789,0.234 -1.328,0.234 -0.481,0 -0.887,-0.078 -1.219,-0.234 -0.336,-0.149 -0.602,-0.352 -0.797,-0.61 -0.199,-0.25 -0.34,-0.543 -0.422,-0.875 -0.086,-0.324 -0.125,-0.668 -0.125,-1.031 0,-0.43 0.039,-0.824 0.125,-1.188 0.082,-0.355 0.227,-0.664 0.438,-0.921 0.207,-0.25 0.476,-0.45 0.812,-0.594 0.344,-0.137 0.774,-0.203 1.297,-0.203 0.508,0 0.93,0.066 1.266,0.203 0.332,0.144 0.594,0.347 0.781,0.609 0.195,0.258 0.332,0.571 0.406,0.938 0.082,0.363 0.125,0.765 0.125,1.203 z" /><path
         id="path58"
         style="fill:#000000;fill-opacity:1;fill-rule:nonzero;stroke:none"
         d="m 147.734,24.421 c 0,-0.743 -0.125,-1.422 -0.375,-2.047 -0.242,-0.617 -0.617,-1.153 -1.125,-1.61 -0.5,-0.449 -1.14,-0.804 -1.922,-1.062 -0.773,-0.25 -1.687,-0.375 -2.75,-0.375 -1.054,0 -1.968,0.125 -2.75,0.375 -0.781,0.258 -1.429,0.613 -1.937,1.062 -0.5,0.457 -0.875,0.993 -1.125,1.61 -0.242,0.613 -0.359,1.289 -0.359,2.031 0,0.625 0.093,1.176 0.281,1.656 0.195,0.488 0.457,0.906 0.781,1.25 0.332,0.352 0.707,0.633 1.125,0.844 0.426,0.207 0.863,0.348 1.313,0.422 l 0,0.047 c -0.481,0.101 -0.914,0.273 -1.297,0.515 -0.387,0.25 -0.715,0.547 -0.985,0.891 -0.261,0.344 -0.464,0.723 -0.609,1.141 -0.137,0.414 -0.203,0.851 -0.203,1.312 0,0.676 0.117,1.297 0.359,1.859 0.25,0.563 0.614,1.04 1.094,1.438 0.477,0.406 1.07,0.711 1.781,0.922 0.719,0.219 1.547,0.328 2.485,0.328 1,0 1.863,-0.117 2.593,-0.344 0.727,-0.219 1.329,-0.531 1.797,-0.937 0.477,-0.399 0.828,-0.875 1.047,-1.438 0.227,-0.562 0.344,-1.183 0.344,-1.859 0,-0.449 -0.074,-0.883 -0.219,-1.297 -0.137,-0.418 -0.34,-0.797 -0.609,-1.141 -0.274,-0.343 -0.602,-0.636 -0.985,-0.875 -0.386,-0.23 -0.824,-0.398 -1.312,-0.5 l 0,-0.047 c 0.508,-0.074 0.976,-0.218 1.406,-0.437 0.438,-0.219 0.813,-0.5 1.125,-0.844 0.32,-0.344 0.57,-0.762 0.75,-1.25 0.188,-0.48 0.281,-1.027 0.281,-1.64 z m -3.953,7.859 c 0,0.332 -0.043,0.644 -0.125,0.937 -0.074,0.29 -0.195,0.54 -0.359,0.75 -0.168,0.207 -0.399,0.368 -0.688,0.485 -0.293,0.113 -0.656,0.172 -1.093,0.172 -0.43,0 -0.782,-0.059 -1.063,-0.172 -0.281,-0.117 -0.512,-0.278 -0.687,-0.485 -0.168,-0.21 -0.289,-0.46 -0.36,-0.75 -0.074,-0.293 -0.109,-0.605 -0.109,-0.937 0,-0.305 0.031,-0.606 0.094,-0.906 0.062,-0.293 0.171,-0.555 0.328,-0.782 0.164,-0.23 0.394,-0.418 0.687,-0.562 0.289,-0.148 0.672,-0.219 1.141,-0.219 0.476,0 0.863,0.071 1.156,0.219 0.301,0.144 0.531,0.332 0.688,0.562 0.156,0.239 0.257,0.504 0.312,0.797 0.051,0.289 0.078,0.586 0.078,0.891 z m 0.391,-7.578 c 0,0.351 -0.043,0.691 -0.125,1.015 -0.074,0.321 -0.211,0.61 -0.406,0.86 -0.2,0.25 -0.477,0.445 -0.829,0.594 -0.343,0.156 -0.789,0.234 -1.328,0.234 -0.48,0 -0.886,-0.078 -1.218,-0.234 -0.336,-0.149 -0.602,-0.352 -0.797,-0.61 -0.199,-0.25 -0.34,-0.543 -0.422,-0.875 -0.086,-0.324 -0.125,-0.668 -0.125,-1.031 0,-0.43 0.039,-0.824 0.125,-1.188 0.082,-0.355 0.226,-0.664 0.437,-0.921 0.207,-0.25 0.477,-0.45 0.813,-0.594 0.344,-0.137 0.773,-0.203 1.297,-0.203 0.508,0 0.929,0.066 1.265,0.203 0.332,0.144 0.594,0.347 0.782,0.609 0.195,0.258 0.332,0.571 0.406,0.938 0.082,0.363 0.125,0.765 0.125,1.203 z" /><path
         id="path60"
         style="fill:#000000;fill-opacity:1;fill-rule:nonzero;stroke:none"
         d="m 153.641,33.999 0,-5.328 8.797,0 0,-2.782 -8.797,0 0,-6.312 -3.61,0 0,17.203 12.688,0 0,-2.781 -9.078,0 z" /><path
         id="path62"
         style="fill:#000000;fill-opacity:1;fill-rule:nonzero;stroke:none"
         d="m 400.074,249.358 4.121,0 0,-4.121 -4.121,0 0,4.121 z" /><path
         id="path64"
         style="fill:#000000;fill-opacity:1;fill-rule:nonzero;stroke:none"
         d="m 400.074,146.315 4.121,0 0,-4.121 -4.121,0 0,4.121 z" /><g
         transform="matrix(1,0,0,-1,0,370.944)"
         id="g66"><path
           id="path68"
           style="fill:none;stroke:#000000;stroke-width:4.12160015;stroke-linecap:round;stroke-linejoin:miter;stroke-miterlimit:10;stroke-dasharray:none;stroke-opacity:1"
           d="m 379.465,166.926 45.34,0" /></g><g
         transform="matrix(1,0,0,-1,0,370.944)"
         id="g70"><path
           id="path72"
           style="fill:none;stroke:#000000;stroke-width:4.12160015;stroke-linecap:round;stroke-linejoin:miter;stroke-miterlimit:10;stroke-dasharray:none;stroke-opacity:1"
           d="m 379.465,183.41 45.34,0" /></g><g
         transform="matrix(1,0,0,-1,0,370.944)"
         id="g74"><path
           id="path76"
           style="fill:none;stroke:#000000;stroke-width:4.12160015;stroke-linecap:square;stroke-linejoin:miter;stroke-miterlimit:10;stroke-dasharray:none;stroke-opacity:1"
           d="m 402.133,125.707 0,39.156" /></g><g
         transform="matrix(1,0,0,-1,0,370.944)"
         id="g78"><path
           id="path80"
           style="fill:none;stroke:#000000;stroke-width:4.12160015;stroke-linecap:square;stroke-linejoin:miter;stroke-miterlimit:10;stroke-dasharray:none;stroke-opacity:1"
           d="m 402.133,185.473 0,39.156" /></g><path
         id="path82"
         style="fill:#000000;fill-opacity:1;fill-rule:nonzero;stroke:none"
         d="m 363.676,55.495 c -0.875,0 -1.649,0.09 -2.313,0.265 -0.656,0.18 -1.218,0.422 -1.687,0.735 -0.469,0.312 -0.844,0.687 -1.125,1.125 -0.281,0.429 -0.477,0.902 -0.578,1.422 l 3.422,0.406 c 0.125,-0.531 0.382,-0.945 0.781,-1.25 0.406,-0.301 0.937,-0.453 1.594,-0.453 0.406,0 0.773,0.058 1.109,0.172 0.344,0.117 0.633,0.312 0.875,0.593 0.238,0.274 0.426,0.633 0.562,1.079 0.133,0.449 0.204,1 0.204,1.656 0,0.226 0,0.457 0,0.687 0,0.239 0,0.457 0,0.657 0.007,0.226 0.015,0.445 0.015,0.656 l -0.015,0 c -0.407,-0.856 -0.969,-1.477 -1.688,-1.86 -0.719,-0.375 -1.574,-0.562 -2.562,-0.562 -0.844,0 -1.571,0.16 -2.172,0.484 -0.606,0.332 -1.11,0.789 -1.516,1.375 -0.398,0.594 -0.687,1.297 -0.875,2.11 -0.187,0.82 -0.281,1.726 -0.281,2.718 0,1.008 0.097,1.926 0.297,2.75 0.207,0.832 0.519,1.547 0.937,2.141 0.414,0.594 0.942,1.051 1.578,1.375 0.645,0.32 1.407,0.484 2.282,0.484 0.882,0 1.671,-0.187 2.359,-0.562 0.695,-0.375 1.242,-0.984 1.641,-1.828 l 0.062,0 c 0,0.176 0.004,0.375 0.016,0.594 0.007,0.226 0.019,0.445 0.031,0.656 0.019,0.207 0.039,0.39 0.062,0.547 0.02,0.164 0.039,0.273 0.063,0.328 l 3.234,0 c -0.011,-0.293 -0.027,-0.703 -0.047,-1.235 -0.011,-0.523 -0.015,-1.125 -0.015,-1.812 l 0,-9.75 c 0,-0.957 -0.141,-1.789 -0.422,-2.5 -0.274,-0.719 -0.68,-1.313 -1.219,-1.781 -0.531,-0.477 -1.187,-0.832 -1.969,-1.063 -0.773,-0.238 -1.652,-0.359 -2.64,-0.359 z m 2.859,12.078 c 0,0.832 -0.086,1.523 -0.25,2.078 -0.156,0.551 -0.367,0.992 -0.625,1.328 -0.262,0.332 -0.562,0.567 -0.906,0.703 -0.336,0.145 -0.672,0.219 -1.016,0.219 -0.437,0 -0.828,-0.09 -1.172,-0.266 -0.336,-0.168 -0.621,-0.433 -0.859,-0.796 -0.23,-0.356 -0.406,-0.809 -0.531,-1.36 -0.117,-0.555 -0.172,-1.211 -0.172,-1.969 0,-1.429 0.223,-2.507 0.672,-3.234 0.457,-0.719 1.14,-1.078 2.047,-1.078 0.343,0 0.679,0.066 1.015,0.203 0.332,0.133 0.633,0.367 0.907,0.703 0.269,0.344 0.484,0.789 0.64,1.344 0.164,0.562 0.25,1.269 0.25,2.125 z" /><path
         id="path84"
         style="fill:#000000;fill-opacity:1;fill-rule:nonzero;stroke:none"
         d="m 384.512,65.557 c 0,-0.781 -0.133,-1.484 -0.391,-2.109 -0.25,-0.617 -0.637,-1.141 -1.156,-1.578 -0.512,-0.438 -1.149,-0.778 -1.906,-1.016 -0.762,-0.226 -1.649,-0.344 -2.657,-0.344 -1.117,0 -2.058,0.141 -2.828,0.422 -0.773,0.289 -1.406,0.672 -1.906,1.141 -0.492,0.469 -0.859,1 -1.109,1.594 -0.243,0.593 -0.399,1.191 -0.469,1.797 l 3.484,0.312 c 0.051,-0.367 0.145,-0.703 0.281,-1.016 0.133,-0.304 0.313,-0.562 0.532,-0.781 0.226,-0.219 0.508,-0.39 0.843,-0.515 0.332,-0.118 0.723,-0.172 1.172,-0.172 0.821,0 1.457,0.203 1.907,0.609 0.457,0.406 0.687,1.031 0.687,1.875 0,0.508 -0.109,0.914 -0.328,1.219 -0.211,0.312 -0.48,0.551 -0.813,0.719 -0.335,0.164 -0.695,0.273 -1.078,0.328 -0.375,0.062 -0.734,0.093 -1.078,0.093 l -1.187,0 0,2.782 1.109,0 c 0.344,0 0.691,0.031 1.047,0.093 0.352,0.063 0.672,0.176 0.953,0.344 0.289,0.176 0.524,0.414 0.703,0.719 0.176,0.312 0.266,0.703 0.266,1.172 0,0.707 -0.199,1.258 -0.594,1.656 -0.398,0.406 -0.969,0.609 -1.719,0.609 -0.711,0 -1.281,-0.199 -1.718,-0.593 -0.438,-0.387 -0.688,-0.938 -0.75,-1.657 l -3.438,0.25 c 0.102,0.801 0.328,1.5 0.672,2.094 0.344,0.594 0.773,1.082 1.297,1.469 0.531,0.394 1.133,0.687 1.812,0.875 0.688,0.195 1.414,0.297 2.188,0.297 1.008,0 1.875,-0.125 2.594,-0.375 0.726,-0.242 1.32,-0.571 1.781,-0.985 0.469,-0.406 0.812,-0.89 1.031,-1.453 0.219,-0.554 0.328,-1.14 0.328,-1.765 0,-0.5 -0.074,-0.969 -0.219,-1.407 -0.148,-0.437 -0.371,-0.828 -0.671,-1.171 -0.293,-0.344 -0.672,-0.641 -1.141,-0.891 -0.461,-0.25 -1.008,-0.438 -1.641,-0.563 l 0,-0.046 c 0.707,-0.086 1.321,-0.247 1.844,-0.485 0.52,-0.242 0.945,-0.539 1.281,-0.89 0.332,-0.356 0.578,-0.762 0.735,-1.219 0.164,-0.449 0.25,-0.93 0.25,-1.438 z" /><path
         id="path86"
         style="fill:#000000;fill-opacity:1;fill-rule:nonzero;stroke:none"
         d="m 386.309,71.073 0,2.719 12.546,0 0,-2.719 -12.546,0 z m 0,-6.734 0,2.703 12.546,0 0,-2.703 -12.546,0 z" /><path
         id="path88"
         style="fill:#000000;fill-opacity:1;fill-rule:nonzero;stroke:none"
         d="m 400.578,60.792 0,2.375 c 0.395,0.851 0.875,1.625 1.438,2.312 0.562,0.688 1.148,1.317 1.765,1.891 0.614,0.582 1.223,1.117 1.828,1.609 0.602,0.488 1.145,0.961 1.625,1.422 0.489,0.457 0.883,0.914 1.188,1.375 0.301,0.469 0.453,0.961 0.453,1.484 0,0.77 -0.195,1.336 -0.578,1.704 -0.375,0.363 -0.938,0.546 -1.688,0.546 -0.73,0 -1.289,-0.199 -1.671,-0.593 -0.387,-0.399 -0.637,-0.985 -0.75,-1.766 l -3.454,0.188 c 0.082,0.675 0.25,1.312 0.5,1.906 0.25,0.594 0.61,1.113 1.078,1.562 0.469,0.446 1.051,0.797 1.75,1.047 0.708,0.258 1.551,0.391 2.532,0.391 0.926,0 1.742,-0.11 2.453,-0.328 0.719,-0.211 1.32,-0.524 1.812,-0.938 0.489,-0.418 0.86,-0.93 1.11,-1.531 0.258,-0.594 0.39,-1.274 0.39,-2.031 0,-0.813 -0.164,-1.547 -0.484,-2.203 -0.313,-0.649 -0.719,-1.247 -1.219,-1.797 -0.5,-0.543 -1.054,-1.055 -1.656,-1.532 -0.605,-0.48 -1.195,-0.949 -1.766,-1.406 -0.562,-0.461 -1.078,-0.922 -1.546,-1.39 -0.469,-0.461 -0.821,-0.954 -1.047,-1.485 l 7.984,0 0,-2.812 -12.047,0 z" /><path
         id="path90"
         style="fill:#000000;fill-opacity:1;fill-rule:nonzero;stroke:none"
         d="m 426.688,66.51 c 0,-0.855 -0.137,-1.648 -0.407,-2.375 -0.273,-0.73 -0.679,-1.367 -1.219,-1.906 -0.531,-0.531 -1.195,-0.949 -1.984,-1.25 -0.793,-0.289 -1.711,-0.437 -2.75,-0.437 -0.969,0 -1.812,0.117 -2.531,0.343 -0.711,0.239 -1.313,0.563 -1.813,0.969 -0.492,0.414 -0.875,0.899 -1.156,1.453 -0.281,0.551 -0.476,1.145 -0.578,1.782 l 3.438,0.281 c 0.062,-0.274 0.148,-0.531 0.265,-0.781 0.125,-0.25 0.289,-0.477 0.5,-0.672 0.207,-0.2 0.469,-0.356 0.781,-0.469 0.313,-0.117 0.688,-0.172 1.125,-0.172 0.852,0 1.536,0.27 2.047,0.813 0.508,0.539 0.766,1.328 0.766,2.359 0,0.445 -0.07,0.851 -0.203,1.219 -0.125,0.375 -0.305,0.691 -0.531,0.953 -0.231,0.258 -0.516,0.457 -0.86,0.594 -0.336,0.132 -0.715,0.203 -1.14,0.203 -0.575,0 -1.043,-0.11 -1.407,-0.328 -0.367,-0.211 -0.679,-0.469 -0.937,-0.782 l -3.344,0 0.609,9.688 10.329,0 0,-2.547 -7.219,0 -0.281,-4.359 c 0.343,0.3 0.773,0.562 1.296,0.781 0.52,0.219 1.125,0.328 1.813,0.328 0.844,0 1.598,-0.141 2.265,-0.422 0.665,-0.273 1.227,-0.656 1.688,-1.156 0.469,-0.5 0.82,-1.102 1.062,-1.797 0.25,-0.688 0.376,-1.461 0.376,-2.313 z" /><path
         id="path92"
         style="fill:#000000;fill-opacity:1;fill-rule:nonzero;stroke:none"
         d="m 432.531,61.604 c 0,-0.555 -0.031,-1.051 -0.093,-1.5 -0.063,-0.445 -0.153,-0.859 -0.266,-1.234 -0.117,-0.375 -0.258,-0.719 -0.422,-1.031 -0.156,-0.321 -0.34,-0.629 -0.547,-0.922 l -2.25,0 c 0.227,0.293 0.442,0.601 0.641,0.922 0.195,0.312 0.367,0.636 0.515,0.968 0.145,0.336 0.258,0.668 0.344,1 0.082,0.336 0.125,0.664 0.125,0.985 l -1.578,0 0,3.718 3.531,0 0,-2.906 z" /><path
         id="path94"
         style="fill:#000000;fill-opacity:1;fill-rule:nonzero;stroke:none"
         d="m 445.578,64.292 0,-3.5 -3.266,0 0,3.5 -7.828,0 0,2.578 7.266,11.125 3.828,0 0,-11.141 2.297,0 0,-2.562 -2.297,0 z m -3.266,8.187 c 0,0.133 0,0.313 0,0.531 0.008,0.227 0.02,0.457 0.032,0.688 0.008,0.238 0.019,0.469 0.031,0.687 0.008,0.219 0.023,0.383 0.047,0.5 -0.043,-0.086 -0.11,-0.211 -0.203,-0.375 -0.086,-0.168 -0.184,-0.351 -0.297,-0.546 -0.106,-0.188 -0.219,-0.375 -0.344,-0.563 -0.117,-0.187 -0.215,-0.352 -0.297,-0.484 l -4,-6.063 5.031,0 0,5.625 z" /><path
         id="path96"
         style="fill:#000000;fill-opacity:1;fill-rule:nonzero;stroke:none"
         d="m 366.105,22.171 c 0.676,0 1.258,0.093 1.75,0.281 0.489,0.187 0.915,0.437 1.282,0.75 0.363,0.312 0.664,0.66 0.906,1.047 0.238,0.394 0.437,0.789 0.594,1.187 l 3.14,-1.187 c -0.25,-0.617 -0.586,-1.219 -1,-1.813 -0.406,-0.594 -0.918,-1.121 -1.531,-1.578 -0.605,-0.461 -1.328,-0.828 -2.172,-1.109 -0.844,-0.282 -1.836,-0.422 -2.969,-0.422 -1.492,0 -2.781,0.226 -3.875,0.672 -1.085,0.445 -1.984,1.066 -2.703,1.859 -0.711,0.789 -1.234,1.727 -1.578,2.813 -0.344,1.093 -0.515,2.285 -0.515,3.578 0,1.343 0.171,2.554 0.515,3.64 0.344,1.082 0.863,2.004 1.563,2.766 0.695,0.758 1.582,1.344 2.656,1.75 1.07,0.414 2.332,0.625 3.781,0.625 1.125,0 2.102,-0.121 2.938,-0.359 0.843,-0.231 1.57,-0.559 2.187,-0.985 0.614,-0.429 1.125,-0.933 1.531,-1.515 0.407,-0.586 0.723,-1.227 0.954,-1.922 l -3.172,-0.875 c -0.117,0.375 -0.293,0.726 -0.532,1.062 -0.242,0.332 -0.543,0.629 -0.906,0.891 -0.355,0.258 -0.777,0.469 -1.265,0.625 -0.493,0.164 -1.043,0.25 -1.657,0.25 -0.875,0 -1.625,-0.141 -2.25,-0.422 -0.625,-0.281 -1.14,-0.684 -1.547,-1.203 -0.406,-0.524 -0.703,-1.149 -0.89,-1.875 -0.188,-0.731 -0.281,-1.547 -0.281,-2.453 0,-0.887 0.093,-1.703 0.281,-2.453 0.187,-0.743 0.484,-1.383 0.89,-1.922 0.415,-0.543 0.942,-0.965 1.579,-1.266 0.632,-0.293 1.398,-0.437 2.296,-0.437 z" /><path
         id="path98"
         style="fill:#000000;fill-opacity:1;fill-rule:nonzero;stroke:none"
         d="m 375.305,29.858 0,2.719 12.547,0 0,-2.719 -12.547,0 z m 0,-6.734 0,2.703 12.547,0 0,-2.703 -12.547,0 z" /><path
         id="path100"
         style="fill:#000000;fill-opacity:1;fill-rule:nonzero;stroke:none"
         d="m 389.574,19.577 0,2.375 c 0.395,0.851 0.875,1.625 1.438,2.312 0.562,0.688 1.148,1.317 1.765,1.891 0.614,0.582 1.223,1.117 1.828,1.609 0.602,0.489 1.145,0.961 1.625,1.422 0.489,0.457 0.883,0.914 1.188,1.375 0.301,0.469 0.453,0.961 0.453,1.485 0,0.769 -0.195,1.336 -0.578,1.703 -0.375,0.363 -0.938,0.547 -1.688,0.547 -0.73,0 -1.289,-0.2 -1.671,-0.594 -0.387,-0.399 -0.637,-0.985 -0.75,-1.766 l -3.454,0.188 c 0.082,0.675 0.25,1.312 0.5,1.906 0.25,0.594 0.61,1.113 1.079,1.562 0.468,0.446 1.05,0.797 1.75,1.047 0.707,0.258 1.55,0.391 2.531,0.391 0.926,0 1.742,-0.109 2.453,-0.328 0.719,-0.211 1.32,-0.524 1.812,-0.938 0.489,-0.418 0.86,-0.929 1.11,-1.531 0.258,-0.594 0.39,-1.273 0.39,-2.031 0,-0.813 -0.164,-1.547 -0.484,-2.203 -0.312,-0.649 -0.719,-1.246 -1.219,-1.797 -0.5,-0.543 -1.054,-1.055 -1.656,-1.531 -0.605,-0.481 -1.195,-0.95 -1.766,-1.407 -0.562,-0.461 -1.078,-0.922 -1.546,-1.39 -0.469,-0.461 -0.821,-0.953 -1.047,-1.485 l 7.984,0 0,-2.812 -12.047,0 z" /><path
         id="path102"
         style="fill:#000000;fill-opacity:1;fill-rule:nonzero;stroke:none"
         d="m 407.762,20.389 c 0,-0.554 -0.032,-1.05 -0.094,-1.5 -0.063,-0.445 -0.152,-0.859 -0.266,-1.234 -0.117,-0.375 -0.257,-0.719 -0.422,-1.031 -0.156,-0.321 -0.339,-0.629 -0.546,-0.922 l -2.25,0 c 0.226,0.293 0.441,0.601 0.64,0.922 0.196,0.312 0.367,0.636 0.516,0.968 0.144,0.336 0.258,0.668 0.344,1 0.082,0.336 0.125,0.665 0.125,0.985 l -1.579,0 0,3.719 3.532,0 0,-2.907 z" /><path
         id="path104"
         style="fill:#000000;fill-opacity:1;fill-rule:nonzero;stroke:none"
         d="m 422.48,24.421 c 0,-0.743 -0.125,-1.422 -0.375,-2.047 -0.242,-0.617 -0.617,-1.153 -1.125,-1.61 -0.5,-0.449 -1.14,-0.804 -1.921,-1.062 -0.774,-0.25 -1.688,-0.375 -2.75,-0.375 -1.055,0 -1.969,0.125 -2.75,0.375 -0.782,0.258 -1.43,0.613 -1.938,1.062 -0.5,0.457 -0.875,0.993 -1.125,1.61 -0.242,0.613 -0.359,1.289 -0.359,2.031 0,0.625 0.093,1.176 0.281,1.656 0.195,0.488 0.457,0.906 0.781,1.25 0.332,0.352 0.707,0.633 1.125,0.844 0.426,0.207 0.864,0.348 1.313,0.422 l 0,0.047 c -0.481,0.101 -0.914,0.273 -1.297,0.515 -0.387,0.25 -0.715,0.547 -0.985,0.891 -0.261,0.344 -0.464,0.723 -0.609,1.141 -0.137,0.414 -0.203,0.851 -0.203,1.312 0,0.676 0.117,1.297 0.359,1.859 0.25,0.563 0.614,1.04 1.094,1.438 0.477,0.406 1.07,0.711 1.781,0.922 0.719,0.219 1.547,0.328 2.485,0.328 1,0 1.863,-0.117 2.593,-0.344 0.727,-0.219 1.329,-0.531 1.797,-0.937 0.477,-0.399 0.828,-0.875 1.047,-1.438 0.227,-0.562 0.344,-1.183 0.344,-1.859 0,-0.449 -0.074,-0.883 -0.219,-1.297 -0.136,-0.418 -0.34,-0.797 -0.609,-1.141 -0.274,-0.343 -0.602,-0.636 -0.985,-0.875 -0.386,-0.23 -0.824,-0.398 -1.312,-0.5 l 0,-0.047 c 0.508,-0.074 0.977,-0.218 1.406,-0.437 0.438,-0.219 0.813,-0.5 1.125,-0.844 0.321,-0.344 0.571,-0.762 0.75,-1.25 0.188,-0.48 0.281,-1.027 0.281,-1.64 z m -3.953,7.859 c 0,0.332 -0.043,0.644 -0.125,0.937 -0.074,0.29 -0.195,0.54 -0.359,0.75 -0.168,0.207 -0.398,0.368 -0.688,0.485 -0.293,0.113 -0.656,0.172 -1.093,0.172 -0.43,0 -0.782,-0.059 -1.063,-0.172 -0.281,-0.117 -0.511,-0.278 -0.687,-0.485 -0.168,-0.21 -0.289,-0.46 -0.36,-0.75 -0.074,-0.293 -0.109,-0.605 -0.109,-0.937 0,-0.305 0.031,-0.606 0.094,-0.906 0.062,-0.293 0.172,-0.555 0.328,-0.782 0.164,-0.23 0.394,-0.418 0.687,-0.562 0.289,-0.148 0.672,-0.219 1.141,-0.219 0.477,0 0.863,0.071 1.156,0.219 0.301,0.144 0.531,0.332 0.688,0.562 0.156,0.239 0.258,0.504 0.312,0.797 0.051,0.289 0.078,0.586 0.078,0.891 z m 0.391,-7.578 c 0,0.351 -0.043,0.691 -0.125,1.015 -0.074,0.321 -0.211,0.61 -0.406,0.86 -0.199,0.25 -0.477,0.445 -0.828,0.594 -0.344,0.156 -0.789,0.234 -1.329,0.234 -0.48,0 -0.886,-0.078 -1.218,-0.234 -0.336,-0.149 -0.602,-0.352 -0.797,-0.61 -0.199,-0.25 -0.34,-0.543 -0.422,-0.875 -0.086,-0.324 -0.125,-0.668 -0.125,-1.031 0,-0.43 0.039,-0.824 0.125,-1.188 0.082,-0.355 0.227,-0.664 0.437,-0.921 0.208,-0.25 0.477,-0.45 0.813,-0.594 0.344,-0.137 0.773,-0.203 1.297,-0.203 0.508,0 0.93,0.066 1.265,0.203 0.333,0.144 0.594,0.347 0.782,0.609 0.195,0.258 0.332,0.571 0.406,0.938 0.082,0.363 0.125,0.765 0.125,1.203 z" /><path
         id="path106"
         style="fill:#000000;fill-opacity:1;fill-rule:nonzero;stroke:none"
         d="m 423.965,19.577 0,2.375 c 0.394,0.851 0.875,1.625 1.437,2.312 0.563,0.688 1.149,1.317 1.766,1.891 0.613,0.582 1.223,1.117 1.828,1.609 0.602,0.489 1.145,0.961 1.625,1.422 0.488,0.457 0.883,0.914 1.188,1.375 0.3,0.469 0.453,0.961 0.453,1.485 0,0.769 -0.196,1.336 -0.578,1.703 -0.375,0.363 -0.938,0.547 -1.688,0.547 -0.73,0 -1.289,-0.2 -1.672,-0.594 -0.386,-0.399 -0.636,-0.985 -0.75,-1.766 l -3.453,0.188 c 0.082,0.675 0.25,1.312 0.5,1.906 0.25,0.594 0.609,1.113 1.078,1.562 0.469,0.446 1.051,0.797 1.75,1.047 0.707,0.258 1.551,0.391 2.531,0.391 0.926,0 1.743,-0.109 2.454,-0.328 0.718,-0.211 1.32,-0.524 1.812,-0.938 0.488,-0.418 0.859,-0.929 1.109,-1.531 0.258,-0.594 0.391,-1.273 0.391,-2.031 0,-0.813 -0.164,-1.547 -0.484,-2.203 -0.313,-0.649 -0.719,-1.246 -1.219,-1.797 -0.5,-0.543 -1.055,-1.055 -1.656,-1.531 -0.606,-0.481 -1.196,-0.95 -1.766,-1.407 -0.562,-0.461 -1.078,-0.922 -1.547,-1.39 -0.469,-0.461 -0.82,-0.953 -1.047,-1.485 l 7.985,0 0,-2.812 -12.047,0 z" /><path
         id="path108"
         style="fill:#000000;fill-opacity:1;fill-rule:nonzero;stroke:none"
         d="m 442.152,33.999 0,-5.328 8.797,0 0,-2.782 -8.797,0 0,-6.312 -3.609,0 0,17.203 12.687,0 0,-2.781 -9.078,0 z" /><path
         id="path110"
         style="fill:#000000;fill-opacity:1;fill-rule:nonzero;stroke:none"
         d="m 317.641,290.573 4.121,0 0,-4.121 -4.121,0 0,4.121 z" /><path
         id="path112"
         style="fill:#000000;fill-opacity:1;fill-rule:nonzero;stroke:none"
         d="m 193.992,290.573 4.121,0 0,-4.121 -4.121,0 0,4.121 z" /><g
         transform="matrix(0,-1,-1,0,0,370.944)"
         id="g114"><path
           id="path116"
           style="fill:none;stroke:#000000;stroke-width:4.12160015;stroke-linecap:round;stroke-linejoin:round;stroke-miterlimit:10;stroke-dasharray:none;stroke-opacity:1"
           d="m 78.59,-278.484 c -6.242,0.011 -11.313,-4.586 -11.336,-10.278 -0.012,-5.687 5.027,-10.316 11.269,-10.332 l 0.032,0" /></g><g
         transform="matrix(0,-1,-1,0,0,370.944)"
         id="g118"><path
           id="path120"
           style="fill:none;stroke:#000000;stroke-width:4.12160015;stroke-linecap:round;stroke-linejoin:round;stroke-miterlimit:10;stroke-dasharray:none;stroke-opacity:1"
           d="m 78.309,-299.094 4.125,0" /></g><g
         transform="matrix(0,-1,-1,0,0,370.944)"
         id="g122"><path
           id="path124"
           style="fill:none;stroke:#000000;stroke-width:4.12160015;stroke-linecap:round;stroke-linejoin:round;stroke-miterlimit:10;stroke-dasharray:none;stroke-opacity:1"
           d="m 78.309,-278.484 4.125,0" /></g><g
         transform="matrix(0,-1,-1,0,0,370.944)"
         id="g126"><path
           id="path128"
           style="fill:none;stroke:#000000;stroke-width:4.12160015;stroke-linecap:round;stroke-linejoin:round;stroke-miterlimit:10;stroke-dasharray:none;stroke-opacity:1"
           d="m 78.59,-257.879 c -6.242,0.016 -11.313,-4.586 -11.336,-10.273 -0.012,-5.692 5.027,-10.321 11.269,-10.332 l 0.032,0" /></g><g
         transform="matrix(0,-1,-1,0,0,370.944)"
         id="g130"><path
           id="path132"
           style="fill:none;stroke:#000000;stroke-width:4.12160015;stroke-linecap:round;stroke-linejoin:round;stroke-miterlimit:10;stroke-dasharray:none;stroke-opacity:1"
           d="m 78.309,-278.484 4.125,0" /></g><g
         transform="matrix(0,-1,-1,0,0,370.944)"
         id="g134"><path
           id="path136"
           style="fill:none;stroke:#000000;stroke-width:4.12160015;stroke-linecap:round;stroke-linejoin:round;stroke-miterlimit:10;stroke-dasharray:none;stroke-opacity:1"
           d="m 78.309,-257.879 4.125,0" /></g><g
         transform="matrix(0,-1,-1,0,0,370.944)"
         id="g138"><path
           id="path140"
           style="fill:none;stroke:#000000;stroke-width:4.12160015;stroke-linecap:round;stroke-linejoin:round;stroke-miterlimit:10;stroke-dasharray:none;stroke-opacity:1"
           d="m 78.59,-237.27 c -6.242,0.016 -11.313,-4.585 -11.336,-10.273 -0.012,-5.691 5.027,-10.32 11.269,-10.336 l 0.032,0" /></g><g
         transform="matrix(0,-1,-1,0,0,370.944)"
         id="g142"><path
           id="path144"
           style="fill:none;stroke:#000000;stroke-width:4.12160015;stroke-linecap:round;stroke-linejoin:round;stroke-miterlimit:10;stroke-dasharray:none;stroke-opacity:1"
           d="m 78.309,-257.879 4.125,0" /></g><g
         transform="matrix(0,-1,-1,0,0,370.944)"
         id="g146"><path
           id="path148"
           style="fill:none;stroke:#000000;stroke-width:4.12160015;stroke-linecap:round;stroke-linejoin:round;stroke-miterlimit:10;stroke-dasharray:none;stroke-opacity:1"
           d="m 78.309,-237.27 4.125,0" /></g><g
         transform="matrix(0,-1,-1,0,0,370.944)"
         id="g150"><path
           id="path152"
           style="fill:none;stroke:#000000;stroke-width:4.12160015;stroke-linecap:round;stroke-linejoin:round;stroke-miterlimit:10;stroke-dasharray:none;stroke-opacity:1"
           d="m 78.59,-216.664 c -6.242,0.016 -11.313,-4.582 -11.336,-10.274 -0.012,-5.687 5.027,-10.316 11.269,-10.332 l 0.032,0" /></g><g
         transform="matrix(0,-1,-1,0,0,370.944)"
         id="g154"><path
           id="path156"
           style="fill:none;stroke:#000000;stroke-width:4.12160015;stroke-linecap:round;stroke-linejoin:round;stroke-miterlimit:10;stroke-dasharray:none;stroke-opacity:1"
           d="m 78.309,-237.27 4.125,0" /></g><g
         transform="matrix(0,-1,-1,0,0,370.944)"
         id="g158"><path
           id="path160"
           style="fill:none;stroke:#000000;stroke-width:4.12160015;stroke-linecap:round;stroke-linejoin:round;stroke-miterlimit:10;stroke-dasharray:none;stroke-opacity:1"
           d="m 78.309,-216.664 4.125,0" /></g><g
         transform="matrix(0,-1,-1,0,0,370.944)"
         id="g162"><path
           id="path164"
           style="fill:none;stroke:#000000;stroke-width:4.12160015;stroke-linecap:square;stroke-linejoin:miter;stroke-miterlimit:10;stroke-dasharray:none;stroke-opacity:1"
           d="m 82.434,-317.641 0,16.485" /></g><g
         transform="matrix(0,-1,-1,0,0,370.944)"
         id="g166"><path
           id="path168"
           style="fill:none;stroke:#000000;stroke-width:4.12160015;stroke-linecap:square;stroke-linejoin:miter;stroke-miterlimit:10;stroke-dasharray:none;stroke-opacity:1"
           d="m 82.434,-214.602 0,16.489" /></g><path
         id="path170"
         style="fill:#000000;fill-opacity:1;fill-rule:nonzero;stroke:none"
         d="m 219.418,55.495 c -0.875,0 -1.648,0.09 -2.313,0.265 -0.656,0.18 -1.218,0.422 -1.687,0.735 -0.469,0.312 -0.844,0.687 -1.125,1.125 -0.281,0.429 -0.477,0.902 -0.578,1.422 l 3.422,0.406 c 0.125,-0.531 0.383,-0.945 0.781,-1.25 0.406,-0.301 0.937,-0.453 1.594,-0.453 0.406,0 0.773,0.058 1.109,0.172 0.344,0.117 0.633,0.312 0.875,0.593 0.238,0.274 0.426,0.633 0.563,1.079 0.132,0.449 0.203,1 0.203,1.656 0,0.226 0,0.457 0,0.687 0,0.239 0,0.457 0,0.657 0.008,0.226 0.015,0.445 0.015,0.656 l -0.015,0 c -0.407,-0.856 -0.969,-1.477 -1.688,-1.86 -0.719,-0.375 -1.574,-0.562 -2.562,-0.562 -0.844,0 -1.571,0.16 -2.172,0.484 -0.606,0.332 -1.11,0.789 -1.516,1.375 -0.398,0.594 -0.687,1.297 -0.875,2.11 -0.187,0.82 -0.281,1.726 -0.281,2.718 0,1.008 0.098,1.926 0.297,2.75 0.207,0.832 0.519,1.547 0.937,2.141 0.414,0.594 0.942,1.051 1.578,1.375 0.645,0.32 1.407,0.484 2.282,0.484 0.883,0 1.672,-0.187 2.359,-0.562 0.695,-0.375 1.242,-0.984 1.641,-1.828 l 0.062,0 c 0,0.176 0.004,0.375 0.016,0.594 0.008,0.226 0.019,0.445 0.031,0.656 0.02,0.207 0.039,0.39 0.063,0.547 0.019,0.164 0.039,0.273 0.062,0.328 l 3.234,0 c -0.011,-0.293 -0.027,-0.703 -0.046,-1.235 -0.012,-0.523 -0.016,-1.125 -0.016,-1.812 l 0,-9.75 c 0,-0.957 -0.141,-1.789 -0.422,-2.5 -0.273,-0.719 -0.68,-1.313 -1.219,-1.781 -0.531,-0.477 -1.187,-0.832 -1.968,-1.063 -0.774,-0.238 -1.653,-0.359 -2.641,-0.359 z m 2.859,12.078 c 0,0.832 -0.086,1.523 -0.25,2.078 -0.156,0.551 -0.367,0.992 -0.625,1.328 -0.261,0.332 -0.562,0.567 -0.906,0.703 -0.336,0.145 -0.672,0.219 -1.016,0.219 -0.437,0 -0.828,-0.09 -1.171,-0.266 -0.336,-0.168 -0.621,-0.433 -0.86,-0.796 -0.23,-0.356 -0.406,-0.809 -0.531,-1.36 -0.117,-0.555 -0.172,-1.211 -0.172,-1.969 0,-1.429 0.223,-2.507 0.672,-3.234 0.457,-0.719 1.141,-1.078 2.047,-1.078 0.344,0 0.68,0.066 1.015,0.203 0.332,0.133 0.633,0.367 0.907,0.703 0.269,0.344 0.484,0.789 0.64,1.344 0.164,0.562 0.25,1.269 0.25,2.125 z" /><path
         id="path172"
         style="fill:#000000;fill-opacity:1;fill-rule:nonzero;stroke:none"
         d="m 228.117,60.792 0,2.375 c 0.395,0.851 0.875,1.625 1.438,2.312 0.562,0.688 1.148,1.317 1.765,1.891 0.614,0.582 1.223,1.117 1.828,1.609 0.602,0.488 1.145,0.961 1.625,1.422 0.489,0.457 0.883,0.914 1.188,1.375 0.301,0.469 0.453,0.961 0.453,1.484 0,0.77 -0.195,1.336 -0.578,1.704 -0.375,0.363 -0.938,0.546 -1.688,0.546 -0.73,0 -1.289,-0.199 -1.671,-0.593 -0.387,-0.399 -0.637,-0.985 -0.75,-1.766 l -3.454,0.188 c 0.082,0.675 0.25,1.312 0.5,1.906 0.25,0.594 0.61,1.113 1.079,1.562 0.468,0.446 1.05,0.797 1.75,1.047 0.707,0.258 1.55,0.391 2.531,0.391 0.926,0 1.742,-0.11 2.453,-0.328 0.719,-0.211 1.32,-0.524 1.812,-0.938 0.489,-0.418 0.86,-0.93 1.11,-1.531 0.258,-0.594 0.39,-1.274 0.39,-2.031 0,-0.813 -0.164,-1.547 -0.484,-2.203 -0.312,-0.649 -0.719,-1.247 -1.219,-1.797 -0.5,-0.543 -1.054,-1.055 -1.656,-1.532 -0.605,-0.48 -1.195,-0.949 -1.766,-1.406 -0.562,-0.461 -1.078,-0.922 -1.546,-1.39 -0.469,-0.461 -0.821,-0.954 -1.047,-1.485 l 7.984,0 0,-2.812 -12.047,0 z" /><path
         id="path174"
         style="fill:#000000;fill-opacity:1;fill-rule:nonzero;stroke:none"
         d="m 242.055,71.073 0,2.719 12.547,0 0,-2.719 -12.547,0 z m 0,-6.734 0,2.703 12.547,0 0,-2.703 -12.547,0 z" /><path
         id="path176"
         style="fill:#000000;fill-opacity:1;fill-rule:nonzero;stroke:none"
         d="m 257.043,60.792 0,2.547 4.25,0 0,11.734 -4.125,-2.578 0,2.703 4.312,2.797 3.25,0 0,-14.656 3.938,0 0,-2.547 -11.625,0 z" /><path
         id="path178"
         style="fill:#000000;fill-opacity:1;fill-rule:nonzero;stroke:none"
         d="m 274.512,61.604 c 0,-0.555 -0.032,-1.051 -0.094,-1.5 -0.063,-0.445 -0.152,-0.859 -0.266,-1.234 -0.117,-0.375 -0.257,-0.719 -0.422,-1.031 -0.156,-0.321 -0.339,-0.629 -0.546,-0.922 l -2.25,0 c 0.226,0.293 0.441,0.601 0.64,0.922 0.196,0.312 0.367,0.636 0.516,0.968 0.144,0.336 0.258,0.668 0.344,1 0.082,0.336 0.125,0.664 0.125,0.985 l -1.579,0 0,3.718 3.532,0 0,-2.906 z" /><path
         id="path180"
         style="fill:#000000;fill-opacity:1;fill-rule:nonzero;stroke:none"
         d="m 276.945,60.792 0,2.375 c 0.395,0.851 0.875,1.625 1.438,2.312 0.562,0.688 1.148,1.317 1.765,1.891 0.614,0.582 1.223,1.117 1.829,1.609 0.601,0.488 1.144,0.961 1.625,1.422 0.488,0.457 0.882,0.914 1.187,1.375 0.301,0.469 0.453,0.961 0.453,1.484 0,0.77 -0.195,1.336 -0.578,1.704 -0.375,0.363 -0.937,0.546 -1.687,0.546 -0.731,0 -1.289,-0.199 -1.672,-0.593 -0.387,-0.399 -0.637,-0.985 -0.75,-1.766 l -3.453,0.188 c 0.082,0.675 0.25,1.312 0.5,1.906 0.25,0.594 0.609,1.113 1.078,1.562 0.468,0.446 1.05,0.797 1.75,1.047 0.707,0.258 1.55,0.391 2.531,0.391 0.926,0 1.742,-0.11 2.453,-0.328 0.719,-0.211 1.32,-0.524 1.813,-0.938 0.488,-0.418 0.859,-0.93 1.109,-1.531 0.258,-0.594 0.391,-1.274 0.391,-2.031 0,-0.813 -0.165,-1.547 -0.485,-2.203 -0.312,-0.649 -0.719,-1.247 -1.219,-1.797 -0.5,-0.543 -1.054,-1.055 -1.656,-1.532 -0.605,-0.48 -1.195,-0.949 -1.765,-1.406 -0.563,-0.461 -1.079,-0.922 -1.547,-1.39 -0.469,-0.461 -0.821,-0.954 -1.047,-1.485 l 7.984,0 0,-2.812 -12.047,0 z" /><path
         id="path182"
         style="fill:#000000;fill-opacity:1;fill-rule:nonzero;stroke:none"
         d="m 302.852,65.557 c 0,-0.781 -0.133,-1.484 -0.391,-2.109 -0.25,-0.617 -0.637,-1.141 -1.156,-1.578 -0.512,-0.438 -1.149,-0.778 -1.907,-1.016 -0.761,-0.226 -1.648,-0.344 -2.656,-0.344 -1.117,0 -2.058,0.141 -2.828,0.422 -0.773,0.289 -1.406,0.672 -1.906,1.141 -0.492,0.469 -0.86,1 -1.11,1.594 -0.242,0.593 -0.398,1.191 -0.468,1.797 l 3.484,0.312 c 0.051,-0.367 0.145,-0.703 0.281,-1.016 0.133,-0.304 0.313,-0.562 0.532,-0.781 0.226,-0.219 0.507,-0.39 0.843,-0.515 0.332,-0.118 0.723,-0.172 1.172,-0.172 0.82,0 1.457,0.203 1.906,0.609 0.457,0.406 0.688,1.031 0.688,1.875 0,0.508 -0.109,0.914 -0.328,1.219 -0.211,0.312 -0.481,0.551 -0.813,0.719 -0.336,0.164 -0.695,0.273 -1.078,0.328 -0.375,0.062 -0.734,0.093 -1.078,0.093 l -1.187,0 0,2.782 1.109,0 c 0.344,0 0.691,0.031 1.047,0.093 0.351,0.063 0.672,0.176 0.953,0.344 0.289,0.176 0.523,0.414 0.703,0.719 0.176,0.312 0.266,0.703 0.266,1.172 0,0.707 -0.2,1.258 -0.594,1.656 -0.398,0.406 -0.969,0.609 -1.719,0.609 -0.711,0 -1.281,-0.199 -1.719,-0.593 -0.437,-0.387 -0.687,-0.938 -0.75,-1.657 l -3.437,0.25 c 0.101,0.801 0.328,1.5 0.672,2.094 0.344,0.594 0.773,1.082 1.297,1.469 0.531,0.394 1.132,0.687 1.812,0.875 0.688,0.195 1.414,0.297 2.188,0.297 1.008,0 1.875,-0.125 2.593,-0.375 0.727,-0.242 1.321,-0.571 1.782,-0.985 0.468,-0.406 0.812,-0.89 1.031,-1.453 0.219,-0.554 0.328,-1.14 0.328,-1.765 0,-0.5 -0.074,-0.969 -0.219,-1.407 -0.148,-0.437 -0.371,-0.828 -0.672,-1.171 -0.293,-0.344 -0.671,-0.641 -1.14,-0.891 -0.461,-0.25 -1.008,-0.438 -1.641,-0.563 l 0,-0.046 c 0.707,-0.086 1.32,-0.247 1.844,-0.485 0.519,-0.242 0.945,-0.539 1.281,-0.89 0.332,-0.356 0.578,-0.762 0.735,-1.219 0.164,-0.449 0.25,-0.93 0.25,-1.438 z" /><path
         id="path184"
         style="fill:#000000;fill-opacity:1;fill-rule:nonzero;stroke:none"
         d="m 211.41,19.577 0,17.203 3.61,0 0,-14.422 9.218,0 0,-2.781 -12.828,0 z" /><path
         id="path186"
         style="fill:#000000;fill-opacity:1;fill-rule:nonzero;stroke:none"
         d="m 225.887,29.858 0,2.719 12.547,0 0,-2.719 -12.547,0 z m 0,-6.734 0,2.703 12.547,0 0,-2.703 -12.547,0 z" /><path
         id="path188"
         style="fill:#000000;fill-opacity:1;fill-rule:nonzero;stroke:none"
         d="m 252.301,24.342 c 0,-0.781 -0.133,-1.484 -0.391,-2.109 -0.25,-0.617 -0.637,-1.141 -1.156,-1.578 -0.512,-0.438 -1.149,-0.777 -1.906,-1.016 -0.762,-0.226 -1.649,-0.343 -2.657,-0.343 -1.117,0 -2.058,0.14 -2.828,0.421 -0.773,0.29 -1.406,0.672 -1.906,1.141 -0.492,0.469 -0.859,1 -1.109,1.594 -0.243,0.594 -0.399,1.191 -0.469,1.797 l 3.484,0.312 c 0.051,-0.367 0.145,-0.703 0.282,-1.015 0.132,-0.305 0.312,-0.563 0.531,-0.782 0.226,-0.218 0.508,-0.39 0.844,-0.515 0.332,-0.117 0.722,-0.172 1.171,-0.172 0.821,0 1.457,0.203 1.907,0.609 0.457,0.406 0.687,1.031 0.687,1.875 0,0.508 -0.109,0.914 -0.328,1.219 -0.211,0.312 -0.48,0.551 -0.812,0.719 -0.336,0.164 -0.696,0.273 -1.079,0.328 -0.375,0.062 -0.734,0.094 -1.078,0.094 l -1.187,0 0,2.781 1.109,0 c 0.344,0 0.692,0.031 1.047,0.094 0.352,0.062 0.672,0.175 0.953,0.343 0.289,0.176 0.524,0.414 0.703,0.719 0.176,0.313 0.266,0.703 0.266,1.172 0,0.707 -0.199,1.258 -0.594,1.656 -0.398,0.406 -0.969,0.61 -1.719,0.61 -0.711,0 -1.281,-0.2 -1.718,-0.594 -0.438,-0.387 -0.688,-0.938 -0.75,-1.656 l -3.438,0.25 c 0.102,0.8 0.328,1.5 0.672,2.093 0.344,0.594 0.773,1.082 1.297,1.469 0.531,0.395 1.133,0.688 1.812,0.875 0.688,0.195 1.414,0.297 2.188,0.297 1.008,0 1.875,-0.125 2.594,-0.375 0.726,-0.242 1.32,-0.57 1.781,-0.984 0.469,-0.407 0.812,-0.891 1.031,-1.454 0.219,-0.554 0.328,-1.14 0.328,-1.765 0,-0.5 -0.074,-0.969 -0.218,-1.406 -0.149,-0.438 -0.372,-0.829 -0.672,-1.172 -0.293,-0.344 -0.672,-0.641 -1.141,-0.891 -0.461,-0.25 -1.008,-0.437 -1.641,-0.562 l 0,-0.047 c 0.707,-0.086 1.321,-0.246 1.844,-0.485 0.52,-0.242 0.945,-0.539 1.281,-0.89 0.332,-0.356 0.579,-0.762 0.735,-1.219 0.164,-0.449 0.25,-0.93 0.25,-1.438 z" /><path
         id="path190"
         style="fill:#000000;fill-opacity:1;fill-rule:nonzero;stroke:none"
         d="m 258.344,20.389 c 0,-0.554 -0.032,-1.05 -0.094,-1.5 -0.062,-0.445 -0.152,-0.859 -0.266,-1.234 -0.117,-0.375 -0.257,-0.719 -0.422,-1.031 -0.156,-0.321 -0.339,-0.629 -0.546,-0.922 l -2.25,0 c 0.226,0.293 0.441,0.601 0.64,0.922 0.196,0.312 0.367,0.636 0.516,0.968 0.144,0.336 0.258,0.668 0.344,1 0.082,0.336 0.125,0.665 0.125,0.985 l -1.579,0 0,3.719 3.532,0 0,-2.907 z" /><path
         id="path192"
         style="fill:#000000;fill-opacity:1;fill-rule:nonzero;stroke:none"
         d="m 271.391,23.077 0,-3.5 -3.266,0 0,3.5 -7.828,0 0,2.578 7.265,11.125 3.829,0 0,-11.141 2.297,0 0,-2.562 -2.297,0 z m -3.266,8.187 c 0,0.133 0,0.313 0,0.532 0.008,0.226 0.02,0.457 0.031,0.687 0.008,0.238 0.02,0.469 0.032,0.688 0.007,0.218 0.023,0.382 0.046,0.5 -0.043,-0.086 -0.109,-0.211 -0.203,-0.375 -0.086,-0.168 -0.183,-0.352 -0.297,-0.547 -0.105,-0.188 -0.218,-0.375 -0.343,-0.563 -0.118,-0.187 -0.215,-0.351 -0.297,-0.484 l -4,-6.063 5.031,0 0,5.625 z" /><path
         id="path194"
         style="fill:#000000;fill-opacity:1;fill-rule:nonzero;stroke:none"
         d="m 274.547,19.577 0,2.375 c 0.394,0.851 0.875,1.625 1.437,2.312 0.563,0.688 1.149,1.317 1.766,1.891 0.613,0.582 1.223,1.117 1.828,1.609 0.602,0.489 1.145,0.961 1.625,1.422 0.488,0.457 0.883,0.914 1.188,1.375 0.3,0.469 0.453,0.961 0.453,1.485 0,0.769 -0.196,1.336 -0.578,1.703 -0.375,0.363 -0.938,0.547 -1.688,0.547 -0.73,0 -1.289,-0.2 -1.672,-0.594 -0.386,-0.399 -0.636,-0.985 -0.75,-1.766 l -3.453,0.188 c 0.082,0.675 0.25,1.312 0.5,1.906 0.25,0.594 0.609,1.113 1.078,1.562 0.469,0.446 1.051,0.797 1.75,1.047 0.707,0.258 1.551,0.391 2.531,0.391 0.926,0 1.743,-0.109 2.454,-0.328 0.718,-0.211 1.32,-0.524 1.812,-0.938 0.488,-0.418 0.86,-0.929 1.11,-1.531 0.257,-0.594 0.39,-1.273 0.39,-2.031 0,-0.813 -0.164,-1.547 -0.484,-2.203 -0.313,-0.649 -0.719,-1.246 -1.219,-1.797 -0.5,-0.543 -1.055,-1.055 -1.656,-1.531 -0.606,-0.481 -1.196,-0.95 -1.766,-1.407 -0.562,-0.461 -1.078,-0.922 -1.547,-1.39 -0.468,-0.461 -0.82,-0.953 -1.047,-1.485 l 7.985,0 0,-2.812 -12.047,0 z" /><path
         id="path196"
         style="fill:#000000;fill-opacity:1;fill-rule:nonzero;stroke:none"
         d="m 297.75,19.577 0,7.406 c 0,0.508 -0.043,0.977 -0.125,1.406 -0.074,0.426 -0.203,0.789 -0.391,1.094 -0.187,0.313 -0.433,0.551 -0.734,0.719 -0.305,0.176 -0.668,0.265 -1.094,0.265 -0.418,0 -0.797,-0.093 -1.14,-0.281 -0.336,-0.179 -0.625,-0.437 -0.875,-0.781 -0.243,-0.336 -0.43,-0.734 -0.563,-1.203 -0.137,-0.469 -0.203,-0.985 -0.203,-1.547 l 0,-7.078 -3.422,0 0,10.25 c 0,0.289 -0.008,0.582 -0.015,0.875 0,0.301 -0.008,0.586 -0.016,0.859 -0.012,0.281 -0.024,0.524 -0.031,0.735 -0.012,0.218 -0.028,0.378 -0.047,0.484 l 3.281,0 c 0.008,-0.094 0.023,-0.25 0.047,-0.469 0.019,-0.211 0.035,-0.445 0.047,-0.703 0.019,-0.262 0.035,-0.523 0.047,-0.781 0.007,-0.262 0.015,-0.485 0.015,-0.672 l 0.047,0 c 0.469,1.008 1.051,1.742 1.75,2.203 0.695,0.457 1.531,0.688 2.5,0.688 0.801,0 1.473,-0.133 2.016,-0.391 0.551,-0.262 1,-0.621 1.344,-1.078 0.343,-0.461 0.593,-1 0.75,-1.625 0.156,-0.617 0.234,-1.278 0.234,-1.985 l 0,-8.39 -3.422,0 z" /><path
         id="path198"
         style="fill:#000000;fill-opacity:1;fill-rule:nonzero;stroke:none"
         d="m 315.336,19.577 0,7.375 -7.484,0 0,-7.375 -3.61,0 0,17.203 3.61,0 0,-6.844 7.484,0 0,6.844 3.609,0 0,-17.203 -3.609,0 z" /><path
         id="path200"
         style="fill:#000000;fill-opacity:1;fill-rule:nonzero;stroke:none"
         d="m 688.586,249.358 4.121,0 0,-4.121 -4.121,0 0,4.121 z" /><path
         id="path202"
         style="fill:#000000;fill-opacity:1;fill-rule:nonzero;stroke:none"
         d="m 688.586,146.315 4.121,0 0,-4.121 -4.121,0 0,4.121 z" /><g
         transform="matrix(1,0,0,-1,0,370.944)"
         id="g204"><path
           id="path206"
           style="fill:none;stroke:#000000;stroke-width:4.12160015;stroke-linecap:round;stroke-linejoin:miter;stroke-miterlimit:10;stroke-dasharray:none;stroke-opacity:1"
           d="m 667.977,166.926 45.339,0" /></g><g
         transform="matrix(1,0,0,-1,0,370.944)"
         id="g208"><path
           id="path210"
           style="fill:none;stroke:#000000;stroke-width:4.12160015;stroke-linecap:round;stroke-linejoin:miter;stroke-miterlimit:10;stroke-dasharray:none;stroke-opacity:1"
           d="m 667.977,183.41 45.339,0" /></g><g
         transform="matrix(1,0,0,-1,0,370.944)"
         id="g212"><path
           id="path214"
           style="fill:none;stroke:#000000;stroke-width:4.12160015;stroke-linecap:square;stroke-linejoin:miter;stroke-miterlimit:10;stroke-dasharray:none;stroke-opacity:1"
           d="m 690.645,125.707 0,39.156" /></g><g
         transform="matrix(1,0,0,-1,0,370.944)"
         id="g216"><path
           id="path218"
           style="fill:none;stroke:#000000;stroke-width:4.12160015;stroke-linecap:square;stroke-linejoin:miter;stroke-miterlimit:10;stroke-dasharray:none;stroke-opacity:1"
           d="m 690.645,185.473 0,39.156" /></g><path
         id="path220"
         style="fill:#000000;fill-opacity:1;fill-rule:nonzero;stroke:none"
         d="m 652.188,55.495 c -0.876,0 -1.649,0.09 -2.313,0.265 -0.656,0.18 -1.219,0.422 -1.687,0.735 -0.469,0.312 -0.844,0.687 -1.126,1.125 -0.281,0.429 -0.476,0.902 -0.578,1.422 l 3.422,0.406 c 0.125,-0.531 0.383,-0.945 0.782,-1.25 0.406,-0.301 0.937,-0.453 1.593,-0.453 0.407,0 0.774,0.058 1.11,0.172 0.343,0.117 0.632,0.312 0.875,0.593 0.238,0.274 0.425,0.633 0.562,1.079 0.133,0.449 0.203,1 0.203,1.656 0,0.226 0,0.457 0,0.687 0,0.239 0,0.457 0,0.657 0.008,0.226 0.016,0.445 0.016,0.656 l -0.016,0 c -0.406,-0.856 -0.969,-1.477 -1.687,-1.86 -0.719,-0.375 -1.574,-0.562 -2.563,-0.562 -0.843,0 -1.57,0.16 -2.172,0.484 -0.605,0.332 -1.109,0.789 -1.515,1.375 -0.399,0.594 -0.688,1.297 -0.875,2.11 -0.188,0.82 -0.281,1.726 -0.281,2.718 0,1.008 0.097,1.926 0.296,2.75 0.207,0.832 0.52,1.547 0.938,2.141 0.414,0.594 0.941,1.051 1.578,1.375 0.645,0.32 1.406,0.484 2.281,0.484 0.883,0 1.672,-0.187 2.36,-0.562 0.695,-0.375 1.242,-0.984 1.64,-1.828 l 0.063,0 c 0,0.176 0.004,0.375 0.015,0.594 0.008,0.226 0.02,0.445 0.032,0.656 0.019,0.207 0.039,0.39 0.062,0.547 0.02,0.164 0.039,0.273 0.063,0.328 l 3.234,0 c -0.012,-0.293 -0.027,-0.703 -0.047,-1.235 -0.012,-0.523 -0.015,-1.125 -0.015,-1.812 l 0,-9.75 c 0,-0.957 -0.141,-1.789 -0.422,-2.5 -0.274,-0.719 -0.68,-1.313 -1.219,-1.781 -0.531,-0.477 -1.188,-0.832 -1.969,-1.063 -0.773,-0.238 -1.652,-0.359 -2.64,-0.359 z m 2.859,12.078 c 0,0.832 -0.086,1.523 -0.25,2.078 -0.156,0.551 -0.367,0.992 -0.625,1.328 -0.262,0.332 -0.563,0.567 -0.906,0.703 -0.336,0.145 -0.672,0.219 -1.016,0.219 -0.438,0 -0.828,-0.09 -1.172,-0.266 -0.336,-0.168 -0.621,-0.433 -0.859,-0.796 -0.231,-0.356 -0.407,-0.809 -0.531,-1.36 -0.118,-0.555 -0.172,-1.211 -0.172,-1.969 0,-1.429 0.222,-2.507 0.672,-3.234 0.457,-0.719 1.14,-1.078 2.046,-1.078 0.344,0 0.68,0.066 1.016,0.203 0.332,0.133 0.633,0.367 0.906,0.703 0.27,0.344 0.485,0.789 0.641,1.344 0.164,0.562 0.25,1.269 0.25,2.125 z" /><path
         id="path222"
         style="fill:#000000;fill-opacity:1;fill-rule:nonzero;stroke:none"
         d="m 673.227,66.51 c 0,-0.855 -0.137,-1.648 -0.407,-2.375 -0.273,-0.73 -0.679,-1.367 -1.218,-1.906 -0.532,-0.531 -1.196,-0.949 -1.985,-1.25 -0.793,-0.289 -1.711,-0.437 -2.75,-0.437 -0.969,0 -1.812,0.117 -2.531,0.343 -0.711,0.239 -1.313,0.563 -1.813,0.969 -0.492,0.414 -0.875,0.899 -1.156,1.453 -0.281,0.551 -0.476,1.145 -0.578,1.782 l 3.438,0.281 c 0.062,-0.274 0.148,-0.531 0.265,-0.781 0.125,-0.25 0.289,-0.477 0.5,-0.672 0.207,-0.2 0.469,-0.356 0.781,-0.469 0.313,-0.117 0.688,-0.172 1.125,-0.172 0.852,0 1.536,0.27 2.047,0.813 0.508,0.539 0.766,1.328 0.766,2.359 0,0.445 -0.07,0.851 -0.203,1.219 -0.125,0.375 -0.305,0.691 -0.531,0.953 -0.231,0.258 -0.516,0.457 -0.86,0.594 -0.336,0.132 -0.715,0.203 -1.14,0.203 -0.575,0 -1.043,-0.11 -1.407,-0.328 -0.367,-0.211 -0.679,-0.469 -0.937,-0.782 l -3.344,0 0.609,9.688 10.329,0 0,-2.547 -7.219,0 -0.281,-4.359 c 0.343,0.3 0.773,0.562 1.296,0.781 0.52,0.219 1.125,0.328 1.813,0.328 0.844,0 1.598,-0.141 2.266,-0.422 0.664,-0.273 1.226,-0.656 1.687,-1.156 0.469,-0.5 0.82,-1.102 1.063,-1.797 0.25,-0.688 0.375,-1.461 0.375,-2.313 z" /><path
         id="path224"
         style="fill:#000000;fill-opacity:1;fill-rule:nonzero;stroke:none"
         d="m 674.82,71.073 0,2.719 12.547,0 0,-2.719 -12.547,0 z m 0,-6.734 0,2.703 12.547,0 0,-2.703 -12.547,0 z" /><path
         id="path226"
         style="fill:#000000;fill-opacity:1;fill-rule:nonzero;stroke:none"
         d="m 689.809,60.792 0,2.547 4.25,0 0,11.734 -4.125,-2.578 0,2.703 4.312,2.797 3.25,0 0,-14.656 3.938,0 0,-2.547 -11.625,0 z" /><path
         id="path228"
         style="fill:#000000;fill-opacity:1;fill-rule:nonzero;stroke:none"
         d="m 707.277,61.604 c 0,-0.555 -0.031,-1.051 -0.093,-1.5 -0.063,-0.445 -0.153,-0.859 -0.266,-1.234 -0.117,-0.375 -0.258,-0.719 -0.422,-1.031 -0.156,-0.321 -0.34,-0.629 -0.547,-0.922 l -2.25,0 c 0.227,0.293 0.442,0.601 0.641,0.922 0.195,0.312 0.367,0.636 0.515,0.968 0.145,0.336 0.258,0.668 0.344,1 0.082,0.336 0.125,0.664 0.125,0.985 l -1.578,0 0,3.718 3.531,0 0,-2.906 z" /><path
         id="path230"
         style="fill:#000000;fill-opacity:1;fill-rule:nonzero;stroke:none"
         d="m 721.668,75.276 c -0.781,-1.23 -1.516,-2.418 -2.203,-3.562 -0.688,-1.149 -1.289,-2.305 -1.797,-3.469 -0.512,-1.156 -0.918,-2.352 -1.219,-3.578 -0.293,-1.219 -0.437,-2.512 -0.437,-3.875 l -3.578,0 c 0,1.351 0.16,2.644 0.484,3.875 0.32,1.226 0.758,2.422 1.312,3.578 0.551,1.164 1.192,2.316 1.922,3.453 0.739,1.133 1.516,2.289 2.328,3.469 l -8.546,0 0,2.828 11.734,0 0,-2.719 z" /><path
         id="path232"
         style="fill:#000000;fill-opacity:1;fill-rule:nonzero;stroke:none"
         d="m 735.496,69.401 c 0,-1.648 -0.152,-3.031 -0.453,-4.156 -0.305,-1.125 -0.719,-2.039 -1.25,-2.735 -0.531,-0.699 -1.164,-1.203 -1.891,-1.515 -0.73,-0.301 -1.527,-0.453 -2.39,-0.453 -0.856,0 -1.649,0.152 -2.375,0.453 -0.719,0.301 -1.34,0.801 -1.86,1.5 -0.523,0.695 -0.933,1.609 -1.234,2.734 -0.293,1.125 -0.438,2.516 -0.438,4.172 0,1.727 0.145,3.16 0.438,4.297 0.289,1.133 0.695,2.039 1.219,2.719 0.531,0.675 1.164,1.148 1.906,1.422 0.738,0.269 1.555,0.406 2.453,0.406 0.832,0 1.609,-0.137 2.328,-0.406 0.719,-0.274 1.336,-0.747 1.86,-1.422 0.531,-0.68 0.941,-1.586 1.234,-2.719 0.301,-1.137 0.453,-2.57 0.453,-4.297 z m -3.437,0 c 0,1.207 -0.047,2.207 -0.141,3 -0.086,0.801 -0.227,1.43 -0.422,1.891 -0.199,0.468 -0.453,0.797 -0.766,0.984 -0.312,0.188 -0.695,0.281 -1.14,0.281 -0.481,0 -0.883,-0.093 -1.203,-0.281 -0.325,-0.187 -0.59,-0.523 -0.797,-1 -0.199,-0.469 -0.34,-1.102 -0.422,-1.891 -0.086,-0.793 -0.125,-1.789 -0.125,-2.984 0,-1.18 0.039,-2.164 0.125,-2.953 0.094,-0.793 0.238,-1.43 0.437,-1.906 0.196,-0.469 0.454,-0.805 0.766,-1 0.313,-0.2 0.703,-0.297 1.172,-0.297 0.445,0 0.828,0.097 1.141,0.297 0.32,0.195 0.582,0.531 0.781,1 0.207,0.476 0.359,1.113 0.453,1.906 0.094,0.789 0.141,1.773 0.141,2.953 z" /><path
         id="path234"
         style="fill:#000000;fill-opacity:1;fill-rule:nonzero;stroke:none"
         d="m 653.941,22.171 c 0.676,0 1.258,0.093 1.75,0.281 0.489,0.187 0.914,0.437 1.282,0.75 0.363,0.312 0.664,0.66 0.906,1.047 0.238,0.394 0.437,0.789 0.594,1.187 l 3.14,-1.187 c -0.25,-0.617 -0.586,-1.219 -1,-1.813 -0.406,-0.594 -0.918,-1.121 -1.531,-1.578 -0.605,-0.461 -1.328,-0.828 -2.172,-1.109 -0.844,-0.282 -1.836,-0.422 -2.969,-0.422 -1.492,0 -2.781,0.226 -3.875,0.672 -1.086,0.445 -1.984,1.066 -2.703,1.859 -0.711,0.789 -1.234,1.727 -1.578,2.813 -0.344,1.093 -0.515,2.285 -0.515,3.578 0,1.343 0.171,2.554 0.515,3.64 0.344,1.082 0.863,2.004 1.563,2.766 0.695,0.758 1.582,1.344 2.656,1.75 1.07,0.414 2.332,0.625 3.781,0.625 1.125,0 2.102,-0.121 2.938,-0.359 0.843,-0.231 1.57,-0.559 2.187,-0.985 0.613,-0.429 1.125,-0.933 1.531,-1.515 0.407,-0.586 0.723,-1.227 0.954,-1.922 l -3.172,-0.875 c -0.118,0.375 -0.293,0.726 -0.532,1.062 -0.242,0.332 -0.543,0.629 -0.906,0.891 -0.355,0.258 -0.777,0.469 -1.265,0.625 -0.493,0.164 -1.043,0.25 -1.657,0.25 -0.875,0 -1.625,-0.141 -2.25,-0.422 -0.625,-0.281 -1.14,-0.684 -1.547,-1.203 -0.406,-0.524 -0.703,-1.149 -0.89,-1.875 -0.188,-0.731 -0.281,-1.547 -0.281,-2.453 0,-0.887 0.093,-1.703 0.281,-2.453 0.187,-0.743 0.484,-1.383 0.89,-1.922 0.414,-0.543 0.942,-0.965 1.579,-1.266 0.632,-0.293 1.398,-0.437 2.296,-0.437 z" /><path
         id="path236"
         style="fill:#000000;fill-opacity:1;fill-rule:nonzero;stroke:none"
         d="m 663.141,29.858 0,2.719 12.547,0 0,-2.719 -12.547,0 z m 0,-6.734 0,2.703 12.547,0 0,-2.703 -12.547,0 z" /><path
         id="path238"
         style="fill:#000000;fill-opacity:1;fill-rule:nonzero;stroke:none"
         d="m 678.129,19.577 0,2.547 4.25,0 0,11.734 -4.125,-2.578 0,2.703 4.312,2.797 3.25,0 0,-14.656 3.938,0 0,-2.547 -11.625,0 z" /><path
         id="path240"
         style="fill:#000000;fill-opacity:1;fill-rule:nonzero;stroke:none"
         d="m 695.598,20.389 c 0,-0.554 -0.032,-1.05 -0.094,-1.5 -0.063,-0.445 -0.152,-0.859 -0.266,-1.234 -0.117,-0.375 -0.258,-0.719 -0.422,-1.031 -0.156,-0.321 -0.339,-0.629 -0.546,-0.922 l -2.25,0 c 0.226,0.293 0.441,0.601 0.64,0.922 0.195,0.312 0.367,0.636 0.516,0.968 0.144,0.336 0.258,0.668 0.344,1 0.082,0.336 0.125,0.665 0.125,0.985 l -1.579,0 0,3.719 3.532,0 0,-2.907 z" /><path
         id="path242"
         style="fill:#000000;fill-opacity:1;fill-rule:nonzero;stroke:none"
         d="m 710.316,24.421 c 0,-0.743 -0.125,-1.422 -0.375,-2.047 -0.242,-0.617 -0.617,-1.153 -1.125,-1.61 -0.5,-0.449 -1.14,-0.804 -1.921,-1.062 -0.774,-0.25 -1.688,-0.375 -2.75,-0.375 -1.055,0 -1.969,0.125 -2.75,0.375 -0.782,0.258 -1.43,0.613 -1.938,1.062 -0.5,0.457 -0.875,0.993 -1.125,1.61 -0.242,0.613 -0.359,1.289 -0.359,2.031 0,0.625 0.093,1.176 0.281,1.656 0.195,0.488 0.457,0.906 0.781,1.25 0.332,0.352 0.707,0.633 1.125,0.844 0.426,0.207 0.863,0.348 1.313,0.422 l 0,0.047 c -0.481,0.101 -0.914,0.273 -1.297,0.515 -0.387,0.25 -0.715,0.547 -0.985,0.891 -0.261,0.344 -0.464,0.723 -0.609,1.141 -0.137,0.414 -0.203,0.851 -0.203,1.312 0,0.676 0.117,1.297 0.359,1.859 0.25,0.563 0.614,1.04 1.094,1.438 0.477,0.406 1.07,0.711 1.781,0.922 0.719,0.219 1.547,0.328 2.485,0.328 1,0 1.863,-0.117 2.593,-0.344 0.727,-0.219 1.329,-0.531 1.797,-0.937 0.477,-0.399 0.828,-0.875 1.047,-1.438 0.227,-0.562 0.344,-1.183 0.344,-1.859 0,-0.449 -0.074,-0.883 -0.219,-1.297 -0.137,-0.418 -0.34,-0.797 -0.609,-1.141 -0.274,-0.343 -0.602,-0.636 -0.985,-0.875 -0.386,-0.23 -0.824,-0.398 -1.312,-0.5 l 0,-0.047 c 0.508,-0.074 0.976,-0.218 1.406,-0.437 0.438,-0.219 0.813,-0.5 1.125,-0.844 0.32,-0.344 0.57,-0.762 0.75,-1.25 0.188,-0.48 0.281,-1.027 0.281,-1.64 z m -3.953,7.859 c 0,0.332 -0.043,0.644 -0.125,0.937 -0.074,0.29 -0.195,0.54 -0.359,0.75 -0.168,0.207 -0.399,0.368 -0.688,0.485 -0.293,0.113 -0.656,0.172 -1.093,0.172 -0.43,0 -0.782,-0.059 -1.063,-0.172 -0.281,-0.117 -0.512,-0.278 -0.687,-0.485 -0.168,-0.21 -0.289,-0.46 -0.36,-0.75 -0.074,-0.293 -0.109,-0.605 -0.109,-0.937 0,-0.305 0.031,-0.606 0.094,-0.906 0.062,-0.293 0.172,-0.555 0.328,-0.782 0.164,-0.23 0.394,-0.418 0.687,-0.562 0.289,-0.148 0.672,-0.219 1.141,-0.219 0.476,0 0.863,0.071 1.156,0.219 0.301,0.144 0.531,0.332 0.688,0.562 0.156,0.239 0.257,0.504 0.312,0.797 0.051,0.289 0.078,0.586 0.078,0.891 z m 0.391,-7.578 c 0,0.351 -0.043,0.691 -0.125,1.015 -0.074,0.321 -0.211,0.61 -0.406,0.86 -0.2,0.25 -0.477,0.445 -0.828,0.594 -0.344,0.156 -0.79,0.234 -1.329,0.234 -0.48,0 -0.886,-0.078 -1.218,-0.234 -0.336,-0.149 -0.602,-0.352 -0.797,-0.61 -0.199,-0.25 -0.34,-0.543 -0.422,-0.875 -0.086,-0.324 -0.125,-0.668 -0.125,-1.031 0,-0.43 0.039,-0.824 0.125,-1.188 0.082,-0.355 0.226,-0.664 0.437,-0.921 0.207,-0.25 0.477,-0.45 0.813,-0.594 0.344,-0.137 0.773,-0.203 1.297,-0.203 0.508,0 0.929,0.066 1.265,0.203 0.332,0.144 0.594,0.347 0.782,0.609 0.195,0.258 0.332,0.571 0.406,0.938 0.082,0.363 0.125,0.765 0.125,1.203 z" /><path
         id="path244"
         style="fill:#000000;fill-opacity:1;fill-rule:nonzero;stroke:none"
         d="m 725.191,26.249 c 0,-1.012 -0.105,-1.938 -0.312,-2.782 -0.199,-0.843 -0.508,-1.574 -0.922,-2.187 -0.406,-0.606 -0.934,-1.086 -1.578,-1.438 -0.637,-0.343 -1.387,-0.515 -2.25,-0.515 -0.399,0 -0.789,0.043 -1.172,0.125 -0.387,0.086 -0.758,0.211 -1.109,0.39 -0.344,0.188 -0.668,0.426 -0.969,0.719 -0.293,0.301 -0.547,0.672 -0.766,1.11 l -0.062,0 c 0,-0.043 0.004,-0.149 0.015,-0.313 0.008,-0.156 0.016,-0.344 0.016,-0.562 0.008,-0.211 0.016,-0.434 0.016,-0.672 0.007,-0.242 0.015,-0.465 0.015,-0.672 l 0,-5.063 -3.422,0 0,15.36 c 0,0.675 -0.011,1.273 -0.031,1.797 -0.023,0.531 -0.047,0.941 -0.078,1.234 l 3.344,0 c 0.008,-0.055 0.023,-0.164 0.047,-0.328 0.019,-0.156 0.035,-0.344 0.047,-0.563 0.019,-0.211 0.031,-0.429 0.031,-0.656 0.008,-0.23 0.015,-0.43 0.015,-0.594 l 0.047,0 c 0.414,0.864 0.985,1.485 1.703,1.86 0.727,0.375 1.571,0.562 2.532,0.562 0.832,0 1.55,-0.172 2.156,-0.515 0.613,-0.336 1.117,-0.805 1.516,-1.407 0.394,-0.605 0.687,-1.324 0.875,-2.156 0.195,-0.836 0.296,-1.746 0.296,-2.734 z m -3.578,0 c 0,1.5 -0.23,2.613 -0.687,3.343 -0.461,0.727 -1.137,1.094 -2.031,1.094 -0.344,0 -0.688,-0.074 -1.032,-0.219 -0.336,-0.136 -0.636,-0.382 -0.906,-0.734 -0.262,-0.344 -0.477,-0.809 -0.641,-1.391 -0.168,-0.585 -0.25,-1.32 -0.25,-2.203 0,-0.855 0.079,-1.574 0.235,-2.156 0.164,-0.574 0.379,-1.031 0.64,-1.375 0.27,-0.336 0.571,-0.574 0.907,-0.719 0.332,-0.148 0.672,-0.218 1.015,-0.218 0.438,0 0.828,0.086 1.172,0.265 0.344,0.176 0.629,0.446 0.86,0.813 0.226,0.375 0.406,0.847 0.531,1.422 0.125,0.582 0.187,1.273 0.187,2.078 z" /><path
         id="path246"
         style="fill:#000000;fill-opacity:1;fill-rule:nonzero;stroke:none"
         d="m 731.34,33.999 0,-5.328 8.797,0 0,-2.782 -8.797,0 0,-6.312 -3.61,0 0,17.203 12.688,0 0,-2.781 -9.078,0 z" /><path
         id="path248"
         style="fill:#000000;fill-opacity:1;fill-rule:nonzero;stroke:none"
         d="m 606.152,290.573 4.121,0 0,-4.121 -4.121,0 0,4.121 z" /><path
         id="path250"
         style="fill:#000000;fill-opacity:1;fill-rule:nonzero;stroke:none"
         d="m 482.504,290.573 4.125,0 0,-4.121 -4.125,0 0,4.121 z" /><g
         transform="matrix(0,-1,-1,0,0,370.944)"
         id="g252"><path
           id="path254"
           style="fill:none;stroke:#000000;stroke-width:4.12160015;stroke-linecap:round;stroke-linejoin:round;stroke-miterlimit:10;stroke-dasharray:none;stroke-opacity:1"
           d="m 78.59,-567 c -6.242,0.016 -11.313,-4.582 -11.336,-10.273 -0.012,-5.688 5.027,-10.317 11.269,-10.332 l 0.032,0" /></g><g
         transform="matrix(0,-1,-1,0,0,370.944)"
         id="g256"><path
           id="path258"
           style="fill:none;stroke:#000000;stroke-width:4.12160015;stroke-linecap:round;stroke-linejoin:round;stroke-miterlimit:10;stroke-dasharray:none;stroke-opacity:1"
           d="m 78.309,-587.605 4.125,0" /></g><g
         transform="matrix(0,-1,-1,0,0,370.944)"
         id="g260"><path
           id="path262"
           style="fill:none;stroke:#000000;stroke-width:4.12160015;stroke-linecap:round;stroke-linejoin:round;stroke-miterlimit:10;stroke-dasharray:none;stroke-opacity:1"
           d="m 78.309,-567 4.125,0" /></g><g
         transform="matrix(0,-1,-1,0,0,370.944)"
         id="g264"><path
           id="path266"
           style="fill:none;stroke:#000000;stroke-width:4.12160015;stroke-linecap:round;stroke-linejoin:round;stroke-miterlimit:10;stroke-dasharray:none;stroke-opacity:1"
           d="m 78.59,-546.391 c -6.242,0.016 -11.313,-4.586 -11.336,-10.273 -0.012,-5.691 5.027,-10.32 11.269,-10.336 l 0.032,0" /></g><g
         transform="matrix(0,-1,-1,0,0,370.944)"
         id="g268"><path
           id="path270"
           style="fill:none;stroke:#000000;stroke-width:4.12160015;stroke-linecap:round;stroke-linejoin:round;stroke-miterlimit:10;stroke-dasharray:none;stroke-opacity:1"
           d="m 78.309,-567 4.125,0" /></g><g
         transform="matrix(0,-1,-1,0,0,370.944)"
         id="g272"><path
           id="path274"
           style="fill:none;stroke:#000000;stroke-width:4.12160015;stroke-linecap:round;stroke-linejoin:round;stroke-miterlimit:10;stroke-dasharray:none;stroke-opacity:1"
           d="m 78.309,-546.391 4.125,0" /></g><g
         transform="matrix(0,-1,-1,0,0,370.944)"
         id="g276"><path
           id="path278"
           style="fill:none;stroke:#000000;stroke-width:4.12160015;stroke-linecap:round;stroke-linejoin:round;stroke-miterlimit:10;stroke-dasharray:none;stroke-opacity:1"
           d="m 78.59,-525.781 c -6.242,0.015 -11.313,-4.586 -11.336,-10.278 -0.012,-5.687 5.027,-10.316 11.269,-10.332 l 0.032,0" /></g><g
         transform="matrix(0,-1,-1,0,0,370.944)"
         id="g280"><path
           id="path282"
           style="fill:none;stroke:#000000;stroke-width:4.12160015;stroke-linecap:round;stroke-linejoin:round;stroke-miterlimit:10;stroke-dasharray:none;stroke-opacity:1"
           d="m 78.309,-546.391 4.125,0" /></g><g
         transform="matrix(0,-1,-1,0,0,370.944)"
         id="g284"><path
           id="path286"
           style="fill:none;stroke:#000000;stroke-width:4.12160015;stroke-linecap:round;stroke-linejoin:round;stroke-miterlimit:10;stroke-dasharray:none;stroke-opacity:1"
           d="m 78.309,-525.781 4.125,0" /></g><g
         transform="matrix(0,-1,-1,0,0,370.944)"
         id="g288"><path
           id="path290"
           style="fill:none;stroke:#000000;stroke-width:4.12160015;stroke-linecap:round;stroke-linejoin:round;stroke-miterlimit:10;stroke-dasharray:none;stroke-opacity:1"
           d="m 78.59,-505.176 c -6.242,0.016 -11.313,-4.582 -11.336,-10.273 -0.012,-5.688 5.027,-10.317 11.269,-10.332 l 0.032,0" /></g><g
         transform="matrix(0,-1,-1,0,0,370.944)"
         id="g292"><path
           id="path294"
           style="fill:none;stroke:#000000;stroke-width:4.12160015;stroke-linecap:round;stroke-linejoin:round;stroke-miterlimit:10;stroke-dasharray:none;stroke-opacity:1"
           d="m 78.309,-525.781 4.125,0" /></g><g
         transform="matrix(0,-1,-1,0,0,370.944)"
         id="g296"><path
           id="path298"
           style="fill:none;stroke:#000000;stroke-width:4.12160015;stroke-linecap:round;stroke-linejoin:round;stroke-miterlimit:10;stroke-dasharray:none;stroke-opacity:1"
           d="m 78.309,-505.176 4.125,0" /></g><g
         transform="matrix(0,-1,-1,0,0,370.944)"
         id="g300"><path
           id="path302"
           style="fill:none;stroke:#000000;stroke-width:4.12160015;stroke-linecap:square;stroke-linejoin:miter;stroke-miterlimit:10;stroke-dasharray:none;stroke-opacity:1"
           d="m 82.434,-606.152 0,16.484" /></g><g
         transform="matrix(0,-1,-1,0,0,370.944)"
         id="g304"><path
           id="path306"
           style="fill:none;stroke:#000000;stroke-width:4.12160015;stroke-linecap:square;stroke-linejoin:miter;stroke-miterlimit:10;stroke-dasharray:none;stroke-opacity:1"
           d="m 82.434,-503.113 0,16.484" /></g><path
         id="path308"
         style="fill:#000000;fill-opacity:1;fill-rule:nonzero;stroke:none"
         d="m 507.93,55.495 c -0.875,0 -1.649,0.09 -2.313,0.265 -0.656,0.18 -1.219,0.422 -1.687,0.735 -0.469,0.312 -0.844,0.687 -1.125,1.125 -0.282,0.429 -0.477,0.902 -0.578,1.422 l 3.421,0.406 c 0.125,-0.531 0.383,-0.945 0.782,-1.25 0.406,-0.301 0.937,-0.453 1.593,-0.453 0.407,0 0.774,0.058 1.11,0.172 0.344,0.117 0.633,0.312 0.875,0.593 0.238,0.274 0.426,0.633 0.562,1.079 0.133,0.449 0.203,1 0.203,1.656 0,0.226 0,0.457 0,0.687 0,0.239 0,0.457 0,0.657 0.008,0.226 0.016,0.445 0.016,0.656 l -0.016,0 c -0.406,-0.856 -0.968,-1.477 -1.687,-1.86 -0.719,-0.375 -1.574,-0.562 -2.563,-0.562 -0.843,0 -1.57,0.16 -2.171,0.484 -0.606,0.332 -1.11,0.789 -1.516,1.375 -0.398,0.594 -0.688,1.297 -0.875,2.11 -0.188,0.82 -0.281,1.726 -0.281,2.718 0,1.008 0.097,1.926 0.297,2.75 0.207,0.832 0.519,1.547 0.937,2.141 0.414,0.594 0.941,1.051 1.578,1.375 0.645,0.32 1.406,0.484 2.281,0.484 0.883,0 1.672,-0.187 2.36,-0.562 0.695,-0.375 1.242,-0.984 1.64,-1.828 l 0.063,0 c 0,0.176 0.004,0.375 0.016,0.594 0.007,0.226 0.019,0.445 0.031,0.656 0.019,0.207 0.039,0.39 0.062,0.547 0.02,0.164 0.039,0.273 0.063,0.328 l 3.234,0 c -0.012,-0.293 -0.027,-0.703 -0.047,-1.235 -0.011,-0.523 -0.015,-1.125 -0.015,-1.812 l 0,-9.75 c 0,-0.957 -0.141,-1.789 -0.422,-2.5 -0.274,-0.719 -0.68,-1.313 -1.219,-1.781 -0.531,-0.477 -1.187,-0.832 -1.969,-1.063 -0.773,-0.238 -1.652,-0.359 -2.64,-0.359 z m 2.859,12.078 c 0,0.832 -0.086,1.523 -0.25,2.078 -0.156,0.551 -0.367,0.992 -0.625,1.328 -0.262,0.332 -0.562,0.567 -0.906,0.703 -0.336,0.145 -0.672,0.219 -1.016,0.219 -0.437,0 -0.828,-0.09 -1.172,-0.266 -0.336,-0.168 -0.621,-0.433 -0.859,-0.796 -0.231,-0.356 -0.406,-0.809 -0.531,-1.36 -0.118,-0.555 -0.172,-1.211 -0.172,-1.969 0,-1.429 0.222,-2.507 0.672,-3.234 0.457,-0.719 1.14,-1.078 2.047,-1.078 0.343,0 0.679,0.066 1.015,0.203 0.332,0.133 0.633,0.367 0.906,0.703 0.27,0.344 0.485,0.789 0.641,1.344 0.164,0.562 0.25,1.269 0.25,2.125 z" /><path
         id="path310"
         style="fill:#000000;fill-opacity:1;fill-rule:nonzero;stroke:none"
         d="m 527.238,64.292 0,-3.5 -3.265,0 0,3.5 -7.828,0 0,2.578 7.265,11.125 3.828,0 0,-11.141 2.297,0 0,-2.562 -2.297,0 z m -3.265,8.187 c 0,0.133 0,0.313 0,0.531 0.007,0.227 0.019,0.457 0.031,0.688 0.008,0.238 0.019,0.469 0.031,0.687 0.008,0.219 0.024,0.383 0.047,0.5 -0.043,-0.086 -0.109,-0.211 -0.203,-0.375 -0.086,-0.168 -0.184,-0.351 -0.297,-0.546 -0.105,-0.188 -0.219,-0.375 -0.344,-0.563 -0.117,-0.187 -0.215,-0.352 -0.297,-0.484 l -4,-6.063 5.032,0 0,5.625 z" /><path
         id="path312"
         style="fill:#000000;fill-opacity:1;fill-rule:nonzero;stroke:none"
         d="m 530.566,71.073 0,2.719 12.547,0 0,-2.719 -12.547,0 z m 0,-6.734 0,2.703 12.547,0 0,-2.703 -12.547,0 z" /><path
         id="path314"
         style="fill:#000000;fill-opacity:1;fill-rule:nonzero;stroke:none"
         d="m 545.555,60.792 0,2.547 4.25,0 0,11.734 -4.125,-2.578 0,2.703 4.312,2.797 3.25,0 0,-14.656 3.938,0 0,-2.547 -11.625,0 z" /><path
         id="path316"
         style="fill:#000000;fill-opacity:1;fill-rule:nonzero;stroke:none"
         d="m 563.023,61.604 c 0,-0.555 -0.031,-1.051 -0.093,-1.5 -0.063,-0.445 -0.153,-0.859 -0.266,-1.234 -0.117,-0.375 -0.258,-0.719 -0.422,-1.031 -0.156,-0.321 -0.34,-0.629 -0.547,-0.922 l -2.25,0 c 0.227,0.293 0.442,0.601 0.641,0.922 0.195,0.312 0.367,0.636 0.516,0.968 0.144,0.336 0.257,0.668 0.343,1 0.082,0.336 0.125,0.664 0.125,0.985 l -1.578,0 0,3.718 3.531,0 0,-2.906 z" /><path
         id="path318"
         style="fill:#000000;fill-opacity:1;fill-rule:nonzero;stroke:none"
         d="m 565.457,60.792 0,2.375 c 0.395,0.851 0.875,1.625 1.438,2.312 0.562,0.688 1.148,1.317 1.765,1.891 0.613,0.582 1.223,1.117 1.828,1.609 0.602,0.488 1.145,0.961 1.625,1.422 0.489,0.457 0.883,0.914 1.188,1.375 0.301,0.469 0.453,0.961 0.453,1.484 0,0.77 -0.195,1.336 -0.578,1.704 -0.375,0.363 -0.938,0.546 -1.688,0.546 -0.73,0 -1.289,-0.199 -1.672,-0.593 -0.386,-0.399 -0.636,-0.985 -0.75,-1.766 l -3.453,0.188 c 0.082,0.675 0.25,1.312 0.5,1.906 0.25,0.594 0.61,1.113 1.078,1.562 0.469,0.446 1.051,0.797 1.75,1.047 0.707,0.258 1.551,0.391 2.532,0.391 0.925,0 1.742,-0.11 2.453,-0.328 0.719,-0.211 1.32,-0.524 1.812,-0.938 0.489,-0.418 0.86,-0.93 1.11,-1.531 0.257,-0.594 0.39,-1.274 0.39,-2.031 0,-0.813 -0.164,-1.547 -0.484,-2.203 -0.313,-0.649 -0.719,-1.247 -1.219,-1.797 -0.5,-0.543 -1.055,-1.055 -1.656,-1.532 -0.606,-0.48 -1.195,-0.949 -1.766,-1.406 -0.562,-0.461 -1.078,-0.922 -1.547,-1.39 -0.468,-0.461 -0.82,-0.954 -1.046,-1.485 l 7.984,0 0,-2.812 -12.047,0 z" /><path
         id="path320"
         style="fill:#000000;fill-opacity:1;fill-rule:nonzero;stroke:none"
         d="m 591.363,65.557 c 0,-0.781 -0.133,-1.484 -0.39,-2.109 -0.25,-0.617 -0.637,-1.141 -1.157,-1.578 -0.511,-0.438 -1.148,-0.778 -1.906,-1.016 -0.762,-0.226 -1.648,-0.344 -2.656,-0.344 -1.117,0 -2.059,0.141 -2.828,0.422 -0.774,0.289 -1.406,0.672 -1.906,1.141 -0.493,0.469 -0.86,1 -1.11,1.594 -0.242,0.593 -0.398,1.191 -0.469,1.797 l 3.485,0.312 c 0.051,-0.367 0.144,-0.703 0.281,-1.016 0.133,-0.304 0.313,-0.562 0.531,-0.781 0.227,-0.219 0.508,-0.39 0.844,-0.515 0.332,-0.118 0.723,-0.172 1.172,-0.172 0.82,0 1.457,0.203 1.906,0.609 0.457,0.406 0.688,1.031 0.688,1.875 0,0.508 -0.11,0.914 -0.328,1.219 -0.211,0.312 -0.481,0.551 -0.813,0.719 -0.336,0.164 -0.695,0.273 -1.078,0.328 -0.375,0.062 -0.734,0.093 -1.078,0.093 l -1.188,0 0,2.782 1.11,0 c 0.343,0 0.691,0.031 1.047,0.093 0.351,0.063 0.671,0.176 0.953,0.344 0.289,0.176 0.523,0.414 0.703,0.719 0.176,0.312 0.265,0.703 0.265,1.172 0,0.707 -0.199,1.258 -0.593,1.656 -0.399,0.406 -0.969,0.609 -1.719,0.609 -0.711,0 -1.281,-0.199 -1.719,-0.593 -0.437,-0.387 -0.687,-0.938 -0.75,-1.657 l -3.437,0.25 c 0.101,0.801 0.328,1.5 0.672,2.094 0.343,0.594 0.773,1.082 1.296,1.469 0.532,0.394 1.133,0.687 1.813,0.875 0.687,0.195 1.414,0.297 2.187,0.297 1.008,0 1.875,-0.125 2.594,-0.375 0.727,-0.242 1.32,-0.571 1.781,-0.985 0.469,-0.406 0.813,-0.89 1.032,-1.453 0.218,-0.554 0.328,-1.14 0.328,-1.765 0,-0.5 -0.074,-0.969 -0.219,-1.407 -0.148,-0.437 -0.371,-0.828 -0.672,-1.171 -0.293,-0.344 -0.672,-0.641 -1.14,-0.891 -0.461,-0.25 -1.008,-0.438 -1.641,-0.563 l 0,-0.046 c 0.707,-0.086 1.32,-0.247 1.844,-0.485 0.519,-0.242 0.945,-0.539 1.281,-0.89 0.332,-0.356 0.578,-0.762 0.734,-1.219 0.164,-0.449 0.25,-0.93 0.25,-1.438 z" /><path
         id="path322"
         style="fill:#000000;fill-opacity:1;fill-rule:nonzero;stroke:none"
         d="m 499.922,19.577 0,17.203 3.609,0 0,-14.422 9.219,0 0,-2.781 -12.828,0 z" /><path
         id="path324"
         style="fill:#000000;fill-opacity:1;fill-rule:nonzero;stroke:none"
         d="m 514.402,29.858 0,2.719 12.547,0 0,-2.719 -12.547,0 z m 0,-6.734 0,2.703 12.547,0 0,-2.703 -12.547,0 z" /><path
         id="path326"
         style="fill:#000000;fill-opacity:1;fill-rule:nonzero;stroke:none"
         d="m 540.812,24.342 c 0,-0.781 -0.132,-1.484 -0.39,-2.109 -0.25,-0.617 -0.637,-1.141 -1.156,-1.578 -0.512,-0.438 -1.149,-0.777 -1.907,-1.016 -0.761,-0.226 -1.648,-0.343 -2.656,-0.343 -1.117,0 -2.058,0.14 -2.828,0.421 -0.773,0.29 -1.406,0.672 -1.906,1.141 -0.492,0.469 -0.86,1 -1.11,1.594 -0.242,0.594 -0.398,1.191 -0.468,1.797 l 3.484,0.312 c 0.051,-0.367 0.145,-0.703 0.281,-1.015 0.133,-0.305 0.313,-0.563 0.532,-0.782 0.226,-0.218 0.507,-0.39 0.843,-0.515 0.332,-0.117 0.723,-0.172 1.172,-0.172 0.82,0 1.457,0.203 1.906,0.609 0.457,0.406 0.688,1.031 0.688,1.875 0,0.508 -0.109,0.914 -0.328,1.219 -0.211,0.312 -0.481,0.551 -0.813,0.719 -0.336,0.164 -0.695,0.273 -1.078,0.328 -0.375,0.062 -0.734,0.094 -1.078,0.094 l -1.188,0 0,2.781 1.11,0 c 0.344,0 0.691,0.031 1.047,0.094 0.351,0.062 0.672,0.175 0.953,0.343 0.289,0.176 0.523,0.414 0.703,0.719 0.176,0.313 0.266,0.703 0.266,1.172 0,0.707 -0.2,1.258 -0.594,1.656 -0.399,0.406 -0.969,0.61 -1.719,0.61 -0.711,0 -1.281,-0.2 -1.719,-0.594 -0.437,-0.387 -0.687,-0.938 -0.75,-1.656 l -3.437,0.25 c 0.101,0.8 0.328,1.5 0.672,2.093 0.344,0.594 0.773,1.082 1.297,1.469 0.531,0.395 1.132,0.688 1.812,0.875 0.688,0.195 1.414,0.297 2.188,0.297 1.007,0 1.875,-0.125 2.593,-0.375 0.727,-0.242 1.321,-0.57 1.782,-0.984 0.468,-0.407 0.812,-0.891 1.031,-1.454 0.219,-0.554 0.328,-1.14 0.328,-1.765 0,-0.5 -0.074,-0.969 -0.219,-1.406 -0.148,-0.438 -0.371,-0.829 -0.672,-1.172 -0.293,-0.344 -0.672,-0.641 -1.14,-0.891 -0.461,-0.25 -1.008,-0.437 -1.641,-0.562 l 0,-0.047 c 0.707,-0.086 1.32,-0.246 1.844,-0.485 0.519,-0.242 0.945,-0.539 1.281,-0.89 0.332,-0.356 0.578,-0.762 0.734,-1.219 0.165,-0.449 0.25,-0.93 0.25,-1.438 z" /><path
         id="path328"
         style="fill:#000000;fill-opacity:1;fill-rule:nonzero;stroke:none"
         d="m 546.859,20.389 c 0,-0.554 -0.031,-1.05 -0.093,-1.5 -0.063,-0.445 -0.153,-0.859 -0.266,-1.234 -0.117,-0.375 -0.258,-0.719 -0.422,-1.031 -0.156,-0.321 -0.34,-0.629 -0.547,-0.922 l -2.25,0 c 0.227,0.293 0.442,0.601 0.641,0.922 0.195,0.312 0.367,0.636 0.516,0.968 0.144,0.336 0.257,0.668 0.343,1 0.082,0.336 0.125,0.665 0.125,0.985 l -1.578,0 0,3.719 3.531,0 0,-2.907 z" /><path
         id="path330"
         style="fill:#000000;fill-opacity:1;fill-rule:nonzero;stroke:none"
         d="m 559.902,23.077 0,-3.5 -3.265,0 0,3.5 -7.828,0 0,2.578 7.265,11.125 3.828,0 0,-11.141 2.297,0 0,-2.562 -2.297,0 z m -3.265,8.187 c 0,0.133 0,0.313 0,0.532 0.008,0.226 0.019,0.457 0.031,0.687 0.008,0.238 0.02,0.469 0.031,0.688 0.008,0.218 0.024,0.382 0.047,0.5 -0.043,-0.086 -0.109,-0.211 -0.203,-0.375 -0.086,-0.168 -0.184,-0.352 -0.297,-0.547 -0.105,-0.188 -0.219,-0.375 -0.344,-0.563 -0.117,-0.187 -0.214,-0.351 -0.297,-0.484 l -4,-6.063 5.032,0 0,5.625 z" /><path
         id="path332"
         style="fill:#000000;fill-opacity:1;fill-rule:nonzero;stroke:none"
         d="m 563.059,19.577 0,2.375 c 0.394,0.851 0.875,1.625 1.437,2.312 0.563,0.688 1.149,1.317 1.766,1.891 0.613,0.582 1.222,1.117 1.828,1.609 0.601,0.489 1.144,0.961 1.625,1.422 0.488,0.457 0.883,0.914 1.187,1.375 0.301,0.469 0.453,0.961 0.453,1.485 0,0.769 -0.195,1.336 -0.578,1.703 -0.375,0.363 -0.937,0.547 -1.687,0.547 -0.731,0 -1.289,-0.2 -1.672,-0.594 -0.387,-0.399 -0.637,-0.985 -0.75,-1.766 l -3.453,0.188 c 0.082,0.675 0.25,1.312 0.5,1.906 0.25,0.594 0.609,1.113 1.078,1.562 0.469,0.446 1.051,0.797 1.75,1.047 0.707,0.258 1.551,0.391 2.531,0.391 0.926,0 1.742,-0.109 2.453,-0.328 0.719,-0.211 1.321,-0.524 1.813,-0.938 0.488,-0.418 0.859,-0.929 1.109,-1.531 0.258,-0.594 0.391,-1.273 0.391,-2.031 0,-0.813 -0.164,-1.547 -0.485,-2.203 -0.312,-0.649 -0.718,-1.246 -1.218,-1.797 -0.5,-0.543 -1.055,-1.055 -1.657,-1.531 -0.605,-0.481 -1.195,-0.95 -1.765,-1.407 -0.563,-0.461 -1.078,-0.922 -1.547,-1.39 -0.469,-0.461 -0.82,-0.953 -1.047,-1.485 l 7.984,0 0,-2.812 -12.046,0 z" /><path
         id="path334"
         style="fill:#000000;fill-opacity:1;fill-rule:nonzero;stroke:none"
         d="m 586.262,19.577 0,7.406 c 0,0.508 -0.043,0.977 -0.125,1.406 -0.075,0.426 -0.203,0.789 -0.391,1.094 -0.187,0.313 -0.434,0.551 -0.734,0.719 -0.305,0.176 -0.668,0.265 -1.094,0.265 -0.418,0 -0.797,-0.093 -1.141,-0.281 -0.336,-0.179 -0.625,-0.437 -0.875,-0.781 -0.242,-0.336 -0.429,-0.734 -0.562,-1.203 -0.137,-0.469 -0.203,-0.985 -0.203,-1.547 l 0,-7.078 -3.422,0 0,10.25 c 0,0.289 -0.008,0.582 -0.016,0.875 0,0.301 -0.008,0.586 -0.015,0.859 -0.012,0.281 -0.024,0.524 -0.032,0.735 -0.011,0.218 -0.027,0.378 -0.047,0.484 l 3.282,0 c 0.008,-0.094 0.023,-0.25 0.047,-0.469 0.019,-0.211 0.035,-0.445 0.046,-0.703 0.02,-0.262 0.036,-0.523 0.047,-0.781 0.008,-0.262 0.016,-0.485 0.016,-0.672 l 0.047,0 c 0.469,1.008 1.051,1.742 1.75,2.203 0.695,0.457 1.531,0.688 2.5,0.688 0.801,0 1.472,-0.133 2.015,-0.391 0.551,-0.262 1,-0.621 1.344,-1.078 0.344,-0.461 0.594,-1 0.75,-1.625 0.156,-0.617 0.235,-1.278 0.235,-1.985 l 0,-8.39 -3.422,0 z" /><path
         id="path336"
         style="fill:#000000;fill-opacity:1;fill-rule:nonzero;stroke:none"
         d="m 603.848,19.577 0,7.375 -7.485,0 0,-7.375 -3.609,0 0,17.203 3.609,0 0,-6.844 7.485,0 0,6.844 3.609,0 0,-17.203 -3.609,0 z" /><path
         id="path338"
         style="fill:#000000;fill-opacity:1;fill-rule:nonzero;stroke:none"
         d="m 29.129,290.573 4.121,0 0,-4.121 -4.121,0 0,4.121 z" /><g
         transform="matrix(0,1,1,0,0,370.944)"
         id="g340"><path
           id="path342"
           style="fill:#ffffff;fill-opacity:1;fill-rule:nonzero;stroke:#000000;stroke-width:4.12160015;stroke-linecap:butt;stroke-linejoin:miter;stroke-miterlimit:4;stroke-dasharray:none;stroke-opacity:1"
           d="m -73.91,10.582 c 0,4.707 -3.817,8.523 -8.524,8.523 -4.703,0 -8.519,-3.816 -8.519,-8.523 0,-4.707 3.816,-8.52 8.519,-8.52 4.707,0 8.524,3.813 8.524,8.52 z" /></g><g
         transform="matrix(0,1,1,0,0,370.944)"
         id="g344"><path
           id="path346"
           style="fill:none;stroke:#000000;stroke-width:4.12160015;stroke-linecap:square;stroke-linejoin:miter;stroke-miterlimit:10;stroke-dasharray:none;stroke-opacity:1"
           d="m -82.434,20.887 0,8.242" /></g><path
         id="path348"
         style="fill:#000000;fill-opacity:1;fill-rule:nonzero;stroke:none"
         d="m 771.016,290.573 4.125,0 0,-4.121 -4.125,0 0,4.121 z" /><g
         transform="matrix(0,-1,-1,0,0,370.944)"
         id="g350"><path
           id="path352"
           style="fill:#ffffff;fill-opacity:1;fill-rule:nonzero;stroke:#000000;stroke-width:4.12160015;stroke-linecap:butt;stroke-linejoin:miter;stroke-miterlimit:4;stroke-dasharray:none;stroke-opacity:1"
           d="m 90.953,-793.688 c 0,4.708 -3.816,8.524 -8.519,8.524 -4.707,0 -8.524,-3.816 -8.524,-8.524 0,-4.703 3.817,-8.519 8.524,-8.519 4.703,0 8.519,3.816 8.519,8.519 z" /></g><g
         transform="matrix(0,-1,-1,0,0,370.944)"
         id="g354"><path
           id="path356"
           style="fill:none;stroke:#000000;stroke-width:4.12160015;stroke-linecap:square;stroke-linejoin:miter;stroke-miterlimit:10;stroke-dasharray:none;stroke-opacity:1"
           d="m 82.434,-783.383 0,8.242" /></g><path
         id="path358"
         style="fill:#000000;fill-opacity:1;fill-rule:nonzero;stroke:none"
         d="m 29.129,105.1 4.121,0 0,-4.121 -4.121,0 0,4.121 z" /><g
         transform="matrix(0,1,1,0,0,370.944)"
         id="g360"><path
           id="path362"
           style="fill:#ffffff;fill-opacity:1;fill-rule:nonzero;stroke:#000000;stroke-width:4.12160015;stroke-linecap:butt;stroke-linejoin:miter;stroke-miterlimit:4;stroke-dasharray:none;stroke-opacity:1"
           d="m -259.383,10.582 c 0,4.707 -3.816,8.523 -8.519,8.523 -4.707,0 -8.524,-3.816 -8.524,-8.523 0,-4.707 3.817,-8.52 8.524,-8.52 4.703,0 8.519,3.813 8.519,8.52 z" /></g><g
         transform="matrix(0,1,1,0,0,370.944)"
         id="g364"><path
           id="path366"
           style="fill:none;stroke:#000000;stroke-width:4.12160015;stroke-linecap:square;stroke-linejoin:miter;stroke-miterlimit:10;stroke-dasharray:none;stroke-opacity:1"
           d="m -267.902,20.887 0,8.242" /></g><path
         id="path368"
         style="fill:#000000;fill-opacity:1;fill-rule:nonzero;stroke:none"
         d="m 771.016,105.1 4.125,0 0,-4.121 -4.125,0 0,4.121 z" /><g
         transform="matrix(0,-1,-1,0,0,370.944)"
         id="g370"><path
           id="path372"
           style="fill:#ffffff;fill-opacity:1;fill-rule:nonzero;stroke:#000000;stroke-width:4.12160015;stroke-linecap:butt;stroke-linejoin:miter;stroke-miterlimit:4;stroke-dasharray:none;stroke-opacity:1"
           d="m 276.426,-793.688 c 0,4.708 -3.817,8.524 -8.524,8.524 -4.703,0 -8.519,-3.816 -8.519,-8.524 0,-4.703 3.816,-8.519 8.519,-8.519 4.707,0 8.524,3.816 8.524,8.519 z" /></g><g
         transform="matrix(0,-1,-1,0,0,370.944)"
         id="g374"><path
           id="path376"
           style="fill:none;stroke:#000000;stroke-width:4.12160015;stroke-linecap:square;stroke-linejoin:miter;stroke-miterlimit:10;stroke-dasharray:none;stroke-opacity:1"
           d="m 267.902,-783.383 0,8.242" /></g><g
         transform="matrix(1,0,0,-1,0,370.944)"
         id="g378"><path
           id="path380"
           style="fill:none;stroke:#000000;stroke-width:4.12160015;stroke-linecap:butt;stroke-linejoin:miter;stroke-miterlimit:10;stroke-dasharray:none;stroke-opacity:1"
           d="m 31.191,267.902 741.887,0" /></g><g
         transform="matrix(1,0,0,-1,0,370.944)"
         id="g382"><path
           id="path384"
           style="fill:none;stroke:#000000;stroke-width:4.12160015;stroke-linecap:butt;stroke-linejoin:miter;stroke-miterlimit:10;stroke-dasharray:none;stroke-opacity:1"
           d="m 31.191,82.434 164.864,0" /></g><g
         transform="matrix(1,0,0,-1,0,370.944)"
         id="g386"><path
           id="path388"
           style="fill:none;stroke:#000000;stroke-width:4.12160015;stroke-linecap:butt;stroke-linejoin:miter;stroke-miterlimit:10;stroke-dasharray:none;stroke-opacity:1"
           d="m 319.703,82.434 164.863,0" /></g><g
         transform="matrix(1,0,0,-1,0,370.944)"
         id="g390"><path
           id="path392"
           style="fill:none;stroke:#000000;stroke-width:4.12160015;stroke-linecap:butt;stroke-linejoin:miter;stroke-miterlimit:10;stroke-dasharray:none;stroke-opacity:1"
           d="m 608.215,82.434 164.863,0" /></g><g
         transform="matrix(1,0,0,-1,0,370.944)"
         id="g394"><path
           id="path396"
           style="fill:none;stroke:#000000;stroke-width:4.12160015;stroke-linecap:butt;stroke-linejoin:miter;stroke-miterlimit:10;stroke-dasharray:none;stroke-opacity:1"
           d="m 690.645,226.688 0,41.214 0,-4.121" /></g><g
         transform="matrix(1,0,0,-1,0,370.944)"
         id="g398"><path
           id="path400"
           style="fill:#000000;fill-opacity:1;fill-rule:nonzero;stroke:#000000;stroke-width:4.12160015;stroke-linecap:butt;stroke-linejoin:miter;stroke-miterlimit:4;stroke-dasharray:none;stroke-opacity:1"
           d="m 694.77,267.902 c 0,2.278 -1.848,4.125 -4.125,4.125 -2.274,0 -4.122,-1.847 -4.122,-4.125 0,-2.273 1.848,-4.121 4.122,-4.121 2.277,0 4.125,1.848 4.125,4.121 z" /></g><g
         transform="matrix(1,0,0,-1,0,370.944)"
         id="g402"><path
           id="path404"
           style="fill:none;stroke:#000000;stroke-width:4.12160015;stroke-linecap:butt;stroke-linejoin:miter;stroke-miterlimit:10;stroke-dasharray:none;stroke-opacity:1"
           d="m 402.133,226.688 0,37.093" /></g><g
         transform="matrix(1,0,0,-1,0,370.944)"
         id="g406"><path
           id="path408"
           style="fill:#000000;fill-opacity:1;fill-rule:nonzero;stroke:#000000;stroke-width:4.12160015;stroke-linecap:butt;stroke-linejoin:miter;stroke-miterlimit:4;stroke-dasharray:none;stroke-opacity:1"
           d="m 406.254,267.902 c 0,2.278 -1.844,4.125 -4.121,4.125 -2.274,0 -4.121,-1.847 -4.121,-4.125 0,-2.273 1.847,-4.121 4.121,-4.121 2.277,0 4.121,1.848 4.121,4.121 z" /></g><g
         transform="matrix(1,0,0,-1,0,370.944)"
         id="g410"><path
           id="path412"
           style="fill:none;stroke:#000000;stroke-width:4.12160015;stroke-linecap:butt;stroke-linejoin:miter;stroke-miterlimit:10;stroke-dasharray:none;stroke-opacity:1"
           d="m 402.133,123.648 0,-37.093" /></g><g
         transform="matrix(1,0,0,-1,0,370.944)"
         id="g414"><path
           id="path416"
           style="fill:#000000;fill-opacity:1;fill-rule:nonzero;stroke:#000000;stroke-width:4.12160015;stroke-linecap:butt;stroke-linejoin:miter;stroke-miterlimit:4;stroke-dasharray:none;stroke-opacity:1"
           d="m 406.254,82.434 c 0,2.273 -1.844,4.121 -4.121,4.121 -2.274,0 -4.121,-1.848 -4.121,-4.121 0,-2.278 1.847,-4.125 4.121,-4.125 2.277,0 4.121,1.847 4.121,4.125 z" /></g><g
         transform="matrix(1,0,0,-1,0,370.944)"
         id="g418"><path
           id="path420"
           style="fill:none;stroke:#000000;stroke-width:4.12160015;stroke-linecap:butt;stroke-linejoin:miter;stroke-miterlimit:10;stroke-dasharray:none;stroke-opacity:1"
           d="m 690.645,123.648 0,-41.214 0,4.121" /></g><g
         transform="matrix(1,0,0,-1,0,370.944)"
         id="g422"><path
           id="path424"
           style="fill:#000000;fill-opacity:1;fill-rule:nonzero;stroke:#000000;stroke-width:4.12160015;stroke-linecap:butt;stroke-linejoin:miter;stroke-miterlimit:4;stroke-dasharray:none;stroke-opacity:1"
           d="m 694.77,82.434 c 0,2.273 -1.848,4.121 -4.125,4.121 -2.274,0 -4.122,-1.848 -4.122,-4.121 0,-2.278 1.848,-4.125 4.122,-4.125 2.277,0 4.125,1.847 4.125,4.125 z" /></g><g
         transform="matrix(1,0,0,-1,0,370.944)"
         id="g426"><path
           id="path428"
           style="fill:none;stroke:#000000;stroke-width:4.12160015;stroke-linecap:butt;stroke-linejoin:miter;stroke-miterlimit:10;stroke-dasharray:none;stroke-opacity:1"
           d="m 113.621,123.648 0,-37.093" /></g><g
         transform="matrix(1,0,0,-1,0,370.944)"
         id="g430"><path
           id="path432"
           style="fill:#000000;fill-opacity:1;fill-rule:nonzero;stroke:#000000;stroke-width:4.12160015;stroke-linecap:butt;stroke-linejoin:miter;stroke-miterlimit:4;stroke-dasharray:none;stroke-opacity:1"
           d="m 117.742,82.434 c 0,2.273 -1.844,4.121 -4.121,4.121 -2.273,0 -4.121,-1.848 -4.121,-4.121 0,-2.278 1.848,-4.125 4.121,-4.125 2.277,0 4.121,1.847 4.121,4.125 z" /></g><g
         transform="matrix(1,0,0,-1,0,370.944)"
         id="g434"><path
           id="path436"
           style="fill:none;stroke:#000000;stroke-width:4.12160015;stroke-linecap:butt;stroke-linejoin:miter;stroke-miterlimit:10;stroke-dasharray:none;stroke-opacity:1"
           d="m 113.621,226.688 0,37.093" /></g><g
         transform="matrix(1,0,0,-1,0,370.944)"
         id="g438"><path
           id="path440"
           style="fill:#000000;fill-opacity:1;fill-rule:nonzero;stroke:#000000;stroke-width:4.12160015;stroke-linecap:butt;stroke-linejoin:miter;stroke-miterlimit:4;stroke-dasharray:none;stroke-opacity:1"
           d="m 117.742,267.902 c 0,2.278 -1.844,4.125 -4.121,4.125 -2.273,0 -4.121,-1.847 -4.121,-4.125 0,-2.273 1.848,-4.121 4.121,-4.121 2.277,0 4.121,1.848 4.121,4.121 z" /></g><g
         transform="matrix(1,0,0,-1,0,370.944)"
         id="g442"><path
           id="path444"
           style="fill:none;stroke:#bf00bf;stroke-width:4.12160015;stroke-linecap:butt;stroke-linejoin:miter;stroke-miterlimit:10;stroke-dasharray:4.1216, 4.1216;stroke-dashoffset:0;stroke-opacity:1"
           d="m 175.445,0 0,370.945" /></g><g
         transform="matrix(1,0,0,-1,0,370.944)"
         id="g446"><path
           id="path448"
           style="fill:none;stroke:#bf00bf;stroke-width:4.12160015;stroke-linecap:butt;stroke-linejoin:miter;stroke-miterlimit:10;stroke-dasharray:4.1216, 4.1216;stroke-dashoffset:0;stroke-opacity:1"
           d="m 340.309,0 0,370.945" /></g><g
         transform="matrix(1,0,0,-1,0,370.944)"
         id="g450"><path
           id="path452"
           style="fill:none;stroke:#bf00bf;stroke-width:4.12160015;stroke-linecap:butt;stroke-linejoin:miter;stroke-miterlimit:10;stroke-dasharray:4.1216, 4.1216;stroke-dashoffset:0;stroke-opacity:1"
           d="m 463.957,0 0,370.945" /></g><g
         transform="matrix(1,0,0,-1,0,370.944)"
         id="g454"><path
           id="path456"
           style="fill:none;stroke:#bf00bf;stroke-width:4.12160015;stroke-linecap:butt;stroke-linejoin:miter;stroke-miterlimit:10;stroke-dasharray:4.1216, 4.1216;stroke-dashoffset:0;stroke-opacity:1"
           d="m 628.82,0 0,370.945" /></g></g></g></svg>