<?xml version="1.0" encoding="UTF-8" standalone="no"?>
<svg
   xmlns:dc="http://purl.org/dc/elements/1.1/"
   xmlns:cc="http://creativecommons.org/ns#"
   xmlns:rdf="http://www.w3.org/1999/02/22-rdf-syntax-ns#"
   xmlns:svg="http://www.w3.org/2000/svg"
   xmlns="http://www.w3.org/2000/svg"
   viewBox="0 0 1005.3355 463.67999"
   height="463.67999"
   width="1005.3355"
   xml:space="preserve"
   version="1.1"
   id="svg2"><metadata
     id="metadata8"><rdf:RDF><cc:Work
         rdf:about=""><dc:format>image/svg+xml</dc:format><dc:type
           rdf:resource="http://purl.org/dc/dcmitype/StillImage" /></cc:Work></rdf:RDF></metadata><defs
     id="defs6" /><g
     transform="matrix(1.25,0,0,-1.25,0,463.68)"
     id="g10"><g
       id="g12"><path
         id="path14"
         style="fill:#000000;fill-opacity:1;fill-rule:nonzero;stroke:none"
         d="m 111.562,249.358 4.121,0 0,-4.121 -4.121,0 0,4.121 z" /><path
         id="path16"
         style="fill:#000000;fill-opacity:1;fill-rule:nonzero;stroke:none"
         d="m 111.562,146.315 4.121,0 0,-4.121 -4.121,0 0,4.121 z" /><g
         transform="matrix(1,0,0,-1,0,370.944)"
         id="g18"><path
           id="path20"
           style="fill:none;stroke:#000000;stroke-width:4.12160015;stroke-linecap:round;stroke-linejoin:miter;stroke-miterlimit:10;stroke-dasharray:none;stroke-opacity:1"
           d="m 90.953,166.926 45.336,0" /></g><g
         transform="matrix(1,0,0,-1,0,370.944)"
         id="g22"><path
           id="path24"
           style="fill:none;stroke:#000000;stroke-width:4.12160015;stroke-linecap:round;stroke-linejoin:miter;stroke-miterlimit:10;stroke-dasharray:none;stroke-opacity:1"
           d="m 90.953,183.41 45.336,0" /></g><g
         transform="matrix(1,0,0,-1,0,370.944)"
         id="g26"><path
           id="path28"
           style="fill:none;stroke:#000000;stroke-width:4.12160015;stroke-linecap:square;stroke-linejoin:miter;stroke-miterlimit:10;stroke-dasharray:none;stroke-opacity:1"
           d="m 113.621,125.707 0,39.156" /></g><g
         transform="matrix(1,0,0,-1,0,370.944)"
         id="g30"><path
           id="path32"
           style="fill:none;stroke:#000000;stroke-width:4.12160015;stroke-linecap:square;stroke-linejoin:miter;stroke-miterlimit:10;stroke-dasharray:none;stroke-opacity:1"
           d="m 113.621,185.473 0,39.156" /></g><path
         id="path34"
         style="fill:#000000;fill-opacity:1;fill-rule:nonzero;stroke:none"
         d="m 98.219,55.495 c -0.875,0 -1.649,0.09 -2.313,0.265 -0.656,0.18 -1.218,0.422 -1.687,0.735 -0.469,0.312 -0.844,0.687 -1.125,1.125 -0.282,0.429 -0.477,0.902 -0.578,1.422 l 3.422,0.406 c 0.124,-0.531 0.382,-0.945 0.781,-1.25 0.406,-0.301 0.937,-0.453 1.593,-0.453 0.407,0 0.774,0.058 1.11,0.172 0.344,0.117 0.633,0.312 0.875,0.593 0.238,0.274 0.426,0.633 0.562,1.079 0.133,0.449 0.203,1 0.203,1.656 0,0.226 0,0.457 0,0.687 0,0.239 0,0.457 0,0.657 0.008,0.226 0.016,0.445 0.016,0.656 l -0.016,0 c -0.406,-0.856 -0.968,-1.477 -1.687,-1.86 -0.719,-0.375 -1.574,-0.562 -2.563,-0.562 -0.843,0 -1.57,0.16 -2.171,0.484 -0.606,0.332 -1.11,0.789 -1.516,1.375 -0.398,0.594 -0.687,1.297 -0.875,2.11 -0.188,0.82 -0.281,1.726 -0.281,2.718 0,1.008 0.097,1.926 0.297,2.75 0.207,0.832 0.519,1.547 0.937,2.141 0.414,0.594 0.942,1.051 1.578,1.375 0.645,0.32 1.407,0.484 2.281,0.484 0.883,0 1.672,-0.187 2.36,-0.562 0.695,-0.375 1.242,-0.984 1.64,-1.828 l 0.063,0 c 0,0.176 0.004,0.375 0.016,0.594 0.007,0.226 0.019,0.445 0.031,0.656 0.019,0.207 0.039,0.39 0.062,0.547 0.02,0.164 0.039,0.273 0.063,0.328 l 3.234,0 c -0.011,-0.293 -0.027,-0.703 -0.047,-1.235 -0.011,-0.523 -0.015,-1.125 -0.015,-1.812 l 0,-9.75 c 0,-0.957 -0.141,-1.789 -0.422,-2.5 -0.274,-0.719 -0.68,-1.313 -1.219,-1.781 -0.531,-0.477 -1.187,-0.832 -1.969,-1.063 -0.773,-0.238 -1.652,-0.359 -2.64,-0.359 z m 2.859,12.078 c 0,0.832 -0.086,1.523 -0.25,2.078 -0.156,0.551 -0.367,0.992 -0.625,1.328 -0.262,0.332 -0.562,0.567 -0.906,0.703 -0.336,0.145 -0.672,0.219 -1.016,0.219 -0.437,0 -0.828,-0.09 -1.172,-0.266 -0.336,-0.168 -0.621,-0.433 -0.859,-0.796 -0.23,-0.356 -0.406,-0.809 -0.531,-1.36 -0.117,-0.555 -0.172,-1.211 -0.172,-1.969 0,-1.429 0.223,-2.507 0.672,-3.234 0.457,-0.719 1.14,-1.078 2.047,-1.078 0.343,0 0.679,0.066 1.015,0.203 0.332,0.133 0.633,0.367 0.907,0.703 0.269,0.344 0.484,0.789 0.64,1.344 0.164,0.562 0.25,1.269 0.25,2.125 z" /><path
         id="path36"
         style="fill:#000000;fill-opacity:1;fill-rule:nonzero;stroke:none"
         d="m 107.633,60.792 0,2.547 4.25,0 0,11.734 -4.125,-2.578 0,2.703 4.312,2.797 3.25,0 0,-14.656 3.938,0 0,-2.547 -11.625,0 z" /><path
         id="path38"
         style="fill:#000000;fill-opacity:1;fill-rule:nonzero;stroke:none"
         d="m 400.074,249.358 4.121,0 0,-4.121 -4.121,0 0,4.121 z" /><path
         id="path40"
         style="fill:#000000;fill-opacity:1;fill-rule:nonzero;stroke:none"
         d="m 400.074,146.315 4.121,0 0,-4.121 -4.121,0 0,4.121 z" /><g
         transform="matrix(1,0,0,-1,0,370.944)"
         id="g42"><path
           id="path44"
           style="fill:none;stroke:#000000;stroke-width:4.12160015;stroke-linecap:round;stroke-linejoin:miter;stroke-miterlimit:10;stroke-dasharray:none;stroke-opacity:1"
           d="m 379.465,166.926 45.34,0" /></g><g
         transform="matrix(1,0,0,-1,0,370.944)"
         id="g46"><path
           id="path48"
           style="fill:none;stroke:#000000;stroke-width:4.12160015;stroke-linecap:round;stroke-linejoin:miter;stroke-miterlimit:10;stroke-dasharray:none;stroke-opacity:1"
           d="m 379.465,183.41 45.34,0" /></g><g
         transform="matrix(1,0,0,-1,0,370.944)"
         id="g50"><path
           id="path52"
           style="fill:none;stroke:#000000;stroke-width:4.12160015;stroke-linecap:square;stroke-linejoin:miter;stroke-miterlimit:10;stroke-dasharray:none;stroke-opacity:1"
           d="m 402.133,125.707 0,39.156" /></g><g
         transform="matrix(1,0,0,-1,0,370.944)"
         id="g54"><path
           id="path56"
           style="fill:none;stroke:#000000;stroke-width:4.12160015;stroke-linecap:square;stroke-linejoin:miter;stroke-miterlimit:10;stroke-dasharray:none;stroke-opacity:1"
           d="m 402.133,185.473 0,39.156" /></g><path
         id="path58"
         style="fill:#000000;fill-opacity:1;fill-rule:nonzero;stroke:none"
         d="m 386.73,55.495 c -0.875,0 -1.648,0.09 -2.312,0.265 -0.656,0.18 -1.219,0.422 -1.688,0.735 -0.468,0.312 -0.843,0.687 -1.125,1.125 -0.281,0.429 -0.476,0.902 -0.578,1.422 l 3.422,0.406 c 0.125,-0.531 0.383,-0.945 0.781,-1.25 0.407,-0.301 0.938,-0.453 1.594,-0.453 0.406,0 0.774,0.058 1.11,0.172 0.343,0.117 0.632,0.312 0.875,0.593 0.238,0.274 0.425,0.633 0.562,1.079 0.133,0.449 0.203,1 0.203,1.656 0,0.226 0,0.457 0,0.687 0,0.239 0,0.457 0,0.657 0.008,0.226 0.016,0.445 0.016,0.656 l -0.016,0 c -0.406,-0.856 -0.969,-1.477 -1.687,-1.86 -0.719,-0.375 -1.575,-0.562 -2.563,-0.562 -0.844,0 -1.57,0.16 -2.172,0.484 -0.605,0.332 -1.109,0.789 -1.515,1.375 -0.399,0.594 -0.688,1.297 -0.875,2.11 -0.188,0.82 -0.282,1.726 -0.282,2.718 0,1.008 0.098,1.926 0.297,2.75 0.207,0.832 0.52,1.547 0.938,2.141 0.414,0.594 0.941,1.051 1.578,1.375 0.645,0.32 1.406,0.484 2.281,0.484 0.883,0 1.672,-0.187 2.36,-0.562 0.695,-0.375 1.242,-0.984 1.64,-1.828 l 0.063,0 c 0,0.176 0.004,0.375 0.015,0.594 0.008,0.226 0.02,0.445 0.032,0.656 0.019,0.207 0.039,0.39 0.062,0.547 0.02,0.164 0.039,0.273 0.063,0.328 l 3.234,0 c -0.012,-0.293 -0.027,-0.703 -0.047,-1.235 -0.012,-0.523 -0.016,-1.125 -0.016,-1.812 l 0,-9.75 c 0,-0.957 -0.14,-1.789 -0.421,-2.5 -0.274,-0.719 -0.68,-1.313 -1.219,-1.781 -0.531,-0.477 -1.188,-0.832 -1.969,-1.063 -0.773,-0.238 -1.652,-0.359 -2.641,-0.359 z m 2.86,12.078 c 0,0.832 -0.086,1.523 -0.25,2.078 -0.156,0.551 -0.367,0.992 -0.625,1.328 -0.262,0.332 -0.563,0.567 -0.906,0.703 -0.336,0.145 -0.672,0.219 -1.016,0.219 -0.438,0 -0.828,-0.09 -1.172,-0.266 -0.336,-0.168 -0.621,-0.433 -0.859,-0.796 -0.231,-0.356 -0.407,-0.809 -0.532,-1.36 -0.117,-0.555 -0.171,-1.211 -0.171,-1.969 0,-1.429 0.222,-2.507 0.671,-3.234 0.458,-0.719 1.141,-1.078 2.047,-1.078 0.344,0 0.68,0.066 1.016,0.203 0.332,0.133 0.633,0.367 0.906,0.703 0.27,0.344 0.485,0.789 0.641,1.344 0.164,0.562 0.25,1.269 0.25,2.125 z" /><path
         id="path60"
         style="fill:#000000;fill-opacity:1;fill-rule:nonzero;stroke:none"
         d="m 407.566,65.557 c 0,-0.781 -0.132,-1.484 -0.39,-2.109 -0.25,-0.617 -0.637,-1.141 -1.156,-1.578 -0.512,-0.438 -1.149,-0.778 -1.907,-1.016 -0.761,-0.226 -1.648,-0.344 -2.656,-0.344 -1.117,0 -2.059,0.141 -2.828,0.422 -0.774,0.289 -1.406,0.672 -1.906,1.141 -0.493,0.469 -0.86,1 -1.11,1.594 -0.242,0.593 -0.398,1.191 -0.468,1.797 l 3.484,0.312 c 0.051,-0.367 0.144,-0.703 0.281,-1.016 0.133,-0.304 0.313,-0.562 0.531,-0.781 0.227,-0.219 0.508,-0.39 0.844,-0.515 0.332,-0.118 0.723,-0.172 1.172,-0.172 0.82,0 1.457,0.203 1.906,0.609 0.457,0.406 0.688,1.031 0.688,1.875 0,0.508 -0.11,0.914 -0.328,1.219 -0.211,0.312 -0.481,0.551 -0.813,0.719 -0.336,0.164 -0.695,0.273 -1.078,0.328 -0.375,0.062 -0.734,0.093 -1.078,0.093 l -1.188,0 0,2.782 1.11,0 c 0.344,0 0.691,0.031 1.047,0.093 0.351,0.063 0.672,0.176 0.953,0.344 0.289,0.176 0.523,0.414 0.703,0.719 0.176,0.312 0.266,0.703 0.266,1.172 0,0.707 -0.2,1.258 -0.594,1.656 -0.399,0.406 -0.969,0.609 -1.719,0.609 -0.711,0 -1.281,-0.199 -1.719,-0.593 -0.437,-0.387 -0.687,-0.938 -0.75,-1.657 l -3.437,0.25 c 0.101,0.801 0.328,1.5 0.672,2.094 0.343,0.594 0.773,1.082 1.297,1.469 0.531,0.394 1.132,0.687 1.812,0.875 0.688,0.195 1.414,0.297 2.188,0.297 1.007,0 1.875,-0.125 2.593,-0.375 0.727,-0.242 1.321,-0.571 1.782,-0.985 0.468,-0.406 0.812,-0.89 1.031,-1.453 0.219,-0.554 0.328,-1.14 0.328,-1.765 0,-0.5 -0.074,-0.969 -0.219,-1.407 -0.148,-0.437 -0.371,-0.828 -0.672,-1.171 -0.293,-0.344 -0.672,-0.641 -1.14,-0.891 -0.461,-0.25 -1.008,-0.438 -1.641,-0.563 l 0,-0.046 c 0.707,-0.086 1.32,-0.247 1.844,-0.485 0.519,-0.242 0.945,-0.539 1.281,-0.89 0.332,-0.356 0.578,-0.762 0.734,-1.219 0.164,-0.449 0.25,-0.93 0.25,-1.438 z" /><path
         id="path62"
         style="fill:#000000;fill-opacity:1;fill-rule:nonzero;stroke:none"
         d="m 317.641,290.573 4.121,0 0,-4.121 -4.121,0 0,4.121 z" /><path
         id="path64"
         style="fill:#000000;fill-opacity:1;fill-rule:nonzero;stroke:none"
         d="m 193.992,290.573 4.121,0 0,-4.121 -4.121,0 0,4.121 z" /><g
         transform="matrix(0,-1,-1,0,0,370.944)"
         id="g66"><path
           id="path68"
           style="fill:none;stroke:#000000;stroke-width:4.12160015;stroke-linecap:round;stroke-linejoin:round;stroke-miterlimit:10;stroke-dasharray:none;stroke-opacity:1"
           d="m 78.59,-278.484 c -6.242,0.011 -11.313,-4.586 -11.336,-10.278 -0.012,-5.687 5.027,-10.316 11.269,-10.332 l 0.032,0" /></g><g
         transform="matrix(0,-1,-1,0,0,370.944)"
         id="g70"><path
           id="path72"
           style="fill:none;stroke:#000000;stroke-width:4.12160015;stroke-linecap:round;stroke-linejoin:round;stroke-miterlimit:10;stroke-dasharray:none;stroke-opacity:1"
           d="m 78.309,-299.094 4.125,0" /></g><g
         transform="matrix(0,-1,-1,0,0,370.944)"
         id="g74"><path
           id="path76"
           style="fill:none;stroke:#000000;stroke-width:4.12160015;stroke-linecap:round;stroke-linejoin:round;stroke-miterlimit:10;stroke-dasharray:none;stroke-opacity:1"
           d="m 78.309,-278.484 4.125,0" /></g><g
         transform="matrix(0,-1,-1,0,0,370.944)"
         id="g78"><path
           id="path80"
           style="fill:none;stroke:#000000;stroke-width:4.12160015;stroke-linecap:round;stroke-linejoin:round;stroke-miterlimit:10;stroke-dasharray:none;stroke-opacity:1"
           d="m 78.59,-257.879 c -6.242,0.016 -11.313,-4.586 -11.336,-10.273 -0.012,-5.692 5.027,-10.321 11.269,-10.332 l 0.032,0" /></g><g
         transform="matrix(0,-1,-1,0,0,370.944)"
         id="g82"><path
           id="path84"
           style="fill:none;stroke:#000000;stroke-width:4.12160015;stroke-linecap:round;stroke-linejoin:round;stroke-miterlimit:10;stroke-dasharray:none;stroke-opacity:1"
           d="m 78.309,-278.484 4.125,0" /></g><g
         transform="matrix(0,-1,-1,0,0,370.944)"
         id="g86"><path
           id="path88"
           style="fill:none;stroke:#000000;stroke-width:4.12160015;stroke-linecap:round;stroke-linejoin:round;stroke-miterlimit:10;stroke-dasharray:none;stroke-opacity:1"
           d="m 78.309,-257.879 4.125,0" /></g><g
         transform="matrix(0,-1,-1,0,0,370.944)"
         id="g90"><path
           id="path92"
           style="fill:none;stroke:#000000;stroke-width:4.12160015;stroke-linecap:round;stroke-linejoin:round;stroke-miterlimit:10;stroke-dasharray:none;stroke-opacity:1"
           d="m 78.59,-237.27 c -6.242,0.016 -11.313,-4.585 -11.336,-10.273 -0.012,-5.691 5.027,-10.32 11.269,-10.336 l 0.032,0" /></g><g
         transform="matrix(0,-1,-1,0,0,370.944)"
         id="g94"><path
           id="path96"
           style="fill:none;stroke:#000000;stroke-width:4.12160015;stroke-linecap:round;stroke-linejoin:round;stroke-miterlimit:10;stroke-dasharray:none;stroke-opacity:1"
           d="m 78.309,-257.879 4.125,0" /></g><g
         transform="matrix(0,-1,-1,0,0,370.944)"
         id="g98"><path
           id="path100"
           style="fill:none;stroke:#000000;stroke-width:4.12160015;stroke-linecap:round;stroke-linejoin:round;stroke-miterlimit:10;stroke-dasharray:none;stroke-opacity:1"
           d="m 78.309,-237.27 4.125,0" /></g><g
         transform="matrix(0,-1,-1,0,0,370.944)"
         id="g102"><path
           id="path104"
           style="fill:none;stroke:#000000;stroke-width:4.12160015;stroke-linecap:round;stroke-linejoin:round;stroke-miterlimit:10;stroke-dasharray:none;stroke-opacity:1"
           d="m 78.59,-216.664 c -6.242,0.016 -11.313,-4.582 -11.336,-10.274 -0.012,-5.687 5.027,-10.316 11.269,-10.332 l 0.032,0" /></g><g
         transform="matrix(0,-1,-1,0,0,370.944)"
         id="g106"><path
           id="path108"
           style="fill:none;stroke:#000000;stroke-width:4.12160015;stroke-linecap:round;stroke-linejoin:round;stroke-miterlimit:10;stroke-dasharray:none;stroke-opacity:1"
           d="m 78.309,-237.27 4.125,0" /></g><g
         transform="matrix(0,-1,-1,0,0,370.944)"
         id="g110"><path
           id="path112"
           style="fill:none;stroke:#000000;stroke-width:4.12160015;stroke-linecap:round;stroke-linejoin:round;stroke-miterlimit:10;stroke-dasharray:none;stroke-opacity:1"
           d="m 78.309,-216.664 4.125,0" /></g><g
         transform="matrix(0,-1,-1,0,0,370.944)"
         id="g114"><path
           id="path116"
           style="fill:none;stroke:#000000;stroke-width:4.12160015;stroke-linecap:square;stroke-linejoin:miter;stroke-miterlimit:10;stroke-dasharray:none;stroke-opacity:1"
           d="m 82.434,-317.641 0,16.485" /></g><g
         transform="matrix(0,-1,-1,0,0,370.944)"
         id="g118"><path
           id="path120"
           style="fill:none;stroke:#000000;stroke-width:4.12160015;stroke-linecap:square;stroke-linejoin:miter;stroke-miterlimit:10;stroke-dasharray:none;stroke-opacity:1"
           d="m 82.434,-214.602 0,16.489" /></g><path
         id="path122"
         style="fill:#000000;fill-opacity:1;fill-rule:nonzero;stroke:none"
         d="m 242.473,55.495 c -0.875,0 -1.649,0.09 -2.313,0.265 -0.656,0.18 -1.219,0.422 -1.687,0.735 -0.469,0.312 -0.844,0.687 -1.125,1.125 -0.282,0.429 -0.477,0.902 -0.578,1.422 l 3.421,0.406 c 0.125,-0.531 0.383,-0.945 0.782,-1.25 0.406,-0.301 0.937,-0.453 1.593,-0.453 0.407,0 0.774,0.058 1.11,0.172 0.344,0.117 0.633,0.312 0.875,0.593 0.238,0.274 0.426,0.633 0.562,1.079 0.133,0.449 0.203,1 0.203,1.656 0,0.226 0,0.457 0,0.687 0,0.239 0,0.457 0,0.657 0.008,0.226 0.016,0.445 0.016,0.656 l -0.016,0 c -0.406,-0.856 -0.968,-1.477 -1.687,-1.86 -0.719,-0.375 -1.574,-0.562 -2.563,-0.562 -0.843,0 -1.57,0.16 -2.171,0.484 -0.606,0.332 -1.11,0.789 -1.516,1.375 -0.399,0.594 -0.688,1.297 -0.875,2.11 -0.188,0.82 -0.281,1.726 -0.281,2.718 0,1.008 0.097,1.926 0.297,2.75 0.207,0.832 0.519,1.547 0.937,2.141 0.414,0.594 0.941,1.051 1.578,1.375 0.645,0.32 1.406,0.484 2.281,0.484 0.883,0 1.672,-0.187 2.36,-0.562 0.695,-0.375 1.242,-0.984 1.64,-1.828 l 0.063,0 c 0,0.176 0.004,0.375 0.016,0.594 0.007,0.226 0.019,0.445 0.031,0.656 0.019,0.207 0.039,0.39 0.062,0.547 0.02,0.164 0.039,0.273 0.063,0.328 l 3.234,0 c -0.012,-0.293 -0.027,-0.703 -0.047,-1.235 -0.011,-0.523 -0.015,-1.125 -0.015,-1.812 l 0,-9.75 c 0,-0.957 -0.141,-1.789 -0.422,-2.5 -0.274,-0.719 -0.68,-1.313 -1.219,-1.781 -0.531,-0.477 -1.187,-0.832 -1.969,-1.063 -0.773,-0.238 -1.652,-0.359 -2.64,-0.359 z m 2.859,12.078 c 0,0.832 -0.086,1.523 -0.25,2.078 -0.156,0.551 -0.367,0.992 -0.625,1.328 -0.262,0.332 -0.562,0.567 -0.906,0.703 -0.336,0.145 -0.672,0.219 -1.016,0.219 -0.437,0 -0.828,-0.09 -1.172,-0.266 -0.336,-0.168 -0.621,-0.433 -0.859,-0.796 -0.231,-0.356 -0.406,-0.809 -0.531,-1.36 -0.118,-0.555 -0.172,-1.211 -0.172,-1.969 0,-1.429 0.222,-2.507 0.672,-3.234 0.457,-0.719 1.14,-1.078 2.047,-1.078 0.343,0 0.679,0.066 1.015,0.203 0.332,0.133 0.633,0.367 0.906,0.703 0.27,0.344 0.485,0.789 0.641,1.344 0.164,0.562 0.25,1.269 0.25,2.125 z" /><path
         id="path124"
         style="fill:#000000;fill-opacity:1;fill-rule:nonzero;stroke:none"
         d="m 251.172,60.792 0,2.375 c 0.394,0.851 0.875,1.625 1.437,2.312 0.563,0.688 1.149,1.317 1.766,1.891 0.613,0.582 1.223,1.117 1.828,1.609 0.602,0.488 1.145,0.961 1.625,1.422 0.488,0.457 0.883,0.914 1.188,1.375 0.3,0.469 0.453,0.961 0.453,1.484 0,0.77 -0.196,1.336 -0.578,1.704 -0.375,0.363 -0.938,0.546 -1.688,0.546 -0.73,0 -1.289,-0.199 -1.672,-0.593 -0.386,-0.399 -0.636,-0.985 -0.75,-1.766 l -3.453,0.188 c 0.082,0.675 0.25,1.312 0.5,1.906 0.25,0.594 0.61,1.113 1.078,1.562 0.469,0.446 1.051,0.797 1.75,1.047 0.707,0.258 1.551,0.391 2.532,0.391 0.925,0 1.742,-0.11 2.453,-0.328 0.718,-0.211 1.32,-0.524 1.812,-0.938 0.488,-0.418 0.859,-0.93 1.109,-1.531 0.258,-0.594 0.391,-1.274 0.391,-2.031 0,-0.813 -0.164,-1.547 -0.484,-2.203 -0.313,-0.649 -0.719,-1.247 -1.219,-1.797 -0.5,-0.543 -1.055,-1.055 -1.656,-1.532 -0.606,-0.48 -1.196,-0.949 -1.766,-1.406 -0.562,-0.461 -1.078,-0.922 -1.547,-1.39 -0.469,-0.461 -0.82,-0.954 -1.047,-1.485 l 7.985,0 0,-2.812 -12.047,0 z" /><path
         id="path126"
         style="fill:#000000;fill-opacity:1;fill-rule:nonzero;stroke:none"
         d="m 688.586,249.358 4.121,0 0,-4.121 -4.121,0 0,4.121 z" /><path
         id="path128"
         style="fill:#000000;fill-opacity:1;fill-rule:nonzero;stroke:none"
         d="m 688.586,146.315 4.121,0 0,-4.121 -4.121,0 0,4.121 z" /><g
         transform="matrix(1,0,0,-1,0,370.944)"
         id="g130"><path
           id="path132"
           style="fill:none;stroke:#000000;stroke-width:4.12160015;stroke-linecap:round;stroke-linejoin:miter;stroke-miterlimit:10;stroke-dasharray:none;stroke-opacity:1"
           d="m 667.977,166.926 45.339,0" /></g><g
         transform="matrix(1,0,0,-1,0,370.944)"
         id="g134"><path
           id="path136"
           style="fill:none;stroke:#000000;stroke-width:4.12160015;stroke-linecap:round;stroke-linejoin:miter;stroke-miterlimit:10;stroke-dasharray:none;stroke-opacity:1"
           d="m 667.977,183.41 45.339,0" /></g><g
         transform="matrix(1,0,0,-1,0,370.944)"
         id="g138"><path
           id="path140"
           style="fill:none;stroke:#000000;stroke-width:4.12160015;stroke-linecap:square;stroke-linejoin:miter;stroke-miterlimit:10;stroke-dasharray:none;stroke-opacity:1"
           d="m 690.645,125.707 0,39.156" /></g><g
         transform="matrix(1,0,0,-1,0,370.944)"
         id="g142"><path
           id="path144"
           style="fill:none;stroke:#000000;stroke-width:4.12160015;stroke-linecap:square;stroke-linejoin:miter;stroke-miterlimit:10;stroke-dasharray:none;stroke-opacity:1"
           d="m 690.645,185.473 0,39.156" /></g><path
         id="path146"
         style="fill:#000000;fill-opacity:1;fill-rule:nonzero;stroke:none"
         d="m 675.242,55.495 c -0.875,0 -1.648,0.09 -2.312,0.265 -0.657,0.18 -1.219,0.422 -1.688,0.735 -0.469,0.312 -0.844,0.687 -1.125,1.125 -0.281,0.429 -0.476,0.902 -0.578,1.422 l 3.422,0.406 c 0.125,-0.531 0.383,-0.945 0.781,-1.25 0.406,-0.301 0.938,-0.453 1.594,-0.453 0.406,0 0.773,0.058 1.109,0.172 0.344,0.117 0.633,0.312 0.875,0.593 0.239,0.274 0.426,0.633 0.563,1.079 0.133,0.449 0.203,1 0.203,1.656 0,0.226 0,0.457 0,0.687 0,0.239 0,0.457 0,0.657 0.008,0.226 0.016,0.445 0.016,0.656 l -0.016,0 c -0.406,-0.856 -0.969,-1.477 -1.688,-1.86 -0.718,-0.375 -1.574,-0.562 -2.562,-0.562 -0.844,0 -1.57,0.16 -2.172,0.484 -0.605,0.332 -1.109,0.789 -1.516,1.375 -0.398,0.594 -0.687,1.297 -0.875,2.11 -0.187,0.82 -0.281,1.726 -0.281,2.718 0,1.008 0.098,1.926 0.297,2.75 0.207,0.832 0.52,1.547 0.938,2.141 0.414,0.594 0.941,1.051 1.578,1.375 0.644,0.32 1.406,0.484 2.281,0.484 0.883,0 1.672,-0.187 2.359,-0.562 0.696,-0.375 1.243,-0.984 1.641,-1.828 l 0.062,0 c 0,0.176 0.004,0.375 0.016,0.594 0.008,0.226 0.02,0.445 0.031,0.656 0.02,0.207 0.039,0.39 0.063,0.547 0.019,0.164 0.039,0.273 0.062,0.328 l 3.235,0 c -0.012,-0.293 -0.028,-0.703 -0.047,-1.235 -0.012,-0.523 -0.016,-1.125 -0.016,-1.812 l 0,-9.75 c 0,-0.957 -0.14,-1.789 -0.422,-2.5 -0.273,-0.719 -0.679,-1.313 -1.218,-1.781 -0.532,-0.477 -1.188,-0.832 -1.969,-1.063 -0.774,-0.238 -1.653,-0.359 -2.641,-0.359 z m 2.86,12.078 c 0,0.832 -0.086,1.523 -0.25,2.078 -0.157,0.551 -0.368,0.992 -0.625,1.328 -0.262,0.332 -0.563,0.567 -0.907,0.703 -0.336,0.145 -0.672,0.219 -1.015,0.219 -0.438,0 -0.828,-0.09 -1.172,-0.266 -0.336,-0.168 -0.621,-0.433 -0.86,-0.796 -0.23,-0.356 -0.406,-0.809 -0.531,-1.36 -0.117,-0.555 -0.172,-1.211 -0.172,-1.969 0,-1.429 0.223,-2.507 0.672,-3.234 0.457,-0.719 1.141,-1.078 2.047,-1.078 0.344,0 0.68,0.066 1.016,0.203 0.332,0.133 0.633,0.367 0.906,0.703 0.269,0.344 0.484,0.789 0.641,1.344 0.164,0.562 0.25,1.269 0.25,2.125 z" /><path
         id="path148"
         style="fill:#000000;fill-opacity:1;fill-rule:nonzero;stroke:none"
         d="m 696.281,66.51 c 0,-0.855 -0.136,-1.648 -0.406,-2.375 -0.273,-0.73 -0.68,-1.367 -1.219,-1.906 -0.531,-0.531 -1.195,-0.949 -1.984,-1.25 -0.793,-0.289 -1.711,-0.437 -2.75,-0.437 -0.969,0 -1.813,0.117 -2.531,0.343 -0.711,0.239 -1.313,0.563 -1.813,0.969 -0.492,0.414 -0.875,0.899 -1.156,1.453 -0.281,0.551 -0.477,1.145 -0.578,1.782 l 3.437,0.281 c 0.063,-0.274 0.149,-0.531 0.266,-0.781 0.125,-0.25 0.289,-0.477 0.5,-0.672 0.207,-0.2 0.469,-0.356 0.781,-0.469 0.313,-0.117 0.688,-0.172 1.125,-0.172 0.852,0 1.535,0.27 2.047,0.813 0.508,0.539 0.766,1.328 0.766,2.359 0,0.445 -0.071,0.851 -0.204,1.219 -0.124,0.375 -0.304,0.691 -0.531,0.953 -0.23,0.258 -0.515,0.457 -0.859,0.594 -0.336,0.132 -0.715,0.203 -1.141,0.203 -0.574,0 -1.043,-0.11 -1.406,-0.328 -0.367,-0.211 -0.68,-0.469 -0.937,-0.782 l -3.344,0 0.609,9.688 10.328,0 0,-2.547 -7.219,0 -0.281,-4.359 c 0.344,0.3 0.774,0.562 1.297,0.781 0.52,0.219 1.125,0.328 1.813,0.328 0.843,0 1.597,-0.141 2.265,-0.422 0.664,-0.273 1.227,-0.656 1.688,-1.156 0.468,-0.5 0.82,-1.102 1.062,-1.797 0.25,-0.688 0.375,-1.461 0.375,-2.313 z" /><path
         id="path150"
         style="fill:#000000;fill-opacity:1;fill-rule:nonzero;stroke:none"
         d="m 606.152,290.573 4.121,0 0,-4.121 -4.121,0 0,4.121 z" /><path
         id="path152"
         style="fill:#000000;fill-opacity:1;fill-rule:nonzero;stroke:none"
         d="m 482.504,290.573 4.125,0 0,-4.121 -4.125,0 0,4.121 z" /><g
         transform="matrix(0,-1,-1,0,0,370.944)"
         id="g154"><path
           id="path156"
           style="fill:none;stroke:#000000;stroke-width:4.12160015;stroke-linecap:round;stroke-linejoin:round;stroke-miterlimit:10;stroke-dasharray:none;stroke-opacity:1"
           d="m 78.59,-567 c -6.242,0.016 -11.313,-4.582 -11.336,-10.273 -0.012,-5.688 5.027,-10.317 11.269,-10.332 l 0.032,0" /></g><g
         transform="matrix(0,-1,-1,0,0,370.944)"
         id="g158"><path
           id="path160"
           style="fill:none;stroke:#000000;stroke-width:4.12160015;stroke-linecap:round;stroke-linejoin:round;stroke-miterlimit:10;stroke-dasharray:none;stroke-opacity:1"
           d="m 78.309,-587.605 4.125,0" /></g><g
         transform="matrix(0,-1,-1,0,0,370.944)"
         id="g162"><path
           id="path164"
           style="fill:none;stroke:#000000;stroke-width:4.12160015;stroke-linecap:round;stroke-linejoin:round;stroke-miterlimit:10;stroke-dasharray:none;stroke-opacity:1"
           d="m 78.309,-567 4.125,0" /></g><g
         transform="matrix(0,-1,-1,0,0,370.944)"
         id="g166"><path
           id="path168"
           style="fill:none;stroke:#000000;stroke-width:4.12160015;stroke-linecap:round;stroke-linejoin:round;stroke-miterlimit:10;stroke-dasharray:none;stroke-opacity:1"
           d="m 78.59,-546.391 c -6.242,0.016 -11.313,-4.586 -11.336,-10.273 -0.012,-5.691 5.027,-10.32 11.269,-10.336 l 0.032,0" /></g><g
         transform="matrix(0,-1,-1,0,0,370.944)"
         id="g170"><path
           id="path172"
           style="fill:none;stroke:#000000;stroke-width:4.12160015;stroke-linecap:round;stroke-linejoin:round;stroke-miterlimit:10;stroke-dasharray:none;stroke-opacity:1"
           d="m 78.309,-567 4.125,0" /></g><g
         transform="matrix(0,-1,-1,0,0,370.944)"
         id="g174"><path
           id="path176"
           style="fill:none;stroke:#000000;stroke-width:4.12160015;stroke-linecap:round;stroke-linejoin:round;stroke-miterlimit:10;stroke-dasharray:none;stroke-opacity:1"
           d="m 78.309,-546.391 4.125,0" /></g><g
         transform="matrix(0,-1,-1,0,0,370.944)"
         id="g178"><path
           id="path180"
           style="fill:none;stroke:#000000;stroke-width:4.12160015;stroke-linecap:round;stroke-linejoin:round;stroke-miterlimit:10;stroke-dasharray:none;stroke-opacity:1"
           d="m 78.59,-525.781 c -6.242,0.015 -11.313,-4.586 -11.336,-10.278 -0.012,-5.687 5.027,-10.316 11.269,-10.332 l 0.032,0" /></g><g
         transform="matrix(0,-1,-1,0,0,370.944)"
         id="g182"><path
           id="path184"
           style="fill:none;stroke:#000000;stroke-width:4.12160015;stroke-linecap:round;stroke-linejoin:round;stroke-miterlimit:10;stroke-dasharray:none;stroke-opacity:1"
           d="m 78.309,-546.391 4.125,0" /></g><g
         transform="matrix(0,-1,-1,0,0,370.944)"
         id="g186"><path
           id="path188"
           style="fill:none;stroke:#000000;stroke-width:4.12160015;stroke-linecap:round;stroke-linejoin:round;stroke-miterlimit:10;stroke-dasharray:none;stroke-opacity:1"
           d="m 78.309,-525.781 4.125,0" /></g><g
         transform="matrix(0,-1,-1,0,0,370.944)"
         id="g190"><path
           id="path192"
           style="fill:none;stroke:#000000;stroke-width:4.12160015;stroke-linecap:round;stroke-linejoin:round;stroke-miterlimit:10;stroke-dasharray:none;stroke-opacity:1"
           d="m 78.59,-505.176 c -6.242,0.016 -11.313,-4.582 -11.336,-10.273 -0.012,-5.688 5.027,-10.317 11.269,-10.332 l 0.032,0" /></g><g
         transform="matrix(0,-1,-1,0,0,370.944)"
         id="g194"><path
           id="path196"
           style="fill:none;stroke:#000000;stroke-width:4.12160015;stroke-linecap:round;stroke-linejoin:round;stroke-miterlimit:10;stroke-dasharray:none;stroke-opacity:1"
           d="m 78.309,-525.781 4.125,0" /></g><g
         transform="matrix(0,-1,-1,0,0,370.944)"
         id="g198"><path
           id="path200"
           style="fill:none;stroke:#000000;stroke-width:4.12160015;stroke-linecap:round;stroke-linejoin:round;stroke-miterlimit:10;stroke-dasharray:none;stroke-opacity:1"
           d="m 78.309,-505.176 4.125,0" /></g><g
         transform="matrix(0,-1,-1,0,0,370.944)"
         id="g202"><path
           id="path204"
           style="fill:none;stroke:#000000;stroke-width:4.12160015;stroke-linecap:square;stroke-linejoin:miter;stroke-miterlimit:10;stroke-dasharray:none;stroke-opacity:1"
           d="m 82.434,-606.152 0,16.484" /></g><g
         transform="matrix(0,-1,-1,0,0,370.944)"
         id="g206"><path
           id="path208"
           style="fill:none;stroke:#000000;stroke-width:4.12160015;stroke-linecap:square;stroke-linejoin:miter;stroke-miterlimit:10;stroke-dasharray:none;stroke-opacity:1"
           d="m 82.434,-503.113 0,16.484" /></g><path
         id="path210"
         style="fill:#000000;fill-opacity:1;fill-rule:nonzero;stroke:none"
         d="m 530.988,55.495 c -0.875,0 -1.648,0.09 -2.312,0.265 -0.656,0.18 -1.219,0.422 -1.688,0.735 -0.468,0.312 -0.843,0.687 -1.125,1.125 -0.281,0.429 -0.476,0.902 -0.578,1.422 l 3.422,0.406 c 0.125,-0.531 0.383,-0.945 0.781,-1.25 0.407,-0.301 0.938,-0.453 1.594,-0.453 0.406,0 0.773,0.058 1.109,0.172 0.344,0.117 0.633,0.312 0.875,0.593 0.239,0.274 0.426,0.633 0.563,1.079 0.133,0.449 0.203,1 0.203,1.656 0,0.226 0,0.457 0,0.687 0,0.239 0,0.457 0,0.657 0.008,0.226 0.016,0.445 0.016,0.656 l -0.016,0 c -0.406,-0.856 -0.969,-1.477 -1.687,-1.86 -0.719,-0.375 -1.575,-0.562 -2.563,-0.562 -0.844,0 -1.57,0.16 -2.172,0.484 -0.605,0.332 -1.109,0.789 -1.515,1.375 -0.399,0.594 -0.688,1.297 -0.875,2.11 -0.188,0.82 -0.282,1.726 -0.282,2.718 0,1.008 0.098,1.926 0.297,2.75 0.207,0.832 0.52,1.547 0.938,2.141 0.414,0.594 0.941,1.051 1.578,1.375 0.644,0.32 1.406,0.484 2.281,0.484 0.883,0 1.672,-0.187 2.359,-0.562 0.696,-0.375 1.243,-0.984 1.641,-1.828 l 0.063,0 c 0,0.176 0.003,0.375 0.015,0.594 0.008,0.226 0.02,0.445 0.031,0.656 0.02,0.207 0.039,0.39 0.063,0.547 0.019,0.164 0.039,0.273 0.062,0.328 l 3.235,0 c -0.012,-0.293 -0.028,-0.703 -0.047,-1.235 -0.012,-0.523 -0.016,-1.125 -0.016,-1.812 l 0,-9.75 c 0,-0.957 -0.14,-1.789 -0.422,-2.5 -0.273,-0.719 -0.679,-1.313 -1.218,-1.781 -0.532,-0.477 -1.188,-0.832 -1.969,-1.063 -0.774,-0.238 -1.652,-0.359 -2.641,-0.359 z m 2.86,12.078 c 0,0.832 -0.086,1.523 -0.25,2.078 -0.157,0.551 -0.368,0.992 -0.625,1.328 -0.262,0.332 -0.563,0.567 -0.907,0.703 -0.336,0.145 -0.671,0.219 -1.015,0.219 -0.438,0 -0.828,-0.09 -1.172,-0.266 -0.336,-0.168 -0.621,-0.433 -0.859,-0.796 -0.231,-0.356 -0.407,-0.809 -0.532,-1.36 -0.117,-0.555 -0.172,-1.211 -0.172,-1.969 0,-1.429 0.223,-2.507 0.672,-3.234 0.457,-0.719 1.141,-1.078 2.047,-1.078 0.344,0 0.68,0.066 1.016,0.203 0.332,0.133 0.633,0.367 0.906,0.703 0.27,0.344 0.484,0.789 0.641,1.344 0.164,0.562 0.25,1.269 0.25,2.125 z" /><path
         id="path212"
         style="fill:#000000;fill-opacity:1;fill-rule:nonzero;stroke:none"
         d="m 550.293,64.292 0,-3.5 -3.266,0 0,3.5 -7.828,0 0,2.578 7.266,11.125 3.828,0 0,-11.141 2.297,0 0,-2.562 -2.297,0 z m -3.266,8.187 c 0,0.133 0,0.313 0,0.531 0.008,0.227 0.02,0.457 0.032,0.688 0.007,0.238 0.019,0.469 0.031,0.687 0.008,0.219 0.023,0.383 0.047,0.5 -0.043,-0.086 -0.11,-0.211 -0.203,-0.375 -0.086,-0.168 -0.184,-0.351 -0.297,-0.546 -0.106,-0.188 -0.219,-0.375 -0.344,-0.563 -0.117,-0.187 -0.215,-0.352 -0.297,-0.484 l -4,-6.063 5.031,0 0,5.625 z" /><path
         id="path214"
         style="fill:#000000;fill-opacity:1;fill-rule:nonzero;stroke:none"
         d="m 29.129,290.573 4.121,0 0,-4.121 -4.121,0 0,4.121 z" /><g
         transform="matrix(0,1,1,0,0,370.944)"
         id="g216"><path
           id="path218"
           style="fill:#ffffff;fill-opacity:1;fill-rule:nonzero;stroke:#000000;stroke-width:4.12160015;stroke-linecap:butt;stroke-linejoin:miter;stroke-miterlimit:4;stroke-dasharray:none;stroke-opacity:1"
           d="m -73.91,10.582 c 0,4.707 -3.817,8.523 -8.524,8.523 -4.703,0 -8.519,-3.816 -8.519,-8.523 0,-4.707 3.816,-8.52 8.519,-8.52 4.707,0 8.524,3.813 8.524,8.52 z" /></g><g
         transform="matrix(0,1,1,0,0,370.944)"
         id="g220"><path
           id="path222"
           style="fill:none;stroke:#000000;stroke-width:4.12160015;stroke-linecap:square;stroke-linejoin:miter;stroke-miterlimit:10;stroke-dasharray:none;stroke-opacity:1"
           d="m -82.434,20.887 0,8.242" /></g><path
         id="path224"
         style="fill:#000000;fill-opacity:1;fill-rule:nonzero;stroke:none"
         d="m 771.016,290.573 4.125,0 0,-4.121 -4.125,0 0,4.121 z" /><g
         transform="matrix(0,-1,-1,0,0,370.944)"
         id="g226"><path
           id="path228"
           style="fill:#ffffff;fill-opacity:1;fill-rule:nonzero;stroke:#000000;stroke-width:4.12160015;stroke-linecap:butt;stroke-linejoin:miter;stroke-miterlimit:4;stroke-dasharray:none;stroke-opacity:1"
           d="m 90.953,-793.688 c 0,4.708 -3.816,8.524 -8.519,8.524 -4.707,0 -8.524,-3.816 -8.524,-8.524 0,-4.703 3.817,-8.519 8.524,-8.519 4.703,0 8.519,3.816 8.519,8.519 z" /></g><g
         transform="matrix(0,-1,-1,0,0,370.944)"
         id="g230"><path
           id="path232"
           style="fill:none;stroke:#000000;stroke-width:4.12160015;stroke-linecap:square;stroke-linejoin:miter;stroke-miterlimit:10;stroke-dasharray:none;stroke-opacity:1"
           d="m 82.434,-783.383 0,8.242" /></g><path
         id="path234"
         style="fill:#000000;fill-opacity:1;fill-rule:nonzero;stroke:none"
         d="m 29.129,105.1 4.121,0 0,-4.121 -4.121,0 0,4.121 z" /><g
         transform="matrix(0,1,1,0,0,370.944)"
         id="g236"><path
           id="path238"
           style="fill:#ffffff;fill-opacity:1;fill-rule:nonzero;stroke:#000000;stroke-width:4.12160015;stroke-linecap:butt;stroke-linejoin:miter;stroke-miterlimit:4;stroke-dasharray:none;stroke-opacity:1"
           d="m -259.383,10.582 c 0,4.707 -3.816,8.523 -8.519,8.523 -4.707,0 -8.524,-3.816 -8.524,-8.523 0,-4.707 3.817,-8.52 8.524,-8.52 4.703,0 8.519,3.813 8.519,8.52 z" /></g><g
         transform="matrix(0,1,1,0,0,370.944)"
         id="g240"><path
           id="path242"
           style="fill:none;stroke:#000000;stroke-width:4.12160015;stroke-linecap:square;stroke-linejoin:miter;stroke-miterlimit:10;stroke-dasharray:none;stroke-opacity:1"
           d="m -267.902,20.887 0,8.242" /></g><path
         id="path244"
         style="fill:#000000;fill-opacity:1;fill-rule:nonzero;stroke:none"
         d="m 771.016,105.1 4.125,0 0,-4.121 -4.125,0 0,4.121 z" /><g
         transform="matrix(0,-1,-1,0,0,370.944)"
         id="g246"><path
           id="path248"
           style="fill:#ffffff;fill-opacity:1;fill-rule:nonzero;stroke:#000000;stroke-width:4.12160015;stroke-linecap:butt;stroke-linejoin:miter;stroke-miterlimit:4;stroke-dasharray:none;stroke-opacity:1"
           d="m 276.426,-793.688 c 0,4.708 -3.817,8.524 -8.524,8.524 -4.703,0 -8.519,-3.816 -8.519,-8.524 0,-4.703 3.816,-8.519 8.519,-8.519 4.707,0 8.524,3.816 8.524,8.519 z" /></g><g
         transform="matrix(0,-1,-1,0,0,370.944)"
         id="g250"><path
           id="path252"
           style="fill:none;stroke:#000000;stroke-width:4.12160015;stroke-linecap:square;stroke-linejoin:miter;stroke-miterlimit:10;stroke-dasharray:none;stroke-opacity:1"
           d="m 267.902,-783.383 0,8.242" /></g><g
         transform="matrix(1,0,0,-1,0,370.944)"
         id="g254"><path
           id="path256"
           style="fill:none;stroke:#000000;stroke-width:4.12160015;stroke-linecap:butt;stroke-linejoin:miter;stroke-miterlimit:10;stroke-dasharray:none;stroke-opacity:1"
           d="m 31.191,267.902 741.887,0" /></g><g
         transform="matrix(1,0,0,-1,0,370.944)"
         id="g258"><path
           id="path260"
           style="fill:none;stroke:#000000;stroke-width:4.12160015;stroke-linecap:butt;stroke-linejoin:miter;stroke-miterlimit:10;stroke-dasharray:none;stroke-opacity:1"
           d="m 31.191,82.434 164.864,0" /></g><g
         transform="matrix(1,0,0,-1,0,370.944)"
         id="g262"><path
           id="path264"
           style="fill:none;stroke:#000000;stroke-width:4.12160015;stroke-linecap:butt;stroke-linejoin:miter;stroke-miterlimit:10;stroke-dasharray:none;stroke-opacity:1"
           d="m 319.703,82.434 164.863,0" /></g><g
         transform="matrix(1,0,0,-1,0,370.944)"
         id="g266"><path
           id="path268"
           style="fill:none;stroke:#000000;stroke-width:4.12160015;stroke-linecap:butt;stroke-linejoin:miter;stroke-miterlimit:10;stroke-dasharray:none;stroke-opacity:1"
           d="m 608.215,82.434 164.863,0" /></g><g
         transform="matrix(1,0,0,-1,0,370.944)"
         id="g270"><path
           id="path272"
           style="fill:none;stroke:#000000;stroke-width:4.12160015;stroke-linecap:butt;stroke-linejoin:miter;stroke-miterlimit:10;stroke-dasharray:none;stroke-opacity:1"
           d="m 690.645,226.688 0,37.093" /></g><g
         transform="matrix(1,0,0,-1,0,370.944)"
         id="g274"><path
           id="path276"
           style="fill:#000000;fill-opacity:1;fill-rule:nonzero;stroke:#000000;stroke-width:4.12160015;stroke-linecap:butt;stroke-linejoin:miter;stroke-miterlimit:4;stroke-dasharray:none;stroke-opacity:1"
           d="m 694.77,267.902 c 0,2.278 -1.848,4.125 -4.125,4.125 -2.274,0 -4.122,-1.847 -4.122,-4.125 0,-2.273 1.848,-4.121 4.122,-4.121 2.277,0 4.125,1.848 4.125,4.121 z" /></g><g
         transform="matrix(1,0,0,-1,0,370.944)"
         id="g278"><path
           id="path280"
           style="fill:none;stroke:#000000;stroke-width:4.12160015;stroke-linecap:butt;stroke-linejoin:miter;stroke-miterlimit:10;stroke-dasharray:none;stroke-opacity:1"
           d="m 402.133,226.688 0,37.093" /></g><g
         transform="matrix(1,0,0,-1,0,370.944)"
         id="g282"><path
           id="path284"
           style="fill:#000000;fill-opacity:1;fill-rule:nonzero;stroke:#000000;stroke-width:4.12160015;stroke-linecap:butt;stroke-linejoin:miter;stroke-miterlimit:4;stroke-dasharray:none;stroke-opacity:1"
           d="m 406.254,267.902 c 0,2.278 -1.844,4.125 -4.121,4.125 -2.274,0 -4.121,-1.847 -4.121,-4.125 0,-2.273 1.847,-4.121 4.121,-4.121 2.277,0 4.121,1.848 4.121,4.121 z" /></g><g
         transform="matrix(1,0,0,-1,0,370.944)"
         id="g286"><path
           id="path288"
           style="fill:none;stroke:#000000;stroke-width:4.12160015;stroke-linecap:butt;stroke-linejoin:miter;stroke-miterlimit:10;stroke-dasharray:none;stroke-opacity:1"
           d="m 402.133,123.648 0,-37.093" /></g><g
         transform="matrix(1,0,0,-1,0,370.944)"
         id="g290"><path
           id="path292"
           style="fill:#000000;fill-opacity:1;fill-rule:nonzero;stroke:#000000;stroke-width:4.12160015;stroke-linecap:butt;stroke-linejoin:miter;stroke-miterlimit:4;stroke-dasharray:none;stroke-opacity:1"
           d="m 406.254,82.434 c 0,2.273 -1.844,4.121 -4.121,4.121 -2.274,0 -4.121,-1.848 -4.121,-4.121 0,-2.278 1.847,-4.125 4.121,-4.125 2.277,0 4.121,1.847 4.121,4.125 z" /></g><g
         transform="matrix(1,0,0,-1,0,370.944)"
         id="g294"><path
           id="path296"
           style="fill:none;stroke:#000000;stroke-width:4.12160015;stroke-linecap:butt;stroke-linejoin:miter;stroke-miterlimit:10;stroke-dasharray:none;stroke-opacity:1"
           d="m 690.645,123.648 0,-37.093" /></g><g
         transform="matrix(1,0,0,-1,0,370.944)"
         id="g298"><path
           id="path300"
           style="fill:#000000;fill-opacity:1;fill-rule:nonzero;stroke:#000000;stroke-width:4.12160015;stroke-linecap:butt;stroke-linejoin:miter;stroke-miterlimit:4;stroke-dasharray:none;stroke-opacity:1"
           d="m 694.77,82.434 c 0,2.273 -1.848,4.121 -4.125,4.121 -2.274,0 -4.122,-1.848 -4.122,-4.121 0,-2.278 1.848,-4.125 4.122,-4.125 2.277,0 4.125,1.847 4.125,4.125 z" /></g><g
         transform="matrix(1,0,0,-1,0,370.944)"
         id="g302"><path
           id="path304"
           style="fill:none;stroke:#000000;stroke-width:4.12160015;stroke-linecap:butt;stroke-linejoin:miter;stroke-miterlimit:10;stroke-dasharray:none;stroke-opacity:1"
           d="m 113.621,123.648 0,-41.214 0,4.121" /></g><g
         transform="matrix(1,0,0,-1,0,370.944)"
         id="g306"><path
           id="path308"
           style="fill:#000000;fill-opacity:1;fill-rule:nonzero;stroke:#000000;stroke-width:4.12160015;stroke-linecap:butt;stroke-linejoin:miter;stroke-miterlimit:4;stroke-dasharray:none;stroke-opacity:1"
           d="m 117.742,82.434 c 0,2.273 -1.844,4.121 -4.121,4.121 -2.273,0 -4.121,-1.848 -4.121,-4.121 0,-2.278 1.848,-4.125 4.121,-4.125 2.277,0 4.121,1.847 4.121,4.125 z" /></g><g
         transform="matrix(1,0,0,-1,0,370.944)"
         id="g310"><path
           id="path312"
           style="fill:none;stroke:#000000;stroke-width:4.12160015;stroke-linecap:butt;stroke-linejoin:miter;stroke-miterlimit:10;stroke-dasharray:none;stroke-opacity:1"
           d="m 113.621,226.688 0,41.214 0,-4.121" /></g><g
         transform="matrix(1,0,0,-1,0,370.944)"
         id="g314"><path
           id="path316"
           style="fill:#000000;fill-opacity:1;fill-rule:nonzero;stroke:#000000;stroke-width:4.12160015;stroke-linecap:butt;stroke-linejoin:miter;stroke-miterlimit:4;stroke-dasharray:none;stroke-opacity:1"
           d="m 117.742,267.902 c 0,2.278 -1.844,4.125 -4.121,4.125 -2.273,0 -4.121,-1.847 -4.121,-4.125 0,-2.273 1.848,-4.121 4.121,-4.121 2.277,0 4.121,1.848 4.121,4.121 z" /></g><g
         transform="matrix(1,0,0,-1,0,370.944)"
         id="g318"><path
           id="path320"
           style="fill:none;stroke:#bf00bf;stroke-width:4.12160015;stroke-linecap:butt;stroke-linejoin:miter;stroke-miterlimit:10;stroke-dasharray:4.1216, 4.1216;stroke-dashoffset:0;stroke-opacity:1"
           d="m 175.445,0 0,370.945" /></g><g
         transform="matrix(1,0,0,-1,0,370.944)"
         id="g322"><path
           id="path324"
           style="fill:none;stroke:#bf00bf;stroke-width:4.12160015;stroke-linecap:butt;stroke-linejoin:miter;stroke-miterlimit:10;stroke-dasharray:4.1216, 4.1216;stroke-dashoffset:0;stroke-opacity:1"
           d="m 340.309,0 0,370.945" /></g><g
         transform="matrix(1,0,0,-1,0,370.944)"
         id="g326"><path
           id="path328"
           style="fill:none;stroke:#bf00bf;stroke-width:4.12160015;stroke-linecap:butt;stroke-linejoin:miter;stroke-miterlimit:10;stroke-dasharray:4.1216, 4.1216;stroke-dashoffset:0;stroke-opacity:1"
           d="m 463.957,0 0,370.945" /></g><g
         transform="matrix(1,0,0,-1,0,370.944)"
         id="g330"><path
           id="path332"
           style="fill:none;stroke:#bf00bf;stroke-width:4.12160015;stroke-linecap:butt;stroke-linejoin:miter;stroke-miterlimit:10;stroke-dasharray:4.1216, 4.1216;stroke-dashoffset:0;stroke-opacity:1"
           d="m 628.82,0 0,370.945" /></g></g></g></svg>