<?xml version="1.0" encoding="UTF-8" standalone="no"?>
<svg
   xmlns:dc="http://purl.org/dc/elements/1.1/"
   xmlns:cc="http://creativecommons.org/ns#"
   xmlns:rdf="http://www.w3.org/1999/02/22-rdf-syntax-ns#"
   xmlns:svg="http://www.w3.org/2000/svg"
   xmlns="http://www.w3.org/2000/svg"
   viewBox="0 0 694.6806 320.40002"
   height="320.40002"
   width="694.6806"
   xml:space="preserve"
   version="1.1"
   id="svg2"><metadata
     id="metadata8"><rdf:RDF><cc:Work
         rdf:about=""><dc:format>image/svg+xml</dc:format><dc:type
           rdf:resource="http://purl.org/dc/dcmitype/StillImage" /></cc:Work></rdf:RDF></metadata><defs
     id="defs6" /><g
     transform="matrix(1.25,0,0,-1.25,0,320.40001)"
     id="g10"><g
       id="g12"><path
         id="path14"
         style="fill:#000000;fill-opacity:1;fill-rule:nonzero;stroke:none"
         d="m 77.09,172.304 2.848,0 0,-2.848 -2.848,0 0,2.848 z" /><path
         id="path16"
         style="fill:#000000;fill-opacity:1;fill-rule:nonzero;stroke:none"
         d="m 77.09,101.105 2.848,0 0,-2.848 -2.848,0 0,2.848 z" /><g
         transform="matrix(1,0,0,-1,0,256.32001)"
         id="g18"><path
           id="path20"
           style="fill:none;stroke:#000000;stroke-width:2.84800005;stroke-linecap:round;stroke-linejoin:miter;stroke-miterlimit:10;stroke-dasharray:none;stroke-opacity:1"
           d="m 62.848,115.344 31.328,0" /></g><g
         transform="matrix(1,0,0,-1,0,256.32001)"
         id="g22"><path
           id="path24"
           style="fill:none;stroke:#000000;stroke-width:2.84800005;stroke-linecap:round;stroke-linejoin:miter;stroke-miterlimit:10;stroke-dasharray:none;stroke-opacity:1"
           d="m 62.848,126.734 31.328,0" /></g><g
         transform="matrix(1,0,0,-1,0,256.32001)"
         id="g26"><path
           id="path28"
           style="fill:none;stroke:#000000;stroke-width:2.84800005;stroke-linecap:square;stroke-linejoin:miter;stroke-miterlimit:10;stroke-dasharray:none;stroke-opacity:1"
           d="m 78.512,86.863 0,27.059" /></g><g
         transform="matrix(1,0,0,-1,0,256.32001)"
         id="g30"><path
           id="path32"
           style="fill:none;stroke:#000000;stroke-width:2.84800005;stroke-linecap:square;stroke-linejoin:miter;stroke-miterlimit:10;stroke-dasharray:none;stroke-opacity:1"
           d="m 78.512,128.16 0,27.055" /></g><path
         id="path34"
         style="fill:#000000;fill-opacity:1;fill-rule:nonzero;stroke:none"
         d="m 68.504,37.687 c -0.594,0 -1.121,0.063 -1.578,0.188 -0.449,0.117 -0.836,0.281 -1.156,0.5 -0.313,0.211 -0.571,0.465 -0.766,0.765 -0.188,0.293 -0.313,0.618 -0.375,0.969 l 2.328,0.281 c 0.082,-0.363 0.258,-0.644 0.531,-0.843 0.27,-0.207 0.629,-0.313 1.078,-0.313 0.27,0 0.52,0.043 0.75,0.125 0.239,0.074 0.438,0.203 0.594,0.391 0.164,0.179 0.289,0.422 0.375,0.734 0.094,0.305 0.141,0.68 0.141,1.125 0,0.156 0,0.313 0,0.469 0,0.156 0.004,0.301 0.015,0.437 0,0.157 0,0.305 0,0.453 l -0.015,0 c -0.274,-0.585 -0.653,-1.007 -1.141,-1.265 -0.492,-0.262 -1.07,-0.391 -1.734,-0.391 -0.574,0 -1.071,0.11 -1.485,0.328 -0.406,0.227 -0.746,0.539 -1.015,0.938 -0.274,0.406 -0.477,0.883 -0.61,1.437 -0.125,0.563 -0.187,1.176 -0.187,1.844 0,0.695 0.066,1.32 0.203,1.875 0.133,0.563 0.344,1.047 0.625,1.453 0.289,0.406 0.648,0.719 1.078,0.938 0.438,0.218 0.957,0.328 1.563,0.328 0.593,0 1.125,-0.133 1.593,-0.391 0.477,-0.25 0.848,-0.664 1.11,-1.234 l 0.047,0 c 0,0.125 0.004,0.258 0.015,0.406 0.008,0.156 0.02,0.301 0.032,0.438 0.007,0.144 0.019,0.269 0.031,0.375 0.008,0.113 0.023,0.191 0.047,0.234 l 2.203,0 C 72.789,50.082 72.777,49.8 72.77,49.437 72.758,49.082 72.754,48.672 72.754,48.203 l 0,-6.625 c 0,-0.656 -0.094,-1.223 -0.281,-1.703 -0.188,-0.489 -0.465,-0.895 -0.828,-1.219 -0.368,-0.32 -0.813,-0.563 -1.344,-0.719 -0.531,-0.164 -1.133,-0.25 -1.797,-0.25 z m 1.937,8.219 c 0,0.57 -0.058,1.047 -0.171,1.422 -0.106,0.375 -0.247,0.672 -0.422,0.89 -0.18,0.227 -0.383,0.391 -0.61,0.485 -0.23,0.094 -0.461,0.14 -0.687,0.14 -0.305,0 -0.571,-0.058 -0.797,-0.171 -0.231,-0.118 -0.43,-0.297 -0.594,-0.547 -0.156,-0.242 -0.277,-0.547 -0.359,-0.922 -0.086,-0.375 -0.125,-0.824 -0.125,-1.344 0,-0.969 0.156,-1.699 0.469,-2.187 0.312,-0.493 0.773,-0.735 1.39,-0.735 0.227,0 0.457,0.039 0.688,0.125 0.226,0.094 0.429,0.254 0.609,0.485 0.188,0.226 0.332,0.535 0.438,0.921 0.113,0.383 0.171,0.864 0.171,1.438 z" /><path
         id="path36"
         style="fill:#000000;fill-opacity:1;fill-rule:nonzero;stroke:none"
         d="m 75.074,41.297 0,1.734 2.891,0 0,7.984 -2.813,-1.765 0,1.843 2.938,1.907 2.203,0 0,-9.969 2.687,0 0,-1.734 -7.906,0 z" /><path
         id="path38"
         style="fill:#000000;fill-opacity:1;fill-rule:nonzero;stroke:none"
         d="m 65.09,12.816 0,1.734 2.89,0 0,7.985 -2.812,-1.766 0,1.844 2.937,1.906 2.204,0 0,-9.969 2.687,0 0,-1.734 -7.906,0 z" /><path
         id="path40"
         style="fill:#000000;fill-opacity:1;fill-rule:nonzero;stroke:none"
         d="m 77.117,13.363 c 0,-0.375 -0.023,-0.711 -0.062,-1.016 -0.043,-0.3 -0.106,-0.578 -0.188,-0.828 -0.074,-0.258 -0.168,-0.5 -0.281,-0.719 -0.117,-0.218 -0.242,-0.421 -0.375,-0.609 l -1.531,0 c 0.156,0.188 0.3,0.391 0.437,0.609 0.133,0.219 0.25,0.446 0.344,0.672 0.101,0.219 0.18,0.446 0.234,0.672 0.063,0.231 0.094,0.453 0.094,0.672 l -1.078,0 0,2.531 2.406,0 0,-1.984 z" /><path
         id="path42"
         style="fill:#000000;fill-opacity:1;fill-rule:nonzero;stroke:none"
         d="M 86.965,22.66 C 86.441,21.824 85.949,21.019 85.48,20.238 85.012,19.465 84.598,18.683 84.246,17.894 83.902,17.101 83.625,16.289 83.418,15.457 83.219,14.621 83.121,13.742 83.121,12.816 l -2.422,0 c 0,0.926 0.11,1.805 0.328,2.641 0.219,0.832 0.516,1.644 0.891,2.437 0.375,0.789 0.812,1.571 1.312,2.344 0.5,0.77 1.024,1.555 1.579,2.359 l -5.813,0 0,1.922 7.969,0 0,-1.859 z" /><path
         id="path44"
         style="fill:#000000;fill-opacity:1;fill-rule:nonzero;stroke:none"
         d="m 96.523,18.675 c 0,-1.125 -0.105,-2.074 -0.312,-2.843 -0.199,-0.762 -0.481,-1.383 -0.844,-1.86 -0.355,-0.468 -0.781,-0.808 -1.281,-1.015 -0.5,-0.207 -1.043,-0.313 -1.625,-0.313 -0.586,0 -1.125,0.106 -1.625,0.313 -0.492,0.207 -0.914,0.547 -1.266,1.015 -0.355,0.477 -0.632,1.098 -0.828,1.86 -0.199,0.769 -0.297,1.718 -0.297,2.843 0,1.176 0.098,2.149 0.297,2.922 0.196,0.77 0.473,1.383 0.828,1.844 0.364,0.457 0.797,0.781 1.297,0.969 0.5,0.187 1.051,0.281 1.656,0.281 0.571,0 1.102,-0.094 1.594,-0.281 0.488,-0.188 0.91,-0.512 1.266,-0.969 0.363,-0.461 0.644,-1.074 0.844,-1.844 0.195,-0.773 0.296,-1.746 0.296,-2.922 z m -2.328,0 c 0,0.821 -0.031,1.5 -0.093,2.032 -0.063,0.539 -0.164,0.968 -0.297,1.281 -0.137,0.32 -0.309,0.547 -0.516,0.672 -0.211,0.133 -0.469,0.203 -0.781,0.203 -0.324,0 -0.594,-0.07 -0.813,-0.203 -0.218,-0.125 -0.402,-0.352 -0.547,-0.672 -0.136,-0.324 -0.234,-0.758 -0.296,-1.297 -0.055,-0.531 -0.079,-1.203 -0.079,-2.016 0,-0.804 0.032,-1.476 0.094,-2.015 0.063,-0.543 0.16,-0.977 0.297,-1.297 0.133,-0.324 0.305,-0.555 0.516,-0.688 0.218,-0.125 0.484,-0.187 0.797,-0.187 0.3,0 0.562,0.062 0.781,0.187 0.219,0.133 0.394,0.364 0.531,0.688 0.133,0.32 0.234,0.754 0.297,1.297 0.07,0.539 0.109,1.211 0.109,2.015 z" /><path
         id="path46"
         style="fill:#000000;fill-opacity:1;fill-rule:nonzero;stroke:none"
         d="m 276.449,172.304 2.848,0 0,-2.848 -2.848,0 0,2.848 z" /><path
         id="path48"
         style="fill:#000000;fill-opacity:1;fill-rule:nonzero;stroke:none"
         d="m 276.449,101.105 2.848,0 0,-2.848 -2.848,0 0,2.848 z" /><g
         transform="matrix(1,0,0,-1,0,256.32001)"
         id="g50"><path
           id="path52"
           style="fill:none;stroke:#000000;stroke-width:2.84800005;stroke-linecap:round;stroke-linejoin:miter;stroke-miterlimit:10;stroke-dasharray:none;stroke-opacity:1"
           d="m 262.207,115.344 31.328,0" /></g><g
         transform="matrix(1,0,0,-1,0,256.32001)"
         id="g54"><path
           id="path56"
           style="fill:none;stroke:#000000;stroke-width:2.84800005;stroke-linecap:round;stroke-linejoin:miter;stroke-miterlimit:10;stroke-dasharray:none;stroke-opacity:1"
           d="m 262.207,126.734 31.328,0" /></g><g
         transform="matrix(1,0,0,-1,0,256.32001)"
         id="g58"><path
           id="path60"
           style="fill:none;stroke:#000000;stroke-width:2.84800005;stroke-linecap:square;stroke-linejoin:miter;stroke-miterlimit:10;stroke-dasharray:none;stroke-opacity:1"
           d="m 277.871,86.863 0,27.059" /></g><g
         transform="matrix(1,0,0,-1,0,256.32001)"
         id="g62"><path
           id="path64"
           style="fill:none;stroke:#000000;stroke-width:2.84800005;stroke-linecap:square;stroke-linejoin:miter;stroke-miterlimit:10;stroke-dasharray:none;stroke-opacity:1"
           d="m 277.871,128.16 0,27.055" /></g><path
         id="path66"
         style="fill:#000000;fill-opacity:1;fill-rule:nonzero;stroke:none"
         d="m 267.863,37.687 c -0.593,0 -1.121,0.063 -1.578,0.188 -0.449,0.117 -0.836,0.281 -1.156,0.5 -0.313,0.211 -0.57,0.465 -0.766,0.765 -0.187,0.293 -0.312,0.618 -0.375,0.969 l 2.328,0.281 c 0.082,-0.363 0.258,-0.644 0.532,-0.843 0.269,-0.207 0.629,-0.313 1.078,-0.313 0.269,0 0.519,0.043 0.75,0.125 0.238,0.074 0.437,0.203 0.594,0.391 0.164,0.179 0.289,0.422 0.375,0.734 0.093,0.305 0.14,0.68 0.14,1.125 0,0.156 0,0.313 0,0.469 0,0.156 0.004,0.301 0.016,0.437 0,0.157 0,0.305 0,0.453 l -0.016,0 c -0.273,-0.585 -0.652,-1.007 -1.14,-1.265 -0.493,-0.262 -1.071,-0.391 -1.735,-0.391 -0.574,0 -1.07,0.11 -1.484,0.328 -0.406,0.227 -0.746,0.539 -1.016,0.938 -0.273,0.406 -0.476,0.883 -0.609,1.437 -0.125,0.563 -0.188,1.176 -0.188,1.844 0,0.695 0.067,1.32 0.203,1.875 0.133,0.563 0.344,1.047 0.625,1.453 0.289,0.406 0.649,0.719 1.079,0.938 0.437,0.218 0.957,0.328 1.562,0.328 0.594,0 1.125,-0.133 1.594,-0.391 0.476,-0.25 0.847,-0.664 1.109,-1.234 l 0.047,0 c 0,0.125 0.004,0.258 0.016,0.406 0.007,0.156 0.019,0.301 0.031,0.438 0.008,0.144 0.019,0.269 0.031,0.375 0.008,0.113 0.024,0.191 0.047,0.234 l 2.203,0 c -0.012,-0.199 -0.023,-0.481 -0.031,-0.844 -0.012,-0.355 -0.016,-0.765 -0.016,-1.234 l 0,-6.625 c 0,-0.656 -0.093,-1.223 -0.281,-1.703 -0.187,-0.489 -0.465,-0.895 -0.828,-1.219 -0.367,-0.32 -0.813,-0.563 -1.344,-0.719 -0.531,-0.164 -1.133,-0.25 -1.797,-0.25 z m 1.938,8.219 c 0,0.57 -0.059,1.047 -0.172,1.422 -0.106,0.375 -0.246,0.672 -0.422,0.89 -0.18,0.227 -0.383,0.391 -0.609,0.485 -0.231,0.094 -0.461,0.14 -0.688,0.14 -0.305,0 -0.57,-0.058 -0.797,-0.171 -0.23,-0.118 -0.429,-0.297 -0.593,-0.547 -0.157,-0.242 -0.278,-0.547 -0.36,-0.922 -0.086,-0.375 -0.125,-0.824 -0.125,-1.344 0,-0.969 0.156,-1.699 0.469,-2.187 0.312,-0.493 0.773,-0.735 1.391,-0.735 0.226,0 0.457,0.039 0.687,0.125 0.227,0.094 0.43,0.254 0.609,0.485 0.188,0.226 0.332,0.535 0.438,0.921 0.113,0.383 0.172,0.864 0.172,1.438 z" /><path
         id="path68"
         style="fill:#000000;fill-opacity:1;fill-rule:nonzero;stroke:none"
         d="m 282.199,44.547 c 0,-0.532 -0.09,-1.012 -0.265,-1.438 -0.18,-0.43 -0.446,-0.793 -0.797,-1.094 -0.344,-0.293 -0.778,-0.515 -1.297,-0.672 -0.512,-0.156 -1.11,-0.234 -1.797,-0.234 -0.762,0 -1.406,0.094 -1.938,0.281 -0.523,0.196 -0.949,0.453 -1.281,0.766 -0.336,0.32 -0.586,0.687 -0.75,1.094 -0.168,0.406 -0.277,0.812 -0.328,1.218 l 2.375,0.219 c 0.031,-0.25 0.094,-0.48 0.188,-0.687 0.093,-0.211 0.211,-0.391 0.359,-0.547 0.156,-0.149 0.344,-0.262 0.562,-0.344 0.227,-0.074 0.5,-0.109 0.813,-0.109 0.551,0 0.984,0.133 1.297,0.406 0.312,0.281 0.469,0.707 0.469,1.281 0,0.344 -0.075,0.617 -0.219,0.828 -0.149,0.219 -0.336,0.379 -0.563,0.485 -0.218,0.113 -0.461,0.191 -0.718,0.234 -0.262,0.039 -0.512,0.063 -0.75,0.063 l -0.813,0 0,1.875 0.766,0 c 0.226,0 0.461,0.019 0.703,0.062 0.25,0.051 0.469,0.133 0.656,0.25 0.195,0.113 0.352,0.274 0.469,0.484 0.125,0.207 0.187,0.473 0.187,0.797 0,0.477 -0.136,0.852 -0.406,1.125 -0.262,0.282 -0.652,0.422 -1.172,0.422 -0.48,0 -0.871,-0.137 -1.172,-0.406 -0.293,-0.262 -0.461,-0.637 -0.5,-1.125 l -2.328,0.172 c 0.063,0.539 0.207,1.015 0.438,1.422 0.238,0.406 0.535,0.738 0.89,1 0.364,0.269 0.774,0.468 1.235,0.593 0.468,0.133 0.961,0.204 1.484,0.204 0.688,0 1.274,-0.086 1.766,-0.25 0.488,-0.168 0.89,-0.391 1.203,-0.672 0.32,-0.282 0.555,-0.617 0.703,-1 0.156,-0.375 0.234,-0.778 0.234,-1.203 0,-0.336 -0.054,-0.653 -0.156,-0.954 -0.094,-0.293 -0.246,-0.558 -0.453,-0.796 -0.199,-0.231 -0.461,-0.434 -0.781,-0.61 -0.313,-0.168 -0.684,-0.293 -1.11,-0.375 l 0,-0.031 c 0.477,-0.055 0.895,-0.164 1.25,-0.328 0.352,-0.168 0.645,-0.371 0.875,-0.61 0.227,-0.242 0.395,-0.515 0.5,-0.828 0.114,-0.304 0.172,-0.625 0.172,-0.968 z" /><path
         id="path70"
         style="fill:#000000;fill-opacity:1;fill-rule:nonzero;stroke:none"
         d="m 263.965,12.816 0,1.625 c 0.258,0.57 0.582,1.094 0.969,1.563 0.382,0.468 0.785,0.894 1.203,1.281 0.414,0.394 0.828,0.758 1.234,1.094 0.414,0.332 0.785,0.656 1.109,0.968 0.332,0.313 0.598,0.625 0.797,0.938 0.207,0.32 0.313,0.66 0.313,1.015 0,0.52 -0.133,0.907 -0.391,1.157 -0.25,0.25 -0.633,0.375 -1.14,0.375 -0.5,0 -0.883,-0.137 -1.141,-0.407 -0.262,-0.273 -0.434,-0.671 -0.516,-1.203 l -2.343,0.125 c 0.05,0.457 0.16,0.891 0.328,1.297 0.175,0.406 0.422,0.758 0.734,1.063 0.32,0.301 0.723,0.539 1.203,0.718 0.477,0.176 1.051,0.266 1.719,0.266 0.633,0 1.191,-0.074 1.672,-0.219 0.488,-0.148 0.898,-0.367 1.234,-0.656 0.332,-0.281 0.582,-0.625 0.75,-1.031 0.176,-0.406 0.266,-0.871 0.266,-1.391 0,-0.543 -0.11,-1.039 -0.328,-1.484 -0.219,-0.438 -0.496,-0.844 -0.828,-1.219 -0.336,-0.375 -0.711,-0.73 -1.125,-1.062 -0.418,-0.325 -0.821,-0.641 -1.204,-0.954 -0.386,-0.304 -0.742,-0.617 -1.062,-0.937 -0.313,-0.313 -0.547,-0.648 -0.703,-1 l 5.437,0 0,-1.922 -8.187,0 z" /><path
         id="path72"
         style="fill:#000000;fill-opacity:1;fill-rule:nonzero;stroke:none"
         d="m 276.477,13.363 c 0,-0.375 -0.024,-0.711 -0.063,-1.016 -0.043,-0.3 -0.105,-0.578 -0.187,-0.828 -0.075,-0.258 -0.168,-0.5 -0.282,-0.719 -0.117,-0.218 -0.242,-0.421 -0.375,-0.609 l -1.531,0 c 0.156,0.188 0.301,0.391 0.438,0.609 0.132,0.219 0.25,0.446 0.343,0.672 0.102,0.219 0.18,0.446 0.235,0.672 0.062,0.231 0.093,0.453 0.093,0.672 l -1.078,0 0,2.531 2.407,0 0,-1.984 z" /><path
         id="path74"
         style="fill:#000000;fill-opacity:1;fill-rule:nonzero;stroke:none"
         d="m 286.605,16.707 c 0,-0.586 -0.093,-1.125 -0.281,-1.625 -0.187,-0.492 -0.465,-0.918 -0.828,-1.282 -0.367,-0.367 -0.82,-0.652 -1.359,-0.859 -0.532,-0.195 -1.153,-0.297 -1.86,-0.297 -0.656,0 -1.23,0.078 -1.718,0.235 -0.493,0.164 -0.903,0.382 -1.235,0.656 -0.336,0.281 -0.601,0.609 -0.797,0.984 -0.187,0.383 -0.32,0.789 -0.39,1.219 l 2.343,0.187 c 0.04,-0.179 0.098,-0.355 0.172,-0.531 0.082,-0.168 0.196,-0.32 0.344,-0.453 0.145,-0.137 0.32,-0.246 0.531,-0.328 0.207,-0.074 0.461,-0.109 0.766,-0.109 0.582,0 1.047,0.179 1.391,0.546 0.343,0.375 0.515,0.911 0.515,1.61 0,0.312 -0.043,0.594 -0.125,0.844 -0.086,0.25 -0.203,0.461 -0.359,0.64 -0.156,0.176 -0.356,0.313 -0.594,0.406 -0.23,0.094 -0.492,0.141 -0.781,0.141 -0.387,0 -0.703,-0.078 -0.953,-0.234 -0.25,-0.149 -0.461,-0.324 -0.625,-0.532 l -2.282,0 0.407,6.594 7.031,0 0,-1.734 -4.906,0 -0.188,-2.969 c 0.227,0.207 0.52,0.383 0.875,0.531 0.352,0.145 0.766,0.219 1.235,0.219 0.57,0 1.082,-0.094 1.531,-0.281 0.457,-0.188 0.844,-0.453 1.156,-0.797 0.32,-0.336 0.567,-0.742 0.734,-1.219 0.165,-0.469 0.25,-0.992 0.25,-1.562 z" /><path
         id="path76"
         style="fill:#000000;fill-opacity:1;fill-rule:nonzero;stroke:none"
         d="m 294.93,15.191 0,-2.375 -2.219,0 0,2.375 -5.328,0 0,1.766 4.953,7.562 2.594,0 0,-7.578 1.562,0 0,-1.75 -1.562,0 z m -2.219,5.563 c 0,0.093 0,0.218 0,0.375 0.008,0.156 0.016,0.312 0.016,0.468 0.007,0.157 0.019,0.305 0.031,0.453 0.008,0.157 0.019,0.274 0.031,0.36 -0.031,-0.063 -0.078,-0.152 -0.141,-0.266 -0.062,-0.117 -0.132,-0.242 -0.203,-0.375 -0.074,-0.125 -0.152,-0.25 -0.234,-0.375 -0.074,-0.125 -0.141,-0.234 -0.203,-0.328 l -2.719,-4.125 3.422,0 0,3.813 z" /><path
         id="path78"
         style="fill:#000000;fill-opacity:1;fill-rule:nonzero;stroke:none"
         d="m 219.488,200.785 2.848,0 0,-2.848 -2.848,0 0,2.848 z" /><path
         id="path80"
         style="fill:#000000;fill-opacity:1;fill-rule:nonzero;stroke:none"
         d="m 134.047,200.785 2.848,0 0,-2.848 -2.848,0 0,2.848 z" /><g
         transform="matrix(0,-1,-1,0,0,256.32001)"
         id="g82"><path
           id="path84"
           style="fill:none;stroke:#000000;stroke-width:2.84800005;stroke-linecap:round;stroke-linejoin:round;stroke-miterlimit:10;stroke-dasharray:none;stroke-opacity:1"
           d="m 54.305,-192.434 c -4.317,0.008 -7.817,-3.168 -7.832,-7.097 -0.008,-3.93 3.472,-7.125 7.789,-7.141 l 0.019,0" /></g><g
         transform="matrix(0,-1,-1,0,0,256.32001)"
         id="g86"><path
           id="path88"
           style="fill:none;stroke:#000000;stroke-width:2.84800005;stroke-linecap:round;stroke-linejoin:round;stroke-miterlimit:10;stroke-dasharray:none;stroke-opacity:1"
           d="m 54.113,-206.672 2.848,0" /></g><g
         transform="matrix(0,-1,-1,0,0,256.32001)"
         id="g90"><path
           id="path92"
           style="fill:none;stroke:#000000;stroke-width:2.84800005;stroke-linecap:round;stroke-linejoin:round;stroke-miterlimit:10;stroke-dasharray:none;stroke-opacity:1"
           d="m 54.113,-192.434 2.848,0" /></g><g
         transform="matrix(0,-1,-1,0,0,256.32001)"
         id="g94"><path
           id="path96"
           style="fill:none;stroke:#000000;stroke-width:2.84800005;stroke-linecap:round;stroke-linejoin:round;stroke-miterlimit:10;stroke-dasharray:none;stroke-opacity:1"
           d="m 54.305,-178.191 c -4.317,0.007 -7.817,-3.168 -7.832,-7.098 -0.008,-3.934 3.472,-7.129 7.789,-7.145 l 0.019,0" /></g><g
         transform="matrix(0,-1,-1,0,0,256.32001)"
         id="g98"><path
           id="path100"
           style="fill:none;stroke:#000000;stroke-width:2.84800005;stroke-linecap:round;stroke-linejoin:round;stroke-miterlimit:10;stroke-dasharray:none;stroke-opacity:1"
           d="m 54.113,-192.434 2.848,0" /></g><g
         transform="matrix(0,-1,-1,0,0,256.32001)"
         id="g102"><path
           id="path104"
           style="fill:none;stroke:#000000;stroke-width:2.84800005;stroke-linecap:round;stroke-linejoin:round;stroke-miterlimit:10;stroke-dasharray:none;stroke-opacity:1"
           d="m 54.113,-178.191 2.848,0" /></g><g
         transform="matrix(0,-1,-1,0,0,256.32001)"
         id="g106"><path
           id="path108"
           style="fill:none;stroke:#000000;stroke-width:2.84800005;stroke-linecap:round;stroke-linejoin:round;stroke-miterlimit:10;stroke-dasharray:none;stroke-opacity:1"
           d="m 54.305,-163.953 c -4.317,0.008 -7.817,-3.168 -7.832,-7.098 -0.008,-3.929 3.472,-7.129 7.789,-7.14 l 0.019,0" /></g><g
         transform="matrix(0,-1,-1,0,0,256.32001)"
         id="g110"><path
           id="path112"
           style="fill:none;stroke:#000000;stroke-width:2.84800005;stroke-linecap:round;stroke-linejoin:round;stroke-miterlimit:10;stroke-dasharray:none;stroke-opacity:1"
           d="m 54.113,-178.191 2.848,0" /></g><g
         transform="matrix(0,-1,-1,0,0,256.32001)"
         id="g114"><path
           id="path116"
           style="fill:none;stroke:#000000;stroke-width:2.84800005;stroke-linecap:round;stroke-linejoin:round;stroke-miterlimit:10;stroke-dasharray:none;stroke-opacity:1"
           d="m 54.113,-163.953 2.848,0" /></g><g
         transform="matrix(0,-1,-1,0,0,256.32001)"
         id="g118"><path
           id="path120"
           style="fill:none;stroke:#000000;stroke-width:2.84800005;stroke-linecap:round;stroke-linejoin:round;stroke-miterlimit:10;stroke-dasharray:none;stroke-opacity:1"
           d="m 54.305,-149.711 c -4.317,0.004 -7.817,-3.168 -7.832,-7.101 -0.008,-3.93 3.472,-7.126 7.789,-7.141 l 0.019,0" /></g><g
         transform="matrix(0,-1,-1,0,0,256.32001)"
         id="g122"><path
           id="path124"
           style="fill:none;stroke:#000000;stroke-width:2.84800005;stroke-linecap:round;stroke-linejoin:round;stroke-miterlimit:10;stroke-dasharray:none;stroke-opacity:1"
           d="m 54.113,-163.953 2.848,0" /></g><g
         transform="matrix(0,-1,-1,0,0,256.32001)"
         id="g126"><path
           id="path128"
           style="fill:none;stroke:#000000;stroke-width:2.84800005;stroke-linecap:round;stroke-linejoin:round;stroke-miterlimit:10;stroke-dasharray:none;stroke-opacity:1"
           d="m 54.113,-149.711 2.848,0" /></g><g
         transform="matrix(0,-1,-1,0,0,256.32001)"
         id="g130"><path
           id="path132"
           style="fill:none;stroke:#000000;stroke-width:2.84800005;stroke-linecap:square;stroke-linejoin:miter;stroke-miterlimit:10;stroke-dasharray:none;stroke-opacity:1"
           d="m 56.961,-219.488 0,11.39" /></g><g
         transform="matrix(0,-1,-1,0,0,256.32001)"
         id="g134"><path
           id="path136"
           style="fill:none;stroke:#000000;stroke-width:2.84800005;stroke-linecap:square;stroke-linejoin:miter;stroke-miterlimit:10;stroke-dasharray:none;stroke-opacity:1"
           d="m 56.961,-148.289 0,11.394" /></g><path
         id="path138"
         style="fill:#000000;fill-opacity:1;fill-rule:nonzero;stroke:none"
         d="m 168.184,37.687 c -0.594,0 -1.122,0.063 -1.579,0.188 -0.449,0.117 -0.835,0.281 -1.156,0.5 -0.312,0.211 -0.57,0.465 -0.765,0.765 -0.188,0.293 -0.313,0.618 -0.375,0.969 l 2.328,0.281 c 0.082,-0.363 0.258,-0.644 0.531,-0.843 0.27,-0.207 0.629,-0.313 1.078,-0.313 0.27,0 0.52,0.043 0.75,0.125 0.238,0.074 0.438,0.203 0.594,0.391 0.164,0.179 0.289,0.422 0.375,0.734 0.094,0.305 0.14,0.68 0.14,1.125 0,0.156 0,0.313 0,0.469 0,0.156 0.004,0.301 0.016,0.437 0,0.157 0,0.305 0,0.453 l -0.016,0 c -0.273,-0.585 -0.652,-1.007 -1.14,-1.265 -0.492,-0.262 -1.07,-0.391 -1.735,-0.391 -0.574,0 -1.07,0.11 -1.484,0.328 -0.406,0.227 -0.746,0.539 -1.016,0.938 -0.273,0.406 -0.476,0.883 -0.609,1.437 -0.125,0.563 -0.187,1.176 -0.187,1.844 0,0.695 0.066,1.32 0.203,1.875 0.133,0.563 0.343,1.047 0.625,1.453 0.289,0.406 0.648,0.719 1.078,0.938 0.437,0.218 0.957,0.328 1.562,0.328 0.594,0 1.125,-0.133 1.594,-0.391 0.477,-0.25 0.848,-0.664 1.109,-1.234 l 0.047,0 c 0,0.125 0.004,0.258 0.016,0.406 0.008,0.156 0.02,0.301 0.031,0.438 0.008,0.144 0.02,0.269 0.031,0.375 0.008,0.113 0.024,0.191 0.047,0.234 l 2.203,0 c -0.011,-0.199 -0.023,-0.481 -0.031,-0.844 -0.011,-0.355 -0.015,-0.765 -0.015,-1.234 l 0,-6.625 c 0,-0.656 -0.094,-1.223 -0.282,-1.703 -0.187,-0.489 -0.464,-0.895 -0.828,-1.219 -0.367,-0.32 -0.812,-0.563 -1.344,-0.719 -0.531,-0.164 -1.132,-0.25 -1.796,-0.25 z m 1.937,8.219 c 0,0.57 -0.059,1.047 -0.172,1.422 -0.105,0.375 -0.246,0.672 -0.422,0.89 -0.179,0.227 -0.382,0.391 -0.609,0.485 -0.23,0.094 -0.461,0.14 -0.688,0.14 -0.304,0 -0.57,-0.058 -0.796,-0.171 -0.231,-0.118 -0.43,-0.297 -0.594,-0.547 -0.156,-0.242 -0.278,-0.547 -0.36,-0.922 -0.085,-0.375 -0.125,-0.824 -0.125,-1.344 0,-0.969 0.157,-1.699 0.469,-2.187 0.313,-0.493 0.774,-0.735 1.391,-0.735 0.226,0 0.457,0.039 0.687,0.125 0.227,0.094 0.43,0.254 0.61,0.485 0.187,0.226 0.332,0.535 0.437,0.921 0.113,0.383 0.172,0.864 0.172,1.438 z" /><path
         id="path140"
         style="fill:#000000;fill-opacity:1;fill-rule:nonzero;stroke:none"
         d="m 174.27,41.297 0,1.625 c 0.257,0.57 0.582,1.093 0.968,1.562 0.383,0.469 0.785,0.895 1.203,1.281 0.414,0.395 0.829,0.758 1.235,1.094 0.414,0.332 0.785,0.656 1.109,0.969 0.332,0.312 0.598,0.625 0.797,0.937 0.207,0.321 0.313,0.66 0.313,1.016 0,0.519 -0.133,0.906 -0.391,1.156 -0.25,0.25 -0.633,0.375 -1.141,0.375 -0.5,0 -0.883,-0.137 -1.14,-0.406 -0.262,-0.273 -0.434,-0.672 -0.516,-1.203 l -2.344,0.125 c 0.051,0.457 0.16,0.89 0.328,1.297 0.176,0.406 0.422,0.758 0.735,1.062 0.32,0.301 0.722,0.539 1.203,0.719 0.476,0.176 1.051,0.266 1.719,0.266 0.632,0 1.191,-0.075 1.672,-0.219 0.488,-0.149 0.898,-0.367 1.234,-0.656 0.332,-0.282 0.582,-0.625 0.75,-1.032 0.176,-0.406 0.266,-0.871 0.266,-1.39 0,-0.543 -0.11,-1.039 -0.329,-1.485 -0.218,-0.437 -0.496,-0.843 -0.828,-1.218 -0.336,-0.375 -0.711,-0.731 -1.125,-1.063 -0.418,-0.324 -0.82,-0.641 -1.203,-0.953 -0.387,-0.305 -0.742,-0.617 -1.062,-0.938 -0.313,-0.312 -0.547,-0.648 -0.703,-1 l 5.437,0 0,-1.921 -8.187,0 z" /><path
         id="path142"
         style="fill:#000000;fill-opacity:1;fill-rule:nonzero;stroke:none"
         d="m 163.344,13.527 0,1.734 2.89,0 0,7.985 -2.812,-1.766 0,1.844 2.937,1.906 2.203,0 0,-9.969 2.688,0 0,-1.734 -7.906,0 z" /><path
         id="path144"
         style="fill:#000000;fill-opacity:1;fill-rule:nonzero;stroke:none"
         d="m 175.371,14.074 c 0,-0.375 -0.023,-0.711 -0.062,-1.016 -0.043,-0.3 -0.106,-0.578 -0.188,-0.828 -0.074,-0.258 -0.168,-0.5 -0.281,-0.719 -0.117,-0.218 -0.242,-0.421 -0.375,-0.609 l -1.531,0 c 0.156,0.188 0.3,0.391 0.437,0.609 0.133,0.219 0.25,0.446 0.344,0.672 0.101,0.219 0.18,0.446 0.234,0.672 0.063,0.231 0.094,0.453 0.094,0.672 l -1.078,0 0,2.531 2.406,0 0,-1.984 z" /><path
         id="path146"
         style="fill:#000000;fill-opacity:1;fill-rule:nonzero;stroke:none"
         d="m 177.113,13.527 0,1.625 c 0.258,0.57 0.582,1.094 0.969,1.563 0.383,0.468 0.785,0.894 1.203,1.281 0.414,0.394 0.828,0.758 1.235,1.094 0.414,0.332 0.785,0.656 1.109,0.968 0.332,0.313 0.598,0.625 0.797,0.938 0.207,0.32 0.312,0.66 0.312,1.015 0,0.52 -0.133,0.907 -0.39,1.157 -0.25,0.25 -0.633,0.375 -1.141,0.375 -0.5,0 -0.883,-0.137 -1.141,-0.407 -0.261,-0.273 -0.433,-0.671 -0.515,-1.203 l -2.344,0.125 c 0.051,0.457 0.16,0.891 0.328,1.297 0.176,0.406 0.422,0.758 0.735,1.063 0.32,0.3 0.722,0.539 1.203,0.718 0.476,0.176 1.05,0.266 1.718,0.266 0.633,0 1.192,-0.074 1.672,-0.219 0.489,-0.148 0.899,-0.367 1.235,-0.656 0.332,-0.281 0.582,-0.625 0.75,-1.031 0.175,-0.406 0.265,-0.871 0.265,-1.391 0,-0.543 -0.109,-1.039 -0.328,-1.484 -0.219,-0.438 -0.496,-0.844 -0.828,-1.219 -0.336,-0.375 -0.711,-0.73 -1.125,-1.062 -0.418,-0.325 -0.82,-0.641 -1.203,-0.954 -0.387,-0.304 -0.742,-0.617 -1.063,-0.937 -0.312,-0.313 -0.546,-0.649 -0.703,-1 l 5.438,0 0,-1.922 -8.188,0 z" /><path
         id="path148"
         style="fill:#000000;fill-opacity:1;fill-rule:nonzero;stroke:none"
         d="m 194.875,16.777 c 0,-0.531 -0.09,-1.012 -0.266,-1.437 -0.179,-0.43 -0.445,-0.793 -0.797,-1.094 -0.343,-0.293 -0.777,-0.516 -1.296,-0.672 -0.512,-0.156 -1.11,-0.234 -1.797,-0.234 -0.762,0 -1.407,0.093 -1.938,0.281 -0.523,0.195 -0.949,0.453 -1.281,0.765 -0.336,0.321 -0.586,0.688 -0.75,1.094 -0.168,0.406 -0.277,0.813 -0.328,1.219 l 2.375,0.219 c 0.031,-0.25 0.094,-0.481 0.187,-0.688 0.094,-0.211 0.211,-0.39 0.36,-0.547 0.156,-0.148 0.344,-0.261 0.562,-0.343 0.227,-0.075 0.5,-0.11 0.813,-0.11 0.551,0 0.984,0.133 1.297,0.406 0.312,0.282 0.468,0.707 0.468,1.282 0,0.343 -0.074,0.617 -0.218,0.828 -0.149,0.219 -0.336,0.379 -0.563,0.484 -0.219,0.113 -0.461,0.192 -0.719,0.235 -0.261,0.039 -0.511,0.062 -0.75,0.062 l -0.812,0 0,1.875 0.766,0 c 0.226,0 0.46,0.02 0.703,0.063 0.25,0.05 0.468,0.132 0.656,0.25 0.195,0.113 0.351,0.273 0.469,0.484 0.125,0.207 0.187,0.473 0.187,0.797 0,0.476 -0.137,0.851 -0.406,1.125 -0.262,0.281 -0.652,0.422 -1.172,0.422 -0.48,0 -0.871,-0.137 -1.172,-0.407 -0.293,-0.261 -0.461,-0.636 -0.5,-1.125 l -2.328,0.172 c 0.063,0.539 0.207,1.016 0.437,1.422 0.239,0.406 0.536,0.738 0.891,1 0.363,0.27 0.774,0.469 1.235,0.594 0.468,0.133 0.96,0.203 1.484,0.203 0.687,0 1.273,-0.086 1.766,-0.25 0.488,-0.168 0.89,-0.391 1.203,-0.672 0.32,-0.281 0.554,-0.617 0.703,-1 0.156,-0.375 0.234,-0.777 0.234,-1.203 0,-0.336 -0.055,-0.652 -0.156,-0.953 -0.094,-0.293 -0.246,-0.559 -0.453,-0.797 -0.199,-0.23 -0.461,-0.434 -0.781,-0.609 -0.313,-0.168 -0.684,-0.293 -1.11,-0.375 l 0,-0.032 c 0.477,-0.054 0.895,-0.164 1.25,-0.328 0.352,-0.168 0.645,-0.371 0.875,-0.609 0.227,-0.242 0.395,-0.516 0.5,-0.828 0.113,-0.305 0.172,-0.625 0.172,-0.969 z" /><path
         id="path150"
         style="fill:#000000;fill-opacity:1;fill-rule:nonzero;stroke:none"
         d="m 475.809,172.304 2.848,0 0,-2.848 -2.848,0 0,2.848 z" /><path
         id="path152"
         style="fill:#000000;fill-opacity:1;fill-rule:nonzero;stroke:none"
         d="m 475.809,101.105 2.848,0 0,-2.848 -2.848,0 0,2.848 z" /><g
         transform="matrix(1,0,0,-1,0,256.32001)"
         id="g154"><path
           id="path156"
           style="fill:none;stroke:#000000;stroke-width:2.84800005;stroke-linecap:round;stroke-linejoin:miter;stroke-miterlimit:10;stroke-dasharray:none;stroke-opacity:1"
           d="m 461.566,115.344 31.329,0" /></g><g
         transform="matrix(1,0,0,-1,0,256.32001)"
         id="g158"><path
           id="path160"
           style="fill:none;stroke:#000000;stroke-width:2.84800005;stroke-linecap:round;stroke-linejoin:miter;stroke-miterlimit:10;stroke-dasharray:none;stroke-opacity:1"
           d="m 461.566,126.734 31.329,0" /></g><g
         transform="matrix(1,0,0,-1,0,256.32001)"
         id="g162"><path
           id="path164"
           style="fill:none;stroke:#000000;stroke-width:2.84800005;stroke-linecap:square;stroke-linejoin:miter;stroke-miterlimit:10;stroke-dasharray:none;stroke-opacity:1"
           d="m 477.23,86.863 0,27.059" /></g><g
         transform="matrix(1,0,0,-1,0,256.32001)"
         id="g166"><path
           id="path168"
           style="fill:none;stroke:#000000;stroke-width:2.84800005;stroke-linecap:square;stroke-linejoin:miter;stroke-miterlimit:10;stroke-dasharray:none;stroke-opacity:1"
           d="m 477.23,128.16 0,27.055" /></g><path
         id="path170"
         style="fill:#000000;fill-opacity:1;fill-rule:nonzero;stroke:none"
         d="m 466.512,38.398 c -0.594,0 -1.121,0.063 -1.578,0.188 -0.45,0.117 -0.836,0.281 -1.157,0.5 -0.312,0.211 -0.57,0.464 -0.765,0.765 -0.188,0.293 -0.313,0.617 -0.375,0.969 l 2.328,0.281 c 0.082,-0.363 0.258,-0.644 0.531,-0.843 0.27,-0.208 0.629,-0.313 1.078,-0.313 0.27,0 0.52,0.043 0.75,0.125 0.238,0.074 0.438,0.203 0.594,0.391 0.164,0.179 0.289,0.422 0.375,0.734 0.094,0.305 0.141,0.68 0.141,1.125 0,0.156 0,0.313 0,0.469 0,0.156 0.004,0.301 0.015,0.437 0,0.157 0,0.305 0,0.453 l -0.015,0 c -0.274,-0.586 -0.653,-1.007 -1.141,-1.265 -0.492,-0.262 -1.07,-0.391 -1.734,-0.391 -0.575,0 -1.071,0.11 -1.485,0.328 -0.406,0.227 -0.746,0.539 -1.015,0.938 -0.274,0.406 -0.477,0.883 -0.61,1.437 -0.125,0.563 -0.187,1.176 -0.187,1.844 0,0.695 0.066,1.32 0.203,1.875 0.133,0.563 0.344,1.047 0.625,1.453 0.289,0.406 0.648,0.719 1.078,0.938 0.437,0.218 0.957,0.328 1.562,0.328 0.594,0 1.125,-0.133 1.594,-0.391 0.477,-0.25 0.848,-0.664 1.11,-1.234 l 0.046,0 c 0,0.125 0.004,0.258 0.016,0.406 0.008,0.156 0.02,0.301 0.031,0.438 0.008,0.144 0.02,0.269 0.032,0.375 0.007,0.113 0.023,0.191 0.046,0.234 l 2.204,0 c -0.012,-0.199 -0.024,-0.481 -0.032,-0.844 -0.011,-0.355 -0.015,-0.765 -0.015,-1.234 l 0,-6.625 c 0,-0.656 -0.094,-1.223 -0.282,-1.703 -0.187,-0.489 -0.464,-0.895 -0.828,-1.219 -0.367,-0.32 -0.812,-0.563 -1.343,-0.719 -0.532,-0.164 -1.133,-0.25 -1.797,-0.25 z m 1.937,8.219 c 0,0.57 -0.058,1.047 -0.172,1.422 -0.105,0.375 -0.246,0.672 -0.422,0.89 -0.179,0.227 -0.382,0.391 -0.609,0.485 -0.23,0.094 -0.461,0.14 -0.687,0.14 -0.305,0 -0.571,-0.058 -0.797,-0.171 -0.231,-0.118 -0.43,-0.297 -0.594,-0.547 -0.156,-0.243 -0.277,-0.547 -0.359,-0.922 -0.086,-0.375 -0.125,-0.824 -0.125,-1.344 0,-0.969 0.156,-1.699 0.468,-2.187 0.313,-0.493 0.774,-0.735 1.391,-0.735 0.227,0 0.457,0.039 0.687,0.125 0.227,0.094 0.43,0.254 0.61,0.485 0.187,0.226 0.332,0.535 0.437,0.921 0.114,0.383 0.172,0.864 0.172,1.438 z" /><path
         id="path172"
         style="fill:#000000;fill-opacity:1;fill-rule:nonzero;stroke:none"
         d="m 480.988,45.898 c 0,-0.586 -0.093,-1.125 -0.281,-1.625 -0.187,-0.492 -0.465,-0.918 -0.828,-1.281 -0.367,-0.367 -0.82,-0.652 -1.359,-0.859 -0.532,-0.196 -1.153,-0.297 -1.86,-0.297 -0.656,0 -1.23,0.078 -1.719,0.234 -0.492,0.164 -0.902,0.383 -1.234,0.656 -0.336,0.282 -0.602,0.61 -0.797,0.985 -0.187,0.382 -0.32,0.789 -0.39,1.218 l 2.343,0.188 c 0.039,-0.18 0.098,-0.356 0.172,-0.531 0.082,-0.168 0.195,-0.321 0.344,-0.453 0.144,-0.137 0.32,-0.247 0.531,-0.329 0.207,-0.074 0.461,-0.109 0.766,-0.109 0.582,0 1.047,0.18 1.39,0.547 0.344,0.375 0.516,0.91 0.516,1.609 0,0.313 -0.043,0.594 -0.125,0.844 -0.086,0.25 -0.203,0.461 -0.359,0.641 -0.157,0.175 -0.356,0.312 -0.594,0.406 -0.231,0.094 -0.492,0.141 -0.781,0.141 -0.387,0 -0.703,-0.079 -0.953,-0.235 -0.25,-0.148 -0.461,-0.324 -0.625,-0.531 l -2.282,0 0.407,6.594 7.031,0 0,-1.735 -4.906,0 -0.188,-2.968 c 0.227,0.207 0.52,0.382 0.875,0.531 0.352,0.144 0.766,0.219 1.234,0.219 0.571,0 1.082,-0.094 1.532,-0.282 0.457,-0.187 0.843,-0.453 1.156,-0.797 0.32,-0.336 0.566,-0.742 0.734,-1.218 0.164,-0.469 0.25,-0.993 0.25,-1.563 z" /><path
         id="path174"
         style="fill:#000000;fill-opacity:1;fill-rule:nonzero;stroke:none"
         d="m 463.809,12.816 0,1.734 2.89,0 0,7.985 -2.812,-1.766 0,1.844 2.937,1.906 2.203,0 0,-9.969 2.688,0 0,-1.734 -7.906,0 z" /><path
         id="path176"
         style="fill:#000000;fill-opacity:1;fill-rule:nonzero;stroke:none"
         d="m 475.836,13.363 c 0,-0.375 -0.024,-0.711 -0.063,-1.016 -0.043,-0.3 -0.105,-0.578 -0.187,-0.828 -0.074,-0.258 -0.168,-0.5 -0.281,-0.719 -0.117,-0.218 -0.243,-0.421 -0.375,-0.609 l -1.532,0 c 0.157,0.188 0.301,0.391 0.438,0.609 0.133,0.219 0.25,0.446 0.344,0.672 0.101,0.219 0.179,0.446 0.234,0.672 0.063,0.231 0.094,0.453 0.094,0.672 l -1.078,0 0,2.531 2.406,0 0,-1.984 z" /><path
         id="path178"
         style="fill:#000000;fill-opacity:1;fill-rule:nonzero;stroke:none"
         d="m 485.684,22.66 c -0.524,-0.836 -1.016,-1.641 -1.485,-2.422 -0.469,-0.773 -0.883,-1.555 -1.234,-2.344 -0.344,-0.793 -0.621,-1.605 -0.828,-2.437 -0.199,-0.836 -0.297,-1.715 -0.297,-2.641 l -2.422,0 c 0,0.926 0.109,1.805 0.328,2.641 0.219,0.832 0.516,1.644 0.891,2.437 0.375,0.789 0.812,1.571 1.312,2.344 0.5,0.77 1.024,1.555 1.578,2.359 l -5.812,0 0,1.922 7.969,0 0,-1.859 z" /><path
         id="path180"
         style="fill:#000000;fill-opacity:1;fill-rule:nonzero;stroke:none"
         d="m 495.242,18.675 c 0,-1.125 -0.105,-2.074 -0.312,-2.843 -0.2,-0.762 -0.481,-1.383 -0.844,-1.86 -0.356,-0.468 -0.781,-0.808 -1.281,-1.015 -0.5,-0.207 -1.043,-0.313 -1.625,-0.313 -0.586,0 -1.125,0.106 -1.625,0.313 -0.493,0.207 -0.914,0.547 -1.266,1.015 -0.355,0.477 -0.633,1.098 -0.828,1.86 -0.199,0.769 -0.297,1.718 -0.297,2.843 0,1.176 0.098,2.149 0.297,2.922 0.195,0.77 0.473,1.383 0.828,1.844 0.363,0.457 0.797,0.781 1.297,0.969 0.5,0.187 1.051,0.281 1.656,0.281 0.57,0 1.102,-0.094 1.594,-0.281 0.488,-0.188 0.91,-0.512 1.266,-0.969 0.363,-0.461 0.644,-1.074 0.843,-1.844 0.196,-0.773 0.297,-1.746 0.297,-2.922 z m -2.328,0 c 0,0.821 -0.031,1.5 -0.094,2.032 -0.062,0.539 -0.164,0.968 -0.297,1.281 -0.136,0.32 -0.308,0.547 -0.515,0.672 -0.211,0.133 -0.469,0.203 -0.781,0.203 -0.325,0 -0.594,-0.07 -0.813,-0.203 -0.219,-0.125 -0.402,-0.352 -0.547,-0.672 -0.137,-0.324 -0.234,-0.758 -0.297,-1.297 -0.054,-0.531 -0.078,-1.203 -0.078,-2.016 0,-0.804 0.031,-1.476 0.094,-2.015 0.062,-0.543 0.16,-0.977 0.297,-1.297 0.133,-0.324 0.305,-0.555 0.515,-0.688 0.219,-0.125 0.485,-0.187 0.797,-0.187 0.301,0 0.563,0.062 0.782,0.187 0.218,0.133 0.394,0.364 0.531,0.688 0.133,0.32 0.234,0.754 0.297,1.297 0.07,0.539 0.109,1.211 0.109,2.015 z" /><path
         id="path182"
         style="fill:#000000;fill-opacity:1;fill-rule:nonzero;stroke:none"
         d="m 418.848,200.785 2.848,0 0,-2.848 -2.848,0 0,2.848 z" /><path
         id="path184"
         style="fill:#000000;fill-opacity:1;fill-rule:nonzero;stroke:none"
         d="m 333.41,200.785 2.848,0 0,-2.848 -2.848,0 0,2.848 z" /><g
         transform="matrix(0,-1,-1,0,0,256.32001)"
         id="g186"><path
           id="path188"
           style="fill:none;stroke:#000000;stroke-width:2.84800005;stroke-linecap:round;stroke-linejoin:round;stroke-miterlimit:10;stroke-dasharray:none;stroke-opacity:1"
           d="m 54.305,-391.793 c -4.317,0.008 -7.817,-3.168 -7.832,-7.098 -0.008,-3.929 3.472,-7.129 7.789,-7.14 l 0.019,0" /></g><g
         transform="matrix(0,-1,-1,0,0,256.32001)"
         id="g190"><path
           id="path192"
           style="fill:none;stroke:#000000;stroke-width:2.84800005;stroke-linecap:round;stroke-linejoin:round;stroke-miterlimit:10;stroke-dasharray:none;stroke-opacity:1"
           d="m 54.113,-406.031 2.848,0" /></g><g
         transform="matrix(0,-1,-1,0,0,256.32001)"
         id="g194"><path
           id="path196"
           style="fill:none;stroke:#000000;stroke-width:2.84800005;stroke-linecap:round;stroke-linejoin:round;stroke-miterlimit:10;stroke-dasharray:none;stroke-opacity:1"
           d="m 54.113,-391.793 2.848,0" /></g><g
         transform="matrix(0,-1,-1,0,0,256.32001)"
         id="g198"><path
           id="path200"
           style="fill:none;stroke:#000000;stroke-width:2.84800005;stroke-linecap:round;stroke-linejoin:round;stroke-miterlimit:10;stroke-dasharray:none;stroke-opacity:1"
           d="m 54.305,-377.551 c -4.317,0.004 -7.817,-3.168 -7.832,-7.101 -0.008,-3.93 3.472,-7.125 7.789,-7.141 l 0.019,0" /></g><g
         transform="matrix(0,-1,-1,0,0,256.32001)"
         id="g202"><path
           id="path204"
           style="fill:none;stroke:#000000;stroke-width:2.84800005;stroke-linecap:round;stroke-linejoin:round;stroke-miterlimit:10;stroke-dasharray:none;stroke-opacity:1"
           d="m 54.113,-391.793 2.848,0" /></g><g
         transform="matrix(0,-1,-1,0,0,256.32001)"
         id="g206"><path
           id="path208"
           style="fill:none;stroke:#000000;stroke-width:2.84800005;stroke-linecap:round;stroke-linejoin:round;stroke-miterlimit:10;stroke-dasharray:none;stroke-opacity:1"
           d="m 54.113,-377.551 2.848,0" /></g><g
         transform="matrix(0,-1,-1,0,0,256.32001)"
         id="g210"><path
           id="path212"
           style="fill:none;stroke:#000000;stroke-width:2.84800005;stroke-linecap:round;stroke-linejoin:round;stroke-miterlimit:10;stroke-dasharray:none;stroke-opacity:1"
           d="m 54.305,-363.312 c -4.317,0.007 -7.817,-3.168 -7.832,-7.098 -0.008,-3.93 3.472,-7.129 7.789,-7.141 l 0.019,0" /></g><g
         transform="matrix(0,-1,-1,0,0,256.32001)"
         id="g214"><path
           id="path216"
           style="fill:none;stroke:#000000;stroke-width:2.84800005;stroke-linecap:round;stroke-linejoin:round;stroke-miterlimit:10;stroke-dasharray:none;stroke-opacity:1"
           d="m 54.113,-377.551 2.848,0" /></g><g
         transform="matrix(0,-1,-1,0,0,256.32001)"
         id="g218"><path
           id="path220"
           style="fill:none;stroke:#000000;stroke-width:2.84800005;stroke-linecap:round;stroke-linejoin:round;stroke-miterlimit:10;stroke-dasharray:none;stroke-opacity:1"
           d="m 54.113,-363.312 2.848,0" /></g><g
         transform="matrix(0,-1,-1,0,0,256.32001)"
         id="g222"><path
           id="path224"
           style="fill:none;stroke:#000000;stroke-width:2.84800005;stroke-linecap:round;stroke-linejoin:round;stroke-miterlimit:10;stroke-dasharray:none;stroke-opacity:1"
           d="m 54.305,-349.07 c -4.317,0.004 -7.817,-3.172 -7.832,-7.102 -0.008,-3.93 3.472,-7.125 7.789,-7.14 l 0.019,0" /></g><g
         transform="matrix(0,-1,-1,0,0,256.32001)"
         id="g226"><path
           id="path228"
           style="fill:none;stroke:#000000;stroke-width:2.84800005;stroke-linecap:round;stroke-linejoin:round;stroke-miterlimit:10;stroke-dasharray:none;stroke-opacity:1"
           d="m 54.113,-363.312 2.848,0" /></g><g
         transform="matrix(0,-1,-1,0,0,256.32001)"
         id="g230"><path
           id="path232"
           style="fill:none;stroke:#000000;stroke-width:2.84800005;stroke-linecap:round;stroke-linejoin:round;stroke-miterlimit:10;stroke-dasharray:none;stroke-opacity:1"
           d="m 54.113,-349.07 2.848,0" /></g><g
         transform="matrix(0,-1,-1,0,0,256.32001)"
         id="g234"><path
           id="path236"
           style="fill:none;stroke:#000000;stroke-width:2.84800005;stroke-linecap:square;stroke-linejoin:miter;stroke-miterlimit:10;stroke-dasharray:none;stroke-opacity:1"
           d="m 56.961,-418.848 0,11.391" /></g><g
         transform="matrix(0,-1,-1,0,0,256.32001)"
         id="g238"><path
           id="path240"
           style="fill:none;stroke:#000000;stroke-width:2.84800005;stroke-linecap:square;stroke-linejoin:miter;stroke-miterlimit:10;stroke-dasharray:none;stroke-opacity:1"
           d="m 56.961,-347.648 0,11.39" /></g><path
         id="path242"
         style="fill:#000000;fill-opacity:1;fill-rule:nonzero;stroke:none"
         d="m 367.543,37.687 c -0.594,0 -1.121,0.063 -1.578,0.188 -0.449,0.117 -0.836,0.281 -1.156,0.5 -0.313,0.211 -0.571,0.465 -0.766,0.765 -0.188,0.293 -0.313,0.618 -0.375,0.969 l 2.328,0.281 c 0.082,-0.363 0.258,-0.644 0.531,-0.843 0.27,-0.207 0.629,-0.313 1.078,-0.313 0.27,0 0.52,0.043 0.75,0.125 0.239,0.074 0.438,0.203 0.594,0.391 0.164,0.179 0.289,0.422 0.375,0.734 0.094,0.305 0.141,0.68 0.141,1.125 0,0.156 0,0.313 0,0.469 0,0.156 0.004,0.301 0.015,0.437 0,0.157 0,0.305 0,0.453 l -0.015,0 c -0.274,-0.585 -0.653,-1.007 -1.141,-1.265 -0.492,-0.262 -1.07,-0.391 -1.734,-0.391 -0.574,0 -1.07,0.11 -1.485,0.328 -0.406,0.227 -0.746,0.539 -1.015,0.938 -0.274,0.406 -0.477,0.883 -0.61,1.437 -0.125,0.563 -0.187,1.176 -0.187,1.844 0,0.695 0.066,1.32 0.203,1.875 0.133,0.563 0.344,1.047 0.625,1.453 0.289,0.406 0.649,0.719 1.078,0.938 0.438,0.218 0.957,0.328 1.563,0.328 0.593,0 1.125,-0.133 1.593,-0.391 0.477,-0.25 0.848,-0.664 1.11,-1.234 l 0.047,0 c 0,0.125 0.004,0.258 0.015,0.406 0.008,0.156 0.02,0.301 0.032,0.438 0.007,0.144 0.019,0.269 0.031,0.375 0.008,0.113 0.023,0.191 0.047,0.234 l 2.203,0 c -0.012,-0.199 -0.024,-0.481 -0.031,-0.844 -0.012,-0.355 -0.016,-0.765 -0.016,-1.234 l 0,-6.625 c 0,-0.656 -0.094,-1.223 -0.281,-1.703 -0.188,-0.489 -0.465,-0.895 -0.828,-1.219 -0.368,-0.32 -0.813,-0.563 -1.344,-0.719 -0.531,-0.164 -1.133,-0.25 -1.797,-0.25 z m 1.937,8.219 c 0,0.57 -0.058,1.047 -0.171,1.422 -0.106,0.375 -0.247,0.672 -0.422,0.89 -0.18,0.227 -0.383,0.391 -0.61,0.485 -0.23,0.094 -0.461,0.14 -0.687,0.14 -0.305,0 -0.57,-0.058 -0.797,-0.171 -0.231,-0.118 -0.43,-0.297 -0.594,-0.547 -0.156,-0.242 -0.277,-0.547 -0.359,-0.922 -0.086,-0.375 -0.125,-0.824 -0.125,-1.344 0,-0.969 0.156,-1.699 0.469,-2.187 0.312,-0.493 0.773,-0.735 1.39,-0.735 0.227,0 0.457,0.039 0.688,0.125 0.226,0.094 0.429,0.254 0.609,0.485 0.188,0.226 0.332,0.535 0.438,0.921 0.113,0.383 0.171,0.864 0.171,1.438 z" /><path
         id="path244"
         style="fill:#000000;fill-opacity:1;fill-rule:nonzero;stroke:none"
         d="m 380.832,43.672 0,-2.375 -2.219,0 0,2.375 -5.328,0 0,1.765 4.953,7.563 2.594,0 0,-7.578 1.563,0 0,-1.75 -1.563,0 z m -2.219,5.562 c 0,0.094 0,0.219 0,0.375 0.008,0.156 0.016,0.313 0.016,0.469 0.008,0.156 0.019,0.305 0.031,0.453 0.008,0.156 0.02,0.273 0.031,0.359 -0.031,-0.062 -0.078,-0.152 -0.14,-0.265 -0.063,-0.117 -0.133,-0.242 -0.203,-0.375 -0.075,-0.125 -0.153,-0.25 -0.235,-0.375 -0.074,-0.125 -0.14,-0.235 -0.203,-0.328 l -2.719,-4.125 3.422,0 0,3.812 z" /><path
         id="path246"
         style="fill:#000000;fill-opacity:1;fill-rule:nonzero;stroke:none"
         d="m 364.129,12.816 0,1.734 2.891,0 0,7.985 -2.813,-1.766 0,1.844 2.938,1.906 2.203,0 0,-9.969 2.687,0 0,-1.734 -7.906,0 z" /><path
         id="path248"
         style="fill:#000000;fill-opacity:1;fill-rule:nonzero;stroke:none"
         d="m 376.156,13.363 c 0,-0.375 -0.023,-0.711 -0.062,-1.016 -0.043,-0.3 -0.106,-0.578 -0.188,-0.828 -0.074,-0.258 -0.168,-0.5 -0.281,-0.719 -0.117,-0.218 -0.242,-0.421 -0.375,-0.609 l -1.531,0 c 0.156,0.188 0.301,0.391 0.437,0.609 0.133,0.219 0.25,0.446 0.344,0.672 0.102,0.219 0.18,0.446 0.234,0.672 0.063,0.231 0.094,0.453 0.094,0.672 l -1.078,0 0,2.531 2.406,0 0,-1.984 z" /><path
         id="path250"
         style="fill:#000000;fill-opacity:1;fill-rule:nonzero;stroke:none"
         d="m 377.895,12.816 0,1.625 c 0.257,0.57 0.582,1.094 0.968,1.563 0.383,0.468 0.785,0.894 1.203,1.281 0.414,0.394 0.829,0.758 1.235,1.094 0.414,0.332 0.785,0.656 1.109,0.968 0.332,0.313 0.598,0.625 0.797,0.938 0.207,0.32 0.313,0.66 0.313,1.015 0,0.52 -0.133,0.907 -0.391,1.157 -0.25,0.25 -0.633,0.375 -1.141,0.375 -0.5,0 -0.883,-0.137 -1.14,-0.407 -0.262,-0.273 -0.434,-0.671 -0.516,-1.203 l -2.344,0.125 c 0.051,0.457 0.16,0.891 0.328,1.297 0.176,0.406 0.422,0.758 0.735,1.063 0.32,0.301 0.722,0.539 1.203,0.718 0.476,0.176 1.051,0.266 1.719,0.266 0.632,0 1.191,-0.074 1.672,-0.219 0.488,-0.148 0.898,-0.367 1.234,-0.656 0.332,-0.281 0.582,-0.625 0.75,-1.031 0.176,-0.406 0.266,-0.871 0.266,-1.391 0,-0.543 -0.11,-1.039 -0.329,-1.484 -0.218,-0.438 -0.496,-0.844 -0.828,-1.219 -0.336,-0.375 -0.711,-0.73 -1.125,-1.062 -0.418,-0.325 -0.82,-0.641 -1.203,-0.954 -0.387,-0.304 -0.742,-0.617 -1.062,-0.937 -0.313,-0.313 -0.547,-0.648 -0.703,-1 l 5.437,0 0,-1.922 -8.187,0 z" /><path
         id="path252"
         style="fill:#000000;fill-opacity:1;fill-rule:nonzero;stroke:none"
         d="m 395.656,16.066 c 0,-0.531 -0.09,-1.012 -0.265,-1.437 -0.18,-0.43 -0.446,-0.793 -0.797,-1.094 -0.344,-0.293 -0.778,-0.516 -1.297,-0.672 -0.512,-0.156 -1.109,-0.234 -1.797,-0.234 -0.762,0 -1.406,0.093 -1.938,0.281 -0.523,0.195 -0.949,0.453 -1.281,0.765 -0.336,0.321 -0.586,0.688 -0.75,1.094 -0.168,0.406 -0.277,0.813 -0.328,1.219 l 2.375,0.219 c 0.031,-0.25 0.094,-0.481 0.188,-0.688 0.093,-0.211 0.211,-0.39 0.359,-0.547 0.156,-0.148 0.344,-0.261 0.563,-0.343 0.226,-0.075 0.5,-0.11 0.812,-0.11 0.551,0 0.984,0.133 1.297,0.406 0.312,0.282 0.469,0.708 0.469,1.282 0,0.343 -0.075,0.617 -0.219,0.828 -0.149,0.219 -0.336,0.379 -0.563,0.484 -0.218,0.114 -0.461,0.192 -0.718,0.235 -0.262,0.039 -0.512,0.062 -0.75,0.062 l -0.813,0 0,1.875 0.766,0 c 0.226,0 0.461,0.02 0.703,0.063 0.25,0.05 0.469,0.132 0.656,0.25 0.195,0.113 0.352,0.273 0.469,0.484 0.125,0.207 0.187,0.473 0.187,0.797 0,0.476 -0.136,0.851 -0.406,1.125 -0.262,0.281 -0.652,0.422 -1.172,0.422 -0.48,0 -0.871,-0.137 -1.172,-0.407 -0.293,-0.261 -0.461,-0.636 -0.5,-1.125 l -2.328,0.172 c 0.063,0.539 0.207,1.016 0.438,1.422 0.238,0.406 0.535,0.739 0.89,1 0.364,0.27 0.774,0.469 1.235,0.594 0.469,0.133 0.961,0.203 1.484,0.203 0.688,0 1.274,-0.086 1.766,-0.25 0.488,-0.168 0.89,-0.391 1.203,-0.672 0.32,-0.281 0.555,-0.617 0.703,-1 0.156,-0.375 0.234,-0.777 0.234,-1.203 0,-0.336 -0.054,-0.652 -0.156,-0.953 -0.094,-0.293 -0.246,-0.559 -0.453,-0.797 -0.199,-0.23 -0.461,-0.433 -0.781,-0.609 -0.313,-0.168 -0.684,-0.293 -1.11,-0.375 l 0,-0.032 c 0.477,-0.054 0.895,-0.164 1.25,-0.328 0.352,-0.168 0.645,-0.371 0.875,-0.609 0.227,-0.242 0.395,-0.516 0.5,-0.828 0.114,-0.305 0.172,-0.625 0.172,-0.969 z" /><path
         id="path254"
         style="fill:#000000;fill-opacity:1;fill-rule:nonzero;stroke:none"
         d="m 20.129,200.785 2.848,0 0,-2.848 -2.848,0 0,2.848 z" /><g
         transform="matrix(0,1,1,0,0,256.32001)"
         id="g256"><path
           id="path258"
           style="fill:#ffffff;fill-opacity:1;fill-rule:nonzero;stroke:#000000;stroke-width:2.84800005;stroke-linecap:butt;stroke-linejoin:miter;stroke-miterlimit:4;stroke-dasharray:none;stroke-opacity:1"
           d="m -51.07,7.312 c 0,3.25 -2.637,5.887 -5.891,5.887 -3.25,0 -5.887,-2.637 -5.887,-5.887 0,-3.253 2.637,-5.886 5.887,-5.886 3.254,0 5.891,2.633 5.891,5.886 z" /></g><g
         transform="matrix(0,1,1,0,0,256.32001)"
         id="g260"><path
           id="path262"
           style="fill:none;stroke:#000000;stroke-width:2.84800005;stroke-linecap:square;stroke-linejoin:miter;stroke-miterlimit:10;stroke-dasharray:none;stroke-opacity:1"
           d="m -56.961,14.434 0,5.695" /></g><path
         id="path264"
         style="fill:#000000;fill-opacity:1;fill-rule:nonzero;stroke:none"
         d="m 532.77,200.785 2.848,0 0,-2.848 -2.848,0 0,2.848 z" /><g
         transform="matrix(0,-1,-1,0,0,256.32001)"
         id="g266"><path
           id="path268"
           style="fill:#ffffff;fill-opacity:1;fill-rule:nonzero;stroke:#000000;stroke-width:2.84800005;stroke-linecap:butt;stroke-linejoin:miter;stroke-miterlimit:4;stroke-dasharray:none;stroke-opacity:1"
           d="m 62.848,-548.434 c 0,3.254 -2.637,5.891 -5.887,5.891 -3.254,0 -5.891,-2.637 -5.891,-5.891 0,-3.25 2.637,-5.886 5.891,-5.886 3.25,0 5.887,2.636 5.887,5.886 z" /></g><g
         transform="matrix(0,-1,-1,0,0,256.32001)"
         id="g270"><path
           id="path272"
           style="fill:none;stroke:#000000;stroke-width:2.84800005;stroke-linecap:square;stroke-linejoin:miter;stroke-miterlimit:10;stroke-dasharray:none;stroke-opacity:1"
           d="m 56.961,-541.312 0,5.695" /></g><path
         id="path274"
         style="fill:#000000;fill-opacity:1;fill-rule:nonzero;stroke:none"
         d="m 20.129,72.625 2.848,0 0,-2.848 -2.848,0 0,2.848 z" /><g
         transform="matrix(0,1,1,0,0,256.32001)"
         id="g276"><path
           id="path278"
           style="fill:#ffffff;fill-opacity:1;fill-rule:nonzero;stroke:#000000;stroke-width:2.84800005;stroke-linecap:butt;stroke-linejoin:miter;stroke-miterlimit:4;stroke-dasharray:none;stroke-opacity:1"
           d="m -179.23,7.312 c 0,3.25 -2.637,5.887 -5.891,5.887 -3.25,0 -5.887,-2.637 -5.887,-5.887 0,-3.253 2.637,-5.886 5.887,-5.886 3.254,0 5.891,2.633 5.891,5.886 z" /></g><g
         transform="matrix(0,1,1,0,0,256.32001)"
         id="g280"><path
           id="path282"
           style="fill:none;stroke:#000000;stroke-width:2.84800005;stroke-linecap:square;stroke-linejoin:miter;stroke-miterlimit:10;stroke-dasharray:none;stroke-opacity:1"
           d="m -185.121,14.434 0,5.695" /></g><path
         id="path284"
         style="fill:#000000;fill-opacity:1;fill-rule:nonzero;stroke:none"
         d="m 532.77,72.625 2.848,0 0,-2.848 -2.848,0 0,2.848 z" /><g
         transform="matrix(0,-1,-1,0,0,256.32001)"
         id="g286"><path
           id="path288"
           style="fill:#ffffff;fill-opacity:1;fill-rule:nonzero;stroke:#000000;stroke-width:2.84800005;stroke-linecap:butt;stroke-linejoin:miter;stroke-miterlimit:4;stroke-dasharray:none;stroke-opacity:1"
           d="m 191.008,-548.434 c 0,3.254 -2.637,5.891 -5.887,5.891 -3.254,0 -5.891,-2.637 -5.891,-5.891 0,-3.25 2.637,-5.886 5.891,-5.886 3.25,0 5.887,2.636 5.887,5.886 z" /></g><g
         transform="matrix(0,-1,-1,0,0,256.32001)"
         id="g290"><path
           id="path292"
           style="fill:none;stroke:#000000;stroke-width:2.84800005;stroke-linecap:square;stroke-linejoin:miter;stroke-miterlimit:10;stroke-dasharray:none;stroke-opacity:1"
           d="m 185.121,-541.312 0,5.695" /></g><g
         transform="matrix(1,0,0,-1,0,256.32001)"
         id="g294"><path
           id="path296"
           style="fill:none;stroke:#000000;stroke-width:2.84800005;stroke-linecap:butt;stroke-linejoin:miter;stroke-miterlimit:10;stroke-dasharray:none;stroke-opacity:1"
           d="m 21.551,185.121 512.64,0" /></g><g
         transform="matrix(1,0,0,-1,0,256.32001)"
         id="g298"><path
           id="path300"
           style="fill:none;stroke:#000000;stroke-width:2.84800005;stroke-linecap:butt;stroke-linejoin:miter;stroke-miterlimit:10;stroke-dasharray:none;stroke-opacity:1"
           d="m 21.551,56.961 113.922,0" /></g><g
         transform="matrix(1,0,0,-1,0,256.32001)"
         id="g302"><path
           id="path304"
           style="fill:none;stroke:#000000;stroke-width:2.84800005;stroke-linecap:butt;stroke-linejoin:miter;stroke-miterlimit:10;stroke-dasharray:none;stroke-opacity:1"
           d="m 220.914,56.961 113.918,0" /></g><g
         transform="matrix(1,0,0,-1,0,256.32001)"
         id="g306"><path
           id="path308"
           style="fill:none;stroke:#000000;stroke-width:2.84800005;stroke-linecap:butt;stroke-linejoin:miter;stroke-miterlimit:10;stroke-dasharray:none;stroke-opacity:1"
           d="m 420.273,56.961 113.918,0" /></g><g
         transform="matrix(1,0,0,-1,0,256.32001)"
         id="g310"><path
           id="path312"
           style="fill:none;stroke:#000000;stroke-width:2.84800005;stroke-linecap:butt;stroke-linejoin:miter;stroke-miterlimit:10;stroke-dasharray:none;stroke-opacity:1"
           d="m 477.23,156.641 0,25.632" /></g><g
         transform="matrix(1,0,0,-1,0,256.32001)"
         id="g314"><path
           id="path316"
           style="fill:#000000;fill-opacity:1;fill-rule:nonzero;stroke:#000000;stroke-width:2.84800005;stroke-linecap:butt;stroke-linejoin:miter;stroke-miterlimit:4;stroke-dasharray:none;stroke-opacity:1"
           d="m 480.082,185.121 c 0,1.57 -1.277,2.848 -2.852,2.848 -1.57,0 -2.847,-1.278 -2.847,-2.848 0,-1.574 1.277,-2.848 2.847,-2.848 1.575,0 2.852,1.274 2.852,2.848 z" /></g><g
         transform="matrix(1,0,0,-1,0,256.32001)"
         id="g318"><path
           id="path320"
           style="fill:none;stroke:#000000;stroke-width:2.84800005;stroke-linecap:butt;stroke-linejoin:miter;stroke-miterlimit:10;stroke-dasharray:none;stroke-opacity:1"
           d="m 277.871,156.641 0,25.632" /></g><g
         transform="matrix(1,0,0,-1,0,256.32001)"
         id="g322"><path
           id="path324"
           style="fill:#000000;fill-opacity:1;fill-rule:nonzero;stroke:#000000;stroke-width:2.84800005;stroke-linecap:butt;stroke-linejoin:miter;stroke-miterlimit:4;stroke-dasharray:none;stroke-opacity:1"
           d="m 280.719,185.121 c 0,1.57 -1.274,2.848 -2.848,2.848 -1.57,0 -2.848,-1.278 -2.848,-2.848 0,-1.574 1.278,-2.848 2.848,-2.848 1.574,0 2.848,1.274 2.848,2.848 z" /></g><g
         transform="matrix(1,0,0,-1,0,256.32001)"
         id="g326"><path
           id="path328"
           style="fill:none;stroke:#000000;stroke-width:2.84800005;stroke-linecap:butt;stroke-linejoin:miter;stroke-miterlimit:10;stroke-dasharray:none;stroke-opacity:1"
           d="m 277.871,85.441 0,-25.632" /></g><g
         transform="matrix(1,0,0,-1,0,256.32001)"
         id="g330"><path
           id="path332"
           style="fill:#000000;fill-opacity:1;fill-rule:nonzero;stroke:#000000;stroke-width:2.84800005;stroke-linecap:butt;stroke-linejoin:miter;stroke-miterlimit:4;stroke-dasharray:none;stroke-opacity:1"
           d="m 280.719,56.961 c 0,1.57 -1.274,2.848 -2.848,2.848 -1.57,0 -2.848,-1.278 -2.848,-2.848 0,-1.574 1.278,-2.848 2.848,-2.848 1.574,0 2.848,1.274 2.848,2.848 z" /></g><g
         transform="matrix(1,0,0,-1,0,256.32001)"
         id="g334"><path
           id="path336"
           style="fill:none;stroke:#000000;stroke-width:2.84800005;stroke-linecap:butt;stroke-linejoin:miter;stroke-miterlimit:10;stroke-dasharray:none;stroke-opacity:1"
           d="m 477.23,85.441 0,-25.632" /></g><g
         transform="matrix(1,0,0,-1,0,256.32001)"
         id="g338"><path
           id="path340"
           style="fill:#000000;fill-opacity:1;fill-rule:nonzero;stroke:#000000;stroke-width:2.84800005;stroke-linecap:butt;stroke-linejoin:miter;stroke-miterlimit:4;stroke-dasharray:none;stroke-opacity:1"
           d="m 480.082,56.961 c 0,1.57 -1.277,2.848 -2.852,2.848 -1.57,0 -2.847,-1.278 -2.847,-2.848 0,-1.574 1.277,-2.848 2.847,-2.848 1.575,0 2.852,1.274 2.852,2.848 z" /></g><g
         transform="matrix(1,0,0,-1,0,256.32001)"
         id="g342"><path
           id="path344"
           style="fill:none;stroke:#000000;stroke-width:2.84800005;stroke-linecap:butt;stroke-linejoin:miter;stroke-miterlimit:10;stroke-dasharray:none;stroke-opacity:1"
           d="m 78.512,85.441 0,-25.632" /></g><g
         transform="matrix(1,0,0,-1,0,256.32001)"
         id="g346"><path
           id="path348"
           style="fill:#000000;fill-opacity:1;fill-rule:nonzero;stroke:#000000;stroke-width:2.84800005;stroke-linecap:butt;stroke-linejoin:miter;stroke-miterlimit:4;stroke-dasharray:none;stroke-opacity:1"
           d="m 81.359,56.961 c 0,1.57 -1.273,2.848 -2.847,2.848 -1.574,0 -2.848,-1.278 -2.848,-2.848 0,-1.574 1.274,-2.848 2.848,-2.848 1.574,0 2.847,1.274 2.847,2.848 z" /></g><g
         transform="matrix(1,0,0,-1,0,256.32001)"
         id="g350"><path
           id="path352"
           style="fill:none;stroke:#000000;stroke-width:2.84800005;stroke-linecap:butt;stroke-linejoin:miter;stroke-miterlimit:10;stroke-dasharray:none;stroke-opacity:1"
           d="m 78.512,156.641 0,25.632" /></g><g
         transform="matrix(1,0,0,-1,0,256.32001)"
         id="g354"><path
           id="path356"
           style="fill:#000000;fill-opacity:1;fill-rule:nonzero;stroke:#000000;stroke-width:2.84800005;stroke-linecap:butt;stroke-linejoin:miter;stroke-miterlimit:4;stroke-dasharray:none;stroke-opacity:1"
           d="m 81.359,185.121 c 0,1.57 -1.273,2.848 -2.847,2.848 -1.574,0 -2.848,-1.278 -2.848,-2.848 0,-1.574 1.274,-2.848 2.848,-2.848 1.574,0 2.847,1.274 2.847,2.848 z" /></g><g
         transform="matrix(1,0,0,-1,0,256.32001)"
         id="g358"><path
           id="path360"
           style="fill:none;stroke:#bf00bf;stroke-width:2.84800005;stroke-linecap:butt;stroke-linejoin:miter;stroke-miterlimit:10;stroke-dasharray:2.848, 2.848;stroke-dashoffset:0;stroke-opacity:1"
           d="m 121.23,0 0,256.32" /></g><g
         transform="matrix(1,0,0,-1,0,256.32001)"
         id="g362"><path
           id="path364"
           style="fill:none;stroke:#bf00bf;stroke-width:2.84800005;stroke-linecap:butt;stroke-linejoin:miter;stroke-miterlimit:10;stroke-dasharray:2.848, 2.848;stroke-dashoffset:0;stroke-opacity:1"
           d="m 235.152,0 0,256.32" /></g><g
         transform="matrix(1,0,0,-1,0,256.32001)"
         id="g366"><path
           id="path368"
           style="fill:none;stroke:#bf00bf;stroke-width:2.84800005;stroke-linecap:butt;stroke-linejoin:miter;stroke-miterlimit:10;stroke-dasharray:2.848, 2.848;stroke-dashoffset:0;stroke-opacity:1"
           d="m 320.594,0 0,256.32" /></g><g
         transform="matrix(1,0,0,-1,0,256.32001)"
         id="g370"><path
           id="path372"
           style="fill:none;stroke:#bf00bf;stroke-width:2.84800005;stroke-linecap:butt;stroke-linejoin:miter;stroke-miterlimit:10;stroke-dasharray:2.848, 2.848;stroke-dashoffset:0;stroke-opacity:1"
           d="m 434.512,0 0,256.32" /></g></g></g></svg>