<?xml version="1.0" encoding="UTF-8" standalone="no"?>
<svg
   xmlns:dc="http://purl.org/dc/elements/1.1/"
   xmlns:cc="http://creativecommons.org/ns#"
   xmlns:rdf="http://www.w3.org/1999/02/22-rdf-syntax-ns#"
   xmlns:svg="http://www.w3.org/2000/svg"
   xmlns="http://www.w3.org/2000/svg"
   viewBox="0 0 386.05179 198.90286"
   height="198.90286"
   width="386.05179"
   xml:space="preserve"
   version="1.1"
   id="svg2"><metadata
     id="metadata8"><rdf:RDF><cc:Work
         rdf:about=""><dc:format>image/svg+xml</dc:format><dc:type
           rdf:resource="http://purl.org/dc/dcmitype/StillImage" /></cc:Work></rdf:RDF></metadata><defs
     id="defs6" /><g
     transform="matrix(1.25,0,0,-1.25,0,198.90286)"
     id="g10"><g
       id="g12"><g
         transform="matrix(1,0,0,-1,0,159.12228)"
         id="g14"><path
           id="path16"
           style="fill:none;stroke:#000000;stroke-width:1.48481405;stroke-linecap:butt;stroke-linejoin:miter;stroke-miterlimit:4;stroke-dasharray:none;stroke-opacity:1"
           d="m 6.684,101.766 295.476,0" /></g><path
         id="path18"
         style="fill:#ffffff;fill-opacity:1;fill-rule:nonzero;stroke:none"
         d="m 0.742,57.357 c 0,1.484 1.485,2.968 2.969,2.968 1.484,0 2.973,-1.484 2.973,-2.968 0,-1.485 -1.489,-2.969 -2.973,-2.969 -1.484,0 -2.969,1.484 -2.969,2.969 z" /><g
         transform="matrix(1,0,0,-1,0,159.12228)"
         id="g20"><path
           id="path22"
           style="fill:none;stroke:#000000;stroke-width:1.48481405;stroke-linecap:butt;stroke-linejoin:miter;stroke-miterlimit:4;stroke-dasharray:none;stroke-opacity:1"
           d="m 0.742,101.766 c 0,-1.485 1.485,-2.969 2.969,-2.969 1.484,0 2.973,1.484 2.973,2.969 0,1.484 -1.489,2.968 -2.973,2.968 -1.484,0 -2.969,-1.484 -2.969,-2.968" /></g><path
         id="path24"
         style="fill:#ffffff;fill-opacity:1;fill-rule:nonzero;stroke:none"
         d="m 308.098,57.357 c 0,-1.485 -1.485,-2.969 -2.969,-2.969 -1.484,0 -2.969,1.484 -2.969,2.969 0,1.484 1.485,2.968 2.969,2.968 1.484,0 2.969,-1.484 2.969,-2.968 z" /><g
         transform="matrix(1,0,0,-1,0,159.12228)"
         id="g26"><path
           id="path28"
           style="fill:none;stroke:#000000;stroke-width:1.48481405;stroke-linecap:butt;stroke-linejoin:miter;stroke-miterlimit:4;stroke-dasharray:none;stroke-opacity:1"
           d="m 308.098,101.766 c 0,1.484 -1.485,2.968 -2.969,2.968 -1.484,0 -2.969,-1.484 -2.969,-2.968 0,-1.485 1.485,-2.969 2.969,-2.969 1.484,0 2.969,1.484 2.969,2.969" /></g><g
         transform="matrix(1,0,0,-1,0,159.12228)"
         id="g30"><path
           id="path32"
           style="fill:none;stroke:#000000;stroke-width:1.48481405;stroke-linecap:butt;stroke-linejoin:miter;stroke-miterlimit:4;stroke-dasharray:none;stroke-opacity:1"
           d="m 154.422,101.766 -26.727,56.14" /></g><path
         id="path34"
         style="fill:#000000;fill-opacity:1;fill-rule:nonzero;stroke:none"
         d="m 127.695,1.212 c -0.066,0.035 -0.105,0.133 -0.07,0.199 0.031,0.071 0.129,0.102 0.195,0.071 0.067,-0.032 0.106,-0.129 0.071,-0.196 -0.032,-0.07 -0.129,-0.101 -0.196,-0.074 z" /><g
         transform="matrix(1,0,0,-1,0,159.12228)"
         id="g36"><path
           id="path38"
           style="fill:none;stroke:#000000;stroke-width:1.48481405;stroke-linecap:butt;stroke-linejoin:miter;stroke-miterlimit:4;stroke-dasharray:none;stroke-opacity:1"
           d="m 127.695,157.91 c -0.066,-0.035 -0.105,-0.133 -0.07,-0.199 0.031,-0.07 0.129,-0.102 0.195,-0.07 0.067,0.031 0.106,0.129 0.071,0.195 -0.032,0.07 -0.129,0.102 -0.196,0.074" /></g><g
         transform="matrix(1,0,0,-1,0,159.12228)"
         id="g40"><path
           id="path42"
           style="fill:none;stroke:#000000;stroke-width:1.48481405;stroke-linecap:butt;stroke-linejoin:miter;stroke-miterlimit:4;stroke-dasharray:none;stroke-opacity:1"
           d="M 38.605,66.375 11.879,122.273" /></g><path
         id="path44"
         style="fill:#000000;fill-opacity:1;fill-rule:nonzero;stroke:none"
         d="m 11.879,36.849 c -0.067,0.035 -0.102,0.133 -0.07,0.199 0.031,0.066 0.129,0.102 0.199,0.07 0.066,-0.031 0.101,-0.129 0.066,-0.199 -0.031,-0.066 -0.129,-0.101 -0.195,-0.07 z" /><g
         transform="matrix(1,0,0,-1,0,159.12228)"
         id="g46"><path
           id="path48"
           style="fill:none;stroke:#000000;stroke-width:1.48481405;stroke-linecap:butt;stroke-linejoin:miter;stroke-miterlimit:4;stroke-dasharray:none;stroke-opacity:1"
           d="m 11.879,122.273 c -0.067,-0.035 -0.102,-0.132 -0.07,-0.199 0.031,-0.066 0.129,-0.101 0.199,-0.07 0.066,0.031 0.101,0.129 0.066,0.199 -0.031,0.067 -0.129,0.102 -0.195,0.07" /></g><g
         transform="matrix(1,0,0,-1,0,159.12228)"
         id="g50"><path
           id="path52"
           style="fill:none;stroke:#000000;stroke-width:1.48481405;stroke-linecap:butt;stroke-linejoin:miter;stroke-miterlimit:4;stroke-dasharray:none;stroke-opacity:1"
           d="m 38.605,101.766 -26.726,56.14" /></g><path
         id="path54"
         style="fill:#000000;fill-opacity:1;fill-rule:nonzero;stroke:none"
         d="m 11.879,1.212 c -0.067,0.035 -0.102,0.133 -0.07,0.199 0.031,0.071 0.129,0.102 0.199,0.071 C 12.074,1.45 12.109,1.353 12.074,1.286 12.043,1.216 11.945,1.185 11.879,1.212 Z" /><g
         transform="matrix(1,0,0,-1,0,159.12228)"
         id="g56"><path
           id="path58"
           style="fill:none;stroke:#000000;stroke-width:1.48481405;stroke-linecap:butt;stroke-linejoin:miter;stroke-miterlimit:4;stroke-dasharray:none;stroke-opacity:1"
           d="m 11.879,157.91 c -0.067,-0.035 -0.102,-0.133 -0.07,-0.199 0.031,-0.07 0.129,-0.102 0.199,-0.07 0.066,0.031 0.101,0.129 0.066,0.195 -0.031,0.07 -0.129,0.102 -0.195,0.074" /></g><g
         transform="matrix(1,0,0,-1,0,159.12228)"
         id="g60"><path
           id="path62"
           style="fill:none;stroke:#000000;stroke-width:1.48481405;stroke-linecap:butt;stroke-linejoin:miter;stroke-miterlimit:4;stroke-dasharray:none;stroke-opacity:1"
           d="m 270.234,101.766 -26.726,56.14" /></g><path
         id="path64"
         style="fill:#000000;fill-opacity:1;fill-rule:nonzero;stroke:none"
         d="m 243.508,1.212 c -0.067,0.035 -0.102,0.133 -0.067,0.199 0.032,0.071 0.129,0.102 0.196,0.071 0.066,-0.032 0.101,-0.129 0.07,-0.196 -0.031,-0.07 -0.129,-0.101 -0.199,-0.074 z" /><g
         transform="matrix(1,0,0,-1,0,159.12228)"
         id="g66"><path
           id="path68"
           style="fill:none;stroke:#000000;stroke-width:1.48481405;stroke-linecap:butt;stroke-linejoin:miter;stroke-miterlimit:4;stroke-dasharray:none;stroke-opacity:1"
           d="m 243.508,157.91 c -0.067,-0.035 -0.102,-0.133 -0.067,-0.199 0.032,-0.07 0.129,-0.102 0.196,-0.07 0.066,0.031 0.101,0.129 0.07,0.195 -0.031,0.07 -0.129,0.102 -0.199,0.074" /></g><g
         transform="matrix(1,0,0,-1,0,159.12228)"
         id="g70"><path
           id="path72"
           style="fill:none;stroke:#000000;stroke-width:1.48481405;stroke-linecap:butt;stroke-linejoin:miter;stroke-miterlimit:4;stroke-dasharray:none;stroke-opacity:1"
           d="M 133.543,27.738 94.938,27.75" /></g><path
         id="path74"
         style="fill:#000000;fill-opacity:1;fill-rule:nonzero;stroke:none"
         d="m 133.543,131.384 c 0,-0.074 -0.074,-0.148 -0.148,-0.148 -0.075,0 -0.149,0.074 -0.149,0.148 -0.004,0.074 0.07,0.148 0.145,0.148 0.074,0 0.148,-0.074 0.152,-0.148 z" /><g
         transform="matrix(1,0,0,-1,0,159.12228)"
         id="g76"><path
           id="path78"
           style="fill:none;stroke:#000000;stroke-width:1.48481405;stroke-linecap:butt;stroke-linejoin:miter;stroke-miterlimit:4;stroke-dasharray:none;stroke-opacity:1"
           d="m 133.543,27.738 c 0,0.074 -0.074,0.149 -0.148,0.149 -0.075,0 -0.149,-0.075 -0.149,-0.149 -0.004,-0.074 0.07,-0.148 0.145,-0.148 0.074,0 0.148,0.074 0.152,0.148" /></g><path
         id="path80"
         style="fill:#000000;fill-opacity:1;fill-rule:nonzero;stroke:none"
         d="m 94.938,131.372 c -0.004,0.075 0.07,0.149 0.144,0.149 0.074,0 0.148,-0.074 0.152,-0.149 0,-0.074 -0.074,-0.148 -0.148,-0.148 -0.074,0 -0.148,0.074 -0.148,0.148 z" /><g
         transform="matrix(1,0,0,-1,0,159.12228)"
         id="g82"><path
           id="path84"
           style="fill:none;stroke:#000000;stroke-width:1.48481405;stroke-linecap:butt;stroke-linejoin:miter;stroke-miterlimit:4;stroke-dasharray:none;stroke-opacity:1"
           d="m 94.938,27.75 c -0.004,-0.074 0.07,-0.148 0.144,-0.148 0.074,0 0.148,0.074 0.152,0.148 0,0.074 -0.074,0.148 -0.148,0.148 -0.074,0 -0.148,-0.074 -0.148,-0.148" /></g><g
         transform="matrix(1,0,0,-1,0,159.12228)"
         id="g86"><path
           id="path88"
           style="fill:none;stroke:#000000;stroke-width:1.48481405;stroke-linecap:butt;stroke-linejoin:miter;stroke-miterlimit:4;stroke-dasharray:none;stroke-opacity:1"
           d="m 6.684,66.129 70.527,0" /></g><path
         id="path90"
         style="fill:#ffffff;fill-opacity:1;fill-rule:nonzero;stroke:none"
         d="m 0.742,92.993 c 0,1.485 1.485,2.969 2.969,2.969 1.484,0 2.973,-1.484 2.973,-2.969 0,-1.484 -1.489,-2.972 -2.973,-2.972 -1.484,0 -2.969,1.488 -2.969,2.972 z" /><g
         transform="matrix(1,0,0,-1,0,159.12228)"
         id="g92"><path
           id="path94"
           style="fill:none;stroke:#000000;stroke-width:1.48481405;stroke-linecap:butt;stroke-linejoin:miter;stroke-miterlimit:4;stroke-dasharray:none;stroke-opacity:1"
           d="m 0.742,66.129 c 0,-1.484 1.485,-2.969 2.969,-2.969 1.484,0 2.973,1.485 2.973,2.969 0,1.484 -1.489,2.973 -2.973,2.973 -1.484,0 -2.969,-1.489 -2.969,-2.973" /></g><path
         id="path96"
         style="fill:#000000;fill-opacity:1;fill-rule:nonzero;stroke:none"
         d="m 77.211,92.993 c 0,-0.074 -0.074,-0.148 -0.149,-0.148 -0.074,0 -0.148,0.074 -0.148,0.148 0,0.075 0.074,0.149 0.148,0.149 0.075,0 0.149,-0.074 0.149,-0.149 z" /><g
         transform="matrix(1,0,0,-1,0,159.12228)"
         id="g98"><path
           id="path100"
           style="fill:none;stroke:#000000;stroke-width:1.48481405;stroke-linecap:butt;stroke-linejoin:miter;stroke-miterlimit:4;stroke-dasharray:none;stroke-opacity:1"
           d="m 77.211,66.129 c 0,0.074 -0.074,0.148 -0.149,0.148 -0.074,0 -0.148,-0.074 -0.148,-0.148 0,-0.074 0.074,-0.149 0.148,-0.149 0.075,0 0.149,0.075 0.149,0.149" /></g><g
         transform="matrix(1,0,0,-1,0,159.12228)"
         id="g102"><path
           id="path104"
           style="fill:none;stroke:#000000;stroke-width:1.48481405;stroke-linecap:butt;stroke-linejoin:miter;stroke-miterlimit:4;stroke-dasharray:none;stroke-opacity:1"
           d="m 115.816,66.129 77.211,0" /></g><path
         id="path106"
         style="fill:#000000;fill-opacity:1;fill-rule:nonzero;stroke:none"
         d="m 115.816,92.993 c 0,0.075 0.075,0.149 0.149,0.149 0.074,0 0.148,-0.074 0.148,-0.149 0,-0.074 -0.074,-0.148 -0.148,-0.148 -0.074,0 -0.149,0.074 -0.149,0.148 z" /><g
         transform="matrix(1,0,0,-1,0,159.12228)"
         id="g108"><path
           id="path110"
           style="fill:none;stroke:#000000;stroke-width:1.48481405;stroke-linecap:butt;stroke-linejoin:miter;stroke-miterlimit:4;stroke-dasharray:none;stroke-opacity:1"
           d="m 115.816,66.129 c 0,-0.074 0.075,-0.149 0.149,-0.149 0.074,0 0.148,0.075 0.148,0.149 0,0.074 -0.074,0.148 -0.148,0.148 -0.074,0 -0.149,-0.074 -0.149,-0.148" /></g><path
         id="path112"
         style="fill:#000000;fill-opacity:1;fill-rule:nonzero;stroke:none"
         d="m 193.027,92.993 c 0,-0.074 -0.074,-0.148 -0.148,-0.148 -0.074,0 -0.149,0.074 -0.149,0.148 0,0.075 0.075,0.149 0.149,0.149 0.074,0 0.148,-0.074 0.148,-0.149 z" /><g
         transform="matrix(1,0,0,-1,0,159.12228)"
         id="g114"><path
           id="path116"
           style="fill:none;stroke:#000000;stroke-width:1.48481405;stroke-linecap:butt;stroke-linejoin:miter;stroke-miterlimit:4;stroke-dasharray:none;stroke-opacity:1"
           d="m 193.027,66.129 c 0,0.074 -0.074,0.148 -0.148,0.148 -0.074,0 -0.149,-0.074 -0.149,-0.148 0,-0.074 0.075,-0.149 0.149,-0.149 0.074,0 0.148,0.075 0.148,0.149" /></g><g
         transform="matrix(1,0,0,-1,0,159.12228)"
         id="g118"><path
           id="path120"
           style="fill:none;stroke:#000000;stroke-width:1.48481405;stroke-linecap:butt;stroke-linejoin:miter;stroke-miterlimit:4;stroke-dasharray:none;stroke-opacity:1"
           d="m 302.16,66.129 -70.527,0" /></g><path
         id="path122"
         style="fill:#ffffff;fill-opacity:1;fill-rule:nonzero;stroke:none"
         d="m 308.098,92.993 c 0,-1.484 -1.485,-2.972 -2.969,-2.972 -1.484,0 -2.969,1.488 -2.969,2.972 0,1.485 1.485,2.969 2.969,2.969 1.484,0 2.969,-1.484 2.969,-2.969 z" /><g
         transform="matrix(1,0,0,-1,0,159.12228)"
         id="g124"><path
           id="path126"
           style="fill:none;stroke:#000000;stroke-width:1.48481405;stroke-linecap:butt;stroke-linejoin:miter;stroke-miterlimit:4;stroke-dasharray:none;stroke-opacity:1"
           d="m 308.098,66.129 c 0,1.484 -1.485,2.973 -2.969,2.973 -1.484,0 -2.969,-1.489 -2.969,-2.973 0,-1.484 1.485,-2.969 2.969,-2.969 1.484,0 2.969,1.485 2.969,2.969" /></g><path
         id="path128"
         style="fill:#000000;fill-opacity:1;fill-rule:nonzero;stroke:none"
         d="m 231.633,92.993 c 0,0.075 0.074,0.149 0.148,0.149 0.074,0 0.149,-0.074 0.149,-0.149 0,-0.074 -0.075,-0.148 -0.149,-0.148 -0.074,0 -0.148,0.074 -0.148,0.148 z" /><g
         transform="matrix(1,0,0,-1,0,159.12228)"
         id="g130"><path
           id="path132"
           style="fill:none;stroke:#000000;stroke-width:1.48481405;stroke-linecap:butt;stroke-linejoin:miter;stroke-miterlimit:4;stroke-dasharray:none;stroke-opacity:1"
           d="m 231.633,66.129 c 0,-0.074 0.074,-0.149 0.148,-0.149 0.074,0 0.149,0.075 0.149,0.149 0,0.074 -0.075,0.148 -0.149,0.148 -0.074,0 -0.148,-0.074 -0.148,-0.148" /></g><g
         transform="matrix(1,0,0,-1,0,159.12228)"
         id="g134"><path
           id="path136"
           style="fill:none;stroke:#bf00bf;stroke-width:1.48481405;stroke-linecap:butt;stroke-linejoin:miter;stroke-miterlimit:4;stroke-dasharray:5.939257, 5.939257;stroke-dashoffset:0;stroke-opacity:1"
           d="m 65.332,54.25 0,53.457" /></g><g
         transform="matrix(1,0,0,-1,0,159.12228)"
         id="g138"><path
           id="path140"
           style="fill:none;stroke:#bf00bf;stroke-width:1.48481405;stroke-linecap:butt;stroke-linejoin:miter;stroke-miterlimit:4;stroke-dasharray:5.939257, 5.939257;stroke-dashoffset:0;stroke-opacity:1"
           d="m 130.664,54.25 0,53.457" /></g><g
         transform="matrix(1,0,0,-1,0,159.12228)"
         id="g142"><path
           id="path144"
           style="fill:none;stroke:#bf00bf;stroke-width:1.48481405;stroke-linecap:butt;stroke-linejoin:miter;stroke-miterlimit:4;stroke-dasharray:5.939257, 5.939257;stroke-dashoffset:0;stroke-opacity:1"
           d="m 178.176,54.25 0,53.457" /></g><g
         transform="matrix(1,0,0,-1,0,159.12228)"
         id="g146"><path
           id="path148"
           style="fill:none;stroke:#bf00bf;stroke-width:1.48481405;stroke-linecap:butt;stroke-linejoin:miter;stroke-miterlimit:4;stroke-dasharray:5.939257, 5.939257;stroke-dashoffset:0;stroke-opacity:1"
           d="m 243.508,54.25 0,53.457" /></g><g
         transform="matrix(1,0,0,-1,0,159.12228)"
         id="g150"><path
           id="path152"
           style="fill:none;stroke:#000000;stroke-width:1.48481405;stroke-linecap:butt;stroke-linejoin:miter;stroke-miterlimit:4;stroke-dasharray:none;stroke-opacity:1"
           d="m 154.422,66.27 -26.727,56.285" /></g><path
         id="path154"
         style="fill:#000000;fill-opacity:1;fill-rule:nonzero;stroke:none"
         d="m 127.695,36.568 c -0.066,0.031 -0.105,0.132 -0.07,0.199 0.031,0.066 0.129,0.101 0.195,0.07 0.067,-0.031 0.106,-0.129 0.071,-0.199 -0.032,-0.066 -0.129,-0.102 -0.196,-0.07 z" /><g
         transform="matrix(1,0,0,-1,0,159.12228)"
         id="g156"><path
           id="path158"
           style="fill:none;stroke:#000000;stroke-width:1.48481405;stroke-linecap:butt;stroke-linejoin:miter;stroke-miterlimit:4;stroke-dasharray:none;stroke-opacity:1"
           d="m 127.695,122.555 c -0.066,-0.032 -0.105,-0.133 -0.07,-0.2 0.031,-0.066 0.129,-0.101 0.195,-0.07 0.067,0.031 0.106,0.129 0.071,0.199 -0.032,0.067 -0.129,0.102 -0.196,0.071" /></g><g
         transform="matrix(1,0,0,-1,0,159.12228)"
         id="g160"><path
           id="path162"
           style="fill:none;stroke:#000000;stroke-width:1.48481405;stroke-linecap:butt;stroke-linejoin:miter;stroke-miterlimit:4;stroke-dasharray:none;stroke-opacity:1"
           d="m 270.234,66.164 -26.726,56.109" /></g><path
         id="path164"
         style="fill:#000000;fill-opacity:1;fill-rule:nonzero;stroke:none"
         d="m 243.508,36.849 c -0.067,0.035 -0.102,0.133 -0.067,0.199 0.032,0.066 0.129,0.102 0.196,0.07 0.066,-0.031 0.101,-0.129 0.07,-0.199 -0.031,-0.066 -0.129,-0.101 -0.199,-0.07 z" /><g
         transform="matrix(1,0,0,-1,0,159.12228)"
         id="g166"><path
           id="path168"
           style="fill:none;stroke:#000000;stroke-width:1.48481405;stroke-linecap:butt;stroke-linejoin:miter;stroke-miterlimit:4;stroke-dasharray:none;stroke-opacity:1"
           d="m 243.508,122.273 c -0.067,-0.035 -0.102,-0.132 -0.067,-0.199 0.032,-0.066 0.129,-0.101 0.196,-0.07 0.066,0.031 0.101,0.129 0.07,0.199 -0.031,0.067 -0.129,0.102 -0.199,0.07" /></g><g
         transform="matrix(1,0,0,-1,0,159.12228)"
         id="g170"><path
           id="path172"
           style="fill:none;stroke:#000000;stroke-width:1.48481405;stroke-linecap:butt;stroke-linejoin:miter;stroke-miterlimit:4;stroke-dasharray:none;stroke-opacity:1"
           d="M 133.633,27.523 115.816,66.129" /></g><g
         transform="matrix(1,0,0,-1,0,159.12228)"
         id="g174"><path
           id="path176"
           style="fill:none;stroke:#000000;stroke-width:1.48481405;stroke-linecap:butt;stroke-linejoin:miter;stroke-miterlimit:4;stroke-dasharray:none;stroke-opacity:1"
           d="M 95.027,27.523 77.211,66.129" /></g><g
         transform="matrix(1,0,0,-1,0,159.12228)"
         id="g178"><path
           id="path180"
           style="fill:none;stroke:#000000;stroke-width:1.48481405;stroke-linecap:butt;stroke-linejoin:miter;stroke-miterlimit:4;stroke-dasharray:none;stroke-opacity:1"
           d="m 249.223,28 -38.602,0.012" /></g><path
         id="path182"
         style="fill:#000000;fill-opacity:1;fill-rule:nonzero;stroke:none"
         d="m 249.223,131.122 c 0,-0.074 -0.075,-0.148 -0.149,-0.148 -0.074,0 -0.148,0.074 -0.148,0.148 0,0.075 0.074,0.149 0.148,0.149 0.074,0 0.149,-0.074 0.149,-0.149 z" /><g
         transform="matrix(1,0,0,-1,0,159.12228)"
         id="g184"><path
           id="path186"
           style="fill:none;stroke:#000000;stroke-width:1.48481405;stroke-linecap:butt;stroke-linejoin:miter;stroke-miterlimit:4;stroke-dasharray:none;stroke-opacity:1"
           d="m 249.223,28 c 0,0.074 -0.075,0.148 -0.149,0.148 -0.074,0 -0.148,-0.074 -0.148,-0.148 0,-0.074 0.074,-0.148 0.148,-0.148 0.074,0 0.149,0.074 0.149,0.148" /></g><path
         id="path188"
         style="fill:#000000;fill-opacity:1;fill-rule:nonzero;stroke:none"
         d="m 210.621,131.111 c 0,0.074 0.074,0.148 0.149,0.148 0.074,0 0.148,-0.074 0.148,-0.148 0,-0.075 -0.074,-0.149 -0.148,-0.149 -0.075,0 -0.149,0.074 -0.149,0.149 z" /><g
         transform="matrix(1,0,0,-1,0,159.12228)"
         id="g190"><path
           id="path192"
           style="fill:none;stroke:#000000;stroke-width:1.48481405;stroke-linecap:butt;stroke-linejoin:miter;stroke-miterlimit:4;stroke-dasharray:none;stroke-opacity:1"
           d="m 210.621,28.012 c 0,-0.074 0.074,-0.149 0.149,-0.149 0.074,0 0.148,0.075 0.148,0.149 0,0.074 -0.074,0.148 -0.148,0.148 -0.075,0 -0.149,-0.074 -0.149,-0.148" /></g><g
         transform="matrix(1,0,0,-1,0,159.12228)"
         id="g194"><path
           id="path196"
           style="fill:none;stroke:#000000;stroke-width:1.48481405;stroke-linecap:butt;stroke-linejoin:miter;stroke-miterlimit:4;stroke-dasharray:none;stroke-opacity:1"
           d="M 249.316,27.789 231.5,66.395" /></g><g
         transform="matrix(1,0,0,-1,0,159.12228)"
         id="g198"><path
           id="path200"
           style="fill:none;stroke:#000000;stroke-width:1.48481405;stroke-linecap:butt;stroke-linejoin:miter;stroke-miterlimit:4;stroke-dasharray:none;stroke-opacity:1"
           d="m 210.715,27.789 -17.82,38.606" /></g><path
         id="path202"
         style="fill:#000000;fill-opacity:1;fill-rule:nonzero;stroke:none"
         d="m 34.242,113.607 c 0,0.656 -0.137,1.16 -0.406,1.515 -0.274,0.352 -0.648,0.532 -1.125,0.532 -0.492,0 -0.871,-0.18 -1.141,-0.532 -0.261,-0.355 -0.39,-0.859 -0.39,-1.515 0,-0.649 0.129,-1.153 0.39,-1.516 0.27,-0.355 0.649,-0.531 1.141,-0.531 0.477,0 0.851,0.176 1.125,0.531 0.269,0.363 0.406,0.867 0.406,1.516 z m 0.891,-2.125 c 0,-0.926 -0.211,-1.614 -0.625,-2.063 -0.406,-0.457 -1.039,-0.687 -1.891,-0.687 -0.312,0 -0.609,0.027 -0.89,0.078 -0.282,0.043 -0.555,0.109 -0.813,0.203 l 0,0.875 c 0.258,-0.145 0.516,-0.25 0.766,-0.313 0.258,-0.07 0.523,-0.109 0.797,-0.109 0.582,0 1.019,0.156 1.312,0.469 0.301,0.304 0.453,0.765 0.453,1.39 l 0,0.454 c -0.187,-0.325 -0.43,-0.571 -0.719,-0.735 -0.293,-0.156 -0.64,-0.234 -1.046,-0.234 -0.668,0 -1.211,0.254 -1.625,0.765 -0.407,0.508 -0.61,1.188 -0.61,2.032 0,0.843 0.203,1.519 0.61,2.031 0.414,0.508 0.957,0.766 1.625,0.766 0.406,0 0.753,-0.079 1.046,-0.235 0.289,-0.156 0.532,-0.398 0.719,-0.719 l 0,0.829 0.891,0 0,-4.797 z" /><path
         id="path204"
         style="fill:#000000;fill-opacity:1;fill-rule:nonzero;stroke:none"
         d="m 37.316,111.638 1.625,0 0,5.562 -1.765,-0.343 0,0.89 1.75,0.36 0.984,0 0,-6.469 1.61,0 0,-0.828 -4.204,0 0,0.828 z" /><path
         id="path206"
         style="fill:#000000;fill-opacity:1;fill-rule:nonzero;stroke:none"
         d="m 30.93,99.068 1.625,0 0,5.562 -1.766,-0.344 0,0.891 1.75,0.359 0.984,0 0,-6.468 1.61,0 0,-0.829 -4.203,0 0,0.829 z" /><path
         id="path208"
         style="fill:#000000;fill-opacity:1;fill-rule:nonzero;stroke:none"
         d="m 37.273,99.474 1.032,0 0,-0.828 -0.797,-1.563 -0.641,0 0.406,1.563 0,0.828 z" /><path
         id="path210"
         style="fill:#000000;fill-opacity:1;fill-rule:nonzero;stroke:none"
         d="m 40.129,105.536 4.687,0 0,-0.422 -2.656,-6.875 -1.031,0 2.5,6.454 -3.5,0 0,0.843 z" /><path
         id="path212"
         style="fill:#000000;fill-opacity:1;fill-rule:nonzero;stroke:none"
         d="m 48.879,104.88 c -0.5,0 -0.883,-0.25 -1.141,-0.75 -0.25,-0.5 -0.375,-1.25 -0.375,-2.25 0,-1 0.125,-1.75 0.375,-2.25 0.258,-0.5 0.641,-0.75 1.141,-0.75 0.519,0 0.906,0.25 1.156,0.75 0.258,0.5 0.391,1.25 0.391,2.25 0,1 -0.133,1.75 -0.391,2.25 -0.25,0.5 -0.637,0.75 -1.156,0.75 z m 0,0.781 c 0.82,0 1.445,-0.324 1.875,-0.968 0.437,-0.649 0.656,-1.586 0.656,-2.813 0,-1.23 -0.219,-2.168 -0.656,-2.812 -0.43,-0.649 -1.055,-0.969 -1.875,-0.969 -0.813,0 -1.438,0.32 -1.875,0.969 -0.43,0.644 -0.641,1.582 -0.641,2.812 0,1.227 0.211,2.164 0.641,2.813 0.437,0.644 1.062,0.968 1.875,0.968 z" /><path
         id="path214"
         style="fill:#000000;fill-opacity:1;fill-rule:nonzero;stroke:none"
         d="m 265.875,113.607 c 0,0.656 -0.137,1.16 -0.406,1.515 -0.274,0.352 -0.649,0.532 -1.125,0.532 -0.492,0 -0.871,-0.18 -1.141,-0.532 -0.262,-0.355 -0.391,-0.859 -0.391,-1.515 0,-0.649 0.129,-1.153 0.391,-1.516 0.27,-0.355 0.649,-0.531 1.141,-0.531 0.476,0 0.851,0.176 1.125,0.531 0.269,0.363 0.406,0.867 0.406,1.516 z m 0.891,-2.125 c 0,-0.926 -0.211,-1.614 -0.625,-2.063 -0.407,-0.457 -1.039,-0.687 -1.891,-0.687 -0.312,0 -0.609,0.027 -0.891,0.078 -0.281,0.043 -0.554,0.109 -0.812,0.203 l 0,0.875 c 0.258,-0.145 0.515,-0.25 0.765,-0.313 0.258,-0.07 0.524,-0.109 0.797,-0.109 0.582,0 1.02,0.156 1.313,0.469 0.301,0.304 0.453,0.765 0.453,1.39 l 0,0.454 c -0.187,-0.325 -0.43,-0.571 -0.719,-0.735 -0.293,-0.156 -0.64,-0.234 -1.047,-0.234 -0.668,0 -1.211,0.254 -1.625,0.765 -0.406,0.508 -0.609,1.188 -0.609,2.032 0,0.843 0.203,1.519 0.609,2.031 0.414,0.508 0.957,0.766 1.625,0.766 0.407,0 0.754,-0.079 1.047,-0.235 0.289,-0.156 0.532,-0.398 0.719,-0.719 l 0,0.829 0.891,0 0,-4.797 z" /><path
         id="path216"
         style="fill:#000000;fill-opacity:1;fill-rule:nonzero;stroke:none"
         d="m 268.789,118.107 3.875,0 0,-0.844 -2.969,0 0,-1.781 c 0.145,0.05 0.285,0.086 0.422,0.109 0.145,0.02 0.289,0.031 0.438,0.031 0.812,0 1.453,-0.226 1.922,-0.672 0.476,-0.437 0.718,-1.039 0.718,-1.796 0,-0.793 -0.246,-1.407 -0.734,-1.844 -0.481,-0.43 -1.168,-0.641 -2.063,-0.641 -0.304,0 -0.617,0.028 -0.937,0.078 -0.313,0.055 -0.641,0.129 -0.984,0.235 l 0,0.984 c 0.3,-0.156 0.609,-0.277 0.921,-0.359 0.313,-0.075 0.641,-0.11 0.985,-0.11 0.562,0 1.004,0.145 1.328,0.438 0.332,0.301 0.5,0.707 0.5,1.219 0,0.5 -0.168,0.894 -0.5,1.187 -0.324,0.301 -0.766,0.453 -1.328,0.453 -0.262,0 -0.528,-0.031 -0.797,-0.094 -0.262,-0.054 -0.527,-0.14 -0.797,-0.265 l 0,3.672 z" /><path
         id="path218"
         style="fill:#000000;fill-opacity:1;fill-rule:nonzero;stroke:none"
         d="m 262.562,99.068 1.626,0 0,5.562 -1.766,-0.344 0,0.891 1.75,0.359 0.984,0 0,-6.468 1.61,0 0,-0.829 -4.204,0 0,0.829 z" /><path
         id="path220"
         style="fill:#000000;fill-opacity:1;fill-rule:nonzero;stroke:none"
         d="m 268.902,99.474 1.032,0 0,-0.828 -0.797,-1.563 -0.641,0 0.406,1.563 0,0.828 z" /><path
         id="path222"
         style="fill:#000000;fill-opacity:1;fill-rule:nonzero;stroke:none"
         d="m 271.762,105.536 4.687,0 0,-0.422 -2.656,-6.875 -1.031,0 2.5,6.454 -3.5,0 0,0.843 z" /><path
         id="path224"
         style="fill:#000000;fill-opacity:1;fill-rule:nonzero;stroke:none"
         d="m 280.508,104.88 c -0.5,0 -0.883,-0.25 -1.141,-0.75 -0.25,-0.5 -0.375,-1.25 -0.375,-2.25 0,-1 0.125,-1.75 0.375,-2.25 0.258,-0.5 0.641,-0.75 1.141,-0.75 0.519,0 0.906,0.25 1.156,0.75 0.258,0.5 0.391,1.25 0.391,2.25 0,1 -0.133,1.75 -0.391,2.25 -0.25,0.5 -0.637,0.75 -1.156,0.75 z m 0,0.781 c 0.82,0 1.445,-0.324 1.875,-0.968 0.437,-0.649 0.656,-1.586 0.656,-2.813 0,-1.23 -0.219,-2.168 -0.656,-2.812 -0.43,-0.649 -1.055,-0.969 -1.875,-0.969 -0.813,0 -1.438,0.32 -1.875,0.969 -0.43,0.644 -0.641,1.582 -0.641,2.812 0,1.227 0.211,2.164 0.641,2.813 0.437,0.644 1.062,0.968 1.875,0.968 z" /><path
         id="path226"
         style="fill:#000000;fill-opacity:1;fill-rule:nonzero;stroke:none"
         d="m 105.516,149.243 c 0,0.657 -0.137,1.161 -0.407,1.516 -0.273,0.352 -0.648,0.531 -1.125,0.531 -0.492,0 -0.871,-0.179 -1.14,-0.531 -0.262,-0.355 -0.391,-0.859 -0.391,-1.516 0,-0.648 0.129,-1.152 0.391,-1.515 0.269,-0.356 0.648,-0.531 1.14,-0.531 0.477,0 0.852,0.175 1.125,0.531 0.27,0.363 0.407,0.867 0.407,1.515 z m 0.89,-2.125 c 0,-0.925 -0.211,-1.613 -0.625,-2.062 -0.406,-0.457 -1.039,-0.688 -1.89,-0.688 -0.313,0 -0.61,0.028 -0.891,0.079 -0.281,0.042 -0.555,0.109 -0.812,0.203 l 0,0.875 c 0.257,-0.145 0.515,-0.25 0.765,-0.313 0.258,-0.07 0.524,-0.109 0.797,-0.109 0.582,0 1.02,0.156 1.312,0.469 0.301,0.304 0.454,0.765 0.454,1.39 l 0,0.453 c -0.188,-0.324 -0.43,-0.57 -0.719,-0.734 -0.293,-0.156 -0.641,-0.234 -1.047,-0.234 -0.668,0 -1.211,0.253 -1.625,0.765 -0.406,0.508 -0.609,1.188 -0.609,2.031 0,0.844 0.203,1.52 0.609,2.032 0.414,0.507 0.957,0.765 1.625,0.765 0.406,0 0.754,-0.078 1.047,-0.234 0.289,-0.156 0.531,-0.399 0.719,-0.719 l 0,0.828 0.89,0 0,-4.797 z" /><path
         id="path228"
         style="fill:#000000;fill-opacity:1;fill-rule:nonzero;stroke:none"
         d="m 109.273,147.275 3.438,0 0,-0.828 -4.625,0 0,0.828 c 0.375,0.382 0.883,0.906 1.531,1.562 0.645,0.656 1.051,1.078 1.219,1.266 0.312,0.351 0.531,0.648 0.656,0.89 0.125,0.25 0.188,0.493 0.188,0.735 0,0.383 -0.137,0.695 -0.407,0.937 -0.273,0.25 -0.625,0.375 -1.062,0.375 -0.313,0 -0.641,-0.058 -0.984,-0.172 -0.336,-0.105 -0.7,-0.265 -1.094,-0.484 l 0,1 c 0.394,0.156 0.765,0.273 1.109,0.359 0.344,0.082 0.66,0.125 0.953,0.125 0.75,0 1.348,-0.187 1.797,-0.562 0.457,-0.375 0.688,-0.883 0.688,-1.516 0,-0.304 -0.059,-0.59 -0.172,-0.859 -0.117,-0.262 -0.32,-0.574 -0.61,-0.938 -0.086,-0.093 -0.343,-0.371 -0.781,-0.828 -0.437,-0.449 -1.055,-1.078 -1.844,-1.89 z" /><path
         id="path230"
         style="fill:#000000;fill-opacity:1;fill-rule:nonzero;stroke:none"
         d="m 102.203,134.7 1.625,0 0,5.563 -1.766,-0.344 0,0.891 1.75,0.359 0.985,0 0,-6.469 1.609,0 0,-0.828 -4.203,0 0,0.828 z" /><path
         id="path232"
         style="fill:#000000;fill-opacity:1;fill-rule:nonzero;stroke:none"
         d="m 108.543,135.107 1.031,0 0,-0.828 -0.797,-1.563 -0.64,0 0.406,1.563 0,0.828 z" /><path
         id="path234"
         style="fill:#000000;fill-opacity:1;fill-rule:nonzero;stroke:none"
         d="m 112.496,134.7 3.438,0 0,-0.828 -4.625,0 0,0.828 c 0.375,0.383 0.882,0.907 1.531,1.563 0.644,0.656 1.051,1.078 1.219,1.266 0.312,0.351 0.531,0.648 0.656,0.89 0.125,0.25 0.187,0.492 0.187,0.735 0,0.382 -0.136,0.695 -0.406,0.937 -0.273,0.25 -0.625,0.375 -1.062,0.375 -0.313,0 -0.641,-0.059 -0.985,-0.172 -0.336,-0.105 -0.699,-0.265 -1.094,-0.484 l 0,1 c 0.395,0.156 0.766,0.273 1.11,0.359 0.344,0.082 0.66,0.125 0.953,0.125 0.75,0 1.348,-0.187 1.797,-0.562 0.457,-0.375 0.687,-0.883 0.687,-1.516 0,-0.305 -0.058,-0.59 -0.172,-0.859 -0.117,-0.262 -0.32,-0.575 -0.609,-0.938 -0.086,-0.094 -0.344,-0.371 -0.781,-0.828 -0.438,-0.449 -1.055,-1.078 -1.844,-1.891 z" /><path
         id="path236"
         style="fill:#000000;fill-opacity:1;fill-rule:nonzero;stroke:none"
         d="m 121.039,137.81 c 0.469,-0.106 0.832,-0.321 1.094,-0.641 0.269,-0.312 0.406,-0.703 0.406,-1.172 0,-0.718 -0.25,-1.277 -0.75,-1.672 -0.492,-0.398 -1.195,-0.593 -2.109,-0.593 -0.305,0 -0.618,0.031 -0.938,0.093 -0.324,0.063 -0.656,0.149 -1,0.266 l 0,0.953 c 0.27,-0.156 0.567,-0.277 0.891,-0.359 0.332,-0.086 0.676,-0.125 1.031,-0.125 0.613,0 1.082,0.117 1.406,0.359 0.321,0.25 0.485,0.61 0.485,1.078 0,0.426 -0.153,0.758 -0.453,1 -0.305,0.239 -0.719,0.36 -1.25,0.36 l -0.86,0 0,0.812 0.891,0 c 0.488,0 0.859,0.098 1.109,0.297 0.258,0.195 0.391,0.477 0.391,0.844 0,0.363 -0.137,0.644 -0.406,0.844 -0.262,0.207 -0.637,0.312 -1.125,0.312 -0.274,0 -0.563,-0.031 -0.875,-0.094 -0.313,-0.054 -0.653,-0.14 -1.016,-0.265 l 0,0.875 c 0.375,0.101 0.723,0.179 1.047,0.234 0.332,0.051 0.64,0.078 0.922,0.078 0.75,0 1.343,-0.172 1.781,-0.515 0.437,-0.336 0.656,-0.793 0.656,-1.375 0,-0.407 -0.117,-0.75 -0.344,-1.032 -0.23,-0.273 -0.558,-0.461 -0.984,-0.562 z" /><path
         id="path238"
         style="fill:#000000;fill-opacity:1;fill-rule:nonzero;stroke:none"
         d="m 147.09,113.607 c 0,0.656 -0.137,1.16 -0.406,1.515 -0.274,0.352 -0.649,0.532 -1.125,0.532 -0.493,0 -0.871,-0.18 -1.141,-0.532 -0.262,-0.355 -0.391,-0.859 -0.391,-1.515 0,-0.649 0.129,-1.153 0.391,-1.516 0.27,-0.355 0.648,-0.531 1.141,-0.531 0.476,0 0.851,0.176 1.125,0.531 0.269,0.363 0.406,0.867 0.406,1.516 z m 0.89,-2.125 c 0,-0.926 -0.21,-1.614 -0.625,-2.063 -0.406,-0.457 -1.039,-0.687 -1.89,-0.687 -0.313,0 -0.61,0.027 -0.891,0.078 -0.281,0.043 -0.554,0.109 -0.812,0.203 l 0,0.875 c 0.258,-0.145 0.515,-0.25 0.765,-0.313 0.258,-0.07 0.524,-0.109 0.797,-0.109 0.582,0 1.02,0.156 1.313,0.469 0.301,0.304 0.453,0.765 0.453,1.39 l 0,0.454 c -0.188,-0.325 -0.43,-0.571 -0.719,-0.735 -0.293,-0.156 -0.641,-0.234 -1.047,-0.234 -0.668,0 -1.211,0.254 -1.625,0.765 -0.406,0.508 -0.609,1.188 -0.609,2.032 0,0.843 0.203,1.519 0.609,2.031 0.414,0.508 0.957,0.766 1.625,0.766 0.406,0 0.754,-0.079 1.047,-0.235 0.289,-0.156 0.531,-0.398 0.719,-0.719 l 0,0.829 0.89,0 0,-4.797 z" /><path
         id="path240"
         style="fill:#000000;fill-opacity:1;fill-rule:nonzero;stroke:none"
         d="m 152.988,114.747 c 0.469,-0.105 0.832,-0.32 1.094,-0.64 0.27,-0.313 0.406,-0.703 0.406,-1.172 0,-0.719 -0.25,-1.278 -0.75,-1.672 -0.492,-0.399 -1.195,-0.594 -2.109,-0.594 -0.305,0 -0.617,0.031 -0.938,0.094 -0.324,0.062 -0.656,0.148 -1,0.266 l 0,0.953 c 0.27,-0.157 0.567,-0.278 0.891,-0.36 0.332,-0.086 0.676,-0.125 1.031,-0.125 0.614,0 1.082,0.117 1.407,0.36 0.32,0.25 0.484,0.609 0.484,1.078 0,0.426 -0.152,0.758 -0.453,1 -0.305,0.238 -0.719,0.359 -1.25,0.359 l -0.86,0 0,0.813 0.891,0 c 0.488,0 0.859,0.097 1.109,0.297 0.258,0.195 0.391,0.476 0.391,0.843 0,0.364 -0.137,0.645 -0.406,0.844 -0.262,0.207 -0.637,0.313 -1.125,0.313 -0.274,0 -0.563,-0.032 -0.875,-0.094 -0.313,-0.055 -0.653,-0.141 -1.016,-0.266 l 0,0.875 c 0.375,0.102 0.723,0.18 1.047,0.235 0.332,0.05 0.641,0.078 0.922,0.078 0.75,0 1.344,-0.172 1.781,-0.516 0.438,-0.336 0.656,-0.793 0.656,-1.375 0,-0.406 -0.117,-0.75 -0.343,-1.031 -0.231,-0.274 -0.559,-0.461 -0.985,-0.563 z" /><path
         id="path242"
         style="fill:#000000;fill-opacity:1;fill-rule:nonzero;stroke:none"
         d="m 144.465,99.068 3.437,0 0,-0.829 -4.625,0 0,0.829 c 0.375,0.382 0.883,0.906 1.532,1.562 0.644,0.656 1.05,1.078 1.218,1.266 0.313,0.351 0.532,0.648 0.657,0.89 0.125,0.25 0.187,0.493 0.187,0.735 0,0.383 -0.137,0.695 -0.406,0.937 -0.274,0.25 -0.625,0.375 -1.063,0.375 -0.312,0 -0.64,-0.058 -0.984,-0.172 -0.336,-0.105 -0.699,-0.265 -1.094,-0.484 l 0,1 c 0.395,0.156 0.766,0.273 1.11,0.359 0.343,0.082 0.66,0.125 0.953,0.125 0.75,0 1.347,-0.187 1.797,-0.562 0.457,-0.375 0.687,-0.883 0.687,-1.516 0,-0.304 -0.059,-0.59 -0.172,-0.859 -0.117,-0.262 -0.32,-0.574 -0.609,-0.938 -0.086,-0.093 -0.344,-0.371 -0.781,-0.828 -0.438,-0.449 -1.055,-1.078 -1.844,-1.89 z" /><path
         id="path244"
         style="fill:#000000;fill-opacity:1;fill-rule:nonzero;stroke:none"
         d="m 150.117,99.474 1.031,0 0,-0.828 -0.796,-1.563 -0.641,0 0.406,1.563 0,0.828 z" /><path
         id="path246"
         style="fill:#000000;fill-opacity:1;fill-rule:nonzero;stroke:none"
         d="m 153.227,105.536 3.875,0 0,-0.843 -2.969,0 0,-1.782 c 0.144,0.051 0.285,0.086 0.422,0.11 0.144,0.019 0.289,0.031 0.437,0.031 0.813,0 1.453,-0.227 1.922,-0.672 0.477,-0.437 0.719,-1.039 0.719,-1.797 0,-0.793 -0.246,-1.406 -0.735,-1.844 -0.48,-0.429 -1.168,-0.64 -2.062,-0.64 -0.305,0 -0.617,0.027 -0.938,0.078 -0.312,0.055 -0.64,0.129 -0.984,0.234 l 0,0.985 c 0.301,-0.157 0.609,-0.278 0.922,-0.36 0.312,-0.074 0.641,-0.109 0.984,-0.109 0.563,0 1.004,0.145 1.328,0.437 0.332,0.301 0.5,0.708 0.5,1.219 0,0.5 -0.168,0.895 -0.5,1.188 -0.324,0.301 -0.765,0.453 -1.328,0.453 -0.261,0 -0.527,-0.031 -0.797,-0.094 -0.261,-0.055 -0.527,-0.141 -0.796,-0.266 l 0,3.672 z" /><path
         id="path248"
         style="fill:#000000;fill-opacity:1;fill-rule:nonzero;stroke:none"
         d="m 162.332,104.677 -2.484,-3.891 2.484,0 0,3.891 z m -0.266,0.859 1.25,0 0,-4.75 1.032,0 0,-0.828 -1.032,0 0,-1.719 -0.984,0 0,1.719 -3.297,0 0,0.953 3.031,4.625 z" /><path
         id="path250"
         style="fill:#000000;fill-opacity:1;fill-rule:nonzero;stroke:none"
         d="m 224.301,149.243 c 0,0.657 -0.137,1.161 -0.406,1.516 -0.274,0.352 -0.649,0.531 -1.125,0.531 -0.493,0 -0.872,-0.179 -1.141,-0.531 -0.262,-0.355 -0.391,-0.859 -0.391,-1.516 0,-0.648 0.129,-1.152 0.391,-1.515 0.269,-0.356 0.648,-0.531 1.141,-0.531 0.476,0 0.851,0.175 1.125,0.531 0.269,0.363 0.406,0.867 0.406,1.515 z m 0.89,-2.125 c 0,-0.925 -0.211,-1.613 -0.625,-2.062 -0.406,-0.457 -1.039,-0.688 -1.89,-0.688 -0.313,0 -0.61,0.028 -0.891,0.079 -0.281,0.042 -0.555,0.109 -0.812,0.203 l 0,0.875 c 0.257,-0.145 0.515,-0.25 0.765,-0.313 0.258,-0.07 0.524,-0.109 0.797,-0.109 0.582,0 1.02,0.156 1.313,0.469 0.3,0.304 0.453,0.765 0.453,1.39 l 0,0.453 c -0.188,-0.324 -0.43,-0.57 -0.719,-0.734 -0.293,-0.156 -0.641,-0.234 -1.047,-0.234 -0.668,0 -1.211,0.253 -1.625,0.765 -0.406,0.508 -0.609,1.188 -0.609,2.031 0,0.844 0.203,1.52 0.609,2.032 0.414,0.507 0.957,0.765 1.625,0.765 0.406,0 0.754,-0.078 1.047,-0.234 0.289,-0.156 0.531,-0.399 0.719,-0.719 l 0,0.828 0.89,0 0,-4.797 z" /><path
         id="path252"
         style="fill:#000000;fill-opacity:1;fill-rule:nonzero;stroke:none"
         d="m 229.918,152.884 -2.484,-3.891 2.484,0 0,3.891 z m -0.266,0.859 1.25,0 0,-4.75 1.032,0 0,-0.828 -1.032,0 0,-1.718 -0.984,0 0,1.718 -3.297,0 0,0.953 3.031,4.625 z" /><path
         id="path254"
         style="fill:#000000;fill-opacity:1;fill-rule:nonzero;stroke:none"
         d="m 220.988,134.7 1.625,0 0,5.563 -1.765,-0.344 0,0.891 1.75,0.359 0.984,0 0,-6.469 1.609,0 0,-0.828 -4.203,0 0,0.828 z" /><path
         id="path256"
         style="fill:#000000;fill-opacity:1;fill-rule:nonzero;stroke:none"
         d="m 227.328,135.107 1.031,0 0,-0.828 -0.797,-1.563 -0.64,0 0.406,1.563 0,0.828 z" /><path
         id="path258"
         style="fill:#000000;fill-opacity:1;fill-rule:nonzero;stroke:none"
         d="m 231.281,134.7 3.438,0 0,-0.828 -4.625,0 0,0.828 c 0.375,0.383 0.883,0.907 1.531,1.563 0.645,0.656 1.051,1.078 1.219,1.266 0.312,0.351 0.531,0.648 0.656,0.89 0.125,0.25 0.188,0.492 0.188,0.735 0,0.382 -0.137,0.695 -0.407,0.937 -0.273,0.25 -0.625,0.375 -1.062,0.375 -0.313,0 -0.641,-0.059 -0.985,-0.172 -0.336,-0.105 -0.699,-0.265 -1.093,-0.484 l 0,1 c 0.394,0.156 0.765,0.273 1.109,0.359 0.344,0.082 0.66,0.125 0.953,0.125 0.75,0 1.348,-0.187 1.797,-0.562 0.457,-0.375 0.688,-0.883 0.688,-1.516 0,-0.305 -0.059,-0.59 -0.172,-0.859 -0.118,-0.262 -0.321,-0.575 -0.61,-0.938 -0.086,-0.094 -0.344,-0.371 -0.781,-0.828 -0.437,-0.449 -1.055,-1.078 -1.844,-1.891 z" /><path
         id="path260"
         style="fill:#000000;fill-opacity:1;fill-rule:nonzero;stroke:none"
         d="m 239.824,137.81 c 0.469,-0.106 0.832,-0.321 1.094,-0.641 0.27,-0.312 0.406,-0.703 0.406,-1.172 0,-0.718 -0.25,-1.277 -0.75,-1.672 -0.492,-0.398 -1.195,-0.593 -2.109,-0.593 -0.305,0 -0.617,0.031 -0.938,0.093 -0.324,0.063 -0.656,0.149 -1,0.266 l 0,0.953 c 0.27,-0.156 0.567,-0.277 0.891,-0.359 0.332,-0.086 0.676,-0.125 1.031,-0.125 0.613,0 1.082,0.117 1.406,0.359 0.321,0.25 0.485,0.61 0.485,1.078 0,0.426 -0.152,0.758 -0.453,1 -0.305,0.239 -0.719,0.36 -1.25,0.36 l -0.86,0 0,0.812 0.891,0 c 0.488,0 0.859,0.098 1.109,0.297 0.258,0.195 0.391,0.477 0.391,0.844 0,0.363 -0.137,0.644 -0.406,0.844 -0.262,0.207 -0.637,0.312 -1.125,0.312 -0.274,0 -0.563,-0.031 -0.875,-0.094 -0.313,-0.054 -0.653,-0.14 -1.016,-0.265 l 0,0.875 c 0.375,0.101 0.723,0.179 1.047,0.234 0.332,0.051 0.641,0.078 0.922,0.078 0.75,0 1.344,-0.172 1.781,-0.515 0.438,-0.336 0.656,-0.793 0.656,-1.375 0,-0.407 -0.117,-0.75 -0.343,-1.032 -0.231,-0.273 -0.559,-0.461 -0.985,-0.562 z" /></g></g></svg>