<?xml version="1.0" encoding="UTF-8" standalone="no"?>
<svg
   xmlns:dc="http://purl.org/dc/elements/1.1/"
   xmlns:cc="http://creativecommons.org/ns#"
   xmlns:rdf="http://www.w3.org/1999/02/22-rdf-syntax-ns#"
   xmlns:svg="http://www.w3.org/2000/svg"
   xmlns="http://www.w3.org/2000/svg"
   viewBox="0 0 383.85825 174.41626"
   height="174.41626"
   width="383.85825"
   xml:space="preserve"
   version="1.1"
   id="svg2"><metadata
     id="metadata8"><rdf:RDF><cc:Work
         rdf:about=""><dc:format>image/svg+xml</dc:format><dc:type
           rdf:resource="http://purl.org/dc/dcmitype/StillImage" /></cc:Work></rdf:RDF></metadata><defs
     id="defs6" /><g
     transform="matrix(1.25,0,0,-1.25,0,174.41626)"
     id="g10"><g
       id="g12"><g
         transform="matrix(1,0,0,-1,0,139.533)"
         id="g14"><path
           id="path16"
           style="fill:none;stroke:#000000;stroke-width:1.47637796;stroke-linecap:butt;stroke-linejoin:miter;stroke-miterlimit:4;stroke-dasharray:none;stroke-opacity:1"
           d="m 6.629,82.957 293.801,0" /></g><path
         id="path18"
         style="fill:#ffffff;fill-opacity:1;fill-rule:nonzero;stroke:none"
         d="m 0.727,56.576 c 0,1.477 1.472,2.953 2.949,2.953 1.476,0 2.953,-1.476 2.953,-2.953 0,-1.477 -1.477,-2.953 -2.953,-2.953 -1.477,0 -2.949,1.476 -2.949,2.953 z" /><g
         transform="matrix(1,0,0,-1,0,139.533)"
         id="g20"><path
           id="path22"
           style="fill:none;stroke:#000000;stroke-width:1.47637796;stroke-linecap:butt;stroke-linejoin:miter;stroke-miterlimit:4;stroke-dasharray:none;stroke-opacity:1"
           d="m 0.727,82.957 c 0,-1.477 1.472,-2.953 2.949,-2.953 1.476,0 2.953,1.476 2.953,2.953 0,1.477 -1.477,2.953 -2.953,2.953 -1.477,0 -2.949,-1.476 -2.949,-2.953" /></g><path
         id="path24"
         style="fill:#ffffff;fill-opacity:1;fill-rule:nonzero;stroke:none"
         d="m 306.336,56.576 c 0,-1.477 -1.477,-2.953 -2.953,-2.953 -1.477,0 -2.953,1.476 -2.953,2.953 0,1.477 1.476,2.953 2.953,2.953 1.476,0 2.953,-1.476 2.953,-2.953 z" /><g
         transform="matrix(1,0,0,-1,0,139.533)"
         id="g26"><path
           id="path28"
           style="fill:none;stroke:#000000;stroke-width:1.47637796;stroke-linecap:butt;stroke-linejoin:miter;stroke-miterlimit:4;stroke-dasharray:none;stroke-opacity:1"
           d="m 306.336,82.957 c 0,1.477 -1.477,2.953 -2.953,2.953 -1.477,0 -2.953,-1.476 -2.953,-2.953 0,-1.477 1.476,-2.953 2.953,-2.953 1.476,0 2.953,1.476 2.953,2.953" /></g><g
         transform="matrix(1,0,0,-1,0,139.533)"
         id="g30"><path
           id="path32"
           style="fill:none;stroke:#000000;stroke-width:1.47637796;stroke-linecap:butt;stroke-linejoin:miter;stroke-miterlimit:4;stroke-dasharray:none;stroke-opacity:1"
           d="m 153.531,82.957 -26.578,55.824" /></g><path
         id="path34"
         style="fill:#000000;fill-opacity:1;fill-rule:nonzero;stroke:none"
         d="m 126.953,0.752 c -0.066,0.035 -0.101,0.133 -0.066,0.199 0.031,0.066 0.129,0.102 0.195,0.07 0.066,-0.035 0.102,-0.129 0.07,-0.195 -0.031,-0.07 -0.129,-0.105 -0.199,-0.074 z" /><g
         transform="matrix(1,0,0,-1,0,139.533)"
         id="g36"><path
           id="path38"
           style="fill:none;stroke:#000000;stroke-width:1.47637796;stroke-linecap:butt;stroke-linejoin:miter;stroke-miterlimit:4;stroke-dasharray:none;stroke-opacity:1"
           d="m 126.953,138.781 c -0.066,-0.035 -0.101,-0.133 -0.066,-0.199 0.031,-0.066 0.129,-0.102 0.195,-0.07 0.066,0.035 0.102,0.129 0.07,0.195 -0.031,0.07 -0.129,0.105 -0.199,0.074" /></g><g
         transform="matrix(1,0,0,-1,0,139.533)"
         id="g40"><path
           id="path42"
           style="fill:none;stroke:#000000;stroke-width:1.47637796;stroke-linecap:butt;stroke-linejoin:miter;stroke-miterlimit:4;stroke-dasharray:none;stroke-opacity:1"
           d="M 38.371,47.77 11.797,103.348" /></g><path
         id="path44"
         style="fill:#000000;fill-opacity:1;fill-rule:nonzero;stroke:none"
         d="m 11.797,36.185 c -0.067,0.036 -0.102,0.133 -0.07,0.2 0.031,0.066 0.132,0.101 0.199,0.07 0.066,-0.035 0.101,-0.133 0.066,-0.199 -0.027,-0.067 -0.129,-0.102 -0.195,-0.071 z" /><g
         transform="matrix(1,0,0,-1,0,139.533)"
         id="g46"><path
           id="path48"
           style="fill:none;stroke:#000000;stroke-width:1.47637796;stroke-linecap:butt;stroke-linejoin:miter;stroke-miterlimit:4;stroke-dasharray:none;stroke-opacity:1"
           d="m 11.797,103.348 c -0.067,-0.036 -0.102,-0.133 -0.07,-0.2 0.031,-0.066 0.132,-0.101 0.199,-0.07 0.066,0.035 0.101,0.133 0.066,0.199 -0.027,0.067 -0.129,0.102 -0.195,0.071" /></g><g
         transform="matrix(1,0,0,-1,0,139.533)"
         id="g50"><path
           id="path52"
           style="fill:none;stroke:#000000;stroke-width:1.47637796;stroke-linecap:butt;stroke-linejoin:miter;stroke-miterlimit:4;stroke-dasharray:none;stroke-opacity:1"
           d="M 38.371,82.957 11.797,138.781" /></g><path
         id="path54"
         style="fill:#000000;fill-opacity:1;fill-rule:nonzero;stroke:none"
         d="m 11.797,0.752 c -0.067,0.035 -0.102,0.133 -0.07,0.199 0.031,0.066 0.132,0.102 0.199,0.07 0.066,-0.035 0.101,-0.129 0.066,-0.195 -0.027,-0.07 -0.129,-0.105 -0.195,-0.074 z" /><g
         transform="matrix(1,0,0,-1,0,139.533)"
         id="g56"><path
           id="path58"
           style="fill:none;stroke:#000000;stroke-width:1.47637796;stroke-linecap:butt;stroke-linejoin:miter;stroke-miterlimit:4;stroke-dasharray:none;stroke-opacity:1"
           d="m 11.797,138.781 c -0.067,-0.035 -0.102,-0.133 -0.07,-0.199 0.031,-0.066 0.132,-0.102 0.199,-0.07 0.066,0.035 0.101,0.129 0.066,0.195 -0.027,0.07 -0.129,0.105 -0.195,0.074" /></g><g
         transform="matrix(1,0,0,-1,0,139.533)"
         id="g60"><path
           id="path62"
           style="fill:none;stroke:#000000;stroke-width:1.47637796;stroke-linecap:butt;stroke-linejoin:miter;stroke-miterlimit:4;stroke-dasharray:none;stroke-opacity:1"
           d="m 268.688,82.957 -26.575,55.824" /></g><path
         id="path64"
         style="fill:#000000;fill-opacity:1;fill-rule:nonzero;stroke:none"
         d="m 242.113,0.752 c -0.066,0.035 -0.101,0.133 -0.07,0.199 0.031,0.066 0.129,0.102 0.195,0.07 0.067,-0.035 0.102,-0.129 0.071,-0.195 -0.032,-0.07 -0.129,-0.105 -0.196,-0.074 z" /><g
         transform="matrix(1,0,0,-1,0,139.533)"
         id="g66"><path
           id="path68"
           style="fill:none;stroke:#000000;stroke-width:1.47637796;stroke-linecap:butt;stroke-linejoin:miter;stroke-miterlimit:4;stroke-dasharray:none;stroke-opacity:1"
           d="m 242.113,138.781 c -0.066,-0.035 -0.101,-0.133 -0.07,-0.199 0.031,-0.066 0.129,-0.102 0.195,-0.07 0.067,0.035 0.102,0.129 0.071,0.195 -0.032,0.07 -0.129,0.105 -0.196,0.074" /></g><g
         transform="matrix(1,0,0,-1,0,139.533)"
         id="g70"><path
           id="path72"
           style="fill:none;stroke:#000000;stroke-width:1.47637796;stroke-linecap:butt;stroke-linejoin:miter;stroke-miterlimit:4;stroke-dasharray:none;stroke-opacity:1"
           d="M 132.77,9.352 94.383,9.363" /></g><path
         id="path74"
         style="fill:#000000;fill-opacity:1;fill-rule:nonzero;stroke:none"
         d="m 132.77,130.181 c 0,-0.074 -0.075,-0.144 -0.149,-0.144 -0.074,0 -0.148,0.07 -0.148,0.144 0,0.075 0.074,0.149 0.148,0.149 0.074,0 0.145,-0.074 0.149,-0.149 z" /><g
         transform="matrix(1,0,0,-1,0,139.533)"
         id="g76"><path
           id="path78"
           style="fill:none;stroke:#000000;stroke-width:1.47637796;stroke-linecap:butt;stroke-linejoin:miter;stroke-miterlimit:4;stroke-dasharray:none;stroke-opacity:1"
           d="m 132.77,9.352 c 0,0.074 -0.075,0.144 -0.149,0.144 -0.074,0 -0.148,-0.07 -0.148,-0.144 0,-0.075 0.074,-0.149 0.148,-0.149 0.074,0 0.145,0.074 0.149,0.149" /></g><path
         id="path80"
         style="fill:#000000;fill-opacity:1;fill-rule:nonzero;stroke:none"
         d="m 94.383,130.17 c 0,0.074 0.074,0.152 0.148,0.152 0.071,0 0.145,-0.074 0.149,-0.148 0,-0.075 -0.075,-0.149 -0.149,-0.149 -0.074,0 -0.148,0.071 -0.148,0.145 z" /><g
         transform="matrix(1,0,0,-1,0,139.533)"
         id="g82"><path
           id="path84"
           style="fill:none;stroke:#000000;stroke-width:1.47637796;stroke-linecap:butt;stroke-linejoin:miter;stroke-miterlimit:4;stroke-dasharray:none;stroke-opacity:1"
           d="m 94.383,9.363 c 0,-0.074 0.074,-0.152 0.148,-0.152 0.071,0 0.145,0.074 0.149,0.148 0,0.075 -0.075,0.149 -0.149,0.149 -0.074,0 -0.148,-0.07 -0.148,-0.145" /></g><g
         transform="matrix(1,0,0,-1,0,139.533)"
         id="g86"><path
           id="path88"
           style="fill:none;stroke:#000000;stroke-width:1.47637796;stroke-linecap:butt;stroke-linejoin:miter;stroke-miterlimit:4;stroke-dasharray:none;stroke-opacity:1"
           d="m 6.629,47.523 70.129,0" /></g><path
         id="path90"
         style="fill:#ffffff;fill-opacity:1;fill-rule:nonzero;stroke:none"
         d="m 0.727,92.01 c 0,1.476 1.472,2.953 2.949,2.953 1.476,0 2.953,-1.477 2.953,-2.953 0,-1.477 -1.477,-2.954 -2.953,-2.954 -1.477,0 -2.949,1.477 -2.949,2.954 z" /><g
         transform="matrix(1,0,0,-1,0,139.533)"
         id="g92"><path
           id="path94"
           style="fill:none;stroke:#000000;stroke-width:1.47637796;stroke-linecap:butt;stroke-linejoin:miter;stroke-miterlimit:4;stroke-dasharray:none;stroke-opacity:1"
           d="m 0.727,47.523 c 0,-1.476 1.472,-2.953 2.949,-2.953 1.476,0 2.953,1.477 2.953,2.953 0,1.477 -1.477,2.954 -2.953,2.954 -1.477,0 -2.949,-1.477 -2.949,-2.954" /></g><path
         id="path96"
         style="fill:#000000;fill-opacity:1;fill-rule:nonzero;stroke:none"
         d="m 76.758,92.01 c 0,-0.075 -0.074,-0.149 -0.149,-0.149 -0.074,0 -0.144,0.074 -0.144,0.149 0,0.074 0.07,0.148 0.144,0.148 0.075,0 0.149,-0.074 0.149,-0.148 z" /><g
         transform="matrix(1,0,0,-1,0,139.533)"
         id="g98"><path
           id="path100"
           style="fill:none;stroke:#000000;stroke-width:1.47637796;stroke-linecap:butt;stroke-linejoin:miter;stroke-miterlimit:4;stroke-dasharray:none;stroke-opacity:1"
           d="m 76.758,47.523 c 0,0.075 -0.074,0.149 -0.149,0.149 -0.074,0 -0.144,-0.074 -0.144,-0.149 0,-0.074 0.07,-0.148 0.144,-0.148 0.075,0 0.149,0.074 0.149,0.148" /></g><g
         transform="matrix(1,0,0,-1,0,139.533)"
         id="g102"><path
           id="path104"
           style="fill:none;stroke:#000000;stroke-width:1.47637796;stroke-linecap:butt;stroke-linejoin:miter;stroke-miterlimit:4;stroke-dasharray:none;stroke-opacity:1"
           d="m 115.145,47.523 76.769,0" /></g><path
         id="path106"
         style="fill:#000000;fill-opacity:1;fill-rule:nonzero;stroke:none"
         d="m 115.145,92.01 c 0,0.074 0.074,0.148 0.148,0.148 0.074,0 0.145,-0.074 0.145,-0.148 0,-0.075 -0.071,-0.149 -0.145,-0.149 -0.074,0 -0.148,0.074 -0.148,0.149 z" /><g
         transform="matrix(1,0,0,-1,0,139.533)"
         id="g108"><path
           id="path110"
           style="fill:none;stroke:#000000;stroke-width:1.47637796;stroke-linecap:butt;stroke-linejoin:miter;stroke-miterlimit:4;stroke-dasharray:none;stroke-opacity:1"
           d="m 115.145,47.523 c 0,-0.074 0.074,-0.148 0.148,-0.148 0.074,0 0.145,0.074 0.145,0.148 0,0.075 -0.071,0.149 -0.145,0.149 -0.074,0 -0.148,-0.074 -0.148,-0.149" /></g><path
         id="path112"
         style="fill:#000000;fill-opacity:1;fill-rule:nonzero;stroke:none"
         d="m 191.914,92.01 c 0,-0.075 -0.07,-0.149 -0.144,-0.149 -0.075,0 -0.149,0.074 -0.149,0.149 0,0.074 0.074,0.148 0.149,0.148 0.074,0 0.144,-0.074 0.144,-0.148 z" /><g
         transform="matrix(1,0,0,-1,0,139.533)"
         id="g114"><path
           id="path116"
           style="fill:none;stroke:#000000;stroke-width:1.47637796;stroke-linecap:butt;stroke-linejoin:miter;stroke-miterlimit:4;stroke-dasharray:none;stroke-opacity:1"
           d="m 191.914,47.523 c 0,0.075 -0.07,0.149 -0.144,0.149 -0.075,0 -0.149,-0.074 -0.149,-0.149 0,-0.074 0.074,-0.148 0.149,-0.148 0.074,0 0.144,0.074 0.144,0.148" /></g><g
         transform="matrix(1,0,0,-1,0,139.533)"
         id="g118"><path
           id="path120"
           style="fill:none;stroke:#000000;stroke-width:1.47637796;stroke-linecap:butt;stroke-linejoin:miter;stroke-miterlimit:4;stroke-dasharray:none;stroke-opacity:1"
           d="m 300.43,47.523 -70.129,0" /></g><path
         id="path122"
         style="fill:#ffffff;fill-opacity:1;fill-rule:nonzero;stroke:none"
         d="m 306.336,92.01 c 0,-1.477 -1.477,-2.954 -2.953,-2.954 -1.477,0 -2.953,1.477 -2.953,2.954 0,1.476 1.476,2.953 2.953,2.953 1.476,0 2.953,-1.477 2.953,-2.953 z" /><g
         transform="matrix(1,0,0,-1,0,139.533)"
         id="g124"><path
           id="path126"
           style="fill:none;stroke:#000000;stroke-width:1.47637796;stroke-linecap:butt;stroke-linejoin:miter;stroke-miterlimit:4;stroke-dasharray:none;stroke-opacity:1"
           d="m 306.336,47.523 c 0,1.477 -1.477,2.954 -2.953,2.954 -1.477,0 -2.953,-1.477 -2.953,-2.954 0,-1.476 1.476,-2.953 2.953,-2.953 1.476,0 2.953,1.477 2.953,2.953" /></g><path
         id="path128"
         style="fill:#000000;fill-opacity:1;fill-rule:nonzero;stroke:none"
         d="m 230.301,92.01 c 0,0.074 0.074,0.148 0.148,0.148 0.074,0 0.149,-0.074 0.149,-0.148 0,-0.075 -0.075,-0.149 -0.149,-0.149 -0.074,0 -0.148,0.074 -0.148,0.149 z" /><g
         transform="matrix(1,0,0,-1,0,139.533)"
         id="g130"><path
           id="path132"
           style="fill:none;stroke:#000000;stroke-width:1.47637796;stroke-linecap:butt;stroke-linejoin:miter;stroke-miterlimit:4;stroke-dasharray:none;stroke-opacity:1"
           d="m 230.301,47.523 c 0,-0.074 0.074,-0.148 0.148,-0.148 0.074,0 0.149,0.074 0.149,0.148 0,0.075 -0.075,0.149 -0.149,0.149 -0.074,0 -0.148,-0.074 -0.148,-0.149" /></g><g
         transform="matrix(1,0,0,-1,0,139.533)"
         id="g134"><path
           id="path136"
           style="fill:none;stroke:#bf00bf;stroke-width:1.47637796;stroke-linecap:butt;stroke-linejoin:miter;stroke-miterlimit:4;stroke-dasharray:5.905512, 5.905512;stroke-dashoffset:0;stroke-opacity:1"
           d="m 64.945,41.617 0,53.149" /></g><g
         transform="matrix(1,0,0,-1,0,139.533)"
         id="g138"><path
           id="path140"
           style="fill:none;stroke:#bf00bf;stroke-width:1.47637796;stroke-linecap:butt;stroke-linejoin:miter;stroke-miterlimit:4;stroke-dasharray:5.905512, 5.905512;stroke-dashoffset:0;stroke-opacity:1"
           d="m 129.906,41.617 0,53.149" /></g><g
         transform="matrix(1,0,0,-1,0,139.533)"
         id="g142"><path
           id="path144"
           style="fill:none;stroke:#bf00bf;stroke-width:1.47637796;stroke-linecap:butt;stroke-linejoin:miter;stroke-miterlimit:4;stroke-dasharray:5.905512, 5.905512;stroke-dashoffset:0;stroke-opacity:1"
           d="m 177.152,41.617 0,53.149" /></g><g
         transform="matrix(1,0,0,-1,0,139.533)"
         id="g146"><path
           id="path148"
           style="fill:none;stroke:#bf00bf;stroke-width:1.47637796;stroke-linecap:butt;stroke-linejoin:miter;stroke-miterlimit:4;stroke-dasharray:5.905512, 5.905512;stroke-dashoffset:0;stroke-opacity:1"
           d="m 242.113,41.617 0,53.149" /></g><g
         transform="matrix(1,0,0,-1,0,139.533)"
         id="g150"><path
           id="path152"
           style="fill:none;stroke:#000000;stroke-width:1.47637796;stroke-linecap:butt;stroke-linejoin:miter;stroke-miterlimit:4;stroke-dasharray:none;stroke-opacity:1"
           d="m 153.531,47.664 -26.578,55.961" /></g><path
         id="path154"
         style="fill:#000000;fill-opacity:1;fill-rule:nonzero;stroke:none"
         d="m 126.953,35.908 c -0.066,0.031 -0.101,0.129 -0.066,0.195 0.031,0.067 0.129,0.102 0.195,0.071 0.066,-0.032 0.102,-0.129 0.07,-0.196 -0.031,-0.066 -0.129,-0.101 -0.199,-0.07 z" /><g
         transform="matrix(1,0,0,-1,0,139.533)"
         id="g156"><path
           id="path158"
           style="fill:none;stroke:#000000;stroke-width:1.47637796;stroke-linecap:butt;stroke-linejoin:miter;stroke-miterlimit:4;stroke-dasharray:none;stroke-opacity:1"
           d="m 126.953,103.625 c -0.066,-0.031 -0.101,-0.129 -0.066,-0.195 0.031,-0.067 0.129,-0.102 0.195,-0.071 0.066,0.032 0.102,0.129 0.07,0.196 -0.031,0.066 -0.129,0.101 -0.199,0.07" /></g><g
         transform="matrix(1,0,0,-1,0,139.533)"
         id="g160"><path
           id="path162"
           style="fill:none;stroke:#000000;stroke-width:1.47637796;stroke-linecap:butt;stroke-linejoin:miter;stroke-miterlimit:4;stroke-dasharray:none;stroke-opacity:1"
           d="m 268.688,47.559 -26.575,55.789" /></g><path
         id="path164"
         style="fill:#000000;fill-opacity:1;fill-rule:nonzero;stroke:none"
         d="m 242.113,36.185 c -0.066,0.036 -0.101,0.129 -0.07,0.2 0.031,0.066 0.129,0.101 0.195,0.07 0.067,-0.035 0.102,-0.133 0.071,-0.199 -0.032,-0.067 -0.129,-0.102 -0.196,-0.071 z" /><g
         transform="matrix(1,0,0,-1,0,139.533)"
         id="g166"><path
           id="path168"
           style="fill:none;stroke:#000000;stroke-width:1.47637796;stroke-linecap:butt;stroke-linejoin:miter;stroke-miterlimit:4;stroke-dasharray:none;stroke-opacity:1"
           d="m 242.113,103.348 c -0.066,-0.036 -0.101,-0.129 -0.07,-0.2 0.031,-0.066 0.129,-0.101 0.195,-0.07 0.067,0.035 0.102,0.133 0.071,0.199 -0.032,0.067 -0.129,0.102 -0.196,0.071" /></g><g
         transform="matrix(1,0,0,-1,0,139.533)"
         id="g170"><path
           id="path172"
           style="fill:none;stroke:#000000;stroke-width:1.47637796;stroke-linecap:butt;stroke-linejoin:miter;stroke-miterlimit:4;stroke-dasharray:none;stroke-opacity:1"
           d="M 132.859,9.137 115.145,47.523" /></g><g
         transform="matrix(1,0,0,-1,0,139.533)"
         id="g174"><path
           id="path176"
           style="fill:none;stroke:#000000;stroke-width:1.47637796;stroke-linecap:butt;stroke-linejoin:miter;stroke-miterlimit:4;stroke-dasharray:none;stroke-opacity:1"
           d="M 94.477,9.137 76.758,47.523" /></g><g
         transform="matrix(1,0,0,-1,0,139.533)"
         id="g178"><path
           id="path180"
           style="fill:none;stroke:#000000;stroke-width:1.47637796;stroke-linecap:butt;stroke-linejoin:miter;stroke-miterlimit:4;stroke-dasharray:none;stroke-opacity:1"
           d="M 247.797,9.609 209.41,9.621" /></g><path
         id="path182"
         style="fill:#000000;fill-opacity:1;fill-rule:nonzero;stroke:none"
         d="m 247.797,129.924 c 0,-0.075 -0.074,-0.149 -0.149,-0.149 -0.074,0 -0.148,0.074 -0.148,0.149 0,0.074 0.074,0.148 0.148,0.148 0.075,0 0.149,-0.074 0.149,-0.148 z" /><g
         transform="matrix(1,0,0,-1,0,139.533)"
         id="g184"><path
           id="path186"
           style="fill:none;stroke:#000000;stroke-width:1.47637796;stroke-linecap:butt;stroke-linejoin:miter;stroke-miterlimit:4;stroke-dasharray:none;stroke-opacity:1"
           d="m 247.797,9.609 c 0,0.075 -0.074,0.149 -0.149,0.149 -0.074,0 -0.148,-0.074 -0.148,-0.149 0,-0.074 0.074,-0.148 0.148,-0.148 0.075,0 0.149,0.074 0.149,0.148" /></g><path
         id="path188"
         style="fill:#000000;fill-opacity:1;fill-rule:nonzero;stroke:none"
         d="m 209.41,129.912 c 0,0.074 0.074,0.148 0.149,0.148 0.07,0 0.144,-0.074 0.144,-0.148 0,-0.074 -0.074,-0.149 -0.144,-0.149 -0.075,0 -0.149,0.075 -0.149,0.149 z" /><g
         transform="matrix(1,0,0,-1,0,139.533)"
         id="g190"><path
           id="path192"
           style="fill:none;stroke:#000000;stroke-width:1.47637796;stroke-linecap:butt;stroke-linejoin:miter;stroke-miterlimit:4;stroke-dasharray:none;stroke-opacity:1"
           d="m 209.41,9.621 c 0,-0.074 0.074,-0.148 0.149,-0.148 0.07,0 0.144,0.074 0.144,0.148 0,0.074 -0.074,0.149 -0.144,0.149 -0.075,0 -0.149,-0.075 -0.149,-0.149" /></g><g
         transform="matrix(1,0,0,-1,0,139.533)"
         id="g194"><path
           id="path196"
           style="fill:none;stroke:#000000;stroke-width:1.47637796;stroke-linecap:butt;stroke-linejoin:miter;stroke-miterlimit:4;stroke-dasharray:none;stroke-opacity:1"
           d="M 247.887,9.398 230.172,47.785" /></g><g
         transform="matrix(1,0,0,-1,0,139.533)"
         id="g198"><path
           id="path200"
           style="fill:none;stroke:#000000;stroke-width:1.47637796;stroke-linecap:butt;stroke-linejoin:miter;stroke-miterlimit:4;stroke-dasharray:none;stroke-opacity:1"
           d="M 209.504,9.398 191.785,47.785" /></g><path
         id="path202"
         style="fill:#000000;fill-opacity:1;fill-rule:nonzero;stroke:none"
         d="m 101.379,134.021 1.281,0 0,4.438 -1.406,-0.281 0,0.718 1.406,0.282 0.781,0 0,-5.157 1.297,0 0,-0.672 -3.359,0 0,0.672 z" /><path
         id="path204"
         style="fill:#000000;fill-opacity:1;fill-rule:nonzero;stroke:none"
         d="m 106.625,134.349 0.828,0 0,-0.671 -0.641,-1.266 -0.5,0 0.313,1.266 0,0.671 z" /><path
         id="path206"
         style="fill:#000000;fill-opacity:1;fill-rule:nonzero;stroke:none"
         d="m 109.871,134.021 2.766,0 0,-0.672 -3.703,0 0,0.672 c 0.289,0.301 0.695,0.711 1.218,1.235 0.52,0.531 0.844,0.867 0.969,1.015 0.258,0.282 0.438,0.52 0.531,0.719 0.102,0.195 0.157,0.391 0.157,0.578 0,0.313 -0.11,0.567 -0.329,0.766 -0.218,0.195 -0.5,0.297 -0.843,0.297 -0.25,0 -0.516,-0.047 -0.797,-0.141 -0.274,-0.086 -0.563,-0.215 -0.875,-0.391 l 0,0.797 c 0.32,0.133 0.617,0.235 0.89,0.297 0.282,0.063 0.536,0.094 0.766,0.094 0.602,0 1.082,-0.152 1.438,-0.453 0.363,-0.305 0.546,-0.703 0.546,-1.203 0,-0.243 -0.046,-0.469 -0.14,-0.688 -0.094,-0.219 -0.258,-0.476 -0.485,-0.765 -0.074,-0.075 -0.289,-0.293 -0.64,-0.657 -0.344,-0.355 -0.836,-0.855 -1.469,-1.5 z" /><path
         id="path208"
         style="fill:#000000;fill-opacity:1;fill-rule:nonzero;stroke:none"
         d="m 116.895,136.49 c 0.375,-0.074 0.664,-0.242 0.875,-0.5 0.218,-0.25 0.328,-0.562 0.328,-0.937 0,-0.586 -0.2,-1.032 -0.594,-1.344 -0.399,-0.313 -0.961,-0.469 -1.688,-0.469 -0.25,0 -0.507,0.027 -0.765,0.078 -0.25,0.039 -0.516,0.11 -0.797,0.203 l 0,0.766 c 0.219,-0.125 0.457,-0.227 0.719,-0.297 0.257,-0.062 0.531,-0.094 0.812,-0.094 0.5,0 0.879,0.098 1.141,0.297 0.258,0.195 0.39,0.485 0.39,0.86 0,0.343 -0.125,0.609 -0.375,0.796 -0.242,0.196 -0.574,0.297 -1,0.297 l -0.671,0 0,0.641 0.703,0 c 0.382,0 0.679,0.078 0.89,0.234 0.207,0.157 0.313,0.379 0.313,0.672 0,0.301 -0.11,0.531 -0.328,0.688 -0.211,0.164 -0.512,0.25 -0.907,0.25 -0.218,0 -0.453,-0.028 -0.703,-0.078 -0.242,-0.043 -0.511,-0.118 -0.812,-0.219 l 0,0.703 c 0.301,0.082 0.582,0.144 0.844,0.187 0.257,0.039 0.507,0.063 0.75,0.063 0.593,0 1.062,-0.137 1.406,-0.406 0.351,-0.274 0.531,-0.641 0.531,-1.11 0,-0.324 -0.094,-0.593 -0.281,-0.812 -0.18,-0.219 -0.438,-0.375 -0.781,-0.469 z" /><path
         id="path210"
         style="fill:#000000;fill-opacity:1;fill-rule:nonzero;stroke:none"
         d="m 149.156,98.588 2.766,0 0,-0.672 -3.703,0 0,0.672 c 0.289,0.3 0.695,0.711 1.219,1.234 0.519,0.531 0.843,0.867 0.968,1.016 0.258,0.281 0.438,0.519 0.532,0.718 0.101,0.196 0.156,0.391 0.156,0.579 0,0.312 -0.11,0.566 -0.328,0.765 -0.219,0.196 -0.5,0.297 -0.844,0.297 -0.25,0 -0.516,-0.047 -0.797,-0.141 -0.273,-0.085 -0.563,-0.214 -0.875,-0.39 l 0,0.797 c 0.32,0.133 0.617,0.234 0.891,0.297 0.281,0.062 0.535,0.093 0.765,0.093 0.602,0 1.082,-0.152 1.438,-0.453 0.363,-0.304 0.547,-0.703 0.547,-1.203 0,-0.242 -0.047,-0.469 -0.141,-0.687 -0.094,-0.219 -0.258,-0.477 -0.484,-0.766 -0.075,-0.074 -0.289,-0.293 -0.641,-0.656 -0.344,-0.356 -0.836,-0.856 -1.469,-1.5 z" /><path
         id="path212"
         style="fill:#000000;fill-opacity:1;fill-rule:nonzero;stroke:none"
         d="m 153.867,98.916 0.828,0 0,-0.672 -0.64,-1.266 -0.5,0 0.312,1.266 0,0.672 z" /><path
         id="path214"
         style="fill:#000000;fill-opacity:1;fill-rule:nonzero;stroke:none"
         d="m 156.441,103.744 3.11,0 0,-0.656 -2.375,0 0,-1.438 c 0.113,0.039 0.226,0.071 0.344,0.094 0.113,0.019 0.226,0.031 0.343,0.031 0.645,0 1.157,-0.183 1.532,-0.547 0.382,-0.355 0.578,-0.836 0.578,-1.437 0,-0.625 -0.2,-1.117 -0.594,-1.469 -0.387,-0.344 -0.934,-0.516 -1.641,-0.516 -0.25,0 -0.5,0.024 -0.75,0.063 -0.25,0.043 -0.511,0.102 -0.781,0.187 l 0,0.797 c 0.227,-0.136 0.469,-0.234 0.719,-0.297 0.25,-0.062 0.515,-0.093 0.797,-0.093 0.445,0 0.8,0.117 1.062,0.359 0.27,0.238 0.406,0.563 0.406,0.969 0,0.406 -0.136,0.722 -0.406,0.953 -0.262,0.238 -0.617,0.359 -1.062,0.359 -0.211,0 -0.422,-0.027 -0.641,-0.078 -0.211,-0.043 -0.422,-0.109 -0.641,-0.203 l 0,2.922 z" /><path
         id="path216"
         style="fill:#000000;fill-opacity:1;fill-rule:nonzero;stroke:none"
         d="m 163.922,103.056 -2,-3.109 2,0 0,3.109 z m -0.219,0.688 1,0 0,-3.797 0.828,0 0,-0.656 -0.828,0 0,-1.375 -0.781,0 0,1.375 -2.641,0 0,0.765 2.422,3.688 z" /><path
         id="path218"
         style="fill:#000000;fill-opacity:1;fill-rule:nonzero;stroke:none"
         d="m 219.492,134.021 1.281,0 0,4.438 -1.406,-0.281 0,0.718 1.406,0.282 0.782,0 0,-5.157 1.297,0 0,-0.672 -3.36,0 0,0.672 z" /><path
         id="path220"
         style="fill:#000000;fill-opacity:1;fill-rule:nonzero;stroke:none"
         d="m 224.734,134.349 0.828,0 0,-0.671 -0.64,-1.266 -0.5,0 0.312,1.266 0,0.671 z" /><path
         id="path222"
         style="fill:#000000;fill-opacity:1;fill-rule:nonzero;stroke:none"
         d="m 227.98,134.021 2.766,0 0,-0.672 -3.703,0 0,0.672 c 0.289,0.301 0.695,0.711 1.219,1.235 0.519,0.531 0.843,0.867 0.968,1.015 0.258,0.282 0.438,0.52 0.532,0.719 0.101,0.195 0.156,0.391 0.156,0.578 0,0.313 -0.109,0.567 -0.328,0.766 -0.219,0.195 -0.5,0.297 -0.844,0.297 -0.25,0 -0.516,-0.047 -0.797,-0.141 -0.273,-0.086 -0.562,-0.215 -0.875,-0.391 l 0,0.797 c 0.321,0.133 0.617,0.235 0.891,0.297 0.281,0.063 0.535,0.094 0.765,0.094 0.602,0 1.082,-0.152 1.438,-0.453 0.363,-0.305 0.547,-0.703 0.547,-1.203 0,-0.243 -0.047,-0.469 -0.141,-0.688 -0.094,-0.219 -0.258,-0.476 -0.484,-0.765 -0.074,-0.075 -0.289,-0.293 -0.641,-0.657 -0.344,-0.355 -0.836,-0.855 -1.469,-1.5 z" /><path
         id="path224"
         style="fill:#000000;fill-opacity:1;fill-rule:nonzero;stroke:none"
         d="m 235.004,136.49 c 0.375,-0.074 0.664,-0.242 0.875,-0.5 0.219,-0.25 0.328,-0.562 0.328,-0.937 0,-0.586 -0.199,-1.032 -0.594,-1.344 -0.398,-0.313 -0.961,-0.469 -1.687,-0.469 -0.25,0 -0.508,0.027 -0.766,0.078 -0.25,0.039 -0.515,0.11 -0.797,0.203 l 0,0.766 c 0.219,-0.125 0.457,-0.227 0.719,-0.297 0.258,-0.062 0.531,-0.094 0.813,-0.094 0.5,0 0.878,0.098 1.14,0.297 0.258,0.195 0.391,0.485 0.391,0.86 0,0.343 -0.125,0.609 -0.375,0.796 -0.242,0.196 -0.574,0.297 -1,0.297 l -0.672,0 0,0.641 0.703,0 c 0.383,0 0.68,0.078 0.891,0.234 0.207,0.157 0.312,0.379 0.312,0.672 0,0.301 -0.109,0.531 -0.328,0.688 -0.211,0.164 -0.512,0.25 -0.906,0.25 -0.219,0 -0.453,-0.028 -0.703,-0.078 -0.243,-0.043 -0.512,-0.118 -0.813,-0.219 l 0,0.703 c 0.301,0.082 0.582,0.144 0.844,0.187 0.258,0.039 0.508,0.063 0.75,0.063 0.594,0 1.062,-0.137 1.406,-0.406 0.352,-0.274 0.531,-0.641 0.531,-1.11 0,-0.324 -0.093,-0.593 -0.281,-0.812 -0.18,-0.219 -0.437,-0.375 -0.781,-0.469 z" /><path
         id="path226"
         style="fill:#000000;fill-opacity:1;fill-rule:nonzero;stroke:none"
         d="m 30.516,98.588 1.281,0 0,4.437 -1.406,-0.281 0,0.719 1.406,0.281 0.781,0 0,-5.156 1.297,0 0,-0.672 -3.359,0 0,0.672 z" /><path
         id="path228"
         style="fill:#000000;fill-opacity:1;fill-rule:nonzero;stroke:none"
         d="m 35.758,98.916 0.828,0 0,-0.672 -0.641,-1.266 -0.5,0 0.313,1.266 0,0.672 z" /><path
         id="path230"
         style="fill:#000000;fill-opacity:1;fill-rule:nonzero;stroke:none"
         d="m 38.129,103.744 3.75,0 0,-0.328 -2.109,-5.5 -0.829,0 1.985,5.172 -2.797,0 0,0.656 z" /><path
         id="path232"
         style="fill:#000000;fill-opacity:1;fill-rule:nonzero;stroke:none"
         d="m 45.324,103.228 c -0.406,0 -0.715,-0.203 -0.922,-0.609 -0.199,-0.398 -0.297,-0.996 -0.297,-1.797 0,-0.793 0.098,-1.391 0.297,-1.797 0.207,-0.398 0.516,-0.594 0.922,-0.594 0.406,0 0.707,0.196 0.906,0.594 0.208,0.406 0.313,1.004 0.313,1.797 0,0.801 -0.105,1.399 -0.313,1.797 -0.199,0.406 -0.5,0.609 -0.906,0.609 z m 0,0.625 c 0.656,0 1.156,-0.261 1.5,-0.781 0.344,-0.512 0.516,-1.262 0.516,-2.25 0,-0.98 -0.172,-1.73 -0.516,-2.25 -0.344,-0.512 -0.844,-0.766 -1.5,-0.766 -0.656,0 -1.156,0.254 -1.5,0.766 -0.344,0.52 -0.515,1.27 -0.515,2.25 0,0.988 0.171,1.738 0.515,2.25 0.344,0.52 0.844,0.781 1.5,0.781 z" /><path
         id="path234"
         style="fill:#000000;fill-opacity:1;fill-rule:nonzero;stroke:none"
         d="m 260.828,98.588 1.281,0 0,4.437 -1.406,-0.281 0,0.719 1.406,0.281 0.782,0 0,-5.156 1.297,0 0,-0.672 -3.36,0 0,0.672 z" /><path
         id="path236"
         style="fill:#000000;fill-opacity:1;fill-rule:nonzero;stroke:none"
         d="m 266.074,98.916 0.828,0 0,-0.672 -0.64,-1.266 -0.5,0 0.312,1.266 0,0.672 z" /><path
         id="path238"
         style="fill:#000000;fill-opacity:1;fill-rule:nonzero;stroke:none"
         d="m 268.445,103.744 3.75,0 0,-0.328 -2.109,-5.5 -0.828,0 1.984,5.172 -2.797,0 0,0.656 z" /><path
         id="path240"
         style="fill:#000000;fill-opacity:1;fill-rule:nonzero;stroke:none"
         d="m 275.641,103.228 c -0.407,0 -0.715,-0.203 -0.922,-0.609 -0.199,-0.398 -0.297,-0.996 -0.297,-1.797 0,-0.793 0.098,-1.391 0.297,-1.797 0.207,-0.398 0.515,-0.594 0.922,-0.594 0.406,0 0.707,0.196 0.906,0.594 0.207,0.406 0.312,1.004 0.312,1.797 0,0.801 -0.105,1.399 -0.312,1.797 -0.199,0.406 -0.5,0.609 -0.906,0.609 z m 0,0.625 c 0.656,0 1.156,-0.261 1.5,-0.781 0.343,-0.512 0.515,-1.262 0.515,-2.25 0,-0.98 -0.172,-1.73 -0.515,-2.25 -0.344,-0.512 -0.844,-0.766 -1.5,-0.766 -0.657,0 -1.157,0.254 -1.5,0.766 -0.344,0.52 -0.516,1.27 -0.516,2.25 0,0.988 0.172,1.738 0.516,2.25 0.343,0.52 0.843,0.781 1.5,0.781 z" /></g></g></svg>