<?xml version="1.0" encoding="UTF-8" standalone="no"?>
<svg
   xmlns:dc="http://purl.org/dc/elements/1.1/"
   xmlns:cc="http://creativecommons.org/ns#"
   xmlns:rdf="http://www.w3.org/1999/02/22-rdf-syntax-ns#"
   xmlns:svg="http://www.w3.org/2000/svg"
   xmlns="http://www.w3.org/2000/svg"
   viewBox="0 0 972.55286 311.83643"
   height="311.83643"
   width="972.55286"
   xml:space="preserve"
   version="1.1"
   id="svg2"><metadata
     id="metadata8"><rdf:RDF><cc:Work
         rdf:about=""><dc:format>image/svg+xml</dc:format><dc:type
           rdf:resource="http://purl.org/dc/dcmitype/StillImage" /></cc:Work></rdf:RDF></metadata><defs
     id="defs6" /><g
     transform="matrix(1.25,0,0,-1.25,0,311.83643)"
     id="g10"><g
       id="g12"><path
         id="path14"
         style="fill:#000000;fill-opacity:1;fill-rule:nonzero;stroke:none"
         d="m 107.922,151.782 3.988,0 0,-3.984 -3.988,0 0,3.984 z" /><path
         id="path16"
         style="fill:#000000;fill-opacity:1;fill-rule:nonzero;stroke:none"
         d="m 107.922,52.102 3.988,0 0,-3.988 -3.988,0 0,3.988 z" /><g
         transform="matrix(1,0,0,-1,0,249.46915)"
         id="g18"><path
           id="path20"
           style="fill:none;stroke:#000000;stroke-width:3.98720002;stroke-linecap:round;stroke-linejoin:miter;stroke-miterlimit:10;stroke-dasharray:none;stroke-opacity:1"
           d="m 87.988,141.547 43.86,0" /></g><g
         transform="matrix(1,0,0,-1,0,249.46915)"
         id="g22"><path
           id="path24"
           style="fill:none;stroke:#000000;stroke-width:3.98720002;stroke-linecap:round;stroke-linejoin:miter;stroke-miterlimit:10;stroke-dasharray:none;stroke-opacity:1"
           d="m 87.988,157.496 43.86,0" /></g><g
         transform="matrix(1,0,0,-1,0,249.46915)"
         id="g26"><path
           id="path28"
           style="fill:none;stroke:#000000;stroke-width:3.98720002;stroke-linecap:square;stroke-linejoin:miter;stroke-miterlimit:10;stroke-dasharray:none;stroke-opacity:1"
           d="m 109.918,101.672 0,37.879" /></g><g
         transform="matrix(1,0,0,-1,0,249.46915)"
         id="g30"><path
           id="path32"
           style="fill:none;stroke:#000000;stroke-width:3.98720002;stroke-linecap:square;stroke-linejoin:miter;stroke-miterlimit:10;stroke-dasharray:none;stroke-opacity:1"
           d="m 109.918,159.488 0,37.879" /></g><path
         id="path34"
         style="fill:#000000;fill-opacity:1;fill-rule:nonzero;stroke:none"
         d="m 55.086,83.891 c -0.836,0 -1.57,0.09 -2.203,0.266 -0.637,0.168 -1.184,0.402 -1.641,0.703 -0.449,0.293 -0.808,0.652 -1.078,1.078 -0.262,0.418 -0.445,0.875 -0.547,1.375 l 3.297,0.375 c 0.113,-0.5 0.363,-0.895 0.75,-1.188 0.383,-0.289 0.891,-0.437 1.516,-0.437 0.394,0 0.754,0.058 1.078,0.172 0.32,0.105 0.597,0.289 0.828,0.547 0.226,0.261 0.406,0.609 0.531,1.047 0.133,0.429 0.203,0.96 0.203,1.593 0,0.219 0,0.438 0,0.657 0,0.226 0.004,0.437 0.016,0.625 0,0.218 0,0.429 0,0.64 l -0.016,0 c -0.386,-0.824 -0.929,-1.418 -1.625,-1.781 -0.687,-0.367 -1.507,-0.547 -2.453,-0.547 -0.804,0 -1.496,0.156 -2.078,0.469 -0.586,0.312 -1.07,0.75 -1.453,1.312 -0.387,0.571 -0.672,1.25 -0.859,2.032 -0.18,0.789 -0.266,1.66 -0.266,2.609 0,0.969 0.098,1.848 0.297,2.641 0.195,0.8 0.492,1.484 0.89,2.046 0.407,0.571 0.915,1.008 1.532,1.313 0.613,0.312 1.343,0.469 2.187,0.469 0.844,0 1.598,-0.184 2.266,-0.547 0.664,-0.356 1.187,-0.934 1.562,-1.735 l 0.063,0 c 0,0.164 0.004,0.352 0.015,0.563 0.008,0.219 0.02,0.426 0.032,0.625 0.019,0.195 0.039,0.375 0.062,0.531 0.02,0.156 0.035,0.266 0.047,0.328 l 3.125,0 c -0.023,-0.281 -0.043,-0.679 -0.062,-1.187 -0.012,-0.512 -0.016,-1.094 -0.016,-1.75 l 0,-9.36 c 0,-0.925 -0.137,-1.726 -0.406,-2.406 -0.262,-0.687 -0.649,-1.254 -1.157,-1.703 -0.511,-0.457 -1.14,-0.801 -1.89,-1.031 -0.742,-0.227 -1.59,-0.344 -2.547,-0.344 z m 2.75,11.609 c 0,0.801 -0.078,1.469 -0.234,2 -0.157,0.532 -0.36,0.954 -0.61,1.266 -0.25,0.32 -0.539,0.551 -0.859,0.688 -0.324,0.132 -0.649,0.203 -0.969,0.203 -0.43,0 -0.805,-0.086 -1.125,-0.25 -0.324,-0.168 -0.601,-0.422 -0.828,-0.766 -0.231,-0.344 -0.402,-0.781 -0.516,-1.312 -0.117,-0.532 -0.172,-1.165 -0.172,-1.891 0,-1.375 0.219,-2.414 0.657,-3.109 0.437,-0.688 1.086,-1.032 1.953,-1.032 0.332,0 0.66,0.063 0.984,0.188 0.321,0.133 0.61,0.363 0.86,0.687 0.257,0.321 0.468,0.75 0.625,1.282 0.156,0.539 0.234,1.222 0.234,2.046 z" /><path
         id="path36"
         style="fill:#000000;fill-opacity:1;fill-rule:nonzero;stroke:none"
         d="m 64.242,88.985 0,2.453 4.094,0 0,11.266 -3.969,-2.485 0,2.594 4.141,2.687 3.109,0 0,-14.062 3.797,0 0,-2.453 -11.172,0 z" /><path
         id="path38"
         style="fill:#000000;fill-opacity:1;fill-rule:nonzero;stroke:none"
         d="m 387.027,151.782 3.988,0 0,-3.984 -3.988,0 0,3.984 z" /><path
         id="path40"
         style="fill:#000000;fill-opacity:1;fill-rule:nonzero;stroke:none"
         d="m 387.027,52.102 3.988,0 0,-3.988 -3.988,0 0,3.988 z" /><g
         transform="matrix(1,0,0,-1,0,249.46915)"
         id="g42"><path
           id="path44"
           style="fill:none;stroke:#000000;stroke-width:3.98720002;stroke-linecap:round;stroke-linejoin:miter;stroke-miterlimit:10;stroke-dasharray:none;stroke-opacity:1"
           d="m 367.09,141.547 43.859,0" /></g><g
         transform="matrix(1,0,0,-1,0,249.46915)"
         id="g46"><path
           id="path48"
           style="fill:none;stroke:#000000;stroke-width:3.98720002;stroke-linecap:round;stroke-linejoin:miter;stroke-miterlimit:10;stroke-dasharray:none;stroke-opacity:1"
           d="m 367.09,157.496 43.859,0" /></g><g
         transform="matrix(1,0,0,-1,0,249.46915)"
         id="g50"><path
           id="path52"
           style="fill:none;stroke:#000000;stroke-width:3.98720002;stroke-linecap:square;stroke-linejoin:miter;stroke-miterlimit:10;stroke-dasharray:none;stroke-opacity:1"
           d="m 389.02,101.672 0,37.879" /></g><g
         transform="matrix(1,0,0,-1,0,249.46915)"
         id="g54"><path
           id="path56"
           style="fill:none;stroke:#000000;stroke-width:3.98720002;stroke-linecap:square;stroke-linejoin:miter;stroke-miterlimit:10;stroke-dasharray:none;stroke-opacity:1"
           d="m 389.02,159.488 0,37.879" /></g><path
         id="path58"
         style="fill:#000000;fill-opacity:1;fill-rule:nonzero;stroke:none"
         d="m 334.188,83.891 c -0.836,0 -1.571,0.09 -2.204,0.266 -0.636,0.168 -1.183,0.402 -1.64,0.703 -0.449,0.293 -0.809,0.652 -1.078,1.078 -0.262,0.418 -0.446,0.875 -0.547,1.375 l 3.297,0.375 c 0.113,-0.5 0.363,-0.895 0.75,-1.188 0.382,-0.289 0.89,-0.437 1.515,-0.437 0.395,0 0.754,0.058 1.078,0.172 0.321,0.105 0.598,0.289 0.829,0.547 0.226,0.261 0.406,0.609 0.531,1.047 0.133,0.429 0.203,0.96 0.203,1.593 0,0.219 0,0.438 0,0.657 0,0.226 0.004,0.437 0.016,0.625 0,0.218 0,0.429 0,0.64 l -0.016,0 c -0.387,-0.824 -0.93,-1.418 -1.625,-1.781 -0.688,-0.367 -1.508,-0.547 -2.453,-0.547 -0.805,0 -1.496,0.156 -2.078,0.469 -0.586,0.312 -1.071,0.75 -1.454,1.312 -0.386,0.571 -0.671,1.25 -0.859,2.032 -0.18,0.789 -0.265,1.66 -0.265,2.609 0,0.969 0.097,1.848 0.296,2.641 0.196,0.8 0.493,1.484 0.891,2.046 0.406,0.571 0.914,1.008 1.531,1.313 0.614,0.312 1.344,0.469 2.188,0.469 0.844,0 1.597,-0.184 2.265,-0.547 0.664,-0.356 1.188,-0.934 1.563,-1.735 l 0.062,0 c 0,0.164 0.004,0.352 0.016,0.563 0.008,0.219 0.02,0.426 0.031,0.625 0.02,0.195 0.039,0.375 0.063,0.531 0.019,0.156 0.035,0.266 0.047,0.328 l 3.125,0 c -0.024,-0.281 -0.043,-0.679 -0.063,-1.187 -0.012,-0.512 -0.015,-1.094 -0.015,-1.75 l 0,-9.36 c 0,-0.925 -0.137,-1.726 -0.407,-2.406 -0.261,-0.687 -0.648,-1.254 -1.156,-1.703 -0.512,-0.457 -1.141,-0.801 -1.891,-1.031 -0.742,-0.227 -1.589,-0.344 -2.546,-0.344 z m 2.75,11.609 c 0,0.801 -0.079,1.469 -0.235,2 -0.156,0.532 -0.359,0.954 -0.609,1.266 -0.25,0.32 -0.539,0.551 -0.86,0.688 -0.324,0.132 -0.648,0.203 -0.968,0.203 -0.43,0 -0.805,-0.086 -1.125,-0.25 -0.325,-0.168 -0.602,-0.422 -0.829,-0.766 -0.23,-0.344 -0.402,-0.781 -0.515,-1.312 -0.117,-0.532 -0.172,-1.165 -0.172,-1.891 0,-1.375 0.219,-2.414 0.656,-3.109 0.438,-0.688 1.086,-1.032 1.953,-1.032 0.332,0 0.661,0.063 0.985,0.188 0.32,0.133 0.609,0.363 0.859,0.687 0.258,0.321 0.469,0.75 0.625,1.282 0.156,0.539 0.235,1.222 0.235,2.046 z" /><path
         id="path60"
         style="fill:#000000;fill-opacity:1;fill-rule:nonzero;stroke:none"
         d="m 354.312,93.563 c 0,-0.75 -0.124,-1.422 -0.374,-2.016 -0.243,-0.593 -0.61,-1.105 -1.11,-1.531 -0.492,-0.418 -1.101,-0.742 -1.828,-0.969 -0.73,-0.218 -1.578,-0.328 -2.547,-0.328 -1.086,0 -1.996,0.137 -2.734,0.406 -0.731,0.27 -1.336,0.629 -1.813,1.079 -0.468,0.457 -0.824,0.968 -1.062,1.531 -0.242,0.57 -0.399,1.148 -0.469,1.734 l 3.359,0.297 c 0.039,-0.355 0.125,-0.68 0.25,-0.969 0.133,-0.293 0.313,-0.543 0.532,-0.75 0.218,-0.211 0.484,-0.371 0.796,-0.484 0.321,-0.117 0.696,-0.172 1.126,-0.172 0.789,0 1.406,0.191 1.843,0.578 0.438,0.395 0.657,0.992 0.657,1.797 0,0.488 -0.106,0.879 -0.313,1.172 -0.211,0.301 -0.477,0.531 -0.797,0.687 -0.312,0.164 -0.652,0.274 -1.016,0.329 -0.367,0.062 -0.714,0.093 -1.046,0.093 l -1.141,0 0,2.657 1.078,0 c 0.32,0 0.656,0.031 1,0.093 0.344,0.063 0.649,0.172 0.922,0.328 0.27,0.164 0.488,0.395 0.656,0.688 0.176,0.301 0.266,0.676 0.266,1.125 0,0.676 -0.195,1.207 -0.578,1.594 -0.375,0.394 -0.922,0.593 -1.641,0.593 -0.687,0 -1.242,-0.187 -1.656,-0.562 -0.418,-0.375 -0.656,-0.906 -0.719,-1.594 l -3.297,0.235 c 0.094,0.769 0.305,1.437 0.641,2 0.332,0.57 0.75,1.046 1.25,1.421 0.508,0.375 1.094,0.657 1.75,0.844 0.656,0.188 1.348,0.281 2.078,0.281 0.969,0 1.801,-0.121 2.5,-0.359 0.695,-0.23 1.266,-0.547 1.703,-0.953 0.445,-0.399 0.774,-0.859 0.984,-1.391 0.219,-0.531 0.329,-1.101 0.329,-1.703 0,-0.48 -0.075,-0.93 -0.219,-1.344 -0.137,-0.418 -0.352,-0.793 -0.641,-1.125 -0.281,-0.336 -0.648,-0.621 -1.093,-0.859 -0.438,-0.242 -0.965,-0.418 -1.579,-0.531 l 0,-0.047 c 0.676,-0.086 1.266,-0.242 1.766,-0.469 0.5,-0.23 0.91,-0.515 1.234,-0.859 0.321,-0.344 0.563,-0.735 0.719,-1.172 0.156,-0.43 0.234,-0.887 0.234,-1.375 z" /><path
         id="path62"
         style="fill:#000000;fill-opacity:1;fill-rule:nonzero;stroke:none"
         d="m 307.285,191.657 3.984,0 0,-3.988 -3.984,0 0,3.988 z" /><path
         id="path64"
         style="fill:#000000;fill-opacity:1;fill-rule:nonzero;stroke:none"
         d="m 187.668,191.657 3.988,0 0,-3.988 -3.988,0 0,3.988 z" /><g
         transform="matrix(0,-1,-1,0,0,249.46915)"
         id="g66"><path
           id="path68"
           style="fill:none;stroke:#000000;stroke-width:3.98720002;stroke-linecap:round;stroke-linejoin:round;stroke-miterlimit:10;stroke-dasharray:none;stroke-opacity:1"
           d="m 56.09,-269.406 c -6.035,0.015 -10.942,-4.434 -10.965,-9.938 -0.012,-5.504 4.863,-9.984 10.902,-9.996 l 0.028,0" /></g><g
         transform="matrix(0,-1,-1,0,0,249.46915)"
         id="g70"><path
           id="path72"
           style="fill:none;stroke:#000000;stroke-width:3.98720002;stroke-linecap:round;stroke-linejoin:round;stroke-miterlimit:10;stroke-dasharray:none;stroke-opacity:1"
           d="m 55.82,-289.34 3.989,0" /></g><g
         transform="matrix(0,-1,-1,0,0,249.46915)"
         id="g74"><path
           id="path76"
           style="fill:none;stroke:#000000;stroke-width:3.98720002;stroke-linecap:round;stroke-linejoin:round;stroke-miterlimit:10;stroke-dasharray:none;stroke-opacity:1"
           d="m 55.82,-269.406 3.989,0" /></g><g
         transform="matrix(0,-1,-1,0,0,249.46915)"
         id="g78"><path
           id="path80"
           style="fill:none;stroke:#000000;stroke-width:3.98720002;stroke-linecap:round;stroke-linejoin:round;stroke-miterlimit:10;stroke-dasharray:none;stroke-opacity:1"
           d="m 56.09,-249.469 c -6.035,0.016 -10.942,-4.437 -10.965,-9.941 -0.012,-5.504 4.863,-9.981 10.902,-9.996 l 0.028,0" /></g><g
         transform="matrix(0,-1,-1,0,0,249.46915)"
         id="g82"><path
           id="path84"
           style="fill:none;stroke:#000000;stroke-width:3.98720002;stroke-linecap:round;stroke-linejoin:round;stroke-miterlimit:10;stroke-dasharray:none;stroke-opacity:1"
           d="m 55.82,-269.406 3.989,0" /></g><g
         transform="matrix(0,-1,-1,0,0,249.46915)"
         id="g86"><path
           id="path88"
           style="fill:none;stroke:#000000;stroke-width:3.98720002;stroke-linecap:round;stroke-linejoin:round;stroke-miterlimit:10;stroke-dasharray:none;stroke-opacity:1"
           d="m 55.82,-249.469 3.989,0" /></g><g
         transform="matrix(0,-1,-1,0,0,249.46915)"
         id="g90"><path
           id="path92"
           style="fill:none;stroke:#000000;stroke-width:3.98720002;stroke-linecap:round;stroke-linejoin:round;stroke-miterlimit:10;stroke-dasharray:none;stroke-opacity:1"
           d="m 56.09,-229.531 c -6.035,0.011 -10.942,-4.438 -10.965,-9.942 -0.012,-5.504 4.863,-9.98 10.902,-9.996 l 0.028,0" /></g><g
         transform="matrix(0,-1,-1,0,0,249.46915)"
         id="g94"><path
           id="path96"
           style="fill:none;stroke:#000000;stroke-width:3.98720002;stroke-linecap:round;stroke-linejoin:round;stroke-miterlimit:10;stroke-dasharray:none;stroke-opacity:1"
           d="m 55.82,-249.469 3.989,0" /></g><g
         transform="matrix(0,-1,-1,0,0,249.46915)"
         id="g98"><path
           id="path100"
           style="fill:none;stroke:#000000;stroke-width:3.98720002;stroke-linecap:round;stroke-linejoin:round;stroke-miterlimit:10;stroke-dasharray:none;stroke-opacity:1"
           d="m 55.82,-229.531 3.989,0" /></g><g
         transform="matrix(0,-1,-1,0,0,249.46915)"
         id="g102"><path
           id="path104"
           style="fill:none;stroke:#000000;stroke-width:3.98720002;stroke-linecap:round;stroke-linejoin:round;stroke-miterlimit:10;stroke-dasharray:none;stroke-opacity:1"
           d="m 56.09,-209.598 c -6.035,0.016 -10.942,-4.433 -10.965,-9.937 -0.012,-5.504 4.863,-9.985 10.902,-9.996 l 0.028,0" /></g><g
         transform="matrix(0,-1,-1,0,0,249.46915)"
         id="g106"><path
           id="path108"
           style="fill:none;stroke:#000000;stroke-width:3.98720002;stroke-linecap:round;stroke-linejoin:round;stroke-miterlimit:10;stroke-dasharray:none;stroke-opacity:1"
           d="m 55.82,-229.531 3.989,0" /></g><g
         transform="matrix(0,-1,-1,0,0,249.46915)"
         id="g110"><path
           id="path112"
           style="fill:none;stroke:#000000;stroke-width:3.98720002;stroke-linecap:round;stroke-linejoin:round;stroke-miterlimit:10;stroke-dasharray:none;stroke-opacity:1"
           d="m 55.82,-209.598 3.989,0" /></g><g
         transform="matrix(0,-1,-1,0,0,249.46915)"
         id="g114"><path
           id="path116"
           style="fill:none;stroke:#000000;stroke-width:3.98720002;stroke-linecap:square;stroke-linejoin:miter;stroke-miterlimit:10;stroke-dasharray:none;stroke-opacity:1"
           d="m 59.809,-307.285 0,15.949" /></g><g
         transform="matrix(0,-1,-1,0,0,249.46915)"
         id="g118"><path
           id="path120"
           style="fill:none;stroke:#000000;stroke-width:3.98720002;stroke-linecap:square;stroke-linejoin:miter;stroke-miterlimit:10;stroke-dasharray:none;stroke-opacity:1"
           d="m 59.809,-207.605 0,15.949" /></g><path
         id="path122"
         style="fill:#000000;fill-opacity:1;fill-rule:nonzero;stroke:none"
         d="m 234.508,223.442 c -0.836,0 -1.57,0.09 -2.203,0.265 -0.637,0.168 -1.184,0.403 -1.641,0.704 -0.449,0.293 -0.809,0.652 -1.078,1.078 -0.262,0.418 -0.445,0.875 -0.547,1.375 l 3.297,0.375 c 0.113,-0.5 0.363,-0.895 0.75,-1.188 0.383,-0.289 0.891,-0.437 1.516,-0.437 0.394,0 0.753,0.058 1.078,0.172 0.32,0.105 0.597,0.289 0.828,0.546 0.226,0.262 0.406,0.61 0.531,1.047 0.133,0.43 0.203,0.961 0.203,1.594 0,0.219 0,0.438 0,0.656 0,0.227 0.004,0.438 0.016,0.625 0,0.219 0,0.43 0,0.641 l -0.016,0 c -0.387,-0.824 -0.93,-1.418 -1.625,-1.781 -0.687,-0.368 -1.508,-0.547 -2.453,-0.547 -0.805,0 -1.496,0.156 -2.078,0.469 -0.586,0.312 -1.07,0.75 -1.453,1.312 -0.387,0.57 -0.672,1.25 -0.86,2.031 -0.179,0.789 -0.265,1.66 -0.265,2.61 0,0.968 0.097,1.847 0.297,2.64 0.195,0.801 0.492,1.485 0.89,2.047 0.407,0.57 0.914,1.008 1.532,1.313 0.613,0.312 1.343,0.468 2.187,0.468 0.844,0 1.598,-0.183 2.266,-0.546 0.664,-0.356 1.187,-0.934 1.562,-1.735 l 0.063,0 c 0,0.164 0.004,0.352 0.015,0.563 0.008,0.218 0.02,0.425 0.032,0.625 0.019,0.195 0.039,0.375 0.062,0.531 0.02,0.156 0.035,0.266 0.047,0.328 l 3.125,0 c -0.024,-0.281 -0.043,-0.68 -0.063,-1.187 -0.011,-0.512 -0.015,-1.094 -0.015,-1.75 l 0,-9.36 c 0,-0.926 -0.137,-1.726 -0.406,-2.406 -0.262,-0.688 -0.649,-1.254 -1.157,-1.703 -0.511,-0.457 -1.14,-0.801 -1.89,-1.031 -0.743,-0.227 -1.59,-0.344 -2.547,-0.344 z m 2.75,11.609 c 0,0.801 -0.078,1.469 -0.235,2 -0.156,0.531 -0.359,0.953 -0.609,1.266 -0.25,0.32 -0.539,0.551 -0.859,0.687 -0.325,0.133 -0.649,0.203 -0.969,0.203 -0.43,0 -0.805,-0.086 -1.125,-0.25 -0.324,-0.168 -0.602,-0.421 -0.828,-0.765 -0.231,-0.344 -0.403,-0.781 -0.516,-1.313 -0.117,-0.531 -0.172,-1.164 -0.172,-1.89 0,-1.375 0.219,-2.414 0.657,-3.11 0.437,-0.687 1.086,-1.031 1.953,-1.031 0.332,0 0.66,0.063 0.984,0.188 0.32,0.132 0.609,0.363 0.859,0.687 0.258,0.32 0.469,0.75 0.625,1.281 0.157,0.539 0.235,1.223 0.235,2.047 z" /><path
         id="path124"
         style="fill:#000000;fill-opacity:1;fill-rule:nonzero;stroke:none"
         d="m 242.977,228.536 0,2.281 c 0.375,0.82 0.832,1.562 1.375,2.219 0.539,0.664 1.101,1.273 1.687,1.828 0.594,0.55 1.18,1.062 1.766,1.531 0.582,0.469 1.101,0.922 1.562,1.359 0.469,0.446 0.848,0.895 1.141,1.344 0.289,0.445 0.437,0.922 0.437,1.422 0,0.726 -0.187,1.269 -0.562,1.625 -0.367,0.351 -0.903,0.531 -1.61,0.531 -0.711,0 -1.25,-0.195 -1.625,-0.578 -0.367,-0.375 -0.601,-0.945 -0.703,-1.703 l -3.328,0.187 c 0.082,0.645 0.242,1.254 0.485,1.829 0.238,0.57 0.582,1.07 1.031,1.5 0.457,0.425 1.019,0.765 1.687,1.015 0.676,0.25 1.485,0.375 2.422,0.375 0.895,0 1.688,-0.105 2.375,-0.312 0.688,-0.211 1.266,-0.516 1.735,-0.922 0.468,-0.399 0.82,-0.883 1.062,-1.453 0.238,-0.575 0.359,-1.227 0.359,-1.953 0,-0.782 -0.152,-1.485 -0.453,-2.11 -0.304,-0.625 -0.695,-1.203 -1.172,-1.734 -0.48,-0.524 -1.011,-1.012 -1.593,-1.469 -0.575,-0.461 -1.137,-0.906 -1.688,-1.344 -0.543,-0.437 -1.043,-0.883 -1.5,-1.328 -0.449,-0.449 -0.781,-0.93 -1,-1.437 l 7.672,0 0,-2.703 -11.562,0 z" /><path
         id="path126"
         style="fill:#000000;fill-opacity:1;fill-rule:nonzero;stroke:none"
         d="m 666.133,151.782 3.984,0 0,-3.984 -3.984,0 0,3.984 z" /><path
         id="path128"
         style="fill:#000000;fill-opacity:1;fill-rule:nonzero;stroke:none"
         d="m 666.133,52.102 3.984,0 0,-3.988 -3.984,0 0,3.988 z" /><g
         transform="matrix(1,0,0,-1,0,249.46915)"
         id="g130"><path
           id="path132"
           style="fill:none;stroke:#000000;stroke-width:3.98720002;stroke-linecap:round;stroke-linejoin:miter;stroke-miterlimit:10;stroke-dasharray:none;stroke-opacity:1"
           d="m 646.195,141.547 43.86,0" /></g><g
         transform="matrix(1,0,0,-1,0,249.46915)"
         id="g134"><path
           id="path136"
           style="fill:none;stroke:#000000;stroke-width:3.98720002;stroke-linecap:round;stroke-linejoin:miter;stroke-miterlimit:10;stroke-dasharray:none;stroke-opacity:1"
           d="m 646.195,157.496 43.86,0" /></g><g
         transform="matrix(1,0,0,-1,0,249.46915)"
         id="g138"><path
           id="path140"
           style="fill:none;stroke:#000000;stroke-width:3.98720002;stroke-linecap:square;stroke-linejoin:miter;stroke-miterlimit:10;stroke-dasharray:none;stroke-opacity:1"
           d="m 668.125,101.672 0,37.879" /></g><g
         transform="matrix(1,0,0,-1,0,249.46915)"
         id="g142"><path
           id="path144"
           style="fill:none;stroke:#000000;stroke-width:3.98720002;stroke-linecap:square;stroke-linejoin:miter;stroke-miterlimit:10;stroke-dasharray:none;stroke-opacity:1"
           d="m 668.125,159.488 0,37.879" /></g><path
         id="path146"
         style="fill:#000000;fill-opacity:1;fill-rule:nonzero;stroke:none"
         d="m 613.293,83.891 c -0.836,0 -1.57,0.09 -2.203,0.266 -0.637,0.168 -1.184,0.402 -1.641,0.703 -0.449,0.293 -0.808,0.652 -1.078,1.078 -0.262,0.418 -0.445,0.875 -0.547,1.375 l 3.297,0.375 c 0.113,-0.5 0.363,-0.895 0.75,-1.188 0.383,-0.289 0.891,-0.437 1.516,-0.437 0.394,0 0.754,0.058 1.078,0.172 0.32,0.105 0.597,0.289 0.828,0.547 0.227,0.261 0.406,0.609 0.531,1.047 0.133,0.429 0.203,0.96 0.203,1.593 0,0.219 0,0.438 0,0.657 0,0.226 0.004,0.437 0.016,0.625 0,0.218 0,0.429 0,0.64 l -0.016,0 c -0.386,-0.824 -0.929,-1.418 -1.625,-1.781 -0.687,-0.367 -1.507,-0.547 -2.453,-0.547 -0.804,0 -1.496,0.156 -2.078,0.469 -0.586,0.312 -1.07,0.75 -1.453,1.312 -0.387,0.571 -0.672,1.25 -0.859,2.032 -0.18,0.789 -0.266,1.66 -0.266,2.609 0,0.969 0.098,1.848 0.297,2.641 0.195,0.8 0.492,1.484 0.89,2.046 0.407,0.571 0.915,1.008 1.532,1.313 0.613,0.312 1.343,0.469 2.187,0.469 0.844,0 1.598,-0.184 2.266,-0.547 0.664,-0.356 1.187,-0.934 1.562,-1.735 l 0.063,0 c 0,0.164 0.004,0.352 0.015,0.563 0.008,0.219 0.02,0.426 0.032,0.625 0.019,0.195 0.039,0.375 0.062,0.531 0.02,0.156 0.035,0.266 0.047,0.328 l 3.125,0 c -0.023,-0.281 -0.043,-0.679 -0.062,-1.187 -0.012,-0.512 -0.016,-1.094 -0.016,-1.75 l 0,-9.36 c 0,-0.925 -0.137,-1.726 -0.406,-2.406 -0.262,-0.687 -0.649,-1.254 -1.157,-1.703 -0.511,-0.457 -1.14,-0.801 -1.89,-1.031 -0.742,-0.227 -1.59,-0.344 -2.547,-0.344 z m 2.75,11.609 c 0,0.801 -0.078,1.469 -0.234,2 -0.157,0.532 -0.36,0.954 -0.61,1.266 -0.25,0.32 -0.539,0.551 -0.859,0.688 -0.324,0.132 -0.649,0.203 -0.969,0.203 -0.43,0 -0.805,-0.086 -1.125,-0.25 -0.324,-0.168 -0.601,-0.422 -0.828,-0.766 -0.23,-0.344 -0.402,-0.781 -0.516,-1.312 -0.117,-0.532 -0.172,-1.165 -0.172,-1.891 0,-1.375 0.219,-2.414 0.657,-3.109 0.437,-0.688 1.086,-1.032 1.953,-1.032 0.332,0 0.66,0.063 0.984,0.188 0.321,0.133 0.61,0.363 0.86,0.687 0.257,0.321 0.468,0.75 0.625,1.282 0.156,0.539 0.234,1.222 0.234,2.046 z" /><path
         id="path148"
         style="fill:#000000;fill-opacity:1;fill-rule:nonzero;stroke:none"
         d="m 633.621,94.485 c 0,-0.836 -0.137,-1.602 -0.406,-2.297 -0.262,-0.699 -0.653,-1.305 -1.172,-1.813 -0.512,-0.511 -1.148,-0.914 -1.906,-1.203 -0.762,-0.281 -1.641,-0.422 -2.641,-0.422 -0.918,0 -1.719,0.11 -2.406,0.329 -0.688,0.226 -1.274,0.539 -1.75,0.937 -0.469,0.395 -0.84,0.859 -1.11,1.391 -0.273,0.531 -0.46,1.097 -0.562,1.703 l 3.297,0.265 c 0.062,-0.25 0.148,-0.5 0.265,-0.75 0.114,-0.242 0.27,-0.453 0.469,-0.64 0.207,-0.188 0.457,-0.34 0.75,-0.453 0.301,-0.118 0.66,-0.172 1.078,-0.172 0.821,0 1.477,0.258 1.969,0.781 0.488,0.531 0.734,1.285 0.734,2.266 0,0.437 -0.062,0.832 -0.187,1.187 -0.117,0.352 -0.289,0.656 -0.516,0.906 -0.218,0.25 -0.492,0.438 -0.812,0.563 -0.324,0.133 -0.695,0.203 -1.11,0.203 -0.554,0 -1.007,-0.105 -1.359,-0.312 -0.344,-0.2 -0.637,-0.45 -0.875,-0.75 l -3.219,0 0.578,9.296 9.922,0 0,-2.453 -6.937,0 -0.266,-4.172 c 0.321,0.289 0.735,0.539 1.235,0.75 0.5,0.207 1.082,0.313 1.75,0.313 0.812,0 1.535,-0.137 2.171,-0.406 0.645,-0.262 1.192,-0.633 1.641,-1.11 0.445,-0.48 0.785,-1.054 1.016,-1.718 0.238,-0.668 0.359,-1.407 0.359,-2.219 z" /><path
         id="path150"
         style="fill:#000000;fill-opacity:1;fill-rule:nonzero;stroke:none"
         d="m 586.387,191.657 3.988,0 0,-3.988 -3.988,0 0,3.988 z" /><path
         id="path152"
         style="fill:#000000;fill-opacity:1;fill-rule:nonzero;stroke:none"
         d="m 466.773,191.657 3.984,0 0,-3.988 -3.984,0 0,3.988 z" /><g
         transform="matrix(0,-1,-1,0,0,249.46915)"
         id="g154"><path
           id="path156"
           style="fill:none;stroke:#000000;stroke-width:3.98720002;stroke-linecap:round;stroke-linejoin:round;stroke-miterlimit:10;stroke-dasharray:none;stroke-opacity:1"
           d="m 56.09,-548.508 c -6.035,0.012 -10.942,-4.437 -10.965,-9.941 -0.012,-5.504 4.863,-9.981 10.902,-9.996 l 0.028,0" /></g><g
         transform="matrix(0,-1,-1,0,0,249.46915)"
         id="g158"><path
           id="path160"
           style="fill:none;stroke:#000000;stroke-width:3.98720002;stroke-linecap:round;stroke-linejoin:round;stroke-miterlimit:10;stroke-dasharray:none;stroke-opacity:1"
           d="m 55.82,-568.445 3.989,0" /></g><g
         transform="matrix(0,-1,-1,0,0,249.46915)"
         id="g162"><path
           id="path164"
           style="fill:none;stroke:#000000;stroke-width:3.98720002;stroke-linecap:round;stroke-linejoin:round;stroke-miterlimit:10;stroke-dasharray:none;stroke-opacity:1"
           d="m 55.82,-548.508 3.989,0" /></g><g
         transform="matrix(0,-1,-1,0,0,249.46915)"
         id="g166"><path
           id="path168"
           style="fill:none;stroke:#000000;stroke-width:3.98720002;stroke-linecap:round;stroke-linejoin:round;stroke-miterlimit:10;stroke-dasharray:none;stroke-opacity:1"
           d="m 56.09,-528.574 c -6.035,0.015 -10.942,-4.434 -10.965,-9.938 -0.012,-5.504 4.863,-9.984 10.902,-9.996 l 0.028,0" /></g><g
         transform="matrix(0,-1,-1,0,0,249.46915)"
         id="g170"><path
           id="path172"
           style="fill:none;stroke:#000000;stroke-width:3.98720002;stroke-linecap:round;stroke-linejoin:round;stroke-miterlimit:10;stroke-dasharray:none;stroke-opacity:1"
           d="m 55.82,-548.508 3.989,0" /></g><g
         transform="matrix(0,-1,-1,0,0,249.46915)"
         id="g174"><path
           id="path176"
           style="fill:none;stroke:#000000;stroke-width:3.98720002;stroke-linecap:round;stroke-linejoin:round;stroke-miterlimit:10;stroke-dasharray:none;stroke-opacity:1"
           d="m 55.82,-528.574 3.989,0" /></g><g
         transform="matrix(0,-1,-1,0,0,249.46915)"
         id="g178"><path
           id="path180"
           style="fill:none;stroke:#000000;stroke-width:3.98720002;stroke-linecap:round;stroke-linejoin:round;stroke-miterlimit:10;stroke-dasharray:none;stroke-opacity:1"
           d="m 56.09,-508.637 c -6.035,0.016 -10.942,-4.437 -10.965,-9.941 -0.012,-5.504 4.863,-9.981 10.902,-9.996 l 0.028,0" /></g><g
         transform="matrix(0,-1,-1,0,0,249.46915)"
         id="g182"><path
           id="path184"
           style="fill:none;stroke:#000000;stroke-width:3.98720002;stroke-linecap:round;stroke-linejoin:round;stroke-miterlimit:10;stroke-dasharray:none;stroke-opacity:1"
           d="m 55.82,-528.574 3.989,0" /></g><g
         transform="matrix(0,-1,-1,0,0,249.46915)"
         id="g186"><path
           id="path188"
           style="fill:none;stroke:#000000;stroke-width:3.98720002;stroke-linecap:round;stroke-linejoin:round;stroke-miterlimit:10;stroke-dasharray:none;stroke-opacity:1"
           d="m 55.82,-508.637 3.989,0" /></g><g
         transform="matrix(0,-1,-1,0,0,249.46915)"
         id="g190"><path
           id="path192"
           style="fill:none;stroke:#000000;stroke-width:3.98720002;stroke-linecap:round;stroke-linejoin:round;stroke-miterlimit:10;stroke-dasharray:none;stroke-opacity:1"
           d="m 56.09,-488.699 c -6.035,0.011 -10.942,-4.438 -10.965,-9.942 -0.012,-5.504 4.863,-9.98 10.902,-9.996 l 0.028,0" /></g><g
         transform="matrix(0,-1,-1,0,0,249.46915)"
         id="g194"><path
           id="path196"
           style="fill:none;stroke:#000000;stroke-width:3.98720002;stroke-linecap:round;stroke-linejoin:round;stroke-miterlimit:10;stroke-dasharray:none;stroke-opacity:1"
           d="m 55.82,-508.637 3.989,0" /></g><g
         transform="matrix(0,-1,-1,0,0,249.46915)"
         id="g198"><path
           id="path200"
           style="fill:none;stroke:#000000;stroke-width:3.98720002;stroke-linecap:round;stroke-linejoin:round;stroke-miterlimit:10;stroke-dasharray:none;stroke-opacity:1"
           d="m 55.82,-488.699 3.989,0" /></g><g
         transform="matrix(0,-1,-1,0,0,249.46915)"
         id="g202"><path
           id="path204"
           style="fill:none;stroke:#000000;stroke-width:3.98720002;stroke-linecap:square;stroke-linejoin:miter;stroke-miterlimit:10;stroke-dasharray:none;stroke-opacity:1"
           d="m 59.809,-586.387 0,15.949" /></g><g
         transform="matrix(0,-1,-1,0,0,249.46915)"
         id="g206"><path
           id="path208"
           style="fill:none;stroke:#000000;stroke-width:3.98720002;stroke-linecap:square;stroke-linejoin:miter;stroke-miterlimit:10;stroke-dasharray:none;stroke-opacity:1"
           d="m 59.809,-486.707 0,15.949" /></g><path
         id="path210"
         style="fill:#000000;fill-opacity:1;fill-rule:nonzero;stroke:none"
         d="m 513.613,223.442 c -0.836,0 -1.57,0.09 -2.203,0.265 -0.637,0.168 -1.183,0.403 -1.64,0.704 -0.45,0.293 -0.809,0.652 -1.079,1.078 -0.261,0.418 -0.445,0.875 -0.546,1.375 l 3.296,0.375 c 0.114,-0.5 0.364,-0.895 0.75,-1.188 0.383,-0.289 0.891,-0.437 1.516,-0.437 0.395,0 0.754,0.058 1.078,0.172 0.32,0.105 0.598,0.289 0.828,0.546 0.227,0.262 0.407,0.61 0.532,1.047 0.132,0.43 0.203,0.961 0.203,1.594 0,0.219 0,0.438 0,0.656 0,0.227 0.004,0.438 0.015,0.625 0,0.219 0,0.43 0,0.641 l -0.015,0 c -0.387,-0.824 -0.93,-1.418 -1.625,-1.781 -0.688,-0.368 -1.508,-0.547 -2.453,-0.547 -0.805,0 -1.497,0.156 -2.079,0.469 -0.586,0.312 -1.07,0.75 -1.453,1.312 -0.386,0.57 -0.672,1.25 -0.859,2.031 -0.18,0.789 -0.266,1.66 -0.266,2.61 0,0.968 0.098,1.847 0.297,2.64 0.195,0.801 0.492,1.485 0.891,2.047 0.406,0.57 0.914,1.008 1.531,1.313 0.613,0.312 1.344,0.468 2.188,0.468 0.843,0 1.597,-0.183 2.265,-0.546 0.664,-0.356 1.188,-0.934 1.563,-1.735 l 0.062,0 c 0,0.164 0.004,0.352 0.016,0.563 0.008,0.218 0.019,0.425 0.031,0.625 0.02,0.195 0.039,0.375 0.063,0.531 0.019,0.156 0.035,0.266 0.046,0.328 l 3.125,0 c -0.023,-0.281 -0.043,-0.68 -0.062,-1.187 -0.012,-0.512 -0.016,-1.094 -0.016,-1.75 l 0,-9.36 c 0,-0.926 -0.136,-1.726 -0.406,-2.406 -0.262,-0.688 -0.648,-1.254 -1.156,-1.703 -0.512,-0.457 -1.141,-0.801 -1.891,-1.031 -0.742,-0.227 -1.59,-0.344 -2.547,-0.344 z m 2.75,11.609 c 0,0.801 -0.078,1.469 -0.234,2 -0.156,0.531 -0.359,0.953 -0.609,1.266 -0.25,0.32 -0.54,0.551 -0.86,0.687 -0.324,0.133 -0.648,0.203 -0.969,0.203 -0.429,0 -0.804,-0.086 -1.125,-0.25 -0.324,-0.168 -0.601,-0.421 -0.828,-0.765 -0.23,-0.344 -0.402,-0.781 -0.515,-1.313 -0.118,-0.531 -0.172,-1.164 -0.172,-1.89 0,-1.375 0.219,-2.414 0.656,-3.11 0.438,-0.687 1.086,-1.031 1.953,-1.031 0.332,0 0.66,0.063 0.985,0.188 0.32,0.132 0.609,0.363 0.859,0.687 0.258,0.32 0.469,0.75 0.625,1.281 0.156,0.539 0.234,1.223 0.234,2.047 z" /><path
         id="path212"
         style="fill:#000000;fill-opacity:1;fill-rule:nonzero;stroke:none"
         d="m 532.27,231.895 0,-3.359 -3.141,0 0,3.359 -7.516,0 0,2.484 6.985,10.672 3.672,0 0,-10.703 2.203,0 0,-2.453 -2.203,0 z m -3.141,7.859 c 0,0.133 0,0.305 0,0.516 0.008,0.219 0.019,0.437 0.031,0.656 0.008,0.227 0.02,0.445 0.031,0.656 0.008,0.207 0.024,0.368 0.047,0.485 -0.043,-0.086 -0.105,-0.211 -0.187,-0.375 -0.086,-0.156 -0.184,-0.328 -0.297,-0.516 -0.106,-0.18 -0.215,-0.355 -0.328,-0.531 -0.106,-0.18 -0.203,-0.336 -0.297,-0.469 l -3.828,-5.828 4.828,0 0,5.406 z" /><path
         id="path214"
         style="fill:#000000;fill-opacity:1;fill-rule:nonzero;stroke:none"
         d="m 28.18,191.657 3.988,0 0,-3.988 -3.988,0 0,3.988 z" /><g
         transform="matrix(0,1,1,0,0,249.46915)"
         id="g216"><path
           id="path218"
           style="fill:#ffffff;fill-opacity:1;fill-rule:nonzero;stroke:#000000;stroke-width:3.98720002;stroke-linecap:butt;stroke-linejoin:miter;stroke-miterlimit:4;stroke-dasharray:none;stroke-opacity:1"
           d="m -51.566,10.238 c 0,4.551 -3.688,8.242 -8.243,8.242 -4.55,0 -8.242,-3.691 -8.242,-8.242 0,-4.554 3.692,-8.246 8.242,-8.246 4.555,0 8.243,3.692 8.243,8.246 z" /></g><g
         transform="matrix(0,1,1,0,0,249.46915)"
         id="g220"><path
           id="path222"
           style="fill:none;stroke:#000000;stroke-width:3.98720002;stroke-linecap:square;stroke-linejoin:miter;stroke-miterlimit:10;stroke-dasharray:none;stroke-opacity:1"
           d="m -59.809,20.207 0,7.973" /></g><path
         id="path224"
         style="fill:#000000;fill-opacity:1;fill-rule:nonzero;stroke:none"
         d="m 745.875,191.657 3.988,0 0,-3.988 -3.988,0 0,3.988 z" /><g
         transform="matrix(0,-1,-1,0,0,249.46915)"
         id="g226"><path
           id="path228"
           style="fill:#ffffff;fill-opacity:1;fill-rule:nonzero;stroke:#000000;stroke-width:3.98720002;stroke-linecap:butt;stroke-linejoin:miter;stroke-miterlimit:4;stroke-dasharray:none;stroke-opacity:1"
           d="m 68.051,-767.805 c 0,4.551 -3.692,8.243 -8.242,8.243 -4.555,0 -8.243,-3.692 -8.243,-8.243 0,-4.554 3.688,-8.242 8.243,-8.242 4.55,0 8.242,3.688 8.242,8.242 z" /></g><g
         transform="matrix(0,-1,-1,0,0,249.46915)"
         id="g230"><path
           id="path232"
           style="fill:none;stroke:#000000;stroke-width:3.98720002;stroke-linecap:square;stroke-linejoin:miter;stroke-miterlimit:10;stroke-dasharray:none;stroke-opacity:1"
           d="m 59.809,-757.836 0,7.973" /></g><path
         id="path234"
         style="fill:#000000;fill-opacity:1;fill-rule:nonzero;stroke:none"
         d="m 28.18,12.231 3.988,0 0,-3.988 -3.988,0 0,3.988 z" /><g
         transform="matrix(0,1,1,0,0,249.46915)"
         id="g236"><path
           id="path238"
           style="fill:#ffffff;fill-opacity:1;fill-rule:nonzero;stroke:#000000;stroke-width:3.98720002;stroke-linecap:butt;stroke-linejoin:miter;stroke-miterlimit:4;stroke-dasharray:none;stroke-opacity:1"
           d="m -230.988,10.238 c 0,4.551 -3.692,8.242 -8.242,8.242 -4.555,0 -8.247,-3.691 -8.247,-8.242 0,-4.554 3.692,-8.246 8.247,-8.246 4.55,0 8.242,3.692 8.242,8.246 z" /></g><g
         transform="matrix(0,1,1,0,0,249.46915)"
         id="g240"><path
           id="path242"
           style="fill:none;stroke:#000000;stroke-width:3.98720002;stroke-linecap:square;stroke-linejoin:miter;stroke-miterlimit:10;stroke-dasharray:none;stroke-opacity:1"
           d="m -239.23,20.207 0,7.973" /></g><path
         id="path244"
         style="fill:#000000;fill-opacity:1;fill-rule:nonzero;stroke:none"
         d="m 745.875,12.231 3.988,0 0,-3.988 -3.988,0 0,3.988 z" /><g
         transform="matrix(0,-1,-1,0,0,249.46915)"
         id="g246"><path
           id="path248"
           style="fill:#ffffff;fill-opacity:1;fill-rule:nonzero;stroke:#000000;stroke-width:3.98720002;stroke-linecap:butt;stroke-linejoin:miter;stroke-miterlimit:4;stroke-dasharray:none;stroke-opacity:1"
           d="m 247.477,-767.805 c 0,4.551 -3.692,8.243 -8.247,8.243 -4.55,0 -8.242,-3.692 -8.242,-8.243 0,-4.554 3.692,-8.242 8.242,-8.242 4.555,0 8.247,3.688 8.247,8.242 z" /></g><g
         transform="matrix(0,-1,-1,0,0,249.46915)"
         id="g250"><path
           id="path252"
           style="fill:none;stroke:#000000;stroke-width:3.98720002;stroke-linecap:square;stroke-linejoin:miter;stroke-miterlimit:10;stroke-dasharray:none;stroke-opacity:1"
           d="m 239.23,-757.836 0,7.973" /></g><g
         transform="matrix(1,0,0,-1,0,249.46915)"
         id="g254"><path
           id="path256"
           style="fill:none;stroke:#000000;stroke-width:3.98720002;stroke-linecap:butt;stroke-linejoin:miter;stroke-miterlimit:10;stroke-dasharray:none;stroke-opacity:1"
           d="m 30.172,239.23 717.695,0" /></g><g
         transform="matrix(1,0,0,-1,0,249.46915)"
         id="g258"><path
           id="path260"
           style="fill:none;stroke:#000000;stroke-width:3.98720002;stroke-linecap:butt;stroke-linejoin:miter;stroke-miterlimit:10;stroke-dasharray:none;stroke-opacity:1"
           d="m 30.172,59.809 159.488,0" /></g><g
         transform="matrix(1,0,0,-1,0,249.46915)"
         id="g262"><path
           id="path264"
           style="fill:none;stroke:#000000;stroke-width:3.98720002;stroke-linecap:butt;stroke-linejoin:miter;stroke-miterlimit:10;stroke-dasharray:none;stroke-opacity:1"
           d="m 309.277,59.809 159.489,0" /></g><g
         transform="matrix(1,0,0,-1,0,249.46915)"
         id="g266"><path
           id="path268"
           style="fill:none;stroke:#000000;stroke-width:3.98720002;stroke-linecap:butt;stroke-linejoin:miter;stroke-miterlimit:10;stroke-dasharray:none;stroke-opacity:1"
           d="m 588.383,59.809 159.484,0" /></g><g
         transform="matrix(1,0,0,-1,0,249.46915)"
         id="g270"><path
           id="path272"
           style="fill:none;stroke:#000000;stroke-width:3.98720002;stroke-linecap:butt;stroke-linejoin:miter;stroke-miterlimit:10;stroke-dasharray:none;stroke-opacity:1"
           d="m 668.125,199.359 0,35.887" /></g><g
         transform="matrix(1,0,0,-1,0,249.46915)"
         id="g274"><path
           id="path276"
           style="fill:#000000;fill-opacity:1;fill-rule:nonzero;stroke:#000000;stroke-width:3.98720002;stroke-linecap:butt;stroke-linejoin:miter;stroke-miterlimit:4;stroke-dasharray:none;stroke-opacity:1"
           d="m 672.113,239.23 c 0,2.204 -1.785,3.989 -3.988,3.989 -2.203,0 -3.988,-1.785 -3.988,-3.989 0,-2.199 1.785,-3.984 3.988,-3.984 2.203,0 3.988,1.785 3.988,3.984 z" /></g><g
         transform="matrix(1,0,0,-1,0,249.46915)"
         id="g278"><path
           id="path280"
           style="fill:none;stroke:#000000;stroke-width:3.98720002;stroke-linecap:butt;stroke-linejoin:miter;stroke-miterlimit:10;stroke-dasharray:none;stroke-opacity:1"
           d="m 389.02,199.359 0,35.887" /></g><g
         transform="matrix(1,0,0,-1,0,249.46915)"
         id="g282"><path
           id="path284"
           style="fill:#000000;fill-opacity:1;fill-rule:nonzero;stroke:#000000;stroke-width:3.98720002;stroke-linecap:butt;stroke-linejoin:miter;stroke-miterlimit:4;stroke-dasharray:none;stroke-opacity:1"
           d="m 393.008,239.23 c 0,2.204 -1.785,3.989 -3.988,3.989 -2.2,0 -3.985,-1.785 -3.985,-3.989 0,-2.199 1.785,-3.984 3.985,-3.984 2.203,0 3.988,1.785 3.988,3.984 z" /></g><g
         transform="matrix(1,0,0,-1,0,249.46915)"
         id="g286"><path
           id="path288"
           style="fill:none;stroke:#000000;stroke-width:3.98720002;stroke-linecap:butt;stroke-linejoin:miter;stroke-miterlimit:10;stroke-dasharray:none;stroke-opacity:1"
           d="m 389.02,99.68 0,-35.883" /></g><g
         transform="matrix(1,0,0,-1,0,249.46915)"
         id="g290"><path
           id="path292"
           style="fill:#000000;fill-opacity:1;fill-rule:nonzero;stroke:#000000;stroke-width:3.98720002;stroke-linecap:butt;stroke-linejoin:miter;stroke-miterlimit:4;stroke-dasharray:none;stroke-opacity:1"
           d="m 393.008,59.809 c 0,2.203 -1.785,3.988 -3.988,3.988 -2.2,0 -3.985,-1.785 -3.985,-3.988 0,-2.204 1.785,-3.989 3.985,-3.989 2.203,0 3.988,1.785 3.988,3.989 z" /></g><g
         transform="matrix(1,0,0,-1,0,249.46915)"
         id="g294"><path
           id="path296"
           style="fill:none;stroke:#000000;stroke-width:3.98720002;stroke-linecap:butt;stroke-linejoin:miter;stroke-miterlimit:10;stroke-dasharray:none;stroke-opacity:1"
           d="m 668.125,99.68 0,-35.883" /></g><g
         transform="matrix(1,0,0,-1,0,249.46915)"
         id="g298"><path
           id="path300"
           style="fill:#000000;fill-opacity:1;fill-rule:nonzero;stroke:#000000;stroke-width:3.98720002;stroke-linecap:butt;stroke-linejoin:miter;stroke-miterlimit:4;stroke-dasharray:none;stroke-opacity:1"
           d="m 672.113,59.809 c 0,2.203 -1.785,3.988 -3.988,3.988 -2.203,0 -3.988,-1.785 -3.988,-3.988 0,-2.204 1.785,-3.989 3.988,-3.989 2.203,0 3.988,1.785 3.988,3.989 z" /></g><g
         transform="matrix(1,0,0,-1,0,249.46915)"
         id="g302"><path
           id="path304"
           style="fill:none;stroke:#000000;stroke-width:3.98720002;stroke-linecap:butt;stroke-linejoin:miter;stroke-miterlimit:10;stroke-dasharray:none;stroke-opacity:1"
           d="m 109.918,99.68 0,-39.871 0,3.988" /></g><g
         transform="matrix(1,0,0,-1,0,249.46915)"
         id="g306"><path
           id="path308"
           style="fill:#000000;fill-opacity:1;fill-rule:nonzero;stroke:#000000;stroke-width:3.98720002;stroke-linecap:butt;stroke-linejoin:miter;stroke-miterlimit:4;stroke-dasharray:none;stroke-opacity:1"
           d="m 113.906,59.809 c 0,2.203 -1.785,3.988 -3.988,3.988 -2.203,0 -3.988,-1.785 -3.988,-3.988 0,-2.204 1.785,-3.989 3.988,-3.989 2.203,0 3.988,1.785 3.988,3.989 z" /></g><g
         transform="matrix(1,0,0,-1,0,249.46915)"
         id="g310"><path
           id="path312"
           style="fill:none;stroke:#000000;stroke-width:3.98720002;stroke-linecap:butt;stroke-linejoin:miter;stroke-miterlimit:10;stroke-dasharray:none;stroke-opacity:1"
           d="m 109.918,199.359 0,39.871 0,-3.984" /></g><g
         transform="matrix(1,0,0,-1,0,249.46915)"
         id="g314"><path
           id="path316"
           style="fill:#000000;fill-opacity:1;fill-rule:nonzero;stroke:#000000;stroke-width:3.98720002;stroke-linecap:butt;stroke-linejoin:miter;stroke-miterlimit:4;stroke-dasharray:none;stroke-opacity:1"
           d="m 113.906,239.23 c 0,2.204 -1.785,3.989 -3.988,3.989 -2.203,0 -3.988,-1.785 -3.988,-3.989 0,-2.199 1.785,-3.984 3.988,-3.984 2.203,0 3.988,1.785 3.988,3.984 z" /></g></g></g></svg>