<?xml version="1.0" encoding="UTF-8" standalone="no"?>
<svg
   xmlns:dc="http://purl.org/dc/elements/1.1/"
   xmlns:cc="http://creativecommons.org/ns#"
   xmlns:rdf="http://www.w3.org/1999/02/22-rdf-syntax-ns#"
   xmlns:svg="http://www.w3.org/2000/svg"
   xmlns="http://www.w3.org/2000/svg"
   viewBox="0 0 386.05179 164.77205"
   height="164.77205"
   width="386.05179"
   xml:space="preserve"
   version="1.1"
   id="svg2"><metadata
     id="metadata8"><rdf:RDF><cc:Work
         rdf:about=""><dc:format>image/svg+xml</dc:format><dc:type
           rdf:resource="http://purl.org/dc/dcmitype/StillImage" /></cc:Work></rdf:RDF></metadata><defs
     id="defs6" /><g
     transform="matrix(1.25,0,0,-1.25,0,164.77205)"
     id="g10"><g
       id="g12"><g
         transform="matrix(1,0,0,-1,0,131.81764)"
         id="g14"><path
           id="path16"
           style="fill:none;stroke:#000000;stroke-width:1.48481405;stroke-linecap:butt;stroke-linejoin:miter;stroke-miterlimit:4;stroke-dasharray:none;stroke-opacity:1"
           d="m 6.684,74.633 295.476,0" /></g><path
         id="path18"
         style="fill:#ffffff;fill-opacity:1;fill-rule:nonzero;stroke:none"
         d="m 0.742,57.185 c 0,1.484 1.485,2.969 2.969,2.969 1.484,0 2.973,-1.485 2.973,-2.969 0,-1.488 -1.489,-2.973 -2.973,-2.973 -1.484,0 -2.969,1.485 -2.969,2.973 z" /><g
         transform="matrix(1,0,0,-1,0,131.81764)"
         id="g20"><path
           id="path22"
           style="fill:none;stroke:#000000;stroke-width:1.48481405;stroke-linecap:butt;stroke-linejoin:miter;stroke-miterlimit:4;stroke-dasharray:none;stroke-opacity:1"
           d="m 0.742,74.633 c 0,-1.485 1.485,-2.969 2.969,-2.969 1.484,0 2.973,1.484 2.973,2.969 0,1.488 -1.489,2.972 -2.973,2.972 -1.484,0 -2.969,-1.484 -2.969,-2.972" /></g><path
         id="path24"
         style="fill:#ffffff;fill-opacity:1;fill-rule:nonzero;stroke:none"
         d="m 308.098,57.185 c 0,-1.488 -1.485,-2.973 -2.969,-2.973 -1.484,0 -2.969,1.485 -2.969,2.973 0,1.484 1.485,2.969 2.969,2.969 1.484,0 2.969,-1.485 2.969,-2.969 z" /><g
         transform="matrix(1,0,0,-1,0,131.81764)"
         id="g26"><path
           id="path28"
           style="fill:none;stroke:#000000;stroke-width:1.48481405;stroke-linecap:butt;stroke-linejoin:miter;stroke-miterlimit:4;stroke-dasharray:none;stroke-opacity:1"
           d="m 308.098,74.633 c 0,1.488 -1.485,2.972 -2.969,2.972 -1.484,0 -2.969,-1.484 -2.969,-2.972 0,-1.485 1.485,-2.969 2.969,-2.969 1.484,0 2.969,1.484 2.969,2.969" /></g><g
         transform="matrix(1,0,0,-1,0,131.81764)"
         id="g30"><path
           id="path32"
           style="fill:none;stroke:#000000;stroke-width:1.48481405;stroke-linecap:butt;stroke-linejoin:miter;stroke-miterlimit:4;stroke-dasharray:none;stroke-opacity:1"
           d="m 154.422,74.633 -26.727,56.144" /></g><path
         id="path34"
         style="fill:#000000;fill-opacity:1;fill-rule:nonzero;stroke:none"
         d="m 127.695,1.04 c -0.066,0.032 -0.105,0.133 -0.07,0.2 0.031,0.066 0.129,0.101 0.195,0.07 0.067,-0.031 0.106,-0.133 0.071,-0.199 -0.032,-0.067 -0.129,-0.102 -0.196,-0.071 z" /><g
         transform="matrix(1,0,0,-1,0,131.81764)"
         id="g36"><path
           id="path38"
           style="fill:none;stroke:#000000;stroke-width:1.48481405;stroke-linecap:butt;stroke-linejoin:miter;stroke-miterlimit:4;stroke-dasharray:none;stroke-opacity:1"
           d="m 127.695,130.777 c -0.066,-0.031 -0.105,-0.132 -0.07,-0.199 0.031,-0.066 0.129,-0.101 0.195,-0.07 0.067,0.031 0.106,0.133 0.071,0.199 -0.032,0.066 -0.129,0.102 -0.196,0.07" /></g><g
         transform="matrix(1,0,0,-1,0,131.81764)"
         id="g40"><path
           id="path42"
           style="fill:none;stroke:#000000;stroke-width:1.48481405;stroke-linecap:butt;stroke-linejoin:miter;stroke-miterlimit:4;stroke-dasharray:none;stroke-opacity:1"
           d="M 38.605,39.246 11.879,95.141" /></g><path
         id="path44"
         style="fill:#000000;fill-opacity:1;fill-rule:nonzero;stroke:none"
         d="m 11.879,36.677 c -0.067,0.031 -0.102,0.133 -0.07,0.199 0.031,0.067 0.129,0.102 0.199,0.071 0.066,-0.036 0.101,-0.133 0.066,-0.2 -0.031,-0.066 -0.129,-0.101 -0.195,-0.07 z" /><g
         transform="matrix(1,0,0,-1,0,131.81764)"
         id="g46"><path
           id="path48"
           style="fill:none;stroke:#000000;stroke-width:1.48481405;stroke-linecap:butt;stroke-linejoin:miter;stroke-miterlimit:4;stroke-dasharray:none;stroke-opacity:1"
           d="m 11.879,95.141 c -0.067,-0.032 -0.102,-0.133 -0.07,-0.2 0.031,-0.066 0.129,-0.101 0.199,-0.07 0.066,0.035 0.101,0.133 0.066,0.199 -0.031,0.067 -0.129,0.102 -0.195,0.071" /></g><g
         transform="matrix(1,0,0,-1,0,131.81764)"
         id="g50"><path
           id="path52"
           style="fill:none;stroke:#000000;stroke-width:1.48481405;stroke-linecap:butt;stroke-linejoin:miter;stroke-miterlimit:4;stroke-dasharray:none;stroke-opacity:1"
           d="M 38.605,74.633 11.879,130.777" /></g><path
         id="path54"
         style="fill:#000000;fill-opacity:1;fill-rule:nonzero;stroke:none"
         d="m 11.879,1.04 c -0.067,0.032 -0.102,0.133 -0.07,0.2 0.031,0.066 0.129,0.101 0.199,0.07 C 12.074,1.279 12.109,1.177 12.074,1.111 12.043,1.044 11.945,1.009 11.879,1.04 Z" /><g
         transform="matrix(1,0,0,-1,0,131.81764)"
         id="g56"><path
           id="path58"
           style="fill:none;stroke:#000000;stroke-width:1.48481405;stroke-linecap:butt;stroke-linejoin:miter;stroke-miterlimit:4;stroke-dasharray:none;stroke-opacity:1"
           d="m 11.879,130.777 c -0.067,-0.031 -0.102,-0.132 -0.07,-0.199 0.031,-0.066 0.129,-0.101 0.199,-0.07 0.066,0.031 0.101,0.133 0.066,0.199 -0.031,0.066 -0.129,0.102 -0.195,0.07" /></g><g
         transform="matrix(1,0,0,-1,0,131.81764)"
         id="g60"><path
           id="path62"
           style="fill:none;stroke:#000000;stroke-width:1.48481405;stroke-linecap:butt;stroke-linejoin:miter;stroke-miterlimit:4;stroke-dasharray:none;stroke-opacity:1"
           d="m 270.234,74.633 -26.726,56.144" /></g><path
         id="path64"
         style="fill:#000000;fill-opacity:1;fill-rule:nonzero;stroke:none"
         d="m 243.508,1.04 c -0.067,0.032 -0.102,0.133 -0.067,0.2 0.032,0.066 0.129,0.101 0.196,0.07 0.066,-0.031 0.101,-0.133 0.07,-0.199 -0.031,-0.067 -0.129,-0.102 -0.199,-0.071 z" /><g
         transform="matrix(1,0,0,-1,0,131.81764)"
         id="g66"><path
           id="path68"
           style="fill:none;stroke:#000000;stroke-width:1.48481405;stroke-linecap:butt;stroke-linejoin:miter;stroke-miterlimit:4;stroke-dasharray:none;stroke-opacity:1"
           d="m 243.508,130.777 c -0.067,-0.031 -0.102,-0.132 -0.067,-0.199 0.032,-0.066 0.129,-0.101 0.196,-0.07 0.066,0.031 0.101,0.133 0.07,0.199 -0.031,0.066 -0.129,0.102 -0.199,0.07" /></g><g
         transform="matrix(1,0,0,-1,0,131.81764)"
         id="g70"><path
           id="path72"
           style="fill:none;stroke:#000000;stroke-width:1.48481405;stroke-linecap:butt;stroke-linejoin:miter;stroke-miterlimit:4;stroke-dasharray:none;stroke-opacity:1"
           d="M 133.543,0.609 94.938,0.621" /></g><path
         id="path74"
         style="fill:#000000;fill-opacity:1;fill-rule:nonzero;stroke:none"
         d="m 133.543,131.208 c 0,-0.074 -0.074,-0.148 -0.148,-0.148 -0.075,0 -0.149,0.074 -0.149,0.148 -0.004,0.074 0.07,0.149 0.145,0.149 0.074,0 0.148,-0.075 0.152,-0.149 z" /><g
         transform="matrix(1,0,0,-1,0,131.81764)"
         id="g76"><path
           id="path78"
           style="fill:none;stroke:#000000;stroke-width:1.48481405;stroke-linecap:butt;stroke-linejoin:miter;stroke-miterlimit:4;stroke-dasharray:none;stroke-opacity:1"
           d="m 133.543,0.609 c 0,0.075 -0.074,0.149 -0.148,0.149 -0.075,0 -0.149,-0.074 -0.149,-0.149 -0.004,-0.074 0.07,-0.148 0.145,-0.148 0.074,0 0.148,0.074 0.152,0.148" /></g><path
         id="path80"
         style="fill:#000000;fill-opacity:1;fill-rule:nonzero;stroke:none"
         d="m 94.938,131.197 c -0.004,0.074 0.07,0.152 0.144,0.152 0.074,0 0.148,-0.074 0.152,-0.149 0,-0.074 -0.074,-0.148 -0.148,-0.148 -0.074,0 -0.148,0.07 -0.148,0.145 z" /><g
         transform="matrix(1,0,0,-1,0,131.81764)"
         id="g82"><path
           id="path84"
           style="fill:none;stroke:#000000;stroke-width:1.48481405;stroke-linecap:butt;stroke-linejoin:miter;stroke-miterlimit:4;stroke-dasharray:none;stroke-opacity:1"
           d="m 94.938,0.621 c -0.004,-0.074 0.07,-0.152 0.144,-0.152 0.074,0 0.148,0.074 0.152,0.148 0,0.074 -0.074,0.149 -0.148,0.149 -0.074,0 -0.148,-0.071 -0.148,-0.145" /></g><g
         transform="matrix(1,0,0,-1,0,131.81764)"
         id="g86"><path
           id="path88"
           style="fill:none;stroke:#000000;stroke-width:1.48481405;stroke-linecap:butt;stroke-linejoin:miter;stroke-miterlimit:4;stroke-dasharray:none;stroke-opacity:1"
           d="m 6.684,39 70.527,0" /></g><path
         id="path90"
         style="fill:#ffffff;fill-opacity:1;fill-rule:nonzero;stroke:none"
         d="m 0.742,92.818 c 0,1.484 1.485,2.968 2.969,2.968 1.484,0 2.973,-1.484 2.973,-2.968 0,-1.485 -1.489,-2.969 -2.973,-2.969 -1.484,0 -2.969,1.484 -2.969,2.969 z" /><g
         transform="matrix(1,0,0,-1,0,131.81764)"
         id="g92"><path
           id="path94"
           style="fill:none;stroke:#000000;stroke-width:1.48481405;stroke-linecap:butt;stroke-linejoin:miter;stroke-miterlimit:4;stroke-dasharray:none;stroke-opacity:1"
           d="m 0.742,39 c 0,-1.484 1.485,-2.969 2.969,-2.969 1.484,0 2.973,1.485 2.973,2.969 0,1.484 -1.489,2.969 -2.973,2.969 -1.484,0 -2.969,-1.485 -2.969,-2.969" /></g><path
         id="path96"
         style="fill:#000000;fill-opacity:1;fill-rule:nonzero;stroke:none"
         d="m 77.211,92.818 c 0,-0.075 -0.074,-0.149 -0.149,-0.149 -0.074,0 -0.148,0.074 -0.148,0.149 0,0.074 0.074,0.148 0.148,0.148 0.075,0 0.149,-0.074 0.149,-0.148 z" /><g
         transform="matrix(1,0,0,-1,0,131.81764)"
         id="g98"><path
           id="path100"
           style="fill:none;stroke:#000000;stroke-width:1.48481405;stroke-linecap:butt;stroke-linejoin:miter;stroke-miterlimit:4;stroke-dasharray:none;stroke-opacity:1"
           d="m 77.211,39 c 0,0.074 -0.074,0.148 -0.149,0.148 -0.074,0 -0.148,-0.074 -0.148,-0.148 0,-0.074 0.074,-0.148 0.148,-0.148 0.075,0 0.149,0.074 0.149,0.148" /></g><g
         transform="matrix(1,0,0,-1,0,131.81764)"
         id="g102"><path
           id="path104"
           style="fill:none;stroke:#000000;stroke-width:1.48481405;stroke-linecap:butt;stroke-linejoin:miter;stroke-miterlimit:4;stroke-dasharray:none;stroke-opacity:1"
           d="m 115.816,39 77.211,0" /></g><path
         id="path106"
         style="fill:#000000;fill-opacity:1;fill-rule:nonzero;stroke:none"
         d="m 115.816,92.818 c 0,0.074 0.075,0.148 0.149,0.148 0.074,0 0.148,-0.074 0.148,-0.148 0,-0.075 -0.074,-0.149 -0.148,-0.149 -0.074,0 -0.149,0.074 -0.149,0.149 z" /><g
         transform="matrix(1,0,0,-1,0,131.81764)"
         id="g108"><path
           id="path110"
           style="fill:none;stroke:#000000;stroke-width:1.48481405;stroke-linecap:butt;stroke-linejoin:miter;stroke-miterlimit:4;stroke-dasharray:none;stroke-opacity:1"
           d="m 115.816,39 c 0,-0.074 0.075,-0.148 0.149,-0.148 0.074,0 0.148,0.074 0.148,0.148 0,0.074 -0.074,0.148 -0.148,0.148 -0.074,0 -0.149,-0.074 -0.149,-0.148" /></g><path
         id="path112"
         style="fill:#000000;fill-opacity:1;fill-rule:nonzero;stroke:none"
         d="m 193.027,92.818 c 0,-0.075 -0.074,-0.149 -0.148,-0.149 -0.074,0 -0.149,0.074 -0.149,0.149 0,0.074 0.075,0.148 0.149,0.148 0.074,0 0.148,-0.074 0.148,-0.148 z" /><g
         transform="matrix(1,0,0,-1,0,131.81764)"
         id="g114"><path
           id="path116"
           style="fill:none;stroke:#000000;stroke-width:1.48481405;stroke-linecap:butt;stroke-linejoin:miter;stroke-miterlimit:4;stroke-dasharray:none;stroke-opacity:1"
           d="m 193.027,39 c 0,0.074 -0.074,0.148 -0.148,0.148 -0.074,0 -0.149,-0.074 -0.149,-0.148 0,-0.074 0.075,-0.148 0.149,-0.148 0.074,0 0.148,0.074 0.148,0.148" /></g><g
         transform="matrix(1,0,0,-1,0,131.81764)"
         id="g118"><path
           id="path120"
           style="fill:none;stroke:#000000;stroke-width:1.48481405;stroke-linecap:butt;stroke-linejoin:miter;stroke-miterlimit:4;stroke-dasharray:none;stroke-opacity:1"
           d="m 302.16,39 -70.527,0" /></g><path
         id="path122"
         style="fill:#ffffff;fill-opacity:1;fill-rule:nonzero;stroke:none"
         d="m 308.098,92.818 c 0,-1.485 -1.485,-2.969 -2.969,-2.969 -1.484,0 -2.969,1.484 -2.969,2.969 0,1.484 1.485,2.968 2.969,2.968 1.484,0 2.969,-1.484 2.969,-2.968 z" /><g
         transform="matrix(1,0,0,-1,0,131.81764)"
         id="g124"><path
           id="path126"
           style="fill:none;stroke:#000000;stroke-width:1.48481405;stroke-linecap:butt;stroke-linejoin:miter;stroke-miterlimit:4;stroke-dasharray:none;stroke-opacity:1"
           d="m 308.098,39 c 0,1.484 -1.485,2.969 -2.969,2.969 -1.484,0 -2.969,-1.485 -2.969,-2.969 0,-1.484 1.485,-2.969 2.969,-2.969 1.484,0 2.969,1.485 2.969,2.969" /></g><path
         id="path128"
         style="fill:#000000;fill-opacity:1;fill-rule:nonzero;stroke:none"
         d="m 231.633,92.818 c 0,0.074 0.074,0.148 0.148,0.148 0.074,0 0.149,-0.074 0.149,-0.148 0,-0.075 -0.075,-0.149 -0.149,-0.149 -0.074,0 -0.148,0.074 -0.148,0.149 z" /><g
         transform="matrix(1,0,0,-1,0,131.81764)"
         id="g130"><path
           id="path132"
           style="fill:none;stroke:#000000;stroke-width:1.48481405;stroke-linecap:butt;stroke-linejoin:miter;stroke-miterlimit:4;stroke-dasharray:none;stroke-opacity:1"
           d="m 231.633,39 c 0,-0.074 0.074,-0.148 0.148,-0.148 0.074,0 0.149,0.074 0.149,0.148 0,0.074 -0.075,0.148 -0.149,0.148 -0.074,0 -0.148,-0.074 -0.148,-0.148" /></g><g
         transform="matrix(1,0,0,-1,0,131.81764)"
         id="g134"><path
           id="path136"
           style="fill:none;stroke:#bf00bf;stroke-width:1.48481405;stroke-linecap:butt;stroke-linejoin:miter;stroke-miterlimit:4;stroke-dasharray:5.939257, 5.939257;stroke-dashoffset:0;stroke-opacity:1"
           d="m 65.332,33.059 0,53.453" /></g><g
         transform="matrix(1,0,0,-1,0,131.81764)"
         id="g138"><path
           id="path140"
           style="fill:none;stroke:#bf00bf;stroke-width:1.48481405;stroke-linecap:butt;stroke-linejoin:miter;stroke-miterlimit:4;stroke-dasharray:5.939257, 5.939257;stroke-dashoffset:0;stroke-opacity:1"
           d="m 130.664,33.059 0,53.453" /></g><g
         transform="matrix(1,0,0,-1,0,131.81764)"
         id="g142"><path
           id="path144"
           style="fill:none;stroke:#bf00bf;stroke-width:1.48481405;stroke-linecap:butt;stroke-linejoin:miter;stroke-miterlimit:4;stroke-dasharray:5.939257, 5.939257;stroke-dashoffset:0;stroke-opacity:1"
           d="m 178.176,33.059 0,53.453" /></g><g
         transform="matrix(1,0,0,-1,0,131.81764)"
         id="g146"><path
           id="path148"
           style="fill:none;stroke:#bf00bf;stroke-width:1.48481405;stroke-linecap:butt;stroke-linejoin:miter;stroke-miterlimit:4;stroke-dasharray:5.939257, 5.939257;stroke-dashoffset:0;stroke-opacity:1"
           d="m 243.508,33.059 0,53.453" /></g><g
         transform="matrix(1,0,0,-1,0,131.81764)"
         id="g150"><path
           id="path152"
           style="fill:none;stroke:#000000;stroke-width:1.48481405;stroke-linecap:butt;stroke-linejoin:miter;stroke-miterlimit:4;stroke-dasharray:none;stroke-opacity:1"
           d="M 154.422,39.141 127.695,95.422" /></g><path
         id="path154"
         style="fill:#000000;fill-opacity:1;fill-rule:nonzero;stroke:none"
         d="m 127.695,36.396 c -0.066,0.031 -0.105,0.129 -0.07,0.199 0.031,0.066 0.129,0.102 0.195,0.07 0.067,-0.035 0.106,-0.133 0.071,-0.199 -0.032,-0.066 -0.129,-0.101 -0.196,-0.07 z" /><g
         transform="matrix(1,0,0,-1,0,131.81764)"
         id="g156"><path
           id="path158"
           style="fill:none;stroke:#000000;stroke-width:1.48481405;stroke-linecap:butt;stroke-linejoin:miter;stroke-miterlimit:4;stroke-dasharray:none;stroke-opacity:1"
           d="m 127.695,95.422 c -0.066,-0.031 -0.105,-0.129 -0.07,-0.199 0.031,-0.067 0.129,-0.102 0.195,-0.071 0.067,0.036 0.106,0.133 0.071,0.2 -0.032,0.066 -0.129,0.101 -0.196,0.07" /></g><g
         transform="matrix(1,0,0,-1,0,131.81764)"
         id="g160"><path
           id="path162"
           style="fill:none;stroke:#000000;stroke-width:1.48481405;stroke-linecap:butt;stroke-linejoin:miter;stroke-miterlimit:4;stroke-dasharray:none;stroke-opacity:1"
           d="M 270.234,39.035 243.508,95.141" /></g><path
         id="path164"
         style="fill:#000000;fill-opacity:1;fill-rule:nonzero;stroke:none"
         d="m 243.508,36.677 c -0.067,0.031 -0.102,0.129 -0.067,0.199 0.032,0.067 0.129,0.102 0.196,0.071 0.066,-0.036 0.101,-0.133 0.07,-0.2 -0.031,-0.066 -0.129,-0.101 -0.199,-0.07 z" /><g
         transform="matrix(1,0,0,-1,0,131.81764)"
         id="g166"><path
           id="path168"
           style="fill:none;stroke:#000000;stroke-width:1.48481405;stroke-linecap:butt;stroke-linejoin:miter;stroke-miterlimit:4;stroke-dasharray:none;stroke-opacity:1"
           d="m 243.508,95.141 c -0.067,-0.032 -0.102,-0.129 -0.067,-0.2 0.032,-0.066 0.129,-0.101 0.196,-0.07 0.066,0.035 0.101,0.133 0.07,0.199 -0.031,0.067 -0.129,0.102 -0.199,0.071" /></g><g
         transform="matrix(1,0,0,-1,0,131.81764)"
         id="g170"><path
           id="path172"
           style="fill:none;stroke:#000000;stroke-width:1.48481405;stroke-linecap:butt;stroke-linejoin:miter;stroke-miterlimit:4;stroke-dasharray:none;stroke-opacity:1"
           d="M 133.633,0.395 115.816,39" /></g><g
         transform="matrix(1,0,0,-1,0,131.81764)"
         id="g174"><path
           id="path176"
           style="fill:none;stroke:#000000;stroke-width:1.48481405;stroke-linecap:butt;stroke-linejoin:miter;stroke-miterlimit:4;stroke-dasharray:none;stroke-opacity:1"
           d="M 95.027,0.395 77.211,39" /></g><g
         transform="matrix(1,0,0,-1,0,131.81764)"
         id="g178"><path
           id="path180"
           style="fill:none;stroke:#000000;stroke-width:1.48481405;stroke-linecap:butt;stroke-linejoin:miter;stroke-miterlimit:4;stroke-dasharray:none;stroke-opacity:1"
           d="M 249.223,0.867 210.621,0.879" /></g><path
         id="path182"
         style="fill:#000000;fill-opacity:1;fill-rule:nonzero;stroke:none"
         d="m 249.223,130.95 c 0,-0.074 -0.075,-0.148 -0.149,-0.148 -0.074,0 -0.148,0.074 -0.148,0.148 0,0.075 0.074,0.149 0.148,0.149 0.074,0 0.149,-0.074 0.149,-0.149 z" /><g
         transform="matrix(1,0,0,-1,0,131.81764)"
         id="g184"><path
           id="path186"
           style="fill:none;stroke:#000000;stroke-width:1.48481405;stroke-linecap:butt;stroke-linejoin:miter;stroke-miterlimit:4;stroke-dasharray:none;stroke-opacity:1"
           d="m 249.223,0.867 c 0,0.074 -0.075,0.149 -0.149,0.149 -0.074,0 -0.148,-0.075 -0.148,-0.149 0,-0.074 0.074,-0.148 0.148,-0.148 0.074,0 0.149,0.074 0.149,0.148" /></g><path
         id="path188"
         style="fill:#000000;fill-opacity:1;fill-rule:nonzero;stroke:none"
         d="m 210.621,130.939 c 0,0.074 0.074,0.148 0.149,0.148 0.074,0 0.148,-0.074 0.148,-0.148 0,-0.074 -0.074,-0.153 -0.148,-0.153 -0.075,0 -0.149,0.079 -0.149,0.153 z" /><g
         transform="matrix(1,0,0,-1,0,131.81764)"
         id="g190"><path
           id="path192"
           style="fill:none;stroke:#000000;stroke-width:1.48481405;stroke-linecap:butt;stroke-linejoin:miter;stroke-miterlimit:4;stroke-dasharray:none;stroke-opacity:1"
           d="m 210.621,0.879 c 0,-0.074 0.074,-0.149 0.149,-0.149 0.074,0 0.148,0.075 0.148,0.149 0,0.074 -0.074,0.152 -0.148,0.152 -0.075,0 -0.149,-0.078 -0.149,-0.152" /></g><g
         transform="matrix(1,0,0,-1,0,131.81764)"
         id="g194"><path
           id="path196"
           style="fill:none;stroke:#000000;stroke-width:1.48481405;stroke-linecap:butt;stroke-linejoin:miter;stroke-miterlimit:4;stroke-dasharray:none;stroke-opacity:1"
           d="M 249.316,0.656 231.5,39.262" /></g><g
         transform="matrix(1,0,0,-1,0,131.81764)"
         id="g198"><path
           id="path200"
           style="fill:none;stroke:#000000;stroke-width:1.48481405;stroke-linecap:butt;stroke-linejoin:miter;stroke-miterlimit:4;stroke-dasharray:none;stroke-opacity:1"
           d="m 210.715,0.656 -17.82,38.606" /></g></g></g></svg>