<?xml version="1.0" encoding="UTF-8" standalone="no"?>
<svg
   xmlns:dc="http://purl.org/dc/elements/1.1/"
   xmlns:cc="http://creativecommons.org/ns#"
   xmlns:rdf="http://www.w3.org/1999/02/22-rdf-syntax-ns#"
   xmlns:svg="http://www.w3.org/2000/svg"
   xmlns="http://www.w3.org/2000/svg"
   viewBox="0 0 1798 1333.9999"
   height="1333.9999"
   width="1798"
   xml:space="preserve"
   version="1.1"
   id="svg2"><metadata
     id="metadata8"><rdf:RDF><cc:Work
         rdf:about=""><dc:format>image/svg+xml</dc:format><dc:type
           rdf:resource="http://purl.org/dc/dcmitype/StillImage" /></cc:Work></rdf:RDF></metadata><defs
     id="defs6" /><g
     transform="matrix(1.25,0,0,-1.25,0,1333.9999)"
     id="g10"><g
       id="g12"><g
         transform="matrix(1,0,0,-1,0,1067.2)"
         id="g14"><path
           id="path16"
           style="fill:#000000;fill-opacity:1;fill-rule:nonzero;stroke:#000000;stroke-width:3.10400009;stroke-linecap:butt;stroke-linejoin:miter;stroke-miterlimit:4;stroke-dasharray:none;stroke-opacity:1"
           d="m 92.344,117.953 496.641,0 0,155.199 -496.641,0 0,-155.199 z" /></g><g
         transform="matrix(0,-1,-1,0,0,1067.2)"
         id="g18"><path
           id="path20"
           style="fill:#000000;fill-opacity:1;fill-rule:nonzero;stroke:#000000;stroke-width:3.10400009;stroke-linecap:butt;stroke-linejoin:miter;stroke-miterlimit:4;stroke-dasharray:none;stroke-opacity:1"
           d="m 366.273,-837.305 620.797,0 0,248.321 -620.797,0 0,-248.321 z" /></g><g
         transform="matrix(1,0,0,-1,0,1067.2)"
         id="g22"><path
           id="path24"
           style="fill:#000000;fill-opacity:1;fill-rule:nonzero;stroke:#000000;stroke-width:3.10400009;stroke-linecap:butt;stroke-linejoin:miter;stroke-miterlimit:4;stroke-dasharray:none;stroke-opacity:1"
           d="m 837.305,24.832 496.641,0 0,341.441 -496.641,0 0,-341.441 z" /></g><g
         transform="matrix(1,0,0,-1,0,1067.2)"
         id="g26"><path
           id="path28"
           style="fill:#7f007f;fill-opacity:1;fill-rule:nonzero;stroke:#7f007f;stroke-width:3.10400009;stroke-linecap:butt;stroke-linejoin:miter;stroke-miterlimit:4;stroke-dasharray:none;stroke-opacity:1"
           d="m 713.145,24.832 124.16,0 0,341.441 -124.16,0 0,-341.441 z" /></g><g
         transform="matrix(1,0,0,-1,0,1067.2)"
         id="g30"><path
           id="path32"
           style="fill:#7f007f;fill-opacity:1;fill-rule:nonzero;stroke:#7f007f;stroke-width:3.10400009;stroke-linecap:butt;stroke-linejoin:miter;stroke-miterlimit:4;stroke-dasharray:none;stroke-opacity:1"
           d="m 588.984,117.953 124.16,0 0,248.32 -124.16,0 0,-248.32 z" /></g><g
         transform="matrix(1,0,0,-1,0,1067.2)"
         id="g34"><path
           id="path36"
           style="fill:none;stroke:#000000;stroke-width:6.20800018;stroke-linecap:butt;stroke-linejoin:miter;stroke-miterlimit:10;stroke-dasharray:none;stroke-opacity:1"
           d="m 117.906,304.191 445.516,0" /></g><g
         transform="matrix(1,0,0,-1,0,1067.2)"
         id="g38"><path
           id="path40"
           style="fill:#000000;fill-opacity:1;fill-rule:nonzero;stroke:#000000;stroke-width:6.20800018;stroke-linecap:butt;stroke-linejoin:miter;stroke-miterlimit:10;stroke-dasharray:none;stroke-opacity:1"
           d="m 99.281,304.191 18.625,-9.312 0,18.625 -18.625,-9.313 z" /></g><g
         transform="matrix(1,0,0,-1,0,1067.2)"
         id="g42"><path
           id="path44"
           style="fill:#000000;fill-opacity:1;fill-rule:nonzero;stroke:#000000;stroke-width:6.20800018;stroke-linecap:butt;stroke-linejoin:miter;stroke-miterlimit:10;stroke-dasharray:none;stroke-opacity:1"
           d="m 582.047,304.191 -18.625,9.313 0,-18.625 18.625,9.312 z" /></g><path
         id="path46"
         style="fill:#000000;fill-opacity:1;fill-rule:nonzero;stroke:none"
         d="m 324.453,725.759 0,23.39 3.156,0 0,-20.797 11.829,0 0,-2.593 -14.985,0 z" /><path
         id="path48"
         style="fill:#000000;fill-opacity:1;fill-rule:nonzero;stroke:none"
         d="m 343.258,725.759 0,2.546 5.953,0 0,17.985 -5.281,-3.766 0,2.828 5.531,3.797 2.766,0 0,-20.844 5.687,0 0,-2.546 -14.656,0 z" /><g
         transform="matrix(1,0,0,-1,0,1067.2)"
         id="g50"><path
           id="path52"
           style="fill:none;stroke:#000000;stroke-width:6.20800018;stroke-linecap:butt;stroke-linejoin:miter;stroke-miterlimit:10;stroke-dasharray:none;stroke-opacity:1"
           d="m 862.867,397.313 445.516,0" /></g><g
         transform="matrix(1,0,0,-1,0,1067.2)"
         id="g54"><path
           id="path56"
           style="fill:#000000;fill-opacity:1;fill-rule:nonzero;stroke:#000000;stroke-width:6.20800018;stroke-linecap:butt;stroke-linejoin:miter;stroke-miterlimit:10;stroke-dasharray:none;stroke-opacity:1"
           d="m 844.242,397.313 18.625,-9.313 0,18.625 -18.625,-9.312 z" /></g><g
         transform="matrix(1,0,0,-1,0,1067.2)"
         id="g58"><path
           id="path60"
           style="fill:#000000;fill-opacity:1;fill-rule:nonzero;stroke:#000000;stroke-width:6.20800018;stroke-linecap:butt;stroke-linejoin:miter;stroke-miterlimit:10;stroke-dasharray:none;stroke-opacity:1"
           d="m 1327.008,397.313 -18.625,9.312 0,-18.625 18.625,9.313 z" /></g><path
         id="path62"
         style="fill:#000000;fill-opacity:1;fill-rule:nonzero;stroke:none"
         d="m 1069.414,632.641 0,23.391 3.156,0 0,-20.797 11.828,0 0,-2.594 -14.984,0 z" /><path
         id="path64"
         style="fill:#000000;fill-opacity:1;fill-rule:nonzero;stroke:none"
         d="m 1087.328,632.641 0,2.11 c 0.57,1.289 1.266,2.429 2.078,3.422 0.813,0.988 1.664,1.882 2.563,2.687 0.894,0.813 1.781,1.555 2.656,2.234 0.883,0.688 1.68,1.375 2.391,2.063 0.707,0.687 1.281,1.406 1.718,2.156 0.438,0.758 0.657,1.614 0.657,2.563 0,0.664 -0.102,1.25 -0.297,1.75 -0.199,0.5 -0.492,0.922 -0.875,1.265 -0.375,0.344 -0.828,0.598 -1.36,0.766 -0.523,0.176 -1.101,0.266 -1.734,0.266 -0.605,0 -1.172,-0.086 -1.703,-0.25 -0.524,-0.168 -0.984,-0.418 -1.391,-0.75 -0.406,-0.325 -0.742,-0.735 -1,-1.235 -0.261,-0.492 -0.433,-1.062 -0.515,-1.719 l -3.047,0.282 c 0.101,0.843 0.336,1.633 0.703,2.375 0.363,0.738 0.863,1.39 1.5,1.953 0.644,0.562 1.414,1 2.312,1.312 0.907,0.321 1.954,0.485 3.141,0.485 1.156,0 2.187,-0.141 3.094,-0.422 0.914,-0.274 1.687,-0.68 2.312,-1.219 0.625,-0.543 1.098,-1.215 1.422,-2.016 0.332,-0.792 0.5,-1.71 0.5,-2.75 0,-0.781 -0.141,-1.527 -0.422,-2.234 -0.281,-0.711 -0.656,-1.387 -1.125,-2.031 -0.468,-0.637 -1.015,-1.258 -1.64,-1.86 -0.618,-0.593 -1.262,-1.179 -1.938,-1.75 -0.68,-0.574 -1.359,-1.14 -2.047,-1.703 -0.679,-0.554 -1.32,-1.109 -1.922,-1.672 -0.605,-0.562 -1.148,-1.136 -1.625,-1.718 -0.48,-0.586 -0.851,-1.188 -1.109,-1.813 l 12.203,0 0,-2.547 -15.5,0 z" /><g
         transform="matrix(1,0,0,-1,0,1067.2)"
         id="g66"><path
           id="path68"
           style="fill:none;stroke:#000000;stroke-width:6.20800018;stroke-linecap:butt;stroke-linejoin:miter;stroke-miterlimit:10;stroke-dasharray:none;stroke-opacity:1"
           d="m 557.945,961.512 0,-569.68" /></g><g
         transform="matrix(1,0,0,-1,0,1067.2)"
         id="g70"><path
           id="path72"
           style="fill:#000000;fill-opacity:1;fill-rule:nonzero;stroke:#000000;stroke-width:6.20800018;stroke-linecap:butt;stroke-linejoin:miter;stroke-miterlimit:10;stroke-dasharray:none;stroke-opacity:1"
           d="m 557.945,980.133 -9.312,-18.621 18.625,0 -9.313,18.621 z" /></g><g
         transform="matrix(1,0,0,-1,0,1067.2)"
         id="g74"><path
           id="path76"
           style="fill:#000000;fill-opacity:1;fill-rule:nonzero;stroke:#000000;stroke-width:6.20800018;stroke-linecap:butt;stroke-linejoin:miter;stroke-miterlimit:10;stroke-dasharray:none;stroke-opacity:1"
           d="m 557.945,373.211 9.313,18.621 -18.625,0 9.312,-18.621 z" /></g><path
         id="path78"
         style="fill:#000000;fill-opacity:1;fill-rule:nonzero;stroke:none"
         d="m 516.52,379.665 0,23.39 3.156,0 0,-20.796 11.828,0 0,-2.594 -14.984,0 z" /><path
         id="path80"
         style="fill:#000000;fill-opacity:1;fill-rule:nonzero;stroke:none"
         d="m 550.152,386.118 c 0,-1.074 -0.179,-2.031 -0.531,-2.875 -0.344,-0.836 -0.855,-1.543 -1.531,-2.125 -0.668,-0.586 -1.496,-1.027 -2.485,-1.328 -0.992,-0.301 -2.121,-0.453 -3.39,-0.453 -1.449,0 -2.672,0.179 -3.672,0.531 -0.992,0.363 -1.809,0.844 -2.453,1.437 -0.637,0.594 -1.117,1.266 -1.438,2.016 -0.324,0.758 -0.531,1.547 -0.625,2.359 l 3.094,0.282 c 0.082,-0.625 0.242,-1.196 0.484,-1.703 0.239,-0.512 0.563,-0.95 0.969,-1.313 0.406,-0.367 0.906,-0.648 1.5,-0.844 0.602,-0.199 1.317,-0.297 2.141,-0.297 1.5,0 2.676,0.368 3.531,1.11 0.863,0.738 1.297,1.844 1.297,3.312 0,0.864 -0.195,1.555 -0.578,2.078 -0.375,0.532 -0.852,0.942 -1.422,1.235 -0.574,0.289 -1.195,0.484 -1.859,0.578 -0.668,0.101 -1.289,0.156 -1.86,0.156 l -1.687,0 0,2.594 1.625,0 c 0.562,0 1.144,0.055 1.75,0.172 0.613,0.113 1.172,0.32 1.672,0.625 0.507,0.301 0.925,0.711 1.25,1.234 0.332,0.52 0.5,1.188 0.5,2 0,1.25 -0.372,2.235 -1.11,2.953 -0.742,0.727 -1.836,1.094 -3.281,1.094 -1.313,0 -2.383,-0.34 -3.203,-1.016 -0.813,-0.668 -1.281,-1.617 -1.406,-2.843 l -3.016,0.218 c 0.125,1.032 0.406,1.926 0.844,2.688 0.445,0.769 1.008,1.406 1.687,1.906 0.688,0.508 1.469,0.883 2.344,1.125 0.875,0.25 1.801,0.375 2.781,0.375 1.313,0 2.438,-0.164 3.375,-0.484 0.938,-0.324 1.703,-0.766 2.297,-1.328 0.602,-0.563 1.047,-1.219 1.328,-1.969 0.281,-0.75 0.422,-1.555 0.422,-2.406 0,-0.688 -0.094,-1.336 -0.281,-1.938 -0.188,-0.594 -0.481,-1.133 -0.875,-1.609 -0.399,-0.469 -0.902,-0.875 -1.516,-1.219 -0.617,-0.344 -1.355,-0.605 -2.219,-0.781 l 0,-0.063 c 0.938,-0.105 1.754,-0.32 2.454,-0.64 0.695,-0.325 1.269,-0.731 1.718,-1.219 0.457,-0.492 0.801,-1.047 1.032,-1.672 0.226,-0.617 0.343,-1.266 0.343,-1.953 z" /><g
         transform="matrix(1,0,0,-1,0,1067.2)"
         id="g82"><path
           id="path84"
           style="fill:none;stroke:#000000;stroke-width:6.20800018;stroke-linecap:butt;stroke-linejoin:miter;stroke-miterlimit:10;stroke-dasharray:none;stroke-opacity:1"
           d="m 61.305,143.512 0,104.078" /></g><g
         transform="matrix(1,0,0,-1,0,1067.2)"
         id="g86"><path
           id="path88"
           style="fill:#000000;fill-opacity:1;fill-rule:nonzero;stroke:#000000;stroke-width:6.20800018;stroke-linecap:butt;stroke-linejoin:miter;stroke-miterlimit:10;stroke-dasharray:none;stroke-opacity:1"
           d="m 61.305,124.891 9.312,18.621 -18.625,0 9.313,-18.621 z" /></g><g
         transform="matrix(1,0,0,-1,0,1067.2)"
         id="g90"><path
           id="path92"
           style="fill:#000000;fill-opacity:1;fill-rule:nonzero;stroke:#000000;stroke-width:6.20800018;stroke-linecap:butt;stroke-linejoin:miter;stroke-miterlimit:10;stroke-dasharray:none;stroke-opacity:1"
           d="m 61.305,266.215 -9.313,-18.625 18.625,0 -9.312,18.625 z" /></g><path
         id="path94"
         style="fill:#000000;fill-opacity:1;fill-rule:nonzero;stroke:none"
         d="m 28.957,860.786 -3.781,0 -4.047,14.859 c -0.125,0.414 -0.258,0.91 -0.391,1.485 -0.136,0.582 -0.261,1.132 -0.375,1.656 -0.136,0.601 -0.265,1.223 -0.39,1.859 -0.149,-0.648 -0.289,-1.273 -0.422,-1.875 -0.125,-0.531 -0.258,-1.086 -0.391,-1.656 -0.125,-0.562 -0.25,-1.055 -0.375,-1.469 l -4.078,-14.859 -3.781,0 -6.891,23.391 3.297,0 4.203,-14.86 c 0.188,-0.699 0.363,-1.39 0.531,-2.078 0.176,-0.687 0.329,-1.305 0.454,-1.844 0.132,-0.636 0.265,-1.242 0.39,-1.812 0.164,0.758 0.336,1.508 0.516,2.25 0.07,0.312 0.144,0.64 0.219,0.984 0.082,0.344 0.164,0.676 0.25,1 0.082,0.332 0.164,0.649 0.25,0.953 0.082,0.313 0.16,0.594 0.234,0.844 l 4.062,14.563 3.032,0 4.078,-14.563 c 0.062,-0.25 0.133,-0.531 0.219,-0.844 0.082,-0.304 0.164,-0.617 0.25,-0.937 0.082,-0.324 0.16,-0.656 0.234,-1 0.082,-0.344 0.16,-0.672 0.234,-0.985 0.176,-0.742 0.348,-1.496 0.516,-2.265 0.008,0 0.055,0.187 0.141,0.562 0.093,0.383 0.207,0.864 0.343,1.438 0.133,0.57 0.282,1.191 0.438,1.859 0.156,0.676 0.316,1.301 0.484,1.875 l 4.141,14.86 3.297,0 -6.891,-23.391 z" /><path
         id="path96"
         style="fill:#000000;fill-opacity:1;fill-rule:nonzero;stroke:none"
         d="m 38.684,860.786 0,2.547 5.953,0 0,17.984 -5.282,-3.765 0,2.828 5.532,3.797 2.765,0 0,-20.844 5.688,0 0,-2.547 -14.656,0 z" /><g
         transform="matrix(1,0,0,-1,0,1067.2)"
         id="g98"><path
           id="path100"
           style="fill:none;stroke:#000000;stroke-width:6.20800018;stroke-linecap:butt;stroke-linejoin:miter;stroke-miterlimit:10;stroke-dasharray:none;stroke-opacity:1"
           d="m 1364.984,50.395 0,290.316" /></g><g
         transform="matrix(1,0,0,-1,0,1067.2)"
         id="g102"><path
           id="path104"
           style="fill:#000000;fill-opacity:1;fill-rule:nonzero;stroke:#000000;stroke-width:6.20800018;stroke-linecap:butt;stroke-linejoin:miter;stroke-miterlimit:10;stroke-dasharray:none;stroke-opacity:1"
           d="m 1364.984,31.77 9.313,18.625 -18.625,0 9.312,-18.625 z" /></g><g
         transform="matrix(1,0,0,-1,0,1067.2)"
         id="g106"><path
           id="path108"
           style="fill:#000000;fill-opacity:1;fill-rule:nonzero;stroke:#000000;stroke-width:6.20800018;stroke-linecap:butt;stroke-linejoin:miter;stroke-miterlimit:10;stroke-dasharray:none;stroke-opacity:1"
           d="m 1364.984,359.336 -9.312,-18.625 18.625,0 -9.313,18.625 z" /></g><path
         id="path110"
         style="fill:#000000;fill-opacity:1;fill-rule:nonzero;stroke:none"
         d="m 1396.27,860.786 -3.782,0 -4.047,14.859 c -0.125,0.414 -0.257,0.91 -0.39,1.485 -0.137,0.582 -0.262,1.132 -0.375,1.656 -0.137,0.601 -0.266,1.223 -0.391,1.859 -0.148,-0.648 -0.289,-1.273 -0.422,-1.875 -0.125,-0.531 -0.258,-1.086 -0.39,-1.656 -0.125,-0.562 -0.25,-1.055 -0.375,-1.469 l -4.078,-14.859 -3.782,0 -6.89,23.391 3.297,0 4.203,-14.86 c 0.187,-0.699 0.363,-1.39 0.531,-2.078 0.176,-0.687 0.328,-1.305 0.453,-1.844 0.133,-0.636 0.266,-1.242 0.391,-1.812 0.164,0.758 0.336,1.508 0.515,2.25 0.071,0.312 0.145,0.64 0.219,0.984 0.082,0.344 0.164,0.676 0.25,1 0.082,0.332 0.164,0.649 0.25,0.953 0.082,0.313 0.16,0.594 0.234,0.844 l 4.063,14.563 3.031,0 4.078,-14.563 c 0.063,-0.25 0.133,-0.531 0.219,-0.844 0.082,-0.304 0.164,-0.617 0.25,-0.937 0.082,-0.324 0.16,-0.656 0.234,-1 0.082,-0.344 0.161,-0.672 0.235,-0.985 0.176,-0.742 0.347,-1.496 0.515,-2.265 0.01,0 0.055,0.187 0.141,0.562 0.094,0.383 0.207,0.864 0.344,1.438 0.133,0.57 0.281,1.191 0.437,1.859 0.157,0.676 0.317,1.301 0.485,1.875 l 4.14,14.86 3.297,0 -6.89,-23.391 z" /><path
         id="path112"
         style="fill:#000000;fill-opacity:1;fill-rule:nonzero;stroke:none"
         d="m 1405.105,860.786 0,2.109 c 0.571,1.289 1.266,2.43 2.079,3.422 0.812,0.988 1.664,1.883 2.562,2.688 0.895,0.812 1.781,1.554 2.656,2.234 0.883,0.688 1.68,1.375 2.391,2.063 0.707,0.687 1.281,1.406 1.719,2.156 0.437,0.758 0.656,1.613 0.656,2.562 0,0.664 -0.102,1.25 -0.297,1.75 -0.199,0.5 -0.492,0.922 -0.875,1.266 -0.375,0.344 -0.828,0.598 -1.359,0.766 -0.524,0.175 -1.102,0.265 -1.735,0.265 -0.605,0 -1.172,-0.086 -1.703,-0.25 -0.523,-0.168 -0.984,-0.418 -1.39,-0.75 -0.407,-0.324 -0.743,-0.734 -1,-1.234 -0.262,-0.492 -0.434,-1.063 -0.516,-1.719 l -3.047,0.281 c 0.102,0.844 0.336,1.633 0.703,2.375 0.363,0.739 0.863,1.391 1.5,1.953 0.645,0.563 1.414,1 2.313,1.313 0.906,0.32 1.953,0.484 3.14,0.484 1.157,0 2.188,-0.14 3.094,-0.422 0.914,-0.273 1.688,-0.679 2.313,-1.218 0.625,-0.543 1.097,-1.215 1.421,-2.016 0.332,-0.793 0.5,-1.711 0.5,-2.75 0,-0.781 -0.14,-1.527 -0.421,-2.234 -0.282,-0.711 -0.657,-1.387 -1.125,-2.032 -0.469,-0.636 -1.016,-1.257 -1.641,-1.859 -0.617,-0.594 -1.262,-1.18 -1.938,-1.75 -0.679,-0.574 -1.359,-1.141 -2.046,-1.703 -0.68,-0.555 -1.321,-1.109 -1.922,-1.672 -0.606,-0.562 -1.149,-1.137 -1.625,-1.719 -0.481,-0.586 -0.852,-1.187 -1.11,-1.812 l 12.203,0 0,-2.547 -15.5,0 z" /><g
         transform="matrix(1,0,0,-1,0,1067.2)"
         id="g114"><path
           id="path116"
           style="fill:none;stroke:#000000;stroke-width:6.20800018;stroke-linecap:butt;stroke-linejoin:miter;stroke-miterlimit:10;stroke-dasharray:none;stroke-opacity:1"
           d="m 614.547,1018.113 197.195,0" /></g><g
         transform="matrix(1,0,0,-1,0,1067.2)"
         id="g118"><path
           id="path120"
           style="fill:#000000;fill-opacity:1;fill-rule:nonzero;stroke:#000000;stroke-width:6.20800018;stroke-linecap:butt;stroke-linejoin:miter;stroke-miterlimit:10;stroke-dasharray:none;stroke-opacity:1"
           d="m 595.922,1018.113 18.625,-9.312 0,18.625 -18.625,-9.313 z" /></g><g
         transform="matrix(1,0,0,-1,0,1067.2)"
         id="g122"><path
           id="path124"
           style="fill:#000000;fill-opacity:1;fill-rule:nonzero;stroke:#000000;stroke-width:6.20800018;stroke-linecap:butt;stroke-linejoin:miter;stroke-miterlimit:10;stroke-dasharray:none;stroke-opacity:1"
           d="m 830.367,1018.113 -18.625,9.313 0,-18.625 18.625,9.312 z" /></g><path
         id="path126"
         style="fill:#000000;fill-opacity:1;fill-rule:nonzero;stroke:none"
         d="m 712.613,11.841 -3.781,0 -4.047,14.859 c -0.125,0.414 -0.258,0.91 -0.39,1.484 -0.137,0.582 -0.262,1.133 -0.375,1.657 -0.137,0.601 -0.266,1.222 -0.391,1.859 -0.149,-0.648 -0.289,-1.273 -0.422,-1.875 -0.125,-0.531 -0.258,-1.086 -0.391,-1.656 -0.125,-0.563 -0.25,-1.055 -0.375,-1.469 l -4.078,-14.859 -3.781,0 -6.891,23.39 3.297,0 4.203,-14.859 c 0.188,-0.699 0.364,-1.391 0.532,-2.078 0.175,-0.688 0.328,-1.305 0.453,-1.844 0.133,-0.637 0.265,-1.242 0.39,-1.813 0.164,0.758 0.336,1.508 0.516,2.25 0.07,0.313 0.145,0.641 0.219,0.985 0.082,0.344 0.164,0.676 0.25,1 0.082,0.332 0.164,0.648 0.25,0.953 0.082,0.312 0.16,0.594 0.234,0.844 l 4.063,14.562 3.031,0 4.078,-14.562 c 0.063,-0.25 0.133,-0.532 0.219,-0.844 0.082,-0.305 0.164,-0.617 0.25,-0.938 0.082,-0.324 0.16,-0.656 0.234,-1 0.082,-0.343 0.16,-0.671 0.235,-0.984 0.175,-0.742 0.347,-1.496 0.515,-2.266 0.008,0 0.055,0.188 0.141,0.563 0.094,0.383 0.207,0.863 0.344,1.437 0.132,0.571 0.281,1.192 0.437,1.86 0.156,0.676 0.316,1.301 0.484,1.875 l 4.141,14.859 3.297,0 -6.891,-23.39 z" /><path
         id="path128"
         style="fill:#000000;fill-opacity:1;fill-rule:nonzero;stroke:none"
         d="m 737.168,18.294 c 0,-1.075 -0.18,-2.032 -0.531,-2.875 -0.344,-0.836 -0.856,-1.543 -1.532,-2.125 -0.667,-0.586 -1.496,-1.028 -2.484,-1.328 -0.992,-0.301 -2.121,-0.454 -3.391,-0.454 -1.449,0 -2.671,0.18 -3.671,0.532 -0.993,0.363 -1.809,0.843 -2.454,1.437 -0.636,0.594 -1.117,1.266 -1.437,2.016 -0.324,0.758 -0.531,1.547 -0.625,2.359 l 3.094,0.281 c 0.082,-0.625 0.242,-1.195 0.484,-1.703 0.238,-0.511 0.563,-0.949 0.969,-1.312 0.406,-0.367 0.906,-0.649 1.5,-0.844 0.601,-0.199 1.316,-0.297 2.14,-0.297 1.5,0 2.676,0.367 3.532,1.11 0.863,0.738 1.297,1.843 1.297,3.312 0,0.863 -0.196,1.555 -0.579,2.078 -0.375,0.531 -0.851,0.942 -1.421,1.235 -0.575,0.289 -1.196,0.484 -1.86,0.578 -0.668,0.101 -1.289,0.156 -1.859,0.156 l -1.688,0 0,2.594 1.625,0 c 0.563,0 1.145,0.054 1.75,0.172 0.614,0.113 1.172,0.32 1.672,0.625 0.508,0.3 0.926,0.711 1.25,1.234 0.332,0.519 0.5,1.187 0.5,2 0,1.25 -0.371,2.234 -1.109,2.953 -0.742,0.727 -1.836,1.094 -3.281,1.094 -1.313,0 -2.383,-0.34 -3.204,-1.016 -0.812,-0.668 -1.281,-1.617 -1.406,-2.844 l -3.015,0.219 c 0.125,1.031 0.406,1.926 0.843,2.688 0.446,0.769 1.008,1.406 1.688,1.906 0.687,0.508 1.469,0.883 2.344,1.125 0.875,0.25 1.8,0.375 2.781,0.375 1.312,0 2.437,-0.164 3.375,-0.484 0.937,-0.325 1.703,-0.766 2.297,-1.329 0.601,-0.562 1.047,-1.218 1.328,-1.968 0.281,-0.75 0.422,-1.555 0.422,-2.407 0,-0.687 -0.094,-1.335 -0.282,-1.937 -0.187,-0.594 -0.48,-1.133 -0.875,-1.609 -0.398,-0.469 -0.902,-0.875 -1.515,-1.219 -0.617,-0.344 -1.356,-0.606 -2.219,-0.781 l 0,-0.063 c 0.938,-0.105 1.754,-0.32 2.453,-0.641 0.696,-0.324 1.27,-0.73 1.719,-1.218 0.457,-0.492 0.801,-1.047 1.031,-1.672 0.227,-0.617 0.344,-1.266 0.344,-1.953 z" /></g></g></svg>