<?xml version="1.0" encoding="UTF-8" standalone="no"?>
<svg
   xmlns:dc="http://purl.org/dc/elements/1.1/"
   xmlns:cc="http://creativecommons.org/ns#"
   xmlns:rdf="http://www.w3.org/1999/02/22-rdf-syntax-ns#"
   xmlns:svg="http://www.w3.org/2000/svg"
   xmlns="http://www.w3.org/2000/svg"
   viewBox="0 0 627.92224 348.91766"
   height="348.91766"
   width="627.92224"
   xml:space="preserve"
   version="1.1"
   id="svg2"><metadata
     id="metadata8"><rdf:RDF><cc:Work
         rdf:about=""><dc:format>image/svg+xml</dc:format><dc:type
           rdf:resource="http://purl.org/dc/dcmitype/StillImage" /></cc:Work></rdf:RDF></metadata><defs
     id="defs6" /><g
     transform="matrix(1.25,0,0,-1.25,0,348.91766)"
     id="g10"><g
       id="g12"><path
         id="path14"
         style="fill:#000000;fill-opacity:1;fill-rule:nonzero;stroke:none"
         d="m 104.379,248.603 2.105,0 0,-2.105 -2.105,0 0,2.105 z" /><path
         id="path16"
         style="fill:#000000;fill-opacity:1;fill-rule:nonzero;stroke:none"
         d="m 104.379,195.962 2.105,0 0,-2.105 -2.105,0 0,2.105 z" /><g
         transform="matrix(1,0,0,-1,0,279.13412)"
         id="g18"><path
           id="path20"
           style="fill:none;stroke:#000000;stroke-width:2.10560012;stroke-linecap:round;stroke-linejoin:miter;stroke-miterlimit:10;stroke-dasharray:none;stroke-opacity:1"
           d="m 93.848,53.691 23.164,0" /></g><g
         transform="matrix(1,0,0,-1,0,279.13412)"
         id="g22"><path
           id="path24"
           style="fill:none;stroke:#000000;stroke-width:2.10560012;stroke-linecap:round;stroke-linejoin:miter;stroke-miterlimit:10;stroke-dasharray:none;stroke-opacity:1"
           d="m 93.848,62.113 23.164,0" /></g><g
         transform="matrix(1,0,0,-1,0,279.13412)"
         id="g26"><path
           id="path28"
           style="fill:none;stroke:#000000;stroke-width:2.10560012;stroke-linecap:square;stroke-linejoin:miter;stroke-miterlimit:10;stroke-dasharray:none;stroke-opacity:1"
           d="m 105.43,32.637 0,20.004" /></g><g
         transform="matrix(1,0,0,-1,0,279.13412)"
         id="g30"><path
           id="path32"
           style="fill:none;stroke:#000000;stroke-width:2.10560012;stroke-linecap:square;stroke-linejoin:miter;stroke-miterlimit:10;stroke-dasharray:none;stroke-opacity:1"
           d="m 105.43,63.168 0,20.004" /></g><path
         id="path34"
         style="fill:#000000;fill-opacity:1;fill-rule:nonzero;stroke:none"
         d="m 131.18,216.255 c 0.351,0 0.656,0.047 0.906,0.141 0.258,0.101 0.484,0.234 0.672,0.39 0.187,0.165 0.344,0.348 0.469,0.547 0.125,0.207 0.226,0.414 0.312,0.625 l 1.625,-0.609 c -0.125,-0.324 -0.297,-0.641 -0.516,-0.953 -0.21,-0.313 -0.476,-0.59 -0.796,-0.828 -0.313,-0.231 -0.688,-0.418 -1.125,-0.563 -0.438,-0.144 -0.954,-0.219 -1.547,-0.219 -0.774,0 -1.446,0.118 -2.016,0.344 -0.562,0.227 -1.031,0.547 -1.406,0.953 -0.367,0.414 -0.641,0.907 -0.828,1.469 -0.18,0.57 -0.266,1.195 -0.266,1.875 0,0.695 0.086,1.328 0.266,1.891 0.187,0.562 0.461,1.039 0.828,1.437 0.363,0.395 0.82,0.696 1.375,0.906 0.551,0.219 1.207,0.329 1.969,0.329 0.582,0 1.093,-0.063 1.531,-0.188 0.437,-0.125 0.812,-0.297 1.125,-0.516 0.32,-0.218 0.586,-0.48 0.797,-0.781 0.207,-0.304 0.375,-0.637 0.5,-1 l -1.657,-0.453 c -0.062,0.188 -0.156,0.367 -0.281,0.547 -0.117,0.176 -0.265,0.332 -0.453,0.469 -0.187,0.133 -0.414,0.242 -0.672,0.328 -0.25,0.082 -0.539,0.125 -0.859,0.125 -0.449,0 -0.84,-0.074 -1.172,-0.219 -0.324,-0.148 -0.59,-0.355 -0.797,-0.625 -0.211,-0.273 -0.367,-0.601 -0.469,-0.984 -0.093,-0.375 -0.14,-0.797 -0.14,-1.266 0,-0.469 0.047,-0.898 0.14,-1.281 0.102,-0.387 0.258,-0.719 0.469,-1 0.219,-0.281 0.488,-0.5 0.813,-0.656 0.332,-0.157 0.734,-0.235 1.203,-0.235 z" /><path
         id="path36"
         style="fill:#000000;fill-opacity:1;fill-rule:nonzero;stroke:none"
         d="m 51.738,185.435 2.105,0 0,-2.105 -2.105,0 0,2.105 z" /><g
         transform="matrix(0,1,1,0,0,279.13412)"
         id="g38"><path
           id="path40"
           style="fill:#ffffff;fill-opacity:1;fill-rule:nonzero;stroke:#000000;stroke-width:2.10560012;stroke-linecap:butt;stroke-linejoin:miter;stroke-miterlimit:4;stroke-dasharray:none;stroke-opacity:1"
           d="m -90.398,42.262 c 0,2.406 -1.95,4.355 -4.356,4.355 -2.402,0 -4.351,-1.949 -4.351,-4.355 0,-2.403 1.949,-4.352 4.351,-4.352 2.406,0 4.356,1.949 4.356,4.352 z" /></g><g
         transform="matrix(0,1,1,0,0,279.13412)"
         id="g42"><path
           id="path44"
           style="fill:none;stroke:#000000;stroke-width:2.10560012;stroke-linecap:square;stroke-linejoin:miter;stroke-miterlimit:10;stroke-dasharray:none;stroke-opacity:1"
           d="m -94.754,47.527 0,4.211" /></g><path
         id="path46"
         style="fill:#000000;fill-opacity:1;fill-rule:nonzero;stroke:none"
         d="m 51.738,259.13 2.105,0 0,-2.105 -2.105,0 0,2.105 z" /><g
         transform="matrix(0,1,1,0,0,279.13412)"
         id="g48"><path
           id="path50"
           style="fill:#ffffff;fill-opacity:1;fill-rule:nonzero;stroke:#000000;stroke-width:2.10560012;stroke-linecap:butt;stroke-linejoin:miter;stroke-miterlimit:4;stroke-dasharray:none;stroke-opacity:1"
           d="m -16.703,42.262 c 0,2.406 -1.949,4.355 -4.352,4.355 -2.406,0 -4.355,-1.949 -4.355,-4.355 0,-2.403 1.949,-4.352 4.355,-4.352 2.403,0 4.352,1.949 4.352,4.352 z" /></g><g
         transform="matrix(0,1,1,0,0,279.13412)"
         id="g52"><path
           id="path54"
           style="fill:none;stroke:#000000;stroke-width:2.10560012;stroke-linecap:square;stroke-linejoin:miter;stroke-miterlimit:10;stroke-dasharray:none;stroke-opacity:1"
           d="m -21.055,47.527 0,4.211" /></g><g
         transform="matrix(1,0,0,-1,0,279.13412)"
         id="g56"><path
           id="path58"
           style="fill:none;stroke:#000000;stroke-width:2.10560012;stroke-linecap:butt;stroke-linejoin:miter;stroke-miterlimit:10;stroke-dasharray:none;stroke-opacity:1"
           d="m 52.789,21.055 52.641,0 0,10.531" /></g><g
         transform="matrix(1,0,0,-1,0,279.13412)"
         id="g60"><path
           id="path62"
           style="fill:none;stroke:#000000;stroke-width:2.10560012;stroke-linecap:butt;stroke-linejoin:miter;stroke-miterlimit:10;stroke-dasharray:none;stroke-opacity:1"
           d="m 52.789,94.754 52.641,0 0,-10.531" /></g><path
         id="path64"
         style="fill:#000000;fill-opacity:1;fill-rule:nonzero;stroke:none"
         d="m 104.379,16.986 2.105,0 0,-2.105 -2.105,0 0,2.105 z" /><path
         id="path66"
         style="fill:#000000;fill-opacity:1;fill-rule:nonzero;stroke:none"
         d="m 104.379,80.154 2.105,0 0,-2.105 -2.105,0 0,2.105 z" /><g
         transform="matrix(-1,0,0,1,0,279.13412)"
         id="g68"><path
           id="path70"
           style="fill:none;stroke:#000000;stroke-width:2.10560012;stroke-linecap:round;stroke-linejoin:round;stroke-miterlimit:10;stroke-dasharray:none;stroke-opacity:1"
           d="m -107.395,-242.145 c -3.187,0.008 -5.781,-2.339 -5.789,-5.25 -0.007,-2.91 2.571,-5.269 5.762,-5.277 l 0.016,0" /></g><g
         transform="matrix(-1,0,0,1,0,279.13412)"
         id="g72"><path
           id="path74"
           style="fill:none;stroke:#000000;stroke-width:2.10560012;stroke-linecap:round;stroke-linejoin:round;stroke-miterlimit:10;stroke-dasharray:none;stroke-opacity:1"
           d="m -107.535,-252.672 2.105,0" /></g><g
         transform="matrix(-1,0,0,1,0,279.13412)"
         id="g76"><path
           id="path78"
           style="fill:none;stroke:#000000;stroke-width:2.10560012;stroke-linecap:round;stroke-linejoin:round;stroke-miterlimit:10;stroke-dasharray:none;stroke-opacity:1"
           d="m -107.535,-242.145 2.105,0" /></g><g
         transform="matrix(-1,0,0,1,0,279.13412)"
         id="g80"><path
           id="path82"
           style="fill:none;stroke:#000000;stroke-width:2.10560012;stroke-linecap:round;stroke-linejoin:round;stroke-miterlimit:10;stroke-dasharray:none;stroke-opacity:1"
           d="m -107.395,-231.617 c -3.187,0.008 -5.781,-2.336 -5.789,-5.246 -0.007,-2.91 2.571,-5.274 5.762,-5.282 l 0.016,0" /></g><g
         transform="matrix(-1,0,0,1,0,279.13412)"
         id="g84"><path
           id="path86"
           style="fill:none;stroke:#000000;stroke-width:2.10560012;stroke-linecap:round;stroke-linejoin:round;stroke-miterlimit:10;stroke-dasharray:none;stroke-opacity:1"
           d="m -107.535,-242.145 2.105,0" /></g><g
         transform="matrix(-1,0,0,1,0,279.13412)"
         id="g88"><path
           id="path90"
           style="fill:none;stroke:#000000;stroke-width:2.10560012;stroke-linecap:round;stroke-linejoin:round;stroke-miterlimit:10;stroke-dasharray:none;stroke-opacity:1"
           d="m -107.535,-231.617 2.105,0" /></g><g
         transform="matrix(-1,0,0,1,0,279.13412)"
         id="g92"><path
           id="path94"
           style="fill:none;stroke:#000000;stroke-width:2.10560012;stroke-linecap:round;stroke-linejoin:round;stroke-miterlimit:10;stroke-dasharray:none;stroke-opacity:1"
           d="m -107.395,-221.09 c -3.187,0.008 -5.781,-2.336 -5.789,-5.246 -0.007,-2.91 2.571,-5.273 5.762,-5.281 l 0.016,0" /></g><g
         transform="matrix(-1,0,0,1,0,279.13412)"
         id="g96"><path
           id="path98"
           style="fill:none;stroke:#000000;stroke-width:2.10560012;stroke-linecap:round;stroke-linejoin:round;stroke-miterlimit:10;stroke-dasharray:none;stroke-opacity:1"
           d="m -107.535,-231.617 2.105,0" /></g><g
         transform="matrix(-1,0,0,1,0,279.13412)"
         id="g100"><path
           id="path102"
           style="fill:none;stroke:#000000;stroke-width:2.10560012;stroke-linecap:round;stroke-linejoin:round;stroke-miterlimit:10;stroke-dasharray:none;stroke-opacity:1"
           d="m -107.535,-221.09 2.105,0" /></g><g
         transform="matrix(-1,0,0,1,0,279.13412)"
         id="g104"><path
           id="path106"
           style="fill:none;stroke:#000000;stroke-width:2.10560012;stroke-linecap:round;stroke-linejoin:round;stroke-miterlimit:10;stroke-dasharray:none;stroke-opacity:1"
           d="m -107.395,-210.559 c -3.187,0.008 -5.781,-2.339 -5.789,-5.25 -0.007,-2.91 2.571,-5.273 5.762,-5.281 l 0.016,0" /></g><g
         transform="matrix(-1,0,0,1,0,279.13412)"
         id="g108"><path
           id="path110"
           style="fill:none;stroke:#000000;stroke-width:2.10560012;stroke-linecap:round;stroke-linejoin:round;stroke-miterlimit:10;stroke-dasharray:none;stroke-opacity:1"
           d="m -107.535,-221.09 2.105,0" /></g><g
         transform="matrix(-1,0,0,1,0,279.13412)"
         id="g112"><path
           id="path114"
           style="fill:none;stroke:#000000;stroke-width:2.10560012;stroke-linecap:round;stroke-linejoin:round;stroke-miterlimit:10;stroke-dasharray:none;stroke-opacity:1"
           d="m -107.535,-210.559 2.105,0" /></g><g
         transform="matrix(-1,0,0,1,0,279.13412)"
         id="g116"><path
           id="path118"
           style="fill:none;stroke:#000000;stroke-width:2.10560012;stroke-linecap:square;stroke-linejoin:miter;stroke-miterlimit:10;stroke-dasharray:none;stroke-opacity:1"
           d="m -105.43,-262.148 0,8.421" /></g><g
         transform="matrix(-1,0,0,1,0,279.13412)"
         id="g120"><path
           id="path122"
           style="fill:none;stroke:#000000;stroke-width:2.10560012;stroke-linecap:square;stroke-linejoin:miter;stroke-miterlimit:10;stroke-dasharray:none;stroke-opacity:1"
           d="m -105.43,-209.508 0,8.422" /></g><path
         id="path124"
         style="fill:#000000;fill-opacity:1;fill-rule:nonzero;stroke:none"
         d="m 126.656,46.466 0,8.938 1.875,0 0,-7.485 4.797,0 0,-1.453 -6.672,0 z" /><path
         id="path126"
         style="fill:#000000;fill-opacity:1;fill-rule:nonzero;stroke:none"
         d="m 51.738,90.681 2.105,0 0,-2.105 -2.105,0 0,2.105 z" /><g
         transform="matrix(0,1,1,0,0,279.13412)"
         id="g128"><path
           id="path130"
           style="fill:#ffffff;fill-opacity:1;fill-rule:nonzero;stroke:#000000;stroke-width:2.10560012;stroke-linecap:butt;stroke-linejoin:miter;stroke-miterlimit:4;stroke-dasharray:none;stroke-opacity:1"
           d="m -185.152,42.262 c 0,2.406 -1.95,4.355 -4.352,4.355 -2.406,0 -4.351,-1.949 -4.351,-4.355 0,-2.403 1.945,-4.352 4.351,-4.352 2.402,0 4.352,1.949 4.352,4.352 z" /></g><g
         transform="matrix(0,1,1,0,0,279.13412)"
         id="g132"><path
           id="path134"
           style="fill:none;stroke:#000000;stroke-width:2.10560012;stroke-linecap:square;stroke-linejoin:miter;stroke-miterlimit:10;stroke-dasharray:none;stroke-opacity:1"
           d="m -189.504,47.527 0,4.211" /></g><path
         id="path136"
         style="fill:#000000;fill-opacity:1;fill-rule:nonzero;stroke:none"
         d="m 51.738,6.458 2.105,0 0,-2.105 -2.105,0 0,2.105 z" /><g
         transform="matrix(0,1,1,0,0,279.13412)"
         id="g138"><path
           id="path140"
           style="fill:#ffffff;fill-opacity:1;fill-rule:nonzero;stroke:#000000;stroke-width:2.10560012;stroke-linecap:butt;stroke-linejoin:miter;stroke-miterlimit:4;stroke-dasharray:none;stroke-opacity:1"
           d="m -269.375,42.262 c 0,2.406 -1.949,4.355 -4.352,4.355 -2.406,0 -4.355,-1.949 -4.355,-4.355 0,-2.403 1.949,-4.352 4.355,-4.352 2.403,0 4.352,1.949 4.352,4.352 z" /></g><g
         transform="matrix(0,1,1,0,0,279.13412)"
         id="g142"><path
           id="path144"
           style="fill:none;stroke:#000000;stroke-width:2.10560012;stroke-linecap:square;stroke-linejoin:miter;stroke-miterlimit:10;stroke-dasharray:none;stroke-opacity:1"
           d="m -273.727,47.527 0,4.211" /></g><g
         transform="matrix(1,0,0,-1,0,279.13412)"
         id="g146"><path
           id="path148"
           style="fill:none;stroke:#000000;stroke-width:2.10560012;stroke-linecap:butt;stroke-linejoin:miter;stroke-miterlimit:10;stroke-dasharray:none;stroke-opacity:1"
           d="m 105.43,200.031 0,-10.527 -52.641,0" /></g><g
         transform="matrix(1,0,0,-1,0,279.13412)"
         id="g150"><path
           id="path152"
           style="fill:none;stroke:#000000;stroke-width:2.10560012;stroke-linecap:butt;stroke-linejoin:miter;stroke-miterlimit:10;stroke-dasharray:none;stroke-opacity:1"
           d="m 105.43,263.199 0,10.528 -52.641,0" /></g><path
         id="path154"
         style="fill:#000000;fill-opacity:1;fill-rule:nonzero;stroke:none"
         d="m 335.992,90.681 2.105,0 0,-2.105 -2.105,0 0,2.105 z" /><g
         transform="matrix(0,1,1,0,0,279.13412)"
         id="g156"><path
           id="path158"
           style="fill:#ffffff;fill-opacity:1;fill-rule:nonzero;stroke:#000000;stroke-width:2.10560012;stroke-linecap:butt;stroke-linejoin:miter;stroke-miterlimit:4;stroke-dasharray:none;stroke-opacity:1"
           d="m -185.152,326.52 c 0,2.402 -1.95,4.351 -4.352,4.351 -2.406,0 -4.351,-1.949 -4.351,-4.351 0,-2.407 1.945,-4.356 4.351,-4.356 2.402,0 4.352,1.949 4.352,4.356 z" /></g><g
         transform="matrix(0,1,1,0,0,279.13412)"
         id="g160"><path
           id="path162"
           style="fill:none;stroke:#000000;stroke-width:2.10560012;stroke-linecap:square;stroke-linejoin:miter;stroke-miterlimit:10;stroke-dasharray:none;stroke-opacity:1"
           d="m -189.504,331.781 0,4.211" /></g><path
         id="path164"
         style="fill:#000000;fill-opacity:1;fill-rule:nonzero;stroke:none"
         d="m 385.828,99.107 -1.859,0 -0.875,2.937 c -0.012,0.051 -0.032,0.125 -0.063,0.219 -0.023,0.094 -0.054,0.195 -0.093,0.313 -0.032,0.125 -0.071,0.253 -0.11,0.39 -0.031,0.133 -0.062,0.258 -0.094,0.375 -0.031,0.125 -0.058,0.238 -0.078,0.344 -0.023,0.101 -0.039,0.18 -0.047,0.234 -0.031,-0.117 -0.078,-0.265 -0.14,-0.453 -0.055,-0.18 -0.117,-0.371 -0.188,-0.578 -0.062,-0.199 -0.133,-0.398 -0.203,-0.594 -0.062,-0.187 -0.125,-0.343 -0.187,-0.468 l -1.157,-2.719 -1.875,0 3,6.39 -0.156,0.454 c -0.117,0.289 -0.219,0.535 -0.312,0.734 -0.094,0.207 -0.188,0.375 -0.282,0.5 -0.093,0.133 -0.195,0.226 -0.297,0.281 -0.093,0.063 -0.21,0.094 -0.343,0.094 -0.086,0 -0.184,-0.012 -0.297,-0.031 -0.117,-0.024 -0.215,-0.055 -0.297,-0.094 l -0.297,1.234 c 0.125,0.051 0.289,0.094 0.5,0.125 0.207,0.039 0.438,0.063 0.688,0.063 0.332,0 0.625,-0.047 0.875,-0.141 0.25,-0.086 0.468,-0.226 0.656,-0.422 0.187,-0.187 0.351,-0.433 0.5,-0.734 0.156,-0.305 0.301,-0.664 0.437,-1.078 l 2.594,-7.375 z" /><path
         id="path166"
         style="fill:#000000;fill-opacity:1;fill-rule:nonzero;stroke:none"
         d="m 385.953,98.841 1.844,9.688 1.515,0 -1.812,-9.688 -1.547,0 z" /><path
         id="path168"
         style="fill:#000000;fill-opacity:1;fill-rule:nonzero;stroke:none"
         d="m 396.16,101.622 c 0,-0.386 -0.062,-0.742 -0.187,-1.062 -0.125,-0.324 -0.325,-0.606 -0.594,-0.844 -0.262,-0.23 -0.594,-0.414 -1,-0.547 -0.399,-0.125 -0.871,-0.187 -1.422,-0.187 -0.555,0 -1.031,0.062 -1.437,0.187 -0.399,0.133 -0.731,0.317 -1,0.547 -0.262,0.238 -0.461,0.52 -0.594,0.844 -0.125,0.32 -0.188,0.672 -0.188,1.047 0,0.332 0.051,0.625 0.157,0.875 0.101,0.25 0.238,0.461 0.406,0.64 0.164,0.188 0.359,0.332 0.578,0.438 0.226,0.113 0.457,0.187 0.687,0.219 l 0,0.031 c -0.25,0.051 -0.476,0.141 -0.671,0.266 -0.2,0.132 -0.372,0.289 -0.516,0.468 -0.137,0.176 -0.242,0.375 -0.313,0.594 -0.074,0.219 -0.109,0.441 -0.109,0.672 0,0.363 0.063,0.691 0.188,0.984 0.132,0.289 0.328,0.535 0.578,0.735 0.25,0.207 0.554,0.367 0.922,0.484 0.375,0.113 0.8,0.172 1.281,0.172 0.519,0 0.969,-0.059 1.344,-0.172 0.382,-0.117 0.695,-0.281 0.937,-0.5 0.25,-0.211 0.43,-0.461 0.547,-0.75 0.125,-0.293 0.187,-0.609 0.187,-0.953 0,-0.242 -0.039,-0.469 -0.109,-0.688 -0.074,-0.218 -0.184,-0.418 -0.328,-0.593 -0.137,-0.18 -0.309,-0.328 -0.516,-0.453 -0.199,-0.118 -0.422,-0.2 -0.672,-0.25 l 0,-0.032 c 0.258,-0.043 0.504,-0.121 0.735,-0.234 0.226,-0.106 0.422,-0.25 0.578,-0.438 0.164,-0.179 0.297,-0.39 0.391,-0.64 0.093,-0.25 0.14,-0.539 0.14,-0.86 z m -2.047,4.094 c 0,0.176 -0.023,0.336 -0.062,0.485 -0.043,0.144 -0.11,0.269 -0.203,0.375 -0.086,0.113 -0.203,0.203 -0.36,0.265 -0.148,0.063 -0.336,0.094 -0.562,0.094 -0.219,0 -0.403,-0.031 -0.547,-0.094 -0.149,-0.062 -0.266,-0.152 -0.359,-0.265 -0.086,-0.106 -0.149,-0.231 -0.188,-0.375 -0.043,-0.149 -0.062,-0.309 -0.062,-0.485 0,-0.168 0.015,-0.328 0.046,-0.484 0.039,-0.149 0.102,-0.281 0.188,-0.406 0.082,-0.118 0.195,-0.215 0.344,-0.297 0.156,-0.075 0.351,-0.11 0.593,-0.11 0.258,0 0.461,0.035 0.61,0.11 0.156,0.082 0.273,0.187 0.359,0.312 0.082,0.125 0.133,0.258 0.156,0.406 0.032,0.157 0.047,0.313 0.047,0.469 z m 0.203,-3.937 c 0,0.175 -0.023,0.347 -0.062,0.515 -0.043,0.176 -0.117,0.328 -0.219,0.453 -0.105,0.125 -0.25,0.223 -0.437,0.297 -0.18,0.082 -0.403,0.125 -0.672,0.125 -0.262,0 -0.481,-0.043 -0.656,-0.125 -0.168,-0.074 -0.305,-0.179 -0.407,-0.312 -0.105,-0.125 -0.179,-0.278 -0.218,-0.453 -0.043,-0.168 -0.063,-0.344 -0.063,-0.532 0,-0.23 0.02,-0.437 0.063,-0.625 0.039,-0.179 0.113,-0.336 0.218,-0.468 0.114,-0.137 0.258,-0.243 0.438,-0.313 0.176,-0.074 0.398,-0.109 0.672,-0.109 0.257,0 0.476,0.035 0.656,0.109 0.176,0.082 0.312,0.192 0.406,0.328 0.102,0.133 0.176,0.297 0.219,0.485 0.039,0.187 0.062,0.394 0.062,0.625 z" /><path
         id="path170"
         style="fill:#000000;fill-opacity:1;fill-rule:nonzero;stroke:none"
         d="m 335.992,6.458 2.105,0 0,-2.105 -2.105,0 0,2.105 z" /><g
         transform="matrix(0,1,1,0,0,279.13412)"
         id="g172"><path
           id="path174"
           style="fill:#ffffff;fill-opacity:1;fill-rule:nonzero;stroke:#000000;stroke-width:2.10560012;stroke-linecap:butt;stroke-linejoin:miter;stroke-miterlimit:4;stroke-dasharray:none;stroke-opacity:1"
           d="m -269.375,326.52 c 0,2.402 -1.949,4.351 -4.352,4.351 -2.406,0 -4.355,-1.949 -4.355,-4.351 0,-2.407 1.949,-4.356 4.355,-4.356 2.403,0 4.352,1.949 4.352,4.356 z" /></g><g
         transform="matrix(0,1,1,0,0,279.13412)"
         id="g176"><path
           id="path178"
           style="fill:none;stroke:#000000;stroke-width:2.10560012;stroke-linecap:square;stroke-linejoin:miter;stroke-miterlimit:10;stroke-dasharray:none;stroke-opacity:1"
           d="m -273.727,331.781 0,4.211" /></g><path
         id="path180"
         style="fill:#000000;fill-opacity:1;fill-rule:nonzero;stroke:none"
         d="m 384.953,46.993 -7.172,0 0,1.329 4.828,6.156 -4.343,0 0,1.453 6.437,0 0,-1.297 -4.844,-6.172 5.094,0 0,-1.469 z" /><path
         id="path182"
         style="fill:#000000;fill-opacity:1;fill-rule:nonzero;stroke:none"
         d="m 388.879,46.868 c -0.543,0 -1.016,0.086 -1.422,0.25 -0.406,0.165 -0.746,0.407 -1.016,0.719 -0.273,0.313 -0.476,0.68 -0.609,1.11 -0.137,0.437 -0.203,0.914 -0.203,1.437 0,0.57 0.07,1.082 0.219,1.531 0.144,0.446 0.359,0.821 0.64,1.125 0.282,0.313 0.625,0.547 1.032,0.703 0.406,0.165 0.867,0.25 1.39,0.25 0.445,0 0.844,-0.062 1.188,-0.187 0.343,-0.117 0.64,-0.277 0.89,-0.484 0.25,-0.2 0.446,-0.438 0.594,-0.719 0.156,-0.281 0.266,-0.586 0.328,-0.906 l -1.797,-0.094 c -0.054,0.351 -0.183,0.633 -0.39,0.844 -0.2,0.207 -0.481,0.312 -0.844,0.312 -0.481,0 -0.836,-0.199 -1.063,-0.594 -0.218,-0.386 -0.328,-0.953 -0.328,-1.703 0,-1.586 0.469,-2.375 1.407,-2.375 0.343,0 0.628,0.102 0.859,0.313 0.226,0.218 0.367,0.539 0.422,0.968 l 1.781,-0.093 c -0.043,-0.313 -0.141,-0.617 -0.297,-0.907 -0.148,-0.292 -0.351,-0.554 -0.609,-0.781 -0.25,-0.219 -0.559,-0.398 -0.922,-0.531 -0.367,-0.125 -0.781,-0.188 -1.25,-0.188 z" /><path
         id="path184"
         style="fill:#000000;fill-opacity:1;fill-rule:nonzero;stroke:none"
         d="m 392.691,52.337 0,1.422 6.516,0 0,-1.422 -6.516,0 z m 0,-3.5 0,1.406 6.516,0 0,-1.406 -6.516,0 z" /><path
         id="path186"
         style="fill:#000000;fill-opacity:1;fill-rule:nonzero;stroke:none"
         d="m 400.398,46.993 0,8.938 1.875,0 0,-7.484 4.797,0 0,-1.454 -6.672,0 z" /><g
         transform="matrix(1,0,0,-1,0,279.13412)"
         id="g188"><path
           id="path190"
           style="fill:none;stroke:#000000;stroke-width:2.10560012;stroke-linecap:butt;stroke-linejoin:miter;stroke-miterlimit:10;stroke-dasharray:none;stroke-opacity:1"
           d="m 473.91,263.199 0,-73.695 -136.863,0" /></g><g
         transform="matrix(1,0,0,-1,0,279.13412)"
         id="g192"><path
           id="path194"
           style="fill:none;stroke:#000000;stroke-width:2.10560012;stroke-linecap:butt;stroke-linejoin:miter;stroke-miterlimit:10;stroke-dasharray:none;stroke-opacity:1"
           d="m 473.91,200.031 0,73.696 -136.863,0" /></g><path
         id="path196"
         style="fill:#000000;fill-opacity:1;fill-rule:nonzero;stroke:none"
         d="m 472.855,80.154 2.109,0 0,-2.105 -2.109,0 0,2.105 z" /><g
         transform="matrix(1,0,0,-1,0,279.13412)"
         id="g198"><path
           id="path200"
           style="fill:#ffffff;fill-opacity:1;fill-rule:nonzero;stroke:#000000;stroke-width:2.10560012;stroke-linecap:butt;stroke-linejoin:miter;stroke-miterlimit:4;stroke-dasharray:none;stroke-opacity:1"
           d="m 478.262,189.504 c 0,2.406 -1.95,4.351 -4.352,4.351 -2.406,0 -4.351,-1.945 -4.351,-4.351 0,-2.402 1.945,-4.352 4.351,-4.352 2.402,0 4.352,1.95 4.352,4.352 z" /></g><g
         transform="matrix(1,0,0,-1,0,279.13412)"
         id="g202"><path
           id="path204"
           style="fill:none;stroke:#000000;stroke-width:2.10560012;stroke-linecap:square;stroke-linejoin:miter;stroke-miterlimit:10;stroke-dasharray:none;stroke-opacity:1"
           d="m 473.91,194.77 0,4.21" /></g><path
         id="path206"
         style="fill:#000000;fill-opacity:1;fill-rule:nonzero;stroke:none"
         d="m 489.305,47.81 c 0.351,0 0.656,0.047 0.906,0.141 0.258,0.101 0.484,0.234 0.672,0.39 0.187,0.164 0.344,0.348 0.469,0.547 0.125,0.207 0.226,0.414 0.312,0.625 l 1.625,-0.609 c -0.125,-0.325 -0.297,-0.641 -0.516,-0.953 -0.211,-0.313 -0.476,-0.59 -0.796,-0.829 -0.313,-0.23 -0.688,-0.418 -1.125,-0.562 -0.438,-0.145 -0.954,-0.219 -1.547,-0.219 -0.774,0 -1.446,0.117 -2.016,0.344 -0.562,0.226 -1.031,0.547 -1.406,0.953 -0.367,0.414 -0.641,0.906 -0.828,1.469 -0.18,0.57 -0.266,1.195 -0.266,1.875 0,0.695 0.086,1.328 0.266,1.89 0.187,0.563 0.461,1.039 0.828,1.438 0.363,0.394 0.82,0.695 1.375,0.906 0.551,0.219 1.207,0.328 1.969,0.328 0.582,0 1.093,-0.062 1.531,-0.187 0.437,-0.125 0.812,-0.297 1.125,-0.516 0.32,-0.219 0.586,-0.48 0.797,-0.781 0.207,-0.305 0.375,-0.637 0.5,-1 l -1.657,-0.453 c -0.062,0.187 -0.156,0.367 -0.281,0.547 -0.117,0.175 -0.265,0.332 -0.453,0.468 -0.187,0.133 -0.414,0.243 -0.672,0.329 -0.25,0.082 -0.539,0.125 -0.859,0.125 -0.449,0 -0.84,-0.075 -1.172,-0.219 -0.324,-0.149 -0.59,-0.356 -0.797,-0.625 -0.211,-0.274 -0.367,-0.602 -0.469,-0.985 -0.093,-0.375 -0.14,-0.796 -0.14,-1.265 0,-0.469 0.047,-0.899 0.14,-1.281 0.102,-0.387 0.258,-0.719 0.469,-1 0.219,-0.282 0.488,-0.5 0.813,-0.657 0.332,-0.156 0.734,-0.234 1.203,-0.234 z" /><path
         id="path208"
         style="fill:#000000;fill-opacity:1;fill-rule:nonzero;stroke:none"
         d="m 498.434,47.81 c 0.351,0 0.656,0.047 0.906,0.141 0.258,0.101 0.484,0.234 0.672,0.39 0.187,0.164 0.343,0.348 0.468,0.547 0.125,0.207 0.227,0.414 0.313,0.625 l 1.625,-0.609 c -0.125,-0.325 -0.297,-0.641 -0.516,-0.953 -0.211,-0.313 -0.476,-0.59 -0.797,-0.829 -0.312,-0.23 -0.687,-0.418 -1.125,-0.562 -0.437,-0.145 -0.953,-0.219 -1.546,-0.219 -0.774,0 -1.446,0.117 -2.016,0.344 -0.563,0.226 -1.031,0.547 -1.406,0.953 -0.367,0.414 -0.641,0.906 -0.828,1.469 -0.18,0.57 -0.266,1.195 -0.266,1.875 0,0.695 0.086,1.328 0.266,1.89 0.187,0.563 0.461,1.039 0.828,1.438 0.363,0.394 0.82,0.695 1.375,0.906 0.551,0.219 1.207,0.328 1.968,0.328 0.583,0 1.094,-0.062 1.532,-0.187 0.437,-0.125 0.812,-0.297 1.125,-0.516 0.32,-0.219 0.586,-0.48 0.797,-0.781 0.207,-0.305 0.375,-0.637 0.5,-1 l -1.657,-0.453 c -0.062,0.187 -0.156,0.367 -0.281,0.547 -0.117,0.175 -0.266,0.332 -0.453,0.468 -0.188,0.133 -0.414,0.243 -0.672,0.329 -0.25,0.082 -0.539,0.125 -0.859,0.125 -0.449,0 -0.84,-0.075 -1.172,-0.219 -0.324,-0.149 -0.59,-0.356 -0.797,-0.625 -0.211,-0.274 -0.367,-0.602 -0.469,-0.985 -0.094,-0.375 -0.14,-0.796 -0.14,-1.265 0,-0.469 0.046,-0.899 0.14,-1.281 0.102,-0.387 0.258,-0.719 0.469,-1 0.219,-0.282 0.488,-0.5 0.812,-0.657 0.332,-0.156 0.735,-0.234 1.204,-0.234 z" /><path
         id="path210"
         style="fill:#000000;fill-opacity:1;fill-rule:nonzero;stroke:none"
         d="m 472.855,16.986 2.109,0 0,-2.105 -2.109,0 0,2.105 z" /><g
         transform="matrix(-1,0,0,1,0,279.13412)"
         id="g212"><path
           id="path214"
           style="fill:#ffffff;fill-opacity:1;fill-rule:nonzero;stroke:#000000;stroke-width:2.10560012;stroke-linecap:butt;stroke-linejoin:miter;stroke-miterlimit:4;stroke-dasharray:none;stroke-opacity:1"
           d="m -469.559,-273.727 c 0,2.403 -1.945,4.352 -4.351,4.352 -2.402,0 -4.352,-1.949 -4.352,-4.352 0,-2.406 1.95,-4.355 4.352,-4.355 2.406,0 4.351,1.949 4.351,4.355 z" /></g><g
         transform="matrix(-1,0,0,1,0,279.13412)"
         id="g216"><path
           id="path218"
           style="fill:none;stroke:#000000;stroke-width:2.10560012;stroke-linecap:square;stroke-linejoin:miter;stroke-miterlimit:10;stroke-dasharray:none;stroke-opacity:1"
           d="m -473.91,-268.465 0,4.211" /></g><path
         id="path220"
         style="fill:#000000;fill-opacity:1;fill-rule:nonzero;stroke:none"
         d="m 335.992,259.13 2.105,0 0,-2.105 -2.105,0 0,2.105 z" /><g
         transform="matrix(0,1,1,0,0,279.13412)"
         id="g222"><path
           id="path224"
           style="fill:#ffffff;fill-opacity:1;fill-rule:nonzero;stroke:#000000;stroke-width:2.10560012;stroke-linecap:butt;stroke-linejoin:miter;stroke-miterlimit:4;stroke-dasharray:none;stroke-opacity:1"
           d="m -16.703,326.52 c 0,2.402 -1.949,4.351 -4.352,4.351 -2.406,0 -4.355,-1.949 -4.355,-4.351 0,-2.407 1.949,-4.356 4.355,-4.356 2.403,0 4.352,1.949 4.352,4.356 z" /></g><g
         transform="matrix(0,1,1,0,0,279.13412)"
         id="g226"><path
           id="path228"
           style="fill:none;stroke:#000000;stroke-width:2.10560012;stroke-linecap:square;stroke-linejoin:miter;stroke-miterlimit:10;stroke-dasharray:none;stroke-opacity:1"
           d="m -21.055,331.781 0,4.211" /></g><path
         id="path230"
         style="fill:#000000;fill-opacity:1;fill-rule:nonzero;stroke:none"
         d="m 396.355,267.552 -1.859,0 -0.875,2.938 c -0.012,0.05 -0.031,0.125 -0.062,0.218 -0.024,0.094 -0.055,0.196 -0.094,0.313 -0.031,0.125 -0.07,0.254 -0.11,0.39 -0.031,0.133 -0.062,0.258 -0.093,0.375 -0.032,0.125 -0.059,0.239 -0.078,0.344 -0.024,0.102 -0.039,0.18 -0.047,0.235 -0.032,-0.118 -0.078,-0.266 -0.141,-0.454 -0.055,-0.179 -0.117,-0.371 -0.187,-0.578 -0.063,-0.199 -0.133,-0.398 -0.204,-0.593 -0.062,-0.188 -0.125,-0.344 -0.187,-0.469 l -1.156,-2.719 -1.875,0 3,6.391 -0.157,0.453 c -0.117,0.289 -0.218,0.535 -0.312,0.734 -0.094,0.207 -0.188,0.375 -0.281,0.5 -0.094,0.133 -0.196,0.227 -0.297,0.281 -0.094,0.063 -0.211,0.094 -0.344,0.094 -0.086,0 -0.184,-0.012 -0.297,-0.031 -0.117,-0.023 -0.215,-0.055 -0.297,-0.094 l -0.297,1.235 c 0.125,0.05 0.29,0.093 0.5,0.125 0.207,0.039 0.438,0.062 0.688,0.062 0.332,0 0.625,-0.047 0.875,-0.141 0.25,-0.085 0.469,-0.226 0.656,-0.421 0.188,-0.188 0.352,-0.434 0.5,-0.735 0.156,-0.304 0.301,-0.664 0.438,-1.078 l 2.593,-7.375 z" /><path
         id="path232"
         style="fill:#000000;fill-opacity:1;fill-rule:nonzero;stroke:none"
         d="m 396.48,267.286 1.844,9.688 1.516,0 -1.813,-9.688 -1.547,0 z" /><path
         id="path234"
         style="fill:#000000;fill-opacity:1;fill-rule:nonzero;stroke:none"
         d="m 406.688,270.068 c 0,-0.387 -0.063,-0.742 -0.188,-1.063 -0.125,-0.324 -0.324,-0.605 -0.594,-0.844 -0.261,-0.23 -0.594,-0.414 -1,-0.546 -0.398,-0.125 -0.871,-0.188 -1.422,-0.188 -0.554,0 -1.031,0.063 -1.437,0.188 -0.399,0.132 -0.731,0.316 -1,0.546 -0.262,0.239 -0.461,0.52 -0.594,0.844 -0.125,0.321 -0.187,0.672 -0.187,1.047 0,0.332 0.05,0.625 0.156,0.875 0.101,0.25 0.238,0.461 0.406,0.641 0.164,0.187 0.36,0.332 0.578,0.437 0.227,0.113 0.457,0.188 0.688,0.219 l 0,0.031 c -0.25,0.051 -0.477,0.141 -0.672,0.266 -0.199,0.133 -0.371,0.289 -0.516,0.469 -0.136,0.175 -0.242,0.375 -0.312,0.593 -0.074,0.219 -0.11,0.442 -0.11,0.672 0,0.363 0.063,0.692 0.188,0.985 0.133,0.289 0.328,0.535 0.578,0.734 0.25,0.207 0.555,0.367 0.922,0.484 0.375,0.114 0.801,0.172 1.281,0.172 0.52,0 0.969,-0.058 1.344,-0.172 0.383,-0.117 0.695,-0.281 0.937,-0.5 0.25,-0.211 0.43,-0.461 0.547,-0.75 0.125,-0.293 0.188,-0.609 0.188,-0.953 0,-0.242 -0.039,-0.469 -0.11,-0.687 -0.074,-0.219 -0.183,-0.418 -0.328,-0.594 -0.136,-0.18 -0.308,-0.328 -0.515,-0.453 -0.2,-0.117 -0.422,-0.199 -0.672,-0.25 l 0,-0.031 c 0.258,-0.043 0.504,-0.122 0.734,-0.235 0.227,-0.105 0.422,-0.25 0.578,-0.437 0.164,-0.18 0.297,-0.391 0.391,-0.641 0.094,-0.25 0.141,-0.539 0.141,-0.859 z m -2.047,4.093 c 0,0.176 -0.024,0.336 -0.063,0.485 -0.043,0.144 -0.109,0.269 -0.203,0.375 -0.086,0.113 -0.203,0.203 -0.359,0.265 -0.149,0.063 -0.336,0.094 -0.563,0.094 -0.219,0 -0.402,-0.031 -0.547,-0.094 -0.148,-0.062 -0.265,-0.152 -0.359,-0.265 -0.086,-0.106 -0.149,-0.231 -0.188,-0.375 -0.043,-0.149 -0.062,-0.309 -0.062,-0.485 0,-0.168 0.015,-0.328 0.047,-0.484 0.039,-0.148 0.101,-0.281 0.187,-0.406 0.082,-0.117 0.196,-0.215 0.344,-0.297 0.156,-0.074 0.352,-0.109 0.594,-0.109 0.258,0 0.461,0.035 0.609,0.109 0.156,0.082 0.274,0.187 0.36,0.312 0.082,0.125 0.132,0.258 0.156,0.407 0.031,0.156 0.047,0.312 0.047,0.468 z m 0.203,-3.937 c 0,0.176 -0.024,0.348 -0.063,0.516 -0.043,0.175 -0.117,0.328 -0.219,0.453 -0.105,0.125 -0.25,0.222 -0.437,0.297 -0.18,0.082 -0.402,0.125 -0.672,0.125 -0.262,0 -0.48,-0.043 -0.656,-0.125 -0.168,-0.075 -0.305,-0.18 -0.406,-0.313 -0.106,-0.125 -0.18,-0.277 -0.219,-0.453 -0.043,-0.168 -0.063,-0.344 -0.063,-0.531 0,-0.231 0.02,-0.438 0.063,-0.625 0.039,-0.18 0.113,-0.336 0.219,-0.469 0.113,-0.137 0.257,-0.242 0.437,-0.313 0.176,-0.074 0.399,-0.109 0.672,-0.109 0.258,0 0.477,0.035 0.656,0.109 0.176,0.082 0.313,0.192 0.406,0.329 0.102,0.132 0.176,0.296 0.219,0.484 0.039,0.187 0.063,0.394 0.063,0.625 z" /><path
         id="path236"
         style="fill:#000000;fill-opacity:1;fill-rule:nonzero;stroke:none"
         d="m 462.328,259.13 2.105,0 0,-2.105 -2.105,0 0,2.105 z" /><g
         transform="matrix(0,-1,-1,0,0,279.13412)"
         id="g238"><path
           id="path240"
           style="fill:#ffffff;fill-opacity:1;fill-rule:nonzero;stroke:#000000;stroke-width:2.10560012;stroke-linecap:butt;stroke-linejoin:miter;stroke-miterlimit:4;stroke-dasharray:none;stroke-opacity:1"
           d="m 25.41,-473.91 c 0,2.406 -1.949,4.351 -4.355,4.351 -2.403,0 -4.352,-1.945 -4.352,-4.351 0,-2.402 1.949,-4.352 4.352,-4.352 2.406,0 4.355,1.95 4.355,4.352 z" /></g><g
         transform="matrix(0,-1,-1,0,0,279.13412)"
         id="g242"><path
           id="path244"
           style="fill:none;stroke:#000000;stroke-width:2.10560012;stroke-linecap:square;stroke-linejoin:miter;stroke-miterlimit:10;stroke-dasharray:none;stroke-opacity:1"
           d="m 21.055,-468.645 0,4.211" /></g><path
         id="path246"
         style="fill:#000000;fill-opacity:1;fill-rule:nonzero;stroke:none"
         d="m 488.957,216.783 c 0.352,0 0.656,0.046 0.906,0.14 0.258,0.102 0.485,0.235 0.672,0.391 0.188,0.164 0.344,0.347 0.469,0.547 0.125,0.207 0.226,0.414 0.312,0.625 l 1.625,-0.61 c -0.125,-0.324 -0.296,-0.64 -0.515,-0.953 -0.211,-0.312 -0.477,-0.59 -0.797,-0.828 -0.313,-0.23 -0.688,-0.418 -1.125,-0.562 -0.438,-0.145 -0.953,-0.219 -1.547,-0.219 -0.773,0 -1.445,0.117 -2.016,0.344 -0.562,0.226 -1.031,0.546 -1.406,0.953 -0.367,0.414 -0.64,0.906 -0.828,1.468 -0.18,0.571 -0.266,1.196 -0.266,1.875 0,0.696 0.086,1.329 0.266,1.891 0.188,0.563 0.461,1.039 0.828,1.438 0.363,0.394 0.82,0.695 1.375,0.906 0.551,0.219 1.207,0.328 1.969,0.328 0.582,0 1.094,-0.063 1.531,-0.188 0.438,-0.125 0.813,-0.296 1.125,-0.515 0.32,-0.219 0.586,-0.481 0.797,-0.781 0.207,-0.305 0.375,-0.637 0.5,-1 l -1.656,-0.454 c -0.063,0.188 -0.156,0.368 -0.281,0.547 -0.118,0.176 -0.266,0.332 -0.454,0.469 -0.187,0.133 -0.414,0.242 -0.671,0.328 -0.25,0.082 -0.54,0.125 -0.86,0.125 -0.449,0 -0.84,-0.074 -1.172,-0.219 -0.324,-0.148 -0.59,-0.355 -0.797,-0.625 -0.211,-0.273 -0.367,-0.601 -0.468,-0.984 -0.094,-0.375 -0.141,-0.797 -0.141,-1.266 0,-0.468 0.047,-0.898 0.141,-1.281 0.101,-0.387 0.257,-0.719 0.468,-1 0.219,-0.281 0.489,-0.5 0.813,-0.656 0.332,-0.156 0.734,-0.234 1.203,-0.234 z" /><path
         id="path248"
         style="fill:#000000;fill-opacity:1;fill-rule:nonzero;stroke:none"
         d="m 502.605,219.954 c 0,-0.699 -0.105,-1.336 -0.312,-1.906 -0.211,-0.574 -0.508,-1.062 -0.891,-1.469 -0.386,-0.406 -0.859,-0.718 -1.422,-0.937 -0.562,-0.219 -1.199,-0.328 -1.906,-0.328 -0.75,0 -1.406,0.117 -1.969,0.344 -0.554,0.226 -1.023,0.546 -1.406,0.953 -0.375,0.414 -0.656,0.906 -0.844,1.468 -0.187,0.571 -0.281,1.196 -0.281,1.875 0,0.696 0.098,1.329 0.297,1.891 0.195,0.563 0.484,1.039 0.859,1.438 0.383,0.394 0.86,0.695 1.422,0.906 0.563,0.219 1.207,0.328 1.938,0.328 0.726,0 1.375,-0.109 1.937,-0.328 0.563,-0.211 1.032,-0.516 1.407,-0.922 0.382,-0.399 0.675,-0.875 0.875,-1.438 0.195,-0.562 0.296,-1.187 0.296,-1.875 z m -1.906,0 c 0,0.469 -0.058,0.891 -0.172,1.266 -0.117,0.383 -0.281,0.711 -0.5,0.984 -0.218,0.27 -0.492,0.477 -0.812,0.625 -0.324,0.145 -0.699,0.219 -1.125,0.219 -0.438,0 -0.824,-0.074 -1.156,-0.219 -0.325,-0.148 -0.594,-0.355 -0.813,-0.625 -0.219,-0.273 -0.387,-0.601 -0.5,-0.984 -0.105,-0.375 -0.156,-0.797 -0.156,-1.266 0,-0.468 0.051,-0.898 0.156,-1.281 0.113,-0.387 0.281,-0.719 0.5,-1 0.227,-0.281 0.504,-0.5 0.828,-0.656 0.321,-0.156 0.696,-0.234 1.125,-0.234 0.457,0 0.848,0.078 1.172,0.234 0.332,0.164 0.602,0.391 0.813,0.672 0.218,0.281 0.379,0.613 0.484,1 0.102,0.383 0.156,0.804 0.156,1.265 z" /><path
         id="path250"
         style="fill:#000000;fill-opacity:1;fill-rule:nonzero;stroke:none"
         d="m 335.992,185.435 2.105,0 0,-2.105 -2.105,0 0,2.105 z" /><g
         transform="matrix(0,1,1,0,0,279.13412)"
         id="g252"><path
           id="path254"
           style="fill:#ffffff;fill-opacity:1;fill-rule:nonzero;stroke:#000000;stroke-width:2.10560012;stroke-linecap:butt;stroke-linejoin:miter;stroke-miterlimit:4;stroke-dasharray:none;stroke-opacity:1"
           d="m -90.398,326.52 c 0,2.402 -1.95,4.351 -4.356,4.351 -2.402,0 -4.351,-1.949 -4.351,-4.351 0,-2.407 1.949,-4.356 4.351,-4.356 2.406,0 4.356,1.949 4.356,4.356 z" /></g><g
         transform="matrix(0,1,1,0,0,279.13412)"
         id="g256"><path
           id="path258"
           style="fill:none;stroke:#000000;stroke-width:2.10560012;stroke-linecap:square;stroke-linejoin:miter;stroke-miterlimit:10;stroke-dasharray:none;stroke-opacity:1"
           d="m -94.754,331.781 0,4.211" /></g><path
         id="path260"
         style="fill:#000000;fill-opacity:1;fill-rule:nonzero;stroke:none"
         d="m 386.352,214.911 -7.172,0 0,1.329 4.828,6.156 -4.344,0 0,1.453 6.438,0 0,-1.297 -4.844,-6.172 5.094,0 0,-1.469 z" /><path
         id="path262"
         style="fill:#000000;fill-opacity:1;fill-rule:nonzero;stroke:none"
         d="m 390.277,214.786 c -0.543,0 -1.015,0.086 -1.422,0.25 -0.406,0.165 -0.746,0.407 -1.015,0.719 -0.274,0.313 -0.477,0.68 -0.61,1.11 -0.136,0.437 -0.203,0.914 -0.203,1.437 0,0.57 0.071,1.082 0.219,1.531 0.145,0.446 0.359,0.821 0.641,1.125 0.281,0.313 0.625,0.547 1.031,0.703 0.406,0.165 0.867,0.25 1.391,0.25 0.445,0 0.843,-0.062 1.187,-0.187 0.344,-0.117 0.641,-0.277 0.891,-0.484 0.25,-0.2 0.445,-0.438 0.593,-0.719 0.157,-0.281 0.266,-0.586 0.329,-0.906 l -1.797,-0.094 c -0.055,0.351 -0.184,0.633 -0.391,0.844 -0.199,0.207 -0.48,0.312 -0.844,0.312 -0.48,0 -0.836,-0.199 -1.062,-0.594 -0.219,-0.386 -0.328,-0.953 -0.328,-1.703 0,-1.586 0.468,-2.375 1.406,-2.375 0.344,0 0.629,0.102 0.859,0.313 0.227,0.218 0.368,0.539 0.422,0.968 l 1.781,-0.093 c -0.043,-0.313 -0.14,-0.617 -0.296,-0.907 -0.149,-0.293 -0.352,-0.554 -0.61,-0.781 -0.25,-0.219 -0.558,-0.398 -0.922,-0.531 -0.367,-0.125 -0.781,-0.188 -1.25,-0.188 z" /><path
         id="path264"
         style="fill:#000000;fill-opacity:1;fill-rule:nonzero;stroke:none"
         d="m 394.09,220.255 0,1.422 6.515,0 0,-1.422 -6.515,0 z m 0,-3.5 0,1.406 6.515,0 0,-1.406 -6.515,0 z" /><path
         id="path266"
         style="fill:#000000;fill-opacity:1;fill-rule:nonzero;stroke:none"
         d="m 401.734,214.911 0,1.329 2.219,0 0,6.093 -2.141,-1.328 0,1.391 2.235,1.453 1.687,0 0,-7.609 2.063,0 0,-1.329 -6.063,0 z" /><path
         id="path268"
         style="fill:#000000;fill-opacity:1;fill-rule:nonzero;stroke:none"
         d="m 408.078,214.646 1.844,9.687 1.516,0 -1.813,-9.687 -1.547,0 z" /><path
         id="path270"
         style="fill:#000000;fill-opacity:1;fill-rule:nonzero;stroke:none"
         d="m 416.504,216.255 c 0.351,0 0.656,0.047 0.906,0.141 0.258,0.101 0.485,0.234 0.672,0.39 0.188,0.165 0.344,0.348 0.469,0.547 0.125,0.207 0.226,0.414 0.312,0.625 l 1.625,-0.609 c -0.125,-0.324 -0.297,-0.641 -0.515,-0.953 -0.211,-0.313 -0.477,-0.59 -0.797,-0.828 -0.313,-0.231 -0.688,-0.418 -1.125,-0.563 -0.438,-0.144 -0.953,-0.219 -1.547,-0.219 -0.774,0 -1.445,0.118 -2.016,0.344 -0.562,0.227 -1.031,0.547 -1.406,0.953 -0.367,0.414 -0.641,0.907 -0.828,1.469 -0.18,0.57 -0.266,1.195 -0.266,1.875 0,0.695 0.086,1.328 0.266,1.891 0.187,0.562 0.461,1.039 0.828,1.437 0.363,0.395 0.82,0.696 1.375,0.906 0.551,0.219 1.207,0.329 1.969,0.329 0.582,0 1.094,-0.063 1.531,-0.188 0.438,-0.125 0.813,-0.297 1.125,-0.516 0.32,-0.218 0.586,-0.48 0.797,-0.781 0.207,-0.304 0.375,-0.637 0.5,-1 l -1.656,-0.453 c -0.063,0.188 -0.157,0.367 -0.282,0.547 -0.117,0.176 -0.265,0.332 -0.453,0.469 -0.187,0.133 -0.414,0.242 -0.672,0.328 -0.25,0.082 -0.539,0.125 -0.859,0.125 -0.449,0 -0.84,-0.074 -1.172,-0.219 -0.324,-0.148 -0.59,-0.355 -0.797,-0.625 -0.211,-0.273 -0.367,-0.601 -0.468,-0.984 -0.094,-0.375 -0.141,-0.797 -0.141,-1.266 0,-0.469 0.047,-0.898 0.141,-1.281 0.101,-0.387 0.257,-0.719 0.468,-1 0.219,-0.281 0.489,-0.5 0.813,-0.656 0.332,-0.157 0.734,-0.235 1.203,-0.235 z" /><path
         id="path272"
         style="fill:#000000;fill-opacity:1;fill-rule:nonzero;stroke:none"
         d="m 462.328,185.435 2.105,0 0,-2.105 -2.105,0 0,2.105 z" /><g
         transform="matrix(0,-1,-1,0,0,279.13412)"
         id="g274"><path
           id="path276"
           style="fill:#ffffff;fill-opacity:1;fill-rule:nonzero;stroke:#000000;stroke-width:2.10560012;stroke-linecap:butt;stroke-linejoin:miter;stroke-miterlimit:4;stroke-dasharray:none;stroke-opacity:1"
           d="m 99.105,-473.91 c 0,2.406 -1.949,4.351 -4.351,4.351 -2.406,0 -4.356,-1.945 -4.356,-4.351 0,-2.402 1.95,-4.352 4.356,-4.352 2.402,0 4.351,1.95 4.351,4.352 z" /></g><g
         transform="matrix(0,-1,-1,0,0,279.13412)"
         id="g278"><path
           id="path280"
           style="fill:none;stroke:#000000;stroke-width:2.10560012;stroke-linecap:square;stroke-linejoin:miter;stroke-miterlimit:10;stroke-dasharray:none;stroke-opacity:1"
           d="m 94.754,-468.645 0,4.211" /></g><g
         transform="matrix(1,0,0,-1,0,279.13412)"
         id="g282"><path
           id="path284"
           style="fill:none;stroke:#000000;stroke-width:2.10560012;stroke-linecap:butt;stroke-linejoin:miter;stroke-miterlimit:10;stroke-dasharray:none;stroke-opacity:1"
           d="m 337.047,94.754 126.336,0" /></g><g
         transform="matrix(1,0,0,-1,0,279.13412)"
         id="g286"><path
           id="path288"
           style="fill:none;stroke:#000000;stroke-width:2.10560012;stroke-linecap:butt;stroke-linejoin:miter;stroke-miterlimit:10;stroke-dasharray:none;stroke-opacity:1"
           d="m 337.047,21.055 126.336,0" /></g><path
         id="path290"
         style="fill:#000000;fill-opacity:1;fill-rule:nonzero;stroke:none"
         d="m 293.883,217.021 2.105,0 0,-2.109 -2.105,0 0,2.109 z" /><g
         transform="matrix(-1,0,0,1,0,279.13412)"
         id="g292"><path
           id="path294"
           style="fill:none;stroke:#000000;stroke-width:2.10560012;stroke-linecap:square;stroke-linejoin:miter;stroke-miterlimit:10;stroke-dasharray:none;stroke-opacity:1"
           d="m -313.883,-63.168 17.895,0" /></g><g
         transform="matrix(-1,0,0,1,0,279.13412)"
         id="g296"><path
           id="path298"
           style="fill:none;stroke:#000000;stroke-width:2.10560012;stroke-linecap:square;stroke-linejoin:miter;stroke-miterlimit:10;stroke-dasharray:none;stroke-opacity:1"
           d="m -308.719,-69.125 -5.949,5.957 5.949,5.957" /></g><path
         id="path300"
         style="fill:#000000;fill-opacity:1;fill-rule:nonzero;stroke:none"
         d="m 9.625,217.021 2.105,0 0,-2.109 -2.105,0 0,2.109 z" /><g
         transform="matrix(-1,0,0,1,0,279.13412)"
         id="g302"><path
           id="path304"
           style="fill:none;stroke:#000000;stroke-width:2.10560012;stroke-linecap:square;stroke-linejoin:miter;stroke-miterlimit:10;stroke-dasharray:none;stroke-opacity:1"
           d="m -29.629,-63.168 17.899,0" /></g><g
         transform="matrix(-1,0,0,1,0,279.13412)"
         id="g306"><path
           id="path308"
           style="fill:none;stroke:#000000;stroke-width:2.10560012;stroke-linecap:square;stroke-linejoin:miter;stroke-miterlimit:10;stroke-dasharray:none;stroke-opacity:1"
           d="m -24.461,-69.125 -5.949,5.957 5.949,5.957" /></g><path
         id="path310"
         style="fill:#000000;fill-opacity:1;fill-rule:nonzero;stroke:none"
         d="m 9.625,48.572 2.105,0 0,-2.105 -2.105,0 0,2.105 z" /><g
         transform="matrix(-1,0,0,1,0,279.13412)"
         id="g312"><path
           id="path314"
           style="fill:none;stroke:#000000;stroke-width:2.10560012;stroke-linecap:square;stroke-linejoin:miter;stroke-miterlimit:10;stroke-dasharray:none;stroke-opacity:1"
           d="m -29.629,-231.617 17.899,0" /></g><g
         transform="matrix(-1,0,0,1,0,279.13412)"
         id="g316"><path
           id="path318"
           style="fill:none;stroke:#000000;stroke-width:2.10560012;stroke-linecap:square;stroke-linejoin:miter;stroke-miterlimit:10;stroke-dasharray:none;stroke-opacity:1"
           d="m -24.461,-237.57 -5.949,5.953 5.949,5.957" /></g><path
         id="path320"
         style="fill:#000000;fill-opacity:1;fill-rule:nonzero;stroke:none"
         d="m 293.883,48.572 2.105,0 0,-2.105 -2.105,0 0,2.105 z" /><g
         transform="matrix(-1,0,0,1,0,279.13412)"
         id="g322"><path
           id="path324"
           style="fill:none;stroke:#000000;stroke-width:2.10560012;stroke-linecap:square;stroke-linejoin:miter;stroke-miterlimit:10;stroke-dasharray:none;stroke-opacity:1"
           d="m -313.883,-231.617 17.895,0" /></g><g
         transform="matrix(-1,0,0,1,0,279.13412)"
         id="g326"><path
           id="path328"
           style="fill:none;stroke:#000000;stroke-width:2.10560012;stroke-linecap:square;stroke-linejoin:miter;stroke-miterlimit:10;stroke-dasharray:none;stroke-opacity:1"
           d="m -308.719,-237.57 -5.949,5.953 5.949,5.957" /></g><path
         id="path330"
         style="fill:#000000;fill-opacity:1;fill-rule:nonzero;stroke:none"
         d="m 293.883,48.572 2.105,0 0,-2.105 -2.105,0 0,2.105 z" /><g
         transform="matrix(1,0,0,-1,0,279.13412)"
         id="g332"><path
           id="path334"
           style="fill:none;stroke:#000000;stroke-width:2.10560012;stroke-linecap:square;stroke-linejoin:miter;stroke-miterlimit:10;stroke-dasharray:none;stroke-opacity:1"
           d="m 294.934,232.668 0,18.953" /></g><path
         id="path336"
         style="fill:#000000;fill-opacity:1;fill-rule:nonzero;stroke:none"
         d="m 291.441,14.88 -7.171,0 0,1.328 4.828,6.157 -4.344,0 0,1.453 6.437,0 0,-1.297 -4.843,-6.172 5.093,0 0,-1.469 z" /><path
         id="path338"
         style="fill:#000000;fill-opacity:1;fill-rule:nonzero;stroke:none"
         d="m 292.508,22.99 0,1.312 1.781,0 0,-1.312 -1.781,0 z m 0,-8.11 0,6.875 1.781,0 0,-6.875 -1.781,0 z" /><path
         id="path340"
         style="fill:#000000;fill-opacity:1;fill-rule:nonzero;stroke:none"
         d="m 300.465,14.88 0,3.86 c 0,0.257 -0.024,0.5 -0.063,0.718 -0.043,0.227 -0.117,0.422 -0.218,0.578 -0.094,0.157 -0.219,0.274 -0.375,0.36 -0.157,0.094 -0.352,0.14 -0.579,0.14 -0.21,0 -0.402,-0.046 -0.578,-0.14 -0.179,-0.094 -0.328,-0.231 -0.453,-0.406 -0.125,-0.18 -0.226,-0.387 -0.297,-0.625 -0.074,-0.243 -0.109,-0.508 -0.109,-0.797 l 0,-3.688 -1.781,0 0,5.328 c 0,0.145 0,0.297 0,0.453 0,0.165 -0.008,0.317 -0.016,0.454 -0.012,0.144 -0.016,0.269 -0.016,0.375 0,0.113 -0.007,0.203 -0.015,0.265 l 1.703,0 c 0.008,-0.054 0.016,-0.137 0.016,-0.25 0.007,-0.117 0.019,-0.242 0.031,-0.375 0.008,-0.137 0.015,-0.273 0.015,-0.406 0.008,-0.137 0.016,-0.25 0.016,-0.344 l 0.031,0 c 0.239,0.531 0.539,0.91 0.907,1.141 0.363,0.238 0.796,0.359 1.296,0.359 0.415,0 0.766,-0.07 1.047,-0.203 0.289,-0.137 0.524,-0.324 0.703,-0.562 0.176,-0.231 0.305,-0.508 0.391,-0.829 0.082,-0.324 0.125,-0.671 0.125,-1.046 l 0,-4.36 -1.781,0 z" /><path
         id="path342"
         style="fill:#000000;fill-opacity:1;fill-rule:nonzero;stroke:none"
         d="m 293.883,217.021 2.105,0 0,-2.109 -2.105,0 0,2.109 z" /><g
         transform="matrix(1,0,0,-1,0,279.13412)"
         id="g344"><path
           id="path346"
           style="fill:none;stroke:#000000;stroke-width:2.10560012;stroke-linecap:square;stroke-linejoin:miter;stroke-miterlimit:10;stroke-dasharray:none;stroke-opacity:1"
           d="m 294.934,64.223 0,18.949" /></g><path
         id="path348"
         style="fill:#000000;fill-opacity:1;fill-rule:nonzero;stroke:none"
         d="m 291.441,183.329 -7.171,0 0,1.329 4.828,6.156 -4.344,0 0,1.453 6.437,0 0,-1.297 -4.843,-6.172 5.093,0 0,-1.469 z" /><path
         id="path350"
         style="fill:#000000;fill-opacity:1;fill-rule:nonzero;stroke:none"
         d="m 292.508,191.439 0,1.312 1.781,0 0,-1.312 -1.781,0 z m 0,-8.11 0,6.875 1.781,0 0,-6.875 -1.781,0 z" /><path
         id="path352"
         style="fill:#000000;fill-opacity:1;fill-rule:nonzero;stroke:none"
         d="m 300.465,183.329 0,3.86 c 0,0.258 -0.024,0.5 -0.063,0.719 -0.043,0.226 -0.117,0.421 -0.218,0.578 -0.094,0.156 -0.219,0.273 -0.375,0.359 -0.157,0.094 -0.352,0.141 -0.579,0.141 -0.21,0 -0.402,-0.047 -0.578,-0.141 -0.179,-0.094 -0.328,-0.23 -0.453,-0.406 -0.125,-0.18 -0.226,-0.387 -0.297,-0.625 -0.074,-0.242 -0.109,-0.508 -0.109,-0.797 l 0,-3.688 -1.781,0 0,5.329 c 0,0.144 0,0.296 0,0.453 0,0.164 -0.008,0.316 -0.016,0.453 -0.012,0.144 -0.016,0.269 -0.016,0.375 0,0.113 -0.007,0.203 -0.015,0.265 l 1.703,0 c 0.008,-0.054 0.016,-0.136 0.016,-0.25 0.007,-0.117 0.019,-0.242 0.031,-0.375 0.008,-0.136 0.015,-0.273 0.015,-0.406 0.008,-0.137 0.016,-0.25 0.016,-0.344 l 0.031,0 c 0.239,0.532 0.539,0.911 0.907,1.141 0.363,0.238 0.796,0.359 1.296,0.359 0.415,0 0.766,-0.07 1.047,-0.203 0.289,-0.136 0.524,-0.324 0.703,-0.562 0.176,-0.231 0.305,-0.508 0.391,-0.828 0.082,-0.325 0.125,-0.672 0.125,-1.047 l 0,-4.36 -1.781,0 z" /><path
         id="path354"
         style="fill:#000000;fill-opacity:1;fill-rule:nonzero;stroke:none"
         d="m 9.625,217.021 2.105,0 0,-2.109 -2.105,0 0,2.109 z" /><g
         transform="matrix(1,0,0,-1,0,279.13412)"
         id="g356"><path
           id="path358"
           style="fill:none;stroke:#000000;stroke-width:2.10560012;stroke-linecap:square;stroke-linejoin:miter;stroke-miterlimit:10;stroke-dasharray:none;stroke-opacity:1"
           d="m 10.68,64.223 0,18.949" /></g><path
         id="path360"
         style="fill:#000000;fill-opacity:1;fill-rule:nonzero;stroke:none"
         d="m 7.188,183.329 -7.172,0 0,1.329 4.828,6.156 -4.344,0 0,1.453 6.438,0 0,-1.297 -4.844,-6.172 5.094,0 0,-1.469 z" /><path
         id="path362"
         style="fill:#000000;fill-opacity:1;fill-rule:nonzero;stroke:none"
         d="m 8.254,191.439 0,1.312 1.781,0 0,-1.312 -1.781,0 z m 0,-8.11 0,6.875 1.781,0 0,-6.875 -1.781,0 z" /><path
         id="path364"
         style="fill:#000000;fill-opacity:1;fill-rule:nonzero;stroke:none"
         d="m 16.211,183.329 0,3.86 c 0,0.258 -0.023,0.5 -0.063,0.719 -0.043,0.226 -0.117,0.421 -0.218,0.578 -0.094,0.156 -0.219,0.273 -0.375,0.359 -0.157,0.094 -0.352,0.141 -0.578,0.141 -0.211,0 -0.403,-0.047 -0.579,-0.141 -0.179,-0.094 -0.328,-0.23 -0.453,-0.406 -0.125,-0.18 -0.226,-0.387 -0.297,-0.625 -0.074,-0.242 -0.109,-0.508 -0.109,-0.797 l 0,-3.688 -1.781,0 0,5.329 c 0,0.144 0,0.296 0,0.453 0,0.164 -0.008,0.316 -0.016,0.453 -0.012,0.144 -0.015,0.269 -0.015,0.375 0,0.113 -0.008,0.203 -0.016,0.265 l 1.703,0 c 0.008,-0.054 0.016,-0.136 0.016,-0.25 0.008,-0.117 0.019,-0.242 0.031,-0.375 0.008,-0.136 0.016,-0.273 0.016,-0.406 0.007,-0.137 0.015,-0.25 0.015,-0.344 l 0.031,0 c 0.239,0.532 0.539,0.911 0.907,1.141 0.363,0.238 0.797,0.359 1.297,0.359 0.414,0 0.765,-0.07 1.046,-0.203 0.289,-0.136 0.524,-0.324 0.704,-0.562 0.175,-0.231 0.304,-0.508 0.39,-0.828 0.082,-0.325 0.125,-0.672 0.125,-1.047 l 0,-4.36 -1.781,0 z" /><path
         id="path366"
         style="fill:#000000;fill-opacity:1;fill-rule:nonzero;stroke:none"
         d="m 9.625,48.572 2.105,0 0,-2.105 -2.105,0 0,2.105 z" /><g
         transform="matrix(1,0,0,-1,0,279.13412)"
         id="g368"><path
           id="path370"
           style="fill:none;stroke:#000000;stroke-width:2.10560012;stroke-linecap:square;stroke-linejoin:miter;stroke-miterlimit:10;stroke-dasharray:none;stroke-opacity:1"
           d="m 10.68,232.668 0,18.953" /></g><path
         id="path372"
         style="fill:#000000;fill-opacity:1;fill-rule:nonzero;stroke:none"
         d="m 7.188,14.88 -7.172,0 0,1.328 4.828,6.157 -4.344,0 0,1.453 6.438,0 0,-1.297 -4.844,-6.172 5.094,0 0,-1.469 z" /><path
         id="path374"
         style="fill:#000000;fill-opacity:1;fill-rule:nonzero;stroke:none"
         d="m 8.254,22.99 0,1.312 1.781,0 0,-1.312 -1.781,0 z m 0,-8.11 0,6.875 1.781,0 0,-6.875 -1.781,0 z" /><path
         id="path376"
         style="fill:#000000;fill-opacity:1;fill-rule:nonzero;stroke:none"
         d="m 16.211,14.88 0,3.86 c 0,0.257 -0.023,0.5 -0.063,0.718 -0.043,0.227 -0.117,0.422 -0.218,0.578 -0.094,0.157 -0.219,0.274 -0.375,0.36 -0.157,0.094 -0.352,0.14 -0.578,0.14 -0.211,0 -0.403,-0.046 -0.579,-0.14 C 14.219,20.302 14.07,20.165 13.945,19.99 13.82,19.81 13.719,19.603 13.648,19.365 13.574,19.122 13.539,18.857 13.539,18.568 l 0,-3.688 -1.781,0 0,5.328 c 0,0.145 0,0.297 0,0.453 0,0.165 -0.008,0.317 -0.016,0.454 -0.012,0.144 -0.015,0.269 -0.015,0.375 0,0.113 -0.008,0.203 -0.016,0.265 l 1.703,0 c 0.008,-0.054 0.016,-0.137 0.016,-0.25 0.008,-0.117 0.019,-0.242 0.031,-0.375 0.008,-0.137 0.016,-0.273 0.016,-0.406 0.007,-0.137 0.015,-0.25 0.015,-0.344 l 0.031,0 c 0.239,0.531 0.539,0.91 0.907,1.141 0.363,0.238 0.797,0.359 1.297,0.359 0.414,0 0.765,-0.07 1.046,-0.203 0.289,-0.137 0.524,-0.324 0.704,-0.562 0.175,-0.231 0.304,-0.508 0.39,-0.829 0.082,-0.324 0.125,-0.671 0.125,-1.046 l 0,-4.36 -1.781,0 z" /><g
         transform="matrix(1,0,0,-1,0,279.13412)"
         id="g378"><path
           id="path380"
           style="fill:none;stroke:#000000;stroke-width:2.10560012;stroke-linecap:butt;stroke-linejoin:miter;stroke-miterlimit:10;stroke-dasharray:none;stroke-opacity:1"
           d="m 196.746,63.168 27.93,0" /></g><g
         transform="matrix(1,0,0,-1,0,279.13412)"
         id="g382"><path
           id="path384"
           style="fill:#000000;fill-opacity:1;fill-rule:nonzero;stroke:#000000;stroke-width:2.10560012;stroke-linecap:butt;stroke-linejoin:miter;stroke-miterlimit:10;stroke-dasharray:none;stroke-opacity:1"
           d="m 192.008,63.168 6.316,-3.16 -1.578,3.16 1.578,3.16 -6.316,-3.16 z" /></g><g
         transform="matrix(1,0,0,-1,0,279.13412)"
         id="g386"><path
           id="path388"
           style="fill:#000000;fill-opacity:1;fill-rule:nonzero;stroke:#000000;stroke-width:2.10560012;stroke-linecap:butt;stroke-linejoin:miter;stroke-miterlimit:10;stroke-dasharray:none;stroke-opacity:1"
           d="m 229.414,63.168 -6.32,3.16 1.582,-3.16 -1.582,-3.16 6.32,3.16 z" /></g><g
         transform="matrix(1,0,0,-1,0,279.13412)"
         id="g390"><path
           id="path392"
           style="fill:none;stroke:#000000;stroke-width:2.10560012;stroke-linecap:butt;stroke-linejoin:miter;stroke-miterlimit:10;stroke-dasharray:none;stroke-opacity:1"
           d="m 196.746,231.617 27.93,0" /></g><g
         transform="matrix(1,0,0,-1,0,279.13412)"
         id="g394"><path
           id="path396"
           style="fill:#000000;fill-opacity:1;fill-rule:nonzero;stroke:#000000;stroke-width:2.10560012;stroke-linecap:butt;stroke-linejoin:miter;stroke-miterlimit:10;stroke-dasharray:none;stroke-opacity:1"
           d="m 192.008,231.617 6.316,-3.16 -1.578,3.16 1.578,3.156 -6.316,-3.156 z" /></g><g
         transform="matrix(1,0,0,-1,0,279.13412)"
         id="g398"><path
           id="path400"
           style="fill:#000000;fill-opacity:1;fill-rule:nonzero;stroke:#000000;stroke-width:2.10560012;stroke-linecap:butt;stroke-linejoin:miter;stroke-miterlimit:10;stroke-dasharray:none;stroke-opacity:1"
           d="m 229.414,231.617 -6.32,3.156 1.582,-3.156 -1.582,-3.16 6.32,3.16 z" /></g></g></g></svg>