<?xml version="1.0" encoding="UTF-8" standalone="no"?>
<svg
   xmlns:dc="http://purl.org/dc/elements/1.1/"
   xmlns:cc="http://creativecommons.org/ns#"
   xmlns:rdf="http://www.w3.org/1999/02/22-rdf-syntax-ns#"
   xmlns:svg="http://www.w3.org/2000/svg"
   xmlns="http://www.w3.org/2000/svg"
   viewBox="0 0 757.59729 408.31699"
   height="408.31699"
   width="757.59729"
   xml:space="preserve"
   version="1.1"
   id="svg2"><metadata
     id="metadata8"><rdf:RDF><cc:Work
         rdf:about=""><dc:format>image/svg+xml</dc:format><dc:type
           rdf:resource="http://purl.org/dc/dcmitype/StillImage" /></cc:Work></rdf:RDF></metadata><defs
     id="defs6" /><g
     transform="matrix(1.25,0,0,-1.25,0,408.31699)"
     id="g10"><g
       id="g12"><g
         transform="matrix(1,0,0,-1,0,326.65359)"
         id="g14"><path
           id="path16"
           style="fill:#ffffff;fill-opacity:1;fill-rule:nonzero;stroke:#000000;stroke-width:1.01919997;stroke-linecap:butt;stroke-linejoin:miter;stroke-miterlimit:4;stroke-dasharray:none;stroke-opacity:1"
           d="m 107.152,50.961 91.73,0 0,91.727 -91.73,0 0,-91.727 z" /></g><path
         id="path18"
         style="fill:#000000;fill-opacity:1;fill-rule:nonzero;stroke:none"
         d="m 218.246,266.521 2.039,0 0,-2.039 -2.039,0 0,2.039 z" /><g
         transform="matrix(1,0,0,-1,0,326.65359)"
         id="g20"><path
           id="path22"
           style="fill:none;stroke:#000000;stroke-width:2.03839993;stroke-linecap:square;stroke-linejoin:miter;stroke-miterlimit:10;stroke-dasharray:none;stroke-opacity:1"
           d="m 199.902,61.152 18.344,0" /></g><path
         id="path24"
         style="fill:#000000;fill-opacity:1;fill-rule:nonzero;stroke:none"
         d="m 85.75,266.521 2.039,0 0,-2.039 -2.039,0 0,2.039 z" /><g
         transform="matrix(1,0,0,-1,0,326.65359)"
         id="g26"><path
           id="path28"
           style="fill:none;stroke:#000000;stroke-width:2.03839993;stroke-linecap:square;stroke-linejoin:miter;stroke-miterlimit:10;stroke-dasharray:none;stroke-opacity:1"
           d="m 87.789,61.152 18.344,0" /></g><path
         id="path30"
         style="fill:#000000;fill-opacity:1;fill-rule:nonzero;stroke:none"
         d="m 218.246,195.177 2.039,0 0,-2.039 -2.039,0 0,2.039 z" /><g
         transform="matrix(1,0,0,-1,0,326.65359)"
         id="g32"><path
           id="path34"
           style="fill:none;stroke:#000000;stroke-width:2.03839993;stroke-linecap:square;stroke-linejoin:miter;stroke-miterlimit:10;stroke-dasharray:none;stroke-opacity:1"
           d="m 199.902,132.496 18.344,0" /></g><path
         id="path36"
         style="fill:#000000;fill-opacity:1;fill-rule:nonzero;stroke:none"
         d="m 85.75,195.177 2.039,0 0,-2.039 -2.039,0 0,2.039 z" /><g
         transform="matrix(1,0,0,-1,0,326.65359)"
         id="g38"><path
           id="path40"
           style="fill:none;stroke:#000000;stroke-width:2.03839993;stroke-linecap:square;stroke-linejoin:miter;stroke-miterlimit:10;stroke-dasharray:none;stroke-opacity:1"
           d="m 87.789,132.496 18.344,0" /></g><path
         id="path42"
         style="fill:#000000;fill-opacity:1;fill-rule:nonzero;stroke:none"
         d="m 154.07,284.865 -1.734,0 -0.797,2.703 c -0.012,0.05 -0.031,0.117 -0.062,0.203 -0.024,0.094 -0.047,0.191 -0.079,0.297 -0.031,0.113 -0.07,0.234 -0.109,0.359 -0.031,0.125 -0.062,0.238 -0.094,0.344 -0.023,0.113 -0.043,0.219 -0.062,0.312 -0.024,0.094 -0.039,0.172 -0.047,0.235 -0.031,-0.106 -0.074,-0.246 -0.125,-0.422 -0.055,-0.168 -0.109,-0.344 -0.172,-0.531 -0.062,-0.188 -0.125,-0.372 -0.187,-0.547 -0.063,-0.18 -0.122,-0.325 -0.172,-0.438 l -1.063,-2.515 -1.75,0 2.781,5.89 -0.156,0.438 c -0.105,0.269 -0.199,0.5 -0.281,0.687 -0.086,0.188 -0.168,0.336 -0.25,0.453 -0.086,0.114 -0.172,0.196 -0.266,0.25 -0.093,0.063 -0.203,0.094 -0.328,0.094 -0.086,0 -0.179,-0.016 -0.281,-0.047 -0.106,-0.023 -0.195,-0.047 -0.266,-0.078 l -0.281,1.141 c 0.113,0.039 0.27,0.078 0.469,0.109 0.195,0.039 0.406,0.063 0.625,0.063 0.312,0 0.582,-0.043 0.812,-0.125 0.227,-0.086 0.426,-0.215 0.594,-0.391 0.176,-0.18 0.332,-0.406 0.469,-0.688 0.144,-0.273 0.285,-0.601 0.422,-0.984 l 2.39,-6.812 z" /><path
         id="path44"
         style="fill:#000000;fill-opacity:1;fill-rule:nonzero;stroke:none"
         d="m 154.504,284.63 1.703,8.938 1.391,0 -1.672,-8.938 -1.422,0 z" /><path
         id="path46"
         style="fill:#000000;fill-opacity:1;fill-rule:nonzero;stroke:none"
         d="m 164.082,287.193 c 0,-0.356 -0.062,-0.684 -0.187,-0.985 -0.118,-0.304 -0.293,-0.562 -0.532,-0.781 -0.242,-0.211 -0.547,-0.375 -0.922,-0.5 -0.375,-0.125 -0.82,-0.187 -1.328,-0.187 -0.511,0 -0.953,0.062 -1.328,0.187 -0.367,0.125 -0.672,0.289 -0.922,0.5 -0.242,0.219 -0.422,0.473 -0.547,0.766 -0.117,0.3 -0.171,0.629 -0.171,0.984 0,0.301 0.046,0.566 0.14,0.797 0.094,0.238 0.219,0.441 0.375,0.609 0.156,0.164 0.332,0.297 0.531,0.391 0.207,0.101 0.422,0.172 0.641,0.203 l 0,0.031 c -0.23,0.051 -0.437,0.133 -0.625,0.25 -0.18,0.114 -0.336,0.254 -0.469,0.422 -0.125,0.164 -0.226,0.348 -0.297,0.547 -0.062,0.195 -0.093,0.406 -0.093,0.625 0,0.332 0.054,0.633 0.172,0.906 0.125,0.27 0.3,0.5 0.531,0.688 0.226,0.187 0.515,0.332 0.859,0.437 0.344,0.102 0.738,0.157 1.188,0.157 0.476,0 0.89,-0.055 1.234,-0.157 0.352,-0.105 0.641,-0.258 0.859,-0.453 0.227,-0.187 0.395,-0.418 0.5,-0.687 0.114,-0.274 0.172,-0.571 0.172,-0.891 0,-0.219 -0.039,-0.434 -0.109,-0.641 -0.063,-0.199 -0.156,-0.382 -0.281,-0.546 -0.125,-0.157 -0.282,-0.293 -0.469,-0.407 -0.188,-0.117 -0.402,-0.195 -0.641,-0.234 l 0,-0.031 c 0.25,-0.043 0.477,-0.118 0.688,-0.219 0.207,-0.094 0.383,-0.227 0.531,-0.391 0.156,-0.168 0.273,-0.371 0.359,-0.609 0.094,-0.231 0.141,-0.492 0.141,-0.781 z m -1.906,3.765 c 0,0.164 -0.024,0.317 -0.063,0.453 -0.031,0.133 -0.09,0.254 -0.172,0.36 -0.074,0.101 -0.183,0.179 -0.328,0.234 -0.136,0.051 -0.308,0.078 -0.515,0.078 -0.211,0 -0.383,-0.027 -0.516,-0.078 -0.137,-0.055 -0.246,-0.133 -0.328,-0.234 -0.086,-0.106 -0.149,-0.227 -0.188,-0.36 -0.031,-0.136 -0.046,-0.289 -0.046,-0.453 0,-0.148 0.015,-0.293 0.046,-0.437 0.032,-0.137 0.082,-0.262 0.157,-0.375 0.082,-0.106 0.191,-0.196 0.328,-0.266 0.144,-0.074 0.328,-0.109 0.547,-0.109 0.238,0 0.425,0.035 0.562,0.109 0.145,0.07 0.254,0.164 0.328,0.281 0.082,0.114 0.133,0.239 0.157,0.375 0.019,0.145 0.031,0.286 0.031,0.422 z m 0.187,-3.625 c 0,0.164 -0.023,0.328 -0.062,0.485 -0.031,0.156 -0.094,0.289 -0.188,0.406 -0.093,0.125 -0.226,0.219 -0.39,0.281 -0.168,0.07 -0.383,0.11 -0.641,0.11 -0.242,0 -0.437,-0.04 -0.594,-0.11 -0.156,-0.062 -0.281,-0.156 -0.375,-0.281 -0.093,-0.125 -0.164,-0.266 -0.203,-0.422 -0.043,-0.156 -0.062,-0.324 -0.062,-0.5 0,-0.211 0.019,-0.402 0.062,-0.578 0.039,-0.168 0.11,-0.313 0.203,-0.438 0.102,-0.117 0.235,-0.211 0.391,-0.281 0.164,-0.062 0.375,-0.094 0.625,-0.094 0.25,0 0.453,0.032 0.609,0.094 0.157,0.07 0.282,0.172 0.375,0.297 0.094,0.125 0.157,0.27 0.188,0.438 0.039,0.175 0.062,0.375 0.062,0.593 z" /><path
         id="path48"
         style="fill:#000000;fill-opacity:1;fill-rule:nonzero;stroke:none"
         d="m 154.898,223.716 -6.625,0 0,1.219 4.469,5.687 -4.031,0 0,1.344 5.953,0 0,-1.187 -4.469,-5.704 4.703,0 0,-1.359 z" /><path
         id="path50"
         style="fill:#000000;fill-opacity:1;fill-rule:nonzero;stroke:none"
         d="m 156.141,223.716 0,1.219 2.047,0 0,5.64 -1.969,-1.234 0,1.297 2.062,1.328 1.563,0 0,-7.031 1.89,0 0,-1.219 -5.593,0 z" /><path
         id="path52"
         style="fill:#000000;fill-opacity:1;fill-rule:nonzero;stroke:none"
         d="m 55.176,256.329 2.035,0 0,-2.039 -2.035,0 0,2.039 z" /><path
         id="path54"
         style="fill:#000000;fill-opacity:1;fill-rule:nonzero;stroke:none"
         d="m 55.176,205.368 2.035,0 0,-2.039 -2.035,0 0,2.039 z" /><g
         transform="matrix(1,0,0,-1,0,326.65359)"
         id="g56"><path
           id="path58"
           style="fill:none;stroke:#000000;stroke-width:2.03839993;stroke-linecap:round;stroke-linejoin:miter;stroke-miterlimit:10;stroke-dasharray:none;stroke-opacity:1"
           d="m 44.98,92.746 22.426,0" /></g><g
         transform="matrix(1,0,0,-1,0,326.65359)"
         id="g60"><path
           id="path62"
           style="fill:none;stroke:#000000;stroke-width:2.03839993;stroke-linecap:round;stroke-linejoin:miter;stroke-miterlimit:10;stroke-dasharray:none;stroke-opacity:1"
           d="m 44.98,100.902 22.426,0" /></g><g
         transform="matrix(1,0,0,-1,0,326.65359)"
         id="g64"><path
           id="path66"
           style="fill:none;stroke:#000000;stroke-width:2.03839993;stroke-linecap:square;stroke-linejoin:miter;stroke-miterlimit:10;stroke-dasharray:none;stroke-opacity:1"
           d="m 56.195,72.363 0,19.364" /></g><g
         transform="matrix(1,0,0,-1,0,326.65359)"
         id="g68"><path
           id="path70"
           style="fill:none;stroke:#000000;stroke-width:2.03839993;stroke-linecap:square;stroke-linejoin:miter;stroke-miterlimit:10;stroke-dasharray:none;stroke-opacity:1"
           d="m 56.195,101.922 0,19.363" /></g><path
         id="path72"
         style="fill:#000000;fill-opacity:1;fill-rule:nonzero;stroke:none"
         d="m 4.617,224.224 0,1.219 2.047,0 0,5.64 -1.969,-1.234 0,1.297 2.063,1.328 1.562,0 0,-7.031 1.891,0 0,-1.219 -5.594,0 z" /><path
         id="path74"
         style="fill:#000000;fill-opacity:1;fill-rule:nonzero;stroke:none"
         d="m 14.191,223.99 1.704,8.937 1.39,0 -1.672,-8.937 -1.422,0 z" /><path
         id="path76"
         style="fill:#000000;fill-opacity:1;fill-rule:nonzero;stroke:none"
         d="m 27.836,224.224 -6.625,0 0,1.219 4.469,5.687 -4.032,0 0,1.344 5.954,0 0,-1.188 -4.469,-5.703 4.703,0 0,-1.359 z" /><path
         id="path78"
         style="fill:#000000;fill-opacity:1;fill-rule:nonzero;stroke:none"
         d="m 28.75,224.224 0,1.141 c 0.188,0.414 0.41,0.785 0.672,1.109 0.269,0.332 0.551,0.633 0.844,0.906 0.3,0.281 0.597,0.535 0.89,0.766 0.289,0.238 0.551,0.469 0.782,0.687 0.238,0.227 0.425,0.453 0.562,0.672 0.145,0.219 0.219,0.453 0.219,0.703 0,0.375 -0.094,0.645 -0.281,0.813 -0.18,0.176 -0.446,0.265 -0.797,0.265 -0.356,0 -0.625,-0.093 -0.813,-0.281 -0.18,-0.187 -0.297,-0.469 -0.359,-0.844 l -1.657,0.094 c 0.04,0.32 0.118,0.625 0.235,0.906 0.125,0.282 0.297,0.532 0.515,0.75 0.227,0.219 0.508,0.383 0.844,0.5 0.344,0.125 0.75,0.188 1.219,0.188 0.445,0 0.844,-0.055 1.187,-0.156 0.344,-0.106 0.629,-0.258 0.86,-0.453 0.238,-0.2 0.414,-0.446 0.531,-0.735 0.125,-0.281 0.188,-0.605 0.188,-0.969 0,-0.386 -0.079,-0.734 -0.235,-1.046 -0.148,-0.313 -0.34,-0.606 -0.578,-0.875 -0.242,-0.262 -0.508,-0.508 -0.797,-0.735 -0.293,-0.23 -0.574,-0.453 -0.843,-0.672 -0.274,-0.218 -0.524,-0.445 -0.75,-0.672 -0.219,-0.218 -0.387,-0.453 -0.5,-0.703 l 3.828,0 0,-1.359 -5.766,0 z" /><g
         transform="matrix(1,0,0,-1,0,326.65359)"
         id="g80"><path
           id="path82"
           style="fill:#ffffff;fill-opacity:1;fill-rule:nonzero;stroke:#000000;stroke-width:1.01919997;stroke-linecap:butt;stroke-linejoin:miter;stroke-miterlimit:4;stroke-dasharray:none;stroke-opacity:1"
           d="m 107.152,234.414 91.73,0 0,91.73 -91.73,0 0,-91.73 z" /></g><path
         id="path84"
         style="fill:#000000;fill-opacity:1;fill-rule:nonzero;stroke:none"
         d="m 218.246,83.064 2.039,0 0,-2.039 -2.039,0 0,2.039 z" /><g
         transform="matrix(1,0,0,-1,0,326.65359)"
         id="g86"><path
           id="path88"
           style="fill:none;stroke:#000000;stroke-width:2.03839993;stroke-linecap:square;stroke-linejoin:miter;stroke-miterlimit:10;stroke-dasharray:none;stroke-opacity:1"
           d="m 199.902,244.609 18.344,0" /></g><path
         id="path90"
         style="fill:#000000;fill-opacity:1;fill-rule:nonzero;stroke:none"
         d="m 85.75,83.064 2.039,0 0,-2.039 -2.039,0 0,2.039 z" /><g
         transform="matrix(1,0,0,-1,0,326.65359)"
         id="g92"><path
           id="path94"
           style="fill:none;stroke:#000000;stroke-width:2.03839993;stroke-linecap:square;stroke-linejoin:miter;stroke-miterlimit:10;stroke-dasharray:none;stroke-opacity:1"
           d="m 87.789,244.609 18.344,0" /></g><path
         id="path96"
         style="fill:#000000;fill-opacity:1;fill-rule:nonzero;stroke:none"
         d="m 218.246,11.72 2.039,0 0,-2.039 -2.039,0 0,2.039 z" /><g
         transform="matrix(1,0,0,-1,0,326.65359)"
         id="g98"><path
           id="path100"
           style="fill:none;stroke:#000000;stroke-width:2.03839993;stroke-linecap:square;stroke-linejoin:miter;stroke-miterlimit:10;stroke-dasharray:none;stroke-opacity:1"
           d="m 199.902,315.953 18.344,0" /></g><path
         id="path102"
         style="fill:#000000;fill-opacity:1;fill-rule:nonzero;stroke:none"
         d="m 85.75,11.72 2.039,0 0,-2.039 -2.039,0 0,2.039 z" /><g
         transform="matrix(1,0,0,-1,0,326.65359)"
         id="g104"><path
           id="path106"
           style="fill:none;stroke:#000000;stroke-width:2.03839993;stroke-linecap:square;stroke-linejoin:miter;stroke-miterlimit:10;stroke-dasharray:none;stroke-opacity:1"
           d="m 87.789,315.953 18.344,0" /></g><path
         id="path108"
         style="fill:#000000;fill-opacity:1;fill-rule:nonzero;stroke:none"
         d="m 154.07,101.411 -1.734,0 -0.797,2.704 c -0.012,0.05 -0.031,0.117 -0.062,0.203 -0.024,0.093 -0.047,0.191 -0.079,0.297 -0.031,0.113 -0.07,0.234 -0.109,0.359 -0.031,0.125 -0.062,0.238 -0.094,0.344 -0.023,0.113 -0.043,0.218 -0.062,0.312 -0.024,0.094 -0.039,0.172 -0.047,0.235 -0.031,-0.106 -0.074,-0.247 -0.125,-0.422 -0.055,-0.168 -0.109,-0.344 -0.172,-0.532 -0.062,-0.187 -0.125,-0.371 -0.187,-0.546 -0.063,-0.18 -0.122,-0.325 -0.172,-0.438 l -1.063,-2.516 -1.75,0 2.781,5.891 -0.156,0.438 c -0.105,0.269 -0.199,0.5 -0.281,0.687 -0.086,0.188 -0.168,0.336 -0.25,0.453 -0.086,0.113 -0.172,0.195 -0.266,0.25 -0.093,0.063 -0.203,0.094 -0.328,0.094 -0.086,0 -0.179,-0.016 -0.281,-0.047 -0.106,-0.023 -0.195,-0.047 -0.266,-0.078 l -0.281,1.141 c 0.113,0.039 0.27,0.078 0.469,0.109 0.195,0.039 0.406,0.062 0.625,0.062 0.312,0 0.582,-0.043 0.812,-0.125 0.227,-0.086 0.426,-0.214 0.594,-0.39 0.176,-0.18 0.332,-0.406 0.469,-0.688 0.144,-0.273 0.285,-0.601 0.422,-0.984 l 2.39,-6.813 z" /><path
         id="path110"
         style="fill:#000000;fill-opacity:1;fill-rule:nonzero;stroke:none"
         d="m 154.504,101.177 1.703,8.938 1.391,0 -1.672,-8.938 -1.422,0 z" /><path
         id="path112"
         style="fill:#000000;fill-opacity:1;fill-rule:nonzero;stroke:none"
         d="m 164.082,103.74 c 0,-0.356 -0.062,-0.684 -0.187,-0.985 -0.118,-0.305 -0.293,-0.562 -0.532,-0.781 -0.242,-0.211 -0.547,-0.375 -0.922,-0.5 -0.375,-0.125 -0.82,-0.188 -1.328,-0.188 -0.511,0 -0.953,0.063 -1.328,0.188 -0.367,0.125 -0.672,0.289 -0.922,0.5 -0.242,0.219 -0.422,0.473 -0.547,0.766 -0.117,0.3 -0.171,0.628 -0.171,0.984 0,0.301 0.046,0.566 0.14,0.797 0.094,0.238 0.219,0.441 0.375,0.609 0.156,0.164 0.332,0.297 0.531,0.391 0.207,0.101 0.422,0.172 0.641,0.203 l 0,0.031 c -0.23,0.051 -0.437,0.133 -0.625,0.25 -0.18,0.113 -0.336,0.254 -0.469,0.422 -0.125,0.164 -0.226,0.348 -0.297,0.547 -0.062,0.195 -0.093,0.406 -0.093,0.625 0,0.332 0.054,0.633 0.172,0.906 0.125,0.27 0.3,0.5 0.531,0.688 0.226,0.187 0.515,0.332 0.859,0.437 0.344,0.102 0.738,0.156 1.188,0.156 0.476,0 0.89,-0.054 1.234,-0.156 0.352,-0.105 0.641,-0.258 0.859,-0.453 0.227,-0.187 0.395,-0.418 0.5,-0.687 0.114,-0.274 0.172,-0.571 0.172,-0.891 0,-0.219 -0.039,-0.434 -0.109,-0.641 -0.063,-0.199 -0.156,-0.383 -0.281,-0.547 -0.125,-0.156 -0.282,-0.293 -0.469,-0.406 -0.188,-0.117 -0.402,-0.195 -0.641,-0.234 l 0,-0.031 c 0.25,-0.043 0.477,-0.118 0.688,-0.219 0.207,-0.094 0.383,-0.227 0.531,-0.391 0.156,-0.168 0.273,-0.371 0.359,-0.609 0.094,-0.231 0.141,-0.492 0.141,-0.781 z m -1.906,3.765 c 0,0.164 -0.024,0.317 -0.063,0.453 -0.031,0.133 -0.09,0.254 -0.172,0.36 -0.074,0.101 -0.183,0.179 -0.328,0.234 -0.136,0.051 -0.308,0.078 -0.515,0.078 -0.211,0 -0.383,-0.027 -0.516,-0.078 -0.137,-0.055 -0.246,-0.133 -0.328,-0.234 -0.086,-0.106 -0.149,-0.227 -0.188,-0.36 -0.031,-0.136 -0.046,-0.289 -0.046,-0.453 0,-0.148 0.015,-0.293 0.046,-0.437 0.032,-0.137 0.082,-0.262 0.157,-0.375 0.082,-0.106 0.191,-0.196 0.328,-0.266 0.144,-0.074 0.328,-0.109 0.547,-0.109 0.238,0 0.425,0.035 0.562,0.109 0.145,0.07 0.254,0.164 0.328,0.281 0.082,0.114 0.133,0.239 0.157,0.375 0.019,0.145 0.031,0.285 0.031,0.422 z m 0.187,-3.625 c 0,0.164 -0.023,0.328 -0.062,0.485 -0.031,0.156 -0.094,0.289 -0.188,0.406 -0.093,0.125 -0.226,0.219 -0.39,0.281 -0.168,0.07 -0.383,0.109 -0.641,0.109 -0.242,0 -0.437,-0.039 -0.594,-0.109 -0.156,-0.062 -0.281,-0.156 -0.375,-0.281 -0.093,-0.125 -0.164,-0.266 -0.203,-0.422 -0.043,-0.156 -0.062,-0.324 -0.062,-0.5 0,-0.211 0.019,-0.402 0.062,-0.578 0.039,-0.168 0.11,-0.313 0.203,-0.438 0.102,-0.117 0.235,-0.211 0.391,-0.281 0.164,-0.062 0.375,-0.094 0.625,-0.094 0.25,0 0.453,0.032 0.609,0.094 0.157,0.07 0.282,0.172 0.375,0.297 0.094,0.125 0.157,0.269 0.188,0.437 0.039,0.176 0.062,0.375 0.062,0.594 z" /><path
         id="path114"
         style="fill:#000000;fill-opacity:1;fill-rule:nonzero;stroke:none"
         d="m 154.898,40.259 -6.625,0 0,1.219 4.469,5.687 -4.031,0 0,1.344 5.953,0 0,-1.187 -4.469,-5.704 4.703,0 0,-1.359 z" /><path
         id="path116"
         style="fill:#000000;fill-opacity:1;fill-rule:nonzero;stroke:none"
         d="m 155.812,40.259 0,1.141 c 0.188,0.414 0.411,0.785 0.672,1.109 0.27,0.332 0.551,0.633 0.844,0.906 0.301,0.282 0.598,0.535 0.891,0.766 0.289,0.238 0.551,0.469 0.781,0.687 0.238,0.227 0.426,0.454 0.562,0.672 0.145,0.219 0.219,0.453 0.219,0.703 0,0.375 -0.093,0.645 -0.281,0.813 -0.18,0.176 -0.445,0.266 -0.797,0.266 -0.355,0 -0.625,-0.094 -0.812,-0.282 -0.18,-0.187 -0.297,-0.468 -0.36,-0.843 l -1.656,0.093 c 0.039,0.321 0.117,0.625 0.234,0.907 0.125,0.281 0.297,0.531 0.516,0.75 0.227,0.218 0.508,0.382 0.844,0.5 0.343,0.125 0.75,0.187 1.219,0.187 0.445,0 0.843,-0.055 1.187,-0.156 0.344,-0.106 0.629,-0.258 0.859,-0.453 0.239,-0.2 0.414,-0.446 0.532,-0.735 0.125,-0.281 0.187,-0.605 0.187,-0.968 0,-0.387 -0.078,-0.735 -0.234,-1.047 -0.149,-0.313 -0.34,-0.606 -0.578,-0.875 -0.243,-0.262 -0.508,-0.508 -0.797,-0.735 -0.293,-0.23 -0.574,-0.453 -0.844,-0.672 -0.273,-0.218 -0.523,-0.445 -0.75,-0.671 -0.219,-0.219 -0.387,-0.454 -0.5,-0.704 l 3.828,0 0,-1.359 -5.766,0 z" /><path
         id="path118"
         style="fill:#000000;fill-opacity:1;fill-rule:nonzero;stroke:none"
         d="m 85.75,83.064 2.039,0 0,-2.039 -2.039,0 0,2.039 z" /><path
         id="path120"
         style="fill:#000000;fill-opacity:1;fill-rule:nonzero;stroke:none"
         d="m 24.598,83.064 2.039,0 0,-2.039 -2.039,0 0,2.039 z" /><g
         transform="matrix(0,-1,-1,0,0,326.65359)"
         id="g122"><path
           id="path124"
           style="fill:none;stroke:#000000;stroke-width:2.03839993;stroke-linecap:round;stroke-linejoin:round;stroke-miterlimit:10;stroke-dasharray:none;stroke-opacity:1"
           d="m 242.707,-66.387 c -3.086,0.008 -5.598,-2.261 -5.605,-5.082 -0.008,-2.816 2.492,-5.101 5.578,-5.109 l 0.015,0" /></g><g
         transform="matrix(0,-1,-1,0,0,326.65359)"
         id="g126"><path
           id="path128"
           style="fill:none;stroke:#000000;stroke-width:2.03839993;stroke-linecap:round;stroke-linejoin:round;stroke-miterlimit:10;stroke-dasharray:none;stroke-opacity:1"
           d="m 242.57,-76.578 2.039,0" /></g><g
         transform="matrix(0,-1,-1,0,0,326.65359)"
         id="g130"><path
           id="path132"
           style="fill:none;stroke:#000000;stroke-width:2.03839993;stroke-linecap:round;stroke-linejoin:round;stroke-miterlimit:10;stroke-dasharray:none;stroke-opacity:1"
           d="m 242.57,-66.387 2.039,0" /></g><g
         transform="matrix(0,-1,-1,0,0,326.65359)"
         id="g134"><path
           id="path136"
           style="fill:none;stroke:#000000;stroke-width:2.03839993;stroke-linecap:round;stroke-linejoin:round;stroke-miterlimit:10;stroke-dasharray:none;stroke-opacity:1"
           d="m 242.707,-56.195 c -3.086,0.007 -5.598,-2.262 -5.605,-5.078 -0.008,-2.821 2.492,-5.106 5.578,-5.114 l 0.015,0" /></g><g
         transform="matrix(0,-1,-1,0,0,326.65359)"
         id="g138"><path
           id="path140"
           style="fill:none;stroke:#000000;stroke-width:2.03839993;stroke-linecap:round;stroke-linejoin:round;stroke-miterlimit:10;stroke-dasharray:none;stroke-opacity:1"
           d="m 242.57,-66.387 2.039,0" /></g><g
         transform="matrix(0,-1,-1,0,0,326.65359)"
         id="g142"><path
           id="path144"
           style="fill:none;stroke:#000000;stroke-width:2.03839993;stroke-linecap:round;stroke-linejoin:round;stroke-miterlimit:10;stroke-dasharray:none;stroke-opacity:1"
           d="m 242.57,-56.195 2.039,0" /></g><g
         transform="matrix(0,-1,-1,0,0,326.65359)"
         id="g146"><path
           id="path148"
           style="fill:none;stroke:#000000;stroke-width:2.03839993;stroke-linecap:round;stroke-linejoin:round;stroke-miterlimit:10;stroke-dasharray:none;stroke-opacity:1"
           d="m 242.707,-46 c -3.086,0.004 -5.598,-2.266 -5.605,-5.082 -0.008,-2.82 2.492,-5.106 5.578,-5.113 l 0.015,0" /></g><g
         transform="matrix(0,-1,-1,0,0,326.65359)"
         id="g150"><path
           id="path152"
           style="fill:none;stroke:#000000;stroke-width:2.03839993;stroke-linecap:round;stroke-linejoin:round;stroke-miterlimit:10;stroke-dasharray:none;stroke-opacity:1"
           d="m 242.57,-56.195 2.039,0" /></g><g
         transform="matrix(0,-1,-1,0,0,326.65359)"
         id="g154"><path
           id="path156"
           style="fill:none;stroke:#000000;stroke-width:2.03839993;stroke-linecap:round;stroke-linejoin:round;stroke-miterlimit:10;stroke-dasharray:none;stroke-opacity:1"
           d="m 242.57,-46 2.039,0" /></g><g
         transform="matrix(0,-1,-1,0,0,326.65359)"
         id="g158"><path
           id="path160"
           style="fill:none;stroke:#000000;stroke-width:2.03839993;stroke-linecap:round;stroke-linejoin:round;stroke-miterlimit:10;stroke-dasharray:none;stroke-opacity:1"
           d="m 242.707,-35.809 c -3.086,0.008 -5.598,-2.265 -5.605,-5.082 -0.008,-2.816 2.492,-5.105 5.578,-5.109 l 0.015,0" /></g><g
         transform="matrix(0,-1,-1,0,0,326.65359)"
         id="g162"><path
           id="path164"
           style="fill:none;stroke:#000000;stroke-width:2.03839993;stroke-linecap:round;stroke-linejoin:round;stroke-miterlimit:10;stroke-dasharray:none;stroke-opacity:1"
           d="m 242.57,-46 2.039,0" /></g><g
         transform="matrix(0,-1,-1,0,0,326.65359)"
         id="g166"><path
           id="path168"
           style="fill:none;stroke:#000000;stroke-width:2.03839993;stroke-linecap:round;stroke-linejoin:round;stroke-miterlimit:10;stroke-dasharray:none;stroke-opacity:1"
           d="m 242.57,-35.809 2.039,0" /></g><g
         transform="matrix(0,-1,-1,0,0,326.65359)"
         id="g170"><path
           id="path172"
           style="fill:none;stroke:#000000;stroke-width:2.03839993;stroke-linecap:square;stroke-linejoin:miter;stroke-miterlimit:10;stroke-dasharray:none;stroke-opacity:1"
           d="m 244.609,-85.75 0,8.152" /></g><g
         transform="matrix(0,-1,-1,0,0,326.65359)"
         id="g174"><path
           id="path176"
           style="fill:none;stroke:#000000;stroke-width:2.03839993;stroke-linecap:square;stroke-linejoin:miter;stroke-miterlimit:10;stroke-dasharray:none;stroke-opacity:1"
           d="m 244.609,-34.789 0,8.152" /></g><path
         id="path178"
         style="fill:#000000;fill-opacity:1;fill-rule:nonzero;stroke:none"
         d="m 52.469,61.154 -6.625,0 0,1.218 4.468,5.688 -4.031,0 0,1.344 5.953,0 0,-1.188 -4.468,-5.703 4.703,0 0,-1.359 z" /><path
         id="path180"
         style="fill:#000000;fill-opacity:1;fill-rule:nonzero;stroke:none"
         d="m 53.711,61.154 0,1.218 2.047,0 0,5.641 -1.969,-1.234 0,1.296 2.063,1.329 1.562,0 0,-7.032 1.891,0 0,-1.218 -5.594,0 z" /><path
         id="path182"
         style="fill:#000000;fill-opacity:1;fill-rule:nonzero;stroke:none"
         d="m 14.406,83.064 2.039,0 0,-2.039 -2.039,0 0,2.039 z" /><g
         transform="matrix(0,1,1,0,0,326.65359)"
         id="g184"><path
           id="path186"
           style="fill:#ffffff;fill-opacity:1;fill-rule:nonzero;stroke:#000000;stroke-width:2.03839993;stroke-linecap:butt;stroke-linejoin:miter;stroke-miterlimit:4;stroke-dasharray:none;stroke-opacity:1"
           d="m -240.395,5.234 c 0,2.328 -1.886,4.215 -4.214,4.215 -2.325,0 -4.215,-1.887 -4.215,-4.215 0,-2.328 1.89,-4.214 4.215,-4.214 2.328,0 4.214,1.886 4.214,4.214 z" /></g><g
         transform="matrix(0,1,1,0,0,326.65359)"
         id="g188"><path
           id="path190"
           style="fill:none;stroke:#000000;stroke-width:2.03839993;stroke-linecap:square;stroke-linejoin:miter;stroke-miterlimit:10;stroke-dasharray:none;stroke-opacity:1"
           d="m -244.609,10.328 0,4.078" /></g><path
         id="path192"
         style="fill:#000000;fill-opacity:1;fill-rule:nonzero;stroke:none"
         d="m 14.406,11.72 2.039,0 0,-2.039 -2.039,0 0,2.039 z" /><g
         transform="matrix(0,1,1,0,0,326.65359)"
         id="g194"><path
           id="path196"
           style="fill:#ffffff;fill-opacity:1;fill-rule:nonzero;stroke:#000000;stroke-width:2.03839993;stroke-linecap:butt;stroke-linejoin:miter;stroke-miterlimit:4;stroke-dasharray:none;stroke-opacity:1"
           d="m -311.738,5.234 c 0,2.328 -1.887,4.215 -4.215,4.215 -2.328,0 -4.215,-1.887 -4.215,-4.215 0,-2.328 1.887,-4.214 4.215,-4.214 2.328,0 4.215,1.886 4.215,4.214 z" /></g><g
         transform="matrix(0,1,1,0,0,326.65359)"
         id="g198"><path
           id="path200"
           style="fill:none;stroke:#000000;stroke-width:2.03839993;stroke-linecap:square;stroke-linejoin:miter;stroke-miterlimit:10;stroke-dasharray:none;stroke-opacity:1"
           d="m -315.953,10.328 0,4.078" /></g><path
         id="path202"
         style="fill:#000000;fill-opacity:1;fill-rule:nonzero;stroke:none"
         d="m 14.406,195.177 2.039,0 0,-2.039 -2.039,0 0,2.039 z" /><g
         transform="matrix(0,1,1,0,0,326.65359)"
         id="g204"><path
           id="path206"
           style="fill:#ffffff;fill-opacity:1;fill-rule:nonzero;stroke:#000000;stroke-width:2.03839993;stroke-linecap:butt;stroke-linejoin:miter;stroke-miterlimit:4;stroke-dasharray:none;stroke-opacity:1"
           d="m -128.281,5.234 c 0,2.328 -1.887,4.215 -4.215,4.215 -2.328,0 -4.215,-1.887 -4.215,-4.215 0,-2.328 1.887,-4.214 4.215,-4.214 2.328,0 4.215,1.886 4.215,4.214 z" /></g><g
         transform="matrix(0,1,1,0,0,326.65359)"
         id="g208"><path
           id="path210"
           style="fill:none;stroke:#000000;stroke-width:2.03839993;stroke-linecap:square;stroke-linejoin:miter;stroke-miterlimit:10;stroke-dasharray:none;stroke-opacity:1"
           d="m -132.496,10.328 0,4.078" /></g><path
         id="path212"
         style="fill:#000000;fill-opacity:1;fill-rule:nonzero;stroke:none"
         d="m 14.406,266.521 2.039,0 0,-2.039 -2.039,0 0,2.039 z" /><g
         transform="matrix(0,1,1,0,0,326.65359)"
         id="g214"><path
           id="path216"
           style="fill:#ffffff;fill-opacity:1;fill-rule:nonzero;stroke:#000000;stroke-width:2.03839993;stroke-linecap:butt;stroke-linejoin:miter;stroke-miterlimit:4;stroke-dasharray:none;stroke-opacity:1"
           d="m -56.938,5.234 c 0,2.328 -1.886,4.215 -4.214,4.215 -2.328,0 -4.215,-1.887 -4.215,-4.215 0,-2.328 1.887,-4.214 4.215,-4.214 2.328,0 4.214,1.886 4.214,4.214 z" /></g><g
         transform="matrix(0,1,1,0,0,326.65359)"
         id="g218"><path
           id="path220"
           style="fill:none;stroke:#000000;stroke-width:2.03839993;stroke-linecap:square;stroke-linejoin:miter;stroke-miterlimit:10;stroke-dasharray:none;stroke-opacity:1"
           d="m -61.152,10.328 0,4.078" /></g><g
         transform="matrix(1,0,0,-1,0,326.65359)"
         id="g222"><path
           id="path224"
           style="fill:none;stroke:#000000;stroke-width:2.03839993;stroke-linecap:butt;stroke-linejoin:miter;stroke-miterlimit:10;stroke-dasharray:none;stroke-opacity:1"
           d="m 15.426,132.496 71.344,0" /></g><g
         transform="matrix(1,0,0,-1,0,326.65359)"
         id="g226"><path
           id="path228"
           style="fill:none;stroke:#000000;stroke-width:2.03839993;stroke-linecap:butt;stroke-linejoin:miter;stroke-miterlimit:10;stroke-dasharray:none;stroke-opacity:1"
           d="m 15.426,61.152 71.344,0" /></g><g
         transform="matrix(1,0,0,-1,0,326.65359)"
         id="g230"><path
           id="path232"
           style="fill:none;stroke:#000000;stroke-width:2.03839993;stroke-linecap:butt;stroke-linejoin:miter;stroke-miterlimit:10;stroke-dasharray:none;stroke-opacity:1"
           d="m 56.195,71.344 0,-10.192 0,2.039" /></g><g
         transform="matrix(1,0,0,-1,0,326.65359)"
         id="g234"><path
           id="path236"
           style="fill:#000000;fill-opacity:1;fill-rule:nonzero;stroke:#000000;stroke-width:2.03839993;stroke-linecap:butt;stroke-linejoin:miter;stroke-miterlimit:4;stroke-dasharray:none;stroke-opacity:1"
           d="m 58.23,61.152 c 0,1.125 -0.91,2.039 -2.035,2.039 -1.129,0 -2.039,-0.914 -2.039,-2.039 0,-1.125 0.91,-2.039 2.039,-2.039 1.125,0 2.035,0.914 2.035,2.039 z" /></g><g
         transform="matrix(1,0,0,-1,0,326.65359)"
         id="g238"><path
           id="path240"
           style="fill:none;stroke:#000000;stroke-width:2.03839993;stroke-linecap:butt;stroke-linejoin:miter;stroke-miterlimit:10;stroke-dasharray:none;stroke-opacity:1"
           d="m 56.195,122.305 0,10.191 0,-2.039" /></g><g
         transform="matrix(1,0,0,-1,0,326.65359)"
         id="g242"><path
           id="path244"
           style="fill:#000000;fill-opacity:1;fill-rule:nonzero;stroke:#000000;stroke-width:2.03839993;stroke-linecap:butt;stroke-linejoin:miter;stroke-miterlimit:4;stroke-dasharray:none;stroke-opacity:1"
           d="m 58.23,132.496 c 0,1.125 -0.91,2.039 -2.035,2.039 -1.129,0 -2.039,-0.914 -2.039,-2.039 0,-1.125 0.91,-2.039 2.039,-2.039 1.125,0 2.035,0.914 2.035,2.039 z" /></g><g
         transform="matrix(1,0,0,-1,0,326.65359)"
         id="g246"><path
           id="path248"
           style="fill:none;stroke:#000000;stroke-width:2.03839993;stroke-linecap:butt;stroke-linejoin:miter;stroke-miterlimit:10;stroke-dasharray:none;stroke-opacity:1"
           d="m 15.426,244.609 10.191,0" /></g><g
         transform="matrix(1,0,0,-1,0,326.65359)"
         id="g250"><path
           id="path252"
           style="fill:none;stroke:#000000;stroke-width:2.03839993;stroke-linecap:butt;stroke-linejoin:miter;stroke-miterlimit:10;stroke-dasharray:none;stroke-opacity:1"
           d="m 15.426,315.953 71.344,0" /></g><path
         id="path254"
         style="fill:#000000;fill-opacity:1;fill-rule:nonzero;stroke:none"
         d="m 218.246,195.177 2.039,0 0,-2.039 -2.039,0 0,2.039 z" /><g
         transform="matrix(0,-1,-1,0,0,326.65359)"
         id="g256"><path
           id="path258"
           style="fill:#ffffff;fill-opacity:1;fill-rule:nonzero;stroke:#000000;stroke-width:2.03839993;stroke-linecap:butt;stroke-linejoin:miter;stroke-miterlimit:4;stroke-dasharray:none;stroke-opacity:1"
           d="m 136.711,-229.457 c 0,2.328 -1.887,4.215 -4.215,4.215 -2.328,0 -4.215,-1.887 -4.215,-4.215 0,-2.328 1.887,-4.215 4.215,-4.215 2.328,0 4.215,1.887 4.215,4.215 z" /></g><g
         transform="matrix(0,-1,-1,0,0,326.65359)"
         id="g260"><path
           id="path262"
           style="fill:none;stroke:#000000;stroke-width:2.03839993;stroke-linecap:square;stroke-linejoin:miter;stroke-miterlimit:10;stroke-dasharray:none;stroke-opacity:1"
           d="m 132.496,-224.363 0,4.078" /></g><path
         id="path264"
         style="fill:#000000;fill-opacity:1;fill-rule:nonzero;stroke:none"
         d="m 218.246,266.521 2.039,0 0,-2.039 -2.039,0 0,2.039 z" /><g
         transform="matrix(0,-1,-1,0,0,326.65359)"
         id="g266"><path
           id="path268"
           style="fill:#ffffff;fill-opacity:1;fill-rule:nonzero;stroke:#000000;stroke-width:2.03839993;stroke-linecap:butt;stroke-linejoin:miter;stroke-miterlimit:4;stroke-dasharray:none;stroke-opacity:1"
           d="m 65.367,-229.457 c 0,2.328 -1.887,4.215 -4.215,4.215 -2.328,0 -4.214,-1.887 -4.214,-4.215 0,-2.328 1.886,-4.215 4.214,-4.215 2.328,0 4.215,1.887 4.215,4.215 z" /></g><g
         transform="matrix(0,-1,-1,0,0,326.65359)"
         id="g270"><path
           id="path272"
           style="fill:none;stroke:#000000;stroke-width:2.03839993;stroke-linecap:square;stroke-linejoin:miter;stroke-miterlimit:10;stroke-dasharray:none;stroke-opacity:1"
           d="m 61.152,-224.363 0,4.078" /></g><path
         id="path274"
         style="fill:#000000;fill-opacity:1;fill-rule:nonzero;stroke:none"
         d="m 218.246,83.064 2.039,0 0,-2.039 -2.039,0 0,2.039 z" /><g
         transform="matrix(0,-1,-1,0,0,326.65359)"
         id="g276"><path
           id="path278"
           style="fill:#ffffff;fill-opacity:1;fill-rule:nonzero;stroke:#000000;stroke-width:2.03839993;stroke-linecap:butt;stroke-linejoin:miter;stroke-miterlimit:4;stroke-dasharray:none;stroke-opacity:1"
           d="m 248.824,-229.457 c 0,2.328 -1.89,4.215 -4.215,4.215 -2.328,0 -4.214,-1.887 -4.214,-4.215 0,-2.328 1.886,-4.215 4.214,-4.215 2.325,0 4.215,1.887 4.215,4.215 z" /></g><g
         transform="matrix(0,-1,-1,0,0,326.65359)"
         id="g280"><path
           id="path282"
           style="fill:none;stroke:#000000;stroke-width:2.03839993;stroke-linecap:square;stroke-linejoin:miter;stroke-miterlimit:10;stroke-dasharray:none;stroke-opacity:1"
           d="m 244.609,-224.363 0,4.078" /></g><path
         id="path284"
         style="fill:#000000;fill-opacity:1;fill-rule:nonzero;stroke:none"
         d="m 218.246,11.72 2.039,0 0,-2.039 -2.039,0 0,2.039 z" /><g
         transform="matrix(0,-1,-1,0,0,326.65359)"
         id="g286"><path
           id="path288"
           style="fill:#ffffff;fill-opacity:1;fill-rule:nonzero;stroke:#000000;stroke-width:2.03839993;stroke-linecap:butt;stroke-linejoin:miter;stroke-miterlimit:4;stroke-dasharray:none;stroke-opacity:1"
           d="m 320.168,-229.457 c 0,2.328 -1.887,4.215 -4.215,4.215 -2.328,0 -4.215,-1.887 -4.215,-4.215 0,-2.328 1.887,-4.215 4.215,-4.215 2.328,0 4.215,1.887 4.215,4.215 z" /></g><g
         transform="matrix(0,-1,-1,0,0,326.65359)"
         id="g290"><path
           id="path292"
           style="fill:none;stroke:#000000;stroke-width:2.03839993;stroke-linecap:square;stroke-linejoin:miter;stroke-miterlimit:10;stroke-dasharray:none;stroke-opacity:1"
           d="m 315.953,-224.363 0,4.078" /></g><path
         id="path294"
         style="fill:#000000;fill-opacity:1;fill-rule:nonzero;stroke:none"
         d="m 282.621,316.462 0,3.563 c 0,0.238 -0.023,0.461 -0.062,0.672 -0.043,0.207 -0.11,0.382 -0.204,0.531 -0.085,0.144 -0.199,0.258 -0.343,0.344 -0.149,0.082 -0.324,0.125 -0.532,0.125 -0.199,0 -0.382,-0.047 -0.546,-0.141 -0.157,-0.086 -0.297,-0.211 -0.422,-0.375 -0.117,-0.156 -0.203,-0.352 -0.266,-0.578 -0.062,-0.231 -0.094,-0.477 -0.094,-0.735 l 0,-3.406 -1.64,0 0,4.922 c 0,0.133 -0.008,0.274 -0.016,0.422 0,0.144 -0.008,0.281 -0.016,0.406 0,0.133 -0.007,0.254 -0.015,0.36 0,0.101 0,0.179 0,0.234 l 1.562,0 c 0.008,-0.055 0.016,-0.133 0.016,-0.234 0.008,-0.106 0.019,-0.219 0.031,-0.344 0.008,-0.125 0.016,-0.25 0.016,-0.375 0.008,-0.125 0.015,-0.231 0.015,-0.313 l 0.032,0 c 0.218,0.489 0.492,0.844 0.828,1.063 0.332,0.219 0.734,0.328 1.203,0.328 0.383,0 0.707,-0.063 0.969,-0.188 0.258,-0.125 0.472,-0.296 0.64,-0.515 0.164,-0.219 0.285,-0.481 0.36,-0.781 0.082,-0.293 0.125,-0.61 0.125,-0.954 l 0,-4.031 -1.641,0 z" /><path
         id="path296"
         style="fill:#000000;fill-opacity:1;fill-rule:nonzero;stroke:none"
         d="m 285.457,320.525 -0.016,0.718 c 0.102,0.207 0.227,0.391 0.375,0.547 0.145,0.157 0.297,0.297 0.454,0.422 0.164,0.125 0.332,0.238 0.5,0.344 0.164,0.102 0.312,0.203 0.437,0.297 0.133,0.101 0.242,0.207 0.328,0.312 0.082,0.114 0.125,0.239 0.125,0.375 0,0.164 -0.043,0.297 -0.125,0.391 -0.074,0.094 -0.195,0.141 -0.359,0.141 -0.336,0 -0.516,-0.196 -0.547,-0.579 l -1.141,0.032 c 0.02,0.187 0.071,0.359 0.157,0.515 0.082,0.157 0.191,0.289 0.328,0.407 0.144,0.113 0.316,0.203 0.515,0.265 0.196,0.071 0.426,0.11 0.688,0.11 0.281,0 0.519,-0.032 0.719,-0.094 0.207,-0.063 0.378,-0.153 0.515,-0.266 0.133,-0.105 0.235,-0.234 0.297,-0.39 0.07,-0.149 0.109,-0.309 0.109,-0.485 0,-0.211 -0.046,-0.39 -0.14,-0.547 -0.086,-0.156 -0.196,-0.297 -0.328,-0.422 -0.125,-0.125 -0.274,-0.242 -0.438,-0.343 -0.156,-0.106 -0.312,-0.211 -0.469,-0.313 -0.148,-0.094 -0.281,-0.195 -0.406,-0.297 -0.125,-0.093 -0.215,-0.203 -0.265,-0.328 l 2.125,0 0,-0.812 -3.438,0 z" /><path
         id="path298"
         style="fill:#000000;fill-opacity:1;fill-rule:nonzero;stroke:none"
         d="m 289.727,321.4 0,1.297 6.015,0 0,-1.297 -6.015,0 z m 0,-3.235 0,1.297 6.015,0 0,-1.297 -6.015,0 z" /><path
         id="path300"
         style="fill:#000000;fill-opacity:1;fill-rule:nonzero;stroke:none"
         d="m 297.121,316.462 0,1.219 2.047,0 0,5.641 -1.969,-1.235 0,1.297 2.063,1.328 1.562,0 0,-7.031 1.891,0 0,-1.219 -5.594,0 z" /><path
         id="path302"
         style="fill:#000000;fill-opacity:1;fill-rule:nonzero;stroke:none"
         d="m 307.352,319.79 0,-2.39 -1.329,0 0,2.39 -2.343,0 0,1.313 2.343,0 0,2.39 1.329,0 0,-2.39 2.343,0 0,-1.313 -2.343,0 z" /><path
         id="path304"
         style="fill:#000000;fill-opacity:1;fill-rule:nonzero;stroke:none"
         d="m 317.305,316.462 -6.625,0 0,1.219 4.468,5.687 -4.031,0 0,1.344 5.953,0 0,-1.187 -4.468,-5.703 4.703,0 0,-1.36 z" /><path
         id="path306"
         style="fill:#000000;fill-opacity:1;fill-rule:nonzero;stroke:none"
         d="m 318.219,316.462 0,1.141 c 0.187,0.414 0.41,0.785 0.672,1.109 0.269,0.332 0.55,0.633 0.843,0.906 0.301,0.282 0.598,0.536 0.891,0.766 0.289,0.238 0.551,0.469 0.781,0.688 0.239,0.226 0.426,0.453 0.563,0.671 0.144,0.219 0.219,0.454 0.219,0.704 0,0.375 -0.094,0.644 -0.282,0.812 -0.179,0.176 -0.445,0.266 -0.797,0.266 -0.355,0 -0.625,-0.094 -0.812,-0.282 -0.18,-0.187 -0.297,-0.468 -0.359,-0.843 l -1.657,0.093 c 0.039,0.321 0.117,0.625 0.235,0.907 0.125,0.281 0.296,0.531 0.515,0.75 0.227,0.218 0.508,0.383 0.844,0.5 0.344,0.125 0.75,0.187 1.219,0.187 0.445,0 0.844,-0.054 1.187,-0.156 0.344,-0.106 0.629,-0.258 0.86,-0.453 0.238,-0.199 0.414,-0.445 0.531,-0.735 0.125,-0.281 0.187,-0.605 0.187,-0.968 0,-0.387 -0.078,-0.735 -0.234,-1.047 -0.148,-0.313 -0.34,-0.606 -0.578,-0.875 -0.242,-0.262 -0.508,-0.508 -0.797,-0.735 -0.293,-0.23 -0.574,-0.453 -0.844,-0.671 -0.273,-0.219 -0.523,-0.446 -0.75,-0.672 -0.218,-0.219 -0.386,-0.453 -0.5,-0.703 l 3.828,0 0,-1.36 -5.765,0 z" /><path
         id="path308"
         style="fill:#000000;fill-opacity:1;fill-rule:nonzero;stroke:none"
         d="m 324.73,316.228 1.704,8.937 1.39,0 -1.672,-8.937 -1.422,0 z" /><path
         id="path310"
         style="fill:#000000;fill-opacity:1;fill-rule:nonzero;stroke:none"
         d="m 334.98,316.462 -6.625,0 0,1.219 4.469,5.687 -4.031,0 0,1.344 5.953,0 0,-1.187 -4.469,-5.703 4.703,0 0,-1.36 z" /><path
         id="path312"
         style="fill:#000000;fill-opacity:1;fill-rule:nonzero;stroke:none"
         d="m 336.223,316.462 0,1.219 2.047,0 0,5.641 -1.969,-1.235 0,1.297 2.062,1.328 1.563,0 0,-7.031 1.89,0 0,-1.219 -5.593,0 z" /><g
         transform="matrix(1,0,0,-1,0,326.65359)"
         id="g314"><path
           id="path316"
           style="fill:#ffffff;fill-opacity:1;fill-rule:nonzero;stroke:#000000;stroke-width:1.01919997;stroke-linecap:butt;stroke-linejoin:miter;stroke-miterlimit:4;stroke-dasharray:none;stroke-opacity:1"
           d="m 402.723,50.961 91.727,0 0,91.727 -91.727,0 0,-91.727 z" /></g><path
         id="path318"
         style="fill:#000000;fill-opacity:1;fill-rule:nonzero;stroke:none"
         d="m 513.812,266.521 2.039,0 0,-2.039 -2.039,0 0,2.039 z" /><g
         transform="matrix(1,0,0,-1,0,326.65359)"
         id="g320"><path
           id="path322"
           style="fill:none;stroke:#000000;stroke-width:2.03839993;stroke-linecap:square;stroke-linejoin:miter;stroke-miterlimit:10;stroke-dasharray:none;stroke-opacity:1"
           d="m 495.469,61.152 18.343,0" /></g><path
         id="path324"
         style="fill:#000000;fill-opacity:1;fill-rule:nonzero;stroke:none"
         d="m 381.32,266.521 2.035,0 0,-2.039 -2.035,0 0,2.039 z" /><g
         transform="matrix(1,0,0,-1,0,326.65359)"
         id="g326"><path
           id="path328"
           style="fill:none;stroke:#000000;stroke-width:2.03839993;stroke-linecap:square;stroke-linejoin:miter;stroke-miterlimit:10;stroke-dasharray:none;stroke-opacity:1"
           d="m 383.355,61.152 18.348,0" /></g><path
         id="path330"
         style="fill:#000000;fill-opacity:1;fill-rule:nonzero;stroke:none"
         d="m 513.812,195.177 2.039,0 0,-2.039 -2.039,0 0,2.039 z" /><g
         transform="matrix(1,0,0,-1,0,326.65359)"
         id="g332"><path
           id="path334"
           style="fill:none;stroke:#000000;stroke-width:2.03839993;stroke-linecap:square;stroke-linejoin:miter;stroke-miterlimit:10;stroke-dasharray:none;stroke-opacity:1"
           d="m 495.469,132.496 18.343,0" /></g><path
         id="path336"
         style="fill:#000000;fill-opacity:1;fill-rule:nonzero;stroke:none"
         d="m 381.32,195.177 2.035,0 0,-2.039 -2.035,0 0,2.039 z" /><g
         transform="matrix(1,0,0,-1,0,326.65359)"
         id="g338"><path
           id="path340"
           style="fill:none;stroke:#000000;stroke-width:2.03839993;stroke-linecap:square;stroke-linejoin:miter;stroke-miterlimit:10;stroke-dasharray:none;stroke-opacity:1"
           d="m 383.355,132.496 18.348,0" /></g><path
         id="path342"
         style="fill:#000000;fill-opacity:1;fill-rule:nonzero;stroke:none"
         d="m 449.641,284.865 -1.735,0 -0.797,2.703 c -0.011,0.05 -0.031,0.117 -0.062,0.203 -0.024,0.094 -0.047,0.191 -0.078,0.297 -0.031,0.113 -0.071,0.234 -0.11,0.359 -0.031,0.125 -0.062,0.238 -0.093,0.344 -0.024,0.113 -0.043,0.219 -0.063,0.312 -0.023,0.094 -0.039,0.172 -0.047,0.235 -0.031,-0.106 -0.074,-0.246 -0.125,-0.422 -0.054,-0.168 -0.109,-0.344 -0.172,-0.531 -0.062,-0.188 -0.125,-0.372 -0.187,-0.547 -0.063,-0.18 -0.121,-0.325 -0.172,-0.438 l -1.062,-2.515 -1.75,0 2.781,5.89 -0.157,0.438 c -0.105,0.269 -0.199,0.5 -0.281,0.687 -0.086,0.188 -0.168,0.336 -0.25,0.453 -0.086,0.114 -0.172,0.196 -0.265,0.25 -0.094,0.063 -0.204,0.094 -0.328,0.094 -0.086,0 -0.18,-0.016 -0.282,-0.047 -0.105,-0.023 -0.195,-0.047 -0.265,-0.078 l -0.282,1.141 c 0.114,0.039 0.27,0.078 0.469,0.109 0.195,0.039 0.406,0.063 0.625,0.063 0.313,0 0.582,-0.043 0.813,-0.125 0.226,-0.086 0.425,-0.215 0.593,-0.391 0.176,-0.18 0.332,-0.406 0.469,-0.688 0.145,-0.273 0.285,-0.601 0.422,-0.984 l 2.391,-6.812 z" /><path
         id="path344"
         style="fill:#000000;fill-opacity:1;fill-rule:nonzero;stroke:none"
         d="m 450.07,284.63 1.703,8.938 1.391,0 -1.672,-8.938 -1.422,0 z" /><path
         id="path346"
         style="fill:#000000;fill-opacity:1;fill-rule:nonzero;stroke:none"
         d="m 459.652,287.193 c 0,-0.356 -0.062,-0.684 -0.187,-0.985 -0.117,-0.304 -0.293,-0.562 -0.531,-0.781 -0.243,-0.211 -0.547,-0.375 -0.922,-0.5 -0.375,-0.125 -0.821,-0.187 -1.328,-0.187 -0.512,0 -0.954,0.062 -1.329,0.187 -0.367,0.125 -0.671,0.289 -0.921,0.5 -0.243,0.219 -0.422,0.473 -0.547,0.766 -0.117,0.3 -0.172,0.629 -0.172,0.984 0,0.301 0.047,0.566 0.14,0.797 0.094,0.238 0.219,0.441 0.375,0.609 0.157,0.164 0.332,0.297 0.532,0.391 0.207,0.101 0.422,0.172 0.64,0.203 l 0,0.031 c -0.23,0.051 -0.437,0.133 -0.625,0.25 -0.179,0.114 -0.336,0.254 -0.468,0.422 -0.125,0.164 -0.227,0.348 -0.297,0.547 -0.063,0.195 -0.094,0.406 -0.094,0.625 0,0.332 0.055,0.633 0.172,0.906 0.125,0.27 0.301,0.5 0.531,0.688 0.227,0.187 0.516,0.332 0.859,0.437 0.344,0.102 0.739,0.157 1.188,0.157 0.477,0 0.891,-0.055 1.234,-0.157 0.352,-0.105 0.641,-0.258 0.86,-0.453 0.226,-0.187 0.394,-0.418 0.5,-0.687 0.113,-0.274 0.172,-0.571 0.172,-0.891 0,-0.219 -0.039,-0.434 -0.11,-0.641 -0.062,-0.199 -0.156,-0.382 -0.281,-0.546 -0.125,-0.157 -0.281,-0.293 -0.469,-0.407 -0.187,-0.117 -0.402,-0.195 -0.64,-0.234 l 0,-0.031 c 0.25,-0.043 0.476,-0.118 0.687,-0.219 0.207,-0.094 0.383,-0.227 0.531,-0.391 0.157,-0.168 0.274,-0.371 0.36,-0.609 0.093,-0.231 0.14,-0.492 0.14,-0.781 z m -1.906,3.765 c 0,0.164 -0.023,0.317 -0.062,0.453 -0.032,0.133 -0.09,0.254 -0.172,0.36 -0.074,0.101 -0.184,0.179 -0.328,0.234 -0.137,0.051 -0.309,0.078 -0.516,0.078 -0.211,0 -0.383,-0.027 -0.516,-0.078 -0.136,-0.055 -0.246,-0.133 -0.328,-0.234 -0.086,-0.106 -0.148,-0.227 -0.187,-0.36 -0.032,-0.136 -0.047,-0.289 -0.047,-0.453 0,-0.148 0.015,-0.293 0.047,-0.437 0.031,-0.137 0.082,-0.262 0.156,-0.375 0.082,-0.106 0.191,-0.196 0.328,-0.266 0.145,-0.074 0.328,-0.109 0.547,-0.109 0.238,0 0.426,0.035 0.562,0.109 0.145,0.07 0.254,0.164 0.329,0.281 0.082,0.114 0.132,0.239 0.156,0.375 0.019,0.145 0.031,0.286 0.031,0.422 z m 0.188,-3.625 c 0,0.164 -0.024,0.328 -0.063,0.485 -0.031,0.156 -0.094,0.289 -0.187,0.406 -0.094,0.125 -0.227,0.219 -0.391,0.281 -0.168,0.07 -0.383,0.11 -0.641,0.11 -0.242,0 -0.437,-0.04 -0.593,-0.11 -0.157,-0.062 -0.282,-0.156 -0.375,-0.281 -0.094,-0.125 -0.164,-0.266 -0.204,-0.422 -0.042,-0.156 -0.062,-0.324 -0.062,-0.5 0,-0.211 0.02,-0.402 0.062,-0.578 0.04,-0.168 0.11,-0.313 0.204,-0.438 0.101,-0.117 0.234,-0.211 0.39,-0.281 0.164,-0.062 0.375,-0.094 0.625,-0.094 0.25,0 0.453,0.032 0.61,0.094 0.156,0.07 0.281,0.172 0.375,0.297 0.093,0.125 0.156,0.27 0.187,0.438 0.039,0.175 0.063,0.375 0.063,0.593 z" /><path
         id="path348"
         style="fill:#000000;fill-opacity:1;fill-rule:nonzero;stroke:none"
         d="m 438.578,224.224 -6.625,0 0,1.219 4.469,5.687 -4.031,0 0,1.344 5.953,0 0,-1.188 -4.469,-5.703 4.703,0 0,-1.359 z" /><path
         id="path350"
         style="fill:#000000;fill-opacity:1;fill-rule:nonzero;stroke:none"
         d="m 439.492,224.224 0,1.141 c 0.188,0.414 0.41,0.785 0.672,1.109 0.27,0.332 0.551,0.633 0.844,0.906 0.301,0.281 0.597,0.535 0.89,0.766 0.29,0.238 0.551,0.469 0.782,0.687 0.238,0.227 0.425,0.453 0.562,0.672 0.145,0.219 0.219,0.453 0.219,0.703 0,0.375 -0.094,0.645 -0.281,0.813 -0.18,0.176 -0.446,0.265 -0.797,0.265 -0.356,0 -0.625,-0.093 -0.813,-0.281 -0.179,-0.187 -0.297,-0.469 -0.359,-0.844 l -1.656,0.094 c 0.039,0.32 0.117,0.625 0.234,0.906 0.125,0.282 0.297,0.532 0.516,0.75 0.226,0.219 0.507,0.383 0.843,0.5 0.344,0.125 0.75,0.188 1.219,0.188 0.445,0 0.844,-0.055 1.188,-0.156 0.343,-0.106 0.629,-0.258 0.859,-0.453 0.238,-0.2 0.414,-0.446 0.531,-0.735 0.125,-0.281 0.188,-0.605 0.188,-0.969 0,-0.386 -0.078,-0.734 -0.235,-1.046 -0.148,-0.313 -0.339,-0.606 -0.578,-0.875 -0.242,-0.262 -0.508,-0.508 -0.797,-0.735 -0.293,-0.23 -0.574,-0.453 -0.843,-0.672 -0.274,-0.218 -0.524,-0.445 -0.75,-0.672 -0.219,-0.218 -0.387,-0.453 -0.5,-0.703 l 3.828,0 0,-1.359 -5.766,0 z" /><path
         id="path352"
         style="fill:#000000;fill-opacity:1;fill-rule:nonzero;stroke:none"
         d="m 449.395,223.99 1.703,8.937 1.39,0 -1.672,-8.937 -1.421,0 z" /><path
         id="path354"
         style="fill:#000000;fill-opacity:1;fill-rule:nonzero;stroke:none"
         d="m 461.008,224.224 0,3.562 c 0,0.239 -0.024,0.461 -0.063,0.672 -0.043,0.207 -0.109,0.383 -0.203,0.532 -0.086,0.144 -0.199,0.257 -0.344,0.343 -0.148,0.082 -0.324,0.125 -0.531,0.125 -0.199,0 -0.383,-0.047 -0.547,-0.14 -0.156,-0.086 -0.297,-0.211 -0.422,-0.375 -0.117,-0.157 -0.203,-0.352 -0.265,-0.578 -0.063,-0.231 -0.094,-0.477 -0.094,-0.735 l 0,-3.406 -1.641,0 0,4.922 c 0,0.133 -0.007,0.273 -0.015,0.422 0,0.144 -0.008,0.281 -0.016,0.406 0,0.133 -0.008,0.254 -0.015,0.359 0,0.102 0,0.18 0,0.235 l 1.562,0 c 0.008,-0.055 0.016,-0.133 0.016,-0.235 0.008,-0.105 0.019,-0.218 0.031,-0.343 0.008,-0.125 0.016,-0.25 0.016,-0.375 0.007,-0.125 0.015,-0.231 0.015,-0.313 l 0.031,0 c 0.219,0.488 0.493,0.844 0.829,1.063 0.332,0.218 0.734,0.328 1.203,0.328 0.383,0 0.707,-0.063 0.968,-0.188 0.258,-0.125 0.473,-0.297 0.641,-0.515 0.164,-0.219 0.285,-0.481 0.359,-0.782 0.082,-0.293 0.125,-0.609 0.125,-0.953 l 0,-4.031 -1.64,0 z" /><path
         id="path356"
         style="fill:#000000;fill-opacity:1;fill-rule:nonzero;stroke:none"
         d="m 463.844,228.286 -0.016,0.719 c 0.102,0.207 0.227,0.391 0.375,0.547 0.145,0.156 0.297,0.297 0.453,0.422 0.164,0.125 0.332,0.238 0.5,0.344 0.164,0.101 0.313,0.203 0.438,0.297 0.133,0.101 0.242,0.207 0.328,0.312 0.082,0.113 0.125,0.238 0.125,0.375 0,0.164 -0.043,0.297 -0.125,0.391 -0.074,0.093 -0.195,0.14 -0.36,0.14 -0.335,0 -0.515,-0.195 -0.546,-0.578 l -1.141,0.031 c 0.02,0.188 0.07,0.36 0.156,0.516 0.082,0.156 0.192,0.289 0.328,0.406 0.145,0.114 0.317,0.203 0.516,0.266 0.195,0.07 0.426,0.109 0.687,0.109 0.282,0 0.52,-0.031 0.719,-0.093 0.207,-0.063 0.379,-0.153 0.516,-0.266 0.133,-0.106 0.234,-0.234 0.297,-0.391 0.07,-0.148 0.109,-0.308 0.109,-0.484 0,-0.211 -0.047,-0.391 -0.141,-0.547 -0.085,-0.156 -0.195,-0.297 -0.328,-0.422 -0.125,-0.125 -0.273,-0.242 -0.437,-0.344 -0.156,-0.105 -0.313,-0.211 -0.469,-0.312 -0.148,-0.094 -0.281,-0.195 -0.406,-0.297 -0.125,-0.094 -0.215,-0.203 -0.266,-0.328 l 2.125,0 0,-0.813 -3.437,0 z" /><g
         transform="matrix(1,0,0,-1,0,326.65359)"
         id="g358"><path
           id="path360"
           style="fill:#ffffff;fill-opacity:1;fill-rule:nonzero;stroke:#000000;stroke-width:1.01919997;stroke-linecap:butt;stroke-linejoin:miter;stroke-miterlimit:4;stroke-dasharray:none;stroke-opacity:1"
           d="m 402.723,234.414 91.727,0 0,91.73 -91.727,0 0,-91.73 z" /></g><path
         id="path362"
         style="fill:#000000;fill-opacity:1;fill-rule:nonzero;stroke:none"
         d="m 513.812,83.064 2.039,0 0,-2.039 -2.039,0 0,2.039 z" /><g
         transform="matrix(1,0,0,-1,0,326.65359)"
         id="g364"><path
           id="path366"
           style="fill:none;stroke:#000000;stroke-width:2.03839993;stroke-linecap:square;stroke-linejoin:miter;stroke-miterlimit:10;stroke-dasharray:none;stroke-opacity:1"
           d="m 495.469,244.609 18.343,0" /></g><path
         id="path368"
         style="fill:#000000;fill-opacity:1;fill-rule:nonzero;stroke:none"
         d="m 381.32,83.064 2.035,0 0,-2.039 -2.035,0 0,2.039 z" /><g
         transform="matrix(1,0,0,-1,0,326.65359)"
         id="g370"><path
           id="path372"
           style="fill:none;stroke:#000000;stroke-width:2.03839993;stroke-linecap:square;stroke-linejoin:miter;stroke-miterlimit:10;stroke-dasharray:none;stroke-opacity:1"
           d="m 383.355,244.609 18.348,0" /></g><path
         id="path374"
         style="fill:#000000;fill-opacity:1;fill-rule:nonzero;stroke:none"
         d="m 513.812,11.72 2.039,0 0,-2.039 -2.039,0 0,2.039 z" /><g
         transform="matrix(1,0,0,-1,0,326.65359)"
         id="g376"><path
           id="path378"
           style="fill:none;stroke:#000000;stroke-width:2.03839993;stroke-linecap:square;stroke-linejoin:miter;stroke-miterlimit:10;stroke-dasharray:none;stroke-opacity:1"
           d="m 495.469,315.953 18.343,0" /></g><path
         id="path380"
         style="fill:#000000;fill-opacity:1;fill-rule:nonzero;stroke:none"
         d="m 381.32,11.72 2.035,0 0,-2.039 -2.035,0 0,2.039 z" /><g
         transform="matrix(1,0,0,-1,0,326.65359)"
         id="g382"><path
           id="path384"
           style="fill:none;stroke:#000000;stroke-width:2.03839993;stroke-linecap:square;stroke-linejoin:miter;stroke-miterlimit:10;stroke-dasharray:none;stroke-opacity:1"
           d="m 383.355,315.953 18.348,0" /></g><path
         id="path386"
         style="fill:#000000;fill-opacity:1;fill-rule:nonzero;stroke:none"
         d="m 449.641,101.411 -1.735,0 -0.797,2.704 c -0.011,0.05 -0.031,0.117 -0.062,0.203 -0.024,0.093 -0.047,0.191 -0.078,0.297 -0.031,0.113 -0.071,0.234 -0.11,0.359 -0.031,0.125 -0.062,0.238 -0.093,0.344 -0.024,0.113 -0.043,0.218 -0.063,0.312 -0.023,0.094 -0.039,0.172 -0.047,0.235 -0.031,-0.106 -0.074,-0.247 -0.125,-0.422 -0.054,-0.168 -0.109,-0.344 -0.172,-0.532 -0.062,-0.187 -0.125,-0.371 -0.187,-0.546 -0.063,-0.18 -0.121,-0.325 -0.172,-0.438 l -1.062,-2.516 -1.75,0 2.781,5.891 -0.157,0.438 c -0.105,0.269 -0.199,0.5 -0.281,0.687 -0.086,0.188 -0.168,0.336 -0.25,0.453 -0.086,0.113 -0.172,0.195 -0.265,0.25 -0.094,0.063 -0.204,0.094 -0.328,0.094 -0.086,0 -0.18,-0.016 -0.282,-0.047 -0.105,-0.023 -0.195,-0.047 -0.265,-0.078 l -0.282,1.141 c 0.114,0.039 0.27,0.078 0.469,0.109 0.195,0.039 0.406,0.062 0.625,0.062 0.313,0 0.582,-0.043 0.813,-0.125 0.226,-0.086 0.425,-0.214 0.593,-0.39 0.176,-0.18 0.332,-0.406 0.469,-0.688 0.145,-0.273 0.285,-0.601 0.422,-0.984 l 2.391,-6.813 z" /><path
         id="path388"
         style="fill:#000000;fill-opacity:1;fill-rule:nonzero;stroke:none"
         d="m 450.07,101.177 1.703,8.938 1.391,0 -1.672,-8.938 -1.422,0 z" /><path
         id="path390"
         style="fill:#000000;fill-opacity:1;fill-rule:nonzero;stroke:none"
         d="m 459.652,103.74 c 0,-0.356 -0.062,-0.684 -0.187,-0.985 -0.117,-0.305 -0.293,-0.562 -0.531,-0.781 -0.243,-0.211 -0.547,-0.375 -0.922,-0.5 -0.375,-0.125 -0.821,-0.188 -1.328,-0.188 -0.512,0 -0.954,0.063 -1.329,0.188 -0.367,0.125 -0.671,0.289 -0.921,0.5 -0.243,0.219 -0.422,0.473 -0.547,0.766 -0.117,0.3 -0.172,0.628 -0.172,0.984 0,0.301 0.047,0.566 0.14,0.797 0.094,0.238 0.219,0.441 0.375,0.609 0.157,0.164 0.332,0.297 0.532,0.391 0.207,0.101 0.422,0.172 0.64,0.203 l 0,0.031 c -0.23,0.051 -0.437,0.133 -0.625,0.25 -0.179,0.113 -0.336,0.254 -0.468,0.422 -0.125,0.164 -0.227,0.348 -0.297,0.547 -0.063,0.195 -0.094,0.406 -0.094,0.625 0,0.332 0.055,0.633 0.172,0.906 0.125,0.27 0.301,0.5 0.531,0.688 0.227,0.187 0.516,0.332 0.859,0.437 0.344,0.102 0.739,0.156 1.188,0.156 0.477,0 0.891,-0.054 1.234,-0.156 0.352,-0.105 0.641,-0.258 0.86,-0.453 0.226,-0.187 0.394,-0.418 0.5,-0.687 0.113,-0.274 0.172,-0.571 0.172,-0.891 0,-0.219 -0.039,-0.434 -0.11,-0.641 -0.062,-0.199 -0.156,-0.383 -0.281,-0.547 -0.125,-0.156 -0.281,-0.293 -0.469,-0.406 -0.187,-0.117 -0.402,-0.195 -0.64,-0.234 l 0,-0.031 c 0.25,-0.043 0.476,-0.118 0.687,-0.219 0.207,-0.094 0.383,-0.227 0.531,-0.391 0.157,-0.168 0.274,-0.371 0.36,-0.609 0.093,-0.231 0.14,-0.492 0.14,-0.781 z m -1.906,3.765 c 0,0.164 -0.023,0.317 -0.062,0.453 -0.032,0.133 -0.09,0.254 -0.172,0.36 -0.074,0.101 -0.184,0.179 -0.328,0.234 -0.137,0.051 -0.309,0.078 -0.516,0.078 -0.211,0 -0.383,-0.027 -0.516,-0.078 -0.136,-0.055 -0.246,-0.133 -0.328,-0.234 -0.086,-0.106 -0.148,-0.227 -0.187,-0.36 -0.032,-0.136 -0.047,-0.289 -0.047,-0.453 0,-0.148 0.015,-0.293 0.047,-0.437 0.031,-0.137 0.082,-0.262 0.156,-0.375 0.082,-0.106 0.191,-0.196 0.328,-0.266 0.145,-0.074 0.328,-0.109 0.547,-0.109 0.238,0 0.426,0.035 0.562,0.109 0.145,0.07 0.254,0.164 0.329,0.281 0.082,0.114 0.132,0.239 0.156,0.375 0.019,0.145 0.031,0.285 0.031,0.422 z m 0.188,-3.625 c 0,0.164 -0.024,0.328 -0.063,0.485 -0.031,0.156 -0.094,0.289 -0.187,0.406 -0.094,0.125 -0.227,0.219 -0.391,0.281 -0.168,0.07 -0.383,0.109 -0.641,0.109 -0.242,0 -0.437,-0.039 -0.593,-0.109 -0.157,-0.062 -0.282,-0.156 -0.375,-0.281 -0.094,-0.125 -0.164,-0.266 -0.204,-0.422 -0.042,-0.156 -0.062,-0.324 -0.062,-0.5 0,-0.211 0.02,-0.402 0.062,-0.578 0.04,-0.168 0.11,-0.313 0.204,-0.438 0.101,-0.117 0.234,-0.211 0.39,-0.281 0.164,-0.062 0.375,-0.094 0.625,-0.094 0.25,0 0.453,0.032 0.61,0.094 0.156,0.07 0.281,0.172 0.375,0.297 0.093,0.125 0.156,0.269 0.187,0.437 0.039,0.176 0.063,0.375 0.063,0.594 z" /><path
         id="path392"
         style="fill:#000000;fill-opacity:1;fill-rule:nonzero;stroke:none"
         d="m 437.047,40.767 0,3.562 c 0,0.239 -0.024,0.461 -0.063,0.672 -0.043,0.207 -0.109,0.383 -0.203,0.532 -0.086,0.144 -0.199,0.257 -0.343,0.343 -0.149,0.082 -0.325,0.125 -0.532,0.125 -0.199,0 -0.383,-0.047 -0.547,-0.14 -0.156,-0.086 -0.297,-0.211 -0.421,-0.375 -0.118,-0.157 -0.204,-0.352 -0.266,-0.578 -0.063,-0.231 -0.094,-0.477 -0.094,-0.735 l 0,-3.406 -1.64,0 0,4.922 c 0,0.133 -0.008,0.273 -0.016,0.422 0,0.144 -0.008,0.281 -0.016,0.406 0,0.133 -0.008,0.254 -0.015,0.359 0,0.102 0,0.18 0,0.235 l 1.562,0 c 0.008,-0.055 0.016,-0.133 0.016,-0.235 0.008,-0.105 0.019,-0.218 0.031,-0.343 0.008,-0.125 0.016,-0.25 0.016,-0.375 0.007,-0.125 0.015,-0.231 0.015,-0.313 l 0.031,0 c 0.219,0.488 0.493,0.844 0.829,1.063 0.332,0.218 0.734,0.328 1.203,0.328 0.383,0 0.707,-0.063 0.968,-0.188 0.258,-0.125 0.473,-0.297 0.641,-0.515 0.164,-0.219 0.285,-0.481 0.359,-0.782 0.083,-0.293 0.126,-0.609 0.126,-0.953 l 0,-4.031 -1.641,0 z" /><path
         id="path394"
         style="fill:#000000;fill-opacity:1;fill-rule:nonzero;stroke:none"
         d="m 439.883,44.829 -0.016,0.719 c 0.102,0.207 0.227,0.391 0.375,0.547 0.145,0.156 0.297,0.297 0.453,0.422 0.164,0.125 0.332,0.238 0.5,0.344 0.164,0.101 0.313,0.203 0.438,0.297 0.133,0.101 0.242,0.207 0.328,0.312 0.082,0.113 0.125,0.238 0.125,0.375 0,0.164 -0.043,0.297 -0.125,0.391 -0.074,0.093 -0.195,0.14 -0.359,0.14 -0.336,0 -0.516,-0.195 -0.547,-0.578 l -1.141,0.031 c 0.02,0.188 0.07,0.36 0.156,0.516 0.082,0.156 0.192,0.289 0.328,0.406 0.145,0.114 0.317,0.203 0.516,0.266 0.195,0.07 0.426,0.109 0.688,0.109 0.281,0 0.519,-0.031 0.718,-0.093 0.207,-0.063 0.379,-0.153 0.516,-0.266 0.133,-0.106 0.234,-0.234 0.297,-0.391 0.07,-0.148 0.109,-0.308 0.109,-0.484 0,-0.211 -0.047,-0.391 -0.14,-0.547 -0.086,-0.156 -0.196,-0.297 -0.329,-0.422 -0.125,-0.125 -0.273,-0.242 -0.437,-0.344 -0.156,-0.105 -0.313,-0.211 -0.469,-0.312 -0.148,-0.094 -0.281,-0.195 -0.406,-0.297 -0.125,-0.094 -0.215,-0.203 -0.266,-0.328 l 2.125,0 0,-0.813 -3.437,0 z" /><path
         id="path396"
         style="fill:#000000;fill-opacity:1;fill-rule:nonzero;stroke:none"
         d="m 450.641,40.767 -6.625,0 0,1.219 4.468,5.687 -4.031,0 0,1.344 5.953,0 0,-1.188 -4.468,-5.703 4.703,0 0,-1.359 z" /><path
         id="path398"
         style="fill:#000000;fill-opacity:1;fill-rule:nonzero;stroke:none"
         d="m 451.883,40.767 0,1.219 2.047,0 0,5.64 -1.969,-1.234 0,1.297 2.062,1.328 1.563,0 0,-7.031 1.891,0 0,-1.219 -5.594,0 z" /><path
         id="path400"
         style="fill:#000000;fill-opacity:1;fill-rule:nonzero;stroke:none"
         d="m 381.32,11.72 2.035,0 0,-2.039 -2.035,0 0,2.039 z" /><g
         transform="matrix(0,1,1,0,0,326.65359)"
         id="g402"><path
           id="path404"
           style="fill:#ffffff;fill-opacity:1;fill-rule:nonzero;stroke:#000000;stroke-width:2.03839993;stroke-linecap:butt;stroke-linejoin:miter;stroke-miterlimit:4;stroke-dasharray:none;stroke-opacity:1"
           d="m -311.738,372.145 c 0,2.328 -1.887,4.214 -4.215,4.214 -2.328,0 -4.215,-1.886 -4.215,-4.214 0,-2.329 1.887,-4.215 4.215,-4.215 2.328,0 4.215,1.886 4.215,4.215 z" /></g><g
         transform="matrix(0,1,1,0,0,326.65359)"
         id="g406"><path
           id="path408"
           style="fill:none;stroke:#000000;stroke-width:2.03839993;stroke-linecap:square;stroke-linejoin:miter;stroke-miterlimit:10;stroke-dasharray:none;stroke-opacity:1"
           d="m -315.953,377.242 0,4.078" /></g><path
         id="path410"
         style="fill:#000000;fill-opacity:1;fill-rule:nonzero;stroke:none"
         d="m 381.32,83.064 2.035,0 0,-2.039 -2.035,0 0,2.039 z" /><g
         transform="matrix(0,1,1,0,0,326.65359)"
         id="g412"><path
           id="path414"
           style="fill:#ffffff;fill-opacity:1;fill-rule:nonzero;stroke:#000000;stroke-width:2.03839993;stroke-linecap:butt;stroke-linejoin:miter;stroke-miterlimit:4;stroke-dasharray:none;stroke-opacity:1"
           d="m -240.395,372.145 c 0,2.328 -1.886,4.214 -4.214,4.214 -2.325,0 -4.215,-1.886 -4.215,-4.214 0,-2.329 1.89,-4.215 4.215,-4.215 2.328,0 4.214,1.886 4.214,4.215 z" /></g><g
         transform="matrix(0,1,1,0,0,326.65359)"
         id="g416"><path
           id="path418"
           style="fill:none;stroke:#000000;stroke-width:2.03839993;stroke-linecap:square;stroke-linejoin:miter;stroke-miterlimit:10;stroke-dasharray:none;stroke-opacity:1"
           d="m -244.609,377.242 0,4.078" /></g><path
         id="path420"
         style="fill:#000000;fill-opacity:1;fill-rule:nonzero;stroke:none"
         d="m 381.32,266.521 2.035,0 0,-2.039 -2.035,0 0,2.039 z" /><g
         transform="matrix(0,1,1,0,0,326.65359)"
         id="g422"><path
           id="path424"
           style="fill:#ffffff;fill-opacity:1;fill-rule:nonzero;stroke:#000000;stroke-width:2.03839993;stroke-linecap:butt;stroke-linejoin:miter;stroke-miterlimit:4;stroke-dasharray:none;stroke-opacity:1"
           d="m -56.938,372.145 c 0,2.328 -1.886,4.214 -4.214,4.214 -2.328,0 -4.215,-1.886 -4.215,-4.214 0,-2.329 1.887,-4.215 4.215,-4.215 2.328,0 4.214,1.886 4.214,4.215 z" /></g><g
         transform="matrix(0,1,1,0,0,326.65359)"
         id="g426"><path
           id="path428"
           style="fill:none;stroke:#000000;stroke-width:2.03839993;stroke-linecap:square;stroke-linejoin:miter;stroke-miterlimit:10;stroke-dasharray:none;stroke-opacity:1"
           d="m -61.152,377.242 0,4.078" /></g><path
         id="path430"
         style="fill:#000000;fill-opacity:1;fill-rule:nonzero;stroke:none"
         d="m 381.32,195.177 2.035,0 0,-2.039 -2.035,0 0,2.039 z" /><g
         transform="matrix(0,1,1,0,0,326.65359)"
         id="g432"><path
           id="path434"
           style="fill:#ffffff;fill-opacity:1;fill-rule:nonzero;stroke:#000000;stroke-width:2.03839993;stroke-linecap:butt;stroke-linejoin:miter;stroke-miterlimit:4;stroke-dasharray:none;stroke-opacity:1"
           d="m -128.281,372.145 c 0,2.328 -1.887,4.214 -4.215,4.214 -2.328,0 -4.215,-1.886 -4.215,-4.214 0,-2.329 1.887,-4.215 4.215,-4.215 2.328,0 4.215,1.886 4.215,4.215 z" /></g><g
         transform="matrix(0,1,1,0,0,326.65359)"
         id="g436"><path
           id="path438"
           style="fill:none;stroke:#000000;stroke-width:2.03839993;stroke-linecap:square;stroke-linejoin:miter;stroke-miterlimit:10;stroke-dasharray:none;stroke-opacity:1"
           d="m -132.496,377.242 0,4.078" /></g><path
         id="path440"
         style="fill:#000000;fill-opacity:1;fill-rule:nonzero;stroke:none"
         d="m 544.391,72.872 2.039,0 0,-2.039 -2.039,0 0,2.039 z" /><path
         id="path442"
         style="fill:#000000;fill-opacity:1;fill-rule:nonzero;stroke:none"
         d="m 544.391,21.911 2.039,0 0,-2.035 -2.039,0 0,2.035 z" /><g
         transform="matrix(1,0,0,-1,0,326.65359)"
         id="g444"><path
           id="path446"
           style="fill:none;stroke:#000000;stroke-width:2.03839993;stroke-linecap:round;stroke-linejoin:miter;stroke-miterlimit:10;stroke-dasharray:none;stroke-opacity:1"
           d="m 534.199,276.203 22.422,0" /></g><g
         transform="matrix(1,0,0,-1,0,326.65359)"
         id="g448"><path
           id="path450"
           style="fill:none;stroke:#000000;stroke-width:2.03839993;stroke-linecap:round;stroke-linejoin:miter;stroke-miterlimit:10;stroke-dasharray:none;stroke-opacity:1"
           d="m 534.199,284.355 22.422,0" /></g><g
         transform="matrix(1,0,0,-1,0,326.65359)"
         id="g452"><path
           id="path454"
           style="fill:none;stroke:#000000;stroke-width:2.03839993;stroke-linecap:square;stroke-linejoin:miter;stroke-miterlimit:10;stroke-dasharray:none;stroke-opacity:1"
           d="m 545.41,255.82 0,19.364" /></g><g
         transform="matrix(1,0,0,-1,0,326.65359)"
         id="g456"><path
           id="path458"
           style="fill:none;stroke:#000000;stroke-width:2.03839993;stroke-linecap:square;stroke-linejoin:miter;stroke-miterlimit:10;stroke-dasharray:none;stroke-opacity:1"
           d="m 545.41,285.375 0,19.367" /></g><path
         id="path460"
         style="fill:#000000;fill-opacity:1;fill-rule:nonzero;stroke:none"
         d="m 564.492,40.767 0,1.219 2.047,0 0,5.64 -1.969,-1.234 0,1.297 2.063,1.328 1.562,0 0,-7.031 1.891,0 0,-1.219 -5.594,0 z" /><path
         id="path462"
         style="fill:#000000;fill-opacity:1;fill-rule:nonzero;stroke:none"
         d="m 574.066,40.533 1.704,8.937 1.39,0 -1.672,-8.937 -1.422,0 z" /><path
         id="path464"
         style="fill:#000000;fill-opacity:1;fill-rule:nonzero;stroke:none"
         d="m 585.68,40.767 0,3.562 c 0,0.239 -0.024,0.461 -0.063,0.672 -0.043,0.207 -0.109,0.383 -0.203,0.532 -0.086,0.144 -0.199,0.257 -0.344,0.343 -0.148,0.082 -0.324,0.125 -0.531,0.125 -0.199,0 -0.383,-0.047 -0.547,-0.14 -0.156,-0.086 -0.297,-0.211 -0.422,-0.375 -0.117,-0.157 -0.203,-0.352 -0.265,-0.578 -0.063,-0.231 -0.094,-0.477 -0.094,-0.735 l 0,-3.406 -1.641,0 0,4.922 c 0,0.133 -0.008,0.273 -0.015,0.422 0,0.144 -0.008,0.281 -0.016,0.406 0,0.133 -0.008,0.254 -0.016,0.359 0,0.102 0,0.18 0,0.235 l 1.563,0 c 0.008,-0.055 0.016,-0.133 0.016,-0.235 0.007,-0.105 0.019,-0.218 0.031,-0.343 0.008,-0.125 0.015,-0.25 0.015,-0.375 0.008,-0.125 0.016,-0.231 0.016,-0.313 l 0.031,0 c 0.219,0.488 0.493,0.844 0.828,1.063 0.332,0.218 0.735,0.328 1.204,0.328 0.382,0 0.707,-0.063 0.968,-0.188 0.258,-0.125 0.473,-0.297 0.641,-0.515 0.164,-0.219 0.285,-0.481 0.359,-0.782 0.082,-0.293 0.125,-0.609 0.125,-0.953 l 0,-4.031 -1.64,0 z" /><path
         id="path466"
         style="fill:#000000;fill-opacity:1;fill-rule:nonzero;stroke:none"
         d="m 588.516,44.829 -0.016,0.719 c 0.102,0.207 0.227,0.391 0.375,0.547 0.145,0.156 0.297,0.297 0.453,0.422 0.164,0.125 0.332,0.238 0.5,0.344 0.164,0.101 0.313,0.203 0.438,0.297 0.132,0.101 0.242,0.207 0.328,0.312 0.082,0.113 0.125,0.238 0.125,0.375 0,0.164 -0.043,0.297 -0.125,0.391 -0.074,0.093 -0.196,0.14 -0.36,0.14 -0.336,0 -0.515,-0.195 -0.546,-0.578 l -1.141,0.031 c 0.019,0.188 0.07,0.36 0.156,0.516 0.082,0.156 0.192,0.289 0.328,0.406 0.145,0.114 0.317,0.203 0.516,0.266 0.195,0.07 0.426,0.109 0.687,0.109 0.282,0 0.52,-0.031 0.719,-0.093 0.207,-0.063 0.379,-0.153 0.516,-0.266 0.133,-0.106 0.234,-0.234 0.297,-0.391 0.07,-0.148 0.109,-0.308 0.109,-0.484 0,-0.211 -0.047,-0.391 -0.141,-0.547 -0.086,-0.156 -0.195,-0.297 -0.328,-0.422 -0.125,-0.125 -0.273,-0.242 -0.437,-0.344 -0.157,-0.105 -0.313,-0.211 -0.469,-0.312 -0.148,-0.094 -0.281,-0.195 -0.406,-0.297 -0.125,-0.094 -0.215,-0.203 -0.266,-0.328 l 2.125,0 0,-0.813 -3.437,0 z" /><path
         id="path468"
         style="fill:#000000;fill-opacity:1;fill-rule:nonzero;stroke:none"
         d="m 599.273,40.767 -6.625,0 0,1.219 4.469,5.687 -4.031,0 0,1.344 5.953,0 0,-1.188 -4.469,-5.703 4.703,0 0,-1.359 z" /><path
         id="path470"
         style="fill:#000000;fill-opacity:1;fill-rule:nonzero;stroke:none"
         d="m 600.188,40.767 0,1.141 c 0.187,0.414 0.41,0.785 0.671,1.109 0.27,0.332 0.551,0.633 0.844,0.906 0.301,0.281 0.598,0.535 0.891,0.766 0.289,0.238 0.551,0.469 0.781,0.687 0.238,0.227 0.426,0.453 0.563,0.672 0.144,0.219 0.218,0.453 0.218,0.703 0,0.375 -0.094,0.645 -0.281,0.813 -0.18,0.176 -0.445,0.265 -0.797,0.265 -0.355,0 -0.625,-0.093 -0.812,-0.281 -0.18,-0.187 -0.297,-0.469 -0.36,-0.844 l -1.656,0.094 c 0.039,0.32 0.117,0.625 0.234,0.906 0.125,0.282 0.297,0.532 0.516,0.75 0.227,0.219 0.508,0.383 0.844,0.5 0.344,0.125 0.75,0.188 1.218,0.188 0.446,0 0.844,-0.055 1.188,-0.156 0.344,-0.106 0.629,-0.258 0.859,-0.453 0.239,-0.2 0.414,-0.446 0.532,-0.735 0.125,-0.281 0.187,-0.605 0.187,-0.969 0,-0.386 -0.078,-0.734 -0.234,-1.046 -0.149,-0.313 -0.34,-0.606 -0.578,-0.875 -0.243,-0.262 -0.508,-0.508 -0.797,-0.735 -0.293,-0.23 -0.574,-0.453 -0.844,-0.672 -0.273,-0.218 -0.523,-0.445 -0.75,-0.672 -0.219,-0.218 -0.387,-0.453 -0.5,-0.703 l 3.828,0 0,-1.359 -5.765,0 z" /><path
         id="path472"
         style="fill:#000000;fill-opacity:1;fill-rule:nonzero;stroke:none"
         d="m 574.965,266.521 2.039,0 0,-2.039 -2.039,0 0,2.039 z" /><path
         id="path474"
         style="fill:#000000;fill-opacity:1;fill-rule:nonzero;stroke:none"
         d="m 513.812,266.521 2.039,0 0,-2.039 -2.039,0 0,2.039 z" /><g
         transform="matrix(0,-1,-1,0,0,326.65359)"
         id="g476"><path
           id="path478"
           style="fill:none;stroke:#000000;stroke-width:2.03839993;stroke-linecap:round;stroke-linejoin:round;stroke-miterlimit:10;stroke-dasharray:none;stroke-opacity:1"
           d="m 59.25,-555.602 c -3.086,0.008 -5.598,-2.265 -5.605,-5.082 -0.004,-2.816 2.492,-5.101 5.578,-5.109 l 0.015,0" /></g><g
         transform="matrix(0,-1,-1,0,0,326.65359)"
         id="g480"><path
           id="path482"
           style="fill:none;stroke:#000000;stroke-width:2.03839993;stroke-linecap:round;stroke-linejoin:round;stroke-miterlimit:10;stroke-dasharray:none;stroke-opacity:1"
           d="m 59.113,-565.793 2.039,0" /></g><g
         transform="matrix(0,-1,-1,0,0,326.65359)"
         id="g484"><path
           id="path486"
           style="fill:none;stroke:#000000;stroke-width:2.03839993;stroke-linecap:round;stroke-linejoin:round;stroke-miterlimit:10;stroke-dasharray:none;stroke-opacity:1"
           d="m 59.113,-555.602 2.039,0" /></g><g
         transform="matrix(0,-1,-1,0,0,326.65359)"
         id="g488"><path
           id="path490"
           style="fill:none;stroke:#000000;stroke-width:2.03839993;stroke-linecap:round;stroke-linejoin:round;stroke-miterlimit:10;stroke-dasharray:none;stroke-opacity:1"
           d="m 59.25,-545.41 c -3.086,0.008 -5.598,-2.262 -5.605,-5.082 -0.004,-2.817 2.492,-5.102 5.578,-5.11 l 0.015,0" /></g><g
         transform="matrix(0,-1,-1,0,0,326.65359)"
         id="g492"><path
           id="path494"
           style="fill:none;stroke:#000000;stroke-width:2.03839993;stroke-linecap:round;stroke-linejoin:round;stroke-miterlimit:10;stroke-dasharray:none;stroke-opacity:1"
           d="m 59.113,-555.602 2.039,0" /></g><g
         transform="matrix(0,-1,-1,0,0,326.65359)"
         id="g496"><path
           id="path498"
           style="fill:none;stroke:#000000;stroke-width:2.03839993;stroke-linecap:round;stroke-linejoin:round;stroke-miterlimit:10;stroke-dasharray:none;stroke-opacity:1"
           d="m 59.113,-545.41 2.039,0" /></g><g
         transform="matrix(0,-1,-1,0,0,326.65359)"
         id="g500"><path
           id="path502"
           style="fill:none;stroke:#000000;stroke-width:2.03839993;stroke-linecap:round;stroke-linejoin:round;stroke-miterlimit:10;stroke-dasharray:none;stroke-opacity:1"
           d="m 59.25,-535.219 c -3.086,0.008 -5.598,-2.261 -5.605,-5.082 -0.004,-2.816 2.492,-5.101 5.578,-5.109 l 0.015,0" /></g><g
         transform="matrix(0,-1,-1,0,0,326.65359)"
         id="g504"><path
           id="path506"
           style="fill:none;stroke:#000000;stroke-width:2.03839993;stroke-linecap:round;stroke-linejoin:round;stroke-miterlimit:10;stroke-dasharray:none;stroke-opacity:1"
           d="m 59.113,-545.41 2.039,0" /></g><g
         transform="matrix(0,-1,-1,0,0,326.65359)"
         id="g508"><path
           id="path510"
           style="fill:none;stroke:#000000;stroke-width:2.03839993;stroke-linecap:round;stroke-linejoin:round;stroke-miterlimit:10;stroke-dasharray:none;stroke-opacity:1"
           d="m 59.113,-535.219 2.039,0" /></g><g
         transform="matrix(0,-1,-1,0,0,326.65359)"
         id="g512"><path
           id="path514"
           style="fill:none;stroke:#000000;stroke-width:2.03839993;stroke-linecap:round;stroke-linejoin:round;stroke-miterlimit:10;stroke-dasharray:none;stroke-opacity:1"
           d="m 59.25,-525.027 c -3.086,0.007 -5.598,-2.262 -5.605,-5.078 -0.004,-2.821 2.492,-5.106 5.578,-5.114 l 0.015,0" /></g><g
         transform="matrix(0,-1,-1,0,0,326.65359)"
         id="g516"><path
           id="path518"
           style="fill:none;stroke:#000000;stroke-width:2.03839993;stroke-linecap:round;stroke-linejoin:round;stroke-miterlimit:10;stroke-dasharray:none;stroke-opacity:1"
           d="m 59.113,-535.219 2.039,0" /></g><g
         transform="matrix(0,-1,-1,0,0,326.65359)"
         id="g520"><path
           id="path522"
           style="fill:none;stroke:#000000;stroke-width:2.03839993;stroke-linecap:round;stroke-linejoin:round;stroke-miterlimit:10;stroke-dasharray:none;stroke-opacity:1"
           d="m 59.113,-525.027 2.039,0" /></g><g
         transform="matrix(0,-1,-1,0,0,326.65359)"
         id="g524"><path
           id="path526"
           style="fill:none;stroke:#000000;stroke-width:2.03839993;stroke-linecap:square;stroke-linejoin:miter;stroke-miterlimit:10;stroke-dasharray:none;stroke-opacity:1"
           d="m 61.152,-574.965 0,8.153" /></g><g
         transform="matrix(0,-1,-1,0,0,326.65359)"
         id="g528"><path
           id="path530"
           style="fill:none;stroke:#000000;stroke-width:2.03839993;stroke-linecap:square;stroke-linejoin:miter;stroke-miterlimit:10;stroke-dasharray:none;stroke-opacity:1"
           d="m 61.152,-524.008 0,8.156" /></g><path
         id="path532"
         style="fill:#000000;fill-opacity:1;fill-rule:nonzero;stroke:none"
         d="m 540.496,244.607 -6.625,0 0,1.218 4.469,5.688 -4.031,0 0,1.344 5.953,0 0,-1.188 -4.469,-5.703 4.703,0 0,-1.359 z" /><path
         id="path534"
         style="fill:#000000;fill-opacity:1;fill-rule:nonzero;stroke:none"
         d="m 541.742,244.607 0,1.218 2.047,0 0,5.641 -1.969,-1.234 0,1.297 2.063,1.328 1.562,0 0,-7.032 1.891,0 0,-1.218 -5.594,0 z" /><path
         id="path536"
         style="fill:#000000;fill-opacity:1;fill-rule:nonzero;stroke:none"
         d="m 551.316,244.372 1.704,8.938 1.39,0 -1.672,-8.938 -1.422,0 z" /><path
         id="path538"
         style="fill:#000000;fill-opacity:1;fill-rule:nonzero;stroke:none"
         d="m 562.926,244.607 0,3.562 c 0,0.239 -0.024,0.461 -0.063,0.672 -0.043,0.207 -0.109,0.383 -0.203,0.531 -0.086,0.145 -0.199,0.258 -0.344,0.344 -0.148,0.082 -0.324,0.125 -0.531,0.125 -0.199,0 -0.383,-0.047 -0.547,-0.141 -0.156,-0.085 -0.297,-0.21 -0.422,-0.375 -0.117,-0.156 -0.203,-0.351 -0.265,-0.578 -0.063,-0.23 -0.094,-0.476 -0.094,-0.734 l 0,-3.406 -1.641,0 0,4.922 c 0,0.132 -0.007,0.273 -0.015,0.421 0,0.145 -0.008,0.282 -0.016,0.407 0,0.133 -0.008,0.254 -0.015,0.359 0,0.102 0,0.18 0,0.234 l 1.562,0 c 0.008,-0.054 0.016,-0.132 0.016,-0.234 0.007,-0.105 0.019,-0.219 0.031,-0.344 0.008,-0.125 0.016,-0.25 0.016,-0.375 0.007,-0.125 0.015,-0.23 0.015,-0.312 l 0.031,0 c 0.219,0.488 0.493,0.844 0.829,1.062 0.332,0.219 0.734,0.328 1.203,0.328 0.382,0 0.707,-0.062 0.968,-0.187 0.258,-0.125 0.473,-0.297 0.641,-0.516 0.164,-0.218 0.285,-0.48 0.359,-0.781 0.082,-0.293 0.125,-0.609 0.125,-0.953 l 0,-4.031 -1.64,0 z" /><path
         id="path540"
         style="fill:#000000;fill-opacity:1;fill-rule:nonzero;stroke:none"
         d="m 565.766,248.669 -0.016,0.719 c 0.102,0.207 0.227,0.391 0.375,0.547 0.145,0.156 0.297,0.297 0.453,0.422 0.164,0.125 0.332,0.238 0.5,0.343 0.164,0.102 0.313,0.204 0.438,0.297 0.132,0.102 0.242,0.207 0.328,0.313 0.082,0.113 0.125,0.238 0.125,0.375 0,0.164 -0.043,0.297 -0.125,0.39 -0.074,0.094 -0.196,0.141 -0.36,0.141 -0.336,0 -0.515,-0.195 -0.546,-0.578 l -1.141,0.031 c 0.019,0.188 0.07,0.36 0.156,0.516 0.082,0.156 0.192,0.289 0.328,0.406 0.145,0.113 0.317,0.203 0.516,0.266 0.195,0.07 0.426,0.109 0.687,0.109 0.282,0 0.52,-0.031 0.719,-0.094 0.207,-0.062 0.379,-0.152 0.516,-0.265 0.133,-0.106 0.234,-0.235 0.297,-0.391 0.07,-0.148 0.109,-0.308 0.109,-0.484 0,-0.211 -0.047,-0.391 -0.141,-0.547 -0.086,-0.156 -0.195,-0.297 -0.328,-0.422 -0.125,-0.125 -0.273,-0.242 -0.437,-0.344 -0.157,-0.105 -0.313,-0.211 -0.469,-0.312 -0.148,-0.094 -0.281,-0.196 -0.406,-0.297 -0.125,-0.094 -0.215,-0.203 -0.266,-0.328 l 2.125,0 0,-0.813 -3.437,0 z" /><path
         id="path542"
         style="fill:#000000;fill-opacity:1;fill-rule:nonzero;stroke:none"
         d="m 585.16,266.521 2.035,0 0,-2.039 -2.035,0 0,2.039 z" /><g
         transform="matrix(0,-1,-1,0,0,326.65359)"
         id="g544"><path
           id="path546"
           style="fill:#ffffff;fill-opacity:1;fill-rule:nonzero;stroke:#000000;stroke-width:2.03839993;stroke-linecap:butt;stroke-linejoin:miter;stroke-miterlimit:4;stroke-dasharray:none;stroke-opacity:1"
           d="m 65.367,-596.371 c 0,2.328 -1.887,4.215 -4.215,4.215 -2.328,0 -4.214,-1.887 -4.214,-4.215 0,-2.324 1.886,-4.211 4.214,-4.211 2.328,0 4.215,1.887 4.215,4.211 z" /></g><g
         transform="matrix(0,-1,-1,0,0,326.65359)"
         id="g548"><path
           id="path550"
           style="fill:none;stroke:#000000;stroke-width:2.03839993;stroke-linecap:square;stroke-linejoin:miter;stroke-miterlimit:10;stroke-dasharray:none;stroke-opacity:1"
           d="m 61.152,-591.273 0,4.078" /></g><path
         id="path552"
         style="fill:#000000;fill-opacity:1;fill-rule:nonzero;stroke:none"
         d="m 585.16,195.177 2.035,0 0,-2.039 -2.035,0 0,2.039 z" /><g
         transform="matrix(0,-1,-1,0,0,326.65359)"
         id="g554"><path
           id="path556"
           style="fill:#ffffff;fill-opacity:1;fill-rule:nonzero;stroke:#000000;stroke-width:2.03839993;stroke-linecap:butt;stroke-linejoin:miter;stroke-miterlimit:4;stroke-dasharray:none;stroke-opacity:1"
           d="m 136.711,-596.371 c 0,2.328 -1.887,4.215 -4.215,4.215 -2.328,0 -4.215,-1.887 -4.215,-4.215 0,-2.324 1.887,-4.211 4.215,-4.211 2.328,0 4.215,1.887 4.215,4.211 z" /></g><g
         transform="matrix(0,-1,-1,0,0,326.65359)"
         id="g558"><path
           id="path560"
           style="fill:none;stroke:#000000;stroke-width:2.03839993;stroke-linecap:square;stroke-linejoin:miter;stroke-miterlimit:10;stroke-dasharray:none;stroke-opacity:1"
           d="m 132.496,-591.273 0,4.078" /></g><path
         id="path562"
         style="fill:#000000;fill-opacity:1;fill-rule:nonzero;stroke:none"
         d="m 585.16,83.064 2.035,0 0,-2.039 -2.035,0 0,2.039 z" /><g
         transform="matrix(0,-1,-1,0,0,326.65359)"
         id="g564"><path
           id="path566"
           style="fill:#ffffff;fill-opacity:1;fill-rule:nonzero;stroke:#000000;stroke-width:2.03839993;stroke-linecap:butt;stroke-linejoin:miter;stroke-miterlimit:4;stroke-dasharray:none;stroke-opacity:1"
           d="m 248.824,-596.371 c 0,2.328 -1.89,4.215 -4.215,4.215 -2.328,0 -4.214,-1.887 -4.214,-4.215 0,-2.324 1.886,-4.211 4.214,-4.211 2.325,0 4.215,1.887 4.215,4.211 z" /></g><g
         transform="matrix(0,-1,-1,0,0,326.65359)"
         id="g568"><path
           id="path570"
           style="fill:none;stroke:#000000;stroke-width:2.03839993;stroke-linecap:square;stroke-linejoin:miter;stroke-miterlimit:10;stroke-dasharray:none;stroke-opacity:1"
           d="m 244.609,-591.273 0,4.078" /></g><path
         id="path572"
         style="fill:#000000;fill-opacity:1;fill-rule:nonzero;stroke:none"
         d="m 585.16,11.72 2.035,0 0,-2.039 -2.035,0 0,2.039 z" /><g
         transform="matrix(0,-1,-1,0,0,326.65359)"
         id="g574"><path
           id="path576"
           style="fill:#ffffff;fill-opacity:1;fill-rule:nonzero;stroke:#000000;stroke-width:2.03839993;stroke-linecap:butt;stroke-linejoin:miter;stroke-miterlimit:4;stroke-dasharray:none;stroke-opacity:1"
           d="m 320.168,-596.371 c 0,2.328 -1.887,4.215 -4.215,4.215 -2.328,0 -4.215,-1.887 -4.215,-4.215 0,-2.324 1.887,-4.211 4.215,-4.211 2.328,0 4.215,1.887 4.215,4.211 z" /></g><g
         transform="matrix(0,-1,-1,0,0,326.65359)"
         id="g578"><path
           id="path580"
           style="fill:none;stroke:#000000;stroke-width:2.03839993;stroke-linecap:square;stroke-linejoin:miter;stroke-miterlimit:10;stroke-dasharray:none;stroke-opacity:1"
           d="m 315.953,-591.273 0,4.078" /></g><g
         transform="matrix(1,0,0,-1,0,326.65359)"
         id="g582"><path
           id="path584"
           style="fill:none;stroke:#000000;stroke-width:2.03839993;stroke-linecap:butt;stroke-linejoin:miter;stroke-miterlimit:10;stroke-dasharray:none;stroke-opacity:1"
           d="m 514.832,315.953 71.344,0" /></g><g
         transform="matrix(1,0,0,-1,0,326.65359)"
         id="g586"><path
           id="path588"
           style="fill:none;stroke:#000000;stroke-width:2.03839993;stroke-linecap:butt;stroke-linejoin:miter;stroke-miterlimit:10;stroke-dasharray:none;stroke-opacity:1"
           d="m 586.176,244.609 -71.344,0" /></g><g
         transform="matrix(1,0,0,-1,0,326.65359)"
         id="g590"><path
           id="path592"
           style="fill:none;stroke:#000000;stroke-width:2.03839993;stroke-linecap:butt;stroke-linejoin:miter;stroke-miterlimit:10;stroke-dasharray:none;stroke-opacity:1"
           d="m 514.832,132.496 71.344,0" /></g><g
         transform="matrix(1,0,0,-1,0,326.65359)"
         id="g594"><path
           id="path596"
           style="fill:none;stroke:#000000;stroke-width:2.03839993;stroke-linecap:butt;stroke-linejoin:miter;stroke-miterlimit:10;stroke-dasharray:none;stroke-opacity:1"
           d="m 586.176,61.152 -10.192,0" /></g><g
         transform="matrix(1,0,0,-1,0,326.65359)"
         id="g598"><path
           id="path600"
           style="fill:none;stroke:#000000;stroke-width:2.03839993;stroke-linecap:butt;stroke-linejoin:miter;stroke-miterlimit:10;stroke-dasharray:none;stroke-opacity:1"
           d="m 545.41,254.801 0,-10.192 0,2.036" /></g><g
         transform="matrix(1,0,0,-1,0,326.65359)"
         id="g602"><path
           id="path604"
           style="fill:#000000;fill-opacity:1;fill-rule:nonzero;stroke:#000000;stroke-width:2.03839993;stroke-linecap:butt;stroke-linejoin:miter;stroke-miterlimit:4;stroke-dasharray:none;stroke-opacity:1"
           d="m 547.449,244.609 c 0,1.125 -0.914,2.036 -2.039,2.036 -1.125,0 -2.039,-0.911 -2.039,-2.036 0,-1.129 0.914,-2.039 2.039,-2.039 1.125,0 2.039,0.91 2.039,2.039 z" /></g><g
         transform="matrix(1,0,0,-1,0,326.65359)"
         id="g606"><path
           id="path608"
           style="fill:none;stroke:#000000;stroke-width:2.03839993;stroke-linecap:butt;stroke-linejoin:miter;stroke-miterlimit:10;stroke-dasharray:none;stroke-opacity:1"
           d="m 545.41,305.762 0,10.191 0,-2.039" /></g><g
         transform="matrix(1,0,0,-1,0,326.65359)"
         id="g610"><path
           id="path612"
           style="fill:#000000;fill-opacity:1;fill-rule:nonzero;stroke:#000000;stroke-width:2.03839993;stroke-linecap:butt;stroke-linejoin:miter;stroke-miterlimit:4;stroke-dasharray:none;stroke-opacity:1"
           d="m 547.449,315.953 c 0,1.125 -0.914,2.039 -2.039,2.039 -1.125,0 -2.039,-0.914 -2.039,-2.039 0,-1.125 0.914,-2.039 2.039,-2.039 1.125,0 2.039,0.914 2.039,2.039 z" /></g><g
         transform="matrix(1,0,0,-1,0,326.65359)"
         id="g614"><path
           id="path616"
           style="fill:none;stroke:#000000;stroke-width:2.03839993;stroke-linecap:butt;stroke-linejoin:miter;stroke-miterlimit:10;stroke-dasharray:none;stroke-opacity:1"
           d="m 287.281,101.922 27.039,0" /></g><g
         transform="matrix(1,0,0,-1,0,326.65359)"
         id="g618"><path
           id="path620"
           style="fill:#000000;fill-opacity:1;fill-rule:nonzero;stroke:#000000;stroke-width:2.03839993;stroke-linecap:butt;stroke-linejoin:miter;stroke-miterlimit:10;stroke-dasharray:none;stroke-opacity:1"
           d="m 282.695,101.922 6.117,-3.059 -1.531,3.059 1.531,3.055 -6.117,-3.055 z" /></g><g
         transform="matrix(1,0,0,-1,0,326.65359)"
         id="g622"><path
           id="path624"
           style="fill:#000000;fill-opacity:1;fill-rule:nonzero;stroke:#000000;stroke-width:2.03839993;stroke-linecap:butt;stroke-linejoin:miter;stroke-miterlimit:10;stroke-dasharray:none;stroke-opacity:1"
           d="m 318.906,101.922 -6.113,3.055 1.527,-3.055 -1.527,-3.059 6.113,3.059 z" /></g><g
         transform="matrix(1,0,0,-1,0,326.65359)"
         id="g626"><path
           id="path628"
           style="fill:none;stroke:#000000;stroke-width:2.03839993;stroke-linecap:butt;stroke-linejoin:miter;stroke-miterlimit:10;stroke-dasharray:none;stroke-opacity:1"
           d="m 287.281,285.375 27.039,0" /></g><g
         transform="matrix(1,0,0,-1,0,326.65359)"
         id="g630"><path
           id="path632"
           style="fill:#000000;fill-opacity:1;fill-rule:nonzero;stroke:#000000;stroke-width:2.03839993;stroke-linecap:butt;stroke-linejoin:miter;stroke-miterlimit:10;stroke-dasharray:none;stroke-opacity:1"
           d="m 282.695,285.375 6.117,-3.055 -1.531,3.055 1.531,3.059 -6.117,-3.059 z" /></g><g
         transform="matrix(1,0,0,-1,0,326.65359)"
         id="g634"><path
           id="path636"
           style="fill:#000000;fill-opacity:1;fill-rule:nonzero;stroke:#000000;stroke-width:2.03839993;stroke-linecap:butt;stroke-linejoin:miter;stroke-miterlimit:10;stroke-dasharray:none;stroke-opacity:1"
           d="m 318.906,285.375 -6.113,3.059 1.527,-3.059 -1.527,-3.055 6.113,3.055 z" /></g></g></g></svg>