<?xml version="1.0" encoding="UTF-8" standalone="no"?>
<svg
   xmlns:dc="http://purl.org/dc/elements/1.1/"
   xmlns:cc="http://creativecommons.org/ns#"
   xmlns:rdf="http://www.w3.org/1999/02/22-rdf-syntax-ns#"
   xmlns:svg="http://www.w3.org/2000/svg"
   xmlns="http://www.w3.org/2000/svg"
   viewBox="0 0 749.27209 366.03"
   height="366.03"
   width="749.27209"
   xml:space="preserve"
   version="1.1"
   id="svg2"><metadata
     id="metadata8"><rdf:RDF><cc:Work
         rdf:about=""><dc:format>image/svg+xml</dc:format><dc:type
           rdf:resource="http://purl.org/dc/dcmitype/StillImage" /></cc:Work></rdf:RDF></metadata><defs
     id="defs6" /><g
     transform="matrix(1.25,0,0,-1.25,0,366.03001)"
     id="g10"><g
       id="g12"><g
         transform="matrix(1,0,0,-1,0,292.824)"
         id="g14"><path
           id="path16"
           style="fill:#ffffff;fill-opacity:1;fill-rule:nonzero;stroke:#000000;stroke-width:1.00800002;stroke-linecap:butt;stroke-linejoin:miter;stroke-miterlimit:4;stroke-dasharray:none;stroke-opacity:1"
           d="m 105.977,20.16 90.719,0 0,90.719 -90.719,0 0,-90.719 z" /></g><path
         id="path18"
         style="fill:#000000;fill-opacity:1;fill-rule:nonzero;stroke:none"
         d="m 215.848,263.594 2.016,0 0,-2.016 -2.016,0 0,2.016 z" /><g
         transform="matrix(1,0,0,-1,0,292.824)"
         id="g20"><path
           id="path22"
           style="fill:none;stroke:#000000;stroke-width:2.01600003;stroke-linecap:square;stroke-linejoin:miter;stroke-miterlimit:10;stroke-dasharray:none;stroke-opacity:1"
           d="m 197.703,30.238 18.145,0" /></g><path
         id="path24"
         style="fill:#000000;fill-opacity:1;fill-rule:nonzero;stroke:none"
         d="m 84.809,263.594 2.016,0 0,-2.016 -2.016,0 0,2.016 z" /><g
         transform="matrix(1,0,0,-1,0,292.824)"
         id="g26"><path
           id="path28"
           style="fill:none;stroke:#000000;stroke-width:2.01600003;stroke-linecap:square;stroke-linejoin:miter;stroke-miterlimit:10;stroke-dasharray:none;stroke-opacity:1"
           d="m 86.824,30.238 18.145,0" /></g><path
         id="path30"
         style="fill:#000000;fill-opacity:1;fill-rule:nonzero;stroke:none"
         d="m 215.848,193.031 2.016,0 0,-2.016 -2.016,0 0,2.016 z" /><g
         transform="matrix(1,0,0,-1,0,292.824)"
         id="g32"><path
           id="path34"
           style="fill:none;stroke:#000000;stroke-width:2.01600003;stroke-linecap:square;stroke-linejoin:miter;stroke-miterlimit:10;stroke-dasharray:none;stroke-opacity:1"
           d="m 197.703,100.801 18.145,0" /></g><path
         id="path36"
         style="fill:#000000;fill-opacity:1;fill-rule:nonzero;stroke:none"
         d="m 84.809,193.031 2.016,0 0,-2.016 -2.016,0 0,2.016 z" /><g
         transform="matrix(1,0,0,-1,0,292.824)"
         id="g38"><path
           id="path40"
           style="fill:none;stroke:#000000;stroke-width:2.01600003;stroke-linecap:square;stroke-linejoin:miter;stroke-miterlimit:10;stroke-dasharray:none;stroke-opacity:1"
           d="m 86.824,100.801 18.145,0" /></g><path
         id="path42"
         style="fill:#000000;fill-opacity:1;fill-rule:nonzero;stroke:none"
         d="m 152.449,281.734 -1.734,0 -0.797,2.703 c -0.012,0.051 -0.031,0.117 -0.063,0.203 -0.023,0.094 -0.046,0.192 -0.078,0.297 -0.031,0.114 -0.07,0.235 -0.109,0.36 -0.031,0.125 -0.063,0.238 -0.094,0.343 -0.023,0.114 -0.043,0.219 -0.062,0.313 -0.024,0.094 -0.039,0.172 -0.047,0.234 -0.031,-0.105 -0.074,-0.246 -0.125,-0.422 -0.055,-0.168 -0.11,-0.343 -0.172,-0.531 -0.063,-0.187 -0.125,-0.371 -0.188,-0.547 -0.062,-0.179 -0.121,-0.324 -0.171,-0.437 l -1.063,-2.516 -1.75,0 2.781,5.891 -0.156,0.437 c -0.105,0.27 -0.199,0.5 -0.281,0.688 -0.086,0.187 -0.168,0.336 -0.25,0.453 -0.086,0.113 -0.172,0.195 -0.266,0.25 -0.094,0.062 -0.203,0.094 -0.328,0.094 -0.086,0 -0.18,-0.016 -0.281,-0.047 -0.106,-0.024 -0.195,-0.047 -0.266,-0.078 l -0.281,1.14 c 0.113,0.039 0.27,0.078 0.469,0.11 0.195,0.039 0.406,0.062 0.625,0.062 0.312,0 0.582,-0.043 0.812,-0.125 0.227,-0.086 0.426,-0.215 0.594,-0.39 0.176,-0.18 0.332,-0.407 0.469,-0.688 0.144,-0.273 0.285,-0.602 0.422,-0.984 l 2.39,-6.813 z" /><path
         id="path44"
         style="fill:#000000;fill-opacity:1;fill-rule:nonzero;stroke:none"
         d="m 152.809,281.5 1.703,8.937 1.39,0 -1.672,-8.937 -1.421,0 z" /><path
         id="path46"
         style="fill:#000000;fill-opacity:1;fill-rule:nonzero;stroke:none"
         d="m 162.352,284.062 c 0,-0.355 -0.063,-0.683 -0.188,-0.984 -0.117,-0.305 -0.293,-0.563 -0.531,-0.781 -0.242,-0.211 -0.547,-0.375 -0.922,-0.5 -0.375,-0.125 -0.82,-0.188 -1.328,-0.188 -0.512,0 -0.953,0.063 -1.328,0.188 -0.367,0.125 -0.672,0.289 -0.922,0.5 -0.242,0.218 -0.422,0.472 -0.547,0.765 -0.117,0.301 -0.172,0.629 -0.172,0.985 0,0.3 0.047,0.566 0.141,0.797 0.093,0.238 0.218,0.441 0.375,0.609 0.156,0.164 0.332,0.297 0.531,0.391 0.207,0.101 0.422,0.171 0.641,0.203 l 0,0.031 c -0.231,0.051 -0.438,0.133 -0.625,0.25 -0.18,0.113 -0.336,0.254 -0.469,0.422 -0.125,0.164 -0.227,0.347 -0.297,0.547 -0.063,0.195 -0.094,0.406 -0.094,0.625 0,0.332 0.055,0.632 0.172,0.906 0.125,0.269 0.301,0.5 0.531,0.687 0.227,0.188 0.516,0.332 0.86,0.438 0.343,0.101 0.738,0.156 1.187,0.156 0.477,0 0.891,-0.055 1.235,-0.156 0.351,-0.106 0.64,-0.258 0.859,-0.453 0.227,-0.188 0.394,-0.418 0.5,-0.688 0.113,-0.273 0.172,-0.57 0.172,-0.89 0,-0.219 -0.039,-0.434 -0.11,-0.641 -0.062,-0.199 -0.156,-0.383 -0.281,-0.547 -0.125,-0.156 -0.281,-0.293 -0.469,-0.406 -0.187,-0.117 -0.402,-0.195 -0.64,-0.234 l 0,-0.032 c 0.25,-0.043 0.476,-0.117 0.687,-0.218 0.207,-0.094 0.383,-0.227 0.532,-0.391 0.156,-0.168 0.273,-0.371 0.359,-0.609 0.094,-0.231 0.141,-0.493 0.141,-0.782 z m -1.907,3.766 c 0,0.164 -0.023,0.316 -0.062,0.453 -0.031,0.133 -0.09,0.254 -0.172,0.359 -0.074,0.102 -0.184,0.18 -0.328,0.235 -0.137,0.051 -0.309,0.078 -0.516,0.078 -0.211,0 -0.383,-0.027 -0.515,-0.078 -0.137,-0.055 -0.247,-0.133 -0.329,-0.235 -0.085,-0.105 -0.148,-0.226 -0.187,-0.359 -0.031,-0.137 -0.047,-0.289 -0.047,-0.453 0,-0.149 0.016,-0.293 0.047,-0.438 0.031,-0.136 0.082,-0.261 0.156,-0.375 0.082,-0.105 0.192,-0.195 0.328,-0.265 0.145,-0.074 0.328,-0.11 0.547,-0.11 0.238,0 0.426,0.036 0.563,0.11 0.144,0.07 0.254,0.164 0.328,0.281 0.082,0.113 0.133,0.238 0.156,0.375 0.02,0.145 0.031,0.285 0.031,0.422 z m 0.188,-3.625 c 0,0.164 -0.024,0.328 -0.063,0.484 -0.031,0.157 -0.093,0.289 -0.187,0.407 -0.094,0.125 -0.227,0.218 -0.391,0.281 -0.168,0.07 -0.383,0.109 -0.64,0.109 -0.243,0 -0.438,-0.039 -0.594,-0.109 -0.156,-0.063 -0.281,-0.156 -0.375,-0.281 -0.094,-0.125 -0.164,-0.266 -0.203,-0.422 -0.043,-0.157 -0.063,-0.325 -0.063,-0.5 0,-0.211 0.02,-0.403 0.063,-0.578 0.039,-0.168 0.109,-0.313 0.203,-0.438 0.101,-0.117 0.234,-0.211 0.39,-0.281 0.165,-0.063 0.375,-0.094 0.625,-0.094 0.25,0 0.454,0.031 0.61,0.094 0.156,0.07 0.281,0.172 0.375,0.297 0.094,0.125 0.156,0.269 0.187,0.437 0.039,0.176 0.063,0.375 0.063,0.594 z" /><path
         id="path48"
         style="fill:#000000;fill-opacity:1;fill-rule:nonzero;stroke:none"
         d="m 153.273,221.258 -6.625,0 0,1.218 4.469,5.688 -4.031,0 0,1.344 5.953,0 0,-1.188 -4.469,-5.703 4.703,0 0,-1.359 z" /><path
         id="path50"
         style="fill:#000000;fill-opacity:1;fill-rule:nonzero;stroke:none"
         d="m 154.434,221.258 0,1.218 2.046,0 0,5.641 -1.968,-1.234 0,1.296 2.062,1.329 1.563,0 0,-7.032 1.89,0 0,-1.218 -5.593,0 z" /><path
         id="path52"
         style="fill:#000000;fill-opacity:1;fill-rule:nonzero;stroke:none"
         d="m 54.566,253.512 2.02,0 0,-2.016 -2.02,0 0,2.016 z" /><path
         id="path54"
         style="fill:#000000;fill-opacity:1;fill-rule:nonzero;stroke:none"
         d="m 54.566,203.113 2.02,0 0,-2.016 -2.02,0 0,2.016 z" /><g
         transform="matrix(1,0,0,-1,0,292.824)"
         id="g56"><path
           id="path58"
           style="fill:none;stroke:#000000;stroke-width:2.01600003;stroke-linecap:round;stroke-linejoin:miter;stroke-miterlimit:10;stroke-dasharray:none;stroke-opacity:1"
           d="m 44.488,61.488 22.176,0" /></g><g
         transform="matrix(1,0,0,-1,0,292.824)"
         id="g60"><path
           id="path62"
           style="fill:none;stroke:#000000;stroke-width:2.01600003;stroke-linecap:round;stroke-linejoin:miter;stroke-miterlimit:10;stroke-dasharray:none;stroke-opacity:1"
           d="m 44.488,69.551 22.176,0" /></g><g
         transform="matrix(1,0,0,-1,0,292.824)"
         id="g64"><path
           id="path66"
           style="fill:none;stroke:#000000;stroke-width:2.01600003;stroke-linecap:square;stroke-linejoin:miter;stroke-miterlimit:10;stroke-dasharray:none;stroke-opacity:1"
           d="m 55.574,41.328 0,19.152" /></g><g
         transform="matrix(1,0,0,-1,0,292.824)"
         id="g68"><path
           id="path70"
           style="fill:none;stroke:#000000;stroke-width:2.01600003;stroke-linecap:square;stroke-linejoin:miter;stroke-miterlimit:10;stroke-dasharray:none;stroke-opacity:1"
           d="m 55.574,70.559 0,19.152" /></g><path
         id="path72"
         style="fill:#000000;fill-opacity:1;fill-rule:nonzero;stroke:none"
         d="m 4.574,221.762 0,1.218 2.047,0 0,5.641 -1.969,-1.234 0,1.296 2.063,1.329 1.562,0 0,-7.032 1.891,0 0,-1.218 -5.594,0 z" /><path
         id="path74"
         style="fill:#000000;fill-opacity:1;fill-rule:nonzero;stroke:none"
         d="m 14.039,221.527 1.703,8.938 1.391,0 -1.672,-8.938 -1.422,0 z" /><path
         id="path76"
         style="fill:#000000;fill-opacity:1;fill-rule:nonzero;stroke:none"
         d="m 27.605,221.762 -6.625,0 0,1.218 4.469,5.688 -4.031,0 0,1.344 5.953,0 0,-1.188 -4.469,-5.703 4.703,0 0,-1.359 z" /><path
         id="path78"
         style="fill:#000000;fill-opacity:1;fill-rule:nonzero;stroke:none"
         d="m 28.438,221.762 0,1.14 c 0.187,0.414 0.41,0.785 0.671,1.11 0.27,0.332 0.551,0.632 0.844,0.906 0.301,0.281 0.598,0.535 0.891,0.765 0.289,0.239 0.551,0.469 0.781,0.688 0.238,0.226 0.426,0.453 0.563,0.672 0.144,0.219 0.218,0.453 0.218,0.703 0,0.375 -0.094,0.644 -0.281,0.812 -0.18,0.176 -0.445,0.266 -0.797,0.266 -0.355,0 -0.625,-0.094 -0.812,-0.281 -0.18,-0.188 -0.297,-0.469 -0.36,-0.844 l -1.656,0.094 c 0.039,0.32 0.117,0.625 0.234,0.906 0.125,0.281 0.297,0.531 0.516,0.75 0.227,0.219 0.508,0.383 0.844,0.5 0.344,0.125 0.75,0.188 1.218,0.188 0.446,0 0.844,-0.055 1.188,-0.157 0.344,-0.105 0.629,-0.258 0.859,-0.453 0.239,-0.199 0.414,-0.445 0.532,-0.734 0.125,-0.281 0.187,-0.606 0.187,-0.969 0,-0.387 -0.078,-0.734 -0.234,-1.047 -0.149,-0.312 -0.34,-0.605 -0.578,-0.875 -0.243,-0.262 -0.508,-0.508 -0.797,-0.734 -0.293,-0.231 -0.574,-0.453 -0.844,-0.672 -0.273,-0.219 -0.523,-0.445 -0.75,-0.672 -0.219,-0.219 -0.387,-0.453 -0.5,-0.703 l 3.828,0 0,-1.359 -5.765,0 z" /><g
         transform="matrix(1,0,0,-1,0,292.824)"
         id="g80"><path
           id="path82"
           style="fill:#ffffff;fill-opacity:1;fill-rule:nonzero;stroke:#000000;stroke-width:1.00800002;stroke-linecap:butt;stroke-linejoin:miter;stroke-miterlimit:4;stroke-dasharray:none;stroke-opacity:1"
           d="m 105.977,201.602 90.719,0 0,90.719 -90.719,0 0,-90.719 z" /></g><path
         id="path84"
         style="fill:#000000;fill-opacity:1;fill-rule:nonzero;stroke:none"
         d="m 215.848,82.152 2.016,0 0,-2.016 -2.016,0 0,2.016 z" /><g
         transform="matrix(1,0,0,-1,0,292.824)"
         id="g86"><path
           id="path88"
           style="fill:none;stroke:#000000;stroke-width:2.01600003;stroke-linecap:square;stroke-linejoin:miter;stroke-miterlimit:10;stroke-dasharray:none;stroke-opacity:1"
           d="m 197.703,211.68 18.145,0" /></g><path
         id="path90"
         style="fill:#000000;fill-opacity:1;fill-rule:nonzero;stroke:none"
         d="m 84.809,82.152 2.016,0 0,-2.016 -2.016,0 0,2.016 z" /><g
         transform="matrix(1,0,0,-1,0,292.824)"
         id="g92"><path
           id="path94"
           style="fill:none;stroke:#000000;stroke-width:2.01600003;stroke-linecap:square;stroke-linejoin:miter;stroke-miterlimit:10;stroke-dasharray:none;stroke-opacity:1"
           d="m 86.824,211.68 18.145,0" /></g><path
         id="path96"
         style="fill:#000000;fill-opacity:1;fill-rule:nonzero;stroke:none"
         d="m 215.848,11.594 2.016,0 0,-2.016 -2.016,0 0,2.016 z" /><g
         transform="matrix(1,0,0,-1,0,292.824)"
         id="g98"><path
           id="path100"
           style="fill:none;stroke:#000000;stroke-width:2.01600003;stroke-linecap:square;stroke-linejoin:miter;stroke-miterlimit:10;stroke-dasharray:none;stroke-opacity:1"
           d="m 197.703,282.238 18.145,0" /></g><path
         id="path102"
         style="fill:#000000;fill-opacity:1;fill-rule:nonzero;stroke:none"
         d="m 84.809,11.594 2.016,0 0,-2.016 -2.016,0 0,2.016 z" /><g
         transform="matrix(1,0,0,-1,0,292.824)"
         id="g104"><path
           id="path106"
           style="fill:none;stroke:#000000;stroke-width:2.01600003;stroke-linecap:square;stroke-linejoin:miter;stroke-miterlimit:10;stroke-dasharray:none;stroke-opacity:1"
           d="m 86.824,282.238 18.145,0" /></g><path
         id="path108"
         style="fill:#000000;fill-opacity:1;fill-rule:nonzero;stroke:none"
         d="m 152.449,100.297 -1.734,0 -0.797,2.703 c -0.012,0.051 -0.031,0.117 -0.063,0.203 -0.023,0.094 -0.046,0.191 -0.078,0.297 -0.031,0.113 -0.07,0.234 -0.109,0.359 -0.031,0.125 -0.063,0.238 -0.094,0.344 -0.023,0.113 -0.043,0.219 -0.062,0.312 -0.024,0.094 -0.039,0.172 -0.047,0.235 -0.031,-0.106 -0.074,-0.246 -0.125,-0.422 -0.055,-0.168 -0.11,-0.344 -0.172,-0.531 -0.063,-0.188 -0.125,-0.371 -0.188,-0.547 -0.062,-0.18 -0.121,-0.324 -0.171,-0.438 l -1.063,-2.515 -1.75,0 2.781,5.89 -0.156,0.438 c -0.105,0.269 -0.199,0.5 -0.281,0.687 -0.086,0.188 -0.168,0.336 -0.25,0.453 -0.086,0.114 -0.172,0.196 -0.266,0.25 -0.094,0.063 -0.203,0.094 -0.328,0.094 -0.086,0 -0.18,-0.015 -0.281,-0.047 -0.106,-0.023 -0.195,-0.047 -0.266,-0.078 l -0.281,1.141 c 0.113,0.039 0.27,0.078 0.469,0.109 0.195,0.039 0.406,0.063 0.625,0.063 0.312,0 0.582,-0.043 0.812,-0.125 0.227,-0.086 0.426,-0.215 0.594,-0.391 0.176,-0.18 0.332,-0.406 0.469,-0.687 0.144,-0.274 0.285,-0.602 0.422,-0.985 l 2.39,-6.812 z" /><path
         id="path110"
         style="fill:#000000;fill-opacity:1;fill-rule:nonzero;stroke:none"
         d="m 152.809,100.062 1.703,8.938 1.39,0 -1.672,-8.938 -1.421,0 z" /><path
         id="path112"
         style="fill:#000000;fill-opacity:1;fill-rule:nonzero;stroke:none"
         d="m 162.352,102.625 c 0,-0.356 -0.063,-0.684 -0.188,-0.985 -0.117,-0.304 -0.293,-0.562 -0.531,-0.781 -0.242,-0.211 -0.547,-0.375 -0.922,-0.5 -0.375,-0.125 -0.82,-0.187 -1.328,-0.187 -0.512,0 -0.953,0.062 -1.328,0.187 -0.367,0.125 -0.672,0.289 -0.922,0.5 -0.242,0.219 -0.422,0.473 -0.547,0.766 -0.117,0.301 -0.172,0.629 -0.172,0.984 0,0.301 0.047,0.567 0.141,0.797 0.093,0.238 0.218,0.441 0.375,0.609 0.156,0.164 0.332,0.297 0.531,0.391 0.207,0.102 0.422,0.172 0.641,0.203 l 0,0.031 c -0.231,0.051 -0.438,0.133 -0.625,0.25 -0.18,0.114 -0.336,0.254 -0.469,0.422 -0.125,0.164 -0.227,0.348 -0.297,0.547 -0.063,0.195 -0.094,0.406 -0.094,0.625 0,0.332 0.055,0.633 0.172,0.906 0.125,0.27 0.301,0.5 0.531,0.688 0.227,0.187 0.516,0.332 0.86,0.437 0.343,0.102 0.738,0.157 1.187,0.157 0.477,0 0.891,-0.055 1.235,-0.157 0.351,-0.105 0.64,-0.257 0.859,-0.453 0.227,-0.187 0.394,-0.418 0.5,-0.687 0.113,-0.274 0.172,-0.571 0.172,-0.891 0,-0.219 -0.039,-0.433 -0.11,-0.64 -0.062,-0.2 -0.156,-0.383 -0.281,-0.547 -0.125,-0.157 -0.281,-0.293 -0.469,-0.407 -0.187,-0.117 -0.402,-0.195 -0.64,-0.234 l 0,-0.031 c 0.25,-0.043 0.476,-0.117 0.687,-0.219 0.207,-0.094 0.383,-0.227 0.532,-0.391 0.156,-0.168 0.273,-0.371 0.359,-0.609 0.094,-0.23 0.141,-0.492 0.141,-0.781 z m -1.907,3.765 c 0,0.164 -0.023,0.317 -0.062,0.454 -0.031,0.132 -0.09,0.253 -0.172,0.359 -0.074,0.101 -0.184,0.18 -0.328,0.234 -0.137,0.051 -0.309,0.078 -0.516,0.078 -0.211,0 -0.383,-0.027 -0.515,-0.078 -0.137,-0.054 -0.247,-0.133 -0.329,-0.234 -0.085,-0.106 -0.148,-0.227 -0.187,-0.359 -0.031,-0.137 -0.047,-0.29 -0.047,-0.454 0,-0.148 0.016,-0.293 0.047,-0.437 0.031,-0.137 0.082,-0.262 0.156,-0.375 0.082,-0.106 0.192,-0.195 0.328,-0.266 0.145,-0.074 0.328,-0.109 0.547,-0.109 0.238,0 0.426,0.035 0.563,0.109 0.144,0.071 0.254,0.164 0.328,0.282 0.082,0.113 0.133,0.238 0.156,0.375 0.02,0.144 0.031,0.285 0.031,0.421 z m 0.188,-3.625 c 0,0.164 -0.024,0.329 -0.063,0.485 -0.031,0.156 -0.093,0.289 -0.187,0.406 -0.094,0.125 -0.227,0.219 -0.391,0.281 -0.168,0.071 -0.383,0.11 -0.64,0.11 -0.243,0 -0.438,-0.039 -0.594,-0.11 -0.156,-0.062 -0.281,-0.156 -0.375,-0.281 -0.094,-0.125 -0.164,-0.266 -0.203,-0.422 -0.043,-0.156 -0.063,-0.324 -0.063,-0.5 0,-0.211 0.02,-0.402 0.063,-0.578 0.039,-0.168 0.109,-0.312 0.203,-0.437 0.101,-0.118 0.234,-0.211 0.39,-0.282 0.165,-0.062 0.375,-0.093 0.625,-0.093 0.25,0 0.454,0.031 0.61,0.093 0.156,0.071 0.281,0.172 0.375,0.297 0.094,0.125 0.156,0.27 0.187,0.438 0.039,0.175 0.063,0.375 0.063,0.593 z" /><path
         id="path114"
         style="fill:#000000;fill-opacity:1;fill-rule:nonzero;stroke:none"
         d="m 153.273,39.816 -6.625,0 0,1.219 4.469,5.687 -4.031,0 0,1.344 5.953,0 0,-1.187 -4.469,-5.703 4.703,0 0,-1.36 z" /><path
         id="path116"
         style="fill:#000000;fill-opacity:1;fill-rule:nonzero;stroke:none"
         d="m 154.105,39.816 0,1.141 c 0.188,0.414 0.411,0.785 0.672,1.109 0.27,0.332 0.551,0.633 0.844,0.906 0.301,0.282 0.598,0.536 0.891,0.766 0.289,0.238 0.55,0.469 0.781,0.688 0.238,0.226 0.426,0.453 0.562,0.671 0.145,0.219 0.219,0.454 0.219,0.704 0,0.375 -0.094,0.644 -0.281,0.812 -0.18,0.176 -0.445,0.266 -0.797,0.266 -0.355,0 -0.625,-0.094 -0.812,-0.282 -0.18,-0.187 -0.297,-0.468 -0.36,-0.843 l -1.656,0.093 c 0.039,0.321 0.117,0.625 0.234,0.907 0.125,0.281 0.297,0.531 0.516,0.75 0.227,0.218 0.508,0.383 0.844,0.5 0.343,0.125 0.75,0.187 1.218,0.187 0.446,0 0.844,-0.054 1.188,-0.156 0.344,-0.106 0.629,-0.258 0.859,-0.453 0.239,-0.199 0.414,-0.445 0.532,-0.735 0.125,-0.281 0.187,-0.605 0.187,-0.968 0,-0.387 -0.078,-0.735 -0.234,-1.047 -0.149,-0.313 -0.34,-0.606 -0.578,-0.875 -0.243,-0.262 -0.508,-0.508 -0.797,-0.735 -0.293,-0.23 -0.575,-0.453 -0.844,-0.671 -0.273,-0.219 -0.523,-0.446 -0.75,-0.672 -0.219,-0.219 -0.387,-0.453 -0.5,-0.703 l 3.828,0 0,-1.36 -5.766,0 z" /><path
         id="path118"
         style="fill:#000000;fill-opacity:1;fill-rule:nonzero;stroke:none"
         d="m 84.809,82.152 2.016,0 0,-2.016 -2.016,0 0,2.016 z" /><path
         id="path120"
         style="fill:#000000;fill-opacity:1;fill-rule:nonzero;stroke:none"
         d="m 24.328,82.152 2.016,0 0,-2.016 -2.016,0 0,2.016 z" /><g
         transform="matrix(0,-1,-1,0,0,292.824)"
         id="g122"><path
           id="path124"
           style="fill:none;stroke:#000000;stroke-width:2.01600003;stroke-linecap:round;stroke-linejoin:round;stroke-miterlimit:10;stroke-dasharray:none;stroke-opacity:1"
           d="m 209.801,-65.656 c -3.055,0.008 -5.535,-2.239 -5.543,-5.028 -0.008,-2.785 2.461,-5.046 5.515,-5.05 l 0.012,0" /></g><g
         transform="matrix(0,-1,-1,0,0,292.824)"
         id="g126"><path
           id="path128"
           style="fill:none;stroke:#000000;stroke-width:2.01600003;stroke-linecap:round;stroke-linejoin:round;stroke-miterlimit:10;stroke-dasharray:none;stroke-opacity:1"
           d="m 209.664,-75.734 2.016,0" /></g><g
         transform="matrix(0,-1,-1,0,0,292.824)"
         id="g130"><path
           id="path132"
           style="fill:none;stroke:#000000;stroke-width:2.01600003;stroke-linecap:round;stroke-linejoin:round;stroke-miterlimit:10;stroke-dasharray:none;stroke-opacity:1"
           d="m 209.664,-65.656 2.016,0" /></g><g
         transform="matrix(0,-1,-1,0,0,292.824)"
         id="g134"><path
           id="path136"
           style="fill:none;stroke:#000000;stroke-width:2.01600003;stroke-linecap:round;stroke-linejoin:round;stroke-miterlimit:10;stroke-dasharray:none;stroke-opacity:1"
           d="m 209.801,-55.574 c -3.055,0.004 -5.535,-2.242 -5.543,-5.028 -0.008,-2.785 2.461,-5.046 5.515,-5.054 l 0.012,0" /></g><g
         transform="matrix(0,-1,-1,0,0,292.824)"
         id="g138"><path
           id="path140"
           style="fill:none;stroke:#000000;stroke-width:2.01600003;stroke-linecap:round;stroke-linejoin:round;stroke-miterlimit:10;stroke-dasharray:none;stroke-opacity:1"
           d="m 209.664,-65.656 2.016,0" /></g><g
         transform="matrix(0,-1,-1,0,0,292.824)"
         id="g142"><path
           id="path144"
           style="fill:none;stroke:#000000;stroke-width:2.01600003;stroke-linecap:round;stroke-linejoin:round;stroke-miterlimit:10;stroke-dasharray:none;stroke-opacity:1"
           d="m 209.664,-55.574 2.016,0" /></g><g
         transform="matrix(0,-1,-1,0,0,292.824)"
         id="g146"><path
           id="path148"
           style="fill:none;stroke:#000000;stroke-width:2.01600003;stroke-linecap:round;stroke-linejoin:round;stroke-miterlimit:10;stroke-dasharray:none;stroke-opacity:1"
           d="m 209.801,-45.496 c -3.055,0.008 -5.535,-2.238 -5.543,-5.027 -0.008,-2.786 2.461,-5.047 5.515,-5.051 l 0.012,0" /></g><g
         transform="matrix(0,-1,-1,0,0,292.824)"
         id="g150"><path
           id="path152"
           style="fill:none;stroke:#000000;stroke-width:2.01600003;stroke-linecap:round;stroke-linejoin:round;stroke-miterlimit:10;stroke-dasharray:none;stroke-opacity:1"
           d="m 209.664,-55.574 2.016,0" /></g><g
         transform="matrix(0,-1,-1,0,0,292.824)"
         id="g154"><path
           id="path156"
           style="fill:none;stroke:#000000;stroke-width:2.01600003;stroke-linecap:round;stroke-linejoin:round;stroke-miterlimit:10;stroke-dasharray:none;stroke-opacity:1"
           d="m 209.664,-45.496 2.016,0" /></g><g
         transform="matrix(0,-1,-1,0,0,292.824)"
         id="g158"><path
           id="path160"
           style="fill:none;stroke:#000000;stroke-width:2.01600003;stroke-linecap:round;stroke-linejoin:round;stroke-miterlimit:10;stroke-dasharray:none;stroke-opacity:1"
           d="m 209.801,-35.418 c -3.055,0.008 -5.535,-2.238 -5.543,-5.023 -0.008,-2.786 2.461,-5.047 5.515,-5.055 l 0.012,0" /></g><g
         transform="matrix(0,-1,-1,0,0,292.824)"
         id="g162"><path
           id="path164"
           style="fill:none;stroke:#000000;stroke-width:2.01600003;stroke-linecap:round;stroke-linejoin:round;stroke-miterlimit:10;stroke-dasharray:none;stroke-opacity:1"
           d="m 209.664,-45.496 2.016,0" /></g><g
         transform="matrix(0,-1,-1,0,0,292.824)"
         id="g166"><path
           id="path168"
           style="fill:none;stroke:#000000;stroke-width:2.01600003;stroke-linecap:round;stroke-linejoin:round;stroke-miterlimit:10;stroke-dasharray:none;stroke-opacity:1"
           d="m 209.664,-35.418 2.016,0" /></g><g
         transform="matrix(0,-1,-1,0,0,292.824)"
         id="g170"><path
           id="path172"
           style="fill:none;stroke:#000000;stroke-width:2.01600003;stroke-linecap:square;stroke-linejoin:miter;stroke-miterlimit:10;stroke-dasharray:none;stroke-opacity:1"
           d="m 211.68,-84.809 0,8.067" /></g><g
         transform="matrix(0,-1,-1,0,0,292.824)"
         id="g174"><path
           id="path176"
           style="fill:none;stroke:#000000;stroke-width:2.01600003;stroke-linecap:square;stroke-linejoin:miter;stroke-miterlimit:10;stroke-dasharray:none;stroke-opacity:1"
           d="m 211.68,-34.406 0,8.062" /></g><path
         id="path178"
         style="fill:#000000;fill-opacity:1;fill-rule:nonzero;stroke:none"
         d="m 51.969,60.48 -6.625,0 0,1.219 4.468,5.688 -4.031,0 0,1.343 5.953,0 0,-1.187 -4.468,-5.703 4.703,0 0,-1.36 z" /><path
         id="path180"
         style="fill:#000000;fill-opacity:1;fill-rule:nonzero;stroke:none"
         d="m 53.129,60.48 0,1.219 2.047,0 0,5.641 -1.969,-1.235 0,1.297 2.063,1.328 1.562,0 0,-7.031 1.891,0 0,-1.219 -5.594,0 z" /><path
         id="path182"
         style="fill:#000000;fill-opacity:1;fill-rule:nonzero;stroke:none"
         d="m 14.25,82.152 2.016,0 0,-2.016 -2.016,0 0,2.016 z" /><g
         transform="matrix(0,1,1,0,0,292.824)"
         id="g184"><path
           id="path186"
           style="fill:#ffffff;fill-opacity:1;fill-rule:nonzero;stroke:#000000;stroke-width:2.01600003;stroke-linecap:butt;stroke-linejoin:miter;stroke-miterlimit:4;stroke-dasharray:none;stroke-opacity:1"
           d="m -207.512,5.176 c 0,2.301 -1.867,4.168 -4.168,4.168 -2.3,0 -4.168,-1.867 -4.168,-4.168 0,-2.301 1.868,-4.168 4.168,-4.168 2.301,0 4.168,1.867 4.168,4.168 z" /></g><g
         transform="matrix(0,1,1,0,0,292.824)"
         id="g188"><path
           id="path190"
           style="fill:none;stroke:#000000;stroke-width:2.01600003;stroke-linecap:square;stroke-linejoin:miter;stroke-miterlimit:10;stroke-dasharray:none;stroke-opacity:1"
           d="m -211.68,10.215 0,4.035" /></g><path
         id="path192"
         style="fill:#000000;fill-opacity:1;fill-rule:nonzero;stroke:none"
         d="m 14.25,11.594 2.016,0 0,-2.016 -2.016,0 0,2.016 z" /><g
         transform="matrix(0,1,1,0,0,292.824)"
         id="g194"><path
           id="path196"
           style="fill:#ffffff;fill-opacity:1;fill-rule:nonzero;stroke:#000000;stroke-width:2.01600003;stroke-linecap:butt;stroke-linejoin:miter;stroke-miterlimit:4;stroke-dasharray:none;stroke-opacity:1"
           d="m -278.07,5.176 c 0,2.301 -1.868,4.168 -4.168,4.168 -2.305,0 -4.168,-1.867 -4.168,-4.168 0,-2.301 1.863,-4.168 4.168,-4.168 2.3,0 4.168,1.867 4.168,4.168 z" /></g><g
         transform="matrix(0,1,1,0,0,292.824)"
         id="g198"><path
           id="path200"
           style="fill:none;stroke:#000000;stroke-width:2.01600003;stroke-linecap:square;stroke-linejoin:miter;stroke-miterlimit:10;stroke-dasharray:none;stroke-opacity:1"
           d="m -282.238,10.215 0,4.035" /></g><path
         id="path202"
         style="fill:#000000;fill-opacity:1;fill-rule:nonzero;stroke:none"
         d="m 14.25,193.031 2.016,0 0,-2.016 -2.016,0 0,2.016 z" /><g
         transform="matrix(0,1,1,0,0,292.824)"
         id="g204"><path
           id="path206"
           style="fill:#ffffff;fill-opacity:1;fill-rule:nonzero;stroke:#000000;stroke-width:2.01600003;stroke-linecap:butt;stroke-linejoin:miter;stroke-miterlimit:4;stroke-dasharray:none;stroke-opacity:1"
           d="m -96.633,5.176 c 0,2.301 -1.863,4.168 -4.168,4.168 -2.301,0 -4.168,-1.867 -4.168,-4.168 0,-2.301 1.867,-4.168 4.168,-4.168 2.305,0 4.168,1.867 4.168,4.168 z" /></g><g
         transform="matrix(0,1,1,0,0,292.824)"
         id="g208"><path
           id="path210"
           style="fill:none;stroke:#000000;stroke-width:2.01600003;stroke-linecap:square;stroke-linejoin:miter;stroke-miterlimit:10;stroke-dasharray:none;stroke-opacity:1"
           d="m -100.801,10.215 0,4.035" /></g><path
         id="path212"
         style="fill:#000000;fill-opacity:1;fill-rule:nonzero;stroke:none"
         d="m 14.25,263.594 2.016,0 0,-2.016 -2.016,0 0,2.016 z" /><g
         transform="matrix(0,1,1,0,0,292.824)"
         id="g214"><path
           id="path216"
           style="fill:#ffffff;fill-opacity:1;fill-rule:nonzero;stroke:#000000;stroke-width:2.01600003;stroke-linecap:butt;stroke-linejoin:miter;stroke-miterlimit:4;stroke-dasharray:none;stroke-opacity:1"
           d="m -26.07,5.176 c 0,2.301 -1.868,4.168 -4.168,4.168 -2.305,0 -4.168,-1.867 -4.168,-4.168 0,-2.301 1.863,-4.168 4.168,-4.168 2.3,0 4.168,1.867 4.168,4.168 z" /></g><g
         transform="matrix(0,1,1,0,0,292.824)"
         id="g218"><path
           id="path220"
           style="fill:none;stroke:#000000;stroke-width:2.01600003;stroke-linecap:square;stroke-linejoin:miter;stroke-miterlimit:10;stroke-dasharray:none;stroke-opacity:1"
           d="m -30.238,10.215 0,4.035" /></g><g
         transform="matrix(1,0,0,-1,0,292.824)"
         id="g222"><path
           id="path224"
           style="fill:none;stroke:#000000;stroke-width:2.01600003;stroke-linecap:butt;stroke-linejoin:miter;stroke-miterlimit:10;stroke-dasharray:none;stroke-opacity:1"
           d="m 15.258,100.801 70.558,0" /></g><g
         transform="matrix(1,0,0,-1,0,292.824)"
         id="g226"><path
           id="path228"
           style="fill:none;stroke:#000000;stroke-width:2.01600003;stroke-linecap:butt;stroke-linejoin:miter;stroke-miterlimit:10;stroke-dasharray:none;stroke-opacity:1"
           d="m 15.258,30.238 70.558,0" /></g><g
         transform="matrix(1,0,0,-1,0,292.824)"
         id="g230"><path
           id="path232"
           style="fill:none;stroke:#000000;stroke-width:2.01600003;stroke-linecap:butt;stroke-linejoin:miter;stroke-miterlimit:10;stroke-dasharray:none;stroke-opacity:1"
           d="m 55.574,40.32 0,-10.082 0,2.02" /></g><g
         transform="matrix(1,0,0,-1,0,292.824)"
         id="g234"><path
           id="path236"
           style="fill:#000000;fill-opacity:1;fill-rule:nonzero;stroke:#000000;stroke-width:2.01600003;stroke-linecap:butt;stroke-linejoin:miter;stroke-miterlimit:4;stroke-dasharray:none;stroke-opacity:1"
           d="m 57.594,30.238 c 0,1.114 -0.903,2.02 -2.02,2.02 -1.113,0 -2.015,-0.906 -2.015,-2.02 0,-1.113 0.902,-2.015 2.015,-2.015 1.117,0 2.02,0.902 2.02,2.015 z" /></g><g
         transform="matrix(1,0,0,-1,0,292.824)"
         id="g238"><path
           id="path240"
           style="fill:none;stroke:#000000;stroke-width:2.01600003;stroke-linecap:butt;stroke-linejoin:miter;stroke-miterlimit:10;stroke-dasharray:none;stroke-opacity:1"
           d="m 55.574,90.719 0,10.082 0,-2.016" /></g><g
         transform="matrix(1,0,0,-1,0,292.824)"
         id="g242"><path
           id="path244"
           style="fill:#000000;fill-opacity:1;fill-rule:nonzero;stroke:#000000;stroke-width:2.01600003;stroke-linecap:butt;stroke-linejoin:miter;stroke-miterlimit:4;stroke-dasharray:none;stroke-opacity:1"
           d="m 57.594,100.801 c 0,1.113 -0.903,2.015 -2.02,2.015 -1.113,0 -2.015,-0.902 -2.015,-2.015 0,-1.113 0.902,-2.016 2.015,-2.016 1.117,0 2.02,0.903 2.02,2.016 z" /></g><g
         transform="matrix(1,0,0,-1,0,292.824)"
         id="g246"><path
           id="path248"
           style="fill:none;stroke:#000000;stroke-width:2.01600003;stroke-linecap:butt;stroke-linejoin:miter;stroke-miterlimit:10;stroke-dasharray:none;stroke-opacity:1"
           d="m 15.258,211.68 10.078,0" /></g><g
         transform="matrix(1,0,0,-1,0,292.824)"
         id="g250"><path
           id="path252"
           style="fill:none;stroke:#000000;stroke-width:2.01600003;stroke-linecap:butt;stroke-linejoin:miter;stroke-miterlimit:10;stroke-dasharray:none;stroke-opacity:1"
           d="m 15.258,282.238 70.558,0" /></g><path
         id="path254"
         style="fill:#000000;fill-opacity:1;fill-rule:nonzero;stroke:none"
         d="m 215.848,193.031 2.016,0 0,-2.016 -2.016,0 0,2.016 z" /><g
         transform="matrix(0,-1,-1,0,0,292.824)"
         id="g256"><path
           id="path258"
           style="fill:#ffffff;fill-opacity:1;fill-rule:nonzero;stroke:#000000;stroke-width:2.01600003;stroke-linecap:butt;stroke-linejoin:miter;stroke-miterlimit:4;stroke-dasharray:none;stroke-opacity:1"
           d="m 104.969,-226.938 c 0,2.305 -1.867,4.168 -4.168,4.168 -2.305,0 -4.168,-1.863 -4.168,-4.168 0,-2.3 1.863,-4.167 4.168,-4.167 2.301,0 4.168,1.867 4.168,4.167 z" /></g><g
         transform="matrix(0,-1,-1,0,0,292.824)"
         id="g260"><path
           id="path262"
           style="fill:none;stroke:#000000;stroke-width:2.01600003;stroke-linecap:square;stroke-linejoin:miter;stroke-miterlimit:10;stroke-dasharray:none;stroke-opacity:1"
           d="m 100.801,-221.895 0,4.032" /></g><path
         id="path264"
         style="fill:#000000;fill-opacity:1;fill-rule:nonzero;stroke:none"
         d="m 215.848,263.594 2.016,0 0,-2.016 -2.016,0 0,2.016 z" /><g
         transform="matrix(0,-1,-1,0,0,292.824)"
         id="g266"><path
           id="path268"
           style="fill:#ffffff;fill-opacity:1;fill-rule:nonzero;stroke:#000000;stroke-width:2.01600003;stroke-linecap:butt;stroke-linejoin:miter;stroke-miterlimit:4;stroke-dasharray:none;stroke-opacity:1"
           d="m 34.406,-226.938 c 0,2.305 -1.863,4.168 -4.168,4.168 -2.3,0 -4.168,-1.863 -4.168,-4.168 0,-2.3 1.868,-4.167 4.168,-4.167 2.305,0 4.168,1.867 4.168,4.167 z" /></g><g
         transform="matrix(0,-1,-1,0,0,292.824)"
         id="g270"><path
           id="path272"
           style="fill:none;stroke:#000000;stroke-width:2.01600003;stroke-linecap:square;stroke-linejoin:miter;stroke-miterlimit:10;stroke-dasharray:none;stroke-opacity:1"
           d="m 30.238,-221.895 0,4.032" /></g><path
         id="path274"
         style="fill:#000000;fill-opacity:1;fill-rule:nonzero;stroke:none"
         d="m 215.848,82.152 2.016,0 0,-2.016 -2.016,0 0,2.016 z" /><g
         transform="matrix(0,-1,-1,0,0,292.824)"
         id="g276"><path
           id="path278"
           style="fill:#ffffff;fill-opacity:1;fill-rule:nonzero;stroke:#000000;stroke-width:2.01600003;stroke-linecap:butt;stroke-linejoin:miter;stroke-miterlimit:4;stroke-dasharray:none;stroke-opacity:1"
           d="m 215.848,-226.938 c 0,2.305 -1.868,4.168 -4.168,4.168 -2.301,0 -4.168,-1.863 -4.168,-4.168 0,-2.3 1.867,-4.167 4.168,-4.167 2.3,0 4.168,1.867 4.168,4.167 z" /></g><g
         transform="matrix(0,-1,-1,0,0,292.824)"
         id="g280"><path
           id="path282"
           style="fill:none;stroke:#000000;stroke-width:2.01600003;stroke-linecap:square;stroke-linejoin:miter;stroke-miterlimit:10;stroke-dasharray:none;stroke-opacity:1"
           d="m 211.68,-221.895 0,4.032" /></g><path
         id="path284"
         style="fill:#000000;fill-opacity:1;fill-rule:nonzero;stroke:none"
         d="m 215.848,11.594 2.016,0 0,-2.016 -2.016,0 0,2.016 z" /><g
         transform="matrix(0,-1,-1,0,0,292.824)"
         id="g286"><path
           id="path288"
           style="fill:#ffffff;fill-opacity:1;fill-rule:nonzero;stroke:#000000;stroke-width:2.01600003;stroke-linecap:butt;stroke-linejoin:miter;stroke-miterlimit:4;stroke-dasharray:none;stroke-opacity:1"
           d="m 286.406,-226.938 c 0,2.305 -1.863,4.168 -4.168,4.168 -2.3,0 -4.168,-1.863 -4.168,-4.168 0,-2.3 1.868,-4.167 4.168,-4.167 2.305,0 4.168,1.867 4.168,4.167 z" /></g><g
         transform="matrix(0,-1,-1,0,0,292.824)"
         id="g290"><path
           id="path292"
           style="fill:none;stroke:#000000;stroke-width:2.01600003;stroke-linecap:square;stroke-linejoin:miter;stroke-miterlimit:10;stroke-dasharray:none;stroke-opacity:1"
           d="m 282.238,-221.895 0,4.032" /></g><g
         transform="matrix(1,0,0,-1,0,292.824)"
         id="g294"><path
           id="path296"
           style="fill:#ffffff;fill-opacity:1;fill-rule:nonzero;stroke:#000000;stroke-width:1.00800002;stroke-linecap:butt;stroke-linejoin:miter;stroke-miterlimit:4;stroke-dasharray:none;stroke-opacity:1"
           d="m 398.297,20.16 90.719,0 0,90.719 -90.719,0 0,-90.719 z" /></g><path
         id="path298"
         style="fill:#000000;fill-opacity:1;fill-rule:nonzero;stroke:none"
         d="m 508.168,263.594 2.016,0 0,-2.016 -2.016,0 0,2.016 z" /><g
         transform="matrix(1,0,0,-1,0,292.824)"
         id="g300"><path
           id="path302"
           style="fill:none;stroke:#000000;stroke-width:2.01600003;stroke-linecap:square;stroke-linejoin:miter;stroke-miterlimit:10;stroke-dasharray:none;stroke-opacity:1"
           d="m 490.023,30.238 18.145,0" /></g><path
         id="path304"
         style="fill:#000000;fill-opacity:1;fill-rule:nonzero;stroke:none"
         d="m 377.129,263.594 2.016,0 0,-2.016 -2.016,0 0,2.016 z" /><g
         transform="matrix(1,0,0,-1,0,292.824)"
         id="g306"><path
           id="path308"
           style="fill:none;stroke:#000000;stroke-width:2.01600003;stroke-linecap:square;stroke-linejoin:miter;stroke-miterlimit:10;stroke-dasharray:none;stroke-opacity:1"
           d="m 379.145,30.238 18.144,0" /></g><path
         id="path310"
         style="fill:#000000;fill-opacity:1;fill-rule:nonzero;stroke:none"
         d="m 508.168,193.031 2.016,0 0,-2.016 -2.016,0 0,2.016 z" /><g
         transform="matrix(1,0,0,-1,0,292.824)"
         id="g312"><path
           id="path314"
           style="fill:none;stroke:#000000;stroke-width:2.01600003;stroke-linecap:square;stroke-linejoin:miter;stroke-miterlimit:10;stroke-dasharray:none;stroke-opacity:1"
           d="m 490.023,100.801 18.145,0" /></g><path
         id="path316"
         style="fill:#000000;fill-opacity:1;fill-rule:nonzero;stroke:none"
         d="m 377.129,193.031 2.016,0 0,-2.016 -2.016,0 0,2.016 z" /><g
         transform="matrix(1,0,0,-1,0,292.824)"
         id="g318"><path
           id="path320"
           style="fill:none;stroke:#000000;stroke-width:2.01600003;stroke-linecap:square;stroke-linejoin:miter;stroke-miterlimit:10;stroke-dasharray:none;stroke-opacity:1"
           d="m 379.145,100.801 18.144,0" /></g><path
         id="path322"
         style="fill:#000000;fill-opacity:1;fill-rule:nonzero;stroke:none"
         d="m 444.77,281.734 -1.735,0 -0.797,2.703 c -0.011,0.051 -0.031,0.117 -0.062,0.203 -0.024,0.094 -0.047,0.192 -0.078,0.297 -0.032,0.114 -0.071,0.235 -0.11,0.36 -0.031,0.125 -0.062,0.238 -0.093,0.343 -0.024,0.114 -0.043,0.219 -0.063,0.313 -0.023,0.094 -0.039,0.172 -0.047,0.234 -0.031,-0.105 -0.074,-0.246 -0.125,-0.422 -0.055,-0.168 -0.109,-0.343 -0.172,-0.531 -0.062,-0.187 -0.125,-0.371 -0.187,-0.547 -0.063,-0.179 -0.121,-0.324 -0.172,-0.437 l -1.063,-2.516 -1.75,0 2.782,5.891 -0.157,0.437 c -0.105,0.27 -0.199,0.5 -0.281,0.688 -0.086,0.187 -0.168,0.336 -0.25,0.453 -0.086,0.113 -0.172,0.195 -0.265,0.25 -0.094,0.062 -0.204,0.094 -0.329,0.094 -0.086,0 -0.179,-0.016 -0.281,-0.047 -0.105,-0.024 -0.195,-0.047 -0.265,-0.078 l -0.282,1.14 c 0.114,0.039 0.27,0.078 0.469,0.11 0.195,0.039 0.406,0.062 0.625,0.062 0.313,0 0.582,-0.043 0.813,-0.125 0.226,-0.086 0.425,-0.215 0.593,-0.39 0.176,-0.18 0.332,-0.407 0.469,-0.688 0.145,-0.273 0.285,-0.602 0.422,-0.984 l 2.391,-6.813 z" /><path
         id="path324"
         style="fill:#000000;fill-opacity:1;fill-rule:nonzero;stroke:none"
         d="m 445.129,281.5 1.703,8.937 1.391,0 -1.672,-8.937 -1.422,0 z" /><path
         id="path326"
         style="fill:#000000;fill-opacity:1;fill-rule:nonzero;stroke:none"
         d="m 454.668,284.062 c 0,-0.355 -0.063,-0.683 -0.188,-0.984 -0.117,-0.305 -0.292,-0.563 -0.531,-0.781 -0.242,-0.211 -0.547,-0.375 -0.922,-0.5 -0.375,-0.125 -0.82,-0.188 -1.328,-0.188 -0.511,0 -0.953,0.063 -1.328,0.188 -0.367,0.125 -0.672,0.289 -0.922,0.5 -0.242,0.218 -0.422,0.472 -0.547,0.765 -0.117,0.301 -0.172,0.629 -0.172,0.985 0,0.3 0.047,0.566 0.141,0.797 0.094,0.238 0.219,0.441 0.375,0.609 0.156,0.164 0.332,0.297 0.531,0.391 0.207,0.101 0.422,0.171 0.641,0.203 l 0,0.031 c -0.23,0.051 -0.438,0.133 -0.625,0.25 -0.18,0.113 -0.336,0.254 -0.469,0.422 -0.125,0.164 -0.226,0.347 -0.297,0.547 -0.062,0.195 -0.093,0.406 -0.093,0.625 0,0.332 0.054,0.632 0.171,0.906 0.125,0.269 0.301,0.5 0.532,0.687 0.226,0.188 0.515,0.332 0.859,0.438 0.344,0.101 0.738,0.156 1.188,0.156 0.476,0 0.89,-0.055 1.234,-0.156 0.352,-0.106 0.641,-0.258 0.859,-0.453 0.227,-0.188 0.395,-0.418 0.5,-0.688 0.114,-0.273 0.172,-0.57 0.172,-0.89 0,-0.219 -0.039,-0.434 -0.109,-0.641 -0.063,-0.199 -0.156,-0.383 -0.281,-0.547 -0.125,-0.156 -0.282,-0.293 -0.469,-0.406 -0.188,-0.117 -0.402,-0.195 -0.641,-0.234 l 0,-0.032 c 0.25,-0.043 0.477,-0.117 0.688,-0.218 0.207,-0.094 0.383,-0.227 0.531,-0.391 0.156,-0.168 0.273,-0.371 0.359,-0.609 0.094,-0.231 0.141,-0.493 0.141,-0.782 z m -1.906,3.766 c 0,0.164 -0.024,0.316 -0.063,0.453 -0.031,0.133 -0.09,0.254 -0.172,0.359 -0.074,0.102 -0.183,0.18 -0.328,0.235 -0.137,0.051 -0.308,0.078 -0.515,0.078 -0.211,0 -0.383,-0.027 -0.516,-0.078 -0.137,-0.055 -0.246,-0.133 -0.328,-0.235 -0.086,-0.105 -0.149,-0.226 -0.188,-0.359 -0.031,-0.137 -0.047,-0.289 -0.047,-0.453 0,-0.149 0.016,-0.293 0.047,-0.438 0.032,-0.136 0.082,-0.261 0.157,-0.375 0.082,-0.105 0.191,-0.195 0.328,-0.265 0.144,-0.074 0.328,-0.11 0.547,-0.11 0.238,0 0.425,0.036 0.562,0.11 0.145,0.07 0.254,0.164 0.328,0.281 0.082,0.113 0.133,0.238 0.156,0.375 0.02,0.145 0.032,0.285 0.032,0.422 z m 0.187,-3.625 c 0,0.164 -0.023,0.328 -0.062,0.484 -0.032,0.157 -0.094,0.289 -0.188,0.407 -0.094,0.125 -0.226,0.218 -0.39,0.281 -0.168,0.07 -0.383,0.109 -0.641,0.109 -0.242,0 -0.438,-0.039 -0.594,-0.109 -0.156,-0.063 -0.281,-0.156 -0.375,-0.281 -0.094,-0.125 -0.164,-0.266 -0.203,-0.422 -0.043,-0.157 -0.062,-0.325 -0.062,-0.5 0,-0.211 0.019,-0.403 0.062,-0.578 0.039,-0.168 0.109,-0.313 0.203,-0.438 0.102,-0.117 0.235,-0.211 0.391,-0.281 0.164,-0.063 0.375,-0.094 0.625,-0.094 0.25,0 0.453,0.031 0.609,0.094 0.156,0.07 0.281,0.172 0.375,0.297 0.094,0.125 0.156,0.269 0.188,0.437 0.039,0.176 0.062,0.375 0.062,0.594 z" /><path
         id="path328"
         style="fill:#000000;fill-opacity:1;fill-rule:nonzero;stroke:none"
         d="m 433.836,221.762 -6.625,0 0,1.218 4.469,5.688 -4.032,0 0,1.344 5.954,0 0,-1.188 -4.469,-5.703 4.703,0 0,-1.359 z" /><path
         id="path330"
         style="fill:#000000;fill-opacity:1;fill-rule:nonzero;stroke:none"
         d="m 434.668,221.762 0,1.14 c 0.187,0.414 0.41,0.785 0.672,1.11 0.269,0.332 0.551,0.632 0.844,0.906 0.3,0.281 0.597,0.535 0.89,0.765 0.289,0.239 0.551,0.469 0.781,0.688 0.239,0.226 0.426,0.453 0.563,0.672 0.144,0.219 0.219,0.453 0.219,0.703 0,0.375 -0.094,0.644 -0.282,0.812 -0.179,0.176 -0.445,0.266 -0.796,0.266 -0.356,0 -0.625,-0.094 -0.813,-0.281 -0.18,-0.188 -0.297,-0.469 -0.359,-0.844 l -1.657,0.094 c 0.04,0.32 0.118,0.625 0.235,0.906 0.125,0.281 0.297,0.531 0.515,0.75 0.227,0.219 0.508,0.383 0.844,0.5 0.344,0.125 0.75,0.188 1.219,0.188 0.445,0 0.844,-0.055 1.187,-0.157 0.344,-0.105 0.629,-0.258 0.86,-0.453 0.238,-0.199 0.414,-0.445 0.531,-0.734 0.125,-0.281 0.188,-0.606 0.188,-0.969 0,-0.387 -0.079,-0.734 -0.235,-1.047 -0.148,-0.312 -0.34,-0.605 -0.578,-0.875 -0.242,-0.262 -0.508,-0.508 -0.797,-0.734 -0.293,-0.231 -0.574,-0.453 -0.844,-0.672 -0.273,-0.219 -0.523,-0.445 -0.75,-0.672 -0.218,-0.219 -0.386,-0.453 -0.5,-0.703 l 3.829,0 0,-1.359 -5.766,0 z" /><path
         id="path332"
         style="fill:#000000;fill-opacity:1;fill-rule:nonzero;stroke:none"
         d="m 444.457,221.527 1.703,8.938 1.391,0 -1.672,-8.938 -1.422,0 z" /><path
         id="path334"
         style="fill:#000000;fill-opacity:1;fill-rule:nonzero;stroke:none"
         d="m 455.996,221.762 0,3.562 c 0,0.238 -0.023,0.461 -0.062,0.672 -0.043,0.207 -0.11,0.383 -0.204,0.531 -0.085,0.145 -0.199,0.258 -0.343,0.344 -0.149,0.082 -0.325,0.125 -0.532,0.125 -0.199,0 -0.382,-0.047 -0.546,-0.141 -0.157,-0.086 -0.297,-0.211 -0.422,-0.375 -0.117,-0.156 -0.203,-0.351 -0.266,-0.578 -0.062,-0.23 -0.094,-0.476 -0.094,-0.734 l 0,-3.406 -1.64,0 0,4.921 c 0,0.133 -0.008,0.274 -0.016,0.422 0,0.145 -0.008,0.282 -0.016,0.407 0,0.132 -0.007,0.253 -0.015,0.359 0,0.101 0,0.18 0,0.234 l 1.562,0 c 0.008,-0.054 0.016,-0.133 0.016,-0.234 0.008,-0.106 0.02,-0.219 0.031,-0.344 0.008,-0.125 0.016,-0.25 0.016,-0.375 0.008,-0.125 0.015,-0.23 0.015,-0.312 l 0.032,0 c 0.218,0.488 0.492,0.843 0.828,1.062 0.332,0.219 0.734,0.328 1.203,0.328 0.383,0 0.707,-0.062 0.969,-0.187 0.258,-0.125 0.472,-0.297 0.64,-0.516 0.164,-0.219 0.286,-0.48 0.36,-0.781 0.082,-0.293 0.125,-0.609 0.125,-0.953 l 0,-4.031 -1.641,0 z" /><path
         id="path336"
         style="fill:#000000;fill-opacity:1;fill-rule:nonzero;stroke:none"
         d="m 458.75,225.824 -0.016,0.719 c 0.102,0.207 0.227,0.39 0.375,0.547 0.145,0.156 0.297,0.297 0.453,0.422 0.165,0.125 0.333,0.238 0.5,0.343 0.165,0.102 0.313,0.203 0.438,0.297 0.133,0.102 0.242,0.207 0.328,0.313 0.082,0.113 0.125,0.238 0.125,0.375 0,0.164 -0.043,0.297 -0.125,0.39 -0.074,0.094 -0.195,0.141 -0.359,0.141 -0.336,0 -0.516,-0.195 -0.547,-0.578 l -1.141,0.031 c 0.02,0.188 0.071,0.359 0.157,0.516 0.082,0.156 0.191,0.289 0.328,0.406 0.144,0.113 0.316,0.203 0.515,0.266 0.196,0.07 0.426,0.109 0.688,0.109 0.281,0 0.519,-0.031 0.719,-0.094 0.207,-0.062 0.378,-0.152 0.515,-0.265 0.133,-0.106 0.235,-0.235 0.297,-0.391 0.07,-0.149 0.109,-0.309 0.109,-0.484 0,-0.211 -0.047,-0.391 -0.14,-0.547 -0.086,-0.157 -0.196,-0.297 -0.328,-0.422 -0.125,-0.125 -0.274,-0.242 -0.438,-0.344 -0.156,-0.105 -0.312,-0.211 -0.469,-0.312 -0.148,-0.094 -0.281,-0.196 -0.406,-0.297 -0.125,-0.094 -0.215,-0.203 -0.266,-0.328 l 2.126,0 0,-0.813 -3.438,0 z" /><g
         transform="matrix(1,0,0,-1,0,292.824)"
         id="g338"><path
           id="path340"
           style="fill:#ffffff;fill-opacity:1;fill-rule:nonzero;stroke:#000000;stroke-width:1.00800002;stroke-linecap:butt;stroke-linejoin:miter;stroke-miterlimit:4;stroke-dasharray:none;stroke-opacity:1"
           d="m 398.297,201.602 90.719,0 0,90.719 -90.719,0 0,-90.719 z" /></g><path
         id="path342"
         style="fill:#000000;fill-opacity:1;fill-rule:nonzero;stroke:none"
         d="m 508.168,82.152 2.016,0 0,-2.016 -2.016,0 0,2.016 z" /><g
         transform="matrix(1,0,0,-1,0,292.824)"
         id="g344"><path
           id="path346"
           style="fill:none;stroke:#000000;stroke-width:2.01600003;stroke-linecap:square;stroke-linejoin:miter;stroke-miterlimit:10;stroke-dasharray:none;stroke-opacity:1"
           d="m 490.023,211.68 18.145,0" /></g><path
         id="path348"
         style="fill:#000000;fill-opacity:1;fill-rule:nonzero;stroke:none"
         d="m 377.129,82.152 2.016,0 0,-2.016 -2.016,0 0,2.016 z" /><g
         transform="matrix(1,0,0,-1,0,292.824)"
         id="g350"><path
           id="path352"
           style="fill:none;stroke:#000000;stroke-width:2.01600003;stroke-linecap:square;stroke-linejoin:miter;stroke-miterlimit:10;stroke-dasharray:none;stroke-opacity:1"
           d="m 379.145,211.68 18.144,0" /></g><path
         id="path354"
         style="fill:#000000;fill-opacity:1;fill-rule:nonzero;stroke:none"
         d="m 508.168,11.594 2.016,0 0,-2.016 -2.016,0 0,2.016 z" /><g
         transform="matrix(1,0,0,-1,0,292.824)"
         id="g356"><path
           id="path358"
           style="fill:none;stroke:#000000;stroke-width:2.01600003;stroke-linecap:square;stroke-linejoin:miter;stroke-miterlimit:10;stroke-dasharray:none;stroke-opacity:1"
           d="m 490.023,282.238 18.145,0" /></g><path
         id="path360"
         style="fill:#000000;fill-opacity:1;fill-rule:nonzero;stroke:none"
         d="m 377.129,11.594 2.016,0 0,-2.016 -2.016,0 0,2.016 z" /><g
         transform="matrix(1,0,0,-1,0,292.824)"
         id="g362"><path
           id="path364"
           style="fill:none;stroke:#000000;stroke-width:2.01600003;stroke-linecap:square;stroke-linejoin:miter;stroke-miterlimit:10;stroke-dasharray:none;stroke-opacity:1"
           d="m 379.145,282.238 18.144,0" /></g><path
         id="path366"
         style="fill:#000000;fill-opacity:1;fill-rule:nonzero;stroke:none"
         d="m 444.77,100.297 -1.735,0 -0.797,2.703 c -0.011,0.051 -0.031,0.117 -0.062,0.203 -0.024,0.094 -0.047,0.191 -0.078,0.297 -0.032,0.113 -0.071,0.234 -0.11,0.359 -0.031,0.125 -0.062,0.238 -0.093,0.344 -0.024,0.113 -0.043,0.219 -0.063,0.312 -0.023,0.094 -0.039,0.172 -0.047,0.235 -0.031,-0.106 -0.074,-0.246 -0.125,-0.422 -0.055,-0.168 -0.109,-0.344 -0.172,-0.531 -0.062,-0.188 -0.125,-0.371 -0.187,-0.547 -0.063,-0.18 -0.121,-0.324 -0.172,-0.438 l -1.063,-2.515 -1.75,0 2.782,5.89 -0.157,0.438 c -0.105,0.269 -0.199,0.5 -0.281,0.687 -0.086,0.188 -0.168,0.336 -0.25,0.453 -0.086,0.114 -0.172,0.196 -0.265,0.25 -0.094,0.063 -0.204,0.094 -0.329,0.094 -0.086,0 -0.179,-0.015 -0.281,-0.047 -0.105,-0.023 -0.195,-0.047 -0.265,-0.078 l -0.282,1.141 c 0.114,0.039 0.27,0.078 0.469,0.109 0.195,0.039 0.406,0.063 0.625,0.063 0.313,0 0.582,-0.043 0.813,-0.125 0.226,-0.086 0.425,-0.215 0.593,-0.391 0.176,-0.18 0.332,-0.406 0.469,-0.687 0.145,-0.274 0.285,-0.602 0.422,-0.985 l 2.391,-6.812 z" /><path
         id="path368"
         style="fill:#000000;fill-opacity:1;fill-rule:nonzero;stroke:none"
         d="m 445.129,100.062 1.703,8.938 1.391,0 -1.672,-8.938 -1.422,0 z" /><path
         id="path370"
         style="fill:#000000;fill-opacity:1;fill-rule:nonzero;stroke:none"
         d="m 454.668,102.625 c 0,-0.356 -0.063,-0.684 -0.188,-0.985 -0.117,-0.304 -0.292,-0.562 -0.531,-0.781 -0.242,-0.211 -0.547,-0.375 -0.922,-0.5 -0.375,-0.125 -0.82,-0.187 -1.328,-0.187 -0.511,0 -0.953,0.062 -1.328,0.187 -0.367,0.125 -0.672,0.289 -0.922,0.5 -0.242,0.219 -0.422,0.473 -0.547,0.766 -0.117,0.301 -0.172,0.629 -0.172,0.984 0,0.301 0.047,0.567 0.141,0.797 0.094,0.238 0.219,0.441 0.375,0.609 0.156,0.164 0.332,0.297 0.531,0.391 0.207,0.102 0.422,0.172 0.641,0.203 l 0,0.031 c -0.23,0.051 -0.438,0.133 -0.625,0.25 -0.18,0.114 -0.336,0.254 -0.469,0.422 -0.125,0.164 -0.226,0.348 -0.297,0.547 -0.062,0.195 -0.093,0.406 -0.093,0.625 0,0.332 0.054,0.633 0.171,0.906 0.125,0.27 0.301,0.5 0.532,0.688 0.226,0.187 0.515,0.332 0.859,0.437 0.344,0.102 0.738,0.157 1.188,0.157 0.476,0 0.89,-0.055 1.234,-0.157 0.352,-0.105 0.641,-0.257 0.859,-0.453 0.227,-0.187 0.395,-0.418 0.5,-0.687 0.114,-0.274 0.172,-0.571 0.172,-0.891 0,-0.219 -0.039,-0.433 -0.109,-0.64 -0.063,-0.2 -0.156,-0.383 -0.281,-0.547 -0.125,-0.157 -0.282,-0.293 -0.469,-0.407 -0.188,-0.117 -0.402,-0.195 -0.641,-0.234 l 0,-0.031 c 0.25,-0.043 0.477,-0.117 0.688,-0.219 0.207,-0.094 0.383,-0.227 0.531,-0.391 0.156,-0.168 0.273,-0.371 0.359,-0.609 0.094,-0.23 0.141,-0.492 0.141,-0.781 z m -1.906,3.765 c 0,0.164 -0.024,0.317 -0.063,0.454 -0.031,0.132 -0.09,0.253 -0.172,0.359 -0.074,0.101 -0.183,0.18 -0.328,0.234 -0.137,0.051 -0.308,0.078 -0.515,0.078 -0.211,0 -0.383,-0.027 -0.516,-0.078 -0.137,-0.054 -0.246,-0.133 -0.328,-0.234 -0.086,-0.106 -0.149,-0.227 -0.188,-0.359 -0.031,-0.137 -0.047,-0.29 -0.047,-0.454 0,-0.148 0.016,-0.293 0.047,-0.437 0.032,-0.137 0.082,-0.262 0.157,-0.375 0.082,-0.106 0.191,-0.195 0.328,-0.266 0.144,-0.074 0.328,-0.109 0.547,-0.109 0.238,0 0.425,0.035 0.562,0.109 0.145,0.071 0.254,0.164 0.328,0.282 0.082,0.113 0.133,0.238 0.156,0.375 0.02,0.144 0.032,0.285 0.032,0.421 z m 0.187,-3.625 c 0,0.164 -0.023,0.329 -0.062,0.485 -0.032,0.156 -0.094,0.289 -0.188,0.406 -0.094,0.125 -0.226,0.219 -0.39,0.281 -0.168,0.071 -0.383,0.11 -0.641,0.11 -0.242,0 -0.438,-0.039 -0.594,-0.11 -0.156,-0.062 -0.281,-0.156 -0.375,-0.281 -0.094,-0.125 -0.164,-0.266 -0.203,-0.422 -0.043,-0.156 -0.062,-0.324 -0.062,-0.5 0,-0.211 0.019,-0.402 0.062,-0.578 0.039,-0.168 0.109,-0.312 0.203,-0.437 0.102,-0.118 0.235,-0.211 0.391,-0.282 0.164,-0.062 0.375,-0.093 0.625,-0.093 0.25,0 0.453,0.031 0.609,0.093 0.156,0.071 0.281,0.172 0.375,0.297 0.094,0.125 0.156,0.27 0.188,0.438 0.039,0.175 0.062,0.375 0.062,0.593 z" /><path
         id="path372"
         style="fill:#000000;fill-opacity:1;fill-rule:nonzero;stroke:none"
         d="m 432.301,40.32 0,3.563 c 0,0.238 -0.024,0.461 -0.063,0.671 -0.043,0.208 -0.109,0.383 -0.203,0.532 -0.086,0.144 -0.199,0.258 -0.344,0.343 -0.148,0.083 -0.324,0.125 -0.531,0.125 -0.199,0 -0.383,-0.046 -0.547,-0.14 -0.156,-0.086 -0.297,-0.211 -0.422,-0.375 -0.117,-0.156 -0.203,-0.352 -0.265,-0.578 -0.063,-0.231 -0.094,-0.477 -0.094,-0.735 l 0,-3.406 -1.641,0 0,4.922 c 0,0.133 -0.007,0.273 -0.015,0.422 0,0.144 -0.008,0.281 -0.016,0.406 0,0.133 -0.008,0.254 -0.015,0.359 0,0.102 0,0.18 0,0.235 l 1.562,0 c 0.008,-0.055 0.016,-0.133 0.016,-0.235 0.007,-0.105 0.019,-0.218 0.031,-0.343 0.008,-0.125 0.016,-0.25 0.016,-0.375 0.007,-0.125 0.015,-0.231 0.015,-0.313 l 0.031,0 c 0.219,0.489 0.493,0.844 0.829,1.063 0.332,0.218 0.734,0.328 1.203,0.328 0.382,0 0.707,-0.063 0.968,-0.188 0.258,-0.125 0.473,-0.297 0.641,-0.515 0.164,-0.219 0.285,-0.481 0.359,-0.782 0.082,-0.292 0.125,-0.609 0.125,-0.953 l 0,-4.031 -1.64,0 z" /><path
         id="path374"
         style="fill:#000000;fill-opacity:1;fill-rule:nonzero;stroke:none"
         d="m 435.055,44.383 -0.016,0.718 c 0.102,0.207 0.227,0.391 0.375,0.547 0.145,0.156 0.297,0.297 0.453,0.422 0.164,0.125 0.332,0.238 0.5,0.344 0.164,0.101 0.313,0.203 0.438,0.297 0.133,0.101 0.242,0.207 0.328,0.312 0.082,0.114 0.125,0.239 0.125,0.375 0,0.164 -0.043,0.297 -0.125,0.391 -0.074,0.094 -0.195,0.14 -0.36,0.14 -0.335,0 -0.515,-0.195 -0.546,-0.578 l -1.141,0.032 c 0.019,0.187 0.07,0.359 0.156,0.515 0.082,0.156 0.192,0.289 0.328,0.406 0.145,0.114 0.317,0.204 0.516,0.266 0.195,0.07 0.426,0.109 0.687,0.109 0.282,0 0.52,-0.031 0.719,-0.093 0.207,-0.063 0.379,-0.153 0.516,-0.266 0.133,-0.105 0.234,-0.234 0.297,-0.391 0.07,-0.148 0.109,-0.308 0.109,-0.484 0,-0.211 -0.047,-0.391 -0.141,-0.547 -0.085,-0.156 -0.195,-0.297 -0.328,-0.422 -0.125,-0.125 -0.273,-0.242 -0.437,-0.343 -0.156,-0.106 -0.313,-0.211 -0.469,-0.313 -0.148,-0.094 -0.281,-0.195 -0.406,-0.297 -0.125,-0.094 -0.215,-0.203 -0.266,-0.328 l 2.125,0 0,-0.812 -3.437,0 z" /><path
         id="path376"
         style="fill:#000000;fill-opacity:1;fill-rule:nonzero;stroke:none"
         d="m 445.766,40.32 -6.625,0 0,1.219 4.468,5.687 -4.031,0 0,1.344 5.953,0 0,-1.187 -4.469,-5.704 4.704,0 0,-1.359 z" /><path
         id="path378"
         style="fill:#000000;fill-opacity:1;fill-rule:nonzero;stroke:none"
         d="m 446.926,40.32 0,1.219 2.047,0 0,5.64 -1.969,-1.234 0,1.297 2.062,1.328 1.563,0 0,-7.031 1.891,0 0,-1.219 -5.594,0 z" /><path
         id="path380"
         style="fill:#000000;fill-opacity:1;fill-rule:nonzero;stroke:none"
         d="m 377.129,11.594 2.016,0 0,-2.016 -2.016,0 0,2.016 z" /><g
         transform="matrix(0,1,1,0,0,292.824)"
         id="g382"><path
           id="path384"
           style="fill:#ffffff;fill-opacity:1;fill-rule:nonzero;stroke:#000000;stroke-width:2.01600003;stroke-linecap:butt;stroke-linejoin:miter;stroke-miterlimit:4;stroke-dasharray:none;stroke-opacity:1"
           d="m -278.07,368.055 c 0,2.304 -1.868,4.168 -4.168,4.168 -2.305,0 -4.168,-1.864 -4.168,-4.168 0,-2.301 1.863,-4.168 4.168,-4.168 2.3,0 4.168,1.867 4.168,4.168 z" /></g><g
         transform="matrix(0,1,1,0,0,292.824)"
         id="g386"><path
           id="path388"
           style="fill:none;stroke:#000000;stroke-width:2.01600003;stroke-linecap:square;stroke-linejoin:miter;stroke-miterlimit:10;stroke-dasharray:none;stroke-opacity:1"
           d="m -282.238,373.098 0,4.031" /></g><path
         id="path390"
         style="fill:#000000;fill-opacity:1;fill-rule:nonzero;stroke:none"
         d="m 377.129,82.152 2.016,0 0,-2.016 -2.016,0 0,2.016 z" /><g
         transform="matrix(0,1,1,0,0,292.824)"
         id="g392"><path
           id="path394"
           style="fill:#ffffff;fill-opacity:1;fill-rule:nonzero;stroke:#000000;stroke-width:2.01600003;stroke-linecap:butt;stroke-linejoin:miter;stroke-miterlimit:4;stroke-dasharray:none;stroke-opacity:1"
           d="m -207.512,368.055 c 0,2.304 -1.867,4.168 -4.168,4.168 -2.3,0 -4.168,-1.864 -4.168,-4.168 0,-2.301 1.868,-4.168 4.168,-4.168 2.301,0 4.168,1.867 4.168,4.168 z" /></g><g
         transform="matrix(0,1,1,0,0,292.824)"
         id="g396"><path
           id="path398"
           style="fill:none;stroke:#000000;stroke-width:2.01600003;stroke-linecap:square;stroke-linejoin:miter;stroke-miterlimit:10;stroke-dasharray:none;stroke-opacity:1"
           d="m -211.68,373.098 0,4.031" /></g><path
         id="path400"
         style="fill:#000000;fill-opacity:1;fill-rule:nonzero;stroke:none"
         d="m 377.129,263.594 2.016,0 0,-2.016 -2.016,0 0,2.016 z" /><g
         transform="matrix(0,1,1,0,0,292.824)"
         id="g402"><path
           id="path404"
           style="fill:#ffffff;fill-opacity:1;fill-rule:nonzero;stroke:#000000;stroke-width:2.01600003;stroke-linecap:butt;stroke-linejoin:miter;stroke-miterlimit:4;stroke-dasharray:none;stroke-opacity:1"
           d="m -26.07,368.055 c 0,2.304 -1.868,4.168 -4.168,4.168 -2.305,0 -4.168,-1.864 -4.168,-4.168 0,-2.301 1.863,-4.168 4.168,-4.168 2.3,0 4.168,1.867 4.168,4.168 z" /></g><g
         transform="matrix(0,1,1,0,0,292.824)"
         id="g406"><path
           id="path408"
           style="fill:none;stroke:#000000;stroke-width:2.01600003;stroke-linecap:square;stroke-linejoin:miter;stroke-miterlimit:10;stroke-dasharray:none;stroke-opacity:1"
           d="m -30.238,373.098 0,4.031" /></g><path
         id="path410"
         style="fill:#000000;fill-opacity:1;fill-rule:nonzero;stroke:none"
         d="m 377.129,193.031 2.016,0 0,-2.016 -2.016,0 0,2.016 z" /><g
         transform="matrix(0,1,1,0,0,292.824)"
         id="g412"><path
           id="path414"
           style="fill:#ffffff;fill-opacity:1;fill-rule:nonzero;stroke:#000000;stroke-width:2.01600003;stroke-linecap:butt;stroke-linejoin:miter;stroke-miterlimit:4;stroke-dasharray:none;stroke-opacity:1"
           d="m -96.633,368.055 c 0,2.304 -1.863,4.168 -4.168,4.168 -2.301,0 -4.168,-1.864 -4.168,-4.168 0,-2.301 1.867,-4.168 4.168,-4.168 2.305,0 4.168,1.867 4.168,4.168 z" /></g><g
         transform="matrix(0,1,1,0,0,292.824)"
         id="g416"><path
           id="path418"
           style="fill:none;stroke:#000000;stroke-width:2.01600003;stroke-linecap:square;stroke-linejoin:miter;stroke-miterlimit:10;stroke-dasharray:none;stroke-opacity:1"
           d="m -100.801,373.098 0,4.031" /></g><path
         id="path420"
         style="fill:#000000;fill-opacity:1;fill-rule:nonzero;stroke:none"
         d="m 538.406,72.07 2.02,0 0,-2.016 -2.02,0 0,2.016 z" /><path
         id="path422"
         style="fill:#000000;fill-opacity:1;fill-rule:nonzero;stroke:none"
         d="m 538.406,21.672 2.02,0 0,-2.016 -2.02,0 0,2.016 z" /><g
         transform="matrix(1,0,0,-1,0,292.824)"
         id="g424"><path
           id="path426"
           style="fill:none;stroke:#000000;stroke-width:2.01600003;stroke-linecap:round;stroke-linejoin:miter;stroke-miterlimit:10;stroke-dasharray:none;stroke-opacity:1"
           d="m 528.328,242.93 22.176,0" /></g><g
         transform="matrix(1,0,0,-1,0,292.824)"
         id="g428"><path
           id="path430"
           style="fill:none;stroke:#000000;stroke-width:2.01600003;stroke-linecap:round;stroke-linejoin:miter;stroke-miterlimit:10;stroke-dasharray:none;stroke-opacity:1"
           d="m 528.328,250.992 22.176,0" /></g><g
         transform="matrix(1,0,0,-1,0,292.824)"
         id="g432"><path
           id="path434"
           style="fill:none;stroke:#000000;stroke-width:2.01600003;stroke-linecap:square;stroke-linejoin:miter;stroke-miterlimit:10;stroke-dasharray:none;stroke-opacity:1"
           d="m 539.418,222.77 0,19.152" /></g><g
         transform="matrix(1,0,0,-1,0,292.824)"
         id="g436"><path
           id="path438"
           style="fill:none;stroke:#000000;stroke-width:2.01600003;stroke-linecap:square;stroke-linejoin:miter;stroke-miterlimit:10;stroke-dasharray:none;stroke-opacity:1"
           d="m 539.418,252 0,19.152" /></g><path
         id="path440"
         style="fill:#000000;fill-opacity:1;fill-rule:nonzero;stroke:none"
         d="m 558.297,40.32 0,1.219 2.047,0 0,5.64 -1.969,-1.234 0,1.297 2.063,1.328 1.562,0 0,-7.031 1.891,0 0,-1.219 -5.594,0 z" /><path
         id="path442"
         style="fill:#000000;fill-opacity:1;fill-rule:nonzero;stroke:none"
         d="m 567.762,40.086 1.703,8.937 1.39,0 -1.671,-8.937 -1.422,0 z" /><path
         id="path444"
         style="fill:#000000;fill-opacity:1;fill-rule:nonzero;stroke:none"
         d="m 579.297,40.32 0,3.563 c 0,0.238 -0.024,0.461 -0.063,0.671 -0.043,0.208 -0.109,0.383 -0.203,0.532 -0.086,0.144 -0.199,0.258 -0.343,0.343 -0.149,0.083 -0.325,0.125 -0.532,0.125 -0.199,0 -0.383,-0.046 -0.547,-0.14 -0.156,-0.086 -0.297,-0.211 -0.421,-0.375 -0.118,-0.156 -0.204,-0.352 -0.266,-0.578 -0.063,-0.231 -0.094,-0.477 -0.094,-0.735 l 0,-3.406 -1.64,0 0,4.922 c 0,0.133 -0.008,0.273 -0.016,0.422 0,0.144 -0.008,0.281 -0.016,0.406 0,0.133 -0.008,0.254 -0.015,0.359 0,0.102 0,0.18 0,0.235 l 1.562,0 c 0.008,-0.055 0.016,-0.133 0.016,-0.235 0.008,-0.105 0.019,-0.218 0.031,-0.343 0.008,-0.125 0.016,-0.25 0.016,-0.375 0.007,-0.125 0.015,-0.231 0.015,-0.313 l 0.031,0 c 0.219,0.489 0.493,0.844 0.829,1.063 0.332,0.218 0.734,0.328 1.203,0.328 0.383,0 0.707,-0.063 0.968,-0.188 0.258,-0.125 0.473,-0.297 0.641,-0.515 0.164,-0.219 0.285,-0.481 0.359,-0.782 0.083,-0.292 0.126,-0.609 0.126,-0.953 l 0,-4.031 -1.641,0 z" /><path
         id="path446"
         style="fill:#000000;fill-opacity:1;fill-rule:nonzero;stroke:none"
         d="m 582.055,44.383 -0.016,0.718 c 0.102,0.207 0.227,0.391 0.375,0.547 0.145,0.156 0.297,0.297 0.453,0.422 0.164,0.125 0.332,0.238 0.5,0.344 0.164,0.101 0.313,0.203 0.438,0.297 0.133,0.101 0.242,0.207 0.328,0.312 0.082,0.114 0.125,0.239 0.125,0.375 0,0.164 -0.043,0.297 -0.125,0.391 -0.074,0.094 -0.195,0.14 -0.36,0.14 -0.335,0 -0.515,-0.195 -0.546,-0.578 l -1.141,0.032 c 0.019,0.187 0.07,0.359 0.156,0.515 0.082,0.156 0.192,0.289 0.328,0.406 0.145,0.114 0.317,0.204 0.516,0.266 0.195,0.07 0.426,0.109 0.687,0.109 0.282,0 0.52,-0.031 0.719,-0.093 0.207,-0.063 0.379,-0.153 0.516,-0.266 0.133,-0.105 0.234,-0.234 0.297,-0.391 0.07,-0.148 0.109,-0.308 0.109,-0.484 0,-0.211 -0.047,-0.391 -0.141,-0.547 -0.085,-0.156 -0.195,-0.297 -0.328,-0.422 -0.125,-0.125 -0.273,-0.242 -0.437,-0.343 -0.156,-0.106 -0.313,-0.211 -0.469,-0.313 -0.148,-0.094 -0.281,-0.195 -0.406,-0.297 -0.125,-0.094 -0.215,-0.203 -0.266,-0.328 l 2.125,0 0,-0.812 -3.437,0 z" /><path
         id="path448"
         style="fill:#000000;fill-opacity:1;fill-rule:nonzero;stroke:none"
         d="m 592.766,40.32 -6.625,0 0,1.219 4.468,5.687 -4.031,0 0,1.344 5.953,0 0,-1.187 -4.469,-5.704 4.704,0 0,-1.359 z" /><path
         id="path450"
         style="fill:#000000;fill-opacity:1;fill-rule:nonzero;stroke:none"
         d="m 593.598,40.32 0,1.141 c 0.187,0.414 0.41,0.785 0.672,1.109 0.269,0.332 0.55,0.633 0.843,0.906 0.301,0.282 0.598,0.536 0.891,0.766 0.289,0.238 0.551,0.469 0.781,0.687 0.238,0.227 0.426,0.454 0.563,0.672 0.144,0.219 0.218,0.453 0.218,0.703 0,0.375 -0.093,0.645 -0.281,0.813 -0.18,0.176 -0.445,0.266 -0.797,0.266 -0.355,0 -0.625,-0.094 -0.812,-0.282 -0.18,-0.187 -0.297,-0.468 -0.36,-0.843 l -1.656,0.093 c 0.039,0.321 0.117,0.625 0.235,0.907 0.125,0.281 0.296,0.531 0.515,0.75 0.227,0.218 0.508,0.382 0.844,0.5 0.344,0.125 0.75,0.187 1.219,0.187 0.445,0 0.843,-0.055 1.187,-0.156 0.344,-0.106 0.629,-0.258 0.86,-0.453 0.238,-0.199 0.414,-0.446 0.531,-0.735 0.125,-0.281 0.187,-0.605 0.187,-0.968 0,-0.387 -0.078,-0.735 -0.234,-1.047 -0.149,-0.313 -0.34,-0.606 -0.578,-0.875 -0.242,-0.262 -0.508,-0.508 -0.797,-0.735 -0.293,-0.23 -0.574,-0.453 -0.844,-0.672 -0.273,-0.218 -0.523,-0.445 -0.75,-0.671 -0.219,-0.219 -0.387,-0.454 -0.5,-0.704 l 3.828,0 0,-1.359 -5.765,0 z" /><path
         id="path452"
         style="fill:#000000;fill-opacity:1;fill-rule:nonzero;stroke:none"
         d="m 568.648,263.594 2.016,0 0,-2.016 -2.016,0 0,2.016 z" /><path
         id="path454"
         style="fill:#000000;fill-opacity:1;fill-rule:nonzero;stroke:none"
         d="m 508.168,263.594 2.016,0 0,-2.016 -2.016,0 0,2.016 z" /><g
         transform="matrix(0,-1,-1,0,0,292.824)"
         id="g456"><path
           id="path458"
           style="fill:none;stroke:#000000;stroke-width:2.01600003;stroke-linecap:round;stroke-linejoin:round;stroke-miterlimit:10;stroke-dasharray:none;stroke-opacity:1"
           d="m 28.359,-549.496 c -3.05,0.008 -5.535,-2.238 -5.543,-5.027 -0.007,-2.786 2.461,-5.047 5.516,-5.051 l 0.016,0" /></g><g
         transform="matrix(0,-1,-1,0,0,292.824)"
         id="g460"><path
           id="path462"
           style="fill:none;stroke:#000000;stroke-width:2.01600003;stroke-linecap:round;stroke-linejoin:round;stroke-miterlimit:10;stroke-dasharray:none;stroke-opacity:1"
           d="m 28.223,-559.574 2.015,0" /></g><g
         transform="matrix(0,-1,-1,0,0,292.824)"
         id="g464"><path
           id="path466"
           style="fill:none;stroke:#000000;stroke-width:2.01600003;stroke-linecap:round;stroke-linejoin:round;stroke-miterlimit:10;stroke-dasharray:none;stroke-opacity:1"
           d="m 28.223,-549.496 2.015,0" /></g><g
         transform="matrix(0,-1,-1,0,0,292.824)"
         id="g468"><path
           id="path470"
           style="fill:none;stroke:#000000;stroke-width:2.01600003;stroke-linecap:round;stroke-linejoin:round;stroke-miterlimit:10;stroke-dasharray:none;stroke-opacity:1"
           d="m 28.359,-539.418 c -3.05,0.008 -5.535,-2.238 -5.543,-5.023 -0.007,-2.786 2.461,-5.047 5.516,-5.055 l 0.016,0" /></g><g
         transform="matrix(0,-1,-1,0,0,292.824)"
         id="g472"><path
           id="path474"
           style="fill:none;stroke:#000000;stroke-width:2.01600003;stroke-linecap:round;stroke-linejoin:round;stroke-miterlimit:10;stroke-dasharray:none;stroke-opacity:1"
           d="m 28.223,-549.496 2.015,0" /></g><g
         transform="matrix(0,-1,-1,0,0,292.824)"
         id="g476"><path
           id="path478"
           style="fill:none;stroke:#000000;stroke-width:2.01600003;stroke-linecap:round;stroke-linejoin:round;stroke-miterlimit:10;stroke-dasharray:none;stroke-opacity:1"
           d="m 28.223,-539.418 2.015,0" /></g><g
         transform="matrix(0,-1,-1,0,0,292.824)"
         id="g480"><path
           id="path482"
           style="fill:none;stroke:#000000;stroke-width:2.01600003;stroke-linecap:round;stroke-linejoin:round;stroke-miterlimit:10;stroke-dasharray:none;stroke-opacity:1"
           d="m 28.359,-529.336 c -3.05,0.008 -5.535,-2.238 -5.543,-5.027 -0.007,-2.785 2.461,-5.047 5.516,-5.055 l 0.016,0" /></g><g
         transform="matrix(0,-1,-1,0,0,292.824)"
         id="g484"><path
           id="path486"
           style="fill:none;stroke:#000000;stroke-width:2.01600003;stroke-linecap:round;stroke-linejoin:round;stroke-miterlimit:10;stroke-dasharray:none;stroke-opacity:1"
           d="m 28.223,-539.418 2.015,0" /></g><g
         transform="matrix(0,-1,-1,0,0,292.824)"
         id="g488"><path
           id="path490"
           style="fill:none;stroke:#000000;stroke-width:2.01600003;stroke-linecap:round;stroke-linejoin:round;stroke-miterlimit:10;stroke-dasharray:none;stroke-opacity:1"
           d="m 28.223,-529.336 2.015,0" /></g><g
         transform="matrix(0,-1,-1,0,0,292.824)"
         id="g492"><path
           id="path494"
           style="fill:none;stroke:#000000;stroke-width:2.01600003;stroke-linecap:round;stroke-linejoin:round;stroke-miterlimit:10;stroke-dasharray:none;stroke-opacity:1"
           d="m 28.359,-519.258 c -3.05,0.008 -5.535,-2.238 -5.543,-5.023 -0.007,-2.785 2.461,-5.047 5.516,-5.055 l 0.016,0" /></g><g
         transform="matrix(0,-1,-1,0,0,292.824)"
         id="g496"><path
           id="path498"
           style="fill:none;stroke:#000000;stroke-width:2.01600003;stroke-linecap:round;stroke-linejoin:round;stroke-miterlimit:10;stroke-dasharray:none;stroke-opacity:1"
           d="m 28.223,-529.336 2.015,0" /></g><g
         transform="matrix(0,-1,-1,0,0,292.824)"
         id="g500"><path
           id="path502"
           style="fill:none;stroke:#000000;stroke-width:2.01600003;stroke-linecap:round;stroke-linejoin:round;stroke-miterlimit:10;stroke-dasharray:none;stroke-opacity:1"
           d="m 28.223,-519.258 2.015,0" /></g><g
         transform="matrix(0,-1,-1,0,0,292.824)"
         id="g504"><path
           id="path506"
           style="fill:none;stroke:#000000;stroke-width:2.01600003;stroke-linecap:square;stroke-linejoin:miter;stroke-miterlimit:10;stroke-dasharray:none;stroke-opacity:1"
           d="m 30.238,-568.648 0,8.062" /></g><g
         transform="matrix(0,-1,-1,0,0,292.824)"
         id="g508"><path
           id="path510"
           style="fill:none;stroke:#000000;stroke-width:2.01600003;stroke-linecap:square;stroke-linejoin:miter;stroke-miterlimit:10;stroke-dasharray:none;stroke-opacity:1"
           d="m 30.238,-518.25 0,8.066" /></g><path
         id="path512"
         style="fill:#000000;fill-opacity:1;fill-rule:nonzero;stroke:none"
         d="m 534.637,241.922 -6.625,0 0,1.218 4.468,5.688 -4.031,0 0,1.344 5.953,0 0,-1.188 -4.468,-5.703 4.703,0 0,-1.359 z" /><path
         id="path514"
         style="fill:#000000;fill-opacity:1;fill-rule:nonzero;stroke:none"
         d="m 535.797,241.922 0,1.218 2.047,0 0,5.641 -1.969,-1.234 0,1.297 2.063,1.328 1.562,0 0,-7.032 1.891,0 0,-1.218 -5.594,0 z" /><path
         id="path516"
         style="fill:#000000;fill-opacity:1;fill-rule:nonzero;stroke:none"
         d="m 545.258,241.687 1.703,8.938 1.391,0 -1.672,-8.938 -1.422,0 z" /><path
         id="path518"
         style="fill:#000000;fill-opacity:1;fill-rule:nonzero;stroke:none"
         d="m 556.797,241.922 0,3.562 c 0,0.238 -0.024,0.461 -0.063,0.672 -0.043,0.207 -0.109,0.383 -0.203,0.531 -0.086,0.145 -0.199,0.258 -0.343,0.344 -0.149,0.082 -0.325,0.125 -0.532,0.125 -0.199,0 -0.383,-0.047 -0.547,-0.141 -0.156,-0.086 -0.297,-0.211 -0.421,-0.375 -0.118,-0.156 -0.204,-0.351 -0.266,-0.578 -0.063,-0.23 -0.094,-0.476 -0.094,-0.734 l 0,-3.406 -1.64,0 0,4.922 c 0,0.132 -0.008,0.273 -0.016,0.421 0,0.145 -0.008,0.282 -0.016,0.407 0,0.132 -0.008,0.254 -0.015,0.359 0,0.102 0,0.18 0,0.234 l 1.562,0 c 0.008,-0.054 0.016,-0.132 0.016,-0.234 0.008,-0.105 0.019,-0.219 0.031,-0.344 0.008,-0.125 0.016,-0.25 0.016,-0.375 0.007,-0.125 0.015,-0.23 0.015,-0.312 l 0.031,0 c 0.219,0.488 0.493,0.844 0.829,1.062 0.332,0.219 0.734,0.328 1.203,0.328 0.383,0 0.707,-0.062 0.968,-0.187 0.258,-0.125 0.473,-0.297 0.641,-0.516 0.164,-0.218 0.285,-0.48 0.359,-0.781 0.083,-0.293 0.126,-0.609 0.126,-0.953 l 0,-4.031 -1.641,0 z" /><path
         id="path520"
         style="fill:#000000;fill-opacity:1;fill-rule:nonzero;stroke:none"
         d="m 559.551,245.984 -0.016,0.719 c 0.102,0.207 0.227,0.391 0.375,0.547 0.145,0.156 0.297,0.297 0.453,0.422 0.164,0.125 0.332,0.238 0.5,0.343 0.164,0.102 0.313,0.204 0.438,0.297 0.133,0.102 0.242,0.207 0.328,0.313 0.082,0.113 0.125,0.238 0.125,0.375 0,0.164 -0.043,0.297 -0.125,0.39 -0.074,0.094 -0.195,0.141 -0.359,0.141 -0.336,0 -0.516,-0.195 -0.547,-0.578 l -1.141,0.031 c 0.02,0.188 0.07,0.36 0.156,0.516 0.082,0.156 0.192,0.289 0.328,0.406 0.145,0.113 0.317,0.203 0.516,0.266 0.195,0.07 0.426,0.109 0.688,0.109 0.281,0 0.519,-0.031 0.718,-0.094 0.207,-0.062 0.379,-0.152 0.516,-0.265 0.133,-0.106 0.234,-0.235 0.297,-0.391 0.07,-0.148 0.109,-0.309 0.109,-0.484 0,-0.211 -0.047,-0.391 -0.14,-0.547 -0.086,-0.156 -0.196,-0.297 -0.329,-0.422 -0.125,-0.125 -0.273,-0.242 -0.437,-0.344 -0.156,-0.105 -0.313,-0.211 -0.469,-0.312 -0.148,-0.094 -0.281,-0.196 -0.406,-0.297 -0.125,-0.094 -0.215,-0.203 -0.266,-0.328 l 2.125,0 0,-0.813 -3.437,0 z" /><path
         id="path522"
         style="fill:#000000;fill-opacity:1;fill-rule:nonzero;stroke:none"
         d="m 578.727,263.594 2.016,0 0,-2.016 -2.016,0 0,2.016 z" /><g
         transform="matrix(0,-1,-1,0,0,292.824)"
         id="g524"><path
           id="path526"
           style="fill:#ffffff;fill-opacity:1;fill-rule:nonzero;stroke:#000000;stroke-width:2.01600003;stroke-linecap:butt;stroke-linejoin:miter;stroke-miterlimit:4;stroke-dasharray:none;stroke-opacity:1"
           d="m 34.406,-589.816 c 0,2.3 -1.863,4.168 -4.168,4.168 -2.3,0 -4.168,-1.868 -4.168,-4.168 0,-2.301 1.868,-4.168 4.168,-4.168 2.305,0 4.168,1.867 4.168,4.168 z" /></g><g
         transform="matrix(0,-1,-1,0,0,292.824)"
         id="g528"><path
           id="path530"
           style="fill:none;stroke:#000000;stroke-width:2.01600003;stroke-linecap:square;stroke-linejoin:miter;stroke-miterlimit:10;stroke-dasharray:none;stroke-opacity:1"
           d="m 30.238,-584.777 0,4.035" /></g><path
         id="path532"
         style="fill:#000000;fill-opacity:1;fill-rule:nonzero;stroke:none"
         d="m 578.727,193.031 2.016,0 0,-2.016 -2.016,0 0,2.016 z" /><g
         transform="matrix(0,-1,-1,0,0,292.824)"
         id="g534"><path
           id="path536"
           style="fill:#ffffff;fill-opacity:1;fill-rule:nonzero;stroke:#000000;stroke-width:2.01600003;stroke-linecap:butt;stroke-linejoin:miter;stroke-miterlimit:4;stroke-dasharray:none;stroke-opacity:1"
           d="m 104.969,-589.816 c 0,2.3 -1.867,4.168 -4.168,4.168 -2.305,0 -4.168,-1.868 -4.168,-4.168 0,-2.301 1.863,-4.168 4.168,-4.168 2.301,0 4.168,1.867 4.168,4.168 z" /></g><g
         transform="matrix(0,-1,-1,0,0,292.824)"
         id="g538"><path
           id="path540"
           style="fill:none;stroke:#000000;stroke-width:2.01600003;stroke-linecap:square;stroke-linejoin:miter;stroke-miterlimit:10;stroke-dasharray:none;stroke-opacity:1"
           d="m 100.801,-584.777 0,4.035" /></g><path
         id="path542"
         style="fill:#000000;fill-opacity:1;fill-rule:nonzero;stroke:none"
         d="m 578.727,82.152 2.016,0 0,-2.016 -2.016,0 0,2.016 z" /><g
         transform="matrix(0,-1,-1,0,0,292.824)"
         id="g544"><path
           id="path546"
           style="fill:#ffffff;fill-opacity:1;fill-rule:nonzero;stroke:#000000;stroke-width:2.01600003;stroke-linecap:butt;stroke-linejoin:miter;stroke-miterlimit:4;stroke-dasharray:none;stroke-opacity:1"
           d="m 215.848,-589.816 c 0,2.3 -1.868,4.168 -4.168,4.168 -2.301,0 -4.168,-1.868 -4.168,-4.168 0,-2.301 1.867,-4.168 4.168,-4.168 2.3,0 4.168,1.867 4.168,4.168 z" /></g><g
         transform="matrix(0,-1,-1,0,0,292.824)"
         id="g548"><path
           id="path550"
           style="fill:none;stroke:#000000;stroke-width:2.01600003;stroke-linecap:square;stroke-linejoin:miter;stroke-miterlimit:10;stroke-dasharray:none;stroke-opacity:1"
           d="m 211.68,-584.777 0,4.035" /></g><path
         id="path552"
         style="fill:#000000;fill-opacity:1;fill-rule:nonzero;stroke:none"
         d="m 578.727,11.594 2.016,0 0,-2.016 -2.016,0 0,2.016 z" /><g
         transform="matrix(0,-1,-1,0,0,292.824)"
         id="g554"><path
           id="path556"
           style="fill:#ffffff;fill-opacity:1;fill-rule:nonzero;stroke:#000000;stroke-width:2.01600003;stroke-linecap:butt;stroke-linejoin:miter;stroke-miterlimit:4;stroke-dasharray:none;stroke-opacity:1"
           d="m 286.406,-589.816 c 0,2.3 -1.863,4.168 -4.168,4.168 -2.3,0 -4.168,-1.868 -4.168,-4.168 0,-2.301 1.868,-4.168 4.168,-4.168 2.305,0 4.168,1.867 4.168,4.168 z" /></g><g
         transform="matrix(0,-1,-1,0,0,292.824)"
         id="g558"><path
           id="path560"
           style="fill:none;stroke:#000000;stroke-width:2.01600003;stroke-linecap:square;stroke-linejoin:miter;stroke-miterlimit:10;stroke-dasharray:none;stroke-opacity:1"
           d="m 282.238,-584.777 0,4.035" /></g><g
         transform="matrix(1,0,0,-1,0,292.824)"
         id="g562"><path
           id="path564"
           style="fill:none;stroke:#000000;stroke-width:2.01600003;stroke-linecap:butt;stroke-linejoin:miter;stroke-miterlimit:10;stroke-dasharray:none;stroke-opacity:1"
           d="m 509.176,282.238 70.558,0" /></g><g
         transform="matrix(1,0,0,-1,0,292.824)"
         id="g566"><path
           id="path568"
           style="fill:none;stroke:#000000;stroke-width:2.01600003;stroke-linecap:butt;stroke-linejoin:miter;stroke-miterlimit:10;stroke-dasharray:none;stroke-opacity:1"
           d="m 579.734,211.68 -70.558,0" /></g><g
         transform="matrix(1,0,0,-1,0,292.824)"
         id="g570"><path
           id="path572"
           style="fill:none;stroke:#000000;stroke-width:2.01600003;stroke-linecap:butt;stroke-linejoin:miter;stroke-miterlimit:10;stroke-dasharray:none;stroke-opacity:1"
           d="m 509.176,100.801 70.558,0" /></g><g
         transform="matrix(1,0,0,-1,0,292.824)"
         id="g574"><path
           id="path576"
           style="fill:none;stroke:#000000;stroke-width:2.01600003;stroke-linecap:butt;stroke-linejoin:miter;stroke-miterlimit:10;stroke-dasharray:none;stroke-opacity:1"
           d="m 579.734,30.238 -10.078,0" /></g><g
         transform="matrix(1,0,0,-1,0,292.824)"
         id="g578"><path
           id="path580"
           style="fill:none;stroke:#000000;stroke-width:2.01600003;stroke-linecap:butt;stroke-linejoin:miter;stroke-miterlimit:10;stroke-dasharray:none;stroke-opacity:1"
           d="m 539.418,221.762 0,-10.082 0,2.015" /></g><g
         transform="matrix(1,0,0,-1,0,292.824)"
         id="g582"><path
           id="path584"
           style="fill:#000000;fill-opacity:1;fill-rule:nonzero;stroke:#000000;stroke-width:2.01600003;stroke-linecap:butt;stroke-linejoin:miter;stroke-miterlimit:4;stroke-dasharray:none;stroke-opacity:1"
           d="m 541.434,211.68 c 0,1.113 -0.903,2.015 -2.016,2.015 -1.117,0 -2.02,-0.902 -2.02,-2.015 0,-1.114 0.903,-2.016 2.02,-2.016 1.113,0 2.016,0.902 2.016,2.016 z" /></g><g
         transform="matrix(1,0,0,-1,0,292.824)"
         id="g586"><path
           id="path588"
           style="fill:none;stroke:#000000;stroke-width:2.01600003;stroke-linecap:butt;stroke-linejoin:miter;stroke-miterlimit:10;stroke-dasharray:none;stroke-opacity:1"
           d="m 539.418,272.16 0,10.078 0,-2.015" /></g><g
         transform="matrix(1,0,0,-1,0,292.824)"
         id="g590"><path
           id="path592"
           style="fill:#000000;fill-opacity:1;fill-rule:nonzero;stroke:#000000;stroke-width:2.01600003;stroke-linecap:butt;stroke-linejoin:miter;stroke-miterlimit:4;stroke-dasharray:none;stroke-opacity:1"
           d="m 541.434,282.238 c 0,1.114 -0.903,2.02 -2.016,2.02 -1.117,0 -2.02,-0.906 -2.02,-2.02 0,-1.113 0.903,-2.015 2.02,-2.015 1.113,0 2.016,0.902 2.016,2.015 z" /></g><g
         transform="matrix(1,0,0,-1,0,292.824)"
         id="g594"><path
           id="path596"
           style="fill:none;stroke:#000000;stroke-width:2.01600003;stroke-linecap:butt;stroke-linejoin:miter;stroke-miterlimit:10;stroke-dasharray:none;stroke-opacity:1"
           d="m 284.125,70.559 26.742,0" /></g><g
         transform="matrix(1,0,0,-1,0,292.824)"
         id="g598"><path
           id="path600"
           style="fill:#000000;fill-opacity:1;fill-rule:nonzero;stroke:#000000;stroke-width:2.01600003;stroke-linecap:butt;stroke-linejoin:miter;stroke-miterlimit:10;stroke-dasharray:none;stroke-opacity:1"
           d="m 279.59,70.559 6.047,-3.024 -1.512,3.024 1.512,3.027 -6.047,-3.027 z" /></g><g
         transform="matrix(1,0,0,-1,0,292.824)"
         id="g602"><path
           id="path604"
           style="fill:#000000;fill-opacity:1;fill-rule:nonzero;stroke:#000000;stroke-width:2.01600003;stroke-linecap:butt;stroke-linejoin:miter;stroke-miterlimit:10;stroke-dasharray:none;stroke-opacity:1"
           d="m 315.402,70.559 -6.047,3.027 1.512,-3.027 -1.512,-3.024 6.047,3.024 z" /></g><g
         transform="matrix(1,0,0,-1,0,292.824)"
         id="g606"><path
           id="path608"
           style="fill:none;stroke:#000000;stroke-width:2.01600003;stroke-linecap:butt;stroke-linejoin:miter;stroke-miterlimit:10;stroke-dasharray:none;stroke-opacity:1"
           d="m 284.125,252 26.742,0" /></g><g
         transform="matrix(1,0,0,-1,0,292.824)"
         id="g610"><path
           id="path612"
           style="fill:#000000;fill-opacity:1;fill-rule:nonzero;stroke:#000000;stroke-width:2.01600003;stroke-linecap:butt;stroke-linejoin:miter;stroke-miterlimit:10;stroke-dasharray:none;stroke-opacity:1"
           d="m 279.59,252 6.047,-3.023 -1.512,3.023 1.512,3.023 L 279.59,252 Z" /></g><g
         transform="matrix(1,0,0,-1,0,292.824)"
         id="g614"><path
           id="path616"
           style="fill:#000000;fill-opacity:1;fill-rule:nonzero;stroke:#000000;stroke-width:2.01600003;stroke-linecap:butt;stroke-linejoin:miter;stroke-miterlimit:10;stroke-dasharray:none;stroke-opacity:1"
           d="m 315.402,252 -6.047,3.023 1.512,-3.023 -1.512,-3.023 6.047,3.023 z" /></g></g></g></svg>