<?xml version="1.0" encoding="UTF-8" standalone="no"?>
<svg
   xmlns:dc="http://purl.org/dc/elements/1.1/"
   xmlns:cc="http://creativecommons.org/ns#"
   xmlns:rdf="http://www.w3.org/1999/02/22-rdf-syntax-ns#"
   xmlns:svg="http://www.w3.org/2000/svg"
   xmlns="http://www.w3.org/2000/svg"
   viewBox="0 0 821.65582 243.78792"
   height="243.78792"
   width="821.65582"
   xml:space="preserve"
   version="1.1"
   id="svg2"><metadata
     id="metadata8"><rdf:RDF><cc:Work
         rdf:about=""><dc:format>image/svg+xml</dc:format><dc:type
           rdf:resource="http://purl.org/dc/dcmitype/StillImage" /></cc:Work></rdf:RDF></metadata><defs
     id="defs6" /><g
     transform="matrix(1.25,0,0,-1.25,0,243.78792)"
     id="g10"><g
       id="g12"><g
         transform="matrix(1,0,0,-1,0,195.03033)"
         id="g14"><path
           id="path16"
           style="fill:none;stroke:#000000;stroke-width:2.22720003;stroke-linecap:butt;stroke-linejoin:miter;stroke-miterlimit:10;stroke-dasharray:none;stroke-opacity:1"
           d="m 573.656,111.359 55.68,-89.086" /></g><path
         id="path18"
         style="fill:#000000;fill-opacity:1;fill-rule:nonzero;stroke:none"
         d="m 160.508,84.784 2.227,0 0,-2.227 -2.227,0 0,2.227 z" /><path
         id="path20"
         style="fill:#000000;fill-opacity:1;fill-rule:nonzero;stroke:none"
         d="m 93.691,84.784 2.227,0 0,-2.227 -2.227,0 0,2.227 z" /><g
         transform="matrix(0,-1,-1,0,0,195.03033)"
         id="g22"><path
           id="path24"
           style="fill:none;stroke:#000000;stroke-width:2.22720003;stroke-linecap:round;stroke-linejoin:round;stroke-miterlimit:10;stroke-dasharray:none;stroke-opacity:1"
           d="m 109.285,-139.352 c -3.375,0.008 -6.117,-2.476 -6.125,-5.554 -0.008,-3.067 2.715,-5.574 6.09,-5.582 l 0.016,0" /></g><g
         transform="matrix(0,-1,-1,0,0,195.03033)"
         id="g26"><path
           id="path28"
           style="fill:none;stroke:#000000;stroke-width:2.22720003;stroke-linecap:round;stroke-linejoin:round;stroke-miterlimit:10;stroke-dasharray:none;stroke-opacity:1"
           d="m 109.133,-150.488 2.226,0" /></g><g
         transform="matrix(0,-1,-1,0,0,195.03033)"
         id="g30"><path
           id="path32"
           style="fill:none;stroke:#000000;stroke-width:2.22720003;stroke-linecap:round;stroke-linejoin:round;stroke-miterlimit:10;stroke-dasharray:none;stroke-opacity:1"
           d="m 109.133,-139.352 2.226,0" /></g><g
         transform="matrix(0,-1,-1,0,0,195.03033)"
         id="g34"><path
           id="path36"
           style="fill:none;stroke:#000000;stroke-width:2.22720003;stroke-linecap:round;stroke-linejoin:round;stroke-miterlimit:10;stroke-dasharray:none;stroke-opacity:1"
           d="m 109.285,-128.215 c -3.375,0.008 -6.117,-2.476 -6.125,-5.555 -0.008,-3.066 2.715,-5.574 6.09,-5.582 l 0.016,0" /></g><g
         transform="matrix(0,-1,-1,0,0,195.03033)"
         id="g38"><path
           id="path40"
           style="fill:none;stroke:#000000;stroke-width:2.22720003;stroke-linecap:round;stroke-linejoin:round;stroke-miterlimit:10;stroke-dasharray:none;stroke-opacity:1"
           d="m 109.133,-139.352 2.226,0" /></g><g
         transform="matrix(0,-1,-1,0,0,195.03033)"
         id="g42"><path
           id="path44"
           style="fill:none;stroke:#000000;stroke-width:2.22720003;stroke-linecap:round;stroke-linejoin:round;stroke-miterlimit:10;stroke-dasharray:none;stroke-opacity:1"
           d="m 109.133,-128.215 2.226,0" /></g><g
         transform="matrix(0,-1,-1,0,0,195.03033)"
         id="g46"><path
           id="path48"
           style="fill:none;stroke:#000000;stroke-width:2.22720003;stroke-linecap:round;stroke-linejoin:round;stroke-miterlimit:10;stroke-dasharray:none;stroke-opacity:1"
           d="m 109.285,-117.078 c -3.375,0.008 -6.117,-2.477 -6.125,-5.555 -0.008,-3.07 2.715,-5.574 6.09,-5.582 l 0.016,0" /></g><g
         transform="matrix(0,-1,-1,0,0,195.03033)"
         id="g50"><path
           id="path52"
           style="fill:none;stroke:#000000;stroke-width:2.22720003;stroke-linecap:round;stroke-linejoin:round;stroke-miterlimit:10;stroke-dasharray:none;stroke-opacity:1"
           d="m 109.133,-128.215 2.226,0" /></g><g
         transform="matrix(0,-1,-1,0,0,195.03033)"
         id="g54"><path
           id="path56"
           style="fill:none;stroke:#000000;stroke-width:2.22720003;stroke-linecap:round;stroke-linejoin:round;stroke-miterlimit:10;stroke-dasharray:none;stroke-opacity:1"
           d="m 109.133,-117.078 2.226,0" /></g><g
         transform="matrix(0,-1,-1,0,0,195.03033)"
         id="g58"><path
           id="path60"
           style="fill:none;stroke:#000000;stroke-width:2.22720003;stroke-linecap:round;stroke-linejoin:round;stroke-miterlimit:10;stroke-dasharray:none;stroke-opacity:1"
           d="m 109.285,-105.941 c -3.375,0.007 -6.117,-2.481 -6.125,-5.555 -0.008,-3.07 2.715,-5.574 6.09,-5.582 l 0.016,0" /></g><g
         transform="matrix(0,-1,-1,0,0,195.03033)"
         id="g62"><path
           id="path64"
           style="fill:none;stroke:#000000;stroke-width:2.22720003;stroke-linecap:round;stroke-linejoin:round;stroke-miterlimit:10;stroke-dasharray:none;stroke-opacity:1"
           d="m 109.133,-117.078 2.226,0" /></g><g
         transform="matrix(0,-1,-1,0,0,195.03033)"
         id="g66"><path
           id="path68"
           style="fill:none;stroke:#000000;stroke-width:2.22720003;stroke-linecap:round;stroke-linejoin:round;stroke-miterlimit:10;stroke-dasharray:none;stroke-opacity:1"
           d="m 109.133,-105.941 2.226,0" /></g><g
         transform="matrix(0,-1,-1,0,0,195.03033)"
         id="g70"><path
           id="path72"
           style="fill:none;stroke:#000000;stroke-width:2.22720003;stroke-linecap:square;stroke-linejoin:miter;stroke-miterlimit:10;stroke-dasharray:none;stroke-opacity:1"
           d="m 111.359,-160.508 0,8.906" /></g><g
         transform="matrix(0,-1,-1,0,0,195.03033)"
         id="g74"><path
           id="path76"
           style="fill:none;stroke:#000000;stroke-width:2.22720003;stroke-linecap:square;stroke-linejoin:miter;stroke-miterlimit:10;stroke-dasharray:none;stroke-opacity:1"
           d="m 111.359,-104.828 0,8.906" /></g><path
         id="path78"
         style="fill:#000000;fill-opacity:1;fill-rule:nonzero;stroke:none"
         d="m 15.742,84.784 2.227,0 0,-2.227 -2.227,0 0,2.227 z" /><g
         transform="matrix(0,1,1,0,0,195.03033)"
         id="g80"><path
           id="path82"
           style="fill:#ffffff;fill-opacity:1;fill-rule:nonzero;stroke:#000000;stroke-width:2.22720003;stroke-linecap:butt;stroke-linejoin:miter;stroke-miterlimit:4;stroke-dasharray:none;stroke-opacity:1"
           d="m -106.754,5.719 c 0,2.543 -2.062,4.605 -4.605,4.605 -2.543,0 -4.606,-2.062 -4.606,-4.605 0,-2.543 2.063,-4.606 4.606,-4.606 2.543,0 4.605,2.063 4.605,4.606 z" /></g><g
         transform="matrix(0,1,1,0,0,195.03033)"
         id="g84"><path
           id="path86"
           style="fill:none;stroke:#000000;stroke-width:2.22720003;stroke-linecap:square;stroke-linejoin:miter;stroke-miterlimit:10;stroke-dasharray:none;stroke-opacity:1"
           d="m -111.359,11.285 0,4.457" /></g><path
         id="path88"
         style="fill:#000000;fill-opacity:1;fill-rule:nonzero;stroke:none"
         d="m 15.742,6.831 2.227,0 0,-2.227 -2.227,0 0,2.227 z" /><g
         transform="matrix(0,1,1,0,0,195.03033)"
         id="g90"><path
           id="path92"
           style="fill:#ffffff;fill-opacity:1;fill-rule:nonzero;stroke:#000000;stroke-width:2.22720003;stroke-linecap:butt;stroke-linejoin:miter;stroke-miterlimit:4;stroke-dasharray:none;stroke-opacity:1"
           d="m -184.707,5.719 c 0,2.543 -2.063,4.605 -4.605,4.605 -2.543,0 -4.606,-2.062 -4.606,-4.605 0,-2.543 2.063,-4.606 4.606,-4.606 2.542,0 4.605,2.063 4.605,4.606 z" /></g><g
         transform="matrix(0,1,1,0,0,195.03033)"
         id="g94"><path
           id="path96"
           style="fill:none;stroke:#000000;stroke-width:2.22720003;stroke-linecap:square;stroke-linejoin:miter;stroke-miterlimit:10;stroke-dasharray:none;stroke-opacity:1"
           d="m -189.312,11.285 0,4.457" /></g><g
         transform="matrix(1,0,0,-1,0,195.03033)"
         id="g98"><path
           id="path100"
           style="fill:none;stroke:#000000;stroke-width:2.22720003;stroke-linecap:butt;stroke-linejoin:miter;stroke-miterlimit:10;stroke-dasharray:none;stroke-opacity:1"
           d="m 16.855,111.359 77.95,0" /></g><g
         transform="matrix(1,0,0,-1,0,195.03033)"
         id="g102"><path
           id="path104"
           style="fill:none;stroke:#000000;stroke-width:2.22720003;stroke-linecap:butt;stroke-linejoin:miter;stroke-miterlimit:10;stroke-dasharray:none;stroke-opacity:1"
           d="m 16.855,189.312 222.719,0" /></g><path
         id="path106"
         style="fill:#000000;fill-opacity:1;fill-rule:nonzero;stroke:none"
         d="m 238.461,84.784 2.227,0 0,-2.227 -2.227,0 0,2.227 z" /><g
         transform="matrix(0,-1,-1,0,0,195.03033)"
         id="g108"><path
           id="path110"
           style="fill:#ffffff;fill-opacity:1;fill-rule:nonzero;stroke:#000000;stroke-width:2.22720003;stroke-linecap:butt;stroke-linejoin:miter;stroke-miterlimit:4;stroke-dasharray:none;stroke-opacity:1"
           d="m 115.965,-250.711 c 0,2.543 -2.063,4.606 -4.606,4.606 -2.543,0 -4.605,-2.063 -4.605,-4.606 0,-2.543 2.062,-4.605 4.605,-4.605 2.543,0 4.606,2.062 4.606,4.605 z" /></g><g
         transform="matrix(0,-1,-1,0,0,195.03033)"
         id="g112"><path
           id="path114"
           style="fill:none;stroke:#000000;stroke-width:2.22720003;stroke-linecap:square;stroke-linejoin:miter;stroke-miterlimit:10;stroke-dasharray:none;stroke-opacity:1"
           d="m 111.359,-245.141 0,4.453" /></g><g
         transform="matrix(1,0,0,-1,0,195.03033)"
         id="g116"><path
           id="path118"
           style="fill:none;stroke:#000000;stroke-width:2.22720003;stroke-linecap:butt;stroke-linejoin:miter;stroke-miterlimit:10;stroke-dasharray:none;stroke-opacity:1"
           d="m 161.621,111.359 77.953,0" /></g><g
         transform="matrix(1,0,0,-1,0,195.03033)"
         id="g120"><path
           id="path122"
           style="fill:none;stroke:#000000;stroke-width:2.22720003;stroke-linecap:butt;stroke-linejoin:miter;stroke-miterlimit:10;stroke-dasharray:none;stroke-opacity:1"
           d="m 484.566,111.359 55.68,-89.086" /></g><path
         id="path124"
         style="fill:#000000;fill-opacity:1;fill-rule:nonzero;stroke:none"
         d="m 93.691,84.784 2.23,0 0,-2.227 -2.23,0 0,2.227 z" /><g
         transform="matrix(0,1,1,0,0,195.03033)"
         id="g126"><path
           id="path128"
           style="fill:#ffffff;fill-opacity:1;fill-rule:nonzero;stroke:#000000;stroke-width:2.22720003;stroke-linecap:butt;stroke-linejoin:miter;stroke-miterlimit:4;stroke-dasharray:none;stroke-opacity:1"
           d="m -106.754,83.672 c 0,2.543 -2.062,4.601 -4.605,4.601 -2.543,0 -4.606,-2.058 -4.606,-4.601 0,-2.543 2.063,-4.606 4.606,-4.606 2.543,0 4.605,2.063 4.605,4.606 z" /></g><g
         transform="matrix(0,1,1,0,0,195.03033)"
         id="g130"><path
           id="path132"
           style="fill:none;stroke:#000000;stroke-width:2.22720003;stroke-linecap:square;stroke-linejoin:miter;stroke-miterlimit:10;stroke-dasharray:none;stroke-opacity:1"
           d="m -111.359,89.238 0,4.453" /></g><path
         id="path134"
         style="fill:#000000;fill-opacity:1;fill-rule:nonzero;stroke:none"
         d="m 160.508,84.784 2.227,0 0,-2.227 -2.227,0 0,2.227 z" /><g
         transform="matrix(0,-1,-1,0,0,195.03033)"
         id="g136"><path
           id="path138"
           style="fill:#ffffff;fill-opacity:1;fill-rule:nonzero;stroke:#000000;stroke-width:2.22720003;stroke-linecap:butt;stroke-linejoin:miter;stroke-miterlimit:4;stroke-dasharray:none;stroke-opacity:1"
           d="m 115.965,-172.758 c 0,2.543 -2.063,4.606 -4.606,4.606 -2.543,0 -4.605,-2.063 -4.605,-4.606 0,-2.543 2.062,-4.605 4.605,-4.605 2.543,0 4.606,2.062 4.606,4.605 z" /></g><g
         transform="matrix(0,-1,-1,0,0,195.03033)"
         id="g140"><path
           id="path142"
           style="fill:none;stroke:#000000;stroke-width:2.22720003;stroke-linecap:square;stroke-linejoin:miter;stroke-miterlimit:10;stroke-dasharray:none;stroke-opacity:1"
           d="m 111.359,-167.191 0,4.457" /></g><path
         id="path144"
         style="fill:#000000;fill-opacity:1;fill-rule:nonzero;stroke:none"
         d="m 238.461,6.831 2.227,0 0,-2.227 -2.227,0 0,2.227 z" /><g
         transform="matrix(0,-1,-1,0,0,195.03033)"
         id="g146"><path
           id="path148"
           style="fill:#ffffff;fill-opacity:1;fill-rule:nonzero;stroke:#000000;stroke-width:2.22720003;stroke-linecap:butt;stroke-linejoin:miter;stroke-miterlimit:4;stroke-dasharray:none;stroke-opacity:1"
           d="m 193.918,-250.711 c 0,2.543 -2.063,4.606 -4.606,4.606 -2.542,0 -4.605,-2.063 -4.605,-4.606 0,-2.543 2.063,-4.605 4.605,-4.605 2.543,0 4.606,2.062 4.606,4.605 z" /></g><g
         transform="matrix(0,-1,-1,0,0,195.03033)"
         id="g150"><path
           id="path152"
           style="fill:none;stroke:#000000;stroke-width:2.22720003;stroke-linecap:square;stroke-linejoin:miter;stroke-miterlimit:10;stroke-dasharray:none;stroke-opacity:1"
           d="m 189.312,-245.141 0,4.453" /></g><path
         id="path154"
         style="fill:#000000;fill-opacity:1;fill-rule:nonzero;stroke:none"
         d="m 416.637,84.784 2.227,0 0,-2.227 -2.227,0 0,2.227 z" /><g
         transform="matrix(0,1,1,0,0,195.03033)"
         id="g156"><path
           id="path158"
           style="fill:#ffffff;fill-opacity:1;fill-rule:nonzero;stroke:#000000;stroke-width:2.22720003;stroke-linecap:butt;stroke-linejoin:miter;stroke-miterlimit:4;stroke-dasharray:none;stroke-opacity:1"
           d="m -106.754,406.613 c 0,2.543 -2.062,4.606 -4.605,4.606 -2.543,0 -4.606,-2.063 -4.606,-4.606 0,-2.543 2.063,-4.605 4.606,-4.605 2.543,0 4.605,2.062 4.605,4.605 z" /></g><g
         transform="matrix(0,1,1,0,0,195.03033)"
         id="g160"><path
           id="path162"
           style="fill:none;stroke:#000000;stroke-width:2.22720003;stroke-linecap:square;stroke-linejoin:miter;stroke-miterlimit:10;stroke-dasharray:none;stroke-opacity:1"
           d="m -111.359,412.184 0,4.453" /></g><path
         id="path164"
         style="fill:#000000;fill-opacity:1;fill-rule:nonzero;stroke:none"
         d="m 416.637,6.831 2.227,0 0,-2.227 -2.227,0 0,2.227 z" /><g
         transform="matrix(0,1,1,0,0,195.03033)"
         id="g166"><path
           id="path168"
           style="fill:#ffffff;fill-opacity:1;fill-rule:nonzero;stroke:#000000;stroke-width:2.22720003;stroke-linecap:butt;stroke-linejoin:miter;stroke-miterlimit:4;stroke-dasharray:none;stroke-opacity:1"
           d="m -184.707,406.613 c 0,2.543 -2.063,4.606 -4.605,4.606 -2.543,0 -4.606,-2.063 -4.606,-4.606 0,-2.543 2.063,-4.605 4.606,-4.605 2.542,0 4.605,2.062 4.605,4.605 z" /></g><g
         transform="matrix(0,1,1,0,0,195.03033)"
         id="g170"><path
           id="path172"
           style="fill:none;stroke:#000000;stroke-width:2.22720003;stroke-linecap:square;stroke-linejoin:miter;stroke-miterlimit:10;stroke-dasharray:none;stroke-opacity:1"
           d="m -189.312,412.184 0,4.453" /></g><g
         transform="matrix(1,0,0,-1,0,195.03033)"
         id="g174"><path
           id="path176"
           style="fill:none;stroke:#000000;stroke-width:2.22720003;stroke-linecap:butt;stroke-linejoin:miter;stroke-miterlimit:10;stroke-dasharray:none;stroke-opacity:1"
           d="m 417.75,189.312 222.719,0" /></g><path
         id="path178"
         style="fill:#000000;fill-opacity:1;fill-rule:nonzero;stroke:none"
         d="m 639.355,84.784 2.227,0 0,-2.227 -2.227,0 0,2.227 z" /><g
         transform="matrix(0,-1,-1,0,0,195.03033)"
         id="g180"><path
           id="path182"
           style="fill:#ffffff;fill-opacity:1;fill-rule:nonzero;stroke:#000000;stroke-width:2.22720003;stroke-linecap:butt;stroke-linejoin:miter;stroke-miterlimit:4;stroke-dasharray:none;stroke-opacity:1"
           d="m 115.965,-651.605 c 0,2.543 -2.063,4.605 -4.606,4.605 -2.543,0 -4.605,-2.062 -4.605,-4.605 0,-2.543 2.062,-4.606 4.605,-4.606 2.543,0 4.606,2.063 4.606,4.606 z" /></g><g
         transform="matrix(0,-1,-1,0,0,195.03033)"
         id="g184"><path
           id="path186"
           style="fill:none;stroke:#000000;stroke-width:2.22720003;stroke-linecap:square;stroke-linejoin:miter;stroke-miterlimit:10;stroke-dasharray:none;stroke-opacity:1"
           d="m 111.359,-646.039 0,4.457" /></g><path
         id="path188"
         style="fill:#000000;fill-opacity:1;fill-rule:nonzero;stroke:none"
         d="m 472.316,84.784 2.227,0 0,-2.227 -2.227,0 0,2.227 z" /><g
         transform="matrix(0,-1,-1,0,0,195.03033)"
         id="g190"><path
           id="path192"
           style="fill:#ffffff;fill-opacity:1;fill-rule:nonzero;stroke:#000000;stroke-width:2.22720003;stroke-linecap:butt;stroke-linejoin:miter;stroke-miterlimit:4;stroke-dasharray:none;stroke-opacity:1"
           d="m 115.965,-484.566 c 0,2.543 -2.063,4.605 -4.606,4.605 -2.543,0 -4.605,-2.062 -4.605,-4.605 0,-2.543 2.062,-4.606 4.605,-4.606 2.543,0 4.606,2.063 4.606,4.606 z" /></g><g
         transform="matrix(0,-1,-1,0,0,195.03033)"
         id="g194"><path
           id="path196"
           style="fill:none;stroke:#000000;stroke-width:2.22720003;stroke-linecap:square;stroke-linejoin:miter;stroke-miterlimit:10;stroke-dasharray:none;stroke-opacity:1"
           d="m 111.359,-479 0,4.457" /></g><path
         id="path198"
         style="fill:#000000;fill-opacity:1;fill-rule:nonzero;stroke:none"
         d="m 502.906,138.792 -1.859,0 -0.875,2.938 c -0.012,0.05 -0.031,0.125 -0.063,0.218 -0.023,0.094 -0.054,0.196 -0.093,0.313 -0.032,0.125 -0.071,0.254 -0.11,0.39 -0.031,0.133 -0.062,0.258 -0.094,0.375 -0.031,0.125 -0.058,0.239 -0.078,0.344 -0.023,0.102 -0.039,0.18 -0.046,0.235 -0.032,-0.118 -0.079,-0.266 -0.141,-0.454 -0.055,-0.179 -0.117,-0.371 -0.188,-0.578 -0.062,-0.199 -0.132,-0.398 -0.203,-0.593 -0.062,-0.188 -0.125,-0.344 -0.187,-0.469 l -1.157,-2.719 -1.874,0 3,6.391 -0.157,0.453 c -0.117,0.289 -0.219,0.535 -0.312,0.734 -0.094,0.207 -0.188,0.375 -0.281,0.5 -0.094,0.133 -0.196,0.227 -0.297,0.281 -0.094,0.063 -0.211,0.094 -0.344,0.094 -0.086,0 -0.184,-0.012 -0.297,-0.031 -0.117,-0.024 -0.215,-0.055 -0.297,-0.094 l -0.297,1.235 c 0.125,0.05 0.289,0.093 0.5,0.125 0.207,0.039 0.438,0.062 0.688,0.062 0.332,0 0.625,-0.047 0.875,-0.141 0.25,-0.086 0.469,-0.226 0.656,-0.421 0.187,-0.188 0.352,-0.434 0.5,-0.735 0.156,-0.305 0.301,-0.664 0.437,-1.078 l 2.594,-7.375 z" /><path
         id="path200"
         style="fill:#000000;fill-opacity:1;fill-rule:nonzero;stroke:none"
         d="m 503.441,138.526 1.844,9.688 1.516,0 -1.813,-9.688 -1.547,0 z" /><path
         id="path202"
         style="fill:#000000;fill-opacity:1;fill-rule:nonzero;stroke:none"
         d="m 513.848,141.308 c 0,-0.387 -0.063,-0.743 -0.188,-1.063 -0.125,-0.324 -0.324,-0.605 -0.594,-0.844 -0.261,-0.23 -0.593,-0.414 -1,-0.546 -0.398,-0.125 -0.871,-0.188 -1.421,-0.188 -0.555,0 -1.032,0.063 -1.438,0.188 -0.398,0.132 -0.73,0.316 -1,0.546 -0.262,0.239 -0.461,0.52 -0.594,0.844 -0.125,0.32 -0.187,0.672 -0.187,1.047 0,0.332 0.051,0.625 0.156,0.875 0.102,0.25 0.238,0.461 0.406,0.641 0.164,0.187 0.36,0.332 0.578,0.437 0.227,0.113 0.457,0.188 0.688,0.219 l 0,0.031 c -0.25,0.051 -0.477,0.141 -0.672,0.266 -0.199,0.133 -0.371,0.289 -0.516,0.469 -0.136,0.175 -0.242,0.375 -0.312,0.593 -0.074,0.219 -0.109,0.442 -0.109,0.672 0,0.363 0.062,0.692 0.187,0.985 0.133,0.289 0.328,0.535 0.578,0.734 0.25,0.207 0.555,0.367 0.922,0.484 0.375,0.114 0.801,0.172 1.281,0.172 0.52,0 0.969,-0.058 1.344,-0.172 0.383,-0.117 0.695,-0.281 0.938,-0.5 0.25,-0.211 0.429,-0.461 0.546,-0.75 0.125,-0.293 0.188,-0.609 0.188,-0.953 0,-0.242 -0.039,-0.469 -0.109,-0.687 -0.075,-0.219 -0.184,-0.418 -0.329,-0.594 -0.136,-0.18 -0.308,-0.328 -0.515,-0.453 -0.199,-0.117 -0.422,-0.199 -0.672,-0.25 l 0,-0.031 c 0.258,-0.043 0.504,-0.122 0.734,-0.235 0.227,-0.105 0.422,-0.25 0.578,-0.437 0.164,-0.18 0.297,-0.391 0.391,-0.641 0.094,-0.25 0.141,-0.539 0.141,-0.859 z m -2.047,4.093 c 0,0.176 -0.024,0.336 -0.063,0.485 -0.043,0.144 -0.109,0.269 -0.203,0.375 -0.086,0.113 -0.203,0.203 -0.359,0.265 -0.149,0.063 -0.336,0.094 -0.563,0.094 -0.218,0 -0.402,-0.031 -0.547,-0.094 -0.148,-0.062 -0.265,-0.152 -0.359,-0.265 -0.086,-0.106 -0.148,-0.231 -0.187,-0.375 -0.043,-0.149 -0.063,-0.309 -0.063,-0.485 0,-0.168 0.016,-0.328 0.047,-0.484 0.039,-0.148 0.101,-0.281 0.187,-0.406 0.082,-0.117 0.196,-0.215 0.344,-0.297 0.156,-0.074 0.352,-0.109 0.594,-0.109 0.258,0 0.461,0.035 0.609,0.109 0.157,0.082 0.274,0.187 0.36,0.312 0.082,0.125 0.132,0.258 0.156,0.407 0.031,0.156 0.047,0.312 0.047,0.468 z m 0.203,-3.937 c 0,0.176 -0.024,0.348 -0.063,0.516 -0.043,0.175 -0.117,0.328 -0.218,0.453 -0.106,0.125 -0.25,0.222 -0.438,0.297 -0.18,0.082 -0.402,0.125 -0.672,0.125 -0.261,0 -0.48,-0.043 -0.656,-0.125 -0.168,-0.075 -0.305,-0.18 -0.406,-0.313 -0.106,-0.125 -0.18,-0.277 -0.219,-0.453 -0.043,-0.168 -0.062,-0.344 -0.062,-0.531 0,-0.231 0.019,-0.438 0.062,-0.625 0.039,-0.18 0.113,-0.336 0.219,-0.469 0.113,-0.137 0.258,-0.242 0.437,-0.313 0.176,-0.074 0.399,-0.109 0.672,-0.109 0.258,0 0.477,0.035 0.656,0.109 0.176,0.082 0.313,0.192 0.407,0.329 0.101,0.132 0.175,0.296 0.218,0.484 0.039,0.187 0.063,0.394 0.063,0.625 z" /><path
         id="path204"
         style="fill:#000000;fill-opacity:1;fill-rule:nonzero;stroke:none"
         d="m 583.676,84.784 2.227,0 0,-2.227 -2.227,0 0,2.227 z" /><g
         transform="matrix(0,1,1,0,0,195.03033)"
         id="g206"><path
           id="path208"
           style="fill:#ffffff;fill-opacity:1;fill-rule:nonzero;stroke:#000000;stroke-width:2.22720003;stroke-linecap:butt;stroke-linejoin:miter;stroke-miterlimit:4;stroke-dasharray:none;stroke-opacity:1"
           d="m -106.754,573.656 c 0,2.543 -2.062,4.602 -4.605,4.602 -2.543,0 -4.606,-2.059 -4.606,-4.602 0,-2.547 2.063,-4.605 4.606,-4.605 2.543,0 4.605,2.058 4.605,4.605 z" /></g><g
         transform="matrix(0,1,1,0,0,195.03033)"
         id="g210"><path
           id="path212"
           style="fill:none;stroke:#000000;stroke-width:2.22720003;stroke-linecap:square;stroke-linejoin:miter;stroke-miterlimit:10;stroke-dasharray:none;stroke-opacity:1"
           d="m -111.359,579.223 0,4.453" /></g><path
         id="path214"
         style="fill:#000000;fill-opacity:1;fill-rule:nonzero;stroke:none"
         d="m 639.355,6.831 2.227,0 0,-2.227 -2.227,0 0,2.227 z" /><g
         transform="matrix(0,-1,-1,0,0,195.03033)"
         id="g216"><path
           id="path218"
           style="fill:#ffffff;fill-opacity:1;fill-rule:nonzero;stroke:#000000;stroke-width:2.22720003;stroke-linecap:butt;stroke-linejoin:miter;stroke-miterlimit:4;stroke-dasharray:none;stroke-opacity:1"
           d="m 193.918,-651.605 c 0,2.543 -2.063,4.605 -4.606,4.605 -2.542,0 -4.605,-2.062 -4.605,-4.605 0,-2.543 2.063,-4.606 4.605,-4.606 2.543,0 4.606,2.063 4.606,4.606 z" /></g><g
         transform="matrix(0,-1,-1,0,0,195.03033)"
         id="g220"><path
           id="path222"
           style="fill:none;stroke:#000000;stroke-width:2.22720003;stroke-linecap:square;stroke-linejoin:miter;stroke-miterlimit:10;stroke-dasharray:none;stroke-opacity:1"
           d="m 189.312,-646.039 0,4.457" /></g><g
         transform="matrix(1,0,0,-1,0,195.03033)"
         id="g224"><path
           id="path226"
           style="fill:none;stroke:#000000;stroke-width:2.22720003;stroke-linecap:butt;stroke-linejoin:miter;stroke-miterlimit:10;stroke-dasharray:none;stroke-opacity:1"
           d="m 473.43,111.359 -55.68,0" /></g><g
         transform="matrix(1,0,0,-1,0,195.03033)"
         id="g228"><path
           id="path230"
           style="fill:none;stroke:#000000;stroke-width:2.22720003;stroke-linecap:butt;stroke-linejoin:miter;stroke-miterlimit:10;stroke-dasharray:none;stroke-opacity:1"
           d="m 584.789,111.359 55.68,0" /></g><path
         id="path232"
         style="fill:#000000;fill-opacity:1;fill-rule:nonzero;stroke:none"
         d="m 550.27,173.87 2.227,0 0,-2.227 -2.227,0 0,2.227 z" /><g
         transform="matrix(0,1,1,0,0,195.03033)"
         id="g234"><path
           id="path236"
           style="fill:#ffffff;fill-opacity:1;fill-rule:nonzero;stroke:#000000;stroke-width:2.22720003;stroke-linecap:butt;stroke-linejoin:miter;stroke-miterlimit:4;stroke-dasharray:none;stroke-opacity:1"
           d="m -17.668,540.246 c 0,2.543 -2.062,4.606 -4.605,4.606 -2.543,0 -4.602,-2.063 -4.602,-4.606 0,-2.543 2.059,-4.605 4.602,-4.605 2.543,0 4.605,2.062 4.605,4.605 z" /></g><g
         transform="matrix(0,1,1,0,0,195.03033)"
         id="g238"><path
           id="path240"
           style="fill:none;stroke:#000000;stroke-width:2.22720003;stroke-linecap:square;stroke-linejoin:miter;stroke-miterlimit:10;stroke-dasharray:none;stroke-opacity:1"
           d="m -22.273,545.812 0,4.458" /></g><path
         id="path242"
         style="fill:#000000;fill-opacity:1;fill-rule:nonzero;stroke:none"
         d="m 579.066,184.683 c 0.352,0 0.657,0.047 0.907,0.14 0.257,0.102 0.484,0.235 0.672,0.391 0.187,0.164 0.343,0.348 0.468,0.547 0.125,0.207 0.227,0.414 0.313,0.625 l 1.625,-0.61 c -0.125,-0.324 -0.297,-0.64 -0.516,-0.953 -0.211,-0.312 -0.476,-0.59 -0.797,-0.828 -0.312,-0.23 -0.687,-0.418 -1.125,-0.562 -0.437,-0.145 -0.953,-0.219 -1.547,-0.219 -0.773,0 -1.445,0.117 -2.015,0.344 -0.563,0.226 -1.031,0.547 -1.406,0.953 -0.368,0.414 -0.641,0.906 -0.829,1.469 -0.179,0.57 -0.265,1.195 -0.265,1.875 0,0.695 0.086,1.328 0.265,1.89 0.188,0.563 0.461,1.039 0.829,1.438 0.363,0.394 0.82,0.695 1.375,0.906 0.55,0.219 1.207,0.328 1.968,0.328 0.582,0 1.094,-0.062 1.532,-0.187 0.437,-0.125 0.812,-0.297 1.125,-0.516 0.32,-0.219 0.585,-0.481 0.796,-0.781 0.207,-0.305 0.375,-0.637 0.5,-1 l -1.656,-0.453 c -0.062,0.187 -0.156,0.367 -0.281,0.546 -0.117,0.176 -0.266,0.332 -0.453,0.469 -0.188,0.133 -0.414,0.242 -0.672,0.328 -0.25,0.082 -0.539,0.125 -0.859,0.125 -0.45,0 -0.84,-0.074 -1.172,-0.218 -0.325,-0.149 -0.59,-0.356 -0.797,-0.625 -0.211,-0.274 -0.367,-0.602 -0.469,-0.985 -0.094,-0.375 -0.141,-0.797 -0.141,-1.265 0,-0.469 0.047,-0.899 0.141,-1.282 0.102,-0.386 0.258,-0.718 0.469,-1 0.219,-0.281 0.488,-0.5 0.812,-0.656 0.332,-0.156 0.735,-0.234 1.203,-0.234 z" /><path
         id="path244"
         style="fill:#000000;fill-opacity:1;fill-rule:nonzero;stroke:none"
         d="m 588.723,184.683 c 0.351,0 0.656,0.047 0.906,0.14 0.258,0.102 0.484,0.235 0.672,0.391 0.187,0.164 0.344,0.348 0.469,0.547 0.125,0.207 0.226,0.414 0.312,0.625 l 1.625,-0.61 c -0.125,-0.324 -0.297,-0.64 -0.516,-0.953 -0.211,-0.312 -0.476,-0.59 -0.796,-0.828 -0.313,-0.23 -0.688,-0.418 -1.125,-0.562 -0.438,-0.145 -0.954,-0.219 -1.547,-0.219 -0.774,0 -1.446,0.117 -2.016,0.344 -0.562,0.226 -1.031,0.547 -1.406,0.953 -0.367,0.414 -0.641,0.906 -0.828,1.469 -0.18,0.57 -0.266,1.195 -0.266,1.875 0,0.695 0.086,1.328 0.266,1.89 0.187,0.563 0.461,1.039 0.828,1.438 0.363,0.394 0.82,0.695 1.375,0.906 0.551,0.219 1.207,0.328 1.969,0.328 0.582,0 1.093,-0.062 1.531,-0.187 0.437,-0.125 0.812,-0.297 1.125,-0.516 0.32,-0.219 0.586,-0.481 0.797,-0.781 0.207,-0.305 0.375,-0.637 0.5,-1 l -1.657,-0.453 c -0.062,0.187 -0.156,0.367 -0.281,0.546 -0.117,0.176 -0.265,0.332 -0.453,0.469 -0.187,0.133 -0.414,0.242 -0.672,0.328 -0.25,0.082 -0.539,0.125 -0.859,0.125 -0.449,0 -0.84,-0.074 -1.172,-0.218 -0.324,-0.149 -0.59,-0.356 -0.797,-0.625 -0.211,-0.274 -0.367,-0.602 -0.469,-0.985 -0.093,-0.375 -0.14,-0.797 -0.14,-1.265 0,-0.469 0.047,-0.899 0.14,-1.282 0.102,-0.386 0.258,-0.718 0.469,-1 0.219,-0.281 0.488,-0.5 0.813,-0.656 0.332,-0.156 0.734,-0.234 1.203,-0.234 z" /><path
         id="path246"
         style="fill:#000000;fill-opacity:1;fill-rule:nonzero;stroke:none"
         d="m 617.086,173.87 2.227,0 0,-2.227 -2.227,0 0,2.227 z" /><g
         transform="matrix(0,-1,-1,0,0,195.03033)"
         id="g248"><path
           id="path250"
           style="fill:#ffffff;fill-opacity:1;fill-rule:nonzero;stroke:#000000;stroke-width:2.22720003;stroke-linecap:butt;stroke-linejoin:miter;stroke-miterlimit:4;stroke-dasharray:none;stroke-opacity:1"
           d="m 26.875,-629.336 c 0,2.543 -2.059,4.606 -4.602,4.606 -2.543,0 -4.605,-2.063 -4.605,-4.606 0,-2.543 2.062,-4.602 4.605,-4.602 2.543,0 4.602,2.059 4.602,4.602 z" /></g><g
         transform="matrix(0,-1,-1,0,0,195.03033)"
         id="g252"><path
           id="path254"
           style="fill:none;stroke:#000000;stroke-width:2.22720003;stroke-linecap:square;stroke-linejoin:miter;stroke-miterlimit:10;stroke-dasharray:none;stroke-opacity:1"
           d="m 22.273,-623.766 0,4.454" /></g><g
         transform="matrix(1,0,0,-1,0,195.03033)"
         id="g256"><path
           id="path258"
           style="fill:none;stroke:#000000;stroke-width:2.22720003;stroke-linecap:butt;stroke-linejoin:miter;stroke-miterlimit:10;stroke-dasharray:none;stroke-opacity:1"
           d="m 551.383,22.273 66.816,0" /></g><g
         transform="matrix(1,0,0,-1,0,195.03033)"
         id="g260"><path
           id="path262"
           style="fill:none;stroke:#000000;stroke-width:2.22720003;stroke-linecap:butt;stroke-linejoin:miter;stroke-miterlimit:10;stroke-dasharray:none;stroke-opacity:1"
           d="m 313.895,144.77 29.535,0" /></g><g
         transform="matrix(1,0,0,-1,0,195.03033)"
         id="g264"><path
           id="path266"
           style="fill:#000000;fill-opacity:1;fill-rule:nonzero;stroke:#000000;stroke-width:2.22720003;stroke-linecap:butt;stroke-linejoin:miter;stroke-miterlimit:10;stroke-dasharray:none;stroke-opacity:1"
           d="m 308.883,144.77 6.679,-3.344 -1.667,3.344 1.667,3.339 -6.679,-3.339 z" /></g><g
         transform="matrix(1,0,0,-1,0,195.03033)"
         id="g268"><path
           id="path270"
           style="fill:#000000;fill-opacity:1;fill-rule:nonzero;stroke:#000000;stroke-width:2.22720003;stroke-linecap:butt;stroke-linejoin:miter;stroke-miterlimit:10;stroke-dasharray:none;stroke-opacity:1"
           d="m 348.441,144.77 -6.679,3.339 1.668,-3.339 -1.668,-3.344 6.679,3.344 z" /></g></g></g></svg>