<?xml version="1.0" encoding="UTF-8" standalone="no"?>
<svg
   xmlns:dc="http://purl.org/dc/elements/1.1/"
   xmlns:cc="http://creativecommons.org/ns#"
   xmlns:rdf="http://www.w3.org/1999/02/22-rdf-syntax-ns#"
   xmlns:svg="http://www.w3.org/2000/svg"
   xmlns="http://www.w3.org/2000/svg"
   viewBox="0 0 525 743.75"
   height="743.75"
   width="525"
   xml:space="preserve"
   version="1.1"
   id="svg2"><metadata
     id="metadata8"><rdf:RDF><cc:Work
         rdf:about=""><dc:format>image/svg+xml</dc:format><dc:type
           rdf:resource="http://purl.org/dc/dcmitype/StillImage" /></cc:Work></rdf:RDF></metadata><defs
     id="defs6"><clipPath
       id="clipPath18"
       clipPathUnits="userSpaceOnUse"><path
         id="path20"
         d="M 0,595 0,0 420,0 420,595 0,595 Z" /></clipPath><clipPath
       id="clipPath26"
       clipPathUnits="userSpaceOnUse"><path
         id="path28"
         d="m 0.28689,595 419.42311,0 0,-595 -419.42311,0 0,595 z" /></clipPath><clipPath
       id="clipPath32"
       clipPathUnits="userSpaceOnUse"><path
         id="path34"
         d="M 0.3333,595 419.67,595 419.67,-6e-5 0.3333,-6e-5 0.3333,595 Z" /></clipPath><clipPath
       id="clipPath44"
       clipPathUnits="userSpaceOnUse"><path
         id="path46"
         d="m 0.3333,595 0,-595 419.3367,0 0,595 -419.3367,0 z" /></clipPath><clipPath
       id="clipPath56"
       clipPathUnits="userSpaceOnUse"><path
         id="path58"
         d="m 0.3333,595 0,-595 419.3367,0 0,595 -419.3367,0 z" /></clipPath><clipPath
       id="clipPath68"
       clipPathUnits="userSpaceOnUse"><path
         id="path70"
         d="m 0.3333,595 0,-595 419.3367,0 0,595 -419.3367,0 z" /></clipPath><clipPath
       id="clipPath80"
       clipPathUnits="userSpaceOnUse"><path
         id="path82"
         d="m 0.3333,595 0,-595 419.3367,0 0,595 -419.3367,0 z" /></clipPath><clipPath
       id="clipPath92"
       clipPathUnits="userSpaceOnUse"><path
         id="path94"
         d="m 0.3333,595 0,-595 419.3367,0 0,595 -419.3367,0 z" /></clipPath><clipPath
       id="clipPath104"
       clipPathUnits="userSpaceOnUse"><path
         id="path106"
         d="m 0.3333,595 0,-595 419.3367,0 0,595 -419.3367,0 z" /></clipPath><clipPath
       id="clipPath116"
       clipPathUnits="userSpaceOnUse"><path
         id="path118"
         d="m 0.3333,595 0,-595 419.3367,0 0,595 -419.3367,0 z" /></clipPath><clipPath
       id="clipPath124"
       clipPathUnits="userSpaceOnUse"><path
         id="path126"
         d="m 0.3333,595 0,-595 419.3367,0 0,595 -419.3367,0 z" /></clipPath><clipPath
       id="clipPath132"
       clipPathUnits="userSpaceOnUse"><path
         id="path134"
         d="m 0.28689,595 0,-595 419.42311,0 0,595 -419.42311,0 z" /></clipPath><clipPath
       id="clipPath140"
       clipPathUnits="userSpaceOnUse"><path
         id="path142"
         d="m 0.28689,595 0,-595 419.42311,0 0,595 -419.42311,0 z" /></clipPath><clipPath
       id="clipPath148"
       clipPathUnits="userSpaceOnUse"><path
         id="path150"
         d="M 0,595 0,0 420,0 420,595 0,595 Z" /></clipPath></defs><g
     transform="matrix(1.25,0,0,-1.25,0,743.75)"
     id="g10"><g
       id="g12"><g
         id="g14"><g
           clip-path="url(#clipPath18)"
           id="g16"><g
             id="g22"><g
               clip-path="url(#clipPath26)"
               id="g24"><g
                 clip-path="url(#clipPath32)"
                 id="g30"><path
                   id="path36"
                   style="fill:#000000;fill-opacity:1;fill-rule:evenodd;stroke:none"
                   d="m 98.21,78.2 -7.92,0 0,59.98 7.92,0 0,-59.98 z" /><path
                   id="path38"
                   style="fill:none;stroke:#000000;stroke-width:0.23988999;stroke-linecap:round;stroke-linejoin:round;stroke-miterlimit:10;stroke-dasharray:none;stroke-opacity:1"
                   d="m 98.21,78.2 -7.92,0 0,59.98 7.92,0 0,-59.98 z" /></g></g></g><g
             id="g40"><g
               clip-path="url(#clipPath44)"
               id="g42"><path
                 id="path48"
                 style="fill:#000000;fill-opacity:1;fill-rule:evenodd;stroke:none"
                 d="m 127.72,138.18 -66.93,0 0,11.75 66.93,0 0,-11.75 z" /><path
                 id="path50"
                 style="fill:none;stroke:#000000;stroke-width:0.23988999;stroke-linecap:round;stroke-linejoin:round;stroke-miterlimit:10;stroke-dasharray:none;stroke-opacity:1"
                 d="m 127.72,138.18 -66.93,0 0,11.75 66.93,0 0,-11.75 z" /></g></g><g
             id="g52"><g
               clip-path="url(#clipPath56)"
               id="g54"><path
                 id="path60"
                 style="fill:#000000;fill-opacity:1;fill-rule:evenodd;stroke:none"
                 d="m 95.09,149.93 -1.68,0 0,25.91 1.68,0 0,-25.91 z" /><path
                 id="path62"
                 style="fill:none;stroke:#000000;stroke-width:0.23988999;stroke-linecap:round;stroke-linejoin:round;stroke-miterlimit:10;stroke-dasharray:none;stroke-opacity:1"
                 d="m 95.09,149.93 -1.68,0 0,25.91 1.68,0 0,-25.91 z" /></g></g><g
             id="g64"><g
               clip-path="url(#clipPath68)"
               id="g66"><path
                 id="path72"
                 style="fill:#000000;fill-opacity:1;fill-rule:evenodd;stroke:none"
                 d="m 127.72,175.84 -66.93,0 0,16.55 66.93,0 0,-16.55 z" /><path
                 id="path74"
                 style="fill:none;stroke:#000000;stroke-width:0.23988999;stroke-linecap:round;stroke-linejoin:round;stroke-miterlimit:10;stroke-dasharray:none;stroke-opacity:1"
                 d="m 127.72,175.84 -66.93,0 0,16.55 66.93,0 0,-16.55 z" /></g></g><g
             id="g76"><g
               clip-path="url(#clipPath80)"
               id="g78"><path
                 id="path84"
                 style="fill:#000000;fill-opacity:1;fill-rule:evenodd;stroke:none"
                 d="m 95.09,192.39 -1.68,0 0,25.91 1.68,0 0,-25.91 z" /><path
                 id="path86"
                 style="fill:none;stroke:#000000;stroke-width:0.23988999;stroke-linecap:round;stroke-linejoin:round;stroke-miterlimit:10;stroke-dasharray:none;stroke-opacity:1"
                 d="m 95.09,192.39 -1.68,0 0,25.91 1.68,0 0,-25.91 z" /></g></g><g
             id="g88"><g
               clip-path="url(#clipPath92)"
               id="g90"><path
                 id="path96"
                 style="fill:#000000;fill-opacity:1;fill-rule:evenodd;stroke:none"
                 d="m 127.72,218.3 -66.93,0 0,11.51 66.93,0 0,-11.51 z" /><path
                 id="path98"
                 style="fill:none;stroke:#000000;stroke-width:0.23988999;stroke-linecap:round;stroke-linejoin:round;stroke-miterlimit:10;stroke-dasharray:none;stroke-opacity:1"
                 d="m 127.72,218.3 -66.93,0 0,11.51 66.93,0 0,-11.51 z" /></g></g><g
             id="g100"><g
               clip-path="url(#clipPath104)"
               id="g102"><path
                 id="path108"
                 style="fill:#000000;fill-opacity:1;fill-rule:evenodd;stroke:none"
                 d="m 98.21,229.81 -7.92,0 0,59.98 7.92,0 0,-59.98 z" /><path
                 id="path110"
                 style="fill:none;stroke:#000000;stroke-width:0.23988999;stroke-linecap:round;stroke-linejoin:round;stroke-miterlimit:10;stroke-dasharray:none;stroke-opacity:1"
                 d="m 98.21,229.81 -7.92,0 0,59.98 7.92,0 0,-59.98 z" /></g></g><g
             id="g112"><g
               clip-path="url(#clipPath116)"
               id="g114" /></g><g
             id="g120"><g
               clip-path="url(#clipPath124)"
               id="g122" /></g><g
             id="g128"><g
               clip-path="url(#clipPath132)"
               id="g130" /></g><g
             id="g136"><g
               clip-path="url(#clipPath140)"
               id="g138" /></g><g
             id="g144"><g
               clip-path="url(#clipPath148)"
               id="g146" /></g></g></g></g></g></svg>