<?xml version="1.0" encoding="UTF-8" standalone="no"?>
<svg
   xmlns:dc="http://purl.org/dc/elements/1.1/"
   xmlns:cc="http://creativecommons.org/ns#"
   xmlns:rdf="http://www.w3.org/1999/02/22-rdf-syntax-ns#"
   xmlns:svg="http://www.w3.org/2000/svg"
   xmlns="http://www.w3.org/2000/svg"
   viewBox="0 0 525 743.75"
   height="743.75"
   width="525"
   xml:space="preserve"
   version="1.1"
   id="svg2"><metadata
     id="metadata8"><rdf:RDF><cc:Work
         rdf:about=""><dc:format>image/svg+xml</dc:format><dc:type
           rdf:resource="http://purl.org/dc/dcmitype/StillImage" /></cc:Work></rdf:RDF></metadata><defs
     id="defs6"><clipPath
       id="clipPath18"
       clipPathUnits="userSpaceOnUse"><path
         id="path20"
         d="M 0,595 0,0 420,0 420,595 0,595 Z" /></clipPath><clipPath
       id="clipPath26"
       clipPathUnits="userSpaceOnUse"><path
         id="path28"
         d="m 0.28689,595 419.42311,0 0,-595 -419.42311,0 0,595 z" /></clipPath><clipPath
       id="clipPath32"
       clipPathUnits="userSpaceOnUse"><path
         id="path34"
         d="M 0.3333,595 419.67,595 419.67,-6e-5 0.3333,-6e-5 0.3333,595 Z" /></clipPath><clipPath
       id="clipPath44"
       clipPathUnits="userSpaceOnUse"><path
         id="path46"
         d="m 0.3333,595 0,-595 419.3367,0 0,595 -419.3367,0 z" /></clipPath><clipPath
       id="clipPath56"
       clipPathUnits="userSpaceOnUse"><path
         id="path58"
         d="m 0.3333,595 0,-595 419.3367,0 0,595 -419.3367,0 z" /></clipPath><clipPath
       id="clipPath68"
       clipPathUnits="userSpaceOnUse"><path
         id="path70"
         d="m 0.3333,595 0,-595 419.3367,0 0,595 -419.3367,0 z" /></clipPath><clipPath
       id="clipPath80"
       clipPathUnits="userSpaceOnUse"><path
         id="path82"
         d="m 0.3333,595 0,-595 419.3367,0 0,595 -419.3367,0 z" /></clipPath><clipPath
       id="clipPath92"
       clipPathUnits="userSpaceOnUse"><path
         id="path94"
         d="m 0.3333,595 0,-595 419.3367,0 0,595 -419.3367,0 z" /></clipPath><clipPath
       id="clipPath104"
       clipPathUnits="userSpaceOnUse"><path
         id="path106"
         d="m 0.3333,595 0,-595 419.3367,0 0,595 -419.3367,0 z" /></clipPath><clipPath
       id="clipPath116"
       clipPathUnits="userSpaceOnUse"><path
         id="path118"
         d="m 0.3333,595 0,-595 419.3367,0 0,595 -419.3367,0 z" /></clipPath><clipPath
       id="clipPath128"
       clipPathUnits="userSpaceOnUse"><path
         id="path130"
         d="m 0.3333,595 0,-595 419.3367,0 0,595 -419.3367,0 z" /></clipPath><clipPath
       id="clipPath140"
       clipPathUnits="userSpaceOnUse"><path
         id="path142"
         d="m 0.3333,595 0,-595 419.3367,0 0,595 -419.3367,0 z" /></clipPath><clipPath
       id="clipPath152"
       clipPathUnits="userSpaceOnUse"><path
         id="path154"
         d="m 0.3333,595 0,-595 419.3367,0 0,595 -419.3367,0 z" /></clipPath><clipPath
       id="clipPath164"
       clipPathUnits="userSpaceOnUse"><path
         id="path166"
         d="m 0.3333,595 0,-595 419.3367,0 0,595 -419.3367,0 z" /></clipPath><clipPath
       id="clipPath176"
       clipPathUnits="userSpaceOnUse"><path
         id="path178"
         d="m 0.3333,595 0,-595 419.3367,0 0,595 -419.3367,0 z" /></clipPath><clipPath
       id="clipPath188"
       clipPathUnits="userSpaceOnUse"><path
         id="path190"
         d="m 0.3333,595 0,-595 419.3367,0 0,595 -419.3367,0 z" /></clipPath><clipPath
       id="clipPath200"
       clipPathUnits="userSpaceOnUse"><path
         id="path202"
         d="m 0.3333,595 0,-595 419.3367,0 0,595 -419.3367,0 z" /></clipPath><clipPath
       id="clipPath212"
       clipPathUnits="userSpaceOnUse"><path
         id="path214"
         d="m 0.3333,595 0,-595 419.3367,0 0,595 -419.3367,0 z" /></clipPath><clipPath
       id="clipPath224"
       clipPathUnits="userSpaceOnUse"><path
         id="path226"
         d="m 0.3333,595 0,-595 419.3367,0 0,595 -419.3367,0 z" /></clipPath><clipPath
       id="clipPath232"
       clipPathUnits="userSpaceOnUse"><path
         id="path234"
         d="m 0.3333,595 0,-595 419.3367,0 0,595 -419.3367,0 z" /></clipPath><clipPath
       id="clipPath240"
       clipPathUnits="userSpaceOnUse"><path
         id="path242"
         d="m 0.28689,595 0,-595 419.42311,0 0,595 -419.42311,0 z" /></clipPath><clipPath
       id="clipPath248"
       clipPathUnits="userSpaceOnUse"><path
         id="path250"
         d="m 0.28689,595 0,-595 419.42311,0 0,595 -419.42311,0 z" /></clipPath><clipPath
       id="clipPath256"
       clipPathUnits="userSpaceOnUse"><path
         id="path258"
         d="M 0,595 0,0 420,0 420,595 0,595 Z" /></clipPath></defs><g
     transform="matrix(1.25,0,0,-1.25,0,743.75)"
     id="g10"><g
       id="g12"><g
         id="g14"><g
           clip-path="url(#clipPath18)"
           id="g16"><g
             id="g22"><g
               clip-path="url(#clipPath26)"
               id="g24"><g
                 clip-path="url(#clipPath32)"
                 id="g30"><path
                   id="path36"
                   style="fill:#000000;fill-opacity:1;fill-rule:evenodd;stroke:none"
                   d="m 130.59,182.8 0,-0.73 -31.18,0 0,0.73 31.18,0 z" /><path
                   id="path38"
                   style="fill:none;stroke:#000000;stroke-width:0.23988999;stroke-linecap:round;stroke-linejoin:round;stroke-miterlimit:10;stroke-dasharray:none;stroke-opacity:1"
                   d="m 130.59,182.8 0,-0.73 -31.18,0 0,0.73 31.18,0 z" /></g></g></g><g
             id="g40"><g
               clip-path="url(#clipPath44)"
               id="g42"><path
                 id="path48"
                 style="fill:#000000;fill-opacity:1;fill-rule:evenodd;stroke:none"
                 d="m 130.59,182.07 7.92,0 0,0.25 -4.08,0 1.68,0 0,0.48 -5.52,0 0,-0.73 z" /><path
                 id="path50"
                 style="fill:none;stroke:#000000;stroke-width:0.00003;stroke-linecap:round;stroke-linejoin:round;stroke-miterlimit:10;stroke-dasharray:none;stroke-opacity:1"
                 d="m 130.59,182.07 7.92,0 0,0.25 -4.08,0 1.68,0 0,0.48 -5.52,0 0,-0.73 z" /></g></g><g
             id="g52"><g
               clip-path="url(#clipPath56)"
               id="g54"><path
                 id="path60"
                 style="fill:#000000;fill-opacity:1;fill-rule:evenodd;stroke:none"
                 d="m 136.11,182.8 -3.12,0 0,29.74 3.12,0 0,-29.74 z" /><path
                 id="path62"
                 style="fill:none;stroke:#000000;stroke-width:0.23988999;stroke-linecap:round;stroke-linejoin:round;stroke-miterlimit:10;stroke-dasharray:none;stroke-opacity:1"
                 d="m 136.11,182.8 -3.12,0 0,29.74 3.12,0 0,-29.74 z" /></g></g><g
             id="g64"><g
               clip-path="url(#clipPath68)"
               id="g66"><path
                 id="path72"
                 style="fill:#000000;fill-opacity:1;fill-rule:evenodd;stroke:none"
                 d="m 132.99,212.54 3.12,0 0,11.76 -1.68,0 1.68,0 0,11.51 -3.12,0 0,-23.27 z" /><path
                 id="path74"
                 style="fill:none;stroke:#000000;stroke-width:0.00003;stroke-linecap:round;stroke-linejoin:round;stroke-miterlimit:10;stroke-dasharray:none;stroke-opacity:1"
                 d="m 132.99,212.54 3.12,0 0,11.76 -1.68,0 1.68,0 0,11.51 -3.12,0 0,-23.27 z" /></g></g><g
             id="g76"><g
               clip-path="url(#clipPath80)"
               id="g78"><path
                 id="path84"
                 style="fill:#000000;fill-opacity:1;fill-rule:evenodd;stroke:none"
                 d="m 136.11,235.81 -3.12,0 0,28.55 3.12,0 0,-28.55 z" /><path
                 id="path86"
                 style="fill:none;stroke:#000000;stroke-width:0.23988999;stroke-linecap:round;stroke-linejoin:round;stroke-miterlimit:10;stroke-dasharray:none;stroke-opacity:1"
                 d="m 136.11,235.81 -3.12,0 0,28.55 3.12,0 0,-28.55 z" /></g></g><g
             id="g88"><g
               clip-path="url(#clipPath92)"
               id="g90"><path
                 id="path96"
                 style="fill:#000000;fill-opacity:1;fill-rule:evenodd;stroke:none"
                 d="m 132.99,264.36 3.12,0 0,14.87 -1.68,0 1.68,0 0,14.87 -3.12,0 0,-29.74 z" /><path
                 id="path98"
                 style="fill:none;stroke:#000000;stroke-width:0.00003;stroke-linecap:round;stroke-linejoin:round;stroke-miterlimit:10;stroke-dasharray:none;stroke-opacity:1"
                 d="m 132.99,264.36 3.12,0 0,14.87 -1.68,0 1.68,0 0,14.87 -3.12,0 0,-29.74 z" /></g></g><g
             id="g100"><g
               clip-path="url(#clipPath104)"
               id="g102"><path
                 id="path108"
                 style="fill:#000000;fill-opacity:1;fill-rule:evenodd;stroke:none"
                 d="m 136.11,294.1 -3.12,0 0,28.55 3.12,0 0,-28.55 z" /><path
                 id="path110"
                 style="fill:none;stroke:#000000;stroke-width:0.23988999;stroke-linecap:round;stroke-linejoin:round;stroke-miterlimit:10;stroke-dasharray:none;stroke-opacity:1"
                 d="m 136.11,294.1 -3.12,0 0,28.55 3.12,0 0,-28.55 z" /></g></g><g
             id="g112"><g
               clip-path="url(#clipPath116)"
               id="g114"><path
                 id="path120"
                 style="fill:#000000;fill-opacity:1;fill-rule:evenodd;stroke:none"
                 d="m 132.99,322.65 3.12,0 0,11.51 -1.68,0 1.68,0 0,11.76 -3.12,0 0,-23.27 z" /><path
                 id="path122"
                 style="fill:none;stroke:#000000;stroke-width:0.00003;stroke-linecap:round;stroke-linejoin:round;stroke-miterlimit:10;stroke-dasharray:none;stroke-opacity:1"
                 d="m 132.99,322.65 3.12,0 0,11.51 -1.68,0 1.68,0 0,11.76 -3.12,0 0,-23.27 z" /></g></g><g
             id="g124"><g
               clip-path="url(#clipPath128)"
               id="g126"><path
                 id="path132"
                 style="fill:#000000;fill-opacity:1;fill-rule:evenodd;stroke:none"
                 d="m 136.11,345.92 -3.12,0 0,29.99 3.12,0 0,-29.99 z" /><path
                 id="path134"
                 style="fill:none;stroke:#000000;stroke-width:0.23988999;stroke-linecap:round;stroke-linejoin:round;stroke-miterlimit:10;stroke-dasharray:none;stroke-opacity:1"
                 d="m 136.11,345.92 -3.12,0 0,29.99 3.12,0 0,-29.99 z" /></g></g><g
             id="g136"><g
               clip-path="url(#clipPath140)"
               id="g138"><path
                 id="path144"
                 style="fill:#000000;fill-opacity:1;fill-rule:evenodd;stroke:none"
                 d="m 130.59,375.91 5.52,0 0,0.23 -1.68,0 4.08,0 0,0.48 -7.92,0 0,-0.71 z" /><path
                 id="path146"
                 style="fill:none;stroke:#000000;stroke-width:0.00003;stroke-linecap:round;stroke-linejoin:round;stroke-miterlimit:10;stroke-dasharray:none;stroke-opacity:1"
                 d="m 130.59,375.91 5.52,0 0,0.23 -1.68,0 4.08,0 0,0.48 -7.92,0 0,-0.71 z" /></g></g><g
             id="g148"><g
               clip-path="url(#clipPath152)"
               id="g150"><path
                 id="path156"
                 style="fill:#000000;fill-opacity:1;fill-rule:evenodd;stroke:none"
                 d="m 138.51,376.62 -7.92,0 0,57.34 7.92,0 0,-57.34 z" /><path
                 id="path158"
                 style="fill:none;stroke:#000000;stroke-width:0.23988999;stroke-linecap:round;stroke-linejoin:round;stroke-miterlimit:10;stroke-dasharray:none;stroke-opacity:1"
                 d="m 138.51,376.62 -7.92,0 0,57.34 7.92,0 0,-57.34 z" /></g></g><g
             id="g160"><g
               clip-path="url(#clipPath164)"
               id="g162"><path
                 id="path168"
                 style="fill:#000000;fill-opacity:1;fill-rule:evenodd;stroke:none"
                 d="m 130.59,376.62 0,-0.71 -31.18,0 0,0.71 31.18,0 z" /><path
                 id="path170"
                 style="fill:none;stroke:#000000;stroke-width:0.23988999;stroke-linecap:round;stroke-linejoin:round;stroke-miterlimit:10;stroke-dasharray:none;stroke-opacity:1"
                 d="m 130.59,376.62 0,-0.71 -31.18,0 0,0.71 31.18,0 z" /></g></g><g
             id="g172"><g
               clip-path="url(#clipPath176)"
               id="g174"><path
                 id="path180"
                 style="fill:#000000;fill-opacity:1;fill-rule:evenodd;stroke:none"
                 d="m 132.99,345.92 0,-23.27 -27.1,0 0,23.27 27.1,0 z" /><path
                 id="path182"
                 style="fill:none;stroke:#000000;stroke-width:0.23988999;stroke-linecap:round;stroke-linejoin:round;stroke-miterlimit:10;stroke-dasharray:none;stroke-opacity:1"
                 d="m 132.99,345.92 0,-23.27 -27.1,0 0,23.27 27.1,0 z" /></g></g><g
             id="g184"><g
               clip-path="url(#clipPath188)"
               id="g186"><path
                 id="path192"
                 style="fill:#000000;fill-opacity:1;fill-rule:evenodd;stroke:none"
                 d="m 132.99,294.1 0,-29.74 -27.58,0 0,29.74 27.58,0 z" /><path
                 id="path194"
                 style="fill:none;stroke:#000000;stroke-width:0.23988999;stroke-linecap:round;stroke-linejoin:round;stroke-miterlimit:10;stroke-dasharray:none;stroke-opacity:1"
                 d="m 132.99,294.1 0,-29.74 -27.58,0 0,29.74 27.58,0 z" /></g></g><g
             id="g196"><g
               clip-path="url(#clipPath200)"
               id="g198"><path
                 id="path204"
                 style="fill:#000000;fill-opacity:1;fill-rule:evenodd;stroke:none"
                 d="m 132.99,235.81 0,-23.27 -27.1,0 0,23.27 27.1,0 z" /><path
                 id="path206"
                 style="fill:none;stroke:#000000;stroke-width:0.23988999;stroke-linecap:round;stroke-linejoin:round;stroke-miterlimit:10;stroke-dasharray:none;stroke-opacity:1"
                 d="m 132.99,235.81 0,-23.27 -27.1,0 0,23.27 27.1,0 z" /></g></g><g
             id="g208"><g
               clip-path="url(#clipPath212)"
               id="g210"><path
                 id="path216"
                 style="fill:#000000;fill-opacity:1;fill-rule:evenodd;stroke:none"
                 d="m 138.51,124.5 -7.92,0 0,57.57 7.92,0 0,-57.57 z" /><path
                 id="path218"
                 style="fill:none;stroke:#000000;stroke-width:0.23988999;stroke-linecap:round;stroke-linejoin:round;stroke-miterlimit:10;stroke-dasharray:none;stroke-opacity:1"
                 d="m 138.51,124.5 -7.92,0 0,57.57 7.92,0 0,-57.57 z" /></g></g><g
             id="g220"><g
               clip-path="url(#clipPath224)"
               id="g222" /></g><g
             id="g228"><g
               clip-path="url(#clipPath232)"
               id="g230" /></g><g
             id="g236"><g
               clip-path="url(#clipPath240)"
               id="g238" /></g><g
             id="g244"><g
               clip-path="url(#clipPath248)"
               id="g246" /></g><g
             id="g252"><g
               clip-path="url(#clipPath256)"
               id="g254" /></g></g></g></g></g></svg>