<?xml version="1.0" encoding="UTF-8" standalone="no"?>
<svg
   xmlns:dc="http://purl.org/dc/elements/1.1/"
   xmlns:cc="http://creativecommons.org/ns#"
   xmlns:rdf="http://www.w3.org/1999/02/22-rdf-syntax-ns#"
   xmlns:svg="http://www.w3.org/2000/svg"
   xmlns="http://www.w3.org/2000/svg"
   viewBox="0 0 300.12 52.07325"
   height="52.07325"
   width="300.12"
   xml:space="preserve"
   version="1.1"
   id="svg2"><metadata
     id="metadata8"><rdf:RDF><cc:Work
         rdf:about=""><dc:format>image/svg+xml</dc:format><dc:type
           rdf:resource="http://purl.org/dc/dcmitype/StillImage" /></cc:Work></rdf:RDF></metadata><defs
     id="defs6" /><g
     transform="matrix(1.25,0,0,-1.25,0,52.07325)"
     id="g10"><g
       id="g12"><path
         id="path14"
         style="fill:#000000;fill-opacity:1;fill-rule:nonzero;stroke:none"
         d="m 190.32,26.838 0.977,0 0,-0.973 -0.977,0 0,0.973 z" /><path
         id="path16"
         style="fill:#000000;fill-opacity:1;fill-rule:nonzero;stroke:none"
         d="m 239.121,26.838 0.977,0 0,-0.973 -0.977,0 0,0.973 z" /><g
         transform="matrix(1,0,0,-1,0,41.6586)"
         id="g18"><path
           id="path20"
           style="fill:#ffffff;fill-opacity:1;fill-rule:nonzero;stroke:#000000;stroke-width:0.97600001;stroke-linecap:round;stroke-linejoin:miter;stroke-miterlimit:10;stroke-dasharray:none;stroke-opacity:1"
           d="m 200.742,0.492 29.281,0.176 0,29.277 -29.457,0 0.176,-29.453 z" /></g><g
         transform="matrix(1,0,0,-1,0,41.6586)"
         id="g22"><path
           id="path24"
           style="fill:none;stroke:#000000;stroke-width:0.97600001;stroke-linecap:square;stroke-linejoin:miter;stroke-miterlimit:10;stroke-dasharray:none;stroke-opacity:1"
           d="m 191.297,15.305 9.269,0" /></g><g
         transform="matrix(1,0,0,-1,0,41.6586)"
         id="g26"><path
           id="path28"
           style="fill:none;stroke:#000000;stroke-width:0.97600001;stroke-linecap:square;stroke-linejoin:miter;stroke-miterlimit:10;stroke-dasharray:none;stroke-opacity:1"
           d="m 230.336,15.305 8.785,0" /></g><g
         transform="matrix(1,0,0,-1,0,41.6586)"
         id="g30"><path
           id="path32"
           style="fill:none;stroke:#000000;stroke-width:0.97600001;stroke-linecap:round;stroke-linejoin:miter;stroke-miterlimit:10;stroke-dasharray:none;stroke-opacity:1"
           d="m 225.016,7.715 c -1.883,-0.293 -2.485,2.086 -2.485,2.086 -2.355,12.09 -2.074,12.5 -3.804,12.762 -1.469,0.218 -3,0.179 -5.622,0.113 -3.64,-0.098 -1.835,-2.242 -4.769,-12.899 -0.215,-0.769 -0.879,-2.375 -2.777,-2.199" /></g><path
         id="path34"
         style="fill:#000000;fill-opacity:1;fill-rule:nonzero;stroke:none"
         d="m 199.789,2.334 c 0.164,0 0.305,0.02 0.422,0.063 0.113,0.051 0.211,0.113 0.297,0.187 0.094,0.071 0.164,0.157 0.219,0.25 0.062,0.094 0.113,0.188 0.156,0.282 l 0.75,-0.282 c -0.063,-0.148 -0.149,-0.293 -0.25,-0.437 -0.094,-0.149 -0.215,-0.277 -0.36,-0.391 -0.148,-0.105 -0.324,-0.195 -0.531,-0.265 -0.199,-0.063 -0.433,-0.094 -0.703,-0.094 -0.355,0 -0.664,0.055 -0.922,0.156 -0.262,0.113 -0.48,0.266 -0.656,0.453 -0.168,0.188 -0.293,0.41 -0.375,0.672 -0.086,0.27 -0.125,0.555 -0.125,0.86 0,0.32 0.039,0.613 0.125,0.875 0.082,0.257 0.207,0.476 0.375,0.656 0.164,0.187 0.375,0.328 0.625,0.422 0.258,0.101 0.566,0.156 0.922,0.156 0.269,0 0.504,-0.031 0.703,-0.094 0.195,-0.055 0.367,-0.133 0.516,-0.234 0.156,-0.094 0.281,-0.215 0.375,-0.36 0.093,-0.136 0.164,-0.289 0.218,-0.453 l -0.75,-0.218 c -0.031,0.093 -0.078,0.175 -0.14,0.25 -0.055,0.082 -0.121,0.156 -0.203,0.218 -0.086,0.063 -0.188,0.114 -0.313,0.157 -0.117,0.039 -0.246,0.062 -0.391,0.062 -0.211,0 -0.39,-0.039 -0.546,-0.109 -0.149,-0.063 -0.274,-0.157 -0.375,-0.282 -0.094,-0.125 -0.168,-0.277 -0.219,-0.453 -0.043,-0.179 -0.063,-0.375 -0.063,-0.593 0,-0.211 0.02,-0.407 0.063,-0.594 0.051,-0.18 0.125,-0.328 0.219,-0.453 0.101,-0.125 0.226,-0.227 0.375,-0.297 0.156,-0.074 0.343,-0.11 0.562,-0.11 z" /><path
         id="path36"
         style="fill:#000000;fill-opacity:1;fill-rule:nonzero;stroke:none"
         d="m 205.129,3.303 c 0,-0.25 -0.039,-0.476 -0.109,-0.672 -0.063,-0.199 -0.165,-0.371 -0.297,-0.515 -0.137,-0.149 -0.309,-0.262 -0.516,-0.344 -0.199,-0.082 -0.434,-0.125 -0.703,-0.125 -0.25,0 -0.477,0.043 -0.672,0.125 -0.199,0.082 -0.367,0.191 -0.5,0.328 -0.137,0.145 -0.242,0.316 -0.312,0.516 -0.063,0.207 -0.094,0.437 -0.094,0.687 0,0.227 0.031,0.442 0.094,0.641 0.07,0.207 0.171,0.383 0.296,0.531 0.133,0.145 0.301,0.258 0.5,0.344 0.207,0.082 0.446,0.125 0.719,0.125 0.281,0 0.52,-0.043 0.719,-0.125 0.207,-0.086 0.375,-0.199 0.5,-0.344 0.125,-0.148 0.219,-0.32 0.281,-0.516 0.063,-0.199 0.094,-0.418 0.094,-0.656 z m -0.875,0 c 0,0.375 -0.063,0.645 -0.188,0.813 -0.117,0.164 -0.293,0.25 -0.531,0.25 -0.242,0 -0.43,-0.09 -0.562,-0.266 -0.125,-0.168 -0.188,-0.434 -0.188,-0.797 0,-0.199 0.016,-0.367 0.047,-0.5 0.039,-0.137 0.094,-0.25 0.156,-0.344 0.063,-0.086 0.133,-0.148 0.219,-0.187 0.094,-0.043 0.191,-0.063 0.297,-0.063 0.125,0 0.234,0.02 0.328,0.063 0.094,0.039 0.172,0.101 0.234,0.187 0.063,0.094 0.11,0.207 0.141,0.344 0.031,0.133 0.047,0.301 0.047,0.5 z" /><path
         id="path38"
         style="fill:#000000;fill-opacity:1;fill-rule:nonzero;stroke:none"
         d="m 206.477,4.881 0,-1.781 c 0,-0.125 0.003,-0.242 0.015,-0.344 0.02,-0.093 0.051,-0.179 0.094,-0.25 0.051,-0.074 0.113,-0.133 0.187,-0.172 0.071,-0.043 0.161,-0.062 0.266,-0.062 0.094,0 0.18,0.019 0.266,0.062 0.082,0.039 0.148,0.102 0.203,0.188 0.062,0.082 0.109,0.176 0.14,0.281 0.032,0.113 0.047,0.238 0.047,0.375 l 0,1.703 0.828,0 0,-2.468 c 0,-0.063 0,-0.133 0,-0.204 0,-0.074 0,-0.148 0,-0.218 0.008,-0.063 0.016,-0.121 0.016,-0.172 0,-0.055 0,-0.09 0,-0.11 l -0.781,0 c 0,0.02 -0.008,0.055 -0.016,0.11 0,0.051 -0.008,0.109 -0.015,0.172 0,0.062 0,0.125 0,0.187 0,0.063 0,0.113 0,0.156 l -0.016,0 c -0.117,-0.242 -0.258,-0.418 -0.422,-0.531 -0.168,-0.101 -0.367,-0.156 -0.594,-0.156 -0.199,0 -0.367,0.031 -0.5,0.094 -0.125,0.062 -0.23,0.144 -0.312,0.25 -0.086,0.113 -0.149,0.242 -0.188,0.39 -0.031,0.157 -0.047,0.317 -0.047,0.485 l 0,2.015 0.829,0 z" /><path
         id="path40"
         style="fill:#000000;fill-opacity:1;fill-rule:nonzero;stroke:none"
         d="m 212.273,3.303 c 0,-0.242 -0.027,-0.465 -0.078,-0.672 -0.043,-0.199 -0.117,-0.371 -0.218,-0.515 -0.094,-0.149 -0.219,-0.262 -0.375,-0.344 -0.157,-0.082 -0.34,-0.125 -0.547,-0.125 -0.094,0 -0.188,0.012 -0.282,0.031 -0.093,0.024 -0.183,0.051 -0.265,0.094 -0.086,0.039 -0.164,0.098 -0.235,0.172 -0.074,0.07 -0.132,0.16 -0.171,0.265 l -0.032,0 c 0.008,-0.011 0.016,-0.039 0.016,-0.078 0,-0.031 0,-0.074 0,-0.125 0,-0.054 0,-0.109 0,-0.172 0.008,-0.054 0.016,-0.105 0.016,-0.156 l 0,-1.219 -0.829,0 0,3.688 c 0,0.164 -0.007,0.312 -0.015,0.437 0,0.125 -0.008,0.223 -0.016,0.297 l 0.813,0 c 0,-0.011 0,-0.039 0,-0.078 0.007,-0.043 0.015,-0.09 0.015,-0.14 0,-0.055 0,-0.106 0,-0.157 0.008,-0.054 0.016,-0.101 0.016,-0.14 l 0.016,0 c 0.093,0.207 0.222,0.351 0.39,0.437 0.176,0.094 0.379,0.141 0.61,0.141 0.207,0 0.382,-0.043 0.531,-0.125 0.144,-0.086 0.265,-0.199 0.359,-0.344 0.094,-0.137 0.16,-0.309 0.203,-0.516 0.051,-0.199 0.078,-0.418 0.078,-0.656 z m -0.859,0 c 0,0.363 -0.059,0.633 -0.172,0.813 -0.105,0.175 -0.265,0.265 -0.484,0.265 -0.086,0 -0.168,-0.023 -0.25,-0.062 -0.074,-0.031 -0.149,-0.09 -0.219,-0.172 -0.062,-0.086 -0.117,-0.199 -0.156,-0.344 -0.031,-0.137 -0.047,-0.308 -0.047,-0.515 0,-0.211 0.016,-0.383 0.047,-0.516 0.039,-0.137 0.094,-0.246 0.156,-0.328 0.063,-0.086 0.133,-0.149 0.219,-0.188 0.082,-0.031 0.164,-0.047 0.25,-0.047 0.101,0 0.195,0.02 0.281,0.063 0.082,0.039 0.149,0.101 0.203,0.187 0.051,0.094 0.094,0.207 0.125,0.344 0.031,0.145 0.047,0.313 0.047,0.5 z" /><path
         id="path42"
         style="fill:#000000;fill-opacity:1;fill-rule:nonzero;stroke:none"
         d="m 214.152,1.647 c -0.23,0 -0.437,0.031 -0.625,0.094 -0.179,0.07 -0.336,0.175 -0.468,0.312 -0.125,0.145 -0.227,0.32 -0.297,0.531 -0.063,0.207 -0.094,0.446 -0.094,0.719 0,0.301 0.039,0.555 0.125,0.766 0.082,0.207 0.191,0.375 0.328,0.5 0.133,0.133 0.289,0.226 0.469,0.281 0.187,0.063 0.379,0.094 0.578,0.094 0.25,0 0.461,-0.047 0.641,-0.141 0.175,-0.086 0.316,-0.203 0.421,-0.359 0.114,-0.156 0.196,-0.344 0.25,-0.563 0.051,-0.218 0.079,-0.461 0.079,-0.718 l 0,-0.032 -2.032,0 c 0,-0.125 0.008,-0.246 0.032,-0.359 0.031,-0.117 0.07,-0.215 0.125,-0.297 0.05,-0.086 0.117,-0.152 0.203,-0.203 0.082,-0.043 0.187,-0.063 0.312,-0.063 0.133,0 0.25,0.024 0.344,0.079 0.094,0.062 0.16,0.16 0.203,0.296 l 0.766,-0.078 C 215.48,2.42 215.434,2.327 215.371,2.225 215.309,2.12 215.223,2.026 215.121,1.944 215.016,1.858 214.879,1.788 214.715,1.725 214.559,1.674 214.371,1.647 214.152,1.647 Z m 0,2.766 c -0.086,0 -0.164,-0.016 -0.234,-0.047 -0.074,-0.024 -0.141,-0.063 -0.203,-0.125 -0.055,-0.063 -0.094,-0.149 -0.125,-0.25 -0.031,-0.094 -0.047,-0.211 -0.047,-0.344 l 1.219,0 c -0.012,0.258 -0.074,0.453 -0.188,0.578 -0.105,0.125 -0.246,0.188 -0.422,0.188 z" /><path
         id="path44"
         style="fill:#000000;fill-opacity:1;fill-rule:nonzero;stroke:none"
         d="m 215.926,3.616 1.531,0 0,-0.703 -1.531,0 0,0.703 z" /><path
         id="path46"
         style="fill:#000000;fill-opacity:1;fill-rule:nonzero;stroke:none"
         d="m 221.07,3.303 c 0,-0.242 -0.027,-0.465 -0.078,-0.672 -0.043,-0.199 -0.117,-0.371 -0.219,-0.515 -0.093,-0.149 -0.218,-0.262 -0.375,-0.344 -0.156,-0.082 -0.339,-0.125 -0.546,-0.125 -0.094,0 -0.188,0.012 -0.282,0.031 -0.093,0.024 -0.183,0.051 -0.265,0.094 -0.086,0.051 -0.164,0.113 -0.235,0.187 -0.074,0.071 -0.132,0.161 -0.172,0.266 l -0.015,0 c 0,-0.043 0,-0.09 0,-0.141 0,-0.054 -0.008,-0.105 -0.016,-0.156 0,-0.055 -0.008,-0.101 -0.015,-0.14 0,-0.032 0,-0.059 0,-0.079 l -0.813,0 c 0.008,0.071 0.016,0.172 0.016,0.297 0.007,0.125 0.015,0.266 0.015,0.422 l 0,3.625 0.828,0 0,-1.203 c 0,-0.062 -0.007,-0.125 -0.015,-0.187 0,-0.063 0,-0.122 0,-0.172 0,-0.055 0,-0.106 0,-0.157 l 0.015,0 c 0.094,0.219 0.223,0.375 0.391,0.469 0.176,0.094 0.379,0.141 0.609,0.141 0.207,0 0.383,-0.043 0.532,-0.125 0.144,-0.086 0.265,-0.199 0.359,-0.344 0.094,-0.148 0.16,-0.32 0.203,-0.516 0.051,-0.199 0.078,-0.418 0.078,-0.656 z m -0.859,0 c 0,0.363 -0.055,0.629 -0.156,0.797 -0.106,0.176 -0.274,0.266 -0.5,0.266 -0.086,0 -0.168,-0.016 -0.25,-0.047 -0.075,-0.031 -0.149,-0.09 -0.219,-0.172 -0.063,-0.086 -0.117,-0.199 -0.156,-0.344 -0.032,-0.137 -0.047,-0.308 -0.047,-0.515 0,-0.211 0.015,-0.387 0.047,-0.532 0.039,-0.136 0.093,-0.246 0.156,-0.328 0.062,-0.074 0.133,-0.133 0.219,-0.172 0.082,-0.031 0.164,-0.047 0.25,-0.047 0.207,0 0.367,0.082 0.484,0.25 0.113,0.176 0.172,0.457 0.172,0.844 z" /><path
         id="path48"
         style="fill:#000000;fill-opacity:1;fill-rule:nonzero;stroke:none"
         d="m 222.383,1.647 c -0.156,0 -0.297,0.023 -0.422,0.062 -0.117,0.039 -0.215,0.102 -0.297,0.188 -0.086,0.082 -0.152,0.18 -0.203,0.297 -0.043,0.125 -0.063,0.258 -0.063,0.406 0,0.188 0.032,0.344 0.094,0.469 0.07,0.133 0.164,0.238 0.281,0.312 0.114,0.082 0.243,0.141 0.391,0.172 0.156,0.039 0.316,0.063 0.484,0.063 l 0.688,0.015 0,0.157 c 0,0.113 -0.012,0.207 -0.031,0.281 -0.024,0.082 -0.055,0.148 -0.094,0.203 -0.031,0.051 -0.078,0.086 -0.141,0.109 -0.054,0.02 -0.121,0.032 -0.203,0.032 -0.062,0 -0.121,-0.012 -0.172,-0.032 -0.054,-0.011 -0.101,-0.039 -0.14,-0.078 -0.043,-0.031 -0.078,-0.078 -0.11,-0.14 -0.023,-0.055 -0.039,-0.122 -0.047,-0.204 l -0.859,0.032 c 0.031,0.144 0.078,0.273 0.141,0.39 0.062,0.114 0.144,0.211 0.25,0.297 0.113,0.082 0.25,0.145 0.406,0.188 0.164,0.05 0.359,0.078 0.578,0.078 0.195,0 0.367,-0.028 0.516,-0.078 0.156,-0.055 0.285,-0.125 0.39,-0.219 0.114,-0.094 0.196,-0.215 0.25,-0.359 0.063,-0.137 0.094,-0.297 0.094,-0.485 l 0,-1.156 c 0,-0.074 0,-0.141 0,-0.203 0.008,-0.055 0.024,-0.102 0.047,-0.141 0.019,-0.043 0.047,-0.074 0.078,-0.094 0.031,-0.023 0.07,-0.031 0.125,-0.031 0.063,0 0.125,0.004 0.188,0.016 l 0,-0.438 c -0.055,-0.011 -0.102,-0.023 -0.141,-0.031 -0.031,-0.012 -0.07,-0.02 -0.109,-0.031 -0.043,-0.008 -0.086,-0.016 -0.125,-0.016 -0.043,0 -0.094,0 -0.157,0 -0.211,0 -0.367,0.047 -0.468,0.141 -0.094,0.101 -0.149,0.254 -0.157,0.453 l -0.031,0 c -0.105,-0.199 -0.246,-0.356 -0.422,-0.469 -0.168,-0.101 -0.371,-0.156 -0.609,-0.156 z m 0.953,1.531 -0.422,0 c -0.086,-0.012 -0.168,-0.023 -0.25,-0.031 -0.086,-0.012 -0.156,-0.031 -0.219,-0.063 -0.054,-0.031 -0.101,-0.086 -0.14,-0.156 -0.032,-0.062 -0.047,-0.148 -0.047,-0.25 0,-0.156 0.035,-0.273 0.109,-0.344 0.071,-0.074 0.164,-0.109 0.281,-0.109 0.102,0 0.196,0.02 0.282,0.063 0.082,0.05 0.156,0.113 0.218,0.187 0.063,0.07 0.11,0.156 0.141,0.25 0.031,0.094 0.047,0.191 0.047,0.297 l 0,0.156 z" /><path
         id="path50"
         style="fill:#000000;fill-opacity:1;fill-rule:nonzero;stroke:none"
         d="m 226.957,1.709 0,1.782 c 0,0.125 -0.012,0.234 -0.031,0.328 -0.012,0.101 -0.043,0.191 -0.094,0.265 -0.043,0.071 -0.102,0.129 -0.172,0.172 -0.074,0.039 -0.164,0.063 -0.265,0.063 -0.094,0 -0.184,-0.024 -0.266,-0.063 -0.086,-0.043 -0.156,-0.105 -0.219,-0.187 -0.055,-0.086 -0.094,-0.184 -0.125,-0.297 -0.031,-0.106 -0.047,-0.227 -0.047,-0.359 l 0,-1.704 -0.828,0 0,2.469 c 0,0.063 0,0.129 0,0.203 0,0.071 -0.008,0.141 -0.015,0.203 0,0.071 0,0.129 0,0.172 0,0.051 -0.008,0.094 -0.016,0.125 l 0.797,0 c 0,-0.023 0,-0.058 0,-0.109 0.008,-0.055 0.015,-0.109 0.015,-0.172 0,-0.062 0,-0.125 0,-0.187 0.008,-0.063 0.016,-0.118 0.016,-0.157 l 0.016,0 c 0.101,0.239 0.238,0.41 0.406,0.516 0.176,0.113 0.379,0.172 0.609,0.172 0.188,0 0.348,-0.031 0.485,-0.094 0.132,-0.062 0.242,-0.152 0.328,-0.266 0.082,-0.105 0.14,-0.234 0.172,-0.39 0.039,-0.149 0.062,-0.305 0.062,-0.469 l 0,-2.016 -0.828,0 z" /><path
         id="path52"
         style="fill:#000000;fill-opacity:1;fill-rule:nonzero;stroke:none"
         d="m 230.535,1.709 c 0,0.02 -0.008,0.047 -0.015,0.079 0,0.039 -0.008,0.085 -0.016,0.14 0,0.051 -0.008,0.102 -0.016,0.156 0,0.051 0,0.098 0,0.141 -0.093,-0.211 -0.23,-0.359 -0.406,-0.453 -0.168,-0.082 -0.371,-0.125 -0.609,-0.125 -0.2,0 -0.371,0.043 -0.516,0.125 -0.148,0.082 -0.266,0.195 -0.359,0.344 -0.094,0.144 -0.168,0.316 -0.219,0.515 -0.043,0.207 -0.063,0.426 -0.063,0.657 0,0.238 0.02,0.457 0.063,0.656 0.051,0.207 0.125,0.383 0.219,0.531 0.101,0.145 0.234,0.258 0.39,0.344 0.157,0.082 0.336,0.125 0.547,0.125 0.102,0 0.203,-0.012 0.297,-0.031 0.094,-0.024 0.18,-0.059 0.266,-0.11 0.082,-0.043 0.156,-0.101 0.218,-0.172 0.071,-0.074 0.129,-0.156 0.172,-0.25 0,0.02 0,0.047 0,0.078 0,0.039 0,0.082 0,0.125 0,0.051 0,0.102 0,0.157 0,0.062 0,0.113 0,0.156 l 0,1.156 0.828,0 0,-3.656 c 0,-0.156 0,-0.297 0,-0.422 0.008,-0.117 0.016,-0.203 0.016,-0.266 l -0.797,0 z m -0.031,1.61 c 0,0.207 -0.024,0.379 -0.063,0.515 -0.043,0.133 -0.093,0.243 -0.156,0.329 -0.062,0.082 -0.137,0.14 -0.219,0.171 -0.074,0.032 -0.152,0.047 -0.234,0.047 -0.117,0 -0.215,-0.023 -0.297,-0.062 -0.074,-0.043 -0.14,-0.11 -0.203,-0.203 -0.055,-0.086 -0.094,-0.196 -0.125,-0.328 -0.023,-0.137 -0.031,-0.305 -0.031,-0.5 0,-0.719 0.211,-1.079 0.64,-1.079 0.082,0 0.164,0.016 0.25,0.047 0.082,0.039 0.157,0.102 0.219,0.188 0.063,0.082 0.113,0.191 0.156,0.328 0.039,0.144 0.063,0.328 0.063,0.547 z" /><path
         id="path54"
         style="fill:#000000;fill-opacity:1;fill-rule:nonzero;stroke:none"
         d="m 233.367,1.647 c -0.23,0 -0.437,0.031 -0.625,0.094 -0.18,0.07 -0.336,0.175 -0.469,0.312 -0.125,0.145 -0.226,0.32 -0.296,0.531 -0.063,0.207 -0.094,0.446 -0.094,0.719 0,0.301 0.039,0.555 0.125,0.766 0.082,0.207 0.191,0.375 0.328,0.5 0.133,0.133 0.289,0.226 0.469,0.281 0.187,0.063 0.379,0.094 0.578,0.094 0.25,0 0.461,-0.047 0.64,-0.141 0.176,-0.086 0.317,-0.203 0.422,-0.359 0.114,-0.156 0.196,-0.344 0.25,-0.563 0.051,-0.218 0.078,-0.461 0.078,-0.718 l 0,-0.032 -2.031,0 c 0,-0.125 0.008,-0.246 0.031,-0.359 0.032,-0.117 0.071,-0.215 0.125,-0.297 0.051,-0.086 0.118,-0.152 0.204,-0.203 0.082,-0.043 0.187,-0.063 0.312,-0.063 0.133,0 0.25,0.024 0.344,0.079 0.094,0.062 0.16,0.16 0.203,0.296 l 0.766,-0.078 C 234.695,2.42 234.648,2.327 234.586,2.225 234.523,2.12 234.438,2.026 234.336,1.944 234.23,1.858 234.094,1.788 233.93,1.725 233.773,1.674 233.586,1.647 233.367,1.647 Z m 0,2.766 c -0.086,0 -0.164,-0.016 -0.234,-0.047 -0.074,-0.024 -0.141,-0.063 -0.203,-0.125 -0.055,-0.063 -0.094,-0.149 -0.125,-0.25 -0.032,-0.094 -0.047,-0.211 -0.047,-0.344 l 1.219,0 c -0.012,0.258 -0.075,0.453 -0.188,0.578 -0.105,0.125 -0.246,0.188 -0.422,0.188 z" /><path
         id="path56"
         style="fill:#000000;fill-opacity:1;fill-rule:nonzero;stroke:none"
         d="m 0,26.838 0.977,0 0,-0.973 -0.977,0 0,0.973 z" /><path
         id="path58"
         style="fill:#000000;fill-opacity:1;fill-rule:nonzero;stroke:none"
         d="m 48.801,26.838 0.977,0 0,-0.973 -0.977,0 0,0.973 z" /><g
         transform="matrix(1,0,0,-1,0,41.6586)"
         id="g60"><path
           id="path62"
           style="fill:#ffffff;fill-opacity:1;fill-rule:nonzero;stroke:#000000;stroke-width:0.97600001;stroke-linecap:round;stroke-linejoin:miter;stroke-miterlimit:10;stroke-dasharray:none;stroke-opacity:1"
           d="m 10.422,0.492 29.281,0.176 0,29.277 -29.457,0 0.176,-29.453 z" /></g><g
         transform="matrix(1,0,0,-1,0,41.6586)"
         id="g64"><path
           id="path66"
           style="fill:none;stroke:#000000;stroke-width:0.97600001;stroke-linecap:square;stroke-linejoin:miter;stroke-miterlimit:10;stroke-dasharray:none;stroke-opacity:1"
           d="m 0.977,15.305 9.269,0" /></g><g
         transform="matrix(1,0,0,-1,0,41.6586)"
         id="g68"><path
           id="path70"
           style="fill:none;stroke:#000000;stroke-width:0.97600001;stroke-linecap:square;stroke-linejoin:miter;stroke-miterlimit:10;stroke-dasharray:none;stroke-opacity:1"
           d="m 40.016,15.305 8.785,0" /></g><g
         transform="matrix(1,0,0,-1,0,41.6586)"
         id="g72"><path
           id="path74"
           style="fill:none;stroke:#000000;stroke-width:0.97600001;stroke-linecap:round;stroke-linejoin:miter;stroke-miterlimit:10;stroke-dasharray:none;stroke-opacity:1"
           d="m 15.328,8.027 c 14.688,0.086 12.758,4.641 15.992,13.18 0.375,0.996 2.016,0.945 3.375,0.988" /></g><path
         id="path76"
         style="fill:#000000;fill-opacity:1;fill-rule:nonzero;stroke:none"
         d="M 12.961,4.291 C 12.961,4.112 12.93,3.94 12.867,3.776 12.812,3.608 12.727,3.455 12.602,3.323 12.477,3.198 12.32,3.096 12.133,3.026 11.945,2.952 11.719,2.916 11.461,2.916 l -1.031,0 0,-1.453 -0.86,0 0,4.125 1.844,0 c 0.27,0 0.5,-0.031 0.688,-0.093 0.195,-0.063 0.359,-0.153 0.484,-0.266 0.125,-0.117 0.219,-0.258 0.281,-0.422 0.063,-0.156 0.094,-0.328 0.094,-0.516 z M 12.086,4.276 c 0,0.207 -0.063,0.363 -0.188,0.469 -0.125,0.113 -0.32,0.171 -0.578,0.171 l -0.89,0 0,-1.328 0.922,0 c 0.125,0 0.234,0.016 0.328,0.047 0.093,0.031 0.172,0.078 0.234,0.141 0.063,0.062 0.102,0.133 0.125,0.219 0.031,0.082 0.047,0.175 0.047,0.281 z" /><path
         id="path78"
         style="fill:#000000;fill-opacity:1;fill-rule:nonzero;stroke:none"
         d="m 14.234,1.401 c -0.156,0 -0.296,0.023 -0.422,0.062 C 13.695,1.502 13.598,1.565 13.516,1.651 13.43,1.733 13.363,1.83 13.312,1.948 13.27,2.073 13.25,2.205 13.25,2.354 c 0,0.187 0.031,0.344 0.094,0.469 0.07,0.132 0.164,0.238 0.281,0.312 0.113,0.082 0.242,0.141 0.391,0.172 0.156,0.039 0.316,0.063 0.484,0.063 l 0.688,0.015 0,0.156 c 0,0.114 -0.012,0.207 -0.032,0.282 -0.023,0.082 -0.054,0.148 -0.094,0.203 -0.031,0.051 -0.078,0.086 -0.14,0.109 -0.055,0.02 -0.121,0.031 -0.203,0.031 -0.063,0 -0.121,-0.011 -0.172,-0.031 C 14.492,4.123 14.445,4.096 14.406,4.057 14.363,4.026 14.328,3.979 14.297,3.916 14.273,3.862 14.258,3.795 14.25,3.713 l -0.859,0.032 c 0.031,0.144 0.078,0.273 0.14,0.39 0.063,0.113 0.145,0.211 0.25,0.297 0.114,0.082 0.25,0.145 0.407,0.188 0.164,0.05 0.359,0.078 0.578,0.078 0.195,0 0.367,-0.028 0.515,-0.078 0.157,-0.055 0.285,-0.125 0.391,-0.219 0.113,-0.094 0.195,-0.215 0.25,-0.36 0.062,-0.136 0.094,-0.296 0.094,-0.484 l 0,-1.156 c 0,-0.074 0,-0.141 0,-0.203 0.007,-0.055 0.023,-0.102 0.046,-0.141 0.02,-0.043 0.047,-0.074 0.079,-0.094 0.031,-0.023 0.07,-0.031 0.125,-0.031 0.062,0 0.125,0.004 0.187,0.016 l 0,-0.438 C 16.398,1.498 16.352,1.487 16.312,1.479 16.281,1.467 16.242,1.459 16.203,1.448 16.16,1.44 16.117,1.432 16.078,1.432 c -0.043,0 -0.094,0 -0.156,0 -0.211,0 -0.367,0.047 -0.469,0.141 -0.094,0.101 -0.148,0.254 -0.156,0.453 l -0.031,0 C 15.16,1.827 15.02,1.67 14.844,1.557 14.676,1.455 14.473,1.401 14.234,1.401 Z m 0.954,1.531 -0.422,0 C 14.68,2.92 14.598,2.909 14.516,2.901 14.43,2.889 14.359,2.87 14.297,2.838 14.242,2.807 14.195,2.752 14.156,2.682 14.125,2.62 14.109,2.534 14.109,2.432 c 0,-0.156 0.036,-0.273 0.11,-0.344 0.07,-0.074 0.164,-0.109 0.281,-0.109 0.102,0 0.195,0.019 0.281,0.062 0.082,0.051 0.157,0.114 0.219,0.188 0.062,0.07 0.109,0.156 0.141,0.25 0.031,0.094 0.047,0.191 0.047,0.297 l 0,0.156 z" /><path
         id="path80"
         style="fill:#000000;fill-opacity:1;fill-rule:nonzero;stroke:none"
         d="M 19.43,2.385 C 19.43,2.237 19.398,2.104 19.336,1.979 19.273,1.854 19.18,1.748 19.055,1.666 18.93,1.58 18.777,1.514 18.602,1.463 18.434,1.424 18.234,1.401 18.008,1.401 c -0.199,0 -0.383,0.015 -0.547,0.047 -0.156,0.031 -0.297,0.078 -0.422,0.14 -0.125,0.071 -0.23,0.16 -0.312,0.266 -0.086,0.101 -0.141,0.238 -0.172,0.406 l 0.718,0.11 c 0.02,-0.094 0.051,-0.168 0.094,-0.219 0.039,-0.055 0.094,-0.094 0.156,-0.125 0.063,-0.031 0.129,-0.055 0.204,-0.063 0.082,-0.011 0.175,-0.015 0.281,-0.015 0.094,0 0.18,0.004 0.265,0.015 0.082,0.008 0.149,0.024 0.204,0.047 0.062,0.031 0.109,0.067 0.14,0.11 0.031,0.05 0.047,0.113 0.047,0.187 0,0.082 -0.027,0.145 -0.078,0.188 -0.043,0.05 -0.106,0.093 -0.188,0.125 -0.086,0.031 -0.183,0.054 -0.296,0.078 -0.106,0.031 -0.219,0.054 -0.344,0.078 -0.137,0.031 -0.274,0.066 -0.406,0.109 -0.125,0.039 -0.243,0.098 -0.344,0.172 -0.094,0.07 -0.172,0.16 -0.235,0.266 -0.062,0.101 -0.093,0.238 -0.093,0.406 0,0.156 0.023,0.289 0.078,0.406 0.062,0.113 0.148,0.211 0.265,0.297 0.114,0.082 0.254,0.145 0.422,0.188 0.164,0.05 0.352,0.078 0.563,0.078 0.176,0 0.336,-0.016 0.484,-0.047 C 18.637,4.62 18.766,4.565 18.883,4.495 19.008,4.42 19.105,4.33 19.18,4.229 19.262,4.123 19.32,3.995 19.352,3.838 L 18.617,3.76 C 18.605,3.842 18.578,3.905 18.539,3.948 18.508,3.998 18.465,4.041 18.414,4.073 18.359,4.104 18.297,4.123 18.227,4.135 18.164,4.143 18.09,4.151 18.008,4.151 17.82,4.151 17.672,4.123 17.57,4.073 17.477,4.018 17.43,3.936 17.43,3.823 17.43,3.748 17.449,3.69 17.492,3.651 17.531,3.608 17.59,3.573 17.664,3.541 17.734,3.51 17.82,3.483 17.914,3.463 18.016,3.44 18.125,3.42 18.242,3.401 18.398,3.37 18.543,3.33 18.68,3.291 18.824,3.248 18.949,3.186 19.055,3.104 19.168,3.03 19.258,2.936 19.32,2.823 19.391,2.705 19.43,2.561 19.43,2.385 Z" /><path
         id="path82"
         style="fill:#000000;fill-opacity:1;fill-rule:nonzero;stroke:none"
         d="M 22.691,2.385 C 22.691,2.237 22.66,2.104 22.598,1.979 22.535,1.854 22.441,1.748 22.316,1.666 22.191,1.58 22.039,1.514 21.863,1.463 21.695,1.424 21.496,1.401 21.27,1.401 c -0.2,0 -0.383,0.015 -0.547,0.047 -0.157,0.031 -0.297,0.078 -0.422,0.14 -0.125,0.071 -0.231,0.16 -0.313,0.266 -0.086,0.101 -0.14,0.238 -0.172,0.406 l 0.719,0.11 c 0.02,-0.094 0.051,-0.168 0.094,-0.219 0.039,-0.055 0.094,-0.094 0.156,-0.125 0.063,-0.031 0.129,-0.055 0.203,-0.063 0.082,-0.011 0.176,-0.015 0.282,-0.015 0.093,0 0.179,0.004 0.265,0.015 0.082,0.008 0.149,0.024 0.203,0.047 0.063,0.031 0.11,0.067 0.141,0.11 0.031,0.05 0.047,0.113 0.047,0.187 0,0.082 -0.028,0.145 -0.078,0.188 -0.043,0.05 -0.106,0.093 -0.188,0.125 -0.086,0.031 -0.183,0.054 -0.297,0.078 -0.105,0.031 -0.218,0.054 -0.343,0.078 -0.137,0.031 -0.274,0.066 -0.407,0.109 -0.125,0.039 -0.242,0.098 -0.343,0.172 -0.094,0.07 -0.172,0.16 -0.235,0.266 -0.062,0.101 -0.094,0.238 -0.094,0.406 0,0.156 0.024,0.289 0.079,0.406 0.062,0.113 0.148,0.211 0.265,0.297 0.113,0.082 0.254,0.145 0.422,0.188 0.164,0.05 0.352,0.078 0.563,0.078 0.175,0 0.335,-0.016 0.484,-0.047 C 21.898,4.62 22.027,4.565 22.145,4.495 22.27,4.42 22.367,4.33 22.441,4.229 22.523,4.123 22.582,3.995 22.613,3.838 L 21.879,3.76 c -0.012,0.082 -0.039,0.145 -0.078,0.188 -0.031,0.05 -0.074,0.093 -0.125,0.125 -0.055,0.031 -0.117,0.05 -0.188,0.062 -0.062,0.008 -0.136,0.016 -0.218,0.016 -0.188,0 -0.336,-0.028 -0.438,-0.078 -0.094,-0.055 -0.141,-0.137 -0.141,-0.25 0,-0.075 0.02,-0.133 0.063,-0.172 0.039,-0.043 0.098,-0.078 0.172,-0.11 0.07,-0.031 0.156,-0.058 0.25,-0.078 C 21.277,3.44 21.387,3.42 21.504,3.401 21.66,3.37 21.805,3.33 21.941,3.291 22.086,3.248 22.211,3.186 22.316,3.104 22.43,3.03 22.52,2.936 22.582,2.823 22.652,2.705 22.691,2.561 22.691,2.385 Z" /><path
         id="path84"
         style="fill:#000000;fill-opacity:1;fill-rule:nonzero;stroke:none"
         d="m 24.574,1.401 c -0.23,0 -0.437,0.031 -0.625,0.094 -0.179,0.07 -0.336,0.175 -0.469,0.312 -0.125,0.145 -0.226,0.32 -0.296,0.531 -0.063,0.207 -0.094,0.446 -0.094,0.719 0,0.301 0.039,0.555 0.125,0.766 0.082,0.207 0.191,0.375 0.328,0.5 0.133,0.132 0.289,0.226 0.469,0.281 0.187,0.062 0.379,0.094 0.578,0.094 0.25,0 0.461,-0.047 0.64,-0.141 0.176,-0.086 0.317,-0.203 0.422,-0.359 0.114,-0.157 0.196,-0.344 0.25,-0.563 0.051,-0.219 0.078,-0.461 0.078,-0.719 l 0,-0.031 -2.031,0 c 0,-0.125 0.008,-0.246 0.031,-0.359 0.032,-0.117 0.071,-0.215 0.125,-0.297 0.051,-0.086 0.118,-0.152 0.204,-0.203 0.082,-0.043 0.187,-0.063 0.312,-0.063 0.133,0 0.25,0.024 0.344,0.078 0.094,0.063 0.16,0.161 0.203,0.297 L 25.934,2.26 C 25.902,2.174 25.855,2.08 25.793,1.979 25.73,1.873 25.645,1.78 25.543,1.698 25.438,1.612 25.301,1.541 25.137,1.479 24.98,1.428 24.793,1.401 24.574,1.401 Z m 0,2.765 C 24.488,4.166 24.41,4.151 24.34,4.12 24.266,4.096 24.199,4.057 24.137,3.995 24.082,3.932 24.043,3.846 24.012,3.745 23.98,3.651 23.965,3.534 23.965,3.401 l 1.219,0 C 25.172,3.659 25.109,3.854 24.996,3.979 24.891,4.104 24.75,4.166 24.574,4.166 Z" /><path
         id="path86"
         style="fill:#000000;fill-opacity:1;fill-rule:nonzero;stroke:none"
         d="m 26.352,3.37 1.531,0 0,-0.703 -1.531,0 0,0.703 z" /><path
         id="path88"
         style="fill:#000000;fill-opacity:1;fill-rule:nonzero;stroke:none"
         d="M 31.492,3.057 C 31.492,2.815 31.465,2.592 31.414,2.385 31.371,2.186 31.297,2.014 31.195,1.87 31.102,1.721 30.977,1.608 30.82,1.526 30.664,1.444 30.48,1.401 30.273,1.401 c -0.093,0 -0.187,0.012 -0.281,0.031 -0.094,0.023 -0.183,0.051 -0.265,0.094 -0.086,0.051 -0.165,0.113 -0.235,0.187 -0.074,0.071 -0.133,0.16 -0.172,0.266 l -0.015,0 c 0,-0.043 0,-0.09 0,-0.141 0,-0.054 -0.008,-0.105 -0.016,-0.156 0,-0.055 -0.008,-0.102 -0.016,-0.141 0,-0.031 0,-0.058 0,-0.078 l -0.812,0 c 0.008,0.071 0.016,0.172 0.016,0.297 0.007,0.125 0.015,0.266 0.015,0.422 l 0,3.625 0.828,0 0,-1.203 c 0,-0.063 -0.008,-0.125 -0.015,-0.188 0,-0.062 0,-0.121 0,-0.171 0,-0.055 0,-0.106 0,-0.157 l 0.015,0 c 0.094,0.219 0.223,0.375 0.391,0.469 0.176,0.094 0.379,0.141 0.609,0.141 0.207,0 0.383,-0.043 0.532,-0.125 0.144,-0.086 0.265,-0.2 0.359,-0.344 0.094,-0.149 0.16,-0.32 0.203,-0.516 0.051,-0.199 0.078,-0.418 0.078,-0.656 z m -0.859,0 c 0,0.363 -0.055,0.629 -0.156,0.797 -0.106,0.176 -0.274,0.266 -0.5,0.266 -0.086,0 -0.168,-0.016 -0.25,-0.047 C 29.652,4.041 29.578,3.983 29.508,3.901 29.445,3.815 29.391,3.702 29.352,3.557 29.32,3.42 29.305,3.248 29.305,3.041 29.305,2.83 29.32,2.655 29.352,2.51 29.391,2.373 29.445,2.264 29.508,2.182 29.57,2.108 29.641,2.049 29.727,2.01 c 0.082,-0.031 0.164,-0.047 0.25,-0.047 0.207,0 0.367,0.082 0.484,0.25 0.113,0.176 0.172,0.457 0.172,0.844 z" /><path
         id="path90"
         style="fill:#000000;fill-opacity:1;fill-rule:nonzero;stroke:none"
         d="m 32.809,1.401 c -0.157,0 -0.297,0.023 -0.422,0.062 -0.117,0.039 -0.215,0.102 -0.297,0.188 -0.086,0.082 -0.152,0.179 -0.203,0.297 -0.043,0.125 -0.063,0.257 -0.063,0.406 0,0.187 0.031,0.344 0.094,0.469 0.07,0.132 0.164,0.238 0.281,0.312 0.113,0.082 0.242,0.141 0.391,0.172 0.156,0.039 0.316,0.063 0.484,0.063 l 0.688,0.015 0,0.156 c 0,0.114 -0.012,0.207 -0.032,0.282 -0.023,0.082 -0.054,0.148 -0.093,0.203 -0.032,0.051 -0.078,0.086 -0.141,0.109 -0.055,0.02 -0.121,0.031 -0.203,0.031 -0.063,0 -0.121,-0.011 -0.172,-0.031 C 33.066,4.123 33.02,4.096 32.98,4.057 32.938,4.026 32.902,3.979 32.871,3.916 32.848,3.862 32.832,3.795 32.824,3.713 l -0.859,0.032 c 0.031,0.144 0.078,0.273 0.14,0.39 0.063,0.113 0.145,0.211 0.25,0.297 0.114,0.082 0.25,0.145 0.407,0.188 0.164,0.05 0.359,0.078 0.578,0.078 0.195,0 0.367,-0.028 0.515,-0.078 0.157,-0.055 0.286,-0.125 0.391,-0.219 0.113,-0.094 0.195,-0.215 0.25,-0.36 0.063,-0.136 0.094,-0.296 0.094,-0.484 l 0,-1.156 c 0,-0.074 0,-0.141 0,-0.203 0.008,-0.055 0.023,-0.102 0.047,-0.141 0.019,-0.043 0.047,-0.074 0.078,-0.094 0.031,-0.023 0.07,-0.031 0.125,-0.031 0.062,0 0.125,0.004 0.187,0.016 l 0,-0.438 C 34.973,1.498 34.926,1.487 34.887,1.479 34.855,1.467 34.816,1.459 34.777,1.448 34.734,1.44 34.691,1.432 34.652,1.432 c -0.043,0 -0.093,0 -0.156,0 -0.211,0 -0.367,0.047 -0.469,0.141 -0.093,0.101 -0.148,0.254 -0.156,0.453 l -0.031,0 C 33.734,1.827 33.594,1.67 33.418,1.557 33.25,1.455 33.047,1.401 32.809,1.401 Z m 0.953,1.531 -0.422,0 C 33.254,2.92 33.172,2.909 33.09,2.901 33.004,2.889 32.934,2.87 32.871,2.838 32.816,2.807 32.77,2.752 32.73,2.682 32.699,2.62 32.684,2.534 32.684,2.432 c 0,-0.156 0.035,-0.273 0.109,-0.344 0.07,-0.074 0.164,-0.109 0.281,-0.109 0.102,0 0.196,0.019 0.281,0.062 0.083,0.051 0.157,0.114 0.219,0.188 0.063,0.07 0.11,0.156 0.141,0.25 0.031,0.094 0.047,0.191 0.047,0.297 l 0,0.156 z" /><path
         id="path92"
         style="fill:#000000;fill-opacity:1;fill-rule:nonzero;stroke:none"
         d="M 38.004,2.385 C 38.004,2.237 37.973,2.104 37.91,1.979 37.848,1.854 37.754,1.748 37.629,1.666 37.504,1.58 37.352,1.514 37.176,1.463 37.008,1.424 36.809,1.401 36.582,1.401 c -0.199,0 -0.383,0.015 -0.547,0.047 -0.156,0.031 -0.297,0.078 -0.422,0.14 -0.125,0.071 -0.23,0.16 -0.312,0.266 -0.086,0.101 -0.141,0.238 -0.172,0.406 l 0.719,0.11 c 0.019,-0.094 0.05,-0.168 0.093,-0.219 0.039,-0.055 0.094,-0.094 0.157,-0.125 0.062,-0.031 0.129,-0.055 0.203,-0.063 0.082,-0.011 0.176,-0.015 0.281,-0.015 0.094,0 0.18,0.004 0.266,0.015 0.082,0.008 0.148,0.024 0.203,0.047 0.062,0.031 0.109,0.067 0.14,0.11 0.032,0.05 0.047,0.113 0.047,0.187 0,0.082 -0.027,0.145 -0.078,0.188 -0.043,0.05 -0.105,0.093 -0.187,0.125 -0.086,0.031 -0.184,0.054 -0.297,0.078 -0.106,0.031 -0.219,0.054 -0.344,0.078 -0.137,0.031 -0.273,0.066 -0.406,0.109 -0.125,0.039 -0.242,0.098 -0.344,0.172 -0.094,0.07 -0.172,0.16 -0.234,0.266 -0.063,0.101 -0.094,0.238 -0.094,0.406 0,0.156 0.023,0.289 0.078,0.406 0.063,0.113 0.148,0.211 0.266,0.297 0.113,0.082 0.254,0.145 0.422,0.188 0.164,0.05 0.351,0.078 0.562,0.078 0.176,0 0.336,-0.016 0.484,-0.047 C 37.211,4.62 37.34,4.565 37.457,4.495 37.582,4.42 37.68,4.33 37.754,4.229 37.836,4.123 37.895,3.995 37.926,3.838 L 37.191,3.76 c -0.011,0.082 -0.039,0.145 -0.078,0.188 -0.031,0.05 -0.074,0.093 -0.125,0.125 -0.054,0.031 -0.117,0.05 -0.187,0.062 -0.063,0.008 -0.137,0.016 -0.219,0.016 -0.187,0 -0.336,-0.028 -0.437,-0.078 -0.094,-0.055 -0.141,-0.137 -0.141,-0.25 0,-0.075 0.019,-0.133 0.062,-0.172 0.039,-0.043 0.098,-0.078 0.172,-0.11 C 36.309,3.51 36.395,3.483 36.488,3.463 36.59,3.44 36.699,3.42 36.816,3.401 36.973,3.37 37.117,3.33 37.254,3.291 37.398,3.248 37.523,3.186 37.629,3.104 37.742,3.03 37.832,2.936 37.895,2.823 37.965,2.705 38.004,2.561 38.004,2.385 Z" /><path
         id="path94"
         style="fill:#000000;fill-opacity:1;fill-rule:nonzero;stroke:none"
         d="m 63.441,26.838 0.973,0 0,-0.973 -0.973,0 0,0.973 z" /><path
         id="path96"
         style="fill:#000000;fill-opacity:1;fill-rule:nonzero;stroke:none"
         d="m 112.238,26.838 0.977,0 0,-0.973 -0.977,0 0,0.973 z" /><g
         transform="matrix(1,0,0,-1,0,41.6586)"
         id="g98"><path
           id="path100"
           style="fill:#ffffff;fill-opacity:1;fill-rule:nonzero;stroke:#000000;stroke-width:0.97600001;stroke-linecap:round;stroke-linejoin:miter;stroke-miterlimit:10;stroke-dasharray:none;stroke-opacity:1"
           d="m 73.863,0.492 29.282,0.176 0,29.277 -29.457,0 0.175,-29.453 z" /></g><g
         transform="matrix(1,0,0,-1,0,41.6586)"
         id="g102"><path
           id="path104"
           style="fill:none;stroke:#000000;stroke-width:0.97600001;stroke-linecap:square;stroke-linejoin:miter;stroke-miterlimit:10;stroke-dasharray:none;stroke-opacity:1"
           d="m 64.414,15.305 9.274,0" /></g><g
         transform="matrix(1,0,0,-1,0,41.6586)"
         id="g106"><path
           id="path108"
           style="fill:none;stroke:#000000;stroke-width:0.97600001;stroke-linecap:square;stroke-linejoin:miter;stroke-miterlimit:10;stroke-dasharray:none;stroke-opacity:1"
           d="m 103.457,15.305 8.781,0" /></g><g
         transform="matrix(1,0,0,-1,0,41.6586)"
         id="g110"><path
           id="path112"
           style="fill:none;stroke:#000000;stroke-width:0.97600001;stroke-linecap:round;stroke-linejoin:miter;stroke-miterlimit:10;stroke-dasharray:none;stroke-opacity:1"
           d="M 98.137,8.109 C 83.285,8.195 85.203,12.016 81.863,20.793 81.516,21.711 80.344,22.438 78.77,22.281" /></g><path
         id="path114"
         style="fill:#000000;fill-opacity:1;fill-rule:nonzero;stroke:none"
         d="M 76.484,4.291 C 76.484,4.112 76.453,3.94 76.391,3.776 76.336,3.608 76.25,3.455 76.125,3.323 76,3.198 75.844,3.096 75.656,3.026 75.469,2.952 75.242,2.916 74.984,2.916 l -1.031,0 0,-1.453 -0.859,0 0,4.125 1.844,0 c 0.269,0 0.5,-0.031 0.687,-0.093 0.195,-0.063 0.359,-0.153 0.484,-0.266 0.125,-0.117 0.219,-0.258 0.282,-0.422 0.062,-0.156 0.093,-0.328 0.093,-0.516 z M 75.609,4.276 c 0,0.207 -0.062,0.363 -0.187,0.469 -0.125,0.113 -0.32,0.171 -0.578,0.171 l -0.891,0 0,-1.328 0.922,0 c 0.125,0 0.234,0.016 0.328,0.047 0.094,0.031 0.172,0.078 0.235,0.141 0.062,0.062 0.101,0.133 0.124,0.219 0.032,0.082 0.047,0.175 0.047,0.281 z" /><path
         id="path116"
         style="fill:#000000;fill-opacity:1;fill-rule:nonzero;stroke:none"
         d="m 77.754,1.401 c -0.156,0 -0.297,0.023 -0.422,0.062 -0.117,0.039 -0.215,0.102 -0.297,0.188 -0.086,0.082 -0.152,0.179 -0.203,0.297 -0.043,0.125 -0.062,0.257 -0.062,0.406 0,0.187 0.031,0.344 0.093,0.469 0.071,0.132 0.164,0.238 0.282,0.312 0.113,0.082 0.242,0.141 0.39,0.172 0.156,0.039 0.317,0.063 0.485,0.063 l 0.687,0.015 0,0.156 c 0,0.114 -0.012,0.207 -0.031,0.282 -0.024,0.082 -0.055,0.148 -0.094,0.203 -0.031,0.051 -0.078,0.086 -0.141,0.109 -0.054,0.02 -0.121,0.031 -0.203,0.031 -0.062,0 -0.121,-0.011 -0.172,-0.031 C 78.012,4.123 77.965,4.096 77.926,4.057 77.883,4.026 77.848,3.979 77.816,3.916 77.793,3.862 77.777,3.795 77.77,3.713 l -0.86,0.032 c 0.031,0.144 0.078,0.273 0.141,0.39 0.062,0.113 0.144,0.211 0.25,0.297 0.113,0.082 0.25,0.145 0.406,0.188 0.164,0.05 0.359,0.078 0.578,0.078 0.195,0 0.367,-0.028 0.516,-0.078 0.156,-0.055 0.285,-0.125 0.39,-0.219 0.114,-0.094 0.196,-0.215 0.25,-0.36 0.063,-0.136 0.094,-0.296 0.094,-0.484 l 0,-1.156 c 0,-0.074 0,-0.141 0,-0.203 0.008,-0.055 0.024,-0.102 0.047,-0.141 0.02,-0.043 0.047,-0.074 0.078,-0.094 0.031,-0.023 0.07,-0.031 0.125,-0.031 0.063,0 0.125,0.004 0.188,0.016 l 0,-0.438 C 79.918,1.498 79.871,1.487 79.832,1.479 79.801,1.467 79.762,1.459 79.723,1.448 79.68,1.44 79.637,1.432 79.598,1.432 c -0.043,0 -0.094,0 -0.157,0 -0.211,0 -0.367,0.047 -0.468,0.141 -0.094,0.101 -0.149,0.254 -0.157,0.453 l -0.031,0 C 78.68,1.827 78.539,1.67 78.363,1.557 78.195,1.455 77.992,1.401 77.754,1.401 Z m 0.953,1.531 -0.422,0 C 78.199,2.92 78.117,2.909 78.035,2.901 77.949,2.889 77.879,2.87 77.816,2.838 77.762,2.807 77.715,2.752 77.676,2.682 77.645,2.62 77.629,2.534 77.629,2.432 c 0,-0.156 0.035,-0.273 0.109,-0.344 0.071,-0.074 0.164,-0.109 0.282,-0.109 0.101,0 0.195,0.019 0.281,0.062 0.082,0.051 0.156,0.114 0.219,0.188 0.062,0.07 0.109,0.156 0.14,0.25 0.031,0.094 0.047,0.191 0.047,0.297 l 0,0.156 z" /><path
         id="path118"
         style="fill:#000000;fill-opacity:1;fill-rule:nonzero;stroke:none"
         d="M 82.953,2.385 C 82.953,2.237 82.922,2.104 82.859,1.979 82.797,1.854 82.703,1.748 82.578,1.666 82.453,1.58 82.301,1.514 82.125,1.463 81.957,1.424 81.758,1.401 81.531,1.401 c -0.199,0 -0.383,0.015 -0.547,0.047 -0.156,0.031 -0.296,0.078 -0.422,0.14 -0.124,0.071 -0.23,0.16 -0.312,0.266 -0.086,0.101 -0.141,0.238 -0.172,0.406 l 0.719,0.11 c 0.019,-0.094 0.051,-0.168 0.094,-0.219 0.039,-0.055 0.093,-0.094 0.156,-0.125 0.062,-0.031 0.129,-0.055 0.203,-0.063 0.082,-0.011 0.176,-0.015 0.281,-0.015 0.094,0 0.18,0.004 0.266,0.015 0.082,0.008 0.148,0.024 0.203,0.047 0.062,0.031 0.109,0.067 0.141,0.11 0.031,0.05 0.047,0.113 0.047,0.187 0,0.082 -0.028,0.145 -0.079,0.188 -0.043,0.05 -0.105,0.093 -0.187,0.125 -0.086,0.031 -0.184,0.054 -0.297,0.078 -0.105,0.031 -0.219,0.054 -0.344,0.078 -0.136,0.031 -0.273,0.066 -0.406,0.109 -0.125,0.039 -0.242,0.098 -0.344,0.172 -0.093,0.07 -0.172,0.16 -0.234,0.266 -0.063,0.101 -0.094,0.238 -0.094,0.406 0,0.156 0.024,0.289 0.078,0.406 0.063,0.113 0.149,0.211 0.266,0.297 0.113,0.082 0.254,0.145 0.422,0.188 0.164,0.05 0.351,0.078 0.562,0.078 0.176,0 0.336,-0.016 0.485,-0.047 C 82.16,4.62 82.289,4.565 82.406,4.495 82.531,4.42 82.629,4.33 82.703,4.229 82.785,4.123 82.844,3.995 82.875,3.838 L 82.141,3.76 C 82.129,3.842 82.102,3.905 82.062,3.948 82.031,3.998 81.988,4.041 81.938,4.073 81.883,4.104 81.82,4.123 81.75,4.135 81.688,4.143 81.613,4.151 81.531,4.151 81.344,4.151 81.195,4.123 81.094,4.073 81,4.018 80.953,3.936 80.953,3.823 c 0,-0.075 0.02,-0.133 0.063,-0.172 0.039,-0.043 0.097,-0.078 0.172,-0.11 0.07,-0.031 0.156,-0.058 0.25,-0.078 0.101,-0.023 0.21,-0.043 0.328,-0.062 0.156,-0.031 0.3,-0.071 0.437,-0.11 0.145,-0.043 0.27,-0.105 0.375,-0.187 0.113,-0.074 0.203,-0.168 0.266,-0.281 0.07,-0.118 0.109,-0.262 0.109,-0.438 z" /><path
         id="path120"
         style="fill:#000000;fill-opacity:1;fill-rule:nonzero;stroke:none"
         d="M 86.211,2.385 C 86.211,2.237 86.18,2.104 86.117,1.979 86.055,1.854 85.961,1.748 85.836,1.666 85.711,1.58 85.559,1.514 85.383,1.463 85.215,1.424 85.016,1.401 84.789,1.401 c -0.199,0 -0.383,0.015 -0.547,0.047 -0.156,0.031 -0.297,0.078 -0.422,0.14 -0.125,0.071 -0.23,0.16 -0.312,0.266 -0.086,0.101 -0.141,0.238 -0.172,0.406 l 0.719,0.11 c 0.019,-0.094 0.05,-0.168 0.093,-0.219 0.04,-0.055 0.094,-0.094 0.157,-0.125 0.062,-0.031 0.129,-0.055 0.203,-0.063 0.082,-0.011 0.176,-0.015 0.281,-0.015 0.094,0 0.18,0.004 0.266,0.015 0.082,0.008 0.148,0.024 0.203,0.047 0.062,0.031 0.109,0.067 0.14,0.11 0.032,0.05 0.047,0.113 0.047,0.187 0,0.082 -0.027,0.145 -0.078,0.188 -0.043,0.05 -0.105,0.093 -0.187,0.125 -0.086,0.031 -0.184,0.054 -0.297,0.078 -0.106,0.031 -0.219,0.054 -0.344,0.078 -0.137,0.031 -0.273,0.066 -0.406,0.109 -0.125,0.039 -0.242,0.098 -0.344,0.172 -0.094,0.07 -0.172,0.16 -0.234,0.266 -0.063,0.101 -0.094,0.238 -0.094,0.406 0,0.156 0.023,0.289 0.078,0.406 0.063,0.113 0.149,0.211 0.266,0.297 0.113,0.082 0.254,0.145 0.422,0.188 0.164,0.05 0.351,0.078 0.562,0.078 0.176,0 0.336,-0.016 0.484,-0.047 C 85.418,4.62 85.547,4.565 85.664,4.495 85.789,4.42 85.887,4.33 85.961,4.229 86.043,4.123 86.102,3.995 86.133,3.838 L 85.398,3.76 c -0.011,0.082 -0.039,0.145 -0.078,0.188 -0.031,0.05 -0.074,0.093 -0.125,0.125 -0.054,0.031 -0.117,0.05 -0.187,0.062 -0.063,0.008 -0.137,0.016 -0.219,0.016 -0.187,0 -0.336,-0.028 -0.437,-0.078 -0.094,-0.055 -0.141,-0.137 -0.141,-0.25 0,-0.075 0.019,-0.133 0.062,-0.172 0.039,-0.043 0.098,-0.078 0.172,-0.11 C 84.516,3.51 84.602,3.483 84.695,3.463 84.797,3.44 84.906,3.42 85.023,3.401 85.18,3.37 85.324,3.33 85.461,3.291 85.605,3.248 85.73,3.186 85.836,3.104 85.949,3.03 86.039,2.936 86.102,2.823 86.172,2.705 86.211,2.561 86.211,2.385 Z" /><path
         id="path122"
         style="fill:#000000;fill-opacity:1;fill-rule:nonzero;stroke:none"
         d="m 88.098,1.401 c -0.231,0 -0.438,0.031 -0.625,0.094 -0.18,0.07 -0.336,0.175 -0.469,0.312 -0.125,0.145 -0.227,0.32 -0.297,0.531 -0.062,0.207 -0.094,0.446 -0.094,0.719 0,0.301 0.039,0.555 0.125,0.766 0.082,0.207 0.192,0.375 0.328,0.5 0.133,0.132 0.289,0.226 0.469,0.281 0.188,0.062 0.379,0.094 0.578,0.094 0.25,0 0.461,-0.047 0.641,-0.141 0.176,-0.086 0.316,-0.203 0.422,-0.359 0.113,-0.157 0.195,-0.344 0.25,-0.563 0.051,-0.219 0.078,-0.461 0.078,-0.719 l 0,-0.031 -2.031,0 c 0,-0.125 0.007,-0.246 0.031,-0.359 0.031,-0.117 0.07,-0.215 0.125,-0.297 0.051,-0.086 0.117,-0.152 0.203,-0.203 0.082,-0.043 0.188,-0.063 0.313,-0.063 0.132,0 0.25,0.024 0.343,0.078 0.094,0.063 0.16,0.161 0.203,0.297 L 89.457,2.26 C 89.426,2.174 89.379,2.08 89.316,1.979 89.254,1.873 89.168,1.78 89.066,1.698 88.961,1.612 88.824,1.541 88.66,1.479 88.504,1.428 88.316,1.401 88.098,1.401 Z m 0,2.765 C 88.012,4.166 87.934,4.151 87.863,4.12 87.789,4.096 87.723,4.057 87.66,3.995 87.605,3.932 87.566,3.846 87.535,3.745 87.504,3.651 87.488,3.534 87.488,3.401 l 1.219,0 C 88.695,3.659 88.633,3.854 88.52,3.979 88.414,4.104 88.273,4.166 88.098,4.166 Z" /><path
         id="path124"
         style="fill:#000000;fill-opacity:1;fill-rule:nonzero;stroke:none"
         d="m 89.871,3.37 1.531,0 0,-0.703 -1.531,0 0,0.703 z" /><path
         id="path126"
         style="fill:#000000;fill-opacity:1;fill-rule:nonzero;stroke:none"
         d="m 92.828,3.995 c 0.102,0.25 0.238,0.425 0.406,0.531 0.176,0.113 0.379,0.172 0.61,0.172 0.187,0 0.347,-0.032 0.484,-0.094 0.133,-0.063 0.242,-0.152 0.328,-0.266 0.082,-0.105 0.141,-0.234 0.172,-0.39 0.039,-0.149 0.063,-0.305 0.063,-0.469 l 0,-2.016 -0.829,0 0,1.782 c 0,0.113 -0.011,0.222 -0.031,0.328 C 94.02,3.674 93.988,3.764 93.938,3.838 93.895,3.909 93.836,3.967 93.766,4.01 93.691,4.049 93.602,4.073 93.5,4.073 93.406,4.073 93.316,4.049 93.234,4.01 93.148,3.967 93.078,3.905 93.016,3.823 92.961,3.737 92.922,3.639 92.891,3.526 92.859,3.42 92.844,3.299 92.844,3.166 l 0,-1.703 -0.828,0 0,4.344 0.828,0 0,-1.187 c 0,-0.063 -0.008,-0.125 -0.016,-0.188 0,-0.062 0,-0.125 0,-0.187 0,-0.055 -0.008,-0.102 -0.016,-0.141 0,-0.043 0,-0.078 0,-0.109 l 0.016,0 z" /><path
         id="path128"
         style="fill:#000000;fill-opacity:1;fill-rule:nonzero;stroke:none"
         d="m 96.328,1.401 c -0.156,0 -0.297,0.023 -0.422,0.062 -0.117,0.039 -0.215,0.102 -0.297,0.188 -0.086,0.082 -0.152,0.179 -0.203,0.297 -0.043,0.125 -0.062,0.257 -0.062,0.406 0,0.187 0.031,0.344 0.094,0.469 0.07,0.132 0.164,0.238 0.281,0.312 0.113,0.082 0.242,0.141 0.39,0.172 0.157,0.039 0.317,0.063 0.485,0.063 l 0.687,0.015 0,0.156 c 0,0.114 -0.011,0.207 -0.031,0.282 -0.023,0.082 -0.055,0.148 -0.094,0.203 -0.031,0.051 -0.078,0.086 -0.14,0.109 -0.055,0.02 -0.121,0.031 -0.204,0.031 -0.062,0 -0.121,-0.011 -0.171,-0.031 C 96.586,4.123 96.539,4.096 96.5,4.057 96.457,4.026 96.422,3.979 96.391,3.916 96.367,3.862 96.352,3.795 96.344,3.713 l -0.86,0.032 c 0.032,0.144 0.078,0.273 0.141,0.39 0.063,0.113 0.145,0.211 0.25,0.297 0.113,0.082 0.25,0.145 0.406,0.188 0.164,0.05 0.36,0.078 0.578,0.078 0.196,0 0.368,-0.028 0.516,-0.078 0.156,-0.055 0.285,-0.125 0.391,-0.219 0.113,-0.094 0.195,-0.215 0.25,-0.36 0.062,-0.136 0.093,-0.296 0.093,-0.484 l 0,-1.156 c 0,-0.074 0,-0.141 0,-0.203 0.008,-0.055 0.024,-0.102 0.047,-0.141 0.02,-0.043 0.047,-0.074 0.078,-0.094 0.032,-0.023 0.071,-0.031 0.125,-0.031 0.063,0 0.125,0.004 0.188,0.016 l 0,-0.438 C 98.492,1.498 98.445,1.487 98.406,1.479 98.375,1.467 98.336,1.459 98.297,1.448 98.254,1.44 98.211,1.432 98.172,1.432 c -0.043,0 -0.094,0 -0.156,0 -0.211,0 -0.368,0.047 -0.469,0.141 -0.094,0.101 -0.149,0.254 -0.156,0.453 l -0.032,0 C 97.254,1.827 97.113,1.67 96.938,1.557 96.77,1.455 96.566,1.401 96.328,1.401 Z m 0.953,1.531 -0.422,0 C 96.773,2.92 96.691,2.909 96.609,2.901 96.523,2.889 96.453,2.87 96.391,2.838 96.336,2.807 96.289,2.752 96.25,2.682 96.219,2.62 96.203,2.534 96.203,2.432 c 0,-0.156 0.035,-0.273 0.109,-0.344 0.071,-0.074 0.165,-0.109 0.282,-0.109 0.101,0 0.195,0.019 0.281,0.062 0.082,0.051 0.156,0.114 0.219,0.188 0.062,0.07 0.109,0.156 0.14,0.25 0.032,0.094 0.047,0.191 0.047,0.297 l 0,0.156 z" /><path
         id="path130"
         style="fill:#000000;fill-opacity:1;fill-rule:nonzero;stroke:none"
         d="m 99.637,4.635 0,-1.781 c 0,-0.125 0.004,-0.242 0.015,-0.344 0.02,-0.094 0.051,-0.18 0.094,-0.25 0.051,-0.074 0.113,-0.133 0.188,-0.172 0.07,-0.043 0.16,-0.062 0.265,-0.062 0.094,0 0.18,0.019 0.266,0.062 0.082,0.039 0.148,0.102 0.203,0.188 0.062,0.082 0.109,0.176 0.141,0.281 0.031,0.113 0.046,0.238 0.046,0.375 l 0,1.703 0.829,0 0,-2.469 c 0,-0.062 0,-0.132 0,-0.203 0,-0.074 0,-0.148 0,-0.218 0.007,-0.063 0.015,-0.122 0.015,-0.172 0,-0.055 0,-0.09 0,-0.11 l -0.781,0 c 0,0.02 -0.008,0.055 -0.016,0.11 0,0.05 -0.007,0.109 -0.015,0.172 0,0.062 0,0.125 0,0.187 0,0.063 0,0.113 0,0.156 l -0.016,0 c -0.117,-0.242 -0.258,-0.418 -0.422,-0.531 -0.168,-0.102 -0.367,-0.156 -0.594,-0.156 -0.199,0 -0.367,0.031 -0.5,0.094 -0.125,0.062 -0.23,0.144 -0.312,0.25 -0.086,0.113 -0.148,0.242 -0.188,0.39 -0.031,0.156 -0.046,0.317 -0.046,0.485 l 0,2.015 0.828,0 z" /><path
         id="path132"
         style="fill:#000000;fill-opacity:1;fill-rule:nonzero;stroke:none"
         d="m 103.246,1.416 c -0.242,0 -0.43,0.063 -0.562,0.188 -0.137,0.133 -0.204,0.336 -0.204,0.609 l 0,1.86 -0.39,0 0,0.562 0.437,0 0.266,0.75 0.516,0 0,-0.75 0.593,0 0,-0.562 -0.593,0 0,-1.641 c 0,-0.156 0.023,-0.273 0.078,-0.344 0.062,-0.074 0.156,-0.109 0.281,-0.109 0.039,0 0.082,0.004 0.125,0.016 0.039,0.007 0.086,0.019 0.141,0.031 l 0,-0.516 C 103.828,1.479 103.719,1.459 103.605,1.448 103.5,1.428 103.379,1.416 103.246,1.416 Z" /><path
         id="path134"
         style="fill:#000000;fill-opacity:1;fill-rule:nonzero;stroke:none"
         d="m 126.879,26.838 0.977,0 0,-0.973 -0.977,0 0,0.973 z" /><path
         id="path136"
         style="fill:#000000;fill-opacity:1;fill-rule:nonzero;stroke:none"
         d="m 175.68,26.838 0.977,0 0,-0.973 -0.977,0 0,0.973 z" /><g
         transform="matrix(1,0,0,-1,0,41.6586)"
         id="g138"><path
           id="path140"
           style="fill:#ffffff;fill-opacity:1;fill-rule:nonzero;stroke:#000000;stroke-width:0.97600001;stroke-linecap:round;stroke-linejoin:miter;stroke-miterlimit:10;stroke-dasharray:none;stroke-opacity:1"
           d="m 137.305,0.492 29.277,0.176 0,29.277 -29.453,0 0.176,-29.453 z" /></g><g
         transform="matrix(1,0,0,-1,0,41.6586)"
         id="g142"><path
           id="path144"
           style="fill:none;stroke:#000000;stroke-width:0.97600001;stroke-linecap:square;stroke-linejoin:miter;stroke-miterlimit:10;stroke-dasharray:none;stroke-opacity:1"
           d="m 127.855,15.305 9.274,0" /></g><g
         transform="matrix(1,0,0,-1,0,41.6586)"
         id="g146"><path
           id="path148"
           style="fill:none;stroke:#000000;stroke-width:0.97600001;stroke-linecap:square;stroke-linejoin:miter;stroke-miterlimit:10;stroke-dasharray:none;stroke-opacity:1"
           d="m 166.895,15.305 8.785,0" /></g><g
         transform="matrix(1,0,0,-1,0,41.6586)"
         id="g150"><path
           id="path152"
           style="fill:none;stroke:#000000;stroke-width:0.97600001;stroke-linecap:round;stroke-linejoin:miter;stroke-miterlimit:10;stroke-dasharray:none;stroke-opacity:1"
           d="m 161.578,22.578 c -1.887,0.293 -2.484,-2.09 -2.484,-2.09 -2.36,-12.086 -2.074,-12.496 -3.809,-12.761 -1.469,-0.219 -3,-0.18 -5.621,-0.11 -3.641,0.098 -1.836,2.238 -4.766,12.895 -0.214,0.773 -0.878,2.379 -2.777,2.203" /></g><path
         id="path154"
         style="fill:#000000;fill-opacity:1;fill-rule:nonzero;stroke:none"
         d="m 138.215,4.538 c 0,-0.18 -0.031,-0.352 -0.094,-0.516 -0.055,-0.168 -0.141,-0.32 -0.266,-0.453 -0.125,-0.125 -0.281,-0.227 -0.468,-0.297 -0.188,-0.074 -0.414,-0.109 -0.672,-0.109 l -1.031,0 0,-1.454 -0.86,0 0,4.125 1.844,0 c 0.27,0 0.5,-0.031 0.687,-0.093 0.196,-0.063 0.36,-0.153 0.485,-0.266 0.125,-0.117 0.219,-0.258 0.281,-0.422 0.063,-0.156 0.094,-0.328 0.094,-0.515 z M 137.34,4.522 c 0,0.207 -0.063,0.363 -0.188,0.469 -0.125,0.113 -0.32,0.172 -0.578,0.172 l -0.89,0 0,-1.329 0.921,0 c 0.125,0 0.235,0.016 0.329,0.047 0.093,0.032 0.171,0.078 0.234,0.141 0.062,0.062 0.102,0.133 0.125,0.219 0.031,0.082 0.047,0.175 0.047,0.281 z" /><path
         id="path156"
         style="fill:#000000;fill-opacity:1;fill-rule:nonzero;stroke:none"
         d="m 139.484,1.647 c -0.156,0 -0.296,0.023 -0.422,0.062 -0.117,0.039 -0.214,0.102 -0.296,0.188 -0.086,0.082 -0.153,0.18 -0.204,0.297 -0.042,0.125 -0.062,0.258 -0.062,0.406 0,0.188 0.031,0.344 0.094,0.469 0.07,0.133 0.164,0.238 0.281,0.312 0.113,0.082 0.242,0.141 0.391,0.172 0.156,0.039 0.316,0.063 0.484,0.063 l 0.688,0.015 0,0.157 c 0,0.113 -0.012,0.207 -0.032,0.281 -0.023,0.082 -0.054,0.148 -0.094,0.203 -0.031,0.051 -0.078,0.086 -0.14,0.109 -0.055,0.02 -0.121,0.032 -0.203,0.032 -0.063,0 -0.121,-0.012 -0.172,-0.032 -0.055,-0.011 -0.102,-0.039 -0.141,-0.078 -0.043,-0.031 -0.078,-0.078 -0.109,-0.14 -0.024,-0.055 -0.039,-0.122 -0.047,-0.204 l -0.859,0.032 c 0.031,0.144 0.078,0.273 0.14,0.39 0.063,0.114 0.145,0.211 0.25,0.297 0.114,0.082 0.25,0.145 0.407,0.188 0.164,0.05 0.359,0.078 0.578,0.078 0.195,0 0.367,-0.028 0.515,-0.078 0.157,-0.055 0.285,-0.125 0.391,-0.219 0.113,-0.094 0.195,-0.215 0.25,-0.359 0.062,-0.137 0.094,-0.297 0.094,-0.485 l 0,-1.156 c 0,-0.074 0,-0.141 0,-0.203 0.007,-0.055 0.023,-0.102 0.046,-0.141 0.02,-0.043 0.047,-0.074 0.079,-0.094 0.031,-0.023 0.07,-0.031 0.125,-0.031 0.062,0 0.125,0.004 0.187,0.016 l 0,-0.438 c -0.055,-0.011 -0.101,-0.023 -0.141,-0.031 -0.031,-0.012 -0.07,-0.02 -0.109,-0.031 -0.043,-0.008 -0.086,-0.016 -0.125,-0.016 -0.043,0 -0.094,0 -0.156,0 -0.211,0 -0.367,0.047 -0.469,0.141 -0.094,0.101 -0.148,0.254 -0.156,0.453 l -0.031,0 C 140.41,2.073 140.27,1.916 140.094,1.803 139.926,1.702 139.723,1.647 139.484,1.647 Z m 0.954,1.531 -0.422,0 c -0.086,-0.012 -0.168,-0.023 -0.25,-0.031 -0.086,-0.012 -0.157,-0.031 -0.219,-0.063 -0.055,-0.031 -0.102,-0.086 -0.141,-0.156 -0.031,-0.062 -0.047,-0.148 -0.047,-0.25 0,-0.156 0.036,-0.273 0.11,-0.344 0.07,-0.074 0.164,-0.109 0.281,-0.109 0.102,0 0.195,0.02 0.281,0.063 0.082,0.05 0.157,0.113 0.219,0.187 0.062,0.07 0.109,0.156 0.141,0.25 0.031,0.094 0.047,0.191 0.047,0.297 l 0,0.156 z" /><path
         id="path158"
         style="fill:#000000;fill-opacity:1;fill-rule:nonzero;stroke:none"
         d="m 144.684,2.631 c 0,-0.148 -0.032,-0.281 -0.094,-0.406 -0.063,-0.125 -0.156,-0.23 -0.281,-0.312 -0.125,-0.086 -0.278,-0.153 -0.454,-0.204 -0.167,-0.039 -0.367,-0.062 -0.593,-0.062 -0.2,0 -0.383,0.016 -0.547,0.047 -0.156,0.031 -0.297,0.078 -0.422,0.14 -0.125,0.071 -0.231,0.161 -0.313,0.266 -0.085,0.102 -0.14,0.238 -0.171,0.406 l 0.718,0.11 c 0.02,-0.094 0.051,-0.168 0.094,-0.219 0.039,-0.055 0.094,-0.094 0.156,-0.125 0.063,-0.031 0.129,-0.055 0.203,-0.063 0.082,-0.011 0.176,-0.015 0.282,-0.015 0.093,0 0.179,0.004 0.265,0.015 0.082,0.008 0.149,0.024 0.203,0.047 0.063,0.032 0.11,0.067 0.141,0.11 0.031,0.05 0.047,0.113 0.047,0.187 0,0.082 -0.027,0.145 -0.078,0.188 -0.043,0.05 -0.106,0.093 -0.188,0.125 -0.086,0.031 -0.183,0.054 -0.297,0.078 -0.105,0.031 -0.218,0.054 -0.343,0.078 -0.137,0.031 -0.274,0.066 -0.407,0.109 -0.125,0.039 -0.242,0.098 -0.343,0.172 -0.094,0.07 -0.172,0.16 -0.235,0.266 -0.062,0.101 -0.093,0.238 -0.093,0.406 0,0.156 0.023,0.289 0.078,0.406 0.062,0.114 0.148,0.211 0.265,0.297 0.114,0.082 0.254,0.145 0.422,0.188 0.164,0.05 0.352,0.078 0.563,0.078 0.176,0 0.336,-0.016 0.484,-0.047 0.145,-0.031 0.274,-0.086 0.391,-0.156 0.125,-0.075 0.222,-0.164 0.297,-0.266 0.082,-0.105 0.14,-0.234 0.171,-0.391 l -0.734,-0.078 c -0.012,0.082 -0.039,0.145 -0.078,0.188 -0.031,0.051 -0.074,0.094 -0.125,0.125 -0.055,0.031 -0.117,0.051 -0.188,0.062 -0.062,0.008 -0.136,0.016 -0.218,0.016 -0.188,0 -0.336,-0.027 -0.438,-0.078 -0.094,-0.055 -0.14,-0.137 -0.14,-0.25 0,-0.074 0.019,-0.133 0.062,-0.172 0.039,-0.043 0.098,-0.078 0.172,-0.109 0.07,-0.032 0.156,-0.059 0.25,-0.079 0.102,-0.023 0.211,-0.043 0.328,-0.062 0.156,-0.031 0.301,-0.07 0.438,-0.109 0.144,-0.043 0.269,-0.106 0.375,-0.188 0.113,-0.074 0.203,-0.168 0.265,-0.281 0.071,-0.117 0.11,-0.262 0.11,-0.438 z" /><path
         id="path160"
         style="fill:#000000;fill-opacity:1;fill-rule:nonzero;stroke:none"
         d="m 147.941,2.631 c 0,-0.148 -0.031,-0.281 -0.093,-0.406 -0.063,-0.125 -0.157,-0.23 -0.282,-0.312 -0.125,-0.086 -0.277,-0.153 -0.453,-0.204 -0.168,-0.039 -0.367,-0.062 -0.593,-0.062 -0.2,0 -0.383,0.016 -0.547,0.047 -0.157,0.031 -0.297,0.078 -0.422,0.14 -0.125,0.071 -0.231,0.161 -0.313,0.266 -0.086,0.102 -0.14,0.238 -0.172,0.406 l 0.719,0.11 c 0.02,-0.094 0.051,-0.168 0.094,-0.219 0.039,-0.055 0.094,-0.094 0.156,-0.125 0.063,-0.031 0.129,-0.055 0.203,-0.063 0.082,-0.011 0.176,-0.015 0.282,-0.015 0.093,0 0.179,0.004 0.265,0.015 0.082,0.008 0.149,0.024 0.203,0.047 0.063,0.032 0.11,0.067 0.141,0.11 0.031,0.05 0.047,0.113 0.047,0.187 0,0.082 -0.028,0.145 -0.078,0.188 -0.043,0.05 -0.106,0.093 -0.188,0.125 -0.086,0.031 -0.183,0.054 -0.297,0.078 -0.105,0.031 -0.218,0.054 -0.343,0.078 -0.137,0.031 -0.274,0.066 -0.407,0.109 -0.125,0.039 -0.242,0.098 -0.343,0.172 -0.094,0.07 -0.172,0.16 -0.235,0.266 -0.062,0.101 -0.094,0.238 -0.094,0.406 0,0.156 0.024,0.289 0.079,0.406 0.062,0.114 0.148,0.211 0.265,0.297 0.113,0.082 0.254,0.145 0.422,0.188 0.164,0.05 0.352,0.078 0.563,0.078 0.175,0 0.335,-0.016 0.484,-0.047 0.144,-0.031 0.273,-0.086 0.391,-0.156 0.125,-0.075 0.222,-0.164 0.296,-0.266 0.082,-0.105 0.141,-0.234 0.172,-0.391 l -0.734,-0.078 c -0.012,0.082 -0.039,0.145 -0.078,0.188 -0.031,0.051 -0.074,0.094 -0.125,0.125 -0.055,0.031 -0.117,0.051 -0.188,0.062 -0.062,0.008 -0.136,0.016 -0.218,0.016 -0.188,0 -0.336,-0.027 -0.438,-0.078 -0.094,-0.055 -0.141,-0.137 -0.141,-0.25 0,-0.074 0.02,-0.133 0.063,-0.172 0.039,-0.043 0.098,-0.078 0.172,-0.109 0.07,-0.032 0.156,-0.059 0.25,-0.079 0.101,-0.023 0.211,-0.043 0.328,-0.062 0.156,-0.031 0.301,-0.07 0.437,-0.109 0.145,-0.043 0.27,-0.106 0.375,-0.188 0.114,-0.074 0.204,-0.168 0.266,-0.281 0.07,-0.117 0.109,-0.262 0.109,-0.438 z" /><path
         id="path162"
         style="fill:#000000;fill-opacity:1;fill-rule:nonzero;stroke:none"
         d="m 149.828,1.647 c -0.23,0 -0.437,0.031 -0.625,0.094 -0.18,0.07 -0.336,0.175 -0.469,0.312 -0.125,0.145 -0.226,0.32 -0.296,0.531 -0.063,0.207 -0.094,0.446 -0.094,0.719 0,0.301 0.039,0.555 0.125,0.766 0.082,0.207 0.191,0.375 0.328,0.5 0.133,0.133 0.289,0.226 0.469,0.281 0.187,0.063 0.379,0.094 0.578,0.094 0.25,0 0.461,-0.047 0.64,-0.141 0.176,-0.086 0.317,-0.203 0.422,-0.359 0.114,-0.156 0.196,-0.344 0.25,-0.563 0.051,-0.218 0.078,-0.461 0.078,-0.718 l 0,-0.032 -2.031,0 c 0,-0.125 0.008,-0.246 0.031,-0.359 0.032,-0.117 0.071,-0.215 0.125,-0.297 0.051,-0.086 0.118,-0.152 0.203,-0.203 0.083,-0.043 0.188,-0.063 0.313,-0.063 0.133,0 0.25,0.024 0.344,0.079 0.093,0.062 0.16,0.16 0.203,0.296 l 0.766,-0.078 C 151.156,2.42 151.109,2.327 151.047,2.225 150.984,2.12 150.898,2.026 150.797,1.944 150.691,1.858 150.555,1.788 150.391,1.725 150.234,1.674 150.047,1.647 149.828,1.647 Z m 0,2.766 c -0.086,0 -0.164,-0.016 -0.234,-0.047 -0.074,-0.024 -0.141,-0.063 -0.203,-0.125 -0.055,-0.063 -0.094,-0.149 -0.125,-0.25 -0.032,-0.094 -0.047,-0.211 -0.047,-0.344 l 1.219,0 c -0.012,0.258 -0.075,0.453 -0.188,0.578 -0.105,0.125 -0.246,0.188 -0.422,0.188 z" /><path
         id="path164"
         style="fill:#000000;fill-opacity:1;fill-rule:nonzero;stroke:none"
         d="m 151.602,3.616 1.531,0 0,-0.703 -1.531,0 0,0.703 z" /><path
         id="path166"
         style="fill:#000000;fill-opacity:1;fill-rule:nonzero;stroke:none"
         d="m 156.746,3.303 c 0,-0.242 -0.027,-0.465 -0.078,-0.672 -0.043,-0.199 -0.117,-0.371 -0.219,-0.515 -0.094,-0.149 -0.219,-0.262 -0.375,-0.344 -0.156,-0.082 -0.34,-0.125 -0.547,-0.125 -0.093,0 -0.187,0.012 -0.281,0.031 -0.094,0.024 -0.184,0.051 -0.266,0.094 -0.085,0.051 -0.164,0.113 -0.234,0.187 -0.074,0.071 -0.133,0.161 -0.172,0.266 l -0.015,0 c 0,-0.043 0,-0.09 0,-0.141 0,-0.054 -0.008,-0.105 -0.016,-0.156 0,-0.055 -0.008,-0.101 -0.016,-0.14 0,-0.032 0,-0.059 0,-0.079 l -0.812,0 c 0.008,0.071 0.015,0.172 0.015,0.297 0.008,0.125 0.016,0.266 0.016,0.422 l 0,3.625 0.828,0 0,-1.203 c 0,-0.062 -0.008,-0.125 -0.015,-0.187 0,-0.063 0,-0.122 0,-0.172 0,-0.055 0,-0.106 0,-0.157 l 0.015,0 c 0.094,0.219 0.223,0.375 0.391,0.469 0.176,0.094 0.379,0.141 0.609,0.141 0.207,0 0.383,-0.043 0.531,-0.125 0.145,-0.086 0.266,-0.199 0.36,-0.344 0.094,-0.148 0.16,-0.32 0.203,-0.516 0.051,-0.199 0.078,-0.418 0.078,-0.656 z m -0.859,0 c 0,0.363 -0.055,0.629 -0.157,0.797 -0.105,0.176 -0.273,0.266 -0.5,0.266 -0.085,0 -0.168,-0.016 -0.25,-0.047 -0.074,-0.031 -0.148,-0.09 -0.218,-0.172 -0.063,-0.086 -0.117,-0.199 -0.157,-0.344 -0.031,-0.137 -0.046,-0.308 -0.046,-0.515 0,-0.211 0.015,-0.387 0.046,-0.532 0.04,-0.136 0.094,-0.246 0.157,-0.328 0.062,-0.074 0.133,-0.133 0.218,-0.172 0.082,-0.031 0.165,-0.047 0.25,-0.047 0.208,0 0.368,0.082 0.485,0.25 0.113,0.176 0.172,0.457 0.172,0.844 z" /><path
         id="path168"
         style="fill:#000000;fill-opacity:1;fill-rule:nonzero;stroke:none"
         d="m 158.059,1.647 c -0.157,0 -0.297,0.023 -0.422,0.062 -0.117,0.039 -0.215,0.102 -0.297,0.188 -0.086,0.082 -0.152,0.18 -0.203,0.297 -0.043,0.125 -0.063,0.258 -0.063,0.406 0,0.188 0.031,0.344 0.094,0.469 0.07,0.133 0.164,0.238 0.281,0.312 0.113,0.082 0.242,0.141 0.391,0.172 0.156,0.039 0.316,0.063 0.484,0.063 l 0.688,0.015 0,0.157 c 0,0.113 -0.012,0.207 -0.032,0.281 -0.023,0.082 -0.054,0.148 -0.093,0.203 -0.032,0.051 -0.078,0.086 -0.141,0.109 -0.055,0.02 -0.121,0.032 -0.203,0.032 -0.063,0 -0.121,-0.012 -0.172,-0.032 -0.055,-0.011 -0.101,-0.039 -0.141,-0.078 -0.042,-0.031 -0.078,-0.078 -0.109,-0.14 -0.023,-0.055 -0.039,-0.122 -0.047,-0.204 l -0.859,0.032 c 0.031,0.144 0.078,0.273 0.14,0.39 0.063,0.114 0.145,0.211 0.25,0.297 0.114,0.082 0.25,0.145 0.407,0.188 0.164,0.05 0.359,0.078 0.578,0.078 0.195,0 0.367,-0.028 0.515,-0.078 0.157,-0.055 0.286,-0.125 0.391,-0.219 0.113,-0.094 0.195,-0.215 0.25,-0.359 0.063,-0.137 0.094,-0.297 0.094,-0.485 l 0,-1.156 c 0,-0.074 0,-0.141 0,-0.203 0.008,-0.055 0.023,-0.102 0.047,-0.141 0.019,-0.043 0.047,-0.074 0.078,-0.094 0.031,-0.023 0.07,-0.031 0.125,-0.031 0.062,0 0.125,0.004 0.187,0.016 l 0,-0.438 c -0.054,-0.011 -0.101,-0.023 -0.14,-0.031 -0.032,-0.012 -0.071,-0.02 -0.11,-0.031 -0.043,-0.008 -0.086,-0.016 -0.125,-0.016 -0.043,0 -0.093,0 -0.156,0 -0.211,0 -0.367,0.047 -0.469,0.141 -0.093,0.101 -0.148,0.254 -0.156,0.453 l -0.031,0 C 158.984,2.073 158.844,1.916 158.668,1.803 158.5,1.702 158.297,1.647 158.059,1.647 Z m 0.953,1.531 -0.422,0 c -0.086,-0.012 -0.168,-0.023 -0.25,-0.031 -0.086,-0.012 -0.156,-0.031 -0.219,-0.063 -0.055,-0.031 -0.101,-0.086 -0.141,-0.156 -0.031,-0.062 -0.046,-0.148 -0.046,-0.25 0,-0.156 0.035,-0.273 0.109,-0.344 0.07,-0.074 0.164,-0.109 0.281,-0.109 0.102,0 0.196,0.02 0.281,0.063 0.083,0.05 0.157,0.113 0.219,0.187 0.063,0.07 0.11,0.156 0.141,0.25 0.031,0.094 0.047,0.191 0.047,0.297 l 0,0.156 z" /><path
         id="path170"
         style="fill:#000000;fill-opacity:1;fill-rule:nonzero;stroke:none"
         d="m 162.633,1.709 0,1.782 c 0,0.125 -0.012,0.234 -0.031,0.328 -0.012,0.101 -0.043,0.191 -0.094,0.265 -0.043,0.071 -0.102,0.129 -0.172,0.172 -0.074,0.039 -0.164,0.063 -0.266,0.063 -0.093,0 -0.183,-0.024 -0.265,-0.063 -0.086,-0.043 -0.157,-0.105 -0.219,-0.187 -0.055,-0.086 -0.094,-0.184 -0.125,-0.297 -0.031,-0.106 -0.047,-0.227 -0.047,-0.359 l 0,-1.704 -0.828,0 0,2.469 c 0,0.063 0,0.129 0,0.203 0,0.071 -0.008,0.141 -0.016,0.203 0,0.071 0,0.129 0,0.172 0,0.051 -0.008,0.094 -0.015,0.125 l 0.797,0 c 0,-0.023 0,-0.058 0,-0.109 0.007,-0.055 0.015,-0.109 0.015,-0.172 0,-0.062 0,-0.125 0,-0.187 0.008,-0.063 0.016,-0.118 0.016,-0.157 l 0.015,0 c 0.102,0.239 0.239,0.41 0.407,0.516 0.175,0.113 0.379,0.172 0.609,0.172 0.188,0 0.348,-0.031 0.484,-0.094 0.133,-0.062 0.243,-0.152 0.329,-0.266 0.082,-0.105 0.14,-0.234 0.171,-0.39 0.04,-0.149 0.063,-0.305 0.063,-0.469 l 0,-2.016 -0.828,0 z" /><path
         id="path172"
         style="fill:#000000;fill-opacity:1;fill-rule:nonzero;stroke:none"
         d="m 166.211,1.709 c 0,0.02 -0.008,0.047 -0.016,0.079 0,0.039 -0.007,0.085 -0.015,0.14 0,0.051 -0.008,0.102 -0.016,0.156 0,0.051 0,0.098 0,0.141 -0.094,-0.211 -0.23,-0.359 -0.406,-0.453 -0.168,-0.082 -0.371,-0.125 -0.61,-0.125 -0.199,0 -0.371,0.043 -0.515,0.125 -0.149,0.082 -0.266,0.195 -0.36,0.344 -0.093,0.144 -0.168,0.316 -0.218,0.515 -0.043,0.207 -0.063,0.426 -0.063,0.657 0,0.238 0.02,0.457 0.063,0.656 0.05,0.207 0.125,0.383 0.218,0.531 0.102,0.145 0.235,0.258 0.391,0.344 0.156,0.082 0.336,0.125 0.547,0.125 0.101,0 0.203,-0.012 0.297,-0.031 0.094,-0.024 0.18,-0.059 0.265,-0.11 0.082,-0.043 0.157,-0.101 0.219,-0.172 0.07,-0.074 0.129,-0.156 0.172,-0.25 0,0.02 0,0.047 0,0.078 0,0.039 0,0.082 0,0.125 0,0.051 0,0.102 0,0.157 0,0.062 0,0.113 0,0.156 l 0,1.156 0.828,0 0,-3.656 c 0,-0.156 0,-0.297 0,-0.422 0.008,-0.117 0.016,-0.203 0.016,-0.266 l -0.797,0 z m -0.031,1.61 c 0,0.207 -0.024,0.379 -0.063,0.515 -0.043,0.133 -0.094,0.243 -0.156,0.329 -0.063,0.082 -0.137,0.14 -0.219,0.171 -0.074,0.032 -0.152,0.047 -0.234,0.047 -0.117,0 -0.215,-0.023 -0.297,-0.062 -0.074,-0.043 -0.141,-0.11 -0.203,-0.203 -0.055,-0.086 -0.094,-0.196 -0.125,-0.328 -0.024,-0.137 -0.031,-0.305 -0.031,-0.5 0,-0.719 0.21,-1.079 0.64,-1.079 0.082,0 0.164,0.016 0.25,0.047 0.082,0.039 0.156,0.102 0.219,0.188 0.062,0.082 0.113,0.191 0.156,0.328 0.039,0.144 0.063,0.328 0.063,0.547 z" /><path
         id="path174"
         style="fill:#000000;fill-opacity:1;fill-rule:nonzero;stroke:none"
         d="m 169.043,1.647 c -0.231,0 -0.438,0.031 -0.625,0.094 -0.18,0.07 -0.336,0.175 -0.469,0.312 -0.125,0.145 -0.226,0.32 -0.297,0.531 -0.062,0.207 -0.093,0.446 -0.093,0.719 0,0.301 0.039,0.555 0.125,0.766 0.082,0.207 0.191,0.375 0.328,0.5 0.133,0.133 0.289,0.226 0.468,0.281 0.188,0.063 0.379,0.094 0.579,0.094 0.25,0 0.461,-0.047 0.64,-0.141 0.176,-0.086 0.317,-0.203 0.422,-0.359 0.113,-0.156 0.195,-0.344 0.25,-0.563 0.051,-0.218 0.078,-0.461 0.078,-0.718 l 0,-0.032 -2.031,0 c 0,-0.125 0.008,-0.246 0.031,-0.359 0.031,-0.117 0.071,-0.215 0.125,-0.297 0.051,-0.086 0.117,-0.152 0.203,-0.203 0.082,-0.043 0.188,-0.063 0.313,-0.063 0.133,0 0.25,0.024 0.344,0.079 0.093,0.062 0.16,0.16 0.203,0.296 l 0.765,-0.078 C 170.371,2.42 170.324,2.327 170.262,2.225 170.199,2.12 170.113,2.026 170.012,1.944 169.906,1.858 169.77,1.788 169.605,1.725 169.449,1.674 169.262,1.647 169.043,1.647 Z m 0,2.766 c -0.086,0 -0.164,-0.016 -0.234,-0.047 -0.075,-0.024 -0.141,-0.063 -0.204,-0.125 -0.054,-0.063 -0.093,-0.149 -0.125,-0.25 -0.031,-0.094 -0.046,-0.211 -0.046,-0.344 l 1.218,0 c -0.011,0.258 -0.074,0.453 -0.187,0.578 -0.106,0.125 -0.246,0.188 -0.422,0.188 z" /></g></g></svg>