<?xml version="1.0" encoding="UTF-8" standalone="no"?>
<svg
   xmlns:dc="http://purl.org/dc/elements/1.1/"
   xmlns:cc="http://creativecommons.org/ns#"
   xmlns:rdf="http://www.w3.org/1999/02/22-rdf-syntax-ns#"
   xmlns:svg="http://www.w3.org/2000/svg"
   xmlns="http://www.w3.org/2000/svg"
   viewBox="0 0 240.7625 49.575001"
   height="49.575001"
   width="240.7625"
   xml:space="preserve"
   version="1.1"
   id="svg2"><metadata
     id="metadata8"><rdf:RDF><cc:Work
         rdf:about=""><dc:format>image/svg+xml</dc:format><dc:type
           rdf:resource="http://purl.org/dc/dcmitype/StillImage" /></cc:Work></rdf:RDF></metadata><defs
     id="defs6" /><g
     transform="matrix(1.25,0,0,-1.25,0,49.575)"
     id="g10"><g
       id="g12"><path
         id="path14"
         style="fill:#000000;fill-opacity:1;fill-rule:evenodd;stroke:none"
         d="m 64.48,39.082 -0.5,-0.5 -62.902,0 -1,1 65,0 -0.598,-0.5 z" /><path
         id="path16"
         style="fill:none;stroke:#000000;stroke-width:0.1;stroke-linecap:butt;stroke-linejoin:miter;stroke-miterlimit:10;stroke-dasharray:none;stroke-opacity:1"
         d="m 64.48,39.082 128,0" /><path
         id="path18"
         style="fill:#000000;fill-opacity:1;fill-rule:evenodd;stroke:none"
         d="m 64.48,26.18 -0.5,-0.5 -62.902,0 -0.5,0.5 0.5,0.5 62.902,0 0.5,-0.5 z" /><path
         id="path20"
         style="fill:none;stroke:#000000;stroke-width:0.1;stroke-linecap:butt;stroke-linejoin:miter;stroke-miterlimit:10;stroke-dasharray:none;stroke-opacity:1"
         d="m 64.48,26.18 128,0" /><path
         id="path22"
         style="fill:#000000;fill-opacity:1;fill-rule:evenodd;stroke:none"
         d="m 64.48,13.379 -0.5,-0.5 -62.902,0 -0.5,0.5 0.5,0.5 62.902,0 0.5,-0.5 z" /><path
         id="path24"
         style="fill:none;stroke:#000000;stroke-width:0.1;stroke-linecap:butt;stroke-linejoin:miter;stroke-miterlimit:10;stroke-dasharray:none;stroke-opacity:1"
         d="m 64.48,13.379 128,0" /><path
         id="path26"
         style="fill:#000000;fill-opacity:1;fill-rule:evenodd;stroke:none"
         d="m 64.48,0.582 0.598,-0.5 -65,0 1,1 62.902,0 0.5,-0.5 z" /><path
         id="path28"
         style="fill:none;stroke:#000000;stroke-width:0.1;stroke-linecap:butt;stroke-linejoin:miter;stroke-miterlimit:10;stroke-dasharray:none;stroke-opacity:1"
         d="m 64.48,0.582 128,0" /><path
         id="path30"
         style="fill:#000000;fill-opacity:1;fill-rule:evenodd;stroke:none"
         d="m 0.578,39.082 0.5,-0.5 0,-37.5 -1,-1 0,39.5 0.5,-0.5 z" /><path
         id="path32"
         style="fill:#000000;fill-opacity:1;fill-rule:evenodd;stroke:none"
         d="m 64.48,39.082 0.598,0 0,-38.402 -0.598,-0.098 -0.5,0.5 0,37.5 0.5,0.5 z" /><path
         id="path34"
         style="fill:none;stroke:#000000;stroke-width:0.1;stroke-linecap:butt;stroke-linejoin:miter;stroke-miterlimit:10;stroke-dasharray:none;stroke-opacity:1"
         d="m 128.48,0.582 0,38.5" /><path
         id="path36"
         style="fill:none;stroke:#000000;stroke-width:0.1;stroke-linecap:butt;stroke-linejoin:miter;stroke-miterlimit:10;stroke-dasharray:none;stroke-opacity:1"
         d="m 192.48,0.582 0,38.5" /><path
         id="path38"
         style="fill:#000000;fill-opacity:1;fill-rule:nonzero;stroke:none"
         d="m 66.344,29.281 0,0.75 1.75,0 0,5.297 -1.547,-1.109 0,0.828 1.625,1.109 0.812,0 0,-6.125 1.672,0 0,-0.75 -4.312,0 z" /><path
         id="path40"
         style="fill:#000000;fill-opacity:1;fill-rule:nonzero;stroke:none"
         d="m 76.344,32.719 c 0,-0.657 -0.063,-1.215 -0.188,-1.672 -0.125,-0.45 -0.297,-0.813 -0.515,-1.094 -0.219,-0.273 -0.477,-0.469 -0.766,-0.594 -0.293,-0.113 -0.605,-0.172 -0.937,-0.172 -0.336,0 -0.649,0.059 -0.938,0.172 -0.293,0.125 -0.547,0.321 -0.766,0.594 -0.211,0.281 -0.375,0.644 -0.5,1.094 -0.117,0.457 -0.172,1.015 -0.172,1.672 0,0.695 0.055,1.269 0.172,1.718 0.125,0.457 0.297,0.821 0.516,1.094 0.219,0.27 0.473,0.457 0.766,0.563 0.289,0.113 0.609,0.171 0.953,0.171 0.332,0 0.64,-0.058 0.922,-0.171 0.289,-0.106 0.539,-0.293 0.75,-0.563 0.218,-0.273 0.39,-0.637 0.515,-1.094 0.125,-0.449 0.188,-1.023 0.188,-1.718 z m -0.891,0 c 0,0.55 -0.039,1.007 -0.109,1.375 -0.063,0.363 -0.156,0.648 -0.282,0.859 -0.124,0.219 -0.281,0.367 -0.468,0.453 -0.18,0.094 -0.387,0.141 -0.625,0.141 -0.25,0 -0.469,-0.047 -0.657,-0.141 -0.187,-0.086 -0.351,-0.234 -0.484,-0.453 -0.125,-0.219 -0.219,-0.512 -0.281,-0.875 -0.063,-0.356 -0.094,-0.809 -0.094,-1.359 0,-0.524 0.031,-0.965 0.094,-1.329 0.07,-0.367 0.172,-0.656 0.297,-0.875 0.125,-0.218 0.281,-0.375 0.468,-0.468 0.188,-0.094 0.399,-0.141 0.641,-0.141 0.227,0 0.438,0.047 0.625,0.141 0.188,0.093 0.344,0.25 0.469,0.468 0.125,0.219 0.223,0.508 0.297,0.875 0.07,0.364 0.109,0.805 0.109,1.329 z" /><path
         id="path42"
         style="fill:#000000;fill-opacity:1;fill-rule:nonzero;stroke:none"
         d="m 134.574,32.859 c 0,-0.617 -0.062,-1.152 -0.187,-1.609 -0.117,-0.461 -0.282,-0.844 -0.5,-1.156 -0.211,-0.305 -0.469,-0.532 -0.782,-0.688 -0.304,-0.144 -0.648,-0.219 -1.031,-0.219 -0.262,0 -0.5,0.028 -0.719,0.078 -0.21,0.051 -0.398,0.133 -0.562,0.25 -0.168,0.114 -0.309,0.258 -0.422,0.438 -0.117,0.187 -0.211,0.41 -0.281,0.672 l 0.844,0.125 c 0.093,-0.293 0.234,-0.512 0.421,-0.656 0.196,-0.137 0.442,-0.204 0.735,-0.204 0.238,0 0.457,0.055 0.656,0.172 0.195,0.114 0.363,0.282 0.5,0.5 0.133,0.227 0.238,0.508 0.313,0.844 0.082,0.344 0.129,0.742 0.14,1.203 -0.074,-0.156 -0.168,-0.297 -0.281,-0.422 -0.117,-0.117 -0.25,-0.215 -0.406,-0.297 -0.149,-0.085 -0.309,-0.152 -0.485,-0.203 -0.179,-0.043 -0.355,-0.062 -0.531,-0.062 -0.312,0 -0.601,0.055 -0.859,0.172 -0.25,0.113 -0.465,0.269 -0.641,0.468 -0.18,0.207 -0.312,0.454 -0.406,0.735 -0.094,0.281 -0.141,0.597 -0.141,0.953 0,0.352 0.051,0.672 0.156,0.953 0.102,0.289 0.25,0.535 0.438,0.734 0.195,0.196 0.437,0.348 0.719,0.454 0.289,0.113 0.617,0.171 0.984,0.171 0.758,0 1.336,-0.289 1.734,-0.859 0.395,-0.562 0.594,-1.414 0.594,-2.547 z m -0.969,0.844 c 0,0.258 -0.031,0.5 -0.093,0.719 -0.055,0.226 -0.141,0.425 -0.266,0.593 -0.117,0.165 -0.262,0.297 -0.437,0.391 -0.168,0.094 -0.368,0.141 -0.594,0.141 -0.219,0 -0.414,-0.039 -0.578,-0.11 -0.168,-0.074 -0.313,-0.183 -0.438,-0.328 -0.117,-0.137 -0.203,-0.304 -0.265,-0.5 -0.063,-0.199 -0.094,-0.418 -0.094,-0.656 0,-0.231 0.023,-0.449 0.078,-0.656 0.062,-0.2 0.148,-0.371 0.266,-0.516 0.113,-0.137 0.254,-0.246 0.421,-0.328 0.176,-0.086 0.375,-0.125 0.594,-0.125 0.164,0 0.332,0.023 0.5,0.078 0.164,0.051 0.317,0.133 0.453,0.25 0.133,0.113 0.243,0.258 0.328,0.438 0.082,0.175 0.125,0.378 0.125,0.609 z" /><path
         id="path44"
         style="fill:#000000;fill-opacity:1;fill-rule:nonzero;stroke:none"
         d="m 140.195,31.531 c 0,-0.344 -0.054,-0.664 -0.156,-0.953 -0.094,-0.281 -0.234,-0.527 -0.422,-0.734 -0.187,-0.211 -0.422,-0.372 -0.703,-0.485 -0.273,-0.113 -0.586,-0.172 -0.937,-0.172 -0.407,0 -0.762,0.075 -1.063,0.219 -0.293,0.156 -0.539,0.375 -0.734,0.656 -0.2,0.289 -0.352,0.645 -0.453,1.063 -0.094,0.426 -0.141,0.906 -0.141,1.437 0,0.614 0.051,1.149 0.156,1.61 0.113,0.468 0.274,0.851 0.485,1.156 0.218,0.312 0.476,0.547 0.781,0.703 0.301,0.156 0.644,0.234 1.031,0.234 0.238,0 0.457,-0.027 0.656,-0.078 0.207,-0.043 0.395,-0.121 0.563,-0.234 0.164,-0.106 0.312,-0.25 0.437,-0.438 0.125,-0.179 0.227,-0.398 0.313,-0.656 l -0.844,-0.14 c -0.094,0.289 -0.242,0.5 -0.437,0.625 -0.2,0.132 -0.434,0.203 -0.704,0.203 -0.242,0 -0.461,-0.059 -0.656,-0.172 -0.187,-0.117 -0.351,-0.289 -0.484,-0.516 -0.137,-0.219 -0.246,-0.5 -0.328,-0.844 -0.075,-0.343 -0.11,-0.742 -0.11,-1.187 0.164,0.289 0.391,0.516 0.672,0.672 0.289,0.156 0.625,0.234 1,0.234 0.313,0 0.594,-0.054 0.844,-0.156 0.258,-0.106 0.477,-0.25 0.656,-0.438 0.188,-0.187 0.328,-0.418 0.422,-0.687 0.102,-0.273 0.156,-0.578 0.156,-0.922 z m -0.89,-0.031 c 0,0.226 -0.032,0.437 -0.094,0.625 -0.063,0.195 -0.152,0.363 -0.266,0.5 -0.117,0.133 -0.261,0.238 -0.437,0.312 -0.168,0.071 -0.367,0.11 -0.594,0.11 -0.156,0 -0.32,-0.028 -0.484,-0.078 -0.168,-0.043 -0.321,-0.118 -0.453,-0.219 -0.125,-0.106 -0.231,-0.246 -0.313,-0.422 -0.086,-0.168 -0.125,-0.375 -0.125,-0.625 0,-0.25 0.031,-0.492 0.094,-0.719 0.07,-0.219 0.164,-0.414 0.281,-0.578 0.125,-0.156 0.27,-0.281 0.438,-0.375 0.175,-0.094 0.375,-0.141 0.593,-0.141 0.207,0 0.395,0.036 0.563,0.11 0.164,0.07 0.304,0.176 0.422,0.312 0.125,0.145 0.218,0.317 0.281,0.516 0.062,0.195 0.094,0.422 0.094,0.672 z" /><path
         id="path46"
         style="fill:#000000;fill-opacity:1;fill-rule:nonzero;stroke:none"
         d="m 8.953,16.48 -1.109,0 -1.188,4.375 C 6.613,20.98 6.57,21.125 6.531,21.293 6.488,21.457 6.453,21.621 6.422,21.777 6.391,21.953 6.352,22.137 6.312,22.324 6.27,22.137 6.227,21.949 6.188,21.762 6.156,21.605 6.117,21.441 6.078,21.277 6.035,21.121 6,20.98 5.969,20.855 l -1.203,-4.375 -1.11,0 -2.031,6.875 0.969,0 1.234,-4.359 c 0.051,-0.211 0.102,-0.418 0.156,-0.625 0.051,-0.199 0.098,-0.375 0.141,-0.531 0.039,-0.188 0.078,-0.368 0.109,-0.532 0.051,0.219 0.102,0.438 0.157,0.657 0.019,0.093 0.039,0.187 0.062,0.281 0.02,0.101 0.039,0.203 0.063,0.297 0.031,0.101 0.054,0.195 0.078,0.281 0.031,0.094 0.054,0.176 0.078,0.25 l 1.187,4.281 0.891,0 1.203,-4.281 c 0.02,-0.074 0.039,-0.156 0.063,-0.25 0.019,-0.086 0.039,-0.18 0.062,-0.281 0.031,-0.094 0.055,-0.196 0.078,-0.297 0.02,-0.094 0.047,-0.188 0.078,-0.281 0.051,-0.219 0.098,-0.438 0.141,-0.657 0.008,0 0.023,0.051 0.047,0.157 0.031,0.113 0.062,0.254 0.094,0.422 0.039,0.175 0.082,0.359 0.125,0.546 0.05,0.196 0.101,0.383 0.156,0.563 l 1.219,4.359 0.968,0 -2.031,-6.875 z" /><path
         id="path48"
         style="fill:#000000;fill-opacity:1;fill-rule:nonzero;stroke:none"
         d="m 14.395,19.074 c 0,0.457 0.031,0.891 0.093,1.297 0.071,0.414 0.18,0.812 0.328,1.187 0.145,0.383 0.332,0.754 0.563,1.11 0.226,0.363 0.5,0.719 0.812,1.062 l 0.844,0 c -0.305,-0.343 -0.57,-0.699 -0.797,-1.062 -0.218,-0.356 -0.402,-0.727 -0.547,-1.11 -0.136,-0.386 -0.242,-0.789 -0.312,-1.203 -0.074,-0.406 -0.109,-0.836 -0.109,-1.281 0,-0.461 0.035,-0.898 0.109,-1.312 0.07,-0.407 0.176,-0.805 0.312,-1.188 0.145,-0.383 0.329,-0.754 0.547,-1.109 0.227,-0.364 0.492,-0.719 0.797,-1.063 l -0.844,0 c -0.312,0.344 -0.586,0.699 -0.812,1.063 -0.231,0.355 -0.418,0.718 -0.563,1.093 -0.148,0.383 -0.257,0.782 -0.328,1.188 -0.062,0.414 -0.093,0.851 -0.093,1.312 l 0,0.016 z" /><path
         id="path50"
         style="fill:#000000;fill-opacity:1;fill-rule:nonzero;stroke:none"
         d="m 20.82,16.48 0,3.344 c 0,0.258 -0.015,0.473 -0.047,0.641 -0.031,0.175 -0.089,0.316 -0.171,0.422 -0.075,0.113 -0.172,0.191 -0.297,0.234 -0.125,0.039 -0.278,0.062 -0.453,0.062 -0.188,0 -0.356,-0.039 -0.5,-0.109 C 19.203,21 19.074,20.89 18.961,20.746 18.855,20.609 18.773,20.437 18.711,20.23 18.656,20.031 18.633,19.801 18.633,19.543 l 0,-3.063 -0.875,0 0,4.157 c 0,0.113 0,0.226 0,0.343 0,0.125 -0.008,0.239 -0.016,0.344 0,0.113 0,0.207 0,0.281 0,0.082 0,0.133 0,0.157 l 0.828,0 c 0,-0.012 0,-0.055 0,-0.125 0.008,-0.075 0.016,-0.157 0.016,-0.25 0.008,-0.094 0.016,-0.188 0.016,-0.282 0,-0.093 0,-0.179 0,-0.25 l 0.015,0 c 0.082,0.157 0.164,0.297 0.25,0.422 0.094,0.125 0.203,0.227 0.328,0.313 0.125,0.082 0.266,0.144 0.422,0.187 0.156,0.051 0.336,0.078 0.547,0.078 0.395,0 0.707,-0.078 0.938,-0.234 0.238,-0.156 0.406,-0.414 0.5,-0.766 l 0.015,0 c 0.071,0.157 0.156,0.297 0.25,0.422 0.102,0.125 0.219,0.227 0.344,0.313 0.133,0.082 0.281,0.144 0.437,0.187 0.164,0.051 0.352,0.078 0.563,0.078 0.269,0 0.5,-0.039 0.687,-0.109 0.196,-0.063 0.36,-0.172 0.485,-0.328 0.125,-0.149 0.211,-0.34 0.265,-0.578 0.063,-0.231 0.094,-0.512 0.094,-0.844 l 0,-3.516 -0.875,0 0,3.344 c 0,0.258 -0.015,0.473 -0.047,0.641 -0.031,0.175 -0.09,0.316 -0.172,0.422 -0.074,0.113 -0.171,0.191 -0.296,0.234 -0.118,0.039 -0.266,0.062 -0.454,0.062 -0.179,0 -0.343,-0.039 -0.5,-0.109 -0.148,-0.062 -0.273,-0.168 -0.375,-0.312 -0.105,-0.137 -0.187,-0.309 -0.25,-0.516 -0.054,-0.199 -0.078,-0.434 -0.078,-0.703 l 0,-3.063 -0.875,0 z" /><path
         id="path52"
         style="fill:#000000;fill-opacity:1;fill-rule:nonzero;stroke:none"
         d="m 29.121,16.48 0,3.344 c 0,0.258 -0.016,0.473 -0.047,0.641 -0.031,0.175 -0.09,0.316 -0.172,0.422 -0.074,0.113 -0.172,0.191 -0.297,0.234 -0.125,0.039 -0.277,0.062 -0.453,0.062 -0.187,0 -0.355,-0.039 -0.5,-0.109 C 27.504,21 27.375,20.89 27.262,20.746 27.156,20.609 27.074,20.437 27.012,20.23 26.957,20.031 26.934,19.801 26.934,19.543 l 0,-3.063 -0.875,0 0,4.157 c 0,0.113 0,0.226 0,0.343 0,0.125 -0.008,0.239 -0.016,0.344 0,0.113 0,0.207 0,0.281 0,0.082 0,0.133 0,0.157 l 0.828,0 c 0,-0.012 0,-0.055 0,-0.125 0.008,-0.075 0.016,-0.157 0.016,-0.25 0.008,-0.094 0.015,-0.188 0.015,-0.282 0,-0.093 0,-0.179 0,-0.25 l 0.016,0 c 0.082,0.157 0.164,0.297 0.25,0.422 0.094,0.125 0.203,0.227 0.328,0.313 0.125,0.082 0.266,0.144 0.422,0.187 0.156,0.051 0.336,0.078 0.547,0.078 0.394,0 0.707,-0.078 0.937,-0.234 0.239,-0.156 0.407,-0.414 0.5,-0.766 l 0.016,0 c 0.07,0.157 0.156,0.297 0.25,0.422 0.102,0.125 0.219,0.227 0.344,0.313 0.133,0.082 0.281,0.144 0.437,0.187 0.164,0.051 0.352,0.078 0.563,0.078 0.269,0 0.5,-0.039 0.687,-0.109 0.196,-0.063 0.36,-0.172 0.485,-0.328 0.125,-0.149 0.211,-0.34 0.265,-0.578 0.063,-0.231 0.094,-0.512 0.094,-0.844 l 0,-3.516 -0.875,0 0,3.344 c 0,0.258 -0.016,0.473 -0.047,0.641 -0.031,0.175 -0.09,0.316 -0.172,0.422 -0.074,0.113 -0.172,0.191 -0.297,0.234 -0.117,0.039 -0.265,0.062 -0.453,0.062 -0.179,0 -0.344,-0.039 -0.5,-0.109 -0.148,-0.062 -0.273,-0.168 -0.375,-0.312 -0.105,-0.137 -0.187,-0.309 -0.25,-0.516 -0.054,-0.199 -0.078,-0.434 -0.078,-0.703 l 0,-3.063 -0.875,0 z" /><path
         id="path54"
         style="fill:#000000;fill-opacity:1;fill-rule:nonzero;stroke:none"
         d="m 36.375,19.058 c 0,-0.461 -0.039,-0.898 -0.109,-1.312 -0.063,-0.406 -0.168,-0.805 -0.313,-1.188 -0.148,-0.375 -0.336,-0.738 -0.562,-1.093 -0.231,-0.364 -0.5,-0.719 -0.813,-1.063 l -0.844,0 c 0.301,0.344 0.563,0.699 0.782,1.063 0.226,0.355 0.41,0.726 0.546,1.109 0.145,0.383 0.254,0.781 0.329,1.188 0.07,0.414 0.109,0.851 0.109,1.312 0,0.445 -0.039,0.875 -0.109,1.281 -0.075,0.414 -0.184,0.817 -0.329,1.203 -0.136,0.383 -0.32,0.754 -0.546,1.11 -0.219,0.363 -0.481,0.719 -0.782,1.062 l 0.844,0 c 0.313,-0.343 0.582,-0.699 0.813,-1.062 0.226,-0.356 0.414,-0.727 0.562,-1.11 0.145,-0.375 0.25,-0.773 0.313,-1.187 0.07,-0.406 0.109,-0.84 0.109,-1.297 l 0,-0.016 z" /><path
         id="path56"
         style="fill:#000000;fill-opacity:1;fill-rule:nonzero;stroke:none"
         d="m 66.078,16.48 0,0.625 c 0.164,0.375 0.367,0.707 0.61,1 0.238,0.289 0.488,0.555 0.75,0.797 0.269,0.238 0.531,0.457 0.781,0.656 0.258,0.196 0.492,0.395 0.703,0.594 0.207,0.207 0.375,0.422 0.5,0.641 0.133,0.226 0.203,0.476 0.203,0.75 0,0.195 -0.031,0.367 -0.094,0.515 -0.054,0.157 -0.136,0.282 -0.25,0.375 -0.105,0.102 -0.234,0.18 -0.39,0.235 -0.157,0.051 -0.329,0.078 -0.516,0.078 -0.18,0 -0.344,-0.027 -0.5,-0.078 -0.156,-0.055 -0.297,-0.125 -0.422,-0.219 -0.117,-0.094 -0.215,-0.215 -0.297,-0.359 -0.074,-0.149 -0.121,-0.321 -0.14,-0.516 l -0.891,0.094 c 0.031,0.238 0.098,0.469 0.203,0.687 0.102,0.219 0.25,0.41 0.438,0.578 0.187,0.164 0.41,0.297 0.672,0.391 0.269,0.094 0.582,0.141 0.937,0.141 0.344,0 0.645,-0.043 0.906,-0.125 0.27,-0.086 0.492,-0.203 0.672,-0.36 0.188,-0.156 0.328,-0.355 0.422,-0.593 0.102,-0.231 0.156,-0.5 0.156,-0.813 0,-0.23 -0.043,-0.449 -0.125,-0.656 -0.086,-0.211 -0.199,-0.406 -0.344,-0.594 -0.136,-0.187 -0.296,-0.371 -0.484,-0.547 -0.18,-0.18 -0.367,-0.351 -0.562,-0.515 -0.2,-0.168 -0.399,-0.336 -0.594,-0.5 -0.199,-0.168 -0.391,-0.336 -0.578,-0.5 -0.18,-0.168 -0.336,-0.336 -0.469,-0.5 -0.137,-0.168 -0.246,-0.344 -0.328,-0.532 l 3.594,0 0,-0.75 -4.563,0 z" /><path
         id="path58"
         style="fill:#000000;fill-opacity:1;fill-rule:nonzero;stroke:none"
         d="m 76.297,18.387 c 0,-0.325 -0.055,-0.61 -0.156,-0.86 -0.106,-0.242 -0.258,-0.449 -0.453,-0.625 -0.2,-0.168 -0.446,-0.297 -0.735,-0.39 -0.293,-0.082 -0.625,-0.125 -1,-0.125 -0.418,0 -0.773,0.054 -1.062,0.156 -0.293,0.101 -0.539,0.242 -0.735,0.422 -0.187,0.175 -0.328,0.375 -0.422,0.593 -0.093,0.219 -0.156,0.446 -0.187,0.688 l 0.922,0.078 c 0.019,-0.18 0.062,-0.344 0.125,-0.5 0.07,-0.148 0.172,-0.273 0.297,-0.375 0.125,-0.105 0.269,-0.187 0.437,-0.25 0.176,-0.062 0.383,-0.094 0.625,-0.094 0.445,0 0.797,0.11 1.047,0.328 0.25,0.219 0.375,0.539 0.375,0.969 0,0.258 -0.059,0.469 -0.172,0.625 -0.105,0.156 -0.242,0.274 -0.406,0.36 -0.168,0.082 -0.352,0.14 -0.547,0.171 -0.199,0.032 -0.383,0.047 -0.547,0.047 l -0.5,0 0,0.75 0.485,0 c 0.164,0 0.335,0.016 0.515,0.047 0.176,0.039 0.336,0.102 0.485,0.188 0.144,0.093 0.265,0.218 0.359,0.375 0.101,0.156 0.156,0.347 0.156,0.578 0,0.375 -0.109,0.664 -0.328,0.875 -0.219,0.219 -0.543,0.328 -0.969,0.328 -0.386,0 -0.699,-0.102 -0.937,-0.297 -0.242,-0.199 -0.383,-0.48 -0.422,-0.844 l -0.875,0.063 c 0.031,0.301 0.109,0.562 0.234,0.781 0.133,0.227 0.301,0.414 0.5,0.563 0.207,0.156 0.438,0.269 0.688,0.343 0.258,0.071 0.535,0.11 0.828,0.11 0.383,0 0.711,-0.055 0.984,-0.157 0.282,-0.093 0.508,-0.226 0.688,-0.39 0.176,-0.156 0.304,-0.352 0.39,-0.578 0.082,-0.219 0.125,-0.453 0.125,-0.703 0,-0.2 -0.031,-0.387 -0.093,-0.563 -0.055,-0.18 -0.137,-0.34 -0.25,-0.484 -0.118,-0.137 -0.266,-0.258 -0.454,-0.36 -0.179,-0.093 -0.398,-0.168 -0.656,-0.218 l 0,-0.016 c 0.282,-0.031 0.52,-0.102 0.719,-0.203 0.207,-0.094 0.379,-0.215 0.516,-0.36 0.132,-0.136 0.234,-0.296 0.297,-0.484 0.07,-0.18 0.109,-0.367 0.109,-0.562 z" /><path
         id="path60"
         style="fill:#000000;fill-opacity:1;fill-rule:nonzero;stroke:none"
         d="m 78.637,17.543 0,-0.813 c 0,-0.179 -0.008,-0.332 -0.016,-0.468 -0.012,-0.145 -0.039,-0.274 -0.078,-0.391 -0.031,-0.125 -0.074,-0.238 -0.125,-0.344 -0.043,-0.113 -0.094,-0.222 -0.156,-0.328 l -0.594,0 c 0.144,0.211 0.254,0.422 0.328,0.641 0.082,0.218 0.125,0.433 0.125,0.64 l -0.437,0 0,1.063 0.953,0 z" /><path
         id="path62"
         style="fill:#000000;fill-opacity:1;fill-rule:nonzero;stroke:none"
         d="m 84.691,18.715 c 0,-0.344 -0.054,-0.664 -0.156,-0.953 -0.105,-0.282 -0.262,-0.528 -0.469,-0.735 -0.199,-0.199 -0.453,-0.355 -0.765,-0.469 -0.305,-0.113 -0.653,-0.171 -1.047,-0.171 -0.367,0 -0.684,0.043 -0.953,0.125 -0.262,0.082 -0.485,0.195 -0.672,0.343 -0.188,0.145 -0.34,0.317 -0.453,0.516 -0.106,0.207 -0.18,0.422 -0.219,0.641 l 0.891,0.109 c 0.031,-0.125 0.078,-0.25 0.14,-0.375 0.063,-0.125 0.149,-0.234 0.266,-0.328 0.113,-0.094 0.254,-0.172 0.422,-0.235 0.164,-0.054 0.363,-0.078 0.594,-0.078 0.226,0 0.437,0.032 0.625,0.094 0.187,0.07 0.343,0.176 0.468,0.313 0.133,0.132 0.239,0.3 0.313,0.5 0.07,0.207 0.109,0.437 0.109,0.687 0,0.219 -0.039,0.414 -0.109,0.594 -0.063,0.176 -0.164,0.328 -0.297,0.453 -0.125,0.125 -0.281,0.223 -0.469,0.297 -0.18,0.07 -0.387,0.109 -0.625,0.109 -0.148,0 -0.281,-0.015 -0.406,-0.047 -0.117,-0.023 -0.231,-0.058 -0.344,-0.109 -0.105,-0.043 -0.199,-0.094 -0.281,-0.156 -0.086,-0.055 -0.168,-0.118 -0.25,-0.188 l -0.859,0 0.234,3.703 3.906,0 0,-0.734 -3.109,0 -0.125,-2.188 c 0.156,0.114 0.347,0.211 0.578,0.297 0.238,0.094 0.519,0.141 0.844,0.141 0.343,0 0.648,-0.055 0.922,-0.156 0.269,-0.106 0.5,-0.258 0.687,-0.453 0.195,-0.188 0.348,-0.415 0.453,-0.672 0.102,-0.262 0.156,-0.555 0.156,-0.875 z" /><path
         id="path64"
         style="fill:#000000;fill-opacity:1;fill-rule:nonzero;stroke:none"
         d="m 90.234,20.058 c 0,-0.617 -0.062,-1.152 -0.187,-1.609 -0.117,-0.461 -0.281,-0.844 -0.5,-1.156 -0.211,-0.305 -0.469,-0.531 -0.781,-0.688 -0.305,-0.144 -0.649,-0.218 -1.032,-0.218 -0.261,0 -0.5,0.027 -0.718,0.078 -0.211,0.05 -0.399,0.132 -0.563,0.25 -0.168,0.113 -0.308,0.257 -0.422,0.437 -0.117,0.188 -0.211,0.41 -0.281,0.672 l 0.844,0.125 c 0.094,-0.293 0.234,-0.512 0.422,-0.656 0.195,-0.137 0.441,-0.203 0.734,-0.203 0.238,0 0.457,0.054 0.656,0.172 0.196,0.113 0.364,0.281 0.5,0.5 0.133,0.226 0.239,0.507 0.313,0.843 0.082,0.344 0.129,0.742 0.14,1.203 -0.074,-0.156 -0.168,-0.296 -0.281,-0.421 -0.117,-0.118 -0.25,-0.215 -0.406,-0.297 -0.149,-0.086 -0.309,-0.153 -0.484,-0.203 -0.18,-0.043 -0.356,-0.063 -0.532,-0.063 -0.312,0 -0.601,0.055 -0.859,0.172 -0.25,0.113 -0.465,0.269 -0.641,0.469 -0.179,0.207 -0.312,0.453 -0.406,0.734 -0.094,0.281 -0.141,0.598 -0.141,0.953 0,0.352 0.051,0.672 0.157,0.953 0.101,0.289 0.25,0.535 0.437,0.735 0.195,0.195 0.438,0.347 0.719,0.453 0.289,0.113 0.617,0.172 0.984,0.172 0.758,0 1.336,-0.289 1.735,-0.86 0.394,-0.562 0.593,-1.414 0.593,-2.547 z m -0.968,0.844 c 0,0.258 -0.032,0.5 -0.094,0.719 -0.055,0.226 -0.141,0.426 -0.266,0.594 -0.117,0.164 -0.261,0.297 -0.437,0.39 -0.168,0.094 -0.367,0.141 -0.594,0.141 -0.219,0 -0.414,-0.039 -0.578,-0.109 -0.168,-0.075 -0.313,-0.184 -0.438,-0.329 -0.117,-0.136 -0.203,-0.304 -0.265,-0.5 C 86.531,21.609 86.5,21.39 86.5,21.152 c 0,-0.23 0.023,-0.449 0.078,-0.656 0.063,-0.199 0.149,-0.371 0.266,-0.516 0.113,-0.136 0.254,-0.246 0.422,-0.328 0.175,-0.086 0.375,-0.125 0.593,-0.125 0.164,0 0.332,0.024 0.5,0.078 0.164,0.051 0.317,0.133 0.453,0.25 0.133,0.114 0.243,0.258 0.329,0.438 0.082,0.176 0.125,0.379 0.125,0.609 z" /><path
         id="path66"
         style="fill:#000000;fill-opacity:1;fill-rule:nonzero;stroke:none"
         d="m 95.855,18.73 c 0,-0.343 -0.054,-0.664 -0.156,-0.953 -0.094,-0.281 -0.234,-0.527 -0.422,-0.734 -0.187,-0.211 -0.422,-0.371 -0.703,-0.485 -0.273,-0.113 -0.586,-0.171 -0.937,-0.171 -0.407,0 -0.762,0.074 -1.063,0.218 -0.293,0.157 -0.539,0.375 -0.734,0.657 -0.199,0.289 -0.352,0.644 -0.453,1.062 -0.094,0.426 -0.141,0.906 -0.141,1.438 0,0.613 0.051,1.148 0.156,1.609 0.114,0.469 0.274,0.851 0.485,1.156 0.218,0.313 0.476,0.547 0.781,0.703 0.301,0.157 0.644,0.235 1.031,0.235 0.239,0 0.457,-0.028 0.656,-0.078 0.207,-0.043 0.395,-0.122 0.563,-0.235 0.164,-0.105 0.312,-0.25 0.437,-0.437 0.125,-0.18 0.227,-0.399 0.313,-0.657 l -0.844,-0.14 c -0.094,0.289 -0.242,0.5 -0.437,0.625 -0.199,0.133 -0.434,0.203 -0.703,0.203 -0.243,0 -0.461,-0.059 -0.657,-0.172 -0.187,-0.117 -0.351,-0.289 -0.484,-0.516 -0.137,-0.218 -0.246,-0.5 -0.328,-0.843 -0.074,-0.344 -0.11,-0.743 -0.11,-1.188 0.165,0.289 0.391,0.516 0.672,0.672 0.289,0.156 0.625,0.234 1,0.234 0.313,0 0.594,-0.054 0.844,-0.156 0.258,-0.105 0.477,-0.25 0.656,-0.437 0.188,-0.188 0.328,-0.418 0.422,-0.688 0.102,-0.273 0.156,-0.578 0.156,-0.922 z m -0.89,-0.031 c 0,0.227 -0.031,0.438 -0.094,0.625 -0.062,0.195 -0.152,0.363 -0.266,0.5 -0.117,0.133 -0.261,0.238 -0.437,0.313 -0.168,0.07 -0.367,0.109 -0.594,0.109 -0.156,0 -0.32,-0.027 -0.484,-0.078 -0.168,-0.043 -0.32,-0.117 -0.453,-0.219 -0.125,-0.105 -0.231,-0.246 -0.313,-0.422 -0.086,-0.168 -0.125,-0.375 -0.125,-0.625 0,-0.25 0.031,-0.492 0.094,-0.719 0.07,-0.218 0.164,-0.414 0.281,-0.578 0.125,-0.156 0.27,-0.281 0.438,-0.375 0.176,-0.093 0.375,-0.14 0.593,-0.14 0.207,0 0.395,0.035 0.563,0.109 0.164,0.07 0.305,0.176 0.422,0.313 0.125,0.144 0.219,0.316 0.281,0.515 0.063,0.195 0.094,0.422 0.094,0.672 z" /><path
         id="path68"
         style="fill:#000000;fill-opacity:1;fill-rule:nonzero;stroke:none"
         d="m 101.445,18.387 c 0,-0.325 -0.054,-0.61 -0.156,-0.86 -0.105,-0.242 -0.258,-0.449 -0.453,-0.625 -0.199,-0.168 -0.445,-0.297 -0.734,-0.39 -0.293,-0.082 -0.625,-0.125 -1,-0.125 -0.418,0 -0.774,0.054 -1.063,0.156 -0.293,0.101 -0.539,0.242 -0.734,0.422 -0.188,0.175 -0.328,0.375 -0.422,0.593 -0.094,0.219 -0.156,0.446 -0.188,0.688 l 0.922,0.078 c 0.02,-0.18 0.063,-0.344 0.125,-0.5 0.07,-0.148 0.172,-0.273 0.297,-0.375 0.125,-0.105 0.27,-0.187 0.438,-0.25 0.175,-0.062 0.382,-0.094 0.625,-0.094 0.445,0 0.796,0.11 1.046,0.328 0.25,0.219 0.375,0.539 0.375,0.969 0,0.258 -0.058,0.469 -0.171,0.625 -0.106,0.156 -0.243,0.274 -0.407,0.36 -0.168,0.082 -0.351,0.14 -0.547,0.171 -0.199,0.032 -0.382,0.047 -0.546,0.047 l -0.5,0 0,0.75 0.484,0 c 0.164,0 0.336,0.016 0.516,0.047 0.175,0.039 0.336,0.102 0.484,0.188 0.144,0.093 0.266,0.218 0.359,0.375 0.102,0.156 0.157,0.347 0.157,0.578 0,0.375 -0.11,0.664 -0.329,0.875 -0.218,0.219 -0.543,0.328 -0.968,0.328 -0.387,0 -0.7,-0.102 -0.938,-0.297 -0.242,-0.199 -0.383,-0.48 -0.422,-0.844 l -0.875,0.063 c 0.032,0.301 0.11,0.562 0.235,0.781 0.133,0.227 0.3,0.414 0.5,0.563 0.207,0.156 0.437,0.269 0.687,0.343 0.258,0.071 0.535,0.11 0.828,0.11 0.383,0 0.711,-0.055 0.985,-0.157 0.281,-0.093 0.507,-0.226 0.687,-0.39 0.176,-0.156 0.305,-0.352 0.391,-0.578 0.082,-0.219 0.125,-0.453 0.125,-0.703 0,-0.2 -0.031,-0.387 -0.094,-0.563 -0.055,-0.18 -0.137,-0.34 -0.25,-0.484 -0.117,-0.137 -0.266,-0.258 -0.453,-0.36 -0.18,-0.093 -0.399,-0.168 -0.656,-0.218 l 0,-0.016 c 0.281,-0.031 0.519,-0.102 0.718,-0.203 0.207,-0.094 0.379,-0.215 0.516,-0.36 0.133,-0.136 0.234,-0.296 0.297,-0.484 0.07,-0.18 0.109,-0.367 0.109,-0.562 z" /><path
         id="path70"
         style="fill:#000000;fill-opacity:1;fill-rule:nonzero;stroke:none"
         d="m 134.652,19.918 c 0,-0.656 -0.062,-1.215 -0.187,-1.672 -0.125,-0.449 -0.297,-0.813 -0.516,-1.094 -0.219,-0.273 -0.476,-0.469 -0.765,-0.594 -0.293,-0.113 -0.606,-0.171 -0.938,-0.171 -0.336,0 -0.648,0.058 -0.937,0.171 -0.293,0.125 -0.547,0.321 -0.766,0.594 -0.211,0.281 -0.375,0.645 -0.5,1.094 -0.117,0.457 -0.172,1.016 -0.172,1.672 0,0.695 0.055,1.269 0.172,1.719 0.125,0.457 0.297,0.82 0.516,1.093 0.218,0.27 0.472,0.457 0.765,0.563 0.289,0.113 0.61,0.172 0.953,0.172 0.332,0 0.641,-0.059 0.922,-0.172 0.289,-0.106 0.539,-0.293 0.75,-0.563 0.219,-0.273 0.391,-0.636 0.516,-1.093 0.125,-0.45 0.187,-1.024 0.187,-1.719 z m -0.89,0 c 0,0.551 -0.039,1.008 -0.11,1.375 -0.062,0.363 -0.156,0.648 -0.281,0.859 -0.125,0.219 -0.281,0.367 -0.469,0.453 -0.179,0.094 -0.386,0.141 -0.625,0.141 -0.25,0 -0.468,-0.047 -0.656,-0.141 -0.187,-0.086 -0.351,-0.234 -0.484,-0.453 -0.125,-0.219 -0.219,-0.512 -0.282,-0.875 -0.062,-0.355 -0.093,-0.808 -0.093,-1.359 0,-0.524 0.031,-0.965 0.093,-1.328 0.071,-0.368 0.172,-0.657 0.297,-0.875 0.125,-0.219 0.282,-0.375 0.469,-0.469 0.188,-0.094 0.399,-0.141 0.641,-0.141 0.226,0 0.437,0.047 0.625,0.141 0.187,0.094 0.343,0.25 0.468,0.469 0.125,0.218 0.223,0.507 0.297,0.875 0.071,0.363 0.11,0.804 0.11,1.328 z" /><path
         id="path72"
         style="fill:#000000;fill-opacity:1;fill-rule:nonzero;stroke:none"
         d="m 136.945,17.543 0,-0.813 c 0,-0.179 -0.007,-0.332 -0.015,-0.468 -0.012,-0.145 -0.039,-0.274 -0.078,-0.391 -0.032,-0.125 -0.075,-0.238 -0.125,-0.344 -0.043,-0.113 -0.094,-0.222 -0.157,-0.328 l -0.593,0 c 0.144,0.211 0.253,0.422 0.328,0.641 0.082,0.218 0.125,0.433 0.125,0.64 l -0.438,0 0,1.063 0.953,0 z" /><path
         id="path74"
         style="fill:#000000;fill-opacity:1;fill-rule:nonzero;stroke:none"
         d="m 142.984,18.73 c 0,-0.343 -0.054,-0.664 -0.156,-0.953 -0.094,-0.281 -0.234,-0.527 -0.422,-0.734 -0.187,-0.211 -0.422,-0.371 -0.703,-0.485 -0.273,-0.113 -0.586,-0.171 -0.937,-0.171 -0.407,0 -0.762,0.074 -1.063,0.218 -0.293,0.157 -0.539,0.375 -0.734,0.657 -0.199,0.289 -0.352,0.644 -0.453,1.062 -0.094,0.426 -0.141,0.906 -0.141,1.438 0,0.613 0.051,1.148 0.156,1.609 0.114,0.469 0.274,0.851 0.485,1.156 0.218,0.313 0.476,0.547 0.781,0.703 0.301,0.157 0.644,0.235 1.031,0.235 0.238,0 0.457,-0.028 0.656,-0.078 0.207,-0.043 0.395,-0.122 0.563,-0.235 0.164,-0.105 0.312,-0.25 0.437,-0.437 0.125,-0.18 0.227,-0.399 0.313,-0.657 l -0.844,-0.14 c -0.094,0.289 -0.242,0.5 -0.437,0.625 -0.2,0.133 -0.434,0.203 -0.704,0.203 -0.242,0 -0.46,-0.059 -0.656,-0.172 -0.187,-0.117 -0.351,-0.289 -0.484,-0.516 -0.137,-0.218 -0.246,-0.5 -0.328,-0.843 -0.074,-0.344 -0.11,-0.743 -0.11,-1.188 0.164,0.289 0.391,0.516 0.672,0.672 0.289,0.156 0.625,0.234 1,0.234 0.313,0 0.594,-0.054 0.844,-0.156 0.258,-0.105 0.477,-0.25 0.656,-0.437 0.188,-0.188 0.328,-0.418 0.422,-0.688 0.102,-0.273 0.156,-0.578 0.156,-0.922 z m -0.89,-0.031 c 0,0.227 -0.032,0.438 -0.094,0.625 -0.062,0.195 -0.152,0.363 -0.266,0.5 -0.117,0.133 -0.261,0.238 -0.437,0.313 -0.168,0.07 -0.367,0.109 -0.594,0.109 -0.156,0 -0.32,-0.027 -0.484,-0.078 -0.168,-0.043 -0.321,-0.117 -0.453,-0.219 -0.125,-0.105 -0.231,-0.246 -0.313,-0.422 -0.086,-0.168 -0.125,-0.375 -0.125,-0.625 0,-0.25 0.031,-0.492 0.094,-0.719 0.07,-0.218 0.164,-0.414 0.281,-0.578 0.125,-0.156 0.27,-0.281 0.438,-0.375 0.175,-0.093 0.375,-0.14 0.593,-0.14 0.207,0 0.395,0.035 0.563,0.109 0.164,0.07 0.305,0.176 0.422,0.313 0.125,0.144 0.219,0.316 0.281,0.515 0.062,0.195 0.094,0.422 0.094,0.672 z" /><path
         id="path76"
         style="fill:#000000;fill-opacity:1;fill-rule:nonzero;stroke:none"
         d="m 148.512,22.652 c -0.344,-0.531 -0.664,-1.043 -0.953,-1.531 -0.293,-0.481 -0.543,-0.969 -0.75,-1.469 -0.211,-0.492 -0.371,-0.996 -0.485,-1.515 -0.117,-0.524 -0.172,-1.075 -0.172,-1.657 l -0.922,0 c 0,0.551 0.063,1.086 0.188,1.61 0.133,0.531 0.312,1.05 0.531,1.562 0.227,0.508 0.489,1.008 0.781,1.5 0.29,0.5 0.598,0.988 0.922,1.469 l -3.687,0 0,0.734 4.547,0 0,-0.703 z" /><path
         id="path78"
         style="fill:#000000;fill-opacity:1;fill-rule:nonzero;stroke:none"
         d="m 154.211,19.918 c 0,-0.656 -0.063,-1.215 -0.188,-1.672 -0.125,-0.449 -0.296,-0.813 -0.515,-1.094 -0.219,-0.273 -0.477,-0.469 -0.766,-0.594 -0.293,-0.113 -0.605,-0.171 -0.937,-0.171 -0.336,0 -0.649,0.058 -0.938,0.171 -0.293,0.125 -0.547,0.321 -0.765,0.594 -0.211,0.281 -0.375,0.645 -0.5,1.094 -0.118,0.457 -0.172,1.016 -0.172,1.672 0,0.695 0.054,1.269 0.172,1.719 0.125,0.457 0.296,0.82 0.515,1.093 0.219,0.27 0.473,0.457 0.766,0.563 0.289,0.113 0.609,0.172 0.953,0.172 0.332,0 0.641,-0.059 0.922,-0.172 0.289,-0.106 0.539,-0.293 0.75,-0.563 0.219,-0.273 0.39,-0.636 0.515,-1.093 0.125,-0.45 0.188,-1.024 0.188,-1.719 z m -0.891,0 c 0,0.551 -0.039,1.008 -0.109,1.375 -0.063,0.363 -0.156,0.648 -0.281,0.859 -0.125,0.219 -0.282,0.367 -0.469,0.453 -0.18,0.094 -0.387,0.141 -0.625,0.141 -0.25,0 -0.469,-0.047 -0.656,-0.141 -0.188,-0.086 -0.352,-0.234 -0.485,-0.453 -0.125,-0.219 -0.218,-0.512 -0.281,-0.875 -0.062,-0.355 -0.094,-0.808 -0.094,-1.359 0,-0.524 0.032,-0.965 0.094,-1.328 0.07,-0.368 0.172,-0.657 0.297,-0.875 0.125,-0.219 0.281,-0.375 0.469,-0.469 0.187,-0.094 0.398,-0.141 0.64,-0.141 0.227,0 0.438,0.047 0.625,0.141 0.188,0.094 0.344,0.25 0.469,0.469 0.125,0.218 0.223,0.507 0.297,0.875 0.07,0.363 0.109,0.804 0.109,1.328 z" /><path
         id="path80"
         style="fill:#000000;fill-opacity:1;fill-rule:nonzero;stroke:none"
         d="m 159.723,20.058 c 0,-0.617 -0.063,-1.152 -0.188,-1.609 -0.117,-0.461 -0.281,-0.844 -0.5,-1.156 -0.211,-0.305 -0.469,-0.531 -0.781,-0.688 -0.305,-0.144 -0.649,-0.218 -1.031,-0.218 -0.262,0 -0.5,0.027 -0.719,0.078 -0.211,0.05 -0.399,0.132 -0.563,0.25 -0.168,0.113 -0.308,0.257 -0.421,0.437 -0.118,0.188 -0.211,0.41 -0.282,0.672 l 0.844,0.125 c 0.094,-0.293 0.234,-0.512 0.422,-0.656 0.195,-0.137 0.441,-0.203 0.734,-0.203 0.239,0 0.457,0.054 0.657,0.172 0.195,0.113 0.363,0.281 0.5,0.5 0.132,0.226 0.238,0.507 0.312,0.843 0.082,0.344 0.129,0.742 0.141,1.203 -0.075,-0.156 -0.168,-0.296 -0.282,-0.421 -0.117,-0.118 -0.25,-0.215 -0.406,-0.297 -0.148,-0.086 -0.308,-0.153 -0.484,-0.203 -0.18,-0.043 -0.356,-0.063 -0.531,-0.063 -0.313,0 -0.602,0.055 -0.86,0.172 -0.25,0.113 -0.465,0.269 -0.64,0.469 -0.18,0.207 -0.313,0.453 -0.407,0.734 -0.093,0.281 -0.14,0.598 -0.14,0.953 0,0.352 0.05,0.672 0.156,0.953 0.101,0.289 0.25,0.535 0.437,0.735 0.196,0.195 0.438,0.347 0.719,0.453 0.289,0.113 0.617,0.172 0.985,0.172 0.757,0 1.335,-0.289 1.734,-0.86 0.394,-0.562 0.594,-1.414 0.594,-2.547 z m -0.969,0.844 c 0,0.258 -0.031,0.5 -0.094,0.719 -0.055,0.226 -0.14,0.426 -0.265,0.594 -0.118,0.164 -0.262,0.297 -0.438,0.39 -0.168,0.094 -0.367,0.141 -0.594,0.141 -0.218,0 -0.414,-0.039 -0.578,-0.109 -0.168,-0.075 -0.312,-0.184 -0.437,-0.329 -0.118,-0.136 -0.203,-0.304 -0.266,-0.5 -0.062,-0.199 -0.094,-0.418 -0.094,-0.656 0,-0.23 0.024,-0.449 0.078,-0.656 0.063,-0.199 0.149,-0.371 0.266,-0.516 0.113,-0.136 0.254,-0.246 0.422,-0.328 0.176,-0.086 0.375,-0.125 0.594,-0.125 0.164,0 0.332,0.024 0.5,0.078 0.164,0.051 0.316,0.133 0.453,0.25 0.133,0.114 0.242,0.258 0.328,0.438 0.082,0.176 0.125,0.379 0.125,0.609 z" /><path
         id="path82"
         style="fill:#000000;fill-opacity:1;fill-rule:nonzero;stroke:none"
         d="m 160.719,16.48 0,0.625 c 0.164,0.375 0.367,0.707 0.609,1 0.238,0.289 0.488,0.555 0.75,0.797 0.27,0.238 0.531,0.457 0.781,0.656 0.258,0.196 0.493,0.395 0.703,0.594 0.208,0.207 0.376,0.422 0.5,0.641 0.133,0.226 0.204,0.476 0.204,0.75 0,0.195 -0.032,0.367 -0.094,0.515 -0.055,0.157 -0.137,0.282 -0.25,0.375 -0.106,0.102 -0.234,0.18 -0.391,0.235 -0.156,0.051 -0.328,0.078 -0.515,0.078 -0.18,0 -0.344,-0.027 -0.5,-0.078 -0.157,-0.055 -0.297,-0.125 -0.422,-0.219 -0.117,-0.094 -0.215,-0.215 -0.297,-0.359 -0.074,-0.149 -0.121,-0.321 -0.141,-0.516 l -0.89,0.094 c 0.031,0.238 0.097,0.469 0.203,0.687 0.101,0.219 0.25,0.41 0.437,0.578 0.188,0.164 0.41,0.297 0.672,0.391 0.27,0.094 0.582,0.141 0.938,0.141 0.343,0 0.644,-0.043 0.906,-0.125 0.269,-0.086 0.492,-0.203 0.672,-0.36 0.187,-0.156 0.328,-0.355 0.422,-0.593 0.101,-0.231 0.156,-0.5 0.156,-0.813 0,-0.23 -0.043,-0.449 -0.125,-0.656 -0.086,-0.211 -0.199,-0.406 -0.344,-0.594 -0.137,-0.187 -0.297,-0.371 -0.484,-0.547 -0.18,-0.18 -0.367,-0.351 -0.563,-0.515 -0.199,-0.168 -0.398,-0.336 -0.594,-0.5 -0.199,-0.168 -0.39,-0.336 -0.578,-0.5 -0.179,-0.168 -0.336,-0.336 -0.468,-0.5 -0.137,-0.168 -0.246,-0.344 -0.328,-0.532 l 3.593,0 0,-0.75 -4.562,0 z" /><path
         id="path84"
         style="fill:#000000;fill-opacity:1;fill-rule:nonzero;stroke:none"
         d="m 170.934,18.402 c 0,-0.293 -0.047,-0.562 -0.141,-0.812 -0.094,-0.243 -0.234,-0.453 -0.422,-0.641 -0.187,-0.18 -0.433,-0.32 -0.734,-0.422 -0.293,-0.094 -0.641,-0.14 -1.047,-0.14 -0.406,0 -0.758,0.046 -1.047,0.14 -0.293,0.102 -0.539,0.242 -0.734,0.422 -0.188,0.176 -0.329,0.383 -0.422,0.625 -0.094,0.25 -0.141,0.52 -0.141,0.813 0,0.25 0.035,0.472 0.109,0.671 0.083,0.196 0.188,0.364 0.313,0.5 0.125,0.145 0.27,0.258 0.437,0.344 0.165,0.094 0.336,0.149 0.516,0.172 l 0,0.031 c -0.199,0.039 -0.375,0.11 -0.531,0.203 -0.149,0.102 -0.274,0.227 -0.375,0.375 -0.106,0.145 -0.184,0.301 -0.235,0.469 -0.054,0.176 -0.078,0.36 -0.078,0.547 0,0.238 0.047,0.461 0.141,0.672 0.094,0.219 0.227,0.406 0.406,0.562 0.188,0.164 0.414,0.297 0.688,0.391 0.269,0.094 0.582,0.141 0.937,0.141 0.375,0 0.696,-0.047 0.969,-0.141 0.281,-0.094 0.508,-0.227 0.687,-0.391 0.176,-0.156 0.305,-0.343 0.391,-0.562 0.094,-0.211 0.141,-0.438 0.141,-0.688 0,-0.187 -0.028,-0.371 -0.078,-0.546 -0.055,-0.168 -0.133,-0.325 -0.235,-0.469 -0.105,-0.137 -0.234,-0.258 -0.39,-0.36 -0.149,-0.093 -0.321,-0.164 -0.516,-0.203 l 0,-0.015 c 0.195,-0.032 0.379,-0.094 0.547,-0.188 0.176,-0.086 0.32,-0.199 0.437,-0.344 0.125,-0.136 0.223,-0.304 0.297,-0.5 0.071,-0.187 0.11,-0.406 0.11,-0.656 z m -1.079,3.235 c 0,0.175 -0.027,0.332 -0.078,0.468 -0.043,0.145 -0.117,0.27 -0.218,0.375 -0.094,0.102 -0.227,0.18 -0.391,0.235 -0.156,0.062 -0.356,0.093 -0.594,0.093 -0.23,0 -0.429,-0.031 -0.594,-0.093 -0.156,-0.055 -0.289,-0.133 -0.39,-0.235 -0.106,-0.105 -0.18,-0.23 -0.219,-0.375 -0.043,-0.136 -0.062,-0.293 -0.062,-0.468 0,-0.137 0.015,-0.278 0.046,-0.422 0.04,-0.137 0.11,-0.266 0.204,-0.391 0.093,-0.117 0.222,-0.211 0.39,-0.281 0.164,-0.074 0.379,-0.11 0.641,-0.11 0.269,0 0.488,0.036 0.656,0.11 0.164,0.07 0.289,0.164 0.375,0.281 0.094,0.125 0.156,0.254 0.188,0.391 0.031,0.144 0.046,0.285 0.046,0.422 z m 0.172,-3.157 c 0,0.164 -0.027,0.328 -0.078,0.485 -0.043,0.156 -0.121,0.289 -0.234,0.406 -0.106,0.125 -0.25,0.223 -0.438,0.297 -0.187,0.07 -0.422,0.109 -0.703,0.109 -0.262,0 -0.48,-0.039 -0.656,-0.109 -0.18,-0.074 -0.324,-0.172 -0.438,-0.297 -0.117,-0.125 -0.199,-0.266 -0.25,-0.422 -0.054,-0.156 -0.078,-0.32 -0.078,-0.484 0,-0.211 0.024,-0.403 0.078,-0.578 0.051,-0.18 0.133,-0.329 0.25,-0.454 0.114,-0.125 0.258,-0.226 0.438,-0.296 0.187,-0.063 0.414,-0.094 0.687,-0.094 0.258,0 0.477,0.031 0.657,0.094 0.187,0.07 0.336,0.171 0.453,0.296 0.113,0.125 0.191,0.274 0.234,0.454 0.051,0.175 0.078,0.375 0.078,0.593 z" /><path
         id="path86"
         style="fill:#000000;fill-opacity:1;fill-rule:nonzero;stroke:none"
         d="m 3.812,4.242 c 0.165,0 0.329,0.02 0.485,0.063 0.156,0.05 0.297,0.113 0.422,0.187 0.133,0.082 0.254,0.172 0.359,0.266 0.102,0.093 0.188,0.179 0.25,0.265 L 5.844,4.539 C 5.738,4.414 5.617,4.289 5.484,4.164 5.348,4.047 5.191,3.949 5.016,3.867 4.848,3.781 4.656,3.715 4.438,3.664 4.227,3.613 4,3.586 3.75,3.586 3.438,3.586 3.164,3.625 2.938,3.695 2.707,3.765 2.516,3.871 2.359,4.008 2.211,4.14 2.102,4.305 2.031,4.492 1.957,4.687 1.922,4.898 1.922,5.117 c 0,0.188 0.031,0.359 0.094,0.516 0.07,0.156 0.164,0.289 0.281,0.406 0.125,0.113 0.265,0.203 0.422,0.266 0.156,0.07 0.316,0.113 0.484,0.125 l 0,0.015 C 3.035,6.465 2.883,6.508 2.75,6.57 2.613,6.633 2.492,6.715 2.391,6.82 2.297,6.922 2.219,7.043 2.156,7.18 2.102,7.324 2.078,7.48 2.078,7.648 c 0,0.196 0.039,0.383 0.125,0.563 0.082,0.176 0.203,0.328 0.359,0.453 0.157,0.125 0.344,0.219 0.563,0.281 0.219,0.07 0.469,0.11 0.75,0.11 0.383,0 0.734,-0.071 1.047,-0.204 C 5.234,8.715 5.5,8.484 5.719,8.164 L 5.094,7.726 C 4.938,7.953 4.754,8.125 4.547,8.242 4.348,8.355 4.129,8.414 3.891,8.414 3.586,8.414 3.359,8.34 3.203,8.195 3.047,8.058 2.969,7.871 2.969,7.633 2.969,7.445 3.008,7.293 3.094,7.18 3.188,7.062 3.312,6.976 3.469,6.914 3.633,6.859 3.82,6.824 4.031,6.805 4.25,6.781 4.477,6.773 4.719,6.773 l 0,-0.656 C 4.477,6.117 4.242,6.105 4.016,6.086 3.797,6.062 3.598,6.023 3.422,5.961 3.242,5.898 3.098,5.797 2.984,5.664 2.879,5.539 2.828,5.359 2.828,5.133 2.828,4.984 2.848,4.855 2.891,4.742 2.941,4.637 3.008,4.543 3.094,4.461 3.188,4.387 3.289,4.328 3.406,4.289 3.531,4.258 3.664,4.242 3.812,4.242 Z" /><path
         id="path88"
         style="fill:#000000;fill-opacity:1;fill-rule:nonzero;stroke:none"
         d="M 7.414,6.133 C 7.414,5.859 7.438,5.605 7.492,5.367 7.555,5.137 7.641,4.937 7.758,4.773 7.883,4.605 8.039,4.476 8.227,4.383 8.414,4.289 8.637,4.242 8.898,4.242 c 0.375,0 0.676,0.07 0.907,0.219 0.226,0.156 0.383,0.351 0.468,0.594 L 11.039,4.836 C 10.984,4.687 10.906,4.539 10.805,4.383 10.711,4.234 10.578,4.101 10.414,3.976 10.246,3.859 10.039,3.765 9.789,3.695 9.539,3.625 9.242,3.586 8.898,3.586 c -0.781,0 -1.382,0.226 -1.796,0.687 -0.407,0.469 -0.61,1.16 -0.61,2.078 0,0.5 0.063,0.922 0.188,1.266 0.125,0.344 0.289,0.617 0.5,0.828 C 7.398,8.664 7.648,8.82 7.93,8.914 8.219,9.008 8.527,9.055 8.852,9.055 9.297,9.055 9.668,8.98 9.961,8.836 10.262,8.699 10.5,8.5 10.68,8.242 10.867,7.992 10.996,7.695 11.07,7.351 11.152,7.015 11.195,6.652 11.195,6.258 l 0,-0.125 -3.781,0 z m 2.859,0.672 C 10.23,7.367 10.09,7.773 9.852,8.023 9.621,8.281 9.289,8.414 8.852,8.414 8.695,8.414 8.539,8.387 8.383,8.336 8.227,8.293 8.074,8.211 7.93,8.086 7.793,7.969 7.68,7.808 7.586,7.601 7.492,7.39 7.438,7.125 7.43,6.805 l 2.843,0 z" /><path
         id="path90"
         style="fill:#000000;fill-opacity:1;fill-rule:nonzero;stroke:none"
         d="m 13.426,8.32 0,-4.64 -0.875,0 0,4.64 -0.75,0 0,0.641 0.75,0 0,0.594 c 0,0.195 0.015,0.375 0.047,0.531 0.031,0.164 0.093,0.312 0.187,0.437 0.102,0.125 0.238,0.219 0.406,0.282 0.164,0.07 0.379,0.109 0.641,0.109 0.102,0 0.211,-0.008 0.328,-0.016 0.113,-0.011 0.211,-0.027 0.297,-0.047 l 0,-0.656 c -0.062,0.008 -0.133,0.016 -0.203,0.016 -0.074,0.008 -0.137,0.015 -0.188,0.015 -0.136,0 -0.246,-0.023 -0.328,-0.062 C 13.652,10.133 13.586,10.078 13.535,10.008 13.492,9.945 13.461,9.867 13.441,9.773 13.43,9.68 13.426,9.562 13.426,9.43 l 0,-0.469 1.031,0 0,-0.641 -1.031,0 z" /><path
         id="path92"
         style="fill:#000000;fill-opacity:1;fill-rule:nonzero;stroke:none"
         d="m 16.027,8.32 0,-4.64 -0.875,0 0,4.64 -0.75,0 0,0.641 0.75,0 0,0.594 c 0,0.195 0.016,0.375 0.047,0.531 0.031,0.164 0.094,0.312 0.188,0.437 0.101,0.125 0.238,0.219 0.406,0.282 0.164,0.07 0.379,0.109 0.641,0.109 0.101,0 0.211,-0.008 0.328,-0.016 0.113,-0.011 0.211,-0.027 0.297,-0.047 l 0,-0.656 c -0.063,0.008 -0.133,0.016 -0.204,0.016 -0.074,0.008 -0.136,0.015 -0.187,0.015 -0.137,0 -0.246,-0.023 -0.328,-0.062 C 16.254,10.133 16.188,10.078 16.137,10.008 16.094,9.945 16.062,9.867 16.043,9.773 16.031,9.68 16.027,9.562 16.027,9.43 l 0,-0.469 1.032,0 0,-0.641 -1.032,0 z" /><path
         id="path94"
         style="fill:#000000;fill-opacity:1;fill-rule:nonzero;stroke:none"
         d="m 69.875,5.242 0,-1.562 -0.828,0 0,1.562 -3.235,0 0,0.672 3.141,4.641 0.922,0 0,-4.625 0.969,0 0,-0.688 -0.969,0 z M 69.047,9.57 C 69.047,9.547 69.031,9.512 69,9.461 68.977,9.418 68.945,9.367 68.906,9.305 68.875,9.25 68.844,9.195 68.812,9.133 68.781,9.07 68.75,9.023 68.719,8.992 L 66.953,6.383 C 66.941,6.359 66.922,6.328 66.891,6.289 66.859,6.246 66.828,6.199 66.797,6.148 66.766,6.105 66.727,6.062 66.688,6.023 66.656,5.98 66.633,5.949 66.625,5.93 l 2.422,0 0,3.64 z" /><path
         id="path96"
         style="fill:#000000;fill-opacity:1;fill-rule:nonzero;stroke:none"
         d="m 73.047,4.742 0,-0.812 C 73.047,3.75 73.039,3.597 73.031,3.461 73.02,3.316 72.992,3.187 72.953,3.07 72.922,2.945 72.879,2.832 72.828,2.726 72.785,2.613 72.734,2.504 72.672,2.398 l -0.594,0 c 0.145,0.211 0.254,0.422 0.328,0.641 0.082,0.219 0.125,0.433 0.125,0.641 l -0.437,0 0,1.062 0.953,0 z" /><path
         id="path98"
         style="fill:#000000;fill-opacity:1;fill-rule:nonzero;stroke:none"
         d="m 79.086,5.586 c 0,-0.324 -0.055,-0.61 -0.156,-0.86 -0.106,-0.242 -0.258,-0.449 -0.453,-0.625 -0.2,-0.168 -0.446,-0.296 -0.735,-0.39 -0.293,-0.082 -0.625,-0.125 -1,-0.125 -0.418,0 -0.773,0.054 -1.062,0.156 -0.293,0.102 -0.539,0.242 -0.735,0.422 -0.187,0.176 -0.328,0.375 -0.422,0.594 -0.093,0.218 -0.156,0.445 -0.187,0.687 l 0.922,0.078 c 0.019,-0.179 0.062,-0.343 0.125,-0.5 0.07,-0.148 0.172,-0.273 0.297,-0.375 0.125,-0.105 0.269,-0.187 0.437,-0.25 0.176,-0.062 0.383,-0.093 0.625,-0.093 0.446,0 0.797,0.109 1.047,0.328 0.25,0.218 0.375,0.539 0.375,0.968 0,0.258 -0.059,0.469 -0.172,0.625 -0.105,0.157 -0.242,0.274 -0.406,0.36 -0.168,0.082 -0.352,0.14 -0.547,0.172 -0.199,0.031 -0.383,0.047 -0.547,0.047 l -0.5,0 0,0.75 0.485,0 c 0.164,0 0.335,0.015 0.515,0.046 0.176,0.039 0.336,0.102 0.485,0.188 0.144,0.094 0.265,0.219 0.359,0.375 0.102,0.156 0.156,0.348 0.156,0.578 0,0.375 -0.109,0.664 -0.328,0.875 -0.219,0.219 -0.543,0.328 -0.969,0.328 -0.386,0 -0.699,-0.101 -0.937,-0.297 -0.242,-0.199 -0.383,-0.48 -0.422,-0.843 l -0.875,0.062 c 0.031,0.301 0.109,0.563 0.234,0.781 0.133,0.227 0.301,0.414 0.5,0.563 0.207,0.156 0.438,0.269 0.688,0.344 0.258,0.07 0.535,0.109 0.828,0.109 0.383,0 0.711,-0.055 0.984,-0.156 0.282,-0.094 0.508,-0.227 0.688,-0.391 0.176,-0.156 0.305,-0.352 0.39,-0.578 0.082,-0.219 0.125,-0.453 0.125,-0.703 0,-0.199 -0.031,-0.387 -0.093,-0.563 C 78.75,8.094 78.668,7.933 78.555,7.789 78.438,7.652 78.289,7.531 78.102,7.43 77.922,7.336 77.703,7.262 77.445,7.211 l 0,-0.016 c 0.282,-0.031 0.52,-0.101 0.719,-0.203 0.207,-0.094 0.379,-0.215 0.516,-0.359 0.132,-0.137 0.234,-0.297 0.297,-0.485 0.07,-0.179 0.109,-0.367 0.109,-0.562 z" /><path
         id="path100"
         style="fill:#000000;fill-opacity:1;fill-rule:nonzero;stroke:none"
         d="m 80.051,3.68 0,0.625 c 0.164,0.375 0.367,0.707 0.609,1 0.238,0.289 0.488,0.554 0.75,0.796 0.27,0.239 0.531,0.457 0.781,0.657 0.258,0.195 0.493,0.394 0.704,0.593 0.207,0.207 0.375,0.422 0.5,0.641 0.132,0.227 0.203,0.477 0.203,0.75 0,0.195 -0.032,0.367 -0.094,0.516 -0.055,0.156 -0.137,0.281 -0.25,0.375 -0.106,0.101 -0.234,0.179 -0.391,0.234 -0.156,0.051 -0.328,0.078 -0.515,0.078 -0.18,0 -0.344,-0.027 -0.5,-0.078 C 81.691,9.812 81.551,9.742 81.426,9.648 81.309,9.555 81.211,9.433 81.129,9.289 81.055,9.14 81.008,8.969 80.988,8.773 l -0.89,0.094 c 0.031,0.238 0.097,0.469 0.203,0.688 0.101,0.218 0.25,0.41 0.437,0.578 0.188,0.164 0.41,0.297 0.672,0.39 0.27,0.094 0.582,0.141 0.938,0.141 0.343,0 0.644,-0.043 0.906,-0.125 0.269,-0.086 0.492,-0.203 0.672,-0.359 0.187,-0.157 0.328,-0.356 0.422,-0.594 0.101,-0.231 0.156,-0.5 0.156,-0.813 0,-0.23 -0.043,-0.449 -0.125,-0.656 C 84.293,7.906 84.18,7.711 84.035,7.523 83.898,7.336 83.738,7.152 83.551,6.976 83.371,6.797 83.184,6.625 82.988,6.461 82.789,6.293 82.59,6.125 82.395,5.961 82.195,5.793 82.004,5.625 81.816,5.461 81.637,5.293 81.48,5.125 81.348,4.961 81.211,4.793 81.102,4.617 81.02,4.43 l 3.593,0 0,-0.75 -4.562,0 z" /><path
         id="path102"
         style="fill:#000000;fill-opacity:1;fill-rule:nonzero;stroke:none"
         d="M 90.281,5.914 C 90.281,5.57 90.227,5.25 90.125,4.961 90.02,4.68 89.863,4.433 89.656,4.226 89.457,4.027 89.203,3.871 88.891,3.758 88.586,3.644 88.238,3.586 87.844,3.586 c -0.367,0 -0.684,0.043 -0.953,0.125 -0.262,0.082 -0.485,0.195 -0.672,0.344 -0.188,0.144 -0.34,0.316 -0.453,0.515 -0.106,0.207 -0.18,0.422 -0.219,0.641 l 0.891,0.109 c 0.031,-0.125 0.078,-0.25 0.14,-0.375 0.063,-0.125 0.149,-0.234 0.266,-0.328 0.113,-0.094 0.254,-0.172 0.422,-0.234 0.164,-0.055 0.363,-0.078 0.593,-0.078 0.227,0 0.438,0.031 0.625,0.093 0.188,0.071 0.344,0.176 0.469,0.313 0.133,0.133 0.238,0.301 0.313,0.5 0.07,0.207 0.109,0.437 0.109,0.687 0,0.219 -0.039,0.414 -0.109,0.594 C 89.203,6.668 89.102,6.82 88.969,6.945 88.844,7.07 88.688,7.168 88.5,7.242 88.32,7.312 88.113,7.351 87.875,7.351 87.727,7.351 87.594,7.336 87.469,7.305 87.352,7.281 87.238,7.246 87.125,7.195 87.02,7.152 86.926,7.101 86.844,7.039 86.758,6.984 86.676,6.922 86.594,6.851 l -0.86,0 0.235,3.704 3.906,0 0,-0.735 -3.109,0 -0.125,-2.187 c 0.156,0.113 0.347,0.211 0.578,0.297 0.238,0.093 0.519,0.14 0.843,0.14 0.344,0 0.649,-0.055 0.922,-0.156 0.27,-0.106 0.5,-0.258 0.688,-0.453 0.195,-0.188 0.348,-0.414 0.453,-0.672 0.102,-0.262 0.156,-0.555 0.156,-0.875 z" /><path
         id="path104"
         style="fill:#000000;fill-opacity:1;fill-rule:nonzero;stroke:none"
         d="m 91.496,3.68 0,0.75 1.75,0 0,5.296 -1.547,-1.109 0,0.828 1.625,1.11 0.813,0 0,-6.125 1.672,0 0,-0.75 -4.313,0 z" /><path
         id="path106"
         style="fill:#000000;fill-opacity:1;fill-rule:nonzero;stroke:none"
         d="m 101.445,5.601 c 0,-0.293 -0.047,-0.562 -0.14,-0.812 -0.094,-0.242 -0.235,-0.453 -0.422,-0.641 -0.188,-0.179 -0.434,-0.32 -0.735,-0.422 -0.293,-0.093 -0.64,-0.14 -1.046,-0.14 -0.407,0 -0.758,0.047 -1.047,0.14 -0.293,0.102 -0.539,0.243 -0.735,0.422 -0.187,0.176 -0.328,0.383 -0.422,0.625 -0.093,0.25 -0.14,0.52 -0.14,0.813 0,0.25 0.035,0.472 0.109,0.672 0.082,0.195 0.188,0.363 0.313,0.5 0.125,0.144 0.269,0.257 0.437,0.343 0.164,0.094 0.336,0.149 0.516,0.172 l 0,0.032 c -0.199,0.039 -0.375,0.109 -0.531,0.203 -0.149,0.101 -0.274,0.226 -0.375,0.375 -0.106,0.144 -0.184,0.3 -0.235,0.468 -0.054,0.176 -0.078,0.36 -0.078,0.547 0,0.239 0.047,0.461 0.141,0.672 0.093,0.219 0.226,0.406 0.406,0.563 0.187,0.164 0.414,0.297 0.687,0.39 0.27,0.094 0.582,0.141 0.938,0.141 0.375,0 0.695,-0.047 0.969,-0.141 0.281,-0.093 0.507,-0.226 0.687,-0.39 0.176,-0.157 0.305,-0.344 0.391,-0.563 0.094,-0.211 0.14,-0.437 0.14,-0.687 0,-0.188 -0.027,-0.371 -0.078,-0.547 -0.054,-0.168 -0.133,-0.324 -0.234,-0.469 -0.106,-0.137 -0.234,-0.258 -0.391,-0.359 -0.148,-0.094 -0.32,-0.164 -0.515,-0.203 l 0,-0.016 c 0.195,-0.031 0.379,-0.094 0.547,-0.188 0.175,-0.086 0.32,-0.199 0.437,-0.343 0.125,-0.137 0.223,-0.305 0.297,-0.5 0.07,-0.188 0.109,-0.407 0.109,-0.657 z m -1.078,3.235 c 0,0.176 -0.027,0.332 -0.078,0.469 -0.043,0.144 -0.117,0.269 -0.219,0.375 -0.093,0.101 -0.226,0.179 -0.39,0.234 -0.157,0.062 -0.356,0.094 -0.594,0.094 -0.231,0 -0.43,-0.032 -0.594,-0.094 C 98.336,9.859 98.203,9.781 98.102,9.68 97.996,9.574 97.922,9.449 97.883,9.305 97.84,9.168 97.82,9.012 97.82,8.836 c 0,-0.137 0.016,-0.278 0.047,-0.422 0.039,-0.137 0.11,-0.266 0.203,-0.391 0.094,-0.117 0.223,-0.211 0.391,-0.281 0.164,-0.074 0.379,-0.109 0.641,-0.109 0.269,0 0.488,0.035 0.656,0.109 0.164,0.07 0.289,0.164 0.375,0.281 0.094,0.125 0.156,0.254 0.187,0.391 0.032,0.144 0.047,0.285 0.047,0.422 z m 0.172,-3.156 c 0,0.164 -0.027,0.328 -0.078,0.484 -0.043,0.156 -0.121,0.289 -0.234,0.406 -0.106,0.125 -0.25,0.223 -0.438,0.297 -0.187,0.07 -0.422,0.109 -0.703,0.109 -0.262,0 -0.481,-0.039 -0.656,-0.109 C 98.25,6.793 98.105,6.695 97.992,6.57 97.875,6.445 97.793,6.305 97.742,6.148 97.688,5.992 97.664,5.828 97.664,5.664 c 0,-0.211 0.024,-0.402 0.078,-0.578 0.051,-0.18 0.133,-0.328 0.25,-0.453 0.113,-0.125 0.258,-0.227 0.438,-0.297 0.187,-0.063 0.414,-0.094 0.687,-0.094 0.258,0 0.477,0.031 0.656,0.094 0.188,0.07 0.336,0.172 0.454,0.297 0.113,0.125 0.191,0.273 0.234,0.453 0.051,0.176 0.078,0.375 0.078,0.594 z" /><path
         id="path108"
         style="fill:#000000;fill-opacity:1;fill-rule:nonzero;stroke:none"
         d="m 134.605,5.586 c 0,-0.324 -0.054,-0.61 -0.156,-0.86 -0.105,-0.242 -0.258,-0.449 -0.453,-0.625 -0.199,-0.168 -0.445,-0.296 -0.734,-0.39 -0.293,-0.082 -0.625,-0.125 -1,-0.125 -0.418,0 -0.774,0.054 -1.063,0.156 -0.293,0.102 -0.539,0.242 -0.734,0.422 -0.188,0.176 -0.328,0.375 -0.422,0.594 -0.094,0.218 -0.156,0.445 -0.188,0.687 l 0.922,0.078 c 0.02,-0.179 0.063,-0.343 0.125,-0.5 0.071,-0.148 0.172,-0.273 0.297,-0.375 0.125,-0.105 0.27,-0.187 0.438,-0.25 0.175,-0.062 0.383,-0.093 0.625,-0.093 0.445,0 0.797,0.109 1.047,0.328 0.25,0.218 0.375,0.539 0.375,0.968 0,0.258 -0.059,0.469 -0.172,0.625 -0.106,0.157 -0.242,0.274 -0.407,0.36 -0.167,0.082 -0.351,0.14 -0.546,0.172 -0.2,0.031 -0.383,0.047 -0.547,0.047 l -0.5,0 0,0.75 0.484,0 c 0.164,0 0.336,0.015 0.516,0.046 0.176,0.039 0.336,0.102 0.484,0.188 0.145,0.094 0.266,0.219 0.359,0.375 0.102,0.156 0.157,0.348 0.157,0.578 0,0.375 -0.11,0.664 -0.328,0.875 -0.219,0.219 -0.543,0.328 -0.969,0.328 -0.387,0 -0.699,-0.101 -0.938,-0.297 -0.242,-0.199 -0.382,-0.48 -0.422,-0.843 l -0.875,0.062 c 0.032,0.301 0.11,0.563 0.235,0.781 0.133,0.227 0.301,0.414 0.5,0.563 0.207,0.156 0.437,0.269 0.687,0.344 0.258,0.07 0.536,0.109 0.828,0.109 0.383,0 0.711,-0.055 0.985,-0.156 0.281,-0.094 0.508,-0.227 0.687,-0.391 0.176,-0.156 0.305,-0.352 0.391,-0.578 0.082,-0.219 0.125,-0.453 0.125,-0.703 0,-0.199 -0.031,-0.387 -0.094,-0.563 -0.054,-0.179 -0.136,-0.34 -0.25,-0.484 -0.117,-0.137 -0.265,-0.258 -0.453,-0.359 -0.18,-0.094 -0.398,-0.168 -0.656,-0.219 l 0,-0.016 c 0.281,-0.031 0.519,-0.101 0.719,-0.203 0.207,-0.094 0.378,-0.215 0.515,-0.359 0.133,-0.137 0.235,-0.297 0.297,-0.485 0.07,-0.179 0.109,-0.367 0.109,-0.562 z" /><path
         id="path110"
         style="fill:#000000;fill-opacity:1;fill-rule:nonzero;stroke:none"
         d="m 136.945,4.742 0,-0.812 c 0,-0.18 -0.007,-0.333 -0.015,-0.469 C 136.918,3.316 136.891,3.187 136.852,3.07 136.82,2.945 136.777,2.832 136.727,2.726 136.684,2.613 136.633,2.504 136.57,2.398 l -0.593,0 c 0.144,0.211 0.253,0.422 0.328,0.641 0.082,0.219 0.125,0.433 0.125,0.641 l -0.438,0 0,1.062 0.953,0 z" /><path
         id="path112"
         style="fill:#000000;fill-opacity:1;fill-rule:nonzero;stroke:none"
         d="m 142.984,5.586 c 0,-0.324 -0.054,-0.61 -0.156,-0.86 -0.105,-0.242 -0.258,-0.449 -0.453,-0.625 -0.199,-0.168 -0.445,-0.296 -0.734,-0.39 -0.293,-0.082 -0.625,-0.125 -1,-0.125 -0.418,0 -0.774,0.054 -1.063,0.156 -0.293,0.102 -0.539,0.242 -0.734,0.422 -0.188,0.176 -0.328,0.375 -0.422,0.594 -0.094,0.218 -0.156,0.445 -0.188,0.687 l 0.922,0.078 c 0.02,-0.179 0.063,-0.343 0.125,-0.5 0.071,-0.148 0.172,-0.273 0.297,-0.375 0.125,-0.105 0.27,-0.187 0.438,-0.25 0.175,-0.062 0.382,-0.093 0.625,-0.093 0.445,0 0.797,0.109 1.047,0.328 0.25,0.218 0.374,0.539 0.374,0.968 0,0.258 -0.058,0.469 -0.171,0.625 -0.106,0.157 -0.243,0.274 -0.407,0.36 -0.168,0.082 -0.351,0.14 -0.546,0.172 -0.2,0.031 -0.383,0.047 -0.547,0.047 l -0.5,0 0,0.75 0.484,0 c 0.164,0 0.336,0.015 0.516,0.046 0.175,0.039 0.336,0.102 0.484,0.188 0.145,0.094 0.266,0.219 0.359,0.375 0.102,0.156 0.157,0.348 0.157,0.578 0,0.375 -0.11,0.664 -0.329,0.875 -0.218,0.219 -0.542,0.328 -0.968,0.328 -0.387,0 -0.699,-0.101 -0.938,-0.297 -0.242,-0.199 -0.383,-0.48 -0.422,-0.843 l -0.875,0.062 c 0.032,0.301 0.11,0.563 0.235,0.781 0.133,0.227 0.301,0.414 0.5,0.563 0.207,0.156 0.437,0.269 0.687,0.344 0.258,0.07 0.535,0.109 0.828,0.109 0.383,0 0.711,-0.055 0.985,-0.156 0.281,-0.094 0.508,-0.227 0.687,-0.391 0.176,-0.156 0.305,-0.352 0.391,-0.578 0.082,-0.219 0.125,-0.453 0.125,-0.703 0,-0.199 -0.031,-0.387 -0.094,-0.563 -0.055,-0.179 -0.137,-0.34 -0.25,-0.484 C 142.336,7.652 142.188,7.531 142,7.43 141.82,7.336 141.602,7.262 141.344,7.211 l 0,-0.016 c 0.281,-0.031 0.519,-0.101 0.718,-0.203 0.208,-0.094 0.379,-0.215 0.516,-0.359 0.133,-0.137 0.234,-0.297 0.297,-0.485 0.07,-0.179 0.109,-0.367 0.109,-0.562 z" /><path
         id="path114"
         style="fill:#000000;fill-opacity:1;fill-rule:nonzero;stroke:none"
         d="m 148.574,5.93 c 0,-0.344 -0.054,-0.665 -0.156,-0.954 -0.094,-0.281 -0.234,-0.527 -0.422,-0.734 -0.187,-0.211 -0.422,-0.371 -0.703,-0.484 -0.273,-0.114 -0.586,-0.172 -0.938,-0.172 -0.406,0 -0.761,0.074 -1.062,0.219 -0.293,0.156 -0.539,0.375 -0.734,0.656 -0.2,0.289 -0.352,0.644 -0.454,1.062 -0.093,0.426 -0.14,0.907 -0.14,1.438 0,0.613 0.051,1.148 0.156,1.609 0.113,0.469 0.274,0.852 0.484,1.156 0.219,0.313 0.477,0.547 0.782,0.704 0.301,0.156 0.644,0.234 1.031,0.234 0.238,0 0.457,-0.027 0.656,-0.078 0.207,-0.043 0.395,-0.121 0.563,-0.235 0.164,-0.105 0.312,-0.25 0.437,-0.437 0.125,-0.18 0.227,-0.399 0.313,-0.656 l -0.844,-0.141 c -0.094,0.289 -0.242,0.5 -0.438,0.625 -0.199,0.133 -0.433,0.203 -0.703,0.203 -0.242,0 -0.461,-0.058 -0.656,-0.172 -0.187,-0.117 -0.351,-0.289 -0.484,-0.515 -0.137,-0.219 -0.246,-0.5 -0.328,-0.844 -0.075,-0.344 -0.11,-0.742 -0.11,-1.188 0.164,0.289 0.391,0.516 0.672,0.672 0.289,0.157 0.625,0.235 1,0.235 0.313,0 0.594,-0.055 0.844,-0.157 0.258,-0.105 0.476,-0.25 0.656,-0.437 0.188,-0.188 0.328,-0.418 0.422,-0.688 0.102,-0.273 0.156,-0.578 0.156,-0.921 z m -0.89,-0.032 c 0,0.227 -0.032,0.438 -0.094,0.625 -0.063,0.196 -0.152,0.364 -0.266,0.5 -0.117,0.133 -0.262,0.239 -0.437,0.313 -0.168,0.07 -0.367,0.109 -0.594,0.109 -0.156,0 -0.32,-0.027 -0.484,-0.078 -0.168,-0.043 -0.321,-0.117 -0.454,-0.219 -0.125,-0.105 -0.23,-0.246 -0.312,-0.422 -0.086,-0.168 -0.125,-0.375 -0.125,-0.625 0,-0.25 0.031,-0.492 0.094,-0.718 0.07,-0.219 0.164,-0.414 0.281,-0.578 0.125,-0.157 0.269,-0.282 0.437,-0.375 0.176,-0.094 0.375,-0.141 0.594,-0.141 0.207,0 0.395,0.035 0.563,0.109 0.164,0.071 0.304,0.176 0.422,0.313 0.125,0.144 0.218,0.316 0.281,0.515 0.062,0.196 0.094,0.422 0.094,0.672 z" /><path
         id="path116"
         style="fill:#000000;fill-opacity:1;fill-rule:nonzero;stroke:none"
         d="M 154.102,9.851 C 153.758,9.32 153.438,8.808 153.148,8.32 152.855,7.84 152.605,7.351 152.398,6.851 152.188,6.359 152.027,5.855 151.914,5.336 151.797,4.812 151.742,4.262 151.742,3.68 l -0.922,0 c 0,0.55 0.063,1.085 0.188,1.609 0.133,0.531 0.312,1.051 0.531,1.562 0.227,0.508 0.488,1.008 0.781,1.5 0.289,0.5 0.598,0.989 0.922,1.469 l -3.687,0 0,0.735 4.547,0 0,-0.704 z" /><path
         id="path118"
         style="fill:#000000;fill-opacity:1;fill-rule:nonzero;stroke:none"
         d="m 159.754,5.93 c 0,-0.344 -0.055,-0.665 -0.156,-0.954 -0.094,-0.281 -0.235,-0.527 -0.422,-0.734 -0.188,-0.211 -0.422,-0.371 -0.703,-0.484 -0.274,-0.114 -0.586,-0.172 -0.938,-0.172 -0.406,0 -0.762,0.074 -1.062,0.219 -0.293,0.156 -0.539,0.375 -0.735,0.656 -0.199,0.289 -0.351,0.644 -0.453,1.062 -0.094,0.426 -0.14,0.907 -0.14,1.438 0,0.613 0.05,1.148 0.156,1.609 0.113,0.469 0.273,0.852 0.484,1.156 0.219,0.313 0.477,0.547 0.781,0.704 0.301,0.156 0.645,0.234 1.032,0.234 0.238,0 0.457,-0.027 0.656,-0.078 0.207,-0.043 0.394,-0.121 0.562,-0.235 0.164,-0.105 0.313,-0.25 0.438,-0.437 0.125,-0.18 0.226,-0.399 0.312,-0.656 l -0.843,-0.141 c -0.094,0.289 -0.243,0.5 -0.438,0.625 -0.199,0.133 -0.433,0.203 -0.703,0.203 -0.242,0 -0.461,-0.058 -0.656,-0.172 -0.188,-0.117 -0.352,-0.289 -0.485,-0.515 -0.136,-0.219 -0.246,-0.5 -0.328,-0.844 -0.074,-0.344 -0.109,-0.742 -0.109,-1.188 0.164,0.289 0.391,0.516 0.672,0.672 0.289,0.157 0.625,0.235 1,0.235 0.312,0 0.594,-0.055 0.844,-0.157 0.257,-0.105 0.476,-0.25 0.656,-0.437 0.187,-0.188 0.328,-0.418 0.422,-0.688 0.101,-0.273 0.156,-0.578 0.156,-0.921 z m -0.891,-0.032 c 0,0.227 -0.031,0.438 -0.093,0.625 -0.063,0.196 -0.153,0.364 -0.266,0.5 -0.117,0.133 -0.262,0.239 -0.438,0.313 -0.168,0.07 -0.367,0.109 -0.593,0.109 -0.157,0 -0.321,-0.027 -0.485,-0.078 -0.168,-0.043 -0.32,-0.117 -0.453,-0.219 -0.125,-0.105 -0.23,-0.246 -0.312,-0.422 -0.086,-0.168 -0.125,-0.375 -0.125,-0.625 0,-0.25 0.031,-0.492 0.093,-0.718 0.071,-0.219 0.164,-0.414 0.282,-0.578 0.125,-0.157 0.269,-0.282 0.437,-0.375 0.176,-0.094 0.375,-0.141 0.594,-0.141 0.207,0 0.394,0.035 0.562,0.109 0.164,0.071 0.305,0.176 0.422,0.313 0.125,0.144 0.219,0.316 0.282,0.515 0.062,0.196 0.093,0.422 0.093,0.672 z" /><path
         id="path120"
         style="fill:#000000;fill-opacity:1;fill-rule:nonzero;stroke:none"
         d="m 7.375,29.281 -5.484,0 0,0.703 4.187,5.422 -3.828,0 0,0.75 4.891,0 0,-0.672 -4.188,-5.437 4.422,0 0,-0.766 z" /><path
         id="path122"
         style="fill:#000000;fill-opacity:1;fill-rule:nonzero;stroke:none"
         d="m 9.023,31.953 c 0,-0.305 0.02,-0.586 0.063,-0.844 0.039,-0.25 0.113,-0.469 0.219,-0.656 0.101,-0.18 0.238,-0.32 0.406,-0.422 0.176,-0.105 0.391,-0.156 0.641,-0.156 0.312,0 0.57,0.082 0.781,0.25 0.219,0.176 0.347,0.437 0.39,0.781 l 0.891,-0.047 c -0.031,-0.219 -0.094,-0.433 -0.187,-0.64 -0.094,-0.2 -0.231,-0.375 -0.407,-0.532 -0.168,-0.148 -0.371,-0.265 -0.609,-0.359 -0.242,-0.094 -0.516,-0.141 -0.828,-0.141 -0.418,0 -0.774,0.071 -1.063,0.203 -0.281,0.145 -0.515,0.336 -0.703,0.579 -0.179,0.25 -0.308,0.539 -0.39,0.875 -0.086,0.332 -0.125,0.691 -0.125,1.078 0,0.351 0.023,0.664 0.078,0.937 0.062,0.281 0.144,0.52 0.25,0.719 0.113,0.207 0.238,0.379 0.375,0.516 0.144,0.132 0.3,0.242 0.468,0.328 0.165,0.082 0.344,0.14 0.532,0.172 0.187,0.039 0.375,0.062 0.562,0.062 0.301,0 0.567,-0.043 0.797,-0.125 0.227,-0.074 0.426,-0.184 0.594,-0.328 0.164,-0.137 0.301,-0.305 0.406,-0.5 0.102,-0.188 0.176,-0.398 0.219,-0.625 l -0.906,-0.063 c -0.043,0.29 -0.157,0.52 -0.344,0.688 -0.188,0.176 -0.449,0.266 -0.781,0.266 -0.25,0 -0.465,-0.043 -0.641,-0.125 C 9.543,33.758 9.406,33.633 9.305,33.469 9.199,33.301 9.125,33.086 9.086,32.828 9.043,32.578 9.023,32.285 9.023,31.953 Z" /><path
         id="path124"
         style="fill:#000000;fill-opacity:1;fill-rule:nonzero;stroke:none"
         d="m 16.094,31.875 c 0,0.457 0.031,0.89 0.094,1.297 0.07,0.414 0.179,0.812 0.328,1.187 0.144,0.383 0.332,0.754 0.562,1.11 0.227,0.363 0.5,0.718 0.813,1.062 l 0.843,0 c -0.304,-0.344 -0.57,-0.699 -0.796,-1.062 -0.219,-0.356 -0.403,-0.727 -0.547,-1.11 -0.137,-0.387 -0.243,-0.789 -0.313,-1.203 -0.074,-0.406 -0.109,-0.836 -0.109,-1.281 0,-0.461 0.035,-0.899 0.109,-1.313 0.07,-0.406 0.176,-0.804 0.313,-1.187 0.144,-0.383 0.328,-0.754 0.547,-1.11 0.226,-0.363 0.492,-0.718 0.796,-1.062 l -0.843,0 c -0.313,0.344 -0.586,0.699 -0.813,1.062 -0.23,0.356 -0.418,0.719 -0.562,1.094 -0.149,0.383 -0.258,0.781 -0.328,1.188 -0.063,0.414 -0.094,0.851 -0.094,1.312 l 0,0.016 z" /><path
         id="path126"
         style="fill:#000000;fill-opacity:1;fill-rule:nonzero;stroke:none"
         d="m 22.516,36.265 c 0.488,0 0.929,-0.074 1.328,-0.218 0.394,-0.137 0.726,-0.34 1,-0.61 0.269,-0.261 0.476,-0.586 0.625,-0.968 0.144,-0.375 0.219,-0.805 0.219,-1.282 0,-0.343 -0.047,-0.672 -0.141,-0.984 -0.094,-0.305 -0.231,-0.594 -0.406,-0.875 -0.18,-0.273 -0.399,-0.523 -0.657,-0.75 -0.25,-0.219 -0.539,-0.418 -0.859,-0.594 0.133,0.008 0.266,0.02 0.391,0.031 0.101,0.008 0.211,0.016 0.328,0.016 0.125,0.008 0.222,0.016 0.297,0.016 l 1.187,0 0,-0.766 -2.875,0 0,1.094 c 0.313,0.164 0.578,0.347 0.797,0.547 0.227,0.207 0.414,0.425 0.562,0.656 0.145,0.238 0.25,0.488 0.313,0.75 0.07,0.258 0.109,0.523 0.109,0.797 0,0.383 -0.054,0.722 -0.156,1.015 -0.094,0.29 -0.234,0.536 -0.422,0.735 -0.187,0.207 -0.422,0.363 -0.703,0.469 -0.273,0.101 -0.586,0.156 -0.937,0.156 -0.356,0 -0.672,-0.055 -0.954,-0.156 -0.273,-0.106 -0.5,-0.262 -0.687,-0.469 -0.187,-0.199 -0.336,-0.445 -0.437,-0.735 -0.094,-0.293 -0.141,-0.632 -0.141,-1.015 0,-0.274 0.031,-0.539 0.094,-0.797 0.07,-0.262 0.179,-0.512 0.328,-0.75 0.144,-0.231 0.328,-0.449 0.547,-0.656 0.226,-0.2 0.5,-0.383 0.812,-0.547 l 0,-1.094 -2.875,0 0,0.766 1.188,0 c 0.082,0 0.179,-0.008 0.297,-0.016 0.113,0 0.222,-0.008 0.328,-0.016 0.125,-0.011 0.254,-0.023 0.39,-0.031 -0.312,0.176 -0.601,0.375 -0.859,0.594 -0.262,0.227 -0.481,0.477 -0.656,0.75 -0.18,0.281 -0.313,0.57 -0.407,0.875 -0.093,0.312 -0.14,0.641 -0.14,0.984 0,0.477 0.07,0.907 0.218,1.282 0.145,0.382 0.352,0.707 0.626,0.968 0.281,0.27 0.613,0.473 1,0.61 0.394,0.144 0.835,0.218 1.328,0.218 z" /><path
         id="path128"
         style="fill:#000000;fill-opacity:1;fill-rule:nonzero;stroke:none"
         d="m 28.973,31.859 c 0,-0.461 -0.039,-0.898 -0.11,-1.312 -0.062,-0.407 -0.168,-0.805 -0.312,-1.188 -0.149,-0.375 -0.336,-0.738 -0.563,-1.094 -0.23,-0.363 -0.5,-0.718 -0.812,-1.062 l -0.844,0 c 0.301,0.344 0.563,0.699 0.781,1.062 0.227,0.356 0.41,0.727 0.547,1.11 0.145,0.383 0.254,0.781 0.328,1.187 0.071,0.414 0.11,0.852 0.11,1.313 0,0.445 -0.039,0.875 -0.11,1.281 -0.074,0.414 -0.183,0.816 -0.328,1.203 -0.137,0.383 -0.32,0.754 -0.547,1.11 -0.218,0.363 -0.48,0.718 -0.781,1.062 l 0.844,0 c 0.312,-0.344 0.582,-0.699 0.812,-1.062 0.227,-0.356 0.414,-0.727 0.563,-1.11 0.144,-0.375 0.25,-0.773 0.312,-1.187 0.071,-0.407 0.11,-0.84 0.11,-1.297 l 0,-0.016 z" /></g></g></svg>