<?xml version="1.0" encoding="UTF-8" standalone="no"?>
<svg
   xmlns:dc="http://purl.org/dc/elements/1.1/"
   xmlns:cc="http://creativecommons.org/ns#"
   xmlns:rdf="http://www.w3.org/1999/02/22-rdf-syntax-ns#"
   xmlns:svg="http://www.w3.org/2000/svg"
   xmlns="http://www.w3.org/2000/svg"
   viewBox="0 0 321.45001 80.762505"
   height="80.762505"
   width="321.45001"
   xml:space="preserve"
   version="1.1"
   id="svg2"><metadata
     id="metadata8"><rdf:RDF><cc:Work
         rdf:about=""><dc:format>image/svg+xml</dc:format><dc:type
           rdf:resource="http://purl.org/dc/dcmitype/StillImage" /></cc:Work></rdf:RDF></metadata><defs
     id="defs6" /><g
     transform="matrix(1.25,0,0,-1.25,0,80.762501)"
     id="g10"><g
       id="g12"><path
         id="path14"
         style="fill:#eeeeee;fill-opacity:1;fill-rule:evenodd;stroke:none"
         d="m 0.578,38.532 64,0 0,-38.402 -64,0 0,38.402 z" /><path
         id="path16"
         style="fill:#000000;fill-opacity:1;fill-rule:evenodd;stroke:none"
         d="m 256.578,64.032 -0.5,-0.5 -255,0 -1,1 257,0 -0.5,-0.5 z" /><path
         id="path18"
         style="fill:#000000;fill-opacity:1;fill-rule:evenodd;stroke:none"
         d="m 256.578,51.231 -0.098,-0.5 -255.902,0 0,0.5 0.5,0.5 255,0 0.5,-0.5 z" /><path
         id="path20"
         style="fill:none;stroke:#000000;stroke-width:0.1;stroke-linecap:butt;stroke-linejoin:miter;stroke-miterlimit:10;stroke-dasharray:none;stroke-opacity:1"
         d="m 0.578,38.43 256,0" /><path
         id="path22"
         style="fill:none;stroke:#000000;stroke-width:0.1;stroke-linecap:butt;stroke-linejoin:miter;stroke-miterlimit:10;stroke-dasharray:none;stroke-opacity:1"
         d="m 0.578,25.731 256,0" /><path
         id="path24"
         style="fill:none;stroke:#000000;stroke-width:0.1;stroke-linecap:butt;stroke-linejoin:miter;stroke-miterlimit:10;stroke-dasharray:none;stroke-opacity:1"
         d="m 0.578,12.93 256,0" /><path
         id="path26"
         style="fill:none;stroke:#000000;stroke-width:0.1;stroke-linecap:butt;stroke-linejoin:miter;stroke-miterlimit:10;stroke-dasharray:none;stroke-opacity:1"
         d="m 0.578,0.13 256,0" /><path
         id="path28"
         style="fill:#000000;fill-opacity:1;fill-rule:evenodd;stroke:none"
         d="m 0.578,64.032 0.5,-0.5 0,-11.801 -1,-1 0,13.801 0.5,-0.5 z" /><path
         id="path30"
         style="fill:none;stroke:#000000;stroke-width:0.1;stroke-linecap:butt;stroke-linejoin:miter;stroke-miterlimit:10;stroke-dasharray:none;stroke-opacity:1"
         d="m 0.578,0.13 0,51.101" /><path
         id="path32"
         style="fill:none;stroke:#000000;stroke-width:0.1;stroke-linecap:butt;stroke-linejoin:miter;stroke-miterlimit:10;stroke-dasharray:none;stroke-opacity:1"
         d="m 32.578,0.13 0,51.101" /><path
         id="path34"
         style="fill:#000000;fill-opacity:1;fill-rule:evenodd;stroke:none"
         d="m 64.578,64.032 0.5,-0.5 0,-11.801 -0.5,-0.5 -0.5,0.5 0,11.801 0.5,0.5 z" /><path
         id="path36"
         style="fill:none;stroke:#000000;stroke-width:0.1;stroke-linecap:butt;stroke-linejoin:miter;stroke-miterlimit:10;stroke-dasharray:none;stroke-opacity:1"
         d="m 64.578,0.13 0,51.101" /><path
         id="path38"
         style="fill:#000000;fill-opacity:1;fill-rule:evenodd;stroke:none"
         d="m 128.578,64.032 0.5,-0.5 0,-11.801 -0.5,-0.5 -0.5,0.5 0,11.801 0.5,0.5 z" /><path
         id="path40"
         style="fill:none;stroke:#000000;stroke-width:0.1;stroke-linecap:butt;stroke-linejoin:miter;stroke-miterlimit:10;stroke-dasharray:none;stroke-opacity:1"
         d="m 128.578,0.13 0,51.101" /><path
         id="path42"
         style="fill:#000000;fill-opacity:1;fill-rule:evenodd;stroke:none"
         d="m 192.578,64.032 0.5,-0.5 0,-11.801 -0.5,-0.5 -0.5,0.5 0,11.801 0.5,0.5 z" /><path
         id="path44"
         style="fill:none;stroke:#000000;stroke-width:0.1;stroke-linecap:butt;stroke-linejoin:miter;stroke-miterlimit:10;stroke-dasharray:none;stroke-opacity:1"
         d="m 192.578,0.13 0,51.101" /><path
         id="path46"
         style="fill:#000000;fill-opacity:1;fill-rule:evenodd;stroke:none"
         d="m 256.578,64.032 0.5,0.5 0,-13.801 -1,1 0,11.801 0.5,0.5 z" /><path
         id="path48"
         style="fill:none;stroke:#000000;stroke-width:0.1;stroke-linecap:butt;stroke-linejoin:miter;stroke-miterlimit:10;stroke-dasharray:none;stroke-opacity:1"
         d="m 256.578,0.13 0,51.101" /><path
         id="path50"
         style="fill:#000000;fill-opacity:1;fill-rule:nonzero;stroke:none"
         d="m 32.344,58.848 -0.188,0.485 c -0.086,0.226 -0.164,0.425 -0.234,0.593 -0.063,0.176 -0.133,0.317 -0.203,0.422 -0.074,0.114 -0.157,0.196 -0.25,0.25 -0.094,0.051 -0.203,0.078 -0.328,0.078 -0.043,0 -0.09,-0.007 -0.141,-0.015 -0.055,-0.012 -0.09,-0.024 -0.109,-0.031 l -0.172,0.625 c 0.082,0.031 0.179,0.054 0.297,0.078 0.125,0.031 0.238,0.047 0.343,0.047 0.176,0 0.332,-0.032 0.469,-0.094 0.145,-0.055 0.274,-0.149 0.391,-0.281 0.125,-0.137 0.238,-0.313 0.343,-0.532 0.114,-0.211 0.227,-0.465 0.344,-0.765 l 2.078,-5.578 -0.922,0 -1.015,2.812 c -0.024,0.07 -0.047,0.156 -0.078,0.25 -0.031,0.094 -0.063,0.188 -0.094,0.281 -0.023,0.094 -0.047,0.188 -0.078,0.282 -0.024,0.093 -0.043,0.171 -0.063,0.234 -0.023,-0.063 -0.054,-0.149 -0.093,-0.25 -0.032,-0.094 -0.071,-0.195 -0.11,-0.297 -0.043,-0.094 -0.086,-0.187 -0.125,-0.281 -0.031,-0.094 -0.062,-0.168 -0.094,-0.219 l -1.25,-2.812 -0.921,0 2.203,4.718 z" /><path
         id="path52"
         style="fill:#000000;fill-opacity:1;fill-rule:nonzero;stroke:none"
         d="m 93.953,52.051 c -0.305,0 -0.574,0.032 -0.812,0.094 -0.231,0.063 -0.43,0.153 -0.594,0.266 -0.168,0.117 -0.305,0.258 -0.406,0.422 -0.106,0.156 -0.18,0.336 -0.219,0.531 l 0.89,0.125 c 0.051,-0.25 0.176,-0.438 0.376,-0.563 0.207,-0.132 0.472,-0.203 0.796,-0.203 0.196,0 0.375,0.032 0.532,0.094 0.164,0.055 0.304,0.141 0.422,0.266 0.113,0.117 0.203,0.273 0.265,0.468 0.063,0.2 0.094,0.434 0.094,0.704 l 0,0.859 -0.016,0 c -0.062,-0.137 -0.14,-0.266 -0.234,-0.391 -0.094,-0.117 -0.215,-0.226 -0.359,-0.328 -0.137,-0.094 -0.297,-0.172 -0.485,-0.234 -0.18,-0.051 -0.383,-0.078 -0.609,-0.078 -0.344,0 -0.637,0.054 -0.875,0.172 -0.242,0.113 -0.438,0.281 -0.594,0.5 -0.148,0.226 -0.258,0.507 -0.328,0.843 -0.063,0.332 -0.094,0.719 -0.094,1.157 0,0.425 0.031,0.804 0.094,1.14 0.07,0.344 0.187,0.629 0.344,0.86 0.164,0.238 0.375,0.421 0.625,0.546 0.25,0.125 0.554,0.188 0.922,0.188 0.374,0 0.695,-0.086 0.968,-0.25 0.282,-0.168 0.492,-0.414 0.641,-0.734 l 0.015,0 c 0,0.082 0,0.175 0,0.281 0,0.101 0,0.195 0,0.281 0.008,0.094 0.02,0.172 0.032,0.234 0.008,0.063 0.015,0.098 0.015,0.11 l 0.844,0 c -0.012,-0.031 -0.015,-0.086 -0.015,-0.156 0,-0.063 -0.008,-0.149 -0.016,-0.25 0,-0.094 0,-0.204 0,-0.329 0,-0.117 0,-0.234 0,-0.359 l 0,-4.031 c 0,-0.738 -0.184,-1.297 -0.547,-1.672 -0.367,-0.375 -0.922,-0.563 -1.672,-0.563 z m 1.344,4.719 c 0,0.363 -0.043,0.676 -0.125,0.938 -0.074,0.269 -0.18,0.488 -0.313,0.656 -0.125,0.164 -0.277,0.285 -0.453,0.359 -0.168,0.082 -0.336,0.125 -0.5,0.125 -0.23,0 -0.429,-0.043 -0.594,-0.125 -0.156,-0.074 -0.289,-0.199 -0.39,-0.375 -0.106,-0.168 -0.184,-0.383 -0.234,-0.64 -0.055,-0.262 -0.079,-0.575 -0.079,-0.938 0,-0.375 0.024,-0.695 0.079,-0.953 0.05,-0.262 0.128,-0.477 0.234,-0.641 0.101,-0.156 0.234,-0.273 0.39,-0.343 0.157,-0.063 0.348,-0.094 0.579,-0.094 0.164,0 0.332,0.035 0.5,0.109 0.175,0.071 0.328,0.192 0.453,0.36 0.133,0.164 0.242,0.375 0.328,0.625 0.082,0.257 0.125,0.57 0.125,0.937 z" /><path
         id="path54"
         style="fill:#000000;fill-opacity:1;fill-rule:nonzero;stroke:none"
         d="m 100.855,54.13 -1.781,2.406 -0.656,-0.531 0,-1.875 -0.875,0 0,7.25 0.875,0 0,-4.532 2.328,2.563 1.031,0 -2.14,-2.266 2.25,-3.015 -1.032,0 z" /><path
         id="path56"
         style="fill:#000000;fill-opacity:1;fill-rule:nonzero;stroke:none"
         d="m 150.254,54.13 -1.109,0 -1.188,4.375 c -0.043,0.125 -0.086,0.269 -0.125,0.437 -0.043,0.164 -0.078,0.328 -0.109,0.484 -0.032,0.176 -0.071,0.36 -0.11,0.547 -0.043,-0.187 -0.086,-0.375 -0.125,-0.562 -0.031,-0.156 -0.07,-0.321 -0.109,-0.485 -0.043,-0.156 -0.078,-0.296 -0.109,-0.421 l -1.204,-4.375 -1.109,0 -2.031,6.875 0.969,0 1.234,-4.36 c 0.051,-0.211 0.101,-0.418 0.156,-0.625 0.051,-0.199 0.098,-0.375 0.141,-0.531 0.039,-0.188 0.078,-0.367 0.109,-0.531 0.051,0.218 0.102,0.437 0.156,0.656 0.02,0.094 0.039,0.187 0.063,0.281 0.019,0.102 0.039,0.203 0.062,0.297 0.032,0.102 0.055,0.195 0.079,0.281 0.031,0.094 0.054,0.176 0.078,0.25 l 1.187,4.282 0.891,0 1.203,-4.282 c 0.019,-0.074 0.039,-0.156 0.062,-0.25 0.02,-0.086 0.039,-0.179 0.063,-0.281 0.031,-0.094 0.055,-0.195 0.078,-0.297 0.02,-0.094 0.047,-0.187 0.078,-0.281 0.051,-0.219 0.098,-0.438 0.141,-0.656 0.008,0 0.023,0.05 0.047,0.156 0.031,0.113 0.062,0.254 0.093,0.422 0.039,0.176 0.082,0.359 0.125,0.547 0.051,0.195 0.102,0.382 0.157,0.562 l 1.218,4.36 0.969,0 -2.031,-6.875 z" /><path
         id="path58"
         style="fill:#000000;fill-opacity:1;fill-rule:nonzero;stroke:none"
         d="m 155.695,56.723 c 0,0.457 0.032,0.891 0.094,1.297 0.07,0.414 0.18,0.813 0.328,1.188 0.145,0.382 0.332,0.754 0.563,1.109 0.226,0.363 0.5,0.719 0.812,1.063 l 0.844,0 c -0.305,-0.344 -0.57,-0.7 -0.797,-1.063 -0.219,-0.355 -0.402,-0.727 -0.547,-1.109 -0.137,-0.387 -0.242,-0.789 -0.312,-1.203 -0.075,-0.407 -0.11,-0.836 -0.11,-1.282 0,-0.461 0.035,-0.898 0.11,-1.312 0.07,-0.406 0.175,-0.805 0.312,-1.188 0.145,-0.383 0.328,-0.754 0.547,-1.109 0.227,-0.363 0.492,-0.719 0.797,-1.063 l -0.844,0 c -0.312,0.344 -0.586,0.7 -0.812,1.063 -0.231,0.355 -0.418,0.719 -0.563,1.094 -0.148,0.382 -0.258,0.781 -0.328,1.187 -0.062,0.414 -0.094,0.852 -0.094,1.313 l 0,0.015 z" /><path
         id="path60"
         style="fill:#000000;fill-opacity:1;fill-rule:nonzero;stroke:none"
         d="m 162.121,54.13 0,3.343 c 0,0.258 -0.016,0.473 -0.047,0.641 -0.031,0.176 -0.09,0.316 -0.172,0.422 -0.074,0.113 -0.172,0.191 -0.297,0.234 -0.125,0.039 -0.277,0.063 -0.453,0.063 -0.187,0 -0.355,-0.039 -0.5,-0.11 -0.148,-0.074 -0.277,-0.183 -0.39,-0.328 -0.106,-0.137 -0.188,-0.308 -0.25,-0.515 -0.055,-0.2 -0.078,-0.43 -0.078,-0.688 l 0,-3.062 -0.875,0 0,4.156 c 0,0.113 0,0.226 0,0.344 0,0.125 -0.008,0.238 -0.016,0.343 0,0.114 0,0.207 0,0.282 0,0.082 0,0.132 0,0.156 l 0.828,0 c 0,-0.012 0,-0.055 0,-0.125 0.008,-0.074 0.016,-0.156 0.016,-0.25 0.008,-0.094 0.015,-0.188 0.015,-0.281 0,-0.094 0,-0.18 0,-0.25 l 0.016,0 c 0.082,0.156 0.164,0.296 0.25,0.421 0.094,0.125 0.203,0.227 0.328,0.313 0.125,0.082 0.266,0.144 0.422,0.187 0.156,0.051 0.336,0.079 0.547,0.079 0.394,0 0.707,-0.079 0.937,-0.235 0.239,-0.156 0.407,-0.414 0.5,-0.765 l 0.016,0 c 0.07,0.156 0.156,0.296 0.25,0.421 0.102,0.125 0.219,0.227 0.344,0.313 0.133,0.082 0.281,0.144 0.437,0.187 0.164,0.051 0.352,0.079 0.563,0.079 0.269,0 0.5,-0.04 0.687,-0.11 0.196,-0.062 0.36,-0.172 0.485,-0.328 0.125,-0.148 0.211,-0.34 0.265,-0.578 0.063,-0.231 0.094,-0.512 0.094,-0.844 l 0,-3.515 -0.875,0 0,3.343 c 0,0.258 -0.016,0.473 -0.047,0.641 -0.031,0.176 -0.09,0.316 -0.172,0.422 -0.074,0.113 -0.172,0.191 -0.297,0.234 -0.117,0.039 -0.265,0.063 -0.453,0.063 -0.179,0 -0.344,-0.039 -0.5,-0.11 -0.148,-0.062 -0.273,-0.168 -0.375,-0.312 -0.105,-0.137 -0.187,-0.309 -0.25,-0.516 -0.054,-0.199 -0.078,-0.433 -0.078,-0.703 l 0,-3.062 -0.875,0 z" /><path
         id="path62"
         style="fill:#000000;fill-opacity:1;fill-rule:nonzero;stroke:none"
         d="m 170.422,54.13 0,3.343 c 0,0.258 -0.016,0.473 -0.047,0.641 -0.031,0.176 -0.09,0.316 -0.172,0.422 -0.074,0.113 -0.172,0.191 -0.297,0.234 -0.125,0.039 -0.277,0.063 -0.453,0.063 -0.187,0 -0.355,-0.039 -0.5,-0.11 -0.148,-0.074 -0.277,-0.183 -0.391,-0.328 -0.105,-0.137 -0.187,-0.308 -0.25,-0.515 -0.054,-0.2 -0.078,-0.43 -0.078,-0.688 l 0,-3.062 -0.875,0 0,4.156 c 0,0.113 0,0.226 0,0.344 0,0.125 -0.007,0.238 -0.015,0.343 0,0.114 0,0.207 0,0.282 0,0.082 0,0.132 0,0.156 l 0.828,0 c 0,-0.012 0,-0.055 0,-0.125 0.008,-0.074 0.016,-0.156 0.016,-0.25 0.007,-0.094 0.015,-0.188 0.015,-0.281 0,-0.094 0,-0.18 0,-0.25 l 0.016,0 c 0.082,0.156 0.164,0.296 0.25,0.421 0.093,0.125 0.203,0.227 0.328,0.313 0.125,0.082 0.265,0.144 0.422,0.187 0.156,0.051 0.336,0.079 0.547,0.079 0.394,0 0.707,-0.079 0.937,-0.235 0.238,-0.156 0.406,-0.414 0.5,-0.765 l 0.016,0 c 0.07,0.156 0.156,0.296 0.25,0.421 0.101,0.125 0.219,0.227 0.343,0.313 0.133,0.082 0.282,0.144 0.438,0.187 0.164,0.051 0.352,0.079 0.562,0.079 0.27,0 0.5,-0.04 0.688,-0.11 0.195,-0.062 0.359,-0.172 0.484,-0.328 0.125,-0.148 0.211,-0.34 0.266,-0.578 0.062,-0.231 0.094,-0.512 0.094,-0.844 l 0,-3.515 -0.875,0 0,3.343 c 0,0.258 -0.016,0.473 -0.047,0.641 -0.031,0.176 -0.09,0.316 -0.172,0.422 -0.074,0.113 -0.172,0.191 -0.297,0.234 -0.117,0.039 -0.265,0.063 -0.453,0.063 -0.18,0 -0.344,-0.039 -0.5,-0.11 -0.148,-0.062 -0.273,-0.168 -0.375,-0.312 -0.105,-0.137 -0.187,-0.309 -0.25,-0.516 -0.055,-0.199 -0.078,-0.433 -0.078,-0.703 l 0,-3.062 -0.875,0 z" /><path
         id="path64"
         style="fill:#000000;fill-opacity:1;fill-rule:nonzero;stroke:none"
         d="m 177.672,56.708 c 0,-0.461 -0.039,-0.899 -0.11,-1.313 -0.062,-0.406 -0.167,-0.805 -0.312,-1.187 -0.148,-0.375 -0.336,-0.739 -0.562,-1.094 -0.231,-0.363 -0.5,-0.719 -0.813,-1.063 l -0.844,0 c 0.301,0.344 0.563,0.7 0.781,1.063 0.227,0.355 0.411,0.726 0.547,1.109 0.145,0.383 0.254,0.782 0.329,1.188 0.07,0.414 0.109,0.851 0.109,1.312 0,0.446 -0.039,0.875 -0.109,1.282 -0.075,0.414 -0.184,0.816 -0.329,1.203 -0.136,0.382 -0.32,0.754 -0.547,1.109 -0.218,0.363 -0.48,0.719 -0.781,1.063 l 0.844,0 c 0.313,-0.344 0.582,-0.7 0.813,-1.063 0.226,-0.355 0.414,-0.727 0.562,-1.109 0.145,-0.375 0.25,-0.774 0.312,-1.188 0.071,-0.406 0.11,-0.84 0.11,-1.297 l 0,-0.015 z" /><path
         id="path66"
         style="fill:#000000;fill-opacity:1;fill-rule:nonzero;stroke:none"
         d="m 209.809,54.13 0,6.875 0.921,0 0,-6.11 3.485,0 0,-0.765 -4.406,0 z" /><path
         id="path68"
         style="fill:#000000;fill-opacity:1;fill-rule:nonzero;stroke:none"
         d="m 217.594,56.723 c 0,0.457 0.031,0.891 0.094,1.297 0.07,0.414 0.179,0.813 0.328,1.188 0.144,0.382 0.332,0.754 0.562,1.109 0.227,0.363 0.5,0.719 0.813,1.063 l 0.843,0 c -0.304,-0.344 -0.57,-0.7 -0.796,-1.063 -0.219,-0.355 -0.403,-0.727 -0.547,-1.109 -0.137,-0.387 -0.243,-0.789 -0.313,-1.203 -0.074,-0.407 -0.109,-0.836 -0.109,-1.282 0,-0.461 0.035,-0.898 0.109,-1.312 0.07,-0.406 0.176,-0.805 0.313,-1.188 0.144,-0.383 0.328,-0.754 0.547,-1.109 0.226,-0.363 0.492,-0.719 0.796,-1.063 l -0.843,0 c -0.313,0.344 -0.586,0.7 -0.813,1.063 -0.23,0.355 -0.418,0.719 -0.562,1.094 -0.149,0.382 -0.258,0.781 -0.328,1.187 -0.063,0.414 -0.094,0.852 -0.094,1.313 l 0,0.015 z" /><path
         id="path70"
         style="fill:#000000;fill-opacity:1;fill-rule:nonzero;stroke:none"
         d="m 224.02,54.13 0,3.343 c 0,0.258 -0.016,0.473 -0.047,0.641 -0.032,0.176 -0.09,0.316 -0.172,0.422 -0.074,0.113 -0.172,0.191 -0.297,0.234 -0.125,0.039 -0.277,0.063 -0.453,0.063 -0.188,0 -0.356,-0.039 -0.5,-0.11 -0.149,-0.074 -0.278,-0.183 -0.391,-0.328 -0.105,-0.137 -0.187,-0.308 -0.25,-0.515 -0.055,-0.2 -0.078,-0.43 -0.078,-0.688 l 0,-3.062 -0.875,0 0,4.156 c 0,0.113 0,0.226 0,0.344 0,0.125 -0.008,0.238 -0.016,0.343 0,0.114 0,0.207 0,0.282 0,0.082 0,0.132 0,0.156 l 0.829,0 c 0,-0.012 0,-0.055 0,-0.125 0.007,-0.074 0.015,-0.156 0.015,-0.25 0.008,-0.094 0.016,-0.188 0.016,-0.281 0,-0.094 0,-0.18 0,-0.25 l 0.015,0 c 0.082,0.156 0.164,0.296 0.25,0.421 0.094,0.125 0.204,0.227 0.329,0.313 0.125,0.082 0.265,0.144 0.421,0.187 0.157,0.051 0.336,0.079 0.547,0.079 0.395,0 0.707,-0.079 0.938,-0.235 0.238,-0.156 0.406,-0.414 0.5,-0.765 l 0.015,0 c 0.071,0.156 0.157,0.296 0.25,0.421 0.102,0.125 0.219,0.227 0.344,0.313 0.133,0.082 0.281,0.144 0.438,0.187 0.164,0.051 0.351,0.079 0.562,0.079 0.27,0 0.5,-0.04 0.688,-0.11 0.195,-0.062 0.359,-0.172 0.484,-0.328 0.125,-0.148 0.211,-0.34 0.266,-0.578 0.062,-0.231 0.093,-0.512 0.093,-0.844 l 0,-3.515 -0.875,0 0,3.343 c 0,0.258 -0.015,0.473 -0.046,0.641 -0.032,0.176 -0.09,0.316 -0.172,0.422 -0.075,0.113 -0.172,0.191 -0.297,0.234 -0.117,0.039 -0.266,0.063 -0.453,0.063 -0.18,0 -0.344,-0.039 -0.5,-0.11 -0.149,-0.062 -0.274,-0.168 -0.375,-0.312 -0.106,-0.137 -0.188,-0.309 -0.25,-0.516 -0.055,-0.199 -0.078,-0.433 -0.078,-0.703 l 0,-3.062 -0.875,0 z" /><path
         id="path72"
         style="fill:#000000;fill-opacity:1;fill-rule:nonzero;stroke:none"
         d="m 232.32,54.13 0,3.343 c 0,0.258 -0.015,0.473 -0.047,0.641 -0.031,0.176 -0.089,0.316 -0.171,0.422 -0.075,0.113 -0.172,0.191 -0.297,0.234 -0.125,0.039 -0.278,0.063 -0.453,0.063 -0.188,0 -0.356,-0.039 -0.5,-0.11 -0.149,-0.074 -0.278,-0.183 -0.391,-0.328 -0.106,-0.137 -0.188,-0.308 -0.25,-0.515 -0.055,-0.2 -0.078,-0.43 -0.078,-0.688 l 0,-3.062 -0.875,0 0,4.156 c 0,0.113 0,0.226 0,0.344 0,0.125 -0.008,0.238 -0.016,0.343 0,0.114 0,0.207 0,0.282 0,0.082 0,0.132 0,0.156 l 0.828,0 c 0,-0.012 0,-0.055 0,-0.125 0.008,-0.074 0.016,-0.156 0.016,-0.25 0.008,-0.094 0.016,-0.188 0.016,-0.281 0,-0.094 0,-0.18 0,-0.25 l 0.015,0 c 0.082,0.156 0.164,0.296 0.25,0.421 0.094,0.125 0.203,0.227 0.328,0.313 0.125,0.082 0.266,0.144 0.422,0.187 0.156,0.051 0.336,0.079 0.547,0.079 0.395,0 0.707,-0.079 0.938,-0.235 0.238,-0.156 0.406,-0.414 0.5,-0.765 l 0.015,0 c 0.071,0.156 0.156,0.296 0.25,0.421 0.102,0.125 0.219,0.227 0.344,0.313 0.133,0.082 0.281,0.144 0.437,0.187 0.164,0.051 0.352,0.079 0.563,0.079 0.269,0 0.5,-0.04 0.687,-0.11 0.196,-0.062 0.36,-0.172 0.485,-0.328 0.125,-0.148 0.211,-0.34 0.265,-0.578 0.063,-0.231 0.094,-0.512 0.094,-0.844 l 0,-3.515 -0.875,0 0,3.343 c 0,0.258 -0.015,0.473 -0.047,0.641 -0.031,0.176 -0.09,0.316 -0.172,0.422 -0.074,0.113 -0.171,0.191 -0.296,0.234 -0.118,0.039 -0.266,0.063 -0.454,0.063 -0.179,0 -0.343,-0.039 -0.5,-0.11 -0.148,-0.062 -0.273,-0.168 -0.375,-0.312 -0.105,-0.137 -0.187,-0.309 -0.25,-0.516 -0.054,-0.199 -0.078,-0.433 -0.078,-0.703 l 0,-3.062 -0.875,0 z" /><path
         id="path74"
         style="fill:#000000;fill-opacity:1;fill-rule:nonzero;stroke:none"
         d="m 239.574,56.708 c 0,-0.461 -0.039,-0.899 -0.109,-1.313 -0.063,-0.406 -0.168,-0.805 -0.313,-1.187 -0.148,-0.375 -0.336,-0.739 -0.562,-1.094 -0.231,-0.363 -0.5,-0.719 -0.813,-1.063 l -0.843,0 c 0.3,0.344 0.562,0.7 0.781,1.063 0.226,0.355 0.41,0.726 0.547,1.109 0.144,0.383 0.254,0.782 0.328,1.188 0.07,0.414 0.109,0.851 0.109,1.312 0,0.446 -0.039,0.875 -0.109,1.282 -0.074,0.414 -0.184,0.816 -0.328,1.203 -0.137,0.382 -0.321,0.754 -0.547,1.109 -0.219,0.363 -0.481,0.719 -0.781,1.063 l 0.843,0 c 0.313,-0.344 0.582,-0.7 0.813,-1.063 0.226,-0.355 0.414,-0.727 0.562,-1.109 0.145,-0.375 0.25,-0.774 0.313,-1.188 0.07,-0.406 0.109,-0.84 0.109,-1.297 l 0,-0.015 z" /><path
         id="path76"
         style="fill:#000000;fill-opacity:1;fill-rule:nonzero;stroke:none"
         d="m 12.145,46.048 -0.188,0.484 c -0.086,0.226 -0.164,0.426 -0.234,0.594 -0.063,0.175 -0.133,0.316 -0.203,0.422 -0.075,0.113 -0.157,0.195 -0.25,0.25 -0.094,0.05 -0.204,0.078 -0.329,0.078 -0.043,0 -0.089,-0.008 -0.14,-0.016 -0.055,-0.012 -0.09,-0.023 -0.11,-0.031 l -0.171,0.625 c 0.082,0.031 0.179,0.054 0.296,0.078 0.125,0.031 0.239,0.047 0.344,0.047 0.176,0 0.332,-0.031 0.469,-0.094 0.144,-0.055 0.273,-0.148 0.391,-0.281 0.125,-0.137 0.238,-0.313 0.343,-0.531 0.114,-0.211 0.227,-0.465 0.344,-0.766 l 2.078,-5.578 -0.922,0 -1.015,2.812 c -0.024,0.071 -0.047,0.157 -0.078,0.25 -0.032,0.094 -0.063,0.188 -0.094,0.282 -0.024,0.093 -0.047,0.187 -0.078,0.281 -0.024,0.094 -0.043,0.172 -0.063,0.234 -0.023,-0.062 -0.055,-0.148 -0.094,-0.25 -0.031,-0.094 -0.07,-0.195 -0.109,-0.297 -0.043,-0.093 -0.086,-0.187 -0.125,-0.281 -0.031,-0.094 -0.062,-0.168 -0.094,-0.219 l -1.25,-2.812 -0.922,0 2.204,4.719 z" /><path
         id="path78"
         style="fill:#000000;fill-opacity:1;fill-rule:nonzero;stroke:none"
         d="m 14.879,41.235 2,7.344 0.781,0 -1.984,-7.344 -0.797,0 z" /><path
         id="path80"
         style="fill:#000000;fill-opacity:1;fill-rule:nonzero;stroke:none"
         d="m 21.969,42.891 0,-1.562 -0.828,0 0,1.562 -3.235,0 0,0.672 3.141,4.641 0.922,0 0,-4.625 0.969,0 0,-0.688 -0.969,0 z m -0.828,4.328 c 0,-0.023 -0.016,-0.058 -0.047,-0.109 C 21.07,47.067 21.039,47.016 21,46.954 20.969,46.899 20.938,46.844 20.906,46.782 20.875,46.719 20.844,46.673 20.812,46.641 l -1.765,-2.609 c -0.012,-0.024 -0.031,-0.055 -0.063,-0.094 -0.031,-0.043 -0.062,-0.09 -0.093,-0.14 -0.032,-0.043 -0.071,-0.086 -0.11,-0.125 -0.031,-0.043 -0.054,-0.075 -0.062,-0.094 l 2.422,0 0,3.64 z" /><path
         id="path82"
         style="fill:#000000;fill-opacity:1;fill-rule:nonzero;stroke:none"
         d="m 46.074,44.907 c 0,-0.617 -0.062,-1.152 -0.187,-1.609 -0.117,-0.461 -0.282,-0.844 -0.5,-1.157 -0.211,-0.304 -0.469,-0.531 -0.782,-0.687 -0.304,-0.145 -0.648,-0.219 -1.031,-0.219 -0.262,0 -0.5,0.027 -0.719,0.078 -0.21,0.051 -0.398,0.133 -0.562,0.25 -0.168,0.113 -0.309,0.258 -0.422,0.438 -0.117,0.187 -0.211,0.41 -0.281,0.672 l 0.844,0.125 c 0.093,-0.293 0.234,-0.512 0.421,-0.657 0.196,-0.136 0.442,-0.203 0.735,-0.203 0.238,0 0.457,0.055 0.656,0.172 0.195,0.113 0.363,0.281 0.5,0.5 0.133,0.227 0.238,0.508 0.313,0.844 0.082,0.344 0.129,0.742 0.14,1.203 -0.074,-0.156 -0.168,-0.297 -0.281,-0.422 -0.117,-0.117 -0.25,-0.215 -0.406,-0.297 -0.149,-0.086 -0.309,-0.152 -0.485,-0.203 -0.179,-0.043 -0.355,-0.062 -0.531,-0.062 -0.312,0 -0.601,0.054 -0.859,0.171 -0.25,0.114 -0.465,0.27 -0.641,0.469 -0.18,0.207 -0.312,0.453 -0.406,0.735 -0.094,0.281 -0.141,0.597 -0.141,0.953 0,0.351 0.051,0.672 0.156,0.953 0.102,0.289 0.25,0.535 0.438,0.734 0.195,0.195 0.437,0.348 0.719,0.453 0.289,0.114 0.617,0.172 0.984,0.172 0.758,0 1.336,-0.289 1.734,-0.859 0.395,-0.563 0.594,-1.414 0.594,-2.547 z m -0.969,0.844 c 0,0.257 -0.031,0.5 -0.093,0.718 -0.055,0.227 -0.141,0.426 -0.266,0.594 -0.117,0.164 -0.262,0.297 -0.437,0.391 -0.168,0.094 -0.368,0.14 -0.594,0.14 -0.219,0 -0.414,-0.039 -0.578,-0.109 -0.168,-0.074 -0.313,-0.184 -0.438,-0.328 -0.117,-0.137 -0.203,-0.305 -0.265,-0.5 -0.063,-0.199 -0.094,-0.418 -0.094,-0.656 0,-0.231 0.023,-0.45 0.078,-0.657 0.062,-0.199 0.148,-0.371 0.266,-0.515 0.113,-0.137 0.254,-0.246 0.421,-0.328 0.176,-0.086 0.375,-0.125 0.594,-0.125 0.164,0 0.332,0.023 0.5,0.078 0.164,0.051 0.317,0.133 0.453,0.25 0.133,0.113 0.243,0.258 0.328,0.437 0.082,0.176 0.125,0.379 0.125,0.61 z" /><path
         id="path84"
         style="fill:#000000;fill-opacity:1;fill-rule:nonzero;stroke:none"
         d="m 51.742,44.766 c 0,-0.656 -0.062,-1.215 -0.187,-1.672 -0.125,-0.449 -0.297,-0.812 -0.516,-1.093 -0.219,-0.274 -0.477,-0.469 -0.766,-0.594 -0.293,-0.113 -0.605,-0.172 -0.937,-0.172 -0.336,0 -0.648,0.059 -0.938,0.172 -0.293,0.125 -0.546,0.32 -0.765,0.594 -0.211,0.281 -0.375,0.644 -0.5,1.093 -0.117,0.457 -0.172,1.016 -0.172,1.672 0,0.696 0.055,1.27 0.172,1.719 0.125,0.457 0.297,0.82 0.515,1.094 0.219,0.269 0.473,0.457 0.766,0.562 0.289,0.114 0.609,0.172 0.953,0.172 0.332,0 0.641,-0.058 0.922,-0.172 0.289,-0.105 0.539,-0.293 0.75,-0.562 0.219,-0.274 0.391,-0.637 0.516,-1.094 0.125,-0.449 0.187,-1.023 0.187,-1.719 z m -0.89,0 c 0,0.551 -0.04,1.008 -0.11,1.375 -0.062,0.364 -0.156,0.649 -0.281,0.86 -0.125,0.218 -0.281,0.367 -0.469,0.453 -0.18,0.094 -0.387,0.14 -0.625,0.14 -0.25,0 -0.469,-0.046 -0.656,-0.14 -0.188,-0.086 -0.352,-0.235 -0.484,-0.453 -0.125,-0.219 -0.219,-0.512 -0.282,-0.875 -0.062,-0.356 -0.093,-0.809 -0.093,-1.36 0,-0.523 0.031,-0.965 0.093,-1.328 0.071,-0.367 0.172,-0.656 0.297,-0.875 0.125,-0.219 0.281,-0.375 0.469,-0.469 0.187,-0.093 0.398,-0.14 0.641,-0.14 0.226,0 0.437,0.047 0.625,0.14 0.187,0.094 0.343,0.25 0.468,0.469 0.125,0.219 0.223,0.508 0.297,0.875 0.07,0.363 0.11,0.805 0.11,1.328 z" /><path
         id="path86"
         style="fill:#000000;fill-opacity:1;fill-rule:nonzero;stroke:none"
         d="m 55.566,46.923 c 0,-0.2 -0.043,-0.383 -0.125,-0.547 -0.074,-0.168 -0.171,-0.313 -0.296,-0.438 -0.125,-0.125 -0.278,-0.226 -0.454,-0.297 -0.168,-0.074 -0.343,-0.109 -0.531,-0.109 -0.199,0 -0.383,0.035 -0.547,0.109 -0.168,0.071 -0.312,0.172 -0.437,0.297 -0.125,0.125 -0.231,0.27 -0.313,0.438 -0.074,0.164 -0.109,0.347 -0.109,0.547 0,0.195 0.035,0.378 0.109,0.546 0.082,0.164 0.188,0.313 0.313,0.438 0.125,0.125 0.269,0.223 0.437,0.297 0.164,0.07 0.348,0.109 0.547,0.109 0.188,0 0.363,-0.039 0.531,-0.109 0.176,-0.074 0.329,-0.172 0.454,-0.297 0.125,-0.125 0.222,-0.274 0.296,-0.438 0.082,-0.168 0.125,-0.351 0.125,-0.546 z m -0.546,0 c 0,0.113 -0.024,0.222 -0.063,0.328 -0.043,0.113 -0.105,0.207 -0.187,0.281 -0.075,0.082 -0.165,0.144 -0.266,0.187 -0.106,0.051 -0.219,0.079 -0.344,0.079 -0.125,0 -0.242,-0.028 -0.344,-0.079 -0.105,-0.043 -0.199,-0.105 -0.281,-0.187 -0.074,-0.074 -0.137,-0.168 -0.187,-0.281 -0.043,-0.106 -0.063,-0.215 -0.063,-0.328 0,-0.125 0.02,-0.243 0.063,-0.344 0.05,-0.106 0.113,-0.199 0.187,-0.281 0.082,-0.075 0.176,-0.137 0.281,-0.188 0.102,-0.043 0.219,-0.062 0.344,-0.062 0.125,0 0.238,0.019 0.344,0.062 0.101,0.051 0.191,0.113 0.266,0.188 0.082,0.082 0.144,0.175 0.187,0.281 0.039,0.101 0.063,0.219 0.063,0.344 z" /><path
         id="path88"
         style="fill:#000000;fill-opacity:1;fill-rule:nonzero;stroke:none"
         d="m 94.547,41.329 0,0.75 1.75,0 0,5.297 -1.547,-1.11 0,0.828 1.625,1.11 0.813,0 0,-6.125 1.671,0 0,-0.75 -4.312,0 z" /><path
         id="path90"
         style="fill:#000000;fill-opacity:1;fill-rule:nonzero;stroke:none"
         d="m 142.879,41.329 0,0.625 c 0.164,0.375 0.367,0.707 0.609,1 0.239,0.289 0.489,0.554 0.75,0.797 0.27,0.238 0.532,0.457 0.782,0.656 0.257,0.195 0.492,0.394 0.703,0.594 0.207,0.207 0.375,0.422 0.5,0.64 0.132,0.227 0.203,0.477 0.203,0.75 0,0.196 -0.031,0.367 -0.094,0.516 -0.055,0.156 -0.137,0.281 -0.25,0.375 -0.105,0.101 -0.234,0.18 -0.391,0.234 -0.156,0.051 -0.328,0.078 -0.515,0.078 -0.18,0 -0.344,-0.027 -0.5,-0.078 -0.156,-0.054 -0.297,-0.125 -0.422,-0.218 -0.117,-0.094 -0.215,-0.215 -0.297,-0.36 -0.074,-0.148 -0.121,-0.32 -0.141,-0.515 l -0.89,0.093 c 0.031,0.239 0.097,0.469 0.203,0.688 0.101,0.219 0.25,0.41 0.437,0.578 0.188,0.164 0.411,0.297 0.672,0.391 0.27,0.093 0.582,0.14 0.938,0.14 0.344,0 0.644,-0.043 0.906,-0.125 0.27,-0.086 0.492,-0.203 0.672,-0.359 0.187,-0.156 0.328,-0.356 0.422,-0.594 0.101,-0.23 0.156,-0.5 0.156,-0.812 0,-0.231 -0.043,-0.45 -0.125,-0.657 -0.086,-0.211 -0.199,-0.406 -0.344,-0.593 -0.136,-0.188 -0.297,-0.372 -0.484,-0.547 -0.18,-0.18 -0.367,-0.352 -0.563,-0.516 -0.199,-0.168 -0.398,-0.336 -0.593,-0.5 -0.2,-0.168 -0.391,-0.336 -0.578,-0.5 -0.18,-0.168 -0.336,-0.336 -0.469,-0.5 -0.137,-0.168 -0.246,-0.344 -0.328,-0.531 l 3.593,0 0,-0.75 -4.562,0 z" /><path
         id="path92"
         style="fill:#000000;fill-opacity:1;fill-rule:nonzero;stroke:none"
         d="m 149.844,42.391 0,-0.812 c 0,-0.18 -0.008,-0.332 -0.016,-0.469 -0.012,-0.145 -0.039,-0.273 -0.078,-0.391 -0.031,-0.125 -0.074,-0.238 -0.125,-0.343 -0.043,-0.114 -0.094,-0.223 -0.156,-0.328 l -0.594,0 c 0.145,0.21 0.254,0.421 0.328,0.64 0.082,0.219 0.125,0.434 0.125,0.641 l -0.437,0 0,1.062 0.953,0 z" /><path
         id="path94"
         style="fill:#000000;fill-opacity:1;fill-rule:nonzero;stroke:none"
         d="m 155.824,47.501 c -0.344,-0.532 -0.664,-1.043 -0.953,-1.532 -0.293,-0.48 -0.543,-0.968 -0.75,-1.468 -0.211,-0.493 -0.371,-0.996 -0.484,-1.516 -0.117,-0.523 -0.172,-1.074 -0.172,-1.656 l -0.922,0 c 0,0.551 0.062,1.086 0.187,1.609 0.133,0.531 0.313,1.051 0.532,1.563 0.226,0.507 0.488,1.007 0.781,1.5 0.289,0.5 0.598,0.988 0.922,1.468 l -3.688,0 0,0.735 4.547,0 0,-0.703 z" /><path
         id="path96"
         style="fill:#000000;fill-opacity:1;fill-rule:nonzero;stroke:none"
         d="m 161.477,43.251 c 0,-0.293 -0.047,-0.563 -0.141,-0.813 -0.094,-0.242 -0.234,-0.453 -0.422,-0.64 -0.187,-0.18 -0.434,-0.321 -0.734,-0.422 -0.293,-0.094 -0.641,-0.141 -1.047,-0.141 -0.406,0 -0.758,0.047 -1.047,0.141 -0.293,0.101 -0.539,0.242 -0.734,0.422 -0.188,0.175 -0.329,0.382 -0.422,0.625 -0.094,0.25 -0.141,0.519 -0.141,0.812 0,0.25 0.035,0.473 0.109,0.672 0.082,0.195 0.188,0.363 0.313,0.5 0.125,0.144 0.269,0.258 0.437,0.344 0.164,0.093 0.336,0.148 0.516,0.172 l 0,0.031 c -0.199,0.039 -0.375,0.109 -0.531,0.203 -0.149,0.101 -0.274,0.226 -0.375,0.375 -0.106,0.144 -0.184,0.301 -0.235,0.469 -0.054,0.175 -0.078,0.359 -0.078,0.547 0,0.238 0.047,0.46 0.141,0.671 0.094,0.219 0.226,0.407 0.406,0.563 0.188,0.164 0.414,0.297 0.688,0.391 0.269,0.093 0.582,0.14 0.937,0.14 0.375,0 0.695,-0.047 0.969,-0.14 0.281,-0.094 0.508,-0.227 0.687,-0.391 0.176,-0.156 0.305,-0.344 0.391,-0.563 0.094,-0.211 0.141,-0.437 0.141,-0.687 0,-0.188 -0.028,-0.371 -0.078,-0.547 -0.055,-0.168 -0.133,-0.324 -0.235,-0.469 -0.105,-0.136 -0.234,-0.258 -0.39,-0.359 -0.149,-0.094 -0.321,-0.164 -0.516,-0.203 l 0,-0.016 c 0.195,-0.031 0.379,-0.094 0.547,-0.187 0.176,-0.086 0.32,-0.2 0.437,-0.344 0.125,-0.137 0.223,-0.305 0.297,-0.5 0.071,-0.188 0.11,-0.406 0.11,-0.656 z m -1.079,3.234 c 0,0.176 -0.027,0.332 -0.078,0.469 -0.043,0.144 -0.117,0.269 -0.218,0.375 -0.094,0.101 -0.227,0.179 -0.391,0.234 -0.156,0.063 -0.356,0.094 -0.594,0.094 -0.23,0 -0.429,-0.031 -0.594,-0.094 -0.156,-0.055 -0.289,-0.133 -0.39,-0.234 -0.106,-0.106 -0.18,-0.231 -0.219,-0.375 -0.043,-0.137 -0.062,-0.293 -0.062,-0.469 0,-0.137 0.015,-0.277 0.046,-0.422 0.04,-0.137 0.11,-0.265 0.204,-0.39 0.093,-0.118 0.222,-0.211 0.39,-0.282 0.164,-0.074 0.379,-0.109 0.641,-0.109 0.269,0 0.488,0.035 0.656,0.109 0.164,0.071 0.289,0.164 0.375,0.282 0.094,0.125 0.156,0.253 0.188,0.39 0.031,0.145 0.046,0.285 0.046,0.422 z m 0.172,-3.156 c 0,0.164 -0.027,0.328 -0.078,0.484 -0.043,0.156 -0.121,0.289 -0.234,0.406 -0.106,0.125 -0.25,0.223 -0.438,0.297 -0.187,0.071 -0.422,0.11 -0.703,0.11 -0.262,0 -0.48,-0.039 -0.656,-0.11 -0.18,-0.074 -0.324,-0.172 -0.438,-0.297 -0.117,-0.125 -0.199,-0.265 -0.25,-0.421 -0.054,-0.157 -0.078,-0.321 -0.078,-0.485 0,-0.211 0.024,-0.402 0.078,-0.578 0.051,-0.18 0.133,-0.328 0.25,-0.453 0.114,-0.125 0.258,-0.227 0.438,-0.297 0.187,-0.062 0.414,-0.094 0.687,-0.094 0.258,0 0.477,0.032 0.657,0.094 0.187,0.07 0.336,0.172 0.453,0.297 0.113,0.125 0.191,0.273 0.234,0.453 0.051,0.176 0.078,0.375 0.078,0.594 z" /><path
         id="path98"
         style="fill:#000000;fill-opacity:1;fill-rule:nonzero;stroke:none"
         d="m 167.066,43.579 c 0,-0.344 -0.054,-0.664 -0.156,-0.953 -0.094,-0.282 -0.234,-0.528 -0.422,-0.735 -0.187,-0.211 -0.422,-0.371 -0.703,-0.484 -0.273,-0.113 -0.586,-0.172 -0.937,-0.172 -0.407,0 -0.762,0.074 -1.063,0.219 -0.293,0.156 -0.539,0.375 -0.734,0.656 -0.199,0.289 -0.352,0.645 -0.453,1.063 -0.094,0.425 -0.141,0.906 -0.141,1.437 0,0.613 0.051,1.148 0.156,1.609 0.114,0.469 0.274,0.852 0.485,1.157 0.218,0.312 0.476,0.547 0.781,0.703 0.301,0.156 0.644,0.234 1.031,0.234 0.238,0 0.457,-0.027 0.656,-0.078 0.207,-0.043 0.395,-0.121 0.563,-0.234 0.164,-0.106 0.312,-0.25 0.437,-0.438 0.125,-0.18 0.227,-0.398 0.313,-0.656 l -0.844,-0.141 c -0.094,0.289 -0.242,0.5 -0.437,0.625 -0.2,0.133 -0.434,0.203 -0.703,0.203 -0.243,0 -0.461,-0.058 -0.657,-0.171 -0.187,-0.118 -0.351,-0.29 -0.484,-0.516 -0.137,-0.219 -0.246,-0.5 -0.328,-0.844 -0.074,-0.344 -0.11,-0.742 -0.11,-1.187 0.164,0.289 0.391,0.515 0.672,0.672 0.289,0.156 0.625,0.234 1,0.234 0.313,0 0.594,-0.055 0.844,-0.156 0.258,-0.106 0.477,-0.25 0.656,-0.438 0.188,-0.187 0.328,-0.418 0.422,-0.687 0.102,-0.274 0.156,-0.578 0.156,-0.922 z m -0.89,-0.031 c 0,0.226 -0.031,0.437 -0.094,0.625 -0.062,0.195 -0.152,0.363 -0.266,0.5 -0.117,0.132 -0.261,0.238 -0.437,0.312 -0.168,0.07 -0.367,0.109 -0.594,0.109 -0.156,0 -0.32,-0.027 -0.484,-0.078 -0.168,-0.043 -0.321,-0.117 -0.453,-0.218 -0.125,-0.106 -0.231,-0.247 -0.313,-0.422 -0.086,-0.168 -0.125,-0.375 -0.125,-0.625 0,-0.25 0.031,-0.493 0.094,-0.719 0.07,-0.219 0.164,-0.414 0.281,-0.578 0.125,-0.156 0.27,-0.281 0.438,-0.375 0.175,-0.094 0.375,-0.141 0.593,-0.141 0.207,0 0.395,0.035 0.563,0.11 0.164,0.07 0.305,0.175 0.422,0.312 0.125,0.145 0.219,0.316 0.281,0.516 0.063,0.195 0.094,0.422 0.094,0.672 z" /><path
         id="path100"
         style="fill:#000000;fill-opacity:1;fill-rule:nonzero;stroke:none"
         d="m 172.703,44.766 c 0,-0.656 -0.062,-1.215 -0.187,-1.672 -0.125,-0.449 -0.297,-0.812 -0.516,-1.093 -0.219,-0.274 -0.477,-0.469 -0.766,-0.594 -0.293,-0.113 -0.605,-0.172 -0.937,-0.172 -0.336,0 -0.649,0.059 -0.938,0.172 -0.293,0.125 -0.547,0.32 -0.765,0.594 -0.211,0.281 -0.375,0.644 -0.5,1.093 -0.117,0.457 -0.172,1.016 -0.172,1.672 0,0.696 0.055,1.27 0.172,1.719 0.125,0.457 0.297,0.82 0.515,1.094 0.219,0.269 0.473,0.457 0.766,0.562 0.289,0.114 0.609,0.172 0.953,0.172 0.332,0 0.641,-0.058 0.922,-0.172 0.289,-0.105 0.539,-0.293 0.75,-0.562 0.219,-0.274 0.391,-0.637 0.516,-1.094 0.125,-0.449 0.187,-1.023 0.187,-1.719 z m -0.891,0 c 0,0.551 -0.039,1.008 -0.109,1.375 -0.062,0.364 -0.156,0.649 -0.281,0.86 -0.125,0.218 -0.281,0.367 -0.469,0.453 -0.18,0.094 -0.387,0.14 -0.625,0.14 -0.25,0 -0.469,-0.046 -0.656,-0.14 -0.188,-0.086 -0.352,-0.235 -0.484,-0.453 -0.126,-0.219 -0.219,-0.512 -0.282,-0.875 -0.062,-0.356 -0.094,-0.809 -0.094,-1.36 0,-0.523 0.032,-0.965 0.094,-1.328 0.071,-0.367 0.172,-0.656 0.297,-0.875 0.125,-0.219 0.281,-0.375 0.469,-0.469 0.187,-0.093 0.398,-0.14 0.64,-0.14 0.227,0 0.438,0.047 0.626,0.14 0.187,0.094 0.343,0.25 0.468,0.469 0.125,0.219 0.223,0.508 0.297,0.875 0.07,0.363 0.109,0.805 0.109,1.328 z" /><path
         id="path102"
         style="fill:#000000;fill-opacity:1;fill-rule:nonzero;stroke:none"
         d="m 173.887,41.329 0,0.75 1.75,0 0,5.297 -1.547,-1.11 0,0.828 1.625,1.11 0.812,0 0,-6.125 1.672,0 0,-0.75 -4.312,0 z" /><path
         id="path104"
         style="fill:#000000;fill-opacity:1;fill-rule:nonzero;stroke:none"
         d="m 206.879,41.329 0,0.625 c 0.164,0.375 0.367,0.707 0.609,1 0.239,0.289 0.489,0.554 0.75,0.797 0.27,0.238 0.532,0.457 0.782,0.656 0.257,0.195 0.492,0.394 0.703,0.594 0.207,0.207 0.375,0.422 0.5,0.64 0.132,0.227 0.203,0.477 0.203,0.75 0,0.196 -0.031,0.367 -0.094,0.516 -0.055,0.156 -0.137,0.281 -0.25,0.375 -0.105,0.101 -0.234,0.18 -0.391,0.234 -0.156,0.051 -0.328,0.078 -0.515,0.078 -0.18,0 -0.344,-0.027 -0.5,-0.078 -0.156,-0.054 -0.297,-0.125 -0.422,-0.218 -0.117,-0.094 -0.215,-0.215 -0.297,-0.36 -0.074,-0.148 -0.121,-0.32 -0.141,-0.515 l -0.89,0.093 c 0.031,0.239 0.097,0.469 0.203,0.688 0.101,0.219 0.25,0.41 0.437,0.578 0.188,0.164 0.411,0.297 0.672,0.391 0.27,0.093 0.582,0.14 0.938,0.14 0.344,0 0.644,-0.043 0.906,-0.125 0.27,-0.086 0.492,-0.203 0.672,-0.359 0.187,-0.156 0.328,-0.356 0.422,-0.594 0.101,-0.23 0.156,-0.5 0.156,-0.812 0,-0.231 -0.043,-0.45 -0.125,-0.657 -0.086,-0.211 -0.199,-0.406 -0.344,-0.593 -0.136,-0.188 -0.297,-0.372 -0.484,-0.547 -0.18,-0.18 -0.367,-0.352 -0.563,-0.516 -0.199,-0.168 -0.398,-0.336 -0.593,-0.5 -0.2,-0.168 -0.391,-0.336 -0.578,-0.5 -0.18,-0.168 -0.336,-0.336 -0.469,-0.5 -0.137,-0.168 -0.246,-0.344 -0.328,-0.531 l 3.593,0 0,-0.75 -4.562,0 z" /><path
         id="path106"
         style="fill:#000000;fill-opacity:1;fill-rule:nonzero;stroke:none"
         d="m 212.734,41.329 0,0.75 1.75,0 0,5.297 -1.546,-1.11 0,0.828 1.624,1.11 0.813,0 0,-6.125 1.672,0 0,-0.75 -4.313,0 z" /><path
         id="path108"
         style="fill:#000000;fill-opacity:1;fill-rule:nonzero;stroke:none"
         d="m 219.434,42.391 0,-0.812 c 0,-0.18 -0.008,-0.332 -0.016,-0.469 -0.012,-0.145 -0.039,-0.273 -0.078,-0.391 -0.031,-0.125 -0.074,-0.238 -0.125,-0.343 -0.043,-0.114 -0.094,-0.223 -0.156,-0.328 l -0.594,0 c 0.144,0.21 0.254,0.421 0.328,0.64 0.082,0.219 0.125,0.434 0.125,0.641 l -0.438,0 0,1.062 0.954,0 z" /><path
         id="path110"
         style="fill:#000000;fill-opacity:1;fill-rule:nonzero;stroke:none"
         d="m 225.414,47.501 c -0.344,-0.532 -0.664,-1.043 -0.953,-1.532 -0.293,-0.48 -0.543,-0.968 -0.75,-1.468 -0.211,-0.493 -0.371,-0.996 -0.484,-1.516 -0.118,-0.523 -0.172,-1.074 -0.172,-1.656 l -0.922,0 c 0,0.551 0.062,1.086 0.187,1.609 0.133,0.531 0.313,1.051 0.532,1.563 0.226,0.507 0.488,1.007 0.781,1.5 0.289,0.5 0.597,0.988 0.922,1.468 l -3.688,0 0,0.735 4.547,0 0,-0.703 z" /><path
         id="path112"
         style="fill:#000000;fill-opacity:1;fill-rule:nonzero;stroke:none"
         d="m 231.066,43.235 c 0,-0.324 -0.054,-0.609 -0.156,-0.859 -0.105,-0.243 -0.258,-0.45 -0.453,-0.625 -0.199,-0.168 -0.445,-0.297 -0.734,-0.391 -0.293,-0.082 -0.625,-0.125 -1,-0.125 -0.418,0 -0.774,0.055 -1.063,0.156 -0.293,0.102 -0.539,0.242 -0.734,0.422 -0.188,0.176 -0.328,0.375 -0.422,0.594 -0.094,0.219 -0.156,0.445 -0.188,0.687 l 0.922,0.079 c 0.02,-0.18 0.063,-0.344 0.125,-0.5 0.071,-0.149 0.172,-0.274 0.297,-0.375 0.125,-0.106 0.27,-0.188 0.438,-0.25 0.175,-0.063 0.382,-0.094 0.625,-0.094 0.445,0 0.797,0.109 1.047,0.328 0.25,0.219 0.375,0.539 0.375,0.969 0,0.257 -0.059,0.468 -0.172,0.625 -0.106,0.156 -0.243,0.273 -0.407,0.359 -0.168,0.082 -0.351,0.141 -0.546,0.172 -0.2,0.031 -0.383,0.047 -0.547,0.047 l -0.5,0 0,0.75 0.484,0 c 0.164,0 0.336,0.015 0.516,0.047 0.175,0.039 0.336,0.101 0.484,0.187 0.145,0.094 0.266,0.219 0.359,0.375 0.102,0.156 0.157,0.348 0.157,0.578 0,0.375 -0.11,0.664 -0.328,0.875 -0.219,0.219 -0.543,0.328 -0.969,0.328 -0.387,0 -0.699,-0.101 -0.938,-0.296 -0.242,-0.2 -0.383,-0.481 -0.422,-0.844 l -0.875,0.062 c 0.032,0.301 0.11,0.563 0.235,0.782 0.133,0.226 0.301,0.414 0.5,0.562 0.207,0.156 0.437,0.27 0.687,0.344 0.258,0.07 0.535,0.109 0.828,0.109 0.383,0 0.711,-0.055 0.985,-0.156 0.281,-0.094 0.508,-0.227 0.687,-0.391 0.176,-0.156 0.305,-0.351 0.391,-0.578 0.082,-0.219 0.125,-0.453 0.125,-0.703 0,-0.199 -0.031,-0.387 -0.094,-0.562 -0.055,-0.18 -0.137,-0.34 -0.25,-0.485 -0.117,-0.137 -0.265,-0.258 -0.453,-0.359 -0.18,-0.094 -0.398,-0.168 -0.656,-0.219 l 0,-0.016 c 0.281,-0.031 0.519,-0.101 0.719,-0.203 0.207,-0.093 0.378,-0.215 0.515,-0.359 0.133,-0.137 0.235,-0.297 0.297,-0.484 0.07,-0.18 0.109,-0.368 0.109,-0.563 z" /><path
         id="path114"
         style="fill:#000000;fill-opacity:1;fill-rule:nonzero;stroke:none"
         d="m 232.297,41.329 0,0.75 1.75,0 0,5.297 -1.547,-1.11 0,0.828 1.625,1.11 0.813,0 0,-6.125 1.671,0 0,-0.75 -4.312,0 z" /><path
         id="path116"
         style="fill:#000000;fill-opacity:1;fill-rule:nonzero;stroke:none"
         d="m 242.184,47.501 c -0.344,-0.532 -0.664,-1.043 -0.954,-1.532 -0.292,-0.48 -0.542,-0.968 -0.75,-1.468 -0.21,-0.493 -0.371,-0.996 -0.484,-1.516 -0.117,-0.523 -0.172,-1.074 -0.172,-1.656 l -0.922,0 c 0,0.551 0.063,1.086 0.188,1.609 0.133,0.531 0.312,1.051 0.531,1.563 0.227,0.507 0.488,1.007 0.781,1.5 0.289,0.5 0.598,0.988 0.922,1.468 l -3.687,0 0,0.735 4.547,0 0,-0.703 z" /><path
         id="path118"
         style="fill:#000000;fill-opacity:1;fill-rule:nonzero;stroke:none"
         d="m 87.547,28.532 0,0.75 1.75,0 0,5.297 -1.547,-1.11 0,0.829 1.625,1.109 0.813,0 0,-6.125 1.671,0 0,-0.75 -4.312,0 z" /><path
         id="path120"
         style="fill:#000000;fill-opacity:1;fill-rule:nonzero;stroke:none"
         d="m 94.246,29.594 0,-0.812 c 0,-0.18 -0.008,-0.332 -0.016,-0.469 -0.011,-0.144 -0.039,-0.273 -0.078,-0.39 -0.031,-0.125 -0.074,-0.239 -0.125,-0.344 -0.043,-0.114 -0.093,-0.223 -0.156,-0.328 l -0.594,0 c 0.145,0.211 0.254,0.422 0.328,0.64 0.083,0.219 0.125,0.434 0.125,0.641 l -0.437,0 0,1.062 0.953,0 z" /><path
         id="path122"
         style="fill:#000000;fill-opacity:1;fill-rule:nonzero;stroke:none"
         d="M 100.223,34.704 C 99.879,34.173 99.559,33.661 99.27,33.173 98.977,32.692 98.727,32.204 98.52,31.704 98.309,31.212 98.148,30.708 98.035,30.188 97.918,29.665 97.863,29.114 97.863,28.532 l -0.922,0 c 0,0.551 0.063,1.086 0.188,1.609 0.133,0.532 0.312,1.051 0.531,1.563 0.227,0.508 0.488,1.008 0.781,1.5 0.289,0.5 0.598,0.988 0.922,1.469 l -3.687,0 0,0.734 4.547,0 0,-0.703 z" /><path
         id="path124"
         style="fill:#000000;fill-opacity:1;fill-rule:nonzero;stroke:none"
         d="m 105.922,31.969 c 0,-0.656 -0.063,-1.214 -0.188,-1.671 -0.125,-0.45 -0.296,-0.813 -0.515,-1.094 -0.219,-0.274 -0.477,-0.469 -0.766,-0.594 -0.293,-0.113 -0.605,-0.172 -0.937,-0.172 -0.336,0 -0.649,0.059 -0.938,0.172 -0.293,0.125 -0.547,0.32 -0.766,0.594 -0.21,0.281 -0.374,0.644 -0.5,1.094 -0.117,0.457 -0.171,1.015 -0.171,1.671 0,0.696 0.054,1.27 0.171,1.719 0.126,0.457 0.297,0.82 0.516,1.094 0.219,0.269 0.473,0.457 0.766,0.562 0.289,0.114 0.609,0.172 0.953,0.172 0.332,0 0.641,-0.058 0.922,-0.172 0.289,-0.105 0.539,-0.293 0.75,-0.562 0.219,-0.274 0.39,-0.637 0.515,-1.094 0.125,-0.449 0.188,-1.023 0.188,-1.719 z m -0.891,0 c 0,0.551 -0.039,1.008 -0.109,1.375 -0.063,0.364 -0.156,0.649 -0.281,0.86 -0.125,0.219 -0.282,0.367 -0.469,0.453 -0.18,0.094 -0.387,0.141 -0.625,0.141 -0.25,0 -0.469,-0.047 -0.656,-0.141 -0.188,-0.086 -0.352,-0.234 -0.485,-0.453 -0.125,-0.219 -0.218,-0.512 -0.281,-0.875 -0.063,-0.356 -0.094,-0.809 -0.094,-1.36 0,-0.523 0.031,-0.964 0.094,-1.328 0.07,-0.367 0.172,-0.656 0.297,-0.875 0.125,-0.218 0.281,-0.375 0.469,-0.468 0.187,-0.094 0.398,-0.141 0.64,-0.141 0.227,0 0.438,0.047 0.625,0.141 0.188,0.093 0.344,0.25 0.469,0.468 0.125,0.219 0.223,0.508 0.297,0.875 0.07,0.364 0.109,0.805 0.109,1.328 z" /><path
         id="path126"
         style="fill:#000000;fill-opacity:1;fill-rule:nonzero;stroke:none"
         d="m 144.75,31.969 c 0,-0.656 -0.062,-1.214 -0.188,-1.671 -0.124,-0.45 -0.296,-0.813 -0.515,-1.094 -0.219,-0.274 -0.477,-0.469 -0.766,-0.594 -0.293,-0.113 -0.605,-0.172 -0.937,-0.172 -0.336,0 -0.649,0.059 -0.938,0.172 -0.293,0.125 -0.547,0.32 -0.765,0.594 -0.211,0.281 -0.375,0.644 -0.5,1.094 -0.118,0.457 -0.172,1.015 -0.172,1.671 0,0.696 0.054,1.27 0.172,1.719 0.125,0.457 0.297,0.82 0.515,1.094 0.219,0.269 0.473,0.457 0.766,0.562 0.289,0.114 0.609,0.172 0.953,0.172 0.332,0 0.641,-0.058 0.922,-0.172 0.289,-0.105 0.539,-0.293 0.75,-0.562 0.219,-0.274 0.391,-0.637 0.515,-1.094 0.126,-0.449 0.188,-1.023 0.188,-1.719 z m -0.891,0 c 0,0.551 -0.039,1.008 -0.109,1.375 -0.062,0.364 -0.156,0.649 -0.281,0.86 -0.125,0.219 -0.281,0.367 -0.469,0.453 -0.18,0.094 -0.387,0.141 -0.625,0.141 -0.25,0 -0.469,-0.047 -0.656,-0.141 -0.188,-0.086 -0.352,-0.234 -0.485,-0.453 -0.125,-0.219 -0.218,-0.512 -0.281,-0.875 -0.062,-0.356 -0.094,-0.809 -0.094,-1.36 0,-0.523 0.032,-0.964 0.094,-1.328 0.07,-0.367 0.172,-0.656 0.297,-0.875 0.125,-0.218 0.281,-0.375 0.469,-0.468 0.187,-0.094 0.398,-0.141 0.64,-0.141 0.227,0 0.438,0.047 0.625,0.141 0.188,0.093 0.344,0.25 0.469,0.468 0.125,0.219 0.223,0.508 0.297,0.875 0.07,0.364 0.109,0.805 0.109,1.328 z" /><path
         id="path128"
         style="fill:#000000;fill-opacity:1;fill-rule:nonzero;stroke:none"
         d="m 147.047,29.594 0,-0.812 c 0,-0.18 -0.008,-0.332 -0.016,-0.469 -0.011,-0.144 -0.039,-0.273 -0.078,-0.39 -0.031,-0.125 -0.074,-0.239 -0.125,-0.344 -0.043,-0.114 -0.094,-0.223 -0.156,-0.328 l -0.594,0 c 0.145,0.211 0.254,0.422 0.328,0.64 0.082,0.219 0.125,0.434 0.125,0.641 l -0.437,0 0,1.062 0.953,0 z" /><path
         id="path130"
         style="fill:#000000;fill-opacity:1;fill-rule:nonzero;stroke:none"
         d="m 148.461,28.532 0,0.625 c 0.164,0.375 0.367,0.707 0.609,1 0.239,0.289 0.489,0.555 0.75,0.797 0.27,0.238 0.532,0.457 0.782,0.656 0.257,0.195 0.492,0.395 0.703,0.594 0.207,0.207 0.375,0.422 0.5,0.64 0.133,0.227 0.203,0.477 0.203,0.75 0,0.196 -0.031,0.368 -0.094,0.516 -0.055,0.156 -0.137,0.281 -0.25,0.375 -0.105,0.102 -0.234,0.18 -0.391,0.234 -0.156,0.051 -0.328,0.079 -0.515,0.079 -0.18,0 -0.344,-0.028 -0.5,-0.079 -0.156,-0.054 -0.297,-0.125 -0.422,-0.218 -0.117,-0.094 -0.215,-0.215 -0.297,-0.36 -0.074,-0.148 -0.121,-0.32 -0.141,-0.515 l -0.89,0.093 c 0.031,0.239 0.097,0.469 0.203,0.688 0.101,0.219 0.25,0.41 0.437,0.578 0.188,0.164 0.411,0.297 0.672,0.391 0.27,0.093 0.582,0.14 0.938,0.14 0.344,0 0.644,-0.043 0.906,-0.125 0.27,-0.086 0.492,-0.203 0.672,-0.359 0.187,-0.156 0.328,-0.356 0.422,-0.594 0.101,-0.23 0.156,-0.5 0.156,-0.812 0,-0.231 -0.043,-0.45 -0.125,-0.657 -0.086,-0.211 -0.199,-0.406 -0.344,-0.593 -0.136,-0.188 -0.297,-0.371 -0.484,-0.547 -0.18,-0.18 -0.367,-0.352 -0.563,-0.516 -0.199,-0.168 -0.398,-0.336 -0.593,-0.5 -0.2,-0.168 -0.391,-0.336 -0.578,-0.5 -0.18,-0.168 -0.336,-0.336 -0.469,-0.5 -0.137,-0.168 -0.246,-0.344 -0.328,-0.531 l 3.593,0 0,-0.75 -4.562,0 z" /><path
         id="path132"
         style="fill:#000000;fill-opacity:1;fill-rule:nonzero;stroke:none"
         d="m 157.848,30.094 0,-1.562 -0.828,0 0,1.562 -3.235,0 0,0.672 3.141,4.641 0.922,0 0,-4.625 0.968,0 0,-0.688 -0.968,0 z m -0.828,4.329 c 0,-0.024 -0.016,-0.059 -0.047,-0.11 -0.024,-0.043 -0.055,-0.094 -0.094,-0.156 -0.031,-0.055 -0.063,-0.109 -0.094,-0.172 -0.031,-0.062 -0.062,-0.109 -0.094,-0.141 l -1.765,-2.609 c -0.012,-0.023 -0.031,-0.055 -0.063,-0.094 -0.031,-0.043 -0.062,-0.09 -0.093,-0.14 -0.032,-0.043 -0.071,-0.086 -0.11,-0.125 -0.031,-0.043 -0.055,-0.075 -0.062,-0.094 l 2.422,0 0,3.641 z" /><path
         id="path134"
         style="fill:#000000;fill-opacity:1;fill-rule:nonzero;stroke:none"
         d="m 164.266,30.438 c 0,-0.324 -0.055,-0.609 -0.157,-0.859 -0.105,-0.242 -0.257,-0.449 -0.453,-0.625 -0.199,-0.168 -0.445,-0.297 -0.734,-0.391 -0.293,-0.082 -0.625,-0.125 -1,-0.125 -0.418,0 -0.774,0.055 -1.063,0.156 -0.293,0.102 -0.539,0.243 -0.734,0.422 -0.187,0.176 -0.328,0.375 -0.422,0.594 -0.094,0.219 -0.156,0.445 -0.187,0.688 l 0.922,0.078 c 0.019,-0.18 0.062,-0.344 0.124,-0.5 0.071,-0.149 0.172,-0.274 0.297,-0.375 0.125,-0.106 0.27,-0.188 0.438,-0.25 0.176,-0.063 0.383,-0.094 0.625,-0.094 0.445,0 0.797,0.109 1.047,0.328 0.25,0.219 0.375,0.539 0.375,0.969 0,0.258 -0.059,0.469 -0.172,0.625 -0.106,0.156 -0.242,0.273 -0.406,0.359 -0.168,0.082 -0.352,0.141 -0.547,0.172 -0.199,0.031 -0.383,0.047 -0.547,0.047 l -0.5,0 0,0.75 0.484,0 c 0.164,0 0.336,0.016 0.516,0.047 0.176,0.039 0.336,0.101 0.484,0.187 0.145,0.094 0.266,0.219 0.36,0.375 0.101,0.157 0.156,0.348 0.156,0.578 0,0.375 -0.11,0.664 -0.328,0.875 -0.219,0.219 -0.543,0.329 -0.969,0.329 -0.387,0 -0.699,-0.102 -0.937,-0.297 -0.243,-0.2 -0.383,-0.481 -0.422,-0.844 l -0.875,0.062 c 0.031,0.301 0.109,0.563 0.234,0.782 0.133,0.226 0.301,0.414 0.5,0.562 0.207,0.156 0.437,0.27 0.687,0.344 0.258,0.07 0.536,0.109 0.829,0.109 0.382,0 0.711,-0.054 0.984,-0.156 0.281,-0.094 0.508,-0.227 0.687,-0.391 0.176,-0.156 0.305,-0.351 0.391,-0.578 0.082,-0.218 0.125,-0.453 0.125,-0.703 0,-0.199 -0.031,-0.387 -0.094,-0.562 -0.054,-0.18 -0.136,-0.34 -0.25,-0.485 -0.117,-0.136 -0.265,-0.258 -0.453,-0.359 -0.179,-0.094 -0.398,-0.168 -0.656,-0.219 l 0,-0.015 c 0.281,-0.032 0.52,-0.102 0.719,-0.204 0.207,-0.093 0.379,-0.214 0.515,-0.359 0.133,-0.137 0.235,-0.297 0.297,-0.484 0.071,-0.18 0.11,-0.368 0.11,-0.563 z" /><path
         id="path136"
         style="fill:#000000;fill-opacity:1;fill-rule:nonzero;stroke:none"
         d="m 169.824,32.11 c 0,-0.617 -0.062,-1.152 -0.187,-1.609 -0.117,-0.461 -0.282,-0.844 -0.5,-1.157 -0.211,-0.304 -0.469,-0.531 -0.782,-0.687 -0.304,-0.145 -0.648,-0.219 -1.031,-0.219 -0.262,0 -0.5,0.027 -0.719,0.078 -0.21,0.051 -0.398,0.133 -0.562,0.25 -0.168,0.114 -0.309,0.258 -0.422,0.438 -0.117,0.187 -0.211,0.41 -0.281,0.672 l 0.844,0.125 c 0.093,-0.293 0.234,-0.512 0.421,-0.657 0.196,-0.136 0.442,-0.203 0.735,-0.203 0.238,0 0.457,0.055 0.656,0.172 0.195,0.113 0.363,0.281 0.5,0.5 0.133,0.227 0.238,0.508 0.313,0.844 0.082,0.344 0.129,0.742 0.14,1.203 -0.074,-0.156 -0.168,-0.297 -0.281,-0.422 -0.117,-0.117 -0.25,-0.215 -0.406,-0.297 -0.149,-0.086 -0.309,-0.152 -0.485,-0.203 -0.179,-0.043 -0.355,-0.062 -0.531,-0.062 -0.312,0 -0.601,0.054 -0.859,0.172 -0.25,0.113 -0.465,0.269 -0.641,0.468 -0.18,0.207 -0.312,0.453 -0.406,0.735 -0.094,0.281 -0.141,0.597 -0.141,0.953 0,0.351 0.051,0.672 0.156,0.953 0.102,0.289 0.25,0.535 0.438,0.734 0.195,0.196 0.437,0.348 0.719,0.453 0.289,0.114 0.617,0.172 0.984,0.172 0.758,0 1.336,-0.289 1.734,-0.859 0.395,-0.563 0.594,-1.414 0.594,-2.547 z m -0.969,0.844 c 0,0.258 -0.031,0.5 -0.093,0.719 -0.055,0.226 -0.141,0.425 -0.266,0.593 -0.117,0.164 -0.262,0.297 -0.437,0.391 -0.168,0.094 -0.368,0.141 -0.594,0.141 -0.219,0 -0.414,-0.04 -0.578,-0.11 -0.168,-0.074 -0.313,-0.183 -0.438,-0.328 -0.117,-0.137 -0.203,-0.305 -0.265,-0.5 -0.063,-0.199 -0.094,-0.418 -0.094,-0.656 0,-0.231 0.023,-0.449 0.078,-0.656 0.062,-0.2 0.148,-0.372 0.266,-0.516 0.113,-0.137 0.254,-0.246 0.421,-0.328 0.176,-0.086 0.375,-0.125 0.594,-0.125 0.164,0 0.332,0.023 0.5,0.078 0.164,0.051 0.317,0.133 0.453,0.25 0.133,0.113 0.243,0.258 0.328,0.437 0.082,0.176 0.125,0.379 0.125,0.61 z" /><path
         id="path138"
         style="fill:#000000;fill-opacity:1;fill-rule:nonzero;stroke:none"
         d="m 175.414,32.11 c 0,-0.617 -0.062,-1.152 -0.187,-1.609 -0.118,-0.461 -0.282,-0.844 -0.5,-1.157 -0.211,-0.304 -0.469,-0.531 -0.782,-0.687 -0.304,-0.145 -0.648,-0.219 -1.031,-0.219 -0.262,0 -0.5,0.027 -0.719,0.078 -0.211,0.051 -0.398,0.133 -0.562,0.25 -0.168,0.114 -0.309,0.258 -0.422,0.438 -0.117,0.187 -0.211,0.41 -0.281,0.672 l 0.843,0.125 c 0.094,-0.293 0.235,-0.512 0.422,-0.657 0.196,-0.136 0.442,-0.203 0.735,-0.203 0.238,0 0.457,0.055 0.656,0.172 0.195,0.113 0.363,0.281 0.5,0.5 0.133,0.227 0.238,0.508 0.312,0.844 0.082,0.344 0.129,0.742 0.141,1.203 -0.074,-0.156 -0.168,-0.297 -0.281,-0.422 -0.117,-0.117 -0.25,-0.215 -0.406,-0.297 -0.149,-0.086 -0.309,-0.152 -0.485,-0.203 -0.179,-0.043 -0.355,-0.062 -0.531,-0.062 -0.313,0 -0.602,0.054 -0.859,0.172 -0.25,0.113 -0.465,0.269 -0.641,0.468 -0.18,0.207 -0.313,0.453 -0.406,0.735 -0.094,0.281 -0.141,0.597 -0.141,0.953 0,0.351 0.051,0.672 0.156,0.953 0.102,0.289 0.25,0.535 0.438,0.734 0.195,0.196 0.437,0.348 0.719,0.453 0.289,0.114 0.617,0.172 0.984,0.172 0.758,0 1.336,-0.289 1.734,-0.859 0.395,-0.563 0.594,-1.414 0.594,-2.547 z m -0.969,0.844 c 0,0.258 -0.031,0.5 -0.093,0.719 -0.055,0.226 -0.141,0.425 -0.266,0.593 -0.117,0.164 -0.262,0.297 -0.438,0.391 -0.168,0.094 -0.367,0.141 -0.593,0.141 -0.219,0 -0.414,-0.04 -0.578,-0.11 -0.168,-0.074 -0.313,-0.183 -0.438,-0.328 -0.117,-0.137 -0.203,-0.305 -0.266,-0.5 -0.062,-0.199 -0.093,-0.418 -0.093,-0.656 0,-0.231 0.023,-0.449 0.078,-0.656 0.062,-0.2 0.148,-0.372 0.265,-0.516 0.114,-0.137 0.254,-0.246 0.422,-0.328 0.176,-0.086 0.375,-0.125 0.594,-0.125 0.164,0 0.332,0.023 0.5,0.078 0.164,0.051 0.316,0.133 0.453,0.25 0.133,0.113 0.242,0.258 0.328,0.437 0.082,0.176 0.125,0.379 0.125,0.61 z" /><path
         id="path140"
         style="fill:#000000;fill-opacity:1;fill-rule:nonzero;stroke:none"
         d="m 181.035,30.782 c 0,-0.344 -0.055,-0.664 -0.156,-0.953 -0.094,-0.281 -0.234,-0.528 -0.422,-0.735 -0.187,-0.211 -0.422,-0.371 -0.703,-0.484 -0.274,-0.113 -0.586,-0.172 -0.938,-0.172 -0.406,0 -0.761,0.074 -1.062,0.219 -0.293,0.156 -0.539,0.375 -0.734,0.656 -0.2,0.289 -0.352,0.645 -0.454,1.063 -0.093,0.425 -0.14,0.906 -0.14,1.437 0,0.613 0.051,1.149 0.156,1.61 0.113,0.468 0.273,0.851 0.484,1.156 0.219,0.312 0.477,0.547 0.782,0.703 0.3,0.156 0.644,0.234 1.031,0.234 0.238,0 0.457,-0.027 0.656,-0.078 0.207,-0.043 0.395,-0.121 0.563,-0.234 0.164,-0.106 0.312,-0.25 0.437,-0.438 0.125,-0.179 0.227,-0.398 0.313,-0.656 l -0.844,-0.141 c -0.094,0.289 -0.242,0.5 -0.438,0.625 -0.199,0.133 -0.433,0.204 -0.703,0.204 -0.242,0 -0.461,-0.059 -0.656,-0.172 -0.187,-0.118 -0.352,-0.289 -0.484,-0.516 -0.137,-0.219 -0.246,-0.5 -0.328,-0.844 -0.075,-0.343 -0.11,-0.742 -0.11,-1.187 0.164,0.289 0.391,0.515 0.672,0.672 0.289,0.156 0.625,0.234 1,0.234 0.313,0 0.594,-0.055 0.844,-0.156 0.258,-0.106 0.476,-0.25 0.656,-0.438 0.188,-0.187 0.328,-0.418 0.422,-0.687 0.101,-0.274 0.156,-0.578 0.156,-0.922 z m -0.89,-0.031 c 0,0.226 -0.032,0.437 -0.094,0.625 -0.063,0.195 -0.153,0.363 -0.266,0.5 -0.117,0.132 -0.262,0.238 -0.437,0.312 -0.168,0.07 -0.368,0.11 -0.594,0.11 -0.156,0 -0.32,-0.028 -0.484,-0.079 -0.168,-0.043 -0.321,-0.117 -0.454,-0.218 -0.125,-0.106 -0.23,-0.246 -0.312,-0.422 -0.086,-0.168 -0.125,-0.375 -0.125,-0.625 0,-0.25 0.031,-0.492 0.094,-0.719 0.07,-0.219 0.164,-0.414 0.281,-0.578 0.125,-0.156 0.269,-0.281 0.437,-0.375 0.176,-0.094 0.375,-0.141 0.594,-0.141 0.207,0 0.395,0.035 0.563,0.11 0.164,0.07 0.304,0.175 0.422,0.312 0.125,0.145 0.218,0.317 0.281,0.516 0.062,0.195 0.094,0.422 0.094,0.672 z" /><path
         id="path142"
         style="fill:#000000;fill-opacity:1;fill-rule:nonzero;stroke:none"
         d="m 207.145,28.532 0,0.75 1.75,0 0,5.297 -1.547,-1.11 0,0.829 1.625,1.109 0.812,0 0,-6.125 1.672,0 0,-0.75 -4.312,0 z" /><path
         id="path144"
         style="fill:#000000;fill-opacity:1;fill-rule:nonzero;stroke:none"
         d="m 212.734,28.532 0,0.75 1.75,0 0,5.297 -1.546,-1.11 0,0.829 1.624,1.109 0.813,0 0,-6.125 1.672,0 0,-0.75 -4.313,0 z" /><path
         id="path146"
         style="fill:#000000;fill-opacity:1;fill-rule:nonzero;stroke:none"
         d="m 219.434,29.594 0,-0.812 c 0,-0.18 -0.008,-0.332 -0.016,-0.469 -0.012,-0.144 -0.039,-0.273 -0.078,-0.39 -0.031,-0.125 -0.074,-0.239 -0.125,-0.344 -0.043,-0.114 -0.094,-0.223 -0.156,-0.328 l -0.594,0 c 0.144,0.211 0.254,0.422 0.328,0.64 0.082,0.219 0.125,0.434 0.125,0.641 l -0.438,0 0,1.062 0.954,0 z" /><path
         id="path148"
         style="fill:#000000;fill-opacity:1;fill-rule:nonzero;stroke:none"
         d="m 225.477,30.454 c 0,-0.293 -0.047,-0.563 -0.141,-0.813 -0.094,-0.242 -0.234,-0.453 -0.422,-0.64 -0.187,-0.18 -0.434,-0.321 -0.734,-0.422 -0.293,-0.094 -0.641,-0.141 -1.047,-0.141 -0.406,0 -0.758,0.047 -1.047,0.141 -0.293,0.101 -0.539,0.242 -0.734,0.422 -0.188,0.175 -0.329,0.382 -0.422,0.625 -0.094,0.25 -0.141,0.519 -0.141,0.812 0,0.25 0.035,0.473 0.109,0.672 0.082,0.195 0.188,0.363 0.313,0.5 0.125,0.145 0.269,0.258 0.437,0.344 0.164,0.094 0.336,0.148 0.516,0.172 l 0,0.031 c -0.199,0.039 -0.375,0.109 -0.531,0.203 -0.149,0.102 -0.274,0.227 -0.375,0.375 -0.106,0.145 -0.184,0.301 -0.235,0.469 -0.054,0.176 -0.078,0.359 -0.078,0.547 0,0.238 0.047,0.461 0.141,0.672 0.094,0.218 0.226,0.406 0.406,0.562 0.188,0.164 0.414,0.297 0.688,0.391 0.269,0.093 0.582,0.14 0.937,0.14 0.375,0 0.695,-0.047 0.969,-0.14 0.281,-0.094 0.508,-0.227 0.687,-0.391 0.176,-0.156 0.305,-0.344 0.391,-0.562 0.094,-0.211 0.141,-0.438 0.141,-0.688 0,-0.187 -0.028,-0.371 -0.078,-0.547 -0.055,-0.168 -0.133,-0.324 -0.235,-0.469 -0.105,-0.136 -0.234,-0.257 -0.39,-0.359 -0.149,-0.094 -0.321,-0.164 -0.516,-0.203 l 0,-0.016 c 0.195,-0.031 0.379,-0.093 0.547,-0.187 0.176,-0.086 0.32,-0.199 0.437,-0.344 0.125,-0.137 0.223,-0.305 0.297,-0.5 0.071,-0.187 0.11,-0.406 0.11,-0.656 z m -1.079,3.234 c 0,0.176 -0.027,0.332 -0.078,0.469 -0.043,0.144 -0.117,0.269 -0.218,0.375 -0.094,0.101 -0.227,0.18 -0.391,0.234 -0.156,0.063 -0.356,0.094 -0.594,0.094 -0.23,0 -0.429,-0.031 -0.594,-0.094 -0.156,-0.054 -0.289,-0.133 -0.39,-0.234 -0.106,-0.106 -0.18,-0.231 -0.219,-0.375 -0.043,-0.137 -0.062,-0.293 -0.062,-0.469 0,-0.137 0.015,-0.277 0.046,-0.422 0.04,-0.136 0.11,-0.265 0.204,-0.39 0.093,-0.118 0.222,-0.211 0.39,-0.282 0.164,-0.074 0.379,-0.109 0.641,-0.109 0.269,0 0.488,0.035 0.656,0.109 0.164,0.071 0.289,0.164 0.375,0.282 0.094,0.125 0.156,0.254 0.188,0.39 0.031,0.145 0.046,0.285 0.046,0.422 z m 0.172,-3.156 c 0,0.164 -0.027,0.328 -0.078,0.484 -0.043,0.157 -0.121,0.289 -0.234,0.407 -0.106,0.125 -0.25,0.222 -0.438,0.296 -0.187,0.071 -0.422,0.11 -0.703,0.11 -0.262,0 -0.48,-0.039 -0.656,-0.11 -0.18,-0.074 -0.324,-0.171 -0.438,-0.296 -0.117,-0.125 -0.199,-0.266 -0.25,-0.422 -0.054,-0.157 -0.078,-0.321 -0.078,-0.485 0,-0.211 0.024,-0.402 0.078,-0.578 0.051,-0.18 0.133,-0.328 0.25,-0.453 0.114,-0.125 0.258,-0.227 0.438,-0.297 0.187,-0.062 0.414,-0.094 0.687,-0.094 0.258,0 0.477,0.032 0.657,0.094 0.187,0.07 0.336,0.172 0.453,0.297 0.113,0.125 0.191,0.273 0.234,0.453 0.051,0.176 0.078,0.375 0.078,0.594 z" /><path
         id="path150"
         style="fill:#000000;fill-opacity:1;fill-rule:nonzero;stroke:none"
         d="m 226.441,28.532 0,0.625 c 0.164,0.375 0.368,0.707 0.61,1 0.238,0.289 0.488,0.555 0.75,0.797 0.269,0.238 0.531,0.457 0.781,0.656 0.258,0.195 0.492,0.395 0.703,0.594 0.207,0.207 0.375,0.422 0.5,0.64 0.133,0.227 0.203,0.477 0.203,0.75 0,0.196 -0.031,0.368 -0.093,0.516 -0.055,0.156 -0.137,0.281 -0.25,0.375 -0.106,0.102 -0.235,0.18 -0.391,0.234 -0.156,0.051 -0.328,0.079 -0.516,0.079 -0.179,0 -0.343,-0.028 -0.5,-0.079 -0.156,-0.054 -0.297,-0.125 -0.422,-0.218 -0.117,-0.094 -0.214,-0.215 -0.296,-0.36 -0.075,-0.148 -0.122,-0.32 -0.141,-0.515 l -0.891,0.093 c 0.032,0.239 0.098,0.469 0.203,0.688 0.102,0.219 0.25,0.41 0.438,0.578 0.187,0.164 0.41,0.297 0.672,0.391 0.269,0.093 0.582,0.14 0.937,0.14 0.344,0 0.645,-0.043 0.907,-0.125 0.269,-0.086 0.492,-0.203 0.671,-0.359 0.188,-0.156 0.329,-0.356 0.422,-0.594 0.102,-0.23 0.157,-0.5 0.157,-0.812 0,-0.231 -0.043,-0.45 -0.125,-0.657 -0.086,-0.211 -0.2,-0.406 -0.344,-0.593 -0.137,-0.188 -0.297,-0.371 -0.485,-0.547 -0.179,-0.18 -0.367,-0.352 -0.562,-0.516 -0.199,-0.168 -0.399,-0.336 -0.594,-0.5 -0.199,-0.168 -0.39,-0.336 -0.578,-0.5 -0.18,-0.168 -0.336,-0.336 -0.469,-0.5 -0.136,-0.168 -0.246,-0.344 -0.328,-0.531 l 3.594,0 0,-0.75 -4.563,0 z" /><path
         id="path152"
         style="fill:#000000;fill-opacity:1;fill-rule:nonzero;stroke:none"
         d="m 236.703,31.969 c 0,-0.656 -0.062,-1.214 -0.187,-1.671 -0.125,-0.45 -0.297,-0.813 -0.516,-1.094 -0.219,-0.274 -0.477,-0.469 -0.766,-0.594 -0.293,-0.113 -0.605,-0.172 -0.937,-0.172 -0.336,0 -0.649,0.059 -0.938,0.172 -0.293,0.125 -0.547,0.32 -0.765,0.594 -0.211,0.281 -0.375,0.644 -0.5,1.094 -0.117,0.457 -0.172,1.015 -0.172,1.671 0,0.696 0.055,1.27 0.172,1.719 0.125,0.457 0.297,0.82 0.515,1.094 0.219,0.269 0.473,0.457 0.766,0.562 0.289,0.114 0.609,0.172 0.953,0.172 0.332,0 0.641,-0.058 0.922,-0.172 0.289,-0.105 0.539,-0.293 0.75,-0.562 0.219,-0.274 0.391,-0.637 0.516,-1.094 0.125,-0.449 0.187,-1.023 0.187,-1.719 z m -0.891,0 c 0,0.551 -0.039,1.008 -0.109,1.375 -0.062,0.364 -0.156,0.649 -0.281,0.86 -0.125,0.219 -0.281,0.367 -0.469,0.453 -0.18,0.094 -0.387,0.141 -0.625,0.141 -0.25,0 -0.469,-0.047 -0.656,-0.141 -0.188,-0.086 -0.352,-0.234 -0.484,-0.453 -0.126,-0.219 -0.219,-0.512 -0.282,-0.875 -0.062,-0.356 -0.094,-0.809 -0.094,-1.36 0,-0.523 0.032,-0.964 0.094,-1.328 0.071,-0.367 0.172,-0.656 0.297,-0.875 0.125,-0.218 0.281,-0.375 0.469,-0.468 0.187,-0.094 0.398,-0.141 0.64,-0.141 0.227,0 0.438,0.047 0.626,0.141 0.187,0.093 0.343,0.25 0.468,0.468 0.125,0.219 0.223,0.508 0.297,0.875 0.07,0.364 0.109,0.805 0.109,1.328 z" /><path
         id="path154"
         style="fill:#000000;fill-opacity:1;fill-rule:nonzero;stroke:none"
         d="m 237.621,28.532 0,0.625 c 0.164,0.375 0.367,0.707 0.609,1 0.239,0.289 0.489,0.555 0.75,0.797 0.27,0.238 0.532,0.457 0.782,0.656 0.258,0.195 0.492,0.395 0.703,0.594 0.207,0.207 0.375,0.422 0.5,0.64 0.133,0.227 0.203,0.477 0.203,0.75 0,0.196 -0.031,0.368 -0.094,0.516 -0.054,0.156 -0.136,0.281 -0.25,0.375 -0.105,0.102 -0.234,0.18 -0.39,0.234 -0.157,0.051 -0.329,0.079 -0.516,0.079 -0.18,0 -0.344,-0.028 -0.5,-0.079 -0.156,-0.054 -0.297,-0.125 -0.422,-0.218 -0.117,-0.094 -0.215,-0.215 -0.297,-0.36 -0.074,-0.148 -0.121,-0.32 -0.14,-0.515 l -0.891,0.093 c 0.031,0.239 0.098,0.469 0.203,0.688 0.102,0.219 0.25,0.41 0.438,0.578 0.187,0.164 0.41,0.297 0.671,0.391 0.27,0.093 0.582,0.14 0.938,0.14 0.344,0 0.644,-0.043 0.906,-0.125 0.27,-0.086 0.492,-0.203 0.672,-0.359 0.188,-0.156 0.328,-0.356 0.422,-0.594 0.102,-0.23 0.156,-0.5 0.156,-0.812 0,-0.231 -0.043,-0.45 -0.125,-0.657 -0.086,-0.211 -0.199,-0.406 -0.344,-0.593 -0.136,-0.188 -0.296,-0.371 -0.484,-0.547 -0.18,-0.18 -0.367,-0.352 -0.562,-0.516 -0.2,-0.168 -0.399,-0.336 -0.594,-0.5 -0.199,-0.168 -0.391,-0.336 -0.578,-0.5 -0.18,-0.168 -0.336,-0.336 -0.469,-0.5 -0.137,-0.168 -0.246,-0.344 -0.328,-0.531 l 3.594,0 0,-0.75 -4.563,0 z" /><path
         id="path156"
         style="fill:#000000;fill-opacity:1;fill-rule:nonzero;stroke:none"
         d="m 87.547,15.731 0,0.75 1.75,0 0,5.297 -1.547,-1.109 0,0.828 1.625,1.109 0.813,0 0,-6.125 1.671,0 0,-0.75 -4.312,0 z" /><path
         id="path158"
         style="fill:#000000;fill-opacity:1;fill-rule:nonzero;stroke:none"
         d="m 94.246,16.794 0,-0.813 c 0,-0.18 -0.008,-0.332 -0.016,-0.469 -0.011,-0.144 -0.039,-0.273 -0.078,-0.39 -0.031,-0.125 -0.074,-0.239 -0.125,-0.344 -0.043,-0.113 -0.093,-0.223 -0.156,-0.328 l -0.594,0 c 0.145,0.211 0.254,0.422 0.328,0.64 0.083,0.219 0.125,0.434 0.125,0.641 l -0.437,0 0,1.063 0.953,0 z" /><path
         id="path160"
         style="fill:#000000;fill-opacity:1;fill-rule:nonzero;stroke:none"
         d="m 95.66,15.731 0,0.625 c 0.164,0.375 0.367,0.707 0.61,1 0.238,0.289 0.488,0.555 0.75,0.797 0.269,0.238 0.531,0.457 0.781,0.656 0.258,0.196 0.492,0.395 0.703,0.594 0.207,0.207 0.375,0.422 0.5,0.641 0.133,0.226 0.203,0.476 0.203,0.75 0,0.195 -0.031,0.367 -0.094,0.515 -0.054,0.156 -0.136,0.281 -0.25,0.375 -0.105,0.102 -0.234,0.18 -0.39,0.235 -0.157,0.05 -0.328,0.078 -0.516,0.078 -0.18,0 -0.344,-0.028 -0.5,-0.078 C 97.301,21.864 97.16,21.794 97.035,21.7 96.918,21.606 96.82,21.485 96.738,21.34 96.664,21.192 96.617,21.02 96.598,20.825 l -0.891,0.094 c 0.031,0.238 0.098,0.468 0.203,0.687 0.102,0.219 0.25,0.41 0.438,0.578 0.187,0.164 0.41,0.297 0.672,0.391 0.269,0.094 0.582,0.14 0.937,0.14 0.344,0 0.645,-0.042 0.906,-0.125 0.27,-0.085 0.492,-0.203 0.672,-0.359 0.188,-0.156 0.328,-0.355 0.422,-0.594 0.102,-0.23 0.156,-0.5 0.156,-0.812 0,-0.231 -0.043,-0.449 -0.125,-0.656 -0.086,-0.211 -0.199,-0.407 -0.343,-0.594 -0.137,-0.188 -0.297,-0.371 -0.485,-0.547 -0.18,-0.18 -0.367,-0.352 -0.562,-0.516 -0.2,-0.168 -0.399,-0.336 -0.594,-0.5 -0.199,-0.168 -0.391,-0.336 -0.578,-0.5 -0.18,-0.168 -0.336,-0.336 -0.469,-0.5 -0.137,-0.168 -0.246,-0.343 -0.328,-0.531 l 3.594,0 0,-0.75 -4.563,0 z" /><path
         id="path162"
         style="fill:#000000;fill-opacity:1;fill-rule:nonzero;stroke:none"
         d="m 105.875,17.637 c 0,-0.324 -0.055,-0.609 -0.156,-0.859 -0.106,-0.242 -0.258,-0.449 -0.453,-0.625 -0.2,-0.168 -0.446,-0.297 -0.735,-0.391 -0.293,-0.082 -0.625,-0.125 -1,-0.125 -0.418,0 -0.773,0.055 -1.062,0.157 -0.293,0.101 -0.539,0.242 -0.735,0.421 -0.187,0.176 -0.328,0.375 -0.422,0.594 -0.093,0.219 -0.156,0.446 -0.187,0.688 l 0.922,0.078 c 0.019,-0.18 0.062,-0.344 0.125,-0.5 0.07,-0.149 0.172,-0.274 0.297,-0.375 0.125,-0.106 0.269,-0.188 0.437,-0.25 0.176,-0.063 0.383,-0.094 0.625,-0.094 0.446,0 0.797,0.109 1.047,0.328 0.25,0.219 0.375,0.539 0.375,0.969 0,0.258 -0.058,0.469 -0.172,0.625 -0.105,0.156 -0.242,0.273 -0.406,0.359 -0.168,0.082 -0.352,0.141 -0.547,0.172 -0.199,0.031 -0.383,0.047 -0.547,0.047 l -0.5,0 0,0.75 0.485,0 c 0.164,0 0.336,0.016 0.515,0.047 0.176,0.039 0.336,0.102 0.485,0.187 0.144,0.094 0.265,0.219 0.359,0.375 0.102,0.157 0.156,0.348 0.156,0.579 0,0.375 -0.109,0.664 -0.328,0.875 -0.219,0.218 -0.543,0.328 -0.969,0.328 -0.386,0 -0.699,-0.102 -0.937,-0.297 -0.242,-0.199 -0.383,-0.481 -0.422,-0.844 l -0.875,0.063 c 0.031,0.3 0.109,0.562 0.234,0.781 0.133,0.226 0.301,0.414 0.5,0.562 0.207,0.157 0.438,0.27 0.688,0.344 0.258,0.07 0.535,0.109 0.828,0.109 0.383,0 0.711,-0.054 0.984,-0.156 0.282,-0.094 0.508,-0.226 0.688,-0.39 0.176,-0.157 0.305,-0.352 0.39,-0.579 0.083,-0.218 0.126,-0.453 0.126,-0.703 0,-0.199 -0.032,-0.386 -0.094,-0.562 -0.055,-0.18 -0.137,-0.34 -0.25,-0.485 -0.117,-0.136 -0.266,-0.257 -0.453,-0.359 -0.18,-0.094 -0.399,-0.168 -0.657,-0.219 l 0,-0.015 c 0.282,-0.032 0.52,-0.102 0.719,-0.203 0.207,-0.094 0.379,-0.215 0.516,-0.36 0.133,-0.136 0.234,-0.297 0.297,-0.484 0.07,-0.18 0.109,-0.367 0.109,-0.563 z" /><path
         id="path164"
         style="fill:#000000;fill-opacity:1;fill-rule:nonzero;stroke:none"
         d="m 143.145,15.731 0,0.75 1.75,0 0,5.297 -1.547,-1.109 0,0.828 1.625,1.109 0.812,0 0,-6.125 1.672,0 0,-0.75 -4.312,0 z" /><path
         id="path166"
         style="fill:#000000;fill-opacity:1;fill-rule:nonzero;stroke:none"
         d="m 149.844,16.794 0,-0.813 c 0,-0.18 -0.008,-0.332 -0.016,-0.469 -0.012,-0.144 -0.039,-0.273 -0.078,-0.39 -0.031,-0.125 -0.074,-0.239 -0.125,-0.344 -0.043,-0.113 -0.094,-0.223 -0.156,-0.328 l -0.594,0 c 0.145,0.211 0.254,0.422 0.328,0.64 0.082,0.219 0.125,0.434 0.125,0.641 l -0.437,0 0,1.063 0.953,0 z" /><path
         id="path168"
         style="fill:#000000;fill-opacity:1;fill-rule:nonzero;stroke:none"
         d="m 155.934,19.169 c 0,-0.657 -0.063,-1.215 -0.188,-1.672 -0.125,-0.449 -0.297,-0.813 -0.516,-1.094 -0.218,-0.273 -0.476,-0.469 -0.765,-0.594 -0.293,-0.113 -0.606,-0.172 -0.938,-0.172 -0.336,0 -0.648,0.059 -0.937,0.172 -0.293,0.125 -0.547,0.321 -0.766,0.594 -0.211,0.281 -0.375,0.645 -0.5,1.094 -0.117,0.457 -0.172,1.015 -0.172,1.672 0,0.695 0.055,1.269 0.172,1.718 0.125,0.457 0.297,0.821 0.516,1.094 0.219,0.27 0.472,0.457 0.765,0.563 0.29,0.113 0.61,0.171 0.954,0.171 0.332,0 0.64,-0.058 0.921,-0.171 0.29,-0.106 0.54,-0.293 0.75,-0.563 0.219,-0.273 0.391,-0.637 0.516,-1.094 0.125,-0.449 0.188,-1.023 0.188,-1.718 z m -0.891,0 c 0,0.55 -0.039,1.007 -0.109,1.375 -0.063,0.363 -0.157,0.648 -0.282,0.859 -0.125,0.219 -0.281,0.367 -0.468,0.453 -0.18,0.094 -0.387,0.141 -0.625,0.141 -0.25,0 -0.469,-0.047 -0.657,-0.141 -0.187,-0.086 -0.351,-0.234 -0.484,-0.453 -0.125,-0.219 -0.219,-0.512 -0.281,-0.875 -0.063,-0.355 -0.094,-0.809 -0.094,-1.359 0,-0.524 0.031,-0.965 0.094,-1.329 0.07,-0.367 0.172,-0.656 0.297,-0.875 0.125,-0.218 0.281,-0.375 0.468,-0.468 0.188,-0.094 0.399,-0.141 0.641,-0.141 0.227,0 0.437,0.047 0.625,0.141 0.187,0.093 0.344,0.25 0.469,0.468 0.125,0.219 0.222,0.508 0.297,0.875 0.07,0.364 0.109,0.805 0.109,1.329 z" /><path
         id="path170"
         style="fill:#000000;fill-opacity:1;fill-rule:nonzero;stroke:none"
         d="m 161.477,17.637 c 0,-0.324 -0.055,-0.609 -0.157,-0.859 -0.105,-0.242 -0.258,-0.449 -0.453,-0.625 -0.199,-0.168 -0.445,-0.297 -0.734,-0.391 -0.293,-0.082 -0.625,-0.125 -1,-0.125 -0.418,0 -0.774,0.055 -1.063,0.157 -0.293,0.101 -0.539,0.242 -0.734,0.421 -0.188,0.176 -0.328,0.375 -0.422,0.594 -0.094,0.219 -0.156,0.446 -0.187,0.688 l 0.921,0.078 c 0.02,-0.18 0.063,-0.344 0.125,-0.5 0.071,-0.149 0.172,-0.274 0.297,-0.375 0.125,-0.106 0.27,-0.188 0.438,-0.25 0.176,-0.063 0.383,-0.094 0.625,-0.094 0.445,0 0.797,0.109 1.047,0.328 0.25,0.219 0.375,0.539 0.375,0.969 0,0.258 -0.059,0.469 -0.172,0.625 -0.106,0.156 -0.242,0.273 -0.406,0.359 -0.168,0.082 -0.352,0.141 -0.547,0.172 -0.2,0.031 -0.383,0.047 -0.547,0.047 l -0.5,0 0,0.75 0.484,0 c 0.164,0 0.336,0.016 0.516,0.047 0.176,0.039 0.336,0.102 0.484,0.187 0.145,0.094 0.266,0.219 0.36,0.375 0.101,0.157 0.156,0.348 0.156,0.579 0,0.375 -0.11,0.664 -0.328,0.875 -0.219,0.218 -0.543,0.328 -0.969,0.328 -0.387,0 -0.699,-0.102 -0.938,-0.297 -0.242,-0.199 -0.382,-0.481 -0.421,-0.844 l -0.875,0.063 c 0.031,0.3 0.109,0.562 0.234,0.781 0.133,0.226 0.301,0.414 0.5,0.562 0.207,0.157 0.437,0.27 0.687,0.344 0.258,0.07 0.536,0.109 0.829,0.109 0.382,0 0.71,-0.054 0.984,-0.156 0.281,-0.094 0.508,-0.226 0.687,-0.39 0.176,-0.157 0.305,-0.352 0.391,-0.579 0.082,-0.218 0.125,-0.453 0.125,-0.703 0,-0.199 -0.031,-0.386 -0.094,-0.562 -0.054,-0.18 -0.136,-0.34 -0.25,-0.485 -0.117,-0.136 -0.265,-0.257 -0.453,-0.359 -0.18,-0.094 -0.398,-0.168 -0.656,-0.219 l 0,-0.015 c 0.281,-0.032 0.519,-0.102 0.719,-0.203 0.207,-0.094 0.379,-0.215 0.515,-0.36 0.133,-0.136 0.235,-0.297 0.297,-0.484 0.071,-0.18 0.11,-0.367 0.11,-0.563 z" /><path
         id="path172"
         style="fill:#000000;fill-opacity:1;fill-rule:nonzero;stroke:none"
         d="m 167.066,17.981 c 0,-0.344 -0.054,-0.664 -0.156,-0.953 -0.094,-0.281 -0.234,-0.527 -0.422,-0.734 -0.187,-0.211 -0.422,-0.371 -0.703,-0.485 -0.273,-0.113 -0.586,-0.172 -0.937,-0.172 -0.407,0 -0.762,0.075 -1.063,0.219 -0.293,0.156 -0.539,0.375 -0.734,0.656 -0.199,0.289 -0.352,0.645 -0.453,1.063 -0.094,0.426 -0.141,0.906 -0.141,1.437 0,0.614 0.051,1.149 0.156,1.61 0.114,0.468 0.274,0.851 0.485,1.156 0.218,0.312 0.476,0.547 0.781,0.703 0.301,0.156 0.644,0.234 1.031,0.234 0.238,0 0.457,-0.027 0.656,-0.078 0.207,-0.043 0.395,-0.121 0.563,-0.234 0.164,-0.105 0.312,-0.25 0.437,-0.438 0.125,-0.179 0.227,-0.398 0.313,-0.656 l -0.844,-0.14 c -0.094,0.289 -0.242,0.5 -0.437,0.625 -0.2,0.132 -0.434,0.203 -0.703,0.203 -0.243,0 -0.461,-0.059 -0.657,-0.172 -0.187,-0.117 -0.351,-0.289 -0.484,-0.516 -0.137,-0.219 -0.246,-0.5 -0.328,-0.844 -0.074,-0.343 -0.11,-0.742 -0.11,-1.187 0.164,0.289 0.391,0.516 0.672,0.672 0.289,0.156 0.625,0.234 1,0.234 0.313,0 0.594,-0.054 0.844,-0.156 0.258,-0.105 0.477,-0.25 0.656,-0.438 0.188,-0.187 0.328,-0.417 0.422,-0.687 0.102,-0.273 0.156,-0.578 0.156,-0.922 z m -0.89,-0.031 c 0,0.226 -0.031,0.437 -0.094,0.625 -0.062,0.195 -0.152,0.363 -0.266,0.5 -0.117,0.133 -0.261,0.238 -0.437,0.312 -0.168,0.071 -0.367,0.11 -0.594,0.11 -0.156,0 -0.32,-0.028 -0.484,-0.078 -0.168,-0.043 -0.321,-0.118 -0.453,-0.219 -0.125,-0.106 -0.231,-0.246 -0.313,-0.422 -0.086,-0.168 -0.125,-0.375 -0.125,-0.625 0,-0.25 0.031,-0.492 0.094,-0.719 0.07,-0.219 0.164,-0.414 0.281,-0.578 0.125,-0.156 0.27,-0.281 0.438,-0.375 0.175,-0.094 0.375,-0.141 0.593,-0.141 0.207,0 0.395,0.036 0.563,0.11 0.164,0.07 0.305,0.176 0.422,0.312 0.125,0.145 0.219,0.317 0.281,0.516 0.063,0.195 0.094,0.422 0.094,0.672 z" /><path
         id="path174"
         style="fill:#000000;fill-opacity:1;fill-rule:nonzero;stroke:none"
         d="m 168.031,15.731 0,0.625 c 0.164,0.375 0.367,0.707 0.61,1 0.238,0.289 0.488,0.555 0.75,0.797 0.269,0.238 0.531,0.457 0.781,0.656 0.258,0.196 0.492,0.395 0.703,0.594 0.207,0.207 0.375,0.422 0.5,0.641 0.133,0.226 0.203,0.476 0.203,0.75 0,0.195 -0.031,0.367 -0.094,0.515 -0.054,0.156 -0.136,0.281 -0.25,0.375 -0.105,0.102 -0.234,0.18 -0.39,0.235 -0.156,0.05 -0.328,0.078 -0.516,0.078 -0.18,0 -0.344,-0.028 -0.5,-0.078 -0.156,-0.055 -0.297,-0.125 -0.422,-0.219 -0.117,-0.094 -0.215,-0.215 -0.297,-0.36 -0.074,-0.148 -0.121,-0.32 -0.14,-0.515 l -0.891,0.094 c 0.031,0.238 0.098,0.468 0.203,0.687 0.102,0.219 0.25,0.41 0.438,0.578 0.187,0.164 0.41,0.297 0.672,0.391 0.269,0.094 0.582,0.14 0.937,0.14 0.344,0 0.645,-0.042 0.906,-0.125 0.27,-0.085 0.493,-0.203 0.672,-0.359 0.188,-0.156 0.328,-0.355 0.422,-0.594 0.102,-0.23 0.156,-0.5 0.156,-0.812 0,-0.231 -0.043,-0.449 -0.125,-0.656 -0.086,-0.211 -0.199,-0.407 -0.343,-0.594 -0.137,-0.188 -0.297,-0.371 -0.485,-0.547 -0.179,-0.18 -0.367,-0.352 -0.562,-0.516 -0.199,-0.168 -0.399,-0.336 -0.594,-0.5 -0.199,-0.168 -0.391,-0.336 -0.578,-0.5 -0.18,-0.168 -0.336,-0.336 -0.469,-0.5 -0.137,-0.168 -0.246,-0.343 -0.328,-0.531 l 3.594,0 0,-0.75 -4.563,0 z" /><path
         id="path176"
         style="fill:#000000;fill-opacity:1;fill-rule:nonzero;stroke:none"
         d="m 177.418,17.294 0,-1.563 -0.828,0 0,1.563 -3.235,0 0,0.671 3.141,4.641 0.922,0 0,-4.625 0.969,0 0,-0.687 -0.969,0 z m -0.828,4.328 c 0,-0.024 -0.016,-0.059 -0.047,-0.11 -0.023,-0.043 -0.055,-0.093 -0.094,-0.156 -0.031,-0.055 -0.062,-0.109 -0.094,-0.172 -0.031,-0.062 -0.062,-0.109 -0.093,-0.14 l -1.766,-2.61 c -0.012,-0.023 -0.031,-0.054 -0.062,-0.094 -0.032,-0.042 -0.063,-0.089 -0.094,-0.14 -0.031,-0.043 -0.07,-0.086 -0.11,-0.125 -0.031,-0.043 -0.054,-0.074 -0.062,-0.094 l 2.422,0 0,3.641 z" /><path
         id="path178"
         style="fill:#000000;fill-opacity:1;fill-rule:nonzero;stroke:none"
         d="m 207.145,15.731 0,0.75 1.75,0 0,5.297 -1.547,-1.109 0,0.828 1.625,1.109 0.812,0 0,-6.125 1.672,0 0,-0.75 -4.312,0 z" /><path
         id="path180"
         style="fill:#000000;fill-opacity:1;fill-rule:nonzero;stroke:none"
         d="m 212.734,15.731 0,0.75 1.75,0 0,5.297 -1.546,-1.109 0,0.828 1.624,1.109 0.813,0 0,-6.125 1.672,0 0,-0.75 -4.313,0 z" /><path
         id="path182"
         style="fill:#000000;fill-opacity:1;fill-rule:nonzero;stroke:none"
         d="m 219.434,16.794 0,-0.813 c 0,-0.18 -0.008,-0.332 -0.016,-0.469 -0.012,-0.144 -0.039,-0.273 -0.078,-0.39 -0.031,-0.125 -0.074,-0.239 -0.125,-0.344 -0.043,-0.113 -0.094,-0.223 -0.156,-0.328 l -0.594,0 c 0.144,0.211 0.254,0.422 0.328,0.64 0.082,0.219 0.125,0.434 0.125,0.641 l -0.438,0 0,1.063 0.954,0 z" /><path
         id="path184"
         style="fill:#000000;fill-opacity:1;fill-rule:nonzero;stroke:none"
         d="m 225.477,17.637 c 0,-0.324 -0.055,-0.609 -0.157,-0.859 -0.105,-0.242 -0.258,-0.449 -0.453,-0.625 -0.199,-0.168 -0.445,-0.297 -0.734,-0.391 -0.293,-0.082 -0.625,-0.125 -1,-0.125 -0.418,0 -0.774,0.055 -1.063,0.157 -0.293,0.101 -0.539,0.242 -0.734,0.421 -0.188,0.176 -0.328,0.375 -0.422,0.594 -0.094,0.219 -0.156,0.446 -0.187,0.688 l 0.921,0.078 c 0.02,-0.18 0.063,-0.344 0.125,-0.5 0.071,-0.149 0.172,-0.274 0.297,-0.375 0.125,-0.106 0.27,-0.188 0.438,-0.25 0.176,-0.063 0.383,-0.094 0.625,-0.094 0.445,0 0.797,0.109 1.047,0.328 0.25,0.219 0.375,0.539 0.375,0.969 0,0.258 -0.059,0.469 -0.172,0.625 -0.106,0.156 -0.242,0.273 -0.406,0.359 -0.168,0.082 -0.352,0.141 -0.547,0.172 -0.2,0.031 -0.383,0.047 -0.547,0.047 l -0.5,0 0,0.75 0.484,0 c 0.164,0 0.336,0.016 0.516,0.047 0.176,0.039 0.336,0.102 0.484,0.187 0.145,0.094 0.266,0.219 0.36,0.375 0.101,0.157 0.156,0.348 0.156,0.579 0,0.375 -0.11,0.664 -0.328,0.875 -0.219,0.218 -0.543,0.328 -0.969,0.328 -0.387,0 -0.699,-0.102 -0.938,-0.297 -0.242,-0.199 -0.382,-0.481 -0.421,-0.844 l -0.875,0.063 c 0.031,0.3 0.109,0.562 0.234,0.781 0.133,0.226 0.301,0.414 0.5,0.562 0.207,0.157 0.437,0.27 0.687,0.344 0.258,0.07 0.536,0.109 0.829,0.109 0.382,0 0.71,-0.054 0.984,-0.156 0.281,-0.094 0.508,-0.226 0.687,-0.39 0.176,-0.157 0.305,-0.352 0.391,-0.579 0.082,-0.218 0.125,-0.453 0.125,-0.703 0,-0.199 -0.031,-0.386 -0.094,-0.562 -0.054,-0.18 -0.136,-0.34 -0.25,-0.485 -0.117,-0.136 -0.265,-0.257 -0.453,-0.359 -0.18,-0.094 -0.398,-0.168 -0.656,-0.219 l 0,-0.015 c 0.281,-0.032 0.519,-0.102 0.719,-0.203 0.207,-0.094 0.379,-0.215 0.515,-0.36 0.133,-0.136 0.235,-0.297 0.297,-0.484 0.071,-0.18 0.11,-0.367 0.11,-0.563 z" /><path
         id="path186"
         style="fill:#000000;fill-opacity:1;fill-rule:nonzero;stroke:none"
         d="m 231.066,17.637 c 0,-0.324 -0.054,-0.609 -0.156,-0.859 -0.105,-0.242 -0.258,-0.449 -0.453,-0.625 -0.199,-0.168 -0.445,-0.297 -0.734,-0.391 -0.293,-0.082 -0.625,-0.125 -1,-0.125 -0.418,0 -0.774,0.055 -1.063,0.157 -0.293,0.101 -0.539,0.242 -0.734,0.421 -0.188,0.176 -0.328,0.375 -0.422,0.594 -0.094,0.219 -0.156,0.446 -0.188,0.688 l 0.922,0.078 c 0.02,-0.18 0.063,-0.344 0.125,-0.5 0.071,-0.149 0.172,-0.274 0.297,-0.375 0.125,-0.106 0.27,-0.188 0.438,-0.25 0.175,-0.063 0.382,-0.094 0.625,-0.094 0.445,0 0.797,0.109 1.047,0.328 0.25,0.219 0.375,0.539 0.375,0.969 0,0.258 -0.059,0.469 -0.172,0.625 -0.106,0.156 -0.243,0.273 -0.407,0.359 -0.168,0.082 -0.351,0.141 -0.546,0.172 -0.2,0.031 -0.383,0.047 -0.547,0.047 l -0.5,0 0,0.75 0.484,0 c 0.164,0 0.336,0.016 0.516,0.047 0.175,0.039 0.336,0.102 0.484,0.187 0.145,0.094 0.266,0.219 0.359,0.375 0.102,0.157 0.157,0.348 0.157,0.579 0,0.375 -0.11,0.664 -0.328,0.875 -0.219,0.218 -0.543,0.328 -0.969,0.328 -0.387,0 -0.699,-0.102 -0.938,-0.297 -0.242,-0.199 -0.383,-0.481 -0.422,-0.844 l -0.875,0.063 c 0.032,0.3 0.11,0.562 0.235,0.781 0.133,0.226 0.301,0.414 0.5,0.562 0.207,0.157 0.437,0.27 0.687,0.344 0.258,0.07 0.535,0.109 0.828,0.109 0.383,0 0.711,-0.054 0.985,-0.156 0.281,-0.094 0.508,-0.226 0.687,-0.39 0.176,-0.157 0.305,-0.352 0.391,-0.579 0.082,-0.218 0.125,-0.453 0.125,-0.703 0,-0.199 -0.031,-0.386 -0.094,-0.562 -0.055,-0.18 -0.137,-0.34 -0.25,-0.485 -0.117,-0.136 -0.265,-0.257 -0.453,-0.359 -0.18,-0.094 -0.398,-0.168 -0.656,-0.219 l 0,-0.015 c 0.281,-0.032 0.519,-0.102 0.719,-0.203 0.207,-0.094 0.378,-0.215 0.515,-0.36 0.133,-0.136 0.235,-0.297 0.297,-0.484 0.07,-0.18 0.109,-0.367 0.109,-0.563 z" /><path
         id="path188"
         style="fill:#000000;fill-opacity:1;fill-rule:nonzero;stroke:none"
         d="m 236.656,17.653 c 0,-0.293 -0.047,-0.563 -0.14,-0.813 -0.094,-0.242 -0.235,-0.453 -0.422,-0.64 -0.188,-0.18 -0.434,-0.32 -0.735,-0.422 -0.293,-0.094 -0.64,-0.141 -1.047,-0.141 -0.406,0 -0.757,0.047 -1.046,0.141 -0.293,0.102 -0.539,0.242 -0.735,0.422 -0.187,0.176 -0.328,0.383 -0.422,0.625 -0.093,0.25 -0.14,0.519 -0.14,0.812 0,0.25 0.035,0.473 0.109,0.672 0.082,0.196 0.188,0.364 0.313,0.5 0.125,0.145 0.269,0.258 0.437,0.344 0.164,0.094 0.336,0.148 0.516,0.172 l 0,0.031 c -0.199,0.039 -0.375,0.109 -0.532,0.203 -0.148,0.102 -0.273,0.227 -0.374,0.375 -0.106,0.145 -0.184,0.301 -0.235,0.469 -0.055,0.176 -0.078,0.359 -0.078,0.547 0,0.238 0.047,0.461 0.141,0.672 0.093,0.218 0.226,0.406 0.406,0.562 0.187,0.164 0.414,0.297 0.687,0.391 0.27,0.094 0.582,0.14 0.938,0.14 0.375,0 0.695,-0.046 0.969,-0.14 0.281,-0.094 0.507,-0.227 0.687,-0.391 0.176,-0.156 0.305,-0.344 0.391,-0.562 0.094,-0.211 0.14,-0.438 0.14,-0.688 0,-0.187 -0.027,-0.371 -0.078,-0.547 -0.054,-0.168 -0.133,-0.324 -0.234,-0.468 -0.106,-0.137 -0.234,-0.258 -0.391,-0.36 -0.148,-0.094 -0.32,-0.164 -0.515,-0.203 l 0,-0.016 c 0.195,-0.031 0.379,-0.093 0.546,-0.187 0.176,-0.086 0.321,-0.199 0.438,-0.344 0.125,-0.136 0.223,-0.304 0.297,-0.5 0.07,-0.187 0.109,-0.406 0.109,-0.656 z m -1.078,3.234 c 0,0.176 -0.027,0.332 -0.078,0.469 -0.043,0.145 -0.117,0.27 -0.219,0.375 -0.093,0.102 -0.226,0.18 -0.39,0.234 -0.157,0.063 -0.356,0.094 -0.594,0.094 -0.231,0 -0.43,-0.031 -0.594,-0.094 -0.156,-0.054 -0.289,-0.132 -0.391,-0.234 -0.105,-0.105 -0.179,-0.23 -0.218,-0.375 -0.043,-0.137 -0.063,-0.293 -0.063,-0.469 0,-0.136 0.016,-0.277 0.047,-0.422 0.039,-0.136 0.11,-0.265 0.203,-0.39 0.094,-0.117 0.223,-0.211 0.391,-0.281 0.164,-0.075 0.379,-0.11 0.64,-0.11 0.27,0 0.489,0.035 0.657,0.11 0.164,0.07 0.289,0.164 0.375,0.281 0.094,0.125 0.156,0.254 0.187,0.39 0.031,0.145 0.047,0.286 0.047,0.422 z m 0.172,-3.156 c 0,0.164 -0.027,0.328 -0.078,0.484 -0.043,0.157 -0.121,0.29 -0.234,0.407 -0.106,0.125 -0.25,0.222 -0.438,0.297 -0.188,0.07 -0.422,0.109 -0.703,0.109 -0.262,0 -0.481,-0.039 -0.656,-0.109 -0.18,-0.075 -0.325,-0.172 -0.438,-0.297 -0.117,-0.125 -0.199,-0.266 -0.25,-0.422 -0.055,-0.156 -0.078,-0.32 -0.078,-0.485 0,-0.21 0.023,-0.402 0.078,-0.578 0.051,-0.179 0.133,-0.328 0.25,-0.453 0.113,-0.125 0.258,-0.226 0.438,-0.297 0.187,-0.062 0.414,-0.093 0.687,-0.093 0.258,0 0.477,0.031 0.656,0.093 0.188,0.071 0.336,0.172 0.454,0.297 0.113,0.125 0.191,0.274 0.234,0.453 0.051,0.176 0.078,0.375 0.078,0.594 z" /><path
         id="path190"
         style="fill:#000000;fill-opacity:1;fill-rule:nonzero;stroke:none"
         d="m 242.246,17.981 c 0,-0.344 -0.055,-0.664 -0.156,-0.953 -0.094,-0.281 -0.235,-0.527 -0.422,-0.734 -0.188,-0.211 -0.422,-0.371 -0.703,-0.485 -0.274,-0.113 -0.586,-0.172 -0.938,-0.172 -0.406,0 -0.761,0.075 -1.062,0.219 -0.293,0.156 -0.539,0.375 -0.735,0.656 -0.199,0.289 -0.351,0.645 -0.453,1.063 -0.093,0.426 -0.14,0.906 -0.14,1.437 0,0.614 0.051,1.149 0.156,1.61 0.113,0.468 0.273,0.851 0.484,1.156 0.219,0.312 0.477,0.547 0.782,0.703 0.3,0.156 0.644,0.234 1.031,0.234 0.238,0 0.457,-0.027 0.656,-0.078 0.207,-0.043 0.395,-0.121 0.563,-0.234 0.164,-0.105 0.312,-0.25 0.437,-0.438 0.125,-0.179 0.227,-0.398 0.313,-0.656 l -0.844,-0.14 c -0.094,0.289 -0.242,0.5 -0.438,0.625 -0.199,0.132 -0.433,0.203 -0.703,0.203 -0.242,0 -0.461,-0.059 -0.656,-0.172 -0.188,-0.117 -0.352,-0.289 -0.484,-0.516 -0.137,-0.219 -0.246,-0.5 -0.329,-0.844 -0.074,-0.343 -0.109,-0.742 -0.109,-1.187 0.164,0.289 0.391,0.516 0.672,0.672 0.289,0.156 0.625,0.234 1,0.234 0.312,0 0.594,-0.054 0.844,-0.156 0.258,-0.105 0.476,-0.25 0.656,-0.438 0.187,-0.187 0.328,-0.417 0.422,-0.687 0.101,-0.273 0.156,-0.578 0.156,-0.922 z m -0.891,-0.031 c 0,0.226 -0.031,0.437 -0.093,0.625 -0.063,0.195 -0.153,0.363 -0.266,0.5 -0.117,0.133 -0.262,0.238 -0.437,0.312 -0.168,0.071 -0.368,0.11 -0.594,0.11 -0.156,0 -0.32,-0.028 -0.485,-0.078 -0.168,-0.043 -0.32,-0.118 -0.453,-0.219 -0.125,-0.106 -0.23,-0.246 -0.312,-0.422 -0.086,-0.168 -0.125,-0.375 -0.125,-0.625 0,-0.25 0.031,-0.492 0.094,-0.719 0.07,-0.219 0.164,-0.414 0.281,-0.578 0.125,-0.156 0.269,-0.281 0.437,-0.375 0.176,-0.094 0.375,-0.141 0.594,-0.141 0.207,0 0.395,0.036 0.563,0.11 0.164,0.07 0.304,0.176 0.421,0.312 0.125,0.145 0.219,0.317 0.282,0.516 0.062,0.195 0.093,0.422 0.093,0.672 z" /><path
         id="path192"
         style="fill:#000000;fill-opacity:1;fill-rule:nonzero;stroke:none"
         d="m 87.281,2.93 0,0.625 c 0.164,0.375 0.367,0.707 0.61,1 0.238,0.289 0.488,0.555 0.75,0.797 0.269,0.238 0.531,0.457 0.781,0.656 0.258,0.196 0.492,0.395 0.703,0.594 0.207,0.207 0.375,0.422 0.5,0.641 0.133,0.226 0.203,0.476 0.203,0.75 0,0.195 -0.031,0.367 -0.094,0.515 -0.054,0.157 -0.136,0.282 -0.25,0.375 -0.105,0.102 -0.234,0.18 -0.39,0.235 -0.156,0.051 -0.328,0.078 -0.516,0.078 -0.18,0 -0.344,-0.027 -0.5,-0.078 C 88.922,9.063 88.781,8.993 88.656,8.899 88.539,8.805 88.441,8.684 88.359,8.54 88.285,8.391 88.238,8.219 88.219,8.024 l -0.891,0.094 c 0.031,0.238 0.098,0.469 0.203,0.687 0.102,0.219 0.25,0.41 0.438,0.578 0.187,0.165 0.41,0.297 0.672,0.391 0.269,0.094 0.582,0.141 0.937,0.141 0.344,0 0.645,-0.043 0.906,-0.125 0.27,-0.086 0.493,-0.203 0.672,-0.36 0.188,-0.156 0.328,-0.355 0.422,-0.593 0.102,-0.231 0.156,-0.5 0.156,-0.813 0,-0.23 -0.043,-0.449 -0.125,-0.656 C 91.523,7.157 91.41,6.962 91.266,6.774 91.129,6.587 90.969,6.403 90.781,6.227 90.602,6.048 90.414,5.876 90.219,5.712 90.02,5.544 89.82,5.376 89.625,5.212 89.426,5.044 89.234,4.876 89.047,4.712 88.867,4.544 88.711,4.376 88.578,4.212 88.441,4.044 88.332,3.868 88.25,3.68 l 3.594,0 0,-0.75 -4.563,0 z" /><path
         id="path194"
         style="fill:#000000;fill-opacity:1;fill-rule:nonzero;stroke:none"
         d="m 94.246,3.993 0,-0.813 C 94.246,3.001 94.238,2.848 94.23,2.712 94.219,2.567 94.191,2.438 94.152,2.321 94.121,2.196 94.078,2.083 94.027,1.977 93.984,1.864 93.934,1.755 93.871,1.649 l -0.594,0 c 0.145,0.211 0.254,0.422 0.328,0.641 0.083,0.218 0.125,0.433 0.125,0.64 l -0.437,0 0,1.063 0.953,0 z" /><path
         id="path196"
         style="fill:#000000;fill-opacity:1;fill-rule:nonzero;stroke:none"
         d="m 100.301,5.165 c 0,-0.344 -0.055,-0.664 -0.156,-0.953 C 100.039,3.93 99.883,3.684 99.676,3.477 99.477,3.278 99.223,3.122 98.91,3.008 98.605,2.895 98.258,2.837 97.863,2.837 97.496,2.837 97.18,2.88 96.91,2.962 96.648,3.044 96.426,3.157 96.238,3.305 96.051,3.45 95.898,3.622 95.785,3.821 95.68,4.028 95.605,4.243 95.566,4.462 l 0.891,0.109 c 0.031,-0.125 0.078,-0.25 0.141,-0.375 0.062,-0.125 0.148,-0.234 0.265,-0.328 0.114,-0.094 0.254,-0.172 0.422,-0.235 0.164,-0.054 0.363,-0.078 0.594,-0.078 0.226,0 0.437,0.032 0.625,0.094 0.187,0.07 0.344,0.176 0.469,0.313 0.132,0.132 0.238,0.3 0.312,0.5 0.07,0.207 0.11,0.437 0.11,0.687 0,0.219 -0.04,0.414 -0.11,0.594 -0.062,0.176 -0.164,0.328 -0.297,0.453 -0.125,0.125 -0.281,0.223 -0.468,0.297 -0.18,0.07 -0.387,0.109 -0.625,0.109 -0.149,0 -0.282,-0.015 -0.407,-0.047 C 97.371,6.532 97.258,6.497 97.145,6.446 97.039,6.403 96.945,6.352 96.863,6.29 96.777,6.235 96.695,6.173 96.613,6.102 l -0.859,0 0.234,3.703 3.907,0 0,-0.734 -3.11,0 -0.125,-2.188 c 0.156,0.114 0.348,0.211 0.578,0.297 0.239,0.094 0.52,0.141 0.844,0.141 0.344,0 0.648,-0.055 0.922,-0.156 0.269,-0.106 0.5,-0.258 0.687,-0.453 0.196,-0.188 0.348,-0.414 0.454,-0.672 0.101,-0.262 0.156,-0.555 0.156,-0.875 z" /><path
         id="path198"
         style="fill:#000000;fill-opacity:1;fill-rule:nonzero;stroke:none"
         d="m 105.047,4.493 0,-1.563 -0.828,0 0,1.563 -3.235,0 0,0.672 3.141,4.64 0.922,0 0,-4.625 0.969,0 0,-0.687 -0.969,0 z m -0.828,4.328 c 0,-0.023 -0.016,-0.059 -0.047,-0.109 -0.024,-0.043 -0.055,-0.094 -0.094,-0.157 -0.031,-0.054 -0.062,-0.109 -0.094,-0.172 -0.031,-0.062 -0.062,-0.109 -0.093,-0.14 l -1.766,-2.61 C 102.113,5.61 102.094,5.579 102.062,5.54 102.031,5.497 102,5.45 101.969,5.399 101.938,5.356 101.898,5.313 101.859,5.274 101.828,5.231 101.805,5.2 101.797,5.18 l 2.422,0 0,3.641 z" /><path
         id="path200"
         style="fill:#000000;fill-opacity:1;fill-rule:nonzero;stroke:none"
         d="m 147.504,4.852 c 0,-0.293 -0.047,-0.562 -0.141,-0.812 -0.093,-0.242 -0.234,-0.453 -0.422,-0.641 -0.187,-0.18 -0.433,-0.32 -0.734,-0.422 -0.293,-0.094 -0.641,-0.14 -1.047,-0.14 -0.406,0 -0.758,0.046 -1.047,0.14 -0.293,0.102 -0.539,0.242 -0.734,0.422 -0.188,0.176 -0.328,0.383 -0.422,0.625 -0.094,0.25 -0.141,0.52 -0.141,0.813 0,0.25 0.036,0.472 0.11,0.671 0.082,0.196 0.187,0.364 0.312,0.5 0.125,0.145 0.27,0.258 0.438,0.344 0.164,0.094 0.336,0.149 0.515,0.172 l 0,0.031 c -0.199,0.039 -0.375,0.11 -0.531,0.203 -0.148,0.102 -0.273,0.227 -0.375,0.375 -0.105,0.145 -0.183,0.301 -0.234,0.469 -0.055,0.176 -0.078,0.36 -0.078,0.547 0,0.238 0.047,0.461 0.14,0.672 0.094,0.219 0.227,0.406 0.407,0.562 0.187,0.165 0.414,0.297 0.687,0.391 0.27,0.094 0.582,0.141 0.938,0.141 0.375,0 0.695,-0.047 0.968,-0.141 0.282,-0.094 0.508,-0.226 0.688,-0.391 0.176,-0.156 0.304,-0.343 0.39,-0.562 0.094,-0.211 0.141,-0.438 0.141,-0.688 0,-0.187 -0.027,-0.371 -0.078,-0.546 -0.055,-0.168 -0.133,-0.325 -0.234,-0.469 -0.106,-0.137 -0.235,-0.258 -0.391,-0.36 -0.149,-0.093 -0.32,-0.164 -0.516,-0.203 l 0,-0.015 c 0.196,-0.032 0.379,-0.094 0.547,-0.188 0.176,-0.086 0.32,-0.199 0.438,-0.344 0.125,-0.136 0.222,-0.304 0.297,-0.5 0.07,-0.187 0.109,-0.406 0.109,-0.656 z m -1.078,3.235 c 0,0.175 -0.028,0.332 -0.078,0.468 -0.043,0.145 -0.118,0.27 -0.219,0.375 -0.094,0.102 -0.227,0.18 -0.391,0.235 -0.156,0.062 -0.355,0.093 -0.593,0.093 -0.231,0 -0.43,-0.031 -0.594,-0.093 -0.156,-0.055 -0.289,-0.133 -0.391,-0.235 -0.105,-0.105 -0.18,-0.23 -0.219,-0.375 -0.043,-0.136 -0.062,-0.293 -0.062,-0.468 0,-0.137 0.016,-0.278 0.047,-0.422 0.039,-0.137 0.109,-0.266 0.203,-0.391 0.094,-0.117 0.223,-0.211 0.391,-0.281 0.164,-0.074 0.378,-0.11 0.64,-0.11 0.27,0 0.488,0.036 0.656,0.11 0.164,0.07 0.289,0.164 0.375,0.281 0.094,0.125 0.157,0.254 0.188,0.391 0.031,0.144 0.047,0.285 0.047,0.422 z m 0.172,-3.157 c 0,0.164 -0.028,0.328 -0.078,0.485 -0.043,0.156 -0.122,0.289 -0.235,0.406 -0.105,0.125 -0.25,0.223 -0.437,0.297 -0.188,0.07 -0.422,0.109 -0.703,0.109 -0.262,0 -0.481,-0.039 -0.657,-0.109 -0.179,-0.074 -0.324,-0.172 -0.437,-0.297 -0.117,-0.125 -0.199,-0.266 -0.25,-0.422 -0.055,-0.156 -0.078,-0.32 -0.078,-0.484 0,-0.211 0.023,-0.403 0.078,-0.578 0.051,-0.18 0.133,-0.329 0.25,-0.454 0.113,-0.125 0.258,-0.226 0.437,-0.296 0.188,-0.063 0.414,-0.094 0.688,-0.094 0.258,0 0.476,0.031 0.656,0.094 0.188,0.07 0.336,0.171 0.453,0.296 0.113,0.125 0.192,0.274 0.235,0.454 0.05,0.175 0.078,0.375 0.078,0.593 z" /><path
         id="path202"
         style="fill:#000000;fill-opacity:1;fill-rule:nonzero;stroke:none"
         d="m 149.844,3.993 0,-0.813 c 0,-0.179 -0.008,-0.332 -0.016,-0.468 -0.012,-0.145 -0.039,-0.274 -0.078,-0.391 -0.031,-0.125 -0.074,-0.238 -0.125,-0.344 -0.043,-0.113 -0.094,-0.222 -0.156,-0.328 l -0.594,0 c 0.145,0.211 0.254,0.422 0.328,0.641 0.082,0.218 0.125,0.433 0.125,0.64 l -0.437,0 0,1.063 0.953,0 z" /><path
         id="path204"
         style="fill:#000000;fill-opacity:1;fill-rule:nonzero;stroke:none"
         d="m 151.527,2.93 0,0.75 1.75,0 0,5.297 -1.547,-1.109 0,0.828 1.625,1.109 0.813,0 0,-6.125 1.672,0 0,-0.75 -4.313,0 z" /><path
         id="path206"
         style="fill:#000000;fill-opacity:1;fill-rule:nonzero;stroke:none"
         d="m 161.445,6.508 c 0,-0.617 -0.062,-1.152 -0.187,-1.609 -0.117,-0.461 -0.281,-0.844 -0.5,-1.156 -0.211,-0.305 -0.469,-0.531 -0.781,-0.688 -0.305,-0.144 -0.649,-0.218 -1.032,-0.218 -0.261,0 -0.5,0.027 -0.718,0.078 -0.211,0.05 -0.399,0.133 -0.563,0.25 -0.168,0.113 -0.309,0.258 -0.422,0.437 -0.117,0.188 -0.211,0.41 -0.281,0.672 l 0.844,0.125 c 0.093,-0.293 0.234,-0.512 0.422,-0.656 0.195,-0.137 0.441,-0.203 0.734,-0.203 0.238,0 0.457,0.054 0.656,0.172 0.195,0.113 0.363,0.281 0.5,0.5 0.133,0.226 0.238,0.507 0.313,0.843 0.082,0.344 0.129,0.743 0.14,1.203 -0.074,-0.156 -0.168,-0.296 -0.281,-0.421 -0.117,-0.118 -0.25,-0.215 -0.406,-0.297 -0.149,-0.086 -0.309,-0.153 -0.485,-0.203 -0.179,-0.043 -0.355,-0.063 -0.531,-0.063 -0.312,0 -0.601,0.055 -0.859,0.172 -0.25,0.113 -0.465,0.269 -0.641,0.469 -0.179,0.207 -0.312,0.453 -0.406,0.734 -0.094,0.281 -0.141,0.598 -0.141,0.953 0,0.352 0.051,0.672 0.157,0.953 0.101,0.289 0.25,0.535 0.437,0.735 0.195,0.195 0.438,0.347 0.719,0.453 0.289,0.113 0.617,0.172 0.984,0.172 0.758,0 1.336,-0.289 1.735,-0.86 0.394,-0.562 0.593,-1.414 0.593,-2.547 z m -0.968,0.844 c 0,0.258 -0.032,0.5 -0.094,0.719 -0.055,0.227 -0.141,0.426 -0.266,0.594 -0.117,0.164 -0.262,0.297 -0.437,0.39 -0.168,0.094 -0.368,0.141 -0.594,0.141 -0.219,0 -0.414,-0.039 -0.578,-0.109 -0.168,-0.075 -0.313,-0.184 -0.438,-0.329 -0.117,-0.136 -0.203,-0.304 -0.265,-0.5 -0.063,-0.199 -0.094,-0.418 -0.094,-0.656 0,-0.23 0.023,-0.449 0.078,-0.656 0.063,-0.199 0.149,-0.371 0.266,-0.516 0.113,-0.136 0.254,-0.246 0.422,-0.328 0.175,-0.086 0.375,-0.125 0.593,-0.125 0.164,0 0.332,0.024 0.5,0.078 0.164,0.051 0.317,0.133 0.453,0.25 0.133,0.114 0.243,0.258 0.329,0.438 0.082,0.176 0.125,0.379 0.125,0.609 z" /><path
         id="path208"
         style="fill:#000000;fill-opacity:1;fill-rule:nonzero;stroke:none"
         d="m 162.441,2.93 0,0.625 c 0.164,0.375 0.368,0.707 0.61,1 0.238,0.289 0.488,0.555 0.75,0.797 0.269,0.238 0.531,0.457 0.781,0.656 0.258,0.196 0.492,0.395 0.703,0.594 0.207,0.207 0.375,0.422 0.5,0.641 0.133,0.226 0.203,0.476 0.203,0.75 0,0.195 -0.031,0.367 -0.093,0.515 -0.055,0.157 -0.137,0.282 -0.25,0.375 -0.106,0.102 -0.235,0.18 -0.391,0.235 -0.156,0.051 -0.328,0.078 -0.516,0.078 -0.179,0 -0.343,-0.027 -0.5,-0.078 -0.156,-0.055 -0.297,-0.125 -0.422,-0.219 -0.117,-0.094 -0.214,-0.215 -0.296,-0.359 -0.075,-0.149 -0.122,-0.321 -0.141,-0.516 l -0.891,0.094 c 0.032,0.238 0.098,0.469 0.203,0.687 0.102,0.219 0.25,0.41 0.438,0.578 0.187,0.165 0.41,0.297 0.672,0.391 0.269,0.094 0.582,0.141 0.937,0.141 0.344,0 0.645,-0.043 0.907,-0.125 0.269,-0.086 0.492,-0.203 0.671,-0.36 0.188,-0.156 0.329,-0.355 0.422,-0.593 0.102,-0.231 0.157,-0.5 0.157,-0.813 0,-0.23 -0.043,-0.449 -0.125,-0.656 -0.086,-0.211 -0.2,-0.406 -0.344,-0.594 -0.137,-0.187 -0.297,-0.371 -0.485,-0.547 -0.179,-0.179 -0.367,-0.351 -0.562,-0.515 -0.199,-0.168 -0.399,-0.336 -0.594,-0.5 -0.199,-0.168 -0.39,-0.336 -0.578,-0.5 -0.18,-0.168 -0.336,-0.336 -0.469,-0.5 -0.136,-0.168 -0.246,-0.344 -0.328,-0.532 l 3.594,0 0,-0.75 -4.563,0 z" /><path
         id="path210"
         style="fill:#000000;fill-opacity:1;fill-rule:nonzero;stroke:none"
         d="m 172.703,6.368 c 0,-0.656 -0.062,-1.215 -0.187,-1.672 -0.125,-0.449 -0.297,-0.813 -0.516,-1.094 -0.219,-0.273 -0.477,-0.469 -0.766,-0.594 -0.293,-0.113 -0.605,-0.171 -0.937,-0.171 -0.336,0 -0.649,0.058 -0.938,0.171 -0.293,0.125 -0.547,0.321 -0.765,0.594 -0.211,0.281 -0.375,0.645 -0.5,1.094 -0.117,0.457 -0.172,1.016 -0.172,1.672 0,0.695 0.055,1.269 0.172,1.719 0.125,0.457 0.297,0.82 0.515,1.093 0.219,0.27 0.473,0.457 0.766,0.563 0.289,0.113 0.609,0.172 0.953,0.172 0.332,0 0.641,-0.059 0.922,-0.172 0.289,-0.106 0.539,-0.293 0.75,-0.563 0.219,-0.273 0.391,-0.636 0.516,-1.093 0.125,-0.45 0.187,-1.024 0.187,-1.719 z m -0.891,0 c 0,0.551 -0.039,1.008 -0.109,1.375 -0.062,0.363 -0.156,0.648 -0.281,0.859 -0.125,0.219 -0.281,0.367 -0.469,0.453 -0.18,0.094 -0.387,0.141 -0.625,0.141 -0.25,0 -0.469,-0.047 -0.656,-0.141 -0.188,-0.086 -0.352,-0.234 -0.484,-0.453 -0.126,-0.219 -0.219,-0.512 -0.282,-0.875 -0.062,-0.355 -0.094,-0.808 -0.094,-1.359 0,-0.524 0.032,-0.965 0.094,-1.328 0.071,-0.367 0.172,-0.657 0.297,-0.875 0.125,-0.219 0.281,-0.375 0.469,-0.469 0.187,-0.094 0.398,-0.141 0.64,-0.141 0.227,0 0.438,0.047 0.626,0.141 0.187,0.094 0.343,0.25 0.468,0.469 0.125,0.218 0.223,0.508 0.297,0.875 0.07,0.363 0.109,0.804 0.109,1.328 z" /><path
         id="path212"
         style="fill:#000000;fill-opacity:1;fill-rule:nonzero;stroke:none"
         d="m 178.262,5.165 c 0,-0.344 -0.055,-0.664 -0.157,-0.953 C 178,3.93 177.844,3.684 177.637,3.477 c -0.199,-0.199 -0.453,-0.355 -0.766,-0.469 -0.305,-0.113 -0.652,-0.171 -1.047,-0.171 -0.367,0 -0.683,0.043 -0.953,0.125 -0.262,0.082 -0.484,0.195 -0.672,0.343 -0.187,0.145 -0.34,0.317 -0.453,0.516 -0.105,0.207 -0.18,0.422 -0.219,0.641 l 0.891,0.109 c 0.031,-0.125 0.078,-0.25 0.141,-0.375 0.062,-0.125 0.148,-0.234 0.265,-0.328 0.114,-0.094 0.254,-0.172 0.422,-0.235 0.164,-0.054 0.363,-0.078 0.594,-0.078 0.226,0 0.437,0.032 0.625,0.094 0.187,0.07 0.344,0.176 0.469,0.313 0.132,0.132 0.238,0.3 0.312,0.5 0.07,0.207 0.109,0.437 0.109,0.687 0,0.219 -0.039,0.414 -0.109,0.594 -0.062,0.176 -0.164,0.328 -0.297,0.453 -0.125,0.125 -0.281,0.223 -0.469,0.297 -0.179,0.07 -0.386,0.109 -0.625,0.109 -0.148,0 -0.281,-0.015 -0.406,-0.047 -0.117,-0.023 -0.23,-0.058 -0.344,-0.109 C 175,6.403 174.906,6.352 174.824,6.29 174.738,6.235 174.656,6.173 174.574,6.102 l -0.859,0 0.234,3.703 3.906,0 0,-0.734 -3.109,0 -0.125,-2.188 c 0.156,0.114 0.348,0.211 0.578,0.297 0.239,0.094 0.52,0.141 0.844,0.141 0.344,0 0.648,-0.055 0.922,-0.156 0.269,-0.106 0.5,-0.258 0.687,-0.453 0.196,-0.188 0.348,-0.414 0.453,-0.672 0.102,-0.262 0.157,-0.555 0.157,-0.875 z" /><path
         id="path214"
         style="fill:#000000;fill-opacity:1;fill-rule:nonzero;stroke:none"
         d="m 207.145,2.93 0,0.75 1.75,0 0,5.297 -1.547,-1.109 0,0.828 1.625,1.109 0.812,0 0,-6.125 1.672,0 0,-0.75 -4.312,0 z" /><path
         id="path216"
         style="fill:#000000;fill-opacity:1;fill-rule:nonzero;stroke:none"
         d="m 217.141,6.368 c 0,-0.656 -0.063,-1.215 -0.188,-1.672 -0.125,-0.449 -0.297,-0.813 -0.515,-1.094 -0.219,-0.273 -0.477,-0.469 -0.766,-0.594 -0.293,-0.113 -0.606,-0.171 -0.938,-0.171 -0.336,0 -0.648,0.058 -0.937,0.171 -0.293,0.125 -0.547,0.321 -0.766,0.594 -0.211,0.281 -0.375,0.645 -0.5,1.094 -0.117,0.457 -0.172,1.016 -0.172,1.672 0,0.695 0.055,1.269 0.172,1.719 0.125,0.457 0.297,0.82 0.516,1.093 0.219,0.27 0.473,0.457 0.765,0.563 0.29,0.113 0.61,0.172 0.954,0.172 0.332,0 0.64,-0.059 0.922,-0.172 0.289,-0.106 0.539,-0.293 0.75,-0.563 0.218,-0.273 0.39,-0.636 0.515,-1.093 0.125,-0.45 0.188,-1.024 0.188,-1.719 z m -0.891,0 c 0,0.551 -0.039,1.008 -0.109,1.375 -0.063,0.363 -0.157,0.648 -0.282,0.859 -0.125,0.219 -0.281,0.367 -0.468,0.453 -0.18,0.094 -0.387,0.141 -0.625,0.141 -0.25,0 -0.469,-0.047 -0.657,-0.141 C 213.922,8.969 213.758,8.821 213.625,8.602 213.5,8.383 213.406,8.09 213.344,7.727 213.281,7.372 213.25,6.919 213.25,6.368 c 0,-0.524 0.031,-0.965 0.094,-1.328 0.07,-0.367 0.172,-0.657 0.297,-0.875 0.125,-0.219 0.281,-0.375 0.468,-0.469 0.188,-0.094 0.399,-0.141 0.641,-0.141 0.227,0 0.438,0.047 0.625,0.141 0.187,0.094 0.344,0.25 0.469,0.469 0.125,0.218 0.222,0.508 0.297,0.875 0.07,0.363 0.109,0.804 0.109,1.328 z" /><path
         id="path218"
         style="fill:#000000;fill-opacity:1;fill-rule:nonzero;stroke:none"
         d="m 219.434,3.993 0,-0.813 c 0,-0.179 -0.008,-0.332 -0.016,-0.468 -0.012,-0.145 -0.039,-0.274 -0.078,-0.391 -0.031,-0.125 -0.074,-0.238 -0.125,-0.344 -0.043,-0.113 -0.094,-0.222 -0.156,-0.328 l -0.594,0 c 0.144,0.211 0.254,0.422 0.328,0.641 0.082,0.218 0.125,0.433 0.125,0.64 l -0.438,0 0,1.063 0.954,0 z" /><path
         id="path220"
         style="fill:#000000;fill-opacity:1;fill-rule:nonzero;stroke:none"
         d="m 220.852,2.93 0,0.625 c 0.164,0.375 0.367,0.707 0.609,1 0.238,0.289 0.488,0.555 0.75,0.797 0.269,0.238 0.531,0.457 0.781,0.656 0.258,0.196 0.492,0.395 0.703,0.594 0.207,0.207 0.375,0.422 0.5,0.641 0.133,0.226 0.203,0.476 0.203,0.75 0,0.195 -0.031,0.367 -0.093,0.515 -0.055,0.157 -0.137,0.282 -0.25,0.375 -0.106,0.102 -0.235,0.18 -0.391,0.235 -0.156,0.051 -0.328,0.078 -0.516,0.078 -0.179,0 -0.343,-0.027 -0.5,-0.078 -0.156,-0.055 -0.296,-0.125 -0.421,-0.219 -0.118,-0.094 -0.215,-0.215 -0.297,-0.359 -0.075,-0.149 -0.121,-0.321 -0.141,-0.516 l -0.891,0.094 c 0.032,0.238 0.098,0.469 0.204,0.687 0.101,0.219 0.25,0.41 0.437,0.578 0.188,0.165 0.41,0.297 0.672,0.391 0.269,0.094 0.582,0.141 0.937,0.141 0.344,0 0.645,-0.043 0.907,-0.125 0.269,-0.086 0.492,-0.203 0.672,-0.36 0.187,-0.156 0.328,-0.355 0.421,-0.593 0.102,-0.231 0.157,-0.5 0.157,-0.813 0,-0.23 -0.043,-0.449 -0.125,-0.656 -0.086,-0.211 -0.2,-0.406 -0.344,-0.594 -0.137,-0.187 -0.297,-0.371 -0.484,-0.547 -0.18,-0.179 -0.368,-0.351 -0.563,-0.515 -0.199,-0.168 -0.398,-0.336 -0.594,-0.5 -0.199,-0.168 -0.39,-0.336 -0.578,-0.5 -0.179,-0.168 -0.336,-0.336 -0.469,-0.5 -0.136,-0.168 -0.246,-0.344 -0.328,-0.532 l 3.594,0 0,-0.75 -4.562,0 z" /><path
         id="path222"
         style="fill:#000000;fill-opacity:1;fill-rule:nonzero;stroke:none"
         d="M 231.004,9.102 C 230.66,8.571 230.34,8.059 230.051,7.571 229.758,7.09 229.508,6.602 229.301,6.102 229.09,5.61 228.93,5.106 228.816,4.587 228.699,4.063 228.645,3.512 228.645,2.93 l -0.922,0 c 0,0.551 0.062,1.086 0.187,1.61 0.133,0.531 0.313,1.05 0.531,1.562 0.227,0.508 0.489,1.008 0.782,1.5 0.289,0.5 0.597,0.988 0.922,1.469 l -3.688,0 0,0.734 4.547,0 0,-0.703 z" /><path
         id="path224"
         style="fill:#000000;fill-opacity:1;fill-rule:nonzero;stroke:none"
         d="m 236.703,6.368 c 0,-0.656 -0.062,-1.215 -0.187,-1.672 -0.125,-0.449 -0.297,-0.813 -0.516,-1.094 -0.219,-0.273 -0.477,-0.469 -0.766,-0.594 -0.293,-0.113 -0.605,-0.171 -0.937,-0.171 -0.336,0 -0.649,0.058 -0.938,0.171 -0.293,0.125 -0.547,0.321 -0.765,0.594 -0.211,0.281 -0.375,0.645 -0.5,1.094 -0.117,0.457 -0.172,1.016 -0.172,1.672 0,0.695 0.055,1.269 0.172,1.719 0.125,0.457 0.297,0.82 0.515,1.093 0.219,0.27 0.473,0.457 0.766,0.563 0.289,0.113 0.609,0.172 0.953,0.172 0.332,0 0.641,-0.059 0.922,-0.172 0.289,-0.106 0.539,-0.293 0.75,-0.563 0.219,-0.273 0.391,-0.636 0.516,-1.093 0.125,-0.45 0.187,-1.024 0.187,-1.719 z m -0.891,0 c 0,0.551 -0.039,1.008 -0.109,1.375 -0.062,0.363 -0.156,0.648 -0.281,0.859 -0.125,0.219 -0.281,0.367 -0.469,0.453 -0.18,0.094 -0.387,0.141 -0.625,0.141 -0.25,0 -0.469,-0.047 -0.656,-0.141 -0.188,-0.086 -0.352,-0.234 -0.484,-0.453 -0.126,-0.219 -0.219,-0.512 -0.282,-0.875 -0.062,-0.355 -0.094,-0.808 -0.094,-1.359 0,-0.524 0.032,-0.965 0.094,-1.328 0.071,-0.367 0.172,-0.657 0.297,-0.875 0.125,-0.219 0.281,-0.375 0.469,-0.469 0.187,-0.094 0.398,-0.141 0.64,-0.141 0.227,0 0.438,0.047 0.626,0.141 0.187,0.094 0.343,0.25 0.468,0.469 0.125,0.218 0.223,0.508 0.297,0.875 0.07,0.363 0.109,0.804 0.109,1.328 z" /><path
         id="path226"
         style="fill:#000000;fill-opacity:1;fill-rule:nonzero;stroke:none"
         d="m 242.246,5.18 c 0,-0.343 -0.055,-0.664 -0.156,-0.953 -0.094,-0.281 -0.235,-0.527 -0.422,-0.734 -0.188,-0.211 -0.422,-0.371 -0.703,-0.485 -0.274,-0.113 -0.586,-0.171 -0.938,-0.171 -0.406,0 -0.761,0.074 -1.062,0.218 -0.293,0.157 -0.539,0.375 -0.735,0.657 -0.199,0.289 -0.351,0.644 -0.453,1.062 -0.093,0.426 -0.14,0.906 -0.14,1.438 0,0.613 0.051,1.148 0.156,1.609 0.113,0.469 0.273,0.852 0.484,1.156 0.219,0.313 0.477,0.547 0.782,0.703 0.3,0.157 0.644,0.235 1.031,0.235 0.238,0 0.457,-0.028 0.656,-0.078 0.207,-0.043 0.395,-0.122 0.563,-0.235 0.164,-0.105 0.312,-0.25 0.437,-0.437 0.125,-0.18 0.227,-0.399 0.313,-0.657 l -0.844,-0.14 c -0.094,0.289 -0.242,0.5 -0.438,0.625 -0.199,0.133 -0.433,0.203 -0.703,0.203 -0.242,0 -0.461,-0.059 -0.656,-0.172 -0.188,-0.117 -0.352,-0.289 -0.484,-0.516 -0.137,-0.218 -0.246,-0.5 -0.329,-0.843 -0.074,-0.344 -0.109,-0.742 -0.109,-1.188 0.164,0.289 0.391,0.516 0.672,0.672 0.289,0.156 0.625,0.234 1,0.234 0.312,0 0.594,-0.054 0.844,-0.156 0.258,-0.105 0.476,-0.25 0.656,-0.437 0.187,-0.188 0.328,-0.418 0.422,-0.688 0.101,-0.273 0.156,-0.578 0.156,-0.922 z m -0.891,-0.031 c 0,0.227 -0.031,0.438 -0.093,0.625 -0.063,0.195 -0.153,0.363 -0.266,0.5 -0.117,0.133 -0.262,0.238 -0.437,0.313 -0.168,0.07 -0.368,0.109 -0.594,0.109 -0.156,0 -0.32,-0.027 -0.485,-0.078 -0.168,-0.043 -0.32,-0.117 -0.453,-0.219 -0.125,-0.105 -0.23,-0.246 -0.312,-0.422 -0.086,-0.168 -0.125,-0.375 -0.125,-0.625 0,-0.25 0.031,-0.492 0.094,-0.719 0.07,-0.218 0.164,-0.414 0.281,-0.578 0.125,-0.156 0.269,-0.281 0.437,-0.375 0.176,-0.093 0.375,-0.14 0.594,-0.14 0.207,0 0.395,0.035 0.563,0.109 0.164,0.07 0.304,0.176 0.421,0.313 0.125,0.144 0.219,0.316 0.282,0.515 0.062,0.196 0.093,0.422 0.093,0.672 z" /></g></g></svg>