<?xml version="1.0" encoding="UTF-8" standalone="no"?>
<svg
   xmlns:dc="http://purl.org/dc/elements/1.1/"
   xmlns:cc="http://creativecommons.org/ns#"
   xmlns:rdf="http://www.w3.org/1999/02/22-rdf-syntax-ns#"
   xmlns:svg="http://www.w3.org/2000/svg"
   xmlns="http://www.w3.org/2000/svg"
   viewBox="0 0 743.75 1052.5"
   height="1052.5"
   width="743.75"
   xml:space="preserve"
   version="1.1"
   id="svg2"><metadata
     id="metadata8"><rdf:RDF><cc:Work
         rdf:about=""><dc:format>image/svg+xml</dc:format><dc:type
           rdf:resource="http://purl.org/dc/dcmitype/StillImage" /></cc:Work></rdf:RDF></metadata><defs
     id="defs6"><clipPath
       id="clipPath16"
       clipPathUnits="userSpaceOnUse"><path
         style="clip-rule:evenodd"
         id="path18"
         d="m 0,0.1 595.2,0 0,841.8 L 0,841.9 0,0.1 Z" /></clipPath><clipPath
       id="clipPath24"
       clipPathUnits="userSpaceOnUse"><path
         style="clip-rule:evenodd"
         id="path26"
         d="m 56.7,771.2 481.8,0 0,14.1 -481.8,0 0,-14.1 z" /></clipPath><clipPath
       id="clipPath42"
       clipPathUnits="userSpaceOnUse"><path
         style="clip-rule:evenodd"
         id="path44"
         d="m 56.7,56.8 481.8,0 0,14.1 -481.8,0 0,-14.1 z" /></clipPath></defs><g
     transform="matrix(1.25,0,0,-1.25,0,1052.5)"
     id="g10"><g
       id="g12"><g
         clip-path="url(#clipPath16)"
         id="g14" /></g><g
       id="g20"><g
         clip-path="url(#clipPath24)"
         id="g22"><g
           id="g28" /><g
           id="g30"><text
             id="text32"
             style="font-variant:normal;font-weight:normal;font-size:10px;font-family:'Liberation Sans';-inkscape-font-specification:LiberationSans;writing-mode:lr-tb;fill:#000000;fill-opacity:1;fill-rule:nonzero;stroke:none"
             transform="matrix(1,0,0,-1,280.2,774.7)"><tspan
               id="tspan34"
               y="0"
               x="0 6.0999999 11.6 17.190001 19.389999 21.59 23.790001 29.379999">Feuille1</tspan></text>
</g><g
           id="g36" /></g></g><g
       id="g38"><g
         clip-path="url(#clipPath42)"
         id="g40"><g
           id="g46" /><g
           id="g48"><text
             id="text50"
             style="font-variant:normal;font-weight:normal;font-size:10px;font-family:'Liberation Sans';-inkscape-font-specification:LiberationSans;writing-mode:lr-tb;fill:#000000;fill-opacity:1;fill-rule:nonzero;stroke:none"
             transform="matrix(1,0,0,-1,281.8,60.4)"><tspan
               id="tspan52"
               y="0"
               x="0 6.6900001 12.28 17.780001 23.370001">Page </tspan></text>
</g><g
           id="g54"><text
             id="text56"
             style="font-variant:normal;font-weight:normal;font-size:10px;font-family:'Liberation Sans';-inkscape-font-specification:LiberationSans;writing-mode:lr-tb;fill:#000000;fill-opacity:1;fill-rule:nonzero;stroke:none"
             transform="matrix(1,0,0,-1,307.9,60.4)"><tspan
               id="tspan58"
               y="0"
               x="0">1</tspan></text>
</g><g
           id="g60" /></g></g><path
       id="path62"
       style="fill:#000000;fill-opacity:1;fill-rule:evenodd;stroke:none"
       d="m 312.7,764.1 -0.4,-0.4 -255.2,0 -0.4,0.4 -0.4,0.4 256.8,0 -0.4,-0.4 z" /><path
       id="path64"
       style="fill:#000000;fill-opacity:1;fill-rule:evenodd;stroke:none"
       d="m 312.7,751.2 -0.1,-0.4 -255.9,0 0,0.4 0.4,0.4 255.2,0 0.4,-0.4 z" /><path
       id="path66"
       style="fill:none;stroke:#000000;stroke-width:0.1;stroke-linecap:butt;stroke-linejoin:miter;stroke-miterlimit:10;stroke-dasharray:none;stroke-opacity:1"
       d="m 56.7,738.4 256,0" /><path
       id="path68"
       style="fill:none;stroke:#000000;stroke-width:0.1;stroke-linecap:butt;stroke-linejoin:miter;stroke-miterlimit:10;stroke-dasharray:none;stroke-opacity:1"
       d="m 120.7,725.6 192,0" /><path
       id="path70"
       style="fill:none;stroke:#000000;stroke-width:0.1;stroke-linecap:butt;stroke-linejoin:miter;stroke-miterlimit:10;stroke-dasharray:none;stroke-opacity:1"
       d="m 120.7,712.9 192,0" /><path
       id="path72"
       style="fill:none;stroke:#000000;stroke-width:0.1;stroke-linecap:butt;stroke-linejoin:miter;stroke-miterlimit:10;stroke-dasharray:none;stroke-opacity:1"
       d="m 120.7,700.1 192,0" /><path
       id="path74"
       style="fill:none;stroke:#000000;stroke-width:0.1;stroke-linecap:butt;stroke-linejoin:miter;stroke-miterlimit:10;stroke-dasharray:none;stroke-opacity:1"
       d="m 120.7,687.3 192,0" /><path
       id="path76"
       style="fill:none;stroke:#000000;stroke-width:0.1;stroke-linecap:butt;stroke-linejoin:miter;stroke-miterlimit:10;stroke-dasharray:none;stroke-opacity:1"
       d="m 56.7,674.5 256,0" /><path
       id="path78"
       style="fill:#000000;fill-opacity:1;fill-rule:evenodd;stroke:none"
       d="m 56.7,764.1 0.4,-0.4 0,-12.1 -0.4,-0.4 -0.4,-0.4 0,13.7 0.4,-0.4 z" /><path
       id="path80"
       style="fill:none;stroke:#000000;stroke-width:0.1;stroke-linecap:butt;stroke-linejoin:miter;stroke-miterlimit:10;stroke-dasharray:none;stroke-opacity:1"
       d="m 56.7,674.5 0,76.7" /><path
       id="path82"
       style="fill:none;stroke:#000000;stroke-width:0.1;stroke-linecap:butt;stroke-linejoin:miter;stroke-miterlimit:10;stroke-dasharray:none;stroke-opacity:1"
       d="m 88.7,674.5 0,76.7" /><path
       id="path84"
       style="fill:#000000;fill-opacity:1;fill-rule:evenodd;stroke:none"
       d="m 120.7,764.1 0.4,-0.4 0,-12.1 -0.4,-0.4 -0.4,0.4 0,12.1 0.4,0.4 z" /><path
       id="path86"
       style="fill:none;stroke:#000000;stroke-width:0.1;stroke-linecap:butt;stroke-linejoin:miter;stroke-miterlimit:10;stroke-dasharray:none;stroke-opacity:1"
       d="m 120.7,674.5 0,76.7" /><path
       id="path88"
       style="fill:#000000;fill-opacity:1;fill-rule:evenodd;stroke:none"
       d="m 184.7,764.1 0.4,-0.4 0,-12.1 -0.4,-0.4 -0.4,0.4 0,12.1 0.4,0.4 z" /><path
       id="path90"
       style="fill:none;stroke:#000000;stroke-width:0.1;stroke-linecap:butt;stroke-linejoin:miter;stroke-miterlimit:10;stroke-dasharray:none;stroke-opacity:1"
       d="m 184.7,674.5 0,76.7" /><path
       id="path92"
       style="fill:#000000;fill-opacity:1;fill-rule:evenodd;stroke:none"
       d="m 248.7,764.1 0.4,-0.4 0,-12.1 -0.4,-0.4 -0.4,0.4 0,12.1 0.4,0.4 z" /><path
       id="path94"
       style="fill:none;stroke:#000000;stroke-width:0.1;stroke-linecap:butt;stroke-linejoin:miter;stroke-miterlimit:10;stroke-dasharray:none;stroke-opacity:1"
       d="m 248.7,674.5 0,76.7" /><path
       id="path96"
       style="fill:#000000;fill-opacity:1;fill-rule:evenodd;stroke:none"
       d="m 312.7,764.1 0.4,0.4 0,-13.7 -0.4,0.4 -0.4,0.4 0,12.1 0.4,0.4 z" /><path
       id="path98"
       style="fill:none;stroke:#000000;stroke-width:0.1;stroke-linecap:butt;stroke-linejoin:miter;stroke-miterlimit:10;stroke-dasharray:none;stroke-opacity:1"
       d="m 312.7,674.5 0,76.7" /><g
       id="g100"><text
         id="text102"
         style="font-variant:normal;font-weight:normal;font-size:10px;font-family:'Liberation Sans';-inkscape-font-specification:LiberationSans;writing-mode:lr-tb;fill:#000000;fill-opacity:1;fill-rule:nonzero;stroke:none"
         transform="matrix(1,0,0,-1,86.2,754.1)"><tspan
           id="tspan104"
           y="0"
           x="0">λ</tspan></text>
</g><g
       id="g106"><text
         id="text108"
         style="font-variant:normal;font-weight:normal;font-size:10px;font-family:'Liberation Sans';-inkscape-font-specification:LiberationSans;writing-mode:lr-tb;fill:#000000;fill-opacity:1;fill-rule:nonzero;stroke:none"
         transform="matrix(1,0,0,-1,199,754.1)"><tspan
           id="tspan110"
           y="0"
           x="0 9.3999996 12.19 15.49 23.790001 32.09">W (mm)</tspan></text>
</g><g
       id="g112"><text
         id="text114"
         style="font-variant:normal;font-weight:normal;font-size:10px;font-family:'Liberation Sans';-inkscape-font-specification:LiberationSans;writing-mode:lr-tb;fill:#000000;fill-opacity:1;fill-rule:nonzero;stroke:none"
         transform="matrix(1,0,0,-1,265.1,754.1)"><tspan
           id="tspan116"
           y="0"
           x="0 5.1999998 7.9899998 11.29 19.59 27.889999">L (mm)</tspan></text>
</g><g
       id="g118"><text
         id="text120"
         style="font-variant:normal;font-weight:normal;font-size:10px;font-family:'Liberation Sans';-inkscape-font-specification:LiberationSans;writing-mode:lr-tb;fill:#000000;fill-opacity:1;fill-rule:nonzero;stroke:none"
         transform="matrix(1,0,0,-1,66,741.3)"><tspan
           id="tspan122"
           y="0"
           x="0 5 7.79">λ/4</tspan></text>
</g><g
       id="g124"><text
         id="text126"
         style="font-variant:normal;font-weight:normal;font-size:10px;font-family:'Liberation Sans';-inkscape-font-specification:LiberationSans;writing-mode:lr-tb;fill:#000000;fill-opacity:1;fill-rule:nonzero;stroke:none"
         transform="matrix(1,0,0,-1,97.1,741.3)"><tspan
           id="tspan128"
           y="0"
           x="0 5.5900002 11.18">90°</tspan></text>
</g><g
       id="g130"><text
         id="text132"
         style="font-variant:normal;font-weight:normal;font-size:10px;font-family:'Liberation Sans';-inkscape-font-specification:LiberationSans;writing-mode:lr-tb;fill:#000000;fill-opacity:1;fill-rule:nonzero;stroke:none"
         transform="matrix(1,0,0,-1,147.1,741.3)"><tspan
           id="tspan134"
           y="0"
           x="0 5.5900002">50</tspan></text>
</g><g
       id="g136"><text
         id="text138"
         style="font-variant:normal;font-weight:normal;font-size:10px;font-family:'Liberation Sans';-inkscape-font-specification:LiberationSans;writing-mode:lr-tb;fill:#000000;fill-opacity:1;fill-rule:nonzero;stroke:none"
         transform="matrix(1,0,0,-1,198.5,741.3)"><tspan
           id="tspan140"
           y="0"
           x="0 5.5900002 8.3800001 13.97 19.559999 25.15 30.74">2,78601</tspan></text>
</g><g
       id="g142"><text
         id="text144"
         style="font-variant:normal;font-weight:normal;font-size:10px;font-family:'Liberation Sans';-inkscape-font-specification:LiberationSans;writing-mode:lr-tb;fill:#000000;fill-opacity:1;fill-rule:nonzero;stroke:none"
         transform="matrix(1,0,0,-1,262.5,741.3)"><tspan
           id="tspan146"
           y="0"
           x="0 5.5900002 11.18 13.97 19.559999 25.15 30.74">21,7317</tspan></text>
</g><g
       id="g148"><text
         id="text150"
         style="font-variant:normal;font-weight:normal;font-size:10px;font-family:'Liberation Sans';-inkscape-font-specification:LiberationSans;writing-mode:lr-tb;fill:#000000;fill-opacity:1;fill-rule:nonzero;stroke:none"
         transform="matrix(1,0,0,-1,66,702.9)"><tspan
           id="tspan152"
           y="0"
           x="0 5 7.79">λ/8</tspan></text>
</g><g
       id="g154"><text
         id="text156"
         style="font-variant:normal;font-weight:normal;font-size:10px;font-family:'Liberation Sans';-inkscape-font-specification:LiberationSans;writing-mode:lr-tb;fill:#000000;fill-opacity:1;fill-rule:nonzero;stroke:none"
         transform="matrix(1,0,0,-1,97.1,702.9)"><tspan
           id="tspan158"
           y="0"
           x="0 5.5900002 11.18">45°</tspan></text>
</g><g
       id="g160"><text
         id="text162"
         style="font-variant:normal;font-weight:normal;font-size:10px;font-family:'Liberation Sans';-inkscape-font-specification:LiberationSans;writing-mode:lr-tb;fill:#000000;fill-opacity:1;fill-rule:nonzero;stroke:none"
         transform="matrix(1,0,0,-1,144.3,728.5)"><tspan
           id="tspan164"
           y="0"
           x="0 5.5900002 11.18">129</tspan></text>
</g><g
       id="g166"><text
         id="text168"
         style="font-variant:normal;font-weight:normal;font-size:10px;font-family:'Liberation Sans';-inkscape-font-specification:LiberationSans;writing-mode:lr-tb;fill:#000000;fill-opacity:1;fill-rule:nonzero;stroke:none"
         transform="matrix(1,0,0,-1,195.7,728.5)"><tspan
           id="tspan170"
           y="0"
           x="0 5.5900002 8.3800001 13.97 19.559999 25.15 30.74 36.330002">0,243996</tspan></text>
</g><g
       id="g172"><text
         id="text174"
         style="font-variant:normal;font-weight:normal;font-size:10px;font-family:'Liberation Sans';-inkscape-font-specification:LiberationSans;writing-mode:lr-tb;fill:#000000;fill-opacity:1;fill-rule:nonzero;stroke:none"
         transform="matrix(1,0,0,-1,262.5,728.5)"><tspan
           id="tspan176"
           y="0"
           x="0 5.5900002 11.18 13.97 19.559999 25.15 30.74">11,8202</tspan></text>
</g><g
       id="g178"><text
         id="text180"
         style="font-variant:normal;font-weight:normal;font-size:10px;font-family:'Liberation Sans';-inkscape-font-specification:LiberationSans;writing-mode:lr-tb;fill:#000000;fill-opacity:1;fill-rule:nonzero;stroke:none"
         transform="matrix(1,0,0,-1,142.9,715.7)"><tspan
           id="tspan182"
           y="0"
           x="0 5.5900002 11.18 13.97">81,5</tspan></text>
</g><g
       id="g184"><text
         id="text186"
         style="font-variant:normal;font-weight:normal;font-size:10px;font-family:'Liberation Sans';-inkscape-font-specification:LiberationSans;writing-mode:lr-tb;fill:#000000;fill-opacity:1;fill-rule:nonzero;stroke:none"
         transform="matrix(1,0,0,-1,198.5,715.7)"><tspan
           id="tspan188"
           y="0"
           x="0 5.5900002 8.3800001 13.97 19.559999 25.15 30.74">1,03624</tspan></text>
</g><g
       id="g190"><text
         id="text192"
         style="font-variant:normal;font-weight:normal;font-size:10px;font-family:'Liberation Sans';-inkscape-font-specification:LiberationSans;writing-mode:lr-tb;fill:#000000;fill-opacity:1;fill-rule:nonzero;stroke:none"
         transform="matrix(1,0,0,-1,262.5,715.7)"><tspan
           id="tspan194"
           y="0"
           x="0 5.5900002 11.18 13.97 19.559999 25.15 30.74">11,3386</tspan></text>
</g><g
       id="g196"><text
         id="text198"
         style="font-variant:normal;font-weight:normal;font-size:10px;font-family:'Liberation Sans';-inkscape-font-specification:LiberationSans;writing-mode:lr-tb;fill:#000000;fill-opacity:1;fill-rule:nonzero;stroke:none"
         transform="matrix(1,0,0,-1,147.1,702.9)"><tspan
           id="tspan200"
           y="0"
           x="0 5.5900002">24</tspan></text>
</g><g
       id="g202"><text
         id="text204"
         style="font-variant:normal;font-weight:normal;font-size:10px;font-family:'Liberation Sans';-inkscape-font-specification:LiberationSans;writing-mode:lr-tb;fill:#000000;fill-opacity:1;fill-rule:nonzero;stroke:none"
         transform="matrix(1,0,0,-1,198.5,702.9)"><tspan
           id="tspan206"
           y="0"
           x="0 5.5900002 8.3800001 13.97 19.559999 25.15 30.74">8,19205</tspan></text>
</g><g
       id="g208"><text
         id="text210"
         style="font-variant:normal;font-weight:normal;font-size:10px;font-family:'Liberation Sans';-inkscape-font-specification:LiberationSans;writing-mode:lr-tb;fill:#000000;fill-opacity:1;fill-rule:nonzero;stroke:none"
         transform="matrix(1,0,0,-1,262.5,702.9)"><tspan
           id="tspan212"
           y="0"
           x="0 5.5900002 11.18 13.97 19.559999 25.15 30.74">10,2706</tspan></text>
</g><g
       id="g214"><text
         id="text216"
         style="font-variant:normal;font-weight:normal;font-size:10px;font-family:'Liberation Sans';-inkscape-font-specification:LiberationSans;writing-mode:lr-tb;fill:#000000;fill-opacity:1;fill-rule:nonzero;stroke:none"
         transform="matrix(1,0,0,-1,147.1,690.1)"><tspan
           id="tspan218"
           y="0"
           x="0 5.5900002">80</tspan></text>
</g><g
       id="g220"><text
         id="text222"
         style="font-variant:normal;font-weight:normal;font-size:10px;font-family:'Liberation Sans';-inkscape-font-specification:LiberationSans;writing-mode:lr-tb;fill:#000000;fill-opacity:1;fill-rule:nonzero;stroke:none"
         transform="matrix(1,0,0,-1,198.5,690.1)"><tspan
           id="tspan224"
           y="0"
           x="0 5.5900002 8.3800001 13.97 19.559999 25.15 30.74">1,08403</tspan></text>
</g><g
       id="g226"><text
         id="text228"
         style="font-variant:normal;font-weight:normal;font-size:10px;font-family:'Liberation Sans';-inkscape-font-specification:LiberationSans;writing-mode:lr-tb;fill:#000000;fill-opacity:1;fill-rule:nonzero;stroke:none"
         transform="matrix(1,0,0,-1,262.5,690.1)"><tspan
           id="tspan230"
           y="0"
           x="0 5.5900002 11.18 13.97 19.559999 25.15 30.74">11,3204</tspan></text>
</g><g
       id="g232"><text
         id="text234"
         style="font-variant:normal;font-weight:normal;font-size:10px;font-family:'Liberation Sans';-inkscape-font-specification:LiberationSans;writing-mode:lr-tb;fill:#000000;fill-opacity:1;fill-rule:nonzero;stroke:none"
         transform="matrix(1,0,0,-1,142.9,677.4)"><tspan
           id="tspan236"
           y="0"
           x="0 5.5900002 11.18 13.97">19,7</tspan></text>
</g><g
       id="g238"><text
         id="text240"
         style="font-variant:normal;font-weight:normal;font-size:10px;font-family:'Liberation Sans';-inkscape-font-specification:LiberationSans;writing-mode:lr-tb;fill:#000000;fill-opacity:1;fill-rule:nonzero;stroke:none"
         transform="matrix(1,0,0,-1,198.5,677.4)"><tspan
           id="tspan242"
           y="0"
           x="0 5.5900002 11.18 13.97 19.559999 25.15 30.74">10,5371</tspan></text>
</g><g
       id="g244"><text
         id="text246"
         style="font-variant:normal;font-weight:normal;font-size:10px;font-family:'Liberation Sans';-inkscape-font-specification:LiberationSans;writing-mode:lr-tb;fill:#000000;fill-opacity:1;fill-rule:nonzero;stroke:none"
         transform="matrix(1,0,0,-1,268.1,677.4)"><tspan
           id="tspan248"
           y="0"
           x="0 5.5900002 11.18 13.97 19.559999">10,14</tspan></text>
</g><g
       id="g250"><text
         id="text252"
         style="font-variant:normal;font-weight:normal;font-size:10px;font-family:'Liberation Sans';-inkscape-font-specification:LiberationSans;writing-mode:lr-tb;fill:#000000;fill-opacity:1;fill-rule:nonzero;stroke:none"
         transform="matrix(1,0,0,-1,141.3,754.2)"><tspan
           id="tspan254"
           y="0"
           x="0 6.0999999 8.8900003">Z (</tspan></text>
</g><g
       id="g256"><text
         id="text258"
         style="font-variant:normal;font-weight:normal;font-size:10px;font-family:'Liberation Sans';-inkscape-font-specification:LiberationSans;writing-mode:lr-tb;fill:#000000;fill-opacity:1;fill-rule:nonzero;stroke:none"
         transform="matrix(1,0,0,-1,153.5,754.2)"><tspan
           id="tspan260"
           y="0"
           x="0 7.4899998">Ω)</tspan></text>
</g></g></svg>