<?xml version="1.0" encoding="UTF-8"?>
<svg xmlns="http://www.w3.org/2000/svg" xmlns:xlink="http://www.w3.org/1999/xlink" width="419.527559pt" height="595.275591pt" viewBox="0 0 419.527559 595.275591" version="1.2">
<g id="surface4196">
<path style="fill-rule:evenodd;fill:rgb(0%,0%,0%);fill-opacity:1;stroke-width:1.000004;stroke-linecap:round;stroke-linejoin:round;stroke:rgb(0%,0%,0%);stroke-opacity:1;stroke-miterlimit:10;" d="M 792.993997 670.003255 L 792.993997 636.995443 L 860.002461 636.995443 L 860.002461 670.003255 Z M 792.993997 670.003255 " transform="matrix(0,-0.24,0.24,0,0,595.275591)"/>
<path style="fill-rule:evenodd;fill:rgb(0%,0%,0%);fill-opacity:1;stroke-width:1.000004;stroke-linecap:round;stroke-linejoin:round;stroke:rgb(0%,0%,0%);stroke-opacity:1;stroke-miterlimit:10;" d="M 860.002461 793.001302 L 860.002461 513.997396 L 873.007018 513.997396 L 873.007018 793.001302 Z M 860.002461 793.001302 " transform="matrix(0,-0.24,0.24,0,0,595.275591)"/>
<path style="fill-rule:evenodd;fill:rgb(0%,0%,0%);fill-opacity:1;stroke-width:1.000004;stroke-linecap:round;stroke-linejoin:round;stroke:rgb(0%,0%,0%);stroke-opacity:1;stroke-miterlimit:10;" d="M 873.007018 658.007812 L 873.007018 650 L 901.994648 650 L 901.994648 658.007812 Z M 873.007018 658.007812 " transform="matrix(0,-0.24,0.24,0,0,595.275591)"/>
<path style="fill-rule:evenodd;fill:rgb(0%,0%,0%);fill-opacity:1;stroke-width:1.000004;stroke-linecap:round;stroke-linejoin:round;stroke:rgb(0%,0%,0%);stroke-opacity:1;stroke-miterlimit:10;" d="M 901.994648 793.001302 L 901.994648 513.997396 L 924.992695 513.997396 L 924.992695 793.001302 Z M 901.994648 793.001302 " transform="matrix(0,-0.24,0.24,0,0,595.275591)"/>
<path style="fill-rule:evenodd;fill:rgb(0%,0%,0%);fill-opacity:1;stroke-width:1.000004;stroke-linecap:round;stroke-linejoin:round;stroke:rgb(0%,0%,0%);stroke-opacity:1;stroke-miterlimit:10;" d="M 924.992695 658.007812 L 924.992695 650 L 953.996601 650 L 953.996601 658.007812 Z M 924.992695 658.007812 " transform="matrix(0,-0.24,0.24,0,0,595.275591)"/>
<path style="fill-rule:evenodd;fill:rgb(0%,0%,0%);fill-opacity:1;stroke-width:1.000004;stroke-linecap:round;stroke-linejoin:round;stroke:rgb(0%,0%,0%);stroke-opacity:1;stroke-miterlimit:10;" d="M 953.996601 793.001302 L 953.996601 513.997396 L 967.001159 513.997396 L 967.001159 793.001302 Z M 953.996601 793.001302 " transform="matrix(0,-0.24,0.24,0,0,595.275591)"/>
<path style="fill-rule:evenodd;fill:rgb(0%,0%,0%);fill-opacity:1;stroke-width:1.000004;stroke-linecap:round;stroke-linejoin:round;stroke:rgb(0%,0%,0%);stroke-opacity:1;stroke-miterlimit:10;" d="M 967.001159 670.003255 L 967.001159 636.995443 L 1033.000508 636.995443 L 1033.000508 670.003255 Z M 967.001159 670.003255 " transform="matrix(0,-0.24,0.24,0,0,595.275591)"/>
</g>
</svg>
