<?xml version="1.0" encoding="UTF-8"?>
<svg xmlns="http://www.w3.org/2000/svg" xmlns:xlink="http://www.w3.org/1999/xlink" width="419.527559pt" height="595.275591pt" viewBox="0 0 419.527559 595.275591" version="1.2">
<g id="surface27247">
<path style="fill-rule:evenodd;fill:rgb(0%,0%,0%);fill-opacity:1;stroke-width:1.000004;stroke-linecap:round;stroke-linejoin:round;stroke:rgb(0%,0%,0%);stroke-opacity:1;stroke-miterlimit:10;" d="M 762.004414 543.001302 L 758.993346 543.001302 L 758.993346 413.004557 L 762.004414 413.004557 Z M 762.004414 543.001302 " transform="matrix(0,-0.24,0.24,0,0,595.275591)"/>
<path style="fill-rule:evenodd;fill:rgb(0%,0%,0%);fill-opacity:1;stroke-width:0.00011811;stroke-linecap:round;stroke-linejoin:round;stroke:rgb(0%,0%,0%);stroke-opacity:1;stroke-miterlimit:10;" d="M 758.993346 543.001302 L 758.993346 575.992839 L 760.002461 575.992839 L 760.002461 559.000651 L 760.002461 565.999349 L 762.004414 565.999349 L 762.004414 543.001302 Z M 758.993346 543.001302 " transform="matrix(0,-0.24,0.24,0,0,595.275591)"/>
<path style="fill-rule:evenodd;fill:rgb(0%,0%,0%);fill-opacity:1;stroke-width:1.000004;stroke-linecap:round;stroke-linejoin:round;stroke:rgb(0%,0%,0%);stroke-opacity:1;stroke-miterlimit:10;" d="M 762.004414 565.999349 L 762.004414 552.994792 L 885.995299 552.994792 L 885.995299 565.999349 Z M 762.004414 565.999349 " transform="matrix(0,-0.24,0.24,0,0,595.275591)"/>
<path style="fill-rule:evenodd;fill:rgb(0%,0%,0%);fill-opacity:1;stroke-width:0.00011811;stroke-linecap:round;stroke-linejoin:round;stroke:rgb(0%,0%,0%);stroke-opacity:1;stroke-miterlimit:10;" d="M 885.995299 552.994792 L 885.995299 565.999349 L 935.002461 565.999349 L 935.002461 559.000651 L 935.002461 565.999349 L 983.000508 565.999349 L 983.000508 552.994792 Z M 885.995299 552.994792 " transform="matrix(0,-0.24,0.24,0,0,595.275591)"/>
<path style="fill-rule:evenodd;fill:rgb(0%,0%,0%);fill-opacity:1;stroke-width:1.000004;stroke-linecap:round;stroke-linejoin:round;stroke:rgb(0%,0%,0%);stroke-opacity:1;stroke-miterlimit:10;" d="M 983.000508 565.999349 L 983.000508 552.994792 L 1101.994648 552.994792 L 1101.994648 565.999349 Z M 983.000508 565.999349 " transform="matrix(0,-0.24,0.24,0,0,595.275591)"/>
<path style="fill-rule:evenodd;fill:rgb(0%,0%,0%);fill-opacity:1;stroke-width:0.00011811;stroke-linecap:round;stroke-linejoin:round;stroke:rgb(0%,0%,0%);stroke-opacity:1;stroke-miterlimit:10;" d="M 1101.994648 552.994792 L 1101.994648 565.999349 L 1164.006367 565.999349 L 1164.006367 559.000651 L 1164.006367 565.999349 L 1226.00181 565.999349 L 1226.00181 552.994792 Z M 1101.994648 552.994792 " transform="matrix(0,-0.24,0.24,0,0,595.275591)"/>
<path style="fill-rule:evenodd;fill:rgb(0%,0%,0%);fill-opacity:1;stroke-width:1.000004;stroke-linecap:round;stroke-linejoin:round;stroke:rgb(0%,0%,0%);stroke-opacity:1;stroke-miterlimit:10;" d="M 1226.00181 565.999349 L 1226.00181 552.994792 L 1344.99595 552.994792 L 1344.99595 565.999349 Z M 1226.00181 565.999349 " transform="matrix(0,-0.24,0.24,0,0,595.275591)"/>
<path style="fill-rule:evenodd;fill:rgb(0%,0%,0%);fill-opacity:1;stroke-width:0.00011811;stroke-linecap:round;stroke-linejoin:round;stroke:rgb(0%,0%,0%);stroke-opacity:1;stroke-miterlimit:10;" d="M 1344.99595 552.994792 L 1344.99595 565.999349 L 1392.993997 565.999349 L 1392.993997 559.000651 L 1392.993997 565.999349 L 1442.001159 565.999349 L 1442.001159 552.994792 Z M 1344.99595 552.994792 " transform="matrix(0,-0.24,0.24,0,0,595.275591)"/>
<path style="fill-rule:evenodd;fill:rgb(0%,0%,0%);fill-opacity:1;stroke-width:1.000004;stroke-linecap:round;stroke-linejoin:round;stroke:rgb(0%,0%,0%);stroke-opacity:1;stroke-miterlimit:10;" d="M 1442.001159 565.999349 L 1442.001159 552.994792 L 1567.001159 552.994792 L 1567.001159 565.999349 Z M 1442.001159 565.999349 " transform="matrix(0,-0.24,0.24,0,0,595.275591)"/>
<path style="fill-rule:evenodd;fill:rgb(0%,0%,0%);fill-opacity:1;stroke-width:0.00011811;stroke-linecap:round;stroke-linejoin:round;stroke:rgb(0%,0%,0%);stroke-opacity:1;stroke-miterlimit:10;" d="M 1567.001159 543.001302 L 1567.001159 565.999349 L 1567.993997 565.999349 L 1567.993997 559.000651 L 1567.993997 575.992839 L 1569.99595 575.992839 L 1569.99595 543.001302 Z M 1567.001159 543.001302 " transform="matrix(0,-0.24,0.24,0,0,595.275591)"/>
<path style="fill-rule:evenodd;fill:rgb(0%,0%,0%);fill-opacity:1;stroke-width:1.000004;stroke-linecap:round;stroke-linejoin:round;stroke:rgb(0%,0%,0%);stroke-opacity:1;stroke-miterlimit:10;" d="M 1569.99595 575.992839 L 1569.99595 543.001302 L 1808.993346 543.001302 L 1808.993346 575.992839 Z M 1569.99595 575.992839 " transform="matrix(0,-0.24,0.24,0,0,595.275591)"/>
<path style="fill-rule:evenodd;fill:rgb(0%,0%,0%);fill-opacity:1;stroke-width:1.000004;stroke-linecap:round;stroke-linejoin:round;stroke:rgb(0%,0%,0%);stroke-opacity:1;stroke-miterlimit:10;" d="M 1569.99595 543.001302 L 1567.001159 543.001302 L 1567.001159 413.004557 L 1569.99595 413.004557 Z M 1569.99595 543.001302 " transform="matrix(0,-0.24,0.24,0,0,595.275591)"/>
<path style="fill-rule:evenodd;fill:rgb(0%,0%,0%);fill-opacity:1;stroke-width:1.000004;stroke-linecap:round;stroke-linejoin:round;stroke:rgb(0%,0%,0%);stroke-opacity:1;stroke-miterlimit:10;" d="M 1442.001159 552.994792 L 1344.99595 552.994792 L 1344.99595 440.00651 L 1442.001159 440.00651 Z M 1442.001159 552.994792 " transform="matrix(0,-0.24,0.24,0,0,595.275591)"/>
<path style="fill-rule:evenodd;fill:rgb(0%,0%,0%);fill-opacity:1;stroke-width:1.000004;stroke-linecap:round;stroke-linejoin:round;stroke:rgb(0%,0%,0%);stroke-opacity:1;stroke-miterlimit:10;" d="M 1226.00181 552.994792 L 1101.994648 552.994792 L 1101.994648 438.004557 L 1226.00181 438.004557 Z M 1226.00181 552.994792 " transform="matrix(0,-0.24,0.24,0,0,595.275591)"/>
<path style="fill-rule:evenodd;fill:rgb(0%,0%,0%);fill-opacity:1;stroke-width:1.000004;stroke-linecap:round;stroke-linejoin:round;stroke:rgb(0%,0%,0%);stroke-opacity:1;stroke-miterlimit:10;" d="M 983.000508 552.994792 L 885.995299 552.994792 L 885.995299 440.00651 L 983.000508 440.00651 Z M 983.000508 552.994792 " transform="matrix(0,-0.24,0.24,0,0,595.275591)"/>
<path style="fill-rule:evenodd;fill:rgb(0%,0%,0%);fill-opacity:1;stroke-width:1.000004;stroke-linecap:round;stroke-linejoin:round;stroke:rgb(0%,0%,0%);stroke-opacity:1;stroke-miterlimit:10;" d="M 519.003112 575.992839 L 519.003112 543.001302 L 758.993346 543.001302 L 758.993346 575.992839 Z M 519.003112 575.992839 " transform="matrix(0,-0.24,0.24,0,0,595.275591)"/>
</g>
</svg>
