<?xml version="1.0" encoding="UTF-8"?>
<svg xmlns="http://www.w3.org/2000/svg" xmlns:xlink="http://www.w3.org/1999/xlink" width="419.527559pt" height="595.275591pt" viewBox="0 0 419.527559 595.275591" version="1.2">
<g id="surface3138">
<path style="fill-rule:evenodd;fill:rgb(0%,0%,0%);fill-opacity:1;stroke-width:1.000004;stroke-linecap:round;stroke-linejoin:round;stroke:rgb(0%,0%,0%);stroke-opacity:1;stroke-miterlimit:10;" d="M 326.00181 408.007813 L 326.00181 375 L 576.00181 375 L 576.00181 408.007813 Z M 326.00181 408.007813 " transform="matrix(0,-0.24,0.24,0,0,595.275591)"/>
<path style="fill-rule:evenodd;fill:rgb(0%,0%,0%);fill-opacity:1;stroke-width:1.000004;stroke-linecap:round;stroke-linejoin:round;stroke:rgb(0%,0%,0%);stroke-opacity:1;stroke-miterlimit:10;" d="M 576.00181 531.005859 L 576.00181 252.001953 L 624.992695 252.001953 L 624.992695 531.005859 Z M 576.00181 531.005859 " transform="matrix(0,-0.24,0.24,0,0,595.275591)"/>
<path style="fill-rule:evenodd;fill:rgb(0%,0%,0%);fill-opacity:1;stroke-width:1.000004;stroke-linecap:round;stroke-linejoin:round;stroke:rgb(0%,0%,0%);stroke-opacity:1;stroke-miterlimit:10;" d="M 624.992695 395.003255 L 624.992695 388.004557 L 733.000508 388.004557 L 733.000508 395.003255 Z M 624.992695 395.003255 " transform="matrix(0,-0.24,0.24,0,0,595.275591)"/>
<path style="fill-rule:evenodd;fill:rgb(0%,0%,0%);fill-opacity:1;stroke-width:1.000004;stroke-linecap:round;stroke-linejoin:round;stroke:rgb(0%,0%,0%);stroke-opacity:1;stroke-miterlimit:10;" d="M 733.000508 531.005859 L 733.000508 252.001953 L 801.994648 252.001953 L 801.994648 531.005859 Z M 733.000508 531.005859 " transform="matrix(0,-0.24,0.24,0,0,595.275591)"/>
<path style="fill-rule:evenodd;fill:rgb(0%,0%,0%);fill-opacity:1;stroke-width:1.000004;stroke-linecap:round;stroke-linejoin:round;stroke:rgb(0%,0%,0%);stroke-opacity:1;stroke-miterlimit:10;" d="M 801.994648 395.003255 L 801.994648 388.004557 L 910.002461 388.004557 L 910.002461 395.003255 Z M 801.994648 395.003255 " transform="matrix(0,-0.24,0.24,0,0,595.275591)"/>
<path style="fill-rule:evenodd;fill:rgb(0%,0%,0%);fill-opacity:1;stroke-width:1.000004;stroke-linecap:round;stroke-linejoin:round;stroke:rgb(0%,0%,0%);stroke-opacity:1;stroke-miterlimit:10;" d="M 910.002461 531.005859 L 910.002461 252.001953 L 958.000508 252.001953 L 958.000508 531.005859 Z M 910.002461 531.005859 " transform="matrix(0,-0.24,0.24,0,0,595.275591)"/>
<path style="fill-rule:evenodd;fill:rgb(0%,0%,0%);fill-opacity:1;stroke-width:1.000004;stroke-linecap:round;stroke-linejoin:round;stroke:rgb(0%,0%,0%);stroke-opacity:1;stroke-miterlimit:10;" d="M 958.000508 408.007813 L 958.000508 375 L 1208.000508 375 L 1208.000508 408.007813 Z M 958.000508 408.007813 " transform="matrix(0,-0.24,0.24,0,0,595.275591)"/>
</g>
</svg>
