
<svg xmlns="http://www.w3.org/2000/svg"
     xmlns:xlink="http://www.w3.org/1999/xlink" version="1.1" width="323"
     height="388">
    <defs>
        <linearGradient x1="0%" y1="0%" x2="0%" y2="100%"
                        id="mx-gradient-ff7f00-1-ff7f00-1-s-0">
            <stop offset="0%" style="stop-color:#ff7f00"/>
            <stop offset="100%" style="stop-color:#ff7f00"/>
        </linearGradient>
    </defs>
    <g transform=" scale(0.89) translate(-369,-667)">
        <rect x="400" y="700" width="320" height="240"
              fill="url(#mx-gradient-ff7f00-1-ff7f00-1-s-0)" stroke="#000000"
              pointer-events="none"/>
        <rect x="540" y="940" width="40" height="150"
              fill="url(#mx-gradient-ff7f00-1-ff7f00-1-s-0)" stroke="#000000"
              pointer-events="none"/>
        <path d="M 390 706.74 L 390 933.26" fill="none" stroke="#000000"
              stroke-width="2" stroke-miterlimit="10" pointer-events="none"/>
        <path d="M 390 702.24 L 393 708.24 L 390 706.74 L 387 708.24 Z"
              fill="#000000" stroke="#000000" stroke-width="2"
              stroke-miterlimit="10" pointer-events="none"/>
        <path d="M 390 937.76 L 387 931.76 L 390 933.26 L 393 931.76 Z"
              fill="#000000" stroke="#000000" stroke-width="2"
              stroke-miterlimit="10" pointer-events="none"/>
        <g fill="#000000" font-family="Arial,Helvetica" font-weight="bold"
           text-anchor="end" font-size="15px">
            <rect fill="#FFFFFF" stroke="none" x="374" y="812" width="16"
                  height="18" stroke-width="0"/>
            <text x="388" y="825.5">
                L 
            </text>
        </g>
        <path d="M 406.74 690 L 713.26 690" fill="none" stroke="#000000"
              stroke-width="2" stroke-miterlimit="10" pointer-events="none"/>
        <path d="M 402.24 690 L 408.24 687 L 406.74 690 L 408.24 693 Z"
              fill="#000000" stroke="#000000" stroke-width="2"
              stroke-miterlimit="10" pointer-events="none"/>
        <path d="M 717.76 690 L 711.76 693 L 713.26 690 L 711.76 687 Z"
              fill="#000000" stroke="#000000" stroke-width="2"
              stroke-miterlimit="10" pointer-events="none"/>
        <g fill="#000000" font-family="Arial,Helvetica" font-weight="bold"
           text-anchor="middle" font-size="15px">
            <rect fill="#FFFFFF" stroke="none" x="552" y="672" width="17"
                  height="18" stroke-width="0"/>
            <text x="560" y="685">
                W
            </text>
        </g>
    </g>
</svg>