<?xml version="1.0" encoding="UTF-8" standalone="no"?>
<svg
   xmlns:dc="http://purl.org/dc/elements/1.1/"
   xmlns:cc="http://creativecommons.org/ns#"
   xmlns:rdf="http://www.w3.org/1999/02/22-rdf-syntax-ns#"
   xmlns:svg="http://www.w3.org/2000/svg"
   xmlns="http://www.w3.org/2000/svg"
   viewBox="0 0 668 422"
   height="422"
   width="668"
   xml:space="preserve"
   version="1.1"
   id="svg2"><metadata
     id="metadata8"><rdf:RDF><cc:Work
         rdf:about=""><dc:format>image/svg+xml</dc:format><dc:type
           rdf:resource="http://purl.org/dc/dcmitype/StillImage" /></cc:Work></rdf:RDF></metadata><defs
     id="defs6" /><g
     transform="matrix(1.25,0,0,-1.25,0,422.00001)"
     id="g10"><g
       id="g12"><path
         id="path14"
         style="fill:#ffffff;fill-opacity:1;fill-rule:evenodd;stroke:none"
         d="m 0,337.6 534.398,0 0,-337.602 L 0,-0.002 0,337.6 Z" /><g
         transform="matrix(1,0,0,-1,0,337.60001)"
         id="g16"><path
           id="path18"
           style="fill:none;stroke:#c0c0c0;stroke-width:0.80000001;stroke-linecap:square;stroke-linejoin:bevel;stroke-miterlimit:4;stroke-dasharray:0.8, 1.6;stroke-dashoffset:0;stroke-opacity:1"
           d="M 78.398,36 460,36" /></g><g
         transform="matrix(1,0,0,-1,0,337.60001)"
         id="g20"><path
           id="path22"
           style="fill:none;stroke:#c0c0c0;stroke-width:0.80000001;stroke-linecap:square;stroke-linejoin:bevel;stroke-miterlimit:4;stroke-dasharray:0.8, 1.6;stroke-dashoffset:0;stroke-opacity:1"
           d="m 78.398,83.199 381.602,0" /></g><g
         transform="matrix(1,0,0,-1,0,337.60001)"
         id="g24"><path
           id="path26"
           style="fill:none;stroke:#c0c0c0;stroke-width:0.80000001;stroke-linecap:square;stroke-linejoin:bevel;stroke-miterlimit:4;stroke-dasharray:0.8, 1.6;stroke-dashoffset:0;stroke-opacity:1"
           d="m 78.398,131.199 381.602,0" /></g><g
         transform="matrix(1,0,0,-1,0,337.60001)"
         id="g28"><path
           id="path30"
           style="fill:none;stroke:#c0c0c0;stroke-width:0.80000001;stroke-linecap:square;stroke-linejoin:bevel;stroke-miterlimit:4;stroke-dasharray:0.8, 1.6;stroke-dashoffset:0;stroke-opacity:1"
           d="m 78.398,179.199 381.602,0" /></g><g
         transform="matrix(1,0,0,-1,0,337.60001)"
         id="g32"><path
           id="path34"
           style="fill:none;stroke:#c0c0c0;stroke-width:0.80000001;stroke-linecap:square;stroke-linejoin:bevel;stroke-miterlimit:4;stroke-dasharray:0.8, 1.6;stroke-dashoffset:0;stroke-opacity:1"
           d="m 78.398,226.398 381.602,0" /></g><g
         transform="matrix(1,0,0,-1,0,337.60001)"
         id="g36"><path
           id="path38"
           style="fill:none;stroke:#c0c0c0;stroke-width:0.80000001;stroke-linecap:square;stroke-linejoin:bevel;stroke-miterlimit:4;stroke-dasharray:0.8, 1.6;stroke-dashoffset:0;stroke-opacity:1"
           d="m 396.801,12 0,262.398" /></g><g
         transform="matrix(1,0,0,-1,0,337.60001)"
         id="g40"><path
           id="path42"
           style="fill:none;stroke:#c0c0c0;stroke-width:0.80000001;stroke-linecap:square;stroke-linejoin:bevel;stroke-miterlimit:4;stroke-dasharray:0.8, 1.6;stroke-dashoffset:0;stroke-opacity:1"
           d="m 332.801,12 0,262.398" /></g><g
         transform="matrix(1,0,0,-1,0,337.60001)"
         id="g44"><path
           id="path46"
           style="fill:none;stroke:#c0c0c0;stroke-width:0.80000001;stroke-linecap:square;stroke-linejoin:bevel;stroke-miterlimit:4;stroke-dasharray:0.8, 1.6;stroke-dashoffset:0;stroke-opacity:1"
           d="m 269.602,12 0,262.398" /></g><g
         transform="matrix(1,0,0,-1,0,337.60001)"
         id="g48"><path
           id="path50"
           style="fill:none;stroke:#c0c0c0;stroke-width:0.80000001;stroke-linecap:square;stroke-linejoin:bevel;stroke-miterlimit:4;stroke-dasharray:0.8, 1.6;stroke-dashoffset:0;stroke-opacity:1"
           d="m 205.602,12 0,262.398" /></g><g
         transform="matrix(1,0,0,-1,0,337.60001)"
         id="g52"><path
           id="path54"
           style="fill:none;stroke:#c0c0c0;stroke-width:0.80000001;stroke-linecap:square;stroke-linejoin:bevel;stroke-miterlimit:4;stroke-dasharray:0.8, 1.6;stroke-dashoffset:0;stroke-opacity:1"
           d="m 142.398,12 0,262.398" /></g><g
         transform="matrix(1,0,0,-1,0,337.60001)"
         id="g56"><path
           id="path58"
           style="fill:none;stroke:#000000;stroke-width:0.80000001;stroke-linecap:square;stroke-linejoin:bevel;stroke-miterlimit:4;stroke-dasharray:none;stroke-opacity:1"
           d="m 78.398,270.398 0,8" /></g><g
         transform="matrix(1,0,0,-1,0,337.60001)"
         id="g60"><path
           id="path62"
           style="fill:none;stroke:#000000;stroke-width:0.80000001;stroke-linecap:square;stroke-linejoin:bevel;stroke-miterlimit:4;stroke-dasharray:none;stroke-opacity:1"
           d="m 142.398,270.398 0,8" /></g><g
         transform="matrix(1,0,0,-1,0,337.60001)"
         id="g64"><path
           id="path66"
           style="fill:none;stroke:#000000;stroke-width:0.80000001;stroke-linecap:square;stroke-linejoin:bevel;stroke-miterlimit:4;stroke-dasharray:none;stroke-opacity:1"
           d="m 205.602,270.398 0,8" /></g><g
         transform="matrix(1,0,0,-1,0,337.60001)"
         id="g68"><path
           id="path70"
           style="fill:none;stroke:#000000;stroke-width:0.80000001;stroke-linecap:square;stroke-linejoin:bevel;stroke-miterlimit:4;stroke-dasharray:none;stroke-opacity:1"
           d="m 269.602,270.398 0,8" /></g><g
         transform="matrix(1,0,0,-1,0,337.60001)"
         id="g72"><path
           id="path74"
           style="fill:none;stroke:#000000;stroke-width:0.80000001;stroke-linecap:square;stroke-linejoin:bevel;stroke-miterlimit:4;stroke-dasharray:none;stroke-opacity:1"
           d="m 332.801,270.398 0,8" /></g><g
         transform="matrix(1,0,0,-1,0,337.60001)"
         id="g76"><path
           id="path78"
           style="fill:none;stroke:#000000;stroke-width:0.80000001;stroke-linecap:square;stroke-linejoin:bevel;stroke-miterlimit:4;stroke-dasharray:none;stroke-opacity:1"
           d="m 396.801,270.398 0,8" /></g><g
         transform="matrix(1,0,0,-1,0,337.60001)"
         id="g80"><path
           id="path82"
           style="fill:none;stroke:#000000;stroke-width:0.80000001;stroke-linecap:square;stroke-linejoin:bevel;stroke-miterlimit:4;stroke-dasharray:none;stroke-opacity:1"
           d="m 460,270.398 0,8" /></g><g
         transform="matrix(1,0,0,-1,0,337.60001)"
         id="g84"><path
           id="path86"
           style="fill:none;stroke:#000000;stroke-width:0.80000001;stroke-linecap:square;stroke-linejoin:bevel;stroke-miterlimit:4;stroke-dasharray:none;stroke-opacity:1"
           d="m 74.398,274.398 8,0" /></g><g
         transform="matrix(1,0,0,-1,0,337.60001)"
         id="g88"><path
           id="path90"
           style="fill:none;stroke:#000000;stroke-width:0.80000001;stroke-linecap:square;stroke-linejoin:bevel;stroke-miterlimit:4;stroke-dasharray:none;stroke-opacity:1"
           d="m 74.398,226.398 8,0" /></g><g
         transform="matrix(1,0,0,-1,0,337.60001)"
         id="g92"><path
           id="path94"
           style="fill:none;stroke:#000000;stroke-width:0.80000001;stroke-linecap:square;stroke-linejoin:bevel;stroke-miterlimit:4;stroke-dasharray:none;stroke-opacity:1"
           d="m 74.398,179.199 8,0" /></g><g
         transform="matrix(1,0,0,-1,0,337.60001)"
         id="g96"><path
           id="path98"
           style="fill:none;stroke:#000000;stroke-width:0.80000001;stroke-linecap:square;stroke-linejoin:bevel;stroke-miterlimit:4;stroke-dasharray:none;stroke-opacity:1"
           d="m 74.398,131.199 8,0" /></g><g
         transform="matrix(1,0,0,-1,0,337.60001)"
         id="g100"><path
           id="path102"
           style="fill:none;stroke:#000000;stroke-width:0.80000001;stroke-linecap:square;stroke-linejoin:bevel;stroke-miterlimit:4;stroke-dasharray:none;stroke-opacity:1"
           d="m 74.398,83.199 8,0" /></g><g
         transform="matrix(1,0,0,-1,0,337.60001)"
         id="g104"><path
           id="path106"
           style="fill:none;stroke:#000000;stroke-width:0.80000001;stroke-linecap:square;stroke-linejoin:bevel;stroke-miterlimit:4;stroke-dasharray:none;stroke-opacity:1"
           d="m 74.398,36 8,0" /></g><g
         transform="matrix(1,0,0,-1,0,337.60001)"
         id="g108"><path
           id="path110"
           style="fill:none;stroke:#000000;stroke-width:0.80000001;stroke-linecap:square;stroke-linejoin:bevel;stroke-miterlimit:4;stroke-dasharray:none;stroke-opacity:1"
           d="M 78.398,12 460,12" /></g><g
         transform="matrix(1,0,0,-1,0,337.60001)"
         id="g112"><path
           id="path114"
           style="fill:none;stroke:#000000;stroke-width:0.80000001;stroke-linecap:square;stroke-linejoin:bevel;stroke-miterlimit:4;stroke-dasharray:none;stroke-opacity:1"
           d="m 460,12 0,262.398" /></g><g
         transform="matrix(1,0,0,-1,0,337.60001)"
         id="g116"><path
           id="path118"
           style="fill:none;stroke:#000000;stroke-width:0.80000001;stroke-linecap:square;stroke-linejoin:bevel;stroke-miterlimit:4;stroke-dasharray:none;stroke-opacity:1"
           d="m 78.398,274.398 381.602,0" /></g><g
         transform="matrix(1,0,0,-1,0,337.60001)"
         id="g120"><path
           id="path122"
           style="fill:none;stroke:#000000;stroke-width:0.80000001;stroke-linecap:square;stroke-linejoin:bevel;stroke-miterlimit:4;stroke-dasharray:none;stroke-opacity:1"
           d="m 78.398,12 0,262.398" /></g><g
         transform="matrix(1,0,0,-1,0,337.60001)"
         id="g124"><path
           id="path126"
           style="fill:none;stroke:#0000ff;stroke-width:0.80000001;stroke-linecap:square;stroke-linejoin:bevel;stroke-miterlimit:4;stroke-dasharray:none;stroke-opacity:1"
           d="m 91.121,134.258 0.055,-0.168 0.054,-0.172 0.051,-0.172 0.059,-0.172 0.055,-0.168 0.054,-0.172 0.055,-0.168 0.058,-0.171 0.055,-0.172 0.055,-0.168 0.058,-0.172 0.055,-0.168 0.059,-0.172 0.058,-0.168 0.055,-0.172 0.059,-0.168 0.058,-0.172 0.059,-0.168 0.058,-0.172 0.059,-0.168 0.059,-0.171 0.058,-0.168 0.063,-0.172 0.117,-0.336 0.062,-0.172 0.059,-0.168 0.062,-0.168 0.063,-0.172 0.059,-0.168 0.125,-0.336 0.062,-0.172 0.188,-0.504 0.062,-0.171 0.066,-0.168 0.125,-0.336 0.067,-0.168 0.062,-0.168 0.067,-0.168 0.062,-0.168 0.532,-1.344 0.07,-0.168 0.066,-0.168 0.071,-0.168 0.066,-0.168 0.07,-0.164 0.141,-0.336 0.066,-0.168 0.071,-0.164 0.211,-0.504 0.074,-0.164 0.07,-0.168 0.074,-0.164 0.141,-0.336 0.074,-0.164 0.074,-0.168 0.075,-0.164 0.074,-0.168 0.07,-0.164 0.074,-0.168 0.078,-0.164 0.075,-0.164 0.074,-0.168 0.074,-0.164 0.078,-0.168 0.074,-0.164 0.157,-0.328 0.078,-0.168 0.074,-0.164 0.234,-0.492 0.082,-0.165 0.079,-0.167 0.078,-0.165 0.082,-0.16 0.078,-0.164 0.164,-0.328 0.078,-0.164 0.164,-0.328 0.086,-0.164 0.164,-0.328 0.082,-0.16 0.086,-0.164 0.082,-0.165 0.086,-0.16 0.086,-0.164 0.082,-0.164 0.086,-0.16 0.086,-0.164 0.086,-0.16 0.09,-0.164 0.086,-0.16 0.086,-0.164 0.089,-0.161 0.086,-0.16 0.09,-0.164 0.18,-0.32 0.086,-0.16 0.094,-0.164 0.269,-0.481 0.094,-0.16 0.09,-0.16 0.656,-1.121 0.094,-0.156 0.097,-0.161 0.094,-0.16 0.098,-0.156 0.097,-0.16 0.098,-0.156 0.098,-0.161 0.097,-0.156 0.098,-0.16 0.098,-0.156 0.101,-0.16 0.098,-0.157 0.203,-0.312 0.098,-0.16 0.101,-0.157 0.106,-0.156 0.203,-0.312 0.105,-0.157 0.102,-0.156 0.105,-0.156 0.102,-0.156 0.211,-0.313 0.109,-0.152 0.211,-0.313 0.106,-0.152 0.109,-0.156 0.109,-0.153 0.106,-0.156 0.109,-0.152 0.114,-0.153 0.109,-0.156 0.219,-0.305 0.113,-0.152 0.109,-0.152 0.114,-0.156 0.339,-0.457 0.114,-0.149 0.117,-0.152 0.113,-0.153 0.117,-0.152 0.118,-0.148 0.117,-0.153 0.117,-0.148 0.117,-0.152 0.117,-0.149 0.121,-0.152 0.118,-0.149 0.121,-0.148 0.121,-0.152 0.117,-0.149 0.125,-0.148 0.242,-0.297 0.125,-0.149 0.121,-0.148 0.125,-0.145 0.375,-0.445 0.125,-0.145 0.125,-0.148 0.258,-0.289 0.129,-0.148 0.125,-0.145 0.129,-0.144 0.133,-0.145 0.129,-0.145 0.132,-0.144 0.129,-0.145 0.399,-0.433 0.136,-0.141 0.133,-0.144 0.133,-0.141 0.137,-0.145 0.273,-0.281 0.137,-0.144 0.137,-0.141 0.14,-0.141 0.137,-0.14 0.141,-0.141 0.14,-0.137 0.282,-0.281 0.144,-0.137 0.141,-0.14 0.144,-0.141 0.723,-0.683 0.742,-0.684 0.152,-0.133 0.149,-0.136 0.609,-0.532 0.156,-0.133 0.153,-0.132 0.312,-0.266 0.157,-0.129 0.156,-0.133 0.16,-0.129 0.156,-0.132 0.481,-0.387 0.164,-0.129 0.16,-0.129 0.164,-0.129 0.16,-0.125 0.164,-0.129 0.168,-0.129 0.164,-0.125 0.168,-0.125 0.164,-0.125 0.336,-0.25 0.172,-0.125 0.168,-0.125 0.172,-0.121 0.172,-0.125 0.343,-0.242 0.172,-0.125 0.352,-0.242 0.176,-0.117 0.351,-0.243 0.18,-0.117 0.176,-0.117 0.179,-0.117 0.18,-0.121 0.184,-0.117 0.179,-0.114 0.368,-0.234 0.183,-0.113 0.188,-0.117 0.183,-0.114 0.375,-0.226 0.188,-0.11 0.187,-0.113 0.192,-0.113 0.187,-0.11 0.192,-0.109 0.195,-0.109 0.191,-0.11 0.196,-0.109 0.191,-0.11 0.195,-0.105 0.2,-0.109 0.195,-0.106 0.797,-0.422 0.203,-0.101 0.199,-0.102 0.203,-0.105 0.207,-0.102 0.203,-0.098 0.414,-0.203 0.622,-0.293 0.421,-0.195 0.215,-0.098 0.211,-0.093 0.86,-0.375 0.218,-0.09 0.219,-0.094 0.438,-0.18 0.222,-0.086 0.446,-0.179 0.222,-0.086 0.227,-0.086 0.226,-0.082 0.227,-0.086 0.226,-0.082 0.231,-0.086 0.226,-0.082 0.231,-0.082 0.234,-0.078 0.231,-0.082 0.469,-0.156 0.234,-0.075 0.238,-0.078 0.715,-0.223 0.242,-0.074 0.727,-0.211 0.246,-0.07 0.246,-0.066 0.246,-0.071 0.25,-0.066 0.25,-0.063 0.25,-0.066 0.25,-0.063 0.254,-0.062 0.25,-0.062 0.258,-0.059 0.254,-0.059 0.773,-0.175 0.258,-0.055 0.262,-0.055 0.261,-0.051 0.266,-0.05 0.262,-0.055 0.265,-0.047 0.27,-0.051 0.266,-0.047 0.269,-0.046 0.539,-0.086 0.547,-0.086 0.277,-0.039 0.274,-0.039 0.277,-0.04 0.277,-0.035 0.563,-0.07 0.562,-0.063 0.286,-0.031 0.57,-0.054 0.578,-0.047 0.293,-0.024 0.289,-0.019 0.293,-0.024 0.297,-0.015 0.293,-0.02 0.297,-0.012 0.297,-0.015 0.601,-0.024 0.301,-0.007 0.305,-0.008 0.3,-0.004 0.309,-0.004 0.922,0 0.625,0.008 0.312,0.008 0.317,0.007 0.633,0.024 0.316,0.015 0.32,0.02 0.325,0.016 0.32,0.023 0.324,0.023 0.328,0.024 0.324,0.027 0.332,0.031 0.329,0.032 0.332,0.031 0.332,0.039 0.336,0.039 0.332,0.039 0.339,0.043 0.336,0.047 0.34,0.047 0.344,0.051 0.688,0.109 0.343,0.059 0.696,0.125 0.351,0.066 0.352,0.07 0.351,0.075 0.356,0.074 0.355,0.082 0.719,0.164 0.359,0.09 0.364,0.09 0.363,0.093 0.363,0.098 0.367,0.101 0.371,0.106 0.372,0.109 0.371,0.114 0.371,0.117 0.375,0.117 0.375,0.125 0.758,0.258 0.382,0.137 0.383,0.14 0.387,0.145 0.383,0.148 0.39,0.152 0.387,0.157 0.391,0.164 0.394,0.168 0.395,0.172 0.394,0.175 0.399,0.184 0.402,0.188 0.398,0.191 0.403,0.199 0.406,0.203 0.406,0.211 0.407,0.215 0.41,0.223 0.414,0.226 0.41,0.235 0.418,0.242 0.418,0.246 0.418,0.254 0.418,0.262 0.422,0.269 0.425,0.277 0.426,0.286 0.43,0.289 0.426,0.3 0.433,0.309 0.434,0.316 0.433,0.325 0.438,0.336 0.438,0.343 0.441,0.352 0.441,0.363 0.446,0.375 0.445,0.383 0.449,0.394 0.449,0.411 0.453,0.414 0.454,0.429 0.457,0.446 0.457,0.453 0.461,0.469 0.461,0.48 0.464,0.496 0.465,0.512 0.469,0.527 0.469,0.543 0.472,0.559 0.473,0.574 0.477,0.594 0.476,0.613 0.481,0.629 0.48,0.652 0.484,0.676 0.489,0.691 0.488,0.719 0.488,0.742 0.493,0.766 0.496,0.793 0.496,0.824 0.496,0.848 0.5,0.883 0.504,0.914 0.504,0.945 0.507,0.984 0.508,1.024 0.512,1.058 0.516,1.106 0.515,1.152 0.52,1.2 0.519,1.253 0.524,1.309 0.523,1.367 0.528,1.434 0.527,1.504 0.531,1.578 0.535,1.664 0.535,1.754 0.539,1.851 0.54,1.957 0.543,2.086 0.546,2.215 0.547,2.367 0.551,2.539 0.551,2.735 0.555,2.957 0.554,3.219 0.563,3.523 0.558,3.887 0.567,4.336 0.566,4.882 0.566,5.59 0.575,6.524 0.57,7.812 0.578,9.723 0.578,12.836 0.582,18.867 0.582,36.012 0.125,8.179" /></g><g
         transform="matrix(1,0,0,-1,0,337.60001)"
         id="g128"><path
           id="path130"
           style="fill:none;stroke:#0000ff;stroke-width:0.80000001;stroke-linecap:square;stroke-linejoin:bevel;stroke-miterlimit:4;stroke-dasharray:none;stroke-opacity:1"
           d="m 216.648,274.398 0.305,-32.457 0.59,-24.023 0.594,-15.184 0.597,-11.136 0.598,-8.813 0.602,-7.293 0.601,-6.226 0.61,-5.434 0.609,-4.816 0.609,-4.332 0.614,-3.93 0.617,-3.602 0.621,-3.32 0.621,-3.078 0.625,-2.871 0.629,-2.688 0.629,-2.523 0.633,-2.379 0.636,-2.25 0.637,-2.137 0.641,-2.023 0.644,-1.93 0.645,-1.84 0.648,-1.758 0.652,-1.679 0.657,-1.61 0.656,-1.543 0.66,-1.484 0.664,-1.422 0.664,-1.367 0.668,-1.316 0.672,-1.266 0.676,-1.223 0.676,-1.172 0.683,-1.132 0.68,-1.094 0.687,-1.055 0.688,-1.015 0.691,-0.981 0.696,-0.945 0.699,-0.91 0.699,-0.879 0.707,-0.848 0.703,-0.816 0.711,-0.789 0.715,-0.758 0.715,-0.731 0.719,-0.703 0.722,-0.676 0.723,-0.648 0.73,-0.625 0.731,-0.594 0.734,-0.574 0.739,-0.543 0.738,-0.523 0.746,-0.496 0.746,-0.473 0.75,-0.449 0.754,-0.422 0.758,-0.399 0.758,-0.375 0.761,-0.351 0.77,-0.324 0.769,-0.301 0.77,-0.278 0.777,-0.25 0.781,-0.222 0.782,-0.199 0.785,-0.172 0.793,-0.145 0.789,-0.117 0.797,-0.09 0.801,-0.059 0.8,-0.027 0.809,0.004 0.808,0.035 0.813,0.071 0.82,0.105 0.821,0.145 0.824,0.179 0.824,0.223 0.832,0.265 0.836,0.317 0.836,0.359 0.844,0.414 0.843,0.473 0.848,0.527 0.852,0.598 0.855,0.664 0.863,0.742 0.864,0.824 0.867,0.918 0.867,1.016 0.875,1.129 0.879,1.254 0.883,1.391 0.887,1.55 0.886,1.727 0.895,1.933 0.898,2.172 0.899,2.45 0.906,2.777 0.906,3.176 0.914,3.66 0.914,4.277 0.922,5.067 0.926,6.132 0.926,7.649 0.933,9.957 0.938,13.961 0.937,22.625 0.946,59.414 0.949,-35.274 0.949,-37.8 0.957,-20.071 0.961,-13.906 0.965,-10.719 0.969,-8.757 0.972,-7.422 0.977,-6.438 0.98,-5.687 0.985,-5.082 0.988,-4.582 0.996,-4.165 0.996,-3.8 1.004,-3.481 1.004,-3.195 1.012,-2.941 1.015,-2.707 1.016,-2.493 1.027,-2.3 1.028,-2.118 1.031,-1.949 1.035,-1.797 1.043,-1.652 1.043,-1.516 1.051,-1.394 1.054,-1.278 1.059,-1.171 1.066,-1.075 1.067,-0.984 1.074,-0.902 1.074,-0.825 1.082,-0.754 1.09,-0.687 1.09,-0.633 1.094,-0.574 1.101,-0.527 1.106,-0.481 1.109,-0.441 1.113,-0.403 1.122,-0.367 1.125,-0.336 1.125,-0.308 1.136,-0.282 1.137,-0.257 1.144,-0.239 1.149,-0.218 1.152,-0.2 1.16,-0.179 1.161,-0.168 1.168,-0.157 1.175,-0.14 1.176,-0.129 1.184,-0.121 1.187,-0.11 1.192,-0.105 1.199,-0.094 1.203,-0.086 1.207,-0.078 1.215,-0.074 1.219,-0.07 1.226,-0.063 1.227,-0.058 1.234,-0.051 1.242,-0.051 1.242,-0.047 1.25,-0.043 2.516,-0.078 1.27,-0.031 1.269,-0.035 1.277,-0.028 1.282,-0.027 1.289,-0.027 1.293,-0.024 1.301,-0.023 1.304,-0.02 1.309,-0.019 1.316,-0.016 1.321,-0.02 1.328,-0.015 1.332,-0.012 1.34,-0.016 1.343,-0.011 1.352,-0.012 1.355,-0.012 1.36,-0.011 1.367,-0.008 1.375,-0.012 1.379,-0.008 1.383,-0.008 1.39,-0.007 1.399,-0.004 1.402,-0.008 1.406,-0.008 1.414,-0.004 1.422,-0.008 1.426,-0.003 1.434,-0.004 1.437,-0.004 1.445,-0.004 1.454,-0.004 1.457,-0.004 1.464,-0.004 1.469,-0.004 1.477,-0.004 1.48,-0.004 1.488,0 1.497,-0.004 1.5,-0.003 1.507,0 1.516,-0.004 1.52,0 1.527,-0.004 1.535,0 1.539,-0.004 3.102,0 1.558,-0.004 3.141,0 1.578,-0.004 3.184,0 1.597,-0.004 4.844,0" /></g><g
         transform="matrix(1,0,0,-1,0,337.60001)"
         id="g132"><path
           id="path134"
           style="fill:none;stroke:#ff0000;stroke-width:0.80000001;stroke-linecap:square;stroke-linejoin:bevel;stroke-miterlimit:4;stroke-dasharray:none;stroke-opacity:1"
           d="m 91.121,36.035 0.055,0 0.054,0.004 0.11,0 0.055,0.004 0.054,0 0.055,0.004 0.113,0 0.055,0.004 0.058,0 0.055,0.004 0.059,0 0.058,0.004 0.114,0 0.058,0.003 0.059,0 0.058,0.004 0.059,0 0.059,0.004 0.058,0 0.063,0.004 0.117,0 0.062,0.004 0.059,0 0.062,0.004 0.063,0 0.059,0.004 0.062,0 0.063,0.004 0.062,0 0.063,0.004 0.062,0 0.063,0.004 0.062,0 0.066,0.004 0.063,0 0.062,0.003 0.067,0 0.062,0.004 0.067,0 0.062,0.004 0.067,0.004 0.066,0 0.067,0.004 0.066,0 0.066,0.004 0.067,0 0.066,0.004 0.067,0 0.07,0.004 0.066,0.004 0.071,0 0.066,0.004 0.07,0 0.141,0.007 0.066,0 0.071,0.004 0.07,0 0.141,0.008 0.074,0 0.07,0.004 0.074,0.004 0.071,0 0.07,0.004 0.074,0.004 0.074,0 0.149,0.008 0.07,0 0.074,0.004 0.078,0.003 0.075,0 0.148,0.008 0.078,0 0.074,0.004 0.157,0.008 0.078,0 0.074,0.004 0.156,0.008 0.078,0 0.082,0.004 0.157,0.007 0.082,0 0.078,0.004 0.164,0.008 0.078,0.004 0.082,0 0.082,0.004 0.086,0.004 0.246,0.012 0.086,0 0.082,0.003 0.172,0.008 0.082,0.004 0.172,0.008 0.086,0 0.09,0.004 0.172,0.008 0.089,0.004 0.086,0.003 0.27,0.012 0.086,0.004 0.094,0.004 0.269,0.012 0.094,0.004 0.09,0.004 0.75,0.031 0.097,0.004 0.094,0.004 0.684,0.027 0.101,0.008 0.098,0.004 0.203,0.008 0.098,0.003 0.101,0.004 0.106,0.004 0.101,0.008 0.102,0.004 0.105,0.004 0.102,0.004 0.105,0.004 0.102,0.007 0.211,0.008 0.109,0.004 0.106,0.008 0.211,0.008 0.109,0.004 0.109,0.008 0.106,0.003 0.109,0.004 0.114,0.008 0.218,0.008 0.11,0.008 0.113,0.004 0.109,0.004 0.114,0.007 0.226,0.008 0.113,0.008 0.114,0.004 0.117,0.004 0.113,0.008 0.117,0.004 0.118,0.007 0.117,0.004 0.117,0.008 0.117,0.004 0.117,0.008 0.121,0.004 0.118,0.004 0.121,0.007 0.121,0.004 0.117,0.008 0.125,0.004 0.242,0.016 0.125,0.004 0.121,0.007 0.125,0.004 0.125,0.008 0.125,0.004 0.25,0.016 0.125,0.004 0.129,0.007 0.129,0.004 0.129,0.008 0.125,0.008 0.129,0.004 0.133,0.008 0.129,0.007 0.132,0.004 0.129,0.008 0.133,0.008 0.133,0.004 0.133,0.008 0.136,0.007 0.133,0.008 0.133,0.004 0.41,0.024 0.137,0.004 0.137,0.007 0.14,0.008 0.137,0.008 0.141,0.008 0.14,0.004 0.282,0.015 0.144,0.008 0.141,0.008 0.433,0.023 0.145,0.004 0.289,0.016 0.742,0.039 0.152,0.008 0.149,0.008 0.609,0.031 0.156,0.008 0.153,0.007 0.625,0.032 0.16,0.008 0.156,0.007 0.32,0.016 0.161,0.012 0.164,0.008 0.16,0.007 0.164,0.008 0.16,0.008 0.164,0.008 0.168,0.008 0.164,0.011 0.168,0.008 0.164,0.008 0.336,0.016 0.172,0.007 0.168,0.012 0.687,0.031 0.172,0.012 0.528,0.023 0.176,0.012 0.175,0.008 0.18,0.008 0.176,0.008 0.179,0.011 0.18,0.008 0.184,0.008 0.179,0.008 0.184,0.012 0.367,0.015 0.188,0.012 0.183,0.008 0.375,0.015 0.188,0.012 0.187,0.008 0.192,0.008 0.187,0.011 0.192,0.008 0.195,0.008 0.191,0.012 0.196,0.008 0.191,0.007 0.195,0.012 0.2,0.008 0.195,0.008 0.199,0.011 0.399,0.016 0.199,0.012 0.203,0.008 0.199,0.007 0.203,0.012 0.207,0.008 0.203,0.008 0.207,0.011 0.622,0.024 0.207,0.012 0.421,0.015 0.215,0.012 0.211,0.008 0.215,0.008 0.215,0.011 0.43,0.016 0.218,0.008 0.219,0.011 0.438,0.016 0.222,0.008 0.223,0.012 0.445,0.015 0.453,0.016 0.227,0.012 0.226,0.007 0.231,0.008 0.226,0.008 0.231,0.008 0.234,0.008 0.231,0.007 0.234,0.008 0.235,0.012 0.234,0.008 0.953,0.031 0.969,0.031 0.246,0.008 0.246,0.004 0.246,0.008 1,0.031 0.254,0.004 0.25,0.008 0.258,0.008 0.254,0.007 0.257,0.004 0.516,0.016 0.258,0.004 0.262,0.008 0.261,0.004 0.266,0.007 0.262,0.004 0.265,0.008 0.27,0.004 0.266,0.008 0.539,0.008 0.269,0.007 0.547,0.008 0.277,0.004 0.274,0.008 0.554,0.008 1.125,0.015 0.856,0.012 0.289,0 0.289,0.004 0.293,0.004 0.289,0 0.293,0.004 0.297,0.004 0.293,0 0.297,0.004 0.597,0 0.301,0.004 3.391,0 0.316,-0.004 0.317,0 0.316,-0.004 0.32,0 0.325,-0.004 0.32,0 0.324,-0.004 0.328,-0.004 0.324,-0.004 0.332,0 0.329,-0.004 0.332,-0.008 0.332,-0.003 0.336,-0.004 0.332,-0.004 0.339,-0.004 0.336,-0.008 0.34,-0.004 0.344,-0.008 0.344,-0.004 0.687,-0.015 0.696,-0.016 0.351,-0.004 0.352,-0.012 0.351,-0.007 0.711,-0.016 0.36,-0.012 0.359,-0.008 0.359,-0.011 0.364,-0.008 0.726,-0.023 0.367,-0.008 0.743,-0.024 0.371,-0.015 0.371,-0.012 0.75,-0.023 0.379,-0.016 0.379,-0.012 0.765,-0.031 0.387,-0.012 0.383,-0.015 0.39,-0.016 0.387,-0.016 0.391,-0.015 0.394,-0.02 0.789,-0.031 0.399,-0.02 0.402,-0.015 0.398,-0.02 0.403,-0.019 0.406,-0.016 0.813,-0.039 0.41,-0.02 0.414,-0.019 0.41,-0.02 0.418,-0.023 0.418,-0.02 0.418,-0.023 0.418,-0.02 0.422,-0.023 0.425,-0.019 0.426,-0.024 0.43,-0.023 0.426,-0.024 1.3,-0.07 0.876,-0.047 0.441,-0.023 0.441,-0.028 0.891,-0.047 0.449,-0.027 0.449,-0.023 0.453,-0.028 0.454,-0.023 0.914,-0.055 0.461,-0.023 0.461,-0.028 0.929,-0.054 0.469,-0.028 0.469,-0.023 0.945,-0.055 0.953,-0.055 0.961,-0.054 0.484,-0.024 1.465,-0.082 0.493,-0.027 0.496,-0.023 0.992,-0.055 0.5,-0.024 0.504,-0.027 0.504,-0.023 0.507,-0.028 0.508,-0.023 0.512,-0.028 1.031,-0.046 1.039,-0.047 0.524,-0.02 0.523,-0.023 0.528,-0.024 0.527,-0.019 0.531,-0.02 1.07,-0.039 1.079,-0.039 0.543,-0.015 0.546,-0.02 0.547,-0.016 0.551,-0.011 0.551,-0.016 0.555,-0.016 0.554,-0.011 0.563,-0.012 0.558,-0.012 0.567,-0.008 0.566,-0.011 0.566,-0.008 0.575,-0.004 0.57,-0.008 1.156,-0.008 0.582,-0.004 1.758,0 0.59,0.004 0.594,0 0.597,0.008 0.598,0.004 1.203,0.016 1.828,0.035 0.614,0.016 0.617,0.011 0.621,0.02 0.621,0.015 0.625,0.02 1.258,0.047 0.633,0.023 0.636,0.024 0.637,0.027 0.641,0.027 0.644,0.032 0.645,0.027 0.648,0.035 0.652,0.031 1.313,0.071 0.66,0.039 0.664,0.035 0.664,0.043 0.668,0.039 0.672,0.043 1.352,0.086 0.683,0.043 0.68,0.047 1.375,0.093 0.691,0.047 0.696,0.047 0.699,0.051 0.699,0.047 0.707,0.051 0.703,0.05 0.711,0.051 0.715,0.047 0.715,0.051 0.719,0.051 1.445,0.101 0.73,0.047 0.731,0.051 0.734,0.047 1.477,0.093 0.746,0.047 0.746,0.043 0.75,0.043 0.754,0.043 1.516,0.078 0.761,0.036 1.539,0.07 0.77,0.031 0.777,0.027 1.563,0.047 0.785,0.02 0.793,0.015 0.789,0.016 0.797,0.012 1.601,0.008 0.809,0 0.808,-0.004 0.813,-0.008 0.82,-0.012 0.821,-0.019 0.824,-0.02 0.824,-0.027 0.832,-0.028 0.836,-0.035 0.836,-0.039 1.687,-0.094 0.848,-0.054 0.852,-0.059 0.855,-0.066 0.863,-0.067 0.864,-0.074 0.867,-0.078 0.867,-0.082 0.875,-0.086 0.879,-0.09 0.883,-0.094 0.887,-0.093 0.886,-0.098 0.895,-0.102 1.797,-0.203 1.812,-0.203 0.914,-0.097 0.914,-0.094 0.922,-0.09 0.926,-0.078 0.926,-0.074 0.933,-0.063 0.938,-0.047 0.937,-0.035 0.946,-0.016 0.949,0.004 0.949,0.028 0.957,0.054 0.961,0.082 0.965,0.118 0.969,0.152 0.972,0.191 0.977,0.235 0.98,0.281 0.985,0.332 0.988,0.383 0.996,0.437 0.996,0.496 1.004,0.551 1.004,0.617 1.012,0.676 1.015,0.738 1.016,0.801 1.027,0.864 1.028,0.921 1.031,0.981 1.035,1.035 1.043,1.094 1.043,1.14 1.051,1.192 1.054,1.238 1.059,1.277 1.066,1.317 1.067,1.351 1.074,1.379 1.074,1.41 1.082,1.438 1.09,1.457 1.09,1.473 1.094,1.492 1.101,1.508 1.106,1.515 1.109,1.528 1.113,1.531 1.122,1.539 2.25,3.086 1.136,1.543 1.137,1.547 1.144,1.543 1.149,1.543 1.152,1.535 1.16,1.535 1.161,1.531 1.168,1.524 1.175,1.523 1.176,1.512 1.184,1.508 1.187,1.5 1.192,1.496 1.199,1.488 1.203,1.48 1.207,1.473 1.215,1.465 1.219,1.457 1.226,1.453 1.227,1.445 1.234,1.434 1.242,1.43 1.242,1.422 1.25,1.414 1.258,1.406 1.258,1.398 1.27,1.395 1.269,1.383 1.277,1.379 1.282,1.371 1.289,1.367 1.293,1.355 1.301,1.352 1.304,1.344 1.309,1.336 1.316,1.332 1.321,1.324 1.328,1.32 1.332,1.313 1.34,1.304 1.343,1.301 1.352,1.293 1.355,1.293 1.36,1.281 1.367,1.278 1.375,1.273 1.379,1.266 1.383,1.261 1.39,1.254 1.399,1.254 1.402,1.246 1.406,1.243 1.414,1.234 1.422,1.23 1.426,1.227 1.434,1.223 1.437,1.218 1.445,1.215 1.454,1.207 1.457,1.207 1.464,1.199 1.469,1.196 1.477,1.191 1.48,1.192 1.488,1.183 1.497,1.18 1.5,1.176 1.507,1.172 1.516,1.168 1.52,1.167 1.527,1.161 1.535,1.16 1.539,1.152 1.547,1.152 1.555,1.149 1.558,1.144 1.567,1.141 1.574,1.141 1.578,1.133 1.59,1.132 1.594,1.129 1.597,1.125 1.61,1.125 1.613,1.121 1.621,1.118" /></g><path
         id="path136"
         style="fill:#000000;fill-opacity:1;fill-rule:nonzero;stroke:none"
         d="m 80.059,52.065 c 0,2.359 -0.75,3.531 -2.219,3.531 -1.469,0 -2.235,-1.187 -2.235,-3.469 0,-2.297 0.782,-3.468 2.235,-3.468 1.437,0 2.219,1.171 2.219,3.406 z m -0.86,0.078 c 0,-1.922 -0.437,-2.781 -1.375,-2.781 -0.89,0 -1.344,0.89 -1.344,2.75 0,1.875 0.454,2.734 1.36,2.734 0.906,0 1.359,-0.875 1.359,-2.703 z" /><path
         id="path138"
         style="fill:#000000;fill-opacity:1;fill-rule:nonzero;stroke:none"
         d="m 136.922,51.049 c 0,1.344 -0.891,2.235 -2.203,2.235 -0.469,0 -0.86,-0.125 -1.25,-0.422 l 0.265,1.765 2.828,0 0,0.828 -3.5,0 -0.515,-3.562 0.781,0 c 0.391,0.469 0.719,0.641 1.25,0.641 0.906,0 1.484,-0.594 1.484,-1.594 0,-0.985 -0.578,-1.531 -1.484,-1.531 -0.75,0 -1.203,0.375 -1.39,1.14 l -0.86,0 c 0.281,-1.359 1.047,-1.89 2.266,-1.89 1.375,0 2.328,0.953 2.328,2.39 z m 5.344,0.031 c 0,0.735 -0.063,1.188 -0.204,1.563 -0.328,0.828 -1.093,1.328 -2.031,1.328 -1.406,0 -2.297,-1.031 -2.297,-2.687 0,-1.657 0.86,-2.625 2.282,-2.625 1.14,0 1.937,0.656 2.14,1.671 l -0.797,0 c -0.218,-0.671 -0.671,-0.937 -1.312,-0.937 -0.844,0 -1.469,0.531 -1.485,1.687 l 3.704,0 z m -0.86,0.719 c 0,0 0,-0.047 0,-0.062 l -2.828,0 c 0.078,0.89 0.641,1.5 1.438,1.5 0.796,0 1.39,-0.657 1.39,-1.438 z" /><path
         id="path140"
         style="fill:#000000;fill-opacity:1;fill-rule:nonzero;stroke:none"
         d="m 147.609,50.721 c 0,0.75 -0.39,1.281 -1.171,1.656 0.703,0.422 0.937,0.766 0.937,1.407 0,1.062 -0.844,1.812 -2.047,1.812 -1.203,0 -2.047,-0.75 -2.047,-1.812 0,-0.625 0.235,-0.969 0.922,-1.407 -0.781,-0.375 -1.156,-0.906 -1.156,-1.656 0,-1.234 0.937,-2.062 2.281,-2.062 1.344,0 2.281,0.828 2.281,2.062 z m -1.109,3.047 c 0,-0.625 -0.469,-1.047 -1.172,-1.047 -0.719,0 -1.187,0.422 -1.187,1.063 0,0.64 0.468,1.062 1.187,1.062 0.719,0 1.172,-0.422 1.172,-1.078 z m 0.25,-3.063 c 0,-0.796 -0.578,-1.296 -1.438,-1.296 -0.828,0 -1.406,0.5 -1.406,1.296 0,0.797 0.578,1.297 1.422,1.297 0.844,0 1.422,-0.5 1.422,-1.297 z" /><path
         id="path142"
         style="fill:#000000;fill-opacity:1;fill-rule:nonzero;stroke:none"
         d="m 198.527,48.799 0,6.797 -0.562,0 c -0.297,-1.047 -0.485,-1.187 -1.781,-1.344 l 0,-0.609 1.5,0 0,-4.844 0.843,0 z m 6.938,2.281 c 0,0.735 -0.063,1.188 -0.203,1.563 -0.328,0.828 -1.094,1.328 -2.032,1.328 -1.406,0 -2.296,-1.031 -2.296,-2.687 0,-1.657 0.859,-2.625 2.281,-2.625 1.14,0 1.937,0.656 2.14,1.671 l -0.796,0 c -0.219,-0.671 -0.672,-0.937 -1.313,-0.937 -0.844,0 -1.469,0.531 -1.484,1.687 l 3.703,0 z m -0.86,0.719 c 0,0 0,-0.047 0,-0.062 l -2.828,0 c 0.078,0.89 0.641,1.5 1.438,1.5 0.797,0 1.39,-0.657 1.39,-1.438 z" /><path
         id="path144"
         style="fill:#000000;fill-opacity:1;fill-rule:nonzero;stroke:none"
         d="m 210.777,52.362 c 0,2.125 -0.75,3.234 -2.297,3.234 -1.296,0 -2.234,-0.922 -2.234,-2.25 0,-1.266 0.875,-2.125 2.094,-2.125 0.64,0 1.109,0.234 1.562,0.766 -0.015,-1.657 -0.547,-2.578 -1.515,-2.578 -0.594,0 -1.016,0.375 -1.141,1.015 l -0.844,0 c 0.157,-1.109 0.891,-1.765 1.922,-1.765 1.594,0 2.453,1.343 2.453,3.703 z m -0.922,1 c 0,-0.828 -0.593,-1.391 -1.421,-1.391 -0.813,0 -1.313,0.531 -1.313,1.438 0,0.875 0.563,1.453 1.344,1.453 0.797,0 1.39,-0.61 1.39,-1.5 z" /><path
         id="path146"
         style="fill:#000000;fill-opacity:1;fill-rule:nonzero;stroke:none"
         d="m 256.93,48.799 0,6.797 -0.563,0 c -0.297,-1.047 -0.484,-1.187 -1.781,-1.344 l 0,-0.609 1.5,0 0,-4.844 0.844,0 z m 3.843,0 0,1 -1,0 0,-1 1,0 z" /><path
         id="path148"
         style="fill:#000000;fill-opacity:1;fill-rule:nonzero;stroke:none"
         d="m 266.527,51.049 c 0,1.344 -0.89,2.235 -2.203,2.235 -0.469,0 -0.859,-0.125 -1.25,-0.422 l 0.266,1.765 2.828,0 0,0.828 -3.5,0 -0.516,-3.562 0.782,0 c 0.39,0.469 0.718,0.641 1.25,0.641 0.906,0 1.484,-0.594 1.484,-1.594 0,-0.985 -0.578,-1.531 -1.484,-1.531 -0.75,0 -1.204,0.375 -1.391,1.14 l -0.859,0 c 0.281,-1.359 1.046,-1.89 2.265,-1.89 1.375,0 2.328,0.953 2.328,2.39 z" /><path
         id="path150"
         style="fill:#000000;fill-opacity:1;fill-rule:nonzero;stroke:none"
         d="m 271.871,51.08 c 0,0.735 -0.062,1.188 -0.203,1.563 -0.328,0.828 -1.094,1.328 -2.031,1.328 -1.407,0 -2.297,-1.031 -2.297,-2.687 0,-1.657 0.859,-2.625 2.281,-2.625 1.141,0 1.938,0.656 2.141,1.671 l -0.797,0 c -0.219,-0.671 -0.672,-0.937 -1.313,-0.937 -0.843,0 -1.468,0.531 -1.484,1.687 l 3.703,0 z m -0.859,0.719 c 0,0 0,-0.047 0,-0.062 l -2.828,0 c 0.078,0.89 0.64,1.5 1.437,1.5 0.797,0 1.391,-0.657 1.391,-1.438 z" /><path
         id="path152"
         style="fill:#000000;fill-opacity:1;fill-rule:nonzero;stroke:none"
         d="m 277.184,52.362 c 0,2.125 -0.75,3.234 -2.297,3.234 -1.297,0 -2.235,-0.922 -2.235,-2.25 0,-1.266 0.875,-2.125 2.094,-2.125 0.641,0 1.109,0.234 1.563,0.766 -0.016,-1.657 -0.547,-2.578 -1.516,-2.578 -0.594,0 -1.016,0.375 -1.141,1.015 l -0.843,0 c 0.156,-1.109 0.89,-1.765 1.921,-1.765 1.594,0 2.454,1.343 2.454,3.703 z m -0.922,1 c 0,-0.828 -0.594,-1.391 -1.422,-1.391 -0.813,0 -1.313,0.531 -1.313,1.438 0,0.875 0.563,1.453 1.344,1.453 0.797,0 1.391,-0.61 1.391,-1.5 z" /><path
         id="path154"
         style="fill:#000000;fill-opacity:1;fill-rule:nonzero;stroke:none"
         d="m 327.305,53.612 c 0,1.14 -0.891,1.984 -2.188,1.984 -1.39,0 -2.187,-0.703 -2.234,-2.359 l 0.844,0 c 0.062,1.14 0.531,1.625 1.375,1.625 0.765,0 1.328,-0.547 1.328,-1.282 0,-0.531 -0.313,-0.984 -0.907,-1.343 l -0.89,-0.5 c -1.422,-0.797 -1.828,-1.438 -1.906,-2.938 l 4.531,0 0,0.828 -3.578,0 c 0.078,0.563 0.39,0.922 1.218,1.407 l 0.969,0.515 c 0.938,0.516 1.438,1.219 1.438,2.063 z m 5.359,-2.532 c 0,0.735 -0.062,1.188 -0.203,1.563 -0.328,0.828 -1.094,1.328 -2.031,1.328 -1.407,0 -2.297,-1.031 -2.297,-2.687 0,-1.657 0.859,-2.625 2.281,-2.625 1.141,0 1.938,0.656 2.141,1.671 l -0.797,0 c -0.219,-0.671 -0.672,-0.937 -1.313,-0.937 -0.843,0 -1.468,0.531 -1.484,1.687 l 3.703,0 z m -0.859,0.719 c 0,0 0,-0.047 0,-0.062 l -2.828,0 c 0.078,0.89 0.64,1.5 1.437,1.5 0.797,0 1.391,-0.657 1.391,-1.438 z" /><path
         id="path156"
         style="fill:#000000;fill-opacity:1;fill-rule:nonzero;stroke:none"
         d="m 337.977,52.362 c 0,2.125 -0.75,3.234 -2.297,3.234 -1.297,0 -2.235,-0.922 -2.235,-2.25 0,-1.266 0.875,-2.125 2.094,-2.125 0.641,0 1.109,0.234 1.563,0.766 -0.016,-1.657 -0.547,-2.578 -1.516,-2.578 -0.594,0 -1.016,0.375 -1.141,1.015 l -0.843,0 c 0.156,-1.109 0.89,-1.765 1.921,-1.765 1.594,0 2.454,1.343 2.454,3.703 z m -0.922,1 c 0,-0.828 -0.594,-1.391 -1.422,-1.391 -0.813,0 -1.313,0.531 -1.313,1.438 0,0.875 0.563,1.453 1.344,1.453 0.797,0 1.391,-0.61 1.391,-1.5 z" /><path
         id="path158"
         style="fill:#000000;fill-opacity:1;fill-rule:nonzero;stroke:none"
         d="m 385.707,53.612 c 0,1.14 -0.891,1.984 -2.187,1.984 -1.391,0 -2.188,-0.703 -2.235,-2.359 l 0.844,0 c 0.062,1.14 0.531,1.625 1.375,1.625 0.766,0 1.328,-0.547 1.328,-1.282 0,-0.531 -0.312,-0.984 -0.906,-1.343 l -0.891,-0.5 c -1.422,-0.797 -1.828,-1.438 -1.906,-2.938 l 4.531,0 0,0.828 -3.578,0 c 0.078,0.563 0.391,0.922 1.219,1.407 l 0.969,0.515 c 0.937,0.516 1.437,1.219 1.437,2.063 z m 2.266,-4.813 0,1 -1,0 0,-1 1,0 z" /><path
         id="path160"
         style="fill:#000000;fill-opacity:1;fill-rule:nonzero;stroke:none"
         d="m 393.727,51.049 c 0,1.344 -0.891,2.235 -2.204,2.235 -0.468,0 -0.859,-0.125 -1.25,-0.422 l 0.266,1.765 2.828,0 0,0.828 -3.5,0 -0.515,-3.562 0.781,0 c 0.39,0.469 0.719,0.641 1.25,0.641 0.906,0 1.484,-0.594 1.484,-1.594 0,-0.985 -0.578,-1.531 -1.484,-1.531 -0.75,0 -1.203,0.375 -1.391,1.14 l -0.859,0 c 0.281,-1.359 1.047,-1.89 2.265,-1.89 1.375,0 2.329,0.953 2.329,2.39 z" /><path
         id="path162"
         style="fill:#000000;fill-opacity:1;fill-rule:nonzero;stroke:none"
         d="m 399.07,51.08 c 0,0.735 -0.062,1.188 -0.203,1.563 -0.328,0.828 -1.094,1.328 -2.031,1.328 -1.406,0 -2.297,-1.031 -2.297,-2.687 0,-1.657 0.859,-2.625 2.281,-2.625 1.141,0 1.938,0.656 2.141,1.671 l -0.797,0 c -0.219,-0.671 -0.672,-0.937 -1.312,-0.937 -0.844,0 -1.469,0.531 -1.485,1.687 l 3.703,0 z m -0.859,0.719 c 0,0 0,-0.047 0,-0.062 l -2.828,0 c 0.078,0.89 0.64,1.5 1.437,1.5 0.797,0 1.391,-0.657 1.391,-1.438 z" /><path
         id="path164"
         style="fill:#000000;fill-opacity:1;fill-rule:nonzero;stroke:none"
         d="m 404.383,52.362 c 0,2.125 -0.75,3.234 -2.297,3.234 -1.297,0 -2.234,-0.922 -2.234,-2.25 0,-1.266 0.875,-2.125 2.093,-2.125 0.641,0 1.11,0.234 1.563,0.766 -0.016,-1.657 -0.547,-2.578 -1.516,-2.578 -0.594,0 -1.015,0.375 -1.14,1.015 l -0.844,0 c 0.156,-1.109 0.89,-1.765 1.922,-1.765 1.593,0 2.453,1.343 2.453,3.703 z m -0.922,1 c 0,-0.828 -0.594,-1.391 -1.422,-1.391 -0.812,0 -1.312,0.531 -1.312,1.438 0,0.875 0.562,1.453 1.343,1.453 0.797,0 1.391,-0.61 1.391,-1.5 z" /><path
         id="path166"
         style="fill:#000000;fill-opacity:1;fill-rule:nonzero;stroke:none"
         d="m 454.461,50.768 c 0,0.828 -0.344,1.312 -1.156,1.594 0.64,0.25 0.953,0.687 0.953,1.375 0,1.172 -0.781,1.859 -2.078,1.859 -1.375,0 -2.094,-0.75 -2.125,-2.187 l 0.843,0 c 0.016,1 0.438,1.453 1.297,1.453 0.75,0 1.203,-0.438 1.203,-1.157 0,-0.734 -0.328,-1.031 -1.671,-1.031 l 0,-0.703 0.453,0 c 0.937,0 1.406,-0.453 1.406,-1.203 0,-0.859 -0.516,-1.359 -1.406,-1.359 -0.922,0 -1.375,0.453 -1.422,1.437 l -0.844,0 c 0.094,-1.516 0.844,-2.187 2.234,-2.187 1.407,0 2.313,0.828 2.313,2.109 z m 5.406,0.312 c 0,0.735 -0.062,1.188 -0.203,1.563 -0.328,0.828 -1.094,1.328 -2.031,1.328 -1.406,0 -2.297,-1.031 -2.297,-2.687 0,-1.657 0.859,-2.625 2.281,-2.625 1.141,0 1.938,0.656 2.141,1.671 l -0.797,0 c -0.219,-0.671 -0.672,-0.937 -1.313,-0.937 -0.843,0 -1.468,0.531 -1.484,1.687 l 3.703,0 z m -0.859,0.719 c 0,0 0,-0.047 0,-0.062 l -2.828,0 c 0.078,0.89 0.64,1.5 1.437,1.5 0.797,0 1.391,-0.657 1.391,-1.438 z" /><path
         id="path168"
         style="fill:#000000;fill-opacity:1;fill-rule:nonzero;stroke:none"
         d="m 465.18,52.362 c 0,2.125 -0.75,3.234 -2.297,3.234 -1.297,0 -2.235,-0.922 -2.235,-2.25 0,-1.266 0.875,-2.125 2.094,-2.125 0.641,0 1.11,0.234 1.563,0.766 -0.016,-1.657 -0.547,-2.578 -1.516,-2.578 -0.594,0 -1.016,0.375 -1.141,1.015 l -0.843,0 c 0.156,-1.109 0.89,-1.765 1.922,-1.765 1.593,0 2.453,1.343 2.453,3.703 z m -0.922,1 c 0,-0.828 -0.594,-1.391 -1.422,-1.391 -0.813,0 -1.313,0.531 -1.313,1.438 0,0.875 0.563,1.453 1.344,1.453 0.797,0 1.391,-0.61 1.391,-1.5 z" /><path
         id="path170"
         style="fill:#000000;fill-opacity:1;fill-rule:nonzero;stroke:none"
         d="m 57.117,60.698 0,0.703 -2.281,0 0,-0.703 2.281,0 z m 5.41,-0.047 c 0,1.344 -0.89,2.234 -2.203,2.234 -0.469,0 -0.859,-0.125 -1.25,-0.422 l 0.266,1.766 2.828,0 0,0.828 -3.5,0 -0.516,-3.562 0.782,0 c 0.39,0.468 0.718,0.64 1.25,0.64 0.906,0 1.484,-0.594 1.484,-1.594 0,-0.984 -0.578,-1.531 -1.484,-1.531 -0.75,0 -1.204,0.375 -1.391,1.141 l -0.859,0 c 0.281,-1.36 1.046,-1.891 2.265,-1.891 1.375,0 2.328,0.953 2.328,2.391 z" /><path
         id="path172"
         style="fill:#000000;fill-opacity:1;fill-rule:nonzero;stroke:none"
         d="m 67.809,61.666 c 0,2.36 -0.75,3.532 -2.219,3.532 -1.469,0 -2.235,-1.188 -2.235,-3.469 0,-2.297 0.782,-3.469 2.235,-3.469 1.437,0 2.219,1.172 2.219,3.406 z m -0.86,0.079 c 0,-1.922 -0.437,-2.782 -1.375,-2.782 -0.89,0 -1.344,0.891 -1.344,2.75 0,1.875 0.454,2.735 1.36,2.735 0.906,0 1.359,-0.875 1.359,-2.703 z" /><path
         id="path174"
         style="fill:#000000;fill-opacity:1;fill-rule:nonzero;stroke:none"
         d="m 57.117,108.698 0,0.703 -2.281,0 0,-0.703 2.281,0 z m 5.473,-0.672 0,0.765 -1,0 0,4.407 -0.625,0 -3.094,-4.282 0,-0.89 2.875,0 0,-1.625 0.844,0 0,1.625 1,0 z m -1.844,0.765 -2.141,0 2.141,2.969 0,-2.969 z" /><path
         id="path176"
         style="fill:#000000;fill-opacity:1;fill-rule:nonzero;stroke:none"
         d="m 67.809,109.666 c 0,2.36 -0.75,3.532 -2.219,3.532 -1.469,0 -2.235,-1.188 -2.235,-3.469 0,-2.297 0.782,-3.469 2.235,-3.469 1.437,0 2.219,1.172 2.219,3.406 z m -0.86,0.079 c 0,-1.922 -0.437,-2.782 -1.375,-2.782 -0.89,0 -1.344,0.891 -1.344,2.75 0,1.875 0.454,2.735 1.36,2.735 0.906,0 1.359,-0.875 1.359,-2.703 z" /><path
         id="path178"
         style="fill:#000000;fill-opacity:1;fill-rule:nonzero;stroke:none"
         d="m 57.117,155.897 0,0.703 -2.281,0 0,-0.703 2.281,0 z m 5.348,-0.328 c 0,0.828 -0.344,1.312 -1.156,1.594 0.64,0.25 0.953,0.687 0.953,1.375 0,1.171 -0.782,1.859 -2.078,1.859 -1.375,0 -2.094,-0.75 -2.125,-2.188 l 0.843,0 c 0.016,1 0.438,1.454 1.297,1.454 0.75,0 1.203,-0.438 1.203,-1.157 0,-0.734 -0.328,-1.031 -1.672,-1.031 l 0,-0.703 0.454,0 c 0.937,0 1.406,-0.453 1.406,-1.203 0,-0.86 -0.516,-1.36 -1.406,-1.36 -0.922,0 -1.375,0.454 -1.422,1.438 l -0.844,0 c 0.094,-1.516 0.844,-2.188 2.234,-2.188 1.407,0 2.313,0.829 2.313,2.11 z" /><path
         id="path180"
         style="fill:#000000;fill-opacity:1;fill-rule:nonzero;stroke:none"
         d="m 67.809,156.866 c 0,2.359 -0.75,3.531 -2.219,3.531 -1.469,0 -2.235,-1.188 -2.235,-3.469 0,-2.297 0.782,-3.469 2.235,-3.469 1.437,0 2.219,1.172 2.219,3.407 z m -0.86,0.078 c 0,-1.922 -0.437,-2.781 -1.375,-2.781 -0.89,0 -1.344,0.89 -1.344,2.75 0,1.875 0.454,2.734 1.36,2.734 0.906,0 1.359,-0.875 1.359,-2.703 z" /><path
         id="path182"
         style="fill:#000000;fill-opacity:1;fill-rule:nonzero;stroke:none"
         d="m 57.117,203.897 0,0.703 -2.281,0 0,-0.703 2.281,0 z m 5.395,2.516 c 0,1.14 -0.891,1.984 -2.188,1.984 -1.39,0 -2.187,-0.703 -2.234,-2.359 l 0.844,0 c 0.062,1.14 0.531,1.625 1.375,1.625 0.765,0 1.328,-0.547 1.328,-1.282 0,-0.531 -0.313,-0.984 -0.907,-1.343 l -0.89,-0.5 C 58.418,203.741 58.012,203.1 57.934,201.6 l 4.531,0 0,0.828 -3.578,0 c 0.078,0.563 0.39,0.922 1.218,1.406 l 0.969,0.516 c 0.938,0.516 1.438,1.219 1.438,2.063 z" /><path
         id="path184"
         style="fill:#000000;fill-opacity:1;fill-rule:nonzero;stroke:none"
         d="m 67.809,204.866 c 0,2.359 -0.75,3.531 -2.219,3.531 -1.469,0 -2.235,-1.188 -2.235,-3.469 0,-2.297 0.782,-3.469 2.235,-3.469 1.437,0 2.219,1.172 2.219,3.407 z m -0.86,0.078 c 0,-1.922 -0.437,-2.781 -1.375,-2.781 -0.89,0 -1.344,0.89 -1.344,2.75 0,1.875 0.454,2.734 1.36,2.734 0.906,0 1.359,-0.875 1.359,-2.703 z" /><path
         id="path186"
         style="fill:#000000;fill-opacity:1;fill-rule:nonzero;stroke:none"
         d="m 57.117,251.897 0,0.703 -2.281,0 0,-0.703 2.281,0 z m 3.817,-2.297 0,6.797 -0.563,0 c -0.297,-1.047 -0.484,-1.188 -1.781,-1.344 l 0,-0.609 1.5,0 0,-4.844 0.844,0 z" /><path
         id="path188"
         style="fill:#000000;fill-opacity:1;fill-rule:nonzero;stroke:none"
         d="m 67.809,252.866 c 0,2.359 -0.75,3.531 -2.219,3.531 -1.469,0 -2.235,-1.188 -2.235,-3.469 0,-2.297 0.782,-3.469 2.235,-3.469 1.437,0 2.219,1.172 2.219,3.407 z m -0.86,0.078 c 0,-1.922 -0.437,-2.781 -1.375,-2.781 -0.89,0 -1.344,0.89 -1.344,2.75 0,1.875 0.454,2.734 1.36,2.734 0.906,0 1.359,-0.875 1.359,-2.703 z" /><path
         id="path190"
         style="fill:#000000;fill-opacity:1;fill-rule:nonzero;stroke:none"
         d="m 70.461,300.065 c 0,2.359 -0.75,3.531 -2.219,3.531 -1.469,0 -2.234,-1.187 -2.234,-3.469 0,-2.297 0.781,-3.468 2.234,-3.468 1.438,0 2.219,1.171 2.219,3.406 z m -0.859,0.078 c 0,-1.922 -0.438,-2.781 -1.375,-2.781 -0.891,0 -1.344,0.89 -1.344,2.75 0,1.875 0.453,2.734 1.359,2.734 0.906,0 1.36,-0.875 1.36,-2.703 z" /><path
         id="path192"
         style="fill:#000000;fill-opacity:1;fill-rule:nonzero;stroke:none"
         d="m 230.363,36.604 0,0.797 -4.703,0 0,-7 0.891,0 0,3.187 3.344,0 0,0.782 -3.344,0 0,2.234 3.812,0 z m 3.047,-1.875 0,0.812 c -0.14,0.016 -0.203,0.032 -0.312,0.032 -0.516,0 -0.907,-0.313 -1.36,-1.063 l 0,0.922 -0.734,0 0,-5.031 0.797,0 0,2.609 c 0,1.125 0.375,1.703 1.609,1.719 z" /><path
         id="path194"
         style="fill:#000000;fill-opacity:1;fill-rule:nonzero;stroke:none"
         d="m 238.367,32.682 c 0,0.734 -0.062,1.188 -0.203,1.563 -0.328,0.828 -1.094,1.328 -2.031,1.328 -1.406,0 -2.297,-1.032 -2.297,-2.688 0,-1.656 0.859,-2.625 2.281,-2.625 1.141,0 1.938,0.656 2.141,1.672 l -0.797,0 c -0.219,-0.672 -0.672,-0.937 -1.313,-0.937 -0.843,0 -1.468,0.531 -1.484,1.687 l 3.703,0 z m -0.859,0.719 c 0,0 0,-0.047 0,-0.063 l -2.828,0 c 0.078,0.891 0.64,1.5 1.437,1.5 0.797,0 1.391,-0.656 1.391,-1.437 z m 0.344,4 -1.094,0 -0.922,-1.422 0.578,0 1.438,1.422 z" /><path
         id="path196"
         style="fill:#000000;fill-opacity:1;fill-rule:nonzero;stroke:none"
         d="m 243.539,28.307 0,7.125 -0.719,0 0,-0.672 c -0.359,0.531 -0.937,0.813 -1.593,0.813 -1.329,0 -2.188,-1.047 -2.188,-2.719 0,-1.625 0.828,-2.594 2.141,-2.594 0.703,0 1.187,0.25 1.562,0.797 l 0,-2.75 0.797,0 z m -0.797,4.578 c 0,-1.156 -0.562,-1.875 -1.406,-1.875 -0.875,0 -1.469,0.735 -1.469,1.906 0,1.157 0.594,1.907 1.469,1.907 0.859,0 1.406,-0.766 1.406,-1.938 z" /><path
         id="path198"
         style="fill:#000000;fill-opacity:1;fill-rule:nonzero;stroke:none"
         d="m 248.812,30.401 0,5.031 -0.796,0 0,-2.781 c 0,-1.016 -0.532,-1.688 -1.375,-1.688 -0.625,0 -1.032,0.375 -1.032,0.985 l 0,3.484 -0.797,0 0,-3.797 c 0,-0.844 0.626,-1.375 1.594,-1.375 0.75,0 1.219,0.25 1.688,0.922 l 0,-0.781 0.718,0 z" /><path
         id="path200"
         style="fill:#000000;fill-opacity:1;fill-rule:nonzero;stroke:none"
         d="m 254.453,32.682 c 0,0.734 -0.062,1.188 -0.203,1.563 -0.328,0.828 -1.094,1.328 -2.031,1.328 -1.407,0 -2.297,-1.032 -2.297,-2.688 0,-1.656 0.859,-2.625 2.281,-2.625 1.141,0 1.938,0.656 2.141,1.672 l -0.797,0 c -0.219,-0.672 -0.672,-0.937 -1.313,-0.937 -0.843,0 -1.468,0.531 -1.484,1.687 l 3.703,0 z m -0.859,0.719 c 0,0 0,-0.047 0,-0.063 l -2.828,0 c 0.078,0.891 0.64,1.5 1.437,1.5 0.797,0 1.391,-0.656 1.391,-1.437 z" /><path
         id="path202"
         style="fill:#000000;fill-opacity:1;fill-rule:nonzero;stroke:none"
         d="m 259.547,30.401 0,3.797 c 0,0.843 -0.625,1.375 -1.594,1.375 -0.75,0 -1.219,-0.282 -1.672,-0.985 l 0,0.844 -0.734,0 0,-5.031 0.797,0 0,2.765 c 0,1.032 0.562,1.704 1.375,1.704 0.625,0 1.031,-0.375 1.031,-0.985 l 0,-3.484 0.797,0 z" /><path
         id="path204"
         style="fill:#000000;fill-opacity:1;fill-rule:nonzero;stroke:none"
         d="m 264.797,32.135 -0.813,0 c -0.125,-0.812 -0.546,-1.14 -1.218,-1.14 -0.891,0 -1.422,0.687 -1.422,1.875 0,1.25 0.531,1.968 1.39,1.968 0.672,0 1.094,-0.406 1.204,-1.093 l 0.796,0 c -0.093,1.218 -0.859,1.828 -1.984,1.828 -1.344,0 -2.234,-1.032 -2.234,-2.703 0,-1.625 0.859,-2.61 2.218,-2.61 1.204,0 1.969,0.719 2.063,1.875 z" /><path
         id="path206"
         style="fill:#000000;fill-opacity:1;fill-rule:nonzero;stroke:none"
         d="m 269.941,32.682 c 0,0.734 -0.062,1.188 -0.203,1.563 -0.328,0.828 -1.093,1.328 -2.031,1.328 -1.406,0 -2.297,-1.032 -2.297,-2.688 0,-1.656 0.86,-2.625 2.281,-2.625 1.141,0 1.938,0.656 2.141,1.672 l -0.797,0 c -0.219,-0.672 -0.672,-0.937 -1.312,-0.937 -0.844,0 -1.469,0.531 -1.485,1.687 l 3.703,0 z m -0.859,0.719 c 0,0 0,-0.047 0,-0.063 l -2.828,0 c 0.078,0.891 0.641,1.5 1.437,1.5 0.797,0 1.391,-0.656 1.391,-1.437 z" /><path
         id="path208"
         style="fill:#000000;fill-opacity:1;fill-rule:nonzero;stroke:none"
         d="m 275.82,28.37 c -0.843,1.375 -1.312,2.984 -1.312,4.515 0,1.531 0.469,3.141 1.312,4.516 l -0.531,0 c -0.953,-1.266 -1.562,-3.016 -1.562,-4.516 0,-1.515 0.609,-3.265 1.562,-4.515 l 0.531,0 z" /><path
         id="path210"
         style="fill:#000000;fill-opacity:1;fill-rule:nonzero;stroke:none"
         d="m 282.402,30.401 0,7 -0.89,0 0,-3.031 -3.594,0 0,3.031 -0.891,0 0,-7 0.891,0 0,3.187 3.594,0 0,-3.187 0.89,0 z" /><path
         id="path212"
         style="fill:#000000;fill-opacity:1;fill-rule:nonzero;stroke:none"
         d="m 287.559,30.401 0,0.703 -3.125,0 2.984,3.609 0,0.719 -3.75,0 0,-0.703 2.797,0 -3,-3.609 0,-0.719 4.094,0 z" /><path
         id="path214"
         style="fill:#000000;fill-opacity:1;fill-rule:nonzero;stroke:none"
         d="m 290.422,32.87 c 0,1.515 -0.594,3.265 -1.563,4.531 l -0.531,0 c 0.844,-1.375 1.313,-2.985 1.313,-4.531 0,-1.516 -0.469,-3.141 -1.313,-4.5 l 0.531,0 c 0.969,1.25 1.563,3 1.563,4.5 z" /><path
         id="path216"
         style="fill:#0000ff;fill-opacity:1;fill-rule:nonzero;stroke:none"
         d="m 48.801,179.952 -7,0 0,-0.797 2.609,0 c -0.515,-0.344 -0.781,-0.875 -0.781,-1.547 0,-1.297 1.016,-2.156 2.609,-2.156 1.703,0 2.703,0.828 2.703,2.187 0,0.688 -0.25,1.172 -0.875,1.594 l 0.735,0 0,0.719 z m -2.5,-0.797 c 1.172,0 1.89,-0.563 1.89,-1.407 0,-0.875 -0.734,-1.468 -1.906,-1.468 -1.172,0 -1.906,0.593 -1.906,1.468 0,0.86 0.766,1.407 1.922,1.407 z m 0.5,7.375 c -0.844,0 -1.344,-0.391 -1.688,-1.282 -0.297,0.625 -0.828,0.969 -1.531,0.969 -1.016,0 -1.781,-0.75 -1.781,-2.078 l 0,-2.828 7,0 0,3.156 c 0,1.25 -0.844,2.063 -2,2.063 z m -3.094,-1.203 c 0.703,0 1.109,-0.422 1.109,-1.407 l 0,-1.718 -2.218,0 0,1.718 c 0,0.985 0.406,1.407 1.109,1.407 z m 3.109,0.296 c 0.672,0 1.204,-0.406 1.204,-1.25 l 0,-2.171 -2.407,0 0,2.171 c 0,0.844 0.516,1.25 1.203,1.25 z" /><path
         id="path218"
         style="fill:#0000ff;fill-opacity:1;fill-rule:nonzero;stroke:none"
         d="m 46.879,192.909 c -0.859,0 -1.5,-0.532 -1.75,-1.485 l -0.469,-1.75 c -0.219,-0.844 -0.5,-1.156 -1.047,-1.156 -0.703,0 -1.234,0.625 -1.234,1.562 0,1.11 0.516,1.75 1.422,1.75 l 0,0.844 c -1.375,0 -2.172,-0.953 -2.172,-2.562 0,-1.532 0.844,-2.485 2.109,-2.485 0.86,0 1.391,0.453 1.641,1.375 l 0.453,1.735 c 0.234,0.875 0.594,1.281 1.141,1.281 0.765,0 1.218,-0.578 1.218,-1.781 0,-1.328 -0.671,-1.969 -1.671,-1.969 l 0,-0.859 c 1.656,0 2.453,1.125 2.453,2.765 0,1.781 -0.844,2.735 -2.094,2.735 z" /><path
         id="path220"
         style="fill:#0000ff;fill-opacity:1;fill-rule:nonzero;stroke:none"
         d="m 48.801,196.698 -6.797,0 0,-0.563 c 1.047,-0.297 1.187,-0.484 1.344,-1.781 l 0.609,0 0,1.5 4.844,0 0,0.844 z" /><path
         id="path222"
         style="fill:#0000ff;fill-opacity:1;fill-rule:nonzero;stroke:none"
         d="m 48.801,202.041 -6.797,0 0,-0.562 c 1.047,-0.297 1.187,-0.484 1.344,-1.781 l 0.609,0 0,1.5 4.844,0 0,0.843 z" /><path
         id="path224"
         style="fill:#ff0000;fill-opacity:1;fill-rule:nonzero;stroke:none"
         d="m 30.398,179.952 -7,0 0,-0.797 2.61,0 c -0.516,-0.344 -0.781,-0.875 -0.781,-1.547 0,-1.297 1.015,-2.156 2.609,-2.156 1.703,0 2.703,0.828 2.703,2.187 0,0.688 -0.25,1.172 -0.875,1.594 l 0.734,0 0,0.719 z m -2.5,-0.797 c 1.172,0 1.891,-0.563 1.891,-1.407 0,-0.875 -0.734,-1.468 -1.906,-1.468 -1.172,0 -1.906,0.593 -1.906,1.468 0,0.86 0.765,1.407 1.921,1.407 z m 0.5,7.375 c -0.843,0 -1.343,-0.391 -1.687,-1.282 -0.297,0.625 -0.828,0.969 -1.531,0.969 -1.016,0 -1.782,-0.75 -1.782,-2.078 l 0,-2.828 7,0 0,3.156 c 0,1.25 -0.843,2.063 -2,2.063 z m -3.093,-1.203 c 0.703,0 1.109,-0.422 1.109,-1.407 l 0,-1.718 -2.219,0 0,1.718 c 0,0.985 0.407,1.407 1.11,1.407 z m 3.109,0.296 c 0.672,0 1.203,-0.406 1.203,-1.25 l 0,-2.171 -2.406,0 0,2.171 c 0,0.844 0.516,1.25 1.203,1.25 z" /><path
         id="path226"
         style="fill:#ff0000;fill-opacity:1;fill-rule:nonzero;stroke:none"
         d="m 28.477,192.909 c -0.86,0 -1.5,-0.532 -1.75,-1.485 l -0.469,-1.75 c -0.219,-0.844 -0.5,-1.156 -1.047,-1.156 -0.703,0 -1.234,0.625 -1.234,1.562 0,1.11 0.515,1.75 1.421,1.75 l 0,0.844 c -1.375,0 -2.171,-0.953 -2.171,-2.562 0,-1.532 0.843,-2.485 2.109,-2.485 0.859,0 1.391,0.453 1.641,1.375 l 0.453,1.735 c 0.234,0.875 0.593,1.281 1.14,1.281 0.766,0 1.219,-0.578 1.219,-1.781 0,-1.328 -0.672,-1.969 -1.672,-1.969 l 0,-0.859 c 1.656,0 2.453,1.125 2.453,2.765 0,1.781 -0.843,2.735 -2.093,2.735 z" /><path
         id="path228"
         style="fill:#ff0000;fill-opacity:1;fill-rule:nonzero;stroke:none"
         d="m 25.586,198.276 c -1.141,0 -1.984,-0.891 -1.984,-2.188 0,-1.39 0.703,-2.187 2.359,-2.234 l 0,0.844 c -1.141,0.062 -1.625,0.531 -1.625,1.375 0,0.765 0.547,1.328 1.281,1.328 0.531,0 0.985,-0.313 1.344,-0.906 l 0.5,-0.891 c 0.797,-1.422 1.437,-1.828 2.937,-1.906 l 0,4.531 -0.828,0 0,-3.578 c -0.562,0.078 -0.922,0.39 -1.406,1.219 l -0.516,0.968 c -0.515,0.938 -1.218,1.438 -2.062,1.438 z" /><path
         id="path230"
         style="fill:#ff0000;fill-opacity:1;fill-rule:nonzero;stroke:none"
         d="m 30.398,202.041 -6.796,0 0,-0.562 c 1.046,-0.297 1.187,-0.484 1.343,-1.781 l 0.61,0 0,1.5 4.843,0 0,0.843 z" /></g></g></svg>