<?xml version="1.0" encoding="UTF-8" standalone="no"?>
<svg
   xmlns:dc="http://purl.org/dc/elements/1.1/"
   xmlns:cc="http://creativecommons.org/ns#"
   xmlns:rdf="http://www.w3.org/1999/02/22-rdf-syntax-ns#"
   xmlns:svg="http://www.w3.org/2000/svg"
   xmlns="http://www.w3.org/2000/svg"
   viewBox="0 0 593.00122 58.001251"
   height="58.001251"
   width="593.00122"
   xml:space="preserve"
   version="1.1"
   id="svg2"><metadata
     id="metadata8"><rdf:RDF><cc:Work
         rdf:about=""><dc:format>image/svg+xml</dc:format><dc:type
           rdf:resource="http://purl.org/dc/dcmitype/StillImage" /></cc:Work></rdf:RDF></metadata><defs
     id="defs6" /><g
     transform="matrix(1.25,0,0,-1.25,0,58.001251)"
     id="g10"><g
       id="g12"><path
         id="path14"
         style="fill:none;stroke:#000000;stroke-width:0.80000001;stroke-linecap:square;stroke-linejoin:bevel;stroke-miterlimit:4;stroke-dasharray:none;stroke-opacity:1"
         d="m 0.801,45.6 472.801,0" /><path
         id="path16"
         style="fill:none;stroke:#000000;stroke-width:0.80000001;stroke-linecap:square;stroke-linejoin:bevel;stroke-miterlimit:4;stroke-dasharray:none;stroke-opacity:1"
         d="m 0.801,45.6 0,-44.801" /><path
         id="path18"
         style="fill:none;stroke:#000000;stroke-width:0.80000001;stroke-linecap:square;stroke-linejoin:bevel;stroke-miterlimit:4;stroke-dasharray:none;stroke-opacity:1"
         d="m 473.602,45.6 0,-44.801" /><path
         id="path20"
         style="fill:none;stroke:#000000;stroke-width:0.80000001;stroke-linecap:square;stroke-linejoin:bevel;stroke-miterlimit:4;stroke-dasharray:none;stroke-opacity:1"
         d="m 0.801,0.799 472.801,0" /><path
         id="path22"
         style="fill:none;stroke:#000000;stroke-width:1.60000002;stroke-linecap:square;stroke-linejoin:bevel;stroke-miterlimit:4;stroke-dasharray:none;stroke-opacity:1"
         d="m 0.801,23.999 472.801,0" /><path
         id="path24"
         style="fill:none;stroke:#000000;stroke-width:1.60000002;stroke-linecap:square;stroke-linejoin:bevel;stroke-miterlimit:4;stroke-dasharray:none;stroke-opacity:1"
         d="m 57.602,45.6 0,-44.801" /><path
         id="path26"
         style="fill:none;stroke:#000000;stroke-width:0.80000001;stroke-linecap:square;stroke-linejoin:bevel;stroke-miterlimit:4;stroke-dasharray:none;stroke-opacity:1"
         d="m 153.602,45.6 0,-44.801" /><path
         id="path28"
         style="fill:none;stroke:#000000;stroke-width:0.80000001;stroke-linecap:square;stroke-linejoin:bevel;stroke-miterlimit:4;stroke-dasharray:none;stroke-opacity:1"
         d="m 249.602,45.6 0,-44.801" /><path
         id="path30"
         style="fill:none;stroke:#000000;stroke-width:0.80000001;stroke-linecap:square;stroke-linejoin:bevel;stroke-miterlimit:4;stroke-dasharray:none;stroke-opacity:1"
         d="m 345.602,45.6 0,-44.801" /><path
         id="path32"
         style="fill:#000000;fill-opacity:1;fill-rule:nonzero;stroke:none"
         d="m 8.672,32.799 0,3.797 c 0,0.844 -0.625,1.375 -1.594,1.375 -0.75,0 -1.219,-0.281 -1.672,-0.984 l 0,0.844 -0.734,0 0,-5.032 0.797,0 0,2.766 c 0,1.031 0.562,1.703 1.375,1.703 0.625,0 1.031,-0.375 1.031,-0.984 l 0,-3.485 0.797,0 z" /><path
         id="path34"
         style="fill:#000000;fill-opacity:1;fill-rule:nonzero;stroke:none"
         d="m 13.961,32.799 0,5.032 -0.797,0 0,-2.782 c 0,-1.015 -0.531,-1.687 -1.375,-1.687 -0.625,0 -1.031,0.375 -1.031,0.984 l 0,3.485 -0.797,0 0,-3.797 c 0,-0.844 0.625,-1.375 1.594,-1.375 0.75,0 1.218,0.25 1.687,0.922 l 0,-0.782 0.719,0 z" /><path
         id="path36"
         style="fill:#000000;fill-opacity:1;fill-rule:nonzero;stroke:none"
         d="m 21.973,32.799 0,3.766 c 0,0.906 -0.5,1.406 -1.438,1.406 -0.672,0 -1.078,-0.203 -1.547,-0.765 -0.297,0.531 -0.703,0.765 -1.359,0.765 -0.672,0 -1.109,-0.25 -1.547,-0.859 l 0,0.719 -0.719,0 0,-5.032 0.797,0 0,3.157 c 0,0.734 0.516,1.312 1.172,1.312 0.594,0 0.938,-0.359 0.938,-1 l 0,-3.469 0.796,0 0,3.157 c 0,0.734 0.532,1.312 1.188,1.312 0.578,0 0.922,-0.375 0.922,-1 l 0,-3.469 0.797,0 z" /><path
         id="path38"
         style="fill:#000000;fill-opacity:1;fill-rule:nonzero;stroke:none"
         d="m 27.688,35.378 c 0,1.625 -0.829,2.593 -2.141,2.593 -0.703,0 -1.188,-0.265 -1.563,-0.828 l 0,2.656 -0.796,0 0,-7 0.718,0 0,0.719 c 0.391,-0.578 0.891,-0.859 1.594,-0.859 1.328,0 2.188,1.078 2.188,2.719 z m -0.829,-0.063 c 0,-1.141 -0.593,-1.906 -1.468,-1.906 -0.844,0 -1.407,0.765 -1.407,1.906 0,1.172 0.563,1.953 1.407,1.906 0.89,0 1.468,-0.781 1.468,-1.906 z" /><path
         id="path40"
         style="fill:#000000;fill-opacity:1;fill-rule:nonzero;stroke:none"
         d="m 32.961,35.081 c 0,0.734 -0.063,1.187 -0.203,1.562 -0.328,0.828 -1.094,1.328 -2.031,1.328 -1.407,0 -2.297,-1.031 -2.297,-2.687 0,-1.656 0.859,-2.625 2.281,-2.625 1.141,0 1.937,0.656 2.141,1.672 l -0.797,0 c -0.219,-0.672 -0.672,-0.938 -1.313,-0.938 -0.844,0 -1.469,0.531 -1.484,1.688 l 3.703,0 z m -0.859,0.718 c 0,0 0,-0.046 0,-0.062 l -2.829,0 c 0.079,0.891 0.641,1.5 1.438,1.5 0.797,0 1.391,-0.656 1.391,-1.438 z" /><path
         id="path42"
         style="fill:#000000;fill-opacity:1;fill-rule:nonzero;stroke:none"
         d="m 36.453,37.128 0,0.812 c -0.141,0.016 -0.203,0.031 -0.312,0.031 -0.516,0 -0.907,-0.312 -1.36,-1.062 l 0,0.922 -0.734,0 0,-5.032 0.797,0 0,2.61 c 0,1.125 0.375,1.703 1.609,1.719 z" /><path
         id="path44"
         style="fill:#000000;fill-opacity:1;fill-rule:nonzero;stroke:none"
         d="m 10.527,12.003 0,6.796 -0.562,0 C 9.668,17.753 9.48,17.612 8.184,17.456 l 0,-0.61 1.5,0 0,-4.843 0.843,0 z" /><path
         id="path46"
         style="fill:#000000;fill-opacity:1;fill-rule:nonzero;stroke:none"
         d="m 69.109,32.799 0,0.782 -3.453,0 0,6.218 -0.89,0 0,-7 4.343,0 z" /><path
         id="path48"
         style="fill:#000000;fill-opacity:1;fill-rule:nonzero;stroke:none"
         d="m 72.664,32.799 0,6.797 -0.562,0 C 71.805,38.549 71.617,38.409 70.32,38.253 l 0,-0.61 1.5,0 0,-4.844 0.844,0 z" /><path
         id="path50"
         style="fill:#000000;fill-opacity:1;fill-rule:nonzero;stroke:none"
         d="m 79.582,37.612 c 0,1.141 -0.891,1.984 -2.187,1.984 -1.391,0 -2.188,-0.703 -2.235,-2.359 l 0.844,0 c 0.062,1.141 0.531,1.625 1.375,1.625 0.766,0 1.328,-0.547 1.328,-1.281 0,-0.532 -0.312,-0.985 -0.906,-1.344 l -0.891,-0.5 C 75.488,34.94 75.082,34.299 75.004,32.799 l 4.531,0 0,0.829 -3.578,0 c 0.078,0.562 0.391,0.921 1.219,1.406 l 0.969,0.515 c 0.937,0.516 1.437,1.219 1.437,2.063 z" /><path
         id="path52"
         style="fill:#000000;fill-opacity:1;fill-rule:nonzero;stroke:none"
         d="m 84.871,34.768 c 0,0.828 -0.344,1.313 -1.156,1.594 0.64,0.25 0.953,0.687 0.953,1.375 0,1.172 -0.781,1.859 -2.078,1.859 -1.375,0 -2.094,-0.75 -2.125,-2.187 l 0.844,0 c 0.015,1 0.437,1.453 1.296,1.453 0.75,0 1.204,-0.438 1.204,-1.156 0,-0.735 -0.329,-1.032 -1.672,-1.032 l 0,-0.703 0.453,0 c 0.937,0 1.406,-0.453 1.406,-1.203 0,-0.859 -0.516,-1.359 -1.406,-1.359 -0.922,0 -1.375,0.453 -1.422,1.437 l -0.844,0 c 0.094,-1.515 0.844,-2.187 2.235,-2.187 1.406,0 2.312,0.828 2.312,2.109 z" /><path
         id="path54"
         style="fill:#000000;fill-opacity:1;fill-rule:nonzero;stroke:none"
         d="m 68.859,15.268 c 0,2.36 -0.75,3.531 -2.218,3.531 -1.469,0 -2.235,-1.187 -2.235,-3.468 0,-2.297 0.782,-3.469 2.235,-3.469 1.437,0 2.218,1.172 2.218,3.406 z M 68,15.346 c 0,-1.922 -0.438,-2.781 -1.375,-2.781 -0.891,0 -1.344,0.891 -1.344,2.75 0,1.875 0.453,2.734 1.36,2.734 0.906,0 1.359,-0.875 1.359,-2.703 z" /><path
         id="path56"
         style="fill:#000000;fill-opacity:1;fill-rule:nonzero;stroke:none"
         d="m 70.164,13.003 1,0 0,-1 -1,0 0,1 z" /><path
         id="path58"
         style="fill:#000000;fill-opacity:1;fill-rule:nonzero;stroke:none"
         d="m 76.867,15.268 c 0,2.36 -0.75,3.531 -2.219,3.531 -1.468,0 -2.234,-1.187 -2.234,-3.468 0,-2.297 0.781,-3.469 2.234,-3.469 1.438,0 2.219,1.172 2.219,3.406 z m -0.859,0.078 c 0,-1.922 -0.438,-2.781 -1.375,-2.781 -0.891,0 -1.344,0.891 -1.344,2.75 0,1.875 0.453,2.734 1.359,2.734 0.907,0 1.36,-0.875 1.36,-2.703 z" /><path
         id="path60"
         style="fill:#000000;fill-opacity:1;fill-rule:nonzero;stroke:none"
         d="m 82.203,15.268 c 0,2.36 -0.75,3.531 -2.219,3.531 -1.468,0 -2.234,-1.187 -2.234,-3.468 0,-2.297 0.781,-3.469 2.234,-3.469 1.438,0 2.219,1.172 2.219,3.406 z m -0.859,0.078 c 0,-1.922 -0.438,-2.781 -1.375,-2.781 -0.891,0 -1.344,0.891 -1.344,2.75 0,1.875 0.453,2.734 1.359,2.734 0.907,0 1.36,-0.875 1.36,-2.703 z" /><path
         id="path62"
         style="fill:#000000;fill-opacity:1;fill-rule:nonzero;stroke:none"
         d="m 87.57,15.565 c 0,2.125 -0.75,3.234 -2.297,3.234 -1.296,0 -2.234,-0.921 -2.234,-2.25 0,-1.265 0.875,-2.125 2.094,-2.125 0.64,0 1.109,0.235 1.562,0.766 -0.015,-1.656 -0.547,-2.578 -1.515,-2.578 -0.594,0 -1.016,0.375 -1.141,1.016 l -0.844,0 c 0.157,-1.11 0.891,-1.766 1.922,-1.766 1.594,0 2.453,1.344 2.453,3.703 z m -0.922,1 c 0,-0.828 -0.593,-1.391 -1.421,-1.391 -0.813,0 -1.313,0.532 -1.313,1.438 0,0.875 0.563,1.453 1.344,1.453 0.797,0 1.39,-0.609 1.39,-1.5 z" /><path
         id="path64"
         style="fill:#000000;fill-opacity:1;fill-rule:nonzero;stroke:none"
         d="m 91.348,12.003 0,6.796 -0.563,0 c -0.297,-1.046 -0.484,-1.187 -1.781,-1.343 l 0,-0.61 1.5,0 0,-4.843 0.844,0 z" /><path
         id="path66"
         style="fill:#000000;fill-opacity:1;fill-rule:nonzero;stroke:none"
         d="m 98.371,13.628 0,0.765 -1,0 0,4.406 -0.625,0 -3.094,-4.281 0,-0.89 2.875,0 0,-1.625 0.844,0 0,1.625 1,0 z m -1.844,0.765 -2.14,0 2.14,2.969 0,-2.969 z" /><path
         id="path68"
         style="fill:#000000;fill-opacity:1;fill-rule:nonzero;stroke:none"
         d="m 103.629,16.815 c 0,1.141 -0.891,1.984 -2.188,1.984 -1.39,0 -2.187,-0.703 -2.234,-2.359 l 0.844,0 c 0.062,1.141 0.531,1.625 1.375,1.625 0.765,0 1.328,-0.547 1.328,-1.281 0,-0.531 -0.313,-0.985 -0.906,-1.344 l -0.891,-0.5 c -1.422,-0.797 -1.828,-1.437 -1.906,-2.937 l 4.531,0 0,0.828 -3.578,0 c 0.078,0.562 0.391,0.922 1.219,1.406 l 0.968,0.516 c 0.938,0.515 1.438,1.218 1.438,2.062 z" /><path
         id="path70"
         style="fill:#000000;fill-opacity:1;fill-rule:nonzero;stroke:none"
         d="m 108.984,14.253 c 0,1.343 -0.89,2.234 -2.203,2.234 -0.469,0 -0.859,-0.125 -1.25,-0.422 l 0.266,1.766 2.828,0 0,0.828 -3.5,0 -0.516,-3.563 0.782,0 c 0.39,0.469 0.718,0.641 1.25,0.641 0.906,0 1.484,-0.594 1.484,-1.594 0,-0.984 -0.578,-1.531 -1.484,-1.531 -0.75,0 -1.203,0.375 -1.391,1.141 l -0.859,0 c 0.281,-1.36 1.047,-1.891 2.265,-1.891 1.375,0 2.328,0.953 2.328,2.391 z" /><path
         id="path72"
         style="fill:#000000;fill-opacity:1;fill-rule:nonzero;stroke:none"
         d="m 112.727,12.003 0,6.796 -0.563,0 c -0.297,-1.046 -0.484,-1.187 -1.781,-1.343 l 0,-0.61 1.5,0 0,-4.843 0.844,0 z" /><path
         id="path74"
         style="fill:#000000;fill-opacity:1;fill-rule:nonzero;stroke:none"
         d="m 119.75,17.956 0,0.703 -4.547,0 0,-0.828 3.672,0 c -1.344,-1.719 -2.313,-3.703 -2.781,-5.828 l 0.89,0 c 0.375,2.203 1.344,4.25 2.766,5.953 z" /><path
         id="path76"
         style="fill:#000000;fill-opacity:1;fill-rule:nonzero;stroke:none"
         d="m 125.023,13.924 c 0,0.75 -0.39,1.282 -1.171,1.657 0.703,0.422 0.937,0.765 0.937,1.406 0,1.062 -0.844,1.812 -2.047,1.812 -1.203,0 -2.047,-0.75 -2.047,-1.812 0,-0.625 0.235,-0.969 0.922,-1.406 -0.781,-0.375 -1.156,-0.907 -1.156,-1.657 0,-1.234 0.937,-2.062 2.281,-2.062 1.344,0 2.281,0.828 2.281,2.062 z m -1.109,3.047 c 0,-0.625 -0.469,-1.047 -1.172,-1.047 -0.719,0 -1.187,0.422 -1.187,1.063 0,0.641 0.468,1.062 1.187,1.062 0.719,0 1.172,-0.421 1.172,-1.078 z m 0.25,-3.062 c 0,-0.797 -0.578,-1.297 -1.437,-1.297 -0.829,0 -1.407,0.5 -1.407,1.297 0,0.797 0.578,1.297 1.422,1.297 0.844,0 1.422,-0.5 1.422,-1.297 z" /><path
         id="path78"
         style="fill:#000000;fill-opacity:1;fill-rule:nonzero;stroke:none"
         d="m 165.109,32.799 0,0.782 -3.453,0 0,6.218 -0.89,0 0,-7 4.343,0 z" /><path
         id="path80"
         style="fill:#000000;fill-opacity:1;fill-rule:nonzero;stroke:none"
         d="m 168.664,32.799 0,6.797 -0.562,0 c -0.297,-1.047 -0.485,-1.187 -1.782,-1.343 l 0,-0.61 1.5,0 0,-4.844 0.844,0 z" /><path
         id="path82"
         style="fill:#000000;fill-opacity:1;fill-rule:nonzero;stroke:none"
         d="m 175.66,38.753 0,0.703 -4.547,0 0,-0.828 3.672,0 c -1.344,-1.719 -2.312,-3.704 -2.781,-5.829 l 0.891,0 c 0.375,2.204 1.343,4.25 2.765,5.954 z" /><path
         id="path84"
         style="fill:#000000;fill-opacity:1;fill-rule:nonzero;stroke:none"
         d="m 180.871,36.065 c 0,2.359 -0.75,3.531 -2.219,3.531 -1.468,0 -2.234,-1.187 -2.234,-3.468 0,-2.297 0.781,-3.469 2.234,-3.469 1.438,0 2.219,1.172 2.219,3.406 z m -0.859,0.078 c 0,-1.922 -0.438,-2.781 -1.375,-2.781 -0.891,0 -1.344,0.891 -1.344,2.75 0,1.875 0.453,2.734 1.359,2.734 0.907,0 1.36,-0.875 1.36,-2.703 z" /><path
         id="path86"
         style="fill:#000000;fill-opacity:1;fill-rule:nonzero;stroke:none"
         d="m 164.859,15.268 c 0,2.36 -0.75,3.531 -2.218,3.531 -1.469,0 -2.235,-1.187 -2.235,-3.468 0,-2.297 0.782,-3.469 2.235,-3.469 1.437,0 2.218,1.172 2.218,3.406 z M 164,15.346 c 0,-1.922 -0.438,-2.781 -1.375,-2.781 -0.891,0 -1.344,0.891 -1.344,2.75 0,1.875 0.453,2.734 1.36,2.734 0.906,0 1.359,-0.875 1.359,-2.703 z" /><path
         id="path88"
         style="fill:#000000;fill-opacity:1;fill-rule:nonzero;stroke:none"
         d="m 166.164,13.003 1,0 0,-1 -1,0 0,1 z" /><path
         id="path90"
         style="fill:#000000;fill-opacity:1;fill-rule:nonzero;stroke:none"
         d="m 172.867,15.268 c 0,2.36 -0.75,3.531 -2.219,3.531 -1.468,0 -2.234,-1.187 -2.234,-3.468 0,-2.297 0.781,-3.469 2.234,-3.469 1.438,0 2.219,1.172 2.219,3.406 z m -0.859,0.078 c 0,-1.922 -0.438,-2.781 -1.375,-2.781 -0.891,0 -1.344,0.891 -1.344,2.75 0,1.875 0.453,2.734 1.359,2.734 0.907,0 1.36,-0.875 1.36,-2.703 z" /><path
         id="path92"
         style="fill:#000000;fill-opacity:1;fill-rule:nonzero;stroke:none"
         d="m 178.203,15.268 c 0,2.36 -0.75,3.531 -2.219,3.531 -1.468,0 -2.234,-1.187 -2.234,-3.468 0,-2.297 0.781,-3.469 2.234,-3.469 1.438,0 2.219,1.172 2.219,3.406 z m -0.859,0.078 c 0,-1.922 -0.438,-2.781 -1.375,-2.781 -0.891,0 -1.344,0.891 -1.344,2.75 0,1.875 0.453,2.734 1.359,2.734 0.907,0 1.36,-0.875 1.36,-2.703 z" /><path
         id="path94"
         style="fill:#000000;fill-opacity:1;fill-rule:nonzero;stroke:none"
         d="m 183.664,13.628 0,0.765 -1,0 0,4.406 -0.625,0 -3.094,-4.281 0,-0.89 2.875,0 0,-1.625 0.844,0 0,1.625 1,0 z m -1.844,0.765 -2.14,0 2.14,2.969 0,-2.969 z" /><path
         id="path96"
         style="fill:#000000;fill-opacity:1;fill-rule:nonzero;stroke:none"
         d="m 187.348,12.003 0,6.796 -0.563,0 c -0.297,-1.046 -0.484,-1.187 -1.781,-1.343 l 0,-0.61 1.5,0 0,-4.843 0.844,0 z" /><path
         id="path98"
         style="fill:#000000;fill-opacity:1;fill-rule:nonzero;stroke:none"
         d="m 194.246,13.971 c 0,0.828 -0.344,1.313 -1.156,1.594 0.64,0.25 0.953,0.688 0.953,1.375 0,1.172 -0.781,1.859 -2.078,1.859 -1.375,0 -2.094,-0.75 -2.125,-2.187 l 0.844,0 c 0.015,1 0.437,1.453 1.296,1.453 0.75,0 1.204,-0.437 1.204,-1.156 0,-0.735 -0.329,-1.031 -1.672,-1.031 l 0,-0.704 0.453,0 c 0.937,0 1.406,-0.453 1.406,-1.203 0,-0.859 -0.516,-1.359 -1.406,-1.359 -0.922,0 -1.375,0.453 -1.422,1.437 l -0.844,0 c 0.094,-1.515 0.844,-2.187 2.235,-2.187 1.406,0 2.312,0.828 2.312,2.109 z" /><path
         id="path100"
         style="fill:#000000;fill-opacity:1;fill-rule:nonzero;stroke:none"
         d="m 198.051,12.003 0,6.796 -0.563,0 c -0.297,-1.046 -0.484,-1.187 -1.781,-1.343 l 0,-0.61 1.5,0 0,-4.843 0.844,0 z" /><path
         id="path102"
         style="fill:#000000;fill-opacity:1;fill-rule:nonzero;stroke:none"
         d="m 204.953,15.565 c 0,2.125 -0.75,3.234 -2.297,3.234 -1.297,0 -2.234,-0.921 -2.234,-2.25 0,-1.265 0.875,-2.125 2.094,-2.125 0.64,0 1.109,0.235 1.562,0.766 -0.016,-1.656 -0.547,-2.578 -1.516,-2.578 -0.593,0 -1.015,0.375 -1.14,1.016 l -0.844,0 c 0.156,-1.11 0.891,-1.766 1.922,-1.766 1.594,0 2.453,1.344 2.453,3.703 z m -0.922,1 c 0,-0.828 -0.593,-1.391 -1.422,-1.391 -0.812,0 -1.312,0.532 -1.312,1.438 0,0.875 0.562,1.453 1.344,1.453 0.797,0 1.39,-0.609 1.39,-1.5 z" /><path
         id="path104"
         style="fill:#000000;fill-opacity:1;fill-rule:nonzero;stroke:none"
         d="m 210.32,14.253 c 0,1.343 -0.89,2.234 -2.203,2.234 -0.469,0 -0.859,-0.125 -1.25,-0.422 l 0.266,1.766 2.828,0 0,0.828 -3.5,0 -0.516,-3.563 0.782,0 c 0.39,0.469 0.718,0.641 1.25,0.641 0.906,0 1.484,-0.594 1.484,-1.594 0,-0.984 -0.578,-1.531 -1.484,-1.531 -0.75,0 -1.204,0.375 -1.391,1.141 l -0.859,0 c 0.281,-1.36 1.046,-1.891 2.265,-1.891 1.375,0 2.328,0.953 2.328,2.391 z" /><path
         id="path106"
         style="fill:#000000;fill-opacity:1;fill-rule:nonzero;stroke:none"
         d="m 215.688,13.924 c 0,0.75 -0.391,1.282 -1.172,1.657 0.703,0.422 0.937,0.765 0.937,1.406 0,1.062 -0.844,1.812 -2.047,1.812 -1.203,0 -2.047,-0.75 -2.047,-1.812 0,-0.625 0.235,-0.969 0.922,-1.406 -0.781,-0.375 -1.156,-0.907 -1.156,-1.657 0,-1.234 0.937,-2.062 2.281,-2.062 1.344,0 2.282,0.828 2.282,2.062 z m -1.11,3.047 c 0,-0.625 -0.469,-1.047 -1.172,-1.047 -0.718,0 -1.187,0.422 -1.187,1.063 0,0.641 0.469,1.062 1.187,1.062 0.719,0 1.172,-0.421 1.172,-1.078 z m 0.25,-3.062 c 0,-0.797 -0.578,-1.297 -1.437,-1.297 -0.829,0 -1.407,0.5 -1.407,1.297 0,0.797 0.578,1.297 1.422,1.297 0.844,0 1.422,-0.5 1.422,-1.297 z" /><path
         id="path108"
         style="fill:#000000;fill-opacity:1;fill-rule:nonzero;stroke:none"
         d="m 220.961,13.971 c 0,0.828 -0.344,1.313 -1.156,1.594 0.64,0.25 0.953,0.688 0.953,1.375 0,1.172 -0.781,1.859 -2.078,1.859 -1.375,0 -2.094,-0.75 -2.125,-2.187 l 0.843,0 c 0.016,1 0.438,1.453 1.297,1.453 0.75,0 1.203,-0.437 1.203,-1.156 0,-0.735 -0.328,-1.031 -1.671,-1.031 l 0,-0.704 0.453,0 c 0.937,0 1.406,-0.453 1.406,-1.203 0,-0.859 -0.516,-1.359 -1.406,-1.359 -0.922,0 -1.375,0.453 -1.422,1.437 l -0.844,0 c 0.094,-1.515 0.844,-2.187 2.234,-2.187 1.407,0 2.313,0.828 2.313,2.109 z" /><path
         id="path110"
         style="fill:#000000;fill-opacity:1;fill-rule:nonzero;stroke:none"
         d="m 261.109,32.799 0,0.782 -3.453,0 0,6.218 -0.89,0 0,-7 4.343,0 z" /><path
         id="path112"
         style="fill:#000000;fill-opacity:1;fill-rule:nonzero;stroke:none"
         d="m 266.242,37.612 c 0,1.141 -0.89,1.984 -2.187,1.984 -1.391,0 -2.188,-0.703 -2.235,-2.359 l 0.844,0 c 0.063,1.141 0.531,1.625 1.375,1.625 0.766,0 1.328,-0.547 1.328,-1.281 0,-0.532 -0.312,-0.985 -0.906,-1.344 l -0.891,-0.5 c -1.422,-0.797 -1.828,-1.438 -1.906,-2.938 l 4.531,0 0,0.829 -3.578,0 c 0.078,0.562 0.391,0.921 1.219,1.406 l 0.969,0.515 c 0.937,0.516 1.437,1.219 1.437,2.063 z" /><path
         id="path114"
         style="fill:#000000;fill-opacity:1;fill-rule:nonzero;stroke:none"
         d="m 271.598,35.049 c 0,1.344 -0.891,2.235 -2.203,2.235 -0.469,0 -0.86,-0.125 -1.25,-0.422 l 0.265,1.766 2.828,0 0,0.828 -3.5,0 -0.515,-3.563 0.781,0 c 0.391,0.469 0.719,0.641 1.25,0.641 0.906,0 1.484,-0.594 1.484,-1.594 0,-0.984 -0.578,-1.531 -1.484,-1.531 -0.75,0 -1.203,0.375 -1.391,1.14 l -0.859,0 c 0.281,-1.359 1.047,-1.89 2.266,-1.89 1.375,0 2.328,0.953 2.328,2.39 z" /><path
         id="path116"
         style="fill:#000000;fill-opacity:1;fill-rule:nonzero;stroke:none"
         d="m 276.996,34.424 0,0.766 -1,0 0,4.406 -0.625,0 -3.094,-4.281 0,-0.891 2.875,0 0,-1.625 0.844,0 0,1.625 1,0 z m -1.844,0.766 -2.14,0 2.14,2.969 0,-2.969 z" /><path
         id="path118"
         style="fill:#000000;fill-opacity:1;fill-rule:nonzero;stroke:none"
         d="m 260.859,15.268 c 0,2.36 -0.75,3.531 -2.218,3.531 -1.469,0 -2.235,-1.187 -2.235,-3.468 0,-2.297 0.782,-3.469 2.235,-3.469 1.437,0 2.218,1.172 2.218,3.406 z M 260,15.346 c 0,-1.922 -0.438,-2.781 -1.375,-2.781 -0.891,0 -1.344,0.891 -1.344,2.75 0,1.875 0.453,2.734 1.36,2.734 0.906,0 1.359,-0.875 1.359,-2.703 z" /><path
         id="path120"
         style="fill:#000000;fill-opacity:1;fill-rule:nonzero;stroke:none"
         d="m 262.164,13.003 1,0 0,-1 -1,0 0,1 z" /><path
         id="path122"
         style="fill:#000000;fill-opacity:1;fill-rule:nonzero;stroke:none"
         d="m 268.867,15.268 c 0,2.36 -0.75,3.531 -2.219,3.531 -1.468,0 -2.234,-1.187 -2.234,-3.468 0,-2.297 0.781,-3.469 2.234,-3.469 1.438,0 2.219,1.172 2.219,3.406 z m -0.859,0.078 c 0,-1.922 -0.438,-2.781 -1.375,-2.781 -0.891,0 -1.344,0.891 -1.344,2.75 0,1.875 0.453,2.734 1.359,2.734 0.907,0 1.36,-0.875 1.36,-2.703 z" /><path
         id="path124"
         style="fill:#000000;fill-opacity:1;fill-rule:nonzero;stroke:none"
         d="m 274.203,15.268 c 0,2.36 -0.75,3.531 -2.219,3.531 -1.468,0 -2.234,-1.187 -2.234,-3.468 0,-2.297 0.781,-3.469 2.234,-3.469 1.438,0 2.219,1.172 2.219,3.406 z m -0.859,0.078 c 0,-1.922 -0.438,-2.781 -1.375,-2.781 -0.891,0 -1.344,0.891 -1.344,2.75 0,1.875 0.453,2.734 1.359,2.734 0.907,0 1.36,-0.875 1.36,-2.703 z" /><path
         id="path126"
         style="fill:#000000;fill-opacity:1;fill-rule:nonzero;stroke:none"
         d="m 279.602,14.253 c 0,1.343 -0.891,2.234 -2.204,2.234 -0.468,0 -0.859,-0.125 -1.25,-0.422 l 0.266,1.766 2.828,0 0,0.828 -3.5,0 -0.515,-3.563 0.781,0 c 0.39,0.469 0.719,0.641 1.25,0.641 0.906,0 1.484,-0.594 1.484,-1.594 0,-0.984 -0.578,-1.531 -1.484,-1.531 -0.75,0 -1.203,0.375 -1.391,1.141 l -0.859,0 c 0.281,-1.36 1.047,-1.891 2.265,-1.891 1.375,0 2.329,0.953 2.329,2.391 z" /><path
         id="path128"
         style="fill:#000000;fill-opacity:1;fill-rule:nonzero;stroke:none"
         d="m 284.941,13.924 c 0,0.75 -0.39,1.282 -1.171,1.657 0.703,0.422 0.937,0.765 0.937,1.406 0,1.062 -0.844,1.812 -2.047,1.812 -1.203,0 -2.047,-0.75 -2.047,-1.812 0,-0.625 0.235,-0.969 0.922,-1.406 -0.781,-0.375 -1.156,-0.907 -1.156,-1.657 0,-1.234 0.937,-2.062 2.281,-2.062 1.344,0 2.281,0.828 2.281,2.062 z m -1.109,3.047 c 0,-0.625 -0.469,-1.047 -1.172,-1.047 -0.719,0 -1.187,0.422 -1.187,1.063 0,0.641 0.468,1.062 1.187,1.062 0.719,0 1.172,-0.421 1.172,-1.078 z m 0.25,-3.062 c 0,-0.797 -0.578,-1.297 -1.437,-1.297 -0.829,0 -1.407,0.5 -1.407,1.297 0,0.797 0.578,1.297 1.422,1.297 0.844,0 1.422,-0.5 1.422,-1.297 z" /><path
         id="path130"
         style="fill:#000000;fill-opacity:1;fill-rule:nonzero;stroke:none"
         d="m 290.371,13.628 0,0.765 -1,0 0,4.406 -0.625,0 -3.094,-4.281 0,-0.89 2.875,0 0,-1.625 0.844,0 0,1.625 1,0 z m -1.844,0.765 -2.14,0 2.14,2.969 0,-2.969 z" /><path
         id="path132"
         style="fill:#000000;fill-opacity:1;fill-rule:nonzero;stroke:none"
         d="m 295.582,15.268 c 0,2.36 -0.75,3.531 -2.219,3.531 -1.468,0 -2.234,-1.187 -2.234,-3.468 0,-2.297 0.781,-3.469 2.234,-3.469 1.438,0 2.219,1.172 2.219,3.406 z m -0.859,0.078 c 0,-1.922 -0.438,-2.781 -1.375,-2.781 -0.891,0 -1.344,0.891 -1.344,2.75 0,1.875 0.453,2.734 1.359,2.734 0.907,0 1.36,-0.875 1.36,-2.703 z" /><path
         id="path134"
         style="fill:#000000;fill-opacity:1;fill-rule:nonzero;stroke:none"
         d="m 300.969,16.815 c 0,1.141 -0.891,1.984 -2.188,1.984 -1.39,0 -2.187,-0.703 -2.234,-2.359 l 0.844,0 c 0.062,1.141 0.531,1.625 1.375,1.625 0.765,0 1.328,-0.547 1.328,-1.281 0,-0.531 -0.313,-0.985 -0.906,-1.344 l -0.891,-0.5 c -1.422,-0.797 -1.828,-1.437 -1.906,-2.937 l 4.531,0 0,0.828 -3.578,0 c 0.078,0.562 0.39,0.922 1.218,1.406 l 0.969,0.516 c 0.938,0.515 1.438,1.218 1.438,2.062 z" /><path
         id="path136"
         style="fill:#000000;fill-opacity:1;fill-rule:nonzero;stroke:none"
         d="m 304.727,12.003 0,6.796 -0.563,0 c -0.297,-1.046 -0.484,-1.187 -1.781,-1.343 l 0,-0.61 1.5,0 0,-4.843 0.844,0 z" /><path
         id="path138"
         style="fill:#000000;fill-opacity:1;fill-rule:nonzero;stroke:none"
         d="m 311.672,16.815 c 0,1.141 -0.891,1.984 -2.188,1.984 -1.39,0 -2.187,-0.703 -2.234,-2.359 l 0.844,0 c 0.062,1.141 0.531,1.625 1.375,1.625 0.765,0 1.328,-0.547 1.328,-1.281 0,-0.531 -0.313,-0.985 -0.906,-1.344 L 309,14.94 c -1.422,-0.797 -1.828,-1.437 -1.906,-2.937 l 4.531,0 0,0.828 -3.578,0 c 0.078,0.562 0.391,0.922 1.219,1.406 l 0.968,0.516 c 0.938,0.515 1.438,1.218 1.438,2.062 z" /><path
         id="path140"
         style="fill:#000000;fill-opacity:1;fill-rule:nonzero;stroke:none"
         d="m 316.961,13.971 c 0,0.828 -0.344,1.313 -1.156,1.594 0.64,0.25 0.953,0.688 0.953,1.375 0,1.172 -0.781,1.859 -2.078,1.859 -1.375,0 -2.094,-0.75 -2.125,-2.187 l 0.843,0 c 0.016,1 0.438,1.453 1.297,1.453 0.75,0 1.203,-0.437 1.203,-1.156 0,-0.735 -0.328,-1.031 -1.671,-1.031 l 0,-0.704 0.453,0 c 0.937,0 1.406,-0.453 1.406,-1.203 0,-0.859 -0.516,-1.359 -1.406,-1.359 -0.922,0 -1.375,0.453 -1.422,1.437 l -0.844,0 c 0.094,-1.515 0.844,-2.187 2.234,-2.187 1.407,0 2.313,0.828 2.313,2.109 z" /><path
         id="path142"
         style="fill:#000000;fill-opacity:1;fill-rule:nonzero;stroke:none"
         d="m 357.109,32.799 0,0.782 -3.453,0 0,6.218 -0.89,0 0,-7 4.343,0 z" /><path
         id="path144"
         style="fill:#000000;fill-opacity:1;fill-rule:nonzero;stroke:none"
         d="m 362.258,35.049 c 0,1.344 -0.891,2.235 -2.203,2.235 -0.469,0 -0.86,-0.125 -1.25,-0.422 l 0.265,1.766 2.828,0 0,0.828 -3.5,0 -0.515,-3.563 0.781,0 c 0.391,0.469 0.719,0.641 1.25,0.641 0.906,0 1.484,-0.594 1.484,-1.594 0,-0.984 -0.578,-1.531 -1.484,-1.531 -0.75,0 -1.203,0.375 -1.391,1.14 l -0.859,0 c 0.281,-1.359 1.047,-1.89 2.266,-1.89 1.375,0 2.328,0.953 2.328,2.39 z" /><path
         id="path146"
         style="fill:#000000;fill-opacity:1;fill-rule:nonzero;stroke:none"
         d="m 367.535,36.065 c 0,2.359 -0.75,3.531 -2.219,3.531 -1.468,0 -2.234,-1.187 -2.234,-3.468 0,-2.297 0.781,-3.469 2.234,-3.469 1.438,0 2.219,1.172 2.219,3.406 z m -0.859,0.078 c 0,-1.922 -0.438,-2.781 -1.375,-2.781 -0.891,0 -1.344,0.891 -1.344,2.75 0,1.875 0.453,2.734 1.359,2.734 0.907,0 1.36,-0.875 1.36,-2.703 z" /><path
         id="path148"
         style="fill:#000000;fill-opacity:1;fill-rule:nonzero;stroke:none"
         d="m 356.859,15.268 c 0,2.36 -0.75,3.531 -2.218,3.531 -1.469,0 -2.235,-1.187 -2.235,-3.468 0,-2.297 0.782,-3.469 2.235,-3.469 1.437,0 2.218,1.172 2.218,3.406 z M 356,15.346 c 0,-1.922 -0.438,-2.781 -1.375,-2.781 -0.891,0 -1.344,0.891 -1.344,2.75 0,1.875 0.453,2.734 1.36,2.734 0.906,0 1.359,-0.875 1.359,-2.703 z" /><path
         id="path150"
         style="fill:#000000;fill-opacity:1;fill-rule:nonzero;stroke:none"
         d="m 358.164,13.003 1,0 0,-1 -1,0 0,1 z" /><path
         id="path152"
         style="fill:#000000;fill-opacity:1;fill-rule:nonzero;stroke:none"
         d="m 364.867,15.268 c 0,2.36 -0.75,3.531 -2.219,3.531 -1.468,0 -2.234,-1.187 -2.234,-3.468 0,-2.297 0.781,-3.469 2.234,-3.469 1.438,0 2.219,1.172 2.219,3.406 z m -0.859,0.078 c 0,-1.922 -0.438,-2.781 -1.375,-2.781 -0.891,0 -1.344,0.891 -1.344,2.75 0,1.875 0.453,2.734 1.359,2.734 0.907,0 1.36,-0.875 1.36,-2.703 z" /><path
         id="path154"
         style="fill:#000000;fill-opacity:1;fill-rule:nonzero;stroke:none"
         d="m 370.25,16.815 c 0,1.141 -0.891,1.984 -2.188,1.984 -1.39,0 -2.187,-0.703 -2.234,-2.359 l 0.844,0 c 0.062,1.141 0.531,1.625 1.375,1.625 0.765,0 1.328,-0.547 1.328,-1.281 0,-0.531 -0.313,-0.985 -0.906,-1.344 l -0.891,-0.5 c -1.422,-0.797 -1.828,-1.437 -1.906,-2.937 l 4.531,0 0,0.828 -3.578,0 c 0.078,0.562 0.391,0.922 1.219,1.406 l 0.968,0.516 c 0.938,0.515 1.438,1.218 1.438,2.062 z" /><path
         id="path156"
         style="fill:#000000;fill-opacity:1;fill-rule:nonzero;stroke:none"
         d="m 374.008,12.003 0,6.796 -0.563,0 c -0.297,-1.046 -0.484,-1.187 -1.781,-1.343 l 0,-0.61 1.5,0 0,-4.843 0.844,0 z" /><path
         id="path158"
         style="fill:#000000;fill-opacity:1;fill-rule:nonzero;stroke:none"
         d="m 379.348,12.003 0,6.796 -0.563,0 c -0.297,-1.046 -0.484,-1.187 -1.781,-1.343 l 0,-0.61 1.5,0 0,-4.843 0.844,0 z" /><path
         id="path160"
         style="fill:#000000;fill-opacity:1;fill-rule:nonzero;stroke:none"
         d="m 386.309,14.112 c 0,1.266 -0.86,2.125 -2.079,2.125 -0.671,0 -1.203,-0.266 -1.562,-0.766 0,1.657 0.547,2.578 1.516,2.578 0.593,0 1,-0.375 1.14,-1.015 l 0.844,0 c -0.172,1.109 -0.891,1.765 -1.938,1.765 -1.578,0 -2.437,-1.328 -2.437,-3.703 0,-2.109 0.734,-3.234 2.297,-3.234 1.281,0 2.219,0.922 2.219,2.25 z m -0.86,-0.063 c 0,-0.859 -0.578,-1.437 -1.359,-1.437 -0.781,0 -1.375,0.609 -1.375,1.484 0,0.844 0.578,1.391 1.406,1.391 0.813,0 1.328,-0.531 1.328,-1.438 z" /><path
         id="path162"
         style="fill:#000000;fill-opacity:1;fill-rule:nonzero;stroke:none"
         d="m 391.707,17.956 0,0.703 -4.547,0 0,-0.828 3.672,0 c -1.344,-1.719 -2.312,-3.703 -2.781,-5.828 l 0.89,0 c 0.375,2.203 1.344,4.25 2.766,5.953 z" /><path
         id="path164"
         style="fill:#000000;fill-opacity:1;fill-rule:nonzero;stroke:none"
         d="m 396.953,15.565 c 0,2.125 -0.75,3.234 -2.297,3.234 -1.297,0 -2.234,-0.921 -2.234,-2.25 0,-1.265 0.875,-2.125 2.094,-2.125 0.64,0 1.109,0.235 1.562,0.766 -0.016,-1.656 -0.547,-2.578 -1.516,-2.578 -0.593,0 -1.015,0.375 -1.14,1.016 l -0.844,0 c 0.156,-1.11 0.891,-1.766 1.922,-1.766 1.594,0 2.453,1.344 2.453,3.703 z m -0.922,1 c 0,-0.828 -0.593,-1.391 -1.422,-1.391 -0.812,0 -1.312,0.532 -1.312,1.438 0,0.875 0.562,1.453 1.344,1.453 0.797,0 1.39,-0.609 1.39,-1.5 z" /><path
         id="path166"
         style="fill:#000000;fill-opacity:1;fill-rule:nonzero;stroke:none"
         d="m 402.32,14.253 c 0,1.343 -0.89,2.234 -2.203,2.234 -0.469,0 -0.859,-0.125 -1.25,-0.422 l 0.266,1.766 2.828,0 0,0.828 -3.5,0 -0.516,-3.563 0.782,0 c 0.39,0.469 0.718,0.641 1.25,0.641 0.906,0 1.484,-0.594 1.484,-1.594 0,-0.984 -0.578,-1.531 -1.484,-1.531 -0.75,0 -1.204,0.375 -1.391,1.141 l -0.859,0 c 0.281,-1.36 1.046,-1.891 2.265,-1.891 1.375,0 2.328,0.953 2.328,2.391 z" /><path
         id="path168"
         style="fill:#000000;fill-opacity:1;fill-rule:nonzero;stroke:none"
         d="m 407.688,13.924 c 0,0.75 -0.391,1.282 -1.172,1.657 0.703,0.422 0.937,0.765 0.937,1.406 0,1.062 -0.844,1.812 -2.047,1.812 -1.203,0 -2.047,-0.75 -2.047,-1.812 0,-0.625 0.235,-0.969 0.922,-1.406 -0.781,-0.375 -1.156,-0.907 -1.156,-1.657 0,-1.234 0.937,-2.062 2.281,-2.062 1.344,0 2.282,0.828 2.282,2.062 z m -1.11,3.047 c 0,-0.625 -0.469,-1.047 -1.172,-1.047 -0.718,0 -1.187,0.422 -1.187,1.063 0,0.641 0.469,1.062 1.187,1.062 0.719,0 1.172,-0.421 1.172,-1.078 z m 0.25,-3.062 c 0,-0.797 -0.578,-1.297 -1.437,-1.297 -0.829,0 -1.407,0.5 -1.407,1.297 0,0.797 0.578,1.297 1.422,1.297 0.844,0 1.422,-0.5 1.422,-1.297 z" /></g></g></svg>