<?xml version="1.0" encoding="UTF-8" standalone="no"?>
<svg
   xmlns:dc="http://purl.org/dc/elements/1.1/"
   xmlns:cc="http://creativecommons.org/ns#"
   xmlns:rdf="http://www.w3.org/1999/02/22-rdf-syntax-ns#"
   xmlns:svg="http://www.w3.org/2000/svg"
   xmlns="http://www.w3.org/2000/svg"
   viewBox="0 0 575.41998 372.116"
   height="372.116"
   width="575.41998"
   xml:space="preserve"
   version="1.1"
   id="svg2"><metadata
     id="metadata8"><rdf:RDF><cc:Work
         rdf:about=""><dc:format>image/svg+xml</dc:format><dc:type
           rdf:resource="http://purl.org/dc/dcmitype/StillImage" /></cc:Work></rdf:RDF></metadata><defs
     id="defs6" /><g
     transform="matrix(1.25,0,0,-1.25,0,372.11601)"
     id="g10"><g
       id="g12"><path
         id="path14"
         style="fill:none;stroke:#c0c0c0;stroke-width:0.80000001;stroke-linecap:square;stroke-linejoin:bevel;stroke-miterlimit:4;stroke-dasharray:0.8, 1.6;stroke-dashoffset:0;stroke-opacity:1"
         d="m 73.57,273.294 381.598,0" /><path
         id="path16"
         style="fill:none;stroke:#c0c0c0;stroke-width:0.80000001;stroke-linecap:square;stroke-linejoin:bevel;stroke-miterlimit:4;stroke-dasharray:0.8, 1.6;stroke-dashoffset:0;stroke-opacity:1"
         d="m 73.57,226.095 381.598,0" /><path
         id="path18"
         style="fill:none;stroke:#c0c0c0;stroke-width:0.80000001;stroke-linecap:square;stroke-linejoin:bevel;stroke-miterlimit:4;stroke-dasharray:0.8, 1.6;stroke-dashoffset:0;stroke-opacity:1"
         d="m 73.57,178.095 381.598,0" /><path
         id="path20"
         style="fill:none;stroke:#c0c0c0;stroke-width:0.80000001;stroke-linecap:square;stroke-linejoin:bevel;stroke-miterlimit:4;stroke-dasharray:0.8, 1.6;stroke-dashoffset:0;stroke-opacity:1"
         d="m 73.57,130.095 381.598,0" /><path
         id="path22"
         style="fill:none;stroke:#c0c0c0;stroke-width:0.80000001;stroke-linecap:square;stroke-linejoin:bevel;stroke-miterlimit:4;stroke-dasharray:0.8, 1.6;stroke-dashoffset:0;stroke-opacity:1"
         d="m 73.57,82.896 381.598,0" /><path
         id="path24"
         style="fill:none;stroke:#c0c0c0;stroke-width:0.80000001;stroke-linecap:square;stroke-linejoin:bevel;stroke-miterlimit:4;stroke-dasharray:0.8, 1.6;stroke-dashoffset:0;stroke-opacity:1"
         d="m 391.969,297.294 0,-262.398" /><path
         id="path26"
         style="fill:none;stroke:#c0c0c0;stroke-width:0.80000001;stroke-linecap:square;stroke-linejoin:bevel;stroke-miterlimit:4;stroke-dasharray:0.8, 1.6;stroke-dashoffset:0;stroke-opacity:1"
         d="m 327.969,297.294 0,-262.398" /><path
         id="path28"
         style="fill:none;stroke:#c0c0c0;stroke-width:0.80000001;stroke-linecap:square;stroke-linejoin:bevel;stroke-miterlimit:4;stroke-dasharray:0.8, 1.6;stroke-dashoffset:0;stroke-opacity:1"
         d="m 264.77,297.294 0,-262.398" /><path
         id="path30"
         style="fill:none;stroke:#c0c0c0;stroke-width:0.80000001;stroke-linecap:square;stroke-linejoin:bevel;stroke-miterlimit:4;stroke-dasharray:0.8, 1.6;stroke-dashoffset:0;stroke-opacity:1"
         d="m 200.77,297.294 0,-262.398" /><path
         id="path32"
         style="fill:none;stroke:#c0c0c0;stroke-width:0.80000001;stroke-linecap:square;stroke-linejoin:bevel;stroke-miterlimit:4;stroke-dasharray:0.8, 1.6;stroke-dashoffset:0;stroke-opacity:1"
         d="m 137.57,297.294 0,-262.398" /><path
         id="path34"
         style="fill:none;stroke:#000000;stroke-width:0.80000001;stroke-linecap:square;stroke-linejoin:bevel;stroke-miterlimit:4;stroke-dasharray:none;stroke-opacity:1"
         d="m 73.57,38.896 0,-8" /><path
         id="path36"
         style="fill:none;stroke:#000000;stroke-width:0.80000001;stroke-linecap:square;stroke-linejoin:bevel;stroke-miterlimit:4;stroke-dasharray:none;stroke-opacity:1"
         d="m 137.57,38.896 0,-8" /><path
         id="path38"
         style="fill:none;stroke:#000000;stroke-width:0.80000001;stroke-linecap:square;stroke-linejoin:bevel;stroke-miterlimit:4;stroke-dasharray:none;stroke-opacity:1"
         d="m 200.77,38.896 0,-8" /><path
         id="path40"
         style="fill:none;stroke:#000000;stroke-width:0.80000001;stroke-linecap:square;stroke-linejoin:bevel;stroke-miterlimit:4;stroke-dasharray:none;stroke-opacity:1"
         d="m 264.77,38.896 0,-8" /><path
         id="path42"
         style="fill:none;stroke:#000000;stroke-width:0.80000001;stroke-linecap:square;stroke-linejoin:bevel;stroke-miterlimit:4;stroke-dasharray:none;stroke-opacity:1"
         d="m 327.969,38.896 0,-8" /><path
         id="path44"
         style="fill:none;stroke:#000000;stroke-width:0.80000001;stroke-linecap:square;stroke-linejoin:bevel;stroke-miterlimit:4;stroke-dasharray:none;stroke-opacity:1"
         d="m 391.969,38.896 0,-8" /><path
         id="path46"
         style="fill:none;stroke:#000000;stroke-width:0.80000001;stroke-linecap:square;stroke-linejoin:bevel;stroke-miterlimit:4;stroke-dasharray:none;stroke-opacity:1"
         d="m 455.168,38.896 0,-8" /><path
         id="path48"
         style="fill:none;stroke:#000000;stroke-width:0.80000001;stroke-linecap:square;stroke-linejoin:bevel;stroke-miterlimit:4;stroke-dasharray:none;stroke-opacity:1"
         d="m 69.57,34.896 8,0" /><path
         id="path50"
         style="fill:none;stroke:#000000;stroke-width:0.80000001;stroke-linecap:square;stroke-linejoin:bevel;stroke-miterlimit:4;stroke-dasharray:none;stroke-opacity:1"
         d="m 69.57,82.896 8,0" /><path
         id="path52"
         style="fill:none;stroke:#000000;stroke-width:0.80000001;stroke-linecap:square;stroke-linejoin:bevel;stroke-miterlimit:4;stroke-dasharray:none;stroke-opacity:1"
         d="m 69.57,130.095 8,0" /><path
         id="path54"
         style="fill:none;stroke:#000000;stroke-width:0.80000001;stroke-linecap:square;stroke-linejoin:bevel;stroke-miterlimit:4;stroke-dasharray:none;stroke-opacity:1"
         d="m 69.57,178.095 8,0" /><path
         id="path56"
         style="fill:none;stroke:#000000;stroke-width:0.80000001;stroke-linecap:square;stroke-linejoin:bevel;stroke-miterlimit:4;stroke-dasharray:none;stroke-opacity:1"
         d="m 69.57,226.095 8,0" /><path
         id="path58"
         style="fill:none;stroke:#000000;stroke-width:0.80000001;stroke-linecap:square;stroke-linejoin:bevel;stroke-miterlimit:4;stroke-dasharray:none;stroke-opacity:1"
         d="m 69.57,273.294 8,0" /><path
         id="path60"
         style="fill:none;stroke:#000000;stroke-width:0.80000001;stroke-linecap:square;stroke-linejoin:bevel;stroke-miterlimit:4;stroke-dasharray:none;stroke-opacity:1"
         d="m 73.57,297.294 381.598,0" /><path
         id="path62"
         style="fill:none;stroke:#000000;stroke-width:0.80000001;stroke-linecap:square;stroke-linejoin:bevel;stroke-miterlimit:4;stroke-dasharray:none;stroke-opacity:1"
         d="m 455.168,297.294 0,-262.398" /><path
         id="path64"
         style="fill:none;stroke:#000000;stroke-width:0.80000001;stroke-linecap:square;stroke-linejoin:bevel;stroke-miterlimit:4;stroke-dasharray:none;stroke-opacity:1"
         d="m 73.57,34.896 381.598,0" /><path
         id="path66"
         style="fill:none;stroke:#000000;stroke-width:0.80000001;stroke-linecap:square;stroke-linejoin:bevel;stroke-miterlimit:4;stroke-dasharray:none;stroke-opacity:1"
         d="m 73.57,297.294 0,-262.398" /><path
         id="path68"
         style="fill:none;stroke:#ff0000;stroke-width:0.80000001;stroke-linecap:square;stroke-linejoin:bevel;stroke-miterlimit:4;stroke-dasharray:none;stroke-opacity:1"
         d="m 86.293,273.259 0.051,0 0.054,-0.004 0.11,0 0.054,-0.004 0.059,0 0.055,-0.004 0.113,0 0.055,-0.003 0.054,0 0.063,-0.004 0.051,0 0.058,-0.008 0.231,0 0.058,-0.004 0.063,0 0.058,-0.004 0.063,0 0.055,-0.004 0.121,0 0.058,-0.004 0.063,0 0.058,-0.004 0.063,0 0.062,-0.004 0.059,0 0.063,-0.003 0.066,0 0.059,-0.004 0.062,0 0.063,-0.004 0.066,0 0.062,-0.008 0.192,0 0.066,-0.004 0.063,0 0.133,-0.008 0.066,0 0.062,-0.004 0.067,0 0.066,-0.004 0.067,0 0.07,-0.004 0.066,0 0.067,-0.003 0.074,-0.004 0.063,0 0.07,-0.004 0.066,0 0.141,-0.008 0.074,0 0.066,-0.004 0.071,0 0.14,-0.008 0.071,0 0.074,-0.004 0.07,-0.004 0.071,0 0.148,-0.007 0.07,0 0.149,-0.012 0.074,0 0.148,-0.004 0.075,0 0.074,-0.004 0.078,-0.004 0.078,0 0.149,-0.008 0.078,-0.004 0.078,0 0.238,-0.011 0.074,0 0.157,-0.008 0.082,-0.004 0.078,0 0.082,-0.004 0.078,-0.004 0.164,-0.008 0.082,0 0.332,-0.015 0.086,-0.008 0.164,0 0.086,-0.004 0.34,-0.016 0.086,0 0.172,-0.007 0.089,-0.004 0.086,-0.008 0.094,0 0.086,-0.004 0.719,-0.031 0.094,-0.008 0.089,0 0.563,-0.024 0.098,-0.003 0.093,-0.004 0.196,-0.012 0.093,0 0.391,-0.016 0.102,-0.004 0.101,-0.007 0.098,-0.004 0.097,-0.008 0.407,-0.012 0.101,-0.008 0.106,-0.004 0.101,-0.003 0.106,-0.004 0.101,-0.004 0.106,-0.008 0.32,-0.012 0.102,-0.008 0.109,-0.004 0.215,-0.007 0.105,-0.012 0.223,-0.004 0.105,-0.008 0.223,-0.008 0.11,-0.007 0.109,-0.004 0.117,-0.008 0.109,-0.004 0.227,-0.008 0.113,-0.008 0.227,-0.007 0.121,-0.008 0.117,-0.008 0.11,-0.004 0.117,-0.004 0.117,-0.008 0.121,-0.004 0.113,-0.007 0.121,-0.004 0.118,-0.004 0.121,-0.008 0.121,-0.004 0.121,-0.008 0.121,-0.004 0.246,-0.015 0.125,-0.008 0.121,-0.004 0.125,-0.004 0.125,-0.008 0.125,-0.004 0.25,-0.015 0.129,-0.008 0.25,-0.008 0.258,-0.016 0.129,-0.003 0.129,-0.008 0.132,-0.008 0.129,-0.004 0.266,-0.016 0.133,-0.004 0.402,-0.023 0.133,-0.004 0.137,-0.008 0.132,-0.007 0.141,-0.008 0.133,-0.008 0.141,-0.004 0.136,-0.008 0.282,-0.015 0.14,-0.004 0.137,-0.012 0.144,-0.004 0.141,-0.008 0.578,-0.031 0.141,-0.004 0.144,-0.008 0.301,-0.015 0.141,-0.012 0.445,-0.02 0.152,-0.007 0.149,-0.008 0.457,-0.024 0.16,-0.008 0.148,-0.007 0.157,-0.008 0.152,-0.008 0.313,-0.016 0.16,-0.007 0.156,-0.012 0.164,-0.004 0.152,-0.008 0.16,-0.008 0.165,-0.011 0.32,-0.016 0.66,-0.035 0.164,-0.008 0.836,-0.039 0.168,-0.012 0.687,-0.031 0.176,-0.012 0.176,-0.008 0.348,-0.015 0.175,-0.012 0.176,-0.008 0.36,-0.015 0.179,-0.012 0.36,-0.016 0.183,-0.007 0.18,-0.016 0.371,-0.012 0.184,-0.012 0.183,-0.007 0.375,-0.016 0.188,-0.012 0.195,-0.007 0.184,-0.008 0.195,-0.012 0.379,-0.016 0.199,-0.011 0.188,-0.012 0.195,-0.004 0.199,-0.012 0.192,-0.008 0.199,-0.007 0.199,-0.012 0.394,-0.016 0.204,-0.011 0.199,-0.012 0.203,-0.004 0.207,-0.012 0.402,-0.015 0.207,-0.012 0.621,-0.024 0.211,-0.015 0.422,-0.012 0.215,-0.012 0.215,-0.007 0.207,-0.012 0.43,-0.016 0.218,-0.008 0.215,-0.007 0.223,-0.012 0.215,-0.008 0.445,-0.016 0.219,-0.015 0.222,-0.004 0.231,-0.008 0.219,-0.008 0.226,-0.007 0.227,-0.016 0.226,-0.004 0.922,-0.031 0.469,-0.016 0.23,-0.012 0.481,-0.019 0.23,-0.004 0.239,-0.008 0.484,-0.015 0.481,-0.016 0.246,-0.008 0.242,-0.008 0.25,-0.004 0.496,-0.015 0.75,-0.024 0.25,-0.004 0.762,-0.023 0.257,-0.004 0.52,-0.016 0.258,-0.003 0.523,-0.016 0.262,-0.004 0.266,-0.004 0.269,-0.008 0.262,-0.004 0.269,-0.007 0.266,-0.004 0.27,-0.004 0.273,-0.008 0.82,-0.012 0.278,-0.008 0.832,-0.011 0.566,-0.012 0.281,0 0.282,-0.004 0.289,-0.004 0.285,-0.004 0.289,0 0.578,-0.008 0.293,0 0.586,-0.007 0.297,0 0.293,-0.004 0.597,0 0.305,-0.008 3.387,0 0.32,0.008 0.313,0 0.32,0.004 0.324,0 0.317,0.004 0.324,0 0.652,0.007 0.324,0.004 0.328,0 0.329,0.004 0.332,0.008 0.332,0 1.007,0.016 0.34,0.007 0.344,0.004 0.336,0.008 0.344,0.004 0.691,0.016 0.344,0.007 0.351,0.008 0.352,0.004 0.348,0.012 1.07,0.023 0.352,0.012 0.359,0.008 0.367,0.012 0.356,0.007 0.363,0.012 0.367,0.008 0.371,0.012 0.363,0.011 0.372,0.012 0.371,0.016 0.375,0.011 0.371,0.012 0.379,0.008 0.378,0.019 0.379,0.012 0.387,0.012 0.379,0.019 0.383,0.012 0.773,0.031 0.782,0.032 0.394,0.019 0.391,0.012 0.402,0.019 0.395,0.02 0.398,0.016 0.805,0.039 0.402,0.015 0.406,0.016 1.231,0.062 0.414,0.02 0.414,0.023 0.418,0.02 0.418,0.023 0.422,0.02 0.422,0.023 0.421,0.016 0.434,0.027 0.422,0.024 0.859,0.047 0.434,0.023 1.312,0.07 0.442,0.02 0.445,0.031 0.887,0.047 0.449,0.027 0.449,0.02 0.449,0.031 0.458,0.024 0.914,0.054 0.457,0.024 0.464,0.027 0.461,0.027 0.469,0.028 0.465,0.027 0.469,0.024 0.945,0.054 0.477,0.028 0.484,0.027 0.473,0.027 0.484,0.028 0.48,0.023 1.465,0.082 0.493,0.027 0.496,0.02 0.496,0.031 0.5,0.028 0.5,0.023 0.504,0.027 0.504,0.024 0.507,0.027 0.512,0.024 0.508,0.027 0.512,0.023 0.519,0.024 1.035,0.047 0.524,0.019 0.527,0.024 0.523,0.023 1.598,0.059 0.531,0.019 1.078,0.039 0.547,0.012 0.543,0.023 0.551,0.016 0.547,0.012 0.551,0.015 0.554,0.016 1.118,0.023 0.566,0.012 0.559,0.008 0.57,0.012 0.566,0.007 0.571,0.004 0.574,0.008 0.578,0.004 0.574,0.004 0.582,0.004 1.762,0 0.59,-0.004 0.594,0 0.593,-0.008 0.598,-0.004 0.602,-0.008 0.609,-0.007 0.601,-0.012 0.61,-0.012 0.617,-0.012 0.609,-0.019 0.618,-0.008 0.617,-0.019 0.621,-0.016 0.625,-0.02 1.258,-0.046 0.633,-0.024 0.636,-0.023 0.637,-0.028 0.641,-0.027 0.648,-0.035 0.645,-0.024 0.648,-0.035 0.652,-0.031 0.653,-0.035 0.656,-0.035 0.664,-0.039 0.664,-0.036 0.668,-0.042 0.668,-0.04 1.34,-0.085 1.363,-0.086 1.363,-0.098 1.387,-0.09 0.692,-0.047 0.695,-0.051 0.703,-0.046 0.707,-0.055 0.707,-0.047 0.711,-0.051 0.707,-0.047 0.715,-0.05 0.719,-0.055 0.722,-0.047 0.727,-0.051 0.726,-0.047 0.731,-0.05 0.738,-0.047 0.735,-0.051 1.484,-0.09 0.75,-0.043 0.746,-0.043 0.754,-0.043 0.758,-0.039 0.761,-0.039 0.766,-0.039 0.762,-0.031 0.769,-0.035 0.774,-0.032 0.781,-0.027 0.773,-0.023 0.782,-0.024 0.789,-0.019 0.789,-0.016 0.793,-0.016 0.797,-0.011 0.796,-0.004 0.809,-0.008 0.801,0 1.625,0.015 0.816,0.012 0.821,0.02 0.824,0.019 1.66,0.055 0.832,0.035 0.84,0.039 0.84,0.047 0.843,0.047 0.852,0.055 0.852,0.058 0.855,0.067 0.859,0.066 0.864,0.074 0.867,0.078 0.871,0.082 0.875,0.086 0.879,0.09 0.879,0.094 0.886,0.094 0.895,0.097 0.887,0.102 0.902,0.101 1.801,0.204 0.914,0.101 0.91,0.094 0.918,0.098 0.918,0.089 0.922,0.079 0.93,0.074 0.929,0.062 0.938,0.047 0.945,0.035 0.938,0.016 0.949,-0.004 0.953,-0.027 0.957,-0.055 0.957,-0.082 0.965,-0.117 0.969,-0.153 0.972,-0.191 0.977,-0.234 0.98,-0.282 0.985,-0.332 0.992,-0.382 0.996,-0.438 0.996,-0.496 1.004,-0.551 1,-0.617 1.012,-0.676 1.015,-0.738 1.02,-0.801 1.023,-0.867 1.028,-0.918 1.031,-0.981 1.039,-1.035 1.039,-1.093 1.047,-1.141 1.051,-1.191 1.054,-1.239 1.059,-1.277 1.062,-1.316 1.067,-1.352 1.074,-1.379 1.082,-1.41 1.082,-1.438 1.086,-1.457 1.086,-1.472 1.098,-1.492 1.097,-1.508 1.106,-1.516 1.113,-1.527 1.113,-1.532 1.117,-1.539 1.126,-1.543 1.128,-1.543 1.137,-1.542 1.137,-1.547 1.14,-1.543 1.149,-1.543 1.152,-1.535 1.16,-1.536 1.164,-1.531 1.168,-1.523 1.172,-1.524 1.18,-1.511 1.18,-1.508 1.191,-1.5 1.192,-1.496 1.199,-1.489 1.203,-1.48 1.207,-1.473 1.215,-1.465 1.218,-1.457 1.227,-1.453 1.227,-1.445 1.234,-1.434 1.238,-1.429 1.246,-1.426 1.25,-1.41 1.254,-1.407 1.262,-1.398 1.266,-1.395 1.277,-1.382 1.273,-1.383 1.282,-1.367 1.289,-1.368 1.293,-1.355 1.297,-1.352 1.308,-1.343 1.309,-1.34 1.32,-1.328 1.316,-1.324 1.329,-1.321 1.332,-1.312 1.336,-1.305 1.351,-1.301 1.344,-1.293 1.355,-1.293 1.364,-1.281 1.367,-1.277 1.371,-1.274 1.379,-1.265 1.386,-1.262 1.391,-1.254 1.395,-1.254 1.402,-1.246 1.414,-1.246 1.414,-1.231 1.422,-1.23 1.422,-1.227 1.433,-1.226 1.438,-1.215 1.445,-1.215 1.45,-1.207 1.457,-1.207 1.464,-1.199 1.473,-1.195 1.473,-1.192 1.488,-1.195 1.484,-1.18 1.493,-1.18 1.503,-1.175 1.508,-1.176 1.512,-1.168 1.523,-1.164 1.528,-1.16 1.531,-1.16 3.086,-2.305 1.555,-1.149 1.566,-1.144 1.563,-1.141 1.57,-1.14 1.582,-1.137 1.586,-1.129 1.594,-1.129 1.605,-1.125 1.602,-1.125 1.613,-1.121 1.621,-1.121" /><path
         id="path70"
         style="fill:none;stroke:#ff00ff;stroke-width:0.80000001;stroke-linecap:square;stroke-linejoin:bevel;stroke-miterlimit:4;stroke-dasharray:none;stroke-opacity:1"
         d="m 86.293,273.033 0.051,-0.004 0.054,0 0.11,-0.008 0.054,0 0.059,-0.004 0.055,-0.004 0.054,0 0.059,-0.004 0.055,-0.004 0.054,0 0.063,-0.004 0.051,-0.004 0.058,0 0.118,-0.007 0.058,0 0.113,-0.008 0.063,-0.004 0.058,0 0.176,-0.012 0.063,0 0.058,-0.004 0.063,-0.004 0.058,-0.003 0.063,0 0.062,-0.004 0.059,-0.004 0.129,-0.008 0.059,0 0.125,-0.008 0.066,-0.004 0.125,-0.008 0.062,0 0.133,-0.007 0.063,-0.004 0.133,-0.012 0.128,0 0.2,-0.012 0.07,-0.004 0.133,-0.008 0.074,-0.003 0.063,-0.004 0.07,-0.008 0.066,-0.004 0.141,-0.004 0.074,0 0.492,-0.027 0.071,-0.008 0.074,0 0.074,-0.004 0.07,-0.004 0.075,-0.008 0.445,-0.027 0.078,0 0.078,-0.004 0.149,-0.008 0.078,-0.004 0.078,-0.008 0.39,-0.019 0.079,-0.008 0.082,-0.004 0.078,-0.004 0.082,-0.004 0.078,-0.003 0.082,-0.008 0.332,-0.016 0.082,-0.008 0.082,-0.004 0.086,-0.004 0.082,-0.007 0.082,-0.004 0.086,-0.008 0.082,0 0.086,-0.008 0.172,-0.008 0.086,-0.008 0.172,-0.007 0.089,-0.012 0.086,0 0.094,-0.008 0.172,-0.008 0.09,-0.007 0.09,-0.004 0.09,-0.012 0.089,0 0.094,-0.008 0.18,-0.008 0.094,-0.008 0.089,-0.003 0.098,-0.008 0.09,-0.008 0.187,-0.008 0.188,-0.016 0.098,-0.003 0.093,-0.012 0.098,0 0.098,-0.008 0.093,-0.004 0.196,-0.015 0.097,-0.004 0.098,-0.012 0.203,-0.008 0.098,-0.008 0.097,-0.004 0.309,-0.023 0.098,-0.004 0.101,-0.008 0.106,-0.008 0.101,-0.004 0.106,-0.007 0.101,-0.012 0.211,-0.012 0.106,-0.004 0.32,-0.023 0.105,-0.008 0.11,-0.004 0.105,-0.008 0.551,-0.039 0.219,-0.015 0.226,-0.016 0.114,-0.004 0.453,-0.031 0.121,-0.008 0.117,-0.012 0.11,-0.007 0.468,-0.032 0.121,-0.008 0.118,-0.007 0.363,-0.024 0.121,-0.011 0.246,-0.016 0.125,-0.008 0.121,-0.008 0.125,-0.011 0.375,-0.024 0.125,-0.012 0.129,-0.007 0.125,-0.012 0.125,-0.004 0.129,-0.012 0.258,-0.015 0.129,-0.012 0.132,-0.008 0.129,-0.008 0.137,-0.011 0.129,-0.008 0.133,-0.012 0.265,-0.016 0.137,-0.011 0.133,-0.012 0.137,-0.008 0.132,-0.008 0.141,-0.011 0.133,-0.012 0.141,-0.008 0.136,-0.008 0.141,-0.011 0.141,-0.008 0.14,-0.012 0.137,-0.008 0.144,-0.012 0.141,-0.007 0.289,-0.024 0.141,-0.008 0.148,-0.011 0.141,-0.008 0.144,-0.012 0.149,-0.012 0.152,-0.007 0.141,-0.012 0.152,-0.012 0.145,-0.008 0.148,-0.011 0.152,-0.012 0.149,-0.008 0.457,-0.035 0.16,-0.008 0.148,-0.012 0.157,-0.011 0.152,-0.012 0.156,-0.012 0.157,-0.008 0.16,-0.015 0.156,-0.008 0.164,-0.012 0.152,-0.011 0.16,-0.012 0.165,-0.008 0.32,-0.023 0.824,-0.059 0.168,-0.008 0.836,-0.058 0.687,-0.051 0.176,-0.008 0.176,-0.012 0.699,-0.047 0.899,-0.062 0.183,-0.008 0.18,-0.012 0.371,-0.023 0.367,-0.023 0.563,-0.036 0.195,-0.011 0.184,-0.016 0.574,-0.035 0.199,-0.012 0.188,-0.012 0.586,-0.035 0.199,-0.011 0.199,-0.016 0.394,-0.02 0.204,-0.011 0.199,-0.012 0.812,-0.047 0.828,-0.047 0.848,-0.047 0.215,-0.011 0.207,-0.012 0.43,-0.024 0.218,-0.015 0.215,-0.008 0.223,-0.012 0.215,-0.007 0.222,-0.016 0.223,-0.008 0.441,-0.023 0.231,-0.012 0.219,-0.008 0.679,-0.035 0.231,-0.012 0.23,-0.008 0.461,-0.023 0.235,-0.008 0.234,-0.012 0.23,-0.011 0.239,-0.008 0.242,-0.012 0.23,-0.008 0.239,-0.011 0.242,-0.012 0.242,-0.008 0.238,-0.008 0.243,-0.011 0.246,-0.012 0.242,-0.008 0.25,-0.008 0.246,-0.008 0.25,-0.011 0.5,-0.016 0.25,-0.012 1.012,-0.031 0.777,-0.023 1.043,-0.032 0.535,-0.019 0.262,0 0.269,-0.008 0.266,-0.008 0.27,-0.004 0.273,-0.007 0.273,-0.004 0.274,-0.012 0.273,0 0.278,-0.008 0.554,-0.008 0.278,-0.007 0.566,-0.008 0.281,-0.008 0.282,0 0.289,-0.004 0.285,-0.004 0.867,-0.012 0.293,-0.004 0.293,0 0.293,-0.003 0.297,-0.004 0.293,0 0.301,-0.004 0.601,0 0.297,-0.008 2.461,0 0.312,0.008 0.637,0 0.313,0.004 0.32,0 0.641,0.007 0.324,0.004 0.324,0 0.328,0.004 0.324,0.004 0.328,0.008 0.329,0.004 0.664,0.008 0.336,0.008 0.335,0.003 0.336,0.008 0.34,0.004 0.68,0.012 1.035,0.027 0.344,0.008 0.351,0.004 0.352,0.012 0.348,0.011 0.711,0.016 0.711,0.023 0.359,0.012 0.367,0.008 0.356,0.012 0.363,0.011 0.367,0.012 0.371,0.016 0.363,0.011 0.743,0.024 0.375,0.016 0.371,0.015 0.379,0.012 0.757,0.031 0.387,0.016 0.379,0.015 0.77,0.032 0.386,0.019 0.782,0.031 0.394,0.02 0.391,0.016 0.797,0.039 0.398,0.015 1.207,0.055 0.406,0.023 0.41,0.02 0.411,0.023 0.41,0.02 0.828,0.039 0.418,0.023 0.418,0.02 0.422,0.023 0.422,0.016 0.421,0.027 0.434,0.024 0.422,0.019 0.859,0.047 0.434,0.024 0.437,0.023 0.438,0.02 0.437,0.023 0.887,0.043 0.887,0.051 1.347,0.07 1.829,0.09 0.464,0.027 0.461,0.024 0.469,0.023 0.465,0.02 0.469,0.023 0.945,0.047 0.477,0.019 0.484,0.024 0.473,0.019 0.484,0.024 0.48,0.019 0.489,0.02 0.976,0.043 0.493,0.019 0.496,0.02 0.496,0.016 1,0.039 1.008,0.031 2.039,0.062 0.519,0.012 0.516,0.012 0.519,0.015 0.524,0.012 0.527,0.008 0.523,0.012 1.598,0.023 0.531,0.008 1.078,0.004 0.547,0.008 0.543,0.004 2.203,0 1.118,-0.012 0.566,0 0.559,-0.008 0.57,-0.008 0.566,-0.008 0.571,-0.011 0.574,-0.008 0.578,-0.016 0.574,-0.011 0.582,-0.016 1.176,-0.031 0.586,-0.02 0.59,-0.019 0.594,-0.024 0.593,-0.019 0.598,-0.028 0.602,-0.023 1.21,-0.055 0.61,-0.031 1.226,-0.059 0.618,-0.031 0.617,-0.035 0.621,-0.039 0.625,-0.031 0.629,-0.036 0.629,-0.039 0.633,-0.039 0.636,-0.039 0.637,-0.043 0.641,-0.043 0.648,-0.043 0.645,-0.043 0.648,-0.046 0.652,-0.043 0.653,-0.047 0.656,-0.051 0.664,-0.043 0.664,-0.047 0.668,-0.051 0.668,-0.047 1.34,-0.105 0.68,-0.043 0.683,-0.051 0.68,-0.051 0.683,-0.046 1.387,-0.102 0.692,-0.047 0.695,-0.051 1.41,-0.093 0.707,-0.047 1.418,-0.094 0.715,-0.043 0.719,-0.043 0.722,-0.043 1.453,-0.078 0.731,-0.039 0.738,-0.035 0.735,-0.035 1.484,-0.063 0.75,-0.035 0.746,-0.02 0.754,-0.027 0.758,-0.02 1.527,-0.039 0.762,-0.011 0.769,-0.012 0.774,-0.012 1.554,-0.008 1.571,0 0.789,0.008 0.793,0.008 0.797,0.008 0.796,0.019 0.809,0.016 0.801,0.023 0.812,0.024 0.813,0.027 0.816,0.028 0.821,0.031 0.824,0.039 0.828,0.035 0.832,0.039 0.832,0.043 1.68,0.086 0.843,0.047 1.704,0.094 0.855,0.047 0.859,0.043 0.864,0.042 0.867,0.043 0.871,0.036 0.875,0.031 0.879,0.031 0.879,0.024 0.886,0.011 0.895,0.008 0.887,-0.004 0.902,-0.015 0.899,-0.028 0.902,-0.043 0.914,-0.062 0.91,-0.074 0.918,-0.098 0.918,-0.125 0.922,-0.141 0.93,-0.168 0.929,-0.199 0.938,-0.227 0.945,-0.265 0.938,-0.293 0.949,-0.332 0.953,-0.363 0.957,-0.407 0.957,-0.449 0.965,-0.492 0.969,-0.527 0.972,-0.579 0.977,-0.617 0.98,-0.664 0.985,-0.707 0.992,-0.754 0.996,-0.793 0.996,-0.836 1.004,-0.879 1,-0.918 1.012,-0.953 1.015,-0.992 1.02,-1.031 1.023,-1.055 1.028,-1.086 1.031,-1.117 1.039,-1.144 1.039,-1.168 1.047,-1.192 1.051,-1.211 1.054,-1.226 1.059,-1.246 1.062,-1.262 1.067,-1.27 1.074,-1.281 1.082,-1.293 1.082,-1.301 1.086,-1.312 1.086,-1.305 1.098,-1.32 1.097,-1.317 1.106,-1.32 1.113,-1.324 1.113,-1.32 1.117,-1.325 1.126,-1.32 1.128,-1.316 1.137,-1.317 1.137,-1.32 1.14,-1.305 1.149,-1.304 1.152,-1.305 1.16,-1.297 1.164,-1.293 1.168,-1.289 1.172,-1.281 1.18,-1.278 1.18,-1.269 1.191,-1.266 1.192,-1.261 1.199,-1.254 1.203,-1.246 1.207,-1.243 1.215,-1.234 1.218,-1.231 1.227,-1.226 1.227,-1.211 1.234,-1.211 1.238,-1.203 1.246,-1.199 1.25,-1.188 1.254,-1.183 1.262,-1.18 1.266,-1.172 1.277,-1.164 1.273,-1.164 1.282,-1.149 1.289,-1.148 1.293,-1.141 1.297,-1.132 1.308,-1.129 1.309,-1.121 1.32,-1.118 1.316,-1.113 1.329,-1.101 1.332,-1.102 1.336,-1.09 1.351,-1.09 1.344,-1.078 1.355,-1.078 1.364,-1.074 1.367,-1.059 1.371,-1.058 1.379,-1.055 1.386,-1.047 1.391,-1.043 1.395,-1.039 1.402,-1.035 1.414,-1.024 1.414,-1.019 1.422,-1.016 1.422,-1.011 1.433,-1.004 1.438,-1.008 1.445,-0.988 1.45,-0.993 1.457,-0.984 1.464,-0.98 1.473,-0.977 1.473,-0.969 1.488,-0.968 1.484,-0.961 1.493,-0.954 1.503,-0.953 1.508,-0.945 1.512,-0.941 1.523,-0.938 1.528,-0.933 1.531,-0.926 1.543,-0.926 1.543,-0.914 1.555,-0.918 1.566,-0.906 1.563,-0.907 1.57,-0.898 1.582,-0.895 1.586,-0.894 1.594,-0.883 1.605,-0.883 1.602,-0.875 1.613,-0.875 1.621,-0.867" /><path
         id="path72"
         style="fill:none;stroke:#00ff00;stroke-width:0.80000001;stroke-linecap:square;stroke-linejoin:bevel;stroke-miterlimit:4;stroke-dasharray:none;stroke-opacity:1"
         d="m 86.293,272.904 0.215,-0.016 0.054,0 0.059,-0.004 0.055,-0.004 0.113,-0.008 0.109,-0.007 0.063,-0.008 0.051,-0.004 0.176,-0.008 0.058,-0.004 0.055,-0.004 0.058,0 0.063,-0.004 0.234,-0.019 0.063,0 0.058,-0.004 0.063,-0.008 0.058,-0.004 0.125,-0.008 0.059,-0.003 0.313,-0.02 0.066,-0.004 0.187,-0.012 0.067,-0.004 0.066,-0.007 0.063,-0.008 0.133,-0.004 0.066,-0.004 0.129,-0.008 0.066,-0.008 0.067,-0.003 0.07,-0.004 0.133,-0.012 0.074,0 0.063,-0.008 0.07,-0.004 0.066,-0.004 0.071,-0.004 0.07,-0.007 0.211,-0.016 0.074,-0.004 0.211,-0.012 0.07,-0.008 0.071,-0.003 0.074,-0.004 0.074,-0.008 0.07,-0.004 0.149,-0.008 0.074,-0.008 0.148,-0.007 0.149,-0.016 0.078,0 0.078,-0.008 0.074,-0.004 0.075,-0.008 0.156,-0.007 0.078,-0.008 0.082,-0.008 0.078,-0.004 0.152,-0.008 0.079,-0.008 0.082,-0.004 0.078,-0.007 0.082,-0.008 0.078,-0.004 0.082,-0.004 0.082,-0.008 0.082,-0.004 0.082,-0.007 0.086,-0.004 0.082,-0.012 0.082,0 0.086,-0.008 0.082,-0.004 0.082,-0.008 0.086,-0.004 0.082,-0.007 0.086,-0.004 0.086,-0.008 0.086,-0.004 0.172,-0.016 0.086,-0.004 0.089,-0.007 0.086,-0.008 0.094,-0.004 0.086,-0.008 0.086,-0.004 0.09,-0.008 0.09,-0.003 0.179,-0.016 0.094,-0.004 0.18,-0.016 0.094,-0.004 0.089,-0.007 0.098,-0.012 0.09,0 0.187,-0.016 0.098,-0.004 0.09,-0.007 0.098,-0.012 0.093,0 0.196,-0.016 0.093,-0.004 0.293,-0.023 0.098,-0.004 0.203,-0.016 0.098,-0.007 0.097,-0.004 0.309,-0.024 0.098,-0.004 0.101,-0.008 0.106,-0.007 0.101,-0.012 0.106,0 0.101,-0.008 0.211,-0.015 0.106,-0.004 0.32,-0.024 0.105,-0.008 0.11,-0.004 0.105,-0.007 0.328,-0.024 0.11,-0.004 0.113,-0.008 0.219,-0.015 0.117,-0.008 0.109,-0.004 0.454,-0.031 0.113,-0.004 0.238,-0.016 0.11,-0.007 0.234,-0.016 0.234,-0.012 0.121,-0.008 0.118,-0.007 0.121,-0.004 0.363,-0.024 0.121,-0.004 0.25,-0.015 0.121,-0.008 0.125,-0.004 0.375,-0.023 0.125,-0.004 0.129,-0.012 0.25,-0.008 0.516,-0.031 0.132,-0.004 0.129,-0.008 0.137,-0.004 0.129,-0.008 0.133,-0.003 0.265,-0.016 0.137,-0.004 0.133,-0.008 0.137,-0.004 0.132,-0.008 0.141,-0.007 0.133,-0.004 0.141,-0.008 0.136,-0.004 0.141,-0.008 0.141,-0.004 0.14,-0.008 0.137,-0.003 0.144,-0.012 0.141,-0.004 0.145,0 0.144,-0.008 0.141,-0.004 0.148,-0.008 0.285,-0.007 0.149,-0.012 0.152,0 0.141,-0.004 0.152,-0.008 0.293,-0.008 0.152,-0.004 0.149,-0.003 0.156,-0.008 0.301,-0.008 0.16,-0.004 0.148,-0.004 0.157,-0.004 0.152,-0.004 0.313,-0.008 0.16,-0.003 0.156,-0.004 0.164,-0.008 0.152,0 0.16,-0.004 0.165,0 0.32,-0.008 0.164,-0.004 0.164,0 0.332,-0.008 0.164,0 0.168,-0.003 0.168,0 0.168,-0.004 0.168,0 0.164,-0.004 0.168,0 0.172,-0.008 1.039,0 0.176,-0.004 1.07,0 0.18,0.004 1.101,0 0.188,0.008 0.187,0 0.188,0.004 0.195,0 0.184,0.004 0.195,0.003 0.187,0 0.192,0.004 0.199,0.004 0.188,0.004 0.195,0 0.391,0.008 0.199,0.004 0.199,0 0.195,0.012 0.199,0.003 0.204,0.004 0.199,0.004 0.203,0.008 0.41,0.008 0.199,0.008 0.207,0.004 0.207,0.007 0.207,0.004 0.207,0.008 0.422,0.012 0.211,0.008 0.43,0.015 0.207,0.008 0.43,0.012 0.218,0.012 0.215,0.011 0.438,0.016 0.222,0.008 0.223,0.011 0.441,0.016 0.231,0.008 0.219,0.016 0.226,0.007 0.227,0.012 0.226,0.008 0.922,0.047 0.235,0.008 0.234,0.011 0.23,0.012 0.481,0.023 0.23,0.016 0.239,0.008 0.242,0.015 0.242,0.012 0.238,0.012 0.243,0.016 0.246,0.011 0.242,0.012 0.25,0.012 0.246,0.015 0.25,0.012 0.25,0.016 0.5,0.023 0.25,0.016 0.254,0.011 0.254,0.016 0.254,0.008 0.257,0.019 0.258,0.012 0.262,0.012 0.258,0.019 0.262,0.012 0.261,0.016 0.262,0.011 0.266,0.016 0.269,0.008 0.262,0.019 0.269,0.012 0.266,0.012 0.27,0.015 0.546,0.024 0.547,0.027 0.278,0.016 0.832,0.035 0.281,0.008 0.285,0.019 0.281,0.012 0.282,0.008 0.289,0.012 0.285,0.011 0.578,0.02 0.289,0.012 0.293,0.011 0.586,0.016 0.297,0.012 0.293,0.007 0.301,0.008 0.296,0.008 0.305,0.004 0.297,0.004 0.305,0.012 0.609,0.007 0.309,0.004 0.304,0.004 0.313,0.004 0.308,0.004 0.313,0.004 0.629,0 0.32,0.004 0.313,-0.004 0.644,0 0.317,-0.004 0.976,-0.012 0.652,-0.007 0.329,-0.008 0.664,-0.016 0.336,-0.012 0.335,-0.007 0.336,-0.012 0.684,-0.024 0.336,-0.019 0.344,-0.008 0.691,-0.035 0.344,-0.012 0.703,-0.039 0.348,-0.019 0.711,-0.039 0.711,-0.047 0.359,-0.024 0.367,-0.027 0.356,-0.024 0.363,-0.023 0.738,-0.055 0.363,-0.031 0.372,-0.027 0.371,-0.032 0.375,-0.031 0.371,-0.031 0.757,-0.063 0.379,-0.035 0.387,-0.035 0.379,-0.031 0.383,-0.039 0.773,-0.07 0.782,-0.071 0.394,-0.039 0.391,-0.035 0.797,-0.078 0.398,-0.035 0.805,-0.078 0.402,-0.036 0.406,-0.039 0.41,-0.039 0.411,-0.035 0.41,-0.039 0.828,-0.074 0.836,-0.07 0.422,-0.032 0.843,-0.07 0.434,-0.035 0.422,-0.027 0.43,-0.028 0.429,-0.031 0.434,-0.027 0.437,-0.028 0.875,-0.047 0.442,-0.023 0.445,-0.02 0.887,-0.039 0.449,-0.015 0.898,-0.024 1.372,-0.027 1.382,0 0.469,0.008 0.934,0.015 0.472,0.012 0.473,0.016 0.477,0.015 0.484,0.016 0.473,0.027 0.484,0.024 0.48,0.027 0.981,0.063 0.484,0.035 0.493,0.035 0.992,0.078 1,0.086 1.008,0.086 1.019,0.098 1.02,0.093 0.519,0.043 0.516,0.043 0.519,0.039 0.524,0.039 0.527,0.036 0.523,0.027 0.532,0.027 0.531,0.012 0.535,0.016 0.531,0 0.539,-0.008 0.539,-0.02 0.547,-0.031 0.543,-0.047 0.551,-0.059 0.547,-0.078 0.551,-0.097 0.554,-0.114 0.563,-0.144 0.555,-0.156 0.566,-0.188 0.559,-0.215 0.57,-0.242 0.566,-0.273 0.571,-0.309 0.574,-0.34 0.578,-0.375 0.574,-0.41 0.582,-0.449 0.59,-0.485 0.586,-0.527 0.586,-0.566 0.59,-0.606 0.594,-0.644 0.593,-0.684 0.598,-0.726 0.602,-0.766 0.609,-0.801 0.601,-0.84 0.61,-0.875 0.617,-0.91 0.609,-0.945 0.618,-0.973 0.617,-1.004 0.621,-1.031 0.625,-1.059 0.629,-1.085 0.629,-1.106 0.633,-1.129 0.636,-1.144 0.637,-1.168 0.641,-1.18 0.648,-1.195 0.645,-1.207 0.648,-1.223 0.652,-1.223 0.653,-1.238 0.656,-1.246 1.328,-2.5 0.668,-1.258 0.668,-1.262 0.668,-1.269 0.672,-1.258 1.363,-2.535 0.68,-1.262 0.683,-1.262 0.692,-1.261 0.695,-1.258 1.387,-2.508 1.41,-2.492 0.707,-1.242 1.418,-2.469 0.715,-1.227 0.719,-1.226 0.722,-1.211 0.727,-1.211 0.726,-1.207 0.731,-1.207 0.738,-1.191 0.735,-1.188 0.742,-1.187 0.742,-1.176 0.75,-1.176 0.746,-1.164 0.754,-1.16 0.758,-1.157 0.761,-1.148 0.766,-1.144 0.762,-1.141 0.769,-1.129 0.774,-1.125 0.781,-1.121 0.773,-1.117 0.782,-1.11 0.789,-1.105 0.789,-1.094 0.793,-1.094 0.797,-1.086 0.796,-1.078 0.809,-1.078 0.801,-1.07 1.625,-2.125 0.816,-1.051 0.821,-1.047 0.824,-1.043 1.66,-2.07 0.832,-1.027 0.84,-1.02 0.84,-1.016 0.843,-1.011 0.852,-1.008 0.852,-1 0.855,-1 0.859,-0.988 0.864,-0.985 0.867,-0.988 0.871,-0.969 0.875,-0.972 0.879,-0.973 0.879,-0.957 0.886,-0.961 0.895,-0.949 0.887,-0.946 0.902,-0.945 0.899,-0.937 0.902,-0.934 0.914,-0.93 0.91,-0.922 0.918,-0.921 0.918,-0.915 0.922,-0.914 0.93,-0.906 0.929,-0.898 0.938,-0.899 1.883,-1.781 0.949,-0.883 0.953,-0.879 0.957,-0.875 0.957,-0.871 0.965,-0.867 0.969,-0.867 0.972,-0.856 0.977,-0.855 0.98,-0.844 0.985,-0.847 0.992,-0.84 0.996,-0.836 0.996,-0.832 1.004,-0.828 1,-0.821 1.012,-0.82 1.015,-0.816 1.02,-0.809 1.023,-0.809 1.028,-0.8 1.031,-0.797 1.039,-0.793 1.039,-0.789 1.047,-0.785 1.051,-0.782 1.054,-0.777 1.059,-0.774 1.062,-0.769 1.067,-0.762 1.074,-0.758 2.164,-1.507 1.086,-0.746 1.086,-0.743 2.195,-1.468 1.106,-0.731 1.113,-0.723 1.113,-0.726 1.117,-0.711 1.126,-0.711 1.128,-0.707 1.137,-0.707 1.137,-0.695 1.14,-0.696 1.149,-0.691 1.152,-0.684 1.16,-0.679 1.164,-0.676 1.168,-0.672 1.172,-0.664 1.18,-0.664 1.18,-0.656 1.191,-0.657 1.192,-0.648 1.199,-0.641 1.203,-0.64 1.207,-0.637 1.215,-0.625 1.218,-0.625 1.227,-0.621 1.227,-0.613 1.234,-0.614 1.238,-0.609 1.246,-0.594 1.25,-0.597 1.254,-0.59 1.262,-0.586 1.266,-0.578 1.277,-0.575 1.273,-0.57 1.282,-0.566 1.289,-0.559 1.293,-0.555 1.297,-0.55 1.308,-0.543 1.309,-0.539 1.32,-0.532 1.316,-0.527 1.329,-0.523 1.332,-0.516 1.336,-0.512 1.351,-0.504 1.344,-0.5 1.355,-0.492 1.364,-0.492 1.367,-0.477 1.371,-0.48 1.379,-0.469 2.777,-0.922 1.395,-0.449 1.402,-0.445 1.414,-0.442 1.414,-0.433 1.422,-0.426 1.422,-0.422 1.433,-0.41 1.438,-0.406 1.445,-0.403 1.45,-0.398 1.457,-0.383 1.464,-0.379 1.473,-0.375 1.473,-0.363 1.488,-0.359 1.484,-0.352 1.493,-0.344 1.503,-0.34 1.508,-0.328 1.512,-0.324 1.523,-0.312 1.528,-0.309 1.531,-0.297 1.543,-0.293 1.543,-0.285 1.555,-0.274 1.566,-0.265 1.563,-0.258 1.57,-0.25 1.582,-0.242 1.586,-0.235 1.594,-0.226 1.605,-0.215 1.602,-0.207 1.613,-0.195 1.621,-0.192" /><path
         id="path74"
         style="fill:#000000;fill-opacity:1;fill-rule:nonzero;stroke:none"
         d="m 75.23,23.759 c 0,2.36 -0.75,3.531 -2.218,3.531 -1.469,0 -2.235,-1.187 -2.235,-3.468 0,-2.297 0.782,-3.469 2.235,-3.469 1.437,0 2.218,1.172 2.218,3.406 z m -0.859,0.078 c 0,-1.922 -0.437,-2.781 -1.375,-2.781 -0.891,0 -1.344,0.891 -1.344,2.75 0,1.875 0.453,2.734 1.36,2.734 0.906,0 1.359,-0.875 1.359,-2.703 z" /><path
         id="path76"
         style="fill:#000000;fill-opacity:1;fill-rule:nonzero;stroke:none"
         d="m 132.098,22.744 c 0,1.343 -0.891,2.234 -2.203,2.234 -0.469,0 -0.86,-0.125 -1.25,-0.422 l 0.265,1.766 2.828,0 0,0.828 -3.5,0 -0.515,-3.563 0.781,0 c 0.391,0.469 0.719,0.641 1.25,0.641 0.906,0 1.484,-0.594 1.484,-1.594 0,-0.984 -0.578,-1.531 -1.484,-1.531 -0.75,0 -1.203,0.375 -1.391,1.141 l -0.859,0 c 0.281,-1.36 1.047,-1.891 2.266,-1.891 1.375,0 2.328,0.953 2.328,2.391 z" /><path
         id="path78"
         style="fill:#000000;fill-opacity:1;fill-rule:nonzero;stroke:none"
         d="m 137.434,22.775 c 0,0.734 -0.063,1.187 -0.204,1.562 -0.328,0.828 -1.093,1.328 -2.031,1.328 -1.406,0 -2.297,-1.031 -2.297,-2.687 0,-1.656 0.86,-2.625 2.282,-2.625 1.14,0 1.937,0.656 2.14,1.672 l -0.797,0 c -0.218,-0.672 -0.672,-0.938 -1.312,-0.938 -0.844,0 -1.469,0.532 -1.485,1.688 l 3.704,0 z m -0.86,0.719 c 0,0 0,-0.047 0,-0.063 l -2.828,0 c 0.078,0.891 0.641,1.5 1.438,1.5 0.796,0 1.39,-0.656 1.39,-1.437 z" /><path
         id="path80"
         style="fill:#000000;fill-opacity:1;fill-rule:nonzero;stroke:none"
         d="m 142.77,22.415 c 0,0.75 -0.391,1.282 -1.172,1.657 0.703,0.422 0.937,0.765 0.937,1.406 0,1.062 -0.844,1.812 -2.047,1.812 -1.203,0 -2.047,-0.75 -2.047,-1.812 0,-0.625 0.235,-0.969 0.922,-1.406 -0.781,-0.375 -1.156,-0.907 -1.156,-1.657 0,-1.234 0.938,-2.062 2.281,-2.062 1.344,0 2.282,0.828 2.282,2.062 z m -1.11,3.047 c 0,-0.625 -0.469,-1.047 -1.172,-1.047 -0.718,0 -1.187,0.422 -1.187,1.063 0,0.641 0.469,1.062 1.187,1.062 0.719,0 1.172,-0.421 1.172,-1.078 z m 0.25,-3.062 c 0,-0.797 -0.578,-1.297 -1.437,-1.297 -0.828,0 -1.407,0.5 -1.407,1.297 0,0.797 0.579,1.297 1.422,1.297 0.844,0 1.422,-0.5 1.422,-1.297 z" /><path
         id="path82"
         style="fill:#000000;fill-opacity:1;fill-rule:nonzero;stroke:none"
         d="m 193.699,20.494 0,6.796 -0.562,0 c -0.297,-1.046 -0.485,-1.187 -1.782,-1.343 l 0,-0.61 1.5,0 0,-4.843 0.844,0 z" /><path
         id="path84"
         style="fill:#000000;fill-opacity:1;fill-rule:nonzero;stroke:none"
         d="m 200.629,22.775 c 0,0.734 -0.063,1.187 -0.203,1.562 -0.328,0.828 -1.094,1.328 -2.031,1.328 -1.407,0 -2.297,-1.031 -2.297,-2.687 0,-1.656 0.859,-2.625 2.281,-2.625 1.141,0 1.937,0.656 2.141,1.672 l -0.797,0 c -0.219,-0.672 -0.672,-0.938 -1.313,-0.938 -0.844,0 -1.469,0.532 -1.484,1.688 l 3.703,0 z m -0.859,0.719 c 0,0 0,-0.047 0,-0.063 l -2.829,0 c 0.079,0.891 0.641,1.5 1.438,1.5 0.797,0 1.391,-0.656 1.391,-1.437 z" /><path
         id="path86"
         style="fill:#000000;fill-opacity:1;fill-rule:nonzero;stroke:none"
         d="m 205.938,24.056 c 0,2.125 -0.75,3.234 -2.297,3.234 -1.297,0 -2.235,-0.921 -2.235,-2.25 0,-1.265 0.875,-2.125 2.094,-2.125 0.641,0 1.109,0.235 1.562,0.766 -0.015,-1.656 -0.546,-2.578 -1.515,-2.578 -0.594,0 -1.016,0.375 -1.141,1.016 l -0.844,0 c 0.157,-1.11 0.891,-1.766 1.922,-1.766 1.594,0 2.454,1.344 2.454,3.703 z m -0.922,1 c 0,-0.828 -0.594,-1.391 -1.422,-1.391 -0.813,0 -1.313,0.532 -1.313,1.438 0,0.875 0.563,1.453 1.344,1.453 0.797,0 1.391,-0.609 1.391,-1.5 z" /><path
         id="path88"
         style="fill:#000000;fill-opacity:1;fill-rule:nonzero;stroke:none"
         d="m 252.098,20.494 0,6.796 -0.563,0 c -0.297,-1.046 -0.484,-1.187 -1.781,-1.343 l 0,-0.61 1.5,0 0,-4.843 0.844,0 z" /><path
         id="path90"
         style="fill:#000000;fill-opacity:1;fill-rule:nonzero;stroke:none"
         d="m 254.934,21.494 1,0 0,-1 -1,0 0,1 z" /><path
         id="path92"
         style="fill:#000000;fill-opacity:1;fill-rule:nonzero;stroke:none"
         d="m 261.695,22.744 c 0,1.343 -0.89,2.234 -2.203,2.234 -0.469,0 -0.859,-0.125 -1.25,-0.422 l 0.266,1.766 2.828,0 0,0.828 -3.5,0 -0.516,-3.563 0.782,0 c 0.39,0.469 0.718,0.641 1.25,0.641 0.906,0 1.484,-0.594 1.484,-1.594 0,-0.984 -0.578,-1.531 -1.484,-1.531 -0.75,0 -1.204,0.375 -1.391,1.141 l -0.859,0 c 0.281,-1.36 1.046,-1.891 2.265,-1.891 1.375,0 2.328,0.953 2.328,2.391 z" /><path
         id="path94"
         style="fill:#000000;fill-opacity:1;fill-rule:nonzero;stroke:none"
         d="m 267.035,22.775 c 0,0.734 -0.062,1.187 -0.203,1.562 -0.328,0.828 -1.094,1.328 -2.031,1.328 -1.406,0 -2.297,-1.031 -2.297,-2.687 0,-1.656 0.859,-2.625 2.281,-2.625 1.141,0 1.938,0.656 2.141,1.672 l -0.797,0 c -0.219,-0.672 -0.672,-0.938 -1.313,-0.938 -0.843,0 -1.468,0.532 -1.484,1.688 l 3.703,0 z m -0.859,0.719 c 0,0 0,-0.047 0,-0.063 l -2.828,0 c 0.078,0.891 0.64,1.5 1.437,1.5 0.797,0 1.391,-0.656 1.391,-1.437 z" /><path
         id="path96"
         style="fill:#000000;fill-opacity:1;fill-rule:nonzero;stroke:none"
         d="m 272.34,24.056 c 0,2.125 -0.75,3.234 -2.297,3.234 -1.297,0 -2.234,-0.921 -2.234,-2.25 0,-1.265 0.875,-2.125 2.093,-2.125 0.641,0 1.11,0.235 1.563,0.766 -0.016,-1.656 -0.547,-2.578 -1.516,-2.578 -0.594,0 -1.015,0.375 -1.14,1.016 l -0.844,0 c 0.156,-1.11 0.89,-1.766 1.922,-1.766 1.593,0 2.453,1.344 2.453,3.703 z m -0.922,1 c 0,-0.828 -0.594,-1.391 -1.422,-1.391 -0.812,0 -1.312,0.532 -1.312,1.438 0,0.875 0.562,1.453 1.343,1.453 0.797,0 1.391,-0.609 1.391,-1.5 z" /><path
         id="path98"
         style="fill:#000000;fill-opacity:1;fill-rule:nonzero;stroke:none"
         d="m 322.477,25.306 c 0,1.141 -0.891,1.984 -2.188,1.984 -1.391,0 -2.187,-0.703 -2.234,-2.359 l 0.843,0 c 0.063,1.141 0.532,1.625 1.375,1.625 0.766,0 1.329,-0.547 1.329,-1.281 0,-0.531 -0.313,-0.985 -0.907,-1.344 l -0.89,-0.5 c -1.422,-0.797 -1.828,-1.437 -1.907,-2.937 l 4.532,0 0,0.828 -3.578,0 c 0.078,0.562 0.39,0.922 1.218,1.406 l 0.969,0.516 c 0.938,0.515 1.438,1.218 1.438,2.062 z" /><path
         id="path100"
         style="fill:#000000;fill-opacity:1;fill-rule:nonzero;stroke:none"
         d="m 327.832,22.775 c 0,0.734 -0.062,1.187 -0.203,1.562 -0.328,0.828 -1.094,1.328 -2.031,1.328 -1.407,0 -2.297,-1.031 -2.297,-2.687 0,-1.656 0.859,-2.625 2.281,-2.625 1.141,0 1.938,0.656 2.141,1.672 l -0.797,0 c -0.219,-0.672 -0.672,-0.938 -1.313,-0.938 -0.843,0 -1.468,0.532 -1.484,1.688 l 3.703,0 z m -0.859,0.719 c 0,0 0,-0.047 0,-0.063 l -2.828,0 c 0.078,0.891 0.64,1.5 1.437,1.5 0.797,0 1.391,-0.656 1.391,-1.437 z" /><path
         id="path102"
         style="fill:#000000;fill-opacity:1;fill-rule:nonzero;stroke:none"
         d="m 333.137,24.056 c 0,2.125 -0.75,3.234 -2.297,3.234 -1.297,0 -2.235,-0.921 -2.235,-2.25 0,-1.265 0.875,-2.125 2.094,-2.125 0.641,0 1.11,0.235 1.563,0.766 -0.016,-1.656 -0.547,-2.578 -1.516,-2.578 -0.594,0 -1.016,0.375 -1.141,1.016 l -0.843,0 c 0.156,-1.11 0.89,-1.766 1.922,-1.766 1.593,0 2.453,1.344 2.453,3.703 z m -0.922,1 c 0,-0.828 -0.594,-1.391 -1.422,-1.391 -0.813,0 -1.313,0.532 -1.313,1.438 0,0.875 0.563,1.453 1.344,1.453 0.797,0 1.391,-0.609 1.391,-1.5 z" /><path
         id="path104"
         style="fill:#000000;fill-opacity:1;fill-rule:nonzero;stroke:none"
         d="m 380.879,25.306 c 0,1.141 -0.891,1.984 -2.188,1.984 -1.39,0 -2.187,-0.703 -2.234,-2.359 l 0.844,0 c 0.062,1.141 0.531,1.625 1.375,1.625 0.765,0 1.328,-0.547 1.328,-1.281 0,-0.531 -0.313,-0.985 -0.906,-1.344 l -0.891,-0.5 c -1.422,-0.797 -1.828,-1.437 -1.906,-2.937 l 4.531,0 0,0.828 -3.578,0 c 0.078,0.562 0.391,0.922 1.219,1.406 l 0.968,0.516 c 0.938,0.515 1.438,1.218 1.438,2.062 z" /><path
         id="path106"
         style="fill:#000000;fill-opacity:1;fill-rule:nonzero;stroke:none"
         d="m 382.137,21.494 1,0 0,-1 -1,0 0,1 z" /><path
         id="path108"
         style="fill:#000000;fill-opacity:1;fill-rule:nonzero;stroke:none"
         d="m 388.898,22.744 c 0,1.343 -0.89,2.234 -2.203,2.234 -0.468,0 -0.859,-0.125 -1.25,-0.422 l 0.266,1.766 2.828,0 0,0.828 -3.5,0 -0.516,-3.563 0.782,0 c 0.39,0.469 0.718,0.641 1.25,0.641 0.906,0 1.484,-0.594 1.484,-1.594 0,-0.984 -0.578,-1.531 -1.484,-1.531 -0.75,0 -1.203,0.375 -1.391,1.141 l -0.859,0 c 0.281,-1.36 1.047,-1.891 2.265,-1.891 1.375,0 2.328,0.953 2.328,2.391 z" /><path
         id="path110"
         style="fill:#000000;fill-opacity:1;fill-rule:nonzero;stroke:none"
         d="m 394.238,22.775 c 0,0.734 -0.062,1.187 -0.203,1.562 -0.328,0.828 -1.094,1.328 -2.031,1.328 -1.406,0 -2.297,-1.031 -2.297,-2.687 0,-1.656 0.859,-2.625 2.281,-2.625 1.141,0 1.938,0.656 2.141,1.672 l -0.797,0 c -0.219,-0.672 -0.672,-0.938 -1.312,-0.938 -0.844,0 -1.469,0.532 -1.485,1.688 l 3.703,0 z m -0.859,0.719 c 0,0 0,-0.047 0,-0.063 l -2.828,0 c 0.078,0.891 0.64,1.5 1.437,1.5 0.797,0 1.391,-0.656 1.391,-1.437 z" /><path
         id="path112"
         style="fill:#000000;fill-opacity:1;fill-rule:nonzero;stroke:none"
         d="m 399.543,24.056 c 0,2.125 -0.75,3.234 -2.297,3.234 -1.297,0 -2.234,-0.921 -2.234,-2.25 0,-1.265 0.875,-2.125 2.093,-2.125 0.641,0 1.11,0.235 1.563,0.766 -0.016,-1.656 -0.547,-2.578 -1.516,-2.578 -0.593,0 -1.015,0.375 -1.14,1.016 l -0.844,0 c 0.156,-1.11 0.891,-1.766 1.922,-1.766 1.594,0 2.453,1.344 2.453,3.703 z m -0.922,1 c 0,-0.828 -0.594,-1.391 -1.422,-1.391 -0.812,0 -1.312,0.532 -1.312,1.438 0,0.875 0.562,1.453 1.343,1.453 0.797,0 1.391,-0.609 1.391,-1.5 z" /><path
         id="path114"
         style="fill:#000000;fill-opacity:1;fill-rule:nonzero;stroke:none"
         d="m 449.633,22.462 c 0,0.828 -0.344,1.313 -1.156,1.594 0.64,0.25 0.953,0.688 0.953,1.375 0,1.172 -0.782,1.859 -2.078,1.859 -1.375,0 -2.094,-0.75 -2.125,-2.187 l 0.843,0 c 0.016,1 0.438,1.453 1.297,1.453 0.75,0 1.203,-0.437 1.203,-1.156 0,-0.735 -0.328,-1.031 -1.672,-1.031 l 0,-0.704 0.454,0 c 0.937,0 1.406,-0.453 1.406,-1.203 0,-0.859 -0.516,-1.359 -1.406,-1.359 -0.922,0 -1.375,0.453 -1.422,1.437 l -0.844,0 c 0.094,-1.515 0.844,-2.187 2.234,-2.187 1.407,0 2.313,0.828 2.313,2.109 z" /><path
         id="path116"
         style="fill:#000000;fill-opacity:1;fill-rule:nonzero;stroke:none"
         d="m 455.035,22.775 c 0,0.734 -0.062,1.187 -0.203,1.562 -0.328,0.828 -1.094,1.328 -2.031,1.328 -1.406,0 -2.297,-1.031 -2.297,-2.687 0,-1.656 0.859,-2.625 2.281,-2.625 1.141,0 1.938,0.656 2.141,1.672 l -0.797,0 c -0.219,-0.672 -0.672,-0.938 -1.313,-0.938 -0.843,0 -1.468,0.532 -1.484,1.688 l 3.703,0 z m -0.859,0.719 c 0,0 0,-0.047 0,-0.063 l -2.828,0 c 0.078,0.891 0.64,1.5 1.437,1.5 0.797,0 1.391,-0.656 1.391,-1.437 z" /><path
         id="path118"
         style="fill:#000000;fill-opacity:1;fill-rule:nonzero;stroke:none"
         d="m 460.34,24.056 c 0,2.125 -0.75,3.234 -2.297,3.234 -1.297,0 -2.234,-0.921 -2.234,-2.25 0,-1.265 0.875,-2.125 2.093,-2.125 0.641,0 1.11,0.235 1.563,0.766 -0.016,-1.656 -0.547,-2.578 -1.516,-2.578 -0.594,0 -1.015,0.375 -1.14,1.016 l -0.844,0 c 0.156,-1.11 0.89,-1.766 1.922,-1.766 1.593,0 2.453,1.344 2.453,3.703 z m -0.922,1 c 0,-0.828 -0.594,-1.391 -1.422,-1.391 -0.812,0 -1.312,0.532 -1.312,1.438 0,0.875 0.562,1.453 1.343,1.453 0.797,0 1.391,-0.609 1.391,-1.5 z" /><path
         id="path120"
         style="fill:#000000;fill-opacity:1;fill-rule:nonzero;stroke:none"
         d="m 50.008,33.091 2.281,0 0,-0.703 -2.281,0 0,0.703 z" /><path
         id="path122"
         style="fill:#000000;fill-opacity:1;fill-rule:nonzero;stroke:none"
         d="m 57.691,32.341 c 0,1.344 -0.89,2.235 -2.203,2.235 -0.468,0 -0.859,-0.125 -1.25,-0.422 l 0.266,1.765 2.828,0 0,0.828 -3.5,0 -0.516,-3.562 0.782,0 c 0.39,0.469 0.718,0.641 1.25,0.641 0.906,0 1.484,-0.594 1.484,-1.594 0,-0.985 -0.578,-1.531 -1.484,-1.531 -0.75,0 -1.203,0.375 -1.391,1.14 l -0.859,0 c 0.281,-1.359 1.047,-1.89 2.265,-1.89 1.375,0 2.328,0.953 2.328,2.39 z" /><path
         id="path124"
         style="fill:#000000;fill-opacity:1;fill-rule:nonzero;stroke:none"
         d="m 62.965,33.357 c 0,2.359 -0.75,3.531 -2.219,3.531 -1.469,0 -2.234,-1.187 -2.234,-3.469 0,-2.297 0.781,-3.468 2.234,-3.468 1.438,0 2.219,1.171 2.219,3.406 z m -0.86,0.078 c 0,-1.922 -0.437,-2.781 -1.375,-2.781 -0.89,0 -1.343,0.89 -1.343,2.75 0,1.875 0.453,2.734 1.359,2.734 0.906,0 1.359,-0.875 1.359,-2.703 z" /><path
         id="path126"
         style="fill:#000000;fill-opacity:1;fill-rule:nonzero;stroke:none"
         d="m 50.008,81.091 2.281,0 0,-0.703 -2.281,0 0,0.703 z" /><path
         id="path128"
         style="fill:#000000;fill-opacity:1;fill-rule:nonzero;stroke:none"
         d="m 57.754,79.716 0,0.766 -1,0 0,4.406 -0.625,0 -3.094,-4.281 0,-0.891 2.875,0 0,-1.625 0.844,0 0,1.625 1,0 z m -1.844,0.766 -2.14,0 2.14,2.969 0,-2.969 z" /><path
         id="path130"
         style="fill:#000000;fill-opacity:1;fill-rule:nonzero;stroke:none"
         d="m 62.965,81.357 c 0,2.359 -0.75,3.531 -2.219,3.531 -1.469,0 -2.234,-1.187 -2.234,-3.469 0,-2.297 0.781,-3.468 2.234,-3.468 1.438,0 2.219,1.171 2.219,3.406 z m -0.86,0.078 c 0,-1.922 -0.437,-2.781 -1.375,-2.781 -0.89,0 -1.343,0.89 -1.343,2.75 0,1.875 0.453,2.734 1.359,2.734 0.906,0 1.359,-0.875 1.359,-2.703 z" /><path
         id="path132"
         style="fill:#000000;fill-opacity:1;fill-rule:nonzero;stroke:none"
         d="m 50.008,128.294 2.281,0 0,-0.703 -2.281,0 0,0.703 z" /><path
         id="path134"
         style="fill:#000000;fill-opacity:1;fill-rule:nonzero;stroke:none"
         d="m 57.629,127.263 c 0,0.828 -0.344,1.313 -1.156,1.594 0.64,0.25 0.953,0.687 0.953,1.375 0,1.172 -0.781,1.859 -2.078,1.859 -1.375,0 -2.094,-0.75 -2.125,-2.187 l 0.843,0 c 0.016,1 0.438,1.453 1.297,1.453 0.75,0 1.203,-0.438 1.203,-1.156 0,-0.735 -0.328,-1.032 -1.671,-1.032 l 0,-0.703 0.453,0 c 0.937,0 1.406,-0.453 1.406,-1.203 0,-0.859 -0.516,-1.359 -1.406,-1.359 -0.922,0 -1.375,0.453 -1.422,1.437 l -0.844,0 c 0.094,-1.515 0.844,-2.187 2.234,-2.187 1.407,0 2.313,0.828 2.313,2.109 z" /><path
         id="path136"
         style="fill:#000000;fill-opacity:1;fill-rule:nonzero;stroke:none"
         d="m 62.965,128.56 c 0,2.359 -0.75,3.531 -2.219,3.531 -1.469,0 -2.234,-1.187 -2.234,-3.469 0,-2.296 0.781,-3.468 2.234,-3.468 1.438,0 2.219,1.172 2.219,3.406 z m -0.86,0.078 c 0,-1.922 -0.437,-2.781 -1.375,-2.781 -0.89,0 -1.343,0.89 -1.343,2.75 0,1.875 0.453,2.734 1.359,2.734 0.906,0 1.359,-0.875 1.359,-2.703 z" /><path
         id="path138"
         style="fill:#000000;fill-opacity:1;fill-rule:nonzero;stroke:none"
         d="m 50.008,176.294 2.281,0 0,-0.703 -2.281,0 0,0.703 z" /><path
         id="path140"
         style="fill:#000000;fill-opacity:1;fill-rule:nonzero;stroke:none"
         d="m 57.676,178.107 c 0,1.14 -0.891,1.984 -2.188,1.984 -1.39,0 -2.187,-0.703 -2.234,-2.359 l 0.844,0 c 0.062,1.14 0.531,1.625 1.375,1.625 0.765,0 1.328,-0.547 1.328,-1.281 0,-0.532 -0.313,-0.985 -0.906,-1.344 l -0.891,-0.5 c -1.422,-0.797 -1.828,-1.438 -1.906,-2.938 l 4.531,0 0,0.828 -3.578,0 c 0.078,0.563 0.39,0.922 1.219,1.407 l 0.968,0.515 c 0.938,0.516 1.438,1.219 1.438,2.063 z" /><path
         id="path142"
         style="fill:#000000;fill-opacity:1;fill-rule:nonzero;stroke:none"
         d="m 62.965,176.56 c 0,2.359 -0.75,3.531 -2.219,3.531 -1.469,0 -2.234,-1.187 -2.234,-3.469 0,-2.296 0.781,-3.468 2.234,-3.468 1.438,0 2.219,1.172 2.219,3.406 z m -0.86,0.078 c 0,-1.922 -0.437,-2.781 -1.375,-2.781 -0.89,0 -1.343,0.89 -1.343,2.75 0,1.875 0.453,2.734 1.359,2.734 0.906,0 1.359,-0.875 1.359,-2.703 z" /><path
         id="path144"
         style="fill:#000000;fill-opacity:1;fill-rule:nonzero;stroke:none"
         d="m 50.008,224.294 2.281,0 0,-0.703 -2.281,0 0,0.703 z" /><path
         id="path146"
         style="fill:#000000;fill-opacity:1;fill-rule:nonzero;stroke:none"
         d="m 56.098,221.294 0,6.797 -0.563,0 c -0.297,-1.047 -0.484,-1.187 -1.781,-1.344 l 0,-0.609 1.5,0 0,-4.844 0.844,0 z" /><path
         id="path148"
         style="fill:#000000;fill-opacity:1;fill-rule:nonzero;stroke:none"
         d="m 62.965,224.56 c 0,2.359 -0.75,3.531 -2.219,3.531 -1.469,0 -2.234,-1.187 -2.234,-3.469 0,-2.296 0.781,-3.468 2.234,-3.468 1.438,0 2.219,1.172 2.219,3.406 z m -0.86,0.078 c 0,-1.922 -0.437,-2.781 -1.375,-2.781 -0.89,0 -1.343,0.89 -1.343,2.75 0,1.875 0.453,2.734 1.359,2.734 0.906,0 1.359,-0.875 1.359,-2.703 z" /><path
         id="path150"
         style="fill:#000000;fill-opacity:1;fill-rule:nonzero;stroke:none"
         d="m 65.629,271.759 c 0,2.36 -0.75,3.531 -2.219,3.531 -1.469,0 -2.234,-1.187 -2.234,-3.468 0,-2.297 0.781,-3.469 2.234,-3.469 1.438,0 2.219,1.172 2.219,3.406 z m -0.859,0.078 c 0,-1.922 -0.438,-2.781 -1.375,-2.781 -0.891,0 -1.344,0.891 -1.344,2.75 0,1.875 0.453,2.734 1.359,2.734 0.906,0 1.36,-0.875 1.36,-2.703 z" /><path
         id="path152"
         style="fill:#000000;fill-opacity:1;fill-rule:nonzero;stroke:none"
         d="m 225.535,8.294 0,0.797 -4.703,0 0,-7 0.891,0 0,3.188 3.343,0 0,0.781 -3.343,0 0,2.234 3.812,0 z" /><path
         id="path154"
         style="fill:#000000;fill-opacity:1;fill-rule:nonzero;stroke:none"
         d="m 228.578,6.419 0,0.813 c -0.14,0.015 -0.203,0.031 -0.312,0.031 -0.516,0 -0.907,-0.312 -1.36,-1.062 l 0,0.921 -0.734,0 0,-5.031 0.797,0 0,2.61 c 0,1.125 0.375,1.703 1.609,1.718 z" /><path
         id="path156"
         style="fill:#000000;fill-opacity:1;fill-rule:nonzero;stroke:none"
         d="m 233.531,4.372 c 0,0.735 -0.062,1.188 -0.203,1.563 -0.328,0.828 -1.094,1.328 -2.031,1.328 -1.406,0 -2.297,-1.031 -2.297,-2.687 0,-1.657 0.859,-2.625 2.281,-2.625 1.141,0 1.938,0.656 2.141,1.671 l -0.797,0 c -0.219,-0.671 -0.672,-0.937 -1.313,-0.937 -0.843,0 -1.468,0.531 -1.484,1.687 l 3.703,0 z m -0.859,0.719 c 0,0 0,-0.047 0,-0.062 l -2.828,0 c 0.078,0.89 0.64,1.5 1.437,1.5 0.797,0 1.391,-0.657 1.391,-1.438 z m 0.344,4 -1.094,0 -0.922,-1.422 0.578,0 1.438,1.422 z" /><path
         id="path158"
         style="fill:#000000;fill-opacity:1;fill-rule:nonzero;stroke:none"
         d="m 238.699,-0.003 0,7.125 -0.719,0 0,-0.671 c -0.359,0.531 -0.937,0.812 -1.593,0.812 -1.328,0 -2.188,-1.047 -2.188,-2.719 0,-1.625 0.828,-2.593 2.141,-2.593 0.703,0 1.187,0.25 1.562,0.796 l 0,-2.75 0.797,0 z m -0.797,4.579 c 0,-1.157 -0.562,-1.875 -1.406,-1.875 -0.875,0 -1.469,0.734 -1.469,1.906 0,1.156 0.594,1.906 1.469,1.906 0.859,0 1.406,-0.766 1.406,-1.937 z" /><path
         id="path160"
         style="fill:#000000;fill-opacity:1;fill-rule:nonzero;stroke:none"
         d="m 243.988,2.091 0,5.031 -0.797,0 0,-2.781 c 0,-1.015 -0.531,-1.687 -1.375,-1.687 -0.625,0 -1.031,0.375 -1.031,0.984 l 0,3.484 -0.797,0 0,-3.796 c 0,-0.844 0.625,-1.375 1.594,-1.375 0.75,0 1.219,0.25 1.688,0.921 l 0,-0.781 0.718,0 z" /><path
         id="path162"
         style="fill:#000000;fill-opacity:1;fill-rule:nonzero;stroke:none"
         d="m 249.621,4.372 c 0,0.735 -0.062,1.188 -0.203,1.563 -0.328,0.828 -1.094,1.328 -2.031,1.328 -1.407,0 -2.297,-1.031 -2.297,-2.687 0,-1.657 0.859,-2.625 2.281,-2.625 1.141,0 1.938,0.656 2.141,1.671 l -0.797,0 c -0.219,-0.671 -0.672,-0.937 -1.313,-0.937 -0.843,0 -1.468,0.531 -1.484,1.687 l 3.703,0 z m -0.859,0.719 c 0,0 0,-0.047 0,-0.062 l -2.828,0 c 0.078,0.89 0.64,1.5 1.437,1.5 0.797,0 1.391,-0.657 1.391,-1.438 z" /><path
         id="path164"
         style="fill:#000000;fill-opacity:1;fill-rule:nonzero;stroke:none"
         d="m 254.711,2.091 0,3.797 c 0,0.844 -0.625,1.375 -1.594,1.375 -0.75,0 -1.219,-0.281 -1.672,-0.984 l 0,0.843 -0.734,0 0,-5.031 0.797,0 0,2.766 c 0,1.031 0.562,1.703 1.375,1.703 0.625,0 1.031,-0.375 1.031,-0.984 l 0,-3.485 0.797,0 z" /><path
         id="path166"
         style="fill:#000000;fill-opacity:1;fill-rule:nonzero;stroke:none"
         d="m 259.953,3.826 -0.812,0 c -0.125,-0.813 -0.547,-1.141 -1.219,-1.141 -0.891,0 -1.422,0.687 -1.422,1.875 0,1.25 0.531,1.969 1.391,1.969 0.671,0 1.093,-0.407 1.203,-1.094 l 0.797,0 c -0.094,1.219 -0.86,1.828 -1.985,1.828 -1.344,0 -2.234,-1.031 -2.234,-2.703 0,-1.625 0.859,-2.609 2.219,-2.609 1.203,0 1.968,0.718 2.062,1.875 z" /><path
         id="path168"
         style="fill:#000000;fill-opacity:1;fill-rule:nonzero;stroke:none"
         d="m 265.098,4.372 c 0,0.735 -0.063,1.188 -0.203,1.563 -0.329,0.828 -1.094,1.328 -2.032,1.328 -1.406,0 -2.297,-1.031 -2.297,-2.687 0,-1.657 0.86,-2.625 2.282,-2.625 1.14,0 1.937,0.656 2.14,1.671 l -0.797,0 c -0.218,-0.671 -0.671,-0.937 -1.312,-0.937 -0.844,0 -1.469,0.531 -1.484,1.687 l 3.703,0 z m -0.86,0.719 c 0,0 0,-0.047 0,-0.062 l -2.828,0 c 0.078,0.89 0.641,1.5 1.438,1.5 0.797,0 1.39,-0.657 1.39,-1.438 z" /><path
         id="path170"
         style="fill:#000000;fill-opacity:1;fill-rule:nonzero;stroke:none"
         d="m 270.98,0.06 c -0.843,1.375 -1.312,2.984 -1.312,4.516 0,1.531 0.469,3.14 1.312,4.515 l -0.531,0 c -0.953,-1.265 -1.562,-3.015 -1.562,-4.515 0,-1.516 0.609,-3.266 1.562,-4.516 l 0.531,0 z" /><path
         id="path172"
         style="fill:#000000;fill-opacity:1;fill-rule:nonzero;stroke:none"
         d="m 277.578,2.091 0,7 -0.89,0 0,-3.031 -3.594,0 0,3.031 -0.891,0 0,-7 0.891,0 0,3.188 3.594,0 0,-3.188 0.89,0 z" /><path
         id="path174"
         style="fill:#000000;fill-opacity:1;fill-rule:nonzero;stroke:none"
         d="m 282.73,2.091 0,0.703 -3.125,0 2.985,3.61 0,0.718 -3.75,0 0,-0.703 2.797,0 -3,-3.609 0,-0.719 4.093,0 z" /><path
         id="path176"
         style="fill:#000000;fill-opacity:1;fill-rule:nonzero;stroke:none"
         d="m 285.594,4.56 c 0,1.516 -0.594,3.266 -1.563,4.531 l -0.531,0 c 0.844,-1.375 1.312,-2.984 1.312,-4.531 0,-1.516 -0.468,-3.141 -1.312,-4.5 l 0.531,0 c 0.969,1.25 1.563,3 1.563,4.5 z" /><path
         id="path178"
         style="fill:#ff0000;fill-opacity:1;fill-rule:nonzero;stroke:none"
         d="m 37.77,127.779 -0.797,0 0,-5.485 0.797,0 0,2.297 6.203,0 0,0.891 -6.203,0 0,2.297 z" /><path
         id="path180"
         style="fill:#ff0000;fill-opacity:1;fill-rule:nonzero;stroke:none"
         d="m 39.035,133.88 c -1.312,0 -2.062,-0.781 -2.062,-2.156 l 0,-2.891 7,0 0,0.891 -2.969,0 0,2.203 c 0,1.141 -0.813,1.953 -1.969,1.953 z m -0.047,-0.937 c 0.766,0 1.235,-0.5 1.235,-1.36 l 0,-1.859 -2.453,0 0,1.859 c 0,0.86 0.453,1.36 1.218,1.36 z" /><path
         id="path182"
         style="fill:#ff0000;fill-opacity:1;fill-rule:nonzero;stroke:none"
         d="m 39.16,139.267 c -1.14,0 -1.984,-0.891 -1.984,-2.187 0,-1.391 0.703,-2.188 2.359,-2.235 l 0,0.844 c -1.14,0.062 -1.625,0.531 -1.625,1.375 0,0.766 0.547,1.328 1.281,1.328 0.532,0 0.985,-0.312 1.344,-0.906 l 0.5,-0.891 c 0.797,-1.422 1.438,-1.828 2.938,-1.906 l 0,4.531 -0.828,0 0,-3.578 c -0.563,0.078 -0.922,0.391 -1.407,1.219 l -0.515,0.969 c -0.516,0.937 -1.219,1.437 -2.063,1.437 z" /><path
         id="path184"
         style="fill:#ff0000;fill-opacity:1;fill-rule:nonzero;stroke:none"
         d="m 45.191,145.247 0.484,0 0,-5.766 -0.484,0 0,5.766 z" /><path
         id="path186"
         style="fill:#ff0000;fill-opacity:1;fill-rule:nonzero;stroke:none"
         d="m 43.973,150.173 -0.782,0 0,-3.453 -6.218,0 0,-0.89 7,0 0,4.343 z" /><path
         id="path188"
         style="fill:#ff0000;fill-opacity:1;fill-rule:nonzero;stroke:none"
         d="m 41.426,156.529 0,-0.922 c 1.312,-0.219 1.937,-0.766 1.937,-1.953 0,-1.391 -1.062,-2.266 -2.812,-2.266 -1.797,0 -2.953,0.844 -2.953,2.188 0,1.093 0.484,1.671 1.547,1.89 l 0,0.906 c -1.532,-0.265 -2.344,-1.156 -2.344,-2.687 0,-2.125 1.719,-3.203 3.75,-3.203 2.047,0 3.594,1.109 3.594,3.156 0,1.719 -0.907,2.672 -2.719,2.891 z" /><path
         id="path190"
         style="fill:#ff0000;fill-opacity:1;fill-rule:nonzero;stroke:none"
         d="m 43.973,158.787 -1,0 0,-1 1,0 0,1 z m -4.032,0 -1,0 0,-1 1,0 0,1 z" /><path
         id="path192"
         style="fill:#ff0000;fill-opacity:1;fill-rule:nonzero;stroke:none"
         d="m 43.973,164.38 -7,0 0,-0.797 2.609,0 c -0.516,-0.343 -0.781,-0.875 -0.781,-1.546 0,-1.297 1.015,-2.157 2.609,-2.157 1.703,0 2.703,0.828 2.703,2.188 0,0.687 -0.25,1.172 -0.875,1.594 l 0.735,0 0,0.718 z m -2.5,-0.797 c 1.172,0 1.89,-0.562 1.89,-1.406 0,-0.875 -0.734,-1.469 -1.906,-1.469 -1.172,0 -1.906,0.594 -1.906,1.469 0,0.86 0.765,1.406 1.922,1.406 z" /><path
         id="path194"
         style="fill:#ff0000;fill-opacity:1;fill-rule:nonzero;stroke:none"
         d="m 41.973,170.951 c -0.844,0 -1.344,-0.391 -1.688,-1.282 -0.297,0.625 -0.828,0.969 -1.531,0.969 -1.016,0 -1.781,-0.75 -1.781,-2.078 l 0,-2.828 7,0 0,3.156 c 0,1.25 -0.844,2.063 -2,2.063 z m -3.094,-1.204 c 0.703,0 1.109,-0.421 1.109,-1.406 l 0,-1.719 -2.218,0 0,1.719 c 0,0.985 0.406,1.406 1.109,1.406 z m 3.109,0.297 c 0.672,0 1.203,-0.406 1.203,-1.25 l 0,-2.172 -2.406,0 0,2.172 c 0,0.844 0.516,1.25 1.203,1.25 z" /><path
         id="path196"
         style="fill:#ff0000;fill-opacity:1;fill-rule:nonzero;stroke:none"
         d="m 42.051,177.322 c -0.86,0 -1.5,-0.532 -1.75,-1.485 l -0.469,-1.75 c -0.219,-0.843 -0.5,-1.156 -1.047,-1.156 -0.703,0 -1.234,0.625 -1.234,1.563 0,1.109 0.515,1.75 1.422,1.75 l 0,0.843 c -1.375,0 -2.172,-0.953 -2.172,-2.562 0,-1.531 0.844,-2.485 2.109,-2.485 0.86,0 1.391,0.454 1.641,1.375 l 0.453,1.735 c 0.234,0.875 0.594,1.281 1.141,1.281 0.765,0 1.218,-0.578 1.218,-1.781 0,-1.328 -0.672,-1.969 -1.672,-1.969 l 0,-0.859 c 1.657,0 2.454,1.125 2.454,2.765 0,1.782 -0.844,2.735 -2.094,2.735 z" /><path
         id="path198"
         style="fill:#ff0000;fill-opacity:1;fill-rule:nonzero;stroke:none"
         d="m 39.16,182.708 c -1.14,0 -1.984,-0.89 -1.984,-2.187 0,-1.391 0.703,-2.188 2.359,-2.234 l 0,0.843 c -1.14,0.063 -1.625,0.532 -1.625,1.375 0,0.766 0.547,1.328 1.281,1.328 0.532,0 0.985,-0.312 1.344,-0.906 l 0.5,-0.89 c 0.797,-1.422 1.438,-1.829 2.938,-1.907 l 0,4.532 -0.828,0 0,-3.579 c -0.563,0.079 -0.922,0.391 -1.407,1.219 l -0.515,0.969 c -0.516,0.937 -1.219,1.437 -2.063,1.437 z" /><path
         id="path200"
         style="fill:#ff0000;fill-opacity:1;fill-rule:nonzero;stroke:none"
         d="m 43.973,186.466 -6.797,0 0,-0.562 c 1.047,-0.297 1.187,-0.485 1.344,-1.782 l 0.609,0 0,1.5 4.844,0 0,0.844 z" /><path
         id="path202"
         style="fill:#ff00ff;fill-opacity:1;fill-rule:nonzero;stroke:none"
         d="m 25.57,133.244 -7,0 0,-0.797 2.61,0 c -0.516,-0.344 -0.782,-0.875 -0.782,-1.547 0,-1.297 1.016,-2.156 2.61,-2.156 1.703,0 2.703,0.828 2.703,2.187 0,0.688 -0.25,1.172 -0.875,1.594 l 0.734,0 0,0.719 z m -2.5,-0.797 c 1.172,0 1.891,-0.563 1.891,-1.407 0,-0.875 -0.734,-1.468 -1.906,-1.468 -1.172,0 -1.907,0.593 -1.907,1.468 0,0.86 0.766,1.407 1.922,1.407 z" /><path
         id="path204"
         style="fill:#ff00ff;fill-opacity:1;fill-rule:nonzero;stroke:none"
         d="m 23.57,139.814 c -0.843,0 -1.343,-0.391 -1.687,-1.281 -0.297,0.625 -0.828,0.968 -1.531,0.968 -1.016,0 -1.782,-0.75 -1.782,-2.078 l 0,-2.828 7,0 0,3.156 c 0,1.25 -0.843,2.063 -2,2.063 z m -3.093,-1.203 c 0.703,0 1.109,-0.422 1.109,-1.406 l 0,-1.719 -2.219,0 0,1.719 c 0,0.984 0.406,1.406 1.11,1.406 z m 3.109,0.297 c 0.672,0 1.203,-0.407 1.203,-1.25 l 0,-2.172 -2.406,0 0,2.172 c 0,0.843 0.515,1.25 1.203,1.25 z" /><path
         id="path206"
         style="fill:#ff00ff;fill-opacity:1;fill-rule:nonzero;stroke:none"
         d="m 23.648,146.185 c -0.859,0 -1.5,-0.531 -1.75,-1.484 l -0.468,-1.75 c -0.219,-0.844 -0.5,-1.157 -1.047,-1.157 -0.703,0 -1.235,0.625 -1.235,1.563 0,1.109 0.516,1.75 1.422,1.75 l 0,0.844 c -1.375,0 -2.172,-0.954 -2.172,-2.563 0,-1.531 0.844,-2.484 2.11,-2.484 0.859,0 1.39,0.453 1.64,1.375 l 0.454,1.734 c 0.234,0.875 0.593,1.281 1.14,1.281 0.766,0 1.219,-0.578 1.219,-1.781 0,-1.328 -0.672,-1.969 -1.672,-1.969 l 0,-0.859 c 1.656,0 2.453,1.125 2.453,2.766 0,1.781 -0.844,2.734 -2.094,2.734 z" /><path
         id="path208"
         style="fill:#ff00ff;fill-opacity:1;fill-rule:nonzero;stroke:none"
         d="m 20.758,151.572 c -1.141,0 -1.985,-0.891 -1.985,-2.188 0,-1.39 0.704,-2.187 2.36,-2.234 l 0,0.844 c -1.141,0.062 -1.625,0.531 -1.625,1.375 0,0.765 0.547,1.328 1.281,1.328 0.531,0 0.984,-0.313 1.344,-0.907 l 0.5,-0.89 c 0.797,-1.422 1.437,-1.828 2.937,-1.906 l 0,4.531 -0.828,0 0,-3.578 c -0.562,0.078 -0.922,0.39 -1.406,1.218 l -0.516,0.969 c -0.515,0.938 -1.218,1.438 -2.062,1.438 z" /><path
         id="path210"
         style="fill:#ff00ff;fill-opacity:1;fill-rule:nonzero;stroke:none"
         d="m 25.57,155.33 -6.797,0 0,-0.563 c 1.047,-0.297 1.188,-0.484 1.344,-1.781 l 0.61,0 0,1.5 4.843,0 0,0.844 z" /><path
         id="path212"
         style="fill:#ff00ff;fill-opacity:1;fill-rule:nonzero;stroke:none"
         d="m 26.789,162.888 0.484,0 0,-5.766 -0.484,0 0,5.766 z" /><path
         id="path214"
         style="fill:#ff00ff;fill-opacity:1;fill-rule:nonzero;stroke:none"
         d="m 25.57,169.974 -7,0 0,-1.234 6.094,-2.032 -6.094,-2.078 0,-1.234 7,0 0,0.844 -5.859,0 5.859,1.984 0,0.938 -5.859,1.968 5.859,0 0,0.844 z" /><path
         id="path216"
         style="fill:#ff00ff;fill-opacity:1;fill-rule:nonzero;stroke:none"
         d="m 25.57,175.814 -0.781,0 0,-3.453 -6.219,0 0,-0.891 7,0 0,4.344 z" /><path
         id="path218"
         style="fill:#ff00ff;fill-opacity:1;fill-rule:nonzero;stroke:none"
         d="m 18.57,177.9 7,0 0,-0.906 -7,0 0,0.906 z" /><path
         id="path220"
         style="fill:#ff00ff;fill-opacity:1;fill-rule:nonzero;stroke:none"
         d="m 25.57,184.915 -7,0 0,-0.843 5.719,0 -5.719,-3.657 0,-0.968 7,0 0,0.843 -5.672,0 5.672,3.61 0,1.015 z" /><path
         id="path222"
         style="fill:#00ff00;fill-opacity:1;fill-rule:nonzero;stroke:none"
         d="m 7.172,126.044 -7,0 0,-0.797 2.609,0 C 2.266,124.904 2,124.372 2,123.701 c 0,-1.297 1.016,-2.157 2.609,-2.157 1.703,0 2.703,0.828 2.703,2.188 0,0.687 -0.25,1.172 -0.874,1.594 l 0.734,0 0,0.718 z m -2.5,-0.797 c 1.172,0 1.89,-0.562 1.89,-1.406 0,-0.875 -0.734,-1.469 -1.906,-1.469 -1.172,0 -1.906,0.594 -1.906,1.469 0,0.86 0.766,1.406 1.922,1.406 z" /><path
         id="path224"
         style="fill:#00ff00;fill-opacity:1;fill-rule:nonzero;stroke:none"
         d="m 5.172,132.615 c -0.844,0 -1.344,-0.391 -1.688,-1.282 -0.296,0.625 -0.828,0.969 -1.531,0.969 -1.015,0 -1.781,-0.75 -1.781,-2.078 l 0,-2.828 7,0 0,3.156 c 0,1.25 -0.844,2.063 -2,2.063 z m -3.094,-1.203 c 0.703,0 1.11,-0.422 1.11,-1.407 l 0,-1.718 -2.219,0 0,1.718 c 0,0.985 0.406,1.407 1.109,1.407 z m 3.11,0.296 c 0.671,0 1.203,-0.406 1.203,-1.25 l 0,-2.171 -2.407,0 0,2.171 c 0,0.844 0.516,1.25 1.204,1.25 z" /><path
         id="path226"
         style="fill:#00ff00;fill-opacity:1;fill-rule:nonzero;stroke:none"
         d="m 5.25,138.986 c -0.859,0 -1.5,-0.531 -1.75,-1.485 l -0.469,-1.75 c -0.219,-0.843 -0.5,-1.156 -1.047,-1.156 -0.703,0 -1.234,0.625 -1.234,1.563 0,1.109 0.516,1.75 1.422,1.75 l 0,0.843 C 0.797,138.751 0,137.798 0,136.189 c 0,-1.531 0.844,-2.484 2.109,-2.484 0.86,0 1.391,0.453 1.641,1.375 l 0.453,1.734 c 0.235,0.875 0.594,1.281 1.141,1.281 0.765,0 1.218,-0.578 1.218,-1.781 0,-1.328 -0.671,-1.969 -1.671,-1.969 l 0,-0.859 c 1.656,0 2.453,1.125 2.453,2.765 0,1.782 -0.844,2.735 -2.094,2.735 z" /><path
         id="path228"
         style="fill:#00ff00;fill-opacity:1;fill-rule:nonzero;stroke:none"
         d="m 2.359,144.372 c -1.14,0 -1.984,-0.89 -1.984,-2.187 0,-1.391 0.703,-2.188 2.359,-2.234 l 0,0.843 c -1.14,0.063 -1.625,0.532 -1.625,1.375 0,0.766 0.547,1.328 1.282,1.328 0.531,0 0.984,-0.312 1.343,-0.906 l 0.5,-0.89 c 0.797,-1.422 1.438,-1.829 2.938,-1.907 l 0,4.532 -0.828,0 0,-3.579 c -0.563,0.079 -0.922,0.391 -1.406,1.219 l -0.516,0.969 c -0.516,0.937 -1.219,1.437 -2.063,1.437 z" /><path
         id="path230"
         style="fill:#00ff00;fill-opacity:1;fill-rule:nonzero;stroke:none"
         d="m 7.172,148.13 -6.797,0 0,-0.562 c 1.047,-0.297 1.187,-0.485 1.344,-1.781 l 0.609,0 0,1.5 4.844,0 0,0.843 z" /><path
         id="path232"
         style="fill:#00ff00;fill-opacity:1;fill-rule:nonzero;stroke:none"
         d="m 8.391,155.689 0.484,0 0,-5.766 -0.484,0 0,5.766 z" /><path
         id="path234"
         style="fill:#00ff00;fill-opacity:1;fill-rule:nonzero;stroke:none"
         d="m 7.172,162.775 -7,0 0,-1.235 6.094,-2.031 -6.094,-2.078 0,-1.234 7,0 0,0.843 -5.86,0 5.86,1.985 0,0.937 -5.86,1.969 5.86,0 0,0.844 z" /><path
         id="path236"
         style="fill:#00ff00;fill-opacity:1;fill-rule:nonzero;stroke:none"
         d="m 5.25,169.458 c -0.859,0 -1.5,-0.531 -1.75,-1.484 l -0.469,-1.75 c -0.219,-0.844 -0.5,-1.156 -1.047,-1.156 -0.703,0 -1.234,0.625 -1.234,1.562 0,1.11 0.516,1.75 1.422,1.75 l 0,0.844 C 0.797,169.224 0,168.271 0,166.662 c 0,-1.532 0.844,-2.485 2.109,-2.485 0.86,0 1.391,0.453 1.641,1.375 l 0.453,1.735 c 0.235,0.875 0.594,1.281 1.141,1.281 0.765,0 1.218,-0.578 1.218,-1.781 0,-1.329 -0.671,-1.969 -1.671,-1.969 l 0,-0.86 c 1.656,0 2.453,1.125 2.453,2.766 0,1.781 -0.844,2.734 -2.094,2.734 z" /><path
         id="path238"
         style="fill:#00ff00;fill-opacity:1;fill-rule:nonzero;stroke:none"
         d="m 0.969,175.326 -0.797,0 0,-5.485 0.797,0 0,2.297 6.203,0 0,0.891 -6.203,0 0,2.297 z" /><path
         id="path240"
         style="fill:#00ff00;fill-opacity:1;fill-rule:nonzero;stroke:none"
         d="m 7.172,181.38 -0.781,0 0,-4.125 -2.407,0 0,3.813 -0.781,0 0,-3.813 -2.234,0 0,3.953 -0.797,0 0,-4.843 7,0 0,5.015 z" /><path
         id="path242"
         style="fill:#00ff00;fill-opacity:1;fill-rule:nonzero;stroke:none"
         d="m 2.234,187.83 c -1.312,0 -2.062,-0.782 -2.062,-2.157 l 0,-2.89 7,0 0,0.89 -2.969,0 0,2.203 c 0,1.141 -0.812,1.954 -1.969,1.954 z m -0.046,-0.938 c 0.765,0 1.234,-0.5 1.234,-1.359 l 0,-1.86 -2.453,0 0,1.86 c 0,0.859 0.453,1.359 1.219,1.359 z" /></g></g></svg>