<?xml version="1.0" encoding="UTF-8" standalone="no"?>
<svg
   xmlns:dc="http://purl.org/dc/elements/1.1/"
   xmlns:cc="http://creativecommons.org/ns#"
   xmlns:rdf="http://www.w3.org/1999/02/22-rdf-syntax-ns#"
   xmlns:svg="http://www.w3.org/2000/svg"
   xmlns="http://www.w3.org/2000/svg"
   viewBox="0 0 575.41998 372.116"
   height="372.116"
   width="575.41998"
   xml:space="preserve"
   version="1.1"
   id="svg2"><metadata
     id="metadata8"><rdf:RDF><cc:Work
         rdf:about=""><dc:format>image/svg+xml</dc:format><dc:type
           rdf:resource="http://purl.org/dc/dcmitype/StillImage" /></cc:Work></rdf:RDF></metadata><defs
     id="defs6" /><g
     transform="matrix(1.25,0,0,-1.25,0,372.11601)"
     id="g10"><g
       id="g12"><path
         id="path14"
         style="fill:none;stroke:#c0c0c0;stroke-width:0.80000001;stroke-linecap:square;stroke-linejoin:bevel;stroke-miterlimit:4;stroke-dasharray:0.8, 1.6;stroke-dashoffset:0;stroke-opacity:1"
         d="m 73.57,273.294 381.598,0" /><path
         id="path16"
         style="fill:none;stroke:#c0c0c0;stroke-width:0.80000001;stroke-linecap:square;stroke-linejoin:bevel;stroke-miterlimit:4;stroke-dasharray:0.8, 1.6;stroke-dashoffset:0;stroke-opacity:1"
         d="m 73.57,226.095 381.598,0" /><path
         id="path18"
         style="fill:none;stroke:#c0c0c0;stroke-width:0.80000001;stroke-linecap:square;stroke-linejoin:bevel;stroke-miterlimit:4;stroke-dasharray:0.8, 1.6;stroke-dashoffset:0;stroke-opacity:1"
         d="m 73.57,178.095 381.598,0" /><path
         id="path20"
         style="fill:none;stroke:#c0c0c0;stroke-width:0.80000001;stroke-linecap:square;stroke-linejoin:bevel;stroke-miterlimit:4;stroke-dasharray:0.8, 1.6;stroke-dashoffset:0;stroke-opacity:1"
         d="m 73.57,130.095 381.598,0" /><path
         id="path22"
         style="fill:none;stroke:#c0c0c0;stroke-width:0.80000001;stroke-linecap:square;stroke-linejoin:bevel;stroke-miterlimit:4;stroke-dasharray:0.8, 1.6;stroke-dashoffset:0;stroke-opacity:1"
         d="m 73.57,82.896 381.598,0" /><path
         id="path24"
         style="fill:none;stroke:#c0c0c0;stroke-width:0.80000001;stroke-linecap:square;stroke-linejoin:bevel;stroke-miterlimit:4;stroke-dasharray:0.8, 1.6;stroke-dashoffset:0;stroke-opacity:1"
         d="m 391.969,297.294 0,-262.398" /><path
         id="path26"
         style="fill:none;stroke:#c0c0c0;stroke-width:0.80000001;stroke-linecap:square;stroke-linejoin:bevel;stroke-miterlimit:4;stroke-dasharray:0.8, 1.6;stroke-dashoffset:0;stroke-opacity:1"
         d="m 327.969,297.294 0,-262.398" /><path
         id="path28"
         style="fill:none;stroke:#c0c0c0;stroke-width:0.80000001;stroke-linecap:square;stroke-linejoin:bevel;stroke-miterlimit:4;stroke-dasharray:0.8, 1.6;stroke-dashoffset:0;stroke-opacity:1"
         d="m 264.77,297.294 0,-262.398" /><path
         id="path30"
         style="fill:none;stroke:#c0c0c0;stroke-width:0.80000001;stroke-linecap:square;stroke-linejoin:bevel;stroke-miterlimit:4;stroke-dasharray:0.8, 1.6;stroke-dashoffset:0;stroke-opacity:1"
         d="m 200.77,297.294 0,-262.398" /><path
         id="path32"
         style="fill:none;stroke:#c0c0c0;stroke-width:0.80000001;stroke-linecap:square;stroke-linejoin:bevel;stroke-miterlimit:4;stroke-dasharray:0.8, 1.6;stroke-dashoffset:0;stroke-opacity:1"
         d="m 137.57,297.294 0,-262.398" /><path
         id="path34"
         style="fill:none;stroke:#000000;stroke-width:0.80000001;stroke-linecap:square;stroke-linejoin:bevel;stroke-miterlimit:4;stroke-dasharray:none;stroke-opacity:1"
         d="m 73.57,38.896 0,-8" /><path
         id="path36"
         style="fill:none;stroke:#000000;stroke-width:0.80000001;stroke-linecap:square;stroke-linejoin:bevel;stroke-miterlimit:4;stroke-dasharray:none;stroke-opacity:1"
         d="m 137.57,38.896 0,-8" /><path
         id="path38"
         style="fill:none;stroke:#000000;stroke-width:0.80000001;stroke-linecap:square;stroke-linejoin:bevel;stroke-miterlimit:4;stroke-dasharray:none;stroke-opacity:1"
         d="m 200.77,38.896 0,-8" /><path
         id="path40"
         style="fill:none;stroke:#000000;stroke-width:0.80000001;stroke-linecap:square;stroke-linejoin:bevel;stroke-miterlimit:4;stroke-dasharray:none;stroke-opacity:1"
         d="m 264.77,38.896 0,-8" /><path
         id="path42"
         style="fill:none;stroke:#000000;stroke-width:0.80000001;stroke-linecap:square;stroke-linejoin:bevel;stroke-miterlimit:4;stroke-dasharray:none;stroke-opacity:1"
         d="m 327.969,38.896 0,-8" /><path
         id="path44"
         style="fill:none;stroke:#000000;stroke-width:0.80000001;stroke-linecap:square;stroke-linejoin:bevel;stroke-miterlimit:4;stroke-dasharray:none;stroke-opacity:1"
         d="m 391.969,38.896 0,-8" /><path
         id="path46"
         style="fill:none;stroke:#000000;stroke-width:0.80000001;stroke-linecap:square;stroke-linejoin:bevel;stroke-miterlimit:4;stroke-dasharray:none;stroke-opacity:1"
         d="m 455.168,38.896 0,-8" /><path
         id="path48"
         style="fill:none;stroke:#000000;stroke-width:0.80000001;stroke-linecap:square;stroke-linejoin:bevel;stroke-miterlimit:4;stroke-dasharray:none;stroke-opacity:1"
         d="m 69.57,34.896 8,0" /><path
         id="path50"
         style="fill:none;stroke:#000000;stroke-width:0.80000001;stroke-linecap:square;stroke-linejoin:bevel;stroke-miterlimit:4;stroke-dasharray:none;stroke-opacity:1"
         d="m 69.57,82.896 8,0" /><path
         id="path52"
         style="fill:none;stroke:#000000;stroke-width:0.80000001;stroke-linecap:square;stroke-linejoin:bevel;stroke-miterlimit:4;stroke-dasharray:none;stroke-opacity:1"
         d="m 69.57,130.095 8,0" /><path
         id="path54"
         style="fill:none;stroke:#000000;stroke-width:0.80000001;stroke-linecap:square;stroke-linejoin:bevel;stroke-miterlimit:4;stroke-dasharray:none;stroke-opacity:1"
         d="m 69.57,178.095 8,0" /><path
         id="path56"
         style="fill:none;stroke:#000000;stroke-width:0.80000001;stroke-linecap:square;stroke-linejoin:bevel;stroke-miterlimit:4;stroke-dasharray:none;stroke-opacity:1"
         d="m 69.57,226.095 8,0" /><path
         id="path58"
         style="fill:none;stroke:#000000;stroke-width:0.80000001;stroke-linecap:square;stroke-linejoin:bevel;stroke-miterlimit:4;stroke-dasharray:none;stroke-opacity:1"
         d="m 69.57,273.294 8,0" /><path
         id="path60"
         style="fill:none;stroke:#000000;stroke-width:0.80000001;stroke-linecap:square;stroke-linejoin:bevel;stroke-miterlimit:4;stroke-dasharray:none;stroke-opacity:1"
         d="m 73.57,297.294 381.598,0" /><path
         id="path62"
         style="fill:none;stroke:#000000;stroke-width:0.80000001;stroke-linecap:square;stroke-linejoin:bevel;stroke-miterlimit:4;stroke-dasharray:none;stroke-opacity:1"
         d="m 455.168,297.294 0,-262.398" /><path
         id="path64"
         style="fill:none;stroke:#000000;stroke-width:0.80000001;stroke-linecap:square;stroke-linejoin:bevel;stroke-miterlimit:4;stroke-dasharray:none;stroke-opacity:1"
         d="m 73.57,34.896 381.598,0" /><path
         id="path66"
         style="fill:none;stroke:#000000;stroke-width:0.80000001;stroke-linecap:square;stroke-linejoin:bevel;stroke-miterlimit:4;stroke-dasharray:none;stroke-opacity:1"
         d="m 73.57,297.294 0,-262.398" /><path
         id="path68"
         style="fill:none;stroke:#0000ff;stroke-width:0.80000001;stroke-linecap:square;stroke-linejoin:bevel;stroke-miterlimit:4;stroke-dasharray:none;stroke-opacity:1"
         d="m 86.293,175.037 0.051,0.168 0.164,0.515 0.054,0.168 0.059,0.172 0.055,0.168 0.113,0.344 0.055,0.168 0.054,0.172 0.063,0.168 0.051,0.171 0.058,0.168 0.059,0.172 0.059,0.168 0.058,0.172 0.055,0.168 0.058,0.172 0.063,0.168 0.058,0.168 0.063,0.172 0.055,0.172 0.058,0.168 0.063,0.168 0.058,0.171 0.063,0.168 0.058,0.168 0.063,0.172 0.062,0.168 0.059,0.168 0.063,0.168 0.066,0.172 0.184,0.504 0.066,0.168 0.187,0.508 0.133,0.336 0.063,0.168 0.199,0.504 0.262,0.671 0.07,0.168 0.133,0.336 0.074,0.168 0.063,0.168 0.07,0.168 0.066,0.164 0.215,0.504 0.066,0.164 0.211,0.504 0.071,0.164 0.074,0.168 0.07,0.164 0.071,0.168 0.074,0.168 0.074,0.164 0.07,0.168 0.075,0.164 0.074,0.168 0.074,0.164 0.078,0.168 0.145,0.328 0.074,0.168 0.078,0.164 0.078,0.168 0.149,0.329 0.078,0.164 0.078,0.168 0.469,0.984 0.082,0.168 0.078,0.16 0.082,0.164 0.078,0.164 0.578,1.149 0.086,0.156 0.082,0.164 0.082,0.168 0.086,0.16 0.168,0.328 0.086,0.16 0.086,0.164 0.086,0.161 0.086,0.164 0.086,0.156 0.089,0.164 0.086,0.164 0.094,0.16 0.086,0.164 0.266,0.481 0.09,0.164 0.183,0.32 0.18,0.32 0.094,0.161 0.089,0.16 0.563,0.961 0.098,0.152 0.093,0.164 0.098,0.16 0.098,0.156 0.093,0.161 0.102,0.152 0.094,0.164 0.097,0.156 0.098,0.16 0.203,0.313 0.098,0.16 0.097,0.156 0.102,0.157 0.102,0.16 0.304,0.468 0.106,0.157 0.101,0.156 0.106,0.156 0.101,0.156 0.317,0.469 0.109,0.153 0.211,0.312 0.105,0.152 0.11,0.157 0.105,0.152 0.11,0.156 0.218,0.305 0.11,0.156 0.113,0.153 0.219,0.304 0.117,0.153 0.109,0.152 0.114,0.156 0.113,0.152 0.113,0.149 0.227,0.305 0.238,0.304 0.11,0.149 0.117,0.152 0.117,0.149 0.121,0.148 0.113,0.152 0.121,0.153 0.118,0.148 0.242,0.297 0.488,0.598 0.125,0.148 0.121,0.148 0.125,0.145 0.375,0.445 0.125,0.145 0.129,0.148 0.125,0.141 0.125,0.148 0.129,0.145 0.387,0.437 0.132,0.145 0.129,0.144 0.532,0.579 0.132,0.14 0.137,0.145 0.133,0.14 0.137,0.145 0.132,0.141 0.141,0.14 0.133,0.145 0.141,0.14 0.136,0.141 0.559,0.559 0.144,0.14 0.141,0.137 0.289,0.281 0.574,0.547 0.301,0.273 0.141,0.137 0.445,0.41 0.152,0.133 0.149,0.133 0.457,0.402 0.16,0.133 0.148,0.133 0.157,0.133 0.152,0.133 0.156,0.132 0.157,0.129 0.16,0.133 0.156,0.129 0.164,0.129 0.152,0.133 0.16,0.129 0.165,0.128 0.32,0.258 0.164,0.129 0.164,0.125 0.332,0.258 0.164,0.125 1.004,0.75 0.172,0.121 0.172,0.125 0.343,0.242 0.176,0.125 0.176,0.121 0.172,0.121 0.176,0.118 0.351,0.242 0.539,0.351 0.18,0.122 0.18,0.117 0.183,0.113 0.18,0.117 0.184,0.117 0.187,0.114 0.184,0.113 0.183,0.117 0.375,0.227 0.188,0.109 0.195,0.113 0.184,0.114 0.574,0.328 0.199,0.109 0.188,0.109 0.195,0.11 0.199,0.105 0.192,0.11 0.398,0.211 0.394,0.211 0.204,0.105 0.199,0.102 0.203,0.101 0.207,0.106 0.203,0.101 0.199,0.098 0.414,0.203 0.414,0.195 0.848,0.391 0.215,0.094 0.207,0.093 0.43,0.188 0.218,0.094 0.215,0.09 0.223,0.093 0.215,0.09 0.222,0.09 0.223,0.086 0.441,0.18 0.231,0.086 0.219,0.085 0.226,0.082 0.227,0.086 0.226,0.082 0.231,0.086 0.461,0.164 0.23,0.079 0.235,0.082 0.234,0.078 0.23,0.074 0.239,0.078 0.242,0.078 0.23,0.074 0.239,0.075 0.484,0.148 0.481,0.141 0.246,0.07 0.242,0.07 0.25,0.067 0.246,0.07 0.25,0.066 0.25,0.063 0.25,0.066 0.25,0.063 0.504,0.121 0.508,0.121 0.777,0.172 0.52,0.113 0.523,0.098 0.266,0.058 0.269,0.047 0.262,0.051 0.269,0.047 0.266,0.043 0.27,0.043 0.82,0.133 0.273,0.035 0.555,0.082 0.555,0.07 0.281,0.035 0.285,0.032 0.563,0.062 0.289,0.027 0.285,0.024 0.867,0.074 0.293,0.02 0.293,0.023 0.293,0.016 0.297,0.019 0.293,0.012 0.301,0.016 0.296,0.011 0.305,0.012 0.297,0.004 0.305,0.012 0.609,0.007 0.926,0 0.308,-0.003 0.313,-0.004 0.312,-0.012 0.317,-0.004 0.633,-0.023 0.32,-0.016 0.324,-0.02 0.317,-0.019 0.976,-0.066 0.324,-0.028 0.657,-0.062 0.332,-0.032 0.332,-0.039 0.671,-0.078 0.336,-0.043 0.684,-0.093 0.336,-0.051 0.687,-0.11 0.348,-0.062 0.344,-0.059 0.351,-0.066 0.352,-0.063 0.348,-0.07 0.711,-0.148 0.711,-0.164 0.359,-0.082 0.367,-0.09 0.356,-0.094 0.363,-0.09 0.367,-0.098 0.371,-0.101 0.363,-0.106 0.372,-0.109 0.371,-0.113 0.375,-0.117 0.371,-0.118 0.379,-0.125 0.757,-0.257 0.387,-0.141 0.379,-0.137 0.383,-0.144 0.387,-0.149 0.386,-0.152 0.391,-0.156 0.391,-0.164 0.394,-0.168 0.391,-0.172 0.402,-0.176 0.395,-0.184 0.398,-0.191 0.402,-0.188 0.403,-0.199 0.402,-0.203 0.406,-0.211 0.41,-0.215 0.411,-0.222 0.41,-0.227 0.414,-0.234 0.414,-0.242 0.418,-0.247 0.418,-0.253 0.844,-0.532 0.421,-0.277 0.434,-0.289 0.422,-0.285 0.43,-0.301 0.429,-0.309 0.434,-0.316 0.437,-0.324 0.875,-0.68 0.442,-0.352 0.445,-0.363 0.442,-0.375 0.445,-0.383 0.449,-0.394 0.449,-0.41 0.449,-0.414 0.458,-0.43 0.457,-0.445 0.457,-0.453 0.457,-0.473 0.464,-0.477 0.461,-0.496 0.469,-0.512 0.465,-0.527 0.469,-0.543 0.472,-0.558 0.473,-0.575 0.477,-0.593 0.484,-0.614 0.473,-0.629 0.484,-0.652 0.48,-0.676 0.489,-0.691 0.492,-0.719 0.484,-0.742 0.493,-0.766 0.496,-0.793 0.496,-0.824 0.5,-0.848 0.5,-0.882 0.504,-0.914 0.504,-0.946 0.507,-0.984 0.512,-1.024 0.508,-1.058 0.512,-1.106 0.519,-1.152 0.516,-1.203 0.519,-1.25 0.524,-1.309 0.527,-1.367 0.523,-1.433 0.532,-1.504 0.531,-1.578 0.535,-1.665 0.531,-1.753 0.539,-1.852 0.539,-1.957 0.547,-2.086 0.543,-2.215 0.551,-2.367 0.547,-2.539 0.551,-2.734 0.554,-2.957 0.563,-3.223 0.555,-3.52 0.566,-3.886 0.559,-4.336 0.57,-4.883 0.566,-5.59 0.571,-6.523 0.574,-7.813 0.578,-9.723 0.574,-12.835 0.582,-18.868 0.59,-36.011 0.117,-8.18" /><path
         id="path70"
         style="fill:none;stroke:#0000ff;stroke-width:0.80000001;stroke-linecap:square;stroke-linejoin:bevel;stroke-miterlimit:4;stroke-dasharray:none;stroke-opacity:1"
         d="m 211.816,34.896 0.309,32.457 0.59,24.023 0.594,15.184 0.593,11.137 0.598,8.812 0.602,7.293 0.609,6.227 0.601,5.433 0.61,4.817 0.617,4.328 0.609,3.933 0.618,3.602 0.617,3.32 0.621,3.078 0.625,2.872 0.629,2.687 0.629,2.523 0.633,2.379 0.636,2.25 0.637,2.137 0.641,2.024 0.648,1.929 0.645,1.84 0.648,1.758 0.652,1.68 0.653,1.609 0.656,1.543 0.664,1.484 0.664,1.422 0.668,1.367 0.668,1.313 0.668,1.269 0.672,1.223 0.68,1.172 0.683,1.133 0.68,1.093 0.683,1.055 0.692,1.012 0.695,0.984 0.692,0.946 0.695,0.91 0.703,0.879 0.707,0.847 0.707,0.817 0.711,0.785 0.707,0.762 0.715,0.73 0.719,0.703 0.722,0.676 0.727,0.648 0.726,0.625 0.731,0.594 0.738,0.574 0.735,0.543 0.742,0.52 0.742,0.496 0.75,0.477 0.746,0.449 0.754,0.422 0.758,0.398 0.761,0.375 0.766,0.352 0.762,0.32 0.769,0.305 0.774,0.277 0.781,0.25 0.773,0.223 0.782,0.195 0.789,0.176 0.789,0.144 0.793,0.117 0.797,0.09 0.796,0.059 0.809,0.027 0.801,-0.004 0.812,-0.035 0.813,-0.074 0.816,-0.102 0.821,-0.148 0.824,-0.176 0.828,-0.223 0.832,-0.265 0.832,-0.317 0.84,-0.359 0.84,-0.414 0.843,-0.473 0.852,-0.527 0.852,-0.598 0.855,-0.664 0.859,-0.742 0.864,-0.824 0.867,-0.918 0.871,-1.016 0.875,-1.129 0.879,-1.254 0.879,-1.394 0.886,-1.547 0.895,-1.726 0.887,-1.934 0.902,-2.172 0.899,-2.453 0.902,-2.774 0.914,-3.175 0.91,-3.66 0.918,-4.278 0.918,-5.07 0.922,-6.129 0.93,-7.648 0.929,-9.957 0.938,-13.961 0.945,-22.625 0.938,-59.414 0.949,35.273 0.953,37.801 0.957,20.07 0.957,13.906 0.965,10.719 0.969,8.754 0.972,7.426 0.977,6.437 0.98,5.688 0.985,5.078 0.992,4.582 0.996,4.168 0.996,3.801 1.004,3.48 1,3.195 1.012,2.938 1.015,2.707 1.02,2.496 1.023,2.297 1.028,2.121 1.031,1.949 1.039,1.797 1.039,1.652 1.047,1.516 1.051,1.395 1.054,1.277 1.059,1.168 1.062,1.078 1.067,0.984 1.074,0.899 1.082,0.828 1.082,0.754 1.086,0.687 1.086,0.633 1.098,0.574 1.097,0.524 1.106,0.484 1.113,0.442 1.113,0.402 1.117,0.367 1.126,0.336 1.128,0.309 1.137,0.281 1.137,0.254 1.14,0.242 1.149,0.215 1.152,0.203 1.16,0.18 1.164,0.168 1.168,0.156 1.172,0.141 1.18,0.128 1.18,0.122 1.191,0.109 1.192,0.105 1.199,0.094 1.203,0.086 1.207,0.078 1.215,0.074 1.218,0.071 1.227,0.062 1.227,0.055 1.234,0.055 1.238,0.05 1.246,0.047 1.25,0.043 1.254,0.039 1.262,0.039 1.266,0.032 1.277,0.031 1.273,0.031 1.282,0.027 1.289,0.024 1.293,0.027 1.297,0.024 2.617,0.039 1.32,0.015 1.316,0.02 1.329,0.016 1.332,0.011 1.336,0.016 2.695,0.023 1.355,0.012 1.364,0.012 1.367,0.008 1.371,0.011 1.379,0.008 2.777,0.016 1.395,0.004 1.402,0.007 1.414,0.008 1.414,0.004 1.422,0.008 1.422,0 1.433,0.004 1.438,0.008 1.445,0.004 1.45,0.003 1.457,0.004 1.464,0.004 2.946,0.008 1.488,0.004 1.484,0 1.493,0.004 3.011,0 1.512,0.008 1.523,0 1.528,0.004 1.531,0 1.543,0.004 3.098,0 1.566,0.003 3.133,0 1.582,0.004 3.18,0 1.605,0.004 4.836,0" /><path
         id="path72"
         style="fill:none;stroke:#ff00ff;stroke-width:0.80000001;stroke-linecap:square;stroke-linejoin:bevel;stroke-miterlimit:4;stroke-dasharray:none;stroke-opacity:1"
         d="m 86.293,179.857 0.105,0.34 0.059,0.172 0.164,0.503 0.055,0.172 0.113,0.336 0.109,0.336 0.063,0.168 0.051,0.172 0.234,0.672 0.113,0.336 0.063,0.168 0.234,0.672 0.063,0.16 0.058,0.168 0.063,0.172 0.058,0.168 0.125,0.336 0.059,0.164 0.188,0.504 0.062,0.164 0.063,0.168 0.066,0.168 0.062,0.164 0.125,0.336 0.067,0.164 0.066,0.168 0.063,0.164 0.07,0.168 0.063,0.164 0.066,0.168 0.062,0.16 0.067,0.172 0.066,0.16 0.067,0.168 0.07,0.164 0.133,0.336 0.074,0.164 0.063,0.164 0.07,0.168 0.066,0.164 0.141,0.328 0.074,0.168 0.563,1.313 0.148,0.328 0.145,0.324 0.296,0.656 0.075,0.16 0.074,0.164 0.156,0.329 0.149,0.32 0.156,0.328 0.078,0.16 0.082,0.164 0.078,0.16 0.074,0.164 0.078,0.161 0.079,0.164 0.082,0.156 0.078,0.164 0.082,0.16 0.078,0.164 0.578,1.121 0.086,0.16 0.164,0.321 0.086,0.16 0.082,0.16 0.086,0.156 0.258,0.477 0.172,0.32 0.089,0.16 0.086,0.157 0.094,0.16 0.086,0.156 0.086,0.16 0.27,0.469 0.183,0.316 0.09,0.157 0.09,0.16 0.094,0.156 0.089,0.156 0.473,0.781 0.09,0.149 0.098,0.16 0.093,0.156 0.098,0.157 0.098,0.152 0.093,0.156 0.102,0.152 0.191,0.313 0.098,0.152 0.102,0.153 0.101,0.156 0.195,0.305 0.102,0.152 0.102,0.156 0.304,0.457 0.106,0.153 0.101,0.152 0.106,0.148 0.101,0.153 0.211,0.304 0.106,0.145 0.109,0.156 0.102,0.149 0.109,0.152 0.105,0.152 0.11,0.149 0.105,0.148 0.11,0.153 0.441,0.593 0.219,0.297 0.34,0.445 0.113,0.145 0.113,0.148 0.114,0.145 0.113,0.148 0.121,0.145 0.117,0.148 0.11,0.145 0.117,0.148 0.351,0.434 0.121,0.144 0.118,0.145 0.363,0.434 0.121,0.14 0.246,0.289 0.125,0.141 0.121,0.141 0.125,0.144 0.375,0.422 0.125,0.144 0.129,0.141 0.125,0.133 0.512,0.566 0.129,0.137 0.132,0.137 0.129,0.14 0.137,0.137 0.129,0.141 0.535,0.547 0.133,0.136 0.137,0.133 0.406,0.406 0.141,0.137 0.136,0.133 0.422,0.398 0.137,0.133 0.144,0.133 0.141,0.129 0.145,0.137 0.144,0.132 0.141,0.129 0.148,0.133 0.285,0.258 0.149,0.133 0.152,0.129 0.141,0.129 0.152,0.125 0.293,0.257 0.152,0.129 0.149,0.125 0.156,0.129 0.301,0.25 0.16,0.125 0.148,0.125 0.157,0.125 0.152,0.125 0.156,0.125 0.157,0.121 0.16,0.125 0.156,0.121 0.164,0.121 0.152,0.122 0.16,0.121 0.165,0.121 0.32,0.242 0.164,0.117 0.164,0.121 0.168,0.117 0.164,0.121 0.164,0.118 0.168,0.113 0.504,0.352 0.164,0.109 0.168,0.121 0.687,0.453 0.352,0.227 0.348,0.218 0.175,0.114 0.176,0.109 0.18,0.109 0.18,0.106 0.359,0.219 0.18,0.105 0.183,0.106 0.18,0.105 0.371,0.211 0.184,0.105 0.183,0.102 0.188,0.106 0.375,0.203 0.195,0.101 0.184,0.098 0.195,0.101 0.187,0.102 0.192,0.098 0.199,0.097 0.188,0.098 0.586,0.293 0.398,0.187 0.394,0.188 0.204,0.094 0.199,0.09 0.203,0.089 0.207,0.094 0.203,0.09 0.199,0.086 0.207,0.09 0.207,0.086 0.207,0.09 0.207,0.085 0.211,0.082 0.422,0.172 0.43,0.164 0.207,0.082 0.215,0.082 0.215,0.079 0.218,0.082 0.215,0.074 0.223,0.082 0.215,0.074 0.222,0.078 0.223,0.074 0.441,0.149 0.231,0.074 0.219,0.07 0.679,0.211 0.231,0.063 0.23,0.074 0.461,0.133 0.469,0.125 0.23,0.066 0.239,0.059 0.242,0.062 0.23,0.059 0.239,0.062 0.242,0.059 0.242,0.051 0.238,0.058 0.243,0.059 0.246,0.047 0.242,0.059 0.25,0.05 0.496,0.098 0.75,0.144 0.25,0.047 0.762,0.129 0.777,0.117 0.258,0.04 0.523,0.066 0.262,0.035 0.266,0.035 0.269,0.031 0.262,0.024 0.269,0.031 0.266,0.028 0.27,0.023 0.546,0.051 0.547,0.035 0.278,0.023 0.832,0.047 0.566,0.024 0.563,0.015 0.289,0.008 0.285,0.004 0.289,0.004 0.578,0 0.293,-0.004 0.293,0 0.293,-0.008 0.297,-0.008 0.293,-0.007 0.301,-0.016 0.296,-0.008 0.602,-0.031 0.609,-0.043 0.305,-0.02 0.309,-0.023 0.304,-0.027 0.313,-0.028 0.308,-0.031 0.313,-0.039 0.312,-0.027 0.637,-0.079 0.313,-0.043 0.32,-0.042 0.641,-0.098 0.324,-0.047 0.324,-0.055 0.328,-0.058 0.652,-0.117 0.329,-0.067 0.332,-0.066 0.332,-0.071 0.336,-0.07 0.335,-0.078 0.336,-0.074 0.684,-0.164 0.336,-0.086 0.344,-0.094 0.343,-0.09 0.348,-0.098 0.344,-0.101 0.351,-0.102 0.352,-0.105 0.348,-0.109 0.359,-0.114 0.352,-0.117 0.711,-0.246 0.359,-0.125 0.367,-0.133 0.356,-0.137 0.363,-0.136 0.367,-0.145 0.371,-0.148 0.363,-0.153 0.372,-0.156 0.371,-0.164 0.375,-0.164 0.371,-0.172 0.379,-0.176 0.378,-0.179 0.379,-0.184 0.387,-0.191 0.379,-0.196 0.383,-0.199 0.387,-0.207 0.386,-0.215 0.391,-0.215 0.391,-0.226 0.394,-0.227 0.391,-0.238 0.402,-0.238 0.395,-0.25 0.398,-0.258 0.402,-0.258 0.403,-0.269 0.402,-0.278 0.406,-0.285 0.41,-0.289 0.411,-0.301 0.41,-0.304 0.414,-0.317 0.414,-0.324 0.418,-0.332 0.418,-0.34 0.422,-0.348 0.422,-0.359 0.421,-0.371 0.434,-0.379 0.422,-0.387 0.43,-0.402 0.429,-0.414 0.434,-0.418 0.437,-0.434 0.438,-0.445 0.437,-0.461 0.442,-0.469 0.445,-0.484 0.442,-0.5 0.445,-0.512 0.449,-0.527 0.449,-0.543 0.449,-0.559 0.458,-0.574 0.457,-0.594 0.457,-0.609 0.457,-0.629 0.464,-0.648 0.461,-0.668 0.469,-0.688 0.465,-0.711 0.469,-0.738 0.472,-0.754 0.473,-0.785 0.477,-0.805 0.484,-0.836 0.473,-0.867 0.484,-0.894 0.48,-0.93 0.489,-0.961 0.492,-0.992 0.484,-1.032 0.493,-1.074 0.496,-1.117 0.496,-1.16 0.5,-1.207 0.5,-1.258 0.504,-1.312 0.504,-1.372 0.507,-1.437 0.512,-1.5 0.508,-1.578 0.512,-1.652 0.519,-1.739 0.516,-1.836 0.519,-1.941 0.524,-2.051 0.527,-2.18 0.523,-2.32 0.532,-2.48 0.531,-2.657 0.535,-2.859 0.531,-3.098 0.539,-3.363 0.539,-3.68 0.547,-4.062 0.543,-4.508 0.551,-5.066 0.547,-5.75 0.551,-6.621 0.554,-7.715 0.563,-9.071 0.555,-10.464 0.566,-10.579 0.559,-5.433 0.57,5.035 0.566,10.648 0.571,10.727 0.574,9.352 0.578,7.984 0.574,6.867 0.582,5.988 0.59,5.289 0.586,4.727 0.586,4.266 0.59,3.886 0.594,3.563 0.593,3.285 0.598,3.047 0.602,2.848 0.609,2.66 0.601,2.492 0.61,2.359 0.617,2.223 0.609,2.105 0.618,2 0.617,1.895 0.621,1.812 0.625,1.727 0.629,1.648 0.629,1.579 0.633,1.511 0.636,1.446 0.637,1.386 0.641,1.332 0.648,1.282 0.645,1.23 0.648,1.176 0.652,1.144 0.653,1.094 0.656,1.051 0.664,1.016 0.664,0.972 0.668,0.942 0.668,0.902 0.668,0.871 0.672,0.836 0.68,0.805 0.683,0.769 0.68,0.746 0.683,0.711 0.692,0.68 0.695,0.66 0.692,0.629 0.695,0.598 0.703,0.574 0.707,0.547 0.707,0.519 0.711,0.496 0.707,0.469 0.715,0.442 0.719,0.417 0.722,0.391 0.727,0.367 0.726,0.34 0.731,0.313 0.738,0.289 0.735,0.265 0.742,0.235 0.742,0.211 0.75,0.179 0.746,0.157 0.754,0.125 0.758,0.097 0.761,0.071 0.766,0.039 0.762,0.004 0.769,-0.024 0.774,-0.059 0.781,-0.093 0.773,-0.133 0.782,-0.164 0.789,-0.211 0.789,-0.25 0.793,-0.289 0.797,-0.336 0.796,-0.387 0.809,-0.437 0.801,-0.492 0.812,-0.551 0.813,-0.617 0.816,-0.68 0.821,-0.758 0.824,-0.836 0.828,-0.922 0.832,-1.015 0.832,-1.121 0.84,-1.235 0.84,-1.363 0.843,-1.508 0.852,-1.664 0.852,-1.844 0.855,-2.051 0.859,-2.289 0.864,-2.562 0.867,-2.887 0.871,-3.265 0.875,-3.735 0.879,-4.297 0.879,-5.008 0.886,-5.902 0.895,-7.058 0.887,-8.508 0.902,-10.098 0.899,-10.527 0.902,-5.289 0.914,6.156 0.91,12.027 0.918,11.809 0.918,10.23 0.922,8.743 0.93,7.55 0.929,6.614 0.938,5.875 0.945,5.269 0.938,4.774 0.949,4.347 0.953,3.992 0.957,3.676 0.957,3.403 0.965,3.148 0.969,2.93 0.972,2.726 0.977,2.539 0.98,2.367 0.985,2.207 0.992,2.059 0.996,1.922 0.996,1.793 1.004,1.668 1,1.566 1.012,1.453 1.015,1.352 1.02,1.262 1.023,1.172 1.028,1.093 1.031,1.012 1.039,0.945 1.039,0.875 1.047,0.813 1.051,0.762 1.054,0.695 1.059,0.656 1.062,0.606 1.067,0.562 1.074,0.524 1.082,0.484 1.082,0.449 1.086,0.418 1.086,0.391 1.098,0.359 1.097,0.336 1.106,0.313 1.113,0.289 1.113,0.269 1.117,0.25 1.126,0.235 1.128,0.214 1.137,0.203 1.137,0.192 1.14,0.176 1.149,0.164 1.152,0.152 1.16,0.145 1.164,0.132 1.168,0.125 1.172,0.118 1.18,0.109 1.18,0.102 1.191,0.093 1.192,0.09 1.199,0.086 1.203,0.078 1.207,0.074 1.215,0.071 1.218,0.062 1.227,0.063 1.227,0.058 1.234,0.055 1.238,0.047 1.246,0.051 1.25,0.043 1.254,0.043 1.262,0.039 1.266,0.039 1.277,0.035 1.273,0.031 1.282,0.031 1.289,0.032 1.293,0.027 1.297,0.023 2.617,0.047 1.32,0.024 1.316,0.019 1.329,0.016 1.332,0.023 1.336,0.016 2.695,0.031 1.355,0.012 1.364,0.016 1.367,0.015 1.371,0.012 1.379,0.008 2.777,0.023 1.395,0.008 1.402,0.004 1.414,0.012 1.414,0.007 2.844,0.016 1.433,0.004 1.438,0 1.445,0.012 1.45,0.004 1.457,0.003 1.464,0.004 2.946,0.008 1.488,0.004 1.484,0 1.493,0.004 1.503,0.004 7.602,0 1.543,0.008 9.379,0 1.586,-0.008 8.035,0" /><path
         id="path74"
         style="fill:none;stroke:#00ff00;stroke-width:0.80000001;stroke-linecap:square;stroke-linejoin:bevel;stroke-miterlimit:4;stroke-dasharray:none;stroke-opacity:1"
         d="m 86.293,189.091 0.051,0.16 0.054,0.157 0.059,0.156 0.051,0.16 0.054,0.16 0.059,0.156 0.109,0.313 0.059,0.16 0.055,0.156 0.054,0.161 0.063,0.152 0.051,0.16 0.176,0.465 0.058,0.16 0.113,0.313 0.063,0.152 0.058,0.16 0.063,0.152 0.113,0.309 0.063,0.16 0.058,0.152 0.063,0.157 0.058,0.152 0.063,0.152 0.062,0.157 0.059,0.152 0.063,0.156 0.25,0.61 0.066,0.152 0.187,0.457 0.133,0.305 0.063,0.148 0.133,0.301 0.066,0.152 0.062,0.153 0.067,0.148 0.066,0.152 0.067,0.145 0.07,0.152 0.066,0.153 0.067,0.148 0.074,0.148 0.063,0.149 0.07,0.148 0.066,0.145 0.141,0.301 0.074,0.144 0.211,0.445 0.137,0.29 0.074,0.148 0.141,0.289 0.074,0.148 0.445,0.868 0.07,0.14 0.149,0.289 0.156,0.282 0.074,0.144 0.075,0.137 0.234,0.426 0.082,0.144 0.078,0.137 0.231,0.418 0.082,0.14 0.078,0.141 0.082,0.133 0.078,0.144 0.578,0.957 0.086,0.137 0.082,0.133 0.082,0.137 0.086,0.133 0.082,0.136 0.516,0.797 0.089,0.129 0.086,0.129 0.094,0.137 0.172,0.257 0.09,0.133 0.09,0.125 0.09,0.133 0.089,0.125 0.094,0.129 0.09,0.129 0.09,0.125 0.094,0.125 0.089,0.125 0.098,0.133 0.465,0.625 0.098,0.117 0.093,0.125 0.196,0.246 0.093,0.121 0.391,0.484 0.203,0.235 0.098,0.121 0.097,0.117 0.407,0.469 0.101,0.113 0.106,0.117 0.101,0.114 0.106,0.113 0.101,0.113 0.211,0.223 0.106,0.113 0.109,0.113 0.211,0.219 0.215,0.219 0.105,0.109 0.11,0.102 0.113,0.113 0.547,0.527 0.566,0.508 0.114,0.098 0.113,0.102 0.121,0.101 0.117,0.098 0.11,0.097 0.234,0.196 0.234,0.187 0.121,0.094 0.118,0.094 0.242,0.187 0.488,0.36 0.125,0.086 0.121,0.089 0.375,0.258 0.125,0.082 0.125,0.086 0.129,0.082 0.25,0.164 0.129,0.078 0.129,0.082 0.258,0.157 0.132,0.07 0.129,0.082 0.399,0.223 0.402,0.211 0.27,0.14 0.132,0.067 0.274,0.132 0.141,0.063 0.136,0.062 0.422,0.188 0.137,0.059 0.144,0.058 0.141,0.051 0.145,0.062 0.144,0.051 0.289,0.11 0.285,0.101 0.149,0.047 0.152,0.047 0.141,0.051 0.152,0.043 0.145,0.046 0.148,0.043 0.152,0.04 0.149,0.042 0.304,0.079 0.153,0.031 0.16,0.039 0.148,0.035 0.157,0.031 0.152,0.032 0.156,0.027 0.157,0.031 0.16,0.028 0.156,0.023 0.164,0.023 0.152,0.02 0.16,0.023 0.165,0.02 0.16,0.019 0.16,0.016 0.164,0.016 0.332,0.023 0.164,0.008 0.164,0.012 0.504,0.011 0.5,0 0.172,-0.004 0.344,-0.019 0.171,-0.008 0.352,-0.023 0.172,-0.016 0.351,-0.039 0.176,-0.023 0.18,-0.024 0.18,-0.031 0.359,-0.055 0.18,-0.035 0.183,-0.039 0.18,-0.039 0.184,-0.035 0.187,-0.047 0.184,-0.043 0.183,-0.047 0.375,-0.102 0.188,-0.058 0.195,-0.055 0.184,-0.062 0.195,-0.063 0.187,-0.07 0.192,-0.067 0.199,-0.07 0.188,-0.074 0.195,-0.082 0.391,-0.16 0.398,-0.18 0.195,-0.094 0.199,-0.097 0.204,-0.098 0.199,-0.105 0.203,-0.106 0.41,-0.227 0.199,-0.121 0.207,-0.121 0.207,-0.125 0.207,-0.129 0.207,-0.136 0.211,-0.137 0.211,-0.141 0.426,-0.297 0.215,-0.156 0.207,-0.16 0.215,-0.164 0.215,-0.168 0.218,-0.176 0.215,-0.179 0.223,-0.184 0.215,-0.188 0.222,-0.195 0.223,-0.199 0.219,-0.207 0.222,-0.211 0.231,-0.215 0.219,-0.223 0.226,-0.23 0.227,-0.234 0.226,-0.239 0.231,-0.25 0.23,-0.254 0.231,-0.261 0.23,-0.266 0.235,-0.277 0.234,-0.282 0.23,-0.289 0.239,-0.3 0.242,-0.305 0.23,-0.313 0.239,-0.324 0.242,-0.332 0.242,-0.34 0.238,-0.347 0.243,-0.36 0.246,-0.367 0.242,-0.379 0.25,-0.386 0.246,-0.399 0.25,-0.41 0.25,-0.422 0.25,-0.434 0.25,-0.441 0.25,-0.457 0.254,-0.473 0.254,-0.48 0.254,-0.5 0.257,-0.508 0.258,-0.527 0.262,-0.539 0.258,-0.559 0.262,-0.574 0.261,-0.59 0.262,-0.605 0.266,-0.629 0.269,-0.645 0.262,-0.664 0.269,-0.687 0.266,-0.707 0.27,-0.731 0.273,-0.754 0.273,-0.781 0.274,-0.805 0.273,-0.832 0.278,-0.863 0.277,-0.887 0.277,-0.926 0.278,-0.957 0.281,-0.992 0.285,-1.031 0.281,-1.066 0.282,-1.114 0.289,-1.156 0.285,-1.207 0.289,-1.25 0.289,-1.313 0.289,-1.367 0.293,-1.433 0.293,-1.5 0.293,-1.575 0.297,-1.652 0.293,-1.742 0.301,-1.84 0.296,-1.941 0.305,-2.063 0.297,-2.187 0.305,-2.336 0.304,-2.5 0.305,-2.684 0.309,-2.894 0.304,-3.141 0.313,-3.426 0.308,-3.765 0.313,-4.172 0.312,-4.676 0.317,-5.293 0.32,-6.098 0.313,-7.164 0.32,-8.629 0.324,-10.742 0.317,-13.812 0.324,-17.219 0.324,-10.504 0.328,12.836 0.324,17.207 0.328,13.656 0.329,10.707 0.332,8.68 0.332,7.281 0.336,6.246 0.335,5.465 0.336,4.859 0.34,4.372 0.344,3.972 0.336,3.637 0.344,3.355 0.343,3.106 0.348,2.906 0.344,2.719 0.351,2.555 0.352,2.41 0.348,2.277 0.359,2.164 0.352,2.051 0.359,1.957 0.352,1.871 0.359,1.785 0.367,1.707 0.356,1.637 0.363,1.578 0.367,1.508 0.371,1.453 0.363,1.398 0.372,1.348 0.371,1.297 0.375,1.254 0.371,1.207 0.379,1.168 0.378,1.125 0.379,1.094 0.387,1.054 0.379,1.016 0.383,0.984 0.387,0.953 0.386,0.918 0.391,0.891 0.391,0.863 0.394,0.832 0.391,0.805 0.402,0.777 0.395,0.75 0.398,0.727 0.402,0.699 0.403,0.676 0.402,0.648 0.406,0.629 0.41,0.598 0.411,0.586 0.41,0.558 0.414,0.536 0.414,0.511 0.418,0.489 0.418,0.468 0.422,0.446 0.422,0.425 0.421,0.399 0.434,0.383 0.422,0.355 0.43,0.336 0.429,0.313 0.434,0.293 0.437,0.265 0.438,0.246 0.437,0.223 0.442,0.199 0.445,0.172 0.442,0.152 0.445,0.125 0.449,0.098 0.449,0.074 0.449,0.047 0.458,0.012 0.457,-0.008 0.457,-0.039 0.457,-0.07 0.464,-0.106 0.461,-0.133 0.469,-0.171 0.465,-0.207 0.469,-0.247 0.472,-0.285 0.473,-0.328 0.477,-0.375 0.484,-0.418 0.473,-0.472 0.484,-0.524 0.48,-0.582 0.489,-0.644 0.492,-0.711 0.484,-0.786 0.493,-0.859 0.496,-0.945 0.496,-1.039 0.5,-1.145 0.5,-1.254 0.504,-1.383 0.504,-1.519 0.507,-1.676 0.512,-1.859 0.508,-2.059 0.512,-2.297 0.519,-2.57 0.516,-2.887 0.519,-3.277 0.524,-3.75 0.527,-4.324 0.523,-5.067 0.532,-6.043 0.531,-7.371 0.535,-9.254 0.531,-12.031 0.539,-15.832 0.539,-15.437 0.547,6.609 0.543,18.832 0.551,15.746 0.547,12.313 0.551,9.949 0.554,8.324 0.563,7.156 0.555,6.274 0.566,5.582 0.559,5.031 0.57,4.578 0.566,4.195 0.571,3.864 0.574,3.57 0.578,3.324 0.574,3.094 0.582,2.891 0.59,2.695 0.586,2.535 0.586,2.367 0.59,2.223 0.594,2.082 0.593,1.953 0.598,1.832 0.602,1.715 0.609,1.613 0.601,1.512 0.61,1.41 0.617,1.32 0.609,1.239 0.618,1.156 0.617,1.078 0.621,1.012 0.625,0.941 0.629,0.875 0.629,0.82 0.633,0.766 0.636,0.711 0.637,0.664 0.641,0.617 0.648,0.574 0.645,0.536 0.648,0.5 0.652,0.464 0.653,0.434 0.656,0.402 0.664,0.375 0.664,0.348 0.668,0.324 0.668,0.305 0.668,0.281 0.672,0.262 0.68,0.25 0.683,0.227 0.68,0.214 0.683,0.2 0.692,0.187 0.695,0.172 0.692,0.164 0.695,0.152 0.703,0.141 0.707,0.129 0.707,0.125 0.711,0.121 0.707,0.105 0.715,0.106 0.719,0.094 0.722,0.09 0.727,0.085 0.726,0.079 0.731,0.07 0.738,0.07 0.735,0.067 0.742,0.062 0.742,0.059 0.75,0.05 0.746,0.051 0.754,0.051 0.758,0.043 0.761,0.043 0.766,0.039 0.762,0.039 0.769,0.035 0.774,0.035 0.781,0.032 0.773,0.027 0.782,0.031 0.789,0.024 0.789,0.027 0.793,0.023 0.797,0.02 0.796,0.023 1.61,0.04 1.625,0.027 0.816,0.019 0.821,0.016 0.824,0.016 1.66,0.023 0.832,0.008 1.68,0.027 0.843,0.012 1.704,0.016 0.855,0.007 0.859,0.008 0.864,0.008 0.867,0.004 0.871,0.012 0.875,0.004 0.879,0.007 0.879,0.004 0.886,0.004 1.782,0.008 0.902,0.004 0.899,0 0.902,0.008 1.824,0.008 0.918,0.003 0.918,0 0.922,0.004 0.93,0 0.929,0.004 0.938,0 0.945,0.004 1.887,0 0.953,0.004 13.762,0 1.015,-0.004 3.071,0 1.031,-0.004 2.078,0 1.047,-0.004 2.105,0 1.059,-0.004 1.062,0 1.067,-0.003 1.074,0 1.082,-0.004 1.082,0 1.086,-0.004 1.086,0 1.098,-0.008 3.316,0 2.23,-0.008 1.126,0 1.128,-0.004 1.137,-0.004 1.137,0 1.14,-0.004 1.149,-0.004 1.152,0 1.16,-0.003 1.164,-0.004 1.168,-0.004 1.172,0 1.18,-0.008 1.18,0 1.191,-0.004 1.192,0 1.199,-0.004 1.203,-0.004 1.207,-0.004 1.215,-0.004 1.218,-0.004 1.227,0 1.227,-0.003 1.234,-0.004 1.238,-0.008 1.246,-0.004 1.25,0 1.254,-0.004 1.262,-0.004 1.266,-0.004 1.277,-0.004 1.273,0 1.282,-0.004 1.289,-0.003 1.293,-0.004 1.297,-0.004 1.308,-0.008 1.309,0 1.32,-0.004 1.316,-0.004 1.329,-0.004 1.332,-0.004 1.336,-0.008 2.695,-0.007 1.355,-0.004 1.364,-0.008 1.367,0 1.371,-0.004 1.379,-0.004 2.777,-0.008 1.395,-0.004 1.402,-0.007 1.414,-0.004 1.414,-0.008 1.422,0 1.422,-0.004 1.433,-0.004 1.438,-0.008 1.445,-0.004 1.45,-0.004 1.457,-0.003 1.464,-0.004 1.473,-0.012 1.473,0 1.488,-0.004 1.484,-0.004 1.493,-0.008 1.503,-0.004 1.508,-0.004 1.512,-0.007 1.523,-0.004 1.528,-0.008 1.531,-0.004 3.086,-0.008 1.555,-0.008 1.566,-0.004 1.563,-0.003 1.57,-0.012 1.582,-0.004 1.586,0 1.594,-0.008 1.605,-0.004 1.602,-0.008 1.613,-0.003 1.621,-0.008" /><path
         id="path76"
         style="fill:#000000;fill-opacity:1;fill-rule:nonzero;stroke:none"
         d="m 75.23,23.759 c 0,2.36 -0.75,3.531 -2.218,3.531 -1.469,0 -2.235,-1.187 -2.235,-3.468 0,-2.297 0.782,-3.469 2.235,-3.469 1.437,0 2.218,1.172 2.218,3.406 z m -0.859,0.078 c 0,-1.922 -0.437,-2.781 -1.375,-2.781 -0.891,0 -1.344,0.891 -1.344,2.75 0,1.875 0.453,2.734 1.36,2.734 0.906,0 1.359,-0.875 1.359,-2.703 z" /><path
         id="path78"
         style="fill:#000000;fill-opacity:1;fill-rule:nonzero;stroke:none"
         d="m 132.098,22.744 c 0,1.343 -0.891,2.234 -2.203,2.234 -0.469,0 -0.86,-0.125 -1.25,-0.422 l 0.265,1.766 2.828,0 0,0.828 -3.5,0 -0.515,-3.563 0.781,0 c 0.391,0.469 0.719,0.641 1.25,0.641 0.906,0 1.484,-0.594 1.484,-1.594 0,-0.984 -0.578,-1.531 -1.484,-1.531 -0.75,0 -1.203,0.375 -1.391,1.141 l -0.859,0 c 0.281,-1.36 1.047,-1.891 2.266,-1.891 1.375,0 2.328,0.953 2.328,2.391 z" /><path
         id="path80"
         style="fill:#000000;fill-opacity:1;fill-rule:nonzero;stroke:none"
         d="m 137.434,22.775 c 0,0.734 -0.063,1.187 -0.204,1.562 -0.328,0.828 -1.093,1.328 -2.031,1.328 -1.406,0 -2.297,-1.031 -2.297,-2.687 0,-1.656 0.86,-2.625 2.282,-2.625 1.14,0 1.937,0.656 2.14,1.672 l -0.797,0 c -0.218,-0.672 -0.672,-0.938 -1.312,-0.938 -0.844,0 -1.469,0.532 -1.485,1.688 l 3.704,0 z m -0.86,0.719 c 0,0 0,-0.047 0,-0.063 l -2.828,0 c 0.078,0.891 0.641,1.5 1.438,1.5 0.796,0 1.39,-0.656 1.39,-1.437 z" /><path
         id="path82"
         style="fill:#000000;fill-opacity:1;fill-rule:nonzero;stroke:none"
         d="m 142.77,22.415 c 0,0.75 -0.391,1.282 -1.172,1.657 0.703,0.422 0.937,0.765 0.937,1.406 0,1.062 -0.844,1.812 -2.047,1.812 -1.203,0 -2.047,-0.75 -2.047,-1.812 0,-0.625 0.235,-0.969 0.922,-1.406 -0.781,-0.375 -1.156,-0.907 -1.156,-1.657 0,-1.234 0.938,-2.062 2.281,-2.062 1.344,0 2.282,0.828 2.282,2.062 z m -1.11,3.047 c 0,-0.625 -0.469,-1.047 -1.172,-1.047 -0.718,0 -1.187,0.422 -1.187,1.063 0,0.641 0.469,1.062 1.187,1.062 0.719,0 1.172,-0.421 1.172,-1.078 z m 0.25,-3.062 c 0,-0.797 -0.578,-1.297 -1.437,-1.297 -0.828,0 -1.407,0.5 -1.407,1.297 0,0.797 0.579,1.297 1.422,1.297 0.844,0 1.422,-0.5 1.422,-1.297 z" /><path
         id="path84"
         style="fill:#000000;fill-opacity:1;fill-rule:nonzero;stroke:none"
         d="m 193.699,20.494 0,6.796 -0.562,0 c -0.297,-1.046 -0.485,-1.187 -1.782,-1.343 l 0,-0.61 1.5,0 0,-4.843 0.844,0 z" /><path
         id="path86"
         style="fill:#000000;fill-opacity:1;fill-rule:nonzero;stroke:none"
         d="m 200.629,22.775 c 0,0.734 -0.063,1.187 -0.203,1.562 -0.328,0.828 -1.094,1.328 -2.031,1.328 -1.407,0 -2.297,-1.031 -2.297,-2.687 0,-1.656 0.859,-2.625 2.281,-2.625 1.141,0 1.937,0.656 2.141,1.672 l -0.797,0 c -0.219,-0.672 -0.672,-0.938 -1.313,-0.938 -0.844,0 -1.469,0.532 -1.484,1.688 l 3.703,0 z m -0.859,0.719 c 0,0 0,-0.047 0,-0.063 l -2.829,0 c 0.079,0.891 0.641,1.5 1.438,1.5 0.797,0 1.391,-0.656 1.391,-1.437 z" /><path
         id="path88"
         style="fill:#000000;fill-opacity:1;fill-rule:nonzero;stroke:none"
         d="m 205.938,24.056 c 0,2.125 -0.75,3.234 -2.297,3.234 -1.297,0 -2.235,-0.921 -2.235,-2.25 0,-1.265 0.875,-2.125 2.094,-2.125 0.641,0 1.109,0.235 1.562,0.766 -0.015,-1.656 -0.546,-2.578 -1.515,-2.578 -0.594,0 -1.016,0.375 -1.141,1.016 l -0.844,0 c 0.157,-1.11 0.891,-1.766 1.922,-1.766 1.594,0 2.454,1.344 2.454,3.703 z m -0.922,1 c 0,-0.828 -0.594,-1.391 -1.422,-1.391 -0.813,0 -1.313,0.532 -1.313,1.438 0,0.875 0.563,1.453 1.344,1.453 0.797,0 1.391,-0.609 1.391,-1.5 z" /><path
         id="path90"
         style="fill:#000000;fill-opacity:1;fill-rule:nonzero;stroke:none"
         d="m 252.098,20.494 0,6.796 -0.563,0 c -0.297,-1.046 -0.484,-1.187 -1.781,-1.343 l 0,-0.61 1.5,0 0,-4.843 0.844,0 z" /><path
         id="path92"
         style="fill:#000000;fill-opacity:1;fill-rule:nonzero;stroke:none"
         d="m 254.934,21.494 1,0 0,-1 -1,0 0,1 z" /><path
         id="path94"
         style="fill:#000000;fill-opacity:1;fill-rule:nonzero;stroke:none"
         d="m 261.695,22.744 c 0,1.343 -0.89,2.234 -2.203,2.234 -0.469,0 -0.859,-0.125 -1.25,-0.422 l 0.266,1.766 2.828,0 0,0.828 -3.5,0 -0.516,-3.563 0.782,0 c 0.39,0.469 0.718,0.641 1.25,0.641 0.906,0 1.484,-0.594 1.484,-1.594 0,-0.984 -0.578,-1.531 -1.484,-1.531 -0.75,0 -1.204,0.375 -1.391,1.141 l -0.859,0 c 0.281,-1.36 1.046,-1.891 2.265,-1.891 1.375,0 2.328,0.953 2.328,2.391 z" /><path
         id="path96"
         style="fill:#000000;fill-opacity:1;fill-rule:nonzero;stroke:none"
         d="m 267.035,22.775 c 0,0.734 -0.062,1.187 -0.203,1.562 -0.328,0.828 -1.094,1.328 -2.031,1.328 -1.406,0 -2.297,-1.031 -2.297,-2.687 0,-1.656 0.859,-2.625 2.281,-2.625 1.141,0 1.938,0.656 2.141,1.672 l -0.797,0 c -0.219,-0.672 -0.672,-0.938 -1.313,-0.938 -0.843,0 -1.468,0.532 -1.484,1.688 l 3.703,0 z m -0.859,0.719 c 0,0 0,-0.047 0,-0.063 l -2.828,0 c 0.078,0.891 0.64,1.5 1.437,1.5 0.797,0 1.391,-0.656 1.391,-1.437 z" /><path
         id="path98"
         style="fill:#000000;fill-opacity:1;fill-rule:nonzero;stroke:none"
         d="m 272.34,24.056 c 0,2.125 -0.75,3.234 -2.297,3.234 -1.297,0 -2.234,-0.921 -2.234,-2.25 0,-1.265 0.875,-2.125 2.093,-2.125 0.641,0 1.11,0.235 1.563,0.766 -0.016,-1.656 -0.547,-2.578 -1.516,-2.578 -0.594,0 -1.015,0.375 -1.14,1.016 l -0.844,0 c 0.156,-1.11 0.89,-1.766 1.922,-1.766 1.593,0 2.453,1.344 2.453,3.703 z m -0.922,1 c 0,-0.828 -0.594,-1.391 -1.422,-1.391 -0.812,0 -1.312,0.532 -1.312,1.438 0,0.875 0.562,1.453 1.343,1.453 0.797,0 1.391,-0.609 1.391,-1.5 z" /><path
         id="path100"
         style="fill:#000000;fill-opacity:1;fill-rule:nonzero;stroke:none"
         d="m 322.477,25.306 c 0,1.141 -0.891,1.984 -2.188,1.984 -1.391,0 -2.187,-0.703 -2.234,-2.359 l 0.843,0 c 0.063,1.141 0.532,1.625 1.375,1.625 0.766,0 1.329,-0.547 1.329,-1.281 0,-0.531 -0.313,-0.985 -0.907,-1.344 l -0.89,-0.5 c -1.422,-0.797 -1.828,-1.437 -1.907,-2.937 l 4.532,0 0,0.828 -3.578,0 c 0.078,0.562 0.39,0.922 1.218,1.406 l 0.969,0.516 c 0.938,0.515 1.438,1.218 1.438,2.062 z" /><path
         id="path102"
         style="fill:#000000;fill-opacity:1;fill-rule:nonzero;stroke:none"
         d="m 327.832,22.775 c 0,0.734 -0.062,1.187 -0.203,1.562 -0.328,0.828 -1.094,1.328 -2.031,1.328 -1.407,0 -2.297,-1.031 -2.297,-2.687 0,-1.656 0.859,-2.625 2.281,-2.625 1.141,0 1.938,0.656 2.141,1.672 l -0.797,0 c -0.219,-0.672 -0.672,-0.938 -1.313,-0.938 -0.843,0 -1.468,0.532 -1.484,1.688 l 3.703,0 z m -0.859,0.719 c 0,0 0,-0.047 0,-0.063 l -2.828,0 c 0.078,0.891 0.64,1.5 1.437,1.5 0.797,0 1.391,-0.656 1.391,-1.437 z" /><path
         id="path104"
         style="fill:#000000;fill-opacity:1;fill-rule:nonzero;stroke:none"
         d="m 333.137,24.056 c 0,2.125 -0.75,3.234 -2.297,3.234 -1.297,0 -2.235,-0.921 -2.235,-2.25 0,-1.265 0.875,-2.125 2.094,-2.125 0.641,0 1.11,0.235 1.563,0.766 -0.016,-1.656 -0.547,-2.578 -1.516,-2.578 -0.594,0 -1.016,0.375 -1.141,1.016 l -0.843,0 c 0.156,-1.11 0.89,-1.766 1.922,-1.766 1.593,0 2.453,1.344 2.453,3.703 z m -0.922,1 c 0,-0.828 -0.594,-1.391 -1.422,-1.391 -0.813,0 -1.313,0.532 -1.313,1.438 0,0.875 0.563,1.453 1.344,1.453 0.797,0 1.391,-0.609 1.391,-1.5 z" /><path
         id="path106"
         style="fill:#000000;fill-opacity:1;fill-rule:nonzero;stroke:none"
         d="m 380.879,25.306 c 0,1.141 -0.891,1.984 -2.188,1.984 -1.39,0 -2.187,-0.703 -2.234,-2.359 l 0.844,0 c 0.062,1.141 0.531,1.625 1.375,1.625 0.765,0 1.328,-0.547 1.328,-1.281 0,-0.531 -0.313,-0.985 -0.906,-1.344 l -0.891,-0.5 c -1.422,-0.797 -1.828,-1.437 -1.906,-2.937 l 4.531,0 0,0.828 -3.578,0 c 0.078,0.562 0.391,0.922 1.219,1.406 l 0.968,0.516 c 0.938,0.515 1.438,1.218 1.438,2.062 z" /><path
         id="path108"
         style="fill:#000000;fill-opacity:1;fill-rule:nonzero;stroke:none"
         d="m 382.137,21.494 1,0 0,-1 -1,0 0,1 z" /><path
         id="path110"
         style="fill:#000000;fill-opacity:1;fill-rule:nonzero;stroke:none"
         d="m 388.898,22.744 c 0,1.343 -0.89,2.234 -2.203,2.234 -0.468,0 -0.859,-0.125 -1.25,-0.422 l 0.266,1.766 2.828,0 0,0.828 -3.5,0 -0.516,-3.563 0.782,0 c 0.39,0.469 0.718,0.641 1.25,0.641 0.906,0 1.484,-0.594 1.484,-1.594 0,-0.984 -0.578,-1.531 -1.484,-1.531 -0.75,0 -1.203,0.375 -1.391,1.141 l -0.859,0 c 0.281,-1.36 1.047,-1.891 2.265,-1.891 1.375,0 2.328,0.953 2.328,2.391 z" /><path
         id="path112"
         style="fill:#000000;fill-opacity:1;fill-rule:nonzero;stroke:none"
         d="m 394.238,22.775 c 0,0.734 -0.062,1.187 -0.203,1.562 -0.328,0.828 -1.094,1.328 -2.031,1.328 -1.406,0 -2.297,-1.031 -2.297,-2.687 0,-1.656 0.859,-2.625 2.281,-2.625 1.141,0 1.938,0.656 2.141,1.672 l -0.797,0 c -0.219,-0.672 -0.672,-0.938 -1.312,-0.938 -0.844,0 -1.469,0.532 -1.485,1.688 l 3.703,0 z m -0.859,0.719 c 0,0 0,-0.047 0,-0.063 l -2.828,0 c 0.078,0.891 0.64,1.5 1.437,1.5 0.797,0 1.391,-0.656 1.391,-1.437 z" /><path
         id="path114"
         style="fill:#000000;fill-opacity:1;fill-rule:nonzero;stroke:none"
         d="m 399.543,24.056 c 0,2.125 -0.75,3.234 -2.297,3.234 -1.297,0 -2.234,-0.921 -2.234,-2.25 0,-1.265 0.875,-2.125 2.093,-2.125 0.641,0 1.11,0.235 1.563,0.766 -0.016,-1.656 -0.547,-2.578 -1.516,-2.578 -0.593,0 -1.015,0.375 -1.14,1.016 l -0.844,0 c 0.156,-1.11 0.891,-1.766 1.922,-1.766 1.594,0 2.453,1.344 2.453,3.703 z m -0.922,1 c 0,-0.828 -0.594,-1.391 -1.422,-1.391 -0.812,0 -1.312,0.532 -1.312,1.438 0,0.875 0.562,1.453 1.343,1.453 0.797,0 1.391,-0.609 1.391,-1.5 z" /><path
         id="path116"
         style="fill:#000000;fill-opacity:1;fill-rule:nonzero;stroke:none"
         d="m 449.633,22.462 c 0,0.828 -0.344,1.313 -1.156,1.594 0.64,0.25 0.953,0.688 0.953,1.375 0,1.172 -0.782,1.859 -2.078,1.859 -1.375,0 -2.094,-0.75 -2.125,-2.187 l 0.843,0 c 0.016,1 0.438,1.453 1.297,1.453 0.75,0 1.203,-0.437 1.203,-1.156 0,-0.735 -0.328,-1.031 -1.672,-1.031 l 0,-0.704 0.454,0 c 0.937,0 1.406,-0.453 1.406,-1.203 0,-0.859 -0.516,-1.359 -1.406,-1.359 -0.922,0 -1.375,0.453 -1.422,1.437 l -0.844,0 c 0.094,-1.515 0.844,-2.187 2.234,-2.187 1.407,0 2.313,0.828 2.313,2.109 z" /><path
         id="path118"
         style="fill:#000000;fill-opacity:1;fill-rule:nonzero;stroke:none"
         d="m 455.035,22.775 c 0,0.734 -0.062,1.187 -0.203,1.562 -0.328,0.828 -1.094,1.328 -2.031,1.328 -1.406,0 -2.297,-1.031 -2.297,-2.687 0,-1.656 0.859,-2.625 2.281,-2.625 1.141,0 1.938,0.656 2.141,1.672 l -0.797,0 c -0.219,-0.672 -0.672,-0.938 -1.313,-0.938 -0.843,0 -1.468,0.532 -1.484,1.688 l 3.703,0 z m -0.859,0.719 c 0,0 0,-0.047 0,-0.063 l -2.828,0 c 0.078,0.891 0.64,1.5 1.437,1.5 0.797,0 1.391,-0.656 1.391,-1.437 z" /><path
         id="path120"
         style="fill:#000000;fill-opacity:1;fill-rule:nonzero;stroke:none"
         d="m 460.34,24.056 c 0,2.125 -0.75,3.234 -2.297,3.234 -1.297,0 -2.234,-0.921 -2.234,-2.25 0,-1.265 0.875,-2.125 2.093,-2.125 0.641,0 1.11,0.235 1.563,0.766 -0.016,-1.656 -0.547,-2.578 -1.516,-2.578 -0.594,0 -1.015,0.375 -1.14,1.016 l -0.844,0 c 0.156,-1.11 0.89,-1.766 1.922,-1.766 1.593,0 2.453,1.344 2.453,3.703 z m -0.922,1 c 0,-0.828 -0.594,-1.391 -1.422,-1.391 -0.812,0 -1.312,0.532 -1.312,1.438 0,0.875 0.562,1.453 1.343,1.453 0.797,0 1.391,-0.609 1.391,-1.5 z" /><path
         id="path122"
         style="fill:#000000;fill-opacity:1;fill-rule:nonzero;stroke:none"
         d="m 50.008,33.091 2.281,0 0,-0.703 -2.281,0 0,0.703 z" /><path
         id="path124"
         style="fill:#000000;fill-opacity:1;fill-rule:nonzero;stroke:none"
         d="m 57.691,32.341 c 0,1.344 -0.89,2.235 -2.203,2.235 -0.468,0 -0.859,-0.125 -1.25,-0.422 l 0.266,1.765 2.828,0 0,0.828 -3.5,0 -0.516,-3.562 0.782,0 c 0.39,0.469 0.718,0.641 1.25,0.641 0.906,0 1.484,-0.594 1.484,-1.594 0,-0.985 -0.578,-1.531 -1.484,-1.531 -0.75,0 -1.203,0.375 -1.391,1.14 l -0.859,0 c 0.281,-1.359 1.047,-1.89 2.265,-1.89 1.375,0 2.328,0.953 2.328,2.39 z" /><path
         id="path126"
         style="fill:#000000;fill-opacity:1;fill-rule:nonzero;stroke:none"
         d="m 62.965,33.357 c 0,2.359 -0.75,3.531 -2.219,3.531 -1.469,0 -2.234,-1.187 -2.234,-3.469 0,-2.297 0.781,-3.468 2.234,-3.468 1.438,0 2.219,1.171 2.219,3.406 z m -0.86,0.078 c 0,-1.922 -0.437,-2.781 -1.375,-2.781 -0.89,0 -1.343,0.89 -1.343,2.75 0,1.875 0.453,2.734 1.359,2.734 0.906,0 1.359,-0.875 1.359,-2.703 z" /><path
         id="path128"
         style="fill:#000000;fill-opacity:1;fill-rule:nonzero;stroke:none"
         d="m 50.008,81.091 2.281,0 0,-0.703 -2.281,0 0,0.703 z" /><path
         id="path130"
         style="fill:#000000;fill-opacity:1;fill-rule:nonzero;stroke:none"
         d="m 57.754,79.716 0,0.766 -1,0 0,4.406 -0.625,0 -3.094,-4.281 0,-0.891 2.875,0 0,-1.625 0.844,0 0,1.625 1,0 z m -1.844,0.766 -2.14,0 2.14,2.969 0,-2.969 z" /><path
         id="path132"
         style="fill:#000000;fill-opacity:1;fill-rule:nonzero;stroke:none"
         d="m 62.965,81.357 c 0,2.359 -0.75,3.531 -2.219,3.531 -1.469,0 -2.234,-1.187 -2.234,-3.469 0,-2.297 0.781,-3.468 2.234,-3.468 1.438,0 2.219,1.171 2.219,3.406 z m -0.86,0.078 c 0,-1.922 -0.437,-2.781 -1.375,-2.781 -0.89,0 -1.343,0.89 -1.343,2.75 0,1.875 0.453,2.734 1.359,2.734 0.906,0 1.359,-0.875 1.359,-2.703 z" /><path
         id="path134"
         style="fill:#000000;fill-opacity:1;fill-rule:nonzero;stroke:none"
         d="m 50.008,128.294 2.281,0 0,-0.703 -2.281,0 0,0.703 z" /><path
         id="path136"
         style="fill:#000000;fill-opacity:1;fill-rule:nonzero;stroke:none"
         d="m 57.629,127.263 c 0,0.828 -0.344,1.313 -1.156,1.594 0.64,0.25 0.953,0.687 0.953,1.375 0,1.172 -0.781,1.859 -2.078,1.859 -1.375,0 -2.094,-0.75 -2.125,-2.187 l 0.843,0 c 0.016,1 0.438,1.453 1.297,1.453 0.75,0 1.203,-0.438 1.203,-1.156 0,-0.735 -0.328,-1.032 -1.671,-1.032 l 0,-0.703 0.453,0 c 0.937,0 1.406,-0.453 1.406,-1.203 0,-0.859 -0.516,-1.359 -1.406,-1.359 -0.922,0 -1.375,0.453 -1.422,1.437 l -0.844,0 c 0.094,-1.515 0.844,-2.187 2.234,-2.187 1.407,0 2.313,0.828 2.313,2.109 z" /><path
         id="path138"
         style="fill:#000000;fill-opacity:1;fill-rule:nonzero;stroke:none"
         d="m 62.965,128.56 c 0,2.359 -0.75,3.531 -2.219,3.531 -1.469,0 -2.234,-1.187 -2.234,-3.469 0,-2.296 0.781,-3.468 2.234,-3.468 1.438,0 2.219,1.172 2.219,3.406 z m -0.86,0.078 c 0,-1.922 -0.437,-2.781 -1.375,-2.781 -0.89,0 -1.343,0.89 -1.343,2.75 0,1.875 0.453,2.734 1.359,2.734 0.906,0 1.359,-0.875 1.359,-2.703 z" /><path
         id="path140"
         style="fill:#000000;fill-opacity:1;fill-rule:nonzero;stroke:none"
         d="m 50.008,176.294 2.281,0 0,-0.703 -2.281,0 0,0.703 z" /><path
         id="path142"
         style="fill:#000000;fill-opacity:1;fill-rule:nonzero;stroke:none"
         d="m 57.676,178.107 c 0,1.14 -0.891,1.984 -2.188,1.984 -1.39,0 -2.187,-0.703 -2.234,-2.359 l 0.844,0 c 0.062,1.14 0.531,1.625 1.375,1.625 0.765,0 1.328,-0.547 1.328,-1.281 0,-0.532 -0.313,-0.985 -0.906,-1.344 l -0.891,-0.5 c -1.422,-0.797 -1.828,-1.438 -1.906,-2.938 l 4.531,0 0,0.828 -3.578,0 c 0.078,0.563 0.39,0.922 1.219,1.407 l 0.968,0.515 c 0.938,0.516 1.438,1.219 1.438,2.063 z" /><path
         id="path144"
         style="fill:#000000;fill-opacity:1;fill-rule:nonzero;stroke:none"
         d="m 62.965,176.56 c 0,2.359 -0.75,3.531 -2.219,3.531 -1.469,0 -2.234,-1.187 -2.234,-3.469 0,-2.296 0.781,-3.468 2.234,-3.468 1.438,0 2.219,1.172 2.219,3.406 z m -0.86,0.078 c 0,-1.922 -0.437,-2.781 -1.375,-2.781 -0.89,0 -1.343,0.89 -1.343,2.75 0,1.875 0.453,2.734 1.359,2.734 0.906,0 1.359,-0.875 1.359,-2.703 z" /><path
         id="path146"
         style="fill:#000000;fill-opacity:1;fill-rule:nonzero;stroke:none"
         d="m 50.008,224.294 2.281,0 0,-0.703 -2.281,0 0,0.703 z" /><path
         id="path148"
         style="fill:#000000;fill-opacity:1;fill-rule:nonzero;stroke:none"
         d="m 56.098,221.294 0,6.797 -0.563,0 c -0.297,-1.047 -0.484,-1.187 -1.781,-1.344 l 0,-0.609 1.5,0 0,-4.844 0.844,0 z" /><path
         id="path150"
         style="fill:#000000;fill-opacity:1;fill-rule:nonzero;stroke:none"
         d="m 62.965,224.56 c 0,2.359 -0.75,3.531 -2.219,3.531 -1.469,0 -2.234,-1.187 -2.234,-3.469 0,-2.296 0.781,-3.468 2.234,-3.468 1.438,0 2.219,1.172 2.219,3.406 z m -0.86,0.078 c 0,-1.922 -0.437,-2.781 -1.375,-2.781 -0.89,0 -1.343,0.89 -1.343,2.75 0,1.875 0.453,2.734 1.359,2.734 0.906,0 1.359,-0.875 1.359,-2.703 z" /><path
         id="path152"
         style="fill:#000000;fill-opacity:1;fill-rule:nonzero;stroke:none"
         d="m 65.629,271.759 c 0,2.36 -0.75,3.531 -2.219,3.531 -1.469,0 -2.234,-1.187 -2.234,-3.468 0,-2.297 0.781,-3.469 2.234,-3.469 1.438,0 2.219,1.172 2.219,3.406 z m -0.859,0.078 c 0,-1.922 -0.438,-2.781 -1.375,-2.781 -0.891,0 -1.344,0.891 -1.344,2.75 0,1.875 0.453,2.734 1.359,2.734 0.906,0 1.36,-0.875 1.36,-2.703 z" /><path
         id="path154"
         style="fill:#000000;fill-opacity:1;fill-rule:nonzero;stroke:none"
         d="m 225.535,8.294 0,0.797 -4.703,0 0,-7 0.891,0 0,3.188 3.343,0 0,0.781 -3.343,0 0,2.234 3.812,0 z" /><path
         id="path156"
         style="fill:#000000;fill-opacity:1;fill-rule:nonzero;stroke:none"
         d="m 228.578,6.419 0,0.813 c -0.14,0.015 -0.203,0.031 -0.312,0.031 -0.516,0 -0.907,-0.312 -1.36,-1.062 l 0,0.921 -0.734,0 0,-5.031 0.797,0 0,2.61 c 0,1.125 0.375,1.703 1.609,1.718 z" /><path
         id="path158"
         style="fill:#000000;fill-opacity:1;fill-rule:nonzero;stroke:none"
         d="m 233.531,4.372 c 0,0.735 -0.062,1.188 -0.203,1.563 -0.328,0.828 -1.094,1.328 -2.031,1.328 -1.406,0 -2.297,-1.031 -2.297,-2.687 0,-1.657 0.859,-2.625 2.281,-2.625 1.141,0 1.938,0.656 2.141,1.671 l -0.797,0 c -0.219,-0.671 -0.672,-0.937 -1.313,-0.937 -0.843,0 -1.468,0.531 -1.484,1.687 l 3.703,0 z m -0.859,0.719 c 0,0 0,-0.047 0,-0.062 l -2.828,0 c 0.078,0.89 0.64,1.5 1.437,1.5 0.797,0 1.391,-0.657 1.391,-1.438 z m 0.344,4 -1.094,0 -0.922,-1.422 0.578,0 1.438,1.422 z" /><path
         id="path160"
         style="fill:#000000;fill-opacity:1;fill-rule:nonzero;stroke:none"
         d="m 238.699,-0.003 0,7.125 -0.719,0 0,-0.671 c -0.359,0.531 -0.937,0.812 -1.593,0.812 -1.328,0 -2.188,-1.047 -2.188,-2.719 0,-1.625 0.828,-2.593 2.141,-2.593 0.703,0 1.187,0.25 1.562,0.796 l 0,-2.75 0.797,0 z m -0.797,4.579 c 0,-1.157 -0.562,-1.875 -1.406,-1.875 -0.875,0 -1.469,0.734 -1.469,1.906 0,1.156 0.594,1.906 1.469,1.906 0.859,0 1.406,-0.766 1.406,-1.937 z" /><path
         id="path162"
         style="fill:#000000;fill-opacity:1;fill-rule:nonzero;stroke:none"
         d="m 243.988,2.091 0,5.031 -0.797,0 0,-2.781 c 0,-1.015 -0.531,-1.687 -1.375,-1.687 -0.625,0 -1.031,0.375 -1.031,0.984 l 0,3.484 -0.797,0 0,-3.796 c 0,-0.844 0.625,-1.375 1.594,-1.375 0.75,0 1.219,0.25 1.688,0.921 l 0,-0.781 0.718,0 z" /><path
         id="path164"
         style="fill:#000000;fill-opacity:1;fill-rule:nonzero;stroke:none"
         d="m 249.621,4.372 c 0,0.735 -0.062,1.188 -0.203,1.563 -0.328,0.828 -1.094,1.328 -2.031,1.328 -1.407,0 -2.297,-1.031 -2.297,-2.687 0,-1.657 0.859,-2.625 2.281,-2.625 1.141,0 1.938,0.656 2.141,1.671 l -0.797,0 c -0.219,-0.671 -0.672,-0.937 -1.313,-0.937 -0.843,0 -1.468,0.531 -1.484,1.687 l 3.703,0 z m -0.859,0.719 c 0,0 0,-0.047 0,-0.062 l -2.828,0 c 0.078,0.89 0.64,1.5 1.437,1.5 0.797,0 1.391,-0.657 1.391,-1.438 z" /><path
         id="path166"
         style="fill:#000000;fill-opacity:1;fill-rule:nonzero;stroke:none"
         d="m 254.711,2.091 0,3.797 c 0,0.844 -0.625,1.375 -1.594,1.375 -0.75,0 -1.219,-0.281 -1.672,-0.984 l 0,0.843 -0.734,0 0,-5.031 0.797,0 0,2.766 c 0,1.031 0.562,1.703 1.375,1.703 0.625,0 1.031,-0.375 1.031,-0.984 l 0,-3.485 0.797,0 z" /><path
         id="path168"
         style="fill:#000000;fill-opacity:1;fill-rule:nonzero;stroke:none"
         d="m 259.953,3.826 -0.812,0 c -0.125,-0.813 -0.547,-1.141 -1.219,-1.141 -0.891,0 -1.422,0.687 -1.422,1.875 0,1.25 0.531,1.969 1.391,1.969 0.671,0 1.093,-0.407 1.203,-1.094 l 0.797,0 c -0.094,1.219 -0.86,1.828 -1.985,1.828 -1.344,0 -2.234,-1.031 -2.234,-2.703 0,-1.625 0.859,-2.609 2.219,-2.609 1.203,0 1.968,0.718 2.062,1.875 z" /><path
         id="path170"
         style="fill:#000000;fill-opacity:1;fill-rule:nonzero;stroke:none"
         d="m 265.098,4.372 c 0,0.735 -0.063,1.188 -0.203,1.563 -0.329,0.828 -1.094,1.328 -2.032,1.328 -1.406,0 -2.297,-1.031 -2.297,-2.687 0,-1.657 0.86,-2.625 2.282,-2.625 1.14,0 1.937,0.656 2.14,1.671 l -0.797,0 c -0.218,-0.671 -0.671,-0.937 -1.312,-0.937 -0.844,0 -1.469,0.531 -1.484,1.687 l 3.703,0 z m -0.86,0.719 c 0,0 0,-0.047 0,-0.062 l -2.828,0 c 0.078,0.89 0.641,1.5 1.438,1.5 0.797,0 1.39,-0.657 1.39,-1.438 z" /><path
         id="path172"
         style="fill:#000000;fill-opacity:1;fill-rule:nonzero;stroke:none"
         d="m 270.98,0.06 c -0.843,1.375 -1.312,2.984 -1.312,4.516 0,1.531 0.469,3.14 1.312,4.515 l -0.531,0 c -0.953,-1.265 -1.562,-3.015 -1.562,-4.515 0,-1.516 0.609,-3.266 1.562,-4.516 l 0.531,0 z" /><path
         id="path174"
         style="fill:#000000;fill-opacity:1;fill-rule:nonzero;stroke:none"
         d="m 277.578,2.091 0,7 -0.89,0 0,-3.031 -3.594,0 0,3.031 -0.891,0 0,-7 0.891,0 0,3.188 3.594,0 0,-3.188 0.89,0 z" /><path
         id="path176"
         style="fill:#000000;fill-opacity:1;fill-rule:nonzero;stroke:none"
         d="m 282.73,2.091 0,0.703 -3.125,0 2.985,3.61 0,0.718 -3.75,0 0,-0.703 2.797,0 -3,-3.609 0,-0.719 4.093,0 z" /><path
         id="path178"
         style="fill:#000000;fill-opacity:1;fill-rule:nonzero;stroke:none"
         d="m 285.594,4.56 c 0,1.516 -0.594,3.266 -1.563,4.531 l -0.531,0 c 0.844,-1.375 1.312,-2.984 1.312,-4.531 0,-1.516 -0.468,-3.141 -1.312,-4.5 l 0.531,0 c 0.969,1.25 1.563,3 1.563,4.5 z" /><path
         id="path180"
         style="fill:#0000ff;fill-opacity:1;fill-rule:nonzero;stroke:none"
         d="m 37.77,127.779 -0.797,0 0,-5.485 0.797,0 0,2.297 6.203,0 0,0.891 -6.203,0 0,2.297 z" /><path
         id="path182"
         style="fill:#0000ff;fill-opacity:1;fill-rule:nonzero;stroke:none"
         d="m 39.035,133.88 c -1.312,0 -2.062,-0.781 -2.062,-2.156 l 0,-2.891 7,0 0,0.891 -2.969,0 0,2.203 c 0,1.141 -0.813,1.953 -1.969,1.953 z m -0.047,-0.937 c 0.766,0 1.235,-0.5 1.235,-1.36 l 0,-1.859 -2.453,0 0,1.859 c 0,0.86 0.453,1.36 1.218,1.36 z" /><path
         id="path184"
         style="fill:#0000ff;fill-opacity:1;fill-rule:nonzero;stroke:none"
         d="m 39.16,139.267 c -1.14,0 -1.984,-0.891 -1.984,-2.187 0,-1.391 0.703,-2.188 2.359,-2.235 l 0,0.844 c -1.14,0.062 -1.625,0.531 -1.625,1.375 0,0.766 0.547,1.328 1.281,1.328 0.532,0 0.985,-0.312 1.344,-0.906 l 0.5,-0.891 c 0.797,-1.422 1.438,-1.828 2.938,-1.906 l 0,4.531 -0.828,0 0,-3.578 c -0.563,0.078 -0.922,0.391 -1.407,1.219 l -0.515,0.969 c -0.516,0.937 -1.219,1.437 -2.063,1.437 z" /><path
         id="path186"
         style="fill:#0000ff;fill-opacity:1;fill-rule:nonzero;stroke:none"
         d="m 45.191,145.247 0.484,0 0,-5.766 -0.484,0 0,5.766 z" /><path
         id="path188"
         style="fill:#0000ff;fill-opacity:1;fill-rule:nonzero;stroke:none"
         d="m 43.973,150.173 -0.782,0 0,-3.453 -6.218,0 0,-0.89 7,0 0,4.343 z" /><path
         id="path190"
         style="fill:#0000ff;fill-opacity:1;fill-rule:nonzero;stroke:none"
         d="m 41.426,156.529 0,-0.922 c 1.312,-0.219 1.937,-0.766 1.937,-1.953 0,-1.391 -1.062,-2.266 -2.812,-2.266 -1.797,0 -2.953,0.844 -2.953,2.188 0,1.093 0.484,1.671 1.547,1.89 l 0,0.906 c -1.532,-0.265 -2.344,-1.156 -2.344,-2.687 0,-2.125 1.719,-3.203 3.75,-3.203 2.047,0 3.594,1.109 3.594,3.156 0,1.719 -0.907,2.672 -2.719,2.891 z" /><path
         id="path192"
         style="fill:#0000ff;fill-opacity:1;fill-rule:nonzero;stroke:none"
         d="m 43.973,158.787 -1,0 0,-1 1,0 0,1 z m -4.032,0 -1,0 0,-1 1,0 0,1 z" /><path
         id="path194"
         style="fill:#0000ff;fill-opacity:1;fill-rule:nonzero;stroke:none"
         d="m 43.973,164.38 -7,0 0,-0.797 2.609,0 c -0.516,-0.343 -0.781,-0.875 -0.781,-1.546 0,-1.297 1.015,-2.157 2.609,-2.157 1.703,0 2.703,0.828 2.703,2.188 0,0.687 -0.25,1.172 -0.875,1.594 l 0.735,0 0,0.718 z m -2.5,-0.797 c 1.172,0 1.89,-0.562 1.89,-1.406 0,-0.875 -0.734,-1.469 -1.906,-1.469 -1.172,0 -1.906,0.594 -1.906,1.469 0,0.86 0.765,1.406 1.922,1.406 z" /><path
         id="path196"
         style="fill:#0000ff;fill-opacity:1;fill-rule:nonzero;stroke:none"
         d="m 41.973,170.951 c -0.844,0 -1.344,-0.391 -1.688,-1.282 -0.297,0.625 -0.828,0.969 -1.531,0.969 -1.016,0 -1.781,-0.75 -1.781,-2.078 l 0,-2.828 7,0 0,3.156 c 0,1.25 -0.844,2.063 -2,2.063 z m -3.094,-1.204 c 0.703,0 1.109,-0.421 1.109,-1.406 l 0,-1.719 -2.218,0 0,1.719 c 0,0.985 0.406,1.406 1.109,1.406 z m 3.109,0.297 c 0.672,0 1.203,-0.406 1.203,-1.25 l 0,-2.172 -2.406,0 0,2.172 c 0,0.844 0.516,1.25 1.203,1.25 z" /><path
         id="path198"
         style="fill:#0000ff;fill-opacity:1;fill-rule:nonzero;stroke:none"
         d="m 42.051,177.322 c -0.86,0 -1.5,-0.532 -1.75,-1.485 l -0.469,-1.75 c -0.219,-0.843 -0.5,-1.156 -1.047,-1.156 -0.703,0 -1.234,0.625 -1.234,1.563 0,1.109 0.515,1.75 1.422,1.75 l 0,0.843 c -1.375,0 -2.172,-0.953 -2.172,-2.562 0,-1.531 0.844,-2.485 2.109,-2.485 0.86,0 1.391,0.454 1.641,1.375 l 0.453,1.735 c 0.234,0.875 0.594,1.281 1.141,1.281 0.765,0 1.218,-0.578 1.218,-1.781 0,-1.328 -0.672,-1.969 -1.672,-1.969 l 0,-0.859 c 1.657,0 2.454,1.125 2.454,2.765 0,1.782 -0.844,2.735 -2.094,2.735 z" /><path
         id="path200"
         style="fill:#0000ff;fill-opacity:1;fill-rule:nonzero;stroke:none"
         d="m 43.973,181.13 -6.797,0 0,-0.562 c 1.047,-0.297 1.187,-0.485 1.344,-1.781 l 0.609,0 0,1.5 4.844,0 0,0.843 z" /><path
         id="path202"
         style="fill:#0000ff;fill-opacity:1;fill-rule:nonzero;stroke:none"
         d="m 43.973,186.466 -6.797,0 0,-0.562 c 1.047,-0.297 1.187,-0.485 1.344,-1.782 l 0.609,0 0,1.5 4.844,0 0,0.844 z" /><path
         id="path204"
         style="fill:#ff00ff;fill-opacity:1;fill-rule:nonzero;stroke:none"
         d="m 25.57,133.244 -7,0 0,-0.797 2.61,0 c -0.516,-0.344 -0.782,-0.875 -0.782,-1.547 0,-1.297 1.016,-2.156 2.61,-2.156 1.703,0 2.703,0.828 2.703,2.187 0,0.688 -0.25,1.172 -0.875,1.594 l 0.734,0 0,0.719 z m -2.5,-0.797 c 1.172,0 1.891,-0.563 1.891,-1.407 0,-0.875 -0.734,-1.468 -1.906,-1.468 -1.172,0 -1.907,0.593 -1.907,1.468 0,0.86 0.766,1.407 1.922,1.407 z" /><path
         id="path206"
         style="fill:#ff00ff;fill-opacity:1;fill-rule:nonzero;stroke:none"
         d="m 23.57,139.814 c -0.843,0 -1.343,-0.391 -1.687,-1.281 -0.297,0.625 -0.828,0.968 -1.531,0.968 -1.016,0 -1.782,-0.75 -1.782,-2.078 l 0,-2.828 7,0 0,3.156 c 0,1.25 -0.843,2.063 -2,2.063 z m -3.093,-1.203 c 0.703,0 1.109,-0.422 1.109,-1.406 l 0,-1.719 -2.219,0 0,1.719 c 0,0.984 0.406,1.406 1.11,1.406 z m 3.109,0.297 c 0.672,0 1.203,-0.407 1.203,-1.25 l 0,-2.172 -2.406,0 0,2.172 c 0,0.843 0.515,1.25 1.203,1.25 z" /><path
         id="path208"
         style="fill:#ff00ff;fill-opacity:1;fill-rule:nonzero;stroke:none"
         d="m 23.648,146.185 c -0.859,0 -1.5,-0.531 -1.75,-1.484 l -0.468,-1.75 c -0.219,-0.844 -0.5,-1.157 -1.047,-1.157 -0.703,0 -1.235,0.625 -1.235,1.563 0,1.109 0.516,1.75 1.422,1.75 l 0,0.844 c -1.375,0 -2.172,-0.954 -2.172,-2.563 0,-1.531 0.844,-2.484 2.11,-2.484 0.859,0 1.39,0.453 1.64,1.375 l 0.454,1.734 c 0.234,0.875 0.593,1.281 1.14,1.281 0.766,0 1.219,-0.578 1.219,-1.781 0,-1.328 -0.672,-1.969 -1.672,-1.969 l 0,-0.859 c 1.656,0 2.453,1.125 2.453,2.766 0,1.781 -0.844,2.734 -2.094,2.734 z" /><path
         id="path210"
         style="fill:#ff00ff;fill-opacity:1;fill-rule:nonzero;stroke:none"
         d="m 25.57,149.994 -6.797,0 0,-0.563 c 1.047,-0.297 1.188,-0.484 1.344,-1.781 l 0.61,0 0,1.5 4.843,0 0,0.844 z" /><path
         id="path212"
         style="fill:#ff00ff;fill-opacity:1;fill-rule:nonzero;stroke:none"
         d="m 25.57,155.33 -6.797,0 0,-0.563 c 1.047,-0.297 1.188,-0.484 1.344,-1.781 l 0.61,0 0,1.5 4.843,0 0,0.844 z" /><path
         id="path214"
         style="fill:#ff00ff;fill-opacity:1;fill-rule:nonzero;stroke:none"
         d="m 26.789,162.888 0.484,0 0,-5.766 -0.484,0 0,5.766 z" /><path
         id="path216"
         style="fill:#ff00ff;fill-opacity:1;fill-rule:nonzero;stroke:none"
         d="m 25.57,169.974 -7,0 0,-1.234 6.094,-2.032 -6.094,-2.078 0,-1.234 7,0 0,0.844 -5.859,0 5.859,1.984 0,0.938 -5.859,1.968 5.859,0 0,0.844 z" /><path
         id="path218"
         style="fill:#ff00ff;fill-opacity:1;fill-rule:nonzero;stroke:none"
         d="m 25.57,175.814 -0.781,0 0,-3.453 -6.219,0 0,-0.891 7,0 0,4.344 z" /><path
         id="path220"
         style="fill:#ff00ff;fill-opacity:1;fill-rule:nonzero;stroke:none"
         d="m 18.57,177.9 7,0 0,-0.906 -7,0 0,0.906 z" /><path
         id="path222"
         style="fill:#ff00ff;fill-opacity:1;fill-rule:nonzero;stroke:none"
         d="m 25.57,184.915 -7,0 0,-0.843 5.719,0 -5.719,-3.657 0,-0.968 7,0 0,0.843 -5.672,0 5.672,3.61 0,1.015 z" /><path
         id="path224"
         style="fill:#00ff00;fill-opacity:1;fill-rule:nonzero;stroke:none"
         d="m 7.172,126.044 -7,0 0,-0.797 2.609,0 C 2.266,124.904 2,124.372 2,123.701 c 0,-1.297 1.016,-2.157 2.609,-2.157 1.703,0 2.703,0.828 2.703,2.188 0,0.687 -0.25,1.172 -0.874,1.594 l 0.734,0 0,0.718 z m -2.5,-0.797 c 1.172,0 1.89,-0.562 1.89,-1.406 0,-0.875 -0.734,-1.469 -1.906,-1.469 -1.172,0 -1.906,0.594 -1.906,1.469 0,0.86 0.766,1.406 1.922,1.406 z" /><path
         id="path226"
         style="fill:#00ff00;fill-opacity:1;fill-rule:nonzero;stroke:none"
         d="m 5.172,132.615 c -0.844,0 -1.344,-0.391 -1.688,-1.282 -0.296,0.625 -0.828,0.969 -1.531,0.969 -1.015,0 -1.781,-0.75 -1.781,-2.078 l 0,-2.828 7,0 0,3.156 c 0,1.25 -0.844,2.063 -2,2.063 z m -3.094,-1.203 c 0.703,0 1.11,-0.422 1.11,-1.407 l 0,-1.718 -2.219,0 0,1.718 c 0,0.985 0.406,1.407 1.109,1.407 z m 3.11,0.296 c 0.671,0 1.203,-0.406 1.203,-1.25 l 0,-2.171 -2.407,0 0,2.171 c 0,0.844 0.516,1.25 1.204,1.25 z" /><path
         id="path228"
         style="fill:#00ff00;fill-opacity:1;fill-rule:nonzero;stroke:none"
         d="m 5.25,138.986 c -0.859,0 -1.5,-0.531 -1.75,-1.485 l -0.469,-1.75 c -0.219,-0.843 -0.5,-1.156 -1.047,-1.156 -0.703,0 -1.234,0.625 -1.234,1.563 0,1.109 0.516,1.75 1.422,1.75 l 0,0.843 C 0.797,138.751 0,137.798 0,136.189 c 0,-1.531 0.844,-2.484 2.109,-2.484 0.86,0 1.391,0.453 1.641,1.375 l 0.453,1.734 c 0.235,0.875 0.594,1.281 1.141,1.281 0.765,0 1.218,-0.578 1.218,-1.781 0,-1.328 -0.671,-1.969 -1.671,-1.969 l 0,-0.859 c 1.656,0 2.453,1.125 2.453,2.765 0,1.782 -0.844,2.735 -2.094,2.735 z" /><path
         id="path230"
         style="fill:#00ff00;fill-opacity:1;fill-rule:nonzero;stroke:none"
         d="m 7.172,142.794 -6.797,0 0,-0.562 c 1.047,-0.297 1.187,-0.485 1.344,-1.781 l 0.609,0 0,1.5 4.844,0 0,0.843 z" /><path
         id="path232"
         style="fill:#00ff00;fill-opacity:1;fill-rule:nonzero;stroke:none"
         d="m 7.172,148.13 -6.797,0 0,-0.562 c 1.047,-0.297 1.187,-0.485 1.344,-1.781 l 0.609,0 0,1.5 4.844,0 0,0.843 z" /><path
         id="path234"
         style="fill:#00ff00;fill-opacity:1;fill-rule:nonzero;stroke:none"
         d="m 8.391,155.689 0.484,0 0,-5.766 -0.484,0 0,5.766 z" /><path
         id="path236"
         style="fill:#00ff00;fill-opacity:1;fill-rule:nonzero;stroke:none"
         d="m 7.172,162.775 -7,0 0,-1.235 6.094,-2.031 -6.094,-2.078 0,-1.234 7,0 0,0.843 -5.86,0 5.86,1.985 0,0.937 -5.86,1.969 5.86,0 0,0.844 z" /><path
         id="path238"
         style="fill:#00ff00;fill-opacity:1;fill-rule:nonzero;stroke:none"
         d="m 5.25,169.458 c -0.859,0 -1.5,-0.531 -1.75,-1.484 l -0.469,-1.75 c -0.219,-0.844 -0.5,-1.156 -1.047,-1.156 -0.703,0 -1.234,0.625 -1.234,1.562 0,1.11 0.516,1.75 1.422,1.75 l 0,0.844 C 0.797,169.224 0,168.271 0,166.662 c 0,-1.532 0.844,-2.485 2.109,-2.485 0.86,0 1.391,0.453 1.641,1.375 l 0.453,1.735 c 0.235,0.875 0.594,1.281 1.141,1.281 0.765,0 1.218,-0.578 1.218,-1.781 0,-1.329 -0.671,-1.969 -1.671,-1.969 l 0,-0.86 c 1.656,0 2.453,1.125 2.453,2.766 0,1.781 -0.844,2.734 -2.094,2.734 z" /><path
         id="path240"
         style="fill:#00ff00;fill-opacity:1;fill-rule:nonzero;stroke:none"
         d="m 0.969,175.326 -0.797,0 0,-5.485 0.797,0 0,2.297 6.203,0 0,0.891 -6.203,0 0,2.297 z" /><path
         id="path242"
         style="fill:#00ff00;fill-opacity:1;fill-rule:nonzero;stroke:none"
         d="m 7.172,181.38 -0.781,0 0,-4.125 -2.407,0 0,3.813 -0.781,0 0,-3.813 -2.234,0 0,3.953 -0.797,0 0,-4.843 7,0 0,5.015 z" /><path
         id="path244"
         style="fill:#00ff00;fill-opacity:1;fill-rule:nonzero;stroke:none"
         d="m 2.234,187.83 c -1.312,0 -2.062,-0.782 -2.062,-2.157 l 0,-2.89 7,0 0,0.89 -2.969,0 0,2.203 c 0,1.141 -0.812,1.954 -1.969,1.954 z m -0.046,-0.938 c 0.765,0 1.234,-0.5 1.234,-1.359 l 0,-1.86 -2.453,0 0,1.86 c 0,0.859 0.453,1.359 1.219,1.359 z" /></g></g></svg>