<?xml version="1.0" encoding="UTF-8" standalone="no"?>
<svg
   xmlns:dc="http://purl.org/dc/elements/1.1/"
   xmlns:cc="http://creativecommons.org/ns#"
   xmlns:rdf="http://www.w3.org/1999/02/22-rdf-syntax-ns#"
   xmlns:svg="http://www.w3.org/2000/svg"
   xmlns="http://www.w3.org/2000/svg"
   viewBox="0 0 118.77661 403.89444"
   height="403.89444"
   width="118.77661"
   xml:space="preserve"
   version="1.1"
   id="svg2"><metadata
     id="metadata8"><rdf:RDF><cc:Work
         rdf:about=""><dc:format>image/svg+xml</dc:format><dc:type
           rdf:resource="http://purl.org/dc/dcmitype/StillImage" /></cc:Work></rdf:RDF></metadata><defs
     id="defs6" /><g
     transform="matrix(1.25,0,0,-1.25,0,403.89442)"
     id="g10"><g
       id="g12"><path
         id="path14"
         style="fill:none;stroke:#000080;stroke-width:1.60000002;stroke-linecap:square;stroke-linejoin:bevel;stroke-miterlimit:4;stroke-dasharray:none;stroke-opacity:1"
         d="m 5.934,302.838 48,0" /><path
         id="path16"
         style="fill:none;stroke:#000080;stroke-width:1.60000002;stroke-linecap:square;stroke-linejoin:bevel;stroke-miterlimit:4;stroke-dasharray:none;stroke-opacity:1"
         d="m 5.934,299.635 48,0" /><path
         id="path18"
         style="fill:none;stroke:#000080;stroke-width:1.60000002;stroke-linecap:square;stroke-linejoin:bevel;stroke-miterlimit:4;stroke-dasharray:none;stroke-opacity:1"
         d="m 5.934,277.237 48,0" /><path
         id="path20"
         style="fill:none;stroke:#000080;stroke-width:1.60000002;stroke-linecap:square;stroke-linejoin:bevel;stroke-miterlimit:4;stroke-dasharray:none;stroke-opacity:1"
         d="m 5.934,280.436 48,0" /><path
         id="path22"
         style="fill:none;stroke:#000080;stroke-width:1.60000002;stroke-linecap:square;stroke-linejoin:bevel;stroke-miterlimit:4;stroke-dasharray:none;stroke-opacity:1"
         d="m 5.934,302.838 0,-25.601" /><path
         id="path24"
         style="fill:none;stroke:#000080;stroke-width:1.60000002;stroke-linecap:square;stroke-linejoin:bevel;stroke-miterlimit:4;stroke-dasharray:none;stroke-opacity:1"
         d="m 53.934,302.838 0,-25.601" /><path
         id="path26"
         style="fill:none;stroke:#000080;stroke-width:1.60000002;stroke-linecap:square;stroke-linejoin:bevel;stroke-miterlimit:4;stroke-dasharray:none;stroke-opacity:1"
         d="m 5.934,302.838 36.8,19.199" /><path
         id="path28"
         style="fill:none;stroke:#000080;stroke-width:1.60000002;stroke-linecap:square;stroke-linejoin:bevel;stroke-miterlimit:4;stroke-dasharray:none;stroke-opacity:1"
         d="m 53.934,302.838 40,19.199" /><path
         id="path30"
         style="fill:none;stroke:#000080;stroke-width:1.60000002;stroke-linecap:square;stroke-linejoin:bevel;stroke-miterlimit:4;stroke-dasharray:none;stroke-opacity:1"
         d="m 53.934,299.635 40,19.203" /><path
         id="path32"
         style="fill:none;stroke:#000080;stroke-width:1.60000002;stroke-linecap:square;stroke-linejoin:bevel;stroke-miterlimit:4;stroke-dasharray:none;stroke-opacity:1"
         d="m 53.934,280.436 40,22.402" /><path
         id="path34"
         style="fill:none;stroke:#000080;stroke-width:1.60000002;stroke-linecap:square;stroke-linejoin:bevel;stroke-miterlimit:4;stroke-dasharray:none;stroke-opacity:1"
         d="m 53.934,277.237 40,22.398" /><path
         id="path36"
         style="fill:none;stroke:#000080;stroke-width:1.60000002;stroke-linecap:square;stroke-linejoin:bevel;stroke-miterlimit:4;stroke-dasharray:none;stroke-opacity:1"
         d="m 42.734,322.037 51.2,0" /><path
         id="path38"
         style="fill:none;stroke:#000080;stroke-width:1.60000002;stroke-linecap:square;stroke-linejoin:bevel;stroke-miterlimit:4;stroke-dasharray:none;stroke-opacity:1"
         d="m 93.934,322.037 0,-22.402" /><path
         id="path40"
         style="fill:none;stroke:#000080;stroke-width:0.80000001;stroke-linecap:square;stroke-linejoin:bevel;stroke-miterlimit:4;stroke-dasharray:none;stroke-opacity:1"
         d="m 5.934,290.037 9.601,9.598" /><path
         id="path42"
         style="fill:none;stroke:#000080;stroke-width:0.80000001;stroke-linecap:square;stroke-linejoin:bevel;stroke-miterlimit:4;stroke-dasharray:none;stroke-opacity:1"
         d="m 12.332,280.436 19.203,19.199" /><path
         id="path44"
         style="fill:none;stroke:#000080;stroke-width:0.80000001;stroke-linecap:square;stroke-linejoin:bevel;stroke-miterlimit:4;stroke-dasharray:none;stroke-opacity:1"
         d="m 28.332,280.436 19.203,19.199" /><path
         id="path46"
         style="fill:none;stroke:#000080;stroke-width:0.80000001;stroke-linecap:square;stroke-linejoin:bevel;stroke-miterlimit:4;stroke-dasharray:none;stroke-opacity:1"
         d="m 44.332,280.436 9.602,9.601" /><path
         id="path48"
         style="fill:none;stroke:#000080;stroke-width:0.80000001;stroke-linecap:square;stroke-linejoin:bevel;stroke-miterlimit:4;stroke-dasharray:none;stroke-opacity:1"
         d="m 53.934,289.237 5.601,-5.602" /><path
         id="path50"
         style="fill:none;stroke:#000080;stroke-width:0.80000001;stroke-linecap:square;stroke-linejoin:bevel;stroke-miterlimit:4;stroke-dasharray:none;stroke-opacity:1"
         d="m 59.535,302.037 12,-12" /><path
         id="path52"
         style="fill:none;stroke:#000080;stroke-width:0.80000001;stroke-linecap:square;stroke-linejoin:bevel;stroke-miterlimit:4;stroke-dasharray:none;stroke-opacity:1"
         d="M 71.535,307.635 82.734,296.436" /><path
         id="path54"
         style="fill:none;stroke:#000080;stroke-width:0.80000001;stroke-linecap:square;stroke-linejoin:bevel;stroke-miterlimit:4;stroke-dasharray:none;stroke-opacity:1"
         d="m 82.734,314.037 11.2,-11.199" /><path
         id="path56"
         style="fill:#000000;fill-opacity:1;fill-rule:nonzero;stroke:none"
         d="m 11.887,261.557 c 0,0.859 -0.532,1.5 -1.485,1.75 l -1.75,0.469 c -0.843,0.218 -1.156,0.5 -1.156,1.047 0,0.703 0.625,1.234 1.563,1.234 1.109,0 1.75,-0.516 1.75,-1.422 l 0.843,0 c 0,1.375 -0.953,2.172 -2.562,2.172 -1.531,0 -2.485,-0.844 -2.485,-2.109 0,-0.86 0.454,-1.391 1.375,-1.641 l 1.735,-0.453 c 0.875,-0.235 1.281,-0.594 1.281,-1.141 0,-0.765 -0.578,-1.219 -1.781,-1.219 -1.328,0 -1.969,0.672 -1.969,1.672 l -0.859,0 c 0,-1.656 1.125,-2.453 2.765,-2.453 1.782,0 2.735,0.844 2.735,2.094 z" /><path
         id="path58"
         style="fill:#000000;fill-opacity:1;fill-rule:nonzero;stroke:none"
         d="m 16.961,259.635 0,5.031 -0.797,0 0,-2.781 c 0,-1.016 -0.531,-1.687 -1.375,-1.687 -0.625,0 -1.031,0.375 -1.031,0.984 l 0,3.484 -0.797,0 0,-3.797 c 0,-0.843 0.625,-1.375 1.594,-1.375 0.75,0 1.218,0.25 1.687,0.922 l 0,-0.781 0.719,0 z" /><path
         id="path60"
         style="fill:#000000;fill-opacity:1;fill-rule:nonzero;stroke:none"
         d="m 22.688,262.213 c 0,1.625 -0.829,2.594 -2.141,2.594 -0.703,0 -1.188,-0.266 -1.563,-0.828 l 0,2.656 -0.796,0 0,-7 0.718,0 0,0.719 c 0.391,-0.578 0.891,-0.86 1.594,-0.86 1.328,0 2.188,1.079 2.188,2.719 z m -0.829,-0.062 c 0,-1.141 -0.593,-1.907 -1.468,-1.907 -0.844,0 -1.407,0.766 -1.407,1.907 0,1.172 0.563,1.953 1.407,1.906 0.89,0 1.468,-0.781 1.468,-1.906 z" /><path
         id="path62"
         style="fill:#000000;fill-opacity:1;fill-rule:nonzero;stroke:none"
         d="m 27.418,261.041 c 0,0.75 -0.422,1.125 -1.422,1.36 l -0.766,0.187 c -0.656,0.156 -0.937,0.36 -0.937,0.719 0,0.469 0.422,0.766 1.062,0.766 0.657,0 1,-0.282 1.016,-0.813 l 0.844,0 c -0.016,0.984 -0.656,1.547 -1.828,1.547 -1.172,0 -1.922,-0.609 -1.922,-1.531 0,-0.797 0.406,-1.172 1.594,-1.453 l 0.75,-0.188 c 0.546,-0.125 0.765,-0.297 0.765,-0.656 0,-0.469 -0.469,-0.75 -1.172,-0.75 -0.718,0 -1.109,0.172 -1.218,0.937 l -0.844,0 c 0.031,-1.156 0.687,-1.672 2,-1.672 1.265,0 2.078,0.579 2.078,1.547 z" /><path
         id="path64"
         style="fill:#000000;fill-opacity:1;fill-rule:nonzero;stroke:none"
         d="m 30.219,259.635 0,0.672 c -0.11,-0.031 -0.235,-0.031 -0.391,-0.031 -0.344,0 -0.437,0.093 -0.437,0.437 l 0,3.297 0.828,0 0,0.656 -0.828,0 0,1.375 -0.797,0 0,-1.375 -0.672,0 0,-0.656 0.672,0 0,-3.641 c 0,-0.515 0.344,-0.796 0.968,-0.796 0.188,0 0.391,0.015 0.657,0.062 z" /><path
         id="path66"
         style="fill:#000000;fill-opacity:1;fill-rule:nonzero;stroke:none"
         d="m 33.777,259.635 0,6.797 -0.562,0 c -0.297,-1.047 -0.485,-1.188 -1.781,-1.344 l 0,-0.609 1.5,0 0,-4.844 0.843,0 z" /><path
         id="path68"
         style="fill:#000000;fill-opacity:1;fill-rule:nonzero;stroke:none"
         d="m 10.855,248.315 c 0,0.734 -0.062,1.187 -0.203,1.562 -0.328,0.828 -1.093,1.328 -2.031,1.328 -1.406,0 -2.297,-1.031 -2.297,-2.687 0,-1.656 0.86,-2.625 2.281,-2.625 1.141,0 1.938,0.656 2.141,1.672 l -0.797,0 c -0.219,-0.672 -0.672,-0.938 -1.312,-0.938 -0.844,0 -1.469,0.532 -1.485,1.688 l 3.703,0 z m -0.859,0.719 c 0,0 0,-0.047 0,-0.063 l -2.828,0 c 0.078,0.891 0.641,1.5 1.437,1.5 0.797,0 1.391,-0.656 1.391,-1.437 z" /><path
         id="path70"
         style="fill:#000000;fill-opacity:1;fill-rule:nonzero;stroke:none"
         d="m 14.348,250.362 0,0.812 c -0.141,0.016 -0.203,0.031 -0.313,0.031 -0.515,0 -0.906,-0.312 -1.359,-1.062 l 0,0.922 -0.735,0 0,-5.031 0.797,0 0,2.609 c 0,1.125 0.375,1.703 1.61,1.719 z" /><path
         id="path72"
         style="fill:#000000;fill-opacity:1;fill-rule:nonzero;stroke:none"
         d="m 19.418,248.971 0,0.656 -4.297,0 0,-0.656 4.297,0 z m 0,-1.734 0,0.656 -4.297,0 0,-0.656 4.297,0 z" /><path
         id="path74"
         style="fill:#000000;fill-opacity:1;fill-rule:nonzero;stroke:none"
         d="m 25.059,247.659 0,0.765 -1,0 0,4.406 -0.625,0 -3.094,-4.281 0,-0.89 2.875,0 0,-1.625 0.844,0 0,1.625 1,0 z m -1.844,0.765 -2.141,0 2.141,2.969 0,-2.969 z" /><path
         id="path76"
         style="fill:#000000;fill-opacity:1;fill-rule:nonzero;stroke:none"
         d="m 26.238,247.034 1,0 0,-1 -1,0 0,1 z" /><path
         id="path78"
         style="fill:#000000;fill-opacity:1;fill-rule:nonzero;stroke:none"
         d="m 33.062,251.987 0,0.703 -4.546,0 0,-0.828 3.672,0 c -1.344,-1.719 -2.313,-3.703 -2.782,-5.828 l 0.891,0 c 0.375,2.203 1.344,4.25 2.765,5.953 z" /><path
         id="path80"
         style="fill:#000000;fill-opacity:1;fill-rule:nonzero;stroke:none"
         d="m 10.59,232.436 0,3.797 c 0,0.843 -0.594,1.375 -1.578,1.375 -0.703,0 -1.141,-0.219 -1.61,-0.828 l 0,2.656 -0.797,0 0,-7 0.797,0 0,2.765 c 0,1.032 0.532,1.704 1.36,1.704 0.562,0 1.031,-0.329 1.031,-0.985 l 0,-3.484 0.797,0 z" /><path
         id="path82"
         style="fill:#000000;fill-opacity:1;fill-rule:nonzero;stroke:none"
         d="m 16.223,235.373 0,0.657 -4.297,0 0,-0.657 4.297,0 z m 0,-1.734 0,0.656 -4.297,0 0,-0.656 4.297,0 z" /><path
         id="path84"
         style="fill:#000000;fill-opacity:1;fill-rule:nonzero;stroke:none"
         d="m 20.203,232.436 0,6.797 -0.562,0 c -0.297,-1.047 -0.485,-1.188 -1.782,-1.344 l 0,-0.609 1.5,0 0,-4.844 0.844,0 z" /><path
         id="path86"
         style="fill:#000000;fill-opacity:1;fill-rule:nonzero;stroke:none"
         d="m 23.043,233.436 1,0 0,-1 -1,0 0,1 z" /><path
         id="path88"
         style="fill:#000000;fill-opacity:1;fill-rule:nonzero;stroke:none"
         d="m 29.805,234.686 c 0,1.344 -0.891,2.234 -2.203,2.234 -0.469,0 -0.86,-0.125 -1.25,-0.422 l 0.265,1.766 2.828,0 0,0.828 -3.5,0 -0.515,-3.562 0.781,0 c 0.391,0.468 0.719,0.64 1.25,0.64 0.906,0 1.484,-0.594 1.484,-1.594 0,-0.984 -0.578,-1.531 -1.484,-1.531 -0.75,0 -1.203,0.375 -1.391,1.141 l -0.859,0 c 0.281,-1.36 1.047,-1.891 2.266,-1.891 1.375,0 2.328,0.953 2.328,2.391 z" /><path
         id="path90"
         style="fill:#000000;fill-opacity:1;fill-rule:nonzero;stroke:none"
         d="m 35.141,234.686 c 0,1.344 -0.891,2.234 -2.203,2.234 -0.469,0 -0.86,-0.125 -1.25,-0.422 l 0.265,1.766 2.828,0 0,0.828 -3.5,0 -0.515,-3.562 0.781,0 c 0.391,0.468 0.719,0.64 1.25,0.64 0.906,0 1.484,-0.594 1.484,-1.594 0,-0.984 -0.578,-1.531 -1.484,-1.531 -0.75,0 -1.203,0.375 -1.391,1.141 l -0.859,0 c 0.281,-1.36 1.047,-1.891 2.265,-1.891 1.376,0 2.329,0.953 2.329,2.391 z" /><path
         id="path92"
         style="fill:#000000;fill-opacity:1;fill-rule:nonzero;stroke:none"
         d="m 45.523,232.436 0,3.765 c 0,0.907 -0.5,1.407 -1.437,1.407 -0.672,0 -1.078,-0.203 -1.547,-0.766 -0.297,0.531 -0.703,0.766 -1.359,0.766 -0.672,0 -1.11,-0.25 -1.547,-0.86 l 0,0.719 -0.719,0 0,-5.031 0.797,0 0,3.156 c 0,0.734 0.516,1.313 1.172,1.313 0.594,0 0.937,-0.36 0.937,-1 l 0,-3.469 0.797,0 0,3.156 c 0,0.734 0.531,1.313 1.188,1.313 0.578,0 0.922,-0.375 0.922,-1 l 0,-3.469 0.796,0 z" /><path
         id="path94"
         style="fill:#000000;fill-opacity:1;fill-rule:nonzero;stroke:none"
         d="m 53.551,232.436 0,3.765 c 0,0.907 -0.5,1.407 -1.438,1.407 -0.672,0 -1.078,-0.203 -1.547,-0.766 -0.296,0.531 -0.703,0.766 -1.359,0.766 -0.672,0 -1.109,-0.25 -1.547,-0.86 l 0,0.719 -0.719,0 0,-5.031 0.797,0 0,3.156 c 0,0.734 0.516,1.313 1.172,1.313 0.594,0 0.938,-0.36 0.938,-1 l 0,-3.469 0.797,0 0,3.156 c 0,0.734 0.531,1.313 1.187,1.313 0.578,0 0.922,-0.375 0.922,-1 l 0,-3.469 0.797,0 z" /><path
         id="path96"
         style="fill:#000000;fill-opacity:1;fill-rule:nonzero;stroke:none"
         d="m 8.371,218.834 0,0.672 c -0.109,-0.031 -0.234,-0.031 -0.391,-0.031 -0.343,0 -0.437,0.094 -0.437,0.437 l 0,3.297 0.828,0 0,0.657 -0.828,0 0,1.375 -0.797,0 0,-1.375 -0.672,0 0,-0.657 0.672,0 0,-3.64 c 0,-0.516 0.344,-0.797 0.969,-0.797 0.187,0 0.39,0.015 0.656,0.062 z" /><path
         id="path98"
         style="fill:#000000;fill-opacity:1;fill-rule:nonzero;stroke:none"
         d="m 13.555,221.772 0,0.656 -4.297,0 0,-0.656 4.297,0 z m 0,-1.735 0,0.657 -4.297,0 0,-0.657 4.297,0 z" /><path
         id="path100"
         style="fill:#000000;fill-opacity:1;fill-rule:nonzero;stroke:none"
         d="m 19.066,220.803 c 0,0.828 -0.343,1.313 -1.156,1.594 0.641,0.25 0.953,0.687 0.953,1.375 0,1.172 -0.781,1.859 -2.078,1.859 -1.375,0 -2.094,-0.75 -2.125,-2.187 l 0.844,0 c 0.016,1 0.437,1.453 1.297,1.453 0.75,0 1.203,-0.438 1.203,-1.156 0,-0.735 -0.328,-1.032 -1.672,-1.032 l 0,-0.703 0.453,0 c 0.938,0 1.406,-0.453 1.406,-1.203 0,-0.859 -0.515,-1.359 -1.406,-1.359 -0.922,0 -1.375,0.453 -1.422,1.437 l -0.843,0 c 0.093,-1.515 0.843,-2.187 2.234,-2.187 1.406,0 2.312,0.828 2.312,2.109 z" /><path
         id="path102"
         style="fill:#000000;fill-opacity:1;fill-rule:nonzero;stroke:none"
         d="m 24.469,221.084 c 0,1.344 -0.891,2.235 -2.203,2.235 -0.469,0 -0.86,-0.125 -1.25,-0.422 l 0.265,1.765 2.828,0 0,0.829 -3.5,0 -0.515,-3.563 0.781,0 c 0.391,0.469 0.719,0.641 1.25,0.641 0.906,0 1.484,-0.594 1.484,-1.594 0,-0.984 -0.578,-1.531 -1.484,-1.531 -0.75,0 -1.203,0.375 -1.391,1.14 l -0.859,0 c 0.281,-1.359 1.047,-1.89 2.266,-1.89 1.375,0 2.328,0.953 2.328,2.39 z" /><path
         id="path104"
         style="fill:#000000;fill-opacity:1;fill-rule:nonzero;stroke:none"
         d="m 32.176,218.834 0,5.032 -0.797,0 0,-2.782 c 0,-1.015 -0.531,-1.687 -1.375,-1.687 -0.625,0 -1.031,0.375 -1.031,0.984 l 0,3.485 -0.797,0 0,-3.797 c 0,-0.844 0.625,-1.375 1.594,-1.375 0.75,0 1.218,0.25 1.687,0.922 l 0,-0.782 0.719,0 z" /><path
         id="path106"
         style="fill:#000000;fill-opacity:1;fill-rule:nonzero;stroke:none"
         d="m 40.188,218.834 0,3.766 c 0,0.906 -0.5,1.406 -1.438,1.406 -0.672,0 -1.078,-0.203 -1.547,-0.765 -0.297,0.531 -0.703,0.765 -1.359,0.765 -0.672,0 -1.11,-0.25 -1.547,-0.859 l 0,0.719 -0.719,0 0,-5.032 0.797,0 0,3.157 c 0,0.734 0.516,1.312 1.172,1.312 0.594,0 0.937,-0.359 0.937,-1 l 0,-3.469 0.797,0 0,3.157 c 0,0.734 0.531,1.312 1.188,1.312 0.578,0 0.922,-0.375 0.922,-1 l 0,-3.469 0.797,0 z" /><path
         id="path108"
         style="fill:#000000;fill-opacity:1;fill-rule:nonzero;stroke:none"
         d="m 8.371,205.237 0,0.672 c -0.109,-0.032 -0.234,-0.032 -0.391,-0.032 -0.343,0 -0.437,0.094 -0.437,0.438 l 0,3.297 0.828,0 0,0.656 -0.828,0 0,1.375 -0.797,0 0,-1.375 -0.672,0 0,-0.656 0.672,0 0,-3.641 c 0,-0.516 0.344,-0.797 0.969,-0.797 0.187,0 0.39,0.016 0.656,0.063 z" /><path
         id="path110"
         style="fill:#000000;fill-opacity:1;fill-rule:nonzero;stroke:none"
         d="m 13.727,205.252 0,0.61 c -0.079,-0.016 -0.11,-0.016 -0.172,-0.016 -0.266,0 -0.422,0.141 -0.422,0.391 l 0,2.797 c 0,0.89 -0.656,1.375 -1.891,1.375 -1.219,0 -1.969,-0.469 -2.015,-1.625 l 0.796,0 c 0.079,0.609 0.438,0.89 1.188,0.89 0.719,0 1.125,-0.281 1.125,-0.75 l 0,-0.219 c 0,-0.328 -0.203,-0.468 -0.844,-0.546 -1.125,-0.157 -1.297,-0.188 -1.609,-0.313 -0.578,-0.234 -0.875,-0.687 -0.875,-1.297 0,-0.922 0.625,-1.453 1.64,-1.453 0.657,0 1.266,0.266 1.719,0.734 0.078,-0.375 0.422,-0.656 0.813,-0.656 0.172,0 0.297,0.016 0.547,0.078 z m -1.391,1.719 c 0,-0.719 -0.734,-1.172 -1.516,-1.172 -0.609,0 -0.984,0.219 -0.984,0.766 0,0.531 0.359,0.75 1.219,0.875 0.843,0.125 1.015,0.156 1.281,0.281 l 0,-0.75 z" /><path
         id="path112"
         style="fill:#000000;fill-opacity:1;fill-rule:nonzero;stroke:none"
         d="m 18.609,205.237 0,3.797 c 0,0.843 -0.625,1.375 -1.593,1.375 -0.75,0 -1.219,-0.282 -1.672,-0.985 l 0,0.844 -0.735,0 0,-5.031 0.797,0 0,2.765 c 0,1.032 0.563,1.703 1.375,1.703 0.625,0 1.031,-0.375 1.031,-0.984 l 0,-3.484 0.797,0 z" /><path
         id="path114"
         style="fill:#000000;fill-opacity:1;fill-rule:nonzero;stroke:none"
         d="m 24.027,205.237 0,7 -0.797,0 0,-2.61 c -0.343,0.516 -0.875,0.782 -1.546,0.782 -1.297,0 -2.157,-1.016 -2.157,-2.61 0,-1.703 0.828,-2.703 2.188,-2.703 0.687,0 1.172,0.25 1.594,0.875 l 0,-0.734 0.718,0 z m -0.797,2.5 c 0,-1.172 -0.562,-1.891 -1.406,-1.891 -0.875,0 -1.469,0.734 -1.469,1.906 0,1.172 0.594,1.907 1.469,1.907 0.86,0 1.406,-0.766 1.406,-1.922 z" /><path
         id="path116"
         style="fill:#000000;fill-opacity:1;fill-rule:nonzero;stroke:none"
         d="m 29.566,208.174 0,0.656 -4.296,0 0,-0.656 4.296,0 z m 0,-1.734 0,0.656 -4.296,0 0,-0.656 4.296,0 z" /><path
         id="path118"
         style="fill:#000000;fill-opacity:1;fill-rule:nonzero;stroke:none"
         d="m 32.656,205.237 0,0.672 c -0.109,-0.032 -0.234,-0.032 -0.39,-0.032 -0.344,0 -0.438,0.094 -0.438,0.438 l 0,3.297 0.828,0 0,0.656 -0.828,0 0,1.375 -0.797,0 0,-1.375 -0.672,0 0,-0.656 0.672,0 0,-3.641 c 0,-0.516 0.344,-0.797 0.969,-0.797 0.188,0 0.391,0.016 0.656,0.063 z" /><path
         id="path120"
         style="fill:#000000;fill-opacity:1;fill-rule:nonzero;stroke:none"
         d="m 38.016,205.252 0,0.61 c -0.078,-0.016 -0.11,-0.016 -0.172,-0.016 -0.266,0 -0.422,0.141 -0.422,0.391 l 0,2.797 c 0,0.89 -0.656,1.375 -1.891,1.375 -1.219,0 -1.969,-0.469 -2.015,-1.625 l 0.796,0 c 0.079,0.609 0.438,0.89 1.188,0.89 0.719,0 1.125,-0.281 1.125,-0.75 l 0,-0.219 c 0,-0.328 -0.203,-0.468 -0.844,-0.546 -1.125,-0.157 -1.297,-0.188 -1.609,-0.313 -0.578,-0.234 -0.875,-0.687 -0.875,-1.297 0,-0.922 0.625,-1.453 1.641,-1.453 0.656,0 1.265,0.266 1.718,0.734 0.078,-0.375 0.422,-0.656 0.813,-0.656 0.172,0 0.297,0.016 0.547,0.078 z m -1.391,1.719 c 0,-0.719 -0.734,-1.172 -1.516,-1.172 -0.609,0 -0.984,0.219 -0.984,0.766 0,0.531 0.359,0.75 1.219,0.875 0.844,0.125 1.015,0.156 1.281,0.281 l 0,-0.75 z" /><path
         id="path122"
         style="fill:#000000;fill-opacity:1;fill-rule:nonzero;stroke:none"
         d="m 42.898,205.237 0,3.797 c 0,0.843 -0.625,1.375 -1.593,1.375 -0.75,0 -1.219,-0.282 -1.672,-0.985 l 0,0.844 -0.735,0 0,-5.031 0.797,0 0,2.765 c 0,1.032 0.563,1.703 1.375,1.703 0.625,0 1.032,-0.375 1.032,-0.984 l 0,-3.484 0.796,0 z" /><path
         id="path124"
         style="fill:#000000;fill-opacity:1;fill-rule:nonzero;stroke:none"
         d="m 48.312,205.237 0,7 -0.796,0 0,-2.61 c -0.344,0.516 -0.875,0.782 -1.547,0.782 -1.297,0 -2.157,-1.016 -2.157,-2.61 0,-1.703 0.829,-2.703 2.188,-2.703 0.688,0 1.172,0.25 1.594,0.875 l 0,-0.734 0.718,0 z m -0.796,2.5 c 0,-1.172 -0.563,-1.891 -1.407,-1.891 -0.875,0 -1.468,0.734 -1.468,1.906 0,1.172 0.593,1.907 1.468,1.907 0.86,0 1.407,-0.766 1.407,-1.922 z" /><path
         id="path126"
         style="fill:#000000;fill-opacity:1;fill-rule:nonzero;stroke:none"
         d="m 9.012,195.963 0,0.813 c -0.141,0.015 -0.203,0.031 -0.313,0.031 -0.515,0 -0.906,-0.313 -1.359,-1.063 l 0,0.922 -0.735,0 0,-5.031 0.797,0 0,2.609 c 0,1.125 0.375,1.704 1.61,1.719 z" /><path
         id="path128"
         style="fill:#000000;fill-opacity:1;fill-rule:nonzero;stroke:none"
         d="m 13.785,191.635 0,3.797 c 0,0.844 -0.594,1.375 -1.578,1.375 -0.703,0 -1.141,-0.219 -1.609,-0.828 l 0,2.656 -0.797,0 0,-7 0.797,0 0,2.766 c 0,1.031 0.531,1.703 1.359,1.703 0.563,0 1.031,-0.328 1.031,-0.985 l 0,-3.484 0.797,0 z" /><path
         id="path130"
         style="fill:#000000;fill-opacity:1;fill-rule:nonzero;stroke:none"
         d="m 19.355,194.104 c 0,1.75 -0.828,2.703 -2.281,2.703 -1.406,0 -2.265,-0.969 -2.265,-2.656 0,-1.688 0.843,-2.657 2.281,-2.657 1.406,0 2.265,0.969 2.265,2.61 z m -0.828,0.015 c 0,-1.171 -0.562,-1.89 -1.437,-1.89 -0.891,0 -1.438,0.703 -1.438,1.922 0,1.203 0.547,1.922 1.438,1.922 0.89,0 1.437,-0.704 1.437,-1.954 z" /><path
         id="path132"
         style="fill:#000000;fill-opacity:1;fill-rule:nonzero;stroke:none"
         d="m 24.758,194.573 0,0.656 -4.297,0 0,-0.656 4.297,0 z m 0,-1.735 0,0.656 -4.297,0 0,-0.656 4.297,0 z" /><path
         id="path134"
         style="fill:#000000;fill-opacity:1;fill-rule:nonzero;stroke:none"
         d="m 28.738,191.635 0,6.797 -0.562,0 c -0.297,-1.047 -0.485,-1.188 -1.781,-1.344 l 0,-0.609 1.5,0 0,-4.844 0.843,0 z" /><path
         id="path136"
         style="fill:#000000;fill-opacity:1;fill-rule:nonzero;stroke:none"
         d="m 35.699,193.744 c 0,1.266 -0.859,2.125 -2.078,2.125 -0.672,0 -1.203,-0.265 -1.562,-0.765 0,1.656 0.546,2.578 1.515,2.578 0.594,0 1,-0.375 1.141,-1.016 l 0.844,0 c -0.172,1.11 -0.891,1.766 -1.938,1.766 -1.578,0 -2.437,-1.328 -2.437,-3.703 0,-2.11 0.734,-3.235 2.296,-3.235 1.282,0 2.219,0.922 2.219,2.25 z m -0.859,-0.062 c 0,-0.859 -0.578,-1.438 -1.36,-1.438 -0.781,0 -1.375,0.61 -1.375,1.485 0,0.844 0.579,1.39 1.407,1.39 0.812,0 1.328,-0.531 1.328,-1.437 z" /><path
         id="path138"
         style="fill:#000000;fill-opacity:1;fill-rule:nonzero;stroke:none"
         d="m 36.941,192.635 1,0 0,-1 -1,0 0,1 z" /><path
         id="path140"
         style="fill:#000000;fill-opacity:1;fill-rule:nonzero;stroke:none"
         d="m 43.77,197.588 0,0.703 -4.547,0 0,-0.828 3.672,0 c -1.344,-1.719 -2.313,-3.703 -2.782,-5.828 l 0.891,0 c 0.375,2.203 1.344,4.25 2.766,5.953 z" /><path
         id="path142"
         style="fill:#000000;fill-opacity:1;fill-rule:nonzero;stroke:none"
         d="m 49.043,193.557 c 0,0.75 -0.391,1.281 -1.172,1.656 0.703,0.422 0.938,0.766 0.938,1.406 0,1.063 -0.844,1.813 -2.047,1.813 -1.203,0 -2.047,-0.75 -2.047,-1.813 0,-0.625 0.234,-0.968 0.922,-1.406 -0.782,-0.375 -1.157,-0.906 -1.157,-1.656 0,-1.234 0.938,-2.063 2.282,-2.063 1.343,0 2.281,0.829 2.281,2.063 z m -1.109,3.047 c 0,-0.625 -0.469,-1.047 -1.172,-1.047 -0.719,0 -1.188,0.422 -1.188,1.062 0,0.641 0.469,1.063 1.188,1.063 0.718,0 1.172,-0.422 1.172,-1.078 z m 0.25,-3.063 c 0,-0.797 -0.579,-1.297 -1.438,-1.297 -0.828,0 -1.406,0.5 -1.406,1.297 0,0.797 0.578,1.297 1.422,1.297 0.843,0 1.422,-0.5 1.422,-1.297 z" /><path
         id="path144"
         style="fill:#000000;fill-opacity:1;fill-rule:nonzero;stroke:none"
         d="m 54.379,193.916 c 0,0.735 -0.063,1.188 -0.203,1.563 -0.328,0.828 -1.094,1.328 -2.031,1.328 -1.407,0 -2.297,-1.031 -2.297,-2.688 0,-1.656 0.859,-2.625 2.281,-2.625 1.141,0 1.937,0.657 2.141,1.672 l -0.797,0 c -0.219,-0.672 -0.672,-0.937 -1.313,-0.937 -0.844,0 -1.469,0.531 -1.484,1.687 l 3.703,0 z m -0.859,0.719 c 0,0 0,-0.047 0,-0.062 l -2.829,0 c 0.079,0.89 0.641,1.5 1.438,1.5 0.797,0 1.391,-0.657 1.391,-1.438 z" /><path
         id="path146"
         style="fill:#000000;fill-opacity:1;fill-rule:nonzero;stroke:none"
         d="m 55.234,194.635 2.281,0 0,-0.703 -2.281,0 0,0.703 z" /><path
         id="path148"
         style="fill:#000000;fill-opacity:1;fill-rule:nonzero;stroke:none"
         d="m 62.914,195.198 c 0,2.125 -0.75,3.234 -2.297,3.234 -1.297,0 -2.234,-0.922 -2.234,-2.25 0,-1.266 0.875,-2.125 2.094,-2.125 0.64,0 1.109,0.234 1.562,0.766 -0.016,-1.657 -0.547,-2.579 -1.516,-2.579 -0.593,0 -1.015,0.375 -1.14,1.016 l -0.844,0 c 0.156,-1.109 0.891,-1.766 1.922,-1.766 1.594,0 2.453,1.344 2.453,3.704 z m -0.922,1 c 0,-0.829 -0.594,-1.391 -1.422,-1.391 -0.812,0 -1.312,0.531 -1.312,1.437 0,0.875 0.562,1.454 1.344,1.454 0.796,0 1.39,-0.61 1.39,-1.5 z" /><path
         id="path150"
         style="fill:#000000;fill-opacity:1;fill-rule:nonzero;stroke:none"
         d="m 12.34,181.534 c 0,2.171 -1.078,3.5 -2.86,3.5 l -2.687,0 0,-7 2.687,0 c 1.766,0 2.86,1.328 2.86,3.5 z m -0.906,-0.016 c 0,-1.75 -0.719,-2.703 -2.11,-2.703 l -1.64,0 0,5.422 1.64,0 c 1.391,0 2.11,-0.922 2.11,-2.719 z" /><path
         id="path152"
         style="fill:#000000;fill-opacity:1;fill-rule:nonzero;stroke:none"
         d="m 17.816,180.971 0,0.656 -4.296,0 0,-0.656 4.296,0 z m 0,-1.734 0,0.656 -4.296,0 0,-0.656 4.296,0 z" /><path
         id="path154"
         style="fill:#000000;fill-opacity:1;fill-rule:nonzero;stroke:none"
         d="m 23.328,181.299 c 0,2.36 -0.75,3.531 -2.219,3.531 -1.468,0 -2.234,-1.187 -2.234,-3.468 0,-2.297 0.781,-3.469 2.234,-3.469 1.438,0 2.219,1.172 2.219,3.406 z m -0.859,0.078 c 0,-1.922 -0.438,-2.781 -1.375,-2.781 -0.891,0 -1.344,0.891 -1.344,2.75 0,1.875 0.453,2.734 1.359,2.734 0.907,0 1.36,-0.875 1.36,-2.703 z" /><path
         id="path156"
         style="fill:#000000;fill-opacity:1;fill-rule:nonzero;stroke:none"
         d="m 24.637,179.034 1,0 0,-1 -1,0 0,1 z" /><path
         id="path158"
         style="fill:#000000;fill-opacity:1;fill-rule:nonzero;stroke:none"
         d="m 29.805,178.034 0,6.796 -0.563,0 c -0.297,-1.046 -0.484,-1.187 -1.781,-1.343 l 0,-0.61 1.5,0 0,-4.843 0.844,0 z" /><path
         id="path160"
         style="fill:#000000;fill-opacity:1;fill-rule:nonzero;stroke:none"
         d="m 36.734,180.284 c 0,1.343 -0.89,2.234 -2.203,2.234 -0.469,0 -0.859,-0.125 -1.25,-0.422 l 0.266,1.766 2.828,0 0,0.828 -3.5,0 -0.516,-3.563 0.782,0 c 0.39,0.469 0.718,0.641 1.25,0.641 0.906,0 1.484,-0.594 1.484,-1.594 0,-0.984 -0.578,-1.531 -1.484,-1.531 -0.75,0 -1.203,0.375 -1.391,1.141 l -0.859,0 c 0.281,-1.36 1.047,-1.891 2.265,-1.891 1.375,0 2.328,0.953 2.328,2.391 z" /><path
         id="path162"
         style="fill:#000000;fill-opacity:1;fill-rule:nonzero;stroke:none"
         d="m 42.074,180.315 c 0,0.734 -0.062,1.187 -0.203,1.562 -0.328,0.828 -1.094,1.328 -2.031,1.328 -1.406,0 -2.297,-1.031 -2.297,-2.687 0,-1.656 0.859,-2.625 2.281,-2.625 1.141,0 1.938,0.656 2.141,1.672 l -0.797,0 c -0.219,-0.672 -0.672,-0.938 -1.313,-0.938 -0.843,0 -1.468,0.532 -1.484,1.688 l 3.703,0 z m -0.859,0.719 c 0,0 0,-0.047 0,-0.063 l -2.828,0 c 0.078,0.891 0.64,1.5 1.437,1.5 0.797,0 1.391,-0.656 1.391,-1.437 z" /><path
         id="path164"
         style="fill:#000000;fill-opacity:1;fill-rule:nonzero;stroke:none"
         d="m 42.957,181.034 2.281,0 0,-0.703 -2.281,0 0,0.703 z" /><path
         id="path166"
         style="fill:#000000;fill-opacity:1;fill-rule:nonzero;stroke:none"
         d="m 50.637,180.143 c 0,1.266 -0.86,2.125 -2.078,2.125 -0.672,0 -1.204,-0.266 -1.563,-0.766 0,1.657 0.547,2.578 1.516,2.578 0.593,0 1,-0.375 1.14,-1.015 l 0.844,0 c -0.172,1.109 -0.891,1.765 -1.937,1.765 -1.579,0 -2.438,-1.328 -2.438,-3.703 0,-2.109 0.734,-3.234 2.297,-3.234 1.281,0 2.219,0.922 2.219,2.25 z m -0.86,-0.063 c 0,-0.859 -0.578,-1.437 -1.359,-1.437 -0.781,0 -1.375,0.609 -1.375,1.484 0,0.844 0.578,1.391 1.406,1.391 0.813,0 1.328,-0.531 1.328,-1.438 z" /><path
         id="path168"
         style="fill:#000080;fill-opacity:1;fill-rule:nonzero;stroke:none"
         d="m 14.184,124.963 -1.266,0 -2.578,-7.89 -2.75,7.89 -1.266,0 3.344,-9.328 1.281,0 3.235,9.328 z" /><path
         id="path170"
         style="fill:#000080;fill-opacity:1;fill-rule:nonzero;stroke:none"
         d="m 20.547,115.666 0,0.797 c -0.109,-0.015 -0.156,-0.015 -0.235,-0.015 -0.359,0 -0.562,0.187 -0.562,0.515 l 0,3.735 c 0,1.187 -0.875,1.828 -2.531,1.828 -1.625,0 -2.625,-0.625 -2.688,-2.172 l 1.078,0 c 0.094,0.828 0.579,1.187 1.579,1.187 0.953,0 1.5,-0.359 1.5,-1 l 0,-0.281 c 0,-0.437 -0.282,-0.625 -1.126,-0.734 -1.5,-0.188 -1.734,-0.25 -2.14,-0.407 -0.781,-0.328 -1.188,-0.921 -1.188,-1.75 0,-1.203 0.844,-1.921 2.204,-1.921 0.859,0 1.687,0.359 2.281,0.984 0.109,-0.516 0.578,-0.891 1.093,-0.891 0.219,0 0.391,0.032 0.735,0.125 z m -1.859,2.282 c 0,-0.954 -0.985,-1.563 -2.016,-1.563 -0.828,0 -1.313,0.281 -1.313,1.016 0,0.703 0.469,1.015 1.61,1.172 1.125,0.156 1.359,0.203 1.719,0.375 l 0,-1 z" /><path
         id="path172"
         style="fill:#000080;fill-opacity:1;fill-rule:nonzero;stroke:none"
         d="m 24.93,121.401 0,1.093 c -0.188,0.032 -0.266,0.032 -0.407,0.032 -0.703,0 -1.218,-0.407 -1.828,-1.407 l 0,1.219 -0.984,0 0,-6.703 1.062,0 0,3.484 c 0,1.5 0.5,2.266 2.157,2.282 z" /><path
         id="path174"
         style="fill:#000080;fill-opacity:1;fill-rule:nonzero;stroke:none"
         d="m 27.035,115.635 0,6.703 -1.062,0 0,-6.703 1.062,0 z m 0.141,7.719 0,1.328 -1.328,0 0,-1.328 1.328,0 z" /><path
         id="path176"
         style="fill:#000080;fill-opacity:1;fill-rule:nonzero;stroke:none"
         d="m 34.805,115.666 0,0.797 c -0.11,-0.015 -0.157,-0.015 -0.235,-0.015 -0.359,0 -0.562,0.187 -0.562,0.515 l 0,3.735 c 0,1.187 -0.875,1.828 -2.531,1.828 -1.625,0 -2.625,-0.625 -2.688,-2.172 l 1.078,0 c 0.094,0.828 0.578,1.187 1.578,1.187 0.953,0 1.5,-0.359 1.5,-1 l 0,-0.281 c 0,-0.437 -0.281,-0.625 -1.125,-0.734 -1.5,-0.188 -1.734,-0.25 -2.14,-0.407 -0.782,-0.328 -1.188,-0.921 -1.188,-1.75 0,-1.203 0.844,-1.921 2.203,-1.921 0.86,0 1.688,0.359 2.282,0.984 0.109,-0.516 0.578,-0.891 1.093,-0.891 0.219,0 0.391,0.032 0.735,0.125 z m -1.86,2.282 c 0,-0.954 -0.984,-1.563 -2.015,-1.563 -0.828,0 -1.313,0.281 -1.313,1.016 0,0.703 0.469,1.015 1.61,1.172 1.125,0.156 1.359,0.203 1.718,0.375 l 0,-1 z" /><path
         id="path178"
         style="fill:#000080;fill-opacity:1;fill-rule:nonzero;stroke:none"
         d="m 38.328,115.635 0,0.891 c -0.14,-0.032 -0.312,-0.047 -0.516,-0.047 -0.453,0 -0.578,0.125 -0.578,0.609 l 0,4.375 1.094,0 0,0.875 -1.094,0 0,1.844 -1.062,0 0,-1.844 -0.922,0 0,-0.875 0.922,0 0,-4.859 c 0,-0.672 0.453,-1.063 1.281,-1.063 0.266,0 0.516,0.032 0.875,0.094 z" /><path
         id="path180"
         style="fill:#000080;fill-opacity:1;fill-rule:nonzero;stroke:none"
         d="m 40.59,115.635 0,6.703 -1.063,0 0,-6.703 1.063,0 z m 0.14,7.719 0,1.328 -1.328,0 0,-1.328 1.328,0 z" /><path
         id="path182"
         style="fill:#000080;fill-opacity:1;fill-rule:nonzero;stroke:none"
         d="m 48.008,118.932 c 0,2.328 -1.125,3.594 -3.047,3.594 -1.891,0 -3.031,-1.282 -3.031,-3.532 0,-2.265 1.14,-3.546 3.047,-3.546 1.875,0 3.031,1.281 3.031,3.484 z m -1.125,0.016 c 0,-1.579 -0.735,-2.516 -1.906,-2.516 -1.204,0 -1.922,0.937 -1.922,2.562 0,1.61 0.718,2.547 1.922,2.547 1.203,0 1.906,-0.922 1.906,-2.593 z" /><path
         id="path184"
         style="fill:#000080;fill-opacity:1;fill-rule:nonzero;stroke:none"
         d="m 54.828,115.635 0,5.063 c 0,1.125 -0.828,1.828 -2.125,1.828 -1,0 -1.641,-0.375 -2.234,-1.313 l 0,1.125 -0.985,0 0,-6.703 1.063,0 0,3.703 c 0,1.36 0.75,2.266 1.828,2.266 0.844,0 1.391,-0.516 1.391,-1.328 l 0,-4.641 1.062,0 z" /><path
         id="path186"
         style="fill:#000080;fill-opacity:1;fill-rule:nonzero;stroke:none"
         d="m 12.621,100.518 c 0,2.266 -1.094,3.609 -2.875,3.609 -0.906,0 -1.641,-0.406 -2.141,-1.203 l 0,1.016 -0.968,0 0,-9.5 1.062,0 0,3.609 c 0.563,-0.703 1.188,-1 2.063,-1 1.718,0 2.859,1.344 2.859,3.469 z m -1.109,0.031 c 0,-1.515 -0.782,-2.5 -1.938,-2.5 -1.125,0 -1.875,0.922 -1.875,2.485 0,1.578 0.75,2.609 1.875,2.609 1.172,0 1.938,-1 1.938,-2.594 z" /><path
         id="path188"
         style="fill:#000080;fill-opacity:1;fill-rule:nonzero;stroke:none"
         d="m 19.895,97.268 0,0.797 c -0.11,-0.016 -0.157,-0.016 -0.235,-0.016 -0.359,0 -0.562,0.188 -0.562,0.516 l 0,3.734 c 0,1.188 -0.875,1.828 -2.532,1.828 -1.625,0 -2.625,-0.625 -2.687,-2.172 l 1.078,0 c 0.094,0.829 0.578,1.188 1.578,1.188 0.953,0 1.5,-0.359 1.5,-1 l 0,-0.281 c 0,-0.438 -0.281,-0.625 -1.125,-0.735 -1.5,-0.187 -1.734,-0.25 -2.14,-0.406 -0.782,-0.328 -1.188,-0.922 -1.188,-1.75 0,-1.203 0.844,-1.922 2.203,-1.922 0.86,0 1.688,0.36 2.281,0.985 0.11,-0.516 0.579,-0.891 1.094,-0.891 0.219,0 0.391,0.031 0.735,0.125 z m -1.86,2.281 c 0,-0.953 -0.984,-1.562 -2.015,-1.562 -0.829,0 -1.313,0.281 -1.313,1.015 0,0.703 0.469,1.016 1.609,1.172 1.125,0.156 1.36,0.203 1.719,0.375 l 0,-1 z" /><path
         id="path190"
         style="fill:#000080;fill-opacity:1;fill-rule:nonzero;stroke:none"
         d="m 24.273,103.002 0,1.094 c -0.187,0.031 -0.265,0.031 -0.406,0.031 -0.703,0 -1.219,-0.406 -1.828,-1.406 l 0,1.219 -0.984,0 0,-6.703 1.062,0 0,3.484 c 0,1.5 0.5,2.266 2.156,2.281 z" /><path
         id="path192"
         style="fill:#000080;fill-opacity:1;fill-rule:nonzero;stroke:none"
         d="m 31.234,97.268 0,0.797 C 31.125,98.049 31.078,98.049 31,98.049 c -0.359,0 -0.562,0.188 -0.562,0.516 l 0,3.734 c 0,1.188 -0.876,1.828 -2.532,1.828 -1.625,0 -2.625,-0.625 -2.687,-2.172 l 1.078,0 c 0.094,0.829 0.578,1.188 1.578,1.188 0.953,0 1.5,-0.359 1.5,-1 l 0,-0.281 c 0,-0.438 -0.281,-0.625 -1.125,-0.735 -1.5,-0.187 -1.734,-0.25 -2.141,-0.406 -0.781,-0.328 -1.187,-0.922 -1.187,-1.75 0,-1.203 0.844,-1.922 2.203,-1.922 0.859,0 1.687,0.36 2.281,0.985 0.11,-0.516 0.578,-0.891 1.094,-0.891 0.219,0 0.391,0.031 0.734,0.125 z m -1.859,2.281 c 0,-0.953 -0.984,-1.562 -2.016,-1.562 -0.828,0 -1.312,0.281 -1.312,1.015 0,0.703 0.469,1.016 1.609,1.172 1.125,0.156 1.36,0.203 1.719,0.375 l 0,-1 z" /><path
         id="path194"
         style="fill:#000080;fill-opacity:1;fill-rule:nonzero;stroke:none"
         d="m 41.227,97.237 0,5.031 c 0,1.203 -0.657,1.859 -1.907,1.859 -0.906,0 -1.437,-0.265 -2.062,-1.015 -0.406,0.718 -0.938,1.015 -1.813,1.015 -0.89,0 -1.484,-0.328 -2.062,-1.125 l 0,0.938 -0.969,0 0,-6.703 1.063,0 0,4.203 c 0,0.984 0.703,1.765 1.578,1.765 0.797,0 1.234,-0.484 1.234,-1.343 l 0,-4.625 1.063,0 0,4.203 c 0,0.984 0.718,1.765 1.593,1.765 0.782,0 1.219,-0.5 1.219,-1.343 l 0,-4.625 1.063,0 z" /><path
         id="path196"
         style="fill:#000080;fill-opacity:1;fill-rule:nonzero;stroke:none"
         d="m 48.73,100.284 c 0,0.968 -0.078,1.578 -0.265,2.078 -0.438,1.109 -1.453,1.765 -2.719,1.765 -1.859,0 -3.062,-1.375 -3.062,-3.578 0,-2.203 1.156,-3.5 3.046,-3.5 1.532,0 2.594,0.86 2.86,2.219 l -1.078,0 c -0.282,-0.875 -0.891,-1.234 -1.75,-1.234 -1.11,0 -1.938,0.718 -1.969,2.25 l 4.937,0 z m -1.14,0.953 c 0,0 0,-0.063 -0.016,-0.078 l -3.75,0 c 0.078,1.187 0.844,1.984 1.922,1.984 1.047,0 1.844,-0.859 1.844,-1.906 z m -1.453,3.437 -1.235,1.891 -1.437,0 1.906,-1.891 0.766,0 z" /><path
         id="path198"
         style="fill:#000080;fill-opacity:1;fill-rule:nonzero;stroke:none"
         d="m 52.434,97.237 0,0.89 c -0.141,-0.031 -0.313,-0.047 -0.516,-0.047 -0.453,0 -0.578,0.125 -0.578,0.61 l 0,4.375 1.094,0 0,0.875 -1.094,0 0,1.844 -1.063,0 0,-1.844 -0.922,0 0,-0.875 0.922,0 0,-4.86 c 0,-0.671 0.453,-1.062 1.282,-1.062 0.265,0 0.515,0.031 0.875,0.094 z" /><path
         id="path200"
         style="fill:#000080;fill-opacity:1;fill-rule:nonzero;stroke:none"
         d="m 56.852,103.002 0,1.094 c -0.188,0.031 -0.266,0.031 -0.407,0.031 -0.703,0 -1.218,-0.406 -1.828,-1.406 l 0,1.219 -0.984,0 0,-6.703 1.062,0 0,3.484 c 0,1.5 0.5,2.266 2.157,2.281 z" /><path
         id="path202"
         style="fill:#000080;fill-opacity:1;fill-rule:nonzero;stroke:none"
         d="m 63.453,100.284 c 0,0.968 -0.078,1.578 -0.265,2.078 -0.438,1.109 -1.454,1.765 -2.719,1.765 -1.86,0 -3.063,-1.375 -3.063,-3.578 0,-2.203 1.156,-3.5 3.047,-3.5 1.531,0 2.594,0.86 2.859,2.219 l -1.078,0 c -0.281,-0.875 -0.89,-1.234 -1.75,-1.234 -1.109,0 -1.937,0.718 -1.968,2.25 l 4.937,0 z m -1.141,0.953 c 0,0 0,-0.063 -0.015,-0.078 l -3.75,0 c 0.078,1.187 0.844,1.984 1.922,1.984 1.047,0 1.843,-0.859 1.843,-1.906 z" /><path
         id="path204"
         style="fill:none;stroke:#000080;stroke-width:1.60000002;stroke-linecap:square;stroke-linejoin:bevel;stroke-miterlimit:4;stroke-dasharray:none;stroke-opacity:1"
         d="m 1.133,134.037 72.801,0 0,-44.801 -72.801,0 0,44.801 z" /><path
         id="path206"
         style="fill:none;stroke:#000080;stroke-width:1.60000002;stroke-linecap:square;stroke-linejoin:bevel;stroke-miterlimit:4;stroke-dasharray:none;stroke-opacity:1"
         d="m 5.133,85.237 -4,4" /><path
         id="path208"
         style="fill:none;stroke:#000080;stroke-width:1.60000002;stroke-linecap:square;stroke-linejoin:bevel;stroke-miterlimit:4;stroke-dasharray:none;stroke-opacity:1"
         d="m 77.133,85.237 -72,0" /><path
         id="path210"
         style="fill:none;stroke:#000080;stroke-width:1.60000002;stroke-linecap:square;stroke-linejoin:bevel;stroke-miterlimit:4;stroke-dasharray:none;stroke-opacity:1"
         d="m 77.133,85.237 -3.199,4" /><path
         id="path212"
         style="fill:none;stroke:#000080;stroke-width:1.60000002;stroke-linecap:square;stroke-linejoin:bevel;stroke-miterlimit:4;stroke-dasharray:none;stroke-opacity:1"
         d="m 77.133,85.237 0,44.8" /><path
         id="path214"
         style="fill:none;stroke:#000080;stroke-width:1.60000002;stroke-linecap:square;stroke-linejoin:bevel;stroke-miterlimit:4;stroke-dasharray:none;stroke-opacity:1"
         d="m 77.133,130.037 -3.199,4" /><path
         id="path216"
         style="fill:#000000;fill-opacity:1;fill-rule:nonzero;stroke:none"
         d="m 11.887,58.358 c 0,0.859 -0.532,1.5 -1.485,1.75 l -1.75,0.468 c -0.843,0.219 -1.156,0.5 -1.156,1.047 0,0.703 0.625,1.235 1.563,1.235 1.109,0 1.75,-0.516 1.75,-1.422 l 0.843,0 c 0,1.375 -0.953,2.172 -2.562,2.172 -1.531,0 -2.485,-0.844 -2.485,-2.11 0,-0.859 0.454,-1.39 1.375,-1.64 l 1.735,-0.453 c 0.875,-0.235 1.281,-0.594 1.281,-1.141 0,-0.766 -0.578,-1.219 -1.781,-1.219 -1.328,0 -1.969,0.672 -1.969,1.672 l -0.859,0 c 0,-1.656 1.125,-2.453 2.765,-2.453 1.782,0 2.735,0.844 2.735,2.094 z" /><path
         id="path218"
         style="fill:#000000;fill-opacity:1;fill-rule:nonzero;stroke:none"
         d="m 20.973,63.436 -0.985,0 -1.297,-5.688 -1.593,5.688 -0.953,0 -1.563,-5.688 -1.312,5.688 -0.985,0 1.781,-7 0.985,0 1.562,5.75 1.61,-5.75 0.984,0 1.766,7 z" /><path
         id="path220"
         style="fill:#000000;fill-opacity:1;fill-rule:nonzero;stroke:none"
         d="m 24.457,56.436 0,6.797 -0.562,0 C 23.598,62.186 23.41,62.045 22.113,61.889 l 0,-0.609 1.5,0 0,-4.844 0.844,0 z" /><path
         id="path222"
         style="fill:#000000;fill-opacity:1;fill-rule:nonzero;stroke:none"
         d="m 11.887,44.756 c 0,0.86 -0.532,1.5 -1.485,1.75 l -1.75,0.469 c -0.843,0.219 -1.156,0.5 -1.156,1.047 0,0.703 0.625,1.234 1.563,1.234 1.109,0 1.75,-0.515 1.75,-1.422 l 0.843,0 c 0,1.375 -0.953,2.172 -2.562,2.172 -1.531,0 -2.485,-0.844 -2.485,-2.109 0,-0.86 0.454,-1.391 1.375,-1.641 l 1.735,-0.453 c 0.875,-0.234 1.281,-0.594 1.281,-1.141 0,-0.765 -0.578,-1.218 -1.781,-1.218 -1.328,0 -1.969,0.672 -1.969,1.672 l -0.859,0 c 0,-1.657 1.125,-2.454 2.765,-2.454 1.782,0 2.735,0.844 2.735,2.094 z" /><path
         id="path224"
         style="fill:#000000;fill-opacity:1;fill-rule:nonzero;stroke:none"
         d="m 13.805,42.834 0,5.032 -0.797,0 0,-5.032 0.797,0 z m 0.109,5.782 0,1 -1,0 0,-1 1,0 z" /><path
         id="path226"
         style="fill:#000000;fill-opacity:1;fill-rule:nonzero;stroke:none"
         d="m 21.762,42.834 0,3.766 c 0,0.906 -0.5,1.406 -1.438,1.406 -0.672,0 -1.078,-0.203 -1.547,-0.765 -0.297,0.531 -0.703,0.765 -1.359,0.765 -0.672,0 -1.109,-0.25 -1.547,-0.859 l 0,0.719 -0.719,0 0,-5.032 0.797,0 0,3.157 c 0,0.734 0.516,1.312 1.172,1.312 0.594,0 0.938,-0.359 0.938,-1 l 0,-3.469 0.796,0 0,3.157 c 0,0.734 0.532,1.312 1.188,1.312 0.578,0 0.922,-0.375 0.922,-1 l 0,-3.469 0.797,0 z" /><path
         id="path228"
         style="fill:#000000;fill-opacity:1;fill-rule:nonzero;stroke:none"
         d="m 27.445,45.772 0,0.656 -4.297,0 0,-0.656 4.297,0 z m 0,-1.735 0,0.657 -4.297,0 0,-0.657 4.297,0 z" /><path
         id="path230"
         style="fill:#000000;fill-opacity:1;fill-rule:nonzero;stroke:none"
         d="m 34.051,44.756 c 0,0.86 -0.531,1.5 -1.485,1.75 l -1.75,0.469 c -0.843,0.219 -1.156,0.5 -1.156,1.047 0,0.703 0.625,1.234 1.563,1.234 1.109,0 1.75,-0.515 1.75,-1.422 l 0.843,0 c 0,1.375 -0.953,2.172 -2.562,2.172 -1.531,0 -2.484,-0.844 -2.484,-2.109 0,-0.86 0.453,-1.391 1.375,-1.641 l 1.734,-0.453 c 0.875,-0.234 1.281,-0.594 1.281,-1.141 0,-0.765 -0.578,-1.218 -1.781,-1.218 -1.328,0 -1.969,0.672 -1.969,1.672 l -0.859,0 c 0,-1.657 1.125,-2.454 2.765,-2.454 1.782,0 2.735,0.844 2.735,2.094 z" /><path
         id="path232"
         style="fill:#000000;fill-opacity:1;fill-rule:nonzero;stroke:none"
         d="m 40.426,47.772 c 0,1.312 -0.781,2.062 -2.156,2.062 l -2.891,0 0,-7 0.891,0 0,2.969 2.203,0 c 1.14,0 1.953,0.813 1.953,1.969 z m -0.938,0.047 c 0,-0.766 -0.5,-1.235 -1.359,-1.235 l -1.859,0 0,2.453 1.859,0 c 0.859,0 1.359,-0.453 1.359,-1.218 z" /><path
         id="path234"
         style="fill:#000000;fill-opacity:1;fill-rule:nonzero;stroke:none"
         d="m 44.234,42.834 0,6.797 -0.562,0 c -0.297,-1.047 -0.484,-1.187 -1.781,-1.344 l 0,-0.609 1.5,0 0,-4.844 0.843,0 z" /><path
         id="path236"
         style="fill:#000000;fill-opacity:1;fill-rule:nonzero;stroke:none"
         d="m 11.621,35.44 0,0.797 -5.484,0 0,-0.797 2.297,0 0,-6.203 0.89,0 0,6.203 2.297,0 z" /><path
         id="path238"
         style="fill:#000000;fill-opacity:1;fill-rule:nonzero;stroke:none"
         d="m 15.426,34.268 -0.86,0 -1.39,-3.922 -1.281,3.922 -0.86,0 1.703,-5.047 -0.312,-0.797 c -0.125,-0.359 -0.297,-0.5 -0.641,-0.5 -0.109,0 -0.25,0.031 -0.422,0.063 l 0,-0.719 c 0.172,-0.078 0.328,-0.125 0.547,-0.125 0.563,0 1.016,0.312 1.281,1.031 l 2.235,6.094 z" /><path
         id="path240"
         style="fill:#000000;fill-opacity:1;fill-rule:nonzero;stroke:none"
         d="m 20.664,31.705 c 0,1.688 -0.828,2.704 -2.156,2.704 -0.688,0 -1.235,-0.313 -1.61,-0.907 l 0,0.766 -0.718,0 0,-7.125 0.797,0 0,2.703 c 0.421,-0.516 0.89,-0.75 1.546,-0.75 1.282,0 2.141,1 2.141,2.609 z m -0.828,0.016 c 0,-1.141 -0.594,-1.875 -1.469,-1.875 -0.844,0 -1.39,0.688 -1.39,1.859 0,1.188 0.546,1.954 1.39,1.954 0.891,0 1.469,-0.735 1.469,-1.938 z" /><path
         id="path242"
         style="fill:#000000;fill-opacity:1;fill-rule:nonzero;stroke:none"
         d="m 25.906,31.518 c 0,0.734 -0.062,1.187 -0.203,1.562 -0.328,0.829 -1.094,1.329 -2.031,1.329 -1.406,0 -2.297,-1.032 -2.297,-2.688 0,-1.656 0.859,-2.625 2.281,-2.625 1.141,0 1.938,0.656 2.141,1.672 l -0.797,0 c -0.219,-0.672 -0.672,-0.938 -1.312,-0.938 -0.844,0 -1.469,0.532 -1.485,1.688 l 3.703,0 z m -0.859,0.719 c 0,0 0,-0.047 0,-0.063 l -2.828,0 c 0.078,0.891 0.64,1.5 1.437,1.5 0.797,0 1.391,-0.656 1.391,-1.437 z" /><path
         id="path244"
         style="fill:#000000;fill-opacity:1;fill-rule:nonzero;stroke:none"
         d="m 31.277,32.174 0,0.656 -4.297,0 0,-0.656 4.297,0 z m 0,-1.734 0,0.656 -4.297,0 0,-0.656 4.297,0 z" /><path
         id="path246"
         style="fill:#000000;fill-opacity:1;fill-rule:nonzero;stroke:none"
         d="m 32.586,36.237 0.797,0 0,-7 -0.797,0 0,7 z" /><path
         id="path248"
         style="fill:#000000;fill-opacity:1;fill-rule:nonzero;stroke:none"
         d="m 35.527,29.237 0,5.031 -0.797,0 0,-5.031 0.797,0 z m 0.11,5.781 0,1 -1,0 0,-1 1,0 z" /><path
         id="path250"
         style="fill:#000000;fill-opacity:1;fill-rule:nonzero;stroke:none"
         d="m 40.625,30.643 c 0,0.75 -0.422,1.125 -1.422,1.359 l -0.765,0.188 c -0.657,0.156 -0.938,0.359 -0.938,0.719 0,0.468 0.422,0.765 1.062,0.765 0.657,0 1,-0.281 1.016,-0.812 l 0.844,0 c -0.016,0.984 -0.656,1.547 -1.828,1.547 -1.172,0 -1.922,-0.61 -1.922,-1.532 0,-0.797 0.406,-1.172 1.594,-1.453 l 0.75,-0.187 c 0.546,-0.125 0.765,-0.297 0.765,-0.657 0,-0.468 -0.469,-0.75 -1.172,-0.75 -0.718,0 -1.109,0.172 -1.218,0.938 l -0.844,0 c 0.031,-1.156 0.687,-1.672 2,-1.672 1.265,0 2.078,0.578 2.078,1.547 z" /><path
         id="path252"
         style="fill:#000000;fill-opacity:1;fill-rule:nonzero;stroke:none"
         d="m 43.398,29.237 0,0.672 c -0.109,-0.032 -0.234,-0.032 -0.39,-0.032 -0.344,0 -0.438,0.094 -0.438,0.438 l 0,3.297 0.828,0 0,0.656 -0.828,0 0,1.375 -0.797,0 0,-1.375 -0.671,0 0,-0.656 0.671,0 0,-3.641 c 0,-0.516 0.344,-0.797 0.969,-0.797 0.188,0 0.391,0.016 0.656,0.063 z" /><path
         id="path254"
         style="fill:#000000;fill-opacity:1;fill-rule:nonzero;stroke:none"
         d="m 11.855,20.573 c 0,1.312 -0.781,2.062 -2.156,2.062 l -2.89,0 0,-7 0.89,0 0,2.969 2.203,0 c 1.141,0 1.953,0.812 1.953,1.969 z m -0.937,0.046 c 0,-0.765 -0.5,-1.234 -1.359,-1.234 l -1.86,0 0,2.453 1.86,0 c 0.859,0 1.359,-0.453 1.359,-1.219 z" /><path
         id="path256"
         style="fill:#000000;fill-opacity:1;fill-rule:nonzero;stroke:none"
         d="m 17.191,15.651 0,0.609 c -0.078,-0.016 -0.109,-0.016 -0.171,-0.016 -0.266,0 -0.422,0.141 -0.422,0.391 l 0,2.797 c 0,0.891 -0.657,1.375 -1.891,1.375 -1.219,0 -1.969,-0.469 -2.016,-1.625 l 0.797,0 c 0.078,0.609 0.438,0.891 1.188,0.891 0.719,0 1.125,-0.282 1.125,-0.75 l 0,-0.219 c 0,-0.328 -0.203,-0.469 -0.844,-0.547 -1.125,-0.156 -1.297,-0.188 -1.609,-0.313 -0.578,-0.234 -0.875,-0.687 -0.875,-1.296 0,-0.922 0.625,-1.454 1.64,-1.454 0.657,0 1.266,0.266 1.719,0.735 0.078,-0.375 0.422,-0.656 0.813,-0.656 0.171,0 0.296,0.015 0.546,0.078 z m -1.39,1.718 c 0,-0.718 -0.735,-1.171 -1.516,-1.171 -0.609,0 -0.984,0.218 -0.984,0.765 0,0.531 0.359,0.75 1.219,0.875 0.843,0.125 1.015,0.156 1.281,0.281 l 0,-0.75 z" /><path
         id="path258"
         style="fill:#000000;fill-opacity:1;fill-rule:nonzero;stroke:none"
         d="m 20.484,19.963 0,0.813 c -0.14,0.015 -0.203,0.031 -0.312,0.031 -0.516,0 -0.906,-0.313 -1.36,-1.063 l 0,0.922 -0.734,0 0,-5.031 0.797,0 0,2.609 c 0,1.125 0.375,1.704 1.609,1.719 z" /><path
         id="path260"
         style="fill:#000000;fill-opacity:1;fill-rule:nonzero;stroke:none"
         d="m 25.688,15.651 0,0.609 c -0.079,-0.016 -0.11,-0.016 -0.172,-0.016 -0.266,0 -0.422,0.141 -0.422,0.391 l 0,2.797 c 0,0.891 -0.656,1.375 -1.891,1.375 -1.219,0 -1.969,-0.469 -2.015,-1.625 l 0.796,0 c 0.078,0.609 0.438,0.891 1.188,0.891 0.719,0 1.125,-0.282 1.125,-0.75 l 0,-0.219 c 0,-0.328 -0.203,-0.469 -0.844,-0.547 -1.125,-0.156 -1.297,-0.188 -1.609,-0.313 -0.578,-0.234 -0.875,-0.687 -0.875,-1.296 0,-0.922 0.625,-1.454 1.64,-1.454 0.657,0 1.266,0.266 1.719,0.735 0.078,-0.375 0.422,-0.656 0.813,-0.656 0.171,0 0.297,0.015 0.547,0.078 z m -1.391,1.718 c 0,-0.718 -0.735,-1.171 -1.516,-1.171 -0.609,0 -0.984,0.218 -0.984,0.765 0,0.531 0.359,0.75 1.219,0.875 0.843,0.125 1.015,0.156 1.281,0.281 l 0,-0.75 z" /><path
         id="path262"
         style="fill:#000000;fill-opacity:1;fill-rule:nonzero;stroke:none"
         d="m 33.195,15.635 0,3.766 c 0,0.906 -0.5,1.406 -1.437,1.406 -0.672,0 -1.078,-0.203 -1.547,-0.766 -0.297,0.532 -0.703,0.766 -1.359,0.766 -0.672,0 -1.11,-0.25 -1.547,-0.859 l 0,0.718 -0.719,0 0,-5.031 0.797,0 0,3.156 c 0,0.735 0.515,1.313 1.172,1.313 0.593,0 0.937,-0.36 0.937,-1 l 0,-3.469 0.797,0 0,3.156 c 0,0.735 0.531,1.313 1.188,1.313 0.578,0 0.921,-0.375 0.921,-1 l 0,-3.469 0.797,0 z" /><path
         id="path264"
         style="fill:#000000;fill-opacity:1;fill-rule:nonzero;stroke:none"
         d="m 38.852,18.573 0,0.656 -4.297,0 0,-0.656 4.297,0 z m 0,-1.735 0,0.656 -4.297,0 0,-0.656 4.297,0 z" /><path
         id="path266"
         style="fill:#000000;fill-opacity:1;fill-rule:nonzero;stroke:none"
         d="m 41.941,15.635 0,0.672 c -0.109,-0.031 -0.234,-0.031 -0.39,-0.031 -0.344,0 -0.438,0.093 -0.438,0.437 l 0,3.297 0.828,0 0,0.656 -0.828,0 0,1.375 -0.797,0 0,-1.375 -0.671,0 0,-0.656 0.671,0 0,-3.641 c 0,-0.515 0.344,-0.796 0.969,-0.796 0.188,0 0.391,0.015 0.656,0.062 z" /><path
         id="path268"
         style="fill:#000000;fill-opacity:1;fill-rule:nonzero;stroke:none"
         d="m 47.297,15.651 0,0.609 c -0.078,-0.016 -0.109,-0.016 -0.172,-0.016 -0.266,0 -0.422,0.141 -0.422,0.391 l 0,2.797 c 0,0.891 -0.656,1.375 -1.891,1.375 -1.218,0 -1.968,-0.469 -2.015,-1.625 l 0.797,0 c 0.078,0.609 0.437,0.891 1.187,0.891 0.719,0 1.125,-0.282 1.125,-0.75 l 0,-0.219 c 0,-0.328 -0.203,-0.469 -0.844,-0.547 -1.124,-0.156 -1.296,-0.188 -1.609,-0.313 -0.578,-0.234 -0.875,-0.687 -0.875,-1.296 0,-0.922 0.625,-1.454 1.641,-1.454 0.656,0 1.265,0.266 1.719,0.735 0.078,-0.375 0.421,-0.656 0.812,-0.656 0.172,0 0.297,0.015 0.547,0.078 z m -1.391,1.718 c 0,-0.718 -0.734,-1.171 -1.515,-1.171 -0.61,0 -0.985,0.218 -0.985,0.765 0,0.531 0.36,0.75 1.219,0.875 0.844,0.125 1.016,0.156 1.281,0.281 l 0,-0.75 z" /><path
         id="path270"
         style="fill:#000000;fill-opacity:1;fill-rule:nonzero;stroke:none"
         d="m 52.184,15.635 0,3.797 c 0,0.844 -0.625,1.375 -1.594,1.375 -0.75,0 -1.219,-0.281 -1.672,-0.984 l 0,0.843 -0.734,0 0,-5.031 0.796,0 0,2.766 c 0,1.031 0.563,1.703 1.375,1.703 0.625,0 1.032,-0.375 1.032,-0.985 l 0,-3.484 0.797,0 z" /><path
         id="path272"
         style="fill:#000000;fill-opacity:1;fill-rule:nonzero;stroke:none"
         d="m 57.598,15.635 0,7 -0.797,0 0,-2.609 c -0.344,0.515 -0.875,0.781 -1.547,0.781 -1.297,0 -2.156,-1.016 -2.156,-2.609 0,-1.704 0.828,-2.704 2.187,-2.704 0.688,0 1.172,0.25 1.594,0.875 l 0,-0.734 0.719,0 z m -0.797,2.5 c 0,-1.172 -0.563,-1.891 -1.406,-1.891 -0.875,0 -1.469,0.735 -1.469,1.907 0,1.172 0.594,1.906 1.469,1.906 0.859,0 1.406,-0.766 1.406,-1.922 z" /><path
         id="path274"
         style="fill:#000000;fill-opacity:1;fill-rule:nonzero;stroke:none"
         d="m 12.121,9.034 -0.953,0 -1.938,-5.922 -2.046,5.922 -0.969,0 2.515,-7 0.969,0 2.422,7 z" /><path
         id="path276"
         style="fill:#000000;fill-opacity:1;fill-rule:nonzero;stroke:none"
         d="m 16.883,2.049 0,0.61 c -0.078,-0.016 -0.11,-0.016 -0.172,-0.016 -0.266,0 -0.422,0.141 -0.422,0.391 l 0,2.796 c 0,0.891 -0.656,1.375 -1.891,1.375 -1.218,0 -1.968,-0.468 -2.015,-1.625 l 0.797,0 c 0.078,0.61 0.437,0.891 1.187,0.891 0.719,0 1.125,-0.281 1.125,-0.75 l 0,-0.219 C 15.492,5.174 15.289,5.034 14.648,4.955 13.523,4.799 13.352,4.768 13.039,4.643 12.461,4.409 12.164,3.955 12.164,3.346 c 0,-0.922 0.625,-1.453 1.641,-1.453 0.656,0 1.265,0.266 1.718,0.734 0.079,-0.375 0.422,-0.656 0.813,-0.656 0.172,0 0.297,0.016 0.547,0.078 z m -1.391,1.719 c 0,-0.719 -0.734,-1.172 -1.515,-1.172 -0.61,0 -0.985,0.219 -0.985,0.766 0,0.531 0.36,0.75 1.219,0.875 0.844,0.125 1.016,0.156 1.281,0.281 l 0,-0.75 z" /><path
         id="path278"
         style="fill:#000000;fill-opacity:1;fill-rule:nonzero;stroke:none"
         d="m 17.754,9.034 0.797,0 0,-7 -0.797,0 0,7 z" /><path
         id="path280"
         style="fill:#000000;fill-opacity:1;fill-rule:nonzero;stroke:none"
         d="m 23.852,2.034 0,5.031 -0.797,0 0,-2.781 c 0,-1.016 -0.532,-1.688 -1.375,-1.688 -0.625,0 -1.032,0.375 -1.032,0.984 l 0,3.485 -0.796,0 0,-3.797 c 0,-0.844 0.625,-1.375 1.593,-1.375 0.75,0 1.219,0.25 1.688,0.922 l 0,-0.781 0.719,0 z" /><path
         id="path282"
         style="fill:#000000;fill-opacity:1;fill-rule:nonzero;stroke:none"
         d="m 29.516,4.315 c 0,0.734 -0.063,1.187 -0.204,1.562 -0.328,0.828 -1.093,1.328 -2.031,1.328 -1.406,0 -2.297,-1.031 -2.297,-2.687 0,-1.656 0.86,-2.625 2.282,-2.625 1.14,0 1.937,0.656 2.14,1.672 l -0.797,0 C 28.391,2.893 27.938,2.627 27.297,2.627 c -0.844,0 -1.469,0.532 -1.485,1.688 l 3.704,0 z m -0.86,0.719 c 0,0 0,-0.047 0,-0.063 l -2.828,0 c 0.078,0.891 0.641,1.5 1.438,1.5 0.796,0 1.39,-0.656 1.39,-1.437 z" /><path
         id="path284"
         style="fill:#000000;fill-opacity:1;fill-rule:nonzero;stroke:none"
         d="m 34.34,3.44 c 0,0.75 -0.422,1.125 -1.422,1.359 l -0.766,0.188 c -0.656,0.156 -0.937,0.359 -0.937,0.718 0,0.469 0.422,0.766 1.062,0.766 0.657,0 1,-0.281 1.016,-0.812 l 0.844,0 c -0.016,0.984 -0.657,1.546 -1.828,1.546 -1.172,0 -1.922,-0.609 -1.922,-1.531 0,-0.797 0.406,-1.172 1.593,-1.453 l 0.75,-0.187 c 0.547,-0.125 0.766,-0.297 0.766,-0.657 0,-0.468 -0.469,-0.75 -1.172,-0.75 -0.719,0 -1.109,0.172 -1.219,0.938 l -0.843,0 c 0.031,-1.156 0.687,-1.672 2,-1.672 1.265,0 2.078,0.578 2.078,1.547 z" /><path
         id="path286"
         style="fill:#000000;fill-opacity:1;fill-rule:nonzero;stroke:none"
         d="m 39.684,4.971 0,0.656 -4.297,0 0,-0.656 4.297,0 z m 0,-1.734 0,0.656 -4.297,0 0,-0.656 4.297,0 z" /><path
         id="path288"
         style="fill:#000000;fill-opacity:1;fill-rule:nonzero;stroke:none"
         d="m 42.73,0.002 0,0.688 -0.984,0 0,7.64 0.984,0 0,0.704 -1.781,0 0,-9.032 1.781,0 z" /><path
         id="path290"
         style="fill:#000000;fill-opacity:1;fill-rule:nonzero;stroke:none"
         d="m 47.867,5.299 c 0,2.36 -0.75,3.531 -2.219,3.531 -1.468,0 -2.234,-1.187 -2.234,-3.468 0,-2.297 0.781,-3.469 2.234,-3.469 1.438,0 2.219,1.172 2.219,3.406 z m -0.859,0.078 c 0,-1.922 -0.438,-2.781 -1.375,-2.781 -0.891,0 -1.344,0.891 -1.344,2.75 0,1.875 0.453,2.734 1.359,2.734 0.907,0 1.36,-0.875 1.36,-2.703 z" /><path
         id="path292"
         style="fill:#000000;fill-opacity:1;fill-rule:nonzero;stroke:none"
         d="m 50.188,6.065 0,1 -1,0 0,-1 1,0 z m 0,-4.188 0,1.157 -1.016,0 0,-1 0.578,0 0,-0.172 c 0,-0.657 -0.125,-0.86 -0.578,-0.875 l 0,-0.36 c 0.672,0 1.016,0.422 1.016,1.25 z" /><path
         id="path294"
         style="fill:#000000;fill-opacity:1;fill-rule:nonzero;stroke:none"
         d="m 58.543,5.299 c 0,2.36 -0.75,3.531 -2.219,3.531 -1.469,0 -2.234,-1.187 -2.234,-3.468 0,-2.297 0.781,-3.469 2.234,-3.469 1.438,0 2.219,1.172 2.219,3.406 z m -0.859,0.078 c 0,-1.922 -0.438,-2.781 -1.375,-2.781 -0.891,0 -1.344,0.891 -1.344,2.75 0,1.875 0.453,2.734 1.359,2.734 0.906,0 1.36,-0.875 1.36,-2.703 z" /><path
         id="path296"
         style="fill:#000000;fill-opacity:1;fill-rule:nonzero;stroke:none"
         d="m 59.848,3.034 1,0 0,-1 -1,0 0,1 z" /><path
         id="path298"
         style="fill:#000000;fill-opacity:1;fill-rule:nonzero;stroke:none"
         d="m 66.547,5.299 c 0,2.36 -0.75,3.531 -2.219,3.531 -1.469,0 -2.234,-1.187 -2.234,-3.468 0,-2.297 0.781,-3.469 2.234,-3.469 1.438,0 2.219,1.172 2.219,3.406 z m -0.859,0.078 c 0,-1.922 -0.438,-2.781 -1.376,-2.781 -0.89,0 -1.343,0.891 -1.343,2.75 0,1.875 0.453,2.734 1.359,2.734 0.906,0 1.36,-0.875 1.36,-2.703 z" /><path
         id="path300"
         style="fill:#000000;fill-opacity:1;fill-rule:nonzero;stroke:none"
         d="m 70.355,2.034 0,6.796 -0.562,0 C 69.496,7.784 69.309,7.643 68.012,7.487 l 0,-0.61 1.5,0 0,-4.843 0.843,0 z" /><path
         id="path302"
         style="fill:#000000;fill-opacity:1;fill-rule:nonzero;stroke:none"
         d="m 77.348,3.659 0,0.765 -1,0 0,4.406 -0.625,0 -3.094,-4.281 0,-0.89 2.875,0 0,-1.625 0.844,0 0,1.625 1,0 z m -1.844,0.765 -2.141,0 2.141,2.969 0,-2.969 z" /><path
         id="path304"
         style="fill:#000000;fill-opacity:1;fill-rule:nonzero;stroke:none"
         d="m 79.703,0.002 0,9.032 -1.781,0 0,-0.704 0.984,0 0,-7.64 -0.984,0 0,-0.688 1.781,0 z" /></g></g></svg>