<?xml version="1.0" encoding="UTF-8" standalone="no"?>
<svg
   xmlns:dc="http://purl.org/dc/elements/1.1/"
   xmlns:cc="http://creativecommons.org/ns#"
   xmlns:rdf="http://www.w3.org/1999/02/22-rdf-syntax-ns#"
   xmlns:svg="http://www.w3.org/2000/svg"
   xmlns="http://www.w3.org/2000/svg"
   viewBox="0 0 598.41998 374.12399"
   height="374.12399"
   width="598.41998"
   xml:space="preserve"
   version="1.1"
   id="svg2"><metadata
     id="metadata8"><rdf:RDF><cc:Work
         rdf:about=""><dc:format>image/svg+xml</dc:format><dc:type
           rdf:resource="http://purl.org/dc/dcmitype/StillImage" /></cc:Work></rdf:RDF></metadata><defs
     id="defs6" /><g
     transform="matrix(1.25,0,0,-1.25,0,374.12399)"
     id="g10"><g
       id="g12"><path
         id="path14"
         style="fill:none;stroke:#c0c0c0;stroke-width:0.80000001;stroke-linecap:square;stroke-linejoin:bevel;stroke-miterlimit:4;stroke-dasharray:0.8, 1.6;stroke-dashoffset:0;stroke-opacity:1"
         d="m 91.969,281.291 381.601,0" /><path
         id="path16"
         style="fill:none;stroke:#c0c0c0;stroke-width:0.80000001;stroke-linecap:square;stroke-linejoin:bevel;stroke-miterlimit:4;stroke-dasharray:0.8, 1.6;stroke-dashoffset:0;stroke-opacity:1"
         d="m 91.969,264.491 381.601,0" /><path
         id="path18"
         style="fill:none;stroke:#c0c0c0;stroke-width:0.80000001;stroke-linecap:square;stroke-linejoin:bevel;stroke-miterlimit:4;stroke-dasharray:0.8, 1.6;stroke-dashoffset:0;stroke-opacity:1"
         d="m 91.969,248.491 381.601,0" /><path
         id="path20"
         style="fill:none;stroke:#c0c0c0;stroke-width:0.80000001;stroke-linecap:square;stroke-linejoin:bevel;stroke-miterlimit:4;stroke-dasharray:0.8, 1.6;stroke-dashoffset:0;stroke-opacity:1"
         d="m 91.969,231.69 381.601,0" /><path
         id="path22"
         style="fill:none;stroke:#c0c0c0;stroke-width:0.80000001;stroke-linecap:square;stroke-linejoin:bevel;stroke-miterlimit:4;stroke-dasharray:0.8, 1.6;stroke-dashoffset:0;stroke-opacity:1"
         d="m 91.969,215.69 381.601,0" /><path
         id="path24"
         style="fill:none;stroke:#c0c0c0;stroke-width:0.80000001;stroke-linecap:square;stroke-linejoin:bevel;stroke-miterlimit:4;stroke-dasharray:0.8, 1.6;stroke-dashoffset:0;stroke-opacity:1"
         d="m 91.969,198.893 381.601,0" /><path
         id="path26"
         style="fill:none;stroke:#c0c0c0;stroke-width:0.80000001;stroke-linecap:square;stroke-linejoin:bevel;stroke-miterlimit:4;stroke-dasharray:0.8, 1.6;stroke-dashoffset:0;stroke-opacity:1"
         d="m 91.969,182.893 381.601,0" /><path
         id="path28"
         style="fill:none;stroke:#c0c0c0;stroke-width:0.80000001;stroke-linecap:square;stroke-linejoin:bevel;stroke-miterlimit:4;stroke-dasharray:0.8, 1.6;stroke-dashoffset:0;stroke-opacity:1"
         d="m 91.969,166.092 381.601,0" /><path
         id="path30"
         style="fill:none;stroke:#c0c0c0;stroke-width:0.80000001;stroke-linecap:square;stroke-linejoin:bevel;stroke-miterlimit:4;stroke-dasharray:0.8, 1.6;stroke-dashoffset:0;stroke-opacity:1"
         d="m 91.969,150.092 381.601,0" /><path
         id="path32"
         style="fill:none;stroke:#c0c0c0;stroke-width:0.80000001;stroke-linecap:square;stroke-linejoin:bevel;stroke-miterlimit:4;stroke-dasharray:0.8, 1.6;stroke-dashoffset:0;stroke-opacity:1"
         d="m 91.969,133.291 381.601,0" /><path
         id="path34"
         style="fill:none;stroke:#c0c0c0;stroke-width:0.80000001;stroke-linecap:square;stroke-linejoin:bevel;stroke-miterlimit:4;stroke-dasharray:0.8, 1.6;stroke-dashoffset:0;stroke-opacity:1"
         d="m 91.969,117.291 381.601,0" /><path
         id="path36"
         style="fill:none;stroke:#c0c0c0;stroke-width:0.80000001;stroke-linecap:square;stroke-linejoin:bevel;stroke-miterlimit:4;stroke-dasharray:0.8, 1.6;stroke-dashoffset:0;stroke-opacity:1"
         d="m 91.969,100.491 381.601,0" /><path
         id="path38"
         style="fill:none;stroke:#c0c0c0;stroke-width:0.80000001;stroke-linecap:square;stroke-linejoin:bevel;stroke-miterlimit:4;stroke-dasharray:0.8, 1.6;stroke-dashoffset:0;stroke-opacity:1"
         d="m 91.969,84.491 381.601,0" /><path
         id="path40"
         style="fill:none;stroke:#c0c0c0;stroke-width:0.80000001;stroke-linecap:square;stroke-linejoin:bevel;stroke-miterlimit:4;stroke-dasharray:0.8, 1.6;stroke-dashoffset:0;stroke-opacity:1"
         d="m 91.969,67.69 381.601,0" /><path
         id="path42"
         style="fill:none;stroke:#c0c0c0;stroke-width:0.80000001;stroke-linecap:square;stroke-linejoin:bevel;stroke-miterlimit:4;stroke-dasharray:0.8, 1.6;stroke-dashoffset:0;stroke-opacity:1"
         d="m 91.969,51.69 381.601,0" /><path
         id="path44"
         style="fill:none;stroke:#c0c0c0;stroke-width:0.80000001;stroke-linecap:square;stroke-linejoin:bevel;stroke-miterlimit:4;stroke-dasharray:0.8, 1.6;stroke-dashoffset:0;stroke-opacity:1"
         d="m 410.375,297.291 0,-262.398" /><path
         id="path46"
         style="fill:none;stroke:#c0c0c0;stroke-width:0.80000001;stroke-linecap:square;stroke-linejoin:bevel;stroke-miterlimit:4;stroke-dasharray:0.8, 1.6;stroke-dashoffset:0;stroke-opacity:1"
         d="m 346.375,297.291 0,-262.398" /><path
         id="path48"
         style="fill:none;stroke:#c0c0c0;stroke-width:0.80000001;stroke-linecap:square;stroke-linejoin:bevel;stroke-miterlimit:4;stroke-dasharray:0.8, 1.6;stroke-dashoffset:0;stroke-opacity:1"
         d="m 283.168,297.291 0,-262.398" /><path
         id="path50"
         style="fill:none;stroke:#c0c0c0;stroke-width:0.80000001;stroke-linecap:square;stroke-linejoin:bevel;stroke-miterlimit:4;stroke-dasharray:0.8, 1.6;stroke-dashoffset:0;stroke-opacity:1"
         d="m 219.168,297.291 0,-262.398" /><path
         id="path52"
         style="fill:none;stroke:#c0c0c0;stroke-width:0.80000001;stroke-linecap:square;stroke-linejoin:bevel;stroke-miterlimit:4;stroke-dasharray:0.8, 1.6;stroke-dashoffset:0;stroke-opacity:1"
         d="m 155.969,297.291 0,-262.398" /><path
         id="path54"
         style="fill:none;stroke:#000000;stroke-width:0.80000001;stroke-linecap:square;stroke-linejoin:bevel;stroke-miterlimit:4;stroke-dasharray:none;stroke-opacity:1"
         d="m 91.969,38.893 0,-8" /><path
         id="path56"
         style="fill:none;stroke:#000000;stroke-width:0.80000001;stroke-linecap:square;stroke-linejoin:bevel;stroke-miterlimit:4;stroke-dasharray:none;stroke-opacity:1"
         d="m 155.969,38.893 0,-8" /><path
         id="path58"
         style="fill:none;stroke:#000000;stroke-width:0.80000001;stroke-linecap:square;stroke-linejoin:bevel;stroke-miterlimit:4;stroke-dasharray:none;stroke-opacity:1"
         d="m 219.168,38.893 0,-8" /><path
         id="path60"
         style="fill:none;stroke:#000000;stroke-width:0.80000001;stroke-linecap:square;stroke-linejoin:bevel;stroke-miterlimit:4;stroke-dasharray:none;stroke-opacity:1"
         d="m 283.168,38.893 0,-8" /><path
         id="path62"
         style="fill:none;stroke:#000000;stroke-width:0.80000001;stroke-linecap:square;stroke-linejoin:bevel;stroke-miterlimit:4;stroke-dasharray:none;stroke-opacity:1"
         d="m 346.375,38.893 0,-8" /><path
         id="path64"
         style="fill:none;stroke:#000000;stroke-width:0.80000001;stroke-linecap:square;stroke-linejoin:bevel;stroke-miterlimit:4;stroke-dasharray:none;stroke-opacity:1"
         d="m 410.375,38.893 0,-8" /><path
         id="path66"
         style="fill:none;stroke:#000000;stroke-width:0.80000001;stroke-linecap:square;stroke-linejoin:bevel;stroke-miterlimit:4;stroke-dasharray:none;stroke-opacity:1"
         d="m 473.57,38.893 0,-8" /><path
         id="path68"
         style="fill:none;stroke:#000000;stroke-width:0.80000001;stroke-linecap:square;stroke-linejoin:bevel;stroke-miterlimit:4;stroke-dasharray:none;stroke-opacity:1"
         d="m 87.969,34.893 8,0" /><path
         id="path70"
         style="fill:none;stroke:#000000;stroke-width:0.80000001;stroke-linecap:square;stroke-linejoin:bevel;stroke-miterlimit:4;stroke-dasharray:none;stroke-opacity:1"
         d="m 87.969,51.69 8,0" /><path
         id="path72"
         style="fill:none;stroke:#000000;stroke-width:0.80000001;stroke-linecap:square;stroke-linejoin:bevel;stroke-miterlimit:4;stroke-dasharray:none;stroke-opacity:1"
         d="m 87.969,67.69 8,0" /><path
         id="path74"
         style="fill:none;stroke:#000000;stroke-width:0.80000001;stroke-linecap:square;stroke-linejoin:bevel;stroke-miterlimit:4;stroke-dasharray:none;stroke-opacity:1"
         d="m 87.969,84.491 8,0" /><path
         id="path76"
         style="fill:none;stroke:#000000;stroke-width:0.80000001;stroke-linecap:square;stroke-linejoin:bevel;stroke-miterlimit:4;stroke-dasharray:none;stroke-opacity:1"
         d="m 87.969,100.491 8,0" /><path
         id="path78"
         style="fill:none;stroke:#000000;stroke-width:0.80000001;stroke-linecap:square;stroke-linejoin:bevel;stroke-miterlimit:4;stroke-dasharray:none;stroke-opacity:1"
         d="m 87.969,117.291 8,0" /><path
         id="path80"
         style="fill:none;stroke:#000000;stroke-width:0.80000001;stroke-linecap:square;stroke-linejoin:bevel;stroke-miterlimit:4;stroke-dasharray:none;stroke-opacity:1"
         d="m 87.969,133.291 8,0" /><path
         id="path82"
         style="fill:none;stroke:#000000;stroke-width:0.80000001;stroke-linecap:square;stroke-linejoin:bevel;stroke-miterlimit:4;stroke-dasharray:none;stroke-opacity:1"
         d="m 87.969,150.092 8,0" /><path
         id="path84"
         style="fill:none;stroke:#000000;stroke-width:0.80000001;stroke-linecap:square;stroke-linejoin:bevel;stroke-miterlimit:4;stroke-dasharray:none;stroke-opacity:1"
         d="m 87.969,166.092 8,0" /><path
         id="path86"
         style="fill:none;stroke:#000000;stroke-width:0.80000001;stroke-linecap:square;stroke-linejoin:bevel;stroke-miterlimit:4;stroke-dasharray:none;stroke-opacity:1"
         d="m 87.969,182.893 8,0" /><path
         id="path88"
         style="fill:none;stroke:#000000;stroke-width:0.80000001;stroke-linecap:square;stroke-linejoin:bevel;stroke-miterlimit:4;stroke-dasharray:none;stroke-opacity:1"
         d="m 87.969,198.893 8,0" /><path
         id="path90"
         style="fill:none;stroke:#000000;stroke-width:0.80000001;stroke-linecap:square;stroke-linejoin:bevel;stroke-miterlimit:4;stroke-dasharray:none;stroke-opacity:1"
         d="m 87.969,215.69 8,0" /><path
         id="path92"
         style="fill:none;stroke:#000000;stroke-width:0.80000001;stroke-linecap:square;stroke-linejoin:bevel;stroke-miterlimit:4;stroke-dasharray:none;stroke-opacity:1"
         d="m 87.969,231.69 8,0" /><path
         id="path94"
         style="fill:none;stroke:#000000;stroke-width:0.80000001;stroke-linecap:square;stroke-linejoin:bevel;stroke-miterlimit:4;stroke-dasharray:none;stroke-opacity:1"
         d="m 87.969,248.491 8,0" /><path
         id="path96"
         style="fill:none;stroke:#000000;stroke-width:0.80000001;stroke-linecap:square;stroke-linejoin:bevel;stroke-miterlimit:4;stroke-dasharray:none;stroke-opacity:1"
         d="m 87.969,264.491 8,0" /><path
         id="path98"
         style="fill:none;stroke:#000000;stroke-width:0.80000001;stroke-linecap:square;stroke-linejoin:bevel;stroke-miterlimit:4;stroke-dasharray:none;stroke-opacity:1"
         d="m 87.969,281.291 8,0" /><path
         id="path100"
         style="fill:none;stroke:#000000;stroke-width:0.80000001;stroke-linecap:square;stroke-linejoin:bevel;stroke-miterlimit:4;stroke-dasharray:none;stroke-opacity:1"
         d="m 87.969,297.291 8,0" /><path
         id="path102"
         style="fill:none;stroke:#000000;stroke-width:0.80000001;stroke-linecap:square;stroke-linejoin:bevel;stroke-miterlimit:4;stroke-dasharray:none;stroke-opacity:1"
         d="m 91.969,297.291 381.601,0" /><path
         id="path104"
         style="fill:none;stroke:#000000;stroke-width:0.80000001;stroke-linecap:square;stroke-linejoin:bevel;stroke-miterlimit:4;stroke-dasharray:none;stroke-opacity:1"
         d="m 473.57,297.291 0,-262.398" /><path
         id="path106"
         style="fill:none;stroke:#000000;stroke-width:0.80000001;stroke-linecap:square;stroke-linejoin:bevel;stroke-miterlimit:4;stroke-dasharray:none;stroke-opacity:1"
         d="m 91.969,34.893 381.601,0" /><path
         id="path108"
         style="fill:none;stroke:#000000;stroke-width:0.80000001;stroke-linecap:square;stroke-linejoin:bevel;stroke-miterlimit:4;stroke-dasharray:none;stroke-opacity:1"
         d="m 91.969,297.291 0,-262.398" /><path
         id="path110"
         style="fill:none;stroke:#0000ff;stroke-width:0.80000001;stroke-linecap:square;stroke-linejoin:bevel;stroke-miterlimit:4;stroke-dasharray:none;stroke-opacity:1"
         d="m 117.473,34.893 0.066,0.305 0.215,1.054 0.109,0.532 0.114,0.527 0.109,0.523 0.117,0.528 0.106,0.527 0.453,2.094 0.113,0.519 0.121,0.524 0.109,0.519 0.356,1.559 0.109,0.516 0.121,0.515 0.118,0.52 0.117,0.515 0.121,0.512 0.121,0.516 0.121,0.511 0.359,1.536 0.125,0.511 0.122,0.508 0.25,1.016 0.121,0.507 0.125,0.508 0.125,0.504 0.129,0.504 0.125,0.504 0.128,0.504 0.129,0.5 0.125,0.5 0.262,1 0.129,0.5 0.129,0.496 0.133,0.496 0.129,0.496 0.132,0.496 0.399,1.477 0.137,0.492 0.132,0.488 0.141,0.493 0.133,0.488 0.137,0.484 0.136,0.488 0.137,0.485 0.141,0.484 0.136,0.485 0.563,1.921 0.14,0.477 0.434,1.43 0.434,1.418 0.148,0.468 0.145,0.473 0.152,0.465 0.144,0.469 0.446,1.394 0.156,0.461 0.148,0.465 0.153,0.457 0.156,0.461 0.301,0.914 0.16,0.457 0.309,0.906 0.156,0.45 0.16,0.453 0.156,0.449 0.156,0.445 0.161,0.445 0.16,0.45 0.324,0.883 0.164,0.445 0.156,0.437 0.493,1.313 0.168,0.433 0.164,0.434 0.671,1.719 0.172,0.422 0.168,0.425 0.348,0.844 0.172,0.422 0.172,0.418 0.175,0.414 0.172,0.418 0.18,0.41 0.176,0.414 0.351,0.821 0.36,0.812 0.179,0.402 0.184,0.403 0.18,0.402 0.183,0.399 0.184,0.394 0.183,0.399 0.188,0.39 0.184,0.395 0.191,0.39 0.559,1.16 0.191,0.383 0.187,0.379 0.192,0.383 0.191,0.375 0.196,0.375 0.191,0.375 0.391,0.742 0.398,0.735 0.395,0.726 0.199,0.359 0.406,0.711 0.195,0.356 0.204,0.351 0.203,0.348 0.207,0.348 0.203,0.347 0.207,0.344 0.211,0.34 0.207,0.34 0.207,0.336 0.633,0.996 0.214,0.328 0.215,0.324 0.219,0.321 0.215,0.324 0.211,0.316 0.219,0.317 0.218,0.312 0.438,0.617 0.223,0.309 0.445,0.601 0.449,0.594 0.223,0.293 0.226,0.289 0.231,0.289 0.226,0.285 0.231,0.282 0.461,0.554 0.468,0.547 0.473,0.531 0.473,0.524 0.476,0.508 0.485,0.5 0.488,0.484 0.734,0.703 0.25,0.227 0.246,0.226 0.25,0.219 0.254,0.219 0.25,0.215 0.254,0.211 0.258,0.207 0.254,0.207 0.254,0.199 0.258,0.195 0.261,0.196 0.258,0.191 0.524,0.367 0.261,0.18 0.532,0.344 0.265,0.168 0.539,0.32 0.27,0.156 0.269,0.149 0.274,0.148 0.547,0.281 0.281,0.133 0.273,0.129 0.278,0.125 0.281,0.121 0.281,0.117 0.281,0.11 0.282,0.105 0.285,0.106 0.289,0.097 0.57,0.18 0.289,0.082 0.289,0.078 0.293,0.074 0.293,0.067 0.293,0.062 0.598,0.11 0.293,0.043 0.301,0.042 0.297,0.036 0.304,0.031 0.305,0.023 0.301,0.02 0.304,0.012 0.313,0.003 0.305,0 0.312,-0.003 0.309,-0.012 0.308,-0.02 0.317,-0.023 0.316,-0.031 0.313,-0.036 0.32,-0.046 0.316,-0.051 0.321,-0.055 0.32,-0.066 0.328,-0.071 0.32,-0.082 0.329,-0.086 0.324,-0.093 0.328,-0.102 0.332,-0.109 0.332,-0.114 0.332,-0.125 0.332,-0.132 0.336,-0.141 0.34,-0.148 0.336,-0.161 0.34,-0.164 0.339,-0.175 0.348,-0.184 0.34,-0.191 0.348,-0.204 0.351,-0.21 0.344,-0.219 0.351,-0.231 0.352,-0.242 0.352,-0.25 0.359,-0.258 0.351,-0.273 0.36,-0.281 0.359,-0.289 0.36,-0.305 0.363,-0.313 0.367,-0.328 0.359,-0.336 0.368,-0.347 0.367,-0.364 0.371,-0.371 0.375,-0.386 0.371,-0.399 0.379,-0.41 0.371,-0.426 0.379,-0.437 0.379,-0.453 0.383,-0.469 0.382,-0.481 0.383,-0.496 0.387,-0.511 0.387,-0.524 0.39,-0.543 0.391,-0.558 0.395,-0.575 0.394,-0.593 0.395,-0.606 0.398,-0.629 0.398,-0.644 0.403,-0.664 0.406,-0.68 0.402,-0.703 0.407,-0.719 0.406,-0.742 0.414,-0.762 0.414,-0.785 0.406,-0.805 0.422,-0.828 0.41,-0.851 0.426,-0.875 0.418,-0.899 0.418,-0.922 0.426,-0.953 0.426,-0.972 0.425,-1.004 0.43,-1.032 0.434,-1.058 0.437,-1.09 0.43,-1.117 0.437,-1.149 0.438,-1.183 0.445,-1.215 0.438,-1.25 0.445,-1.281 0.445,-1.321 0.449,-1.359 0.45,-1.399 0.453,-1.433 0.453,-1.477 0.457,-1.523 0.457,-1.563 0.461,-1.609 0.461,-1.656 0.465,-1.707 0.465,-1.754 0.468,-1.809 0.473,-1.863 0.469,-1.922 0.472,-1.98 0.477,-2.039 0.477,-2.106 0.48,-2.168 0.48,-2.242 0.485,-2.313 0.488,-2.386 0.484,-2.469 0.493,-2.551 0.492,-2.637 0.441,-2.437" /><path
         id="path112"
         style="fill:none;stroke:#0000ff;stroke-width:0.80000001;stroke-linecap:square;stroke-linejoin:bevel;stroke-miterlimit:4;stroke-dasharray:none;stroke-opacity:1"
         d="m 249.668,34.893 0.398,2.578 0.68,4.195 0.672,4.039 0.68,3.895 0.683,3.754 0.688,3.621 0.687,3.492 0.692,3.371 0.695,3.25 0.703,3.133 0.695,3.024 0.704,2.914 0.707,2.808 0.71,2.707 0.711,2.61 0.723,2.507 0.715,2.418 0.723,2.321 0.722,2.23 0.731,2.141 0.734,2.054 0.731,1.961 0.738,1.879 0.742,1.793 0.746,1.707 0.742,1.625 0.75,1.539 0.758,1.457 0.754,1.371 0.758,1.286 0.762,1.207 0.769,1.117 0.766,1.035 0.777,0.949 0.774,0.86 0.781,0.773 0.781,0.684 0.789,0.589 0.789,0.497 0.793,0.402 0.797,0.305 0.797,0.199 0.801,0.097 0.812,-0.011 0.805,-0.125 0.812,-0.239 0.817,-0.363 0.82,-0.492 0.824,-0.625 0.828,-0.77 0.832,-0.914 0.832,-1.078 0.84,-1.242 0.844,-1.422 0.844,-1.617 0.847,-1.82 0.852,-2.047 0.855,-2.289 0.86,-2.547 0.867,-2.836 0.863,-3.152 0.871,-3.496 0.875,-3.879 0.879,-4.309 0.887,-4.785 0.879,-5.328 0.891,-5.938 0.898,-6.648 0.891,-7.461 0.902,-8.414 0.91,-9.551 0.25,-2.996" /><path
         id="path114"
         style="fill:none;stroke:#0000ff;stroke-width:0.80000001;stroke-linecap:square;stroke-linejoin:bevel;stroke-miterlimit:4;stroke-dasharray:none;stroke-opacity:1"
         d="m 321.098,34.893 0.808,18.359 0.985,19.543 0.984,17.469 0.988,15.758 0.992,14.312 1,13.063 1,11.961 1.008,10.988 1.012,10.109 1.012,9.305 1.019,8.574 1.024,7.903 1.031,7.281 1.035,6.703 1.031,6.172 1.043,5.672 1.043,5.219 1.055,4.789 1.051,4.394 1.058,4.031 1.063,3.696 1.074,3.383 1.066,3.097 1.079,2.832 1.082,2.59 1.086,2.371 1.089,2.164 1.102,1.981 1.098,1.812 1.109,1.653 1.105,1.511 1.114,1.383 1.121,1.266 1.121,1.16 1.129,1.058 1.133,0.969 1.14,0.887 1.145,0.816 1.148,0.746 1.153,0.684 1.156,0.629 1.164,0.578 1.168,0.527 1.172,0.489 1.179,0.449 1.188,0.41 1.184,0.383 1.191,0.348 1.203,0.324 1.199,0.297 1.207,0.273 1.219,0.254 1.215,0.234 1.223,0.219 1.23,0.199 1.234,0.188 1.239,0.172 1.246,0.156 1.25,0.148 1.258,0.137 1.257,0.129 1.266,0.117 1.273,0.11 1.278,0.101 1.285,0.094 1.289,0.09 1.293,0.082 1.297,0.074 1.305,0.07 1.312,0.067 1.313,0.062 1.32,0.059 1.328,0.054 2.672,0.094 1.344,0.047 1.347,0.039 1.36,0.039 1.363,0.035 1.367,0.036 1.375,0.031 1.375,0.027 1.383,0.027 1.391,0.028 2.796,0.047 1.411,0.019 1.414,0.02 1.422,0.019 1.425,0.016 1.434,0.019 1.437,0.016 1.446,0.012 1.453,0.015 1.457,0.012 1.461,0.012 1.472,0.012 1.481,0.011 1.477,0.008 1.488,0.012 1.496,0.008 1.5,0.007 1.508,0.008 1.515,0.008 1.52,0.008 1.531,0.004 1.531,0.008 1.539,0.007 1.547,0.004 1.555,0.004 1.559,0.008 1.566,0.004 1.578,0.004 1.574,0.004 1.594,0.004 1.59,0.004 1.598,0.003 1.609,0.004 1.617,0 1.617,0.004" /><path
         id="path116"
         style="fill:none;stroke:#ff00ff;stroke-width:0.80000001;stroke-linecap:square;stroke-linejoin:bevel;stroke-miterlimit:4;stroke-dasharray:none;stroke-opacity:1"
         d="m 124.504,34.893 0.055,0.195 0.136,0.52 0.282,1.047 0.421,1.558 0.145,0.516 0.145,0.519 0.144,0.516 0.141,0.52 0.148,0.515 0.145,0.516 0.148,0.512 0.145,0.511 0.152,0.516 0.293,1.023 0.148,0.508 0.149,0.512 0.613,2.031 0.301,1.008 0.16,0.508 0.152,0.5 0.157,0.504 0.316,1 0.312,1 0.161,0.5 0.484,1.488 0.164,0.492 0.156,0.496 0.328,0.985 0.165,0.488 0.168,0.492 0.164,0.488 0.336,0.977 0.335,0.969 0.172,0.484 0.168,0.484 0.176,0.481 0.172,0.484 0.172,0.477 0.172,0.48 0.175,0.481 0.172,0.476 0.18,0.477 0.527,1.418 0.36,0.945 0.179,0.469 0.184,0.469 0.18,0.468 0.55,1.395 0.188,0.461 0.559,1.383 0.375,0.914 0.191,0.453 0.187,0.457 0.192,0.453 0.191,0.449 0.196,0.453 0.191,0.45 0.195,0.445 0.196,0.449 0.199,0.445 0.199,0.442 0.195,0.445 0.399,0.883 0.406,0.875 0.195,0.434 0.204,0.437 0.203,0.434 0.207,0.429 0.203,0.43 0.207,0.43 0.211,0.429 0.207,0.426 0.207,0.422 0.211,0.426 0.211,0.422 0.211,0.418 0.429,0.836 0.645,1.242 0.437,0.82 0.438,0.813 0.668,1.207 0.449,0.797 0.449,0.789 0.231,0.39 0.226,0.391 0.231,0.39 0.23,0.383 0.231,0.387 0.468,0.766 0.235,0.379 0.238,0.375 0.235,0.378 0.714,1.114 0.485,0.734 0.242,0.363 0.246,0.36 0.246,0.363 0.488,0.711 0.25,0.355 0.246,0.348 0.25,0.352 0.254,0.347 0.25,0.344 0.254,0.344 0.258,0.34 0.508,0.672 0.258,0.332 0.261,0.332 0.258,0.328 0.262,0.328 0.262,0.324 0.261,0.32 0.27,0.321 0.527,0.632 0.809,0.926 0.269,0.305 0.274,0.301 0.547,0.593 0.554,0.586 0.278,0.289 0.281,0.282 0.281,0.285 0.563,0.555 0.574,0.546 0.57,0.532 0.289,0.261 0.289,0.258 0.293,0.258 0.586,0.5 0.598,0.492 0.293,0.239 0.301,0.238 0.297,0.23 0.304,0.231 0.305,0.226 0.301,0.223 0.304,0.219 0.313,0.218 0.305,0.211 0.312,0.207 0.309,0.207 0.308,0.2 0.317,0.199 0.316,0.195 0.313,0.188 0.32,0.187 0.316,0.184 0.641,0.351 0.648,0.336 0.329,0.164 0.324,0.157 0.328,0.152 0.332,0.148 0.332,0.145 0.332,0.141 0.332,0.136 0.336,0.133 0.34,0.125 0.336,0.121 0.34,0.117 0.339,0.114 0.688,0.211 0.348,0.097 0.695,0.18 0.351,0.082 0.704,0.148 0.71,0.125 0.36,0.055 0.359,0.051 0.36,0.043 0.363,0.035 0.367,0.031 0.359,0.028 0.368,0.019 0.367,0.012 0.371,0.008 0.375,0 0.371,-0.008 0.379,-0.012 0.371,-0.019 0.379,-0.028 0.379,-0.031 0.383,-0.039 0.382,-0.051 0.383,-0.055 0.387,-0.062 0.387,-0.07 0.39,-0.078 0.391,-0.083 0.395,-0.093 0.394,-0.102 0.395,-0.109 0.398,-0.121 0.398,-0.125 0.403,-0.137 0.406,-0.141 0.402,-0.156 0.407,-0.16 0.406,-0.172 0.414,-0.18 0.414,-0.191 0.828,-0.414 0.41,-0.219 0.426,-0.234 0.418,-0.242 0.418,-0.25 0.426,-0.266 0.426,-0.277 0.425,-0.286 0.43,-0.3 0.434,-0.309 0.437,-0.324 0.43,-0.336 0.437,-0.352 0.438,-0.359 0.445,-0.375 0.438,-0.391 0.445,-0.402 0.445,-0.418 0.449,-0.434 0.45,-0.445 0.453,-0.465 0.453,-0.476 0.457,-0.496 0.457,-0.512 0.461,-0.527 0.461,-0.547 0.465,-0.563 0.465,-0.582 0.468,-0.601 0.473,-0.618 0.469,-0.64 0.472,-0.66 0.477,-0.68 0.477,-0.699 0.48,-0.723 0.48,-0.746 0.485,-0.77 0.488,-0.792 0.484,-0.817 0.493,-0.84 0.492,-0.867 0.492,-0.894 0.5,-0.922 0.5,-0.95 0.5,-0.98 0.5,-1.008 0.504,-1.039 0.508,-1.07 0.508,-1.106 0.511,-1.136 0.516,-1.176 0.516,-1.207 0.519,-1.25 0.52,-1.285 0.523,-1.325 0.523,-1.367 0.524,-1.414 0.535,-1.453 0.527,-1.504 0.536,-1.547 0.535,-1.601 0.539,-1.649 0.539,-1.707 0.543,-1.761 0.543,-1.821 0.547,-1.879 0.55,-1.941 0.559,-2.012 0.551,-2.078 0.554,-2.152 0.563,-2.227 0.559,-2.305 0.566,-2.39 0.562,-2.473 0.571,-2.566 0.574,-2.664 0.57,-2.762 0.192,-0.957" /><path
         id="path118"
         style="fill:none;stroke:#ff00ff;stroke-width:0.80000001;stroke-linecap:square;stroke-linejoin:bevel;stroke-miterlimit:4;stroke-dasharray:none;stroke-opacity:1"
         d="m 269.969,34.893 0.113,0.746 0.758,4.879 0.762,4.668 0.769,4.469 0.766,4.273 0.777,4.086 0.774,3.91 0.781,3.738 0.781,3.575 0.789,3.41 0.789,3.25 0.793,3.098 0.797,2.945 0.797,2.797 0.801,2.648 0.812,2.5 0.805,2.36 0.812,2.21 0.817,2.067 0.82,1.922 0.824,1.773 0.828,1.621 0.832,1.477 0.832,1.316 0.84,1.16 0.844,1 0.844,0.829 0.847,0.652 0.852,0.473 0.855,0.281 0.86,0.082 0.867,-0.137 0.863,-0.355 0.871,-0.606 0.875,-0.859 0.879,-1.149 0.887,-1.449 0.879,-1.785 0.891,-2.156 0.898,-2.567 0.891,-3.023 0.902,-3.535 0.91,-4.121 0.902,-4.782 0.915,-5.55 0.914,-6.442 0.921,-7.496 0.926,-8.75 0.93,-10.266 0.707,-9.187" /><path
         id="path120"
         style="fill:none;stroke:#ff00ff;stroke-width:0.80000001;stroke-linecap:square;stroke-linejoin:bevel;stroke-miterlimit:4;stroke-dasharray:none;stroke-opacity:1"
         d="m 323.066,34.893 0.809,23.125 0.988,24.434 0.992,21.355 1,18.816 1,16.668 1.008,14.809 1.012,13.176 1.012,11.73 1.019,10.438 1.024,9.269 1.031,8.227 1.035,7.285 1.031,6.441 1.043,5.688 1.043,5.016 1.055,4.414 1.051,3.89 1.058,3.418 1.063,3.004 1.074,2.645 1.066,2.328 1.079,2.047 1.082,1.8 1.086,1.59 1.089,1.399 1.102,1.238 1.098,1.094 1.109,0.968 1.105,0.856 1.114,0.762 1.121,0.675 1.121,0.602 1.129,0.539 1.133,0.477 1.14,0.425 1.145,0.383 1.148,0.34 1.153,0.305 1.156,0.273 1.164,0.246 1.168,0.223 1.172,0.195 1.179,0.18 1.188,0.16 1.184,0.145 1.191,0.129 1.203,0.117 1.199,0.105 1.207,0.094 1.219,0.082 1.215,0.074 1.223,0.07 1.23,0.059 1.234,0.055 1.239,0.047 1.246,0.043 1.25,0.035 1.258,0.035 1.257,0.027 1.266,0.024 1.273,0.019 1.278,0.02 1.285,0.011 1.289,0.012 1.293,0.008 1.297,0.008 1.305,0.004 3.945,0 1.328,-0.004 2.672,-0.016 1.344,-0.008 1.347,-0.011 2.723,-0.024 1.367,-0.011 2.75,-0.032 1.383,-0.019 1.391,-0.02 1.398,-0.015 1.398,-0.024 1.411,-0.019 1.414,-0.02 1.422,-0.023 1.425,-0.024 1.434,-0.023 1.437,-0.028 1.446,-0.023 1.453,-0.027 1.457,-0.024 1.461,-0.027 1.472,-0.027 1.481,-0.032 1.477,-0.027 1.488,-0.031 1.496,-0.028 1.5,-0.031 1.508,-0.031 1.515,-0.031 1.52,-0.032 1.531,-0.031 1.531,-0.035 1.539,-0.031 1.547,-0.035 1.555,-0.036 1.559,-0.031 1.566,-0.035 1.578,-0.035 1.574,-0.039 1.594,-0.035 1.59,-0.036 1.598,-0.039 1.609,-0.035 3.234,-0.078" /><path
         id="path122"
         style="fill:none;stroke:#00ff00;stroke-width:0.80000001;stroke-linecap:square;stroke-linejoin:bevel;stroke-miterlimit:4;stroke-dasharray:none;stroke-opacity:1"
         d="m 120.078,34.893 0.09,0.406 0.121,0.531 0.117,0.532 0.121,0.535 0.121,0.531 0.125,0.531 0.122,0.528 0.125,0.531 0.125,0.527 0.121,0.528 0.25,1.054 0.129,0.528 0.125,0.527 0.257,1.047 0.125,0.523 0.262,1.047 0.129,0.524 0.129,0.519 0.133,0.52 0.129,0.519 0.269,1.039 0.129,0.516 0.133,0.519 0.137,0.516 0.132,0.516 0.141,0.515 0.133,0.512 0.137,0.516 0.273,1.023 0.141,0.512 0.136,0.508 0.141,0.511 0.562,2.032 0.434,1.511 0.141,0.504 0.148,0.5 0.145,0.504 0.445,1.5 0.144,0.496 0.149,0.5 0.148,0.496 0.149,0.493 0.304,0.992 0.153,0.492 0.156,0.488 0.301,0.985 0.312,0.976 0.157,0.484 0.156,0.489 0.16,0.484 0.312,0.969 0.161,0.48 0.16,0.485 0.16,0.48 0.164,0.477 0.164,0.48 0.156,0.477 0.328,0.953 0.165,0.473 0.168,0.472 0.164,0.473 0.168,0.469 0.168,0.472 0.335,0.938 0.172,0.465 0.168,0.464 0.348,0.93 0.344,0.922 0.175,0.461 0.172,0.457 0.18,0.457 0.352,0.914 0.175,0.453 0.184,0.453 0.355,0.899 0.184,0.449 0.18,0.449 0.55,1.336 0.188,0.442 0.184,0.441 0.191,0.437 0.184,0.442 0.191,0.437 0.184,0.434 0.191,0.434 0.187,0.433 0.192,0.434 0.191,0.429 0.196,0.43 0.191,0.426 0.391,0.851 0.398,0.844 0.797,1.672 0.203,0.414 0.195,0.41 0.407,0.821 0.207,0.406 0.203,0.406 0.207,0.406 0.211,0.403 0.207,0.402 0.207,0.399 0.211,0.398 0.422,0.789 0.214,0.395 0.434,0.781 0.426,0.773 0.437,0.766 0.438,0.758 0.223,0.375 0.226,0.379 0.442,0.742 0.226,0.367 0.449,0.734 0.231,0.364 0.226,0.359 0.461,0.719 0.231,0.355 0.468,0.703 0.473,0.696 0.473,0.687 0.476,0.68 0.243,0.336 0.484,0.664 0.492,0.656 0.242,0.324 0.246,0.321 0.25,0.32 0.246,0.32 0.25,0.313 0.254,0.312 0.25,0.313 0.254,0.308 0.258,0.305 0.508,0.602 0.258,0.296 0.261,0.297 0.258,0.289 0.262,0.293 0.523,0.571 0.27,0.281 0.527,0.555 0.27,0.273 0.539,0.539 0.269,0.262 0.274,0.262 0.547,0.515 0.832,0.75 0.281,0.242 0.562,0.477 0.282,0.234 0.285,0.231 0.289,0.226 0.57,0.446 0.578,0.429 0.293,0.211 0.293,0.207 0.293,0.203 0.301,0.2 0.297,0.195 0.293,0.191 0.301,0.188 0.297,0.187 0.304,0.18 0.305,0.176 0.301,0.176 0.304,0.168 0.313,0.164 0.617,0.32 0.309,0.148 0.308,0.153 0.633,0.281 0.313,0.137 0.32,0.133 0.316,0.125 0.321,0.121 0.32,0.117 0.328,0.113 0.32,0.109 0.329,0.102 0.324,0.102 0.328,0.093 0.664,0.172 0.332,0.078 0.332,0.071 0.336,0.07 0.34,0.062 0.336,0.055 0.34,0.055 0.339,0.043 0.348,0.043 0.34,0.035 0.348,0.027 0.351,0.024 0.344,0.015 0.351,0.012 0.352,0.004 0.352,0 0.359,-0.008 0.351,-0.015 0.36,-0.02 0.359,-0.027 0.36,-0.036 0.363,-0.042 0.367,-0.047 0.359,-0.059 0.368,-0.062 0.367,-0.071 0.371,-0.078 0.375,-0.086 0.371,-0.09 0.379,-0.101 0.371,-0.11 0.379,-0.117 0.379,-0.125 0.383,-0.137 0.382,-0.14 0.383,-0.152 0.387,-0.161 0.387,-0.172 0.39,-0.175 0.391,-0.188 0.395,-0.199 0.394,-0.207 0.395,-0.219 0.398,-0.226 0.398,-0.239 0.403,-0.25 0.406,-0.261 0.402,-0.27 0.407,-0.281 0.406,-0.293 0.414,-0.305 0.414,-0.32 0.406,-0.328 0.422,-0.344 0.41,-0.355 0.426,-0.368 0.418,-0.379 0.418,-0.398 0.426,-0.406 0.426,-0.426 0.425,-0.438 0.43,-0.453 0.434,-0.468 0.437,-0.481 0.43,-0.5 0.437,-0.519 0.438,-0.532 0.445,-0.55 0.438,-0.567 0.445,-0.586 0.445,-0.605 0.449,-0.625 0.45,-0.645 0.453,-0.664 0.453,-0.683 0.457,-0.704 0.457,-0.726 0.461,-0.75 0.461,-0.774 0.465,-0.796 0.465,-0.821 0.468,-0.843 0.473,-0.872 0.469,-0.898 0.472,-0.926 0.477,-0.949 0.477,-0.984 0.48,-1.012 0.48,-1.039 0.485,-1.078 0.488,-1.106 0.484,-1.14 0.493,-1.176 0.492,-1.211 0.492,-1.25 0.5,-1.289 0.5,-1.328 0.5,-1.367 0.5,-1.415 0.504,-1.457 0.508,-1.5 0.508,-1.55 0.511,-1.602 0.516,-1.652 0.516,-1.707 0.519,-1.762 0.52,-1.82 0.523,-1.879 0.523,-1.946 0.524,-2.007 0.535,-2.078 0.527,-2.153 0.536,-2.226 0.535,-2.305 0.539,-2.387 0.539,-2.472 0.543,-2.567 0.543,-2.66 0.547,-2.762 0.55,-2.867 0.559,-2.98 0.551,-3.098 0.367,-2.125" /><path
         id="path124"
         style="fill:none;stroke:#00ff00;stroke-width:0.80000001;stroke-linecap:square;stroke-linejoin:bevel;stroke-miterlimit:4;stroke-dasharray:none;stroke-opacity:1"
         d="m 260.711,34.893 0.5,3.703 0.723,5.102 0.722,4.875 0.731,4.664 0.734,4.465 0.731,4.269 0.738,4.086 0.742,3.91 0.746,3.738 0.742,3.571 0.75,3.414 0.758,3.254 0.754,3.105 0.758,2.953 0.762,2.805 0.769,2.664 0.766,2.52 0.777,2.375 0.774,2.238 0.781,2.098 0.781,1.953 0.789,1.812 0.789,1.672 0.793,1.523 0.797,1.379 0.797,1.227 0.801,1.074 0.812,0.914 0.805,0.75 0.812,0.582 0.817,0.403 0.82,0.214 0.824,0.016 0.828,-0.187 0.832,-0.414 0.832,-0.649 0.84,-0.906 0.844,-1.184 0.844,-1.484 0.847,-1.817 0.852,-2.179 0.855,-2.582 0.86,-3.039 0.867,-3.547 0.863,-4.121 0.871,-4.789 0.875,-5.547 0.879,-6.438 0.887,-7.488 0.879,-8.746 0.891,-10.266 0.898,-12.136 0.355,-5.809" /><path
         id="path126"
         style="fill:none;stroke:#00ff00;stroke-width:0.80000001;stroke-linecap:square;stroke-linejoin:bevel;stroke-miterlimit:4;stroke-dasharray:none;stroke-opacity:1"
         d="m 313.207,34.893 0.059,2.23 0.945,28.301 0.945,24.367 0.953,21.219 0.957,18.621 0.961,16.426 0.969,14.531 0.965,12.871 0.969,11.403 0.976,10.09 0.985,8.925 0.984,7.875 0.988,6.946 0.992,6.109 1,5.371 1,4.715 1.008,4.137 1.012,3.625 1.012,3.179 1.019,2.786 1.024,2.445 1.031,2.144 1.035,1.879 1.031,1.657 1.043,1.453 1.043,1.281 1.055,1.129 1.051,0.996 1.058,0.879 1.063,0.781 1.074,0.691 1.066,0.61 1.079,0.547 1.082,0.484 1.086,0.43 1.089,0.383 1.102,0.343 1.098,0.309 1.109,0.273 1.105,0.246 1.114,0.219 1.121,0.196 1.121,0.175 1.129,0.16 1.133,0.141 1.14,0.129 1.145,0.113 1.148,0.102 1.153,0.09 1.156,0.082 1.164,0.074 1.168,0.062 1.172,0.059 1.179,0.051 1.188,0.047 1.184,0.039 1.191,0.035 1.203,0.027 1.199,0.028 1.207,0.023 1.219,0.016 1.215,0.015 1.223,0.012 1.23,0.012 1.234,0.004 1.239,0.004 1.246,0.003 1.25,0 2.515,-0.007 1.266,-0.008 1.273,-0.008 1.278,-0.008 1.285,-0.012 1.289,-0.011 1.293,-0.012 1.297,-0.016 1.305,-0.015 2.625,-0.031 1.32,-0.02 1.328,-0.02 1.336,-0.019 1.336,-0.024 1.344,-0.019 1.347,-0.023 2.723,-0.047 1.367,-0.028 1.375,-0.023 1.375,-0.027 1.383,-0.024 1.391,-0.027 1.398,-0.032 1.398,-0.027 1.411,-0.027 1.414,-0.031 1.422,-0.028 1.425,-0.031 1.434,-0.031 1.437,-0.032 1.446,-0.031 1.453,-0.031 1.457,-0.031 1.461,-0.032 1.472,-0.035 1.481,-0.031 1.477,-0.035 1.488,-0.031 1.496,-0.036 1.5,-0.035 1.508,-0.035 1.515,-0.035 1.52,-0.035 3.062,-0.07 1.539,-0.04 1.547,-0.035 1.555,-0.035 1.559,-0.039 1.566,-0.039 1.578,-0.035 1.574,-0.039 1.594,-0.039 1.59,-0.039 1.598,-0.039 1.609,-0.039 3.234,-0.079" /><path
         id="path128"
         style="fill:none;stroke:#00ffff;stroke-width:0.80000001;stroke-linecap:square;stroke-linejoin:bevel;stroke-miterlimit:4;stroke-dasharray:none;stroke-opacity:1"
         d="m 273.738,34.893 0.176,0.598 0.774,2.519 0.781,2.391 0.781,2.254 0.789,2.125 0.789,1.988 0.793,1.855 0.797,1.719 0.797,1.578 0.801,1.434 0.812,1.293 0.805,1.14 0.812,0.985 0.817,0.824 0.82,0.66 0.824,0.489 0.828,0.308 0.832,0.117 0.832,-0.082 0.84,-0.297 0.844,-0.519 0.844,-0.758 0.847,-1.016 0.852,-1.296 0.855,-1.594 0.86,-1.922 0.867,-2.281 0.863,-2.672 0.871,-3.11 0.875,-3.593 0.879,-4.141 0.184,-0.996" /><path
         id="path130"
         style="fill:none;stroke:#00ffff;stroke-width:0.80000001;stroke-linecap:square;stroke-linejoin:bevel;stroke-miterlimit:4;stroke-dasharray:none;stroke-opacity:1"
         d="m 319.473,34.893 0.488,11.168 0.969,19.851 0.976,17.922 0.985,16.289 0.984,14.872 0.988,13.625 0.992,12.503 1,11.489 1,10.554 1.008,9.696 1.012,8.898 1.012,8.156 1.019,7.469 1.024,6.82 1.031,6.223 1.035,5.664 1.031,5.149 1.043,4.675 1.043,4.235 1.055,3.828 1.051,3.465 1.058,3.125 1.063,2.82 1.074,2.543 1.066,2.289 1.079,2.063 1.082,1.859 1.086,1.672 1.089,1.504 1.102,1.355 1.098,1.223 1.109,1.098 1.105,0.992 1.114,0.894 1.121,0.805 1.121,0.73 1.129,0.657 1.133,0.593 1.14,0.536 1.145,0.488 1.148,0.437 1.153,0.399 1.156,0.359 1.164,0.324 1.168,0.297 1.172,0.27 1.179,0.242 1.188,0.223 1.184,0.199 1.191,0.18 1.203,0.167 1.199,0.149 1.207,0.137 1.219,0.121 1.215,0.109 1.223,0.102 1.23,0.09 1.234,0.082 1.239,0.074 1.246,0.066 1.25,0.063 1.258,0.05 1.257,0.047 1.266,0.043 1.273,0.039 1.278,0.032 1.285,0.027 1.289,0.027 1.293,0.02 1.297,0.019 1.305,0.012 1.312,0.012 1.313,0.008 1.32,0.007 1.328,0.004 2.672,0 1.344,-0.004 1.347,-0.003 1.36,-0.004 1.363,-0.008 1.367,-0.012 1.375,-0.008 1.375,-0.015 1.383,-0.012 1.391,-0.016 1.398,-0.015 1.398,-0.02 1.411,-0.015 1.414,-0.02 1.422,-0.02 1.425,-0.023 1.434,-0.023 1.437,-0.024 1.446,-0.023 1.453,-0.024 1.457,-0.027 1.461,-0.027 1.472,-0.028 1.481,-0.027 1.477,-0.031 1.488,-0.028 1.496,-0.031 1.5,-0.031 1.508,-0.031 1.515,-0.032 1.52,-0.035 1.531,-0.035 1.531,-0.031 1.539,-0.035 1.547,-0.039 1.555,-0.036 1.559,-0.035 1.566,-0.039 1.578,-0.039 1.574,-0.039 1.594,-0.039 1.59,-0.039 1.598,-0.043 1.609,-0.043 1.617,-0.039 1.617,-0.043" /><path
         id="path132"
         style="fill:#000000;fill-opacity:1;fill-rule:nonzero;stroke:none"
         d="m 93.629,23.76 c 0,2.36 -0.75,3.531 -2.219,3.531 -1.469,0 -2.234,-1.187 -2.234,-3.468 0,-2.297 0.781,-3.469 2.234,-3.469 1.438,0 2.219,1.172 2.219,3.406 z m -0.859,0.078 c 0,-1.922 -0.438,-2.781 -1.375,-2.781 -0.891,0 -1.344,0.891 -1.344,2.75 0,1.875 0.453,2.734 1.359,2.734 0.906,0 1.36,-0.875 1.36,-2.703 z" /><path
         id="path134"
         style="fill:#000000;fill-opacity:1;fill-rule:nonzero;stroke:none"
         d="m 150.496,22.745 c 0,1.343 -0.891,2.234 -2.203,2.234 -0.469,0 -0.859,-0.125 -1.25,-0.422 l 0.266,1.766 2.828,0 0,0.828 -3.5,0 -0.516,-3.563 0.781,0 c 0.391,0.469 0.719,0.641 1.25,0.641 0.907,0 1.485,-0.594 1.485,-1.594 0,-0.984 -0.578,-1.531 -1.485,-1.531 -0.75,0 -1.203,0.375 -1.39,1.141 l -0.86,0 c 0.282,-1.36 1.047,-1.891 2.266,-1.891 1.375,0 2.328,0.953 2.328,2.391 z" /><path
         id="path136"
         style="fill:#000000;fill-opacity:1;fill-rule:nonzero;stroke:none"
         d="m 155.832,22.776 c 0,0.734 -0.062,1.187 -0.203,1.562 -0.328,0.828 -1.094,1.328 -2.031,1.328 -1.407,0 -2.297,-1.031 -2.297,-2.687 0,-1.656 0.859,-2.625 2.281,-2.625 1.141,0 1.938,0.656 2.141,1.672 l -0.797,0 c -0.219,-0.672 -0.672,-0.938 -1.313,-0.938 -0.843,0 -1.468,0.532 -1.484,1.688 l 3.703,0 z m -0.859,0.719 c 0,0 0,-0.047 0,-0.063 l -2.828,0 c 0.078,0.891 0.64,1.5 1.437,1.5 0.797,0 1.391,-0.656 1.391,-1.437 z" /><path
         id="path138"
         style="fill:#000000;fill-opacity:1;fill-rule:nonzero;stroke:none"
         d="m 161.172,22.416 c 0,0.75 -0.391,1.282 -1.172,1.657 0.703,0.422 0.938,0.765 0.938,1.406 0,1.062 -0.844,1.812 -2.047,1.812 -1.203,0 -2.047,-0.75 -2.047,-1.812 0,-0.625 0.234,-0.969 0.922,-1.406 -0.782,-0.375 -1.157,-0.907 -1.157,-1.657 0,-1.234 0.938,-2.062 2.282,-2.062 1.343,0 2.281,0.828 2.281,2.062 z m -1.11,3.047 c 0,-0.625 -0.468,-1.047 -1.171,-1.047 -0.719,0 -1.188,0.422 -1.188,1.063 0,0.641 0.469,1.062 1.188,1.062 0.718,0 1.171,-0.421 1.171,-1.078 z m 0.25,-3.062 c 0,-0.797 -0.578,-1.297 -1.437,-1.297 -0.828,0 -1.406,0.5 -1.406,1.297 0,0.797 0.578,1.297 1.422,1.297 0.843,0 1.421,-0.5 1.421,-1.297 z" /><path
         id="path140"
         style="fill:#000000;fill-opacity:1;fill-rule:nonzero;stroke:none"
         d="m 212.098,20.495 0,6.796 -0.563,0 c -0.297,-1.046 -0.484,-1.187 -1.781,-1.343 l 0,-0.61 1.5,0 0,-4.843 0.844,0 z" /><path
         id="path142"
         style="fill:#000000;fill-opacity:1;fill-rule:nonzero;stroke:none"
         d="m 219.031,22.776 c 0,0.734 -0.062,1.187 -0.203,1.562 -0.328,0.828 -1.094,1.328 -2.031,1.328 -1.406,0 -2.297,-1.031 -2.297,-2.687 0,-1.656 0.859,-2.625 2.281,-2.625 1.141,0 1.938,0.656 2.141,1.672 l -0.797,0 c -0.219,-0.672 -0.672,-0.938 -1.313,-0.938 -0.843,0 -1.468,0.532 -1.484,1.688 l 3.703,0 z m -0.859,0.719 c 0,0 0,-0.047 0,-0.063 l -2.828,0 c 0.078,0.891 0.64,1.5 1.437,1.5 0.797,0 1.391,-0.656 1.391,-1.437 z" /><path
         id="path144"
         style="fill:#000000;fill-opacity:1;fill-rule:nonzero;stroke:none"
         d="m 224.336,24.057 c 0,2.125 -0.75,3.234 -2.297,3.234 -1.297,0 -2.234,-0.921 -2.234,-2.25 0,-1.265 0.875,-2.125 2.093,-2.125 0.641,0 1.11,0.235 1.563,0.766 -0.016,-1.656 -0.547,-2.578 -1.516,-2.578 -0.593,0 -1.015,0.375 -1.14,1.016 l -0.844,0 c 0.156,-1.11 0.891,-1.766 1.922,-1.766 1.594,0 2.453,1.344 2.453,3.703 z m -0.922,1 c 0,-0.828 -0.594,-1.391 -1.422,-1.391 -0.812,0 -1.312,0.532 -1.312,1.438 0,0.875 0.562,1.453 1.343,1.453 0.797,0 1.391,-0.609 1.391,-1.5 z" /><path
         id="path146"
         style="fill:#000000;fill-opacity:1;fill-rule:nonzero;stroke:none"
         d="m 270.496,20.495 0,6.796 -0.562,0 c -0.297,-1.046 -0.485,-1.187 -1.782,-1.343 l 0,-0.61 1.5,0 0,-4.843 0.844,0 z" /><path
         id="path148"
         style="fill:#000000;fill-opacity:1;fill-rule:nonzero;stroke:none"
         d="m 273.332,21.495 1,0 0,-1 -1,0 0,1 z" /><path
         id="path150"
         style="fill:#000000;fill-opacity:1;fill-rule:nonzero;stroke:none"
         d="m 280.098,22.745 c 0,1.343 -0.891,2.234 -2.203,2.234 -0.469,0 -0.86,-0.125 -1.25,-0.422 l 0.265,1.766 2.828,0 0,0.828 -3.5,0 -0.515,-3.563 0.781,0 c 0.391,0.469 0.719,0.641 1.25,0.641 0.906,0 1.484,-0.594 1.484,-1.594 0,-0.984 -0.578,-1.531 -1.484,-1.531 -0.75,0 -1.203,0.375 -1.391,1.141 l -0.859,0 c 0.281,-1.36 1.047,-1.891 2.266,-1.891 1.375,0 2.328,0.953 2.328,2.391 z" /><path
         id="path152"
         style="fill:#000000;fill-opacity:1;fill-rule:nonzero;stroke:none"
         d="m 285.434,22.776 c 0,0.734 -0.063,1.187 -0.204,1.562 -0.328,0.828 -1.093,1.328 -2.031,1.328 -1.406,0 -2.297,-1.031 -2.297,-2.687 0,-1.656 0.86,-2.625 2.282,-2.625 1.14,0 1.937,0.656 2.14,1.672 l -0.797,0 c -0.218,-0.672 -0.672,-0.938 -1.312,-0.938 -0.844,0 -1.469,0.532 -1.485,1.688 l 3.704,0 z m -0.86,0.719 c 0,0 0,-0.047 0,-0.063 l -2.828,0 c 0.078,0.891 0.641,1.5 1.438,1.5 0.796,0 1.39,-0.656 1.39,-1.437 z" /><path
         id="path154"
         style="fill:#000000;fill-opacity:1;fill-rule:nonzero;stroke:none"
         d="m 290.738,24.057 c 0,2.125 -0.75,3.234 -2.297,3.234 -1.296,0 -2.234,-0.921 -2.234,-2.25 0,-1.265 0.875,-2.125 2.094,-2.125 0.64,0 1.109,0.235 1.562,0.766 -0.015,-1.656 -0.547,-2.578 -1.515,-2.578 -0.594,0 -1.016,0.375 -1.141,1.016 l -0.844,0 c 0.157,-1.11 0.891,-1.766 1.922,-1.766 1.594,0 2.453,1.344 2.453,3.703 z m -0.922,1 c 0,-0.828 -0.593,-1.391 -1.421,-1.391 -0.813,0 -1.313,0.532 -1.313,1.438 0,0.875 0.563,1.453 1.344,1.453 0.797,0 1.39,-0.609 1.39,-1.5 z" /><path
         id="path156"
         style="fill:#000000;fill-opacity:1;fill-rule:nonzero;stroke:none"
         d="m 340.879,25.307 c 0,1.141 -0.891,1.984 -2.188,1.984 -1.39,0 -2.187,-0.703 -2.234,-2.359 l 0.844,0 c 0.062,1.141 0.531,1.625 1.375,1.625 0.765,0 1.328,-0.547 1.328,-1.281 0,-0.531 -0.313,-0.985 -0.906,-1.344 l -0.891,-0.5 c -1.422,-0.797 -1.828,-1.437 -1.906,-2.937 l 4.531,0 0,0.828 -3.578,0 c 0.078,0.562 0.391,0.922 1.219,1.406 l 0.968,0.516 c 0.938,0.515 1.438,1.218 1.438,2.062 z" /><path
         id="path158"
         style="fill:#000000;fill-opacity:1;fill-rule:nonzero;stroke:none"
         d="m 346.23,22.776 c 0,0.734 -0.062,1.187 -0.203,1.562 -0.328,0.828 -1.093,1.328 -2.031,1.328 -1.406,0 -2.297,-1.031 -2.297,-2.687 0,-1.656 0.86,-2.625 2.281,-2.625 1.141,0 1.938,0.656 2.141,1.672 l -0.797,0 c -0.219,-0.672 -0.672,-0.938 -1.312,-0.938 -0.844,0 -1.469,0.532 -1.485,1.688 l 3.703,0 z m -0.859,0.719 c 0,0 0,-0.047 0,-0.063 l -2.828,0 c 0.078,0.891 0.641,1.5 1.437,1.5 0.797,0 1.391,-0.656 1.391,-1.437 z" /><path
         id="path160"
         style="fill:#000000;fill-opacity:1;fill-rule:nonzero;stroke:none"
         d="m 351.535,24.057 c 0,2.125 -0.75,3.234 -2.297,3.234 -1.297,0 -2.234,-0.921 -2.234,-2.25 0,-1.265 0.875,-2.125 2.094,-2.125 0.64,0 1.109,0.235 1.562,0.766 -0.015,-1.656 -0.547,-2.578 -1.515,-2.578 -0.594,0 -1.016,0.375 -1.141,1.016 l -0.844,0 c 0.156,-1.11 0.891,-1.766 1.922,-1.766 1.594,0 2.453,1.344 2.453,3.703 z m -0.922,1 c 0,-0.828 -0.593,-1.391 -1.422,-1.391 -0.812,0 -1.312,0.532 -1.312,1.438 0,0.875 0.562,1.453 1.344,1.453 0.797,0 1.39,-0.609 1.39,-1.5 z" /><path
         id="path162"
         style="fill:#000000;fill-opacity:1;fill-rule:nonzero;stroke:none"
         d="m 399.277,25.307 c 0,1.141 -0.89,1.984 -2.187,1.984 -1.391,0 -2.188,-0.703 -2.235,-2.359 l 0.844,0 c 0.063,1.141 0.531,1.625 1.375,1.625 0.766,0 1.328,-0.547 1.328,-1.281 0,-0.531 -0.312,-0.985 -0.906,-1.344 l -0.891,-0.5 c -1.421,-0.797 -1.828,-1.437 -1.906,-2.937 l 4.531,0 0,0.828 -3.578,0 c 0.078,0.562 0.391,0.922 1.219,1.406 l 0.969,0.516 c 0.937,0.515 1.437,1.218 1.437,2.062 z" /><path
         id="path164"
         style="fill:#000000;fill-opacity:1;fill-rule:nonzero;stroke:none"
         d="m 400.535,21.495 1,0 0,-1 -1,0 0,1 z" /><path
         id="path166"
         style="fill:#000000;fill-opacity:1;fill-rule:nonzero;stroke:none"
         d="m 407.301,22.745 c 0,1.343 -0.891,2.234 -2.203,2.234 -0.469,0 -0.86,-0.125 -1.25,-0.422 l 0.265,1.766 2.828,0 0,0.828 -3.5,0 -0.515,-3.563 0.781,0 c 0.391,0.469 0.719,0.641 1.25,0.641 0.906,0 1.484,-0.594 1.484,-1.594 0,-0.984 -0.578,-1.531 -1.484,-1.531 -0.75,0 -1.203,0.375 -1.391,1.141 l -0.859,0 c 0.281,-1.36 1.047,-1.891 2.266,-1.891 1.375,0 2.328,0.953 2.328,2.391 z" /><path
         id="path168"
         style="fill:#000000;fill-opacity:1;fill-rule:nonzero;stroke:none"
         d="m 412.637,22.776 c 0,0.734 -0.063,1.187 -0.203,1.562 -0.329,0.828 -1.094,1.328 -2.032,1.328 -1.406,0 -2.297,-1.031 -2.297,-2.687 0,-1.656 0.86,-2.625 2.282,-2.625 1.14,0 1.937,0.656 2.14,1.672 l -0.797,0 c -0.218,-0.672 -0.671,-0.938 -1.312,-0.938 -0.844,0 -1.469,0.532 -1.484,1.688 l 3.703,0 z m -0.86,0.719 c 0,0 0,-0.047 0,-0.063 l -2.828,0 c 0.078,0.891 0.641,1.5 1.438,1.5 0.797,0 1.39,-0.656 1.39,-1.437 z" /><path
         id="path170"
         style="fill:#000000;fill-opacity:1;fill-rule:nonzero;stroke:none"
         d="m 417.945,24.057 c 0,2.125 -0.75,3.234 -2.297,3.234 -1.296,0 -2.234,-0.921 -2.234,-2.25 0,-1.265 0.875,-2.125 2.094,-2.125 0.64,0 1.109,0.235 1.562,0.766 -0.015,-1.656 -0.547,-2.578 -1.515,-2.578 -0.594,0 -1.016,0.375 -1.141,1.016 l -0.844,0 c 0.157,-1.11 0.891,-1.766 1.922,-1.766 1.594,0 2.453,1.344 2.453,3.703 z m -0.922,1 c 0,-0.828 -0.593,-1.391 -1.421,-1.391 -0.813,0 -1.313,0.532 -1.313,1.438 0,0.875 0.563,1.453 1.344,1.453 0.797,0 1.39,-0.609 1.39,-1.5 z" /><path
         id="path172"
         style="fill:#000000;fill-opacity:1;fill-rule:nonzero;stroke:none"
         d="m 468.035,22.463 c 0,0.828 -0.344,1.313 -1.156,1.594 0.641,0.25 0.953,0.688 0.953,1.375 0,1.172 -0.781,1.859 -2.078,1.859 -1.375,0 -2.094,-0.75 -2.125,-2.187 l 0.844,0 c 0.015,1 0.437,1.453 1.297,1.453 0.75,0 1.203,-0.437 1.203,-1.156 0,-0.735 -0.328,-1.031 -1.672,-1.031 l 0,-0.704 0.453,0 c 0.937,0 1.406,-0.453 1.406,-1.203 0,-0.859 -0.515,-1.359 -1.406,-1.359 -0.922,0 -1.375,0.453 -1.422,1.437 l -0.844,0 c 0.094,-1.515 0.844,-2.187 2.235,-2.187 1.406,0 2.312,0.828 2.312,2.109 z" /><path
         id="path174"
         style="fill:#000000;fill-opacity:1;fill-rule:nonzero;stroke:none"
         d="m 473.434,22.776 c 0,0.734 -0.063,1.187 -0.204,1.562 -0.328,0.828 -1.093,1.328 -2.031,1.328 -1.406,0 -2.297,-1.031 -2.297,-2.687 0,-1.656 0.86,-2.625 2.282,-2.625 1.14,0 1.937,0.656 2.14,1.672 l -0.797,0 c -0.218,-0.672 -0.672,-0.938 -1.312,-0.938 -0.844,0 -1.469,0.532 -1.485,1.688 l 3.704,0 z m -0.86,0.719 c 0,0 0,-0.047 0,-0.063 l -2.828,0 c 0.078,0.891 0.641,1.5 1.438,1.5 0.796,0 1.39,-0.656 1.39,-1.437 z" /><path
         id="path176"
         style="fill:#000000;fill-opacity:1;fill-rule:nonzero;stroke:none"
         d="m 478.738,24.057 c 0,2.125 -0.75,3.234 -2.297,3.234 -1.296,0 -2.234,-0.921 -2.234,-2.25 0,-1.265 0.875,-2.125 2.094,-2.125 0.64,0 1.109,0.235 1.562,0.766 -0.015,-1.656 -0.547,-2.578 -1.515,-2.578 -0.594,0 -1.016,0.375 -1.141,1.016 l -0.844,0 c 0.157,-1.11 0.891,-1.766 1.922,-1.766 1.594,0 2.453,1.344 2.453,3.703 z m -0.922,1 c 0,-0.828 -0.593,-1.391 -1.421,-1.391 -0.813,0 -1.313,0.532 -1.313,1.438 0,0.875 0.563,1.453 1.344,1.453 0.797,0 1.39,-0.609 1.39,-1.5 z" /><path
         id="path178"
         style="fill:#000000;fill-opacity:1;fill-rule:nonzero;stroke:none"
         d="m 68.41,33.092 2.281,0 0,-0.703 -2.281,0 0,0.703 z" /><path
         id="path180"
         style="fill:#000000;fill-opacity:1;fill-rule:nonzero;stroke:none"
         d="m 74.496,30.092 0,6.797 -0.562,0 c -0.297,-1.047 -0.485,-1.187 -1.782,-1.344 l 0,-0.609 1.5,0 0,-4.844 0.844,0 z" /><path
         id="path182"
         style="fill:#000000;fill-opacity:1;fill-rule:nonzero;stroke:none"
         d="m 81.426,32.342 c 0,1.344 -0.891,2.235 -2.203,2.235 -0.469,0 -0.86,-0.125 -1.25,-0.422 l 0.265,1.765 2.828,0 0,0.828 -3.5,0 -0.515,-3.562 0.781,0 c 0.391,0.469 0.719,0.641 1.25,0.641 0.906,0 1.484,-0.594 1.484,-1.594 0,-0.985 -0.578,-1.531 -1.484,-1.531 -0.75,0 -1.203,0.375 -1.391,1.14 l -0.859,0 c 0.281,-1.359 1.047,-1.89 2.266,-1.89 1.375,0 2.328,0.953 2.328,2.39 z" /><path
         id="path184"
         style="fill:#000000;fill-opacity:1;fill-rule:nonzero;stroke:none"
         d="m 68.41,49.893 2.281,0 0,-0.703 -2.281,0 0,0.703 z" /><path
         id="path186"
         style="fill:#000000;fill-opacity:1;fill-rule:nonzero;stroke:none"
         d="m 74.496,46.893 0,6.797 -0.562,0 c -0.297,-1.047 -0.485,-1.188 -1.782,-1.344 l 0,-0.609 1.5,0 0,-4.844 0.844,0 z" /><path
         id="path188"
         style="fill:#000000;fill-opacity:1;fill-rule:nonzero;stroke:none"
         d="m 81.488,48.518 0,0.766 -1,0 0,4.406 -0.625,0 -3.093,-4.281 0,-0.891 2.875,0 0,-1.625 0.843,0 0,1.625 1,0 z m -1.843,0.766 -2.141,0 2.141,2.968 0,-2.968 z" /><path
         id="path190"
         style="fill:#000000;fill-opacity:1;fill-rule:nonzero;stroke:none"
         d="m 68.41,65.893 2.281,0 0,-0.703 -2.281,0 0,0.703 z" /><path
         id="path192"
         style="fill:#000000;fill-opacity:1;fill-rule:nonzero;stroke:none"
         d="m 74.496,62.893 0,6.797 -0.562,0 c -0.297,-1.047 -0.485,-1.188 -1.782,-1.344 l 0,-0.609 1.5,0 0,-4.844 0.844,0 z" /><path
         id="path194"
         style="fill:#000000;fill-opacity:1;fill-rule:nonzero;stroke:none"
         d="m 81.363,64.862 c 0,0.828 -0.343,1.312 -1.156,1.593 0.641,0.25 0.953,0.688 0.953,1.375 0,1.172 -0.781,1.86 -2.078,1.86 -1.375,0 -2.094,-0.75 -2.125,-2.188 l 0.844,0 c 0.015,1 0.437,1.453 1.297,1.453 0.75,0 1.203,-0.437 1.203,-1.156 0,-0.734 -0.328,-1.031 -1.672,-1.031 l 0,-0.703 0.453,0 c 0.938,0 1.406,-0.453 1.406,-1.203 0,-0.86 -0.515,-1.36 -1.406,-1.36 -0.922,0 -1.375,0.453 -1.422,1.438 l -0.844,0 c 0.094,-1.516 0.844,-2.188 2.235,-2.188 1.406,0 2.312,0.828 2.312,2.11 z" /><path
         id="path196"
         style="fill:#000000;fill-opacity:1;fill-rule:nonzero;stroke:none"
         d="m 68.41,82.694 2.281,0 0,-0.703 -2.281,0 0,0.703 z" /><path
         id="path198"
         style="fill:#000000;fill-opacity:1;fill-rule:nonzero;stroke:none"
         d="m 74.496,79.694 0,6.797 -0.562,0 c -0.297,-1.047 -0.485,-1.188 -1.782,-1.344 l 0,-0.61 1.5,0 0,-4.843 0.844,0 z" /><path
         id="path200"
         style="fill:#000000;fill-opacity:1;fill-rule:nonzero;stroke:none"
         d="m 81.41,84.506 c 0,1.141 -0.89,1.985 -2.187,1.985 -1.391,0 -2.188,-0.704 -2.235,-2.36 l 0.844,0 c 0.063,1.141 0.531,1.625 1.375,1.625 0.766,0 1.328,-0.547 1.328,-1.281 0,-0.531 -0.312,-0.984 -0.906,-1.344 l -0.891,-0.5 C 77.316,81.834 76.91,81.194 76.832,79.694 l 4.531,0 0,0.828 -3.578,0 c 0.078,0.562 0.391,0.922 1.219,1.406 l 0.969,0.516 c 0.937,0.515 1.437,1.218 1.437,2.062 z" /><path
         id="path202"
         style="fill:#000000;fill-opacity:1;fill-rule:nonzero;stroke:none"
         d="m 68.41,98.694 2.281,0 0,-0.703 -2.281,0 0,0.703 z" /><path
         id="path204"
         style="fill:#000000;fill-opacity:1;fill-rule:nonzero;stroke:none"
         d="m 74.496,95.694 0,6.797 -0.562,0 c -0.297,-1.047 -0.485,-1.188 -1.782,-1.344 l 0,-0.61 1.5,0 0,-4.843 0.844,0 z" /><path
         id="path206"
         style="fill:#000000;fill-opacity:1;fill-rule:nonzero;stroke:none"
         d="m 79.832,95.694 0,6.797 -0.562,0 c -0.297,-1.047 -0.485,-1.188 -1.782,-1.344 l 0,-0.61 1.5,0 0,-4.843 0.844,0 z" /><path
         id="path208"
         style="fill:#000000;fill-opacity:1;fill-rule:nonzero;stroke:none"
         d="m 68.41,115.495 2.281,0 0,-0.703 -2.281,0 0,0.703 z" /><path
         id="path210"
         style="fill:#000000;fill-opacity:1;fill-rule:nonzero;stroke:none"
         d="m 74.496,112.495 0,6.796 -0.562,0 c -0.297,-1.046 -0.485,-1.187 -1.782,-1.343 l 0,-0.61 1.5,0 0,-4.843 0.844,0 z" /><path
         id="path212"
         style="fill:#000000;fill-opacity:1;fill-rule:nonzero;stroke:none"
         d="m 81.363,115.76 c 0,2.36 -0.75,3.531 -2.218,3.531 -1.469,0 -2.235,-1.187 -2.235,-3.468 0,-2.297 0.781,-3.469 2.235,-3.469 1.437,0 2.218,1.172 2.218,3.406 z m -0.859,0.078 c 0,-1.922 -0.438,-2.781 -1.375,-2.781 -0.891,0 -1.344,0.891 -1.344,2.75 0,1.875 0.453,2.734 1.36,2.734 0.906,0 1.359,-0.875 1.359,-2.703 z" /><path
         id="path214"
         style="fill:#000000;fill-opacity:1;fill-rule:nonzero;stroke:none"
         d="m 75.609,131.495 2.281,0 0,-0.703 -2.281,0 0,0.703 z" /><path
         id="path216"
         style="fill:#000000;fill-opacity:1;fill-rule:nonzero;stroke:none"
         d="m 83.258,132.057 c 0,2.125 -0.75,3.234 -2.297,3.234 -1.297,0 -2.234,-0.921 -2.234,-2.25 0,-1.265 0.875,-2.125 2.093,-2.125 0.641,0 1.11,0.235 1.563,0.766 -0.016,-1.656 -0.547,-2.578 -1.516,-2.578 -0.594,0 -1.015,0.375 -1.14,1.016 l -0.844,0 c 0.156,-1.11 0.89,-1.766 1.922,-1.766 1.593,0 2.453,1.344 2.453,3.703 z m -0.922,1 c 0,-0.828 -0.594,-1.391 -1.422,-1.391 -0.812,0 -1.312,0.532 -1.312,1.438 0,0.875 0.562,1.453 1.343,1.453 0.797,0 1.391,-0.609 1.391,-1.5 z" /><path
         id="path218"
         style="fill:#000000;fill-opacity:1;fill-rule:nonzero;stroke:none"
         d="m 75.609,148.291 2.281,0 0,-0.703 -2.281,0 0,0.703 z" /><path
         id="path220"
         style="fill:#000000;fill-opacity:1;fill-rule:nonzero;stroke:none"
         d="m 83.289,147.213 c 0,0.75 -0.391,1.282 -1.172,1.657 0.703,0.421 0.938,0.765 0.938,1.406 0,1.062 -0.844,1.812 -2.047,1.812 -1.203,0 -2.047,-0.75 -2.047,-1.812 0,-0.625 0.234,-0.969 0.922,-1.406 -0.781,-0.375 -1.156,-0.907 -1.156,-1.657 0,-1.234 0.937,-2.062 2.281,-2.062 1.344,0 2.281,0.828 2.281,2.062 z m -1.109,3.047 c 0,-0.625 -0.469,-1.047 -1.172,-1.047 -0.719,0 -1.188,0.422 -1.188,1.063 0,0.64 0.469,1.062 1.188,1.062 0.719,0 1.172,-0.422 1.172,-1.078 z m 0.25,-3.062 c 0,-0.797 -0.578,-1.297 -1.438,-1.297 -0.828,0 -1.406,0.5 -1.406,1.297 0,0.797 0.578,1.297 1.422,1.297 0.844,0 1.422,-0.5 1.422,-1.297 z" /><path
         id="path222"
         style="fill:#000000;fill-opacity:1;fill-rule:nonzero;stroke:none"
         d="m 75.609,164.291 2.281,0 0,-0.703 -2.281,0 0,0.703 z" /><path
         id="path224"
         style="fill:#000000;fill-opacity:1;fill-rule:nonzero;stroke:none"
         d="m 83.352,167.245 0,0.703 -4.547,0 0,-0.828 3.672,0 c -1.344,-1.719 -2.313,-3.704 -2.782,-5.829 l 0.891,0 c 0.375,2.204 1.344,4.25 2.766,5.954 z" /><path
         id="path226"
         style="fill:#000000;fill-opacity:1;fill-rule:nonzero;stroke:none"
         d="m 75.609,181.092 2.281,0 0,-0.703 -2.281,0 0,0.703 z" /><path
         id="path228"
         style="fill:#000000;fill-opacity:1;fill-rule:nonzero;stroke:none"
         d="m 83.289,180.202 c 0,1.265 -0.859,2.125 -2.078,2.125 -0.672,0 -1.203,-0.266 -1.563,-0.766 0,1.656 0.547,2.578 1.516,2.578 0.594,0 1,-0.375 1.141,-1.016 l 0.843,0 c -0.171,1.11 -0.89,1.766 -1.937,1.766 -1.578,0 -2.438,-1.328 -2.438,-3.703 0,-2.109 0.735,-3.234 2.297,-3.234 1.282,0 2.219,0.921 2.219,2.25 z m -0.859,-0.063 c 0,-0.859 -0.578,-1.437 -1.36,-1.437 -0.781,0 -1.375,0.609 -1.375,1.484 0,0.844 0.578,1.391 1.407,1.391 0.812,0 1.328,-0.532 1.328,-1.438 z" /><path
         id="path230"
         style="fill:#000000;fill-opacity:1;fill-rule:nonzero;stroke:none"
         d="m 75.609,197.092 2.281,0 0,-0.703 -2.281,0 0,0.703 z" /><path
         id="path232"
         style="fill:#000000;fill-opacity:1;fill-rule:nonzero;stroke:none"
         d="m 83.289,196.342 c 0,1.344 -0.891,2.235 -2.203,2.235 -0.469,0 -0.859,-0.125 -1.25,-0.422 l 0.266,1.765 2.828,0 0,0.828 -3.5,0 -0.516,-3.562 0.781,0 c 0.391,0.469 0.719,0.641 1.25,0.641 0.907,0 1.485,-0.594 1.485,-1.594 0,-0.985 -0.578,-1.531 -1.485,-1.531 -0.75,0 -1.203,0.375 -1.39,1.14 l -0.86,0 c 0.282,-1.359 1.047,-1.89 2.266,-1.89 1.375,0 2.328,0.953 2.328,2.39 z" /><path
         id="path234"
         style="fill:#000000;fill-opacity:1;fill-rule:nonzero;stroke:none"
         d="m 75.609,213.893 2.281,0 0,-0.703 -2.281,0 0,0.703 z" /><path
         id="path236"
         style="fill:#000000;fill-opacity:1;fill-rule:nonzero;stroke:none"
         d="m 83.352,212.518 0,0.766 -1,0 0,4.406 -0.625,0 -3.094,-4.281 0,-0.891 2.875,0 0,-1.625 0.844,0 0,1.625 1,0 z m -1.844,0.766 -2.141,0 2.141,2.968 0,-2.968 z" /><path
         id="path238"
         style="fill:#000000;fill-opacity:1;fill-rule:nonzero;stroke:none"
         d="m 75.609,229.893 2.281,0 0,-0.703 -2.281,0 0,0.703 z" /><path
         id="path240"
         style="fill:#000000;fill-opacity:1;fill-rule:nonzero;stroke:none"
         d="m 83.227,228.862 c 0,0.828 -0.344,1.312 -1.157,1.593 0.641,0.25 0.953,0.688 0.953,1.375 0,1.172 -0.781,1.86 -2.078,1.86 -1.375,0 -2.093,-0.75 -2.125,-2.188 l 0.844,0 c 0.016,1 0.438,1.453 1.297,1.453 0.75,0 1.203,-0.437 1.203,-1.156 0,-0.734 -0.328,-1.031 -1.672,-1.031 l 0,-0.703 0.453,0 c 0.938,0 1.407,-0.453 1.407,-1.203 0,-0.86 -0.516,-1.36 -1.407,-1.36 -0.922,0 -1.375,0.453 -1.422,1.438 l -0.843,0 c 0.093,-1.516 0.843,-2.188 2.234,-2.188 1.406,0 2.313,0.828 2.313,2.11 z" /><path
         id="path242"
         style="fill:#000000;fill-opacity:1;fill-rule:nonzero;stroke:none"
         d="m 75.609,246.694 2.281,0 0,-0.703 -2.281,0 0,0.703 z" /><path
         id="path244"
         style="fill:#000000;fill-opacity:1;fill-rule:nonzero;stroke:none"
         d="m 83.273,248.506 c 0,1.141 -0.89,1.985 -2.187,1.985 -1.391,0 -2.188,-0.704 -2.234,-2.36 l 0.843,0 c 0.063,1.141 0.532,1.625 1.375,1.625 0.766,0 1.328,-0.547 1.328,-1.281 0,-0.531 -0.312,-0.984 -0.906,-1.344 l -0.89,-0.5 c -1.422,-0.797 -1.829,-1.437 -1.907,-2.937 l 4.532,0 0,0.828 -3.579,0 c 0.079,0.562 0.391,0.922 1.219,1.406 l 0.969,0.516 c 0.937,0.515 1.437,1.218 1.437,2.062 z" /><path
         id="path246"
         style="fill:#000000;fill-opacity:1;fill-rule:nonzero;stroke:none"
         d="m 75.609,262.694 2.281,0 0,-0.703 -2.281,0 0,0.703 z" /><path
         id="path248"
         style="fill:#000000;fill-opacity:1;fill-rule:nonzero;stroke:none"
         d="m 81.695,259.694 0,6.797 -0.562,0 c -0.297,-1.047 -0.485,-1.188 -1.781,-1.344 l 0,-0.61 1.5,0 0,-4.843 0.843,0 z" /><path
         id="path250"
         style="fill:#000000;fill-opacity:1;fill-rule:nonzero;stroke:none"
         d="m 84.031,279.76 c 0,2.36 -0.75,3.531 -2.219,3.531 -1.468,0 -2.234,-1.187 -2.234,-3.468 0,-2.297 0.781,-3.469 2.234,-3.469 1.438,0 2.219,1.172 2.219,3.406 z m -0.859,0.078 c 0,-1.922 -0.438,-2.781 -1.375,-2.781 -0.891,0 -1.344,0.891 -1.344,2.75 0,1.875 0.453,2.734 1.359,2.734 0.907,0 1.36,-0.875 1.36,-2.703 z" /><path
         id="path252"
         style="fill:#000000;fill-opacity:1;fill-rule:nonzero;stroke:none"
         d="m 82.5,292.495 0,6.796 -0.562,0 c -0.297,-1.046 -0.485,-1.187 -1.782,-1.343 l 0,-0.61 1.5,0 0,-4.843 0.844,0 z" /><path
         id="path254"
         style="fill:#000000;fill-opacity:1;fill-rule:nonzero;stroke:none"
         d="m 243.934,8.295 0,0.797 -4.704,0 0,-7 0.891,0 0,3.188 3.344,0 0,0.781 -3.344,0 0,2.234 3.813,0 z" /><path
         id="path256"
         style="fill:#000000;fill-opacity:1;fill-rule:nonzero;stroke:none"
         d="m 246.98,6.42 0,0.813 c -0.14,0.015 -0.203,0.031 -0.312,0.031 -0.516,0 -0.906,-0.312 -1.359,-1.062 l 0,0.921 -0.735,0 0,-5.031 0.797,0 0,2.61 c 0,1.125 0.375,1.703 1.609,1.718 z" /><path
         id="path258"
         style="fill:#000000;fill-opacity:1;fill-rule:nonzero;stroke:none"
         d="m 251.934,4.373 c 0,0.735 -0.063,1.188 -0.204,1.563 -0.328,0.828 -1.093,1.328 -2.031,1.328 -1.406,0 -2.297,-1.031 -2.297,-2.687 0,-1.657 0.86,-2.625 2.282,-2.625 1.14,0 1.937,0.656 2.14,1.671 l -0.797,0 c -0.218,-0.671 -0.672,-0.937 -1.312,-0.937 -0.844,0 -1.469,0.531 -1.485,1.687 l 3.704,0 z m -0.86,0.719 c 0,0 0,-0.047 0,-0.062 l -2.828,0 c 0.078,0.89 0.641,1.5 1.438,1.5 0.796,0 1.39,-0.657 1.39,-1.438 z m 0.344,4 -1.094,0 -0.922,-1.422 0.578,0 1.438,1.422 z" /><path
         id="path260"
         style="fill:#000000;fill-opacity:1;fill-rule:nonzero;stroke:none"
         d="m 257.098,-0.002 0,7.125 -0.719,0 0,-0.671 c -0.359,0.531 -0.938,0.812 -1.594,0.812 -1.328,0 -2.187,-1.047 -2.187,-2.719 0,-1.625 0.828,-2.593 2.14,-2.593 0.703,0 1.188,0.25 1.563,0.796 l 0,-2.75 0.797,0 z m -0.797,4.579 c 0,-1.157 -0.563,-1.875 -1.406,-1.875 -0.875,0 -1.469,0.734 -1.469,1.906 0,1.156 0.594,1.906 1.469,1.906 0.859,0 1.406,-0.766 1.406,-1.937 z" /><path
         id="path262"
         style="fill:#000000;fill-opacity:1;fill-rule:nonzero;stroke:none"
         d="m 262.387,2.092 0,5.031 -0.797,0 0,-2.781 c 0,-1.015 -0.531,-1.687 -1.375,-1.687 -0.625,0 -1.031,0.375 -1.031,0.984 l 0,3.484 -0.797,0 0,-3.796 c 0,-0.844 0.625,-1.375 1.593,-1.375 0.75,0 1.219,0.25 1.688,0.921 l 0,-0.781 0.719,0 z" /><path
         id="path264"
         style="fill:#000000;fill-opacity:1;fill-rule:nonzero;stroke:none"
         d="m 268.023,4.373 c 0,0.735 -0.062,1.188 -0.203,1.563 -0.328,0.828 -1.093,1.328 -2.031,1.328 -1.406,0 -2.297,-1.031 -2.297,-2.687 0,-1.657 0.86,-2.625 2.281,-2.625 1.141,0 1.938,0.656 2.141,1.671 l -0.797,0 c -0.219,-0.671 -0.672,-0.937 -1.312,-0.937 -0.844,0 -1.469,0.531 -1.485,1.687 l 3.703,0 z m -0.859,0.719 c 0,0 0,-0.047 0,-0.062 l -2.828,0 c 0.078,0.89 0.641,1.5 1.437,1.5 0.797,0 1.391,-0.657 1.391,-1.438 z" /><path
         id="path266"
         style="fill:#000000;fill-opacity:1;fill-rule:nonzero;stroke:none"
         d="m 273.109,2.092 0,3.797 c 0,0.844 -0.625,1.375 -1.593,1.375 -0.75,0 -1.219,-0.281 -1.672,-0.984 l 0,0.843 -0.735,0 0,-5.031 0.797,0 0,2.766 c 0,1.031 0.563,1.703 1.375,1.703 0.625,0 1.031,-0.375 1.031,-0.984 l 0,-3.485 0.797,0 z" /><path
         id="path268"
         style="fill:#000000;fill-opacity:1;fill-rule:nonzero;stroke:none"
         d="m 278.355,3.827 -0.812,0 c -0.125,-0.813 -0.547,-1.141 -1.219,-1.141 -0.89,0 -1.422,0.687 -1.422,1.875 0,1.25 0.532,1.969 1.391,1.969 0.672,0 1.094,-0.407 1.203,-1.094 l 0.797,0 c -0.094,1.219 -0.859,1.828 -1.984,1.828 -1.344,0 -2.235,-1.031 -2.235,-2.703 0,-1.625 0.86,-2.609 2.219,-2.609 1.203,0 1.969,0.718 2.062,1.875 z" /><path
         id="path270"
         style="fill:#000000;fill-opacity:1;fill-rule:nonzero;stroke:none"
         d="m 283.496,4.373 c 0,0.735 -0.062,1.188 -0.203,1.563 -0.328,0.828 -1.094,1.328 -2.031,1.328 -1.407,0 -2.297,-1.031 -2.297,-2.687 0,-1.657 0.859,-2.625 2.281,-2.625 1.141,0 1.938,0.656 2.141,1.671 l -0.797,0 c -0.219,-0.671 -0.672,-0.937 -1.313,-0.937 -0.843,0 -1.468,0.531 -1.484,1.687 l 3.703,0 z m -0.859,0.719 c 0,0 0,-0.047 0,-0.062 l -2.828,0 c 0.078,0.89 0.64,1.5 1.437,1.5 0.797,0 1.391,-0.657 1.391,-1.438 z" /><path
         id="path272"
         style="fill:#000000;fill-opacity:1;fill-rule:nonzero;stroke:none"
         d="m 289.379,0.061 c -0.844,1.375 -1.313,2.984 -1.313,4.516 0,1.531 0.469,3.14 1.313,4.515 l -0.531,0 c -0.953,-1.265 -1.563,-3.015 -1.563,-4.515 0,-1.516 0.61,-3.266 1.563,-4.516 l 0.531,0 z" /><path
         id="path274"
         style="fill:#000000;fill-opacity:1;fill-rule:nonzero;stroke:none"
         d="m 295.98,2.092 0,7 -0.89,0 0,-3.031 -3.594,0 0,3.031 -0.891,0 0,-7 0.891,0 0,3.188 3.594,0 0,-3.188 0.89,0 z" /><path
         id="path276"
         style="fill:#000000;fill-opacity:1;fill-rule:nonzero;stroke:none"
         d="m 301.129,2.092 0,0.703 -3.125,0 2.984,3.61 0,0.718 -3.75,0 0,-0.703 2.797,0 -3,-3.609 0,-0.719 4.094,0 z" /><path
         id="path278"
         style="fill:#000000;fill-opacity:1;fill-rule:nonzero;stroke:none"
         d="m 303.992,4.561 c 0,1.516 -0.594,3.266 -1.562,4.531 l -0.532,0 c 0.844,-1.375 1.313,-2.984 1.313,-4.531 0,-1.516 -0.469,-3.141 -1.313,-4.5 l 0.532,0 c 0.968,1.25 1.562,3 1.562,4.5 z" /><path
         id="path280"
         style="fill:#0000ff;fill-opacity:1;fill-rule:nonzero;stroke:none"
         d="m 56.168,127.78 -0.797,0 0,-5.485 0.797,0 0,2.297 6.203,0 0,0.891 -6.203,0 0,2.297 z" /><path
         id="path282"
         style="fill:#0000ff;fill-opacity:1;fill-rule:nonzero;stroke:none"
         d="m 57.434,133.881 c -1.313,0 -2.063,-0.781 -2.063,-2.156 l 0,-2.891 7,0 0,0.891 -2.969,0 0,2.203 c 0,1.141 -0.812,1.953 -1.968,1.953 z m -0.047,-0.937 c 0.765,0 1.234,-0.5 1.234,-1.36 l 0,-1.859 -2.453,0 0,1.859 c 0,0.86 0.453,1.36 1.219,1.36 z" /><path
         id="path284"
         style="fill:#0000ff;fill-opacity:1;fill-rule:nonzero;stroke:none"
         d="m 57.559,139.268 c -1.141,0 -1.985,-0.891 -1.985,-2.188 0,-1.39 0.703,-2.187 2.36,-2.234 l 0,0.844 c -1.141,0.062 -1.625,0.531 -1.625,1.375 0,0.765 0.546,1.328 1.281,1.328 0.531,0 0.984,-0.313 1.344,-0.906 l 0.5,-0.891 c 0.796,-1.422 1.437,-1.828 2.937,-1.906 l 0,4.531 -0.828,0 0,-3.578 c -0.563,0.078 -0.922,0.391 -1.406,1.219 l -0.516,0.968 c -0.516,0.938 -1.219,1.438 -2.062,1.438 z" /><path
         id="path286"
         style="fill:#0000ff;fill-opacity:1;fill-rule:nonzero;stroke:none"
         d="m 63.59,145.245 0.484,0 0,-5.766 -0.484,0 0,5.766 z" /><path
         id="path288"
         style="fill:#0000ff;fill-opacity:1;fill-rule:nonzero;stroke:none"
         d="m 62.371,150.174 -0.781,0 0,-3.453 -6.219,0 0,-0.891 7,0 0,4.344 z" /><path
         id="path290"
         style="fill:#0000ff;fill-opacity:1;fill-rule:nonzero;stroke:none"
         d="m 59.824,156.53 0,-0.922 c 1.313,-0.219 1.938,-0.766 1.938,-1.953 0,-1.391 -1.063,-2.266 -2.813,-2.266 -1.797,0 -2.953,0.844 -2.953,2.188 0,1.093 0.484,1.671 1.547,1.89 l 0,0.906 c -1.531,-0.265 -2.344,-1.156 -2.344,-2.687 0,-2.125 1.719,-3.203 3.75,-3.203 2.047,0 3.594,1.109 3.594,3.156 0,1.719 -0.906,2.672 -2.719,2.891 z" /><path
         id="path292"
         style="fill:#0000ff;fill-opacity:1;fill-rule:nonzero;stroke:none"
         d="m 62.371,158.787 -1,0 0,-1 1,0 0,1 z m -4.031,0 -1,0 0,-1 1,0 0,1 z" /><path
         id="path294"
         style="fill:#0000ff;fill-opacity:1;fill-rule:nonzero;stroke:none"
         d="m 62.371,164.377 -7,0 0,-0.797 2.609,0 c -0.515,-0.343 -0.781,-0.875 -0.781,-1.546 0,-1.297 1.016,-2.157 2.61,-2.157 1.703,0 2.703,0.828 2.703,2.188 0,0.687 -0.25,1.172 -0.875,1.594 l 0.734,0 0,0.718 z m -2.5,-0.797 c 1.172,0 1.891,-0.562 1.891,-1.406 0,-0.875 -0.735,-1.469 -1.907,-1.469 -1.171,0 -1.906,0.594 -1.906,1.469 0,0.86 0.766,1.406 1.922,1.406 z" /><path
         id="path296"
         style="fill:#0000ff;fill-opacity:1;fill-rule:nonzero;stroke:none"
         d="m 60.371,170.952 c -0.844,0 -1.344,-0.391 -1.687,-1.282 -0.297,0.625 -0.829,0.969 -1.532,0.969 -1.015,0 -1.781,-0.75 -1.781,-2.078 l 0,-2.828 7,0 0,3.156 c 0,1.25 -0.844,2.063 -2,2.063 z m -3.094,-1.204 c 0.703,0 1.11,-0.421 1.11,-1.406 l 0,-1.719 -2.219,0 0,1.719 c 0,0.985 0.406,1.406 1.109,1.406 z m 3.11,0.297 c 0.672,0 1.203,-0.406 1.203,-1.25 l 0,-2.172 -2.406,0 0,2.172 c 0,0.844 0.515,1.25 1.203,1.25 z" /><path
         id="path298"
         style="fill:#0000ff;fill-opacity:1;fill-rule:nonzero;stroke:none"
         d="m 60.449,177.323 c -0.859,0 -1.5,-0.532 -1.75,-1.485 l -0.469,-1.75 c -0.218,-0.843 -0.5,-1.156 -1.046,-1.156 -0.704,0 -1.235,0.625 -1.235,1.563 0,1.109 0.516,1.75 1.422,1.75 l 0,0.843 c -1.375,0 -2.172,-0.953 -2.172,-2.562 0,-1.531 0.844,-2.485 2.11,-2.485 0.859,0 1.39,0.454 1.64,1.375 l 0.453,1.735 c 0.235,0.875 0.594,1.281 1.141,1.281 0.766,0 1.219,-0.578 1.219,-1.781 0,-1.328 -0.672,-1.969 -1.672,-1.969 l 0,-0.859 c 1.656,0 2.453,1.125 2.453,2.765 0,1.782 -0.844,2.735 -2.094,2.735 z" /><path
         id="path300"
         style="fill:#0000ff;fill-opacity:1;fill-rule:nonzero;stroke:none"
         d="m 62.371,181.131 -6.797,0 0,-0.562 c 1.047,-0.297 1.188,-0.485 1.344,-1.782 l 0.609,0 0,1.5 4.844,0 0,0.844 z" /><path
         id="path302"
         style="fill:#0000ff;fill-opacity:1;fill-rule:nonzero;stroke:none"
         d="m 62.371,186.467 -6.797,0 0,-0.562 c 1.047,-0.297 1.188,-0.485 1.344,-1.782 l 0.609,0 0,1.5 4.844,0 0,0.844 z" /><path
         id="path304"
         style="fill:#ff00ff;fill-opacity:1;fill-rule:nonzero;stroke:none"
         d="m 43.973,133.245 -7,0 0,-0.797 2.609,0 c -0.516,-0.344 -0.781,-0.875 -0.781,-1.547 0,-1.297 1.015,-2.156 2.609,-2.156 1.703,0 2.703,0.828 2.703,2.187 0,0.688 -0.25,1.172 -0.875,1.594 l 0.735,0 0,0.719 z m -2.5,-0.797 c 1.172,0 1.89,-0.563 1.89,-1.407 0,-0.875 -0.734,-1.468 -1.906,-1.468 -1.172,0 -1.906,0.593 -1.906,1.468 0,0.86 0.765,1.407 1.922,1.407 z" /><path
         id="path306"
         style="fill:#ff00ff;fill-opacity:1;fill-rule:nonzero;stroke:none"
         d="m 41.973,139.815 c -0.844,0 -1.344,-0.391 -1.688,-1.281 -0.297,0.625 -0.828,0.968 -1.531,0.968 -1.016,0 -1.781,-0.75 -1.781,-2.078 l 0,-2.828 7,0 0,3.156 c 0,1.25 -0.844,2.063 -2,2.063 z m -3.094,-1.203 c 0.703,0 1.109,-0.422 1.109,-1.407 l 0,-1.718 -2.218,0 0,1.718 c 0,0.985 0.406,1.407 1.109,1.407 z m 3.109,0.297 c 0.672,0 1.203,-0.407 1.203,-1.25 l 0,-2.172 -2.406,0 0,2.172 c 0,0.843 0.516,1.25 1.203,1.25 z" /><path
         id="path308"
         style="fill:#ff00ff;fill-opacity:1;fill-rule:nonzero;stroke:none"
         d="m 42.051,146.186 c -0.86,0 -1.5,-0.531 -1.75,-1.484 l -0.469,-1.75 c -0.219,-0.844 -0.5,-1.157 -1.047,-1.157 -0.703,0 -1.234,0.625 -1.234,1.563 0,1.109 0.515,1.75 1.422,1.75 l 0,0.844 c -1.375,0 -2.172,-0.954 -2.172,-2.563 0,-1.531 0.844,-2.484 2.109,-2.484 0.86,0 1.391,0.453 1.641,1.375 l 0.453,1.734 c 0.234,0.875 0.594,1.281 1.141,1.281 0.765,0 1.218,-0.578 1.218,-1.781 0,-1.328 -0.672,-1.969 -1.672,-1.969 l 0,-0.859 c 1.657,0 2.454,1.125 2.454,2.766 0,1.781 -0.844,2.734 -2.094,2.734 z" /><path
         id="path310"
         style="fill:#ff00ff;fill-opacity:1;fill-rule:nonzero;stroke:none"
         d="m 43.973,149.995 -6.797,0 0,-0.563 c 1.047,-0.297 1.187,-0.484 1.344,-1.781 l 0.609,0 0,1.5 4.844,0 0,0.844 z" /><path
         id="path312"
         style="fill:#ff00ff;fill-opacity:1;fill-rule:nonzero;stroke:none"
         d="m 43.973,155.33 -6.797,0 0,-0.562 c 1.047,-0.297 1.187,-0.484 1.344,-1.781 l 0.609,0 0,1.5 4.844,0 0,0.843 z" /><path
         id="path314"
         style="fill:#ff00ff;fill-opacity:1;fill-rule:nonzero;stroke:none"
         d="m 45.191,162.889 0.484,0 0,-5.766 -0.484,0 0,5.766 z" /><path
         id="path316"
         style="fill:#ff00ff;fill-opacity:1;fill-rule:nonzero;stroke:none"
         d="m 43.973,169.975 -7,0 0,-1.234 6.093,-2.032 -6.093,-2.078 0,-1.234 7,0 0,0.844 -5.86,0 5.86,1.984 0,0.937 -5.86,1.969 5.86,0 0,0.844 z" /><path
         id="path318"
         style="fill:#ff00ff;fill-opacity:1;fill-rule:nonzero;stroke:none"
         d="m 43.973,175.815 -0.782,0 0,-3.453 -6.218,0 0,-0.891 7,0 0,4.344 z" /><path
         id="path320"
         style="fill:#ff00ff;fill-opacity:1;fill-rule:nonzero;stroke:none"
         d="m 36.973,177.901 7,0 0,-0.906 -7,0 0,0.906 z" /><path
         id="path322"
         style="fill:#ff00ff;fill-opacity:1;fill-rule:nonzero;stroke:none"
         d="m 43.973,184.912 -7,0 0,-0.843 5.718,0 -5.718,-3.657 0,-0.968 7,0 0,0.843 -5.672,0 5.672,3.61 0,1.015 z" /><path
         id="path324"
         style="fill:#00ff00;fill-opacity:1;fill-rule:nonzero;stroke:none"
         d="m 25.57,124.444 -7,0 0,-0.797 2.61,0 c -0.516,-0.344 -0.782,-0.875 -0.782,-1.547 0,-1.297 1.016,-2.156 2.61,-2.156 1.703,0 2.703,0.828 2.703,2.187 0,0.688 -0.25,1.172 -0.875,1.594 l 0.734,0 0,0.719 z m -2.5,-0.797 c 1.172,0 1.891,-0.563 1.891,-1.406 0,-0.875 -0.734,-1.469 -1.906,-1.469 -1.172,0 -1.907,0.594 -1.907,1.469 0,0.859 0.766,1.406 1.922,1.406 z" /><path
         id="path326"
         style="fill:#00ff00;fill-opacity:1;fill-rule:nonzero;stroke:none"
         d="m 23.57,131.014 c -0.843,0 -1.343,-0.391 -1.687,-1.281 -0.297,0.625 -0.828,0.969 -1.531,0.969 -1.016,0 -1.782,-0.75 -1.782,-2.079 l 0,-2.828 7,0 0,3.157 c 0,1.25 -0.843,2.062 -2,2.062 z m -3.093,-1.203 c 0.703,0 1.109,-0.422 1.109,-1.406 l 0,-1.719 -2.219,0 0,1.719 c 0,0.984 0.406,1.406 1.11,1.406 z m 3.109,0.297 c 0.672,0 1.203,-0.406 1.203,-1.25 l 0,-2.172 -2.406,0 0,2.172 c 0,0.844 0.515,1.25 1.203,1.25 z" /><path
         id="path328"
         style="fill:#00ff00;fill-opacity:1;fill-rule:nonzero;stroke:none"
         d="m 23.648,137.385 c -0.859,0 -1.5,-0.531 -1.75,-1.484 l -0.468,-1.75 c -0.219,-0.844 -0.5,-1.156 -1.047,-1.156 -0.703,0 -1.235,0.625 -1.235,1.562 0,1.109 0.516,1.75 1.422,1.75 l 0,0.844 c -1.375,0 -2.172,-0.953 -2.172,-2.563 0,-1.531 0.844,-2.484 2.11,-2.484 0.859,0 1.39,0.453 1.64,1.375 l 0.454,1.734 c 0.234,0.875 0.593,1.282 1.14,1.282 0.766,0 1.219,-0.579 1.219,-1.782 0,-1.328 -0.672,-1.968 -1.672,-1.968 l 0,-0.86 c 1.656,0 2.453,1.125 2.453,2.766 0,1.781 -0.844,2.734 -2.094,2.734 z" /><path
         id="path330"
         style="fill:#00ff00;fill-opacity:1;fill-rule:nonzero;stroke:none"
         d="m 25.57,141.194 -6.797,0 0,-0.563 c 1.047,-0.297 1.188,-0.484 1.344,-1.781 l 0.61,0 0,1.5 4.843,0 0,0.844 z" /><path
         id="path332"
         style="fill:#00ff00;fill-opacity:1;fill-rule:nonzero;stroke:none"
         d="m 25.57,146.53 -6.797,0 0,-0.563 c 1.047,-0.297 1.188,-0.484 1.344,-1.781 l 0.61,0 0,1.5 4.843,0 0,0.844 z" /><path
         id="path334"
         style="fill:#00ff00;fill-opacity:1;fill-rule:nonzero;stroke:none"
         d="m 26.789,154.088 0.484,0 0,-5.766 -0.484,0 0,5.766 z" /><path
         id="path336"
         style="fill:#00ff00;fill-opacity:1;fill-rule:nonzero;stroke:none"
         d="m 25.57,161.174 -7,0 0,-1.234 6.094,-2.031 -6.094,-2.079 0,-1.234 7,0 0,0.844 -5.859,0 5.859,1.984 0,0.938 -5.859,1.968 5.859,0 0,0.844 z" /><path
         id="path338"
         style="fill:#00ff00;fill-opacity:1;fill-rule:nonzero;stroke:none"
         d="m 22.18,169.03 c -2.25,0 -3.782,-1.344 -3.782,-3.391 0,-2 1.547,-3.375 3.735,-3.375 2.187,0 3.609,1.375 3.609,3.375 0,2.063 -1.5,3.391 -3.562,3.391 z m -0.016,-0.907 c 1.688,0 2.797,-1 2.797,-2.484 0,-1.484 -1.109,-2.484 -2.828,-2.484 -1.735,0 -2.938,1 -2.938,2.484 0,1.516 1.203,2.484 2.969,2.484 z" /><path
         id="path340"
         style="fill:#00ff00;fill-opacity:1;fill-rule:nonzero;stroke:none"
         d="m 20.633,175.295 c -1.313,0 -2.063,-0.781 -2.063,-2.156 l 0,-2.891 7,0 0,0.891 -2.968,0 0,2.203 c 0,1.141 -0.813,1.953 -1.969,1.953 z m -0.047,-0.937 c 0.766,0 1.234,-0.5 1.234,-1.36 l 0,-1.859 -2.453,0 0,1.859 c 0,0.86 0.453,1.36 1.219,1.36 z" /><path
         id="path342"
         style="fill:#00ff00;fill-opacity:1;fill-rule:nonzero;stroke:none"
         d="m 25.57,181.651 -0.781,0 0,-4.125 -2.406,0 0,3.812 -0.781,0 0,-3.812 -2.235,0 0,3.953 -0.797,0 0,-4.844 7,0 0,5.016 z" /><path
         id="path344"
         style="fill:#00ff00;fill-opacity:1;fill-rule:nonzero;stroke:none"
         d="m 25.57,188.381 -7,0 0,-0.844 5.719,0 -5.719,-3.656 0,-0.969 7,0 0,0.844 -5.672,0 5.672,3.61 0,1.015 z" /><path
         id="path346"
         style="fill:#00ffff;fill-opacity:1;fill-rule:nonzero;stroke:none"
         d="m 7.172,151.643 -7,0 0,-0.797 2.609,0 C 2.266,150.502 2,149.971 2,149.299 c 0,-1.297 1.016,-2.156 2.609,-2.156 1.703,0 2.703,0.828 2.703,2.187 0,0.688 -0.25,1.172 -0.874,1.594 l 0.734,0 0,0.719 z m -2.5,-0.797 c 1.172,0 1.89,-0.562 1.89,-1.406 0,-0.875 -0.734,-1.469 -1.906,-1.469 -1.172,0 -1.906,0.594 -1.906,1.469 0,0.859 0.766,1.406 1.922,1.406 z" /><path
         id="path348"
         style="fill:#00ffff;fill-opacity:1;fill-rule:nonzero;stroke:none"
         d="m 5.172,158.213 c -0.844,0 -1.344,-0.39 -1.688,-1.281 -0.296,0.625 -0.828,0.969 -1.531,0.969 -1.015,0 -1.781,-0.75 -1.781,-2.078 l 0,-2.828 7,0 0,3.156 c 0,1.25 -0.844,2.062 -2,2.062 z M 2.078,157.01 c 0.703,0 1.11,-0.422 1.11,-1.406 l 0,-1.719 -2.219,0 0,1.719 c 0,0.984 0.406,1.406 1.109,1.406 z m 3.11,0.297 c 0.671,0 1.203,-0.406 1.203,-1.25 l 0,-2.172 -2.407,0 0,2.172 c 0,0.844 0.516,1.25 1.204,1.25 z" /><path
         id="path350"
         style="fill:#00ffff;fill-opacity:1;fill-rule:nonzero;stroke:none"
         d="m 5.25,164.588 c -0.859,0 -1.5,-0.531 -1.75,-1.484 l -0.469,-1.75 c -0.219,-0.844 -0.5,-1.156 -1.047,-1.156 -0.703,0 -1.234,0.625 -1.234,1.562 0,1.11 0.516,1.75 1.422,1.75 l 0,0.844 C 0.797,164.354 0,163.401 0,161.791 c 0,-1.531 0.844,-2.484 2.109,-2.484 0.86,0 1.391,0.453 1.641,1.375 l 0.453,1.734 c 0.235,0.875 0.594,1.282 1.141,1.282 0.765,0 1.218,-0.578 1.218,-1.782 0,-1.328 -0.671,-1.968 -1.671,-1.968 l 0,-0.86 c 1.656,0 2.453,1.125 2.453,2.766 0,1.781 -0.844,2.734 -2.094,2.734 z" /><path
         id="path352"
         style="fill:#00ffff;fill-opacity:1;fill-rule:nonzero;stroke:none"
         d="m 7.172,168.393 -6.797,0 0,-0.563 c 1.047,-0.296 1.187,-0.484 1.344,-1.781 l 0.609,0 0,1.5 4.844,0 0,0.844 z" /><path
         id="path354"
         style="fill:#00ffff;fill-opacity:1;fill-rule:nonzero;stroke:none"
         d="m 7.172,173.733 -6.797,0 0,-0.563 c 1.047,-0.297 1.187,-0.484 1.344,-1.781 l 0.609,0 0,1.5 4.844,0 0,0.844 z" /></g></g></svg>