<?xml version="1.0" encoding="UTF-8" standalone="no"?>
<svg
   xmlns:dc="http://purl.org/dc/elements/1.1/"
   xmlns:cc="http://creativecommons.org/ns#"
   xmlns:rdf="http://www.w3.org/1999/02/22-rdf-syntax-ns#"
   xmlns:svg="http://www.w3.org/2000/svg"
   xmlns="http://www.w3.org/2000/svg"
   viewBox="0 0 598.41998 372.116"
   height="372.116"
   width="598.41998"
   xml:space="preserve"
   version="1.1"
   id="svg2"><metadata
     id="metadata8"><rdf:RDF><cc:Work
         rdf:about=""><dc:format>image/svg+xml</dc:format><dc:type
           rdf:resource="http://purl.org/dc/dcmitype/StillImage" /></cc:Work></rdf:RDF></metadata><defs
     id="defs6" /><g
     transform="matrix(1.25,0,0,-1.25,0,372.11601)"
     id="g10"><g
       id="g12"><path
         id="path14"
         style="fill:none;stroke:#c0c0c0;stroke-width:0.80000001;stroke-linecap:square;stroke-linejoin:bevel;stroke-miterlimit:4;stroke-dasharray:0.8, 1.6;stroke-dashoffset:0;stroke-opacity:1"
         d="m 91.969,273.294 381.601,0" /><path
         id="path16"
         style="fill:none;stroke:#c0c0c0;stroke-width:0.80000001;stroke-linecap:square;stroke-linejoin:bevel;stroke-miterlimit:4;stroke-dasharray:0.8, 1.6;stroke-dashoffset:0;stroke-opacity:1"
         d="m 91.969,226.095 381.601,0" /><path
         id="path18"
         style="fill:none;stroke:#c0c0c0;stroke-width:0.80000001;stroke-linecap:square;stroke-linejoin:bevel;stroke-miterlimit:4;stroke-dasharray:0.8, 1.6;stroke-dashoffset:0;stroke-opacity:1"
         d="m 91.969,178.095 381.601,0" /><path
         id="path20"
         style="fill:none;stroke:#c0c0c0;stroke-width:0.80000001;stroke-linecap:square;stroke-linejoin:bevel;stroke-miterlimit:4;stroke-dasharray:0.8, 1.6;stroke-dashoffset:0;stroke-opacity:1"
         d="m 91.969,130.095 381.601,0" /><path
         id="path22"
         style="fill:none;stroke:#c0c0c0;stroke-width:0.80000001;stroke-linecap:square;stroke-linejoin:bevel;stroke-miterlimit:4;stroke-dasharray:0.8, 1.6;stroke-dashoffset:0;stroke-opacity:1"
         d="m 91.969,82.896 381.601,0" /><path
         id="path24"
         style="fill:none;stroke:#c0c0c0;stroke-width:0.80000001;stroke-linecap:square;stroke-linejoin:bevel;stroke-miterlimit:4;stroke-dasharray:0.8, 1.6;stroke-dashoffset:0;stroke-opacity:1"
         d="m 410.375,297.294 0,-262.398" /><path
         id="path26"
         style="fill:none;stroke:#c0c0c0;stroke-width:0.80000001;stroke-linecap:square;stroke-linejoin:bevel;stroke-miterlimit:4;stroke-dasharray:0.8, 1.6;stroke-dashoffset:0;stroke-opacity:1"
         d="m 346.375,297.294 0,-262.398" /><path
         id="path28"
         style="fill:none;stroke:#c0c0c0;stroke-width:0.80000001;stroke-linecap:square;stroke-linejoin:bevel;stroke-miterlimit:4;stroke-dasharray:0.8, 1.6;stroke-dashoffset:0;stroke-opacity:1"
         d="m 283.168,297.294 0,-262.398" /><path
         id="path30"
         style="fill:none;stroke:#c0c0c0;stroke-width:0.80000001;stroke-linecap:square;stroke-linejoin:bevel;stroke-miterlimit:4;stroke-dasharray:0.8, 1.6;stroke-dashoffset:0;stroke-opacity:1"
         d="m 219.168,297.294 0,-262.398" /><path
         id="path32"
         style="fill:none;stroke:#c0c0c0;stroke-width:0.80000001;stroke-linecap:square;stroke-linejoin:bevel;stroke-miterlimit:4;stroke-dasharray:0.8, 1.6;stroke-dashoffset:0;stroke-opacity:1"
         d="m 155.969,297.294 0,-262.398" /><path
         id="path34"
         style="fill:none;stroke:#000000;stroke-width:0.80000001;stroke-linecap:square;stroke-linejoin:bevel;stroke-miterlimit:4;stroke-dasharray:none;stroke-opacity:1"
         d="m 91.969,38.896 0,-8" /><path
         id="path36"
         style="fill:none;stroke:#000000;stroke-width:0.80000001;stroke-linecap:square;stroke-linejoin:bevel;stroke-miterlimit:4;stroke-dasharray:none;stroke-opacity:1"
         d="m 155.969,38.896 0,-8" /><path
         id="path38"
         style="fill:none;stroke:#000000;stroke-width:0.80000001;stroke-linecap:square;stroke-linejoin:bevel;stroke-miterlimit:4;stroke-dasharray:none;stroke-opacity:1"
         d="m 219.168,38.896 0,-8" /><path
         id="path40"
         style="fill:none;stroke:#000000;stroke-width:0.80000001;stroke-linecap:square;stroke-linejoin:bevel;stroke-miterlimit:4;stroke-dasharray:none;stroke-opacity:1"
         d="m 283.168,38.896 0,-8" /><path
         id="path42"
         style="fill:none;stroke:#000000;stroke-width:0.80000001;stroke-linecap:square;stroke-linejoin:bevel;stroke-miterlimit:4;stroke-dasharray:none;stroke-opacity:1"
         d="m 346.375,38.896 0,-8" /><path
         id="path44"
         style="fill:none;stroke:#000000;stroke-width:0.80000001;stroke-linecap:square;stroke-linejoin:bevel;stroke-miterlimit:4;stroke-dasharray:none;stroke-opacity:1"
         d="m 410.375,38.896 0,-8" /><path
         id="path46"
         style="fill:none;stroke:#000000;stroke-width:0.80000001;stroke-linecap:square;stroke-linejoin:bevel;stroke-miterlimit:4;stroke-dasharray:none;stroke-opacity:1"
         d="m 473.57,38.896 0,-8" /><path
         id="path48"
         style="fill:none;stroke:#000000;stroke-width:0.80000001;stroke-linecap:square;stroke-linejoin:bevel;stroke-miterlimit:4;stroke-dasharray:none;stroke-opacity:1"
         d="m 87.969,34.896 8,0" /><path
         id="path50"
         style="fill:none;stroke:#000000;stroke-width:0.80000001;stroke-linecap:square;stroke-linejoin:bevel;stroke-miterlimit:4;stroke-dasharray:none;stroke-opacity:1"
         d="m 87.969,82.896 8,0" /><path
         id="path52"
         style="fill:none;stroke:#000000;stroke-width:0.80000001;stroke-linecap:square;stroke-linejoin:bevel;stroke-miterlimit:4;stroke-dasharray:none;stroke-opacity:1"
         d="m 87.969,130.095 8,0" /><path
         id="path54"
         style="fill:none;stroke:#000000;stroke-width:0.80000001;stroke-linecap:square;stroke-linejoin:bevel;stroke-miterlimit:4;stroke-dasharray:none;stroke-opacity:1"
         d="m 87.969,178.095 8,0" /><path
         id="path56"
         style="fill:none;stroke:#000000;stroke-width:0.80000001;stroke-linecap:square;stroke-linejoin:bevel;stroke-miterlimit:4;stroke-dasharray:none;stroke-opacity:1"
         d="m 87.969,226.095 8,0" /><path
         id="path58"
         style="fill:none;stroke:#000000;stroke-width:0.80000001;stroke-linecap:square;stroke-linejoin:bevel;stroke-miterlimit:4;stroke-dasharray:none;stroke-opacity:1"
         d="m 87.969,273.294 8,0" /><path
         id="path60"
         style="fill:none;stroke:#000000;stroke-width:0.80000001;stroke-linecap:square;stroke-linejoin:bevel;stroke-miterlimit:4;stroke-dasharray:none;stroke-opacity:1"
         d="m 91.969,297.294 381.601,0" /><path
         id="path62"
         style="fill:none;stroke:#000000;stroke-width:0.80000001;stroke-linecap:square;stroke-linejoin:bevel;stroke-miterlimit:4;stroke-dasharray:none;stroke-opacity:1"
         d="m 473.57,297.294 0,-262.398" /><path
         id="path64"
         style="fill:none;stroke:#000000;stroke-width:0.80000001;stroke-linecap:square;stroke-linejoin:bevel;stroke-miterlimit:4;stroke-dasharray:none;stroke-opacity:1"
         d="m 91.969,34.896 381.601,0" /><path
         id="path66"
         style="fill:none;stroke:#000000;stroke-width:0.80000001;stroke-linecap:square;stroke-linejoin:bevel;stroke-miterlimit:4;stroke-dasharray:none;stroke-opacity:1"
         d="m 91.969,297.294 0,-262.398" /><path
         id="path68"
         style="fill:none;stroke:#ff0000;stroke-width:0.80000001;stroke-linecap:square;stroke-linejoin:bevel;stroke-miterlimit:4;stroke-dasharray:none;stroke-opacity:1"
         d="m 104.691,273.259 0.055,0 0.051,-0.004 0.109,0 0.059,-0.004 0.055,0 0.058,-0.004 0.11,0 0.058,-0.003 0.055,0 0.054,-0.004 0.063,0 0.051,-0.008 0.238,0 0.055,-0.004 0.058,0 0.059,-0.004 0.059,0 0.062,-0.004 0.121,0 0.059,-0.004 0.058,0 0.063,-0.004 0.058,0 0.063,-0.004 0.062,0 0.063,-0.003 0.062,0 0.063,-0.004 0.062,0 0.063,-0.004 0.062,0 0.063,-0.008 0.191,0 0.067,-0.004 0.07,0 0.059,-0.004 0.066,-0.004 0.066,0 0.067,-0.004 0.07,0 0.063,-0.004 0.07,0 0.062,-0.004 0.067,0 0.074,-0.003 0.063,-0.004 0.066,0 0.07,-0.004 0.071,0 0.066,-0.008 0.141,0 0.07,-0.004 0.07,0 0.141,-0.008 0.074,0 0.141,-0.008 0.074,0 0.07,-0.004 0.074,-0.003 0.075,0 0.07,-0.004 0.078,-0.008 0.07,0 0.149,-0.004 0.078,0 0.148,-0.008 0.079,0 0.074,-0.004 0.156,-0.008 0.074,0 0.235,-0.011 0.078,0 0.078,-0.008 0.082,0 0.082,-0.004 0.082,0 0.078,-0.004 0.16,-0.008 0.078,-0.004 0.082,0 0.247,-0.011 0.085,-0.004 0.082,-0.008 0.168,0 0.086,-0.004 0.082,-0.004 0.262,-0.012 0.086,0 0.258,-0.011 0.09,-0.008 0.086,0 0.179,-0.008 0.086,-0.004 0.18,-0.008 0.094,-0.004 0.179,-0.007 0.098,-0.004 0.086,-0.008 0.094,0 0.09,-0.004 0.375,-0.016 0.097,-0.004 0.094,-0.003 0.098,-0.004 0.093,-0.004 0.684,-0.028 0.102,-0.007 0.101,-0.004 0.098,-0.008 0.097,-0.004 0.204,-0.004 0.109,-0.004 0.098,-0.008 0.203,-0.007 0.211,-0.008 0.105,-0.008 0.313,-0.012 0.109,-0.008 0.211,-0.007 0.109,-0.004 0.11,-0.012 0.109,0 0.106,-0.004 0.109,-0.008 0.109,-0.004 0.114,-0.004 0.109,-0.007 0.117,-0.004 0.106,-0.008 0.339,-0.012 0.114,-0.008 0.113,-0.004 0.121,-0.003 0.109,-0.008 0.118,-0.008 0.117,-0.004 0.121,-0.004 0.109,-0.008 0.121,-0.004 0.118,-0.007 0.117,-0.004 0.121,-0.004 0.121,-0.008 0.121,-0.004 0.117,-0.008 0.121,-0.004 0.121,-0.008 0.125,-0.007 0.122,-0.008 0.25,-0.008 0.121,-0.008 0.125,-0.004 0.125,-0.007 0.129,-0.008 0.125,-0.008 0.257,-0.008 0.125,-0.008 0.129,-0.008 0.133,-0.003 0.258,-0.016 0.133,-0.004 0.129,-0.008 0.132,-0.008 0.137,-0.004 0.262,-0.015 0.137,-0.008 0.132,-0.004 0.547,-0.031 0.137,-0.004 0.141,-0.008 0.136,-0.008 0.141,-0.007 0.141,-0.004 0.421,-0.024 0.29,-0.015 0.144,-0.012 0.141,-0.004 0.148,-0.004 0.145,-0.008 0.148,-0.008 0.887,-0.046 0.914,-0.047 0.785,-0.039 0.156,-0.012 0.156,-0.004 0.321,-0.016 0.16,-0.011 0.164,-0.012 0.164,-0.004 0.156,-0.008 0.493,-0.027 0.168,-0.008 0.164,-0.008 0.671,-0.031 0.172,-0.012 0.168,-0.008 0.348,-0.019 0.172,-0.004 0.172,-0.012 0.175,-0.008 0.172,-0.007 0.18,-0.008 0.176,-0.012 0.351,-0.015 0.184,-0.008 0.176,-0.012 0.179,-0.008 0.184,-0.008 0.18,-0.007 0.183,-0.016 0.367,-0.012 0.188,-0.012 0.559,-0.023 0.191,-0.012 0.184,-0.007 0.191,-0.008 0.187,-0.012 0.383,-0.016 0.196,-0.011 0.191,-0.012 0.195,-0.004 0.196,-0.012 0.398,-0.015 0.195,-0.012 0.399,-0.016 0.406,-0.023 0.195,-0.004 0.204,-0.012 0.203,-0.008 0.207,-0.007 0.203,-0.012 0.207,-0.008 0.211,-0.008 0.207,-0.008 0.207,-0.015 0.422,-0.012 0.211,-0.012 0.429,-0.019 0.219,-0.008 0.426,-0.016 0.219,-0.007 0.218,-0.012 0.438,-0.016 0.223,-0.008 0.226,-0.015 0.668,-0.02 0.223,-0.007 0.226,-0.016 0.231,-0.004 0.226,-0.008 0.692,-0.023 0.468,-0.016 0.235,-0.012 0.238,-0.007 0.949,-0.032 0.973,-0.031 0.246,-0.008 0.242,-0.004 0.246,-0.007 0.25,-0.008 0.246,-0.008 0.25,-0.008 0.254,-0.008 0.25,-0.004 0.512,-0.019 0.508,-0.008 0.258,-0.008 0.261,-0.008 0.258,-0.003 0.524,-0.016 0.261,-0.004 0.27,-0.004 0.262,-0.008 0.265,-0.004 0.27,-0.007 0.539,-0.008 0.269,-0.008 0.821,-0.012 0.281,-0.008 0.551,-0.007 1.125,-0.016 0.859,-0.012 0.285,0 0.578,-0.008 0.293,0 0.586,-0.007 0.301,0 0.297,-0.004 0.594,0 0.297,-0.008 3.394,0 0.313,0.008 0.32,0 0.316,0.004 0.321,0 0.32,0.004 0.328,0 0.32,0.003 0.329,0.004 0.324,0.004 0.328,0 0.332,0.004 0.332,0.008 0.664,0.004 0.336,0.008 0.34,0.004 0.336,0.007 0.34,0.004 0.339,0.008 0.348,0.004 0.34,0.004 1.043,0.027 0.351,0.004 0.352,0.012 0.352,0.008 0.71,0.015 0.36,0.012 0.359,0.008 0.36,0.012 0.363,0.007 0.726,0.02 0.735,0.023 0.371,0.012 0.375,0.016 1.121,0.031 0.379,0.019 0.379,0.012 0.765,0.031 0.383,0.012 0.774,0.031 0.781,0.032 0.395,0.019 0.789,0.031 0.398,0.02 0.398,0.016 0.809,0.039 0.402,0.015 0.813,0.039 0.828,0.039 0.406,0.02 0.422,0.023 0.41,0.02 0.426,0.023 0.418,0.02 0.418,0.023 0.426,0.016 0.851,0.051 0.43,0.023 1.301,0.07 0.875,0.047 0.445,0.02 0.438,0.031 0.89,0.047 0.449,0.027 0.45,0.02 0.453,0.031 0.453,0.024 0.914,0.054 0.461,0.024 0.461,0.027 0.93,0.055 0.468,0.027 0.473,0.024 0.941,0.054 0.954,0.055 0.96,0.055 0.485,0.023 0.488,0.027 0.484,0.028 0.985,0.054 0.492,0.02 0.5,0.031 0.5,0.028 0.5,0.023 0.5,0.027 0.504,0.024 0.508,0.027 0.508,0.024 0.511,0.027 1.551,0.07 0.52,0.024 0.523,0.019 1.047,0.047 1.062,0.039 1.071,0.039 1.078,0.039 0.543,0.012 0.543,0.023 0.547,0.016 0.55,0.012 1.11,0.031 0.554,0.012 0.563,0.011 0.559,0.012 0.566,0.008 0.562,0.012 0.571,0.007 0.574,0.004 0.57,0.008 1.157,0.008 0.582,0.004 1.757,0 0.59,-0.004 0.598,0 0.594,-0.008 0.597,-0.004 1.203,-0.015 0.606,-0.012 0.609,-0.012 0.614,-0.012 0.613,-0.019 0.621,-0.008 0.621,-0.019 0.617,-0.016 0.625,-0.02 0.625,-0.023 1.899,-0.07 1.281,-0.055 0.641,-0.035 0.648,-0.024 0.648,-0.035 0.653,-0.031 1.312,-0.07 0.66,-0.039 0.664,-0.036 0.665,-0.042 0.668,-0.04 0.671,-0.043 1.352,-0.085 0.68,-0.043 0.683,-0.047 1.375,-0.094 0.692,-0.047 0.695,-0.047 0.703,-0.051 0.695,-0.046 0.704,-0.055 0.707,-0.047 0.71,-0.051 0.711,-0.047 1.438,-0.105 1.445,-0.098 0.731,-0.047 0.734,-0.05 0.731,-0.047 1.48,-0.094 0.746,-0.047 0.742,-0.043 0.75,-0.043 0.758,-0.043 0.754,-0.039 0.758,-0.039 0.762,-0.039 0.769,-0.031 0.766,-0.035 0.777,-0.032 0.774,-0.027 1.562,-0.047 0.789,-0.019 0.789,-0.016 0.793,-0.016 0.797,-0.011 1.598,-0.012 0.812,0 0.805,0.008 0.812,0.007 0.817,0.012 0.82,0.02 0.824,0.019 0.828,0.028 0.832,0.027 0.832,0.035 0.84,0.039 1.688,0.094 0.847,0.055 0.852,0.058 0.855,0.067 0.86,0.066 0.867,0.074 0.863,0.078 0.871,0.082 0.875,0.086 0.879,0.09 1.766,0.188 0.891,0.097 1.789,0.203 0.902,0.102 1.812,0.203 0.915,0.094 0.914,0.098 0.921,0.089 0.926,0.079 0.93,0.074 0.93,0.062 0.937,0.047 0.938,0.035 0.945,0.016 0.945,-0.004 0.953,-0.027 0.957,-0.055 0.961,-0.082 0.969,-0.117 0.965,-0.153 0.969,-0.191 0.976,-0.234 0.985,-0.282 0.984,-0.332 0.988,-0.382 0.992,-0.438 1,-0.496 1,-0.551 1.008,-0.617 1.012,-0.676 1.012,-0.738 1.019,-0.801 1.024,-0.867 1.031,-0.918 1.035,-0.981 1.031,-1.035 1.043,-1.093 1.043,-1.141 1.055,-1.191 1.051,-1.239 1.058,-1.277 1.063,-1.316 1.074,-1.352 1.066,-1.379 1.079,-1.41 1.082,-1.438 1.086,-1.457 1.089,-1.472 1.102,-1.492 1.098,-1.508 1.109,-1.516 1.105,-1.527 1.114,-1.532 1.121,-1.539 1.121,-1.543 1.129,-1.543 1.133,-1.542 1.14,-1.547 1.145,-1.543 1.148,-1.543 1.153,-1.535 1.156,-1.536 1.164,-1.531 1.168,-1.523 1.172,-1.524 1.179,-1.511 1.188,-1.508 1.184,-1.5 1.191,-1.496 1.203,-1.489 1.199,-1.48 1.207,-1.473 1.219,-1.465 1.215,-1.457 1.223,-1.453 1.23,-1.445 1.234,-1.434 1.239,-1.429 1.246,-1.426 1.25,-1.41 1.258,-1.407 1.257,-1.398 1.266,-1.395 1.273,-1.382 1.278,-1.383 1.285,-1.367 1.289,-1.368 1.293,-1.355 1.297,-1.352 1.305,-1.343 1.312,-1.34 1.313,-1.328 1.32,-1.324 1.328,-1.321 1.336,-1.312 1.336,-1.305 1.344,-1.301 1.347,-1.293 1.36,-1.293 1.363,-1.281 1.367,-1.277 1.375,-1.274 1.375,-1.265 1.383,-1.262 1.391,-1.254 1.398,-1.254 1.398,-1.246 1.411,-1.246 1.414,-1.231 1.422,-1.23 1.425,-1.227 1.434,-1.226 1.437,-1.215 1.446,-1.215 1.453,-1.207 1.457,-1.207 1.461,-1.199 1.472,-1.195 1.481,-1.192 1.477,-1.195 1.488,-1.18 1.496,-1.18 1.5,-1.175 1.508,-1.176 1.515,-1.168 1.52,-1.164 3.062,-2.32 1.539,-1.153 1.547,-1.152 1.555,-1.149 1.559,-1.144 1.566,-1.141 1.578,-1.14 1.574,-1.137 1.594,-1.129 1.59,-1.129 1.598,-1.125 1.609,-1.125 3.234,-2.242" /><path
         id="path70"
         style="fill:none;stroke:#ff00ff;stroke-width:0.80000001;stroke-linecap:square;stroke-linejoin:bevel;stroke-miterlimit:4;stroke-dasharray:none;stroke-opacity:1"
         d="m 104.691,273.099 0.055,-0.004 0.051,0 0.055,-0.004 0.054,0 0.059,-0.004 0.113,0 0.051,-0.004 0.059,0 0.058,-0.003 0.055,0 0.054,-0.004 0.063,0 0.051,-0.004 0.058,0 0.059,-0.008 0.176,0 0.058,-0.004 0.059,0 0.059,-0.004 0.062,0 0.059,-0.004 0.062,0 0.059,-0.004 0.058,0 0.063,-0.004 0.058,0 0.063,-0.004 0.062,0 0.125,-0.007 0.063,0 0.062,-0.004 0.063,0 0.062,-0.008 0.192,0 0.062,-0.004 0.067,-0.004 0.07,0 0.059,-0.004 0.066,0 0.066,-0.004 0.067,0 0.133,-0.008 0.07,0 0.129,-0.007 0.074,0 0.063,-0.008 0.066,0 0.141,-0.004 0.066,0 0.141,-0.008 0.07,0 0.141,-0.008 0.07,0 0.074,-0.004 0.07,-0.003 0.071,0 0.074,-0.004 0.07,-0.004 0.074,0 0.075,-0.008 0.148,0 0.145,-0.008 0.074,0 0.078,-0.004 0.148,-0.008 0.079,0 0.074,-0.004 0.156,-0.007 0.074,0 0.235,-0.012 0.078,0 0.078,-0.004 0.164,-0.008 0.082,0 0.078,-0.004 0.16,-0.008 0.078,-0.003 0.082,-0.004 0.082,0 0.165,-0.012 0.085,0 0.082,-0.004 0.086,-0.004 0.082,0 0.086,-0.004 0.082,-0.004 0.434,-0.023 0.172,0 0.09,-0.004 0.086,-0.004 0.179,-0.008 0.086,-0.004 0.18,-0.007 0.094,-0.004 0.179,-0.012 0.098,0 0.086,-0.004 0.094,-0.004 0.09,-0.004 0.375,-0.015 0.097,-0.004 0.094,-0.008 0.098,0 0.093,-0.004 0.684,-0.027 0.102,-0.004 0.101,-0.008 0.195,-0.008 0.204,-0.008 0.109,-0.004 0.301,-0.011 0.109,-0.012 0.102,0 0.316,-0.012 0.102,-0.008 0.109,-0.004 0.211,-0.007 0.109,-0.012 0.11,0 0.109,-0.004 0.106,-0.004 0.109,-0.008 0.109,-0.004 0.114,-0.003 0.109,-0.004 0.117,-0.012 0.106,0 0.113,-0.004 0.117,-0.008 0.223,-0.008 0.113,-0.007 0.121,-0.004 0.109,-0.004 0.118,-0.008 0.238,-0.008 0.109,-0.008 0.121,-0.004 0.118,-0.007 0.117,-0.004 0.121,-0.008 0.242,-0.008 0.117,-0.008 0.121,-0.004 0.121,-0.007 0.125,-0.004 0.122,-0.012 0.125,0 0.125,-0.008 0.121,-0.004 0.125,-0.008 0.125,-0.004 0.129,-0.007 0.125,-0.012 0.128,0 0.129,-0.008 0.125,-0.004 0.262,-0.015 0.129,-0.004 0.129,-0.012 0.133,0 0.129,-0.008 0.132,-0.008 0.137,-0.004 0.262,-0.019 0.137,0 0.132,-0.008 0.274,-0.016 0.137,-0.003 0.273,-0.016 0.141,-0.008 0.136,-0.004 0.563,-0.031 0.14,-0.004 0.868,-0.047 0.148,-0.004 0.887,-0.047 0.914,-0.046 0.785,-0.04 0.156,-0.011 0.156,-0.008 0.645,-0.031 0.164,-0.008 0.156,-0.012 0.493,-0.023 0.168,-0.008 0.164,-0.012 0.503,-0.023 0.168,-0.012 0.172,-0.008 0.168,-0.008 0.176,-0.011 0.172,-0.012 0.172,-0.004 0.172,-0.012 0.175,-0.007 0.172,-0.008 0.18,-0.012 0.352,-0.016 0.175,-0.011 0.184,-0.012 0.176,-0.008 0.179,-0.008 0.184,-0.011 0.18,-0.012 0.367,-0.016 0.183,-0.011 0.188,-0.008 0.184,-0.012 0.191,-0.008 0.184,-0.012 0.191,-0.007 0.184,-0.012 0.191,-0.008 0.187,-0.012 0.383,-0.023 0.196,-0.008 0.191,-0.008 0.391,-0.023 0.199,-0.008 0.199,-0.012 0.195,-0.011 0.2,-0.012 0.402,-0.02 0.203,-0.011 0.195,-0.008 0.407,-0.024 0.207,-0.011 0.203,-0.008 0.207,-0.012 0.211,-0.012 0.414,-0.023 0.211,-0.008 0.422,-0.027 0.648,-0.031 0.215,-0.012 0.211,-0.008 0.875,-0.047 1.117,-0.058 0.449,-0.024 0.231,-0.012 0.226,-0.011 0.692,-0.035 0.941,-0.047 0.949,-0.051 0.973,-0.043 0.734,-0.039 0.25,-0.008 0.246,-0.016 0.25,-0.011 0.254,-0.012 0.25,-0.012 0.512,-0.027 0.254,-0.008 0.254,-0.012 0.258,-0.011 0.261,-0.012 0.258,-0.016 0.785,-0.035 0.797,-0.035 1.078,-0.047 0.274,-0.015 0.547,-0.024 0.832,-0.035 1.125,-0.047 0.859,-0.035 0.863,-0.039 0.879,-0.031 0.891,-0.036 0.301,-0.011 0.297,-0.012 0.304,-0.008 0.305,-0.012 0.605,-0.023 0.618,-0.023 0.312,-0.012 0.309,-0.008 0.308,-0.012 0.633,-0.023 0.313,-0.008 0.32,-0.012 0.316,-0.007 0.321,-0.012 0.32,-0.008 0.648,-0.023 0.329,-0.012 0.324,-0.008 0.328,-0.008 0.332,-0.011 0.664,-0.016 0.332,-0.012 0.336,-0.008 0.34,-0.007 0.336,-0.016 0.679,-0.012 0.688,-0.015 0.348,-0.012 0.695,-0.016 1.055,-0.027 0.359,0 0.351,-0.008 1.079,-0.023 0.363,-0.008 0.726,-0.012 0.368,-0.004 0.367,-0.008 0.746,-0.007 0.371,-0.012 0.75,-0.004 0.379,-0.008 0.379,-0.004 1.148,-0.011 0.774,-0.008 0.39,-0.008 0.391,0 0.789,-0.004 0.395,0 0.398,-0.004 0.398,0 0.403,-0.004 0.808,0 0.407,-0.004 2.472,0 0.426,0.004 0.836,0 0.426,0.004 0.426,0 0.425,0.004 0.43,0.004 0.871,0 0.43,0.008 0.875,0.008 0.445,0.007 0.438,0.004 0.445,0.004 0.445,0.008 0.449,0.004 0.45,0.008 0.453,0.004 0.453,0.007 0.914,0.016 0.922,0.016 0.93,0.015 0.468,0.012 0.473,0.004 0.469,0.012 0.472,0.011 0.477,0.012 0.477,0.008 0.96,0.023 0.973,0.02 0.484,0.015 0.985,0.024 0.492,0.016 0.5,0.015 0.5,0.012 0.5,0.016 0.5,0.011 0.504,0.016 1.016,0.031 0.511,0.016 1.551,0.047 0.52,0.015 0.523,0.016 1.047,0.039 1.062,0.031 1.071,0.039 0.539,0.016 0.539,0.019 0.543,0.02 0.543,0.016 0.547,0.019 0.55,0.02 0.559,0.019 0.551,0.012 0.554,0.023 0.563,0.016 1.125,0.043 0.562,0.016 1.145,0.039 0.57,0.019 0.578,0.016 0.579,0.019 0.582,0.016 0.582,0.019 0.586,0.016 0.589,0.02 0.59,0.015 0.598,0.012 1.191,0.035 0.602,0.016 0.601,0.011 0.606,0.016 0.609,0.008 0.614,0.019 0.613,0.012 0.621,0.008 1.238,0.023 1.25,0.016 0.637,0.004 1.262,0.012 1.281,0.007 0.641,0 0.648,0.004 0.648,-0.004 0.653,0 0.656,-0.003 0.656,-0.008 0.66,-0.008 0.664,-0.004 0.665,-0.012 0.668,-0.011 0.671,-0.016 1.352,-0.027 0.68,-0.02 0.683,-0.019 1.375,-0.047 0.692,-0.028 0.695,-0.027 1.398,-0.063 0.704,-0.035 0.707,-0.035 0.71,-0.039 0.711,-0.043 1.438,-0.086 0.723,-0.051 0.722,-0.046 1.465,-0.11 0.731,-0.055 1.48,-0.117 0.746,-0.066 0.742,-0.063 0.75,-0.066 1.512,-0.141 0.758,-0.07 0.762,-0.078 0.769,-0.07 0.766,-0.079 0.777,-0.078 0.774,-0.078 0.781,-0.078 0.781,-0.082 1.578,-0.164 0.793,-0.082 0.797,-0.082 1.598,-0.164 1.617,-0.168 0.812,-0.074 0.817,-0.082 0.82,-0.075 0.824,-0.078 0.828,-0.07 1.664,-0.141 1.684,-0.125 0.844,-0.062 0.847,-0.047 0.852,-0.051 0.855,-0.043 0.86,-0.039 0.867,-0.035 0.863,-0.027 0.871,-0.024 0.875,-0.015 0.879,-0.012 0.887,-0.004 0.879,0.004 0.891,0.012 0.898,0.015 0.891,0.024 0.902,0.027 0.91,0.035 0.902,0.039 0.915,0.043 0.914,0.047 0.921,0.047 1.856,0.098 0.93,0.043 1.875,0.054 0.945,0.008 0.945,-0.016 0.953,-0.039 0.957,-0.074 0.961,-0.117 0.969,-0.164 0.965,-0.219 0.969,-0.289 0.976,-0.367 0.985,-0.457 0.984,-0.555 0.988,-0.664 0.992,-0.781 1,-0.906 1,-1.036 1.008,-1.175 1.012,-1.309 1.012,-1.449 1.019,-1.582 1.024,-1.711 1.031,-1.832 1.035,-1.942 1.031,-2.05 1.043,-2.141 1.043,-2.226 1.055,-2.297 1.051,-2.364 1.058,-2.414 1.063,-2.461 1.074,-2.5 1.066,-2.527 1.079,-2.551 1.082,-2.57 1.086,-2.582 1.089,-2.594 1.102,-2.601 1.098,-2.606 1.109,-2.605 1.105,-2.61 1.114,-2.609 2.242,-5.195 1.129,-2.598 1.133,-2.586 1.14,-2.582 1.145,-2.582 1.148,-2.57 1.153,-2.571 1.156,-2.566 1.164,-2.555 1.168,-2.554 1.172,-2.551 1.179,-2.551 1.188,-2.543 1.184,-2.539 1.191,-2.539 1.203,-2.535 1.199,-2.539 1.207,-2.536 1.219,-2.535 1.215,-2.535 1.223,-2.535 1.23,-2.539 1.234,-2.539 1.239,-2.543 1.246,-2.547 1.25,-2.551 1.258,-2.554 1.257,-2.559 1.266,-2.566 1.273,-2.571 1.278,-2.578 1.285,-2.586 1.289,-2.594 1.293,-2.601 1.297,-2.613 1.305,-2.621 1.312,-2.633 1.313,-2.645 1.32,-2.656 1.328,-2.668 1.336,-2.684 1.336,-2.695 1.344,-2.707 1.347,-2.727 1.36,-2.742 1.363,-2.758 1.367,-2.777 1.375,-2.797 1.375,-2.812 1.383,-2.84 1.391,-2.848 1.398,-2.879 1.398,-2.898 1.411,-2.922 1.414,-2.945 1.422,-2.973 1.425,-3 1.434,-3.027 1.437,-3.051 1.446,-3.086 1.453,-3.113 1.457,-3.149 1.461,-3.179 0.047,-0.098" /><path
         id="path72"
         style="fill:none;stroke:#00ff00;stroke-width:0.80000001;stroke-linecap:square;stroke-linejoin:bevel;stroke-miterlimit:4;stroke-dasharray:none;stroke-opacity:1"
         d="m 104.691,273.064 0.055,-0.004 0.051,0 0.109,-0.008 0.059,0 0.055,-0.004 0.058,0 0.051,-0.004 0.059,0 0.058,-0.004 0.055,0 0.054,-0.003 0.063,0 0.051,-0.004 0.058,-0.004 0.059,0 0.059,-0.008 0.175,0 0.118,-0.008 0.062,0 0.059,-0.004 0.062,0 0.117,-0.008 0.063,0 0.058,-0.004 0.063,-0.003 0.062,0 0.063,-0.004 0.062,0 0.125,-0.008 0.063,0 0.125,-0.008 0.066,0 0.125,-0.008 0.067,0 0.07,-0.004 0.059,-0.004 0.066,-0.003 0.066,0 0.137,-0.008 0.063,0 0.132,-0.008 0.067,0 0.074,-0.004 0.129,-0.008 0.07,0 0.071,-0.004 0.066,-0.004 0.07,-0.004 0.071,0 0.281,-0.019 0.144,0 0.071,-0.004 0.074,-0.004 0.07,-0.004 0.074,0 0.075,-0.004 0.07,-0.004 0.223,-0.011 0.074,0 0.078,-0.008 0.148,-0.004 0.079,-0.004 0.074,-0.004 0.156,-0.008 0.074,0 0.391,-0.023 0.082,0 0.164,-0.008 0.078,-0.004 0.16,-0.008 0.078,-0.004 0.329,-0.019 0.085,0 0.082,-0.004 0.086,-0.004 0.082,-0.004 0.086,-0.004 0.082,-0.004 0.434,-0.019 0.172,-0.008 0.09,-0.004 0.086,-0.004 0.089,-0.004 0.09,-0.007 0.086,-0.004 0.18,-0.012 0.094,0 0.179,-0.008 0.098,-0.004 0.086,-0.008 0.094,-0.004 0.09,-0.003 0.191,-0.008 0.09,-0.008 0.094,-0.004 0.097,-0.004 0.094,-0.004 0.098,-0.008 0.093,-0.004 0.196,-0.007 0.097,-0.012 0.293,-0.008 0.098,-0.008 0.203,-0.007 0.195,-0.016 0.102,0 0.102,-0.008 0.109,-0.004 0.098,-0.008 0.203,-0.007 0.109,-0.008 0.102,-0.008 0.316,-0.012 0.102,-0.008 0.109,-0.004 0.211,-0.015 0.219,-0.008 0.109,-0.008 0.106,-0.004 0.109,-0.007 0.109,-0.004 0.114,-0.012 0.109,0 0.117,-0.008 0.106,-0.008 0.113,-0.004 0.117,-0.007 0.109,-0.004 0.227,-0.016 0.121,-0.004 0.109,-0.008 0.118,-0.004 0.238,-0.019 0.109,-0.004 0.121,-0.004 0.235,-0.016 0.121,-0.003 0.242,-0.016 0.117,-0.008 0.121,-0.004 0.121,-0.008 0.125,-0.007 0.122,-0.008 0.125,-0.008 0.125,-0.004 0.121,-0.008 0.25,-0.015 0.129,-0.012 0.125,-0.004 0.128,-0.004 0.129,-0.008 0.125,-0.008 0.262,-0.019 0.129,-0.004 0.129,-0.008 0.133,-0.008 0.129,-0.007 0.531,-0.032 0.137,-0.008 0.132,-0.007 0.684,-0.039 0.141,-0.012 0.136,-0.008 0.563,-0.035 0.14,-0.008 0.434,-0.023 0.141,-0.008 0.148,-0.012 0.145,-0.008 0.148,-0.007 0.145,-0.008 0.152,-0.012 0.293,-0.016 0.297,-0.023 0.156,-0.004 0.148,-0.012 0.153,-0.008 0.156,-0.015 0.301,-0.012 0.16,-0.012 0.152,-0.007 0.157,-0.012 0.156,-0.008 0.16,-0.012 0.156,-0.007 0.156,-0.016 0.161,-0.004 0.16,-0.012 0.16,-0.008 0.164,-0.015 0.164,-0.008 0.156,-0.008 0.164,-0.011 0.164,-0.008 0.165,-0.012 0.168,-0.012 0.164,-0.008 0.336,-0.023 0.167,-0.008 0.168,-0.012 0.172,-0.015 0.168,-0.004 0.348,-0.023 0.172,-0.016 0.172,-0.004 0.175,-0.012 0.172,-0.011 0.18,-0.016 0.176,-0.008 0.176,-0.012 0.175,-0.007 0.539,-0.036 0.184,-0.011 0.18,-0.012 0.738,-0.047 0.184,-0.008 0.75,-0.047 0.191,-0.011 0.187,-0.016 0.383,-0.023 0.196,-0.012 0.191,-0.012 0.391,-0.027 0.199,-0.008 0.199,-0.012 0.395,-0.023 0.199,-0.016 0.203,-0.011 0.203,-0.016 0.195,-0.008 0.204,-0.012 0.203,-0.019 0.207,-0.008 0.203,-0.012 0.207,-0.011 0.211,-0.012 0.207,-0.016 0.207,-0.011 0.422,-0.024 0.211,-0.016 0.429,-0.023 0.219,-0.016 0.426,-0.023 0.219,-0.016 0.441,-0.023 0.215,-0.016 0.449,-0.027 0.219,-0.012 0.449,-0.027 0.223,-0.012 0.226,-0.012 0.231,-0.011 0.226,-0.016 0.231,-0.012 0.23,-0.019 0.231,-0.008 0.238,-0.012 0.23,-0.015 0.235,-0.012 0.238,-0.016 0.473,-0.023 0.242,-0.016 0.234,-0.011 0.243,-0.016 0.242,-0.012 0.242,-0.015 0.492,-0.024 0.242,-0.015 0.246,-0.016 0.25,-0.012 0.246,-0.012 0.25,-0.015 0.254,-0.012 0.25,-0.012 0.254,-0.019 0.258,-0.008 0.254,-0.016 0.254,-0.011 0.258,-0.012 0.261,-0.016 0.258,-0.011 0.262,-0.012 0.262,-0.016 0.261,-0.011 0.27,-0.012 0.262,-0.016 0.265,-0.011 0.27,-0.016 0.269,-0.012 0.539,-0.027 0.821,-0.035 0.281,-0.012 0.273,-0.016 0.278,-0.011 0.562,-0.024 0.563,-0.031 0.859,-0.031 0.863,-0.035 0.879,-0.036 0.891,-0.035 0.301,-0.011 0.297,-0.016 0.304,-0.008 0.305,-0.012 0.301,-0.007 0.304,-0.016 0.618,-0.02 0.312,-0.007 0.309,-0.016 0.308,-0.008 0.317,-0.008 0.316,-0.011 0.313,-0.012 0.32,-0.008 0.316,-0.008 0.321,-0.011 0.32,-0.008 0.328,-0.008 0.32,-0.012 0.329,-0.008 0.324,-0.007 0.328,-0.012 0.332,-0.004 0.332,-0.012 0.664,-0.015 0.336,-0.012 0.34,0 0.336,-0.008 0.679,-0.016 0.348,-0.007 0.34,-0.004 0.699,-0.016 0.344,-0.004 0.351,-0.008 0.704,-0.007 0.359,-0.012 0.351,-0.004 1.079,-0.008 1.089,-0.012 0.735,-0.007 0.371,0 0.375,-0.004 0.371,0 0.379,-0.008 4.621,0 0.395,0.008 0.398,0.004 0.398,0 0.809,0.007 1.215,0.012 0.828,0.008 0.406,0.004 0.422,0.012 0.41,0.003 0.426,0.008 0.418,0.008 0.418,0.004 0.852,0.016 0.425,0.011 0.43,0.008 0.434,0.008 0.437,0.012 0.43,0.008 0.875,0.023 0.445,0.004 0.438,0.015 0.89,0.024 0.449,0.016 0.45,0.011 0.453,0.012 0.453,0.016 0.457,0.015 0.457,0.012 0.922,0.031 0.93,0.031 0.468,0.016 0.473,0.02 0.941,0.031 0.954,0.039 0.48,0.016 0.48,0.019 0.973,0.039 0.484,0.02 0.985,0.039 0.492,0.023 1,0.039 1,0.047 0.504,0.02 1.016,0.047 0.511,0.019 1.551,0.07 0.52,0.02 0.523,0.027 1.047,0.047 1.062,0.047 1.071,0.043 1.078,0.051 1.086,0.047 0.547,0.023 0.55,0.023 0.559,0.024 0.551,0.019 0.554,0.024 0.563,0.023 0.559,0.016 0.566,0.027 0.562,0.016 1.145,0.043 0.57,0.019 1.157,0.039 1.164,0.032 0.586,0.015 1.179,0.032 0.598,0.011 0.594,0.016 0.597,0.004 1.203,0.027 0.606,0.008 0.609,0.004 0.614,0.008 0.613,0.004 0.621,0.004 1.238,0 0.625,-0.004 0.625,0 0.637,-0.012 0.629,0 0.633,-0.012 0.64,-0.008 0.641,-0.011 0.641,-0.016 0.648,-0.016 0.648,-0.019 0.653,-0.02 1.312,-0.047 0.66,-0.027 0.664,-0.031 0.665,-0.027 0.668,-0.036 0.671,-0.035 1.352,-0.078 0.68,-0.043 0.683,-0.047 0.688,-0.047 0.687,-0.05 0.692,-0.055 0.695,-0.055 1.398,-0.117 0.704,-0.062 0.707,-0.067 0.71,-0.066 0.711,-0.071 0.723,-0.07 0.715,-0.074 0.723,-0.074 0.722,-0.078 0.731,-0.079 0.734,-0.082 0.731,-0.082 0.738,-0.082 0.742,-0.086 0.746,-0.086 0.742,-0.089 0.75,-0.086 0.758,-0.094 0.754,-0.082 1.52,-0.18 0.769,-0.09 0.766,-0.086 0.777,-0.089 0.774,-0.086 0.781,-0.086 0.781,-0.082 0.789,-0.082 0.789,-0.078 0.793,-0.079 1.594,-0.148 0.801,-0.063 0.812,-0.062 0.805,-0.059 0.812,-0.05 0.817,-0.055 0.82,-0.043 0.824,-0.031 0.828,-0.032 0.832,-0.023 0.832,-0.02 0.84,-0.007 0.844,-0.004 0.844,0.004 0.847,0.011 0.852,0.02 0.855,0.027 0.86,0.035 0.867,0.039 0.863,0.051 0.871,0.055 0.875,0.059 0.879,0.062 0.887,0.066 0.879,0.063 0.891,0.066 0.898,0.059 0.891,0.051 0.902,0.035 0.91,0.023 0.902,0 0.915,-0.031 0.914,-0.066 0.921,-0.11 0.926,-0.168 0.93,-0.234 0.93,-0.301 0.937,-0.387 0.938,-0.488 0.945,-0.598 0.945,-0.71 0.953,-0.848 0.957,-0.969 0.961,-1.117 0.969,-1.262 0.965,-1.402 0.969,-1.543 0.976,-1.684 0.985,-1.816 0.984,-1.93 0.988,-2.043 0.992,-2.144 1,-2.235 1,-2.312 1.008,-2.383 1.012,-2.437 1.012,-2.485 1.019,-2.523 1.024,-2.559 1.031,-2.582 1.035,-2.598 1.031,-2.617 1.043,-2.625 1.043,-2.633 1.055,-2.636 1.051,-2.637 1.058,-2.637 1.063,-2.633 1.074,-2.632 1.066,-2.625 1.079,-2.621 1.082,-2.618 1.086,-2.609 1.089,-2.605 1.102,-2.598 1.098,-2.594 1.109,-2.59 1.105,-2.582 1.114,-2.578 1.121,-2.574 1.121,-2.57 1.129,-2.567 1.133,-2.562 1.14,-2.563 1.145,-2.558 1.148,-2.559 1.153,-2.559 1.156,-2.554 1.164,-2.559 1.168,-2.562 1.172,-2.559 1.179,-2.562 1.188,-2.567 1.184,-2.574 1.191,-2.57 1.203,-2.579 1.199,-2.585 1.207,-2.59 1.219,-2.598 1.215,-2.605 1.223,-2.614 1.23,-2.621 1.234,-2.629 1.239,-2.64 1.246,-2.653 1.25,-2.664 1.258,-2.676 1.257,-2.687 1.266,-2.703 1.273,-2.715 1.278,-2.73 1.285,-2.747 1.289,-2.769 1.293,-2.774 1.297,-2.8 1.305,-2.817 1.312,-2.836 1.313,-2.859 1.32,-2.879 1.328,-2.902 1.336,-2.922 1.336,-2.953 1.344,-2.973 1.347,-3 1.36,-3.027 1.363,-3.059 1.367,-3.086 1.375,-3.113 1.375,-3.149 1.383,-3.183 1.391,-3.215 0.785,-1.828" /><path
         id="path74"
         style="fill:none;stroke:#00ffff;stroke-width:0.80000001;stroke-linecap:square;stroke-linejoin:bevel;stroke-miterlimit:4;stroke-dasharray:none;stroke-opacity:1"
         d="m 104.691,273.185 0.055,0 0.051,-0.004 0.168,0 0.055,-0.004 0.168,0 0.058,-0.004 0.109,0 0.063,-0.004 0.168,0 0.059,-0.004 0.117,0 0.058,-0.003 0.18,0 0.059,-0.004 0.179,0 0.063,-0.004 0.121,0 0.062,-0.008 0.375,0 0.063,-0.004 0.129,0 0.062,-0.004 0.137,0 0.059,-0.004 0.132,0 0.067,-0.004 0.133,0 0.07,-0.004 0.129,0 0.074,-0.004 0.129,0 0.07,-0.003 0.137,0 0.07,-0.004 0.141,0 0.07,-0.008 0.141,0 0.074,-0.004 0.359,0 0.075,-0.004 0.148,0 0.07,-0.004 0.075,0 0.074,-0.004 0.156,0 0.07,-0.004 0.153,0 0.078,-0.004 0.078,0 0.074,-0.003 0.156,0 0.079,-0.004 0.156,0 0.082,-0.004 0.082,0 0.082,-0.008 0.316,0 0.082,-0.004 0.082,0 0.082,-0.004 0.168,0 0.082,-0.004 0.086,0 0.082,-0.004 0.168,0 0.086,-0.004 0.086,0 0.09,-0.004 0.086,0 0.086,-0.003 0.086,0 0.086,-0.004 0.176,0 0.089,-0.004 0.09,0 0.086,-0.008 0.274,0 0.09,-0.004 0.089,0 0.098,-0.004 0.086,0 0.094,-0.004 0.09,0 0.093,-0.004 0.188,0 0.094,-0.004 0.097,0 0.094,-0.004 0.098,0 0.093,-0.003 0.102,0 0.094,-0.004 0.097,0 0.102,-0.008 0.289,0 0.203,-0.008 0.098,0 0.097,-0.004 0.102,0 0.102,-0.004 0.109,0 0.098,-0.004 0.105,0 0.098,-0.004 0.109,0 0.102,-0.003 0.105,0 0.211,-0.008 0.102,0 0.109,-0.008 0.32,0 0.219,-0.008 0.106,0 0.109,-0.004 0.109,0 0.114,-0.004 0.109,-0.004 0.117,0 0.106,-0.004 0.113,0 0.226,-0.007 0.114,0 0.113,-0.004 0.121,0 0.109,-0.008 0.235,0 0.121,-0.004 0.109,-0.004 0.121,0 0.235,-0.008 0.121,0 0.121,-0.004 0.121,0 0.238,-0.007 0.121,0 0.125,-0.004 0.122,-0.008 0.125,-0.004 0.246,0 0.125,-0.004 0.125,0 0.129,-0.004 0.125,-0.004 0.128,0 0.129,-0.004 0.125,-0.004 0.129,-0.003 0.133,0 0.258,-0.008 0.133,0 0.129,-0.008 0.269,-0.004 0.129,0 0.133,-0.004 0.137,-0.004 0.132,-0.004 0.141,0 0.543,-0.015 0.141,0 0.136,-0.004 0.426,-0.012 0.137,0 0.14,-0.004 0.434,-0.012 0.141,0 0.148,-0.004 0.145,-0.003 0.445,-0.012 0.144,0 0.446,-0.012 0.613,-0.015 0.148,0 0.153,-0.004 0.785,-0.02 0.312,-0.008 0.645,-0.015 0.164,0 0.156,-0.004 0.493,-0.012 0.168,-0.004 0.164,-0.004 0.671,-0.015 0.172,-0.004 0.168,-0.008 0.348,-0.004 0.344,-0.008 0.175,-0.004 0.172,-0.004 0.18,-0.007 0.176,-0.004 0.351,-0.012 0.539,-0.008 0.184,-0.004 0.18,-0.004 0.55,-0.011 0.188,-0.008 0.934,-0.02 0.191,-0.004 0.187,-0.004 0.192,-0.007 0.191,-0.004 0.196,-0.008 0.191,0 0.391,-0.008 0.199,-0.008 0.199,-0.004 0.594,-0.011 0.203,-0.012 0.203,0 0.195,-0.004 0.204,-0.004 0.203,-0.008 0.207,-0.004 0.203,-0.004 0.207,-0.003 0.211,-0.008 0.414,-0.008 0.211,-0.004 0.211,-0.008 0.211,-0.004 0.214,-0.004 0.215,-0.007 0.434,-0.012 0.211,-0.004 0.66,-0.012 0.215,-0.008 0.223,-0.003 0.226,-0.008 0.442,-0.008 0.226,-0.008 0.449,-0.008 0.231,-0.008 0.226,-0.003 0.231,-0.008 0.461,-0.008 0.238,-0.008 0.23,-0.004 0.235,-0.008 0.238,-0.004 0.235,-0.003 0.238,-0.012 0.242,0 0.234,-0.008 0.243,-0.004 0.242,-0.008 0.488,-0.007 0.246,-0.008 0.242,-0.008 0.246,-0.004 0.25,-0.004 0.246,-0.008 0.25,-0.004 0.254,-0.007 0.25,-0.004 0.254,-0.012 0.258,0 0.254,-0.008 0.254,-0.004 0.258,-0.008 0.261,-0.004 0.258,-0.007 0.262,-0.008 0.523,-0.012 0.27,-0.004 0.262,-0.008 0.265,-0.003 0.539,-0.016 0.539,-0.008 0.547,-0.016 0.274,-0.003 0.281,-0.008 0.273,-0.008 0.278,-0.004 0.281,-0.004 0.562,-0.016 0.282,-0.003 0.285,-0.012 0.289,0 0.57,-0.016 0.289,-0.004 0.289,-0.007 0.293,-0.004 0.586,-0.016 0.301,-0.004 0.297,-0.008 0.293,-0.004 0.301,-0.007 0.297,-0.008 0.304,-0.008 0.305,-0.004 0.301,-0.004 0.304,-0.008 0.313,-0.008 0.305,-0.003 0.312,-0.012 0.617,-0.008 0.317,-0.008 0.316,-0.004 0.313,-0.007 0.32,-0.008 0.316,-0.008 0.641,-0.008 0.648,-0.016 0.329,-0.003 0.324,-0.008 0.328,-0.008 0.664,-0.008 0.664,-0.016 0.336,-0.003 0.34,-0.012 0.336,0 0.34,-0.008 0.339,-0.004 0.348,-0.008 0.34,-0.004 0.348,-0.007 0.351,-0.004 0.344,-0.008 0.351,-0.004 0.352,-0.008 0.352,-0.004 0.359,-0.008 0.351,-0.003 0.719,-0.016 0.36,-0.004 0.363,-0.004 0.367,-0.008 0.359,-0.004 0.368,-0.004 0.367,-0.007 0.371,-0.008 1.125,-0.012 0.371,-0.008 0.758,-0.007 0.383,-0.008 0.765,-0.008 0.387,-0.004 0.387,-0.008 0.781,-0.008 0.789,-0.007 0.395,-0.008 0.796,-0.008 0.809,-0.008 1.215,-0.012 0.828,-0.007 0.406,-0.004 0.422,-0.008 0.41,0 0.426,-0.004 0.836,-0.008 1.277,-0.012 0.43,0 1.301,-0.011 0.437,0 0.438,-0.008 0.883,0 0.89,-0.008 0.449,0 0.45,-0.004 0.453,0 0.453,-0.004 0.457,0 0.457,-0.004 0.461,0 0.461,-0.004 0.93,0 0.468,-0.003 0.942,0 0.472,-0.004 1.914,0 0.485,-0.004 8.031,0 0.52,0.004 3.703,0 0.539,0.004 7.781,0 0.57,-0.004 1.157,0 0.582,-0.004 1.168,0 1.179,-0.008 0.598,0 1.191,-0.008 1.203,-0.008 0.606,-0.004 0.609,-0.007 0.614,-0.004 0.613,-0.012 0.621,0 1.238,-0.016 1.25,-0.015 0.637,-0.008 0.629,-0.012 0.633,-0.008 1.922,-0.035 0.648,-0.015 0.648,-0.012 1.309,-0.031 1.316,-0.032 0.664,-0.023 0.665,-0.012 0.668,-0.019 0.671,-0.02 0.68,-0.023 0.672,-0.02 0.68,-0.023 0.683,-0.024 0.688,-0.027 0.687,-0.023 0.692,-0.028 0.695,-0.031 0.703,-0.027 0.695,-0.028 0.704,-0.031 0.707,-0.031 0.71,-0.032 0.711,-0.035 1.438,-0.07 1.445,-0.07 1.465,-0.078 0.731,-0.039 0.738,-0.043 0.742,-0.04 0.746,-0.042 0.742,-0.04 0.75,-0.043 0.758,-0.046 0.754,-0.043 1.52,-0.086 0.769,-0.051 0.766,-0.039 0.777,-0.047 0.774,-0.043 0.781,-0.043 0.781,-0.047 1.578,-0.086 0.793,-0.043 0.797,-0.039 0.797,-0.043 0.801,-0.039 0.812,-0.039 0.805,-0.035 0.812,-0.039 0.817,-0.031 0.82,-0.036 0.824,-0.027 0.828,-0.031 1.664,-0.047 0.84,-0.023 0.844,-0.02 0.844,-0.016 0.847,-0.011 0.852,-0.012 0.855,-0.008 0.86,-0.004 0.867,-0.004 0.863,0 0.871,0.004 0.875,0.004 0.879,0.012 0.887,0.008 0.879,0.011 0.891,0.012 0.898,0.012 0.891,0.015 0.902,0.016 1.812,0.016 0.915,0.004 0.914,-0.004 0.921,-0.008 0.926,-0.024 0.93,-0.031 0.93,-0.047 0.937,-0.066 0.938,-0.086 0.945,-0.109 0.945,-0.137 0.953,-0.176 0.957,-0.207 0.961,-0.254 0.969,-0.297 0.965,-0.355 0.969,-0.406 0.976,-0.473 0.985,-0.543 0.984,-0.613 0.988,-0.692 0.992,-0.773 1,-0.856 1,-0.945 1.008,-1.035 1.012,-1.113 1.012,-1.207 1.019,-1.293 1.024,-1.375 1.031,-1.453 1.035,-1.532 1.031,-1.601 1.043,-1.676 1.043,-1.727 1.055,-1.785 1.051,-1.836 1.058,-1.883 1.063,-1.921 1.074,-1.961 1.066,-1.989 1.079,-2.015 1.082,-2.035 1.086,-2.059 1.089,-2.078 1.102,-2.086 1.098,-2.09 1.109,-2.105 1.105,-2.11 1.114,-2.113 1.121,-2.121 1.121,-2.117 1.129,-2.118 1.133,-2.117 1.14,-2.117 1.145,-2.117 1.148,-2.106 1.153,-2.109 1.156,-2.105 1.164,-2.102 1.168,-2.094 1.172,-2.093 1.179,-2.09 1.188,-2.09 1.184,-2.074 1.191,-2.078 1.203,-2.075 1.199,-2.066 1.207,-2.067 1.219,-2.062 1.215,-2.059 1.223,-2.054 1.23,-2.055 1.234,-2.051 1.239,-2.047 1.246,-2.047 1.25,-2.046 2.515,-4.086 1.266,-2.039 1.273,-2.043 1.278,-2.039 1.285,-2.043 1.289,-2.043 1.293,-2.043 1.297,-2.043 1.305,-2.051 1.312,-2.047 1.313,-2.051 1.32,-2.051 1.328,-2.058 2.672,-4.125 1.344,-2.07 1.347,-2.071 2.723,-4.164 1.367,-2.09 1.375,-2.097 1.375,-2.106 1.383,-2.113 1.391,-2.121 1.398,-2.129 1.398,-2.133 1.411,-2.144 1.414,-2.161 1.422,-2.164 1.425,-2.179 1.434,-2.192 1.437,-2.203 1.446,-2.215 1.453,-2.23 1.457,-2.25 1.461,-2.254 1.472,-2.277 1.481,-2.293 1.477,-2.313 1.488,-2.328 1.496,-2.348 1.5,-2.371 1.508,-2.39 1.515,-2.414 1.52,-2.438 1.531,-2.465 1.531,-2.488 1.539,-2.516 1.547,-2.543 1.555,-2.574 1.559,-2.613 1.566,-2.637 1.578,-2.68 1.574,-2.71 1.594,-2.754 1.094,-1.93" /><path
         id="path76"
         style="fill:#000000;fill-opacity:1;fill-rule:nonzero;stroke:none"
         d="m 93.629,23.759 c 0,2.36 -0.75,3.531 -2.219,3.531 -1.469,0 -2.234,-1.187 -2.234,-3.468 0,-2.297 0.781,-3.469 2.234,-3.469 1.438,0 2.219,1.172 2.219,3.406 z m -0.859,0.078 c 0,-1.922 -0.438,-2.781 -1.375,-2.781 -0.891,0 -1.344,0.891 -1.344,2.75 0,1.875 0.453,2.734 1.359,2.734 0.906,0 1.36,-0.875 1.36,-2.703 z" /><path
         id="path78"
         style="fill:#000000;fill-opacity:1;fill-rule:nonzero;stroke:none"
         d="m 150.496,22.744 c 0,1.343 -0.891,2.234 -2.203,2.234 -0.469,0 -0.859,-0.125 -1.25,-0.422 l 0.266,1.766 2.828,0 0,0.828 -3.5,0 -0.516,-3.563 0.781,0 c 0.391,0.469 0.719,0.641 1.25,0.641 0.907,0 1.485,-0.594 1.485,-1.594 0,-0.984 -0.578,-1.531 -1.485,-1.531 -0.75,0 -1.203,0.375 -1.39,1.141 l -0.86,0 c 0.282,-1.36 1.047,-1.891 2.266,-1.891 1.375,0 2.328,0.953 2.328,2.391 z" /><path
         id="path80"
         style="fill:#000000;fill-opacity:1;fill-rule:nonzero;stroke:none"
         d="m 155.832,22.775 c 0,0.734 -0.062,1.187 -0.203,1.562 -0.328,0.828 -1.094,1.328 -2.031,1.328 -1.407,0 -2.297,-1.031 -2.297,-2.687 0,-1.656 0.859,-2.625 2.281,-2.625 1.141,0 1.938,0.656 2.141,1.672 l -0.797,0 c -0.219,-0.672 -0.672,-0.938 -1.313,-0.938 -0.843,0 -1.468,0.532 -1.484,1.688 l 3.703,0 z m -0.859,0.719 c 0,0 0,-0.047 0,-0.063 l -2.828,0 c 0.078,0.891 0.64,1.5 1.437,1.5 0.797,0 1.391,-0.656 1.391,-1.437 z" /><path
         id="path82"
         style="fill:#000000;fill-opacity:1;fill-rule:nonzero;stroke:none"
         d="m 161.172,22.415 c 0,0.75 -0.391,1.282 -1.172,1.657 0.703,0.422 0.938,0.765 0.938,1.406 0,1.062 -0.844,1.812 -2.047,1.812 -1.203,0 -2.047,-0.75 -2.047,-1.812 0,-0.625 0.234,-0.969 0.922,-1.406 -0.782,-0.375 -1.157,-0.907 -1.157,-1.657 0,-1.234 0.938,-2.062 2.282,-2.062 1.343,0 2.281,0.828 2.281,2.062 z m -1.11,3.047 c 0,-0.625 -0.468,-1.047 -1.171,-1.047 -0.719,0 -1.188,0.422 -1.188,1.063 0,0.641 0.469,1.062 1.188,1.062 0.718,0 1.171,-0.421 1.171,-1.078 z m 0.25,-3.062 c 0,-0.797 -0.578,-1.297 -1.437,-1.297 -0.828,0 -1.406,0.5 -1.406,1.297 0,0.797 0.578,1.297 1.422,1.297 0.843,0 1.421,-0.5 1.421,-1.297 z" /><path
         id="path84"
         style="fill:#000000;fill-opacity:1;fill-rule:nonzero;stroke:none"
         d="m 212.098,20.494 0,6.796 -0.563,0 c -0.297,-1.046 -0.484,-1.187 -1.781,-1.343 l 0,-0.61 1.5,0 0,-4.843 0.844,0 z" /><path
         id="path86"
         style="fill:#000000;fill-opacity:1;fill-rule:nonzero;stroke:none"
         d="m 219.031,22.775 c 0,0.734 -0.062,1.187 -0.203,1.562 -0.328,0.828 -1.094,1.328 -2.031,1.328 -1.406,0 -2.297,-1.031 -2.297,-2.687 0,-1.656 0.859,-2.625 2.281,-2.625 1.141,0 1.938,0.656 2.141,1.672 l -0.797,0 c -0.219,-0.672 -0.672,-0.938 -1.313,-0.938 -0.843,0 -1.468,0.532 -1.484,1.688 l 3.703,0 z m -0.859,0.719 c 0,0 0,-0.047 0,-0.063 l -2.828,0 c 0.078,0.891 0.64,1.5 1.437,1.5 0.797,0 1.391,-0.656 1.391,-1.437 z" /><path
         id="path88"
         style="fill:#000000;fill-opacity:1;fill-rule:nonzero;stroke:none"
         d="m 224.336,24.056 c 0,2.125 -0.75,3.234 -2.297,3.234 -1.297,0 -2.234,-0.921 -2.234,-2.25 0,-1.265 0.875,-2.125 2.093,-2.125 0.641,0 1.11,0.235 1.563,0.766 -0.016,-1.656 -0.547,-2.578 -1.516,-2.578 -0.593,0 -1.015,0.375 -1.14,1.016 l -0.844,0 c 0.156,-1.11 0.891,-1.766 1.922,-1.766 1.594,0 2.453,1.344 2.453,3.703 z m -0.922,1 c 0,-0.828 -0.594,-1.391 -1.422,-1.391 -0.812,0 -1.312,0.532 -1.312,1.438 0,0.875 0.562,1.453 1.343,1.453 0.797,0 1.391,-0.609 1.391,-1.5 z" /><path
         id="path90"
         style="fill:#000000;fill-opacity:1;fill-rule:nonzero;stroke:none"
         d="m 270.496,20.494 0,6.796 -0.562,0 c -0.297,-1.046 -0.485,-1.187 -1.782,-1.343 l 0,-0.61 1.5,0 0,-4.843 0.844,0 z" /><path
         id="path92"
         style="fill:#000000;fill-opacity:1;fill-rule:nonzero;stroke:none"
         d="m 273.332,21.494 1,0 0,-1 -1,0 0,1 z" /><path
         id="path94"
         style="fill:#000000;fill-opacity:1;fill-rule:nonzero;stroke:none"
         d="m 280.098,22.744 c 0,1.343 -0.891,2.234 -2.203,2.234 -0.469,0 -0.86,-0.125 -1.25,-0.422 l 0.265,1.766 2.828,0 0,0.828 -3.5,0 -0.515,-3.563 0.781,0 c 0.391,0.469 0.719,0.641 1.25,0.641 0.906,0 1.484,-0.594 1.484,-1.594 0,-0.984 -0.578,-1.531 -1.484,-1.531 -0.75,0 -1.203,0.375 -1.391,1.141 l -0.859,0 c 0.281,-1.36 1.047,-1.891 2.266,-1.891 1.375,0 2.328,0.953 2.328,2.391 z" /><path
         id="path96"
         style="fill:#000000;fill-opacity:1;fill-rule:nonzero;stroke:none"
         d="m 285.434,22.775 c 0,0.734 -0.063,1.187 -0.204,1.562 -0.328,0.828 -1.093,1.328 -2.031,1.328 -1.406,0 -2.297,-1.031 -2.297,-2.687 0,-1.656 0.86,-2.625 2.282,-2.625 1.14,0 1.937,0.656 2.14,1.672 l -0.797,0 c -0.218,-0.672 -0.672,-0.938 -1.312,-0.938 -0.844,0 -1.469,0.532 -1.485,1.688 l 3.704,0 z m -0.86,0.719 c 0,0 0,-0.047 0,-0.063 l -2.828,0 c 0.078,0.891 0.641,1.5 1.438,1.5 0.796,0 1.39,-0.656 1.39,-1.437 z" /><path
         id="path98"
         style="fill:#000000;fill-opacity:1;fill-rule:nonzero;stroke:none"
         d="m 290.738,24.056 c 0,2.125 -0.75,3.234 -2.297,3.234 -1.296,0 -2.234,-0.921 -2.234,-2.25 0,-1.265 0.875,-2.125 2.094,-2.125 0.64,0 1.109,0.235 1.562,0.766 -0.015,-1.656 -0.547,-2.578 -1.515,-2.578 -0.594,0 -1.016,0.375 -1.141,1.016 l -0.844,0 c 0.157,-1.11 0.891,-1.766 1.922,-1.766 1.594,0 2.453,1.344 2.453,3.703 z m -0.922,1 c 0,-0.828 -0.593,-1.391 -1.421,-1.391 -0.813,0 -1.313,0.532 -1.313,1.438 0,0.875 0.563,1.453 1.344,1.453 0.797,0 1.39,-0.609 1.39,-1.5 z" /><path
         id="path100"
         style="fill:#000000;fill-opacity:1;fill-rule:nonzero;stroke:none"
         d="m 340.879,25.306 c 0,1.141 -0.891,1.984 -2.188,1.984 -1.39,0 -2.187,-0.703 -2.234,-2.359 l 0.844,0 c 0.062,1.141 0.531,1.625 1.375,1.625 0.765,0 1.328,-0.547 1.328,-1.281 0,-0.531 -0.313,-0.985 -0.906,-1.344 l -0.891,-0.5 c -1.422,-0.797 -1.828,-1.437 -1.906,-2.937 l 4.531,0 0,0.828 -3.578,0 c 0.078,0.562 0.391,0.922 1.219,1.406 l 0.968,0.516 c 0.938,0.515 1.438,1.218 1.438,2.062 z" /><path
         id="path102"
         style="fill:#000000;fill-opacity:1;fill-rule:nonzero;stroke:none"
         d="m 346.23,22.775 c 0,0.734 -0.062,1.187 -0.203,1.562 -0.328,0.828 -1.093,1.328 -2.031,1.328 -1.406,0 -2.297,-1.031 -2.297,-2.687 0,-1.656 0.86,-2.625 2.281,-2.625 1.141,0 1.938,0.656 2.141,1.672 l -0.797,0 c -0.219,-0.672 -0.672,-0.938 -1.312,-0.938 -0.844,0 -1.469,0.532 -1.485,1.688 l 3.703,0 z m -0.859,0.719 c 0,0 0,-0.047 0,-0.063 l -2.828,0 c 0.078,0.891 0.641,1.5 1.437,1.5 0.797,0 1.391,-0.656 1.391,-1.437 z" /><path
         id="path104"
         style="fill:#000000;fill-opacity:1;fill-rule:nonzero;stroke:none"
         d="m 351.535,24.056 c 0,2.125 -0.75,3.234 -2.297,3.234 -1.297,0 -2.234,-0.921 -2.234,-2.25 0,-1.265 0.875,-2.125 2.094,-2.125 0.64,0 1.109,0.235 1.562,0.766 -0.015,-1.656 -0.547,-2.578 -1.515,-2.578 -0.594,0 -1.016,0.375 -1.141,1.016 l -0.844,0 c 0.156,-1.11 0.891,-1.766 1.922,-1.766 1.594,0 2.453,1.344 2.453,3.703 z m -0.922,1 c 0,-0.828 -0.593,-1.391 -1.422,-1.391 -0.812,0 -1.312,0.532 -1.312,1.438 0,0.875 0.562,1.453 1.344,1.453 0.797,0 1.39,-0.609 1.39,-1.5 z" /><path
         id="path106"
         style="fill:#000000;fill-opacity:1;fill-rule:nonzero;stroke:none"
         d="m 399.277,25.306 c 0,1.141 -0.89,1.984 -2.187,1.984 -1.391,0 -2.188,-0.703 -2.235,-2.359 l 0.844,0 c 0.063,1.141 0.531,1.625 1.375,1.625 0.766,0 1.328,-0.547 1.328,-1.281 0,-0.531 -0.312,-0.985 -0.906,-1.344 l -0.891,-0.5 c -1.421,-0.797 -1.828,-1.437 -1.906,-2.937 l 4.531,0 0,0.828 -3.578,0 c 0.078,0.562 0.391,0.922 1.219,1.406 l 0.969,0.516 c 0.937,0.515 1.437,1.218 1.437,2.062 z" /><path
         id="path108"
         style="fill:#000000;fill-opacity:1;fill-rule:nonzero;stroke:none"
         d="m 400.535,21.494 1,0 0,-1 -1,0 0,1 z" /><path
         id="path110"
         style="fill:#000000;fill-opacity:1;fill-rule:nonzero;stroke:none"
         d="m 407.301,22.744 c 0,1.343 -0.891,2.234 -2.203,2.234 -0.469,0 -0.86,-0.125 -1.25,-0.422 l 0.265,1.766 2.828,0 0,0.828 -3.5,0 -0.515,-3.563 0.781,0 c 0.391,0.469 0.719,0.641 1.25,0.641 0.906,0 1.484,-0.594 1.484,-1.594 0,-0.984 -0.578,-1.531 -1.484,-1.531 -0.75,0 -1.203,0.375 -1.391,1.141 l -0.859,0 c 0.281,-1.36 1.047,-1.891 2.266,-1.891 1.375,0 2.328,0.953 2.328,2.391 z" /><path
         id="path112"
         style="fill:#000000;fill-opacity:1;fill-rule:nonzero;stroke:none"
         d="m 412.637,22.775 c 0,0.734 -0.063,1.187 -0.203,1.562 -0.329,0.828 -1.094,1.328 -2.032,1.328 -1.406,0 -2.297,-1.031 -2.297,-2.687 0,-1.656 0.86,-2.625 2.282,-2.625 1.14,0 1.937,0.656 2.14,1.672 l -0.797,0 c -0.218,-0.672 -0.671,-0.938 -1.312,-0.938 -0.844,0 -1.469,0.532 -1.484,1.688 l 3.703,0 z m -0.86,0.719 c 0,0 0,-0.047 0,-0.063 l -2.828,0 c 0.078,0.891 0.641,1.5 1.438,1.5 0.797,0 1.39,-0.656 1.39,-1.437 z" /><path
         id="path114"
         style="fill:#000000;fill-opacity:1;fill-rule:nonzero;stroke:none"
         d="m 417.945,24.056 c 0,2.125 -0.75,3.234 -2.297,3.234 -1.296,0 -2.234,-0.921 -2.234,-2.25 0,-1.265 0.875,-2.125 2.094,-2.125 0.64,0 1.109,0.235 1.562,0.766 -0.015,-1.656 -0.547,-2.578 -1.515,-2.578 -0.594,0 -1.016,0.375 -1.141,1.016 l -0.844,0 c 0.157,-1.11 0.891,-1.766 1.922,-1.766 1.594,0 2.453,1.344 2.453,3.703 z m -0.922,1 c 0,-0.828 -0.593,-1.391 -1.421,-1.391 -0.813,0 -1.313,0.532 -1.313,1.438 0,0.875 0.563,1.453 1.344,1.453 0.797,0 1.39,-0.609 1.39,-1.5 z" /><path
         id="path116"
         style="fill:#000000;fill-opacity:1;fill-rule:nonzero;stroke:none"
         d="m 468.035,22.462 c 0,0.828 -0.344,1.313 -1.156,1.594 0.641,0.25 0.953,0.688 0.953,1.375 0,1.172 -0.781,1.859 -2.078,1.859 -1.375,0 -2.094,-0.75 -2.125,-2.187 l 0.844,0 c 0.015,1 0.437,1.453 1.297,1.453 0.75,0 1.203,-0.437 1.203,-1.156 0,-0.735 -0.328,-1.031 -1.672,-1.031 l 0,-0.704 0.453,0 c 0.937,0 1.406,-0.453 1.406,-1.203 0,-0.859 -0.515,-1.359 -1.406,-1.359 -0.922,0 -1.375,0.453 -1.422,1.437 l -0.844,0 c 0.094,-1.515 0.844,-2.187 2.235,-2.187 1.406,0 2.312,0.828 2.312,2.109 z" /><path
         id="path118"
         style="fill:#000000;fill-opacity:1;fill-rule:nonzero;stroke:none"
         d="m 473.434,22.775 c 0,0.734 -0.063,1.187 -0.204,1.562 -0.328,0.828 -1.093,1.328 -2.031,1.328 -1.406,0 -2.297,-1.031 -2.297,-2.687 0,-1.656 0.86,-2.625 2.282,-2.625 1.14,0 1.937,0.656 2.14,1.672 l -0.797,0 c -0.218,-0.672 -0.672,-0.938 -1.312,-0.938 -0.844,0 -1.469,0.532 -1.485,1.688 l 3.704,0 z m -0.86,0.719 c 0,0 0,-0.047 0,-0.063 l -2.828,0 c 0.078,0.891 0.641,1.5 1.438,1.5 0.796,0 1.39,-0.656 1.39,-1.437 z" /><path
         id="path120"
         style="fill:#000000;fill-opacity:1;fill-rule:nonzero;stroke:none"
         d="m 478.738,24.056 c 0,2.125 -0.75,3.234 -2.297,3.234 -1.296,0 -2.234,-0.921 -2.234,-2.25 0,-1.265 0.875,-2.125 2.094,-2.125 0.64,0 1.109,0.235 1.562,0.766 -0.015,-1.656 -0.547,-2.578 -1.515,-2.578 -0.594,0 -1.016,0.375 -1.141,1.016 l -0.844,0 c 0.157,-1.11 0.891,-1.766 1.922,-1.766 1.594,0 2.453,1.344 2.453,3.703 z m -0.922,1 c 0,-0.828 -0.593,-1.391 -1.421,-1.391 -0.813,0 -1.313,0.532 -1.313,1.438 0,0.875 0.563,1.453 1.344,1.453 0.797,0 1.39,-0.609 1.39,-1.5 z" /><path
         id="path122"
         style="fill:#000000;fill-opacity:1;fill-rule:nonzero;stroke:none"
         d="m 68.41,33.091 2.281,0 0,-0.703 -2.281,0 0,0.703 z" /><path
         id="path124"
         style="fill:#000000;fill-opacity:1;fill-rule:nonzero;stroke:none"
         d="m 76.09,32.341 c 0,1.344 -0.891,2.235 -2.203,2.235 -0.469,0 -0.86,-0.125 -1.25,-0.422 l 0.265,1.765 2.828,0 0,0.828 -3.5,0 -0.515,-3.562 0.781,0 c 0.391,0.469 0.719,0.641 1.25,0.641 0.906,0 1.484,-0.594 1.484,-1.594 0,-0.985 -0.578,-1.531 -1.484,-1.531 -0.75,0 -1.203,0.375 -1.391,1.14 l -0.859,0 c 0.281,-1.359 1.047,-1.89 2.266,-1.89 1.375,0 2.328,0.953 2.328,2.39 z" /><path
         id="path126"
         style="fill:#000000;fill-opacity:1;fill-rule:nonzero;stroke:none"
         d="m 81.363,33.357 c 0,2.359 -0.75,3.531 -2.218,3.531 -1.469,0 -2.235,-1.187 -2.235,-3.469 0,-2.297 0.781,-3.468 2.235,-3.468 1.437,0 2.218,1.171 2.218,3.406 z m -0.859,0.078 c 0,-1.922 -0.438,-2.781 -1.375,-2.781 -0.891,0 -1.344,0.89 -1.344,2.75 0,1.875 0.453,2.734 1.36,2.734 0.906,0 1.359,-0.875 1.359,-2.703 z" /><path
         id="path128"
         style="fill:#000000;fill-opacity:1;fill-rule:nonzero;stroke:none"
         d="m 68.41,81.091 2.281,0 0,-0.703 -2.281,0 0,0.703 z" /><path
         id="path130"
         style="fill:#000000;fill-opacity:1;fill-rule:nonzero;stroke:none"
         d="m 76.152,79.716 0,0.766 -1,0 0,4.406 -0.625,0 -3.093,-4.281 0,-0.891 2.875,0 0,-1.625 0.843,0 0,1.625 1,0 z m -1.843,0.766 -2.141,0 2.141,2.969 0,-2.969 z" /><path
         id="path132"
         style="fill:#000000;fill-opacity:1;fill-rule:nonzero;stroke:none"
         d="m 81.363,81.357 c 0,2.359 -0.75,3.531 -2.218,3.531 -1.469,0 -2.235,-1.187 -2.235,-3.469 0,-2.297 0.781,-3.468 2.235,-3.468 1.437,0 2.218,1.171 2.218,3.406 z m -0.859,0.078 c 0,-1.922 -0.438,-2.781 -1.375,-2.781 -0.891,0 -1.344,0.89 -1.344,2.75 0,1.875 0.453,2.734 1.36,2.734 0.906,0 1.359,-0.875 1.359,-2.703 z" /><path
         id="path134"
         style="fill:#000000;fill-opacity:1;fill-rule:nonzero;stroke:none"
         d="m 68.41,128.294 2.281,0 0,-0.703 -2.281,0 0,0.703 z" /><path
         id="path136"
         style="fill:#000000;fill-opacity:1;fill-rule:nonzero;stroke:none"
         d="m 76.027,127.263 c 0,0.828 -0.343,1.313 -1.156,1.594 0.641,0.25 0.953,0.687 0.953,1.375 0,1.172 -0.781,1.859 -2.078,1.859 -1.375,0 -2.094,-0.75 -2.125,-2.187 l 0.844,0 c 0.015,1 0.437,1.453 1.297,1.453 0.75,0 1.203,-0.438 1.203,-1.156 0,-0.735 -0.328,-1.032 -1.672,-1.032 l 0,-0.703 0.453,0 c 0.938,0 1.406,-0.453 1.406,-1.203 0,-0.859 -0.515,-1.359 -1.406,-1.359 -0.922,0 -1.375,0.453 -1.422,1.437 l -0.844,0 c 0.094,-1.515 0.844,-2.187 2.235,-2.187 1.406,0 2.312,0.828 2.312,2.109 z" /><path
         id="path138"
         style="fill:#000000;fill-opacity:1;fill-rule:nonzero;stroke:none"
         d="m 81.363,128.56 c 0,2.359 -0.75,3.531 -2.218,3.531 -1.469,0 -2.235,-1.187 -2.235,-3.469 0,-2.296 0.781,-3.468 2.235,-3.468 1.437,0 2.218,1.172 2.218,3.406 z m -0.859,0.078 c 0,-1.922 -0.438,-2.781 -1.375,-2.781 -0.891,0 -1.344,0.89 -1.344,2.75 0,1.875 0.453,2.734 1.36,2.734 0.906,0 1.359,-0.875 1.359,-2.703 z" /><path
         id="path140"
         style="fill:#000000;fill-opacity:1;fill-rule:nonzero;stroke:none"
         d="m 68.41,176.294 2.281,0 0,-0.703 -2.281,0 0,0.703 z" /><path
         id="path142"
         style="fill:#000000;fill-opacity:1;fill-rule:nonzero;stroke:none"
         d="m 76.074,178.107 c 0,1.14 -0.89,1.984 -2.187,1.984 -1.391,0 -2.188,-0.703 -2.235,-2.359 l 0.844,0 c 0.063,1.14 0.531,1.625 1.375,1.625 0.766,0 1.328,-0.547 1.328,-1.281 0,-0.532 -0.312,-0.985 -0.906,-1.344 l -0.891,-0.5 c -1.422,-0.797 -1.828,-1.438 -1.906,-2.938 l 4.531,0 0,0.828 -3.578,0 c 0.078,0.563 0.391,0.922 1.219,1.407 l 0.969,0.515 c 0.937,0.516 1.437,1.219 1.437,2.063 z" /><path
         id="path144"
         style="fill:#000000;fill-opacity:1;fill-rule:nonzero;stroke:none"
         d="m 81.363,176.56 c 0,2.359 -0.75,3.531 -2.218,3.531 -1.469,0 -2.235,-1.187 -2.235,-3.469 0,-2.296 0.781,-3.468 2.235,-3.468 1.437,0 2.218,1.172 2.218,3.406 z m -0.859,0.078 c 0,-1.922 -0.438,-2.781 -1.375,-2.781 -0.891,0 -1.344,0.89 -1.344,2.75 0,1.875 0.453,2.734 1.36,2.734 0.906,0 1.359,-0.875 1.359,-2.703 z" /><path
         id="path146"
         style="fill:#000000;fill-opacity:1;fill-rule:nonzero;stroke:none"
         d="m 68.41,224.294 2.281,0 0,-0.703 -2.281,0 0,0.703 z" /><path
         id="path148"
         style="fill:#000000;fill-opacity:1;fill-rule:nonzero;stroke:none"
         d="m 74.496,221.294 0,6.797 -0.562,0 c -0.297,-1.047 -0.485,-1.187 -1.782,-1.344 l 0,-0.609 1.5,0 0,-4.844 0.844,0 z" /><path
         id="path150"
         style="fill:#000000;fill-opacity:1;fill-rule:nonzero;stroke:none"
         d="m 81.363,224.56 c 0,2.359 -0.75,3.531 -2.218,3.531 -1.469,0 -2.235,-1.187 -2.235,-3.469 0,-2.296 0.781,-3.468 2.235,-3.468 1.437,0 2.218,1.172 2.218,3.406 z m -0.859,0.078 c 0,-1.922 -0.438,-2.781 -1.375,-2.781 -0.891,0 -1.344,0.89 -1.344,2.75 0,1.875 0.453,2.734 1.36,2.734 0.906,0 1.359,-0.875 1.359,-2.703 z" /><path
         id="path152"
         style="fill:#000000;fill-opacity:1;fill-rule:nonzero;stroke:none"
         d="m 84.031,271.759 c 0,2.36 -0.75,3.531 -2.219,3.531 -1.468,0 -2.234,-1.187 -2.234,-3.468 0,-2.297 0.781,-3.469 2.234,-3.469 1.438,0 2.219,1.172 2.219,3.406 z m -0.859,0.078 c 0,-1.922 -0.438,-2.781 -1.375,-2.781 -0.891,0 -1.344,0.891 -1.344,2.75 0,1.875 0.453,2.734 1.359,2.734 0.907,0 1.36,-0.875 1.36,-2.703 z" /><path
         id="path154"
         style="fill:#000000;fill-opacity:1;fill-rule:nonzero;stroke:none"
         d="m 243.934,8.294 0,0.797 -4.704,0 0,-7 0.891,0 0,3.188 3.344,0 0,0.781 -3.344,0 0,2.234 3.813,0 z" /><path
         id="path156"
         style="fill:#000000;fill-opacity:1;fill-rule:nonzero;stroke:none"
         d="m 246.98,6.419 0,0.813 c -0.14,0.015 -0.203,0.031 -0.312,0.031 -0.516,0 -0.906,-0.312 -1.359,-1.062 l 0,0.921 -0.735,0 0,-5.031 0.797,0 0,2.61 c 0,1.125 0.375,1.703 1.609,1.718 z" /><path
         id="path158"
         style="fill:#000000;fill-opacity:1;fill-rule:nonzero;stroke:none"
         d="m 251.934,4.372 c 0,0.735 -0.063,1.188 -0.204,1.563 -0.328,0.828 -1.093,1.328 -2.031,1.328 -1.406,0 -2.297,-1.031 -2.297,-2.687 0,-1.657 0.86,-2.625 2.282,-2.625 1.14,0 1.937,0.656 2.14,1.671 l -0.797,0 c -0.218,-0.671 -0.672,-0.937 -1.312,-0.937 -0.844,0 -1.469,0.531 -1.485,1.687 l 3.704,0 z m -0.86,0.719 c 0,0 0,-0.047 0,-0.062 l -2.828,0 c 0.078,0.89 0.641,1.5 1.438,1.5 0.796,0 1.39,-0.657 1.39,-1.438 z m 0.344,4 -1.094,0 -0.922,-1.422 0.578,0 1.438,1.422 z" /><path
         id="path160"
         style="fill:#000000;fill-opacity:1;fill-rule:nonzero;stroke:none"
         d="m 257.098,-0.003 0,7.125 -0.719,0 0,-0.671 c -0.359,0.531 -0.938,0.812 -1.594,0.812 -1.328,0 -2.187,-1.047 -2.187,-2.719 0,-1.625 0.828,-2.593 2.14,-2.593 0.703,0 1.188,0.25 1.563,0.796 l 0,-2.75 0.797,0 z m -0.797,4.579 c 0,-1.157 -0.563,-1.875 -1.406,-1.875 -0.875,0 -1.469,0.734 -1.469,1.906 0,1.156 0.594,1.906 1.469,1.906 0.859,0 1.406,-0.766 1.406,-1.937 z" /><path
         id="path162"
         style="fill:#000000;fill-opacity:1;fill-rule:nonzero;stroke:none"
         d="m 262.387,2.091 0,5.031 -0.797,0 0,-2.781 c 0,-1.015 -0.531,-1.687 -1.375,-1.687 -0.625,0 -1.031,0.375 -1.031,0.984 l 0,3.484 -0.797,0 0,-3.796 c 0,-0.844 0.625,-1.375 1.593,-1.375 0.75,0 1.219,0.25 1.688,0.921 l 0,-0.781 0.719,0 z" /><path
         id="path164"
         style="fill:#000000;fill-opacity:1;fill-rule:nonzero;stroke:none"
         d="m 268.023,4.372 c 0,0.735 -0.062,1.188 -0.203,1.563 -0.328,0.828 -1.093,1.328 -2.031,1.328 -1.406,0 -2.297,-1.031 -2.297,-2.687 0,-1.657 0.86,-2.625 2.281,-2.625 1.141,0 1.938,0.656 2.141,1.671 l -0.797,0 c -0.219,-0.671 -0.672,-0.937 -1.312,-0.937 -0.844,0 -1.469,0.531 -1.485,1.687 l 3.703,0 z m -0.859,0.719 c 0,0 0,-0.047 0,-0.062 l -2.828,0 c 0.078,0.89 0.641,1.5 1.437,1.5 0.797,0 1.391,-0.657 1.391,-1.438 z" /><path
         id="path166"
         style="fill:#000000;fill-opacity:1;fill-rule:nonzero;stroke:none"
         d="m 273.109,2.091 0,3.797 c 0,0.844 -0.625,1.375 -1.593,1.375 -0.75,0 -1.219,-0.281 -1.672,-0.984 l 0,0.843 -0.735,0 0,-5.031 0.797,0 0,2.766 c 0,1.031 0.563,1.703 1.375,1.703 0.625,0 1.031,-0.375 1.031,-0.984 l 0,-3.485 0.797,0 z" /><path
         id="path168"
         style="fill:#000000;fill-opacity:1;fill-rule:nonzero;stroke:none"
         d="m 278.355,3.826 -0.812,0 c -0.125,-0.813 -0.547,-1.141 -1.219,-1.141 -0.89,0 -1.422,0.687 -1.422,1.875 0,1.25 0.532,1.969 1.391,1.969 0.672,0 1.094,-0.407 1.203,-1.094 l 0.797,0 c -0.094,1.219 -0.859,1.828 -1.984,1.828 -1.344,0 -2.235,-1.031 -2.235,-2.703 0,-1.625 0.86,-2.609 2.219,-2.609 1.203,0 1.969,0.718 2.062,1.875 z" /><path
         id="path170"
         style="fill:#000000;fill-opacity:1;fill-rule:nonzero;stroke:none"
         d="m 283.496,4.372 c 0,0.735 -0.062,1.188 -0.203,1.563 -0.328,0.828 -1.094,1.328 -2.031,1.328 -1.407,0 -2.297,-1.031 -2.297,-2.687 0,-1.657 0.859,-2.625 2.281,-2.625 1.141,0 1.938,0.656 2.141,1.671 l -0.797,0 c -0.219,-0.671 -0.672,-0.937 -1.313,-0.937 -0.843,0 -1.468,0.531 -1.484,1.687 l 3.703,0 z m -0.859,0.719 c 0,0 0,-0.047 0,-0.062 l -2.828,0 c 0.078,0.89 0.64,1.5 1.437,1.5 0.797,0 1.391,-0.657 1.391,-1.438 z" /><path
         id="path172"
         style="fill:#000000;fill-opacity:1;fill-rule:nonzero;stroke:none"
         d="m 289.379,0.06 c -0.844,1.375 -1.313,2.984 -1.313,4.516 0,1.531 0.469,3.14 1.313,4.515 l -0.531,0 c -0.953,-1.265 -1.563,-3.015 -1.563,-4.515 0,-1.516 0.61,-3.266 1.563,-4.516 l 0.531,0 z" /><path
         id="path174"
         style="fill:#000000;fill-opacity:1;fill-rule:nonzero;stroke:none"
         d="m 295.98,2.091 0,7 -0.89,0 0,-3.031 -3.594,0 0,3.031 -0.891,0 0,-7 0.891,0 0,3.188 3.594,0 0,-3.188 0.89,0 z" /><path
         id="path176"
         style="fill:#000000;fill-opacity:1;fill-rule:nonzero;stroke:none"
         d="m 301.129,2.091 0,0.703 -3.125,0 2.984,3.61 0,0.718 -3.75,0 0,-0.703 2.797,0 -3,-3.609 0,-0.719 4.094,0 z" /><path
         id="path178"
         style="fill:#000000;fill-opacity:1;fill-rule:nonzero;stroke:none"
         d="m 303.992,4.56 c 0,1.516 -0.594,3.266 -1.562,4.531 l -0.532,0 c 0.844,-1.375 1.313,-2.984 1.313,-4.531 0,-1.516 -0.469,-3.141 -1.313,-4.5 l 0.532,0 c 0.968,1.25 1.562,3 1.562,4.5 z" /><path
         id="path180"
         style="fill:#ff0000;fill-opacity:1;fill-rule:nonzero;stroke:none"
         d="m 56.168,127.779 -0.797,0 0,-5.485 0.797,0 0,2.297 6.203,0 0,0.891 -6.203,0 0,2.297 z" /><path
         id="path182"
         style="fill:#ff0000;fill-opacity:1;fill-rule:nonzero;stroke:none"
         d="m 57.434,133.88 c -1.313,0 -2.063,-0.781 -2.063,-2.156 l 0,-2.891 7,0 0,0.891 -2.969,0 0,2.203 c 0,1.141 -0.812,1.953 -1.968,1.953 z m -0.047,-0.937 c 0.765,0 1.234,-0.5 1.234,-1.36 l 0,-1.859 -2.453,0 0,1.859 c 0,0.86 0.453,1.36 1.219,1.36 z" /><path
         id="path184"
         style="fill:#ff0000;fill-opacity:1;fill-rule:nonzero;stroke:none"
         d="m 57.559,139.267 c -1.141,0 -1.985,-0.891 -1.985,-2.187 0,-1.391 0.703,-2.188 2.36,-2.235 l 0,0.844 c -1.141,0.062 -1.625,0.531 -1.625,1.375 0,0.766 0.546,1.328 1.281,1.328 0.531,0 0.984,-0.312 1.344,-0.906 l 0.5,-0.891 c 0.796,-1.422 1.437,-1.828 2.937,-1.906 l 0,4.531 -0.828,0 0,-3.578 c -0.563,0.078 -0.922,0.391 -1.406,1.219 l -0.516,0.969 c -0.516,0.937 -1.219,1.437 -2.062,1.437 z" /><path
         id="path186"
         style="fill:#ff0000;fill-opacity:1;fill-rule:nonzero;stroke:none"
         d="m 63.59,145.247 0.484,0 0,-5.766 -0.484,0 0,5.766 z" /><path
         id="path188"
         style="fill:#ff0000;fill-opacity:1;fill-rule:nonzero;stroke:none"
         d="m 62.371,150.173 -0.781,0 0,-3.453 -6.219,0 0,-0.89 7,0 0,4.343 z" /><path
         id="path190"
         style="fill:#ff0000;fill-opacity:1;fill-rule:nonzero;stroke:none"
         d="m 59.824,156.529 0,-0.922 c 1.313,-0.219 1.938,-0.766 1.938,-1.953 0,-1.391 -1.063,-2.266 -2.813,-2.266 -1.797,0 -2.953,0.844 -2.953,2.188 0,1.093 0.484,1.671 1.547,1.89 l 0,0.906 c -1.531,-0.265 -2.344,-1.156 -2.344,-2.687 0,-2.125 1.719,-3.203 3.75,-3.203 2.047,0 3.594,1.109 3.594,3.156 0,1.719 -0.906,2.672 -2.719,2.891 z" /><path
         id="path192"
         style="fill:#ff0000;fill-opacity:1;fill-rule:nonzero;stroke:none"
         d="m 62.371,158.787 -1,0 0,-1 1,0 0,1 z m -4.031,0 -1,0 0,-1 1,0 0,1 z" /><path
         id="path194"
         style="fill:#ff0000;fill-opacity:1;fill-rule:nonzero;stroke:none"
         d="m 62.371,164.38 -7,0 0,-0.797 2.609,0 c -0.515,-0.343 -0.781,-0.875 -0.781,-1.546 0,-1.297 1.016,-2.157 2.61,-2.157 1.703,0 2.703,0.828 2.703,2.188 0,0.687 -0.25,1.172 -0.875,1.594 l 0.734,0 0,0.718 z m -2.5,-0.797 c 1.172,0 1.891,-0.562 1.891,-1.406 0,-0.875 -0.735,-1.469 -1.907,-1.469 -1.171,0 -1.906,0.594 -1.906,1.469 0,0.86 0.766,1.406 1.922,1.406 z" /><path
         id="path196"
         style="fill:#ff0000;fill-opacity:1;fill-rule:nonzero;stroke:none"
         d="m 60.371,170.951 c -0.844,0 -1.344,-0.391 -1.687,-1.282 -0.297,0.625 -0.829,0.969 -1.532,0.969 -1.015,0 -1.781,-0.75 -1.781,-2.078 l 0,-2.828 7,0 0,3.156 c 0,1.25 -0.844,2.063 -2,2.063 z m -3.094,-1.204 c 0.703,0 1.11,-0.421 1.11,-1.406 l 0,-1.719 -2.219,0 0,1.719 c 0,0.985 0.406,1.406 1.109,1.406 z m 3.11,0.297 c 0.672,0 1.203,-0.406 1.203,-1.25 l 0,-2.172 -2.406,0 0,2.172 c 0,0.844 0.515,1.25 1.203,1.25 z" /><path
         id="path198"
         style="fill:#ff0000;fill-opacity:1;fill-rule:nonzero;stroke:none"
         d="m 60.449,177.322 c -0.859,0 -1.5,-0.532 -1.75,-1.485 l -0.469,-1.75 c -0.218,-0.843 -0.5,-1.156 -1.046,-1.156 -0.704,0 -1.235,0.625 -1.235,1.563 0,1.109 0.516,1.75 1.422,1.75 l 0,0.843 c -1.375,0 -2.172,-0.953 -2.172,-2.562 0,-1.531 0.844,-2.485 2.11,-2.485 0.859,0 1.39,0.454 1.64,1.375 l 0.453,1.735 c 0.235,0.875 0.594,1.281 1.141,1.281 0.766,0 1.219,-0.578 1.219,-1.781 0,-1.328 -0.672,-1.969 -1.672,-1.969 l 0,-0.859 c 1.656,0 2.453,1.125 2.453,2.765 0,1.782 -0.844,2.735 -2.094,2.735 z" /><path
         id="path200"
         style="fill:#ff0000;fill-opacity:1;fill-rule:nonzero;stroke:none"
         d="m 57.559,182.708 c -1.141,0 -1.985,-0.89 -1.985,-2.187 0,-1.391 0.703,-2.188 2.36,-2.234 l 0,0.843 c -1.141,0.063 -1.625,0.532 -1.625,1.375 0,0.766 0.546,1.328 1.281,1.328 0.531,0 0.984,-0.312 1.344,-0.906 l 0.5,-0.89 c 0.796,-1.422 1.437,-1.829 2.937,-1.907 l 0,4.532 -0.828,0 0,-3.579 c -0.563,0.079 -0.922,0.391 -1.406,1.219 l -0.516,0.969 c -0.516,0.937 -1.219,1.437 -2.062,1.437 z" /><path
         id="path202"
         style="fill:#ff0000;fill-opacity:1;fill-rule:nonzero;stroke:none"
         d="m 62.371,186.466 -6.797,0 0,-0.562 c 1.047,-0.297 1.188,-0.485 1.344,-1.782 l 0.609,0 0,1.5 4.844,0 0,0.844 z" /><path
         id="path204"
         style="fill:#ff00ff;fill-opacity:1;fill-rule:nonzero;stroke:none"
         d="m 43.973,133.244 -7,0 0,-0.797 2.609,0 c -0.516,-0.344 -0.781,-0.875 -0.781,-1.547 0,-1.297 1.015,-2.156 2.609,-2.156 1.703,0 2.703,0.828 2.703,2.187 0,0.688 -0.25,1.172 -0.875,1.594 l 0.735,0 0,0.719 z m -2.5,-0.797 c 1.172,0 1.89,-0.563 1.89,-1.407 0,-0.875 -0.734,-1.468 -1.906,-1.468 -1.172,0 -1.906,0.593 -1.906,1.468 0,0.86 0.765,1.407 1.922,1.407 z" /><path
         id="path206"
         style="fill:#ff00ff;fill-opacity:1;fill-rule:nonzero;stroke:none"
         d="m 41.973,139.814 c -0.844,0 -1.344,-0.391 -1.688,-1.281 -0.297,0.625 -0.828,0.968 -1.531,0.968 -1.016,0 -1.781,-0.75 -1.781,-2.078 l 0,-2.828 7,0 0,3.156 c 0,1.25 -0.844,2.063 -2,2.063 z m -3.094,-1.203 c 0.703,0 1.109,-0.422 1.109,-1.406 l 0,-1.719 -2.218,0 0,1.719 c 0,0.984 0.406,1.406 1.109,1.406 z m 3.109,0.297 c 0.672,0 1.203,-0.407 1.203,-1.25 l 0,-2.172 -2.406,0 0,2.172 c 0,0.843 0.516,1.25 1.203,1.25 z" /><path
         id="path208"
         style="fill:#ff00ff;fill-opacity:1;fill-rule:nonzero;stroke:none"
         d="m 42.051,146.185 c -0.86,0 -1.5,-0.531 -1.75,-1.484 l -0.469,-1.75 c -0.219,-0.844 -0.5,-1.157 -1.047,-1.157 -0.703,0 -1.234,0.625 -1.234,1.563 0,1.109 0.515,1.75 1.422,1.75 l 0,0.844 c -1.375,0 -2.172,-0.954 -2.172,-2.563 0,-1.531 0.844,-2.484 2.109,-2.484 0.86,0 1.391,0.453 1.641,1.375 l 0.453,1.734 c 0.234,0.875 0.594,1.281 1.141,1.281 0.765,0 1.218,-0.578 1.218,-1.781 0,-1.328 -0.672,-1.969 -1.672,-1.969 l 0,-0.859 c 1.657,0 2.454,1.125 2.454,2.766 0,1.781 -0.844,2.734 -2.094,2.734 z" /><path
         id="path210"
         style="fill:#ff00ff;fill-opacity:1;fill-rule:nonzero;stroke:none"
         d="m 39.16,151.572 c -1.14,0 -1.984,-0.891 -1.984,-2.188 0,-1.39 0.703,-2.187 2.359,-2.234 l 0,0.844 c -1.14,0.062 -1.625,0.531 -1.625,1.375 0,0.765 0.547,1.328 1.281,1.328 0.532,0 0.985,-0.313 1.344,-0.907 l 0.5,-0.89 c 0.797,-1.422 1.438,-1.828 2.938,-1.906 l 0,4.531 -0.828,0 0,-3.578 c -0.563,0.078 -0.922,0.39 -1.407,1.218 l -0.515,0.969 c -0.516,0.938 -1.219,1.438 -2.063,1.438 z" /><path
         id="path212"
         style="fill:#ff00ff;fill-opacity:1;fill-rule:nonzero;stroke:none"
         d="m 43.973,155.33 -6.797,0 0,-0.563 c 1.047,-0.297 1.187,-0.484 1.344,-1.781 l 0.609,0 0,1.5 4.844,0 0,0.844 z" /><path
         id="path214"
         style="fill:#ff00ff;fill-opacity:1;fill-rule:nonzero;stroke:none"
         d="m 45.191,162.888 0.484,0 0,-5.766 -0.484,0 0,5.766 z" /><path
         id="path216"
         style="fill:#ff00ff;fill-opacity:1;fill-rule:nonzero;stroke:none"
         d="m 43.973,169.974 -7,0 0,-1.234 6.093,-2.032 -6.093,-2.078 0,-1.234 7,0 0,0.844 -5.86,0 5.86,1.984 0,0.938 -5.86,1.968 5.86,0 0,0.844 z" /><path
         id="path218"
         style="fill:#ff00ff;fill-opacity:1;fill-rule:nonzero;stroke:none"
         d="m 43.973,175.814 -0.782,0 0,-3.453 -6.218,0 0,-0.891 7,0 0,4.344 z" /><path
         id="path220"
         style="fill:#ff00ff;fill-opacity:1;fill-rule:nonzero;stroke:none"
         d="m 36.973,177.9 7,0 0,-0.906 -7,0 0,0.906 z" /><path
         id="path222"
         style="fill:#ff00ff;fill-opacity:1;fill-rule:nonzero;stroke:none"
         d="m 43.973,184.915 -7,0 0,-0.843 5.718,0 -5.718,-3.657 0,-0.968 7,0 0,0.843 -5.672,0 5.672,3.61 0,1.015 z" /><path
         id="path224"
         style="fill:#00ff00;fill-opacity:1;fill-rule:nonzero;stroke:none"
         d="m 25.57,124.443 -7,0 0,-0.797 2.61,0 c -0.516,-0.344 -0.782,-0.875 -0.782,-1.547 0,-1.297 1.016,-2.156 2.61,-2.156 1.703,0 2.703,0.828 2.703,2.187 0,0.688 -0.25,1.172 -0.875,1.594 l 0.734,0 0,0.719 z m -2.5,-0.797 c 1.172,0 1.891,-0.563 1.891,-1.406 0,-0.875 -0.734,-1.469 -1.906,-1.469 -1.172,0 -1.907,0.594 -1.907,1.469 0,0.859 0.766,1.406 1.922,1.406 z" /><path
         id="path226"
         style="fill:#00ff00;fill-opacity:1;fill-rule:nonzero;stroke:none"
         d="m 23.57,131.013 c -0.843,0 -1.343,-0.391 -1.687,-1.281 -0.297,0.625 -0.828,0.969 -1.531,0.969 -1.016,0 -1.782,-0.75 -1.782,-2.079 l 0,-2.828 7,0 0,3.157 c 0,1.25 -0.843,2.062 -2,2.062 z m -3.093,-1.203 c 0.703,0 1.109,-0.422 1.109,-1.406 l 0,-1.719 -2.219,0 0,1.719 c 0,0.984 0.406,1.406 1.11,1.406 z m 3.109,0.297 c 0.672,0 1.203,-0.406 1.203,-1.25 l 0,-2.172 -2.406,0 0,2.172 c 0,0.844 0.515,1.25 1.203,1.25 z" /><path
         id="path228"
         style="fill:#00ff00;fill-opacity:1;fill-rule:nonzero;stroke:none"
         d="m 23.648,137.388 c -0.859,0 -1.5,-0.531 -1.75,-1.484 l -0.468,-1.75 c -0.219,-0.844 -0.5,-1.157 -1.047,-1.157 -0.703,0 -1.235,0.625 -1.235,1.563 0,1.109 0.516,1.75 1.422,1.75 l 0,0.844 c -1.375,0 -2.172,-0.953 -2.172,-2.563 0,-1.531 0.844,-2.484 2.11,-2.484 0.859,0 1.39,0.453 1.64,1.375 l 0.454,1.734 c 0.234,0.875 0.593,1.281 1.14,1.281 0.766,0 1.219,-0.578 1.219,-1.781 0,-1.328 -0.672,-1.969 -1.672,-1.969 l 0,-0.859 c 1.656,0 2.453,1.125 2.453,2.766 0,1.781 -0.844,2.734 -2.094,2.734 z" /><path
         id="path230"
         style="fill:#00ff00;fill-opacity:1;fill-rule:nonzero;stroke:none"
         d="m 20.758,142.771 c -1.141,0 -1.985,-0.891 -1.985,-2.188 0,-1.39 0.704,-2.187 2.36,-2.234 l 0,0.844 c -1.141,0.062 -1.625,0.531 -1.625,1.375 0,0.765 0.547,1.328 1.281,1.328 0.531,0 0.984,-0.313 1.344,-0.906 l 0.5,-0.891 c 0.797,-1.422 1.437,-1.828 2.937,-1.906 l 0,4.531 -0.828,0 0,-3.578 c -0.562,0.078 -0.922,0.391 -1.406,1.219 l -0.516,0.968 c -0.515,0.938 -1.218,1.438 -2.062,1.438 z" /><path
         id="path232"
         style="fill:#00ff00;fill-opacity:1;fill-rule:nonzero;stroke:none"
         d="m 25.57,146.533 -6.797,0 0,-0.563 c 1.047,-0.297 1.188,-0.484 1.344,-1.781 l 0.61,0 0,1.5 4.843,0 0,0.844 z" /><path
         id="path234"
         style="fill:#00ff00;fill-opacity:1;fill-rule:nonzero;stroke:none"
         d="m 26.789,154.087 0.484,0 0,-5.766 -0.484,0 0,5.766 z" /><path
         id="path236"
         style="fill:#00ff00;fill-opacity:1;fill-rule:nonzero;stroke:none"
         d="m 25.57,161.177 -7,0 0,-1.234 6.094,-2.031 -6.094,-2.079 0,-1.234 7,0 0,0.844 -5.859,0 5.859,1.984 0,0.938 -5.859,1.968 5.859,0 0,0.844 z" /><path
         id="path238"
         style="fill:#00ff00;fill-opacity:1;fill-rule:nonzero;stroke:none"
         d="m 22.18,169.029 c -2.25,0 -3.782,-1.344 -3.782,-3.391 0,-2 1.547,-3.375 3.735,-3.375 2.187,0 3.609,1.375 3.609,3.375 0,2.063 -1.5,3.391 -3.562,3.391 z m -0.016,-0.907 c 1.688,0 2.797,-1 2.797,-2.484 0,-1.484 -1.109,-2.484 -2.828,-2.484 -1.735,0 -2.938,1 -2.938,2.484 0,1.516 1.203,2.484 2.969,2.484 z" /><path
         id="path240"
         style="fill:#00ff00;fill-opacity:1;fill-rule:nonzero;stroke:none"
         d="m 20.633,175.294 c -1.313,0 -2.063,-0.781 -2.063,-2.156 l 0,-2.891 7,0 0,0.891 -2.968,0 0,2.203 c 0,1.141 -0.813,1.953 -1.969,1.953 z m -0.047,-0.937 c 0.766,0 1.234,-0.5 1.234,-1.36 l 0,-1.859 -2.453,0 0,1.859 c 0,0.86 0.453,1.36 1.219,1.36 z" /><path
         id="path242"
         style="fill:#00ff00;fill-opacity:1;fill-rule:nonzero;stroke:none"
         d="m 25.57,181.65 -0.781,0 0,-4.125 -2.406,0 0,3.812 -0.781,0 0,-3.812 -2.235,0 0,3.953 -0.797,0 0,-4.844 7,0 0,5.016 z" /><path
         id="path244"
         style="fill:#00ff00;fill-opacity:1;fill-rule:nonzero;stroke:none"
         d="m 25.57,188.384 -7,0 0,-0.844 5.719,0 -5.719,-3.656 0,-0.969 7,0 0,0.844 -5.672,0 5.672,3.61 0,1.015 z" /><path
         id="path246"
         style="fill:#00ffff;fill-opacity:1;fill-rule:nonzero;stroke:none"
         d="m 7.172,151.642 -7,0 0,-0.797 2.609,0 C 2.266,150.501 2,149.97 2,149.298 c 0,-1.297 1.016,-2.156 2.609,-2.156 1.703,0 2.703,0.828 2.703,2.188 0,0.687 -0.25,1.171 -0.874,1.593 l 0.734,0 0,0.719 z m -2.5,-0.797 c 1.172,0 1.89,-0.562 1.89,-1.406 0,-0.875 -0.734,-1.469 -1.906,-1.469 -1.172,0 -1.906,0.594 -1.906,1.469 0,0.859 0.766,1.406 1.922,1.406 z" /><path
         id="path248"
         style="fill:#00ffff;fill-opacity:1;fill-rule:nonzero;stroke:none"
         d="m 5.172,158.216 c -0.844,0 -1.344,-0.39 -1.688,-1.281 -0.296,0.625 -0.828,0.969 -1.531,0.969 -1.015,0 -1.781,-0.75 -1.781,-2.078 l 0,-2.829 7,0 0,3.157 c 0,1.25 -0.844,2.062 -2,2.062 z m -3.094,-1.203 c 0.703,0 1.11,-0.422 1.11,-1.406 l 0,-1.719 -2.219,0 0,1.719 c 0,0.984 0.406,1.406 1.109,1.406 z m 3.11,0.297 c 0.671,0 1.203,-0.406 1.203,-1.25 l 0,-2.172 -2.407,0 0,2.172 c 0,0.844 0.516,1.25 1.204,1.25 z" /><path
         id="path250"
         style="fill:#00ffff;fill-opacity:1;fill-rule:nonzero;stroke:none"
         d="m 5.25,164.587 c -0.859,0 -1.5,-0.531 -1.75,-1.484 l -0.469,-1.75 c -0.219,-0.844 -0.5,-1.156 -1.047,-1.156 -0.703,0 -1.234,0.625 -1.234,1.562 0,1.11 0.516,1.75 1.422,1.75 l 0,0.844 C 0.797,164.353 0,163.4 0,161.79 c 0,-1.531 0.844,-2.484 2.109,-2.484 0.86,0 1.391,0.453 1.641,1.375 l 0.453,1.734 c 0.235,0.875 0.594,1.282 1.141,1.282 0.765,0 1.218,-0.578 1.218,-1.782 0,-1.328 -0.671,-1.968 -1.671,-1.968 l 0,-0.86 c 1.656,0 2.453,1.125 2.453,2.766 0,1.781 -0.844,2.734 -2.094,2.734 z" /><path
         id="path252"
         style="fill:#00ffff;fill-opacity:1;fill-rule:nonzero;stroke:none"
         d="m 2.359,169.97 c -1.14,0 -1.984,-0.89 -1.984,-2.187 0,-1.391 0.703,-2.188 2.359,-2.235 l 0,0.844 c -1.14,0.063 -1.625,0.531 -1.625,1.375 0,0.766 0.547,1.328 1.282,1.328 0.531,0 0.984,-0.312 1.343,-0.906 l 0.5,-0.891 c 0.797,-1.422 1.438,-1.828 2.938,-1.906 l 0,4.531 -0.828,0 0,-3.578 c -0.563,0.078 -0.922,0.391 -1.406,1.219 l -0.516,0.969 c -0.516,0.937 -1.219,1.437 -2.063,1.437 z" /><path
         id="path254"
         style="fill:#00ffff;fill-opacity:1;fill-rule:nonzero;stroke:none"
         d="m 7.172,173.732 -6.797,0 0,-0.563 c 1.047,-0.297 1.187,-0.484 1.344,-1.781 l 0.609,0 0,1.5 4.844,0 0,0.844 z" /></g></g></svg>