<?xml version="1.0" encoding="UTF-8" standalone="no"?>
<svg
   xmlns:dc="http://purl.org/dc/elements/1.1/"
   xmlns:cc="http://creativecommons.org/ns#"
   xmlns:rdf="http://www.w3.org/1999/02/22-rdf-syntax-ns#"
   xmlns:svg="http://www.w3.org/2000/svg"
   xmlns="http://www.w3.org/2000/svg"
   viewBox="0 0 575.41602 372.116"
   height="372.116"
   width="575.41602"
   xml:space="preserve"
   version="1.1"
   id="svg2"><metadata
     id="metadata8"><rdf:RDF><cc:Work
         rdf:about=""><dc:format>image/svg+xml</dc:format><dc:type
           rdf:resource="http://purl.org/dc/dcmitype/StillImage" /></cc:Work></rdf:RDF></metadata><defs
     id="defs6" /><g
     transform="matrix(1.25,0,0,-1.25,0,372.11601)"
     id="g10"><g
       id="g12"><path
         id="path14"
         style="fill:none;stroke:#c0c0c0;stroke-width:0.80000001;stroke-linecap:square;stroke-linejoin:bevel;stroke-miterlimit:4;stroke-dasharray:0.8, 1.6;stroke-dashoffset:0;stroke-opacity:1"
         d="m 73.57,273.294 381.598,0" /><path
         id="path16"
         style="fill:none;stroke:#c0c0c0;stroke-width:0.80000001;stroke-linecap:square;stroke-linejoin:bevel;stroke-miterlimit:4;stroke-dasharray:0.8, 1.6;stroke-dashoffset:0;stroke-opacity:1"
         d="m 73.57,226.095 381.598,0" /><path
         id="path18"
         style="fill:none;stroke:#c0c0c0;stroke-width:0.80000001;stroke-linecap:square;stroke-linejoin:bevel;stroke-miterlimit:4;stroke-dasharray:0.8, 1.6;stroke-dashoffset:0;stroke-opacity:1"
         d="m 73.57,178.095 381.598,0" /><path
         id="path20"
         style="fill:none;stroke:#c0c0c0;stroke-width:0.80000001;stroke-linecap:square;stroke-linejoin:bevel;stroke-miterlimit:4;stroke-dasharray:0.8, 1.6;stroke-dashoffset:0;stroke-opacity:1"
         d="m 73.57,130.095 381.598,0" /><path
         id="path22"
         style="fill:none;stroke:#c0c0c0;stroke-width:0.80000001;stroke-linecap:square;stroke-linejoin:bevel;stroke-miterlimit:4;stroke-dasharray:0.8, 1.6;stroke-dashoffset:0;stroke-opacity:1"
         d="m 73.57,82.896 381.598,0" /><path
         id="path24"
         style="fill:none;stroke:#c0c0c0;stroke-width:0.80000001;stroke-linecap:square;stroke-linejoin:bevel;stroke-miterlimit:4;stroke-dasharray:0.8, 1.6;stroke-dashoffset:0;stroke-opacity:1"
         d="m 359.969,297.294 0,-262.398" /><path
         id="path26"
         style="fill:none;stroke:#c0c0c0;stroke-width:0.80000001;stroke-linecap:square;stroke-linejoin:bevel;stroke-miterlimit:4;stroke-dasharray:0.8, 1.6;stroke-dashoffset:0;stroke-opacity:1"
         d="m 264.77,297.294 0,-262.398" /><path
         id="path28"
         style="fill:none;stroke:#c0c0c0;stroke-width:0.80000001;stroke-linecap:square;stroke-linejoin:bevel;stroke-miterlimit:4;stroke-dasharray:0.8, 1.6;stroke-dashoffset:0;stroke-opacity:1"
         d="m 168.77,297.294 0,-262.398" /><path
         id="path30"
         style="fill:none;stroke:#000000;stroke-width:0.80000001;stroke-linecap:square;stroke-linejoin:bevel;stroke-miterlimit:4;stroke-dasharray:none;stroke-opacity:1"
         d="m 73.57,38.896 0,-8" /><path
         id="path32"
         style="fill:none;stroke:#000000;stroke-width:0.80000001;stroke-linecap:square;stroke-linejoin:bevel;stroke-miterlimit:4;stroke-dasharray:none;stroke-opacity:1"
         d="m 168.77,38.896 0,-8" /><path
         id="path34"
         style="fill:none;stroke:#000000;stroke-width:0.80000001;stroke-linecap:square;stroke-linejoin:bevel;stroke-miterlimit:4;stroke-dasharray:none;stroke-opacity:1"
         d="m 264.77,38.896 0,-8" /><path
         id="path36"
         style="fill:none;stroke:#000000;stroke-width:0.80000001;stroke-linecap:square;stroke-linejoin:bevel;stroke-miterlimit:4;stroke-dasharray:none;stroke-opacity:1"
         d="m 359.969,38.896 0,-8" /><path
         id="path38"
         style="fill:none;stroke:#000000;stroke-width:0.80000001;stroke-linecap:square;stroke-linejoin:bevel;stroke-miterlimit:4;stroke-dasharray:none;stroke-opacity:1"
         d="m 455.168,38.896 0,-8" /><path
         id="path40"
         style="fill:none;stroke:#000000;stroke-width:0.80000001;stroke-linecap:square;stroke-linejoin:bevel;stroke-miterlimit:4;stroke-dasharray:none;stroke-opacity:1"
         d="m 69.57,34.896 8,0" /><path
         id="path42"
         style="fill:none;stroke:#000000;stroke-width:0.80000001;stroke-linecap:square;stroke-linejoin:bevel;stroke-miterlimit:4;stroke-dasharray:none;stroke-opacity:1"
         d="m 69.57,82.896 8,0" /><path
         id="path44"
         style="fill:none;stroke:#000000;stroke-width:0.80000001;stroke-linecap:square;stroke-linejoin:bevel;stroke-miterlimit:4;stroke-dasharray:none;stroke-opacity:1"
         d="m 69.57,130.095 8,0" /><path
         id="path46"
         style="fill:none;stroke:#000000;stroke-width:0.80000001;stroke-linecap:square;stroke-linejoin:bevel;stroke-miterlimit:4;stroke-dasharray:none;stroke-opacity:1"
         d="m 69.57,178.095 8,0" /><path
         id="path48"
         style="fill:none;stroke:#000000;stroke-width:0.80000001;stroke-linecap:square;stroke-linejoin:bevel;stroke-miterlimit:4;stroke-dasharray:none;stroke-opacity:1"
         d="m 69.57,226.095 8,0" /><path
         id="path50"
         style="fill:none;stroke:#000000;stroke-width:0.80000001;stroke-linecap:square;stroke-linejoin:bevel;stroke-miterlimit:4;stroke-dasharray:none;stroke-opacity:1"
         d="m 69.57,273.294 8,0" /><path
         id="path52"
         style="fill:none;stroke:#000000;stroke-width:0.80000001;stroke-linecap:square;stroke-linejoin:bevel;stroke-miterlimit:4;stroke-dasharray:none;stroke-opacity:1"
         d="m 73.57,297.294 381.598,0" /><path
         id="path54"
         style="fill:none;stroke:#000000;stroke-width:0.80000001;stroke-linecap:square;stroke-linejoin:bevel;stroke-miterlimit:4;stroke-dasharray:none;stroke-opacity:1"
         d="m 455.168,297.294 0,-262.398" /><path
         id="path56"
         style="fill:none;stroke:#000000;stroke-width:0.80000001;stroke-linecap:square;stroke-linejoin:bevel;stroke-miterlimit:4;stroke-dasharray:none;stroke-opacity:1"
         d="m 73.57,34.896 381.598,0" /><path
         id="path58"
         style="fill:none;stroke:#000000;stroke-width:0.80000001;stroke-linecap:square;stroke-linejoin:bevel;stroke-miterlimit:4;stroke-dasharray:none;stroke-opacity:1"
         d="m 73.57,297.294 0,-262.398" /><path
         id="path60"
         style="fill:none;stroke:#ff0000;stroke-width:0.80000001;stroke-linecap:square;stroke-linejoin:bevel;stroke-miterlimit:4;stroke-dasharray:none;stroke-opacity:1"
         d="m 73.57,273.255 0.067,0.004 0.816,0.012 0.817,0.023 0.82,0.016 0.828,0.012 0.828,0.015 0.832,0.016 0.836,0.012 1.676,0.023 0.848,0.008 0.855,0.012 0.848,0.007 0.859,0.004 0.859,0.008 0.864,0.004 0.867,0.004 0.871,0.004 2.637,0 0.886,-0.004 0.891,0 0.895,-0.008 0.898,-0.004 0.902,-0.008 0.907,-0.007 0.906,-0.012 0.914,-0.012 0.918,-0.012 0.922,-0.019 0.925,-0.008 0.934,-0.019 0.93,-0.016 0.933,-0.02 0.942,-0.023 0.949,-0.023 0.945,-0.024 0.953,-0.023 0.957,-0.028 0.961,-0.027 0.965,-0.035 0.973,-0.024 0.973,-0.035 0.98,-0.031 0.977,-0.035 0.988,-0.035 0.992,-0.039 0.992,-0.036 1,-0.042 1.008,-0.04 1.004,-0.043 1.008,-0.042 1.015,-0.043 1.024,-0.043 1.023,-0.047 1.028,-0.051 1.035,-0.043 2.078,-0.094 1.047,-0.051 1.054,-0.046 1.059,-0.055 1.055,-0.047 1.07,-0.051 1.063,-0.047 1.074,-0.05 1.078,-0.055 2.172,-0.098 1.094,-0.047 1.093,-0.05 1.102,-0.047 2.219,-0.094 1.117,-0.047 1.117,-0.043 2.258,-0.086 1.133,-0.039 1.144,-0.039 1.141,-0.039 1.152,-0.031 1.152,-0.035 1.161,-0.032 1.164,-0.027 1.168,-0.023 1.175,-0.024 1.18,-0.019 1.18,-0.016 1.195,-0.016 1.192,-0.011 1.199,-0.004 1.203,-0.008 1.211,0 1.215,0.008 1.218,0.007 1.227,0.012 1.23,0.02 1.235,0.019 1.242,0.028 1.25,0.027 1.25,0.035 1.254,0.039 1.262,0.047 1.273,0.047 1.27,0.055 1.277,0.058 2.578,0.133 1.293,0.074 1.297,0.078 1.308,0.082 1.313,0.086 1.316,0.09 1.321,0.094 1.328,0.094 1.336,0.097 1.34,0.102 1.343,0.101 1.352,0.102 2.719,0.203 1.371,0.094 1.375,0.098 1.379,0.089 1.386,0.079 1.391,0.074 1.398,0.062 1.407,0.047 1.41,0.035 1.414,0.016 1.422,-0.004 1.429,-0.027 1.438,-0.055 1.437,-0.082 1.446,-0.117 1.453,-0.153 1.457,-0.191 1.465,-0.234 1.472,-0.282 1.477,-0.332 1.484,-0.382 1.493,-0.438 1.496,-0.496 1.504,-0.551 1.507,-0.617 1.516,-0.676 1.523,-0.738 1.528,-0.801 1.535,-0.867 1.543,-0.918 1.547,-0.981 1.554,-1.035 1.563,-1.093 1.57,-1.141 1.574,-1.191 1.583,-1.239 1.585,-1.277 1.602,-1.316 1.598,-1.352 1.613,-1.379 1.613,-1.41 1.621,-1.438 1.629,-1.457 1.637,-1.472 1.645,-1.492 1.648,-1.508 1.664,-1.516 1.664,-1.527 1.668,-1.532 1.68,-1.539 1.683,-1.543 1.696,-1.543 1.699,-1.542 1.707,-1.547 1.715,-1.543 1.722,-1.543 1.731,-1.535 1.742,-1.536 1.738,-1.531 3.516,-3.047 1.766,-1.511 1.773,-1.508 1.781,-1.5 1.789,-1.496 1.801,-1.489 1.801,-1.48 1.812,-1.473 1.821,-1.465 1.828,-1.457 1.836,-1.453 1.843,-1.445 1.856,-1.434 1.855,-1.429 1.868,-1.426 1.875,-1.41 1.882,-1.407 1.895,-1.398 1.898,-1.395 1.907,-1.382 1.918,-1.383 1.922,-1.367 1.937,-1.368 1.937,-1.355 1.946,-1.352 1.957,-1.343 1.969,-1.34 1.972,-1.328 1.981,-1.324 1.992,-1.321 1.996,-1.312 2.008,-1.305 2.019,-1.301 2.024,-1.293 2.035,-1.293 2.039,-1.281 2.051,-1.277 2.058,-1.274 2.071,-1.265 2.078,-1.262 2.086,-1.254 2.094,-1.254 2.105,-1.246 2.109,-1.246 2.125,-1.231 2.129,-1.23 2.141,-1.227 2.148,-1.226 2.16,-1.215 2.168,-1.215 4.36,-2.414 2.199,-1.199 2.207,-1.195 2.211,-1.192 2.223,-1.195 2.234,-1.18 2.238,-1.18 4.516,-2.351 2.269,-1.168 2.282,-1.164 2.293,-1.16 2.3,-1.16 2.313,-1.153 2.316,-1.152 2.332,-1.149 2.34,-1.144 2.348,-1.141 2.359,-1.14 2.371,-1.137 2.379,-1.129 2.391,-1.129 2.402,-1.125 2.41,-1.125 2.422,-1.121 2.43,-1.121" /><path
         id="path62"
         style="fill:none;stroke:#ff00ff;stroke-width:0.80000001;stroke-linecap:square;stroke-linejoin:bevel;stroke-miterlimit:4;stroke-dasharray:none;stroke-opacity:1"
         d="m 73.57,270.99 0.067,0 0.816,0.023 0.817,-0.016 0.82,0 0.828,-0.003 0.828,0.003 0.832,0.008 0.836,-0.008 0.836,0.004 0.84,-0.011 0.848,-0.012 0.855,-0.016 0.848,-0.011 0.859,0 0.859,0.004 0.864,-0.016 0.867,-0.024 0.871,-0.003 0.875,0.015 0.879,-0.019 0.883,-0.012 0.886,-0.004 0.891,-0.016 0.895,-0.011 0.898,-0.012 0.902,-0.023 0.907,-0.032 0.906,-0.035 0.914,-0.019 0.918,-0.012 0.922,-0.027 0.925,-0.016 0.934,0 1.863,-0.024 0.942,0.004 0.949,0 0.945,-0.039 0.953,-0.027 0.957,-0.027 0.961,-0.016 0.965,-0.039 0.973,-0.043 0.973,-0.039 0.98,-0.02 0.977,-0.004 0.988,-0.003 0.992,-0.02 0.992,-0.023 1,-0.047 1.008,-0.067 1.004,-0.047 1.008,-0.027 1.015,-0.035 1.024,-0.031 1.023,-0.012 1.028,0.043 1.035,0.008 1.039,0 1.039,-0.016 1.047,-0.031 1.054,-0.074 1.059,-0.067 1.055,-0.062 1.07,-0.055 1.063,-0.023 1.074,0.023 1.078,0.004 1.086,-0.012 1.086,0.004 1.094,0.008 1.093,-0.039 1.102,-0.031 1.113,-0.063 1.106,-0.031 1.117,-0.012 1.117,-0.004 1.129,0.028 1.129,0.043 1.133,-0.004 1.144,-0.008 1.141,-0.051 1.152,-0.074 1.152,-0.067 1.161,-0.074 1.164,-0.027 1.168,-0.012 1.175,0.07 1.18,0.055 1.18,0.012 1.195,-0.004 1.192,-0.043 1.199,-0.062 1.203,-0.071 1.211,-0.051 1.215,-0.035 1.218,0.004 1.227,0.047 1.23,0.043 1.235,0.027 1.242,-0.043 1.25,-0.043 1.25,-0.046 1.254,-0.071 1.262,-0.031 1.273,0.012 1.27,0.015 1.277,0.02 1.289,-0.012 1.289,-0.015 1.293,-0.059 1.297,-0.051 1.308,-0.066 1.313,-0.059 1.316,-0.035 1.321,-0.07 1.328,-0.039 1.336,-0.063 1.34,-0.031 1.343,-0.027 1.352,-0.04 1.359,-0.07 1.36,-0.125 1.371,-0.144 1.375,-0.18 1.379,-0.141 1.386,-0.125 1.391,-0.093 1.398,-0.098 1.407,-0.16 1.41,-0.219 1.414,-0.391 1.422,-0.347 1.429,-0.25 1.438,-0.098 1.437,0.004 1.446,-0.008 1.453,-0.156 1.457,-0.309 1.465,-0.57 1.472,-0.586 1.477,-0.504 1.484,-0.336 1.493,-0.285 1.496,-0.437 1.504,-0.688 1.507,-1.004 1.516,-1.098 1.523,-0.878 1.528,-0.59 1.535,-0.41 1.543,-0.543 1.547,-0.918 1.554,-1.426 1.563,-1.559 1.57,-1.39 1.574,-0.856 1.583,-0.453 1.585,-0.402 1.602,-1.02 1.598,-1.558 1.613,-1.922 1.613,-1.84 1.621,-1.402 1.629,-1.075 1.637,-1.09 1.645,-1.683 1.648,-2.199 1.664,-2.403 1.664,-2.101 1.668,-1.481 1.68,-1.125 1.683,-1.277 1.696,-2.066 1.699,-2.59 1.707,-2.594 1.715,-1.941 1.722,-0.872 1.731,-0.253 1.742,-0.915 1.738,-2.039 1.758,-2.699 1.758,-2.726 1.766,-2.317 1.773,-1.781 1.781,-1.844 1.789,-2.488 1.801,-2.902 1.801,-2.723 1.812,-1.867 1.821,-0.789 1.828,-0.508 1.836,-1.34 1.843,-2.402 1.856,-2.899 1.855,-2.527 1.868,-1.356 1.875,-0.273 1.882,-0.445 1.895,-1.375 1.898,-2.141 1.907,-1.996 1.918,-1.426 1.922,-0.808 1.937,-1.407 1.937,-2.3 1.946,-2.891 1.957,-2.434 1.969,-1.441 1.972,-0.734 1.981,-1.2 1.992,-2.386 1.996,-2.981 2.008,-2.64 2.019,-1.426 2.024,-0.172 2.035,0.172 2.039,-0.934 2.051,-1.644 2.058,-1.43 2.071,-0.848 2.078,-0.777 2.086,-1.441 2.094,-2.086 2.105,-1.954 2.109,-0.664 2.125,0.793 2.129,0.383 2.141,-1.222 2.148,-2.61 2.16,-3.156 2.168,-2.484 2.18,-1.731 2.18,-2.684 2.199,-3.011 2.207,-2.864 2.211,-2.566 2.223,-1.66 2.234,-1.656 2.238,-2.387 2.258,-1.789 2.258,-0.352 2.269,0.567 2.282,1.258 2.293,-0.84 2.3,-2.301 2.313,-2.391 2.316,-1.508 2.332,-1.101 2.34,-0.863 2.348,-1.895 2.359,-1.289 2.371,-0.508 2.379,-2.039 2.391,-3.656 2.402,-3.629 2.41,-2.27 2.422,-0.66 2.43,1.352" /><path
         id="path64"
         style="fill:none;stroke:#00ff00;stroke-width:0.80000001;stroke-linecap:square;stroke-linejoin:bevel;stroke-miterlimit:4;stroke-dasharray:none;stroke-opacity:1"
         d="m 73.57,271.365 5.008,0 0.836,0.004 5.945,0 0.864,0.003 4.375,0 0.886,0.004 11.875,0 0.942,-0.004 1.894,0 0.953,-0.003 0.957,0 0.961,-0.004 0.965,0 1.946,-0.012 1.957,0 0.988,-0.008 1.984,-0.008 1,-0.004 1.008,-0.007 1.004,-0.004 1.008,-0.008 1.015,-0.008 2.047,-0.016 1.028,-0.007 1.035,-0.012 1.039,-0.008 1.039,-0.012 1.047,-0.011 2.113,-0.024 1.055,-0.015 1.07,-0.016 1.063,-0.012 1.074,-0.015 1.078,-0.02 1.086,-0.016 1.086,-0.019 1.094,-0.016 1.093,-0.023 1.102,-0.02 1.113,-0.023 1.106,-0.02 2.234,-0.046 1.129,-0.024 1.129,-0.027 1.133,-0.028 1.144,-0.027 1.141,-0.027 1.152,-0.028 1.152,-0.031 1.161,-0.031 1.164,-0.027 1.168,-0.036 2.355,-0.066 1.18,-0.031 1.195,-0.035 1.192,-0.036 1.199,-0.035 1.203,-0.035 1.211,-0.035 1.215,-0.043 1.218,-0.031 1.227,-0.039 1.23,-0.036 1.235,-0.039 1.242,-0.035 1.25,-0.039 1.25,-0.035 1.254,-0.035 1.262,-0.035 1.273,-0.035 1.27,-0.036 1.277,-0.035 1.289,-0.031 1.289,-0.035 1.293,-0.027 1.297,-0.032 2.621,-0.054 2.637,-0.047 1.328,-0.02 1.336,-0.019 1.34,-0.02 1.343,-0.016 1.352,-0.019 2.719,-0.016 1.371,-0.007 1.375,-0.008 1.379,-0.008 2.777,0 1.398,-0.004 5.653,0 1.429,-0.004 2.875,-0.016 1.446,-0.019 1.453,-0.02 1.457,-0.027 1.465,-0.043 1.472,-0.051 1.477,-0.066 1.484,-0.082 1.493,-0.106 1.496,-0.129 1.504,-0.152 1.507,-0.183 1.516,-0.223 1.523,-0.254 1.528,-0.297 1.535,-0.348 1.543,-0.402 1.547,-0.457 1.554,-0.516 1.563,-0.585 1.57,-0.653 1.574,-0.726 1.583,-0.805 1.585,-0.883 1.602,-0.961 1.598,-1.043 1.613,-1.125 1.613,-1.203 1.621,-1.285 1.629,-1.359 1.637,-1.434 1.645,-1.5 1.648,-1.566 1.664,-1.629 1.664,-1.688 1.668,-1.738 1.68,-1.785 1.683,-1.828 1.696,-1.864 1.699,-1.902 1.707,-1.93 1.715,-1.953 1.722,-1.976 1.731,-1.997 1.742,-2.015 1.738,-2.024 1.758,-2.035 1.758,-2.047 1.766,-2.05 1.773,-2.059 1.781,-2.059 1.789,-2.062 1.801,-2.063 1.801,-2.066 1.812,-2.062 1.821,-2.059 1.828,-2.059 1.836,-2.058 1.843,-2.055 1.856,-2.051 1.855,-2.047 1.868,-2.043 1.875,-2.043 1.882,-2.035 1.895,-2.035 1.898,-2.031 1.907,-2.024 1.918,-2.019 1.922,-2.02 1.937,-2.019 1.937,-2.008 1.946,-2.008 1.957,-2.008 1.969,-2.003 1.972,-2 1.981,-2 1.992,-1.997 1.996,-1.996 2.008,-1.996 2.019,-1.992 2.024,-1.996 2.035,-1.988 2.039,-1.993 2.051,-1.992 2.058,-1.992 2.071,-1.992 2.078,-2 2.086,-1.992 2.094,-1.996 2.105,-2 2.109,-2 2.125,-2.004 2.129,-2.008 2.141,-2.012 2.148,-2.012 2.16,-2.019 2.168,-2.023 2.18,-2.028 2.18,-2.035 2.199,-2.039 2.207,-2.043 2.211,-2.055 2.223,-2.058 2.234,-2.067 2.238,-2.074 2.258,-2.086 2.258,-2.09 2.269,-2.101 2.282,-2.114 2.293,-2.125 2.3,-2.132 2.313,-2.145 2.316,-2.16 2.332,-2.172 2.34,-2.187 2.348,-2.2 2.359,-2.214 2.371,-2.231 2.379,-2.25 2.391,-2.266 2.402,-2.285 2.41,-2.304 2.422,-2.329 2.43,-2.351" /><path
         id="path66"
         style="fill:#000000;fill-opacity:1;fill-rule:nonzero;stroke:none"
         d="m 66.5,20.494 0,6.796 -0.562,0 c -0.297,-1.046 -0.485,-1.187 -1.782,-1.343 l 0,-0.61 1.5,0 0,-4.843 0.844,0 z" /><path
         id="path68"
         style="fill:#000000;fill-opacity:1;fill-rule:nonzero;stroke:none"
         d="m 73.43,22.775 c 0,0.734 -0.063,1.187 -0.203,1.562 -0.329,0.828 -1.094,1.328 -2.032,1.328 -1.406,0 -2.297,-1.031 -2.297,-2.687 0,-1.656 0.86,-2.625 2.282,-2.625 1.14,0 1.937,0.656 2.14,1.672 l -0.797,0 c -0.218,-0.672 -0.671,-0.938 -1.312,-0.938 -0.844,0 -1.469,0.532 -1.484,1.688 l 3.703,0 z m -0.86,0.719 c 0,0 0,-0.047 0,-0.063 l -2.828,0 c 0.078,0.891 0.641,1.5 1.438,1.5 0.797,0 1.39,-0.656 1.39,-1.437 z" /><path
         id="path70"
         style="fill:#000000;fill-opacity:1;fill-rule:nonzero;stroke:none"
         d="m 78.738,24.056 c 0,2.125 -0.75,3.234 -2.297,3.234 -1.296,0 -2.234,-0.921 -2.234,-2.25 0,-1.265 0.875,-2.125 2.094,-2.125 0.64,0 1.109,0.235 1.562,0.766 -0.015,-1.656 -0.547,-2.578 -1.515,-2.578 -0.594,0 -1.016,0.375 -1.141,1.016 l -0.844,0 c 0.157,-1.11 0.891,-1.766 1.922,-1.766 1.594,0 2.453,1.344 2.453,3.703 z m -0.922,1 c 0,-0.828 -0.593,-1.391 -1.421,-1.391 -0.813,0 -1.313,0.532 -1.313,1.438 0,0.875 0.563,1.453 1.344,1.453 0.797,0 1.39,-0.609 1.39,-1.5 z" /><path
         id="path72"
         style="fill:#000000;fill-opacity:1;fill-rule:nonzero;stroke:none"
         d="m 156.098,20.494 0,6.796 -0.563,0 c -0.297,-1.046 -0.484,-1.187 -1.781,-1.343 l 0,-0.61 1.5,0 0,-4.843 0.844,0 z" /><path
         id="path74"
         style="fill:#000000;fill-opacity:1;fill-rule:nonzero;stroke:none"
         d="m 158.934,21.494 1,0 0,-1 -1,0 0,1 z" /><path
         id="path76"
         style="fill:#000000;fill-opacity:1;fill-rule:nonzero;stroke:none"
         d="m 165.695,22.744 c 0,1.343 -0.89,2.234 -2.203,2.234 -0.469,0 -0.859,-0.125 -1.25,-0.422 l 0.266,1.766 2.828,0 0,0.828 -3.5,0 -0.516,-3.563 0.782,0 c 0.39,0.469 0.718,0.641 1.25,0.641 0.906,0 1.484,-0.594 1.484,-1.594 0,-0.984 -0.578,-1.531 -1.484,-1.531 -0.75,0 -1.204,0.375 -1.391,1.141 l -0.859,0 c 0.281,-1.36 1.046,-1.891 2.265,-1.891 1.375,0 2.328,0.953 2.328,2.391 z" /><path
         id="path78"
         style="fill:#000000;fill-opacity:1;fill-rule:nonzero;stroke:none"
         d="m 171.035,22.775 c 0,0.734 -0.062,1.187 -0.203,1.562 -0.328,0.828 -1.094,1.328 -2.031,1.328 -1.406,0 -2.297,-1.031 -2.297,-2.687 0,-1.656 0.859,-2.625 2.281,-2.625 1.141,0 1.938,0.656 2.141,1.672 l -0.797,0 c -0.219,-0.672 -0.672,-0.938 -1.313,-0.938 -0.843,0 -1.468,0.532 -1.484,1.688 l 3.703,0 z m -0.859,0.719 c 0,0 0,-0.047 0,-0.063 l -2.828,0 c 0.078,0.891 0.64,1.5 1.437,1.5 0.797,0 1.391,-0.656 1.391,-1.437 z" /><path
         id="path80"
         style="fill:#000000;fill-opacity:1;fill-rule:nonzero;stroke:none"
         d="m 176.34,24.056 c 0,2.125 -0.75,3.234 -2.297,3.234 -1.297,0 -2.234,-0.921 -2.234,-2.25 0,-1.265 0.875,-2.125 2.093,-2.125 0.641,0 1.11,0.235 1.563,0.766 -0.016,-1.656 -0.547,-2.578 -1.516,-2.578 -0.594,0 -1.015,0.375 -1.14,1.016 l -0.844,0 c 0.156,-1.11 0.89,-1.766 1.922,-1.766 1.593,0 2.453,1.344 2.453,3.703 z m -0.922,1 c 0,-0.828 -0.594,-1.391 -1.422,-1.391 -0.812,0 -1.312,0.532 -1.312,1.438 0,0.875 0.562,1.453 1.343,1.453 0.797,0 1.391,-0.609 1.391,-1.5 z" /><path
         id="path82"
         style="fill:#000000;fill-opacity:1;fill-rule:nonzero;stroke:none"
         d="m 259.277,25.306 c 0,1.141 -0.89,1.984 -2.187,1.984 -1.391,0 -2.188,-0.703 -2.235,-2.359 l 0.844,0 c 0.063,1.141 0.531,1.625 1.375,1.625 0.766,0 1.328,-0.547 1.328,-1.281 0,-0.531 -0.312,-0.985 -0.906,-1.344 l -0.891,-0.5 c -1.421,-0.797 -1.828,-1.437 -1.906,-2.937 l 4.531,0 0,0.828 -3.578,0 c 0.078,0.562 0.391,0.922 1.219,1.406 l 0.969,0.516 c 0.937,0.515 1.437,1.218 1.437,2.062 z" /><path
         id="path84"
         style="fill:#000000;fill-opacity:1;fill-rule:nonzero;stroke:none"
         d="m 264.629,22.775 c 0,0.734 -0.063,1.187 -0.203,1.562 -0.328,0.828 -1.094,1.328 -2.031,1.328 -1.407,0 -2.297,-1.031 -2.297,-2.687 0,-1.656 0.859,-2.625 2.281,-2.625 1.141,0 1.937,0.656 2.141,1.672 l -0.797,0 c -0.219,-0.672 -0.672,-0.938 -1.313,-0.938 -0.844,0 -1.469,0.532 -1.484,1.688 l 3.703,0 z m -0.859,0.719 c 0,0 0,-0.047 0,-0.063 l -2.829,0 c 0.079,0.891 0.641,1.5 1.438,1.5 0.797,0 1.391,-0.656 1.391,-1.437 z" /><path
         id="path86"
         style="fill:#000000;fill-opacity:1;fill-rule:nonzero;stroke:none"
         d="m 269.938,24.056 c 0,2.125 -0.75,3.234 -2.297,3.234 -1.297,0 -2.235,-0.921 -2.235,-2.25 0,-1.265 0.875,-2.125 2.094,-2.125 0.641,0 1.109,0.235 1.562,0.766 -0.015,-1.656 -0.546,-2.578 -1.515,-2.578 -0.594,0 -1.016,0.375 -1.141,1.016 l -0.844,0 c 0.157,-1.11 0.891,-1.766 1.922,-1.766 1.594,0 2.454,1.344 2.454,3.703 z m -0.922,1 c 0,-0.828 -0.594,-1.391 -1.422,-1.391 -0.813,0 -1.313,0.532 -1.313,1.438 0,0.875 0.563,1.453 1.344,1.453 0.797,0 1.391,-0.609 1.391,-1.5 z" /><path
         id="path88"
         style="fill:#000000;fill-opacity:1;fill-rule:nonzero;stroke:none"
         d="m 348.875,25.306 c 0,1.141 -0.891,1.984 -2.187,1.984 -1.391,0 -2.188,-0.703 -2.235,-2.359 l 0.844,0 c 0.062,1.141 0.531,1.625 1.375,1.625 0.766,0 1.328,-0.547 1.328,-1.281 0,-0.531 -0.312,-0.985 -0.906,-1.344 l -0.891,-0.5 c -1.422,-0.797 -1.828,-1.437 -1.906,-2.937 l 4.531,0 0,0.828 -3.578,0 c 0.078,0.562 0.391,0.922 1.219,1.406 l 0.969,0.516 c 0.937,0.515 1.437,1.218 1.437,2.062 z" /><path
         id="path90"
         style="fill:#000000;fill-opacity:1;fill-rule:nonzero;stroke:none"
         d="m 350.133,21.494 1,0 0,-1 -1,0 0,1 z" /><path
         id="path92"
         style="fill:#000000;fill-opacity:1;fill-rule:nonzero;stroke:none"
         d="m 356.895,22.744 c 0,1.343 -0.891,2.234 -2.204,2.234 -0.468,0 -0.859,-0.125 -1.25,-0.422 l 0.266,1.766 2.828,0 0,0.828 -3.5,0 -0.515,-3.563 0.781,0 c 0.39,0.469 0.719,0.641 1.25,0.641 0.906,0 1.484,-0.594 1.484,-1.594 0,-0.984 -0.578,-1.531 -1.484,-1.531 -0.75,0 -1.203,0.375 -1.391,1.141 l -0.859,0 c 0.281,-1.36 1.047,-1.891 2.265,-1.891 1.375,0 2.329,0.953 2.329,2.391 z" /><path
         id="path94"
         style="fill:#000000;fill-opacity:1;fill-rule:nonzero;stroke:none"
         d="m 362.234,22.775 c 0,0.734 -0.062,1.187 -0.203,1.562 -0.328,0.828 -1.093,1.328 -2.031,1.328 -1.406,0 -2.297,-1.031 -2.297,-2.687 0,-1.656 0.859,-2.625 2.281,-2.625 1.141,0 1.938,0.656 2.141,1.672 l -0.797,0 c -0.219,-0.672 -0.672,-0.938 -1.312,-0.938 -0.844,0 -1.469,0.532 -1.485,1.688 l 3.703,0 z m -0.859,0.719 c 0,0 0,-0.047 0,-0.063 l -2.828,0 c 0.078,0.891 0.641,1.5 1.437,1.5 0.797,0 1.391,-0.656 1.391,-1.437 z" /><path
         id="path96"
         style="fill:#000000;fill-opacity:1;fill-rule:nonzero;stroke:none"
         d="m 367.539,24.056 c 0,2.125 -0.75,3.234 -2.297,3.234 -1.297,0 -2.234,-0.921 -2.234,-2.25 0,-1.265 0.875,-2.125 2.094,-2.125 0.64,0 1.109,0.235 1.562,0.766 -0.016,-1.656 -0.547,-2.578 -1.516,-2.578 -0.593,0 -1.015,0.375 -1.14,1.016 l -0.844,0 c 0.156,-1.11 0.891,-1.766 1.922,-1.766 1.594,0 2.453,1.344 2.453,3.703 z m -0.922,1 c 0,-0.828 -0.594,-1.391 -1.422,-1.391 -0.812,0 -1.312,0.532 -1.312,1.438 0,0.875 0.562,1.453 1.344,1.453 0.796,0 1.39,-0.609 1.39,-1.5 z" /><path
         id="path98"
         style="fill:#000000;fill-opacity:1;fill-rule:nonzero;stroke:none"
         d="m 449.629,22.462 c 0,0.828 -0.344,1.313 -1.156,1.594 0.64,0.25 0.953,0.688 0.953,1.375 0,1.172 -0.781,1.859 -2.078,1.859 -1.375,0 -2.094,-0.75 -2.125,-2.187 l 0.843,0 c 0.016,1 0.438,1.453 1.297,1.453 0.75,0 1.203,-0.437 1.203,-1.156 0,-0.735 -0.328,-1.031 -1.671,-1.031 l 0,-0.704 0.453,0 c 0.937,0 1.406,-0.453 1.406,-1.203 0,-0.859 -0.516,-1.359 -1.406,-1.359 -0.922,0 -1.375,0.453 -1.422,1.437 l -0.844,0 c 0.094,-1.515 0.844,-2.187 2.234,-2.187 1.407,0 2.313,0.828 2.313,2.109 z" /><path
         id="path100"
         style="fill:#000000;fill-opacity:1;fill-rule:nonzero;stroke:none"
         d="m 455.031,22.775 c 0,0.734 -0.062,1.187 -0.203,1.562 -0.328,0.828 -1.094,1.328 -2.031,1.328 -1.406,0 -2.297,-1.031 -2.297,-2.687 0,-1.656 0.859,-2.625 2.281,-2.625 1.141,0 1.938,0.656 2.141,1.672 l -0.797,0 c -0.219,-0.672 -0.672,-0.938 -1.313,-0.938 -0.843,0 -1.468,0.532 -1.484,1.688 l 3.703,0 z m -0.859,0.719 c 0,0 0,-0.047 0,-0.063 l -2.828,0 c 0.078,0.891 0.64,1.5 1.437,1.5 0.797,0 1.391,-0.656 1.391,-1.437 z" /><path
         id="path102"
         style="fill:#000000;fill-opacity:1;fill-rule:nonzero;stroke:none"
         d="m 460.336,24.056 c 0,2.125 -0.75,3.234 -2.297,3.234 -1.297,0 -2.234,-0.921 -2.234,-2.25 0,-1.265 0.875,-2.125 2.093,-2.125 0.641,0 1.11,0.235 1.563,0.766 -0.016,-1.656 -0.547,-2.578 -1.516,-2.578 -0.593,0 -1.015,0.375 -1.14,1.016 l -0.844,0 c 0.156,-1.11 0.891,-1.766 1.922,-1.766 1.594,0 2.453,1.344 2.453,3.703 z m -0.922,1 c 0,-0.828 -0.594,-1.391 -1.422,-1.391 -0.812,0 -1.312,0.532 -1.312,1.438 0,0.875 0.562,1.453 1.343,1.453 0.797,0 1.391,-0.609 1.391,-1.5 z" /><path
         id="path104"
         style="fill:#000000;fill-opacity:1;fill-rule:nonzero;stroke:none"
         d="m 50.008,33.091 2.281,0 0,-0.703 -2.281,0 0,0.703 z" /><path
         id="path106"
         style="fill:#000000;fill-opacity:1;fill-rule:nonzero;stroke:none"
         d="m 57.691,32.341 c 0,1.344 -0.89,2.235 -2.203,2.235 -0.468,0 -0.859,-0.125 -1.25,-0.422 l 0.266,1.765 2.828,0 0,0.828 -3.5,0 -0.516,-3.562 0.782,0 c 0.39,0.469 0.718,0.641 1.25,0.641 0.906,0 1.484,-0.594 1.484,-1.594 0,-0.985 -0.578,-1.531 -1.484,-1.531 -0.75,0 -1.203,0.375 -1.391,1.14 l -0.859,0 c 0.281,-1.359 1.047,-1.89 2.265,-1.89 1.375,0 2.328,0.953 2.328,2.39 z" /><path
         id="path108"
         style="fill:#000000;fill-opacity:1;fill-rule:nonzero;stroke:none"
         d="m 62.965,33.357 c 0,2.359 -0.75,3.531 -2.219,3.531 -1.469,0 -2.234,-1.187 -2.234,-3.469 0,-2.297 0.781,-3.468 2.234,-3.468 1.438,0 2.219,1.171 2.219,3.406 z m -0.86,0.078 c 0,-1.922 -0.437,-2.781 -1.375,-2.781 -0.89,0 -1.343,0.89 -1.343,2.75 0,1.875 0.453,2.734 1.359,2.734 0.906,0 1.359,-0.875 1.359,-2.703 z" /><path
         id="path110"
         style="fill:#000000;fill-opacity:1;fill-rule:nonzero;stroke:none"
         d="m 50.008,81.091 2.281,0 0,-0.703 -2.281,0 0,0.703 z" /><path
         id="path112"
         style="fill:#000000;fill-opacity:1;fill-rule:nonzero;stroke:none"
         d="m 57.754,79.716 0,0.766 -1,0 0,4.406 -0.625,0 -3.094,-4.281 0,-0.891 2.875,0 0,-1.625 0.844,0 0,1.625 1,0 z m -1.844,0.766 -2.14,0 2.14,2.969 0,-2.969 z" /><path
         id="path114"
         style="fill:#000000;fill-opacity:1;fill-rule:nonzero;stroke:none"
         d="m 62.965,81.357 c 0,2.359 -0.75,3.531 -2.219,3.531 -1.469,0 -2.234,-1.187 -2.234,-3.469 0,-2.297 0.781,-3.468 2.234,-3.468 1.438,0 2.219,1.171 2.219,3.406 z m -0.86,0.078 c 0,-1.922 -0.437,-2.781 -1.375,-2.781 -0.89,0 -1.343,0.89 -1.343,2.75 0,1.875 0.453,2.734 1.359,2.734 0.906,0 1.359,-0.875 1.359,-2.703 z" /><path
         id="path116"
         style="fill:#000000;fill-opacity:1;fill-rule:nonzero;stroke:none"
         d="m 50.008,128.294 2.281,0 0,-0.703 -2.281,0 0,0.703 z" /><path
         id="path118"
         style="fill:#000000;fill-opacity:1;fill-rule:nonzero;stroke:none"
         d="m 57.629,127.263 c 0,0.828 -0.344,1.313 -1.156,1.594 0.64,0.25 0.953,0.687 0.953,1.375 0,1.172 -0.781,1.859 -2.078,1.859 -1.375,0 -2.094,-0.75 -2.125,-2.187 l 0.843,0 c 0.016,1 0.438,1.453 1.297,1.453 0.75,0 1.203,-0.438 1.203,-1.156 0,-0.735 -0.328,-1.032 -1.671,-1.032 l 0,-0.703 0.453,0 c 0.937,0 1.406,-0.453 1.406,-1.203 0,-0.859 -0.516,-1.359 -1.406,-1.359 -0.922,0 -1.375,0.453 -1.422,1.437 l -0.844,0 c 0.094,-1.515 0.844,-2.187 2.234,-2.187 1.407,0 2.313,0.828 2.313,2.109 z" /><path
         id="path120"
         style="fill:#000000;fill-opacity:1;fill-rule:nonzero;stroke:none"
         d="m 62.965,128.56 c 0,2.359 -0.75,3.531 -2.219,3.531 -1.469,0 -2.234,-1.187 -2.234,-3.469 0,-2.296 0.781,-3.468 2.234,-3.468 1.438,0 2.219,1.172 2.219,3.406 z m -0.86,0.078 c 0,-1.922 -0.437,-2.781 -1.375,-2.781 -0.89,0 -1.343,0.89 -1.343,2.75 0,1.875 0.453,2.734 1.359,2.734 0.906,0 1.359,-0.875 1.359,-2.703 z" /><path
         id="path122"
         style="fill:#000000;fill-opacity:1;fill-rule:nonzero;stroke:none"
         d="m 50.008,176.294 2.281,0 0,-0.703 -2.281,0 0,0.703 z" /><path
         id="path124"
         style="fill:#000000;fill-opacity:1;fill-rule:nonzero;stroke:none"
         d="m 57.676,178.107 c 0,1.14 -0.891,1.984 -2.188,1.984 -1.39,0 -2.187,-0.703 -2.234,-2.359 l 0.844,0 c 0.062,1.14 0.531,1.625 1.375,1.625 0.765,0 1.328,-0.547 1.328,-1.281 0,-0.532 -0.313,-0.985 -0.906,-1.344 l -0.891,-0.5 c -1.422,-0.797 -1.828,-1.438 -1.906,-2.938 l 4.531,0 0,0.828 -3.578,0 c 0.078,0.563 0.39,0.922 1.219,1.407 l 0.968,0.515 c 0.938,0.516 1.438,1.219 1.438,2.063 z" /><path
         id="path126"
         style="fill:#000000;fill-opacity:1;fill-rule:nonzero;stroke:none"
         d="m 62.965,176.56 c 0,2.359 -0.75,3.531 -2.219,3.531 -1.469,0 -2.234,-1.187 -2.234,-3.469 0,-2.296 0.781,-3.468 2.234,-3.468 1.438,0 2.219,1.172 2.219,3.406 z m -0.86,0.078 c 0,-1.922 -0.437,-2.781 -1.375,-2.781 -0.89,0 -1.343,0.89 -1.343,2.75 0,1.875 0.453,2.734 1.359,2.734 0.906,0 1.359,-0.875 1.359,-2.703 z" /><path
         id="path128"
         style="fill:#000000;fill-opacity:1;fill-rule:nonzero;stroke:none"
         d="m 50.008,224.294 2.281,0 0,-0.703 -2.281,0 0,0.703 z" /><path
         id="path130"
         style="fill:#000000;fill-opacity:1;fill-rule:nonzero;stroke:none"
         d="m 56.098,221.294 0,6.797 -0.563,0 c -0.297,-1.047 -0.484,-1.187 -1.781,-1.344 l 0,-0.609 1.5,0 0,-4.844 0.844,0 z" /><path
         id="path132"
         style="fill:#000000;fill-opacity:1;fill-rule:nonzero;stroke:none"
         d="m 62.965,224.56 c 0,2.359 -0.75,3.531 -2.219,3.531 -1.469,0 -2.234,-1.187 -2.234,-3.469 0,-2.296 0.781,-3.468 2.234,-3.468 1.438,0 2.219,1.172 2.219,3.406 z m -0.86,0.078 c 0,-1.922 -0.437,-2.781 -1.375,-2.781 -0.89,0 -1.343,0.89 -1.343,2.75 0,1.875 0.453,2.734 1.359,2.734 0.906,0 1.359,-0.875 1.359,-2.703 z" /><path
         id="path134"
         style="fill:#000000;fill-opacity:1;fill-rule:nonzero;stroke:none"
         d="m 65.629,271.759 c 0,2.36 -0.75,3.531 -2.219,3.531 -1.469,0 -2.234,-1.187 -2.234,-3.468 0,-2.297 0.781,-3.469 2.234,-3.469 1.438,0 2.219,1.172 2.219,3.406 z m -0.859,0.078 c 0,-1.922 -0.438,-2.781 -1.375,-2.781 -0.891,0 -1.344,0.891 -1.344,2.75 0,1.875 0.453,2.734 1.359,2.734 0.906,0 1.36,-0.875 1.36,-2.703 z" /><path
         id="path136"
         style="fill:#000000;fill-opacity:1;fill-rule:nonzero;stroke:none"
         d="m 225.535,8.294 0,0.797 -4.703,0 0,-7 0.891,0 0,3.188 3.343,0 0,0.781 -3.343,0 0,2.234 3.812,0 z" /><path
         id="path138"
         style="fill:#000000;fill-opacity:1;fill-rule:nonzero;stroke:none"
         d="m 228.578,6.419 0,0.813 c -0.14,0.015 -0.203,0.031 -0.312,0.031 -0.516,0 -0.907,-0.312 -1.36,-1.062 l 0,0.921 -0.734,0 0,-5.031 0.797,0 0,2.61 c 0,1.125 0.375,1.703 1.609,1.718 z" /><path
         id="path140"
         style="fill:#000000;fill-opacity:1;fill-rule:nonzero;stroke:none"
         d="m 233.531,4.372 c 0,0.735 -0.062,1.188 -0.203,1.563 -0.328,0.828 -1.094,1.328 -2.031,1.328 -1.406,0 -2.297,-1.031 -2.297,-2.687 0,-1.657 0.859,-2.625 2.281,-2.625 1.141,0 1.938,0.656 2.141,1.671 l -0.797,0 c -0.219,-0.671 -0.672,-0.937 -1.313,-0.937 -0.843,0 -1.468,0.531 -1.484,1.687 l 3.703,0 z m -0.859,0.719 c 0,0 0,-0.047 0,-0.062 l -2.828,0 c 0.078,0.89 0.64,1.5 1.437,1.5 0.797,0 1.391,-0.657 1.391,-1.438 z m 0.344,4 -1.094,0 -0.922,-1.422 0.578,0 1.438,1.422 z" /><path
         id="path142"
         style="fill:#000000;fill-opacity:1;fill-rule:nonzero;stroke:none"
         d="m 238.699,-0.003 0,7.125 -0.719,0 0,-0.671 c -0.359,0.531 -0.937,0.812 -1.593,0.812 -1.328,0 -2.188,-1.047 -2.188,-2.719 0,-1.625 0.828,-2.593 2.141,-2.593 0.703,0 1.187,0.25 1.562,0.796 l 0,-2.75 0.797,0 z m -0.797,4.579 c 0,-1.157 -0.562,-1.875 -1.406,-1.875 -0.875,0 -1.469,0.734 -1.469,1.906 0,1.156 0.594,1.906 1.469,1.906 0.859,0 1.406,-0.766 1.406,-1.937 z" /><path
         id="path144"
         style="fill:#000000;fill-opacity:1;fill-rule:nonzero;stroke:none"
         d="m 243.988,2.091 0,5.031 -0.797,0 0,-2.781 c 0,-1.015 -0.531,-1.687 -1.375,-1.687 -0.625,0 -1.031,0.375 -1.031,0.984 l 0,3.484 -0.797,0 0,-3.796 c 0,-0.844 0.625,-1.375 1.594,-1.375 0.75,0 1.219,0.25 1.688,0.921 l 0,-0.781 0.718,0 z" /><path
         id="path146"
         style="fill:#000000;fill-opacity:1;fill-rule:nonzero;stroke:none"
         d="m 249.621,4.372 c 0,0.735 -0.062,1.188 -0.203,1.563 -0.328,0.828 -1.094,1.328 -2.031,1.328 -1.407,0 -2.297,-1.031 -2.297,-2.687 0,-1.657 0.859,-2.625 2.281,-2.625 1.141,0 1.938,0.656 2.141,1.671 l -0.797,0 c -0.219,-0.671 -0.672,-0.937 -1.313,-0.937 -0.843,0 -1.468,0.531 -1.484,1.687 l 3.703,0 z m -0.859,0.719 c 0,0 0,-0.047 0,-0.062 l -2.828,0 c 0.078,0.89 0.64,1.5 1.437,1.5 0.797,0 1.391,-0.657 1.391,-1.438 z" /><path
         id="path148"
         style="fill:#000000;fill-opacity:1;fill-rule:nonzero;stroke:none"
         d="m 254.711,2.091 0,3.797 c 0,0.844 -0.625,1.375 -1.594,1.375 -0.75,0 -1.219,-0.281 -1.672,-0.984 l 0,0.843 -0.734,0 0,-5.031 0.797,0 0,2.766 c 0,1.031 0.562,1.703 1.375,1.703 0.625,0 1.031,-0.375 1.031,-0.984 l 0,-3.485 0.797,0 z" /><path
         id="path150"
         style="fill:#000000;fill-opacity:1;fill-rule:nonzero;stroke:none"
         d="m 259.953,3.826 -0.812,0 c -0.125,-0.813 -0.547,-1.141 -1.219,-1.141 -0.891,0 -1.422,0.687 -1.422,1.875 0,1.25 0.531,1.969 1.391,1.969 0.671,0 1.093,-0.407 1.203,-1.094 l 0.797,0 c -0.094,1.219 -0.86,1.828 -1.985,1.828 -1.344,0 -2.234,-1.031 -2.234,-2.703 0,-1.625 0.859,-2.609 2.219,-2.609 1.203,0 1.968,0.718 2.062,1.875 z" /><path
         id="path152"
         style="fill:#000000;fill-opacity:1;fill-rule:nonzero;stroke:none"
         d="m 265.098,4.372 c 0,0.735 -0.063,1.188 -0.203,1.563 -0.329,0.828 -1.094,1.328 -2.032,1.328 -1.406,0 -2.297,-1.031 -2.297,-2.687 0,-1.657 0.86,-2.625 2.282,-2.625 1.14,0 1.937,0.656 2.14,1.671 l -0.797,0 c -0.218,-0.671 -0.671,-0.937 -1.312,-0.937 -0.844,0 -1.469,0.531 -1.484,1.687 l 3.703,0 z m -0.86,0.719 c 0,0 0,-0.047 0,-0.062 l -2.828,0 c 0.078,0.89 0.641,1.5 1.438,1.5 0.797,0 1.39,-0.657 1.39,-1.438 z" /><path
         id="path154"
         style="fill:#000000;fill-opacity:1;fill-rule:nonzero;stroke:none"
         d="m 270.98,0.06 c -0.843,1.375 -1.312,2.984 -1.312,4.516 0,1.531 0.469,3.14 1.312,4.515 l -0.531,0 c -0.953,-1.265 -1.562,-3.015 -1.562,-4.515 0,-1.516 0.609,-3.266 1.562,-4.516 l 0.531,0 z" /><path
         id="path156"
         style="fill:#000000;fill-opacity:1;fill-rule:nonzero;stroke:none"
         d="m 277.578,2.091 0,7 -0.89,0 0,-3.031 -3.594,0 0,3.031 -0.891,0 0,-7 0.891,0 0,3.188 3.594,0 0,-3.188 0.89,0 z" /><path
         id="path158"
         style="fill:#000000;fill-opacity:1;fill-rule:nonzero;stroke:none"
         d="m 282.73,2.091 0,0.703 -3.125,0 2.985,3.61 0,0.718 -3.75,0 0,-0.703 2.797,0 -3,-3.609 0,-0.719 4.093,0 z" /><path
         id="path160"
         style="fill:#000000;fill-opacity:1;fill-rule:nonzero;stroke:none"
         d="m 285.594,4.56 c 0,1.516 -0.594,3.266 -1.563,4.531 l -0.531,0 c 0.844,-1.375 1.312,-2.984 1.312,-4.531 0,-1.516 -0.468,-3.141 -1.312,-4.5 l 0.531,0 c 0.969,1.25 1.563,3 1.563,4.5 z" /><path
         id="path162"
         style="fill:#ff0000;fill-opacity:1;fill-rule:nonzero;stroke:none"
         d="m 37.77,127.779 -0.797,0 0,-5.485 0.797,0 0,2.297 6.203,0 0,0.891 -6.203,0 0,2.297 z" /><path
         id="path164"
         style="fill:#ff0000;fill-opacity:1;fill-rule:nonzero;stroke:none"
         d="m 39.035,133.88 c -1.312,0 -2.062,-0.781 -2.062,-2.156 l 0,-2.891 7,0 0,0.891 -2.969,0 0,2.203 c 0,1.141 -0.813,1.953 -1.969,1.953 z m -0.047,-0.937 c 0.766,0 1.235,-0.5 1.235,-1.36 l 0,-1.859 -2.453,0 0,1.859 c 0,0.86 0.453,1.36 1.218,1.36 z" /><path
         id="path166"
         style="fill:#ff0000;fill-opacity:1;fill-rule:nonzero;stroke:none"
         d="m 39.16,139.267 c -1.14,0 -1.984,-0.891 -1.984,-2.187 0,-1.391 0.703,-2.188 2.359,-2.235 l 0,0.844 c -1.14,0.062 -1.625,0.531 -1.625,1.375 0,0.766 0.547,1.328 1.281,1.328 0.532,0 0.985,-0.312 1.344,-0.906 l 0.5,-0.891 c 0.797,-1.422 1.438,-1.828 2.938,-1.906 l 0,4.531 -0.828,0 0,-3.578 c -0.563,0.078 -0.922,0.391 -1.407,1.219 l -0.515,0.969 c -0.516,0.937 -1.219,1.437 -2.063,1.437 z" /><path
         id="path168"
         style="fill:#ff0000;fill-opacity:1;fill-rule:nonzero;stroke:none"
         d="m 45.191,145.247 0.484,0 0,-5.766 -0.484,0 0,5.766 z" /><path
         id="path170"
         style="fill:#ff0000;fill-opacity:1;fill-rule:nonzero;stroke:none"
         d="m 43.973,150.173 -0.782,0 0,-3.453 -6.218,0 0,-0.89 7,0 0,4.343 z" /><path
         id="path172"
         style="fill:#ff0000;fill-opacity:1;fill-rule:nonzero;stroke:none"
         d="m 41.426,156.529 0,-0.922 c 1.312,-0.219 1.937,-0.766 1.937,-1.953 0,-1.391 -1.062,-2.266 -2.812,-2.266 -1.797,0 -2.953,0.844 -2.953,2.188 0,1.093 0.484,1.671 1.547,1.89 l 0,0.906 c -1.532,-0.265 -2.344,-1.156 -2.344,-2.687 0,-2.125 1.719,-3.203 3.75,-3.203 2.047,0 3.594,1.109 3.594,3.156 0,1.719 -0.907,2.672 -2.719,2.891 z" /><path
         id="path174"
         style="fill:#ff0000;fill-opacity:1;fill-rule:nonzero;stroke:none"
         d="m 43.973,158.787 -1,0 0,-1 1,0 0,1 z m -4.032,0 -1,0 0,-1 1,0 0,1 z" /><path
         id="path176"
         style="fill:#ff0000;fill-opacity:1;fill-rule:nonzero;stroke:none"
         d="m 43.973,164.38 -7,0 0,-0.797 2.609,0 c -0.516,-0.343 -0.781,-0.875 -0.781,-1.546 0,-1.297 1.015,-2.157 2.609,-2.157 1.703,0 2.703,0.828 2.703,2.188 0,0.687 -0.25,1.172 -0.875,1.594 l 0.735,0 0,0.718 z m -2.5,-0.797 c 1.172,0 1.89,-0.562 1.89,-1.406 0,-0.875 -0.734,-1.469 -1.906,-1.469 -1.172,0 -1.906,0.594 -1.906,1.469 0,0.86 0.765,1.406 1.922,1.406 z" /><path
         id="path178"
         style="fill:#ff0000;fill-opacity:1;fill-rule:nonzero;stroke:none"
         d="m 41.973,170.951 c -0.844,0 -1.344,-0.391 -1.688,-1.282 -0.297,0.625 -0.828,0.969 -1.531,0.969 -1.016,0 -1.781,-0.75 -1.781,-2.078 l 0,-2.828 7,0 0,3.156 c 0,1.25 -0.844,2.063 -2,2.063 z m -3.094,-1.204 c 0.703,0 1.109,-0.421 1.109,-1.406 l 0,-1.719 -2.218,0 0,1.719 c 0,0.985 0.406,1.406 1.109,1.406 z m 3.109,0.297 c 0.672,0 1.203,-0.406 1.203,-1.25 l 0,-2.172 -2.406,0 0,2.172 c 0,0.844 0.516,1.25 1.203,1.25 z" /><path
         id="path180"
         style="fill:#ff0000;fill-opacity:1;fill-rule:nonzero;stroke:none"
         d="m 42.051,177.322 c -0.86,0 -1.5,-0.532 -1.75,-1.485 l -0.469,-1.75 c -0.219,-0.843 -0.5,-1.156 -1.047,-1.156 -0.703,0 -1.234,0.625 -1.234,1.563 0,1.109 0.515,1.75 1.422,1.75 l 0,0.843 c -1.375,0 -2.172,-0.953 -2.172,-2.562 0,-1.531 0.844,-2.485 2.109,-2.485 0.86,0 1.391,0.454 1.641,1.375 l 0.453,1.735 c 0.234,0.875 0.594,1.281 1.141,1.281 0.765,0 1.218,-0.578 1.218,-1.781 0,-1.328 -0.672,-1.969 -1.672,-1.969 l 0,-0.859 c 1.657,0 2.454,1.125 2.454,2.765 0,1.782 -0.844,2.735 -2.094,2.735 z" /><path
         id="path182"
         style="fill:#ff0000;fill-opacity:1;fill-rule:nonzero;stroke:none"
         d="m 39.16,182.708 c -1.14,0 -1.984,-0.89 -1.984,-2.187 0,-1.391 0.703,-2.188 2.359,-2.234 l 0,0.843 c -1.14,0.063 -1.625,0.532 -1.625,1.375 0,0.766 0.547,1.328 1.281,1.328 0.532,0 0.985,-0.312 1.344,-0.906 l 0.5,-0.89 c 0.797,-1.422 1.438,-1.829 2.938,-1.907 l 0,4.532 -0.828,0 0,-3.579 c -0.563,0.079 -0.922,0.391 -1.407,1.219 l -0.515,0.969 c -0.516,0.937 -1.219,1.437 -2.063,1.437 z" /><path
         id="path184"
         style="fill:#ff0000;fill-opacity:1;fill-rule:nonzero;stroke:none"
         d="m 43.973,186.466 -6.797,0 0,-0.562 c 1.047,-0.297 1.187,-0.485 1.344,-1.782 l 0.609,0 0,1.5 4.844,0 0,0.844 z" /><path
         id="path186"
         style="fill:#ff00ff;fill-opacity:1;fill-rule:nonzero;stroke:none"
         d="m 25.57,151.642 -7,0 0,-0.797 2.61,0 c -0.516,-0.344 -0.782,-0.875 -0.782,-1.547 0,-1.297 1.016,-2.156 2.61,-2.156 1.703,0 2.703,0.828 2.703,2.188 0,0.687 -0.25,1.171 -0.875,1.593 l 0.734,0 0,0.719 z m -2.5,-0.797 c 1.172,0 1.891,-0.562 1.891,-1.406 0,-0.875 -0.734,-1.469 -1.906,-1.469 -1.172,0 -1.907,0.594 -1.907,1.469 0,0.859 0.766,1.406 1.922,1.406 z" /><path
         id="path188"
         style="fill:#ff00ff;fill-opacity:1;fill-rule:nonzero;stroke:none"
         d="m 23.57,158.216 c -0.843,0 -1.343,-0.39 -1.687,-1.281 -0.297,0.625 -0.828,0.969 -1.531,0.969 -1.016,0 -1.782,-0.75 -1.782,-2.078 l 0,-2.829 7,0 0,3.157 c 0,1.25 -0.843,2.062 -2,2.062 z m -3.093,-1.203 c 0.703,0 1.109,-0.422 1.109,-1.406 l 0,-1.719 -2.219,0 0,1.719 c 0,0.984 0.406,1.406 1.11,1.406 z m 3.109,0.297 c 0.672,0 1.203,-0.406 1.203,-1.25 l 0,-2.172 -2.406,0 0,2.172 c 0,0.844 0.515,1.25 1.203,1.25 z" /><path
         id="path190"
         style="fill:#ff00ff;fill-opacity:1;fill-rule:nonzero;stroke:none"
         d="m 23.648,164.587 c -0.859,0 -1.5,-0.531 -1.75,-1.484 l -0.468,-1.75 c -0.219,-0.844 -0.5,-1.156 -1.047,-1.156 -0.703,0 -1.235,0.625 -1.235,1.562 0,1.11 0.516,1.75 1.422,1.75 l 0,0.844 c -1.375,0 -2.172,-0.953 -2.172,-2.563 0,-1.531 0.844,-2.484 2.11,-2.484 0.859,0 1.39,0.453 1.64,1.375 l 0.454,1.734 c 0.234,0.875 0.593,1.282 1.14,1.282 0.766,0 1.219,-0.578 1.219,-1.782 0,-1.328 -0.672,-1.968 -1.672,-1.968 l 0,-0.86 c 1.656,0 2.453,1.125 2.453,2.766 0,1.781 -0.844,2.734 -2.094,2.734 z" /><path
         id="path192"
         style="fill:#ff00ff;fill-opacity:1;fill-rule:nonzero;stroke:none"
         d="m 20.758,169.97 c -1.141,0 -1.985,-0.89 -1.985,-2.187 0,-1.391 0.704,-2.188 2.36,-2.235 l 0,0.844 c -1.141,0.063 -1.625,0.531 -1.625,1.375 0,0.766 0.547,1.328 1.281,1.328 0.531,0 0.984,-0.312 1.344,-0.906 l 0.5,-0.891 c 0.797,-1.422 1.437,-1.828 2.937,-1.906 l 0,4.531 -0.828,0 0,-3.578 c -0.562,0.078 -0.922,0.391 -1.406,1.219 l -0.516,0.969 c -0.515,0.937 -1.218,1.437 -2.062,1.437 z" /><path
         id="path194"
         style="fill:#ff00ff;fill-opacity:1;fill-rule:nonzero;stroke:none"
         d="m 25.57,173.732 -6.797,0 0,-0.563 c 1.047,-0.297 1.188,-0.484 1.344,-1.781 l 0.61,0 0,1.5 4.843,0 0,0.844 z" /><path
         id="path196"
         style="fill:#00ff00;fill-opacity:1;fill-rule:nonzero;stroke:none"
         d="m 0.969,83.779 -0.797,0 0,-5.485 0.797,0 0,2.297 6.203,0 0,0.891 -6.203,0 0,2.297 z" /><path
         id="path198"
         style="fill:#00ff00;fill-opacity:1;fill-rule:nonzero;stroke:none"
         d="m 2.234,89.88 c -1.312,0 -2.062,-0.781 -2.062,-2.156 l 0,-2.891 7,0 0,0.891 -2.969,0 0,2.203 c 0,1.141 -0.812,1.953 -1.969,1.953 z M 2.188,88.943 c 0.765,0 1.234,-0.5 1.234,-1.36 l 0,-1.859 -2.453,0 0,1.859 c 0,0.86 0.453,1.36 1.219,1.36 z" /><path
         id="path200"
         style="fill:#00ff00;fill-opacity:1;fill-rule:nonzero;stroke:none"
         d="m 2.359,95.267 c -1.14,0 -1.984,-0.891 -1.984,-2.187 0,-1.391 0.703,-2.188 2.359,-2.235 l 0,0.844 c -1.14,0.062 -1.625,0.531 -1.625,1.375 0,0.766 0.547,1.328 1.282,1.328 0.531,0 0.984,-0.312 1.343,-0.906 l 0.5,-0.891 c 0.797,-1.422 1.438,-1.828 2.938,-1.906 l 0,4.531 -0.828,0 0,-3.578 C 5.781,91.72 5.422,92.033 4.938,92.861 L 4.422,93.83 c -0.516,0.937 -1.219,1.437 -2.063,1.437 z" /><path
         id="path202"
         style="fill:#00ff00;fill-opacity:1;fill-rule:nonzero;stroke:none"
         d="m 8.391,101.247 0.484,0 0,-5.766 -0.484,0 0,5.766 z" /><path
         id="path204"
         style="fill:#00ff00;fill-opacity:1;fill-rule:nonzero;stroke:none"
         d="m 5.25,107.017 c -0.859,0 -1.5,-0.531 -1.75,-1.484 l -0.469,-1.75 c -0.219,-0.844 -0.5,-1.157 -1.047,-1.157 -0.703,0 -1.234,0.625 -1.234,1.563 0,1.109 0.516,1.75 1.422,1.75 l 0,0.844 C 0.797,106.783 0,105.83 0,104.22 c 0,-1.531 0.844,-2.484 2.109,-2.484 0.86,0 1.391,0.453 1.641,1.375 l 0.453,1.734 c 0.235,0.875 0.594,1.281 1.141,1.281 0.765,0 1.218,-0.578 1.218,-1.781 0,-1.328 -0.671,-1.969 -1.671,-1.969 l 0,-0.859 c 1.656,0 2.453,1.125 2.453,2.766 0,1.781 -0.844,2.734 -2.094,2.734 z" /><path
         id="path206"
         style="fill:#00ff00;fill-opacity:1;fill-rule:nonzero;stroke:none"
         d="m 7.172,109.857 -0.672,0 c 0.031,-0.11 0.031,-0.235 0.031,-0.391 0,-0.344 -0.093,-0.437 -0.437,-0.437 l -3.297,0 0,0.828 -0.656,0 0,-0.828 -1.375,0 0,-0.797 1.375,0 0,-0.672 0.656,0 0,0.672 3.641,0 c 0.515,0 0.796,0.344 0.796,0.969 0,0.187 -0.015,0.39 -0.062,0.656 z" /><path
         id="path208"
         style="fill:#00ff00;fill-opacity:1;fill-rule:nonzero;stroke:none"
         d="m 7.172,114.716 -5.031,0 0,-0.797 2.781,0 c 1.016,0 1.687,-0.531 1.687,-1.375 0,-0.625 -0.375,-1.031 -0.984,-1.031 l -3.484,0 0,-0.797 3.797,0 c 0.843,0 1.374,0.625 1.374,1.594 0,0.75 -0.25,1.219 -0.921,1.687 l 0.781,0 0,0.719 z" /><path
         id="path210"
         style="fill:#00ff00;fill-opacity:1;fill-rule:nonzero;stroke:none"
         d="M 4.594,120.443 C 2.969,120.443 2,119.615 2,118.302 c 0,-0.703 0.266,-1.187 0.828,-1.562 l -2.656,0 0,-0.797 7,0 0,0.719 -0.719,0 c 0.578,0.39 0.859,0.89 0.859,1.593 0,1.328 -1.078,2.188 -2.718,2.188 z m 0.062,-0.828 c 1.141,0 1.906,-0.594 1.906,-1.469 0,-0.844 -0.765,-1.406 -1.906,-1.406 -1.172,0 -1.953,0.562 -1.906,1.406 0,0.891 0.781,1.469 1.906,1.469 z" /><path
         id="path212"
         style="fill:#00ff00;fill-opacity:1;fill-rule:nonzero;stroke:none"
         d="m 8.391,126.31 0.484,0 0,-5.766 -0.484,0 0,5.766 z" /><path
         id="path214"
         style="fill:#00ff00;fill-opacity:1;fill-rule:nonzero;stroke:none"
         d="m 3.781,133.228 c -2.25,0 -3.781,-1.344 -3.781,-3.391 0,-2 1.547,-3.375 3.734,-3.375 2.188,0 3.61,1.375 3.61,3.375 0,2.063 -1.5,3.391 -3.563,3.391 z m -0.015,-0.906 c 1.687,0 2.796,-1 2.796,-2.485 0,-1.484 -1.109,-2.484 -2.828,-2.484 -1.734,0 -2.937,1 -2.937,2.484 0,1.516 1.203,2.485 2.969,2.485 z" /><path
         id="path216"
         style="fill:#00ff00;fill-opacity:1;fill-rule:nonzero;stroke:none"
         d="M 4.703,138.587 C 3.016,138.587 2,137.759 2,136.431 c 0,-0.687 0.312,-1.234 0.906,-1.609 l -0.765,0 0,-0.719 7.125,0 0,0.797 -2.704,0 c 0.516,0.422 0.75,0.89 0.75,1.547 0,1.281 -1,2.14 -2.609,2.14 z m -0.015,-0.828 c 1.14,0 1.874,-0.594 1.874,-1.469 0,-0.843 -0.687,-1.39 -1.859,-1.39 -1.187,0 -1.953,0.547 -1.953,1.39 0,0.891 0.734,1.469 1.938,1.469 z" /><path
         id="path218"
         style="fill:#00ff00;fill-opacity:1;fill-rule:nonzero;stroke:none"
         d="m 7.172,141.306 -0.672,0 c 0.031,-0.109 0.031,-0.234 0.031,-0.391 0,-0.343 -0.093,-0.437 -0.437,-0.437 l -3.297,0 0,0.828 -0.656,0 0,-0.828 -1.375,0 0,-0.797 1.375,0 0,-0.672 0.656,0 0,0.672 3.641,0 c 0.515,0 0.796,0.344 0.796,0.969 0,0.187 -0.015,0.39 -0.062,0.656 z" /><path
         id="path220"
         style="fill:#00ff00;fill-opacity:1;fill-rule:nonzero;stroke:none"
         d="m 7.172,143.009 -5.031,0 0,-0.797 5.031,0 0,0.797 z m -5.781,0.11 -1,0 0,-1 1,0 0,1 z" /><path
         id="path222"
         style="fill:#00ff00;fill-opacity:1;fill-rule:nonzero;stroke:none"
         d="m 7.172,150.966 -3.766,0 C 2.5,150.966 2,150.466 2,149.529 2,148.857 2.203,148.451 2.766,147.982 2.234,147.685 2,147.279 2,146.622 c 0,-0.671 0.25,-1.109 0.859,-1.546 l -0.718,0 0,-0.719 5.031,0 0,0.797 -3.156,0 c -0.735,0 -1.313,0.515 -1.313,1.172 0,0.593 0.359,0.937 1,0.937 l 3.469,0 0,0.797 -3.156,0 c -0.735,0 -1.313,0.531 -1.313,1.187 0,0.579 0.375,0.922 1,0.922 l 3.469,0 0,0.797 z" /><path
         id="path224"
         style="fill:#00ff00;fill-opacity:1;fill-rule:nonzero;stroke:none"
         d="m 7.172,153.134 -5.031,0 0,-0.797 5.031,0 0,0.797 z m -5.781,0.11 -1,0 0,-1 1,0 0,1 z" /><path
         id="path226"
         style="fill:#00ff00;fill-opacity:1;fill-rule:nonzero;stroke:none"
         d="m 5.766,158.205 c -0.75,0 -1.125,-0.422 -1.36,-1.422 L 4.219,156.017 C 4.062,155.361 3.859,155.08 3.5,155.08 c -0.469,0 -0.766,0.421 -0.766,1.062 0,0.656 0.282,1 0.813,1.016 l 0,0.843 C 2.562,157.986 2,157.345 2,156.173 c 0,-1.172 0.609,-1.922 1.531,-1.922 0.797,0 1.172,0.407 1.453,1.594 l 0.188,0.75 c 0.125,0.547 0.297,0.766 0.656,0.766 0.469,0 0.75,-0.469 0.75,-1.172 0,-0.719 -0.172,-1.109 -0.937,-1.219 l 0,-0.844 c 1.156,0.032 1.671,0.688 1.671,2 0,1.266 -0.578,2.079 -1.546,2.079 z" /><path
         id="path228"
         style="fill:#00ff00;fill-opacity:1;fill-rule:nonzero;stroke:none"
         d="m 7.156,163.724 -0.609,0 c 0.015,-0.078 0.015,-0.109 0.015,-0.172 0,-0.265 -0.14,-0.422 -0.39,-0.422 l -2.797,0 C 2.484,163.13 2,162.474 2,161.24 c 0,-1.219 0.469,-1.969 1.625,-2.016 l 0,0.797 c -0.609,0.078 -0.891,0.437 -0.891,1.187 0,0.719 0.282,1.125 0.75,1.125 l 0.219,0 c 0.328,0 0.469,-0.203 0.547,-0.843 0.156,-1.125 0.188,-1.297 0.312,-1.61 0.235,-0.578 0.688,-0.875 1.297,-0.875 0.922,0 1.453,0.625 1.453,1.641 0,0.656 -0.265,1.266 -0.734,1.719 0.375,0.078 0.656,0.422 0.656,0.812 0,0.172 -0.015,0.297 -0.078,0.547 z m -1.718,-1.391 c 0.718,0 1.171,-0.734 1.171,-1.515 0,-0.61 -0.218,-0.985 -0.765,-0.985 -0.532,0 -0.75,0.36 -0.875,1.219 -0.125,0.844 -0.157,1.016 -0.281,1.281 l 0.75,0 z" /><path
         id="path230"
         style="fill:#00ff00;fill-opacity:1;fill-rule:nonzero;stroke:none"
         d="m 7.172,166.372 -0.672,0 c 0.031,-0.109 0.031,-0.234 0.031,-0.39 0,-0.344 -0.093,-0.438 -0.437,-0.438 l -3.297,0 0,0.828 -0.656,0 0,-0.828 -1.375,0 0,-0.797 1.375,0 0,-0.671 0.656,0 0,0.671 3.641,0 c 0.515,0 0.796,0.344 0.796,0.969 0,0.188 -0.015,0.391 -0.062,0.656 z" /><path
         id="path232"
         style="fill:#00ff00;fill-opacity:1;fill-rule:nonzero;stroke:none"
         d="m 7.172,168.072 -5.031,0 0,-0.797 5.031,0 0,0.797 z m -5.781,0.109 -1,0 0,-1 1,0 0,1 z" /><path
         id="path234"
         style="fill:#00ff00;fill-opacity:1;fill-rule:nonzero;stroke:none"
         d="m 4.703,173.626 c -1.75,0 -2.703,-0.828 -2.703,-2.281 0,-1.406 0.969,-2.265 2.656,-2.265 1.688,0 2.656,0.843 2.656,2.281 0,1.406 -0.968,2.265 -2.609,2.265 z m -0.015,-0.828 c 1.171,0 1.89,-0.562 1.89,-1.437 0,-0.891 -0.703,-1.438 -1.922,-1.438 -1.203,0 -1.922,0.547 -1.922,1.438 0,0.89 0.704,1.437 1.954,1.437 z" /><path
         id="path236"
         style="fill:#00ff00;fill-opacity:1;fill-rule:nonzero;stroke:none"
         d="m 7.172,178.775 -3.797,0 C 2.531,178.775 2,178.15 2,177.181 c 0,-0.75 0.281,-1.219 0.984,-1.672 l -0.843,0 0,-0.734 5.031,0 0,0.797 -2.766,0 c -1.031,0 -1.703,0.562 -1.703,1.375 0,0.625 0.375,1.031 0.985,1.031 l 3.484,0 0,0.797 z" /><path
         id="path238"
         style="fill:#00ff00;fill-opacity:1;fill-rule:nonzero;stroke:none"
         d="m 7.172,181.267 -1,0 0,-1 1,0 0,1 z m -4.031,0 -1,0 0,-1 1,0 0,1 z" /><path
         id="path240"
         style="fill:#00ff00;fill-opacity:1;fill-rule:nonzero;stroke:none"
         d="m 7.172,186.857 -7,0 0,-0.797 2.609,0 C 2.266,185.716 2,185.185 2,184.513 c 0,-1.297 1.016,-2.156 2.609,-2.156 1.703,0 2.703,0.828 2.703,2.187 0,0.688 -0.25,1.172 -0.874,1.594 l 0.734,0 0,0.719 z m -2.5,-0.797 c 1.172,0 1.89,-0.563 1.89,-1.406 0,-0.875 -0.734,-1.469 -1.906,-1.469 -1.172,0 -1.906,0.594 -1.906,1.469 0,0.859 0.766,1.406 1.922,1.406 z" /><path
         id="path242"
         style="fill:#00ff00;fill-opacity:1;fill-rule:nonzero;stroke:none"
         d="m 5.172,193.431 c -0.844,0 -1.344,-0.391 -1.688,-1.281 -0.296,0.625 -0.828,0.969 -1.531,0.969 -1.015,0 -1.781,-0.75 -1.781,-2.079 l 0,-2.828 7,0 0,3.157 c 0,1.25 -0.844,2.062 -2,2.062 z m -3.094,-1.203 c 0.703,0 1.11,-0.422 1.11,-1.406 l 0,-1.719 -2.219,0 0,1.719 c 0,0.984 0.406,1.406 1.109,1.406 z m 3.11,0.297 c 0.671,0 1.203,-0.406 1.203,-1.25 l 0,-2.172 -2.407,0 0,2.172 c 0,0.844 0.516,1.25 1.204,1.25 z" /><path
         id="path244"
         style="fill:#00ff00;fill-opacity:1;fill-rule:nonzero;stroke:none"
         d="m 5.25,199.802 c -0.859,0 -1.5,-0.531 -1.75,-1.484 l -0.469,-1.75 c -0.219,-0.844 -0.5,-1.156 -1.047,-1.156 -0.703,0 -1.234,0.625 -1.234,1.562 0,1.109 0.516,1.75 1.422,1.75 l 0,0.844 C 0.797,199.568 0,198.615 0,197.005 c 0,-1.531 0.844,-2.484 2.109,-2.484 0.86,0 1.391,0.453 1.641,1.375 l 0.453,1.734 c 0.235,0.875 0.594,1.282 1.141,1.282 0.765,0 1.218,-0.579 1.218,-1.782 0,-1.328 -0.671,-1.968 -1.671,-1.968 l 0,-0.86 c 1.656,0 2.453,1.125 2.453,2.766 0,1.781 -0.844,2.734 -2.094,2.734 z" /><path
         id="path246"
         style="fill:#00ff00;fill-opacity:1;fill-rule:nonzero;stroke:none"
         d="m 2.359,205.189 c -1.14,0 -1.984,-0.891 -1.984,-2.188 0,-1.39 0.703,-2.187 2.359,-2.234 l 0,0.844 c -1.14,0.062 -1.625,0.531 -1.625,1.375 0,0.765 0.547,1.328 1.282,1.328 0.531,0 0.984,-0.313 1.343,-0.906 l 0.5,-0.891 c 0.797,-1.422 1.438,-1.828 2.938,-1.906 l 0,4.531 -0.828,0 0,-3.578 c -0.563,0.078 -0.922,0.391 -1.406,1.219 l -0.516,0.968 c -0.516,0.938 -1.219,1.438 -2.063,1.438 z" /><path
         id="path248"
         style="fill:#00ff00;fill-opacity:1;fill-rule:nonzero;stroke:none"
         d="m 7.172,208.947 -6.797,0 0,-0.563 c 1.047,-0.297 1.187,-0.484 1.344,-1.781 l 0.609,0 0,1.5 4.844,0 0,0.844 z" /></g></g></svg>