<?xml version="1.0" encoding="UTF-8" standalone="no"?>
<svg
   xmlns:dc="http://purl.org/dc/elements/1.1/"
   xmlns:cc="http://creativecommons.org/ns#"
   xmlns:rdf="http://www.w3.org/1999/02/22-rdf-syntax-ns#"
   xmlns:svg="http://www.w3.org/2000/svg"
   xmlns="http://www.w3.org/2000/svg"
   viewBox="0 0 575.41602 372.116"
   height="372.116"
   width="575.41602"
   xml:space="preserve"
   version="1.1"
   id="svg2"><metadata
     id="metadata8"><rdf:RDF><cc:Work
         rdf:about=""><dc:format>image/svg+xml</dc:format><dc:type
           rdf:resource="http://purl.org/dc/dcmitype/StillImage" /></cc:Work></rdf:RDF></metadata><defs
     id="defs6" /><g
     transform="matrix(1.25,0,0,-1.25,0,372.11601)"
     id="g10"><g
       id="g12"><path
         id="path14"
         style="fill:none;stroke:#c0c0c0;stroke-width:0.80000001;stroke-linecap:square;stroke-linejoin:bevel;stroke-miterlimit:4;stroke-dasharray:0.8, 1.6;stroke-dashoffset:0;stroke-opacity:1"
         d="m 73.57,273.294 381.598,0" /><path
         id="path16"
         style="fill:none;stroke:#c0c0c0;stroke-width:0.80000001;stroke-linecap:square;stroke-linejoin:bevel;stroke-miterlimit:4;stroke-dasharray:0.8, 1.6;stroke-dashoffset:0;stroke-opacity:1"
         d="m 73.57,226.095 381.598,0" /><path
         id="path18"
         style="fill:none;stroke:#c0c0c0;stroke-width:0.80000001;stroke-linecap:square;stroke-linejoin:bevel;stroke-miterlimit:4;stroke-dasharray:0.8, 1.6;stroke-dashoffset:0;stroke-opacity:1"
         d="m 73.57,178.095 381.598,0" /><path
         id="path20"
         style="fill:none;stroke:#c0c0c0;stroke-width:0.80000001;stroke-linecap:square;stroke-linejoin:bevel;stroke-miterlimit:4;stroke-dasharray:0.8, 1.6;stroke-dashoffset:0;stroke-opacity:1"
         d="m 73.57,130.095 381.598,0" /><path
         id="path22"
         style="fill:none;stroke:#c0c0c0;stroke-width:0.80000001;stroke-linecap:square;stroke-linejoin:bevel;stroke-miterlimit:4;stroke-dasharray:0.8, 1.6;stroke-dashoffset:0;stroke-opacity:1"
         d="m 73.57,82.896 381.598,0" /><path
         id="path24"
         style="fill:none;stroke:#c0c0c0;stroke-width:0.80000001;stroke-linecap:square;stroke-linejoin:bevel;stroke-miterlimit:4;stroke-dasharray:0.8, 1.6;stroke-dashoffset:0;stroke-opacity:1"
         d="m 359.969,297.294 0,-262.398" /><path
         id="path26"
         style="fill:none;stroke:#c0c0c0;stroke-width:0.80000001;stroke-linecap:square;stroke-linejoin:bevel;stroke-miterlimit:4;stroke-dasharray:0.8, 1.6;stroke-dashoffset:0;stroke-opacity:1"
         d="m 264.77,297.294 0,-262.398" /><path
         id="path28"
         style="fill:none;stroke:#c0c0c0;stroke-width:0.80000001;stroke-linecap:square;stroke-linejoin:bevel;stroke-miterlimit:4;stroke-dasharray:0.8, 1.6;stroke-dashoffset:0;stroke-opacity:1"
         d="m 168.77,297.294 0,-262.398" /><path
         id="path30"
         style="fill:none;stroke:#000000;stroke-width:0.80000001;stroke-linecap:square;stroke-linejoin:bevel;stroke-miterlimit:4;stroke-dasharray:none;stroke-opacity:1"
         d="m 73.57,38.896 0,-8" /><path
         id="path32"
         style="fill:none;stroke:#000000;stroke-width:0.80000001;stroke-linecap:square;stroke-linejoin:bevel;stroke-miterlimit:4;stroke-dasharray:none;stroke-opacity:1"
         d="m 168.77,38.896 0,-8" /><path
         id="path34"
         style="fill:none;stroke:#000000;stroke-width:0.80000001;stroke-linecap:square;stroke-linejoin:bevel;stroke-miterlimit:4;stroke-dasharray:none;stroke-opacity:1"
         d="m 264.77,38.896 0,-8" /><path
         id="path36"
         style="fill:none;stroke:#000000;stroke-width:0.80000001;stroke-linecap:square;stroke-linejoin:bevel;stroke-miterlimit:4;stroke-dasharray:none;stroke-opacity:1"
         d="m 359.969,38.896 0,-8" /><path
         id="path38"
         style="fill:none;stroke:#000000;stroke-width:0.80000001;stroke-linecap:square;stroke-linejoin:bevel;stroke-miterlimit:4;stroke-dasharray:none;stroke-opacity:1"
         d="m 455.168,38.896 0,-8" /><path
         id="path40"
         style="fill:none;stroke:#000000;stroke-width:0.80000001;stroke-linecap:square;stroke-linejoin:bevel;stroke-miterlimit:4;stroke-dasharray:none;stroke-opacity:1"
         d="m 69.57,34.896 8,0" /><path
         id="path42"
         style="fill:none;stroke:#000000;stroke-width:0.80000001;stroke-linecap:square;stroke-linejoin:bevel;stroke-miterlimit:4;stroke-dasharray:none;stroke-opacity:1"
         d="m 69.57,82.896 8,0" /><path
         id="path44"
         style="fill:none;stroke:#000000;stroke-width:0.80000001;stroke-linecap:square;stroke-linejoin:bevel;stroke-miterlimit:4;stroke-dasharray:none;stroke-opacity:1"
         d="m 69.57,130.095 8,0" /><path
         id="path46"
         style="fill:none;stroke:#000000;stroke-width:0.80000001;stroke-linecap:square;stroke-linejoin:bevel;stroke-miterlimit:4;stroke-dasharray:none;stroke-opacity:1"
         d="m 69.57,178.095 8,0" /><path
         id="path48"
         style="fill:none;stroke:#000000;stroke-width:0.80000001;stroke-linecap:square;stroke-linejoin:bevel;stroke-miterlimit:4;stroke-dasharray:none;stroke-opacity:1"
         d="m 69.57,226.095 8,0" /><path
         id="path50"
         style="fill:none;stroke:#000000;stroke-width:0.80000001;stroke-linecap:square;stroke-linejoin:bevel;stroke-miterlimit:4;stroke-dasharray:none;stroke-opacity:1"
         d="m 69.57,273.294 8,0" /><path
         id="path52"
         style="fill:none;stroke:#000000;stroke-width:0.80000001;stroke-linecap:square;stroke-linejoin:bevel;stroke-miterlimit:4;stroke-dasharray:none;stroke-opacity:1"
         d="m 73.57,297.294 381.598,0" /><path
         id="path54"
         style="fill:none;stroke:#000000;stroke-width:0.80000001;stroke-linecap:square;stroke-linejoin:bevel;stroke-miterlimit:4;stroke-dasharray:none;stroke-opacity:1"
         d="m 455.168,297.294 0,-262.398" /><path
         id="path56"
         style="fill:none;stroke:#000000;stroke-width:0.80000001;stroke-linecap:square;stroke-linejoin:bevel;stroke-miterlimit:4;stroke-dasharray:none;stroke-opacity:1"
         d="m 73.57,34.896 381.598,0" /><path
         id="path58"
         style="fill:none;stroke:#000000;stroke-width:0.80000001;stroke-linecap:square;stroke-linejoin:bevel;stroke-miterlimit:4;stroke-dasharray:none;stroke-opacity:1"
         d="m 73.57,297.294 0,-262.398" /><path
         id="path60"
         style="fill:none;stroke:#0000ff;stroke-width:0.80000001;stroke-linecap:square;stroke-linejoin:bevel;stroke-miterlimit:4;stroke-dasharray:none;stroke-opacity:1"
         d="m 73.57,175.345 0.067,-0.16 0.816,-2.086 0.817,-2.215 0.82,-2.367 0.828,-2.539 0.828,-2.734 0.832,-2.957 0.836,-3.223 0.836,-3.52 0.84,-3.886 0.848,-4.336 0.855,-4.883 0.848,-5.59 0.859,-6.523 0.859,-7.813 0.864,-9.723 0.867,-12.835 0.871,-18.868 0.875,-36.011 0.187,-8.18" /><path
         id="path62"
         style="fill:none;stroke:#0000ff;stroke-width:0.80000001;stroke-linecap:square;stroke-linejoin:bevel;stroke-miterlimit:4;stroke-dasharray:none;stroke-opacity:1"
         d="m 90.145,34.896 0.453,32.457 0.886,24.023 0.891,15.184 0.895,11.137 0.898,8.812 0.902,7.293 0.907,6.227 0.906,5.433 0.914,4.817 0.918,4.328 0.922,3.933 0.925,3.602 0.934,3.32 0.93,3.078 0.933,2.872 0.942,2.687 0.949,2.523 0.945,2.379 0.953,2.25 0.957,2.137 0.961,2.024 0.965,1.929 0.973,1.84 0.973,1.758 0.98,1.68 0.977,1.609 0.988,1.543 0.992,1.484 0.992,1.422 1,1.367 1.008,1.313 1.004,1.269 1.008,1.223 1.015,1.172 1.024,1.133 1.023,1.093 1.028,1.055 1.035,1.012 1.039,0.984 1.039,0.946 1.047,0.91 1.054,0.879 1.059,0.847 1.055,0.817 1.07,0.785 1.063,0.762 1.074,0.73 1.078,0.703 1.086,0.676 1.086,0.648 1.094,0.625 1.093,0.594 1.102,0.574 1.113,0.543 1.106,0.52 1.117,0.496 1.117,0.477 1.129,0.449 1.129,0.422 1.133,0.398 1.144,0.375 1.141,0.352 1.152,0.32 1.152,0.305 1.161,0.277 1.164,0.25 1.168,0.223 1.175,0.195 1.18,0.176 1.18,0.144 1.195,0.117 1.192,0.09 1.199,0.059 1.203,0.027 1.211,-0.004 1.215,-0.035 1.218,-0.074 1.227,-0.102 1.23,-0.148 1.235,-0.176 1.242,-0.223 1.25,-0.265 1.25,-0.317 1.254,-0.359 1.262,-0.414 1.273,-0.473 1.27,-0.527 1.277,-0.598 1.289,-0.664 1.289,-0.742 1.293,-0.824 1.297,-0.918 1.308,-1.016 1.313,-1.129 1.316,-1.254 1.321,-1.394 1.328,-1.547 1.336,-1.726 1.34,-1.934 1.343,-2.172 1.352,-2.453 1.359,-2.774 1.36,-3.175 1.371,-3.66 1.375,-4.278 1.379,-5.07 1.386,-6.129 1.391,-7.648 1.398,-9.957 1.407,-13.961 1.41,-22.625 1.414,-59.414 1.422,35.273 1.429,37.801 1.438,20.07 1.437,13.906 1.446,10.719 1.453,8.754 1.457,7.426 1.465,6.437 1.472,5.688 1.477,5.078 1.484,4.582 1.493,4.168 1.496,3.801 1.504,3.48 1.507,3.195 1.516,2.938 1.523,2.707 1.528,2.496 1.535,2.297 1.543,2.121 1.547,1.949 1.554,1.797 1.563,1.652 1.57,1.516 1.574,1.395 1.583,1.277 1.585,1.168 1.602,1.078 1.598,0.984 1.613,0.899 1.613,0.828 1.621,0.754 1.629,0.687 1.637,0.633 1.645,0.574 1.648,0.524 1.664,0.484 1.664,0.442 1.668,0.402 1.68,0.367 1.683,0.336 1.696,0.309 1.699,0.281 1.707,0.254 1.715,0.242 1.722,0.215 1.731,0.203 1.742,0.18 1.738,0.168 1.758,0.156 1.758,0.141 1.766,0.128 1.773,0.122 1.781,0.109 1.789,0.105 1.801,0.094 1.801,0.086 1.812,0.078 1.821,0.074 1.828,0.071 1.836,0.062 1.843,0.055 1.856,0.055 1.855,0.05 1.868,0.047 1.875,0.043 1.882,0.039 1.895,0.039 1.898,0.032 1.907,0.031 1.918,0.031 1.922,0.027 1.937,0.024 1.937,0.027 1.946,0.024 1.957,0.019 1.969,0.02 1.972,0.015 1.981,0.02 1.992,0.016 1.996,0.011 2.008,0.016 2.019,0.012 2.024,0.011 2.035,0.012 2.039,0.012 2.051,0.008 2.058,0.011 2.071,0.008 2.078,0.008 2.086,0.008 2.094,0.004 2.105,0.007 2.109,0.008 2.125,0.004 2.129,0.008 2.141,0 2.148,0.004 2.16,0.008 2.168,0.004 4.36,0.007 2.199,0.004 2.207,0.004 2.211,0.004 2.223,0.004 2.234,0 2.238,0.004 4.516,0 2.269,0.008 2.282,0 2.293,0.004 2.3,0 2.313,0.004 4.648,0 2.34,0.003 4.707,0 2.371,0.004 4.77,0 2.402,0.004 7.262,0" /><path
         id="path64"
         style="fill:none;stroke:#ff00ff;stroke-width:0.80000001;stroke-linecap:square;stroke-linejoin:bevel;stroke-miterlimit:4;stroke-dasharray:none;stroke-opacity:1"
         d="m 73.57,160.872 0.067,-0.164 0.816,-2.078 0.817,-2.195 0.82,-2.297 0.828,-2.433 0.828,-2.61 0.832,-2.801 0.836,-2.98 0.836,-3.254 0.84,-3.371 0.848,-3.633 0.855,-4.082 0.848,-4.41 0.859,-4.723 0.859,-5.125 0.864,-5.457 0.867,-5.39 0.871,-5.137 0.875,-3.84 0.879,-1.184 0.883,1.993 0.886,4.179 0.891,5.516 0.895,5.844 0.898,5.632 0.902,5.274 0.907,4.91 0.906,4.461 0.914,4.02 0.918,3.753 0.922,3.5 0.925,3.188 0.934,2.98 0.93,2.762 0.933,2.602 0.942,2.457 0.949,2.277 0.945,2.109 0.953,2.004 0.957,1.895 0.961,1.726 0.965,1.676 0.973,1.531 0.973,1.422 0.98,1.403 0.977,1.316 0.988,1.254 0.992,1.16 0.992,1.102 1,1.019 1.008,0.992 1.004,0.93 1.008,0.863 1.015,0.789 1.024,0.711 1.023,0.715 1.028,0.653 1.035,0.668 1.039,0.586 1.039,0.5 1.047,0.472 1.054,0.422 1.059,0.383 1.055,0.332 1.07,0.308 1.063,0.247 1.074,0.273 1.078,0.215 1.086,0.191 1.086,0.164 1.094,0.145 1.093,0.074 1.102,0.047 1.113,0.031 1.106,-0.012 1.117,-0.015 1.117,-0.027 1.129,-0.075 1.129,-0.136 1.133,-0.204 1.144,-0.296 1.141,-0.305 1.152,-0.359 1.152,-0.422 1.161,-0.5 1.164,-0.618 1.168,-0.656 1.175,-0.719 1.18,-0.773 1.18,-0.953 1.195,-1.086 1.192,-1.137 1.199,-1.234 1.203,-1.258 1.211,-1.418 1.215,-1.551 1.218,-1.648 1.227,-1.738 1.23,-1.84 1.235,-1.992 1.242,-2.243 1.25,-2.382 1.25,-2.52 1.254,-2.891 1.262,-3.136 1.273,-3.387 1.27,-3.961 1.277,-4.43 1.289,-5.199 1.289,-5.961 1.293,-6.722 1.297,-7.473 1.308,-6.992 1.313,-3.387 1.316,2.82 1.321,7.606 1.328,9.027 1.336,8.953 1.34,8.094 1.343,7.293 1.352,6.496 1.359,5.75 1.36,5.164 1.371,4.703 1.375,4.363 1.379,4.106 1.386,3.727 1.391,3.578 1.398,3.445 1.407,3.277 1.41,3.215 1.414,3.063 1.422,2.949 1.429,2.781 1.438,2.789 1.437,2.86 1.446,2.777 1.453,2.582 1.457,2.418 1.465,2.301 1.472,2.265 1.477,2.157 1.484,2.066 1.493,1.973 1.496,1.82 1.504,1.726 1.507,1.668 1.516,1.625 1.523,1.575 1.528,1.5 1.535,1.449 1.543,1.375 1.547,1.363 1.554,1.328 1.563,1.293 1.57,1.219 1.574,1.184 1.583,1.195 1.585,1.164 1.602,1.004 1.598,0.976 1.613,0.942 1.613,0.91 1.621,0.859 1.629,0.77 1.637,0.707 1.645,0.605 1.648,0.629 1.664,0.614 1.664,0.48 1.668,0.465 1.68,0.457 1.683,0.437 1.696,0.387 1.699,0.406 1.707,0.391 1.715,0.316 1.722,0.332 1.731,0.329 1.742,0.293 1.738,0.234 1.758,0.242 1.758,0.27 1.766,0.211 1.773,0.195 1.781,0.133 1.789,0.144 1.801,0.164 1.801,0.137 1.812,0.113 1.821,0.11 1.828,0.172 1.836,0.07 1.843,0.148 1.856,0.094 1.855,0.102 1.868,0.156 1.875,0.152 1.882,0.11 1.895,0.144 1.898,0.113 1.907,0.098 1.918,0.082 1.922,0.078 1.937,0.031 1.937,0.024 1.946,0.043 1.957,-0.004 1.969,0.043 1.972,0.004 1.981,0 1.992,-0.012 1.996,0.004 2.008,0.031 2.019,0.043 2.024,0.024 2.035,0.031 2.039,0.004 2.051,0.07 2.058,0.008 2.071,0.031 2.078,0.039 2.086,0.008 2.094,-0.012 2.105,-0.093 2.109,-0.051 2.125,-0.094 2.129,-0.062 2.141,-0.079 2.148,-0.074 2.16,-0.047 2.168,-0.007 2.18,-0.028 2.18,-0.051 2.199,0.016 2.207,0.016 2.211,0.019 2.223,0.031 2.234,-0.074 2.238,-0.019 2.258,-0.024 2.258,-0.047 2.269,-0.035 2.282,-0.074 2.293,-0.039 2.3,-0.047 2.313,-0.031 2.316,-0.016 2.332,0.004 2.34,-0.086 2.348,-0.039 2.359,-0.047 2.371,-0.035 2.379,-0.09 2.391,-0.047 2.402,-0.125 2.41,-0.113 2.422,-0.117 2.43,-0.063" /><path
         id="path66"
         style="fill:none;stroke:#00ff00;stroke-width:0.80000001;stroke-linecap:square;stroke-linejoin:bevel;stroke-miterlimit:4;stroke-dasharray:none;stroke-opacity:1"
         d="m 73.57,191.712 0.067,-0.027 0.816,-0.363 0.817,-0.375 0.82,-0.387 0.828,-0.402 0.828,-0.418 0.832,-0.43 0.836,-0.445 0.836,-0.461 0.84,-0.477 0.848,-0.496 0.855,-0.512 0.848,-0.531 0.859,-0.547 0.859,-0.57 0.864,-0.59 0.867,-0.617 0.871,-0.633 0.875,-0.66 0.879,-0.684 0.883,-0.711 0.886,-0.738 0.891,-0.766 0.895,-0.8 0.898,-0.828 0.902,-0.868 0.907,-0.898 0.906,-0.941 0.914,-0.977 0.918,-1.023 0.922,-1.071 0.925,-1.117 0.934,-1.172 0.93,-1.226 0.933,-1.286 0.942,-1.351 0.949,-1.426 0.945,-1.496 0.953,-1.582 0.957,-1.672 0.961,-1.773 0.965,-1.883 0.973,-2 0.973,-2.141 0.98,-2.289 0.977,-2.461 0.988,-2.652 0.992,-2.875 0.992,-3.137 1,-3.433 1.008,-3.793 1.004,-4.227 1.008,-4.754 1.015,-5.418 1.024,-6.269 1.023,-7.395 1.028,-8.918 1.035,-10.996 1.039,-13.453 1.039,-13.289 1.047,-0.742 1.054,13.152 1.059,14.082 1.055,11.656 1.07,9.516 1.063,7.949 1.074,6.781 1.078,5.903 1.086,5.222 1.086,4.676 1.094,4.235 1.093,3.859 1.102,3.559 1.113,3.289 1.106,3.058 1.117,2.856 1.117,2.679 1.129,2.52 1.129,2.371 1.133,2.25 1.144,2.129 1.141,2.019 1.152,1.922 1.152,1.828 1.161,1.743 1.164,1.66 1.168,1.586 1.175,1.515 1.18,1.446 1.18,1.382 1.195,1.321 1.192,1.261 1.199,1.204 1.203,1.148 1.211,1.09 1.215,1.047 1.218,0.992 1.227,0.941 1.23,0.891 1.235,0.844 1.242,0.797 1.25,0.738 1.25,0.703 1.254,0.648 1.262,0.602 1.273,0.547 1.27,0.508 1.277,0.449 1.289,0.398 1.289,0.344 1.293,0.289 1.297,0.231 1.308,0.175 1.313,0.106 1.316,0.051 1.321,-0.024 1.328,-0.097 1.336,-0.172 1.34,-0.262 1.343,-0.34 1.352,-0.441 1.359,-0.543 1.36,-0.657 1.371,-0.785 1.375,-0.922 1.379,-1.074 1.386,-1.254 1.391,-1.445 1.398,-1.672 1.407,-1.93 1.41,-2.234 1.414,-2.598 1.422,-3.027 1.429,-3.562 1.438,-4.227 1.437,-5.082 1.446,-6.207 1.453,-7.723 1.457,-9.777 1.465,-12.172 1.472,-11.91 1.477,0.406 1.484,14.012 1.493,15.031 1.496,12.66 1.504,10.535 1.507,8.938 1.516,7.762 1.523,6.847 1.528,6.129 1.535,5.539 1.543,5.051 1.547,4.633 1.554,4.262 1.563,3.941 1.57,3.645 1.574,3.375 1.583,3.128 1.585,2.899 1.602,2.683 1.598,2.481 1.613,2.293 1.613,2.109 1.621,1.942 1.629,1.781 1.637,1.641 1.645,1.496 1.648,1.363 1.664,1.246 1.664,1.133 1.668,1.031 1.68,0.938 1.683,0.847 1.696,0.766 1.699,0.699 1.707,0.629 1.715,0.57 1.722,0.512 1.731,0.465 1.742,0.418 1.738,0.383 1.758,0.343 1.758,0.309 1.766,0.281 1.773,0.254 1.781,0.231 1.789,0.207 1.801,0.187 1.801,0.172 1.812,0.152 1.821,0.141 1.828,0.125 1.836,0.117 1.843,0.106 1.856,0.093 1.855,0.086 1.868,0.078 1.875,0.067 1.882,0.07 1.895,0.055 1.898,0.055 1.907,0.05 1.918,0.043 1.922,0.039 1.937,0.039 1.937,0.032 1.946,0.031 1.957,0.027 1.969,0.024 1.972,0.023 1.981,0.02 1.992,0.015 1.996,0.016 2.008,0.016 2.019,0.011 2.024,0.012 2.035,0.012 2.039,0.008 2.051,0.007 2.058,0.004 2.071,0.008 2.078,0.004 2.086,0.004 6.308,0 2.125,0.008 4.27,0 2.148,-0.008 6.508,0 2.18,-0.004 2.199,-0.004 2.207,-0.004 2.211,-0.004 2.223,-0.004 2.234,-0.007 2.238,-0.004 2.258,-0.004 2.258,-0.008 2.269,-0.008 2.282,-0.004 2.293,-0.008 2.3,-0.007 2.313,-0.012 2.316,-0.004 2.332,-0.008 2.34,-0.008 2.348,-0.007 2.359,-0.008 2.371,-0.008 2.379,-0.008 2.391,-0.012 2.402,-0.007 2.41,-0.016 2.422,-0.004 2.43,-0.012" /><path
         id="path68"
         style="fill:#000000;fill-opacity:1;fill-rule:nonzero;stroke:none"
         d="m 66.5,20.494 0,6.796 -0.562,0 c -0.297,-1.046 -0.485,-1.187 -1.782,-1.343 l 0,-0.61 1.5,0 0,-4.843 0.844,0 z" /><path
         id="path70"
         style="fill:#000000;fill-opacity:1;fill-rule:nonzero;stroke:none"
         d="m 73.43,22.775 c 0,0.734 -0.063,1.187 -0.203,1.562 -0.329,0.828 -1.094,1.328 -2.032,1.328 -1.406,0 -2.297,-1.031 -2.297,-2.687 0,-1.656 0.86,-2.625 2.282,-2.625 1.14,0 1.937,0.656 2.14,1.672 l -0.797,0 c -0.218,-0.672 -0.671,-0.938 -1.312,-0.938 -0.844,0 -1.469,0.532 -1.484,1.688 l 3.703,0 z m -0.86,0.719 c 0,0 0,-0.047 0,-0.063 l -2.828,0 c 0.078,0.891 0.641,1.5 1.438,1.5 0.797,0 1.39,-0.656 1.39,-1.437 z" /><path
         id="path72"
         style="fill:#000000;fill-opacity:1;fill-rule:nonzero;stroke:none"
         d="m 78.738,24.056 c 0,2.125 -0.75,3.234 -2.297,3.234 -1.296,0 -2.234,-0.921 -2.234,-2.25 0,-1.265 0.875,-2.125 2.094,-2.125 0.64,0 1.109,0.235 1.562,0.766 -0.015,-1.656 -0.547,-2.578 -1.515,-2.578 -0.594,0 -1.016,0.375 -1.141,1.016 l -0.844,0 c 0.157,-1.11 0.891,-1.766 1.922,-1.766 1.594,0 2.453,1.344 2.453,3.703 z m -0.922,1 c 0,-0.828 -0.593,-1.391 -1.421,-1.391 -0.813,0 -1.313,0.532 -1.313,1.438 0,0.875 0.563,1.453 1.344,1.453 0.797,0 1.39,-0.609 1.39,-1.5 z" /><path
         id="path74"
         style="fill:#000000;fill-opacity:1;fill-rule:nonzero;stroke:none"
         d="m 156.098,20.494 0,6.796 -0.563,0 c -0.297,-1.046 -0.484,-1.187 -1.781,-1.343 l 0,-0.61 1.5,0 0,-4.843 0.844,0 z" /><path
         id="path76"
         style="fill:#000000;fill-opacity:1;fill-rule:nonzero;stroke:none"
         d="m 158.934,21.494 1,0 0,-1 -1,0 0,1 z" /><path
         id="path78"
         style="fill:#000000;fill-opacity:1;fill-rule:nonzero;stroke:none"
         d="m 165.695,22.744 c 0,1.343 -0.89,2.234 -2.203,2.234 -0.469,0 -0.859,-0.125 -1.25,-0.422 l 0.266,1.766 2.828,0 0,0.828 -3.5,0 -0.516,-3.563 0.782,0 c 0.39,0.469 0.718,0.641 1.25,0.641 0.906,0 1.484,-0.594 1.484,-1.594 0,-0.984 -0.578,-1.531 -1.484,-1.531 -0.75,0 -1.204,0.375 -1.391,1.141 l -0.859,0 c 0.281,-1.36 1.046,-1.891 2.265,-1.891 1.375,0 2.328,0.953 2.328,2.391 z" /><path
         id="path80"
         style="fill:#000000;fill-opacity:1;fill-rule:nonzero;stroke:none"
         d="m 171.035,22.775 c 0,0.734 -0.062,1.187 -0.203,1.562 -0.328,0.828 -1.094,1.328 -2.031,1.328 -1.406,0 -2.297,-1.031 -2.297,-2.687 0,-1.656 0.859,-2.625 2.281,-2.625 1.141,0 1.938,0.656 2.141,1.672 l -0.797,0 c -0.219,-0.672 -0.672,-0.938 -1.313,-0.938 -0.843,0 -1.468,0.532 -1.484,1.688 l 3.703,0 z m -0.859,0.719 c 0,0 0,-0.047 0,-0.063 l -2.828,0 c 0.078,0.891 0.64,1.5 1.437,1.5 0.797,0 1.391,-0.656 1.391,-1.437 z" /><path
         id="path82"
         style="fill:#000000;fill-opacity:1;fill-rule:nonzero;stroke:none"
         d="m 176.34,24.056 c 0,2.125 -0.75,3.234 -2.297,3.234 -1.297,0 -2.234,-0.921 -2.234,-2.25 0,-1.265 0.875,-2.125 2.093,-2.125 0.641,0 1.11,0.235 1.563,0.766 -0.016,-1.656 -0.547,-2.578 -1.516,-2.578 -0.594,0 -1.015,0.375 -1.14,1.016 l -0.844,0 c 0.156,-1.11 0.89,-1.766 1.922,-1.766 1.593,0 2.453,1.344 2.453,3.703 z m -0.922,1 c 0,-0.828 -0.594,-1.391 -1.422,-1.391 -0.812,0 -1.312,0.532 -1.312,1.438 0,0.875 0.562,1.453 1.343,1.453 0.797,0 1.391,-0.609 1.391,-1.5 z" /><path
         id="path84"
         style="fill:#000000;fill-opacity:1;fill-rule:nonzero;stroke:none"
         d="m 259.277,25.306 c 0,1.141 -0.89,1.984 -2.187,1.984 -1.391,0 -2.188,-0.703 -2.235,-2.359 l 0.844,0 c 0.063,1.141 0.531,1.625 1.375,1.625 0.766,0 1.328,-0.547 1.328,-1.281 0,-0.531 -0.312,-0.985 -0.906,-1.344 l -0.891,-0.5 c -1.421,-0.797 -1.828,-1.437 -1.906,-2.937 l 4.531,0 0,0.828 -3.578,0 c 0.078,0.562 0.391,0.922 1.219,1.406 l 0.969,0.516 c 0.937,0.515 1.437,1.218 1.437,2.062 z" /><path
         id="path86"
         style="fill:#000000;fill-opacity:1;fill-rule:nonzero;stroke:none"
         d="m 264.629,22.775 c 0,0.734 -0.063,1.187 -0.203,1.562 -0.328,0.828 -1.094,1.328 -2.031,1.328 -1.407,0 -2.297,-1.031 -2.297,-2.687 0,-1.656 0.859,-2.625 2.281,-2.625 1.141,0 1.937,0.656 2.141,1.672 l -0.797,0 c -0.219,-0.672 -0.672,-0.938 -1.313,-0.938 -0.844,0 -1.469,0.532 -1.484,1.688 l 3.703,0 z m -0.859,0.719 c 0,0 0,-0.047 0,-0.063 l -2.829,0 c 0.079,0.891 0.641,1.5 1.438,1.5 0.797,0 1.391,-0.656 1.391,-1.437 z" /><path
         id="path88"
         style="fill:#000000;fill-opacity:1;fill-rule:nonzero;stroke:none"
         d="m 269.938,24.056 c 0,2.125 -0.75,3.234 -2.297,3.234 -1.297,0 -2.235,-0.921 -2.235,-2.25 0,-1.265 0.875,-2.125 2.094,-2.125 0.641,0 1.109,0.235 1.562,0.766 -0.015,-1.656 -0.546,-2.578 -1.515,-2.578 -0.594,0 -1.016,0.375 -1.141,1.016 l -0.844,0 c 0.157,-1.11 0.891,-1.766 1.922,-1.766 1.594,0 2.454,1.344 2.454,3.703 z m -0.922,1 c 0,-0.828 -0.594,-1.391 -1.422,-1.391 -0.813,0 -1.313,0.532 -1.313,1.438 0,0.875 0.563,1.453 1.344,1.453 0.797,0 1.391,-0.609 1.391,-1.5 z" /><path
         id="path90"
         style="fill:#000000;fill-opacity:1;fill-rule:nonzero;stroke:none"
         d="m 348.875,25.306 c 0,1.141 -0.891,1.984 -2.187,1.984 -1.391,0 -2.188,-0.703 -2.235,-2.359 l 0.844,0 c 0.062,1.141 0.531,1.625 1.375,1.625 0.766,0 1.328,-0.547 1.328,-1.281 0,-0.531 -0.312,-0.985 -0.906,-1.344 l -0.891,-0.5 c -1.422,-0.797 -1.828,-1.437 -1.906,-2.937 l 4.531,0 0,0.828 -3.578,0 c 0.078,0.562 0.391,0.922 1.219,1.406 l 0.969,0.516 c 0.937,0.515 1.437,1.218 1.437,2.062 z" /><path
         id="path92"
         style="fill:#000000;fill-opacity:1;fill-rule:nonzero;stroke:none"
         d="m 350.133,21.494 1,0 0,-1 -1,0 0,1 z" /><path
         id="path94"
         style="fill:#000000;fill-opacity:1;fill-rule:nonzero;stroke:none"
         d="m 356.895,22.744 c 0,1.343 -0.891,2.234 -2.204,2.234 -0.468,0 -0.859,-0.125 -1.25,-0.422 l 0.266,1.766 2.828,0 0,0.828 -3.5,0 -0.515,-3.563 0.781,0 c 0.39,0.469 0.719,0.641 1.25,0.641 0.906,0 1.484,-0.594 1.484,-1.594 0,-0.984 -0.578,-1.531 -1.484,-1.531 -0.75,0 -1.203,0.375 -1.391,1.141 l -0.859,0 c 0.281,-1.36 1.047,-1.891 2.265,-1.891 1.375,0 2.329,0.953 2.329,2.391 z" /><path
         id="path96"
         style="fill:#000000;fill-opacity:1;fill-rule:nonzero;stroke:none"
         d="m 362.234,22.775 c 0,0.734 -0.062,1.187 -0.203,1.562 -0.328,0.828 -1.093,1.328 -2.031,1.328 -1.406,0 -2.297,-1.031 -2.297,-2.687 0,-1.656 0.859,-2.625 2.281,-2.625 1.141,0 1.938,0.656 2.141,1.672 l -0.797,0 c -0.219,-0.672 -0.672,-0.938 -1.312,-0.938 -0.844,0 -1.469,0.532 -1.485,1.688 l 3.703,0 z m -0.859,0.719 c 0,0 0,-0.047 0,-0.063 l -2.828,0 c 0.078,0.891 0.641,1.5 1.437,1.5 0.797,0 1.391,-0.656 1.391,-1.437 z" /><path
         id="path98"
         style="fill:#000000;fill-opacity:1;fill-rule:nonzero;stroke:none"
         d="m 367.539,24.056 c 0,2.125 -0.75,3.234 -2.297,3.234 -1.297,0 -2.234,-0.921 -2.234,-2.25 0,-1.265 0.875,-2.125 2.094,-2.125 0.64,0 1.109,0.235 1.562,0.766 -0.016,-1.656 -0.547,-2.578 -1.516,-2.578 -0.593,0 -1.015,0.375 -1.14,1.016 l -0.844,0 c 0.156,-1.11 0.891,-1.766 1.922,-1.766 1.594,0 2.453,1.344 2.453,3.703 z m -0.922,1 c 0,-0.828 -0.594,-1.391 -1.422,-1.391 -0.812,0 -1.312,0.532 -1.312,1.438 0,0.875 0.562,1.453 1.344,1.453 0.796,0 1.39,-0.609 1.39,-1.5 z" /><path
         id="path100"
         style="fill:#000000;fill-opacity:1;fill-rule:nonzero;stroke:none"
         d="m 449.629,22.462 c 0,0.828 -0.344,1.313 -1.156,1.594 0.64,0.25 0.953,0.688 0.953,1.375 0,1.172 -0.781,1.859 -2.078,1.859 -1.375,0 -2.094,-0.75 -2.125,-2.187 l 0.843,0 c 0.016,1 0.438,1.453 1.297,1.453 0.75,0 1.203,-0.437 1.203,-1.156 0,-0.735 -0.328,-1.031 -1.671,-1.031 l 0,-0.704 0.453,0 c 0.937,0 1.406,-0.453 1.406,-1.203 0,-0.859 -0.516,-1.359 -1.406,-1.359 -0.922,0 -1.375,0.453 -1.422,1.437 l -0.844,0 c 0.094,-1.515 0.844,-2.187 2.234,-2.187 1.407,0 2.313,0.828 2.313,2.109 z" /><path
         id="path102"
         style="fill:#000000;fill-opacity:1;fill-rule:nonzero;stroke:none"
         d="m 455.031,22.775 c 0,0.734 -0.062,1.187 -0.203,1.562 -0.328,0.828 -1.094,1.328 -2.031,1.328 -1.406,0 -2.297,-1.031 -2.297,-2.687 0,-1.656 0.859,-2.625 2.281,-2.625 1.141,0 1.938,0.656 2.141,1.672 l -0.797,0 c -0.219,-0.672 -0.672,-0.938 -1.313,-0.938 -0.843,0 -1.468,0.532 -1.484,1.688 l 3.703,0 z m -0.859,0.719 c 0,0 0,-0.047 0,-0.063 l -2.828,0 c 0.078,0.891 0.64,1.5 1.437,1.5 0.797,0 1.391,-0.656 1.391,-1.437 z" /><path
         id="path104"
         style="fill:#000000;fill-opacity:1;fill-rule:nonzero;stroke:none"
         d="m 460.336,24.056 c 0,2.125 -0.75,3.234 -2.297,3.234 -1.297,0 -2.234,-0.921 -2.234,-2.25 0,-1.265 0.875,-2.125 2.093,-2.125 0.641,0 1.11,0.235 1.563,0.766 -0.016,-1.656 -0.547,-2.578 -1.516,-2.578 -0.593,0 -1.015,0.375 -1.14,1.016 l -0.844,0 c 0.156,-1.11 0.891,-1.766 1.922,-1.766 1.594,0 2.453,1.344 2.453,3.703 z m -0.922,1 c 0,-0.828 -0.594,-1.391 -1.422,-1.391 -0.812,0 -1.312,0.532 -1.312,1.438 0,0.875 0.562,1.453 1.343,1.453 0.797,0 1.391,-0.609 1.391,-1.5 z" /><path
         id="path106"
         style="fill:#000000;fill-opacity:1;fill-rule:nonzero;stroke:none"
         d="m 50.008,33.091 2.281,0 0,-0.703 -2.281,0 0,0.703 z" /><path
         id="path108"
         style="fill:#000000;fill-opacity:1;fill-rule:nonzero;stroke:none"
         d="m 57.691,32.341 c 0,1.344 -0.89,2.235 -2.203,2.235 -0.468,0 -0.859,-0.125 -1.25,-0.422 l 0.266,1.765 2.828,0 0,0.828 -3.5,0 -0.516,-3.562 0.782,0 c 0.39,0.469 0.718,0.641 1.25,0.641 0.906,0 1.484,-0.594 1.484,-1.594 0,-0.985 -0.578,-1.531 -1.484,-1.531 -0.75,0 -1.203,0.375 -1.391,1.14 l -0.859,0 c 0.281,-1.359 1.047,-1.89 2.265,-1.89 1.375,0 2.328,0.953 2.328,2.39 z" /><path
         id="path110"
         style="fill:#000000;fill-opacity:1;fill-rule:nonzero;stroke:none"
         d="m 62.965,33.357 c 0,2.359 -0.75,3.531 -2.219,3.531 -1.469,0 -2.234,-1.187 -2.234,-3.469 0,-2.297 0.781,-3.468 2.234,-3.468 1.438,0 2.219,1.171 2.219,3.406 z m -0.86,0.078 c 0,-1.922 -0.437,-2.781 -1.375,-2.781 -0.89,0 -1.343,0.89 -1.343,2.75 0,1.875 0.453,2.734 1.359,2.734 0.906,0 1.359,-0.875 1.359,-2.703 z" /><path
         id="path112"
         style="fill:#000000;fill-opacity:1;fill-rule:nonzero;stroke:none"
         d="m 50.008,81.091 2.281,0 0,-0.703 -2.281,0 0,0.703 z" /><path
         id="path114"
         style="fill:#000000;fill-opacity:1;fill-rule:nonzero;stroke:none"
         d="m 57.754,79.716 0,0.766 -1,0 0,4.406 -0.625,0 -3.094,-4.281 0,-0.891 2.875,0 0,-1.625 0.844,0 0,1.625 1,0 z m -1.844,0.766 -2.14,0 2.14,2.969 0,-2.969 z" /><path
         id="path116"
         style="fill:#000000;fill-opacity:1;fill-rule:nonzero;stroke:none"
         d="m 62.965,81.357 c 0,2.359 -0.75,3.531 -2.219,3.531 -1.469,0 -2.234,-1.187 -2.234,-3.469 0,-2.297 0.781,-3.468 2.234,-3.468 1.438,0 2.219,1.171 2.219,3.406 z m -0.86,0.078 c 0,-1.922 -0.437,-2.781 -1.375,-2.781 -0.89,0 -1.343,0.89 -1.343,2.75 0,1.875 0.453,2.734 1.359,2.734 0.906,0 1.359,-0.875 1.359,-2.703 z" /><path
         id="path118"
         style="fill:#000000;fill-opacity:1;fill-rule:nonzero;stroke:none"
         d="m 50.008,128.294 2.281,0 0,-0.703 -2.281,0 0,0.703 z" /><path
         id="path120"
         style="fill:#000000;fill-opacity:1;fill-rule:nonzero;stroke:none"
         d="m 57.629,127.263 c 0,0.828 -0.344,1.313 -1.156,1.594 0.64,0.25 0.953,0.687 0.953,1.375 0,1.172 -0.781,1.859 -2.078,1.859 -1.375,0 -2.094,-0.75 -2.125,-2.187 l 0.843,0 c 0.016,1 0.438,1.453 1.297,1.453 0.75,0 1.203,-0.438 1.203,-1.156 0,-0.735 -0.328,-1.032 -1.671,-1.032 l 0,-0.703 0.453,0 c 0.937,0 1.406,-0.453 1.406,-1.203 0,-0.859 -0.516,-1.359 -1.406,-1.359 -0.922,0 -1.375,0.453 -1.422,1.437 l -0.844,0 c 0.094,-1.515 0.844,-2.187 2.234,-2.187 1.407,0 2.313,0.828 2.313,2.109 z" /><path
         id="path122"
         style="fill:#000000;fill-opacity:1;fill-rule:nonzero;stroke:none"
         d="m 62.965,128.56 c 0,2.359 -0.75,3.531 -2.219,3.531 -1.469,0 -2.234,-1.187 -2.234,-3.469 0,-2.296 0.781,-3.468 2.234,-3.468 1.438,0 2.219,1.172 2.219,3.406 z m -0.86,0.078 c 0,-1.922 -0.437,-2.781 -1.375,-2.781 -0.89,0 -1.343,0.89 -1.343,2.75 0,1.875 0.453,2.734 1.359,2.734 0.906,0 1.359,-0.875 1.359,-2.703 z" /><path
         id="path124"
         style="fill:#000000;fill-opacity:1;fill-rule:nonzero;stroke:none"
         d="m 50.008,176.294 2.281,0 0,-0.703 -2.281,0 0,0.703 z" /><path
         id="path126"
         style="fill:#000000;fill-opacity:1;fill-rule:nonzero;stroke:none"
         d="m 57.676,178.107 c 0,1.14 -0.891,1.984 -2.188,1.984 -1.39,0 -2.187,-0.703 -2.234,-2.359 l 0.844,0 c 0.062,1.14 0.531,1.625 1.375,1.625 0.765,0 1.328,-0.547 1.328,-1.281 0,-0.532 -0.313,-0.985 -0.906,-1.344 l -0.891,-0.5 c -1.422,-0.797 -1.828,-1.438 -1.906,-2.938 l 4.531,0 0,0.828 -3.578,0 c 0.078,0.563 0.39,0.922 1.219,1.407 l 0.968,0.515 c 0.938,0.516 1.438,1.219 1.438,2.063 z" /><path
         id="path128"
         style="fill:#000000;fill-opacity:1;fill-rule:nonzero;stroke:none"
         d="m 62.965,176.56 c 0,2.359 -0.75,3.531 -2.219,3.531 -1.469,0 -2.234,-1.187 -2.234,-3.469 0,-2.296 0.781,-3.468 2.234,-3.468 1.438,0 2.219,1.172 2.219,3.406 z m -0.86,0.078 c 0,-1.922 -0.437,-2.781 -1.375,-2.781 -0.89,0 -1.343,0.89 -1.343,2.75 0,1.875 0.453,2.734 1.359,2.734 0.906,0 1.359,-0.875 1.359,-2.703 z" /><path
         id="path130"
         style="fill:#000000;fill-opacity:1;fill-rule:nonzero;stroke:none"
         d="m 50.008,224.294 2.281,0 0,-0.703 -2.281,0 0,0.703 z" /><path
         id="path132"
         style="fill:#000000;fill-opacity:1;fill-rule:nonzero;stroke:none"
         d="m 56.098,221.294 0,6.797 -0.563,0 c -0.297,-1.047 -0.484,-1.187 -1.781,-1.344 l 0,-0.609 1.5,0 0,-4.844 0.844,0 z" /><path
         id="path134"
         style="fill:#000000;fill-opacity:1;fill-rule:nonzero;stroke:none"
         d="m 62.965,224.56 c 0,2.359 -0.75,3.531 -2.219,3.531 -1.469,0 -2.234,-1.187 -2.234,-3.469 0,-2.296 0.781,-3.468 2.234,-3.468 1.438,0 2.219,1.172 2.219,3.406 z m -0.86,0.078 c 0,-1.922 -0.437,-2.781 -1.375,-2.781 -0.89,0 -1.343,0.89 -1.343,2.75 0,1.875 0.453,2.734 1.359,2.734 0.906,0 1.359,-0.875 1.359,-2.703 z" /><path
         id="path136"
         style="fill:#000000;fill-opacity:1;fill-rule:nonzero;stroke:none"
         d="m 65.629,271.759 c 0,2.36 -0.75,3.531 -2.219,3.531 -1.469,0 -2.234,-1.187 -2.234,-3.468 0,-2.297 0.781,-3.469 2.234,-3.469 1.438,0 2.219,1.172 2.219,3.406 z m -0.859,0.078 c 0,-1.922 -0.438,-2.781 -1.375,-2.781 -0.891,0 -1.344,0.891 -1.344,2.75 0,1.875 0.453,2.734 1.359,2.734 0.906,0 1.36,-0.875 1.36,-2.703 z" /><path
         id="path138"
         style="fill:#000000;fill-opacity:1;fill-rule:nonzero;stroke:none"
         d="m 225.535,8.294 0,0.797 -4.703,0 0,-7 0.891,0 0,3.188 3.343,0 0,0.781 -3.343,0 0,2.234 3.812,0 z" /><path
         id="path140"
         style="fill:#000000;fill-opacity:1;fill-rule:nonzero;stroke:none"
         d="m 228.578,6.419 0,0.813 c -0.14,0.015 -0.203,0.031 -0.312,0.031 -0.516,0 -0.907,-0.312 -1.36,-1.062 l 0,0.921 -0.734,0 0,-5.031 0.797,0 0,2.61 c 0,1.125 0.375,1.703 1.609,1.718 z" /><path
         id="path142"
         style="fill:#000000;fill-opacity:1;fill-rule:nonzero;stroke:none"
         d="m 233.531,4.372 c 0,0.735 -0.062,1.188 -0.203,1.563 -0.328,0.828 -1.094,1.328 -2.031,1.328 -1.406,0 -2.297,-1.031 -2.297,-2.687 0,-1.657 0.859,-2.625 2.281,-2.625 1.141,0 1.938,0.656 2.141,1.671 l -0.797,0 c -0.219,-0.671 -0.672,-0.937 -1.313,-0.937 -0.843,0 -1.468,0.531 -1.484,1.687 l 3.703,0 z m -0.859,0.719 c 0,0 0,-0.047 0,-0.062 l -2.828,0 c 0.078,0.89 0.64,1.5 1.437,1.5 0.797,0 1.391,-0.657 1.391,-1.438 z m 0.344,4 -1.094,0 -0.922,-1.422 0.578,0 1.438,1.422 z" /><path
         id="path144"
         style="fill:#000000;fill-opacity:1;fill-rule:nonzero;stroke:none"
         d="m 238.699,-0.003 0,7.125 -0.719,0 0,-0.671 c -0.359,0.531 -0.937,0.812 -1.593,0.812 -1.328,0 -2.188,-1.047 -2.188,-2.719 0,-1.625 0.828,-2.593 2.141,-2.593 0.703,0 1.187,0.25 1.562,0.796 l 0,-2.75 0.797,0 z m -0.797,4.579 c 0,-1.157 -0.562,-1.875 -1.406,-1.875 -0.875,0 -1.469,0.734 -1.469,1.906 0,1.156 0.594,1.906 1.469,1.906 0.859,0 1.406,-0.766 1.406,-1.937 z" /><path
         id="path146"
         style="fill:#000000;fill-opacity:1;fill-rule:nonzero;stroke:none"
         d="m 243.988,2.091 0,5.031 -0.797,0 0,-2.781 c 0,-1.015 -0.531,-1.687 -1.375,-1.687 -0.625,0 -1.031,0.375 -1.031,0.984 l 0,3.484 -0.797,0 0,-3.796 c 0,-0.844 0.625,-1.375 1.594,-1.375 0.75,0 1.219,0.25 1.688,0.921 l 0,-0.781 0.718,0 z" /><path
         id="path148"
         style="fill:#000000;fill-opacity:1;fill-rule:nonzero;stroke:none"
         d="m 249.621,4.372 c 0,0.735 -0.062,1.188 -0.203,1.563 -0.328,0.828 -1.094,1.328 -2.031,1.328 -1.407,0 -2.297,-1.031 -2.297,-2.687 0,-1.657 0.859,-2.625 2.281,-2.625 1.141,0 1.938,0.656 2.141,1.671 l -0.797,0 c -0.219,-0.671 -0.672,-0.937 -1.313,-0.937 -0.843,0 -1.468,0.531 -1.484,1.687 l 3.703,0 z m -0.859,0.719 c 0,0 0,-0.047 0,-0.062 l -2.828,0 c 0.078,0.89 0.64,1.5 1.437,1.5 0.797,0 1.391,-0.657 1.391,-1.438 z" /><path
         id="path150"
         style="fill:#000000;fill-opacity:1;fill-rule:nonzero;stroke:none"
         d="m 254.711,2.091 0,3.797 c 0,0.844 -0.625,1.375 -1.594,1.375 -0.75,0 -1.219,-0.281 -1.672,-0.984 l 0,0.843 -0.734,0 0,-5.031 0.797,0 0,2.766 c 0,1.031 0.562,1.703 1.375,1.703 0.625,0 1.031,-0.375 1.031,-0.984 l 0,-3.485 0.797,0 z" /><path
         id="path152"
         style="fill:#000000;fill-opacity:1;fill-rule:nonzero;stroke:none"
         d="m 259.953,3.826 -0.812,0 c -0.125,-0.813 -0.547,-1.141 -1.219,-1.141 -0.891,0 -1.422,0.687 -1.422,1.875 0,1.25 0.531,1.969 1.391,1.969 0.671,0 1.093,-0.407 1.203,-1.094 l 0.797,0 c -0.094,1.219 -0.86,1.828 -1.985,1.828 -1.344,0 -2.234,-1.031 -2.234,-2.703 0,-1.625 0.859,-2.609 2.219,-2.609 1.203,0 1.968,0.718 2.062,1.875 z" /><path
         id="path154"
         style="fill:#000000;fill-opacity:1;fill-rule:nonzero;stroke:none"
         d="m 265.098,4.372 c 0,0.735 -0.063,1.188 -0.203,1.563 -0.329,0.828 -1.094,1.328 -2.032,1.328 -1.406,0 -2.297,-1.031 -2.297,-2.687 0,-1.657 0.86,-2.625 2.282,-2.625 1.14,0 1.937,0.656 2.14,1.671 l -0.797,0 c -0.218,-0.671 -0.671,-0.937 -1.312,-0.937 -0.844,0 -1.469,0.531 -1.484,1.687 l 3.703,0 z m -0.86,0.719 c 0,0 0,-0.047 0,-0.062 l -2.828,0 c 0.078,0.89 0.641,1.5 1.438,1.5 0.797,0 1.39,-0.657 1.39,-1.438 z" /><path
         id="path156"
         style="fill:#000000;fill-opacity:1;fill-rule:nonzero;stroke:none"
         d="m 270.98,0.06 c -0.843,1.375 -1.312,2.984 -1.312,4.516 0,1.531 0.469,3.14 1.312,4.515 l -0.531,0 c -0.953,-1.265 -1.562,-3.015 -1.562,-4.515 0,-1.516 0.609,-3.266 1.562,-4.516 l 0.531,0 z" /><path
         id="path158"
         style="fill:#000000;fill-opacity:1;fill-rule:nonzero;stroke:none"
         d="m 277.578,2.091 0,7 -0.89,0 0,-3.031 -3.594,0 0,3.031 -0.891,0 0,-7 0.891,0 0,3.188 3.594,0 0,-3.188 0.89,0 z" /><path
         id="path160"
         style="fill:#000000;fill-opacity:1;fill-rule:nonzero;stroke:none"
         d="m 282.73,2.091 0,0.703 -3.125,0 2.985,3.61 0,0.718 -3.75,0 0,-0.703 2.797,0 -3,-3.609 0,-0.719 4.093,0 z" /><path
         id="path162"
         style="fill:#000000;fill-opacity:1;fill-rule:nonzero;stroke:none"
         d="m 285.594,4.56 c 0,1.516 -0.594,3.266 -1.563,4.531 l -0.531,0 c 0.844,-1.375 1.312,-2.984 1.312,-4.531 0,-1.516 -0.468,-3.141 -1.312,-4.5 l 0.531,0 c 0.969,1.25 1.563,3 1.563,4.5 z" /><path
         id="path164"
         style="fill:#0000ff;fill-opacity:1;fill-rule:nonzero;stroke:none"
         d="m 37.77,127.779 -0.797,0 0,-5.485 0.797,0 0,2.297 6.203,0 0,0.891 -6.203,0 0,2.297 z" /><path
         id="path166"
         style="fill:#0000ff;fill-opacity:1;fill-rule:nonzero;stroke:none"
         d="m 39.035,133.88 c -1.312,0 -2.062,-0.781 -2.062,-2.156 l 0,-2.891 7,0 0,0.891 -2.969,0 0,2.203 c 0,1.141 -0.813,1.953 -1.969,1.953 z m -0.047,-0.937 c 0.766,0 1.235,-0.5 1.235,-1.36 l 0,-1.859 -2.453,0 0,1.859 c 0,0.86 0.453,1.36 1.218,1.36 z" /><path
         id="path168"
         style="fill:#0000ff;fill-opacity:1;fill-rule:nonzero;stroke:none"
         d="m 39.16,139.267 c -1.14,0 -1.984,-0.891 -1.984,-2.187 0,-1.391 0.703,-2.188 2.359,-2.235 l 0,0.844 c -1.14,0.062 -1.625,0.531 -1.625,1.375 0,0.766 0.547,1.328 1.281,1.328 0.532,0 0.985,-0.312 1.344,-0.906 l 0.5,-0.891 c 0.797,-1.422 1.438,-1.828 2.938,-1.906 l 0,4.531 -0.828,0 0,-3.578 c -0.563,0.078 -0.922,0.391 -1.407,1.219 l -0.515,0.969 c -0.516,0.937 -1.219,1.437 -2.063,1.437 z" /><path
         id="path170"
         style="fill:#0000ff;fill-opacity:1;fill-rule:nonzero;stroke:none"
         d="m 45.191,145.247 0.484,0 0,-5.766 -0.484,0 0,5.766 z" /><path
         id="path172"
         style="fill:#0000ff;fill-opacity:1;fill-rule:nonzero;stroke:none"
         d="m 43.973,150.173 -0.782,0 0,-3.453 -6.218,0 0,-0.89 7,0 0,4.343 z" /><path
         id="path174"
         style="fill:#0000ff;fill-opacity:1;fill-rule:nonzero;stroke:none"
         d="m 41.426,156.529 0,-0.922 c 1.312,-0.219 1.937,-0.766 1.937,-1.953 0,-1.391 -1.062,-2.266 -2.812,-2.266 -1.797,0 -2.953,0.844 -2.953,2.188 0,1.093 0.484,1.671 1.547,1.89 l 0,0.906 c -1.532,-0.265 -2.344,-1.156 -2.344,-2.687 0,-2.125 1.719,-3.203 3.75,-3.203 2.047,0 3.594,1.109 3.594,3.156 0,1.719 -0.907,2.672 -2.719,2.891 z" /><path
         id="path176"
         style="fill:#0000ff;fill-opacity:1;fill-rule:nonzero;stroke:none"
         d="m 43.973,158.787 -1,0 0,-1 1,0 0,1 z m -4.032,0 -1,0 0,-1 1,0 0,1 z" /><path
         id="path178"
         style="fill:#0000ff;fill-opacity:1;fill-rule:nonzero;stroke:none"
         d="m 43.973,164.38 -7,0 0,-0.797 2.609,0 c -0.516,-0.343 -0.781,-0.875 -0.781,-1.546 0,-1.297 1.015,-2.157 2.609,-2.157 1.703,0 2.703,0.828 2.703,2.188 0,0.687 -0.25,1.172 -0.875,1.594 l 0.735,0 0,0.718 z m -2.5,-0.797 c 1.172,0 1.89,-0.562 1.89,-1.406 0,-0.875 -0.734,-1.469 -1.906,-1.469 -1.172,0 -1.906,0.594 -1.906,1.469 0,0.86 0.765,1.406 1.922,1.406 z" /><path
         id="path180"
         style="fill:#0000ff;fill-opacity:1;fill-rule:nonzero;stroke:none"
         d="m 41.973,170.951 c -0.844,0 -1.344,-0.391 -1.688,-1.282 -0.297,0.625 -0.828,0.969 -1.531,0.969 -1.016,0 -1.781,-0.75 -1.781,-2.078 l 0,-2.828 7,0 0,3.156 c 0,1.25 -0.844,2.063 -2,2.063 z m -3.094,-1.204 c 0.703,0 1.109,-0.421 1.109,-1.406 l 0,-1.719 -2.218,0 0,1.719 c 0,0.985 0.406,1.406 1.109,1.406 z m 3.109,0.297 c 0.672,0 1.203,-0.406 1.203,-1.25 l 0,-2.172 -2.406,0 0,2.172 c 0,0.844 0.516,1.25 1.203,1.25 z" /><path
         id="path182"
         style="fill:#0000ff;fill-opacity:1;fill-rule:nonzero;stroke:none"
         d="m 42.051,177.322 c -0.86,0 -1.5,-0.532 -1.75,-1.485 l -0.469,-1.75 c -0.219,-0.843 -0.5,-1.156 -1.047,-1.156 -0.703,0 -1.234,0.625 -1.234,1.563 0,1.109 0.515,1.75 1.422,1.75 l 0,0.843 c -1.375,0 -2.172,-0.953 -2.172,-2.562 0,-1.531 0.844,-2.485 2.109,-2.485 0.86,0 1.391,0.454 1.641,1.375 l 0.453,1.735 c 0.234,0.875 0.594,1.281 1.141,1.281 0.765,0 1.218,-0.578 1.218,-1.781 0,-1.328 -0.672,-1.969 -1.672,-1.969 l 0,-0.859 c 1.657,0 2.454,1.125 2.454,2.765 0,1.782 -0.844,2.735 -2.094,2.735 z" /><path
         id="path184"
         style="fill:#0000ff;fill-opacity:1;fill-rule:nonzero;stroke:none"
         d="m 43.973,181.13 -6.797,0 0,-0.562 c 1.047,-0.297 1.187,-0.485 1.344,-1.781 l 0.609,0 0,1.5 4.844,0 0,0.843 z" /><path
         id="path186"
         style="fill:#0000ff;fill-opacity:1;fill-rule:nonzero;stroke:none"
         d="m 43.973,186.466 -6.797,0 0,-0.562 c 1.047,-0.297 1.187,-0.485 1.344,-1.782 l 0.609,0 0,1.5 4.844,0 0,0.844 z" /><path
         id="path188"
         style="fill:#ff00ff;fill-opacity:1;fill-rule:nonzero;stroke:none"
         d="m 25.57,151.642 -7,0 0,-0.797 2.61,0 c -0.516,-0.344 -0.782,-0.875 -0.782,-1.547 0,-1.297 1.016,-2.156 2.61,-2.156 1.703,0 2.703,0.828 2.703,2.188 0,0.687 -0.25,1.171 -0.875,1.593 l 0.734,0 0,0.719 z m -2.5,-0.797 c 1.172,0 1.891,-0.562 1.891,-1.406 0,-0.875 -0.734,-1.469 -1.906,-1.469 -1.172,0 -1.907,0.594 -1.907,1.469 0,0.859 0.766,1.406 1.922,1.406 z" /><path
         id="path190"
         style="fill:#ff00ff;fill-opacity:1;fill-rule:nonzero;stroke:none"
         d="m 23.57,158.216 c -0.843,0 -1.343,-0.39 -1.687,-1.281 -0.297,0.625 -0.828,0.969 -1.531,0.969 -1.016,0 -1.782,-0.75 -1.782,-2.078 l 0,-2.829 7,0 0,3.157 c 0,1.25 -0.843,2.062 -2,2.062 z m -3.093,-1.203 c 0.703,0 1.109,-0.422 1.109,-1.406 l 0,-1.719 -2.219,0 0,1.719 c 0,0.984 0.406,1.406 1.11,1.406 z m 3.109,0.297 c 0.672,0 1.203,-0.406 1.203,-1.25 l 0,-2.172 -2.406,0 0,2.172 c 0,0.844 0.515,1.25 1.203,1.25 z" /><path
         id="path192"
         style="fill:#ff00ff;fill-opacity:1;fill-rule:nonzero;stroke:none"
         d="m 23.648,164.587 c -0.859,0 -1.5,-0.531 -1.75,-1.484 l -0.468,-1.75 c -0.219,-0.844 -0.5,-1.156 -1.047,-1.156 -0.703,0 -1.235,0.625 -1.235,1.562 0,1.11 0.516,1.75 1.422,1.75 l 0,0.844 c -1.375,0 -2.172,-0.953 -2.172,-2.563 0,-1.531 0.844,-2.484 2.11,-2.484 0.859,0 1.39,0.453 1.64,1.375 l 0.454,1.734 c 0.234,0.875 0.593,1.282 1.14,1.282 0.766,0 1.219,-0.578 1.219,-1.782 0,-1.328 -0.672,-1.968 -1.672,-1.968 l 0,-0.86 c 1.656,0 2.453,1.125 2.453,2.766 0,1.781 -0.844,2.734 -2.094,2.734 z" /><path
         id="path194"
         style="fill:#ff00ff;fill-opacity:1;fill-rule:nonzero;stroke:none"
         d="m 25.57,168.392 -6.797,0 0,-0.562 c 1.047,-0.297 1.188,-0.485 1.344,-1.782 l 0.61,0 0,1.5 4.843,0 0,0.844 z" /><path
         id="path196"
         style="fill:#ff00ff;fill-opacity:1;fill-rule:nonzero;stroke:none"
         d="m 25.57,173.732 -6.797,0 0,-0.563 c 1.047,-0.297 1.188,-0.484 1.344,-1.781 l 0.61,0 0,1.5 4.843,0 0,0.844 z" /><path
         id="path198"
         style="fill:#00ff00;fill-opacity:1;fill-rule:nonzero;stroke:none"
         d="m 0.969,83.779 -0.797,0 0,-5.485 0.797,0 0,2.297 6.203,0 0,0.891 -6.203,0 0,2.297 z" /><path
         id="path200"
         style="fill:#00ff00;fill-opacity:1;fill-rule:nonzero;stroke:none"
         d="m 2.234,89.88 c -1.312,0 -2.062,-0.781 -2.062,-2.156 l 0,-2.891 7,0 0,0.891 -2.969,0 0,2.203 c 0,1.141 -0.812,1.953 -1.969,1.953 z M 2.188,88.943 c 0.765,0 1.234,-0.5 1.234,-1.36 l 0,-1.859 -2.453,0 0,1.859 c 0,0.86 0.453,1.36 1.219,1.36 z" /><path
         id="path202"
         style="fill:#00ff00;fill-opacity:1;fill-rule:nonzero;stroke:none"
         d="m 2.359,95.267 c -1.14,0 -1.984,-0.891 -1.984,-2.187 0,-1.391 0.703,-2.188 2.359,-2.235 l 0,0.844 c -1.14,0.062 -1.625,0.531 -1.625,1.375 0,0.766 0.547,1.328 1.282,1.328 0.531,0 0.984,-0.312 1.343,-0.906 l 0.5,-0.891 c 0.797,-1.422 1.438,-1.828 2.938,-1.906 l 0,4.531 -0.828,0 0,-3.578 C 5.781,91.72 5.422,92.033 4.938,92.861 L 4.422,93.83 c -0.516,0.937 -1.219,1.437 -2.063,1.437 z" /><path
         id="path204"
         style="fill:#00ff00;fill-opacity:1;fill-rule:nonzero;stroke:none"
         d="m 8.391,101.247 0.484,0 0,-5.766 -0.484,0 0,5.766 z" /><path
         id="path206"
         style="fill:#00ff00;fill-opacity:1;fill-rule:nonzero;stroke:none"
         d="m 5.25,107.017 c -0.859,0 -1.5,-0.531 -1.75,-1.484 l -0.469,-1.75 c -0.219,-0.844 -0.5,-1.157 -1.047,-1.157 -0.703,0 -1.234,0.625 -1.234,1.563 0,1.109 0.516,1.75 1.422,1.75 l 0,0.844 C 0.797,106.783 0,105.83 0,104.22 c 0,-1.531 0.844,-2.484 2.109,-2.484 0.86,0 1.391,0.453 1.641,1.375 l 0.453,1.734 c 0.235,0.875 0.594,1.281 1.141,1.281 0.765,0 1.218,-0.578 1.218,-1.781 0,-1.328 -0.671,-1.969 -1.671,-1.969 l 0,-0.859 c 1.656,0 2.453,1.125 2.453,2.766 0,1.781 -0.844,2.734 -2.094,2.734 z" /><path
         id="path208"
         style="fill:#00ff00;fill-opacity:1;fill-rule:nonzero;stroke:none"
         d="m 7.172,109.857 -0.672,0 c 0.031,-0.11 0.031,-0.235 0.031,-0.391 0,-0.344 -0.093,-0.437 -0.437,-0.437 l -3.297,0 0,0.828 -0.656,0 0,-0.828 -1.375,0 0,-0.797 1.375,0 0,-0.672 0.656,0 0,0.672 3.641,0 c 0.515,0 0.796,0.344 0.796,0.969 0,0.187 -0.015,0.39 -0.062,0.656 z" /><path
         id="path210"
         style="fill:#00ff00;fill-opacity:1;fill-rule:nonzero;stroke:none"
         d="m 7.172,114.716 -5.031,0 0,-0.797 2.781,0 c 1.016,0 1.687,-0.531 1.687,-1.375 0,-0.625 -0.375,-1.031 -0.984,-1.031 l -3.484,0 0,-0.797 3.797,0 c 0.843,0 1.374,0.625 1.374,1.594 0,0.75 -0.25,1.219 -0.921,1.687 l 0.781,0 0,0.719 z" /><path
         id="path212"
         style="fill:#00ff00;fill-opacity:1;fill-rule:nonzero;stroke:none"
         d="M 4.594,120.443 C 2.969,120.443 2,119.615 2,118.302 c 0,-0.703 0.266,-1.187 0.828,-1.562 l -2.656,0 0,-0.797 7,0 0,0.719 -0.719,0 c 0.578,0.39 0.859,0.89 0.859,1.593 0,1.328 -1.078,2.188 -2.718,2.188 z m 0.062,-0.828 c 1.141,0 1.906,-0.594 1.906,-1.469 0,-0.844 -0.765,-1.406 -1.906,-1.406 -1.172,0 -1.953,0.562 -1.906,1.406 0,0.891 0.781,1.469 1.906,1.469 z" /><path
         id="path214"
         style="fill:#00ff00;fill-opacity:1;fill-rule:nonzero;stroke:none"
         d="m 8.391,126.31 0.484,0 0,-5.766 -0.484,0 0,5.766 z" /><path
         id="path216"
         style="fill:#00ff00;fill-opacity:1;fill-rule:nonzero;stroke:none"
         d="m 3.781,133.228 c -2.25,0 -3.781,-1.344 -3.781,-3.391 0,-2 1.547,-3.375 3.734,-3.375 2.188,0 3.61,1.375 3.61,3.375 0,2.063 -1.5,3.391 -3.563,3.391 z m -0.015,-0.906 c 1.687,0 2.796,-1 2.796,-2.485 0,-1.484 -1.109,-2.484 -2.828,-2.484 -1.734,0 -2.937,1 -2.937,2.484 0,1.516 1.203,2.485 2.969,2.485 z" /><path
         id="path218"
         style="fill:#00ff00;fill-opacity:1;fill-rule:nonzero;stroke:none"
         d="M 4.703,138.587 C 3.016,138.587 2,137.759 2,136.431 c 0,-0.687 0.312,-1.234 0.906,-1.609 l -0.765,0 0,-0.719 7.125,0 0,0.797 -2.704,0 c 0.516,0.422 0.75,0.89 0.75,1.547 0,1.281 -1,2.14 -2.609,2.14 z m -0.015,-0.828 c 1.14,0 1.874,-0.594 1.874,-1.469 0,-0.843 -0.687,-1.39 -1.859,-1.39 -1.187,0 -1.953,0.547 -1.953,1.39 0,0.891 0.734,1.469 1.938,1.469 z" /><path
         id="path220"
         style="fill:#00ff00;fill-opacity:1;fill-rule:nonzero;stroke:none"
         d="m 7.172,141.306 -0.672,0 c 0.031,-0.109 0.031,-0.234 0.031,-0.391 0,-0.343 -0.093,-0.437 -0.437,-0.437 l -3.297,0 0,0.828 -0.656,0 0,-0.828 -1.375,0 0,-0.797 1.375,0 0,-0.672 0.656,0 0,0.672 3.641,0 c 0.515,0 0.796,0.344 0.796,0.969 0,0.187 -0.015,0.39 -0.062,0.656 z" /><path
         id="path222"
         style="fill:#00ff00;fill-opacity:1;fill-rule:nonzero;stroke:none"
         d="m 7.172,143.009 -5.031,0 0,-0.797 5.031,0 0,0.797 z m -5.781,0.11 -1,0 0,-1 1,0 0,1 z" /><path
         id="path224"
         style="fill:#00ff00;fill-opacity:1;fill-rule:nonzero;stroke:none"
         d="m 7.172,150.966 -3.766,0 C 2.5,150.966 2,150.466 2,149.529 2,148.857 2.203,148.451 2.766,147.982 2.234,147.685 2,147.279 2,146.622 c 0,-0.671 0.25,-1.109 0.859,-1.546 l -0.718,0 0,-0.719 5.031,0 0,0.797 -3.156,0 c -0.735,0 -1.313,0.515 -1.313,1.172 0,0.593 0.359,0.937 1,0.937 l 3.469,0 0,0.797 -3.156,0 c -0.735,0 -1.313,0.531 -1.313,1.187 0,0.579 0.375,0.922 1,0.922 l 3.469,0 0,0.797 z" /><path
         id="path226"
         style="fill:#00ff00;fill-opacity:1;fill-rule:nonzero;stroke:none"
         d="m 7.172,153.134 -5.031,0 0,-0.797 5.031,0 0,0.797 z m -5.781,0.11 -1,0 0,-1 1,0 0,1 z" /><path
         id="path228"
         style="fill:#00ff00;fill-opacity:1;fill-rule:nonzero;stroke:none"
         d="m 5.766,158.205 c -0.75,0 -1.125,-0.422 -1.36,-1.422 L 4.219,156.017 C 4.062,155.361 3.859,155.08 3.5,155.08 c -0.469,0 -0.766,0.421 -0.766,1.062 0,0.656 0.282,1 0.813,1.016 l 0,0.843 C 2.562,157.986 2,157.345 2,156.173 c 0,-1.172 0.609,-1.922 1.531,-1.922 0.797,0 1.172,0.407 1.453,1.594 l 0.188,0.75 c 0.125,0.547 0.297,0.766 0.656,0.766 0.469,0 0.75,-0.469 0.75,-1.172 0,-0.719 -0.172,-1.109 -0.937,-1.219 l 0,-0.844 c 1.156,0.032 1.671,0.688 1.671,2 0,1.266 -0.578,2.079 -1.546,2.079 z" /><path
         id="path230"
         style="fill:#00ff00;fill-opacity:1;fill-rule:nonzero;stroke:none"
         d="m 7.156,163.724 -0.609,0 c 0.015,-0.078 0.015,-0.109 0.015,-0.172 0,-0.265 -0.14,-0.422 -0.39,-0.422 l -2.797,0 C 2.484,163.13 2,162.474 2,161.24 c 0,-1.219 0.469,-1.969 1.625,-2.016 l 0,0.797 c -0.609,0.078 -0.891,0.437 -0.891,1.187 0,0.719 0.282,1.125 0.75,1.125 l 0.219,0 c 0.328,0 0.469,-0.203 0.547,-0.843 0.156,-1.125 0.188,-1.297 0.312,-1.61 0.235,-0.578 0.688,-0.875 1.297,-0.875 0.922,0 1.453,0.625 1.453,1.641 0,0.656 -0.265,1.266 -0.734,1.719 0.375,0.078 0.656,0.422 0.656,0.812 0,0.172 -0.015,0.297 -0.078,0.547 z m -1.718,-1.391 c 0.718,0 1.171,-0.734 1.171,-1.515 0,-0.61 -0.218,-0.985 -0.765,-0.985 -0.532,0 -0.75,0.36 -0.875,1.219 -0.125,0.844 -0.157,1.016 -0.281,1.281 l 0.75,0 z" /><path
         id="path232"
         style="fill:#00ff00;fill-opacity:1;fill-rule:nonzero;stroke:none"
         d="m 7.172,166.372 -0.672,0 c 0.031,-0.109 0.031,-0.234 0.031,-0.39 0,-0.344 -0.093,-0.438 -0.437,-0.438 l -3.297,0 0,0.828 -0.656,0 0,-0.828 -1.375,0 0,-0.797 1.375,0 0,-0.671 0.656,0 0,0.671 3.641,0 c 0.515,0 0.796,0.344 0.796,0.969 0,0.188 -0.015,0.391 -0.062,0.656 z" /><path
         id="path234"
         style="fill:#00ff00;fill-opacity:1;fill-rule:nonzero;stroke:none"
         d="m 7.172,168.072 -5.031,0 0,-0.797 5.031,0 0,0.797 z m -5.781,0.109 -1,0 0,-1 1,0 0,1 z" /><path
         id="path236"
         style="fill:#00ff00;fill-opacity:1;fill-rule:nonzero;stroke:none"
         d="m 4.703,173.626 c -1.75,0 -2.703,-0.828 -2.703,-2.281 0,-1.406 0.969,-2.265 2.656,-2.265 1.688,0 2.656,0.843 2.656,2.281 0,1.406 -0.968,2.265 -2.609,2.265 z m -0.015,-0.828 c 1.171,0 1.89,-0.562 1.89,-1.437 0,-0.891 -0.703,-1.438 -1.922,-1.438 -1.203,0 -1.922,0.547 -1.922,1.438 0,0.89 0.704,1.437 1.954,1.437 z" /><path
         id="path238"
         style="fill:#00ff00;fill-opacity:1;fill-rule:nonzero;stroke:none"
         d="m 7.172,178.775 -3.797,0 C 2.531,178.775 2,178.15 2,177.181 c 0,-0.75 0.281,-1.219 0.984,-1.672 l -0.843,0 0,-0.734 5.031,0 0,0.797 -2.766,0 c -1.031,0 -1.703,0.562 -1.703,1.375 0,0.625 0.375,1.031 0.985,1.031 l 3.484,0 0,0.797 z" /><path
         id="path240"
         style="fill:#00ff00;fill-opacity:1;fill-rule:nonzero;stroke:none"
         d="m 7.172,181.267 -1,0 0,-1 1,0 0,1 z m -4.031,0 -1,0 0,-1 1,0 0,1 z" /><path
         id="path242"
         style="fill:#00ff00;fill-opacity:1;fill-rule:nonzero;stroke:none"
         d="m 7.172,186.857 -7,0 0,-0.797 2.609,0 C 2.266,185.716 2,185.185 2,184.513 c 0,-1.297 1.016,-2.156 2.609,-2.156 1.703,0 2.703,0.828 2.703,2.187 0,0.688 -0.25,1.172 -0.874,1.594 l 0.734,0 0,0.719 z m -2.5,-0.797 c 1.172,0 1.89,-0.563 1.89,-1.406 0,-0.875 -0.734,-1.469 -1.906,-1.469 -1.172,0 -1.906,0.594 -1.906,1.469 0,0.859 0.766,1.406 1.922,1.406 z" /><path
         id="path244"
         style="fill:#00ff00;fill-opacity:1;fill-rule:nonzero;stroke:none"
         d="m 5.172,193.431 c -0.844,0 -1.344,-0.391 -1.688,-1.281 -0.296,0.625 -0.828,0.969 -1.531,0.969 -1.015,0 -1.781,-0.75 -1.781,-2.079 l 0,-2.828 7,0 0,3.157 c 0,1.25 -0.844,2.062 -2,2.062 z m -3.094,-1.203 c 0.703,0 1.11,-0.422 1.11,-1.406 l 0,-1.719 -2.219,0 0,1.719 c 0,0.984 0.406,1.406 1.109,1.406 z m 3.11,0.297 c 0.671,0 1.203,-0.406 1.203,-1.25 l 0,-2.172 -2.407,0 0,2.172 c 0,0.844 0.516,1.25 1.204,1.25 z" /><path
         id="path246"
         style="fill:#00ff00;fill-opacity:1;fill-rule:nonzero;stroke:none"
         d="m 5.25,199.802 c -0.859,0 -1.5,-0.531 -1.75,-1.484 l -0.469,-1.75 c -0.219,-0.844 -0.5,-1.156 -1.047,-1.156 -0.703,0 -1.234,0.625 -1.234,1.562 0,1.109 0.516,1.75 1.422,1.75 l 0,0.844 C 0.797,199.568 0,198.615 0,197.005 c 0,-1.531 0.844,-2.484 2.109,-2.484 0.86,0 1.391,0.453 1.641,1.375 l 0.453,1.734 c 0.235,0.875 0.594,1.282 1.141,1.282 0.765,0 1.218,-0.579 1.218,-1.782 0,-1.328 -0.671,-1.968 -1.671,-1.968 l 0,-0.86 c 1.656,0 2.453,1.125 2.453,2.766 0,1.781 -0.844,2.734 -2.094,2.734 z" /><path
         id="path248"
         style="fill:#00ff00;fill-opacity:1;fill-rule:nonzero;stroke:none"
         d="m 7.172,203.611 -6.797,0 0,-0.563 c 1.047,-0.297 1.187,-0.484 1.344,-1.781 l 0.609,0 0,1.5 4.844,0 0,0.844 z" /><path
         id="path250"
         style="fill:#00ff00;fill-opacity:1;fill-rule:nonzero;stroke:none"
         d="m 7.172,208.947 -6.797,0 0,-0.563 c 1.047,-0.297 1.187,-0.484 1.344,-1.781 l 0.609,0 0,1.5 4.844,0 0,0.844 z" /></g></g></svg>