<?xml version="1.0" encoding="UTF-8" standalone="no"?>
<svg
   xmlns:dc="http://purl.org/dc/elements/1.1/"
   xmlns:cc="http://creativecommons.org/ns#"
   xmlns:rdf="http://www.w3.org/1999/02/22-rdf-syntax-ns#"
   xmlns:svg="http://www.w3.org/2000/svg"
   xmlns="http://www.w3.org/2000/svg"
   viewBox="0 0 740.91797 171.58681"
   height="171.58681"
   width="740.91797"
   xml:space="preserve"
   version="1.1"
   id="svg2"><metadata
     id="metadata8"><rdf:RDF><cc:Work
         rdf:about=""><dc:format>image/svg+xml</dc:format><dc:type
           rdf:resource="http://purl.org/dc/dcmitype/StillImage" /></cc:Work></rdf:RDF></metadata><defs
     id="defs6" /><g
     transform="matrix(1.25,0,0,-1.25,0,171.5868)"
     id="g10"><g
       id="g12"><path
         id="path14"
         style="fill:none;stroke:#000080;stroke-width:1.60000002;stroke-linecap:square;stroke-linejoin:bevel;stroke-miterlimit:4;stroke-dasharray:none;stroke-opacity:1"
         d="m 461.934,44.144 0,-8" /><path
         id="path16"
         style="fill:none;stroke:#000080;stroke-width:2.4000001;stroke-linecap:square;stroke-linejoin:bevel;stroke-miterlimit:4;stroke-dasharray:none;stroke-opacity:1"
         d="m 453.133,36.144 17.601,0" /><path
         id="path18"
         style="fill:none;stroke:#000080;stroke-width:2.4000001;stroke-linecap:square;stroke-linejoin:bevel;stroke-miterlimit:4;stroke-dasharray:none;stroke-opacity:1"
         d="m 456.332,31.344 11.203,0" /><path
         id="path20"
         style="fill:none;stroke:#000080;stroke-width:2.4000001;stroke-linecap:square;stroke-linejoin:bevel;stroke-miterlimit:4;stroke-dasharray:none;stroke-opacity:1"
         d="m 459.535,26.543 4.797,0" /><path
         id="path22"
         style="fill:none;stroke:#808080;stroke-width:0.80000001;stroke-linecap:square;stroke-linejoin:bevel;stroke-miterlimit:4;stroke-dasharray:none;stroke-opacity:1"
         d="m 567.535,76.945 -35.203,0" /><path
         id="path24"
         style="fill:none;stroke:#808080;stroke-width:0.80000001;stroke-linecap:square;stroke-linejoin:bevel;stroke-miterlimit:4;stroke-dasharray:none;stroke-opacity:1"
         d="m 567.535,59.344 -35.203,0" /><path
         id="path26"
         style="fill:none;stroke:#808080;stroke-width:0.80000001;stroke-linecap:square;stroke-linejoin:bevel;stroke-miterlimit:4;stroke-dasharray:none;stroke-opacity:1"
         d="m 567.535,76.945 0,-17.601" /><path
         id="path28"
         style="fill:none;stroke:#808080;stroke-width:0.80000001;stroke-linecap:square;stroke-linejoin:bevel;stroke-miterlimit:4;stroke-dasharray:none;stroke-opacity:1"
         d="m 532.332,76.945 0,-17.601" /><path
         id="path30"
         style="fill:none;stroke:#000080;stroke-width:1.60000002;stroke-linecap:square;stroke-linejoin:bevel;stroke-miterlimit:4;stroke-dasharray:none;stroke-opacity:1"
         d="m 573.934,68.144 -8.801,0" /><path
         id="path32"
         style="fill:none;stroke:#000080;stroke-width:1.60000002;stroke-linecap:square;stroke-linejoin:bevel;stroke-miterlimit:4;stroke-dasharray:none;stroke-opacity:1"
         d="m 525.934,68.144 8.8,0" /><path
         id="path34"
         style="fill:none;stroke:#000080;stroke-width:1.60000002;stroke-linecap:square;stroke-linejoin:bevel;stroke-miterlimit:4;stroke-dasharray:none;stroke-opacity:1"
         d="m 550.734,68.144 -3.199,0" /><path
         id="path36"
         style="fill:none;stroke:#000080;stroke-width:1.60000002;stroke-linecap:square;stroke-linejoin:bevel;stroke-miterlimit:4;stroke-dasharray:none;stroke-opacity:1"
         d="m 547.535,72.144 -12.801,0" /><path
         id="path38"
         style="fill:none;stroke:#000080;stroke-width:1.60000002;stroke-linecap:square;stroke-linejoin:bevel;stroke-miterlimit:4;stroke-dasharray:none;stroke-opacity:1"
         d="m 547.535,64.144 -12.801,0" /><path
         id="path40"
         style="fill:none;stroke:#000080;stroke-width:1.60000002;stroke-linecap:square;stroke-linejoin:bevel;stroke-miterlimit:4;stroke-dasharray:none;stroke-opacity:1"
         d="m 547.535,72.144 0,-8" /><path
         id="path42"
         style="fill:none;stroke:#000080;stroke-width:1.60000002;stroke-linecap:square;stroke-linejoin:bevel;stroke-miterlimit:4;stroke-dasharray:none;stroke-opacity:1"
         d="m 534.734,72.144 0,-8" /><path
         id="path44"
         style="fill:none;stroke:#ff0000;stroke-width:0.80000001;stroke-linecap:square;stroke-linejoin:bevel;stroke-miterlimit:4;stroke-dasharray:none;stroke-opacity:1"
         d="m 529.934,64.144 0,-4.8" /><path
         id="path46"
         style="fill:none;stroke:#ff0000;stroke-width:0.80000001;stroke-linecap:square;stroke-linejoin:bevel;stroke-miterlimit:4;stroke-dasharray:none;stroke-opacity:1"
         d="m 527.535,61.742 4.797,0" /><path
         id="path48"
         style="fill:none;stroke:#000000;stroke-width:0.80000001;stroke-linecap:square;stroke-linejoin:bevel;stroke-miterlimit:4;stroke-dasharray:none;stroke-opacity:1"
         d="m 569.934,64.144 0,-4.8" /><path
         id="path50"
         style="fill:none;stroke:#000080;stroke-width:1.60000002;stroke-linecap:square;stroke-linejoin:bevel;stroke-miterlimit:4;stroke-dasharray:none;stroke-opacity:1"
         d="m 550.734,68.144 c 0,-3.976 3.223,-7.199 7.2,-7.199 3.976,0 7.199,3.223 7.199,7.199 0,3.977 -3.223,7.2 -7.199,7.2 -3.977,0 -7.2,-3.223 -7.2,-7.2" /><path
         id="path52"
         style="fill:none;stroke:#000080;stroke-width:1.60000002;stroke-linecap:square;stroke-linejoin:bevel;stroke-miterlimit:4;stroke-dasharray:none;stroke-opacity:1"
         d="m 557.934,72.945 c -1.325,0 -2.399,-1.074 -2.399,-2.402 0,-1.324 1.074,-2.399 2.399,-2.399" /><path
         id="path54"
         style="fill:none;stroke:#000080;stroke-width:1.60000002;stroke-linecap:square;stroke-linejoin:bevel;stroke-miterlimit:4;stroke-dasharray:none;stroke-opacity:1"
         d="m 557.934,63.344 c 1.324,0 2.398,1.074 2.398,2.398 0,1.328 -1.074,2.402 -2.398,2.402" /><path
         id="path56"
         style="fill:#000000;fill-opacity:1;fill-rule:nonzero;stroke:none"
         d="m 535.055,47.48 c 0,1.313 -0.782,2.063 -2.157,2.063 l -2.89,0 0,-7 0.89,0 0,2.969 2.204,0 c 1.14,0 1.953,0.812 1.953,1.968 z m -0.938,0.047 c 0,-0.765 -0.5,-1.234 -1.359,-1.234 l -1.86,0 0,2.453 1.86,0 c 0.859,0 1.359,-0.453 1.359,-1.219 z" /><path
         id="path58"
         style="fill:#000000;fill-opacity:1;fill-rule:nonzero;stroke:none"
         d="m 538.863,42.543 0,6.797 -0.562,0 c -0.297,-1.047 -0.485,-1.188 -1.781,-1.344 l 0,-0.609 1.5,0 0,-4.844 0.843,0 z" /><path
         id="path60"
         style="fill:#000000;fill-opacity:1;fill-rule:nonzero;stroke:none"
         d="m 535.336,28.945 0,7 -0.844,0 0,-5.719 -3.656,5.719 -0.969,0 0,-7 0.844,0 0,5.672 3.609,-5.672 1.016,0 z" /><path
         id="path62"
         style="fill:#000000;fill-opacity:1;fill-rule:nonzero;stroke:none"
         d="m 540.688,28.945 0,5.031 -0.797,0 0,-2.781 c 0,-1.015 -0.532,-1.687 -1.375,-1.687 -0.625,0 -1.032,0.375 -1.032,0.984 l 0,3.484 -0.796,0 0,-3.796 c 0,-0.844 0.624,-1.375 1.593,-1.375 0.75,0 1.219,0.25 1.688,0.921 l 0,-0.781 0.719,0 z" /><path
         id="path64"
         style="fill:#000000;fill-opacity:1;fill-rule:nonzero;stroke:none"
         d="m 548.699,28.945 0,3.766 c 0,0.906 -0.5,1.406 -1.437,1.406 -0.672,0 -1.078,-0.203 -1.547,-0.766 -0.297,0.532 -0.703,0.766 -1.36,0.766 -0.671,0 -1.109,-0.25 -1.546,-0.859 l 0,0.718 -0.719,0 0,-5.031 0.797,0 0,3.156 c 0,0.735 0.515,1.313 1.172,1.313 0.593,0 0.937,-0.359 0.937,-1 l 0,-3.469 0.797,0 0,3.156 c 0,0.735 0.531,1.313 1.187,1.313 0.579,0 0.922,-0.375 0.922,-1 l 0,-3.469 0.797,0 z" /><path
         id="path66"
         style="fill:#000000;fill-opacity:1;fill-rule:nonzero;stroke:none"
         d="m 554.352,31.883 0,0.656 -4.297,0 0,-0.656 4.297,0 z m 0,-1.735 0,0.657 -4.297,0 0,-0.657 4.297,0 z" /><path
         id="path68"
         style="fill:#000000;fill-opacity:1;fill-rule:nonzero;stroke:none"
         d="m 559.91,33.758 c 0,1.14 -0.89,1.984 -2.187,1.984 -1.391,0 -2.188,-0.703 -2.235,-2.359 l 0.844,0 c 0.063,1.14 0.531,1.625 1.375,1.625 0.766,0 1.328,-0.547 1.328,-1.282 0,-0.531 -0.312,-0.984 -0.906,-1.343 l -0.891,-0.5 c -1.422,-0.797 -1.828,-1.438 -1.906,-2.938 l 4.531,0 0,0.828 -3.578,0 c 0.078,0.563 0.391,0.922 1.219,1.407 l 0.969,0.515 c 0.937,0.516 1.437,1.219 1.437,2.063 z" /><path
         id="path70"
         style="fill:#000000;fill-opacity:1;fill-rule:nonzero;stroke:none"
         d="m 534.727,15.344 0,0.781 -4.204,0 4.188,5.406 0,0.813 -5.047,0 0,-0.797 3.938,0 -4.204,-5.422 0,-0.781 5.329,0 z" /><path
         id="path72"
         style="fill:#000000;fill-opacity:1;fill-rule:nonzero;stroke:none"
         d="m 539.949,18.281 0,0.656 -4.297,0 0,-0.656 4.297,0 z m 0,-1.734 0,0.656 -4.297,0 0,-0.656 4.297,0 z" /><path
         id="path74"
         style="fill:#000000;fill-opacity:1;fill-rule:nonzero;stroke:none"
         d="m 545.527,17.594 c 0,1.343 -0.89,2.234 -2.203,2.234 -0.469,0 -0.859,-0.125 -1.25,-0.422 l 0.266,1.766 2.828,0 0,0.828 -3.5,0 -0.516,-3.563 0.782,0 c 0.39,0.469 0.718,0.641 1.25,0.641 0.906,0 1.484,-0.594 1.484,-1.594 0,-0.984 -0.578,-1.531 -1.484,-1.531 -0.75,0 -1.204,0.375 -1.391,1.141 l -0.859,0 c 0.281,-1.36 1.046,-1.891 2.265,-1.891 1.375,0 2.328,0.953 2.328,2.391 z" /><path
         id="path76"
         style="fill:#000000;fill-opacity:1;fill-rule:nonzero;stroke:none"
         d="m 550.801,18.609 c 0,2.36 -0.75,3.532 -2.219,3.532 -1.469,0 -2.234,-1.188 -2.234,-3.469 0,-2.297 0.781,-3.469 2.234,-3.469 1.438,0 2.219,1.172 2.219,3.406 z m -0.86,0.078 c 0,-1.921 -0.437,-2.781 -1.375,-2.781 -0.89,0 -1.343,0.891 -1.343,2.75 0,1.875 0.453,2.735 1.359,2.735 0.906,0 1.359,-0.875 1.359,-2.704 z" /><path
         id="path78"
         style="fill:#000000;fill-opacity:1;fill-rule:nonzero;stroke:none"
         d="m 561.082,18.734 c 0,2.25 -1.344,3.782 -3.391,3.782 -2,0 -3.375,-1.547 -3.375,-3.735 0,-2.187 1.375,-3.609 3.375,-3.609 2.063,0 3.391,1.5 3.391,3.562 z m -0.906,0.016 c 0,-1.688 -1,-2.797 -2.485,-2.797 -1.484,0 -2.484,1.109 -2.484,2.828 0,1.735 1,2.938 2.484,2.938 1.516,0 2.485,-1.203 2.485,-2.969 z" /><path
         id="path80"
         style="fill:#000000;fill-opacity:1;fill-rule:nonzero;stroke:none"
         d="m 566.082,15.344 0,3.797 c 0,0.843 -0.594,1.375 -1.578,1.375 -0.703,0 -1.141,-0.219 -1.609,-0.829 l 0,2.657 -0.797,0 0,-7 0.797,0 0,2.765 c 0,1.032 0.531,1.703 1.359,1.703 0.562,0 1.031,-0.328 1.031,-0.984 l 0,-3.484 0.797,0 z" /><path
         id="path82"
         style="fill:#000000;fill-opacity:1;fill-rule:nonzero;stroke:none"
         d="m 574.062,15.344 0,3.765 c 0,0.907 -0.5,1.407 -1.437,1.407 -0.672,0 -1.078,-0.204 -1.547,-0.766 -0.297,0.531 -0.703,0.766 -1.359,0.766 -0.672,0 -1.11,-0.25 -1.547,-0.86 l 0,0.719 -0.719,0 0,-5.031 0.797,0 0,3.156 c 0,0.734 0.516,1.312 1.172,1.312 0.594,0 0.937,-0.359 0.937,-1 l 0,-3.468 0.797,0 0,3.156 c 0,0.734 0.532,1.312 1.188,1.312 0.578,0 0.922,-0.375 0.922,-1 l 0,-3.468 0.796,0 z" /><path
         id="path84"
         style="fill:none;stroke:#000080;stroke-width:1.60000002;stroke-linecap:square;stroke-linejoin:bevel;stroke-miterlimit:4;stroke-dasharray:none;stroke-opacity:1"
         d="m 573.934,68.144 8,0" /><path
         id="path86"
         style="fill:none;stroke:#000080;stroke-width:2.4000001;stroke-linecap:square;stroke-linejoin:bevel;stroke-miterlimit:4;stroke-dasharray:none;stroke-opacity:1"
         d="m 581.934,59.344 0,17.601" /><path
         id="path88"
         style="fill:none;stroke:#000080;stroke-width:2.4000001;stroke-linecap:square;stroke-linejoin:bevel;stroke-miterlimit:4;stroke-dasharray:none;stroke-opacity:1"
         d="m 586.734,62.543 0,11.199" /><path
         id="path90"
         style="fill:none;stroke:#000080;stroke-width:2.4000001;stroke-linecap:square;stroke-linejoin:bevel;stroke-miterlimit:4;stroke-dasharray:none;stroke-opacity:1"
         d="m 591.535,65.742 0,4.801" /><path
         id="path92"
         style="fill:none;stroke:#808080;stroke-width:0.80000001;stroke-linecap:square;stroke-linejoin:bevel;stroke-miterlimit:4;stroke-dasharray:none;stroke-opacity:1"
         d="m 356.332,76.945 35.203,0" /><path
         id="path94"
         style="fill:none;stroke:#808080;stroke-width:0.80000001;stroke-linecap:square;stroke-linejoin:bevel;stroke-miterlimit:4;stroke-dasharray:none;stroke-opacity:1"
         d="m 356.332,59.344 35.203,0" /><path
         id="path96"
         style="fill:none;stroke:#808080;stroke-width:0.80000001;stroke-linecap:square;stroke-linejoin:bevel;stroke-miterlimit:4;stroke-dasharray:none;stroke-opacity:1"
         d="m 356.332,76.945 0,-17.601" /><path
         id="path98"
         style="fill:none;stroke:#808080;stroke-width:0.80000001;stroke-linecap:square;stroke-linejoin:bevel;stroke-miterlimit:4;stroke-dasharray:none;stroke-opacity:1"
         d="m 391.535,76.945 0,-17.601" /><path
         id="path100"
         style="fill:none;stroke:#000080;stroke-width:1.60000002;stroke-linecap:square;stroke-linejoin:bevel;stroke-miterlimit:4;stroke-dasharray:none;stroke-opacity:1"
         d="m 349.934,68.144 8.8,0" /><path
         id="path102"
         style="fill:none;stroke:#000080;stroke-width:1.60000002;stroke-linecap:square;stroke-linejoin:bevel;stroke-miterlimit:4;stroke-dasharray:none;stroke-opacity:1"
         d="m 397.934,68.144 -8.801,0" /><path
         id="path104"
         style="fill:none;stroke:#000080;stroke-width:1.60000002;stroke-linecap:square;stroke-linejoin:bevel;stroke-miterlimit:4;stroke-dasharray:none;stroke-opacity:1"
         d="m 373.133,68.144 3.199,0" /><path
         id="path106"
         style="fill:none;stroke:#000080;stroke-width:1.60000002;stroke-linecap:square;stroke-linejoin:bevel;stroke-miterlimit:4;stroke-dasharray:none;stroke-opacity:1"
         d="m 376.332,72.144 12.801,0" /><path
         id="path108"
         style="fill:none;stroke:#000080;stroke-width:1.60000002;stroke-linecap:square;stroke-linejoin:bevel;stroke-miterlimit:4;stroke-dasharray:none;stroke-opacity:1"
         d="m 376.332,64.144 12.801,0" /><path
         id="path110"
         style="fill:none;stroke:#000080;stroke-width:1.60000002;stroke-linecap:square;stroke-linejoin:bevel;stroke-miterlimit:4;stroke-dasharray:none;stroke-opacity:1"
         d="m 376.332,72.144 0,-8" /><path
         id="path112"
         style="fill:none;stroke:#000080;stroke-width:1.60000002;stroke-linecap:square;stroke-linejoin:bevel;stroke-miterlimit:4;stroke-dasharray:none;stroke-opacity:1"
         d="m 389.133,72.144 0,-8" /><path
         id="path114"
         style="fill:none;stroke:#ff0000;stroke-width:0.80000001;stroke-linecap:square;stroke-linejoin:bevel;stroke-miterlimit:4;stroke-dasharray:none;stroke-opacity:1"
         d="m 393.934,64.144 0,-4.8" /><path
         id="path116"
         style="fill:none;stroke:#ff0000;stroke-width:0.80000001;stroke-linecap:square;stroke-linejoin:bevel;stroke-miterlimit:4;stroke-dasharray:none;stroke-opacity:1"
         d="m 396.332,61.742 -4.797,0" /><path
         id="path118"
         style="fill:none;stroke:#000000;stroke-width:0.80000001;stroke-linecap:square;stroke-linejoin:bevel;stroke-miterlimit:4;stroke-dasharray:none;stroke-opacity:1"
         d="m 353.934,64.144 0,-4.8" /><path
         id="path120"
         style="fill:none;stroke:#000080;stroke-width:1.60000002;stroke-linecap:square;stroke-linejoin:bevel;stroke-miterlimit:4;stroke-dasharray:none;stroke-opacity:1"
         d="m 373.133,68.144 c 0,3.977 -3.223,7.2 -7.199,7.2 -3.977,0 -7.2,-3.223 -7.2,-7.2 0,-3.976 3.223,-7.199 7.2,-7.199 3.976,0 7.199,3.223 7.199,7.199" /><path
         id="path122"
         style="fill:none;stroke:#000080;stroke-width:1.60000002;stroke-linecap:square;stroke-linejoin:bevel;stroke-miterlimit:4;stroke-dasharray:none;stroke-opacity:1"
         d="m 365.934,68.144 c 1.324,0 2.398,1.075 2.398,2.399 0,1.328 -1.074,2.402 -2.398,2.402" /><path
         id="path124"
         style="fill:none;stroke:#000080;stroke-width:1.60000002;stroke-linecap:square;stroke-linejoin:bevel;stroke-miterlimit:4;stroke-dasharray:none;stroke-opacity:1"
         d="m 365.934,68.144 c -1.325,0 -2.399,-1.074 -2.399,-2.402 0,-1.324 1.074,-2.398 2.399,-2.398" /><path
         id="path126"
         style="fill:#000000;fill-opacity:1;fill-rule:nonzero;stroke:none"
         d="m 359.055,47.48 c 0,1.313 -0.782,2.063 -2.157,2.063 l -2.89,0 0,-7 0.89,0 0,2.969 2.204,0 c 1.14,0 1.953,0.812 1.953,1.968 z m -0.938,0.047 c 0,-0.765 -0.5,-1.234 -1.359,-1.234 l -1.86,0 0,2.453 1.86,0 c 0.859,0 1.359,-0.453 1.359,-1.219 z" /><path
         id="path128"
         style="fill:#000000;fill-opacity:1;fill-rule:nonzero;stroke:none"
         d="m 364.441,47.355 c 0,1.141 -0.89,1.985 -2.187,1.985 -1.391,0 -2.188,-0.703 -2.234,-2.36 l 0.843,0 c 0.063,1.141 0.532,1.625 1.375,1.625 0.766,0 1.328,-0.546 1.328,-1.281 0,-0.531 -0.312,-0.984 -0.906,-1.344 l -0.89,-0.5 c -1.422,-0.796 -1.829,-1.437 -1.907,-2.937 l 4.532,0 0,0.828 -3.579,0 c 0.079,0.563 0.391,0.922 1.219,1.406 l 0.969,0.516 c 0.937,0.516 1.437,1.219 1.437,2.062 z" /><path
         id="path130"
         style="fill:#000000;fill-opacity:1;fill-rule:nonzero;stroke:none"
         d="m 359.336,28.945 0,7 -0.844,0 0,-5.719 -3.656,5.719 -0.969,0 0,-7 0.844,0 0,5.672 3.609,-5.672 1.016,0 z" /><path
         id="path132"
         style="fill:#000000;fill-opacity:1;fill-rule:nonzero;stroke:none"
         d="m 364.688,28.945 0,5.031 -0.797,0 0,-2.781 c 0,-1.015 -0.532,-1.687 -1.375,-1.687 -0.625,0 -1.032,0.375 -1.032,0.984 l 0,3.484 -0.796,0 0,-3.796 c 0,-0.844 0.624,-1.375 1.593,-1.375 0.75,0 1.219,0.25 1.688,0.921 l 0,-0.781 0.719,0 z" /><path
         id="path134"
         style="fill:#000000;fill-opacity:1;fill-rule:nonzero;stroke:none"
         d="m 372.699,28.945 0,3.766 c 0,0.906 -0.5,1.406 -1.437,1.406 -0.672,0 -1.078,-0.203 -1.547,-0.766 -0.297,0.532 -0.703,0.766 -1.36,0.766 -0.671,0 -1.109,-0.25 -1.546,-0.859 l 0,0.718 -0.719,0 0,-5.031 0.797,0 0,3.156 c 0,0.735 0.515,1.313 1.172,1.313 0.593,0 0.937,-0.359 0.937,-1 l 0,-3.469 0.797,0 0,3.156 c 0,0.735 0.531,1.313 1.187,1.313 0.579,0 0.922,-0.375 0.922,-1 l 0,-3.469 0.797,0 z" /><path
         id="path136"
         style="fill:#000000;fill-opacity:1;fill-rule:nonzero;stroke:none"
         d="m 378.352,31.883 0,0.656 -4.297,0 0,-0.656 4.297,0 z m 0,-1.735 0,0.657 -4.297,0 0,-0.657 4.297,0 z" /><path
         id="path138"
         style="fill:#000000;fill-opacity:1;fill-rule:nonzero;stroke:none"
         d="m 382.332,28.945 0,6.797 -0.562,0 c -0.297,-1.047 -0.485,-1.187 -1.782,-1.344 l 0,-0.609 1.5,0 0,-4.844 0.844,0 z" /><path
         id="path140"
         style="fill:#000000;fill-opacity:1;fill-rule:nonzero;stroke:none"
         d="m 358.727,15.344 0,0.781 -4.204,0 4.188,5.406 0,0.813 -5.047,0 0,-0.797 3.938,0 -4.204,-5.422 0,-0.781 5.329,0 z" /><path
         id="path142"
         style="fill:#000000;fill-opacity:1;fill-rule:nonzero;stroke:none"
         d="m 363.949,18.281 0,0.656 -4.297,0 0,-0.656 4.297,0 z m 0,-1.734 0,0.656 -4.297,0 0,-0.656 4.297,0 z" /><path
         id="path144"
         style="fill:#000000;fill-opacity:1;fill-rule:nonzero;stroke:none"
         d="m 369.527,17.594 c 0,1.343 -0.89,2.234 -2.203,2.234 -0.469,0 -0.859,-0.125 -1.25,-0.422 l 0.266,1.766 2.828,0 0,0.828 -3.5,0 -0.516,-3.563 0.782,0 c 0.39,0.469 0.718,0.641 1.25,0.641 0.906,0 1.484,-0.594 1.484,-1.594 0,-0.984 -0.578,-1.531 -1.484,-1.531 -0.75,0 -1.204,0.375 -1.391,1.141 l -0.859,0 c 0.281,-1.36 1.046,-1.891 2.265,-1.891 1.375,0 2.328,0.953 2.328,2.391 z" /><path
         id="path146"
         style="fill:#000000;fill-opacity:1;fill-rule:nonzero;stroke:none"
         d="m 374.801,18.609 c 0,2.36 -0.75,3.532 -2.219,3.532 -1.469,0 -2.234,-1.188 -2.234,-3.469 0,-2.297 0.781,-3.469 2.234,-3.469 1.438,0 2.219,1.172 2.219,3.406 z m -0.86,0.078 c 0,-1.921 -0.437,-2.781 -1.375,-2.781 -0.89,0 -1.343,0.891 -1.343,2.75 0,1.875 0.453,2.735 1.359,2.735 0.906,0 1.359,-0.875 1.359,-2.704 z" /><path
         id="path148"
         style="fill:#000000;fill-opacity:1;fill-rule:nonzero;stroke:none"
         d="m 385.082,18.734 c 0,2.25 -1.344,3.782 -3.391,3.782 -2,0 -3.375,-1.547 -3.375,-3.735 0,-2.187 1.375,-3.609 3.375,-3.609 2.063,0 3.391,1.5 3.391,3.562 z m -0.906,0.016 c 0,-1.688 -1,-2.797 -2.485,-2.797 -1.484,0 -2.484,1.109 -2.484,2.828 0,1.735 1,2.938 2.484,2.938 1.516,0 2.485,-1.203 2.485,-2.969 z" /><path
         id="path150"
         style="fill:#000000;fill-opacity:1;fill-rule:nonzero;stroke:none"
         d="m 390.082,15.344 0,3.797 c 0,0.843 -0.594,1.375 -1.578,1.375 -0.703,0 -1.141,-0.219 -1.609,-0.829 l 0,2.657 -0.797,0 0,-7 0.797,0 0,2.765 c 0,1.032 0.531,1.703 1.359,1.703 0.562,0 1.031,-0.328 1.031,-0.984 l 0,-3.484 0.797,0 z" /><path
         id="path152"
         style="fill:#000000;fill-opacity:1;fill-rule:nonzero;stroke:none"
         d="m 398.062,15.344 0,3.765 c 0,0.907 -0.5,1.407 -1.437,1.407 -0.672,0 -1.078,-0.204 -1.547,-0.766 -0.297,0.531 -0.703,0.766 -1.359,0.766 -0.672,0 -1.11,-0.25 -1.547,-0.86 l 0,0.719 -0.719,0 0,-5.031 0.797,0 0,3.156 c 0,0.734 0.516,1.312 1.172,1.312 0.594,0 0.937,-0.359 0.937,-1 l 0,-3.468 0.797,0 0,3.156 c 0,0.734 0.532,1.312 1.188,1.312 0.578,0 0.922,-0.375 0.922,-1 l 0,-3.468 0.796,0 z" /><path
         id="path154"
         style="fill:none;stroke:#000080;stroke-width:1.60000002;stroke-linecap:square;stroke-linejoin:bevel;stroke-miterlimit:4;stroke-dasharray:none;stroke-opacity:1"
         d="m 349.934,68.144 -8,0" /><path
         id="path156"
         style="fill:none;stroke:#000080;stroke-width:2.4000001;stroke-linecap:square;stroke-linejoin:bevel;stroke-miterlimit:4;stroke-dasharray:none;stroke-opacity:1"
         d="m 341.934,76.945 0,-17.601" /><path
         id="path158"
         style="fill:none;stroke:#000080;stroke-width:2.4000001;stroke-linecap:square;stroke-linejoin:bevel;stroke-miterlimit:4;stroke-dasharray:none;stroke-opacity:1"
         d="m 337.133,73.742 0,-11.199" /><path
         id="path160"
         style="fill:none;stroke:#000080;stroke-width:2.4000001;stroke-linecap:square;stroke-linejoin:bevel;stroke-miterlimit:4;stroke-dasharray:none;stroke-opacity:1"
         d="m 332.332,70.543 0,-4.801" /><path
         id="path162"
         style="fill:none;stroke:#000080;stroke-width:1.60000002;stroke-linecap:square;stroke-linejoin:bevel;stroke-miterlimit:4;stroke-dasharray:none;stroke-opacity:1"
         d="m 449.934,80.144 24,0" /><path
         id="path164"
         style="fill:none;stroke:#000080;stroke-width:1.60000002;stroke-linecap:square;stroke-linejoin:bevel;stroke-miterlimit:4;stroke-dasharray:none;stroke-opacity:1"
         d="m 473.934,80.144 0,-24" /><path
         id="path166"
         style="fill:none;stroke:#000080;stroke-width:1.60000002;stroke-linecap:square;stroke-linejoin:bevel;stroke-miterlimit:4;stroke-dasharray:none;stroke-opacity:1"
         d="m 449.934,56.144 24,0" /><path
         id="path168"
         style="fill:none;stroke:#000080;stroke-width:1.60000002;stroke-linecap:square;stroke-linejoin:bevel;stroke-miterlimit:4;stroke-dasharray:none;stroke-opacity:1"
         d="m 449.934,80.144 0,-24" /><path
         id="path170"
         style="fill:none;stroke:#000080;stroke-width:1.60000002;stroke-linecap:square;stroke-linejoin:bevel;stroke-miterlimit:4;stroke-dasharray:none;stroke-opacity:1"
         d="m 437.934,68.144 12,0" /><path
         id="path172"
         style="fill:none;stroke:#000080;stroke-width:1.60000002;stroke-linecap:square;stroke-linejoin:bevel;stroke-miterlimit:4;stroke-dasharray:none;stroke-opacity:1"
         d="m 473.934,68.144 12,0" /><path
         id="path174"
         style="fill:none;stroke:#000080;stroke-width:1.60000002;stroke-linecap:square;stroke-linejoin:bevel;stroke-miterlimit:4;stroke-dasharray:none;stroke-opacity:1"
         d="m 461.934,56.144 0,-12" /><path
         id="path176"
         style="fill:#000000;fill-opacity:1;fill-rule:nonzero;stroke:none"
         d="m 449.594,69.383 0,0.547 -0.688,0 0,0.656 c 0,0.281 0.156,0.422 0.453,0.422 0.063,0 0.079,0 0.235,0 l 0,0.547 c -0.156,0.031 -0.235,0.046 -0.375,0.046 -0.61,0 -0.985,-0.359 -0.985,-0.953 l 0,-0.718 -0.562,0 0,-0.547 0.562,0 0,-3.641 0.672,0 0,3.641 0.688,0 z m 1.375,-3.641 0,4.188 -0.672,0 0,-4.188 0.672,0 z m 0.078,4.828 0,0.828 -0.828,0 0,-0.828 0.828,0 z" /><path
         id="path178"
         style="fill:#000000;fill-opacity:1;fill-rule:nonzero;stroke:none"
         d="m 455.344,67.18 -0.672,0 c -0.11,-0.672 -0.453,-0.938 -1.016,-0.938 -0.734,0 -1.187,0.563 -1.187,1.563 0,1.046 0.437,1.64 1.172,1.64 0.547,0 0.906,-0.328 0.984,-0.922 l 0.672,0 c -0.078,1.032 -0.719,1.532 -1.656,1.532 -1.125,0 -1.86,-0.86 -1.86,-2.25 0,-1.36 0.719,-2.188 1.86,-2.188 1,0 1.625,0.609 1.703,1.563 z" /><path
         id="path180"
         style="fill:#000000;fill-opacity:1;fill-rule:nonzero;stroke:none"
         d="m 459.422,65.742 0,3.172 c 0,0.703 -0.5,1.141 -1.328,1.141 -0.594,0 -0.953,-0.188 -1.344,-0.704 l 0,2.219 -0.656,0 0,-5.828 0.656,0 0,2.313 c 0,0.859 0.453,1.421 1.141,1.421 0.468,0 0.859,-0.281 0.859,-0.828 l 0,-2.906 0.672,0 z" /><path
         id="path182"
         style="fill:#000000;fill-opacity:1;fill-rule:nonzero;stroke:none"
         d="m 461.199,65.742 0,4.188 -0.656,0 0,-4.188 0.656,0 z m 0.094,4.828 0,0.828 -0.828,0 0,-0.828 0.828,0 z" /><path
         id="path184"
         style="fill:#000000;fill-opacity:1;fill-rule:nonzero;stroke:none"
         d="m 465.867,67.648 c 0,0.61 -0.047,0.985 -0.172,1.297 -0.281,0.688 -0.906,1.11 -1.703,1.11 -1.156,0 -1.922,-0.86 -1.922,-2.235 0,-1.375 0.735,-2.203 1.907,-2.203 0.968,0 1.625,0.547 1.796,1.391 l -0.671,0 c -0.188,-0.547 -0.563,-0.766 -1.094,-0.766 -0.703,0 -1.219,0.438 -1.235,1.406 l 3.094,0 z m -0.719,0.594 c 0,0 0,-0.031 0,-0.047 l -2.359,0 c 0.063,0.735 0.531,1.25 1.203,1.25 0.656,0 1.156,-0.547 1.156,-1.203 z" /><path
         id="path186"
         style="fill:#000000;fill-opacity:1;fill-rule:nonzero;stroke:none"
         d="m 468.766,69.351 0,0.672 c -0.11,0.016 -0.157,0.032 -0.25,0.032 -0.438,0 -0.766,-0.25 -1.141,-0.875 l 0,0.75 -0.609,0 0,-4.188 0.656,0 0,2.172 c 0,0.953 0.312,1.422 1.344,1.437 z" /><path
         id="path188"
         style="fill:#000000;fill-opacity:1;fill-rule:nonzero;stroke:none"
         d="m 439.113,75.344 0,5.672 -0.468,0 c -0.25,-0.875 -0.407,-0.985 -1.5,-1.125 l 0,-0.5 1.265,0 0,-4.047 0.703,0 z" /><path
         id="path190"
         style="fill:#000000;fill-opacity:1;fill-rule:nonzero;stroke:none"
         d="m 486.027,79.359 c 0,0.953 -0.75,1.657 -1.828,1.657 -1.156,0 -1.828,-0.594 -1.859,-1.969 l 0.703,0 c 0.047,0.953 0.437,1.359 1.141,1.359 0.64,0 1.125,-0.469 1.125,-1.078 0,-0.437 -0.266,-0.828 -0.782,-1.109 l -0.734,-0.422 c -1.172,-0.672 -1.516,-1.203 -1.594,-2.453 l 3.781,0 0,0.703 -2.984,0 c 0.078,0.453 0.328,0.75 1.031,1.156 l 0.797,0.438 c 0.797,0.421 1.203,1.015 1.203,1.718 z" /><path
         id="path192"
         style="fill:#000000;fill-opacity:1;fill-rule:nonzero;stroke:none"
         d="m 470.57,46.543 0,0.187 c -0.281,0.188 -0.343,0.391 -0.359,1.172 -0.016,0.953 -0.156,1.25 -0.797,1.516 0.656,0.328 0.922,0.734 0.922,1.391 0,1.015 -0.625,1.562 -1.766,1.562 l -2.687,0 0,-5.828 0.734,0 0,2.516 1.922,0 c 0.656,0 0.969,-0.329 0.969,-1.047 l -0.016,-0.516 c 0,-0.359 0.063,-0.719 0.172,-0.953 l 0.906,0 z m -1,4.172 c 0,-0.688 -0.359,-1 -1.156,-1 l -1.797,0 0,2 1.797,0 c 0.844,0 1.156,-0.344 1.156,-1 z" /><path
         id="path194"
         style="fill:#000000;fill-opacity:1;fill-rule:nonzero;stroke:none"
         d="m 474.945,48.449 c 0,0.61 -0.047,0.985 -0.172,1.297 -0.281,0.688 -0.906,1.109 -1.703,1.109 -1.156,0 -1.922,-0.859 -1.922,-2.234 0,-1.375 0.735,-2.203 1.907,-2.203 0.968,0 1.625,0.547 1.797,1.391 l -0.672,0 c -0.188,-0.547 -0.563,-0.766 -1.094,-0.766 -0.703,0 -1.219,0.437 -1.234,1.406 l 3.093,0 z m -0.718,0.594 c 0,0 0,-0.031 0,-0.047 l -2.36,0 c 0.063,0.734 0.531,1.25 1.203,1.25 0.657,0 1.157,-0.547 1.157,-1.203 z" /><path
         id="path196"
         style="fill:#000000;fill-opacity:1;fill-rule:nonzero;stroke:none"
         d="m 477.348,50.184 0,0.546 -0.688,0 0,0.657 c 0,0.281 0.156,0.422 0.453,0.422 0.063,0 0.078,0 0.235,0 l 0,0.546 c -0.157,0.032 -0.235,0.047 -0.375,0.047 -0.61,0 -0.985,-0.359 -0.985,-0.953 l 0,-0.719 -0.562,0 0,-0.546 0.562,0 0,-3.641 0.672,0 0,3.641 0.688,0 z" /><path
         id="path198"
         style="fill:#000000;fill-opacity:1;fill-rule:nonzero;stroke:none"
         d="m 447.352,110.543 -2.469,3.594 2.359,3.406 -1.062,0 -1.797,-2.75 -1.797,2.75 -1.094,0 2.328,-3.406 -2.468,-3.594 1.078,0 1.922,2.922 1.906,-2.922 1.094,0 z" /><path
         id="path200"
         style="fill:#000000;fill-opacity:1;fill-rule:nonzero;stroke:none"
         d="m 450.863,110.543 0,6.797 -0.562,0 c -0.297,-1.047 -0.485,-1.188 -1.781,-1.344 l 0,-0.609 1.5,0 0,-4.844 0.843,0 z" /><path
         id="path202"
         style="fill:#000000;fill-opacity:1;fill-rule:nonzero;stroke:none"
         d="m 446.695,103.148 0,0.797 -4.703,0 0,-7 0.891,0 0,3.188 3.344,0 0,0.781 -3.344,0 0,2.234 3.812,0 z" /><path
         id="path204"
         style="fill:#000000;fill-opacity:1;fill-rule:nonzero;stroke:none"
         d="m 448.465,96.945 0,5.031 -0.797,0 0,-5.031 0.797,0 z m 0.109,5.781 0,1 -1,0 0,-1 1,0 z" /><path
         id="path206"
         style="fill:#000000;fill-opacity:1;fill-rule:nonzero;stroke:none"
         d="m 449.785,103.945 0.797,0 0,-7 -0.797,0 0,7 z" /><path
         id="path208"
         style="fill:#000000;fill-opacity:1;fill-rule:nonzero;stroke:none"
         d="m 456.184,99.226 c 0,0.735 -0.063,1.188 -0.204,1.563 -0.328,0.828 -1.093,1.328 -2.031,1.328 -1.406,0 -2.297,-1.031 -2.297,-2.687 0,-1.657 0.86,-2.625 2.282,-2.625 1.14,0 1.937,0.656 2.14,1.671 l -0.797,0 c -0.218,-0.671 -0.672,-0.937 -1.312,-0.937 -0.844,0 -1.469,0.531 -1.485,1.687 l 3.704,0 z m -0.86,0.719 c 0,0 0,-0.047 0,-0.062 l -2.828,0 c 0.078,0.89 0.641,1.5 1.438,1.5 0.796,0 1.39,-0.657 1.39,-1.438 z" /><path
         id="path210"
         style="fill:#000000;fill-opacity:1;fill-rule:nonzero;stroke:none"
         d="m 461.551,99.883 0,0.656 -4.297,0 0,-0.656 4.297,0 z m 0,-1.735 0,0.657 -4.297,0 0,-0.657 4.297,0 z" /><path
         id="path212"
         style="fill:#000000;fill-opacity:1;fill-rule:nonzero;stroke:none"
         d="m 467.891,103.148 0,0.797 -5.485,0 0,-0.797 2.297,0 0,-6.203 0.891,0 0,6.203 2.297,0 z" /><path
         id="path214"
         style="fill:#000000;fill-opacity:1;fill-rule:nonzero;stroke:none"
         d="m 474.02,101.883 c 0,1.312 -0.782,2.062 -2.157,2.062 l -2.89,0 0,-7 0.89,0 0,2.969 2.203,0 c 1.141,0 1.954,0.812 1.954,1.969 z m -0.938,0.047 c 0,-0.766 -0.5,-1.235 -1.359,-1.235 l -1.86,0 0,2.453 1.86,0 c 0.859,0 1.359,-0.453 1.359,-1.218 z" /><path
         id="path216"
         style="fill:#000000;fill-opacity:1;fill-rule:nonzero;stroke:none"
         d="m 479.41,101.758 c 0,1.14 -0.89,1.984 -2.187,1.984 -1.391,0 -2.188,-0.703 -2.235,-2.359 l 0.844,0 c 0.063,1.14 0.531,1.625 1.375,1.625 0.766,0 1.328,-0.547 1.328,-1.282 0,-0.531 -0.312,-0.984 -0.906,-1.343 l -0.891,-0.5 c -1.422,-0.797 -1.828,-1.438 -1.906,-2.938 l 4.531,0 0,0.828 -3.578,0 c 0.078,0.563 0.391,0.922 1.219,1.407 l 0.969,0.515 c 0.937,0.516 1.437,1.219 1.437,2.063 z" /><path
         id="path218"
         style="fill:#000000;fill-opacity:1;fill-rule:nonzero;stroke:none"
         d="m 479.621,95.726 5.766,0 0,-0.484 -5.766,0 0,0.484 z" /><path
         id="path220"
         style="fill:#000000;fill-opacity:1;fill-rule:nonzero;stroke:none"
         d="m 491.129,98.867 c 0,0.859 -0.531,1.5 -1.484,1.75 l -1.75,0.469 c -0.844,0.219 -1.157,0.5 -1.157,1.047 0,0.703 0.625,1.234 1.563,1.234 1.109,0 1.75,-0.516 1.75,-1.422 l 0.844,0 c 0,1.375 -0.954,2.172 -2.563,2.172 -1.531,0 -2.484,-0.844 -2.484,-2.109 0,-0.86 0.453,-1.391 1.375,-1.641 l 1.734,-0.453 c 0.875,-0.234 1.281,-0.594 1.281,-1.141 0,-0.765 -0.578,-1.218 -1.781,-1.218 -1.328,0 -1.969,0.671 -1.969,1.671 l -0.859,0 c 0,-1.656 1.125,-2.453 2.766,-2.453 1.781,0 2.734,0.844 2.734,2.094 z" /><path
         id="path222"
         style="fill:#000000;fill-opacity:1;fill-rule:nonzero;stroke:none"
         d="m 493.988,96.945 0,0.672 c -0.109,-0.031 -0.234,-0.031 -0.39,-0.031 -0.344,0 -0.438,0.094 -0.438,0.437 l 0,3.297 0.828,0 0,0.656 -0.828,0 0,1.375 -0.797,0 0,-1.375 -0.672,0 0,-0.656 0.672,0 0,-3.64 c 0,-0.516 0.344,-0.797 0.969,-0.797 0.188,0 0.391,0.015 0.656,0.062 z" /><path
         id="path224"
         style="fill:#000000;fill-opacity:1;fill-rule:nonzero;stroke:none"
         d="m 498.844,96.945 0,5.031 -0.797,0 0,-2.781 c 0,-1.015 -0.531,-1.687 -1.375,-1.687 -0.625,0 -1.031,0.375 -1.031,0.984 l 0,3.484 -0.797,0 0,-3.796 c 0,-0.844 0.625,-1.375 1.594,-1.375 0.75,0 1.218,0.25 1.687,0.921 l 0,-0.781 0.719,0 z" /><path
         id="path226"
         style="fill:#000000;fill-opacity:1;fill-rule:nonzero;stroke:none"
         d="m 504.574,99.523 c 0,1.625 -0.828,2.594 -2.14,2.594 -0.704,0 -1.188,-0.266 -1.563,-0.828 l 0,2.656 -0.797,0 0,-7 0.719,0 0,0.719 c 0.391,-0.578 0.891,-0.859 1.594,-0.859 1.328,0 2.187,1.078 2.187,2.718 z m -0.828,-0.062 c 0,-1.141 -0.594,-1.906 -1.469,-1.906 -0.843,0 -1.406,0.765 -1.406,1.906 0,1.172 0.563,1.953 1.406,1.906 0.891,0 1.469,-0.781 1.469,-1.906 z" /><path
         id="path228"
         style="fill:#000000;fill-opacity:1;fill-rule:nonzero;stroke:none"
         d="m 505.723,97.945 1,0 0,-1 -1,0 0,1 z" /><path
         id="path230"
         style="fill:#000000;fill-opacity:1;fill-rule:nonzero;stroke:none"
         d="m 511.969,98.351 c 0,0.75 -0.422,1.125 -1.422,1.36 l -0.766,0.187 c -0.656,0.157 -0.937,0.36 -0.937,0.719 0,0.469 0.422,0.766 1.062,0.766 0.656,0 1,-0.282 1.016,-0.813 l 0.844,0 c -0.016,0.985 -0.657,1.547 -1.828,1.547 -1.172,0 -1.922,-0.609 -1.922,-1.531 0,-0.797 0.406,-1.172 1.593,-1.453 l 0.75,-0.188 c 0.547,-0.125 0.766,-0.297 0.766,-0.656 0,-0.469 -0.469,-0.75 -1.172,-0.75 -0.719,0 -1.109,0.172 -1.219,0.937 l -0.843,0 c 0.031,-1.156 0.687,-1.671 2,-1.671 1.265,0 2.078,0.578 2.078,1.546 z" /><path
         id="path232"
         style="fill:#000000;fill-opacity:1;fill-rule:nonzero;stroke:none"
         d="m 517.27,101.758 c 0,1.14 -0.891,1.984 -2.188,1.984 -1.391,0 -2.187,-0.703 -2.234,-2.359 l 0.843,0 c 0.063,1.14 0.532,1.625 1.375,1.625 0.766,0 1.329,-0.547 1.329,-1.282 0,-0.531 -0.313,-0.984 -0.907,-1.343 l -0.89,-0.5 c -1.422,-0.797 -1.828,-1.438 -1.907,-2.938 l 4.532,0 0,0.828 -3.578,0 c 0.078,0.563 0.39,0.922 1.218,1.407 l 0.969,0.515 c 0.938,0.516 1.438,1.219 1.438,2.063 z" /><path
         id="path234"
         style="fill:#000000;fill-opacity:1;fill-rule:nonzero;stroke:none"
         d="m 522.719,99.414 c 0,1.687 -0.828,2.703 -2.157,2.703 -0.687,0 -1.234,-0.312 -1.609,-0.906 l 0,0.765 -0.719,0 0,-7.125 0.797,0 0,2.704 c 0.422,-0.516 0.891,-0.75 1.547,-0.75 1.281,0 2.141,1 2.141,2.609 z m -0.828,0.016 c 0,-1.141 -0.594,-1.875 -1.469,-1.875 -0.844,0 -1.391,0.687 -1.391,1.859 0,1.187 0.547,1.953 1.391,1.953 0.89,0 1.469,-0.734 1.469,-1.937 z" /><path
         id="path236"
         style="fill:none;stroke:#000080;stroke-width:1.60000002;stroke-linecap:square;stroke-linejoin:bevel;stroke-miterlimit:4;stroke-dasharray:none;stroke-opacity:1"
         d="m 188.332,109.742 0,-19.199" /><path
         id="path238"
         style="fill:none;stroke:#000080;stroke-width:1.60000002;stroke-linecap:square;stroke-linejoin:bevel;stroke-miterlimit:4;stroke-dasharray:none;stroke-opacity:1"
         d="m 188.332,90.543 53.602,0" /><path
         id="path240"
         style="fill:#000000;fill-opacity:1;fill-rule:nonzero;stroke:none"
         d="m 197.406,100.945 0,0.781 -4.125,0 0,2.407 3.813,0 0,0.781 -3.813,0 0,2.234 3.953,0 0,0.797 -4.843,0 0,-7 5.015,0 z m -0.515,8.781 -1.313,0 -1.109,-1.265 0.703,0 1.719,1.265 z" /><path
         id="path242"
         style="fill:#000000;fill-opacity:1;fill-rule:nonzero;stroke:none"
         d="m 202.688,98.851 0,7.125 -0.719,0 0,-0.671 c -0.36,0.531 -0.938,0.812 -1.594,0.812 -1.328,0 -2.187,-1.047 -2.187,-2.719 0,-1.625 0.828,-2.593 2.14,-2.593 0.703,0 1.188,0.25 1.563,0.796 l 0,-2.75 0.797,0 z m -0.797,4.579 c 0,-1.157 -0.563,-1.875 -1.407,-1.875 -0.875,0 -1.468,0.734 -1.468,1.906 0,1.156 0.593,1.906 1.468,1.906 0.86,0 1.407,-0.766 1.407,-1.937 z" /><path
         id="path244"
         style="fill:#000000;fill-opacity:1;fill-rule:nonzero;stroke:none"
         d="m 207.977,100.945 0,5.031 -0.797,0 0,-2.781 c 0,-1.015 -0.532,-1.687 -1.375,-1.687 -0.625,0 -1.032,0.375 -1.032,0.984 l 0,3.484 -0.796,0 0,-3.796 c 0,-0.844 0.625,-1.375 1.593,-1.375 0.75,0 1.219,0.25 1.688,0.921 l 0,-0.781 0.719,0 z" /><path
         id="path246"
         style="fill:#000000;fill-opacity:1;fill-rule:nonzero;stroke:none"
         d="m 213.812,100.961 0,0.609 c -0.078,-0.015 -0.109,-0.015 -0.171,-0.015 -0.266,0 -0.422,0.14 -0.422,0.39 l 0,2.797 c 0,0.891 -0.657,1.375 -1.891,1.375 -1.219,0 -1.969,-0.469 -2.016,-1.625 l 0.797,0 c 0.079,0.609 0.438,0.891 1.188,0.891 0.719,0 1.125,-0.282 1.125,-0.75 l 0,-0.219 c 0,-0.328 -0.203,-0.469 -0.844,-0.547 -1.125,-0.156 -1.297,-0.187 -1.609,-0.312 -0.578,-0.235 -0.875,-0.688 -0.875,-1.297 0,-0.922 0.625,-1.453 1.64,-1.453 0.657,0 1.266,0.265 1.719,0.734 0.078,-0.375 0.422,-0.656 0.813,-0.656 0.172,0 0.296,0.015 0.546,0.078 z m -1.39,1.719 c 0,-0.719 -0.734,-1.172 -1.516,-1.172 -0.609,0 -0.984,0.218 -0.984,0.765 0,0.532 0.359,0.75 1.219,0.875 0.843,0.125 1.015,0.157 1.281,0.282 l 0,-0.75 z" /><path
         id="path248"
         style="fill:#000000;fill-opacity:1;fill-rule:nonzero;stroke:none"
         d="m 216.461,100.945 0,0.672 c -0.109,-0.031 -0.234,-0.031 -0.391,-0.031 -0.343,0 -0.437,0.094 -0.437,0.437 l 0,3.297 0.828,0 0,0.656 -0.828,0 0,1.375 -0.797,0 0,-1.375 -0.672,0 0,-0.656 0.672,0 0,-3.64 c 0,-0.516 0.344,-0.797 0.969,-0.797 0.187,0 0.39,0.015 0.656,0.062 z" /><path
         id="path250"
         style="fill:#000000;fill-opacity:1;fill-rule:nonzero;stroke:none"
         d="m 218.164,100.945 0,5.031 -0.797,0 0,-5.031 0.797,0 z m 0.109,5.781 0,1 -1,0 0,-1 1,0 z" /><path
         id="path252"
         style="fill:#000000;fill-opacity:1;fill-rule:nonzero;stroke:none"
         d="m 223.715,103.414 c 0,1.75 -0.828,2.703 -2.281,2.703 -1.407,0 -2.266,-0.969 -2.266,-2.656 0,-1.688 0.844,-2.656 2.281,-2.656 1.406,0 2.266,0.968 2.266,2.609 z m -0.828,0.016 c 0,-1.172 -0.563,-1.891 -1.438,-1.891 -0.89,0 -1.437,0.703 -1.437,1.922 0,1.203 0.547,1.922 1.437,1.922 0.891,0 1.438,-0.703 1.438,-1.953 z" /><path
         id="path254"
         style="fill:#000000;fill-opacity:1;fill-rule:nonzero;stroke:none"
         d="m 228.836,100.945 0,3.797 c 0,0.844 -0.625,1.375 -1.594,1.375 -0.75,0 -1.219,-0.281 -1.672,-0.984 l 0,0.843 -0.734,0 0,-5.031 0.797,0 0,2.766 c 0,1.031 0.562,1.703 1.375,1.703 0.625,0 1.031,-0.375 1.031,-0.984 l 0,-3.485 0.797,0 z" /><path
         id="path256"
         style="fill:#000000;fill-opacity:1;fill-rule:nonzero;stroke:none"
         d="m 195.008,73.742 0,0.781 -4.125,0 0,2.407 3.812,0 0,0.781 -3.812,0 0,2.234 3.953,0 0,0.797 -4.844,0 0,-7 5.016,0 z" /><path
         id="path258"
         style="fill:#000000;fill-opacity:1;fill-rule:nonzero;stroke:none"
         d="m 200.285,71.648 0,7.125 -0.719,0 0,-0.672 c -0.359,0.532 -0.937,0.813 -1.593,0.813 -1.328,0 -2.188,-1.047 -2.188,-2.719 0,-1.625 0.828,-2.594 2.141,-2.594 0.703,0 1.187,0.25 1.562,0.797 l 0,-2.75 0.797,0 z m -0.797,4.578 c 0,-1.156 -0.562,-1.875 -1.406,-1.875 -0.875,0 -1.469,0.735 -1.469,1.907 0,1.156 0.594,1.906 1.469,1.906 0.859,0 1.406,-0.766 1.406,-1.938 z" /><path
         id="path260"
         style="fill:#000000;fill-opacity:1;fill-rule:nonzero;stroke:none"
         d="m 205.547,73.742 0,3.797 c 0,0.844 -0.625,1.375 -1.594,1.375 -0.75,0 -1.219,-0.281 -1.672,-0.984 l 0,0.843 -0.734,0 0,-5.031 0.797,0 0,2.766 c 0,1.031 0.562,1.703 1.375,1.703 0.625,0 1.031,-0.375 1.031,-0.985 l 0,-3.484 0.797,0 z" /><path
         id="path262"
         style="fill:#000000;fill-opacity:1;fill-rule:nonzero;stroke:none"
         d="m 209.539,73.742 0,6.797 -0.562,0 c -0.297,-1.047 -0.485,-1.188 -1.782,-1.344 l 0,-0.609 1.5,0 0,-4.844 0.844,0 z" /><path
         id="path264"
         style="fill:#000000;fill-opacity:1;fill-rule:nonzero;stroke:none"
         d="m 195.086,62.066 c 0,0.86 -0.531,1.5 -1.484,1.75 l -1.75,0.469 c -0.844,0.219 -1.157,0.5 -1.157,1.047 0,0.703 0.625,1.234 1.563,1.234 1.109,0 1.75,-0.515 1.75,-1.422 l 0.844,0 c 0,1.375 -0.954,2.172 -2.563,2.172 -1.531,0 -2.484,-0.843 -2.484,-2.109 0,-0.859 0.453,-1.391 1.375,-1.641 l 1.734,-0.453 c 0.875,-0.234 1.281,-0.594 1.281,-1.14 0,-0.766 -0.578,-1.219 -1.781,-1.219 -1.328,0 -1.969,0.672 -1.969,1.672 l -0.859,0 c 0,-1.657 1.125,-2.453 2.766,-2.453 1.781,0 2.734,0.843 2.734,2.093 z" /><path
         id="path266"
         style="fill:#000000;fill-opacity:1;fill-rule:nonzero;stroke:none"
         d="m 198.863,60.144 0,6.797 -0.562,0 c -0.297,-1.047 -0.485,-1.187 -1.781,-1.343 l 0,-0.61 1.5,0 0,-4.844 0.843,0 z" /><path
         id="path268"
         style="fill:#000000;fill-opacity:1;fill-rule:nonzero;stroke:none"
         d="m 204.203,60.144 0,6.797 -0.562,0 c -0.297,-1.047 -0.485,-1.187 -1.782,-1.343 l 0,-0.61 1.5,0 0,-4.844 0.844,0 z" /><path
         id="path270"
         style="fill:#000000;fill-opacity:1;fill-rule:nonzero;stroke:none"
         d="m 211.164,63.082 0,0.656 -4.297,0 0,-0.656 4.297,0 z m 0,-1.734 0,0.656 -4.297,0 0,-0.656 4.297,0 z" /><path
         id="path272"
         style="fill:#000000;fill-opacity:1;fill-rule:nonzero;stroke:none"
         d="m 217.77,62.066 c 0,0.86 -0.532,1.5 -1.485,1.75 l -1.75,0.469 c -0.844,0.219 -1.156,0.5 -1.156,1.047 0,0.703 0.625,1.234 1.562,1.234 1.11,0 1.75,-0.515 1.75,-1.422 l 0.844,0 c 0,1.375 -0.953,2.172 -2.562,2.172 -1.532,0 -2.485,-0.843 -2.485,-2.109 0,-0.859 0.453,-1.391 1.375,-1.641 l 1.735,-0.453 c 0.875,-0.234 1.281,-0.594 1.281,-1.14 0,-0.766 -0.578,-1.219 -1.781,-1.219 -1.328,0 -1.969,0.672 -1.969,1.672 l -0.859,0 c 0,-1.657 1.125,-2.453 2.765,-2.453 1.781,0 2.735,0.843 2.735,2.093 z" /><path
         id="path274"
         style="fill:#000000;fill-opacity:1;fill-rule:nonzero;stroke:none"
         d="m 220.641,58.113 0,0.688 -0.985,0 0,7.64 0.985,0 0,0.703 -1.782,0 0,-9.031 1.782,0 z" /><path
         id="path276"
         style="fill:#000000;fill-opacity:1;fill-rule:nonzero;stroke:none"
         d="m 224.246,60.144 0,6.797 -0.562,0 c -0.297,-1.047 -0.485,-1.187 -1.782,-1.343 l 0,-0.61 1.5,0 0,-4.844 0.844,0 z" /><path
         id="path278"
         style="fill:#000000;fill-opacity:1;fill-rule:nonzero;stroke:none"
         d="m 228.098,59.988 0,1.156 -1.016,0 0,-1 0.578,0 0,-0.171 c 0,-0.657 -0.125,-0.86 -0.578,-0.875 l 0,-0.36 c 0.672,0 1.016,0.422 1.016,1.25 z" /><path
         id="path280"
         style="fill:#000000;fill-opacity:1;fill-rule:nonzero;stroke:none"
         d="m 232.254,60.144 0,6.797 -0.563,0 c -0.296,-1.047 -0.484,-1.187 -1.781,-1.343 l 0,-0.61 1.5,0 0,-4.844 0.844,0 z" /><path
         id="path282"
         style="fill:#000000;fill-opacity:1;fill-rule:nonzero;stroke:none"
         d="m 236.262,58.113 0,9.031 -1.782,0 0,-0.703 0.985,0 0,-7.64 -0.985,0 0,-0.688 1.782,0 z" /><path
         id="path284"
         style="fill:#000000;fill-opacity:1;fill-rule:nonzero;stroke:none"
         d="m 195.086,48.465 c 0,0.859 -0.531,1.5 -1.484,1.75 l -1.75,0.469 c -0.844,0.218 -1.157,0.5 -1.157,1.046 0,0.704 0.625,1.235 1.563,1.235 1.109,0 1.75,-0.516 1.75,-1.422 l 0.844,0 c 0,1.375 -0.954,2.172 -2.563,2.172 -1.531,0 -2.484,-0.844 -2.484,-2.11 0,-0.859 0.453,-1.39 1.375,-1.64 l 1.734,-0.453 c 0.875,-0.235 1.281,-0.594 1.281,-1.141 0,-0.766 -0.578,-1.219 -1.781,-1.219 -1.328,0 -1.969,0.672 -1.969,1.672 l -0.859,0 c 0,-1.656 1.125,-2.453 2.766,-2.453 1.781,0 2.734,0.844 2.734,2.094 z" /><path
         id="path286"
         style="fill:#000000;fill-opacity:1;fill-rule:nonzero;stroke:none"
         d="m 200.441,51.355 c 0,1.141 -0.89,1.985 -2.187,1.985 -1.391,0 -2.188,-0.703 -2.234,-2.36 l 0.843,0 c 0.063,1.141 0.532,1.625 1.375,1.625 0.766,0 1.328,-0.546 1.328,-1.281 0,-0.531 -0.312,-0.984 -0.906,-1.344 l -0.89,-0.5 c -1.422,-0.796 -1.829,-1.437 -1.907,-2.937 l 4.532,0 0,0.828 -3.579,0 c 0.079,0.563 0.391,0.922 1.219,1.406 l 0.969,0.516 c 0.937,0.516 1.437,1.219 1.437,2.062 z" /><path
         id="path288"
         style="fill:#000000;fill-opacity:1;fill-rule:nonzero;stroke:none"
         d="m 204.203,46.543 0,6.797 -0.562,0 c -0.297,-1.047 -0.485,-1.188 -1.782,-1.344 l 0,-0.609 1.5,0 0,-4.844 0.844,0 z" /><path
         id="path290"
         style="fill:#000000;fill-opacity:1;fill-rule:nonzero;stroke:none"
         d="m 211.164,49.48 0,0.657 -4.297,0 0,-0.657 4.297,0 z m 0,-1.734 0,0.656 -4.297,0 0,-0.656 4.297,0 z" /><path
         id="path292"
         style="fill:#000000;fill-opacity:1;fill-rule:nonzero;stroke:none"
         d="m 217.77,48.465 c 0,0.859 -0.532,1.5 -1.485,1.75 l -1.75,0.469 c -0.844,0.218 -1.156,0.5 -1.156,1.046 0,0.704 0.625,1.235 1.562,1.235 1.11,0 1.75,-0.516 1.75,-1.422 l 0.844,0 c 0,1.375 -0.953,2.172 -2.562,2.172 -1.532,0 -2.485,-0.844 -2.485,-2.11 0,-0.859 0.453,-1.39 1.375,-1.64 l 1.735,-0.453 c 0.875,-0.235 1.281,-0.594 1.281,-1.141 0,-0.766 -0.578,-1.219 -1.781,-1.219 -1.328,0 -1.969,0.672 -1.969,1.672 l -0.859,0 c 0,-1.656 1.125,-2.453 2.765,-2.453 1.781,0 2.735,0.844 2.735,2.094 z" /><path
         id="path294"
         style="fill:#000000;fill-opacity:1;fill-rule:nonzero;stroke:none"
         d="m 220.641,44.512 0,0.687 -0.985,0 0,7.641 0.985,0 0,0.703 -1.782,0 0,-9.031 1.782,0 z" /><path
         id="path296"
         style="fill:#000000;fill-opacity:1;fill-rule:nonzero;stroke:none"
         d="m 225.824,51.355 c 0,1.141 -0.89,1.985 -2.187,1.985 -1.391,0 -2.188,-0.703 -2.235,-2.36 l 0.844,0 c 0.063,1.141 0.531,1.625 1.375,1.625 0.766,0 1.328,-0.546 1.328,-1.281 0,-0.531 -0.312,-0.984 -0.906,-1.344 l -0.891,-0.5 c -1.422,-0.796 -1.828,-1.437 -1.906,-2.937 l 4.531,0 0,0.828 -3.578,0 c 0.078,0.563 0.391,0.922 1.219,1.406 l 0.969,0.516 c 0.937,0.516 1.437,1.219 1.437,2.062 z" /><path
         id="path298"
         style="fill:#000000;fill-opacity:1;fill-rule:nonzero;stroke:none"
         d="m 228.098,46.387 0,1.156 -1.016,0 0,-1 0.578,0 0,-0.172 c 0,-0.656 -0.125,-0.859 -0.578,-0.875 l 0,-0.359 c 0.672,0 1.016,0.422 1.016,1.25 z" /><path
         id="path300"
         style="fill:#000000;fill-opacity:1;fill-rule:nonzero;stroke:none"
         d="m 232.254,46.543 0,6.797 -0.563,0 c -0.296,-1.047 -0.484,-1.188 -1.781,-1.344 l 0,-0.609 1.5,0 0,-4.844 0.844,0 z" /><path
         id="path302"
         style="fill:#000000;fill-opacity:1;fill-rule:nonzero;stroke:none"
         d="m 236.262,44.512 0,9.031 -1.782,0 0,-0.703 0.985,0 0,-7.641 -0.985,0 0,-0.687 1.782,0 z" /><path
         id="path304"
         style="fill:#000000;fill-opacity:1;fill-rule:nonzero;stroke:none"
         d="m 193.883,32.945 0,7 -0.797,0 0,-2.609 c -0.344,0.515 -0.875,0.781 -1.547,0.781 -1.297,0 -2.156,-1.016 -2.156,-2.609 0,-1.703 0.828,-2.703 2.187,-2.703 0.688,0 1.172,0.25 1.594,0.875 l 0,-0.735 0.719,0 z m -0.797,2.5 c 0,-1.172 -0.563,-1.89 -1.406,-1.89 -0.875,0 -1.469,0.734 -1.469,1.906 0,1.172 0.594,1.906 1.469,1.906 0.859,0 1.406,-0.766 1.406,-1.922 z" /><path
         id="path306"
         style="fill:#000000;fill-opacity:1;fill-rule:nonzero;stroke:none"
         d="m 200.453,34.945 c 0,0.844 -0.391,1.344 -1.281,1.688 0.625,0.297 0.969,0.828 0.969,1.531 0,1.016 -0.75,1.781 -2.079,1.781 l -2.828,0 0,-7 3.157,0 c 1.25,0 2.062,0.844 2.062,2 z m -1.203,3.094 c 0,-0.703 -0.422,-1.109 -1.406,-1.109 l -1.719,0 0,2.218 1.719,0 c 0.984,0 1.406,-0.406 1.406,-1.109 z m 0.297,-3.109 c 0,-0.672 -0.406,-1.204 -1.25,-1.204 l -2.172,0 0,2.407 2.172,0 c 0.844,0 1.25,-0.516 1.25,-1.203 z" /><path
         id="path308"
         style="fill:#000000;fill-opacity:1;fill-rule:nonzero;stroke:none"
         d="m 206.828,34.867 c 0,0.859 -0.531,1.5 -1.484,1.75 l -1.75,0.469 c -0.844,0.219 -1.156,0.5 -1.156,1.047 0,0.703 0.624,1.234 1.562,1.234 1.109,0 1.75,-0.516 1.75,-1.422 l 0.844,0 c 0,1.375 -0.953,2.172 -2.563,2.172 -1.531,0 -2.484,-0.844 -2.484,-2.109 0,-0.86 0.453,-1.391 1.375,-1.641 l 1.734,-0.453 c 0.875,-0.234 1.282,-0.594 1.282,-1.141 0,-0.765 -0.579,-1.218 -1.782,-1.218 -1.328,0 -1.968,0.671 -1.968,1.671 l -0.86,0 c 0,-1.656 1.125,-2.453 2.766,-2.453 1.781,0 2.734,0.844 2.734,2.094 z" /><path
         id="path310"
         style="fill:#000000;fill-opacity:1;fill-rule:nonzero;stroke:none"
         d="m 210.633,32.945 0,6.797 -0.563,0 c -0.297,-1.047 -0.484,-1.187 -1.781,-1.344 l 0,-0.609 1.5,0 0,-4.844 0.844,0 z" /><path
         id="path312"
         style="fill:#000000;fill-opacity:1;fill-rule:nonzero;stroke:none"
         d="m 215.973,32.945 0,6.797 -0.563,0 c -0.297,-1.047 -0.484,-1.187 -1.781,-1.344 l 0,-0.609 1.5,0 0,-4.844 0.844,0 z" /><path
         id="path314"
         style="fill:#000000;fill-opacity:1;fill-rule:nonzero;stroke:none"
         d="m 222.934,35.883 0,0.656 -4.297,0 0,-0.656 4.297,0 z m 0,-1.735 0,0.657 -4.297,0 0,-0.657 4.297,0 z" /><path
         id="path316"
         style="fill:#000000;fill-opacity:1;fill-rule:nonzero;stroke:none"
         d="m 228.336,32.945 0,7 -0.797,0 0,-2.609 c -0.344,0.515 -0.875,0.781 -1.547,0.781 -1.297,0 -2.156,-1.016 -2.156,-2.609 0,-1.703 0.828,-2.703 2.187,-2.703 0.688,0 1.172,0.25 1.594,0.875 l 0,-0.735 0.719,0 z m -0.797,2.5 c 0,-1.172 -0.562,-1.89 -1.406,-1.89 -0.875,0 -1.469,0.734 -1.469,1.906 0,1.172 0.594,1.906 1.469,1.906 0.859,0 1.406,-0.766 1.406,-1.922 z" /><path
         id="path318"
         style="fill:#000000;fill-opacity:1;fill-rule:nonzero;stroke:none"
         d="m 234.91,34.945 c 0,0.844 -0.39,1.344 -1.281,1.688 0.625,0.297 0.969,0.828 0.969,1.531 0,1.016 -0.75,1.781 -2.078,1.781 l -2.829,0 0,-7 3.157,0 c 1.25,0 2.062,0.844 2.062,2 z m -1.203,3.094 c 0,-0.703 -0.422,-1.109 -1.406,-1.109 l -1.719,0 0,2.218 1.719,0 c 0.984,0 1.406,-0.406 1.406,-1.109 z m 0.297,-3.109 c 0,-0.672 -0.406,-1.204 -1.25,-1.204 l -2.172,0 0,2.407 2.172,0 c 0.844,0 1.25,-0.516 1.25,-1.203 z" /><path
         id="path320"
         style="fill:#000000;fill-opacity:1;fill-rule:nonzero;stroke:none"
         d="m 238.152,30.914 c -0.843,1.375 -1.312,2.984 -1.312,4.516 0,1.531 0.469,3.14 1.312,4.515 l -0.531,0 c -0.953,-1.265 -1.562,-3.015 -1.562,-4.515 0,-1.516 0.609,-3.266 1.562,-4.516 l 0.531,0 z" /><path
         id="path322"
         style="fill:#000000;fill-opacity:1;fill-rule:nonzero;stroke:none"
         d="m 244.508,34.867 c 0,0.859 -0.531,1.5 -1.485,1.75 l -1.75,0.469 c -0.843,0.219 -1.156,0.5 -1.156,1.047 0,0.703 0.625,1.234 1.563,1.234 1.109,0 1.75,-0.516 1.75,-1.422 l 0.843,0 c 0,1.375 -0.953,2.172 -2.562,2.172 -1.531,0 -2.484,-0.844 -2.484,-2.109 0,-0.86 0.453,-1.391 1.375,-1.641 l 1.734,-0.453 c 0.875,-0.234 1.281,-0.594 1.281,-1.141 0,-0.765 -0.578,-1.218 -1.781,-1.218 -1.328,0 -1.969,0.671 -1.969,1.671 l -0.859,0 c 0,-1.656 1.125,-2.453 2.765,-2.453 1.782,0 2.735,0.844 2.735,2.094 z" /><path
         id="path324"
         style="fill:#000000;fill-opacity:1;fill-rule:nonzero;stroke:none"
         d="m 248.285,32.945 0,6.797 -0.562,0 c -0.297,-1.047 -0.485,-1.187 -1.782,-1.344 l 0,-0.609 1.5,0 0,-4.844 0.844,0 z" /><path
         id="path326"
         style="fill:#000000;fill-opacity:1;fill-rule:nonzero;stroke:none"
         d="m 253.652,32.945 0,6.797 -0.562,0 c -0.297,-1.047 -0.485,-1.187 -1.781,-1.344 l 0,-0.609 1.5,0 0,-4.844 0.843,0 z" /><path
         id="path328"
         style="fill:#000000;fill-opacity:1;fill-rule:nonzero;stroke:none"
         d="m 258.113,35.414 c 0,1.516 -0.593,3.266 -1.562,4.531 l -0.531,0 c 0.843,-1.375 1.312,-2.984 1.312,-4.531 0,-1.516 -0.469,-3.141 -1.312,-4.5 l 0.531,0 c 0.969,1.25 1.562,3 1.562,4.5 z" /><path
         id="path330"
         style="fill:#000000;fill-opacity:1;fill-rule:nonzero;stroke:none"
         d="m 193.883,19.344 0,7 -0.797,0 0,-2.61 c -0.344,0.516 -0.875,0.782 -1.547,0.782 -1.297,0 -2.156,-1.016 -2.156,-2.61 0,-1.703 0.828,-2.703 2.187,-2.703 0.688,0 1.172,0.25 1.594,0.875 l 0,-0.734 0.719,0 z m -0.797,2.5 c 0,-1.172 -0.563,-1.891 -1.406,-1.891 -0.875,0 -1.469,0.734 -1.469,1.906 0,1.172 0.594,1.907 1.469,1.907 0.859,0 1.406,-0.766 1.406,-1.922 z" /><path
         id="path332"
         style="fill:#000000;fill-opacity:1;fill-rule:nonzero;stroke:none"
         d="m 200.453,21.344 c 0,0.843 -0.391,1.343 -1.281,1.687 0.625,0.297 0.969,0.828 0.969,1.531 0,1.016 -0.75,1.782 -2.079,1.782 l -2.828,0 0,-7 3.157,0 c 1.25,0 2.062,0.843 2.062,2 z m -1.203,3.093 c 0,-0.703 -0.422,-1.109 -1.406,-1.109 l -1.719,0 0,2.219 1.719,0 c 0.984,0 1.406,-0.406 1.406,-1.11 z m 0.297,-3.109 c 0,-0.672 -0.406,-1.203 -1.25,-1.203 l -2.172,0 0,2.406 2.172,0 c 0.844,0 1.25,-0.515 1.25,-1.203 z" /><path
         id="path334"
         style="fill:#000000;fill-opacity:1;fill-rule:nonzero;stroke:none"
         d="m 206.828,21.266 c 0,0.859 -0.531,1.5 -1.484,1.75 l -1.75,0.468 c -0.844,0.219 -1.156,0.5 -1.156,1.047 0,0.703 0.624,1.235 1.562,1.235 1.109,0 1.75,-0.516 1.75,-1.422 l 0.844,0 c 0,1.375 -0.953,2.172 -2.563,2.172 -1.531,0 -2.484,-0.844 -2.484,-2.11 0,-0.859 0.453,-1.39 1.375,-1.64 l 1.734,-0.454 c 0.875,-0.234 1.282,-0.593 1.282,-1.14 0,-0.766 -0.579,-1.219 -1.782,-1.219 -1.328,0 -1.968,0.672 -1.968,1.672 l -0.86,0 c 0,-1.656 1.125,-2.453 2.766,-2.453 1.781,0 2.734,0.844 2.734,2.094 z" /><path
         id="path336"
         style="fill:#000000;fill-opacity:1;fill-rule:nonzero;stroke:none"
         d="m 212.211,24.156 c 0,1.141 -0.891,1.985 -2.188,1.985 -1.39,0 -2.187,-0.704 -2.234,-2.36 l 0.844,0 c 0.062,1.141 0.531,1.625 1.375,1.625 0.765,0 1.328,-0.547 1.328,-1.281 0,-0.531 -0.313,-0.984 -0.906,-1.344 l -0.891,-0.5 c -1.422,-0.797 -1.828,-1.437 -1.906,-2.937 l 4.531,0 0,0.828 -3.578,0 c 0.078,0.562 0.391,0.922 1.219,1.406 l 0.968,0.516 c 0.938,0.515 1.438,1.218 1.438,2.062 z" /><path
         id="path338"
         style="fill:#000000;fill-opacity:1;fill-rule:nonzero;stroke:none"
         d="m 215.973,19.344 0,6.797 -0.563,0 c -0.297,-1.047 -0.484,-1.188 -1.781,-1.344 l 0,-0.61 1.5,0 0,-4.843 0.844,0 z" /><path
         id="path340"
         style="fill:#000000;fill-opacity:1;fill-rule:nonzero;stroke:none"
         d="m 222.934,22.281 0,0.656 -4.297,0 0,-0.656 4.297,0 z m 0,-1.734 0,0.656 -4.297,0 0,-0.656 4.297,0 z" /><path
         id="path342"
         style="fill:#000000;fill-opacity:1;fill-rule:nonzero;stroke:none"
         d="m 228.336,19.344 0,7 -0.797,0 0,-2.61 c -0.344,0.516 -0.875,0.782 -1.547,0.782 -1.297,0 -2.156,-1.016 -2.156,-2.61 0,-1.703 0.828,-2.703 2.187,-2.703 0.688,0 1.172,0.25 1.594,0.875 l 0,-0.734 0.719,0 z m -0.797,2.5 c 0,-1.172 -0.562,-1.891 -1.406,-1.891 -0.875,0 -1.469,0.734 -1.469,1.906 0,1.172 0.594,1.907 1.469,1.907 0.859,0 1.406,-0.766 1.406,-1.922 z" /><path
         id="path344"
         style="fill:#000000;fill-opacity:1;fill-rule:nonzero;stroke:none"
         d="m 234.91,21.344 c 0,0.843 -0.39,1.343 -1.281,1.687 0.625,0.297 0.969,0.828 0.969,1.531 0,1.016 -0.75,1.782 -2.078,1.782 l -2.829,0 0,-7 3.157,0 c 1.25,0 2.062,0.843 2.062,2 z m -1.203,3.093 c 0,-0.703 -0.422,-1.109 -1.406,-1.109 l -1.719,0 0,2.219 1.719,0 c 0.984,0 1.406,-0.406 1.406,-1.11 z m 0.297,-3.109 c 0,-0.672 -0.406,-1.203 -1.25,-1.203 l -2.172,0 0,2.406 2.172,0 c 0.844,0 1.25,-0.515 1.25,-1.203 z" /><path
         id="path346"
         style="fill:#000000;fill-opacity:1;fill-rule:nonzero;stroke:none"
         d="m 238.152,17.312 c -0.843,1.375 -1.312,2.985 -1.312,4.516 0,1.531 0.469,3.141 1.312,4.516 l -0.531,0 c -0.953,-1.266 -1.562,-3.016 -1.562,-4.516 0,-1.516 0.609,-3.266 1.562,-4.516 l 0.531,0 z" /><path
         id="path348"
         style="fill:#000000;fill-opacity:1;fill-rule:nonzero;stroke:none"
         d="m 244.508,21.266 c 0,0.859 -0.531,1.5 -1.485,1.75 l -1.75,0.468 c -0.843,0.219 -1.156,0.5 -1.156,1.047 0,0.703 0.625,1.235 1.563,1.235 1.109,0 1.75,-0.516 1.75,-1.422 l 0.843,0 c 0,1.375 -0.953,2.172 -2.562,2.172 -1.531,0 -2.484,-0.844 -2.484,-2.11 0,-0.859 0.453,-1.39 1.375,-1.64 l 1.734,-0.454 c 0.875,-0.234 1.281,-0.593 1.281,-1.14 0,-0.766 -0.578,-1.219 -1.781,-1.219 -1.328,0 -1.969,0.672 -1.969,1.672 l -0.859,0 c 0,-1.656 1.125,-2.453 2.765,-2.453 1.782,0 2.735,0.844 2.735,2.094 z" /><path
         id="path350"
         style="fill:#000000;fill-opacity:1;fill-rule:nonzero;stroke:none"
         d="m 249.863,24.156 c 0,1.141 -0.89,1.985 -2.187,1.985 -1.391,0 -2.188,-0.704 -2.235,-2.36 l 0.844,0 c 0.063,1.141 0.531,1.625 1.375,1.625 0.766,0 1.328,-0.547 1.328,-1.281 0,-0.531 -0.312,-0.984 -0.906,-1.344 l -0.891,-0.5 c -1.421,-0.797 -1.828,-1.437 -1.906,-2.937 l 4.531,0 0,0.828 -3.578,0 c 0.078,0.562 0.391,0.922 1.219,1.406 l 0.969,0.516 c 0.937,0.515 1.437,1.218 1.437,2.062 z" /><path
         id="path352"
         style="fill:#000000;fill-opacity:1;fill-rule:nonzero;stroke:none"
         d="m 253.652,19.344 0,6.797 -0.562,0 c -0.297,-1.047 -0.485,-1.188 -1.781,-1.344 l 0,-0.61 1.5,0 0,-4.843 0.843,0 z" /><path
         id="path354"
         style="fill:#000000;fill-opacity:1;fill-rule:nonzero;stroke:none"
         d="m 258.113,21.812 c 0,1.516 -0.593,3.266 -1.562,4.532 l -0.531,0 c 0.843,-1.375 1.312,-2.985 1.312,-4.532 0,-1.515 -0.469,-3.14 -1.312,-4.5 l 0.531,0 c 0.969,1.25 1.562,3 1.562,4.5 z" /><path
         id="path356"
         style="fill:#000080;fill-opacity:1;fill-rule:nonzero;stroke:none"
         d="m 12.043,120.039 -1.078,0 c -0.188,-1.063 -0.735,-1.5 -1.641,-1.5 -1.172,0 -1.875,0.906 -1.875,2.484 0,1.688 0.688,2.625 1.844,2.625 0.906,0 1.469,-0.515 1.594,-1.453 l 1.078,0 c -0.125,1.641 -1.156,2.438 -2.656,2.438 -1.797,0 -2.985,-1.375 -2.985,-3.61 0,-2.156 1.156,-3.468 2.969,-3.468 1.609,0 2.609,0.953 2.75,2.484 z" /><path
         id="path358"
         style="fill:#000080;fill-opacity:1;fill-rule:nonzero;stroke:none"
         d="m 19.176,117.773 0,0.797 c -0.11,-0.015 -0.156,-0.015 -0.235,-0.015 -0.359,0 -0.562,0.187 -0.562,0.515 l 0,3.735 c 0,1.187 -0.875,1.828 -2.531,1.828 -1.625,0 -2.625,-0.625 -2.688,-2.172 l 1.078,0 c 0.094,0.828 0.578,1.187 1.578,1.187 0.954,0 1.5,-0.359 1.5,-1 l 0,-0.281 c 0,-0.437 -0.281,-0.625 -1.125,-0.734 -1.5,-0.188 -1.734,-0.25 -2.14,-0.407 -0.781,-0.328 -1.188,-0.921 -1.188,-1.75 0,-1.203 0.844,-1.921 2.203,-1.921 0.86,0 1.688,0.359 2.282,0.984 0.109,-0.516 0.578,-0.891 1.093,-0.891 0.219,0 0.391,0.032 0.735,0.125 z m -1.86,2.282 c 0,-0.954 -0.984,-1.563 -2.015,-1.563 -0.828,0 -1.313,0.281 -1.313,1.016 0,0.703 0.469,1.015 1.61,1.172 1.125,0.156 1.359,0.203 1.718,0.375 l 0,-1 z" /><path
         id="path360"
         style="fill:#000080;fill-opacity:1;fill-rule:nonzero;stroke:none"
         d="m 20.324,127.07 1.062,0 0,-9.328 -1.062,0 0,9.328 z" /><path
         id="path362"
         style="fill:#000080;fill-opacity:1;fill-rule:nonzero;stroke:none"
         d="m 28.398,120.039 -1.078,0 c -0.187,-1.063 -0.734,-1.5 -1.64,-1.5 -1.172,0 -1.875,0.906 -1.875,2.484 0,1.688 0.687,2.625 1.843,2.625 0.907,0 1.469,-0.515 1.594,-1.453 l 1.078,0 c -0.125,1.641 -1.156,2.438 -2.656,2.438 -1.797,0 -2.984,-1.375 -2.984,-3.61 0,-2.156 1.156,-3.468 2.968,-3.468 1.61,0 2.61,0.953 2.75,2.484 z" /><path
         id="path364"
         style="fill:#000080;fill-opacity:1;fill-rule:nonzero;stroke:none"
         d="m 34.863,117.742 0,6.703 -1.062,0 0,-3.703 c 0,-1.359 -0.719,-2.25 -1.828,-2.25 -0.844,0 -1.391,0.5 -1.391,1.313 l 0,4.64 -1.062,0 0,-5.062 c 0,-1.11 0.828,-1.828 2.14,-1.828 0.985,0 1.61,0.343 2.235,1.218 l 0,-1.031 0.968,0 z" /><path
         id="path366"
         style="fill:#000080;fill-opacity:1;fill-rule:nonzero;stroke:none"
         d="m 36.684,127.07 1.062,0 0,-9.328 -1.062,0 0,9.328 z" /><path
         id="path368"
         style="fill:#000080;fill-opacity:1;fill-rule:nonzero;stroke:none"
         d="m 12.262,99.344 0,9.328 -1.063,0 0,-3.469 c -0.437,0.688 -1.156,1.031 -2.047,1.031 -1.75,0 -2.89,-1.343 -2.89,-3.468 0,-2.266 1.125,-3.61 2.922,-3.61 0.921,0 1.562,0.344 2.14,1.172 l 0,-0.984 0.938,0 z m -1.063,3.328 c 0,-1.547 -0.734,-2.516 -1.859,-2.516 -1.172,0 -1.953,0.985 -1.953,2.547 0,1.547 0.781,2.547 1.937,2.547 1.156,0 1.875,-1.031 1.875,-2.578 z" /><path
         id="path370"
         style="fill:#000080;fill-opacity:1;fill-rule:nonzero;stroke:none"
         d="m 19.613,102.391 c 0,0.968 -0.078,1.578 -0.265,2.078 -0.438,1.109 -1.453,1.765 -2.719,1.765 -1.859,0 -3.063,-1.375 -3.063,-3.578 0,-2.203 1.157,-3.5 3.047,-3.5 1.532,0 2.594,0.86 2.86,2.219 l -1.078,0 c -0.282,-0.875 -0.891,-1.234 -1.75,-1.234 -1.11,0 -1.938,0.718 -1.969,2.25 l 4.937,0 z m -1.14,0.953 c 0,0 0,-0.063 -0.016,-0.078 l -3.75,0 c 0.078,1.187 0.844,1.984 1.922,1.984 1.047,0 1.844,-0.859 1.844,-1.906 z" /><path
         id="path372"
         style="fill:#000080;fill-opacity:1;fill-rule:nonzero;stroke:none"
         d="m 26.039,101.219 c 0,1 -0.562,1.5 -1.891,1.828 l -1.031,0.234 c -0.875,0.203 -1.234,0.485 -1.234,0.969 0,0.609 0.547,1 1.422,1 0.859,0 1.312,-0.359 1.343,-1.063 l 1.125,0 c -0.015,1.313 -0.89,2.047 -2.437,2.047 -1.563,0 -2.578,-0.797 -2.578,-2.047 0,-1.046 0.547,-1.546 2.125,-1.921 l 1,-0.25 c 0.75,-0.172 1.047,-0.391 1.047,-0.875 0,-0.625 -0.625,-1 -1.563,-1 -0.969,0 -1.5,0.234 -1.64,1.25 l -1.125,0 c 0.046,-1.547 0.921,-2.235 2.671,-2.235 1.688,0 2.766,0.781 2.766,2.063 z" /><path
         id="path374"
         style="fill:#000080;fill-opacity:1;fill-rule:nonzero;stroke:none"
         d="m 36.824,102.625 c 0,2.266 -1.094,3.609 -2.875,3.609 -0.906,0 -1.64,-0.406 -2.14,-1.203 l 0,1.016 -0.969,0 0,-9.5 1.062,0 0,3.609 c 0.563,-0.703 1.188,-1 2.063,-1 1.719,0 2.859,1.344 2.859,3.469 z m -1.109,0.031 c 0,-1.515 -0.781,-2.5 -1.938,-2.5 -1.125,0 -1.875,0.922 -1.875,2.485 0,1.578 0.75,2.609 1.875,2.609 1.172,0 1.938,-1 1.938,-2.594 z" /><path
         id="path376"
         style="fill:#000080;fill-opacity:1;fill-rule:nonzero;stroke:none"
         d="m 44.098,99.375 0,0.797 c -0.11,-0.016 -0.157,-0.016 -0.235,-0.016 -0.359,0 -0.562,0.188 -0.562,0.516 l 0,3.734 c 0,1.188 -0.875,1.828 -2.531,1.828 -1.625,0 -2.625,-0.625 -2.688,-2.172 l 1.078,0 c 0.094,0.829 0.578,1.188 1.578,1.188 0.953,0 1.5,-0.359 1.5,-1 l 0,-0.281 c 0,-0.438 -0.281,-0.625 -1.125,-0.735 -1.5,-0.187 -1.734,-0.25 -2.14,-0.406 -0.782,-0.328 -1.188,-0.922 -1.188,-1.75 0,-1.203 0.844,-1.922 2.203,-1.922 0.86,0 1.688,0.36 2.282,0.985 0.109,-0.516 0.578,-0.891 1.093,-0.891 0.219,0 0.391,0.031 0.735,0.125 z m -1.86,2.281 c 0,-0.953 -0.984,-1.562 -2.015,-1.562 -0.828,0 -1.313,0.281 -1.313,1.015 0,0.703 0.469,1.016 1.61,1.172 1.125,0.156 1.359,0.203 1.718,0.375 l 0,-1 z" /><path
         id="path378"
         style="fill:#000080;fill-opacity:1;fill-rule:nonzero;stroke:none"
         d="m 48.48,105.109 0,1.094 c -0.187,0.031 -0.265,0.031 -0.406,0.031 -0.703,0 -1.219,-0.406 -1.828,-1.406 l 0,1.219 -0.984,0 0,-6.703 1.062,0 0,3.484 c 0,1.5 0.5,2.266 2.156,2.281 z" /><path
         id="path380"
         style="fill:#000080;fill-opacity:1;fill-rule:nonzero;stroke:none"
         d="m 55.426,99.375 0,0.797 c -0.11,-0.016 -0.156,-0.016 -0.235,-0.016 -0.359,0 -0.562,0.188 -0.562,0.516 l 0,3.734 c 0,1.188 -0.875,1.828 -2.531,1.828 -1.625,0 -2.625,-0.625 -2.688,-2.172 l 1.078,0 c 0.094,0.829 0.578,1.188 1.578,1.188 0.954,0 1.5,-0.359 1.5,-1 l 0,-0.281 c 0,-0.438 -0.281,-0.625 -1.125,-0.735 -1.5,-0.187 -1.734,-0.25 -2.14,-0.406 -0.781,-0.328 -1.188,-0.922 -1.188,-1.75 0,-1.203 0.844,-1.922 2.203,-1.922 0.86,0 1.688,0.36 2.282,0.985 0.109,-0.516 0.578,-0.891 1.093,-0.891 0.219,0 0.391,0.031 0.735,0.125 z m -1.86,2.281 c 0,-0.953 -0.984,-1.562 -2.015,-1.562 -0.828,0 -1.313,0.281 -1.313,1.015 0,0.703 0.469,1.016 1.61,1.172 1.125,0.156 1.359,0.203 1.718,0.375 l 0,-1 z" /><path
         id="path382"
         style="fill:#000080;fill-opacity:1;fill-rule:nonzero;stroke:none"
         d="m 65.418,99.344 0,5.031 c 0,1.203 -0.656,1.859 -1.906,1.859 -0.907,0 -1.438,-0.265 -2.063,-1.015 -0.406,0.718 -0.937,1.015 -1.812,1.015 -0.891,0 -1.485,-0.328 -2.063,-1.125 l 0,0.938 -0.969,0 0,-6.703 1.063,0 0,4.203 c 0,0.984 0.703,1.765 1.578,1.765 0.797,0 1.234,-0.484 1.234,-1.343 l 0,-4.625 1.063,0 0,4.203 c 0,0.984 0.719,1.765 1.594,1.765 0.781,0 1.218,-0.5 1.218,-1.343 l 0,-4.625 1.063,0 z" /><path
         id="path384"
         style="fill:#000080;fill-opacity:1;fill-rule:nonzero;stroke:none"
         d="m 72.922,102.391 c 0,0.968 -0.078,1.578 -0.266,2.078 -0.437,1.109 -1.453,1.765 -2.718,1.765 -1.86,0 -3.063,-1.375 -3.063,-3.578 0,-2.203 1.156,-3.5 3.047,-3.5 1.531,0 2.594,0.86 2.859,2.219 l -1.078,0 c -0.281,-0.875 -0.891,-1.234 -1.75,-1.234 -1.109,0 -1.937,0.718 -1.969,2.25 l 4.938,0 z m -1.141,0.953 c 0,0 0,-0.063 -0.015,-0.078 l -3.75,0 c 0.078,1.187 0.843,1.984 1.922,1.984 1.046,0 1.843,-0.859 1.843,-1.906 z m -1.453,3.437 -1.234,1.891 -1.438,0 1.906,-1.891 0.766,0 z" /><path
         id="path386"
         style="fill:#000080;fill-opacity:1;fill-rule:nonzero;stroke:none"
         d="m 76.637,99.344 0,0.89 c -0.141,-0.031 -0.313,-0.047 -0.516,-0.047 -0.453,0 -0.578,0.125 -0.578,0.61 l 0,4.375 1.094,0 0,0.875 -1.094,0 0,1.844 -1.063,0 0,-1.844 -0.921,0 0,-0.875 0.921,0 0,-4.86 c 0,-0.671 0.454,-1.062 1.282,-1.062 0.265,0 0.515,0.031 0.875,0.094 z" /><path
         id="path388"
         style="fill:#000080;fill-opacity:1;fill-rule:nonzero;stroke:none"
         d="m 81.055,105.109 0,1.094 c -0.188,0.031 -0.266,0.031 -0.407,0.031 -0.703,0 -1.218,-0.406 -1.828,-1.406 l 0,1.219 -0.984,0 0,-6.703 1.062,0 0,3.484 c 0,1.5 0.5,2.266 2.157,2.281 z" /><path
         id="path390"
         style="fill:#000080;fill-opacity:1;fill-rule:nonzero;stroke:none"
         d="m 87.656,102.391 c 0,0.968 -0.078,1.578 -0.265,2.078 -0.438,1.109 -1.453,1.765 -2.719,1.765 -1.86,0 -3.063,-1.375 -3.063,-3.578 0,-2.203 1.157,-3.5 3.047,-3.5 1.532,0 2.594,0.86 2.86,2.219 l -1.078,0 c -0.282,-0.875 -0.891,-1.234 -1.75,-1.234 -1.11,0 -1.938,0.718 -1.969,2.25 l 4.937,0 z m -1.14,0.953 c 0,0 0,-0.063 -0.016,-0.078 l -3.75,0 c 0.078,1.187 0.844,1.984 1.922,1.984 1.047,0 1.844,-0.859 1.844,-1.906 z" /><path
         id="path392"
         style="fill:#000080;fill-opacity:1;fill-rule:nonzero;stroke:none"
         d="m 94.086,101.219 c 0,1 -0.563,1.5 -1.891,1.828 l -1.031,0.234 c -0.875,0.203 -1.234,0.485 -1.234,0.969 0,0.609 0.547,1 1.422,1 0.859,0 1.312,-0.359 1.343,-1.063 l 1.125,0 c -0.015,1.313 -0.89,2.047 -2.437,2.047 -1.563,0 -2.578,-0.797 -2.578,-2.047 0,-1.046 0.547,-1.546 2.125,-1.921 l 1,-0.25 c 0.75,-0.172 1.047,-0.391 1.047,-0.875 0,-0.625 -0.625,-1 -1.563,-1 -0.969,0 -1.5,0.234 -1.641,1.25 l -1.125,0 c 0.047,-1.547 0.922,-2.235 2.672,-2.235 1.688,0 2.766,0.781 2.766,2.063 z" /><path
         id="path394"
         style="fill:#000080;fill-opacity:1;fill-rule:nonzero;stroke:none"
         d="m 104.043,101.219 c 0,1 -0.563,1.5 -1.891,1.828 l -1.031,0.234 c -0.875,0.203 -1.234,0.485 -1.234,0.969 0,0.609 0.547,1 1.422,1 0.859,0 1.312,-0.359 1.343,-1.063 l 1.125,0 c -0.015,1.313 -0.89,2.047 -2.437,2.047 -1.563,0 -2.578,-0.797 -2.578,-2.047 0,-1.046 0.547,-1.546 2.125,-1.921 l 1,-0.25 c 0.75,-0.172 1.047,-0.391 1.047,-0.875 0,-0.625 -0.625,-1 -1.563,-1 -0.969,0 -1.5,0.234 -1.641,1.25 l -1.125,0 c 0.047,-1.547 0.922,-2.235 2.672,-2.235 1.688,0 2.766,0.781 2.766,2.063 z" /><path
         id="path396"
         style="fill:none;stroke:#000080;stroke-width:1.60000002;stroke-linecap:square;stroke-linejoin:bevel;stroke-miterlimit:4;stroke-dasharray:none;stroke-opacity:1"
         d="m 1.133,136.144 116,0 0,-44.801 -116,0 0,44.801 z" /><path
         id="path398"
         style="fill:none;stroke:#000080;stroke-width:1.60000002;stroke-linecap:square;stroke-linejoin:bevel;stroke-miterlimit:4;stroke-dasharray:none;stroke-opacity:1"
         d="m 5.133,87.344 -4,4" /><path
         id="path400"
         style="fill:none;stroke:#000080;stroke-width:1.60000002;stroke-linecap:square;stroke-linejoin:bevel;stroke-miterlimit:4;stroke-dasharray:none;stroke-opacity:1"
         d="m 120.332,87.344 -115.199,0" /><path
         id="path402"
         style="fill:none;stroke:#000080;stroke-width:1.60000002;stroke-linecap:square;stroke-linejoin:bevel;stroke-miterlimit:4;stroke-dasharray:none;stroke-opacity:1"
         d="m 120.332,87.344 -3.199,4" /><path
         id="path404"
         style="fill:none;stroke:#000080;stroke-width:1.60000002;stroke-linecap:square;stroke-linejoin:bevel;stroke-miterlimit:4;stroke-dasharray:none;stroke-opacity:1"
         d="m 120.332,87.344 0,44.8" /><path
         id="path406"
         style="fill:none;stroke:#000080;stroke-width:1.60000002;stroke-linecap:square;stroke-linejoin:bevel;stroke-miterlimit:4;stroke-dasharray:none;stroke-opacity:1"
         d="m 120.332,132.144 -3.199,4" /><path
         id="path408"
         style="fill:#000000;fill-opacity:1;fill-rule:nonzero;stroke:none"
         d="m 11.887,56.465 c 0,0.859 -0.532,1.5 -1.485,1.75 l -1.75,0.469 c -0.843,0.218 -1.156,0.5 -1.156,1.046 0,0.704 0.625,1.235 1.563,1.235 1.109,0 1.75,-0.516 1.75,-1.422 l 0.843,0 c 0,1.375 -0.953,2.172 -2.562,2.172 -1.531,0 -2.485,-0.844 -2.485,-2.11 0,-0.859 0.454,-1.39 1.375,-1.64 l 1.735,-0.453 c 0.875,-0.235 1.281,-0.594 1.281,-1.141 0,-0.766 -0.578,-1.219 -1.781,-1.219 -1.328,0 -1.969,0.672 -1.969,1.672 l -0.859,0 c 0,-1.656 1.125,-2.453 2.765,-2.453 1.782,0 2.735,0.844 2.735,2.094 z" /><path
         id="path410"
         style="fill:#000000;fill-opacity:1;fill-rule:nonzero;stroke:none"
         d="m 18.258,59.48 c 0,1.313 -0.781,2.063 -2.156,2.063 l -2.891,0 0,-7 0.891,0 0,2.969 2.203,0 c 1.14,0 1.953,0.812 1.953,1.968 z m -0.938,0.047 c 0,-0.765 -0.5,-1.234 -1.359,-1.234 l -1.859,0 0,2.453 1.859,0 c 0.859,0 1.359,-0.453 1.359,-1.219 z" /><path
         id="path412"
         style="fill:#000000;fill-opacity:1;fill-rule:nonzero;stroke:none"
         d="m 22.066,54.543 0,6.797 -0.562,0 C 21.207,60.293 21.02,60.152 19.723,59.996 l 0,-0.609 1.5,0 0,-4.844 0.843,0 z" /><path
         id="path414"
         style="fill:#000000;fill-opacity:1;fill-rule:nonzero;stroke:none"
         d="m 11.621,47.148 0,0.797 -5.484,0 0,-0.797 2.297,0 0,-6.203 0.89,0 0,6.203 2.297,0 z" /><path
         id="path416"
         style="fill:#000000;fill-opacity:1;fill-rule:nonzero;stroke:none"
         d="m 15.426,45.976 -0.86,0 -1.39,-3.921 -1.281,3.921 -0.86,0 1.703,-5.046 -0.312,-0.797 c -0.125,-0.36 -0.297,-0.5 -0.641,-0.5 -0.109,0 -0.25,0.031 -0.422,0.062 l 0,-0.719 c 0.172,-0.078 0.328,-0.125 0.547,-0.125 0.563,0 1.016,0.313 1.281,1.032 l 2.235,6.093 z" /><path
         id="path418"
         style="fill:#000000;fill-opacity:1;fill-rule:nonzero;stroke:none"
         d="m 20.664,43.414 c 0,1.687 -0.828,2.703 -2.156,2.703 -0.688,0 -1.235,-0.312 -1.61,-0.906 l 0,0.765 -0.718,0 0,-7.125 0.797,0 0,2.704 c 0.421,-0.516 0.89,-0.75 1.546,-0.75 1.282,0 2.141,1 2.141,2.609 z m -0.828,0.016 c 0,-1.141 -0.594,-1.875 -1.469,-1.875 -0.844,0 -1.39,0.687 -1.39,1.859 0,1.187 0.546,1.953 1.39,1.953 0.891,0 1.469,-0.734 1.469,-1.937 z" /><path
         id="path420"
         style="fill:#000000;fill-opacity:1;fill-rule:nonzero;stroke:none"
         d="m 25.906,43.226 c 0,0.735 -0.062,1.188 -0.203,1.563 -0.328,0.828 -1.094,1.328 -2.031,1.328 -1.406,0 -2.297,-1.031 -2.297,-2.687 0,-1.657 0.859,-2.625 2.281,-2.625 1.141,0 1.938,0.656 2.141,1.671 l -0.797,0 c -0.219,-0.671 -0.672,-0.937 -1.312,-0.937 -0.844,0 -1.469,0.531 -1.485,1.687 l 3.703,0 z m -0.859,0.719 c 0,0 0,-0.047 0,-0.062 l -2.828,0 c 0.078,0.89 0.64,1.5 1.437,1.5 0.797,0 1.391,-0.657 1.391,-1.438 z" /><path
         id="path422"
         style="fill:#000000;fill-opacity:1;fill-rule:nonzero;stroke:none"
         d="m 31.277,43.883 0,0.656 -4.297,0 0,-0.656 4.297,0 z m 0,-1.735 0,0.657 -4.297,0 0,-0.657 4.297,0 z" /><path
         id="path424"
         style="fill:#000000;fill-opacity:1;fill-rule:nonzero;stroke:none"
         d="m 32.586,47.945 0.797,0 0,-7 -0.797,0 0,7 z" /><path
         id="path426"
         style="fill:#000000;fill-opacity:1;fill-rule:nonzero;stroke:none"
         d="m 38.949,43.414 c 0,1.75 -0.828,2.703 -2.281,2.703 -1.406,0 -2.266,-0.969 -2.266,-2.656 0,-1.688 0.844,-2.656 2.282,-2.656 1.406,0 2.265,0.968 2.265,2.609 z m -0.828,0.016 c 0,-1.172 -0.562,-1.891 -1.437,-1.891 -0.891,0 -1.438,0.703 -1.438,1.922 0,1.203 0.547,1.922 1.438,1.922 0.89,0 1.437,-0.703 1.437,-1.953 z" /><path
         id="path428"
         style="fill:#000000;fill-opacity:1;fill-rule:nonzero;stroke:none"
         d="m 44.113,41.773 0,4.203 -0.734,0 0,-0.734 c -0.406,0.594 -0.891,0.875 -1.531,0.875 -1.282,0 -2.141,-1.078 -2.141,-2.703 0,-1.594 0.891,-2.609 2.063,-2.609 0.64,0 1.078,0.265 1.609,0.906 l 0,-0.344 c 0,-1.328 -0.547,-1.844 -1.484,-1.844 -0.625,0 -1.11,0.235 -1.219,0.844 l -0.813,0 c 0.094,-0.953 0.828,-1.516 2.016,-1.516 1.562,0 2.234,0.704 2.234,2.922 z m -0.812,1.657 c 0,-1.204 -0.516,-1.891 -1.36,-1.891 -0.875,0 -1.406,0.703 -1.406,1.922 0,1.203 0.547,1.922 1.391,1.922 0.875,0 1.375,-0.735 1.375,-1.953 z" /><path
         id="path430"
         style="fill:#000000;fill-opacity:1;fill-rule:nonzero;stroke:none"
         d="m 11.887,29.266 c 0,0.859 -0.532,1.5 -1.485,1.75 l -1.75,0.468 c -0.843,0.219 -1.156,0.5 -1.156,1.047 0,0.703 0.625,1.235 1.563,1.235 1.109,0 1.75,-0.516 1.75,-1.422 l 0.843,0 c 0,1.375 -0.953,2.172 -2.562,2.172 -1.531,0 -2.485,-0.844 -2.485,-2.11 0,-0.859 0.454,-1.39 1.375,-1.64 l 1.735,-0.454 c 0.875,-0.234 1.281,-0.593 1.281,-1.14 0,-0.766 -0.578,-1.219 -1.781,-1.219 -1.328,0 -1.969,0.672 -1.969,1.672 l -0.859,0 c 0,-1.656 1.125,-2.453 2.765,-2.453 1.782,0 2.735,0.844 2.735,2.094 z" /><path
         id="path432"
         style="fill:#000000;fill-opacity:1;fill-rule:nonzero;stroke:none"
         d="m 14.727,27.344 0,0.672 c -0.11,-0.032 -0.235,-0.032 -0.391,-0.032 -0.344,0 -0.438,0.094 -0.438,0.438 l 0,3.297 0.829,0 0,0.656 -0.829,0 0,1.375 -0.796,0 0,-1.375 -0.672,0 0,-0.656 0.672,0 0,-3.641 c 0,-0.516 0.343,-0.797 0.968,-0.797 0.188,0 0.391,0.016 0.657,0.063 z" /><path
         id="path434"
         style="fill:#000000;fill-opacity:1;fill-rule:nonzero;stroke:none"
         d="m 20.082,27.359 0,0.61 c -0.078,-0.016 -0.109,-0.016 -0.172,-0.016 -0.265,0 -0.422,0.141 -0.422,0.391 l 0,2.797 c 0,0.89 -0.656,1.375 -1.89,1.375 -1.219,0 -1.969,-0.469 -2.016,-1.625 l 0.797,0 c 0.078,0.609 0.437,0.89 1.187,0.89 0.719,0 1.125,-0.281 1.125,-0.75 l 0,-0.219 c 0,-0.328 -0.203,-0.468 -0.843,-0.546 -1.125,-0.157 -1.297,-0.188 -1.61,-0.313 -0.578,-0.234 -0.875,-0.687 -0.875,-1.297 0,-0.922 0.625,-1.453 1.641,-1.453 0.656,0 1.266,0.266 1.719,0.734 0.078,-0.375 0.422,-0.656 0.812,-0.656 0.172,0 0.297,0.016 0.547,0.078 z m -1.391,1.719 c 0,-0.719 -0.734,-1.172 -1.515,-1.172 -0.61,0 -0.985,0.219 -0.985,0.766 0,0.531 0.36,0.75 1.219,0.875 0.844,0.125 1.016,0.156 1.281,0.281 l 0,-0.75 z" /><path
         id="path436"
         style="fill:#000000;fill-opacity:1;fill-rule:nonzero;stroke:none"
         d="m 23.371,31.672 0,0.812 c -0.141,0.016 -0.203,0.032 -0.312,0.032 -0.516,0 -0.907,-0.313 -1.36,-1.063 l 0,0.922 -0.734,0 0,-5.031 0.797,0 0,2.609 c 0,1.125 0.375,1.703 1.609,1.719 z" /><path
         id="path438"
         style="fill:#000000;fill-opacity:1;fill-rule:nonzero;stroke:none"
         d="m 26.227,27.344 0,0.672 c -0.11,-0.032 -0.235,-0.032 -0.391,-0.032 -0.344,0 -0.438,0.094 -0.438,0.438 l 0,3.297 0.829,0 0,0.656 -0.829,0 0,1.375 -0.796,0 0,-1.375 -0.672,0 0,-0.656 0.672,0 0,-3.641 c 0,-0.516 0.343,-0.797 0.968,-0.797 0.188,0 0.391,0.016 0.657,0.063 z" /><path
         id="path440"
         style="fill:#000000;fill-opacity:1;fill-rule:nonzero;stroke:none"
         d="m 31.41,30.281 0,0.656 -4.297,0 0,-0.656 4.297,0 z m 0,-1.734 0,0.656 -4.297,0 0,-0.656 4.297,0 z" /><path
         id="path442"
         style="fill:#000000;fill-opacity:1;fill-rule:nonzero;stroke:none"
         d="m 35.391,27.344 0,6.797 -0.563,0 c -0.297,-1.047 -0.484,-1.188 -1.781,-1.344 l 0,-0.61 1.5,0 0,-4.843 0.844,0 z" /><path
         id="path444"
         style="fill:#000000;fill-opacity:1;fill-rule:nonzero;stroke:none"
         d="m 42.262,30.609 c 0,2.36 -0.75,3.532 -2.219,3.532 -1.469,0 -2.234,-1.188 -2.234,-3.469 0,-2.297 0.781,-3.469 2.234,-3.469 1.437,0 2.219,1.172 2.219,3.406 z m -0.86,0.078 c 0,-1.921 -0.437,-2.781 -1.375,-2.781 -0.89,0 -1.343,0.891 -1.343,2.75 0,1.875 0.453,2.735 1.359,2.735 0.906,0 1.359,-0.875 1.359,-2.704 z" /><path
         id="path446"
         style="fill:#000000;fill-opacity:1;fill-rule:nonzero;stroke:none"
         d="m 47.598,30.609 c 0,2.36 -0.75,3.532 -2.219,3.532 -1.469,0 -2.234,-1.188 -2.234,-3.469 0,-2.297 0.781,-3.469 2.234,-3.469 1.437,0 2.219,1.172 2.219,3.406 z m -0.86,0.078 c 0,-1.921 -0.437,-2.781 -1.375,-2.781 -0.89,0 -1.343,0.891 -1.343,2.75 0,1.875 0.453,2.735 1.359,2.735 0.906,0 1.359,-0.875 1.359,-2.704 z" /><path
         id="path448"
         style="fill:#000000;fill-opacity:1;fill-rule:nonzero;stroke:none"
         d="m 58.043,27.344 0,7 -1.234,0 -2.032,-6.094 -2.078,6.094 -1.234,0 0,-7 0.844,0 0,5.859 1.984,-5.859 0.937,0 1.969,5.859 0,-5.859 0.844,0 z" /><path
         id="path450"
         style="fill:#000000;fill-opacity:1;fill-rule:nonzero;stroke:none"
         d="m 64.914,27.344 0,7 -0.891,0 0,-3.032 -3.593,0 0,3.032 -0.891,0 0,-7 0.891,0 0,3.187 3.593,0 0,-3.187 0.891,0 z" /><path
         id="path452"
         style="fill:#000000;fill-opacity:1;fill-rule:nonzero;stroke:none"
         d="m 70.062,27.344 0,0.703 -3.124,0 2.984,3.609 0,0.719 -3.75,0 0,-0.703 2.797,0 -3,-3.61 0,-0.718 4.093,0 z" /><path
         id="path454"
         style="fill:#000000;fill-opacity:1;fill-rule:nonzero;stroke:none"
         d="m 11.887,15.664 c 0,0.859 -0.532,1.5 -1.485,1.75 l -1.75,0.469 c -0.843,0.218 -1.156,0.5 -1.156,1.047 0,0.703 0.625,1.234 1.563,1.234 1.109,0 1.75,-0.516 1.75,-1.422 l 0.843,0 c 0,1.375 -0.953,2.172 -2.562,2.172 -1.531,0 -2.485,-0.844 -2.485,-2.109 0,-0.86 0.454,-1.391 1.375,-1.641 l 1.735,-0.453 c 0.875,-0.235 1.281,-0.594 1.281,-1.141 0,-0.765 -0.578,-1.219 -1.781,-1.219 -1.328,0 -1.969,0.672 -1.969,1.672 l -0.859,0 c 0,-1.656 1.125,-2.453 2.765,-2.453 1.782,0 2.735,0.844 2.735,2.094 z" /><path
         id="path456"
         style="fill:#000000;fill-opacity:1;fill-rule:nonzero;stroke:none"
         d="m 14.727,13.742 0,0.672 c -0.11,-0.031 -0.235,-0.031 -0.391,-0.031 -0.344,0 -0.438,0.093 -0.438,0.437 l 0,3.297 0.829,0 0,0.656 -0.829,0 0,1.375 -0.796,0 0,-1.375 -0.672,0 0,-0.656 0.672,0 0,-3.641 c 0,-0.515 0.343,-0.796 0.968,-0.796 0.188,0 0.391,0.015 0.657,0.062 z" /><path
         id="path458"
         style="fill:#000000;fill-opacity:1;fill-rule:nonzero;stroke:none"
         d="m 19.75,16.211 c 0,1.75 -0.828,2.703 -2.281,2.703 -1.407,0 -2.266,-0.969 -2.266,-2.656 0,-1.688 0.844,-2.657 2.281,-2.657 1.407,0 2.266,0.969 2.266,2.61 z m -0.828,0.015 c 0,-1.171 -0.563,-1.89 -1.438,-1.89 -0.89,0 -1.437,0.703 -1.437,1.922 0,1.203 0.547,1.922 1.437,1.922 0.891,0 1.438,-0.704 1.438,-1.954 z" /><path
         id="path460"
         style="fill:#000000;fill-opacity:1;fill-rule:nonzero;stroke:none"
         d="m 25.215,16.211 c 0,1.687 -0.828,2.703 -2.156,2.703 -0.688,0 -1.235,-0.313 -1.61,-0.906 l 0,0.765 -0.719,0 0,-7.125 0.797,0 0,2.703 c 0.422,-0.515 0.891,-0.75 1.547,-0.75 1.281,0 2.141,1 2.141,2.61 z m -0.828,0.015 c 0,-1.14 -0.594,-1.875 -1.469,-1.875 -0.844,0 -1.391,0.688 -1.391,1.86 0,1.187 0.547,1.953 1.391,1.953 0.891,0 1.469,-0.734 1.469,-1.938 z" /><path
         id="path462"
         style="fill:#000000;fill-opacity:1;fill-rule:nonzero;stroke:none"
         d="m 30.488,16.68 0,0.656 -4.297,0 0,-0.656 4.297,0 z m 0,-1.735 0,0.656 -4.297,0 0,-0.656 4.297,0 z" /><path
         id="path464"
         style="fill:#000000;fill-opacity:1;fill-rule:nonzero;stroke:none"
         d="m 36,15.711 c 0,0.828 -0.344,1.312 -1.156,1.594 0.64,0.25 0.953,0.687 0.953,1.375 0,1.171 -0.781,1.859 -2.078,1.859 -1.375,0 -2.094,-0.75 -2.125,-2.188 l 0.844,0 c 0.015,1 0.437,1.454 1.296,1.454 0.75,0 1.204,-0.438 1.204,-1.157 0,-0.734 -0.329,-1.031 -1.672,-1.031 l 0,-0.703 0.453,0 c 0.937,0 1.406,-0.453 1.406,-1.203 0,-0.86 -0.516,-1.36 -1.406,-1.36 -0.922,0 -1.375,0.454 -1.422,1.438 l -0.844,0 c 0.094,-1.516 0.844,-2.188 2.235,-2.188 1.406,0 2.312,0.829 2.312,2.11 z" /><path
         id="path466"
         style="fill:#000000;fill-opacity:1;fill-rule:nonzero;stroke:none"
         d="m 45.945,13.742 0,3.688 -2.906,0 0,-0.782 2.125,0 0,-0.187 c 0,-1.25 -0.922,-2.11 -2.203,-2.11 -1.578,0 -2.5,1.157 -2.5,2.86 0,1.719 0.984,2.906 2.453,2.906 1.063,0 1.844,-0.594 2.031,-1.5 l 0.907,0 c -0.25,1.422 -1.329,2.297 -2.922,2.297 -2.141,0 -3.36,-1.656 -3.36,-3.75 0,-2.141 1.313,-3.594 3.203,-3.594 0.954,0 1.704,0.328 2.391,1.094 l 0.219,-0.922 0.562,0 z" /><path
         id="path468"
         style="fill:#000000;fill-opacity:1;fill-rule:nonzero;stroke:none"
         d="m 52.789,13.742 0,7 -0.891,0 0,-3.031 -3.593,0 0,3.031 -0.891,0 0,-7 0.891,0 0,3.188 3.593,0 0,-3.188 0.891,0 z" /><path
         id="path470"
         style="fill:#000000;fill-opacity:1;fill-rule:nonzero;stroke:none"
         d="m 57.938,13.742 0,0.703 -3.126,0 2.985,3.61 0,0.718 -3.75,0 0,-0.703 2.797,0 -3,-3.609 0,-0.719 4.094,0 z" /><path
         id="path472"
         style="fill:#000000;fill-opacity:1;fill-rule:nonzero;stroke:none"
         d="m 11.855,5.082 c 0,1.312 -0.781,2.062 -2.156,2.062 l -2.89,0 0,-7 0.89,0 0,2.969 2.203,0 c 1.141,0 1.953,0.813 1.953,1.969 z m -0.937,0.047 c 0,-0.766 -0.5,-1.235 -1.359,-1.235 l -1.86,0 0,2.454 1.86,0 c 0.859,0 1.359,-0.454 1.359,-1.219 z" /><path
         id="path474"
         style="fill:#000000;fill-opacity:1;fill-rule:nonzero;stroke:none"
         d="m 16.996,2.613 c 0,1.75 -0.828,2.703 -2.281,2.703 -1.406,0 -2.266,-0.968 -2.266,-2.656 0,-1.687 0.844,-2.656 2.281,-2.656 1.407,0 2.266,0.969 2.266,2.609 z m -0.828,0.016 c 0,-1.172 -0.563,-1.891 -1.438,-1.891 -0.89,0 -1.437,0.703 -1.437,1.922 0,1.203 0.547,1.922 1.437,1.922 0.891,0 1.438,-0.703 1.438,-1.953 z" /><path
         id="path476"
         style="fill:#000000;fill-opacity:1;fill-rule:nonzero;stroke:none"
         d="m 18.91,0.144 0,5.032 -0.797,0 0,-5.032 0.797,0 z m 0.11,5.782 0,1 -1,0 0,-1 1,0 z" /><path
         id="path478"
         style="fill:#000000;fill-opacity:1;fill-rule:nonzero;stroke:none"
         d="m 24.246,0.144 0,3.797 c 0,0.844 -0.625,1.375 -1.594,1.375 -0.75,0 -1.218,-0.281 -1.672,-0.984 l 0,0.844 -0.734,0 0,-5.032 0.797,0 0,2.766 c 0,1.031 0.562,1.703 1.375,1.703 0.625,0 1.031,-0.375 1.031,-0.984 l 0,-3.485 0.797,0 z" /><path
         id="path480"
         style="fill:#000000;fill-opacity:1;fill-rule:nonzero;stroke:none"
         d="m 27.348,0.144 0,0.672 c -0.11,-0.031 -0.235,-0.031 -0.391,-0.031 -0.344,0 -0.437,0.094 -0.437,0.438 l 0,3.296 0.828,0 0,0.657 -0.828,0 0,1.375 -0.797,0 0,-1.375 -0.672,0 0,-0.657 0.672,0 0,-3.64 c 0,-0.516 0.343,-0.797 0.968,-0.797 0.188,0 0.391,0.016 0.657,0.062 z" /><path
         id="path482"
         style="fill:#000000;fill-opacity:1;fill-rule:nonzero;stroke:none"
         d="m 31.988,1.551 c 0,0.75 -0.422,1.125 -1.422,1.359 l -0.765,0.188 c -0.656,0.156 -0.938,0.359 -0.938,0.718 0,0.469 0.422,0.766 1.063,0.766 0.656,0 1,-0.281 1.015,-0.813 l 0.844,0 c -0.015,0.985 -0.656,1.547 -1.828,1.547 -1.172,0 -1.922,-0.609 -1.922,-1.531 0,-0.797 0.406,-1.172 1.594,-1.453 l 0.75,-0.188 c 0.547,-0.125 0.766,-0.296 0.766,-0.656 0,-0.469 -0.469,-0.75 -1.172,-0.75 -0.719,0 -1.11,0.172 -1.219,0.938 l -0.844,0 c 0.031,-1.157 0.688,-1.672 2,-1.672 1.266,0 2.078,0.578 2.078,1.547 z" /><path
         id="path484"
         style="fill:#000000;fill-opacity:1;fill-rule:nonzero;stroke:none"
         d="m 37.332,3.082 0,0.656 -4.297,0 0,-0.656 4.297,0 z m 0,-1.734 0,0.656 -4.297,0 0,-0.656 4.297,0 z" /><path
         id="path486"
         style="fill:#000000;fill-opacity:1;fill-rule:nonzero;stroke:none"
         d="m 42.91,2.066 c 0,0.75 -0.39,1.282 -1.172,1.657 0.703,0.421 0.938,0.765 0.938,1.406 0,1.062 -0.844,1.812 -2.047,1.812 -1.203,0 -2.047,-0.75 -2.047,-1.812 0,-0.625 0.234,-0.969 0.922,-1.406 -0.781,-0.375 -1.156,-0.907 -1.156,-1.657 0,-1.234 0.937,-2.062 2.281,-2.062 1.344,0 2.281,0.828 2.281,2.062 z m -1.109,3.047 c 0,-0.625 -0.469,-1.047 -1.172,-1.047 -0.719,0 -1.188,0.422 -1.188,1.063 0,0.64 0.469,1.062 1.188,1.062 0.719,0 1.172,-0.422 1.172,-1.078 z m 0.25,-3.062 c 0,-0.797 -0.578,-1.297 -1.438,-1.297 -0.828,0 -1.406,0.5 -1.406,1.297 0,0.797 0.578,1.297 1.422,1.297 0.844,0 1.422,-0.5 1.422,-1.297 z" /><path
         id="path488"
         style="fill:#000000;fill-opacity:1;fill-rule:nonzero;stroke:none"
         d="m 48.184,3.41 c 0,2.359 -0.75,3.531 -2.219,3.531 -1.469,0 -2.235,-1.187 -2.235,-3.468 0,-2.297 0.782,-3.469 2.235,-3.469 1.437,0 2.219,1.172 2.219,3.406 z m -0.86,0.078 c 0,-1.922 -0.437,-2.781 -1.375,-2.781 -0.89,0 -1.344,0.891 -1.344,2.75 0,1.875 0.454,2.734 1.36,2.734 0.906,0 1.359,-0.875 1.359,-2.703 z" /><path
         id="path490"
         style="fill:#000000;fill-opacity:1;fill-rule:nonzero;stroke:none"
         d="m 53.52,3.41 c 0,2.359 -0.75,3.531 -2.219,3.531 -1.469,0 -2.235,-1.187 -2.235,-3.468 0,-2.297 0.782,-3.469 2.235,-3.469 1.437,0 2.219,1.172 2.219,3.406 z m -0.86,0.078 c 0,-1.922 -0.437,-2.781 -1.375,-2.781 -0.89,0 -1.344,0.891 -1.344,2.75 0,1.875 0.454,2.734 1.36,2.734 0.906,0 1.359,-0.875 1.359,-2.703 z" /><path
         id="path492"
         style="fill:none;stroke:#000080;stroke-width:1.60000002;stroke-linecap:square;stroke-linejoin:bevel;stroke-miterlimit:4;stroke-dasharray:none;stroke-opacity:1"
         d="m 485.934,68.144 40,0" /><path
         id="path494"
         style="fill:none;stroke:#000080;stroke-width:1.60000002;stroke-linecap:square;stroke-linejoin:bevel;stroke-miterlimit:4;stroke-dasharray:none;stroke-opacity:1"
         d="m 397.934,68.144 40,0" /><path
         id="path496"
         style="fill:#000080;fill-opacity:1;fill-rule:evenodd;stroke:none"
         d="m 460.332,45.742 3.203,0 0,-3.199 -3.203,0 0,3.199 z" /><path
         id="path498"
         style="fill:#000080;fill-opacity:1;fill-rule:evenodd;stroke:none"
         d="m 524.332,69.742 3.203,0 0,-3.199 -3.203,0 0,3.199 z" /><path
         id="path500"
         style="fill:#000080;fill-opacity:1;fill-rule:evenodd;stroke:none"
         d="m 572.332,69.742 3.203,0 0,-3.199 -3.203,0 0,3.199 z" /><path
         id="path502"
         style="fill:#000080;fill-opacity:1;fill-rule:evenodd;stroke:none"
         d="m 396.332,69.742 3.203,0 0,-3.199 -3.203,0 0,3.199 z" /><path
         id="path504"
         style="fill:#000080;fill-opacity:1;fill-rule:evenodd;stroke:none"
         d="m 348.332,69.742 3.203,0 0,-3.199 -3.203,0 0,3.199 z" /><path
         id="path506"
         style="fill:#000080;fill-opacity:1;fill-rule:evenodd;stroke:none"
         d="m 436.332,69.742 3.203,0 0,-3.199 -3.203,0 0,3.199 z" /><path
         id="path508"
         style="fill:#000080;fill-opacity:1;fill-rule:evenodd;stroke:none"
         d="m 484.332,69.742 3.203,0 0,-3.199 -3.203,0 0,3.199 z" /></g></g></svg>