<?xml version="1.0" encoding="UTF-8" standalone="no"?>
<svg
   xmlns:dc="http://purl.org/dc/elements/1.1/"
   xmlns:cc="http://creativecommons.org/ns#"
   xmlns:rdf="http://www.w3.org/1999/02/22-rdf-syntax-ns#"
   xmlns:svg="http://www.w3.org/2000/svg"
   xmlns="http://www.w3.org/2000/svg"
   viewBox="0 0 598.41602 372.116"
   height="372.116"
   width="598.41602"
   xml:space="preserve"
   version="1.1"
   id="svg2"><metadata
     id="metadata8"><rdf:RDF><cc:Work
         rdf:about=""><dc:format>image/svg+xml</dc:format><dc:type
           rdf:resource="http://purl.org/dc/dcmitype/StillImage" /></cc:Work></rdf:RDF></metadata><defs
     id="defs6" /><g
     transform="matrix(1.25,0,0,-1.25,0,372.11601)"
     id="g10"><g
       id="g12"><path
         id="path14"
         style="fill:none;stroke:#c0c0c0;stroke-width:0.80000001;stroke-linecap:square;stroke-linejoin:bevel;stroke-miterlimit:4;stroke-dasharray:0.8, 1.6;stroke-dashoffset:0;stroke-opacity:1"
         d="m 91.969,284.494 381.601,0" /><path
         id="path16"
         style="fill:none;stroke:#c0c0c0;stroke-width:0.80000001;stroke-linecap:square;stroke-linejoin:bevel;stroke-miterlimit:4;stroke-dasharray:0.8, 1.6;stroke-dashoffset:0;stroke-opacity:1"
         d="m 91.969,259.689 381.601,0" /><path
         id="path18"
         style="fill:none;stroke:#c0c0c0;stroke-width:0.80000001;stroke-linecap:square;stroke-linejoin:bevel;stroke-miterlimit:4;stroke-dasharray:0.8, 1.6;stroke-dashoffset:0;stroke-opacity:1"
         d="m 91.969,234.896 381.601,0" /><path
         id="path20"
         style="fill:none;stroke:#c0c0c0;stroke-width:0.80000001;stroke-linecap:square;stroke-linejoin:bevel;stroke-miterlimit:4;stroke-dasharray:0.8, 1.6;stroke-dashoffset:0;stroke-opacity:1"
         d="m 91.969,210.095 381.601,0" /><path
         id="path22"
         style="fill:none;stroke:#c0c0c0;stroke-width:0.80000001;stroke-linecap:square;stroke-linejoin:bevel;stroke-miterlimit:4;stroke-dasharray:0.8, 1.6;stroke-dashoffset:0;stroke-opacity:1"
         d="m 91.969,184.494 381.601,0" /><path
         id="path24"
         style="fill:none;stroke:#c0c0c0;stroke-width:0.80000001;stroke-linecap:square;stroke-linejoin:bevel;stroke-miterlimit:4;stroke-dasharray:0.8, 1.6;stroke-dashoffset:0;stroke-opacity:1"
         d="m 91.969,159.689 381.601,0" /><path
         id="path26"
         style="fill:none;stroke:#c0c0c0;stroke-width:0.80000001;stroke-linecap:square;stroke-linejoin:bevel;stroke-miterlimit:4;stroke-dasharray:0.8, 1.6;stroke-dashoffset:0;stroke-opacity:1"
         d="m 91.969,134.896 381.601,0" /><path
         id="path28"
         style="fill:none;stroke:#c0c0c0;stroke-width:0.80000001;stroke-linecap:square;stroke-linejoin:bevel;stroke-miterlimit:4;stroke-dasharray:0.8, 1.6;stroke-dashoffset:0;stroke-opacity:1"
         d="m 91.969,110.095 381.601,0" /><path
         id="path30"
         style="fill:none;stroke:#c0c0c0;stroke-width:0.80000001;stroke-linecap:square;stroke-linejoin:bevel;stroke-miterlimit:4;stroke-dasharray:0.8, 1.6;stroke-dashoffset:0;stroke-opacity:1"
         d="m 91.969,84.494 381.601,0" /><path
         id="path32"
         style="fill:none;stroke:#c0c0c0;stroke-width:0.80000001;stroke-linecap:square;stroke-linejoin:bevel;stroke-miterlimit:4;stroke-dasharray:0.8, 1.6;stroke-dashoffset:0;stroke-opacity:1"
         d="m 91.969,59.689 381.601,0" /><path
         id="path34"
         style="fill:none;stroke:#c0c0c0;stroke-width:0.80000001;stroke-linecap:square;stroke-linejoin:bevel;stroke-miterlimit:4;stroke-dasharray:0.8, 1.6;stroke-dashoffset:0;stroke-opacity:1"
         d="m 378.375,297.294 0,-262.398" /><path
         id="path36"
         style="fill:none;stroke:#c0c0c0;stroke-width:0.80000001;stroke-linecap:square;stroke-linejoin:bevel;stroke-miterlimit:4;stroke-dasharray:0.8, 1.6;stroke-dashoffset:0;stroke-opacity:1"
         d="m 283.168,297.294 0,-262.398" /><path
         id="path38"
         style="fill:none;stroke:#c0c0c0;stroke-width:0.80000001;stroke-linecap:square;stroke-linejoin:bevel;stroke-miterlimit:4;stroke-dasharray:0.8, 1.6;stroke-dashoffset:0;stroke-opacity:1"
         d="m 187.168,297.294 0,-262.398" /><path
         id="path40"
         style="fill:none;stroke:#000000;stroke-width:0.80000001;stroke-linecap:square;stroke-linejoin:bevel;stroke-miterlimit:4;stroke-dasharray:none;stroke-opacity:1"
         d="m 91.969,38.896 0,-8" /><path
         id="path42"
         style="fill:none;stroke:#000000;stroke-width:0.80000001;stroke-linecap:square;stroke-linejoin:bevel;stroke-miterlimit:4;stroke-dasharray:none;stroke-opacity:1"
         d="m 187.168,38.896 0,-8" /><path
         id="path44"
         style="fill:none;stroke:#000000;stroke-width:0.80000001;stroke-linecap:square;stroke-linejoin:bevel;stroke-miterlimit:4;stroke-dasharray:none;stroke-opacity:1"
         d="m 283.168,38.896 0,-8" /><path
         id="path46"
         style="fill:none;stroke:#000000;stroke-width:0.80000001;stroke-linecap:square;stroke-linejoin:bevel;stroke-miterlimit:4;stroke-dasharray:none;stroke-opacity:1"
         d="m 378.375,38.896 0,-8" /><path
         id="path48"
         style="fill:none;stroke:#000000;stroke-width:0.80000001;stroke-linecap:square;stroke-linejoin:bevel;stroke-miterlimit:4;stroke-dasharray:none;stroke-opacity:1"
         d="m 473.57,38.896 0,-8" /><path
         id="path50"
         style="fill:none;stroke:#000000;stroke-width:0.80000001;stroke-linecap:square;stroke-linejoin:bevel;stroke-miterlimit:4;stroke-dasharray:none;stroke-opacity:1"
         d="m 87.969,34.896 8,0" /><path
         id="path52"
         style="fill:none;stroke:#000000;stroke-width:0.80000001;stroke-linecap:square;stroke-linejoin:bevel;stroke-miterlimit:4;stroke-dasharray:none;stroke-opacity:1"
         d="m 87.969,59.689 8,0" /><path
         id="path54"
         style="fill:none;stroke:#000000;stroke-width:0.80000001;stroke-linecap:square;stroke-linejoin:bevel;stroke-miterlimit:4;stroke-dasharray:none;stroke-opacity:1"
         d="m 87.969,84.494 8,0" /><path
         id="path56"
         style="fill:none;stroke:#000000;stroke-width:0.80000001;stroke-linecap:square;stroke-linejoin:bevel;stroke-miterlimit:4;stroke-dasharray:none;stroke-opacity:1"
         d="m 87.969,110.095 8,0" /><path
         id="path58"
         style="fill:none;stroke:#000000;stroke-width:0.80000001;stroke-linecap:square;stroke-linejoin:bevel;stroke-miterlimit:4;stroke-dasharray:none;stroke-opacity:1"
         d="m 87.969,134.896 8,0" /><path
         id="path60"
         style="fill:none;stroke:#000000;stroke-width:0.80000001;stroke-linecap:square;stroke-linejoin:bevel;stroke-miterlimit:4;stroke-dasharray:none;stroke-opacity:1"
         d="m 87.969,159.689 8,0" /><path
         id="path62"
         style="fill:none;stroke:#000000;stroke-width:0.80000001;stroke-linecap:square;stroke-linejoin:bevel;stroke-miterlimit:4;stroke-dasharray:none;stroke-opacity:1"
         d="m 87.969,184.494 8,0" /><path
         id="path64"
         style="fill:none;stroke:#000000;stroke-width:0.80000001;stroke-linecap:square;stroke-linejoin:bevel;stroke-miterlimit:4;stroke-dasharray:none;stroke-opacity:1"
         d="m 87.969,210.095 8,0" /><path
         id="path66"
         style="fill:none;stroke:#000000;stroke-width:0.80000001;stroke-linecap:square;stroke-linejoin:bevel;stroke-miterlimit:4;stroke-dasharray:none;stroke-opacity:1"
         d="m 87.969,234.896 8,0" /><path
         id="path68"
         style="fill:none;stroke:#000000;stroke-width:0.80000001;stroke-linecap:square;stroke-linejoin:bevel;stroke-miterlimit:4;stroke-dasharray:none;stroke-opacity:1"
         d="m 87.969,259.689 8,0" /><path
         id="path70"
         style="fill:none;stroke:#000000;stroke-width:0.80000001;stroke-linecap:square;stroke-linejoin:bevel;stroke-miterlimit:4;stroke-dasharray:none;stroke-opacity:1"
         d="m 87.969,284.494 8,0" /><path
         id="path72"
         style="fill:none;stroke:#000000;stroke-width:0.80000001;stroke-linecap:square;stroke-linejoin:bevel;stroke-miterlimit:4;stroke-dasharray:none;stroke-opacity:1"
         d="m 91.969,297.294 381.601,0" /><path
         id="path74"
         style="fill:none;stroke:#000000;stroke-width:0.80000001;stroke-linecap:square;stroke-linejoin:bevel;stroke-miterlimit:4;stroke-dasharray:none;stroke-opacity:1"
         d="m 473.57,297.294 0,-262.398" /><path
         id="path76"
         style="fill:none;stroke:#000000;stroke-width:0.80000001;stroke-linecap:square;stroke-linejoin:bevel;stroke-miterlimit:4;stroke-dasharray:none;stroke-opacity:1"
         d="m 91.969,34.896 381.601,0" /><path
         id="path78"
         style="fill:none;stroke:#000000;stroke-width:0.80000001;stroke-linecap:square;stroke-linejoin:bevel;stroke-miterlimit:4;stroke-dasharray:none;stroke-opacity:1"
         d="m 91.969,297.294 0,-262.398" /><path
         id="path80"
         style="fill:none;stroke:#0000ff;stroke-width:0.80000001;stroke-linecap:square;stroke-linejoin:bevel;stroke-miterlimit:4;stroke-dasharray:none;stroke-opacity:1"
         d="m 124.207,34.896 0.391,2.566 0.949,5.891 0.961,5.594 0.961,5.304 0.965,5.055 0.968,4.816 0.973,4.606 0.98,4.398 0.981,4.219 0.984,4.043 0.992,3.879 0.993,3.723 1,3.582 1.004,3.449 1.007,3.316 1.016,3.196 1.012,3.074 1.019,2.969 1.024,2.863 1.031,2.758 1.035,2.656 1.035,2.57 1.043,2.473 1.051,2.391 1.047,2.304 1.055,2.223 1.062,2.141 1.063,2.062 1.07,1.984 1.078,1.914 1.074,1.84 1.082,1.766 1.09,1.703 1.09,1.629 1.098,1.566 1.105,1.496 1.102,1.43 1.113,1.367 1.117,1.301 1.117,1.238 1.125,1.172 1.133,1.11 1.133,1.043 1.137,0.98 1.148,0.918 1.149,0.856 1.152,0.785 1.16,0.722 1.168,0.657 1.168,0.589 1.172,0.52 1.18,0.449 1.187,0.379 1.184,0.301 1.195,0.238 1.203,0.152 1.207,0.075 1.207,-0.008 1.215,-0.098 1.219,-0.183 1.222,-0.278 1.231,-0.371 1.242,-0.476 1.234,-0.586 1.246,-0.7 1.254,-0.816 1.262,-0.949 1.258,-1.086 1.266,-1.231 1.273,-1.386 1.281,-1.559 1.282,-1.742 1.289,-1.941 1.296,-2.165 1.305,-2.398 1.301,-2.664 1.312,-2.957 1.317,-3.281 1.324,-3.649 1.332,-4.054 1.332,-4.528 1.336,-5.062 1.348,-5.688 1.347,-6.41 1.36,-7.277 1.363,-8.313 1.371,-9.594 1.375,-11.195 1.379,-13.273 1.383,-16.067 0.445,-6.316" /><path
         id="path82"
         style="fill:none;stroke:#0000ff;stroke-width:0.80000001;stroke-linecap:square;stroke-linejoin:bevel;stroke-miterlimit:4;stroke-dasharray:none;stroke-opacity:1"
         d="m 240.812,34.896 0.891,17.226 1.449,22.938 1.461,19.434 1.469,16.859 1.465,14.894 1.48,13.313 1.485,12.004 1.488,10.906 1.5,9.949 1.5,9.118 1.508,8.371 1.519,7.695 1.52,7.098 1.531,6.531 1.535,6.019 1.539,5.547 1.555,5.11 1.551,4.695 1.558,4.328 1.571,3.977 1.574,3.648 1.582,3.352 1.59,3.07 1.594,2.812 1.605,2.579 1.606,2.359 1.617,2.16 1.621,1.969 1.629,1.808 1.636,1.649 1.645,1.512 1.652,1.379 1.657,1.261 1.664,1.153 1.671,1.05 1.684,0.965 1.684,0.883 1.695,0.805 1.703,0.742 1.707,0.676 1.715,0.617 1.719,0.57 1.726,0.524 1.739,0.476 1.746,0.442 1.75,0.402 1.761,0.371 1.766,0.34 1.773,0.316 1.782,0.289 1.789,0.266 1.801,0.246 1.808,0.227 1.805,0.211 1.828,0.191 1.828,0.18 1.836,0.164 1.836,0.156 1.855,0.141 1.86,0.128 1.867,0.122 1.875,0.113 1.883,0.105 1.89,0.094 1.899,0.09 1.91,0.082 1.918,0.082 1.922,0.07 1.93,0.067 1.941,0.062 1.953,0.055 1.957,0.058 1.961,0.051 1.973,0.047 1.988,0.043 1.984,0.043 2,0.039 2.012,0.035 2.012,0.032 2.027,0.027 2.031,0.035 2.043,0.027 2.055,0.02 2.055,0.027 2.07,0.024 2.074,0.019 2.09,0.016 2.09,0.023 2.105,0.016 2.114,0.019 2.121,0.012 2.129,0.012 2.14,0.016 2.149,0.015 2.16,0.008 2.168,0.012 2.176,0.011 2.191,0.012 2.191,0.008 2.204,0.008 2.214,0.008 2.227,0.007 2.23,0.008 2.243,0.008 2.25,0.004 2.261,0.008 2.274,0.004 2.285,0.007 2.289,0.004 2.297,0.004 2.312,0.004 2.317,0.004 2.332,0.004 2.34,0.004 2.351,0 2.36,0.008 2.371,0.004 2.379,0.003 2.39,0 2.399,0.004 2.41,0.004 2.422,0 2.433,0.004" /><path
         id="path84"
         style="fill:none;stroke:#ff00ff;stroke-width:0.80000001;stroke-linecap:square;stroke-linejoin:bevel;stroke-miterlimit:4;stroke-dasharray:none;stroke-opacity:1"
         d="m 135.668,34.896 0.637,1.707 1.004,2.598 1.007,2.429 1.016,2.266 1.012,2.07 1.019,1.86 1.024,1.871 1.031,1.699 1.035,1.758 1.035,1.535 1.043,1.308 1.051,1.235 1.047,1.105 1.055,1.016 1.062,0.867 1.063,0.801 1.07,0.648 1.078,0.711 1.074,0.578 1.082,0.489 1.09,0.429 1.09,0.375 1.098,0.196 1.105,0.133 1.102,0.074 1.113,-0.028 1.117,-0.031 1.117,-0.086 1.125,-0.199 1.133,-0.348 1.133,-0.535 1.137,-0.781 1.148,-0.801 1.149,-0.93 1.152,-1.117 1.16,-1.297 1.168,-1.629 1.168,-1.71 1.172,-1.883 1.18,-2.032 1.187,-2.496 1.184,-2.839 1.195,-2.985 1.203,-3.215 1.207,-3.308 0.488,-1.508" /><path
         id="path86"
         style="fill:none;stroke:#ff00ff;stroke-width:0.80000001;stroke-linecap:square;stroke-linejoin:bevel;stroke-miterlimit:4;stroke-dasharray:none;stroke-opacity:1"
         d="m 224.75,34.896 1.375,10.695 1.383,9.75 1.394,9.379 1.399,9.012 1.406,8.59 1.406,8.418 1.418,8.027 1.422,7.73 1.426,7.274 1.433,7.309 1.442,7.484 1.449,7.273 1.449,6.77 1.461,6.324 1.469,6.024 1.465,5.933 1.48,5.649 1.485,5.421 1.488,5.161 1.5,4.773 1.5,4.52 1.508,4.367 1.519,4.254 1.52,4.121 1.531,3.933 1.535,3.797 1.539,3.613 1.555,3.559 1.551,3.477 1.558,3.382 1.571,3.192 1.574,3.101 1.582,3.141 1.59,3.043 1.594,2.625 1.605,2.559 1.606,2.472 1.617,2.379 1.621,2.25 1.629,2.012 1.636,1.855 1.645,1.578 1.652,1.649 1.657,1.609 1.664,1.258 1.671,1.231 1.684,1.179 1.684,1.153 1.695,1.007 1.703,1.071 1.707,1.023 1.715,0.824 1.719,0.868 1.726,0.863 1.739,0.769 1.746,0.621 1.75,0.622 1.761,0.703 1.766,0.558 1.773,0.508 1.782,0.352 1.789,0.375 1.801,0.437 1.808,0.36 1.805,0.296 1.828,0.286 1.828,0.445 1.836,0.199 1.836,0.375 1.855,0.25 1.86,0.258 1.867,0.426 1.875,0.386 1.883,0.286 1.89,0.382 1.899,0.289 1.91,0.262 1.918,0.215 1.922,0.207 1.93,0.074 1.941,0.059 1.953,0.125 1.957,-0.016 1.961,0.11 1.973,0.007 1.988,0.02 1.984,-0.047 2,0.008 2.012,0.082 2.012,0.117 2.027,0.067 2.031,0.082 2.043,0.011 2.055,0.18 2.055,0.012 2.07,0.086 2.074,0.105 2.09,0.016 2.09,-0.028 2.105,-0.242 2.114,-0.129 2.121,-0.25 2.129,-0.164 2.14,-0.211 2.149,-0.195 2.16,-0.121 2.168,-0.016 2.176,-0.074 2.191,-0.133 2.191,0.043 2.204,0.043 2.214,0.051 2.227,0.074 2.23,-0.199 2.243,-0.039 2.25,-0.067 2.261,-0.125 2.274,-0.089 2.285,-0.188 2.289,-0.109 2.297,-0.121 2.312,-0.067 2.317,-0.051 2.332,0 2.34,-0.218 2.351,-0.098 2.36,-0.125 2.371,-0.094 2.379,-0.242 2.39,-0.117 2.399,-0.324 2.41,-0.301 2.422,-0.301 2.433,-0.168" /><path
         id="path88"
         style="fill:none;stroke:#00ff00;stroke-width:0.80000001;stroke-linecap:square;stroke-linejoin:bevel;stroke-miterlimit:4;stroke-dasharray:none;stroke-opacity:1"
         d="m 91.969,70.751 0.07,-0.078 0.813,-0.945 0.816,-0.984 0.828,-1.016 0.82,-1.051 0.829,-1.09 0.828,-1.125 0.836,-1.168 0.839,-1.207 0.848,-1.25 0.84,-1.297 0.852,-1.339 0.855,-1.391 0.855,-1.438 0.86,-1.492 0.867,-1.547 0.863,-1.605 0.875,-1.664 0.875,-1.727 0.883,-1.793 0.879,-1.859 0.883,-1.934 0.89,-2.011 0.895,-2.094 0.898,-2.172 0.231,-0.578" /><path
         id="path90"
         style="fill:none;stroke:#00ff00;stroke-width:0.80000001;stroke-linecap:square;stroke-linejoin:bevel;stroke-miterlimit:4;stroke-dasharray:none;stroke-opacity:1"
         d="m 175.887,34.896 0.531,1.883 1.172,3.965 1.18,3.789 1.187,3.621 1.184,3.453 1.195,3.305 1.203,3.152 1.207,3.008 1.207,2.867 1.215,2.73 1.219,2.598 1.222,2.465 1.231,2.332 1.242,2.207 1.234,2.082 1.246,1.957 1.254,1.828 1.262,1.703 1.258,1.574 1.266,1.438 1.273,1.316 1.281,1.18 1.282,1.043 1.289,0.902 1.296,0.758 1.305,0.61 1.301,0.453 1.312,0.289 1.317,0.117 1.324,-0.059 1.332,-0.254 1.332,-0.453 1.336,-0.668 1.348,-0.902 1.347,-1.156 1.36,-1.426 1.363,-1.723 1.371,-2.05 1.375,-2.415 1.379,-2.82 1.383,-3.273 1.394,-3.789 1.399,-4.375 1.406,-5.059 1.406,-5.852 1.418,-6.8 1.422,-7.934 1.168,-7.617" /><path
         id="path92"
         style="fill:none;stroke:#00ff00;stroke-width:0.80000001;stroke-linecap:square;stroke-linejoin:bevel;stroke-miterlimit:4;stroke-dasharray:none;stroke-opacity:1"
         d="m 255.863,34.896 0.645,10.043 1.519,20.32 1.52,17.93 1.531,16.051 1.535,14.511 1.539,13.231 1.555,12.125 1.551,11.172 1.558,10.316 1.571,9.543 1.574,8.844 1.582,8.195 1.59,7.59 1.594,7.027 1.605,6.5 1.606,6 1.617,5.528 1.621,5.086 1.629,4.675 1.636,4.282 1.645,3.918 1.652,3.574 1.657,3.265 1.664,2.969 1.671,2.699 1.684,2.454 1.684,2.222 1.695,2.012 1.703,1.82 1.707,1.649 1.715,1.492 1.719,1.348 1.726,1.214 1.739,1.102 1.746,0.996 1.75,0.898 1.761,0.809 1.766,0.734 1.773,0.665 1.782,0.601 1.789,0.543 1.801,0.492 1.808,0.449 1.805,0.399 1.828,0.371 1.828,0.332 1.836,0.297 1.836,0.277 1.855,0.25 1.86,0.223 1.867,0.207 1.875,0.187 1.883,0.168 1.89,0.153 1.899,0.14 1.91,0.129 1.918,0.114 1.922,0.105 1.93,0.09 1.941,0.09 1.953,0.074 1.957,0.078 1.961,0.063 1.973,0.058 1.988,0.051 1.984,0.043 2,0.043 2.012,0.039 2.012,0.035 2.027,0.031 2.031,0.02 2.043,0.027 2.055,0.02 2.055,0.015 2.07,0.016 2.074,0.012 4.18,0.015 2.105,0.008 2.114,0.004 6.39,0 2.149,-0.004 2.16,-0.004 2.168,-0.008 2.176,-0.003 2.191,-0.008 2.191,-0.012 2.204,-0.008 2.214,-0.012 2.227,-0.011 2.23,-0.016 2.243,-0.012 2.25,-0.019 2.261,-0.012 2.274,-0.015 2.285,-0.016 2.289,-0.02 2.297,-0.023 2.312,-0.016 2.317,-0.023 2.332,-0.016 2.34,-0.019 2.351,-0.024 2.36,-0.027 2.371,-0.016 2.379,-0.027 2.39,-0.023 2.399,-0.024 2.41,-0.023 2.422,-0.028 2.433,-0.027" /><path
         id="path94"
         style="fill:none;stroke:#00ffff;stroke-width:0.80000001;stroke-linecap:square;stroke-linejoin:bevel;stroke-miterlimit:4;stroke-dasharray:none;stroke-opacity:1"
         d="m 91.969,69.287 0.07,-0.079 0.813,-0.953 0.816,-0.988 0.828,-1.023 0.82,-1.059 0.829,-1.098 0.828,-1.132 0.836,-1.172 0.839,-1.219 0.848,-1.254 0.84,-1.301 0.852,-1.347 0.855,-1.395 0.855,-1.445 0.86,-1.5 0.867,-1.555 0.863,-1.609 0.875,-1.668 0.875,-1.735 0.883,-1.797 0.879,-1.867 0.883,-1.945 0.89,-2.012 0.895,-2.097 0.473,-1.141" /><path
         id="path96"
         style="fill:none;stroke:#00ffff;stroke-width:0.80000001;stroke-linecap:square;stroke-linejoin:bevel;stroke-miterlimit:4;stroke-dasharray:none;stroke-opacity:1"
         d="m 176.508,34.896 1.082,3.625 1.18,3.769 1.187,3.598 1.184,3.438 1.195,3.277 1.203,3.137 1.207,2.988 1.207,2.852 1.215,2.71 1.219,2.579 1.222,2.445 1.231,2.32 1.242,2.192 1.234,2.066 1.246,1.938 1.254,1.808 1.262,1.684 1.258,1.558 1.266,1.426 1.273,1.297 1.281,1.164 1.282,1.027 1.289,0.887 1.296,0.742 1.305,0.594 1.301,0.434 1.312,0.277 1.317,0.102 1.324,-0.075 1.332,-0.265 1.332,-0.469 1.336,-0.68 1.348,-0.91 1.347,-1.164 1.36,-1.434 1.363,-1.73 1.371,-2.051 1.375,-2.41 1.379,-2.809 1.383,-3.257 1.394,-3.762 1.399,-4.332 1.406,-4.992 1.406,-5.766 1.418,-6.664 1.422,-7.746 0.856,-5.418" /><path
         id="path98"
         style="fill:none;stroke:#00ffff;stroke-width:0.80000001;stroke-linecap:square;stroke-linejoin:bevel;stroke-miterlimit:4;stroke-dasharray:none;stroke-opacity:1"
         d="m 255.906,34.896 0.602,8.793 1.519,19.453 1.52,17.34 1.531,15.625 1.535,14.195 1.539,12.981 1.555,11.925 1.551,11 1.558,10.18 1.571,9.426 1.574,8.75 1.582,8.121 1.59,7.527 1.594,6.977 1.605,6.469 1.606,5.976 1.617,5.524 1.621,5.086 1.629,4.683 1.636,4.305 1.645,3.945 1.652,3.617 1.657,3.301 1.664,3.012 1.671,2.75 1.684,2.508 1.684,2.277 1.695,2.066 1.703,1.879 1.707,1.707 1.715,1.547 1.719,1.403 1.726,1.273 1.739,1.152 1.746,1.047 1.75,0.949 1.761,0.856 1.766,0.785 1.773,0.707 1.782,0.645 1.789,0.582 1.801,0.531 1.808,0.484 1.805,0.434 1.828,0.402 1.828,0.364 1.836,0.328 1.836,0.3 1.855,0.27 1.86,0.25 1.867,0.234 1.875,0.207 1.883,0.188 1.89,0.172 1.899,0.16 1.91,0.141 1.918,0.132 1.922,0.118 1.93,0.109 1.941,0.098 1.953,0.089 1.957,0.082 1.961,0.075 1.973,0.066 1.988,0.059 1.984,0.054 2,0.047 2.012,0.043 2.012,0.039 2.027,0.035 2.031,0.032 2.043,0.027 4.11,0.039 2.07,0.02 2.074,0.011 2.09,0.012 2.09,0.004 2.105,0.008 2.114,0.004 2.121,0.004 2.129,0 2.14,-0.004 2.149,-0.004 2.16,-0.008 2.168,-0.008 2.176,-0.008 2.191,-0.011 2.191,-0.016 2.204,-0.008 2.214,-0.015 2.227,-0.016 2.23,-0.016 2.243,-0.019 2.25,-0.02 2.261,-0.019 2.274,-0.02 2.285,-0.023 2.289,-0.024 2.297,-0.027 2.312,-0.02 2.317,-0.027 2.332,-0.027 2.34,-0.028 2.351,-0.027 2.36,-0.035 2.371,-0.024 2.379,-0.031 2.39,-0.031 2.399,-0.039 2.41,-0.027 2.422,-0.036 2.433,-0.031" /><path
         id="path100"
         style="fill:#000000;fill-opacity:1;fill-rule:nonzero;stroke:none"
         d="m 84.898,20.494 0,6.796 -0.562,0 c -0.297,-1.046 -0.484,-1.187 -1.781,-1.343 l 0,-0.61 1.5,0 0,-4.843 0.843,0 z" /><path
         id="path102"
         style="fill:#000000;fill-opacity:1;fill-rule:nonzero;stroke:none"
         d="m 91.832,22.775 c 0,0.734 -0.062,1.187 -0.203,1.562 -0.328,0.828 -1.094,1.328 -2.031,1.328 -1.407,0 -2.297,-1.031 -2.297,-2.687 0,-1.656 0.859,-2.625 2.281,-2.625 1.141,0 1.938,0.656 2.141,1.672 l -0.797,0 c -0.219,-0.672 -0.672,-0.938 -1.313,-0.938 -0.843,0 -1.468,0.532 -1.484,1.688 l 3.703,0 z m -0.859,0.719 c 0,0 0,-0.047 0,-0.063 l -2.828,0 c 0.078,0.891 0.64,1.5 1.437,1.5 0.797,0 1.391,-0.656 1.391,-1.437 z" /><path
         id="path104"
         style="fill:#000000;fill-opacity:1;fill-rule:nonzero;stroke:none"
         d="m 97.137,24.056 c 0,2.125 -0.75,3.234 -2.297,3.234 -1.297,0 -2.235,-0.921 -2.235,-2.25 0,-1.265 0.875,-2.125 2.094,-2.125 0.641,0 1.11,0.235 1.563,0.766 -0.016,-1.656 -0.547,-2.578 -1.516,-2.578 -0.594,0 -1.016,0.375 -1.141,1.016 l -0.843,0 c 0.156,-1.11 0.89,-1.766 1.922,-1.766 1.593,0 2.453,1.344 2.453,3.703 z m -0.922,1 c 0,-0.828 -0.594,-1.391 -1.422,-1.391 -0.813,0 -1.313,0.532 -1.313,1.438 0,0.875 0.563,1.453 1.344,1.453 0.797,0 1.391,-0.609 1.391,-1.5 z" /><path
         id="path106"
         style="fill:#000000;fill-opacity:1;fill-rule:nonzero;stroke:none"
         d="m 174.496,20.494 0,6.796 -0.562,0 c -0.297,-1.046 -0.485,-1.187 -1.782,-1.343 l 0,-0.61 1.5,0 0,-4.843 0.844,0 z" /><path
         id="path108"
         style="fill:#000000;fill-opacity:1;fill-rule:nonzero;stroke:none"
         d="m 177.332,21.494 1,0 0,-1 -1,0 0,1 z" /><path
         id="path110"
         style="fill:#000000;fill-opacity:1;fill-rule:nonzero;stroke:none"
         d="m 184.098,22.744 c 0,1.343 -0.891,2.234 -2.203,2.234 -0.469,0 -0.86,-0.125 -1.25,-0.422 l 0.265,1.766 2.828,0 0,0.828 -3.5,0 -0.515,-3.563 0.781,0 c 0.391,0.469 0.719,0.641 1.25,0.641 0.906,0 1.484,-0.594 1.484,-1.594 0,-0.984 -0.578,-1.531 -1.484,-1.531 -0.75,0 -1.203,0.375 -1.391,1.141 l -0.859,0 c 0.281,-1.36 1.047,-1.891 2.266,-1.891 1.375,0 2.328,0.953 2.328,2.391 z" /><path
         id="path112"
         style="fill:#000000;fill-opacity:1;fill-rule:nonzero;stroke:none"
         d="m 189.434,22.775 c 0,0.734 -0.063,1.187 -0.204,1.562 -0.328,0.828 -1.093,1.328 -2.031,1.328 -1.406,0 -2.297,-1.031 -2.297,-2.687 0,-1.656 0.86,-2.625 2.282,-2.625 1.14,0 1.937,0.656 2.14,1.672 l -0.797,0 c -0.218,-0.672 -0.672,-0.938 -1.312,-0.938 -0.844,0 -1.469,0.532 -1.485,1.688 l 3.704,0 z m -0.86,0.719 c 0,0 0,-0.047 0,-0.063 l -2.828,0 c 0.078,0.891 0.641,1.5 1.438,1.5 0.796,0 1.39,-0.656 1.39,-1.437 z" /><path
         id="path114"
         style="fill:#000000;fill-opacity:1;fill-rule:nonzero;stroke:none"
         d="m 194.738,24.056 c 0,2.125 -0.75,3.234 -2.297,3.234 -1.296,0 -2.234,-0.921 -2.234,-2.25 0,-1.265 0.875,-2.125 2.094,-2.125 0.64,0 1.109,0.235 1.562,0.766 -0.015,-1.656 -0.547,-2.578 -1.515,-2.578 -0.594,0 -1.016,0.375 -1.141,1.016 l -0.844,0 c 0.157,-1.11 0.891,-1.766 1.922,-1.766 1.594,0 2.453,1.344 2.453,3.703 z m -0.922,1 c 0,-0.828 -0.593,-1.391 -1.421,-1.391 -0.813,0 -1.313,0.532 -1.313,1.438 0,0.875 0.563,1.453 1.344,1.453 0.797,0 1.39,-0.609 1.39,-1.5 z" /><path
         id="path116"
         style="fill:#000000;fill-opacity:1;fill-rule:nonzero;stroke:none"
         d="m 277.676,25.306 c 0,1.141 -0.891,1.984 -2.188,1.984 -1.39,0 -2.187,-0.703 -2.234,-2.359 l 0.844,0 c 0.062,1.141 0.531,1.625 1.375,1.625 0.765,0 1.328,-0.547 1.328,-1.281 0,-0.531 -0.313,-0.985 -0.906,-1.344 l -0.891,-0.5 c -1.422,-0.797 -1.828,-1.437 -1.906,-2.937 l 4.531,0 0,0.828 -3.578,0 c 0.078,0.562 0.39,0.922 1.219,1.406 l 0.968,0.516 c 0.938,0.515 1.438,1.218 1.438,2.062 z" /><path
         id="path118"
         style="fill:#000000;fill-opacity:1;fill-rule:nonzero;stroke:none"
         d="m 283.031,22.775 c 0,0.734 -0.062,1.187 -0.203,1.562 -0.328,0.828 -1.094,1.328 -2.031,1.328 -1.406,0 -2.297,-1.031 -2.297,-2.687 0,-1.656 0.859,-2.625 2.281,-2.625 1.141,0 1.938,0.656 2.141,1.672 l -0.797,0 c -0.219,-0.672 -0.672,-0.938 -1.313,-0.938 -0.843,0 -1.468,0.532 -1.484,1.688 l 3.703,0 z m -0.859,0.719 c 0,0 0,-0.047 0,-0.063 l -2.828,0 c 0.078,0.891 0.64,1.5 1.437,1.5 0.797,0 1.391,-0.656 1.391,-1.437 z" /><path
         id="path120"
         style="fill:#000000;fill-opacity:1;fill-rule:nonzero;stroke:none"
         d="m 288.336,24.056 c 0,2.125 -0.75,3.234 -2.297,3.234 -1.297,0 -2.234,-0.921 -2.234,-2.25 0,-1.265 0.875,-2.125 2.093,-2.125 0.641,0 1.11,0.235 1.563,0.766 -0.016,-1.656 -0.547,-2.578 -1.516,-2.578 -0.593,0 -1.015,0.375 -1.14,1.016 l -0.844,0 c 0.156,-1.11 0.891,-1.766 1.922,-1.766 1.594,0 2.453,1.344 2.453,3.703 z m -0.922,1 c 0,-0.828 -0.594,-1.391 -1.422,-1.391 -0.812,0 -1.312,0.532 -1.312,1.438 0,0.875 0.562,1.453 1.343,1.453 0.797,0 1.391,-0.609 1.391,-1.5 z" /><path
         id="path122"
         style="fill:#000000;fill-opacity:1;fill-rule:nonzero;stroke:none"
         d="m 367.273,25.306 c 0,1.141 -0.89,1.984 -2.187,1.984 -1.391,0 -2.188,-0.703 -2.234,-2.359 l 0.843,0 c 0.063,1.141 0.532,1.625 1.375,1.625 0.766,0 1.328,-0.547 1.328,-1.281 0,-0.531 -0.312,-0.985 -0.906,-1.344 l -0.89,-0.5 c -1.422,-0.797 -1.829,-1.437 -1.907,-2.937 l 4.532,0 0,0.828 -3.579,0 c 0.079,0.562 0.391,0.922 1.219,1.406 l 0.969,0.516 c 0.937,0.515 1.437,1.218 1.437,2.062 z" /><path
         id="path124"
         style="fill:#000000;fill-opacity:1;fill-rule:nonzero;stroke:none"
         d="m 368.535,21.494 1,0 0,-1 -1,0 0,1 z" /><path
         id="path126"
         style="fill:#000000;fill-opacity:1;fill-rule:nonzero;stroke:none"
         d="m 375.297,22.744 c 0,1.343 -0.891,2.234 -2.203,2.234 -0.469,0 -0.86,-0.125 -1.25,-0.422 l 0.265,1.766 2.829,0 0,0.828 -3.5,0 -0.516,-3.563 0.781,0 c 0.391,0.469 0.719,0.641 1.25,0.641 0.906,0 1.485,-0.594 1.485,-1.594 0,-0.984 -0.579,-1.531 -1.485,-1.531 -0.75,0 -1.203,0.375 -1.391,1.141 l -0.859,0 c 0.281,-1.36 1.047,-1.891 2.266,-1.891 1.375,0 2.328,0.953 2.328,2.391 z" /><path
         id="path128"
         style="fill:#000000;fill-opacity:1;fill-rule:nonzero;stroke:none"
         d="m 380.633,22.775 c 0,0.734 -0.063,1.187 -0.203,1.562 -0.328,0.828 -1.094,1.328 -2.032,1.328 -1.406,0 -2.296,-1.031 -2.296,-2.687 0,-1.656 0.859,-2.625 2.281,-2.625 1.14,0 1.937,0.656 2.14,1.672 l -0.796,0 c -0.219,-0.672 -0.672,-0.938 -1.313,-0.938 -0.844,0 -1.469,0.532 -1.484,1.688 l 3.703,0 z m -0.86,0.719 c 0,0 0,-0.047 0,-0.063 l -2.828,0 c 0.078,0.891 0.641,1.5 1.438,1.5 0.797,0 1.39,-0.656 1.39,-1.437 z" /><path
         id="path130"
         style="fill:#000000;fill-opacity:1;fill-rule:nonzero;stroke:none"
         d="m 385.941,24.056 c 0,2.125 -0.75,3.234 -2.296,3.234 -1.297,0 -2.235,-0.921 -2.235,-2.25 0,-1.265 0.875,-2.125 2.094,-2.125 0.641,0 1.109,0.235 1.562,0.766 -0.015,-1.656 -0.546,-2.578 -1.515,-2.578 -0.594,0 -1.016,0.375 -1.141,1.016 l -0.844,0 c 0.157,-1.11 0.891,-1.766 1.922,-1.766 1.594,0 2.453,1.344 2.453,3.703 z m -0.921,1 c 0,-0.828 -0.594,-1.391 -1.422,-1.391 -0.813,0 -1.313,0.532 -1.313,1.438 0,0.875 0.563,1.453 1.344,1.453 0.797,0 1.391,-0.609 1.391,-1.5 z" /><path
         id="path132"
         style="fill:#000000;fill-opacity:1;fill-rule:nonzero;stroke:none"
         d="m 468.031,22.462 c 0,0.828 -0.343,1.313 -1.156,1.594 0.641,0.25 0.953,0.688 0.953,1.375 0,1.172 -0.781,1.859 -2.078,1.859 -1.375,0 -2.094,-0.75 -2.125,-2.187 l 0.844,0 c 0.015,1 0.437,1.453 1.297,1.453 0.75,0 1.203,-0.437 1.203,-1.156 0,-0.735 -0.328,-1.031 -1.672,-1.031 l 0,-0.704 0.453,0 c 0.938,0 1.406,-0.453 1.406,-1.203 0,-0.859 -0.515,-1.359 -1.406,-1.359 -0.922,0 -1.375,0.453 -1.422,1.437 l -0.844,0 c 0.094,-1.515 0.844,-2.187 2.235,-2.187 1.406,0 2.312,0.828 2.312,2.109 z" /><path
         id="path134"
         style="fill:#000000;fill-opacity:1;fill-rule:nonzero;stroke:none"
         d="m 473.43,22.775 c 0,0.734 -0.063,1.187 -0.203,1.562 -0.329,0.828 -1.094,1.328 -2.032,1.328 -1.406,0 -2.297,-1.031 -2.297,-2.687 0,-1.656 0.86,-2.625 2.282,-2.625 1.14,0 1.937,0.656 2.14,1.672 l -0.797,0 c -0.218,-0.672 -0.671,-0.938 -1.312,-0.938 -0.844,0 -1.469,0.532 -1.484,1.688 l 3.703,0 z m -0.86,0.719 c 0,0 0,-0.047 0,-0.063 l -2.828,0 c 0.078,0.891 0.641,1.5 1.438,1.5 0.797,0 1.39,-0.656 1.39,-1.437 z" /><path
         id="path136"
         style="fill:#000000;fill-opacity:1;fill-rule:nonzero;stroke:none"
         d="m 478.738,24.056 c 0,2.125 -0.75,3.234 -2.297,3.234 -1.296,0 -2.234,-0.921 -2.234,-2.25 0,-1.265 0.875,-2.125 2.094,-2.125 0.64,0 1.109,0.235 1.562,0.766 -0.015,-1.656 -0.547,-2.578 -1.515,-2.578 -0.594,0 -1.016,0.375 -1.141,1.016 l -0.844,0 c 0.157,-1.11 0.891,-1.766 1.922,-1.766 1.594,0 2.453,1.344 2.453,3.703 z m -0.922,1 c 0,-0.828 -0.593,-1.391 -1.421,-1.391 -0.813,0 -1.313,0.532 -1.313,1.438 0,0.875 0.563,1.453 1.344,1.453 0.797,0 1.39,-0.609 1.39,-1.5 z" /><path
         id="path138"
         style="fill:#000000;fill-opacity:1;fill-rule:nonzero;stroke:none"
         d="m 68.41,33.091 2.281,0 0,-0.703 -2.281,0 0,0.703 z" /><path
         id="path140"
         style="fill:#000000;fill-opacity:1;fill-rule:nonzero;stroke:none"
         d="m 76.074,34.904 c 0,1.14 -0.89,1.984 -2.187,1.984 -1.391,0 -2.188,-0.703 -2.235,-2.359 l 0.844,0 c 0.063,1.14 0.531,1.625 1.375,1.625 0.766,0 1.328,-0.547 1.328,-1.282 0,-0.531 -0.312,-0.984 -0.906,-1.343 l -0.891,-0.5 C 71.98,32.232 71.574,31.591 71.496,30.091 l 4.531,0 0,0.828 -3.578,0 c 0.078,0.563 0.391,0.922 1.219,1.407 l 0.969,0.515 c 0.937,0.516 1.437,1.219 1.437,2.063 z" /><path
         id="path142"
         style="fill:#000000;fill-opacity:1;fill-rule:nonzero;stroke:none"
         d="m 81.363,33.357 c 0,2.359 -0.75,3.531 -2.218,3.531 -1.469,0 -2.235,-1.187 -2.235,-3.469 0,-2.297 0.781,-3.468 2.235,-3.468 1.437,0 2.218,1.171 2.218,3.406 z m -0.859,0.078 c 0,-1.922 -0.438,-2.781 -1.375,-2.781 -0.891,0 -1.344,0.89 -1.344,2.75 0,1.875 0.453,2.734 1.36,2.734 0.906,0 1.359,-0.875 1.359,-2.703 z" /><path
         id="path144"
         style="fill:#000000;fill-opacity:1;fill-rule:nonzero;stroke:none"
         d="m 68.41,57.892 2.281,0 0,-0.703 -2.281,0 0,0.703 z" /><path
         id="path146"
         style="fill:#000000;fill-opacity:1;fill-rule:nonzero;stroke:none"
         d="m 74.496,54.892 0,6.797 -0.562,0 c -0.297,-1.047 -0.485,-1.188 -1.782,-1.344 l 0,-0.609 1.5,0 0,-4.844 0.844,0 z" /><path
         id="path148"
         style="fill:#000000;fill-opacity:1;fill-rule:nonzero;stroke:none"
         d="m 81.426,56.814 c 0,0.75 -0.391,1.281 -1.172,1.656 0.703,0.422 0.937,0.766 0.937,1.406 0,1.063 -0.843,1.813 -2.046,1.813 -1.204,0 -2.047,-0.75 -2.047,-1.813 0,-0.625 0.234,-0.968 0.922,-1.406 -0.782,-0.375 -1.157,-0.906 -1.157,-1.656 0,-1.234 0.938,-2.063 2.282,-2.063 1.343,0 2.281,0.829 2.281,2.063 z m -1.11,3.047 c 0,-0.625 -0.468,-1.047 -1.171,-1.047 -0.719,0 -1.188,0.422 -1.188,1.062 0,0.641 0.469,1.063 1.188,1.063 0.718,0 1.171,-0.422 1.171,-1.078 z m 0.25,-3.063 c 0,-0.797 -0.578,-1.297 -1.437,-1.297 -0.828,0 -1.406,0.5 -1.406,1.297 0,0.797 0.578,1.297 1.422,1.297 0.843,0 1.421,-0.5 1.421,-1.297 z" /><path
         id="path150"
         style="fill:#000000;fill-opacity:1;fill-rule:nonzero;stroke:none"
         d="m 68.41,82.693 2.281,0 0,-0.703 -2.281,0 0,0.703 z" /><path
         id="path152"
         style="fill:#000000;fill-opacity:1;fill-rule:nonzero;stroke:none"
         d="m 74.496,79.693 0,6.797 -0.562,0 c -0.297,-1.047 -0.485,-1.188 -1.782,-1.344 l 0,-0.609 1.5,0 0,-4.844 0.844,0 z" /><path
         id="path154"
         style="fill:#000000;fill-opacity:1;fill-rule:nonzero;stroke:none"
         d="m 81.426,81.802 c 0,1.266 -0.86,2.125 -2.078,2.125 -0.672,0 -1.203,-0.265 -1.563,-0.765 0,1.656 0.547,2.578 1.516,2.578 0.594,0 1,-0.375 1.14,-1.016 l 0.844,0 c -0.172,1.109 -0.89,1.766 -1.937,1.766 -1.578,0 -2.438,-1.328 -2.438,-3.703 0,-2.11 0.735,-3.235 2.297,-3.235 1.281,0 2.219,0.922 2.219,2.25 z m -0.86,-0.062 c 0,-0.86 -0.578,-1.438 -1.359,-1.438 -0.781,0 -1.375,0.61 -1.375,1.485 0,0.843 0.578,1.39 1.406,1.39 0.813,0 1.328,-0.531 1.328,-1.437 z" /><path
         id="path156"
         style="fill:#000000;fill-opacity:1;fill-rule:nonzero;stroke:none"
         d="m 68.41,108.294 2.281,0 0,-0.703 -2.281,0 0,0.703 z" /><path
         id="path158"
         style="fill:#000000;fill-opacity:1;fill-rule:nonzero;stroke:none"
         d="m 74.496,105.294 0,6.797 -0.562,0 c -0.297,-1.047 -0.485,-1.187 -1.782,-1.344 l 0,-0.609 1.5,0 0,-4.844 0.844,0 z" /><path
         id="path160"
         style="fill:#000000;fill-opacity:1;fill-rule:nonzero;stroke:none"
         d="m 81.488,106.919 0,0.766 -1,0 0,4.406 -0.625,0 -3.093,-4.281 0,-0.891 2.875,0 0,-1.625 0.843,0 0,1.625 1,0 z m -1.843,0.766 -2.141,0 2.141,2.969 0,-2.969 z" /><path
         id="path162"
         style="fill:#000000;fill-opacity:1;fill-rule:nonzero;stroke:none"
         d="m 68.41,133.091 2.281,0 0,-0.703 -2.281,0 0,0.703 z" /><path
         id="path164"
         style="fill:#000000;fill-opacity:1;fill-rule:nonzero;stroke:none"
         d="m 74.496,130.091 0,6.797 -0.562,0 c -0.297,-1.047 -0.485,-1.187 -1.782,-1.344 l 0,-0.609 1.5,0 0,-4.844 0.844,0 z" /><path
         id="path166"
         style="fill:#000000;fill-opacity:1;fill-rule:nonzero;stroke:none"
         d="m 81.41,134.904 c 0,1.14 -0.89,1.984 -2.187,1.984 -1.391,0 -2.188,-0.703 -2.235,-2.359 l 0.844,0 c 0.063,1.14 0.531,1.625 1.375,1.625 0.766,0 1.328,-0.547 1.328,-1.282 0,-0.531 -0.312,-0.984 -0.906,-1.343 l -0.891,-0.5 c -1.422,-0.797 -1.828,-1.438 -1.906,-2.938 l 4.531,0 0,0.828 -3.578,0 c 0.078,0.563 0.391,0.922 1.219,1.407 l 0.969,0.515 c 0.937,0.516 1.437,1.219 1.437,2.063 z" /><path
         id="path168"
         style="fill:#000000;fill-opacity:1;fill-rule:nonzero;stroke:none"
         d="m 68.41,157.892 2.281,0 0,-0.703 -2.281,0 0,0.703 z" /><path
         id="path170"
         style="fill:#000000;fill-opacity:1;fill-rule:nonzero;stroke:none"
         d="m 74.496,154.892 0,6.797 -0.562,0 c -0.297,-1.047 -0.485,-1.188 -1.782,-1.344 l 0,-0.609 1.5,0 0,-4.844 0.844,0 z" /><path
         id="path172"
         style="fill:#000000;fill-opacity:1;fill-rule:nonzero;stroke:none"
         d="m 81.363,158.158 c 0,2.359 -0.75,3.531 -2.218,3.531 -1.469,0 -2.235,-1.188 -2.235,-3.469 0,-2.297 0.781,-3.469 2.235,-3.469 1.437,0 2.218,1.172 2.218,3.407 z m -0.859,0.078 c 0,-1.922 -0.438,-2.781 -1.375,-2.781 -0.891,0 -1.344,0.89 -1.344,2.75 0,1.875 0.453,2.734 1.36,2.734 0.906,0 1.359,-0.875 1.359,-2.703 z" /><path
         id="path174"
         style="fill:#000000;fill-opacity:1;fill-rule:nonzero;stroke:none"
         d="m 75.609,182.693 2.281,0 0,-0.703 -2.281,0 0,0.703 z" /><path
         id="path176"
         style="fill:#000000;fill-opacity:1;fill-rule:nonzero;stroke:none"
         d="m 83.289,181.615 c 0,0.75 -0.391,1.281 -1.172,1.656 0.703,0.422 0.938,0.766 0.938,1.406 0,1.063 -0.844,1.813 -2.047,1.813 -1.203,0 -2.047,-0.75 -2.047,-1.813 0,-0.625 0.234,-0.969 0.922,-1.406 -0.781,-0.375 -1.156,-0.906 -1.156,-1.656 0,-1.235 0.937,-2.063 2.281,-2.063 1.344,0 2.281,0.828 2.281,2.063 z m -1.109,3.047 c 0,-0.625 -0.469,-1.047 -1.172,-1.047 -0.719,0 -1.188,0.422 -1.188,1.062 0,0.641 0.469,1.063 1.188,1.063 0.719,0 1.172,-0.422 1.172,-1.078 z m 0.25,-3.063 c 0,-0.797 -0.578,-1.297 -1.438,-1.297 -0.828,0 -1.406,0.5 -1.406,1.297 0,0.797 0.578,1.297 1.422,1.297 0.844,0 1.422,-0.5 1.422,-1.297 z" /><path
         id="path178"
         style="fill:#000000;fill-opacity:1;fill-rule:nonzero;stroke:none"
         d="m 75.609,208.294 2.281,0 0,-0.703 -2.281,0 0,0.703 z" /><path
         id="path180"
         style="fill:#000000;fill-opacity:1;fill-rule:nonzero;stroke:none"
         d="m 83.289,207.404 c 0,1.265 -0.859,2.125 -2.078,2.125 -0.672,0 -1.203,-0.266 -1.563,-0.766 0,1.656 0.547,2.578 1.516,2.578 0.594,0 1,-0.375 1.141,-1.015 l 0.843,0 c -0.171,1.109 -0.89,1.765 -1.937,1.765 -1.578,0 -2.438,-1.328 -2.438,-3.703 0,-2.109 0.735,-3.234 2.297,-3.234 1.282,0 2.219,0.922 2.219,2.25 z m -0.859,-0.063 c 0,-0.859 -0.578,-1.437 -1.36,-1.437 -0.781,0 -1.375,0.609 -1.375,1.484 0,0.844 0.578,1.391 1.407,1.391 0.812,0 1.328,-0.532 1.328,-1.438 z" /><path
         id="path182"
         style="fill:#000000;fill-opacity:1;fill-rule:nonzero;stroke:none"
         d="m 75.609,233.091 2.281,0 0,-0.703 -2.281,0 0,0.703 z" /><path
         id="path184"
         style="fill:#000000;fill-opacity:1;fill-rule:nonzero;stroke:none"
         d="m 83.352,231.716 0,0.766 -1,0 0,4.406 -0.625,0 -3.094,-4.281 0,-0.891 2.875,0 0,-1.625 0.844,0 0,1.625 1,0 z m -1.844,0.766 -2.141,0 2.141,2.969 0,-2.969 z" /><path
         id="path186"
         style="fill:#000000;fill-opacity:1;fill-rule:nonzero;stroke:none"
         d="m 75.609,257.892 2.281,0 0,-0.703 -2.281,0 0,0.703 z" /><path
         id="path188"
         style="fill:#000000;fill-opacity:1;fill-rule:nonzero;stroke:none"
         d="m 83.273,259.705 c 0,1.14 -0.89,1.984 -2.187,1.984 -1.391,0 -2.188,-0.703 -2.234,-2.359 l 0.843,0 c 0.063,1.14 0.532,1.625 1.375,1.625 0.766,0 1.328,-0.547 1.328,-1.282 0,-0.531 -0.312,-0.984 -0.906,-1.343 l -0.89,-0.5 c -1.422,-0.797 -1.829,-1.438 -1.907,-2.938 l 4.532,0 0,0.828 -3.579,0 c 0.079,0.563 0.391,0.922 1.219,1.406 l 0.969,0.516 c 0.937,0.516 1.437,1.219 1.437,2.063 z" /><path
         id="path190"
         style="fill:#000000;fill-opacity:1;fill-rule:nonzero;stroke:none"
         d="m 84.031,282.958 c 0,2.36 -0.75,3.532 -2.219,3.532 -1.468,0 -2.234,-1.188 -2.234,-3.469 0,-2.297 0.781,-3.469 2.234,-3.469 1.438,0 2.219,1.172 2.219,3.406 z m -0.859,0.079 c 0,-1.922 -0.438,-2.782 -1.375,-2.782 -0.891,0 -1.344,0.891 -1.344,2.75 0,1.875 0.453,2.735 1.359,2.735 0.907,0 1.36,-0.875 1.36,-2.703 z" /><path
         id="path192"
         style="fill:#000000;fill-opacity:1;fill-rule:nonzero;stroke:none"
         d="m 243.934,8.294 0,0.797 -4.704,0 0,-7 0.891,0 0,3.188 3.344,0 0,0.781 -3.344,0 0,2.234 3.813,0 z" /><path
         id="path194"
         style="fill:#000000;fill-opacity:1;fill-rule:nonzero;stroke:none"
         d="m 246.98,6.419 0,0.813 c -0.14,0.015 -0.203,0.031 -0.312,0.031 -0.516,0 -0.906,-0.312 -1.359,-1.062 l 0,0.921 -0.735,0 0,-5.031 0.797,0 0,2.61 c 0,1.125 0.375,1.703 1.609,1.718 z" /><path
         id="path196"
         style="fill:#000000;fill-opacity:1;fill-rule:nonzero;stroke:none"
         d="m 251.934,4.372 c 0,0.735 -0.063,1.188 -0.204,1.563 -0.328,0.828 -1.093,1.328 -2.031,1.328 -1.406,0 -2.297,-1.031 -2.297,-2.687 0,-1.657 0.86,-2.625 2.282,-2.625 1.14,0 1.937,0.656 2.14,1.671 l -0.797,0 c -0.218,-0.671 -0.672,-0.937 -1.312,-0.937 -0.844,0 -1.469,0.531 -1.485,1.687 l 3.704,0 z m -0.86,0.719 c 0,0 0,-0.047 0,-0.062 l -2.828,0 c 0.078,0.89 0.641,1.5 1.438,1.5 0.796,0 1.39,-0.657 1.39,-1.438 z m 0.344,4 -1.094,0 -0.922,-1.422 0.578,0 1.438,1.422 z" /><path
         id="path198"
         style="fill:#000000;fill-opacity:1;fill-rule:nonzero;stroke:none"
         d="m 257.098,-0.003 0,7.125 -0.719,0 0,-0.671 c -0.359,0.531 -0.938,0.812 -1.594,0.812 -1.328,0 -2.187,-1.047 -2.187,-2.719 0,-1.625 0.828,-2.593 2.14,-2.593 0.703,0 1.188,0.25 1.563,0.796 l 0,-2.75 0.797,0 z m -0.797,4.579 c 0,-1.157 -0.563,-1.875 -1.406,-1.875 -0.875,0 -1.469,0.734 -1.469,1.906 0,1.156 0.594,1.906 1.469,1.906 0.859,0 1.406,-0.766 1.406,-1.937 z" /><path
         id="path200"
         style="fill:#000000;fill-opacity:1;fill-rule:nonzero;stroke:none"
         d="m 262.387,2.091 0,5.031 -0.797,0 0,-2.781 c 0,-1.015 -0.531,-1.687 -1.375,-1.687 -0.625,0 -1.031,0.375 -1.031,0.984 l 0,3.484 -0.797,0 0,-3.796 c 0,-0.844 0.625,-1.375 1.593,-1.375 0.75,0 1.219,0.25 1.688,0.921 l 0,-0.781 0.719,0 z" /><path
         id="path202"
         style="fill:#000000;fill-opacity:1;fill-rule:nonzero;stroke:none"
         d="m 268.023,4.372 c 0,0.735 -0.062,1.188 -0.203,1.563 -0.328,0.828 -1.093,1.328 -2.031,1.328 -1.406,0 -2.297,-1.031 -2.297,-2.687 0,-1.657 0.86,-2.625 2.281,-2.625 1.141,0 1.938,0.656 2.141,1.671 l -0.797,0 c -0.219,-0.671 -0.672,-0.937 -1.312,-0.937 -0.844,0 -1.469,0.531 -1.485,1.687 l 3.703,0 z m -0.859,0.719 c 0,0 0,-0.047 0,-0.062 l -2.828,0 c 0.078,0.89 0.641,1.5 1.437,1.5 0.797,0 1.391,-0.657 1.391,-1.438 z" /><path
         id="path204"
         style="fill:#000000;fill-opacity:1;fill-rule:nonzero;stroke:none"
         d="m 273.109,2.091 0,3.797 c 0,0.844 -0.625,1.375 -1.593,1.375 -0.75,0 -1.219,-0.281 -1.672,-0.984 l 0,0.843 -0.735,0 0,-5.031 0.797,0 0,2.766 c 0,1.031 0.563,1.703 1.375,1.703 0.625,0 1.031,-0.375 1.031,-0.984 l 0,-3.485 0.797,0 z" /><path
         id="path206"
         style="fill:#000000;fill-opacity:1;fill-rule:nonzero;stroke:none"
         d="m 278.355,3.826 -0.812,0 c -0.125,-0.813 -0.547,-1.141 -1.219,-1.141 -0.89,0 -1.422,0.687 -1.422,1.875 0,1.25 0.532,1.969 1.391,1.969 0.672,0 1.094,-0.407 1.203,-1.094 l 0.797,0 c -0.094,1.219 -0.859,1.828 -1.984,1.828 -1.344,0 -2.235,-1.031 -2.235,-2.703 0,-1.625 0.86,-2.609 2.219,-2.609 1.203,0 1.969,0.718 2.062,1.875 z" /><path
         id="path208"
         style="fill:#000000;fill-opacity:1;fill-rule:nonzero;stroke:none"
         d="m 283.496,4.372 c 0,0.735 -0.062,1.188 -0.203,1.563 -0.328,0.828 -1.094,1.328 -2.031,1.328 -1.407,0 -2.297,-1.031 -2.297,-2.687 0,-1.657 0.859,-2.625 2.281,-2.625 1.141,0 1.938,0.656 2.141,1.671 l -0.797,0 c -0.219,-0.671 -0.672,-0.937 -1.313,-0.937 -0.843,0 -1.468,0.531 -1.484,1.687 l 3.703,0 z m -0.859,0.719 c 0,0 0,-0.047 0,-0.062 l -2.828,0 c 0.078,0.89 0.64,1.5 1.437,1.5 0.797,0 1.391,-0.657 1.391,-1.438 z" /><path
         id="path210"
         style="fill:#000000;fill-opacity:1;fill-rule:nonzero;stroke:none"
         d="m 289.379,0.06 c -0.844,1.375 -1.313,2.984 -1.313,4.516 0,1.531 0.469,3.14 1.313,4.515 l -0.531,0 c -0.953,-1.265 -1.563,-3.015 -1.563,-4.515 0,-1.516 0.61,-3.266 1.563,-4.516 l 0.531,0 z" /><path
         id="path212"
         style="fill:#000000;fill-opacity:1;fill-rule:nonzero;stroke:none"
         d="m 295.98,2.091 0,7 -0.89,0 0,-3.031 -3.594,0 0,3.031 -0.891,0 0,-7 0.891,0 0,3.188 3.594,0 0,-3.188 0.89,0 z" /><path
         id="path214"
         style="fill:#000000;fill-opacity:1;fill-rule:nonzero;stroke:none"
         d="m 301.129,2.091 0,0.703 -3.125,0 2.984,3.61 0,0.718 -3.75,0 0,-0.703 2.797,0 -3,-3.609 0,-0.719 4.094,0 z" /><path
         id="path216"
         style="fill:#000000;fill-opacity:1;fill-rule:nonzero;stroke:none"
         d="m 303.992,4.56 c 0,1.516 -0.594,3.266 -1.562,4.531 l -0.532,0 c 0.844,-1.375 1.313,-2.984 1.313,-4.531 0,-1.516 -0.469,-3.141 -1.313,-4.5 l 0.532,0 c 0.968,1.25 1.562,3 1.562,4.5 z" /><path
         id="path218"
         style="fill:#0000ff;fill-opacity:1;fill-rule:nonzero;stroke:none"
         d="m 56.168,127.779 -0.797,0 0,-5.485 0.797,0 0,2.297 6.203,0 0,0.891 -6.203,0 0,2.297 z" /><path
         id="path220"
         style="fill:#0000ff;fill-opacity:1;fill-rule:nonzero;stroke:none"
         d="m 57.434,133.88 c -1.313,0 -2.063,-0.781 -2.063,-2.156 l 0,-2.891 7,0 0,0.891 -2.969,0 0,2.203 c 0,1.141 -0.812,1.953 -1.968,1.953 z m -0.047,-0.937 c 0.765,0 1.234,-0.5 1.234,-1.36 l 0,-1.859 -2.453,0 0,1.859 c 0,0.86 0.453,1.36 1.219,1.36 z" /><path
         id="path222"
         style="fill:#0000ff;fill-opacity:1;fill-rule:nonzero;stroke:none"
         d="m 57.559,139.267 c -1.141,0 -1.985,-0.891 -1.985,-2.187 0,-1.391 0.703,-2.188 2.36,-2.235 l 0,0.844 c -1.141,0.062 -1.625,0.531 -1.625,1.375 0,0.766 0.546,1.328 1.281,1.328 0.531,0 0.984,-0.312 1.344,-0.906 l 0.5,-0.891 c 0.796,-1.422 1.437,-1.828 2.937,-1.906 l 0,4.531 -0.828,0 0,-3.578 c -0.563,0.078 -0.922,0.391 -1.406,1.219 l -0.516,0.969 c -0.516,0.937 -1.219,1.437 -2.062,1.437 z" /><path
         id="path224"
         style="fill:#0000ff;fill-opacity:1;fill-rule:nonzero;stroke:none"
         d="m 63.59,145.247 0.484,0 0,-5.766 -0.484,0 0,5.766 z" /><path
         id="path226"
         style="fill:#0000ff;fill-opacity:1;fill-rule:nonzero;stroke:none"
         d="m 62.371,150.173 -0.781,0 0,-3.453 -6.219,0 0,-0.89 7,0 0,4.343 z" /><path
         id="path228"
         style="fill:#0000ff;fill-opacity:1;fill-rule:nonzero;stroke:none"
         d="m 59.824,156.529 0,-0.922 c 1.313,-0.219 1.938,-0.766 1.938,-1.953 0,-1.391 -1.063,-2.266 -2.813,-2.266 -1.797,0 -2.953,0.844 -2.953,2.188 0,1.093 0.484,1.671 1.547,1.89 l 0,0.906 c -1.531,-0.265 -2.344,-1.156 -2.344,-2.687 0,-2.125 1.719,-3.203 3.75,-3.203 2.047,0 3.594,1.109 3.594,3.156 0,1.719 -0.906,2.672 -2.719,2.891 z" /><path
         id="path230"
         style="fill:#0000ff;fill-opacity:1;fill-rule:nonzero;stroke:none"
         d="m 62.371,158.787 -1,0 0,-1 1,0 0,1 z m -4.031,0 -1,0 0,-1 1,0 0,1 z" /><path
         id="path232"
         style="fill:#0000ff;fill-opacity:1;fill-rule:nonzero;stroke:none"
         d="m 62.371,164.38 -7,0 0,-0.797 2.609,0 c -0.515,-0.343 -0.781,-0.875 -0.781,-1.546 0,-1.297 1.016,-2.157 2.61,-2.157 1.703,0 2.703,0.828 2.703,2.188 0,0.687 -0.25,1.172 -0.875,1.594 l 0.734,0 0,0.718 z m -2.5,-0.797 c 1.172,0 1.891,-0.562 1.891,-1.406 0,-0.875 -0.735,-1.469 -1.907,-1.469 -1.171,0 -1.906,0.594 -1.906,1.469 0,0.86 0.766,1.406 1.922,1.406 z" /><path
         id="path234"
         style="fill:#0000ff;fill-opacity:1;fill-rule:nonzero;stroke:none"
         d="m 60.371,170.951 c -0.844,0 -1.344,-0.391 -1.687,-1.282 -0.297,0.625 -0.829,0.969 -1.532,0.969 -1.015,0 -1.781,-0.75 -1.781,-2.078 l 0,-2.828 7,0 0,3.156 c 0,1.25 -0.844,2.063 -2,2.063 z m -3.094,-1.204 c 0.703,0 1.11,-0.421 1.11,-1.406 l 0,-1.719 -2.219,0 0,1.719 c 0,0.985 0.406,1.406 1.109,1.406 z m 3.11,0.297 c 0.672,0 1.203,-0.406 1.203,-1.25 l 0,-2.172 -2.406,0 0,2.172 c 0,0.844 0.515,1.25 1.203,1.25 z" /><path
         id="path236"
         style="fill:#0000ff;fill-opacity:1;fill-rule:nonzero;stroke:none"
         d="m 60.449,177.322 c -0.859,0 -1.5,-0.532 -1.75,-1.485 l -0.469,-1.75 c -0.218,-0.843 -0.5,-1.156 -1.046,-1.156 -0.704,0 -1.235,0.625 -1.235,1.563 0,1.109 0.516,1.75 1.422,1.75 l 0,0.843 c -1.375,0 -2.172,-0.953 -2.172,-2.562 0,-1.531 0.844,-2.485 2.11,-2.485 0.859,0 1.39,0.454 1.64,1.375 l 0.453,1.735 c 0.235,0.875 0.594,1.281 1.141,1.281 0.766,0 1.219,-0.578 1.219,-1.781 0,-1.328 -0.672,-1.969 -1.672,-1.969 l 0,-0.859 c 1.656,0 2.453,1.125 2.453,2.765 0,1.782 -0.844,2.735 -2.094,2.735 z" /><path
         id="path238"
         style="fill:#0000ff;fill-opacity:1;fill-rule:nonzero;stroke:none"
         d="m 62.371,181.13 -6.797,0 0,-0.562 c 1.047,-0.297 1.188,-0.485 1.344,-1.781 l 0.609,0 0,1.5 4.844,0 0,0.843 z" /><path
         id="path240"
         style="fill:#0000ff;fill-opacity:1;fill-rule:nonzero;stroke:none"
         d="m 62.371,186.466 -6.797,0 0,-0.562 c 1.047,-0.297 1.188,-0.485 1.344,-1.782 l 0.609,0 0,1.5 4.844,0 0,0.844 z" /><path
         id="path242"
         style="fill:#ff00ff;fill-opacity:1;fill-rule:nonzero;stroke:none"
         d="m 37.77,97.38 -0.797,0 0,-5.484 0.797,0 0,2.297 6.203,0 0,0.89 -6.203,0 0,2.297 z" /><path
         id="path244"
         style="fill:#ff00ff;fill-opacity:1;fill-rule:nonzero;stroke:none"
         d="m 39.035,103.482 c -1.312,0 -2.062,-0.781 -2.062,-2.156 l 0,-2.891 7,0 0,0.891 -2.969,0 0,2.203 c 0,1.14 -0.813,1.953 -1.969,1.953 z m -0.047,-0.938 c 0.766,0 1.235,-0.5 1.235,-1.359 l 0,-1.859 -2.453,0 0,1.859 c 0,0.859 0.453,1.359 1.218,1.359 z" /><path
         id="path246"
         style="fill:#ff00ff;fill-opacity:1;fill-rule:nonzero;stroke:none"
         d="m 39.16,108.869 c -1.14,0 -1.984,-0.891 -1.984,-2.188 0,-1.391 0.703,-2.187 2.359,-2.234 l 0,0.843 c -1.14,0.063 -1.625,0.532 -1.625,1.375 0,0.766 0.547,1.329 1.281,1.329 0.532,0 0.985,-0.313 1.344,-0.907 l 0.5,-0.89 c 0.797,-1.422 1.438,-1.828 2.938,-1.907 l 0,4.532 -0.828,0 0,-3.578 c -0.563,0.078 -0.922,0.39 -1.407,1.218 l -0.515,0.969 c -0.516,0.938 -1.219,1.438 -2.063,1.438 z" /><path
         id="path248"
         style="fill:#ff00ff;fill-opacity:1;fill-rule:nonzero;stroke:none"
         d="m 45.191,114.845 0.484,0 0,-5.766 -0.484,0 0,5.766 z" /><path
         id="path250"
         style="fill:#ff00ff;fill-opacity:1;fill-rule:nonzero;stroke:none"
         d="m 42.051,120.619 c -0.86,0 -1.5,-0.532 -1.75,-1.485 l -0.469,-1.75 c -0.219,-0.844 -0.5,-1.156 -1.047,-1.156 -0.703,0 -1.234,0.625 -1.234,1.562 0,1.11 0.515,1.75 1.422,1.75 l 0,0.844 c -1.375,0 -2.172,-0.953 -2.172,-2.562 0,-1.532 0.844,-2.485 2.109,-2.485 0.86,0 1.391,0.453 1.641,1.375 l 0.453,1.735 c 0.234,0.875 0.594,1.281 1.141,1.281 0.765,0 1.218,-0.578 1.218,-1.781 0,-1.328 -0.672,-1.969 -1.672,-1.969 l 0,-0.859 c 1.657,0 2.454,1.125 2.454,2.765 0,1.781 -0.844,2.735 -2.094,2.735 z" /><path
         id="path252"
         style="fill:#ff00ff;fill-opacity:1;fill-rule:nonzero;stroke:none"
         d="m 43.973,123.458 -0.672,0 c 0.031,-0.109 0.031,-0.234 0.031,-0.39 0,-0.344 -0.094,-0.438 -0.437,-0.438 l -3.297,0 0,0.828 -0.657,0 0,-0.828 -1.375,0 0,-0.797 1.375,0 0,-0.671 0.657,0 0,0.671 3.64,0 c 0.516,0 0.797,0.344 0.797,0.969 0,0.188 -0.015,0.391 -0.062,0.656 z" /><path
         id="path254"
         style="fill:#ff00ff;fill-opacity:1;fill-rule:nonzero;stroke:none"
         d="m 43.973,128.314 -5.032,0 0,-0.797 2.782,0 c 1.015,0 1.687,-0.531 1.687,-1.375 0,-0.625 -0.375,-1.031 -0.984,-1.031 l -3.485,0 0,-0.797 3.797,0 c 0.844,0 1.375,0.625 1.375,1.594 0,0.75 -0.25,1.218 -0.922,1.687 l 0.782,0 0,0.719 z" /><path
         id="path256"
         style="fill:#ff00ff;fill-opacity:1;fill-rule:nonzero;stroke:none"
         d="m 41.395,134.044 c -1.625,0 -2.594,-0.828 -2.594,-2.14 0,-0.703 0.265,-1.188 0.828,-1.563 l -2.656,0 0,-0.797 7,0 0,0.719 -0.719,0 c 0.578,0.391 0.859,0.891 0.859,1.594 0,1.328 -1.078,2.187 -2.718,2.187 z m 0.062,-0.828 c 1.141,0 1.906,-0.594 1.906,-1.469 0,-0.843 -0.765,-1.406 -1.906,-1.406 -1.172,0 -1.953,0.563 -1.906,1.406 0,0.891 0.781,1.469 1.906,1.469 z" /><path
         id="path258"
         style="fill:#ff00ff;fill-opacity:1;fill-rule:nonzero;stroke:none"
         d="m 45.191,139.912 0.484,0 0,-5.766 -0.484,0 0,5.766 z" /><path
         id="path260"
         style="fill:#ff00ff;fill-opacity:1;fill-rule:nonzero;stroke:none"
         d="m 43.973,146.997 -7,0 0,-1.234 6.093,-2.031 -6.093,-2.078 0,-1.235 7,0 0,0.844 -5.86,0 5.86,1.984 0,0.938 -5.86,1.969 5.86,0 0,0.843 z" /><path
         id="path262"
         style="fill:#ff00ff;fill-opacity:1;fill-rule:nonzero;stroke:none"
         d="m 41.691,152.622 c -0.734,0 -1.187,-0.062 -1.562,-0.203 -0.828,-0.328 -1.328,-1.093 -1.328,-2.031 0,-1.406 1.031,-2.297 2.687,-2.297 1.657,0 2.625,0.86 2.625,2.281 0,1.141 -0.656,1.938 -1.672,2.141 l 0,-0.797 c 0.672,-0.219 0.938,-0.672 0.938,-1.312 0,-0.844 -0.531,-1.469 -1.688,-1.485 l 0,3.703 z m -0.718,-0.859 c 0,0 0.047,0 0.062,0 l 0,-2.828 c -0.89,0.078 -1.5,0.641 -1.5,1.437 0,0.797 0.656,1.391 1.438,1.391 z" /><path
         id="path264"
         style="fill:#ff00ff;fill-opacity:1;fill-rule:nonzero;stroke:none"
         d="m 42.566,157.47 c -0.75,0 -1.125,-0.422 -1.359,-1.422 l -0.187,-0.765 c -0.157,-0.657 -0.36,-0.938 -0.719,-0.938 -0.469,0 -0.766,0.422 -0.766,1.063 0,0.656 0.281,1 0.813,1.015 l 0,0.844 c -0.985,-0.016 -1.547,-0.656 -1.547,-1.828 0,-1.172 0.609,-1.922 1.531,-1.922 0.797,0 1.172,0.406 1.453,1.594 l 0.188,0.75 c 0.125,0.547 0.297,0.765 0.656,0.765 0.469,0 0.75,-0.468 0.75,-1.171 0,-0.719 -0.172,-1.11 -0.938,-1.219 l 0,-0.844 c 1.157,0.031 1.672,0.688 1.672,2 0,1.266 -0.578,2.078 -1.547,2.078 z" /><path
         id="path266"
         style="fill:#ff00ff;fill-opacity:1;fill-rule:nonzero;stroke:none"
         d="m 43.973,162.49 -5.032,0 0,-0.797 2.782,0 c 1.015,0 1.687,-0.531 1.687,-1.375 0,-0.625 -0.375,-1.031 -0.984,-1.031 l -3.485,0 0,-0.797 3.797,0 c 0.844,0 1.375,0.625 1.375,1.593 0,0.75 -0.25,1.219 -0.922,1.688 l 0.782,0 0,0.719 z" /><path
         id="path268"
         style="fill:#ff00ff;fill-opacity:1;fill-rule:nonzero;stroke:none"
         d="m 39.645,166.283 -0.813,0 c -0.016,-0.141 -0.031,-0.203 -0.031,-0.313 0,-0.515 0.312,-0.906 1.062,-1.359 l -0.922,0 0,-0.735 5.032,0 0,0.797 -2.61,0 c -1.125,0 -1.703,0.375 -1.718,1.61 z" /><path
         id="path270"
         style="fill:#ff00ff;fill-opacity:1;fill-rule:nonzero;stroke:none"
         d="m 41.691,171.244 c -0.734,0 -1.187,-0.063 -1.562,-0.204 -0.828,-0.328 -1.328,-1.093 -1.328,-2.031 0,-1.406 1.031,-2.297 2.687,-2.297 1.657,0 2.625,0.86 2.625,2.282 0,1.14 -0.656,1.937 -1.672,2.14 l 0,-0.797 c 0.672,-0.218 0.938,-0.672 0.938,-1.312 0,-0.844 -0.531,-1.469 -1.688,-1.485 l 0,3.704 z m -0.718,-0.86 c 0,0 0.047,0 0.062,0 l 0,-2.828 c -0.89,0.078 -1.5,0.641 -1.5,1.438 0,0.796 0.656,1.39 1.438,1.39 z" /><path
         id="path272"
         style="fill:#ff00ff;fill-opacity:1;fill-rule:nonzero;stroke:none"
         d="m 43.973,173.49 -1,0 0,-1 1,0 0,1 z m -4.032,0 -1,0 0,-1 1,0 0,1 z" /><path
         id="path274"
         style="fill:#ff00ff;fill-opacity:1;fill-rule:nonzero;stroke:none"
         d="m 43.973,179.08 -7,0 0,-0.797 2.609,0 c -0.516,-0.344 -0.781,-0.875 -0.781,-1.547 0,-1.297 1.015,-2.156 2.609,-2.156 1.703,0 2.703,0.828 2.703,2.187 0,0.688 -0.25,1.172 -0.875,1.594 l 0.735,0 0,0.719 z m -2.5,-0.797 c 1.172,0 1.89,-0.563 1.89,-1.407 0,-0.875 -0.734,-1.468 -1.906,-1.468 -1.172,0 -1.906,0.593 -1.906,1.468 0,0.86 0.765,1.407 1.922,1.407 z" /><path
         id="path276"
         style="fill:#ff00ff;fill-opacity:1;fill-rule:nonzero;stroke:none"
         d="m 41.973,185.65 c -0.844,0 -1.344,-0.391 -1.688,-1.281 -0.297,0.625 -0.828,0.968 -1.531,0.968 -1.016,0 -1.781,-0.75 -1.781,-2.078 l 0,-2.828 7,0 0,3.156 c 0,1.25 -0.844,2.063 -2,2.063 z m -3.094,-1.203 c 0.703,0 1.109,-0.422 1.109,-1.407 l 0,-1.718 -2.218,0 0,1.718 c 0,0.985 0.406,1.407 1.109,1.407 z m 3.109,0.297 c 0.672,0 1.203,-0.407 1.203,-1.25 l 0,-2.172 -2.406,0 0,2.172 c 0,0.843 0.516,1.25 1.203,1.25 z" /><path
         id="path278"
         style="fill:#ff00ff;fill-opacity:1;fill-rule:nonzero;stroke:none"
         d="m 42.051,192.025 c -0.86,0 -1.5,-0.531 -1.75,-1.485 l -0.469,-1.75 c -0.219,-0.843 -0.5,-1.156 -1.047,-1.156 -0.703,0 -1.234,0.625 -1.234,1.563 0,1.109 0.515,1.75 1.422,1.75 l 0,0.843 c -1.375,0 -2.172,-0.953 -2.172,-2.562 0,-1.531 0.844,-2.484 2.109,-2.484 0.86,0 1.391,0.453 1.641,1.375 l 0.453,1.734 c 0.234,0.875 0.594,1.281 1.141,1.281 0.765,0 1.218,-0.578 1.218,-1.781 0,-1.328 -0.672,-1.969 -1.672,-1.969 l 0,-0.859 c 1.657,0 2.454,1.125 2.454,2.765 0,1.782 -0.844,2.735 -2.094,2.735 z" /><path
         id="path280"
         style="fill:#ff00ff;fill-opacity:1;fill-rule:nonzero;stroke:none"
         d="m 43.973,195.83 -6.797,0 0,-0.563 c 1.047,-0.297 1.187,-0.484 1.344,-1.781 l 0.609,0 0,1.5 4.844,0 0,0.844 z" /><path
         id="path282"
         style="fill:#ff00ff;fill-opacity:1;fill-rule:nonzero;stroke:none"
         d="m 43.973,201.169 -6.797,0 0,-0.562 c 1.047,-0.297 1.187,-0.485 1.344,-1.781 l 0.609,0 0,1.5 4.844,0 0,0.843 z" /><path
         id="path284"
         style="fill:#00ff00;fill-opacity:1;fill-rule:nonzero;stroke:none"
         d="m 19.367,83.779 -0.797,0 0,-5.485 0.797,0 0,2.297 6.203,0 0,0.891 -6.203,0 0,2.297 z" /><path
         id="path286"
         style="fill:#00ff00;fill-opacity:1;fill-rule:nonzero;stroke:none"
         d="m 20.633,89.88 c -1.313,0 -2.063,-0.781 -2.063,-2.156 l 0,-2.891 7,0 0,0.891 -2.968,0 0,2.203 c 0,1.141 -0.813,1.953 -1.969,1.953 z m -0.047,-0.937 c 0.766,0 1.234,-0.5 1.234,-1.36 l 0,-1.859 -2.453,0 0,1.859 c 0,0.86 0.453,1.36 1.219,1.36 z" /><path
         id="path288"
         style="fill:#00ff00;fill-opacity:1;fill-rule:nonzero;stroke:none"
         d="m 20.758,95.267 c -1.141,0 -1.985,-0.891 -1.985,-2.187 0,-1.391 0.704,-2.188 2.36,-2.235 l 0,0.844 c -1.141,0.062 -1.625,0.531 -1.625,1.375 0,0.766 0.547,1.328 1.281,1.328 0.531,0 0.984,-0.312 1.344,-0.906 l 0.5,-0.891 c 0.797,-1.422 1.437,-1.828 2.937,-1.906 l 0,4.531 -0.828,0 0,-3.578 C 24.18,91.72 23.82,92.033 23.336,92.861 L 22.82,93.83 c -0.515,0.937 -1.218,1.437 -2.062,1.437 z" /><path
         id="path290"
         style="fill:#00ff00;fill-opacity:1;fill-rule:nonzero;stroke:none"
         d="m 26.789,101.247 0.484,0 0,-5.766 -0.484,0 0,5.766 z" /><path
         id="path292"
         style="fill:#00ff00;fill-opacity:1;fill-rule:nonzero;stroke:none"
         d="m 23.648,107.017 c -0.859,0 -1.5,-0.531 -1.75,-1.484 l -0.468,-1.75 c -0.219,-0.844 -0.5,-1.157 -1.047,-1.157 -0.703,0 -1.235,0.625 -1.235,1.563 0,1.109 0.516,1.75 1.422,1.75 l 0,0.844 c -1.375,0 -2.172,-0.953 -2.172,-2.563 0,-1.531 0.844,-2.484 2.11,-2.484 0.859,0 1.39,0.453 1.64,1.375 l 0.454,1.734 c 0.234,0.875 0.593,1.281 1.14,1.281 0.766,0 1.219,-0.578 1.219,-1.781 0,-1.328 -0.672,-1.969 -1.672,-1.969 l 0,-0.859 c 1.656,0 2.453,1.125 2.453,2.766 0,1.781 -0.844,2.734 -2.094,2.734 z" /><path
         id="path294"
         style="fill:#00ff00;fill-opacity:1;fill-rule:nonzero;stroke:none"
         d="m 25.57,109.857 -0.672,0 c 0.032,-0.11 0.032,-0.235 0.032,-0.391 0,-0.344 -0.094,-0.437 -0.438,-0.437 l -3.297,0 0,0.828 -0.656,0 0,-0.828 -1.375,0 0,-0.797 1.375,0 0,-0.672 0.656,0 0,0.672 3.641,0 c 0.516,0 0.797,0.344 0.797,0.969 0,0.187 -0.016,0.39 -0.063,0.656 z" /><path
         id="path296"
         style="fill:#00ff00;fill-opacity:1;fill-rule:nonzero;stroke:none"
         d="m 25.57,114.716 -5.031,0 0,-0.797 2.781,0 c 1.016,0 1.688,-0.531 1.688,-1.375 0,-0.625 -0.375,-1.031 -0.985,-1.031 l -3.484,0 0,-0.797 3.797,0 c 0.844,0 1.375,0.625 1.375,1.594 0,0.75 -0.25,1.219 -0.922,1.687 l 0.781,0 0,0.719 z" /><path
         id="path298"
         style="fill:#00ff00;fill-opacity:1;fill-rule:nonzero;stroke:none"
         d="m 22.992,120.443 c -1.625,0 -2.594,-0.828 -2.594,-2.141 0,-0.703 0.266,-1.187 0.829,-1.562 l -2.657,0 0,-0.797 7,0 0,0.719 -0.718,0 c 0.578,0.39 0.859,0.89 0.859,1.593 0,1.328 -1.078,2.188 -2.719,2.188 z m 0.063,-0.828 c 1.14,0 1.906,-0.594 1.906,-1.469 0,-0.844 -0.766,-1.406 -1.906,-1.406 -1.172,0 -1.953,0.562 -1.907,1.406 0,0.891 0.782,1.469 1.907,1.469 z" /><path
         id="path300"
         style="fill:#00ff00;fill-opacity:1;fill-rule:nonzero;stroke:none"
         d="m 26.789,126.31 0.484,0 0,-5.766 -0.484,0 0,5.766 z" /><path
         id="path302"
         style="fill:#00ff00;fill-opacity:1;fill-rule:nonzero;stroke:none"
         d="m 22.18,133.228 c -2.25,0 -3.782,-1.344 -3.782,-3.391 0,-2 1.547,-3.375 3.735,-3.375 2.187,0 3.609,1.375 3.609,3.375 0,2.063 -1.5,3.391 -3.562,3.391 z m -0.016,-0.906 c 1.688,0 2.797,-1 2.797,-2.485 0,-1.484 -1.109,-2.484 -2.828,-2.484 -1.735,0 -2.938,1 -2.938,2.484 0,1.516 1.203,2.485 2.969,2.485 z" /><path
         id="path304"
         style="fill:#00ff00;fill-opacity:1;fill-rule:nonzero;stroke:none"
         d="m 23.102,138.587 c -1.688,0 -2.704,-0.828 -2.704,-2.156 0,-0.687 0.313,-1.234 0.907,-1.609 l -0.766,0 0,-0.719 7.125,0 0,0.797 -2.703,0 c 0.516,0.422 0.75,0.89 0.75,1.547 0,1.281 -1,2.14 -2.609,2.14 z m -0.016,-0.828 c 1.141,0 1.875,-0.594 1.875,-1.469 0,-0.843 -0.688,-1.39 -1.859,-1.39 -1.188,0 -1.954,0.547 -1.954,1.39 0,0.891 0.735,1.469 1.938,1.469 z" /><path
         id="path306"
         style="fill:#00ff00;fill-opacity:1;fill-rule:nonzero;stroke:none"
         d="m 25.57,141.306 -0.672,0 c 0.032,-0.109 0.032,-0.234 0.032,-0.391 0,-0.343 -0.094,-0.437 -0.438,-0.437 l -3.297,0 0,0.828 -0.656,0 0,-0.828 -1.375,0 0,-0.797 1.375,0 0,-0.672 0.656,0 0,0.672 3.641,0 c 0.516,0 0.797,0.344 0.797,0.969 0,0.187 -0.016,0.39 -0.063,0.656 z" /><path
         id="path308"
         style="fill:#00ff00;fill-opacity:1;fill-rule:nonzero;stroke:none"
         d="m 25.57,143.009 -5.031,0 0,-0.797 5.031,0 0,0.797 z m -5.781,0.11 -1,0 0,-1 1,0 0,1 z" /><path
         id="path310"
         style="fill:#00ff00;fill-opacity:1;fill-rule:nonzero;stroke:none"
         d="m 25.57,150.966 -3.765,0 c -0.907,0 -1.407,-0.5 -1.407,-1.437 0,-0.672 0.204,-1.078 0.766,-1.547 -0.531,-0.297 -0.766,-0.703 -0.766,-1.36 0,-0.671 0.25,-1.109 0.86,-1.546 l -0.719,0 0,-0.719 5.031,0 0,0.797 -3.156,0 c -0.734,0 -1.312,0.515 -1.312,1.172 0,0.593 0.359,0.937 1,0.937 l 3.468,0 0,0.797 -3.156,0 c -0.734,0 -1.312,0.531 -1.312,1.187 0,0.579 0.375,0.922 1,0.922 l 3.468,0 0,0.797 z" /><path
         id="path312"
         style="fill:#00ff00;fill-opacity:1;fill-rule:nonzero;stroke:none"
         d="m 25.57,153.134 -5.031,0 0,-0.797 5.031,0 0,0.797 z m -5.781,0.11 -1,0 0,-1 1,0 0,1 z" /><path
         id="path314"
         style="fill:#00ff00;fill-opacity:1;fill-rule:nonzero;stroke:none"
         d="m 24.164,158.205 c -0.75,0 -1.125,-0.422 -1.359,-1.422 l -0.188,-0.766 c -0.156,-0.656 -0.359,-0.937 -0.719,-0.937 -0.468,0 -0.765,0.421 -0.765,1.062 0,0.656 0.281,1 0.812,1.016 l 0,0.843 c -0.984,-0.015 -1.547,-0.656 -1.547,-1.828 0,-1.172 0.61,-1.922 1.532,-1.922 0.797,0 1.172,0.407 1.453,1.594 l 0.187,0.75 c 0.125,0.547 0.297,0.766 0.657,0.766 0.468,0 0.75,-0.469 0.75,-1.172 0,-0.719 -0.172,-1.109 -0.938,-1.219 l 0,-0.844 c 1.156,0.032 1.672,0.688 1.672,2 0,1.266 -0.578,2.079 -1.547,2.079 z" /><path
         id="path316"
         style="fill:#00ff00;fill-opacity:1;fill-rule:nonzero;stroke:none"
         d="m 25.555,163.724 -0.61,0 c 0.016,-0.078 0.016,-0.109 0.016,-0.172 0,-0.265 -0.141,-0.422 -0.391,-0.422 l -2.797,0 c -0.89,0 -1.375,-0.656 -1.375,-1.89 0,-1.219 0.469,-1.969 1.625,-2.016 l 0,0.797 c -0.609,0.078 -0.89,0.437 -0.89,1.187 0,0.719 0.281,1.125 0.75,1.125 l 0.219,0 c 0.328,0 0.468,-0.203 0.546,-0.843 0.157,-1.125 0.188,-1.297 0.313,-1.61 0.234,-0.578 0.687,-0.875 1.297,-0.875 0.922,0 1.453,0.625 1.453,1.641 0,0.656 -0.266,1.266 -0.734,1.719 0.375,0.078 0.656,0.422 0.656,0.812 0,0.172 -0.016,0.297 -0.078,0.547 z m -1.719,-1.391 c 0.719,0 1.172,-0.734 1.172,-1.515 0,-0.61 -0.219,-0.985 -0.766,-0.985 -0.531,0 -0.75,0.36 -0.875,1.219 -0.125,0.844 -0.156,1.016 -0.281,1.281 l 0.75,0 z" /><path
         id="path318"
         style="fill:#00ff00;fill-opacity:1;fill-rule:nonzero;stroke:none"
         d="m 25.57,166.372 -0.672,0 c 0.032,-0.109 0.032,-0.234 0.032,-0.39 0,-0.344 -0.094,-0.438 -0.438,-0.438 l -3.297,0 0,0.828 -0.656,0 0,-0.828 -1.375,0 0,-0.797 1.375,0 0,-0.671 0.656,0 0,0.671 3.641,0 c 0.516,0 0.797,0.344 0.797,0.969 0,0.188 -0.016,0.391 -0.063,0.656 z" /><path
         id="path320"
         style="fill:#00ff00;fill-opacity:1;fill-rule:nonzero;stroke:none"
         d="m 25.57,168.072 -5.031,0 0,-0.797 5.031,0 0,0.797 z m -5.781,0.109 -1,0 0,-1 1,0 0,1 z" /><path
         id="path322"
         style="fill:#00ff00;fill-opacity:1;fill-rule:nonzero;stroke:none"
         d="m 23.102,173.626 c -1.75,0 -2.704,-0.828 -2.704,-2.281 0,-1.406 0.969,-2.265 2.657,-2.265 1.687,0 2.656,0.843 2.656,2.281 0,1.406 -0.969,2.265 -2.609,2.265 z m -0.016,-0.828 c 1.172,0 1.891,-0.562 1.891,-1.437 0,-0.891 -0.704,-1.438 -1.922,-1.438 -1.203,0 -1.922,0.547 -1.922,1.438 0,0.89 0.703,1.437 1.953,1.437 z" /><path
         id="path324"
         style="fill:#00ff00;fill-opacity:1;fill-rule:nonzero;stroke:none"
         d="m 25.57,178.775 -3.797,0 c -0.843,0 -1.375,-0.625 -1.375,-1.594 0,-0.75 0.282,-1.219 0.985,-1.672 l -0.844,0 0,-0.734 5.031,0 0,0.797 -2.765,0 c -1.032,0 -1.703,0.562 -1.703,1.375 0,0.625 0.375,1.031 0.984,1.031 l 3.484,0 0,0.797 z" /><path
         id="path326"
         style="fill:#00ff00;fill-opacity:1;fill-rule:nonzero;stroke:none"
         d="m 25.57,181.267 -1,0 0,-1 1,0 0,1 z m -4.031,0 -1,0 0,-1 1,0 0,1 z" /><path
         id="path328"
         style="fill:#00ff00;fill-opacity:1;fill-rule:nonzero;stroke:none"
         d="m 25.57,186.857 -7,0 0,-0.797 2.61,0 c -0.516,-0.344 -0.782,-0.875 -0.782,-1.547 0,-1.297 1.016,-2.156 2.61,-2.156 1.703,0 2.703,0.828 2.703,2.187 0,0.688 -0.25,1.172 -0.875,1.594 l 0.734,0 0,0.719 z m -2.5,-0.797 c 1.172,0 1.891,-0.563 1.891,-1.406 0,-0.875 -0.734,-1.469 -1.906,-1.469 -1.172,0 -1.907,0.594 -1.907,1.469 0,0.859 0.766,1.406 1.922,1.406 z" /><path
         id="path330"
         style="fill:#00ff00;fill-opacity:1;fill-rule:nonzero;stroke:none"
         d="m 23.57,193.431 c -0.843,0 -1.343,-0.391 -1.687,-1.281 -0.297,0.625 -0.828,0.969 -1.531,0.969 -1.016,0 -1.782,-0.75 -1.782,-2.079 l 0,-2.828 7,0 0,3.157 c 0,1.25 -0.843,2.062 -2,2.062 z m -3.093,-1.203 c 0.703,0 1.109,-0.422 1.109,-1.406 l 0,-1.719 -2.219,0 0,1.719 c 0,0.984 0.406,1.406 1.11,1.406 z m 3.109,0.297 c 0.672,0 1.203,-0.406 1.203,-1.25 l 0,-2.172 -2.406,0 0,2.172 c 0,0.844 0.515,1.25 1.203,1.25 z" /><path
         id="path332"
         style="fill:#00ff00;fill-opacity:1;fill-rule:nonzero;stroke:none"
         d="m 23.648,199.802 c -0.859,0 -1.5,-0.531 -1.75,-1.484 l -0.468,-1.75 c -0.219,-0.844 -0.5,-1.156 -1.047,-1.156 -0.703,0 -1.235,0.625 -1.235,1.562 0,1.109 0.516,1.75 1.422,1.75 l 0,0.844 c -1.375,0 -2.172,-0.953 -2.172,-2.563 0,-1.531 0.844,-2.484 2.11,-2.484 0.859,0 1.39,0.453 1.64,1.375 l 0.454,1.734 c 0.234,0.875 0.593,1.282 1.14,1.282 0.766,0 1.219,-0.579 1.219,-1.782 0,-1.328 -0.672,-1.968 -1.672,-1.968 l 0,-0.86 c 1.656,0 2.453,1.125 2.453,2.766 0,1.781 -0.844,2.734 -2.094,2.734 z" /><path
         id="path334"
         style="fill:#00ff00;fill-opacity:1;fill-rule:nonzero;stroke:none"
         d="m 25.57,203.611 -6.797,0 0,-0.563 c 1.047,-0.297 1.188,-0.484 1.344,-1.781 l 0.61,0 0,1.5 4.843,0 0,0.844 z" /><path
         id="path336"
         style="fill:#00ff00;fill-opacity:1;fill-rule:nonzero;stroke:none"
         d="m 25.57,208.947 -6.797,0 0,-0.563 c 1.047,-0.297 1.188,-0.484 1.344,-1.781 l 0.61,0 0,1.5 4.843,0 0,0.844 z" /><path
         id="path338"
         style="fill:#00ffff;fill-opacity:1;fill-rule:nonzero;stroke:none"
         d="m 7.172,151.642 -7,0 0,-0.797 2.609,0 C 2.266,150.501 2,149.97 2,149.298 c 0,-1.297 1.016,-2.156 2.609,-2.156 1.703,0 2.703,0.828 2.703,2.188 0,0.687 -0.25,1.171 -0.874,1.593 l 0.734,0 0,0.719 z m -2.5,-0.797 c 1.172,0 1.89,-0.562 1.89,-1.406 0,-0.875 -0.734,-1.469 -1.906,-1.469 -1.172,0 -1.906,0.594 -1.906,1.469 0,0.859 0.766,1.406 1.922,1.406 z" /><path
         id="path340"
         style="fill:#00ffff;fill-opacity:1;fill-rule:nonzero;stroke:none"
         d="m 5.172,158.216 c -0.844,0 -1.344,-0.39 -1.688,-1.281 -0.296,0.625 -0.828,0.969 -1.531,0.969 -1.015,0 -1.781,-0.75 -1.781,-2.078 l 0,-2.829 7,0 0,3.157 c 0,1.25 -0.844,2.062 -2,2.062 z m -3.094,-1.203 c 0.703,0 1.11,-0.422 1.11,-1.406 l 0,-1.719 -2.219,0 0,1.719 c 0,0.984 0.406,1.406 1.109,1.406 z m 3.11,0.297 c 0.671,0 1.203,-0.406 1.203,-1.25 l 0,-2.172 -2.407,0 0,2.172 c 0,0.844 0.516,1.25 1.204,1.25 z" /><path
         id="path342"
         style="fill:#00ffff;fill-opacity:1;fill-rule:nonzero;stroke:none"
         d="m 5.25,164.587 c -0.859,0 -1.5,-0.531 -1.75,-1.484 l -0.469,-1.75 c -0.219,-0.844 -0.5,-1.156 -1.047,-1.156 -0.703,0 -1.234,0.625 -1.234,1.562 0,1.11 0.516,1.75 1.422,1.75 l 0,0.844 C 0.797,164.353 0,163.4 0,161.79 c 0,-1.531 0.844,-2.484 2.109,-2.484 0.86,0 1.391,0.453 1.641,1.375 l 0.453,1.734 c 0.235,0.875 0.594,1.282 1.141,1.282 0.765,0 1.218,-0.578 1.218,-1.782 0,-1.328 -0.671,-1.968 -1.671,-1.968 l 0,-0.86 c 1.656,0 2.453,1.125 2.453,2.766 0,1.781 -0.844,2.734 -2.094,2.734 z" /><path
         id="path344"
         style="fill:#00ffff;fill-opacity:1;fill-rule:nonzero;stroke:none"
         d="m 7.172,168.392 -6.797,0 0,-0.562 c 1.047,-0.297 1.187,-0.485 1.344,-1.782 l 0.609,0 0,1.5 4.844,0 0,0.844 z" /><path
         id="path346"
         style="fill:#00ffff;fill-opacity:1;fill-rule:nonzero;stroke:none"
         d="m 7.172,173.732 -6.797,0 0,-0.563 c 1.047,-0.297 1.187,-0.484 1.344,-1.781 l 0.609,0 0,1.5 4.844,0 0,0.844 z" /></g></g></svg>