<?xml version="1.0" encoding="UTF-8" standalone="no"?>
<svg
   xmlns:dc="http://purl.org/dc/elements/1.1/"
   xmlns:cc="http://creativecommons.org/ns#"
   xmlns:rdf="http://www.w3.org/1999/02/22-rdf-syntax-ns#"
   xmlns:svg="http://www.w3.org/2000/svg"
   xmlns="http://www.w3.org/2000/svg"
   viewBox="0 0 243.57039 183.89439"
   height="183.89439"
   width="243.57039"
   xml:space="preserve"
   version="1.1"
   id="svg2"><metadata
     id="metadata8"><rdf:RDF><cc:Work
         rdf:about=""><dc:format>image/svg+xml</dc:format><dc:type
           rdf:resource="http://purl.org/dc/dcmitype/StillImage" /></cc:Work></rdf:RDF></metadata><defs
     id="defs6" /><g
     transform="matrix(1.25,0,0,-1.25,0,183.8944)"
     id="g10"><g
       id="g12"><path
         id="path14"
         style="fill:none;stroke:#000080;stroke-width:1.60000002;stroke-linecap:square;stroke-linejoin:bevel;stroke-miterlimit:4;stroke-dasharray:none;stroke-opacity:1"
         d="m 1.078,126.838 48,0" /><path
         id="path16"
         style="fill:none;stroke:#000080;stroke-width:1.60000002;stroke-linecap:square;stroke-linejoin:bevel;stroke-miterlimit:4;stroke-dasharray:none;stroke-opacity:1"
         d="m 1.078,123.635 48,0" /><path
         id="path18"
         style="fill:none;stroke:#000080;stroke-width:1.60000002;stroke-linecap:square;stroke-linejoin:bevel;stroke-miterlimit:4;stroke-dasharray:none;stroke-opacity:1"
         d="m 1.078,101.237 48,0" /><path
         id="path20"
         style="fill:none;stroke:#000080;stroke-width:1.60000002;stroke-linecap:square;stroke-linejoin:bevel;stroke-miterlimit:4;stroke-dasharray:none;stroke-opacity:1"
         d="m 1.078,104.436 48,0" /><path
         id="path22"
         style="fill:none;stroke:#000080;stroke-width:1.60000002;stroke-linecap:square;stroke-linejoin:bevel;stroke-miterlimit:4;stroke-dasharray:none;stroke-opacity:1"
         d="m 1.078,126.838 0,-25.601" /><path
         id="path24"
         style="fill:none;stroke:#000080;stroke-width:1.60000002;stroke-linecap:square;stroke-linejoin:bevel;stroke-miterlimit:4;stroke-dasharray:none;stroke-opacity:1"
         d="m 49.078,126.838 0,-25.601" /><path
         id="path26"
         style="fill:none;stroke:#000080;stroke-width:1.60000002;stroke-linecap:square;stroke-linejoin:bevel;stroke-miterlimit:4;stroke-dasharray:none;stroke-opacity:1"
         d="m 1.078,126.838 36.801,19.199" /><path
         id="path28"
         style="fill:none;stroke:#000080;stroke-width:1.60000002;stroke-linecap:square;stroke-linejoin:bevel;stroke-miterlimit:4;stroke-dasharray:none;stroke-opacity:1"
         d="m 49.078,126.838 40,19.199" /><path
         id="path30"
         style="fill:none;stroke:#000080;stroke-width:1.60000002;stroke-linecap:square;stroke-linejoin:bevel;stroke-miterlimit:4;stroke-dasharray:none;stroke-opacity:1"
         d="m 49.078,123.635 40,19.203" /><path
         id="path32"
         style="fill:none;stroke:#000080;stroke-width:1.60000002;stroke-linecap:square;stroke-linejoin:bevel;stroke-miterlimit:4;stroke-dasharray:none;stroke-opacity:1"
         d="m 49.078,104.436 40,22.402" /><path
         id="path34"
         style="fill:none;stroke:#000080;stroke-width:1.60000002;stroke-linecap:square;stroke-linejoin:bevel;stroke-miterlimit:4;stroke-dasharray:none;stroke-opacity:1"
         d="m 49.078,101.237 40,22.398" /><path
         id="path36"
         style="fill:none;stroke:#000080;stroke-width:1.60000002;stroke-linecap:square;stroke-linejoin:bevel;stroke-miterlimit:4;stroke-dasharray:none;stroke-opacity:1"
         d="m 37.879,146.037 51.199,0" /><path
         id="path38"
         style="fill:none;stroke:#000080;stroke-width:1.60000002;stroke-linecap:square;stroke-linejoin:bevel;stroke-miterlimit:4;stroke-dasharray:none;stroke-opacity:1"
         d="m 89.078,146.037 0,-22.402" /><path
         id="path40"
         style="fill:none;stroke:#000080;stroke-width:0.80000001;stroke-linecap:square;stroke-linejoin:bevel;stroke-miterlimit:4;stroke-dasharray:none;stroke-opacity:1"
         d="m 1.078,114.037 9.602,9.598" /><path
         id="path42"
         style="fill:none;stroke:#000080;stroke-width:0.80000001;stroke-linecap:square;stroke-linejoin:bevel;stroke-miterlimit:4;stroke-dasharray:none;stroke-opacity:1"
         d="m 7.48,104.436 19.2,19.199" /><path
         id="path44"
         style="fill:none;stroke:#000080;stroke-width:0.80000001;stroke-linecap:square;stroke-linejoin:bevel;stroke-miterlimit:4;stroke-dasharray:none;stroke-opacity:1"
         d="m 23.48,104.436 19.2,19.199" /><path
         id="path46"
         style="fill:none;stroke:#000080;stroke-width:0.80000001;stroke-linecap:square;stroke-linejoin:bevel;stroke-miterlimit:4;stroke-dasharray:none;stroke-opacity:1"
         d="m 39.48,104.436 9.598,9.601" /><path
         id="path48"
         style="fill:none;stroke:#000080;stroke-width:0.80000001;stroke-linecap:square;stroke-linejoin:bevel;stroke-miterlimit:4;stroke-dasharray:none;stroke-opacity:1"
         d="m 49.078,113.237 5.602,-5.602" /><path
         id="path50"
         style="fill:none;stroke:#000080;stroke-width:0.80000001;stroke-linecap:square;stroke-linejoin:bevel;stroke-miterlimit:4;stroke-dasharray:none;stroke-opacity:1"
         d="m 54.68,126.037 12,-12" /><path
         id="path52"
         style="fill:none;stroke:#000080;stroke-width:0.80000001;stroke-linecap:square;stroke-linejoin:bevel;stroke-miterlimit:4;stroke-dasharray:none;stroke-opacity:1"
         d="M 66.68,131.635 77.879,120.436" /><path
         id="path54"
         style="fill:none;stroke:#000080;stroke-width:0.80000001;stroke-linecap:square;stroke-linejoin:bevel;stroke-miterlimit:4;stroke-dasharray:none;stroke-opacity:1"
         d="M 77.879,138.037 89.078,126.838" /><path
         id="path56"
         style="fill:#000000;fill-opacity:1;fill-rule:nonzero;stroke:none"
         d="m 7.035,85.557 c 0,0.859 -0.531,1.5 -1.484,1.75 l -1.75,0.469 c -0.844,0.218 -1.156,0.5 -1.156,1.047 0,0.703 0.625,1.234 1.562,1.234 1.109,0 1.75,-0.516 1.75,-1.422 l 0.844,0 c 0,1.375 -0.953,2.172 -2.563,2.172 -1.531,0 -2.484,-0.844 -2.484,-2.109 0,-0.86 0.453,-1.391 1.375,-1.641 l 1.734,-0.453 c 0.875,-0.235 1.282,-0.594 1.282,-1.141 0,-0.765 -0.579,-1.219 -1.782,-1.219 -1.328,0 -1.968,0.672 -1.968,1.672 l -0.86,0 c 0,-1.656 1.125,-2.453 2.766,-2.453 1.781,0 2.734,0.844 2.734,2.094 z" /><path
         id="path58"
         style="fill:#000000;fill-opacity:1;fill-rule:nonzero;stroke:none"
         d="m 12.109,83.635 0,5.031 -0.797,0 0,-2.781 c 0,-1.016 -0.531,-1.687 -1.374,-1.687 -0.626,0 -1.032,0.375 -1.032,0.984 l 0,3.484 -0.797,0 0,-3.797 c 0,-0.843 0.625,-1.375 1.594,-1.375 0.75,0 1.219,0.25 1.688,0.922 l 0,-0.781 0.718,0 z" /><path
         id="path60"
         style="fill:#000000;fill-opacity:1;fill-rule:nonzero;stroke:none"
         d="m 17.836,86.213 c 0,1.625 -0.828,2.594 -2.141,2.594 -0.703,0 -1.187,-0.266 -1.562,-0.828 l 0,2.656 -0.797,0 0,-7 0.719,0 0,0.719 c 0.39,-0.578 0.89,-0.86 1.593,-0.86 1.329,0 2.188,1.079 2.188,2.719 z m -0.828,-0.062 c 0,-1.141 -0.594,-1.907 -1.469,-1.907 -0.844,0 -1.406,0.766 -1.406,1.907 0,1.172 0.562,1.953 1.406,1.906 0.891,0 1.469,-0.781 1.469,-1.906 z" /><path
         id="path62"
         style="fill:#000000;fill-opacity:1;fill-rule:nonzero;stroke:none"
         d="m 22.566,85.041 c 0,0.75 -0.421,1.125 -1.421,1.36 l -0.766,0.187 c -0.656,0.156 -0.938,0.36 -0.938,0.719 0,0.469 0.422,0.766 1.063,0.766 0.656,0 1,-0.282 1.016,-0.813 l 0.843,0 c -0.015,0.984 -0.656,1.547 -1.828,1.547 -1.172,0 -1.922,-0.609 -1.922,-1.531 0,-0.797 0.407,-1.172 1.594,-1.453 l 0.75,-0.188 c 0.547,-0.125 0.766,-0.297 0.766,-0.656 0,-0.469 -0.469,-0.75 -1.172,-0.75 -0.719,0 -1.11,0.172 -1.219,0.937 l -0.844,0 c 0.032,-1.156 0.688,-1.672 2,-1.672 1.266,0 2.078,0.579 2.078,1.547 z" /><path
         id="path64"
         style="fill:#000000;fill-opacity:1;fill-rule:nonzero;stroke:none"
         d="m 25.367,83.635 0,0.672 c -0.109,-0.031 -0.234,-0.031 -0.39,-0.031 -0.344,0 -0.438,0.093 -0.438,0.437 l 0,3.297 0.828,0 0,0.656 -0.828,0 0,1.375 -0.797,0 0,-1.375 -0.672,0 0,-0.656 0.672,0 0,-3.641 c 0,-0.515 0.344,-0.796 0.969,-0.796 0.187,0 0.391,0.015 0.656,0.062 z" /><path
         id="path66"
         style="fill:#000000;fill-opacity:1;fill-rule:nonzero;stroke:none"
         d="m 28.926,83.635 0,6.797 -0.563,0 c -0.297,-1.047 -0.484,-1.188 -1.781,-1.344 l 0,-0.609 1.5,0 0,-4.844 0.844,0 z" /><path
         id="path68"
         style="fill:#000000;fill-opacity:1;fill-rule:nonzero;stroke:none"
         d="m 6.004,72.315 c 0,0.734 -0.063,1.187 -0.203,1.562 -0.328,0.828 -1.094,1.328 -2.031,1.328 -1.407,0 -2.297,-1.031 -2.297,-2.687 0,-1.656 0.859,-2.625 2.281,-2.625 1.141,0 1.937,0.656 2.141,1.672 l -0.797,0 C 4.879,70.893 4.426,70.627 3.785,70.627 c -0.844,0 -1.469,0.531 -1.484,1.688 l 3.703,0 z m -0.859,0.718 c 0,0 0,-0.046 0,-0.062 l -2.829,0 c 0.079,0.891 0.641,1.5 1.438,1.5 0.797,0 1.391,-0.656 1.391,-1.438 z" /><path
         id="path70"
         style="fill:#000000;fill-opacity:1;fill-rule:nonzero;stroke:none"
         d="m 9.496,74.362 0,0.812 c -0.141,0.016 -0.203,0.031 -0.312,0.031 -0.516,0 -0.907,-0.312 -1.36,-1.062 l 0,0.922 -0.734,0 0,-5.032 0.797,0 0,2.61 c 0,1.125 0.375,1.703 1.609,1.719 z" /><path
         id="path72"
         style="fill:#000000;fill-opacity:1;fill-rule:nonzero;stroke:none"
         d="m 14.566,72.971 0,0.656 -4.296,0 0,-0.656 4.296,0 z m 0,-1.734 0,0.656 -4.296,0 0,-0.656 4.296,0 z" /><path
         id="path74"
         style="fill:#000000;fill-opacity:1;fill-rule:nonzero;stroke:none"
         d="m 20.207,71.658 0,0.766 -1,0 0,4.406 -0.625,0 -3.094,-4.281 0,-0.891 2.875,0 0,-1.625 0.844,0 0,1.625 1,0 z m -1.844,0.766 -2.14,0 2.14,2.969 0,-2.969 z" /><path
         id="path76"
         style="fill:#000000;fill-opacity:1;fill-rule:nonzero;stroke:none"
         d="m 21.387,71.033 1,0 0,-1 -1,0 0,1 z" /><path
         id="path78"
         style="fill:#000000;fill-opacity:1;fill-rule:nonzero;stroke:none"
         d="m 28.211,75.987 0,0.703 -4.547,0 0,-0.828 3.672,0 c -1.344,-1.719 -2.313,-3.704 -2.781,-5.829 l 0.89,0 c 0.375,2.204 1.344,4.25 2.766,5.954 z" /><path
         id="path80"
         style="fill:#000000;fill-opacity:1;fill-rule:nonzero;stroke:none"
         d="m 5.738,56.436 0,3.797 c 0,0.843 -0.593,1.375 -1.578,1.375 -0.703,0 -1.14,-0.219 -1.609,-0.828 l 0,2.656 -0.797,0 0,-7 0.797,0 0,2.765 c 0,1.032 0.531,1.704 1.359,1.704 0.563,0 1.031,-0.329 1.031,-0.985 l 0,-3.484 0.797,0 z" /><path
         id="path82"
         style="fill:#000000;fill-opacity:1;fill-rule:nonzero;stroke:none"
         d="m 11.371,59.373 0,0.657 -4.297,0 0,-0.657 4.297,0 z m 0,-1.734 0,0.656 -4.297,0 0,-0.656 4.297,0 z" /><path
         id="path84"
         style="fill:#000000;fill-opacity:1;fill-rule:nonzero;stroke:none"
         d="m 15.352,56.436 0,6.797 -0.563,0 c -0.297,-1.047 -0.484,-1.188 -1.781,-1.344 l 0,-0.609 1.5,0 0,-4.844 0.844,0 z" /><path
         id="path86"
         style="fill:#000000;fill-opacity:1;fill-rule:nonzero;stroke:none"
         d="m 18.191,57.436 1,0 0,-1 -1,0 0,1 z" /><path
         id="path88"
         style="fill:#000000;fill-opacity:1;fill-rule:nonzero;stroke:none"
         d="m 24.953,58.686 c 0,1.344 -0.891,2.234 -2.203,2.234 -0.469,0 -0.859,-0.125 -1.25,-0.422 l 0.266,1.766 2.828,0 0,0.828 -3.5,0 -0.516,-3.562 0.781,0 c 0.391,0.468 0.719,0.64 1.25,0.64 0.907,0 1.485,-0.594 1.485,-1.594 0,-0.984 -0.578,-1.531 -1.485,-1.531 -0.75,0 -1.203,0.375 -1.39,1.141 l -0.86,0 c 0.282,-1.36 1.047,-1.891 2.266,-1.891 1.375,0 2.328,0.953 2.328,2.391 z" /><path
         id="path90"
         style="fill:#000000;fill-opacity:1;fill-rule:nonzero;stroke:none"
         d="m 30.289,58.686 c 0,1.344 -0.891,2.234 -2.203,2.234 -0.469,0 -0.859,-0.125 -1.25,-0.422 l 0.266,1.766 2.828,0 0,0.828 -3.5,0 -0.516,-3.562 0.781,0 c 0.391,0.468 0.719,0.64 1.25,0.64 0.907,0 1.485,-0.594 1.485,-1.594 0,-0.984 -0.578,-1.531 -1.485,-1.531 -0.75,0 -1.203,0.375 -1.39,1.141 l -0.86,0 c 0.282,-1.36 1.047,-1.891 2.266,-1.891 1.375,0 2.328,0.953 2.328,2.391 z" /><path
         id="path92"
         style="fill:#000000;fill-opacity:1;fill-rule:nonzero;stroke:none"
         d="m 40.672,56.436 0,3.765 c 0,0.907 -0.5,1.407 -1.438,1.407 -0.672,0 -1.078,-0.203 -1.546,-0.766 -0.297,0.531 -0.704,0.766 -1.36,0.766 -0.672,0 -1.109,-0.25 -1.547,-0.86 l 0,0.719 -0.719,0 0,-5.031 0.797,0 0,3.156 c 0,0.734 0.516,1.313 1.172,1.313 0.594,0 0.938,-0.36 0.938,-1 l 0,-3.469 0.797,0 0,3.156 c 0,0.734 0.531,1.313 1.187,1.313 0.578,0 0.922,-0.375 0.922,-1 l 0,-3.469 0.797,0 z" /><path
         id="path94"
         style="fill:#000000;fill-opacity:1;fill-rule:nonzero;stroke:none"
         d="m 48.695,56.436 0,3.765 c 0,0.907 -0.5,1.407 -1.437,1.407 -0.672,0 -1.078,-0.203 -1.547,-0.766 -0.297,0.531 -0.703,0.766 -1.359,0.766 -0.672,0 -1.11,-0.25 -1.547,-0.86 l 0,0.719 -0.719,0 0,-5.031 0.797,0 0,3.156 c 0,0.734 0.515,1.313 1.172,1.313 0.593,0 0.937,-0.36 0.937,-1 l 0,-3.469 0.797,0 0,3.156 c 0,0.734 0.531,1.313 1.188,1.313 0.578,0 0.921,-0.375 0.921,-1 l 0,-3.469 0.797,0 z" /><path
         id="path96"
         style="fill:#000000;fill-opacity:1;fill-rule:nonzero;stroke:none"
         d="m 3.52,42.834 0,0.672 C 3.41,43.475 3.285,43.475 3.129,43.475 c -0.344,0 -0.438,0.094 -0.438,0.437 l 0,3.297 0.829,0 0,0.657 -0.829,0 0,1.375 -0.796,0 0,-1.375 -0.672,0 0,-0.657 0.672,0 0,-3.64 c 0,-0.516 0.343,-0.797 0.968,-0.797 0.188,0 0.391,0.015 0.657,0.062 z" /><path
         id="path98"
         style="fill:#000000;fill-opacity:1;fill-rule:nonzero;stroke:none"
         d="m 8.703,45.772 0,0.656 -4.297,0 0,-0.656 4.297,0 z m 0,-1.735 0,0.657 -4.297,0 0,-0.657 4.297,0 z" /><path
         id="path100"
         style="fill:#000000;fill-opacity:1;fill-rule:nonzero;stroke:none"
         d="m 14.215,44.803 c 0,0.828 -0.344,1.313 -1.156,1.594 0.64,0.25 0.953,0.687 0.953,1.375 0,1.172 -0.782,1.859 -2.078,1.859 -1.375,0 -2.094,-0.75 -2.125,-2.187 l 0.843,0 c 0.016,1 0.438,1.453 1.297,1.453 0.75,0 1.203,-0.438 1.203,-1.156 0,-0.735 -0.328,-1.032 -1.672,-1.032 l 0,-0.703 0.454,0 c 0.937,0 1.406,-0.453 1.406,-1.203 0,-0.859 -0.516,-1.359 -1.406,-1.359 -0.922,0 -1.375,0.453 -1.422,1.437 l -0.844,0 c 0.094,-1.515 0.844,-2.187 2.234,-2.187 1.407,0 2.313,0.828 2.313,2.109 z" /><path
         id="path102"
         style="fill:#000000;fill-opacity:1;fill-rule:nonzero;stroke:none"
         d="m 19.613,45.084 c 0,1.344 -0.89,2.235 -2.203,2.235 -0.469,0 -0.859,-0.125 -1.25,-0.422 l 0.266,1.765 2.828,0 0,0.829 -3.5,0 -0.516,-3.563 0.782,0 c 0.39,0.469 0.718,0.641 1.25,0.641 0.906,0 1.484,-0.594 1.484,-1.594 0,-0.984 -0.578,-1.531 -1.484,-1.531 -0.75,0 -1.204,0.375 -1.391,1.14 l -0.859,0 c 0.281,-1.359 1.046,-1.89 2.265,-1.89 1.375,0 2.328,0.953 2.328,2.39 z" /><path
         id="path104"
         style="fill:#000000;fill-opacity:1;fill-rule:nonzero;stroke:none"
         d="m 27.324,42.834 0,5.032 -0.797,0 0,-2.782 c 0,-1.015 -0.531,-1.687 -1.375,-1.687 -0.625,0 -1.031,0.375 -1.031,0.984 l 0,3.485 -0.797,0 0,-3.797 c 0,-0.844 0.625,-1.375 1.594,-1.375 0.75,0 1.219,0.25 1.687,0.922 l 0,-0.782 0.719,0 z" /><path
         id="path106"
         style="fill:#000000;fill-opacity:1;fill-rule:nonzero;stroke:none"
         d="m 35.336,42.834 0,3.766 c 0,0.906 -0.5,1.406 -1.438,1.406 -0.671,0 -1.078,-0.203 -1.546,-0.765 -0.297,0.531 -0.704,0.765 -1.36,0.765 -0.672,0 -1.109,-0.25 -1.547,-0.859 l 0,0.719 -0.718,0 0,-5.032 0.796,0 0,3.157 c 0,0.734 0.516,1.312 1.172,1.312 0.594,0 0.938,-0.359 0.938,-1 l 0,-3.469 0.797,0 0,3.157 c 0,0.734 0.531,1.312 1.187,1.312 0.578,0 0.922,-0.375 0.922,-1 l 0,-3.469 0.797,0 z" /><path
         id="path108"
         style="fill:#000000;fill-opacity:1;fill-rule:nonzero;stroke:none"
         d="m 3.52,29.237 0,0.671 C 3.41,29.877 3.285,29.877 3.129,29.877 c -0.344,0 -0.438,0.094 -0.438,0.438 l 0,3.297 0.829,0 0,0.656 -0.829,0 0,1.375 -0.796,0 0,-1.375 -0.672,0 0,-0.656 0.672,0 0,-3.641 c 0,-0.516 0.343,-0.797 0.968,-0.797 0.188,0 0.391,0.016 0.657,0.063 z" /><path
         id="path110"
         style="fill:#000000;fill-opacity:1;fill-rule:nonzero;stroke:none"
         d="m 8.875,29.252 0,0.61 C 8.797,29.846 8.766,29.846 8.703,29.846 c -0.265,0 -0.422,0.141 -0.422,0.391 l 0,2.796 c 0,0.891 -0.656,1.375 -1.89,1.375 -1.219,0 -1.969,-0.468 -2.016,-1.625 l 0.797,0 c 0.078,0.61 0.437,0.891 1.187,0.891 0.719,0 1.125,-0.281 1.125,-0.75 l 0,-0.219 C 7.484,32.377 7.281,32.237 6.641,32.158 5.516,32.002 5.344,31.971 5.031,31.846 4.453,31.612 4.156,31.158 4.156,30.549 c 0,-0.922 0.625,-1.453 1.641,-1.453 0.656,0 1.265,0.266 1.719,0.734 0.078,-0.375 0.422,-0.656 0.812,-0.656 0.172,0 0.297,0.016 0.547,0.078 z m -1.391,1.719 c 0,-0.719 -0.734,-1.172 -1.515,-1.172 -0.61,0 -0.985,0.219 -0.985,0.766 0,0.531 0.36,0.75 1.219,0.875 0.844,0.125 1.016,0.156 1.281,0.281 l 0,-0.75 z" /><path
         id="path112"
         style="fill:#000000;fill-opacity:1;fill-rule:nonzero;stroke:none"
         d="m 13.758,29.237 0,3.796 c 0,0.844 -0.625,1.375 -1.594,1.375 -0.75,0 -1.219,-0.281 -1.672,-0.984 l 0,0.844 -0.734,0 0,-5.031 0.797,0 0,2.765 c 0,1.031 0.562,1.703 1.375,1.703 0.625,0 1.031,-0.375 1.031,-0.984 l 0,-3.484 0.797,0 z" /><path
         id="path114"
         style="fill:#000000;fill-opacity:1;fill-rule:nonzero;stroke:none"
         d="m 19.176,29.237 0,7 -0.797,0 0,-2.61 c -0.344,0.516 -0.875,0.781 -1.547,0.781 -1.297,0 -2.156,-1.015 -2.156,-2.609 0,-1.703 0.828,-2.703 2.187,-2.703 0.688,0 1.172,0.25 1.594,0.875 l 0,-0.734 0.719,0 z m -0.797,2.5 c 0,-1.172 -0.563,-1.891 -1.406,-1.891 -0.875,0 -1.469,0.734 -1.469,1.906 0,1.172 0.594,1.906 1.469,1.906 0.859,0 1.406,-0.765 1.406,-1.921 z" /><path
         id="path116"
         style="fill:#000000;fill-opacity:1;fill-rule:nonzero;stroke:none"
         d="m 24.715,32.174 0,0.656 -4.297,0 0,-0.656 4.297,0 z m 0,-1.734 0,0.656 -4.297,0 0,-0.656 4.297,0 z" /><path
         id="path118"
         style="fill:#000000;fill-opacity:1;fill-rule:nonzero;stroke:none"
         d="m 27.805,29.237 0,0.671 c -0.11,-0.031 -0.235,-0.031 -0.391,-0.031 -0.344,0 -0.437,0.094 -0.437,0.438 l 0,3.297 0.828,0 0,0.656 -0.828,0 0,1.375 -0.797,0 0,-1.375 -0.672,0 0,-0.656 0.672,0 0,-3.641 c 0,-0.516 0.343,-0.797 0.968,-0.797 0.188,0 0.391,0.016 0.657,0.063 z" /><path
         id="path120"
         style="fill:#000000;fill-opacity:1;fill-rule:nonzero;stroke:none"
         d="m 33.164,29.252 0,0.61 c -0.078,-0.016 -0.109,-0.016 -0.172,-0.016 -0.265,0 -0.422,0.141 -0.422,0.391 l 0,2.796 c 0,0.891 -0.656,1.375 -1.89,1.375 -1.219,0 -1.969,-0.468 -2.016,-1.625 l 0.797,0 c 0.078,0.61 0.437,0.891 1.187,0.891 0.719,0 1.125,-0.281 1.125,-0.75 l 0,-0.219 c 0,-0.328 -0.203,-0.468 -0.843,-0.547 -1.125,-0.156 -1.297,-0.187 -1.61,-0.312 -0.578,-0.234 -0.875,-0.688 -0.875,-1.297 0,-0.922 0.625,-1.453 1.641,-1.453 0.656,0 1.266,0.266 1.719,0.734 0.078,-0.375 0.422,-0.656 0.812,-0.656 0.172,0 0.297,0.016 0.547,0.078 z m -1.391,1.719 c 0,-0.719 -0.734,-1.172 -1.515,-1.172 -0.61,0 -0.985,0.219 -0.985,0.766 0,0.531 0.36,0.75 1.219,0.875 0.844,0.125 1.016,0.156 1.281,0.281 l 0,-0.75 z" /><path
         id="path122"
         style="fill:#000000;fill-opacity:1;fill-rule:nonzero;stroke:none"
         d="m 38.047,29.237 0,3.796 c 0,0.844 -0.625,1.375 -1.594,1.375 -0.75,0 -1.219,-0.281 -1.672,-0.984 l 0,0.844 -0.734,0 0,-5.031 0.797,0 0,2.765 c 0,1.031 0.562,1.703 1.375,1.703 0.625,0 1.031,-0.375 1.031,-0.984 l 0,-3.484 0.797,0 z" /><path
         id="path124"
         style="fill:#000000;fill-opacity:1;fill-rule:nonzero;stroke:none"
         d="m 43.461,29.237 0,7 -0.797,0 0,-2.61 c -0.344,0.516 -0.875,0.781 -1.547,0.781 -1.297,0 -2.156,-1.015 -2.156,-2.609 0,-1.703 0.828,-2.703 2.187,-2.703 0.688,0 1.172,0.25 1.594,0.875 l 0,-0.734 0.719,0 z m -0.797,2.5 c 0,-1.172 -0.562,-1.891 -1.406,-1.891 -0.875,0 -1.469,0.734 -1.469,1.906 0,1.172 0.594,1.906 1.469,1.906 0.859,0 1.406,-0.765 1.406,-1.921 z" /><path
         id="path126"
         style="fill:#000000;fill-opacity:1;fill-rule:nonzero;stroke:none"
         d="m 4.16,19.963 0,0.813 c -0.14,0.015 -0.203,0.031 -0.312,0.031 -0.516,0 -0.907,-0.313 -1.36,-1.063 l 0,0.922 -0.734,0 0,-5.031 0.797,0 0,2.609 c 0,1.125 0.375,1.704 1.609,1.719 z" /><path
         id="path128"
         style="fill:#000000;fill-opacity:1;fill-rule:nonzero;stroke:none"
         d="m 8.934,15.635 0,3.797 c 0,0.844 -0.594,1.375 -1.579,1.375 -0.703,0 -1.14,-0.219 -1.609,-0.828 l 0,2.656 -0.797,0 0,-7 0.797,0 0,2.766 c 0,1.031 0.531,1.703 1.359,1.703 0.563,0 1.032,-0.328 1.032,-0.985 l 0,-3.484 0.797,0 z" /><path
         id="path130"
         style="fill:#000000;fill-opacity:1;fill-rule:nonzero;stroke:none"
         d="m 14.504,18.104 c 0,1.75 -0.828,2.703 -2.281,2.703 -1.407,0 -2.266,-0.969 -2.266,-2.656 0,-1.688 0.844,-2.657 2.281,-2.657 1.407,0 2.266,0.969 2.266,2.61 z m -0.828,0.015 c 0,-1.171 -0.563,-1.89 -1.438,-1.89 -0.89,0 -1.437,0.703 -1.437,1.922 0,1.203 0.547,1.922 1.437,1.922 0.891,0 1.438,-0.704 1.438,-1.954 z" /><path
         id="path132"
         style="fill:#000000;fill-opacity:1;fill-rule:nonzero;stroke:none"
         d="m 19.906,18.573 0,0.656 -4.297,0 0,-0.656 4.297,0 z m 0,-1.735 0,0.656 -4.297,0 0,-0.656 4.297,0 z" /><path
         id="path134"
         style="fill:#000000;fill-opacity:1;fill-rule:nonzero;stroke:none"
         d="m 23.887,15.635 0,6.797 -0.563,0 C 23.027,21.385 22.84,21.244 21.543,21.088 l 0,-0.609 1.5,0 0,-4.844 0.844,0 z" /><path
         id="path136"
         style="fill:#000000;fill-opacity:1;fill-rule:nonzero;stroke:none"
         d="m 30.848,17.744 c 0,1.266 -0.86,2.125 -2.078,2.125 -0.672,0 -1.204,-0.265 -1.563,-0.765 0,1.656 0.547,2.578 1.516,2.578 0.593,0 1,-0.375 1.14,-1.016 l 0.844,0 c -0.172,1.11 -0.891,1.766 -1.937,1.766 -1.579,0 -2.438,-1.328 -2.438,-3.703 0,-2.11 0.734,-3.235 2.297,-3.235 1.281,0 2.219,0.922 2.219,2.25 z m -0.86,-0.062 c 0,-0.859 -0.578,-1.438 -1.359,-1.438 -0.781,0 -1.375,0.61 -1.375,1.485 0,0.844 0.578,1.39 1.406,1.39 0.813,0 1.328,-0.531 1.328,-1.437 z" /><path
         id="path138"
         style="fill:#000000;fill-opacity:1;fill-rule:nonzero;stroke:none"
         d="m 32.09,16.635 1,0 0,-1 -1,0 0,1 z" /><path
         id="path140"
         style="fill:#000000;fill-opacity:1;fill-rule:nonzero;stroke:none"
         d="m 38.914,21.588 0,0.703 -4.547,0 0,-0.828 3.672,0 C 36.695,19.744 35.727,17.76 35.258,15.635 l 0.89,0 c 0.375,2.203 1.344,4.25 2.766,5.953 z" /><path
         id="path142"
         style="fill:#000000;fill-opacity:1;fill-rule:nonzero;stroke:none"
         d="m 44.191,17.557 c 0,0.75 -0.39,1.281 -1.171,1.656 0.703,0.422 0.937,0.766 0.937,1.406 0,1.063 -0.844,1.813 -2.047,1.813 -1.203,0 -2.047,-0.75 -2.047,-1.813 0,-0.625 0.235,-0.968 0.922,-1.406 -0.781,-0.375 -1.156,-0.906 -1.156,-1.656 0,-1.234 0.937,-2.063 2.281,-2.063 1.344,0 2.281,0.829 2.281,2.063 z m -1.109,3.047 c 0,-0.625 -0.469,-1.047 -1.172,-1.047 -0.719,0 -1.187,0.422 -1.187,1.062 0,0.641 0.468,1.063 1.187,1.063 0.719,0 1.172,-0.422 1.172,-1.078 z m 0.25,-3.063 c 0,-0.797 -0.578,-1.297 -1.437,-1.297 -0.829,0 -1.407,0.5 -1.407,1.297 0,0.797 0.578,1.297 1.422,1.297 0.844,0 1.422,-0.5 1.422,-1.297 z" /><path
         id="path144"
         style="fill:#000000;fill-opacity:1;fill-rule:nonzero;stroke:none"
         d="m 49.527,17.916 c 0,0.735 -0.062,1.188 -0.203,1.563 -0.328,0.828 -1.094,1.328 -2.031,1.328 -1.406,0 -2.297,-1.031 -2.297,-2.688 0,-1.656 0.859,-2.625 2.281,-2.625 1.141,0 1.938,0.657 2.141,1.672 l -0.797,0 c -0.219,-0.672 -0.672,-0.937 -1.312,-0.937 -0.844,0 -1.469,0.531 -1.485,1.687 l 3.703,0 z m -0.859,0.719 c 0,0 0,-0.047 0,-0.062 l -2.828,0 c 0.078,0.89 0.64,1.5 1.437,1.5 0.797,0 1.391,-0.657 1.391,-1.438 z" /><path
         id="path146"
         style="fill:#000000;fill-opacity:1;fill-rule:nonzero;stroke:none"
         d="m 50.383,18.635 2.281,0 0,-0.703 -2.281,0 0,0.703 z" /><path
         id="path148"
         style="fill:#000000;fill-opacity:1;fill-rule:nonzero;stroke:none"
         d="m 58.059,19.198 c 0,2.125 -0.75,3.234 -2.297,3.234 -1.297,0 -2.235,-0.922 -2.235,-2.25 0,-1.266 0.875,-2.125 2.094,-2.125 0.641,0 1.109,0.234 1.563,0.766 -0.016,-1.657 -0.547,-2.579 -1.516,-2.579 -0.594,0 -1.016,0.375 -1.141,1.016 l -0.843,0 c 0.156,-1.109 0.89,-1.766 1.921,-1.766 1.594,0 2.454,1.344 2.454,3.704 z m -0.922,1 c 0,-0.829 -0.594,-1.391 -1.422,-1.391 -0.813,0 -1.313,0.531 -1.313,1.437 0,0.875 0.563,1.454 1.344,1.454 0.797,0 1.391,-0.61 1.391,-1.5 z" /><path
         id="path150"
         style="fill:#000000;fill-opacity:1;fill-rule:nonzero;stroke:none"
         d="m 7.488,5.533 c 0,2.172 -1.078,3.5 -2.859,3.5 l -2.688,0 0,-7 2.688,0 c 1.766,0 2.859,1.329 2.859,3.5 z M 6.582,5.518 c 0,-1.75 -0.719,-2.703 -2.109,-2.703 l -1.641,0 0,5.422 1.641,0 c 1.39,0 2.109,-0.922 2.109,-2.719 z" /><path
         id="path152"
         style="fill:#000000;fill-opacity:1;fill-rule:nonzero;stroke:none"
         d="m 12.965,4.971 0,0.656 -4.297,0 0,-0.656 4.297,0 z m 0,-1.734 0,0.656 -4.297,0 0,-0.656 4.297,0 z" /><path
         id="path154"
         style="fill:#000000;fill-opacity:1;fill-rule:nonzero;stroke:none"
         d="m 18.477,5.299 c 0,2.359 -0.75,3.531 -2.219,3.531 -1.469,0 -2.235,-1.187 -2.235,-3.468 0,-2.297 0.782,-3.469 2.235,-3.469 1.437,0 2.219,1.172 2.219,3.406 z m -0.86,0.078 c 0,-1.922 -0.437,-2.781 -1.375,-2.781 -0.89,0 -1.344,0.891 -1.344,2.75 0,1.875 0.454,2.734 1.36,2.734 0.906,0 1.359,-0.875 1.359,-2.703 z" /><path
         id="path156"
         style="fill:#000000;fill-opacity:1;fill-rule:nonzero;stroke:none"
         d="m 19.785,3.033 1,0 0,-1 -1,0 0,1 z" /><path
         id="path158"
         style="fill:#000000;fill-opacity:1;fill-rule:nonzero;stroke:none"
         d="m 24.953,2.033 0,6.797 -0.562,0 C 24.094,7.783 23.906,7.643 22.609,7.487 l 0,-0.61 1.5,0 0,-4.844 0.844,0 z" /><path
         id="path160"
         style="fill:#000000;fill-opacity:1;fill-rule:nonzero;stroke:none"
         d="m 31.883,4.283 c 0,1.344 -0.891,2.235 -2.203,2.235 -0.469,0 -0.86,-0.125 -1.25,-0.422 l 0.265,1.766 2.828,0 0,0.828 -3.5,0 -0.515,-3.563 0.781,0 c 0.391,0.469 0.719,0.641 1.25,0.641 0.906,0 1.484,-0.594 1.484,-1.594 0,-0.984 -0.578,-1.531 -1.484,-1.531 -0.75,0 -1.203,0.375 -1.391,1.14 l -0.859,0 c 0.281,-1.359 1.047,-1.89 2.266,-1.89 1.375,0 2.328,0.953 2.328,2.39 z" /><path
         id="path162"
         style="fill:#000000;fill-opacity:1;fill-rule:nonzero;stroke:none"
         d="m 37.223,4.315 c 0,0.734 -0.063,1.187 -0.203,1.562 -0.329,0.828 -1.094,1.328 -2.032,1.328 -1.406,0 -2.297,-1.031 -2.297,-2.687 0,-1.656 0.86,-2.625 2.282,-2.625 1.14,0 1.937,0.656 2.14,1.672 l -0.797,0 C 36.098,2.893 35.645,2.627 35.004,2.627 c -0.844,0 -1.469,0.531 -1.484,1.688 l 3.703,0 z m -0.86,0.718 c 0,0 0,-0.046 0,-0.062 l -2.828,0 c 0.078,0.891 0.641,1.5 1.438,1.5 0.797,0 1.39,-0.656 1.39,-1.438 z" /><path
         id="path164"
         style="fill:#000000;fill-opacity:1;fill-rule:nonzero;stroke:none"
         d="m 38.102,5.033 2.281,0 0,-0.703 -2.281,0 0,0.703 z" /><path
         id="path166"
         style="fill:#000000;fill-opacity:1;fill-rule:nonzero;stroke:none"
         d="m 45.785,4.143 c 0,1.265 -0.859,2.125 -2.078,2.125 -0.672,0 -1.203,-0.266 -1.562,-0.766 0,1.656 0.546,2.578 1.515,2.578 0.594,0 1,-0.375 1.141,-1.015 l 0.844,0 C 45.473,8.174 44.754,8.83 43.707,8.83 42.129,8.83 41.27,7.502 41.27,5.127 c 0,-2.109 0.734,-3.234 2.296,-3.234 1.282,0 2.219,0.922 2.219,2.25 z M 44.926,4.08 c 0,-0.859 -0.578,-1.437 -1.36,-1.437 -0.781,0 -1.375,0.609 -1.375,1.484 0,0.844 0.579,1.391 1.407,1.391 0.812,0 1.328,-0.531 1.328,-1.438 z" /><path
         id="path168"
         style="fill:#000080;fill-opacity:1;fill-rule:nonzero;stroke:none"
         d="m 129.332,124.963 -1.266,0 -2.578,-7.89 -2.75,7.89 -1.265,0 3.343,-9.328 1.282,0 3.234,9.328 z" /><path
         id="path170"
         style="fill:#000080;fill-opacity:1;fill-rule:nonzero;stroke:none"
         d="m 135.695,115.666 0,0.797 c -0.109,-0.015 -0.156,-0.015 -0.234,-0.015 -0.359,0 -0.563,0.187 -0.563,0.515 l 0,3.735 c 0,1.187 -0.875,1.828 -2.531,1.828 -1.625,0 -2.625,-0.625 -2.687,-2.172 l 1.078,0 c 0.094,0.828 0.578,1.187 1.578,1.187 0.953,0 1.5,-0.359 1.5,-1 l 0,-0.281 c 0,-0.437 -0.281,-0.625 -1.125,-0.734 -1.5,-0.188 -1.734,-0.25 -2.141,-0.407 -0.781,-0.328 -1.187,-0.921 -1.187,-1.75 0,-1.203 0.844,-1.921 2.203,-1.921 0.859,0 1.687,0.359 2.281,0.984 0.11,-0.516 0.578,-0.891 1.094,-0.891 0.219,0 0.391,0.032 0.734,0.125 z m -1.859,2.282 c 0,-0.954 -0.984,-1.563 -2.016,-1.563 -0.828,0 -1.312,0.281 -1.312,1.016 0,0.703 0.469,1.015 1.609,1.172 1.125,0.156 1.36,0.203 1.719,0.375 l 0,-1 z" /><path
         id="path172"
         style="fill:#000080;fill-opacity:1;fill-rule:nonzero;stroke:none"
         d="m 140.074,121.401 0,1.093 c -0.187,0.032 -0.265,0.032 -0.406,0.032 -0.703,0 -1.219,-0.407 -1.828,-1.407 l 0,1.219 -0.985,0 0,-6.703 1.063,0 0,3.484 c 0,1.5 0.5,2.266 2.156,2.282 z" /><path
         id="path174"
         style="fill:#000080;fill-opacity:1;fill-rule:nonzero;stroke:none"
         d="m 142.184,115.635 0,6.703 -1.063,0 0,-6.703 1.063,0 z m 0.14,7.719 0,1.328 -1.328,0 0,-1.328 1.328,0 z" /><path
         id="path176"
         style="fill:#000080;fill-opacity:1;fill-rule:nonzero;stroke:none"
         d="m 149.953,115.666 0,0.797 c -0.109,-0.015 -0.156,-0.015 -0.234,-0.015 -0.36,0 -0.563,0.187 -0.563,0.515 l 0,3.735 c 0,1.187 -0.875,1.828 -2.531,1.828 -1.625,0 -2.625,-0.625 -2.687,-2.172 l 1.078,0 c 0.093,0.828 0.578,1.187 1.578,1.187 0.953,0 1.5,-0.359 1.5,-1 l 0,-0.281 c 0,-0.437 -0.282,-0.625 -1.125,-0.734 -1.5,-0.188 -1.735,-0.25 -2.141,-0.407 -0.781,-0.328 -1.187,-0.921 -1.187,-1.75 0,-1.203 0.843,-1.921 2.203,-1.921 0.859,0 1.687,0.359 2.281,0.984 0.109,-0.516 0.578,-0.891 1.094,-0.891 0.219,0 0.39,0.032 0.734,0.125 z m -1.859,2.282 c 0,-0.954 -0.985,-1.563 -2.016,-1.563 -0.828,0 -1.312,0.281 -1.312,1.016 0,0.703 0.468,1.015 1.609,1.172 1.125,0.156 1.359,0.203 1.719,0.375 l 0,-1 z" /><path
         id="path178"
         style="fill:#000080;fill-opacity:1;fill-rule:nonzero;stroke:none"
         d="m 153.477,115.635 0,0.891 c -0.141,-0.032 -0.313,-0.047 -0.516,-0.047 -0.453,0 -0.578,0.125 -0.578,0.609 l 0,4.375 1.094,0 0,0.875 -1.094,0 0,1.844 -1.063,0 0,-1.844 -0.922,0 0,-0.875 0.922,0 0,-4.859 c 0,-0.672 0.453,-1.063 1.282,-1.063 0.265,0 0.515,0.032 0.875,0.094 z" /><path
         id="path180"
         style="fill:#000080;fill-opacity:1;fill-rule:nonzero;stroke:none"
         d="m 155.738,115.635 0,6.703 -1.062,0 0,-6.703 1.062,0 z m 0.141,7.719 0,1.328 -1.328,0 0,-1.328 1.328,0 z" /><path
         id="path182"
         style="fill:#000080;fill-opacity:1;fill-rule:nonzero;stroke:none"
         d="m 163.156,118.932 c 0,2.328 -1.125,3.594 -3.047,3.594 -1.89,0 -3.031,-1.282 -3.031,-3.532 0,-2.265 1.141,-3.546 3.047,-3.546 1.875,0 3.031,1.281 3.031,3.484 z m -1.125,0.016 c 0,-1.579 -0.734,-2.516 -1.906,-2.516 -1.203,0 -1.922,0.937 -1.922,2.562 0,1.61 0.719,2.547 1.922,2.547 1.203,0 1.906,-0.922 1.906,-2.593 z" /><path
         id="path184"
         style="fill:#000080;fill-opacity:1;fill-rule:nonzero;stroke:none"
         d="m 169.977,115.635 0,5.063 c 0,1.125 -0.829,1.828 -2.125,1.828 -1,0 -1.641,-0.375 -2.235,-1.313 l 0,1.125 -0.984,0 0,-6.703 1.062,0 0,3.703 c 0,1.36 0.75,2.266 1.828,2.266 0.844,0 1.391,-0.516 1.391,-1.328 l 0,-4.641 1.063,0 z" /><path
         id="path186"
         style="fill:#000080;fill-opacity:1;fill-rule:nonzero;stroke:none"
         d="m 127.77,100.518 c 0,2.265 -1.094,3.609 -2.875,3.609 -0.907,0 -1.641,-0.406 -2.141,-1.203 l 0,1.016 -0.969,0 0,-9.5 1.063,0 0,3.609 c 0.562,-0.703 1.187,-1 2.062,-1 1.719,0 2.86,1.344 2.86,3.469 z m -1.11,0.031 c 0,-1.516 -0.781,-2.5 -1.937,-2.5 -1.125,0 -1.875,0.922 -1.875,2.484 0,1.579 0.75,2.61 1.875,2.61 1.172,0 1.937,-1 1.937,-2.594 z" /><path
         id="path188"
         style="fill:#000080;fill-opacity:1;fill-rule:nonzero;stroke:none"
         d="m 135.039,97.268 0,0.797 c -0.109,-0.016 -0.156,-0.016 -0.234,-0.016 -0.36,0 -0.563,0.188 -0.563,0.516 l 0,3.734 c 0,1.188 -0.875,1.828 -2.531,1.828 -1.625,0 -2.625,-0.625 -2.688,-2.172 l 1.079,0 c 0.093,0.828 0.578,1.188 1.578,1.188 0.953,0 1.5,-0.36 1.5,-1 l 0,-0.281 c 0,-0.438 -0.282,-0.625 -1.125,-0.735 -1.5,-0.187 -1.735,-0.25 -2.141,-0.406 -0.781,-0.328 -1.187,-0.922 -1.187,-1.75 0,-1.203 0.843,-1.922 2.203,-1.922 0.859,0 1.687,0.359 2.281,0.984 0.109,-0.515 0.578,-0.89 1.094,-0.89 0.218,0 0.39,0.031 0.734,0.125 z m -1.859,2.281 c 0,-0.953 -0.985,-1.562 -2.016,-1.562 -0.828,0 -1.312,0.281 -1.312,1.015 0,0.703 0.468,1.016 1.609,1.172 1.125,0.156 1.359,0.203 1.719,0.375 l 0,-1 z" /><path
         id="path190"
         style="fill:#000080;fill-opacity:1;fill-rule:nonzero;stroke:none"
         d="m 139.422,103.002 0,1.094 c -0.188,0.031 -0.266,0.031 -0.406,0.031 -0.704,0 -1.219,-0.406 -1.828,-1.406 l 0,1.219 -0.985,0 0,-6.703 1.063,0 0,3.484 c 0,1.5 0.5,2.266 2.156,2.281 z" /><path
         id="path192"
         style="fill:#000080;fill-opacity:1;fill-rule:nonzero;stroke:none"
         d="m 146.383,97.268 0,0.797 c -0.11,-0.016 -0.156,-0.016 -0.235,-0.016 -0.359,0 -0.562,0.188 -0.562,0.516 l 0,3.734 c 0,1.188 -0.875,1.828 -2.531,1.828 -1.625,0 -2.625,-0.625 -2.688,-2.172 l 1.078,0 c 0.094,0.828 0.578,1.188 1.578,1.188 0.954,0 1.5,-0.36 1.5,-1 l 0,-0.281 c 0,-0.438 -0.281,-0.625 -1.125,-0.735 -1.5,-0.187 -1.734,-0.25 -2.14,-0.406 -0.781,-0.328 -1.188,-0.922 -1.188,-1.75 0,-1.203 0.844,-1.922 2.203,-1.922 0.86,0 1.688,0.359 2.282,0.984 0.109,-0.515 0.578,-0.89 1.093,-0.89 0.219,0 0.391,0.031 0.735,0.125 z m -1.86,2.281 c 0,-0.953 -0.984,-1.562 -2.015,-1.562 -0.828,0 -1.313,0.281 -1.313,1.015 0,0.703 0.469,1.016 1.61,1.172 1.125,0.156 1.359,0.203 1.718,0.375 l 0,-1 z" /><path
         id="path194"
         style="fill:#000080;fill-opacity:1;fill-rule:nonzero;stroke:none"
         d="m 156.375,97.237 0,5.031 c 0,1.203 -0.656,1.859 -1.906,1.859 -0.907,0 -1.438,-0.265 -2.063,-1.015 -0.406,0.718 -0.937,1.015 -1.812,1.015 -0.891,0 -1.485,-0.328 -2.063,-1.125 l 0,0.938 -0.969,0 0,-6.703 1.063,0 0,4.203 c 0,0.984 0.703,1.765 1.578,1.765 0.797,0 1.235,-0.484 1.235,-1.343 l 0,-4.625 1.062,0 0,4.203 c 0,0.984 0.719,1.765 1.594,1.765 0.781,0 1.218,-0.5 1.218,-1.343 l 0,-4.625 1.063,0 z" /><path
         id="path196"
         style="fill:#000080;fill-opacity:1;fill-rule:nonzero;stroke:none"
         d="m 163.879,100.283 c 0,0.969 -0.078,1.579 -0.266,2.079 -0.437,1.109 -1.453,1.765 -2.718,1.765 -1.86,0 -3.063,-1.375 -3.063,-3.578 0,-2.203 1.156,-3.5 3.047,-3.5 1.531,0 2.594,0.859 2.859,2.219 l -1.078,0 c -0.281,-0.875 -0.89,-1.235 -1.75,-1.235 -1.109,0 -1.937,0.719 -1.969,2.25 l 4.938,0 z m -1.141,0.954 c 0,0 0,-0.063 -0.015,-0.079 l -3.75,0 c 0.078,1.188 0.843,1.985 1.922,1.985 1.046,0 1.843,-0.86 1.843,-1.906 z m -1.453,3.437 -1.234,1.891 -1.438,0 1.907,-1.891 0.765,0 z" /><path
         id="path198"
         style="fill:#000080;fill-opacity:1;fill-rule:nonzero;stroke:none"
         d="m 167.582,97.237 0,0.89 c -0.141,-0.031 -0.312,-0.047 -0.516,-0.047 -0.453,0 -0.578,0.125 -0.578,0.61 l 0,4.375 1.094,0 0,0.875 -1.094,0 0,1.843 -1.062,0 0,-1.843 -0.922,0 0,-0.875 0.922,0 0,-4.86 c 0,-0.672 0.453,-1.062 1.281,-1.062 0.266,0 0.516,0.031 0.875,0.094 z" /><path
         id="path200"
         style="fill:#000080;fill-opacity:1;fill-rule:nonzero;stroke:none"
         d="m 172,103.002 0,1.094 c -0.188,0.031 -0.266,0.031 -0.406,0.031 -0.703,0 -1.219,-0.406 -1.828,-1.406 l 0,1.219 -0.985,0 0,-6.703 1.063,0 0,3.484 c 0,1.5 0.5,2.266 2.156,2.281 z" /><path
         id="path202"
         style="fill:#000080;fill-opacity:1;fill-rule:nonzero;stroke:none"
         d="m 178.598,100.283 c 0,0.969 -0.078,1.579 -0.266,2.079 -0.437,1.109 -1.453,1.765 -2.719,1.765 -1.859,0 -3.062,-1.375 -3.062,-3.578 0,-2.203 1.156,-3.5 3.047,-3.5 1.531,0 2.593,0.859 2.859,2.219 l -1.078,0 c -0.281,-0.875 -0.891,-1.235 -1.75,-1.235 -1.109,0 -1.938,0.719 -1.969,2.25 l 4.938,0 z m -1.141,0.954 c 0,0 0,-0.063 -0.016,-0.079 l -3.75,0 c 0.079,1.188 0.844,1.985 1.922,1.985 1.047,0 1.844,-0.86 1.844,-1.906 z" /><path
         id="path204"
         style="fill:none;stroke:#000080;stroke-width:1.60000002;stroke-linecap:square;stroke-linejoin:bevel;stroke-miterlimit:4;stroke-dasharray:none;stroke-opacity:1"
         d="m 116.277,134.037 72.801,0 0,-44.801 -72.801,0 0,44.801 z" /><path
         id="path206"
         style="fill:none;stroke:#000080;stroke-width:1.60000002;stroke-linecap:square;stroke-linejoin:bevel;stroke-miterlimit:4;stroke-dasharray:none;stroke-opacity:1"
         d="m 120.277,85.237 -4,4" /><path
         id="path208"
         style="fill:none;stroke:#000080;stroke-width:1.60000002;stroke-linecap:square;stroke-linejoin:bevel;stroke-miterlimit:4;stroke-dasharray:none;stroke-opacity:1"
         d="m 192.277,85.237 -72,0" /><path
         id="path210"
         style="fill:none;stroke:#000080;stroke-width:1.60000002;stroke-linecap:square;stroke-linejoin:bevel;stroke-miterlimit:4;stroke-dasharray:none;stroke-opacity:1"
         d="m 192.277,85.237 -3.199,4" /><path
         id="path212"
         style="fill:none;stroke:#000080;stroke-width:1.60000002;stroke-linecap:square;stroke-linejoin:bevel;stroke-miterlimit:4;stroke-dasharray:none;stroke-opacity:1"
         d="m 192.277,85.237 0,44.8" /><path
         id="path214"
         style="fill:none;stroke:#000080;stroke-width:1.60000002;stroke-linecap:square;stroke-linejoin:bevel;stroke-miterlimit:4;stroke-dasharray:none;stroke-opacity:1"
         d="m 192.277,130.037 -3.199,4" /><path
         id="path216"
         style="fill:#000000;fill-opacity:1;fill-rule:nonzero;stroke:none"
         d="m 127.035,58.358 c 0,0.859 -0.531,1.5 -1.484,1.75 l -1.75,0.468 c -0.844,0.219 -1.156,0.5 -1.156,1.047 0,0.703 0.625,1.235 1.562,1.235 1.109,0 1.75,-0.516 1.75,-1.422 l 0.844,0 c 0,1.375 -0.953,2.172 -2.563,2.172 -1.531,0 -2.484,-0.844 -2.484,-2.11 0,-0.859 0.453,-1.39 1.375,-1.64 l 1.734,-0.453 c 0.875,-0.235 1.282,-0.594 1.282,-1.141 0,-0.766 -0.579,-1.219 -1.782,-1.219 -1.328,0 -1.968,0.672 -1.968,1.672 l -0.86,0 c 0,-1.656 1.125,-2.453 2.766,-2.453 1.781,0 2.734,0.844 2.734,2.094 z" /><path
         id="path218"
         style="fill:#000000;fill-opacity:1;fill-rule:nonzero;stroke:none"
         d="m 136.121,63.436 -0.984,0 -1.297,-5.688 -1.594,5.688 -0.953,0 -1.563,-5.688 -1.312,5.688 -0.984,0 1.781,-7 0.984,0 1.563,5.75 1.609,-5.75 0.984,0 1.766,7 z" /><path
         id="path220"
         style="fill:#000000;fill-opacity:1;fill-rule:nonzero;stroke:none"
         d="m 139.605,56.436 0,6.797 -0.562,0 c -0.297,-1.047 -0.484,-1.188 -1.781,-1.344 l 0,-0.609 1.5,0 0,-4.844 0.843,0 z" /><path
         id="path222"
         style="fill:#000000;fill-opacity:1;fill-rule:nonzero;stroke:none"
         d="m 127.035,44.756 c 0,0.86 -0.531,1.5 -1.484,1.75 l -1.75,0.469 c -0.844,0.219 -1.156,0.5 -1.156,1.047 0,0.703 0.625,1.234 1.562,1.234 1.109,0 1.75,-0.515 1.75,-1.422 l 0.844,0 c 0,1.375 -0.953,2.172 -2.563,2.172 -1.531,0 -2.484,-0.844 -2.484,-2.109 0,-0.86 0.453,-1.391 1.375,-1.641 l 1.734,-0.453 c 0.875,-0.234 1.282,-0.594 1.282,-1.141 0,-0.765 -0.579,-1.218 -1.782,-1.218 -1.328,0 -1.968,0.672 -1.968,1.672 l -0.86,0 c 0,-1.657 1.125,-2.454 2.766,-2.454 1.781,0 2.734,0.844 2.734,2.094 z" /><path
         id="path224"
         style="fill:#000000;fill-opacity:1;fill-rule:nonzero;stroke:none"
         d="m 128.953,42.834 0,5.032 -0.797,0 0,-5.032 0.797,0 z m 0.109,5.782 0,1 -1,0 0,-1 1,0 z" /><path
         id="path226"
         style="fill:#000000;fill-opacity:1;fill-rule:nonzero;stroke:none"
         d="m 136.91,42.834 0,3.766 c 0,0.906 -0.5,1.406 -1.437,1.406 -0.672,0 -1.078,-0.203 -1.547,-0.765 -0.297,0.531 -0.703,0.765 -1.36,0.765 -0.671,0 -1.109,-0.25 -1.546,-0.859 l 0,0.719 -0.719,0 0,-5.032 0.797,0 0,3.157 c 0,0.734 0.515,1.312 1.172,1.312 0.593,0 0.937,-0.359 0.937,-1 l 0,-3.469 0.797,0 0,3.157 c 0,0.734 0.531,1.312 1.187,1.312 0.579,0 0.922,-0.375 0.922,-1 l 0,-3.469 0.797,0 z" /><path
         id="path228"
         style="fill:#000000;fill-opacity:1;fill-rule:nonzero;stroke:none"
         d="m 142.594,45.772 0,0.656 -4.297,0 0,-0.656 4.297,0 z m 0,-1.735 0,0.657 -4.297,0 0,-0.657 4.297,0 z" /><path
         id="path230"
         style="fill:#000000;fill-opacity:1;fill-rule:nonzero;stroke:none"
         d="m 149.199,44.756 c 0,0.86 -0.531,1.5 -1.484,1.75 l -1.75,0.469 c -0.844,0.219 -1.156,0.5 -1.156,1.047 0,0.703 0.625,1.234 1.562,1.234 1.109,0 1.75,-0.515 1.75,-1.422 l 0.844,0 c 0,1.375 -0.953,2.172 -2.563,2.172 -1.531,0 -2.484,-0.844 -2.484,-2.109 0,-0.86 0.453,-1.391 1.375,-1.641 l 1.734,-0.453 c 0.875,-0.234 1.282,-0.594 1.282,-1.141 0,-0.765 -0.579,-1.218 -1.782,-1.218 -1.328,0 -1.968,0.672 -1.968,1.672 l -0.86,0 c 0,-1.657 1.125,-2.454 2.766,-2.454 1.781,0 2.734,0.844 2.734,2.094 z" /><path
         id="path232"
         style="fill:#000000;fill-opacity:1;fill-rule:nonzero;stroke:none"
         d="m 155.57,47.772 c 0,1.312 -0.781,2.062 -2.156,2.062 l -2.891,0 0,-7 0.891,0 0,2.969 2.203,0 c 1.141,0 1.953,0.813 1.953,1.969 z m -0.937,0.047 c 0,-0.766 -0.5,-1.235 -1.36,-1.235 l -1.859,0 0,2.453 1.859,0 c 0.86,0 1.36,-0.453 1.36,-1.218 z" /><path
         id="path234"
         style="fill:#000000;fill-opacity:1;fill-rule:nonzero;stroke:none"
         d="m 159.383,42.834 0,6.797 -0.563,0 c -0.297,-1.047 -0.484,-1.187 -1.781,-1.344 l 0,-0.609 1.5,0 0,-4.844 0.844,0 z" /><path
         id="path236"
         style="fill:#000000;fill-opacity:1;fill-rule:nonzero;stroke:none"
         d="m 126.77,35.44 0,0.797 -5.485,0 0,-0.797 2.297,0 0,-6.203 0.891,0 0,6.203 2.297,0 z" /><path
         id="path238"
         style="fill:#000000;fill-opacity:1;fill-rule:nonzero;stroke:none"
         d="m 130.574,34.268 -0.859,0 -1.391,-3.922 -1.281,3.922 -0.859,0 1.703,-5.047 -0.313,-0.797 c -0.125,-0.359 -0.297,-0.5 -0.64,-0.5 -0.11,0 -0.25,0.031 -0.422,0.063 l 0,-0.719 c 0.172,-0.078 0.328,-0.125 0.547,-0.125 0.562,0 1.015,0.312 1.281,1.031 l 2.234,6.094 z" /><path
         id="path240"
         style="fill:#000000;fill-opacity:1;fill-rule:nonzero;stroke:none"
         d="m 135.812,31.705 c 0,1.688 -0.828,2.703 -2.156,2.703 -0.687,0 -1.234,-0.312 -1.609,-0.906 l 0,0.766 -0.719,0 0,-7.125 0.797,0 0,2.703 c 0.422,-0.516 0.891,-0.75 1.547,-0.75 1.281,0 2.14,1 2.14,2.609 z m -0.828,0.016 c 0,-1.141 -0.593,-1.875 -1.468,-1.875 -0.844,0 -1.391,0.687 -1.391,1.859 0,1.188 0.547,1.953 1.391,1.953 0.89,0 1.468,-0.734 1.468,-1.937 z" /><path
         id="path242"
         style="fill:#000000;fill-opacity:1;fill-rule:nonzero;stroke:none"
         d="m 141.055,31.518 c 0,0.734 -0.063,1.187 -0.203,1.562 -0.329,0.828 -1.094,1.328 -2.032,1.328 -1.406,0 -2.297,-1.031 -2.297,-2.687 0,-1.656 0.86,-2.625 2.282,-2.625 1.14,0 1.937,0.656 2.14,1.672 l -0.797,0 c -0.218,-0.672 -0.671,-0.938 -1.312,-0.938 -0.844,0 -1.469,0.532 -1.484,1.688 l 3.703,0 z m -0.86,0.719 c 0,0 0,-0.047 0,-0.063 l -2.828,0 c 0.078,0.891 0.641,1.5 1.438,1.5 0.797,0 1.39,-0.656 1.39,-1.437 z" /><path
         id="path244"
         style="fill:#000000;fill-opacity:1;fill-rule:nonzero;stroke:none"
         d="m 146.426,32.174 0,0.656 -4.297,0 0,-0.656 4.297,0 z m 0,-1.734 0,0.656 -4.297,0 0,-0.656 4.297,0 z" /><path
         id="path246"
         style="fill:#000000;fill-opacity:1;fill-rule:nonzero;stroke:none"
         d="m 147.734,36.237 0.797,0 0,-7 -0.797,0 0,7 z" /><path
         id="path248"
         style="fill:#000000;fill-opacity:1;fill-rule:nonzero;stroke:none"
         d="m 150.676,29.237 0,5.031 -0.797,0 0,-5.031 0.797,0 z m 0.109,5.781 0,1 -1,0 0,-1 1,0 z" /><path
         id="path250"
         style="fill:#000000;fill-opacity:1;fill-rule:nonzero;stroke:none"
         d="m 155.773,30.643 c 0,0.75 -0.421,1.125 -1.421,1.359 l -0.766,0.188 c -0.656,0.156 -0.938,0.359 -0.938,0.718 0,0.469 0.422,0.766 1.063,0.766 0.656,0 1,-0.281 1.016,-0.812 l 0.843,0 c -0.015,0.984 -0.656,1.546 -1.828,1.546 -1.172,0 -1.922,-0.609 -1.922,-1.531 0,-0.797 0.407,-1.172 1.594,-1.453 l 0.75,-0.187 c 0.547,-0.125 0.766,-0.297 0.766,-0.657 0,-0.468 -0.469,-0.75 -1.172,-0.75 -0.719,0 -1.11,0.172 -1.219,0.938 l -0.844,0 c 0.032,-1.156 0.688,-1.672 2,-1.672 1.266,0 2.078,0.578 2.078,1.547 z" /><path
         id="path252"
         style="fill:#000000;fill-opacity:1;fill-rule:nonzero;stroke:none"
         d="m 158.547,29.237 0,0.671 c -0.109,-0.031 -0.235,-0.031 -0.391,-0.031 -0.344,0 -0.437,0.094 -0.437,0.438 l 0,3.297 0.828,0 0,0.656 -0.828,0 0,1.375 -0.797,0 0,-1.375 -0.672,0 0,-0.656 0.672,0 0,-3.641 c 0,-0.516 0.344,-0.797 0.969,-0.797 0.187,0 0.39,0.016 0.656,0.063 z" /><path
         id="path254"
         style="fill:#000000;fill-opacity:1;fill-rule:nonzero;stroke:none"
         d="m 127.004,20.573 c 0,1.312 -0.781,2.062 -2.156,2.062 l -2.891,0 0,-7 0.891,0 0,2.969 2.203,0 c 1.14,0 1.953,0.812 1.953,1.969 z m -0.938,0.046 c 0,-0.765 -0.5,-1.234 -1.359,-1.234 l -1.859,0 0,2.453 1.859,0 c 0.859,0 1.359,-0.453 1.359,-1.219 z" /><path
         id="path256"
         style="fill:#000000;fill-opacity:1;fill-rule:nonzero;stroke:none"
         d="m 132.34,15.651 0,0.609 c -0.078,-0.016 -0.11,-0.016 -0.172,-0.016 -0.266,0 -0.422,0.141 -0.422,0.391 l 0,2.797 c 0,0.891 -0.656,1.375 -1.891,1.375 -1.218,0 -1.968,-0.469 -2.015,-1.625 l 0.797,0 c 0.078,0.609 0.437,0.891 1.187,0.891 0.719,0 1.125,-0.282 1.125,-0.75 l 0,-0.219 c 0,-0.328 -0.203,-0.469 -0.844,-0.547 -1.125,-0.156 -1.296,-0.188 -1.609,-0.313 -0.578,-0.234 -0.875,-0.687 -0.875,-1.296 0,-0.922 0.625,-1.454 1.641,-1.454 0.656,0 1.265,0.266 1.718,0.735 0.079,-0.375 0.422,-0.656 0.813,-0.656 0.172,0 0.297,0.015 0.547,0.078 z m -1.391,1.718 c 0,-0.718 -0.734,-1.171 -1.515,-1.171 -0.61,0 -0.985,0.218 -0.985,0.765 0,0.531 0.36,0.75 1.219,0.875 0.844,0.125 1.016,0.156 1.281,0.281 l 0,-0.75 z" /><path
         id="path258"
         style="fill:#000000;fill-opacity:1;fill-rule:nonzero;stroke:none"
         d="m 135.629,19.963 0,0.813 c -0.141,0.015 -0.203,0.031 -0.313,0.031 -0.515,0 -0.906,-0.313 -1.359,-1.063 l 0,0.922 -0.734,0 0,-5.031 0.797,0 0,2.609 c 0,1.125 0.375,1.704 1.609,1.719 z" /><path
         id="path260"
         style="fill:#000000;fill-opacity:1;fill-rule:nonzero;stroke:none"
         d="m 140.836,15.651 0,0.609 c -0.078,-0.016 -0.109,-0.016 -0.172,-0.016 -0.266,0 -0.422,0.141 -0.422,0.391 l 0,2.797 c 0,0.891 -0.656,1.375 -1.89,1.375 -1.219,0 -1.969,-0.469 -2.016,-1.625 l 0.797,0 c 0.078,0.609 0.437,0.891 1.187,0.891 0.719,0 1.125,-0.282 1.125,-0.75 l 0,-0.219 c 0,-0.328 -0.203,-0.469 -0.843,-0.547 -1.125,-0.156 -1.297,-0.188 -1.61,-0.313 -0.578,-0.234 -0.875,-0.687 -0.875,-1.296 0,-0.922 0.625,-1.454 1.641,-1.454 0.656,0 1.265,0.266 1.719,0.735 0.078,-0.375 0.421,-0.656 0.812,-0.656 0.172,0 0.297,0.015 0.547,0.078 z m -1.391,1.718 c 0,-0.718 -0.734,-1.171 -1.515,-1.171 -0.61,0 -0.985,0.218 -0.985,0.765 0,0.531 0.36,0.75 1.219,0.875 0.844,0.125 1.016,0.156 1.281,0.281 l 0,-0.75 z" /><path
         id="path262"
         style="fill:#000000;fill-opacity:1;fill-rule:nonzero;stroke:none"
         d="m 148.344,15.635 0,3.766 c 0,0.906 -0.5,1.406 -1.438,1.406 -0.672,0 -1.078,-0.203 -1.547,-0.766 -0.297,0.532 -0.703,0.766 -1.359,0.766 -0.672,0 -1.109,-0.25 -1.547,-0.859 l 0,0.718 -0.719,0 0,-5.031 0.797,0 0,3.156 c 0,0.735 0.516,1.313 1.172,1.313 0.594,0 0.938,-0.36 0.938,-1 l 0,-3.469 0.797,0 0,3.156 c 0,0.735 0.531,1.313 1.187,1.313 0.578,0 0.922,-0.375 0.922,-1 l 0,-3.469 0.797,0 z" /><path
         id="path264"
         style="fill:#000000;fill-opacity:1;fill-rule:nonzero;stroke:none"
         d="m 154,18.573 0,0.656 -4.297,0 0,-0.656 4.297,0 z m 0,-1.735 0,0.656 -4.297,0 0,-0.656 4.297,0 z" /><path
         id="path266"
         style="fill:#000000;fill-opacity:1;fill-rule:nonzero;stroke:none"
         d="m 157.09,15.635 0,0.672 c -0.11,-0.031 -0.235,-0.031 -0.391,-0.031 -0.344,0 -0.437,0.093 -0.437,0.437 l 0,3.297 0.828,0 0,0.656 -0.828,0 0,1.375 -0.797,0 0,-1.375 -0.672,0 0,-0.656 0.672,0 0,-3.641 c 0,-0.515 0.344,-0.796 0.969,-0.796 0.187,0 0.39,0.015 0.656,0.062 z" /><path
         id="path268"
         style="fill:#000000;fill-opacity:1;fill-rule:nonzero;stroke:none"
         d="m 162.445,15.651 0,0.609 c -0.078,-0.016 -0.109,-0.016 -0.172,-0.016 -0.265,0 -0.421,0.141 -0.421,0.391 l 0,2.797 c 0,0.891 -0.657,1.375 -1.891,1.375 -1.219,0 -1.969,-0.469 -2.016,-1.625 l 0.797,0 c 0.078,0.609 0.438,0.891 1.188,0.891 0.718,0 1.125,-0.282 1.125,-0.75 l 0,-0.219 c 0,-0.328 -0.203,-0.469 -0.844,-0.547 -1.125,-0.156 -1.297,-0.188 -1.609,-0.313 -0.579,-0.234 -0.875,-0.687 -0.875,-1.296 0,-0.922 0.625,-1.454 1.64,-1.454 0.656,0 1.266,0.266 1.719,0.735 0.078,-0.375 0.422,-0.656 0.812,-0.656 0.172,0 0.297,0.015 0.547,0.078 z m -1.39,1.718 c 0,-0.718 -0.735,-1.171 -1.516,-1.171 -0.609,0 -0.984,0.218 -0.984,0.765 0,0.531 0.359,0.75 1.218,0.875 0.844,0.125 1.016,0.156 1.282,0.281 l 0,-0.75 z" /><path
         id="path270"
         style="fill:#000000;fill-opacity:1;fill-rule:nonzero;stroke:none"
         d="m 167.328,15.635 0,3.797 c 0,0.844 -0.625,1.375 -1.594,1.375 -0.75,0 -1.218,-0.281 -1.672,-0.984 l 0,0.843 -0.734,0 0,-5.031 0.797,0 0,2.766 c 0,1.031 0.563,1.703 1.375,1.703 0.625,0 1.031,-0.375 1.031,-0.985 l 0,-3.484 0.797,0 z" /><path
         id="path272"
         style="fill:#000000;fill-opacity:1;fill-rule:nonzero;stroke:none"
         d="m 172.746,15.635 0,7 -0.797,0 0,-2.609 c -0.344,0.515 -0.875,0.781 -1.547,0.781 -1.297,0 -2.156,-1.016 -2.156,-2.609 0,-1.704 0.828,-2.704 2.188,-2.704 0.687,0 1.171,0.25 1.593,0.875 l 0,-0.734 0.719,0 z m -0.797,2.5 c 0,-1.172 -0.562,-1.891 -1.406,-1.891 -0.875,0 -1.469,0.735 -1.469,1.907 0,1.172 0.594,1.906 1.469,1.906 0.859,0 1.406,-0.766 1.406,-1.922 z" /><path
         id="path274"
         style="fill:#000000;fill-opacity:1;fill-rule:nonzero;stroke:none"
         d="m 127.27,9.033 -0.954,0 -1.937,-5.921 -2.047,5.921 -0.969,0 2.516,-7 0.969,0 2.422,7 z" /><path
         id="path276"
         style="fill:#000000;fill-opacity:1;fill-rule:nonzero;stroke:none"
         d="m 132.031,2.049 0,0.609 c -0.078,-0.015 -0.109,-0.015 -0.172,-0.015 -0.265,0 -0.421,0.14 -0.421,0.39 l 0,2.797 c 0,0.891 -0.657,1.375 -1.891,1.375 -1.219,0 -1.969,-0.468 -2.016,-1.625 l 0.797,0 c 0.078,0.61 0.438,0.891 1.188,0.891 0.718,0 1.125,-0.281 1.125,-0.75 l 0,-0.219 c 0,-0.328 -0.203,-0.469 -0.844,-0.547 -1.125,-0.156 -1.297,-0.187 -1.609,-0.312 -0.579,-0.235 -0.876,-0.688 -0.876,-1.297 0,-0.922 0.626,-1.453 1.641,-1.453 0.656,0 1.266,0.265 1.719,0.734 0.078,-0.375 0.422,-0.656 0.812,-0.656 0.172,0 0.297,0.016 0.547,0.078 z m -1.39,1.719 c 0,-0.719 -0.735,-1.172 -1.516,-1.172 -0.609,0 -0.984,0.219 -0.984,0.766 0,0.531 0.359,0.75 1.218,0.875 0.844,0.125 1.016,0.156 1.282,0.281 l 0,-0.75 z" /><path
         id="path278"
         style="fill:#000000;fill-opacity:1;fill-rule:nonzero;stroke:none"
         d="m 132.902,9.033 0.797,0 0,-7 -0.797,0 0,7 z" /><path
         id="path280"
         style="fill:#000000;fill-opacity:1;fill-rule:nonzero;stroke:none"
         d="m 139,2.033 0,5.032 -0.797,0 0,-2.782 c 0,-1.015 -0.531,-1.687 -1.375,-1.687 -0.625,0 -1.031,0.375 -1.031,0.984 l 0,3.485 -0.797,0 0,-3.797 c 0,-0.844 0.625,-1.375 1.594,-1.375 0.75,0 1.218,0.25 1.687,0.922 l 0,-0.782 0.719,0 z" /><path
         id="path282"
         style="fill:#000000;fill-opacity:1;fill-rule:nonzero;stroke:none"
         d="m 144.664,4.315 c 0,0.734 -0.062,1.187 -0.203,1.562 -0.328,0.828 -1.094,1.328 -2.031,1.328 -1.407,0 -2.297,-1.031 -2.297,-2.687 0,-1.656 0.859,-2.625 2.281,-2.625 1.141,0 1.938,0.656 2.141,1.672 l -0.797,0 c -0.219,-0.672 -0.672,-0.938 -1.313,-0.938 -0.843,0 -1.468,0.531 -1.484,1.688 l 3.703,0 z m -0.859,0.718 c 0,0 0,-0.046 0,-0.062 l -2.828,0 c 0.078,0.891 0.64,1.5 1.437,1.5 0.797,0 1.391,-0.656 1.391,-1.438 z" /><path
         id="path284"
         style="fill:#000000;fill-opacity:1;fill-rule:nonzero;stroke:none"
         d="m 149.488,3.44 c 0,0.75 -0.422,1.125 -1.422,1.359 l -0.765,0.188 c -0.656,0.156 -0.938,0.359 -0.938,0.718 0,0.469 0.422,0.766 1.063,0.766 0.656,0 1,-0.281 1.015,-0.813 l 0.844,0 c -0.015,0.985 -0.656,1.547 -1.828,1.547 -1.172,0 -1.922,-0.609 -1.922,-1.531 0,-0.797 0.406,-1.172 1.594,-1.453 l 0.75,-0.188 c 0.547,-0.125 0.766,-0.296 0.766,-0.656 0,-0.469 -0.469,-0.75 -1.172,-0.75 -0.719,0 -1.11,0.172 -1.219,0.938 l -0.844,0 c 0.031,-1.157 0.688,-1.672 2,-1.672 1.266,0 2.078,0.578 2.078,1.547 z" /><path
         id="path286"
         style="fill:#000000;fill-opacity:1;fill-rule:nonzero;stroke:none"
         d="m 154.832,4.971 0,0.656 -4.297,0 0,-0.656 4.297,0 z m 0,-1.734 0,0.656 -4.297,0 0,-0.656 4.297,0 z" /><path
         id="path288"
         style="fill:#000000;fill-opacity:1;fill-rule:nonzero;stroke:none"
         d="m 157.879,0.002 0,0.688 -0.984,0 0,7.64 0.984,0 0,0.703 -1.781,0 0,-9.031 1.781,0 z" /><path
         id="path290"
         style="fill:#000000;fill-opacity:1;fill-rule:nonzero;stroke:none"
         d="m 163.016,5.299 c 0,2.359 -0.75,3.531 -2.219,3.531 -1.469,0 -2.235,-1.187 -2.235,-3.468 0,-2.297 0.782,-3.469 2.235,-3.469 1.437,0 2.219,1.172 2.219,3.406 z m -0.86,0.078 c 0,-1.922 -0.437,-2.781 -1.375,-2.781 -0.89,0 -1.343,0.891 -1.343,2.75 0,1.875 0.453,2.734 1.359,2.734 0.906,0 1.359,-0.875 1.359,-2.703 z" /><path
         id="path292"
         style="fill:#000000;fill-opacity:1;fill-rule:nonzero;stroke:none"
         d="m 165.336,6.065 0,1 -1,0 0,-1 1,0 z m 0,-4.188 0,1.156 -1.016,0 0,-1 0.578,0 0,-0.171 c 0,-0.657 -0.125,-0.86 -0.578,-0.875 l 0,-0.36 c 0.672,0 1.016,0.422 1.016,1.25 z" /><path
         id="path294"
         style="fill:#000000;fill-opacity:1;fill-rule:nonzero;stroke:none"
         d="m 173.691,5.299 c 0,2.359 -0.75,3.531 -2.218,3.531 -1.469,0 -2.235,-1.187 -2.235,-3.468 0,-2.297 0.782,-3.469 2.235,-3.469 1.437,0 2.218,1.172 2.218,3.406 z m -0.859,0.078 c 0,-1.922 -0.437,-2.781 -1.375,-2.781 -0.891,0 -1.344,0.891 -1.344,2.75 0,1.875 0.453,2.734 1.36,2.734 0.906,0 1.359,-0.875 1.359,-2.703 z" /><path
         id="path296"
         style="fill:#000000;fill-opacity:1;fill-rule:nonzero;stroke:none"
         d="m 174.996,3.033 1,0 0,-1 -1,0 0,1 z" /><path
         id="path298"
         style="fill:#000000;fill-opacity:1;fill-rule:nonzero;stroke:none"
         d="m 181.695,5.299 c 0,2.359 -0.75,3.531 -2.218,3.531 -1.469,0 -2.235,-1.187 -2.235,-3.468 0,-2.297 0.781,-3.469 2.235,-3.469 1.437,0 2.218,1.172 2.218,3.406 z m -0.859,0.078 c 0,-1.922 -0.438,-2.781 -1.375,-2.781 -0.891,0 -1.344,0.891 -1.344,2.75 0,1.875 0.453,2.734 1.36,2.734 0.906,0 1.359,-0.875 1.359,-2.703 z" /><path
         id="path300"
         style="fill:#000000;fill-opacity:1;fill-rule:nonzero;stroke:none"
         d="m 185.504,2.033 0,6.797 -0.563,0 C 184.645,7.783 184.457,7.643 183.16,7.487 l 0,-0.61 1.5,0 0,-4.844 0.844,0 z" /><path
         id="path302"
         style="fill:#000000;fill-opacity:1;fill-rule:nonzero;stroke:none"
         d="m 192.496,3.658 0,0.766 -1,0 0,4.406 -0.625,0 -3.094,-4.281 0,-0.891 2.875,0 0,-1.625 0.844,0 0,1.625 1,0 z m -1.844,0.766 -2.14,0 2.14,2.969 0,-2.969 z" /><path
         id="path304"
         style="fill:#000000;fill-opacity:1;fill-rule:nonzero;stroke:none"
         d="m 194.852,0.002 0,9.031 -1.782,0 0,-0.703 0.985,0 0,-7.64 -0.985,0 0,-0.688 1.782,0 z" /></g></g></svg>