<?xml version="1.0" encoding="UTF-8" standalone="no"?>
<svg
   xmlns:dc="http://purl.org/dc/elements/1.1/"
   xmlns:cc="http://creativecommons.org/ns#"
   xmlns:rdf="http://www.w3.org/1999/02/22-rdf-syntax-ns#"
   xmlns:svg="http://www.w3.org/2000/svg"
   xmlns="http://www.w3.org/2000/svg"
   viewBox="0 0 463.99875 253.99876"
   height="253.99876"
   width="463.99875"
   xml:space="preserve"
   version="1.1"
   id="svg2"><metadata
     id="metadata8"><rdf:RDF><cc:Work
         rdf:about=""><dc:format>image/svg+xml</dc:format><dc:type
           rdf:resource="http://purl.org/dc/dcmitype/StillImage" /></cc:Work></rdf:RDF></metadata><defs
     id="defs6" /><g
     transform="matrix(1.25,0,0,-1.25,0,253.99876)"
     id="g10"><g
       id="g12"><path
         id="path14"
         style="fill:#ffffff;fill-opacity:1;fill-rule:evenodd;stroke:none"
         d="m 0,203.199 371.199,0 L 371.199,0 0,0 0,203.199 Z" /><path
         id="path16"
         style="fill:none;stroke:#c0c0c0;stroke-width:0.80000001;stroke-linecap:square;stroke-linejoin:bevel;stroke-miterlimit:4;stroke-dasharray:0.8, 1.6;stroke-dashoffset:0;stroke-opacity:1"
         d="m 122.398,181.597 192,0" /><path
         id="path18"
         style="fill:none;stroke:#c0c0c0;stroke-width:0.80000001;stroke-linecap:square;stroke-linejoin:bevel;stroke-miterlimit:4;stroke-dasharray:0.8, 1.6;stroke-dashoffset:0;stroke-opacity:1"
         d="m 122.398,142.398 192,0" /><path
         id="path20"
         style="fill:none;stroke:#c0c0c0;stroke-width:0.80000001;stroke-linecap:square;stroke-linejoin:bevel;stroke-miterlimit:4;stroke-dasharray:0.8, 1.6;stroke-dashoffset:0;stroke-opacity:1"
         d="m 122.398,102.398 192,0" /><path
         id="path22"
         style="fill:none;stroke:#c0c0c0;stroke-width:0.80000001;stroke-linecap:square;stroke-linejoin:bevel;stroke-miterlimit:4;stroke-dasharray:0.8, 1.6;stroke-dashoffset:0;stroke-opacity:1"
         d="m 276,191.199 0,-128" /><path
         id="path24"
         style="fill:none;stroke:#c0c0c0;stroke-width:0.80000001;stroke-linecap:square;stroke-linejoin:bevel;stroke-miterlimit:4;stroke-dasharray:0.8, 1.6;stroke-dashoffset:0;stroke-opacity:1"
         d="m 237.602,191.199 0,-128" /><path
         id="path26"
         style="fill:none;stroke:#c0c0c0;stroke-width:0.80000001;stroke-linecap:square;stroke-linejoin:bevel;stroke-miterlimit:4;stroke-dasharray:0.8, 1.6;stroke-dashoffset:0;stroke-opacity:1"
         d="m 199.199,191.199 0,-128" /><path
         id="path28"
         style="fill:none;stroke:#c0c0c0;stroke-width:0.80000001;stroke-linecap:square;stroke-linejoin:bevel;stroke-miterlimit:4;stroke-dasharray:0.8, 1.6;stroke-dashoffset:0;stroke-opacity:1"
         d="m 160.801,191.199 0,-128" /><path
         id="path30"
         style="fill:none;stroke:#000000;stroke-width:0.80000001;stroke-linecap:square;stroke-linejoin:bevel;stroke-miterlimit:4;stroke-dasharray:none;stroke-opacity:1"
         d="m 122.398,67.199 0,-8" /><path
         id="path32"
         style="fill:none;stroke:#000000;stroke-width:0.80000001;stroke-linecap:square;stroke-linejoin:bevel;stroke-miterlimit:4;stroke-dasharray:none;stroke-opacity:1"
         d="m 160.801,67.199 0,-8" /><path
         id="path34"
         style="fill:none;stroke:#000000;stroke-width:0.80000001;stroke-linecap:square;stroke-linejoin:bevel;stroke-miterlimit:4;stroke-dasharray:none;stroke-opacity:1"
         d="m 199.199,67.199 0,-8" /><path
         id="path36"
         style="fill:none;stroke:#000000;stroke-width:0.80000001;stroke-linecap:square;stroke-linejoin:bevel;stroke-miterlimit:4;stroke-dasharray:none;stroke-opacity:1"
         d="m 237.602,67.199 0,-8" /><path
         id="path38"
         style="fill:none;stroke:#000000;stroke-width:0.80000001;stroke-linecap:square;stroke-linejoin:bevel;stroke-miterlimit:4;stroke-dasharray:none;stroke-opacity:1"
         d="m 276,67.199 0,-8" /><path
         id="path40"
         style="fill:none;stroke:#000000;stroke-width:0.80000001;stroke-linecap:square;stroke-linejoin:bevel;stroke-miterlimit:4;stroke-dasharray:none;stroke-opacity:1"
         d="m 314.398,67.199 0,-8" /><path
         id="path42"
         style="fill:none;stroke:#000000;stroke-width:0.80000001;stroke-linecap:square;stroke-linejoin:bevel;stroke-miterlimit:4;stroke-dasharray:none;stroke-opacity:1"
         d="m 118.398,63.199 8,0" /><path
         id="path44"
         style="fill:none;stroke:#000000;stroke-width:0.80000001;stroke-linecap:square;stroke-linejoin:bevel;stroke-miterlimit:4;stroke-dasharray:none;stroke-opacity:1"
         d="m 118.398,102.398 8,0" /><path
         id="path46"
         style="fill:none;stroke:#000000;stroke-width:0.80000001;stroke-linecap:square;stroke-linejoin:bevel;stroke-miterlimit:4;stroke-dasharray:none;stroke-opacity:1"
         d="m 118.398,142.398 8,0" /><path
         id="path48"
         style="fill:none;stroke:#000000;stroke-width:0.80000001;stroke-linecap:square;stroke-linejoin:bevel;stroke-miterlimit:4;stroke-dasharray:none;stroke-opacity:1"
         d="m 118.398,181.597 8,0" /><path
         id="path50"
         style="fill:none;stroke:#000000;stroke-width:0.80000001;stroke-linecap:square;stroke-linejoin:bevel;stroke-miterlimit:4;stroke-dasharray:none;stroke-opacity:1"
         d="m 122.398,191.199 192,0" /><path
         id="path52"
         style="fill:none;stroke:#000000;stroke-width:0.80000001;stroke-linecap:square;stroke-linejoin:bevel;stroke-miterlimit:4;stroke-dasharray:none;stroke-opacity:1"
         d="m 314.398,191.199 0,-128" /><path
         id="path54"
         style="fill:none;stroke:#000000;stroke-width:0.80000001;stroke-linecap:square;stroke-linejoin:bevel;stroke-miterlimit:4;stroke-dasharray:none;stroke-opacity:1"
         d="m 122.398,63.199 192,0" /><path
         id="path56"
         style="fill:none;stroke:#000000;stroke-width:0.80000001;stroke-linecap:square;stroke-linejoin:bevel;stroke-miterlimit:4;stroke-dasharray:none;stroke-opacity:1"
         d="m 122.398,191.199 0,-128" /><path
         id="path58"
         style="fill:none;stroke:#00ff00;stroke-width:0.80000001;stroke-linecap:square;stroke-linejoin:bevel;stroke-miterlimit:4;stroke-dasharray:none;stroke-opacity:1"
         d="m 124.32,181.336 0.028,0 0.007,-0.004 0.028,0 0.008,-0.004 0.031,0 0.008,-0.004 0.039,0 0.008,-0.004 0.027,0 0.012,-0.004 0.027,0 0.012,-0.004 0.019,0 0.012,-0.004 0.027,0 0.012,-0.004 0.031,0 0.012,-0.003 0.02,0 0.011,-0.004 0.02,0 0.011,-0.004 0.032,0 0.011,-0.004 0.024,0 0.008,-0.004 0.023,0 0.012,-0.004 0.023,0 0.012,-0.004 0.023,0 0.012,-0.004 0.024,0 0.007,-0.004 0.028,0 0.011,-0.004 0.024,0 0.012,-0.003 0.023,0 0.012,-0.004 0.011,0 0.012,-0.004 0.028,0 0.011,-0.004 0.012,0 0.012,-0.004 0.027,0 0.012,-0.004 0.012,0 0.015,-0.004 0.024,0 0.015,-0.004 0.012,0 0.012,-0.004 0.027,0 0.016,-0.004 0.011,0 0.016,-0.004 0.012,0 0.015,-0.003 0.012,0 0.016,-0.004 0.027,0 0.012,-0.004 0.015,0 0.012,-0.004 0.016,0 0.015,-0.004 0.012,0 0.016,-0.004 0.015,0 0.012,-0.004 0.016,0 0.015,-0.004 0.016,0 0.012,-0.004 0.015,0 0.016,-0.004 0.015,0 0.016,-0.004 0.012,0 0.015,-0.003 0.016,0 0.016,-0.004 0.015,0 0.016,-0.004 0.016,0 0.015,-0.004 0.016,0 0.015,-0.004 0.016,0 0.031,-0.008 0.016,0 0.016,-0.004 0.015,0 0.02,-0.004 0.015,0 0.016,-0.004 0.016,0 0.015,-0.003 0.02,-0.004 0.015,0 0.016,-0.004 0.019,0 0.032,-0.008 0.019,0 0.016,-0.004 0.016,0 0.019,-0.004 0.016,-0.004 0.019,0 0.016,-0.004 0.019,-0.004 0.016,0 0.02,-0.004 0.019,0 0.016,-0.003 0.019,-0.004 0.016,0 0.039,-0.008 0.016,0 0.039,-0.008 0.019,0 0.016,-0.004 0.019,-0.004 0.02,0 0.039,-0.008 0.019,0 0.039,-0.007 0.02,0 0.016,-0.004 0.023,-0.004 0.02,-0.004 0.019,0 0.039,-0.008 0.02,0 0.039,-0.008 0.023,-0.004 0.02,0 0.039,-0.007 0.023,-0.004 0.02,0 0.019,-0.004 0.024,-0.004 0.019,-0.004 0.02,0 0.047,-0.008 0.019,-0.004 0.02,0 0.047,-0.008 0.019,-0.004 0.024,0 0.019,-0.003 0.047,-0.008 0.023,0 0.02,-0.004 0.07,-0.012 0.024,0 0.07,-0.012 0.02,-0.004 0.023,0 0.027,-0.003 0.02,-0.004 0.027,-0.004 0.024,-0.004 0.023,0 0.047,-0.008 0.027,-0.004 0.024,-0.004 0.023,0 0.024,-0.004 0.027,-0.004 0.047,-0.007 0.027,0 0.024,-0.004 0.027,-0.004 0.023,-0.004 0.028,-0.004 0.027,0 0.024,-0.004 0.054,-0.008 0.024,-0.004 0.027,0 0.055,-0.007 0.023,-0.004 0.027,0 0.11,-0.016 0.027,0 0.082,-0.012 0.028,0 0.031,-0.004 0.054,-0.007 0.032,-0.004 0.027,0 0.055,-0.008 0.031,0 0.027,-0.004 0.032,-0.004 0.027,-0.004 0.031,0 0.031,-0.004 0.028,-0.004 0.031,0 0.031,-0.004 0.028,-0.003 0.031,0 0.094,-0.012 0.031,0 0.031,-0.004 0.031,0 0.063,-0.008 0.031,0 0.031,-0.004 0.032,0 0.062,-0.008 0.035,0 0.032,-0.004 0.031,0 0.035,-0.003 0.031,0 0.035,-0.004 0.032,0 0.035,-0.004 0.035,0 0.031,-0.004 0.035,0 0.035,-0.004 0.067,0 0.035,-0.004 0.07,0 0.036,-0.004 0.07,0 0.035,-0.004 0.109,0 0.036,-0.004 0.218,0 0.039,-0.004 0.227,0 0.039,0.004 0.195,0 0.039,0.004 0.082,0 0.039,0.004 0.082,0 0.04,0.004 0.042,0 0.04,0.004 0.043,0 0.043,0.004 0.039,0 0.043,0.004 0.042,0 0.043,0.004 0.04,0.004 0.046,0.003 0.039,0 0.043,0.004 0.047,0.004 0.129,0.012 0.047,0.004 0.086,0.008 0.047,0.004 0.043,0.004 0.047,0.003 0.043,0.008 0.093,0.008 0.047,0.008 0.043,0.004 0.047,0.008 0.047,0.003 0.047,0.008 0.047,0.004 0.047,0.008 0.047,0.004 0.05,0.008 0.094,0.015 0.051,0.008 0.047,0.004 0.051,0.008 0.046,0.008 0.051,0.008 0.047,0.007 0.051,0.012 0.203,0.031 0.051,0.012 0.051,0.008 0.05,0.012 0.051,0.007 0.051,0.012 0.055,0.008 0.05,0.012 0.055,0.007 0.051,0.012 0.055,0.012 0.05,0.008 0.164,0.035 0.055,0.008 0.328,0.07 0.059,0.012 0.054,0.007 0.059,0.012 0.055,0.012 0.058,0.012 0.055,0.011 0.234,0.047 0.059,0.008 0.117,0.023 0.059,0.008 0.062,0.012 0.059,0.012 0.062,0.008 0.059,0.007 0.062,0.012 0.059,0.008 0.188,0.023 0.062,0.004 0.063,0.008 0.062,0.004 0.063,0.008 0.062,0.004 0.066,0.004 0.063,0 0.066,0.003 0.325,0 0.199,-0.011 0.07,-0.008 0.133,-0.016 0.07,-0.007 0.067,-0.012 0.07,-0.012 0.066,-0.012 0.071,-0.011 0.281,-0.063 0.141,-0.039 0.074,-0.019 0.14,-0.04 0.223,-0.07 0.07,-0.019 0.223,-0.071 0.078,-0.023 0.074,-0.024 0.075,-0.019 0.078,-0.02 0.074,-0.019 0.078,-0.02 0.078,-0.015 0.074,-0.012 0.078,-0.016 0.079,-0.007 0.078,-0.004 0.082,-0.004 0.078,0 0.078,0.004 0.082,0.011 0.078,0.012 0.082,0.02 0.082,0.023 0.082,0.031 0.164,0.078 0.164,0.102 0.082,0.059 0.086,0.062 0.082,0.059 0.086,0.054 0.086,0.047 0.082,0.028 0.09,0.003 0.086,-0.039 0.086,-0.093 0.086,-0.16 0.086,-0.247 0.09,-0.339 0.086,-0.438 0.09,-0.539 0.089,-0.629 0.09,-0.703 0.086,-0.77 0.094,-0.816 0.09,-0.855 0.09,-0.887 0.089,-0.906 0.094,-0.922 0.094,-0.942 0.09,-0.953 0.094,-0.969 0.093,-0.984 0.094,-1.008 0.094,-1.031 0.097,-1.059 0.094,-1.097 0.094,-1.145 0.098,-1.203 0.097,-1.277 0.098,-1.371 0.098,-1.504 0.097,-1.68 0.098,-1.941 0.098,-2.352 0.101,-3.094 0.098,-4.816 0.101,-15.969 0.102,13.531 0.101,4.754 0.102,2.496 0.102,1.625 0.101,1.157 0.102,0.867 0.105,0.672 0.102,0.523 0.105,0.414 0.106,0.332 0.105,0.262 0.106,0.203 0.105,0.156 0.109,0.118 0.106,0.078 0.109,0.05 0.11,0.02 0.109,0 0.109,-0.027 0.11,-0.047 0.109,-0.063 0.113,-0.082 0.11,-0.101 0.113,-0.114 0.109,-0.128 0.114,-0.145 0.117,-0.16 0.113,-0.172 0.113,-0.184 0.114,-0.199 0.117,-0.211 0.117,-0.226 0.117,-0.239 0.118,-0.254 0.117,-0.269 0.117,-0.281 0.117,-0.301 0.121,-0.317 0.121,-0.335 0.121,-0.352 0.121,-0.375 0.122,-0.398 0.121,-0.422 0.125,-0.45 0.121,-0.48 0.125,-0.516 0.125,-0.554 0.125,-0.602 0.125,-0.652 0.125,-0.723 0.129,-0.797 0.125,-0.894 0.129,-1.024 0.128,-1.187 0.129,-1.422 0.129,-1.781 0.133,-2.379 0.129,-3.621 0.133,-7.993 0.133,1.172 0.132,7.098 0.133,3.375 0.133,2.223 0.137,1.656 0.133,1.316 0.136,1.086 0.137,0.926 0.137,0.805 0.136,0.711 0.141,0.632 0.137,0.571 0.14,0.515 0.141,0.477 0.141,0.434 0.14,0.406 0.145,0.375 0.14,0.347 0.145,0.329 0.145,0.304 0.144,0.289 0.148,0.27 0.145,0.258 0.148,0.242 0.145,0.23 0.148,0.219 0.149,0.207 0.152,0.195 0.149,0.192 0.152,0.18 0.152,0.171 0.153,0.164 0.152,0.157 0.156,0.148 0.153,0.145 0.156,0.14 0.156,0.133 0.313,0.25 0.16,0.117 0.156,0.114 0.32,0.211 0.164,0.101 0.161,0.098 0.164,0.093 0.164,0.09 0.328,0.172 0.164,0.082 0.168,0.078 0.336,0.149 0.168,0.066 0.168,0.071 0.172,0.066 0.171,0.062 0.516,0.176 0.176,0.055 0.176,0.051 0.175,0.054 0.352,0.094 0.18,0.047 0.539,0.129 0.367,0.078 0.18,0.035 0.187,0.039 0.184,0.031 0.187,0.036 0.184,0.031 0.187,0.031 0.192,0.027 0.187,0.032 0.192,0.027 0.191,0.024 0.191,0.027 0.192,0.023 0.39,0.047 0.391,0.039 0.399,0.039 0.199,0.016 0.199,0.019 0.199,0.016 0.203,0.016 0.203,0.011 0.204,0.016 0.203,0.012 0.621,0.035 0.211,0.012 0.207,0.007 0.422,0.016 0.214,0.008 0.211,0.008 0.215,0.008 0.215,0.003 0.219,0.008 0.215,0.004 0.218,0.004 0.223,0.004 0.219,0.004 0.222,0 0.223,0.004 0.223,0 0.222,0.004 0.911,0 0.23,-0.004 0.231,0 0.23,-0.004 0.234,0 0.469,-0.008 0.238,-0.004 0.235,-0.004 0.238,-0.004 0.242,-0.004 0.239,-0.007 0.484,-0.008 0.492,-0.016 0.246,-0.004 0.246,-0.008 1,-0.031 0.254,-0.012 0.254,-0.007 0.258,-0.008 0.258,-0.012 0.254,-0.008 0.523,-0.023 0.258,-0.008 0.266,-0.012 0.261,-0.011 0.531,-0.024 0.54,-0.023 0.269,-0.016 0.27,-0.012 0.273,-0.011 0.274,-0.016 0.273,-0.012 0.277,-0.011 0.278,-0.016 0.281,-0.016 0.281,-0.011 0.277,-0.016 0.571,-0.031 0.285,-0.012 0.285,-0.016 0.867,-0.046 0.293,-0.02 0.293,-0.016 0.594,-0.031 0.297,-0.019 0.297,-0.016 0.301,-0.016 0.3,-0.019 0.305,-0.016 0.305,-0.019 0.304,-0.016 0.309,-0.019 0.309,-0.016 0.308,-0.02 0.625,-0.039 0.317,-0.015 0.949,-0.059 0.32,-0.019 1.297,-0.079 0.656,-0.039 0.332,-0.023 0.332,-0.02 0.336,-0.019 0.332,-0.02 0.34,-0.023 0.336,-0.02 0.34,-0.019 0.344,-0.024 0.343,-0.019 0.344,-0.024 0.348,-0.019 0.347,-0.024 0.348,-0.019 0.352,-0.023 0.355,-0.02 0.352,-0.023 0.355,-0.024 0.36,-0.019 0.718,-0.047 0.364,-0.02 0.367,-0.023 0.363,-0.024 0.367,-0.023 0.742,-0.047 0.371,-0.02 0.375,-0.023 0.379,-0.023 0.375,-0.024 0.383,-0.023 0.379,-0.024 0.387,-0.023 0.383,-0.024 0.386,-0.023 0.391,-0.027 0.781,-0.047 0.395,-0.024 0.398,-0.023 0.395,-0.024 0.402,-0.027 0.399,-0.023 0.406,-0.024 0.402,-0.023 0.406,-0.028 0.821,-0.046 0.414,-0.028 0.414,-0.023 0.418,-0.024 0.418,-0.027 0.422,-0.023 0.421,-0.028 0.422,-0.023 0.426,-0.028 0.43,-0.023 0.43,-0.027 0.433,-0.024 0.434,-0.027 0.437,-0.024 0.438,-0.027 0.441,-0.023 0.883,-0.055 0.449,-0.023 0.899,-0.055 0.453,-0.024 0.453,-0.027 0.457,-0.027 0.457,-0.024 0.465,-0.027 0.461,-0.027 0.464,-0.028 0.469,-0.023 0.469,-0.028 0.945,-0.054 0.477,-0.028 0.476,-0.023 0.481,-0.027 0.969,-0.055 0.976,-0.055 0.492,-0.027 1.489,-0.082 0.5,-0.024 0.504,-0.027 1.523,-0.082 0.516,-0.027 0.511,-0.028 0.52,-0.027 0.519,-0.031 1.047,-0.055 1.055,-0.055 0.531,-0.027 0.535,-0.027 1.618,-0.082 0.546,-0.032 1.094,-0.054 0.551,-0.028 0.555,-0.027 0.558,-0.027 0.559,-0.032 0.562,-0.027 1.133,-0.055 0.57,-0.027 0.571,-0.031 0.578,-0.027 0.574,-0.028 0.582,-0.027 0.582,-0.031 0.586,-0.028 0.59,-0.027 0.59,-0.031 0.594,-0.028 0.597,-0.027 0.602,-0.027 0.601,-0.032 1.211,-0.054 0.614,-0.032 0.613,-0.027 0.617,-0.031 0.617,-0.028 0.621,-0.027 0.625,-0.031 1.258,-0.055 0.637,-0.031 0.637,-0.027 0.636,-0.032 1.289,-0.054 0.649,-0.032 0.652,-0.027 0.653,-0.031 0.66,-0.028 0.66,-0.031 0.664,-0.027 0.664,-0.031 0.672,-0.028 0.672,-0.031 0.675,-0.027 0.68,-0.032 0.68,-0.027 0.687,-0.031 0.688,-0.027 0.691,-0.032 0.696,-0.027 0.699,-0.031 0.699,-0.028 0.703,-0.031 0.711,-0.027 0.711,-0.032 0.715,-0.027 0.715,-0.031 0.722,-0.027 0.723,-0.032 0.73,-0.031 0.731,-0.027 0.734,-0.032 0.739,-0.027 0.738,-0.031 0.746,-0.031 0.746,-0.028 0.754,-0.031 0.754,-0.027 0.758,-0.032 0.761,-0.031 0.766,-0.027 0.77,-0.031 0.773,-0.028 1.555,-0.062 0.785,-0.028 0.785,-0.031 0.793,-0.031 0.793,-0.027 0.797,-0.032 0.801,-0.031 0.804,-0.027 1.625,-0.063 0.817,-0.027 0.816,-0.031 0.828,-0.032 0.824,-0.027 0.832,-0.031 0.836,-0.031 0.84,-0.028 0.844,-0.031 0.848,-0.031 0.851,-0.032 0.856,-0.027 0.859,-0.031 0.863,-0.031 0.864,-0.028 0.871,-0.031 0.875,-0.031 0.879,-0.032 0.882,-0.027" /><path
         id="path60"
         style="fill:none;stroke:#00ffff;stroke-width:0.80000001;stroke-linecap:square;stroke-linejoin:bevel;stroke-miterlimit:4;stroke-dasharray:none;stroke-opacity:1"
         d="m 124.32,181.273 0.008,0 0.008,-0.004 0.019,0 0.008,-0.004 0.02,0 0.008,-0.003 0.019,0 0.012,-0.004 0.008,0 0.008,-0.004 0.019,0 0.012,-0.004 0.019,0 0.008,-0.004 0.008,0 0.012,-0.004 0.019,0 0.008,-0.004 0.012,0 0.011,-0.004 0.008,0 0.012,-0.004 0.019,0 0.008,-0.004 0.012,0 0.012,-0.004 0.019,0 0.012,-0.003 0.008,0 0.012,-0.004 0.011,0 0.008,-0.004 0.012,0 0.011,-0.004 0.012,0 0.012,-0.004 0.019,0 0.012,-0.004 0.012,0 0.008,-0.004 0.011,0 0.012,-0.004 0.012,0 0.012,-0.004 0.011,0 0.012,-0.004 0.012,0 0.011,-0.004 0.012,0 0.012,-0.003 0.012,0 0.007,-0.004 0.016,0 0.012,-0.004 0.011,0 0.012,-0.004 0.012,0 0.023,-0.008 0.012,0 0.012,-0.004 0.011,0 0.012,-0.004 0.016,0 0.012,-0.004 0.011,0 0.024,-0.007 0.015,0 0.012,-0.004 0.012,0 0.012,-0.004 0.015,0 0.024,-0.008 0.015,0 0.012,-0.004 0.012,0 0.015,-0.004 0.012,-0.004 0.016,0 0.011,-0.004 0.016,0 0.012,-0.004 0.015,-0.004 0.012,0 0.016,-0.003 0.011,-0.004 0.016,0 0.012,-0.004 0.015,0 0.012,-0.004 0.016,-0.004 0.015,0 0.012,-0.004 0.016,-0.004 0.015,0 0.012,-0.004 0.016,-0.004 0.015,0 0.016,-0.004 0.012,-0.004 0.015,0 0.031,-0.007 0.016,0 0.012,-0.004 0.015,-0.004 0.016,0 0.047,-0.012 0.016,0 0.031,-0.008 0.015,0 0.032,-0.007 0.015,0 0.047,-0.012 0.02,0 0.047,-0.012 0.015,0 0.02,-0.004 0.015,-0.004 0.016,0 0.019,-0.004 0.032,-0.007 0.019,0 0.032,-0.008 0.019,-0.004 0.016,0 0.019,-0.004 0.016,-0.004 0.019,-0.004 0.016,0 0.039,-0.008 0.016,-0.004 0.019,-0.004 0.016,0 0.039,-0.007 0.016,-0.004 0.019,0 0.039,-0.008 0.016,-0.004 0.019,0 0.059,-0.012 0.019,0 0.059,-0.011 0.016,0 0.023,-0.004 0.039,-0.008 0.02,0 0.058,-0.012 0.02,0 0.023,-0.004 0.039,-0.008 0.02,0 0.023,-0.003 0.039,-0.008 0.024,0 0.039,-0.008 0.023,-0.004 0.024,0 0.039,-0.008 0.023,0 0.024,-0.004 0.019,-0.004 0.024,-0.004 0.019,0 0.047,-0.007 0.023,0 0.02,-0.004 0.023,-0.004 0.024,0 0.047,-0.008 0.023,0 0.047,-0.008 0.02,0 0.023,-0.004 0.027,0 0.02,-0.004 0.027,-0.003 0.024,0 0.023,-0.004 0.024,0 0.023,-0.004 0.027,0 0.047,-0.008 0.024,0 0.027,-0.004 0.023,0 0.024,-0.004 0.027,0 0.024,-0.004 0.027,0 0.023,-0.004 0.055,0 0.024,-0.004 0.027,0 0.027,-0.004 0.051,0 0.027,-0.003 0.028,0 0.023,-0.004 0.082,0 0.027,-0.004 0.055,0 0.028,-0.004 0.113,0 0.027,-0.004 0.469,0 0.031,0.004 0.125,0 0.031,0.004 0.063,0 0.031,0.004 0.031,0 0.032,0.004 0.062,0 0.035,0.003 0.032,0 0.031,0.004 0.035,0 0.031,0.004 0.035,0.004 0.032,0 0.07,0.008 0.031,0 0.07,0.008 0.032,0.004 0.07,0.008 0.035,0 0.176,0.019 0.035,0.008 0.035,0.004 0.039,0.004 0.106,0.011 0.039,0.008 0.035,0.004 0.039,0.004 0.035,0.008 0.039,0.004 0.039,0.008 0.036,0.003 0.039,0.008 0.039,0.004 0.039,0.008 0.035,0.004 0.078,0.016 0.039,0.003 0.156,0.032 0.043,0.004 0.078,0.015 0.043,0.008 0.079,0.016 0.042,0.007 0.04,0.008 0.086,0.016 0.039,0.012 0.128,0.023 0.04,0.008 0.046,0.012 0.039,0.007 0.043,0.008 0.047,0.012 0.086,0.016 0.043,0.011 0.047,0.008 0.043,0.008 0.043,0.012 0.047,0.007 0.043,0.012 0.047,0.008 0.043,0.008 0.047,0.011 0.046,0.008 0.047,0.012 0.043,0.008 0.047,0.008 0.047,0.011 0.047,0.008 0.047,0.012 0.094,0.016 0.05,0.007 0.047,0.012 0.047,0.008 0.051,0.008 0.047,0.007 0.051,0.008 0.046,0.012 0.051,0.008 0.047,0.008 0.051,0.004 0.203,0.031 0.051,0.004 0.051,0.008 0.05,0.003 0.051,0.008 0.051,0.004 0.055,0.004 0.05,0.004 0.055,0.004 0.051,0.004 0.055,0.004 0.05,0.004 0.055,0 0.055,0.003 0.328,0 0.054,-0.003 0.055,0 0.059,-0.004 0.054,-0.004 0.059,-0.004 0.055,-0.004 0.058,-0.004 0.055,-0.008 0.059,-0.004 0.293,-0.039 0.058,-0.011 0.059,-0.008 0.062,-0.012 0.059,-0.012 0.062,-0.011 0.059,-0.012 0.062,-0.012 0.059,-0.015 0.063,-0.012 0.187,-0.047 0.063,-0.012 0.125,-0.031 0.062,-0.02 0.066,-0.015 0.063,-0.016 0.066,-0.015 0.063,-0.016 0.066,-0.02 0.067,-0.015 0.062,-0.016 0.133,-0.031 0.066,-0.02 0.067,-0.015 0.07,-0.012 0.133,-0.031 0.07,-0.016 0.067,-0.012 0.07,-0.011 0.066,-0.012 0.141,-0.023 0.281,-0.032 0.071,-0.004 0.074,-0.004 0.215,0 0.148,0.008 0.07,0.008 0.075,0.008 0.148,0.023 0.078,0.016 0.074,0.016 0.075,0.019 0.078,0.02 0.074,0.023 0.078,0.024 0.078,0.027 0.074,0.027 0.078,0.031 0.079,0.036 0.078,0.031 0.082,0.035 0.156,0.07 0.082,0.039 0.078,0.032 0.082,0.035 0.082,0.031 0.164,0.047 0.082,0.016 0.082,0.003 0.082,0 0.082,-0.015 0.086,-0.027 0.082,-0.047 0.086,-0.059 0.086,-0.082 0.082,-0.102 0.09,-0.125 0.086,-0.148 0.086,-0.172 0.086,-0.195 0.086,-0.219 0.09,-0.242 0.086,-0.262 0.09,-0.285 0.089,-0.301 0.09,-0.316 0.086,-0.332 0.094,-0.348 0.09,-0.351 0.09,-0.364 0.089,-0.371 0.094,-0.375 0.094,-0.379 0.09,-0.383 0.094,-0.386 0.093,-0.383 0.188,-0.773 0.097,-0.387 0.188,-0.766 0.098,-0.383 0.097,-0.379 0.293,-1.125 0.098,-0.371 0.098,-0.367 0.101,-0.367 0.098,-0.363 0.101,-0.364 0.203,-0.718 0.102,-0.356 0.305,-1.054 0.105,-0.348 0.102,-0.348 0.211,-0.687 0.316,-1.02 0.109,-0.34 0.106,-0.336 0.109,-0.336 0.11,-0.332 0.109,-0.336 0.328,-0.996 0.113,-0.328 0.11,-0.332 0.113,-0.328 0.109,-0.332 0.114,-0.328 0.117,-0.328 0.34,-0.985 0.234,-0.656 0.117,-0.332 0.352,-0.984 0.117,-0.332 0.484,-1.328 0.122,-0.336 0.121,-0.332 0.125,-0.336 0.121,-0.34 0.375,-1.02 0.25,-0.687 0.129,-0.348 0.125,-0.351 0.129,-0.348 0.257,-0.711 0.129,-0.359 0.133,-0.36 0.129,-0.363 0.133,-0.367 0.133,-0.371 0.265,-0.75 0.133,-0.383 0.137,-0.383 0.133,-0.391 0.136,-0.394 0.137,-0.398 0.137,-0.407 0.136,-0.41 0.141,-0.418 0.137,-0.422 0.14,-0.429 0.141,-0.438 0.141,-0.445 0.14,-0.453 0.145,-0.465 0.14,-0.473 0.145,-0.484 0.145,-0.496 0.144,-0.508 0.148,-0.524 0.145,-0.539 0.148,-0.558 0.145,-0.574 0.148,-0.598 0.149,-0.621 0.152,-0.649 0.149,-0.679 0.152,-0.715 0.152,-0.758 0.153,-0.805 0.152,-0.863 0.156,-0.934 0.153,-1.023 0.156,-1.133 0.156,-1.281 0.156,-1.481 0.157,-1.773 0.16,-2.246 0.156,-3.125 0.16,-5.402 0.16,-13.836 0.164,15.074 0.161,4.16 0.164,2.441 0.164,1.696 0.164,1.277 0.164,1.012 0.164,0.828 0.168,0.691 0.168,0.582 0.168,0.504 0.168,0.43 0.168,0.379 0.172,0.328 0.171,0.289 0.172,0.254 0.172,0.223 0.172,0.195 0.176,0.172 0.176,0.152 0.175,0.129 0.176,0.109 0.176,0.098 0.18,0.078 0.179,0.067 0.18,0.054 0.18,0.039 0.183,0.032 0.184,0.019 0.18,0.008 0.187,0 0.184,-0.008 0.187,-0.019 0.184,-0.028 0.187,-0.035 0.192,-0.043 0.187,-0.051 0.192,-0.054 0.191,-0.067 0.191,-0.07 0.192,-0.078 0.195,-0.086 0.195,-0.09 0.391,-0.203 0.199,-0.113 0.2,-0.118 0.199,-0.125 0.199,-0.128 0.199,-0.137 0.203,-0.145 0.203,-0.152 0.204,-0.156 0.203,-0.164 0.207,-0.172 0.207,-0.18 0.207,-0.187 0.211,-0.196 0.207,-0.203 0.211,-0.211 0.211,-0.219 0.214,-0.23 0.211,-0.238 0.215,-0.25 0.215,-0.262 0.219,-0.273 0.215,-0.286 0.218,-0.296 0.223,-0.313 0.219,-0.328 0.222,-0.348 0.223,-0.363 0.223,-0.383 0.222,-0.406 0.227,-0.434 0.227,-0.461 0.226,-0.496 0.231,-0.527 0.23,-0.574 0.231,-0.625 0.23,-0.68 0.234,-0.758 0.235,-0.844 0.234,-0.957 0.238,-1.109 0.235,-1.316 0.238,-1.618 0.242,-2.105 0.239,-3.031 0.242,-5.52 0.242,-10.054 0.246,12.601 0.246,4.156 0.246,2.551 0.246,1.84 0.25,1.437 0.25,1.176 0.25,0.996 0.25,0.864 0.254,0.757 0.254,0.676 0.258,0.61 0.258,0.554 0.254,0.504 0.261,0.469 0.262,0.434 0.258,0.402 0.266,0.375 0.261,0.351 0.266,0.332 0.265,0.313 0.27,0.297 0.27,0.277 0.269,0.266 0.27,0.254 0.273,0.238 0.274,0.23 0.273,0.219 0.277,0.207 0.278,0.199 0.281,0.192 0.281,0.183 0.277,0.18 0.286,0.168 0.285,0.164 0.285,0.156 0.285,0.153 0.289,0.144 0.289,0.141 0.289,0.137 0.586,0.257 0.297,0.122 0.297,0.117 0.594,0.226 0.301,0.106 0.3,0.101 0.305,0.102 0.305,0.098 0.304,0.093 0.618,0.18 0.308,0.086 0.625,0.164 0.317,0.078 0.632,0.149 0.317,0.07 0.32,0.07 0.649,0.133 0.648,0.125 0.656,0.117 0.664,0.11 0.336,0.054 0.332,0.051 0.34,0.051 0.336,0.047 0.34,0.047 0.344,0.046 0.687,0.086 0.348,0.043 0.695,0.078 0.352,0.04 0.355,0.039 0.352,0.035 0.355,0.035 0.36,0.031 0.359,0.035 0.359,0.032 0.364,0.027 0.367,0.031 0.363,0.028 0.367,0.027 0.742,0.055 0.371,0.023 0.375,0.023 0.379,0.024 0.375,0.023 0.383,0.024 0.379,0.019 0.387,0.02 0.383,0.019 0.386,0.02 0.391,0.015 0.391,0.02 0.39,0.016 0.395,0.015 0.398,0.016 0.395,0.012 0.402,0.015 0.399,0.012 0.406,0.012 0.402,0.011 0.406,0.012 0.821,0.024 0.828,0.015 0.418,0.012 0.418,0.008 0.422,0.004 0.843,0.015 0.426,0.004 0.43,0.008 0.43,0.004 0.867,0.008 0.875,0.007 0.441,0 0.441,0.004 0.442,0 0.449,0.004 2.262,0 0.457,-0.004 0.926,0 0.464,-0.004 0.469,-0.003 0.469,0 0.945,-0.008 0.953,-0.008 0.481,-0.004 0.484,-0.008 0.485,-0.004 0.488,-0.004 0.488,-0.007 0.492,-0.008 0.496,-0.004 0.993,-0.016 0.5,-0.008 0.504,-0.007 1.523,-0.024 0.516,-0.008 0.511,-0.011 1.039,-0.016 0.524,-0.012 0.523,-0.007 1.055,-0.024 0.531,-0.008 0.535,-0.011 1.618,-0.036 1.64,-0.035 0.551,-0.015 0.555,-0.012 0.558,-0.012 0.559,-0.015 0.562,-0.012 0.567,-0.016 0.566,-0.012 0.57,-0.015 0.571,-0.012 0.578,-0.015 0.574,-0.016 0.582,-0.012 0.582,-0.015 0.586,-0.016 1.18,-0.031 0.594,-0.016 0.597,-0.016 1.203,-0.031 0.606,-0.019 0.605,-0.016 1.227,-0.031 0.617,-0.02 0.617,-0.015 0.621,-0.016 0.625,-0.02 0.629,-0.015 0.629,-0.02 0.637,-0.019 0.637,-0.016 0.636,-0.019 0.645,-0.02 0.644,-0.016 0.649,-0.019 1.305,-0.039 0.66,-0.016 0.66,-0.019 1.328,-0.039 1.344,-0.039 0.675,-0.02 0.68,-0.019 0.68,-0.024 1.375,-0.039 0.691,-0.02 0.696,-0.019 0.699,-0.023 0.699,-0.02 0.703,-0.02 0.711,-0.023 0.711,-0.02 0.715,-0.019 0.715,-0.023 0.722,-0.02 0.723,-0.023 0.73,-0.02 0.731,-0.023 0.734,-0.02 1.477,-0.047 0.746,-0.019 0.746,-0.024 0.754,-0.023 0.754,-0.02 0.758,-0.023 0.761,-0.024 0.766,-0.023 0.77,-0.024 0.773,-0.019 1.555,-0.047 1.57,-0.047 1.586,-0.047 0.797,-0.023 0.801,-0.024 0.804,-0.023 1.625,-0.047 1.633,-0.047 0.828,-0.023 0.824,-0.028 0.832,-0.023 0.836,-0.023 0.84,-0.024 0.844,-0.023 0.848,-0.028 0.851,-0.023 0.856,-0.023 0.859,-0.028 1.727,-0.047 0.871,-0.027 0.875,-0.023 0.879,-0.024 0.882,-0.027" /><path
         id="path62"
         style="fill:none;stroke:#ffff00;stroke-width:0.80000001;stroke-linecap:square;stroke-linejoin:bevel;stroke-miterlimit:4;stroke-dasharray:none;stroke-opacity:1"
         d="m 124.32,181.293 0.008,-0.004 0.02,0 0.007,-0.004 0.02,0 0.008,-0.004 0.019,0 0.008,-0.004 0.02,0 0.008,-0.004 0.019,0 0.012,-0.004 0.019,0 0.008,-0.004 0.02,0 0.007,-0.003 0.02,0 0.012,-0.004 0.011,0 0.008,-0.004 0.02,0 0.011,-0.004 0.02,0 0.012,-0.004 0.008,0 0.011,-0.004 0.02,0 0.012,-0.004 0.011,0 0.008,-0.004 0.023,0 0.012,-0.004 0.012,0 0.008,-0.004 0.011,0 0.012,-0.004 0.02,0 0.011,-0.003 0.012,0 0.012,-0.004 0.012,0 0.011,-0.004 0.012,0 0.012,-0.004 0.011,0 0.012,-0.004 0.024,0 0.007,-0.004 0.016,0 0.012,-0.004 0.011,0 0.012,-0.004 0.012,0 0.012,-0.004 0.011,0 0.012,-0.004 0.012,0 0.011,-0.004 0.012,0 0.016,-0.003 0.012,0 0.011,-0.004 0.012,0 0.012,-0.004 0.015,0 0.012,-0.004 0.012,0 0.012,-0.004 0.015,-0.004 0.012,0 0.012,-0.004 0.015,0 0.012,-0.004 0.012,0 0.015,-0.004 0.012,0 0.016,-0.004 0.011,-0.003 0.016,0 0.012,-0.004 0.015,0 0.012,-0.004 0.016,0 0.011,-0.004 0.016,-0.004 0.012,0 0.015,-0.004 0.012,0 0.031,-0.008 0.012,0 0.016,-0.004 0.015,0 0.012,-0.004 0.016,-0.004 0.015,0 0.016,-0.003 0.012,-0.004 0.015,0 0.016,-0.004 0.015,0 0.016,-0.004 0.012,-0.004 0.015,0 0.032,-0.008 0.015,0 0.032,-0.008 0.015,0 0.031,-0.008 0.016,0 0.031,-0.007 0.016,0 0.031,-0.008 0.02,-0.004 0.015,0 0.032,-0.008 0.015,0 0.02,-0.004 0.015,-0.004 0.016,0 0.019,-0.004 0.032,-0.007 0.019,0 0.032,-0.008 0.019,0 0.016,-0.004 0.019,-0.004 0.016,-0.004 0.019,0 0.016,-0.004 0.039,-0.008 0.016,0 0.019,-0.004 0.016,-0.003 0.019,-0.004 0.02,0 0.016,-0.004 0.039,-0.008 0.019,0 0.016,-0.004 0.039,-0.008 0.019,0 0.059,-0.012 0.019,0 0.02,-0.003 0.016,-0.004 0.023,-0.004 0.02,-0.004 0.019,0 0.059,-0.012 0.019,0 0.02,-0.004 0.023,-0.004 0.02,-0.004 0.019,0 0.02,-0.003 0.023,-0.004 0.02,-0.004 0.019,0 0.024,-0.004 0.039,-0.008 0.023,-0.004 0.024,0 0.039,-0.008 0.023,-0.004 0.024,0 0.019,-0.004 0.024,-0.003 0.019,-0.004 0.024,0 0.046,-0.008 0.02,0 0.07,-0.012 0.024,0 0.047,-0.008 0.023,0 0.02,-0.004 0.023,-0.004 0.027,-0.003 0.02,0 0.027,-0.004 0.024,-0.004 0.023,0 0.047,-0.008 0.027,0 0.047,-0.008 0.024,0 0.027,-0.004 0.023,-0.004 0.024,0 0.027,-0.004 0.024,0 0.027,-0.003 0.023,-0.004 0.028,0 0.027,-0.004 0.024,0 0.027,-0.004 0.027,0 0.024,-0.004 0.027,0 0.027,-0.004 0.028,0 0.023,-0.004 0.027,0 0.028,-0.004 0.027,0 0.027,-0.004 0.028,0 0.027,-0.004 0.028,0 0.027,-0.004 0.055,0 0.031,-0.003 0.054,0 0.032,-0.004 0.054,0 0.028,-0.004 0.09,0 0.027,-0.004 0.121,0 0.031,-0.004 0.434,0 0.031,0.004 0.133,0 0.031,0.004 0.067,0 0.035,0.004 0.066,0 0.035,0.004 0.035,0 0.032,0.003 0.035,0 0.035,0.004 0.035,0 0.071,0.008 0.035,0 0.07,0.008 0.035,0 0.035,0.004 0.039,0.004 0.036,0.004 0.035,0 0.035,0.004 0.039,0.004 0.035,0.003 0.039,0.004 0.035,0.004 0.078,0.008 0.036,0.004 0.039,0.008 0.078,0.008 0.035,0.003 0.039,0.008 0.078,0.008 0.039,0.008 0.078,0.008 0.039,0.008 0.043,0.003 0.078,0.016 0.043,0.004 0.079,0.016 0.042,0.004 0.04,0.007 0.086,0.016 0.039,0.008 0.043,0.004 0.085,0.015 0.04,0.008 0.046,0.008 0.039,0.008 0.043,0.008 0.047,0.011 0.129,0.024 0.047,0.008 0.043,0.011 0.043,0.008 0.047,0.008 0.043,0.008 0.047,0.011 0.043,0.008 0.047,0.012 0.093,0.016 0.043,0.011 0.047,0.008 0.047,0.012 0.047,0.008 0.047,0.011 0.047,0.008 0.047,0.012 0.05,0.008 0.047,0.011 0.047,0.008 0.051,0.012 0.047,0.008 0.051,0.008 0.046,0.011 0.051,0.008 0.047,0.012 0.051,0.008 0.051,0.011 0.101,0.016 0.051,0.012 0.254,0.039 0.055,0.008 0.05,0.007 0.055,0.008 0.051,0.008 0.055,0.008 0.05,0.004 0.11,0.015 0.109,0.008 0.055,0.008 0.164,0.012 0.054,0 0.055,0.004 0.059,0.003 0.34,0 0.058,-0.003 0.059,0 0.293,-0.02 0.062,-0.008 0.059,-0.008 0.062,-0.007 0.059,-0.008 0.062,-0.008 0.059,-0.008 0.063,-0.012 0.062,-0.007 0.188,-0.036 0.062,-0.015 0.063,-0.012 0.062,-0.015 0.066,-0.012 0.063,-0.016 0.066,-0.015 0.063,-0.016 0.066,-0.016 0.067,-0.019 0.062,-0.016 0.067,-0.015 0.066,-0.02 0.133,-0.031 0.07,-0.02 0.066,-0.015 0.067,-0.02 0.07,-0.016 0.067,-0.015 0.07,-0.02 0.066,-0.015 0.211,-0.047 0.141,-0.024 0.07,-0.015 0.071,-0.008 0.074,-0.012 0.14,-0.015 0.075,-0.008 0.148,-0.008 0.219,0 0.074,0.004 0.078,0.008 0.074,0.007 0.075,0.012 0.078,0.012 0.074,0.016 0.156,0.039 0.074,0.023 0.078,0.023 0.157,0.063 0.082,0.031 0.156,0.071 0.082,0.039 0.078,0.039 0.164,0.078 0.082,0.035 0.164,0.062 0.082,0.024 0.082,0.012 0.082,0.003 0.086,-0.007 0.082,-0.024 0.086,-0.047 0.086,-0.062 0.082,-0.09 0.09,-0.117 0.086,-0.149 0.086,-0.175 0.086,-0.211 0.086,-0.239 0.09,-0.273 0.086,-0.297 0.09,-0.328 0.089,-0.352 0.09,-0.375 0.086,-0.39 0.094,-0.406 0.09,-0.422 0.09,-0.43 0.089,-0.441 0.094,-0.446 0.094,-0.449 0.09,-0.453 0.187,-0.914 0.094,-0.453 0.094,-0.457 0.097,-0.457 0.188,-0.907 0.195,-0.898 0.196,-0.891 0.195,-0.882 0.098,-0.438 0.101,-0.437 0.098,-0.438 0.304,-1.301 0.407,-1.719 0.105,-0.429 0.102,-0.426 0.422,-1.719 0.105,-0.433 0.109,-0.43 0.106,-0.434 0.328,-1.312 0.328,-1.336 0.113,-0.453 0.11,-0.453 0.113,-0.461 0.109,-0.461 0.114,-0.469 0.117,-0.473 0.113,-0.48 0.113,-0.484 0.114,-0.493 0.117,-0.5 0.117,-0.507 0.117,-0.52 0.118,-0.527 0.117,-0.539 0.117,-0.547 0.117,-0.563 0.121,-0.578 0.121,-0.594 0.121,-0.613 0.121,-0.633 0.122,-0.652 0.121,-0.68 0.125,-0.711 0.121,-0.742 0.125,-0.785 0.125,-0.828 0.125,-0.883 0.125,-0.949 0.125,-1.035 0.129,-1.133 0.125,-1.27 0.129,-1.453 0.128,-1.719 0.129,-2.121 0.129,-2.851 0.133,-4.508 0.129,-13.977 0.133,11.356 0.133,5.105 0.132,2.727 0.133,1.824 0.133,1.344 0.137,1.043 0.133,0.84 0.136,0.691 0.137,0.582 0.137,0.492 0.136,0.418 0.141,0.364 0.137,0.308 0.14,0.27 0.141,0.234 0.141,0.199 0.14,0.172 0.145,0.149 0.14,0.125 0.145,0.101 0.145,0.086 0.144,0.07 0.148,0.055 0.145,0.039 0.148,0.024 0.145,0.015 0.148,0 0.149,-0.011 0.152,-0.02 0.149,-0.031 0.152,-0.039 0.152,-0.051 0.153,-0.059 0.152,-0.066 0.156,-0.074 0.153,-0.082 0.156,-0.09 0.156,-0.102 0.156,-0.105 0.157,-0.114 0.16,-0.125 0.156,-0.128 0.16,-0.137 0.16,-0.145 0.164,-0.152 0.161,-0.16 0.164,-0.168 0.164,-0.176 0.164,-0.187 0.164,-0.192 0.164,-0.203 0.168,-0.211 0.168,-0.219 0.168,-0.23 0.168,-0.242 0.168,-0.25 0.172,-0.266 0.171,-0.273 0.172,-0.289 0.172,-0.305 0.172,-0.317 0.176,-0.332 0.176,-0.351 0.175,-0.371 0.176,-0.395 0.176,-0.414 0.18,-0.445 0.179,-0.473 0.18,-0.504 0.18,-0.547 0.183,-0.589 0.184,-0.645 0.18,-0.707 0.187,-0.785 0.184,-0.879 0.187,-1.008 0.184,-1.172 0.187,-1.406 0.192,-1.754 0.187,-2.351 0.192,-3.567 0.191,-7.773 0.191,0.621 0.192,7.281 0.195,3.426 0.195,2.258 0.196,1.675 0.195,1.336 0.199,1.11 0.2,0.941 0.199,0.824 0.199,0.723 0.199,0.652 0.203,0.586 0.203,0.535 0.204,0.489 0.203,0.453 0.207,0.418 0.207,0.39 0.207,0.364 0.211,0.344 0.207,0.32 0.211,0.305 0.211,0.285 0.214,0.273 0.211,0.258 0.215,0.242 0.215,0.234 0.219,0.223 0.215,0.211 0.218,0.203 0.223,0.196 0.219,0.187 0.222,0.176 0.223,0.172 0.223,0.164 0.222,0.16 0.227,0.152 0.227,0.145 0.226,0.14 0.231,0.137 0.23,0.133 0.231,0.125 0.23,0.121 0.469,0.234 0.234,0.11 0.238,0.105 0.235,0.102 0.238,0.101 0.242,0.094 0.239,0.094 0.484,0.18 0.246,0.085 0.246,0.083 0.492,0.156 0.25,0.074 0.75,0.211 0.254,0.066 0.254,0.063 0.258,0.062 0.258,0.059 0.254,0.059 0.261,0.058 0.262,0.055 0.258,0.051 0.266,0.054 0.261,0.047 0.266,0.051 0.265,0.047 0.27,0.047 0.809,0.129 0.547,0.078 0.273,0.035 0.277,0.039 0.278,0.035 0.281,0.035 0.281,0.031 0.277,0.032 0.571,0.062 0.285,0.028 0.285,0.031 0.289,0.027 0.289,0.024 0.289,0.027 0.586,0.047 0.297,0.023 0.297,0.02 0.297,0.023 0.297,0.02 0.601,0.039 0.305,0.015 0.305,0.02 0.304,0.016 0.618,0.031 0.308,0.012 0.313,0.015 0.312,0.012 1.266,0.047 0.32,0.008 0.324,0.011 0.973,0.024 0.656,0.015 0.332,0.004 0.332,0.008 0.336,0.004 0.332,0.004 0.34,0.004 0.336,0.004 0.34,0.004 0.344,0 0.687,0.007 2.457,0 0.36,-0.003 0.359,0 0.359,-0.004 0.364,0 0.367,-0.004 0.363,-0.004 0.367,-0.004 1.113,-0.012 0.375,-0.008 0.379,-0.004 0.375,-0.003 0.383,-0.008 0.379,-0.008 0.387,-0.004 0.383,-0.008 0.386,-0.008 1.172,-0.023 0.395,-0.008 0.398,-0.008 0.395,-0.007 0.402,-0.012 0.399,-0.008 0.406,-0.012 0.402,-0.008 0.406,-0.011 0.41,-0.012 0.411,-0.008 0.828,-0.023 0.836,-0.024 1.265,-0.035 0.426,-0.012 0.43,-0.015 0.43,-0.012 0.433,-0.012 0.434,-0.015 0.437,-0.012 0.438,-0.016 0.441,-0.011 0.883,-0.032 0.449,-0.011 0.899,-0.031 0.906,-0.032 0.914,-0.031 0.465,-0.016 0.461,-0.015 0.464,-0.016 0.469,-0.015 0.469,-0.02 0.945,-0.031 0.477,-0.02 0.476,-0.015 0.481,-0.016 0.484,-0.02 0.485,-0.015 0.488,-0.02 0.488,-0.015 0.492,-0.02 0.496,-0.019 0.497,-0.016 0.496,-0.02 0.5,-0.019 0.504,-0.02 1.015,-0.039 0.508,-0.015 0.516,-0.02 0.511,-0.019 1.039,-0.039 0.524,-0.024 0.523,-0.019 1.055,-0.039 0.531,-0.02 0.535,-0.02 0.539,-0.023 1.079,-0.039 0.546,-0.023 1.094,-0.04 0.551,-0.023 0.555,-0.02 0.558,-0.023 0.559,-0.019 0.562,-0.024 0.567,-0.019 0.566,-0.024 0.57,-0.023 0.571,-0.02 0.578,-0.023 0.574,-0.024 0.582,-0.019 0.582,-0.024 0.586,-0.023 1.18,-0.047 0.594,-0.02 0.597,-0.023 1.203,-0.047 1.211,-0.047 1.227,-0.047 1.234,-0.046 0.621,-0.024 0.625,-0.023 1.258,-0.047 0.637,-0.024 0.637,-0.027 0.636,-0.023 1.289,-0.047 0.649,-0.024 0.652,-0.027 0.653,-0.024 0.66,-0.023 0.66,-0.027 1.328,-0.047 0.672,-0.028 0.672,-0.023 0.675,-0.023 0.68,-0.028 0.68,-0.023 0.687,-0.028 0.688,-0.023 0.691,-0.027 0.696,-0.024 0.699,-0.027 0.699,-0.024 0.703,-0.027 0.711,-0.023 0.711,-0.028 0.715,-0.023 0.715,-0.027 0.722,-0.028 0.723,-0.023 0.73,-0.028 0.731,-0.023 0.734,-0.027 1.477,-0.055 0.746,-0.023 0.746,-0.028 0.754,-0.027 0.754,-0.024 0.758,-0.027 0.761,-0.027 0.766,-0.028 0.77,-0.027 0.773,-0.023 1.555,-0.055 1.57,-0.055 1.586,-0.054 0.797,-0.024 0.801,-0.027 0.804,-0.028 1.625,-0.054 1.633,-0.055 0.828,-0.027 0.824,-0.028 0.832,-0.027 0.836,-0.027 0.84,-0.028 0.844,-0.027 0.848,-0.027 0.851,-0.028 0.856,-0.027 0.859,-0.027 1.727,-0.055 0.871,-0.031 0.875,-0.028 0.879,-0.027 0.882,-0.027" /><path
         id="path64"
         style="fill:none;stroke:#777777;stroke-width:0.80000001;stroke-linecap:square;stroke-linejoin:bevel;stroke-miterlimit:4;stroke-dasharray:none;stroke-opacity:1"
         d="m 124.32,181.254 0.008,0 0.008,-0.004 0.019,0 0.008,-0.004 0.012,0 0.008,-0.004 0.019,0 0.008,-0.004 0.012,0 0.008,-0.004 0.019,0 0.008,-0.004 0.012,0 0.008,-0.004 0.019,0 0.008,-0.004 0.012,0 0.007,-0.003 0.012,0 0.008,-0.004 0.012,0 0.011,-0.004 0.02,0 0.008,-0.004 0.011,0 0.008,-0.004 0.012,0 0.012,-0.004 0.008,0 0.011,-0.004 0.012,0 0.008,-0.004 0.012,0 0.011,-0.004 0.008,0 0.012,-0.004 0.011,0 0.012,-0.004 0.012,0 0.008,-0.003 0.011,0 0.012,-0.004 0.012,0 0.008,-0.004 0.011,0 0.012,-0.004 0.012,0 0.012,-0.004 0.011,0 0.012,-0.004 0.012,0 0.023,-0.008 0.012,0 0.012,-0.004 0.007,0 0.016,-0.004 0.012,0 0.023,-0.007 0.012,0 0.012,-0.004 0.011,0 0.012,-0.004 0.012,0 0.023,-0.008 0.016,0 0.012,-0.004 0.011,0 0.024,-0.008 0.015,0 0.012,-0.004 0.012,0 0.012,-0.004 0.015,-0.003 0.012,0 0.012,-0.004 0.015,-0.004 0.012,0 0.012,-0.004 0.015,-0.004 0.012,0 0.016,-0.004 0.011,-0.004 0.016,0 0.012,-0.004 0.015,-0.004 0.012,0 0.016,-0.004 0.011,-0.004 0.016,0 0.012,-0.003 0.015,-0.004 0.012,0 0.031,-0.008 0.012,0 0.031,-0.008 0.012,0 0.047,-0.012 0.012,0 0.031,-0.007 0.015,0 0.016,-0.004 0.012,-0.004 0.015,-0.004 0.016,0 0.031,-0.008 0.016,0 0.047,-0.012 0.015,0 0.047,-0.011 0.016,0 0.031,-0.008 0.02,-0.004 0.015,0 0.047,-0.012 0.02,0 0.031,-0.008 0.019,-0.004 0.016,0 0.016,-0.004 0.019,-0.003 0.032,-0.008 0.019,0 0.016,-0.004 0.019,-0.004 0.016,-0.004 0.019,0 0.016,-0.004 0.039,-0.008 0.016,0 0.019,-0.004 0.016,-0.003 0.019,-0.004 0.02,0 0.016,-0.004 0.058,-0.012 0.016,0 0.058,-0.012 0.02,0 0.058,-0.011 0.02,0 0.016,-0.004 0.023,-0.004 0.02,-0.004 0.019,0 0.059,-0.012 0.019,0 0.02,-0.004 0.023,-0.004 0.02,0 0.039,-0.008 0.023,-0.003 0.02,0 0.019,-0.004 0.024,-0.004 0.019,0 0.02,-0.004 0.023,-0.004 0.024,0 0.039,-0.008 0.023,0 0.024,-0.004 0.019,-0.004 0.024,0 0.019,-0.004 0.024,-0.003 0.023,0 0.023,-0.004 0.02,0 0.047,-0.008 0.023,0 0.024,-0.004 0.023,0 0.024,-0.004 0.023,0 0.02,-0.004 0.023,-0.004 0.027,0 0.02,-0.004 0.027,0 0.024,-0.004 0.023,0 0.024,-0.004 0.05,0 0.024,-0.003 0.023,0 0.024,-0.004 0.027,0 0.023,-0.004 0.051,0 0.024,-0.004 0.05,0 0.028,-0.004 0.051,0 0.027,-0.004 0.105,0 0.028,-0.004 0.16,0 0.027,-0.004 0.195,0 0.032,0.004 0.172,0 0.027,0.004 0.09,0 0.031,0.004 0.031,0 0.028,0.004 0.062,0 0.031,0.004 0.032,0 0.031,0.004 0.031,0 0.031,0.004 0.032,0 0.062,0.007 0.031,0 0.063,0.008 0.031,0 0.035,0.004 0.063,0.008 0.035,0.004 0.031,0.004 0.035,0 0.032,0.004 0.07,0.007 0.031,0.004 0.035,0.004 0.035,0.008 0.032,0.004 0.105,0.012 0.035,0.007 0.071,0.008 0.035,0.008 0.07,0.008 0.035,0.008 0.039,0.004 0.036,0.007 0.035,0.004 0.035,0.008 0.039,0.004 0.035,0.008 0.039,0.008 0.035,0.004 0.078,0.015 0.036,0.008 0.039,0.008 0.039,0.004 0.039,0.008 0.035,0.007 0.273,0.055 0.043,0.008 0.039,0.012 0.039,0.007 0.043,0.008 0.079,0.016 0.042,0.012 0.04,0.007 0.086,0.016 0.039,0.012 0.085,0.015 0.043,0.012 0.04,0.008 0.046,0.008 0.039,0.011 0.043,0.008 0.047,0.012 0.086,0.016 0.043,0.011 0.047,0.008 0.043,0.008 0.043,0.012 0.047,0.007 0.043,0.012 0.047,0.008 0.043,0.008 0.047,0.008 0.046,0.011 0.047,0.008 0.043,0.008 0.094,0.016 0.047,0.011 0.141,0.024 0.05,0.004 0.094,0.015 0.051,0.008 0.047,0.008 0.051,0.004 0.046,0.008 0.051,0.004 0.047,0.007 0.406,0.032 0.051,0 0.051,0.003 0.371,0 0.109,-0.007 0.055,0 0.109,-0.008 0.055,-0.008 0.055,-0.004 0.054,-0.008 0.055,-0.004 0.059,-0.007 0.054,-0.008 0.059,-0.008 0.055,-0.008 0.058,-0.008 0.055,-0.011 0.059,-0.008 0.293,-0.059 0.058,-0.015 0.059,-0.012 0.062,-0.016 0.059,-0.011 0.062,-0.016 0.059,-0.016 0.062,-0.015 0.059,-0.016 0.375,-0.094 0.063,-0.019 0.062,-0.016 0.066,-0.015 0.063,-0.016 0.066,-0.016 0.063,-0.015 0.133,-0.032 0.062,-0.015 0.133,-0.031 0.066,-0.012 0.067,-0.016 0.07,-0.012 0.133,-0.023 0.07,-0.012 0.067,-0.008 0.07,-0.011 0.066,-0.008 0.071,-0.004 0.07,-0.008 0.211,-0.011 0.141,0 0.074,0.003 0.14,0.008 0.223,0.024 0.07,0.011 0.223,0.047 0.078,0.02 0.149,0.047 0.078,0.023 0.074,0.027 0.078,0.028 0.078,0.031 0.074,0.031 0.157,0.063 0.078,0.035 0.082,0.035 0.156,0.07 0.082,0.032 0.078,0.031 0.082,0.031 0.082,0.024 0.164,0.039 0.082,0.007 0.082,0 0.082,-0.007 0.082,-0.02 0.086,-0.027 0.082,-0.047 0.086,-0.059 0.086,-0.078 0.082,-0.094 0.09,-0.109 0.086,-0.133 0.086,-0.148 0.086,-0.172 0.086,-0.188 0.09,-0.207 0.086,-0.226 0.09,-0.242 0.089,-0.258 0.09,-0.274 0.086,-0.281 0.094,-0.297 0.09,-0.304 0.09,-0.313 0.089,-0.316 0.188,-0.657 0.09,-0.332 0.187,-0.671 0.094,-0.34 0.094,-0.336 0.097,-0.34 0.188,-0.672 0.195,-0.672 0.196,-0.664 0.195,-0.656 0.098,-0.324 0.101,-0.321 0.098,-0.32 0.101,-0.32 0.102,-0.317 0.203,-0.625 0.102,-0.308 0.101,-0.305 0.102,-0.309 0.105,-0.3 0.102,-0.301 0.105,-0.301 0.106,-0.297 0.316,-0.879 0.109,-0.289 0.106,-0.289 0.219,-0.57 0.328,-0.844 0.109,-0.277 0.113,-0.278 0.11,-0.273 0.113,-0.273 0.109,-0.274 0.114,-0.273 0.117,-0.27 0.226,-0.539 0.114,-0.266 0.234,-0.531 0.117,-0.262 0.118,-0.265 0.234,-0.524 0.117,-0.257 0.121,-0.262 0.363,-0.774 0.122,-0.253 0.121,-0.258 0.125,-0.254 0.121,-0.254 0.25,-0.508 0.125,-0.25 0.125,-0.254 0.125,-0.25 0.129,-0.254 0.125,-0.25 0.515,-1 0.133,-0.246 0.129,-0.25 0.133,-0.246 0.133,-0.25 0.132,-0.246 0.133,-0.25 0.133,-0.246 0.137,-0.246 0.133,-0.246 0.136,-0.246 0.137,-0.25 0.273,-0.493 0.141,-0.246 0.137,-0.246 0.562,-0.984 0.145,-0.246 0.14,-0.246 0.145,-0.25 0.289,-0.492 0.148,-0.247 0.145,-0.25 0.148,-0.246 0.145,-0.246 0.148,-0.25 0.149,-0.246 0.152,-0.25 0.149,-0.25 0.609,-1 0.156,-0.25 0.153,-0.25 0.156,-0.254 0.156,-0.25 0.313,-0.508 0.16,-0.253 0.156,-0.254 0.16,-0.258 0.16,-0.254 0.164,-0.258 0.161,-0.258 0.164,-0.258 0.164,-0.261 0.164,-0.258 0.328,-0.524 0.168,-0.261 0.672,-1.063 0.515,-0.808 0.344,-0.547 0.176,-0.274 0.351,-0.554 0.352,-0.563 0.18,-0.281 0.359,-0.57 0.18,-0.289 0.183,-0.29 0.184,-0.292 0.18,-0.293 0.187,-0.297 0.184,-0.297 0.187,-0.301 0.184,-0.305 0.187,-0.308 0.192,-0.309 0.187,-0.312 0.192,-0.313 0.382,-0.64 0.192,-0.325 0.195,-0.328 0.195,-0.332 0.196,-0.336 0.195,-0.34 0.199,-0.343 0.2,-0.348 0.398,-0.711 0.199,-0.367 0.203,-0.367 0.203,-0.375 0.204,-0.383 0.203,-0.391 0.207,-0.394 0.207,-0.403 0.418,-0.836 0.207,-0.429 0.211,-0.442 0.211,-0.449 0.214,-0.465 0.211,-0.476 0.215,-0.493 0.215,-0.503 0.219,-0.524 0.215,-0.543 0.218,-0.566 0.223,-0.586 0.219,-0.613 0.222,-0.645 0.223,-0.68 0.223,-0.722 0.222,-0.766 0.227,-0.82 0.227,-0.891 0.226,-0.976 0.231,-1.079 0.23,-1.214 0.231,-1.403 0.23,-1.672 0.234,-2.089 0.235,-2.836 0.234,-4.575 0.238,-15.964 0.235,14.078 0.238,4.976 0.242,2.727 0.239,1.851 0.242,1.383 0.242,1.086 0.246,0.891 0.246,0.742 0.246,0.629 0.246,0.543 0.25,0.472 0.25,0.414 0.25,0.364 0.25,0.32 0.254,0.285 0.254,0.254 0.258,0.223 0.258,0.203 0.254,0.176 0.261,0.16 0.262,0.14 0.258,0.122 0.266,0.109 0.261,0.094 0.266,0.078 0.265,0.07 0.27,0.055 0.27,0.047 0.269,0.035 0.27,0.027 0.273,0.02 0.274,0.008 0.273,0 0.277,-0.004 0.278,-0.016 0.281,-0.02 0.281,-0.031 0.277,-0.035 0.286,-0.039 0.285,-0.051 0.285,-0.054 0.285,-0.059 0.289,-0.066 0.289,-0.071 0.289,-0.078 0.293,-0.086 0.293,-0.09 0.297,-0.093 0.297,-0.102 0.297,-0.105 0.297,-0.11 0.601,-0.242 0.305,-0.129 0.305,-0.133 0.304,-0.14 0.309,-0.149 0.309,-0.152 0.308,-0.16 0.313,-0.164 0.312,-0.172 0.317,-0.18 0.316,-0.187 0.316,-0.192 0.317,-0.203 0.32,-0.207 0.324,-0.219 0.325,-0.226 0.324,-0.235 0.324,-0.246 0.328,-0.254 0.328,-0.265 0.332,-0.278 0.332,-0.293 0.336,-0.304 0.332,-0.317 0.34,-0.336 L 196,110 l 0.34,-0.375 0.344,-0.391 0.343,-0.418 0.344,-0.441 0.348,-0.473 0.347,-0.504 0.348,-0.547 0.352,-0.589 0.355,-0.641 0.352,-0.707 0.355,-0.785 0.36,-0.883 0.359,-1.008 0.359,-1.176 0.364,-1.41 0.367,-1.769 0.363,-2.375 0.367,-3.629 0.371,-8.129 0.371,1.594 0.371,6.996 0.375,3.371 0.379,2.23 0.375,1.668 0.383,1.332 0.379,1.106 0.387,0.945 0.383,0.82 0.386,0.727 0.391,0.652 0.391,0.59 0.39,0.539 0.395,0.492 0.398,0.457 0.395,0.422 0.402,0.395 0.399,0.371 0.406,0.344 0.402,0.328 0.406,0.304 0.41,0.293 0.411,0.278 0.414,0.261 0.414,0.25 0.418,0.239 0.418,0.226 0.422,0.215 0.421,0.211 0.422,0.195 0.426,0.192 0.43,0.183 0.43,0.176 0.433,0.172 0.434,0.164 0.437,0.156 0.438,0.149 0.441,0.148 0.441,0.141 0.442,0.137 0.898,0.257 0.45,0.121 0.453,0.122 0.453,0.113 0.914,0.219 0.465,0.105 0.461,0.102 0.464,0.097 0.938,0.188 0.473,0.09 0.472,0.086 0.953,0.164 0.481,0.082 0.969,0.148 0.488,0.074 0.488,0.071 0.492,0.07 0.496,0.066 0.993,0.125 0.5,0.063 0.504,0.058 0.507,0.059 1.016,0.109 0.516,0.051 0.511,0.051 1.039,0.102 0.524,0.046 0.523,0.043 0.528,0.047 0.527,0.043 0.531,0.039 0.535,0.043 1.079,0.078 0.539,0.036 1.64,0.105 0.551,0.031 0.555,0.035 0.558,0.028 0.559,0.031 0.562,0.027 0.567,0.032 0.566,0.027 0.57,0.023 0.571,0.028 0.578,0.023 0.574,0.024 0.582,0.023 0.582,0.02 0.586,0.023 1.18,0.039 0.594,0.02 0.597,0.019 0.602,0.016 0.601,0.019 1.211,0.032 0.614,0.015 0.613,0.012 0.617,0.015 0.617,0.012 0.621,0.012 0.625,0.012 1.258,0.023 0.637,0.012 1.273,0.015 0.645,0.012 0.644,0.008 0.649,0.004 1.305,0.015 0.66,0.004 0.66,0.008 1.328,0.008 1.344,0.008 0.675,0.004 0.68,0.004 0.68,0 0.687,0.004 0.688,0 0.691,0.003 2.797,0 0.711,-0.003 1.426,0 0.715,-0.004 0.722,-0.004 0.723,0 1.461,-0.008 0.734,-0.004 1.477,-0.008 0.746,-0.004 0.746,-0.008 1.508,-0.007 0.758,-0.008 0.761,-0.004 0.766,-0.008 0.77,-0.008 0.773,-0.007 0.777,-0.004 0.778,-0.008 0.785,-0.012 0.785,-0.008 1.586,-0.015 0.797,-0.008 0.801,-0.012 0.804,-0.008 0.813,-0.011 0.812,-0.008 0.817,-0.012 0.816,-0.008 0.828,-0.011 0.824,-0.012 0.832,-0.012 0.836,-0.012 0.84,-0.011 0.844,-0.012 0.848,-0.012 0.851,-0.012 0.856,-0.011 0.859,-0.016 1.727,-0.023 0.871,-0.016 0.875,-0.012 0.879,-0.015 0.882,-0.012" /><path
         id="path66"
         style="fill:#000000;fill-opacity:1;fill-rule:nonzero;stroke:none"
         d="m 124.059,52.066 c 0,2.36 -0.75,3.531 -2.219,3.531 -1.469,0 -2.235,-1.187 -2.235,-3.468 0,-2.297 0.782,-3.469 2.235,-3.469 1.437,0 2.219,1.172 2.219,3.406 z m -0.86,0.078 c 0,-1.922 -0.437,-2.781 -1.375,-2.781 -0.89,0 -1.344,0.891 -1.344,2.75 0,1.875 0.454,2.734 1.36,2.734 0.906,0 1.359,-0.875 1.359,-2.703 z" /><path
         id="path68"
         style="fill:#000000;fill-opacity:1;fill-rule:nonzero;stroke:none"
         d="m 155.305,53.613 c 0,1.141 -0.891,1.984 -2.188,1.984 -1.39,0 -2.187,-0.703 -2.234,-2.359 l 0.844,0 c 0.062,1.141 0.531,1.625 1.375,1.625 0.765,0 1.328,-0.547 1.328,-1.281 0,-0.531 -0.313,-0.985 -0.907,-1.344 l -0.89,-0.5 c -1.422,-0.797 -1.828,-1.437 -1.906,-2.937 l 4.531,0 0,0.828 -3.578,0 c 0.078,0.562 0.39,0.922 1.218,1.406 l 0.969,0.516 c 0.938,0.515 1.438,1.218 1.438,2.062 z" /><path
         id="path70"
         style="fill:#000000;fill-opacity:1;fill-rule:nonzero;stroke:none"
         d="m 160.66,51.082 c 0,0.734 -0.062,1.187 -0.203,1.562 -0.328,0.828 -1.094,1.328 -2.031,1.328 -1.406,0 -2.297,-1.031 -2.297,-2.687 0,-1.656 0.859,-2.625 2.281,-2.625 1.141,0 1.938,0.656 2.141,1.672 l -0.797,0 c -0.219,-0.672 -0.672,-0.938 -1.313,-0.938 -0.843,0 -1.468,0.532 -1.484,1.688 l 3.703,0 z m -0.859,0.719 c 0,0 0,-0.047 0,-0.063 l -2.828,0 c 0.078,0.891 0.64,1.5 1.437,1.5 0.797,0 1.391,-0.656 1.391,-1.437 z" /><path
         id="path72"
         style="fill:#000000;fill-opacity:1;fill-rule:nonzero;stroke:none"
         d="m 165.965,52.363 c 0,2.125 -0.75,3.234 -2.297,3.234 -1.297,0 -2.234,-0.921 -2.234,-2.25 0,-1.265 0.875,-2.125 2.093,-2.125 0.641,0 1.11,0.235 1.563,0.766 -0.016,-1.656 -0.547,-2.578 -1.516,-2.578 -0.594,0 -1.015,0.375 -1.14,1.016 l -0.844,0 c 0.156,-1.11 0.89,-1.766 1.922,-1.766 1.593,0 2.453,1.344 2.453,3.703 z m -0.922,1 c 0,-0.828 -0.594,-1.391 -1.422,-1.391 -0.812,0 -1.312,0.532 -1.312,1.438 0,0.875 0.562,1.453 1.343,1.453 0.797,0 1.391,-0.609 1.391,-1.5 z" /><path
         id="path74"
         style="fill:#000000;fill-opacity:1;fill-rule:nonzero;stroke:none"
         d="m 193.785,50.426 0,0.765 -1,0 0,4.406 -0.625,0 -3.094,-4.281 0,-0.89 2.875,0 0,-1.625 0.844,0 0,1.625 1,0 z m -1.844,0.765 -2.14,0 2.14,2.969 0,-2.969 z" /><path
         id="path76"
         style="fill:#000000;fill-opacity:1;fill-rule:nonzero;stroke:none"
         d="m 199.059,51.082 c 0,0.734 -0.063,1.187 -0.204,1.562 -0.328,0.828 -1.093,1.328 -2.031,1.328 -1.406,0 -2.297,-1.031 -2.297,-2.687 0,-1.656 0.86,-2.625 2.282,-2.625 1.14,0 1.937,0.656 2.14,1.672 l -0.797,0 c -0.218,-0.672 -0.672,-0.938 -1.312,-0.938 -0.844,0 -1.469,0.532 -1.485,1.688 l 3.704,0 z m -0.86,0.719 c 0,0 0,-0.047 0,-0.063 l -2.828,0 c 0.078,0.891 0.641,1.5 1.438,1.5 0.796,0 1.39,-0.656 1.39,-1.437 z" /><path
         id="path78"
         style="fill:#000000;fill-opacity:1;fill-rule:nonzero;stroke:none"
         d="m 204.367,52.363 c 0,2.125 -0.75,3.234 -2.297,3.234 -1.297,0 -2.234,-0.921 -2.234,-2.25 0,-1.265 0.875,-2.125 2.094,-2.125 0.64,0 1.109,0.235 1.562,0.766 -0.015,-1.656 -0.547,-2.578 -1.515,-2.578 -0.594,0 -1.016,0.375 -1.141,1.016 l -0.844,0 c 0.156,-1.11 0.891,-1.766 1.922,-1.766 1.594,0 2.453,1.344 2.453,3.703 z m -0.922,1 c 0,-0.828 -0.593,-1.391 -1.422,-1.391 -0.812,0 -1.312,0.532 -1.312,1.438 0,0.875 0.562,1.453 1.344,1.453 0.797,0 1.39,-0.609 1.39,-1.5 z" /><path
         id="path80"
         style="fill:#000000;fill-opacity:1;fill-rule:nonzero;stroke:none"
         d="m 232.121,50.91 c 0,1.266 -0.859,2.125 -2.078,2.125 -0.672,0 -1.203,-0.266 -1.563,-0.766 0,1.657 0.547,2.578 1.516,2.578 0.594,0 1,-0.375 1.141,-1.015 l 0.843,0 c -0.171,1.109 -0.89,1.765 -1.937,1.765 -1.578,0 -2.438,-1.328 -2.438,-3.703 0,-2.109 0.735,-3.234 2.297,-3.234 1.282,0 2.219,0.922 2.219,2.25 z m -0.859,-0.063 c 0,-0.859 -0.578,-1.437 -1.36,-1.437 -0.781,0 -1.375,0.609 -1.375,1.484 0,0.844 0.578,1.391 1.407,1.391 0.812,0 1.328,-0.531 1.328,-1.438 z" /><path
         id="path82"
         style="fill:#000000;fill-opacity:1;fill-rule:nonzero;stroke:none"
         d="m 237.461,51.082 c 0,0.734 -0.063,1.187 -0.203,1.562 -0.328,0.828 -1.094,1.328 -2.031,1.328 -1.407,0 -2.297,-1.031 -2.297,-2.687 0,-1.656 0.859,-2.625 2.281,-2.625 1.141,0 1.937,0.656 2.141,1.672 l -0.797,0 c -0.219,-0.672 -0.672,-0.938 -1.313,-0.938 -0.844,0 -1.469,0.532 -1.484,1.688 l 3.703,0 z m -0.859,0.719 c 0,0 0,-0.047 0,-0.063 l -2.829,0 c 0.079,0.891 0.641,1.5 1.438,1.5 0.797,0 1.391,-0.656 1.391,-1.437 z" /><path
         id="path84"
         style="fill:#000000;fill-opacity:1;fill-rule:nonzero;stroke:none"
         d="m 242.766,52.363 c 0,2.125 -0.75,3.234 -2.297,3.234 -1.297,0 -2.235,-0.921 -2.235,-2.25 0,-1.265 0.875,-2.125 2.094,-2.125 0.641,0 1.11,0.235 1.563,0.766 -0.016,-1.656 -0.547,-2.578 -1.516,-2.578 -0.594,0 -1.016,0.375 -1.141,1.016 l -0.843,0 c 0.156,-1.11 0.89,-1.766 1.921,-1.766 1.594,0 2.454,1.344 2.454,3.703 z m -0.922,1 c 0,-0.828 -0.594,-1.391 -1.422,-1.391 -0.813,0 -1.313,0.532 -1.313,1.438 0,0.875 0.563,1.453 1.344,1.453 0.797,0 1.391,-0.609 1.391,-1.5 z" /><path
         id="path86"
         style="fill:#000000;fill-opacity:1;fill-rule:nonzero;stroke:none"
         d="m 270.523,50.722 c 0,0.75 -0.39,1.282 -1.171,1.657 0.703,0.422 0.937,0.765 0.937,1.406 0,1.062 -0.844,1.812 -2.047,1.812 -1.203,0 -2.047,-0.75 -2.047,-1.812 0,-0.625 0.235,-0.969 0.922,-1.406 -0.781,-0.375 -1.156,-0.907 -1.156,-1.657 0,-1.234 0.937,-2.062 2.281,-2.062 1.344,0 2.281,0.828 2.281,2.062 z m -1.109,3.047 c 0,-0.625 -0.469,-1.047 -1.172,-1.047 -0.719,0 -1.187,0.422 -1.187,1.063 0,0.641 0.468,1.062 1.187,1.062 0.719,0 1.172,-0.421 1.172,-1.078 z m 0.25,-3.062 c 0,-0.797 -0.578,-1.297 -1.437,-1.297 -0.829,0 -1.407,0.5 -1.407,1.297 0,0.797 0.578,1.297 1.422,1.297 0.844,0 1.422,-0.5 1.422,-1.297 z" /><path
         id="path88"
         style="fill:#000000;fill-opacity:1;fill-rule:nonzero;stroke:none"
         d="m 275.859,51.082 c 0,0.734 -0.062,1.187 -0.203,1.562 -0.328,0.828 -1.094,1.328 -2.031,1.328 -1.406,0 -2.297,-1.031 -2.297,-2.687 0,-1.656 0.86,-2.625 2.281,-2.625 1.141,0 1.938,0.656 2.141,1.672 l -0.797,0 c -0.219,-0.672 -0.672,-0.938 -1.312,-0.938 -0.844,0 -1.469,0.532 -1.485,1.688 l 3.703,0 z M 275,51.801 c 0,0 0,-0.047 0,-0.063 l -2.828,0 c 0.078,0.891 0.64,1.5 1.437,1.5 0.797,0 1.391,-0.656 1.391,-1.437 z" /><path
         id="path90"
         style="fill:#000000;fill-opacity:1;fill-rule:nonzero;stroke:none"
         d="m 281.164,52.363 c 0,2.125 -0.75,3.234 -2.297,3.234 -1.297,0 -2.234,-0.921 -2.234,-2.25 0,-1.265 0.875,-2.125 2.094,-2.125 0.64,0 1.109,0.235 1.562,0.766 -0.016,-1.656 -0.547,-2.578 -1.516,-2.578 -0.593,0 -1.015,0.375 -1.14,1.016 l -0.844,0 c 0.156,-1.11 0.891,-1.766 1.922,-1.766 1.594,0 2.453,1.344 2.453,3.703 z m -0.922,1 c 0,-0.828 -0.594,-1.391 -1.422,-1.391 -0.812,0 -1.312,0.532 -1.312,1.438 0,0.875 0.562,1.453 1.344,1.453 0.796,0 1.39,-0.609 1.39,-1.5 z" /><path
         id="path92"
         style="fill:#000000;fill-opacity:1;fill-rule:nonzero;stroke:none"
         d="m 303.328,48.801 0,6.796 -0.562,0 c -0.297,-1.046 -0.485,-1.187 -1.782,-1.343 l 0,-0.61 1.5,0 0,-4.843 0.844,0 z" /><path
         id="path94"
         style="fill:#000000;fill-opacity:1;fill-rule:nonzero;stroke:none"
         d="m 310.258,51.082 c 0,0.734 -0.063,1.187 -0.203,1.562 -0.328,0.828 -1.094,1.328 -2.032,1.328 -1.406,0 -2.296,-1.031 -2.296,-2.687 0,-1.656 0.859,-2.625 2.281,-2.625 1.14,0 1.937,0.656 2.14,1.672 l -0.796,0 c -0.219,-0.672 -0.672,-0.938 -1.313,-0.938 -0.844,0 -1.469,0.532 -1.484,1.688 l 3.703,0 z m -0.86,0.719 c 0,0 0,-0.047 0,-0.063 l -2.828,0 c 0.078,0.891 0.641,1.5 1.438,1.5 0.797,0 1.39,-0.656 1.39,-1.437 z" /><path
         id="path96"
         style="fill:#000000;fill-opacity:1;fill-rule:nonzero;stroke:none"
         d="m 314.004,48.801 0,6.796 -0.563,0 c -0.296,-1.046 -0.484,-1.187 -1.781,-1.343 l 0,-0.61 1.5,0 0,-4.843 0.844,0 z" /><path
         id="path98"
         style="fill:#000000;fill-opacity:1;fill-rule:nonzero;stroke:none"
         d="m 320.871,52.066 c 0,2.36 -0.75,3.531 -2.219,3.531 -1.468,0 -2.234,-1.187 -2.234,-3.468 0,-2.297 0.781,-3.469 2.234,-3.469 1.438,0 2.219,1.172 2.219,3.406 z m -0.859,0.078 c 0,-1.922 -0.438,-2.781 -1.375,-2.781 -0.891,0 -1.344,0.891 -1.344,2.75 0,1.875 0.453,2.734 1.359,2.734 0.907,0 1.36,-0.875 1.36,-2.703 z" /><path
         id="path100"
         style="fill:#000000;fill-opacity:1;fill-rule:nonzero;stroke:none"
         d="m 91.637,61.398 2.281,0 0,-0.703 -2.281,0 0,0.703 z" /><path
         id="path102"
         style="fill:#000000;fill-opacity:1;fill-rule:nonzero;stroke:none"
         d="m 97.727,58.398 0,6.797 -0.563,0 C 96.867,64.148 96.68,64.008 95.383,63.851 l 0,-0.609 1.5,0 0,-4.844 0.844,0 z" /><path
         id="path104"
         style="fill:#000000;fill-opacity:1;fill-rule:nonzero;stroke:none"
         d="m 104.656,60.648 c 0,1.344 -0.89,2.235 -2.203,2.235 -0.469,0 -0.859,-0.125 -1.25,-0.422 l 0.266,1.765 2.828,0 0,0.828 -3.5,0 -0.516,-3.562 0.781,0 c 0.391,0.469 0.719,0.641 1.25,0.641 0.907,0 1.485,-0.594 1.485,-1.594 0,-0.985 -0.578,-1.531 -1.485,-1.531 -0.75,0 -1.203,0.375 -1.39,1.14 l -0.86,0 c 0.282,-1.359 1.047,-1.89 2.266,-1.89 1.375,0 2.328,0.953 2.328,2.39 z" /><path
         id="path106"
         style="fill:#000000;fill-opacity:1;fill-rule:nonzero;stroke:none"
         d="m 109.93,61.664 c 0,2.359 -0.75,3.531 -2.219,3.531 -1.469,0 -2.234,-1.187 -2.234,-3.469 0,-2.297 0.781,-3.468 2.234,-3.468 1.437,0 2.219,1.171 2.219,3.406 z m -0.86,0.078 c 0,-1.922 -0.437,-2.781 -1.375,-2.781 -0.89,0 -1.343,0.89 -1.343,2.75 0,1.875 0.453,2.734 1.359,2.734 0.906,0 1.359,-0.875 1.359,-2.703 z" /><path
         id="path108"
         style="fill:#000000;fill-opacity:1;fill-rule:nonzero;stroke:none"
         d="m 91.637,100.597 2.281,0 0,-0.703 -2.281,0 0,0.703 z" /><path
         id="path110"
         style="fill:#000000;fill-opacity:1;fill-rule:nonzero;stroke:none"
         d="m 97.727,97.597 0,6.797 -0.563,0 c -0.297,-1.047 -0.484,-1.187 -1.781,-1.343 l 0,-0.61 1.5,0 0,-4.844 0.844,0 z" /><path
         id="path112"
         style="fill:#000000;fill-opacity:1;fill-rule:nonzero;stroke:none"
         d="m 104.594,100.863 c 0,2.359 -0.75,3.531 -2.219,3.531 -1.469,0 -2.234,-1.187 -2.234,-3.468 0,-2.297 0.781,-3.469 2.234,-3.469 1.437,0 2.219,1.172 2.219,3.406 z m -0.86,0.078 c 0,-1.922 -0.437,-2.781 -1.375,-2.781 -0.89,0 -1.343,0.891 -1.343,2.75 0,1.875 0.453,2.734 1.359,2.734 0.906,0 1.359,-0.875 1.359,-2.703 z" /><path
         id="path114"
         style="fill:#000000;fill-opacity:1;fill-rule:nonzero;stroke:none"
         d="m 109.93,100.863 c 0,2.359 -0.75,3.531 -2.219,3.531 -1.469,0 -2.234,-1.187 -2.234,-3.468 0,-2.297 0.781,-3.469 2.234,-3.469 1.437,0 2.219,1.172 2.219,3.406 z m -0.86,0.078 c 0,-1.922 -0.437,-2.781 -1.375,-2.781 -0.89,0 -1.343,0.891 -1.343,2.75 0,1.875 0.453,2.734 1.359,2.734 0.906,0 1.359,-0.875 1.359,-2.703 z" /><path
         id="path116"
         style="fill:#000000;fill-opacity:1;fill-rule:nonzero;stroke:none"
         d="m 98.836,140.597 2.281,0 0,-0.703 -2.281,0 0,0.703 z" /><path
         id="path118"
         style="fill:#000000;fill-opacity:1;fill-rule:nonzero;stroke:none"
         d="m 106.52,139.847 c 0,1.344 -0.891,2.235 -2.204,2.235 -0.468,0 -0.859,-0.125 -1.25,-0.422 l 0.266,1.766 2.828,0 0,0.828 -3.5,0 -0.515,-3.563 0.781,0 c 0.39,0.469 0.719,0.641 1.25,0.641 0.906,0 1.484,-0.594 1.484,-1.594 0,-0.984 -0.578,-1.531 -1.484,-1.531 -0.75,0 -1.203,0.375 -1.391,1.14 l -0.859,0 c 0.281,-1.359 1.047,-1.89 2.265,-1.89 1.375,0 2.329,0.953 2.329,2.39 z" /><path
         id="path120"
         style="fill:#000000;fill-opacity:1;fill-rule:nonzero;stroke:none"
         d="m 111.793,140.863 c 0,2.359 -0.75,3.531 -2.219,3.531 -1.469,0 -2.234,-1.187 -2.234,-3.468 0,-2.297 0.781,-3.469 2.234,-3.469 1.438,0 2.219,1.172 2.219,3.406 z m -0.859,0.078 c 0,-1.922 -0.438,-2.781 -1.375,-2.781 -0.891,0 -1.344,0.891 -1.344,2.75 0,1.875 0.453,2.734 1.359,2.734 0.906,0 1.36,-0.875 1.36,-2.703 z" /><path
         id="path122"
         style="fill:#000000;fill-opacity:1;fill-rule:nonzero;stroke:none"
         d="m 114.461,180.066 c 0,2.36 -0.75,3.531 -2.219,3.531 -1.469,0 -2.234,-1.187 -2.234,-3.468 0,-2.297 0.781,-3.469 2.234,-3.469 1.438,0 2.219,1.172 2.219,3.406 z m -0.859,0.078 c 0,-1.922 -0.438,-2.781 -1.375,-2.781 -0.891,0 -1.344,0.891 -1.344,2.75 0,1.875 0.453,2.734 1.359,2.734 0.906,0 1.36,-0.875 1.36,-2.703 z" /><path
         id="path124"
         style="fill:#000000;fill-opacity:1;fill-rule:nonzero;stroke:none"
         d="m 179.961,36.601 0,0.797 -4.703,0 0,-7 0.89,0 0,3.188 3.344,0 0,0.781 -3.344,0 0,2.234 3.813,0 z" /><path
         id="path126"
         style="fill:#000000;fill-opacity:1;fill-rule:nonzero;stroke:none"
         d="m 183.008,34.726 0,0.813 c -0.141,0.015 -0.203,0.031 -0.313,0.031 -0.515,0 -0.906,-0.312 -1.359,-1.062 l 0,0.921 -0.734,0 0,-5.031 0.796,0 0,2.61 c 0,1.125 0.375,1.703 1.61,1.718 z" /><path
         id="path128"
         style="fill:#000000;fill-opacity:1;fill-rule:nonzero;stroke:none"
         d="m 187.961,32.679 c 0,0.735 -0.063,1.188 -0.203,1.563 -0.328,0.828 -1.094,1.328 -2.031,1.328 -1.407,0 -2.297,-1.031 -2.297,-2.687 0,-1.657 0.859,-2.625 2.281,-2.625 1.141,0 1.937,0.656 2.141,1.671 l -0.797,0 c -0.219,-0.671 -0.672,-0.937 -1.313,-0.937 -0.844,0 -1.469,0.531 -1.484,1.687 l 3.703,0 z m -0.859,0.719 c 0,0 0,-0.047 0,-0.062 l -2.829,0 c 0.079,0.89 0.641,1.5 1.438,1.5 0.797,0 1.391,-0.657 1.391,-1.438 z m 0.343,4 -1.093,0 -0.922,-1.422 0.578,0 1.437,1.422 z" /><path
         id="path130"
         style="fill:#000000;fill-opacity:1;fill-rule:nonzero;stroke:none"
         d="m 193.129,28.304 0,7.125 -0.719,0 0,-0.671 c -0.359,0.531 -0.937,0.812 -1.594,0.812 -1.328,0 -2.187,-1.047 -2.187,-2.719 0,-1.625 0.828,-2.593 2.141,-2.593 0.703,0 1.187,0.25 1.562,0.796 l 0,-2.75 0.797,0 z m -0.797,4.579 c 0,-1.157 -0.562,-1.875 -1.406,-1.875 -0.875,0 -1.469,0.734 -1.469,1.906 0,1.156 0.594,1.906 1.469,1.906 0.859,0 1.406,-0.766 1.406,-1.937 z" /><path
         id="path132"
         style="fill:#000000;fill-opacity:1;fill-rule:nonzero;stroke:none"
         d="m 198.418,30.398 0,5.031 -0.797,0 0,-2.781 c 0,-1.015 -0.531,-1.687 -1.375,-1.687 -0.625,0 -1.031,0.375 -1.031,0.984 l 0,3.484 -0.797,0 0,-3.796 c 0,-0.844 0.625,-1.375 1.594,-1.375 0.75,0 1.218,0.25 1.687,0.921 l 0,-0.781 0.719,0 z" /><path
         id="path134"
         style="fill:#000000;fill-opacity:1;fill-rule:nonzero;stroke:none"
         d="m 204.051,32.679 c 0,0.735 -0.063,1.188 -0.203,1.563 -0.328,0.828 -1.094,1.328 -2.032,1.328 -1.406,0 -2.296,-1.031 -2.296,-2.687 0,-1.657 0.859,-2.625 2.281,-2.625 1.14,0 1.937,0.656 2.14,1.671 l -0.796,0 c -0.219,-0.671 -0.672,-0.937 -1.313,-0.937 -0.844,0 -1.469,0.531 -1.484,1.687 l 3.703,0 z m -0.86,0.719 c 0,0 0,-0.047 0,-0.062 l -2.828,0 c 0.078,0.89 0.641,1.5 1.438,1.5 0.797,0 1.39,-0.657 1.39,-1.438 z" /><path
         id="path136"
         style="fill:#000000;fill-opacity:1;fill-rule:nonzero;stroke:none"
         d="m 209.141,30.398 0,3.797 c 0,0.844 -0.625,1.375 -1.594,1.375 -0.75,0 -1.219,-0.281 -1.672,-0.984 l 0,0.843 -0.734,0 0,-5.031 0.797,0 0,2.766 c 0,1.031 0.562,1.703 1.374,1.703 0.626,0 1.032,-0.375 1.032,-0.984 l 0,-3.485 0.797,0 z" /><path
         id="path138"
         style="fill:#000000;fill-opacity:1;fill-rule:nonzero;stroke:none"
         d="m 214.383,32.133 -0.813,0 c -0.125,-0.813 -0.547,-1.141 -1.218,-1.141 -0.891,0 -1.422,0.687 -1.422,1.875 0,1.25 0.531,1.969 1.39,1.969 0.672,0 1.094,-0.407 1.203,-1.094 l 0.797,0 c -0.093,1.219 -0.859,1.828 -1.984,1.828 -1.344,0 -2.234,-1.031 -2.234,-2.703 0,-1.625 0.859,-2.609 2.218,-2.609 1.203,0 1.969,0.718 2.063,1.875 z" /><path
         id="path140"
         style="fill:#000000;fill-opacity:1;fill-rule:nonzero;stroke:none"
         d="m 219.527,32.679 c 0,0.735 -0.062,1.188 -0.203,1.563 -0.328,0.828 -1.094,1.328 -2.031,1.328 -1.406,0 -2.297,-1.031 -2.297,-2.687 0,-1.657 0.859,-2.625 2.281,-2.625 1.141,0 1.938,0.656 2.141,1.671 l -0.797,0 c -0.219,-0.671 -0.672,-0.937 -1.312,-0.937 -0.844,0 -1.469,0.531 -1.485,1.687 l 3.703,0 z m -0.859,0.719 c 0,0 0,-0.047 0,-0.062 l -2.828,0 c 0.078,0.89 0.64,1.5 1.437,1.5 0.797,0 1.391,-0.657 1.391,-1.438 z" /><path
         id="path142"
         style="fill:#000000;fill-opacity:1;fill-rule:nonzero;stroke:none"
         d="m 225.406,28.367 c -0.844,1.375 -1.312,2.984 -1.312,4.516 0,1.531 0.468,3.14 1.312,4.515 l -0.531,0 c -0.953,-1.265 -1.563,-3.015 -1.563,-4.515 0,-1.516 0.61,-3.266 1.563,-4.516 l 0.531,0 z" /><path
         id="path144"
         style="fill:#000000;fill-opacity:1;fill-rule:nonzero;stroke:none"
         d="m 232.008,30.398 0,7 -0.891,0 0,-3.031 -3.594,0 0,3.031 -0.89,0 0,-7 0.89,0 0,3.188 3.594,0 0,-3.188 0.891,0 z" /><path
         id="path146"
         style="fill:#000000;fill-opacity:1;fill-rule:nonzero;stroke:none"
         d="m 237.16,30.398 0,0.703 -3.125,0 2.985,3.61 0,0.718 -3.75,0 0,-0.703 2.796,0 -3,-3.609 0,-0.719 4.094,0 z" /><path
         id="path148"
         style="fill:#000000;fill-opacity:1;fill-rule:nonzero;stroke:none"
         d="m 240.02,32.867 c 0,1.516 -0.594,3.266 -1.563,4.531 l -0.531,0 c 0.844,-1.375 1.312,-2.984 1.312,-4.531 0,-1.516 -0.468,-3.141 -1.312,-4.5 l 0.531,0 c 0.969,1.25 1.563,3 1.563,4.5 z" /><path
         id="path150"
         style="fill:#00ff00;fill-opacity:1;fill-rule:nonzero;stroke:none"
         d="m 83.055,93.699 0,-0.922 c 1.312,-0.219 1.937,-0.765 1.937,-1.953 0,-1.391 -1.062,-2.266 -2.812,-2.266 -1.797,0 -2.953,0.844 -2.953,2.188 0,1.094 0.484,1.672 1.546,1.891 l 0,0.906 c -1.531,-0.266 -2.343,-1.156 -2.343,-2.688 0,-2.125 1.718,-3.203 3.75,-3.203 2.047,0 3.593,1.11 3.593,3.156 0,1.719 -0.906,2.672 -2.718,2.891 z" /><path
         id="path152"
         style="fill:#00ff00;fill-opacity:1;fill-rule:nonzero;stroke:none"
         d="m 85.586,99.254 -0.609,0 c 0.015,-0.078 0.015,-0.11 0.015,-0.172 0,-0.266 -0.14,-0.422 -0.39,-0.422 l -2.797,0 c -0.891,0 -1.375,-0.656 -1.375,-1.891 0,-1.218 0.468,-1.968 1.625,-2.015 l 0,0.797 c -0.61,0.078 -0.891,0.437 -0.891,1.187 0,0.719 0.281,1.125 0.75,1.125 l 0.219,0 c 0.328,0 0.469,-0.203 0.547,-0.844 0.156,-1.125 0.187,-1.297 0.312,-1.609 0.235,-0.578 0.688,-0.875 1.297,-0.875 0.922,0 1.453,0.625 1.453,1.641 0,0.656 -0.265,1.265 -0.734,1.718 0.375,0.078 0.656,0.422 0.656,0.813 0,0.172 -0.016,0.297 -0.078,0.547 z m -1.719,-1.391 c 0.719,0 1.172,-0.734 1.172,-1.516 0,-0.609 -0.219,-0.984 -0.766,-0.984 -0.531,0 -0.75,0.359 -0.875,1.219 -0.125,0.844 -0.156,1.015 -0.281,1.281 l 0.75,0 z" /><path
         id="path154"
         style="fill:#00ff00;fill-opacity:1;fill-rule:nonzero;stroke:none"
         d="m 85.602,104.094 -5.032,0 0,-0.797 2.782,0 c 1.015,0 1.687,-0.532 1.687,-1.375 0,-0.625 -0.375,-1.032 -0.984,-1.032 l -3.485,0 0,-0.796 3.797,0 c 0.844,0 1.375,0.625 1.375,1.593 0,0.75 -0.25,1.219 -0.922,1.688 l 0.782,0 0,0.719 z" /><path
         id="path156"
         style="fill:#00ff00;fill-opacity:1;fill-rule:nonzero;stroke:none"
         d="m 83.32,109.726 c -0.734,0 -1.187,-0.062 -1.562,-0.203 -0.828,-0.328 -1.328,-1.094 -1.328,-2.031 0,-1.406 1.031,-2.297 2.687,-2.297 1.656,0 2.625,0.859 2.625,2.281 0,1.141 -0.656,1.938 -1.672,2.141 l 0,-0.797 c 0.672,-0.219 0.938,-0.672 0.938,-1.312 0,-0.844 -0.531,-1.469 -1.688,-1.485 l 0,3.703 z m -0.718,-0.859 c 0,0 0.046,0 0.062,0 l 0,-2.828 c -0.891,0.078 -1.5,0.64 -1.5,1.437 0,0.797 0.656,1.391 1.438,1.391 z" /><path
         id="path158"
         style="fill:#00ff00;fill-opacity:1;fill-rule:nonzero;stroke:none"
         d="m 81.273,113.25 -0.812,0 c -0.016,-0.141 -0.031,-0.203 -0.031,-0.313 0,-0.515 0.312,-0.906 1.062,-1.359 l -0.922,0 0,-0.734 5.032,0 0,0.796 -2.61,0 c -1.125,0 -1.703,0.375 -1.719,1.61 z" /><path
         id="path160"
         style="fill:#00ff00;fill-opacity:1;fill-rule:nonzero;stroke:none"
         d="m 86.82,118.914 0.484,0 0,-5.766 -0.484,0 0,5.766 z" /><path
         id="path162"
         style="fill:#00ff00;fill-opacity:1;fill-rule:nonzero;stroke:none"
         d="m 85.602,123.457 -7,0 0,-0.797 2.609,0 c -0.516,-0.344 -0.781,-0.875 -0.781,-1.547 0,-1.297 1.015,-2.156 2.609,-2.156 1.703,0 2.703,0.828 2.703,2.187 0,0.688 -0.25,1.172 -0.875,1.594 l 0.735,0 0,0.719 z m -2.5,-0.797 c 1.171,0 1.89,-0.563 1.89,-1.406 0,-0.875 -0.734,-1.469 -1.906,-1.469 -1.172,0 -1.906,0.594 -1.906,1.469 0,0.859 0.765,1.406 1.922,1.406 z" /><path
         id="path164"
         style="fill:#00ff00;fill-opacity:1;fill-rule:nonzero;stroke:none"
         d="m 83.602,130.027 c -0.844,0 -1.344,-0.39 -1.688,-1.281 -0.297,0.625 -0.828,0.969 -1.531,0.969 -1.016,0 -1.781,-0.75 -1.781,-2.078 l 0,-2.829 7,0 0,3.157 c 0,1.25 -0.844,2.062 -2,2.062 z m -3.094,-1.203 c 0.703,0 1.109,-0.422 1.109,-1.406 l 0,-1.719 -2.219,0 0,1.719 c 0,0.984 0.407,1.406 1.11,1.406 z m 3.109,0.297 c 0.672,0 1.203,-0.406 1.203,-1.25 l 0,-2.172 -2.406,0 0,2.172 c 0,0.844 0.516,1.25 1.203,1.25 z" /><path
         id="path166"
         style="fill:#00ff00;fill-opacity:1;fill-rule:nonzero;stroke:none"
         d="m 83.68,136.429 c -0.86,0 -1.5,-0.531 -1.75,-1.484 l -0.469,-1.75 c -0.219,-0.844 -0.5,-1.156 -1.047,-1.156 -0.703,0 -1.234,0.625 -1.234,1.562 0,1.11 0.515,1.75 1.422,1.75 l 0,0.844 c -1.375,0 -2.172,-0.953 -2.172,-2.562 0,-1.532 0.843,-2.485 2.109,-2.485 0.859,0 1.391,0.453 1.641,1.375 l 0.453,1.735 c 0.234,0.875 0.594,1.281 1.14,1.281 0.766,0 1.219,-0.578 1.219,-1.781 0,-1.329 -0.672,-1.969 -1.672,-1.969 l 0,-0.86 c 1.657,0 2.453,1.125 2.453,2.766 0,1.781 -0.843,2.734 -2.093,2.734 z" /><path
         id="path168"
         style="fill:#00ff00;fill-opacity:1;fill-rule:nonzero;stroke:none"
         d="m 80.789,141.785 c -1.141,0 -1.984,-0.891 -1.984,-2.188 0,-1.39 0.703,-2.187 2.359,-2.234 l 0,0.844 c -1.141,0.062 -1.625,0.531 -1.625,1.375 0,0.765 0.547,1.328 1.281,1.328 0.532,0 0.985,-0.313 1.344,-0.906 l 0.5,-0.891 c 0.797,-1.422 1.438,-1.828 2.938,-1.906 l 0,4.531 -0.829,0 0,-3.578 c -0.562,0.078 -0.921,0.391 -1.406,1.219 l -0.515,0.968 c -0.516,0.938 -1.219,1.438 -2.063,1.438 z" /><path
         id="path170"
         style="fill:#00ff00;fill-opacity:1;fill-rule:nonzero;stroke:none"
         d="m 85.602,145.547 -6.797,0 0,-0.563 c 1.047,-0.297 1.187,-0.484 1.343,-1.781 l 0.61,0 0,1.5 4.844,0 0,0.844 z" /><path
         id="path172"
         style="fill:#00ffff;fill-opacity:1;fill-rule:nonzero;stroke:none"
         d="m 64.652,90.5 0,-0.922 c 1.313,-0.219 1.938,-0.766 1.938,-1.953 0,-1.391 -1.063,-2.266 -2.813,-2.266 -1.797,0 -2.953,0.844 -2.953,2.188 0,1.093 0.485,1.672 1.547,1.89 l 0,0.907 c -1.531,-0.266 -2.344,-1.157 -2.344,-2.688 0,-2.125 1.719,-3.203 3.75,-3.203 2.047,0 3.594,1.109 3.594,3.156 0,1.719 -0.906,2.672 -2.719,2.891 z" /><path
         id="path174"
         style="fill:#00ffff;fill-opacity:1;fill-rule:nonzero;stroke:none"
         d="m 67.184,96.054 -0.61,0 c 0.016,-0.078 0.016,-0.109 0.016,-0.171 0,-0.266 -0.141,-0.422 -0.391,-0.422 l -2.797,0 c -0.89,0 -1.375,-0.657 -1.375,-1.891 0,-1.219 0.469,-1.969 1.625,-2.016 l 0,0.797 c -0.609,0.078 -0.89,0.438 -0.89,1.188 0,0.719 0.281,1.125 0.75,1.125 l 0.218,0 c 0.329,0 0.469,-0.203 0.547,-0.844 0.157,-1.125 0.188,-1.297 0.313,-1.609 0.234,-0.578 0.687,-0.875 1.297,-0.875 0.922,0 1.453,0.625 1.453,1.64 0,0.657 -0.266,1.266 -0.735,1.719 0.375,0.078 0.657,0.422 0.657,0.813 0,0.171 -0.016,0.296 -0.078,0.546 z m -1.719,-1.39 c 0.719,0 1.172,-0.735 1.172,-1.516 0,-0.609 -0.219,-0.984 -0.766,-0.984 -0.531,0 -0.75,0.359 -0.875,1.219 -0.125,0.843 -0.156,1.015 -0.281,1.281 l 0.75,0 z" /><path
         id="path176"
         style="fill:#00ffff;fill-opacity:1;fill-rule:nonzero;stroke:none"
         d="m 67.199,100.894 -5.031,0 0,-0.797 2.781,0 c 1.016,0 1.688,-0.531 1.688,-1.375 0,-0.625 -0.375,-1.031 -0.985,-1.031 l -3.484,0 0,-0.797 3.797,0 c 0.844,0 1.375,0.625 1.375,1.594 0,0.75 -0.25,1.219 -0.922,1.688 l 0.781,0 0,0.718 z" /><path
         id="path178"
         style="fill:#00ffff;fill-opacity:1;fill-rule:nonzero;stroke:none"
         d="m 64.918,106.527 c -0.734,0 -1.188,-0.062 -1.563,-0.203 -0.828,-0.328 -1.328,-1.094 -1.328,-2.031 0,-1.406 1.032,-2.297 2.688,-2.297 1.656,0 2.625,0.859 2.625,2.281 0,1.141 -0.656,1.938 -1.672,2.141 l 0,-0.797 c 0.672,-0.219 0.937,-0.672 0.937,-1.313 0,-0.843 -0.531,-1.468 -1.687,-1.484 l 0,3.703 z m -0.719,-0.859 c 0,0 0.047,0 0.063,0 l 0,-2.828 c -0.891,0.078 -1.5,0.64 -1.5,1.437 0,0.797 0.656,1.391 1.437,1.391 z" /><path
         id="path180"
         style="fill:#00ffff;fill-opacity:1;fill-rule:nonzero;stroke:none"
         d="m 62.871,110.051 -0.812,0 c -0.016,-0.141 -0.032,-0.204 -0.032,-0.313 0,-0.516 0.313,-0.906 1.063,-1.359 l -0.922,0 0,-0.735 5.031,0 0,0.797 -2.609,0 c -1.125,0 -1.703,0.375 -1.719,1.61 z" /><path
         id="path182"
         style="fill:#00ffff;fill-opacity:1;fill-rule:nonzero;stroke:none"
         d="m 62.387,115.074 c -1.141,0 -1.985,-0.891 -1.985,-2.187 0,-1.391 0.703,-2.188 2.36,-2.235 l 0,0.844 c -1.141,0.062 -1.625,0.531 -1.625,1.375 0,0.766 0.547,1.328 1.281,1.328 0.531,0 0.984,-0.312 1.344,-0.906 l 0.5,-0.891 c 0.797,-1.422 1.437,-1.828 2.937,-1.906 l 0,4.531 -0.828,0 0,-3.578 c -0.562,0.078 -0.922,0.391 -1.406,1.219 l -0.516,0.969 c -0.515,0.937 -1.219,1.437 -2.062,1.437 z" /><path
         id="path184"
         style="fill:#00ffff;fill-opacity:1;fill-rule:nonzero;stroke:none"
         d="m 68.418,121.054 0.484,0 0,-5.766 -0.484,0 0,5.766 z" /><path
         id="path186"
         style="fill:#00ffff;fill-opacity:1;fill-rule:nonzero;stroke:none"
         d="m 67.199,125.594 -7,0 0,-0.797 2.61,0 c -0.516,-0.344 -0.782,-0.875 -0.782,-1.547 0,-1.297 1.016,-2.156 2.61,-2.156 1.703,0 2.703,0.828 2.703,2.187 0,0.688 -0.25,1.172 -0.875,1.594 l 0.734,0 0,0.719 z m -2.5,-0.797 c 1.172,0 1.891,-0.563 1.891,-1.407 0,-0.875 -0.735,-1.468 -1.906,-1.468 -1.172,0 -1.907,0.593 -1.907,1.468 0,0.86 0.766,1.407 1.922,1.407 z" /><path
         id="path188"
         style="fill:#00ffff;fill-opacity:1;fill-rule:nonzero;stroke:none"
         d="m 65.199,132.195 c -0.844,0 -1.344,-0.391 -1.687,-1.281 -0.297,0.625 -0.828,0.969 -1.532,0.969 -1.015,0 -1.781,-0.75 -1.781,-2.079 l 0,-2.828 7,0 0,3.157 c 0,1.25 -0.844,2.062 -2,2.062 z m -3.094,-1.203 c 0.704,0 1.11,-0.422 1.11,-1.406 l 0,-1.719 -2.219,0 0,1.719 c 0,0.984 0.406,1.406 1.109,1.406 z m 3.11,0.297 c 0.672,0 1.203,-0.406 1.203,-1.25 l 0,-2.172 -2.406,0 0,2.172 c 0,0.844 0.515,1.25 1.203,1.25 z" /><path
         id="path190"
         style="fill:#00ffff;fill-opacity:1;fill-rule:nonzero;stroke:none"
         d="m 65.277,138.566 c -0.859,0 -1.5,-0.531 -1.75,-1.484 l -0.468,-1.75 c -0.219,-0.844 -0.5,-1.156 -1.047,-1.156 -0.703,0 -1.235,0.625 -1.235,1.562 0,1.109 0.516,1.75 1.422,1.75 l 0,0.844 c -1.375,0 -2.172,-0.953 -2.172,-2.563 0,-1.531 0.844,-2.484 2.11,-2.484 0.859,0 1.39,0.453 1.64,1.375 l 0.453,1.734 c 0.235,0.875 0.594,1.282 1.141,1.282 0.766,0 1.219,-0.579 1.219,-1.782 0,-1.328 -0.672,-1.968 -1.672,-1.968 l 0,-0.86 c 1.656,0 2.453,1.125 2.453,2.766 0,1.781 -0.844,2.734 -2.094,2.734 z" /><path
         id="path192"
         style="fill:#00ffff;fill-opacity:1;fill-rule:nonzero;stroke:none"
         d="m 62.387,143.922 c -1.141,0 -1.985,-0.891 -1.985,-2.188 0,-1.39 0.703,-2.187 2.36,-2.234 l 0,0.844 c -1.141,0.062 -1.625,0.531 -1.625,1.375 0,0.765 0.547,1.328 1.281,1.328 0.531,0 0.984,-0.313 1.344,-0.907 l 0.5,-0.89 c 0.797,-1.422 1.437,-1.828 2.937,-1.906 l 0,4.531 -0.828,0 0,-3.578 c -0.562,0.078 -0.922,0.39 -1.406,1.218 l -0.516,0.969 c -0.515,0.938 -1.219,1.438 -2.062,1.438 z" /><path
         id="path194"
         style="fill:#00ffff;fill-opacity:1;fill-rule:nonzero;stroke:none"
         d="m 67.199,147.711 -6.797,0 0,-0.563 c 1.047,-0.297 1.188,-0.484 1.344,-1.781 l 0.609,0 0,1.5 4.844,0 0,0.844 z" /><path
         id="path196"
         style="fill:#ffff00;fill-opacity:1;fill-rule:nonzero;stroke:none"
         d="m 46.254,90.5 0,-0.922 c 1.312,-0.219 1.937,-0.766 1.937,-1.953 0,-1.391 -1.062,-2.266 -2.812,-2.266 -1.797,0 -2.953,0.844 -2.953,2.188 0,1.093 0.484,1.672 1.547,1.89 l 0,0.907 c -1.532,-0.266 -2.344,-1.157 -2.344,-2.688 0,-2.125 1.719,-3.203 3.75,-3.203 2.047,0 3.594,1.109 3.594,3.156 0,1.719 -0.907,2.672 -2.719,2.891 z" /><path
         id="path198"
         style="fill:#ffff00;fill-opacity:1;fill-rule:nonzero;stroke:none"
         d="m 48.785,96.054 -0.609,0 c 0.015,-0.078 0.015,-0.109 0.015,-0.171 0,-0.266 -0.14,-0.422 -0.39,-0.422 l -2.797,0 c -0.891,0 -1.375,-0.657 -1.375,-1.891 0,-1.219 0.469,-1.969 1.625,-2.016 l 0,0.797 c -0.609,0.078 -0.891,0.438 -0.891,1.188 0,0.719 0.282,1.125 0.75,1.125 l 0.219,0 c 0.328,0 0.469,-0.203 0.547,-0.844 0.156,-1.125 0.187,-1.297 0.312,-1.609 0.235,-0.578 0.688,-0.875 1.297,-0.875 0.922,0 1.453,0.625 1.453,1.64 0,0.657 -0.265,1.266 -0.734,1.719 0.375,0.078 0.656,0.422 0.656,0.813 0,0.171 -0.015,0.296 -0.078,0.546 z m -1.719,-1.39 c 0.719,0 1.172,-0.735 1.172,-1.516 0,-0.609 -0.218,-0.984 -0.765,-0.984 -0.532,0 -0.75,0.359 -0.875,1.219 -0.125,0.843 -0.157,1.015 -0.282,1.281 l 0.75,0 z" /><path
         id="path200"
         style="fill:#ffff00;fill-opacity:1;fill-rule:nonzero;stroke:none"
         d="m 48.801,100.894 -5.031,0 0,-0.797 2.781,0 c 1.015,0 1.687,-0.531 1.687,-1.375 0,-0.625 -0.375,-1.031 -0.984,-1.031 l -3.484,0 0,-0.797 3.796,0 c 0.844,0 1.375,0.625 1.375,1.594 0,0.75 -0.25,1.219 -0.921,1.688 l 0.781,0 0,0.718 z" /><path
         id="path202"
         style="fill:#ffff00;fill-opacity:1;fill-rule:nonzero;stroke:none"
         d="m 46.52,106.527 c -0.735,0 -1.188,-0.062 -1.563,-0.203 -0.828,-0.328 -1.328,-1.094 -1.328,-2.031 0,-1.406 1.031,-2.297 2.687,-2.297 1.657,0 2.625,0.859 2.625,2.281 0,1.141 -0.656,1.938 -1.671,2.141 l 0,-0.797 c 0.671,-0.219 0.937,-0.672 0.937,-1.313 0,-0.843 -0.531,-1.468 -1.687,-1.484 l 0,3.703 z m -0.719,-0.859 c 0,0 0.047,0 0.062,0 l 0,-2.828 c -0.89,0.078 -1.5,0.64 -1.5,1.437 0,0.797 0.657,1.391 1.438,1.391 z" /><path
         id="path204"
         style="fill:#ffff00;fill-opacity:1;fill-rule:nonzero;stroke:none"
         d="m 44.473,110.051 -0.813,0 c -0.015,-0.141 -0.031,-0.204 -0.031,-0.313 0,-0.516 0.312,-0.906 1.062,-1.359 l -0.921,0 0,-0.735 5.031,0 0,0.797 -2.61,0 c -1.125,0 -1.703,0.375 -1.718,1.61 z" /><path
         id="path206"
         style="fill:#ffff00;fill-opacity:1;fill-rule:nonzero;stroke:none"
         d="m 46.832,115.027 c -0.828,0 -1.312,-0.344 -1.594,-1.156 -0.25,0.641 -0.687,0.953 -1.375,0.953 -1.172,0 -1.859,-0.781 -1.859,-2.078 0,-1.375 0.75,-2.094 2.187,-2.125 l 0,0.844 c -1,0.015 -1.453,0.437 -1.453,1.297 0,0.75 0.438,1.203 1.157,1.203 0.734,0 1.031,-0.328 1.031,-1.672 l 0.703,0 0,0.453 c 0,0.937 0.453,1.406 1.203,1.406 0.859,0 1.359,-0.515 1.359,-1.406 0,-0.922 -0.453,-1.375 -1.437,-1.422 l 0,-0.844 c 1.516,0.094 2.187,0.844 2.187,2.235 0,1.406 -0.828,2.312 -2.109,2.312 z" /><path
         id="path208"
         style="fill:#ffff00;fill-opacity:1;fill-rule:nonzero;stroke:none"
         d="m 50.02,121.054 0.484,0 0,-5.766 -0.484,0 0,5.766 z" /><path
         id="path210"
         style="fill:#ffff00;fill-opacity:1;fill-rule:nonzero;stroke:none"
         d="m 48.801,125.594 -7,0 0,-0.797 2.609,0 c -0.515,-0.344 -0.781,-0.875 -0.781,-1.547 0,-1.297 1.016,-2.156 2.609,-2.156 1.703,0 2.703,0.828 2.703,2.187 0,0.688 -0.25,1.172 -0.875,1.594 l 0.735,0 0,0.719 z m -2.5,-0.797 c 1.172,0 1.89,-0.563 1.89,-1.407 0,-0.875 -0.734,-1.468 -1.906,-1.468 -1.172,0 -1.906,0.593 -1.906,1.468 0,0.86 0.766,1.407 1.922,1.407 z" /><path
         id="path212"
         style="fill:#ffff00;fill-opacity:1;fill-rule:nonzero;stroke:none"
         d="m 46.801,132.195 c -0.844,0 -1.344,-0.391 -1.688,-1.281 -0.297,0.625 -0.828,0.969 -1.531,0.969 -1.016,0 -1.781,-0.75 -1.781,-2.079 l 0,-2.828 7,0 0,3.157 c 0,1.25 -0.844,2.062 -2,2.062 z m -3.094,-1.203 c 0.703,0 1.109,-0.422 1.109,-1.406 l 0,-1.719 -2.218,0 0,1.719 c 0,0.984 0.406,1.406 1.109,1.406 z m 3.109,0.297 c 0.672,0 1.204,-0.406 1.204,-1.25 l 0,-2.172 -2.407,0 0,2.172 c 0,0.844 0.516,1.25 1.203,1.25 z" /><path
         id="path214"
         style="fill:#ffff00;fill-opacity:1;fill-rule:nonzero;stroke:none"
         d="m 46.879,138.566 c -0.859,0 -1.5,-0.531 -1.75,-1.484 l -0.469,-1.75 c -0.219,-0.844 -0.5,-1.156 -1.047,-1.156 -0.703,0 -1.234,0.625 -1.234,1.562 0,1.109 0.516,1.75 1.422,1.75 l 0,0.844 c -1.375,0 -2.172,-0.953 -2.172,-2.563 0,-1.531 0.844,-2.484 2.109,-2.484 0.86,0 1.391,0.453 1.641,1.375 l 0.453,1.734 c 0.234,0.875 0.594,1.282 1.141,1.282 0.765,0 1.218,-0.579 1.218,-1.782 0,-1.328 -0.671,-1.968 -1.671,-1.968 l 0,-0.86 c 1.656,0 2.453,1.125 2.453,2.766 0,1.781 -0.844,2.734 -2.094,2.734 z" /><path
         id="path216"
         style="fill:#ffff00;fill-opacity:1;fill-rule:nonzero;stroke:none"
         d="m 43.988,143.922 c -1.14,0 -1.984,-0.891 -1.984,-2.188 0,-1.39 0.703,-2.187 2.359,-2.234 l 0,0.844 c -1.14,0.062 -1.625,0.531 -1.625,1.375 0,0.765 0.547,1.328 1.282,1.328 0.531,0 0.984,-0.313 1.343,-0.907 l 0.5,-0.89 c 0.797,-1.422 1.438,-1.828 2.938,-1.906 l 0,4.531 -0.828,0 0,-3.578 c -0.563,0.078 -0.922,0.39 -1.407,1.218 l -0.515,0.969 c -0.516,0.938 -1.219,1.438 -2.063,1.438 z" /><path
         id="path218"
         style="fill:#ffff00;fill-opacity:1;fill-rule:nonzero;stroke:none"
         d="m 48.801,147.711 -6.797,0 0,-0.563 c 1.047,-0.297 1.187,-0.484 1.344,-1.781 l 0.609,0 0,1.5 4.844,0 0,0.844 z" /><path
         id="path220"
         style="fill:#777777;fill-opacity:1;fill-rule:nonzero;stroke:none"
         d="m 27.852,90.5 0,-0.922 c 1.312,-0.219 1.937,-0.766 1.937,-1.953 0,-1.391 -1.062,-2.266 -2.812,-2.266 -1.797,0 -2.954,0.844 -2.954,2.188 0,1.093 0.485,1.672 1.547,1.89 l 0,0.907 c -1.531,-0.266 -2.343,-1.157 -2.343,-2.688 0,-2.125 1.718,-3.203 3.75,-3.203 2.046,0 3.593,1.109 3.593,3.156 0,1.719 -0.906,2.672 -2.718,2.891 z" /><path
         id="path222"
         style="fill:#777777;fill-opacity:1;fill-rule:nonzero;stroke:none"
         d="m 30.383,96.054 -0.61,0 c 0.016,-0.078 0.016,-0.109 0.016,-0.171 0,-0.266 -0.141,-0.422 -0.391,-0.422 l -2.796,0 c -0.891,0 -1.375,-0.657 -1.375,-1.891 0,-1.219 0.468,-1.969 1.625,-2.016 l 0,0.797 c -0.61,0.078 -0.891,0.438 -0.891,1.188 0,0.719 0.281,1.125 0.75,1.125 l 0.219,0 c 0.328,0 0.468,-0.203 0.547,-0.844 0.156,-1.125 0.187,-1.297 0.312,-1.609 0.234,-0.578 0.688,-0.875 1.297,-0.875 0.922,0 1.453,0.625 1.453,1.64 0,0.657 -0.266,1.266 -0.734,1.719 0.375,0.078 0.656,0.422 0.656,0.813 0,0.171 -0.016,0.296 -0.078,0.546 z m -1.719,-1.39 c 0.719,0 1.172,-0.735 1.172,-1.516 0,-0.609 -0.219,-0.984 -0.766,-0.984 -0.531,0 -0.75,0.359 -0.875,1.219 -0.125,0.843 -0.156,1.015 -0.281,1.281 l 0.75,0 z" /><path
         id="path224"
         style="fill:#777777;fill-opacity:1;fill-rule:nonzero;stroke:none"
         d="m 30.398,100.894 -5.031,0 0,-0.797 2.781,0 c 1.016,0 1.688,-0.531 1.688,-1.375 0,-0.625 -0.375,-1.031 -0.984,-1.031 l -3.485,0 0,-0.797 3.797,0 c 0.844,0 1.375,0.625 1.375,1.594 0,0.75 -0.25,1.219 -0.922,1.688 l 0.781,0 0,0.718 z" /><path
         id="path226"
         style="fill:#777777;fill-opacity:1;fill-rule:nonzero;stroke:none"
         d="m 28.117,106.527 c -0.734,0 -1.187,-0.062 -1.562,-0.203 -0.828,-0.328 -1.328,-1.094 -1.328,-2.031 0,-1.406 1.031,-2.297 2.687,-2.297 1.656,0 2.625,0.859 2.625,2.281 0,1.141 -0.656,1.938 -1.672,2.141 l 0,-0.797 c 0.672,-0.219 0.938,-0.672 0.938,-1.313 0,-0.843 -0.532,-1.468 -1.688,-1.484 l 0,3.703 z m -0.719,-0.859 c 0,0 0.047,0 0.063,0 l 0,-2.828 c -0.891,0.078 -1.5,0.64 -1.5,1.437 0,0.797 0.656,1.391 1.437,1.391 z" /><path
         id="path228"
         style="fill:#777777;fill-opacity:1;fill-rule:nonzero;stroke:none"
         d="m 26.07,110.051 -0.812,0 c -0.016,-0.141 -0.031,-0.204 -0.031,-0.313 0,-0.516 0.312,-0.906 1.062,-1.359 l -0.922,0 0,-0.735 5.031,0 0,0.797 -2.609,0 c -1.125,0 -1.703,0.375 -1.719,1.61 z" /><path
         id="path230"
         style="fill:#777777;fill-opacity:1;fill-rule:nonzero;stroke:none"
         d="m 28.773,115.152 -0.765,0 0,-1 -4.406,0 0,-0.625 4.281,-3.094 0.89,0 0,2.875 1.625,0 0,0.844 -1.625,0 0,1 z m -0.765,-1.844 0,-2.14 -2.969,2.14 2.969,0 z" /><path
         id="path232"
         style="fill:#777777;fill-opacity:1;fill-rule:nonzero;stroke:none"
         d="m 31.617,121.054 0.484,0 0,-5.766 -0.484,0 0,5.766 z" /><path
         id="path234"
         style="fill:#777777;fill-opacity:1;fill-rule:nonzero;stroke:none"
         d="m 30.398,125.594 -7,0 0,-0.797 2.61,0 c -0.516,-0.344 -0.781,-0.875 -0.781,-1.547 0,-1.297 1.015,-2.156 2.609,-2.156 1.703,0 2.703,0.828 2.703,2.187 0,0.688 -0.25,1.172 -0.875,1.594 l 0.734,0 0,0.719 z m -2.5,-0.797 c 1.172,0 1.891,-0.563 1.891,-1.407 0,-0.875 -0.734,-1.468 -1.906,-1.468 -1.172,0 -1.906,0.593 -1.906,1.468 0,0.86 0.765,1.407 1.921,1.407 z" /><path
         id="path236"
         style="fill:#777777;fill-opacity:1;fill-rule:nonzero;stroke:none"
         d="m 28.398,132.195 c -0.843,0 -1.343,-0.391 -1.687,-1.281 -0.297,0.625 -0.828,0.969 -1.531,0.969 -1.016,0 -1.782,-0.75 -1.782,-2.079 l 0,-2.828 7,0 0,3.157 c 0,1.25 -0.843,2.062 -2,2.062 z m -3.093,-1.203 c 0.703,0 1.109,-0.422 1.109,-1.406 l 0,-1.719 -2.219,0 0,1.719 c 0,0.984 0.407,1.406 1.11,1.406 z m 3.109,0.297 c 0.672,0 1.203,-0.406 1.203,-1.25 l 0,-2.172 -2.406,0 0,2.172 c 0,0.844 0.516,1.25 1.203,1.25 z" /><path
         id="path238"
         style="fill:#777777;fill-opacity:1;fill-rule:nonzero;stroke:none"
         d="m 28.477,138.566 c -0.86,0 -1.5,-0.531 -1.75,-1.484 l -0.469,-1.75 c -0.219,-0.844 -0.5,-1.156 -1.047,-1.156 -0.703,0 -1.234,0.625 -1.234,1.562 0,1.109 0.515,1.75 1.421,1.75 l 0,0.844 c -1.375,0 -2.171,-0.953 -2.171,-2.563 0,-1.531 0.843,-2.484 2.109,-2.484 0.859,0 1.391,0.453 1.641,1.375 l 0.453,1.734 c 0.234,0.875 0.593,1.282 1.14,1.282 0.766,0 1.219,-0.579 1.219,-1.782 0,-1.328 -0.672,-1.968 -1.672,-1.968 l 0,-0.86 c 1.656,0 2.453,1.125 2.453,2.766 0,1.781 -0.843,2.734 -2.093,2.734 z" /><path
         id="path240"
         style="fill:#777777;fill-opacity:1;fill-rule:nonzero;stroke:none"
         d="m 25.586,143.922 c -1.141,0 -1.984,-0.891 -1.984,-2.188 0,-1.39 0.703,-2.187 2.359,-2.234 l 0,0.844 c -1.141,0.062 -1.625,0.531 -1.625,1.375 0,0.765 0.547,1.328 1.281,1.328 0.531,0 0.985,-0.313 1.344,-0.907 l 0.5,-0.89 c 0.797,-1.422 1.437,-1.828 2.937,-1.906 l 0,4.531 -0.828,0 0,-3.578 c -0.562,0.078 -0.922,0.39 -1.406,1.218 l -0.516,0.969 c -0.515,0.938 -1.218,1.438 -2.062,1.438 z" /><path
         id="path242"
         style="fill:#777777;fill-opacity:1;fill-rule:nonzero;stroke:none"
         d="m 30.398,147.711 -6.796,0 0,-0.563 c 1.046,-0.297 1.187,-0.484 1.343,-1.781 l 0.61,0 0,1.5 4.843,0 0,0.844 z" /></g></g></svg>