<?xml version="1.0" encoding="UTF-8" standalone="no"?>
<svg
   xmlns:dc="http://purl.org/dc/elements/1.1/"
   xmlns:cc="http://creativecommons.org/ns#"
   xmlns:rdf="http://www.w3.org/1999/02/22-rdf-syntax-ns#"
   xmlns:svg="http://www.w3.org/2000/svg"
   xmlns="http://www.w3.org/2000/svg"
   viewBox="0 0 463.99875 253.99876"
   height="253.99876"
   width="463.99875"
   xml:space="preserve"
   version="1.1"
   id="svg2"><metadata
     id="metadata8"><rdf:RDF><cc:Work
         rdf:about=""><dc:format>image/svg+xml</dc:format><dc:type
           rdf:resource="http://purl.org/dc/dcmitype/StillImage" /></cc:Work></rdf:RDF></metadata><defs
     id="defs6" /><g
     transform="matrix(1.25,0,0,-1.25,0,253.99876)"
     id="g10"><g
       id="g12"><path
         id="path14"
         style="fill:#ffffff;fill-opacity:1;fill-rule:evenodd;stroke:none"
         d="m 0,203.199 371.199,0 L 371.199,0 0,0 0,203.199 Z" /><path
         id="path16"
         style="fill:none;stroke:#c0c0c0;stroke-width:0.80000001;stroke-linecap:square;stroke-linejoin:bevel;stroke-miterlimit:4;stroke-dasharray:0.8, 1.6;stroke-dashoffset:0;stroke-opacity:1"
         d="m 122.398,180.801 192,0" /><path
         id="path18"
         style="fill:none;stroke:#c0c0c0;stroke-width:0.80000001;stroke-linecap:square;stroke-linejoin:bevel;stroke-miterlimit:4;stroke-dasharray:0.8, 1.6;stroke-dashoffset:0;stroke-opacity:1"
         d="m 122.398,136 192,0" /><path
         id="path20"
         style="fill:none;stroke:#c0c0c0;stroke-width:0.80000001;stroke-linecap:square;stroke-linejoin:bevel;stroke-miterlimit:4;stroke-dasharray:0.8, 1.6;stroke-dashoffset:0;stroke-opacity:1"
         d="m 122.398,91.199 192,0" /><path
         id="path22"
         style="fill:none;stroke:#c0c0c0;stroke-width:0.80000001;stroke-linecap:square;stroke-linejoin:bevel;stroke-miterlimit:4;stroke-dasharray:0.8, 1.6;stroke-dashoffset:0;stroke-opacity:1"
         d="m 276,191.199 0,-128" /><path
         id="path24"
         style="fill:none;stroke:#c0c0c0;stroke-width:0.80000001;stroke-linecap:square;stroke-linejoin:bevel;stroke-miterlimit:4;stroke-dasharray:0.8, 1.6;stroke-dashoffset:0;stroke-opacity:1"
         d="m 237.602,191.199 0,-128" /><path
         id="path26"
         style="fill:none;stroke:#c0c0c0;stroke-width:0.80000001;stroke-linecap:square;stroke-linejoin:bevel;stroke-miterlimit:4;stroke-dasharray:0.8, 1.6;stroke-dashoffset:0;stroke-opacity:1"
         d="m 199.199,191.199 0,-128" /><path
         id="path28"
         style="fill:none;stroke:#c0c0c0;stroke-width:0.80000001;stroke-linecap:square;stroke-linejoin:bevel;stroke-miterlimit:4;stroke-dasharray:0.8, 1.6;stroke-dashoffset:0;stroke-opacity:1"
         d="m 160.801,191.199 0,-128" /><path
         id="path30"
         style="fill:none;stroke:#000000;stroke-width:0.80000001;stroke-linecap:square;stroke-linejoin:bevel;stroke-miterlimit:4;stroke-dasharray:none;stroke-opacity:1"
         d="m 122.398,67.199 0,-8" /><path
         id="path32"
         style="fill:none;stroke:#000000;stroke-width:0.80000001;stroke-linecap:square;stroke-linejoin:bevel;stroke-miterlimit:4;stroke-dasharray:none;stroke-opacity:1"
         d="m 160.801,67.199 0,-8" /><path
         id="path34"
         style="fill:none;stroke:#000000;stroke-width:0.80000001;stroke-linecap:square;stroke-linejoin:bevel;stroke-miterlimit:4;stroke-dasharray:none;stroke-opacity:1"
         d="m 199.199,67.199 0,-8" /><path
         id="path36"
         style="fill:none;stroke:#000000;stroke-width:0.80000001;stroke-linecap:square;stroke-linejoin:bevel;stroke-miterlimit:4;stroke-dasharray:none;stroke-opacity:1"
         d="m 237.602,67.199 0,-8" /><path
         id="path38"
         style="fill:none;stroke:#000000;stroke-width:0.80000001;stroke-linecap:square;stroke-linejoin:bevel;stroke-miterlimit:4;stroke-dasharray:none;stroke-opacity:1"
         d="m 276,67.199 0,-8" /><path
         id="path40"
         style="fill:none;stroke:#000000;stroke-width:0.80000001;stroke-linecap:square;stroke-linejoin:bevel;stroke-miterlimit:4;stroke-dasharray:none;stroke-opacity:1"
         d="m 314.398,67.199 0,-8" /><path
         id="path42"
         style="fill:none;stroke:#000000;stroke-width:0.80000001;stroke-linecap:square;stroke-linejoin:bevel;stroke-miterlimit:4;stroke-dasharray:none;stroke-opacity:1"
         d="m 118.398,91.199 8,0" /><path
         id="path44"
         style="fill:none;stroke:#000000;stroke-width:0.80000001;stroke-linecap:square;stroke-linejoin:bevel;stroke-miterlimit:4;stroke-dasharray:none;stroke-opacity:1"
         d="m 118.398,136 8,0" /><path
         id="path46"
         style="fill:none;stroke:#000000;stroke-width:0.80000001;stroke-linecap:square;stroke-linejoin:bevel;stroke-miterlimit:4;stroke-dasharray:none;stroke-opacity:1"
         d="m 118.398,180.801 8,0" /><path
         id="path48"
         style="fill:none;stroke:#000000;stroke-width:0.80000001;stroke-linecap:square;stroke-linejoin:bevel;stroke-miterlimit:4;stroke-dasharray:none;stroke-opacity:1"
         d="m 122.398,191.199 192,0" /><path
         id="path50"
         style="fill:none;stroke:#000000;stroke-width:0.80000001;stroke-linecap:square;stroke-linejoin:bevel;stroke-miterlimit:4;stroke-dasharray:none;stroke-opacity:1"
         d="m 314.398,191.199 0,-128" /><path
         id="path52"
         style="fill:none;stroke:#000000;stroke-width:0.80000001;stroke-linecap:square;stroke-linejoin:bevel;stroke-miterlimit:4;stroke-dasharray:none;stroke-opacity:1"
         d="m 122.398,63.199 192,0" /><path
         id="path54"
         style="fill:none;stroke:#000000;stroke-width:0.80000001;stroke-linecap:square;stroke-linejoin:bevel;stroke-miterlimit:4;stroke-dasharray:none;stroke-opacity:1"
         d="m 122.398,191.199 0,-128" /><path
         id="path56"
         style="fill:none;stroke:#0000ff;stroke-width:0.80000001;stroke-linecap:square;stroke-linejoin:bevel;stroke-miterlimit:4;stroke-dasharray:none;stroke-opacity:1"
         d="m 124.32,180.508 0.043,0 0.012,-0.004 0.129,0 0.012,-0.004 0.121,0 0.008,-0.004 0.109,0 0.008,-0.004 0.113,0 0.012,-0.004 0.105,0 0.012,-0.004 0.086,0 0.012,-0.004 0.086,0 0.015,-0.004 0.09,0 0.016,-0.004 0.082,0 0.011,-0.003 0.086,0 0.012,-0.004 0.074,0 0.016,-0.004 0.074,0 0.012,-0.004 0.062,0 0.016,-0.004 0.078,0 0.016,-0.004 0.062,0 0.02,-0.004 0.062,0 0.02,-0.004 0.05,0 0.016,-0.004 0.067,0 0.019,-0.004 0.051,0 0.019,-0.004 0.055,0 0.016,-0.003 0.054,0 0.02,-0.004 0.055,0 0.019,-0.004 0.055,0 0.019,-0.004 0.039,0 0.02,-0.004 0.055,0 0.023,-0.004 0.039,0 0.02,-0.004 0.039,0 0.019,-0.004 0.043,0 0.02,-0.004 0.062,0 0.02,-0.004 0.019,0 0.024,-0.003 0.039,0 0.023,-0.004 0.043,0 0.02,-0.004 0.047,0 0.019,-0.004 0.043,0 0.024,-0.004 0.023,0 0.023,-0.004 0.043,0 0.024,-0.004 0.023,0 0.024,-0.004 0.047,0 0.023,-0.004 0.02,0 0.023,-0.004 0.027,0 0.02,-0.004 0.051,0 0.023,-0.003 0.024,0 0.023,-0.004 0.027,0 0.024,-0.004 0.023,0 0.024,-0.004 0.027,0 0.023,-0.004 0.024,0 0.027,-0.004 0.024,0 0.027,-0.004 0.023,0 0.028,-0.004 0.027,0 0.024,-0.004 0.027,0 0.027,-0.004 0.024,0 0.027,-0.004 0.027,0 0.028,-0.003 0.023,0 0.027,-0.004 0.028,0 0.054,-0.008 0.028,0 0.027,-0.004 0.028,0 0.027,-0.004 0.027,0 0.028,-0.004 0.031,-0.004 0.027,0 0.027,-0.004 0.032,-0.004 0.027,0 0.027,-0.003 0.028,0 0.031,-0.004 0.027,-0.004 0.032,0 0.027,-0.004 0.031,-0.004 0.031,0 0.028,-0.004 0.062,-0.008 0.028,0 0.062,-0.008 0.031,0 0.094,-0.011 0.031,0 0.094,-0.012 0.031,0 0.094,-0.012 0.035,-0.004 0.032,0 0.031,-0.004 0.035,-0.004 0.031,-0.003 0.035,-0.004 0.032,-0.004 0.035,-0.004 0.035,0 0.031,-0.004 0.07,-0.008 0.032,-0.004 0.351,-0.039 0.039,-0.004 0.106,-0.011 0.039,-0.004 0.035,-0.004 0.039,-0.004 0.035,-0.004 0.078,-0.008 0.036,-0.004 0.078,-0.008 0.039,-0.007 0.035,-0.004 0.156,-0.016 0.039,-0.008 0.078,-0.008 0.043,-0.003 0.039,-0.008 0.039,-0.004 0.043,-0.004 0.039,-0.004 0.04,-0.008 0.042,-0.004 0.04,-0.004 0.043,-0.007 0.043,-0.004 0.039,-0.004 0.043,-0.008 0.042,-0.004 0.043,-0.008 0.04,-0.004 0.046,-0.004 0.039,-0.007 0.043,-0.004 0.047,-0.008 0.043,-0.004 0.043,-0.008 0.043,-0.004 0.047,-0.008 0.043,-0.003 0.043,-0.008 0.047,-0.004 0.043,-0.008 0.047,-0.008 0.043,-0.004 0.093,-0.015 0.047,-0.004 0.043,-0.008 0.047,-0.008 0.047,-0.004 0.141,-0.023 0.047,-0.004 0.05,-0.008 0.094,-0.016 0.051,-0.007 0.047,-0.004 0.051,-0.008 0.046,-0.008 0.051,-0.008 0.047,-0.008 0.508,-0.078 0.055,-0.011 0.05,-0.008 0.055,-0.008 0.051,-0.008 0.055,-0.008 0.05,-0.011 0.11,-0.016 0.054,-0.012 0.11,-0.015 0.054,-0.012 0.11,-0.016 0.054,-0.011 0.055,-0.008 0.059,-0.012 0.054,-0.008 0.059,-0.011 0.055,-0.012 0.058,-0.008 0.055,-0.012 0.059,-0.008 0.175,-0.035 0.059,-0.007 0.176,-0.036 0.062,-0.011 0.059,-0.012 0.062,-0.008 0.059,-0.012 0.062,-0.011 0.059,-0.012 0.063,-0.012 0.062,-0.015 0.313,-0.059 0.062,-0.016 0.066,-0.011 0.063,-0.012 0.066,-0.016 0.063,-0.011 0.066,-0.012 0.067,-0.016 0.062,-0.011 0.067,-0.016 0.066,-0.012 0.133,-0.031 0.07,-0.012 0.133,-0.031 0.07,-0.016 0.067,-0.011 0.07,-0.016 0.066,-0.016 0.493,-0.109 0.074,-0.02 0.14,-0.031 0.075,-0.019 0.148,-0.032 0.07,-0.019 0.075,-0.016 0.148,-0.039 0.078,-0.015 0.149,-0.039 0.078,-0.02 0.074,-0.016 0.156,-0.039 0.074,-0.019 0.157,-0.039 0.078,-0.024 0.082,-0.019 0.156,-0.039 0.082,-0.024 0.078,-0.019 0.082,-0.024 0.082,-0.019 0.164,-0.047 0.082,-0.02 0.246,-0.07 0.086,-0.023 0.082,-0.024 0.172,-0.047 0.082,-0.023 0.09,-0.027 0.172,-0.047 0.086,-0.028 0.086,-0.023 0.09,-0.027 0.086,-0.028 0.09,-0.027 0.089,-0.024 0.09,-0.027 0.086,-0.027 0.094,-0.028 0.09,-0.031 0.179,-0.055 0.094,-0.031 0.094,-0.027 0.09,-0.028 0.375,-0.125 0.097,-0.027 0.094,-0.035 0.094,-0.031 0.195,-0.063 0.098,-0.035 0.098,-0.031 0.097,-0.035 0.098,-0.032 0.098,-0.035 0.101,-0.035 0.098,-0.035 0.203,-0.07 0.101,-0.039 0.204,-0.071 0.203,-0.078 0.105,-0.039 0.102,-0.035 0.105,-0.043 0.317,-0.117 0.105,-0.043 0.109,-0.039 0.106,-0.043 0.437,-0.172 0.11,-0.047 0.109,-0.043 0.113,-0.047 0.11,-0.043 0.113,-0.047 0.109,-0.047 0.114,-0.05 0.117,-0.047 0.113,-0.047 0.113,-0.051 0.114,-0.047 0.351,-0.152 0.118,-0.055 0.117,-0.051 0.234,-0.109 0.121,-0.051 0.121,-0.058 0.242,-0.11 0.122,-0.058 0.121,-0.055 0.125,-0.059 0.121,-0.058 0.125,-0.059 0.125,-0.062 0.125,-0.059 0.25,-0.125 0.129,-0.062 0.125,-0.063 0.129,-0.066 0.128,-0.063 0.258,-0.133 0.133,-0.066 0.129,-0.07 0.133,-0.067 0.531,-0.281 0.137,-0.07 0.133,-0.074 0.41,-0.223 0.136,-0.078 0.141,-0.078 0.137,-0.075 0.14,-0.078 0.141,-0.082 0.141,-0.078 0.14,-0.082 0.145,-0.082 0.14,-0.082 0.145,-0.082 0.289,-0.172 0.148,-0.086 0.145,-0.086 0.148,-0.086 0.145,-0.09 0.148,-0.085 0.149,-0.09 0.152,-0.094 0.149,-0.09 0.609,-0.375 0.156,-0.094 0.153,-0.097 0.312,-0.196 0.156,-0.101 0.157,-0.098 0.16,-0.101 0.156,-0.102 0.16,-0.102 0.16,-0.105 0.164,-0.102 0.161,-0.105 0.164,-0.105 0.164,-0.11 0.164,-0.105 0.328,-0.219 0.336,-0.219 0.168,-0.113 0.168,-0.109 0.168,-0.114 0.172,-0.113 0.171,-0.117 0.172,-0.114 0.344,-0.234 0.352,-0.234 0.175,-0.121 0.176,-0.118 0.176,-0.121 0.18,-0.121 0.179,-0.125 0.18,-0.121 0.18,-0.125 0.367,-0.25 0.18,-0.125 0.187,-0.125 0.184,-0.129 0.187,-0.125 0.184,-0.129 0.187,-0.129 0.192,-0.132 0.187,-0.129 0.192,-0.133 0.191,-0.129 0.383,-0.266 0.195,-0.136 0.195,-0.133 0.196,-0.137 0.195,-0.133 0.797,-0.547 0.199,-0.14 0.203,-0.141 0.203,-0.137 0.407,-0.281 0.207,-0.14 0.207,-0.145 0.207,-0.141 0.211,-0.144 0.207,-0.141 0.422,-0.289 0.214,-0.144 0.211,-0.145 0.215,-0.144 0.215,-0.149 0.219,-0.144 0.215,-0.149 0.218,-0.148 0.223,-0.149 0.219,-0.148 0.668,-0.445 0.222,-0.153 0.227,-0.148 0.453,-0.305 0.231,-0.148 0.461,-0.305 0.23,-0.156 0.703,-0.457 0.238,-0.157 0.235,-0.156 0.238,-0.152 0.242,-0.156 0.239,-0.157 0.484,-0.312 0.984,-0.625 0.25,-0.16 0.25,-0.157 0.25,-0.16 0.25,-0.156 0.508,-0.32 0.516,-0.321 0.254,-0.16 0.523,-0.32 0.258,-0.16 0.266,-0.16 0.261,-0.16 0.266,-0.165 0.265,-0.16 0.27,-0.16 0.27,-0.164 0.269,-0.16 0.27,-0.164 0.547,-0.328 0.273,-0.16 0.555,-0.329 0.562,-0.328 0.277,-0.164 0.856,-0.492 0.285,-0.168 0.578,-0.328 0.289,-0.168 0.293,-0.164 0.293,-0.168 0.297,-0.164 0.297,-0.168 0.297,-0.164 0.297,-0.168 0.301,-0.164 0.3,-0.168 0.61,-0.336 0.304,-0.164 0.926,-0.504 0.625,-0.336 1.266,-0.672 0.32,-0.172 0.973,-0.504 0.324,-0.171 0.656,-0.336 0.332,-0.172 0.332,-0.168 0.336,-0.168 0.332,-0.172 0.34,-0.168 0.336,-0.172 0.34,-0.168 0.687,-0.344 0.344,-0.168 0.695,-0.343 0.348,-0.168 0.352,-0.172 0.355,-0.172 0.352,-0.172 0.355,-0.168 1.078,-0.516 0.364,-0.171 0.367,-0.172 0.363,-0.172 0.367,-0.168 1.113,-0.516 0.375,-0.172 0.379,-0.175 0.375,-0.172 0.383,-0.172 0.379,-0.172 0.387,-0.172 0.383,-0.172 0.386,-0.172 0.391,-0.172 0.391,-0.175 0.39,-0.172 0.395,-0.172 0.398,-0.172 0.395,-0.176 0.402,-0.172 0.399,-0.172 0.406,-0.175 0.402,-0.172 0.406,-0.172 0.41,-0.176 0.411,-0.172 0.414,-0.172 0.414,-0.175 0.418,-0.172 0.418,-0.176 0.422,-0.172 0.421,-0.176 0.422,-0.172 0.426,-0.175 0.43,-0.172 0.43,-0.176 0.433,-0.172 0.434,-0.176 0.437,-0.172 0.438,-0.175 0.441,-0.172 0.883,-0.352 0.449,-0.172 0.449,-0.175 0.45,-0.172 0.906,-0.352 0.457,-0.172 0.457,-0.175 0.465,-0.176 0.461,-0.176 0.464,-0.172 0.938,-0.351 0.473,-0.176 0.472,-0.172 0.953,-0.352 0.481,-0.175 0.484,-0.176 0.485,-0.172 0.976,-0.352 0.492,-0.175 0.993,-0.352 0.496,-0.172 0.5,-0.176 0.504,-0.175 1.523,-0.528 0.516,-0.176 0.511,-0.175 1.039,-0.352 1.047,-0.352 1.055,-0.351 0.531,-0.176 0.535,-0.176 1.618,-0.527 1.64,-0.527 0.551,-0.176 0.555,-0.176 1.117,-0.351 0.562,-0.176 1.133,-0.352 1.141,-0.351 0.578,-0.18 0.574,-0.176 1.164,-0.351 0.586,-0.176 1.18,-0.352 0.594,-0.179 0.597,-0.176 1.203,-0.352 1.211,-0.351 0.614,-0.18 0.613,-0.176 1.234,-0.351 0.621,-0.176 0.625,-0.18 1.258,-0.351 1.274,-0.352 0.636,-0.18 1.289,-0.351 0.649,-0.176 0.652,-0.18 0.653,-0.175 0.66,-0.176 0.66,-0.18 1.328,-0.351 0.672,-0.176 0.672,-0.18 0.675,-0.176 0.68,-0.176 0.68,-0.179 1.375,-0.352 0.691,-0.179 0.696,-0.176 0.699,-0.176 0.699,-0.18 0.703,-0.175 1.422,-0.352 0.715,-0.18 0.715,-0.176 0.722,-0.175 0.723,-0.18 0.73,-0.176 0.731,-0.179 0.734,-0.176 0.739,-0.176 0.738,-0.18 1.492,-0.351 0.754,-0.18 0.754,-0.176 0.758,-0.179 0.761,-0.176 0.766,-0.18 0.77,-0.176 0.773,-0.175 0.777,-0.18 0.778,-0.176 0.785,-0.176 0.785,-0.179 0.793,-0.176 0.793,-0.18 0.797,-0.176 0.801,-0.179 0.804,-0.176 0.813,-0.176 0.812,-0.18 0.817,-0.175 0.816,-0.18 0.828,-0.176 0.824,-0.18 0.832,-0.175 0.836,-0.18 0.84,-0.176 0.844,-0.176 0.848,-0.179 0.851,-0.176 0.856,-0.18 0.859,-0.175 0.863,-0.18 0.864,-0.176 0.871,-0.18 0.875,-0.175 0.879,-0.18 0.882,-0.176" /><path
         id="path58"
         style="fill:none;stroke:#ff0000;stroke-width:0.80000001;stroke-linecap:square;stroke-linejoin:bevel;stroke-miterlimit:4;stroke-dasharray:none;stroke-opacity:1"
         d="m 124.32,180.531 7.543,0 0.043,-0.004 0.727,0 0.047,-0.004 0.386,0 0.051,-0.004 0.301,0 0.051,-0.004 0.203,0 0.055,-0.003 0.156,0 0.055,-0.004 0.105,0 0.055,-0.004 0.109,0 0.055,-0.004 0.109,0 0.055,-0.004 0.054,0 0.055,-0.004 0.059,0 0.054,-0.004 0.059,0 0.055,-0.004 0.058,0 0.055,-0.004 0.059,-0.004 0.058,0 0.117,-0.007 0.059,0 0.176,-0.012 0.062,-0.004 0.059,-0.004 0.062,-0.004 0.059,-0.004 0.062,-0.004 0.059,-0.004 0.188,-0.011 0.062,-0.008 0.063,-0.004 0.062,-0.008 0.063,-0.004 0.062,-0.008 0.066,-0.003 0.063,-0.008 0.066,-0.008 0.063,-0.008 0.133,-0.016 0.062,-0.007 0.067,-0.008 0.066,-0.012 0.066,-0.008 0.067,-0.011 0.07,-0.012 0.066,-0.008 0.067,-0.012 0.07,-0.015 0.067,-0.012 0.07,-0.012 0.066,-0.015 0.071,-0.012 0.211,-0.047 0.07,-0.019 0.07,-0.016 0.071,-0.02 0.074,-0.019 0.14,-0.039 0.075,-0.024 0.074,-0.019 0.074,-0.024 0.07,-0.027 0.075,-0.023 0.148,-0.055 0.078,-0.027 0.149,-0.063 0.078,-0.031 0.074,-0.035 0.078,-0.032 0.078,-0.039 0.074,-0.035 0.157,-0.078 0.078,-0.043 0.082,-0.043 0.078,-0.043 0.078,-0.047 0.082,-0.047 0.078,-0.05 0.164,-0.102 0.082,-0.055 0.082,-0.058 0.082,-0.055 0.082,-0.062 0.082,-0.059 0.082,-0.066 0.086,-0.063 0.082,-0.07 0.086,-0.067 0.086,-0.074 0.082,-0.07 0.09,-0.078 0.086,-0.075 0.086,-0.082 0.086,-0.078 0.086,-0.086 0.09,-0.082 0.086,-0.089 0.179,-0.18 0.09,-0.094 0.086,-0.094 0.094,-0.097 0.18,-0.203 0.089,-0.106 0.188,-0.211 0.09,-0.109 0.281,-0.34 0.094,-0.117 0.097,-0.121 0.188,-0.243 0.195,-0.25 0.196,-0.257 0.293,-0.399 0.101,-0.137 0.098,-0.136 0.101,-0.141 0.102,-0.137 0.101,-0.144 0.102,-0.141 0.203,-0.289 0.102,-0.148 0.105,-0.149 0.102,-0.148 0.105,-0.149 0.317,-0.457 0.105,-0.156 0.109,-0.152 0.106,-0.156 0.109,-0.161 0.11,-0.156 0.109,-0.16 0.109,-0.156 0.11,-0.164 0.109,-0.16 0.113,-0.161 0.11,-0.164 0.113,-0.16 0.109,-0.164 0.114,-0.164 0.117,-0.168 0.113,-0.164 0.113,-0.168 0.114,-0.164 0.586,-0.84 0.117,-0.172 0.117,-0.168 0.121,-0.172 0.121,-0.168 0.485,-0.687 0.125,-0.172 0.121,-0.172 0.25,-0.344 0.125,-0.175 0.25,-0.344 0.129,-0.176 0.125,-0.176 0.129,-0.172 0.128,-0.175 0.129,-0.172 0.129,-0.176 0.133,-0.176 0.129,-0.176 0.664,-0.878 0.137,-0.176 0.133,-0.176 0.546,-0.703 0.141,-0.176 0.137,-0.18 0.422,-0.527 0.14,-0.18 0.145,-0.175 0.14,-0.176 0.145,-0.18 0.145,-0.176 0.144,-0.179 0.148,-0.176 0.145,-0.176 0.148,-0.18 0.145,-0.175 0.148,-0.18 0.149,-0.176 0.152,-0.18 0.149,-0.175 0.152,-0.18 0.152,-0.176 0.153,-0.179 0.152,-0.176 0.156,-0.18 0.153,-0.176 0.312,-0.359 0.156,-0.176 0.157,-0.18 0.16,-0.175 0.156,-0.18 0.16,-0.176 0.16,-0.179 0.164,-0.18 0.161,-0.176 0.328,-0.359 0.164,-0.176 0.164,-0.18 0.164,-0.176 0.336,-0.359 0.168,-0.176 0.336,-0.359 0.172,-0.176 0.343,-0.359 0.172,-0.176 0.172,-0.18 0.176,-0.179 0.176,-0.176 0.351,-0.36 0.535,-0.535 0.18,-0.176 0.18,-0.179 0.183,-0.18 0.184,-0.176 0.18,-0.179 0.187,-0.18 0.184,-0.18 0.187,-0.176 0.184,-0.179 0.187,-0.18 0.192,-0.176 0.187,-0.179 0.192,-0.18 0.191,-0.176 0.383,-0.359 0.195,-0.18 0.195,-0.176 0.391,-0.359 0.199,-0.176 0.399,-0.359 0.199,-0.176 0.199,-0.18 0.406,-0.359 0.204,-0.176 0.203,-0.18 0.207,-0.179 0.207,-0.176 0.207,-0.18 0.211,-0.179 0.207,-0.18 0.211,-0.176 0.211,-0.18 0.214,-0.179 0.211,-0.176 0.43,-0.359 0.219,-0.18 0.215,-0.176 0.218,-0.18 0.223,-0.179 0.219,-0.176 0.668,-0.539 0.222,-0.176 0.68,-0.539 0.231,-0.176 0.461,-0.359 0.23,-0.176 0.703,-0.539 0.238,-0.176 0.235,-0.179 0.238,-0.18 0.242,-0.176 0.239,-0.18 0.484,-0.359 0.246,-0.176 0.492,-0.359 0.246,-0.176 0.75,-0.539 0.25,-0.176 0.508,-0.359 0.258,-0.18 0.258,-0.176 0.254,-0.179 0.261,-0.18 0.262,-0.176 0.258,-0.179 0.266,-0.18 0.261,-0.18 0.266,-0.176 0.265,-0.179 0.54,-0.36 0.269,-0.175 0.27,-0.18 0.273,-0.18 0.274,-0.176 0.273,-0.179 0.555,-0.36 0.281,-0.175 0.281,-0.18 0.277,-0.18 0.286,-0.176 0.855,-0.539 0.289,-0.175 0.578,-0.36 0.293,-0.179 0.293,-0.176 0.594,-0.36 0.297,-0.175 0.297,-0.18 0.601,-0.359 0.305,-0.176 0.609,-0.36 0.309,-0.175 0.617,-0.36 0.313,-0.179 0.312,-0.176 0.949,-0.539 0.317,-0.176 0.32,-0.18 0.324,-0.179 0.325,-0.176 0.648,-0.36 0.328,-0.179 0.328,-0.176 0.664,-0.359 0.336,-0.18 0.332,-0.176 0.34,-0.18 0.336,-0.179 0.34,-0.176 1.031,-0.539 0.348,-0.176 0.695,-0.359 0.352,-0.18 0.355,-0.176 0.352,-0.179 0.355,-0.18 0.36,-0.176 0.718,-0.359 0.364,-0.18 0.367,-0.176 0.363,-0.179 0.367,-0.18 0.371,-0.18 0.371,-0.176 0.371,-0.179 0.375,-0.18 0.379,-0.176 0.375,-0.179 0.383,-0.18 0.379,-0.18 0.387,-0.176 0.383,-0.179 0.386,-0.18 0.391,-0.18 0.391,-0.175 0.39,-0.18 0.395,-0.18 0.398,-0.176 0.395,-0.179 0.402,-0.18 0.399,-0.176 0.406,-0.179 0.402,-0.18 0.406,-0.18 0.41,-0.176 0.411,-0.179 0.828,-0.36 0.418,-0.175 0.418,-0.18 0.422,-0.18 0.421,-0.176 0.422,-0.179 0.426,-0.18 0.43,-0.18 0.43,-0.175 0.867,-0.36 0.437,-0.179 0.438,-0.176 0.882,-0.36 0.442,-0.175 1.348,-0.539 0.453,-0.176 0.453,-0.18 0.914,-0.359 0.465,-0.176 0.461,-0.18 0.464,-0.179 0.469,-0.176 0.469,-0.18 0.945,-0.359 0.477,-0.176 0.476,-0.18 0.481,-0.179 0.484,-0.18 0.485,-0.176 0.976,-0.359 0.492,-0.176 1.489,-0.539 0.5,-0.176 0.504,-0.18 1.015,-0.359 0.508,-0.176 0.516,-0.179 0.511,-0.18 0.52,-0.176 0.519,-0.18 1.047,-0.359 0.528,-0.176 0.527,-0.179 0.531,-0.18 0.535,-0.18 0.539,-0.176 1.079,-0.359 0.546,-0.176 1.094,-0.359 0.551,-0.18 0.555,-0.176 1.117,-0.359 0.562,-0.18 0.567,-0.175 0.566,-0.18 0.57,-0.18 0.571,-0.176 0.578,-0.179 0.574,-0.18 0.582,-0.18 0.582,-0.175 0.586,-0.18 0.59,-0.18 0.59,-0.176 0.594,-0.179 0.597,-0.18 0.602,-0.18 0.601,-0.175 1.211,-0.36 0.614,-0.18 0.613,-0.175 1.234,-0.36 0.621,-0.175 0.625,-0.18 1.258,-0.36 0.637,-0.175 1.273,-0.36 0.645,-0.179 0.644,-0.176 0.649,-0.18 0.652,-0.18 0.653,-0.175 1.32,-0.36 0.664,-0.179 0.664,-0.176 1.344,-0.36 0.675,-0.179 0.68,-0.176 0.68,-0.18 0.687,-0.179 0.688,-0.176 0.691,-0.18 0.696,-0.18 0.699,-0.179 0.699,-0.176 0.703,-0.18 1.422,-0.359 0.715,-0.176 0.715,-0.18 0.722,-0.179 0.723,-0.176 1.461,-0.359 0.734,-0.18 0.739,-0.176 0.738,-0.18 1.492,-0.359 0.754,-0.176 0.754,-0.179 0.758,-0.18 0.761,-0.176 0.766,-0.18 0.77,-0.179 0.773,-0.18 0.777,-0.176 0.778,-0.179 1.57,-0.36 0.793,-0.176 0.793,-0.179 0.797,-0.18 0.801,-0.176 0.804,-0.179 1.625,-0.36 0.817,-0.176 0.816,-0.179 0.828,-0.18 0.824,-0.18 0.832,-0.175 0.836,-0.18 0.84,-0.18 0.844,-0.176 0.848,-0.179 0.851,-0.18 0.856,-0.18 0.859,-0.175 1.727,-0.36 0.871,-0.179 0.875,-0.176 0.879,-0.18 0.882,-0.18" /><path
         id="path60"
         style="fill:none;stroke:#ff00ff;stroke-width:0.80000001;stroke-linecap:square;stroke-linejoin:bevel;stroke-miterlimit:4;stroke-dasharray:none;stroke-opacity:1"
         d="m 124.32,180.293 0.008,0 0.008,-0.004 0.012,0 0.007,-0.004 0.008,0 0.012,-0.004 0.008,0 0.008,-0.004 0.011,0 0.008,-0.004 0.012,0 0.008,-0.004 0.008,0 0.011,-0.004 0.008,-0.003 0.012,0 0.008,-0.004 0.011,0 0.008,-0.004 0.008,0 0.012,-0.004 0.007,0 0.012,-0.004 0.008,-0.004 0.012,0 0.011,-0.004 0.008,0 0.012,-0.004 0.008,-0.004 0.011,0 0.008,-0.004 0.012,0 0.012,-0.004 0.008,-0.003 0.011,0 0.012,-0.004 0.008,-0.004 0.012,0 0.011,-0.004 0.008,-0.004 0.012,0 0.011,-0.004 0.012,0 0.012,-0.004 0.008,-0.004 0.011,0 0.024,-0.008 0.008,0 0.035,-0.011 0.012,0 0.023,-0.008 0.012,0 0.023,-0.008 0.012,0 0.012,-0.004 0.007,-0.004 0.016,-0.004 0.012,0 0.035,-0.011 0.012,0 0.035,-0.012 0.011,0 0.012,-0.004 0.016,-0.004 0.012,-0.004 0.011,0 0.024,-0.008 0.015,-0.004 0.012,-0.003 0.012,0 0.012,-0.004 0.015,-0.004 0.024,-0.008 0.015,0 0.024,-0.008 0.015,-0.004 0.012,-0.004 0.016,-0.004 0.011,0 0.016,-0.004 0.012,-0.003 0.015,-0.004 0.012,-0.004 0.016,-0.004 0.011,0 0.016,-0.004 0.012,-0.004 0.015,-0.004 0.012,-0.004 0.031,-0.008 0.012,0 0.031,-0.007 0.012,-0.004 0.047,-0.012 0.012,-0.004 0.015,-0.004 0.016,0 0.031,-0.008 0.012,-0.004 0.094,-0.023 0.015,0 0.125,-0.031 0.02,-0.004 0.031,-0.008 0.016,0 0.015,-0.004 0.02,-0.004 0.031,-0.008 0.019,-0.003 0.032,-0.008 0.019,-0.004 0.032,-0.008 0.019,-0.004 0.016,-0.004 0.019,0 0.016,-0.004 0.019,-0.004 0.016,-0.004 0.039,-0.007 0.016,-0.004 0.019,-0.004 0.016,-0.004 0.039,-0.008 0.016,0 0.058,-0.012 0.016,-0.004 0.078,-0.015 0.019,0 0.059,-0.012 0.016,-0.004 0.023,-0.004 0.02,0 0.097,-0.019 0.02,0 0.023,-0.004 0.059,-0.012 0.023,0 0.039,-0.008 0.024,-0.004 0.019,0 0.02,-0.003 0.047,-0.008 0.019,0 0.02,-0.004 0.023,-0.004 0.024,0 0.019,-0.004 0.024,-0.004 0.019,0 0.047,-0.008 0.023,0 0.02,-0.004 0.023,0 0.024,-0.004 0.023,0 0.047,-0.007 0.024,0 0.023,-0.004 0.02,0 0.023,-0.004 0.047,0 0.027,-0.004 0.024,0 0.023,-0.004 0.024,0 0.023,-0.004 0.051,0 0.023,-0.004 0.074,0 0.024,-0.004 0.101,0 0.028,-0.004 0.343,0 0.028,0.004 0.082,0 0.027,0.004 0.086,0 0.027,0.004 0.032,0 0.027,0.004 0.027,0 0.028,0.004 0.031,0 0.027,0.004 0.032,0 0.027,0.004 0.031,0.004 0.031,0 0.028,0.004 0.062,0.007 0.028,0 0.343,0.043 0.032,0.008 0.062,0.008 0.035,0.008 0.063,0.008 0.035,0.007 0.031,0.004 0.035,0.008 0.032,0.004 0.07,0.016 0.031,0.004 0.07,0.015 0.032,0.004 0.351,0.078 0.039,0.008 0.036,0.012 0.07,0.015 0.039,0.008 0.035,0.012 0.039,0.008 0.035,0.011 0.039,0.008 0.039,0.012 0.036,0.008 0.039,0.012 0.039,0.007 0.039,0.012 0.035,0.008 0.078,0.023 0.039,0.008 0.078,0.024 0.039,0.007 0.039,0.012 0.043,0.012 0.078,0.023 0.043,0.008 0.079,0.023 0.042,0.012 0.04,0.012 0.043,0.012 0.043,0.007 0.039,0.012 0.128,0.035 0.04,0.012 0.046,0.008 0.039,0.012 0.043,0.011 0.047,0.012 0.043,0.008 0.086,0.023 0.047,0.008 0.043,0.012 0.043,0.008 0.047,0.011 0.043,0.008 0.047,0.008 0.043,0.012 0.14,0.023 0.043,0.008 0.188,0.031 0.047,0.004 0.047,0.008 0.05,0.004 0.047,0.008 0.047,0.004 0.051,0.003 0.047,0.004 0.051,0.004 0.046,0.004 0.051,0 0.047,0.004 0.305,0 0.101,-0.008 0.051,0 0.051,-0.004 0.055,-0.004 0.05,-0.007 0.055,-0.004 0.051,-0.008 0.055,-0.008 0.05,-0.008 0.11,-0.015 0.054,-0.012 0.055,-0.008 0.219,-0.047 0.054,-0.015 0.055,-0.012 0.059,-0.016 0.054,-0.015 0.059,-0.016 0.055,-0.016 0.058,-0.015 0.055,-0.02 0.059,-0.015 0.058,-0.02 0.059,-0.016 0.293,-0.097 0.062,-0.02 0.059,-0.023 0.062,-0.02 0.059,-0.019 0.062,-0.02 0.059,-0.023 0.5,-0.156 0.066,-0.02 0.063,-0.016 0.066,-0.019 0.063,-0.016 0.133,-0.031 0.062,-0.016 0.266,-0.047 0.07,-0.011 0.066,-0.008 0.067,-0.004 0.07,-0.008 0.067,-0.004 0.07,-0.004 0.137,0 0.07,0.004 0.07,0 0.211,0.024 0.071,0.011 0.074,0.012 0.07,0.016 0.07,0.019 0.075,0.016 0.148,0.047 0.07,0.027 0.149,0.055 0.074,0.031 0.078,0.035 0.074,0.035 0.075,0.04 0.078,0.039 0.074,0.039 0.156,0.086 0.074,0.043 0.157,0.085 0.078,0.04 0.082,0.039 0.078,0.039 0.078,0.031 0.082,0.031 0.078,0.024 0.082,0.015 0.082,0.008 0.082,0 0.082,-0.012 0.082,-0.023 0.082,-0.039 0.082,-0.055 0.082,-0.07 0.086,-0.09 0.082,-0.105 0.086,-0.129 0.086,-0.149 0.082,-0.164 0.09,-0.191 0.086,-0.207 0.086,-0.227 0.086,-0.242 0.086,-0.262 0.09,-0.277 0.086,-0.289 0.09,-0.305 0.089,-0.312 0.09,-0.325 0.086,-0.332 0.094,-0.336 0.09,-0.343 0.09,-0.348 0.089,-0.352 0.188,-0.71 0.09,-0.356 0.375,-1.422 0.097,-0.355 0.094,-0.352 0.094,-0.348 0.195,-0.695 0.098,-0.34 0.098,-0.343 0.293,-1.008 0.101,-0.328 0.098,-0.328 0.101,-0.329 0.305,-0.961 0.102,-0.316 0.101,-0.312 0.102,-0.309 0.105,-0.309 0.102,-0.308 0.105,-0.301 0.106,-0.305 0.316,-0.89 0.109,-0.293 0.106,-0.293 0.109,-0.289 0.328,-0.856 0.11,-0.281 0.109,-0.277 0.113,-0.282 0.11,-0.273 0.113,-0.277 0.109,-0.274 0.114,-0.269 0.117,-0.274 0.113,-0.265 0.113,-0.27 0.114,-0.266 0.117,-0.261 0.117,-0.266 0.117,-0.262 0.118,-0.257 0.117,-0.262 0.117,-0.258 0.117,-0.254 0.121,-0.258 0.242,-0.508 0.364,-0.75 0.125,-0.25 0.121,-0.246 0.125,-0.25 0.125,-0.242 0.125,-0.246 0.125,-0.242 0.125,-0.246 0.129,-0.238 0.125,-0.243 0.129,-0.242 0.386,-0.715 0.133,-0.234 0.129,-0.238 0.266,-0.469 0.132,-0.231 0.133,-0.234 0.133,-0.23 0.137,-0.235 0.133,-0.23 0.136,-0.231 0.137,-0.226 0.137,-0.231 0.136,-0.226 0.141,-0.227 0.137,-0.226 0.281,-0.454 0.141,-0.222 0.14,-0.227 0.145,-0.222 0.14,-0.223 0.29,-0.445 0.144,-0.219 0.148,-0.223 0.145,-0.219 0.148,-0.222 0.145,-0.219 0.297,-0.437 0.152,-0.215 0.149,-0.219 0.152,-0.215 0.152,-0.219 0.305,-0.429 0.156,-0.215 0.153,-0.215 0.312,-0.43 0.156,-0.211 0.157,-0.215 0.16,-0.21 0.156,-0.211 0.32,-0.422 0.164,-0.211 0.161,-0.211 0.328,-0.422 0.164,-0.207 0.164,-0.211 0.164,-0.207 0.168,-0.211 0.672,-0.828 0.343,-0.414 0.172,-0.203 0.344,-0.414 0.176,-0.203 0.176,-0.207 0.527,-0.61 0.18,-0.207 0.359,-0.406 0.18,-0.199 0.367,-0.407 0.18,-0.203 0.187,-0.199 0.184,-0.203 0.187,-0.203 0.184,-0.199 0.187,-0.2 0.192,-0.203 0.187,-0.199 0.766,-0.797 0.781,-0.797 0.199,-0.199 0.2,-0.195 0.398,-0.399 0.199,-0.195 0.203,-0.199 0.407,-0.391 0.203,-0.199 0.414,-0.391 0.207,-0.199 0.211,-0.195 0.207,-0.196 0.422,-0.39 0.214,-0.195 0.211,-0.196 0.215,-0.195 0.215,-0.192 0.219,-0.195 0.215,-0.195 0.218,-0.195 0.223,-0.192 0.219,-0.195 0.222,-0.192 0.446,-0.39 0.222,-0.192 0.227,-0.191 0.227,-0.195 0.226,-0.192 0.231,-0.191 0.23,-0.195 0.461,-0.383 0.469,-0.383 0.234,-0.195 0.238,-0.192 0.235,-0.191 0.238,-0.192 0.242,-0.191 0.239,-0.191 0.242,-0.188 0.242,-0.191 0.738,-0.575 0.246,-0.187 0.5,-0.383 0.25,-0.187 0.25,-0.192 0.254,-0.191 0.254,-0.188 0.258,-0.191 0.258,-0.188 0.254,-0.191 0.261,-0.187 0.262,-0.192 0.258,-0.187 0.266,-0.188 0.261,-0.191 0.531,-0.375 0.27,-0.192 0.809,-0.562 0.547,-0.375 0.273,-0.192 0.555,-0.375 0.562,-0.375 0.277,-0.187 1.141,-0.75 0.289,-0.184 0.578,-0.375 0.586,-0.375 0.297,-0.187 0.297,-0.184 0.594,-0.375 0.301,-0.187 0.3,-0.184 0.61,-0.375 0.304,-0.183 0.309,-0.188 0.309,-0.184 0.308,-0.187 0.313,-0.188 0.312,-0.183 0.317,-0.188 0.316,-0.183 0.316,-0.188 0.317,-0.183 0.32,-0.188 0.649,-0.367 0.324,-0.188 0.324,-0.183 0.328,-0.184 0.328,-0.187 0.332,-0.184 0.332,-0.187 0.336,-0.184 0.332,-0.184 0.34,-0.187 0.336,-0.184 0.34,-0.183 0.687,-0.367 0.344,-0.188 1.043,-0.551 0.352,-0.183 0.355,-0.184 0.352,-0.183 0.355,-0.188 1.078,-0.551 0.364,-0.183 0.367,-0.184 0.363,-0.184 0.367,-0.183 1.113,-0.551 0.375,-0.183 0.379,-0.184 0.375,-0.184 0.383,-0.183 0.379,-0.184 0.387,-0.183 0.383,-0.184 0.386,-0.18 1.172,-0.551 0.395,-0.183 0.398,-0.184 0.395,-0.183 0.402,-0.18 0.399,-0.184 0.406,-0.183 0.402,-0.184 0.406,-0.179 0.821,-0.368 0.414,-0.183 0.414,-0.18 0.836,-0.367 0.422,-0.184 0.421,-0.179 0.422,-0.184 0.426,-0.184 0.43,-0.179 0.43,-0.184 0.433,-0.183 0.434,-0.18 0.875,-0.367 0.441,-0.18 0.441,-0.184 0.442,-0.179 0.898,-0.367 0.45,-0.18 0.453,-0.184 0.453,-0.179 0.457,-0.184 0.457,-0.18 0.465,-0.183 0.461,-0.184 0.464,-0.18 0.469,-0.179 0.469,-0.184 0.473,-0.18 0.472,-0.183 0.477,-0.18 0.476,-0.183 0.481,-0.18 0.484,-0.184 0.485,-0.179 0.488,-0.184 0.488,-0.18 0.492,-0.183 0.993,-0.36 0.496,-0.183 0.5,-0.18 0.504,-0.184 1.015,-0.359 0.508,-0.184 0.516,-0.179 0.511,-0.184 1.039,-0.359 0.524,-0.184 0.523,-0.179 0.528,-0.18 0.527,-0.184 0.531,-0.179 0.535,-0.18 0.539,-0.184 1.079,-0.359 0.546,-0.184 1.094,-0.359 0.551,-0.184 0.555,-0.179 1.117,-0.36 0.562,-0.183 1.133,-0.36 0.57,-0.179 0.571,-0.184 0.578,-0.18 0.574,-0.179 0.582,-0.18 0.582,-0.184 0.586,-0.179 1.18,-0.36 0.594,-0.183 0.597,-0.18 1.203,-0.359 1.211,-0.36 0.614,-0.183 0.613,-0.18 1.234,-0.359 0.621,-0.18 0.625,-0.18 0.629,-0.183 0.629,-0.18 1.91,-0.539 1.289,-0.359 0.649,-0.184 1.305,-0.359 1.32,-0.36 1.328,-0.359 0.672,-0.18 0.672,-0.183 0.675,-0.18 1.36,-0.36 1.375,-0.359 0.691,-0.18 0.696,-0.179 1.398,-0.36 0.703,-0.179 0.711,-0.18 0.711,-0.184 1.43,-0.359 1.445,-0.359 1.461,-0.36 0.734,-0.179 1.477,-0.36 1.492,-0.359 1.508,-0.36 0.758,-0.179 0.761,-0.18 0.766,-0.18 0.77,-0.179 0.773,-0.18 1.555,-0.359 1.57,-0.36 1.586,-0.359 0.797,-0.18 0.801,-0.179 0.804,-0.18 1.625,-0.36 1.633,-0.359 0.828,-0.18 0.824,-0.179 0.832,-0.18 0.836,-0.18 0.84,-0.179 0.844,-0.18 0.848,-0.18 0.851,-0.179 0.856,-0.18 0.859,-0.18 0.863,-0.179 0.864,-0.176 0.871,-0.184 0.875,-0.176 0.879,-0.179 0.882,-0.18" /><path
         id="path62"
         style="fill:none;stroke:#00ff00;stroke-width:0.80000001;stroke-linecap:square;stroke-linejoin:bevel;stroke-miterlimit:4;stroke-dasharray:none;stroke-opacity:1"
         d="m 124.32,180.426 0.008,0 0.008,-0.004 0.027,0 0.012,-0.004 0.027,0 0.008,-0.004 0.028,0 0.011,-0.004 0.028,0 0.011,-0.004 0.016,0 0.012,-0.004 0.027,0 0.012,-0.004 0.019,0 0.012,-0.004 0.019,0 0.008,-0.004 0.024,0 0.008,-0.003 0.023,0 0.008,-0.004 0.031,0 0.012,-0.004 0.011,0 0.012,-0.004 0.02,0 0.011,-0.004 0.024,0 0.008,-0.004 0.023,0 0.012,-0.004 0.023,0 0.012,-0.004 0.012,0 0.011,-0.004 0.024,0 0.012,-0.004 0.023,0 0.012,-0.004 0.011,0 0.012,-0.003 0.012,0 0.012,-0.004 0.023,0 0.012,-0.004 0.011,0 0.012,-0.004 0.028,0 0.011,-0.004 0.012,0 0.012,-0.004 0.015,0 0.012,-0.004 0.012,0 0.012,-0.004 0.015,0 0.012,-0.004 0.027,0 0.012,-0.004 0.012,0 0.015,-0.004 0.012,0 0.016,-0.003 0.011,0 0.016,-0.004 0.012,0 0.015,-0.004 0.012,0 0.016,-0.004 0.011,0 0.016,-0.004 0.012,0 0.015,-0.004 0.012,0 0.016,-0.004 0.015,0 0.012,-0.004 0.016,-0.004 0.015,0 0.012,-0.004 0.016,0 0.015,-0.003 0.016,0 0.012,-0.004 0.015,0 0.031,-0.008 0.016,0 0.012,-0.004 0.015,0 0.016,-0.004 0.016,0 0.031,-0.008 0.016,0 0.015,-0.004 0.016,0 0.031,-0.008 0.016,0 0.031,-0.007 0.016,0 0.015,-0.004 0.02,0 0.031,-0.008 0.016,0 0.015,-0.004 0.02,-0.004 0.015,0 0.016,-0.004 0.019,-0.004 0.016,0 0.016,-0.004 0.019,-0.004 0.016,0 0.016,-0.003 0.019,-0.004 0.016,-0.004 0.019,0 0.016,-0.004 0.019,-0.004 0.016,0 0.039,-0.008 0.016,-0.004 0.019,0 0.016,-0.004 0.019,-0.004 0.02,0 0.016,-0.003 0.039,-0.008 0.019,0 0.016,-0.004 0.058,-0.012 0.02,0 0.058,-0.012 0.02,0 0.016,-0.004 0.023,-0.003 0.039,-0.008 0.02,0 0.078,-0.016 0.023,-0.004 0.02,0 0.039,-0.008 0.023,-0.004 0.039,-0.007 0.024,0 0.039,-0.008 0.047,-0.008 0.019,-0.004 0.02,0 0.047,-0.008 0.019,-0.004 0.024,-0.003 0.019,-0.004 0.047,-0.008 0.023,0 0.02,-0.004 0.164,-0.027 0.02,0 0.023,-0.004 0.027,-0.004 0.02,-0.004 0.027,-0.004 0.094,-0.016 0.027,-0.004 0.024,0 0.047,-0.007 0.027,-0.004 0.047,-0.008 0.027,-0.004 0.024,-0.004 0.027,-0.004 0.023,-0.004 0.028,-0.004 0.027,0 0.024,-0.004 0.054,-0.007 0.024,-0.004 0.082,-0.012 0.023,-0.004 0.027,-0.004 0.028,0 0.191,-0.027 0.028,0 0.031,-0.004 0.054,-0.008 0.032,-0.004 0.054,-0.008 0.028,0 0.031,-0.004 0.027,-0.003 0.032,-0.004 0.027,-0.004 0.031,-0.004 0.031,0 0.028,-0.004 0.062,-0.008 0.028,0 0.093,-0.012 0.032,0 0.093,-0.011 0.032,0 0.062,-0.008 0.031,0 0.063,-0.008 0.031,0 0.035,-0.004 0.032,-0.004 0.031,0 0.035,-0.004 0.031,0 0.035,-0.004 0.032,-0.003 0.035,0 0.035,-0.004 0.031,0 0.035,-0.004 0.035,0 0.032,-0.004 0.07,0 0.035,-0.004 0.035,0 0.036,-0.004 0.07,0 0.035,-0.004 0.109,0 0.036,-0.004 0.144,0 0.039,-0.004 0.379,0 0.039,0.004 0.117,0 0.039,0.004 0.082,0 0.039,0.004 0.082,0 0.04,0.004 0.042,0 0.04,0.004 0.043,0 0.043,0.004 0.039,0.004 0.043,0 0.085,0.007 0.04,0.004 0.046,0.004 0.039,0 0.043,0.004 0.047,0.004 0.129,0.012 0.047,0.008 0.086,0.007 0.047,0.004 0.043,0.008 0.047,0.004 0.043,0.004 0.047,0.008 0.046,0.004 0.047,0.007 0.043,0.004 0.141,0.024 0.047,0.004 0.094,0.015 0.05,0.008 0.094,0.016 0.051,0.008 0.047,0.007 0.051,0.008 0.046,0.012 0.051,0.008 0.047,0.008 0.051,0.011 0.051,0.008 0.05,0.012 0.051,0.008 0.051,0.011 0.051,0.008 0.152,0.035 0.051,0.008 0.055,0.012 0.05,0.012 0.055,0.011 0.051,0.012 0.055,0.012 0.05,0.011 0.11,0.024 0.054,0.016 0.164,0.035 0.055,0.015 0.164,0.035 0.059,0.016 0.054,0.012 0.059,0.012 0.055,0.015 0.058,0.012 0.055,0.012 0.059,0.015 0.41,0.082 0.062,0.012 0.059,0.012 0.062,0.011 0.059,0.012 0.062,0.008 0.059,0.012 0.375,0.047 0.125,0.007 0.066,0.004 0.063,0.004 0.066,0.004 0.258,0 0.266,-0.016 0.07,-0.007 0.133,-0.016 0.07,-0.012 0.067,-0.011 0.07,-0.012 0.066,-0.012 0.141,-0.031 0.07,-0.02 0.071,-0.015 0.07,-0.02 0.07,-0.023 0.071,-0.02 0.074,-0.023 0.14,-0.047 0.075,-0.024 0.074,-0.027 0.074,-0.023 0.07,-0.028 0.075,-0.027 0.074,-0.023 0.074,-0.028 0.078,-0.027 0.149,-0.047 0.078,-0.023 0.074,-0.024 0.156,-0.039 0.074,-0.016 0.157,-0.023 0.078,-0.008 0.16,0 0.078,0.004 0.082,0.012 0.078,0.015 0.082,0.024 0.082,0.027 0.082,0.035 0.082,0.039 0.082,0.047 0.082,0.055 0.082,0.062 0.082,0.067 0.086,0.066 0.082,0.067 0.086,0.062 0.086,0.055 0.082,0.031 0.09,0 0.086,-0.043 0.086,-0.101 0.086,-0.184 0.086,-0.277 0.09,-0.387 0.086,-0.496 0.09,-0.61 0.089,-0.71 0.09,-0.797 0.086,-0.868 0.094,-0.929 0.09,-0.969 0.09,-1 0.089,-1.027 0.094,-1.043 0.094,-1.063 0.09,-1.082 0.094,-1.097 0.093,-1.114 0.094,-1.14 0.094,-1.164 0.097,-1.204 0.094,-1.242 0.094,-1.293 0.098,-1.363 0.097,-1.445 0.098,-1.555 0.098,-1.699 0.097,-1.903 0.098,-2.199 0.098,-2.66 0.101,-3.5 0.098,-5.453 0.101,-18.074 0.102,15.312 0.101,5.387 0.102,2.824 0.102,1.84 0.101,1.309 0.102,0.98 0.105,0.758 0.102,0.594 0.105,0.472 0.106,0.371 0.105,0.297 0.106,0.231 0.105,0.179 0.109,0.129 0.106,0.09 0.109,0.059 0.11,0.023 0.109,-0.004 0.109,-0.031 0.11,-0.051 0.109,-0.074 0.113,-0.094 0.11,-0.109 0.113,-0.133 0.109,-0.144 0.114,-0.164 0.117,-0.18 0.113,-0.192 0.113,-0.211 0.114,-0.226 0.117,-0.238 0.117,-0.254 0.117,-0.274 0.118,-0.285 0.117,-0.305 0.117,-0.32 0.117,-0.34 0.121,-0.359 0.121,-0.379 0.121,-0.398 0.121,-0.426 0.122,-0.449 0.121,-0.477 0.125,-0.508 0.121,-0.547 0.125,-0.582 0.125,-0.629 0.125,-0.679 0.125,-0.739 0.125,-0.816 0.129,-0.902 0.125,-1.016 0.129,-1.156 0.128,-1.344 0.129,-1.613 0.129,-2.012 0.133,-2.691 0.129,-4.102 0.133,-9.047 0.133,1.328 0.132,8.032 0.133,3.82 0.133,2.519 0.137,1.875 0.133,1.489 0.136,1.23 0.137,1.047 0.137,0.91 0.136,0.805 0.141,0.715 0.137,0.644 0.14,0.586 0.141,0.539 0.141,0.492 0.14,0.457 0.145,0.426 0.14,0.395 0.145,0.367 0.145,0.348 0.144,0.328 0.148,0.304 0.145,0.293 0.148,0.274 0.145,0.262 0.148,0.246 0.149,0.234 0.152,0.223 0.149,0.215 0.152,0.203 0.152,0.195 0.153,0.184 0.152,0.179 0.156,0.168 0.153,0.164 0.156,0.157 0.156,0.152 0.313,0.281 0.16,0.133 0.156,0.129 0.32,0.242 0.164,0.113 0.161,0.11 0.164,0.105 0.328,0.203 0.164,0.094 0.164,0.09 0.168,0.09 0.168,0.086 0.168,0.082 0.336,0.156 0.172,0.074 0.343,0.141 0.172,0.066 0.172,0.063 0.352,0.125 0.175,0.054 0.176,0.059 0.176,0.051 0.18,0.054 0.179,0.051 0.36,0.094 0.183,0.043 0.184,0.047 0.18,0.039 0.187,0.043 0.184,0.039 0.187,0.035 0.184,0.035 0.187,0.035 0.192,0.036 0.187,0.031 0.192,0.031 0.191,0.027 0.191,0.032 0.192,0.027 0.195,0.023 0.195,0.028 0.391,0.047 0.199,0.023 0.797,0.078 0.813,0.063 0.207,0.011 0.207,0.016 0.207,0.012 0.211,0.011 0.207,0.012 0.211,0.008 0.211,0.012 0.214,0.008 0.211,0.007 0.215,0.008 0.215,0.004 0.219,0.008 0.215,0.004 0.218,0.004 0.223,0.004 0.219,0.004 0.445,0.007 0.445,0 0.227,0.004 0.453,0 0.231,-0.004 0.461,0 0.23,-0.004 0.469,-0.007 0.234,0 0.238,-0.004 0.235,-0.008 0.238,-0.004 0.242,-0.004 0.239,-0.008 0.242,-0.004 0.242,-0.007 0.984,-0.032 0.5,-0.015 0.25,-0.012 0.25,-0.008 0.254,-0.012 0.254,-0.007 0.516,-0.024 0.254,-0.012 0.523,-0.023 0.258,-0.012 0.266,-0.011 0.261,-0.012 0.266,-0.016 0.265,-0.011 0.27,-0.012 0.539,-0.031 0.27,-0.012 0.82,-0.047 0.555,-0.031 0.562,-0.032 0.277,-0.015 0.286,-0.016 0.285,-0.019 0.285,-0.016 0.285,-0.019 0.289,-0.016 0.289,-0.02 0.289,-0.015 0.586,-0.039 0.297,-0.016 0.891,-0.059 0.601,-0.039 0.914,-0.058 0.309,-0.024 0.617,-0.039 0.313,-0.019 0.312,-0.024 0.317,-0.019 0.316,-0.024 0.316,-0.019 0.317,-0.024 0.32,-0.019 0.649,-0.047 0.324,-0.02 0.324,-0.023 0.656,-0.047 0.664,-0.047 0.336,-0.019 0.332,-0.024 0.34,-0.023 0.336,-0.027 0.34,-0.024 1.031,-0.07 0.695,-0.047 0.348,-0.027 0.352,-0.024 0.355,-0.023 0.352,-0.028 0.355,-0.023 0.36,-0.027 0.359,-0.024 0.359,-0.027 0.364,-0.024 0.367,-0.027 0.363,-0.023 0.367,-0.028 0.371,-0.023 0.742,-0.055 0.375,-0.023 0.379,-0.028 0.375,-0.027 0.383,-0.027 0.379,-0.024 0.387,-0.027 0.383,-0.028 0.386,-0.027 1.172,-0.082 0.395,-0.027 0.398,-0.028 0.395,-0.027 0.402,-0.027 0.399,-0.028 0.406,-0.027 0.402,-0.027 0.406,-0.028 0.41,-0.027 0.411,-0.031 0.828,-0.055 0.836,-0.055 0.422,-0.031 0.843,-0.055 0.426,-0.031 0.86,-0.054 0.433,-0.032 0.434,-0.027 0.437,-0.031 0.438,-0.028 0.441,-0.031 0.883,-0.055 0.449,-0.031 0.449,-0.027 0.45,-0.031 0.453,-0.032 0.453,-0.027 0.457,-0.031 0.457,-0.028 0.465,-0.031 0.461,-0.031 0.464,-0.027 0.938,-0.063 0.473,-0.027 0.472,-0.032 0.477,-0.031 0.476,-0.027 0.481,-0.031 0.969,-0.063 0.488,-0.031 0.488,-0.028 0.492,-0.031 1.489,-0.094 0.5,-0.031 0.504,-0.031 0.507,-0.027 1.016,-0.063 0.516,-0.031 0.511,-0.031 1.039,-0.063 1.047,-0.062 1.055,-0.063 0.531,-0.031 0.535,-0.031 1.618,-0.094 0.546,-0.031 0.547,-0.036 0.547,-0.031 0.551,-0.031 0.555,-0.031 1.117,-0.063 0.562,-0.031 0.567,-0.031 0.566,-0.035 1.141,-0.063 0.578,-0.031 0.574,-0.031 0.582,-0.036 0.582,-0.031 0.586,-0.031 0.59,-0.031 0.59,-0.035 0.594,-0.032 0.597,-0.031 0.602,-0.031 0.601,-0.035 1.211,-0.063 0.614,-0.035 0.613,-0.031 0.617,-0.032 0.617,-0.035 0.621,-0.031 0.625,-0.031 0.629,-0.035 0.629,-0.032 0.637,-0.031 0.637,-0.035 0.636,-0.031 0.645,-0.035 0.644,-0.032 0.649,-0.031 0.652,-0.035 0.653,-0.031 0.66,-0.035 0.66,-0.032 0.664,-0.035 0.664,-0.031 0.672,-0.031 0.672,-0.036 0.675,-0.031 0.68,-0.035 0.68,-0.031 0.687,-0.035 0.688,-0.032 0.691,-0.035 0.696,-0.031 0.699,-0.035 0.699,-0.031 0.703,-0.036 0.711,-0.035 0.711,-0.031 0.715,-0.035 0.715,-0.031 0.722,-0.036 0.723,-0.031 0.73,-0.035 0.731,-0.031 0.734,-0.035 0.739,-0.036 0.738,-0.031 0.746,-0.035 0.746,-0.031 1.508,-0.07 0.758,-0.032 0.761,-0.035 0.766,-0.031 0.77,-0.035 0.773,-0.035 0.777,-0.032 0.778,-0.035 0.785,-0.035 0.785,-0.031 1.586,-0.071 0.797,-0.031 0.801,-0.035 0.804,-0.035 0.813,-0.031 0.812,-0.036 0.817,-0.035 0.816,-0.031 0.828,-0.035 0.824,-0.035 0.832,-0.035 0.836,-0.032 0.84,-0.035 0.844,-0.035 0.848,-0.031 0.851,-0.035 0.856,-0.036 0.859,-0.035 0.863,-0.031 0.864,-0.035 0.871,-0.035 0.875,-0.035 0.879,-0.032 0.882,-0.035" /><path
         id="path64"
         style="fill:#000000;fill-opacity:1;fill-rule:nonzero;stroke:none"
         d="m 124.059,52.066 c 0,2.36 -0.75,3.531 -2.219,3.531 -1.469,0 -2.235,-1.187 -2.235,-3.468 0,-2.297 0.782,-3.469 2.235,-3.469 1.437,0 2.219,1.172 2.219,3.406 z m -0.86,0.078 c 0,-1.922 -0.437,-2.781 -1.375,-2.781 -0.89,0 -1.344,0.891 -1.344,2.75 0,1.875 0.454,2.734 1.36,2.734 0.906,0 1.359,-0.875 1.359,-2.703 z" /><path
         id="path66"
         style="fill:#000000;fill-opacity:1;fill-rule:nonzero;stroke:none"
         d="m 155.305,53.613 c 0,1.141 -0.891,1.984 -2.188,1.984 -1.39,0 -2.187,-0.703 -2.234,-2.359 l 0.844,0 c 0.062,1.141 0.531,1.625 1.375,1.625 0.765,0 1.328,-0.547 1.328,-1.281 0,-0.531 -0.313,-0.985 -0.907,-1.344 l -0.89,-0.5 c -1.422,-0.797 -1.828,-1.437 -1.906,-2.937 l 4.531,0 0,0.828 -3.578,0 c 0.078,0.562 0.39,0.922 1.218,1.406 l 0.969,0.516 c 0.938,0.515 1.438,1.218 1.438,2.062 z" /><path
         id="path68"
         style="fill:#000000;fill-opacity:1;fill-rule:nonzero;stroke:none"
         d="m 160.66,51.082 c 0,0.734 -0.062,1.187 -0.203,1.562 -0.328,0.828 -1.094,1.328 -2.031,1.328 -1.406,0 -2.297,-1.031 -2.297,-2.687 0,-1.656 0.859,-2.625 2.281,-2.625 1.141,0 1.938,0.656 2.141,1.672 l -0.797,0 c -0.219,-0.672 -0.672,-0.938 -1.313,-0.938 -0.843,0 -1.468,0.532 -1.484,1.688 l 3.703,0 z m -0.859,0.719 c 0,0 0,-0.047 0,-0.063 l -2.828,0 c 0.078,0.891 0.64,1.5 1.437,1.5 0.797,0 1.391,-0.656 1.391,-1.437 z" /><path
         id="path70"
         style="fill:#000000;fill-opacity:1;fill-rule:nonzero;stroke:none"
         d="m 165.965,52.363 c 0,2.125 -0.75,3.234 -2.297,3.234 -1.297,0 -2.234,-0.921 -2.234,-2.25 0,-1.265 0.875,-2.125 2.093,-2.125 0.641,0 1.11,0.235 1.563,0.766 -0.016,-1.656 -0.547,-2.578 -1.516,-2.578 -0.594,0 -1.015,0.375 -1.14,1.016 l -0.844,0 c 0.156,-1.11 0.89,-1.766 1.922,-1.766 1.593,0 2.453,1.344 2.453,3.703 z m -0.922,1 c 0,-0.828 -0.594,-1.391 -1.422,-1.391 -0.812,0 -1.312,0.532 -1.312,1.438 0,0.875 0.562,1.453 1.343,1.453 0.797,0 1.391,-0.609 1.391,-1.5 z" /><path
         id="path72"
         style="fill:#000000;fill-opacity:1;fill-rule:nonzero;stroke:none"
         d="m 193.785,50.426 0,0.765 -1,0 0,4.406 -0.625,0 -3.094,-4.281 0,-0.89 2.875,0 0,-1.625 0.844,0 0,1.625 1,0 z m -1.844,0.765 -2.14,0 2.14,2.969 0,-2.969 z" /><path
         id="path74"
         style="fill:#000000;fill-opacity:1;fill-rule:nonzero;stroke:none"
         d="m 199.059,51.082 c 0,0.734 -0.063,1.187 -0.204,1.562 -0.328,0.828 -1.093,1.328 -2.031,1.328 -1.406,0 -2.297,-1.031 -2.297,-2.687 0,-1.656 0.86,-2.625 2.282,-2.625 1.14,0 1.937,0.656 2.14,1.672 l -0.797,0 c -0.218,-0.672 -0.672,-0.938 -1.312,-0.938 -0.844,0 -1.469,0.532 -1.485,1.688 l 3.704,0 z m -0.86,0.719 c 0,0 0,-0.047 0,-0.063 l -2.828,0 c 0.078,0.891 0.641,1.5 1.438,1.5 0.796,0 1.39,-0.656 1.39,-1.437 z" /><path
         id="path76"
         style="fill:#000000;fill-opacity:1;fill-rule:nonzero;stroke:none"
         d="m 204.367,52.363 c 0,2.125 -0.75,3.234 -2.297,3.234 -1.297,0 -2.234,-0.921 -2.234,-2.25 0,-1.265 0.875,-2.125 2.094,-2.125 0.64,0 1.109,0.235 1.562,0.766 -0.015,-1.656 -0.547,-2.578 -1.515,-2.578 -0.594,0 -1.016,0.375 -1.141,1.016 l -0.844,0 c 0.156,-1.11 0.891,-1.766 1.922,-1.766 1.594,0 2.453,1.344 2.453,3.703 z m -0.922,1 c 0,-0.828 -0.593,-1.391 -1.422,-1.391 -0.812,0 -1.312,0.532 -1.312,1.438 0,0.875 0.562,1.453 1.344,1.453 0.797,0 1.39,-0.609 1.39,-1.5 z" /><path
         id="path78"
         style="fill:#000000;fill-opacity:1;fill-rule:nonzero;stroke:none"
         d="m 232.121,50.91 c 0,1.266 -0.859,2.125 -2.078,2.125 -0.672,0 -1.203,-0.266 -1.563,-0.766 0,1.657 0.547,2.578 1.516,2.578 0.594,0 1,-0.375 1.141,-1.015 l 0.843,0 c -0.171,1.109 -0.89,1.765 -1.937,1.765 -1.578,0 -2.438,-1.328 -2.438,-3.703 0,-2.109 0.735,-3.234 2.297,-3.234 1.282,0 2.219,0.922 2.219,2.25 z m -0.859,-0.063 c 0,-0.859 -0.578,-1.437 -1.36,-1.437 -0.781,0 -1.375,0.609 -1.375,1.484 0,0.844 0.578,1.391 1.407,1.391 0.812,0 1.328,-0.531 1.328,-1.438 z" /><path
         id="path80"
         style="fill:#000000;fill-opacity:1;fill-rule:nonzero;stroke:none"
         d="m 237.461,51.082 c 0,0.734 -0.063,1.187 -0.203,1.562 -0.328,0.828 -1.094,1.328 -2.031,1.328 -1.407,0 -2.297,-1.031 -2.297,-2.687 0,-1.656 0.859,-2.625 2.281,-2.625 1.141,0 1.937,0.656 2.141,1.672 l -0.797,0 c -0.219,-0.672 -0.672,-0.938 -1.313,-0.938 -0.844,0 -1.469,0.532 -1.484,1.688 l 3.703,0 z m -0.859,0.719 c 0,0 0,-0.047 0,-0.063 l -2.829,0 c 0.079,0.891 0.641,1.5 1.438,1.5 0.797,0 1.391,-0.656 1.391,-1.437 z" /><path
         id="path82"
         style="fill:#000000;fill-opacity:1;fill-rule:nonzero;stroke:none"
         d="m 242.766,52.363 c 0,2.125 -0.75,3.234 -2.297,3.234 -1.297,0 -2.235,-0.921 -2.235,-2.25 0,-1.265 0.875,-2.125 2.094,-2.125 0.641,0 1.11,0.235 1.563,0.766 -0.016,-1.656 -0.547,-2.578 -1.516,-2.578 -0.594,0 -1.016,0.375 -1.141,1.016 l -0.843,0 c 0.156,-1.11 0.89,-1.766 1.921,-1.766 1.594,0 2.454,1.344 2.454,3.703 z m -0.922,1 c 0,-0.828 -0.594,-1.391 -1.422,-1.391 -0.813,0 -1.313,0.532 -1.313,1.438 0,0.875 0.563,1.453 1.344,1.453 0.797,0 1.391,-0.609 1.391,-1.5 z" /><path
         id="path84"
         style="fill:#000000;fill-opacity:1;fill-rule:nonzero;stroke:none"
         d="m 270.523,50.722 c 0,0.75 -0.39,1.282 -1.171,1.657 0.703,0.422 0.937,0.765 0.937,1.406 0,1.062 -0.844,1.812 -2.047,1.812 -1.203,0 -2.047,-0.75 -2.047,-1.812 0,-0.625 0.235,-0.969 0.922,-1.406 -0.781,-0.375 -1.156,-0.907 -1.156,-1.657 0,-1.234 0.937,-2.062 2.281,-2.062 1.344,0 2.281,0.828 2.281,2.062 z m -1.109,3.047 c 0,-0.625 -0.469,-1.047 -1.172,-1.047 -0.719,0 -1.187,0.422 -1.187,1.063 0,0.641 0.468,1.062 1.187,1.062 0.719,0 1.172,-0.421 1.172,-1.078 z m 0.25,-3.062 c 0,-0.797 -0.578,-1.297 -1.437,-1.297 -0.829,0 -1.407,0.5 -1.407,1.297 0,0.797 0.578,1.297 1.422,1.297 0.844,0 1.422,-0.5 1.422,-1.297 z" /><path
         id="path86"
         style="fill:#000000;fill-opacity:1;fill-rule:nonzero;stroke:none"
         d="m 275.859,51.082 c 0,0.734 -0.062,1.187 -0.203,1.562 -0.328,0.828 -1.094,1.328 -2.031,1.328 -1.406,0 -2.297,-1.031 -2.297,-2.687 0,-1.656 0.86,-2.625 2.281,-2.625 1.141,0 1.938,0.656 2.141,1.672 l -0.797,0 c -0.219,-0.672 -0.672,-0.938 -1.312,-0.938 -0.844,0 -1.469,0.532 -1.485,1.688 l 3.703,0 z M 275,51.801 c 0,0 0,-0.047 0,-0.063 l -2.828,0 c 0.078,0.891 0.64,1.5 1.437,1.5 0.797,0 1.391,-0.656 1.391,-1.437 z" /><path
         id="path88"
         style="fill:#000000;fill-opacity:1;fill-rule:nonzero;stroke:none"
         d="m 281.164,52.363 c 0,2.125 -0.75,3.234 -2.297,3.234 -1.297,0 -2.234,-0.921 -2.234,-2.25 0,-1.265 0.875,-2.125 2.094,-2.125 0.64,0 1.109,0.235 1.562,0.766 -0.016,-1.656 -0.547,-2.578 -1.516,-2.578 -0.593,0 -1.015,0.375 -1.14,1.016 l -0.844,0 c 0.156,-1.11 0.891,-1.766 1.922,-1.766 1.594,0 2.453,1.344 2.453,3.703 z m -0.922,1 c 0,-0.828 -0.594,-1.391 -1.422,-1.391 -0.812,0 -1.312,0.532 -1.312,1.438 0,0.875 0.562,1.453 1.344,1.453 0.796,0 1.39,-0.609 1.39,-1.5 z" /><path
         id="path90"
         style="fill:#000000;fill-opacity:1;fill-rule:nonzero;stroke:none"
         d="m 303.328,48.801 0,6.796 -0.562,0 c -0.297,-1.046 -0.485,-1.187 -1.782,-1.343 l 0,-0.61 1.5,0 0,-4.843 0.844,0 z" /><path
         id="path92"
         style="fill:#000000;fill-opacity:1;fill-rule:nonzero;stroke:none"
         d="m 310.258,51.082 c 0,0.734 -0.063,1.187 -0.203,1.562 -0.328,0.828 -1.094,1.328 -2.032,1.328 -1.406,0 -2.296,-1.031 -2.296,-2.687 0,-1.656 0.859,-2.625 2.281,-2.625 1.14,0 1.937,0.656 2.14,1.672 l -0.796,0 c -0.219,-0.672 -0.672,-0.938 -1.313,-0.938 -0.844,0 -1.469,0.532 -1.484,1.688 l 3.703,0 z m -0.86,0.719 c 0,0 0,-0.047 0,-0.063 l -2.828,0 c 0.078,0.891 0.641,1.5 1.438,1.5 0.797,0 1.39,-0.656 1.39,-1.437 z" /><path
         id="path94"
         style="fill:#000000;fill-opacity:1;fill-rule:nonzero;stroke:none"
         d="m 314.004,48.801 0,6.796 -0.563,0 c -0.296,-1.046 -0.484,-1.187 -1.781,-1.343 l 0,-0.61 1.5,0 0,-4.843 0.844,0 z" /><path
         id="path96"
         style="fill:#000000;fill-opacity:1;fill-rule:nonzero;stroke:none"
         d="m 320.871,52.066 c 0,2.36 -0.75,3.531 -2.219,3.531 -1.468,0 -2.234,-1.187 -2.234,-3.468 0,-2.297 0.781,-3.469 2.234,-3.469 1.438,0 2.219,1.172 2.219,3.406 z m -0.859,0.078 c 0,-1.922 -0.438,-2.781 -1.375,-2.781 -0.891,0 -1.344,0.891 -1.344,2.75 0,1.875 0.453,2.734 1.359,2.734 0.907,0 1.36,-0.875 1.36,-2.703 z" /><path
         id="path98"
         style="fill:#000000;fill-opacity:1;fill-rule:nonzero;stroke:none"
         d="m 91.637,89.398 2.281,0 0,-0.703 -2.281,0 0,0.703 z" /><path
         id="path100"
         style="fill:#000000;fill-opacity:1;fill-rule:nonzero;stroke:none"
         d="m 97.727,86.398 0,6.797 -0.563,0 C 96.867,92.148 96.68,92.008 95.383,91.851 l 0,-0.609 1.5,0 0,-4.844 0.844,0 z" /><path
         id="path102"
         style="fill:#000000;fill-opacity:1;fill-rule:nonzero;stroke:none"
         d="m 104.594,89.664 c 0,2.359 -0.75,3.531 -2.219,3.531 -1.469,0 -2.234,-1.187 -2.234,-3.469 0,-2.297 0.781,-3.468 2.234,-3.468 1.437,0 2.219,1.171 2.219,3.406 z m -0.86,0.078 c 0,-1.922 -0.437,-2.781 -1.375,-2.781 -0.89,0 -1.343,0.89 -1.343,2.75 0,1.875 0.453,2.734 1.359,2.734 0.906,0 1.359,-0.875 1.359,-2.703 z" /><path
         id="path104"
         style="fill:#000000;fill-opacity:1;fill-rule:nonzero;stroke:none"
         d="m 109.93,89.664 c 0,2.359 -0.75,3.531 -2.219,3.531 -1.469,0 -2.234,-1.187 -2.234,-3.469 0,-2.297 0.781,-3.468 2.234,-3.468 1.437,0 2.219,1.171 2.219,3.406 z m -0.86,0.078 c 0,-1.922 -0.437,-2.781 -1.375,-2.781 -0.89,0 -1.343,0.89 -1.343,2.75 0,1.875 0.453,2.734 1.359,2.734 0.906,0 1.359,-0.875 1.359,-2.703 z" /><path
         id="path106"
         style="fill:#000000;fill-opacity:1;fill-rule:nonzero;stroke:none"
         d="m 98.836,134.199 2.281,0 0,-0.703 -2.281,0 0,0.703 z" /><path
         id="path108"
         style="fill:#000000;fill-opacity:1;fill-rule:nonzero;stroke:none"
         d="m 106.52,133.449 c 0,1.344 -0.891,2.234 -2.204,2.234 -0.468,0 -0.859,-0.125 -1.25,-0.421 l 0.266,1.765 2.828,0 0,0.828 -3.5,0 -0.515,-3.562 0.781,0 c 0.39,0.469 0.719,0.64 1.25,0.64 0.906,0 1.484,-0.593 1.484,-1.593 0,-0.985 -0.578,-1.532 -1.484,-1.532 -0.75,0 -1.203,0.375 -1.391,1.141 l -0.859,0 c 0.281,-1.359 1.047,-1.891 2.265,-1.891 1.375,0 2.329,0.954 2.329,2.391 z" /><path
         id="path110"
         style="fill:#000000;fill-opacity:1;fill-rule:nonzero;stroke:none"
         d="m 111.793,134.465 c 0,2.359 -0.75,3.531 -2.219,3.531 -1.469,0 -2.234,-1.188 -2.234,-3.469 0,-2.297 0.781,-3.469 2.234,-3.469 1.438,0 2.219,1.172 2.219,3.407 z m -0.859,0.078 c 0,-1.922 -0.438,-2.781 -1.375,-2.781 -0.891,0 -1.344,0.89 -1.344,2.75 0,1.875 0.453,2.734 1.359,2.734 0.906,0 1.36,-0.875 1.36,-2.703 z" /><path
         id="path112"
         style="fill:#000000;fill-opacity:1;fill-rule:nonzero;stroke:none"
         d="m 114.461,179.265 c 0,2.36 -0.75,3.532 -2.219,3.532 -1.469,0 -2.234,-1.188 -2.234,-3.469 0,-2.297 0.781,-3.469 2.234,-3.469 1.438,0 2.219,1.172 2.219,3.406 z m -0.859,0.079 c 0,-1.922 -0.438,-2.782 -1.375,-2.782 -0.891,0 -1.344,0.891 -1.344,2.75 0,1.875 0.453,2.735 1.359,2.735 0.906,0 1.36,-0.875 1.36,-2.703 z" /><path
         id="path114"
         style="fill:#000000;fill-opacity:1;fill-rule:nonzero;stroke:none"
         d="m 179.961,36.601 0,0.797 -4.703,0 0,-7 0.89,0 0,3.188 3.344,0 0,0.781 -3.344,0 0,2.234 3.813,0 z" /><path
         id="path116"
         style="fill:#000000;fill-opacity:1;fill-rule:nonzero;stroke:none"
         d="m 183.008,34.726 0,0.813 c -0.141,0.015 -0.203,0.031 -0.313,0.031 -0.515,0 -0.906,-0.312 -1.359,-1.062 l 0,0.921 -0.734,0 0,-5.031 0.796,0 0,2.61 c 0,1.125 0.375,1.703 1.61,1.718 z" /><path
         id="path118"
         style="fill:#000000;fill-opacity:1;fill-rule:nonzero;stroke:none"
         d="m 187.961,32.679 c 0,0.735 -0.063,1.188 -0.203,1.563 -0.328,0.828 -1.094,1.328 -2.031,1.328 -1.407,0 -2.297,-1.031 -2.297,-2.687 0,-1.657 0.859,-2.625 2.281,-2.625 1.141,0 1.937,0.656 2.141,1.671 l -0.797,0 c -0.219,-0.671 -0.672,-0.937 -1.313,-0.937 -0.844,0 -1.469,0.531 -1.484,1.687 l 3.703,0 z m -0.859,0.719 c 0,0 0,-0.047 0,-0.062 l -2.829,0 c 0.079,0.89 0.641,1.5 1.438,1.5 0.797,0 1.391,-0.657 1.391,-1.438 z m 0.343,4 -1.093,0 -0.922,-1.422 0.578,0 1.437,1.422 z" /><path
         id="path120"
         style="fill:#000000;fill-opacity:1;fill-rule:nonzero;stroke:none"
         d="m 193.129,28.304 0,7.125 -0.719,0 0,-0.671 c -0.359,0.531 -0.937,0.812 -1.594,0.812 -1.328,0 -2.187,-1.047 -2.187,-2.719 0,-1.625 0.828,-2.593 2.141,-2.593 0.703,0 1.187,0.25 1.562,0.796 l 0,-2.75 0.797,0 z m -0.797,4.579 c 0,-1.157 -0.562,-1.875 -1.406,-1.875 -0.875,0 -1.469,0.734 -1.469,1.906 0,1.156 0.594,1.906 1.469,1.906 0.859,0 1.406,-0.766 1.406,-1.937 z" /><path
         id="path122"
         style="fill:#000000;fill-opacity:1;fill-rule:nonzero;stroke:none"
         d="m 198.418,30.398 0,5.031 -0.797,0 0,-2.781 c 0,-1.015 -0.531,-1.687 -1.375,-1.687 -0.625,0 -1.031,0.375 -1.031,0.984 l 0,3.484 -0.797,0 0,-3.796 c 0,-0.844 0.625,-1.375 1.594,-1.375 0.75,0 1.218,0.25 1.687,0.921 l 0,-0.781 0.719,0 z" /><path
         id="path124"
         style="fill:#000000;fill-opacity:1;fill-rule:nonzero;stroke:none"
         d="m 204.051,32.679 c 0,0.735 -0.063,1.188 -0.203,1.563 -0.328,0.828 -1.094,1.328 -2.032,1.328 -1.406,0 -2.296,-1.031 -2.296,-2.687 0,-1.657 0.859,-2.625 2.281,-2.625 1.14,0 1.937,0.656 2.14,1.671 l -0.796,0 c -0.219,-0.671 -0.672,-0.937 -1.313,-0.937 -0.844,0 -1.469,0.531 -1.484,1.687 l 3.703,0 z m -0.86,0.719 c 0,0 0,-0.047 0,-0.062 l -2.828,0 c 0.078,0.89 0.641,1.5 1.438,1.5 0.797,0 1.39,-0.657 1.39,-1.438 z" /><path
         id="path126"
         style="fill:#000000;fill-opacity:1;fill-rule:nonzero;stroke:none"
         d="m 209.141,30.398 0,3.797 c 0,0.844 -0.625,1.375 -1.594,1.375 -0.75,0 -1.219,-0.281 -1.672,-0.984 l 0,0.843 -0.734,0 0,-5.031 0.797,0 0,2.766 c 0,1.031 0.562,1.703 1.374,1.703 0.626,0 1.032,-0.375 1.032,-0.984 l 0,-3.485 0.797,0 z" /><path
         id="path128"
         style="fill:#000000;fill-opacity:1;fill-rule:nonzero;stroke:none"
         d="m 214.383,32.133 -0.813,0 c -0.125,-0.813 -0.547,-1.141 -1.218,-1.141 -0.891,0 -1.422,0.687 -1.422,1.875 0,1.25 0.531,1.969 1.39,1.969 0.672,0 1.094,-0.407 1.203,-1.094 l 0.797,0 c -0.093,1.219 -0.859,1.828 -1.984,1.828 -1.344,0 -2.234,-1.031 -2.234,-2.703 0,-1.625 0.859,-2.609 2.218,-2.609 1.203,0 1.969,0.718 2.063,1.875 z" /><path
         id="path130"
         style="fill:#000000;fill-opacity:1;fill-rule:nonzero;stroke:none"
         d="m 219.527,32.679 c 0,0.735 -0.062,1.188 -0.203,1.563 -0.328,0.828 -1.094,1.328 -2.031,1.328 -1.406,0 -2.297,-1.031 -2.297,-2.687 0,-1.657 0.859,-2.625 2.281,-2.625 1.141,0 1.938,0.656 2.141,1.671 l -0.797,0 c -0.219,-0.671 -0.672,-0.937 -1.312,-0.937 -0.844,0 -1.469,0.531 -1.485,1.687 l 3.703,0 z m -0.859,0.719 c 0,0 0,-0.047 0,-0.062 l -2.828,0 c 0.078,0.89 0.64,1.5 1.437,1.5 0.797,0 1.391,-0.657 1.391,-1.438 z" /><path
         id="path132"
         style="fill:#000000;fill-opacity:1;fill-rule:nonzero;stroke:none"
         d="m 225.406,28.367 c -0.844,1.375 -1.312,2.984 -1.312,4.516 0,1.531 0.468,3.14 1.312,4.515 l -0.531,0 c -0.953,-1.265 -1.563,-3.015 -1.563,-4.515 0,-1.516 0.61,-3.266 1.563,-4.516 l 0.531,0 z" /><path
         id="path134"
         style="fill:#000000;fill-opacity:1;fill-rule:nonzero;stroke:none"
         d="m 232.008,30.398 0,7 -0.891,0 0,-3.031 -3.594,0 0,3.031 -0.89,0 0,-7 0.89,0 0,3.188 3.594,0 0,-3.188 0.891,0 z" /><path
         id="path136"
         style="fill:#000000;fill-opacity:1;fill-rule:nonzero;stroke:none"
         d="m 237.16,30.398 0,0.703 -3.125,0 2.985,3.61 0,0.718 -3.75,0 0,-0.703 2.796,0 -3,-3.609 0,-0.719 4.094,0 z" /><path
         id="path138"
         style="fill:#000000;fill-opacity:1;fill-rule:nonzero;stroke:none"
         d="m 240.02,32.867 c 0,1.516 -0.594,3.266 -1.563,4.531 l -0.531,0 c 0.844,-1.375 1.312,-2.984 1.312,-4.531 0,-1.516 -0.468,-3.141 -1.312,-4.5 l 0.531,0 c 0.969,1.25 1.563,3 1.563,4.5 z" /><path
         id="path140"
         style="fill:#0000ff;fill-opacity:1;fill-rule:nonzero;stroke:none"
         d="m 83.602,91.582 c -0.844,0 -1.344,-0.391 -1.688,-1.281 -0.297,0.625 -0.828,0.968 -1.531,0.968 -1.016,0 -1.781,-0.75 -1.781,-2.078 l 0,-2.828 7,0 0,3.156 c 0,1.25 -0.844,2.063 -2,2.063 z m -3.094,-1.203 c 0.703,0 1.109,-0.422 1.109,-1.407 l 0,-1.718 -2.219,0 0,1.718 c 0,0.985 0.407,1.407 1.11,1.407 z m 3.109,0.297 c 0.672,0 1.203,-0.407 1.203,-1.25 l 0,-2.172 -2.406,0 0,2.172 c 0,0.843 0.516,1.25 1.203,1.25 z" /><path
         id="path142"
         style="fill:#0000ff;fill-opacity:1;fill-rule:nonzero;stroke:none"
         d="m 83.32,96.926 c -0.734,0 -1.187,-0.063 -1.562,-0.204 -0.828,-0.328 -1.328,-1.093 -1.328,-2.031 0,-1.406 1.031,-2.297 2.687,-2.297 1.656,0 2.625,0.86 2.625,2.282 0,1.14 -0.656,1.937 -1.672,2.14 l 0,-0.797 c 0.672,-0.218 0.938,-0.672 0.938,-1.312 0,-0.844 -0.531,-1.469 -1.688,-1.485 l 0,3.704 z m -0.718,-0.86 c 0,0 0.046,0 0.062,0 l 0,-2.828 c -0.891,0.078 -1.5,0.641 -1.5,1.438 0,0.796 0.656,1.39 1.438,1.39 z" /><path
         id="path144"
         style="fill:#0000ff;fill-opacity:1;fill-rule:nonzero;stroke:none"
         d="m 84.195,101.746 c -0.75,0 -1.125,-0.422 -1.359,-1.422 l -0.188,-0.766 c -0.156,-0.656 -0.359,-0.937 -0.718,-0.937 -0.469,0 -0.766,0.422 -0.766,1.062 0,0.657 0.281,1 0.813,1.016 l 0,0.844 c -0.985,-0.016 -1.547,-0.656 -1.547,-1.828 0,-1.172 0.609,-1.922 1.531,-1.922 0.797,0 1.172,0.406 1.453,1.594 l 0.188,0.75 c 0.125,0.546 0.296,0.765 0.656,0.765 0.469,0 0.75,-0.469 0.75,-1.172 0,-0.718 -0.172,-1.109 -0.938,-1.218 l 0,-0.844 c 1.157,0.031 1.672,0.687 1.672,2 0,1.265 -0.578,2.078 -1.547,2.078 z" /><path
         id="path146"
         style="fill:#0000ff;fill-opacity:1;fill-rule:nonzero;stroke:none"
         d="m 84.195,106.547 c -0.75,0 -1.125,-0.422 -1.359,-1.422 l -0.188,-0.766 c -0.156,-0.656 -0.359,-0.937 -0.718,-0.937 -0.469,0 -0.766,0.422 -0.766,1.062 0,0.656 0.281,1 0.813,1.016 l 0,0.844 c -0.985,-0.016 -1.547,-0.657 -1.547,-1.829 0,-1.171 0.609,-1.921 1.531,-1.921 0.797,0 1.172,0.406 1.453,1.593 l 0.188,0.75 c 0.125,0.547 0.296,0.766 0.656,0.766 0.469,0 0.75,-0.469 0.75,-1.172 0,-0.719 -0.172,-1.109 -0.938,-1.219 l 0,-0.843 c 1.157,0.031 1.672,0.687 1.672,2 0,1.265 -0.578,2.078 -1.547,2.078 z" /><path
         id="path148"
         style="fill:#0000ff;fill-opacity:1;fill-rule:nonzero;stroke:none"
         d="m 83.32,111.863 c -0.734,0 -1.187,-0.062 -1.562,-0.203 -0.828,-0.328 -1.328,-1.094 -1.328,-2.031 0,-1.407 1.031,-2.297 2.687,-2.297 1.656,0 2.625,0.859 2.625,2.281 0,1.141 -0.656,1.938 -1.672,2.141 l 0,-0.797 c 0.672,-0.219 0.938,-0.672 0.938,-1.313 0,-0.843 -0.531,-1.468 -1.688,-1.484 l 0,3.703 z m -0.718,-0.859 c 0,0 0.046,0 0.062,0 l 0,-2.828 c -0.891,0.078 -1.5,0.64 -1.5,1.437 0,0.797 0.656,1.391 1.438,1.391 z" /><path
         id="path150"
         style="fill:#0000ff;fill-opacity:1;fill-rule:nonzero;stroke:none"
         d="m 78.602,113.73 7,0 0,-0.797 -7,0 0,0.797 z" /><path
         id="path152"
         style="fill:#0000ff;fill-opacity:1;fill-rule:nonzero;stroke:none"
         d="m 86.82,119.984 0.484,0 0,-5.766 -0.484,0 0,5.766 z" /><path
         id="path154"
         style="fill:#0000ff;fill-opacity:1;fill-rule:nonzero;stroke:none"
         d="m 85.602,124.523 -7,0 0,-0.797 2.609,0 c -0.516,-0.343 -0.781,-0.875 -0.781,-1.547 0,-1.296 1.015,-2.156 2.609,-2.156 1.703,0 2.703,0.828 2.703,2.188 0,0.687 -0.25,1.172 -0.875,1.593 l 0.735,0 0,0.719 z m -2.5,-0.797 c 1.171,0 1.89,-0.562 1.89,-1.406 0,-0.875 -0.734,-1.469 -1.906,-1.469 -1.172,0 -1.906,0.594 -1.906,1.469 0,0.859 0.765,1.406 1.922,1.406 z" /><path
         id="path156"
         style="fill:#0000ff;fill-opacity:1;fill-rule:nonzero;stroke:none"
         d="m 83.602,131.097 c -0.844,0 -1.344,-0.39 -1.688,-1.281 -0.297,0.625 -0.828,0.969 -1.531,0.969 -1.016,0 -1.781,-0.75 -1.781,-2.078 l 0,-2.828 7,0 0,3.156 c 0,1.25 -0.844,2.062 -2,2.062 z m -3.094,-1.203 c 0.703,0 1.109,-0.422 1.109,-1.406 l 0,-1.719 -2.219,0 0,1.719 c 0,0.984 0.407,1.406 1.11,1.406 z m 3.109,0.297 c 0.672,0 1.203,-0.406 1.203,-1.25 l 0,-2.172 -2.406,0 0,2.172 c 0,0.844 0.516,1.25 1.203,1.25 z" /><path
         id="path158"
         style="fill:#0000ff;fill-opacity:1;fill-rule:nonzero;stroke:none"
         d="m 83.68,137.496 c -0.86,0 -1.5,-0.531 -1.75,-1.484 l -0.469,-1.75 c -0.219,-0.844 -0.5,-1.157 -1.047,-1.157 -0.703,0 -1.234,0.625 -1.234,1.563 0,1.109 0.515,1.75 1.422,1.75 l 0,0.844 c -1.375,0 -2.172,-0.954 -2.172,-2.563 0,-1.531 0.843,-2.484 2.109,-2.484 0.859,0 1.391,0.453 1.641,1.375 l 0.453,1.734 c 0.234,0.875 0.594,1.281 1.14,1.281 0.766,0 1.219,-0.578 1.219,-1.781 0,-1.328 -0.672,-1.969 -1.672,-1.969 l 0,-0.859 c 1.657,0 2.453,1.125 2.453,2.766 0,1.781 -0.843,2.734 -2.093,2.734 z" /><path
         id="path160"
         style="fill:#0000ff;fill-opacity:1;fill-rule:nonzero;stroke:none"
         d="m 80.789,142.855 c -1.141,0 -1.984,-0.89 -1.984,-2.187 0,-1.391 0.703,-2.188 2.359,-2.235 l 0,0.844 c -1.141,0.063 -1.625,0.531 -1.625,1.375 0,0.766 0.547,1.328 1.281,1.328 0.532,0 0.985,-0.312 1.344,-0.906 l 0.5,-0.891 c 0.797,-1.421 1.438,-1.828 2.938,-1.906 l 0,4.531 -0.829,0 0,-3.578 c -0.562,0.078 -0.921,0.391 -1.406,1.219 l -0.515,0.969 c -0.516,0.937 -1.219,1.437 -2.063,1.437 z" /><path
         id="path162"
         style="fill:#0000ff;fill-opacity:1;fill-rule:nonzero;stroke:none"
         d="m 85.602,146.613 -6.797,0 0,-0.562 c 1.047,-0.297 1.187,-0.485 1.343,-1.782 l 0.61,0 0,1.5 4.844,0 0,0.844 z" /><path
         id="path164"
         style="fill:#ff0000;fill-opacity:1;fill-rule:nonzero;stroke:none"
         d="m 65.199,77.984 c -0.844,0 -1.344,-0.39 -1.687,-1.281 -0.297,0.625 -0.828,0.969 -1.532,0.969 -1.015,0 -1.781,-0.75 -1.781,-2.078 l 0,-2.829 7,0 0,3.157 c 0,1.25 -0.844,2.062 -2,2.062 z m -3.094,-1.203 c 0.704,0 1.11,-0.422 1.11,-1.406 l 0,-1.719 -2.219,0 0,1.719 c 0,0.984 0.406,1.406 1.109,1.406 z m 3.11,0.297 c 0.672,0 1.203,-0.406 1.203,-1.25 l 0,-2.172 -2.406,0 0,2.172 c 0,0.844 0.515,1.25 1.203,1.25 z" /><path
         id="path166"
         style="fill:#ff0000;fill-opacity:1;fill-rule:nonzero;stroke:none"
         d="m 67.199,83.027 -5.031,0 0,-0.797 2.781,0 c 1.016,0 1.688,-0.531 1.688,-1.375 0,-0.625 -0.375,-1.031 -0.985,-1.031 l -3.484,0 0,-0.797 3.797,0 c 0.844,0 1.375,0.625 1.375,1.594 0,0.75 -0.25,1.219 -0.922,1.687 l 0.781,0 0,0.719 z" /><path
         id="path168"
         style="fill:#ff0000;fill-opacity:1;fill-rule:nonzero;stroke:none"
         d="m 67.199,86.176 -0.672,0 c 0.032,-0.11 0.032,-0.235 0.032,-0.391 0,-0.344 -0.094,-0.438 -0.438,-0.438 l -3.297,0 0,0.829 -0.656,0 0,-0.829 -1.375,0 0,-0.796 1.375,0 0,-0.672 0.656,0 0,0.672 3.641,0 c 0.515,0 0.797,0.343 0.797,0.968 0,0.188 -0.016,0.391 -0.063,0.657 z" /><path
         id="path170"
         style="fill:#ff0000;fill-opacity:1;fill-rule:nonzero;stroke:none"
         d="m 67.199,88.847 -0.672,0 c 0.032,-0.109 0.032,-0.234 0.032,-0.39 0,-0.344 -0.094,-0.438 -0.438,-0.438 l -3.297,0 0,0.828 -0.656,0 0,-0.828 -1.375,0 0,-0.797 1.375,0 0,-0.671 0.656,0 0,0.671 3.641,0 c 0.515,0 0.797,0.344 0.797,0.969 0,0.188 -0.016,0.391 -0.063,0.656 z" /><path
         id="path172"
         style="fill:#ff0000;fill-opacity:1;fill-rule:nonzero;stroke:none"
         d="m 64.918,93.855 c -0.734,0 -1.188,-0.062 -1.563,-0.203 -0.828,-0.328 -1.328,-1.094 -1.328,-2.031 0,-1.406 1.032,-2.297 2.688,-2.297 1.656,0 2.625,0.859 2.625,2.281 0,1.141 -0.656,1.938 -1.672,2.141 l 0,-0.797 c 0.672,-0.219 0.937,-0.672 0.937,-1.312 0,-0.844 -0.531,-1.469 -1.687,-1.485 l 0,3.703 z m -0.719,-0.859 c 0,0 0.047,0 0.063,0 l 0,-2.828 c -0.891,0.078 -1.5,0.64 -1.5,1.437 0,0.797 0.656,1.391 1.437,1.391 z" /><path
         id="path174"
         style="fill:#ff0000;fill-opacity:1;fill-rule:nonzero;stroke:none"
         d="m 62.871,97.347 -0.812,0 c -0.016,-0.14 -0.032,-0.203 -0.032,-0.312 0,-0.516 0.313,-0.906 1.063,-1.359 l -0.922,0 0,-0.735 5.031,0 0,0.797 -2.609,0 c -1.125,0 -1.703,0.375 -1.719,1.609 z" /><path
         id="path176"
         style="fill:#ff0000;fill-opacity:1;fill-rule:nonzero;stroke:none"
         d="m 62.168,104.562 0,-0.906 3.922,-1 -3.922,-0.984 0,-0.985 3.922,-0.953 -3.922,-1.031 0,-0.875 5.031,1.453 0,0.906 -3.937,0.969 3.937,1.016 0,0.906 -5.031,1.484 z" /><path
         id="path178"
         style="fill:#ff0000;fill-opacity:1;fill-rule:nonzero;stroke:none"
         d="m 64.73,109.5 c -1.75,0 -2.703,-0.828 -2.703,-2.281 0,-1.407 0.969,-2.266 2.657,-2.266 1.687,0 2.656,0.844 2.656,2.281 0,1.406 -0.969,2.266 -2.61,2.266 z m -0.015,-0.828 c 1.172,0 1.89,-0.563 1.89,-1.438 0,-0.89 -0.703,-1.437 -1.921,-1.437 -1.204,0 -1.922,0.547 -1.922,1.437 0,0.891 0.703,1.438 1.953,1.438 z" /><path
         id="path180"
         style="fill:#ff0000;fill-opacity:1;fill-rule:nonzero;stroke:none"
         d="m 62.871,113.027 -0.812,0 c -0.016,-0.14 -0.032,-0.203 -0.032,-0.312 0,-0.516 0.313,-0.907 1.063,-1.36 l -0.922,0 0,-0.734 5.031,0 0,0.797 -2.609,0 c -1.125,0 -1.703,0.375 -1.719,1.609 z" /><path
         id="path182"
         style="fill:#ff0000;fill-opacity:1;fill-rule:nonzero;stroke:none"
         d="m 67.199,115.879 -0.672,0 c 0.032,-0.11 0.032,-0.235 0.032,-0.391 0,-0.344 -0.094,-0.437 -0.438,-0.437 l -3.297,0 0,0.828 -0.656,0 0,-0.828 -1.375,0 0,-0.797 1.375,0 0,-0.672 0.656,0 0,0.672 3.641,0 c 0.515,0 0.797,0.343 0.797,0.968 0,0.188 -0.016,0.391 -0.063,0.657 z" /><path
         id="path184"
         style="fill:#ff0000;fill-opacity:1;fill-rule:nonzero;stroke:none"
         d="m 67.199,120.699 -3.797,0 c -0.843,0 -1.375,-0.594 -1.375,-1.578 0,-0.703 0.219,-1.141 0.828,-1.609 l -2.656,0 0,-0.797 7,0 0,0.797 -2.765,0 c -1.032,0 -1.704,0.531 -1.704,1.359 0,0.562 0.329,1.031 0.985,1.031 l 3.484,0 0,0.797 z" /><path
         id="path186"
         style="fill:#ff0000;fill-opacity:1;fill-rule:nonzero;stroke:none"
         d="m 68.418,126.929 0.484,0 0,-5.766 -0.484,0 0,5.766 z" /><path
         id="path188"
         style="fill:#ff0000;fill-opacity:1;fill-rule:nonzero;stroke:none"
         d="m 67.199,131.469 -7,0 0,-0.797 2.61,0 c -0.516,-0.344 -0.782,-0.875 -0.782,-1.547 0,-1.297 1.016,-2.156 2.61,-2.156 1.703,0 2.703,0.828 2.703,2.187 0,0.688 -0.25,1.172 -0.875,1.594 l 0.734,0 0,0.719 z m -2.5,-0.797 c 1.172,0 1.891,-0.563 1.891,-1.407 0,-0.875 -0.735,-1.468 -1.906,-1.468 -1.172,0 -1.907,0.593 -1.907,1.468 0,0.86 0.766,1.407 1.922,1.407 z" /><path
         id="path190"
         style="fill:#ff0000;fill-opacity:1;fill-rule:nonzero;stroke:none"
         d="m 65.199,138.043 c -0.844,0 -1.344,-0.391 -1.687,-1.281 -0.297,0.625 -0.828,0.968 -1.532,0.968 -1.015,0 -1.781,-0.75 -1.781,-2.078 l 0,-2.828 7,0 0,3.156 c 0,1.25 -0.844,2.063 -2,2.063 z m -3.094,-1.203 c 0.704,0 1.11,-0.422 1.11,-1.407 l 0,-1.718 -2.219,0 0,1.718 c 0,0.985 0.406,1.407 1.109,1.407 z m 3.11,0.297 c 0.672,0 1.203,-0.407 1.203,-1.25 l 0,-2.172 -2.406,0 0,2.172 c 0,0.843 0.515,1.25 1.203,1.25 z" /><path
         id="path192"
         style="fill:#ff0000;fill-opacity:1;fill-rule:nonzero;stroke:none"
         d="m 65.277,144.441 c -0.859,0 -1.5,-0.531 -1.75,-1.484 l -0.468,-1.75 c -0.219,-0.844 -0.5,-1.156 -1.047,-1.156 -0.703,0 -1.235,0.625 -1.235,1.562 0,1.109 0.516,1.75 1.422,1.75 l 0,0.844 c -1.375,0 -2.172,-0.953 -2.172,-2.563 0,-1.531 0.844,-2.484 2.11,-2.484 0.859,0 1.39,0.453 1.64,1.375 l 0.453,1.734 c 0.235,0.875 0.594,1.282 1.141,1.282 0.766,0 1.219,-0.579 1.219,-1.782 0,-1.328 -0.672,-1.968 -1.672,-1.968 l 0,-0.86 c 1.656,0 2.453,1.125 2.453,2.766 0,1.781 -0.844,2.734 -2.094,2.734 z" /><path
         id="path194"
         style="fill:#ff0000;fill-opacity:1;fill-rule:nonzero;stroke:none"
         d="m 62.387,149.797 c -1.141,0 -1.985,-0.891 -1.985,-2.188 0,-1.39 0.703,-2.187 2.36,-2.234 l 0,0.844 c -1.141,0.062 -1.625,0.531 -1.625,1.375 0,0.765 0.547,1.328 1.281,1.328 0.531,0 0.984,-0.313 1.344,-0.907 l 0.5,-0.89 c 0.797,-1.422 1.437,-1.828 2.937,-1.906 l 0,4.531 -0.828,0 0,-3.578 c -0.562,0.078 -0.922,0.39 -1.406,1.218 l -0.516,0.969 c -0.515,0.938 -1.219,1.438 -2.062,1.438 z" /><path
         id="path196"
         style="fill:#ff0000;fill-opacity:1;fill-rule:nonzero;stroke:none"
         d="m 67.199,153.558 -6.797,0 0,-0.562 c 1.047,-0.297 1.188,-0.484 1.344,-1.781 l 0.609,0 0,1.5 4.844,0 0,0.843 z" /><path
         id="path198"
         style="fill:#ff00ff;fill-opacity:1;fill-rule:nonzero;stroke:none"
         d="m 42.598,76.086 -0.797,0 0,-5.485 0.797,0 0,2.297 6.203,0 0,0.891 -6.203,0 0,2.297 z" /><path
         id="path200"
         style="fill:#ff00ff;fill-opacity:1;fill-rule:nonzero;stroke:none"
         d="m 47.066,79.988 0,-0.812 c 0.813,-0.125 1.141,-0.547 1.141,-1.219 0,-0.891 -0.687,-1.422 -1.875,-1.422 -1.25,0 -1.969,0.531 -1.969,1.391 0,0.671 0.407,1.093 1.094,1.203 l 0,0.797 c -1.219,-0.094 -1.828,-0.86 -1.828,-1.985 0,-1.344 1.031,-2.234 2.703,-2.234 1.625,0 2.609,0.859 2.609,2.219 0,1.203 -0.718,1.968 -1.875,2.062 z" /><path
         id="path202"
         style="fill:#ff00ff;fill-opacity:1;fill-rule:nonzero;stroke:none"
         d="m 48.801,84.867 -3.797,0 c -0.844,0 -1.375,-0.594 -1.375,-1.578 0,-0.703 0.219,-1.141 0.828,-1.61 l -2.656,0 0,-0.796 7,0 0,0.796 -2.766,0 c -1.031,0 -1.703,0.532 -1.703,1.36 0,0.562 0.328,1.031 0.984,1.031 l 3.485,0 0,0.797 z" /><path
         id="path204"
         style="fill:#ff00ff;fill-opacity:1;fill-rule:nonzero;stroke:none"
         d="m 46.52,90.469 c -0.735,0 -1.188,-0.063 -1.563,-0.204 -0.828,-0.328 -1.328,-1.093 -1.328,-2.031 0,-1.406 1.031,-2.297 2.687,-2.297 1.657,0 2.625,0.86 2.625,2.282 0,1.14 -0.656,1.937 -1.671,2.14 l 0,-0.797 c 0.671,-0.218 0.937,-0.672 0.937,-1.312 0,-0.844 -0.531,-1.469 -1.687,-1.485 l 0,3.704 z m -0.719,-0.86 c 0,0 0.047,0 0.062,0 l 0,-2.828 c -0.89,0.078 -1.5,0.641 -1.5,1.438 0,0.796 0.657,1.39 1.438,1.39 z" /><path
         id="path206"
         style="fill:#ff00ff;fill-opacity:1;fill-rule:nonzero;stroke:none"
         d="m 46.223,95.902 c -1.625,0 -2.594,-0.828 -2.594,-2.14 0,-0.704 0.266,-1.188 0.828,-1.563 l -2.656,0 0,-0.797 7,0 0,0.719 -0.719,0 c 0.578,0.391 0.859,0.891 0.859,1.594 0,1.328 -1.078,2.187 -2.718,2.187 z m 0.062,-0.828 c 1.141,0 1.906,-0.594 1.906,-1.469 0,-0.843 -0.765,-1.406 -1.906,-1.406 -1.172,0 -1.953,0.563 -1.906,1.406 0,0.891 0.781,1.469 1.906,1.469 z" /><path
         id="path208"
         style="fill:#ff00ff;fill-opacity:1;fill-rule:nonzero;stroke:none"
         d="m 43.77,100.668 0,-0.86 3.921,-1.39 -3.921,-1.281 0,-0.86 5.046,1.703 0.797,-0.312 c 0.36,-0.125 0.5,-0.297 0.5,-0.641 0,-0.109 -0.031,-0.25 -0.062,-0.422 l 0.719,0 c 0.078,0.172 0.125,0.328 0.125,0.547 0,0.563 -0.313,1.016 -1.032,1.281 l -6.093,2.235 z" /><path
         id="path210"
         style="fill:#ff00ff;fill-opacity:1;fill-rule:nonzero;stroke:none"
         d="m 47.066,105.273 0,-0.812 c 0.813,-0.125 1.141,-0.547 1.141,-1.219 0,-0.891 -0.687,-1.422 -1.875,-1.422 -1.25,0 -1.969,0.531 -1.969,1.391 0,0.672 0.407,1.093 1.094,1.203 l 0,0.797 c -1.219,-0.094 -1.828,-0.86 -1.828,-1.985 0,-1.343 1.031,-2.234 2.703,-2.234 1.625,0 2.609,0.859 2.609,2.219 0,1.203 -0.718,1.968 -1.875,2.062 z" /><path
         id="path212"
         style="fill:#ff00ff;fill-opacity:1;fill-rule:nonzero;stroke:none"
         d="m 48.801,110.152 -3.797,0 c -0.844,0 -1.375,-0.594 -1.375,-1.578 0,-0.703 0.219,-1.141 0.828,-1.609 l -2.656,0 0,-0.797 7,0 0,0.797 -2.766,0 c -1.031,0 -1.703,0.531 -1.703,1.359 0,0.563 0.328,1.031 0.984,1.031 l 3.485,0 0,0.797 z" /><path
         id="path214"
         style="fill:#ff00ff;fill-opacity:1;fill-rule:nonzero;stroke:none"
         d="m 46.52,115.758 c -0.735,0 -1.188,-0.063 -1.563,-0.204 -0.828,-0.328 -1.328,-1.093 -1.328,-2.031 0,-1.406 1.031,-2.297 2.687,-2.297 1.657,0 2.625,0.86 2.625,2.282 0,1.14 -0.656,1.937 -1.671,2.14 l 0,-0.797 c 0.671,-0.218 0.937,-0.672 0.937,-1.312 0,-0.844 -0.531,-1.469 -1.687,-1.485 l 0,3.704 z m -0.719,-0.86 c 0,0 0.047,0 0.062,0 l 0,-2.828 c -0.89,0.078 -1.5,0.641 -1.5,1.438 0,0.796 0.657,1.39 1.438,1.39 z" /><path
         id="path216"
         style="fill:#ff00ff;fill-opacity:1;fill-rule:nonzero;stroke:none"
         d="m 43.77,120.695 0,-0.891 4.078,-1.421 -4.078,-1.344 0,-0.906 5.031,1.765 0,0.875 -5.031,1.922 z" /><path
         id="path218"
         style="fill:#ff00ff;fill-opacity:1;fill-rule:nonzero;stroke:none"
         d="m 50.02,126.383 0.484,0 0,-5.766 -0.484,0 0,5.766 z" /><path
         id="path220"
         style="fill:#ff00ff;fill-opacity:1;fill-rule:nonzero;stroke:none"
         d="m 48.801,130.926 -7,0 0,-0.797 2.609,0 c -0.515,-0.344 -0.781,-0.875 -0.781,-1.547 0,-1.297 1.016,-2.156 2.609,-2.156 1.703,0 2.703,0.828 2.703,2.187 0,0.688 -0.25,1.172 -0.875,1.594 l 0.735,0 0,0.719 z m -2.5,-0.797 c 1.172,0 1.89,-0.563 1.89,-1.407 0,-0.875 -0.734,-1.468 -1.906,-1.468 -1.172,0 -1.906,0.593 -1.906,1.468 0,0.86 0.766,1.407 1.922,1.407 z" /><path
         id="path222"
         style="fill:#ff00ff;fill-opacity:1;fill-rule:nonzero;stroke:none"
         d="m 46.801,137.496 c -0.844,0 -1.344,-0.391 -1.688,-1.281 -0.297,0.625 -0.828,0.968 -1.531,0.968 -1.016,0 -1.781,-0.75 -1.781,-2.078 l 0,-2.828 7,0 0,3.156 c 0,1.25 -0.844,2.063 -2,2.063 z m -3.094,-1.203 c 0.703,0 1.109,-0.422 1.109,-1.406 l 0,-1.719 -2.218,0 0,1.719 c 0,0.984 0.406,1.406 1.109,1.406 z m 3.109,0.297 c 0.672,0 1.204,-0.407 1.204,-1.25 l 0,-2.172 -2.407,0 0,2.172 c 0,0.843 0.516,1.25 1.203,1.25 z" /><path
         id="path224"
         style="fill:#ff00ff;fill-opacity:1;fill-rule:nonzero;stroke:none"
         d="m 46.879,143.898 c -0.859,0 -1.5,-0.531 -1.75,-1.484 l -0.469,-1.75 c -0.219,-0.844 -0.5,-1.156 -1.047,-1.156 -0.703,0 -1.234,0.625 -1.234,1.562 0,1.109 0.516,1.75 1.422,1.75 l 0,0.844 c -1.375,0 -2.172,-0.953 -2.172,-2.563 0,-1.531 0.844,-2.484 2.109,-2.484 0.86,0 1.391,0.453 1.641,1.375 l 0.453,1.734 c 0.234,0.875 0.594,1.282 1.141,1.282 0.765,0 1.218,-0.579 1.218,-1.782 0,-1.328 -0.671,-1.968 -1.671,-1.968 l 0,-0.86 c 1.656,0 2.453,1.125 2.453,2.766 0,1.781 -0.844,2.734 -2.094,2.734 z" /><path
         id="path226"
         style="fill:#ff00ff;fill-opacity:1;fill-rule:nonzero;stroke:none"
         d="m 43.988,149.254 c -1.14,0 -1.984,-0.891 -1.984,-2.188 0,-1.39 0.703,-2.187 2.359,-2.234 l 0,0.844 c -1.14,0.062 -1.625,0.531 -1.625,1.375 0,0.765 0.547,1.328 1.282,1.328 0.531,0 0.984,-0.313 1.343,-0.907 l 0.5,-0.89 c 0.797,-1.422 1.438,-1.828 2.938,-1.906 l 0,4.531 -0.828,0 0,-3.578 c -0.563,0.078 -0.922,0.39 -1.407,1.218 l -0.515,0.969 c -0.516,0.938 -1.219,1.438 -2.063,1.438 z" /><path
         id="path228"
         style="fill:#ff00ff;fill-opacity:1;fill-rule:nonzero;stroke:none"
         d="m 48.801,153.015 -6.797,0 0,-0.562 c 1.047,-0.297 1.187,-0.484 1.344,-1.781 l 0.609,0 0,1.5 4.844,0 0,0.843 z" /><path
         id="path230"
         style="fill:#00ff00;fill-opacity:1;fill-rule:nonzero;stroke:none"
         d="m 27.852,93.699 0,-0.922 c 1.312,-0.219 1.937,-0.765 1.937,-1.953 0,-1.391 -1.062,-2.266 -2.812,-2.266 -1.797,0 -2.954,0.844 -2.954,2.188 0,1.094 0.485,1.672 1.547,1.891 l 0,0.906 c -1.531,-0.266 -2.343,-1.156 -2.343,-2.688 0,-2.125 1.718,-3.203 3.75,-3.203 2.046,0 3.593,1.11 3.593,3.156 0,1.719 -0.906,2.672 -2.718,2.891 z" /><path
         id="path232"
         style="fill:#00ff00;fill-opacity:1;fill-rule:nonzero;stroke:none"
         d="m 30.383,99.254 -0.61,0 c 0.016,-0.078 0.016,-0.11 0.016,-0.172 0,-0.266 -0.141,-0.422 -0.391,-0.422 l -2.796,0 c -0.891,0 -1.375,-0.656 -1.375,-1.891 0,-1.218 0.468,-1.968 1.625,-2.015 l 0,0.797 c -0.61,0.078 -0.891,0.437 -0.891,1.187 0,0.719 0.281,1.125 0.75,1.125 l 0.219,0 c 0.328,0 0.468,-0.203 0.547,-0.844 0.156,-1.125 0.187,-1.297 0.312,-1.609 0.234,-0.578 0.688,-0.875 1.297,-0.875 0.922,0 1.453,0.625 1.453,1.641 0,0.656 -0.266,1.265 -0.734,1.718 0.375,0.078 0.656,0.422 0.656,0.813 0,0.172 -0.016,0.297 -0.078,0.547 z m -1.719,-1.391 c 0.719,0 1.172,-0.734 1.172,-1.516 0,-0.609 -0.219,-0.984 -0.766,-0.984 -0.531,0 -0.75,0.359 -0.875,1.219 -0.125,0.844 -0.156,1.015 -0.281,1.281 l 0.75,0 z" /><path
         id="path234"
         style="fill:#00ff00;fill-opacity:1;fill-rule:nonzero;stroke:none"
         d="m 30.398,104.094 -5.031,0 0,-0.797 2.781,0 c 1.016,0 1.688,-0.532 1.688,-1.375 0,-0.625 -0.375,-1.032 -0.984,-1.032 l -3.485,0 0,-0.796 3.797,0 c 0.844,0 1.375,0.625 1.375,1.593 0,0.75 -0.25,1.219 -0.922,1.688 l 0.781,0 0,0.719 z" /><path
         id="path236"
         style="fill:#00ff00;fill-opacity:1;fill-rule:nonzero;stroke:none"
         d="m 28.117,109.726 c -0.734,0 -1.187,-0.062 -1.562,-0.203 -0.828,-0.328 -1.328,-1.094 -1.328,-2.031 0,-1.406 1.031,-2.297 2.687,-2.297 1.656,0 2.625,0.859 2.625,2.281 0,1.141 -0.656,1.938 -1.672,2.141 l 0,-0.797 c 0.672,-0.219 0.938,-0.672 0.938,-1.312 0,-0.844 -0.532,-1.469 -1.688,-1.485 l 0,3.703 z m -0.719,-0.859 c 0,0 0.047,0 0.063,0 l 0,-2.828 c -0.891,0.078 -1.5,0.64 -1.5,1.437 0,0.797 0.656,1.391 1.437,1.391 z" /><path
         id="path238"
         style="fill:#00ff00;fill-opacity:1;fill-rule:nonzero;stroke:none"
         d="m 26.07,113.25 -0.812,0 c -0.016,-0.141 -0.031,-0.203 -0.031,-0.313 0,-0.515 0.312,-0.906 1.062,-1.359 l -0.922,0 0,-0.734 5.031,0 0,0.796 -2.609,0 c -1.125,0 -1.703,0.375 -1.719,1.61 z" /><path
         id="path240"
         style="fill:#00ff00;fill-opacity:1;fill-rule:nonzero;stroke:none"
         d="m 31.617,118.914 0.484,0 0,-5.766 -0.484,0 0,5.766 z" /><path
         id="path242"
         style="fill:#00ff00;fill-opacity:1;fill-rule:nonzero;stroke:none"
         d="m 30.398,123.457 -7,0 0,-0.797 2.61,0 c -0.516,-0.344 -0.781,-0.875 -0.781,-1.547 0,-1.297 1.015,-2.156 2.609,-2.156 1.703,0 2.703,0.828 2.703,2.187 0,0.688 -0.25,1.172 -0.875,1.594 l 0.734,0 0,0.719 z m -2.5,-0.797 c 1.172,0 1.891,-0.563 1.891,-1.406 0,-0.875 -0.734,-1.469 -1.906,-1.469 -1.172,0 -1.906,0.594 -1.906,1.469 0,0.859 0.765,1.406 1.921,1.406 z" /><path
         id="path244"
         style="fill:#00ff00;fill-opacity:1;fill-rule:nonzero;stroke:none"
         d="m 28.398,130.027 c -0.843,0 -1.343,-0.39 -1.687,-1.281 -0.297,0.625 -0.828,0.969 -1.531,0.969 -1.016,0 -1.782,-0.75 -1.782,-2.078 l 0,-2.829 7,0 0,3.157 c 0,1.25 -0.843,2.062 -2,2.062 z m -3.093,-1.203 c 0.703,0 1.109,-0.422 1.109,-1.406 l 0,-1.719 -2.219,0 0,1.719 c 0,0.984 0.407,1.406 1.11,1.406 z m 3.109,0.297 c 0.672,0 1.203,-0.406 1.203,-1.25 l 0,-2.172 -2.406,0 0,2.172 c 0,0.844 0.516,1.25 1.203,1.25 z" /><path
         id="path246"
         style="fill:#00ff00;fill-opacity:1;fill-rule:nonzero;stroke:none"
         d="m 28.477,136.429 c -0.86,0 -1.5,-0.531 -1.75,-1.484 l -0.469,-1.75 c -0.219,-0.844 -0.5,-1.156 -1.047,-1.156 -0.703,0 -1.234,0.625 -1.234,1.562 0,1.11 0.515,1.75 1.421,1.75 l 0,0.844 c -1.375,0 -2.171,-0.953 -2.171,-2.562 0,-1.532 0.843,-2.485 2.109,-2.485 0.859,0 1.391,0.453 1.641,1.375 l 0.453,1.735 c 0.234,0.875 0.593,1.281 1.14,1.281 0.766,0 1.219,-0.578 1.219,-1.781 0,-1.329 -0.672,-1.969 -1.672,-1.969 l 0,-0.86 c 1.656,0 2.453,1.125 2.453,2.766 0,1.781 -0.843,2.734 -2.093,2.734 z" /><path
         id="path248"
         style="fill:#00ff00;fill-opacity:1;fill-rule:nonzero;stroke:none"
         d="m 25.586,141.785 c -1.141,0 -1.984,-0.891 -1.984,-2.188 0,-1.39 0.703,-2.187 2.359,-2.234 l 0,0.844 c -1.141,0.062 -1.625,0.531 -1.625,1.375 0,0.765 0.547,1.328 1.281,1.328 0.531,0 0.985,-0.313 1.344,-0.906 l 0.5,-0.891 c 0.797,-1.422 1.437,-1.828 2.937,-1.906 l 0,4.531 -0.828,0 0,-3.578 c -0.562,0.078 -0.922,0.391 -1.406,1.219 l -0.516,0.968 c -0.515,0.938 -1.218,1.438 -2.062,1.438 z" /><path
         id="path250"
         style="fill:#00ff00;fill-opacity:1;fill-rule:nonzero;stroke:none"
         d="m 30.398,145.547 -6.796,0 0,-0.563 c 1.046,-0.297 1.187,-0.484 1.343,-1.781 l 0.61,0 0,1.5 4.843,0 0,0.844 z" /></g></g></svg>