<?xml version="1.0" encoding="UTF-8" standalone="no"?>
<svg
   xmlns:dc="http://purl.org/dc/elements/1.1/"
   xmlns:cc="http://creativecommons.org/ns#"
   xmlns:rdf="http://www.w3.org/1999/02/22-rdf-syntax-ns#"
   xmlns:svg="http://www.w3.org/2000/svg"
   xmlns="http://www.w3.org/2000/svg"
   viewBox="0 0 867.9975 413.99875"
   height="413.99875"
   width="867.9975"
   xml:space="preserve"
   version="1.1"
   id="svg2"><metadata
     id="metadata8"><rdf:RDF><cc:Work
         rdf:about=""><dc:format>image/svg+xml</dc:format><dc:type
           rdf:resource="http://purl.org/dc/dcmitype/StillImage" /></cc:Work></rdf:RDF></metadata><defs
     id="defs6" /><g
     transform="matrix(1.25,0,0,-1.25,0,413.99876)"
     id="g10"><g
       id="g12"><path
         id="path14"
         style="fill:#ffffff;fill-opacity:1;fill-rule:evenodd;stroke:none"
         d="m 0,331.199 694.398,0 L 694.398,0 0,0 0,331.199 Z" /><path
         id="path16"
         style="fill:none;stroke:#c0c0c0;stroke-width:0.80000001;stroke-linecap:square;stroke-linejoin:bevel;stroke-miterlimit:4;stroke-dasharray:0.8, 1.6;stroke-dashoffset:0;stroke-opacity:1"
         d="m 122.398,290.398 480,0" /><path
         id="path18"
         style="fill:none;stroke:#c0c0c0;stroke-width:0.80000001;stroke-linecap:square;stroke-linejoin:bevel;stroke-miterlimit:4;stroke-dasharray:0.8, 1.6;stroke-dashoffset:0;stroke-opacity:1"
         d="m 122.398,262.398 480,0" /><path
         id="path20"
         style="fill:none;stroke:#c0c0c0;stroke-width:0.80000001;stroke-linecap:square;stroke-linejoin:bevel;stroke-miterlimit:4;stroke-dasharray:0.8, 1.6;stroke-dashoffset:0;stroke-opacity:1"
         d="m 122.398,233.597 480,0" /><path
         id="path22"
         style="fill:none;stroke:#c0c0c0;stroke-width:0.80000001;stroke-linecap:square;stroke-linejoin:bevel;stroke-miterlimit:4;stroke-dasharray:0.8, 1.6;stroke-dashoffset:0;stroke-opacity:1"
         d="m 122.398,205.597 480,0" /><path
         id="path24"
         style="fill:none;stroke:#c0c0c0;stroke-width:0.80000001;stroke-linecap:square;stroke-linejoin:bevel;stroke-miterlimit:4;stroke-dasharray:0.8, 1.6;stroke-dashoffset:0;stroke-opacity:1"
         d="m 122.398,176.801 480,0" /><path
         id="path26"
         style="fill:none;stroke:#c0c0c0;stroke-width:0.80000001;stroke-linecap:square;stroke-linejoin:bevel;stroke-miterlimit:4;stroke-dasharray:0.8, 1.6;stroke-dashoffset:0;stroke-opacity:1"
         d="m 122.398,148.801 480,0" /><path
         id="path28"
         style="fill:none;stroke:#c0c0c0;stroke-width:0.80000001;stroke-linecap:square;stroke-linejoin:bevel;stroke-miterlimit:4;stroke-dasharray:0.8, 1.6;stroke-dashoffset:0;stroke-opacity:1"
         d="m 122.398,120 480,0" /><path
         id="path30"
         style="fill:none;stroke:#c0c0c0;stroke-width:0.80000001;stroke-linecap:square;stroke-linejoin:bevel;stroke-miterlimit:4;stroke-dasharray:0.8, 1.6;stroke-dashoffset:0;stroke-opacity:1"
         d="m 122.398,92 480,0" /><path
         id="path32"
         style="fill:none;stroke:#c0c0c0;stroke-width:0.80000001;stroke-linecap:square;stroke-linejoin:bevel;stroke-miterlimit:4;stroke-dasharray:0.8, 1.6;stroke-dashoffset:0;stroke-opacity:1"
         d="m 465.602,319.199 0,-256" /><path
         id="path34"
         style="fill:none;stroke:#000000;stroke-width:0.80000001;stroke-linecap:square;stroke-linejoin:bevel;stroke-miterlimit:4;stroke-dasharray:none;stroke-opacity:1"
         d="m 122.398,67.199 0,-8" /><path
         id="path36"
         style="fill:none;stroke:#000000;stroke-width:0.80000001;stroke-linecap:square;stroke-linejoin:bevel;stroke-miterlimit:4;stroke-dasharray:none;stroke-opacity:1"
         d="m 465.602,67.199 0,-8" /><path
         id="path38"
         style="fill:none;stroke:#000000;stroke-width:0.80000001;stroke-linecap:square;stroke-linejoin:bevel;stroke-miterlimit:4;stroke-dasharray:none;stroke-opacity:1"
         d="m 118.398,63.199 8,0" /><path
         id="path40"
         style="fill:none;stroke:#000000;stroke-width:0.80000001;stroke-linecap:square;stroke-linejoin:bevel;stroke-miterlimit:4;stroke-dasharray:none;stroke-opacity:1"
         d="m 118.398,92 8,0" /><path
         id="path42"
         style="fill:none;stroke:#000000;stroke-width:0.80000001;stroke-linecap:square;stroke-linejoin:bevel;stroke-miterlimit:4;stroke-dasharray:none;stroke-opacity:1"
         d="m 118.398,120 8,0" /><path
         id="path44"
         style="fill:none;stroke:#000000;stroke-width:0.80000001;stroke-linecap:square;stroke-linejoin:bevel;stroke-miterlimit:4;stroke-dasharray:none;stroke-opacity:1"
         d="m 118.398,148.801 8,0" /><path
         id="path46"
         style="fill:none;stroke:#000000;stroke-width:0.80000001;stroke-linecap:square;stroke-linejoin:bevel;stroke-miterlimit:4;stroke-dasharray:none;stroke-opacity:1"
         d="m 118.398,176.801 8,0" /><path
         id="path48"
         style="fill:none;stroke:#000000;stroke-width:0.80000001;stroke-linecap:square;stroke-linejoin:bevel;stroke-miterlimit:4;stroke-dasharray:none;stroke-opacity:1"
         d="m 118.398,205.597 8,0" /><path
         id="path50"
         style="fill:none;stroke:#000000;stroke-width:0.80000001;stroke-linecap:square;stroke-linejoin:bevel;stroke-miterlimit:4;stroke-dasharray:none;stroke-opacity:1"
         d="m 118.398,233.597 8,0" /><path
         id="path52"
         style="fill:none;stroke:#000000;stroke-width:0.80000001;stroke-linecap:square;stroke-linejoin:bevel;stroke-miterlimit:4;stroke-dasharray:none;stroke-opacity:1"
         d="m 118.398,262.398 8,0" /><path
         id="path54"
         style="fill:none;stroke:#000000;stroke-width:0.80000001;stroke-linecap:square;stroke-linejoin:bevel;stroke-miterlimit:4;stroke-dasharray:none;stroke-opacity:1"
         d="m 118.398,290.398 8,0" /><path
         id="path56"
         style="fill:none;stroke:#000000;stroke-width:0.80000001;stroke-linecap:square;stroke-linejoin:bevel;stroke-miterlimit:4;stroke-dasharray:none;stroke-opacity:1"
         d="m 118.398,319.199 8,0" /><path
         id="path58"
         style="fill:none;stroke:#000000;stroke-width:0.80000001;stroke-linecap:square;stroke-linejoin:bevel;stroke-miterlimit:4;stroke-dasharray:none;stroke-opacity:1"
         d="m 122.398,319.199 480,0" /><path
         id="path60"
         style="fill:none;stroke:#000000;stroke-width:0.80000001;stroke-linecap:square;stroke-linejoin:bevel;stroke-miterlimit:4;stroke-dasharray:none;stroke-opacity:1"
         d="m 602.398,319.199 0,-256" /><path
         id="path62"
         style="fill:none;stroke:#000000;stroke-width:0.80000001;stroke-linecap:square;stroke-linejoin:bevel;stroke-miterlimit:4;stroke-dasharray:none;stroke-opacity:1"
         d="m 122.398,63.199 480,0" /><path
         id="path64"
         style="fill:none;stroke:#000000;stroke-width:0.80000001;stroke-linecap:square;stroke-linejoin:bevel;stroke-miterlimit:4;stroke-dasharray:none;stroke-opacity:1"
         d="m 122.398,319.199 0,-256" /><path
         id="path66"
         style="fill:none;stroke:#0000ff;stroke-width:0.80000001;stroke-linecap:square;stroke-linejoin:bevel;stroke-miterlimit:4;stroke-dasharray:none;stroke-opacity:1"
         d="m 156.688,259.676 0.156,0.058 0.16,0.055 0.16,0.058 0.16,0.055 0.16,0.059 0.164,0.054 0.161,0.059 0.164,0.059 0.164,0.054 0.168,0.059 0.164,0.055 0.168,0.058 0.168,0.055 0.168,0.058 0.168,0.055 0.168,0.059 0.171,0.054 0.172,0.059 0.172,0.055 0.172,0.058 0.176,0.055 0.172,0.059 0.176,0.054 0.175,0.059 0.18,0.058 0.176,0.055 0.179,0.059 0.18,0.054 0.18,0.059 0.18,0.055 0.183,0.058 0.184,0.055 0.183,0.059 0.184,0.054 0.184,0.059 0.187,0.055 0.187,0.058 0.188,0.055 0.188,0.058 0.191,0.055 0.191,0.059 0.188,0.054 0.195,0.059 0.192,0.055 0.195,0.058 0.195,0.055 0.391,0.117 0.199,0.055 0.199,0.058 0.199,0.055 0.2,0.059 0.203,0.054 0.199,0.059 0.203,0.055 0.207,0.058 0.203,0.055 0.207,0.059 0.207,0.054 0.207,0.059 0.211,0.055 0.207,0.058 0.211,0.055 0.215,0.058 0.211,0.055 0.215,0.059 0.215,0.054 0.215,0.059 0.214,0.055 0.219,0.058 0.219,0.055 0.219,0.059 0.222,0.054 0.223,0.059 0.223,0.054 0.222,0.059 0.227,0.055 0.226,0.058 0.223,0.055 0.231,0.059 0.23,0.054 0.227,0.059 0.234,0.055 0.23,0.058 0.235,0.055 0.234,0.058 0.235,0.055 0.238,0.059 0.234,0.054 0.242,0.059 0.239,0.055 0.242,0.058 0.484,0.11 0.246,0.058 0.243,0.055 0.25,0.059 0.246,0.054 0.25,0.059 0.25,0.055 0.25,0.058 0.254,0.055 0.253,0.058 0.254,0.055 0.254,0.059 0.258,0.054 0.258,0.059 0.258,0.055 0.261,0.058 0.262,0.055 0.266,0.055 0.261,0.058 0.266,0.055 0.27,0.059 0.265,0.054 0.27,0.059 0.269,0.054 0.274,0.059 0.273,0.055 0.274,0.058 0.273,0.055 0.277,0.059 0.278,0.054 0.281,0.055 0.281,0.059 0.282,0.054 0.281,0.059 0.285,0.055 0.285,0.058 0.289,0.055 0.285,0.058 0.293,0.055 0.289,0.055 0.293,0.058 0.293,0.055 0.297,0.059 0.297,0.054 0.297,0.059 0.601,0.109 0.301,0.059 0.305,0.055 0.305,0.058 0.304,0.055 0.309,0.059 0.617,0.109 0.313,0.058 0.316,0.055 0.312,0.059 0.317,0.054 0.32,0.059 0.317,0.055 0.32,0.054 0.324,0.059 0.324,0.055 0.325,0.058 0.656,0.11 0.328,0.058 0.332,0.055 0.332,0.059 0.672,0.109 0.336,0.059 0.34,0.054 0.34,0.059 0.339,0.054 0.344,0.055 0.348,0.059 0.343,0.054 0.352,0.055 0.348,0.059 0.351,0.054 0.356,0.059 0.711,0.109 0.359,0.059 0.719,0.109 0.363,0.059 0.367,0.055 0.367,0.058 0.368,0.055 0.371,0.055 0.371,0.058 0.371,0.055 0.375,0.055 0.379,0.058 0.758,0.11 0.382,0.058 0.383,0.055 0.387,0.055 0.387,0.058 0.781,0.109 0.391,0.059 0.394,0.055 0.399,0.054 0.398,0.059 0.398,0.055 0.403,0.054 0.406,0.059 0.402,0.055 0.821,0.109 0.41,0.059 0.828,0.109 0.418,0.059 0.418,0.054 0.422,0.055 0.422,0.059 0.851,0.109 0.43,0.055 0.43,0.058 0.867,0.11 0.437,0.054 0.438,0.059 0.441,0.055 0.446,0.054 0.441,0.055 0.449,0.059 0.899,0.109 0.453,0.055 0.457,0.058 0.457,0.055 0.922,0.109 0.461,0.059 1.406,0.164 0.472,0.059 0.473,0.054 0.477,0.055 0.961,0.109 0.484,0.059 0.484,0.055 0.489,0.054 0.984,0.11 0.492,0.058 0.496,0.055 1,0.109 0.508,0.055 0.504,0.055 0.508,0.058 0.512,0.055 0.515,0.055 0.512,0.054 1.039,0.11 0.523,0.054 0.528,0.055 0.527,0.059 0.527,0.054 1.606,0.164 0.539,0.055 0.543,0.055 1.094,0.109 0.55,0.059 0.551,0.054 0.555,0.055 1.117,0.11 0.563,0.054 0.566,0.055 1.711,0.164 1.156,0.109 1.164,0.11 0.59,0.054 0.586,0.055 1.188,0.109 0.597,0.055 1.203,0.11 0.606,0.054 0.609,0.055 1.227,0.109 0.617,0.055 1.242,0.109 0.625,0.055 0.629,0.055 1.266,0.109 0.64,0.055 0.637,0.054 0.645,0.055 0.644,0.051 1.957,0.164 1.32,0.109 0.664,0.055 0.668,0.055 0.672,0.051 0.672,0.054 0.676,0.055 0.684,0.055 0.679,0.054 0.688,0.055 0.687,0.051 1.391,0.109 0.699,0.055 0.703,0.054 0.703,0.051 1.422,0.11 0.715,0.054 0.719,0.051 1.445,0.109 0.731,0.055 0.73,0.051 0.734,0.055 0.743,0.054 0.742,0.051 0.742,0.055 0.75,0.054 0.754,0.051 0.754,0.055 0.762,0.055 0.761,0.05 0.766,0.055 0.769,0.055 0.774,0.051 0.777,0.054 0.781,0.051 0.786,0.055 0.789,0.054 0.789,0.051 0.797,0.055 0.796,0.051 0.805,0.054 0.805,0.051 0.812,0.055 0.813,0.051 0.816,0.054 0.824,0.051 0.825,0.055 0.828,0.051 0.832,0.054 0.836,0.051 0.84,0.055 0.847,0.05 0.848,0.055 0.852,0.051 0.855,0.051 0.859,0.054 0.868,0.051 0.867,0.055 0.871,0.051 0.875,0.05 0.883,0.055 0.882,0.051 0.887,0.051 0.895,0.054 0.894,0.051 1.805,0.102 0.91,0.054 0.914,0.051 0.918,0.051 0.922,0.051 0.926,0.054 0.929,0.051 0.934,0.051 0.938,0.051 1.89,0.101 0.953,0.055 0.957,0.051 0.961,0.051 0.965,0.05 0.969,0.051 1.953,0.102 1.969,0.101 0.992,0.051 2,0.102 2.016,0.101 1.015,0.051 1.02,0.051 2.054,0.101 1.036,0.051 1.039,0.051 1.043,0.047 2.101,0.101 1.059,0.051 1.062,0.051 1.071,0.047 1.074,0.051 1.078,0.05 1.082,0.051 1.086,0.047 1.094,0.051 1.097,0.051 1.106,0.046 1.105,0.051 1.113,0.051 1.122,0.047 1.121,0.051 1.129,0.05 1.136,0.047 1.137,0.051 1.145,0.047 1.152,0.051 1.152,0.047 1.164,0.05 1.164,0.047 1.172,0.051 1.176,0.047 1.184,0.047 1.187,0.051 1.191,0.046 1.2,0.047 1.203,0.051 1.211,0.047 1.215,0.047 1.222,0.051 1.227,0.047 1.23,0.046 1.239,0.047 1.242,0.047 1.25,0.047 1.254,0.051 1.261,0.047 2.539,0.093 2.563,0.094 1.293,0.047 1.297,0.047 1.301,0.047 1.308,0.047 1.313,0.047 1.32,0.046 1.328,0.043 1.332,0.047 1.34,0.047 1.344,0.047 1.351,0.047 1.36,0.043 1.363,0.047 1.371,0.047 1.375,0.043 1.383,0.046 1.391,0.047 1.394,0.043 1.402,0.047 1.407,0.043 1.418,0.047 1.418,0.043 1.429,0.047 1.434,0.043 1.441,0.047 1.449,0.043 1.454,0.043 1.461,0.047 1.468,0.042 1.477,0.043 1.48,0.043 1.489,0.047 1.496,0.043 1.504,0.043 1.507,0.043 1.516,0.043 1.523,0.043 1.532,0.043 1.535,0.043 1.547,0.043 1.551,0.043 1.558,0.043 1.567,0.043 1.574,0.043 1.578,0.043 1.59,0.039 1.593,0.043 1.602,0.043 1.613,0.039 1.617,0.043 1.626,0.043 1.632,0.039 1.637,0.043 1.648,0.039 1.657,0.043 1.66,0.039 1.672,0.043 1.679,0.039 1.684,0.039 1.695,0.039 1.7,0.043 1.71,0.039 1.715,0.039 1.727,0.039 1.734,0.039 1.739,0.039 1.75,0.04 1.757,0.039 1.766,0.039 1.773,0.039 1.782,0.039 1.793,0.039 1.797,0.035 1.804,0.039 1.817,0.039 1.824,0.035 1.832,0.039 1.84,0.039 1.847,0.036 1.86,0.039 1.863,0.035 1.875,0.035 1.883,0.039 1.89,0.035 1.903,0.035 1.91,0.035 1.918,0.036 1.926,0.035 1.937,0.035 1.942,0.035 1.957,0.035 1.961,0.035 1.972,0.036 1.981,0.035 1.992,0.031 1.996,0.035 2.012,0.035 2.015,0.032 2.028,0.035 2.039,0.031 2.043,0.035 2.058,0.031 2.063,0.032 2.074,0.031 2.086,0.035 2.094,0.031 2.101,0.031 2.114,0.032 2.125,0.031 2.132,0.027 2.141,0.032 2.152,0.031 2.164,0.031 2.172,0.027 2.184,0.032 2.191,0.027 2.203,0.031 1.082,0.012" /><path
         id="path68"
         style="fill:none;stroke:#ff0000;stroke-width:0.80000001;stroke-linecap:square;stroke-linejoin:bevel;stroke-miterlimit:4;stroke-dasharray:none;stroke-opacity:1"
         d="m 156.688,168.801 0.156,0.007 0.48,0.024 0.16,0.004 0.164,0.004 0.161,0.004 0.496,0 0.164,-0.004 0.504,-0.012 0.168,-0.008 0.168,-0.012 0.343,-0.023 0.344,-0.031 0.176,-0.02 0.172,-0.015 0.351,-0.047 0.18,-0.028 0.176,-0.027 0.179,-0.027 0.18,-0.032 0.18,-0.035 0.18,-0.039 0.367,-0.078 0.551,-0.141 0.374,-0.109 0.188,-0.059 0.188,-0.062 0.382,-0.133 0.188,-0.074 0.195,-0.074 0.192,-0.082 0.195,-0.082 0.39,-0.18 0.196,-0.098 0.398,-0.211 0.199,-0.113 0.2,-0.117 0.203,-0.125 0.199,-0.129 0.203,-0.137 0.207,-0.14 0.203,-0.153 0.207,-0.156 0.207,-0.164 0.207,-0.176 0.211,-0.179 0.207,-0.192 0.211,-0.203 0.215,-0.211 0.211,-0.223 0.215,-0.234 0.215,-0.246 0.215,-0.262 0.214,-0.273 0.219,-0.289 0.219,-0.309 0.219,-0.324 0.222,-0.344 0.223,-0.363 0.223,-0.391 0.222,-0.414 0.227,-0.441 0.226,-0.473 0.223,-0.508 0.231,-0.543 0.23,-0.586 0.227,-0.636 0.234,-0.692 0.23,-0.754 0.235,-0.824 0.234,-0.914 0.235,-1.016 0.238,-1.14 0.234,-1.297 0.242,-1.492 0.239,-1.75 0.242,-2.102 0.242,-2.617 0.242,-3.43 0.246,-4.929 0.243,-8.664 0.25,-38.344 0.246,39.73 0.25,8.481 0.25,5.094 0.25,3.679 0.254,2.903 0.253,2.406 0.254,2.062 0.254,1.813 0.258,1.621 0.258,1.469 0.258,1.347 0.261,1.242 0.262,1.161 0.266,1.086 0.261,1.023 0.266,0.973 0.27,0.922 0.265,0.878 0.27,0.844 0.269,0.809 0.274,0.777 0.273,0.75 0.274,0.727 0.273,0.699 0.277,0.684 0.278,0.66 0.281,0.644 0.281,0.629 0.282,0.613 0.281,0.598 0.285,0.582 0.285,0.574 0.289,0.559 0.285,0.551 0.293,0.539 0.289,0.527 0.293,0.524 0.293,0.511 0.297,0.5 0.297,0.496 0.297,0.489 0.301,0.484 0.3,0.473 0.301,0.468 0.305,0.461 0.305,0.457 0.304,0.453 0.309,0.446 0.617,0.875 0.313,0.433 0.316,0.426 0.312,0.422 0.317,0.418 0.32,0.414 0.317,0.414 0.32,0.406 0.648,0.805 0.325,0.399 0.328,0.394 0.328,0.391 0.328,0.386 0.332,0.387 0.332,0.383 0.672,0.758 0.336,0.375 0.34,0.375 0.34,0.371 0.339,0.367 0.344,0.367 0.348,0.363 0.343,0.364 0.352,0.363 0.348,0.356 0.351,0.359 0.356,0.355 0.711,0.703 0.359,0.352 0.719,0.695 0.363,0.344 1.102,1.031 0.371,0.34 0.371,0.336 0.371,0.34 0.375,0.336 0.379,0.336 0.758,0.664 0.765,0.664 0.387,0.332 0.387,0.328 0.39,0.328 0.391,0.324 0.391,0.329 0.394,0.324 0.797,0.648 0.398,0.321 0.403,0.32 0.406,0.32 0.402,0.321 0.821,0.64 0.41,0.317 0.828,0.632 0.418,0.317 0.418,0.312 0.422,0.317 0.422,0.312 0.425,0.317 0.426,0.308 0.86,0.625 0.433,0.313 0.434,0.308 0.875,0.617 0.441,0.309 0.446,0.309 0.441,0.308 0.449,0.309 0.449,0.305 0.45,0.308 0.453,0.305 0.914,0.609 1.383,0.914 0.468,0.301 0.469,0.305 0.469,0.3 0.472,0.305 0.473,0.301 0.477,0.301 0.961,0.601 0.968,0.602 0.489,0.301 0.492,0.3 0.492,0.297 0.492,0.301 0.496,0.297 0.5,0.301 0.5,0.297 0.508,0.296 0.504,0.297 0.508,0.297 0.512,0.297 0.515,0.297 0.512,0.297 1.039,0.594 0.523,0.296 0.528,0.293 1.054,0.594 0.536,0.293 0.535,0.297 0.535,0.293 0.539,0.293 0.543,0.297 1.094,0.586 1.101,0.586 0.555,0.293 1.117,0.586 0.563,0.293 0.566,0.293 1.711,0.878 0.578,0.293 0.578,0.29 0.582,0.292 0.582,0.29 0.59,0.293 0.586,0.292 0.594,0.29 0.594,0.293 0.597,0.289 0.602,0.289 0.601,0.293 0.606,0.289 0.609,0.293 1.227,0.578 0.617,0.293 1.242,0.578 0.625,0.289 0.629,0.289 1.266,0.578 0.64,0.289 0.637,0.289 0.645,0.293 0.644,0.285 1.957,0.868 1.32,0.578 0.664,0.289 0.668,0.289 0.672,0.289 0.672,0.285 0.676,0.289 0.684,0.289 0.679,0.289 0.688,0.285 0.687,0.289 0.696,0.289 0.695,0.286 0.699,0.289 0.703,0.289 0.703,0.285 1.422,0.578 0.715,0.285 0.719,0.289 0.722,0.285 0.723,0.289 0.731,0.286 0.73,0.289 0.734,0.285 0.743,0.289 1.484,0.57 0.75,0.289 0.754,0.285 0.754,0.29 1.523,0.57 0.766,0.289 0.769,0.285 0.774,0.285 0.777,0.289 0.781,0.285 0.786,0.286 0.789,0.289 0.789,0.285 1.593,0.57 0.805,0.285 0.805,0.289 1.625,0.571 0.816,0.285 0.824,0.285 0.825,0.289 0.828,0.285 0.832,0.285 0.836,0.285 0.84,0.286 1.695,0.57 0.852,0.285 0.855,0.285 0.859,0.285 1.735,0.571 0.871,0.285 0.875,0.285 1.765,0.57 0.887,0.286 1.789,0.57 1.805,0.57 0.91,0.281 0.914,0.286 0.918,0.285 0.922,0.285 0.926,0.281 0.929,0.285 0.934,0.285 0.938,0.286 0.945,0.281 0.945,0.285 0.953,0.285 0.957,0.281 0.961,0.286 0.965,0.281 0.969,0.285 0.976,0.281 0.977,0.285 1.969,0.563 0.992,0.285 2,0.563 1.008,0.285 1.008,0.281 1.015,0.281 1.02,0.281 2.054,0.563 1.036,0.281 1.039,0.281 1.043,0.282 1.05,0.281 1.051,0.277 1.059,0.282 1.062,0.281 1.071,0.277 1.074,0.281 1.078,0.278 1.082,0.281 1.086,0.277 1.094,0.278 1.097,0.277 2.211,0.555 1.113,0.277 1.122,0.277 1.121,0.274 1.129,0.277 1.136,0.274 1.137,0.277 1.145,0.273 2.304,0.547 1.164,0.27 1.164,0.273 1.172,0.274 1.176,0.269 1.184,0.27 1.187,0.269 1.191,0.27 1.2,0.265 1.203,0.27 1.211,0.266 1.215,0.265 1.222,0.266 1.227,0.262 1.23,0.265 1.239,0.262 1.242,0.262 1.25,0.257 1.254,0.262 1.261,0.258 1.27,0.254 1.269,0.258 2.563,0.507 1.293,0.25 1.297,0.25 1.301,0.25 1.308,0.247 1.313,0.246 1.32,0.246 1.328,0.242 1.332,0.238 1.34,0.242 1.344,0.235 1.351,0.238 1.36,0.234 1.363,0.231 1.371,0.23 1.375,0.227 1.383,0.226 1.391,0.223 1.394,0.219 1.402,0.219 1.407,0.218 1.418,0.211 1.418,0.215 1.429,0.207 1.434,0.207 1.441,0.203 1.449,0.2 1.454,0.199 1.461,0.195 1.468,0.192 1.477,0.191 1.48,0.187 1.489,0.184 1.496,0.18 1.504,0.179 1.507,0.172 1.516,0.172 1.523,0.168 1.532,0.164 1.535,0.164 1.547,0.156 1.551,0.157 1.558,0.152 1.567,0.149 1.574,0.144 1.578,0.145 1.59,0.136 1.593,0.137 1.602,0.133 1.613,0.129 1.617,0.125 1.626,0.125 1.632,0.117 1.637,0.117 1.648,0.113 1.657,0.11 1.66,0.109 1.672,0.102 1.679,0.101 1.684,0.098 1.695,0.094 1.7,0.093 1.71,0.09 1.715,0.086 1.727,0.082 1.734,0.082 1.739,0.078 1.75,0.075 1.757,0.074 1.766,0.07 1.773,0.07 1.782,0.063 1.793,0.066 1.797,0.059 1.804,0.062 1.817,0.055 1.824,0.055 1.832,0.055 1.84,0.05 1.847,0.047 1.86,0.047 1.863,0.047 1.875,0.043 1.883,0.043 1.89,0.039 1.903,0.039 1.91,0.039 1.918,0.035 1.926,0.035 1.937,0.032 1.942,0.031 1.957,0.031 1.961,0.031 1.972,0.028 1.981,0.027 1.992,0.023 1.996,0.028 2.012,0.023 2.015,0.024 2.028,0.019 2.039,0.02 2.043,0.023 2.058,0.02 2.063,0.015 2.074,0.02 2.086,0.016 2.094,0.015 2.101,0.016 2.114,0.015 2.125,0.012 2.132,0.016 2.141,0.011 2.152,0.012 2.164,0.012 2.172,0.012 2.184,0.011 2.191,0.012 2.203,0.008 1.082,0.008" /><path
         id="path70"
         style="fill:none;stroke:#ff00ff;stroke-width:0.80000001;stroke-linecap:square;stroke-linejoin:bevel;stroke-miterlimit:4;stroke-dasharray:none;stroke-opacity:1"
         d="m 156.688,273.34 0.156,0.05 0.16,0.047 0.16,0.051 0.16,0.047 0.16,0.051 0.164,0.047 0.161,0.05 0.328,0.094 0.168,0.051 0.164,0.047 0.336,0.094 0.168,0.05 0.336,0.094 0.171,0.047 0.172,0.051 0.344,0.093 0.176,0.047 0.172,0.047 0.351,0.094 0.18,0.047 0.176,0.047 0.719,0.187 0.55,0.141 0.184,0.043 0.184,0.047 0.562,0.14 0.188,0.043 0.382,0.094 0.188,0.043 0.195,0.047 0.192,0.043 0.39,0.094 0.195,0.043 0.196,0.046 0.398,0.086 0.199,0.047 0.2,0.043 0.203,0.047 0.199,0.043 0.203,0.043 0.207,0.047 0.203,0.043 0.621,0.129 0.211,0.047 0.207,0.043 0.211,0.043 0.215,0.043 0.211,0.043 0.859,0.171 0.219,0.043 0.219,0.039 0.219,0.043 0.668,0.129 0.222,0.039 0.453,0.086 0.223,0.039 0.231,0.043 0.23,0.039 0.227,0.043 0.234,0.039 0.23,0.043 0.469,0.079 0.235,0.043 0.238,0.039 0.234,0.039 0.242,0.043 0.239,0.039 0.726,0.117 0.246,0.039 0.243,0.039 0.25,0.039 0.246,0.039 0.75,0.117 0.254,0.039 0.253,0.036 0.508,0.078 0.258,0.035 0.516,0.078 0.261,0.035 0.262,0.039 0.266,0.035 0.261,0.035 0.266,0.04 0.27,0.035 0.265,0.035 0.27,0.039 0.269,0.035 1.094,0.141 0.555,0.07 0.844,0.105 0.281,0.032 0.57,0.07 0.289,0.031 0.285,0.035 0.293,0.032 0.289,0.035 0.293,0.031 0.293,0.035 0.594,0.063 0.297,0.035 0.902,0.094 0.914,0.093 0.617,0.063 0.309,0.027 0.313,0.031 0.316,0.032 0.312,0.027 0.317,0.031 0.32,0.028 0.317,0.031 0.32,0.027 0.324,0.028 0.324,0.031 0.325,0.027 0.984,0.082 0.664,0.055 1.008,0.082 0.34,0.023 0.34,0.028 0.339,0.023 0.344,0.028 0.348,0.023 0.343,0.027 0.352,0.024 0.348,0.023 0.351,0.024 1.067,0.07 1.078,0.07 0.363,0.02 0.734,0.047 0.368,0.019 0.371,0.02 0.371,0.023 0.371,0.02 0.375,0.019 1.137,0.059 0.765,0.039 0.387,0.015 0.387,0.02 0.39,0.016 0.391,0.019 0.391,0.016 0.394,0.019 1.195,0.047 0.403,0.016 0.406,0.015 0.402,0.012 0.411,0.016 0.41,0.012 0.41,0.015 0.414,0.012 0.414,0.015 0.836,0.024 0.844,0.023 0.425,0.008 0.426,0.012 0.43,0.012 0.43,0.007 0.433,0.008 0.434,0.012 0.875,0.016 0.441,0.007 0.446,0.008 0.441,0.004 0.449,0.008 0.899,0.008 0.453,0.008 0.914,0.007 0.461,0 0.922,0.008 0.937,0 0.469,0.004 0.472,0 0.473,-0.004 0.957,0 0.481,-0.004 0.484,-0.004 0.484,0 0.489,-0.004 0.492,-0.007 0.492,-0.004 0.492,-0.008 0.496,-0.004 1,-0.016 0.508,-0.007 0.504,-0.012 0.508,-0.008 0.512,-0.012 0.515,-0.011 0.512,-0.012 0.519,-0.012 0.52,-0.015 0.523,-0.016 1.582,-0.047 0.536,-0.019 0.535,-0.016 0.535,-0.024 0.539,-0.019 0.543,-0.02 1.094,-0.046 0.55,-0.024 0.551,-0.027 0.555,-0.028 1.117,-0.054 0.563,-0.032 0.566,-0.027 0.57,-0.035 0.571,-0.031 0.57,-0.035 1.156,-0.071 1.164,-0.078 0.59,-0.043 0.586,-0.039 0.594,-0.047 0.594,-0.043 0.597,-0.047 0.602,-0.047 0.601,-0.05 0.606,-0.051 0.609,-0.055 1.227,-0.109 0.617,-0.059 0.621,-0.062 0.621,-0.059 0.625,-0.066 0.629,-0.067 0.633,-0.066 0.633,-0.07 0.64,-0.071 0.637,-0.078 0.645,-0.074 0.644,-0.082 1.305,-0.164 0.652,-0.086 0.66,-0.09 0.66,-0.094 0.664,-0.093 0.668,-0.102 1.344,-0.203 0.676,-0.109 0.684,-0.114 0.679,-0.113 0.688,-0.117 0.687,-0.125 0.696,-0.125 0.695,-0.133 0.699,-0.133 0.703,-0.14 0.703,-0.145 0.711,-0.148 0.711,-0.153 0.715,-0.16 0.719,-0.164 0.722,-0.168 0.723,-0.176 0.731,-0.183 0.73,-0.188 0.734,-0.195 0.743,-0.203 0.742,-0.211 0.742,-0.215 0.75,-0.227 0.754,-0.234 0.754,-0.242 0.762,-0.254 0.761,-0.262 0.766,-0.273 0.769,-0.285 0.774,-0.297 0.777,-0.309 0.781,-0.324 0.786,-0.34 0.789,-0.351 0.789,-0.368 0.797,-0.39 0.796,-0.407 0.805,-0.425 0.805,-0.45 0.812,-0.472 0.813,-0.5 0.816,-0.531 0.824,-0.559 0.825,-0.598 0.828,-0.636 0.832,-0.676 0.836,-0.731 0.84,-0.785 0.847,-0.847 0.848,-0.926 0.852,-1.012 0.855,-1.113 0.859,-1.239 0.868,-1.394 0.867,-1.59 0.871,-1.84 0.875,-2.191 0.883,-2.692 0.882,-3.484 0.887,-4.918 0.895,-8.391 0.894,-48.019 0.903,47.594 0.902,8.734 0.91,5.09 0.914,3.609 0.918,2.805 0.922,2.297 0.926,1.937 0.929,1.684 0.934,1.484 0.938,1.328 0.945,1.204 0.945,1.097 0.953,1.008 0.957,0.93 0.961,0.867 0.965,0.808 0.969,0.758 0.976,0.711 0.977,0.672 0.984,0.637 0.985,0.601 0.992,0.571 1,0.539 1,0.519 1.008,0.492 1.008,0.469 1.015,0.449 1.02,0.43 1.027,0.41 1.027,0.391 1.036,0.379 1.039,0.359 1.043,0.348 1.05,0.332 1.051,0.316 1.059,0.305 1.062,0.293 1.071,0.281 1.074,0.27 1.078,0.261 1.082,0.247 1.086,0.238 1.094,0.226 1.097,0.219 1.106,0.211 1.105,0.199 1.113,0.188 1.122,0.183 1.121,0.172 1.129,0.164 1.136,0.157 1.137,0.148 1.145,0.141 1.152,0.132 1.152,0.122 1.164,0.117 1.164,0.109 1.172,0.098 1.176,0.094 1.184,0.085 1.187,0.075 1.191,0.07 1.2,0.059 1.203,0.054 1.211,0.043 1.215,0.035 1.222,0.028 1.227,0.015 1.23,0.008 1.239,0 1.242,-0.012 1.25,-0.023 1.254,-0.035 1.261,-0.043 1.27,-0.059 1.269,-0.07 1.282,-0.086 1.281,-0.102 1.293,-0.117 1.297,-0.133 1.301,-0.152 1.308,-0.176 1.313,-0.199 1.32,-0.223 1.328,-0.25 1.332,-0.281 1.34,-0.316 1.344,-0.356 1.351,-0.398 1.36,-0.453 1.363,-0.508 1.371,-0.578 1.375,-0.66 1.383,-0.754 1.391,-0.871 1.394,-1.016 1.402,-1.191 1.407,-1.422 1.418,-1.735 1.418,-2.168 1.429,-2.832 1.434,-3.953 1.441,-6.304 1.449,-15.008 1.454,4.933 1.461,12.493 1.468,6.273 1.477,4.266 1.48,3.242 1.489,2.613 1.496,2.184 1.504,1.867 1.507,1.613 1.516,1.418 1.523,1.246 1.532,1.106 1.535,0.976 1.547,0.871 1.551,0.774 1.558,0.687 1.567,0.614 1.574,0.543 1.578,0.484 1.59,0.43 1.593,0.382 1.602,0.34 1.613,0.301 1.617,0.27 1.626,0.238 1.632,0.211 1.637,0.191 1.648,0.168 1.657,0.149 1.66,0.132 1.672,0.122 1.679,0.105 1.684,0.094 1.695,0.086 1.7,0.078 1.71,0.07 1.715,0.059 1.727,0.058 1.734,0.051 1.739,0.043 1.75,0.043 1.757,0.035 1.766,0.035 1.773,0.032 1.782,0.027 1.793,0.023 1.797,0.024 1.804,0.019 1.817,0.02 1.824,0.015 1.832,0.016 1.84,0.016 1.847,0.011 1.86,0.012 1.863,0.012 1.875,0.012 1.883,0.007 1.89,0.008 1.903,0.008 1.91,0.008 1.918,0.008 1.926,0.004 1.937,0.007 1.942,0.004 1.957,0.004 1.961,0.004 1.972,0.004 1.981,0.004 1.992,0.004 1.996,0.004 2.012,0.004 2.015,0.004 2.028,0 2.039,0.003 2.043,0 2.058,0.004 2.063,0 2.074,0.004 2.086,0 2.094,0.004 4.215,0 2.125,0.004 6.425,0 2.164,0.004 6.547,0 2.203,0.004 1.082,0" /><path
         id="path72"
         style="fill:none;stroke:#00ff00;stroke-width:0.80000001;stroke-linecap:square;stroke-linejoin:bevel;stroke-miterlimit:4;stroke-dasharray:none;stroke-opacity:1"
         d="m 156.688,268.508 0.156,0.054 0.16,0.051 0.32,0.109 0.16,0.051 0.164,0.055 0.161,0.055 0.164,0.05 0.164,0.055 0.168,0.055 0.164,0.051 0.168,0.054 0.168,0.051 0.168,0.055 0.168,0.05 0.168,0.055 0.171,0.055 0.172,0.051 0.172,0.054 0.172,0.051 0.176,0.055 0.172,0.051 0.176,0.054 0.175,0.051 0.18,0.055 0.176,0.051 0.179,0.054 0.36,0.102 0.18,0.054 0.183,0.051 0.184,0.055 0.367,0.101 0.184,0.055 0.187,0.051 0.187,0.055 0.376,0.101 0.191,0.055 0.191,0.051 0.188,0.05 0.195,0.051 0.192,0.055 0.585,0.152 0.196,0.055 0.797,0.203 0.203,0.055 0.199,0.051 0.203,0.05 0.207,0.051 0.203,0.051 0.621,0.152 0.211,0.051 0.207,0.055 0.211,0.05 0.215,0.051 0.211,0.051 0.645,0.152 0.214,0.047 0.657,0.153 0.89,0.203 0.227,0.051 0.226,0.046 0.223,0.051 0.461,0.102 0.227,0.051 0.234,0.046 0.23,0.051 0.235,0.051 0.234,0.047 0.235,0.051 0.238,0.05 0.234,0.047 0.242,0.051 0.239,0.051 0.242,0.047 0.242,0.05 0.242,0.047 0.246,0.051 0.243,0.047 0.25,0.051 0.246,0.047 0.25,0.05 0.25,0.047 0.25,0.051 0.254,0.047 0.253,0.051 0.508,0.094 0.258,0.05 0.516,0.094 0.261,0.047 0.262,0.051 0.266,0.047 0.261,0.046 0.266,0.047 0.27,0.051 0.265,0.047 0.539,0.094 1.094,0.187 0.555,0.094 1.125,0.187 0.57,0.094 0.289,0.043 0.285,0.047 0.293,0.047 0.289,0.047 0.293,0.043 0.293,0.047 0.594,0.093 0.297,0.043 0.301,0.047 0.3,0.043 0.301,0.047 0.305,0.043 0.305,0.047 0.304,0.043 0.309,0.047 0.308,0.043 0.309,0.047 0.313,0.043 0.316,0.043 0.312,0.046 0.317,0.043 0.32,0.043 0.317,0.043 0.32,0.047 0.973,0.129 0.984,0.129 0.664,0.086 1.008,0.129 0.68,0.086 0.339,0.039 0.344,0.043 0.348,0.043 0.343,0.039 0.352,0.043 0.348,0.043 0.351,0.039 0.356,0.043 0.355,0.039 0.356,0.043 0.359,0.039 0.359,0.043 0.36,0.039 0.363,0.039 0.367,0.043 0.735,0.078 0.742,0.078 0.371,0.043 0.375,0.039 1.137,0.117 0.765,0.079 0.387,0.035 0.387,0.039 0.781,0.078 0.391,0.035 0.394,0.039 0.399,0.039 0.398,0.035 0.398,0.039 0.403,0.036 0.406,0.039 0.402,0.035 0.411,0.035 0.41,0.039 0.41,0.035 0.828,0.071 0.836,0.07 0.422,0.039 0.422,0.035 0.425,0.031 0.426,0.035 0.86,0.071 0.433,0.035 0.434,0.031 0.875,0.07 0.441,0.032 0.446,0.035 0.441,0.031 0.449,0.035 0.899,0.063 0.453,0.031 0.457,0.035 0.457,0.031 1.383,0.094 0.468,0.031 0.469,0.028 0.469,0.031 0.945,0.063 0.477,0.027 0.48,0.031 0.481,0.027 0.484,0.032 0.484,0.027 0.489,0.027 0.492,0.028 0.492,0.031 0.492,0.027 0.496,0.028 1,0.054 0.508,0.024 0.504,0.027 0.508,0.028 0.512,0.027 0.515,0.023 0.512,0.028 1.039,0.047 0.523,0.027 1.582,0.07 1.606,0.07 0.539,0.02 0.543,0.023 0.547,0.024 0.547,0.019 0.55,0.02 0.551,0.023 0.555,0.02 1.117,0.039 0.563,0.02 0.566,0.019 1.141,0.039 0.57,0.016 0.578,0.019 0.578,0.016 0.582,0.016 0.582,0.019 0.59,0.016 0.586,0.015 0.594,0.016 0.594,0.012 0.597,0.015 0.602,0.016 0.601,0.012 0.606,0.011 0.609,0.016 1.227,0.023 0.617,0.012 0.621,0.008 0.621,0.012 0.625,0.011 0.629,0.008 1.266,0.016 0.64,0.008 0.637,0.007 1.289,0.016 1.305,0.008 0.652,0.008 0.66,0.004 0.66,0 0.664,0.003 0.668,0.004 3.383,0 0.688,-0.004 0.687,0 1.391,-0.007 0.699,-0.004 0.703,-0.008 0.703,-0.004 1.422,-0.016 0.715,-0.007 0.719,-0.012 0.722,-0.012 0.723,-0.008 0.731,-0.015 0.73,-0.012 0.734,-0.016 2.227,-0.046 0.75,-0.02 1.508,-0.039 0.762,-0.02 0.761,-0.023 0.766,-0.023 0.769,-0.028 0.774,-0.027 0.777,-0.028 0.781,-0.027 0.786,-0.031 1.578,-0.063 0.797,-0.035 0.796,-0.039 0.805,-0.035 0.805,-0.039 1.625,-0.086 0.816,-0.043 1.649,-0.094 0.828,-0.05 0.832,-0.055 0.836,-0.055 0.84,-0.055 0.847,-0.058 0.848,-0.063 0.852,-0.062 0.855,-0.067 0.859,-0.066 0.868,-0.07 0.867,-0.074 0.871,-0.079 0.875,-0.078 0.883,-0.082 0.882,-0.086 0.887,-0.09 0.895,-0.089 0.894,-0.098 0.903,-0.098 0.902,-0.105 0.91,-0.106 0.914,-0.113 0.918,-0.113 0.922,-0.121 0.926,-0.125 0.929,-0.129 0.934,-0.137 0.938,-0.141 0.945,-0.144 0.945,-0.152 0.953,-0.161 0.957,-0.164 0.961,-0.172 0.965,-0.179 0.969,-0.188 0.976,-0.195 0.977,-0.203 0.984,-0.215 0.985,-0.223 0.992,-0.23 1,-0.242 1,-0.258 1.008,-0.266 1.008,-0.277 1.015,-0.297 1.02,-0.309 1.027,-0.324 1.027,-0.34 1.036,-0.363 1.039,-0.379 1.043,-0.402 1.05,-0.426 1.051,-0.453 1.059,-0.481 1.062,-0.511 1.071,-0.543 1.074,-0.586 1.078,-0.629 1.082,-0.676 1.086,-0.73 1.094,-0.793 1.097,-0.864 1.106,-0.949 1.105,-1.051 1.113,-1.171 1.122,-1.321 1.121,-1.504 1.129,-1.746 1.136,-2.074 1.137,-2.535 1.145,-3.254 1.152,-4.508 1.152,-7.316 1.164,-21.071 1.164,15.696 1.172,10.269 1.176,5.575 1.184,3.863 1.187,2.961 1.191,2.406 1.2,2.027 1.203,1.75 1.211,1.539 1.215,1.375 1.222,1.239 1.227,1.129 1.23,1.035 1.239,0.953 1.242,0.883 1.25,0.82 1.254,0.766 1.261,0.714 1.27,0.668 1.269,0.629 1.282,0.594 1.281,0.555 1.293,0.523 1.297,0.492 1.301,0.461 1.308,0.434 1.313,0.41 1.32,0.383 1.328,0.355 1.332,0.336 1.34,0.309 1.344,0.285 1.351,0.266 1.36,0.238 1.363,0.219 1.371,0.191 1.375,0.172 1.383,0.141 1.391,0.117 1.394,0.09 1.402,0.062 1.407,0.027 1.418,-0.007 1.418,-0.047 1.429,-0.086 1.434,-0.141 1.441,-0.195 1.449,-0.266 1.454,-0.343 1.461,-0.446 1.468,-0.566 1.477,-0.723 1.48,-0.926 1.489,-1.207 1.496,-1.601 1.504,-2.207 1.507,-3.227 1.516,-5.277 1.523,-11.84 1.532,-2.223 1.535,15.364 1.547,7.136 1.551,4.75 1.558,3.52 1.567,2.719 1.574,2.125 1.578,1.664 1.59,1.289 1.593,0.996 1.602,0.758 1.613,0.574 1.617,0.433 1.626,0.329 1.632,0.246 1.637,0.187 1.648,0.141 1.657,0.105 1.66,0.078 1.672,0.063 1.679,0.043 1.684,0.035 1.695,0.027 1.7,0.02 1.71,0.016 1.715,0.011 1.727,0.008 1.734,0.004 1.739,0.004 1.75,0.004 1.757,0.004 23.598,0 1.875,-0.004 33.223,0 2.039,0.004 37.179,0" /><path
         id="path74"
         style="fill:#000000;fill-opacity:1;fill-rule:nonzero;stroke:none"
         d="m 124.059,52.066 c 0,2.36 -0.75,3.531 -2.219,3.531 -1.469,0 -2.235,-1.187 -2.235,-3.468 0,-2.297 0.782,-3.469 2.235,-3.469 1.437,0 2.219,1.172 2.219,3.406 z m -0.86,0.078 c 0,-1.922 -0.437,-2.781 -1.375,-2.781 -0.89,0 -1.344,0.891 -1.344,2.75 0,1.875 0.454,2.734 1.36,2.734 0.906,0 1.359,-0.875 1.359,-2.703 z" /><path
         id="path76"
         style="fill:#000000;fill-opacity:1;fill-rule:nonzero;stroke:none"
         d="m 458.527,48.801 0,6.796 -0.562,0 c -0.297,-1.046 -0.485,-1.187 -1.781,-1.343 l 0,-0.61 1.5,0 0,-4.843 0.843,0 z" /><path
         id="path78"
         style="fill:#000000;fill-opacity:1;fill-rule:nonzero;stroke:none"
         d="m 465.461,51.082 c 0,0.734 -0.063,1.187 -0.203,1.562 -0.328,0.828 -1.094,1.328 -2.031,1.328 -1.407,0 -2.297,-1.031 -2.297,-2.687 0,-1.656 0.859,-2.625 2.281,-2.625 1.141,0 1.937,0.656 2.141,1.672 l -0.797,0 c -0.219,-0.672 -0.672,-0.938 -1.313,-0.938 -0.844,0 -1.469,0.532 -1.484,1.688 l 3.703,0 z m -0.859,0.719 c 0,0 0,-0.047 0,-0.063 l -2.829,0 c 0.079,0.891 0.641,1.5 1.438,1.5 0.797,0 1.391,-0.656 1.391,-1.437 z" /><path
         id="path80"
         style="fill:#000000;fill-opacity:1;fill-rule:nonzero;stroke:none"
         d="m 470.766,52.363 c 0,2.125 -0.75,3.234 -2.297,3.234 -1.297,0 -2.235,-0.921 -2.235,-2.25 0,-1.265 0.875,-2.125 2.094,-2.125 0.641,0 1.11,0.235 1.563,0.766 -0.016,-1.656 -0.547,-2.578 -1.516,-2.578 -0.594,0 -1.016,0.375 -1.141,1.016 l -0.843,0 c 0.156,-1.11 0.89,-1.766 1.921,-1.766 1.594,0 2.454,1.344 2.454,3.703 z m -0.922,1 c 0,-0.828 -0.594,-1.391 -1.422,-1.391 -0.813,0 -1.313,0.532 -1.313,1.438 0,0.875 0.563,1.453 1.344,1.453 0.797,0 1.391,-0.609 1.391,-1.5 z" /><path
         id="path82"
         style="fill:#000000;fill-opacity:1;fill-rule:nonzero;stroke:none"
         d="m 91.637,61.398 2.281,0 0,-0.703 -2.281,0 0,0.703 z" /><path
         id="path84"
         style="fill:#000000;fill-opacity:1;fill-rule:nonzero;stroke:none"
         d="m 97.727,58.398 0,6.797 -0.563,0 C 96.867,64.148 96.68,64.008 95.383,63.851 l 0,-0.609 1.5,0 0,-4.844 0.844,0 z" /><path
         id="path86"
         style="fill:#000000;fill-opacity:1;fill-rule:nonzero;stroke:none"
         d="m 104.656,60.508 c 0,1.265 -0.859,2.125 -2.078,2.125 -0.672,0 -1.203,-0.266 -1.562,-0.766 0,1.656 0.546,2.578 1.515,2.578 0.594,0 1,-0.375 1.141,-1.016 l 0.844,0 c -0.172,1.11 -0.891,1.766 -1.938,1.766 -1.578,0 -2.437,-1.328 -2.437,-3.703 0,-2.109 0.734,-3.234 2.297,-3.234 1.281,0 2.218,0.921 2.218,2.25 z m -0.859,-0.063 c 0,-0.859 -0.578,-1.437 -1.359,-1.437 -0.782,0 -1.376,0.609 -1.376,1.484 0,0.844 0.579,1.391 1.407,1.391 0.812,0 1.328,-0.532 1.328,-1.438 z" /><path
         id="path88"
         style="fill:#000000;fill-opacity:1;fill-rule:nonzero;stroke:none"
         d="m 109.93,61.664 c 0,2.359 -0.75,3.531 -2.219,3.531 -1.469,0 -2.234,-1.187 -2.234,-3.469 0,-2.297 0.781,-3.468 2.234,-3.468 1.437,0 2.219,1.171 2.219,3.406 z m -0.86,0.078 c 0,-1.922 -0.437,-2.781 -1.375,-2.781 -0.89,0 -1.343,0.89 -1.343,2.75 0,1.875 0.453,2.734 1.359,2.734 0.906,0 1.359,-0.875 1.359,-2.703 z" /><path
         id="path90"
         style="fill:#000000;fill-opacity:1;fill-rule:nonzero;stroke:none"
         d="m 91.637,90.199 2.281,0 0,-0.703 -2.281,0 0,0.703 z" /><path
         id="path92"
         style="fill:#000000;fill-opacity:1;fill-rule:nonzero;stroke:none"
         d="m 97.727,87.199 0,6.797 -0.563,0 C 96.867,92.949 96.68,92.808 95.383,92.652 l 0,-0.609 1.5,0 0,-4.844 0.844,0 z" /><path
         id="path94"
         style="fill:#000000;fill-opacity:1;fill-rule:nonzero;stroke:none"
         d="m 104.719,88.824 0,0.766 -1,0 0,4.406 -0.625,0 -3.094,-4.281 0,-0.891 2.875,0 0,-1.625 0.844,0 0,1.625 1,0 z m -1.844,0.766 -2.141,0 2.141,2.968 0,-2.968 z" /><path
         id="path96"
         style="fill:#000000;fill-opacity:1;fill-rule:nonzero;stroke:none"
         d="m 109.93,90.465 c 0,2.359 -0.75,3.531 -2.219,3.531 -1.469,0 -2.234,-1.188 -2.234,-3.469 0,-2.297 0.781,-3.469 2.234,-3.469 1.437,0 2.219,1.172 2.219,3.407 z m -0.86,0.078 c 0,-1.922 -0.437,-2.781 -1.375,-2.781 -0.89,0 -1.343,0.89 -1.343,2.75 0,1.875 0.453,2.734 1.359,2.734 0.906,0 1.359,-0.875 1.359,-2.703 z" /><path
         id="path98"
         style="fill:#000000;fill-opacity:1;fill-rule:nonzero;stroke:none"
         d="m 91.637,118.199 2.281,0 0,-0.703 -2.281,0 0,0.703 z" /><path
         id="path100"
         style="fill:#000000;fill-opacity:1;fill-rule:nonzero;stroke:none"
         d="m 97.727,115.199 0,6.797 -0.563,0 c -0.297,-1.047 -0.484,-1.188 -1.781,-1.344 l 0,-0.609 1.5,0 0,-4.844 0.844,0 z" /><path
         id="path102"
         style="fill:#000000;fill-opacity:1;fill-rule:nonzero;stroke:none"
         d="m 104.641,120.012 c 0,1.14 -0.891,1.984 -2.188,1.984 -1.391,0 -2.187,-0.703 -2.234,-2.359 l 0.843,0 c 0.063,1.14 0.532,1.625 1.376,1.625 0.765,0 1.328,-0.547 1.328,-1.282 0,-0.531 -0.313,-0.984 -0.907,-1.343 l -0.89,-0.5 c -1.422,-0.797 -1.828,-1.438 -1.907,-2.938 l 4.532,0 0,0.828 -3.578,0 c 0.078,0.563 0.39,0.922 1.218,1.406 l 0.969,0.516 c 0.938,0.516 1.438,1.219 1.438,2.063 z" /><path
         id="path104"
         style="fill:#000000;fill-opacity:1;fill-rule:nonzero;stroke:none"
         d="m 109.93,118.465 c 0,2.359 -0.75,3.531 -2.219,3.531 -1.469,0 -2.234,-1.188 -2.234,-3.469 0,-2.297 0.781,-3.469 2.234,-3.469 1.437,0 2.219,1.172 2.219,3.407 z m -0.86,0.078 c 0,-1.922 -0.437,-2.781 -1.375,-2.781 -0.89,0 -1.343,0.89 -1.343,2.75 0,1.875 0.453,2.734 1.359,2.734 0.906,0 1.359,-0.875 1.359,-2.703 z" /><path
         id="path106"
         style="fill:#000000;fill-opacity:1;fill-rule:nonzero;stroke:none"
         d="m 91.637,147 2.281,0 0,-0.703 -2.281,0 0,0.703 z" /><path
         id="path108"
         style="fill:#000000;fill-opacity:1;fill-rule:nonzero;stroke:none"
         d="m 97.727,144 0,6.797 -0.563,0 c -0.297,-1.047 -0.484,-1.188 -1.781,-1.344 l 0,-0.609 1.5,0 0,-4.844 0.844,0 z" /><path
         id="path110"
         style="fill:#000000;fill-opacity:1;fill-rule:nonzero;stroke:none"
         d="m 104.594,147.265 c 0,2.36 -0.75,3.532 -2.219,3.532 -1.469,0 -2.234,-1.188 -2.234,-3.469 0,-2.297 0.781,-3.469 2.234,-3.469 1.437,0 2.219,1.172 2.219,3.406 z m -0.86,0.079 c 0,-1.922 -0.437,-2.782 -1.375,-2.782 -0.89,0 -1.343,0.891 -1.343,2.75 0,1.875 0.453,2.735 1.359,2.735 0.906,0 1.359,-0.875 1.359,-2.703 z" /><path
         id="path112"
         style="fill:#000000;fill-opacity:1;fill-rule:nonzero;stroke:none"
         d="m 109.93,147.265 c 0,2.36 -0.75,3.532 -2.219,3.532 -1.469,0 -2.234,-1.188 -2.234,-3.469 0,-2.297 0.781,-3.469 2.234,-3.469 1.437,0 2.219,1.172 2.219,3.406 z m -0.86,0.079 c 0,-1.922 -0.437,-2.782 -1.375,-2.782 -0.89,0 -1.343,0.891 -1.343,2.75 0,1.875 0.453,2.735 1.359,2.735 0.906,0 1.359,-0.875 1.359,-2.703 z" /><path
         id="path114"
         style="fill:#000000;fill-opacity:1;fill-rule:nonzero;stroke:none"
         d="m 98.836,175 2.281,0 0,-0.703 -2.281,0 0,0.703 z" /><path
         id="path116"
         style="fill:#000000;fill-opacity:1;fill-rule:nonzero;stroke:none"
         d="m 106.52,173.922 c 0,0.75 -0.391,1.281 -1.172,1.656 0.703,0.422 0.937,0.766 0.937,1.406 0,1.063 -0.844,1.813 -2.047,1.813 -1.203,0 -2.047,-0.75 -2.047,-1.813 0,-0.625 0.235,-0.969 0.922,-1.406 -0.781,-0.375 -1.156,-0.906 -1.156,-1.656 0,-1.235 0.938,-2.063 2.281,-2.063 1.344,0 2.282,0.828 2.282,2.063 z m -1.11,3.047 c 0,-0.625 -0.469,-1.047 -1.172,-1.047 -0.718,0 -1.187,0.422 -1.187,1.062 0,0.641 0.469,1.063 1.187,1.063 0.719,0 1.172,-0.422 1.172,-1.078 z m 0.25,-3.063 c 0,-0.797 -0.578,-1.297 -1.437,-1.297 -0.828,0 -1.407,0.5 -1.407,1.297 0,0.797 0.579,1.297 1.422,1.297 0.844,0 1.422,-0.5 1.422,-1.297 z" /><path
         id="path118"
         style="fill:#000000;fill-opacity:1;fill-rule:nonzero;stroke:none"
         d="m 111.793,175.265 c 0,2.36 -0.75,3.532 -2.219,3.532 -1.469,0 -2.234,-1.188 -2.234,-3.469 0,-2.297 0.781,-3.469 2.234,-3.469 1.438,0 2.219,1.172 2.219,3.406 z m -0.859,0.079 c 0,-1.922 -0.438,-2.782 -1.375,-2.782 -0.891,0 -1.344,0.891 -1.344,2.75 0,1.875 0.453,2.735 1.359,2.735 0.906,0 1.36,-0.875 1.36,-2.703 z" /><path
         id="path120"
         style="fill:#000000;fill-opacity:1;fill-rule:nonzero;stroke:none"
         d="m 98.836,203.801 2.281,0 0,-0.703 -2.281,0 0,0.703 z" /><path
         id="path122"
         style="fill:#000000;fill-opacity:1;fill-rule:nonzero;stroke:none"
         d="m 106.52,202.91 c 0,1.266 -0.86,2.125 -2.079,2.125 -0.671,0 -1.203,-0.266 -1.562,-0.766 0,1.657 0.547,2.578 1.516,2.578 0.593,0 1,-0.375 1.14,-1.015 l 0.844,0 c -0.172,1.109 -0.891,1.765 -1.938,1.765 -1.578,0 -2.437,-1.328 -2.437,-3.703 0,-2.109 0.734,-3.234 2.297,-3.234 1.281,0 2.219,0.922 2.219,2.25 z m -0.86,-0.063 c 0,-0.859 -0.578,-1.437 -1.359,-1.437 -0.781,0 -1.375,0.609 -1.375,1.484 0,0.844 0.578,1.391 1.406,1.391 0.813,0 1.328,-0.531 1.328,-1.438 z" /><path
         id="path124"
         style="fill:#000000;fill-opacity:1;fill-rule:nonzero;stroke:none"
         d="m 111.793,204.066 c 0,2.36 -0.75,3.531 -2.219,3.531 -1.469,0 -2.234,-1.187 -2.234,-3.468 0,-2.297 0.781,-3.469 2.234,-3.469 1.438,0 2.219,1.172 2.219,3.406 z m -0.859,0.078 c 0,-1.922 -0.438,-2.781 -1.375,-2.781 -0.891,0 -1.344,0.891 -1.344,2.75 0,1.875 0.453,2.734 1.359,2.734 0.906,0 1.36,-0.875 1.36,-2.703 z" /><path
         id="path126"
         style="fill:#000000;fill-opacity:1;fill-rule:nonzero;stroke:none"
         d="m 98.836,231.801 2.281,0 0,-0.703 -2.281,0 0,0.703 z" /><path
         id="path128"
         style="fill:#000000;fill-opacity:1;fill-rule:nonzero;stroke:none"
         d="m 106.582,230.426 0,0.765 -1,0 0,4.406 -0.625,0 -3.094,-4.281 0,-0.89 2.875,0 0,-1.625 0.844,0 0,1.625 1,0 z m -1.844,0.765 -2.14,0 2.14,2.969 0,-2.969 z" /><path
         id="path130"
         style="fill:#000000;fill-opacity:1;fill-rule:nonzero;stroke:none"
         d="m 111.793,232.066 c 0,2.36 -0.75,3.531 -2.219,3.531 -1.469,0 -2.234,-1.187 -2.234,-3.468 0,-2.297 0.781,-3.469 2.234,-3.469 1.438,0 2.219,1.172 2.219,3.406 z m -0.859,0.078 c 0,-1.922 -0.438,-2.781 -1.375,-2.781 -0.891,0 -1.344,0.891 -1.344,2.75 0,1.875 0.453,2.734 1.359,2.734 0.906,0 1.36,-0.875 1.36,-2.703 z" /><path
         id="path132"
         style="fill:#000000;fill-opacity:1;fill-rule:nonzero;stroke:none"
         d="m 98.836,260.597 2.281,0 0,-0.703 -2.281,0 0,0.703 z" /><path
         id="path134"
         style="fill:#000000;fill-opacity:1;fill-rule:nonzero;stroke:none"
         d="m 106.504,262.41 c 0,1.141 -0.891,1.984 -2.188,1.984 -1.39,0 -2.187,-0.703 -2.234,-2.359 l 0.844,0 c 0.062,1.141 0.531,1.625 1.375,1.625 0.765,0 1.328,-0.547 1.328,-1.281 0,-0.532 -0.313,-0.985 -0.906,-1.344 l -0.891,-0.5 c -1.422,-0.797 -1.828,-1.438 -1.906,-2.938 l 4.531,0 0,0.829 -3.578,0 c 0.078,0.562 0.391,0.921 1.219,1.406 l 0.968,0.515 c 0.938,0.516 1.438,1.219 1.438,2.063 z" /><path
         id="path136"
         style="fill:#000000;fill-opacity:1;fill-rule:nonzero;stroke:none"
         d="m 111.793,260.863 c 0,2.359 -0.75,3.531 -2.219,3.531 -1.469,0 -2.234,-1.187 -2.234,-3.468 0,-2.297 0.781,-3.469 2.234,-3.469 1.438,0 2.219,1.172 2.219,3.406 z m -0.859,0.078 c 0,-1.922 -0.438,-2.781 -1.375,-2.781 -0.891,0 -1.344,0.891 -1.344,2.75 0,1.875 0.453,2.734 1.359,2.734 0.906,0 1.36,-0.875 1.36,-2.703 z" /><path
         id="path138"
         style="fill:#000000;fill-opacity:1;fill-rule:nonzero;stroke:none"
         d="m 114.461,288.863 c 0,2.359 -0.75,3.531 -2.219,3.531 -1.469,0 -2.234,-1.187 -2.234,-3.468 0,-2.297 0.781,-3.469 2.234,-3.469 1.438,0 2.219,1.172 2.219,3.406 z m -0.859,0.078 c 0,-1.922 -0.438,-2.781 -1.375,-2.781 -0.891,0 -1.344,0.891 -1.344,2.75 0,1.875 0.453,2.734 1.359,2.734 0.906,0 1.36,-0.875 1.36,-2.703 z" /><path
         id="path140"
         style="fill:#000000;fill-opacity:1;fill-rule:nonzero;stroke:none"
         d="m 107.305,319.211 c 0,1.14 -0.891,1.984 -2.188,1.984 -1.39,0 -2.187,-0.703 -2.234,-2.359 l 0.844,0 c 0.062,1.14 0.531,1.625 1.375,1.625 0.765,0 1.328,-0.547 1.328,-1.282 0,-0.531 -0.313,-0.984 -0.907,-1.343 l -0.89,-0.5 c -1.422,-0.797 -1.828,-1.438 -1.906,-2.938 l 4.531,0 0,0.828 -3.578,0 c 0.078,0.563 0.39,0.922 1.218,1.407 l 0.969,0.515 c 0.938,0.516 1.438,1.219 1.438,2.063 z" /><path
         id="path142"
         style="fill:#000000;fill-opacity:1;fill-rule:nonzero;stroke:none"
         d="m 112.598,317.664 c 0,2.359 -0.75,3.531 -2.219,3.531 -1.469,0 -2.234,-1.187 -2.234,-3.469 0,-2.297 0.781,-3.468 2.234,-3.468 1.437,0 2.219,1.171 2.219,3.406 z m -0.86,0.078 c 0,-1.922 -0.437,-2.781 -1.375,-2.781 -0.89,0 -1.343,0.89 -1.343,2.75 0,1.875 0.453,2.734 1.359,2.734 0.906,0 1.359,-0.875 1.359,-2.703 z" /><path
         id="path144"
         style="fill:#000000;fill-opacity:1;fill-rule:nonzero;stroke:none"
         d="m 323.961,36.601 0,0.797 -4.703,0 0,-7 0.89,0 0,3.188 3.344,0 0,0.781 -3.344,0 0,2.234 3.813,0 z" /><path
         id="path146"
         style="fill:#000000;fill-opacity:1;fill-rule:nonzero;stroke:none"
         d="m 327.008,34.726 0,0.813 c -0.141,0.015 -0.203,0.031 -0.313,0.031 -0.515,0 -0.906,-0.312 -1.359,-1.062 l 0,0.921 -0.734,0 0,-5.031 0.796,0 0,2.61 c 0,1.125 0.375,1.703 1.61,1.718 z" /><path
         id="path148"
         style="fill:#000000;fill-opacity:1;fill-rule:nonzero;stroke:none"
         d="m 331.961,32.679 c 0,0.735 -0.063,1.188 -0.203,1.563 -0.328,0.828 -1.094,1.328 -2.031,1.328 -1.407,0 -2.297,-1.031 -2.297,-2.687 0,-1.657 0.859,-2.625 2.281,-2.625 1.141,0 1.937,0.656 2.141,1.671 l -0.797,0 c -0.219,-0.671 -0.672,-0.937 -1.313,-0.937 -0.844,0 -1.469,0.531 -1.484,1.687 l 3.703,0 z m -0.859,0.719 c 0,0 0,-0.047 0,-0.062 l -2.829,0 c 0.079,0.89 0.641,1.5 1.438,1.5 0.797,0 1.391,-0.657 1.391,-1.438 z m 0.343,4 -1.093,0 -0.922,-1.422 0.578,0 1.437,1.422 z" /><path
         id="path150"
         style="fill:#000000;fill-opacity:1;fill-rule:nonzero;stroke:none"
         d="m 337.129,28.304 0,7.125 -0.719,0 0,-0.671 c -0.359,0.531 -0.937,0.812 -1.594,0.812 -1.328,0 -2.187,-1.047 -2.187,-2.719 0,-1.625 0.828,-2.593 2.141,-2.593 0.703,0 1.187,0.25 1.562,0.796 l 0,-2.75 0.797,0 z m -0.797,4.579 c 0,-1.157 -0.562,-1.875 -1.406,-1.875 -0.875,0 -1.469,0.734 -1.469,1.906 0,1.156 0.594,1.906 1.469,1.906 0.859,0 1.406,-0.766 1.406,-1.937 z" /><path
         id="path152"
         style="fill:#000000;fill-opacity:1;fill-rule:nonzero;stroke:none"
         d="m 342.418,30.398 0,5.031 -0.797,0 0,-2.781 c 0,-1.015 -0.531,-1.687 -1.375,-1.687 -0.625,0 -1.031,0.375 -1.031,0.984 l 0,3.484 -0.797,0 0,-3.796 c 0,-0.844 0.625,-1.375 1.594,-1.375 0.75,0 1.218,0.25 1.687,0.921 l 0,-0.781 0.719,0 z" /><path
         id="path154"
         style="fill:#000000;fill-opacity:1;fill-rule:nonzero;stroke:none"
         d="m 348.051,32.679 c 0,0.735 -0.063,1.188 -0.203,1.563 -0.328,0.828 -1.094,1.328 -2.032,1.328 -1.406,0 -2.296,-1.031 -2.296,-2.687 0,-1.657 0.859,-2.625 2.281,-2.625 1.14,0 1.937,0.656 2.14,1.671 l -0.796,0 c -0.219,-0.671 -0.672,-0.937 -1.313,-0.937 -0.844,0 -1.469,0.531 -1.484,1.687 l 3.703,0 z m -0.86,0.719 c 0,0 0,-0.047 0,-0.062 l -2.828,0 c 0.078,0.89 0.641,1.5 1.438,1.5 0.797,0 1.39,-0.657 1.39,-1.438 z" /><path
         id="path156"
         style="fill:#000000;fill-opacity:1;fill-rule:nonzero;stroke:none"
         d="m 353.141,30.398 0,3.797 c 0,0.844 -0.625,1.375 -1.594,1.375 -0.75,0 -1.219,-0.281 -1.672,-0.984 l 0,0.843 -0.734,0 0,-5.031 0.797,0 0,2.766 c 0,1.031 0.562,1.703 1.374,1.703 0.626,0 1.032,-0.375 1.032,-0.984 l 0,-3.485 0.797,0 z" /><path
         id="path158"
         style="fill:#000000;fill-opacity:1;fill-rule:nonzero;stroke:none"
         d="m 358.383,32.133 -0.813,0 c -0.125,-0.813 -0.547,-1.141 -1.218,-1.141 -0.891,0 -1.422,0.687 -1.422,1.875 0,1.25 0.531,1.969 1.39,1.969 0.672,0 1.094,-0.407 1.203,-1.094 l 0.797,0 c -0.093,1.219 -0.859,1.828 -1.984,1.828 -1.344,0 -2.234,-1.031 -2.234,-2.703 0,-1.625 0.859,-2.609 2.218,-2.609 1.203,0 1.969,0.718 2.063,1.875 z" /><path
         id="path160"
         style="fill:#000000;fill-opacity:1;fill-rule:nonzero;stroke:none"
         d="m 363.527,32.679 c 0,0.735 -0.062,1.188 -0.203,1.563 -0.328,0.828 -1.094,1.328 -2.031,1.328 -1.406,0 -2.297,-1.031 -2.297,-2.687 0,-1.657 0.859,-2.625 2.281,-2.625 1.141,0 1.938,0.656 2.141,1.671 l -0.797,0 c -0.219,-0.671 -0.672,-0.937 -1.312,-0.937 -0.844,0 -1.469,0.531 -1.485,1.687 l 3.703,0 z m -0.859,0.719 c 0,0 0,-0.047 0,-0.062 l -2.828,0 c 0.078,0.89 0.64,1.5 1.437,1.5 0.797,0 1.391,-0.657 1.391,-1.438 z" /><path
         id="path162"
         style="fill:#000000;fill-opacity:1;fill-rule:nonzero;stroke:none"
         d="m 369.406,28.367 c -0.844,1.375 -1.312,2.984 -1.312,4.516 0,1.531 0.468,3.14 1.312,4.515 l -0.531,0 c -0.953,-1.265 -1.563,-3.015 -1.563,-4.515 0,-1.516 0.61,-3.266 1.563,-4.516 l 0.531,0 z" /><path
         id="path164"
         style="fill:#000000;fill-opacity:1;fill-rule:nonzero;stroke:none"
         d="m 376.008,30.398 0,7 -0.891,0 0,-3.031 -3.594,0 0,3.031 -0.89,0 0,-7 0.89,0 0,3.188 3.594,0 0,-3.188 0.891,0 z" /><path
         id="path166"
         style="fill:#000000;fill-opacity:1;fill-rule:nonzero;stroke:none"
         d="m 381.16,30.398 0,0.703 -3.125,0 2.985,3.61 0,0.718 -3.75,0 0,-0.703 2.796,0 -3,-3.609 0,-0.719 4.094,0 z" /><path
         id="path168"
         style="fill:#000000;fill-opacity:1;fill-rule:nonzero;stroke:none"
         d="m 384.02,32.867 c 0,1.516 -0.594,3.266 -1.563,4.531 l -0.531,0 c 0.844,-1.375 1.312,-2.984 1.312,-4.531 0,-1.516 -0.468,-3.141 -1.312,-4.5 l 0.531,0 c 0.969,1.25 1.563,3 1.563,4.5 z" /><path
         id="path170"
         style="fill:#0000ff;fill-opacity:1;fill-rule:nonzero;stroke:none"
         d="m 83.602,155.582 c -0.844,0 -1.344,-0.391 -1.688,-1.281 -0.297,0.625 -0.828,0.968 -1.531,0.968 -1.016,0 -1.781,-0.75 -1.781,-2.078 l 0,-2.828 7,0 0,3.156 c 0,1.25 -0.844,2.063 -2,2.063 z m -3.094,-1.203 c 0.703,0 1.109,-0.422 1.109,-1.407 l 0,-1.718 -2.219,0 0,1.718 c 0,0.985 0.407,1.407 1.11,1.407 z m 3.109,0.297 c 0.672,0 1.203,-0.407 1.203,-1.25 l 0,-2.172 -2.406,0 0,2.172 c 0,0.843 0.516,1.25 1.203,1.25 z" /><path
         id="path172"
         style="fill:#0000ff;fill-opacity:1;fill-rule:nonzero;stroke:none"
         d="m 83.32,160.926 c -0.734,0 -1.187,-0.063 -1.562,-0.204 -0.828,-0.328 -1.328,-1.093 -1.328,-2.031 0,-1.406 1.031,-2.297 2.687,-2.297 1.656,0 2.625,0.86 2.625,2.282 0,1.14 -0.656,1.937 -1.672,2.14 l 0,-0.797 c 0.672,-0.218 0.938,-0.672 0.938,-1.312 0,-0.844 -0.531,-1.469 -1.688,-1.485 l 0,3.704 z m -0.718,-0.86 c 0,0 0.046,0 0.062,0 l 0,-2.828 c -0.891,0.078 -1.5,0.641 -1.5,1.438 0,0.796 0.656,1.39 1.438,1.39 z" /><path
         id="path174"
         style="fill:#0000ff;fill-opacity:1;fill-rule:nonzero;stroke:none"
         d="m 84.195,165.746 c -0.75,0 -1.125,-0.422 -1.359,-1.422 l -0.188,-0.766 c -0.156,-0.656 -0.359,-0.937 -0.718,-0.937 -0.469,0 -0.766,0.422 -0.766,1.062 0,0.657 0.281,1 0.813,1.016 l 0,0.844 c -0.985,-0.016 -1.547,-0.656 -1.547,-1.828 0,-1.172 0.609,-1.922 1.531,-1.922 0.797,0 1.172,0.406 1.453,1.594 l 0.188,0.75 c 0.125,0.546 0.296,0.765 0.656,0.765 0.469,0 0.75,-0.469 0.75,-1.172 0,-0.718 -0.172,-1.109 -0.938,-1.218 l 0,-0.844 c 1.157,0.031 1.672,0.687 1.672,2 0,1.265 -0.578,2.078 -1.547,2.078 z" /><path
         id="path176"
         style="fill:#0000ff;fill-opacity:1;fill-rule:nonzero;stroke:none"
         d="m 84.195,170.547 c -0.75,0 -1.125,-0.422 -1.359,-1.422 l -0.188,-0.766 c -0.156,-0.656 -0.359,-0.937 -0.718,-0.937 -0.469,0 -0.766,0.422 -0.766,1.062 0,0.656 0.281,1 0.813,1.016 l 0,0.844 c -0.985,-0.016 -1.547,-0.657 -1.547,-1.829 0,-1.171 0.609,-1.921 1.531,-1.921 0.797,0 1.172,0.406 1.453,1.593 l 0.188,0.75 c 0.125,0.547 0.296,0.766 0.656,0.766 0.469,0 0.75,-0.469 0.75,-1.172 0,-0.719 -0.172,-1.109 -0.938,-1.219 l 0,-0.843 c 1.157,0.031 1.672,0.687 1.672,2 0,1.265 -0.578,2.078 -1.547,2.078 z" /><path
         id="path178"
         style="fill:#0000ff;fill-opacity:1;fill-rule:nonzero;stroke:none"
         d="m 83.32,175.863 c -0.734,0 -1.187,-0.062 -1.562,-0.203 -0.828,-0.328 -1.328,-1.094 -1.328,-2.031 0,-1.407 1.031,-2.297 2.687,-2.297 1.656,0 2.625,0.859 2.625,2.281 0,1.141 -0.656,1.938 -1.672,2.141 l 0,-0.797 c 0.672,-0.219 0.938,-0.672 0.938,-1.313 0,-0.843 -0.531,-1.468 -1.688,-1.484 l 0,3.703 z m -0.718,-0.859 c 0,0 0.046,0 0.062,0 l 0,-2.828 c -0.891,0.078 -1.5,0.64 -1.5,1.437 0,0.797 0.656,1.391 1.438,1.391 z" /><path
         id="path180"
         style="fill:#0000ff;fill-opacity:1;fill-rule:nonzero;stroke:none"
         d="m 78.602,177.73 7,0 0,-0.797 -7,0 0,0.797 z" /><path
         id="path182"
         style="fill:#0000ff;fill-opacity:1;fill-rule:nonzero;stroke:none"
         d="m 86.82,183.984 0.484,0 0,-5.766 -0.484,0 0,5.766 z" /><path
         id="path184"
         style="fill:#0000ff;fill-opacity:1;fill-rule:nonzero;stroke:none"
         d="m 85.602,188.523 -7,0 0,-0.797 2.609,0 c -0.516,-0.343 -0.781,-0.875 -0.781,-1.547 0,-1.296 1.015,-2.156 2.609,-2.156 1.703,0 2.703,0.828 2.703,2.188 0,0.687 -0.25,1.172 -0.875,1.593 l 0.735,0 0,0.719 z m -2.5,-0.797 c 1.171,0 1.89,-0.562 1.89,-1.406 0,-0.875 -0.734,-1.469 -1.906,-1.469 -1.172,0 -1.906,0.594 -1.906,1.469 0,0.859 0.765,1.406 1.922,1.406 z" /><path
         id="path186"
         style="fill:#0000ff;fill-opacity:1;fill-rule:nonzero;stroke:none"
         d="m 83.602,195.097 c -0.844,0 -1.344,-0.39 -1.688,-1.281 -0.297,0.625 -0.828,0.969 -1.531,0.969 -1.016,0 -1.781,-0.75 -1.781,-2.078 l 0,-2.828 7,0 0,3.156 c 0,1.25 -0.844,2.062 -2,2.062 z m -3.094,-1.203 c 0.703,0 1.109,-0.422 1.109,-1.406 l 0,-1.719 -2.219,0 0,1.719 c 0,0.984 0.407,1.406 1.11,1.406 z m 3.109,0.297 c 0.672,0 1.203,-0.406 1.203,-1.25 l 0,-2.172 -2.406,0 0,2.172 c 0,0.844 0.516,1.25 1.203,1.25 z" /><path
         id="path188"
         style="fill:#0000ff;fill-opacity:1;fill-rule:nonzero;stroke:none"
         d="m 83.68,201.496 c -0.86,0 -1.5,-0.531 -1.75,-1.484 l -0.469,-1.75 c -0.219,-0.844 -0.5,-1.157 -1.047,-1.157 -0.703,0 -1.234,0.625 -1.234,1.563 0,1.109 0.515,1.75 1.422,1.75 l 0,0.844 c -1.375,0 -2.172,-0.954 -2.172,-2.563 0,-1.531 0.843,-2.484 2.109,-2.484 0.859,0 1.391,0.453 1.641,1.375 l 0.453,1.734 c 0.234,0.875 0.594,1.281 1.14,1.281 0.766,0 1.219,-0.578 1.219,-1.781 0,-1.328 -0.672,-1.969 -1.672,-1.969 l 0,-0.859 c 1.657,0 2.453,1.125 2.453,2.766 0,1.781 -0.843,2.734 -2.093,2.734 z" /><path
         id="path190"
         style="fill:#0000ff;fill-opacity:1;fill-rule:nonzero;stroke:none"
         d="m 85.602,205.277 -6.797,0 0,-0.562 c 1.047,-0.297 1.187,-0.485 1.343,-1.782 l 0.61,0 0,1.5 4.844,0 0,0.844 z" /><path
         id="path192"
         style="fill:#0000ff;fill-opacity:1;fill-rule:nonzero;stroke:none"
         d="m 85.602,210.613 -6.797,0 0,-0.562 c 1.047,-0.297 1.187,-0.485 1.343,-1.782 l 0.61,0 0,1.5 4.844,0 0,0.844 z" /><path
         id="path194"
         style="fill:#ff0000;fill-opacity:1;fill-rule:nonzero;stroke:none"
         d="m 65.199,141.984 c -0.844,0 -1.344,-0.39 -1.687,-1.281 -0.297,0.625 -0.828,0.969 -1.532,0.969 -1.015,0 -1.781,-0.75 -1.781,-2.078 l 0,-2.829 7,0 0,3.157 c 0,1.25 -0.844,2.062 -2,2.062 z m -3.094,-1.203 c 0.704,0 1.11,-0.422 1.11,-1.406 l 0,-1.719 -2.219,0 0,1.719 c 0,0.984 0.406,1.406 1.109,1.406 z m 3.11,0.297 c 0.672,0 1.203,-0.406 1.203,-1.25 l 0,-2.172 -2.406,0 0,2.172 c 0,0.844 0.515,1.25 1.203,1.25 z" /><path
         id="path196"
         style="fill:#ff0000;fill-opacity:1;fill-rule:nonzero;stroke:none"
         d="m 67.199,147.027 -5.031,0 0,-0.797 2.781,0 c 1.016,0 1.688,-0.531 1.688,-1.375 0,-0.625 -0.375,-1.031 -0.985,-1.031 l -3.484,0 0,-0.797 3.797,0 c 0.844,0 1.375,0.625 1.375,1.594 0,0.75 -0.25,1.219 -0.922,1.687 l 0.781,0 0,0.719 z" /><path
         id="path198"
         style="fill:#ff0000;fill-opacity:1;fill-rule:nonzero;stroke:none"
         d="m 67.199,150.176 -0.672,0 c 0.032,-0.11 0.032,-0.235 0.032,-0.391 0,-0.344 -0.094,-0.438 -0.438,-0.438 l -3.297,0 0,0.829 -0.656,0 0,-0.829 -1.375,0 0,-0.796 1.375,0 0,-0.672 0.656,0 0,0.672 3.641,0 c 0.515,0 0.797,0.343 0.797,0.968 0,0.188 -0.016,0.391 -0.063,0.657 z" /><path
         id="path200"
         style="fill:#ff0000;fill-opacity:1;fill-rule:nonzero;stroke:none"
         d="m 67.199,152.847 -0.672,0 c 0.032,-0.109 0.032,-0.234 0.032,-0.39 0,-0.344 -0.094,-0.438 -0.438,-0.438 l -3.297,0 0,0.828 -0.656,0 0,-0.828 -1.375,0 0,-0.797 1.375,0 0,-0.671 0.656,0 0,0.671 3.641,0 c 0.515,0 0.797,0.344 0.797,0.969 0,0.188 -0.016,0.391 -0.063,0.656 z" /><path
         id="path202"
         style="fill:#ff0000;fill-opacity:1;fill-rule:nonzero;stroke:none"
         d="m 64.918,157.855 c -0.734,0 -1.188,-0.062 -1.563,-0.203 -0.828,-0.328 -1.328,-1.094 -1.328,-2.031 0,-1.406 1.032,-2.297 2.688,-2.297 1.656,0 2.625,0.859 2.625,2.281 0,1.141 -0.656,1.938 -1.672,2.141 l 0,-0.797 c 0.672,-0.219 0.937,-0.672 0.937,-1.312 0,-0.844 -0.531,-1.469 -1.687,-1.485 l 0,3.703 z m -0.719,-0.859 c 0,0 0.047,0 0.063,0 l 0,-2.828 c -0.891,0.078 -1.5,0.64 -1.5,1.437 0,0.797 0.656,1.391 1.437,1.391 z" /><path
         id="path204"
         style="fill:#ff0000;fill-opacity:1;fill-rule:nonzero;stroke:none"
         d="m 62.871,161.347 -0.812,0 c -0.016,-0.14 -0.032,-0.203 -0.032,-0.312 0,-0.516 0.313,-0.906 1.063,-1.359 l -0.922,0 0,-0.735 5.031,0 0,0.797 -2.609,0 c -1.125,0 -1.703,0.375 -1.719,1.609 z" /><path
         id="path206"
         style="fill:#ff0000;fill-opacity:1;fill-rule:nonzero;stroke:none"
         d="m 62.168,168.562 0,-0.906 3.922,-1 -3.922,-0.984 0,-0.985 3.922,-0.953 -3.922,-1.031 0,-0.875 5.031,1.453 0,0.906 -3.937,0.969 3.937,1.016 0,0.906 -5.031,1.484 z" /><path
         id="path208"
         style="fill:#ff0000;fill-opacity:1;fill-rule:nonzero;stroke:none"
         d="m 64.73,173.5 c -1.75,0 -2.703,-0.828 -2.703,-2.281 0,-1.407 0.969,-2.266 2.657,-2.266 1.687,0 2.656,0.844 2.656,2.281 0,1.406 -0.969,2.266 -2.61,2.266 z m -0.015,-0.828 c 1.172,0 1.89,-0.563 1.89,-1.438 0,-0.89 -0.703,-1.437 -1.921,-1.437 -1.204,0 -1.922,0.547 -1.922,1.437 0,0.891 0.703,1.438 1.953,1.438 z" /><path
         id="path210"
         style="fill:#ff0000;fill-opacity:1;fill-rule:nonzero;stroke:none"
         d="m 62.871,177.027 -0.812,0 c -0.016,-0.14 -0.032,-0.203 -0.032,-0.312 0,-0.516 0.313,-0.907 1.063,-1.36 l -0.922,0 0,-0.734 5.031,0 0,0.797 -2.609,0 c -1.125,0 -1.703,0.375 -1.719,1.609 z" /><path
         id="path212"
         style="fill:#ff0000;fill-opacity:1;fill-rule:nonzero;stroke:none"
         d="m 67.199,179.879 -0.672,0 c 0.032,-0.11 0.032,-0.235 0.032,-0.391 0,-0.344 -0.094,-0.437 -0.438,-0.437 l -3.297,0 0,0.828 -0.656,0 0,-0.828 -1.375,0 0,-0.797 1.375,0 0,-0.672 0.656,0 0,0.672 3.641,0 c 0.515,0 0.797,0.343 0.797,0.968 0,0.188 -0.016,0.391 -0.063,0.657 z" /><path
         id="path214"
         style="fill:#ff0000;fill-opacity:1;fill-rule:nonzero;stroke:none"
         d="m 67.199,184.699 -3.797,0 c -0.843,0 -1.375,-0.594 -1.375,-1.578 0,-0.703 0.219,-1.141 0.828,-1.609 l -2.656,0 0,-0.797 7,0 0,0.797 -2.765,0 c -1.032,0 -1.704,0.531 -1.704,1.359 0,0.562 0.329,1.031 0.985,1.031 l 3.484,0 0,0.797 z" /><path
         id="path216"
         style="fill:#ff0000;fill-opacity:1;fill-rule:nonzero;stroke:none"
         d="m 68.418,190.929 0.484,0 0,-5.766 -0.484,0 0,5.766 z" /><path
         id="path218"
         style="fill:#ff0000;fill-opacity:1;fill-rule:nonzero;stroke:none"
         d="m 67.199,195.469 -7,0 0,-0.797 2.61,0 c -0.516,-0.344 -0.782,-0.875 -0.782,-1.547 0,-1.297 1.016,-2.156 2.61,-2.156 1.703,0 2.703,0.828 2.703,2.187 0,0.688 -0.25,1.172 -0.875,1.594 l 0.734,0 0,0.719 z m -2.5,-0.797 c 1.172,0 1.891,-0.563 1.891,-1.407 0,-0.875 -0.735,-1.468 -1.906,-1.468 -1.172,0 -1.907,0.593 -1.907,1.468 0,0.86 0.766,1.407 1.922,1.407 z" /><path
         id="path220"
         style="fill:#ff0000;fill-opacity:1;fill-rule:nonzero;stroke:none"
         d="m 65.199,202.043 c -0.844,0 -1.344,-0.391 -1.687,-1.281 -0.297,0.625 -0.828,0.968 -1.532,0.968 -1.015,0 -1.781,-0.75 -1.781,-2.078 l 0,-2.828 7,0 0,3.156 c 0,1.25 -0.844,2.063 -2,2.063 z m -3.094,-1.203 c 0.704,0 1.11,-0.422 1.11,-1.407 l 0,-1.718 -2.219,0 0,1.718 c 0,0.985 0.406,1.407 1.109,1.407 z m 3.11,0.297 c 0.672,0 1.203,-0.407 1.203,-1.25 l 0,-2.172 -2.406,0 0,2.172 c 0,0.843 0.515,1.25 1.203,1.25 z" /><path
         id="path222"
         style="fill:#ff0000;fill-opacity:1;fill-rule:nonzero;stroke:none"
         d="m 65.277,208.441 c -0.859,0 -1.5,-0.531 -1.75,-1.484 l -0.468,-1.75 c -0.219,-0.844 -0.5,-1.156 -1.047,-1.156 -0.703,0 -1.235,0.625 -1.235,1.562 0,1.109 0.516,1.75 1.422,1.75 l 0,0.844 c -1.375,0 -2.172,-0.953 -2.172,-2.563 0,-1.531 0.844,-2.484 2.11,-2.484 0.859,0 1.39,0.453 1.64,1.375 l 0.453,1.734 c 0.235,0.875 0.594,1.282 1.141,1.282 0.766,0 1.219,-0.579 1.219,-1.782 0,-1.328 -0.672,-1.968 -1.672,-1.968 l 0,-0.86 c 1.656,0 2.453,1.125 2.453,2.766 0,1.781 -0.844,2.734 -2.094,2.734 z" /><path
         id="path224"
         style="fill:#ff0000;fill-opacity:1;fill-rule:nonzero;stroke:none"
         d="m 67.199,212.219 -6.797,0 0,-0.563 c 1.047,-0.297 1.188,-0.484 1.344,-1.781 l 0.609,0 0,1.5 4.844,0 0,0.844 z" /><path
         id="path226"
         style="fill:#ff0000;fill-opacity:1;fill-rule:nonzero;stroke:none"
         d="m 67.199,217.558 -6.797,0 0,-0.562 c 1.047,-0.297 1.188,-0.484 1.344,-1.781 l 0.609,0 0,1.5 4.844,0 0,0.843 z" /><path
         id="path228"
         style="fill:#ff00ff;fill-opacity:1;fill-rule:nonzero;stroke:none"
         d="m 42.598,140.086 -0.797,0 0,-5.485 0.797,0 0,2.297 6.203,0 0,0.891 -6.203,0 0,2.297 z" /><path
         id="path230"
         style="fill:#ff00ff;fill-opacity:1;fill-rule:nonzero;stroke:none"
         d="m 47.066,143.988 0,-0.812 c 0.813,-0.125 1.141,-0.547 1.141,-1.219 0,-0.891 -0.687,-1.422 -1.875,-1.422 -1.25,0 -1.969,0.531 -1.969,1.391 0,0.671 0.407,1.093 1.094,1.203 l 0,0.797 c -1.219,-0.094 -1.828,-0.86 -1.828,-1.985 0,-1.344 1.031,-2.234 2.703,-2.234 1.625,0 2.609,0.859 2.609,2.219 0,1.203 -0.718,1.968 -1.875,2.062 z" /><path
         id="path232"
         style="fill:#ff00ff;fill-opacity:1;fill-rule:nonzero;stroke:none"
         d="m 48.801,148.867 -3.797,0 c -0.844,0 -1.375,-0.594 -1.375,-1.578 0,-0.703 0.219,-1.141 0.828,-1.61 l -2.656,0 0,-0.796 7,0 0,0.796 -2.766,0 c -1.031,0 -1.703,0.532 -1.703,1.36 0,0.562 0.328,1.031 0.984,1.031 l 3.485,0 0,0.797 z" /><path
         id="path234"
         style="fill:#ff00ff;fill-opacity:1;fill-rule:nonzero;stroke:none"
         d="m 46.52,154.469 c -0.735,0 -1.188,-0.063 -1.563,-0.204 -0.828,-0.328 -1.328,-1.093 -1.328,-2.031 0,-1.406 1.031,-2.297 2.687,-2.297 1.657,0 2.625,0.86 2.625,2.282 0,1.14 -0.656,1.937 -1.671,2.14 l 0,-0.797 c 0.671,-0.218 0.937,-0.672 0.937,-1.312 0,-0.844 -0.531,-1.469 -1.687,-1.485 l 0,3.704 z m -0.719,-0.86 c 0,0 0.047,0 0.062,0 l 0,-2.828 c -0.89,0.078 -1.5,0.641 -1.5,1.438 0,0.796 0.657,1.39 1.438,1.39 z" /><path
         id="path236"
         style="fill:#ff00ff;fill-opacity:1;fill-rule:nonzero;stroke:none"
         d="m 46.223,159.902 c -1.625,0 -2.594,-0.828 -2.594,-2.14 0,-0.704 0.266,-1.188 0.828,-1.563 l -2.656,0 0,-0.797 7,0 0,0.719 -0.719,0 c 0.578,0.391 0.859,0.891 0.859,1.594 0,1.328 -1.078,2.187 -2.718,2.187 z m 0.062,-0.828 c 1.141,0 1.906,-0.594 1.906,-1.469 0,-0.843 -0.765,-1.406 -1.906,-1.406 -1.172,0 -1.953,0.563 -1.906,1.406 0,0.891 0.781,1.469 1.906,1.469 z" /><path
         id="path238"
         style="fill:#ff00ff;fill-opacity:1;fill-rule:nonzero;stroke:none"
         d="m 43.77,164.668 0,-0.86 3.921,-1.39 -3.921,-1.281 0,-0.86 5.046,1.703 0.797,-0.312 c 0.36,-0.125 0.5,-0.297 0.5,-0.641 0,-0.109 -0.031,-0.25 -0.062,-0.422 l 0.719,0 c 0.078,0.172 0.125,0.328 0.125,0.547 0,0.563 -0.313,1.016 -1.032,1.281 l -6.093,2.235 z" /><path
         id="path240"
         style="fill:#ff00ff;fill-opacity:1;fill-rule:nonzero;stroke:none"
         d="m 47.066,169.273 0,-0.812 c 0.813,-0.125 1.141,-0.547 1.141,-1.219 0,-0.891 -0.687,-1.422 -1.875,-1.422 -1.25,0 -1.969,0.531 -1.969,1.391 0,0.672 0.407,1.093 1.094,1.203 l 0,0.797 c -1.219,-0.094 -1.828,-0.86 -1.828,-1.985 0,-1.343 1.031,-2.234 2.703,-2.234 1.625,0 2.609,0.859 2.609,2.219 0,1.203 -0.718,1.968 -1.875,2.062 z" /><path
         id="path242"
         style="fill:#ff00ff;fill-opacity:1;fill-rule:nonzero;stroke:none"
         d="m 48.801,174.152 -3.797,0 c -0.844,0 -1.375,-0.594 -1.375,-1.578 0,-0.703 0.219,-1.141 0.828,-1.609 l -2.656,0 0,-0.797 7,0 0,0.797 -2.766,0 c -1.031,0 -1.703,0.531 -1.703,1.359 0,0.563 0.328,1.031 0.984,1.031 l 3.485,0 0,0.797 z" /><path
         id="path244"
         style="fill:#ff00ff;fill-opacity:1;fill-rule:nonzero;stroke:none"
         d="m 46.52,179.758 c -0.735,0 -1.188,-0.063 -1.563,-0.204 -0.828,-0.328 -1.328,-1.093 -1.328,-2.031 0,-1.406 1.031,-2.297 2.687,-2.297 1.657,0 2.625,0.86 2.625,2.282 0,1.14 -0.656,1.937 -1.671,2.14 l 0,-0.797 c 0.671,-0.218 0.937,-0.672 0.937,-1.312 0,-0.844 -0.531,-1.469 -1.687,-1.485 l 0,3.704 z m -0.719,-0.86 c 0,0 0.047,0 0.062,0 l 0,-2.828 c -0.89,0.078 -1.5,0.641 -1.5,1.438 0,0.796 0.657,1.39 1.438,1.39 z" /><path
         id="path246"
         style="fill:#ff00ff;fill-opacity:1;fill-rule:nonzero;stroke:none"
         d="m 43.77,184.695 0,-0.891 4.078,-1.421 -4.078,-1.344 0,-0.906 5.031,1.765 0,0.875 -5.031,1.922 z" /><path
         id="path248"
         style="fill:#ff00ff;fill-opacity:1;fill-rule:nonzero;stroke:none"
         d="m 50.02,190.383 0.484,0 0,-5.766 -0.484,0 0,5.766 z" /><path
         id="path250"
         style="fill:#ff00ff;fill-opacity:1;fill-rule:nonzero;stroke:none"
         d="m 48.801,194.926 -7,0 0,-0.797 2.609,0 c -0.515,-0.344 -0.781,-0.875 -0.781,-1.547 0,-1.297 1.016,-2.156 2.609,-2.156 1.703,0 2.703,0.828 2.703,2.187 0,0.688 -0.25,1.172 -0.875,1.594 l 0.735,0 0,0.719 z m -2.5,-0.797 c 1.172,0 1.89,-0.563 1.89,-1.407 0,-0.875 -0.734,-1.468 -1.906,-1.468 -1.172,0 -1.906,0.593 -1.906,1.468 0,0.86 0.766,1.407 1.922,1.407 z" /><path
         id="path252"
         style="fill:#ff00ff;fill-opacity:1;fill-rule:nonzero;stroke:none"
         d="m 46.801,201.496 c -0.844,0 -1.344,-0.391 -1.688,-1.281 -0.297,0.625 -0.828,0.968 -1.531,0.968 -1.016,0 -1.781,-0.75 -1.781,-2.078 l 0,-2.828 7,0 0,3.156 c 0,1.25 -0.844,2.063 -2,2.063 z m -3.094,-1.203 c 0.703,0 1.109,-0.422 1.109,-1.406 l 0,-1.719 -2.218,0 0,1.719 c 0,0.984 0.406,1.406 1.109,1.406 z m 3.109,0.297 c 0.672,0 1.204,-0.407 1.204,-1.25 l 0,-2.172 -2.407,0 0,2.172 c 0,0.843 0.516,1.25 1.203,1.25 z" /><path
         id="path254"
         style="fill:#ff00ff;fill-opacity:1;fill-rule:nonzero;stroke:none"
         d="m 46.879,207.898 c -0.859,0 -1.5,-0.531 -1.75,-1.484 l -0.469,-1.75 c -0.219,-0.844 -0.5,-1.156 -1.047,-1.156 -0.703,0 -1.234,0.625 -1.234,1.562 0,1.109 0.516,1.75 1.422,1.75 l 0,0.844 c -1.375,0 -2.172,-0.953 -2.172,-2.563 0,-1.531 0.844,-2.484 2.109,-2.484 0.86,0 1.391,0.453 1.641,1.375 l 0.453,1.734 c 0.234,0.875 0.594,1.282 1.141,1.282 0.765,0 1.218,-0.579 1.218,-1.782 0,-1.328 -0.671,-1.968 -1.671,-1.968 l 0,-0.86 c 1.656,0 2.453,1.125 2.453,2.766 0,1.781 -0.844,2.734 -2.094,2.734 z" /><path
         id="path256"
         style="fill:#ff00ff;fill-opacity:1;fill-rule:nonzero;stroke:none"
         d="m 48.801,211.676 -6.797,0 0,-0.563 c 1.047,-0.297 1.187,-0.484 1.344,-1.781 l 0.609,0 0,1.5 4.844,0 0,0.844 z" /><path
         id="path258"
         style="fill:#ff00ff;fill-opacity:1;fill-rule:nonzero;stroke:none"
         d="m 48.801,217.015 -6.797,0 0,-0.562 c 1.047,-0.297 1.187,-0.484 1.344,-1.781 l 0.609,0 0,1.5 4.844,0 0,0.843 z" /><path
         id="path260"
         style="fill:#00ff00;fill-opacity:1;fill-rule:nonzero;stroke:none"
         d="m 27.852,157.699 0,-0.922 c 1.312,-0.219 1.937,-0.765 1.937,-1.953 0,-1.391 -1.062,-2.266 -2.812,-2.266 -1.797,0 -2.954,0.844 -2.954,2.188 0,1.094 0.485,1.672 1.547,1.891 l 0,0.906 c -1.531,-0.266 -2.343,-1.156 -2.343,-2.688 0,-2.125 1.718,-3.203 3.75,-3.203 2.046,0 3.593,1.11 3.593,3.156 0,1.719 -0.906,2.672 -2.718,2.891 z" /><path
         id="path262"
         style="fill:#00ff00;fill-opacity:1;fill-rule:nonzero;stroke:none"
         d="m 30.383,163.254 -0.61,0 c 0.016,-0.078 0.016,-0.11 0.016,-0.172 0,-0.266 -0.141,-0.422 -0.391,-0.422 l -2.796,0 c -0.891,0 -1.375,-0.656 -1.375,-1.891 0,-1.218 0.468,-1.968 1.625,-2.015 l 0,0.797 c -0.61,0.078 -0.891,0.437 -0.891,1.187 0,0.719 0.281,1.125 0.75,1.125 l 0.219,0 c 0.328,0 0.468,-0.203 0.547,-0.844 0.156,-1.125 0.187,-1.297 0.312,-1.609 0.234,-0.578 0.688,-0.875 1.297,-0.875 0.922,0 1.453,0.625 1.453,1.641 0,0.656 -0.266,1.265 -0.734,1.718 0.375,0.078 0.656,0.422 0.656,0.813 0,0.172 -0.016,0.297 -0.078,0.547 z m -1.719,-1.391 c 0.719,0 1.172,-0.734 1.172,-1.516 0,-0.609 -0.219,-0.984 -0.766,-0.984 -0.531,0 -0.75,0.359 -0.875,1.219 -0.125,0.844 -0.156,1.015 -0.281,1.281 l 0.75,0 z" /><path
         id="path264"
         style="fill:#00ff00;fill-opacity:1;fill-rule:nonzero;stroke:none"
         d="m 30.398,168.094 -5.031,0 0,-0.797 2.781,0 c 1.016,0 1.688,-0.532 1.688,-1.375 0,-0.625 -0.375,-1.032 -0.984,-1.032 l -3.485,0 0,-0.796 3.797,0 c 0.844,0 1.375,0.625 1.375,1.593 0,0.75 -0.25,1.219 -0.922,1.688 l 0.781,0 0,0.719 z" /><path
         id="path266"
         style="fill:#00ff00;fill-opacity:1;fill-rule:nonzero;stroke:none"
         d="m 28.117,173.726 c -0.734,0 -1.187,-0.062 -1.562,-0.203 -0.828,-0.328 -1.328,-1.094 -1.328,-2.031 0,-1.406 1.031,-2.297 2.687,-2.297 1.656,0 2.625,0.859 2.625,2.281 0,1.141 -0.656,1.938 -1.672,2.141 l 0,-0.797 c 0.672,-0.219 0.938,-0.672 0.938,-1.312 0,-0.844 -0.532,-1.469 -1.688,-1.485 l 0,3.703 z m -0.719,-0.859 c 0,0 0.047,0 0.063,0 l 0,-2.828 c -0.891,0.078 -1.5,0.64 -1.5,1.437 0,0.797 0.656,1.391 1.437,1.391 z" /><path
         id="path268"
         style="fill:#00ff00;fill-opacity:1;fill-rule:nonzero;stroke:none"
         d="m 26.07,177.25 -0.812,0 c -0.016,-0.141 -0.031,-0.203 -0.031,-0.313 0,-0.515 0.312,-0.906 1.062,-1.359 l -0.922,0 0,-0.734 5.031,0 0,0.796 -2.609,0 c -1.125,0 -1.703,0.375 -1.719,1.61 z" /><path
         id="path270"
         style="fill:#00ff00;fill-opacity:1;fill-rule:nonzero;stroke:none"
         d="m 31.617,182.914 0.484,0 0,-5.766 -0.484,0 0,5.766 z" /><path
         id="path272"
         style="fill:#00ff00;fill-opacity:1;fill-rule:nonzero;stroke:none"
         d="m 30.398,187.457 -7,0 0,-0.797 2.61,0 c -0.516,-0.344 -0.781,-0.875 -0.781,-1.547 0,-1.297 1.015,-2.156 2.609,-2.156 1.703,0 2.703,0.828 2.703,2.187 0,0.688 -0.25,1.172 -0.875,1.594 l 0.734,0 0,0.719 z m -2.5,-0.797 c 1.172,0 1.891,-0.563 1.891,-1.406 0,-0.875 -0.734,-1.469 -1.906,-1.469 -1.172,0 -1.906,0.594 -1.906,1.469 0,0.859 0.765,1.406 1.921,1.406 z" /><path
         id="path274"
         style="fill:#00ff00;fill-opacity:1;fill-rule:nonzero;stroke:none"
         d="m 28.398,194.027 c -0.843,0 -1.343,-0.39 -1.687,-1.281 -0.297,0.625 -0.828,0.969 -1.531,0.969 -1.016,0 -1.782,-0.75 -1.782,-2.078 l 0,-2.829 7,0 0,3.157 c 0,1.25 -0.843,2.062 -2,2.062 z m -3.093,-1.203 c 0.703,0 1.109,-0.422 1.109,-1.406 l 0,-1.719 -2.219,0 0,1.719 c 0,0.984 0.407,1.406 1.11,1.406 z m 3.109,0.297 c 0.672,0 1.203,-0.406 1.203,-1.25 l 0,-2.172 -2.406,0 0,2.172 c 0,0.844 0.516,1.25 1.203,1.25 z" /><path
         id="path276"
         style="fill:#00ff00;fill-opacity:1;fill-rule:nonzero;stroke:none"
         d="m 28.477,200.429 c -0.86,0 -1.5,-0.531 -1.75,-1.484 l -0.469,-1.75 c -0.219,-0.844 -0.5,-1.156 -1.047,-1.156 -0.703,0 -1.234,0.625 -1.234,1.562 0,1.11 0.515,1.75 1.421,1.75 l 0,0.844 c -1.375,0 -2.171,-0.953 -2.171,-2.562 0,-1.532 0.843,-2.485 2.109,-2.485 0.859,0 1.391,0.453 1.641,1.375 l 0.453,1.735 c 0.234,0.875 0.593,1.281 1.14,1.281 0.766,0 1.219,-0.578 1.219,-1.781 0,-1.329 -0.672,-1.969 -1.672,-1.969 l 0,-0.86 c 1.656,0 2.453,1.125 2.453,2.766 0,1.781 -0.843,2.734 -2.093,2.734 z" /><path
         id="path278"
         style="fill:#00ff00;fill-opacity:1;fill-rule:nonzero;stroke:none"
         d="m 30.398,204.207 -6.796,0 0,-0.563 c 1.046,-0.297 1.187,-0.484 1.343,-1.781 l 0.61,0 0,1.5 4.843,0 0,0.844 z" /><path
         id="path280"
         style="fill:#00ff00;fill-opacity:1;fill-rule:nonzero;stroke:none"
         d="m 30.398,209.547 -6.796,0 0,-0.563 c 1.046,-0.297 1.187,-0.484 1.343,-1.781 l 0.61,0 0,1.5 4.843,0 0,0.844 z" /></g></g></svg>