<?xml version="1.0" encoding="UTF-8" standalone="no"?>
<svg
   xmlns:dc="http://purl.org/dc/elements/1.1/"
   xmlns:cc="http://creativecommons.org/ns#"
   xmlns:rdf="http://www.w3.org/1999/02/22-rdf-syntax-ns#"
   xmlns:svg="http://www.w3.org/2000/svg"
   xmlns="http://www.w3.org/2000/svg"
   viewBox="0 0 857.0025 413.99875"
   height="413.99875"
   width="857.0025"
   xml:space="preserve"
   version="1.1"
   id="svg2"><metadata
     id="metadata8"><rdf:RDF><cc:Work
         rdf:about=""><dc:format>image/svg+xml</dc:format><dc:type
           rdf:resource="http://purl.org/dc/dcmitype/StillImage" /></cc:Work></rdf:RDF></metadata><defs
     id="defs6" /><g
     transform="matrix(1.25,0,0,-1.25,0,413.99876)"
     id="g10"><g
       id="g12"><path
         id="path14"
         style="fill:#ffffff;fill-opacity:1;fill-rule:evenodd;stroke:none"
         d="m 0,331.199 685.602,0 L 685.602,0 0,0 0,331.199 Z" /><path
         id="path16"
         style="fill:none;stroke:#c0c0c0;stroke-width:0.80000001;stroke-linecap:square;stroke-linejoin:bevel;stroke-miterlimit:4;stroke-dasharray:0.8, 1.6;stroke-dashoffset:0;stroke-opacity:1"
         d="m 115.199,296 480,0" /><path
         id="path18"
         style="fill:none;stroke:#c0c0c0;stroke-width:0.80000001;stroke-linecap:square;stroke-linejoin:bevel;stroke-miterlimit:4;stroke-dasharray:0.8, 1.6;stroke-dashoffset:0;stroke-opacity:1"
         d="m 115.199,272.801 480,0" /><path
         id="path20"
         style="fill:none;stroke:#c0c0c0;stroke-width:0.80000001;stroke-linecap:square;stroke-linejoin:bevel;stroke-miterlimit:4;stroke-dasharray:0.8, 1.6;stroke-dashoffset:0;stroke-opacity:1"
         d="m 115.199,249.597 480,0" /><path
         id="path22"
         style="fill:none;stroke:#c0c0c0;stroke-width:0.80000001;stroke-linecap:square;stroke-linejoin:bevel;stroke-miterlimit:4;stroke-dasharray:0.8, 1.6;stroke-dashoffset:0;stroke-opacity:1"
         d="m 115.199,226.398 480,0" /><path
         id="path24"
         style="fill:none;stroke:#c0c0c0;stroke-width:0.80000001;stroke-linecap:square;stroke-linejoin:bevel;stroke-miterlimit:4;stroke-dasharray:0.8, 1.6;stroke-dashoffset:0;stroke-opacity:1"
         d="m 115.199,203.199 480,0" /><path
         id="path26"
         style="fill:none;stroke:#c0c0c0;stroke-width:0.80000001;stroke-linecap:square;stroke-linejoin:bevel;stroke-miterlimit:4;stroke-dasharray:0.8, 1.6;stroke-dashoffset:0;stroke-opacity:1"
         d="m 115.199,179.199 480,0" /><path
         id="path28"
         style="fill:none;stroke:#c0c0c0;stroke-width:0.80000001;stroke-linecap:square;stroke-linejoin:bevel;stroke-miterlimit:4;stroke-dasharray:0.8, 1.6;stroke-dashoffset:0;stroke-opacity:1"
         d="m 115.199,156 480,0" /><path
         id="path30"
         style="fill:none;stroke:#c0c0c0;stroke-width:0.80000001;stroke-linecap:square;stroke-linejoin:bevel;stroke-miterlimit:4;stroke-dasharray:0.8, 1.6;stroke-dashoffset:0;stroke-opacity:1"
         d="m 115.199,132.801 480,0" /><path
         id="path32"
         style="fill:none;stroke:#c0c0c0;stroke-width:0.80000001;stroke-linecap:square;stroke-linejoin:bevel;stroke-miterlimit:4;stroke-dasharray:0.8, 1.6;stroke-dashoffset:0;stroke-opacity:1"
         d="m 115.199,109.597 480,0" /><path
         id="path34"
         style="fill:none;stroke:#c0c0c0;stroke-width:0.80000001;stroke-linecap:square;stroke-linejoin:bevel;stroke-miterlimit:4;stroke-dasharray:0.8, 1.6;stroke-dashoffset:0;stroke-opacity:1"
         d="m 115.199,86.398 480,0" /><path
         id="path36"
         style="fill:none;stroke:#c0c0c0;stroke-width:0.80000001;stroke-linecap:square;stroke-linejoin:bevel;stroke-miterlimit:4;stroke-dasharray:0.8, 1.6;stroke-dashoffset:0;stroke-opacity:1"
         d="m 355.199,319.199 0,-256" /><path
         id="path38"
         style="fill:none;stroke:#000000;stroke-width:0.80000001;stroke-linecap:square;stroke-linejoin:bevel;stroke-miterlimit:4;stroke-dasharray:none;stroke-opacity:1"
         d="m 115.199,67.199 0,-8" /><path
         id="path40"
         style="fill:none;stroke:#000000;stroke-width:0.80000001;stroke-linecap:square;stroke-linejoin:bevel;stroke-miterlimit:4;stroke-dasharray:none;stroke-opacity:1"
         d="m 355.199,67.199 0,-8" /><path
         id="path42"
         style="fill:none;stroke:#000000;stroke-width:0.80000001;stroke-linecap:square;stroke-linejoin:bevel;stroke-miterlimit:4;stroke-dasharray:none;stroke-opacity:1"
         d="m 595.199,67.199 0,-8" /><path
         id="path44"
         style="fill:none;stroke:#000000;stroke-width:0.80000001;stroke-linecap:square;stroke-linejoin:bevel;stroke-miterlimit:4;stroke-dasharray:none;stroke-opacity:1"
         d="m 111.199,63.199 8,0" /><path
         id="path46"
         style="fill:none;stroke:#000000;stroke-width:0.80000001;stroke-linecap:square;stroke-linejoin:bevel;stroke-miterlimit:4;stroke-dasharray:none;stroke-opacity:1"
         d="m 111.199,86.398 8,0" /><path
         id="path48"
         style="fill:none;stroke:#000000;stroke-width:0.80000001;stroke-linecap:square;stroke-linejoin:bevel;stroke-miterlimit:4;stroke-dasharray:none;stroke-opacity:1"
         d="m 111.199,109.597 8,0" /><path
         id="path50"
         style="fill:none;stroke:#000000;stroke-width:0.80000001;stroke-linecap:square;stroke-linejoin:bevel;stroke-miterlimit:4;stroke-dasharray:none;stroke-opacity:1"
         d="m 111.199,132.801 8,0" /><path
         id="path52"
         style="fill:none;stroke:#000000;stroke-width:0.80000001;stroke-linecap:square;stroke-linejoin:bevel;stroke-miterlimit:4;stroke-dasharray:none;stroke-opacity:1"
         d="m 111.199,156 8,0" /><path
         id="path54"
         style="fill:none;stroke:#000000;stroke-width:0.80000001;stroke-linecap:square;stroke-linejoin:bevel;stroke-miterlimit:4;stroke-dasharray:none;stroke-opacity:1"
         d="m 111.199,179.199 8,0" /><path
         id="path56"
         style="fill:none;stroke:#000000;stroke-width:0.80000001;stroke-linecap:square;stroke-linejoin:bevel;stroke-miterlimit:4;stroke-dasharray:none;stroke-opacity:1"
         d="m 111.199,203.199 8,0" /><path
         id="path58"
         style="fill:none;stroke:#000000;stroke-width:0.80000001;stroke-linecap:square;stroke-linejoin:bevel;stroke-miterlimit:4;stroke-dasharray:none;stroke-opacity:1"
         d="m 111.199,226.398 8,0" /><path
         id="path60"
         style="fill:none;stroke:#000000;stroke-width:0.80000001;stroke-linecap:square;stroke-linejoin:bevel;stroke-miterlimit:4;stroke-dasharray:none;stroke-opacity:1"
         d="m 111.199,249.597 8,0" /><path
         id="path62"
         style="fill:none;stroke:#000000;stroke-width:0.80000001;stroke-linecap:square;stroke-linejoin:bevel;stroke-miterlimit:4;stroke-dasharray:none;stroke-opacity:1"
         d="m 111.199,272.801 8,0" /><path
         id="path64"
         style="fill:none;stroke:#000000;stroke-width:0.80000001;stroke-linecap:square;stroke-linejoin:bevel;stroke-miterlimit:4;stroke-dasharray:none;stroke-opacity:1"
         d="m 111.199,296 8,0" /><path
         id="path66"
         style="fill:none;stroke:#000000;stroke-width:0.80000001;stroke-linecap:square;stroke-linejoin:bevel;stroke-miterlimit:4;stroke-dasharray:none;stroke-opacity:1"
         d="m 111.199,319.199 8,0" /><path
         id="path68"
         style="fill:none;stroke:#000000;stroke-width:0.80000001;stroke-linecap:square;stroke-linejoin:bevel;stroke-miterlimit:4;stroke-dasharray:none;stroke-opacity:1"
         d="m 115.199,319.199 480,0" /><path
         id="path70"
         style="fill:none;stroke:#000000;stroke-width:0.80000001;stroke-linecap:square;stroke-linejoin:bevel;stroke-miterlimit:4;stroke-dasharray:none;stroke-opacity:1"
         d="m 595.199,319.199 0,-256" /><path
         id="path72"
         style="fill:none;stroke:#000000;stroke-width:0.80000001;stroke-linecap:square;stroke-linejoin:bevel;stroke-miterlimit:4;stroke-dasharray:none;stroke-opacity:1"
         d="m 115.199,63.199 480,0" /><path
         id="path74"
         style="fill:none;stroke:#000000;stroke-width:0.80000001;stroke-linecap:square;stroke-linejoin:bevel;stroke-miterlimit:4;stroke-dasharray:none;stroke-opacity:1"
         d="m 115.199,319.199 0,-256" /><path
         id="path76"
         style="fill:none;stroke:#0000ff;stroke-width:0.80000001;stroke-linecap:square;stroke-linejoin:bevel;stroke-miterlimit:4;stroke-dasharray:none;stroke-opacity:1"
         d="m 139.199,295.265 0.113,-0.007 0.11,-0.004 0.113,-0.008 0.11,-0.008 0.113,-0.004 0.113,-0.008 0.117,-0.007 0.114,-0.004 0.117,-0.008 0.113,-0.008 0.117,-0.004 0.352,-0.023 0.117,-0.004 0.117,-0.008 0.606,-0.039 0.121,-0.004 0.121,-0.008 0.375,-0.023 0.121,-0.008 0.129,-0.008 0.25,-0.016 0.258,-0.015 0.129,-0.012 0.386,-0.023 0.266,-0.016 0.129,-0.012 0.265,-0.015 0.137,-0.008 0.133,-0.012 0.273,-0.015 0.133,-0.012 0.141,-0.008 0.137,-0.012 0.136,-0.007 0.141,-0.012 0.14,-0.008 0.137,-0.012 0.145,-0.008 0.14,-0.011 0.141,-0.008 0.145,-0.012 0.14,-0.012 0.149,-0.007 0.289,-0.024 0.144,-0.008 0.594,-0.046 0.148,-0.008 0.153,-0.012 0.148,-0.012 0.457,-0.035 0.156,-0.012 0.153,-0.011 0.312,-0.024 0.157,-0.015 0.156,-0.012 0.16,-0.012 0.156,-0.012 0.16,-0.011 0.16,-0.016 0.165,-0.012 0.16,-0.011 0.16,-0.016 0.164,-0.012 0.164,-0.015 0.168,-0.012 0.164,-0.016 0.168,-0.011 0.164,-0.016 0.168,-0.012 0.168,-0.015 0.172,-0.016 0.172,-0.012 0.168,-0.015 0.343,-0.032 0.176,-0.011 0.172,-0.016 0.527,-0.047 0.36,-0.031 0.176,-0.016 0.183,-0.015 0.18,-0.02 0.18,-0.015 0.367,-0.032 0.183,-0.019 0.184,-0.016 0.187,-0.019 0.188,-0.016 0.187,-0.019 0.188,-0.016 0.187,-0.02 0.192,-0.015 0.383,-0.039 0.195,-0.016 0.191,-0.019 0.586,-0.059 0.399,-0.039 0.195,-0.02 0.203,-0.019 0.199,-0.02 0.204,-0.023 0.609,-0.059 0.207,-0.023 0.207,-0.02 0.207,-0.023 0.207,-0.02 0.422,-0.047 0.211,-0.019 0.215,-0.024 0.211,-0.023 0.644,-0.07 0.656,-0.071 0.223,-0.023 0.219,-0.027 0.445,-0.047 0.227,-0.028 0.226,-0.023 0.453,-0.055 0.227,-0.023 0.461,-0.055 0.234,-0.027 0.231,-0.028 0.468,-0.054 0.715,-0.082 0.239,-0.032 0.238,-0.027 0.242,-0.031 0.246,-0.027 0.242,-0.032 0.246,-0.031 0.247,-0.027 0.246,-0.032 0.25,-0.031 0.246,-0.031 0.254,-0.031 0.25,-0.032 0.254,-0.035 0.507,-0.062 0.258,-0.035 0.258,-0.032 0.258,-0.035 0.262,-0.031 0.523,-0.07 1.062,-0.141 0.27,-0.035 0.27,-0.039 0.269,-0.035 0.274,-0.039 0.273,-0.036 0.277,-0.039 0.274,-0.039 0.277,-0.039 0.563,-0.078 0.277,-0.039 0.285,-0.039 0.285,-0.043 0.285,-0.039 0.286,-0.043 0.289,-0.039 0.578,-0.086 0.879,-0.129 0.296,-0.043 0.297,-0.047 0.301,-0.043 0.301,-0.047 0.301,-0.043 0.3,-0.046 0.305,-0.047 0.309,-0.047 0.304,-0.047 0.309,-0.047 0.313,-0.051 0.308,-0.047 0.313,-0.05 0.316,-0.051 0.316,-0.047 0.317,-0.051 0.32,-0.051 0.317,-0.054 0.648,-0.102 0.648,-0.109 0.329,-0.051 0.328,-0.055 0.332,-0.054 0.332,-0.059 0.332,-0.055 0.336,-0.054 0.336,-0.059 0.679,-0.117 0.344,-0.059 0.34,-0.058 0.344,-0.059 0.347,-0.058 0.348,-0.063 1.406,-0.25 0.36,-0.062 0.355,-0.067 0.359,-0.062 0.36,-0.067 0.363,-0.066 0.367,-0.067 0.364,-0.066 0.367,-0.07 0.371,-0.067 0.742,-0.14 0.375,-0.071 0.379,-0.07 0.375,-0.074 0.383,-0.071 0.379,-0.074 0.383,-0.074 0.386,-0.074 0.387,-0.078 0.387,-0.075 0.39,-0.078 0.395,-0.078 0.39,-0.078 0.797,-0.156 0.399,-0.082 1.207,-0.246 0.41,-0.082 0.406,-0.086 0.41,-0.086 0.828,-0.172 0.418,-0.086 0.836,-0.18 0.422,-0.09 0.426,-0.089 0.426,-0.094 0.43,-0.094 0.429,-0.09 0.43,-0.097 0.433,-0.094 0.438,-0.098 0.438,-0.094 0.441,-0.101 0.441,-0.098 0.446,-0.097 0.445,-0.102 0.449,-0.102 0.449,-0.105 0.453,-0.102 0.454,-0.105 0.914,-0.211 0.461,-0.109 0.929,-0.219 0.469,-0.109 0.938,-0.227 0.476,-0.113 0.473,-0.114 1.441,-0.351 0.485,-0.121 0.488,-0.117 0.488,-0.125 0.492,-0.122 1.489,-0.375 0.5,-0.128 1.007,-0.258 0.508,-0.129 0.512,-0.133 0.512,-0.137 0.515,-0.132 0.516,-0.137 0.519,-0.137 1.047,-0.281 1.055,-0.281 0.531,-0.145 0.535,-0.144 1.618,-0.446 0.543,-0.152 0.546,-0.152 0.551,-0.153 0.551,-0.156 0.555,-0.156 0.554,-0.16 0.563,-0.161 0.558,-0.16 1.133,-0.328 0.571,-0.164 0.57,-0.168 0.574,-0.172 0.578,-0.168 0.582,-0.176 0.582,-0.171 0.586,-0.176 0.59,-0.18 0.59,-0.176 0.594,-0.183 1.195,-0.367 0.602,-0.184 0.605,-0.188 1.219,-0.382 0.613,-0.196 0.617,-0.191 0.617,-0.199 0.622,-0.2 0.625,-0.199 0.628,-0.203 0.629,-0.207 0.633,-0.207 0.637,-0.207 1.281,-0.422 0.645,-0.215 0.648,-0.218 0.652,-0.219 0.657,-0.219 0.656,-0.227 0.66,-0.222 0.66,-0.227 0.668,-0.23 0.668,-0.235 0.672,-0.234 0.68,-0.234 0.676,-0.239 1.367,-0.484 0.687,-0.246 0.692,-0.25 0.695,-0.25 0.699,-0.25 0.699,-0.258 0.703,-0.258 0.711,-0.258 1.422,-0.531 0.719,-0.265 0.723,-0.27 0.722,-0.273 0.727,-0.278 0.73,-0.277 0.735,-0.281 1.476,-0.571 0.746,-0.293 0.747,-0.289 1.507,-0.593 0.758,-0.301 0.762,-0.305 1.531,-0.617 0.774,-0.313 0.777,-0.316 0.777,-0.32 0.785,-0.321 0.786,-0.328 0.789,-0.328 0.796,-0.332 0.797,-0.336 0.801,-0.336 0.805,-0.343 0.808,-0.344 0.813,-0.352 0.816,-0.351 0.821,-0.356 0.824,-0.359 0.824,-0.363 0.832,-0.364 0.836,-0.371 0.84,-0.375 0.844,-0.375 0.843,-0.383 0.852,-0.386 0.855,-0.387 0.86,-0.395 0.863,-0.394 0.863,-0.403 0.871,-0.402 0.875,-0.41 0.879,-0.414 0.883,-0.414 0.887,-0.422 0.891,-0.426 0.894,-0.429 0.899,-0.434 0.906,-0.438 0.906,-0.445 0.91,-0.445 0.918,-0.453 0.918,-0.457 0.926,-0.461 0.93,-0.465 0.929,-0.469 0.938,-0.476 0.941,-0.481 0.949,-0.484 0.95,-0.492 0.953,-0.493 0.961,-0.5 0.961,-0.507 0.968,-0.508 0.973,-0.516 0.977,-0.523 0.98,-0.524 0.988,-0.531 0.989,-0.539 0.996,-0.543 1,-0.547 1.004,-0.555 1.007,-0.562 1.016,-0.563 1.016,-0.574 1.023,-0.574 1.027,-0.586 1.036,-0.59 1.035,-0.594 1.043,-0.601 1.047,-0.61 1.05,-0.617 1.059,-0.621 1.059,-0.625 1.066,-0.637 1.07,-0.64 1.078,-0.649 1.082,-0.652 1.086,-0.664 1.09,-0.668 1.098,-0.676 1.101,-0.683 1.106,-0.692 1.113,-0.695 1.113,-0.707 1.125,-0.711 1.125,-0.723 1.133,-0.726 1.137,-0.739 1.141,-0.742 1.148,-0.754 1.156,-0.757 1.157,-0.77 1.164,-0.777 1.168,-0.785 1.175,-0.793 1.18,-0.805 1.188,-0.809 1.191,-0.82 1.195,-0.832 1.203,-0.836 1.207,-0.848 1.215,-0.855 1.215,-0.867 1.227,-0.875 1.23,-0.887 1.235,-0.895 1.242,-0.906 1.246,-0.914 1.254,-0.926 1.258,-0.933 1.265,-0.946 1.27,-0.957 1.277,-0.968 1.281,-0.977 1.289,-0.992 1.293,-0.996 1.301,-1.012 1.305,-1.023 1.312,-1.036 1.321,-1.042 1.324,-1.059 1.328,-1.07 1.34,-1.082 1.34,-1.094 1.351,-1.106 1.352,-1.117 1.363,-1.129 1.367,-1.144 1.375,-1.157 1.379,-1.171 1.387,-1.184 1.394,-1.195 1.399,-1.211 1.406,-1.223 1.414,-1.238 1.418,-1.25 1.426,-1.266 1.433,-1.281 1.438,-1.293 1.445,-1.309 1.453,-1.328 1.457,-1.336 1.465,-1.355 1.473,-1.367 1.48,-1.387 1.485,-1.402 1.496,-1.414 1.5,-1.434 1.504,-1.449 1.515,-1.465 1.52,-1.481 1.527,-1.496 1.535,-1.515 1.543,-1.532 1.547,-1.55 1.559,-1.567 1.562,-1.582 1.571,-1.601 1.578,-1.618 1.586,-1.636 1.59,-1.656 1.601,-1.672 1.606,-1.692 1.617,-1.711 1.621,-1.73 1.629,-1.746 1.637,-1.766 1.644,-1.785 1.652,-1.805 1.661,-1.824 1.668,-1.844 1.675,-1.863 1.684,-1.887 1.687,-1.902 1.7,-1.922 1.707,-1.945 1.715,-1.961 1.722,-1.985 1.731,-2.003 1.738,-2.028 1.746,-2.043 1.754,-2.066 1.762,-2.09 1.769,-2.109 1.778,-2.129 1.789,-2.153 1.796,-2.172 1.801,-2.191 1.813,-2.215 1.82,-2.238 1.828,-2.258 1.836,-2.277 1.848,-2.301 1.851,-2.324 1.864,-2.344 1.871,-2.367 1.879,-2.387 1.726,-2.203" /><path
         id="path78"
         style="fill:none;stroke:#ff0000;stroke-width:0.80000001;stroke-linecap:square;stroke-linejoin:bevel;stroke-miterlimit:4;stroke-dasharray:none;stroke-opacity:1"
         d="m 139.199,295.926 60.094,0 0.387,-0.004 7.308,0 0.426,-0.004 3.906,0 0.446,-0.004 2.25,0 0.457,-0.004 2.316,0 0.469,-0.004 1.418,0 0.48,-0.004 0.961,0 0.485,-0.004 0.976,0 0.492,-0.004 0.992,0 0.497,-0.004 0.5,0 0.503,-0.003 0.504,0 0.508,-0.004 0.512,0 0.512,-0.004 0.515,0 0.516,-0.004 0.519,0 1.047,-0.008 0.528,0 0.527,-0.004 0.531,-0.004 0.535,-0.004 1.079,-0.008 0.539,0 0.543,-0.003 0.546,-0.004 0.551,-0.008 0.551,-0.004 1.109,-0.008 0.563,-0.004 0.558,-0.008 0.567,-0.004 0.566,-0.007 0.571,-0.004 0.57,-0.008 0.574,-0.008 0.578,-0.004 1.164,-0.015 0.586,-0.008 0.59,-0.008 0.59,-0.012 0.594,-0.008 0.597,-0.007 0.598,-0.012 0.602,-0.012 0.605,-0.012 1.219,-0.023 0.613,-0.012 0.617,-0.011 0.617,-0.016 0.622,-0.016 0.625,-0.015 1.257,-0.032 0.633,-0.015 0.637,-0.02 1.281,-0.039 0.645,-0.023 0.648,-0.02 0.652,-0.023 0.657,-0.024 0.656,-0.027 1.32,-0.055 0.668,-0.027 0.668,-0.031 0.672,-0.031 0.68,-0.036 0.676,-0.035 0.683,-0.035 0.684,-0.039 0.687,-0.039 0.692,-0.043 0.695,-0.043 1.398,-0.094 0.703,-0.051 2.133,-0.164 0.719,-0.062 0.723,-0.063 0.722,-0.066 0.727,-0.07 0.73,-0.071 0.735,-0.078 0.738,-0.078 0.738,-0.082 1.493,-0.18 0.753,-0.093 0.754,-0.102 0.758,-0.101 0.762,-0.11 0.765,-0.113 0.766,-0.121 0.774,-0.125 0.777,-0.129 0.777,-0.137 0.785,-0.144 0.786,-0.149 0.789,-0.156 0.796,-0.16 0.797,-0.172 0.801,-0.18 0.805,-0.183 0.808,-0.196 0.813,-0.203 0.816,-0.215 0.821,-0.222 0.824,-0.231 0.824,-0.242 0.832,-0.254 0.836,-0.265 0.84,-0.274 0.844,-0.289 0.843,-0.301 0.852,-0.316 0.855,-0.328 0.86,-0.344 0.863,-0.356 0.863,-0.375 0.871,-0.386 0.875,-0.406 0.879,-0.426 0.883,-0.442 0.887,-0.461 0.891,-0.476 0.894,-0.5 0.899,-0.524 0.906,-0.543 0.906,-0.562 0.91,-0.59 0.918,-0.613 0.918,-0.637 0.926,-0.664 0.93,-0.691 0.929,-0.715 0.938,-0.746 0.941,-0.778 0.949,-0.804 0.95,-0.836 0.953,-0.871 0.961,-0.899 0.961,-0.937 0.968,-0.973 0.973,-1.004 0.977,-1.047 0.98,-1.078 0.988,-1.121 0.989,-1.16 0.996,-1.199 1,-1.243 1.004,-1.285 1.007,-1.328 1.016,-1.371 1.016,-1.418 1.023,-1.465 1.027,-1.508 1.036,-1.558 1.035,-1.602 1.043,-1.656 1.047,-1.703 1.05,-1.754 1.059,-1.805 1.059,-1.855 1.066,-1.906 1.07,-1.957 1.078,-2.012 1.082,-2.067 1.086,-2.117 1.09,-2.172 1.098,-2.222 1.101,-2.282 1.106,-2.332 1.113,-2.382 1.113,-2.442 1.125,-2.492 1.125,-2.547 1.133,-2.597 1.137,-2.653 1.141,-2.703 1.148,-2.758 1.156,-2.804 1.157,-2.86 1.164,-2.914 1.168,-2.957 1.175,-3.012 1.18,-3.054 1.188,-3.11 1.191,-3.152 1.195,-3.199 1.203,-3.246 1.207,-3.289 1.215,-3.336 1.215,-3.379 1.227,-3.422 1.23,-3.461 1.235,-3.504 1.242,-3.539 1.246,-3.582 1.254,-3.617 1.258,-3.657 1.265,-3.691 1.27,-3.726 1.277,-3.758 1.281,-3.793 1.289,-3.824 1.293,-3.86 1.301,-3.883 1.305,-3.918 1.312,-3.941 1.321,-3.973 1.324,-3.996 1.328,-4.023 1.34,-4.047 1.34,-4.074 1.351,-4.094 1.352,-4.121 1.363,-4.137 1.367,-4.16 1.375,-4.18 0.176,-0.531" /><path
         id="path80"
         style="fill:none;stroke:#ff00ff;stroke-width:0.80000001;stroke-linecap:square;stroke-linejoin:bevel;stroke-miterlimit:4;stroke-dasharray:none;stroke-opacity:1"
         d="m 139.199,289.711 0.113,-0.051 0.11,-0.051 0.113,-0.055 0.11,-0.05 0.113,-0.051 0.113,-0.055 0.117,-0.051 0.114,-0.054 0.117,-0.055 0.113,-0.055 0.586,-0.273 0.117,-0.059 0.121,-0.054 0.364,-0.176 0.121,-0.055 0.121,-0.058 0.121,-0.063 0.25,-0.117 0.125,-0.063 0.121,-0.058 0.129,-0.063 0.125,-0.058 0.125,-0.063 0.515,-0.25 0.129,-0.066 0.129,-0.063 0.133,-0.066 0.133,-0.063 0.129,-0.066 0.265,-0.133 0.137,-0.066 0.133,-0.067 0.273,-0.132 0.133,-0.071 0.141,-0.066 0.137,-0.07 0.136,-0.067 0.281,-0.14 0.137,-0.071 0.145,-0.07 0.14,-0.07 0.141,-0.075 0.145,-0.07 0.14,-0.074 0.149,-0.07 0.433,-0.223 0.594,-0.297 0.148,-0.078 0.153,-0.074 0.148,-0.078 0.153,-0.079 0.152,-0.074 0.152,-0.078 0.156,-0.078 0.153,-0.078 0.156,-0.078 0.156,-0.082 0.157,-0.078 0.156,-0.083 0.16,-0.078 0.156,-0.082 0.16,-0.078 0.16,-0.082 0.165,-0.082 0.32,-0.164 0.164,-0.086 0.164,-0.082 0.168,-0.082 0.164,-0.086 0.168,-0.082 0.164,-0.086 0.168,-0.086 0.168,-0.082 0.344,-0.172 0.168,-0.086 0.343,-0.171 0.176,-0.09 0.172,-0.086 0.176,-0.09 0.176,-0.086 0.175,-0.09 0.18,-0.086 0.18,-0.09 0.176,-0.09 0.183,-0.089 0.18,-0.086 0.18,-0.09 0.183,-0.09 0.184,-0.094 0.367,-0.179 0.187,-0.09 0.188,-0.094 0.375,-0.18 0.187,-0.093 0.192,-0.09 0.383,-0.188 0.195,-0.09 0.191,-0.093 0.391,-0.188 0.195,-0.09 0.399,-0.187 0.195,-0.094 0.203,-0.094 0.199,-0.093 0.813,-0.375 0.828,-0.375 0.633,-0.282 0.215,-0.097 0.211,-0.094 0.644,-0.281 0.438,-0.188 0.218,-0.09 0.223,-0.093 0.219,-0.094 0.445,-0.188 0.227,-0.09 0.453,-0.187 0.226,-0.09 0.227,-0.094 0.23,-0.09 0.231,-0.093 0.234,-0.09 0.231,-0.09 0.468,-0.18 0.715,-0.269 0.239,-0.086 0.238,-0.09 0.242,-0.086 0.246,-0.09 0.242,-0.086 0.739,-0.257 0.25,-0.083 0.246,-0.085 0.254,-0.082 0.25,-0.083 0.761,-0.246 0.258,-0.078 0.258,-0.082 0.258,-0.078 0.262,-0.078 0.261,-0.074 0.262,-0.078 1.062,-0.297 0.809,-0.211 0.274,-0.07 0.273,-0.067 0.277,-0.066 0.274,-0.067 0.277,-0.066 0.563,-0.125 0.277,-0.063 0.855,-0.175 0.286,-0.055 0.578,-0.109 0.289,-0.051 0.586,-0.102 0.293,-0.047 0.296,-0.047 0.297,-0.043 0.602,-0.085 0.601,-0.079 0.305,-0.035 0.309,-0.035 0.304,-0.031 0.309,-0.031 0.313,-0.032 0.308,-0.027 0.313,-0.023 0.632,-0.047 0.317,-0.02 0.32,-0.015 0.317,-0.016 0.324,-0.016 0.324,-0.011 0.648,-0.016 0.657,-0.008 0.332,0 0.664,0.008 0.672,0.016 0.34,0.011 0.339,0.016 0.344,0.019 0.34,0.02 0.344,0.02 0.695,0.054 0.703,0.063 0.352,0.035 0.351,0.039 0.36,0.043 0.355,0.043 0.719,0.101 0.363,0.051 0.367,0.059 0.364,0.058 0.367,0.063 0.371,0.066 0.371,0.071 0.371,0.074 0.375,0.074 0.379,0.078 0.375,0.082 0.383,0.086 0.379,0.09 0.383,0.094 0.386,0.093 0.774,0.204 0.39,0.109 0.395,0.109 0.39,0.114 0.399,0.117 0.398,0.121 0.399,0.125 0.804,0.258 0.403,0.136 0.41,0.141 0.406,0.141 0.41,0.148 0.828,0.305 0.836,0.32 0.418,0.168 0.422,0.168 0.426,0.172 0.426,0.18 0.43,0.179 0.429,0.184 0.43,0.191 0.433,0.192 0.438,0.195 0.438,0.199 0.441,0.203 0.441,0.207 0.446,0.211 0.445,0.215 0.449,0.219 0.449,0.223 0.907,0.453 0.914,0.468 0.461,0.239 0.464,0.242 0.465,0.246 0.938,0.5 0.469,0.254 0.476,0.258 0.473,0.261 1.441,0.797 0.485,0.274 0.976,0.547 0.492,0.277 1.489,0.844 0.5,0.285 0.503,0.285 0.504,0.289 0.508,0.285 1.024,0.578 1.031,0.579 0.519,0.289 1.047,0.578 0.528,0.289 0.527,0.285 0.531,0.289 0.535,0.281 1.079,0.563 0.539,0.277 0.543,0.277 0.546,0.27 0.551,0.27 0.551,0.265 1.109,0.516 0.563,0.254 0.558,0.246 1.133,0.476 0.571,0.227 0.57,0.223 0.574,0.218 0.578,0.207 0.582,0.2 0.582,0.191 0.586,0.187 0.59,0.172 0.59,0.168 0.594,0.153 0.597,0.148 0.598,0.133 0.602,0.125 0.605,0.113 0.609,0.102 0.61,0.086 0.613,0.078 0.617,0.062 0.617,0.047 0.622,0.039 0.625,0.02 0.628,0.008 0.629,-0.008 0.633,-0.02 0.637,-0.039 0.641,-0.051 0.64,-0.07 0.645,-0.086 0.648,-0.098 0.652,-0.117 0.657,-0.136 0.656,-0.149 0.66,-0.168 0.66,-0.183 0.668,-0.2 0.668,-0.218 0.672,-0.235 0.68,-0.25 0.676,-0.269 0.683,-0.285 0.684,-0.301 0.687,-0.317 0.692,-0.332 0.695,-0.347 0.699,-0.364 0.699,-0.379 0.703,-0.394 0.711,-0.406 0.711,-0.422 0.711,-0.434 0.719,-0.445 0.723,-0.457 0.722,-0.473 0.727,-0.476 0.73,-0.493 0.735,-0.496 0.738,-0.507 0.738,-0.512 0.746,-0.52 0.747,-0.523 1.507,-1.063 0.758,-0.535 0.762,-0.535 1.531,-1.07 0.774,-0.531 0.777,-0.532 0.777,-0.523 0.785,-0.516 0.786,-0.512 0.789,-0.5 0.796,-0.488 0.797,-0.48 0.801,-0.465 0.805,-0.449 0.808,-0.434 0.813,-0.418 0.816,-0.394 0.821,-0.375 0.824,-0.356 0.824,-0.328 0.832,-0.301 0.836,-0.277 0.84,-0.242 0.844,-0.215 0.843,-0.184 0.852,-0.148 0.855,-0.11 0.86,-0.074 0.863,-0.031 0.863,0.008 0.871,0.047 0.875,0.097 0.879,0.141 0.883,0.191 0.887,0.239 0.891,0.289 0.894,0.34 0.899,0.394 0.906,0.445 0.906,0.504 0.91,0.559 0.918,0.613 0.918,0.672 0.926,0.723 0.93,0.781 0.929,0.832 0.938,0.887 0.941,0.933 0.949,0.977 0.95,1.019 0.953,1.059 0.961,1.082 0.961,1.109 0.968,1.118 0.973,1.117 0.977,1.105 0.98,1.078 0.988,1.028 0.989,0.965 0.996,0.871 1,0.757 1.004,0.61 1.007,0.433 1.016,0.223 1.016,-0.027 1.023,-0.313 1.027,-0.637 1.036,-1.003 1.035,-1.403 1.043,-1.84 1.047,-2.308 1.05,-2.805 1.059,-3.316 1.059,-3.844 1.066,-4.371 1.07,-4.899 1.078,-5.414 1.082,-5.906 1.086,-6.375 1.09,-6.812 1.098,-7.211 1.101,-7.578 1.106,-7.903 1.113,-8.187 1.113,-8.434 1.125,-8.644 1.125,-8.817 1.133,-8.961 1.137,-9.074 1.141,-9.164 1.148,-9.227 1.156,-9.265 1.157,-9.293 1.164,-9.301 1.168,-9.293 1.175,-9.277 1.18,-9.25 1.188,-9.215 1.191,-9.172 1.195,-9.121 0.668,-5.047" /><path
         id="path82"
         style="fill:none;stroke:#00ff00;stroke-width:0.80000001;stroke-linecap:square;stroke-linejoin:bevel;stroke-miterlimit:4;stroke-dasharray:none;stroke-opacity:1"
         d="m 139.199,293.133 0.113,-0.028 0.11,-0.023 0.113,-0.024 0.11,-0.027 0.113,-0.023 0.113,-0.028 0.117,-0.027 0.114,-0.024 0.117,-0.027 0.113,-0.027 0.703,-0.164 0.242,-0.055 0.121,-0.031 0.243,-0.055 0.121,-0.031 0.121,-0.027 0.25,-0.063 0.125,-0.027 0.121,-0.032 0.129,-0.031 0.25,-0.062 0.387,-0.094 0.128,-0.035 0.258,-0.063 0.133,-0.035 0.133,-0.031 0.129,-0.035 0.133,-0.035 0.132,-0.032 0.137,-0.035 0.133,-0.035 0.273,-0.07 0.133,-0.035 0.141,-0.036 0.137,-0.039 0.136,-0.035 0.141,-0.035 0.14,-0.039 0.137,-0.035 0.145,-0.039 0.14,-0.035 0.141,-0.04 0.145,-0.039 0.14,-0.039 0.149,-0.039 0.433,-0.117 0.149,-0.039 0.148,-0.043 0.149,-0.039 0.148,-0.043 0.148,-0.039 0.153,-0.043 0.148,-0.043 0.457,-0.129 0.156,-0.043 0.153,-0.043 0.312,-0.086 0.157,-0.047 0.156,-0.043 0.16,-0.046 0.156,-0.047 0.16,-0.043 0.16,-0.047 0.165,-0.047 0.32,-0.094 0.164,-0.047 0.164,-0.05 0.168,-0.047 0.164,-0.051 0.168,-0.047 0.164,-0.051 0.168,-0.051 0.168,-0.046 0.344,-0.102 0.168,-0.051 0.172,-0.054 0.171,-0.051 0.176,-0.051 0.172,-0.055 0.176,-0.05 0.351,-0.11 0.18,-0.051 0.18,-0.054 0.176,-0.055 0.183,-0.059 0.36,-0.109 0.183,-0.059 0.184,-0.054 0.183,-0.059 0.184,-0.055 0.937,-0.293 0.192,-0.062 0.191,-0.059 0.192,-0.062 0.195,-0.059 0.191,-0.062 0.586,-0.188 0.399,-0.125 0.195,-0.062 0.203,-0.067 0.199,-0.062 0.204,-0.067 0.203,-0.062 0.406,-0.133 0.621,-0.199 0.207,-0.07 0.211,-0.067 0.211,-0.07 0.211,-0.066 0.215,-0.071 0.211,-0.07 0.644,-0.211 0.438,-0.141 0.218,-0.074 0.223,-0.07 0.219,-0.074 0.445,-0.149 1.133,-0.371 0.23,-0.078 0.231,-0.074 0.234,-0.078 0.231,-0.079 0.234,-0.074 0.234,-0.078 0.477,-0.156 0.238,-0.082 0.477,-0.156 0.242,-0.082 0.246,-0.079 0.242,-0.082 0.493,-0.164 0.246,-0.078 0.25,-0.082 0.246,-0.086 0.254,-0.082 0.25,-0.082 0.254,-0.082 0.253,-0.086 0.254,-0.082 0.774,-0.258 0.262,-0.082 0.523,-0.172 0.266,-0.085 0.265,-0.09 0.531,-0.172 0.27,-0.09 0.27,-0.086 0.269,-0.09 0.274,-0.086 0.273,-0.09 0.277,-0.086 0.274,-0.089 0.277,-0.09 0.563,-0.18 0.277,-0.09 0.855,-0.269 0.286,-0.094 0.867,-0.27 0.293,-0.093 0.293,-0.09 0.293,-0.094 0.296,-0.09 0.297,-0.094 0.301,-0.089 0.301,-0.094 0.301,-0.09 0.3,-0.094 0.305,-0.093 0.309,-0.09 0.304,-0.094 0.309,-0.094 0.313,-0.09 0.308,-0.093 0.313,-0.094 0.316,-0.09 0.633,-0.187 0.32,-0.09 0.317,-0.094 0.324,-0.094 0.324,-0.09 0.324,-0.093 0.324,-0.09 0.329,-0.094 0.328,-0.09 0.332,-0.094 0.332,-0.089 0.332,-0.094 0.672,-0.18 0.679,-0.18 0.344,-0.089 0.34,-0.09 0.344,-0.09 0.695,-0.18 0.352,-0.086 0.351,-0.09 0.703,-0.171 0.36,-0.09 0.355,-0.086 0.359,-0.086 0.36,-0.082 0.363,-0.086 0.367,-0.086 0.364,-0.082 0.367,-0.082 1.113,-0.246 0.375,-0.082 0.379,-0.078 0.375,-0.079 0.383,-0.078 0.379,-0.078 0.383,-0.074 0.386,-0.078 0.774,-0.149 0.39,-0.07 0.395,-0.074 0.39,-0.07 0.399,-0.071 0.398,-0.066 0.399,-0.07 0.402,-0.067 0.402,-0.062 0.403,-0.067 0.41,-0.062 0.406,-0.063 0.41,-0.058 0.414,-0.063 0.414,-0.055 0.418,-0.058 0.836,-0.109 0.422,-0.051 0.426,-0.051 0.426,-0.047 0.859,-0.094 0.43,-0.043 0.433,-0.043 0.876,-0.078 0.441,-0.039 0.441,-0.035 0.891,-0.062 0.898,-0.055 0.907,-0.047 0.914,-0.039 0.461,-0.016 0.929,-0.023 0.938,-0.016 0.469,-0.004 0.949,0 0.48,0.008 0.481,0.004 0.48,0.012 0.485,0.011 0.488,0.016 0.488,0.02 0.492,0.023 0.496,0.024 0.496,0.027 0.497,0.031 0.5,0.035 1.007,0.078 0.508,0.047 0.512,0.047 0.512,0.051 1.031,0.117 0.519,0.063 0.524,0.066 0.523,0.07 0.528,0.071 0.527,0.078 0.531,0.082 0.535,0.086 0.539,0.09 0.54,0.093 0.539,0.102 0.543,0.101 0.546,0.106 1.102,0.226 0.555,0.122 0.554,0.125 0.563,0.128 0.558,0.133 1.133,0.282 0.571,0.148 0.57,0.156 0.574,0.156 0.578,0.161 0.582,0.168 0.582,0.171 0.586,0.18 0.59,0.184 0.59,0.187 0.594,0.192 0.597,0.195 0.598,0.203 0.602,0.211 0.605,0.211 0.609,0.219 0.61,0.222 0.613,0.231 0.617,0.23 0.617,0.239 0.622,0.246 0.625,0.246 0.628,0.254 0.629,0.261 0.633,0.262 0.637,0.27 0.641,0.273 0.64,0.277 0.645,0.282 0.648,0.289 0.652,0.293 0.657,0.293 0.656,0.3 0.66,0.305 0.66,0.309 0.668,0.312 0.668,0.317 0.672,0.316 0.68,0.324 0.676,0.325 1.367,0.656 0.687,0.332 0.692,0.336 0.695,0.336 0.699,0.336 0.699,0.339 0.703,0.336 0.711,0.34 1.422,0.672 0.719,0.336 1.445,0.664 0.727,0.328 0.73,0.324 0.735,0.321 0.738,0.316 0.738,0.309 0.746,0.304 0.747,0.297 0.753,0.289 0.754,0.282 0.758,0.269 0.762,0.262 0.765,0.25 0.766,0.238 0.774,0.227 0.777,0.211 0.777,0.195 0.785,0.18 0.786,0.164 0.789,0.144 0.796,0.129 0.797,0.106 0.801,0.086 0.805,0.066 0.808,0.039 0.813,0.02 0.816,-0.008 0.821,-0.031 0.824,-0.059 0.824,-0.09 0.832,-0.113 0.836,-0.145 0.84,-0.172 0.844,-0.207 0.843,-0.234 0.852,-0.262 0.855,-0.297 0.86,-0.328 0.863,-0.359 0.863,-0.391 0.871,-0.422 0.875,-0.449 0.879,-0.48 0.883,-0.508 0.887,-0.535 0.891,-0.563 0.894,-0.586 0.899,-0.605 0.906,-0.629 0.906,-0.645 0.91,-0.66 0.918,-0.672 0.918,-0.675 0.926,-0.684 0.93,-0.684 0.929,-0.675 0.938,-0.668 0.941,-0.653 0.949,-0.633 0.95,-0.601 0.953,-0.566 0.961,-0.528 0.961,-0.476 0.968,-0.414 0.973,-0.352 0.977,-0.273 0.98,-0.184 0.988,-0.086 0.989,0.02 0.996,0.14 1,0.274 1.004,0.418 1.007,0.566 1.016,0.734 1.016,0.903 1.023,1.078 1.027,1.254 1.036,1.422 1.035,1.578 1.043,1.695 1.047,1.77 1.05,1.761 1.059,1.641 1.059,1.355 1.066,0.848 1.07,0.043 1.078,-1.125 1.082,-2.719 1.086,-4.769 1.09,-7.239 1.098,-10.035 1.101,-12.98 1.106,-15.867 1.113,-18.524 1.113,-20.808 1.125,-22.684 1.125,-24.152 1.133,-25.27 1.137,-26.117 1.141,-26.766 0.574,-13.57" /><path
         id="path84"
         style="fill:#000000;fill-opacity:1;fill-rule:nonzero;stroke:none"
         d="m 116.859,52.066 c 0,2.36 -0.75,3.531 -2.218,3.531 -1.469,0 -2.235,-1.187 -2.235,-3.468 0,-2.297 0.782,-3.469 2.235,-3.469 1.437,0 2.218,1.172 2.218,3.406 z M 116,52.144 c 0,-1.922 -0.438,-2.781 -1.375,-2.781 -0.891,0 -1.344,0.891 -1.344,2.75 0,1.875 0.453,2.734 1.36,2.734 0.906,0 1.359,-0.875 1.359,-2.703 z" /><path
         id="path86"
         style="fill:#000000;fill-opacity:1;fill-rule:nonzero;stroke:none"
         d="m 348.129,48.801 0,6.796 -0.563,0 c -0.296,-1.046 -0.484,-1.187 -1.781,-1.343 l 0,-0.61 1.5,0 0,-4.843 0.844,0 z" /><path
         id="path88"
         style="fill:#000000;fill-opacity:1;fill-rule:nonzero;stroke:none"
         d="m 355.059,51.082 c 0,0.734 -0.063,1.187 -0.204,1.562 -0.328,0.828 -1.093,1.328 -2.031,1.328 -1.406,0 -2.297,-1.031 -2.297,-2.687 0,-1.656 0.86,-2.625 2.282,-2.625 1.14,0 1.937,0.656 2.14,1.672 l -0.797,0 c -0.218,-0.672 -0.672,-0.938 -1.312,-0.938 -0.844,0 -1.469,0.532 -1.485,1.688 l 3.704,0 z m -0.86,0.719 c 0,0 0,-0.047 0,-0.063 l -2.828,0 c 0.078,0.891 0.641,1.5 1.438,1.5 0.796,0 1.39,-0.656 1.39,-1.437 z" /><path
         id="path90"
         style="fill:#000000;fill-opacity:1;fill-rule:nonzero;stroke:none"
         d="m 360.367,52.363 c 0,2.125 -0.75,3.234 -2.297,3.234 -1.297,0 -2.234,-0.921 -2.234,-2.25 0,-1.265 0.875,-2.125 2.094,-2.125 0.64,0 1.109,0.235 1.562,0.766 -0.015,-1.656 -0.547,-2.578 -1.515,-2.578 -0.594,0 -1.016,0.375 -1.141,1.016 l -0.844,0 c 0.156,-1.11 0.891,-1.766 1.922,-1.766 1.594,0 2.453,1.344 2.453,3.703 z m -0.922,1 c 0,-0.828 -0.593,-1.391 -1.422,-1.391 -0.812,0 -1.312,0.532 -1.312,1.438 0,0.875 0.562,1.453 1.344,1.453 0.797,0 1.39,-0.609 1.39,-1.5 z" /><path
         id="path92"
         style="fill:#000000;fill-opacity:1;fill-rule:nonzero;stroke:none"
         d="m 589.707,53.613 c 0,1.141 -0.891,1.984 -2.187,1.984 -1.391,0 -2.188,-0.703 -2.235,-2.359 l 0.844,0 c 0.062,1.141 0.531,1.625 1.375,1.625 0.766,0 1.328,-0.547 1.328,-1.281 0,-0.531 -0.312,-0.985 -0.906,-1.344 l -0.891,-0.5 c -1.422,-0.797 -1.828,-1.437 -1.906,-2.937 l 4.531,0 0,0.828 -3.578,0 c 0.078,0.562 0.391,0.922 1.219,1.406 l 0.969,0.516 c 0.937,0.515 1.437,1.218 1.437,2.062 z" /><path
         id="path94"
         style="fill:#000000;fill-opacity:1;fill-rule:nonzero;stroke:none"
         d="m 595.059,51.082 c 0,0.734 -0.063,1.187 -0.204,1.562 -0.328,0.828 -1.093,1.328 -2.031,1.328 -1.406,0 -2.297,-1.031 -2.297,-2.687 0,-1.656 0.86,-2.625 2.282,-2.625 1.14,0 1.937,0.656 2.14,1.672 l -0.797,0 c -0.218,-0.672 -0.672,-0.938 -1.312,-0.938 -0.844,0 -1.469,0.532 -1.485,1.688 l 3.704,0 z m -0.86,0.719 c 0,0 0,-0.047 0,-0.063 l -2.828,0 c 0.078,0.891 0.641,1.5 1.438,1.5 0.796,0 1.39,-0.656 1.39,-1.437 z" /><path
         id="path96"
         style="fill:#000000;fill-opacity:1;fill-rule:nonzero;stroke:none"
         d="m 600.367,52.363 c 0,2.125 -0.75,3.234 -2.297,3.234 -1.297,0 -2.234,-0.921 -2.234,-2.25 0,-1.265 0.875,-2.125 2.094,-2.125 0.64,0 1.109,0.235 1.562,0.766 -0.015,-1.656 -0.547,-2.578 -1.515,-2.578 -0.594,0 -1.016,0.375 -1.141,1.016 l -0.844,0 c 0.156,-1.11 0.891,-1.766 1.922,-1.766 1.594,0 2.453,1.344 2.453,3.703 z m -0.922,1 c 0,-0.828 -0.593,-1.391 -1.422,-1.391 -0.812,0 -1.312,0.532 -1.312,1.438 0,0.875 0.562,1.453 1.344,1.453 0.797,0 1.39,-0.609 1.39,-1.5 z" /><path
         id="path98"
         style="fill:#000000;fill-opacity:1;fill-rule:nonzero;stroke:none"
         d="m 91.637,61.398 2.281,0 0,-0.703 -2.281,0 0,0.703 z" /><path
         id="path100"
         style="fill:#000000;fill-opacity:1;fill-rule:nonzero;stroke:none"
         d="m 97.727,58.398 0,6.797 -0.563,0 C 96.867,64.148 96.68,64.008 95.383,63.851 l 0,-0.609 1.5,0 0,-4.844 0.844,0 z" /><path
         id="path102"
         style="fill:#000000;fill-opacity:1;fill-rule:nonzero;stroke:none"
         d="m 104.594,61.664 c 0,2.359 -0.75,3.531 -2.219,3.531 -1.469,0 -2.234,-1.187 -2.234,-3.469 0,-2.297 0.781,-3.468 2.234,-3.468 1.437,0 2.219,1.171 2.219,3.406 z m -0.86,0.078 c 0,-1.922 -0.437,-2.781 -1.375,-2.781 -0.89,0 -1.343,0.89 -1.343,2.75 0,1.875 0.453,2.734 1.359,2.734 0.906,0 1.359,-0.875 1.359,-2.703 z" /><path
         id="path104"
         style="fill:#000000;fill-opacity:1;fill-rule:nonzero;stroke:none"
         d="m 98.836,84.597 2.281,0 0,-0.703 -2.281,0 0,0.703 z" /><path
         id="path106"
         style="fill:#000000;fill-opacity:1;fill-rule:nonzero;stroke:none"
         d="m 106.488,85.16 c 0,2.125 -0.75,3.234 -2.297,3.234 -1.296,0 -2.234,-0.922 -2.234,-2.25 0,-1.265 0.875,-2.125 2.094,-2.125 0.64,0 1.109,0.235 1.562,0.766 -0.015,-1.656 -0.547,-2.578 -1.515,-2.578 -0.594,0 -1.016,0.375 -1.141,1.015 l -0.844,0 c 0.157,-1.109 0.891,-1.765 1.922,-1.765 1.594,0 2.453,1.344 2.453,3.703 z m -0.922,1 c 0,-0.828 -0.593,-1.391 -1.421,-1.391 -0.813,0 -1.313,0.532 -1.313,1.438 0,0.875 0.563,1.453 1.344,1.453 0.797,0 1.39,-0.609 1.39,-1.5 z" /><path
         id="path108"
         style="fill:#000000;fill-opacity:1;fill-rule:nonzero;stroke:none"
         d="m 98.836,107.801 2.281,0 0,-0.703 -2.281,0 0,0.703 z" /><path
         id="path110"
         style="fill:#000000;fill-opacity:1;fill-rule:nonzero;stroke:none"
         d="m 106.52,106.722 c 0,0.75 -0.391,1.282 -1.172,1.657 0.703,0.422 0.937,0.765 0.937,1.406 0,1.062 -0.844,1.812 -2.047,1.812 -1.203,0 -2.047,-0.75 -2.047,-1.812 0,-0.625 0.235,-0.969 0.922,-1.406 -0.781,-0.375 -1.156,-0.907 -1.156,-1.657 0,-1.234 0.938,-2.062 2.281,-2.062 1.344,0 2.282,0.828 2.282,2.062 z m -1.11,3.047 c 0,-0.625 -0.469,-1.047 -1.172,-1.047 -0.718,0 -1.187,0.422 -1.187,1.063 0,0.641 0.469,1.062 1.187,1.062 0.719,0 1.172,-0.421 1.172,-1.078 z m 0.25,-3.062 c 0,-0.797 -0.578,-1.297 -1.437,-1.297 -0.828,0 -1.407,0.5 -1.407,1.297 0,0.797 0.579,1.297 1.422,1.297 0.844,0 1.422,-0.5 1.422,-1.297 z" /><path
         id="path112"
         style="fill:#000000;fill-opacity:1;fill-rule:nonzero;stroke:none"
         d="m 98.836,131 2.281,0 0,-0.703 -2.281,0 0,0.703 z" /><path
         id="path114"
         style="fill:#000000;fill-opacity:1;fill-rule:nonzero;stroke:none"
         d="m 106.582,133.953 0,0.703 -4.547,0 0,-0.828 3.672,0 c -1.344,-1.719 -2.312,-3.703 -2.781,-5.828 l 0.89,0 c 0.375,2.203 1.344,4.25 2.766,5.953 z" /><path
         id="path116"
         style="fill:#000000;fill-opacity:1;fill-rule:nonzero;stroke:none"
         d="m 98.836,154.199 2.281,0 0,-0.703 -2.281,0 0,0.703 z" /><path
         id="path118"
         style="fill:#000000;fill-opacity:1;fill-rule:nonzero;stroke:none"
         d="m 106.52,153.308 c 0,1.266 -0.86,2.125 -2.079,2.125 -0.671,0 -1.203,-0.265 -1.562,-0.765 0,1.656 0.547,2.578 1.516,2.578 0.593,0 1,-0.375 1.14,-1.016 l 0.844,0 c -0.172,1.11 -0.891,1.766 -1.938,1.766 -1.578,0 -2.437,-1.328 -2.437,-3.703 0,-2.11 0.734,-3.235 2.297,-3.235 1.281,0 2.219,0.922 2.219,2.25 z m -0.86,-0.062 c 0,-0.859 -0.578,-1.438 -1.359,-1.438 -0.781,0 -1.375,0.61 -1.375,1.485 0,0.844 0.578,1.39 1.406,1.39 0.813,0 1.328,-0.531 1.328,-1.437 z" /><path
         id="path120"
         style="fill:#000000;fill-opacity:1;fill-rule:nonzero;stroke:none"
         d="m 98.836,177.398 2.281,0 0,-0.703 -2.281,0 0,0.703 z" /><path
         id="path122"
         style="fill:#000000;fill-opacity:1;fill-rule:nonzero;stroke:none"
         d="m 106.52,176.648 c 0,1.344 -0.891,2.235 -2.204,2.235 -0.468,0 -0.859,-0.125 -1.25,-0.422 l 0.266,1.765 2.828,0 0,0.828 -3.5,0 -0.515,-3.562 0.781,0 c 0.39,0.469 0.719,0.641 1.25,0.641 0.906,0 1.484,-0.594 1.484,-1.594 0,-0.985 -0.578,-1.531 -1.484,-1.531 -0.75,0 -1.203,0.375 -1.391,1.14 l -0.859,0 c 0.281,-1.359 1.047,-1.89 2.265,-1.89 1.375,0 2.329,0.953 2.329,2.39 z" /><path
         id="path124"
         style="fill:#000000;fill-opacity:1;fill-rule:nonzero;stroke:none"
         d="m 98.836,201.398 2.281,0 0,-0.703 -2.281,0 0,0.703 z" /><path
         id="path126"
         style="fill:#000000;fill-opacity:1;fill-rule:nonzero;stroke:none"
         d="m 106.582,200.023 0,0.766 -1,0 0,4.406 -0.625,0 -3.094,-4.281 0,-0.891 2.875,0 0,-1.625 0.844,0 0,1.625 1,0 z m -1.844,0.766 -2.14,0 2.14,2.969 0,-2.969 z" /><path
         id="path128"
         style="fill:#000000;fill-opacity:1;fill-rule:nonzero;stroke:none"
         d="m 98.836,224.597 2.281,0 0,-0.703 -2.281,0 0,0.703 z" /><path
         id="path130"
         style="fill:#000000;fill-opacity:1;fill-rule:nonzero;stroke:none"
         d="m 106.457,223.566 c 0,0.828 -0.344,1.313 -1.156,1.594 0.64,0.25 0.953,0.687 0.953,1.375 0,1.172 -0.781,1.859 -2.078,1.859 -1.375,0 -2.094,-0.75 -2.125,-2.187 l 0.844,0 c 0.015,1 0.437,1.453 1.296,1.453 0.75,0 1.204,-0.438 1.204,-1.156 0,-0.735 -0.329,-1.032 -1.672,-1.032 l 0,-0.703 0.453,0 c 0.937,0 1.406,-0.453 1.406,-1.203 0,-0.859 -0.516,-1.359 -1.406,-1.359 -0.922,0 -1.375,0.453 -1.422,1.437 l -0.844,0 c 0.094,-1.515 0.844,-2.187 2.235,-2.187 1.406,0 2.312,0.828 2.312,2.109 z" /><path
         id="path132"
         style="fill:#000000;fill-opacity:1;fill-rule:nonzero;stroke:none"
         d="m 98.836,247.801 2.281,0 0,-0.703 -2.281,0 0,0.703 z" /><path
         id="path134"
         style="fill:#000000;fill-opacity:1;fill-rule:nonzero;stroke:none"
         d="m 106.504,249.613 c 0,1.141 -0.891,1.984 -2.188,1.984 -1.39,0 -2.187,-0.703 -2.234,-2.359 l 0.844,0 c 0.062,1.141 0.531,1.625 1.375,1.625 0.765,0 1.328,-0.547 1.328,-1.281 0,-0.531 -0.313,-0.985 -0.906,-1.344 l -0.891,-0.5 c -1.422,-0.797 -1.828,-1.437 -1.906,-2.937 l 4.531,0 0,0.828 -3.578,0 c 0.078,0.562 0.391,0.922 1.219,1.406 l 0.968,0.516 c 0.938,0.515 1.438,1.218 1.438,2.062 z" /><path
         id="path136"
         style="fill:#000000;fill-opacity:1;fill-rule:nonzero;stroke:none"
         d="m 98.836,271 2.281,0 0,-0.703 -2.281,0 0,0.703 z" /><path
         id="path138"
         style="fill:#000000;fill-opacity:1;fill-rule:nonzero;stroke:none"
         d="m 104.926,268 0,6.797 -0.563,0 c -0.297,-1.047 -0.484,-1.188 -1.781,-1.344 l 0,-0.609 1.5,0 0,-4.844 0.844,0 z" /><path
         id="path140"
         style="fill:#000000;fill-opacity:1;fill-rule:nonzero;stroke:none"
         d="m 107.258,294.465 c 0,2.359 -0.75,3.531 -2.219,3.531 -1.469,0 -2.234,-1.188 -2.234,-3.469 0,-2.297 0.781,-3.469 2.234,-3.469 1.438,0 2.219,1.172 2.219,3.407 z m -0.86,0.078 c 0,-1.922 -0.437,-2.781 -1.375,-2.781 -0.89,0 -1.343,0.89 -1.343,2.75 0,1.875 0.453,2.734 1.359,2.734 0.906,0 1.359,-0.875 1.359,-2.703 z" /><path
         id="path142"
         style="fill:#000000;fill-opacity:1;fill-rule:nonzero;stroke:none"
         d="m 105.727,314.398 0,6.797 -0.563,0 c -0.297,-1.047 -0.484,-1.187 -1.781,-1.344 l 0,-0.609 1.5,0 0,-4.844 0.844,0 z" /><path
         id="path144"
         style="fill:#000000;fill-opacity:1;fill-rule:nonzero;stroke:none"
         d="m 316.762,36.601 0,0.797 -4.703,0 0,-7 0.89,0 0,3.188 3.344,0 0,0.781 -3.344,0 0,2.234 3.813,0 z" /><path
         id="path146"
         style="fill:#000000;fill-opacity:1;fill-rule:nonzero;stroke:none"
         d="m 319.809,34.726 0,0.813 c -0.141,0.015 -0.204,0.031 -0.313,0.031 -0.516,0 -0.906,-0.312 -1.359,-1.062 l 0,0.921 -0.735,0 0,-5.031 0.797,0 0,2.61 c 0,1.125 0.375,1.703 1.61,1.718 z" /><path
         id="path148"
         style="fill:#000000;fill-opacity:1;fill-rule:nonzero;stroke:none"
         d="m 324.762,32.679 c 0,0.735 -0.063,1.188 -0.203,1.563 -0.329,0.828 -1.094,1.328 -2.032,1.328 -1.406,0 -2.297,-1.031 -2.297,-2.687 0,-1.657 0.86,-2.625 2.282,-2.625 1.14,0 1.937,0.656 2.14,1.671 l -0.797,0 c -0.218,-0.671 -0.671,-0.937 -1.312,-0.937 -0.844,0 -1.469,0.531 -1.484,1.687 l 3.703,0 z m -0.86,0.719 c 0,0 0,-0.047 0,-0.062 l -2.828,0 c 0.078,0.89 0.641,1.5 1.438,1.5 0.797,0 1.39,-0.657 1.39,-1.438 z m 0.344,4 -1.094,0 -0.922,-1.422 0.579,0 1.437,1.422 z" /><path
         id="path150"
         style="fill:#000000;fill-opacity:1;fill-rule:nonzero;stroke:none"
         d="m 329.926,28.304 0,7.125 -0.719,0 0,-0.671 c -0.359,0.531 -0.937,0.812 -1.594,0.812 -1.328,0 -2.187,-1.047 -2.187,-2.719 0,-1.625 0.828,-2.593 2.14,-2.593 0.704,0 1.188,0.25 1.563,0.796 l 0,-2.75 0.797,0 z m -0.797,4.579 c 0,-1.157 -0.563,-1.875 -1.406,-1.875 -0.875,0 -1.469,0.734 -1.469,1.906 0,1.156 0.594,1.906 1.469,1.906 0.859,0 1.406,-0.766 1.406,-1.937 z" /><path
         id="path152"
         style="fill:#000000;fill-opacity:1;fill-rule:nonzero;stroke:none"
         d="m 335.219,30.398 0,5.031 -0.797,0 0,-2.781 c 0,-1.015 -0.531,-1.687 -1.375,-1.687 -0.625,0 -1.031,0.375 -1.031,0.984 l 0,3.484 -0.797,0 0,-3.796 c 0,-0.844 0.625,-1.375 1.593,-1.375 0.75,0 1.219,0.25 1.688,0.921 l 0,-0.781 0.719,0 z" /><path
         id="path154"
         style="fill:#000000;fill-opacity:1;fill-rule:nonzero;stroke:none"
         d="m 340.852,32.679 c 0,0.735 -0.063,1.188 -0.204,1.563 -0.328,0.828 -1.093,1.328 -2.031,1.328 -1.406,0 -2.297,-1.031 -2.297,-2.687 0,-1.657 0.86,-2.625 2.282,-2.625 1.14,0 1.937,0.656 2.14,1.671 l -0.797,0 c -0.218,-0.671 -0.672,-0.937 -1.312,-0.937 -0.844,0 -1.469,0.531 -1.485,1.687 l 3.704,0 z m -0.86,0.719 c 0,0 0,-0.047 0,-0.062 l -2.828,0 c 0.078,0.89 0.641,1.5 1.438,1.5 0.796,0 1.39,-0.657 1.39,-1.438 z" /><path
         id="path156"
         style="fill:#000000;fill-opacity:1;fill-rule:nonzero;stroke:none"
         d="m 345.938,30.398 0,3.797 c 0,0.844 -0.626,1.375 -1.594,1.375 -0.75,0 -1.219,-0.281 -1.672,-0.984 l 0,0.843 -0.734,0 0,-5.031 0.796,0 0,2.766 c 0,1.031 0.563,1.703 1.375,1.703 0.625,0 1.032,-0.375 1.032,-0.984 l 0,-3.485 0.797,0 z" /><path
         id="path158"
         style="fill:#000000;fill-opacity:1;fill-rule:nonzero;stroke:none"
         d="m 351.184,32.133 -0.813,0 c -0.125,-0.813 -0.547,-1.141 -1.219,-1.141 -0.89,0 -1.422,0.687 -1.422,1.875 0,1.25 0.532,1.969 1.391,1.969 0.672,0 1.094,-0.407 1.203,-1.094 l 0.797,0 c -0.094,1.219 -0.859,1.828 -1.984,1.828 -1.344,0 -2.235,-1.031 -2.235,-2.703 0,-1.625 0.86,-2.609 2.219,-2.609 1.203,0 1.969,0.718 2.063,1.875 z" /><path
         id="path160"
         style="fill:#000000;fill-opacity:1;fill-rule:nonzero;stroke:none"
         d="m 356.328,32.679 c 0,0.735 -0.062,1.188 -0.203,1.563 -0.328,0.828 -1.094,1.328 -2.031,1.328 -1.406,0 -2.297,-1.031 -2.297,-2.687 0,-1.657 0.859,-2.625 2.281,-2.625 1.141,0 1.938,0.656 2.141,1.671 l -0.797,0 c -0.219,-0.671 -0.672,-0.937 -1.313,-0.937 -0.843,0 -1.468,0.531 -1.484,1.687 l 3.703,0 z m -0.859,0.719 c 0,0 0,-0.047 0,-0.062 l -2.828,0 c 0.078,0.89 0.64,1.5 1.437,1.5 0.797,0 1.391,-0.657 1.391,-1.438 z" /><path
         id="path162"
         style="fill:#000000;fill-opacity:1;fill-rule:nonzero;stroke:none"
         d="m 362.207,28.367 c -0.844,1.375 -1.312,2.984 -1.312,4.516 0,1.531 0.468,3.14 1.312,4.515 l -0.531,0 c -0.953,-1.265 -1.563,-3.015 -1.563,-4.515 0,-1.516 0.61,-3.266 1.563,-4.516 l 0.531,0 z" /><path
         id="path164"
         style="fill:#000000;fill-opacity:1;fill-rule:nonzero;stroke:none"
         d="m 368.809,30.398 0,7 -0.891,0 0,-3.031 -3.594,0 0,3.031 -0.89,0 0,-7 0.89,0 0,3.188 3.594,0 0,-3.188 0.891,0 z" /><path
         id="path166"
         style="fill:#000000;fill-opacity:1;fill-rule:nonzero;stroke:none"
         d="m 373.957,30.398 0,0.703 -3.125,0 2.984,3.61 0,0.718 -3.75,0 0,-0.703 2.797,0 -3,-3.609 0,-0.719 4.094,0 z" /><path
         id="path168"
         style="fill:#000000;fill-opacity:1;fill-rule:nonzero;stroke:none"
         d="m 376.82,32.867 c 0,1.516 -0.593,3.266 -1.562,4.531 l -0.531,0 c 0.843,-1.375 1.312,-2.984 1.312,-4.531 0,-1.516 -0.469,-3.141 -1.312,-4.5 l 0.531,0 c 0.969,1.25 1.562,3 1.562,4.5 z" /><path
         id="path170"
         style="fill:#0000ff;fill-opacity:1;fill-rule:nonzero;stroke:none"
         d="m 83.602,155.582 c -0.844,0 -1.344,-0.391 -1.688,-1.281 -0.297,0.625 -0.828,0.968 -1.531,0.968 -1.016,0 -1.781,-0.75 -1.781,-2.078 l 0,-2.828 7,0 0,3.156 c 0,1.25 -0.844,2.063 -2,2.063 z m -3.094,-1.203 c 0.703,0 1.109,-0.422 1.109,-1.407 l 0,-1.718 -2.219,0 0,1.718 c 0,0.985 0.407,1.407 1.11,1.407 z m 3.109,0.297 c 0.672,0 1.203,-0.407 1.203,-1.25 l 0,-2.172 -2.406,0 0,2.172 c 0,0.843 0.516,1.25 1.203,1.25 z" /><path
         id="path172"
         style="fill:#0000ff;fill-opacity:1;fill-rule:nonzero;stroke:none"
         d="m 83.32,160.926 c -0.734,0 -1.187,-0.063 -1.562,-0.204 -0.828,-0.328 -1.328,-1.093 -1.328,-2.031 0,-1.406 1.031,-2.297 2.687,-2.297 1.656,0 2.625,0.86 2.625,2.282 0,1.14 -0.656,1.937 -1.672,2.14 l 0,-0.797 c 0.672,-0.218 0.938,-0.672 0.938,-1.312 0,-0.844 -0.531,-1.469 -1.688,-1.485 l 0,3.704 z m -0.718,-0.86 c 0,0 0.046,0 0.062,0 l 0,-2.828 c -0.891,0.078 -1.5,0.641 -1.5,1.438 0,0.796 0.656,1.39 1.438,1.39 z" /><path
         id="path174"
         style="fill:#0000ff;fill-opacity:1;fill-rule:nonzero;stroke:none"
         d="m 84.195,165.746 c -0.75,0 -1.125,-0.422 -1.359,-1.422 l -0.188,-0.766 c -0.156,-0.656 -0.359,-0.937 -0.718,-0.937 -0.469,0 -0.766,0.422 -0.766,1.062 0,0.657 0.281,1 0.813,1.016 l 0,0.844 c -0.985,-0.016 -1.547,-0.656 -1.547,-1.828 0,-1.172 0.609,-1.922 1.531,-1.922 0.797,0 1.172,0.406 1.453,1.594 l 0.188,0.75 c 0.125,0.546 0.296,0.765 0.656,0.765 0.469,0 0.75,-0.469 0.75,-1.172 0,-0.718 -0.172,-1.109 -0.938,-1.218 l 0,-0.844 c 1.157,0.031 1.672,0.687 1.672,2 0,1.265 -0.578,2.078 -1.547,2.078 z" /><path
         id="path176"
         style="fill:#0000ff;fill-opacity:1;fill-rule:nonzero;stroke:none"
         d="m 84.195,170.547 c -0.75,0 -1.125,-0.422 -1.359,-1.422 l -0.188,-0.766 c -0.156,-0.656 -0.359,-0.937 -0.718,-0.937 -0.469,0 -0.766,0.422 -0.766,1.062 0,0.656 0.281,1 0.813,1.016 l 0,0.844 c -0.985,-0.016 -1.547,-0.657 -1.547,-1.829 0,-1.171 0.609,-1.921 1.531,-1.921 0.797,0 1.172,0.406 1.453,1.593 l 0.188,0.75 c 0.125,0.547 0.296,0.766 0.656,0.766 0.469,0 0.75,-0.469 0.75,-1.172 0,-0.719 -0.172,-1.109 -0.938,-1.219 l 0,-0.843 c 1.157,0.031 1.672,0.687 1.672,2 0,1.265 -0.578,2.078 -1.547,2.078 z" /><path
         id="path178"
         style="fill:#0000ff;fill-opacity:1;fill-rule:nonzero;stroke:none"
         d="m 83.32,175.863 c -0.734,0 -1.187,-0.062 -1.562,-0.203 -0.828,-0.328 -1.328,-1.094 -1.328,-2.031 0,-1.407 1.031,-2.297 2.687,-2.297 1.656,0 2.625,0.859 2.625,2.281 0,1.141 -0.656,1.938 -1.672,2.141 l 0,-0.797 c 0.672,-0.219 0.938,-0.672 0.938,-1.313 0,-0.843 -0.531,-1.468 -1.688,-1.484 l 0,3.703 z m -0.718,-0.859 c 0,0 0.046,0 0.062,0 l 0,-2.828 c -0.891,0.078 -1.5,0.64 -1.5,1.437 0,0.797 0.656,1.391 1.438,1.391 z" /><path
         id="path180"
         style="fill:#0000ff;fill-opacity:1;fill-rule:nonzero;stroke:none"
         d="m 78.602,177.73 7,0 0,-0.797 -7,0 0,0.797 z" /><path
         id="path182"
         style="fill:#0000ff;fill-opacity:1;fill-rule:nonzero;stroke:none"
         d="m 86.82,183.984 0.484,0 0,-5.766 -0.484,0 0,5.766 z" /><path
         id="path184"
         style="fill:#0000ff;fill-opacity:1;fill-rule:nonzero;stroke:none"
         d="m 85.602,188.523 -7,0 0,-0.797 2.609,0 c -0.516,-0.343 -0.781,-0.875 -0.781,-1.547 0,-1.296 1.015,-2.156 2.609,-2.156 1.703,0 2.703,0.828 2.703,2.188 0,0.687 -0.25,1.172 -0.875,1.593 l 0.735,0 0,0.719 z m -2.5,-0.797 c 1.171,0 1.89,-0.562 1.89,-1.406 0,-0.875 -0.734,-1.469 -1.906,-1.469 -1.172,0 -1.906,0.594 -1.906,1.469 0,0.859 0.765,1.406 1.922,1.406 z" /><path
         id="path186"
         style="fill:#0000ff;fill-opacity:1;fill-rule:nonzero;stroke:none"
         d="m 83.602,195.097 c -0.844,0 -1.344,-0.39 -1.688,-1.281 -0.297,0.625 -0.828,0.969 -1.531,0.969 -1.016,0 -1.781,-0.75 -1.781,-2.078 l 0,-2.828 7,0 0,3.156 c 0,1.25 -0.844,2.062 -2,2.062 z m -3.094,-1.203 c 0.703,0 1.109,-0.422 1.109,-1.406 l 0,-1.719 -2.219,0 0,1.719 c 0,0.984 0.407,1.406 1.11,1.406 z m 3.109,0.297 c 0.672,0 1.203,-0.406 1.203,-1.25 l 0,-2.172 -2.406,0 0,2.172 c 0,0.844 0.516,1.25 1.203,1.25 z" /><path
         id="path188"
         style="fill:#0000ff;fill-opacity:1;fill-rule:nonzero;stroke:none"
         d="m 83.68,201.496 c -0.86,0 -1.5,-0.531 -1.75,-1.484 l -0.469,-1.75 c -0.219,-0.844 -0.5,-1.157 -1.047,-1.157 -0.703,0 -1.234,0.625 -1.234,1.563 0,1.109 0.515,1.75 1.422,1.75 l 0,0.844 c -1.375,0 -2.172,-0.954 -2.172,-2.563 0,-1.531 0.843,-2.484 2.109,-2.484 0.859,0 1.391,0.453 1.641,1.375 l 0.453,1.734 c 0.234,0.875 0.594,1.281 1.14,1.281 0.766,0 1.219,-0.578 1.219,-1.781 0,-1.328 -0.672,-1.969 -1.672,-1.969 l 0,-0.859 c 1.657,0 2.453,1.125 2.453,2.766 0,1.781 -0.843,2.734 -2.093,2.734 z" /><path
         id="path190"
         style="fill:#0000ff;fill-opacity:1;fill-rule:nonzero;stroke:none"
         d="m 80.789,206.855 c -1.141,0 -1.984,-0.89 -1.984,-2.187 0,-1.391 0.703,-2.188 2.359,-2.235 l 0,0.844 c -1.141,0.063 -1.625,0.531 -1.625,1.375 0,0.766 0.547,1.328 1.281,1.328 0.532,0 0.985,-0.312 1.344,-0.906 l 0.5,-0.891 c 0.797,-1.421 1.438,-1.828 2.938,-1.906 l 0,4.531 -0.829,0 0,-3.578 c -0.562,0.078 -0.921,0.391 -1.406,1.219 l -0.515,0.969 c -0.516,0.937 -1.219,1.437 -2.063,1.437 z" /><path
         id="path192"
         style="fill:#0000ff;fill-opacity:1;fill-rule:nonzero;stroke:none"
         d="m 85.602,210.613 -6.797,0 0,-0.562 c 1.047,-0.297 1.187,-0.485 1.343,-1.782 l 0.61,0 0,1.5 4.844,0 0,0.844 z" /><path
         id="path194"
         style="fill:#ff0000;fill-opacity:1;fill-rule:nonzero;stroke:none"
         d="m 65.199,141.984 c -0.844,0 -1.344,-0.39 -1.687,-1.281 -0.297,0.625 -0.828,0.969 -1.532,0.969 -1.015,0 -1.781,-0.75 -1.781,-2.078 l 0,-2.829 7,0 0,3.157 c 0,1.25 -0.844,2.062 -2,2.062 z m -3.094,-1.203 c 0.704,0 1.11,-0.422 1.11,-1.406 l 0,-1.719 -2.219,0 0,1.719 c 0,0.984 0.406,1.406 1.109,1.406 z m 3.11,0.297 c 0.672,0 1.203,-0.406 1.203,-1.25 l 0,-2.172 -2.406,0 0,2.172 c 0,0.844 0.515,1.25 1.203,1.25 z" /><path
         id="path196"
         style="fill:#ff0000;fill-opacity:1;fill-rule:nonzero;stroke:none"
         d="m 67.199,147.027 -5.031,0 0,-0.797 2.781,0 c 1.016,0 1.688,-0.531 1.688,-1.375 0,-0.625 -0.375,-1.031 -0.985,-1.031 l -3.484,0 0,-0.797 3.797,0 c 0.844,0 1.375,0.625 1.375,1.594 0,0.75 -0.25,1.219 -0.922,1.687 l 0.781,0 0,0.719 z" /><path
         id="path198"
         style="fill:#ff0000;fill-opacity:1;fill-rule:nonzero;stroke:none"
         d="m 67.199,150.176 -0.672,0 c 0.032,-0.11 0.032,-0.235 0.032,-0.391 0,-0.344 -0.094,-0.438 -0.438,-0.438 l -3.297,0 0,0.829 -0.656,0 0,-0.829 -1.375,0 0,-0.796 1.375,0 0,-0.672 0.656,0 0,0.672 3.641,0 c 0.515,0 0.797,0.343 0.797,0.968 0,0.188 -0.016,0.391 -0.063,0.657 z" /><path
         id="path200"
         style="fill:#ff0000;fill-opacity:1;fill-rule:nonzero;stroke:none"
         d="m 67.199,152.847 -0.672,0 c 0.032,-0.109 0.032,-0.234 0.032,-0.39 0,-0.344 -0.094,-0.438 -0.438,-0.438 l -3.297,0 0,0.828 -0.656,0 0,-0.828 -1.375,0 0,-0.797 1.375,0 0,-0.671 0.656,0 0,0.671 3.641,0 c 0.515,0 0.797,0.344 0.797,0.969 0,0.188 -0.016,0.391 -0.063,0.656 z" /><path
         id="path202"
         style="fill:#ff0000;fill-opacity:1;fill-rule:nonzero;stroke:none"
         d="m 64.918,157.855 c -0.734,0 -1.188,-0.062 -1.563,-0.203 -0.828,-0.328 -1.328,-1.094 -1.328,-2.031 0,-1.406 1.032,-2.297 2.688,-2.297 1.656,0 2.625,0.859 2.625,2.281 0,1.141 -0.656,1.938 -1.672,2.141 l 0,-0.797 c 0.672,-0.219 0.937,-0.672 0.937,-1.312 0,-0.844 -0.531,-1.469 -1.687,-1.485 l 0,3.703 z m -0.719,-0.859 c 0,0 0.047,0 0.063,0 l 0,-2.828 c -0.891,0.078 -1.5,0.64 -1.5,1.437 0,0.797 0.656,1.391 1.437,1.391 z" /><path
         id="path204"
         style="fill:#ff0000;fill-opacity:1;fill-rule:nonzero;stroke:none"
         d="m 62.871,161.347 -0.812,0 c -0.016,-0.14 -0.032,-0.203 -0.032,-0.312 0,-0.516 0.313,-0.906 1.063,-1.359 l -0.922,0 0,-0.735 5.031,0 0,0.797 -2.609,0 c -1.125,0 -1.703,0.375 -1.719,1.609 z" /><path
         id="path206"
         style="fill:#ff0000;fill-opacity:1;fill-rule:nonzero;stroke:none"
         d="m 62.168,168.562 0,-0.906 3.922,-1 -3.922,-0.984 0,-0.985 3.922,-0.953 -3.922,-1.031 0,-0.875 5.031,1.453 0,0.906 -3.937,0.969 3.937,1.016 0,0.906 -5.031,1.484 z" /><path
         id="path208"
         style="fill:#ff0000;fill-opacity:1;fill-rule:nonzero;stroke:none"
         d="m 64.73,173.5 c -1.75,0 -2.703,-0.828 -2.703,-2.281 0,-1.407 0.969,-2.266 2.657,-2.266 1.687,0 2.656,0.844 2.656,2.281 0,1.406 -0.969,2.266 -2.61,2.266 z m -0.015,-0.828 c 1.172,0 1.89,-0.563 1.89,-1.438 0,-0.89 -0.703,-1.437 -1.921,-1.437 -1.204,0 -1.922,0.547 -1.922,1.437 0,0.891 0.703,1.438 1.953,1.438 z" /><path
         id="path210"
         style="fill:#ff0000;fill-opacity:1;fill-rule:nonzero;stroke:none"
         d="m 62.871,177.027 -0.812,0 c -0.016,-0.14 -0.032,-0.203 -0.032,-0.312 0,-0.516 0.313,-0.907 1.063,-1.36 l -0.922,0 0,-0.734 5.031,0 0,0.797 -2.609,0 c -1.125,0 -1.703,0.375 -1.719,1.609 z" /><path
         id="path212"
         style="fill:#ff0000;fill-opacity:1;fill-rule:nonzero;stroke:none"
         d="m 67.199,179.879 -0.672,0 c 0.032,-0.11 0.032,-0.235 0.032,-0.391 0,-0.344 -0.094,-0.437 -0.438,-0.437 l -3.297,0 0,0.828 -0.656,0 0,-0.828 -1.375,0 0,-0.797 1.375,0 0,-0.672 0.656,0 0,0.672 3.641,0 c 0.515,0 0.797,0.343 0.797,0.968 0,0.188 -0.016,0.391 -0.063,0.657 z" /><path
         id="path214"
         style="fill:#ff0000;fill-opacity:1;fill-rule:nonzero;stroke:none"
         d="m 67.199,184.699 -3.797,0 c -0.843,0 -1.375,-0.594 -1.375,-1.578 0,-0.703 0.219,-1.141 0.828,-1.609 l -2.656,0 0,-0.797 7,0 0,0.797 -2.765,0 c -1.032,0 -1.704,0.531 -1.704,1.359 0,0.562 0.329,1.031 0.985,1.031 l 3.484,0 0,0.797 z" /><path
         id="path216"
         style="fill:#ff0000;fill-opacity:1;fill-rule:nonzero;stroke:none"
         d="m 68.418,190.929 0.484,0 0,-5.766 -0.484,0 0,5.766 z" /><path
         id="path218"
         style="fill:#ff0000;fill-opacity:1;fill-rule:nonzero;stroke:none"
         d="m 67.199,195.469 -7,0 0,-0.797 2.61,0 c -0.516,-0.344 -0.782,-0.875 -0.782,-1.547 0,-1.297 1.016,-2.156 2.61,-2.156 1.703,0 2.703,0.828 2.703,2.187 0,0.688 -0.25,1.172 -0.875,1.594 l 0.734,0 0,0.719 z m -2.5,-0.797 c 1.172,0 1.891,-0.563 1.891,-1.407 0,-0.875 -0.735,-1.468 -1.906,-1.468 -1.172,0 -1.907,0.593 -1.907,1.468 0,0.86 0.766,1.407 1.922,1.407 z" /><path
         id="path220"
         style="fill:#ff0000;fill-opacity:1;fill-rule:nonzero;stroke:none"
         d="m 65.199,202.043 c -0.844,0 -1.344,-0.391 -1.687,-1.281 -0.297,0.625 -0.828,0.968 -1.532,0.968 -1.015,0 -1.781,-0.75 -1.781,-2.078 l 0,-2.828 7,0 0,3.156 c 0,1.25 -0.844,2.063 -2,2.063 z m -3.094,-1.203 c 0.704,0 1.11,-0.422 1.11,-1.407 l 0,-1.718 -2.219,0 0,1.718 c 0,0.985 0.406,1.407 1.109,1.407 z m 3.11,0.297 c 0.672,0 1.203,-0.407 1.203,-1.25 l 0,-2.172 -2.406,0 0,2.172 c 0,0.843 0.515,1.25 1.203,1.25 z" /><path
         id="path222"
         style="fill:#ff0000;fill-opacity:1;fill-rule:nonzero;stroke:none"
         d="m 65.277,208.441 c -0.859,0 -1.5,-0.531 -1.75,-1.484 l -0.468,-1.75 c -0.219,-0.844 -0.5,-1.156 -1.047,-1.156 -0.703,0 -1.235,0.625 -1.235,1.562 0,1.109 0.516,1.75 1.422,1.75 l 0,0.844 c -1.375,0 -2.172,-0.953 -2.172,-2.563 0,-1.531 0.844,-2.484 2.11,-2.484 0.859,0 1.39,0.453 1.64,1.375 l 0.453,1.734 c 0.235,0.875 0.594,1.282 1.141,1.282 0.766,0 1.219,-0.579 1.219,-1.782 0,-1.328 -0.672,-1.968 -1.672,-1.968 l 0,-0.86 c 1.656,0 2.453,1.125 2.453,2.766 0,1.781 -0.844,2.734 -2.094,2.734 z" /><path
         id="path224"
         style="fill:#ff0000;fill-opacity:1;fill-rule:nonzero;stroke:none"
         d="m 62.387,213.797 c -1.141,0 -1.985,-0.891 -1.985,-2.188 0,-1.39 0.703,-2.187 2.36,-2.234 l 0,0.844 c -1.141,0.062 -1.625,0.531 -1.625,1.375 0,0.765 0.547,1.328 1.281,1.328 0.531,0 0.984,-0.313 1.344,-0.907 l 0.5,-0.89 c 0.797,-1.422 1.437,-1.828 2.937,-1.906 l 0,4.531 -0.828,0 0,-3.578 c -0.562,0.078 -0.922,0.39 -1.406,1.218 l -0.516,0.969 c -0.515,0.938 -1.219,1.438 -2.062,1.438 z" /><path
         id="path226"
         style="fill:#ff0000;fill-opacity:1;fill-rule:nonzero;stroke:none"
         d="m 67.199,217.558 -6.797,0 0,-0.562 c 1.047,-0.297 1.188,-0.484 1.344,-1.781 l 0.609,0 0,1.5 4.844,0 0,0.843 z" /><path
         id="path228"
         style="fill:#ff00ff;fill-opacity:1;fill-rule:nonzero;stroke:none"
         d="m 42.598,140.086 -0.797,0 0,-5.485 0.797,0 0,2.297 6.203,0 0,0.891 -6.203,0 0,2.297 z" /><path
         id="path230"
         style="fill:#ff00ff;fill-opacity:1;fill-rule:nonzero;stroke:none"
         d="m 47.066,143.988 0,-0.812 c 0.813,-0.125 1.141,-0.547 1.141,-1.219 0,-0.891 -0.687,-1.422 -1.875,-1.422 -1.25,0 -1.969,0.531 -1.969,1.391 0,0.671 0.407,1.093 1.094,1.203 l 0,0.797 c -1.219,-0.094 -1.828,-0.86 -1.828,-1.985 0,-1.344 1.031,-2.234 2.703,-2.234 1.625,0 2.609,0.859 2.609,2.219 0,1.203 -0.718,1.968 -1.875,2.062 z" /><path
         id="path232"
         style="fill:#ff00ff;fill-opacity:1;fill-rule:nonzero;stroke:none"
         d="m 48.801,148.867 -3.797,0 c -0.844,0 -1.375,-0.594 -1.375,-1.578 0,-0.703 0.219,-1.141 0.828,-1.61 l -2.656,0 0,-0.796 7,0 0,0.796 -2.766,0 c -1.031,0 -1.703,0.532 -1.703,1.36 0,0.562 0.328,1.031 0.984,1.031 l 3.485,0 0,0.797 z" /><path
         id="path234"
         style="fill:#ff00ff;fill-opacity:1;fill-rule:nonzero;stroke:none"
         d="m 46.52,154.469 c -0.735,0 -1.188,-0.063 -1.563,-0.204 -0.828,-0.328 -1.328,-1.093 -1.328,-2.031 0,-1.406 1.031,-2.297 2.687,-2.297 1.657,0 2.625,0.86 2.625,2.282 0,1.14 -0.656,1.937 -1.671,2.14 l 0,-0.797 c 0.671,-0.218 0.937,-0.672 0.937,-1.312 0,-0.844 -0.531,-1.469 -1.687,-1.485 l 0,3.704 z m -0.719,-0.86 c 0,0 0.047,0 0.062,0 l 0,-2.828 c -0.89,0.078 -1.5,0.641 -1.5,1.438 0,0.796 0.657,1.39 1.438,1.39 z" /><path
         id="path236"
         style="fill:#ff00ff;fill-opacity:1;fill-rule:nonzero;stroke:none"
         d="m 46.223,159.902 c -1.625,0 -2.594,-0.828 -2.594,-2.14 0,-0.704 0.266,-1.188 0.828,-1.563 l -2.656,0 0,-0.797 7,0 0,0.719 -0.719,0 c 0.578,0.391 0.859,0.891 0.859,1.594 0,1.328 -1.078,2.187 -2.718,2.187 z m 0.062,-0.828 c 1.141,0 1.906,-0.594 1.906,-1.469 0,-0.843 -0.765,-1.406 -1.906,-1.406 -1.172,0 -1.953,0.563 -1.906,1.406 0,0.891 0.781,1.469 1.906,1.469 z" /><path
         id="path238"
         style="fill:#ff00ff;fill-opacity:1;fill-rule:nonzero;stroke:none"
         d="m 43.77,164.668 0,-0.86 3.921,-1.39 -3.921,-1.281 0,-0.86 5.046,1.703 0.797,-0.312 c 0.36,-0.125 0.5,-0.297 0.5,-0.641 0,-0.109 -0.031,-0.25 -0.062,-0.422 l 0.719,0 c 0.078,0.172 0.125,0.328 0.125,0.547 0,0.563 -0.313,1.016 -1.032,1.281 l -6.093,2.235 z" /><path
         id="path240"
         style="fill:#ff00ff;fill-opacity:1;fill-rule:nonzero;stroke:none"
         d="m 47.066,169.273 0,-0.812 c 0.813,-0.125 1.141,-0.547 1.141,-1.219 0,-0.891 -0.687,-1.422 -1.875,-1.422 -1.25,0 -1.969,0.531 -1.969,1.391 0,0.672 0.407,1.093 1.094,1.203 l 0,0.797 c -1.219,-0.094 -1.828,-0.86 -1.828,-1.985 0,-1.343 1.031,-2.234 2.703,-2.234 1.625,0 2.609,0.859 2.609,2.219 0,1.203 -0.718,1.968 -1.875,2.062 z" /><path
         id="path242"
         style="fill:#ff00ff;fill-opacity:1;fill-rule:nonzero;stroke:none"
         d="m 48.801,174.152 -3.797,0 c -0.844,0 -1.375,-0.594 -1.375,-1.578 0,-0.703 0.219,-1.141 0.828,-1.609 l -2.656,0 0,-0.797 7,0 0,0.797 -2.766,0 c -1.031,0 -1.703,0.531 -1.703,1.359 0,0.563 0.328,1.031 0.984,1.031 l 3.485,0 0,0.797 z" /><path
         id="path244"
         style="fill:#ff00ff;fill-opacity:1;fill-rule:nonzero;stroke:none"
         d="m 46.52,179.758 c -0.735,0 -1.188,-0.063 -1.563,-0.204 -0.828,-0.328 -1.328,-1.093 -1.328,-2.031 0,-1.406 1.031,-2.297 2.687,-2.297 1.657,0 2.625,0.86 2.625,2.282 0,1.14 -0.656,1.937 -1.671,2.14 l 0,-0.797 c 0.671,-0.218 0.937,-0.672 0.937,-1.312 0,-0.844 -0.531,-1.469 -1.687,-1.485 l 0,3.704 z m -0.719,-0.86 c 0,0 0.047,0 0.062,0 l 0,-2.828 c -0.89,0.078 -1.5,0.641 -1.5,1.438 0,0.796 0.657,1.39 1.438,1.39 z" /><path
         id="path246"
         style="fill:#ff00ff;fill-opacity:1;fill-rule:nonzero;stroke:none"
         d="m 43.77,184.695 0,-0.891 4.078,-1.421 -4.078,-1.344 0,-0.906 5.031,1.765 0,0.875 -5.031,1.922 z" /><path
         id="path248"
         style="fill:#ff00ff;fill-opacity:1;fill-rule:nonzero;stroke:none"
         d="m 50.02,190.383 0.484,0 0,-5.766 -0.484,0 0,5.766 z" /><path
         id="path250"
         style="fill:#ff00ff;fill-opacity:1;fill-rule:nonzero;stroke:none"
         d="m 48.801,194.926 -7,0 0,-0.797 2.609,0 c -0.515,-0.344 -0.781,-0.875 -0.781,-1.547 0,-1.297 1.016,-2.156 2.609,-2.156 1.703,0 2.703,0.828 2.703,2.187 0,0.688 -0.25,1.172 -0.875,1.594 l 0.735,0 0,0.719 z m -2.5,-0.797 c 1.172,0 1.89,-0.563 1.89,-1.407 0,-0.875 -0.734,-1.468 -1.906,-1.468 -1.172,0 -1.906,0.593 -1.906,1.468 0,0.86 0.766,1.407 1.922,1.407 z" /><path
         id="path252"
         style="fill:#ff00ff;fill-opacity:1;fill-rule:nonzero;stroke:none"
         d="m 46.801,201.496 c -0.844,0 -1.344,-0.391 -1.688,-1.281 -0.297,0.625 -0.828,0.968 -1.531,0.968 -1.016,0 -1.781,-0.75 -1.781,-2.078 l 0,-2.828 7,0 0,3.156 c 0,1.25 -0.844,2.063 -2,2.063 z m -3.094,-1.203 c 0.703,0 1.109,-0.422 1.109,-1.406 l 0,-1.719 -2.218,0 0,1.719 c 0,0.984 0.406,1.406 1.109,1.406 z m 3.109,0.297 c 0.672,0 1.204,-0.407 1.204,-1.25 l 0,-2.172 -2.407,0 0,2.172 c 0,0.843 0.516,1.25 1.203,1.25 z" /><path
         id="path254"
         style="fill:#ff00ff;fill-opacity:1;fill-rule:nonzero;stroke:none"
         d="m 46.879,207.898 c -0.859,0 -1.5,-0.531 -1.75,-1.484 l -0.469,-1.75 c -0.219,-0.844 -0.5,-1.156 -1.047,-1.156 -0.703,0 -1.234,0.625 -1.234,1.562 0,1.109 0.516,1.75 1.422,1.75 l 0,0.844 c -1.375,0 -2.172,-0.953 -2.172,-2.563 0,-1.531 0.844,-2.484 2.109,-2.484 0.86,0 1.391,0.453 1.641,1.375 l 0.453,1.734 c 0.234,0.875 0.594,1.282 1.141,1.282 0.765,0 1.218,-0.579 1.218,-1.782 0,-1.328 -0.671,-1.968 -1.671,-1.968 l 0,-0.86 c 1.656,0 2.453,1.125 2.453,2.766 0,1.781 -0.844,2.734 -2.094,2.734 z" /><path
         id="path256"
         style="fill:#ff00ff;fill-opacity:1;fill-rule:nonzero;stroke:none"
         d="m 43.988,213.254 c -1.14,0 -1.984,-0.891 -1.984,-2.188 0,-1.39 0.703,-2.187 2.359,-2.234 l 0,0.844 c -1.14,0.062 -1.625,0.531 -1.625,1.375 0,0.765 0.547,1.328 1.282,1.328 0.531,0 0.984,-0.313 1.343,-0.907 l 0.5,-0.89 c 0.797,-1.422 1.438,-1.828 2.938,-1.906 l 0,4.531 -0.828,0 0,-3.578 c -0.563,0.078 -0.922,0.39 -1.407,1.218 l -0.515,0.969 c -0.516,0.938 -1.219,1.438 -2.063,1.438 z" /><path
         id="path258"
         style="fill:#ff00ff;fill-opacity:1;fill-rule:nonzero;stroke:none"
         d="m 48.801,217.012 -6.797,0 0,-0.563 c 1.047,-0.297 1.187,-0.484 1.344,-1.781 l 0.609,0 0,1.5 4.844,0 0,0.844 z" /><path
         id="path260"
         style="fill:#00ff00;fill-opacity:1;fill-rule:nonzero;stroke:none"
         d="m 27.852,157.699 0,-0.922 c 1.312,-0.219 1.937,-0.765 1.937,-1.953 0,-1.391 -1.062,-2.266 -2.812,-2.266 -1.797,0 -2.954,0.844 -2.954,2.188 0,1.094 0.485,1.672 1.547,1.891 l 0,0.906 c -1.531,-0.266 -2.343,-1.156 -2.343,-2.688 0,-2.125 1.718,-3.203 3.75,-3.203 2.046,0 3.593,1.11 3.593,3.156 0,1.719 -0.906,2.672 -2.718,2.891 z" /><path
         id="path262"
         style="fill:#00ff00;fill-opacity:1;fill-rule:nonzero;stroke:none"
         d="m 30.383,163.254 -0.61,0 c 0.016,-0.078 0.016,-0.11 0.016,-0.172 0,-0.266 -0.141,-0.422 -0.391,-0.422 l -2.796,0 c -0.891,0 -1.375,-0.656 -1.375,-1.891 0,-1.218 0.468,-1.968 1.625,-2.015 l 0,0.797 c -0.61,0.078 -0.891,0.437 -0.891,1.187 0,0.719 0.281,1.125 0.75,1.125 l 0.219,0 c 0.328,0 0.468,-0.203 0.547,-0.844 0.156,-1.125 0.187,-1.297 0.312,-1.609 0.234,-0.578 0.688,-0.875 1.297,-0.875 0.922,0 1.453,0.625 1.453,1.641 0,0.656 -0.266,1.265 -0.734,1.718 0.375,0.078 0.656,0.422 0.656,0.813 0,0.172 -0.016,0.297 -0.078,0.547 z m -1.719,-1.391 c 0.719,0 1.172,-0.734 1.172,-1.516 0,-0.609 -0.219,-0.984 -0.766,-0.984 -0.531,0 -0.75,0.359 -0.875,1.219 -0.125,0.844 -0.156,1.015 -0.281,1.281 l 0.75,0 z" /><path
         id="path264"
         style="fill:#00ff00;fill-opacity:1;fill-rule:nonzero;stroke:none"
         d="m 30.398,168.094 -5.031,0 0,-0.797 2.781,0 c 1.016,0 1.688,-0.532 1.688,-1.375 0,-0.625 -0.375,-1.032 -0.984,-1.032 l -3.485,0 0,-0.796 3.797,0 c 0.844,0 1.375,0.625 1.375,1.593 0,0.75 -0.25,1.219 -0.922,1.688 l 0.781,0 0,0.719 z" /><path
         id="path266"
         style="fill:#00ff00;fill-opacity:1;fill-rule:nonzero;stroke:none"
         d="m 28.117,173.726 c -0.734,0 -1.187,-0.062 -1.562,-0.203 -0.828,-0.328 -1.328,-1.094 -1.328,-2.031 0,-1.406 1.031,-2.297 2.687,-2.297 1.656,0 2.625,0.859 2.625,2.281 0,1.141 -0.656,1.938 -1.672,2.141 l 0,-0.797 c 0.672,-0.219 0.938,-0.672 0.938,-1.312 0,-0.844 -0.532,-1.469 -1.688,-1.485 l 0,3.703 z m -0.719,-0.859 c 0,0 0.047,0 0.063,0 l 0,-2.828 c -0.891,0.078 -1.5,0.64 -1.5,1.437 0,0.797 0.656,1.391 1.437,1.391 z" /><path
         id="path268"
         style="fill:#00ff00;fill-opacity:1;fill-rule:nonzero;stroke:none"
         d="m 26.07,177.25 -0.812,0 c -0.016,-0.141 -0.031,-0.203 -0.031,-0.313 0,-0.515 0.312,-0.906 1.062,-1.359 l -0.922,0 0,-0.734 5.031,0 0,0.796 -2.609,0 c -1.125,0 -1.703,0.375 -1.719,1.61 z" /><path
         id="path270"
         style="fill:#00ff00;fill-opacity:1;fill-rule:nonzero;stroke:none"
         d="m 31.617,182.914 0.484,0 0,-5.766 -0.484,0 0,5.766 z" /><path
         id="path272"
         style="fill:#00ff00;fill-opacity:1;fill-rule:nonzero;stroke:none"
         d="m 30.398,187.457 -7,0 0,-0.797 2.61,0 c -0.516,-0.344 -0.781,-0.875 -0.781,-1.547 0,-1.297 1.015,-2.156 2.609,-2.156 1.703,0 2.703,0.828 2.703,2.187 0,0.688 -0.25,1.172 -0.875,1.594 l 0.734,0 0,0.719 z m -2.5,-0.797 c 1.172,0 1.891,-0.563 1.891,-1.406 0,-0.875 -0.734,-1.469 -1.906,-1.469 -1.172,0 -1.906,0.594 -1.906,1.469 0,0.859 0.765,1.406 1.921,1.406 z" /><path
         id="path274"
         style="fill:#00ff00;fill-opacity:1;fill-rule:nonzero;stroke:none"
         d="m 28.398,194.027 c -0.843,0 -1.343,-0.39 -1.687,-1.281 -0.297,0.625 -0.828,0.969 -1.531,0.969 -1.016,0 -1.782,-0.75 -1.782,-2.078 l 0,-2.829 7,0 0,3.157 c 0,1.25 -0.843,2.062 -2,2.062 z m -3.093,-1.203 c 0.703,0 1.109,-0.422 1.109,-1.406 l 0,-1.719 -2.219,0 0,1.719 c 0,0.984 0.407,1.406 1.11,1.406 z m 3.109,0.297 c 0.672,0 1.203,-0.406 1.203,-1.25 l 0,-2.172 -2.406,0 0,2.172 c 0,0.844 0.516,1.25 1.203,1.25 z" /><path
         id="path276"
         style="fill:#00ff00;fill-opacity:1;fill-rule:nonzero;stroke:none"
         d="m 28.477,200.429 c -0.86,0 -1.5,-0.531 -1.75,-1.484 l -0.469,-1.75 c -0.219,-0.844 -0.5,-1.156 -1.047,-1.156 -0.703,0 -1.234,0.625 -1.234,1.562 0,1.11 0.515,1.75 1.421,1.75 l 0,0.844 c -1.375,0 -2.171,-0.953 -2.171,-2.562 0,-1.532 0.843,-2.485 2.109,-2.485 0.859,0 1.391,0.453 1.641,1.375 l 0.453,1.735 c 0.234,0.875 0.593,1.281 1.14,1.281 0.766,0 1.219,-0.578 1.219,-1.781 0,-1.329 -0.672,-1.969 -1.672,-1.969 l 0,-0.86 c 1.656,0 2.453,1.125 2.453,2.766 0,1.781 -0.843,2.734 -2.093,2.734 z" /><path
         id="path278"
         style="fill:#00ff00;fill-opacity:1;fill-rule:nonzero;stroke:none"
         d="m 25.586,205.785 c -1.141,0 -1.984,-0.891 -1.984,-2.188 0,-1.39 0.703,-2.187 2.359,-2.234 l 0,0.844 c -1.141,0.062 -1.625,0.531 -1.625,1.375 0,0.765 0.547,1.328 1.281,1.328 0.531,0 0.985,-0.313 1.344,-0.906 l 0.5,-0.891 c 0.797,-1.422 1.437,-1.828 2.937,-1.906 l 0,4.531 -0.828,0 0,-3.578 c -0.562,0.078 -0.922,0.391 -1.406,1.219 l -0.516,0.968 c -0.515,0.938 -1.218,1.438 -2.062,1.438 z" /><path
         id="path280"
         style="fill:#00ff00;fill-opacity:1;fill-rule:nonzero;stroke:none"
         d="m 30.398,209.543 -6.796,0 0,-0.563 c 1.046,-0.297 1.187,-0.484 1.343,-1.781 l 0.61,0 0,1.5 4.843,0 0,0.844 z" /></g></g></svg>