<?xml version="1.0" encoding="UTF-8" standalone="no"?>
<svg
   xmlns:dc="http://purl.org/dc/elements/1.1/"
   xmlns:cc="http://creativecommons.org/ns#"
   xmlns:rdf="http://www.w3.org/1999/02/22-rdf-syntax-ns#"
   xmlns:svg="http://www.w3.org/2000/svg"
   xmlns="http://www.w3.org/2000/svg"
   viewBox="0 0 847.0025 413.99875"
   height="413.99875"
   width="847.0025"
   xml:space="preserve"
   version="1.1"
   id="svg2"><metadata
     id="metadata8"><rdf:RDF><cc:Work
         rdf:about=""><dc:format>image/svg+xml</dc:format><dc:type
           rdf:resource="http://purl.org/dc/dcmitype/StillImage" /></cc:Work></rdf:RDF></metadata><defs
     id="defs6" /><g
     transform="matrix(1.25,0,0,-1.25,0,413.99876)"
     id="g10"><g
       id="g12"><path
         id="path14"
         style="fill:#ffffff;fill-opacity:1;fill-rule:evenodd;stroke:none"
         d="m 0,331.199 677.602,0 L 677.602,0 0,0 0,331.199 Z" /><path
         id="path16"
         style="fill:none;stroke:#c0c0c0;stroke-width:0.80000001;stroke-linecap:square;stroke-linejoin:bevel;stroke-miterlimit:4;stroke-dasharray:0.8, 1.6;stroke-dashoffset:0;stroke-opacity:1"
         d="m 108,276.801 480,0" /><path
         id="path18"
         style="fill:none;stroke:#c0c0c0;stroke-width:0.80000001;stroke-linecap:square;stroke-linejoin:bevel;stroke-miterlimit:4;stroke-dasharray:0.8, 1.6;stroke-dashoffset:0;stroke-opacity:1"
         d="m 108,233.597 480,0" /><path
         id="path20"
         style="fill:none;stroke:#c0c0c0;stroke-width:0.80000001;stroke-linecap:square;stroke-linejoin:bevel;stroke-miterlimit:4;stroke-dasharray:0.8, 1.6;stroke-dashoffset:0;stroke-opacity:1"
         d="m 108,191.199 480,0" /><path
         id="path22"
         style="fill:none;stroke:#c0c0c0;stroke-width:0.80000001;stroke-linecap:square;stroke-linejoin:bevel;stroke-miterlimit:4;stroke-dasharray:0.8, 1.6;stroke-dashoffset:0;stroke-opacity:1"
         d="m 108,148.801 480,0" /><path
         id="path24"
         style="fill:none;stroke:#c0c0c0;stroke-width:0.80000001;stroke-linecap:square;stroke-linejoin:bevel;stroke-miterlimit:4;stroke-dasharray:0.8, 1.6;stroke-dashoffset:0;stroke-opacity:1"
         d="m 108,105.597 480,0" /><path
         id="path26"
         style="fill:none;stroke:#c0c0c0;stroke-width:0.80000001;stroke-linecap:square;stroke-linejoin:bevel;stroke-miterlimit:4;stroke-dasharray:0.8, 1.6;stroke-dashoffset:0;stroke-opacity:1"
         d="m 348,319.199 0,-256" /><path
         id="path28"
         style="fill:none;stroke:#000000;stroke-width:0.80000001;stroke-linecap:square;stroke-linejoin:bevel;stroke-miterlimit:4;stroke-dasharray:none;stroke-opacity:1"
         d="m 108,67.199 0,-8" /><path
         id="path30"
         style="fill:none;stroke:#000000;stroke-width:0.80000001;stroke-linecap:square;stroke-linejoin:bevel;stroke-miterlimit:4;stroke-dasharray:none;stroke-opacity:1"
         d="m 348,67.199 0,-8" /><path
         id="path32"
         style="fill:none;stroke:#000000;stroke-width:0.80000001;stroke-linecap:square;stroke-linejoin:bevel;stroke-miterlimit:4;stroke-dasharray:none;stroke-opacity:1"
         d="m 588,67.199 0,-8" /><path
         id="path34"
         style="fill:none;stroke:#000000;stroke-width:0.80000001;stroke-linecap:square;stroke-linejoin:bevel;stroke-miterlimit:4;stroke-dasharray:none;stroke-opacity:1"
         d="m 104,63.199 8,0" /><path
         id="path36"
         style="fill:none;stroke:#000000;stroke-width:0.80000001;stroke-linecap:square;stroke-linejoin:bevel;stroke-miterlimit:4;stroke-dasharray:none;stroke-opacity:1"
         d="m 104,105.597 8,0" /><path
         id="path38"
         style="fill:none;stroke:#000000;stroke-width:0.80000001;stroke-linecap:square;stroke-linejoin:bevel;stroke-miterlimit:4;stroke-dasharray:none;stroke-opacity:1"
         d="m 104,148.801 8,0" /><path
         id="path40"
         style="fill:none;stroke:#000000;stroke-width:0.80000001;stroke-linecap:square;stroke-linejoin:bevel;stroke-miterlimit:4;stroke-dasharray:none;stroke-opacity:1"
         d="m 104,191.199 8,0" /><path
         id="path42"
         style="fill:none;stroke:#000000;stroke-width:0.80000001;stroke-linecap:square;stroke-linejoin:bevel;stroke-miterlimit:4;stroke-dasharray:none;stroke-opacity:1"
         d="m 104,233.597 8,0" /><path
         id="path44"
         style="fill:none;stroke:#000000;stroke-width:0.80000001;stroke-linecap:square;stroke-linejoin:bevel;stroke-miterlimit:4;stroke-dasharray:none;stroke-opacity:1"
         d="m 104,276.801 8,0" /><path
         id="path46"
         style="fill:none;stroke:#000000;stroke-width:0.80000001;stroke-linecap:square;stroke-linejoin:bevel;stroke-miterlimit:4;stroke-dasharray:none;stroke-opacity:1"
         d="m 104,319.199 8,0" /><path
         id="path48"
         style="fill:none;stroke:#000000;stroke-width:0.80000001;stroke-linecap:square;stroke-linejoin:bevel;stroke-miterlimit:4;stroke-dasharray:none;stroke-opacity:1"
         d="m 108,319.199 480,0" /><path
         id="path50"
         style="fill:none;stroke:#000000;stroke-width:0.80000001;stroke-linecap:square;stroke-linejoin:bevel;stroke-miterlimit:4;stroke-dasharray:none;stroke-opacity:1"
         d="m 588,319.199 0,-256" /><path
         id="path52"
         style="fill:none;stroke:#000000;stroke-width:0.80000001;stroke-linecap:square;stroke-linejoin:bevel;stroke-miterlimit:4;stroke-dasharray:none;stroke-opacity:1"
         d="m 108,63.199 480,0" /><path
         id="path54"
         style="fill:none;stroke:#000000;stroke-width:0.80000001;stroke-linecap:square;stroke-linejoin:bevel;stroke-miterlimit:4;stroke-dasharray:none;stroke-opacity:1"
         d="m 108,319.199 0,-256" /><path
         id="path56"
         style="fill:none;stroke:#0000ff;stroke-width:0.80000001;stroke-linecap:square;stroke-linejoin:bevel;stroke-miterlimit:4;stroke-dasharray:none;stroke-opacity:1"
         d="m 132,275.32 0.109,-0.012 0.227,-0.023 0.109,-0.012 0.227,-0.023 0.117,-0.012 0.227,-0.023 0.117,-0.012 0.113,-0.016 0.234,-0.023 0.122,-0.012 0.117,-0.012 0.117,-0.015 0.121,-0.012 0.117,-0.012 0.121,-0.015 0.121,-0.012 0.122,-0.016 0.124,-0.011 0.122,-0.016 0.125,-0.012 0.121,-0.015 0.125,-0.016 0.125,-0.012 0.125,-0.015 0.129,-0.016 0.125,-0.012 0.129,-0.015 0.124,-0.016 0.258,-0.031 0.133,-0.016 0.129,-0.015 0.133,-0.016 0.129,-0.016 0.398,-0.046 0.137,-0.016 0.133,-0.02 0.136,-0.015 0.133,-0.016 0.137,-0.019 0.137,-0.016 0.14,-0.016 0.137,-0.019 0.141,-0.016 0.136,-0.019 0.141,-0.02 0.141,-0.016 0.14,-0.019 0.289,-0.039 0.141,-0.016 0.289,-0.039 0.148,-0.019 0.145,-0.02 0.297,-0.039 0.144,-0.019 0.153,-0.024 0.297,-0.039 0.152,-0.019 0.152,-0.024 0.153,-0.019 0.152,-0.024 0.152,-0.019 0.313,-0.047 0.156,-0.02 0.313,-0.047 0.16,-0.023 0.156,-0.024 0.48,-0.07 0.165,-0.023 0.16,-0.024 0.164,-0.023 0.164,-0.028 0.164,-0.023 0.168,-0.023 0.164,-0.028 0.168,-0.023 0.336,-0.055 0.172,-0.023 0.168,-0.028 0.515,-0.082 0.176,-0.027 0.172,-0.027 0.176,-0.028 0.175,-0.031 0.176,-0.027 0.18,-0.028 0.176,-0.031 0.179,-0.027 0.18,-0.032 0.184,-0.031 0.179,-0.027 0.735,-0.125 0.375,-0.063 0.183,-0.035 0.192,-0.031 0.187,-0.031 0.192,-0.035 0.191,-0.032 0.383,-0.07 0.195,-0.031 0.586,-0.106 0.199,-0.035 0.196,-0.039 0.199,-0.035 0.203,-0.035 0.199,-0.039 0.203,-0.035 0.61,-0.118 0.828,-0.156 0.211,-0.039 0.211,-0.043 0.211,-0.039 0.211,-0.043 0.214,-0.039 0.645,-0.129 0.437,-0.086 0.219,-0.047 0.219,-0.043 0.223,-0.047 0.222,-0.043 0.223,-0.046 0.226,-0.047 0.223,-0.047 0.227,-0.047 0.23,-0.047 0.227,-0.047 0.23,-0.051 0.231,-0.046 0.23,-0.051 0.235,-0.047 0.468,-0.102 0.239,-0.05 0.234,-0.055 0.238,-0.051 0.242,-0.051 0.239,-0.054 0.484,-0.11 0.246,-0.054 0.242,-0.055 0.25,-0.055 0.246,-0.055 0.247,-0.058 0.25,-0.059 0.253,-0.054 0.25,-0.059 0.508,-0.117 0.254,-0.063 0.258,-0.058 0.516,-0.125 0.785,-0.188 0.265,-0.062 0.262,-0.067 0.27,-0.062 0.265,-0.067 0.539,-0.132 0.27,-0.071 0.273,-0.066 0.274,-0.07 0.277,-0.071 0.273,-0.07 0.278,-0.07 0.281,-0.071 0.277,-0.07 0.282,-0.074 0.285,-0.074 0.281,-0.075 0.285,-0.074 0.289,-0.074 0.578,-0.156 0.29,-0.075 0.292,-0.082 0.586,-0.156 0.594,-0.164 0.902,-0.246 0.301,-0.086 0.61,-0.172 0.617,-0.172 0.308,-0.09 0.625,-0.179 0.317,-0.09 0.949,-0.281 0.32,-0.094 0.325,-0.094 0.32,-0.097 0.324,-0.098 0.656,-0.195 0.328,-0.102 0.333,-0.098 0.332,-0.101 0.332,-0.106 0.336,-0.101 0.335,-0.106 0.68,-0.211 0.34,-0.109 0.344,-0.105 0.344,-0.114 0.695,-0.219 0.347,-0.113 0.352,-0.113 0.356,-0.117 0.351,-0.114 0.356,-0.117 0.359,-0.121 0.359,-0.117 0.36,-0.121 0.726,-0.242 0.735,-0.25 0.371,-0.125 0.742,-0.258 0.75,-0.258 0.758,-0.266 0.383,-0.132 0.382,-0.137 0.387,-0.137 0.387,-0.14 0.386,-0.137 0.391,-0.145 0.391,-0.14 0.394,-0.145 0.399,-0.144 0.394,-0.145 0.399,-0.148 0.402,-0.149 0.406,-0.152 0.403,-0.152 0.406,-0.153 0.41,-0.152 0.41,-0.156 0.414,-0.161 0.414,-0.156 0.414,-0.164 0.418,-0.16 0.844,-0.328 1.277,-0.504 0.43,-0.172 0.434,-0.176 0.433,-0.172 0.438,-0.175 0.875,-0.36 0.445,-0.179 0.441,-0.184 0.45,-0.188 0.445,-0.183 0.453,-0.192 0.453,-0.187 0.453,-0.191 0.914,-0.391 0.461,-0.195 0.465,-0.2 0.93,-0.406 0.469,-0.203 0.472,-0.207 0.473,-0.211 0.477,-0.211 0.48,-0.211 0.481,-0.215 0.48,-0.218 0.484,-0.219 0.489,-0.219 0.488,-0.223 0.984,-0.453 0.496,-0.23 0.5,-0.231 0.5,-0.234 0.504,-0.234 0.504,-0.239 0.508,-0.242 1.023,-0.484 1.032,-0.5 0.519,-0.25 0.524,-0.254 0.523,-0.258 0.527,-0.258 0.528,-0.265 0.531,-0.262 0.535,-0.266 0.535,-0.269 0.539,-0.274 0.543,-0.273 0.543,-0.277 0.547,-0.282 0.551,-0.281 0.551,-0.285 0.554,-0.285 0.555,-0.293 0.559,-0.293 0.562,-0.297 0.567,-0.297 0.566,-0.301 0.57,-0.304 0.571,-0.309 0.574,-0.309 0.578,-0.312 0.582,-0.317 0.582,-0.32 0.586,-0.324 0.59,-0.324 0.59,-0.328 0.593,-0.332 0.594,-0.336 0.602,-0.336 0.601,-0.344 0.606,-0.344 0.605,-0.347 1.227,-0.704 0.613,-0.359 0.621,-0.359 0.621,-0.368 0.625,-0.367 0.629,-0.371 0.629,-0.375 0.633,-0.379 0.637,-0.383 0.64,-0.386 0.641,-0.391 0.644,-0.394 0.649,-0.395 0.652,-0.402 0.653,-0.407 0.66,-0.41 0.656,-0.41 0.664,-0.418 0.668,-0.422 0.668,-0.425 0.672,-0.43 0.676,-0.434 0.679,-0.437 0.684,-0.442 0.684,-0.445 0.687,-0.449 0.691,-0.457 0.696,-0.457 0.699,-0.465 0.699,-0.469 0.703,-0.472 0.707,-0.477 0.711,-0.481 0.715,-0.488 0.719,-0.488 0.719,-0.496 1.453,-1.008 0.73,-0.512 0.735,-0.515 0.734,-0.52 0.742,-0.527 0.746,-0.531 0.746,-0.536 0.75,-0.539 0.754,-0.547 1.524,-1.109 0.765,-0.562 0.766,-0.571 0.773,-0.574 0.774,-0.578 0.781,-0.586 0.781,-0.59 0.789,-0.598 0.789,-0.601 0.793,-0.609 0.797,-0.618 0.805,-0.617 0.805,-0.629 0.808,-0.633 0.813,-0.64 0.816,-0.645 0.817,-0.652 0.824,-0.66 0.828,-0.664 0.832,-0.672 0.836,-0.676 0.84,-0.687 0.84,-0.692 0.847,-0.699 0.852,-0.703 0.855,-0.715 0.856,-0.719 0.863,-0.726 0.867,-0.735 0.871,-0.742 0.875,-0.75 0.879,-0.758 0.883,-0.765 0.887,-0.77 0.89,-0.781 0.895,-0.785 0.898,-0.797 0.903,-0.805 0.91,-0.812 0.91,-0.821 0.918,-0.828 0.918,-0.836 0.926,-0.843 0.925,-0.856 0.934,-0.863 0.938,-0.871 0.941,-0.879 0.945,-0.891 0.949,-0.898 0.957,-0.907 0.958,-0.917 0.964,-0.926 0.969,-0.934 0.973,-0.945 0.976,-0.957 0.981,-0.965 0.984,-0.973 0.992,-0.984 0.996,-0.996 1,-1.004 1.004,-1.02 1.008,-1.023 1.012,-1.039 1.019,-1.047 1.024,-1.059 1.027,-1.07 1.031,-1.082 1.04,-1.09 1.042,-1.105 1.047,-1.114 1.051,-1.128 1.059,-1.141 1.058,-1.148 1.067,-1.165 1.07,-1.175 1.078,-1.188 1.082,-1.199 1.086,-1.215 1.09,-1.226 1.098,-1.239 1.097,-1.254 1.11,-1.265 1.109,-1.278 1.117,-1.293 1.121,-1.308 1.129,-1.32 1.133,-1.336 1.137,-1.348 1.14,-1.367 1.149,-1.375 1.152,-1.395 1.16,-1.41 1.164,-1.426 1.168,-1.437 1.176,-1.457 1.18,-1.469 1.187,-1.488 1.192,-1.504 1.195,-1.52 1.203,-1.535 1.207,-1.555 1.211,-1.57 1.219,-1.59 1.226,-1.605 1.231,-1.621 1.234,-1.641 1.243,-1.66 1.246,-1.68 1.254,-1.695 1.257,-1.715 1.266,-1.734 1.269,-1.754 1.278,-1.774 1.281,-1.793 1.289,-1.812 1.293,-1.832 1.301,-1.856 1.305,-1.875 1.312,-1.894 1.32,-1.914 1.325,-1.942 1.328,-1.961 1.336,-1.98 1.343,-2.004 1.348,-2.027 1.356,-2.051 1.363,-2.074 1.367,-2.098 1.375,-2.121 1.379,-2.145 1.387,-2.168 1.179,-1.855" /><path
         id="path58"
         style="fill:none;stroke:#ff0000;stroke-width:0.80000001;stroke-linecap:square;stroke-linejoin:bevel;stroke-miterlimit:4;stroke-dasharray:none;stroke-opacity:1"
         d="m 132,276.531 56.676,0 0.371,-0.004 6.203,0 0.406,-0.004 3.289,0 0.422,-0.004 2.129,0 0.434,-0.004 1.746,0 0.445,-0.003 1.336,0 0.453,-0.004 1.363,0 0.457,-0.004 0.926,0 0.465,-0.004 0.465,0 0.469,-0.004 0.945,0 0.477,-0.004 0.48,0 0.481,-0.004 0.48,0 0.484,-0.004 0.489,-0.004 0.488,0 0.984,-0.008 0.496,0 1,-0.007 1.008,-0.008 0.508,0 1.023,-0.008 1.032,-0.008 0.519,-0.008 1.047,-0.007 0.527,-0.004 0.528,-0.008 0.531,-0.004 0.535,-0.008 0.535,-0.004 0.539,-0.008 0.543,-0.007 0.543,-0.004 0.547,-0.008 1.102,-0.016 0.554,-0.008 0.555,-0.011 0.559,-0.008 0.562,-0.012 0.567,-0.008 0.566,-0.011 1.141,-0.024 0.574,-0.011 0.578,-0.012 0.582,-0.016 0.582,-0.012 0.586,-0.015 1.18,-0.031 0.593,-0.016 0.594,-0.02 0.602,-0.019 0.601,-0.016 0.606,-0.023 0.605,-0.02 1.84,-0.07 0.621,-0.027 0.621,-0.024 0.625,-0.031 0.629,-0.027 0.629,-0.032 0.633,-0.031 0.637,-0.035 1.281,-0.07 0.644,-0.039 0.649,-0.043 0.652,-0.039 0.653,-0.047 0.66,-0.047 0.656,-0.047 0.664,-0.051 1.336,-0.109 0.672,-0.059 0.676,-0.062 0.679,-0.063 0.684,-0.066 0.684,-0.071 0.687,-0.074 0.691,-0.078 0.696,-0.078 0.699,-0.086 0.699,-0.09 0.703,-0.09 0.707,-0.097 0.711,-0.102 0.715,-0.105 0.719,-0.11 0.719,-0.117 0.726,-0.121 0.727,-0.129 0.73,-0.133 0.735,-0.136 0.734,-0.145 0.742,-0.152 0.746,-0.16 0.746,-0.168 0.75,-0.176 0.754,-0.18 0.762,-0.191 0.762,-0.2 0.765,-0.21 0.766,-0.219 0.773,-0.227 0.774,-0.238 0.781,-0.25 0.781,-0.262 0.789,-0.273 0.789,-0.285 0.793,-0.301 0.797,-0.313 0.805,-0.328 0.805,-0.34 0.808,-0.355 0.813,-0.375 0.816,-0.387 0.817,-0.41 0.824,-0.426 0.828,-0.445 0.832,-0.461 0.836,-0.488 0.84,-0.504 0.84,-0.531 0.847,-0.551 0.852,-0.578 0.855,-0.602 0.856,-0.629 0.863,-0.656 0.867,-0.684 0.871,-0.711 0.875,-0.746 0.879,-0.777 0.883,-0.809 0.887,-0.843 0.89,-0.879 0.895,-0.918 0.898,-0.953 0.903,-0.996 0.91,-1.036 0.91,-1.082 0.918,-1.121 0.918,-1.168 0.926,-1.218 0.925,-1.262 0.934,-1.317 0.938,-1.367 0.941,-1.422 0.945,-1.476 0.949,-1.535 0.957,-1.594 0.958,-1.652 0.964,-1.715 0.969,-1.782 0.973,-1.847 0.976,-1.91 0.981,-1.985 0.984,-2.054 0.992,-2.125 0.996,-2.2 1,-2.277 1.004,-2.355 1.008,-2.434 1.012,-2.516 1.019,-2.597 1.024,-2.684 1.027,-2.766 1.031,-2.855 1.04,-2.941 1.042,-3.036 1.047,-3.121 1.051,-3.215 1.059,-3.308 1.058,-3.402 1.067,-3.497 1.07,-3.589 1.078,-3.688 1.082,-3.785 1.086,-3.883 1.09,-3.98 1.098,-4.078 1.097,-4.18 1.11,-4.274 1.109,-4.371 1.117,-4.472 1.121,-4.571 1.129,-4.668 1.133,-4.765 1.137,-4.86 1.14,-4.961 1.149,-5.05 1.152,-5.149 1.16,-5.242 1.164,-5.336 1.168,-5.426 1.176,-5.515 1.18,-5.61 1.187,-5.695 1.192,-5.777 0.222,-1.098" /><path
         id="path60"
         style="fill:none;stroke:#ff00ff;stroke-width:0.80000001;stroke-linecap:square;stroke-linejoin:bevel;stroke-miterlimit:4;stroke-dasharray:none;stroke-opacity:1"
         d="m 132,265.137 0.109,-0.094 0.114,-0.094 0.113,-0.098 0.109,-0.093 0.114,-0.094 0.113,-0.098 0.117,-0.097 0.227,-0.196 0.117,-0.101 0.113,-0.098 0.234,-0.203 0.122,-0.102 0.117,-0.101 0.117,-0.106 0.121,-0.105 0.117,-0.102 0.121,-0.105 0.121,-0.11 0.122,-0.105 0.124,-0.106 0.122,-0.109 0.125,-0.109 0.121,-0.11 0.125,-0.109 0.125,-0.113 0.125,-0.11 0.129,-0.113 0.125,-0.113 0.129,-0.114 0.124,-0.117 0.129,-0.113 0.129,-0.117 0.133,-0.117 0.129,-0.118 0.133,-0.117 0.129,-0.117 0.398,-0.363 0.137,-0.121 0.133,-0.121 0.136,-0.125 0.133,-0.125 0.137,-0.121 0.137,-0.129 0.14,-0.125 0.137,-0.125 0.141,-0.129 0.136,-0.129 0.422,-0.387 0.289,-0.266 0.141,-0.132 0.289,-0.266 0.148,-0.137 0.145,-0.133 0.297,-0.273 0.144,-0.137 0.153,-0.14 0.148,-0.137 0.149,-0.141 0.457,-0.422 0.152,-0.144 0.152,-0.141 0.469,-0.433 0.156,-0.149 0.157,-0.144 0.16,-0.149 0.156,-0.148 0.48,-0.445 0.165,-0.153 0.16,-0.152 0.492,-0.457 0.168,-0.152 0.164,-0.157 0.168,-0.152 0.336,-0.313 0.172,-0.156 0.168,-0.156 0.172,-0.16 0.171,-0.156 0.172,-0.161 0.176,-0.16 0.172,-0.16 0.527,-0.48 0.18,-0.164 0.176,-0.165 0.179,-0.16 0.18,-0.164 0.184,-0.164 0.179,-0.164 0.184,-0.168 0.367,-0.328 0.184,-0.168 0.187,-0.168 0.188,-0.164 0.183,-0.168 0.192,-0.168 0.187,-0.168 0.192,-0.168 0.191,-0.172 0.383,-0.336 0.195,-0.172 0.195,-0.168 0.391,-0.343 0.199,-0.168 0.196,-0.172 0.199,-0.172 0.203,-0.172 0.199,-0.172 0.813,-0.687 0.621,-0.516 0.207,-0.176 0.844,-0.687 0.859,-0.688 0.656,-0.515 0.219,-0.168 0.668,-0.516 0.226,-0.168 0.223,-0.168 0.227,-0.172 0.23,-0.168 0.227,-0.168 0.461,-0.336 0.23,-0.164 0.235,-0.168 0.468,-0.328 0.239,-0.168 0.234,-0.16 0.238,-0.164 0.242,-0.164 0.239,-0.16 0.484,-0.32 0.246,-0.161 0.242,-0.156 0.25,-0.156 0.493,-0.313 0.25,-0.152 0.253,-0.156 0.25,-0.149 0.254,-0.152 0.508,-0.297 0.258,-0.148 0.516,-0.289 0.261,-0.141 0.262,-0.144 0.262,-0.137 0.265,-0.141 0.262,-0.137 0.27,-0.132 0.265,-0.133 0.539,-0.266 0.27,-0.125 0.273,-0.129 0.274,-0.121 0.277,-0.125 0.273,-0.121 0.278,-0.117 0.281,-0.117 0.277,-0.114 0.282,-0.113 0.285,-0.109 0.281,-0.106 0.285,-0.105 0.289,-0.106 0.868,-0.293 0.292,-0.093 0.293,-0.09 0.293,-0.086 0.297,-0.086 0.297,-0.082 0.301,-0.078 0.601,-0.149 0.301,-0.07 0.305,-0.066 0.305,-0.063 0.308,-0.062 0.617,-0.11 0.313,-0.051 0.312,-0.046 0.317,-0.043 0.316,-0.039 0.633,-0.071 0.32,-0.027 0.325,-0.024 0.32,-0.023 0.324,-0.016 0.328,-0.011 0.328,-0.008 0.328,-0.004 0.333,0 0.332,0.004 0.332,0.008 0.336,0.011 0.335,0.02 0.34,0.019 0.34,0.028 0.34,0.031 0.344,0.035 0.344,0.043 0.347,0.047 0.348,0.051 0.347,0.055 0.352,0.058 0.356,0.067 0.351,0.074 0.356,0.074 0.359,0.082 0.719,0.18 0.726,0.203 0.367,0.109 0.368,0.117 0.371,0.121 0.371,0.125 0.371,0.137 0.375,0.137 0.375,0.144 0.379,0.153 0.379,0.156 0.383,0.164 0.382,0.172 0.387,0.176 0.387,0.179 0.386,0.192 0.391,0.195 0.391,0.199 0.394,0.211 0.399,0.215 0.394,0.223 0.399,0.226 0.402,0.235 0.406,0.242 0.403,0.25 0.406,0.254 0.82,0.531 0.414,0.277 0.414,0.282 0.414,0.293 0.418,0.297 0.422,0.304 0.422,0.309 0.426,0.32 0.426,0.324 0.425,0.332 0.43,0.336 0.434,0.348 0.433,0.352 0.438,0.359 0.437,0.367 0.438,0.371 0.445,0.383 0.441,0.387 0.45,0.394 0.445,0.399 0.453,0.406 0.453,0.414 0.453,0.418 0.457,0.426 0.457,0.433 0.461,0.438 0.465,0.445 0.465,0.449 0.465,0.457 0.469,0.461 0.472,0.465 0.473,0.473 0.477,0.48 0.48,0.481 0.481,0.488 0.48,0.492 0.484,0.496 0.977,1.008 0.492,0.508 0.492,0.512 0.496,0.515 0.5,0.52 0.5,0.523 1.008,1.047 0.508,0.528 0.512,0.531 0.511,0.527 1.032,1.063 0.519,0.531 0.524,0.531 0.523,0.527 1.055,1.055 0.531,0.524 1.07,1.039 0.539,0.511 0.543,0.508 0.543,0.504 0.547,0.5 0.551,0.492 0.551,0.485 0.554,0.48 0.555,0.469 0.559,0.461 0.562,0.453 0.567,0.441 0.566,0.43 0.57,0.422 0.571,0.41 0.574,0.395 0.578,0.378 0.582,0.372 0.582,0.351 0.586,0.336 0.59,0.32 0.59,0.305 0.593,0.285 0.594,0.266 0.602,0.246 0.601,0.23 0.606,0.204 0.605,0.187 0.614,0.16 0.613,0.141 0.613,0.113 0.621,0.094 0.621,0.062 0.625,0.043 0.629,0.012 0.629,-0.012 0.633,-0.039 0.637,-0.07 0.64,-0.098 0.641,-0.125 0.644,-0.156 0.649,-0.184 0.652,-0.214 0.653,-0.246 0.66,-0.274 0.656,-0.309 0.664,-0.335 0.668,-0.368 0.668,-0.398 0.672,-0.43 0.676,-0.461 0.679,-0.492 0.684,-0.519 0.684,-0.555 0.687,-0.578 0.691,-0.614 0.696,-0.636 0.699,-0.668 0.699,-0.696 0.703,-0.718 0.707,-0.746 0.711,-0.774 0.715,-0.793 0.719,-0.82 0.719,-0.84 0.726,-0.859 0.727,-0.879 0.73,-0.895 0.735,-0.914 0.734,-0.929 0.742,-0.938 0.746,-0.953 0.746,-0.965 0.75,-0.969 0.754,-0.976 1.524,-1.961 0.765,-0.985 0.766,-0.98 0.773,-0.973 0.774,-0.968 0.781,-0.961 0.781,-0.95 0.789,-0.933 0.789,-0.918 0.793,-0.899 0.797,-0.879 0.805,-0.851 0.805,-0.824 0.808,-0.797 0.813,-0.762 0.816,-0.726 0.817,-0.692 0.824,-0.644 0.828,-0.602 0.832,-0.555 0.836,-0.504 0.84,-0.453 0.84,-0.39 0.847,-0.336 0.852,-0.27 0.855,-0.203 0.856,-0.133 0.863,-0.062 0.867,0.015 0.871,0.09 0.875,0.176 0.879,0.258 0.883,0.348 0.887,0.437 0.89,0.531 0.895,0.625 0.898,0.723 0.903,0.82 0.91,0.922 0.91,1.024 0.918,1.125 0.918,1.226 0.926,1.332 0.925,1.43 0.934,1.527 0.938,1.621 0.941,1.711 0.945,1.793 0.949,1.871 0.957,1.938 0.958,1.988 0.964,2.027 0.969,2.051 0.973,2.051 0.976,2.023 0.981,1.973 0.984,1.891 0.992,1.765 0.996,1.598 1,1.387 1.004,1.121 1.008,0.793 1.012,0.406 1.019,-0.047 1.024,-0.574 1.027,-1.168 1.031,-1.836 1.04,-2.574 1.042,-3.375 1.047,-4.235 1.051,-5.136 1.059,-6.082 1.058,-7.047 1.067,-8.016 1.07,-8.98 1.078,-9.922 1.082,-10.828 1.086,-11.688 1.09,-12.488 1.098,-13.227 1.097,-13.89 1.11,-14.485 1.109,-15.011 1.117,-15.461 1.121,-15.848 1.129,-16.164 1.047,-15.211" /><path
         id="path62"
         style="fill:none;stroke:#00ff00;stroke-width:0.80000001;stroke-linecap:square;stroke-linejoin:bevel;stroke-miterlimit:4;stroke-dasharray:none;stroke-opacity:1"
         d="m 132,271.41 0.109,-0.047 0.114,-0.047 0.113,-0.043 0.109,-0.047 0.227,-0.093 0.117,-0.047 0.113,-0.051 0.114,-0.047 0.117,-0.051 0.113,-0.047 0.234,-0.101 0.122,-0.047 0.234,-0.102 0.121,-0.054 0.117,-0.051 0.121,-0.051 0.243,-0.109 0.124,-0.051 0.122,-0.055 0.125,-0.054 0.121,-0.055 0.125,-0.055 0.125,-0.058 0.125,-0.055 0.129,-0.059 0.125,-0.054 0.129,-0.059 0.124,-0.058 0.258,-0.118 0.133,-0.058 0.129,-0.063 0.133,-0.058 0.129,-0.063 0.398,-0.187 0.137,-0.063 0.133,-0.062 0.136,-0.063 0.133,-0.066 0.137,-0.067 0.137,-0.062 0.14,-0.067 0.137,-0.066 0.141,-0.07 0.136,-0.067 0.141,-0.066 0.281,-0.141 0.145,-0.066 0.144,-0.07 0.141,-0.075 0.289,-0.14 0.148,-0.075 0.145,-0.074 0.148,-0.07 0.149,-0.074 0.144,-0.078 0.153,-0.075 0.148,-0.074 0.149,-0.078 0.152,-0.078 0.152,-0.074 0.153,-0.078 0.152,-0.082 0.152,-0.079 0.157,-0.078 0.625,-0.328 0.16,-0.082 0.156,-0.082 0.48,-0.258 0.165,-0.086 0.16,-0.086 0.164,-0.086 0.164,-0.089 0.164,-0.086 0.168,-0.09 0.164,-0.09 0.168,-0.09 0.168,-0.094 0.168,-0.089 0.172,-0.094 0.168,-0.094 0.515,-0.281 0.176,-0.098 0.172,-0.097 0.176,-0.094 0.175,-0.098 0.176,-0.101 0.18,-0.098 0.176,-0.102 0.179,-0.097 0.18,-0.102 0.184,-0.101 0.179,-0.106 0.184,-0.101 0.184,-0.106 0.183,-0.102 0.184,-0.105 0.187,-0.109 0.188,-0.106 0.183,-0.105 0.192,-0.11 0.187,-0.109 0.383,-0.219 0.191,-0.113 0.192,-0.109 0.781,-0.454 0.199,-0.117 0.196,-0.117 0.199,-0.117 0.203,-0.117 0.199,-0.118 0.203,-0.117 0.61,-0.363 0.414,-0.242 0.414,-0.25 0.844,-0.5 0.859,-0.516 0.219,-0.133 0.218,-0.129 0.438,-0.265 0.445,-0.266 0.223,-0.136 0.226,-0.137 0.223,-0.137 0.227,-0.137 0.23,-0.136 0.227,-0.137 0.691,-0.422 0.469,-0.281 0.234,-0.145 0.239,-0.14 0.234,-0.145 0.238,-0.144 0.242,-0.145 0.239,-0.148 0.242,-0.145 0.242,-0.148 0.246,-0.149 0.242,-0.148 0.25,-0.149 0.246,-0.152 0.247,-0.148 0.25,-0.153 0.253,-0.152 0.25,-0.152 0.508,-0.305 0.254,-0.156 0.258,-0.153 0.516,-0.312 0.523,-0.313 0.262,-0.16 0.265,-0.156 0.262,-0.16 0.27,-0.16 0.265,-0.157 0.27,-0.16 0.269,-0.164 0.27,-0.16 0.273,-0.16 0.274,-0.164 0.277,-0.164 0.273,-0.161 0.278,-0.164 0.281,-0.164 0.277,-0.164 0.282,-0.164 0.285,-0.168 0.281,-0.164 0.285,-0.164 0.578,-0.336 0.289,-0.164 0.29,-0.168 0.878,-0.504 0.594,-0.336 0.301,-0.172 0.902,-0.503 0.305,-0.172 0.305,-0.168 0.308,-0.168 0.309,-0.172 0.308,-0.168 0.313,-0.168 0.312,-0.172 0.317,-0.168 0.316,-0.172 0.317,-0.168 0.316,-0.172 0.32,-0.168 0.325,-0.168 0.32,-0.168 0.324,-0.171 0.984,-0.504 0.997,-0.504 0.336,-0.164 0.335,-0.168 0.34,-0.164 0.34,-0.168 0.34,-0.164 0.688,-0.329 0.347,-0.164 0.348,-0.16 0.347,-0.164 0.352,-0.16 0.356,-0.16 0.351,-0.16 0.356,-0.16 1.078,-0.469 0.363,-0.156 0.363,-0.153 0.367,-0.156 0.368,-0.152 0.742,-0.297 0.371,-0.153 0.375,-0.144 0.375,-0.149 0.379,-0.144 0.379,-0.141 0.383,-0.144 0.382,-0.137 0.387,-0.141 0.387,-0.136 0.386,-0.133 0.391,-0.137 0.391,-0.129 0.394,-0.133 0.399,-0.125 0.394,-0.128 0.399,-0.122 0.402,-0.125 0.406,-0.117 0.403,-0.121 0.406,-0.113 0.41,-0.113 0.41,-0.11 0.414,-0.109 0.828,-0.211 0.418,-0.102 0.422,-0.097 0.422,-0.094 0.426,-0.094 0.426,-0.09 0.425,-0.086 0.43,-0.082 0.434,-0.082 0.433,-0.078 0.438,-0.074 0.437,-0.07 0.438,-0.067 0.445,-0.062 0.441,-0.063 0.45,-0.054 0.445,-0.055 0.453,-0.051 0.906,-0.086 0.914,-0.07 0.461,-0.027 0.465,-0.024 0.465,-0.019 0.465,-0.016 0.469,-0.012 0.472,-0.008 0.473,0 0.477,0.004 0.48,0.008 0.481,0.012 0.48,0.019 0.484,0.024 0.977,0.062 0.984,0.086 0.496,0.055 0.5,0.055 0.5,0.066 0.504,0.066 0.504,0.079 0.508,0.082 0.512,0.086 0.511,0.093 0.516,0.102 0.516,0.109 0.519,0.114 0.524,0.121 0.523,0.129 0.527,0.136 0.528,0.141 0.531,0.152 0.535,0.156 0.535,0.165 0.539,0.171 0.543,0.184 0.543,0.187 0.547,0.196 0.551,0.203 0.551,0.215 0.554,0.219 0.555,0.226 0.559,0.238 0.562,0.246 0.567,0.254 0.566,0.262 0.57,0.274 0.571,0.277 0.574,0.289 0.578,0.301 0.582,0.304 0.582,0.317 0.586,0.324 0.59,0.336 0.59,0.344 0.593,0.351 0.594,0.364 0.602,0.371 0.601,0.382 0.606,0.391 0.605,0.399 0.614,0.41 0.613,0.418 0.613,0.429 0.621,0.438 0.621,0.445 0.625,0.457 0.629,0.465 0.629,0.473 0.633,0.484 0.637,0.492 0.64,0.5 0.641,0.512 0.644,0.516 0.649,0.527 0.652,0.535 0.653,0.543 0.66,0.551 0.656,0.558 0.664,0.567 0.668,0.57 0.668,0.578 0.672,0.586 0.676,0.59 0.679,0.594 0.684,0.601 0.684,0.606 0.687,0.609 0.691,0.613 0.696,0.614 0.699,0.617 0.699,0.621 0.703,0.617 0.707,0.621 0.711,0.621 0.715,0.618 0.719,0.613 0.719,0.609 0.726,0.61 0.727,0.601 0.73,0.594 0.735,0.586 0.734,0.582 0.742,0.566 0.746,0.559 0.746,0.543 0.75,0.527 0.754,0.516 0.762,0.496 0.762,0.48 0.765,0.457 0.766,0.438 0.773,0.41 0.774,0.387 0.781,0.363 0.781,0.328 0.789,0.301 0.789,0.27 0.793,0.23 0.797,0.195 0.805,0.16 0.805,0.118 0.808,0.078 0.813,0.031 0.816,-0.012 0.817,-0.062 0.824,-0.11 0.828,-0.156 0.832,-0.211 0.836,-0.265 0.84,-0.317 0.84,-0.375 0.847,-0.429 0.852,-0.489 0.855,-0.543 0.856,-0.601 0.863,-0.657 0.867,-0.714 0.871,-0.77 0.875,-0.828 0.879,-0.879 0.883,-0.934 0.887,-0.98 0.89,-1.031 0.895,-1.071 0.898,-1.117 0.903,-1.148 0.91,-1.184 0.91,-1.207 0.918,-1.23 0.918,-1.246 1.851,-2.5 0.934,-1.243 0.938,-1.226 0.941,-1.195 0.945,-1.157 0.949,-1.105 0.957,-1.039 0.958,-0.965 0.964,-0.871 0.969,-0.766 0.973,-0.64 0.976,-0.5 0.981,-0.34 0.984,-0.156 0.992,0.039 0.996,0.257 1,0.5 1.004,0.762 1.008,1.043 1.012,1.344 1.019,1.652 1.024,1.977 1.027,2.301 1.031,2.609 1.04,2.887 1.042,3.113 1.047,3.246 1.051,3.23 1.059,3.008 1.058,2.485 1.067,1.55 1.07,0.082 1.078,-2.062 1.082,-4.984 1.086,-8.743 1.09,-13.277 1.098,-18.398 1.097,-23.793 1.11,-29.094 1.109,-33.957 1.117,-38.152 1.098,-40.688" /><path
         id="path64"
         style="fill:#000000;fill-opacity:1;fill-rule:nonzero;stroke:none"
         d="m 109.66,52.066 c 0,2.36 -0.75,3.531 -2.219,3.531 -1.468,0 -2.234,-1.187 -2.234,-3.468 0,-2.297 0.781,-3.469 2.234,-3.469 1.438,0 2.219,1.172 2.219,3.406 z m -0.859,0.078 c 0,-1.922 -0.438,-2.781 -1.375,-2.781 -0.891,0 -1.344,0.891 -1.344,2.75 0,1.875 0.453,2.734 1.359,2.734 0.907,0 1.36,-0.875 1.36,-2.703 z" /><path
         id="path66"
         style="fill:#000000;fill-opacity:1;fill-rule:nonzero;stroke:none"
         d="m 340.93,48.801 0,6.796 -0.563,0 c -0.297,-1.046 -0.484,-1.187 -1.781,-1.343 l 0,-0.61 1.5,0 0,-4.843 0.844,0 z" /><path
         id="path68"
         style="fill:#000000;fill-opacity:1;fill-rule:nonzero;stroke:none"
         d="m 347.859,51.082 c 0,0.734 -0.062,1.187 -0.203,1.562 -0.328,0.828 -1.094,1.328 -2.031,1.328 -1.406,0 -2.297,-1.031 -2.297,-2.687 0,-1.656 0.86,-2.625 2.281,-2.625 1.141,0 1.938,0.656 2.141,1.672 l -0.797,0 c -0.219,-0.672 -0.672,-0.938 -1.312,-0.938 -0.844,0 -1.469,0.532 -1.485,1.688 l 3.703,0 z M 347,51.801 c 0,0 0,-0.047 0,-0.063 l -2.828,0 c 0.078,0.891 0.64,1.5 1.437,1.5 0.797,0 1.391,-0.656 1.391,-1.437 z" /><path
         id="path70"
         style="fill:#000000;fill-opacity:1;fill-rule:nonzero;stroke:none"
         d="m 353.164,52.363 c 0,2.125 -0.75,3.234 -2.297,3.234 -1.297,0 -2.234,-0.921 -2.234,-2.25 0,-1.265 0.875,-2.125 2.094,-2.125 0.64,0 1.109,0.235 1.562,0.766 -0.016,-1.656 -0.547,-2.578 -1.516,-2.578 -0.593,0 -1.015,0.375 -1.14,1.016 l -0.844,0 c 0.156,-1.11 0.891,-1.766 1.922,-1.766 1.594,0 2.453,1.344 2.453,3.703 z m -0.922,1 c 0,-0.828 -0.594,-1.391 -1.422,-1.391 -0.812,0 -1.312,0.532 -1.312,1.438 0,0.875 0.562,1.453 1.344,1.453 0.796,0 1.39,-0.609 1.39,-1.5 z" /><path
         id="path72"
         style="fill:#000000;fill-opacity:1;fill-rule:nonzero;stroke:none"
         d="m 582.508,53.613 c 0,1.141 -0.891,1.984 -2.188,1.984 -1.39,0 -2.187,-0.703 -2.234,-2.359 l 0.844,0 c 0.062,1.141 0.531,1.625 1.375,1.625 0.765,0 1.328,-0.547 1.328,-1.281 0,-0.531 -0.313,-0.985 -0.906,-1.344 l -0.891,-0.5 c -1.422,-0.797 -1.828,-1.437 -1.906,-2.937 l 4.531,0 0,0.828 -3.578,0 c 0.078,0.562 0.39,0.922 1.219,1.406 l 0.968,0.516 c 0.938,0.515 1.438,1.218 1.438,2.062 z" /><path
         id="path74"
         style="fill:#000000;fill-opacity:1;fill-rule:nonzero;stroke:none"
         d="m 587.859,51.082 c 0,0.734 -0.062,1.187 -0.203,1.562 -0.328,0.828 -1.094,1.328 -2.031,1.328 -1.406,0 -2.297,-1.031 -2.297,-2.687 0,-1.656 0.86,-2.625 2.281,-2.625 1.141,0 1.938,0.656 2.141,1.672 l -0.797,0 c -0.219,-0.672 -0.672,-0.938 -1.312,-0.938 -0.844,0 -1.469,0.532 -1.485,1.688 l 3.703,0 z M 587,51.801 c 0,0 0,-0.047 0,-0.063 l -2.828,0 c 0.078,0.891 0.64,1.5 1.437,1.5 0.797,0 1.391,-0.656 1.391,-1.437 z" /><path
         id="path76"
         style="fill:#000000;fill-opacity:1;fill-rule:nonzero;stroke:none"
         d="m 593.164,52.363 c 0,2.125 -0.75,3.234 -2.297,3.234 -1.297,0 -2.234,-0.921 -2.234,-2.25 0,-1.265 0.875,-2.125 2.094,-2.125 0.64,0 1.109,0.235 1.562,0.766 -0.016,-1.656 -0.547,-2.578 -1.516,-2.578 -0.593,0 -1.015,0.375 -1.14,1.016 l -0.844,0 c 0.156,-1.11 0.891,-1.766 1.922,-1.766 1.594,0 2.453,1.344 2.453,3.703 z m -0.922,1 c 0,-0.828 -0.594,-1.391 -1.422,-1.391 -0.812,0 -1.312,0.532 -1.312,1.438 0,0.875 0.562,1.453 1.344,1.453 0.796,0 1.39,-0.609 1.39,-1.5 z" /><path
         id="path78"
         style="fill:#000000;fill-opacity:1;fill-rule:nonzero;stroke:none"
         d="m 91.637,61.398 2.281,0 0,-0.703 -2.281,0 0,0.703 z" /><path
         id="path80"
         style="fill:#000000;fill-opacity:1;fill-rule:nonzero;stroke:none"
         d="m 99.32,60.648 c 0,1.344 -0.89,2.235 -2.203,2.235 -0.469,0 -0.859,-0.125 -1.25,-0.422 l 0.266,1.765 2.828,0 0,0.828 -3.5,0 -0.516,-3.562 0.782,0 c 0.39,0.469 0.718,0.641 1.25,0.641 0.906,0 1.484,-0.594 1.484,-1.594 0,-0.985 -0.578,-1.531 -1.484,-1.531 -0.75,0 -1.204,0.375 -1.391,1.14 l -0.859,0 c 0.281,-1.359 1.046,-1.89 2.265,-1.89 1.375,0 2.328,0.953 2.328,2.39 z" /><path
         id="path82"
         style="fill:#000000;fill-opacity:1;fill-rule:nonzero;stroke:none"
         d="m 91.637,103.801 2.281,0 0,-0.703 -2.281,0 0,0.703 z" /><path
         id="path84"
         style="fill:#000000;fill-opacity:1;fill-rule:nonzero;stroke:none"
         d="m 99.383,102.426 0,0.765 -1,0 0,4.406 -0.625,0 -3.094,-4.281 0,-0.89 2.875,0 0,-1.625 0.844,0 0,1.625 1,0 z m -1.844,0.765 -2.141,0 2.141,2.969 0,-2.969 z" /><path
         id="path86"
         style="fill:#000000;fill-opacity:1;fill-rule:nonzero;stroke:none"
         d="m 91.637,147 2.281,0 0,-0.703 -2.281,0 0,0.703 z" /><path
         id="path88"
         style="fill:#000000;fill-opacity:1;fill-rule:nonzero;stroke:none"
         d="m 99.258,145.969 c 0,0.828 -0.344,1.312 -1.156,1.593 0.64,0.25 0.953,0.688 0.953,1.375 0,1.172 -0.782,1.86 -2.078,1.86 -1.375,0 -2.094,-0.75 -2.125,-2.188 l 0.843,0 c 0.016,1 0.438,1.453 1.297,1.453 0.75,0 1.203,-0.437 1.203,-1.156 0,-0.734 -0.328,-1.031 -1.672,-1.031 l 0,-0.703 0.454,0 c 0.937,0 1.406,-0.453 1.406,-1.203 0,-0.86 -0.516,-1.36 -1.406,-1.36 -0.922,0 -1.375,0.453 -1.422,1.438 l -0.844,0 c 0.094,-1.516 0.844,-2.188 2.234,-2.188 1.407,0 2.313,0.828 2.313,2.11 z" /><path
         id="path90"
         style="fill:#000000;fill-opacity:1;fill-rule:nonzero;stroke:none"
         d="m 91.637,189.398 2.281,0 0,-0.703 -2.281,0 0,0.703 z" /><path
         id="path92"
         style="fill:#000000;fill-opacity:1;fill-rule:nonzero;stroke:none"
         d="m 99.305,191.211 c 0,1.14 -0.891,1.984 -2.188,1.984 -1.39,0 -2.187,-0.703 -2.234,-2.359 l 0.844,0 c 0.062,1.14 0.531,1.625 1.375,1.625 0.765,0 1.328,-0.547 1.328,-1.282 0,-0.531 -0.313,-0.984 -0.907,-1.343 l -0.89,-0.5 c -1.422,-0.797 -1.828,-1.438 -1.906,-2.938 l 4.531,0 0,0.828 -3.578,0 c 0.078,0.563 0.39,0.922 1.218,1.407 l 0.969,0.515 c 0.938,0.516 1.438,1.219 1.438,2.063 z" /><path
         id="path94"
         style="fill:#000000;fill-opacity:1;fill-rule:nonzero;stroke:none"
         d="m 91.637,231.801 2.281,0 0,-0.703 -2.281,0 0,0.703 z" /><path
         id="path96"
         style="fill:#000000;fill-opacity:1;fill-rule:nonzero;stroke:none"
         d="m 97.727,228.801 0,6.796 -0.563,0 c -0.297,-1.046 -0.484,-1.187 -1.781,-1.343 l 0,-0.61 1.5,0 0,-4.843 0.844,0 z" /><path
         id="path98"
         style="fill:#000000;fill-opacity:1;fill-rule:nonzero;stroke:none"
         d="m 100.059,275.265 c 0,2.36 -0.75,3.532 -2.219,3.532 -1.469,0 -2.235,-1.188 -2.235,-3.469 0,-2.297 0.782,-3.469 2.235,-3.469 1.437,0 2.219,1.172 2.219,3.406 z m -0.86,0.079 c 0,-1.922 -0.437,-2.782 -1.375,-2.782 -0.89,0 -1.344,0.891 -1.344,2.75 0,1.875 0.454,2.735 1.36,2.735 0.906,0 1.359,-0.875 1.359,-2.703 z" /><path
         id="path100"
         style="fill:#000000;fill-opacity:1;fill-rule:nonzero;stroke:none"
         d="m 98.527,314.398 0,6.797 -0.562,0 c -0.297,-1.047 -0.485,-1.187 -1.781,-1.344 l 0,-0.609 1.5,0 0,-4.844 0.843,0 z" /><path
         id="path102"
         style="fill:#000000;fill-opacity:1;fill-rule:nonzero;stroke:none"
         d="m 309.562,36.601 0,0.797 -4.703,0 0,-7 0.891,0 0,3.188 3.344,0 0,0.781 -3.344,0 0,2.234 3.812,0 z" /><path
         id="path104"
         style="fill:#000000;fill-opacity:1;fill-rule:nonzero;stroke:none"
         d="m 312.609,34.726 0,0.813 c -0.14,0.015 -0.203,0.031 -0.312,0.031 -0.516,0 -0.906,-0.312 -1.359,-1.062 l 0,0.921 -0.735,0 0,-5.031 0.797,0 0,2.61 c 0,1.125 0.375,1.703 1.609,1.718 z" /><path
         id="path106"
         style="fill:#000000;fill-opacity:1;fill-rule:nonzero;stroke:none"
         d="m 317.562,32.679 c 0,0.735 -0.062,1.188 -0.203,1.563 -0.328,0.828 -1.093,1.328 -2.031,1.328 -1.406,0 -2.297,-1.031 -2.297,-2.687 0,-1.657 0.86,-2.625 2.281,-2.625 1.141,0 1.938,0.656 2.141,1.671 l -0.797,0 c -0.218,-0.671 -0.672,-0.937 -1.312,-0.937 -0.844,0 -1.469,0.531 -1.485,1.687 l 3.703,0 z m -0.859,0.719 c 0,0 0,-0.047 0,-0.062 l -2.828,0 c 0.078,0.89 0.641,1.5 1.437,1.5 0.797,0 1.391,-0.657 1.391,-1.438 z m 0.344,4 -1.094,0 -0.922,-1.422 0.578,0 1.438,1.422 z" /><path
         id="path108"
         style="fill:#000000;fill-opacity:1;fill-rule:nonzero;stroke:none"
         d="m 322.727,28.304 0,7.125 -0.719,0 0,-0.671 c -0.36,0.531 -0.938,0.812 -1.594,0.812 -1.328,0 -2.187,-1.047 -2.187,-2.719 0,-1.625 0.828,-2.593 2.14,-2.593 0.703,0 1.188,0.25 1.563,0.796 l 0,-2.75 0.797,0 z m -0.797,4.579 c 0,-1.157 -0.563,-1.875 -1.407,-1.875 -0.875,0 -1.468,0.734 -1.468,1.906 0,1.156 0.593,1.906 1.468,1.906 0.86,0 1.407,-0.766 1.407,-1.937 z" /><path
         id="path110"
         style="fill:#000000;fill-opacity:1;fill-rule:nonzero;stroke:none"
         d="m 328.016,30.398 0,5.031 -0.797,0 0,-2.781 c 0,-1.015 -0.531,-1.687 -1.375,-1.687 -0.625,0 -1.032,0.375 -1.032,0.984 l 0,3.484 -0.796,0 0,-3.796 c 0,-0.844 0.625,-1.375 1.593,-1.375 0.75,0 1.219,0.25 1.688,0.921 l 0,-0.781 0.719,0 z" /><path
         id="path112"
         style="fill:#000000;fill-opacity:1;fill-rule:nonzero;stroke:none"
         d="m 333.652,32.679 c 0,0.735 -0.062,1.188 -0.203,1.563 -0.328,0.828 -1.094,1.328 -2.031,1.328 -1.406,0 -2.297,-1.031 -2.297,-2.687 0,-1.657 0.859,-2.625 2.281,-2.625 1.141,0 1.938,0.656 2.141,1.671 l -0.797,0 c -0.219,-0.671 -0.672,-0.937 -1.312,-0.937 -0.844,0 -1.469,0.531 -1.485,1.687 l 3.703,0 z m -0.859,0.719 c 0,0 0,-0.047 0,-0.062 l -2.828,0 c 0.078,0.89 0.64,1.5 1.437,1.5 0.797,0 1.391,-0.657 1.391,-1.438 z" /><path
         id="path114"
         style="fill:#000000;fill-opacity:1;fill-rule:nonzero;stroke:none"
         d="m 338.738,30.398 0,3.797 c 0,0.844 -0.625,1.375 -1.593,1.375 -0.75,0 -1.219,-0.281 -1.672,-0.984 l 0,0.843 -0.735,0 0,-5.031 0.797,0 0,2.766 c 0,1.031 0.563,1.703 1.375,1.703 0.625,0 1.031,-0.375 1.031,-0.984 l 0,-3.485 0.797,0 z" /><path
         id="path116"
         style="fill:#000000;fill-opacity:1;fill-rule:nonzero;stroke:none"
         d="m 343.984,32.133 -0.812,0 c -0.125,-0.813 -0.547,-1.141 -1.219,-1.141 -0.891,0 -1.422,0.687 -1.422,1.875 0,1.25 0.531,1.969 1.391,1.969 0.672,0 1.094,-0.407 1.203,-1.094 l 0.797,0 c -0.094,1.219 -0.86,1.828 -1.984,1.828 -1.344,0 -2.235,-1.031 -2.235,-2.703 0,-1.625 0.859,-2.609 2.219,-2.609 1.203,0 1.969,0.718 2.062,1.875 z" /><path
         id="path118"
         style="fill:#000000;fill-opacity:1;fill-rule:nonzero;stroke:none"
         d="m 349.125,32.679 c 0,0.735 -0.063,1.188 -0.203,1.563 -0.328,0.828 -1.094,1.328 -2.031,1.328 -1.407,0 -2.297,-1.031 -2.297,-2.687 0,-1.657 0.859,-2.625 2.281,-2.625 1.141,0 1.937,0.656 2.141,1.671 l -0.797,0 c -0.219,-0.671 -0.672,-0.937 -1.313,-0.937 -0.844,0 -1.468,0.531 -1.484,1.687 l 3.703,0 z m -0.859,0.719 c 0,0 0,-0.047 0,-0.062 l -2.828,0 c 0.078,0.89 0.64,1.5 1.437,1.5 0.797,0 1.391,-0.657 1.391,-1.438 z" /><path
         id="path120"
         style="fill:#000000;fill-opacity:1;fill-rule:nonzero;stroke:none"
         d="m 355.008,28.367 c -0.844,1.375 -1.313,2.984 -1.313,4.516 0,1.531 0.469,3.14 1.313,4.515 l -0.531,0 c -0.954,-1.265 -1.563,-3.015 -1.563,-4.515 0,-1.516 0.609,-3.266 1.563,-4.516 l 0.531,0 z" /><path
         id="path122"
         style="fill:#000000;fill-opacity:1;fill-rule:nonzero;stroke:none"
         d="m 361.609,30.398 0,7 -0.89,0 0,-3.031 -3.594,0 0,3.031 -0.891,0 0,-7 0.891,0 0,3.188 3.594,0 0,-3.188 0.89,0 z" /><path
         id="path124"
         style="fill:#000000;fill-opacity:1;fill-rule:nonzero;stroke:none"
         d="m 366.758,30.398 0,0.703 -3.125,0 2.984,3.61 0,0.718 -3.75,0 0,-0.703 2.797,0 -3,-3.609 0,-0.719 4.094,0 z" /><path
         id="path126"
         style="fill:#000000;fill-opacity:1;fill-rule:nonzero;stroke:none"
         d="m 369.621,32.867 c 0,1.516 -0.594,3.266 -1.562,4.531 l -0.532,0 c 0.844,-1.375 1.313,-2.984 1.313,-4.531 0,-1.516 -0.469,-3.141 -1.313,-4.5 l 0.532,0 c 0.968,1.25 1.562,3 1.562,4.5 z" /><path
         id="path128"
         style="fill:#0000ff;fill-opacity:1;fill-rule:nonzero;stroke:none"
         d="m 83.602,155.582 c -0.844,0 -1.344,-0.391 -1.688,-1.281 -0.297,0.625 -0.828,0.968 -1.531,0.968 -1.016,0 -1.781,-0.75 -1.781,-2.078 l 0,-2.828 7,0 0,3.156 c 0,1.25 -0.844,2.063 -2,2.063 z m -3.094,-1.203 c 0.703,0 1.109,-0.422 1.109,-1.407 l 0,-1.718 -2.219,0 0,1.718 c 0,0.985 0.407,1.407 1.11,1.407 z m 3.109,0.297 c 0.672,0 1.203,-0.407 1.203,-1.25 l 0,-2.172 -2.406,0 0,2.172 c 0,0.843 0.516,1.25 1.203,1.25 z" /><path
         id="path130"
         style="fill:#0000ff;fill-opacity:1;fill-rule:nonzero;stroke:none"
         d="m 83.32,160.926 c -0.734,0 -1.187,-0.063 -1.562,-0.204 -0.828,-0.328 -1.328,-1.093 -1.328,-2.031 0,-1.406 1.031,-2.297 2.687,-2.297 1.656,0 2.625,0.86 2.625,2.282 0,1.14 -0.656,1.937 -1.672,2.14 l 0,-0.797 c 0.672,-0.218 0.938,-0.672 0.938,-1.312 0,-0.844 -0.531,-1.469 -1.688,-1.485 l 0,3.704 z m -0.718,-0.86 c 0,0 0.046,0 0.062,0 l 0,-2.828 c -0.891,0.078 -1.5,0.641 -1.5,1.438 0,0.796 0.656,1.39 1.438,1.39 z" /><path
         id="path132"
         style="fill:#0000ff;fill-opacity:1;fill-rule:nonzero;stroke:none"
         d="m 84.195,165.746 c -0.75,0 -1.125,-0.422 -1.359,-1.422 l -0.188,-0.766 c -0.156,-0.656 -0.359,-0.937 -0.718,-0.937 -0.469,0 -0.766,0.422 -0.766,1.062 0,0.657 0.281,1 0.813,1.016 l 0,0.844 c -0.985,-0.016 -1.547,-0.656 -1.547,-1.828 0,-1.172 0.609,-1.922 1.531,-1.922 0.797,0 1.172,0.406 1.453,1.594 l 0.188,0.75 c 0.125,0.546 0.296,0.765 0.656,0.765 0.469,0 0.75,-0.469 0.75,-1.172 0,-0.718 -0.172,-1.109 -0.938,-1.218 l 0,-0.844 c 1.157,0.031 1.672,0.687 1.672,2 0,1.265 -0.578,2.078 -1.547,2.078 z" /><path
         id="path134"
         style="fill:#0000ff;fill-opacity:1;fill-rule:nonzero;stroke:none"
         d="m 84.195,170.547 c -0.75,0 -1.125,-0.422 -1.359,-1.422 l -0.188,-0.766 c -0.156,-0.656 -0.359,-0.937 -0.718,-0.937 -0.469,0 -0.766,0.422 -0.766,1.062 0,0.656 0.281,1 0.813,1.016 l 0,0.844 c -0.985,-0.016 -1.547,-0.657 -1.547,-1.829 0,-1.171 0.609,-1.921 1.531,-1.921 0.797,0 1.172,0.406 1.453,1.593 l 0.188,0.75 c 0.125,0.547 0.296,0.766 0.656,0.766 0.469,0 0.75,-0.469 0.75,-1.172 0,-0.719 -0.172,-1.109 -0.938,-1.219 l 0,-0.843 c 1.157,0.031 1.672,0.687 1.672,2 0,1.265 -0.578,2.078 -1.547,2.078 z" /><path
         id="path136"
         style="fill:#0000ff;fill-opacity:1;fill-rule:nonzero;stroke:none"
         d="m 83.32,175.863 c -0.734,0 -1.187,-0.062 -1.562,-0.203 -0.828,-0.328 -1.328,-1.094 -1.328,-2.031 0,-1.407 1.031,-2.297 2.687,-2.297 1.656,0 2.625,0.859 2.625,2.281 0,1.141 -0.656,1.938 -1.672,2.141 l 0,-0.797 c 0.672,-0.219 0.938,-0.672 0.938,-1.313 0,-0.843 -0.531,-1.468 -1.688,-1.484 l 0,3.703 z m -0.718,-0.859 c 0,0 0.046,0 0.062,0 l 0,-2.828 c -0.891,0.078 -1.5,0.64 -1.5,1.437 0,0.797 0.656,1.391 1.438,1.391 z" /><path
         id="path138"
         style="fill:#0000ff;fill-opacity:1;fill-rule:nonzero;stroke:none"
         d="m 78.602,177.73 7,0 0,-0.797 -7,0 0,0.797 z" /><path
         id="path140"
         style="fill:#0000ff;fill-opacity:1;fill-rule:nonzero;stroke:none"
         d="m 86.82,183.984 0.484,0 0,-5.766 -0.484,0 0,5.766 z" /><path
         id="path142"
         style="fill:#0000ff;fill-opacity:1;fill-rule:nonzero;stroke:none"
         d="m 85.602,188.523 -7,0 0,-0.797 2.609,0 c -0.516,-0.343 -0.781,-0.875 -0.781,-1.547 0,-1.296 1.015,-2.156 2.609,-2.156 1.703,0 2.703,0.828 2.703,2.188 0,0.687 -0.25,1.172 -0.875,1.593 l 0.735,0 0,0.719 z m -2.5,-0.797 c 1.171,0 1.89,-0.562 1.89,-1.406 0,-0.875 -0.734,-1.469 -1.906,-1.469 -1.172,0 -1.906,0.594 -1.906,1.469 0,0.859 0.765,1.406 1.922,1.406 z" /><path
         id="path144"
         style="fill:#0000ff;fill-opacity:1;fill-rule:nonzero;stroke:none"
         d="m 83.602,195.097 c -0.844,0 -1.344,-0.39 -1.688,-1.281 -0.297,0.625 -0.828,0.969 -1.531,0.969 -1.016,0 -1.781,-0.75 -1.781,-2.078 l 0,-2.828 7,0 0,3.156 c 0,1.25 -0.844,2.062 -2,2.062 z m -3.094,-1.203 c 0.703,0 1.109,-0.422 1.109,-1.406 l 0,-1.719 -2.219,0 0,1.719 c 0,0.984 0.407,1.406 1.11,1.406 z m 3.109,0.297 c 0.672,0 1.203,-0.406 1.203,-1.25 l 0,-2.172 -2.406,0 0,2.172 c 0,0.844 0.516,1.25 1.203,1.25 z" /><path
         id="path146"
         style="fill:#0000ff;fill-opacity:1;fill-rule:nonzero;stroke:none"
         d="m 83.68,201.496 c -0.86,0 -1.5,-0.531 -1.75,-1.484 l -0.469,-1.75 c -0.219,-0.844 -0.5,-1.157 -1.047,-1.157 -0.703,0 -1.234,0.625 -1.234,1.563 0,1.109 0.515,1.75 1.422,1.75 l 0,0.844 c -1.375,0 -2.172,-0.954 -2.172,-2.563 0,-1.531 0.843,-2.484 2.109,-2.484 0.859,0 1.391,0.453 1.641,1.375 l 0.453,1.734 c 0.234,0.875 0.594,1.281 1.14,1.281 0.766,0 1.219,-0.578 1.219,-1.781 0,-1.328 -0.672,-1.969 -1.672,-1.969 l 0,-0.859 c 1.657,0 2.453,1.125 2.453,2.766 0,1.781 -0.843,2.734 -2.093,2.734 z" /><path
         id="path148"
         style="fill:#0000ff;fill-opacity:1;fill-rule:nonzero;stroke:none"
         d="m 80.789,206.855 c -1.141,0 -1.984,-0.89 -1.984,-2.187 0,-1.391 0.703,-2.188 2.359,-2.235 l 0,0.844 c -1.141,0.063 -1.625,0.531 -1.625,1.375 0,0.766 0.547,1.328 1.281,1.328 0.532,0 0.985,-0.312 1.344,-0.906 l 0.5,-0.891 c 0.797,-1.421 1.438,-1.828 2.938,-1.906 l 0,4.531 -0.829,0 0,-3.578 c -0.562,0.078 -0.921,0.391 -1.406,1.219 l -0.515,0.969 c -0.516,0.937 -1.219,1.437 -2.063,1.437 z" /><path
         id="path150"
         style="fill:#0000ff;fill-opacity:1;fill-rule:nonzero;stroke:none"
         d="m 85.602,210.613 -6.797,0 0,-0.562 c 1.047,-0.297 1.187,-0.485 1.343,-1.782 l 0.61,0 0,1.5 4.844,0 0,0.844 z" /><path
         id="path152"
         style="fill:#ff0000;fill-opacity:1;fill-rule:nonzero;stroke:none"
         d="m 65.199,141.984 c -0.844,0 -1.344,-0.39 -1.687,-1.281 -0.297,0.625 -0.828,0.969 -1.532,0.969 -1.015,0 -1.781,-0.75 -1.781,-2.078 l 0,-2.829 7,0 0,3.157 c 0,1.25 -0.844,2.062 -2,2.062 z m -3.094,-1.203 c 0.704,0 1.11,-0.422 1.11,-1.406 l 0,-1.719 -2.219,0 0,1.719 c 0,0.984 0.406,1.406 1.109,1.406 z m 3.11,0.297 c 0.672,0 1.203,-0.406 1.203,-1.25 l 0,-2.172 -2.406,0 0,2.172 c 0,0.844 0.515,1.25 1.203,1.25 z" /><path
         id="path154"
         style="fill:#ff0000;fill-opacity:1;fill-rule:nonzero;stroke:none"
         d="m 67.199,147.027 -5.031,0 0,-0.797 2.781,0 c 1.016,0 1.688,-0.531 1.688,-1.375 0,-0.625 -0.375,-1.031 -0.985,-1.031 l -3.484,0 0,-0.797 3.797,0 c 0.844,0 1.375,0.625 1.375,1.594 0,0.75 -0.25,1.219 -0.922,1.687 l 0.781,0 0,0.719 z" /><path
         id="path156"
         style="fill:#ff0000;fill-opacity:1;fill-rule:nonzero;stroke:none"
         d="m 67.199,150.176 -0.672,0 c 0.032,-0.11 0.032,-0.235 0.032,-0.391 0,-0.344 -0.094,-0.438 -0.438,-0.438 l -3.297,0 0,0.829 -0.656,0 0,-0.829 -1.375,0 0,-0.796 1.375,0 0,-0.672 0.656,0 0,0.672 3.641,0 c 0.515,0 0.797,0.343 0.797,0.968 0,0.188 -0.016,0.391 -0.063,0.657 z" /><path
         id="path158"
         style="fill:#ff0000;fill-opacity:1;fill-rule:nonzero;stroke:none"
         d="m 67.199,152.847 -0.672,0 c 0.032,-0.109 0.032,-0.234 0.032,-0.39 0,-0.344 -0.094,-0.438 -0.438,-0.438 l -3.297,0 0,0.828 -0.656,0 0,-0.828 -1.375,0 0,-0.797 1.375,0 0,-0.671 0.656,0 0,0.671 3.641,0 c 0.515,0 0.797,0.344 0.797,0.969 0,0.188 -0.016,0.391 -0.063,0.656 z" /><path
         id="path160"
         style="fill:#ff0000;fill-opacity:1;fill-rule:nonzero;stroke:none"
         d="m 64.918,157.855 c -0.734,0 -1.188,-0.062 -1.563,-0.203 -0.828,-0.328 -1.328,-1.094 -1.328,-2.031 0,-1.406 1.032,-2.297 2.688,-2.297 1.656,0 2.625,0.859 2.625,2.281 0,1.141 -0.656,1.938 -1.672,2.141 l 0,-0.797 c 0.672,-0.219 0.937,-0.672 0.937,-1.312 0,-0.844 -0.531,-1.469 -1.687,-1.485 l 0,3.703 z m -0.719,-0.859 c 0,0 0.047,0 0.063,0 l 0,-2.828 c -0.891,0.078 -1.5,0.64 -1.5,1.437 0,0.797 0.656,1.391 1.437,1.391 z" /><path
         id="path162"
         style="fill:#ff0000;fill-opacity:1;fill-rule:nonzero;stroke:none"
         d="m 62.871,161.347 -0.812,0 c -0.016,-0.14 -0.032,-0.203 -0.032,-0.312 0,-0.516 0.313,-0.906 1.063,-1.359 l -0.922,0 0,-0.735 5.031,0 0,0.797 -2.609,0 c -1.125,0 -1.703,0.375 -1.719,1.609 z" /><path
         id="path164"
         style="fill:#ff0000;fill-opacity:1;fill-rule:nonzero;stroke:none"
         d="m 62.168,168.562 0,-0.906 3.922,-1 -3.922,-0.984 0,-0.985 3.922,-0.953 -3.922,-1.031 0,-0.875 5.031,1.453 0,0.906 -3.937,0.969 3.937,1.016 0,0.906 -5.031,1.484 z" /><path
         id="path166"
         style="fill:#ff0000;fill-opacity:1;fill-rule:nonzero;stroke:none"
         d="m 64.73,173.5 c -1.75,0 -2.703,-0.828 -2.703,-2.281 0,-1.407 0.969,-2.266 2.657,-2.266 1.687,0 2.656,0.844 2.656,2.281 0,1.406 -0.969,2.266 -2.61,2.266 z m -0.015,-0.828 c 1.172,0 1.89,-0.563 1.89,-1.438 0,-0.89 -0.703,-1.437 -1.921,-1.437 -1.204,0 -1.922,0.547 -1.922,1.437 0,0.891 0.703,1.438 1.953,1.438 z" /><path
         id="path168"
         style="fill:#ff0000;fill-opacity:1;fill-rule:nonzero;stroke:none"
         d="m 62.871,177.027 -0.812,0 c -0.016,-0.14 -0.032,-0.203 -0.032,-0.312 0,-0.516 0.313,-0.907 1.063,-1.36 l -0.922,0 0,-0.734 5.031,0 0,0.797 -2.609,0 c -1.125,0 -1.703,0.375 -1.719,1.609 z" /><path
         id="path170"
         style="fill:#ff0000;fill-opacity:1;fill-rule:nonzero;stroke:none"
         d="m 67.199,179.879 -0.672,0 c 0.032,-0.11 0.032,-0.235 0.032,-0.391 0,-0.344 -0.094,-0.437 -0.438,-0.437 l -3.297,0 0,0.828 -0.656,0 0,-0.828 -1.375,0 0,-0.797 1.375,0 0,-0.672 0.656,0 0,0.672 3.641,0 c 0.515,0 0.797,0.343 0.797,0.968 0,0.188 -0.016,0.391 -0.063,0.657 z" /><path
         id="path172"
         style="fill:#ff0000;fill-opacity:1;fill-rule:nonzero;stroke:none"
         d="m 67.199,184.699 -3.797,0 c -0.843,0 -1.375,-0.594 -1.375,-1.578 0,-0.703 0.219,-1.141 0.828,-1.609 l -2.656,0 0,-0.797 7,0 0,0.797 -2.765,0 c -1.032,0 -1.704,0.531 -1.704,1.359 0,0.562 0.329,1.031 0.985,1.031 l 3.484,0 0,0.797 z" /><path
         id="path174"
         style="fill:#ff0000;fill-opacity:1;fill-rule:nonzero;stroke:none"
         d="m 68.418,190.929 0.484,0 0,-5.766 -0.484,0 0,5.766 z" /><path
         id="path176"
         style="fill:#ff0000;fill-opacity:1;fill-rule:nonzero;stroke:none"
         d="m 67.199,195.469 -7,0 0,-0.797 2.61,0 c -0.516,-0.344 -0.782,-0.875 -0.782,-1.547 0,-1.297 1.016,-2.156 2.61,-2.156 1.703,0 2.703,0.828 2.703,2.187 0,0.688 -0.25,1.172 -0.875,1.594 l 0.734,0 0,0.719 z m -2.5,-0.797 c 1.172,0 1.891,-0.563 1.891,-1.407 0,-0.875 -0.735,-1.468 -1.906,-1.468 -1.172,0 -1.907,0.593 -1.907,1.468 0,0.86 0.766,1.407 1.922,1.407 z" /><path
         id="path178"
         style="fill:#ff0000;fill-opacity:1;fill-rule:nonzero;stroke:none"
         d="m 65.199,202.043 c -0.844,0 -1.344,-0.391 -1.687,-1.281 -0.297,0.625 -0.828,0.968 -1.532,0.968 -1.015,0 -1.781,-0.75 -1.781,-2.078 l 0,-2.828 7,0 0,3.156 c 0,1.25 -0.844,2.063 -2,2.063 z m -3.094,-1.203 c 0.704,0 1.11,-0.422 1.11,-1.407 l 0,-1.718 -2.219,0 0,1.718 c 0,0.985 0.406,1.407 1.109,1.407 z m 3.11,0.297 c 0.672,0 1.203,-0.407 1.203,-1.25 l 0,-2.172 -2.406,0 0,2.172 c 0,0.843 0.515,1.25 1.203,1.25 z" /><path
         id="path180"
         style="fill:#ff0000;fill-opacity:1;fill-rule:nonzero;stroke:none"
         d="m 65.277,208.441 c -0.859,0 -1.5,-0.531 -1.75,-1.484 l -0.468,-1.75 c -0.219,-0.844 -0.5,-1.156 -1.047,-1.156 -0.703,0 -1.235,0.625 -1.235,1.562 0,1.109 0.516,1.75 1.422,1.75 l 0,0.844 c -1.375,0 -2.172,-0.953 -2.172,-2.563 0,-1.531 0.844,-2.484 2.11,-2.484 0.859,0 1.39,0.453 1.64,1.375 l 0.453,1.734 c 0.235,0.875 0.594,1.282 1.141,1.282 0.766,0 1.219,-0.579 1.219,-1.782 0,-1.328 -0.672,-1.968 -1.672,-1.968 l 0,-0.86 c 1.656,0 2.453,1.125 2.453,2.766 0,1.781 -0.844,2.734 -2.094,2.734 z" /><path
         id="path182"
         style="fill:#ff0000;fill-opacity:1;fill-rule:nonzero;stroke:none"
         d="m 62.387,213.797 c -1.141,0 -1.985,-0.891 -1.985,-2.188 0,-1.39 0.703,-2.187 2.36,-2.234 l 0,0.844 c -1.141,0.062 -1.625,0.531 -1.625,1.375 0,0.765 0.547,1.328 1.281,1.328 0.531,0 0.984,-0.313 1.344,-0.907 l 0.5,-0.89 c 0.797,-1.422 1.437,-1.828 2.937,-1.906 l 0,4.531 -0.828,0 0,-3.578 c -0.562,0.078 -0.922,0.39 -1.406,1.218 l -0.516,0.969 c -0.515,0.938 -1.219,1.438 -2.062,1.438 z" /><path
         id="path184"
         style="fill:#ff0000;fill-opacity:1;fill-rule:nonzero;stroke:none"
         d="m 67.199,217.558 -6.797,0 0,-0.562 c 1.047,-0.297 1.188,-0.484 1.344,-1.781 l 0.609,0 0,1.5 4.844,0 0,0.843 z" /><path
         id="path186"
         style="fill:#ff00ff;fill-opacity:1;fill-rule:nonzero;stroke:none"
         d="m 42.598,140.086 -0.797,0 0,-5.485 0.797,0 0,2.297 6.203,0 0,0.891 -6.203,0 0,2.297 z" /><path
         id="path188"
         style="fill:#ff00ff;fill-opacity:1;fill-rule:nonzero;stroke:none"
         d="m 47.066,143.988 0,-0.812 c 0.813,-0.125 1.141,-0.547 1.141,-1.219 0,-0.891 -0.687,-1.422 -1.875,-1.422 -1.25,0 -1.969,0.531 -1.969,1.391 0,0.671 0.407,1.093 1.094,1.203 l 0,0.797 c -1.219,-0.094 -1.828,-0.86 -1.828,-1.985 0,-1.344 1.031,-2.234 2.703,-2.234 1.625,0 2.609,0.859 2.609,2.219 0,1.203 -0.718,1.968 -1.875,2.062 z" /><path
         id="path190"
         style="fill:#ff00ff;fill-opacity:1;fill-rule:nonzero;stroke:none"
         d="m 48.801,148.867 -3.797,0 c -0.844,0 -1.375,-0.594 -1.375,-1.578 0,-0.703 0.219,-1.141 0.828,-1.61 l -2.656,0 0,-0.796 7,0 0,0.796 -2.766,0 c -1.031,0 -1.703,0.532 -1.703,1.36 0,0.562 0.328,1.031 0.984,1.031 l 3.485,0 0,0.797 z" /><path
         id="path192"
         style="fill:#ff00ff;fill-opacity:1;fill-rule:nonzero;stroke:none"
         d="m 46.52,154.469 c -0.735,0 -1.188,-0.063 -1.563,-0.204 -0.828,-0.328 -1.328,-1.093 -1.328,-2.031 0,-1.406 1.031,-2.297 2.687,-2.297 1.657,0 2.625,0.86 2.625,2.282 0,1.14 -0.656,1.937 -1.671,2.14 l 0,-0.797 c 0.671,-0.218 0.937,-0.672 0.937,-1.312 0,-0.844 -0.531,-1.469 -1.687,-1.485 l 0,3.704 z m -0.719,-0.86 c 0,0 0.047,0 0.062,0 l 0,-2.828 c -0.89,0.078 -1.5,0.641 -1.5,1.438 0,0.796 0.657,1.39 1.438,1.39 z" /><path
         id="path194"
         style="fill:#ff00ff;fill-opacity:1;fill-rule:nonzero;stroke:none"
         d="m 46.223,159.902 c -1.625,0 -2.594,-0.828 -2.594,-2.14 0,-0.704 0.266,-1.188 0.828,-1.563 l -2.656,0 0,-0.797 7,0 0,0.719 -0.719,0 c 0.578,0.391 0.859,0.891 0.859,1.594 0,1.328 -1.078,2.187 -2.718,2.187 z m 0.062,-0.828 c 1.141,0 1.906,-0.594 1.906,-1.469 0,-0.843 -0.765,-1.406 -1.906,-1.406 -1.172,0 -1.953,0.563 -1.906,1.406 0,0.891 0.781,1.469 1.906,1.469 z" /><path
         id="path196"
         style="fill:#ff00ff;fill-opacity:1;fill-rule:nonzero;stroke:none"
         d="m 43.77,164.668 0,-0.86 3.921,-1.39 -3.921,-1.281 0,-0.86 5.046,1.703 0.797,-0.312 c 0.36,-0.125 0.5,-0.297 0.5,-0.641 0,-0.109 -0.031,-0.25 -0.062,-0.422 l 0.719,0 c 0.078,0.172 0.125,0.328 0.125,0.547 0,0.563 -0.313,1.016 -1.032,1.281 l -6.093,2.235 z" /><path
         id="path198"
         style="fill:#ff00ff;fill-opacity:1;fill-rule:nonzero;stroke:none"
         d="m 47.066,169.273 0,-0.812 c 0.813,-0.125 1.141,-0.547 1.141,-1.219 0,-0.891 -0.687,-1.422 -1.875,-1.422 -1.25,0 -1.969,0.531 -1.969,1.391 0,0.672 0.407,1.093 1.094,1.203 l 0,0.797 c -1.219,-0.094 -1.828,-0.86 -1.828,-1.985 0,-1.343 1.031,-2.234 2.703,-2.234 1.625,0 2.609,0.859 2.609,2.219 0,1.203 -0.718,1.968 -1.875,2.062 z" /><path
         id="path200"
         style="fill:#ff00ff;fill-opacity:1;fill-rule:nonzero;stroke:none"
         d="m 48.801,174.152 -3.797,0 c -0.844,0 -1.375,-0.594 -1.375,-1.578 0,-0.703 0.219,-1.141 0.828,-1.609 l -2.656,0 0,-0.797 7,0 0,0.797 -2.766,0 c -1.031,0 -1.703,0.531 -1.703,1.359 0,0.563 0.328,1.031 0.984,1.031 l 3.485,0 0,0.797 z" /><path
         id="path202"
         style="fill:#ff00ff;fill-opacity:1;fill-rule:nonzero;stroke:none"
         d="m 46.52,179.758 c -0.735,0 -1.188,-0.063 -1.563,-0.204 -0.828,-0.328 -1.328,-1.093 -1.328,-2.031 0,-1.406 1.031,-2.297 2.687,-2.297 1.657,0 2.625,0.86 2.625,2.282 0,1.14 -0.656,1.937 -1.671,2.14 l 0,-0.797 c 0.671,-0.218 0.937,-0.672 0.937,-1.312 0,-0.844 -0.531,-1.469 -1.687,-1.485 l 0,3.704 z m -0.719,-0.86 c 0,0 0.047,0 0.062,0 l 0,-2.828 c -0.89,0.078 -1.5,0.641 -1.5,1.438 0,0.796 0.657,1.39 1.438,1.39 z" /><path
         id="path204"
         style="fill:#ff00ff;fill-opacity:1;fill-rule:nonzero;stroke:none"
         d="m 43.77,184.695 0,-0.891 4.078,-1.421 -4.078,-1.344 0,-0.906 5.031,1.765 0,0.875 -5.031,1.922 z" /><path
         id="path206"
         style="fill:#ff00ff;fill-opacity:1;fill-rule:nonzero;stroke:none"
         d="m 50.02,190.383 0.484,0 0,-5.766 -0.484,0 0,5.766 z" /><path
         id="path208"
         style="fill:#ff00ff;fill-opacity:1;fill-rule:nonzero;stroke:none"
         d="m 48.801,194.926 -7,0 0,-0.797 2.609,0 c -0.515,-0.344 -0.781,-0.875 -0.781,-1.547 0,-1.297 1.016,-2.156 2.609,-2.156 1.703,0 2.703,0.828 2.703,2.187 0,0.688 -0.25,1.172 -0.875,1.594 l 0.735,0 0,0.719 z m -2.5,-0.797 c 1.172,0 1.89,-0.563 1.89,-1.407 0,-0.875 -0.734,-1.468 -1.906,-1.468 -1.172,0 -1.906,0.593 -1.906,1.468 0,0.86 0.766,1.407 1.922,1.407 z" /><path
         id="path210"
         style="fill:#ff00ff;fill-opacity:1;fill-rule:nonzero;stroke:none"
         d="m 46.801,201.496 c -0.844,0 -1.344,-0.391 -1.688,-1.281 -0.297,0.625 -0.828,0.968 -1.531,0.968 -1.016,0 -1.781,-0.75 -1.781,-2.078 l 0,-2.828 7,0 0,3.156 c 0,1.25 -0.844,2.063 -2,2.063 z m -3.094,-1.203 c 0.703,0 1.109,-0.422 1.109,-1.406 l 0,-1.719 -2.218,0 0,1.719 c 0,0.984 0.406,1.406 1.109,1.406 z m 3.109,0.297 c 0.672,0 1.204,-0.407 1.204,-1.25 l 0,-2.172 -2.407,0 0,2.172 c 0,0.843 0.516,1.25 1.203,1.25 z" /><path
         id="path212"
         style="fill:#ff00ff;fill-opacity:1;fill-rule:nonzero;stroke:none"
         d="m 46.879,207.898 c -0.859,0 -1.5,-0.531 -1.75,-1.484 l -0.469,-1.75 c -0.219,-0.844 -0.5,-1.156 -1.047,-1.156 -0.703,0 -1.234,0.625 -1.234,1.562 0,1.109 0.516,1.75 1.422,1.75 l 0,0.844 c -1.375,0 -2.172,-0.953 -2.172,-2.563 0,-1.531 0.844,-2.484 2.109,-2.484 0.86,0 1.391,0.453 1.641,1.375 l 0.453,1.734 c 0.234,0.875 0.594,1.282 1.141,1.282 0.765,0 1.218,-0.579 1.218,-1.782 0,-1.328 -0.671,-1.968 -1.671,-1.968 l 0,-0.86 c 1.656,0 2.453,1.125 2.453,2.766 0,1.781 -0.844,2.734 -2.094,2.734 z" /><path
         id="path214"
         style="fill:#ff00ff;fill-opacity:1;fill-rule:nonzero;stroke:none"
         d="m 43.988,213.254 c -1.14,0 -1.984,-0.891 -1.984,-2.188 0,-1.39 0.703,-2.187 2.359,-2.234 l 0,0.844 c -1.14,0.062 -1.625,0.531 -1.625,1.375 0,0.765 0.547,1.328 1.282,1.328 0.531,0 0.984,-0.313 1.343,-0.907 l 0.5,-0.89 c 0.797,-1.422 1.438,-1.828 2.938,-1.906 l 0,4.531 -0.828,0 0,-3.578 c -0.563,0.078 -0.922,0.39 -1.407,1.218 l -0.515,0.969 c -0.516,0.938 -1.219,1.438 -2.063,1.438 z" /><path
         id="path216"
         style="fill:#ff00ff;fill-opacity:1;fill-rule:nonzero;stroke:none"
         d="m 48.801,217.012 -6.797,0 0,-0.563 c 1.047,-0.297 1.187,-0.484 1.344,-1.781 l 0.609,0 0,1.5 4.844,0 0,0.844 z" /><path
         id="path218"
         style="fill:#00ff00;fill-opacity:1;fill-rule:nonzero;stroke:none"
         d="m 27.852,157.699 0,-0.922 c 1.312,-0.219 1.937,-0.765 1.937,-1.953 0,-1.391 -1.062,-2.266 -2.812,-2.266 -1.797,0 -2.954,0.844 -2.954,2.188 0,1.094 0.485,1.672 1.547,1.891 l 0,0.906 c -1.531,-0.266 -2.343,-1.156 -2.343,-2.688 0,-2.125 1.718,-3.203 3.75,-3.203 2.046,0 3.593,1.11 3.593,3.156 0,1.719 -0.906,2.672 -2.718,2.891 z" /><path
         id="path220"
         style="fill:#00ff00;fill-opacity:1;fill-rule:nonzero;stroke:none"
         d="m 30.383,163.254 -0.61,0 c 0.016,-0.078 0.016,-0.11 0.016,-0.172 0,-0.266 -0.141,-0.422 -0.391,-0.422 l -2.796,0 c -0.891,0 -1.375,-0.656 -1.375,-1.891 0,-1.218 0.468,-1.968 1.625,-2.015 l 0,0.797 c -0.61,0.078 -0.891,0.437 -0.891,1.187 0,0.719 0.281,1.125 0.75,1.125 l 0.219,0 c 0.328,0 0.468,-0.203 0.547,-0.844 0.156,-1.125 0.187,-1.297 0.312,-1.609 0.234,-0.578 0.688,-0.875 1.297,-0.875 0.922,0 1.453,0.625 1.453,1.641 0,0.656 -0.266,1.265 -0.734,1.718 0.375,0.078 0.656,0.422 0.656,0.813 0,0.172 -0.016,0.297 -0.078,0.547 z m -1.719,-1.391 c 0.719,0 1.172,-0.734 1.172,-1.516 0,-0.609 -0.219,-0.984 -0.766,-0.984 -0.531,0 -0.75,0.359 -0.875,1.219 -0.125,0.844 -0.156,1.015 -0.281,1.281 l 0.75,0 z" /><path
         id="path222"
         style="fill:#00ff00;fill-opacity:1;fill-rule:nonzero;stroke:none"
         d="m 30.398,168.094 -5.031,0 0,-0.797 2.781,0 c 1.016,0 1.688,-0.532 1.688,-1.375 0,-0.625 -0.375,-1.032 -0.984,-1.032 l -3.485,0 0,-0.796 3.797,0 c 0.844,0 1.375,0.625 1.375,1.593 0,0.75 -0.25,1.219 -0.922,1.688 l 0.781,0 0,0.719 z" /><path
         id="path224"
         style="fill:#00ff00;fill-opacity:1;fill-rule:nonzero;stroke:none"
         d="m 28.117,173.726 c -0.734,0 -1.187,-0.062 -1.562,-0.203 -0.828,-0.328 -1.328,-1.094 -1.328,-2.031 0,-1.406 1.031,-2.297 2.687,-2.297 1.656,0 2.625,0.859 2.625,2.281 0,1.141 -0.656,1.938 -1.672,2.141 l 0,-0.797 c 0.672,-0.219 0.938,-0.672 0.938,-1.312 0,-0.844 -0.532,-1.469 -1.688,-1.485 l 0,3.703 z m -0.719,-0.859 c 0,0 0.047,0 0.063,0 l 0,-2.828 c -0.891,0.078 -1.5,0.64 -1.5,1.437 0,0.797 0.656,1.391 1.437,1.391 z" /><path
         id="path226"
         style="fill:#00ff00;fill-opacity:1;fill-rule:nonzero;stroke:none"
         d="m 26.07,177.25 -0.812,0 c -0.016,-0.141 -0.031,-0.203 -0.031,-0.313 0,-0.515 0.312,-0.906 1.062,-1.359 l -0.922,0 0,-0.734 5.031,0 0,0.796 -2.609,0 c -1.125,0 -1.703,0.375 -1.719,1.61 z" /><path
         id="path228"
         style="fill:#00ff00;fill-opacity:1;fill-rule:nonzero;stroke:none"
         d="m 31.617,182.914 0.484,0 0,-5.766 -0.484,0 0,5.766 z" /><path
         id="path230"
         style="fill:#00ff00;fill-opacity:1;fill-rule:nonzero;stroke:none"
         d="m 30.398,187.457 -7,0 0,-0.797 2.61,0 c -0.516,-0.344 -0.781,-0.875 -0.781,-1.547 0,-1.297 1.015,-2.156 2.609,-2.156 1.703,0 2.703,0.828 2.703,2.187 0,0.688 -0.25,1.172 -0.875,1.594 l 0.734,0 0,0.719 z m -2.5,-0.797 c 1.172,0 1.891,-0.563 1.891,-1.406 0,-0.875 -0.734,-1.469 -1.906,-1.469 -1.172,0 -1.906,0.594 -1.906,1.469 0,0.859 0.765,1.406 1.921,1.406 z" /><path
         id="path232"
         style="fill:#00ff00;fill-opacity:1;fill-rule:nonzero;stroke:none"
         d="m 28.398,194.027 c -0.843,0 -1.343,-0.39 -1.687,-1.281 -0.297,0.625 -0.828,0.969 -1.531,0.969 -1.016,0 -1.782,-0.75 -1.782,-2.078 l 0,-2.829 7,0 0,3.157 c 0,1.25 -0.843,2.062 -2,2.062 z m -3.093,-1.203 c 0.703,0 1.109,-0.422 1.109,-1.406 l 0,-1.719 -2.219,0 0,1.719 c 0,0.984 0.407,1.406 1.11,1.406 z m 3.109,0.297 c 0.672,0 1.203,-0.406 1.203,-1.25 l 0,-2.172 -2.406,0 0,2.172 c 0,0.844 0.516,1.25 1.203,1.25 z" /><path
         id="path234"
         style="fill:#00ff00;fill-opacity:1;fill-rule:nonzero;stroke:none"
         d="m 28.477,200.429 c -0.86,0 -1.5,-0.531 -1.75,-1.484 l -0.469,-1.75 c -0.219,-0.844 -0.5,-1.156 -1.047,-1.156 -0.703,0 -1.234,0.625 -1.234,1.562 0,1.11 0.515,1.75 1.421,1.75 l 0,0.844 c -1.375,0 -2.171,-0.953 -2.171,-2.562 0,-1.532 0.843,-2.485 2.109,-2.485 0.859,0 1.391,0.453 1.641,1.375 l 0.453,1.735 c 0.234,0.875 0.593,1.281 1.14,1.281 0.766,0 1.219,-0.578 1.219,-1.781 0,-1.329 -0.672,-1.969 -1.672,-1.969 l 0,-0.86 c 1.656,0 2.453,1.125 2.453,2.766 0,1.781 -0.843,2.734 -2.093,2.734 z" /><path
         id="path236"
         style="fill:#00ff00;fill-opacity:1;fill-rule:nonzero;stroke:none"
         d="m 25.586,205.785 c -1.141,0 -1.984,-0.891 -1.984,-2.188 0,-1.39 0.703,-2.187 2.359,-2.234 l 0,0.844 c -1.141,0.062 -1.625,0.531 -1.625,1.375 0,0.765 0.547,1.328 1.281,1.328 0.531,0 0.985,-0.313 1.344,-0.906 l 0.5,-0.891 c 0.797,-1.422 1.437,-1.828 2.937,-1.906 l 0,4.531 -0.828,0 0,-3.578 c -0.562,0.078 -0.922,0.391 -1.406,1.219 l -0.516,0.968 c -0.515,0.938 -1.218,1.438 -2.062,1.438 z" /><path
         id="path238"
         style="fill:#00ff00;fill-opacity:1;fill-rule:nonzero;stroke:none"
         d="m 30.398,209.543 -6.796,0 0,-0.563 c 1.046,-0.297 1.187,-0.484 1.343,-1.781 l 0.61,0 0,1.5 4.843,0 0,0.844 z" /></g></g></svg>