<?xml version="1.0" encoding="UTF-8" standalone="no"?>
<svg
   xmlns:dc="http://purl.org/dc/elements/1.1/"
   xmlns:cc="http://creativecommons.org/ns#"
   xmlns:rdf="http://www.w3.org/1999/02/22-rdf-syntax-ns#"
   xmlns:svg="http://www.w3.org/2000/svg"
   xmlns="http://www.w3.org/2000/svg"
   viewBox="0 0 361.41602 206.12399"
   height="206.12399"
   width="361.41602"
   xml:space="preserve"
   version="1.1"
   id="svg2"><metadata
     id="metadata8"><rdf:RDF><cc:Work
         rdf:about=""><dc:format>image/svg+xml</dc:format><dc:type
           rdf:resource="http://purl.org/dc/dcmitype/StillImage" /></cc:Work></rdf:RDF></metadata><defs
     id="defs6" /><g
     transform="matrix(1.25,0,0,-1.25,0,206.124)"
     id="g10"><g
       id="g12"><path
         id="path14"
         style="fill:none;stroke:#c0c0c0;stroke-width:0.80000001;stroke-linecap:square;stroke-linejoin:bevel;stroke-miterlimit:4;stroke-dasharray:none;stroke-opacity:1"
         d="m 91.969,150.891 192,0" /><path
         id="path16"
         style="fill:none;stroke:#c0c0c0;stroke-width:0.80000001;stroke-linecap:square;stroke-linejoin:bevel;stroke-miterlimit:4;stroke-dasharray:none;stroke-opacity:1"
         d="m 91.969,139.692 192,0" /><path
         id="path18"
         style="fill:none;stroke:#c0c0c0;stroke-width:0.80000001;stroke-linecap:square;stroke-linejoin:bevel;stroke-miterlimit:4;stroke-dasharray:none;stroke-opacity:1"
         d="m 91.969,127.692 192,0" /><path
         id="path20"
         style="fill:none;stroke:#c0c0c0;stroke-width:0.80000001;stroke-linecap:square;stroke-linejoin:bevel;stroke-miterlimit:4;stroke-dasharray:none;stroke-opacity:1"
         d="m 91.969,116.493 192,0" /><path
         id="path22"
         style="fill:none;stroke:#c0c0c0;stroke-width:0.80000001;stroke-linecap:square;stroke-linejoin:bevel;stroke-miterlimit:4;stroke-dasharray:none;stroke-opacity:1"
         d="m 91.969,104.493 192,0" /><path
         id="path24"
         style="fill:none;stroke:#c0c0c0;stroke-width:0.80000001;stroke-linecap:square;stroke-linejoin:bevel;stroke-miterlimit:4;stroke-dasharray:none;stroke-opacity:1"
         d="m 91.969,93.29 192,0" /><path
         id="path26"
         style="fill:none;stroke:#c0c0c0;stroke-width:0.80000001;stroke-linecap:square;stroke-linejoin:bevel;stroke-miterlimit:4;stroke-dasharray:none;stroke-opacity:1"
         d="m 91.969,81.29 192,0" /><path
         id="path28"
         style="fill:none;stroke:#c0c0c0;stroke-width:0.80000001;stroke-linecap:square;stroke-linejoin:bevel;stroke-miterlimit:4;stroke-dasharray:none;stroke-opacity:1"
         d="m 91.969,70.091 192,0" /><path
         id="path30"
         style="fill:none;stroke:#c0c0c0;stroke-width:0.80000001;stroke-linecap:square;stroke-linejoin:bevel;stroke-miterlimit:4;stroke-dasharray:none;stroke-opacity:1"
         d="m 91.969,58.091 192,0" /><path
         id="path32"
         style="fill:none;stroke:#c0c0c0;stroke-width:0.80000001;stroke-linecap:square;stroke-linejoin:bevel;stroke-miterlimit:4;stroke-dasharray:none;stroke-opacity:1"
         d="m 91.969,46.891 192,0" /><path
         id="path34"
         style="fill:none;stroke:#c0c0c0;stroke-width:0.80000001;stroke-linecap:square;stroke-linejoin:bevel;stroke-miterlimit:4;stroke-dasharray:none;stroke-opacity:1"
         d="m 187.969,162.891 0,-128" /><path
         id="path36"
         style="fill:none;stroke:#000000;stroke-width:0.80000001;stroke-linecap:square;stroke-linejoin:bevel;stroke-miterlimit:4;stroke-dasharray:none;stroke-opacity:1"
         d="m 91.969,38.891 0,-8" /><path
         id="path38"
         style="fill:none;stroke:#000000;stroke-width:0.80000001;stroke-linecap:square;stroke-linejoin:bevel;stroke-miterlimit:4;stroke-dasharray:none;stroke-opacity:1"
         d="m 187.969,38.891 0,-8" /><path
         id="path40"
         style="fill:none;stroke:#000000;stroke-width:0.80000001;stroke-linecap:square;stroke-linejoin:bevel;stroke-miterlimit:4;stroke-dasharray:none;stroke-opacity:1"
         d="m 283.969,38.891 0,-8" /><path
         id="path42"
         style="fill:none;stroke:#000000;stroke-width:0.80000001;stroke-linecap:square;stroke-linejoin:bevel;stroke-miterlimit:4;stroke-dasharray:none;stroke-opacity:1"
         d="m 87.969,34.891 8,0" /><path
         id="path44"
         style="fill:none;stroke:#000000;stroke-width:0.80000001;stroke-linecap:square;stroke-linejoin:bevel;stroke-miterlimit:4;stroke-dasharray:none;stroke-opacity:1"
         d="m 87.969,46.891 8,0" /><path
         id="path46"
         style="fill:none;stroke:#000000;stroke-width:0.80000001;stroke-linecap:square;stroke-linejoin:bevel;stroke-miterlimit:4;stroke-dasharray:none;stroke-opacity:1"
         d="m 87.969,58.091 8,0" /><path
         id="path48"
         style="fill:none;stroke:#000000;stroke-width:0.80000001;stroke-linecap:square;stroke-linejoin:bevel;stroke-miterlimit:4;stroke-dasharray:none;stroke-opacity:1"
         d="m 87.969,70.091 8,0" /><path
         id="path50"
         style="fill:none;stroke:#000000;stroke-width:0.80000001;stroke-linecap:square;stroke-linejoin:bevel;stroke-miterlimit:4;stroke-dasharray:none;stroke-opacity:1"
         d="m 87.969,81.29 8,0" /><path
         id="path52"
         style="fill:none;stroke:#000000;stroke-width:0.80000001;stroke-linecap:square;stroke-linejoin:bevel;stroke-miterlimit:4;stroke-dasharray:none;stroke-opacity:1"
         d="m 87.969,93.29 8,0" /><path
         id="path54"
         style="fill:none;stroke:#000000;stroke-width:0.80000001;stroke-linecap:square;stroke-linejoin:bevel;stroke-miterlimit:4;stroke-dasharray:none;stroke-opacity:1"
         d="m 87.969,104.493 8,0" /><path
         id="path56"
         style="fill:none;stroke:#000000;stroke-width:0.80000001;stroke-linecap:square;stroke-linejoin:bevel;stroke-miterlimit:4;stroke-dasharray:none;stroke-opacity:1"
         d="m 87.969,116.493 8,0" /><path
         id="path58"
         style="fill:none;stroke:#000000;stroke-width:0.80000001;stroke-linecap:square;stroke-linejoin:bevel;stroke-miterlimit:4;stroke-dasharray:none;stroke-opacity:1"
         d="m 87.969,127.692 8,0" /><path
         id="path60"
         style="fill:none;stroke:#000000;stroke-width:0.80000001;stroke-linecap:square;stroke-linejoin:bevel;stroke-miterlimit:4;stroke-dasharray:none;stroke-opacity:1"
         d="m 87.969,139.692 8,0" /><path
         id="path62"
         style="fill:none;stroke:#000000;stroke-width:0.80000001;stroke-linecap:square;stroke-linejoin:bevel;stroke-miterlimit:4;stroke-dasharray:none;stroke-opacity:1"
         d="m 87.969,150.891 8,0" /><path
         id="path64"
         style="fill:none;stroke:#000000;stroke-width:0.80000001;stroke-linecap:square;stroke-linejoin:bevel;stroke-miterlimit:4;stroke-dasharray:none;stroke-opacity:1"
         d="m 87.969,162.891 8,0" /><path
         id="path66"
         style="fill:none;stroke:#000000;stroke-width:0.80000001;stroke-linecap:square;stroke-linejoin:bevel;stroke-miterlimit:4;stroke-dasharray:none;stroke-opacity:1"
         d="m 91.969,162.891 192,0" /><path
         id="path68"
         style="fill:none;stroke:#000000;stroke-width:0.80000001;stroke-linecap:square;stroke-linejoin:bevel;stroke-miterlimit:4;stroke-dasharray:none;stroke-opacity:1"
         d="m 283.969,162.891 0,-128" /><path
         id="path70"
         style="fill:none;stroke:#000000;stroke-width:0.80000001;stroke-linecap:square;stroke-linejoin:bevel;stroke-miterlimit:4;stroke-dasharray:none;stroke-opacity:1"
         d="m 91.969,34.891 192,0" /><path
         id="path72"
         style="fill:none;stroke:#000000;stroke-width:0.80000001;stroke-linecap:square;stroke-linejoin:bevel;stroke-miterlimit:4;stroke-dasharray:none;stroke-opacity:1"
         d="m 91.969,162.891 0,-128" /><path
         id="path74"
         style="fill:none;stroke:#0000ff;stroke-width:1.60000002;stroke-linecap:square;stroke-linejoin:bevel;stroke-miterlimit:4;stroke-dasharray:none;stroke-opacity:1"
         d="m 101.57,150.942 0.223,-0.015 0.23,-0.012 0.235,-0.02 0.242,-0.015 0.246,-0.016 0.25,-0.019 0.254,-0.02 0.262,-0.02 0.269,-0.023 0.274,-0.023 0.281,-0.024 0.289,-0.023 0.297,-0.024 0.301,-0.027 0.308,-0.027 0.313,-0.032 0.324,-0.031 0.332,-0.031 0.34,-0.035 0.344,-0.035 0.359,-0.036 0.359,-0.039 0.371,-0.043 0.379,-0.043 0.391,-0.043 0.395,-0.046 0.406,-0.051 0.418,-0.051 0.426,-0.051 0.437,-0.058 0.445,-0.059 0.457,-0.063 0.473,-0.062 0.473,-0.07 0.488,-0.071 0.5,-0.074 0.512,-0.078 0.527,-0.082 0.539,-0.086 0.543,-0.09 0.563,-0.094 0.574,-0.097 0.59,-0.102 0.605,-0.109 0.613,-0.113 0.629,-0.118 0.645,-0.125 0.66,-0.132 0.676,-0.137 0.695,-0.141 0.707,-0.152 0.719,-0.156 0.742,-0.164 0.758,-0.176 0.773,-0.18 0.797,-0.191 0.809,-0.2 0.832,-0.21 0.847,-0.219 0.872,-0.231 0.894,-0.242 0.906,-0.254 0.934,-0.265 0.953,-0.278 0.977,-0.293 1,-0.308 1.023,-0.325 1.043,-0.339 1.07,-0.356 1.094,-0.371 1.125,-0.394 1.145,-0.411 1.171,-0.433 1.204,-0.457 1.23,-0.477 1.254,-0.504 1.289,-0.527 1.316,-0.559 1.352,-0.582 1.375,-0.617 1.414,-0.644 1.438,-0.68 1.48,-0.719 1.512,-0.75 1.547,-0.793 1.582,-0.836 1.621,-0.879 1.656,-0.925 1.695,-0.973 1.739,-1.027 1.773,-1.082 1.82,-1.137 1.86,-1.199 1.902,-1.262 1.949,-1.328 1.992,-1.403 2.039,-1.472 2.086,-1.551 2.141,-1.633 2.18,-1.719 2.242,-1.808 2.285,-1.899 2.34,-1.996 2.394,-2.093 2.454,-2.2 2.507,-2.304 2.571,-2.418 2.625,-2.532 2.691,-2.644 2.754,-2.77 2.809,-2.886 2.882,-3.012 2.946,-3.141 3.019,-3.265 3.09,-3.395 3.152,-3.523 3.235,-3.649 3.305,-3.781 3.386,-3.91 3.465,-4.035 3.547,-4.16 3.625,-4.282 3.707,-4.402 3.797,-4.523 3.887,-4.641 1.73,-2.063" /><path
         id="path76"
         style="fill:none;stroke:#ff0000;stroke-width:1.60000002;stroke-linecap:square;stroke-linejoin:bevel;stroke-miterlimit:4;stroke-dasharray:none;stroke-opacity:1"
         d="m 101.57,151.255 8.274,0 0.418,-0.004 2.711,0 0.488,-0.004 1.539,0 0.539,-0.004 0.543,0 0.563,-0.004 0.574,0 0.59,-0.004 0.605,-0.004 0.613,0 0.629,-0.004 0.645,-0.007 0.66,-0.004 0.676,-0.004 0.695,-0.008 0.707,-0.008 0.719,-0.008 0.742,-0.011 0.758,-0.012 0.773,-0.012 0.797,-0.016 0.809,-0.015 0.832,-0.02 0.847,-0.023 0.872,-0.027 0.894,-0.028 0.906,-0.035 0.934,-0.039 0.953,-0.043 0.977,-0.055 1,-0.058 1.023,-0.067 1.043,-0.078 1.07,-0.09 1.094,-0.101 1.125,-0.117 1.145,-0.133 1.171,-0.153 1.204,-0.175 1.23,-0.203 1.254,-0.227 1.289,-0.262 1.316,-0.301 1.352,-0.339 1.375,-0.391 1.414,-0.441 1.438,-0.504 1.48,-0.575 1.512,-0.648 1.547,-0.734 1.582,-0.832 1.621,-0.938 1.656,-1.055 1.695,-1.187 1.739,-1.328 1.773,-1.481 1.82,-1.652 1.86,-1.828 1.902,-2.024 1.949,-2.226 1.992,-2.442 2.039,-2.664 2.086,-2.894 2.141,-3.133 2.18,-3.371 2.242,-3.613 2.285,-3.852 2.34,-4.09 2.394,-4.32 2.454,-4.543 2.507,-4.754 2.571,-4.961 2.625,-5.156 2.691,-5.332 2.754,-5.5 2.809,-5.656 2.882,-5.797 2.946,-5.93 3.019,-6.043 3.09,-6.152 2.836,-5.61" /><path
         id="path78"
         style="fill:none;stroke:#ff00ff;stroke-width:1.60000002;stroke-linecap:square;stroke-linejoin:bevel;stroke-miterlimit:4;stroke-dasharray:none;stroke-opacity:1"
         d="m 101.57,149.907 0.223,-0.062 0.23,-0.063 0.235,-0.066 0.242,-0.067 0.246,-0.07 0.25,-0.078 0.254,-0.074 0.262,-0.082 0.269,-0.083 0.274,-0.089 0.281,-0.09 0.289,-0.094 0.297,-0.098 0.301,-0.101 0.308,-0.11 0.313,-0.109 0.324,-0.113 0.332,-0.117 0.34,-0.125 0.344,-0.125 0.359,-0.133 0.359,-0.137 0.371,-0.141 0.379,-0.144 0.391,-0.152 0.395,-0.157 0.406,-0.16 0.418,-0.168 0.426,-0.168 0.437,-0.176 0.445,-0.183 0.457,-0.188 0.473,-0.191 0.473,-0.195 0.488,-0.2 0.5,-0.207 0.512,-0.211 0.527,-0.214 0.539,-0.219 0.543,-0.223 0.563,-0.226 0.574,-0.231 0.59,-0.234 0.605,-0.235 0.613,-0.238 0.629,-0.242 0.645,-0.238 0.66,-0.243 0.676,-0.238 0.695,-0.238 0.707,-0.238 0.719,-0.231 0.742,-0.23 0.758,-0.223 0.773,-0.215 0.797,-0.207 0.809,-0.195 0.832,-0.188 0.847,-0.172 0.872,-0.156 0.894,-0.136 0.906,-0.122 0.934,-0.097 0.953,-0.071 0.977,-0.046 1,-0.016 1.023,0.019 1.043,0.055 1.07,0.094 1.094,0.137 1.125,0.183 1.145,0.235 1.171,0.285 1.204,0.34 1.23,0.402 1.254,0.465 1.289,0.523 1.316,0.59 1.352,0.656 1.375,0.715 1.414,0.774 1.438,0.824 1.48,0.859 1.512,0.879 1.547,0.875 1.582,0.836 1.621,0.754 1.656,0.617 1.695,0.402 1.739,0.11 1.773,-0.281 1.82,-0.789 1.86,-1.407 1.902,-2.125 1.949,-2.941 1.992,-3.805 2.039,-4.691 2.086,-5.555 2.141,-6.351 2.18,-7.063 2.242,-7.66 2.285,-8.145 2.34,-8.523 2.394,-8.797 2.454,-8.992 2.507,-9.117 2.571,-9.18 2.625,-9.207 2.691,-9.199 0.758,-2.528" /><path
         id="path80"
         style="fill:none;stroke:#00ff00;stroke-width:1.60000002;stroke-linecap:square;stroke-linejoin:bevel;stroke-miterlimit:4;stroke-dasharray:none;stroke-opacity:1"
         d="m 101.57,150.235 0.223,-0.047 0.23,-0.047 0.235,-0.05 0.242,-0.055 0.246,-0.055 0.25,-0.054 0.254,-0.063 0.262,-0.062 0.269,-0.063 0.274,-0.066 0.281,-0.071 0.289,-0.074 0.297,-0.078 0.301,-0.078 0.308,-0.082 0.313,-0.086 0.324,-0.09 0.332,-0.09 0.34,-0.097 0.344,-0.102 0.359,-0.102 0.359,-0.109 0.371,-0.109 0.379,-0.118 0.391,-0.121 0.395,-0.125 0.406,-0.125 0.418,-0.136 0.426,-0.137 0.437,-0.141 1.375,-0.457 0.473,-0.16 0.488,-0.164 0.5,-0.172 0.512,-0.176 0.527,-0.179 0.539,-0.184 0.543,-0.191 0.563,-0.192 0.574,-0.199 0.59,-0.203 0.605,-0.203 0.613,-0.211 0.629,-0.211 0.645,-0.215 0.66,-0.219 0.676,-0.222 0.695,-0.219 0.707,-0.223 0.719,-0.222 0.742,-0.223 0.758,-0.223 0.773,-0.218 0.797,-0.219 0.809,-0.211 0.832,-0.207 0.847,-0.203 0.872,-0.192 0.894,-0.183 0.906,-0.176 0.934,-0.16 0.953,-0.145 0.977,-0.129 1,-0.113 1.023,-0.09 1.043,-0.066 1.07,-0.039 1.094,-0.012 1.125,0.024 1.145,0.054 1.171,0.094 1.204,0.137 1.23,0.179 1.254,0.227 1.289,0.281 1.316,0.336 1.352,0.391 1.375,0.453 1.414,0.512 1.438,0.578 1.48,0.636 1.512,0.696 1.547,0.75 1.582,0.793 1.621,0.824 1.656,0.832 1.695,0.809 1.739,0.753 1.773,0.645 1.82,0.465 1.86,0.211 1.902,-0.145 1.949,-0.617 1.992,-1.203 2.039,-1.918 2.086,-2.746 2.141,-3.649 2.18,-4.601 2.242,-5.551 2.285,-6.449 2.34,-7.27 2.394,-7.976 2.454,-8.559 2.507,-9.023 2.571,-9.379 2.625,-9.637 2.691,-9.816 2.754,-9.934 2.809,-10 2.265,-7.887" /><path
         id="path82"
         style="fill:#000000;fill-opacity:1;fill-rule:nonzero;stroke:none"
         d="m 93.629,23.759 c 0,2.359 -0.75,3.531 -2.219,3.531 -1.469,0 -2.234,-1.188 -2.234,-3.469 0,-2.297 0.781,-3.469 2.234,-3.469 1.438,0 2.219,1.172 2.219,3.407 z m -0.859,0.078 c 0,-1.922 -0.438,-2.782 -1.375,-2.782 -0.891,0 -1.344,0.891 -1.344,2.75 0,1.875 0.453,2.735 1.359,2.735 0.906,0 1.36,-0.875 1.36,-2.703 z" /><path
         id="path84"
         style="fill:#000000;fill-opacity:1;fill-rule:nonzero;stroke:none"
         d="m 180.898,20.493 0,6.797 -0.562,0 c -0.297,-1.047 -0.484,-1.188 -1.781,-1.344 l 0,-0.609 1.5,0 0,-4.844 0.843,0 z" /><path
         id="path86"
         style="fill:#000000;fill-opacity:1;fill-rule:nonzero;stroke:none"
         d="m 187.832,22.774 c 0,0.735 -0.062,1.188 -0.203,1.563 -0.328,0.828 -1.094,1.328 -2.031,1.328 -1.407,0 -2.297,-1.031 -2.297,-2.688 0,-1.656 0.859,-2.625 2.281,-2.625 1.141,0 1.938,0.657 2.141,1.672 l -0.797,0 c -0.219,-0.672 -0.672,-0.937 -1.313,-0.937 -0.843,0 -1.468,0.531 -1.484,1.687 l 3.703,0 z m -0.859,0.719 c 0,0 0,-0.047 0,-0.063 l -2.828,0 c 0.078,0.891 0.64,1.5 1.437,1.5 0.797,0 1.391,-0.656 1.391,-1.437 z" /><path
         id="path88"
         style="fill:#000000;fill-opacity:1;fill-rule:nonzero;stroke:none"
         d="m 193.137,24.055 c 0,2.125 -0.75,3.235 -2.297,3.235 -1.297,0 -2.235,-0.922 -2.235,-2.25 0,-1.266 0.875,-2.125 2.094,-2.125 0.641,0 1.11,0.234 1.563,0.765 -0.016,-1.656 -0.547,-2.578 -1.516,-2.578 -0.594,0 -1.016,0.375 -1.141,1.016 l -0.843,0 c 0.156,-1.109 0.89,-1.766 1.922,-1.766 1.593,0 2.453,1.344 2.453,3.703 z m -0.922,1 c 0,-0.828 -0.594,-1.39 -1.422,-1.39 -0.813,0 -1.313,0.531 -1.313,1.437 0,0.875 0.563,1.453 1.344,1.453 0.797,0 1.391,-0.609 1.391,-1.5 z" /><path
         id="path90"
         style="fill:#000000;fill-opacity:1;fill-rule:nonzero;stroke:none"
         d="m 278.477,25.305 c 0,1.141 -0.891,1.985 -2.188,1.985 -1.391,0 -2.187,-0.703 -2.234,-2.36 l 0.843,0 c 0.063,1.141 0.532,1.625 1.375,1.625 0.766,0 1.329,-0.546 1.329,-1.281 0,-0.531 -0.313,-0.984 -0.907,-1.344 l -0.89,-0.5 c -1.422,-0.796 -1.828,-1.437 -1.907,-2.937 l 4.532,0 0,0.828 -3.578,0 c 0.078,0.563 0.39,0.922 1.218,1.406 l 0.969,0.516 c 0.938,0.516 1.438,1.219 1.438,2.062 z" /><path
         id="path92"
         style="fill:#000000;fill-opacity:1;fill-rule:nonzero;stroke:none"
         d="m 283.832,22.774 c 0,0.735 -0.062,1.188 -0.203,1.563 -0.328,0.828 -1.094,1.328 -2.031,1.328 -1.407,0 -2.297,-1.031 -2.297,-2.688 0,-1.656 0.859,-2.625 2.281,-2.625 1.141,0 1.938,0.657 2.141,1.672 l -0.797,0 c -0.219,-0.672 -0.672,-0.937 -1.313,-0.937 -0.843,0 -1.468,0.531 -1.484,1.687 l 3.703,0 z m -0.859,0.719 c 0,0 0,-0.047 0,-0.063 l -2.828,0 c 0.078,0.891 0.64,1.5 1.437,1.5 0.797,0 1.391,-0.656 1.391,-1.437 z" /><path
         id="path94"
         style="fill:#000000;fill-opacity:1;fill-rule:nonzero;stroke:none"
         d="m 289.137,24.055 c 0,2.125 -0.75,3.235 -2.297,3.235 -1.297,0 -2.235,-0.922 -2.235,-2.25 0,-1.266 0.875,-2.125 2.094,-2.125 0.641,0 1.11,0.234 1.563,0.765 -0.016,-1.656 -0.547,-2.578 -1.516,-2.578 -0.594,0 -1.016,0.375 -1.141,1.016 l -0.843,0 c 0.156,-1.109 0.89,-1.766 1.922,-1.766 1.593,0 2.453,1.344 2.453,3.703 z m -0.922,1 c 0,-0.828 -0.594,-1.39 -1.422,-1.39 -0.813,0 -1.313,0.531 -1.313,1.437 0,0.875 0.563,1.453 1.344,1.453 0.797,0 1.391,-0.609 1.391,-1.5 z" /><path
         id="path96"
         style="fill:#000000;fill-opacity:1;fill-rule:nonzero;stroke:none"
         d="m 68.41,33.095 2.281,0 0,-0.703 -2.281,0 0,0.703 z" /><path
         id="path98"
         style="fill:#000000;fill-opacity:1;fill-rule:nonzero;stroke:none"
         d="m 74.496,30.095 0,6.796 -0.562,0 c -0.297,-1.046 -0.485,-1.187 -1.782,-1.343 l 0,-0.61 1.5,0 0,-4.843 0.844,0 z" /><path
         id="path100"
         style="fill:#000000;fill-opacity:1;fill-rule:nonzero;stroke:none"
         d="m 81.363,33.36 c 0,2.36 -0.75,3.531 -2.218,3.531 -1.469,0 -2.235,-1.187 -2.235,-3.468 0,-2.297 0.781,-3.469 2.235,-3.469 1.437,0 2.218,1.172 2.218,3.406 z m -0.859,0.078 c 0,-1.922 -0.438,-2.781 -1.375,-2.781 -0.891,0 -1.344,0.891 -1.344,2.75 0,1.875 0.453,2.734 1.36,2.734 0.906,0 1.359,-0.875 1.359,-2.703 z" /><path
         id="path102"
         style="fill:#000000;fill-opacity:1;fill-rule:nonzero;stroke:none"
         d="m 75.609,45.095 2.281,0 0,-0.703 -2.281,0 0,0.703 z" /><path
         id="path104"
         style="fill:#000000;fill-opacity:1;fill-rule:nonzero;stroke:none"
         d="m 83.258,45.657 c 0,2.125 -0.75,3.234 -2.297,3.234 -1.297,0 -2.234,-0.921 -2.234,-2.25 0,-1.265 0.875,-2.125 2.093,-2.125 0.641,0 1.11,0.235 1.563,0.766 -0.016,-1.656 -0.547,-2.578 -1.516,-2.578 -0.594,0 -1.015,0.375 -1.14,1.016 l -0.844,0 c 0.156,-1.11 0.89,-1.766 1.922,-1.766 1.593,0 2.453,1.344 2.453,3.703 z m -0.922,1 c 0,-0.828 -0.594,-1.391 -1.422,-1.391 -0.812,0 -1.312,0.532 -1.312,1.438 0,0.875 0.562,1.453 1.343,1.453 0.797,0 1.391,-0.609 1.391,-1.5 z" /><path
         id="path106"
         style="fill:#000000;fill-opacity:1;fill-rule:nonzero;stroke:none"
         d="m 75.609,56.294 2.281,0 0,-0.703 -2.281,0 0,0.703 z" /><path
         id="path108"
         style="fill:#000000;fill-opacity:1;fill-rule:nonzero;stroke:none"
         d="m 83.289,55.216 c 0,0.75 -0.391,1.281 -1.172,1.656 0.703,0.422 0.938,0.765 0.938,1.406 0,1.063 -0.844,1.813 -2.047,1.813 -1.203,0 -2.047,-0.75 -2.047,-1.813 0,-0.625 0.234,-0.969 0.922,-1.406 -0.781,-0.375 -1.156,-0.906 -1.156,-1.656 0,-1.235 0.937,-2.063 2.281,-2.063 1.344,0 2.281,0.828 2.281,2.063 z m -1.109,3.046 c 0,-0.625 -0.469,-1.046 -1.172,-1.046 -0.719,0 -1.188,0.421 -1.188,1.062 0,0.641 0.469,1.063 1.188,1.063 0.719,0 1.172,-0.422 1.172,-1.079 z M 82.43,55.2 c 0,-0.797 -0.578,-1.297 -1.438,-1.297 -0.828,0 -1.406,0.5 -1.406,1.297 0,0.797 0.578,1.297 1.422,1.297 0.844,0 1.422,-0.5 1.422,-1.297 z" /><path
         id="path110"
         style="fill:#000000;fill-opacity:1;fill-rule:nonzero;stroke:none"
         d="m 75.609,68.294 2.281,0 0,-0.703 -2.281,0 0,0.703 z" /><path
         id="path112"
         style="fill:#000000;fill-opacity:1;fill-rule:nonzero;stroke:none"
         d="m 83.352,71.247 0,0.703 -4.547,0 0,-0.828 3.672,0 c -1.344,-1.719 -2.313,-3.703 -2.782,-5.828 l 0.891,0 c 0.375,2.203 1.344,4.25 2.766,5.953 z" /><path
         id="path114"
         style="fill:#000000;fill-opacity:1;fill-rule:nonzero;stroke:none"
         d="m 75.609,79.493 2.281,0 0,-0.703 -2.281,0 0,0.703 z" /><path
         id="path116"
         style="fill:#000000;fill-opacity:1;fill-rule:nonzero;stroke:none"
         d="m 83.289,78.602 c 0,1.266 -0.859,2.125 -2.078,2.125 -0.672,0 -1.203,-0.265 -1.563,-0.765 0,1.656 0.547,2.578 1.516,2.578 0.594,0 1,-0.375 1.141,-1.016 l 0.843,0 c -0.171,1.11 -0.89,1.766 -1.937,1.766 -1.578,0 -2.438,-1.328 -2.438,-3.703 0,-2.11 0.735,-3.235 2.297,-3.235 1.282,0 2.219,0.922 2.219,2.25 z M 82.43,78.54 c 0,-0.86 -0.578,-1.438 -1.36,-1.438 -0.781,0 -1.375,0.61 -1.375,1.485 0,0.843 0.578,1.39 1.407,1.39 0.812,0 1.328,-0.531 1.328,-1.437 z" /><path
         id="path118"
         style="fill:#000000;fill-opacity:1;fill-rule:nonzero;stroke:none"
         d="m 75.609,91.493 2.281,0 0,-0.703 -2.281,0 0,0.703 z" /><path
         id="path120"
         style="fill:#000000;fill-opacity:1;fill-rule:nonzero;stroke:none"
         d="m 83.289,90.743 c 0,1.344 -0.891,2.234 -2.203,2.234 -0.469,0 -0.859,-0.125 -1.25,-0.422 l 0.266,1.766 2.828,0 0,0.828 -3.5,0 -0.516,-3.562 0.781,0 c 0.391,0.468 0.719,0.64 1.25,0.64 0.907,0 1.485,-0.593 1.485,-1.593 0,-0.985 -0.578,-1.532 -1.485,-1.532 -0.75,0 -1.203,0.375 -1.39,1.141 l -0.86,0 c 0.282,-1.359 1.047,-1.891 2.266,-1.891 1.375,0 2.328,0.953 2.328,2.391 z" /><path
         id="path122"
         style="fill:#000000;fill-opacity:1;fill-rule:nonzero;stroke:none"
         d="m 75.609,102.692 2.281,0 0,-0.703 -2.281,0 0,0.703 z" /><path
         id="path124"
         style="fill:#000000;fill-opacity:1;fill-rule:nonzero;stroke:none"
         d="m 83.352,101.317 0,0.766 -1,0 0,4.406 -0.625,0 -3.094,-4.281 0,-0.891 2.875,0 0,-1.625 0.844,0 0,1.625 1,0 z m -1.844,0.766 -2.141,0 2.141,2.969 0,-2.969 z" /><path
         id="path126"
         style="fill:#000000;fill-opacity:1;fill-rule:nonzero;stroke:none"
         d="m 75.609,114.692 2.281,0 0,-0.703 -2.281,0 0,0.703 z" /><path
         id="path128"
         style="fill:#000000;fill-opacity:1;fill-rule:nonzero;stroke:none"
         d="m 83.227,113.661 c 0,0.828 -0.344,1.312 -1.157,1.594 0.641,0.25 0.953,0.687 0.953,1.375 0,1.172 -0.781,1.859 -2.078,1.859 -1.375,0 -2.093,-0.75 -2.125,-2.187 l 0.844,0 c 0.016,1 0.438,1.453 1.297,1.453 0.75,0 1.203,-0.438 1.203,-1.157 0,-0.734 -0.328,-1.031 -1.672,-1.031 l 0,-0.703 0.453,0 c 0.938,0 1.407,-0.453 1.407,-1.203 0,-0.859 -0.516,-1.359 -1.407,-1.359 -0.922,0 -1.375,0.453 -1.422,1.437 l -0.843,0 c 0.093,-1.516 0.843,-2.187 2.234,-2.187 1.406,0 2.313,0.828 2.313,2.109 z" /><path
         id="path130"
         style="fill:#000000;fill-opacity:1;fill-rule:nonzero;stroke:none"
         d="m 75.609,125.891 2.281,0 0,-0.703 -2.281,0 0,0.703 z" /><path
         id="path132"
         style="fill:#000000;fill-opacity:1;fill-rule:nonzero;stroke:none"
         d="m 83.273,127.704 c 0,1.141 -0.89,1.984 -2.187,1.984 -1.391,0 -2.188,-0.703 -2.234,-2.359 l 0.843,0 c 0.063,1.141 0.532,1.625 1.375,1.625 0.766,0 1.328,-0.547 1.328,-1.281 0,-0.532 -0.312,-0.985 -0.906,-1.344 l -0.89,-0.5 c -1.422,-0.797 -1.829,-1.438 -1.907,-2.938 l 4.532,0 0,0.829 -3.579,0 c 0.079,0.562 0.391,0.921 1.219,1.406 l 0.969,0.515 c 0.937,0.516 1.437,1.219 1.437,2.063 z" /><path
         id="path134"
         style="fill:#000000;fill-opacity:1;fill-rule:nonzero;stroke:none"
         d="m 75.609,137.891 2.281,0 0,-0.703 -2.281,0 0,0.703 z" /><path
         id="path136"
         style="fill:#000000;fill-opacity:1;fill-rule:nonzero;stroke:none"
         d="m 81.695,134.891 0,6.797 -0.562,0 c -0.297,-1.047 -0.485,-1.187 -1.781,-1.343 l 0,-0.61 1.5,0 0,-4.844 0.843,0 z" /><path
         id="path138"
         style="fill:#000000;fill-opacity:1;fill-rule:nonzero;stroke:none"
         d="m 84.031,149.36 c 0,2.36 -0.75,3.531 -2.219,3.531 -1.468,0 -2.234,-1.187 -2.234,-3.468 0,-2.297 0.781,-3.469 2.234,-3.469 1.438,0 2.219,1.172 2.219,3.406 z m -0.859,0.078 c 0,-1.922 -0.438,-2.781 -1.375,-2.781 -0.891,0 -1.344,0.891 -1.344,2.75 0,1.875 0.453,2.734 1.359,2.734 0.907,0 1.36,-0.875 1.36,-2.703 z" /><path
         id="path140"
         style="fill:#000000;fill-opacity:1;fill-rule:nonzero;stroke:none"
         d="m 82.5,158.095 0,6.796 -0.562,0 c -0.297,-1.046 -0.485,-1.187 -1.782,-1.343 l 0,-0.61 1.5,0 0,-4.843 0.844,0 z" /><path
         id="path142"
         style="fill:#000000;fill-opacity:1;fill-rule:nonzero;stroke:none"
         d="m 149.535,8.298 0,0.797 -4.703,0 0,-7 0.891,0 0,3.187 3.343,0 0,0.781 -3.343,0 0,2.235 3.812,0 z" /><path
         id="path144"
         style="fill:#000000;fill-opacity:1;fill-rule:nonzero;stroke:none"
         d="m 152.578,6.423 0,0.812 c -0.14,0.016 -0.203,0.031 -0.312,0.031 -0.516,0 -0.907,-0.312 -1.36,-1.062 l 0,0.922 -0.734,0 0,-5.031 0.797,0 0,2.609 c 0,1.125 0.375,1.703 1.609,1.719 z" /><path
         id="path146"
         style="fill:#000000;fill-opacity:1;fill-rule:nonzero;stroke:none"
         d="m 157.531,4.376 c 0,0.734 -0.062,1.187 -0.203,1.562 -0.328,0.828 -1.094,1.328 -2.031,1.328 -1.406,0 -2.297,-1.031 -2.297,-2.687 0,-1.656 0.859,-2.625 2.281,-2.625 1.141,0 1.938,0.656 2.141,1.672 l -0.797,0 c -0.219,-0.672 -0.672,-0.938 -1.313,-0.938 -0.843,0 -1.468,0.532 -1.484,1.688 l 3.703,0 z m -0.859,0.719 c 0,0 0,-0.047 0,-0.063 l -2.828,0 c 0.078,0.891 0.64,1.5 1.437,1.5 0.797,0 1.391,-0.656 1.391,-1.437 z m 0.344,4 -1.094,0 -0.922,-1.422 0.578,0 1.438,1.422 z" /><path
         id="path148"
         style="fill:#000000;fill-opacity:1;fill-rule:nonzero;stroke:none"
         d="m 162.699,0.001 0,7.125 -0.719,0 0,-0.672 c -0.359,0.531 -0.937,0.812 -1.593,0.812 -1.328,0 -2.188,-1.046 -2.188,-2.718 0,-1.625 0.828,-2.594 2.141,-2.594 0.703,0 1.187,0.25 1.562,0.797 l 0,-2.75 0.797,0 z m -0.797,4.578 c 0,-1.156 -0.562,-1.875 -1.406,-1.875 -0.875,0 -1.469,0.734 -1.469,1.906 0,1.156 0.594,1.906 1.469,1.906 0.859,0 1.406,-0.765 1.406,-1.937 z" /><path
         id="path150"
         style="fill:#000000;fill-opacity:1;fill-rule:nonzero;stroke:none"
         d="m 167.988,2.095 0,5.031 -0.797,0 0,-2.781 c 0,-1.016 -0.531,-1.688 -1.375,-1.688 -0.625,0 -1.031,0.375 -1.031,0.984 l 0,3.485 -0.797,0 0,-3.797 c 0,-0.844 0.625,-1.375 1.594,-1.375 0.75,0 1.219,0.25 1.688,0.922 l 0,-0.781 0.718,0 z" /><path
         id="path152"
         style="fill:#000000;fill-opacity:1;fill-rule:nonzero;stroke:none"
         d="m 173.621,4.376 c 0,0.734 -0.062,1.187 -0.203,1.562 -0.328,0.828 -1.094,1.328 -2.031,1.328 -1.407,0 -2.297,-1.031 -2.297,-2.687 0,-1.656 0.859,-2.625 2.281,-2.625 1.141,0 1.938,0.656 2.141,1.672 l -0.797,0 c -0.219,-0.672 -0.672,-0.938 -1.313,-0.938 -0.843,0 -1.468,0.532 -1.484,1.688 l 3.703,0 z m -0.859,0.719 c 0,0 0,-0.047 0,-0.063 l -2.828,0 c 0.078,0.891 0.64,1.5 1.437,1.5 0.797,0 1.391,-0.656 1.391,-1.437 z" /><path
         id="path154"
         style="fill:#000000;fill-opacity:1;fill-rule:nonzero;stroke:none"
         d="m 178.711,2.095 0,3.796 c 0,0.844 -0.625,1.375 -1.594,1.375 -0.75,0 -1.219,-0.281 -1.672,-0.984 l 0,0.844 -0.734,0 0,-5.031 0.797,0 0,2.765 c 0,1.031 0.562,1.703 1.375,1.703 0.625,0 1.031,-0.375 1.031,-0.984 l 0,-3.484 0.797,0 z" /><path
         id="path156"
         style="fill:#000000;fill-opacity:1;fill-rule:nonzero;stroke:none"
         d="m 183.953,3.829 -0.812,0 c -0.125,-0.813 -0.547,-1.141 -1.219,-1.141 -0.891,0 -1.422,0.688 -1.422,1.875 0,1.25 0.531,1.969 1.391,1.969 0.671,0 1.093,-0.406 1.203,-1.094 l 0.797,0 c -0.094,1.219 -0.86,1.828 -1.985,1.828 -1.344,0 -2.234,-1.031 -2.234,-2.703 0,-1.625 0.859,-2.609 2.219,-2.609 1.203,0 1.968,0.719 2.062,1.875 z" /><path
         id="path158"
         style="fill:#000000;fill-opacity:1;fill-rule:nonzero;stroke:none"
         d="m 189.098,4.376 c 0,0.734 -0.063,1.187 -0.203,1.562 -0.329,0.828 -1.094,1.328 -2.032,1.328 -1.406,0 -2.297,-1.031 -2.297,-2.687 0,-1.656 0.86,-2.625 2.282,-2.625 1.14,0 1.937,0.656 2.14,1.672 l -0.797,0 c -0.218,-0.672 -0.671,-0.938 -1.312,-0.938 -0.844,0 -1.469,0.532 -1.484,1.688 l 3.703,0 z m -0.86,0.719 c 0,0 0,-0.047 0,-0.063 l -2.828,0 c 0.078,0.891 0.641,1.5 1.438,1.5 0.797,0 1.39,-0.656 1.39,-1.437 z" /><path
         id="path160"
         style="fill:#000000;fill-opacity:1;fill-rule:nonzero;stroke:none"
         d="m 194.98,0.063 c -0.843,1.375 -1.312,2.985 -1.312,4.516 0,1.531 0.469,3.141 1.312,4.516 l -0.531,0 c -0.953,-1.266 -1.562,-3.016 -1.562,-4.516 0,-1.516 0.609,-3.266 1.562,-4.516 l 0.531,0 z" /><path
         id="path162"
         style="fill:#000000;fill-opacity:1;fill-rule:nonzero;stroke:none"
         d="m 201.578,2.095 0,7 -0.89,0 0,-3.032 -3.594,0 0,3.032 -0.891,0 0,-7 0.891,0 0,3.187 3.594,0 0,-3.187 0.89,0 z" /><path
         id="path164"
         style="fill:#000000;fill-opacity:1;fill-rule:nonzero;stroke:none"
         d="m 206.73,2.095 0,0.703 -3.125,0 2.985,3.609 0,0.719 -3.75,0 0,-0.703 2.797,0 -3,-3.61 0,-0.718 4.093,0 z" /><path
         id="path166"
         style="fill:#000000;fill-opacity:1;fill-rule:nonzero;stroke:none"
         d="m 209.594,4.563 c 0,1.516 -0.594,3.266 -1.563,4.532 l -0.531,0 c 0.844,-1.375 1.312,-2.985 1.312,-4.532 0,-1.515 -0.468,-3.14 -1.312,-4.5 l 0.531,0 c 0.969,1.25 1.563,3 1.563,4.5 z" /><path
         id="path168"
         style="fill:#0000ff;fill-opacity:1;fill-rule:nonzero;stroke:none"
         d="m 60.371,63.278 c -0.844,0 -1.344,-0.391 -1.687,-1.281 -0.297,0.625 -0.829,0.969 -1.532,0.969 -1.015,0 -1.781,-0.75 -1.781,-2.079 l 0,-2.828 7,0 0,3.157 c 0,1.25 -0.844,2.062 -2,2.062 z m -3.094,-1.203 c 0.703,0 1.11,-0.422 1.11,-1.406 l 0,-1.719 -2.219,0 0,1.719 c 0,0.984 0.406,1.406 1.109,1.406 z m 3.11,0.297 c 0.672,0 1.203,-0.406 1.203,-1.25 l 0,-2.172 -2.406,0 0,2.172 c 0,0.844 0.515,1.25 1.203,1.25 z" /><path
         id="path170"
         style="fill:#0000ff;fill-opacity:1;fill-rule:nonzero;stroke:none"
         d="m 60.09,68.618 c -0.735,0 -1.188,-0.063 -1.563,-0.203 -0.828,-0.328 -1.328,-1.094 -1.328,-2.031 0,-1.407 1.031,-2.297 2.688,-2.297 1.656,0 2.625,0.859 2.625,2.281 0,1.141 -0.657,1.937 -1.672,2.141 l 0,-0.797 c 0.672,-0.219 0.937,-0.672 0.937,-1.313 0,-0.844 -0.531,-1.469 -1.687,-1.484 l 0,3.703 z m -0.719,-0.859 c 0,0 0.047,0 0.063,0 l 0,-2.829 c -0.891,0.079 -1.5,0.641 -1.5,1.438 0,0.797 0.656,1.391 1.437,1.391 z" /><path
         id="path172"
         style="fill:#0000ff;fill-opacity:1;fill-rule:nonzero;stroke:none"
         d="m 60.965,73.438 c -0.75,0 -1.125,-0.422 -1.36,-1.422 l -0.187,-0.765 c -0.156,-0.656 -0.359,-0.938 -0.719,-0.938 -0.469,0 -0.765,0.422 -0.765,1.063 0,0.656 0.281,1 0.812,1.015 l 0,0.844 c -0.984,-0.015 -1.547,-0.656 -1.547,-1.828 0,-1.172 0.61,-1.922 1.531,-1.922 0.797,0 1.172,0.406 1.454,1.594 l 0.187,0.75 c 0.125,0.547 0.297,0.766 0.656,0.766 0.469,0 0.75,-0.469 0.75,-1.172 0,-0.719 -0.172,-1.11 -0.937,-1.219 l 0,-0.844 c 1.156,0.031 1.672,0.688 1.672,2 0,1.266 -0.578,2.078 -1.547,2.078 z" /><path
         id="path174"
         style="fill:#0000ff;fill-opacity:1;fill-rule:nonzero;stroke:none"
         d="m 60.965,78.239 c -0.75,0 -1.125,-0.422 -1.36,-1.422 l -0.187,-0.765 c -0.156,-0.657 -0.359,-0.938 -0.719,-0.938 -0.469,0 -0.765,0.422 -0.765,1.063 0,0.656 0.281,1 0.812,1.015 l 0,0.844 c -0.984,-0.016 -1.547,-0.656 -1.547,-1.828 0,-1.172 0.61,-1.922 1.531,-1.922 0.797,0 1.172,0.406 1.454,1.594 l 0.187,0.75 c 0.125,0.547 0.297,0.765 0.656,0.765 0.469,0 0.75,-0.468 0.75,-1.172 0,-0.718 -0.172,-1.109 -0.937,-1.218 l 0,-0.844 c 1.156,0.031 1.672,0.687 1.672,2 0,1.266 -0.578,2.078 -1.547,2.078 z" /><path
         id="path176"
         style="fill:#0000ff;fill-opacity:1;fill-rule:nonzero;stroke:none"
         d="m 60.09,83.555 c -0.735,0 -1.188,-0.062 -1.563,-0.203 -0.828,-0.328 -1.328,-1.093 -1.328,-2.031 0,-1.406 1.031,-2.297 2.688,-2.297 1.656,0 2.625,0.86 2.625,2.281 0,1.141 -0.657,1.938 -1.672,2.141 l 0,-0.797 c 0.672,-0.219 0.937,-0.672 0.937,-1.312 0,-0.844 -0.531,-1.469 -1.687,-1.485 l 0,3.703 z m -0.719,-0.859 c 0,0 0.047,0 0.063,0 l 0,-2.828 c -0.891,0.078 -1.5,0.641 -1.5,1.437 0,0.797 0.656,1.391 1.437,1.391 z" /><path
         id="path178"
         style="fill:#0000ff;fill-opacity:1;fill-rule:nonzero;stroke:none"
         d="m 55.371,85.423 7,0 0,-0.797 -7,0 0,0.797 z" /><path
         id="path180"
         style="fill:#0000ff;fill-opacity:1;fill-rule:nonzero;stroke:none"
         d="m 63.59,91.677 0.484,0 0,-5.766 -0.484,0 0,5.766 z" /><path
         id="path182"
         style="fill:#0000ff;fill-opacity:1;fill-rule:nonzero;stroke:none"
         d="m 62.371,96.22 -7,0 0,-0.797 2.609,0 c -0.515,-0.344 -0.781,-0.875 -0.781,-1.547 0,-1.297 1.016,-2.156 2.61,-2.156 1.703,0 2.703,0.828 2.703,2.187 0,0.688 -0.25,1.172 -0.875,1.594 l 0.734,0 0,0.719 z m -2.5,-0.797 c 1.172,0 1.891,-0.563 1.891,-1.407 0,-0.875 -0.735,-1.468 -1.907,-1.468 -1.171,0 -1.906,0.593 -1.906,1.468 0,0.86 0.766,1.407 1.922,1.407 z" /><path
         id="path184"
         style="fill:#0000ff;fill-opacity:1;fill-rule:nonzero;stroke:none"
         d="m 60.371,102.79 c -0.844,0 -1.344,-0.391 -1.687,-1.281 -0.297,0.625 -0.829,0.968 -1.532,0.968 -1.015,0 -1.781,-0.75 -1.781,-2.078 l 0,-2.828 7,0 0,3.156 c 0,1.25 -0.844,2.063 -2,2.063 z m -3.094,-1.203 c 0.703,0 1.11,-0.422 1.11,-1.407 l 0,-1.718 -2.219,0 0,1.718 c 0,0.985 0.406,1.407 1.109,1.407 z m 3.11,0.297 c 0.672,0 1.203,-0.407 1.203,-1.25 l 0,-2.172 -2.406,0 0,2.172 c 0,0.843 0.515,1.25 1.203,1.25 z" /><path
         id="path186"
         style="fill:#0000ff;fill-opacity:1;fill-rule:nonzero;stroke:none"
         d="m 60.449,109.192 c -0.859,0 -1.5,-0.531 -1.75,-1.484 l -0.469,-1.75 c -0.218,-0.844 -0.5,-1.156 -1.046,-1.156 -0.704,0 -1.235,0.625 -1.235,1.562 0,1.109 0.516,1.75 1.422,1.75 l 0,0.844 c -1.375,0 -2.172,-0.953 -2.172,-2.563 0,-1.531 0.844,-2.484 2.11,-2.484 0.859,0 1.39,0.453 1.64,1.375 l 0.453,1.734 c 0.235,0.875 0.594,1.282 1.141,1.282 0.766,0 1.219,-0.579 1.219,-1.782 0,-1.328 -0.672,-1.968 -1.672,-1.968 l 0,-0.86 c 1.656,0 2.453,1.125 2.453,2.766 0,1.781 -0.844,2.734 -2.094,2.734 z" /><path
         id="path188"
         style="fill:#0000ff;fill-opacity:1;fill-rule:nonzero;stroke:none"
         d="m 57.559,114.548 c -1.141,0 -1.985,-0.891 -1.985,-2.188 0,-1.39 0.703,-2.187 2.36,-2.234 l 0,0.844 c -1.141,0.062 -1.625,0.531 -1.625,1.375 0,0.765 0.546,1.328 1.281,1.328 0.531,0 0.984,-0.313 1.344,-0.907 l 0.5,-0.89 c 0.796,-1.422 1.437,-1.828 2.937,-1.906 l 0,4.531 -0.828,0 0,-3.578 c -0.563,0.078 -0.922,0.39 -1.406,1.218 l -0.516,0.969 c -0.516,0.938 -1.219,1.438 -2.062,1.438 z" /><path
         id="path190"
         style="fill:#0000ff;fill-opacity:1;fill-rule:nonzero;stroke:none"
         d="m 62.371,118.305 -6.797,0 0,-0.562 c 1.047,-0.297 1.188,-0.484 1.344,-1.781 l 0.609,0 0,1.5 4.844,0 0,0.843 z" /><path
         id="path192"
         style="fill:#ff0000;fill-opacity:1;fill-rule:nonzero;stroke:none"
         d="m 41.973,49.677 c -0.844,0 -1.344,-0.391 -1.688,-1.282 -0.297,0.625 -0.828,0.969 -1.531,0.969 -1.016,0 -1.781,-0.75 -1.781,-2.078 l 0,-2.828 7,0 0,3.156 c 0,1.25 -0.844,2.063 -2,2.063 z m -3.094,-1.204 c 0.703,0 1.109,-0.421 1.109,-1.406 l 0,-1.719 -2.218,0 0,1.719 c 0,0.985 0.406,1.406 1.109,1.406 z m 3.109,0.297 c 0.672,0 1.203,-0.406 1.203,-1.25 l 0,-2.172 -2.406,0 0,2.172 c 0,0.844 0.516,1.25 1.203,1.25 z" /><path
         id="path194"
         style="fill:#ff0000;fill-opacity:1;fill-rule:nonzero;stroke:none"
         d="m 43.973,54.72 -5.032,0 0,-0.797 2.782,0 c 1.015,0 1.687,-0.532 1.687,-1.375 0,-0.625 -0.375,-1.032 -0.984,-1.032 l -3.485,0 0,-0.796 3.797,0 c 0.844,0 1.375,0.625 1.375,1.593 0,0.75 -0.25,1.219 -0.922,1.688 l 0.782,0 0,0.719 z" /><path
         id="path196"
         style="fill:#ff0000;fill-opacity:1;fill-rule:nonzero;stroke:none"
         d="m 43.973,57.872 -0.672,0 c 0.031,-0.11 0.031,-0.235 0.031,-0.391 0,-0.344 -0.094,-0.437 -0.437,-0.437 l -3.297,0 0,0.828 -0.657,0 0,-0.828 -1.375,0 0,-0.797 1.375,0 0,-0.672 0.657,0 0,0.672 3.64,0 c 0.516,0 0.797,0.344 0.797,0.969 0,0.187 -0.015,0.39 -0.062,0.656 z" /><path
         id="path198"
         style="fill:#ff0000;fill-opacity:1;fill-rule:nonzero;stroke:none"
         d="m 43.973,60.54 -0.672,0 c 0.031,-0.11 0.031,-0.235 0.031,-0.391 0,-0.344 -0.094,-0.437 -0.437,-0.437 l -3.297,0 0,0.828 -0.657,0 0,-0.828 -1.375,0 0,-0.797 1.375,0 0,-0.672 0.657,0 0,0.672 3.64,0 c 0.516,0 0.797,0.344 0.797,0.969 0,0.187 -0.015,0.39 -0.062,0.656 z" /><path
         id="path200"
         style="fill:#ff0000;fill-opacity:1;fill-rule:nonzero;stroke:none"
         d="m 41.691,65.548 c -0.734,0 -1.187,-0.063 -1.562,-0.203 -0.828,-0.329 -1.328,-1.094 -1.328,-2.032 0,-1.406 1.031,-2.297 2.687,-2.297 1.657,0 2.625,0.86 2.625,2.282 0,1.14 -0.656,1.937 -1.672,2.14 l 0,-0.797 c 0.672,-0.218 0.938,-0.671 0.938,-1.312 0,-0.844 -0.531,-1.469 -1.688,-1.484 l 0,3.703 z m -0.718,-0.86 c 0,0 0.047,0 0.062,0 l 0,-2.828 c -0.89,0.078 -1.5,0.641 -1.5,1.438 0,0.797 0.656,1.39 1.438,1.39 z" /><path
         id="path202"
         style="fill:#ff0000;fill-opacity:1;fill-rule:nonzero;stroke:none"
         d="m 39.645,69.044 -0.813,0 c -0.016,-0.141 -0.031,-0.203 -0.031,-0.313 0,-0.515 0.312,-0.906 1.062,-1.359 l -0.922,0 0,-0.735 5.032,0 0,0.797 -2.61,0 c -1.125,0 -1.703,0.375 -1.718,1.61 z" /><path
         id="path204"
         style="fill:#ff0000;fill-opacity:1;fill-rule:nonzero;stroke:none"
         d="m 38.941,76.255 0,-0.907 3.922,-1 -3.922,-0.984 0,-0.984 3.922,-0.953 -3.922,-1.032 0,-0.875 5.032,1.453 0,0.907 -3.938,0.968 3.938,1.016 0,0.906 -5.032,1.485 z" /><path
         id="path206"
         style="fill:#ff0000;fill-opacity:1;fill-rule:nonzero;stroke:none"
         d="m 41.504,81.196 c -1.75,0 -2.703,-0.828 -2.703,-2.281 0,-1.406 0.969,-2.266 2.656,-2.266 1.688,0 2.656,0.844 2.656,2.281 0,1.407 -0.968,2.266 -2.609,2.266 z m -0.016,-0.828 c 1.172,0 1.891,-0.563 1.891,-1.438 0,-0.89 -0.703,-1.437 -1.922,-1.437 -1.203,0 -1.922,0.547 -1.922,1.437 0,0.891 0.703,1.438 1.953,1.438 z" /><path
         id="path208"
         style="fill:#ff0000;fill-opacity:1;fill-rule:nonzero;stroke:none"
         d="m 39.645,84.72 -0.813,0 c -0.016,-0.141 -0.031,-0.204 -0.031,-0.313 0,-0.516 0.312,-0.906 1.062,-1.359 l -0.922,0 0,-0.735 5.032,0 0,0.797 -2.61,0 c -1.125,0 -1.703,0.375 -1.718,1.61 z" /><path
         id="path210"
         style="fill:#ff0000;fill-opacity:1;fill-rule:nonzero;stroke:none"
         d="m 43.973,87.575 -0.672,0 c 0.031,-0.109 0.031,-0.234 0.031,-0.391 0,-0.343 -0.094,-0.437 -0.437,-0.437 l -3.297,0 0,0.828 -0.657,0 0,-0.828 -1.375,0 0,-0.797 1.375,0 0,-0.672 0.657,0 0,0.672 3.64,0 c 0.516,0 0.797,0.344 0.797,0.969 0,0.187 -0.015,0.39 -0.062,0.656 z" /><path
         id="path212"
         style="fill:#ff0000;fill-opacity:1;fill-rule:nonzero;stroke:none"
         d="m 43.973,92.395 -3.797,0 c -0.844,0 -1.375,-0.593 -1.375,-1.578 0,-0.703 0.219,-1.14 0.828,-1.609 l -2.656,0 0,-0.797 7,0 0,0.797 -2.766,0 c -1.031,0 -1.703,0.531 -1.703,1.359 0,0.563 0.328,1.031 0.984,1.031 l 3.485,0 0,0.797 z" /><path
         id="path214"
         style="fill:#ff0000;fill-opacity:1;fill-rule:nonzero;stroke:none"
         d="m 45.191,98.622 0.484,0 0,-5.766 -0.484,0 0,5.766 z" /><path
         id="path216"
         style="fill:#ff0000;fill-opacity:1;fill-rule:nonzero;stroke:none"
         d="m 43.973,103.161 -7,0 0,-0.797 2.609,0 c -0.516,-0.344 -0.781,-0.875 -0.781,-1.547 0,-1.297 1.015,-2.156 2.609,-2.156 1.703,0 2.703,0.828 2.703,2.187 0,0.688 -0.25,1.172 -0.875,1.594 l 0.735,0 0,0.719 z m -2.5,-0.797 c 1.172,0 1.89,-0.562 1.89,-1.406 0,-0.875 -0.734,-1.469 -1.906,-1.469 -1.172,0 -1.906,0.594 -1.906,1.469 0,0.859 0.765,1.406 1.922,1.406 z" /><path
         id="path218"
         style="fill:#ff0000;fill-opacity:1;fill-rule:nonzero;stroke:none"
         d="m 41.973,109.735 c -0.844,0 -1.344,-0.39 -1.688,-1.281 -0.297,0.625 -0.828,0.969 -1.531,0.969 -1.016,0 -1.781,-0.75 -1.781,-2.078 l 0,-2.829 7,0 0,3.157 c 0,1.25 -0.844,2.062 -2,2.062 z m -3.094,-1.203 c 0.703,0 1.109,-0.422 1.109,-1.406 l 0,-1.719 -2.218,0 0,1.719 c 0,0.984 0.406,1.406 1.109,1.406 z m 3.109,0.297 c 0.672,0 1.203,-0.406 1.203,-1.25 l 0,-2.172 -2.406,0 0,2.172 c 0,0.844 0.516,1.25 1.203,1.25 z" /><path
         id="path220"
         style="fill:#ff0000;fill-opacity:1;fill-rule:nonzero;stroke:none"
         d="m 42.051,116.134 c -0.86,0 -1.5,-0.532 -1.75,-1.485 l -0.469,-1.75 c -0.219,-0.844 -0.5,-1.156 -1.047,-1.156 -0.703,0 -1.234,0.625 -1.234,1.562 0,1.11 0.515,1.75 1.422,1.75 l 0,0.844 c -1.375,0 -2.172,-0.953 -2.172,-2.562 0,-1.532 0.844,-2.485 2.109,-2.485 0.86,0 1.391,0.453 1.641,1.375 l 0.453,1.735 c 0.234,0.875 0.594,1.281 1.141,1.281 0.765,0 1.218,-0.578 1.218,-1.781 0,-1.328 -0.672,-1.969 -1.672,-1.969 l 0,-0.859 c 1.657,0 2.454,1.125 2.454,2.765 0,1.781 -0.844,2.735 -2.094,2.735 z" /><path
         id="path222"
         style="fill:#ff0000;fill-opacity:1;fill-rule:nonzero;stroke:none"
         d="m 39.16,121.493 c -1.14,0 -1.984,-0.891 -1.984,-2.188 0,-1.39 0.703,-2.187 2.359,-2.234 l 0,0.844 c -1.14,0.062 -1.625,0.531 -1.625,1.375 0,0.765 0.547,1.328 1.281,1.328 0.532,0 0.985,-0.313 1.344,-0.906 l 0.5,-0.891 c 0.797,-1.422 1.438,-1.828 2.938,-1.906 l 0,4.531 -0.828,0 0,-3.578 c -0.563,0.078 -0.922,0.391 -1.407,1.219 l -0.515,0.968 c -0.516,0.938 -1.219,1.438 -2.063,1.438 z" /><path
         id="path224"
         style="fill:#ff0000;fill-opacity:1;fill-rule:nonzero;stroke:none"
         d="m 43.973,125.251 -6.797,0 0,-0.563 c 1.047,-0.297 1.187,-0.484 1.344,-1.781 l 0.609,0 0,1.5 4.844,0 0,0.844 z" /><path
         id="path226"
         style="fill:#ff00ff;fill-opacity:1;fill-rule:nonzero;stroke:none"
         d="m 19.367,47.782 -0.797,0 0,-5.484 0.797,0 0,2.297 6.203,0 0,0.89 -6.203,0 0,2.297 z" /><path
         id="path228"
         style="fill:#ff00ff;fill-opacity:1;fill-rule:nonzero;stroke:none"
         d="m 23.836,51.68 0,-0.812 c 0.812,-0.125 1.141,-0.547 1.141,-1.219 0,-0.89 -0.688,-1.422 -1.875,-1.422 -1.25,0 -1.969,0.532 -1.969,1.391 0,0.672 0.406,1.094 1.094,1.203 l 0,0.797 c -1.219,-0.094 -1.829,-0.859 -1.829,-1.984 0,-1.344 1.032,-2.235 2.704,-2.235 1.625,0 2.609,0.86 2.609,2.219 0,1.203 -0.719,1.969 -1.875,2.062 z" /><path
         id="path230"
         style="fill:#ff00ff;fill-opacity:1;fill-rule:nonzero;stroke:none"
         d="m 25.57,56.559 -3.797,0 c -0.843,0 -1.375,-0.593 -1.375,-1.578 0,-0.703 0.219,-1.14 0.829,-1.609 l -2.657,0 0,-0.797 7,0 0,0.797 -2.765,0 c -1.032,0 -1.703,0.531 -1.703,1.359 0,0.563 0.328,1.031 0.984,1.031 l 3.484,0 0,0.797 z" /><path
         id="path232"
         style="fill:#ff00ff;fill-opacity:1;fill-rule:nonzero;stroke:none"
         d="m 23.289,62.165 c -0.734,0 -1.187,-0.063 -1.562,-0.203 -0.829,-0.328 -1.329,-1.094 -1.329,-2.032 0,-1.406 1.032,-2.296 2.688,-2.296 1.656,0 2.625,0.859 2.625,2.281 0,1.14 -0.656,1.937 -1.672,2.14 l 0,-0.796 c 0.672,-0.219 0.938,-0.672 0.938,-1.313 0,-0.844 -0.532,-1.469 -1.688,-1.484 l 0,3.703 z m -0.719,-0.86 c 0,0 0.047,0 0.063,0 l 0,-2.828 c -0.891,0.078 -1.5,0.641 -1.5,1.438 0,0.797 0.656,1.39 1.437,1.39 z" /><path
         id="path234"
         style="fill:#ff00ff;fill-opacity:1;fill-rule:nonzero;stroke:none"
         d="m 22.992,67.595 c -1.625,0 -2.594,-0.829 -2.594,-2.141 0,-0.703 0.266,-1.188 0.829,-1.563 l -2.657,0 0,-0.796 7,0 0,0.718 -0.718,0 c 0.578,0.391 0.859,0.891 0.859,1.594 0,1.328 -1.078,2.188 -2.719,2.188 z m 0.063,-0.829 c 1.14,0 1.906,-0.593 1.906,-1.468 0,-0.844 -0.766,-1.407 -1.906,-1.407 -1.172,0 -1.953,0.563 -1.907,1.407 0,0.89 0.782,1.468 1.907,1.468 z" /><path
         id="path236"
         style="fill:#ff00ff;fill-opacity:1;fill-rule:nonzero;stroke:none"
         d="m 20.539,72.36 0,-0.859 3.922,-1.391 -3.922,-1.281 0,-0.859 5.047,1.703 0.797,-0.313 c 0.359,-0.125 0.5,-0.297 0.5,-0.64 0,-0.11 -0.031,-0.25 -0.063,-0.422 l 0.719,0 c 0.078,0.172 0.125,0.328 0.125,0.547 0,0.562 -0.312,1.015 -1.031,1.281 l -6.094,2.234 z" /><path
         id="path238"
         style="fill:#ff00ff;fill-opacity:1;fill-rule:nonzero;stroke:none"
         d="m 23.836,76.97 0,-0.813 c 0.812,-0.125 1.141,-0.547 1.141,-1.219 0,-0.89 -0.688,-1.422 -1.875,-1.422 -1.25,0 -1.969,0.532 -1.969,1.391 0,0.672 0.406,1.094 1.094,1.203 l 0,0.797 c -1.219,-0.094 -1.829,-0.859 -1.829,-1.984 0,-1.344 1.032,-2.235 2.704,-2.235 1.625,0 2.609,0.86 2.609,2.219 0,1.203 -0.719,1.969 -1.875,2.063 z" /><path
         id="path240"
         style="fill:#ff00ff;fill-opacity:1;fill-rule:nonzero;stroke:none"
         d="m 25.57,81.848 -3.797,0 c -0.843,0 -1.375,-0.593 -1.375,-1.578 0,-0.703 0.219,-1.14 0.829,-1.609 l -2.657,0 0,-0.797 7,0 0,0.797 -2.765,0 c -1.032,0 -1.703,0.531 -1.703,1.359 0,0.563 0.328,1.032 0.984,1.032 l 3.484,0 0,0.796 z" /><path
         id="path242"
         style="fill:#ff00ff;fill-opacity:1;fill-rule:nonzero;stroke:none"
         d="m 23.289,87.45 c -0.734,0 -1.187,-0.063 -1.562,-0.203 -0.829,-0.328 -1.329,-1.094 -1.329,-2.031 0,-1.407 1.032,-2.297 2.688,-2.297 1.656,0 2.625,0.859 2.625,2.281 0,1.141 -0.656,1.937 -1.672,2.141 l 0,-0.797 c 0.672,-0.219 0.938,-0.672 0.938,-1.313 0,-0.844 -0.532,-1.469 -1.688,-1.484 l 0,3.703 z M 22.57,86.591 c 0,0 0.047,0 0.063,0 l 0,-2.829 c -0.891,0.079 -1.5,0.641 -1.5,1.438 0,0.797 0.656,1.391 1.437,1.391 z" /><path
         id="path244"
         style="fill:#ff00ff;fill-opacity:1;fill-rule:nonzero;stroke:none"
         d="m 20.539,92.387 0,-0.89 4.078,-1.422 -4.078,-1.344 0,-0.906 5.031,1.766 0,0.875 -5.031,1.921 z" /><path
         id="path246"
         style="fill:#ff00ff;fill-opacity:1;fill-rule:nonzero;stroke:none"
         d="m 26.789,98.079 0.484,0 0,-5.766 -0.484,0 0,5.766 z" /><path
         id="path248"
         style="fill:#ff00ff;fill-opacity:1;fill-rule:nonzero;stroke:none"
         d="m 25.57,102.618 -7,0 0,-0.797 2.61,0 c -0.516,-0.344 -0.782,-0.875 -0.782,-1.547 0,-1.297 1.016,-2.156 2.61,-2.156 1.703,0 2.703,0.828 2.703,2.187 0,0.688 -0.25,1.172 -0.875,1.594 l 0.734,0 0,0.719 z m -2.5,-0.797 c 1.172,0 1.891,-0.562 1.891,-1.406 0,-0.875 -0.734,-1.469 -1.906,-1.469 -1.172,0 -1.907,0.594 -1.907,1.469 0,0.859 0.766,1.406 1.922,1.406 z" /><path
         id="path250"
         style="fill:#ff00ff;fill-opacity:1;fill-rule:nonzero;stroke:none"
         d="m 23.57,109.192 c -0.843,0 -1.343,-0.39 -1.687,-1.281 -0.297,0.625 -0.828,0.969 -1.531,0.969 -1.016,0 -1.782,-0.75 -1.782,-2.078 l 0,-2.829 7,0 0,3.157 c 0,1.25 -0.843,2.062 -2,2.062 z m -3.093,-1.203 c 0.703,0 1.109,-0.422 1.109,-1.406 l 0,-1.719 -2.219,0 0,1.719 c 0,0.984 0.406,1.406 1.11,1.406 z m 3.109,0.297 c 0.672,0 1.203,-0.406 1.203,-1.25 l 0,-2.172 -2.406,0 0,2.172 c 0,0.844 0.515,1.25 1.203,1.25 z" /><path
         id="path252"
         style="fill:#ff00ff;fill-opacity:1;fill-rule:nonzero;stroke:none"
         d="m 23.648,115.591 c -0.859,0 -1.5,-0.532 -1.75,-1.485 l -0.468,-1.75 c -0.219,-0.844 -0.5,-1.156 -1.047,-1.156 -0.703,0 -1.235,0.625 -1.235,1.562 0,1.11 0.516,1.75 1.422,1.75 l 0,0.844 c -1.375,0 -2.172,-0.953 -2.172,-2.562 0,-1.532 0.844,-2.485 2.11,-2.485 0.859,0 1.39,0.453 1.64,1.375 l 0.454,1.735 c 0.234,0.875 0.593,1.281 1.14,1.281 0.766,0 1.219,-0.578 1.219,-1.781 0,-1.328 -0.672,-1.969 -1.672,-1.969 l 0,-0.859 c 1.656,0 2.453,1.125 2.453,2.765 0,1.781 -0.844,2.735 -2.094,2.735 z" /><path
         id="path254"
         style="fill:#ff00ff;fill-opacity:1;fill-rule:nonzero;stroke:none"
         d="m 20.758,120.946 c -1.141,0 -1.985,-0.891 -1.985,-2.187 0,-1.391 0.704,-2.188 2.36,-2.235 l 0,0.844 c -1.141,0.062 -1.625,0.531 -1.625,1.375 0,0.766 0.547,1.328 1.281,1.328 0.531,0 0.984,-0.312 1.344,-0.906 l 0.5,-0.891 c 0.797,-1.422 1.437,-1.828 2.937,-1.906 l 0,4.531 -0.828,0 0,-3.578 c -0.562,0.078 -0.922,0.391 -1.406,1.219 l -0.516,0.969 c -0.515,0.937 -1.218,1.437 -2.062,1.437 z" /><path
         id="path256"
         style="fill:#ff00ff;fill-opacity:1;fill-rule:nonzero;stroke:none"
         d="m 25.57,124.708 -6.797,0 0,-0.563 c 1.047,-0.297 1.188,-0.484 1.344,-1.781 l 0.61,0 0,1.5 4.843,0 0,0.844 z" /><path
         id="path258"
         style="fill:#00ff00;fill-opacity:1;fill-rule:nonzero;stroke:none"
         d="m 4.625,65.391 0,-0.921 c 1.313,-0.219 1.937,-0.766 1.937,-1.954 0,-1.39 -1.062,-2.265 -2.812,-2.265 -1.797,0 -2.953,0.844 -2.953,2.187 0,1.094 0.484,1.672 1.547,1.891 l 0,0.906 C 0.812,64.97 0,64.079 0,62.548 c 0,-2.125 1.719,-3.203 3.75,-3.203 2.047,0 3.594,1.109 3.594,3.156 0,1.719 -0.906,2.672 -2.719,2.89 z" /><path
         id="path260"
         style="fill:#00ff00;fill-opacity:1;fill-rule:nonzero;stroke:none"
         d="m 7.156,70.95 -0.609,0 c 0.015,-0.078 0.015,-0.109 0.015,-0.172 0,-0.266 -0.14,-0.422 -0.39,-0.422 l -2.797,0 C 2.484,70.356 2,69.7 2,68.466 2,67.247 2.469,66.497 3.625,66.45 l 0,0.797 c -0.609,0.078 -0.891,0.437 -0.891,1.187 0,0.719 0.282,1.125 0.75,1.125 l 0.219,0 c 0.328,0 0.469,-0.203 0.547,-0.843 0.156,-1.125 0.188,-1.297 0.312,-1.61 0.235,-0.578 0.688,-0.875 1.297,-0.875 0.922,0 1.453,0.625 1.453,1.641 0,0.656 -0.265,1.265 -0.734,1.719 0.375,0.078 0.656,0.421 0.656,0.812 0,0.172 -0.015,0.297 -0.078,0.547 z M 5.438,69.559 c 0.718,0 1.171,-0.734 1.171,-1.515 0,-0.61 -0.218,-0.985 -0.765,-0.985 -0.532,0 -0.75,0.36 -0.875,1.219 -0.125,0.844 -0.157,1.016 -0.281,1.281 l 0.75,0 z" /><path
         id="path262"
         style="fill:#00ff00;fill-opacity:1;fill-rule:nonzero;stroke:none"
         d="m 7.172,75.786 -5.031,0 0,-0.797 2.781,0 c 1.016,0 1.687,-0.531 1.687,-1.375 0,-0.625 -0.375,-1.031 -0.984,-1.031 l -3.484,0 0,-0.797 3.797,0 c 0.843,0 1.374,0.625 1.374,1.594 0,0.75 -0.25,1.218 -0.921,1.687 l 0.781,0 0,0.719 z" /><path
         id="path264"
         style="fill:#00ff00;fill-opacity:1;fill-rule:nonzero;stroke:none"
         d="M 4.891,81.423 C 4.156,81.423 3.703,81.36 3.328,81.22 2.5,80.891 2,80.126 2,79.188 c 0,-1.406 1.031,-2.297 2.688,-2.297 1.656,0 2.624,0.86 2.624,2.282 0,1.14 -0.656,1.937 -1.671,2.14 l 0,-0.797 c 0.671,-0.218 0.937,-0.671 0.937,-1.312 0,-0.844 -0.531,-1.469 -1.687,-1.484 l 0,3.703 z m -0.719,-0.86 c 0,0 0.047,0 0.062,0 l 0,-2.828 c -0.89,0.078 -1.5,0.641 -1.5,1.438 0,0.797 0.657,1.39 1.438,1.39 z" /><path
         id="path266"
         style="fill:#00ff00;fill-opacity:1;fill-rule:nonzero;stroke:none"
         d="m 2.844,84.942 -0.813,0 C 2.016,84.802 2,84.739 2,84.63 2,84.114 2.312,83.723 3.062,83.27 l -0.921,0 0,-0.734 5.031,0 0,0.797 -2.61,0 c -1.124,0 -1.703,0.375 -1.718,1.609 z" /><path
         id="path268"
         style="fill:#00ff00;fill-opacity:1;fill-rule:nonzero;stroke:none"
         d="m 8.391,90.61 0.484,0 0,-5.766 -0.484,0 0,5.766 z" /><path
         id="path270"
         style="fill:#00ff00;fill-opacity:1;fill-rule:nonzero;stroke:none"
         d="m 7.172,95.149 -7,0 0,-0.797 2.609,0 C 2.266,94.009 2,93.477 2,92.805 c 0,-1.296 1.016,-2.156 2.609,-2.156 1.703,0 2.703,0.828 2.703,2.188 0,0.687 -0.25,1.172 -0.874,1.593 l 0.734,0 0,0.719 z m -2.5,-0.797 c 1.172,0 1.89,-0.562 1.89,-1.406 0,-0.875 -0.734,-1.469 -1.906,-1.469 -1.172,0 -1.906,0.594 -1.906,1.469 0,0.859 0.766,1.406 1.922,1.406 z" /><path
         id="path272"
         style="fill:#00ff00;fill-opacity:1;fill-rule:nonzero;stroke:none"
         d="m 5.172,101.723 c -0.844,0 -1.344,-0.39 -1.688,-1.281 -0.296,0.625 -0.828,0.969 -1.531,0.969 -1.015,0 -1.781,-0.75 -1.781,-2.078 l 0,-2.828 7,0 0,3.156 c 0,1.25 -0.844,2.062 -2,2.062 z M 2.078,100.52 c 0.703,0 1.11,-0.422 1.11,-1.406 l 0,-1.719 -2.219,0 0,1.719 c 0,0.984 0.406,1.406 1.109,1.406 z m 3.11,0.297 c 0.671,0 1.203,-0.406 1.203,-1.25 l 0,-2.172 -2.407,0 0,2.172 c 0,0.844 0.516,1.25 1.204,1.25 z" /><path
         id="path274"
         style="fill:#00ff00;fill-opacity:1;fill-rule:nonzero;stroke:none"
         d="m 5.25,108.122 c -0.859,0 -1.5,-0.531 -1.75,-1.485 l -0.469,-1.75 c -0.219,-0.843 -0.5,-1.156 -1.047,-1.156 -0.703,0 -1.234,0.625 -1.234,1.563 0,1.109 0.516,1.75 1.422,1.75 l 0,0.843 C 0.797,107.887 0,106.934 0,105.325 c 0,-1.531 0.844,-2.484 2.109,-2.484 0.86,0 1.391,0.453 1.641,1.375 l 0.453,1.734 c 0.235,0.875 0.594,1.281 1.141,1.281 0.765,0 1.218,-0.578 1.218,-1.781 0,-1.328 -0.671,-1.969 -1.671,-1.969 l 0,-0.859 c 1.656,0 2.453,1.125 2.453,2.765 0,1.782 -0.844,2.735 -2.094,2.735 z" /><path
         id="path276"
         style="fill:#00ff00;fill-opacity:1;fill-rule:nonzero;stroke:none"
         d="m 2.359,113.477 c -1.14,0 -1.984,-0.89 -1.984,-2.187 0,-1.391 0.703,-2.188 2.359,-2.235 l 0,0.844 c -1.14,0.063 -1.625,0.531 -1.625,1.375 0,0.766 0.547,1.328 1.282,1.328 0.531,0 0.984,-0.312 1.343,-0.906 l 0.5,-0.891 c 0.797,-1.421 1.438,-1.828 2.938,-1.906 l 0,4.531 -0.828,0 0,-3.578 c -0.563,0.078 -0.922,0.391 -1.406,1.219 l -0.516,0.969 c -0.516,0.937 -1.219,1.437 -2.063,1.437 z" /><path
         id="path278"
         style="fill:#00ff00;fill-opacity:1;fill-rule:nonzero;stroke:none"
         d="m 7.172,117.239 -6.797,0 0,-0.562 c 1.047,-0.297 1.187,-0.485 1.344,-1.782 l 0.609,0 0,1.5 4.844,0 0,0.844 z" /></g></g></svg>