<?xml version="1.0" encoding="UTF-8" standalone="no"?>
<svg
   xmlns:dc="http://purl.org/dc/elements/1.1/"
   xmlns:cc="http://creativecommons.org/ns#"
   xmlns:rdf="http://www.w3.org/1999/02/22-rdf-syntax-ns#"
   xmlns:svg="http://www.w3.org/2000/svg"
   xmlns="http://www.w3.org/2000/svg"
   viewBox="0 0 443.99875 253.99876"
   height="253.99876"
   width="443.99875"
   xml:space="preserve"
   version="1.1"
   id="svg2"><metadata
     id="metadata8"><rdf:RDF><cc:Work
         rdf:about=""><dc:format>image/svg+xml</dc:format><dc:type
           rdf:resource="http://purl.org/dc/dcmitype/StillImage" /></cc:Work></rdf:RDF></metadata><defs
     id="defs6" /><g
     transform="matrix(1.25,0,0,-1.25,0,253.99876)"
     id="g10"><g
       id="g12"><path
         id="path14"
         style="fill:#ffffff;fill-opacity:1;fill-rule:evenodd;stroke:none"
         d="m 0,203.199 355.199,0 L 355.199,0 0,0 0,203.199 Z" /><path
         id="path16"
         style="fill:none;stroke:#c0c0c0;stroke-width:0.80000001;stroke-linecap:square;stroke-linejoin:bevel;stroke-miterlimit:4;stroke-dasharray:0.8, 1.6;stroke-dashoffset:0;stroke-opacity:1"
         d="m 108,169.597 192,0" /><path
         id="path18"
         style="fill:none;stroke:#c0c0c0;stroke-width:0.80000001;stroke-linecap:square;stroke-linejoin:bevel;stroke-miterlimit:4;stroke-dasharray:0.8, 1.6;stroke-dashoffset:0;stroke-opacity:1"
         d="m 108,148.801 192,0" /><path
         id="path20"
         style="fill:none;stroke:#c0c0c0;stroke-width:0.80000001;stroke-linecap:square;stroke-linejoin:bevel;stroke-miterlimit:4;stroke-dasharray:0.8, 1.6;stroke-dashoffset:0;stroke-opacity:1"
         d="m 108,127.199 192,0" /><path
         id="path22"
         style="fill:none;stroke:#c0c0c0;stroke-width:0.80000001;stroke-linecap:square;stroke-linejoin:bevel;stroke-miterlimit:4;stroke-dasharray:0.8, 1.6;stroke-dashoffset:0;stroke-opacity:1"
         d="m 108,105.597 192,0" /><path
         id="path24"
         style="fill:none;stroke:#c0c0c0;stroke-width:0.80000001;stroke-linecap:square;stroke-linejoin:bevel;stroke-miterlimit:4;stroke-dasharray:0.8, 1.6;stroke-dashoffset:0;stroke-opacity:1"
         d="m 108,84.801 192,0" /><path
         id="path26"
         style="fill:none;stroke:#c0c0c0;stroke-width:0.80000001;stroke-linecap:square;stroke-linejoin:bevel;stroke-miterlimit:4;stroke-dasharray:0.8, 1.6;stroke-dashoffset:0;stroke-opacity:1"
         d="m 204,191.199 0,-128" /><path
         id="path28"
         style="fill:none;stroke:#000000;stroke-width:0.80000001;stroke-linecap:square;stroke-linejoin:bevel;stroke-miterlimit:4;stroke-dasharray:none;stroke-opacity:1"
         d="m 108,67.199 0,-8" /><path
         id="path30"
         style="fill:none;stroke:#000000;stroke-width:0.80000001;stroke-linecap:square;stroke-linejoin:bevel;stroke-miterlimit:4;stroke-dasharray:none;stroke-opacity:1"
         d="m 204,67.199 0,-8" /><path
         id="path32"
         style="fill:none;stroke:#000000;stroke-width:0.80000001;stroke-linecap:square;stroke-linejoin:bevel;stroke-miterlimit:4;stroke-dasharray:none;stroke-opacity:1"
         d="m 300,67.199 0,-8" /><path
         id="path34"
         style="fill:none;stroke:#000000;stroke-width:0.80000001;stroke-linecap:square;stroke-linejoin:bevel;stroke-miterlimit:4;stroke-dasharray:none;stroke-opacity:1"
         d="m 104,63.199 8,0" /><path
         id="path36"
         style="fill:none;stroke:#000000;stroke-width:0.80000001;stroke-linecap:square;stroke-linejoin:bevel;stroke-miterlimit:4;stroke-dasharray:none;stroke-opacity:1"
         d="m 104,84.801 8,0" /><path
         id="path38"
         style="fill:none;stroke:#000000;stroke-width:0.80000001;stroke-linecap:square;stroke-linejoin:bevel;stroke-miterlimit:4;stroke-dasharray:none;stroke-opacity:1"
         d="m 104,105.597 8,0" /><path
         id="path40"
         style="fill:none;stroke:#000000;stroke-width:0.80000001;stroke-linecap:square;stroke-linejoin:bevel;stroke-miterlimit:4;stroke-dasharray:none;stroke-opacity:1"
         d="m 104,127.199 8,0" /><path
         id="path42"
         style="fill:none;stroke:#000000;stroke-width:0.80000001;stroke-linecap:square;stroke-linejoin:bevel;stroke-miterlimit:4;stroke-dasharray:none;stroke-opacity:1"
         d="m 104,148.801 8,0" /><path
         id="path44"
         style="fill:none;stroke:#000000;stroke-width:0.80000001;stroke-linecap:square;stroke-linejoin:bevel;stroke-miterlimit:4;stroke-dasharray:none;stroke-opacity:1"
         d="m 104,169.597 8,0" /><path
         id="path46"
         style="fill:none;stroke:#000000;stroke-width:0.80000001;stroke-linecap:square;stroke-linejoin:bevel;stroke-miterlimit:4;stroke-dasharray:none;stroke-opacity:1"
         d="m 104,191.199 8,0" /><path
         id="path48"
         style="fill:none;stroke:#000000;stroke-width:0.80000001;stroke-linecap:square;stroke-linejoin:bevel;stroke-miterlimit:4;stroke-dasharray:none;stroke-opacity:1"
         d="m 108,191.199 192,0" /><path
         id="path50"
         style="fill:none;stroke:#000000;stroke-width:0.80000001;stroke-linecap:square;stroke-linejoin:bevel;stroke-miterlimit:4;stroke-dasharray:none;stroke-opacity:1"
         d="m 300,191.199 0,-128" /><path
         id="path52"
         style="fill:none;stroke:#000000;stroke-width:0.80000001;stroke-linecap:square;stroke-linejoin:bevel;stroke-miterlimit:4;stroke-dasharray:none;stroke-opacity:1"
         d="m 108,63.199 192,0" /><path
         id="path54"
         style="fill:none;stroke:#000000;stroke-width:0.80000001;stroke-linecap:square;stroke-linejoin:bevel;stroke-miterlimit:4;stroke-dasharray:none;stroke-opacity:1"
         d="m 108,191.199 0,-128" /><path
         id="path56"
         style="fill:none;stroke:#0000ff;stroke-width:0.80000001;stroke-linecap:square;stroke-linejoin:bevel;stroke-miterlimit:4;stroke-dasharray:none;stroke-opacity:1"
         d="m 117.602,169.258 0.043,-0.004 0.043,-0.008 0.046,-0.004 0.043,-0.008 0.047,-0.004 0.047,-0.008 0.043,-0.003 0.047,-0.008 0.047,-0.004 0.047,-0.008 0.043,-0.004 0.047,-0.008 0.046,-0.004 0.047,-0.007 0.051,-0.008 0.047,-0.004 0.094,-0.016 0.047,-0.004 0.05,-0.007 0.047,-0.008 0.051,-0.008 0.047,-0.004 0.152,-0.023 0.047,-0.008 0.051,-0.004 0.254,-0.039 0.054,-0.008 0.102,-0.016 0.055,-0.007 0.051,-0.008 0.054,-0.008 0.051,-0.008 0.109,-0.016 0.051,-0.007 0.055,-0.008 0.054,-0.012 0.219,-0.031 0.059,-0.012 0.109,-0.015 0.059,-0.012 0.054,-0.008 0.059,-0.008 0.055,-0.012 0.058,-0.007 0.059,-0.012 0.059,-0.008 0.058,-0.012 0.059,-0.007 0.058,-0.012 0.059,-0.008 0.059,-0.012 0.058,-0.007 0.059,-0.012 0.062,-0.012 0.059,-0.008 0.125,-0.023 0.058,-0.008 0.313,-0.059 0.062,-0.007 0.125,-0.024 0.067,-0.012 0.125,-0.023 0.066,-0.012 0.067,-0.015 0.062,-0.012 0.266,-0.047 0.066,-0.016 0.067,-0.011 0.07,-0.012 0.066,-0.016 0.067,-0.011 0.07,-0.016 0.07,-0.012 0.067,-0.015 0.07,-0.012 0.07,-0.016 0.071,-0.011 0.07,-0.016 0.07,-0.012 0.141,-0.031 0.074,-0.016 0.07,-0.011 0.075,-0.016 0.07,-0.016 0.148,-0.031 0.071,-0.015 0.078,-0.016 0.297,-0.063 0.078,-0.019 0.148,-0.031 0.078,-0.016 0.079,-0.019 0.078,-0.016 0.078,-0.02 0.078,-0.015 0.078,-0.02 0.078,-0.015 0.078,-0.02 0.082,-0.019 0.078,-0.016 0.082,-0.02 0.079,-0.019 0.082,-0.02 0.082,-0.015 0.246,-0.059 0.086,-0.019 0.082,-0.02 0.082,-0.023 0.172,-0.039 0.082,-0.02 0.086,-0.023 0.086,-0.02 0.085,-0.023 0.086,-0.02 0.09,-0.023 0.086,-0.02 0.086,-0.023 0.09,-0.024 0.09,-0.019 0.086,-0.024 0.269,-0.07 0.094,-0.024 0.18,-0.046 0.093,-0.024 0.09,-0.027 0.188,-0.047 0.094,-0.027 0.093,-0.024 0.094,-0.027 0.098,-0.024 0.093,-0.027 0.098,-0.027 0.094,-0.028 0.098,-0.023 0.292,-0.082 0.098,-0.031 0.098,-0.028 0.101,-0.027 0.098,-0.027 0.102,-0.032 0.101,-0.027 0.102,-0.031 0.101,-0.028 0.203,-0.062 0.106,-0.027 0.101,-0.032 0.211,-0.062 0.102,-0.031 0.105,-0.036 0.106,-0.031 0.109,-0.031 0.106,-0.035 0.109,-0.031 0.106,-0.036 0.109,-0.031 0.328,-0.105 0.113,-0.036 0.219,-0.07 0.113,-0.035 0.114,-0.039 0.226,-0.07 0.113,-0.039 0.118,-0.039 0.113,-0.036 0.117,-0.039 0.113,-0.039 0.235,-0.078 0.121,-0.043 0.234,-0.078 0.121,-0.043 0.121,-0.039 0.122,-0.043 0.117,-0.043 0.125,-0.043 0.242,-0.086 0.125,-0.043 0.125,-0.047 0.125,-0.043 0.125,-0.047 0.125,-0.043 0.125,-0.046 0.129,-0.047 0.125,-0.047 0.387,-0.141 0.128,-0.051 0.133,-0.046 0.129,-0.051 0.664,-0.254 0.137,-0.051 0.137,-0.055 0.132,-0.054 0.137,-0.051 0.137,-0.055 0.141,-0.054 0.136,-0.055 0.141,-0.059 0.141,-0.054 0.14,-0.059 0.141,-0.055 0.281,-0.117 0.145,-0.058 0.144,-0.063 0.289,-0.117 0.145,-0.063 0.148,-0.062 0.145,-0.063 0.297,-0.125 0.148,-0.066 0.152,-0.063 0.149,-0.066 0.457,-0.199 0.152,-0.07 0.152,-0.067 0.782,-0.351 0.16,-0.075 0.156,-0.074 0.16,-0.074 0.164,-0.074 0.321,-0.149 0.82,-0.39 0.336,-0.164 0.168,-0.079 0.168,-0.086 0.172,-0.082 0.168,-0.082 0.515,-0.257 0.176,-0.09 0.176,-0.086 0.172,-0.09 0.176,-0.09 0.179,-0.09 0.176,-0.093 0.18,-0.09 0.359,-0.188 0.18,-0.097 0.183,-0.094 0.18,-0.098 0.184,-0.098 0.187,-0.097 0.184,-0.102 0.187,-0.097 0.184,-0.102 0.191,-0.105 0.188,-0.102 0.187,-0.105 0.383,-0.211 0.191,-0.11 0.196,-0.105 0.191,-0.11 0.195,-0.113 0.196,-0.109 0.199,-0.114 0.195,-0.113 0.2,-0.113 0.398,-0.234 0.203,-0.118 0.199,-0.121 0.207,-0.117 0.203,-0.121 0.204,-0.125 0.207,-0.121 0.207,-0.125 0.207,-0.129 0.211,-0.125 0.207,-0.129 0.211,-0.129 0.211,-0.133 0.214,-0.132 0.211,-0.133 0.215,-0.133 0.215,-0.137 0.437,-0.273 0.438,-0.282 0.219,-0.144 0.668,-0.434 0.453,-0.297 0.453,-0.304 0.23,-0.153 0.461,-0.312 0.231,-0.16 0.703,-0.481 0.234,-0.164 0.477,-0.336 0.242,-0.168 0.238,-0.172 0.485,-0.343 0.246,-0.176 0.246,-0.18 0.246,-0.176 0.246,-0.183 0.25,-0.18 0.25,-0.187 0.25,-0.184 0.254,-0.187 0.762,-0.575 0.515,-0.39 0.258,-0.199 0.262,-0.204 0.262,-0.199 0.261,-0.207 0.532,-0.414 0.265,-0.211 0.27,-0.211 0.269,-0.215 0.539,-0.437 0.274,-0.219 0.273,-0.223 0.278,-0.226 0.273,-0.227 0.281,-0.23 0.278,-0.231 0.281,-0.234 0.562,-0.477 0.571,-0.484 0.289,-0.246 0.285,-0.246 0.293,-0.25 0.289,-0.254 0.293,-0.254 0.293,-0.258 0.297,-0.261 0.293,-0.262 0.3,-0.266 0.297,-0.269 0.301,-0.27 0.301,-0.273 0.609,-0.555 0.305,-0.281 0.617,-0.571 0.313,-0.292 0.308,-0.293 0.317,-0.293 0.312,-0.301 0.317,-0.301 0.316,-0.305 0.32,-0.304 0.641,-0.625 0.324,-0.317 0.328,-0.32 0.324,-0.324 0.329,-0.325 0.66,-0.66 0.332,-0.336 0.336,-0.339 0.672,-0.688 0.679,-0.703 0.34,-0.356 0.344,-0.363 0.348,-0.363 0.343,-0.367 0.348,-0.371 0.703,-0.75 0.352,-0.383 0.355,-0.387 0.356,-0.391 0.359,-0.394 0.359,-0.399 0.364,-0.398 0.363,-0.406 0.363,-0.41 0.367,-0.414 0.368,-0.418 0.742,-0.852 0.371,-0.43 0.375,-0.437 0.379,-0.438 0.375,-0.445 0.383,-0.449 0.378,-0.453 0.387,-0.461 0.383,-0.461 0.387,-0.469 0.39,-0.473 0.391,-0.476 0.394,-0.485 0.391,-0.488 0.399,-0.492 0.398,-0.496 0.398,-0.504 0.403,-0.508 0.402,-0.512 0.406,-0.519 0.407,-0.523 0.82,-1.063 0.414,-0.543 0.414,-0.547 0.418,-0.551 0.418,-0.558 0.422,-0.563 0.422,-0.57 0.425,-0.574 0.426,-0.582 0.43,-0.586 0.43,-0.594 0.429,-0.602 0.438,-0.605 0.433,-0.613 0.442,-0.621 0.437,-0.625 0.446,-0.633 0.445,-0.641 0.445,-0.648 0.449,-0.653 0.45,-0.66 0.453,-0.668 0.457,-0.675 0.914,-1.372 0.461,-0.695 0.465,-0.707 0.465,-0.711 0.468,-0.719 0.469,-0.726 0.473,-0.738 0.472,-0.743 0.477,-0.75 0.48,-0.761 0.481,-0.77 0.484,-0.773 0.485,-0.789 0.488,-0.793 0.488,-0.801 0.492,-0.813 0.493,-0.82 0.496,-0.832 0.5,-0.836 0.504,-0.848 0.5,-0.859 0.507,-0.867 0.508,-0.875 0.512,-0.887 0.512,-0.898 0.515,-0.907 0.516,-0.918 0.523,-0.925 0.52,-0.938 0.527,-0.945 0.528,-0.961 0.527,-0.969 0.531,-0.98 0.535,-0.992 0.539,-1 0.539,-1.016 0.543,-1.024 0.543,-1.035 0.547,-1.05 0.551,-1.059 0.551,-1.074 0.554,-1.082 0.473,-0.93" /><path
         id="path58"
         style="fill:none;stroke:#ff0000;stroke-width:0.80000001;stroke-linecap:square;stroke-linejoin:bevel;stroke-miterlimit:4;stroke-dasharray:none;stroke-opacity:1"
         d="m 117.602,169.867 19.828,0 0.132,-0.004 6.153,0 0.164,-0.004 2.043,0 0.172,-0.004 1.25,0 0.183,-0.004 0.922,0 0.184,-0.004 0.758,0 0.191,-0.003 0.387,0 0.191,-0.004 0.59,0 0.195,-0.004 0.2,0 0.199,-0.004 0.402,0 0.199,-0.004 0.207,0 0.203,-0.004 0.204,0 0.207,-0.004 0.207,0 0.207,-0.004 0.211,0 0.207,-0.004 0.211,-0.004 0.211,0 0.214,-0.004 0.211,-0.003 0.215,-0.004 0.215,0 1.094,-0.02 0.445,-0.008 0.223,-0.007 0.679,-0.012 0.227,-0.008 0.23,-0.004 0.461,-0.016 0.231,-0.003 0.937,-0.032 0.477,-0.015 0.242,-0.012 0.238,-0.008 0.485,-0.023 0.246,-0.008 0.246,-0.012 0.246,-0.015 0.246,-0.012 0.25,-0.012 0.5,-0.031 1.016,-0.063 0.773,-0.058 0.262,-0.024 0.262,-0.019 0.261,-0.024 0.266,-0.027 0.266,-0.023 0.265,-0.028 0.27,-0.027 0.269,-0.031 0.27,-0.028 0.269,-0.035 0.274,-0.031 0.273,-0.035 0.278,-0.039 0.273,-0.035 0.281,-0.043 0.278,-0.04 0.843,-0.14 0.571,-0.102 0.289,-0.058 0.285,-0.055 0.293,-0.062 0.289,-0.063 0.293,-0.066 0.293,-0.071 0.297,-0.074 0.293,-0.074 0.3,-0.082 0.297,-0.082 0.301,-0.086 0.301,-0.094 0.305,-0.094 0.609,-0.203 0.309,-0.109 0.308,-0.117 0.313,-0.118 0.308,-0.125 0.317,-0.132 0.312,-0.137 0.317,-0.141 0.316,-0.148 0.32,-0.156 0.321,-0.164 0.32,-0.172 0.324,-0.18 0.328,-0.184 0.324,-0.195 0.329,-0.203 0.328,-0.215 0.332,-0.223 0.332,-0.23 0.336,-0.242 0.336,-0.254 0.336,-0.266 0.339,-0.277 0.34,-0.285 0.34,-0.301 0.344,-0.316 0.348,-0.329 0.343,-0.339 0.348,-0.36 0.351,-0.371 0.352,-0.387 0.352,-0.406 0.355,-0.422 0.356,-0.441 0.359,-0.457 0.359,-0.477 0.364,-0.5 0.363,-0.515 0.363,-0.539 0.367,-0.563 0.368,-0.586 0.371,-0.605 0.371,-0.633 0.371,-0.66 0.375,-0.684 0.379,-0.711 0.375,-0.738 0.383,-0.766 0.378,-0.797 0.387,-0.828 0.383,-0.855 0.387,-0.891 0.39,-0.922 0.391,-0.957 0.394,-0.992 0.391,-1.027 0.399,-1.063 0.398,-1.101 0.398,-1.137 0.403,-1.18 0.402,-1.215 0.406,-1.257 0.407,-1.301 0.41,-1.34 0.41,-1.383 0.414,-1.429 0.414,-1.469 0.418,-1.516 0.418,-1.562 0.422,-1.61 0.422,-1.652 0.425,-1.699 0.426,-1.75 0.43,-1.793 0.43,-1.848 0.429,-1.891 0.438,-1.941 0.433,-1.992 0.442,-2.039 0.437,-2.086 0.446,-2.141 0.445,-2.183 0.445,-2.239 0.449,-2.285 0.45,-2.332 0.453,-2.383 0.457,-2.429 0.453,-2.481 0.461,-2.527 0.461,-2.574 0.465,-2.621 0.465,-2.664 0.468,-2.715 0.469,-2.758 0.473,-2.805 0.472,-2.847 0.477,-2.891 0.09,-0.547" /><path
         id="path60"
         style="fill:none;stroke:#ff00ff;stroke-width:0.80000001;stroke-linecap:square;stroke-linejoin:bevel;stroke-miterlimit:4;stroke-dasharray:none;stroke-opacity:1"
         d="m 117.602,164.168 0.086,-0.094 0.046,-0.047 0.043,-0.047 0.047,-0.051 0.047,-0.046 0.043,-0.051 0.047,-0.047 0.047,-0.051 0.047,-0.047 0.043,-0.05 0.14,-0.153 0.051,-0.051 0.047,-0.05 0.047,-0.055 0.047,-0.051 0.047,-0.055 0.05,-0.05 0.047,-0.055 0.051,-0.055 0.047,-0.054 0.051,-0.051 0.05,-0.059 0.051,-0.054 0.047,-0.055 0.051,-0.055 0.051,-0.058 0.05,-0.055 0.051,-0.059 0.051,-0.054 0.051,-0.059 0.054,-0.059 0.102,-0.117 0.055,-0.058 0.051,-0.059 0.054,-0.059 0.051,-0.062 0.055,-0.059 0.054,-0.062 0.051,-0.063 0.055,-0.058 0.219,-0.25 0.054,-0.067 0.059,-0.062 0.055,-0.063 0.054,-0.066 0.059,-0.063 0.054,-0.066 0.059,-0.066 0.055,-0.067 0.234,-0.265 0.059,-0.071 0.058,-0.066 0.059,-0.07 0.059,-0.067 0.117,-0.14 0.062,-0.071 0.059,-0.07 0.125,-0.141 0.058,-0.07 0.063,-0.07 0.062,-0.075 0.063,-0.07 0.062,-0.074 0.063,-0.07 0.187,-0.223 0.067,-0.074 0.125,-0.149 0.066,-0.074 0.067,-0.078 0.062,-0.074 0.067,-0.078 0.066,-0.075 0.199,-0.234 0.067,-0.074 0.07,-0.078 0.066,-0.082 0.067,-0.078 0.14,-0.157 0.067,-0.078 0.07,-0.082 0.07,-0.078 0.141,-0.164 0.07,-0.078 0.141,-0.164 0.074,-0.082 0.07,-0.082 0.075,-0.082 0.07,-0.082 0.148,-0.164 0.071,-0.082 0.078,-0.083 0.074,-0.085 0.074,-0.082 0.074,-0.086 0.075,-0.082 0.078,-0.086 0.074,-0.082 0.074,-0.086 0.078,-0.082 0.313,-0.344 0.078,-0.082 0.156,-0.172 0.082,-0.086 0.078,-0.086 0.082,-0.086 0.079,-0.086 0.41,-0.429 0.086,-0.086 0.164,-0.172 0.172,-0.172 0.082,-0.086 0.086,-0.09 0.257,-0.258 0.09,-0.086 0.086,-0.082 0.086,-0.086 0.18,-0.172 0.086,-0.085 0.09,-0.086 0.089,-0.082 0.09,-0.086 0.094,-0.086 0.09,-0.082 0.09,-0.086 0.093,-0.082 0.09,-0.086 0.188,-0.164 0.094,-0.086 0.187,-0.164 0.098,-0.082 0.093,-0.082 0.098,-0.079 0.094,-0.082 0.098,-0.082 0.195,-0.156 0.097,-0.082 0.196,-0.156 0.101,-0.074 0.098,-0.078 0.102,-0.079 0.203,-0.148 0.101,-0.078 0.102,-0.074 0.101,-0.071 0.106,-0.074 0.101,-0.07 0.106,-0.074 0.105,-0.071 0.102,-0.07 0.105,-0.066 0.106,-0.071 0.109,-0.066 0.106,-0.067 0.109,-0.066 0.106,-0.066 0.437,-0.25 0.113,-0.059 0.11,-0.062 0.109,-0.055 0.113,-0.059 0.453,-0.219 0.118,-0.05 0.113,-0.051 0.117,-0.047 0.113,-0.047 0.235,-0.094 0.121,-0.043 0.117,-0.043 0.117,-0.039 0.242,-0.078 0.122,-0.035 0.117,-0.035 0.125,-0.035 0.242,-0.063 0.25,-0.054 0.375,-0.071 0.125,-0.019 0.129,-0.02 0.125,-0.015 0.129,-0.012 0.129,-0.016 0.257,-0.015 0.133,-0.008 0.129,-0.004 0.133,-0.004 0.133,0 0.265,0.008 0.133,0.008 0.137,0.007 0.137,0.012 0.132,0.012 0.137,0.016 0.137,0.019 0.141,0.02 0.136,0.023 0.141,0.023 0.141,0.028 0.14,0.031 0.281,0.07 0.141,0.039 0.145,0.04 0.144,0.042 0.145,0.047 0.289,0.102 0.148,0.055 0.145,0.058 0.148,0.059 0.297,0.133 0.152,0.07 0.149,0.07 0.152,0.074 0.457,0.247 0.152,0.089 0.157,0.09 0.156,0.094 0.156,0.098 0.156,0.101 0.157,0.106 0.16,0.105 0.156,0.113 0.16,0.114 0.164,0.117 0.16,0.121 0.161,0.125 0.328,0.258 0.328,0.273 0.164,0.141 0.168,0.144 0.168,0.149 0.168,0.152 0.168,0.156 0.172,0.161 0.168,0.16 0.343,0.336 0.172,0.172 0.352,0.359 0.172,0.18 0.176,0.187 0.179,0.192 0.176,0.191 0.359,0.398 0.18,0.203 0.18,0.208 0.183,0.21 0.18,0.211 0.184,0.215 0.187,0.219 0.184,0.223 0.187,0.226 0.184,0.227 0.191,0.23 0.188,0.235 0.187,0.238 0.192,0.238 0.382,0.485 0.196,0.246 0.191,0.25 0.391,0.5 0.199,0.257 0.195,0.254 0.2,0.258 0.199,0.262 0.199,0.258 0.203,0.261 0.199,0.266 0.207,0.262 0.407,0.531 0.207,0.266 0.207,0.261 0.207,0.266 0.211,0.266 0.207,0.265 0.211,0.266 0.211,0.262 0.214,0.261 0.211,0.262 0.215,0.258 0.215,0.254 0.219,0.258 0.437,0.5 0.219,0.246 0.219,0.242 0.222,0.238 0.446,0.469 0.453,0.445 0.226,0.215 0.227,0.211 0.23,0.203 0.231,0.199 0.23,0.192 0.231,0.183 0.234,0.176 0.235,0.168 0.234,0.16 0.234,0.153 0.239,0.14 0.238,0.137 0.242,0.121 0.238,0.113 0.243,0.106 0.242,0.09 0.246,0.082 0.246,0.07 0.246,0.059 0.246,0.042 0.25,0.036 0.25,0.019 0.25,0.008 0.254,-0.008 0.254,-0.019 0.254,-0.036 0.254,-0.046 0.258,-0.063 0.257,-0.078 0.258,-0.094 0.262,-0.105 0.262,-0.125 0.261,-0.137 0.266,-0.152 0.266,-0.168 0.265,-0.188 0.27,-0.199 0.269,-0.215 0.27,-0.23 0.269,-0.242 0.274,-0.262 0.273,-0.278 0.278,-0.289 0.273,-0.304 0.281,-0.321 0.278,-0.332 0.281,-0.347 0.281,-0.364 0.281,-0.371 0.285,-0.386 0.286,-0.399 0.289,-0.406 0.285,-0.422 0.293,-0.43 0.289,-0.437 0.293,-0.449 0.293,-0.457 0.297,-0.465 0.293,-0.469 0.3,-0.477 0.297,-0.48 0.301,-0.484 0.301,-0.489 0.609,-0.984 0.305,-0.488 0.309,-0.493 0.308,-0.488 0.313,-0.484 0.308,-0.481 0.317,-0.472 0.312,-0.469 0.317,-0.457 0.316,-0.449 0.32,-0.438 0.321,-0.426 0.32,-0.414 0.324,-0.398 0.328,-0.383 0.324,-0.363 0.329,-0.344 0.328,-0.324 0.332,-0.301 0.332,-0.277 0.336,-0.25 0.336,-0.227 0.336,-0.195 0.339,-0.168 0.34,-0.133 0.34,-0.105 0.344,-0.067 0.348,-0.031 0.343,0.008 0.348,0.047 0.351,0.086 0.352,0.132 0.352,0.172 0.355,0.219 0.356,0.266 0.359,0.312 0.359,0.36 0.364,0.41 0.363,0.461 0.363,0.511 0.367,0.567 0.368,0.613 0.371,0.664 0.371,0.715 0.371,0.762 0.375,0.812 0.379,0.856 0.375,0.898 0.383,0.934 0.378,0.968 0.387,0.993 0.383,1.015 0.387,1.024 0.39,1.027 0.391,1.012 0.394,0.988 0.391,0.941 0.399,0.883 0.398,0.801 0.398,0.695 0.403,0.559 0.402,0.398 0.406,0.203 0.407,-0.027 0.41,-0.285 0.41,-0.582 0.414,-0.922 0.414,-1.285 0.418,-1.688 0.418,-2.117 0.422,-2.57 0.422,-3.039 0.425,-3.524 0.426,-4.007 0.43,-4.489 0.43,-4.965 0.429,-5.414 0.438,-5.843 0.433,-6.243 0.442,-6.613 0.437,-6.945 0.446,-7.242 0.445,-7.504 0.445,-7.731 0.449,-7.925 0.45,-8.083 0.418,-7.605" /><path
         id="path62"
         style="fill:none;stroke:#00ff00;stroke-width:0.80000001;stroke-linecap:square;stroke-linejoin:bevel;stroke-miterlimit:4;stroke-dasharray:none;stroke-opacity:1"
         d="m 117.602,167.304 0.086,-0.046 0.046,-0.024 0.043,-0.023 0.094,-0.047 0.043,-0.024 0.141,-0.07 0.043,-0.027 0.093,-0.047 0.047,-0.027 0.051,-0.024 0.047,-0.027 0.047,-0.024 0.094,-0.054 0.05,-0.024 0.047,-0.027 0.051,-0.027 0.047,-0.028 0.152,-0.082 0.047,-0.027 0.051,-0.031 0.101,-0.055 0.051,-0.031 0.051,-0.028 0.051,-0.031 0.054,-0.027 0.051,-0.032 0.051,-0.027 0.055,-0.031 0.051,-0.031 0.054,-0.032 0.051,-0.031 0.109,-0.062 0.051,-0.032 0.109,-0.062 0.055,-0.035 0.055,-0.032 0.055,-0.035 0.054,-0.031 0.059,-0.035 0.055,-0.031 0.054,-0.036 0.059,-0.035 0.054,-0.035 0.059,-0.035 0.055,-0.035 0.234,-0.141 0.059,-0.039 0.058,-0.035 0.059,-0.039 0.059,-0.035 0.117,-0.078 0.062,-0.036 0.059,-0.039 0.125,-0.078 0.058,-0.039 0.063,-0.039 0.062,-0.043 0.125,-0.078 0.063,-0.043 0.062,-0.039 0.125,-0.086 0.067,-0.043 0.062,-0.039 0.063,-0.043 0.133,-0.086 0.062,-0.047 0.133,-0.086 0.066,-0.047 0.067,-0.042 0.066,-0.047 0.067,-0.043 0.07,-0.047 0.133,-0.094 0.14,-0.094 0.067,-0.047 0.07,-0.046 0.07,-0.051 0.071,-0.047 0.07,-0.051 0.07,-0.047 0.141,-0.101 0.074,-0.051 0.07,-0.051 0.075,-0.051 0.07,-0.05 0.148,-0.102 0.071,-0.055 0.078,-0.05 0.074,-0.055 0.074,-0.051 0.149,-0.109 0.078,-0.055 0.148,-0.109 0.078,-0.055 0.079,-0.059 0.156,-0.109 0.156,-0.117 0.078,-0.055 0.078,-0.059 0.082,-0.058 0.078,-0.059 0.082,-0.058 0.079,-0.063 0.164,-0.117 0.082,-0.062 0.082,-0.059 0.082,-0.063 0.086,-0.062 0.164,-0.125 0.172,-0.125 0.082,-0.063 0.086,-0.066 0.086,-0.062 0.085,-0.067 0.086,-0.062 0.09,-0.067 0.172,-0.133 0.09,-0.062 0.09,-0.07 0.086,-0.067 0.179,-0.133 0.09,-0.07 0.094,-0.066 0.18,-0.141 0.093,-0.066 0.09,-0.071 0.188,-0.14 0.094,-0.075 0.187,-0.14 0.098,-0.074 0.093,-0.071 0.098,-0.074 0.094,-0.07 0.586,-0.446 0.101,-0.078 0.098,-0.074 0.102,-0.074 0.101,-0.078 0.102,-0.074 0.304,-0.235 0.106,-0.074 0.101,-0.078 0.106,-0.082 0.105,-0.078 0.102,-0.078 0.211,-0.157 0.109,-0.082 0.106,-0.078 0.109,-0.082 0.106,-0.078 0.218,-0.164 0.11,-0.078 0.109,-0.082 0.113,-0.082 0.219,-0.164 0.34,-0.246 0.113,-0.086 0.113,-0.082 0.118,-0.082 0.113,-0.082 0.117,-0.086 0.113,-0.082 0.118,-0.086 0.117,-0.082 0.121,-0.086 0.117,-0.082 0.117,-0.086 0.121,-0.082 0.121,-0.086 0.122,-0.082 0.117,-0.086 0.125,-0.086 0.121,-0.082 0.121,-0.086 0.25,-0.172 0.125,-0.082 0.25,-0.172 0.125,-0.082 0.129,-0.086 0.125,-0.086 0.129,-0.082 0.258,-0.172 0.128,-0.082 0.133,-0.086 0.129,-0.082 0.133,-0.086 0.133,-0.082 0.133,-0.086 0.132,-0.082 0.133,-0.086 0.274,-0.164 0.132,-0.082 0.274,-0.164 0.141,-0.082 0.136,-0.082 0.422,-0.246 0.281,-0.156 0.141,-0.082 0.723,-0.391 0.148,-0.074 0.145,-0.078 0.445,-0.223 0.152,-0.074 0.149,-0.074 0.152,-0.071 0.152,-0.074 0.305,-0.14 0.152,-0.067 0.157,-0.07 0.625,-0.266 0.16,-0.062 0.156,-0.063 0.16,-0.062 0.164,-0.063 0.321,-0.117 0.328,-0.117 0.328,-0.11 0.164,-0.05 0.504,-0.153 0.168,-0.047 0.172,-0.046 0.168,-0.043 0.515,-0.129 0.176,-0.035 0.176,-0.039 0.172,-0.036 0.176,-0.035 0.179,-0.031 0.176,-0.027 0.18,-0.032 0.179,-0.023 0.18,-0.027 0.18,-0.024 0.183,-0.019 0.18,-0.02 0.184,-0.016 0.187,-0.011 0.184,-0.016 0.187,-0.008 0.184,-0.008 0.191,-0.007 0.188,0 0.187,-0.004 0.383,0.008 0.191,0.007 0.196,0.008 0.191,0.012 0.391,0.031 0.199,0.02 0.195,0.023 0.399,0.055 0.199,0.031 0.203,0.035 0.199,0.039 0.207,0.039 0.407,0.094 0.414,0.102 0.207,0.058 0.211,0.063 0.207,0.062 0.211,0.067 0.211,0.074 0.214,0.074 0.211,0.078 0.215,0.082 0.215,0.086 0.219,0.09 0.218,0.094 0.219,0.097 0.438,0.211 0.222,0.11 0.223,0.113 0.223,0.121 0.226,0.121 0.227,0.125 0.226,0.133 0.227,0.137 0.23,0.14 0.231,0.145 0.23,0.148 0.231,0.153 0.469,0.32 0.234,0.168 0.234,0.172 0.239,0.176 0.238,0.183 0.242,0.184 0.238,0.191 0.243,0.196 0.242,0.199 0.246,0.203 0.246,0.211 0.246,0.215 0.246,0.218 0.25,0.223 0.25,0.227 0.25,0.234 0.254,0.238 0.254,0.242 0.254,0.247 0.254,0.25 0.258,0.253 0.257,0.258 0.258,0.266 0.262,0.266 0.523,0.546 0.266,0.278 0.531,0.57 0.27,0.289 0.539,0.586 0.269,0.301 0.547,0.601 0.278,0.305 0.273,0.305 0.281,0.308 0.278,0.309 0.281,0.309 0.281,0.312 0.281,0.309 0.571,0.617 0.289,0.308 0.285,0.305 0.293,0.305 0.289,0.301 0.293,0.296 0.293,0.293 0.297,0.29 0.293,0.285 0.3,0.277 0.297,0.273 0.301,0.266 0.301,0.258 0.305,0.246 0.304,0.238 0.305,0.231 0.309,0.218 0.308,0.208 0.313,0.191 0.308,0.18 0.317,0.168 0.312,0.148 0.317,0.133 0.316,0.117 0.32,0.098 0.321,0.078 0.32,0.062 0.324,0.035 0.328,0.02 0.324,-0.008 0.329,-0.031 0.328,-0.055 0.332,-0.078 0.332,-0.105 0.336,-0.133 0.336,-0.16 0.336,-0.188 0.339,-0.215 0.34,-0.242 0.34,-0.269 0.344,-0.301 0.348,-0.332 0.343,-0.356 0.348,-0.386 0.351,-0.411 0.352,-0.441 0.352,-0.465 0.355,-0.492 0.356,-0.516 0.359,-0.535 0.359,-0.558 0.364,-0.575 0.363,-0.589 0.363,-0.606 0.367,-0.617 0.368,-0.621 0.742,-1.25 0.371,-0.621 0.375,-0.614 0.379,-0.597 0.375,-0.578 0.383,-0.551 0.378,-0.524 0.387,-0.48 0.383,-0.438 0.387,-0.382 0.39,-0.321 0.391,-0.246 0.394,-0.172 0.391,-0.078 0.399,0.02 0.398,0.129 0.398,0.25 0.403,0.383 0.402,0.519 0.406,0.672 0.407,0.828 0.41,0.988 0.41,1.149 0.414,1.304 0.414,1.446 0.418,1.554 0.418,1.622 0.422,1.617 0.422,1.504 0.425,1.242 0.426,0.777 0.43,0.039 0.43,-1.031 0.429,-2.492 0.438,-4.371 0.433,-6.641 0.442,-9.195 0.437,-11.899 0.446,-14.547 0.445,-16.976 0.445,-19.078 0.438,-20.344" /><path
         id="path64"
         style="fill:#000000;fill-opacity:1;fill-rule:nonzero;stroke:none"
         d="m 109.66,52.066 c 0,2.36 -0.75,3.531 -2.219,3.531 -1.468,0 -2.234,-1.187 -2.234,-3.468 0,-2.297 0.781,-3.469 2.234,-3.469 1.438,0 2.219,1.172 2.219,3.406 z m -0.859,0.078 c 0,-1.922 -0.438,-2.781 -1.375,-2.781 -0.891,0 -1.344,0.891 -1.344,2.75 0,1.875 0.453,2.734 1.359,2.734 0.907,0 1.36,-0.875 1.36,-2.703 z" /><path
         id="path66"
         style="fill:#000000;fill-opacity:1;fill-rule:nonzero;stroke:none"
         d="m 196.93,48.801 0,6.796 -0.563,0 c -0.297,-1.046 -0.484,-1.187 -1.781,-1.343 l 0,-0.61 1.5,0 0,-4.843 0.844,0 z" /><path
         id="path68"
         style="fill:#000000;fill-opacity:1;fill-rule:nonzero;stroke:none"
         d="m 203.859,51.082 c 0,0.734 -0.062,1.187 -0.203,1.562 -0.328,0.828 -1.094,1.328 -2.031,1.328 -1.406,0 -2.297,-1.031 -2.297,-2.687 0,-1.656 0.86,-2.625 2.281,-2.625 1.141,0 1.938,0.656 2.141,1.672 l -0.797,0 c -0.219,-0.672 -0.672,-0.938 -1.312,-0.938 -0.844,0 -1.469,0.532 -1.485,1.688 l 3.703,0 z M 203,51.801 c 0,0 0,-0.047 0,-0.063 l -2.828,0 c 0.078,0.891 0.64,1.5 1.437,1.5 0.797,0 1.391,-0.656 1.391,-1.437 z" /><path
         id="path70"
         style="fill:#000000;fill-opacity:1;fill-rule:nonzero;stroke:none"
         d="m 209.164,52.363 c 0,2.125 -0.75,3.234 -2.297,3.234 -1.297,0 -2.234,-0.921 -2.234,-2.25 0,-1.265 0.875,-2.125 2.094,-2.125 0.64,0 1.109,0.235 1.562,0.766 -0.016,-1.656 -0.547,-2.578 -1.516,-2.578 -0.593,0 -1.015,0.375 -1.14,1.016 l -0.844,0 c 0.156,-1.11 0.891,-1.766 1.922,-1.766 1.594,0 2.453,1.344 2.453,3.703 z m -0.922,1 c 0,-0.828 -0.594,-1.391 -1.422,-1.391 -0.812,0 -1.312,0.532 -1.312,1.438 0,0.875 0.562,1.453 1.344,1.453 0.796,0 1.39,-0.609 1.39,-1.5 z" /><path
         id="path72"
         style="fill:#000000;fill-opacity:1;fill-rule:nonzero;stroke:none"
         d="m 294.508,53.613 c 0,1.141 -0.891,1.984 -2.188,1.984 -1.39,0 -2.187,-0.703 -2.234,-2.359 l 0.844,0 c 0.062,1.141 0.531,1.625 1.375,1.625 0.765,0 1.328,-0.547 1.328,-1.281 0,-0.531 -0.313,-0.985 -0.906,-1.344 l -0.891,-0.5 c -1.422,-0.797 -1.828,-1.437 -1.906,-2.937 l 4.531,0 0,0.828 -3.578,0 c 0.078,0.562 0.39,0.922 1.219,1.406 l 0.968,0.516 c 0.938,0.515 1.438,1.218 1.438,2.062 z" /><path
         id="path74"
         style="fill:#000000;fill-opacity:1;fill-rule:nonzero;stroke:none"
         d="m 299.859,51.082 c 0,0.734 -0.062,1.187 -0.203,1.562 -0.328,0.828 -1.094,1.328 -2.031,1.328 -1.406,0 -2.297,-1.031 -2.297,-2.687 0,-1.656 0.86,-2.625 2.281,-2.625 1.141,0 1.938,0.656 2.141,1.672 l -0.797,0 c -0.219,-0.672 -0.672,-0.938 -1.312,-0.938 -0.844,0 -1.469,0.532 -1.485,1.688 l 3.703,0 z M 299,51.801 c 0,0 0,-0.047 0,-0.063 l -2.828,0 c 0.078,0.891 0.64,1.5 1.437,1.5 0.797,0 1.391,-0.656 1.391,-1.437 z" /><path
         id="path76"
         style="fill:#000000;fill-opacity:1;fill-rule:nonzero;stroke:none"
         d="m 305.164,52.363 c 0,2.125 -0.75,3.234 -2.297,3.234 -1.297,0 -2.234,-0.921 -2.234,-2.25 0,-1.265 0.875,-2.125 2.094,-2.125 0.64,0 1.109,0.235 1.562,0.766 -0.016,-1.656 -0.547,-2.578 -1.516,-2.578 -0.593,0 -1.015,0.375 -1.14,1.016 l -0.844,0 c 0.156,-1.11 0.891,-1.766 1.922,-1.766 1.594,0 2.453,1.344 2.453,3.703 z m -0.922,1 c 0,-0.828 -0.594,-1.391 -1.422,-1.391 -0.812,0 -1.312,0.532 -1.312,1.438 0,0.875 0.562,1.453 1.344,1.453 0.796,0 1.39,-0.609 1.39,-1.5 z" /><path
         id="path78"
         style="fill:#000000;fill-opacity:1;fill-rule:nonzero;stroke:none"
         d="m 91.637,61.398 2.281,0 0,-0.703 -2.281,0 0,0.703 z" /><path
         id="path80"
         style="fill:#000000;fill-opacity:1;fill-rule:nonzero;stroke:none"
         d="m 99.32,60.648 c 0,1.344 -0.89,2.235 -2.203,2.235 -0.469,0 -0.859,-0.125 -1.25,-0.422 l 0.266,1.765 2.828,0 0,0.828 -3.5,0 -0.516,-3.562 0.782,0 c 0.39,0.469 0.718,0.641 1.25,0.641 0.906,0 1.484,-0.594 1.484,-1.594 0,-0.985 -0.578,-1.531 -1.484,-1.531 -0.75,0 -1.204,0.375 -1.391,1.14 l -0.859,0 c 0.281,-1.359 1.046,-1.89 2.265,-1.89 1.375,0 2.328,0.953 2.328,2.39 z" /><path
         id="path82"
         style="fill:#000000;fill-opacity:1;fill-rule:nonzero;stroke:none"
         d="m 91.637,83 2.281,0 0,-0.703 -2.281,0 0,0.703 z" /><path
         id="path84"
         style="fill:#000000;fill-opacity:1;fill-rule:nonzero;stroke:none"
         d="m 99.383,81.625 0,0.765 -1,0 0,4.407 -0.625,0 -3.094,-4.282 0,-0.89 2.875,0 0,-1.625 0.844,0 0,1.625 1,0 z m -1.844,0.765 -2.141,0 2.141,2.969 0,-2.969 z" /><path
         id="path86"
         style="fill:#000000;fill-opacity:1;fill-rule:nonzero;stroke:none"
         d="m 91.637,103.801 2.281,0 0,-0.703 -2.281,0 0,0.703 z" /><path
         id="path88"
         style="fill:#000000;fill-opacity:1;fill-rule:nonzero;stroke:none"
         d="m 99.258,102.769 c 0,0.828 -0.344,1.313 -1.156,1.594 0.64,0.25 0.953,0.688 0.953,1.375 0,1.172 -0.782,1.859 -2.078,1.859 -1.375,0 -2.094,-0.75 -2.125,-2.187 l 0.843,0 c 0.016,1 0.438,1.453 1.297,1.453 0.75,0 1.203,-0.437 1.203,-1.156 0,-0.735 -0.328,-1.031 -1.672,-1.031 l 0,-0.704 0.454,0 c 0.937,0 1.406,-0.453 1.406,-1.203 0,-0.859 -0.516,-1.359 -1.406,-1.359 -0.922,0 -1.375,0.453 -1.422,1.437 l -0.844,0 c 0.094,-1.515 0.844,-2.187 2.234,-2.187 1.407,0 2.313,0.828 2.313,2.109 z" /><path
         id="path90"
         style="fill:#000000;fill-opacity:1;fill-rule:nonzero;stroke:none"
         d="m 91.637,125.398 2.281,0 0,-0.703 -2.281,0 0,0.703 z" /><path
         id="path92"
         style="fill:#000000;fill-opacity:1;fill-rule:nonzero;stroke:none"
         d="m 99.305,127.211 c 0,1.14 -0.891,1.984 -2.188,1.984 -1.39,0 -2.187,-0.703 -2.234,-2.359 l 0.844,0 c 0.062,1.14 0.531,1.625 1.375,1.625 0.765,0 1.328,-0.547 1.328,-1.282 0,-0.531 -0.313,-0.984 -0.907,-1.343 l -0.89,-0.5 c -1.422,-0.797 -1.828,-1.438 -1.906,-2.938 l 4.531,0 0,0.828 -3.578,0 c 0.078,0.563 0.39,0.922 1.218,1.407 l 0.969,0.515 c 0.938,0.516 1.438,1.219 1.438,2.063 z" /><path
         id="path94"
         style="fill:#000000;fill-opacity:1;fill-rule:nonzero;stroke:none"
         d="m 91.637,147 2.281,0 0,-0.703 -2.281,0 0,0.703 z" /><path
         id="path96"
         style="fill:#000000;fill-opacity:1;fill-rule:nonzero;stroke:none"
         d="m 97.727,144 0,6.797 -0.563,0 c -0.297,-1.047 -0.484,-1.188 -1.781,-1.344 l 0,-0.609 1.5,0 0,-4.844 0.844,0 z" /><path
         id="path98"
         style="fill:#000000;fill-opacity:1;fill-rule:nonzero;stroke:none"
         d="m 100.059,168.066 c 0,2.36 -0.75,3.531 -2.219,3.531 -1.469,0 -2.235,-1.187 -2.235,-3.468 0,-2.297 0.782,-3.469 2.235,-3.469 1.437,0 2.219,1.172 2.219,3.406 z m -0.86,0.078 c 0,-1.922 -0.437,-2.781 -1.375,-2.781 -0.89,0 -1.344,0.891 -1.344,2.75 0,1.875 0.454,2.734 1.36,2.734 0.906,0 1.359,-0.875 1.359,-2.703 z" /><path
         id="path100"
         style="fill:#000000;fill-opacity:1;fill-rule:nonzero;stroke:none"
         d="m 98.527,186.398 0,6.797 -0.562,0 c -0.297,-1.047 -0.485,-1.187 -1.781,-1.344 l 0,-0.609 1.5,0 0,-4.844 0.843,0 z" /><path
         id="path102"
         style="fill:#000000;fill-opacity:1;fill-rule:nonzero;stroke:none"
         d="m 165.562,36.601 0,0.797 -4.703,0 0,-7 0.891,0 0,3.188 3.344,0 0,0.781 -3.344,0 0,2.234 3.812,0 z" /><path
         id="path104"
         style="fill:#000000;fill-opacity:1;fill-rule:nonzero;stroke:none"
         d="m 168.609,34.726 0,0.813 c -0.14,0.015 -0.203,0.031 -0.312,0.031 -0.516,0 -0.906,-0.312 -1.359,-1.062 l 0,0.921 -0.735,0 0,-5.031 0.797,0 0,2.61 c 0,1.125 0.375,1.703 1.609,1.718 z" /><path
         id="path106"
         style="fill:#000000;fill-opacity:1;fill-rule:nonzero;stroke:none"
         d="m 173.562,32.679 c 0,0.735 -0.062,1.188 -0.203,1.563 -0.328,0.828 -1.093,1.328 -2.031,1.328 -1.406,0 -2.297,-1.031 -2.297,-2.687 0,-1.657 0.86,-2.625 2.281,-2.625 1.141,0 1.938,0.656 2.141,1.671 l -0.797,0 c -0.218,-0.671 -0.672,-0.937 -1.312,-0.937 -0.844,0 -1.469,0.531 -1.485,1.687 l 3.703,0 z m -0.859,0.719 c 0,0 0,-0.047 0,-0.062 l -2.828,0 c 0.078,0.89 0.641,1.5 1.437,1.5 0.797,0 1.391,-0.657 1.391,-1.438 z m 0.344,4 -1.094,0 -0.922,-1.422 0.578,0 1.438,1.422 z" /><path
         id="path108"
         style="fill:#000000;fill-opacity:1;fill-rule:nonzero;stroke:none"
         d="m 178.727,28.304 0,7.125 -0.719,0 0,-0.671 c -0.36,0.531 -0.938,0.812 -1.594,0.812 -1.328,0 -2.187,-1.047 -2.187,-2.719 0,-1.625 0.828,-2.593 2.14,-2.593 0.703,0 1.188,0.25 1.563,0.796 l 0,-2.75 0.797,0 z m -0.797,4.579 c 0,-1.157 -0.563,-1.875 -1.407,-1.875 -0.875,0 -1.468,0.734 -1.468,1.906 0,1.156 0.593,1.906 1.468,1.906 0.86,0 1.407,-0.766 1.407,-1.937 z" /><path
         id="path110"
         style="fill:#000000;fill-opacity:1;fill-rule:nonzero;stroke:none"
         d="m 184.016,30.398 0,5.031 -0.797,0 0,-2.781 c 0,-1.015 -0.531,-1.687 -1.375,-1.687 -0.625,0 -1.032,0.375 -1.032,0.984 l 0,3.484 -0.796,0 0,-3.796 c 0,-0.844 0.625,-1.375 1.593,-1.375 0.75,0 1.219,0.25 1.688,0.921 l 0,-0.781 0.719,0 z" /><path
         id="path112"
         style="fill:#000000;fill-opacity:1;fill-rule:nonzero;stroke:none"
         d="m 189.652,32.679 c 0,0.735 -0.062,1.188 -0.203,1.563 -0.328,0.828 -1.094,1.328 -2.031,1.328 -1.406,0 -2.297,-1.031 -2.297,-2.687 0,-1.657 0.859,-2.625 2.281,-2.625 1.141,0 1.938,0.656 2.141,1.671 l -0.797,0 c -0.219,-0.671 -0.672,-0.937 -1.312,-0.937 -0.844,0 -1.469,0.531 -1.485,1.687 l 3.703,0 z m -0.859,0.719 c 0,0 0,-0.047 0,-0.062 l -2.828,0 c 0.078,0.89 0.64,1.5 1.437,1.5 0.797,0 1.391,-0.657 1.391,-1.438 z" /><path
         id="path114"
         style="fill:#000000;fill-opacity:1;fill-rule:nonzero;stroke:none"
         d="m 194.738,30.398 0,3.797 c 0,0.844 -0.625,1.375 -1.593,1.375 -0.75,0 -1.219,-0.281 -1.672,-0.984 l 0,0.843 -0.735,0 0,-5.031 0.797,0 0,2.766 c 0,1.031 0.563,1.703 1.375,1.703 0.625,0 1.031,-0.375 1.031,-0.984 l 0,-3.485 0.797,0 z" /><path
         id="path116"
         style="fill:#000000;fill-opacity:1;fill-rule:nonzero;stroke:none"
         d="m 199.984,32.133 -0.812,0 c -0.125,-0.813 -0.547,-1.141 -1.219,-1.141 -0.891,0 -1.422,0.687 -1.422,1.875 0,1.25 0.531,1.969 1.391,1.969 0.672,0 1.094,-0.407 1.203,-1.094 l 0.797,0 c -0.094,1.219 -0.86,1.828 -1.984,1.828 -1.344,0 -2.235,-1.031 -2.235,-2.703 0,-1.625 0.859,-2.609 2.219,-2.609 1.203,0 1.969,0.718 2.062,1.875 z" /><path
         id="path118"
         style="fill:#000000;fill-opacity:1;fill-rule:nonzero;stroke:none"
         d="m 205.125,32.679 c 0,0.735 -0.063,1.188 -0.203,1.563 -0.328,0.828 -1.094,1.328 -2.031,1.328 -1.407,0 -2.297,-1.031 -2.297,-2.687 0,-1.657 0.859,-2.625 2.281,-2.625 1.141,0 1.937,0.656 2.141,1.671 l -0.797,0 c -0.219,-0.671 -0.672,-0.937 -1.313,-0.937 -0.844,0 -1.468,0.531 -1.484,1.687 l 3.703,0 z m -0.859,0.719 c 0,0 0,-0.047 0,-0.062 l -2.828,0 c 0.078,0.89 0.64,1.5 1.437,1.5 0.797,0 1.391,-0.657 1.391,-1.438 z" /><path
         id="path120"
         style="fill:#000000;fill-opacity:1;fill-rule:nonzero;stroke:none"
         d="m 211.008,28.367 c -0.844,1.375 -1.313,2.984 -1.313,4.516 0,1.531 0.469,3.14 1.313,4.515 l -0.531,0 c -0.954,-1.265 -1.563,-3.015 -1.563,-4.515 0,-1.516 0.609,-3.266 1.563,-4.516 l 0.531,0 z" /><path
         id="path122"
         style="fill:#000000;fill-opacity:1;fill-rule:nonzero;stroke:none"
         d="m 217.609,30.398 0,7 -0.89,0 0,-3.031 -3.594,0 0,3.031 -0.891,0 0,-7 0.891,0 0,3.188 3.594,0 0,-3.188 0.89,0 z" /><path
         id="path124"
         style="fill:#000000;fill-opacity:1;fill-rule:nonzero;stroke:none"
         d="m 222.758,30.398 0,0.703 -3.125,0 2.984,3.61 0,0.718 -3.75,0 0,-0.703 2.797,0 -3,-3.609 0,-0.719 4.094,0 z" /><path
         id="path126"
         style="fill:#000000;fill-opacity:1;fill-rule:nonzero;stroke:none"
         d="m 225.621,32.867 c 0,1.516 -0.594,3.266 -1.562,4.531 l -0.532,0 c 0.844,-1.375 1.313,-2.984 1.313,-4.531 0,-1.516 -0.469,-3.141 -1.313,-4.5 l 0.532,0 c 0.968,1.25 1.562,3 1.562,4.5 z" /><path
         id="path128"
         style="fill:#0000ff;fill-opacity:1;fill-rule:nonzero;stroke:none"
         d="m 83.602,91.582 c -0.844,0 -1.344,-0.391 -1.688,-1.281 -0.297,0.625 -0.828,0.968 -1.531,0.968 -1.016,0 -1.781,-0.75 -1.781,-2.078 l 0,-2.828 7,0 0,3.156 c 0,1.25 -0.844,2.063 -2,2.063 z m -3.094,-1.203 c 0.703,0 1.109,-0.422 1.109,-1.407 l 0,-1.718 -2.219,0 0,1.718 c 0,0.985 0.407,1.407 1.11,1.407 z m 3.109,0.297 c 0.672,0 1.203,-0.407 1.203,-1.25 l 0,-2.172 -2.406,0 0,2.172 c 0,0.843 0.516,1.25 1.203,1.25 z" /><path
         id="path130"
         style="fill:#0000ff;fill-opacity:1;fill-rule:nonzero;stroke:none"
         d="m 83.32,96.926 c -0.734,0 -1.187,-0.063 -1.562,-0.204 -0.828,-0.328 -1.328,-1.093 -1.328,-2.031 0,-1.406 1.031,-2.297 2.687,-2.297 1.656,0 2.625,0.86 2.625,2.282 0,1.14 -0.656,1.937 -1.672,2.14 l 0,-0.797 c 0.672,-0.218 0.938,-0.672 0.938,-1.312 0,-0.844 -0.531,-1.469 -1.688,-1.485 l 0,3.704 z m -0.718,-0.86 c 0,0 0.046,0 0.062,0 l 0,-2.828 c -0.891,0.078 -1.5,0.641 -1.5,1.438 0,0.796 0.656,1.39 1.438,1.39 z" /><path
         id="path132"
         style="fill:#0000ff;fill-opacity:1;fill-rule:nonzero;stroke:none"
         d="m 84.195,101.746 c -0.75,0 -1.125,-0.422 -1.359,-1.422 l -0.188,-0.766 c -0.156,-0.656 -0.359,-0.937 -0.718,-0.937 -0.469,0 -0.766,0.422 -0.766,1.062 0,0.657 0.281,1 0.813,1.016 l 0,0.844 c -0.985,-0.016 -1.547,-0.656 -1.547,-1.828 0,-1.172 0.609,-1.922 1.531,-1.922 0.797,0 1.172,0.406 1.453,1.594 l 0.188,0.75 c 0.125,0.546 0.296,0.765 0.656,0.765 0.469,0 0.75,-0.469 0.75,-1.172 0,-0.718 -0.172,-1.109 -0.938,-1.218 l 0,-0.844 c 1.157,0.031 1.672,0.687 1.672,2 0,1.265 -0.578,2.078 -1.547,2.078 z" /><path
         id="path134"
         style="fill:#0000ff;fill-opacity:1;fill-rule:nonzero;stroke:none"
         d="m 84.195,106.547 c -0.75,0 -1.125,-0.422 -1.359,-1.422 l -0.188,-0.766 c -0.156,-0.656 -0.359,-0.937 -0.718,-0.937 -0.469,0 -0.766,0.422 -0.766,1.062 0,0.656 0.281,1 0.813,1.016 l 0,0.844 c -0.985,-0.016 -1.547,-0.657 -1.547,-1.829 0,-1.171 0.609,-1.921 1.531,-1.921 0.797,0 1.172,0.406 1.453,1.593 l 0.188,0.75 c 0.125,0.547 0.296,0.766 0.656,0.766 0.469,0 0.75,-0.469 0.75,-1.172 0,-0.719 -0.172,-1.109 -0.938,-1.219 l 0,-0.843 c 1.157,0.031 1.672,0.687 1.672,2 0,1.265 -0.578,2.078 -1.547,2.078 z" /><path
         id="path136"
         style="fill:#0000ff;fill-opacity:1;fill-rule:nonzero;stroke:none"
         d="m 83.32,111.863 c -0.734,0 -1.187,-0.062 -1.562,-0.203 -0.828,-0.328 -1.328,-1.094 -1.328,-2.031 0,-1.407 1.031,-2.297 2.687,-2.297 1.656,0 2.625,0.859 2.625,2.281 0,1.141 -0.656,1.938 -1.672,2.141 l 0,-0.797 c 0.672,-0.219 0.938,-0.672 0.938,-1.313 0,-0.843 -0.531,-1.468 -1.688,-1.484 l 0,3.703 z m -0.718,-0.859 c 0,0 0.046,0 0.062,0 l 0,-2.828 c -0.891,0.078 -1.5,0.64 -1.5,1.437 0,0.797 0.656,1.391 1.438,1.391 z" /><path
         id="path138"
         style="fill:#0000ff;fill-opacity:1;fill-rule:nonzero;stroke:none"
         d="m 78.602,113.73 7,0 0,-0.797 -7,0 0,0.797 z" /><path
         id="path140"
         style="fill:#0000ff;fill-opacity:1;fill-rule:nonzero;stroke:none"
         d="m 86.82,119.984 0.484,0 0,-5.766 -0.484,0 0,5.766 z" /><path
         id="path142"
         style="fill:#0000ff;fill-opacity:1;fill-rule:nonzero;stroke:none"
         d="m 85.602,124.523 -7,0 0,-0.797 2.609,0 c -0.516,-0.343 -0.781,-0.875 -0.781,-1.547 0,-1.296 1.015,-2.156 2.609,-2.156 1.703,0 2.703,0.828 2.703,2.188 0,0.687 -0.25,1.172 -0.875,1.593 l 0.735,0 0,0.719 z m -2.5,-0.797 c 1.171,0 1.89,-0.562 1.89,-1.406 0,-0.875 -0.734,-1.469 -1.906,-1.469 -1.172,0 -1.906,0.594 -1.906,1.469 0,0.859 0.765,1.406 1.922,1.406 z" /><path
         id="path144"
         style="fill:#0000ff;fill-opacity:1;fill-rule:nonzero;stroke:none"
         d="m 83.602,131.097 c -0.844,0 -1.344,-0.39 -1.688,-1.281 -0.297,0.625 -0.828,0.969 -1.531,0.969 -1.016,0 -1.781,-0.75 -1.781,-2.078 l 0,-2.828 7,0 0,3.156 c 0,1.25 -0.844,2.062 -2,2.062 z m -3.094,-1.203 c 0.703,0 1.109,-0.422 1.109,-1.406 l 0,-1.719 -2.219,0 0,1.719 c 0,0.984 0.407,1.406 1.11,1.406 z m 3.109,0.297 c 0.672,0 1.203,-0.406 1.203,-1.25 l 0,-2.172 -2.406,0 0,2.172 c 0,0.844 0.516,1.25 1.203,1.25 z" /><path
         id="path146"
         style="fill:#0000ff;fill-opacity:1;fill-rule:nonzero;stroke:none"
         d="m 83.68,137.496 c -0.86,0 -1.5,-0.531 -1.75,-1.484 l -0.469,-1.75 c -0.219,-0.844 -0.5,-1.157 -1.047,-1.157 -0.703,0 -1.234,0.625 -1.234,1.563 0,1.109 0.515,1.75 1.422,1.75 l 0,0.844 c -1.375,0 -2.172,-0.954 -2.172,-2.563 0,-1.531 0.843,-2.484 2.109,-2.484 0.859,0 1.391,0.453 1.641,1.375 l 0.453,1.734 c 0.234,0.875 0.594,1.281 1.14,1.281 0.766,0 1.219,-0.578 1.219,-1.781 0,-1.328 -0.672,-1.969 -1.672,-1.969 l 0,-0.859 c 1.657,0 2.453,1.125 2.453,2.766 0,1.781 -0.843,2.734 -2.093,2.734 z" /><path
         id="path148"
         style="fill:#0000ff;fill-opacity:1;fill-rule:nonzero;stroke:none"
         d="m 80.789,142.855 c -1.141,0 -1.984,-0.89 -1.984,-2.187 0,-1.391 0.703,-2.188 2.359,-2.235 l 0,0.844 c -1.141,0.063 -1.625,0.531 -1.625,1.375 0,0.766 0.547,1.328 1.281,1.328 0.532,0 0.985,-0.312 1.344,-0.906 l 0.5,-0.891 c 0.797,-1.421 1.438,-1.828 2.938,-1.906 l 0,4.531 -0.829,0 0,-3.578 c -0.562,0.078 -0.921,0.391 -1.406,1.219 l -0.515,0.969 c -0.516,0.937 -1.219,1.437 -2.063,1.437 z" /><path
         id="path150"
         style="fill:#0000ff;fill-opacity:1;fill-rule:nonzero;stroke:none"
         d="m 85.602,146.613 -6.797,0 0,-0.562 c 1.047,-0.297 1.187,-0.485 1.343,-1.782 l 0.61,0 0,1.5 4.844,0 0,0.844 z" /><path
         id="path152"
         style="fill:#ff0000;fill-opacity:1;fill-rule:nonzero;stroke:none"
         d="m 65.199,77.984 c -0.844,0 -1.344,-0.39 -1.687,-1.281 -0.297,0.625 -0.828,0.969 -1.532,0.969 -1.015,0 -1.781,-0.75 -1.781,-2.078 l 0,-2.829 7,0 0,3.157 c 0,1.25 -0.844,2.062 -2,2.062 z m -3.094,-1.203 c 0.704,0 1.11,-0.422 1.11,-1.406 l 0,-1.719 -2.219,0 0,1.719 c 0,0.984 0.406,1.406 1.109,1.406 z m 3.11,0.297 c 0.672,0 1.203,-0.406 1.203,-1.25 l 0,-2.172 -2.406,0 0,2.172 c 0,0.844 0.515,1.25 1.203,1.25 z" /><path
         id="path154"
         style="fill:#ff0000;fill-opacity:1;fill-rule:nonzero;stroke:none"
         d="m 67.199,83.027 -5.031,0 0,-0.797 2.781,0 c 1.016,0 1.688,-0.531 1.688,-1.375 0,-0.625 -0.375,-1.031 -0.985,-1.031 l -3.484,0 0,-0.797 3.797,0 c 0.844,0 1.375,0.625 1.375,1.594 0,0.75 -0.25,1.219 -0.922,1.687 l 0.781,0 0,0.719 z" /><path
         id="path156"
         style="fill:#ff0000;fill-opacity:1;fill-rule:nonzero;stroke:none"
         d="m 67.199,86.176 -0.672,0 c 0.032,-0.11 0.032,-0.235 0.032,-0.391 0,-0.344 -0.094,-0.438 -0.438,-0.438 l -3.297,0 0,0.829 -0.656,0 0,-0.829 -1.375,0 0,-0.796 1.375,0 0,-0.672 0.656,0 0,0.672 3.641,0 c 0.515,0 0.797,0.343 0.797,0.968 0,0.188 -0.016,0.391 -0.063,0.657 z" /><path
         id="path158"
         style="fill:#ff0000;fill-opacity:1;fill-rule:nonzero;stroke:none"
         d="m 67.199,88.847 -0.672,0 c 0.032,-0.109 0.032,-0.234 0.032,-0.39 0,-0.344 -0.094,-0.438 -0.438,-0.438 l -3.297,0 0,0.828 -0.656,0 0,-0.828 -1.375,0 0,-0.797 1.375,0 0,-0.671 0.656,0 0,0.671 3.641,0 c 0.515,0 0.797,0.344 0.797,0.969 0,0.188 -0.016,0.391 -0.063,0.656 z" /><path
         id="path160"
         style="fill:#ff0000;fill-opacity:1;fill-rule:nonzero;stroke:none"
         d="m 64.918,93.855 c -0.734,0 -1.188,-0.062 -1.563,-0.203 -0.828,-0.328 -1.328,-1.094 -1.328,-2.031 0,-1.406 1.032,-2.297 2.688,-2.297 1.656,0 2.625,0.859 2.625,2.281 0,1.141 -0.656,1.938 -1.672,2.141 l 0,-0.797 c 0.672,-0.219 0.937,-0.672 0.937,-1.312 0,-0.844 -0.531,-1.469 -1.687,-1.485 l 0,3.703 z m -0.719,-0.859 c 0,0 0.047,0 0.063,0 l 0,-2.828 c -0.891,0.078 -1.5,0.64 -1.5,1.437 0,0.797 0.656,1.391 1.437,1.391 z" /><path
         id="path162"
         style="fill:#ff0000;fill-opacity:1;fill-rule:nonzero;stroke:none"
         d="m 62.871,97.347 -0.812,0 c -0.016,-0.14 -0.032,-0.203 -0.032,-0.312 0,-0.516 0.313,-0.906 1.063,-1.359 l -0.922,0 0,-0.735 5.031,0 0,0.797 -2.609,0 c -1.125,0 -1.703,0.375 -1.719,1.609 z" /><path
         id="path164"
         style="fill:#ff0000;fill-opacity:1;fill-rule:nonzero;stroke:none"
         d="m 62.168,104.562 0,-0.906 3.922,-1 -3.922,-0.984 0,-0.985 3.922,-0.953 -3.922,-1.031 0,-0.875 5.031,1.453 0,0.906 -3.937,0.969 3.937,1.016 0,0.906 -5.031,1.484 z" /><path
         id="path166"
         style="fill:#ff0000;fill-opacity:1;fill-rule:nonzero;stroke:none"
         d="m 64.73,109.5 c -1.75,0 -2.703,-0.828 -2.703,-2.281 0,-1.407 0.969,-2.266 2.657,-2.266 1.687,0 2.656,0.844 2.656,2.281 0,1.406 -0.969,2.266 -2.61,2.266 z m -0.015,-0.828 c 1.172,0 1.89,-0.563 1.89,-1.438 0,-0.89 -0.703,-1.437 -1.921,-1.437 -1.204,0 -1.922,0.547 -1.922,1.437 0,0.891 0.703,1.438 1.953,1.438 z" /><path
         id="path168"
         style="fill:#ff0000;fill-opacity:1;fill-rule:nonzero;stroke:none"
         d="m 62.871,113.027 -0.812,0 c -0.016,-0.14 -0.032,-0.203 -0.032,-0.312 0,-0.516 0.313,-0.907 1.063,-1.36 l -0.922,0 0,-0.734 5.031,0 0,0.797 -2.609,0 c -1.125,0 -1.703,0.375 -1.719,1.609 z" /><path
         id="path170"
         style="fill:#ff0000;fill-opacity:1;fill-rule:nonzero;stroke:none"
         d="m 67.199,115.879 -0.672,0 c 0.032,-0.11 0.032,-0.235 0.032,-0.391 0,-0.344 -0.094,-0.437 -0.438,-0.437 l -3.297,0 0,0.828 -0.656,0 0,-0.828 -1.375,0 0,-0.797 1.375,0 0,-0.672 0.656,0 0,0.672 3.641,0 c 0.515,0 0.797,0.343 0.797,0.968 0,0.188 -0.016,0.391 -0.063,0.657 z" /><path
         id="path172"
         style="fill:#ff0000;fill-opacity:1;fill-rule:nonzero;stroke:none"
         d="m 67.199,120.699 -3.797,0 c -0.843,0 -1.375,-0.594 -1.375,-1.578 0,-0.703 0.219,-1.141 0.828,-1.609 l -2.656,0 0,-0.797 7,0 0,0.797 -2.765,0 c -1.032,0 -1.704,0.531 -1.704,1.359 0,0.562 0.329,1.031 0.985,1.031 l 3.484,0 0,0.797 z" /><path
         id="path174"
         style="fill:#ff0000;fill-opacity:1;fill-rule:nonzero;stroke:none"
         d="m 68.418,126.929 0.484,0 0,-5.766 -0.484,0 0,5.766 z" /><path
         id="path176"
         style="fill:#ff0000;fill-opacity:1;fill-rule:nonzero;stroke:none"
         d="m 67.199,131.469 -7,0 0,-0.797 2.61,0 c -0.516,-0.344 -0.782,-0.875 -0.782,-1.547 0,-1.297 1.016,-2.156 2.61,-2.156 1.703,0 2.703,0.828 2.703,2.187 0,0.688 -0.25,1.172 -0.875,1.594 l 0.734,0 0,0.719 z m -2.5,-0.797 c 1.172,0 1.891,-0.563 1.891,-1.407 0,-0.875 -0.735,-1.468 -1.906,-1.468 -1.172,0 -1.907,0.593 -1.907,1.468 0,0.86 0.766,1.407 1.922,1.407 z" /><path
         id="path178"
         style="fill:#ff0000;fill-opacity:1;fill-rule:nonzero;stroke:none"
         d="m 65.199,138.043 c -0.844,0 -1.344,-0.391 -1.687,-1.281 -0.297,0.625 -0.828,0.968 -1.532,0.968 -1.015,0 -1.781,-0.75 -1.781,-2.078 l 0,-2.828 7,0 0,3.156 c 0,1.25 -0.844,2.063 -2,2.063 z m -3.094,-1.203 c 0.704,0 1.11,-0.422 1.11,-1.407 l 0,-1.718 -2.219,0 0,1.718 c 0,0.985 0.406,1.407 1.109,1.407 z m 3.11,0.297 c 0.672,0 1.203,-0.407 1.203,-1.25 l 0,-2.172 -2.406,0 0,2.172 c 0,0.843 0.515,1.25 1.203,1.25 z" /><path
         id="path180"
         style="fill:#ff0000;fill-opacity:1;fill-rule:nonzero;stroke:none"
         d="m 65.277,144.441 c -0.859,0 -1.5,-0.531 -1.75,-1.484 l -0.468,-1.75 c -0.219,-0.844 -0.5,-1.156 -1.047,-1.156 -0.703,0 -1.235,0.625 -1.235,1.562 0,1.109 0.516,1.75 1.422,1.75 l 0,0.844 c -1.375,0 -2.172,-0.953 -2.172,-2.563 0,-1.531 0.844,-2.484 2.11,-2.484 0.859,0 1.39,0.453 1.64,1.375 l 0.453,1.734 c 0.235,0.875 0.594,1.282 1.141,1.282 0.766,0 1.219,-0.579 1.219,-1.782 0,-1.328 -0.672,-1.968 -1.672,-1.968 l 0,-0.86 c 1.656,0 2.453,1.125 2.453,2.766 0,1.781 -0.844,2.734 -2.094,2.734 z" /><path
         id="path182"
         style="fill:#ff0000;fill-opacity:1;fill-rule:nonzero;stroke:none"
         d="m 62.387,149.797 c -1.141,0 -1.985,-0.891 -1.985,-2.188 0,-1.39 0.703,-2.187 2.36,-2.234 l 0,0.844 c -1.141,0.062 -1.625,0.531 -1.625,1.375 0,0.765 0.547,1.328 1.281,1.328 0.531,0 0.984,-0.313 1.344,-0.907 l 0.5,-0.89 c 0.797,-1.422 1.437,-1.828 2.937,-1.906 l 0,4.531 -0.828,0 0,-3.578 c -0.562,0.078 -0.922,0.39 -1.406,1.218 l -0.516,0.969 c -0.515,0.938 -1.219,1.438 -2.062,1.438 z" /><path
         id="path184"
         style="fill:#ff0000;fill-opacity:1;fill-rule:nonzero;stroke:none"
         d="m 67.199,153.558 -6.797,0 0,-0.562 c 1.047,-0.297 1.188,-0.484 1.344,-1.781 l 0.609,0 0,1.5 4.844,0 0,0.843 z" /><path
         id="path186"
         style="fill:#ff00ff;fill-opacity:1;fill-rule:nonzero;stroke:none"
         d="m 42.598,76.086 -0.797,0 0,-5.485 0.797,0 0,2.297 6.203,0 0,0.891 -6.203,0 0,2.297 z" /><path
         id="path188"
         style="fill:#ff00ff;fill-opacity:1;fill-rule:nonzero;stroke:none"
         d="m 47.066,79.988 0,-0.812 c 0.813,-0.125 1.141,-0.547 1.141,-1.219 0,-0.891 -0.687,-1.422 -1.875,-1.422 -1.25,0 -1.969,0.531 -1.969,1.391 0,0.671 0.407,1.093 1.094,1.203 l 0,0.797 c -1.219,-0.094 -1.828,-0.86 -1.828,-1.985 0,-1.344 1.031,-2.234 2.703,-2.234 1.625,0 2.609,0.859 2.609,2.219 0,1.203 -0.718,1.968 -1.875,2.062 z" /><path
         id="path190"
         style="fill:#ff00ff;fill-opacity:1;fill-rule:nonzero;stroke:none"
         d="m 48.801,84.867 -3.797,0 c -0.844,0 -1.375,-0.594 -1.375,-1.578 0,-0.703 0.219,-1.141 0.828,-1.61 l -2.656,0 0,-0.796 7,0 0,0.796 -2.766,0 c -1.031,0 -1.703,0.532 -1.703,1.36 0,0.562 0.328,1.031 0.984,1.031 l 3.485,0 0,0.797 z" /><path
         id="path192"
         style="fill:#ff00ff;fill-opacity:1;fill-rule:nonzero;stroke:none"
         d="m 46.52,90.469 c -0.735,0 -1.188,-0.063 -1.563,-0.204 -0.828,-0.328 -1.328,-1.093 -1.328,-2.031 0,-1.406 1.031,-2.297 2.687,-2.297 1.657,0 2.625,0.86 2.625,2.282 0,1.14 -0.656,1.937 -1.671,2.14 l 0,-0.797 c 0.671,-0.218 0.937,-0.672 0.937,-1.312 0,-0.844 -0.531,-1.469 -1.687,-1.485 l 0,3.704 z m -0.719,-0.86 c 0,0 0.047,0 0.062,0 l 0,-2.828 c -0.89,0.078 -1.5,0.641 -1.5,1.438 0,0.796 0.657,1.39 1.438,1.39 z" /><path
         id="path194"
         style="fill:#ff00ff;fill-opacity:1;fill-rule:nonzero;stroke:none"
         d="m 46.223,95.902 c -1.625,0 -2.594,-0.828 -2.594,-2.14 0,-0.704 0.266,-1.188 0.828,-1.563 l -2.656,0 0,-0.797 7,0 0,0.719 -0.719,0 c 0.578,0.391 0.859,0.891 0.859,1.594 0,1.328 -1.078,2.187 -2.718,2.187 z m 0.062,-0.828 c 1.141,0 1.906,-0.594 1.906,-1.469 0,-0.843 -0.765,-1.406 -1.906,-1.406 -1.172,0 -1.953,0.563 -1.906,1.406 0,0.891 0.781,1.469 1.906,1.469 z" /><path
         id="path196"
         style="fill:#ff00ff;fill-opacity:1;fill-rule:nonzero;stroke:none"
         d="m 43.77,100.668 0,-0.86 3.921,-1.39 -3.921,-1.281 0,-0.86 5.046,1.703 0.797,-0.312 c 0.36,-0.125 0.5,-0.297 0.5,-0.641 0,-0.109 -0.031,-0.25 -0.062,-0.422 l 0.719,0 c 0.078,0.172 0.125,0.328 0.125,0.547 0,0.563 -0.313,1.016 -1.032,1.281 l -6.093,2.235 z" /><path
         id="path198"
         style="fill:#ff00ff;fill-opacity:1;fill-rule:nonzero;stroke:none"
         d="m 47.066,105.273 0,-0.812 c 0.813,-0.125 1.141,-0.547 1.141,-1.219 0,-0.891 -0.687,-1.422 -1.875,-1.422 -1.25,0 -1.969,0.531 -1.969,1.391 0,0.672 0.407,1.093 1.094,1.203 l 0,0.797 c -1.219,-0.094 -1.828,-0.86 -1.828,-1.985 0,-1.343 1.031,-2.234 2.703,-2.234 1.625,0 2.609,0.859 2.609,2.219 0,1.203 -0.718,1.968 -1.875,2.062 z" /><path
         id="path200"
         style="fill:#ff00ff;fill-opacity:1;fill-rule:nonzero;stroke:none"
         d="m 48.801,110.152 -3.797,0 c -0.844,0 -1.375,-0.594 -1.375,-1.578 0,-0.703 0.219,-1.141 0.828,-1.609 l -2.656,0 0,-0.797 7,0 0,0.797 -2.766,0 c -1.031,0 -1.703,0.531 -1.703,1.359 0,0.563 0.328,1.031 0.984,1.031 l 3.485,0 0,0.797 z" /><path
         id="path202"
         style="fill:#ff00ff;fill-opacity:1;fill-rule:nonzero;stroke:none"
         d="m 46.52,115.758 c -0.735,0 -1.188,-0.063 -1.563,-0.204 -0.828,-0.328 -1.328,-1.093 -1.328,-2.031 0,-1.406 1.031,-2.297 2.687,-2.297 1.657,0 2.625,0.86 2.625,2.282 0,1.14 -0.656,1.937 -1.671,2.14 l 0,-0.797 c 0.671,-0.218 0.937,-0.672 0.937,-1.312 0,-0.844 -0.531,-1.469 -1.687,-1.485 l 0,3.704 z m -0.719,-0.86 c 0,0 0.047,0 0.062,0 l 0,-2.828 c -0.89,0.078 -1.5,0.641 -1.5,1.438 0,0.796 0.657,1.39 1.438,1.39 z" /><path
         id="path204"
         style="fill:#ff00ff;fill-opacity:1;fill-rule:nonzero;stroke:none"
         d="m 43.77,120.695 0,-0.891 4.078,-1.421 -4.078,-1.344 0,-0.906 5.031,1.765 0,0.875 -5.031,1.922 z" /><path
         id="path206"
         style="fill:#ff00ff;fill-opacity:1;fill-rule:nonzero;stroke:none"
         d="m 50.02,126.383 0.484,0 0,-5.766 -0.484,0 0,5.766 z" /><path
         id="path208"
         style="fill:#ff00ff;fill-opacity:1;fill-rule:nonzero;stroke:none"
         d="m 48.801,130.926 -7,0 0,-0.797 2.609,0 c -0.515,-0.344 -0.781,-0.875 -0.781,-1.547 0,-1.297 1.016,-2.156 2.609,-2.156 1.703,0 2.703,0.828 2.703,2.187 0,0.688 -0.25,1.172 -0.875,1.594 l 0.735,0 0,0.719 z m -2.5,-0.797 c 1.172,0 1.89,-0.563 1.89,-1.407 0,-0.875 -0.734,-1.468 -1.906,-1.468 -1.172,0 -1.906,0.593 -1.906,1.468 0,0.86 0.766,1.407 1.922,1.407 z" /><path
         id="path210"
         style="fill:#ff00ff;fill-opacity:1;fill-rule:nonzero;stroke:none"
         d="m 46.801,137.496 c -0.844,0 -1.344,-0.391 -1.688,-1.281 -0.297,0.625 -0.828,0.968 -1.531,0.968 -1.016,0 -1.781,-0.75 -1.781,-2.078 l 0,-2.828 7,0 0,3.156 c 0,1.25 -0.844,2.063 -2,2.063 z m -3.094,-1.203 c 0.703,0 1.109,-0.422 1.109,-1.406 l 0,-1.719 -2.218,0 0,1.719 c 0,0.984 0.406,1.406 1.109,1.406 z m 3.109,0.297 c 0.672,0 1.204,-0.407 1.204,-1.25 l 0,-2.172 -2.407,0 0,2.172 c 0,0.843 0.516,1.25 1.203,1.25 z" /><path
         id="path212"
         style="fill:#ff00ff;fill-opacity:1;fill-rule:nonzero;stroke:none"
         d="m 46.879,143.898 c -0.859,0 -1.5,-0.531 -1.75,-1.484 l -0.469,-1.75 c -0.219,-0.844 -0.5,-1.156 -1.047,-1.156 -0.703,0 -1.234,0.625 -1.234,1.562 0,1.109 0.516,1.75 1.422,1.75 l 0,0.844 c -1.375,0 -2.172,-0.953 -2.172,-2.563 0,-1.531 0.844,-2.484 2.109,-2.484 0.86,0 1.391,0.453 1.641,1.375 l 0.453,1.734 c 0.234,0.875 0.594,1.282 1.141,1.282 0.765,0 1.218,-0.579 1.218,-1.782 0,-1.328 -0.671,-1.968 -1.671,-1.968 l 0,-0.86 c 1.656,0 2.453,1.125 2.453,2.766 0,1.781 -0.844,2.734 -2.094,2.734 z" /><path
         id="path214"
         style="fill:#ff00ff;fill-opacity:1;fill-rule:nonzero;stroke:none"
         d="m 43.988,149.254 c -1.14,0 -1.984,-0.891 -1.984,-2.188 0,-1.39 0.703,-2.187 2.359,-2.234 l 0,0.844 c -1.14,0.062 -1.625,0.531 -1.625,1.375 0,0.765 0.547,1.328 1.282,1.328 0.531,0 0.984,-0.313 1.343,-0.907 l 0.5,-0.89 c 0.797,-1.422 1.438,-1.828 2.938,-1.906 l 0,4.531 -0.828,0 0,-3.578 c -0.563,0.078 -0.922,0.39 -1.407,1.218 l -0.515,0.969 c -0.516,0.938 -1.219,1.438 -2.063,1.438 z" /><path
         id="path216"
         style="fill:#ff00ff;fill-opacity:1;fill-rule:nonzero;stroke:none"
         d="m 48.801,153.015 -6.797,0 0,-0.562 c 1.047,-0.297 1.187,-0.484 1.344,-1.781 l 0.609,0 0,1.5 4.844,0 0,0.843 z" /><path
         id="path218"
         style="fill:#00ff00;fill-opacity:1;fill-rule:nonzero;stroke:none"
         d="m 27.852,93.699 0,-0.922 c 1.312,-0.219 1.937,-0.765 1.937,-1.953 0,-1.391 -1.062,-2.266 -2.812,-2.266 -1.797,0 -2.954,0.844 -2.954,2.188 0,1.094 0.485,1.672 1.547,1.891 l 0,0.906 c -1.531,-0.266 -2.343,-1.156 -2.343,-2.688 0,-2.125 1.718,-3.203 3.75,-3.203 2.046,0 3.593,1.11 3.593,3.156 0,1.719 -0.906,2.672 -2.718,2.891 z" /><path
         id="path220"
         style="fill:#00ff00;fill-opacity:1;fill-rule:nonzero;stroke:none"
         d="m 30.383,99.254 -0.61,0 c 0.016,-0.078 0.016,-0.11 0.016,-0.172 0,-0.266 -0.141,-0.422 -0.391,-0.422 l -2.796,0 c -0.891,0 -1.375,-0.656 -1.375,-1.891 0,-1.218 0.468,-1.968 1.625,-2.015 l 0,0.797 c -0.61,0.078 -0.891,0.437 -0.891,1.187 0,0.719 0.281,1.125 0.75,1.125 l 0.219,0 c 0.328,0 0.468,-0.203 0.547,-0.844 0.156,-1.125 0.187,-1.297 0.312,-1.609 0.234,-0.578 0.688,-0.875 1.297,-0.875 0.922,0 1.453,0.625 1.453,1.641 0,0.656 -0.266,1.265 -0.734,1.718 0.375,0.078 0.656,0.422 0.656,0.813 0,0.172 -0.016,0.297 -0.078,0.547 z m -1.719,-1.391 c 0.719,0 1.172,-0.734 1.172,-1.516 0,-0.609 -0.219,-0.984 -0.766,-0.984 -0.531,0 -0.75,0.359 -0.875,1.219 -0.125,0.844 -0.156,1.015 -0.281,1.281 l 0.75,0 z" /><path
         id="path222"
         style="fill:#00ff00;fill-opacity:1;fill-rule:nonzero;stroke:none"
         d="m 30.398,104.094 -5.031,0 0,-0.797 2.781,0 c 1.016,0 1.688,-0.532 1.688,-1.375 0,-0.625 -0.375,-1.032 -0.984,-1.032 l -3.485,0 0,-0.796 3.797,0 c 0.844,0 1.375,0.625 1.375,1.593 0,0.75 -0.25,1.219 -0.922,1.688 l 0.781,0 0,0.719 z" /><path
         id="path224"
         style="fill:#00ff00;fill-opacity:1;fill-rule:nonzero;stroke:none"
         d="m 28.117,109.726 c -0.734,0 -1.187,-0.062 -1.562,-0.203 -0.828,-0.328 -1.328,-1.094 -1.328,-2.031 0,-1.406 1.031,-2.297 2.687,-2.297 1.656,0 2.625,0.859 2.625,2.281 0,1.141 -0.656,1.938 -1.672,2.141 l 0,-0.797 c 0.672,-0.219 0.938,-0.672 0.938,-1.312 0,-0.844 -0.532,-1.469 -1.688,-1.485 l 0,3.703 z m -0.719,-0.859 c 0,0 0.047,0 0.063,0 l 0,-2.828 c -0.891,0.078 -1.5,0.64 -1.5,1.437 0,0.797 0.656,1.391 1.437,1.391 z" /><path
         id="path226"
         style="fill:#00ff00;fill-opacity:1;fill-rule:nonzero;stroke:none"
         d="m 26.07,113.25 -0.812,0 c -0.016,-0.141 -0.031,-0.203 -0.031,-0.313 0,-0.515 0.312,-0.906 1.062,-1.359 l -0.922,0 0,-0.734 5.031,0 0,0.796 -2.609,0 c -1.125,0 -1.703,0.375 -1.719,1.61 z" /><path
         id="path228"
         style="fill:#00ff00;fill-opacity:1;fill-rule:nonzero;stroke:none"
         d="m 31.617,118.914 0.484,0 0,-5.766 -0.484,0 0,5.766 z" /><path
         id="path230"
         style="fill:#00ff00;fill-opacity:1;fill-rule:nonzero;stroke:none"
         d="m 30.398,123.457 -7,0 0,-0.797 2.61,0 c -0.516,-0.344 -0.781,-0.875 -0.781,-1.547 0,-1.297 1.015,-2.156 2.609,-2.156 1.703,0 2.703,0.828 2.703,2.187 0,0.688 -0.25,1.172 -0.875,1.594 l 0.734,0 0,0.719 z m -2.5,-0.797 c 1.172,0 1.891,-0.563 1.891,-1.406 0,-0.875 -0.734,-1.469 -1.906,-1.469 -1.172,0 -1.906,0.594 -1.906,1.469 0,0.859 0.765,1.406 1.921,1.406 z" /><path
         id="path232"
         style="fill:#00ff00;fill-opacity:1;fill-rule:nonzero;stroke:none"
         d="m 28.398,130.027 c -0.843,0 -1.343,-0.39 -1.687,-1.281 -0.297,0.625 -0.828,0.969 -1.531,0.969 -1.016,0 -1.782,-0.75 -1.782,-2.078 l 0,-2.829 7,0 0,3.157 c 0,1.25 -0.843,2.062 -2,2.062 z m -3.093,-1.203 c 0.703,0 1.109,-0.422 1.109,-1.406 l 0,-1.719 -2.219,0 0,1.719 c 0,0.984 0.407,1.406 1.11,1.406 z m 3.109,0.297 c 0.672,0 1.203,-0.406 1.203,-1.25 l 0,-2.172 -2.406,0 0,2.172 c 0,0.844 0.516,1.25 1.203,1.25 z" /><path
         id="path234"
         style="fill:#00ff00;fill-opacity:1;fill-rule:nonzero;stroke:none"
         d="m 28.477,136.429 c -0.86,0 -1.5,-0.531 -1.75,-1.484 l -0.469,-1.75 c -0.219,-0.844 -0.5,-1.156 -1.047,-1.156 -0.703,0 -1.234,0.625 -1.234,1.562 0,1.11 0.515,1.75 1.421,1.75 l 0,0.844 c -1.375,0 -2.171,-0.953 -2.171,-2.562 0,-1.532 0.843,-2.485 2.109,-2.485 0.859,0 1.391,0.453 1.641,1.375 l 0.453,1.735 c 0.234,0.875 0.593,1.281 1.14,1.281 0.766,0 1.219,-0.578 1.219,-1.781 0,-1.329 -0.672,-1.969 -1.672,-1.969 l 0,-0.86 c 1.656,0 2.453,1.125 2.453,2.766 0,1.781 -0.843,2.734 -2.093,2.734 z" /><path
         id="path236"
         style="fill:#00ff00;fill-opacity:1;fill-rule:nonzero;stroke:none"
         d="m 25.586,141.785 c -1.141,0 -1.984,-0.891 -1.984,-2.188 0,-1.39 0.703,-2.187 2.359,-2.234 l 0,0.844 c -1.141,0.062 -1.625,0.531 -1.625,1.375 0,0.765 0.547,1.328 1.281,1.328 0.531,0 0.985,-0.313 1.344,-0.906 l 0.5,-0.891 c 0.797,-1.422 1.437,-1.828 2.937,-1.906 l 0,4.531 -0.828,0 0,-3.578 c -0.562,0.078 -0.922,0.391 -1.406,1.219 l -0.516,0.968 c -0.515,0.938 -1.218,1.438 -2.062,1.438 z" /><path
         id="path238"
         style="fill:#00ff00;fill-opacity:1;fill-rule:nonzero;stroke:none"
         d="m 30.398,145.547 -6.796,0 0,-0.563 c 1.046,-0.297 1.187,-0.484 1.343,-1.781 l 0.61,0 0,1.5 4.843,0 0,0.844 z" /></g></g></svg>