<?xml version="1.0" encoding="UTF-8" standalone="no"?>
<svg
   xmlns:dc="http://purl.org/dc/elements/1.1/"
   xmlns:cc="http://creativecommons.org/ns#"
   xmlns:rdf="http://www.w3.org/1999/02/22-rdf-syntax-ns#"
   xmlns:svg="http://www.w3.org/2000/svg"
   xmlns="http://www.w3.org/2000/svg"
   viewBox="0 0 353.99875 253.99876"
   height="253.99876"
   width="353.99875"
   xml:space="preserve"
   version="1.1"
   id="svg2"><metadata
     id="metadata8"><rdf:RDF><cc:Work
         rdf:about=""><dc:format>image/svg+xml</dc:format><dc:type
           rdf:resource="http://purl.org/dc/dcmitype/StillImage" /></cc:Work></rdf:RDF></metadata><defs
     id="defs6" /><g
     transform="matrix(1.25,0,0,-1.25,0,253.99876)"
     id="g10"><g
       id="g12"><path
         id="path14"
         style="fill:#ffffff;fill-opacity:1;fill-rule:evenodd;stroke:none"
         d="m -80,203.199 363.199,0 L 283.199,0 -80,0 l 0,203.199 z" /><path
         id="path16"
         style="fill:none;stroke:#c0c0c0;stroke-width:0.80000001;stroke-linecap:square;stroke-linejoin:bevel;stroke-miterlimit:4;stroke-dasharray:0.8, 1.6;stroke-dashoffset:0;stroke-opacity:1"
         d="m 35.199,179.199 192,0" /><path
         id="path18"
         style="fill:none;stroke:#c0c0c0;stroke-width:0.80000001;stroke-linecap:square;stroke-linejoin:bevel;stroke-miterlimit:4;stroke-dasharray:0.8, 1.6;stroke-dashoffset:0;stroke-opacity:1"
         d="m 35.199,168 192,0" /><path
         id="path20"
         style="fill:none;stroke:#c0c0c0;stroke-width:0.80000001;stroke-linecap:square;stroke-linejoin:bevel;stroke-miterlimit:4;stroke-dasharray:0.8, 1.6;stroke-dashoffset:0;stroke-opacity:1"
         d="m 35.199,156 192,0" /><path
         id="path22"
         style="fill:none;stroke:#c0c0c0;stroke-width:0.80000001;stroke-linecap:square;stroke-linejoin:bevel;stroke-miterlimit:4;stroke-dasharray:0.8, 1.6;stroke-dashoffset:0;stroke-opacity:1"
         d="m 35.199,144.801 192,0" /><path
         id="path24"
         style="fill:none;stroke:#c0c0c0;stroke-width:0.80000001;stroke-linecap:square;stroke-linejoin:bevel;stroke-miterlimit:4;stroke-dasharray:0.8, 1.6;stroke-dashoffset:0;stroke-opacity:1"
         d="m 35.199,132.801 192,0" /><path
         id="path26"
         style="fill:none;stroke:#c0c0c0;stroke-width:0.80000001;stroke-linecap:square;stroke-linejoin:bevel;stroke-miterlimit:4;stroke-dasharray:0.8, 1.6;stroke-dashoffset:0;stroke-opacity:1"
         d="m 35.199,121.597 192,0" /><path
         id="path28"
         style="fill:none;stroke:#c0c0c0;stroke-width:0.80000001;stroke-linecap:square;stroke-linejoin:bevel;stroke-miterlimit:4;stroke-dasharray:0.8, 1.6;stroke-dashoffset:0;stroke-opacity:1"
         d="m 35.199,109.597 192,0" /><path
         id="path30"
         style="fill:none;stroke:#c0c0c0;stroke-width:0.80000001;stroke-linecap:square;stroke-linejoin:bevel;stroke-miterlimit:4;stroke-dasharray:0.8, 1.6;stroke-dashoffset:0;stroke-opacity:1"
         d="m 35.199,98.398 192,0" /><path
         id="path32"
         style="fill:none;stroke:#c0c0c0;stroke-width:0.80000001;stroke-linecap:square;stroke-linejoin:bevel;stroke-miterlimit:4;stroke-dasharray:0.8, 1.6;stroke-dashoffset:0;stroke-opacity:1"
         d="m 35.199,86.398 192,0" /><path
         id="path34"
         style="fill:none;stroke:#c0c0c0;stroke-width:0.80000001;stroke-linecap:square;stroke-linejoin:bevel;stroke-miterlimit:4;stroke-dasharray:0.8, 1.6;stroke-dashoffset:0;stroke-opacity:1"
         d="m 35.199,75.199 192,0" /><path
         id="path36"
         style="fill:none;stroke:#c0c0c0;stroke-width:0.80000001;stroke-linecap:square;stroke-linejoin:bevel;stroke-miterlimit:4;stroke-dasharray:0.8, 1.6;stroke-dashoffset:0;stroke-opacity:1"
         d="m 131.199,191.199 0,-128" /><path
         id="path38"
         style="fill:none;stroke:#000000;stroke-width:0.80000001;stroke-linecap:square;stroke-linejoin:bevel;stroke-miterlimit:4;stroke-dasharray:none;stroke-opacity:1"
         d="m 35.199,67.199 0,-8" /><path
         id="path40"
         style="fill:none;stroke:#000000;stroke-width:0.80000001;stroke-linecap:square;stroke-linejoin:bevel;stroke-miterlimit:4;stroke-dasharray:none;stroke-opacity:1"
         d="m 131.199,67.199 0,-8" /><path
         id="path42"
         style="fill:none;stroke:#000000;stroke-width:0.80000001;stroke-linecap:square;stroke-linejoin:bevel;stroke-miterlimit:4;stroke-dasharray:none;stroke-opacity:1"
         d="m 227.199,67.199 0,-8" /><path
         id="path44"
         style="fill:none;stroke:#000000;stroke-width:0.80000001;stroke-linecap:square;stroke-linejoin:bevel;stroke-miterlimit:4;stroke-dasharray:none;stroke-opacity:1"
         d="m 31.199,63.199 8,0" /><path
         id="path46"
         style="fill:none;stroke:#000000;stroke-width:0.80000001;stroke-linecap:square;stroke-linejoin:bevel;stroke-miterlimit:4;stroke-dasharray:none;stroke-opacity:1"
         d="m 31.199,75.199 8,0" /><path
         id="path48"
         style="fill:none;stroke:#000000;stroke-width:0.80000001;stroke-linecap:square;stroke-linejoin:bevel;stroke-miterlimit:4;stroke-dasharray:none;stroke-opacity:1"
         d="m 31.199,86.398 8,0" /><path
         id="path50"
         style="fill:none;stroke:#000000;stroke-width:0.80000001;stroke-linecap:square;stroke-linejoin:bevel;stroke-miterlimit:4;stroke-dasharray:none;stroke-opacity:1"
         d="m 31.199,98.398 8,0" /><path
         id="path52"
         style="fill:none;stroke:#000000;stroke-width:0.80000001;stroke-linecap:square;stroke-linejoin:bevel;stroke-miterlimit:4;stroke-dasharray:none;stroke-opacity:1"
         d="m 31.199,109.597 8,0" /><path
         id="path54"
         style="fill:none;stroke:#000000;stroke-width:0.80000001;stroke-linecap:square;stroke-linejoin:bevel;stroke-miterlimit:4;stroke-dasharray:none;stroke-opacity:1"
         d="m 31.199,121.597 8,0" /><path
         id="path56"
         style="fill:none;stroke:#000000;stroke-width:0.80000001;stroke-linecap:square;stroke-linejoin:bevel;stroke-miterlimit:4;stroke-dasharray:none;stroke-opacity:1"
         d="m 31.199,132.801 8,0" /><path
         id="path58"
         style="fill:none;stroke:#000000;stroke-width:0.80000001;stroke-linecap:square;stroke-linejoin:bevel;stroke-miterlimit:4;stroke-dasharray:none;stroke-opacity:1"
         d="m 31.199,144.801 8,0" /><path
         id="path60"
         style="fill:none;stroke:#000000;stroke-width:0.80000001;stroke-linecap:square;stroke-linejoin:bevel;stroke-miterlimit:4;stroke-dasharray:none;stroke-opacity:1"
         d="m 31.199,156 8,0" /><path
         id="path62"
         style="fill:none;stroke:#000000;stroke-width:0.80000001;stroke-linecap:square;stroke-linejoin:bevel;stroke-miterlimit:4;stroke-dasharray:none;stroke-opacity:1"
         d="m 31.199,168 8,0" /><path
         id="path64"
         style="fill:none;stroke:#000000;stroke-width:0.80000001;stroke-linecap:square;stroke-linejoin:bevel;stroke-miterlimit:4;stroke-dasharray:none;stroke-opacity:1"
         d="m 31.199,179.199 8,0" /><path
         id="path66"
         style="fill:none;stroke:#000000;stroke-width:0.80000001;stroke-linecap:square;stroke-linejoin:bevel;stroke-miterlimit:4;stroke-dasharray:none;stroke-opacity:1"
         d="m 31.199,191.199 8,0" /><path
         id="path68"
         style="fill:none;stroke:#000000;stroke-width:0.80000001;stroke-linecap:square;stroke-linejoin:bevel;stroke-miterlimit:4;stroke-dasharray:none;stroke-opacity:1"
         d="m 35.199,191.199 192,0" /><path
         id="path70"
         style="fill:none;stroke:#000000;stroke-width:0.80000001;stroke-linecap:square;stroke-linejoin:bevel;stroke-miterlimit:4;stroke-dasharray:none;stroke-opacity:1"
         d="m 227.199,191.199 0,-128" /><path
         id="path72"
         style="fill:none;stroke:#000000;stroke-width:0.80000001;stroke-linecap:square;stroke-linejoin:bevel;stroke-miterlimit:4;stroke-dasharray:none;stroke-opacity:1"
         d="m 35.199,63.199 192,0" /><path
         id="path74"
         style="fill:none;stroke:#000000;stroke-width:0.80000001;stroke-linecap:square;stroke-linejoin:bevel;stroke-miterlimit:4;stroke-dasharray:none;stroke-opacity:1"
         d="m 35.199,191.199 0,-128" /><path
         id="path76"
         style="fill:none;stroke:#0000ff;stroke-width:0.80000001;stroke-linecap:square;stroke-linejoin:bevel;stroke-miterlimit:4;stroke-dasharray:none;stroke-opacity:1"
         d="m 44.801,179.23 0.043,0 0.047,-0.004 0.086,-0.007 0.046,-0.004 0.047,0 0.043,-0.004 0.235,-0.02 0.047,0 0.234,-0.019 0.051,-0.004 0.047,-0.004 0.05,-0.004 0.047,-0.004 0.051,-0.004 0.047,-0.004 0.101,-0.008 0.047,-0.003 0.254,-0.02 0.055,-0.004 0.152,-0.012 0.055,-0.004 0.051,-0.003 0.054,-0.004 0.051,-0.004 0.055,-0.008 0.109,-0.008 0.051,-0.004 0.109,-0.008 0.055,-0.007 0.055,-0.004 0.058,-0.004 0.055,-0.004 0.055,-0.008 0.058,-0.004 0.11,-0.008 0.058,-0.007 0.059,-0.004 0.055,-0.004 0.058,-0.008 0.117,-0.008 0.059,-0.008 0.117,-0.008 0.059,-0.007 0.058,-0.004 0.063,-0.008 0.058,-0.004 0.063,-0.008 0.059,-0.004 0.062,-0.008 0.063,-0.003 0.058,-0.008 0.063,-0.004 0.062,-0.008 0.063,-0.004 0.062,-0.008 0.063,-0.004 0.062,-0.007 0.067,-0.008 0.062,-0.004 0.063,-0.008 0.066,-0.004 0.062,-0.008 0.133,-0.015 0.063,-0.004 0.199,-0.024 0.066,-0.004 0.071,-0.007 0.133,-0.016 0.07,-0.008 0.066,-0.004 0.071,-0.007 0.066,-0.008 0.422,-0.047 0.074,-0.008 0.141,-0.016 0.074,-0.007 0.07,-0.008 0.074,-0.012 0.297,-0.031 0.075,-0.012 0.148,-0.016 0.078,-0.007 0.074,-0.012 0.078,-0.008 0.075,-0.008 0.078,-0.011 0.078,-0.008 0.078,-0.012 0.156,-0.016 0.078,-0.011 0.079,-0.008 0.082,-0.012 0.078,-0.012 0.082,-0.007 0.082,-0.012 0.078,-0.008 0.164,-0.023 0.082,-0.008 0.082,-0.012 0.086,-0.012 0.082,-0.011 0.086,-0.012 0.082,-0.008 0.086,-0.012 0.082,-0.011 0.258,-0.035 0.09,-0.012 0.171,-0.024 0.09,-0.011 0.086,-0.012 0.09,-0.012 0.09,-0.015 0.086,-0.012 0.094,-0.012 0.085,-0.012 0.094,-0.011 0.09,-0.016 0.094,-0.012 0.09,-0.015 0.093,-0.012 0.09,-0.012 0.094,-0.015 0.094,-0.012 0.094,-0.016 0.093,-0.011 0.098,-0.016 0.094,-0.016 0.097,-0.011 0.094,-0.016 0.195,-0.031 0.098,-0.012 0.293,-0.047 0.102,-0.015 0.097,-0.016 0.406,-0.063 0.102,-0.019 0.102,-0.016 0.105,-0.015 0.102,-0.016 0.105,-0.019 0.106,-0.016 0.105,-0.02 0.211,-0.031 0.211,-0.039 0.109,-0.016 0.106,-0.019 0.109,-0.02 0.11,-0.015 0.218,-0.039 0.114,-0.02 0.109,-0.019 0.113,-0.02 0.11,-0.019 0.339,-0.059 0.114,-0.023 0.117,-0.02 0.113,-0.02 0.117,-0.023 0.235,-0.039 0.113,-0.023 0.121,-0.024 0.117,-0.019 0.117,-0.024 0.122,-0.023 0.121,-0.02 0.484,-0.094 0.125,-0.023 0.121,-0.023 0.125,-0.024 0.125,-0.027 0.25,-0.047 0.125,-0.027 0.129,-0.024 0.125,-0.027 0.129,-0.024 0.258,-0.054 0.133,-0.024 0.128,-0.027 0.133,-0.027 0.129,-0.028 0.399,-0.082 0.136,-0.031 0.133,-0.027 0.137,-0.028 0.137,-0.031 0.132,-0.027 0.141,-0.032 0.137,-0.031 0.136,-0.027 0.704,-0.156 0.144,-0.032 0.141,-0.031 0.144,-0.035 0.145,-0.031 0.144,-0.036 0.145,-0.031 0.148,-0.035 0.145,-0.031 0.297,-0.071 0.152,-0.035 0.297,-0.07 0.152,-0.035 0.153,-0.039 0.152,-0.035 0.152,-0.039 0.157,-0.036 0.152,-0.039 0.156,-0.039 0.156,-0.035 0.157,-0.039 0.16,-0.039 0.156,-0.039 0.16,-0.043 0.321,-0.078 0.16,-0.043 0.164,-0.043 0.16,-0.039 0.492,-0.129 0.168,-0.043 0.164,-0.043 0.168,-0.047 0.336,-0.086 0.344,-0.094 0.168,-0.046 0.172,-0.047 0.175,-0.047 0.172,-0.047 0.176,-0.047 0.176,-0.051 0.176,-0.047 0.351,-0.101 0.719,-0.203 0.184,-0.051 0.367,-0.109 0.183,-0.051 0.184,-0.055 0.187,-0.055 0.188,-0.058 0.375,-0.11 0.191,-0.058 0.188,-0.059 0.191,-0.054 0.192,-0.059 0.195,-0.063 0.195,-0.058 0.192,-0.059 0.199,-0.062 0.195,-0.059 0.196,-0.062 0.199,-0.063 0.199,-0.066 0.199,-0.063 0.203,-0.062 0.813,-0.266 0.414,-0.133 0.207,-0.07 0.211,-0.07 0.207,-0.071 0.211,-0.07 0.215,-0.07 0.211,-0.074 0.214,-0.071 0.645,-0.222 0.219,-0.075 0.437,-0.156 0.223,-0.078 0.219,-0.078 0.222,-0.078 0.227,-0.078 0.222,-0.082 0.68,-0.246 0.231,-0.086 0.23,-0.082 0.461,-0.172 0.234,-0.09 0.235,-0.086 0.234,-0.09 0.238,-0.09 0.235,-0.09 0.242,-0.089 0.238,-0.094 0.727,-0.281 0.242,-0.098 0.246,-0.094 0.246,-0.098 0.25,-0.097 0.246,-0.102 0.5,-0.203 0.508,-0.203 0.508,-0.211 0.258,-0.105 0.258,-0.11 0.261,-0.105 0.258,-0.11 0.262,-0.113 0.265,-0.109 0.262,-0.114 0.266,-0.113 0.265,-0.117 0.27,-0.113 0.27,-0.118 0.269,-0.121 0.27,-0.117 0.546,-0.242 0.278,-0.125 0.277,-0.121 0.277,-0.125 0.278,-0.129 0.281,-0.125 0.281,-0.129 0.285,-0.133 0.282,-0.129 0.285,-0.132 0.289,-0.137 0.289,-0.133 0.578,-0.273 0.586,-0.282 0.297,-0.144 0.297,-0.141 0.297,-0.144 0.297,-0.149 0.3,-0.144 0.305,-0.153 0.301,-0.148 0.305,-0.152 0.308,-0.153 0.305,-0.156 0.308,-0.156 0.313,-0.16 0.312,-0.157 0.313,-0.164 0.312,-0.16 0.317,-0.164 0.316,-0.168 0.641,-0.336 0.648,-0.344 0.649,-0.351 0.328,-0.176 0.332,-0.18 0.328,-0.183 0.332,-0.184 0.336,-0.183 0.672,-0.375 0.68,-0.383 0.343,-0.196 0.34,-0.195 0.348,-0.199 0.343,-0.199 0.352,-0.203 0.348,-0.204 0.351,-0.207 0.356,-0.211 0.351,-0.21 0.356,-0.211 0.359,-0.215 0.36,-0.219 0.726,-0.437 0.363,-0.227 0.368,-0.223 0.367,-0.23 0.742,-0.461 0.371,-0.238 0.375,-0.239 0.379,-0.238 0.379,-0.242 0.379,-0.246 0.383,-0.246 0.382,-0.25 0.383,-0.254 0.387,-0.254 0.391,-0.258 0.39,-0.262 0.395,-0.261 0.394,-0.266 0.395,-0.27 0.398,-0.269 0.399,-0.277 0.804,-0.555 0.407,-0.285 0.41,-0.285 0.406,-0.289 0.41,-0.29 0.828,-0.593 0.418,-0.301 0.418,-0.305 0.844,-0.617 0.852,-0.633 0.429,-0.32 0.43,-0.324 0.867,-0.657 0.438,-0.335 0.437,-0.34 0.441,-0.34 0.442,-0.344 0.89,-0.703 0.45,-0.356 0.449,-0.359 0.453,-0.367 0.457,-0.367 0.457,-0.371 0.457,-0.375 0.461,-0.383 0.465,-0.383 0.465,-0.387 0.469,-0.394 0.468,-0.399 0.473,-0.398 0.473,-0.406 0.476,-0.411 0.481,-0.414 0.48,-0.421 0.484,-0.422 0.485,-0.43 0.488,-0.434 0.488,-0.437 0.493,-0.442 0.992,-0.898 0.496,-0.461 0.504,-0.461 0.504,-0.469 0.504,-0.472 0.507,-0.477 0.512,-0.484 0.512,-0.488 0.515,-0.497 0.52,-0.5 0.52,-0.503 0.523,-0.512 0.523,-0.516 0.528,-0.523 0.527,-0.531 0.535,-0.532 0.535,-0.543 0.536,-0.547 0.539,-0.55 0.543,-0.559 0.543,-0.566 0.546,-0.575 0.551,-0.578 0.555,-0.586 0.551,-0.589 0.558,-0.598 0.559,-0.606 0.562,-0.613 0.567,-0.617 0.566,-0.625 0.571,-0.633 0.574,-0.641 0.574,-0.648 0.578,-0.652 0.582,-0.664 0.582,-0.668 0.59,-0.68 0.586,-0.684 0.594,-0.691 0.593,-0.699 0.598,-0.711 0.598,-0.715 0.605,-0.723 0.606,-0.734 0.605,-0.742 0.613,-0.746 0.614,-0.758 0.617,-0.766 0.617,-0.773 0.625,-0.785 0.625,-0.793 0.629,-0.797 0.629,-0.813 0.637,-0.816 0.636,-0.828 0.637,-0.836 0.645,-0.848 0.644,-0.855 0.649,-0.864 0.652,-0.875 0.656,-0.882 0.656,-0.891 0.664,-0.902 0.664,-0.914 0.665,-0.922 0.671,-0.93 0.672,-0.941 0.676,-0.954 0.68,-0.96 0.683,-0.973 0.684,-0.981 0.691,-0.992 0.692,-1.004 0.695,-1.011 0.699,-1.024 0.7,-1.031 0.707,-1.043 0.707,-1.055 0.711,-1.066 0.714,-1.074 0.719,-1.086 0.723,-1.098 0.722,-1.109 0.731,-1.118 0.73,-1.128 0.735,-1.141 0.738,-1.148 0.742,-1.161 0.746,-1.175 0.746,-1.18 0.754,-1.195 0.692,-1.102" /><path
         id="path78"
         style="fill:none;stroke:#ff0000;stroke-width:0.80000001;stroke-linecap:square;stroke-linejoin:bevel;stroke-miterlimit:4;stroke-dasharray:none;stroke-opacity:1"
         d="m 44.801,179.562 25.785,0 0.164,-0.004 3.434,0 0.179,-0.004 1.848,0 0.191,-0.003 1.153,0 0.199,-0.004 0.789,0 0.199,-0.004 0.61,0 0.203,-0.004 0.617,0 0.207,-0.004 0.418,0 0.211,-0.004 0.426,0 0.214,-0.004 0.215,0 0.215,-0.004 0.215,0 0.219,-0.004 0.218,0 0.219,-0.004 0.223,0 0.219,-0.003 0.222,-0.004 0.227,0 0.222,-0.004 0.227,-0.004 0.227,0 0.226,-0.004 0.922,-0.016 0.703,-0.011 0.238,-0.004 0.235,-0.004 0.242,-0.004 0.238,-0.008 0.485,-0.008 0.242,-0.008 0.242,-0.004 0.492,-0.015 0.25,-0.004 0.246,-0.008 0.5,-0.015 0.254,-0.008 0.254,-0.012 0.254,-0.008 0.254,-0.012 0.258,-0.007 0.258,-0.012 0.261,-0.012 0.258,-0.012 0.262,-0.011 0.265,-0.012 0.262,-0.012 0.531,-0.031 0.27,-0.012 0.27,-0.019 0.539,-0.031 0.546,-0.039 0.555,-0.04 0.555,-0.046 0.281,-0.024 0.281,-0.027 0.285,-0.024 0.282,-0.027 0.285,-0.031 0.289,-0.028 0.289,-0.035 0.289,-0.031 0.289,-0.035 0.293,-0.035 0.293,-0.039 0.297,-0.039 0.891,-0.129 0.3,-0.051 0.305,-0.047 0.301,-0.055 0.305,-0.054 0.308,-0.055 0.305,-0.059 0.308,-0.062 0.313,-0.067 0.625,-0.14 0.312,-0.074 0.317,-0.079 0.316,-0.082 0.641,-0.171 0.324,-0.094 0.324,-0.098 0.324,-0.101 0.325,-0.106 0.328,-0.113 0.332,-0.113 0.328,-0.122 0.332,-0.128 0.336,-0.133 0.336,-0.137 0.336,-0.144 0.34,-0.153 0.34,-0.156 0.343,-0.164 0.34,-0.172 0.348,-0.18 0.343,-0.183 0.352,-0.196 0.348,-0.203 0.351,-0.211 0.356,-0.222 0.351,-0.231 0.356,-0.238 0.359,-0.25 0.36,-0.262 0.363,-0.269 0.363,-0.285 0.363,-0.293 0.368,-0.305 0.367,-0.32 0.371,-0.332 0.371,-0.344 0.371,-0.36 0.375,-0.375 0.379,-0.386 0.379,-0.403 0.379,-0.418 0.383,-0.433 0.382,-0.453 0.383,-0.469 0.387,-0.484 0.391,-0.504 0.39,-0.52 0.395,-0.543 0.394,-0.558 0.395,-0.583 0.398,-0.597 0.399,-0.621 0.402,-0.645 0.402,-0.664 0.407,-0.683 0.41,-0.711 0.406,-0.731 0.41,-0.754 0.414,-0.777 0.414,-0.805 0.418,-0.824 0.418,-0.852 0.422,-0.878 0.422,-0.903 0.426,-0.926 0.426,-0.953 0.429,-0.98 0.43,-1.008 0.433,-1.031 0.434,-1.059 0.438,-1.086 0.437,-1.113 0.441,-1.137 0.442,-1.168 0.445,-1.191 0.445,-1.219 0.45,-1.246 0.449,-1.273 0.453,-1.301 0.457,-1.324 0.457,-1.356 0.457,-1.375 0.461,-1.406 0.465,-1.43 0.465,-1.453 0.469,-1.48 0.468,-1.504 0.473,-1.532 0.473,-1.55 0.476,-1.579 0.481,-1.601 0.48,-1.621 0.484,-1.645 0.485,-1.668 0.488,-1.687 0.488,-1.711 0.493,-1.734 0.496,-1.75 0.496,-1.77 0.496,-1.793 0.504,-1.809 0.504,-1.828 0.504,-1.843 0.507,-1.864 0.512,-1.879 0.512,-1.898 0.515,-1.91 0.52,-1.93 0.52,-1.941 0.523,-1.957 0.523,-1.973 0.528,-1.984 0.527,-2 0.535,-2.012 0.535,-2.024 0.536,-2.039 0.539,-2.046 0.543,-2.059 0.543,-2.07 0.546,-2.079 0.551,-2.089 0.071,-0.266" /><path
         id="path80"
         style="fill:none;stroke:#ff00ff;stroke-width:0.80000001;stroke-linecap:square;stroke-linejoin:bevel;stroke-miterlimit:4;stroke-dasharray:none;stroke-opacity:1"
         d="m 44.801,176.453 0.043,-0.024 0.047,-0.027 0.043,-0.023 0.043,-0.028 0.046,-0.027 0.047,-0.023 0.043,-0.028 0.422,-0.246 0.047,-0.031 0.047,-0.027 0.051,-0.028 0.047,-0.031 0.05,-0.027 0.047,-0.032 0.051,-0.027 0.047,-0.031 0.051,-0.031 0.05,-0.028 0.047,-0.031 0.254,-0.156 0.055,-0.032 0.152,-0.093 0.055,-0.032 0.051,-0.035 0.054,-0.031 0.051,-0.031 0.055,-0.035 0.055,-0.032 0.054,-0.035 0.051,-0.031 0.164,-0.106 0.055,-0.031 0.058,-0.035 0.11,-0.07 0.058,-0.035 0.11,-0.071 0.058,-0.035 0.059,-0.039 0.055,-0.035 0.117,-0.07 0.058,-0.039 0.059,-0.036 0.059,-0.039 0.058,-0.035 0.117,-0.078 0.063,-0.035 0.058,-0.039 0.063,-0.039 0.059,-0.039 0.125,-0.078 0.058,-0.039 0.313,-0.196 0.062,-0.043 0.067,-0.039 0.062,-0.039 0.063,-0.043 0.066,-0.039 0.062,-0.043 0.067,-0.039 0.066,-0.043 0.063,-0.039 0.199,-0.129 0.066,-0.039 0.071,-0.043 0.133,-0.086 0.07,-0.043 0.066,-0.043 0.071,-0.043 0.066,-0.043 0.07,-0.043 0.071,-0.047 0.21,-0.128 0.071,-0.047 0.074,-0.043 0.07,-0.043 0.071,-0.047 0.074,-0.043 0.07,-0.047 0.074,-0.043 0.075,-0.047 0.074,-0.043 0.148,-0.094 0.075,-0.043 0.148,-0.093 0.078,-0.043 0.074,-0.047 0.078,-0.047 0.075,-0.047 0.156,-0.094 0.078,-0.043 0.313,-0.187 0.082,-0.047 0.078,-0.047 0.164,-0.094 0.078,-0.046 0.328,-0.188 0.086,-0.047 0.082,-0.047 0.086,-0.047 0.082,-0.046 0.086,-0.047 0.082,-0.047 0.258,-0.141 0.09,-0.047 0.171,-0.093 0.09,-0.047 0.086,-0.047 0.18,-0.094 0.086,-0.047 0.094,-0.047 0.085,-0.047 0.094,-0.043 0.09,-0.046 0.094,-0.047 0.09,-0.047 0.093,-0.043 0.09,-0.047 0.094,-0.047 0.094,-0.043 0.094,-0.047 0.093,-0.043 0.098,-0.043 0.094,-0.047 0.097,-0.043 0.094,-0.043 0.098,-0.046 0.488,-0.215 0.102,-0.043 0.097,-0.039 0.203,-0.086 0.102,-0.039 0.101,-0.043 0.204,-0.078 0.105,-0.039 0.102,-0.039 0.422,-0.157 0.105,-0.035 0.105,-0.039 0.106,-0.035 0.109,-0.035 0.106,-0.035 0.328,-0.106 0.109,-0.031 0.114,-0.035 0.109,-0.032 0.113,-0.031 0.11,-0.031 0.226,-0.063 0.227,-0.054 0.117,-0.031 0.113,-0.028 0.117,-0.023 0.235,-0.055 0.113,-0.023 0.121,-0.024 0.234,-0.047 0.606,-0.097 0.121,-0.016 0.125,-0.02 0.121,-0.015 0.125,-0.012 0.125,-0.015 0.375,-0.036 0.129,-0.007 0.125,-0.012 0.129,-0.008 0.129,-0.004 0.129,-0.008 0.133,-0.004 0.128,-0.004 0.133,-0.003 0.395,0 0.133,0.003 0.136,0.004 0.133,0.004 0.274,0.016 0.132,0.008 0.141,0.008 0.273,0.023 0.422,0.047 0.282,0.039 0.144,0.019 0.141,0.024 0.289,0.047 0.289,0.054 0.148,0.032 0.145,0.031 0.148,0.035 0.149,0.031 0.152,0.039 0.149,0.036 0.148,0.043 0.152,0.039 0.153,0.043 0.152,0.046 0.152,0.043 0.157,0.051 0.152,0.047 0.156,0.055 0.156,0.051 0.157,0.054 0.16,0.059 0.156,0.058 0.16,0.059 0.16,0.063 0.321,0.132 0.164,0.067 0.16,0.07 0.164,0.07 0.328,0.149 0.168,0.078 0.164,0.078 0.336,0.164 0.168,0.086 0.172,0.086 0.172,0.09 0.168,0.09 0.172,0.093 0.175,0.094 0.172,0.094 0.176,0.098 0.352,0.203 0.351,0.211 0.18,0.105 0.359,0.219 0.18,0.113 0.184,0.117 0.183,0.114 0.184,0.117 0.367,0.242 0.187,0.125 0.188,0.121 0.187,0.129 0.188,0.125 0.191,0.129 0.188,0.133 0.191,0.129 0.192,0.132 0.195,0.137 0.195,0.133 0.192,0.137 0.199,0.14 0.195,0.137 0.196,0.141 0.398,0.281 0.199,0.144 0.203,0.141 0.813,0.578 0.621,0.434 0.211,0.144 0.207,0.145 0.211,0.14 0.215,0.145 0.211,0.145 0.859,0.562 0.437,0.273 0.219,0.133 0.223,0.133 0.219,0.129 0.222,0.129 0.227,0.125 0.222,0.125 0.227,0.121 0.227,0.117 0.226,0.113 0.231,0.114 0.461,0.211 0.23,0.101 0.469,0.188 0.234,0.086 0.238,0.082 0.235,0.078 0.242,0.074 0.238,0.066 0.242,0.063 0.243,0.055 0.242,0.05 0.242,0.047 0.246,0.035 0.246,0.032 0.25,0.027 0.246,0.016 0.25,0.011 0.25,0.004 0.254,-0.004 0.254,-0.011 0.254,-0.016 0.254,-0.027 0.258,-0.035 0.258,-0.043 0.261,-0.051 0.258,-0.059 0.262,-0.066 0.265,-0.074 0.262,-0.082 0.266,-0.094 0.265,-0.102 0.27,-0.109 0.27,-0.117 0.269,-0.125 0.27,-0.133 0.273,-0.141 0.273,-0.152 0.278,-0.156 0.277,-0.168 0.277,-0.176 0.278,-0.18 0.281,-0.191 0.281,-0.196 0.285,-0.203 0.282,-0.211 0.285,-0.218 0.289,-0.223 0.289,-0.227 0.289,-0.234 0.289,-0.242 0.293,-0.242 0.293,-0.25 0.594,-0.508 0.594,-0.524 0.3,-0.265 0.305,-0.266 0.301,-0.269 0.305,-0.266 0.308,-0.269 0.305,-0.266 0.308,-0.266 0.313,-0.265 0.312,-0.262 0.313,-0.258 0.312,-0.254 0.317,-0.25 0.316,-0.246 0.32,-0.238 0.321,-0.235 0.324,-0.226 0.324,-0.215 0.324,-0.207 0.325,-0.199 0.328,-0.188 0.332,-0.175 0.328,-0.165 0.332,-0.152 0.336,-0.137 0.336,-0.125 0.336,-0.105 0.34,-0.09 0.34,-0.074 0.343,-0.059 0.34,-0.035 0.348,-0.016 0.343,0.004 0.352,0.024 0.348,0.047 0.351,0.074 0.356,0.094 0.351,0.117 0.356,0.144 0.359,0.172 0.36,0.196 0.363,0.226 0.363,0.25 0.363,0.281 0.368,0.305 0.367,0.336 0.371,0.363 0.371,0.387 0.371,0.418 0.375,0.441 0.379,0.469 0.379,0.488 0.379,0.512 0.383,0.527 0.382,0.543 0.383,0.551 0.387,0.559 0.391,0.562 0.39,0.551 0.395,0.539 0.394,0.516 0.395,0.48 0.398,0.438 0.399,0.375 0.402,0.304 0.402,0.219 0.407,0.11 0.41,-0.012 0.406,-0.156 0.41,-0.321 0.414,-0.5 0.414,-0.703 0.418,-0.918 0.418,-1.156 0.422,-1.402 0.422,-1.657 0.426,-1.922 0.426,-2.187 0.429,-2.449 0.43,-2.703 0.433,-2.957 0.434,-3.188 0.438,-3.402 0.437,-3.61 0.441,-3.789 0.442,-3.949 0.445,-4.094 0.445,-4.214 0.45,-4.325 0.449,-4.41 0.453,-4.48 0.457,-4.535 0.457,-4.583 0.457,-4.613 0.461,-4.633 0.93,-9.296 0.469,-4.649 0.468,-4.637 0.473,-4.625 0.473,-4.605 0.476,-4.586 0.481,-4.563 0.265,-2.523" /><path
         id="path82"
         style="fill:none;stroke:#00ff00;stroke-width:0.80000001;stroke-linecap:square;stroke-linejoin:bevel;stroke-miterlimit:4;stroke-dasharray:none;stroke-opacity:1"
         d="m 44.801,178.164 0.043,-0.012 0.047,-0.012 0.086,-0.023 0.046,-0.016 0.047,-0.011 0.043,-0.012 0.047,-0.016 0.094,-0.023 0.047,-0.016 0.047,-0.011 0.047,-0.016 0.046,-0.012 0.047,-0.015 0.047,-0.012 0.094,-0.031 0.051,-0.012 0.047,-0.016 0.05,-0.015 0.047,-0.012 0.051,-0.016 0.047,-0.015 0.101,-0.032 0.047,-0.015 0.254,-0.078 0.055,-0.016 0.152,-0.047 0.055,-0.015 0.051,-0.02 0.054,-0.016 0.051,-0.015 0.055,-0.02 0.055,-0.015 0.054,-0.02 0.051,-0.016 0.055,-0.019 0.054,-0.016 0.055,-0.019 0.055,-0.016 0.058,-0.019 0.055,-0.02 0.055,-0.016 0.058,-0.019 0.11,-0.039 0.058,-0.02 0.059,-0.015 0.055,-0.02 0.117,-0.039 0.058,-0.023 0.293,-0.098 0.063,-0.023 0.058,-0.02 0.063,-0.02 0.059,-0.023 0.062,-0.019 0.063,-0.024 0.058,-0.019 0.125,-0.047 0.063,-0.02 0.125,-0.047 0.062,-0.019 0.067,-0.024 0.125,-0.047 0.066,-0.023 0.062,-0.023 0.133,-0.047 0.063,-0.024 0.066,-0.027 0.199,-0.07 0.071,-0.028 0.066,-0.023 0.067,-0.028 0.07,-0.023 0.066,-0.027 0.071,-0.024 0.066,-0.027 0.07,-0.027 0.071,-0.024 0.281,-0.109 0.074,-0.028 0.141,-0.054 0.074,-0.028 0.07,-0.027 0.074,-0.027 0.075,-0.032 0.148,-0.054 0.074,-0.032 0.075,-0.027 0.074,-0.031 0.074,-0.027 0.078,-0.032 0.074,-0.027 0.078,-0.031 0.075,-0.032 0.078,-0.031 0.078,-0.027 0.391,-0.156 0.082,-0.036 0.078,-0.031 0.164,-0.062 0.078,-0.035 0.082,-0.032 0.082,-0.035 0.082,-0.031 0.082,-0.035 0.086,-0.032 0.082,-0.035 0.086,-0.035 0.082,-0.031 0.086,-0.035 0.082,-0.035 0.258,-0.106 0.09,-0.035 0.171,-0.07 0.09,-0.035 0.086,-0.04 0.18,-0.07 0.086,-0.039 0.094,-0.035 0.085,-0.039 0.094,-0.035 0.09,-0.039 0.094,-0.039 0.09,-0.036 0.093,-0.039 0.09,-0.039 0.375,-0.156 0.098,-0.039 0.094,-0.039 0.097,-0.039 0.094,-0.039 0.098,-0.039 0.097,-0.043 0.196,-0.078 0.097,-0.043 0.098,-0.039 0.102,-0.043 0.097,-0.039 0.203,-0.086 0.102,-0.039 0.305,-0.129 0.105,-0.039 0.102,-0.043 0.632,-0.258 0.106,-0.047 0.109,-0.043 0.106,-0.043 0.109,-0.043 0.11,-0.047 0.218,-0.086 0.114,-0.047 0.109,-0.043 0.113,-0.043 0.11,-0.046 0.113,-0.043 0.226,-0.094 0.114,-0.043 0.117,-0.047 0.113,-0.043 0.235,-0.094 0.117,-0.043 0.113,-0.047 0.121,-0.046 0.117,-0.047 0.117,-0.043 0.485,-0.188 0.121,-0.043 0.121,-0.047 0.125,-0.047 0.121,-0.046 0.25,-0.094 0.125,-0.043 0.25,-0.094 0.129,-0.047 0.125,-0.047 0.129,-0.046 0.129,-0.043 0.129,-0.047 0.133,-0.047 0.128,-0.047 0.133,-0.043 0.129,-0.047 0.266,-0.094 0.133,-0.043 0.136,-0.047 0.133,-0.042 0.274,-0.094 0.132,-0.043 0.141,-0.047 0.273,-0.086 0.141,-0.047 0.281,-0.086 0.141,-0.047 0.141,-0.043 0.144,-0.043 0.141,-0.043 0.433,-0.129 0.145,-0.039 0.148,-0.043 0.145,-0.043 0.148,-0.039 0.149,-0.043 0.152,-0.039 0.297,-0.078 0.152,-0.043 0.153,-0.039 0.152,-0.035 0.152,-0.039 0.157,-0.039 0.152,-0.035 0.156,-0.039 0.313,-0.071 0.16,-0.035 0.156,-0.035 0.32,-0.07 0.161,-0.031 0.16,-0.036 0.164,-0.031 0.16,-0.031 0.328,-0.063 0.164,-0.027 0.168,-0.031 0.164,-0.028 0.336,-0.054 0.168,-0.024 0.172,-0.027 0.172,-0.023 0.168,-0.024 0.172,-0.023 0.175,-0.024 0.172,-0.019 0.528,-0.059 0.175,-0.016 0.176,-0.019 0.18,-0.012 0.359,-0.031 0.18,-0.012 0.184,-0.011 0.183,-0.008 0.184,-0.012 0.183,-0.008 0.184,-0.004 0.187,-0.008 0.375,-0.007 0.567,0 0.383,0.007 0.195,0.004 0.195,0.008 0.192,0.008 0.199,0.008 0.391,0.023 0.597,0.047 0.406,0.039 0.407,0.047 0.203,0.027 0.414,0.055 0.207,0.031 0.211,0.036 0.207,0.035 0.211,0.035 0.215,0.039 0.211,0.043 0.429,0.086 0.215,0.047 0.215,0.05 0.219,0.051 0.437,0.11 0.223,0.058 0.219,0.059 0.222,0.062 0.227,0.067 0.222,0.066 0.227,0.067 0.453,0.148 0.231,0.074 0.23,0.078 0.231,0.082 0.23,0.086 0.469,0.172 0.234,0.094 0.238,0.094 0.235,0.093 0.242,0.102 0.238,0.102 0.242,0.101 0.243,0.109 0.242,0.106 0.242,0.113 0.246,0.113 0.246,0.118 0.25,0.121 0.246,0.121 0.5,0.25 0.254,0.129 0.508,0.265 0.254,0.137 0.516,0.281 0.261,0.145 0.258,0.144 0.262,0.149 0.265,0.152 0.262,0.153 0.266,0.152 0.265,0.156 0.27,0.156 0.539,0.321 0.27,0.164 0.546,0.328 0.278,0.168 0.277,0.164 0.277,0.168 0.278,0.172 0.562,0.336 0.285,0.168 0.282,0.172 0.285,0.168 0.289,0.167 0.289,0.165 0.289,0.168 0.289,0.164 0.586,0.32 0.297,0.16 0.594,0.305 0.297,0.148 0.3,0.145 0.305,0.14 0.301,0.137 0.305,0.129 0.308,0.125 0.305,0.117 0.308,0.113 0.313,0.106 0.312,0.098 0.313,0.093 0.312,0.078 0.317,0.075 0.316,0.062 0.32,0.055 0.321,0.043 0.324,0.031 0.324,0.023 0.324,0.008 0.325,-0.004 0.328,-0.015 0.332,-0.031 0.328,-0.043 0.332,-0.059 0.336,-0.07 0.336,-0.086 0.336,-0.102 0.34,-0.117 0.34,-0.133 0.343,-0.148 0.34,-0.164 0.348,-0.18 0.343,-0.195 0.352,-0.211 0.348,-0.227 0.351,-0.238 0.356,-0.254 0.351,-0.27 0.356,-0.277 0.359,-0.293 0.36,-0.305 0.363,-0.312 0.363,-0.324 0.363,-0.328 0.368,-0.336 0.367,-0.34 0.371,-0.344 0.742,-0.68 0.375,-0.332 0.379,-0.328 0.379,-0.312 0.379,-0.301 0.383,-0.285 0.382,-0.262 0.383,-0.238 0.387,-0.211 0.391,-0.172 0.39,-0.137 0.395,-0.094 0.394,-0.042 0.395,0.011 0.398,0.071 0.399,0.136 0.402,0.207 0.402,0.285 0.407,0.364 0.41,0.453 0.406,0.539 0.41,0.625 0.414,0.715 0.414,0.785 0.418,0.851 0.418,0.883 0.422,0.883 0.422,0.82 0.426,0.676 0.426,0.422 0.429,0.024 0.43,-0.563 0.433,-1.359 0.434,-2.383 0.438,-3.621 0.437,-5.02 0.441,-6.488 0.442,-7.934 0.445,-9.261 0.445,-10.407 0.45,-11.339 0.449,-12.075 0.453,-12.636 0.457,-13.059 0.457,-13.383 0.227,-6.785" /><path
         id="path84"
         style="fill:#000000;fill-opacity:1;fill-rule:nonzero;stroke:none"
         d="m 36.859,52.066 c 0,2.36 -0.75,3.531 -2.218,3.531 -1.469,0 -2.235,-1.187 -2.235,-3.468 0,-2.297 0.782,-3.469 2.235,-3.469 1.437,0 2.218,1.172 2.218,3.406 z M 36,52.144 c 0,-1.922 -0.438,-2.781 -1.375,-2.781 -0.891,0 -1.344,0.891 -1.344,2.75 0,1.875 0.453,2.734 1.36,2.734 0.906,0 1.359,-0.875 1.359,-2.703 z" /><path
         id="path86"
         style="fill:#000000;fill-opacity:1;fill-rule:nonzero;stroke:none"
         d="m 124.129,48.801 0,6.796 -0.563,0 c -0.296,-1.046 -0.484,-1.187 -1.781,-1.343 l 0,-0.61 1.5,0 0,-4.843 0.844,0 z" /><path
         id="path88"
         style="fill:#000000;fill-opacity:1;fill-rule:nonzero;stroke:none"
         d="m 131.059,51.082 c 0,0.734 -0.063,1.187 -0.204,1.562 -0.328,0.828 -1.093,1.328 -2.031,1.328 -1.406,0 -2.297,-1.031 -2.297,-2.687 0,-1.656 0.86,-2.625 2.282,-2.625 1.14,0 1.937,0.656 2.14,1.672 l -0.797,0 c -0.218,-0.672 -0.672,-0.938 -1.312,-0.938 -0.844,0 -1.469,0.532 -1.485,1.688 l 3.704,0 z m -0.86,0.719 0,-0.063 -2.828,0 c 0.078,0.891 0.641,1.5 1.438,1.5 0.796,0 1.39,-0.656 1.39,-1.437 z" /><path
         id="path90"
         style="fill:#000000;fill-opacity:1;fill-rule:nonzero;stroke:none"
         d="m 136.367,52.363 c 0,2.125 -0.75,3.234 -2.297,3.234 -1.297,0 -2.234,-0.921 -2.234,-2.25 0,-1.265 0.875,-2.125 2.094,-2.125 0.64,0 1.109,0.235 1.562,0.766 -0.015,-1.656 -0.547,-2.578 -1.515,-2.578 -0.594,0 -1.016,0.375 -1.141,1.016 l -0.844,0 c 0.156,-1.11 0.891,-1.766 1.922,-1.766 1.594,0 2.453,1.344 2.453,3.703 z m -0.922,1 c 0,-0.828 -0.593,-1.391 -1.422,-1.391 -0.812,0 -1.312,0.532 -1.312,1.438 0,0.875 0.562,1.453 1.344,1.453 0.797,0 1.39,-0.609 1.39,-1.5 z" /><path
         id="path92"
         style="fill:#000000;fill-opacity:1;fill-rule:nonzero;stroke:none"
         d="m 221.707,53.613 c 0,1.141 -0.891,1.984 -2.187,1.984 -1.391,0 -2.188,-0.703 -2.235,-2.359 l 0.844,0 c 0.062,1.141 0.531,1.625 1.375,1.625 0.766,0 1.328,-0.547 1.328,-1.281 0,-0.531 -0.312,-0.985 -0.906,-1.344 l -0.891,-0.5 c -1.422,-0.797 -1.828,-1.437 -1.906,-2.937 l 4.531,0 0,0.828 -3.578,0 c 0.078,0.562 0.391,0.922 1.219,1.406 l 0.969,0.516 c 0.937,0.515 1.437,1.218 1.437,2.062 z" /><path
         id="path94"
         style="fill:#000000;fill-opacity:1;fill-rule:nonzero;stroke:none"
         d="m 227.059,51.082 c 0,0.734 -0.063,1.187 -0.204,1.562 -0.328,0.828 -1.093,1.328 -2.031,1.328 -1.406,0 -2.297,-1.031 -2.297,-2.687 0,-1.656 0.86,-2.625 2.282,-2.625 1.14,0 1.937,0.656 2.14,1.672 l -0.797,0 c -0.218,-0.672 -0.672,-0.938 -1.312,-0.938 -0.844,0 -1.469,0.532 -1.485,1.688 l 3.704,0 z m -0.86,0.719 0,-0.063 -2.828,0 c 0.078,0.891 0.641,1.5 1.438,1.5 0.796,0 1.39,-0.656 1.39,-1.437 z" /><path
         id="path96"
         style="fill:#000000;fill-opacity:1;fill-rule:nonzero;stroke:none"
         d="m 232.367,52.363 c 0,2.125 -0.75,3.234 -2.297,3.234 -1.297,0 -2.234,-0.921 -2.234,-2.25 0,-1.265 0.875,-2.125 2.094,-2.125 0.64,0 1.109,0.235 1.562,0.766 -0.015,-1.656 -0.547,-2.578 -1.515,-2.578 -0.594,0 -1.016,0.375 -1.141,1.016 l -0.844,0 c 0.156,-1.11 0.891,-1.766 1.922,-1.766 1.594,0 2.453,1.344 2.453,3.703 z m -0.922,1 c 0,-0.828 -0.593,-1.391 -1.422,-1.391 -0.812,0 -1.312,0.532 -1.312,1.438 0,0.875 0.562,1.453 1.344,1.453 0.797,0 1.39,-0.609 1.39,-1.5 z" /><path
         id="path98"
         style="fill:#000000;fill-opacity:1;fill-rule:nonzero;stroke:none"
         d="m 11.637,61.398 2.281,0 0,-0.703 -2.281,0 0,0.703 z" /><path
         id="path100"
         style="fill:#000000;fill-opacity:1;fill-rule:nonzero;stroke:none"
         d="m 17.727,58.398 0,6.797 -0.563,0 C 16.867,64.148 16.68,64.008 15.383,63.851 l 0,-0.609 1.5,0 0,-4.844 0.844,0 z" /><path
         id="path102"
         style="fill:#000000;fill-opacity:1;fill-rule:nonzero;stroke:none"
         d="m 24.594,61.664 c 0,2.359 -0.75,3.531 -2.219,3.531 -1.469,0 -2.234,-1.187 -2.234,-3.469 0,-2.297 0.781,-3.468 2.234,-3.468 1.437,0 2.219,1.171 2.219,3.406 z m -0.86,0.078 c 0,-1.922 -0.437,-2.781 -1.375,-2.781 -0.89,0 -1.343,0.89 -1.343,2.75 0,1.875 0.453,2.734 1.359,2.734 0.906,0 1.359,-0.875 1.359,-2.703 z" /><path
         id="path104"
         style="fill:#000000;fill-opacity:1;fill-rule:nonzero;stroke:none"
         d="m 18.836,73.398 2.281,0 0,-0.703 -2.281,0 0,0.703 z" /><path
         id="path106"
         style="fill:#000000;fill-opacity:1;fill-rule:nonzero;stroke:none"
         d="m 26.488,73.961 c 0,2.125 -0.75,3.234 -2.297,3.234 -1.296,0 -2.234,-0.922 -2.234,-2.25 0,-1.266 0.875,-2.125 2.094,-2.125 0.64,0 1.109,0.234 1.562,0.766 -0.015,-1.657 -0.547,-2.578 -1.515,-2.578 -0.594,0 -1.016,0.375 -1.141,1.015 l -0.844,0 c 0.157,-1.109 0.891,-1.765 1.922,-1.765 1.594,0 2.453,1.343 2.453,3.703 z m -0.922,1 c 0,-0.828 -0.593,-1.391 -1.421,-1.391 -0.813,0 -1.313,0.531 -1.313,1.438 0,0.875 0.563,1.453 1.344,1.453 0.797,0 1.39,-0.61 1.39,-1.5 z" /><path
         id="path108"
         style="fill:#000000;fill-opacity:1;fill-rule:nonzero;stroke:none"
         d="m 18.836,84.597 2.281,0 0,-0.703 -2.281,0 0,0.703 z" /><path
         id="path110"
         style="fill:#000000;fill-opacity:1;fill-rule:nonzero;stroke:none"
         d="m 26.52,83.519 c 0,0.75 -0.391,1.282 -1.172,1.657 0.703,0.421 0.937,0.765 0.937,1.406 0,1.062 -0.844,1.812 -2.047,1.812 -1.203,0 -2.047,-0.75 -2.047,-1.812 0,-0.625 0.235,-0.969 0.922,-1.406 -0.781,-0.375 -1.156,-0.907 -1.156,-1.657 0,-1.234 0.938,-2.062 2.281,-2.062 1.344,0 2.282,0.828 2.282,2.062 z m -1.11,3.047 c 0,-0.625 -0.469,-1.047 -1.172,-1.047 -0.718,0 -1.187,0.422 -1.187,1.063 0,0.64 0.469,1.062 1.187,1.062 0.719,0 1.172,-0.422 1.172,-1.078 z m 0.25,-3.062 c 0,-0.797 -0.578,-1.297 -1.437,-1.297 -0.828,0 -1.407,0.5 -1.407,1.297 0,0.797 0.579,1.297 1.422,1.297 0.844,0 1.422,-0.5 1.422,-1.297 z" /><path
         id="path112"
         style="fill:#000000;fill-opacity:1;fill-rule:nonzero;stroke:none"
         d="m 18.836,96.597 2.281,0 0,-0.703 -2.281,0 0,0.703 z" /><path
         id="path114"
         style="fill:#000000;fill-opacity:1;fill-rule:nonzero;stroke:none"
         d="m 26.582,99.551 0,0.703 -4.547,0 0,-0.828 3.672,0 c -1.344,-1.719 -2.312,-3.704 -2.781,-5.829 l 0.89,0 c 0.375,2.204 1.344,4.25 2.766,5.954 z" /><path
         id="path116"
         style="fill:#000000;fill-opacity:1;fill-rule:nonzero;stroke:none"
         d="m 18.836,107.801 2.281,0 0,-0.703 -2.281,0 0,0.703 z" /><path
         id="path118"
         style="fill:#000000;fill-opacity:1;fill-rule:nonzero;stroke:none"
         d="m 26.52,106.91 c 0,1.266 -0.86,2.125 -2.079,2.125 -0.671,0 -1.203,-0.266 -1.562,-0.766 0,1.657 0.547,2.578 1.516,2.578 0.593,0 1,-0.375 1.14,-1.015 l 0.844,0 c -0.172,1.109 -0.891,1.765 -1.938,1.765 -1.578,0 -2.437,-1.328 -2.437,-3.703 0,-2.109 0.734,-3.234 2.297,-3.234 1.281,0 2.219,0.922 2.219,2.25 z m -0.86,-0.063 c 0,-0.859 -0.578,-1.437 -1.359,-1.437 -0.781,0 -1.375,0.609 -1.375,1.484 0,0.844 0.578,1.391 1.406,1.391 0.813,0 1.328,-0.531 1.328,-1.438 z" /><path
         id="path120"
         style="fill:#000000;fill-opacity:1;fill-rule:nonzero;stroke:none"
         d="m 18.836,119.801 2.281,0 0,-0.703 -2.281,0 0,0.703 z" /><path
         id="path122"
         style="fill:#000000;fill-opacity:1;fill-rule:nonzero;stroke:none"
         d="m 26.52,119.051 c 0,1.343 -0.891,2.234 -2.204,2.234 -0.468,0 -0.859,-0.125 -1.25,-0.422 l 0.266,1.766 2.828,0 0,0.828 -3.5,0 -0.515,-3.563 0.781,0 c 0.39,0.469 0.719,0.641 1.25,0.641 0.906,0 1.484,-0.594 1.484,-1.594 0,-0.984 -0.578,-1.531 -1.484,-1.531 -0.75,0 -1.203,0.375 -1.391,1.141 l -0.859,0 c 0.281,-1.36 1.047,-1.891 2.265,-1.891 1.375,0 2.329,0.953 2.329,2.391 z" /><path
         id="path124"
         style="fill:#000000;fill-opacity:1;fill-rule:nonzero;stroke:none"
         d="m 18.836,131 2.281,0 0,-0.703 -2.281,0 0,0.703 z" /><path
         id="path126"
         style="fill:#000000;fill-opacity:1;fill-rule:nonzero;stroke:none"
         d="m 26.582,129.625 0,0.765 -1,0 0,4.407 -0.625,0 -3.094,-4.282 0,-0.89 2.875,0 0,-1.625 0.844,0 0,1.625 1,0 z m -1.844,0.765 -2.14,0 2.14,2.969 0,-2.969 z" /><path
         id="path128"
         style="fill:#000000;fill-opacity:1;fill-rule:nonzero;stroke:none"
         d="m 18.836,143 2.281,0 0,-0.703 -2.281,0 0,0.703 z" /><path
         id="path130"
         style="fill:#000000;fill-opacity:1;fill-rule:nonzero;stroke:none"
         d="m 26.457,141.969 c 0,0.828 -0.344,1.312 -1.156,1.593 0.64,0.25 0.953,0.688 0.953,1.375 0,1.172 -0.781,1.86 -2.078,1.86 -1.375,0 -2.094,-0.75 -2.125,-2.188 l 0.844,0 c 0.015,1 0.437,1.453 1.296,1.453 0.75,0 1.204,-0.437 1.204,-1.156 0,-0.734 -0.329,-1.031 -1.672,-1.031 l 0,-0.703 0.453,0 c 0.937,0 1.406,-0.453 1.406,-1.203 0,-0.86 -0.516,-1.36 -1.406,-1.36 -0.922,0 -1.375,0.453 -1.422,1.438 l -0.844,0 c 0.094,-1.516 0.844,-2.188 2.235,-2.188 1.406,0 2.312,0.828 2.312,2.11 z" /><path
         id="path132"
         style="fill:#000000;fill-opacity:1;fill-rule:nonzero;stroke:none"
         d="m 18.836,154.199 2.281,0 0,-0.703 -2.281,0 0,0.703 z" /><path
         id="path134"
         style="fill:#000000;fill-opacity:1;fill-rule:nonzero;stroke:none"
         d="m 26.504,156.012 c 0,1.14 -0.891,1.984 -2.188,1.984 -1.39,0 -2.187,-0.703 -2.234,-2.359 l 0.844,0 c 0.062,1.14 0.531,1.625 1.375,1.625 0.765,0 1.328,-0.547 1.328,-1.282 0,-0.531 -0.313,-0.984 -0.906,-1.343 l -0.891,-0.5 c -1.422,-0.797 -1.828,-1.438 -1.906,-2.938 l 4.531,0 0,0.828 -3.578,0 c 0.078,0.563 0.391,0.922 1.219,1.406 l 0.968,0.516 c 0.938,0.516 1.438,1.219 1.438,2.063 z" /><path
         id="path136"
         style="fill:#000000;fill-opacity:1;fill-rule:nonzero;stroke:none"
         d="m 18.836,166.199 2.281,0 0,-0.703 -2.281,0 0,0.703 z" /><path
         id="path138"
         style="fill:#000000;fill-opacity:1;fill-rule:nonzero;stroke:none"
         d="m 24.926,163.199 0,6.797 -0.563,0 c -0.297,-1.047 -0.484,-1.188 -1.781,-1.344 l 0,-0.609 1.5,0 0,-4.844 0.844,0 z" /><path
         id="path140"
         style="fill:#000000;fill-opacity:1;fill-rule:nonzero;stroke:none"
         d="m 27.258,177.664 c 0,2.359 -0.75,3.531 -2.219,3.531 -1.469,0 -2.234,-1.187 -2.234,-3.469 0,-2.297 0.781,-3.468 2.234,-3.468 1.438,0 2.219,1.171 2.219,3.406 z m -0.86,0.078 c 0,-1.922 -0.437,-2.781 -1.375,-2.781 -0.89,0 -1.343,0.89 -1.343,2.75 0,1.875 0.453,2.734 1.359,2.734 0.906,0 1.359,-0.875 1.359,-2.703 z" /><path
         id="path142"
         style="fill:#000000;fill-opacity:1;fill-rule:nonzero;stroke:none"
         d="m 25.727,186.398 0,6.797 -0.563,0 c -0.297,-1.047 -0.484,-1.187 -1.781,-1.344 l 0,-0.609 1.5,0 0,-4.844 0.844,0 z" /><path
         id="path144"
         style="fill:#000000;fill-opacity:1;fill-rule:nonzero;stroke:none"
         d="m 92.762,36.601 0,0.797 -4.703,0 0,-7 0.89,0 0,3.188 3.344,0 0,0.781 -3.344,0 0,2.234 3.813,0 z" /><path
         id="path146"
         style="fill:#000000;fill-opacity:1;fill-rule:nonzero;stroke:none"
         d="m 95.809,34.726 0,0.813 c -0.141,0.015 -0.204,0.031 -0.313,0.031 -0.516,0 -0.906,-0.312 -1.359,-1.062 l 0,0.921 -0.735,0 0,-5.031 0.797,0 0,2.61 c 0,1.125 0.375,1.703 1.61,1.718 z" /><path
         id="path148"
         style="fill:#000000;fill-opacity:1;fill-rule:nonzero;stroke:none"
         d="m 100.762,32.679 c 0,0.735 -0.063,1.188 -0.203,1.563 -0.329,0.828 -1.094,1.328 -2.032,1.328 -1.406,0 -2.297,-1.031 -2.297,-2.687 0,-1.657 0.86,-2.625 2.282,-2.625 1.14,0 1.937,0.656 2.14,1.671 l -0.797,0 c -0.218,-0.671 -0.671,-0.937 -1.312,-0.937 -0.844,0 -1.469,0.531 -1.484,1.687 l 3.703,0 z m -0.86,0.719 0,-0.062 -2.828,0 c 0.078,0.89 0.641,1.5 1.438,1.5 0.797,0 1.39,-0.657 1.39,-1.438 z m 0.344,4 -1.094,0 -0.922,-1.422 0.579,0 1.437,1.422 z" /><path
         id="path150"
         style="fill:#000000;fill-opacity:1;fill-rule:nonzero;stroke:none"
         d="m 105.926,28.304 0,7.125 -0.719,0 0,-0.671 c -0.359,0.531 -0.937,0.812 -1.594,0.812 -1.328,0 -2.187,-1.047 -2.187,-2.719 0,-1.625 0.828,-2.593 2.14,-2.593 0.704,0 1.188,0.25 1.563,0.796 l 0,-2.75 0.797,0 z m -0.797,4.579 c 0,-1.157 -0.563,-1.875 -1.406,-1.875 -0.875,0 -1.469,0.734 -1.469,1.906 0,1.156 0.594,1.906 1.469,1.906 0.859,0 1.406,-0.766 1.406,-1.937 z" /><path
         id="path152"
         style="fill:#000000;fill-opacity:1;fill-rule:nonzero;stroke:none"
         d="m 111.219,30.398 0,5.031 -0.797,0 0,-2.781 c 0,-1.015 -0.531,-1.687 -1.375,-1.687 -0.625,0 -1.031,0.375 -1.031,0.984 l 0,3.484 -0.797,0 0,-3.796 c 0,-0.844 0.625,-1.375 1.593,-1.375 0.75,0 1.219,0.25 1.688,0.921 l 0,-0.781 0.719,0 z" /><path
         id="path154"
         style="fill:#000000;fill-opacity:1;fill-rule:nonzero;stroke:none"
         d="m 116.852,32.679 c 0,0.735 -0.063,1.188 -0.204,1.563 -0.328,0.828 -1.093,1.328 -2.031,1.328 -1.406,0 -2.297,-1.031 -2.297,-2.687 0,-1.657 0.86,-2.625 2.282,-2.625 1.14,0 1.937,0.656 2.14,1.671 l -0.797,0 c -0.218,-0.671 -0.672,-0.937 -1.312,-0.937 -0.844,0 -1.469,0.531 -1.485,1.687 l 3.704,0 z m -0.86,0.719 0,-0.062 -2.828,0 c 0.078,0.89 0.641,1.5 1.438,1.5 0.796,0 1.39,-0.657 1.39,-1.438 z" /><path
         id="path156"
         style="fill:#000000;fill-opacity:1;fill-rule:nonzero;stroke:none"
         d="m 121.938,30.398 0,3.797 c 0,0.844 -0.626,1.375 -1.594,1.375 -0.75,0 -1.219,-0.281 -1.672,-0.984 l 0,0.843 -0.734,0 0,-5.031 0.796,0 0,2.766 c 0,1.031 0.563,1.703 1.375,1.703 0.625,0 1.032,-0.375 1.032,-0.984 l 0,-3.485 0.797,0 z" /><path
         id="path158"
         style="fill:#000000;fill-opacity:1;fill-rule:nonzero;stroke:none"
         d="m 127.184,32.133 -0.813,0 c -0.125,-0.813 -0.547,-1.141 -1.219,-1.141 -0.89,0 -1.422,0.687 -1.422,1.875 0,1.25 0.532,1.969 1.391,1.969 0.672,0 1.094,-0.407 1.203,-1.094 l 0.797,0 c -0.094,1.219 -0.859,1.828 -1.984,1.828 -1.344,0 -2.235,-1.031 -2.235,-2.703 0,-1.625 0.86,-2.609 2.219,-2.609 1.203,0 1.969,0.718 2.063,1.875 z" /><path
         id="path160"
         style="fill:#000000;fill-opacity:1;fill-rule:nonzero;stroke:none"
         d="m 132.328,32.679 c 0,0.735 -0.062,1.188 -0.203,1.563 -0.328,0.828 -1.094,1.328 -2.031,1.328 -1.406,0 -2.297,-1.031 -2.297,-2.687 0,-1.657 0.859,-2.625 2.281,-2.625 1.141,0 1.938,0.656 2.141,1.671 l -0.797,0 c -0.219,-0.671 -0.672,-0.937 -1.313,-0.937 -0.843,0 -1.468,0.531 -1.484,1.687 l 3.703,0 z m -0.859,0.719 0,-0.062 -2.828,0 c 0.078,0.89 0.64,1.5 1.437,1.5 0.797,0 1.391,-0.657 1.391,-1.438 z" /><path
         id="path162"
         style="fill:#000000;fill-opacity:1;fill-rule:nonzero;stroke:none"
         d="m 138.207,28.367 c -0.844,1.375 -1.312,2.984 -1.312,4.516 0,1.531 0.468,3.14 1.312,4.515 l -0.531,0 c -0.953,-1.265 -1.563,-3.015 -1.563,-4.515 0,-1.516 0.61,-3.266 1.563,-4.516 l 0.531,0 z" /><path
         id="path164"
         style="fill:#000000;fill-opacity:1;fill-rule:nonzero;stroke:none"
         d="m 144.809,30.398 0,7 -0.891,0 0,-3.031 -3.594,0 0,3.031 -0.89,0 0,-7 0.89,0 0,3.188 3.594,0 0,-3.188 0.891,0 z" /><path
         id="path166"
         style="fill:#000000;fill-opacity:1;fill-rule:nonzero;stroke:none"
         d="m 149.957,30.398 0,0.703 -3.125,0 2.984,3.61 0,0.718 -3.75,0 0,-0.703 2.797,0 -3,-3.609 0,-0.719 4.094,0 z" /><path
         id="path168"
         style="fill:#000000;fill-opacity:1;fill-rule:nonzero;stroke:none"
         d="m 152.82,32.867 c 0,1.516 -0.593,3.266 -1.562,4.531 l -0.531,0 c 0.843,-1.375 1.312,-2.984 1.312,-4.531 0,-1.516 -0.469,-3.141 -1.312,-4.5 l 0.531,0 c 0.969,1.25 1.562,3 1.562,4.5 z" /></g></g></svg>