<?xml version="1.0" encoding="UTF-8" standalone="no"?>
<svg
   xmlns:dc="http://purl.org/dc/elements/1.1/"
   xmlns:cc="http://creativecommons.org/ns#"
   xmlns:rdf="http://www.w3.org/1999/02/22-rdf-syntax-ns#"
   xmlns:svg="http://www.w3.org/2000/svg"
   xmlns="http://www.w3.org/2000/svg"
   viewBox="0 0 463.99875 253.99876"
   height="253.99876"
   width="463.99875"
   xml:space="preserve"
   version="1.1"
   id="svg2"><metadata
     id="metadata8"><rdf:RDF><cc:Work
         rdf:about=""><dc:format>image/svg+xml</dc:format><dc:type
           rdf:resource="http://purl.org/dc/dcmitype/StillImage" /></cc:Work></rdf:RDF></metadata><defs
     id="defs6" /><g
     transform="matrix(1.25,0,0,-1.25,0,253.99876)"
     id="g10"><g
       id="g12"><path
         id="path14"
         style="fill:#ffffff;fill-opacity:1;fill-rule:evenodd;stroke:none"
         d="m 0,203.199 371.199,0 L 371.199,0 0,0 0,203.199 Z" /><path
         id="path16"
         style="fill:none;stroke:#c0c0c0;stroke-width:0.80000001;stroke-linecap:square;stroke-linejoin:bevel;stroke-miterlimit:4;stroke-dasharray:0.8, 1.6;stroke-dashoffset:0;stroke-opacity:1"
         d="m 122.398,180.801 192,0" /><path
         id="path18"
         style="fill:none;stroke:#c0c0c0;stroke-width:0.80000001;stroke-linecap:square;stroke-linejoin:bevel;stroke-miterlimit:4;stroke-dasharray:0.8, 1.6;stroke-dashoffset:0;stroke-opacity:1"
         d="m 122.398,105.597 192,0" /><path
         id="path20"
         style="fill:none;stroke:#c0c0c0;stroke-width:0.80000001;stroke-linecap:square;stroke-linejoin:bevel;stroke-miterlimit:4;stroke-dasharray:0.8, 1.6;stroke-dashoffset:0;stroke-opacity:1"
         d="m 259.199,191.199 0,-128" /><path
         id="path22"
         style="fill:none;stroke:#000000;stroke-width:0.80000001;stroke-linecap:square;stroke-linejoin:bevel;stroke-miterlimit:4;stroke-dasharray:none;stroke-opacity:1"
         d="m 122.398,67.199 0,-8" /><path
         id="path24"
         style="fill:none;stroke:#000000;stroke-width:0.80000001;stroke-linecap:square;stroke-linejoin:bevel;stroke-miterlimit:4;stroke-dasharray:none;stroke-opacity:1"
         d="m 259.199,67.199 0,-8" /><path
         id="path26"
         style="fill:none;stroke:#000000;stroke-width:0.80000001;stroke-linecap:square;stroke-linejoin:bevel;stroke-miterlimit:4;stroke-dasharray:none;stroke-opacity:1"
         d="m 118.398,105.597 8,0" /><path
         id="path28"
         style="fill:none;stroke:#000000;stroke-width:0.80000001;stroke-linecap:square;stroke-linejoin:bevel;stroke-miterlimit:4;stroke-dasharray:none;stroke-opacity:1"
         d="m 118.398,180.801 8,0" /><path
         id="path30"
         style="fill:none;stroke:#000000;stroke-width:0.80000001;stroke-linecap:square;stroke-linejoin:bevel;stroke-miterlimit:4;stroke-dasharray:none;stroke-opacity:1"
         d="m 122.398,191.199 192,0" /><path
         id="path32"
         style="fill:none;stroke:#000000;stroke-width:0.80000001;stroke-linecap:square;stroke-linejoin:bevel;stroke-miterlimit:4;stroke-dasharray:none;stroke-opacity:1"
         d="m 314.398,191.199 0,-128" /><path
         id="path34"
         style="fill:none;stroke:#000000;stroke-width:0.80000001;stroke-linecap:square;stroke-linejoin:bevel;stroke-miterlimit:4;stroke-dasharray:none;stroke-opacity:1"
         d="m 122.398,63.199 192,0" /><path
         id="path36"
         style="fill:none;stroke:#000000;stroke-width:0.80000001;stroke-linecap:square;stroke-linejoin:bevel;stroke-miterlimit:4;stroke-dasharray:none;stroke-opacity:1"
         d="m 122.398,191.199 0,-128" /><path
         id="path38"
         style="fill:none;stroke:#0000ff;stroke-width:0.80000001;stroke-linecap:square;stroke-linejoin:bevel;stroke-miterlimit:4;stroke-dasharray:none;stroke-opacity:1"
         d="m 136.113,164.176 0.063,0.031 0.066,0.027 0.063,0.031 0.066,0.032 0.063,0.027 0.066,0.031 0.062,0.032 0.067,0.027 0.133,0.062 0.066,0.028 0.133,0.062 0.066,0.028 0.071,0.031 0.066,0.027 0.066,0.031 0.071,0.032 0.07,0.027 0.067,0.031 0.07,0.031 0.07,0.028 0.141,0.062 0.07,0.028 0.07,0.031 0.075,0.031 0.07,0.028 0.07,0.031 0.074,0.027 0.075,0.031 0.07,0.032 0.074,0.027 0.149,0.062 0.074,0.028 0.148,0.062 0.078,0.028 0.075,0.031 0.078,0.031 0.074,0.027 0.078,0.032 0.078,0.027 0.156,0.063 0.079,0.027 0.156,0.062 0.078,0.028 0.082,0.031 0.078,0.031 0.082,0.028 0.082,0.031 0.078,0.031 0.082,0.027 0.082,0.032 0.082,0.027 0.086,0.031 0.082,0.032 0.082,0.027 0.086,0.031 0.082,0.031 0.086,0.028 0.172,0.062 0.086,0.028 0.086,0.031 0.086,0.027 0.086,0.031 0.09,0.032 0.086,0.027 0.179,0.063 0.086,0.027 0.09,0.031 0.09,0.027 0.09,0.032 0.094,0.031 0.089,0.027 0.094,0.032 0.09,0.031 0.094,0.027 0.09,0.031 0.093,0.028 0.188,0.062 0.098,0.028 0.093,0.031 0.098,0.031 0.094,0.027 0.097,0.032 0.098,0.027 0.195,0.063 0.098,0.027 0.195,0.062 0.102,0.028 0.098,0.031 0.101,0.027 0.203,0.063 0.102,0.027 0.101,0.031 0.102,0.028 0.105,0.031 0.102,0.031 0.105,0.028 0.211,0.062 0.106,0.027 0.105,0.032 0.106,0.027 0.109,0.031 0.106,0.032 0.109,0.027 0.109,0.031 0.11,0.027 0.218,0.063 0.11,0.027 0.113,0.032 0.113,0.027 0.11,0.031 0.113,0.031 0.113,0.028 0.114,0.031 0.117,0.027 0.113,0.032 0.117,0.031 0.114,0.027 0.117,0.031 0.117,0.028 0.234,0.062 0.121,0.028 0.118,0.031 0.121,0.027 0.117,0.031 0.121,0.032 0.125,0.027 0.121,0.031 0.121,0.028 0.125,0.031 0.121,0.031 0.125,0.027 0.125,0.032 0.125,0.027 0.125,0.031 0.129,0.032 0.125,0.027 0.129,0.031 0.129,0.028 0.129,0.031 0.129,0.027 0.129,0.031 0.132,0.032 0.129,0.027 0.133,0.031 0.133,0.028 0.266,0.062 0.136,0.027 0.133,0.032 0.137,0.027 0.137,0.031 0.136,0.028 0.274,0.062 0.14,0.027 0.141,0.032 0.137,0.027 0.14,0.031 0.145,0.028 0.281,0.062 0.145,0.027 0.144,0.032 0.145,0.027 0.144,0.031 0.149,0.028 0.144,0.031 0.149,0.027 0.297,0.063 0.148,0.027 0.148,0.031 0.153,0.028 0.152,0.031 0.152,0.027 0.153,0.032 0.152,0.027 0.156,0.031 0.153,0.027 0.312,0.063 0.156,0.027 0.161,0.032 0.156,0.027 0.16,0.031 0.16,0.027 0.16,0.032 0.164,0.027 0.161,0.031 0.164,0.028 0.164,0.031 0.164,0.027 0.164,0.032 0.168,0.027 0.168,0.031 0.164,0.031 0.168,0.028 0.172,0.031 0.168,0.027 0.172,0.032 0.171,0.027 0.172,0.031 0.172,0.027 0.176,0.032 0.176,0.027 0.175,0.031 0.176,0.028 0.176,0.031 0.18,0.027 0.176,0.032 0.179,0.027 0.184,0.031 0.179,0.027 0.184,0.032 0.18,0.027 0.183,0.031 0.188,0.028 0.183,0.031 0.188,0.027 0.187,0.031 0.188,0.028 0.187,0.031 0.192,0.027 0.191,0.032 0.383,0.054 0.195,0.032 0.192,0.027 0.195,0.031 0.195,0.028 0.2,0.031 0.199,0.027 0.195,0.031 0.203,0.028 0.2,0.031 0.203,0.027 0.199,0.032 0.203,0.027 0.207,0.027 0.203,0.032 0.207,0.027 0.207,0.031 0.207,0.027 0.211,0.032 0.211,0.027 0.211,0.031 0.422,0.055 0.215,0.031 0.215,0.028 0.218,0.031 0.215,0.027 0.219,0.031 0.437,0.055 0.223,0.031 0.223,0.028 0.222,0.031 0.223,0.027 0.227,0.028 0.226,0.031 0.227,0.027 0.226,0.031 0.461,0.055 0.231,0.031 0.234,0.028 0.235,0.031 0.468,0.055 0.239,0.031 0.476,0.055 0.238,0.031 0.485,0.055 0.242,0.031 0.246,0.027 0.246,0.031 0.246,0.028 0.25,0.027 0.246,0.031 0.25,0.028 0.254,0.027 0.25,0.031 0.254,0.028 0.258,0.027 0.254,0.031 0.515,0.055 0.262,0.027 0.262,0.032 0.523,0.054 0.266,0.031 0.531,0.055 0.27,0.031 0.539,0.055 0.273,0.027 0.274,0.032 0.273,0.027 0.277,0.027 0.274,0.032 0.281,0.027 0.278,0.027 0.281,0.028 0.281,0.031 0.855,0.082 0.29,0.031 0.285,0.028 0.293,0.027 0.289,0.027 0.293,0.028 0.297,0.031 0.293,0.027 0.296,0.027 0.301,0.028 0.297,0.027 0.301,0.031 0.305,0.028 0.3,0.027 0.309,0.027 0.305,0.028 0.308,0.031 0.309,0.027 0.937,0.082 0.633,0.055 0.316,0.031 0.641,0.055 0.973,0.082 0.656,0.055 0.328,0.031 0.332,0.027 0.336,0.028 0.332,0.027 0.336,0.027 1.02,0.082 1.031,0.082 0.695,0.055 0.703,0.055 1.067,0.082 0.718,0.055 1.09,0.082 0.368,0.027 0.371,0.027 0.367,0.028 0.375,0.027 0.371,0.027 0.375,0.028 0.758,0.054 0.383,0.028 0.378,0.027 0.387,0.027 0.387,0.024 0.387,0.027 1.171,0.082 0.399,0.028 0.394,0.027 0.399,0.023 1.207,0.082 0.406,0.028 0.41,0.027 0.41,0.023 0.411,0.028 0.828,0.054 0.418,0.024 1.265,0.082 0.426,0.023 0.426,0.028 0.859,0.054 0.434,0.024 0.875,0.055 0.437,0.023 0.442,0.027 0.445,0.028 0.445,0.023 0.446,0.027 0.449,0.028 0.453,0.023 0.453,0.028 0.457,0.023 0.914,0.055 0.465,0.023 0.465,0.027 0.465,0.024 0.469,0.027 0.468,0.024 0.473,0.027 0.477,0.023 0.476,0.028 0.481,0.023 0.48,0.028 0.484,0.023 0.489,0.027 0.488,0.024 0.488,0.027 0.492,0.024 0.496,0.027 1,0.047 0.5,0.027 0.504,0.024 0.508,0.023 0.508,0.027 0.512,0.024 0.515,0.023 0.516,0.028 0.516,0.023 0.523,0.023 0.524,0.028 0.523,0.023 0.531,0.024 0.528,0.023 0.535,0.027 0.535,0.024 1.078,0.047 0.543,0.023 0.547,0.028 0.547,0.023 0.55,0.023 1.11,0.047 1.117,0.047 0.566,0.024 0.563,0.023 0.57,0.024 0.571,0.027 0.574,0.023 1.156,0.047 0.582,0.02 1.172,0.047 0.59,0.023 1.187,0.047 0.598,0.023 0.601,0.024 1.211,0.047 0.61,0.019 1.226,0.047 0.618,0.023 0.621,0.02 1.25,0.047 0.629,0.023 0.632,0.02 1.274,0.047 0.64,0.019 0.645,0.024 0.648,0.019 0.649,0.024 0.652,0.023 0.656,0.02 0.661,0.023 0.66,0.02 0.664,0.023 0.668,0.02 0.672,0.023 1.351,0.039 0.68,0.024 0.687,0.019 0.688,0.023 0.687,0.02 1.391,0.039 0.699,0.024 0.703,0.019 1.414,0.039 0.715,0.024 0.715,0.019 0.719,0.02 0.723,0.019 0.726,0.02 1.461,0.039 1.477,0.039 0.742,0.019 0.746,0.02 0.75,0.019 0.754,0.02 1.515,0.039 0.766,0.016 0.766,0.019 1.547,0.039 0.777,0.016 0.781,0.019 0.785,0.02 0.789,0.016 0.793,0.019 0.797,0.02 0.797,0.015 0.805,0.02 0.808,0.015 0.809,0.02 0.816,0.016 0.817,0.019 1.648,0.031 0.832,0.02 0.832,0.015 1.68,0.032 0.844,0.019 1.703,0.031 0.855,0.016 1.727,0.031 1.742,0.032 1.758,0.031 0.433,0.008" /><path
         id="path40"
         style="fill:none;stroke:#ff0000;stroke-width:0.80000001;stroke-linecap:square;stroke-linejoin:bevel;stroke-miterlimit:4;stroke-dasharray:none;stroke-opacity:1"
         d="m 136.113,116.347 0.063,0.004 0.066,0.004 0.063,0.004 0.066,0.004 0.063,0.004 0.066,0 0.062,0.004 0.2,0 0.066,-0.004 0.067,0 0.132,-0.008 0.071,-0.004 0.132,-0.008 0.141,-0.015 0.067,-0.008 0.07,-0.012 0.07,-0.008 0.141,-0.023 0.07,-0.016 0.07,-0.011 0.075,-0.02 0.14,-0.031 0.074,-0.02 0.075,-0.023 0.07,-0.02 0.148,-0.046 0.149,-0.055 0.148,-0.063 0.078,-0.031 0.075,-0.035 0.078,-0.035 0.074,-0.039 0.078,-0.039 0.156,-0.086 0.078,-0.047 0.235,-0.152 0.078,-0.059 0.082,-0.059 0.078,-0.062 0.164,-0.133 0.078,-0.07 0.164,-0.157 0.168,-0.168 0.164,-0.187 0.086,-0.102 0.082,-0.105 0.086,-0.113 0.086,-0.118 0.086,-0.121 0.086,-0.129 0.086,-0.136 0.086,-0.145 0.086,-0.152 0.09,-0.164 0.176,-0.352 0.089,-0.191 0.086,-0.203 0.09,-0.219 0.09,-0.234 0.09,-0.246 0.094,-0.27 0.089,-0.285 0.094,-0.309 0.09,-0.336 0.094,-0.363 0.09,-0.395 0.093,-0.437 0.094,-0.48 0.094,-0.536 0.098,-0.601 0.093,-0.68 0.098,-0.785 0.094,-0.922 0.097,-1.105 0.098,-1.379 0.098,-1.805 0.097,-2.594 0.098,-4.558 0.098,-20.18 0.097,20.91 0.102,4.461 0.098,2.68 0.101,1.937 0.102,1.528 0.101,1.269 0.102,1.086 0.101,0.953 0.102,0.852 0.105,0.773 0.102,0.707 0.105,0.656 0.106,0.61 0.105,0.574 0.106,0.535 0.105,0.512 0.106,0.484 0.109,0.465 0.106,0.442 0.109,0.425 0.109,0.411 0.11,0.394 0.109,0.383 0.109,0.371 0.11,0.355 0.113,0.352 0.223,0.668 0.113,0.32 0.113,0.317 0.114,0.308 0.117,0.301 0.113,0.293 0.117,0.293 0.114,0.281 0.117,0.281 0.117,0.274 0.117,0.269 0.117,0.262 0.121,0.262 0.118,0.258 0.121,0.254 0.117,0.25 0.121,0.246 0.125,0.242 0.121,0.242 0.121,0.234 0.125,0.235 0.121,0.234 0.125,0.227 0.125,0.23 0.25,0.446 0.129,0.218 0.125,0.219 0.129,0.219 0.129,0.215 0.387,0.632 0.132,0.207 0.129,0.204 0.133,0.207 0.133,0.203 0.133,0.199 0.133,0.203 0.136,0.199 0.133,0.196 0.41,0.586 0.137,0.191 0.137,0.195 0.14,0.188 0.141,0.191 0.137,0.188 0.14,0.187 0.145,0.188 0.141,0.187 0.14,0.184 0.578,0.734 0.149,0.18 0.144,0.18 0.446,0.539 0.148,0.175 0.148,0.18 0.457,0.527 0.153,0.172 0.152,0.176 0.156,0.172 0.153,0.176 0.468,0.515 0.161,0.168 0.156,0.172 0.16,0.172 0.32,0.336 0.164,0.172 0.161,0.168 0.492,0.504 0.332,0.332 0.168,0.164 0.164,0.168 0.168,0.164 0.172,0.164 0.168,0.168 0.687,0.656 0.176,0.16 0.351,0.328 0.176,0.161 0.176,0.164 0.18,0.16 0.176,0.164 0.179,0.16 0.184,0.16 0.179,0.16 0.184,0.164 0.18,0.161 0.183,0.16 0.188,0.16 0.183,0.16 0.188,0.16 0.187,0.156 0.375,0.321 0.192,0.156 0.383,0.32 0.191,0.157 0.195,0.16 0.192,0.156 0.195,0.16 0.195,0.156 0.399,0.313 0.195,0.16 0.203,0.156 0.2,0.157 0.203,0.156 0.199,0.156 0.203,0.156 0.207,0.157 0.203,0.156 0.621,0.469 0.633,0.468 0.211,0.153 0.211,0.156 0.43,0.312 0.218,0.153 0.215,0.156 0.219,0.152 0.437,0.313 0.223,0.152 0.223,0.156 0.222,0.153 0.223,0.156 0.453,0.305 0.227,0.156 0.226,0.152 0.231,0.157 0.461,0.304 0.234,0.153 0.235,0.156 0.468,0.305 0.239,0.152 0.238,0.156 0.476,0.305 0.727,0.457 0.246,0.156 0.492,0.305 0.25,0.152 0.246,0.152 0.25,0.153 0.254,0.152 0.25,0.152 0.254,0.153 0.258,0.152 0.254,0.153 0.515,0.304 0.786,0.457 0.261,0.149 0.797,0.457 0.809,0.457 0.273,0.148 0.547,0.305 0.277,0.152 0.274,0.153 0.281,0.148 0.278,0.152 0.562,0.305 0.285,0.148 0.57,0.305 0.29,0.149 0.285,0.152 0.293,0.152 0.289,0.153 0.293,0.148 0.297,0.152 0.293,0.153 0.296,0.148 0.301,0.153 0.297,0.148 0.301,0.152 0.305,0.153 0.3,0.148 0.309,0.152 0.305,0.153 0.308,0.148 0.309,0.153 0.312,0.148 0.313,0.152 0.312,0.149 0.633,0.304 0.316,0.149 0.321,0.152 0.32,0.149 0.324,0.152 0.325,0.148 0.324,0.153 0.328,0.148 0.328,0.153 0.328,0.148 0.332,0.152 0.336,0.149 0.332,0.152 0.336,0.149 0.34,0.152 0.34,0.148 0.34,0.153 0.687,0.297 0.344,0.152 0.348,0.148 0.347,0.153 0.703,0.297 0.356,0.152 0.355,0.148 0.356,0.153 0.718,0.297 0.364,0.152 0.726,0.297 0.368,0.152 0.371,0.149 0.367,0.148 0.375,0.148 0.371,0.153 0.375,0.148 0.758,0.297 0.383,0.152 0.378,0.149 1.161,0.445 0.39,0.153 0.781,0.296 0.399,0.149 0.394,0.148 0.399,0.149 1.207,0.445 0.406,0.148 1.231,0.446 0.828,0.297 0.418,0.144 1.265,0.446 0.426,0.144 0.426,0.148 0.43,0.149 0.429,0.144 0.434,0.149 0.437,0.144 0.438,0.149 0.437,0.144 0.442,0.149 1.336,0.433 0.449,0.149 0.906,0.289 1.371,0.434 0.465,0.14 0.93,0.289 0.469,0.141 0.468,0.144 0.473,0.141 0.477,0.141 0.476,0.144 0.961,0.281 0.484,0.141 0.489,0.141 0.488,0.136 0.488,0.141 0.492,0.137 0.496,0.14 1.5,0.41 0.504,0.133 0.508,0.137 0.508,0.133 0.512,0.137 1.031,0.265 0.516,0.129 0.523,0.133 1.047,0.258 0.531,0.129 0.528,0.129 0.535,0.125 0.535,0.128 0.539,0.125 0.539,0.122 0.543,0.125 1.094,0.242 0.55,0.121 1.11,0.234 0.558,0.117 0.559,0.114 0.566,0.117 0.563,0.109 0.57,0.113 0.571,0.11 0.574,0.109 1.156,0.211 0.582,0.106 1.172,0.203 0.59,0.101 1.187,0.196 0.598,0.093 0.601,0.094 0.606,0.09 0.605,0.094 0.61,0.086 1.226,0.172 0.618,0.085 0.621,0.083 1.25,0.156 0.629,0.078 0.632,0.074 0.637,0.074 0.637,0.071 0.64,0.07 0.645,0.066 1.297,0.133 0.652,0.063 0.656,0.058 0.661,0.063 0.66,0.054 0.664,0.059 0.668,0.055 0.672,0.051 0.675,0.054 0.676,0.047 0.68,0.051 0.687,0.047 0.688,0.043 0.687,0.047 0.696,0.043 0.695,0.039 0.699,0.039 0.703,0.039 0.707,0.039 0.707,0.035 0.715,0.035 0.715,0.031 0.719,0.036 0.723,0.031 0.726,0.027 0.731,0.031 0.73,0.028 0.738,0.027 0.739,0.023 0.742,0.028 0.746,0.023 0.75,0.024 0.754,0.019 0.758,0.024 0.757,0.019 1.532,0.039 0.773,0.016 0.774,0.019 0.777,0.016 0.781,0.016 0.785,0.015 0.789,0.016 0.793,0.016 1.594,0.023 0.805,0.016 1.617,0.023 0.816,0.008 0.817,0.012 0.824,0.011 0.824,0.008 0.832,0.008 0.832,0.012 1.68,0.015 0.844,0.008 1.703,0.016 0.855,0.004 1.727,0.015 0.871,0.004 0.871,0.008 1.758,0.008 0.433,0.004" /><path
         id="path42"
         style="fill:none;stroke:#ff00ff;stroke-width:0.80000001;stroke-linecap:square;stroke-linejoin:bevel;stroke-miterlimit:4;stroke-dasharray:none;stroke-opacity:1"
         d="m 136.113,171.367 0.063,0.027 0.066,0.024 0.063,0.027 0.066,0.024 0.063,0.027 0.066,0.027 0.062,0.024 0.067,0.027 0.066,0.023 0.067,0.028 0.133,0.047 0.066,0.027 0.066,0.023 0.071,0.028 0.066,0.023 0.066,0.028 0.071,0.023 0.07,0.027 0.067,0.024 0.07,0.023 0.07,0.028 0.141,0.046 0.07,0.028 0.07,0.023 0.075,0.024 0.07,0.027 0.07,0.023 0.149,0.047 0.07,0.028 0.223,0.07 0.074,0.027 0.148,0.047 0.078,0.024 0.075,0.023 0.078,0.024 0.074,0.023 0.078,0.027 0.547,0.164 0.082,0.024 0.078,0.023 0.164,0.047 0.078,0.024 0.246,0.07 0.086,0.023 0.082,0.02 0.082,0.023 0.086,0.024 0.082,0.023 0.172,0.047 0.086,0.02 0.258,0.07 0.086,0.019 0.09,0.024 0.086,0.023 0.09,0.02 0.089,0.023 0.086,0.024 0.09,0.019 0.18,0.047 0.094,0.02 0.089,0.023 0.094,0.02 0.09,0.023 0.094,0.02 0.09,0.023 0.093,0.02 0.094,0.023 0.094,0.019 0.098,0.024 0.093,0.019 0.098,0.02 0.094,0.023 0.195,0.039 0.098,0.024 0.195,0.039 0.098,0.023 0.097,0.02 0.102,0.019 0.098,0.02 0.101,0.02 0.102,0.023 0.406,0.078 0.105,0.02 0.102,0.019 0.633,0.117 0.109,0.02 0.106,0.019 0.109,0.016 0.437,0.078 0.11,0.016 0.226,0.039 0.11,0.015 0.226,0.04 0.114,0.015 0.117,0.02 0.113,0.015 0.117,0.02 0.114,0.015 0.117,0.02 0.117,0.016 0.117,0.019 0.117,0.016 0.121,0.015 0.118,0.02 0.121,0.016 0.117,0.015 0.121,0.016 0.125,0.019 0.242,0.032 0.125,0.015 0.121,0.016 0.25,0.031 0.125,0.02 0.125,0.015 0.129,0.012 0.125,0.016 0.645,0.078 0.132,0.011 0.129,0.016 0.266,0.031 0.133,0.012 0.133,0.016 0.136,0.011 0.133,0.016 0.137,0.012 0.137,0.015 0.136,0.012 0.137,0.016 0.137,0.011 0.14,0.016 0.141,0.012 0.137,0.011 0.14,0.012 0.145,0.016 0.281,0.023 0.578,0.047 0.149,0.012 0.144,0.012 0.297,0.023 0.149,0.008 0.296,0.023 0.153,0.008 0.304,0.024 0.153,0.007 0.152,0.012 0.156,0.008 0.153,0.012 0.312,0.015 0.156,0.012 0.161,0.008 0.156,0.008 0.48,0.023 0.164,0.008 0.161,0.008 0.656,0.031 0.168,0.004 0.168,0.008 0.164,0.007 0.168,0.004 0.172,0.008 0.168,0.004 0.172,0.008 0.343,0.008 0.172,0.007 0.879,0.02 0.18,0.004 0.176,0.004 0.179,0 0.184,0.004 0.179,0.004 0.184,0 0.18,0.004 0.371,0 0.183,0.003 1.325,0 0.191,-0.003 0.387,0 0.39,-0.008 0.2,0 0.199,-0.004 0.195,-0.004 0.203,-0.004 0.2,-0.004 0.203,-0.004 0.199,-0.004 0.203,-0.008 0.207,-0.003 0.203,-0.008 0.207,-0.004 0.414,-0.016 0.844,-0.031 0.211,-0.012 0.215,-0.008 0.215,-0.011 0.218,-0.012 0.215,-0.012 0.656,-0.035 0.223,-0.016 0.223,-0.011 0.445,-0.031 0.68,-0.047 0.226,-0.02 0.231,-0.016 0.461,-0.039 0.469,-0.039 0.468,-0.047 0.953,-0.093 0.727,-0.082 0.246,-0.028 0.492,-0.062 0.25,-0.031 0.246,-0.032 0.25,-0.035 0.254,-0.035 0.25,-0.035 0.254,-0.035 0.258,-0.039 0.254,-0.039 0.258,-0.043 0.257,-0.039 0.262,-0.043 0.262,-0.047 0.262,-0.043 0.261,-0.051 0.266,-0.047 0.531,-0.101 0.809,-0.165 0.273,-0.058 0.547,-0.125 0.277,-0.063 0.274,-0.066 0.281,-0.07 0.278,-0.071 0.562,-0.148 0.285,-0.078 0.285,-0.082 0.285,-0.086 0.29,-0.086 0.285,-0.09 0.293,-0.09 0.289,-0.097 0.293,-0.098 0.297,-0.102 0.293,-0.109 0.296,-0.109 0.301,-0.114 0.297,-0.121 0.301,-0.121 0.305,-0.129 0.3,-0.133 0.309,-0.136 0.305,-0.145 0.308,-0.152 0.309,-0.156 0.312,-0.161 0.313,-0.171 0.312,-0.176 0.317,-0.188 0.316,-0.195 0.316,-0.203 0.321,-0.215 0.32,-0.223 0.324,-0.238 0.325,-0.25 0.324,-0.262 0.328,-0.277 0.328,-0.297 0.328,-0.312 0.332,-0.336 0.336,-0.356 0.332,-0.383 0.336,-0.414 0.34,-0.449 0.34,-0.484 0.34,-0.532 0.343,-0.585 0.344,-0.653 0.344,-0.734 0.348,-0.836 0.347,-0.973 0.352,-1.152 0.351,-1.414 0.356,-1.836 0.355,-2.586 0.356,-4.418 0.359,-25.27 0.359,25.047 0.364,4.594 0.363,2.68 0.363,1.902 0.368,1.477 0.371,1.207 0.367,1.019 0.375,0.887 0.371,0.781 0.375,0.699 0.379,0.633 0.379,0.578 0.383,0.532 0.378,0.488 0.387,0.457 0.387,0.426 0.387,0.398 0.39,0.375 0.391,0.352 0.39,0.336 0.399,0.316 0.394,0.301 0.399,0.285 0.402,0.269 0.403,0.262 0.402,0.246 0.406,0.235 0.41,0.226 0.41,0.215 0.411,0.207 0.414,0.199 0.414,0.192 0.418,0.179 0.422,0.176 0.421,0.168 0.422,0.16 0.426,0.157 0.426,0.148 0.43,0.141 0.429,0.136 0.434,0.129 0.437,0.125 0.438,0.121 0.437,0.114 0.442,0.109 0.445,0.105 0.445,0.102 0.446,0.094 0.449,0.094 0.453,0.085 0.453,0.083 0.457,0.078 0.457,0.074 0.457,0.066 0.465,0.067 0.465,0.062 0.465,0.055 0.469,0.055 0.468,0.046 0.473,0.047 0.477,0.039 0.476,0.036 0.481,0.031 0.48,0.027 0.484,0.024 0.489,0.019 0.488,0.016 0.488,0.008 0.492,0.003 0.496,0 0.5,-0.007 0.5,-0.012 0.5,-0.016 0.504,-0.023 0.508,-0.031 0.508,-0.039 0.512,-0.043 0.515,-0.055 0.516,-0.063 0.516,-0.07 0.523,-0.078 0.524,-0.094 0.523,-0.101 0.531,-0.118 0.528,-0.132 0.535,-0.149 0.535,-0.168 0.539,-0.187 0.539,-0.211 0.543,-0.235 0.547,-0.269 0.547,-0.305 0.55,-0.347 0.555,-0.399 0.555,-0.457 0.558,-0.531 0.559,-0.629 0.566,-0.75 0.563,-0.91 0.57,-1.145 0.571,-1.488 0.574,-2.082 0.578,-3.317 0.578,-7.898 0.582,2.598 0.586,6.57 0.586,3.305 0.59,2.246 0.594,1.703 0.593,1.379 0.598,1.148 0.601,0.981 0.606,0.851 0.605,0.746 0.61,0.657 0.613,0.578 0.613,0.515 0.618,0.461 0.621,0.407 0.625,0.363 0.625,0.32 0.629,0.285 0.632,0.258 0.637,0.227 0.637,0.199 0.64,0.18 0.645,0.156 0.648,0.144 0.649,0.125 0.652,0.11 0.656,0.101 0.661,0.086 0.66,0.078 0.664,0.071 0.668,0.066 0.672,0.055 0.675,0.051 0.676,0.043 0.68,0.043 0.687,0.035 1.375,0.062 0.696,0.028 0.695,0.023 0.699,0.019 0.703,0.02 0.707,0.02 0.707,0.015 0.715,0.012 0.715,0.016 0.719,0.011 0.723,0.012 0.726,0.008 0.731,0.011 0.73,0.008 0.738,0.008 0.739,0.004 0.742,0.008 0.746,0.004 0.75,0.008 0.754,0.003 1.515,0.008 1.532,0.008 1.547,0.008 0.777,0 0.781,0.004 0.785,0.004 0.789,0 0.793,0.004 0.797,0 0.797,0.004 1.613,0 0.809,0.003 2.457,0 0.824,0.004 2.504,0 0.84,0.004 5.129,0 0.871,0.004 3.062,0" /><path
         id="path44"
         style="fill:none;stroke:#00ff00;stroke-width:0.80000001;stroke-linecap:square;stroke-linejoin:bevel;stroke-miterlimit:4;stroke-dasharray:none;stroke-opacity:1"
         d="m 136.113,168.824 0.063,0.027 0.066,0.028 0.063,0.031 0.066,0.027 0.063,0.028 0.066,0.027 0.062,0.027 0.067,0.028 0.066,0.031 0.332,0.137 0.071,0.031 0.132,0.055 0.141,0.054 0.067,0.028 0.21,0.082 0.071,0.031 0.14,0.055 0.075,0.027 0.14,0.055 0.149,0.054 0.07,0.028 0.445,0.164 0.078,0.027 0.075,0.027 0.078,0.028 0.074,0.027 0.625,0.219 0.082,0.027 0.078,0.028 0.164,0.054 0.078,0.028 0.246,0.082 0.086,0.023 0.164,0.055 0.086,0.027 0.082,0.027 0.172,0.055 0.086,0.024 0.344,0.109 0.09,0.027 0.086,0.024 0.179,0.054 0.086,0.028 0.09,0.023 0.18,0.055 0.094,0.027 0.089,0.024 0.094,0.027 0.09,0.027 0.094,0.028 0.09,0.023 0.187,0.055 0.094,0.023 0.098,0.028 0.093,0.027 0.098,0.023 0.094,0.028 0.097,0.023 0.196,0.055 0.097,0.023 0.098,0.028 0.098,0.023 0.097,0.027 0.102,0.028 0.098,0.023 0.101,0.027 0.102,0.024 0.101,0.027 0.102,0.024 0.101,0.027 0.102,0.023 0.105,0.028 0.102,0.023 0.105,0.028 0.106,0.023 0.105,0.027 0.211,0.047 0.106,0.028 0.109,0.023 0.106,0.027 0.218,0.047 0.11,0.028 0.218,0.046 0.11,0.028 0.226,0.047 0.11,0.027 0.34,0.07 0.117,0.028 0.113,0.023 0.117,0.024 0.114,0.023 0.117,0.023 0.117,0.028 0.234,0.047 0.121,0.023 0.118,0.024 0.121,0.023 0.117,0.023 0.121,0.024 0.125,0.023 0.121,0.028 0.121,0.023 0.125,0.024 0.121,0.023 0.375,0.07 0.125,0.02 0.129,0.023 0.125,0.024 0.645,0.117 0.132,0.023 0.129,0.02 0.532,0.094 0.136,0.019 0.133,0.024 0.137,0.023 0.137,0.02 0.273,0.046 0.137,0.02 0.281,0.047 0.137,0.019 0.14,0.024 0.145,0.019 0.141,0.024 0.14,0.019 0.145,0.024 0.144,0.019 0.145,0.024 0.144,0.019 0.149,0.024 0.144,0.019 0.149,0.02 0.148,0.023 0.297,0.039 0.148,0.024 0.305,0.039 0.152,0.023 0.305,0.039 0.156,0.02 0.153,0.019 0.156,0.02 0.156,0.023 0.156,0.02 0.161,0.019 0.156,0.02 0.48,0.058 0.164,0.02 0.161,0.019 0.328,0.04 0.164,0.015 0.164,0.02 0.336,0.039 0.164,0.019 0.168,0.016 0.172,0.019 0.168,0.02 0.172,0.02 0.171,0.015 0.172,0.02 0.172,0.015 0.352,0.039 0.175,0.016 0.176,0.02 0.176,0.015 0.18,0.016 0.176,0.019 0.179,0.016 0.184,0.019 0.179,0.016 0.184,0.016 0.18,0.019 0.183,0.016 0.188,0.015 0.183,0.016 0.375,0.031 0.188,0.02 0.187,0.016 0.766,0.062 0.195,0.012 0.192,0.015 0.39,0.032 0.2,0.015 0.199,0.012 0.195,0.016 0.203,0.015 0.2,0.012 0.203,0.016 0.199,0.015 0.203,0.012 0.207,0.016 0.203,0.011 0.207,0.016 0.414,0.023 0.211,0.016 0.844,0.047 0.215,0.012 0.215,0.015 0.218,0.012 0.215,0.008 0.656,0.035 0.446,0.023 0.222,0.008 0.223,0.012 0.227,0.012 0.226,0.007 0.227,0.012 0.226,0.008 0.231,0.012 0.461,0.015 0.234,0.012 0.703,0.023 0.953,0.032 0.485,0.015 0.242,0.004 0.246,0.008 0.246,0.004 0.246,0.008 0.25,0.004 0.246,0.007 0.25,0.004 0.254,0.004 0.25,0.008 0.254,0.004 0.258,0.004 0.254,0.004 0.515,0.008 0.262,0 0.524,0.007 0.261,0 0.266,0.004 0.801,0 0.269,0.004 0.27,0 0.273,-0.004 0.824,0 0.274,-0.004 0.281,0 0.278,-0.004 0.281,-0.003 0.281,0 0.57,-0.008 0.285,-0.008 0.29,-0.004 0.285,-0.004 0.293,-0.008 0.289,-0.008 0.293,-0.003 0.297,-0.008 0.293,-0.008 0.296,-0.008 0.301,-0.012 0.297,-0.007 0.301,-0.012 0.305,-0.012 0.3,-0.008 0.309,-0.015 0.305,-0.012 0.308,-0.012 0.309,-0.015 0.312,-0.012 0.625,-0.031 0.317,-0.02 0.316,-0.015 0.316,-0.02 0.641,-0.039 0.324,-0.02 0.325,-0.023 0.324,-0.02 0.328,-0.023 0.328,-0.027 0.328,-0.024 0.332,-0.027 0.336,-0.027 0.332,-0.028 0.336,-0.031 0.68,-0.063 0.34,-0.035 0.343,-0.031 0.344,-0.039 0.344,-0.035 0.695,-0.078 0.703,-0.086 1.067,-0.141 0.718,-0.101 0.364,-0.055 0.726,-0.117 0.368,-0.059 0.371,-0.066 0.367,-0.063 0.375,-0.07 0.371,-0.07 0.375,-0.075 0.758,-0.156 0.383,-0.086 0.378,-0.086 0.387,-0.09 0.387,-0.093 0.387,-0.098 0.781,-0.211 0.39,-0.113 0.399,-0.117 0.394,-0.122 0.399,-0.128 0.402,-0.133 0.403,-0.141 0.402,-0.148 0.406,-0.153 0.41,-0.164 0.41,-0.172 0.411,-0.179 0.414,-0.188 0.414,-0.203 0.418,-0.211 0.422,-0.222 0.421,-0.239 0.422,-0.254 0.426,-0.269 0.426,-0.285 0.43,-0.309 0.429,-0.332 0.434,-0.355 0.437,-0.383 0.438,-0.418 0.437,-0.453 0.442,-0.5 0.445,-0.555 0.445,-0.617 0.446,-0.692 0.449,-0.793 0.453,-0.921 0.453,-1.09 0.457,-1.336 0.457,-1.711 0.457,-2.375 0.465,-3.848 0.465,-11.09 0.465,8.262 0.469,5.402 0.468,2.938 0.473,2.031 0.477,1.559 0.476,1.265 0.481,1.067 0.48,0.922 0.484,0.808 0.489,0.727 0.488,0.652 0.488,0.594 0.492,0.543 0.496,0.5 0.5,0.465 0.5,0.433 0.5,0.403 0.504,0.375 0.508,0.355 0.508,0.328 0.512,0.313 0.515,0.293 0.516,0.273 0.516,0.262 0.523,0.242 0.524,0.227 0.523,0.214 0.531,0.204 0.528,0.187 0.535,0.176 0.535,0.164 0.539,0.148 0.539,0.141 0.543,0.125 0.547,0.117 0.547,0.102 0.55,0.086 0.555,0.078 0.555,0.058 0.558,0.051 0.559,0.031 0.566,0.012 0.563,0 0.57,-0.027 0.571,-0.047 0.574,-0.07 0.578,-0.106 0.578,-0.137 0.582,-0.183 0.586,-0.235 0.586,-0.296 0.59,-0.379 0.594,-0.489 0.593,-0.636 0.598,-0.844 0.601,-1.16 0.606,-1.699 0.605,-2.778 0.61,-6.23 0.613,-1.172 0.613,8.086 0.618,3.758 0.621,2.5 0.625,1.851 0.625,1.43 0.629,1.121 0.632,0.875 0.637,0.68 0.637,0.523 0.64,0.398 0.645,0.301 0.648,0.231 0.649,0.172 0.652,0.129 0.656,0.097 0.661,0.074 0.66,0.055 0.664,0.043 0.668,0.031 0.672,0.028 1.351,0.031 0.68,0.008 1.375,0.015 0.687,0.004 0.696,0.004 0.695,0 0.699,0.004 39.867,0" /><path
         id="path46"
         style="fill:#000000;fill-opacity:1;fill-rule:nonzero;stroke:none"
         d="m 124.059,52.066 c 0,2.36 -0.75,3.531 -2.219,3.531 -1.469,0 -2.235,-1.187 -2.235,-3.468 0,-2.297 0.782,-3.469 2.235,-3.469 1.437,0 2.219,1.172 2.219,3.406 z m -0.86,0.078 c 0,-1.922 -0.437,-2.781 -1.375,-2.781 -0.89,0 -1.344,0.891 -1.344,2.75 0,1.875 0.454,2.734 1.36,2.734 0.906,0 1.359,-0.875 1.359,-2.703 z" /><path
         id="path48"
         style="fill:#000000;fill-opacity:1;fill-rule:nonzero;stroke:none"
         d="m 252.129,48.801 0,6.796 -0.563,0 c -0.296,-1.046 -0.484,-1.187 -1.781,-1.343 l 0,-0.61 1.5,0 0,-4.843 0.844,0 z" /><path
         id="path50"
         style="fill:#000000;fill-opacity:1;fill-rule:nonzero;stroke:none"
         d="m 259.059,51.082 c 0,0.734 -0.063,1.187 -0.204,1.562 -0.328,0.828 -1.093,1.328 -2.031,1.328 -1.406,0 -2.297,-1.031 -2.297,-2.687 0,-1.656 0.86,-2.625 2.282,-2.625 1.14,0 1.937,0.656 2.14,1.672 l -0.797,0 c -0.218,-0.672 -0.672,-0.938 -1.312,-0.938 -0.844,0 -1.469,0.532 -1.485,1.688 l 3.704,0 z m -0.86,0.719 c 0,0 0,-0.047 0,-0.063 l -2.828,0 c 0.078,0.891 0.641,1.5 1.438,1.5 0.796,0 1.39,-0.656 1.39,-1.437 z" /><path
         id="path52"
         style="fill:#000000;fill-opacity:1;fill-rule:nonzero;stroke:none"
         d="m 264.367,52.363 c 0,2.125 -0.75,3.234 -2.297,3.234 -1.297,0 -2.234,-0.921 -2.234,-2.25 0,-1.265 0.875,-2.125 2.094,-2.125 0.64,0 1.109,0.235 1.562,0.766 -0.015,-1.656 -0.547,-2.578 -1.515,-2.578 -0.594,0 -1.016,0.375 -1.141,1.016 l -0.844,0 c 0.156,-1.11 0.891,-1.766 1.922,-1.766 1.594,0 2.453,1.344 2.453,3.703 z m -0.922,1 c 0,-0.828 -0.593,-1.391 -1.422,-1.391 -0.812,0 -1.312,0.532 -1.312,1.438 0,0.875 0.562,1.453 1.344,1.453 0.797,0 1.39,-0.609 1.39,-1.5 z" /><path
         id="path54"
         style="fill:#000000;fill-opacity:1;fill-rule:nonzero;stroke:none"
         d="m 91.637,103.801 2.281,0 0,-0.703 -2.281,0 0,0.703 z" /><path
         id="path56"
         style="fill:#000000;fill-opacity:1;fill-rule:nonzero;stroke:none"
         d="m 97.727,100.801 0,6.796 -0.563,0 c -0.297,-1.046 -0.484,-1.187 -1.781,-1.343 l 0,-0.61 1.5,0 0,-4.843 0.844,0 z" /><path
         id="path58"
         style="fill:#000000;fill-opacity:1;fill-rule:nonzero;stroke:none"
         d="m 104.594,104.066 c 0,2.36 -0.75,3.531 -2.219,3.531 -1.469,0 -2.234,-1.187 -2.234,-3.468 0,-2.297 0.781,-3.469 2.234,-3.469 1.437,0 2.219,1.172 2.219,3.406 z m -0.86,0.078 c 0,-1.922 -0.437,-2.781 -1.375,-2.781 -0.89,0 -1.343,0.891 -1.343,2.75 0,1.875 0.453,2.734 1.359,2.734 0.906,0 1.359,-0.875 1.359,-2.703 z" /><path
         id="path60"
         style="fill:#000000;fill-opacity:1;fill-rule:nonzero;stroke:none"
         d="m 109.93,104.066 c 0,2.36 -0.75,3.531 -2.219,3.531 -1.469,0 -2.234,-1.187 -2.234,-3.468 0,-2.297 0.781,-3.469 2.234,-3.469 1.437,0 2.219,1.172 2.219,3.406 z m -0.86,0.078 c 0,-1.922 -0.437,-2.781 -1.375,-2.781 -0.89,0 -1.343,0.891 -1.343,2.75 0,1.875 0.453,2.734 1.359,2.734 0.906,0 1.359,-0.875 1.359,-2.703 z" /><path
         id="path62"
         style="fill:#000000;fill-opacity:1;fill-rule:nonzero;stroke:none"
         d="m 114.461,179.265 c 0,2.36 -0.75,3.532 -2.219,3.532 -1.469,0 -2.234,-1.188 -2.234,-3.469 0,-2.297 0.781,-3.469 2.234,-3.469 1.438,0 2.219,1.172 2.219,3.406 z m -0.859,0.079 c 0,-1.922 -0.438,-2.782 -1.375,-2.782 -0.891,0 -1.344,0.891 -1.344,2.75 0,1.875 0.453,2.735 1.359,2.735 0.906,0 1.36,-0.875 1.36,-2.703 z" /><path
         id="path64"
         style="fill:#000000;fill-opacity:1;fill-rule:nonzero;stroke:none"
         d="m 179.961,36.601 0,0.797 -4.703,0 0,-7 0.89,0 0,3.188 3.344,0 0,0.781 -3.344,0 0,2.234 3.813,0 z" /><path
         id="path66"
         style="fill:#000000;fill-opacity:1;fill-rule:nonzero;stroke:none"
         d="m 183.008,34.726 0,0.813 c -0.141,0.015 -0.203,0.031 -0.313,0.031 -0.515,0 -0.906,-0.312 -1.359,-1.062 l 0,0.921 -0.734,0 0,-5.031 0.796,0 0,2.61 c 0,1.125 0.375,1.703 1.61,1.718 z" /><path
         id="path68"
         style="fill:#000000;fill-opacity:1;fill-rule:nonzero;stroke:none"
         d="m 187.961,32.679 c 0,0.735 -0.063,1.188 -0.203,1.563 -0.328,0.828 -1.094,1.328 -2.031,1.328 -1.407,0 -2.297,-1.031 -2.297,-2.687 0,-1.657 0.859,-2.625 2.281,-2.625 1.141,0 1.937,0.656 2.141,1.671 l -0.797,0 c -0.219,-0.671 -0.672,-0.937 -1.313,-0.937 -0.844,0 -1.469,0.531 -1.484,1.687 l 3.703,0 z m -0.859,0.719 c 0,0 0,-0.047 0,-0.062 l -2.829,0 c 0.079,0.89 0.641,1.5 1.438,1.5 0.797,0 1.391,-0.657 1.391,-1.438 z m 0.343,4 -1.093,0 -0.922,-1.422 0.578,0 1.437,1.422 z" /><path
         id="path70"
         style="fill:#000000;fill-opacity:1;fill-rule:nonzero;stroke:none"
         d="m 193.129,28.304 0,7.125 -0.719,0 0,-0.671 c -0.359,0.531 -0.937,0.812 -1.594,0.812 -1.328,0 -2.187,-1.047 -2.187,-2.719 0,-1.625 0.828,-2.593 2.141,-2.593 0.703,0 1.187,0.25 1.562,0.796 l 0,-2.75 0.797,0 z m -0.797,4.579 c 0,-1.157 -0.562,-1.875 -1.406,-1.875 -0.875,0 -1.469,0.734 -1.469,1.906 0,1.156 0.594,1.906 1.469,1.906 0.859,0 1.406,-0.766 1.406,-1.937 z" /><path
         id="path72"
         style="fill:#000000;fill-opacity:1;fill-rule:nonzero;stroke:none"
         d="m 198.418,30.398 0,5.031 -0.797,0 0,-2.781 c 0,-1.015 -0.531,-1.687 -1.375,-1.687 -0.625,0 -1.031,0.375 -1.031,0.984 l 0,3.484 -0.797,0 0,-3.796 c 0,-0.844 0.625,-1.375 1.594,-1.375 0.75,0 1.218,0.25 1.687,0.921 l 0,-0.781 0.719,0 z" /><path
         id="path74"
         style="fill:#000000;fill-opacity:1;fill-rule:nonzero;stroke:none"
         d="m 204.051,32.679 c 0,0.735 -0.063,1.188 -0.203,1.563 -0.328,0.828 -1.094,1.328 -2.032,1.328 -1.406,0 -2.296,-1.031 -2.296,-2.687 0,-1.657 0.859,-2.625 2.281,-2.625 1.14,0 1.937,0.656 2.14,1.671 l -0.796,0 c -0.219,-0.671 -0.672,-0.937 -1.313,-0.937 -0.844,0 -1.469,0.531 -1.484,1.687 l 3.703,0 z m -0.86,0.719 c 0,0 0,-0.047 0,-0.062 l -2.828,0 c 0.078,0.89 0.641,1.5 1.438,1.5 0.797,0 1.39,-0.657 1.39,-1.438 z" /><path
         id="path76"
         style="fill:#000000;fill-opacity:1;fill-rule:nonzero;stroke:none"
         d="m 209.141,30.398 0,3.797 c 0,0.844 -0.625,1.375 -1.594,1.375 -0.75,0 -1.219,-0.281 -1.672,-0.984 l 0,0.843 -0.734,0 0,-5.031 0.797,0 0,2.766 c 0,1.031 0.562,1.703 1.374,1.703 0.626,0 1.032,-0.375 1.032,-0.984 l 0,-3.485 0.797,0 z" /><path
         id="path78"
         style="fill:#000000;fill-opacity:1;fill-rule:nonzero;stroke:none"
         d="m 214.383,32.133 -0.813,0 c -0.125,-0.813 -0.547,-1.141 -1.218,-1.141 -0.891,0 -1.422,0.687 -1.422,1.875 0,1.25 0.531,1.969 1.39,1.969 0.672,0 1.094,-0.407 1.203,-1.094 l 0.797,0 c -0.093,1.219 -0.859,1.828 -1.984,1.828 -1.344,0 -2.234,-1.031 -2.234,-2.703 0,-1.625 0.859,-2.609 2.218,-2.609 1.203,0 1.969,0.718 2.063,1.875 z" /><path
         id="path80"
         style="fill:#000000;fill-opacity:1;fill-rule:nonzero;stroke:none"
         d="m 219.527,32.679 c 0,0.735 -0.062,1.188 -0.203,1.563 -0.328,0.828 -1.094,1.328 -2.031,1.328 -1.406,0 -2.297,-1.031 -2.297,-2.687 0,-1.657 0.859,-2.625 2.281,-2.625 1.141,0 1.938,0.656 2.141,1.671 l -0.797,0 c -0.219,-0.671 -0.672,-0.937 -1.312,-0.937 -0.844,0 -1.469,0.531 -1.485,1.687 l 3.703,0 z m -0.859,0.719 c 0,0 0,-0.047 0,-0.062 l -2.828,0 c 0.078,0.89 0.64,1.5 1.437,1.5 0.797,0 1.391,-0.657 1.391,-1.438 z" /><path
         id="path82"
         style="fill:#000000;fill-opacity:1;fill-rule:nonzero;stroke:none"
         d="m 225.406,28.367 c -0.844,1.375 -1.312,2.984 -1.312,4.516 0,1.531 0.468,3.14 1.312,4.515 l -0.531,0 c -0.953,-1.265 -1.563,-3.015 -1.563,-4.515 0,-1.516 0.61,-3.266 1.563,-4.516 l 0.531,0 z" /><path
         id="path84"
         style="fill:#000000;fill-opacity:1;fill-rule:nonzero;stroke:none"
         d="m 232.008,30.398 0,7 -0.891,0 0,-3.031 -3.594,0 0,3.031 -0.89,0 0,-7 0.89,0 0,3.188 3.594,0 0,-3.188 0.891,0 z" /><path
         id="path86"
         style="fill:#000000;fill-opacity:1;fill-rule:nonzero;stroke:none"
         d="m 237.16,30.398 0,0.703 -3.125,0 2.985,3.61 0,0.718 -3.75,0 0,-0.703 2.796,0 -3,-3.609 0,-0.719 4.094,0 z" /><path
         id="path88"
         style="fill:#000000;fill-opacity:1;fill-rule:nonzero;stroke:none"
         d="m 240.02,32.867 c 0,1.516 -0.594,3.266 -1.563,4.531 l -0.531,0 c 0.844,-1.375 1.312,-2.984 1.312,-4.531 0,-1.516 -0.468,-3.141 -1.312,-4.5 l 0.531,0 c 0.969,1.25 1.563,3 1.563,4.5 z" /><path
         id="path90"
         style="fill:#0000ff;fill-opacity:1;fill-rule:nonzero;stroke:none"
         d="m 83.602,91.582 c -0.844,0 -1.344,-0.391 -1.688,-1.281 -0.297,0.625 -0.828,0.968 -1.531,0.968 -1.016,0 -1.781,-0.75 -1.781,-2.078 l 0,-2.828 7,0 0,3.156 c 0,1.25 -0.844,2.063 -2,2.063 z m -3.094,-1.203 c 0.703,0 1.109,-0.422 1.109,-1.407 l 0,-1.718 -2.219,0 0,1.718 c 0,0.985 0.407,1.407 1.11,1.407 z m 3.109,0.297 c 0.672,0 1.203,-0.407 1.203,-1.25 l 0,-2.172 -2.406,0 0,2.172 c 0,0.843 0.516,1.25 1.203,1.25 z" /><path
         id="path92"
         style="fill:#0000ff;fill-opacity:1;fill-rule:nonzero;stroke:none"
         d="m 83.32,96.926 c -0.734,0 -1.187,-0.063 -1.562,-0.204 -0.828,-0.328 -1.328,-1.093 -1.328,-2.031 0,-1.406 1.031,-2.297 2.687,-2.297 1.656,0 2.625,0.86 2.625,2.282 0,1.14 -0.656,1.937 -1.672,2.14 l 0,-0.797 c 0.672,-0.218 0.938,-0.672 0.938,-1.312 0,-0.844 -0.531,-1.469 -1.688,-1.485 l 0,3.704 z m -0.718,-0.86 c 0,0 0.046,0 0.062,0 l 0,-2.828 c -0.891,0.078 -1.5,0.641 -1.5,1.438 0,0.796 0.656,1.39 1.438,1.39 z" /><path
         id="path94"
         style="fill:#0000ff;fill-opacity:1;fill-rule:nonzero;stroke:none"
         d="m 84.195,101.746 c -0.75,0 -1.125,-0.422 -1.359,-1.422 l -0.188,-0.766 c -0.156,-0.656 -0.359,-0.937 -0.718,-0.937 -0.469,0 -0.766,0.422 -0.766,1.062 0,0.657 0.281,1 0.813,1.016 l 0,0.844 c -0.985,-0.016 -1.547,-0.656 -1.547,-1.828 0,-1.172 0.609,-1.922 1.531,-1.922 0.797,0 1.172,0.406 1.453,1.594 l 0.188,0.75 c 0.125,0.546 0.296,0.765 0.656,0.765 0.469,0 0.75,-0.469 0.75,-1.172 0,-0.718 -0.172,-1.109 -0.938,-1.218 l 0,-0.844 c 1.157,0.031 1.672,0.687 1.672,2 0,1.265 -0.578,2.078 -1.547,2.078 z" /><path
         id="path96"
         style="fill:#0000ff;fill-opacity:1;fill-rule:nonzero;stroke:none"
         d="m 84.195,106.547 c -0.75,0 -1.125,-0.422 -1.359,-1.422 l -0.188,-0.766 c -0.156,-0.656 -0.359,-0.937 -0.718,-0.937 -0.469,0 -0.766,0.422 -0.766,1.062 0,0.656 0.281,1 0.813,1.016 l 0,0.844 c -0.985,-0.016 -1.547,-0.657 -1.547,-1.829 0,-1.171 0.609,-1.921 1.531,-1.921 0.797,0 1.172,0.406 1.453,1.593 l 0.188,0.75 c 0.125,0.547 0.296,0.766 0.656,0.766 0.469,0 0.75,-0.469 0.75,-1.172 0,-0.719 -0.172,-1.109 -0.938,-1.219 l 0,-0.843 c 1.157,0.031 1.672,0.687 1.672,2 0,1.265 -0.578,2.078 -1.547,2.078 z" /><path
         id="path98"
         style="fill:#0000ff;fill-opacity:1;fill-rule:nonzero;stroke:none"
         d="m 83.32,111.863 c -0.734,0 -1.187,-0.062 -1.562,-0.203 -0.828,-0.328 -1.328,-1.094 -1.328,-2.031 0,-1.407 1.031,-2.297 2.687,-2.297 1.656,0 2.625,0.859 2.625,2.281 0,1.141 -0.656,1.938 -1.672,2.141 l 0,-0.797 c 0.672,-0.219 0.938,-0.672 0.938,-1.313 0,-0.843 -0.531,-1.468 -1.688,-1.484 l 0,3.703 z m -0.718,-0.859 c 0,0 0.046,0 0.062,0 l 0,-2.828 c -0.891,0.078 -1.5,0.64 -1.5,1.437 0,0.797 0.656,1.391 1.438,1.391 z" /><path
         id="path100"
         style="fill:#0000ff;fill-opacity:1;fill-rule:nonzero;stroke:none"
         d="m 78.602,113.73 7,0 0,-0.797 -7,0 0,0.797 z" /><path
         id="path102"
         style="fill:#0000ff;fill-opacity:1;fill-rule:nonzero;stroke:none"
         d="m 86.82,119.984 0.484,0 0,-5.766 -0.484,0 0,5.766 z" /><path
         id="path104"
         style="fill:#0000ff;fill-opacity:1;fill-rule:nonzero;stroke:none"
         d="m 85.602,124.523 -7,0 0,-0.797 2.609,0 c -0.516,-0.343 -0.781,-0.875 -0.781,-1.547 0,-1.296 1.015,-2.156 2.609,-2.156 1.703,0 2.703,0.828 2.703,2.188 0,0.687 -0.25,1.172 -0.875,1.593 l 0.735,0 0,0.719 z m -2.5,-0.797 c 1.171,0 1.89,-0.562 1.89,-1.406 0,-0.875 -0.734,-1.469 -1.906,-1.469 -1.172,0 -1.906,0.594 -1.906,1.469 0,0.859 0.765,1.406 1.922,1.406 z" /><path
         id="path106"
         style="fill:#0000ff;fill-opacity:1;fill-rule:nonzero;stroke:none"
         d="m 83.602,131.097 c -0.844,0 -1.344,-0.39 -1.688,-1.281 -0.297,0.625 -0.828,0.969 -1.531,0.969 -1.016,0 -1.781,-0.75 -1.781,-2.078 l 0,-2.828 7,0 0,3.156 c 0,1.25 -0.844,2.062 -2,2.062 z m -3.094,-1.203 c 0.703,0 1.109,-0.422 1.109,-1.406 l 0,-1.719 -2.219,0 0,1.719 c 0,0.984 0.407,1.406 1.11,1.406 z m 3.109,0.297 c 0.672,0 1.203,-0.406 1.203,-1.25 l 0,-2.172 -2.406,0 0,2.172 c 0,0.844 0.516,1.25 1.203,1.25 z" /><path
         id="path108"
         style="fill:#0000ff;fill-opacity:1;fill-rule:nonzero;stroke:none"
         d="m 83.68,137.496 c -0.86,0 -1.5,-0.531 -1.75,-1.484 l -0.469,-1.75 c -0.219,-0.844 -0.5,-1.157 -1.047,-1.157 -0.703,0 -1.234,0.625 -1.234,1.563 0,1.109 0.515,1.75 1.422,1.75 l 0,0.844 c -1.375,0 -2.172,-0.954 -2.172,-2.563 0,-1.531 0.843,-2.484 2.109,-2.484 0.859,0 1.391,0.453 1.641,1.375 l 0.453,1.734 c 0.234,0.875 0.594,1.281 1.14,1.281 0.766,0 1.219,-0.578 1.219,-1.781 0,-1.328 -0.672,-1.969 -1.672,-1.969 l 0,-0.859 c 1.657,0 2.453,1.125 2.453,2.766 0,1.781 -0.843,2.734 -2.093,2.734 z" /><path
         id="path110"
         style="fill:#0000ff;fill-opacity:1;fill-rule:nonzero;stroke:none"
         d="m 85.602,141.277 -6.797,0 0,-0.562 c 1.047,-0.297 1.187,-0.485 1.343,-1.782 l 0.61,0 0,1.5 4.844,0 0,0.844 z" /><path
         id="path112"
         style="fill:#0000ff;fill-opacity:1;fill-rule:nonzero;stroke:none"
         d="m 85.602,146.613 -6.797,0 0,-0.562 c 1.047,-0.297 1.187,-0.485 1.343,-1.782 l 0.61,0 0,1.5 4.844,0 0,0.844 z" /><path
         id="path114"
         style="fill:#ff0000;fill-opacity:1;fill-rule:nonzero;stroke:none"
         d="m 65.199,77.984 c -0.844,0 -1.344,-0.39 -1.687,-1.281 -0.297,0.625 -0.828,0.969 -1.532,0.969 -1.015,0 -1.781,-0.75 -1.781,-2.078 l 0,-2.829 7,0 0,3.157 c 0,1.25 -0.844,2.062 -2,2.062 z m -3.094,-1.203 c 0.704,0 1.11,-0.422 1.11,-1.406 l 0,-1.719 -2.219,0 0,1.719 c 0,0.984 0.406,1.406 1.109,1.406 z m 3.11,0.297 c 0.672,0 1.203,-0.406 1.203,-1.25 l 0,-2.172 -2.406,0 0,2.172 c 0,0.844 0.515,1.25 1.203,1.25 z" /><path
         id="path116"
         style="fill:#ff0000;fill-opacity:1;fill-rule:nonzero;stroke:none"
         d="m 67.199,83.027 -5.031,0 0,-0.797 2.781,0 c 1.016,0 1.688,-0.531 1.688,-1.375 0,-0.625 -0.375,-1.031 -0.985,-1.031 l -3.484,0 0,-0.797 3.797,0 c 0.844,0 1.375,0.625 1.375,1.594 0,0.75 -0.25,1.219 -0.922,1.687 l 0.781,0 0,0.719 z" /><path
         id="path118"
         style="fill:#ff0000;fill-opacity:1;fill-rule:nonzero;stroke:none"
         d="m 67.199,86.176 -0.672,0 c 0.032,-0.11 0.032,-0.235 0.032,-0.391 0,-0.344 -0.094,-0.438 -0.438,-0.438 l -3.297,0 0,0.829 -0.656,0 0,-0.829 -1.375,0 0,-0.796 1.375,0 0,-0.672 0.656,0 0,0.672 3.641,0 c 0.515,0 0.797,0.343 0.797,0.968 0,0.188 -0.016,0.391 -0.063,0.657 z" /><path
         id="path120"
         style="fill:#ff0000;fill-opacity:1;fill-rule:nonzero;stroke:none"
         d="m 67.199,88.847 -0.672,0 c 0.032,-0.109 0.032,-0.234 0.032,-0.39 0,-0.344 -0.094,-0.438 -0.438,-0.438 l -3.297,0 0,0.828 -0.656,0 0,-0.828 -1.375,0 0,-0.797 1.375,0 0,-0.671 0.656,0 0,0.671 3.641,0 c 0.515,0 0.797,0.344 0.797,0.969 0,0.188 -0.016,0.391 -0.063,0.656 z" /><path
         id="path122"
         style="fill:#ff0000;fill-opacity:1;fill-rule:nonzero;stroke:none"
         d="m 64.918,93.855 c -0.734,0 -1.188,-0.062 -1.563,-0.203 -0.828,-0.328 -1.328,-1.094 -1.328,-2.031 0,-1.406 1.032,-2.297 2.688,-2.297 1.656,0 2.625,0.859 2.625,2.281 0,1.141 -0.656,1.938 -1.672,2.141 l 0,-0.797 c 0.672,-0.219 0.937,-0.672 0.937,-1.312 0,-0.844 -0.531,-1.469 -1.687,-1.485 l 0,3.703 z m -0.719,-0.859 c 0,0 0.047,0 0.063,0 l 0,-2.828 c -0.891,0.078 -1.5,0.64 -1.5,1.437 0,0.797 0.656,1.391 1.437,1.391 z" /><path
         id="path124"
         style="fill:#ff0000;fill-opacity:1;fill-rule:nonzero;stroke:none"
         d="m 62.871,97.347 -0.812,0 c -0.016,-0.14 -0.032,-0.203 -0.032,-0.312 0,-0.516 0.313,-0.906 1.063,-1.359 l -0.922,0 0,-0.735 5.031,0 0,0.797 -2.609,0 c -1.125,0 -1.703,0.375 -1.719,1.609 z" /><path
         id="path126"
         style="fill:#ff0000;fill-opacity:1;fill-rule:nonzero;stroke:none"
         d="m 62.168,104.562 0,-0.906 3.922,-1 -3.922,-0.984 0,-0.985 3.922,-0.953 -3.922,-1.031 0,-0.875 5.031,1.453 0,0.906 -3.937,0.969 3.937,1.016 0,0.906 -5.031,1.484 z" /><path
         id="path128"
         style="fill:#ff0000;fill-opacity:1;fill-rule:nonzero;stroke:none"
         d="m 64.73,109.5 c -1.75,0 -2.703,-0.828 -2.703,-2.281 0,-1.407 0.969,-2.266 2.657,-2.266 1.687,0 2.656,0.844 2.656,2.281 0,1.406 -0.969,2.266 -2.61,2.266 z m -0.015,-0.828 c 1.172,0 1.89,-0.563 1.89,-1.438 0,-0.89 -0.703,-1.437 -1.921,-1.437 -1.204,0 -1.922,0.547 -1.922,1.437 0,0.891 0.703,1.438 1.953,1.438 z" /><path
         id="path130"
         style="fill:#ff0000;fill-opacity:1;fill-rule:nonzero;stroke:none"
         d="m 62.871,113.027 -0.812,0 c -0.016,-0.14 -0.032,-0.203 -0.032,-0.312 0,-0.516 0.313,-0.907 1.063,-1.36 l -0.922,0 0,-0.734 5.031,0 0,0.797 -2.609,0 c -1.125,0 -1.703,0.375 -1.719,1.609 z" /><path
         id="path132"
         style="fill:#ff0000;fill-opacity:1;fill-rule:nonzero;stroke:none"
         d="m 67.199,115.879 -0.672,0 c 0.032,-0.11 0.032,-0.235 0.032,-0.391 0,-0.344 -0.094,-0.437 -0.438,-0.437 l -3.297,0 0,0.828 -0.656,0 0,-0.828 -1.375,0 0,-0.797 1.375,0 0,-0.672 0.656,0 0,0.672 3.641,0 c 0.515,0 0.797,0.343 0.797,0.968 0,0.188 -0.016,0.391 -0.063,0.657 z" /><path
         id="path134"
         style="fill:#ff0000;fill-opacity:1;fill-rule:nonzero;stroke:none"
         d="m 67.199,120.699 -3.797,0 c -0.843,0 -1.375,-0.594 -1.375,-1.578 0,-0.703 0.219,-1.141 0.828,-1.609 l -2.656,0 0,-0.797 7,0 0,0.797 -2.765,0 c -1.032,0 -1.704,0.531 -1.704,1.359 0,0.562 0.329,1.031 0.985,1.031 l 3.484,0 0,0.797 z" /><path
         id="path136"
         style="fill:#ff0000;fill-opacity:1;fill-rule:nonzero;stroke:none"
         d="m 68.418,126.929 0.484,0 0,-5.766 -0.484,0 0,5.766 z" /><path
         id="path138"
         style="fill:#ff0000;fill-opacity:1;fill-rule:nonzero;stroke:none"
         d="m 67.199,131.469 -7,0 0,-0.797 2.61,0 c -0.516,-0.344 -0.782,-0.875 -0.782,-1.547 0,-1.297 1.016,-2.156 2.61,-2.156 1.703,0 2.703,0.828 2.703,2.187 0,0.688 -0.25,1.172 -0.875,1.594 l 0.734,0 0,0.719 z m -2.5,-0.797 c 1.172,0 1.891,-0.563 1.891,-1.407 0,-0.875 -0.735,-1.468 -1.906,-1.468 -1.172,0 -1.907,0.593 -1.907,1.468 0,0.86 0.766,1.407 1.922,1.407 z" /><path
         id="path140"
         style="fill:#ff0000;fill-opacity:1;fill-rule:nonzero;stroke:none"
         d="m 65.199,138.043 c -0.844,0 -1.344,-0.391 -1.687,-1.281 -0.297,0.625 -0.828,0.968 -1.532,0.968 -1.015,0 -1.781,-0.75 -1.781,-2.078 l 0,-2.828 7,0 0,3.156 c 0,1.25 -0.844,2.063 -2,2.063 z m -3.094,-1.203 c 0.704,0 1.11,-0.422 1.11,-1.407 l 0,-1.718 -2.219,0 0,1.718 c 0,0.985 0.406,1.407 1.109,1.407 z m 3.11,0.297 c 0.672,0 1.203,-0.407 1.203,-1.25 l 0,-2.172 -2.406,0 0,2.172 c 0,0.843 0.515,1.25 1.203,1.25 z" /><path
         id="path142"
         style="fill:#ff0000;fill-opacity:1;fill-rule:nonzero;stroke:none"
         d="m 65.277,144.441 c -0.859,0 -1.5,-0.531 -1.75,-1.484 l -0.468,-1.75 c -0.219,-0.844 -0.5,-1.156 -1.047,-1.156 -0.703,0 -1.235,0.625 -1.235,1.562 0,1.109 0.516,1.75 1.422,1.75 l 0,0.844 c -1.375,0 -2.172,-0.953 -2.172,-2.563 0,-1.531 0.844,-2.484 2.11,-2.484 0.859,0 1.39,0.453 1.64,1.375 l 0.453,1.734 c 0.235,0.875 0.594,1.282 1.141,1.282 0.766,0 1.219,-0.579 1.219,-1.782 0,-1.328 -0.672,-1.968 -1.672,-1.968 l 0,-0.86 c 1.656,0 2.453,1.125 2.453,2.766 0,1.781 -0.844,2.734 -2.094,2.734 z" /><path
         id="path144"
         style="fill:#ff0000;fill-opacity:1;fill-rule:nonzero;stroke:none"
         d="m 67.199,148.219 -6.797,0 0,-0.563 c 1.047,-0.297 1.188,-0.484 1.344,-1.781 l 0.609,0 0,1.5 4.844,0 0,0.844 z" /><path
         id="path146"
         style="fill:#ff0000;fill-opacity:1;fill-rule:nonzero;stroke:none"
         d="m 67.199,153.558 -6.797,0 0,-0.562 c 1.047,-0.297 1.188,-0.484 1.344,-1.781 l 0.609,0 0,1.5 4.844,0 0,0.843 z" /><path
         id="path148"
         style="fill:#ff00ff;fill-opacity:1;fill-rule:nonzero;stroke:none"
         d="m 42.598,76.086 -0.797,0 0,-5.485 0.797,0 0,2.297 6.203,0 0,0.891 -6.203,0 0,2.297 z" /><path
         id="path150"
         style="fill:#ff00ff;fill-opacity:1;fill-rule:nonzero;stroke:none"
         d="m 47.066,79.988 0,-0.812 c 0.813,-0.125 1.141,-0.547 1.141,-1.219 0,-0.891 -0.687,-1.422 -1.875,-1.422 -1.25,0 -1.969,0.531 -1.969,1.391 0,0.671 0.407,1.093 1.094,1.203 l 0,0.797 c -1.219,-0.094 -1.828,-0.86 -1.828,-1.985 0,-1.344 1.031,-2.234 2.703,-2.234 1.625,0 2.609,0.859 2.609,2.219 0,1.203 -0.718,1.968 -1.875,2.062 z" /><path
         id="path152"
         style="fill:#ff00ff;fill-opacity:1;fill-rule:nonzero;stroke:none"
         d="m 48.801,84.867 -3.797,0 c -0.844,0 -1.375,-0.594 -1.375,-1.578 0,-0.703 0.219,-1.141 0.828,-1.61 l -2.656,0 0,-0.796 7,0 0,0.796 -2.766,0 c -1.031,0 -1.703,0.532 -1.703,1.36 0,0.562 0.328,1.031 0.984,1.031 l 3.485,0 0,0.797 z" /><path
         id="path154"
         style="fill:#ff00ff;fill-opacity:1;fill-rule:nonzero;stroke:none"
         d="m 46.52,90.469 c -0.735,0 -1.188,-0.063 -1.563,-0.204 -0.828,-0.328 -1.328,-1.093 -1.328,-2.031 0,-1.406 1.031,-2.297 2.687,-2.297 1.657,0 2.625,0.86 2.625,2.282 0,1.14 -0.656,1.937 -1.671,2.14 l 0,-0.797 c 0.671,-0.218 0.937,-0.672 0.937,-1.312 0,-0.844 -0.531,-1.469 -1.687,-1.485 l 0,3.704 z m -0.719,-0.86 c 0,0 0.047,0 0.062,0 l 0,-2.828 c -0.89,0.078 -1.5,0.641 -1.5,1.438 0,0.796 0.657,1.39 1.438,1.39 z" /><path
         id="path156"
         style="fill:#ff00ff;fill-opacity:1;fill-rule:nonzero;stroke:none"
         d="m 46.223,95.902 c -1.625,0 -2.594,-0.828 -2.594,-2.14 0,-0.704 0.266,-1.188 0.828,-1.563 l -2.656,0 0,-0.797 7,0 0,0.719 -0.719,0 c 0.578,0.391 0.859,0.891 0.859,1.594 0,1.328 -1.078,2.187 -2.718,2.187 z m 0.062,-0.828 c 1.141,0 1.906,-0.594 1.906,-1.469 0,-0.843 -0.765,-1.406 -1.906,-1.406 -1.172,0 -1.953,0.563 -1.906,1.406 0,0.891 0.781,1.469 1.906,1.469 z" /><path
         id="path158"
         style="fill:#ff00ff;fill-opacity:1;fill-rule:nonzero;stroke:none"
         d="m 43.77,100.668 0,-0.86 3.921,-1.39 -3.921,-1.281 0,-0.86 5.046,1.703 0.797,-0.312 c 0.36,-0.125 0.5,-0.297 0.5,-0.641 0,-0.109 -0.031,-0.25 -0.062,-0.422 l 0.719,0 c 0.078,0.172 0.125,0.328 0.125,0.547 0,0.563 -0.313,1.016 -1.032,1.281 l -6.093,2.235 z" /><path
         id="path160"
         style="fill:#ff00ff;fill-opacity:1;fill-rule:nonzero;stroke:none"
         d="m 47.066,105.273 0,-0.812 c 0.813,-0.125 1.141,-0.547 1.141,-1.219 0,-0.891 -0.687,-1.422 -1.875,-1.422 -1.25,0 -1.969,0.531 -1.969,1.391 0,0.672 0.407,1.093 1.094,1.203 l 0,0.797 c -1.219,-0.094 -1.828,-0.86 -1.828,-1.985 0,-1.343 1.031,-2.234 2.703,-2.234 1.625,0 2.609,0.859 2.609,2.219 0,1.203 -0.718,1.968 -1.875,2.062 z" /><path
         id="path162"
         style="fill:#ff00ff;fill-opacity:1;fill-rule:nonzero;stroke:none"
         d="m 48.801,110.152 -3.797,0 c -0.844,0 -1.375,-0.594 -1.375,-1.578 0,-0.703 0.219,-1.141 0.828,-1.609 l -2.656,0 0,-0.797 7,0 0,0.797 -2.766,0 c -1.031,0 -1.703,0.531 -1.703,1.359 0,0.563 0.328,1.031 0.984,1.031 l 3.485,0 0,0.797 z" /><path
         id="path164"
         style="fill:#ff00ff;fill-opacity:1;fill-rule:nonzero;stroke:none"
         d="m 46.52,115.758 c -0.735,0 -1.188,-0.063 -1.563,-0.204 -0.828,-0.328 -1.328,-1.093 -1.328,-2.031 0,-1.406 1.031,-2.297 2.687,-2.297 1.657,0 2.625,0.86 2.625,2.282 0,1.14 -0.656,1.937 -1.671,2.14 l 0,-0.797 c 0.671,-0.218 0.937,-0.672 0.937,-1.312 0,-0.844 -0.531,-1.469 -1.687,-1.485 l 0,3.704 z m -0.719,-0.86 c 0,0 0.047,0 0.062,0 l 0,-2.828 c -0.89,0.078 -1.5,0.641 -1.5,1.438 0,0.796 0.657,1.39 1.438,1.39 z" /><path
         id="path166"
         style="fill:#ff00ff;fill-opacity:1;fill-rule:nonzero;stroke:none"
         d="m 43.77,120.695 0,-0.891 4.078,-1.421 -4.078,-1.344 0,-0.906 5.031,1.765 0,0.875 -5.031,1.922 z" /><path
         id="path168"
         style="fill:#ff00ff;fill-opacity:1;fill-rule:nonzero;stroke:none"
         d="m 50.02,126.383 0.484,0 0,-5.766 -0.484,0 0,5.766 z" /><path
         id="path170"
         style="fill:#ff00ff;fill-opacity:1;fill-rule:nonzero;stroke:none"
         d="m 48.801,130.926 -7,0 0,-0.797 2.609,0 c -0.515,-0.344 -0.781,-0.875 -0.781,-1.547 0,-1.297 1.016,-2.156 2.609,-2.156 1.703,0 2.703,0.828 2.703,2.187 0,0.688 -0.25,1.172 -0.875,1.594 l 0.735,0 0,0.719 z m -2.5,-0.797 c 1.172,0 1.89,-0.563 1.89,-1.407 0,-0.875 -0.734,-1.468 -1.906,-1.468 -1.172,0 -1.906,0.593 -1.906,1.468 0,0.86 0.766,1.407 1.922,1.407 z" /><path
         id="path172"
         style="fill:#ff00ff;fill-opacity:1;fill-rule:nonzero;stroke:none"
         d="m 46.801,137.496 c -0.844,0 -1.344,-0.391 -1.688,-1.281 -0.297,0.625 -0.828,0.968 -1.531,0.968 -1.016,0 -1.781,-0.75 -1.781,-2.078 l 0,-2.828 7,0 0,3.156 c 0,1.25 -0.844,2.063 -2,2.063 z m -3.094,-1.203 c 0.703,0 1.109,-0.422 1.109,-1.406 l 0,-1.719 -2.218,0 0,1.719 c 0,0.984 0.406,1.406 1.109,1.406 z m 3.109,0.297 c 0.672,0 1.204,-0.407 1.204,-1.25 l 0,-2.172 -2.407,0 0,2.172 c 0,0.843 0.516,1.25 1.203,1.25 z" /><path
         id="path174"
         style="fill:#ff00ff;fill-opacity:1;fill-rule:nonzero;stroke:none"
         d="m 46.879,143.898 c -0.859,0 -1.5,-0.531 -1.75,-1.484 l -0.469,-1.75 c -0.219,-0.844 -0.5,-1.156 -1.047,-1.156 -0.703,0 -1.234,0.625 -1.234,1.562 0,1.109 0.516,1.75 1.422,1.75 l 0,0.844 c -1.375,0 -2.172,-0.953 -2.172,-2.563 0,-1.531 0.844,-2.484 2.109,-2.484 0.86,0 1.391,0.453 1.641,1.375 l 0.453,1.734 c 0.234,0.875 0.594,1.282 1.141,1.282 0.765,0 1.218,-0.579 1.218,-1.782 0,-1.328 -0.671,-1.968 -1.671,-1.968 l 0,-0.86 c 1.656,0 2.453,1.125 2.453,2.766 0,1.781 -0.844,2.734 -2.094,2.734 z" /><path
         id="path176"
         style="fill:#ff00ff;fill-opacity:1;fill-rule:nonzero;stroke:none"
         d="m 48.801,147.676 -6.797,0 0,-0.563 c 1.047,-0.297 1.187,-0.484 1.344,-1.781 l 0.609,0 0,1.5 4.844,0 0,0.844 z" /><path
         id="path178"
         style="fill:#ff00ff;fill-opacity:1;fill-rule:nonzero;stroke:none"
         d="m 48.801,153.015 -6.797,0 0,-0.562 c 1.047,-0.297 1.187,-0.484 1.344,-1.781 l 0.609,0 0,1.5 4.844,0 0,0.843 z" /><path
         id="path180"
         style="fill:#00ff00;fill-opacity:1;fill-rule:nonzero;stroke:none"
         d="m 27.852,93.699 0,-0.922 c 1.312,-0.219 1.937,-0.765 1.937,-1.953 0,-1.391 -1.062,-2.266 -2.812,-2.266 -1.797,0 -2.954,0.844 -2.954,2.188 0,1.094 0.485,1.672 1.547,1.891 l 0,0.906 c -1.531,-0.266 -2.343,-1.156 -2.343,-2.688 0,-2.125 1.718,-3.203 3.75,-3.203 2.046,0 3.593,1.11 3.593,3.156 0,1.719 -0.906,2.672 -2.718,2.891 z" /><path
         id="path182"
         style="fill:#00ff00;fill-opacity:1;fill-rule:nonzero;stroke:none"
         d="m 30.383,99.254 -0.61,0 c 0.016,-0.078 0.016,-0.11 0.016,-0.172 0,-0.266 -0.141,-0.422 -0.391,-0.422 l -2.796,0 c -0.891,0 -1.375,-0.656 -1.375,-1.891 0,-1.218 0.468,-1.968 1.625,-2.015 l 0,0.797 c -0.61,0.078 -0.891,0.437 -0.891,1.187 0,0.719 0.281,1.125 0.75,1.125 l 0.219,0 c 0.328,0 0.468,-0.203 0.547,-0.844 0.156,-1.125 0.187,-1.297 0.312,-1.609 0.234,-0.578 0.688,-0.875 1.297,-0.875 0.922,0 1.453,0.625 1.453,1.641 0,0.656 -0.266,1.265 -0.734,1.718 0.375,0.078 0.656,0.422 0.656,0.813 0,0.172 -0.016,0.297 -0.078,0.547 z m -1.719,-1.391 c 0.719,0 1.172,-0.734 1.172,-1.516 0,-0.609 -0.219,-0.984 -0.766,-0.984 -0.531,0 -0.75,0.359 -0.875,1.219 -0.125,0.844 -0.156,1.015 -0.281,1.281 l 0.75,0 z" /><path
         id="path184"
         style="fill:#00ff00;fill-opacity:1;fill-rule:nonzero;stroke:none"
         d="m 30.398,104.094 -5.031,0 0,-0.797 2.781,0 c 1.016,0 1.688,-0.532 1.688,-1.375 0,-0.625 -0.375,-1.032 -0.984,-1.032 l -3.485,0 0,-0.796 3.797,0 c 0.844,0 1.375,0.625 1.375,1.593 0,0.75 -0.25,1.219 -0.922,1.688 l 0.781,0 0,0.719 z" /><path
         id="path186"
         style="fill:#00ff00;fill-opacity:1;fill-rule:nonzero;stroke:none"
         d="m 28.117,109.726 c -0.734,0 -1.187,-0.062 -1.562,-0.203 -0.828,-0.328 -1.328,-1.094 -1.328,-2.031 0,-1.406 1.031,-2.297 2.687,-2.297 1.656,0 2.625,0.859 2.625,2.281 0,1.141 -0.656,1.938 -1.672,2.141 l 0,-0.797 c 0.672,-0.219 0.938,-0.672 0.938,-1.312 0,-0.844 -0.532,-1.469 -1.688,-1.485 l 0,3.703 z m -0.719,-0.859 c 0,0 0.047,0 0.063,0 l 0,-2.828 c -0.891,0.078 -1.5,0.64 -1.5,1.437 0,0.797 0.656,1.391 1.437,1.391 z" /><path
         id="path188"
         style="fill:#00ff00;fill-opacity:1;fill-rule:nonzero;stroke:none"
         d="m 26.07,113.25 -0.812,0 c -0.016,-0.141 -0.031,-0.203 -0.031,-0.313 0,-0.515 0.312,-0.906 1.062,-1.359 l -0.922,0 0,-0.734 5.031,0 0,0.796 -2.609,0 c -1.125,0 -1.703,0.375 -1.719,1.61 z" /><path
         id="path190"
         style="fill:#00ff00;fill-opacity:1;fill-rule:nonzero;stroke:none"
         d="m 31.617,118.914 0.484,0 0,-5.766 -0.484,0 0,5.766 z" /><path
         id="path192"
         style="fill:#00ff00;fill-opacity:1;fill-rule:nonzero;stroke:none"
         d="m 30.398,123.457 -7,0 0,-0.797 2.61,0 c -0.516,-0.344 -0.781,-0.875 -0.781,-1.547 0,-1.297 1.015,-2.156 2.609,-2.156 1.703,0 2.703,0.828 2.703,2.187 0,0.688 -0.25,1.172 -0.875,1.594 l 0.734,0 0,0.719 z m -2.5,-0.797 c 1.172,0 1.891,-0.563 1.891,-1.406 0,-0.875 -0.734,-1.469 -1.906,-1.469 -1.172,0 -1.906,0.594 -1.906,1.469 0,0.859 0.765,1.406 1.921,1.406 z" /><path
         id="path194"
         style="fill:#00ff00;fill-opacity:1;fill-rule:nonzero;stroke:none"
         d="m 28.398,130.027 c -0.843,0 -1.343,-0.39 -1.687,-1.281 -0.297,0.625 -0.828,0.969 -1.531,0.969 -1.016,0 -1.782,-0.75 -1.782,-2.078 l 0,-2.829 7,0 0,3.157 c 0,1.25 -0.843,2.062 -2,2.062 z m -3.093,-1.203 c 0.703,0 1.109,-0.422 1.109,-1.406 l 0,-1.719 -2.219,0 0,1.719 c 0,0.984 0.407,1.406 1.11,1.406 z m 3.109,0.297 c 0.672,0 1.203,-0.406 1.203,-1.25 l 0,-2.172 -2.406,0 0,2.172 c 0,0.844 0.516,1.25 1.203,1.25 z" /><path
         id="path196"
         style="fill:#00ff00;fill-opacity:1;fill-rule:nonzero;stroke:none"
         d="m 28.477,136.429 c -0.86,0 -1.5,-0.531 -1.75,-1.484 l -0.469,-1.75 c -0.219,-0.844 -0.5,-1.156 -1.047,-1.156 -0.703,0 -1.234,0.625 -1.234,1.562 0,1.11 0.515,1.75 1.421,1.75 l 0,0.844 c -1.375,0 -2.171,-0.953 -2.171,-2.562 0,-1.532 0.843,-2.485 2.109,-2.485 0.859,0 1.391,0.453 1.641,1.375 l 0.453,1.735 c 0.234,0.875 0.593,1.281 1.14,1.281 0.766,0 1.219,-0.578 1.219,-1.781 0,-1.329 -0.672,-1.969 -1.672,-1.969 l 0,-0.86 c 1.656,0 2.453,1.125 2.453,2.766 0,1.781 -0.843,2.734 -2.093,2.734 z" /><path
         id="path198"
         style="fill:#00ff00;fill-opacity:1;fill-rule:nonzero;stroke:none"
         d="m 30.398,140.207 -6.796,0 0,-0.563 c 1.046,-0.297 1.187,-0.484 1.343,-1.781 l 0.61,0 0,1.5 4.843,0 0,0.844 z" /><path
         id="path200"
         style="fill:#00ff00;fill-opacity:1;fill-rule:nonzero;stroke:none"
         d="m 30.398,145.547 -6.796,0 0,-0.563 c 1.046,-0.297 1.187,-0.484 1.343,-1.781 l 0.61,0 0,1.5 4.843,0 0,0.844 z" /></g></g></svg>