<?xml version="1.0" encoding="UTF-8" standalone="no"?>
<svg
   xmlns:dc="http://purl.org/dc/elements/1.1/"
   xmlns:cc="http://creativecommons.org/ns#"
   xmlns:rdf="http://www.w3.org/1999/02/22-rdf-syntax-ns#"
   xmlns:svg="http://www.w3.org/2000/svg"
   xmlns="http://www.w3.org/2000/svg"
   viewBox="0 0 857.0025 413.99875"
   height="413.99875"
   width="857.0025"
   xml:space="preserve"
   version="1.1"
   id="svg2"><metadata
     id="metadata8"><rdf:RDF><cc:Work
         rdf:about=""><dc:format>image/svg+xml</dc:format><dc:type
           rdf:resource="http://purl.org/dc/dcmitype/StillImage" /></cc:Work></rdf:RDF></metadata><defs
     id="defs6" /><g
     transform="matrix(1.25,0,0,-1.25,0,413.99876)"
     id="g10"><g
       id="g12"><path
         id="path14"
         style="fill:#ffffff;fill-opacity:1;fill-rule:evenodd;stroke:none"
         d="m 0,331.199 685.602,0 L 685.602,0 0,0 0,331.199 Z" /><path
         id="path16"
         style="fill:none;stroke:#c0c0c0;stroke-width:0.80000001;stroke-linecap:square;stroke-linejoin:bevel;stroke-miterlimit:4;stroke-dasharray:0.8, 1.6;stroke-dashoffset:0;stroke-opacity:1"
         d="m 115.199,312.801 480,0" /><path
         id="path18"
         style="fill:none;stroke:#c0c0c0;stroke-width:0.80000001;stroke-linecap:square;stroke-linejoin:bevel;stroke-miterlimit:4;stroke-dasharray:0.8, 1.6;stroke-dashoffset:0;stroke-opacity:1"
         d="m 115.199,250.398 480,0" /><path
         id="path20"
         style="fill:none;stroke:#c0c0c0;stroke-width:0.80000001;stroke-linecap:square;stroke-linejoin:bevel;stroke-miterlimit:4;stroke-dasharray:0.8, 1.6;stroke-dashoffset:0;stroke-opacity:1"
         d="m 115.199,188 480,0" /><path
         id="path22"
         style="fill:none;stroke:#c0c0c0;stroke-width:0.80000001;stroke-linecap:square;stroke-linejoin:bevel;stroke-miterlimit:4;stroke-dasharray:0.8, 1.6;stroke-dashoffset:0;stroke-opacity:1"
         d="m 115.199,125.597 480,0" /><path
         id="path24"
         style="fill:none;stroke:#c0c0c0;stroke-width:0.80000001;stroke-linecap:square;stroke-linejoin:bevel;stroke-miterlimit:4;stroke-dasharray:0.8, 1.6;stroke-dashoffset:0;stroke-opacity:1"
         d="m 484.801,319.199 0,-256" /><path
         id="path26"
         style="fill:none;stroke:#000000;stroke-width:0.80000001;stroke-linecap:square;stroke-linejoin:bevel;stroke-miterlimit:4;stroke-dasharray:none;stroke-opacity:1"
         d="m 115.199,67.199 0,-8" /><path
         id="path28"
         style="fill:none;stroke:#000000;stroke-width:0.80000001;stroke-linecap:square;stroke-linejoin:bevel;stroke-miterlimit:4;stroke-dasharray:none;stroke-opacity:1"
         d="m 484.801,67.199 0,-8" /><path
         id="path30"
         style="fill:none;stroke:#000000;stroke-width:0.80000001;stroke-linecap:square;stroke-linejoin:bevel;stroke-miterlimit:4;stroke-dasharray:none;stroke-opacity:1"
         d="m 111.199,63.199 8,0" /><path
         id="path32"
         style="fill:none;stroke:#000000;stroke-width:0.80000001;stroke-linecap:square;stroke-linejoin:bevel;stroke-miterlimit:4;stroke-dasharray:none;stroke-opacity:1"
         d="m 111.199,125.597 8,0" /><path
         id="path34"
         style="fill:none;stroke:#000000;stroke-width:0.80000001;stroke-linecap:square;stroke-linejoin:bevel;stroke-miterlimit:4;stroke-dasharray:none;stroke-opacity:1"
         d="m 111.199,188 8,0" /><path
         id="path36"
         style="fill:none;stroke:#000000;stroke-width:0.80000001;stroke-linecap:square;stroke-linejoin:bevel;stroke-miterlimit:4;stroke-dasharray:none;stroke-opacity:1"
         d="m 111.199,250.398 8,0" /><path
         id="path38"
         style="fill:none;stroke:#000000;stroke-width:0.80000001;stroke-linecap:square;stroke-linejoin:bevel;stroke-miterlimit:4;stroke-dasharray:none;stroke-opacity:1"
         d="m 111.199,312.801 8,0" /><path
         id="path40"
         style="fill:none;stroke:#000000;stroke-width:0.80000001;stroke-linecap:square;stroke-linejoin:bevel;stroke-miterlimit:4;stroke-dasharray:none;stroke-opacity:1"
         d="m 115.199,319.199 480,0" /><path
         id="path42"
         style="fill:none;stroke:#000000;stroke-width:0.80000001;stroke-linecap:square;stroke-linejoin:bevel;stroke-miterlimit:4;stroke-dasharray:none;stroke-opacity:1"
         d="m 595.199,319.199 0,-256" /><path
         id="path44"
         style="fill:none;stroke:#000000;stroke-width:0.80000001;stroke-linecap:square;stroke-linejoin:bevel;stroke-miterlimit:4;stroke-dasharray:none;stroke-opacity:1"
         d="m 115.199,63.199 480,0" /><path
         id="path46"
         style="fill:none;stroke:#000000;stroke-width:0.80000001;stroke-linecap:square;stroke-linejoin:bevel;stroke-miterlimit:4;stroke-dasharray:none;stroke-opacity:1"
         d="m 115.199,319.199 0,-256" /><path
         id="path48"
         style="fill:none;stroke:#0000ff;stroke-width:0.80000001;stroke-linecap:square;stroke-linejoin:bevel;stroke-miterlimit:4;stroke-dasharray:none;stroke-opacity:1"
         d="m 152.125,176.515 0.168,0.25 0.172,0.247 0.344,0.5 0.351,0.5 0.172,0.25 0.18,0.246 0.351,0.5 0.18,0.25 0.18,0.246 0.179,0.25 0.184,0.25 0.18,0.25 0.367,0.5 0.183,0.246 0.188,0.25 0.184,0.25 0.187,0.25 0.187,0.246 0.192,0.25 0.187,0.25 0.383,0.5 0.192,0.246 0.195,0.25 0.191,0.25 0.196,0.25 0.199,0.246 0.195,0.25 0.199,0.25 0.196,0.25 0.203,0.246 0.398,0.5 0.203,0.25 0.204,0.246 0.203,0.25 0.414,0.5 0.207,0.246 0.414,0.5 0.211,0.25 0.211,0.246 0.211,0.25 0.214,0.25 0.215,0.247 0.645,0.75 0.219,0.246 0.218,0.25 0.223,0.25 0.219,0.246 0.668,0.75 0.226,0.246 0.453,0.5 0.227,0.246 0.461,0.5 0.23,0.246 0.235,0.25 0.23,0.25 0.235,0.246 0.238,0.25 0.234,0.246 0.477,0.5 0.242,0.25 0.238,0.246 0.242,0.25 0.247,0.246 0.242,0.25 0.246,0.25 0.992,0.993 0.254,0.25 0.25,0.246 0.508,0.5 0.258,0.246 0.257,0.25 0.258,0.246 0.258,0.25 0.262,0.25 0.261,0.246 0.262,0.25 0.266,0.246 0.265,0.25 0.266,0.246 0.27,0.25 0.269,0.246 0.27,0.25 0.273,0.25 0.273,0.246 0.274,0.25 0.273,0.246 0.278,0.25 0.281,0.247 0.277,0.25 0.282,0.246 0.281,0.25 0.285,0.246 0.281,0.25 0.289,0.246 0.285,0.25 0.29,0.246 0.289,0.25 0.293,0.246 0.292,0.25 0.293,0.246 0.297,0.25 0.293,0.246 0.301,0.25 0.297,0.246 0.301,0.246 0.304,0.25 0.301,0.246 0.305,0.25 0.308,0.247 0.309,0.25 0.617,0.492 0.313,0.25 0.316,0.246 0.313,0.25 0.632,0.492 0.321,0.25 0.324,0.246 0.32,0.246 0.325,0.25 0.324,0.246 0.328,0.246 0.328,0.25 0.328,0.246 0.332,0.247 0.332,0.25 0.672,0.492 0.336,0.25 0.68,0.492 0.343,0.25 0.688,0.492 0.695,0.492 0.352,0.25 0.703,0.493 0.355,0.246 0.36,0.25 0.355,0.246 0.364,0.246 0.359,0.246 0.363,0.246 0.367,0.25 0.735,0.492 1.113,0.738 0.379,0.25 0.375,0.247 0.758,0.492 0.383,0.246 0.386,0.246 0.383,0.246 0.387,0.246 0.781,0.492 1.184,0.739 0.398,0.25 0.402,0.242 0.403,0.25 0.402,0.242 0.406,0.246 0.407,0.25 0.41,0.242 1.242,0.739 0.836,0.492 0.844,0.492 0.851,0.492 0.43,0.246 0.43,0.242 0.433,0.246 0.438,0.247 0.433,0.246 0.442,0.246 0.441,0.242 0.442,0.246 0.89,0.492 0.449,0.242 0.907,0.493 0.914,0.492 0.457,0.242 0.465,0.246 0.46,0.246 0.469,0.242 0.465,0.246 0.473,0.247 0.472,0.242 0.473,0.246 0.477,0.242 0.48,0.246 0.481,0.242 0.968,0.492 0.489,0.243 0.492,0.246 0.492,0.242 0.496,0.246 0.496,0.242 0.5,0.246 0.5,0.242 0.504,0.247 1.016,0.484 0.511,0.246 0.512,0.242 0.516,0.242 0.519,0.247 0.52,0.242 0.523,0.242 0.528,0.246 0.527,0.242 1.062,0.485 0.536,0.246 1.078,0.484 0.543,0.242 0.543,0.246 0.547,0.242 0.55,0.243 1.11,0.484 1.117,0.484 0.562,0.243 1.133,0.484 1.723,0.727 0.578,0.242 1.164,0.484 1.77,0.727 0.597,0.238 1.196,0.484 1.21,0.485 0.61,0.238 0.609,0.242 0.617,0.242 0.618,0.239 1.242,0.484 0.625,0.238 0.629,0.242 0.632,0.239 0.637,0.242 0.637,0.238 0.641,0.242 0.644,0.239 0.645,0.242 0.648,0.238 0.652,0.238 0.657,0.243 0.66,0.238 0.66,0.242 0.664,0.238 0.668,0.239 0.672,0.238 0.672,0.242 1.359,0.477 1.367,0.476 1.383,0.477 0.695,0.238 0.7,0.238 0.703,0.239 1.414,0.476 1.43,0.477 0.718,0.238 0.723,0.238 0.723,0.235 1.461,0.476 0.738,0.239 0.738,0.234 0.742,0.238 0.746,0.235 1.5,0.476 0.758,0.235 0.758,0.238 1.531,0.469 0.77,0.238 0.773,0.234 0.778,0.235 0.781,0.238 0.785,0.234 0.789,0.235 1.586,0.468 0.801,0.239 0.801,0.234 1.617,0.469 1.633,0.469 0.82,0.23 1.656,0.469 0.832,0.234 0.84,0.235 0.84,0.23 0.844,0.234 0.847,0.235 0.856,0.23 0.855,0.235 0.86,0.23 0.863,0.234 0.871,0.231 0.871,0.234 0.875,0.231 1.766,0.461 0.886,0.234 0.895,0.231 1.797,0.46 0.906,0.231 0.91,0.23 1.828,0.461 0.926,0.231 0.926,0.226 0.93,0.231 0.933,0.23 0.942,0.231 0.941,0.226 0.949,0.231 0.949,0.226 0.957,0.231 0.961,0.226 0.969,0.231 0.969,0.226 0.972,0.227 0.981,0.227 0.984,0.226 0.989,0.231 0.992,0.226 0.996,0.227 1,0.226 1.008,0.223 1.011,0.226 1.016,0.227 1.02,0.227 1.027,0.222 1.027,0.227 1.035,0.226 1.04,0.223 1.042,0.227 1.051,0.222 1.055,0.223 1.059,0.226 1.062,0.223 2.141,0.445 1.078,0.223 2.172,0.445 1.093,0.223 1.098,0.219 1.106,0.222 1.109,0.223 1.113,0.219 1.117,0.223 1.125,0.218 1.129,0.223 2.274,0.437 2.297,0.438 1.156,0.219 1.16,0.218 1.168,0.219 1.172,0.219 1.176,0.219 1.183,0.218 1.188,0.215 1.191,0.219 1.199,0.215 1.207,0.215 1.211,0.218 1.215,0.215 1.219,0.215 1.226,0.215 1.235,0.215 1.238,0.215 1.242,0.215 1.25,0.214 1.258,0.211 1.262,0.215 1.265,0.211 1.274,0.215 1.277,0.211 1.285,0.211 1.293,0.211 1.297,0.211 1.301,0.211 1.309,0.211 1.316,0.211 1.32,0.21 1.328,0.207 1.332,0.211 1.34,0.207 1.344,0.211 1.352,0.207 1.359,0.207 1.363,0.207 1.371,0.208 1.379,0.207 1.383,0.207 1.387,0.207 1.398,0.203 1.403,0.207 1.41,0.203 1.414,0.203 1.422,0.203 1.429,0.207 1.434,0.199 1.441,0.204 1.45,0.203 1.457,0.203 1.461,0.199 1.468,0.203 1.473,0.199 1.484,0.2 1.489,0.199 1.496,0.199 1.504,0.199 1.507,0.199 1.52,0.2 1.523,0.195 1.532,0.199 1.535,0.195 1.547,0.196 1.551,0.195 1.558,0.195 1.566,0.196 1.575,0.195 1.582,0.191 1.59,0.196 1.593,0.191 1.606,0.192 1.609,0.191 1.617,0.191 1.625,0.192 1.633,0.187 1.641,0.192 1.648,0.187 1.657,0.192 1.664,0.187 1.671,0.188 1.676,0.187 1.688,0.184 1.695,0.187 1.699,0.184 1.711,0.187 1.719,0.184 1.727,0.183 1.734,0.184 1.738,0.18 1.75,0.183 1.758,0.18 1.77,0.18 1.773,0.179 1.781,0.18 1.789,0.18 1.801,0.179 1.805,0.176 1.816,0.176 1.824,0.18 1.832,0.176 1.844,0.171 1.848,0.176 1.859,0.172 1.863,0.176 1.875,0.172 1.887,0.172 1.891,0.168 1.902,0.171 1.91,0.168 1.918,0.172 1.93,0.168 1.934,0.164 1.945,0.168 1.957,0.164 1.961,0.168 1.972,0.164 1.985,0.164 1.988,0.161 2,0.164 2.012,0.16 2.015,0.16 2.032,0.16 2.035,0.16 2.047,0.157 2.054,0.156 2.067,0.156 2.078,0.156 2.082,0.157 2.098,0.152 2.101,0.152 2.113,0.153 2.126,0.152 2.132,0.148 2.145,0.153 2.152,0.148 2.164,0.145 2.172,0.148 2.184,0.145 2.191,0.144 2.203,0.145 0.918,0.058" /><path
         id="path50"
         style="fill:none;stroke:#ff0000;stroke-width:0.80000001;stroke-linecap:square;stroke-linejoin:bevel;stroke-miterlimit:4;stroke-dasharray:none;stroke-opacity:1"
         d="m 262.688,63.199 0.39,0.73 1.367,2.54 1.383,2.539 0.695,1.269 0.7,1.27 0.703,1.265 1.414,2.539 1.43,2.532 0.718,1.265 0.723,1.27 0.723,1.261 1.461,2.532 0.738,1.265 0.738,1.262 0.742,1.266 0.746,1.265 1.5,2.524 0.758,1.265 0.758,1.262 1.531,2.524 0.77,1.261 0.773,1.262 0.778,1.262 0.781,1.261 0.785,1.258 0.789,1.262 0.793,1.258 0.793,1.261 0.801,1.258 0.801,1.262 1.617,2.516 0.816,1.261 0.817,1.258 0.82,1.258 1.656,2.516 0.832,1.257 0.84,1.254 0.84,1.258 0.844,1.258 0.847,1.258 0.856,1.254 0.855,1.257 0.86,1.254 0.863,1.258 1.742,2.508 0.875,1.258 1.766,2.508 0.886,1.254 0.895,1.253 1.797,2.508 0.906,1.254 0.91,1.254 0.914,1.254 0.914,1.25 1.852,2.508 0.93,1.25 0.933,1.254 1.883,2.5 0.949,1.254 0.949,1.25 0.957,1.25 0.961,1.25 1.938,2.5 0.972,1.25 0.981,1.246 0.984,1.25 0.989,1.25 0.992,1.246 0.996,1.246 1,1.25 1.008,1.246 1.011,1.246 1.016,1.246 1.02,1.246 2.054,2.492 1.035,1.243 1.04,1.246 1.042,1.242 1.051,1.242 1.055,1.242 1.059,1.242 1.062,1.243 1.07,1.238 1.071,1.242 1.078,1.238 2.172,2.477 1.093,1.238 1.098,1.239 1.106,1.234 1.109,1.234 1.113,1.235 1.117,1.234 1.125,1.231 1.129,1.234 1.137,1.23 1.137,1.227 1.148,1.23 1.149,1.227 1.156,1.227 1.16,1.226 1.168,1.223 1.172,1.222 1.176,1.219 1.183,1.219 1.188,1.219 1.191,1.218 1.199,1.215 1.207,1.211 1.211,1.211 1.215,1.211 1.219,1.207 1.226,1.207 1.235,1.203 1.238,1.199 1.242,1.2 1.25,1.195 1.258,1.195 1.262,1.192 1.265,1.187 1.274,1.188 1.277,1.183 1.285,1.18 1.293,1.176 1.297,1.172 1.301,1.172 1.309,1.164 1.316,1.164 1.32,1.16 1.328,1.152 1.332,1.152 1.34,1.145 1.344,1.145 1.352,1.136 1.359,1.129 1.363,1.129 1.371,1.121 1.379,1.117 1.383,1.11 1.387,1.105 1.398,1.098 1.403,1.094 1.41,1.086 1.414,1.082 1.422,1.07 1.429,1.066 1.434,1.059 1.441,1.051 1.45,1.039 1.457,1.035 1.461,1.027 1.468,1.016 1.473,1.008 1.484,1 1.489,0.988 1.496,0.98 1.504,0.973 1.507,0.961 1.52,0.949 1.523,0.938 1.532,0.929 1.535,0.914 1.547,0.907 1.551,0.894 1.558,0.883 1.566,0.871 1.575,0.856 1.582,0.847 1.59,0.832 1.593,0.817 1.606,0.808 1.609,0.793 1.617,0.782 1.625,0.765 1.633,0.75 1.641,0.738 1.648,0.727 1.657,0.711 1.664,0.695 1.671,0.68 1.676,0.668 1.688,0.652 1.695,0.641 1.699,0.625 1.711,0.609 1.719,0.598 1.727,0.578 1.734,0.566 1.738,0.555 1.75,0.539 1.758,0.524 1.77,0.511 1.773,0.496 1.781,0.485 1.789,0.469 1.801,0.453 1.805,0.445 1.816,0.43 1.824,0.414 1.832,0.406 1.844,0.391 1.848,0.379 1.859,0.367 1.863,0.355 1.875,0.344 1.887,0.332 1.891,0.32 1.902,0.309 1.91,0.301 1.918,0.289 1.93,0.281 1.934,0.27 1.945,0.257 1.957,0.25 1.961,0.243 1.972,0.23 1.985,0.227 1.988,0.214 2,0.207 2.012,0.2 2.015,0.191 2.032,0.184 2.035,0.179 2.047,0.168 2.054,0.164 2.067,0.161 2.078,0.148 2.082,0.144 2.098,0.141 2.101,0.133 2.113,0.129 2.126,0.125 2.132,0.117 2.145,0.113 2.152,0.11 2.164,0.101 2.172,0.102 2.184,0.094 2.191,0.093 2.203,0.086 0.918,0.035" /><path
         id="path52"
         style="fill:none;stroke:#ff00ff;stroke-width:0.80000001;stroke-linecap:square;stroke-linejoin:bevel;stroke-miterlimit:4;stroke-dasharray:none;stroke-opacity:1"
         d="m 152.125,236.508 0.168,0.214 0.172,0.215 0.172,0.211 0.172,0.215 0.175,0.211 0.176,0.215 0.172,0.211 0.18,0.215 0.351,0.422 0.539,0.632 0.184,0.211 0.18,0.207 0.183,0.211 0.184,0.207 0.183,0.211 0.188,0.207 0.184,0.211 0.374,0.414 0.192,0.207 0.187,0.207 0.192,0.207 0.191,0.203 0.192,0.207 0.195,0.208 0.191,0.203 0.196,0.203 0.199,0.203 0.195,0.207 0.199,0.203 0.196,0.199 0.203,0.203 0.398,0.407 0.203,0.199 0.204,0.203 0.203,0.199 1.035,0.996 0.211,0.2 0.211,0.195 0.211,0.199 1.074,0.977 0.437,0.39 0.223,0.192 0.219,0.195 0.668,0.574 0.453,0.383 0.226,0.187 0.227,0.192 0.23,0.187 0.231,0.192 0.23,0.187 0.235,0.188 0.23,0.187 0.235,0.188 0.238,0.183 0.234,0.188 0.477,0.367 0.242,0.184 0.238,0.183 0.242,0.184 0.247,0.183 0.242,0.18 0.246,0.184 0.246,0.179 0.25,0.18 0.246,0.18 0.25,0.179 0.254,0.18 0.25,0.176 0.254,0.18 0.254,0.175 0.773,0.528 0.258,0.172 0.262,0.175 0.523,0.344 0.797,0.516 0.539,0.336 0.27,0.172 0.546,0.336 0.274,0.164 0.273,0.168 0.278,0.164 0.281,0.164 0.277,0.164 0.563,0.328 0.285,0.16 0.281,0.16 0.289,0.164 0.285,0.157 0.579,0.32 0.878,0.469 0.297,0.156 0.293,0.156 0.301,0.152 0.297,0.153 0.301,0.152 0.304,0.152 0.301,0.153 0.305,0.148 0.308,0.149 0.309,0.152 0.309,0.145 0.308,0.148 0.313,0.145 0.316,0.148 0.313,0.144 0.316,0.141 0.316,0.145 0.321,0.14 0.324,0.141 0.32,0.141 0.325,0.14 0.324,0.137 0.328,0.14 0.656,0.274 0.664,0.266 0.336,0.136 0.336,0.129 0.336,0.133 0.34,0.129 0.34,0.133 0.343,0.125 0.688,0.258 0.695,0.25 0.352,0.121 0.351,0.125 0.352,0.121 0.355,0.121 0.36,0.117 0.355,0.121 0.364,0.117 0.359,0.117 0.363,0.114 1.102,0.34 0.371,0.113 0.742,0.219 0.379,0.105 0.375,0.109 0.379,0.106 0.379,0.101 0.383,0.106 0.386,0.102 0.383,0.101 0.387,0.098 0.781,0.195 0.395,0.098 0.789,0.187 0.398,0.094 1.207,0.269 0.813,0.172 0.41,0.082 0.414,0.086 0.414,0.082 0.414,0.078 0.836,0.157 0.422,0.078 0.422,0.074 0.425,0.074 0.426,0.071 0.43,0.07 0.43,0.066 0.433,0.071 0.438,0.062 0.433,0.067 0.442,0.062 0.441,0.059 0.442,0.062 0.445,0.055 0.445,0.058 0.449,0.055 0.907,0.102 0.457,0.05 0.914,0.094 0.465,0.043 0.46,0.043 0.469,0.039 0.465,0.039 0.945,0.071 0.473,0.031 0.477,0.031 0.961,0.055 0.484,0.027 0.484,0.02 0.489,0.023 0.984,0.031 0.496,0.016 0.496,0.012 1,0.015 0.504,0.004 0.508,0.004 0.508,0 1.023,-0.008 0.516,-0.008 0.519,-0.007 0.52,-0.012 0.523,-0.016 1.055,-0.039 0.531,-0.023 0.531,-0.028 0.536,-0.027 0.539,-0.031 0.539,-0.035 1.086,-0.078 0.547,-0.043 0.55,-0.051 0.555,-0.047 0.555,-0.055 1.117,-0.117 0.562,-0.066 0.567,-0.067 0.566,-0.07 0.574,-0.074 0.575,-0.078 0.574,-0.082 0.578,-0.09 0.582,-0.09 0.582,-0.094 0.59,-0.097 0.59,-0.102 0.59,-0.109 0.597,-0.11 0.598,-0.117 0.598,-0.121 0.605,-0.125 0.605,-0.129 0.61,-0.137 0.609,-0.14 0.617,-0.145 0.618,-0.152 0.621,-0.156 0.621,-0.161 0.625,-0.168 0.629,-0.171 0.632,-0.18 0.637,-0.184 0.637,-0.191 0.641,-0.199 0.644,-0.203 0.645,-0.215 0.648,-0.215 0.652,-0.227 0.657,-0.234 0.66,-0.238 0.66,-0.246 0.664,-0.258 0.668,-0.262 0.672,-0.273 0.672,-0.282 0.679,-0.289 0.68,-0.297 0.684,-0.308 0.683,-0.317 0.692,-0.328 0.691,-0.34 0.695,-0.347 0.7,-0.36 0.703,-0.371 0.707,-0.379 0.707,-0.394 0.715,-0.406 0.715,-0.418 0.718,-0.434 0.723,-0.445 0.723,-0.461 0.73,-0.473 0.731,-0.488 0.738,-0.504 0.738,-0.524 0.742,-0.539 0.746,-0.554 0.75,-0.571 0.75,-0.593 0.758,-0.61 0.758,-0.633 0.766,-0.652 0.765,-0.676 0.77,-0.699 0.773,-0.719 0.778,-0.746 0.781,-0.773 0.785,-0.797 0.789,-0.828 0.793,-0.86 0.793,-0.886 0.801,-0.922 0.801,-0.953 0.808,-0.992 0.809,-1.028 0.816,-1.066 0.817,-1.113 0.82,-1.153 0.828,-1.203 0.828,-1.25 0.832,-1.301 0.84,-1.359 0.84,-1.418 0.844,-1.484 0.847,-1.547 0.856,-1.621 0.855,-1.704 0.86,-1.781 0.863,-1.875 0.871,-1.972 0.871,-2.079 0.875,-2.195 0.883,-2.324 0.883,-2.461 0.886,-2.621 0.895,-2.789 0.898,-2.981 0.899,-3.203 0.906,-3.445 0.91,-3.727 0.914,-4.054 0.914,-4.438 0.926,-4.89 0.926,-5.442 0.93,-6.117 0.933,-6.977 0.942,-8.093 0.941,-9.618 0.949,-11.82 0.949,-15.289 0.957,-21.59 0.762,-29.074" /><path
         id="path54"
         style="fill:none;stroke:#ff00ff;stroke-width:0.80000001;stroke-linecap:square;stroke-linejoin:bevel;stroke-miterlimit:4;stroke-dasharray:none;stroke-opacity:1"
         d="m 326.336,63.199 0.726,28.707 0.981,22.348 0.984,15.859 0.989,12.313 0.992,10.07 0.996,8.519 1,7.387 1.008,6.52 1.011,5.832 1.016,5.277 1.02,4.813 1.027,4.425 1.027,4.09 1.035,3.801 1.04,3.551 1.042,3.328 1.051,3.125 1.055,2.949 1.059,2.785 1.062,2.641 1.07,2.504 1.071,2.379 1.078,2.269 1.086,2.16 1.086,2.063 1.093,1.969 1.098,1.882 1.106,1.801 1.109,1.727 1.113,1.652 1.117,1.586 1.125,1.52 1.129,1.457 1.137,1.398 1.137,1.344 1.148,1.285 1.149,1.234 1.156,1.184 1.16,1.137 1.168,1.089 1.172,1.043 1.176,1 1.183,0.957 1.188,0.915 1.191,0.875 1.199,0.835 1.207,0.797 1.211,0.758 1.215,0.723 1.219,0.687 1.226,0.649 1.235,0.613 1.238,0.578 1.242,0.547 1.25,0.508 1.258,0.476 1.262,0.442 1.265,0.402 1.274,0.375 1.277,0.336 1.285,0.301 1.293,0.266 1.297,0.23 1.301,0.191 1.309,0.157 1.316,0.113 1.32,0.078 1.328,0.035 1.332,-0.008 1.34,-0.054 1.344,-0.098 1.352,-0.148 1.359,-0.2 1.363,-0.254 1.371,-0.312 1.379,-0.375 1.383,-0.441 1.387,-0.512 1.398,-0.59 1.403,-0.676 1.41,-0.765 1.414,-0.864 1.422,-0.976 1.429,-1.102 1.434,-1.234 1.441,-1.391 1.45,-1.558 1.457,-1.758 1.461,-1.981 1.468,-2.242 1.473,-2.539 1.484,-2.894 1.489,-3.313 1.496,-3.824 1.504,-4.449 1.507,-5.231 1.52,-6.25 1.523,-7.609 1.532,-9.524 1.535,-12.429 1.547,-17.356 1.551,-27.683 1.558,-65.875 1.566,21.66 1.575,54.828 1.582,27.555 1.59,18.718 1.593,14.235 1.606,11.476 1.609,9.586 1.617,8.192 1.625,7.097 1.633,6.215 1.641,5.473 1.648,4.847 1.657,4.297 1.664,3.821 1.671,3.398 1.676,3.023 1.688,2.688 1.695,2.391 1.699,2.121 1.711,1.89 1.719,1.676 1.727,1.492 1.734,1.324 1.738,1.176 1.75,1.047 1.758,0.93 1.77,0.828 1.773,0.738 1.781,0.656 1.789,0.586 1.801,0.524 1.805,0.469 1.816,0.421 1.824,0.375 1.832,0.336 1.844,0.305 1.848,0.27 1.859,0.246 1.863,0.218 1.875,0.2 1.887,0.179 1.891,0.164 1.902,0.149 1.91,0.133 1.918,0.121 1.93,0.109 1.934,0.098 1.945,0.094 1.957,0.082 1.961,0.074 1.972,0.07 1.985,0.063 1.988,0.054 2,0.055 2.012,0.047 2.015,0.047 2.032,0.039 2.035,0.035 2.047,0.035 2.054,0.031 2.067,0.032 2.078,0.023 2.082,0.027 2.098,0.02 2.101,0.023 2.113,0.02 2.126,0.016 2.132,0.015 2.145,0.016 2.152,0.015 2.164,0.012 2.172,0.012 2.184,0.012 2.191,0.011 2.203,0.008 0.918,0.004" /><path
         id="path56"
         style="fill:none;stroke:#00ff00;stroke-width:0.80000001;stroke-linecap:square;stroke-linejoin:bevel;stroke-miterlimit:4;stroke-dasharray:none;stroke-opacity:1"
         d="m 152.125,215.285 0.168,0.234 0.516,0.703 0.351,0.469 0.172,0.235 0.18,0.234 0.176,0.234 0.175,0.231 0.539,0.703 0.184,0.23 0.18,0.235 0.183,0.23 0.184,0.235 0.183,0.23 0.188,0.234 0.184,0.231 0.187,0.23 0.187,0.235 0.192,0.23 0.187,0.231 0.575,0.691 0.195,0.231 0.191,0.23 0.196,0.231 0.199,0.23 0.195,0.23 0.199,0.231 0.196,0.23 0.203,0.227 0.398,0.461 0.203,0.226 0.204,0.231 0.203,0.226 0.207,0.231 0.414,0.453 0.207,0.231 0.207,0.226 0.633,0.68 1.074,1.133 0.219,0.222 0.218,0.227 0.223,0.226 0.219,0.223 0.222,0.227 0.223,0.222 0.223,0.227 0.453,0.445 0.226,0.227 0.227,0.222 0.691,0.668 0.235,0.223 0.23,0.223 0.235,0.218 0.238,0.223 0.234,0.223 0.239,0.218 0.238,0.223 0.242,0.223 0.238,0.219 0.242,0.218 0.247,0.223 0.242,0.219 0.492,0.437 0.25,0.219 0.246,0.219 0.25,0.218 0.254,0.219 0.25,0.215 0.508,0.438 0.258,0.214 0.257,0.219 0.516,0.43 0.262,0.215 0.261,0.218 0.262,0.211 0.266,0.219 0.265,0.211 0.266,0.215 0.539,0.43 0.27,0.21 0.273,0.215 0.547,0.422 0.273,0.215 0.278,0.211 0.281,0.211 0.277,0.211 0.563,0.422 0.285,0.207 0.281,0.211 0.289,0.207 0.285,0.211 0.579,0.414 0.293,0.211 0.585,0.414 0.297,0.207 0.293,0.203 0.301,0.207 0.297,0.207 0.301,0.203 0.304,0.207 0.301,0.203 0.305,0.203 1.234,0.813 0.313,0.203 0.316,0.199 0.313,0.203 0.632,0.399 0.321,0.203 0.324,0.199 0.32,0.199 0.325,0.196 0.324,0.199 0.328,0.199 0.328,0.195 0.328,0.2 0.664,0.39 1.008,0.586 0.34,0.192 0.34,0.195 0.343,0.191 0.344,0.196 0.344,0.191 0.695,0.383 0.352,0.191 0.351,0.188 0.352,0.191 0.355,0.188 0.36,0.187 0.355,0.188 0.364,0.191 0.359,0.184 0.363,0.187 0.367,0.188 0.735,0.367 0.371,0.187 0.742,0.368 0.379,0.179 0.375,0.184 0.379,0.179 0.379,0.184 0.383,0.18 0.386,0.179 0.383,0.18 0.387,0.176 0.39,0.18 0.391,0.175 0.395,0.176 0.394,0.18 0.395,0.172 0.398,0.176 0.402,0.175 0.805,0.344 0.406,0.176 0.407,0.168 0.41,0.172 0.414,0.172 0.828,0.335 0.836,0.336 0.844,0.336 0.851,0.328 0.86,0.329 0.433,0.164 0.438,0.16 0.433,0.16 1.325,0.48 0.89,0.313 0.449,0.156 0.907,0.313 0.457,0.152 0.457,0.156 0.457,0.153 0.465,0.148 0.46,0.152 0.469,0.149 0.465,0.152 0.473,0.149 0.472,0.144 0.473,0.149 0.477,0.144 0.961,0.289 0.484,0.145 0.484,0.14 0.489,0.141 0.984,0.281 0.992,0.274 1,0.273 0.504,0.133 1.016,0.266 0.511,0.132 0.512,0.129 0.516,0.129 1.039,0.258 0.523,0.125 1.055,0.25 1.062,0.242 0.536,0.121 0.539,0.121 0.539,0.118 1.086,0.234 0.547,0.113 0.55,0.113 1.11,0.227 1.117,0.219 0.562,0.105 1.133,0.211 0.574,0.106 1.149,0.203 0.578,0.097 1.164,0.196 0.59,0.097 0.59,0.094 0.59,0.09 0.597,0.094 0.598,0.09 0.598,0.086 1.21,0.171 0.61,0.086 0.609,0.082 1.235,0.157 0.621,0.078 0.621,0.074 0.625,0.074 0.629,0.074 0.632,0.071 1.274,0.133 0.641,0.066 1.289,0.125 0.648,0.059 0.652,0.058 0.657,0.055 0.66,0.055 0.66,0.05 0.664,0.051 0.668,0.047 0.672,0.043 0.672,0.047 1.359,0.078 1.367,0.07 1.383,0.063 0.695,0.027 0.7,0.024 0.703,0.023 1.414,0.039 0.715,0.012 0.715,0.015 0.718,0.008 0.723,0.008 0.723,0.004 0.73,0 0.731,-0.004 0.738,-0.004 0.738,-0.008 0.742,-0.011 0.746,-0.016 0.75,-0.016 0.75,-0.019 1.516,-0.055 0.766,-0.031 0.765,-0.035 0.77,-0.035 0.773,-0.043 0.778,-0.047 0.781,-0.051 0.785,-0.051 0.789,-0.058 0.793,-0.063 0.793,-0.066 0.801,-0.071 0.801,-0.078 0.808,-0.078 0.809,-0.086 0.816,-0.09 0.817,-0.093 0.82,-0.102 0.828,-0.106 0.828,-0.109 0.832,-0.113 1.68,-0.25 0.844,-0.133 0.847,-0.141 0.856,-0.144 0.855,-0.152 0.86,-0.161 0.863,-0.168 0.871,-0.171 0.871,-0.18 0.875,-0.188 0.883,-0.195 0.883,-0.203 0.886,-0.215 0.895,-0.219 0.898,-0.23 0.899,-0.238 0.906,-0.247 0.91,-0.257 0.914,-0.266 0.914,-0.281 0.926,-0.285 0.926,-0.301 0.93,-0.313 0.933,-0.32 0.942,-0.336 0.941,-0.351 0.949,-0.36 0.949,-0.375 0.957,-0.39 0.961,-0.407 0.969,-0.418 0.969,-0.437 0.972,-0.453 0.981,-0.473 0.984,-0.488 0.989,-0.508 0.992,-0.527 0.996,-0.551 1,-0.571 1.008,-0.593 1.011,-0.617 1.016,-0.641 1.02,-0.668 1.027,-0.699 1.027,-0.723 1.035,-0.758 1.04,-0.785 1.042,-0.82 1.051,-0.86 1.055,-0.894 1.059,-0.934 1.062,-0.972 1.07,-1.02 1.071,-1.07 1.078,-1.117 1.086,-1.172 1.086,-1.227 1.093,-1.293 1.098,-1.355 1.106,-1.426 1.109,-1.5 1.113,-1.582 1.117,-1.672 1.125,-1.766 1.129,-1.871 1.137,-1.98 1.137,-2.11 1.148,-2.246 1.149,-2.398 1.156,-2.563 1.16,-2.753 1.168,-2.965 1.172,-3.211 1.176,-3.481 1.183,-3.8 1.188,-4.168 1.191,-4.614 1.199,-5.14 1.207,-5.793 1.211,-6.61 1.215,-7.668 1.219,-9.101 1.226,-11.137 1.235,-14.281 1.238,-19.793 1.242,-32.106 0.219,-16.152" /><path
         id="path58"
         style="fill:none;stroke:#00ff00;stroke-width:0.80000001;stroke-linecap:square;stroke-linejoin:bevel;stroke-miterlimit:4;stroke-dasharray:none;stroke-opacity:1"
         d="m 388.41,63.199 1.055,37.625 1.265,24.484 1.274,16.957 1.277,13.004 1.285,10.559 1.293,8.894 1.297,7.684 1.301,6.762 1.309,6.031 1.316,5.445 1.32,4.953 1.328,4.54 1.332,4.183 1.34,3.875 1.344,3.606 1.352,3.359 1.359,3.141 1.363,2.941 1.371,2.762 1.379,2.593 1.383,2.442 1.387,2.293 1.398,2.16 1.403,2.031 1.41,1.906 1.414,1.793 1.422,1.68 1.429,1.57 1.434,1.465 1.441,1.36 1.45,1.257 1.457,1.157 1.461,1.054 1.468,0.954 1.473,0.847 1.484,0.742 1.489,0.629 1.496,0.516 1.504,0.394 1.507,0.266 1.52,0.121 1.523,-0.031 1.532,-0.199 1.535,-0.391 1.547,-0.613 1.551,-0.863 1.558,-1.157 1.566,-1.515 1.575,-1.946 1.582,-2.484 1.59,-3.172 1.593,-4.074 1.606,-5.297 1.609,-7.039 1.617,-9.691 1.625,-14.157 1.633,-23.179 1.641,-51.965 1.648,-9.766 1.657,67.449 1.664,31.332 1.671,20.856 1.676,15.453 1.688,11.93 1.695,9.336 1.699,7.3 1.711,5.664 1.719,4.364 1.727,3.328 1.734,2.527 1.738,1.906 1.75,1.438 1.758,1.082 1.77,0.816 1.773,0.618 1.781,0.464 1.789,0.352 1.801,0.266 1.805,0.199 1.816,0.152 1.824,0.113 1.832,0.086 1.844,0.067 1.848,0.047 1.859,0.035 1.863,0.027 1.875,0.02 1.887,0.011 1.891,0.012 1.902,0.004 1.91,0.004 1.918,0 1.93,0.004 1.934,-0.004 5.863,0 1.972,-0.004 1.985,0 1.988,-0.004 4.012,0 2.015,-0.004 35.782,0 2.191,0.004 3.121,0" /><path
         id="path60"
         style="fill:#000000;fill-opacity:1;fill-rule:nonzero;stroke:none"
         d="m 116.859,52.066 c 0,2.36 -0.75,3.531 -2.218,3.531 -1.469,0 -2.235,-1.187 -2.235,-3.468 0,-2.297 0.782,-3.469 2.235,-3.469 1.437,0 2.218,1.172 2.218,3.406 z M 116,52.144 c 0,-1.922 -0.438,-2.781 -1.375,-2.781 -0.891,0 -1.344,0.891 -1.344,2.75 0,1.875 0.453,2.734 1.36,2.734 0.906,0 1.359,-0.875 1.359,-2.703 z" /><path
         id="path62"
         style="fill:#000000;fill-opacity:1;fill-rule:nonzero;stroke:none"
         d="m 477.727,48.801 0,6.796 -0.563,0 c -0.297,-1.046 -0.484,-1.187 -1.781,-1.343 l 0,-0.61 1.5,0 0,-4.843 0.844,0 z" /><path
         id="path64"
         style="fill:#000000;fill-opacity:1;fill-rule:nonzero;stroke:none"
         d="m 484.66,51.082 c 0,0.734 -0.062,1.187 -0.203,1.562 -0.328,0.828 -1.094,1.328 -2.031,1.328 -1.406,0 -2.297,-1.031 -2.297,-2.687 0,-1.656 0.859,-2.625 2.281,-2.625 1.141,0 1.938,0.656 2.141,1.672 l -0.797,0 c -0.219,-0.672 -0.672,-0.938 -1.313,-0.938 -0.843,0 -1.468,0.532 -1.484,1.688 l 3.703,0 z m -0.859,0.719 c 0,0 0,-0.047 0,-0.063 l -2.828,0 c 0.078,0.891 0.64,1.5 1.437,1.5 0.797,0 1.391,-0.656 1.391,-1.437 z" /><path
         id="path66"
         style="fill:#000000;fill-opacity:1;fill-rule:nonzero;stroke:none"
         d="m 489.965,52.363 c 0,2.125 -0.75,3.234 -2.297,3.234 -1.297,0 -2.234,-0.921 -2.234,-2.25 0,-1.265 0.875,-2.125 2.093,-2.125 0.641,0 1.11,0.235 1.563,0.766 -0.016,-1.656 -0.547,-2.578 -1.516,-2.578 -0.594,0 -1.015,0.375 -1.14,1.016 l -0.844,0 c 0.156,-1.11 0.89,-1.766 1.922,-1.766 1.593,0 2.453,1.344 2.453,3.703 z m -0.922,1 c 0,-0.828 -0.594,-1.391 -1.422,-1.391 -0.812,0 -1.312,0.532 -1.312,1.438 0,0.875 0.562,1.453 1.343,1.453 0.797,0 1.391,-0.609 1.391,-1.5 z" /><path
         id="path68"
         style="fill:#000000;fill-opacity:1;fill-rule:nonzero;stroke:none"
         d="m 91.637,61.398 2.281,0 0,-0.703 -2.281,0 0,0.703 z" /><path
         id="path70"
         style="fill:#000000;fill-opacity:1;fill-rule:nonzero;stroke:none"
         d="m 99.383,60.023 0,0.766 -1,0 0,4.406 -0.625,0 -3.094,-4.281 0,-0.891 2.875,0 0,-1.625 0.844,0 0,1.625 1,0 z m -1.844,0.766 -2.141,0 2.141,2.969 0,-2.969 z" /><path
         id="path72"
         style="fill:#000000;fill-opacity:1;fill-rule:nonzero;stroke:none"
         d="m 104.594,61.664 c 0,2.359 -0.75,3.531 -2.219,3.531 -1.469,0 -2.234,-1.187 -2.234,-3.469 0,-2.297 0.781,-3.468 2.234,-3.468 1.437,0 2.219,1.171 2.219,3.406 z m -0.86,0.078 c 0,-1.922 -0.437,-2.781 -1.375,-2.781 -0.89,0 -1.343,0.89 -1.343,2.75 0,1.875 0.453,2.734 1.359,2.734 0.906,0 1.359,-0.875 1.359,-2.703 z" /><path
         id="path74"
         style="fill:#000000;fill-opacity:1;fill-rule:nonzero;stroke:none"
         d="m 91.637,123.801 2.281,0 0,-0.703 -2.281,0 0,0.703 z" /><path
         id="path76"
         style="fill:#000000;fill-opacity:1;fill-rule:nonzero;stroke:none"
         d="m 99.258,122.769 c 0,0.828 -0.344,1.313 -1.156,1.594 0.64,0.25 0.953,0.688 0.953,1.375 0,1.172 -0.782,1.859 -2.078,1.859 -1.375,0 -2.094,-0.75 -2.125,-2.187 l 0.843,0 c 0.016,1 0.438,1.453 1.297,1.453 0.75,0 1.203,-0.437 1.203,-1.156 0,-0.735 -0.328,-1.031 -1.672,-1.031 l 0,-0.704 0.454,0 c 0.937,0 1.406,-0.453 1.406,-1.203 0,-0.859 -0.516,-1.359 -1.406,-1.359 -0.922,0 -1.375,0.453 -1.422,1.437 l -0.844,0 c 0.094,-1.515 0.844,-2.187 2.234,-2.187 1.407,0 2.313,0.828 2.313,2.109 z" /><path
         id="path78"
         style="fill:#000000;fill-opacity:1;fill-rule:nonzero;stroke:none"
         d="m 104.594,124.066 c 0,2.36 -0.75,3.531 -2.219,3.531 -1.469,0 -2.234,-1.187 -2.234,-3.468 0,-2.297 0.781,-3.469 2.234,-3.469 1.437,0 2.219,1.172 2.219,3.406 z m -0.86,0.078 c 0,-1.922 -0.437,-2.781 -1.375,-2.781 -0.89,0 -1.343,0.891 -1.343,2.75 0,1.875 0.453,2.734 1.359,2.734 0.906,0 1.359,-0.875 1.359,-2.703 z" /><path
         id="path80"
         style="fill:#000000;fill-opacity:1;fill-rule:nonzero;stroke:none"
         d="m 91.637,186.199 2.281,0 0,-0.703 -2.281,0 0,0.703 z" /><path
         id="path82"
         style="fill:#000000;fill-opacity:1;fill-rule:nonzero;stroke:none"
         d="m 99.305,188.012 c 0,1.14 -0.891,1.984 -2.188,1.984 -1.39,0 -2.187,-0.703 -2.234,-2.359 l 0.844,0 c 0.062,1.14 0.531,1.625 1.375,1.625 0.765,0 1.328,-0.547 1.328,-1.282 0,-0.531 -0.313,-0.984 -0.907,-1.343 l -0.89,-0.5 c -1.422,-0.797 -1.828,-1.438 -1.906,-2.938 l 4.531,0 0,0.828 -3.578,0 c 0.078,0.563 0.39,0.922 1.218,1.406 l 0.969,0.516 c 0.938,0.516 1.438,1.219 1.438,2.063 z" /><path
         id="path84"
         style="fill:#000000;fill-opacity:1;fill-rule:nonzero;stroke:none"
         d="m 104.594,186.465 c 0,2.359 -0.75,3.531 -2.219,3.531 -1.469,0 -2.234,-1.188 -2.234,-3.469 0,-2.297 0.781,-3.469 2.234,-3.469 1.437,0 2.219,1.172 2.219,3.407 z m -0.86,0.078 c 0,-1.922 -0.437,-2.781 -1.375,-2.781 -0.89,0 -1.343,0.89 -1.343,2.75 0,1.875 0.453,2.734 1.359,2.734 0.906,0 1.359,-0.875 1.359,-2.703 z" /><path
         id="path86"
         style="fill:#000000;fill-opacity:1;fill-rule:nonzero;stroke:none"
         d="m 91.637,248.597 2.281,0 0,-0.703 -2.281,0 0,0.703 z" /><path
         id="path88"
         style="fill:#000000;fill-opacity:1;fill-rule:nonzero;stroke:none"
         d="m 97.727,245.597 0,6.797 -0.563,0 c -0.297,-1.047 -0.484,-1.187 -1.781,-1.343 l 0,-0.61 1.5,0 0,-4.844 0.844,0 z" /><path
         id="path90"
         style="fill:#000000;fill-opacity:1;fill-rule:nonzero;stroke:none"
         d="m 104.594,248.863 c 0,2.359 -0.75,3.531 -2.219,3.531 -1.469,0 -2.234,-1.187 -2.234,-3.468 0,-2.297 0.781,-3.469 2.234,-3.469 1.437,0 2.219,1.172 2.219,3.406 z m -0.86,0.078 c 0,-1.922 -0.437,-2.781 -1.375,-2.781 -0.89,0 -1.343,0.891 -1.343,2.75 0,1.875 0.453,2.734 1.359,2.734 0.906,0 1.359,-0.875 1.359,-2.703 z" /><path
         id="path92"
         style="fill:#000000;fill-opacity:1;fill-rule:nonzero;stroke:none"
         d="m 107.258,311.265 c 0,2.36 -0.75,3.532 -2.219,3.532 -1.469,0 -2.234,-1.188 -2.234,-3.469 0,-2.297 0.781,-3.469 2.234,-3.469 1.438,0 2.219,1.172 2.219,3.406 z m -0.86,0.079 c 0,-1.922 -0.437,-2.782 -1.375,-2.782 -0.89,0 -1.343,0.891 -1.343,2.75 0,1.875 0.453,2.735 1.359,2.735 0.906,0 1.359,-0.875 1.359,-2.703 z" /><path
         id="path94"
         style="fill:#000000;fill-opacity:1;fill-rule:nonzero;stroke:none"
         d="m 316.762,36.601 0,0.797 -4.703,0 0,-7 0.89,0 0,3.188 3.344,0 0,0.781 -3.344,0 0,2.234 3.813,0 z" /><path
         id="path96"
         style="fill:#000000;fill-opacity:1;fill-rule:nonzero;stroke:none"
         d="m 319.809,34.726 0,0.813 c -0.141,0.015 -0.204,0.031 -0.313,0.031 -0.516,0 -0.906,-0.312 -1.359,-1.062 l 0,0.921 -0.735,0 0,-5.031 0.797,0 0,2.61 c 0,1.125 0.375,1.703 1.61,1.718 z" /><path
         id="path98"
         style="fill:#000000;fill-opacity:1;fill-rule:nonzero;stroke:none"
         d="m 324.762,32.679 c 0,0.735 -0.063,1.188 -0.203,1.563 -0.329,0.828 -1.094,1.328 -2.032,1.328 -1.406,0 -2.297,-1.031 -2.297,-2.687 0,-1.657 0.86,-2.625 2.282,-2.625 1.14,0 1.937,0.656 2.14,1.671 l -0.797,0 c -0.218,-0.671 -0.671,-0.937 -1.312,-0.937 -0.844,0 -1.469,0.531 -1.484,1.687 l 3.703,0 z m -0.86,0.719 c 0,0 0,-0.047 0,-0.062 l -2.828,0 c 0.078,0.89 0.641,1.5 1.438,1.5 0.797,0 1.39,-0.657 1.39,-1.438 z m 0.344,4 -1.094,0 -0.922,-1.422 0.579,0 1.437,1.422 z" /><path
         id="path100"
         style="fill:#000000;fill-opacity:1;fill-rule:nonzero;stroke:none"
         d="m 329.926,28.304 0,7.125 -0.719,0 0,-0.671 c -0.359,0.531 -0.937,0.812 -1.594,0.812 -1.328,0 -2.187,-1.047 -2.187,-2.719 0,-1.625 0.828,-2.593 2.14,-2.593 0.704,0 1.188,0.25 1.563,0.796 l 0,-2.75 0.797,0 z m -0.797,4.579 c 0,-1.157 -0.563,-1.875 -1.406,-1.875 -0.875,0 -1.469,0.734 -1.469,1.906 0,1.156 0.594,1.906 1.469,1.906 0.859,0 1.406,-0.766 1.406,-1.937 z" /><path
         id="path102"
         style="fill:#000000;fill-opacity:1;fill-rule:nonzero;stroke:none"
         d="m 335.219,30.398 0,5.031 -0.797,0 0,-2.781 c 0,-1.015 -0.531,-1.687 -1.375,-1.687 -0.625,0 -1.031,0.375 -1.031,0.984 l 0,3.484 -0.797,0 0,-3.796 c 0,-0.844 0.625,-1.375 1.593,-1.375 0.75,0 1.219,0.25 1.688,0.921 l 0,-0.781 0.719,0 z" /><path
         id="path104"
         style="fill:#000000;fill-opacity:1;fill-rule:nonzero;stroke:none"
         d="m 340.852,32.679 c 0,0.735 -0.063,1.188 -0.204,1.563 -0.328,0.828 -1.093,1.328 -2.031,1.328 -1.406,0 -2.297,-1.031 -2.297,-2.687 0,-1.657 0.86,-2.625 2.282,-2.625 1.14,0 1.937,0.656 2.14,1.671 l -0.797,0 c -0.218,-0.671 -0.672,-0.937 -1.312,-0.937 -0.844,0 -1.469,0.531 -1.485,1.687 l 3.704,0 z m -0.86,0.719 c 0,0 0,-0.047 0,-0.062 l -2.828,0 c 0.078,0.89 0.641,1.5 1.438,1.5 0.796,0 1.39,-0.657 1.39,-1.438 z" /><path
         id="path106"
         style="fill:#000000;fill-opacity:1;fill-rule:nonzero;stroke:none"
         d="m 345.938,30.398 0,3.797 c 0,0.844 -0.626,1.375 -1.594,1.375 -0.75,0 -1.219,-0.281 -1.672,-0.984 l 0,0.843 -0.734,0 0,-5.031 0.796,0 0,2.766 c 0,1.031 0.563,1.703 1.375,1.703 0.625,0 1.032,-0.375 1.032,-0.984 l 0,-3.485 0.797,0 z" /><path
         id="path108"
         style="fill:#000000;fill-opacity:1;fill-rule:nonzero;stroke:none"
         d="m 351.184,32.133 -0.813,0 c -0.125,-0.813 -0.547,-1.141 -1.219,-1.141 -0.89,0 -1.422,0.687 -1.422,1.875 0,1.25 0.532,1.969 1.391,1.969 0.672,0 1.094,-0.407 1.203,-1.094 l 0.797,0 c -0.094,1.219 -0.859,1.828 -1.984,1.828 -1.344,0 -2.235,-1.031 -2.235,-2.703 0,-1.625 0.86,-2.609 2.219,-2.609 1.203,0 1.969,0.718 2.063,1.875 z" /><path
         id="path110"
         style="fill:#000000;fill-opacity:1;fill-rule:nonzero;stroke:none"
         d="m 356.328,32.679 c 0,0.735 -0.062,1.188 -0.203,1.563 -0.328,0.828 -1.094,1.328 -2.031,1.328 -1.406,0 -2.297,-1.031 -2.297,-2.687 0,-1.657 0.859,-2.625 2.281,-2.625 1.141,0 1.938,0.656 2.141,1.671 l -0.797,0 c -0.219,-0.671 -0.672,-0.937 -1.313,-0.937 -0.843,0 -1.468,0.531 -1.484,1.687 l 3.703,0 z m -0.859,0.719 c 0,0 0,-0.047 0,-0.062 l -2.828,0 c 0.078,0.89 0.64,1.5 1.437,1.5 0.797,0 1.391,-0.657 1.391,-1.438 z" /><path
         id="path112"
         style="fill:#000000;fill-opacity:1;fill-rule:nonzero;stroke:none"
         d="m 362.207,28.367 c -0.844,1.375 -1.312,2.984 -1.312,4.516 0,1.531 0.468,3.14 1.312,4.515 l -0.531,0 c -0.953,-1.265 -1.563,-3.015 -1.563,-4.515 0,-1.516 0.61,-3.266 1.563,-4.516 l 0.531,0 z" /><path
         id="path114"
         style="fill:#000000;fill-opacity:1;fill-rule:nonzero;stroke:none"
         d="m 368.809,30.398 0,7 -0.891,0 0,-3.031 -3.594,0 0,3.031 -0.89,0 0,-7 0.89,0 0,3.188 3.594,0 0,-3.188 0.891,0 z" /><path
         id="path116"
         style="fill:#000000;fill-opacity:1;fill-rule:nonzero;stroke:none"
         d="m 373.957,30.398 0,0.703 -3.125,0 2.984,3.61 0,0.718 -3.75,0 0,-0.703 2.797,0 -3,-3.609 0,-0.719 4.094,0 z" /><path
         id="path118"
         style="fill:#000000;fill-opacity:1;fill-rule:nonzero;stroke:none"
         d="m 376.82,32.867 c 0,1.516 -0.593,3.266 -1.562,4.531 l -0.531,0 c 0.843,-1.375 1.312,-2.984 1.312,-4.531 0,-1.516 -0.469,-3.141 -1.312,-4.5 l 0.531,0 c 0.969,1.25 1.562,3 1.562,4.5 z" /><path
         id="path120"
         style="fill:#0000ff;fill-opacity:1;fill-rule:nonzero;stroke:none"
         d="m 83.602,155.582 c -0.844,0 -1.344,-0.391 -1.688,-1.281 -0.297,0.625 -0.828,0.968 -1.531,0.968 -1.016,0 -1.781,-0.75 -1.781,-2.078 l 0,-2.828 7,0 0,3.156 c 0,1.25 -0.844,2.063 -2,2.063 z m -3.094,-1.203 c 0.703,0 1.109,-0.422 1.109,-1.407 l 0,-1.718 -2.219,0 0,1.718 c 0,0.985 0.407,1.407 1.11,1.407 z m 3.109,0.297 c 0.672,0 1.203,-0.407 1.203,-1.25 l 0,-2.172 -2.406,0 0,2.172 c 0,0.843 0.516,1.25 1.203,1.25 z" /><path
         id="path122"
         style="fill:#0000ff;fill-opacity:1;fill-rule:nonzero;stroke:none"
         d="m 83.32,160.926 c -0.734,0 -1.187,-0.063 -1.562,-0.204 -0.828,-0.328 -1.328,-1.093 -1.328,-2.031 0,-1.406 1.031,-2.297 2.687,-2.297 1.656,0 2.625,0.86 2.625,2.282 0,1.14 -0.656,1.937 -1.672,2.14 l 0,-0.797 c 0.672,-0.218 0.938,-0.672 0.938,-1.312 0,-0.844 -0.531,-1.469 -1.688,-1.485 l 0,3.704 z m -0.718,-0.86 c 0,0 0.046,0 0.062,0 l 0,-2.828 c -0.891,0.078 -1.5,0.641 -1.5,1.438 0,0.796 0.656,1.39 1.438,1.39 z" /><path
         id="path124"
         style="fill:#0000ff;fill-opacity:1;fill-rule:nonzero;stroke:none"
         d="m 84.195,165.746 c -0.75,0 -1.125,-0.422 -1.359,-1.422 l -0.188,-0.766 c -0.156,-0.656 -0.359,-0.937 -0.718,-0.937 -0.469,0 -0.766,0.422 -0.766,1.062 0,0.657 0.281,1 0.813,1.016 l 0,0.844 c -0.985,-0.016 -1.547,-0.656 -1.547,-1.828 0,-1.172 0.609,-1.922 1.531,-1.922 0.797,0 1.172,0.406 1.453,1.594 l 0.188,0.75 c 0.125,0.546 0.296,0.765 0.656,0.765 0.469,0 0.75,-0.469 0.75,-1.172 0,-0.718 -0.172,-1.109 -0.938,-1.218 l 0,-0.844 c 1.157,0.031 1.672,0.687 1.672,2 0,1.265 -0.578,2.078 -1.547,2.078 z" /><path
         id="path126"
         style="fill:#0000ff;fill-opacity:1;fill-rule:nonzero;stroke:none"
         d="m 84.195,170.547 c -0.75,0 -1.125,-0.422 -1.359,-1.422 l -0.188,-0.766 c -0.156,-0.656 -0.359,-0.937 -0.718,-0.937 -0.469,0 -0.766,0.422 -0.766,1.062 0,0.656 0.281,1 0.813,1.016 l 0,0.844 c -0.985,-0.016 -1.547,-0.657 -1.547,-1.829 0,-1.171 0.609,-1.921 1.531,-1.921 0.797,0 1.172,0.406 1.453,1.593 l 0.188,0.75 c 0.125,0.547 0.296,0.766 0.656,0.766 0.469,0 0.75,-0.469 0.75,-1.172 0,-0.719 -0.172,-1.109 -0.938,-1.219 l 0,-0.843 c 1.157,0.031 1.672,0.687 1.672,2 0,1.265 -0.578,2.078 -1.547,2.078 z" /><path
         id="path128"
         style="fill:#0000ff;fill-opacity:1;fill-rule:nonzero;stroke:none"
         d="m 83.32,175.863 c -0.734,0 -1.187,-0.062 -1.562,-0.203 -0.828,-0.328 -1.328,-1.094 -1.328,-2.031 0,-1.407 1.031,-2.297 2.687,-2.297 1.656,0 2.625,0.859 2.625,2.281 0,1.141 -0.656,1.938 -1.672,2.141 l 0,-0.797 c 0.672,-0.219 0.938,-0.672 0.938,-1.313 0,-0.843 -0.531,-1.468 -1.688,-1.484 l 0,3.703 z m -0.718,-0.859 c 0,0 0.046,0 0.062,0 l 0,-2.828 c -0.891,0.078 -1.5,0.64 -1.5,1.437 0,0.797 0.656,1.391 1.438,1.391 z" /><path
         id="path130"
         style="fill:#0000ff;fill-opacity:1;fill-rule:nonzero;stroke:none"
         d="m 78.602,177.73 7,0 0,-0.797 -7,0 0,0.797 z" /><path
         id="path132"
         style="fill:#0000ff;fill-opacity:1;fill-rule:nonzero;stroke:none"
         d="m 86.82,183.984 0.484,0 0,-5.766 -0.484,0 0,5.766 z" /><path
         id="path134"
         style="fill:#0000ff;fill-opacity:1;fill-rule:nonzero;stroke:none"
         d="m 85.602,188.523 -7,0 0,-0.797 2.609,0 c -0.516,-0.343 -0.781,-0.875 -0.781,-1.547 0,-1.296 1.015,-2.156 2.609,-2.156 1.703,0 2.703,0.828 2.703,2.188 0,0.687 -0.25,1.172 -0.875,1.593 l 0.735,0 0,0.719 z m -2.5,-0.797 c 1.171,0 1.89,-0.562 1.89,-1.406 0,-0.875 -0.734,-1.469 -1.906,-1.469 -1.172,0 -1.906,0.594 -1.906,1.469 0,0.859 0.765,1.406 1.922,1.406 z" /><path
         id="path136"
         style="fill:#0000ff;fill-opacity:1;fill-rule:nonzero;stroke:none"
         d="m 83.602,195.097 c -0.844,0 -1.344,-0.39 -1.688,-1.281 -0.297,0.625 -0.828,0.969 -1.531,0.969 -1.016,0 -1.781,-0.75 -1.781,-2.078 l 0,-2.828 7,0 0,3.156 c 0,1.25 -0.844,2.062 -2,2.062 z m -3.094,-1.203 c 0.703,0 1.109,-0.422 1.109,-1.406 l 0,-1.719 -2.219,0 0,1.719 c 0,0.984 0.407,1.406 1.11,1.406 z m 3.109,0.297 c 0.672,0 1.203,-0.406 1.203,-1.25 l 0,-2.172 -2.406,0 0,2.172 c 0,0.844 0.516,1.25 1.203,1.25 z" /><path
         id="path138"
         style="fill:#0000ff;fill-opacity:1;fill-rule:nonzero;stroke:none"
         d="m 83.68,201.496 c -0.86,0 -1.5,-0.531 -1.75,-1.484 l -0.469,-1.75 c -0.219,-0.844 -0.5,-1.157 -1.047,-1.157 -0.703,0 -1.234,0.625 -1.234,1.563 0,1.109 0.515,1.75 1.422,1.75 l 0,0.844 c -1.375,0 -2.172,-0.954 -2.172,-2.563 0,-1.531 0.843,-2.484 2.109,-2.484 0.859,0 1.391,0.453 1.641,1.375 l 0.453,1.734 c 0.234,0.875 0.594,1.281 1.14,1.281 0.766,0 1.219,-0.578 1.219,-1.781 0,-1.328 -0.672,-1.969 -1.672,-1.969 l 0,-0.859 c 1.657,0 2.453,1.125 2.453,2.766 0,1.781 -0.843,2.734 -2.093,2.734 z" /><path
         id="path140"
         style="fill:#0000ff;fill-opacity:1;fill-rule:nonzero;stroke:none"
         d="m 85.602,205.277 -6.797,0 0,-0.562 c 1.047,-0.297 1.187,-0.485 1.343,-1.782 l 0.61,0 0,1.5 4.844,0 0,0.844 z" /><path
         id="path142"
         style="fill:#0000ff;fill-opacity:1;fill-rule:nonzero;stroke:none"
         d="m 85.602,210.613 -6.797,0 0,-0.562 c 1.047,-0.297 1.187,-0.485 1.343,-1.782 l 0.61,0 0,1.5 4.844,0 0,0.844 z" /><path
         id="path144"
         style="fill:#ff0000;fill-opacity:1;fill-rule:nonzero;stroke:none"
         d="m 65.199,141.984 c -0.844,0 -1.344,-0.39 -1.687,-1.281 -0.297,0.625 -0.828,0.969 -1.532,0.969 -1.015,0 -1.781,-0.75 -1.781,-2.078 l 0,-2.829 7,0 0,3.157 c 0,1.25 -0.844,2.062 -2,2.062 z m -3.094,-1.203 c 0.704,0 1.11,-0.422 1.11,-1.406 l 0,-1.719 -2.219,0 0,1.719 c 0,0.984 0.406,1.406 1.109,1.406 z m 3.11,0.297 c 0.672,0 1.203,-0.406 1.203,-1.25 l 0,-2.172 -2.406,0 0,2.172 c 0,0.844 0.515,1.25 1.203,1.25 z" /><path
         id="path146"
         style="fill:#ff0000;fill-opacity:1;fill-rule:nonzero;stroke:none"
         d="m 67.199,147.027 -5.031,0 0,-0.797 2.781,0 c 1.016,0 1.688,-0.531 1.688,-1.375 0,-0.625 -0.375,-1.031 -0.985,-1.031 l -3.484,0 0,-0.797 3.797,0 c 0.844,0 1.375,0.625 1.375,1.594 0,0.75 -0.25,1.219 -0.922,1.687 l 0.781,0 0,0.719 z" /><path
         id="path148"
         style="fill:#ff0000;fill-opacity:1;fill-rule:nonzero;stroke:none"
         d="m 67.199,150.176 -0.672,0 c 0.032,-0.11 0.032,-0.235 0.032,-0.391 0,-0.344 -0.094,-0.438 -0.438,-0.438 l -3.297,0 0,0.829 -0.656,0 0,-0.829 -1.375,0 0,-0.796 1.375,0 0,-0.672 0.656,0 0,0.672 3.641,0 c 0.515,0 0.797,0.343 0.797,0.968 0,0.188 -0.016,0.391 -0.063,0.657 z" /><path
         id="path150"
         style="fill:#ff0000;fill-opacity:1;fill-rule:nonzero;stroke:none"
         d="m 67.199,152.847 -0.672,0 c 0.032,-0.109 0.032,-0.234 0.032,-0.39 0,-0.344 -0.094,-0.438 -0.438,-0.438 l -3.297,0 0,0.828 -0.656,0 0,-0.828 -1.375,0 0,-0.797 1.375,0 0,-0.671 0.656,0 0,0.671 3.641,0 c 0.515,0 0.797,0.344 0.797,0.969 0,0.188 -0.016,0.391 -0.063,0.656 z" /><path
         id="path152"
         style="fill:#ff0000;fill-opacity:1;fill-rule:nonzero;stroke:none"
         d="m 64.918,157.855 c -0.734,0 -1.188,-0.062 -1.563,-0.203 -0.828,-0.328 -1.328,-1.094 -1.328,-2.031 0,-1.406 1.032,-2.297 2.688,-2.297 1.656,0 2.625,0.859 2.625,2.281 0,1.141 -0.656,1.938 -1.672,2.141 l 0,-0.797 c 0.672,-0.219 0.937,-0.672 0.937,-1.312 0,-0.844 -0.531,-1.469 -1.687,-1.485 l 0,3.703 z m -0.719,-0.859 c 0,0 0.047,0 0.063,0 l 0,-2.828 c -0.891,0.078 -1.5,0.64 -1.5,1.437 0,0.797 0.656,1.391 1.437,1.391 z" /><path
         id="path154"
         style="fill:#ff0000;fill-opacity:1;fill-rule:nonzero;stroke:none"
         d="m 62.871,161.347 -0.812,0 c -0.016,-0.14 -0.032,-0.203 -0.032,-0.312 0,-0.516 0.313,-0.906 1.063,-1.359 l -0.922,0 0,-0.735 5.031,0 0,0.797 -2.609,0 c -1.125,0 -1.703,0.375 -1.719,1.609 z" /><path
         id="path156"
         style="fill:#ff0000;fill-opacity:1;fill-rule:nonzero;stroke:none"
         d="m 62.168,168.562 0,-0.906 3.922,-1 -3.922,-0.984 0,-0.985 3.922,-0.953 -3.922,-1.031 0,-0.875 5.031,1.453 0,0.906 -3.937,0.969 3.937,1.016 0,0.906 -5.031,1.484 z" /><path
         id="path158"
         style="fill:#ff0000;fill-opacity:1;fill-rule:nonzero;stroke:none"
         d="m 64.73,173.5 c -1.75,0 -2.703,-0.828 -2.703,-2.281 0,-1.407 0.969,-2.266 2.657,-2.266 1.687,0 2.656,0.844 2.656,2.281 0,1.406 -0.969,2.266 -2.61,2.266 z m -0.015,-0.828 c 1.172,0 1.89,-0.563 1.89,-1.438 0,-0.89 -0.703,-1.437 -1.921,-1.437 -1.204,0 -1.922,0.547 -1.922,1.437 0,0.891 0.703,1.438 1.953,1.438 z" /><path
         id="path160"
         style="fill:#ff0000;fill-opacity:1;fill-rule:nonzero;stroke:none"
         d="m 62.871,177.027 -0.812,0 c -0.016,-0.14 -0.032,-0.203 -0.032,-0.312 0,-0.516 0.313,-0.907 1.063,-1.36 l -0.922,0 0,-0.734 5.031,0 0,0.797 -2.609,0 c -1.125,0 -1.703,0.375 -1.719,1.609 z" /><path
         id="path162"
         style="fill:#ff0000;fill-opacity:1;fill-rule:nonzero;stroke:none"
         d="m 67.199,179.879 -0.672,0 c 0.032,-0.11 0.032,-0.235 0.032,-0.391 0,-0.344 -0.094,-0.437 -0.438,-0.437 l -3.297,0 0,0.828 -0.656,0 0,-0.828 -1.375,0 0,-0.797 1.375,0 0,-0.672 0.656,0 0,0.672 3.641,0 c 0.515,0 0.797,0.343 0.797,0.968 0,0.188 -0.016,0.391 -0.063,0.657 z" /><path
         id="path164"
         style="fill:#ff0000;fill-opacity:1;fill-rule:nonzero;stroke:none"
         d="m 67.199,184.699 -3.797,0 c -0.843,0 -1.375,-0.594 -1.375,-1.578 0,-0.703 0.219,-1.141 0.828,-1.609 l -2.656,0 0,-0.797 7,0 0,0.797 -2.765,0 c -1.032,0 -1.704,0.531 -1.704,1.359 0,0.562 0.329,1.031 0.985,1.031 l 3.484,0 0,0.797 z" /><path
         id="path166"
         style="fill:#ff0000;fill-opacity:1;fill-rule:nonzero;stroke:none"
         d="m 68.418,190.929 0.484,0 0,-5.766 -0.484,0 0,5.766 z" /><path
         id="path168"
         style="fill:#ff0000;fill-opacity:1;fill-rule:nonzero;stroke:none"
         d="m 67.199,195.469 -7,0 0,-0.797 2.61,0 c -0.516,-0.344 -0.782,-0.875 -0.782,-1.547 0,-1.297 1.016,-2.156 2.61,-2.156 1.703,0 2.703,0.828 2.703,2.187 0,0.688 -0.25,1.172 -0.875,1.594 l 0.734,0 0,0.719 z m -2.5,-0.797 c 1.172,0 1.891,-0.563 1.891,-1.407 0,-0.875 -0.735,-1.468 -1.906,-1.468 -1.172,0 -1.907,0.593 -1.907,1.468 0,0.86 0.766,1.407 1.922,1.407 z" /><path
         id="path170"
         style="fill:#ff0000;fill-opacity:1;fill-rule:nonzero;stroke:none"
         d="m 65.199,202.043 c -0.844,0 -1.344,-0.391 -1.687,-1.281 -0.297,0.625 -0.828,0.968 -1.532,0.968 -1.015,0 -1.781,-0.75 -1.781,-2.078 l 0,-2.828 7,0 0,3.156 c 0,1.25 -0.844,2.063 -2,2.063 z m -3.094,-1.203 c 0.704,0 1.11,-0.422 1.11,-1.407 l 0,-1.718 -2.219,0 0,1.718 c 0,0.985 0.406,1.407 1.109,1.407 z m 3.11,0.297 c 0.672,0 1.203,-0.407 1.203,-1.25 l 0,-2.172 -2.406,0 0,2.172 c 0,0.843 0.515,1.25 1.203,1.25 z" /><path
         id="path172"
         style="fill:#ff0000;fill-opacity:1;fill-rule:nonzero;stroke:none"
         d="m 65.277,208.441 c -0.859,0 -1.5,-0.531 -1.75,-1.484 l -0.468,-1.75 c -0.219,-0.844 -0.5,-1.156 -1.047,-1.156 -0.703,0 -1.235,0.625 -1.235,1.562 0,1.109 0.516,1.75 1.422,1.75 l 0,0.844 c -1.375,0 -2.172,-0.953 -2.172,-2.563 0,-1.531 0.844,-2.484 2.11,-2.484 0.859,0 1.39,0.453 1.64,1.375 l 0.453,1.734 c 0.235,0.875 0.594,1.282 1.141,1.282 0.766,0 1.219,-0.579 1.219,-1.782 0,-1.328 -0.672,-1.968 -1.672,-1.968 l 0,-0.86 c 1.656,0 2.453,1.125 2.453,2.766 0,1.781 -0.844,2.734 -2.094,2.734 z" /><path
         id="path174"
         style="fill:#ff0000;fill-opacity:1;fill-rule:nonzero;stroke:none"
         d="m 67.199,212.219 -6.797,0 0,-0.563 c 1.047,-0.297 1.188,-0.484 1.344,-1.781 l 0.609,0 0,1.5 4.844,0 0,0.844 z" /><path
         id="path176"
         style="fill:#ff0000;fill-opacity:1;fill-rule:nonzero;stroke:none"
         d="m 67.199,217.558 -6.797,0 0,-0.562 c 1.047,-0.297 1.188,-0.484 1.344,-1.781 l 0.609,0 0,1.5 4.844,0 0,0.843 z" /><path
         id="path178"
         style="fill:#ff00ff;fill-opacity:1;fill-rule:nonzero;stroke:none"
         d="m 42.598,140.086 -0.797,0 0,-5.485 0.797,0 0,2.297 6.203,0 0,0.891 -6.203,0 0,2.297 z" /><path
         id="path180"
         style="fill:#ff00ff;fill-opacity:1;fill-rule:nonzero;stroke:none"
         d="m 47.066,143.988 0,-0.812 c 0.813,-0.125 1.141,-0.547 1.141,-1.219 0,-0.891 -0.687,-1.422 -1.875,-1.422 -1.25,0 -1.969,0.531 -1.969,1.391 0,0.671 0.407,1.093 1.094,1.203 l 0,0.797 c -1.219,-0.094 -1.828,-0.86 -1.828,-1.985 0,-1.344 1.031,-2.234 2.703,-2.234 1.625,0 2.609,0.859 2.609,2.219 0,1.203 -0.718,1.968 -1.875,2.062 z" /><path
         id="path182"
         style="fill:#ff00ff;fill-opacity:1;fill-rule:nonzero;stroke:none"
         d="m 48.801,148.867 -3.797,0 c -0.844,0 -1.375,-0.594 -1.375,-1.578 0,-0.703 0.219,-1.141 0.828,-1.61 l -2.656,0 0,-0.796 7,0 0,0.796 -2.766,0 c -1.031,0 -1.703,0.532 -1.703,1.36 0,0.562 0.328,1.031 0.984,1.031 l 3.485,0 0,0.797 z" /><path
         id="path184"
         style="fill:#ff00ff;fill-opacity:1;fill-rule:nonzero;stroke:none"
         d="m 46.52,154.469 c -0.735,0 -1.188,-0.063 -1.563,-0.204 -0.828,-0.328 -1.328,-1.093 -1.328,-2.031 0,-1.406 1.031,-2.297 2.687,-2.297 1.657,0 2.625,0.86 2.625,2.282 0,1.14 -0.656,1.937 -1.671,2.14 l 0,-0.797 c 0.671,-0.218 0.937,-0.672 0.937,-1.312 0,-0.844 -0.531,-1.469 -1.687,-1.485 l 0,3.704 z m -0.719,-0.86 c 0,0 0.047,0 0.062,0 l 0,-2.828 c -0.89,0.078 -1.5,0.641 -1.5,1.438 0,0.796 0.657,1.39 1.438,1.39 z" /><path
         id="path186"
         style="fill:#ff00ff;fill-opacity:1;fill-rule:nonzero;stroke:none"
         d="m 46.223,159.902 c -1.625,0 -2.594,-0.828 -2.594,-2.14 0,-0.704 0.266,-1.188 0.828,-1.563 l -2.656,0 0,-0.797 7,0 0,0.719 -0.719,0 c 0.578,0.391 0.859,0.891 0.859,1.594 0,1.328 -1.078,2.187 -2.718,2.187 z m 0.062,-0.828 c 1.141,0 1.906,-0.594 1.906,-1.469 0,-0.843 -0.765,-1.406 -1.906,-1.406 -1.172,0 -1.953,0.563 -1.906,1.406 0,0.891 0.781,1.469 1.906,1.469 z" /><path
         id="path188"
         style="fill:#ff00ff;fill-opacity:1;fill-rule:nonzero;stroke:none"
         d="m 43.77,164.668 0,-0.86 3.921,-1.39 -3.921,-1.281 0,-0.86 5.046,1.703 0.797,-0.312 c 0.36,-0.125 0.5,-0.297 0.5,-0.641 0,-0.109 -0.031,-0.25 -0.062,-0.422 l 0.719,0 c 0.078,0.172 0.125,0.328 0.125,0.547 0,0.563 -0.313,1.016 -1.032,1.281 l -6.093,2.235 z" /><path
         id="path190"
         style="fill:#ff00ff;fill-opacity:1;fill-rule:nonzero;stroke:none"
         d="m 47.066,169.273 0,-0.812 c 0.813,-0.125 1.141,-0.547 1.141,-1.219 0,-0.891 -0.687,-1.422 -1.875,-1.422 -1.25,0 -1.969,0.531 -1.969,1.391 0,0.672 0.407,1.093 1.094,1.203 l 0,0.797 c -1.219,-0.094 -1.828,-0.86 -1.828,-1.985 0,-1.343 1.031,-2.234 2.703,-2.234 1.625,0 2.609,0.859 2.609,2.219 0,1.203 -0.718,1.968 -1.875,2.062 z" /><path
         id="path192"
         style="fill:#ff00ff;fill-opacity:1;fill-rule:nonzero;stroke:none"
         d="m 48.801,174.152 -3.797,0 c -0.844,0 -1.375,-0.594 -1.375,-1.578 0,-0.703 0.219,-1.141 0.828,-1.609 l -2.656,0 0,-0.797 7,0 0,0.797 -2.766,0 c -1.031,0 -1.703,0.531 -1.703,1.359 0,0.563 0.328,1.031 0.984,1.031 l 3.485,0 0,0.797 z" /><path
         id="path194"
         style="fill:#ff00ff;fill-opacity:1;fill-rule:nonzero;stroke:none"
         d="m 46.52,179.758 c -0.735,0 -1.188,-0.063 -1.563,-0.204 -0.828,-0.328 -1.328,-1.093 -1.328,-2.031 0,-1.406 1.031,-2.297 2.687,-2.297 1.657,0 2.625,0.86 2.625,2.282 0,1.14 -0.656,1.937 -1.671,2.14 l 0,-0.797 c 0.671,-0.218 0.937,-0.672 0.937,-1.312 0,-0.844 -0.531,-1.469 -1.687,-1.485 l 0,3.704 z m -0.719,-0.86 c 0,0 0.047,0 0.062,0 l 0,-2.828 c -0.89,0.078 -1.5,0.641 -1.5,1.438 0,0.796 0.657,1.39 1.438,1.39 z" /><path
         id="path196"
         style="fill:#ff00ff;fill-opacity:1;fill-rule:nonzero;stroke:none"
         d="m 43.77,184.695 0,-0.891 4.078,-1.421 -4.078,-1.344 0,-0.906 5.031,1.765 0,0.875 -5.031,1.922 z" /><path
         id="path198"
         style="fill:#ff00ff;fill-opacity:1;fill-rule:nonzero;stroke:none"
         d="m 50.02,190.383 0.484,0 0,-5.766 -0.484,0 0,5.766 z" /><path
         id="path200"
         style="fill:#ff00ff;fill-opacity:1;fill-rule:nonzero;stroke:none"
         d="m 48.801,194.926 -7,0 0,-0.797 2.609,0 c -0.515,-0.344 -0.781,-0.875 -0.781,-1.547 0,-1.297 1.016,-2.156 2.609,-2.156 1.703,0 2.703,0.828 2.703,2.187 0,0.688 -0.25,1.172 -0.875,1.594 l 0.735,0 0,0.719 z m -2.5,-0.797 c 1.172,0 1.89,-0.563 1.89,-1.407 0,-0.875 -0.734,-1.468 -1.906,-1.468 -1.172,0 -1.906,0.593 -1.906,1.468 0,0.86 0.766,1.407 1.922,1.407 z" /><path
         id="path202"
         style="fill:#ff00ff;fill-opacity:1;fill-rule:nonzero;stroke:none"
         d="m 46.801,201.496 c -0.844,0 -1.344,-0.391 -1.688,-1.281 -0.297,0.625 -0.828,0.968 -1.531,0.968 -1.016,0 -1.781,-0.75 -1.781,-2.078 l 0,-2.828 7,0 0,3.156 c 0,1.25 -0.844,2.063 -2,2.063 z m -3.094,-1.203 c 0.703,0 1.109,-0.422 1.109,-1.406 l 0,-1.719 -2.218,0 0,1.719 c 0,0.984 0.406,1.406 1.109,1.406 z m 3.109,0.297 c 0.672,0 1.204,-0.407 1.204,-1.25 l 0,-2.172 -2.407,0 0,2.172 c 0,0.843 0.516,1.25 1.203,1.25 z" /><path
         id="path204"
         style="fill:#ff00ff;fill-opacity:1;fill-rule:nonzero;stroke:none"
         d="m 46.879,207.898 c -0.859,0 -1.5,-0.531 -1.75,-1.484 l -0.469,-1.75 c -0.219,-0.844 -0.5,-1.156 -1.047,-1.156 -0.703,0 -1.234,0.625 -1.234,1.562 0,1.109 0.516,1.75 1.422,1.75 l 0,0.844 c -1.375,0 -2.172,-0.953 -2.172,-2.563 0,-1.531 0.844,-2.484 2.109,-2.484 0.86,0 1.391,0.453 1.641,1.375 l 0.453,1.734 c 0.234,0.875 0.594,1.282 1.141,1.282 0.765,0 1.218,-0.579 1.218,-1.782 0,-1.328 -0.671,-1.968 -1.671,-1.968 l 0,-0.86 c 1.656,0 2.453,1.125 2.453,2.766 0,1.781 -0.844,2.734 -2.094,2.734 z" /><path
         id="path206"
         style="fill:#ff00ff;fill-opacity:1;fill-rule:nonzero;stroke:none"
         d="m 48.801,211.676 -6.797,0 0,-0.563 c 1.047,-0.297 1.187,-0.484 1.344,-1.781 l 0.609,0 0,1.5 4.844,0 0,0.844 z" /><path
         id="path208"
         style="fill:#ff00ff;fill-opacity:1;fill-rule:nonzero;stroke:none"
         d="m 48.801,217.015 -6.797,0 0,-0.562 c 1.047,-0.297 1.187,-0.484 1.344,-1.781 l 0.609,0 0,1.5 4.844,0 0,0.843 z" /><path
         id="path210"
         style="fill:#00ff00;fill-opacity:1;fill-rule:nonzero;stroke:none"
         d="m 27.852,157.699 0,-0.922 c 1.312,-0.219 1.937,-0.765 1.937,-1.953 0,-1.391 -1.062,-2.266 -2.812,-2.266 -1.797,0 -2.954,0.844 -2.954,2.188 0,1.094 0.485,1.672 1.547,1.891 l 0,0.906 c -1.531,-0.266 -2.343,-1.156 -2.343,-2.688 0,-2.125 1.718,-3.203 3.75,-3.203 2.046,0 3.593,1.11 3.593,3.156 0,1.719 -0.906,2.672 -2.718,2.891 z" /><path
         id="path212"
         style="fill:#00ff00;fill-opacity:1;fill-rule:nonzero;stroke:none"
         d="m 30.383,163.254 -0.61,0 c 0.016,-0.078 0.016,-0.11 0.016,-0.172 0,-0.266 -0.141,-0.422 -0.391,-0.422 l -2.796,0 c -0.891,0 -1.375,-0.656 -1.375,-1.891 0,-1.218 0.468,-1.968 1.625,-2.015 l 0,0.797 c -0.61,0.078 -0.891,0.437 -0.891,1.187 0,0.719 0.281,1.125 0.75,1.125 l 0.219,0 c 0.328,0 0.468,-0.203 0.547,-0.844 0.156,-1.125 0.187,-1.297 0.312,-1.609 0.234,-0.578 0.688,-0.875 1.297,-0.875 0.922,0 1.453,0.625 1.453,1.641 0,0.656 -0.266,1.265 -0.734,1.718 0.375,0.078 0.656,0.422 0.656,0.813 0,0.172 -0.016,0.297 -0.078,0.547 z m -1.719,-1.391 c 0.719,0 1.172,-0.734 1.172,-1.516 0,-0.609 -0.219,-0.984 -0.766,-0.984 -0.531,0 -0.75,0.359 -0.875,1.219 -0.125,0.844 -0.156,1.015 -0.281,1.281 l 0.75,0 z" /><path
         id="path214"
         style="fill:#00ff00;fill-opacity:1;fill-rule:nonzero;stroke:none"
         d="m 30.398,168.094 -5.031,0 0,-0.797 2.781,0 c 1.016,0 1.688,-0.532 1.688,-1.375 0,-0.625 -0.375,-1.032 -0.984,-1.032 l -3.485,0 0,-0.796 3.797,0 c 0.844,0 1.375,0.625 1.375,1.593 0,0.75 -0.25,1.219 -0.922,1.688 l 0.781,0 0,0.719 z" /><path
         id="path216"
         style="fill:#00ff00;fill-opacity:1;fill-rule:nonzero;stroke:none"
         d="m 28.117,173.726 c -0.734,0 -1.187,-0.062 -1.562,-0.203 -0.828,-0.328 -1.328,-1.094 -1.328,-2.031 0,-1.406 1.031,-2.297 2.687,-2.297 1.656,0 2.625,0.859 2.625,2.281 0,1.141 -0.656,1.938 -1.672,2.141 l 0,-0.797 c 0.672,-0.219 0.938,-0.672 0.938,-1.312 0,-0.844 -0.532,-1.469 -1.688,-1.485 l 0,3.703 z m -0.719,-0.859 c 0,0 0.047,0 0.063,0 l 0,-2.828 c -0.891,0.078 -1.5,0.64 -1.5,1.437 0,0.797 0.656,1.391 1.437,1.391 z" /><path
         id="path218"
         style="fill:#00ff00;fill-opacity:1;fill-rule:nonzero;stroke:none"
         d="m 26.07,177.25 -0.812,0 c -0.016,-0.141 -0.031,-0.203 -0.031,-0.313 0,-0.515 0.312,-0.906 1.062,-1.359 l -0.922,0 0,-0.734 5.031,0 0,0.796 -2.609,0 c -1.125,0 -1.703,0.375 -1.719,1.61 z" /><path
         id="path220"
         style="fill:#00ff00;fill-opacity:1;fill-rule:nonzero;stroke:none"
         d="m 31.617,182.914 0.484,0 0,-5.766 -0.484,0 0,5.766 z" /><path
         id="path222"
         style="fill:#00ff00;fill-opacity:1;fill-rule:nonzero;stroke:none"
         d="m 30.398,187.457 -7,0 0,-0.797 2.61,0 c -0.516,-0.344 -0.781,-0.875 -0.781,-1.547 0,-1.297 1.015,-2.156 2.609,-2.156 1.703,0 2.703,0.828 2.703,2.187 0,0.688 -0.25,1.172 -0.875,1.594 l 0.734,0 0,0.719 z m -2.5,-0.797 c 1.172,0 1.891,-0.563 1.891,-1.406 0,-0.875 -0.734,-1.469 -1.906,-1.469 -1.172,0 -1.906,0.594 -1.906,1.469 0,0.859 0.765,1.406 1.921,1.406 z" /><path
         id="path224"
         style="fill:#00ff00;fill-opacity:1;fill-rule:nonzero;stroke:none"
         d="m 28.398,194.027 c -0.843,0 -1.343,-0.39 -1.687,-1.281 -0.297,0.625 -0.828,0.969 -1.531,0.969 -1.016,0 -1.782,-0.75 -1.782,-2.078 l 0,-2.829 7,0 0,3.157 c 0,1.25 -0.843,2.062 -2,2.062 z m -3.093,-1.203 c 0.703,0 1.109,-0.422 1.109,-1.406 l 0,-1.719 -2.219,0 0,1.719 c 0,0.984 0.407,1.406 1.11,1.406 z m 3.109,0.297 c 0.672,0 1.203,-0.406 1.203,-1.25 l 0,-2.172 -2.406,0 0,2.172 c 0,0.844 0.516,1.25 1.203,1.25 z" /><path
         id="path226"
         style="fill:#00ff00;fill-opacity:1;fill-rule:nonzero;stroke:none"
         d="m 28.477,200.429 c -0.86,0 -1.5,-0.531 -1.75,-1.484 l -0.469,-1.75 c -0.219,-0.844 -0.5,-1.156 -1.047,-1.156 -0.703,0 -1.234,0.625 -1.234,1.562 0,1.11 0.515,1.75 1.421,1.75 l 0,0.844 c -1.375,0 -2.171,-0.953 -2.171,-2.562 0,-1.532 0.843,-2.485 2.109,-2.485 0.859,0 1.391,0.453 1.641,1.375 l 0.453,1.735 c 0.234,0.875 0.593,1.281 1.14,1.281 0.766,0 1.219,-0.578 1.219,-1.781 0,-1.329 -0.672,-1.969 -1.672,-1.969 l 0,-0.86 c 1.656,0 2.453,1.125 2.453,2.766 0,1.781 -0.843,2.734 -2.093,2.734 z" /><path
         id="path228"
         style="fill:#00ff00;fill-opacity:1;fill-rule:nonzero;stroke:none"
         d="m 30.398,204.207 -6.796,0 0,-0.563 c 1.046,-0.297 1.187,-0.484 1.343,-1.781 l 0.61,0 0,1.5 4.843,0 0,0.844 z" /><path
         id="path230"
         style="fill:#00ff00;fill-opacity:1;fill-rule:nonzero;stroke:none"
         d="m 30.398,209.547 -6.796,0 0,-0.563 c 1.046,-0.297 1.187,-0.484 1.343,-1.781 l 0.61,0 0,1.5 4.843,0 0,0.844 z" /></g></g></svg>