<?xml version="1.0" encoding="UTF-8" standalone="no"?>
<svg
   xmlns:dc="http://purl.org/dc/elements/1.1/"
   xmlns:cc="http://creativecommons.org/ns#"
   xmlns:rdf="http://www.w3.org/1999/02/22-rdf-syntax-ns#"
   xmlns:svg="http://www.w3.org/2000/svg"
   xmlns="http://www.w3.org/2000/svg"
   viewBox="0 0 453.99875 253.99876"
   height="253.99876"
   width="453.99875"
   xml:space="preserve"
   version="1.1"
   id="svg2"><metadata
     id="metadata8"><rdf:RDF><cc:Work
         rdf:about=""><dc:format>image/svg+xml</dc:format><dc:type
           rdf:resource="http://purl.org/dc/dcmitype/StillImage" /></cc:Work></rdf:RDF></metadata><defs
     id="defs6" /><g
     transform="matrix(1.25,0,0,-1.25,0,253.99876)"
     id="g10"><g
       id="g12"><path
         id="path14"
         style="fill:#ffffff;fill-opacity:1;fill-rule:evenodd;stroke:none"
         d="m 0,203.199 363.199,0 L 363.199,0 0,0 0,203.199 Z" /><path
         id="path16"
         style="fill:none;stroke:#c0c0c0;stroke-width:0.80000001;stroke-linecap:square;stroke-linejoin:bevel;stroke-miterlimit:4;stroke-dasharray:0.8, 1.6;stroke-dashoffset:0;stroke-opacity:1"
         d="m 115.199,188 192,0" /><path
         id="path18"
         style="fill:none;stroke:#c0c0c0;stroke-width:0.80000001;stroke-linecap:square;stroke-linejoin:bevel;stroke-miterlimit:4;stroke-dasharray:0.8, 1.6;stroke-dashoffset:0;stroke-opacity:1"
         d="m 115.199,156.801 192,0" /><path
         id="path20"
         style="fill:none;stroke:#c0c0c0;stroke-width:0.80000001;stroke-linecap:square;stroke-linejoin:bevel;stroke-miterlimit:4;stroke-dasharray:0.8, 1.6;stroke-dashoffset:0;stroke-opacity:1"
         d="m 115.199,125.597 192,0" /><path
         id="path22"
         style="fill:none;stroke:#c0c0c0;stroke-width:0.80000001;stroke-linecap:square;stroke-linejoin:bevel;stroke-miterlimit:4;stroke-dasharray:0.8, 1.6;stroke-dashoffset:0;stroke-opacity:1"
         d="m 115.199,94.398 192,0" /><path
         id="path24"
         style="fill:none;stroke:#c0c0c0;stroke-width:0.80000001;stroke-linecap:square;stroke-linejoin:bevel;stroke-miterlimit:4;stroke-dasharray:0.8, 1.6;stroke-dashoffset:0;stroke-opacity:1"
         d="m 263.199,191.199 0,-128" /><path
         id="path26"
         style="fill:none;stroke:#000000;stroke-width:0.80000001;stroke-linecap:square;stroke-linejoin:bevel;stroke-miterlimit:4;stroke-dasharray:none;stroke-opacity:1"
         d="m 115.199,67.199 0,-8" /><path
         id="path28"
         style="fill:none;stroke:#000000;stroke-width:0.80000001;stroke-linecap:square;stroke-linejoin:bevel;stroke-miterlimit:4;stroke-dasharray:none;stroke-opacity:1"
         d="m 263.199,67.199 0,-8" /><path
         id="path30"
         style="fill:none;stroke:#000000;stroke-width:0.80000001;stroke-linecap:square;stroke-linejoin:bevel;stroke-miterlimit:4;stroke-dasharray:none;stroke-opacity:1"
         d="m 111.199,63.199 8,0" /><path
         id="path32"
         style="fill:none;stroke:#000000;stroke-width:0.80000001;stroke-linecap:square;stroke-linejoin:bevel;stroke-miterlimit:4;stroke-dasharray:none;stroke-opacity:1"
         d="m 111.199,94.398 8,0" /><path
         id="path34"
         style="fill:none;stroke:#000000;stroke-width:0.80000001;stroke-linecap:square;stroke-linejoin:bevel;stroke-miterlimit:4;stroke-dasharray:none;stroke-opacity:1"
         d="m 111.199,125.597 8,0" /><path
         id="path36"
         style="fill:none;stroke:#000000;stroke-width:0.80000001;stroke-linecap:square;stroke-linejoin:bevel;stroke-miterlimit:4;stroke-dasharray:none;stroke-opacity:1"
         d="m 111.199,156.801 8,0" /><path
         id="path38"
         style="fill:none;stroke:#000000;stroke-width:0.80000001;stroke-linecap:square;stroke-linejoin:bevel;stroke-miterlimit:4;stroke-dasharray:none;stroke-opacity:1"
         d="m 111.199,188 8,0" /><path
         id="path40"
         style="fill:none;stroke:#000000;stroke-width:0.80000001;stroke-linecap:square;stroke-linejoin:bevel;stroke-miterlimit:4;stroke-dasharray:none;stroke-opacity:1"
         d="m 115.199,191.199 192,0" /><path
         id="path42"
         style="fill:none;stroke:#000000;stroke-width:0.80000001;stroke-linecap:square;stroke-linejoin:bevel;stroke-miterlimit:4;stroke-dasharray:none;stroke-opacity:1"
         d="m 307.199,191.199 0,-128" /><path
         id="path44"
         style="fill:none;stroke:#000000;stroke-width:0.80000001;stroke-linecap:square;stroke-linejoin:bevel;stroke-miterlimit:4;stroke-dasharray:none;stroke-opacity:1"
         d="m 115.199,63.199 192,0" /><path
         id="path46"
         style="fill:none;stroke:#000000;stroke-width:0.80000001;stroke-linecap:square;stroke-linejoin:bevel;stroke-miterlimit:4;stroke-dasharray:none;stroke-opacity:1"
         d="m 115.199,191.199 0,-128" /><path
         id="path48"
         style="fill:none;stroke:#0000ff;stroke-width:0.80000001;stroke-linecap:square;stroke-linejoin:bevel;stroke-miterlimit:4;stroke-dasharray:none;stroke-opacity:1"
         d="m 129.969,119.855 0.07,0.125 0.066,0.125 0.071,0.125 0.066,0.125 0.281,0.5 0.071,0.121 0.07,0.125 0.074,0.125 0.071,0.125 0.074,0.125 0.07,0.125 0.149,0.25 0.07,0.125 0.223,0.375 0.074,0.121 0.078,0.125 0.148,0.25 0.078,0.125 0.075,0.125 0.156,0.25 0.078,0.122 0.313,0.5 0.082,0.125 0.078,0.125 0.082,0.125 0.078,0.121 0.574,0.875 0.086,0.121 0.082,0.125 0.172,0.25 0.082,0.125 0.172,0.25 0.086,0.121 0.09,0.125 0.171,0.25 0.09,0.125 0.086,0.125 0.09,0.125 0.09,0.121 0.359,0.5 0.094,0.125 0.09,0.121 0.094,0.125 0.089,0.125 0.282,0.375 0.094,0.121 0.093,0.125 0.098,0.125 0.094,0.125 0.097,0.125 0.094,0.125 0.098,0.121 0.293,0.375 0.101,0.125 0.098,0.121 0.101,0.125 0.098,0.125 0.203,0.25 0.102,0.121 0.304,0.375 0.106,0.125 0.102,0.121 0.421,0.5 0.106,0.122 0.105,0.125 0.11,0.125 0.105,0.125 0.11,0.125 0.109,0.121 0.328,0.375 0.109,0.121 0.227,0.25 0.109,0.125 0.114,0.121 0.226,0.25 0.117,0.125 0.114,0.121 0.117,0.125 0.113,0.125 0.117,0.125 0.118,0.121 0.234,0.25 0.121,0.125 0.117,0.121 0.242,0.25 0.121,0.121 0.364,0.375 0.125,0.121 0.125,0.125 0.121,0.125 0.125,0.121 0.125,0.125 0.129,0.125 0.125,0.122 0.125,0.125 0.258,0.25 0.128,0.121 0.129,0.125 0.133,0.125 0.129,0.121 0.266,0.25 0.129,0.121 0.136,0.125 0.133,0.125 0.133,0.121 0.137,0.125 0.133,0.121 0.273,0.25 0.137,0.121 0.14,0.125 0.137,0.125 0.141,0.121 0.14,0.125 0.141,0.121 0.281,0.25 0.145,0.121 0.289,0.25 0.144,0.121 0.145,0.125 0.144,0.122 0.149,0.125 0.144,0.121 0.297,0.25 0.153,0.121 0.148,0.125 0.152,0.121 0.149,0.125 0.156,0.121 0.305,0.25 0.156,0.121 0.152,0.125 0.156,0.121 0.157,0.125 0.156,0.121 0.16,0.125 0.156,0.121 0.161,0.125 0.16,0.121 0.16,0.125 0.164,0.121 0.16,0.125 0.164,0.122 0.164,0.125 0.164,0.121 0.164,0.125 0.168,0.121 0.168,0.125 0.336,0.242 0.168,0.125 0.172,0.121 0.168,0.125 0.172,0.121 0.172,0.125 0.172,0.121 0.175,0.125 0.352,0.242 0.176,0.125 0.176,0.122 0.179,0.125 0.36,0.242 0.179,0.125 0.18,0.121 0.184,0.121 0.183,0.125 0.367,0.242 0.188,0.125 0.183,0.121 0.188,0.121 0.187,0.125 0.383,0.242 0.188,0.125 0.191,0.122 0.195,0.121 0.192,0.125 0.586,0.363 0.195,0.125 0.598,0.363 0.203,0.125 0.199,0.121 0.61,0.364 0.207,0.125 0.621,0.363 0.422,0.242 0.21,0.125 0.422,0.242 0.43,0.242 0.219,0.122 0.215,0.121 0.656,0.363 0.223,0.121 0.222,0.125 0.446,0.242 0.679,0.363 0.231,0.122 0.226,0.121 0.231,0.121 0.234,0.121 0.231,0.121 0.234,0.121 0.234,0.117 0.235,0.121 0.715,0.364 0.242,0.121 0.238,0.121 0.242,0.121 0.246,0.121 0.242,0.117 0.247,0.121 0.25,0.121 0.246,0.121 0.5,0.243 0.25,0.117 0.761,0.363 0.258,0.117 0.516,0.242 0.262,0.122 0.257,0.117 0.262,0.121 0.266,0.121 0.265,0.117 0.532,0.242 0.269,0.117 0.27,0.122 0.269,0.117 0.547,0.242 0.273,0.117 0.278,0.121 0.277,0.117 0.277,0.122 0.278,0.117 0.281,0.121 0.285,0.117 0.281,0.121 0.571,0.234 0.289,0.122 0.289,0.117 0.289,0.121 0.586,0.234 0.293,0.121 0.594,0.235 0.296,0.121 0.602,0.234 0.301,0.121 0.609,0.235 0.617,0.234 0.309,0.121 0.938,0.352 0.949,0.351 0.64,0.235 0.973,0.351 0.656,0.235 0.996,0.351 1.008,0.352 0.34,0.113 0.34,0.117 0.687,0.234 0.348,0.114 0.695,0.234 0.352,0.113 0.703,0.235 0.355,0.113 0.36,0.117 0.359,0.114 0.36,0.117 0.363,0.113 0.363,0.117 0.363,0.113 0.368,0.118 0.371,0.113 0.367,0.117 0.375,0.113 0.371,0.114 0.375,0.117 0.758,0.226 0.383,0.118 0.765,0.226 0.774,0.227 0.39,0.117 0.391,0.113 0.789,0.227 0.797,0.226 1.207,0.34 0.406,0.113 0.406,0.11 0.414,0.113 0.411,0.113 0.828,0.227 0.418,0.109 0.843,0.227 0.422,0.109 0.426,0.114 0.426,0.109 0.43,0.113 0.433,0.114 0.867,0.218 0.438,0.114 0.437,0.109 0.442,0.113 0.89,0.219 0.45,0.109 0.449,0.114 0.449,0.109 0.457,0.109 0.453,0.11 0.457,0.109 0.461,0.109 1.395,0.329 0.937,0.218 0.473,0.11 0.476,0.109 0.477,0.106 0.48,0.109 0.485,0.109 0.48,0.106 0.977,0.219 0.492,0.105 0.492,0.109 0.992,0.211 0.5,0.11 1.008,0.211 0.508,0.109 0.508,0.105 1.023,0.211 0.52,0.106 0.515,0.105 1.047,0.211 1.055,0.211 0.531,0.106 0.532,0.101 0.535,0.106 0.539,0.105 0.543,0.106 0.543,0.101 0.543,0.106 0.55,0.101 0.551,0.106 0.551,0.101 0.559,0.102 0.554,0.105 1.125,0.203 0.567,0.102 1.14,0.203 0.575,0.102 1.156,0.203 0.582,0.101 0.586,0.102 0.586,0.098 0.59,0.101 0.593,0.102 0.598,0.097 0.598,0.102 1.203,0.195 0.609,0.102 1.219,0.195 0.617,0.098 0.617,0.101 0.621,0.098 0.625,0.098 0.625,0.093 0.629,0.098 0.633,0.098 0.637,0.097 0.636,0.094 0.641,0.098 0.645,0.097 1.296,0.188 0.657,0.098 1.312,0.187 1.328,0.188 0.668,0.093 0.672,0.094 1.352,0.188 0.683,0.093 0.684,0.09 0.687,0.094 0.688,0.09 0.695,0.094 0.696,0.089 0.703,0.09 0.703,0.094 0.703,0.09 0.711,0.09 1.43,0.179 0.718,0.086 0.723,0.09 0.727,0.09 0.73,0.086 0.73,0.09 1.477,0.172 0.742,0.089 1.5,0.172 1.508,0.172 0.762,0.082 1.531,0.172 0.773,0.082 0.774,0.086 0.777,0.082 0.782,0.082 0.785,0.082 0.789,0.082 0.793,0.082 0.797,0.082 0.8,0.082 0.805,0.082 0.805,0.078 0.812,0.083 1.633,0.156 1.648,0.156 1.665,0.156 0.839,0.078 0.84,0.075 0.848,0.078 0.848,0.074 0.851,0.074 0.859,0.074 1.727,0.149 1.742,0.148 1.758,0.141 0.367,0.031" /><path
         id="path50"
         style="fill:none;stroke:#ff0000;stroke-width:0.80000001;stroke-linecap:square;stroke-linejoin:bevel;stroke-miterlimit:4;stroke-dasharray:none;stroke-opacity:1"
         d="m 174.195,63.199 0.157,0.363 0.546,1.274 0.278,0.633 0.277,0.636 0.555,1.266 0.281,0.637 0.285,0.632 0.281,0.633 0.286,0.633 0.285,0.637 0.867,1.898 0.586,1.266 0.293,0.629 0.89,1.898 0.301,0.633 0.301,0.629 0.301,0.633 0.305,0.629 0.304,0.632 0.309,0.633 0.308,0.629 0.309,0.633 0.625,1.258 0.313,0.633 0.949,1.886 0.32,0.633 0.32,0.629 0.973,1.887 0.656,1.258 0.996,1.886 1.008,1.887 0.68,1.258 0.344,0.625 0.343,0.629 0.696,1.258 0.347,0.625 0.703,1.257 0.352,0.625 0.355,0.629 0.36,0.625 0.359,0.629 0.36,0.625 0.363,0.629 0.726,1.25 0.368,0.629 0.371,0.625 0.367,0.625 0.375,0.629 0.371,0.625 0.375,0.625 0.758,1.25 0.765,1.25 0.383,0.629 0.387,0.625 0.387,0.621 0.781,1.25 0.789,1.25 0.398,0.625 0.399,0.621 0.805,1.25 0.402,0.621 0.406,0.621 0.406,0.625 0.414,0.621 0.411,0.625 0.828,1.242 0.418,0.622 0.422,0.621 0.421,0.625 0.422,0.621 0.426,0.617 0.426,0.621 0.43,0.621 0.433,0.621 0.434,0.617 0.433,0.621 0.875,1.235 0.442,0.621 0.89,1.234 0.45,0.614 0.898,1.234 0.457,0.613 0.453,0.617 0.457,0.614 0.461,0.613 0.93,1.227 0.465,0.609 0.468,0.613 0.469,0.61 0.473,0.609 0.953,1.219 0.48,0.605 0.485,0.61 0.48,0.605 0.489,0.602 0.488,0.605 0.984,1.203 0.496,0.602 0.496,0.597 0.5,0.602 0.504,0.594 0.504,0.597 1.016,1.188 1.023,1.18 0.52,0.589 0.515,0.586 0.524,0.586 0.523,0.582 0.528,0.582 0.527,0.578 0.531,0.579 0.532,0.574 0.535,0.574 0.539,0.57 0.543,0.571 0.543,0.566 0.543,0.563 0.55,0.562 0.551,0.555 0.551,0.558 0.559,0.551 0.554,0.551 0.563,0.547 0.562,0.543 0.567,0.539 0.57,0.535 0.57,0.531 0.575,0.531 1.156,1.047 0.582,0.516 1.172,1.023 0.59,0.504 0.593,0.5 1.196,0.985 0.601,0.484 0.602,0.481 1.218,0.945 0.61,0.461 0.617,0.461 0.617,0.453 0.621,0.445 0.625,0.442 0.625,0.433 0.629,0.43 0.633,0.422 0.637,0.418 0.636,0.41 0.641,0.402 0.645,0.395 0.648,0.39 0.648,0.383 0.657,0.379 0.656,0.367 0.656,0.364 0.664,0.355 0.664,0.348 0.668,0.339 0.672,0.336 0.676,0.325 0.676,0.32 0.683,0.312 0.684,0.305 0.687,0.297 0.688,0.293 0.695,0.281 0.696,0.278 0.703,0.269 0.703,0.262 0.703,0.254 0.711,0.25 0.715,0.242 0.715,0.234 0.718,0.227 0.723,0.223 0.727,0.214 0.73,0.207 0.73,0.204 0.739,0.195 0.738,0.187 0.742,0.184 0.75,0.18 0.75,0.171 1.508,0.329 0.762,0.152 0.765,0.152 0.766,0.145 1.547,0.273 0.777,0.129 0.782,0.125 0.785,0.121 0.789,0.117 0.793,0.11 0.797,0.109 0.8,0.102 0.805,0.101 0.805,0.098 0.812,0.09 0.817,0.09 0.816,0.086 0.824,0.082 0.824,0.078 1.665,0.148 0.839,0.071 0.84,0.066 1.696,0.125 0.851,0.059 0.859,0.054 1.727,0.11 0.871,0.046 0.871,0.051 0.879,0.043 0.879,0.047 0.367,0.016" /><path
         id="path52"
         style="fill:none;stroke:#ff00ff;stroke-width:0.80000001;stroke-linecap:square;stroke-linejoin:bevel;stroke-miterlimit:4;stroke-dasharray:none;stroke-opacity:1"
         d="m 129.969,149.851 0.07,0.11 0.066,0.105 0.071,0.11 0.066,0.105 0.141,0.211 0.07,0.109 0.211,0.317 0.074,0.105 0.071,0.106 0.074,0.105 0.07,0.106 0.074,0.105 0.075,0.102 0.07,0.105 0.148,0.211 0.075,0.102 0.074,0.105 0.078,0.102 0.074,0.105 0.074,0.102 0.078,0.105 0.075,0.102 0.078,0.101 0.078,0.106 0.391,0.508 0.082,0.101 0.078,0.102 0.082,0.101 0.078,0.102 0.082,0.101 0.082,0.098 0.164,0.203 0.082,0.098 0.082,0.101 0.082,0.098 0.086,0.098 0.082,0.101 0.172,0.196 0.082,0.097 0.086,0.102 0.172,0.195 0.09,0.098 0.086,0.094 0.085,0.097 0.09,0.098 0.086,0.097 0.09,0.094 0.09,0.098 0.09,0.094 0.09,0.097 0.089,0.094 0.09,0.098 0.094,0.093 0.09,0.094 0.094,0.094 0.089,0.094 0.469,0.468 0.098,0.094 0.094,0.09 0.097,0.094 0.094,0.09 0.098,0.093 0.293,0.27 0.101,0.094 0.098,0.09 0.101,0.089 0.098,0.086 0.305,0.27 0.101,0.086 0.102,0.09 0.101,0.086 0.106,0.089 0.102,0.086 0.21,0.172 0.106,0.09 0.105,0.086 0.106,0.082 0.105,0.086 0.11,0.086 0.105,0.086 0.11,0.082 0.109,0.086 0.109,0.082 0.11,0.086 0.218,0.164 0.227,0.164 0.109,0.082 0.227,0.164 0.113,0.078 0.117,0.082 0.114,0.078 0.117,0.082 0.113,0.078 0.469,0.313 0.121,0.078 0.117,0.078 0.121,0.074 0.121,0.079 0.243,0.148 0.121,0.078 0.121,0.074 0.25,0.149 0.121,0.07 0.25,0.148 0.129,0.071 0.125,0.074 0.125,0.07 0.515,0.282 0.133,0.07 0.129,0.066 0.133,0.071 0.133,0.066 0.129,0.07 0.136,0.067 0.266,0.133 0.137,0.066 0.133,0.062 0.136,0.067 0.137,0.062 0.137,0.067 0.14,0.062 0.137,0.063 0.281,0.125 0.141,0.058 0.141,0.063 0.14,0.058 0.145,0.063 0.578,0.234 0.144,0.055 0.149,0.059 0.144,0.054 0.297,0.11 0.153,0.054 0.148,0.055 0.152,0.055 0.149,0.051 0.156,0.054 0.305,0.102 0.156,0.051 0.152,0.05 0.156,0.047 0.157,0.051 0.156,0.047 0.16,0.047 0.156,0.047 0.321,0.093 0.16,0.043 0.164,0.043 0.16,0.043 0.492,0.129 0.164,0.039 0.168,0.043 0.336,0.078 0.168,0.035 0.168,0.04 0.172,0.035 0.168,0.035 0.516,0.105 0.879,0.157 0.898,0.136 0.551,0.071 0.183,0.019 0.188,0.024 0.183,0.019 0.188,0.02 0.187,0.015 0.192,0.02 0.191,0.015 0.188,0.016 0.191,0.016 0.195,0.011 0.192,0.012 0.391,0.024 0.39,0.015 0.199,0.008 0.2,0.004 0.199,0.008 0.203,0.004 0.199,0 0.203,0.004 0.203,0 0.204,-0.004 0.207,0 0.207,-0.004 0.207,-0.008 0.207,-0.004 0.422,-0.016 0.632,-0.035 0.43,-0.031 0.219,-0.02 0.215,-0.015 0.218,-0.024 0.219,-0.019 0.219,-0.024 0.668,-0.082 0.223,-0.031 0.453,-0.062 0.226,-0.039 0.231,-0.036 0.226,-0.039 0.231,-0.043 0.234,-0.043 0.231,-0.043 0.234,-0.046 0.469,-0.102 0.476,-0.109 0.239,-0.059 0.242,-0.059 0.238,-0.062 0.242,-0.066 0.246,-0.067 0.242,-0.07 0.247,-0.074 0.25,-0.075 0.246,-0.078 0.5,-0.164 0.25,-0.09 0.507,-0.179 0.254,-0.098 0.258,-0.098 0.258,-0.101 0.258,-0.106 0.262,-0.109 0.257,-0.113 0.262,-0.118 0.266,-0.117 0.265,-0.125 0.266,-0.129 0.266,-0.132 0.269,-0.133 0.27,-0.141 0.269,-0.144 0.547,-0.305 0.273,-0.16 0.278,-0.164 0.277,-0.168 0.277,-0.172 0.278,-0.18 0.281,-0.187 0.285,-0.192 0.281,-0.195 0.286,-0.203 0.285,-0.211 0.289,-0.215 0.289,-0.223 0.289,-0.23 0.293,-0.234 0.293,-0.247 0.293,-0.253 0.297,-0.258 0.297,-0.27 0.296,-0.277 0.301,-0.289 0.301,-0.293 0.301,-0.309 0.305,-0.316 0.304,-0.324 0.309,-0.336 0.308,-0.352 0.309,-0.359 0.312,-0.375 0.313,-0.383 0.313,-0.402 0.316,-0.415 0.316,-0.425 0.317,-0.446 0.32,-0.461 0.32,-0.476 0.325,-0.496 0.324,-0.512 0.324,-0.535 0.328,-0.555 0.328,-0.578 0.332,-0.601 0.332,-0.625 0.332,-0.653 0.336,-0.679 0.336,-0.708 0.336,-0.742 0.34,-0.773 0.34,-0.813 0.344,-0.847 0.343,-0.895 0.348,-0.937 0.348,-0.985 0.347,-1.039 0.352,-1.097 0.351,-1.164 0.352,-1.231 0.355,-1.309 0.36,-1.394 0.359,-1.492 0.36,-1.598 0.363,-1.723 0.363,-1.867 0.363,-2.027 0.368,-2.215 0.371,-2.449 0.367,-2.719 0.375,-3.059 0.371,-3.488 0.375,-4.047 0.379,-4.808 0.379,-5.91 0.383,-7.645 0.382,-10.797 0.301,-14.535" /><path
         id="path54"
         style="fill:none;stroke:#ff00ff;stroke-width:0.80000001;stroke-linecap:square;stroke-linejoin:bevel;stroke-miterlimit:4;stroke-dasharray:none;stroke-opacity:1"
         d="m 199.652,63.199 0.293,14.352 0.391,11.175 0.394,7.93 0.395,6.156 0.398,5.035 0.399,4.262 0.402,3.692 0.403,3.261 0.402,2.914 0.406,2.637 0.406,2.41 0.414,2.211 0.411,2.047 0.414,1.898 0.414,1.778 0.418,1.66 0.422,1.566 0.421,1.473 0.422,1.395 0.426,1.316 0.426,1.254 0.43,1.191 0.433,1.133 0.434,1.078 0.433,1.031 0.438,0.985 0.437,0.945 0.442,0.899 0.445,0.863 0.445,0.828 0.45,0.793 0.449,0.758 0.449,0.73 0.457,0.699 0.453,0.668 0.457,0.645 0.461,0.617 0.465,0.594 0.465,0.566 0.465,0.543 0.468,0.524 0.469,0.5 0.473,0.476 0.476,0.461 0.477,0.438 0.48,0.414 0.485,0.402 0.48,0.379 0.489,0.359 0.488,0.344 0.492,0.324 0.492,0.309 0.496,0.289 0.496,0.27 0.5,0.257 0.504,0.235 0.504,0.222 0.508,0.204 0.508,0.183 0.512,0.168 0.511,0.152 0.52,0.133 0.515,0.114 0.524,0.097 0.523,0.078 0.528,0.059 0.527,0.035 0.531,0.02 0.532,-0.004 0.535,-0.028 0.539,-0.05 0.543,-0.075 0.543,-0.097 0.543,-0.129 0.55,-0.156 0.551,-0.188 0.551,-0.219 0.559,-0.258 0.554,-0.292 0.563,-0.336 0.562,-0.383 0.567,-0.434 0.57,-0.488 0.57,-0.551 0.575,-0.617 0.578,-0.695 0.578,-0.782 0.582,-0.879 0.586,-0.988 0.586,-1.121 0.59,-1.269 0.593,-1.446 0.598,-1.66 0.598,-1.91 0.601,-2.223 0.602,-2.617 0.609,-3.125 0.609,-3.805 0.61,-4.761 0.617,-6.215 0.617,-8.676 0.621,-13.844 0.625,-32.937 0.625,10.832 0.629,27.414 0.633,13.777 0.637,9.356 0.636,7.117 0.641,5.742 0.645,4.793 0.648,4.094 0.648,3.547 0.657,3.109 0.656,2.738 0.656,2.422 0.664,2.149 0.664,1.91 0.668,1.699 0.672,1.512 0.676,1.343 0.676,1.196 0.683,1.062 0.684,0.942 0.687,0.84 0.688,0.746 0.695,0.66 0.696,0.59 0.703,0.523 0.703,0.465 0.703,0.414 0.711,0.367 0.715,0.332 0.715,0.293 0.718,0.262 0.723,0.234 0.727,0.207 0.73,0.188 0.73,0.172 0.739,0.148 0.738,0.137 0.742,0.121 0.75,0.113 0.75,0.098 0.754,0.09 0.754,0.082 0.762,0.074 0.765,0.066 0.766,0.059 0.773,0.055 0.774,0.05 0.777,0.047 0.782,0.039 0.785,0.039 0.789,0.036 0.793,0.031 0.797,0.027 0.8,0.028 1.61,0.046 0.812,0.02 0.817,0.019 0.816,0.016 1.648,0.031 1.665,0.024 1.679,0.023 0.848,0.008 0.848,0.012 0.851,0.008 0.859,0.007 0.864,0.004 0.863,0.008 0.871,0.008 0.871,0.004 0.879,0.004 0.879,0.008 0.367,0" /><path
         id="path56"
         style="fill:none;stroke:#00ff00;stroke-width:0.80000001;stroke-linecap:square;stroke-linejoin:bevel;stroke-miterlimit:4;stroke-dasharray:none;stroke-opacity:1"
         d="m 129.969,139.242 0.07,0.117 0.066,0.117 0.071,0.118 0.066,0.117 0.422,0.703 0.074,0.117 0.071,0.113 0.074,0.118 0.07,0.117 0.149,0.234 0.07,0.113 0.148,0.235 0.075,0.113 0.074,0.117 0.078,0.117 0.074,0.114 0.074,0.117 0.078,0.117 0.075,0.113 0.078,0.118 0.078,0.113 0.078,0.117 0.078,0.113 0.078,0.117 0.157,0.227 0.082,0.117 0.078,0.113 0.082,0.118 0.078,0.113 0.164,0.227 0.082,0.117 0.328,0.453 0.086,0.113 0.082,0.113 0.086,0.118 0.086,0.113 0.082,0.113 0.172,0.227 0.086,0.109 0.09,0.113 0.171,0.227 0.09,0.113 0.086,0.113 0.09,0.11 0.27,0.34 0.089,0.109 0.09,0.113 0.094,0.11 0.09,0.113 0.094,0.109 0.089,0.114 0.094,0.109 0.094,0.113 0.094,0.11 0.094,0.113 0.093,0.109 0.098,0.11 0.094,0.113 0.097,0.109 0.094,0.11 0.391,0.437 0.101,0.114 0.098,0.109 0.101,0.105 0.098,0.11 0.508,0.547 0.101,0.105 0.106,0.109 0.102,0.11 0.105,0.105 0.105,0.11 0.106,0.105 0.105,0.11 0.106,0.105 0.105,0.109 0.11,0.106 0.215,0.215 0.546,0.527 0.227,0.211 0.109,0.105 0.34,0.317 0.117,0.105 0.114,0.102 0.117,0.105 0.113,0.106 0.117,0.101 0.118,0.106 0.117,0.101 0.117,0.106 0.121,0.101 0.117,0.106 0.363,0.305 0.122,0.105 0.242,0.203 0.25,0.203 0.121,0.102 0.125,0.098 0.125,0.101 0.129,0.102 0.125,0.101 0.125,0.098 0.129,0.101 0.129,0.098 0.128,0.102 0.129,0.097 0.133,0.102 0.129,0.098 0.266,0.195 0.129,0.098 0.136,0.101 0.133,0.098 0.133,0.093 0.137,0.098 0.133,0.098 0.273,0.195 0.137,0.094 0.14,0.098 0.137,0.093 0.141,0.098 0.14,0.094 0.141,0.097 0.281,0.188 0.867,0.562 0.149,0.094 0.144,0.09 0.149,0.094 0.148,0.09 0.153,0.093 0.148,0.09 0.152,0.09 0.149,0.094 0.156,0.09 0.305,0.179 0.156,0.09 0.152,0.09 0.156,0.086 0.313,0.18 0.16,0.085 0.156,0.09 0.321,0.172 0.16,0.09 0.164,0.086 0.16,0.086 0.328,0.172 0.164,0.082 0.164,0.086 0.168,0.086 0.168,0.082 0.168,0.086 0.336,0.164 0.172,0.082 0.168,0.086 0.172,0.082 0.172,0.078 0.172,0.082 0.351,0.164 0.176,0.078 0.176,0.082 0.176,0.078 0.898,0.391 0.184,0.078 0.183,0.074 0.184,0.078 0.183,0.075 0.188,0.078 0.183,0.074 0.375,0.148 0.192,0.075 0.191,0.07 0.188,0.074 0.191,0.074 0.195,0.071 0.192,0.07 0.195,0.07 0.196,0.074 0.195,0.067 0.195,0.07 0.399,0.141 0.199,0.066 0.203,0.067 0.199,0.07 0.406,0.133 0.204,0.062 0.414,0.133 0.414,0.125 1.054,0.313 0.43,0.117 0.219,0.062 0.215,0.059 0.218,0.055 0.438,0.117 0.891,0.218 0.453,0.11 0.226,0.051 0.231,0.05 0.226,0.051 0.231,0.051 0.234,0.051 0.231,0.051 0.703,0.14 0.476,0.094 0.239,0.043 0.242,0.047 0.238,0.043 0.242,0.043 0.246,0.039 0.242,0.043 0.247,0.039 0.25,0.039 0.246,0.039 0.25,0.039 0.5,0.07 0.761,0.106 0.774,0.093 0.262,0.032 0.257,0.027 0.262,0.027 0.531,0.055 0.532,0.047 0.269,0.023 0.27,0.02 0.269,0.023 0.274,0.02 0.273,0.016 0.273,0.019 0.555,0.031 0.555,0.024 0.281,0.011 0.285,0.012 0.281,0.008 0.286,0.008 0.285,0.004 0.867,0.011 0.586,0 0.293,-0.003 0.594,-0.008 0.296,-0.008 0.301,-0.012 0.301,-0.008 0.301,-0.011 0.609,-0.032 0.309,-0.015 0.308,-0.02 0.309,-0.023 0.312,-0.02 0.626,-0.054 0.316,-0.028 0.316,-0.031 0.317,-0.035 0.64,-0.07 0.325,-0.043 0.324,-0.039 0.324,-0.047 0.328,-0.047 0.328,-0.051 0.332,-0.051 0.332,-0.054 0.332,-0.059 0.672,-0.125 0.336,-0.066 0.34,-0.071 0.34,-0.074 0.344,-0.074 0.343,-0.082 0.348,-0.082 0.348,-0.086 0.347,-0.09 0.352,-0.094 0.351,-0.097 0.352,-0.102 0.355,-0.106 0.36,-0.109 0.719,-0.234 0.363,-0.125 0.363,-0.129 0.363,-0.133 0.368,-0.141 0.371,-0.144 0.367,-0.149 0.375,-0.156 0.371,-0.16 0.375,-0.168 0.379,-0.176 0.379,-0.179 0.383,-0.188 0.382,-0.195 0.383,-0.203 0.387,-0.211 0.387,-0.215 0.39,-0.231 0.391,-0.234 0.394,-0.242 0.395,-0.254 0.398,-0.266 0.399,-0.273 0.402,-0.285 0.403,-0.297 0.402,-0.309 0.406,-0.324 0.406,-0.332 0.414,-0.348 0.411,-0.363 0.414,-0.379 0.414,-0.394 0.418,-0.411 0.422,-0.425 0.421,-0.45 0.422,-0.464 0.426,-0.489 0.426,-0.511 0.43,-0.532 0.433,-0.562 0.434,-0.582 0.433,-0.617 0.438,-0.645 0.437,-0.676 0.442,-0.715 0.445,-0.75 0.445,-0.789 0.45,-0.836 0.449,-0.882 0.449,-0.938 0.457,-0.992 0.453,-1.055 0.457,-1.121 0.461,-1.199 0.465,-1.281 0.465,-1.379 0.465,-1.481 0.468,-1.605 0.469,-1.738 0.473,-1.903 0.476,-2.086 0.477,-2.304 0.48,-2.571 0.485,-2.894 0.48,-3.305 0.489,-3.836 0.488,-4.551 0.492,-5.566 0.492,-7.145 0.496,-9.894 0.496,-16.055 0.09,-8.074" /><path
         id="path58"
         style="fill:none;stroke:#00ff00;stroke-width:0.80000001;stroke-linecap:square;stroke-linejoin:bevel;stroke-miterlimit:4;stroke-dasharray:none;stroke-opacity:1"
         d="m 224.484,63.199 0.422,18.813 0.508,12.242 0.508,8.476 0.512,6.504 0.511,5.278 0.52,4.449 0.515,3.84 0.524,3.382 0.523,3.016 0.528,2.723 0.527,2.476 0.531,2.27 0.532,2.094 0.535,1.937 0.539,1.801 0.543,1.679 0.543,1.571 0.543,1.472 0.55,1.379 0.551,1.297 0.551,1.219 0.559,1.148 0.554,1.079 0.563,1.015 0.562,0.957 0.567,0.895 0.57,0.84 0.57,0.785 0.575,0.73 0.578,0.68 0.578,0.629 0.582,0.578 0.586,0.527 0.586,0.477 0.59,0.426 0.593,0.371 0.598,0.316 0.598,0.258 0.601,0.195 0.602,0.133 0.609,0.063 0.609,-0.016 0.61,-0.102 0.617,-0.195 0.617,-0.305 0.621,-0.433 0.625,-0.578 0.625,-0.758 0.629,-0.973 0.633,-1.242 0.637,-1.586 0.636,-2.035 0.641,-2.649 0.645,-3.519 0.648,-4.848 0.648,-7.078 0.657,-11.59 0.656,-25.984 0.656,-4.883 0.664,33.727 0.664,15.668 0.668,10.425 0.672,7.727 0.676,5.965 0.676,4.668 0.683,3.648 0.684,2.836 0.687,2.18 0.688,1.664 0.695,1.262 0.696,0.957 0.703,0.718 0.703,0.539 0.703,0.411 0.711,0.304 0.715,0.235 0.715,0.175 0.718,0.133 0.723,0.102 0.727,0.074 0.73,0.059 0.73,0.043 0.739,0.031 0.738,0.023 0.742,0.02 0.75,0.012 0.75,0.007 0.754,0.008 0.754,0.004 0.762,0.004 0.765,0 0.766,0.004 2.324,0 0.782,-0.004 3.964,0 0.805,-0.004 17.242,0" /><path
         id="path60"
         style="fill:#000000;fill-opacity:1;fill-rule:nonzero;stroke:none"
         d="m 116.859,52.066 c 0,2.36 -0.75,3.531 -2.218,3.531 -1.469,0 -2.235,-1.187 -2.235,-3.468 0,-2.297 0.782,-3.469 2.235,-3.469 1.437,0 2.218,1.172 2.218,3.406 z M 116,52.144 c 0,-1.922 -0.438,-2.781 -1.375,-2.781 -0.891,0 -1.344,0.891 -1.344,2.75 0,1.875 0.453,2.734 1.36,2.734 0.906,0 1.359,-0.875 1.359,-2.703 z" /><path
         id="path62"
         style="fill:#000000;fill-opacity:1;fill-rule:nonzero;stroke:none"
         d="m 256.129,48.801 0,6.796 -0.563,0 c -0.296,-1.046 -0.484,-1.187 -1.781,-1.343 l 0,-0.61 1.5,0 0,-4.843 0.844,0 z" /><path
         id="path64"
         style="fill:#000000;fill-opacity:1;fill-rule:nonzero;stroke:none"
         d="m 263.059,51.082 c 0,0.734 -0.063,1.187 -0.204,1.562 -0.328,0.828 -1.093,1.328 -2.031,1.328 -1.406,0 -2.297,-1.031 -2.297,-2.687 0,-1.656 0.86,-2.625 2.282,-2.625 1.14,0 1.937,0.656 2.14,1.672 l -0.797,0 c -0.218,-0.672 -0.672,-0.938 -1.312,-0.938 -0.844,0 -1.469,0.532 -1.485,1.688 l 3.704,0 z m -0.86,0.719 c 0,0 0,-0.047 0,-0.063 l -2.828,0 c 0.078,0.891 0.641,1.5 1.438,1.5 0.796,0 1.39,-0.656 1.39,-1.437 z" /><path
         id="path66"
         style="fill:#000000;fill-opacity:1;fill-rule:nonzero;stroke:none"
         d="m 268.367,52.363 c 0,2.125 -0.75,3.234 -2.297,3.234 -1.297,0 -2.234,-0.921 -2.234,-2.25 0,-1.265 0.875,-2.125 2.094,-2.125 0.64,0 1.109,0.235 1.562,0.766 -0.015,-1.656 -0.547,-2.578 -1.515,-2.578 -0.594,0 -1.016,0.375 -1.141,1.016 l -0.844,0 c 0.156,-1.11 0.891,-1.766 1.922,-1.766 1.594,0 2.453,1.344 2.453,3.703 z m -0.922,1 c 0,-0.828 -0.593,-1.391 -1.422,-1.391 -0.812,0 -1.312,0.532 -1.312,1.438 0,0.875 0.562,1.453 1.344,1.453 0.797,0 1.39,-0.609 1.39,-1.5 z" /><path
         id="path68"
         style="fill:#000000;fill-opacity:1;fill-rule:nonzero;stroke:none"
         d="m 91.637,61.398 2.281,0 0,-0.703 -2.281,0 0,0.703 z" /><path
         id="path70"
         style="fill:#000000;fill-opacity:1;fill-rule:nonzero;stroke:none"
         d="m 99.383,60.023 0,0.766 -1,0 0,4.406 -0.625,0 -3.094,-4.281 0,-0.891 2.875,0 0,-1.625 0.844,0 0,1.625 1,0 z m -1.844,0.766 -2.141,0 2.141,2.969 0,-2.969 z" /><path
         id="path72"
         style="fill:#000000;fill-opacity:1;fill-rule:nonzero;stroke:none"
         d="m 104.594,61.664 c 0,2.359 -0.75,3.531 -2.219,3.531 -1.469,0 -2.234,-1.187 -2.234,-3.469 0,-2.297 0.781,-3.468 2.234,-3.468 1.437,0 2.219,1.171 2.219,3.406 z m -0.86,0.078 c 0,-1.922 -0.437,-2.781 -1.375,-2.781 -0.89,0 -1.343,0.89 -1.343,2.75 0,1.875 0.453,2.734 1.359,2.734 0.906,0 1.359,-0.875 1.359,-2.703 z" /><path
         id="path74"
         style="fill:#000000;fill-opacity:1;fill-rule:nonzero;stroke:none"
         d="m 91.637,92.597 2.281,0 0,-0.703 -2.281,0 0,0.703 z" /><path
         id="path76"
         style="fill:#000000;fill-opacity:1;fill-rule:nonzero;stroke:none"
         d="m 99.258,91.566 c 0,0.828 -0.344,1.313 -1.156,1.594 0.64,0.25 0.953,0.687 0.953,1.375 0,1.172 -0.782,1.859 -2.078,1.859 -1.375,0 -2.094,-0.75 -2.125,-2.187 l 0.843,0 c 0.016,1 0.438,1.453 1.297,1.453 0.75,0 1.203,-0.438 1.203,-1.156 0,-0.735 -0.328,-1.032 -1.672,-1.032 l 0,-0.703 0.454,0 c 0.937,0 1.406,-0.453 1.406,-1.203 0,-0.859 -0.516,-1.359 -1.406,-1.359 -0.922,0 -1.375,0.453 -1.422,1.437 l -0.844,0 c 0.094,-1.515 0.844,-2.187 2.234,-2.187 1.407,0 2.313,0.828 2.313,2.109 z" /><path
         id="path78"
         style="fill:#000000;fill-opacity:1;fill-rule:nonzero;stroke:none"
         d="m 104.594,92.863 c 0,2.359 -0.75,3.531 -2.219,3.531 -1.469,0 -2.234,-1.187 -2.234,-3.468 0,-2.297 0.781,-3.469 2.234,-3.469 1.437,0 2.219,1.172 2.219,3.406 z m -0.86,0.078 c 0,-1.922 -0.437,-2.781 -1.375,-2.781 -0.89,0 -1.343,0.891 -1.343,2.75 0,1.875 0.453,2.734 1.359,2.734 0.906,0 1.359,-0.875 1.359,-2.703 z" /><path
         id="path80"
         style="fill:#000000;fill-opacity:1;fill-rule:nonzero;stroke:none"
         d="m 91.637,123.801 2.281,0 0,-0.703 -2.281,0 0,0.703 z" /><path
         id="path82"
         style="fill:#000000;fill-opacity:1;fill-rule:nonzero;stroke:none"
         d="m 99.305,125.613 c 0,1.141 -0.891,1.984 -2.188,1.984 -1.39,0 -2.187,-0.703 -2.234,-2.359 l 0.844,0 c 0.062,1.141 0.531,1.625 1.375,1.625 0.765,0 1.328,-0.547 1.328,-1.281 0,-0.531 -0.313,-0.985 -0.907,-1.344 l -0.89,-0.5 c -1.422,-0.797 -1.828,-1.437 -1.906,-2.937 l 4.531,0 0,0.828 -3.578,0 c 0.078,0.562 0.39,0.922 1.218,1.406 l 0.969,0.516 c 0.938,0.515 1.438,1.218 1.438,2.062 z" /><path
         id="path84"
         style="fill:#000000;fill-opacity:1;fill-rule:nonzero;stroke:none"
         d="m 104.594,124.066 c 0,2.36 -0.75,3.531 -2.219,3.531 -1.469,0 -2.234,-1.187 -2.234,-3.468 0,-2.297 0.781,-3.469 2.234,-3.469 1.437,0 2.219,1.172 2.219,3.406 z m -0.86,0.078 c 0,-1.922 -0.437,-2.781 -1.375,-2.781 -0.89,0 -1.343,0.891 -1.343,2.75 0,1.875 0.453,2.734 1.359,2.734 0.906,0 1.359,-0.875 1.359,-2.703 z" /><path
         id="path86"
         style="fill:#000000;fill-opacity:1;fill-rule:nonzero;stroke:none"
         d="m 91.637,155 2.281,0 0,-0.703 -2.281,0 0,0.703 z" /><path
         id="path88"
         style="fill:#000000;fill-opacity:1;fill-rule:nonzero;stroke:none"
         d="m 97.727,152 0,6.797 -0.563,0 c -0.297,-1.047 -0.484,-1.188 -1.781,-1.344 l 0,-0.609 1.5,0 0,-4.844 0.844,0 z" /><path
         id="path90"
         style="fill:#000000;fill-opacity:1;fill-rule:nonzero;stroke:none"
         d="m 104.594,155.265 c 0,2.36 -0.75,3.532 -2.219,3.532 -1.469,0 -2.234,-1.188 -2.234,-3.469 0,-2.297 0.781,-3.469 2.234,-3.469 1.437,0 2.219,1.172 2.219,3.406 z m -0.86,0.079 c 0,-1.922 -0.437,-2.782 -1.375,-2.782 -0.89,0 -1.343,0.891 -1.343,2.75 0,1.875 0.453,2.735 1.359,2.735 0.906,0 1.359,-0.875 1.359,-2.703 z" /><path
         id="path92"
         style="fill:#000000;fill-opacity:1;fill-rule:nonzero;stroke:none"
         d="m 107.258,186.465 c 0,2.359 -0.75,3.531 -2.219,3.531 -1.469,0 -2.234,-1.188 -2.234,-3.469 0,-2.297 0.781,-3.469 2.234,-3.469 1.438,0 2.219,1.172 2.219,3.407 z m -0.86,0.078 c 0,-1.922 -0.437,-2.781 -1.375,-2.781 -0.89,0 -1.343,0.89 -1.343,2.75 0,1.875 0.453,2.734 1.359,2.734 0.906,0 1.359,-0.875 1.359,-2.703 z" /><path
         id="path94"
         style="fill:#000000;fill-opacity:1;fill-rule:nonzero;stroke:none"
         d="m 172.762,36.601 0,0.797 -4.703,0 0,-7 0.89,0 0,3.188 3.344,0 0,0.781 -3.344,0 0,2.234 3.813,0 z" /><path
         id="path96"
         style="fill:#000000;fill-opacity:1;fill-rule:nonzero;stroke:none"
         d="m 175.809,34.726 0,0.813 c -0.141,0.015 -0.204,0.031 -0.313,0.031 -0.516,0 -0.906,-0.312 -1.359,-1.062 l 0,0.921 -0.735,0 0,-5.031 0.797,0 0,2.61 c 0,1.125 0.375,1.703 1.61,1.718 z" /><path
         id="path98"
         style="fill:#000000;fill-opacity:1;fill-rule:nonzero;stroke:none"
         d="m 180.762,32.679 c 0,0.735 -0.063,1.188 -0.203,1.563 -0.329,0.828 -1.094,1.328 -2.032,1.328 -1.406,0 -2.297,-1.031 -2.297,-2.687 0,-1.657 0.86,-2.625 2.282,-2.625 1.14,0 1.937,0.656 2.14,1.671 l -0.797,0 c -0.218,-0.671 -0.671,-0.937 -1.312,-0.937 -0.844,0 -1.469,0.531 -1.484,1.687 l 3.703,0 z m -0.86,0.719 c 0,0 0,-0.047 0,-0.062 l -2.828,0 c 0.078,0.89 0.641,1.5 1.438,1.5 0.797,0 1.39,-0.657 1.39,-1.438 z m 0.344,4 -1.094,0 -0.922,-1.422 0.579,0 1.437,1.422 z" /><path
         id="path100"
         style="fill:#000000;fill-opacity:1;fill-rule:nonzero;stroke:none"
         d="m 185.926,28.304 0,7.125 -0.719,0 0,-0.671 c -0.359,0.531 -0.937,0.812 -1.594,0.812 -1.328,0 -2.187,-1.047 -2.187,-2.719 0,-1.625 0.828,-2.593 2.14,-2.593 0.704,0 1.188,0.25 1.563,0.796 l 0,-2.75 0.797,0 z m -0.797,4.579 c 0,-1.157 -0.563,-1.875 -1.406,-1.875 -0.875,0 -1.469,0.734 -1.469,1.906 0,1.156 0.594,1.906 1.469,1.906 0.859,0 1.406,-0.766 1.406,-1.937 z" /><path
         id="path102"
         style="fill:#000000;fill-opacity:1;fill-rule:nonzero;stroke:none"
         d="m 191.219,30.398 0,5.031 -0.797,0 0,-2.781 c 0,-1.015 -0.531,-1.687 -1.375,-1.687 -0.625,0 -1.031,0.375 -1.031,0.984 l 0,3.484 -0.797,0 0,-3.796 c 0,-0.844 0.625,-1.375 1.593,-1.375 0.75,0 1.219,0.25 1.688,0.921 l 0,-0.781 0.719,0 z" /><path
         id="path104"
         style="fill:#000000;fill-opacity:1;fill-rule:nonzero;stroke:none"
         d="m 196.852,32.679 c 0,0.735 -0.063,1.188 -0.204,1.563 -0.328,0.828 -1.093,1.328 -2.031,1.328 -1.406,0 -2.297,-1.031 -2.297,-2.687 0,-1.657 0.86,-2.625 2.282,-2.625 1.14,0 1.937,0.656 2.14,1.671 l -0.797,0 c -0.218,-0.671 -0.672,-0.937 -1.312,-0.937 -0.844,0 -1.469,0.531 -1.485,1.687 l 3.704,0 z m -0.86,0.719 c 0,0 0,-0.047 0,-0.062 l -2.828,0 c 0.078,0.89 0.641,1.5 1.438,1.5 0.796,0 1.39,-0.657 1.39,-1.438 z" /><path
         id="path106"
         style="fill:#000000;fill-opacity:1;fill-rule:nonzero;stroke:none"
         d="m 201.938,30.398 0,3.797 c 0,0.844 -0.626,1.375 -1.594,1.375 -0.75,0 -1.219,-0.281 -1.672,-0.984 l 0,0.843 -0.734,0 0,-5.031 0.796,0 0,2.766 c 0,1.031 0.563,1.703 1.375,1.703 0.625,0 1.032,-0.375 1.032,-0.984 l 0,-3.485 0.797,0 z" /><path
         id="path108"
         style="fill:#000000;fill-opacity:1;fill-rule:nonzero;stroke:none"
         d="m 207.184,32.133 -0.813,0 c -0.125,-0.813 -0.547,-1.141 -1.219,-1.141 -0.89,0 -1.422,0.687 -1.422,1.875 0,1.25 0.532,1.969 1.391,1.969 0.672,0 1.094,-0.407 1.203,-1.094 l 0.797,0 c -0.094,1.219 -0.859,1.828 -1.984,1.828 -1.344,0 -2.235,-1.031 -2.235,-2.703 0,-1.625 0.86,-2.609 2.219,-2.609 1.203,0 1.969,0.718 2.063,1.875 z" /><path
         id="path110"
         style="fill:#000000;fill-opacity:1;fill-rule:nonzero;stroke:none"
         d="m 212.328,32.679 c 0,0.735 -0.062,1.188 -0.203,1.563 -0.328,0.828 -1.094,1.328 -2.031,1.328 -1.406,0 -2.297,-1.031 -2.297,-2.687 0,-1.657 0.859,-2.625 2.281,-2.625 1.141,0 1.938,0.656 2.141,1.671 l -0.797,0 c -0.219,-0.671 -0.672,-0.937 -1.313,-0.937 -0.843,0 -1.468,0.531 -1.484,1.687 l 3.703,0 z m -0.859,0.719 c 0,0 0,-0.047 0,-0.062 l -2.828,0 c 0.078,0.89 0.64,1.5 1.437,1.5 0.797,0 1.391,-0.657 1.391,-1.438 z" /><path
         id="path112"
         style="fill:#000000;fill-opacity:1;fill-rule:nonzero;stroke:none"
         d="m 218.207,28.367 c -0.844,1.375 -1.312,2.984 -1.312,4.516 0,1.531 0.468,3.14 1.312,4.515 l -0.531,0 c -0.953,-1.265 -1.563,-3.015 -1.563,-4.515 0,-1.516 0.61,-3.266 1.563,-4.516 l 0.531,0 z" /><path
         id="path114"
         style="fill:#000000;fill-opacity:1;fill-rule:nonzero;stroke:none"
         d="m 224.809,30.398 0,7 -0.891,0 0,-3.031 -3.594,0 0,3.031 -0.89,0 0,-7 0.89,0 0,3.188 3.594,0 0,-3.188 0.891,0 z" /><path
         id="path116"
         style="fill:#000000;fill-opacity:1;fill-rule:nonzero;stroke:none"
         d="m 229.957,30.398 0,0.703 -3.125,0 2.984,3.61 0,0.718 -3.75,0 0,-0.703 2.797,0 -3,-3.609 0,-0.719 4.094,0 z" /><path
         id="path118"
         style="fill:#000000;fill-opacity:1;fill-rule:nonzero;stroke:none"
         d="m 232.82,32.867 c 0,1.516 -0.593,3.266 -1.562,4.531 l -0.531,0 c 0.843,-1.375 1.312,-2.984 1.312,-4.531 0,-1.516 -0.469,-3.141 -1.312,-4.5 l 0.531,0 c 0.969,1.25 1.562,3 1.562,4.5 z" /><path
         id="path120"
         style="fill:#0000ff;fill-opacity:1;fill-rule:nonzero;stroke:none"
         d="m 83.602,91.582 c -0.844,0 -1.344,-0.391 -1.688,-1.281 -0.297,0.625 -0.828,0.968 -1.531,0.968 -1.016,0 -1.781,-0.75 -1.781,-2.078 l 0,-2.828 7,0 0,3.156 c 0,1.25 -0.844,2.063 -2,2.063 z m -3.094,-1.203 c 0.703,0 1.109,-0.422 1.109,-1.407 l 0,-1.718 -2.219,0 0,1.718 c 0,0.985 0.407,1.407 1.11,1.407 z m 3.109,0.297 c 0.672,0 1.203,-0.407 1.203,-1.25 l 0,-2.172 -2.406,0 0,2.172 c 0,0.843 0.516,1.25 1.203,1.25 z" /><path
         id="path122"
         style="fill:#0000ff;fill-opacity:1;fill-rule:nonzero;stroke:none"
         d="m 83.32,96.926 c -0.734,0 -1.187,-0.063 -1.562,-0.204 -0.828,-0.328 -1.328,-1.093 -1.328,-2.031 0,-1.406 1.031,-2.297 2.687,-2.297 1.656,0 2.625,0.86 2.625,2.282 0,1.14 -0.656,1.937 -1.672,2.14 l 0,-0.797 c 0.672,-0.218 0.938,-0.672 0.938,-1.312 0,-0.844 -0.531,-1.469 -1.688,-1.485 l 0,3.704 z m -0.718,-0.86 c 0,0 0.046,0 0.062,0 l 0,-2.828 c -0.891,0.078 -1.5,0.641 -1.5,1.438 0,0.796 0.656,1.39 1.438,1.39 z" /><path
         id="path124"
         style="fill:#0000ff;fill-opacity:1;fill-rule:nonzero;stroke:none"
         d="m 84.195,101.746 c -0.75,0 -1.125,-0.422 -1.359,-1.422 l -0.188,-0.766 c -0.156,-0.656 -0.359,-0.937 -0.718,-0.937 -0.469,0 -0.766,0.422 -0.766,1.062 0,0.657 0.281,1 0.813,1.016 l 0,0.844 c -0.985,-0.016 -1.547,-0.656 -1.547,-1.828 0,-1.172 0.609,-1.922 1.531,-1.922 0.797,0 1.172,0.406 1.453,1.594 l 0.188,0.75 c 0.125,0.546 0.296,0.765 0.656,0.765 0.469,0 0.75,-0.469 0.75,-1.172 0,-0.718 -0.172,-1.109 -0.938,-1.218 l 0,-0.844 c 1.157,0.031 1.672,0.687 1.672,2 0,1.265 -0.578,2.078 -1.547,2.078 z" /><path
         id="path126"
         style="fill:#0000ff;fill-opacity:1;fill-rule:nonzero;stroke:none"
         d="m 84.195,106.547 c -0.75,0 -1.125,-0.422 -1.359,-1.422 l -0.188,-0.766 c -0.156,-0.656 -0.359,-0.937 -0.718,-0.937 -0.469,0 -0.766,0.422 -0.766,1.062 0,0.656 0.281,1 0.813,1.016 l 0,0.844 c -0.985,-0.016 -1.547,-0.657 -1.547,-1.829 0,-1.171 0.609,-1.921 1.531,-1.921 0.797,0 1.172,0.406 1.453,1.593 l 0.188,0.75 c 0.125,0.547 0.296,0.766 0.656,0.766 0.469,0 0.75,-0.469 0.75,-1.172 0,-0.719 -0.172,-1.109 -0.938,-1.219 l 0,-0.843 c 1.157,0.031 1.672,0.687 1.672,2 0,1.265 -0.578,2.078 -1.547,2.078 z" /><path
         id="path128"
         style="fill:#0000ff;fill-opacity:1;fill-rule:nonzero;stroke:none"
         d="m 83.32,111.863 c -0.734,0 -1.187,-0.062 -1.562,-0.203 -0.828,-0.328 -1.328,-1.094 -1.328,-2.031 0,-1.407 1.031,-2.297 2.687,-2.297 1.656,0 2.625,0.859 2.625,2.281 0,1.141 -0.656,1.938 -1.672,2.141 l 0,-0.797 c 0.672,-0.219 0.938,-0.672 0.938,-1.313 0,-0.843 -0.531,-1.468 -1.688,-1.484 l 0,3.703 z m -0.718,-0.859 c 0,0 0.046,0 0.062,0 l 0,-2.828 c -0.891,0.078 -1.5,0.64 -1.5,1.437 0,0.797 0.656,1.391 1.438,1.391 z" /><path
         id="path130"
         style="fill:#0000ff;fill-opacity:1;fill-rule:nonzero;stroke:none"
         d="m 78.602,113.73 7,0 0,-0.797 -7,0 0,0.797 z" /><path
         id="path132"
         style="fill:#0000ff;fill-opacity:1;fill-rule:nonzero;stroke:none"
         d="m 86.82,119.984 0.484,0 0,-5.766 -0.484,0 0,5.766 z" /><path
         id="path134"
         style="fill:#0000ff;fill-opacity:1;fill-rule:nonzero;stroke:none"
         d="m 85.602,124.523 -7,0 0,-0.797 2.609,0 c -0.516,-0.343 -0.781,-0.875 -0.781,-1.547 0,-1.296 1.015,-2.156 2.609,-2.156 1.703,0 2.703,0.828 2.703,2.188 0,0.687 -0.25,1.172 -0.875,1.593 l 0.735,0 0,0.719 z m -2.5,-0.797 c 1.171,0 1.89,-0.562 1.89,-1.406 0,-0.875 -0.734,-1.469 -1.906,-1.469 -1.172,0 -1.906,0.594 -1.906,1.469 0,0.859 0.765,1.406 1.922,1.406 z" /><path
         id="path136"
         style="fill:#0000ff;fill-opacity:1;fill-rule:nonzero;stroke:none"
         d="m 83.602,131.097 c -0.844,0 -1.344,-0.39 -1.688,-1.281 -0.297,0.625 -0.828,0.969 -1.531,0.969 -1.016,0 -1.781,-0.75 -1.781,-2.078 l 0,-2.828 7,0 0,3.156 c 0,1.25 -0.844,2.062 -2,2.062 z m -3.094,-1.203 c 0.703,0 1.109,-0.422 1.109,-1.406 l 0,-1.719 -2.219,0 0,1.719 c 0,0.984 0.407,1.406 1.11,1.406 z m 3.109,0.297 c 0.672,0 1.203,-0.406 1.203,-1.25 l 0,-2.172 -2.406,0 0,2.172 c 0,0.844 0.516,1.25 1.203,1.25 z" /><path
         id="path138"
         style="fill:#0000ff;fill-opacity:1;fill-rule:nonzero;stroke:none"
         d="m 83.68,137.496 c -0.86,0 -1.5,-0.531 -1.75,-1.484 l -0.469,-1.75 c -0.219,-0.844 -0.5,-1.157 -1.047,-1.157 -0.703,0 -1.234,0.625 -1.234,1.563 0,1.109 0.515,1.75 1.422,1.75 l 0,0.844 c -1.375,0 -2.172,-0.954 -2.172,-2.563 0,-1.531 0.843,-2.484 2.109,-2.484 0.859,0 1.391,0.453 1.641,1.375 l 0.453,1.734 c 0.234,0.875 0.594,1.281 1.14,1.281 0.766,0 1.219,-0.578 1.219,-1.781 0,-1.328 -0.672,-1.969 -1.672,-1.969 l 0,-0.859 c 1.657,0 2.453,1.125 2.453,2.766 0,1.781 -0.843,2.734 -2.093,2.734 z" /><path
         id="path140"
         style="fill:#0000ff;fill-opacity:1;fill-rule:nonzero;stroke:none"
         d="m 85.602,141.277 -6.797,0 0,-0.562 c 1.047,-0.297 1.187,-0.485 1.343,-1.782 l 0.61,0 0,1.5 4.844,0 0,0.844 z" /><path
         id="path142"
         style="fill:#0000ff;fill-opacity:1;fill-rule:nonzero;stroke:none"
         d="m 85.602,146.613 -6.797,0 0,-0.562 c 1.047,-0.297 1.187,-0.485 1.343,-1.782 l 0.61,0 0,1.5 4.844,0 0,0.844 z" /><path
         id="path144"
         style="fill:#ff0000;fill-opacity:1;fill-rule:nonzero;stroke:none"
         d="m 65.199,77.984 c -0.844,0 -1.344,-0.39 -1.687,-1.281 -0.297,0.625 -0.828,0.969 -1.532,0.969 -1.015,0 -1.781,-0.75 -1.781,-2.078 l 0,-2.829 7,0 0,3.157 c 0,1.25 -0.844,2.062 -2,2.062 z m -3.094,-1.203 c 0.704,0 1.11,-0.422 1.11,-1.406 l 0,-1.719 -2.219,0 0,1.719 c 0,0.984 0.406,1.406 1.109,1.406 z m 3.11,0.297 c 0.672,0 1.203,-0.406 1.203,-1.25 l 0,-2.172 -2.406,0 0,2.172 c 0,0.844 0.515,1.25 1.203,1.25 z" /><path
         id="path146"
         style="fill:#ff0000;fill-opacity:1;fill-rule:nonzero;stroke:none"
         d="m 67.199,83.027 -5.031,0 0,-0.797 2.781,0 c 1.016,0 1.688,-0.531 1.688,-1.375 0,-0.625 -0.375,-1.031 -0.985,-1.031 l -3.484,0 0,-0.797 3.797,0 c 0.844,0 1.375,0.625 1.375,1.594 0,0.75 -0.25,1.219 -0.922,1.687 l 0.781,0 0,0.719 z" /><path
         id="path148"
         style="fill:#ff0000;fill-opacity:1;fill-rule:nonzero;stroke:none"
         d="m 67.199,86.176 -0.672,0 c 0.032,-0.11 0.032,-0.235 0.032,-0.391 0,-0.344 -0.094,-0.438 -0.438,-0.438 l -3.297,0 0,0.829 -0.656,0 0,-0.829 -1.375,0 0,-0.796 1.375,0 0,-0.672 0.656,0 0,0.672 3.641,0 c 0.515,0 0.797,0.343 0.797,0.968 0,0.188 -0.016,0.391 -0.063,0.657 z" /><path
         id="path150"
         style="fill:#ff0000;fill-opacity:1;fill-rule:nonzero;stroke:none"
         d="m 67.199,88.847 -0.672,0 c 0.032,-0.109 0.032,-0.234 0.032,-0.39 0,-0.344 -0.094,-0.438 -0.438,-0.438 l -3.297,0 0,0.828 -0.656,0 0,-0.828 -1.375,0 0,-0.797 1.375,0 0,-0.671 0.656,0 0,0.671 3.641,0 c 0.515,0 0.797,0.344 0.797,0.969 0,0.188 -0.016,0.391 -0.063,0.656 z" /><path
         id="path152"
         style="fill:#ff0000;fill-opacity:1;fill-rule:nonzero;stroke:none"
         d="m 64.918,93.855 c -0.734,0 -1.188,-0.062 -1.563,-0.203 -0.828,-0.328 -1.328,-1.094 -1.328,-2.031 0,-1.406 1.032,-2.297 2.688,-2.297 1.656,0 2.625,0.859 2.625,2.281 0,1.141 -0.656,1.938 -1.672,2.141 l 0,-0.797 c 0.672,-0.219 0.937,-0.672 0.937,-1.312 0,-0.844 -0.531,-1.469 -1.687,-1.485 l 0,3.703 z m -0.719,-0.859 c 0,0 0.047,0 0.063,0 l 0,-2.828 c -0.891,0.078 -1.5,0.64 -1.5,1.437 0,0.797 0.656,1.391 1.437,1.391 z" /><path
         id="path154"
         style="fill:#ff0000;fill-opacity:1;fill-rule:nonzero;stroke:none"
         d="m 62.871,97.347 -0.812,0 c -0.016,-0.14 -0.032,-0.203 -0.032,-0.312 0,-0.516 0.313,-0.906 1.063,-1.359 l -0.922,0 0,-0.735 5.031,0 0,0.797 -2.609,0 c -1.125,0 -1.703,0.375 -1.719,1.609 z" /><path
         id="path156"
         style="fill:#ff0000;fill-opacity:1;fill-rule:nonzero;stroke:none"
         d="m 62.168,104.562 0,-0.906 3.922,-1 -3.922,-0.984 0,-0.985 3.922,-0.953 -3.922,-1.031 0,-0.875 5.031,1.453 0,0.906 -3.937,0.969 3.937,1.016 0,0.906 -5.031,1.484 z" /><path
         id="path158"
         style="fill:#ff0000;fill-opacity:1;fill-rule:nonzero;stroke:none"
         d="m 64.73,109.5 c -1.75,0 -2.703,-0.828 -2.703,-2.281 0,-1.407 0.969,-2.266 2.657,-2.266 1.687,0 2.656,0.844 2.656,2.281 0,1.406 -0.969,2.266 -2.61,2.266 z m -0.015,-0.828 c 1.172,0 1.89,-0.563 1.89,-1.438 0,-0.89 -0.703,-1.437 -1.921,-1.437 -1.204,0 -1.922,0.547 -1.922,1.437 0,0.891 0.703,1.438 1.953,1.438 z" /><path
         id="path160"
         style="fill:#ff0000;fill-opacity:1;fill-rule:nonzero;stroke:none"
         d="m 62.871,113.027 -0.812,0 c -0.016,-0.14 -0.032,-0.203 -0.032,-0.312 0,-0.516 0.313,-0.907 1.063,-1.36 l -0.922,0 0,-0.734 5.031,0 0,0.797 -2.609,0 c -1.125,0 -1.703,0.375 -1.719,1.609 z" /><path
         id="path162"
         style="fill:#ff0000;fill-opacity:1;fill-rule:nonzero;stroke:none"
         d="m 67.199,115.879 -0.672,0 c 0.032,-0.11 0.032,-0.235 0.032,-0.391 0,-0.344 -0.094,-0.437 -0.438,-0.437 l -3.297,0 0,0.828 -0.656,0 0,-0.828 -1.375,0 0,-0.797 1.375,0 0,-0.672 0.656,0 0,0.672 3.641,0 c 0.515,0 0.797,0.343 0.797,0.968 0,0.188 -0.016,0.391 -0.063,0.657 z" /><path
         id="path164"
         style="fill:#ff0000;fill-opacity:1;fill-rule:nonzero;stroke:none"
         d="m 67.199,120.699 -3.797,0 c -0.843,0 -1.375,-0.594 -1.375,-1.578 0,-0.703 0.219,-1.141 0.828,-1.609 l -2.656,0 0,-0.797 7,0 0,0.797 -2.765,0 c -1.032,0 -1.704,0.531 -1.704,1.359 0,0.562 0.329,1.031 0.985,1.031 l 3.484,0 0,0.797 z" /><path
         id="path166"
         style="fill:#ff0000;fill-opacity:1;fill-rule:nonzero;stroke:none"
         d="m 68.418,126.929 0.484,0 0,-5.766 -0.484,0 0,5.766 z" /><path
         id="path168"
         style="fill:#ff0000;fill-opacity:1;fill-rule:nonzero;stroke:none"
         d="m 67.199,131.469 -7,0 0,-0.797 2.61,0 c -0.516,-0.344 -0.782,-0.875 -0.782,-1.547 0,-1.297 1.016,-2.156 2.61,-2.156 1.703,0 2.703,0.828 2.703,2.187 0,0.688 -0.25,1.172 -0.875,1.594 l 0.734,0 0,0.719 z m -2.5,-0.797 c 1.172,0 1.891,-0.563 1.891,-1.407 0,-0.875 -0.735,-1.468 -1.906,-1.468 -1.172,0 -1.907,0.593 -1.907,1.468 0,0.86 0.766,1.407 1.922,1.407 z" /><path
         id="path170"
         style="fill:#ff0000;fill-opacity:1;fill-rule:nonzero;stroke:none"
         d="m 65.199,138.043 c -0.844,0 -1.344,-0.391 -1.687,-1.281 -0.297,0.625 -0.828,0.968 -1.532,0.968 -1.015,0 -1.781,-0.75 -1.781,-2.078 l 0,-2.828 7,0 0,3.156 c 0,1.25 -0.844,2.063 -2,2.063 z m -3.094,-1.203 c 0.704,0 1.11,-0.422 1.11,-1.407 l 0,-1.718 -2.219,0 0,1.718 c 0,0.985 0.406,1.407 1.109,1.407 z m 3.11,0.297 c 0.672,0 1.203,-0.407 1.203,-1.25 l 0,-2.172 -2.406,0 0,2.172 c 0,0.843 0.515,1.25 1.203,1.25 z" /><path
         id="path172"
         style="fill:#ff0000;fill-opacity:1;fill-rule:nonzero;stroke:none"
         d="m 65.277,144.441 c -0.859,0 -1.5,-0.531 -1.75,-1.484 l -0.468,-1.75 c -0.219,-0.844 -0.5,-1.156 -1.047,-1.156 -0.703,0 -1.235,0.625 -1.235,1.562 0,1.109 0.516,1.75 1.422,1.75 l 0,0.844 c -1.375,0 -2.172,-0.953 -2.172,-2.563 0,-1.531 0.844,-2.484 2.11,-2.484 0.859,0 1.39,0.453 1.64,1.375 l 0.453,1.734 c 0.235,0.875 0.594,1.282 1.141,1.282 0.766,0 1.219,-0.579 1.219,-1.782 0,-1.328 -0.672,-1.968 -1.672,-1.968 l 0,-0.86 c 1.656,0 2.453,1.125 2.453,2.766 0,1.781 -0.844,2.734 -2.094,2.734 z" /><path
         id="path174"
         style="fill:#ff0000;fill-opacity:1;fill-rule:nonzero;stroke:none"
         d="m 67.199,148.219 -6.797,0 0,-0.563 c 1.047,-0.297 1.188,-0.484 1.344,-1.781 l 0.609,0 0,1.5 4.844,0 0,0.844 z" /><path
         id="path176"
         style="fill:#ff0000;fill-opacity:1;fill-rule:nonzero;stroke:none"
         d="m 67.199,153.558 -6.797,0 0,-0.562 c 1.047,-0.297 1.188,-0.484 1.344,-1.781 l 0.609,0 0,1.5 4.844,0 0,0.843 z" /><path
         id="path178"
         style="fill:#ff00ff;fill-opacity:1;fill-rule:nonzero;stroke:none"
         d="m 42.598,76.086 -0.797,0 0,-5.485 0.797,0 0,2.297 6.203,0 0,0.891 -6.203,0 0,2.297 z" /><path
         id="path180"
         style="fill:#ff00ff;fill-opacity:1;fill-rule:nonzero;stroke:none"
         d="m 47.066,79.988 0,-0.812 c 0.813,-0.125 1.141,-0.547 1.141,-1.219 0,-0.891 -0.687,-1.422 -1.875,-1.422 -1.25,0 -1.969,0.531 -1.969,1.391 0,0.671 0.407,1.093 1.094,1.203 l 0,0.797 c -1.219,-0.094 -1.828,-0.86 -1.828,-1.985 0,-1.344 1.031,-2.234 2.703,-2.234 1.625,0 2.609,0.859 2.609,2.219 0,1.203 -0.718,1.968 -1.875,2.062 z" /><path
         id="path182"
         style="fill:#ff00ff;fill-opacity:1;fill-rule:nonzero;stroke:none"
         d="m 48.801,84.867 -3.797,0 c -0.844,0 -1.375,-0.594 -1.375,-1.578 0,-0.703 0.219,-1.141 0.828,-1.61 l -2.656,0 0,-0.796 7,0 0,0.796 -2.766,0 c -1.031,0 -1.703,0.532 -1.703,1.36 0,0.562 0.328,1.031 0.984,1.031 l 3.485,0 0,0.797 z" /><path
         id="path184"
         style="fill:#ff00ff;fill-opacity:1;fill-rule:nonzero;stroke:none"
         d="m 46.52,90.469 c -0.735,0 -1.188,-0.063 -1.563,-0.204 -0.828,-0.328 -1.328,-1.093 -1.328,-2.031 0,-1.406 1.031,-2.297 2.687,-2.297 1.657,0 2.625,0.86 2.625,2.282 0,1.14 -0.656,1.937 -1.671,2.14 l 0,-0.797 c 0.671,-0.218 0.937,-0.672 0.937,-1.312 0,-0.844 -0.531,-1.469 -1.687,-1.485 l 0,3.704 z m -0.719,-0.86 c 0,0 0.047,0 0.062,0 l 0,-2.828 c -0.89,0.078 -1.5,0.641 -1.5,1.438 0,0.796 0.657,1.39 1.438,1.39 z" /><path
         id="path186"
         style="fill:#ff00ff;fill-opacity:1;fill-rule:nonzero;stroke:none"
         d="m 46.223,95.902 c -1.625,0 -2.594,-0.828 -2.594,-2.14 0,-0.704 0.266,-1.188 0.828,-1.563 l -2.656,0 0,-0.797 7,0 0,0.719 -0.719,0 c 0.578,0.391 0.859,0.891 0.859,1.594 0,1.328 -1.078,2.187 -2.718,2.187 z m 0.062,-0.828 c 1.141,0 1.906,-0.594 1.906,-1.469 0,-0.843 -0.765,-1.406 -1.906,-1.406 -1.172,0 -1.953,0.563 -1.906,1.406 0,0.891 0.781,1.469 1.906,1.469 z" /><path
         id="path188"
         style="fill:#ff00ff;fill-opacity:1;fill-rule:nonzero;stroke:none"
         d="m 43.77,100.668 0,-0.86 3.921,-1.39 -3.921,-1.281 0,-0.86 5.046,1.703 0.797,-0.312 c 0.36,-0.125 0.5,-0.297 0.5,-0.641 0,-0.109 -0.031,-0.25 -0.062,-0.422 l 0.719,0 c 0.078,0.172 0.125,0.328 0.125,0.547 0,0.563 -0.313,1.016 -1.032,1.281 l -6.093,2.235 z" /><path
         id="path190"
         style="fill:#ff00ff;fill-opacity:1;fill-rule:nonzero;stroke:none"
         d="m 47.066,105.273 0,-0.812 c 0.813,-0.125 1.141,-0.547 1.141,-1.219 0,-0.891 -0.687,-1.422 -1.875,-1.422 -1.25,0 -1.969,0.531 -1.969,1.391 0,0.672 0.407,1.093 1.094,1.203 l 0,0.797 c -1.219,-0.094 -1.828,-0.86 -1.828,-1.985 0,-1.343 1.031,-2.234 2.703,-2.234 1.625,0 2.609,0.859 2.609,2.219 0,1.203 -0.718,1.968 -1.875,2.062 z" /><path
         id="path192"
         style="fill:#ff00ff;fill-opacity:1;fill-rule:nonzero;stroke:none"
         d="m 48.801,110.152 -3.797,0 c -0.844,0 -1.375,-0.594 -1.375,-1.578 0,-0.703 0.219,-1.141 0.828,-1.609 l -2.656,0 0,-0.797 7,0 0,0.797 -2.766,0 c -1.031,0 -1.703,0.531 -1.703,1.359 0,0.563 0.328,1.031 0.984,1.031 l 3.485,0 0,0.797 z" /><path
         id="path194"
         style="fill:#ff00ff;fill-opacity:1;fill-rule:nonzero;stroke:none"
         d="m 46.52,115.758 c -0.735,0 -1.188,-0.063 -1.563,-0.204 -0.828,-0.328 -1.328,-1.093 -1.328,-2.031 0,-1.406 1.031,-2.297 2.687,-2.297 1.657,0 2.625,0.86 2.625,2.282 0,1.14 -0.656,1.937 -1.671,2.14 l 0,-0.797 c 0.671,-0.218 0.937,-0.672 0.937,-1.312 0,-0.844 -0.531,-1.469 -1.687,-1.485 l 0,3.704 z m -0.719,-0.86 c 0,0 0.047,0 0.062,0 l 0,-2.828 c -0.89,0.078 -1.5,0.641 -1.5,1.438 0,0.796 0.657,1.39 1.438,1.39 z" /><path
         id="path196"
         style="fill:#ff00ff;fill-opacity:1;fill-rule:nonzero;stroke:none"
         d="m 43.77,120.695 0,-0.891 4.078,-1.421 -4.078,-1.344 0,-0.906 5.031,1.765 0,0.875 -5.031,1.922 z" /><path
         id="path198"
         style="fill:#ff00ff;fill-opacity:1;fill-rule:nonzero;stroke:none"
         d="m 50.02,126.383 0.484,0 0,-5.766 -0.484,0 0,5.766 z" /><path
         id="path200"
         style="fill:#ff00ff;fill-opacity:1;fill-rule:nonzero;stroke:none"
         d="m 48.801,130.926 -7,0 0,-0.797 2.609,0 c -0.515,-0.344 -0.781,-0.875 -0.781,-1.547 0,-1.297 1.016,-2.156 2.609,-2.156 1.703,0 2.703,0.828 2.703,2.187 0,0.688 -0.25,1.172 -0.875,1.594 l 0.735,0 0,0.719 z m -2.5,-0.797 c 1.172,0 1.89,-0.563 1.89,-1.407 0,-0.875 -0.734,-1.468 -1.906,-1.468 -1.172,0 -1.906,0.593 -1.906,1.468 0,0.86 0.766,1.407 1.922,1.407 z" /><path
         id="path202"
         style="fill:#ff00ff;fill-opacity:1;fill-rule:nonzero;stroke:none"
         d="m 46.801,137.496 c -0.844,0 -1.344,-0.391 -1.688,-1.281 -0.297,0.625 -0.828,0.968 -1.531,0.968 -1.016,0 -1.781,-0.75 -1.781,-2.078 l 0,-2.828 7,0 0,3.156 c 0,1.25 -0.844,2.063 -2,2.063 z m -3.094,-1.203 c 0.703,0 1.109,-0.422 1.109,-1.406 l 0,-1.719 -2.218,0 0,1.719 c 0,0.984 0.406,1.406 1.109,1.406 z m 3.109,0.297 c 0.672,0 1.204,-0.407 1.204,-1.25 l 0,-2.172 -2.407,0 0,2.172 c 0,0.843 0.516,1.25 1.203,1.25 z" /><path
         id="path204"
         style="fill:#ff00ff;fill-opacity:1;fill-rule:nonzero;stroke:none"
         d="m 46.879,143.898 c -0.859,0 -1.5,-0.531 -1.75,-1.484 l -0.469,-1.75 c -0.219,-0.844 -0.5,-1.156 -1.047,-1.156 -0.703,0 -1.234,0.625 -1.234,1.562 0,1.109 0.516,1.75 1.422,1.75 l 0,0.844 c -1.375,0 -2.172,-0.953 -2.172,-2.563 0,-1.531 0.844,-2.484 2.109,-2.484 0.86,0 1.391,0.453 1.641,1.375 l 0.453,1.734 c 0.234,0.875 0.594,1.282 1.141,1.282 0.765,0 1.218,-0.579 1.218,-1.782 0,-1.328 -0.671,-1.968 -1.671,-1.968 l 0,-0.86 c 1.656,0 2.453,1.125 2.453,2.766 0,1.781 -0.844,2.734 -2.094,2.734 z" /><path
         id="path206"
         style="fill:#ff00ff;fill-opacity:1;fill-rule:nonzero;stroke:none"
         d="m 48.801,147.676 -6.797,0 0,-0.563 c 1.047,-0.297 1.187,-0.484 1.344,-1.781 l 0.609,0 0,1.5 4.844,0 0,0.844 z" /><path
         id="path208"
         style="fill:#ff00ff;fill-opacity:1;fill-rule:nonzero;stroke:none"
         d="m 48.801,153.015 -6.797,0 0,-0.562 c 1.047,-0.297 1.187,-0.484 1.344,-1.781 l 0.609,0 0,1.5 4.844,0 0,0.843 z" /><path
         id="path210"
         style="fill:#00ff00;fill-opacity:1;fill-rule:nonzero;stroke:none"
         d="m 27.852,93.699 0,-0.922 c 1.312,-0.219 1.937,-0.765 1.937,-1.953 0,-1.391 -1.062,-2.266 -2.812,-2.266 -1.797,0 -2.954,0.844 -2.954,2.188 0,1.094 0.485,1.672 1.547,1.891 l 0,0.906 c -1.531,-0.266 -2.343,-1.156 -2.343,-2.688 0,-2.125 1.718,-3.203 3.75,-3.203 2.046,0 3.593,1.11 3.593,3.156 0,1.719 -0.906,2.672 -2.718,2.891 z" /><path
         id="path212"
         style="fill:#00ff00;fill-opacity:1;fill-rule:nonzero;stroke:none"
         d="m 30.383,99.254 -0.61,0 c 0.016,-0.078 0.016,-0.11 0.016,-0.172 0,-0.266 -0.141,-0.422 -0.391,-0.422 l -2.796,0 c -0.891,0 -1.375,-0.656 -1.375,-1.891 0,-1.218 0.468,-1.968 1.625,-2.015 l 0,0.797 c -0.61,0.078 -0.891,0.437 -0.891,1.187 0,0.719 0.281,1.125 0.75,1.125 l 0.219,0 c 0.328,0 0.468,-0.203 0.547,-0.844 0.156,-1.125 0.187,-1.297 0.312,-1.609 0.234,-0.578 0.688,-0.875 1.297,-0.875 0.922,0 1.453,0.625 1.453,1.641 0,0.656 -0.266,1.265 -0.734,1.718 0.375,0.078 0.656,0.422 0.656,0.813 0,0.172 -0.016,0.297 -0.078,0.547 z m -1.719,-1.391 c 0.719,0 1.172,-0.734 1.172,-1.516 0,-0.609 -0.219,-0.984 -0.766,-0.984 -0.531,0 -0.75,0.359 -0.875,1.219 -0.125,0.844 -0.156,1.015 -0.281,1.281 l 0.75,0 z" /><path
         id="path214"
         style="fill:#00ff00;fill-opacity:1;fill-rule:nonzero;stroke:none"
         d="m 30.398,104.094 -5.031,0 0,-0.797 2.781,0 c 1.016,0 1.688,-0.532 1.688,-1.375 0,-0.625 -0.375,-1.032 -0.984,-1.032 l -3.485,0 0,-0.796 3.797,0 c 0.844,0 1.375,0.625 1.375,1.593 0,0.75 -0.25,1.219 -0.922,1.688 l 0.781,0 0,0.719 z" /><path
         id="path216"
         style="fill:#00ff00;fill-opacity:1;fill-rule:nonzero;stroke:none"
         d="m 28.117,109.726 c -0.734,0 -1.187,-0.062 -1.562,-0.203 -0.828,-0.328 -1.328,-1.094 -1.328,-2.031 0,-1.406 1.031,-2.297 2.687,-2.297 1.656,0 2.625,0.859 2.625,2.281 0,1.141 -0.656,1.938 -1.672,2.141 l 0,-0.797 c 0.672,-0.219 0.938,-0.672 0.938,-1.312 0,-0.844 -0.532,-1.469 -1.688,-1.485 l 0,3.703 z m -0.719,-0.859 c 0,0 0.047,0 0.063,0 l 0,-2.828 c -0.891,0.078 -1.5,0.64 -1.5,1.437 0,0.797 0.656,1.391 1.437,1.391 z" /><path
         id="path218"
         style="fill:#00ff00;fill-opacity:1;fill-rule:nonzero;stroke:none"
         d="m 26.07,113.25 -0.812,0 c -0.016,-0.141 -0.031,-0.203 -0.031,-0.313 0,-0.515 0.312,-0.906 1.062,-1.359 l -0.922,0 0,-0.734 5.031,0 0,0.796 -2.609,0 c -1.125,0 -1.703,0.375 -1.719,1.61 z" /><path
         id="path220"
         style="fill:#00ff00;fill-opacity:1;fill-rule:nonzero;stroke:none"
         d="m 31.617,118.914 0.484,0 0,-5.766 -0.484,0 0,5.766 z" /><path
         id="path222"
         style="fill:#00ff00;fill-opacity:1;fill-rule:nonzero;stroke:none"
         d="m 30.398,123.457 -7,0 0,-0.797 2.61,0 c -0.516,-0.344 -0.781,-0.875 -0.781,-1.547 0,-1.297 1.015,-2.156 2.609,-2.156 1.703,0 2.703,0.828 2.703,2.187 0,0.688 -0.25,1.172 -0.875,1.594 l 0.734,0 0,0.719 z m -2.5,-0.797 c 1.172,0 1.891,-0.563 1.891,-1.406 0,-0.875 -0.734,-1.469 -1.906,-1.469 -1.172,0 -1.906,0.594 -1.906,1.469 0,0.859 0.765,1.406 1.921,1.406 z" /><path
         id="path224"
         style="fill:#00ff00;fill-opacity:1;fill-rule:nonzero;stroke:none"
         d="m 28.398,130.027 c -0.843,0 -1.343,-0.39 -1.687,-1.281 -0.297,0.625 -0.828,0.969 -1.531,0.969 -1.016,0 -1.782,-0.75 -1.782,-2.078 l 0,-2.829 7,0 0,3.157 c 0,1.25 -0.843,2.062 -2,2.062 z m -3.093,-1.203 c 0.703,0 1.109,-0.422 1.109,-1.406 l 0,-1.719 -2.219,0 0,1.719 c 0,0.984 0.407,1.406 1.11,1.406 z m 3.109,0.297 c 0.672,0 1.203,-0.406 1.203,-1.25 l 0,-2.172 -2.406,0 0,2.172 c 0,0.844 0.516,1.25 1.203,1.25 z" /><path
         id="path226"
         style="fill:#00ff00;fill-opacity:1;fill-rule:nonzero;stroke:none"
         d="m 28.477,136.429 c -0.86,0 -1.5,-0.531 -1.75,-1.484 l -0.469,-1.75 c -0.219,-0.844 -0.5,-1.156 -1.047,-1.156 -0.703,0 -1.234,0.625 -1.234,1.562 0,1.11 0.515,1.75 1.421,1.75 l 0,0.844 c -1.375,0 -2.171,-0.953 -2.171,-2.562 0,-1.532 0.843,-2.485 2.109,-2.485 0.859,0 1.391,0.453 1.641,1.375 l 0.453,1.735 c 0.234,0.875 0.593,1.281 1.14,1.281 0.766,0 1.219,-0.578 1.219,-1.781 0,-1.329 -0.672,-1.969 -1.672,-1.969 l 0,-0.86 c 1.656,0 2.453,1.125 2.453,2.766 0,1.781 -0.843,2.734 -2.093,2.734 z" /><path
         id="path228"
         style="fill:#00ff00;fill-opacity:1;fill-rule:nonzero;stroke:none"
         d="m 30.398,140.207 -6.796,0 0,-0.563 c 1.046,-0.297 1.187,-0.484 1.343,-1.781 l 0.61,0 0,1.5 4.843,0 0,0.844 z" /><path
         id="path230"
         style="fill:#00ff00;fill-opacity:1;fill-rule:nonzero;stroke:none"
         d="m 30.398,145.547 -6.796,0 0,-0.563 c 1.046,-0.297 1.187,-0.484 1.343,-1.781 l 0.61,0 0,1.5 4.843,0 0,0.844 z" /></g></g></svg>