
<svg xmlns="http://www.w3.org/2000/svg"
     xmlns:xlink="http://www.w3.org/1999/xlink" version="1.1" width="290"
     height="658">
    <defs/>
    <g transform=" scale(0.88) translate(-619.2,-347.2)">
        <rect x="624" y="352" width="320" height="688" rx="21.5" ry="21.5"
              fill="none" stroke="#000000" stroke-width="1.6"
              pointer-events="none"/>
        <path d="M 848 512 L 866.82 512" fill="none" stroke="#000000"
              stroke-width="3.2" stroke-miterlimit="10" pointer-events="none"/>
        <path d="M 876.42 512 L 866.82 516.8 L 866.82 507.2 Z" fill="#000000"
              stroke="#000000" stroke-width="3.2" stroke-miterlimit="10"
              pointer-events="none"/>
        <rect x="832" y="672" width="64" height="64" fill="none"
              stroke="#000000" stroke-width="1.6" pointer-events="none"/>
        <rect x="672" y="672" width="64" height="64" fill="none"
              stroke="#000000" stroke-width="1.6" pointer-events="none"/>
        <path d="M 720 512 L 701.18 512" fill="none" stroke="#000000"
              stroke-width="3.2" stroke-miterlimit="10" pointer-events="none"/>
        <path d="M 691.58 512 L 701.18 507.2 L 701.18 516.8 Z" fill="#000000"
              stroke="#000000" stroke-width="3.2" stroke-miterlimit="10"
              pointer-events="none"/>
        <rect x="672" y="480" width="64" height="64" fill="none"
              stroke="#000000" stroke-width="1.6" pointer-events="none"/>
        <rect x="832" y="480" width="64" height="64" fill="none"
              stroke="#000000" stroke-width="1.6" pointer-events="none"/>
        <path d="M 784 448 L 784 429.18" fill="none" stroke="#000000"
              stroke-width="3.2" stroke-miterlimit="10" pointer-events="none"/>
        <path d="M 784 419.58 L 788.8 429.18 L 779.2 429.18 Z" fill="#000000"
              stroke="#000000" stroke-width="3.2" stroke-miterlimit="10"
              pointer-events="none"/>
        <path d="M 784 576 L 784 594.82" fill="none" stroke="#000000"
              stroke-width="3.2" stroke-miterlimit="10" pointer-events="none"/>
        <path d="M 784 604.42 L 779.2 594.82 L 788.8 594.82 Z" fill="#000000"
              stroke="#000000" stroke-width="3.2" stroke-miterlimit="10"
              pointer-events="none"/>
        <rect x="752" y="560" width="64" height="64" fill="none"
              stroke="#000000" stroke-width="1.6" pointer-events="none"/>
        <rect x="752" y="400" width="64" height="64" fill="none"
              stroke="#000000" stroke-width="1.6" pointer-events="none"/>
        <path d="M 880 704 Q 880 720 864 720 Q 848 720 848 704 Q 848 688 866.82 688"
              fill="none" stroke="#000000" stroke-width="3.2"
              stroke-miterlimit="10" pointer-events="none"/>
        <path d="M 876.42 688 L 866.82 692.8 L 866.82 683.2 Z" fill="#000000"
              stroke="#000000" stroke-width="3.2" stroke-miterlimit="10"
              pointer-events="none"/>
        <path d="M 688 704 Q 688 720 704 720 Q 720 720 720 704 Q 720 688 701.18 688"
              fill="none" stroke="#000000" stroke-width="3.2"
              stroke-miterlimit="10" pointer-events="none"/>
        <path d="M 691.58 688 L 701.18 683.2 L 701.18 692.8 Z" fill="#000000"
              stroke="#000000" stroke-width="3.2" stroke-miterlimit="10"
              pointer-events="none"/>
    </g>
</svg>