
<svg xmlns="http://www.w3.org/2000/svg"
     xmlns:xlink="http://www.w3.org/1999/xlink" version="1.1" width="313"
     height="593">
    <defs>
        <linearGradient x1="0%" y1="0%" x2="0%" y2="100%"
                        id="mx-gradient-ff7f00-1-ff7f00-1-s-0">
            <stop offset="0%" style="stop-color:#ff7f00"/>
            <stop offset="100%" style="stop-color:#ff7f00"/>
        </linearGradient>
    </defs>
    <g transform=" scale(0.89) translate(-19.6,-219.6)">
        <path d="M 24 514.4 L 24 496 L 184 496 L 184 514.4 Z"
              fill="url(#mx-gradient-ff7f00-1-ff7f00-1-s-0)" stroke="#000000"
              stroke-miterlimit="10" pointer-events="none"/>
        <path d="M 24 514.4 L 24 808 L 184 808 L 184 514.4" fill="none"
              stroke="#000000" stroke-miterlimit="10" pointer-events="none"/>
        <g fill="#000" font-family="Arial,Helvetica" font-weight="bold"
           text-anchor="middle" font-size="9.600000000000001px">
            <text x="103.5" y="508.4">
                Logiciel Principal
            </text>
        </g>
        <path d="M 105.96 672.59 L 151.02 694.32 C 151.64 694.72 152 695.34 152 696 C 152 696.65 151.64 697.27 151.02 697.67 L 105.96 719.4 C 104.75 720 103.25 720 102.04 719.4 L 56.98 697.67 C 56.36 697.27 56 696.65 56 696 C 56 695.34 56.36 694.72 56.98 694.32 L 102.04 672.59 C 103.25 672 104.75 672 105.96 672.59 Z"
              fill="none" stroke="#000000" stroke-miterlimit="10"
              pointer-events="none"/>
        <g fill="#000" font-family="Arial,Helvetica" text-anchor="middle"
           font-size="9.600000000000001px">
            <text x="103.5" y="687.5">
                Bouton
            </text>
            <text x="103.5" y="698.7">
                OFF
            </text>
            <text x="103.5" y="709.9">
                Enfoncé?
            </text>
        </g>
        <rect x="56" y="544" width="94.4" height="40" rx="2.69" ry="2.69"
              fill="none" stroke="#000000" pointer-events="none"/>
        <path d="M 69.49 544 L 69.49 584" fill="none" stroke="#000000"
              stroke-miterlimit="10" pointer-events="none"/>
        <path d="M 136.91 544 L 136.91 584" fill="none" stroke="#000000"
              stroke-miterlimit="10" pointer-events="none"/>
        <g fill="#000" font-family="Arial,Helvetica" text-anchor="middle"
           font-size="9.600000000000001px">
            <text x="102.7" y="555.5">
                Check
            </text>
            <text x="102.7" y="566.7">
                L'État des
            </text>
            <text x="102.7" y="577.9">
                Boutons
            </text>
        </g>
        <rect x="56" y="608" width="94.4" height="40" rx="2.69" ry="2.69"
              fill="none" stroke="#000000" pointer-events="none"/>
        <path d="M 69.49 608 L 69.49 648" fill="none" stroke="#000000"
              stroke-miterlimit="10" pointer-events="none"/>
        <path d="M 136.91 608 L 136.91 648" fill="none" stroke="#000000"
              stroke-miterlimit="10" pointer-events="none"/>
        <g fill="#000" font-family="Arial,Helvetica" text-anchor="middle"
           font-size="9.600000000000001px">
            <text x="102.7" y="619.5">
                Envoi
            </text>
            <text x="102.7" y="630.7">
                Directives
            </text>
            <text x="102.7" y="641.9">
                Wifi
            </text>
        </g>
        <path d="M 103.2 584 L 103.2 602.61" fill="none" stroke="#000000"
              stroke-width="1.6" stroke-miterlimit="10" pointer-events="none"/>
        <path d="M 103.2 606.21 L 100.8 601.41 L 103.2 602.61 L 105.6 601.41 Z"
              fill="#000000" stroke="#000000" stroke-width="1.6"
              stroke-miterlimit="10" pointer-events="none"/>
        <path d="M 103.2 648 L 103.2 666.61" fill="none" stroke="#000000"
              stroke-width="1.6" stroke-miterlimit="10" pointer-events="none"/>
        <path d="M 103.2 670.21 L 100.8 665.41 L 103.2 666.61 L 105.6 665.41 Z"
              fill="#000000" stroke="#000000" stroke-width="1.6"
              stroke-miterlimit="10" pointer-events="none"/>
        <path d="M 54.4 696 L 47.2 696 Q 40 696 40 688 L 40 536 Q 40 528 48 528 L 96 528 Q 104 528 104 533.31 L 104 538.61"
              fill="none" stroke="#000000" stroke-width="1.6"
              stroke-miterlimit="10" pointer-events="none"/>
        <ellipse cx="56" cy="696" rx="1.6" ry="1.6" fill="#000000"
                 stroke="#000000" stroke-width="1.6" pointer-events="none"/>
        <path d="M 104 542.21 L 101.6 537.41 L 104 538.61 L 106.4 537.41 Z"
              fill="#000000" stroke="#000000" stroke-width="1.6"
              stroke-miterlimit="10" pointer-events="none"/>
        <rect x="56" y="744" width="94.4" height="40" rx="2.69" ry="2.69"
              fill="none" stroke="#000000" pointer-events="none"/>
        <path d="M 69.49 744 L 69.49 784" fill="none" stroke="#000000"
              stroke-miterlimit="10" pointer-events="none"/>
        <path d="M 136.91 744 L 136.91 784" fill="none" stroke="#000000"
              stroke-miterlimit="10" pointer-events="none"/>
        <g fill="#000" font-family="Arial,Helvetica" text-anchor="middle"
           font-size="9.600000000000001px">
            <text x="102.7" y="761.1">
                Extinction
            </text>
            <text x="102.7" y="772.3">
                Système
            </text>
        </g>
        <path d="M 104 720 L 104 738.61" fill="none" stroke="#000000"
              stroke-width="1.6" stroke-miterlimit="10" pointer-events="none"/>
        <path d="M 104 742.21 L 101.6 737.41 L 104 738.61 L 106.4 737.41 Z"
              fill="#000000" stroke="#000000" stroke-width="1.6"
              stroke-miterlimit="10" pointer-events="none"/>
        <path d="M 208 242.4 L 208 224 L 368 224 L 368 242.4 Z"
              fill="url(#mx-gradient-ff7f00-1-ff7f00-1-s-0)" stroke="#000000"
              stroke-miterlimit="10" pointer-events="none"/>
        <path d="M 208 242.4 L 208 848 L 368 848 L 368 242.4" fill="none"
              stroke="#000000" stroke-miterlimit="10" pointer-events="none"/>
        <g fill="#000" font-family="Arial,Helvetica" font-weight="bold"
           text-anchor="middle" font-size="9.600000000000001px">
            <text x="287.5" y="236.4">
                Système d'exploitation
            </text>
        </g>
        <rect x="240" y="264" width="94.4" height="40" rx="2.69" ry="2.69"
              fill="none" stroke="#000000" pointer-events="none"/>
        <path d="M 253.49 264 L 253.49 304" fill="none" stroke="#000000"
              stroke-miterlimit="10" pointer-events="none"/>
        <path d="M 320.91 264 L 320.91 304" fill="none" stroke="#000000"
              stroke-miterlimit="10" pointer-events="none"/>
        <g fill="#000" font-family="Arial,Helvetica" text-anchor="middle"
           font-size="9.600000000000001px">
            <text x="286.7" y="286.7">
                Boot
            </text>
        </g>
        <rect x="240" y="328" width="94.4" height="40" rx="2.69" ry="2.69"
              fill="none" stroke="#000000" pointer-events="none"/>
        <path d="M 253.49 328 L 253.49 368" fill="none" stroke="#000000"
              stroke-miterlimit="10" pointer-events="none"/>
        <path d="M 320.91 328 L 320.91 368" fill="none" stroke="#000000"
              stroke-miterlimit="10" pointer-events="none"/>
        <g fill="#000" font-family="Arial,Helvetica" text-anchor="middle"
           font-size="9.600000000000001px">
            <text x="286.7" y="339.5">
                Connexion au
            </text>
            <text x="286.7" y="350.7">
                Réseau
            </text>
            <text x="286.7" y="361.9">
                MASTER_SE
            </text>
        </g>
        <rect x="240" y="392" width="94.4" height="40" rx="2.69" ry="2.69"
              fill="none" stroke="#000000" pointer-events="none"/>
        <path d="M 253.49 392 L 253.49 432" fill="none" stroke="#000000"
              stroke-miterlimit="10" pointer-events="none"/>
        <path d="M 320.91 392 L 320.91 432" fill="none" stroke="#000000"
              stroke-miterlimit="10" pointer-events="none"/>
        <g fill="#000" font-family="Arial,Helvetica" text-anchor="middle"
           font-size="9.600000000000001px">
            <text x="286.7" y="409.1">
                Initialisation
            </text>
            <text x="286.7" y="420.3">
                GPIO
            </text>
        </g>
        <rect x="240" y="456" width="94.4" height="40" rx="2.69" ry="2.69"
              fill="none" stroke="#000000" pointer-events="none"/>
        <path d="M 253.49 456 L 253.49 496" fill="none" stroke="#000000"
              stroke-miterlimit="10" pointer-events="none"/>
        <path d="M 320.91 456 L 320.91 496" fill="none" stroke="#000000"
              stroke-miterlimit="10" pointer-events="none"/>
        <g fill="#000" font-family="Arial,Helvetica" text-anchor="middle"
           font-size="9.600000000000001px">
            <text x="286.7" y="473.1">
                Logiciel
            </text>
            <text x="286.7" y="484.3">
                Principal
            </text>
        </g>
        <path d="M 287.2 304 L 287.2 322.61" fill="none" stroke="#000000"
              stroke-width="1.6" stroke-miterlimit="10" pointer-events="none"/>
        <path d="M 287.2 326.21 L 284.8 321.41 L 287.2 322.61 L 289.6 321.41 Z"
              fill="#000000" stroke="#000000" stroke-width="1.6"
              stroke-miterlimit="10" pointer-events="none"/>
        <path d="M 287.2 368 L 287.2 386.61" fill="none" stroke="#000000"
              stroke-width="1.6" stroke-miterlimit="10" pointer-events="none"/>
        <path d="M 287.2 390.21 L 284.8 385.41 L 287.2 386.61 L 289.6 385.41 Z"
              fill="#000000" stroke="#000000" stroke-width="1.6"
              stroke-miterlimit="10" pointer-events="none"/>
        <path d="M 287.2 432 L 287.2 450.61" fill="none" stroke="#000000"
              stroke-width="1.6" stroke-miterlimit="10" pointer-events="none"/>
        <path d="M 287.2 454.21 L 284.8 449.41 L 287.2 450.61 L 289.6 449.41 Z"
              fill="#000000" stroke="#000000" stroke-width="1.6"
              stroke-miterlimit="10" pointer-events="none"/>
        <rect x="240" y="784" width="94.4" height="40" rx="2.69" ry="2.69"
              fill="none" stroke="#000000" pointer-events="none"/>
        <path d="M 253.49 784 L 253.49 824" fill="none" stroke="#000000"
              stroke-miterlimit="10" pointer-events="none"/>
        <path d="M 320.91 784 L 320.91 824" fill="none" stroke="#000000"
              stroke-miterlimit="10" pointer-events="none"/>
        <g fill="#000" font-family="Arial,Helvetica" text-anchor="middle"
           font-size="9.600000000000001px">
            <text x="286.7" y="801.1">
                Extinction
            </text>
            <text x="286.7" y="812.3">
                Système
            </text>
        </g>
        <path d="M 150.4 764 L 280 764 Q 288 764 288 771.31 L 288 778.61"
              fill="none" stroke="#000000" stroke-width="1.6"
              stroke-miterlimit="10" pointer-events="none"/>
        <path d="M 288 782.21 L 285.6 777.41 L 288 778.61 L 290.4 777.41 Z"
              fill="#000000" stroke="#000000" stroke-width="1.6"
              stroke-miterlimit="10" pointer-events="none"/>
        <path d="M 240 476 L 112 476 Q 104 476 104 483.31 L 104 490.61"
              fill="none" stroke="#000000" stroke-width="1.6"
              stroke-miterlimit="10" pointer-events="none"/>
        <path d="M 104 494.21 L 101.6 489.41 L 104 490.61 L 106.4 489.41 Z"
              fill="#000000" stroke="#000000" stroke-width="1.6"
              stroke-miterlimit="10" pointer-events="none"/>
    </g>
</svg>