
<svg xmlns="http://www.w3.org/2000/svg"
     xmlns:xlink="http://www.w3.org/1999/xlink" version="1.1" width="250"
     height="572">
    <defs>
        <linearGradient x1="0%" y1="0%" x2="0%" y2="100%"
                        id="mx-gradient-ff7f00-1-ff7f00-1-s-0">
            <stop offset="0%" style="stop-color:#ff7f00"/>
            <stop offset="100%" style="stop-color:#ff7f00"/>
        </linearGradient>
    </defs>
    <g transform=" scale(0.86) translate(-541.3,-303.3)">
        <rect x="546" y="308" width="280" height="602" rx="18.81" ry="18.81"
              fill="none" stroke="#000000" stroke-width="1.4"
              pointer-events="none"/>
        <path d="M 742 448 L 758.47 448" fill="none" stroke="#000000"
              stroke-width="2.8" stroke-miterlimit="10" pointer-events="none"/>
        <path d="M 766.87 448 L 758.47 452.2 L 758.47 443.8 Z" fill="#000000"
              stroke="#000000" stroke-width="2.8" stroke-miterlimit="10"
              pointer-events="none"/>
        <rect x="728" y="588" width="56" height="56" fill="none"
              stroke="#000000" stroke-width="1.4" pointer-events="none"/>
        <rect x="588" y="588" width="56" height="56" fill="none"
              stroke="#000000" stroke-width="1.4" pointer-events="none"/>
        <path d="M 630 448 L 613.53 448" fill="none" stroke="#000000"
              stroke-width="2.8" stroke-miterlimit="10" pointer-events="none"/>
        <path d="M 605.13 448 L 613.53 443.8 L 613.53 452.2 Z" fill="#000000"
              stroke="#000000" stroke-width="2.8" stroke-miterlimit="10"
              pointer-events="none"/>
        <rect x="588" y="420" width="56" height="56" fill="none"
              stroke="#000000" stroke-width="1.4" pointer-events="none"/>
        <rect x="728" y="420" width="56" height="56" fill="none"
              stroke="#000000" stroke-width="1.4" pointer-events="none"/>
        <path d="M 686 392 L 686 375.53" fill="none" stroke="#000000"
              stroke-width="2.8" stroke-miterlimit="10" pointer-events="none"/>
        <path d="M 686 367.13 L 690.2 375.53 L 681.8 375.53 Z" fill="#000000"
              stroke="#000000" stroke-width="2.8" stroke-miterlimit="10"
              pointer-events="none"/>
        <path d="M 686 504 L 686 520.47" fill="none" stroke="#000000"
              stroke-width="2.8" stroke-miterlimit="10" pointer-events="none"/>
        <path d="M 686 528.87 L 681.8 520.47 L 690.2 520.47 Z" fill="#000000"
              stroke="#000000" stroke-width="2.8" stroke-miterlimit="10"
              pointer-events="none"/>
        <rect x="658" y="490" width="56" height="56" fill="none"
              stroke="#000000" stroke-width="1.4" pointer-events="none"/>
        <rect x="658" y="350" width="56" height="56" fill="none"
              stroke="#000000" stroke-width="1.4" pointer-events="none"/>
        <path d="M 770 616 Q 770 630 756 630 Q 742 630 742 616 Q 742 602 758.47 602"
              fill="none" stroke="#000000" stroke-width="2.8"
              stroke-miterlimit="10" pointer-events="none"/>
        <path d="M 766.87 602 L 758.47 606.2 L 758.47 597.8 Z" fill="#000000"
              stroke="#000000" stroke-width="2.8" stroke-miterlimit="10"
              pointer-events="none"/>
        <path d="M 602 616 Q 602 630 616 630 Q 630 630 630 616 Q 630 602 613.53 602"
              fill="none" stroke="#000000" stroke-width="2.8"
              stroke-miterlimit="10" pointer-events="none"/>
        <path d="M 605.13 602 L 613.53 597.8 L 613.53 606.2 Z" fill="#000000"
              stroke="#000000" stroke-width="2.8" stroke-miterlimit="10"
              pointer-events="none"/>
        <rect x="658" y="784" width="56" height="56" fill="none"
              stroke="#000000" stroke-width="1.4" pointer-events="none"/>
        <ellipse cx="686" cy="868" rx="14" ry="14"
                 fill="url(#mx-gradient-ff7f00-1-ff7f00-1-s-0)" stroke="#000000"
                 stroke-width="1.4" pointer-events="none"/>
        <path d="M 676 878 L 696 858" fill="none" stroke="#000000"
              stroke-width="1.4" stroke-miterlimit="10" pointer-events="none"/>
        <path d="M 676 858 L 696 878" fill="none" stroke="#000000"
              stroke-width="1.4" stroke-miterlimit="10" pointer-events="none"/>
        <ellipse cx="686" cy="812" rx="14" ry="14" fill="none" stroke="#000000"
                 stroke-width="1.4" pointer-events="none"/>
        <rect x="684.6" y="810.6" width="2.8" height="2.8" fill="#000000"
              stroke="none" pointer-events="none"/>
        <path d="M 686 785.4 L 686 810.6" fill="#000000" stroke="#000000"
              stroke-width="2.8" stroke-linecap="square" stroke-miterlimit="10"
              pointer-events="none"/>
    </g>
</svg>