
<svg xmlns="http://www.w3.org/2000/svg"
     xmlns:xlink="http://www.w3.org/1999/xlink" version="1.1" width="28"
     height="317">
    <defs/>
    <g transform=" scale(0.41) translate(-800,-1207.875)">
        <rect x="838.8" y="1342.8" width="2.4" height="2.4" fill="#000000"
              stroke="none" pointer-events="none"/>
        <rect x="838.8" y="1414.8" width="2.4" height="2.4" fill="#000000"
              stroke="none" pointer-events="none"/>
        <path d="M 840 1345.2 L 840 1357.2" fill="#000000" stroke="#000000"
              stroke-width="2.4" stroke-linecap="square" stroke-miterlimit="10"
              pointer-events="none"/>
        <path d="M 840 1402.8 L 840 1414.8" fill="#000000" stroke="#000000"
              stroke-width="2.4" stroke-linecap="square" stroke-miterlimit="10"
              pointer-events="none"/>
        <path d="M 831.6 1358.4 C 847.67 1358.19 848.4 1358.4 848.4 1358.4 L 848.4 1401.6 L 831.6 1401.6 Z"
              fill="#ffffff" stroke="#000000" stroke-width="2.4"
              stroke-linejoin="round" stroke-linecap="round"
              stroke-miterlimit="10" pointer-events="none"/>
        <rect x="838.8" y="1510.8" width="2.4" height="2.4" fill="#000000"
              stroke="none" pointer-events="none"/>
        <path d="M 840 1513.2 L 840 1534.8" fill="#000000" stroke="#000000"
              stroke-width="2.4" stroke-linecap="square" stroke-miterlimit="10"
              pointer-events="none"/>
        <path d="M 826.8 1535.44 L 853.2 1535.44 L 840 1558.24 Z" fill="#ffffff"
              stroke="#000000" stroke-width="2.4" stroke-linejoin="round"
              stroke-linecap="square" stroke-miterlimit="10"
              pointer-events="none"/>
        <rect x="814.8" y="1426.8" width="2.4" height="2.4" fill="#000000"
              stroke="none" transform="rotate(180,828,1464)"
              pointer-events="none"/>
        <rect x="814.8" y="1498.8" width="2.4" height="2.4" fill="#000000"
              stroke="none" transform="rotate(180,828,1464)"
              pointer-events="none"/>
        <path d="M 806.4 1454.71 C 832.8 1454.71 825.6 1454.71 825.6 1454.71"
              fill="none" stroke="#000000" stroke-width="2.4"
              stroke-linecap="round" stroke-miterlimit="10"
              transform="rotate(180,828,1464)" pointer-events="none"/>
        <path d="M 815.83 1455.04 C 815.83 1455.04 815.83 1455.04 806.4 1472.71 C 825.26 1472.71 825.26 1472.71 825.26 1472.71 Z"
              fill="#000000" stroke="#000000" stroke-width="1.79"
              stroke-linejoin="round" stroke-linecap="round"
              stroke-miterlimit="10" transform="rotate(180,828,1464)"
              pointer-events="none"/>
        <path d="M 816 1429.2 L 816 1498.8" fill="#000000" stroke="#000000"
              stroke-width="2.4" stroke-linecap="square" stroke-miterlimit="10"
              transform="rotate(180,828,1464)" pointer-events="none"/>
        <path d="M 837.9 1450.53 L 842.99 1455.62 L 846.38 1447.13 Z"
              fill="#000000" stroke="#000000" stroke-width="1.2"
              stroke-linejoin="round" stroke-linecap="square"
              stroke-miterlimit="10" transform="rotate(180,828,1464)"
              pointer-events="none"/>
        <path d="M 832.8 1460.67 L 842.99 1450.49" fill="none" stroke="#000000"
              stroke-width="2.4" stroke-linejoin="round" stroke-linecap="round"
              stroke-miterlimit="10" transform="rotate(180,828,1464)"
              pointer-events="none"/>
        <path d="M 835.88 1437.26 L 840.97 1442.35 L 844.37 1433.86 Z"
              fill="#000000" stroke="#000000" stroke-width="1.2"
              stroke-linejoin="round" stroke-linecap="round"
              stroke-miterlimit="10" transform="rotate(180,828,1464)"
              pointer-events="none"/>
        <path d="M 830.79 1447.46 L 840.97 1437.28" fill="none" stroke="#000000"
              stroke-width="2.4" stroke-linejoin="round" stroke-linecap="round"
              stroke-miterlimit="10" transform="rotate(180,828,1464)"
              pointer-events="none"/>
        <path d="M 840 1416 L 840 1428" fill="none" stroke="#000000"
              stroke-width="2.4" stroke-miterlimit="10" pointer-events="none"/>
        <path d="M 840 1500 L 840 1512" fill="none" stroke="#000000"
              stroke-width="2.4" stroke-miterlimit="10" pointer-events="none"/>
        <rect x="838.8" y="1258.8" width="2.4" height="2.4" fill="#000000"
              stroke="none" pointer-events="none"/>
        <path d="M 840 1237.2 L 840 1258.8" fill="#000000" stroke="#000000"
              stroke-width="2.4" stroke-linecap="square" stroke-miterlimit="10"
              pointer-events="none"/>
        <path d="M 828 1236 L 852 1236" fill="none" stroke="#000000"
              stroke-width="2.4" stroke-linecap="square" stroke-miterlimit="10"
              pointer-events="none"/>
        <rect x="828" y="1212" width="27.6" height="15.6" fill-opacity="0"
              fill="#dae2f2" stroke="none" pointer-events="none"/>
        <g fill="#000000" font-family="Arial,Helvetica" font-weight="bold"
           text-anchor="middle" font-size="14.399999999999999px">
            <text x="841.8" y="1224.6">
                3,3V
            </text>
        </g>
        <rect x="838.8" y="1258.8" width="2.4" height="2.4" fill="#000000"
              stroke="none" pointer-events="none"/>
        <rect x="838.8" y="1330.8" width="2.4" height="2.4" fill="#000000"
              stroke="none" pointer-events="none"/>
        <ellipse cx="839" cy="1296" rx="22.799815548" ry="22.799815548"
                 fill="#ffffff" stroke="#000000" stroke-width="2.4"
                 pointer-events="none"/>
        <g fill="#000000" font-family="Arial,Helvetica" text-anchor="middle"
           font-size="28.799999999999997px">
            <text x="840" y="1302">
                A
            </text>
        </g>
        <path d="M 840 1261.2 L 840 1272" fill="none" stroke="#000000"
              stroke-width="2.4" stroke-linecap="square" stroke-miterlimit="10"
              pointer-events="none"/>
        <path d="M 840 1320 L 840 1330.8" fill="none" stroke="#000000"
              stroke-width="2.4" stroke-linecap="square" stroke-miterlimit="10"
              pointer-events="none"/>
        <path d="M 840 1332 L 840 1344" fill="none" stroke="#000000"
              stroke-width="2.4" stroke-miterlimit="10" pointer-events="none"/>
    </g>
</svg>