
<svg xmlns="http://www.w3.org/2000/svg"
     xmlns:xlink="http://www.w3.org/1999/xlink" version="1.1" width="320"
     height="433">
    <defs/>
    <g transform=" scale(0.89) translate(-940,-1611.53125)">
        <rect x="1118.4" y="1790.4" width="3.2" height="3.2" fill="#000000"
              stroke="none" pointer-events="none"/>
        <rect x="1118.4" y="1886.4" width="3.2" height="3.2" fill="#000000"
              stroke="none" pointer-events="none"/>
        <path d="M 1120 1793.6 L 1120 1809.6" fill="#000000" stroke="#000000"
              stroke-width="3.2" stroke-linecap="square" stroke-miterlimit="10"
              pointer-events="none"/>
        <path d="M 1120 1870.4 L 1120 1886.4" fill="#000000" stroke="#000000"
              stroke-width="3.2" stroke-linecap="square" stroke-miterlimit="10"
              pointer-events="none"/>
        <path d="M 1108.8 1811.2 C 1130.23 1810.91 1131.2 1811.2 1131.2 1811.2 L 1131.2 1868.8 L 1108.8 1868.8 Z"
              fill="#ffffff" stroke="#000000" stroke-width="3.2"
              stroke-linejoin="round" stroke-linecap="round"
              stroke-miterlimit="10" pointer-events="none"/>
        <rect x="1118.4" y="2014.4" width="3.2" height="3.2" fill="#000000"
              stroke="none" pointer-events="none"/>
        <path d="M 1120 2017.6 L 1120 2046.4" fill="#000000" stroke="#000000"
              stroke-width="3.2" stroke-linecap="square" stroke-miterlimit="10"
              pointer-events="none"/>
        <path d="M 1102.4 2047.25 L 1137.6 2047.25 L 1120 2077.65 Z"
              fill="#ffffff" stroke="#000000" stroke-width="3.2"
              stroke-linejoin="round" stroke-linecap="square"
              stroke-miterlimit="10" pointer-events="none"/>
        <rect x="1086.4" y="1902.4" width="3.2" height="3.2" fill="#000000"
              stroke="none" transform="rotate(180,1104,1952)"
              pointer-events="none"/>
        <rect x="1086.4" y="1998.4" width="3.2" height="3.2" fill="#000000"
              stroke="none" transform="rotate(180,1104,1952)"
              pointer-events="none"/>
        <path d="M 1075.2 1939.61 C 1110.4 1939.61 1100.8 1939.61 1100.8 1939.61"
              fill="none" stroke="#000000" stroke-width="3.2"
              stroke-linecap="round" stroke-miterlimit="10"
              transform="rotate(180,1104,1952)" pointer-events="none"/>
        <path d="M 1087.78 1940.06 C 1087.78 1940.06 1087.78 1940.06 1075.2 1963.61 C 1100.35 1963.61 1100.35 1963.61 1100.35 1963.61 Z"
              fill="#000000" stroke="#000000" stroke-width="2.38"
              stroke-linejoin="round" stroke-linecap="round"
              stroke-miterlimit="10" transform="rotate(180,1104,1952)"
              pointer-events="none"/>
        <path d="M 1088 1905.6 L 1088 1998.4" fill="#000000" stroke="#000000"
              stroke-width="3.2" stroke-linecap="square" stroke-miterlimit="10"
              transform="rotate(180,1104,1952)" pointer-events="none"/>
        <path d="M 1117.19 1934.04 L 1123.98 1940.82 L 1128.51 1929.51 Z"
              fill="#000000" stroke="#000000" stroke-width="1.6"
              stroke-linejoin="round" stroke-linecap="square"
              stroke-miterlimit="10" transform="rotate(180,1104,1952)"
              pointer-events="none"/>
        <path d="M 1110.41 1947.56 L 1123.98 1933.98" fill="none"
              stroke="#000000" stroke-width="3.2" stroke-linejoin="round"
              stroke-linecap="round" stroke-miterlimit="10"
              transform="rotate(180,1104,1952)" pointer-events="none"/>
        <path d="M 1114.51 1916.34 L 1121.3 1923.13 L 1125.82 1911.82 Z"
              fill="#000000" stroke="#000000" stroke-width="1.6"
              stroke-linejoin="round" stroke-linecap="round"
              stroke-miterlimit="10" transform="rotate(180,1104,1952)"
              pointer-events="none"/>
        <path d="M 1107.72 1929.94 L 1121.3 1916.37" fill="none"
              stroke="#000000" stroke-width="3.2" stroke-linejoin="round"
              stroke-linecap="round" stroke-miterlimit="10"
              transform="rotate(180,1104,1952)" pointer-events="none"/>
        <path d="M 1120 1888 L 1120 1904" fill="none" stroke="#000000"
              stroke-width="3.2" stroke-miterlimit="10" pointer-events="none"/>
        <path d="M 1120 2000 L 1120 2016" fill="none" stroke="#000000"
              stroke-width="3.2" stroke-miterlimit="10" pointer-events="none"/>
        <rect x="1118.4" y="1678.4" width="3.2" height="3.2" fill="#000000"
              stroke="none" pointer-events="none"/>
        <path d="M 1120 1649.6 L 1120 1678.4" fill="#000000" stroke="#000000"
              stroke-width="3.2" stroke-linecap="square" stroke-miterlimit="10"
              pointer-events="none"/>
        <path d="M 1104 1648 L 1136 1648" fill="none" stroke="#000000"
              stroke-width="3.2" stroke-linecap="square" stroke-miterlimit="10"
              pointer-events="none"/>
        <rect x="1104" y="1616" width="36.8" height="20.8" fill-opacity="0"
              fill="#dae2f2" stroke="none" pointer-events="none"/>
        <g fill="#000000" font-family="Arial,Helvetica" font-weight="bold"
           text-anchor="middle" font-size="19.200000000000003px">
            <text x="1122.4" y="1632.8">
                3,3V
            </text>
        </g>
        <rect x="1118.4" y="1678.4" width="3.2" height="3.2" fill="#000000"
              stroke="none" pointer-events="none"/>
        <rect x="1118.4" y="1774.4" width="3.2" height="3.2" fill="#000000"
              stroke="none" pointer-events="none"/>
        <ellipse cx="1119" cy="1728" rx="30.399754064000003"
                 ry="30.399754064000003" fill="#ffffff" stroke="#000000"
                 stroke-width="3.2" pointer-events="none"/>
        <g fill="#000000" font-family="Arial,Helvetica" text-anchor="middle"
           font-size="38.400000000000006px">
            <text x="1120" y="1736">
                A
            </text>
        </g>
        <path d="M 1120 1681.6 L 1120 1696" fill="none" stroke="#000000"
              stroke-width="3.2" stroke-linecap="square" stroke-miterlimit="10"
              pointer-events="none"/>
        <path d="M 1120 1760 L 1120 1774.4" fill="none" stroke="#000000"
              stroke-width="3.2" stroke-linecap="square" stroke-miterlimit="10"
              pointer-events="none"/>
        <path d="M 1120 1776 L 1120 1792" fill="none" stroke="#000000"
              stroke-width="3.2" stroke-miterlimit="10" pointer-events="none"/>
        <rect x="942.4" y="1886.4" width="3.2" height="3.2" fill="#000000"
              stroke="none" transform="rotate(90,960,1888)"
              pointer-events="none"/>
        <path d="M 945.6 1888 L 974.4 1888" fill="#000000" stroke="#000000"
              stroke-width="3.2" stroke-linecap="square" stroke-miterlimit="10"
              transform="rotate(90,960,1888)" pointer-events="none"/>
        <rect x="1262.4" y="1886.4" width="3.2" height="3.2" fill="#000000"
              stroke="none" transform="rotate(90,1280,1888)"
              pointer-events="none"/>
        <path d="M 1265.6 1888 L 1294.4 1888" fill="#000000" stroke="#000000"
              stroke-width="3.2" stroke-linecap="square" stroke-miterlimit="10"
              transform="rotate(90,1280,1888)" pointer-events="none"/>
    </g>
</svg>