
<svg xmlns="http://www.w3.org/2000/svg"
     xmlns:xlink="http://www.w3.org/1999/xlink" version="1.1" width="496"
     height="522">
    <defs/>
    <g transform=" scale(0.93) translate(-1484,-1314.828125)">
        <rect x="1557.6" y="1413.6" width="4.8" height="4.8" fill="#000000"
              stroke="none" pointer-events="none"/>
        <path d="M 1560 1370.4 L 1560 1413.6" fill="#000000" stroke="#000000"
              stroke-width="4.8" stroke-linecap="square" stroke-miterlimit="10"
              pointer-events="none"/>
        <path d="M 1536 1368 L 1584 1368" fill="none" stroke="#000000"
              stroke-width="4.8" stroke-linecap="square" stroke-miterlimit="10"
              pointer-events="none"/>
        <rect x="1536" y="1320" width="55.2" height="31.2" fill-opacity="0"
              fill="#dae2f2" stroke="none" pointer-events="none"/>
        <g fill="#000000" font-family="Arial,Helvetica" font-weight="bold"
           text-anchor="middle" font-size="28.799999999999997px">
            <text x="1563.6" y="1345.2">
                3,3V
            </text>
        </g>
        <rect x="1557.6" y="1413.6" width="4.8" height="4.8" fill="#000000"
              stroke="none" pointer-events="none"/>
        <rect x="1557.6" y="1557.6" width="4.8" height="4.8" fill="#000000"
              stroke="none" pointer-events="none"/>
        <path d="M 1560 1418.4 L 1560 1442.4" fill="#000000" stroke="#000000"
              stroke-width="4.8" stroke-linecap="square" stroke-miterlimit="10"
              pointer-events="none"/>
        <path d="M 1560 1533.6 L 1560 1557.6" fill="#000000" stroke="#000000"
              stroke-width="4.8" stroke-linecap="square" stroke-miterlimit="10"
              pointer-events="none"/>
        <path d="M 1543.2 1444.8 C 1575.34 1444.37 1576.8 1444.8 1576.8 1444.8 L 1576.8 1531.2 L 1543.2 1531.2 Z"
              fill="#ffffff" stroke="#000000" stroke-width="4.8"
              stroke-linejoin="round" stroke-linecap="round"
              stroke-miterlimit="10" pointer-events="none"/>
        <rect x="1608" y="1464" width="19.2" height="31.2" fill-opacity="0"
              fill="#dae2f2" stroke="none" pointer-events="none"/>
        <g fill="#000000" font-family="Arial,Helvetica" font-weight="bold"
           text-anchor="middle" font-size="28.799999999999997px">
            <text x="1617.6" y="1489.2">
                R
            </text>
        </g>
        <rect x="1608" y="1488" width="76.8" height="31.2" fill-opacity="0"
              fill="#dae2f2" stroke="none" pointer-events="none"/>
        <g fill="#000000" font-family="Arial,Helvetica" font-weight="bold"
           text-anchor="middle" font-size="28.799999999999997px">
            <text x="1646.4" y="1513.2">
                100kΩ
            </text>
        </g>
        <rect x="1605.6" y="1701.6" width="4.8" height="4.8" fill="#000000"
              stroke="none" transform="rotate(270,1536,1680)"
              pointer-events="none"/>
        <rect x="1461.6" y="1701.6" width="4.8" height="4.8" fill="#000000"
              stroke="none" transform="rotate(270,1536,1680)"
              pointer-events="none"/>
        <ellipse cx="1578" cy="1704" rx="4.8" ry="4.8" fill="none"
                 stroke="#000000" stroke-width="4.8"
                 transform="rotate(270,1536,1680)" pointer-events="none"/>
        <rect x="1489.57" y="1685.11" width="93.41" height="2.25" fill="none"
              stroke="#000000" stroke-width="2.59"
              transform="rotate(270,1536,1680)" pointer-events="none"/>
        <ellipse cx="1494" cy="1704" rx="4.8" ry="4.8" fill="none"
                 stroke="#000000" stroke-width="4.8"
                 transform="rotate(270,1536,1680)" pointer-events="none"/>
        <path d="M 1585.2 1704 L 1605.6 1704" fill="none" stroke="#000000"
              stroke-width="4.8" stroke-linecap="square" stroke-miterlimit="10"
              transform="rotate(270,1536,1680)" pointer-events="none"/>
        <path d="M 1466.4 1704 L 1486.8 1704" fill="none" stroke="#000000"
              stroke-width="4.8" stroke-linecap="square" stroke-miterlimit="10"
              transform="rotate(270,1536,1680)" pointer-events="none"/>
        <path d="M 1536.28 1645.74 C 1536.28 1683.85 1536.28 1683.85 1536.28 1683.85"
              fill="none" stroke="#000000" stroke-width="4.8"
              stroke-linecap="square" stroke-miterlimit="10"
              transform="rotate(270,1536,1680)" pointer-events="none"/>
        <rect x="1701.6" y="1629.6" width="4.8" height="4.8" fill="#000000"
              stroke="none" pointer-events="none"/>
        <rect x="1701.6" y="1749.6" width="4.8" height="4.8" fill="#000000"
              stroke="none" pointer-events="none"/>
        <path d="M 1677.6 1682.4 C 1730.4 1682.4 1730.4 1682.4 1730.4 1682.4"
              fill="none" stroke="#000000" stroke-width="4.8"
              stroke-linecap="round" stroke-miterlimit="10"
              pointer-events="none"/>
        <path d="M 1677.6 1701.6 C 1730.4 1701.6 1730.4 1701.6 1730.4 1701.6"
              fill="none" stroke="#000000" stroke-width="4.8"
              stroke-linecap="round" stroke-miterlimit="10"
              pointer-events="none"/>
        <path d="M 1704 1634.4 L 1704 1680" fill="#000000" stroke="#000000"
              stroke-width="4.8" stroke-linecap="square" stroke-miterlimit="10"
              pointer-events="none"/>
        <path d="M 1704 1704 L 1704 1749.6" fill="#000000" stroke="#000000"
              stroke-width="4.8" stroke-linecap="square" stroke-miterlimit="10"
              pointer-events="none"/>
        <rect x="1776" y="1656" width="19.2" height="31.2" fill-opacity="0"
              fill="#dae2f2" stroke="none" pointer-events="none"/>
        <g fill="#000000" font-family="Arial,Helvetica" font-weight="bold"
           text-anchor="middle" font-size="28.799999999999997px">
            <text x="1785.6" y="1681.2">
                C
            </text>
        </g>
        <rect x="1776" y="1680" width="74.4" height="31.2" fill-opacity="0"
              fill="#dae2f2" stroke="none" pointer-events="none"/>
        <g fill="#000000" font-family="Arial,Helvetica" font-weight="bold"
           text-anchor="middle" font-size="28.799999999999997px">
            <text x="1813.2" y="1705.2">
                100nF
            </text>
        </g>
        <rect x="1701.6" y="1773.6" width="4.8" height="4.8" fill="#000000"
              stroke="none" pointer-events="none"/>
        <path d="M 1704 1778.4 L 1704 1821.6" fill="#000000" stroke="#000000"
              stroke-width="4.8" stroke-linecap="square" stroke-miterlimit="10"
              pointer-events="none"/>
        <path d="M 1677.6 1822.87 L 1730.4 1822.87 L 1704 1868.47 Z"
              fill="#ffffff" stroke="#000000" stroke-width="4.8"
              stroke-linejoin="round" stroke-linecap="square"
              stroke-miterlimit="10" pointer-events="none"/>
        <rect x="1557.6" y="1773.6" width="4.8" height="4.8" fill="#000000"
              stroke="none" pointer-events="none"/>
        <path d="M 1560 1778.4 L 1560 1821.6" fill="#000000" stroke="#000000"
              stroke-width="4.8" stroke-linecap="square" stroke-miterlimit="10"
              pointer-events="none"/>
        <path d="M 1533.6 1822.87 L 1586.4 1822.87 L 1560 1868.47 Z"
              fill="#ffffff" stroke="#000000" stroke-width="4.8"
              stroke-linejoin="round" stroke-linecap="square"
              stroke-miterlimit="10" pointer-events="none"/>
        <path d="M 1560 1416 L 1560 1416" fill="none" stroke="#000000"
              stroke-width="4.8" stroke-miterlimit="10" pointer-events="none"/>
        <path d="M 1560 1560 L 1560 1608" fill="none" stroke="#000000"
              stroke-width="4.8" stroke-miterlimit="10" pointer-events="none"/>
        <path d="M 1560 1752 L 1560 1776" fill="none" stroke="#000000"
              stroke-width="4.8" stroke-miterlimit="10" pointer-events="none"/>
        <path d="M 1704 1752 L 1704 1776" fill="none" stroke="#000000"
              stroke-width="4.8" stroke-miterlimit="10" pointer-events="none"/>
        <rect x="2013.6" y="1581.6" width="4.8" height="4.8" fill="#000000"
              stroke="none" transform="rotate(180,1992,1584)"
              pointer-events="none"/>
        <path d="M 1970.4 1584 L 2013.6 1584" fill="#000000" stroke="#000000"
              stroke-width="4.8" stroke-linecap="square" stroke-miterlimit="10"
              transform="rotate(180,1992,1584)" pointer-events="none"/>
        <rect x="1896" y="1536" width="108" height="31.2" fill-opacity="0"
              fill="#dae2f2" stroke="none" pointer-events="none"/>
        <g fill="#000000" font-family="Arial,Helvetica" font-weight="bold"
           text-anchor="middle" font-size="28.799999999999997px">
            <text x="1950" y="1561.2">
                GPIO : In
            </text>
        </g>
        <path d="M 1968 1584 L 1560 1584 L 1564.8 1584" fill="none"
              stroke="#000000" stroke-width="4.8" stroke-miterlimit="10"
              pointer-events="none"/>
        <ellipse cx="1560" cy="1584" rx="4.8" ry="4.8" fill="#000000"
                 stroke="#000000" stroke-width="4.8" pointer-events="none"/>
        <path d="M 1704 1632 L 1704 1584 L 1704 1588.8" fill="none"
              stroke="#000000" stroke-width="4.8" stroke-miterlimit="10"
              pointer-events="none"/>
        <ellipse cx="1704" cy="1584" rx="4.8" ry="4.8" fill="#000000"
                 stroke="#000000" stroke-width="4.8" pointer-events="none"/>
        <rect x="1821.6" y="1581.6" width="4.8" height="4.8" fill="#000000"
              stroke="none" transform="rotate(180,1800,1584)"
              pointer-events="none"/>
        <path d="M 1780.8 1584 L 1821.6 1584" fill="#000000" stroke="#000000"
              stroke-width="4.8" stroke-linecap="square" stroke-miterlimit="10"
              transform="rotate(180,1800,1584)" pointer-events="none"/>
        <path d="M 1792.58 1570.42 L 1779.02 1584 L 1792.58 1597.58" fill="none"
              stroke="#000000" stroke-width="4.8" stroke-linecap="square"
              stroke-miterlimit="10" transform="rotate(180,1800,1584)"
              pointer-events="none"/>
        <rect x="1800" y="1536" width="28.8" height="31.2" fill-opacity="0"
              fill="#dae2f2" stroke="none" pointer-events="none"/>
        <g fill="#000000" font-family="Arial,Helvetica" font-weight="bold"
           text-anchor="middle" font-size="28.799999999999997px">
            <text x="1814.4" y="1561.2">
                Iin
            </text>
        </g>
    </g>
</svg>