
<svg xmlns="http://www.w3.org/2000/svg"
     xmlns:xlink="http://www.w3.org/1999/xlink" version="1.1" width="582"
     height="222">
    <defs/>
    <g transform=" scale(0.85) translate(-895.1,-463.1)">
        <path d="M 1278 594 L 1299.18 594" fill="none" stroke="#000000"
              stroke-width="3.6" stroke-miterlimit="10" pointer-events="none"/>
        <path d="M 1309.98 594 L 1299.18 599.4 L 1299.18 588.6 Z" fill="#000000"
              stroke="#000000" stroke-width="3.6" stroke-miterlimit="10"
              pointer-events="none"/>
        <rect x="1440" y="558" width="72" height="72" fill="none"
              stroke="#000000" stroke-width="1.8" pointer-events="none"/>
        <rect x="900" y="558" width="72" height="72" fill="none"
              stroke="#000000" stroke-width="1.8" pointer-events="none"/>
        <path d="M 1134 594 L 1112.82 594" fill="none" stroke="#000000"
              stroke-width="3.6" stroke-miterlimit="10" pointer-events="none"/>
        <path d="M 1102.02 594 L 1112.82 588.6 L 1112.82 599.4 Z" fill="#000000"
              stroke="#000000" stroke-width="3.6" stroke-miterlimit="10"
              pointer-events="none"/>
        <rect x="1080" y="558" width="72" height="72" fill="none"
              stroke="#000000" stroke-width="1.8" pointer-events="none"/>
        <rect x="1260" y="558" width="72" height="72" fill="none"
              stroke="#000000" stroke-width="1.8" pointer-events="none"/>
        <path d="M 1206 522 L 1206 500.82" fill="none" stroke="#000000"
              stroke-width="3.6" stroke-miterlimit="10" pointer-events="none"/>
        <path d="M 1206 490.02 L 1211.4 500.82 L 1200.6 500.82 Z" fill="#000000"
              stroke="#000000" stroke-width="3.6" stroke-miterlimit="10"
              pointer-events="none"/>
        <path d="M 1206 666 L 1206 687.18" fill="none" stroke="#000000"
              stroke-width="3.6" stroke-miterlimit="10" pointer-events="none"/>
        <path d="M 1206 697.98 L 1200.6 687.18 L 1211.4 687.18 Z" fill="#000000"
              stroke="#000000" stroke-width="3.6" stroke-miterlimit="10"
              pointer-events="none"/>
        <rect x="1170" y="648" width="72" height="72" fill="none"
              stroke="#000000" stroke-width="1.8" pointer-events="none"/>
        <rect x="1170" y="468" width="72" height="72" fill="none"
              stroke="#000000" stroke-width="1.8" pointer-events="none"/>
        <path d="M 1494 594 Q 1494 612 1476 612 Q 1458 612 1458 594 Q 1458 576 1479.18 576"
              fill="none" stroke="#000000" stroke-width="3.6"
              stroke-miterlimit="10" pointer-events="none"/>
        <path d="M 1489.98 576 L 1479.18 581.4 L 1479.18 570.6 Z" fill="#000000"
              stroke="#000000" stroke-width="3.6" stroke-miterlimit="10"
              pointer-events="none"/>
        <path d="M 918 594 Q 918 612 936 612 Q 954 612 954 594 Q 954 576 932.82 576"
              fill="none" stroke="#000000" stroke-width="3.6"
              stroke-miterlimit="10" pointer-events="none"/>
        <path d="M 922.02 576 L 932.82 570.6 L 932.82 581.4 Z" fill="#000000"
              stroke="#000000" stroke-width="3.6" stroke-miterlimit="10"
              pointer-events="none"/>
    </g>
</svg>