<?xml version="1.0" encoding="UTF-8" standalone="no"?>
<svg
   xmlns:dc="http://purl.org/dc/elements/1.1/"
   xmlns:cc="http://creativecommons.org/ns#"
   xmlns:rdf="http://www.w3.org/1999/02/22-rdf-syntax-ns#"
   xmlns:svg="http://www.w3.org/2000/svg"
   xmlns="http://www.w3.org/2000/svg"
   viewBox="0 0 243.20799 520.12799"
   height="520.12799"
   width="243.20799"
   xml:space="preserve"
   version="1.1"
   id="svg2"><metadata
     id="metadata8"><rdf:RDF><cc:Work
         rdf:about=""><dc:format>image/svg+xml</dc:format><dc:type
           rdf:resource="http://purl.org/dc/dcmitype/StillImage" /></cc:Work></rdf:RDF></metadata><defs
     id="defs6" /><g
     transform="matrix(1.25,0,0,-1.25,0,520.12798)"
     id="g10"><g
       id="g12"><path
         id="path14"
         style="fill:none;stroke:#000000;stroke-width:1.92639995;stroke-linecap:butt;stroke-linejoin:miter;stroke-miterlimit:4;stroke-dasharray:none;stroke-opacity:1"
         d="m 13.906,415.138 166.754,0 c 7.172,0 12.942,-5.77 12.942,-12.942 l 0,-388.293 c 0,-7.168 -5.77,-12.941 -12.942,-12.941 l -166.754,0 C 6.734,0.962 0.965,6.735 0.965,13.903 l 0,388.293 c 0,7.172 5.769,12.942 12.941,12.942 z" /><path
         id="path16"
         style="fill:none;stroke:#000000;stroke-width:1.92639995;stroke-linecap:butt;stroke-linejoin:miter;stroke-miterlimit:10;stroke-dasharray:none;stroke-opacity:1"
         d="m 135.812,318.821 11.329,0" /><path
         id="path18"
         style="fill:#000000;fill-opacity:1;fill-rule:nonzero;stroke:#000000;stroke-width:1.92639995;stroke-linecap:butt;stroke-linejoin:miter;stroke-miterlimit:10;stroke-dasharray:none;stroke-opacity:1"
         d="m 152.922,318.821 -5.781,-2.89 0,5.777 5.781,-2.887 z" /><path
         id="path20"
         style="fill:none;stroke:#000000;stroke-width:1.92639995;stroke-linecap:butt;stroke-linejoin:miter;stroke-miterlimit:4;stroke-dasharray:none;stroke-opacity:1"
         d="m 126.18,222.501 38.527,0 0,-38.531 -38.527,0 0,38.531 z" /><path
         id="path22"
         style="fill:none;stroke:#000000;stroke-width:1.92639995;stroke-linecap:butt;stroke-linejoin:miter;stroke-miterlimit:4;stroke-dasharray:none;stroke-opacity:1"
         d="m 29.859,222.501 38.527,0 0,-38.531 -38.527,0 0,38.531 z" /><path
         id="path24"
         style="fill:none;stroke:#000000;stroke-width:1.92639995;stroke-linecap:butt;stroke-linejoin:miter;stroke-miterlimit:10;stroke-dasharray:none;stroke-opacity:1"
         d="m 58.754,318.821 -11.328,0" /><path
         id="path26"
         style="fill:#000000;fill-opacity:1;fill-rule:nonzero;stroke:#000000;stroke-width:1.92639995;stroke-linecap:butt;stroke-linejoin:miter;stroke-miterlimit:10;stroke-dasharray:none;stroke-opacity:1"
         d="m 41.645,318.821 5.781,2.887 0,-5.777 -5.781,2.89 z" /><path
         id="path28"
         style="fill:none;stroke:#000000;stroke-width:1.92639995;stroke-linecap:butt;stroke-linejoin:miter;stroke-miterlimit:4;stroke-dasharray:none;stroke-opacity:1"
         d="m 29.859,338.083 38.527,0 0,-38.527 -38.527,0 0,38.527 z" /><path
         id="path30"
         style="fill:none;stroke:#000000;stroke-width:1.92639995;stroke-linecap:butt;stroke-linejoin:miter;stroke-miterlimit:4;stroke-dasharray:none;stroke-opacity:1"
         d="m 126.18,338.083 38.527,0 0,-38.527 -38.527,0 0,38.527 z" /><path
         id="path32"
         style="fill:none;stroke:#000000;stroke-width:1.92639995;stroke-linecap:butt;stroke-linejoin:miter;stroke-miterlimit:10;stroke-dasharray:none;stroke-opacity:1"
         d="m 97.281,357.348 0,11.329" /><path
         id="path34"
         style="fill:#000000;fill-opacity:1;fill-rule:nonzero;stroke:#000000;stroke-width:1.92639995;stroke-linecap:butt;stroke-linejoin:miter;stroke-miterlimit:10;stroke-dasharray:none;stroke-opacity:1"
         d="m 97.281,374.458 2.891,-5.781 -5.777,0 2.886,5.781 z" /><path
         id="path36"
         style="fill:none;stroke:#000000;stroke-width:1.92639995;stroke-linecap:butt;stroke-linejoin:miter;stroke-miterlimit:10;stroke-dasharray:none;stroke-opacity:1"
         d="m 97.281,280.29 0,-11.328" /><path
         id="path38"
         style="fill:#000000;fill-opacity:1;fill-rule:nonzero;stroke:#000000;stroke-width:1.92639995;stroke-linecap:butt;stroke-linejoin:miter;stroke-miterlimit:10;stroke-dasharray:none;stroke-opacity:1"
         d="m 97.281,263.181 -2.886,5.781 5.777,0 -2.891,-5.781 z" /><path
         id="path40"
         style="fill:none;stroke:#000000;stroke-width:1.92639995;stroke-linecap:butt;stroke-linejoin:miter;stroke-miterlimit:4;stroke-dasharray:none;stroke-opacity:1"
         d="m 78.02,289.923 38.527,0 0,-38.527 -38.527,0 0,38.527 z" /><path
         id="path42"
         style="fill:none;stroke:#000000;stroke-width:1.92639995;stroke-linecap:butt;stroke-linejoin:miter;stroke-miterlimit:4;stroke-dasharray:none;stroke-opacity:1"
         d="m 78.02,386.243 38.527,0 0,-38.527 -38.527,0 0,38.527 z" /><path
         id="path44"
         style="fill:none;stroke:#000000;stroke-width:1.92639995;stroke-linecap:butt;stroke-linejoin:miter;stroke-miterlimit:10;stroke-dasharray:none;stroke-opacity:1"
         d="m 155.074,203.235 c 0,-6.422 -3.211,-9.633 -9.633,-9.633 -6.418,0 -9.629,3.211 -9.629,9.633 0,6.422 3.778,9.633 11.329,9.633" /><path
         id="path46"
         style="fill:#000000;fill-opacity:1;fill-rule:nonzero;stroke:#000000;stroke-width:1.92639995;stroke-linecap:butt;stroke-linejoin:miter;stroke-miterlimit:10;stroke-dasharray:none;stroke-opacity:1"
         d="m 152.922,212.868 -5.781,-2.891 0,5.782 5.781,-2.891 z" /><path
         id="path48"
         style="fill:none;stroke:#000000;stroke-width:1.92639995;stroke-linecap:butt;stroke-linejoin:miter;stroke-miterlimit:10;stroke-dasharray:none;stroke-opacity:1"
         d="m 39.492,203.235 c 0,-6.422 3.211,-9.633 9.633,-9.633 6.418,0 9.629,3.211 9.629,9.633 0,6.422 -3.777,9.633 -11.328,9.633" /><path
         id="path50"
         style="fill:#000000;fill-opacity:1;fill-rule:nonzero;stroke:#000000;stroke-width:1.92639995;stroke-linecap:butt;stroke-linejoin:miter;stroke-miterlimit:10;stroke-dasharray:none;stroke-opacity:1"
         d="m 41.645,212.868 5.781,2.891 0,-5.782 -5.781,2.891 z" /><path
         id="path52"
         style="fill:none;stroke:#000000;stroke-width:1.92639995;stroke-linecap:butt;stroke-linejoin:miter;stroke-miterlimit:4;stroke-dasharray:none;stroke-opacity:1"
         d="m 78.02,87.649 38.527,0 0,-38.527 -38.527,0 0,38.527 z" /><path
         id="path54"
         style="fill:#ff7f00;fill-opacity:1;fill-rule:nonzero;stroke:#000000;stroke-width:1.92639995;stroke-linecap:butt;stroke-linejoin:miter;stroke-miterlimit:4;stroke-dasharray:none;stroke-opacity:1"
         d="m 106.914,29.86 c 0,-5.32 -4.312,-9.633 -9.633,-9.633 -5.316,0 -9.629,4.313 -9.629,9.633 0,5.321 4.313,9.633 9.629,9.633 5.321,0 9.633,-4.312 9.633,-9.633 z" /><path
         id="path56"
         style="fill:none;stroke:#000000;stroke-width:1.92639995;stroke-linecap:butt;stroke-linejoin:miter;stroke-miterlimit:10;stroke-dasharray:none;stroke-opacity:1"
         d="m 90.402,22.977 13.762,13.762" /><path
         id="path58"
         style="fill:none;stroke:#000000;stroke-width:1.92639995;stroke-linecap:butt;stroke-linejoin:miter;stroke-miterlimit:10;stroke-dasharray:none;stroke-opacity:1"
         d="M 90.402,36.739 104.164,22.977" /><path
         id="path60"
         style="fill:none;stroke:#000000;stroke-width:1.92639995;stroke-linecap:butt;stroke-linejoin:miter;stroke-miterlimit:4;stroke-dasharray:none;stroke-opacity:1"
         d="m 106.914,68.388 c 0,-5.321 -4.312,-9.633 -9.633,-9.633 -5.316,0 -9.629,4.312 -9.629,9.633 0,5.32 4.313,9.632 9.629,9.632 5.321,0 9.633,-4.312 9.633,-9.632 z" /><path
         id="path62"
         style="fill:#000000;fill-opacity:1;fill-rule:nonzero;stroke:none"
         d="m 96.32,69.348 1.926,0 0,-1.926 -1.926,0 0,1.926 z" /><path
         id="path64"
         style="fill:none;stroke:#000000;stroke-width:1.92639995;stroke-linecap:square;stroke-linejoin:miter;stroke-miterlimit:10;stroke-dasharray:none;stroke-opacity:1"
         d="m 97.281,86.688 0,-17.34" /></g></g></svg>