<?xml version="1.0" encoding="UTF-8" standalone="no"?>
<svg
   xmlns:dc="http://purl.org/dc/elements/1.1/"
   xmlns:cc="http://creativecommons.org/ns#"
   xmlns:rdf="http://www.w3.org/1999/02/22-rdf-syntax-ns#"
   xmlns:svg="http://www.w3.org/2000/svg"
   xmlns="http://www.w3.org/2000/svg"
   viewBox="0 0 243.20799 520.12799"
   height="520.12799"
   width="243.20799"
   xml:space="preserve"
   version="1.1"
   id="svg2"><metadata
     id="metadata8"><rdf:RDF><cc:Work
         rdf:about=""><dc:format>image/svg+xml</dc:format><dc:type
           rdf:resource="http://purl.org/dc/dcmitype/StillImage" /></cc:Work></rdf:RDF></metadata><defs
     id="defs6" /><g
     transform="matrix(1.25,0,0,-1.25,0,520.12798)"
     id="g10"><g
       id="g12"><g
         transform="matrix(1,0,0,-1,0,416.10239)"
         id="g14"><path
           id="path16"
           style="fill:none;stroke:#000000;stroke-width:1.92639995;stroke-linecap:butt;stroke-linejoin:miter;stroke-miterlimit:4;stroke-dasharray:none;stroke-opacity:1"
           d="m 13.906,0.965 166.754,0 c 7.172,0 12.942,5.769 12.942,12.941 l 0,388.293 c 0,7.168 -5.77,12.942 -12.942,12.942 l -166.754,0 c -7.172,0 -12.941,-5.774 -12.941,-12.942 l 0,-388.293 C 0.965,6.734 6.734,0.965 13.906,0.965 Z" /></g><g
         transform="matrix(1,0,0,-1,0,416.10239)"
         id="g18"><path
           id="path20"
           style="fill:none;stroke:#000000;stroke-width:1.92639995;stroke-linecap:butt;stroke-linejoin:miter;stroke-miterlimit:10;stroke-dasharray:none;stroke-opacity:1"
           d="m 135.812,97.281 11.329,0" /></g><g
         transform="matrix(1,0,0,-1,0,416.10239)"
         id="g22"><path
           id="path24"
           style="fill:#000000;fill-opacity:1;fill-rule:nonzero;stroke:#000000;stroke-width:1.92639995;stroke-linecap:butt;stroke-linejoin:miter;stroke-miterlimit:10;stroke-dasharray:none;stroke-opacity:1"
           d="m 152.922,97.281 -5.781,2.891 0,-5.777 5.781,2.886 z" /></g><g
         transform="matrix(1,0,0,-1,0,416.10239)"
         id="g26"><path
           id="path28"
           style="fill:none;stroke:#000000;stroke-width:1.92639995;stroke-linecap:butt;stroke-linejoin:miter;stroke-miterlimit:4;stroke-dasharray:none;stroke-opacity:1"
           d="m 126.18,193.602 38.527,0 0,38.531 -38.527,0 0,-38.531 z" /></g><g
         transform="matrix(1,0,0,-1,0,416.10239)"
         id="g30"><path
           id="path32"
           style="fill:none;stroke:#000000;stroke-width:1.92639995;stroke-linecap:butt;stroke-linejoin:miter;stroke-miterlimit:4;stroke-dasharray:none;stroke-opacity:1"
           d="m 29.859,193.602 38.527,0 0,38.531 -38.527,0 0,-38.531 z" /></g><g
         transform="matrix(1,0,0,-1,0,416.10239)"
         id="g34"><path
           id="path36"
           style="fill:none;stroke:#000000;stroke-width:1.92639995;stroke-linecap:butt;stroke-linejoin:miter;stroke-miterlimit:10;stroke-dasharray:none;stroke-opacity:1"
           d="m 58.754,97.281 -11.328,0" /></g><g
         transform="matrix(1,0,0,-1,0,416.10239)"
         id="g38"><path
           id="path40"
           style="fill:#000000;fill-opacity:1;fill-rule:nonzero;stroke:#000000;stroke-width:1.92639995;stroke-linecap:butt;stroke-linejoin:miter;stroke-miterlimit:10;stroke-dasharray:none;stroke-opacity:1"
           d="m 41.645,97.281 5.781,-2.886 0,5.777 -5.781,-2.891 z" /></g><g
         transform="matrix(1,0,0,-1,0,416.10239)"
         id="g42"><path
           id="path44"
           style="fill:none;stroke:#000000;stroke-width:1.92639995;stroke-linecap:butt;stroke-linejoin:miter;stroke-miterlimit:4;stroke-dasharray:none;stroke-opacity:1"
           d="m 29.859,78.02 38.527,0 0,38.527 -38.527,0 0,-38.527 z" /></g><g
         transform="matrix(1,0,0,-1,0,416.10239)"
         id="g46"><path
           id="path48"
           style="fill:none;stroke:#000000;stroke-width:1.92639995;stroke-linecap:butt;stroke-linejoin:miter;stroke-miterlimit:4;stroke-dasharray:none;stroke-opacity:1"
           d="m 126.18,78.02 38.527,0 0,38.527 -38.527,0 0,-38.527 z" /></g><g
         transform="matrix(1,0,0,-1,0,416.10239)"
         id="g50"><path
           id="path52"
           style="fill:none;stroke:#000000;stroke-width:1.92639995;stroke-linecap:butt;stroke-linejoin:miter;stroke-miterlimit:10;stroke-dasharray:none;stroke-opacity:1"
           d="m 97.281,58.754 0,-11.328" /></g><g
         transform="matrix(1,0,0,-1,0,416.10239)"
         id="g54"><path
           id="path56"
           style="fill:#000000;fill-opacity:1;fill-rule:nonzero;stroke:#000000;stroke-width:1.92639995;stroke-linecap:butt;stroke-linejoin:miter;stroke-miterlimit:10;stroke-dasharray:none;stroke-opacity:1"
           d="m 97.281,41.645 2.891,5.781 -5.777,0 2.886,-5.781 z" /></g><g
         transform="matrix(1,0,0,-1,0,416.10239)"
         id="g58"><path
           id="path60"
           style="fill:none;stroke:#000000;stroke-width:1.92639995;stroke-linecap:butt;stroke-linejoin:miter;stroke-miterlimit:10;stroke-dasharray:none;stroke-opacity:1"
           d="m 97.281,135.812 0,11.329" /></g><g
         transform="matrix(1,0,0,-1,0,416.10239)"
         id="g62"><path
           id="path64"
           style="fill:#000000;fill-opacity:1;fill-rule:nonzero;stroke:#000000;stroke-width:1.92639995;stroke-linecap:butt;stroke-linejoin:miter;stroke-miterlimit:10;stroke-dasharray:none;stroke-opacity:1"
           d="m 97.281,152.922 -2.886,-5.781 5.777,0 -2.891,5.781 z" /></g><g
         transform="matrix(1,0,0,-1,0,416.10239)"
         id="g66"><path
           id="path68"
           style="fill:none;stroke:#000000;stroke-width:1.92639995;stroke-linecap:butt;stroke-linejoin:miter;stroke-miterlimit:4;stroke-dasharray:none;stroke-opacity:1"
           d="m 78.02,126.18 38.527,0 0,38.527 -38.527,0 0,-38.527 z" /></g><g
         transform="matrix(1,0,0,-1,0,416.10239)"
         id="g70"><path
           id="path72"
           style="fill:none;stroke:#000000;stroke-width:1.92639995;stroke-linecap:butt;stroke-linejoin:miter;stroke-miterlimit:4;stroke-dasharray:none;stroke-opacity:1"
           d="m 78.02,29.859 38.527,0 0,38.527 -38.527,0 0,-38.527 z" /></g><g
         transform="matrix(1,0,0,-1,0,416.10239)"
         id="g74"><path
           id="path76"
           style="fill:none;stroke:#000000;stroke-width:1.92639995;stroke-linecap:butt;stroke-linejoin:miter;stroke-miterlimit:10;stroke-dasharray:none;stroke-opacity:1"
           d="m 155.074,212.867 c 0,6.422 -3.211,9.633 -9.633,9.633 -6.418,0 -9.629,-3.211 -9.629,-9.633 0,-6.422 3.778,-9.633 11.329,-9.633" /></g><g
         transform="matrix(1,0,0,-1,0,416.10239)"
         id="g78"><path
           id="path80"
           style="fill:#000000;fill-opacity:1;fill-rule:nonzero;stroke:#000000;stroke-width:1.92639995;stroke-linecap:butt;stroke-linejoin:miter;stroke-miterlimit:10;stroke-dasharray:none;stroke-opacity:1"
           d="m 152.922,203.234 -5.781,2.891 0,-5.781 5.781,2.89 z" /></g><g
         transform="matrix(1,0,0,-1,0,416.10239)"
         id="g82"><path
           id="path84"
           style="fill:none;stroke:#000000;stroke-width:1.92639995;stroke-linecap:butt;stroke-linejoin:miter;stroke-miterlimit:10;stroke-dasharray:none;stroke-opacity:1"
           d="m 39.492,212.867 c 0,6.422 3.211,9.633 9.633,9.633 6.418,0 9.629,-3.211 9.629,-9.633 0,-6.422 -3.777,-9.633 -11.328,-9.633" /></g><g
         transform="matrix(1,0,0,-1,0,416.10239)"
         id="g86"><path
           id="path88"
           style="fill:#000000;fill-opacity:1;fill-rule:nonzero;stroke:#000000;stroke-width:1.92639995;stroke-linecap:butt;stroke-linejoin:miter;stroke-miterlimit:10;stroke-dasharray:none;stroke-opacity:1"
           d="m 41.645,203.234 5.781,-2.89 0,5.781 -5.781,-2.891 z" /></g><g
         transform="matrix(1,0,0,-1,0,416.10239)"
         id="g90"><path
           id="path92"
           style="fill:none;stroke:#000000;stroke-width:1.92639995;stroke-linecap:butt;stroke-linejoin:miter;stroke-miterlimit:4;stroke-dasharray:none;stroke-opacity:1"
           d="m 78.02,328.453 38.527,0 0,38.527 -38.527,0 0,-38.527 z" /></g><g
         transform="matrix(1,0,0,-1,0,416.10239)"
         id="g94"><path
           id="path96"
           style="fill:#ff7f00;fill-opacity:1;fill-rule:nonzero;stroke:#000000;stroke-width:0.96319997;stroke-linecap:butt;stroke-linejoin:miter;stroke-miterlimit:4;stroke-dasharray:none;stroke-opacity:1"
           d="m 106.914,386.242 c 0,5.32 -4.312,9.633 -9.633,9.633 -5.316,0 -9.629,-4.313 -9.629,-9.633 0,-5.32 4.313,-9.633 9.629,-9.633 5.321,0 9.633,4.313 9.633,9.633 z" /></g><g
         transform="matrix(1,0,0,-1,0,416.10239)"
         id="g98"><path
           id="path100"
           style="fill:none;stroke:#000000;stroke-width:1.92639995;stroke-linecap:butt;stroke-linejoin:miter;stroke-miterlimit:10;stroke-dasharray:none;stroke-opacity:1"
           d="m 90.402,393.125 13.762,-13.762" /></g><g
         transform="matrix(1,0,0,-1,0,416.10239)"
         id="g102"><path
           id="path104"
           style="fill:none;stroke:#000000;stroke-width:1.92639995;stroke-linecap:butt;stroke-linejoin:miter;stroke-miterlimit:10;stroke-dasharray:none;stroke-opacity:1"
           d="m 90.402,379.363 13.762,13.762" /></g><g
         transform="matrix(1,0,0,-1,0,416.10239)"
         id="g106"><path
           id="path108"
           style="fill:none;stroke:#000000;stroke-width:1.92639995;stroke-linecap:butt;stroke-linejoin:miter;stroke-miterlimit:4;stroke-dasharray:none;stroke-opacity:1"
           d="m 106.914,347.715 c 0,5.32 -4.312,9.633 -9.633,9.633 -5.316,0 -9.629,-4.313 -9.629,-9.633 0,-5.32 4.313,-9.633 9.629,-9.633 5.321,0 9.633,4.313 9.633,9.633 z" /></g><path
         id="path110"
         style="fill:#000000;fill-opacity:1;fill-rule:nonzero;stroke:none"
         d="m 96.32,69.348 1.926,0 0,-1.926 -1.926,0 0,1.926 z" /><g
         transform="matrix(1,0,0,-1,0,416.10239)"
         id="g112"><path
           id="path114"
           style="fill:none;stroke:#000000;stroke-width:1.92639995;stroke-linecap:square;stroke-linejoin:miter;stroke-miterlimit:10;stroke-dasharray:none;stroke-opacity:1"
           d="m 97.281,329.414 0,17.34" /></g></g></g></svg>