<?xml version="1.0" encoding="UTF-8" standalone="no"?>
<svg
   xmlns:dc="http://purl.org/dc/elements/1.1/"
   xmlns:cc="http://creativecommons.org/ns#"
   xmlns:rdf="http://www.w3.org/1999/02/22-rdf-syntax-ns#"
   xmlns:svg="http://www.w3.org/2000/svg"
   xmlns="http://www.w3.org/2000/svg"
   viewBox="0 0 284.41599 608.25598"
   height="608.25598"
   width="284.41599"
   xml:space="preserve"
   version="1.1"
   id="svg2"><metadata
     id="metadata8"><rdf:RDF><cc:Work
         rdf:about=""><dc:format>image/svg+xml</dc:format><dc:type
           rdf:resource="http://purl.org/dc/dcmitype/StillImage" /></cc:Work></rdf:RDF></metadata><defs
     id="defs6" /><g
     transform="matrix(1.25,0,0,-1.25,0,608.256)"
     id="g10"><g
       id="g12"><g
         transform="matrix(1,0,0,-1,0,486.6048)"
         id="g14"><path
           id="path16"
           style="fill:none;stroke:#000000;stroke-width:2.25279999;stroke-linecap:butt;stroke-linejoin:miter;stroke-miterlimit:4;stroke-dasharray:none;stroke-opacity:1"
           d="m 16.262,1.125 195.008,0 c 8.386,0 15.136,6.754 15.136,15.137 l 0,454.082 c 0,8.383 -6.75,15.133 -15.136,15.133 l -195.008,0 c -8.383,0 -15.137,-6.75 -15.137,-15.133 l 0,-454.082 C 1.125,7.879 7.879,1.125 16.262,1.125 Z" /></g><g
         transform="matrix(1,0,0,-1,0,486.6048)"
         id="g18"><path
           id="path20"
           style="fill:none;stroke:#000000;stroke-width:2.25279999;stroke-linecap:butt;stroke-linejoin:miter;stroke-miterlimit:10;stroke-dasharray:none;stroke-opacity:1"
           d="m 158.824,113.766 13.246,0" /></g><g
         transform="matrix(1,0,0,-1,0,486.6048)"
         id="g22"><path
           id="path24"
           style="fill:#000000;fill-opacity:1;fill-rule:nonzero;stroke:#000000;stroke-width:2.25279999;stroke-linecap:butt;stroke-linejoin:miter;stroke-miterlimit:10;stroke-dasharray:none;stroke-opacity:1"
           d="m 178.832,113.766 -6.762,3.379 0,-6.758 6.762,3.379 z" /></g><g
         transform="matrix(1,0,0,-1,0,486.6048)"
         id="g26"><path
           id="path28"
           style="fill:none;stroke:#000000;stroke-width:2.25279999;stroke-linecap:butt;stroke-linejoin:miter;stroke-miterlimit:4;stroke-dasharray:none;stroke-opacity:1"
           d="m 147.559,226.406 45.055,0 0,45.055 -45.055,0 0,-45.055 z" /></g><g
         transform="matrix(1,0,0,-1,0,486.6048)"
         id="g30"><path
           id="path32"
           style="fill:none;stroke:#000000;stroke-width:2.25279999;stroke-linecap:butt;stroke-linejoin:miter;stroke-miterlimit:4;stroke-dasharray:none;stroke-opacity:1"
           d="m 34.918,226.406 45.055,0 0,45.055 -45.055,0 0,-45.055 z" /></g><g
         transform="matrix(1,0,0,-1,0,486.6048)"
         id="g34"><path
           id="path36"
           style="fill:none;stroke:#000000;stroke-width:2.25279999;stroke-linecap:butt;stroke-linejoin:miter;stroke-miterlimit:10;stroke-dasharray:none;stroke-opacity:1"
           d="m 68.711,113.766 -13.25,0" /></g><g
         transform="matrix(1,0,0,-1,0,486.6048)"
         id="g38"><path
           id="path40"
           style="fill:#000000;fill-opacity:1;fill-rule:nonzero;stroke:#000000;stroke-width:2.25279999;stroke-linecap:butt;stroke-linejoin:miter;stroke-miterlimit:10;stroke-dasharray:none;stroke-opacity:1"
           d="m 48.703,113.766 6.758,-3.379 0,6.758 -6.758,-3.379 z" /></g><g
         transform="matrix(1,0,0,-1,0,486.6048)"
         id="g42"><path
           id="path44"
           style="fill:none;stroke:#000000;stroke-width:2.25279999;stroke-linecap:butt;stroke-linejoin:miter;stroke-miterlimit:4;stroke-dasharray:none;stroke-opacity:1"
           d="m 34.918,91.238 45.055,0 0,45.055 -45.055,0 0,-45.055 z" /></g><g
         transform="matrix(1,0,0,-1,0,486.6048)"
         id="g46"><path
           id="path48"
           style="fill:none;stroke:#000000;stroke-width:2.25279999;stroke-linecap:butt;stroke-linejoin:miter;stroke-miterlimit:4;stroke-dasharray:none;stroke-opacity:1"
           d="m 147.559,91.238 45.055,0 0,45.055 -45.055,0 0,-45.055 z" /></g><g
         transform="matrix(1,0,0,-1,0,486.6048)"
         id="g50"><path
           id="path52"
           style="fill:none;stroke:#000000;stroke-width:2.25279999;stroke-linecap:butt;stroke-linejoin:miter;stroke-miterlimit:10;stroke-dasharray:none;stroke-opacity:1"
           d="m 113.766,68.711 0,-13.25" /></g><g
         transform="matrix(1,0,0,-1,0,486.6048)"
         id="g54"><path
           id="path56"
           style="fill:#000000;fill-opacity:1;fill-rule:nonzero;stroke:#000000;stroke-width:2.25279999;stroke-linecap:butt;stroke-linejoin:miter;stroke-miterlimit:10;stroke-dasharray:none;stroke-opacity:1"
           d="m 113.766,48.703 3.379,6.758 -6.758,0 3.379,-6.758 z" /></g><g
         transform="matrix(1,0,0,-1,0,486.6048)"
         id="g58"><path
           id="path60"
           style="fill:none;stroke:#000000;stroke-width:2.25279999;stroke-linecap:butt;stroke-linejoin:miter;stroke-miterlimit:10;stroke-dasharray:none;stroke-opacity:1"
           d="m 113.766,158.824 0,13.246" /></g><g
         transform="matrix(1,0,0,-1,0,486.6048)"
         id="g62"><path
           id="path64"
           style="fill:#000000;fill-opacity:1;fill-rule:nonzero;stroke:#000000;stroke-width:2.25279999;stroke-linecap:butt;stroke-linejoin:miter;stroke-miterlimit:10;stroke-dasharray:none;stroke-opacity:1"
           d="m 113.766,178.832 -3.379,-6.762 6.758,0 -3.379,6.762 z" /></g><g
         transform="matrix(1,0,0,-1,0,486.6048)"
         id="g66"><path
           id="path68"
           style="fill:none;stroke:#000000;stroke-width:2.25279999;stroke-linecap:butt;stroke-linejoin:miter;stroke-miterlimit:4;stroke-dasharray:none;stroke-opacity:1"
           d="m 91.238,147.559 45.055,0 0,45.055 -45.055,0 0,-45.055 z" /></g><g
         transform="matrix(1,0,0,-1,0,486.6048)"
         id="g70"><path
           id="path72"
           style="fill:none;stroke:#000000;stroke-width:2.25279999;stroke-linecap:butt;stroke-linejoin:miter;stroke-miterlimit:4;stroke-dasharray:none;stroke-opacity:1"
           d="m 91.238,34.918 45.055,0 0,45.055 -45.055,0 0,-45.055 z" /></g><g
         transform="matrix(1,0,0,-1,0,486.6048)"
         id="g74"><path
           id="path76"
           style="fill:none;stroke:#000000;stroke-width:2.25279999;stroke-linecap:butt;stroke-linejoin:miter;stroke-miterlimit:10;stroke-dasharray:none;stroke-opacity:1"
           d="m 181.352,248.934 c 0,7.511 -3.754,11.265 -11.266,11.265 -7.508,0 -11.262,-3.754 -11.262,-11.265 0,-7.508 4.414,-11.262 13.246,-11.262" /></g><g
         transform="matrix(1,0,0,-1,0,486.6048)"
         id="g78"><path
           id="path80"
           style="fill:#000000;fill-opacity:1;fill-rule:nonzero;stroke:#000000;stroke-width:2.25279999;stroke-linecap:butt;stroke-linejoin:miter;stroke-miterlimit:10;stroke-dasharray:none;stroke-opacity:1"
           d="m 178.832,237.672 -6.762,3.379 0,-6.758 6.762,3.379 z" /></g><g
         transform="matrix(1,0,0,-1,0,486.6048)"
         id="g82"><path
           id="path84"
           style="fill:none;stroke:#000000;stroke-width:2.25279999;stroke-linecap:butt;stroke-linejoin:miter;stroke-miterlimit:10;stroke-dasharray:none;stroke-opacity:1"
           d="m 46.184,248.934 c 0,7.511 3.754,11.265 11.261,11.265 7.512,0 11.266,-3.754 11.266,-11.265 0,-7.508 -4.418,-11.262 -13.25,-11.262" /></g><g
         transform="matrix(1,0,0,-1,0,486.6048)"
         id="g86"><path
           id="path88"
           style="fill:#000000;fill-opacity:1;fill-rule:nonzero;stroke:#000000;stroke-width:2.25279999;stroke-linecap:butt;stroke-linejoin:miter;stroke-miterlimit:10;stroke-dasharray:none;stroke-opacity:1"
           d="m 48.703,237.672 6.758,-3.379 0,6.758 -6.758,-3.379 z" /></g></g></g></svg>