<?xml version="1.0" encoding="UTF-8" standalone="no"?>
<svg
   xmlns:dc="http://purl.org/dc/elements/1.1/"
   xmlns:cc="http://creativecommons.org/ns#"
   xmlns:rdf="http://www.w3.org/1999/02/22-rdf-syntax-ns#"
   xmlns:svg="http://www.w3.org/2000/svg"
   xmlns="http://www.w3.org/2000/svg"
   viewBox="0 0 524.40942 744.09448"
   height="744.09448"
   width="524.40942"
   xml:space="preserve"
   version="1.1"
   id="svg2"><metadata
     id="metadata8"><rdf:RDF><cc:Work
         rdf:about=""><dc:format>image/svg+xml</dc:format><dc:type
           rdf:resource="http://purl.org/dc/dcmitype/StillImage" /></cc:Work></rdf:RDF></metadata><defs
     id="defs6" /><g
     transform="matrix(1.25,0,0,-1.25,0,744.09449)"
     id="g10"><g
       id="g12"><g
         transform="matrix(0,1,1,0,0,595.27559)"
         id="g14"><path
           id="path16"
           style="fill:none;stroke:#000000;stroke-width:0.42519701;stroke-linecap:round;stroke-linejoin:round;stroke-miterlimit:10;stroke-dasharray:none;stroke-opacity:1"
           d="m -425.117,165.84 c 0,5.762 -8.637,5.762 -8.637,0 0,-5.762 8.637,-5.762 8.637,0" /></g><g
         transform="matrix(0,1,1,0,0,595.27559)"
         id="g18"><path
           id="path20"
           style="fill:none;stroke:#000000;stroke-width:0.42519701;stroke-linecap:round;stroke-linejoin:round;stroke-miterlimit:10;stroke-dasharray:none;stroke-opacity:1"
           d="m -359.836,165.84 c 0,5.762 -8.641,5.762 -8.641,0 0,-5.762 8.641,-5.762 8.641,0" /></g><g
         transform="matrix(0,1,1,0,0,595.27559)"
         id="g22"><path
           id="path24"
           style="fill:none;stroke:#000000;stroke-width:0.42519701;stroke-linecap:round;stroke-linejoin:round;stroke-miterlimit:10;stroke-dasharray:none;stroke-opacity:1"
           d="m -359.836,330.238 c 0,5.762 -8.641,5.762 -8.641,0 0,-5.758 8.641,-5.758 8.641,0" /></g><g
         transform="matrix(0,1,1,0,0,595.27559)"
         id="g26"><path
           id="path28"
           style="fill:none;stroke:#000000;stroke-width:0.42519701;stroke-linecap:round;stroke-linejoin:round;stroke-miterlimit:10;stroke-dasharray:none;stroke-opacity:1"
           d="m -425.117,330.238 c 0,5.762 -8.637,5.762 -8.637,0 0,-5.758 8.637,-5.758 8.637,0" /></g><g
         transform="matrix(0,1,1,0,0,595.27559)"
         id="g30"><path
           id="path32"
           style="fill:none;stroke:#000000;stroke-width:0.42519701;stroke-linecap:round;stroke-linejoin:round;stroke-miterlimit:10;stroke-dasharray:none;stroke-opacity:1"
           d="m -354.316,156 -84.961,0" /></g><g
         transform="matrix(0,1,1,0,0,595.27559)"
         id="g34"><path
           id="path36"
           style="fill:none;stroke:#000000;stroke-width:0.42519701;stroke-linecap:round;stroke-linejoin:round;stroke-miterlimit:10;stroke-dasharray:none;stroke-opacity:1"
           d="m -354.316,340.078 0,-184.078" /></g><g
         transform="matrix(0,1,1,0,0,595.27559)"
         id="g38"><path
           id="path40"
           style="fill:none;stroke:#000000;stroke-width:0.42519701;stroke-linecap:round;stroke-linejoin:round;stroke-miterlimit:10;stroke-dasharray:none;stroke-opacity:1"
           d="m -439.277,340.078 84.961,0" /></g><g
         transform="matrix(0,1,1,0,0,595.27559)"
         id="g42"><path
           id="path44"
           style="fill:none;stroke:#000000;stroke-width:0.42519701;stroke-linecap:round;stroke-linejoin:round;stroke-miterlimit:10;stroke-dasharray:none;stroke-opacity:1"
           d="m -439.277,156 0,184.078" /></g><g
         transform="matrix(0,1,1,0,0,595.27559)"
         id="g46"><path
           id="path48"
           style="fill:none;stroke:#000000;stroke-width:0.85039401;stroke-linecap:round;stroke-linejoin:round;stroke-miterlimit:10;stroke-dasharray:none;stroke-opacity:1"
           d="m -406.875,256.559 -6.961,-7.2" /></g><g
         transform="matrix(0,1,1,0,0,595.27559)"
         id="g50"><path
           id="path52"
           style="fill:#000000;fill-opacity:1;fill-rule:nonzero;stroke:#000000;stroke-width:0.24000099;stroke-linecap:round;stroke-linejoin:round;stroke-miterlimit:10;stroke-dasharray:none;stroke-opacity:1"
           d="m -404.234,256.559 c 0,3.519 -5.282,3.519 -5.282,0 0,-3.52 5.282,-3.52 5.282,0" /></g><g
         transform="matrix(0,1,1,0,0,595.27559)"
         id="g54"><path
           id="path56"
           style="fill:#000000;fill-opacity:1;fill-rule:nonzero;stroke:#000000;stroke-width:0.24000099;stroke-linecap:round;stroke-linejoin:round;stroke-miterlimit:10;stroke-dasharray:none;stroke-opacity:1"
           d="m -394.156,185.762 c 0,3.519 -5.282,3.519 -5.282,0 0,-3.524 5.282,-3.524 5.282,0" /></g><g
         transform="matrix(0,1,1,0,0,595.27559)"
         id="g58"><path
           id="path60"
           style="fill:none;stroke:#000000;stroke-width:0.85039401;stroke-linecap:round;stroke-linejoin:round;stroke-miterlimit:10;stroke-dasharray:none;stroke-opacity:1"
           d="m -406.875,185.762 10.078,0" /></g><g
         transform="matrix(0,1,1,0,0,595.27559)"
         id="g62"><path
           id="path64"
           style="fill:none;stroke:#000000;stroke-width:0.85039401;stroke-linecap:round;stroke-linejoin:round;stroke-miterlimit:10;stroke-dasharray:none;stroke-opacity:1"
           d="m -413.836,192.719 6.961,-6.957" /></g><g
         transform="matrix(0,1,1,0,0,595.27559)"
         id="g66"><path
           id="path68"
           style="fill:none;stroke:#000000;stroke-width:0.85039401;stroke-linecap:round;stroke-linejoin:round;stroke-miterlimit:10;stroke-dasharray:none;stroke-opacity:1"
           d="m -413.836,249.359 0,-56.64" /></g><g
         transform="matrix(0,1,1,0,0,595.27559)"
         id="g70"><path
           id="path72"
           style="fill:none;stroke:#000000;stroke-width:0.85039401;stroke-linecap:round;stroke-linejoin:round;stroke-miterlimit:10;stroke-dasharray:none;stroke-opacity:1"
           d="m -418.156,325.922 24.242,-24" /></g><g
         transform="matrix(0,1,1,0,0,595.27559)"
         id="g74"><path
           id="path76"
           style="fill:none;stroke:#000000;stroke-width:0.85039401;stroke-linecap:round;stroke-linejoin:round;stroke-miterlimit:10;stroke-dasharray:none;stroke-opacity:1"
           d="m -393.914,301.922 0,-58.082" /></g><g
         transform="matrix(0,1,1,0,0,595.27559)"
         id="g78"><path
           id="path80"
           style="fill:none;stroke:#000000;stroke-width:0.85039401;stroke-linecap:round;stroke-linejoin:round;stroke-miterlimit:10;stroke-dasharray:none;stroke-opacity:1"
           d="m -393.914,243.84 -12.961,0" /></g><g
         transform="matrix(0,1,1,0,0,595.27559)"
         id="g82"><path
           id="path84"
           style="fill:#000000;fill-opacity:1;fill-rule:nonzero;stroke:#000000;stroke-width:0.24000099;stroke-linecap:round;stroke-linejoin:round;stroke-miterlimit:10;stroke-dasharray:none;stroke-opacity:1"
           d="m -404.234,243.84 c 0,3.519 -5.282,3.519 -5.282,0 0,-3.52 5.282,-3.52 5.282,0" /></g><g
         transform="matrix(0,1,1,0,0,595.27559)"
         id="g86"><path
           id="path88"
           style="fill:#000000;fill-opacity:1;fill-rule:nonzero;stroke:#000000;stroke-width:0.24000099;stroke-linecap:round;stroke-linejoin:round;stroke-miterlimit:10;stroke-dasharray:none;stroke-opacity:1"
           d="m -391.277,243.84 c 0,3.519 -5.278,3.519 -5.278,0 0,-3.52 5.278,-3.52 5.278,0" /></g><g
         transform="matrix(0,1,1,0,0,595.27559)"
         id="g90"><path
           id="path92"
           style="fill:#000000;fill-opacity:1;fill-rule:nonzero;stroke:#000000;stroke-width:0.24000099;stroke-linecap:round;stroke-linejoin:round;stroke-miterlimit:10;stroke-dasharray:none;stroke-opacity:1"
           d="m -373.035,330.238 c 0,3.524 -5.281,3.524 -5.281,0 0,-3.519 5.281,-3.519 5.281,0" /></g><g
         transform="matrix(0,1,1,0,0,595.27559)"
         id="g94"><path
           id="path96"
           style="fill:none;stroke:#000000;stroke-width:0.85039401;stroke-linecap:round;stroke-linejoin:round;stroke-miterlimit:10;stroke-dasharray:none;stroke-opacity:1"
           d="m -375.676,330.238 -36.719,0" /></g><g
         transform="matrix(0,1,1,0,0,595.27559)"
         id="g98"><path
           id="path100"
           style="fill:none;stroke:#000000;stroke-width:0.85039401;stroke-linecap:round;stroke-linejoin:round;stroke-miterlimit:10;stroke-dasharray:none;stroke-opacity:1"
           d="m -412.395,330.238 -1.441,0" /></g><g
         transform="matrix(0,1,1,0,0,595.27559)"
         id="g102"><path
           id="path104"
           style="fill:none;stroke:#000000;stroke-width:0.85039401;stroke-linecap:round;stroke-linejoin:round;stroke-miterlimit:10;stroke-dasharray:none;stroke-opacity:1"
           d="m -413.836,330.238 -4.32,-4.316" /></g><g
         transform="matrix(0,1,1,0,0,595.27559)"
         id="g106"><path
           id="path108"
           style="fill:#000000;fill-opacity:1;fill-rule:nonzero;stroke:#000000;stroke-width:0.24000099;stroke-linecap:round;stroke-linejoin:round;stroke-miterlimit:10;stroke-dasharray:none;stroke-opacity:1"
           d="m -415.516,325.922 c 0,3.519 -5.281,3.519 -5.281,0 0,-3.524 5.281,-3.524 5.281,0" /></g><g
         transform="matrix(0,1,1,0,0,595.27559)"
         id="g110"><path
           id="path112"
           style="fill:#000000;fill-opacity:1;fill-rule:evenodd;stroke:#000000;stroke-width:0.24000099;stroke-linecap:round;stroke-linejoin:round;stroke-miterlimit:10;stroke-dasharray:none;stroke-opacity:1"
           d="m -430.637,313.922 -4.801,0 0,5.039 4.801,0 0,-5.039 z" /></g><g
         transform="matrix(0,1,1,0,0,595.27559)"
         id="g114"><path
           id="path116"
           style="fill:#ffffff;fill-opacity:1;fill-rule:nonzero;stroke:#ffffff;stroke-width:0.24000099;stroke-linecap:round;stroke-linejoin:round;stroke-miterlimit:10;stroke-dasharray:none;stroke-opacity:1"
           d="m -431.594,316.32 c 0,1.918 -2.883,1.918 -2.883,0 0,-1.922 2.883,-1.922 2.883,0" /></g><g
         transform="matrix(0,1,1,0,0,595.27559)"
         id="g118"><path
           id="path120"
           style="fill:none;stroke:#000000;stroke-width:5.10236216;stroke-linecap:round;stroke-linejoin:round;stroke-miterlimit:10;stroke-dasharray:none;stroke-opacity:1"
           d="m -425.836,316.32 0,0" /></g><g
         transform="matrix(0,1,1,0,0,595.27559)"
         id="g122"><path
           id="path124"
           style="fill:#ffffff;fill-opacity:1;fill-rule:nonzero;stroke:#ffffff;stroke-width:0.24000099;stroke-linecap:round;stroke-linejoin:round;stroke-miterlimit:10;stroke-dasharray:none;stroke-opacity:1"
           d="m -424.395,316.32 c 0,1.918 -2.882,1.918 -2.882,0 0,-1.922 2.882,-1.922 2.882,0" /></g><g
         transform="matrix(0,1,1,0,0,595.27559)"
         id="g126"><path
           id="path128"
           style="fill:none;stroke:#000000;stroke-width:5.10236216;stroke-linecap:round;stroke-linejoin:round;stroke-miterlimit:10;stroke-dasharray:none;stroke-opacity:1"
           d="m -433.035,309.121 0,0" /></g><g
         transform="matrix(0,1,1,0,0,595.27559)"
         id="g130"><path
           id="path132"
           style="fill:#ffffff;fill-opacity:1;fill-rule:nonzero;stroke:#ffffff;stroke-width:0.24000099;stroke-linecap:round;stroke-linejoin:round;stroke-miterlimit:10;stroke-dasharray:none;stroke-opacity:1"
           d="m -431.594,309.121 c 0,1.918 -2.883,1.918 -2.883,0 0,-1.922 2.883,-1.922 2.883,0" /></g><g
         transform="matrix(0,1,1,0,0,595.27559)"
         id="g134"><path
           id="path136"
           style="fill:none;stroke:#000000;stroke-width:5.10236216;stroke-linecap:round;stroke-linejoin:round;stroke-miterlimit:10;stroke-dasharray:none;stroke-opacity:1"
           d="m -425.836,309.121 0,0" /></g><g
         transform="matrix(0,1,1,0,0,595.27559)"
         id="g138"><path
           id="path140"
           style="fill:#ffffff;fill-opacity:1;fill-rule:nonzero;stroke:#ffffff;stroke-width:0.24000099;stroke-linecap:round;stroke-linejoin:round;stroke-miterlimit:10;stroke-dasharray:none;stroke-opacity:1"
           d="m -424.395,309.121 c 0,1.918 -2.882,1.918 -2.882,0 0,-1.922 2.882,-1.922 2.882,0" /></g><g
         transform="matrix(0,1,1,0,0,595.27559)"
         id="g142"><path
           id="path144"
           style="fill:none;stroke:#000000;stroke-width:5.10236216;stroke-linecap:round;stroke-linejoin:round;stroke-miterlimit:10;stroke-dasharray:none;stroke-opacity:1"
           d="m -433.035,301.922 0,0" /></g><g
         transform="matrix(0,1,1,0,0,595.27559)"
         id="g146"><path
           id="path148"
           style="fill:#ffffff;fill-opacity:1;fill-rule:nonzero;stroke:#ffffff;stroke-width:0.24000099;stroke-linecap:round;stroke-linejoin:round;stroke-miterlimit:10;stroke-dasharray:none;stroke-opacity:1"
           d="m -431.594,301.922 c 0,1.918 -2.883,1.918 -2.883,0 0,-1.922 2.883,-1.922 2.883,0" /></g><g
         transform="matrix(0,1,1,0,0,595.27559)"
         id="g150"><path
           id="path152"
           style="fill:none;stroke:#000000;stroke-width:5.10236216;stroke-linecap:round;stroke-linejoin:round;stroke-miterlimit:10;stroke-dasharray:none;stroke-opacity:1"
           d="m -425.836,301.922 0,0" /></g><g
         transform="matrix(0,1,1,0,0,595.27559)"
         id="g154"><path
           id="path156"
           style="fill:#ffffff;fill-opacity:1;fill-rule:nonzero;stroke:#ffffff;stroke-width:0.24000099;stroke-linecap:round;stroke-linejoin:round;stroke-miterlimit:10;stroke-dasharray:none;stroke-opacity:1"
           d="m -424.395,301.922 c 0,1.918 -2.882,1.918 -2.882,0 0,-1.922 2.882,-1.922 2.882,0" /></g><g
         transform="matrix(0,1,1,0,0,595.27559)"
         id="g158"><path
           id="path160"
           style="fill:none;stroke:#000000;stroke-width:5.10236216;stroke-linecap:round;stroke-linejoin:round;stroke-miterlimit:10;stroke-dasharray:none;stroke-opacity:1"
           d="m -433.035,294.719 0,0" /></g><g
         transform="matrix(0,1,1,0,0,595.27559)"
         id="g162"><path
           id="path164"
           style="fill:#ffffff;fill-opacity:1;fill-rule:nonzero;stroke:#ffffff;stroke-width:0.24000099;stroke-linecap:round;stroke-linejoin:round;stroke-miterlimit:10;stroke-dasharray:none;stroke-opacity:1"
           d="m -431.594,294.719 c 0,1.922 -2.883,1.922 -2.883,0 0,-1.918 2.883,-1.918 2.883,0" /></g><g
         transform="matrix(0,1,1,0,0,595.27559)"
         id="g166"><path
           id="path168"
           style="fill:none;stroke:#000000;stroke-width:5.10236216;stroke-linecap:round;stroke-linejoin:round;stroke-miterlimit:10;stroke-dasharray:none;stroke-opacity:1"
           d="m -425.836,294.719 0,0" /></g><g
         transform="matrix(0,1,1,0,0,595.27559)"
         id="g170"><path
           id="path172"
           style="fill:#ffffff;fill-opacity:1;fill-rule:nonzero;stroke:#ffffff;stroke-width:0.24000099;stroke-linecap:round;stroke-linejoin:round;stroke-miterlimit:10;stroke-dasharray:none;stroke-opacity:1"
           d="m -424.395,294.719 c 0,1.922 -2.882,1.922 -2.882,0 0,-1.918 2.882,-1.918 2.882,0" /></g><g
         transform="matrix(0,1,1,0,0,595.27559)"
         id="g174"><path
           id="path176"
           style="fill:none;stroke:#000000;stroke-width:5.10236216;stroke-linecap:round;stroke-linejoin:round;stroke-miterlimit:10;stroke-dasharray:none;stroke-opacity:1"
           d="m -433.035,287.52 0,0" /></g><g
         transform="matrix(0,1,1,0,0,595.27559)"
         id="g178"><path
           id="path180"
           style="fill:#ffffff;fill-opacity:1;fill-rule:nonzero;stroke:#ffffff;stroke-width:0.24000099;stroke-linecap:round;stroke-linejoin:round;stroke-miterlimit:10;stroke-dasharray:none;stroke-opacity:1"
           d="m -431.594,287.52 c 0,1.921 -2.883,1.921 -2.883,0 0,-1.918 2.883,-1.918 2.883,0" /></g><g
         transform="matrix(0,1,1,0,0,595.27559)"
         id="g182"><path
           id="path184"
           style="fill:none;stroke:#000000;stroke-width:5.10236216;stroke-linecap:round;stroke-linejoin:round;stroke-miterlimit:10;stroke-dasharray:none;stroke-opacity:1"
           d="m -425.836,287.52 0,0" /></g><g
         transform="matrix(0,1,1,0,0,595.27559)"
         id="g186"><path
           id="path188"
           style="fill:#ffffff;fill-opacity:1;fill-rule:nonzero;stroke:#ffffff;stroke-width:0.24000099;stroke-linecap:round;stroke-linejoin:round;stroke-miterlimit:10;stroke-dasharray:none;stroke-opacity:1"
           d="m -424.395,287.52 c 0,1.921 -2.882,1.921 -2.882,0 0,-1.918 2.882,-1.918 2.882,0" /></g><g
         transform="matrix(0,1,1,0,0,595.27559)"
         id="g190"><path
           id="path192"
           style="fill:none;stroke:#000000;stroke-width:5.10236216;stroke-linecap:round;stroke-linejoin:round;stroke-miterlimit:10;stroke-dasharray:none;stroke-opacity:1"
           d="m -433.035,280.32 0,0" /></g><g
         transform="matrix(0,1,1,0,0,595.27559)"
         id="g194"><path
           id="path196"
           style="fill:#ffffff;fill-opacity:1;fill-rule:nonzero;stroke:#ffffff;stroke-width:0.24000099;stroke-linecap:round;stroke-linejoin:round;stroke-miterlimit:10;stroke-dasharray:none;stroke-opacity:1"
           d="m -431.594,280.32 c 0,1.918 -2.883,1.918 -2.883,0 0,-1.922 2.883,-1.922 2.883,0" /></g><g
         transform="matrix(0,1,1,0,0,595.27559)"
         id="g198"><path
           id="path200"
           style="fill:none;stroke:#000000;stroke-width:5.10236216;stroke-linecap:round;stroke-linejoin:round;stroke-miterlimit:10;stroke-dasharray:none;stroke-opacity:1"
           d="m -425.836,280.32 0,0" /></g><g
         transform="matrix(0,1,1,0,0,595.27559)"
         id="g202"><path
           id="path204"
           style="fill:#ffffff;fill-opacity:1;fill-rule:nonzero;stroke:#ffffff;stroke-width:0.24000099;stroke-linecap:round;stroke-linejoin:round;stroke-miterlimit:10;stroke-dasharray:none;stroke-opacity:1"
           d="m -424.395,280.32 c 0,1.918 -2.882,1.918 -2.882,0 0,-1.922 2.882,-1.922 2.882,0" /></g><g
         transform="matrix(0,1,1,0,0,595.27559)"
         id="g206"><path
           id="path208"
           style="fill:none;stroke:#000000;stroke-width:5.10236216;stroke-linecap:round;stroke-linejoin:round;stroke-miterlimit:10;stroke-dasharray:none;stroke-opacity:1"
           d="m -433.035,273.121 0,0" /></g><g
         transform="matrix(0,1,1,0,0,595.27559)"
         id="g210"><path
           id="path212"
           style="fill:#ffffff;fill-opacity:1;fill-rule:nonzero;stroke:#ffffff;stroke-width:0.24000099;stroke-linecap:round;stroke-linejoin:round;stroke-miterlimit:10;stroke-dasharray:none;stroke-opacity:1"
           d="m -431.594,273.121 c 0,1.918 -2.883,1.918 -2.883,0 0,-1.922 2.883,-1.922 2.883,0" /></g><g
         transform="matrix(0,1,1,0,0,595.27559)"
         id="g214"><path
           id="path216"
           style="fill:none;stroke:#000000;stroke-width:5.10236216;stroke-linecap:round;stroke-linejoin:round;stroke-miterlimit:10;stroke-dasharray:none;stroke-opacity:1"
           d="m -425.836,273.121 0,0" /></g><g
         transform="matrix(0,1,1,0,0,595.27559)"
         id="g218"><path
           id="path220"
           style="fill:#ffffff;fill-opacity:1;fill-rule:nonzero;stroke:#ffffff;stroke-width:0.24000099;stroke-linecap:round;stroke-linejoin:round;stroke-miterlimit:10;stroke-dasharray:none;stroke-opacity:1"
           d="m -424.395,273.121 c 0,1.918 -2.882,1.918 -2.882,0 0,-1.922 2.882,-1.922 2.882,0" /></g><g
         transform="matrix(0,1,1,0,0,595.27559)"
         id="g222"><path
           id="path224"
           style="fill:none;stroke:#000000;stroke-width:5.10236216;stroke-linecap:round;stroke-linejoin:round;stroke-miterlimit:10;stroke-dasharray:none;stroke-opacity:1"
           d="m -433.035,265.922 0,0" /></g><g
         transform="matrix(0,1,1,0,0,595.27559)"
         id="g226"><path
           id="path228"
           style="fill:#ffffff;fill-opacity:1;fill-rule:nonzero;stroke:#ffffff;stroke-width:0.24000099;stroke-linecap:round;stroke-linejoin:round;stroke-miterlimit:10;stroke-dasharray:none;stroke-opacity:1"
           d="m -431.594,265.922 c 0,1.918 -2.883,1.918 -2.883,0 0,-1.922 2.883,-1.922 2.883,0" /></g><g
         transform="matrix(0,1,1,0,0,595.27559)"
         id="g230"><path
           id="path232"
           style="fill:none;stroke:#000000;stroke-width:5.10236216;stroke-linecap:round;stroke-linejoin:round;stroke-miterlimit:10;stroke-dasharray:none;stroke-opacity:1"
           d="m -425.836,265.922 0,0" /></g><g
         transform="matrix(0,1,1,0,0,595.27559)"
         id="g234"><path
           id="path236"
           style="fill:#ffffff;fill-opacity:1;fill-rule:nonzero;stroke:#ffffff;stroke-width:0.24000099;stroke-linecap:round;stroke-linejoin:round;stroke-miterlimit:10;stroke-dasharray:none;stroke-opacity:1"
           d="m -424.395,265.922 c 0,1.918 -2.882,1.918 -2.882,0 0,-1.922 2.882,-1.922 2.882,0" /></g><g
         transform="matrix(0,1,1,0,0,595.27559)"
         id="g238"><path
           id="path240"
           style="fill:#ffffff;fill-opacity:1;fill-rule:nonzero;stroke:#ffffff;stroke-width:0.24000099;stroke-linecap:round;stroke-linejoin:round;stroke-miterlimit:10;stroke-dasharray:none;stroke-opacity:1"
           d="m -405.914,256.559 c 0,1.281 -1.922,1.281 -1.922,0 0,-1.278 1.922,-1.278 1.922,0" /></g><g
         transform="matrix(0,1,1,0,0,595.27559)"
         id="g242"><path
           id="path244"
           style="fill:#ffffff;fill-opacity:1;fill-rule:nonzero;stroke:#ffffff;stroke-width:0.24000099;stroke-linecap:round;stroke-linejoin:round;stroke-miterlimit:10;stroke-dasharray:none;stroke-opacity:1"
           d="m -395.836,185.762 c 0,1.277 -1.918,1.277 -1.918,0 0,-1.282 1.918,-1.282 1.918,0" /></g><g
         transform="matrix(0,1,1,0,0,595.27559)"
         id="g246"><path
           id="path248"
           style="fill:#ffffff;fill-opacity:1;fill-rule:nonzero;stroke:#ffffff;stroke-width:0.24000099;stroke-linecap:round;stroke-linejoin:round;stroke-miterlimit:10;stroke-dasharray:none;stroke-opacity:1"
           d="m -405.914,243.84 c 0,1.281 -1.922,1.281 -1.922,0 0,-1.281 1.922,-1.281 1.922,0" /></g><g
         transform="matrix(0,1,1,0,0,595.27559)"
         id="g250"><path
           id="path252"
           style="fill:#ffffff;fill-opacity:1;fill-rule:nonzero;stroke:#ffffff;stroke-width:0.24000099;stroke-linecap:round;stroke-linejoin:round;stroke-miterlimit:10;stroke-dasharray:none;stroke-opacity:1"
           d="m -392.957,243.84 c 0,1.281 -1.918,1.281 -1.918,0 0,-1.281 1.918,-1.281 1.918,0" /></g><g
         transform="matrix(0,1,1,0,0,595.27559)"
         id="g254"><path
           id="path256"
           style="fill:#ffffff;fill-opacity:1;fill-rule:nonzero;stroke:#ffffff;stroke-width:0.24000099;stroke-linecap:round;stroke-linejoin:round;stroke-miterlimit:10;stroke-dasharray:none;stroke-opacity:1"
           d="m -374.715,330.238 c 0,1.282 -1.922,1.282 -1.922,0 0,-1.277 1.922,-1.277 1.922,0" /></g><g
         transform="matrix(0,1,1,0,0,595.27559)"
         id="g258"><path
           id="path260"
           style="fill:#ffffff;fill-opacity:1;fill-rule:nonzero;stroke:#ffffff;stroke-width:0.24000099;stroke-linecap:round;stroke-linejoin:round;stroke-miterlimit:10;stroke-dasharray:none;stroke-opacity:1"
           d="m -417.195,325.922 c 0,1.277 -1.922,1.277 -1.922,0 0,-1.281 1.922,-1.281 1.922,0" /></g></g></g></svg>