<?xml version="1.0" encoding="UTF-8" standalone="no"?>
<svg
   xmlns:dc="http://purl.org/dc/elements/1.1/"
   xmlns:cc="http://creativecommons.org/ns#"
   xmlns:rdf="http://www.w3.org/1999/02/22-rdf-syntax-ns#"
   xmlns:svg="http://www.w3.org/2000/svg"
   xmlns="http://www.w3.org/2000/svg"
   viewBox="0 0 161 48.874996"
   height="48.874996"
   width="161"
   xml:space="preserve"
   version="1.1"
   id="svg2"><metadata
     id="metadata8"><rdf:RDF><cc:Work
         rdf:about=""><dc:format>image/svg+xml</dc:format><dc:type
           rdf:resource="http://purl.org/dc/dcmitype/StillImage" /></cc:Work></rdf:RDF></metadata><defs
     id="defs6" /><g
     transform="matrix(1.25,0,0,-1.25,0,48.874998)"
     id="g10"><g
       id="g12"><path
         id="path14"
         style="fill:#000000;fill-opacity:1;fill-rule:evenodd;stroke:none"
         d="m 0.398,38.799 128,0 0,-12.801 -128,0 0,12.801 z" /><path
         id="path16"
         style="fill:#000000;fill-opacity:1;fill-rule:evenodd;stroke:none"
         d="M 128.398,38.702 128,38.299 0.801,38.299 0,39.1 l 128.801,0 -0.403,-0.398 z" /><path
         id="path18"
         style="fill:#000000;fill-opacity:1;fill-rule:evenodd;stroke:none"
         d="m 128.398,0.401 0.403,-0.403 -128.801,0 0.398,0.403 0.403,0.398 127.199,0 0.398,-0.398 z" /><path
         id="path20"
         style="fill:#000000;fill-opacity:1;fill-rule:evenodd;stroke:none"
         d="m 0.398,38.702 0.403,-0.403 0,-37.5 L 0.398,0.401 0,-0.002 0,39.1 0.398,38.702 Z" /><path
         id="path22"
         style="fill:#000000;fill-opacity:1;fill-rule:evenodd;stroke:none"
         d="m 64.398,38.702 0.403,-0.403 0,-37.5 L 64.398,0.401 64,0.799 l 0,37.5 0.398,0.403 z" /><path
         id="path24"
         style="fill:#000000;fill-opacity:1;fill-rule:evenodd;stroke:none"
         d="m 128.398,38.702 0.403,0.398 0,-39.102 -0.801,0.801 0,37.5 0.398,0.403 z" /><path
         id="path26"
         style="fill:#ffffff;fill-opacity:1;fill-rule:nonzero;stroke:none"
         d="m 18.738,30.143 0,-1.344 -4.64,0 0,6.938 1.562,0 0,-5.594 3.078,0 z" /><path
         id="path28"
         style="fill:#ffffff;fill-opacity:1;fill-rule:nonzero;stroke:none"
         d="m 24.523,31.44 c 0,-0.418 -0.062,-0.797 -0.187,-1.141 -0.117,-0.344 -0.289,-0.637 -0.516,-0.875 -0.23,-0.242 -0.508,-0.429 -0.828,-0.562 -0.312,-0.133 -0.664,-0.203 -1.047,-0.203 -0.398,0 -0.75,0.07 -1.062,0.203 -0.313,0.133 -0.586,0.32 -0.813,0.562 -0.23,0.238 -0.406,0.531 -0.531,0.875 -0.125,0.344 -0.187,0.723 -0.187,1.141 0,0.414 0.062,0.789 0.187,1.125 0.133,0.344 0.316,0.633 0.547,0.875 0.226,0.238 0.5,0.426 0.812,0.562 0.321,0.133 0.672,0.203 1.047,0.203 0.375,0 0.719,-0.07 1.032,-0.203 0.32,-0.136 0.593,-0.324 0.812,-0.562 0.227,-0.242 0.406,-0.531 0.531,-0.875 0.133,-0.336 0.203,-0.711 0.203,-1.125 z m -1.531,0 c 0,0.457 -0.094,0.816 -0.281,1.078 -0.18,0.269 -0.434,0.406 -0.766,0.406 -0.343,0 -0.609,-0.137 -0.797,-0.406 -0.187,-0.262 -0.281,-0.621 -0.281,-1.078 0,-0.461 0.094,-0.824 0.281,-1.094 0.188,-0.273 0.454,-0.406 0.797,-0.406 0.332,0 0.586,0.133 0.766,0.406 0.187,0.27 0.281,0.633 0.281,1.094 z" /><path
         id="path30"
         style="fill:#ffffff;fill-opacity:1;fill-rule:nonzero;stroke:none"
         d="m 26.957,31.596 c 0,-0.836 0.336,-1.25 1.016,-1.25 0.144,0 0.285,0.02 0.422,0.063 0.132,0.039 0.25,0.086 0.343,0.14 l 0,2.375 c -0.074,0.02 -0.164,0.035 -0.265,0.047 -0.094,0.008 -0.211,0.016 -0.344,0.016 -0.399,0 -0.695,-0.133 -0.891,-0.391 -0.187,-0.262 -0.281,-0.594 -0.281,-1 z m 3.266,-2.141 c 0,-0.851 -0.219,-1.488 -0.657,-1.906 -0.429,-0.414 -1.101,-0.625 -2.015,-0.625 -0.324,0 -0.649,0.031 -0.969,0.094 -0.312,0.055 -0.609,0.125 -0.891,0.219 l 0.266,1.25 c 0.227,-0.094 0.473,-0.164 0.734,-0.219 0.258,-0.063 0.551,-0.094 0.875,-0.094 0.426,0 0.727,0.094 0.907,0.281 0.175,0.188 0.265,0.426 0.265,0.719 l 0,0.188 c -0.156,-0.075 -0.324,-0.133 -0.5,-0.172 -0.168,-0.031 -0.351,-0.047 -0.547,-0.047 -0.73,0 -1.289,0.211 -1.671,0.641 -0.387,0.437 -0.579,1.039 -0.579,1.812 0,0.383 0.055,0.734 0.172,1.047 0.125,0.32 0.301,0.598 0.532,0.828 0.226,0.227 0.507,0.399 0.843,0.516 0.332,0.125 0.707,0.187 1.125,0.187 0.188,0 0.375,-0.012 0.563,-0.031 0.187,-0.012 0.375,-0.031 0.562,-0.063 0.188,-0.023 0.364,-0.054 0.532,-0.093 0.175,-0.032 0.328,-0.071 0.453,-0.11 l 0,-4.422 z" /><path
         id="path32"
         style="fill:#ffffff;fill-opacity:1;fill-rule:nonzero;stroke:none"
         d="m 33.078,28.799 -1.484,0 0,5.266 1.484,0 0,-5.266 z m 0.141,6.781 c 0,-0.273 -0.09,-0.484 -0.266,-0.64 -0.18,-0.156 -0.387,-0.235 -0.625,-0.235 -0.242,0 -0.449,0.079 -0.625,0.235 -0.18,0.156 -0.265,0.367 -0.265,0.64 0,0.27 0.085,0.485 0.265,0.641 0.176,0.156 0.383,0.234 0.625,0.234 0.238,0 0.445,-0.078 0.625,-0.234 0.176,-0.156 0.266,-0.371 0.266,-0.641 z" /><path
         id="path34"
         style="fill:#ffffff;fill-opacity:1;fill-rule:nonzero;stroke:none"
         d="m 35.75,31.393 c 0,-0.961 0.352,-1.438 1.062,-1.438 0.157,0 0.305,0.02 0.454,0.063 0.144,0.039 0.265,0.094 0.359,0.156 l 0,2.688 c -0.074,0.008 -0.168,0.019 -0.281,0.031 -0.106,0.008 -0.227,0.016 -0.36,0.016 -0.406,0 -0.714,-0.141 -0.922,-0.422 -0.21,-0.274 -0.312,-0.637 -0.312,-1.094 z m -1.516,0.031 c 0,0.406 0.055,0.774 0.172,1.11 0.125,0.343 0.301,0.632 0.532,0.875 0.238,0.25 0.531,0.437 0.874,0.562 0.344,0.133 0.727,0.203 1.157,0.203 0.176,0 0.363,-0.012 0.562,-0.031 0.196,-0.012 0.391,-0.031 0.578,-0.063 0.196,-0.023 0.379,-0.054 0.547,-0.093 0.176,-0.032 0.332,-0.071 0.469,-0.11 l 0,-6.922 -1.5,0 0,1.969 c -0.168,-0.074 -0.34,-0.125 -0.516,-0.156 -0.179,-0.039 -0.371,-0.063 -0.578,-0.063 -0.75,0 -1.324,0.243 -1.719,0.735 -0.386,0.488 -0.578,1.148 -0.578,1.984 z" /><path
         id="path36"
         style="fill:#ffffff;fill-opacity:1;fill-rule:nonzero;stroke:none"
         d="m 44.969,28.987 c -0.25,-0.086 -0.578,-0.157 -0.985,-0.219 -0.398,-0.063 -0.812,-0.094 -1.25,-0.094 -0.449,0 -0.824,0.059 -1.125,0.172 -0.293,0.125 -0.527,0.297 -0.703,0.516 -0.168,0.218 -0.289,0.476 -0.359,0.781 -0.074,0.301 -0.109,0.629 -0.109,0.984 l 0,2.938 1.484,0 0,-2.75 c 0,-0.481 0.062,-0.828 0.187,-1.047 0.125,-0.211 0.364,-0.313 0.719,-0.313 0.102,0 0.211,0.004 0.328,0.016 0.125,0.008 0.235,0.02 0.328,0.031 l 0,4.063 1.485,0 0,-5.078 z" /><path
         id="path38"
         style="fill:#ffffff;fill-opacity:1;fill-rule:nonzero;stroke:none"
         d="m 46.125,31.393 c 0,0.469 0.066,0.875 0.203,1.219 0.145,0.351 0.332,0.644 0.563,0.875 0.238,0.238 0.507,0.414 0.812,0.531 0.301,0.125 0.613,0.187 0.938,0.187 0.75,0 1.336,-0.23 1.765,-0.687 0.438,-0.461 0.656,-1.133 0.656,-2.016 0,-0.093 -0.007,-0.195 -0.015,-0.297 0,-0.093 -0.008,-0.183 -0.016,-0.265 l -3.375,0 c 0.032,-0.305 0.172,-0.547 0.422,-0.735 0.258,-0.179 0.602,-0.265 1.031,-0.265 0.27,0 0.536,0.023 0.797,0.078 0.258,0.051 0.473,0.113 0.641,0.187 l 0.203,-1.218 c -0.086,-0.043 -0.195,-0.086 -0.328,-0.125 -0.125,-0.032 -0.274,-0.063 -0.438,-0.094 -0.168,-0.031 -0.343,-0.055 -0.531,-0.078 -0.18,-0.02 -0.359,-0.031 -0.547,-0.031 -0.48,0 -0.898,0.07 -1.25,0.203 -0.344,0.144 -0.633,0.336 -0.859,0.578 -0.231,0.25 -0.402,0.539 -0.516,0.875 -0.105,0.332 -0.156,0.691 -0.156,1.078 z m 3.5,0.562 c -0.012,0.125 -0.039,0.243 -0.078,0.36 -0.031,0.125 -0.09,0.234 -0.172,0.328 -0.074,0.094 -0.168,0.172 -0.281,0.234 -0.117,0.063 -0.262,0.094 -0.438,0.094 -0.168,0 -0.312,-0.031 -0.437,-0.094 -0.117,-0.054 -0.215,-0.125 -0.297,-0.218 -0.074,-0.094 -0.133,-0.204 -0.172,-0.329 -0.043,-0.125 -0.074,-0.25 -0.094,-0.375 l 1.969,0 z" /><path
         id="path40"
         style="fill:#ffffff;fill-opacity:1;fill-rule:nonzero;stroke:none"
         d="m 77.055,28.659 c -1.125,0 -1.985,0.312 -2.578,0.937 -0.586,0.625 -0.875,1.516 -0.875,2.672 0,0.57 0.086,1.082 0.265,1.531 0.188,0.457 0.438,0.836 0.75,1.141 0.313,0.312 0.68,0.547 1.11,0.703 0.437,0.164 0.91,0.25 1.421,0.25 0.29,0 0.555,-0.027 0.797,-0.078 0.239,-0.043 0.446,-0.09 0.625,-0.141 0.176,-0.054 0.321,-0.109 0.438,-0.172 0.125,-0.062 0.219,-0.109 0.281,-0.14 l -0.453,-1.266 c -0.219,0.113 -0.469,0.207 -0.75,0.281 -0.281,0.082 -0.606,0.125 -0.969,0.125 -0.242,0 -0.476,-0.043 -0.703,-0.125 -0.23,-0.074 -0.434,-0.199 -0.609,-0.375 -0.18,-0.179 -0.321,-0.406 -0.422,-0.687 -0.106,-0.281 -0.156,-0.621 -0.156,-1.016 0,-0.324 0.031,-0.625 0.093,-0.906 0.071,-0.273 0.188,-0.508 0.344,-0.703 0.156,-0.199 0.359,-0.36 0.609,-0.485 0.258,-0.117 0.567,-0.171 0.922,-0.171 0.227,0 0.43,0.007 0.61,0.031 0.187,0.031 0.347,0.066 0.484,0.109 0.145,0.039 0.27,0.082 0.375,0.125 0.102,0.039 0.195,0.082 0.281,0.125 l 0.438,-1.25 c -0.219,-0.125 -0.531,-0.246 -0.938,-0.359 -0.398,-0.102 -0.859,-0.156 -1.39,-0.156 z" /><path
         id="path42"
         style="fill:#ffffff;fill-opacity:1;fill-rule:nonzero;stroke:none"
         d="m 82.23,35.737 c 0.114,-0.231 0.25,-0.508 0.407,-0.828 0.164,-0.325 0.332,-0.672 0.5,-1.047 0.164,-0.375 0.332,-0.762 0.5,-1.157 0.164,-0.398 0.32,-0.765 0.468,-1.109 0.145,0.344 0.301,0.711 0.469,1.109 0.164,0.395 0.332,0.782 0.5,1.157 0.176,0.375 0.344,0.722 0.5,1.047 0.156,0.32 0.297,0.597 0.422,0.828 l 1.406,0 c 0.071,-0.469 0.133,-0.992 0.188,-1.563 0.062,-0.562 0.113,-1.152 0.156,-1.765 0.039,-0.618 0.078,-1.235 0.109,-1.86 0.04,-0.625 0.079,-1.211 0.11,-1.75 l -1.531,0 c -0.024,0.676 -0.047,1.41 -0.079,2.203 -0.031,0.789 -0.078,1.586 -0.14,2.391 C 86.09,33.12 85.953,32.815 85.809,32.471 85.66,32.127 85.516,31.784 85.371,31.44 85.223,31.104 85.082,30.784 84.949,30.471 84.824,30.159 84.715,29.893 84.621,29.674 l -1.094,0 c -0.093,0.219 -0.211,0.485 -0.343,0.797 -0.125,0.313 -0.262,0.633 -0.407,0.969 -0.148,0.344 -0.293,0.687 -0.437,1.031 -0.149,0.344 -0.281,0.649 -0.406,0.922 -0.063,-0.805 -0.11,-1.602 -0.141,-2.391 -0.031,-0.793 -0.059,-1.527 -0.078,-2.203 l -1.531,0 c 0.031,0.539 0.062,1.125 0.093,1.75 0.039,0.625 0.082,1.242 0.125,1.86 0.039,0.613 0.086,1.203 0.141,1.765 0.062,0.571 0.129,1.094 0.203,1.563 l 1.484,0 z" /><path
         id="path44"
         style="fill:#ffffff;fill-opacity:1;fill-rule:nonzero;stroke:none"
         d="m 90.688,32.268 c 0,-0.344 0.039,-0.652 0.124,-0.922 0.083,-0.273 0.204,-0.508 0.36,-0.703 0.156,-0.199 0.348,-0.352 0.578,-0.453 0.227,-0.106 0.488,-0.156 0.781,-0.156 0.281,0 0.535,0.05 0.766,0.156 0.226,0.101 0.422,0.254 0.578,0.453 0.164,0.195 0.289,0.43 0.375,0.703 0.082,0.27 0.125,0.578 0.125,0.922 0,0.344 -0.043,0.648 -0.125,0.922 -0.086,0.281 -0.211,0.519 -0.375,0.719 -0.156,0.195 -0.352,0.347 -0.578,0.453 -0.231,0.101 -0.485,0.156 -0.766,0.156 -0.293,0 -0.554,-0.059 -0.781,-0.172 -0.23,-0.105 -0.422,-0.258 -0.578,-0.453 -0.156,-0.199 -0.277,-0.438 -0.36,-0.719 -0.085,-0.273 -0.124,-0.574 -0.124,-0.906 z m 5.296,0 c 0,-0.594 -0.089,-1.117 -0.265,-1.563 -0.18,-0.449 -0.422,-0.828 -0.735,-1.14 -0.304,-0.305 -0.668,-0.531 -1.093,-0.688 -0.418,-0.144 -0.871,-0.218 -1.36,-0.218 -0.48,0 -0.929,0.074 -1.343,0.218 -0.418,0.157 -0.782,0.383 -1.094,0.688 -0.313,0.312 -0.563,0.691 -0.75,1.14 -0.18,0.446 -0.266,0.969 -0.266,1.563 0,0.594 0.094,1.113 0.281,1.562 0.188,0.446 0.438,0.821 0.75,1.125 0.321,0.313 0.692,0.547 1.11,0.704 0.414,0.156 0.851,0.234 1.312,0.234 0.469,0 0.91,-0.078 1.328,-0.234 0.426,-0.157 0.797,-0.391 1.11,-0.704 0.312,-0.304 0.554,-0.679 0.734,-1.125 0.188,-0.449 0.281,-0.968 0.281,-1.562 z" /><path
         id="path46"
         style="fill:#ffffff;fill-opacity:1;fill-rule:nonzero;stroke:none"
         d="m 99.168,29.987 c 0.219,0 0.398,0.015 0.547,0.047 0.144,0.039 0.258,0.093 0.344,0.156 0.082,0.062 0.14,0.133 0.171,0.219 0.04,0.093 0.063,0.191 0.063,0.296 0,0.227 -0.109,0.415 -0.328,0.563 -0.211,0.156 -0.574,0.316 -1.094,0.484 -0.23,0.082 -0.461,0.176 -0.687,0.282 -0.219,0.101 -0.422,0.234 -0.61,0.39 -0.179,0.156 -0.324,0.344 -0.437,0.563 -0.117,0.226 -0.172,0.504 -0.172,0.828 0,0.312 0.055,0.597 0.172,0.859 0.125,0.258 0.297,0.477 0.515,0.656 0.227,0.176 0.5,0.313 0.813,0.407 0.312,0.101 0.664,0.156 1.062,0.156 0.457,0 0.86,-0.055 1.203,-0.156 0.344,-0.094 0.625,-0.203 0.844,-0.328 l -0.453,-1.235 c -0.199,0.102 -0.418,0.192 -0.656,0.266 -0.231,0.082 -0.512,0.125 -0.844,0.125 -0.375,0 -0.648,-0.055 -0.812,-0.156 -0.157,-0.106 -0.235,-0.266 -0.235,-0.485 0,-0.125 0.024,-0.23 0.078,-0.312 0.063,-0.086 0.145,-0.164 0.25,-0.235 0.114,-0.074 0.243,-0.14 0.391,-0.203 0.145,-0.054 0.305,-0.109 0.484,-0.172 0.352,-0.125 0.661,-0.257 0.922,-0.39 0.27,-0.125 0.492,-0.278 0.672,-0.453 0.176,-0.18 0.305,-0.383 0.391,-0.61 0.093,-0.23 0.14,-0.512 0.14,-0.844 0,-0.648 -0.23,-1.152 -0.687,-1.515 -0.449,-0.356 -1.133,-0.531 -2.047,-0.531 -0.305,0 -0.578,0.023 -0.828,0.062 -0.25,0.031 -0.469,0.074 -0.656,0.125 -0.188,0.051 -0.352,0.109 -0.485,0.172 -0.137,0.062 -0.25,0.117 -0.344,0.172 l 0.438,1.234 c 0.207,-0.117 0.461,-0.219 0.766,-0.312 0.3,-0.086 0.671,-0.125 1.109,-0.125 z" /><path
         id="path48"
         style="fill:#ffffff;fill-opacity:1;fill-rule:nonzero;stroke:none"
         d="m 106.852,31.784 c 0,-0.782 0.117,-1.532 0.359,-2.25 0.25,-0.711 0.578,-1.348 0.984,-1.922 l -1.047,-0.657 c -0.562,0.657 -1,1.391 -1.312,2.204 -0.305,0.82 -0.453,1.695 -0.453,2.625 0,0.925 0.148,1.8 0.453,2.625 0.312,0.82 0.75,1.562 1.312,2.218 l 1.047,-0.672 c -0.406,-0.562 -0.734,-1.203 -0.984,-1.921 -0.242,-0.711 -0.359,-1.461 -0.359,-2.25 z" /><path
         id="path50"
         style="fill:#ffffff;fill-opacity:1;fill-rule:nonzero;stroke:none"
         d="m 111.43,28.799 c -0.274,0.582 -0.543,1.188 -0.813,1.813 -0.262,0.625 -0.512,1.242 -0.75,1.859 -0.242,0.613 -0.465,1.195 -0.672,1.75 -0.211,0.563 -0.386,1.066 -0.531,1.516 l 1.719,0 c 0.133,-0.407 0.281,-0.844 0.437,-1.313 0.157,-0.461 0.317,-0.918 0.485,-1.375 0.164,-0.461 0.32,-0.902 0.468,-1.328 0.157,-0.418 0.301,-0.777 0.438,-1.078 0.125,0.301 0.266,0.66 0.422,1.078 0.156,0.426 0.316,0.867 0.484,1.328 0.164,0.457 0.328,0.914 0.485,1.375 0.156,0.469 0.296,0.906 0.421,1.313 l 1.672,0 c -0.156,-0.45 -0.336,-0.953 -0.531,-1.516 -0.199,-0.555 -0.422,-1.137 -0.672,-1.75 -0.242,-0.617 -0.496,-1.234 -0.765,-1.859 -0.262,-0.625 -0.528,-1.231 -0.797,-1.813 l -1.5,0 z" /><path
         id="path52"
         style="fill:#ffffff;fill-opacity:1;fill-rule:nonzero;stroke:none"
         d="m 117.449,31.784 c 0,0.789 -0.125,1.539 -0.375,2.25 -0.242,0.718 -0.562,1.359 -0.969,1.921 l 1.047,0.672 c 0.563,-0.656 0.993,-1.398 1.297,-2.218 0.313,-0.825 0.469,-1.7 0.469,-2.625 0,-0.93 -0.156,-1.805 -0.469,-2.625 -0.304,-0.813 -0.734,-1.547 -1.297,-2.204 l -1.047,0.657 c 0.407,0.574 0.727,1.211 0.969,1.922 0.25,0.718 0.375,1.468 0.375,2.25 z" /><path
         id="path54"
         style="fill:#000000;fill-opacity:1;fill-rule:nonzero;stroke:none"
         d="m 30.102,19.467 c 0,1.156 0.203,2.047 0.609,2.672 0.414,0.633 0.984,0.953 1.703,0.953 0.727,0 1.297,-0.32 1.703,-0.953 0.414,-0.625 0.625,-1.516 0.625,-2.672 0,-1.156 -0.211,-2.055 -0.625,-2.687 -0.406,-0.625 -0.976,-0.938 -1.703,-0.938 -0.719,0 -1.289,0.313 -1.703,0.938 -0.406,0.632 -0.609,1.531 -0.609,2.687 z m 3.656,0 c 0,0.383 -0.024,0.742 -0.063,1.078 -0.043,0.344 -0.117,0.641 -0.218,0.891 -0.106,0.25 -0.247,0.445 -0.422,0.594 -0.168,0.156 -0.383,0.234 -0.641,0.234 -0.25,0 -0.465,-0.078 -0.641,-0.234 -0.168,-0.149 -0.304,-0.344 -0.406,-0.594 -0.105,-0.25 -0.179,-0.547 -0.219,-0.891 -0.043,-0.336 -0.062,-0.695 -0.062,-1.078 0,-0.375 0.019,-0.734 0.062,-1.078 0.04,-0.344 0.114,-0.641 0.219,-0.891 0.102,-0.25 0.238,-0.453 0.406,-0.609 0.176,-0.148 0.391,-0.219 0.641,-0.219 0.258,0 0.473,0.071 0.641,0.219 0.175,0.156 0.316,0.359 0.422,0.609 0.101,0.25 0.175,0.547 0.218,0.891 0.039,0.344 0.063,0.703 0.063,1.078 z" /><path
         id="path56"
         style="fill:#000000;fill-opacity:1;fill-rule:nonzero;stroke:none"
         d="m 82.5,19.467 c 0,1.156 0.203,2.047 0.609,2.672 0.414,0.633 0.985,0.953 1.703,0.953 0.727,0 1.297,-0.32 1.704,-0.953 0.414,-0.625 0.625,-1.516 0.625,-2.672 0,-1.156 -0.211,-2.055 -0.625,-2.687 -0.407,-0.625 -0.977,-0.938 -1.704,-0.938 -0.718,0 -1.289,0.313 -1.703,0.938 -0.406,0.632 -0.609,1.531 -0.609,2.687 z m 3.656,0 c 0,0.383 -0.023,0.742 -0.062,1.078 -0.043,0.344 -0.117,0.641 -0.219,0.891 -0.105,0.25 -0.246,0.445 -0.422,0.594 -0.168,0.156 -0.383,0.234 -0.641,0.234 -0.25,0 -0.464,-0.078 -0.64,-0.234 -0.168,-0.149 -0.305,-0.344 -0.406,-0.594 -0.106,-0.25 -0.18,-0.547 -0.219,-0.891 -0.043,-0.336 -0.063,-0.695 -0.063,-1.078 0,-0.375 0.02,-0.734 0.063,-1.078 0.039,-0.344 0.113,-0.641 0.219,-0.891 0.101,-0.25 0.238,-0.453 0.406,-0.609 0.176,-0.148 0.39,-0.219 0.64,-0.219 0.258,0 0.473,0.071 0.641,0.219 0.176,0.156 0.317,0.359 0.422,0.609 0.102,0.25 0.176,0.547 0.219,0.891 0.039,0.344 0.062,0.703 0.062,1.078 z" /><path
         id="path58"
         style="fill:#000000;fill-opacity:1;fill-rule:nonzero;stroke:none"
         d="m 89.883,19.389 5,0 0,-0.797 -5,0 0,0.797 z" /><path
         id="path60"
         style="fill:#000000;fill-opacity:1;fill-rule:nonzero;stroke:none"
         d="m 98.129,21.498 c 0.375,0.145 0.738,0.332 1.094,0.563 0.363,0.226 0.695,0.519 1,0.875 l 0.656,0 0,-6.938 -0.922,0 0,5.641 C 99.871,21.565 99.773,21.487 99.66,21.405 99.543,21.33 99.414,21.252 99.27,21.17 99.133,21.096 98.992,21.03 98.848,20.967 98.699,20.905 98.555,20.846 98.41,20.795 l -0.281,0.703 z" /><path
         id="path62"
         style="fill:#000000;fill-opacity:1;fill-rule:nonzero;stroke:none"
         d="m 104.57,17.139 c 0.008,-0.055 0.016,-0.105 0.016,-0.156 0,-0.055 0,-0.106 0,-0.156 0,-0.418 -0.063,-0.829 -0.188,-1.235 -0.125,-0.414 -0.296,-0.812 -0.515,-1.187 l -0.719,0.234 c 0.164,0.344 0.274,0.695 0.328,1.047 0.063,0.344 0.094,0.664 0.094,0.969 0,0.093 -0.008,0.175 -0.016,0.25 0,0.082 -0.008,0.16 -0.015,0.234 l 1.015,0 z" /><path
         id="path64"
         style="fill:#000000;fill-opacity:1;fill-rule:nonzero;stroke:none"
         d="m 106.219,21.498 c 0.375,0.145 0.738,0.332 1.093,0.563 0.364,0.226 0.696,0.519 1,0.875 l 0.657,0 0,-6.938 -0.922,0 0,5.641 c -0.086,-0.074 -0.184,-0.152 -0.297,-0.234 -0.117,-0.075 -0.246,-0.153 -0.391,-0.235 -0.136,-0.074 -0.277,-0.14 -0.421,-0.203 -0.149,-0.062 -0.293,-0.121 -0.438,-0.172 l -0.281,0.703 z" /><path
         id="path66"
         style="fill:#000000;fill-opacity:1;fill-rule:nonzero;stroke:none"
         d="m 30.539,8.702 c 0.375,0.144 0.738,0.332 1.094,0.562 0.363,0.227 0.695,0.52 1,0.875 l 0.656,0 0,-6.937 -0.922,0 0,5.64 C 32.281,8.768 32.184,8.69 32.07,8.608 31.953,8.534 31.824,8.455 31.68,8.373 31.543,8.299 31.402,8.233 31.258,8.17 31.109,8.108 30.965,8.049 30.82,7.998 l -0.281,0.704 z" /><path
         id="path68"
         style="fill:#000000;fill-opacity:1;fill-rule:nonzero;stroke:none"
         d="M 82.57,8.358 C 82.57,8.116 82.516,7.881 82.414,7.655 82.32,7.436 82.195,7.217 82.039,6.998 81.883,6.787 81.699,6.577 81.492,6.358 81.293,6.147 81.094,5.944 80.898,5.748 80.781,5.631 80.648,5.498 80.492,5.342 80.344,5.194 80.203,5.037 80.07,4.873 79.945,4.705 79.836,4.545 79.742,4.389 79.648,4.233 79.602,4.1 79.602,3.998 l 3.203,0 0,-0.796 -4.203,0 c -0.012,0.039 -0.016,0.082 -0.016,0.125 0,0.039 0,0.078 0,0.109 0,0.312 0.051,0.601 0.156,0.875 0.102,0.269 0.238,0.523 0.406,0.766 0.164,0.238 0.352,0.46 0.563,0.671 0.207,0.219 0.41,0.426 0.609,0.625 0.164,0.157 0.321,0.313 0.469,0.469 0.156,0.156 0.289,0.313 0.406,0.469 0.114,0.156 0.207,0.316 0.282,0.484 0.07,0.164 0.109,0.344 0.109,0.532 0,0.207 -0.039,0.378 -0.109,0.515 -0.063,0.133 -0.149,0.25 -0.25,0.344 -0.106,0.094 -0.231,0.16 -0.375,0.203 -0.149,0.051 -0.297,0.078 -0.454,0.078 -0.199,0 -0.375,-0.031 -0.531,-0.094 C 79.711,9.319 79.562,9.256 79.43,9.186 79.305,9.123 79.199,9.049 79.117,8.967 79.031,8.893 78.965,8.834 78.914,8.795 l -0.453,0.672 c 0.062,0.063 0.148,0.141 0.266,0.235 0.125,0.101 0.269,0.195 0.437,0.281 0.164,0.082 0.348,0.156 0.547,0.219 0.207,0.062 0.43,0.093 0.672,0.093 0.726,0 1.273,-0.172 1.64,-0.515 0.364,-0.336 0.547,-0.809 0.547,-1.422 z" /><path
         id="path70"
         style="fill:#000000;fill-opacity:1;fill-rule:nonzero;stroke:none"
         d="m 85.281,4.342 c 0.008,-0.055 0.016,-0.105 0.016,-0.156 0,-0.055 0,-0.106 0,-0.156 0,-0.418 -0.063,-0.828 -0.188,-1.235 C 84.984,2.381 84.812,1.983 84.594,1.608 l -0.719,0.234 c 0.164,0.344 0.273,0.695 0.328,1.047 0.063,0.344 0.094,0.664 0.094,0.969 0,0.094 -0.008,0.176 -0.016,0.25 0,0.082 -0.008,0.16 -0.015,0.234 l 1.015,0 z" /><path
         id="path72"
         style="fill:#000000;fill-opacity:1;fill-rule:nonzero;stroke:none"
         d="M 90.66,8.358 C 90.66,8.116 90.605,7.881 90.504,7.655 90.41,7.436 90.285,7.217 90.129,6.998 89.973,6.787 89.789,6.577 89.582,6.358 89.383,6.147 89.184,5.944 88.988,5.748 88.871,5.631 88.738,5.498 88.582,5.342 88.434,5.194 88.293,5.037 88.16,4.873 88.035,4.705 87.926,4.545 87.832,4.389 87.738,4.233 87.691,4.1 87.691,3.998 l 3.204,0 0,-0.796 -4.204,0 c -0.011,0.039 -0.015,0.082 -0.015,0.125 0,0.039 0,0.078 0,0.109 0,0.312 0.051,0.601 0.156,0.875 0.102,0.269 0.238,0.523 0.406,0.766 0.164,0.238 0.352,0.46 0.563,0.671 0.207,0.219 0.41,0.426 0.609,0.625 0.164,0.157 0.32,0.313 0.469,0.469 0.156,0.156 0.289,0.313 0.406,0.469 0.113,0.156 0.207,0.316 0.281,0.484 0.071,0.164 0.11,0.344 0.11,0.532 0,0.207 -0.039,0.378 -0.11,0.515 -0.062,0.133 -0.148,0.25 -0.25,0.344 -0.105,0.094 -0.23,0.16 -0.375,0.203 -0.148,0.051 -0.296,0.078 -0.453,0.078 -0.199,0 -0.375,-0.031 -0.531,-0.094 C 87.801,9.319 87.652,9.256 87.52,9.186 87.395,9.123 87.289,9.049 87.207,8.967 87.121,8.893 87.055,8.834 87.004,8.795 l -0.453,0.672 c 0.062,0.063 0.148,0.141 0.265,0.235 0.125,0.101 0.27,0.195 0.438,0.281 0.164,0.082 0.348,0.156 0.547,0.219 0.207,0.062 0.429,0.093 0.672,0.093 0.726,0 1.273,-0.172 1.64,-0.515 0.364,-0.336 0.547,-0.809 0.547,-1.422 z" /><path
         id="path74"
         style="fill:#000000;fill-opacity:1;fill-rule:nonzero;stroke:none"
         d="m 93.875,6.592 5,0 0,-0.797 -5,0 0,0.797 z" /><path
         id="path76"
         style="fill:#000000;fill-opacity:1;fill-rule:nonzero;stroke:none"
         d="m 103.445,3.889 c 0.594,0 1.016,0.113 1.266,0.344 0.258,0.226 0.391,0.539 0.391,0.937 0,0.25 -0.059,0.461 -0.172,0.641 -0.106,0.176 -0.246,0.316 -0.422,0.422 -0.168,0.101 -0.367,0.176 -0.594,0.219 -0.23,0.039 -0.465,0.062 -0.703,0.062 l -0.234,0 0,0.75 0.328,0 c 0.164,0 0.336,0.016 0.515,0.047 0.176,0.039 0.336,0.101 0.485,0.187 0.144,0.094 0.265,0.211 0.359,0.36 0.094,0.144 0.141,0.332 0.141,0.562 0,0.188 -0.039,0.348 -0.11,0.485 -0.062,0.132 -0.152,0.242 -0.265,0.328 -0.106,0.082 -0.231,0.14 -0.375,0.172 -0.149,0.039 -0.297,0.062 -0.453,0.062 -0.325,0 -0.602,-0.047 -0.829,-0.14 -0.218,-0.094 -0.402,-0.188 -0.546,-0.282 l -0.36,0.703 c 0.071,0.051 0.172,0.11 0.297,0.172 0.125,0.063 0.258,0.117 0.406,0.172 0.157,0.063 0.321,0.11 0.5,0.141 0.176,0.039 0.364,0.062 0.563,0.062 0.363,0 0.676,-0.047 0.937,-0.14 0.27,-0.094 0.489,-0.227 0.657,-0.391 0.175,-0.156 0.304,-0.352 0.39,-0.578 0.094,-0.219 0.141,-0.461 0.141,-0.719 0,-0.355 -0.106,-0.664 -0.313,-0.922 -0.211,-0.261 -0.461,-0.453 -0.75,-0.578 0.188,-0.055 0.364,-0.133 0.532,-0.234 0.164,-0.106 0.304,-0.235 0.421,-0.391 0.125,-0.148 0.223,-0.324 0.297,-0.531 0.082,-0.199 0.125,-0.418 0.125,-0.656 0,-0.305 -0.054,-0.586 -0.156,-0.844 -0.105,-0.25 -0.266,-0.469 -0.484,-0.656 -0.211,-0.188 -0.481,-0.34 -0.813,-0.453 -0.324,-0.102 -0.711,-0.157 -1.156,-0.157 -0.18,0 -0.359,0.016 -0.547,0.047 -0.18,0.031 -0.352,0.07 -0.516,0.11 -0.156,0.031 -0.296,0.066 -0.421,0.109 -0.118,0.039 -0.2,0.07 -0.25,0.094 l 0.187,0.812 c 0.113,-0.055 0.301,-0.121 0.563,-0.203 0.257,-0.086 0.582,-0.125 0.968,-0.125 z" /><path
         id="path78"
         style="fill:#000000;fill-opacity:1;fill-rule:nonzero;stroke:none"
         d="m 108.562,4.342 c 0.008,-0.055 0.016,-0.105 0.016,-0.156 0,-0.055 0,-0.106 0,-0.156 0,-0.418 -0.062,-0.828 -0.187,-1.235 -0.125,-0.414 -0.297,-0.812 -0.516,-1.187 l -0.719,0.234 c 0.164,0.344 0.274,0.695 0.328,1.047 0.063,0.344 0.094,0.664 0.094,0.969 0,0.094 -0.008,0.176 -0.016,0.25 0,0.082 -0.007,0.16 -0.015,0.234 l 1.015,0 z" /><path
         id="path80"
         style="fill:#000000;fill-opacity:1;fill-rule:nonzero;stroke:none"
         d="m 111.535,3.889 c 0.594,0 1.016,0.113 1.266,0.344 0.258,0.226 0.39,0.539 0.39,0.937 0,0.25 -0.058,0.461 -0.171,0.641 -0.106,0.176 -0.247,0.316 -0.422,0.422 -0.168,0.101 -0.368,0.176 -0.594,0.219 -0.231,0.039 -0.465,0.062 -0.703,0.062 l -0.235,0 0,0.75 0.329,0 c 0.164,0 0.335,0.016 0.515,0.047 0.176,0.039 0.336,0.101 0.485,0.187 0.144,0.094 0.265,0.211 0.359,0.36 0.094,0.144 0.141,0.332 0.141,0.562 0,0.188 -0.04,0.348 -0.11,0.485 -0.062,0.132 -0.152,0.242 -0.265,0.328 -0.106,0.082 -0.231,0.14 -0.375,0.172 -0.149,0.039 -0.297,0.062 -0.454,0.062 -0.324,0 -0.601,-0.047 -0.828,-0.14 -0.218,-0.094 -0.402,-0.188 -0.547,-0.282 l -0.359,0.703 c 0.07,0.051 0.172,0.11 0.297,0.172 0.125,0.063 0.258,0.117 0.406,0.172 0.156,0.063 0.32,0.11 0.5,0.141 0.176,0.039 0.363,0.062 0.563,0.062 0.363,0 0.675,-0.047 0.937,-0.14 0.27,-0.094 0.488,-0.227 0.656,-0.391 0.176,-0.156 0.305,-0.352 0.391,-0.578 0.094,-0.219 0.141,-0.461 0.141,-0.719 0,-0.355 -0.106,-0.664 -0.313,-0.922 -0.211,-0.261 -0.461,-0.453 -0.75,-0.578 0.188,-0.055 0.363,-0.133 0.531,-0.234 0.164,-0.106 0.305,-0.235 0.422,-0.391 0.125,-0.148 0.223,-0.324 0.297,-0.531 0.082,-0.199 0.125,-0.418 0.125,-0.656 0,-0.305 -0.055,-0.586 -0.156,-0.844 -0.106,-0.25 -0.266,-0.469 -0.484,-0.656 -0.211,-0.188 -0.481,-0.34 -0.813,-0.453 -0.324,-0.102 -0.711,-0.157 -1.156,-0.157 -0.18,0 -0.36,0.016 -0.547,0.047 -0.18,0.031 -0.352,0.07 -0.516,0.11 -0.156,0.031 -0.297,0.066 -0.422,0.109 -0.117,0.039 -0.199,0.07 -0.25,0.094 l 0.188,0.812 c 0.113,-0.055 0.301,-0.121 0.562,-0.203 0.258,-0.086 0.582,-0.125 0.969,-0.125 z" /></g></g></svg>