<?xml version="1.0" encoding="UTF-8" standalone="no"?>
<svg
   xmlns:dc="http://purl.org/dc/elements/1.1/"
   xmlns:cc="http://creativecommons.org/ns#"
   xmlns:rdf="http://www.w3.org/1999/02/22-rdf-syntax-ns#"
   xmlns:svg="http://www.w3.org/2000/svg"
   xmlns="http://www.w3.org/2000/svg"
   viewBox="0 0 161 48.875"
   height="48.875"
   width="161"
   xml:space="preserve"
   version="1.1"
   id="svg2"><metadata
     id="metadata8"><rdf:RDF><cc:Work
         rdf:about=""><dc:format>image/svg+xml</dc:format><dc:type
           rdf:resource="http://purl.org/dc/dcmitype/StillImage" /><dc:title></dc:title></cc:Work></rdf:RDF></metadata><defs
     id="defs6"><clipPath
       id="clipPath16"
       clipPathUnits="userSpaceOnUse"><path
         style="clip-rule:evenodd"
         id="path18"
         d="m 0,0.1 595.2,0 0,841.8 L 0,841.9 0,0.1 Z" /></clipPath><clipPath
       id="clipPath24"
       clipPathUnits="userSpaceOnUse"><path
         style="clip-rule:evenodd"
         id="path26"
         d="m 56.7,771.2 481.8,0 0,14.1 -481.8,0 0,-14.1 z" /></clipPath><clipPath
       id="clipPath42"
       clipPathUnits="userSpaceOnUse"><path
         style="clip-rule:evenodd"
         id="path44"
         d="m 56.7,56.8 481.8,0 0,14.1 -481.8,0 0,-14.1 z" /></clipPath></defs><g
     transform="matrix(1.25,0,0,-1.25,-150.25,939.625)"
     id="g10"><g
       id="g12"><g
         clip-path="url(#clipPath16)"
         id="g14" /></g><g
       id="g20"><g
         clip-path="url(#clipPath24)"
         id="g22"><g
           id="g28" /><g
           id="g30" /><g
           id="g36" /></g></g><g
       id="g38"><g
         clip-path="url(#clipPath42)"
         id="g40"><g
           id="g46" /><g
           id="g48" /><g
           id="g54" /><g
           id="g60" /></g></g><path
       id="path62"
       style="fill:#000000;fill-opacity:1;fill-rule:evenodd;stroke:none"
       d="m 120.6,738.6 128,0 0,12.8 -128,0 0,-12.8 z" /><path
       id="path64"
       style="fill:#000000;fill-opacity:1;fill-rule:evenodd;stroke:none"
       d="m 248.6,751.3 -0.4,-0.4 -127.2,0 -0.4,0.4 -0.4,0.4 128.8,0 -0.4,-0.4 z" /><path
       id="path66"
       style="fill:#000000;fill-opacity:1;fill-rule:evenodd;stroke:none"
       d="m 248.6,713 0.4,-0.4 -128.8,0 0.4,0.4 0.4,0.4 127.2,0 0.4,-0.4 z" /><path
       id="path68"
       style="fill:#000000;fill-opacity:1;fill-rule:evenodd;stroke:none"
       d="m 120.6,751.3 0.4,-0.4 0,-37.5 -0.4,-0.4 -0.4,-0.4 0,39.1 0.4,-0.4 z" /><path
       id="path70"
       style="fill:#000000;fill-opacity:1;fill-rule:evenodd;stroke:none"
       d="m 184.6,751.3 0.4,-0.4 0,-37.5 -0.4,-0.4 -0.4,0.4 0,37.5 0.4,0.4 z" /><path
       id="path72"
       style="fill:#000000;fill-opacity:1;fill-rule:evenodd;stroke:none"
       d="m 248.6,751.3 0.4,0.4 0,-39.1 -0.4,0.4 -0.4,0.4 0,37.5 0.4,0.4 z" /><g
       id="g74"><text
         id="text76"
         style="font-variant:normal;font-weight:bold;font-size:10px;font-family:Ubuntu;-inkscape-font-specification:Ubuntu-Bold;writing-mode:lr-tb;fill:#ffffff;fill-opacity:1;fill-rule:nonzero;stroke:none"
         transform="matrix(1,0,0,-1,139.9,741.4)"><tspan
           id="tspan78"
           y="0"
           x="0 5.5999999 11.69 17.59 20.48">Logic</tspan></text>
</g><g
       id="g80"><text
         id="text82"
         style="font-variant:normal;font-weight:bold;font-size:10px;font-family:Ubuntu;-inkscape-font-specification:Ubuntu-Bold;writing-mode:lr-tb;fill:#ffffff;fill-opacity:1;fill-rule:nonzero;stroke:none"
         transform="matrix(1,0,0,-1,193.3,741.4)"><tspan
           id="tspan84"
           y="0"
           x="0 6.4899998 15.48 23.379999 29.18 31.58 35.470001 42.959999">CMOS (V)</tspan></text>
</g><text
       id="text86"
       style="font-variant:normal;font-weight:normal;font-size:10px;font-family:Ubuntu;-inkscape-font-specification:Ubuntu;writing-mode:lr-tb;fill:#000000;fill-opacity:1;fill-rule:nonzero;stroke:none"
       transform="matrix(1,0,0,-1,149.8,728.6)"><tspan
         id="tspan88"
         y="0"
         x="0">0</tspan></text>
<text
       id="text90"
       style="font-variant:normal;font-weight:normal;font-size:10px;font-family:Ubuntu;-inkscape-font-specification:Ubuntu;writing-mode:lr-tb;fill:#000000;fill-opacity:1;fill-rule:nonzero;stroke:none"
       transform="matrix(1,0,0,-1,202.2,728.6)"><tspan
         id="tspan92"
         y="0"
         x="0 5.5999999 7.9000001 12.89 15.19 20.790001 23.280001">0 – 1,1</tspan></text>
<text
       id="text94"
       style="font-variant:normal;font-weight:normal;font-size:10px;font-family:Ubuntu;-inkscape-font-specification:Ubuntu;writing-mode:lr-tb;fill:#000000;fill-opacity:1;fill-rule:nonzero;stroke:none"
       transform="matrix(1,0,0,-1,149.8,715.8)"><tspan
         id="tspan96"
         y="0"
         x="0">1</tspan></text>
<text
       id="text98"
       style="font-variant:normal;font-weight:normal;font-size:10px;font-family:Ubuntu;-inkscape-font-specification:Ubuntu;writing-mode:lr-tb;fill:#000000;fill-opacity:1;fill-rule:nonzero;stroke:none"
       transform="matrix(1,0,0,-1,198.1,715.8)"><tspan
         id="tspan100"
         y="0"
         x="0 5.5999999 8.0900002 13.69 15.99 20.98 23.280001 28.879999 31.370001">2,2 – 3,3</tspan></text>
</g></svg>