<?xml version="1.0" encoding="UTF-8" standalone="no"?>
<svg
   xmlns:dc="http://purl.org/dc/elements/1.1/"
   xmlns:cc="http://creativecommons.org/ns#"
   xmlns:rdf="http://www.w3.org/1999/02/22-rdf-syntax-ns#"
   xmlns:svg="http://www.w3.org/2000/svg"
   xmlns="http://www.w3.org/2000/svg"
   viewBox="0 0 523.26001 217.25999"
   height="217.25999"
   width="523.26001"
   xml:space="preserve"
   version="1.1"
   id="svg2"><metadata
     id="metadata8"><rdf:RDF><cc:Work
         rdf:about=""><dc:format>image/svg+xml</dc:format><dc:type
           rdf:resource="http://purl.org/dc/dcmitype/StillImage" /></cc:Work></rdf:RDF></metadata><defs
     id="defs6" /><g
     transform="matrix(1.25,0,0,-1.25,0,217.26)"
     id="g10"><g
       id="g12"><g
         transform="matrix(1,0,0,-1,0,173.808)"
         id="g14"><path
           id="path16"
           style="fill:none;stroke:#000000;stroke-width:2.44799995;stroke-linecap:butt;stroke-linejoin:miter;stroke-miterlimit:10;stroke-dasharray:none;stroke-opacity:1"
           d="m 258.266,86.902 14.402,0" /></g><g
         transform="matrix(1,0,0,-1,0,173.808)"
         id="g18"><path
           id="path20"
           style="fill:#000000;fill-opacity:1;fill-rule:nonzero;stroke:#000000;stroke-width:2.44799995;stroke-linecap:butt;stroke-linejoin:miter;stroke-miterlimit:10;stroke-dasharray:none;stroke-opacity:1"
           d="m 280.012,86.902 -7.344,3.672 0,-7.344 7.344,3.672 z" /></g><g
         transform="matrix(1,0,0,-1,0,173.808)"
         id="g22"><path
           id="path24"
           style="fill:none;stroke:#000000;stroke-width:2.44799995;stroke-linecap:butt;stroke-linejoin:miter;stroke-miterlimit:4;stroke-dasharray:none;stroke-opacity:1"
           d="m 368.426,62.426 48.957,0 0,48.957 -48.957,0 0,-48.957 z" /></g><g
         transform="matrix(1,0,0,-1,0,173.808)"
         id="g26"><path
           id="path28"
           style="fill:none;stroke:#000000;stroke-width:2.44799995;stroke-linecap:butt;stroke-linejoin:miter;stroke-miterlimit:4;stroke-dasharray:none;stroke-opacity:1"
           d="m 1.223,62.426 48.961,0 0,48.957 -48.961,0 0,-48.957 z" /></g><g
         transform="matrix(1,0,0,-1,0,173.808)"
         id="g30"><path
           id="path32"
           style="fill:none;stroke:#000000;stroke-width:2.44799995;stroke-linecap:butt;stroke-linejoin:miter;stroke-miterlimit:10;stroke-dasharray:none;stroke-opacity:1"
           d="m 160.344,86.902 -14.403,0" /></g><g
         transform="matrix(1,0,0,-1,0,173.808)"
         id="g34"><path
           id="path36"
           style="fill:#000000;fill-opacity:1;fill-rule:nonzero;stroke:#000000;stroke-width:2.44799995;stroke-linecap:butt;stroke-linejoin:miter;stroke-miterlimit:10;stroke-dasharray:none;stroke-opacity:1"
           d="m 138.598,86.902 7.343,-3.672 0,7.344 -7.343,-3.672 z" /></g><g
         transform="matrix(1,0,0,-1,0,173.808)"
         id="g38"><path
           id="path40"
           style="fill:none;stroke:#000000;stroke-width:2.44799995;stroke-linecap:butt;stroke-linejoin:miter;stroke-miterlimit:4;stroke-dasharray:none;stroke-opacity:1"
           d="m 123.625,62.426 48.961,0 0,48.957 -48.961,0 0,-48.957 z" /></g><g
         transform="matrix(1,0,0,-1,0,173.808)"
         id="g42"><path
           id="path44"
           style="fill:none;stroke:#000000;stroke-width:2.44799995;stroke-linecap:butt;stroke-linejoin:miter;stroke-miterlimit:4;stroke-dasharray:none;stroke-opacity:1"
           d="m 246.023,62.426 48.961,0 0,48.957 -48.961,0 0,-48.957 z" /></g><g
         transform="matrix(1,0,0,-1,0,173.808)"
         id="g46"><path
           id="path48"
           style="fill:none;stroke:#000000;stroke-width:2.44799995;stroke-linecap:butt;stroke-linejoin:miter;stroke-miterlimit:10;stroke-dasharray:none;stroke-opacity:1"
           d="m 209.305,37.945 0,-14.402" /></g><g
         transform="matrix(1,0,0,-1,0,173.808)"
         id="g50"><path
           id="path52"
           style="fill:#000000;fill-opacity:1;fill-rule:nonzero;stroke:#000000;stroke-width:2.44799995;stroke-linecap:butt;stroke-linejoin:miter;stroke-miterlimit:10;stroke-dasharray:none;stroke-opacity:1"
           d="m 209.305,16.199 3.672,7.344 -7.344,0 3.672,-7.344 z" /></g><g
         transform="matrix(1,0,0,-1,0,173.808)"
         id="g54"><path
           id="path56"
           style="fill:none;stroke:#000000;stroke-width:2.44799995;stroke-linecap:butt;stroke-linejoin:miter;stroke-miterlimit:10;stroke-dasharray:none;stroke-opacity:1"
           d="m 209.305,135.863 0,14.403" /></g><g
         transform="matrix(1,0,0,-1,0,173.808)"
         id="g58"><path
           id="path60"
           style="fill:#000000;fill-opacity:1;fill-rule:nonzero;stroke:#000000;stroke-width:2.44799995;stroke-linecap:butt;stroke-linejoin:miter;stroke-miterlimit:10;stroke-dasharray:none;stroke-opacity:1"
           d="m 209.305,157.609 -3.672,-7.343 7.344,0 -3.672,7.343 z" /></g><g
         transform="matrix(1,0,0,-1,0,173.808)"
         id="g62"><path
           id="path64"
           style="fill:none;stroke:#000000;stroke-width:2.44799995;stroke-linecap:butt;stroke-linejoin:miter;stroke-miterlimit:4;stroke-dasharray:none;stroke-opacity:1"
           d="m 184.824,123.625 48.961,0 0,48.961 -48.961,0 0,-48.961 z" /></g><g
         transform="matrix(1,0,0,-1,0,173.808)"
         id="g66"><path
           id="path68"
           style="fill:none;stroke:#000000;stroke-width:2.44799995;stroke-linecap:butt;stroke-linejoin:miter;stroke-miterlimit:4;stroke-dasharray:none;stroke-opacity:1"
           d="m 184.824,1.223 48.961,0 0,48.961 -48.961,0 0,-48.961 z" /></g><g
         transform="matrix(1,0,0,-1,0,173.808)"
         id="g70"><path
           id="path72"
           style="fill:none;stroke:#000000;stroke-width:2.44799995;stroke-linecap:butt;stroke-linejoin:miter;stroke-miterlimit:10;stroke-dasharray:none;stroke-opacity:1"
           d="m 405.145,86.902 c 0,8.16 -4.083,12.243 -12.243,12.243 -8.16,0 -12.238,-4.083 -12.238,-12.243 0,-8.16 4.801,-12.238 14.402,-12.238" /></g><g
         transform="matrix(1,0,0,-1,0,173.808)"
         id="g74"><path
           id="path76"
           style="fill:#000000;fill-opacity:1;fill-rule:nonzero;stroke:#000000;stroke-width:2.44799995;stroke-linecap:butt;stroke-linejoin:miter;stroke-miterlimit:10;stroke-dasharray:none;stroke-opacity:1"
           d="m 402.41,74.664 -7.344,3.672 0,-7.344 7.344,3.672 z" /></g><g
         transform="matrix(1,0,0,-1,0,173.808)"
         id="g78"><path
           id="path80"
           style="fill:none;stroke:#000000;stroke-width:2.44799995;stroke-linecap:butt;stroke-linejoin:miter;stroke-miterlimit:10;stroke-dasharray:none;stroke-opacity:1"
           d="m 13.465,86.902 c 0,8.16 4.078,12.243 12.238,12.243 8.16,0 12.242,-4.083 12.242,-12.243 0,-8.16 -4.8,-12.238 -14.402,-12.238" /></g><g
         transform="matrix(1,0,0,-1,0,173.808)"
         id="g82"><path
           id="path84"
           style="fill:#000000;fill-opacity:1;fill-rule:nonzero;stroke:#000000;stroke-width:2.44799995;stroke-linecap:butt;stroke-linejoin:miter;stroke-miterlimit:10;stroke-dasharray:none;stroke-opacity:1"
           d="m 16.199,74.664 7.344,-3.672 0,7.344 -7.344,-3.672 z" /></g></g></g></svg>