<?xml version="1.0" encoding="UTF-8" standalone="no"?>
<svg
   xmlns:dc="http://purl.org/dc/elements/1.1/"
   xmlns:cc="http://creativecommons.org/ns#"
   xmlns:rdf="http://www.w3.org/1999/02/22-rdf-syntax-ns#"
   xmlns:svg="http://www.w3.org/2000/svg"
   xmlns="http://www.w3.org/2000/svg"
   viewBox="0 0 486.86401 181.44827"
   height="181.44827"
   width="486.86401"
   xml:space="preserve"
   version="1.1"
   id="svg2"><metadata
     id="metadata8"><rdf:RDF><cc:Work
         rdf:about=""><dc:format>image/svg+xml</dc:format><dc:type
           rdf:resource="http://purl.org/dc/dcmitype/StillImage" /></cc:Work></rdf:RDF></metadata><defs
     id="defs6" /><g
     transform="matrix(1.25,0,0,-1.25,0,181.44827)"
     id="g10"><g
       id="g12"><g
         transform="matrix(1,0,0,-1,0,145.15861)"
         id="g14"><path
           id="path16"
           style="fill:none;stroke:#000000;stroke-width:2.41919994;stroke-linecap:butt;stroke-linejoin:miter;stroke-miterlimit:10;stroke-dasharray:none;stroke-opacity:1"
           d="m 243.129,72.578 14.234,0" /></g><g
         transform="matrix(1,0,0,-1,0,145.15861)"
         id="g18"><path
           id="path20"
           style="fill:#000000;fill-opacity:1;fill-rule:nonzero;stroke:#000000;stroke-width:2.41919994;stroke-linecap:butt;stroke-linejoin:miter;stroke-miterlimit:10;stroke-dasharray:none;stroke-opacity:1"
           d="m 264.621,72.578 -7.258,3.629 0,-7.258 7.258,3.629 z" /></g><g
         transform="matrix(1,0,0,-1,0,145.15861)"
         id="g22"><path
           id="path24"
           style="fill:none;stroke:#000000;stroke-width:2.41919994;stroke-linecap:butt;stroke-linejoin:miter;stroke-miterlimit:10;stroke-dasharray:none;stroke-opacity:1"
           d="m 146.363,72.578 -14.234,0" /></g><g
         transform="matrix(1,0,0,-1,0,145.15861)"
         id="g26"><path
           id="path28"
           style="fill:#000000;fill-opacity:1;fill-rule:nonzero;stroke:#000000;stroke-width:2.41919994;stroke-linecap:butt;stroke-linejoin:miter;stroke-miterlimit:10;stroke-dasharray:none;stroke-opacity:1"
           d="m 124.871,72.578 7.258,-3.629 0,7.258 -7.258,-3.629 z" /></g><g
         transform="matrix(1,0,0,-1,0,145.15861)"
         id="g30"><path
           id="path32"
           style="fill:none;stroke:#000000;stroke-width:2.41919994;stroke-linecap:butt;stroke-linejoin:miter;stroke-miterlimit:10;stroke-dasharray:none;stroke-opacity:1"
           d="m 194.746,24.195 0,-14.234" /></g><g
         transform="matrix(1,0,0,-1,0,145.15861)"
         id="g34"><path
           id="path36"
           style="fill:#000000;fill-opacity:1;fill-rule:nonzero;stroke:#000000;stroke-width:2.41919994;stroke-linecap:butt;stroke-linejoin:miter;stroke-miterlimit:10;stroke-dasharray:none;stroke-opacity:1"
           d="m 194.746,2.703 3.629,7.258 -7.258,0 3.629,-7.258 z" /></g><g
         transform="matrix(1,0,0,-1,0,145.15861)"
         id="g38"><path
           id="path40"
           style="fill:none;stroke:#000000;stroke-width:2.41919994;stroke-linecap:butt;stroke-linejoin:miter;stroke-miterlimit:10;stroke-dasharray:none;stroke-opacity:1"
           d="m 194.746,120.965 0,14.23" /></g><g
         transform="matrix(1,0,0,-1,0,145.15861)"
         id="g42"><path
           id="path44"
           style="fill:#000000;fill-opacity:1;fill-rule:nonzero;stroke:#000000;stroke-width:2.41919994;stroke-linecap:butt;stroke-linejoin:miter;stroke-miterlimit:10;stroke-dasharray:none;stroke-opacity:1"
           d="m 194.746,142.453 -3.629,-7.258 7.258,0 -3.629,7.258 z" /></g><g
         transform="matrix(1,0,0,-1,0,145.15861)"
         id="g46"><path
           id="path48"
           style="fill:none;stroke:#000000;stroke-width:2.41919994;stroke-linecap:butt;stroke-linejoin:miter;stroke-miterlimit:10;stroke-dasharray:none;stroke-opacity:1"
           d="m 388.281,72.578 c 0,8.067 -4.031,12.098 -12.093,12.098 -8.067,0 -12.098,-4.031 -12.098,-12.098 0,-8.062 4.742,-12.094 14.234,-12.094" /></g><g
         transform="matrix(1,0,0,-1,0,145.15861)"
         id="g50"><path
           id="path52"
           style="fill:#000000;fill-opacity:1;fill-rule:nonzero;stroke:#000000;stroke-width:2.41919994;stroke-linecap:butt;stroke-linejoin:miter;stroke-miterlimit:10;stroke-dasharray:none;stroke-opacity:1"
           d="m 385.582,60.484 -7.258,3.629 0,-7.258 7.258,3.629 z" /></g><g
         transform="matrix(1,0,0,-1,0,145.15861)"
         id="g54"><path
           id="path56"
           style="fill:none;stroke:#000000;stroke-width:2.41919994;stroke-linecap:butt;stroke-linejoin:miter;stroke-miterlimit:10;stroke-dasharray:none;stroke-opacity:1"
           d="m 1.211,72.578 c 0,8.067 4.031,12.098 12.094,12.098 8.066,0 12.097,-4.031 12.097,-12.098 0,-8.062 -4.746,-12.094 -14.234,-12.094" /></g><g
         transform="matrix(1,0,0,-1,0,145.15861)"
         id="g58"><path
           id="path60"
           style="fill:#000000;fill-opacity:1;fill-rule:nonzero;stroke:#000000;stroke-width:2.41919994;stroke-linecap:butt;stroke-linejoin:miter;stroke-miterlimit:10;stroke-dasharray:none;stroke-opacity:1"
           d="m 3.91,60.484 7.258,-3.629 0,7.258 -7.258,-3.629 z" /></g></g></g></svg>