<?xml version="1.0" encoding="UTF-8" standalone="no"?>
<svg
   xmlns:dc="http://purl.org/dc/elements/1.1/"
   xmlns:cc="http://creativecommons.org/ns#"
   xmlns:rdf="http://www.w3.org/1999/02/22-rdf-syntax-ns#"
   xmlns:svg="http://www.w3.org/2000/svg"
   xmlns="http://www.w3.org/2000/svg"
   viewBox="0 0 773.51703 260.10895"
   height="260.10895"
   width="773.51703"
   xml:space="preserve"
   version="1.1"
   id="svg2"><metadata
     id="metadata8"><rdf:RDF><cc:Work
         rdf:about=""><dc:format>image/svg+xml</dc:format><dc:type
           rdf:resource="http://purl.org/dc/dcmitype/StillImage" /></cc:Work></rdf:RDF></metadata><defs
     id="defs6" /><g
     transform="matrix(1.25,0,0,-1.25,0,260.10895)"
     id="g10"><g
       id="g12"><g
         transform="matrix(1,0,0,-1,0,208.08716)"
         id="g14"><path
           id="path16"
           style="fill:none;stroke:#000000;stroke-width:0.83520001;stroke-linecap:butt;stroke-linejoin:miter;stroke-miterlimit:4;stroke-dasharray:none;stroke-opacity:1"
           d="m 6.027,0.418 72.301,0 c 3.11,0 5.61,2.5 5.61,5.609 l 0,168.348 c 0,3.109 -2.5,5.609 -5.61,5.609 l -72.301,0 c -3.109,0 -5.609,-2.5 -5.609,-5.609 l 0,-168.348 c 0,-3.109 2.5,-5.609 5.609,-5.609 z" /></g><path
         id="path18"
         style="fill:#000000;fill-opacity:1;fill-rule:nonzero;stroke:none"
         d="m 16.879,17.736 c 0,-0.407 -0.074,-0.778 -0.219,-1.11 -0.148,-0.336 -0.375,-0.621 -0.687,-0.859 -0.313,-0.231 -0.715,-0.414 -1.203,-0.547 -0.481,-0.125 -1.055,-0.188 -1.719,-0.188 -0.594,0 -1.121,0.055 -1.578,0.157 -0.45,0.101 -0.836,0.258 -1.157,0.468 -0.324,0.208 -0.586,0.461 -0.781,0.766 -0.199,0.313 -0.344,0.664 -0.437,1.063 l 1.812,0.296 c 0.051,-0.199 0.125,-0.382 0.219,-0.546 0.094,-0.168 0.223,-0.313 0.391,-0.438 0.175,-0.117 0.39,-0.203 0.64,-0.266 0.258,-0.062 0.57,-0.093 0.938,-0.093 0.632,0 1.117,0.093 1.453,0.281 0.344,0.195 0.515,0.5 0.515,0.906 0,0.25 -0.07,0.453 -0.203,0.61 -0.136,0.156 -0.32,0.281 -0.547,0.375 -0.218,0.101 -0.476,0.187 -0.765,0.25 -0.293,0.07 -0.602,0.14 -0.922,0.203 -0.25,0.062 -0.508,0.125 -0.766,0.187 -0.25,0.063 -0.492,0.133 -0.718,0.219 -0.231,0.094 -0.446,0.203 -0.641,0.328 -0.199,0.125 -0.371,0.274 -0.516,0.453 -0.148,0.176 -0.261,0.383 -0.343,0.625 -0.086,0.25 -0.125,0.535 -0.125,0.86 0,0.445 0.085,0.828 0.265,1.14 0.176,0.313 0.422,0.567 0.735,0.766 0.312,0.207 0.687,0.359 1.125,0.453 0.437,0.094 0.914,0.141 1.437,0.141 0.582,0 1.082,-0.047 1.5,-0.141 0.414,-0.094 0.766,-0.234 1.047,-0.422 0.281,-0.18 0.5,-0.406 0.656,-0.687 0.164,-0.282 0.285,-0.61 0.36,-0.985 l -1.813,-0.25 c -0.094,0.383 -0.289,0.672 -0.578,0.86 -0.281,0.195 -0.688,0.296 -1.219,0.296 -0.324,0 -0.594,-0.031 -0.812,-0.093 -0.219,-0.055 -0.399,-0.133 -0.532,-0.235 -0.125,-0.093 -0.218,-0.203 -0.281,-0.328 -0.055,-0.125 -0.078,-0.261 -0.078,-0.406 0,-0.219 0.051,-0.402 0.156,-0.547 0.114,-0.148 0.266,-0.266 0.453,-0.359 0.188,-0.094 0.411,-0.172 0.672,-0.235 0.27,-0.062 0.567,-0.132 0.891,-0.203 0.269,-0.062 0.539,-0.125 0.812,-0.187 0.282,-0.063 0.547,-0.141 0.797,-0.235 0.25,-0.086 0.485,-0.195 0.703,-0.328 0.219,-0.125 0.407,-0.281 0.563,-0.469 0.156,-0.179 0.273,-0.398 0.359,-0.656 0.094,-0.25 0.141,-0.547 0.141,-0.89 z" /><path
         id="path20"
         style="fill:#000000;fill-opacity:1;fill-rule:nonzero;stroke:none"
         d="m 20.855,15.032 c -0.543,0 -1.015,0.086 -1.421,0.25 -0.407,0.165 -0.746,0.407 -1.016,0.719 -0.273,0.313 -0.477,0.68 -0.609,1.11 -0.137,0.437 -0.204,0.914 -0.204,1.437 0,0.57 0.071,1.082 0.219,1.531 0.145,0.446 0.36,0.821 0.641,1.125 0.281,0.313 0.625,0.547 1.031,0.703 0.406,0.165 0.867,0.25 1.391,0.25 0.445,0 0.843,-0.062 1.187,-0.187 0.344,-0.117 0.641,-0.277 0.891,-0.484 0.25,-0.2 0.445,-0.438 0.594,-0.719 0.156,-0.281 0.265,-0.586 0.328,-0.906 L 22.09,19.767 c -0.055,0.351 -0.184,0.633 -0.391,0.844 -0.199,0.207 -0.48,0.312 -0.844,0.312 -0.48,0 -0.835,-0.199 -1.062,-0.594 -0.219,-0.386 -0.328,-0.953 -0.328,-1.703 0,-1.586 0.469,-2.375 1.406,-2.375 0.344,0 0.629,0.102 0.859,0.313 0.227,0.218 0.368,0.539 0.422,0.968 l 1.782,-0.093 c -0.043,-0.313 -0.141,-0.617 -0.297,-0.907 -0.149,-0.292 -0.352,-0.554 -0.61,-0.781 -0.25,-0.219 -0.558,-0.398 -0.922,-0.531 -0.367,-0.125 -0.781,-0.188 -1.25,-0.188 z" /><path
         id="path22"
         style="fill:#000000;fill-opacity:1;fill-rule:nonzero;stroke:none"
         d="m 24.973,15.157 0,5.25 c 0,0.157 0,0.313 0,0.469 0,0.164 -0.008,0.321 -0.016,0.469 -0.012,0.156 -0.016,0.289 -0.016,0.406 0,0.125 -0.007,0.219 -0.015,0.281 l 1.703,0 c 0.008,-0.054 0.016,-0.14 0.016,-0.265 0.007,-0.125 0.019,-0.266 0.031,-0.422 0.008,-0.148 0.015,-0.293 0.015,-0.438 0.008,-0.148 0.016,-0.261 0.016,-0.343 l 0.031,0 c 0.082,0.25 0.164,0.468 0.25,0.656 0.094,0.195 0.196,0.363 0.313,0.5 0.125,0.145 0.269,0.254 0.437,0.328 0.176,0.07 0.391,0.109 0.641,0.109 0.101,0 0.207,-0.011 0.312,-0.031 0.102,-0.023 0.18,-0.043 0.235,-0.062 l 0,-1.485 c -0.117,0.02 -0.231,0.039 -0.344,0.063 -0.117,0.019 -0.258,0.031 -0.422,0.031 -0.437,0 -0.781,-0.183 -1.031,-0.547 -0.25,-0.355 -0.375,-0.886 -0.375,-1.594 l 0,-3.375 -1.781,0 z" /><path
         id="path24"
         style="fill:#000000;fill-opacity:1;fill-rule:nonzero;stroke:none"
         d="m 32.652,15.032 c -0.492,0 -0.933,0.075 -1.328,0.219 -0.398,0.145 -0.734,0.364 -1.015,0.656 -0.282,0.301 -0.497,0.676 -0.641,1.125 -0.148,0.458 -0.219,0.989 -0.219,1.594 0,0.656 0.082,1.207 0.25,1.656 0.176,0.446 0.414,0.805 0.719,1.079 0.301,0.281 0.644,0.484 1.031,0.609 0.383,0.125 0.797,0.187 1.235,0.187 0.539,0 1,-0.093 1.375,-0.281 0.382,-0.187 0.695,-0.453 0.937,-0.797 0.25,-0.336 0.43,-0.742 0.547,-1.218 0.113,-0.469 0.172,-0.993 0.172,-1.563 l 0,-0.047 -4.406,0 c 0,-0.293 0.023,-0.562 0.078,-0.812 0.051,-0.242 0.133,-0.453 0.25,-0.641 0.113,-0.18 0.258,-0.32 0.437,-0.422 0.188,-0.105 0.41,-0.156 0.672,-0.156 0.313,0 0.566,0.066 0.766,0.203 0.195,0.133 0.336,0.344 0.422,0.625 l 1.687,-0.156 c -0.086,-0.188 -0.195,-0.399 -0.328,-0.625 -0.137,-0.219 -0.32,-0.422 -0.547,-0.61 -0.23,-0.179 -0.516,-0.328 -0.859,-0.453 -0.336,-0.113 -0.746,-0.172 -1.235,-0.172 z m 0,6 c -0.179,0 -0.351,-0.031 -0.515,-0.093 -0.157,-0.063 -0.293,-0.164 -0.407,-0.297 -0.117,-0.137 -0.21,-0.309 -0.281,-0.516 -0.074,-0.211 -0.117,-0.465 -0.125,-0.765 l 2.672,0 c -0.031,0.562 -0.168,0.976 -0.406,1.25 -0.231,0.281 -0.543,0.421 -0.938,0.421 z" /><path
         id="path26"
         style="fill:#000000;fill-opacity:1;fill-rule:nonzero;stroke:none"
         d="m 39.625,15.032 c -0.492,0 -0.934,0.075 -1.328,0.219 -0.399,0.145 -0.735,0.364 -1.016,0.656 -0.281,0.301 -0.496,0.676 -0.64,1.125 -0.149,0.458 -0.219,0.989 -0.219,1.594 0,0.656 0.082,1.207 0.25,1.656 0.176,0.446 0.414,0.805 0.719,1.079 0.3,0.281 0.644,0.484 1.031,0.609 0.383,0.125 0.797,0.187 1.234,0.187 0.539,0 1,-0.093 1.375,-0.281 0.383,-0.187 0.696,-0.453 0.938,-0.797 0.25,-0.336 0.429,-0.742 0.547,-1.218 0.113,-0.469 0.172,-0.993 0.172,-1.563 l 0,-0.047 -4.407,0 c 0,-0.293 0.024,-0.562 0.078,-0.812 0.051,-0.242 0.133,-0.453 0.25,-0.641 0.114,-0.18 0.258,-0.32 0.438,-0.422 0.187,-0.105 0.41,-0.156 0.672,-0.156 0.312,0 0.566,0.066 0.765,0.203 0.196,0.133 0.336,0.344 0.422,0.625 l 1.688,-0.156 c -0.086,-0.188 -0.196,-0.399 -0.328,-0.625 -0.137,-0.219 -0.321,-0.422 -0.547,-0.61 -0.231,-0.179 -0.516,-0.328 -0.86,-0.453 -0.336,-0.113 -0.746,-0.172 -1.234,-0.172 z m 0,6 c -0.18,0 -0.352,-0.031 -0.516,-0.093 -0.156,-0.063 -0.293,-0.164 -0.406,-0.297 -0.117,-0.137 -0.211,-0.309 -0.281,-0.516 -0.074,-0.211 -0.117,-0.465 -0.125,-0.765 l 2.672,0 c -0.031,0.562 -0.168,0.976 -0.407,1.25 -0.23,0.281 -0.542,0.421 -0.937,0.421 z" /><path
         id="path28"
         style="fill:#000000;fill-opacity:1;fill-rule:nonzero;stroke:none"
         d="m 48.242,15.157 0,3.86 c 0,0.258 -0.023,0.5 -0.062,0.719 -0.043,0.226 -0.118,0.421 -0.219,0.578 -0.094,0.156 -0.219,0.273 -0.375,0.359 -0.156,0.094 -0.352,0.141 -0.578,0.141 -0.211,0 -0.403,-0.047 -0.578,-0.141 -0.18,-0.094 -0.328,-0.23 -0.453,-0.406 C 45.852,20.087 45.75,19.88 45.68,19.642 45.605,19.4 45.57,19.134 45.57,18.845 l 0,-3.688 -1.781,0 0,5.329 c 0,0.144 0,0.296 0,0.453 0,0.164 -0.008,0.316 -0.016,0.453 -0.011,0.144 -0.015,0.269 -0.015,0.375 0,0.113 -0.008,0.203 -0.016,0.265 l 1.703,0 c 0.008,-0.054 0.016,-0.136 0.016,-0.25 0.008,-0.117 0.019,-0.242 0.031,-0.375 0.008,-0.136 0.016,-0.273 0.016,-0.406 0.008,-0.136 0.015,-0.25 0.015,-0.344 l 0.032,0 c 0.238,0.532 0.539,0.911 0.906,1.141 0.363,0.238 0.797,0.359 1.297,0.359 0.414,0 0.765,-0.07 1.047,-0.203 0.289,-0.136 0.523,-0.324 0.703,-0.562 0.176,-0.231 0.304,-0.508 0.39,-0.828 0.082,-0.324 0.125,-0.672 0.125,-1.047 l 0,-4.36 -1.781,0 z" /><path
         id="path30"
         style="fill:#000000;fill-opacity:1;fill-rule:nonzero;stroke:none"
         d="m 51.445,24.579 1.781,0 0,-9.422 -1.781,0 0,9.422 z" /><path
         id="path32"
         style="fill:#000000;fill-opacity:1;fill-rule:nonzero;stroke:none"
         d="m 57.734,15.032 c -0.492,0 -0.933,0.075 -1.328,0.219 -0.398,0.145 -0.734,0.364 -1.015,0.656 -0.282,0.301 -0.496,0.676 -0.641,1.125 -0.148,0.458 -0.219,0.989 -0.219,1.594 0,0.656 0.082,1.207 0.25,1.656 0.176,0.446 0.414,0.805 0.719,1.079 0.301,0.281 0.645,0.484 1.031,0.609 0.383,0.125 0.797,0.187 1.235,0.187 0.539,0 1,-0.093 1.375,-0.281 0.382,-0.187 0.695,-0.453 0.937,-0.797 0.25,-0.336 0.43,-0.742 0.547,-1.218 0.113,-0.469 0.172,-0.993 0.172,-1.563 l 0,-0.047 -4.406,0 c 0,-0.293 0.023,-0.562 0.078,-0.812 0.051,-0.242 0.133,-0.453 0.25,-0.641 0.113,-0.18 0.258,-0.32 0.437,-0.422 0.188,-0.105 0.41,-0.156 0.672,-0.156 0.313,0 0.567,0.066 0.766,0.203 0.195,0.133 0.336,0.344 0.422,0.625 l 1.687,-0.156 c -0.086,-0.188 -0.195,-0.399 -0.328,-0.625 -0.137,-0.219 -0.32,-0.422 -0.547,-0.61 -0.23,-0.179 -0.516,-0.328 -0.859,-0.453 -0.336,-0.113 -0.746,-0.172 -1.235,-0.172 z m 0,6 c -0.179,0 -0.351,-0.031 -0.515,-0.093 -0.157,-0.063 -0.293,-0.164 -0.407,-0.297 -0.117,-0.137 -0.21,-0.309 -0.281,-0.516 -0.074,-0.211 -0.117,-0.465 -0.125,-0.765 l 2.672,0 c -0.031,0.562 -0.168,0.976 -0.406,1.25 -0.231,0.281 -0.543,0.421 -0.938,0.421 z" /><path
         id="path34"
         style="fill:#000000;fill-opacity:1;fill-rule:nonzero;stroke:none"
         d="m 67.691,17.157 c 0,-0.324 -0.074,-0.621 -0.218,-0.89 -0.137,-0.262 -0.336,-0.485 -0.594,-0.672 -0.262,-0.18 -0.586,-0.32 -0.969,-0.422 -0.375,-0.094 -0.808,-0.141 -1.297,-0.141 -0.437,0 -0.836,0.032 -1.187,0.094 -0.344,0.063 -0.653,0.164 -0.922,0.313 -0.262,0.144 -0.481,0.332 -0.656,0.562 -0.18,0.239 -0.313,0.531 -0.407,0.875 l 1.579,0.235 c 0.039,-0.2 0.109,-0.356 0.203,-0.469 0.093,-0.117 0.203,-0.203 0.328,-0.266 0.133,-0.062 0.285,-0.109 0.453,-0.14 0.176,-0.024 0.379,-0.032 0.609,-0.032 0.196,0 0.383,0.008 0.563,0.032 0.176,0.031 0.328,0.07 0.453,0.125 0.133,0.062 0.238,0.144 0.312,0.25 0.071,0.101 0.11,0.234 0.11,0.39 0,0.176 -0.055,0.317 -0.156,0.422 -0.106,0.102 -0.25,0.188 -0.438,0.25 -0.18,0.063 -0.387,0.117 -0.625,0.172 -0.242,0.051 -0.5,0.109 -0.781,0.172 -0.281,0.062 -0.563,0.133 -0.844,0.219 -0.281,0.093 -0.531,0.211 -0.75,0.359 -0.219,0.156 -0.398,0.348 -0.531,0.578 -0.137,0.238 -0.203,0.539 -0.203,0.906 0,0.321 0.062,0.61 0.187,0.86 0.125,0.258 0.305,0.476 0.547,0.656 0.25,0.187 0.555,0.328 0.922,0.422 0.363,0.094 0.781,0.14 1.25,0.14 0.375,0 0.719,-0.039 1.031,-0.109 0.32,-0.062 0.61,-0.172 0.86,-0.328 0.257,-0.148 0.472,-0.34 0.64,-0.578 0.176,-0.231 0.297,-0.512 0.36,-0.844 l -1.579,-0.156 c -0.031,0.164 -0.086,0.301 -0.156,0.406 -0.074,0.102 -0.168,0.188 -0.281,0.25 -0.117,0.07 -0.246,0.117 -0.391,0.141 -0.148,0.019 -0.308,0.031 -0.484,0.031 -0.43,0 -0.746,-0.059 -0.953,-0.172 -0.211,-0.105 -0.313,-0.281 -0.313,-0.531 0,-0.156 0.039,-0.281 0.125,-0.375 0.082,-0.094 0.203,-0.172 0.36,-0.235 0.164,-0.062 0.359,-0.117 0.578,-0.156 0.219,-0.043 0.453,-0.094 0.703,-0.156 0.32,-0.074 0.633,-0.156 0.937,-0.25 0.313,-0.086 0.586,-0.211 0.829,-0.375 0.238,-0.156 0.429,-0.359 0.578,-0.609 0.144,-0.25 0.218,-0.571 0.218,-0.954 z" /><path
         id="path36"
         style="fill:#000000;fill-opacity:1;fill-rule:nonzero;stroke:none"
         d="m 74.664,17.157 c 0,-0.324 -0.074,-0.621 -0.219,-0.89 -0.136,-0.262 -0.336,-0.485 -0.593,-0.672 -0.262,-0.18 -0.586,-0.32 -0.969,-0.422 -0.375,-0.094 -0.809,-0.141 -1.297,-0.141 -0.438,0 -0.836,0.032 -1.188,0.094 -0.343,0.063 -0.652,0.164 -0.921,0.313 -0.262,0.144 -0.481,0.332 -0.657,0.562 -0.179,0.239 -0.312,0.531 -0.406,0.875 l 1.578,0.235 c 0.039,-0.2 0.11,-0.356 0.203,-0.469 0.094,-0.117 0.203,-0.203 0.328,-0.266 0.133,-0.062 0.286,-0.109 0.454,-0.14 0.175,-0.024 0.378,-0.032 0.609,-0.032 0.195,0 0.383,0.008 0.562,0.032 0.176,0.031 0.329,0.07 0.454,0.125 0.132,0.062 0.238,0.144 0.312,0.25 0.07,0.101 0.109,0.234 0.109,0.39 0,0.176 -0.054,0.317 -0.156,0.422 -0.105,0.102 -0.25,0.188 -0.437,0.25 -0.18,0.063 -0.387,0.117 -0.625,0.172 -0.243,0.051 -0.5,0.109 -0.782,0.172 -0.281,0.062 -0.562,0.133 -0.843,0.219 -0.282,0.093 -0.532,0.211 -0.75,0.359 -0.219,0.156 -0.399,0.348 -0.532,0.578 -0.136,0.238 -0.203,0.539 -0.203,0.906 0,0.321 0.063,0.61 0.188,0.86 0.125,0.258 0.305,0.476 0.547,0.656 0.25,0.187 0.554,0.328 0.922,0.422 0.363,0.094 0.781,0.14 1.25,0.14 0.375,0 0.718,-0.039 1.031,-0.109 0.32,-0.062 0.609,-0.172 0.859,-0.328 0.258,-0.148 0.473,-0.34 0.641,-0.578 0.176,-0.231 0.297,-0.512 0.359,-0.844 l -1.578,-0.156 c -0.031,0.164 -0.086,0.301 -0.156,0.406 -0.074,0.102 -0.168,0.188 -0.281,0.25 -0.118,0.07 -0.247,0.117 -0.391,0.141 -0.148,0.019 -0.309,0.031 -0.484,0.031 -0.43,0 -0.747,-0.059 -0.954,-0.172 -0.21,-0.105 -0.312,-0.281 -0.312,-0.531 0,-0.156 0.039,-0.281 0.125,-0.375 0.082,-0.094 0.203,-0.172 0.359,-0.235 0.164,-0.062 0.36,-0.117 0.578,-0.156 0.219,-0.043 0.454,-0.094 0.704,-0.156 0.32,-0.074 0.632,-0.156 0.937,-0.25 0.313,-0.086 0.586,-0.211 0.828,-0.375 0.238,-0.156 0.43,-0.359 0.578,-0.609 0.145,-0.25 0.219,-0.571 0.219,-0.954 z" /><path
         id="path38"
         style="fill:#000000;fill-opacity:1;fill-rule:nonzero;stroke:none"
         d="m 25.855,0.122 -2.078,3.391 -2.187,0 0,-3.391 -1.875,0 0,8.938 4.469,0 c 0.55,0 1.035,-0.063 1.453,-0.188 0.414,-0.125 0.765,-0.304 1.047,-0.531 0.281,-0.23 0.488,-0.512 0.625,-0.844 0.132,-0.324 0.203,-0.687 0.203,-1.093 0,-0.336 -0.055,-0.641 -0.157,-0.922 C 27.262,5.2 27.125,4.95 26.949,4.732 26.781,4.521 26.574,4.345 26.324,4.2 26.082,4.052 25.824,3.95 25.543,3.888 l 2.422,-3.766 -2.11,0 z m -0.218,6.203 c 0,0.438 -0.149,0.758 -0.438,0.969 -0.281,0.207 -0.687,0.313 -1.219,0.313 l -2.39,0 0,-2.641 2.437,0 c 0.282,0 0.52,0.031 0.719,0.094 0.207,0.07 0.375,0.164 0.5,0.281 0.133,0.125 0.234,0.27 0.297,0.438 0.062,0.164 0.094,0.347 0.094,0.546 z" /><path
         id="path40"
         style="fill:#000000;fill-opacity:1;fill-rule:nonzero;stroke:none"
         d="m 31.613,-0.003 c -0.492,0 -0.933,0.075 -1.328,0.219 -0.398,0.145 -0.734,0.363 -1.015,0.656 -0.282,0.301 -0.497,0.676 -0.641,1.125 -0.149,0.457 -0.219,0.989 -0.219,1.594 0,0.656 0.082,1.207 0.25,1.656 0.176,0.446 0.414,0.805 0.719,1.078 0.301,0.282 0.644,0.485 1.031,0.61 0.383,0.125 0.797,0.187 1.235,0.187 0.539,0 1,-0.093 1.375,-0.281 0.382,-0.187 0.695,-0.453 0.937,-0.797 0.25,-0.336 0.43,-0.742 0.547,-1.219 0.113,-0.468 0.172,-0.992 0.172,-1.562 l 0,-0.047 -4.406,0 c 0,-0.293 0.023,-0.562 0.078,-0.812 0.05,-0.243 0.132,-0.454 0.25,-0.641 0.113,-0.18 0.257,-0.32 0.437,-0.422 0.188,-0.105 0.41,-0.156 0.672,-0.156 0.313,0 0.566,0.066 0.766,0.203 0.195,0.133 0.336,0.344 0.422,0.625 L 34.582,1.857 C 34.496,1.669 34.387,1.458 34.254,1.232 34.117,1.013 33.934,0.81 33.707,0.622 33.477,0.443 33.191,0.294 32.848,0.169 32.512,0.056 32.102,-0.003 31.613,-0.003 Z m 0,6 C 31.434,5.997 31.262,5.966 31.098,5.904 30.941,5.841 30.805,5.74 30.691,5.607 30.574,5.47 30.48,5.298 30.41,5.091 30.336,4.88 30.293,4.626 30.285,4.325 l 2.672,0 c -0.031,0.563 -0.168,0.977 -0.406,1.25 -0.231,0.282 -0.543,0.422 -0.938,0.422 z" /><path
         id="path42"
         style="fill:#000000;fill-opacity:1;fill-rule:nonzero;stroke:none"
         d="m 39.82,0.122 0,3.86 c 0,0.258 -0.023,0.5 -0.062,0.718 -0.031,0.227 -0.09,0.422 -0.172,0.579 -0.086,0.156 -0.195,0.273 -0.328,0.359 -0.125,0.094 -0.289,0.141 -0.485,0.141 -0.179,0 -0.343,-0.047 -0.5,-0.141 C 38.125,5.544 38,5.407 37.898,5.232 37.793,5.052 37.711,4.845 37.648,4.607 37.586,4.365 37.555,4.099 37.555,3.81 l 0,-3.688 -1.782,0 0,5.328 c 0,0.145 0,0.297 0,0.454 0,0.164 -0.007,0.316 -0.015,0.453 -0.012,0.144 -0.016,0.269 -0.016,0.375 0,0.113 -0.008,0.203 -0.015,0.265 l 1.703,0 c 0.008,-0.054 0.015,-0.136 0.015,-0.25 0.008,-0.117 0.02,-0.242 0.032,-0.375 0.007,-0.136 0.015,-0.273 0.015,-0.406 0.008,-0.137 0.016,-0.25 0.016,-0.344 l 0.031,0 c 0.219,0.532 0.488,0.91 0.813,1.141 0.332,0.238 0.726,0.359 1.187,0.359 0.52,0 0.938,-0.132 1.25,-0.39 0.32,-0.25 0.539,-0.621 0.656,-1.11 l 0.032,0 c 0.125,0.282 0.253,0.516 0.39,0.703 0.145,0.196 0.301,0.352 0.469,0.469 0.176,0.113 0.363,0.196 0.562,0.25 0.207,0.051 0.43,0.078 0.672,0.078 0.375,0 0.692,-0.07 0.953,-0.203 0.258,-0.137 0.469,-0.324 0.625,-0.562 0.164,-0.231 0.286,-0.508 0.36,-0.828 0.07,-0.325 0.109,-0.672 0.109,-1.047 l 0,-4.36 -1.765,0 0,3.86 c 0,0.258 -0.024,0.5 -0.063,0.718 -0.031,0.227 -0.09,0.422 -0.172,0.579 C 43.531,5.435 43.422,5.552 43.289,5.638 43.164,5.732 43,5.779 42.805,5.779 42.625,5.779 42.465,5.732 42.32,5.638 42.172,5.552 42.043,5.427 41.93,5.263 41.824,5.095 41.742,4.892 41.68,4.654 41.625,4.423 41.594,4.169 41.586,3.888 l 0,-3.766 -1.766,0 z" /><path
         id="path44"
         style="fill:#000000;fill-opacity:1;fill-rule:nonzero;stroke:none"
         d="m 53.438,3.56 c 0,-0.524 -0.075,-1 -0.219,-1.438 C 53.07,1.685 52.852,1.31 52.562,0.997 52.27,0.685 51.906,0.439 51.469,0.263 51.031,0.087 50.52,-0.003 49.938,-0.003 c -0.555,0 -1.043,0.086 -1.469,0.25 -0.43,0.176 -0.789,0.422 -1.078,0.735 -0.293,0.312 -0.512,0.687 -0.657,1.125 -0.148,0.437 -0.218,0.922 -0.218,1.453 0,0.508 0.066,0.984 0.203,1.422 0.144,0.437 0.359,0.812 0.64,1.125 0.289,0.32 0.657,0.57 1.094,0.75 0.438,0.175 0.945,0.265 1.531,0.265 0.614,0 1.141,-0.09 1.578,-0.265 0.438,-0.18 0.79,-0.43 1.063,-0.75 0.281,-0.313 0.484,-0.688 0.609,-1.125 0.133,-0.43 0.204,-0.903 0.204,-1.422 z m -1.876,0 c 0,0.82 -0.136,1.414 -0.406,1.781 C 50.895,5.704 50.508,5.888 50,5.888 49.477,5.888 49.078,5.7 48.797,5.325 48.516,4.958 48.375,4.372 48.375,3.56 c 0,-0.406 0.035,-0.762 0.109,-1.063 0.082,-0.293 0.192,-0.539 0.328,-0.734 0.133,-0.188 0.297,-0.328 0.485,-0.422 0.187,-0.086 0.394,-0.125 0.625,-0.125 0.258,0 0.492,0.039 0.703,0.125 0.207,0.094 0.379,0.234 0.516,0.422 0.132,0.195 0.238,0.441 0.312,0.734 0.07,0.301 0.109,0.657 0.109,1.063 z" /><path
         id="path46"
         style="fill:#000000;fill-opacity:1;fill-rule:nonzero;stroke:none"
         d="m 56.332,0.013 c -0.531,0 -0.937,0.141 -1.219,0.422 -0.281,0.289 -0.422,0.722 -0.422,1.297 l 0,4.047 -0.875,0 0,1.218 0.969,0 0.547,1.61 1.125,0 0,-1.61 1.297,0 0,-1.218 -1.297,0 0,-3.563 c 0,-0.336 0.063,-0.578 0.188,-0.734 0.125,-0.157 0.32,-0.235 0.593,-0.235 0.102,0 0.196,0.004 0.282,0.016 0.093,0.019 0.195,0.039 0.312,0.062 l 0,-1.093 C 57.613,0.157 57.379,0.107 57.129,0.075 56.887,0.036 56.621,0.013 56.332,0.013 Z" /><path
         id="path48"
         style="fill:#000000;fill-opacity:1;fill-rule:nonzero;stroke:none"
         d="m 61.562,-0.003 c -0.492,0 -0.933,0.075 -1.328,0.219 -0.398,0.145 -0.734,0.363 -1.015,0.656 -0.281,0.301 -0.496,0.676 -0.641,1.125 -0.148,0.457 -0.219,0.989 -0.219,1.594 0,0.656 0.082,1.207 0.25,1.656 0.176,0.446 0.414,0.805 0.719,1.078 0.301,0.282 0.645,0.485 1.031,0.61 0.383,0.125 0.797,0.187 1.235,0.187 0.539,0 1,-0.093 1.375,-0.281 0.383,-0.187 0.695,-0.453 0.937,-0.797 0.25,-0.336 0.43,-0.742 0.547,-1.219 0.113,-0.468 0.172,-0.992 0.172,-1.562 l 0,-0.047 -4.406,0 c 0,-0.293 0.023,-0.562 0.078,-0.812 0.051,-0.243 0.133,-0.454 0.25,-0.641 0.113,-0.18 0.258,-0.32 0.437,-0.422 0.188,-0.105 0.411,-0.156 0.672,-0.156 0.313,0 0.567,0.066 0.766,0.203 0.195,0.133 0.336,0.344 0.422,0.625 L 64.531,1.857 C 64.445,1.669 64.336,1.458 64.203,1.232 64.066,1.013 63.883,0.81 63.656,0.622 63.426,0.443 63.141,0.294 62.797,0.169 62.461,0.056 62.051,-0.003 61.562,-0.003 Z m 0,6 C 61.383,5.997 61.211,5.966 61.047,5.904 60.891,5.841 60.754,5.74 60.641,5.607 60.523,5.47 60.43,5.298 60.359,5.091 60.285,4.88 60.242,4.626 60.234,4.325 l 2.672,0 C 62.875,4.888 62.738,5.302 62.5,5.575 62.27,5.857 61.957,5.997 61.562,5.997 Z" /><g
         transform="matrix(1,0,0,-1,0,208.08716)"
         id="g50"><path
           id="path52"
           style="fill:none;stroke:#000000;stroke-width:0.83520001;stroke-linecap:butt;stroke-linejoin:miter;stroke-miterlimit:10;stroke-dasharray:none;stroke-opacity:1"
           d="m 58.883,42.176 4.914,0" /></g><g
         transform="matrix(1,0,0,-1,0,208.08716)"
         id="g54"><path
           id="path56"
           style="fill:#000000;fill-opacity:1;fill-rule:nonzero;stroke:#000000;stroke-width:0.83520001;stroke-linecap:butt;stroke-linejoin:miter;stroke-miterlimit:10;stroke-dasharray:none;stroke-opacity:1"
           d="m 66.301,42.176 -2.504,1.254 0,-2.504 2.504,1.25 z" /></g><g
         transform="matrix(1,0,0,-1,0,208.08716)"
         id="g58"><path
           id="path60"
           style="fill:none;stroke:#000000;stroke-width:0.83520001;stroke-linecap:butt;stroke-linejoin:miter;stroke-miterlimit:4;stroke-dasharray:none;stroke-opacity:1"
           d="m 54.707,83.938 16.703,0 0,16.703 -16.703,0 0,-16.703 z" /></g><g
         transform="matrix(1,0,0,-1,0,208.08716)"
         id="g62"><path
           id="path64"
           style="fill:none;stroke:#000000;stroke-width:0.83520001;stroke-linecap:butt;stroke-linejoin:miter;stroke-miterlimit:4;stroke-dasharray:none;stroke-opacity:1"
           d="m 12.945,83.938 16.703,0 0,16.703 -16.703,0 0,-16.703 z" /></g><g
         transform="matrix(1,0,0,-1,0,208.08716)"
         id="g66"><path
           id="path68"
           style="fill:none;stroke:#000000;stroke-width:0.83520001;stroke-linecap:butt;stroke-linejoin:miter;stroke-miterlimit:10;stroke-dasharray:none;stroke-opacity:1"
           d="m 25.473,42.176 -4.914,0" /></g><g
         transform="matrix(1,0,0,-1,0,208.08716)"
         id="g70"><path
           id="path72"
           style="fill:#000000;fill-opacity:1;fill-rule:nonzero;stroke:#000000;stroke-width:0.83520001;stroke-linecap:butt;stroke-linejoin:miter;stroke-miterlimit:10;stroke-dasharray:none;stroke-opacity:1"
           d="m 18.055,42.176 2.504,-1.25 0,2.504 -2.504,-1.254 z" /></g><g
         transform="matrix(1,0,0,-1,0,208.08716)"
         id="g74"><path
           id="path76"
           style="fill:none;stroke:#000000;stroke-width:0.83520001;stroke-linecap:butt;stroke-linejoin:miter;stroke-miterlimit:4;stroke-dasharray:none;stroke-opacity:1"
           d="m 12.945,33.824 16.703,0 0,16.707 -16.703,0 0,-16.707 z" /></g><g
         transform="matrix(1,0,0,-1,0,208.08716)"
         id="g78"><path
           id="path80"
           style="fill:none;stroke:#000000;stroke-width:0.83520001;stroke-linecap:butt;stroke-linejoin:miter;stroke-miterlimit:4;stroke-dasharray:none;stroke-opacity:1"
           d="m 54.707,33.824 16.703,0 0,16.707 -16.703,0 0,-16.707 z" /></g><g
         transform="matrix(1,0,0,-1,0,208.08716)"
         id="g82"><path
           id="path84"
           style="fill:none;stroke:#000000;stroke-width:0.83520001;stroke-linecap:butt;stroke-linejoin:miter;stroke-miterlimit:10;stroke-dasharray:none;stroke-opacity:1"
           d="m 42.176,25.473 0,-4.914" /></g><g
         transform="matrix(1,0,0,-1,0,208.08716)"
         id="g86"><path
           id="path88"
           style="fill:#000000;fill-opacity:1;fill-rule:nonzero;stroke:#000000;stroke-width:0.83520001;stroke-linecap:butt;stroke-linejoin:miter;stroke-miterlimit:10;stroke-dasharray:none;stroke-opacity:1"
           d="m 42.176,18.055 1.254,2.504 -2.504,0 1.25,-2.504 z" /></g><g
         transform="matrix(1,0,0,-1,0,208.08716)"
         id="g90"><path
           id="path92"
           style="fill:none;stroke:#000000;stroke-width:0.83520001;stroke-linecap:butt;stroke-linejoin:miter;stroke-miterlimit:10;stroke-dasharray:none;stroke-opacity:1"
           d="m 42.176,58.883 0,4.914" /></g><g
         transform="matrix(1,0,0,-1,0,208.08716)"
         id="g94"><path
           id="path96"
           style="fill:#000000;fill-opacity:1;fill-rule:nonzero;stroke:#000000;stroke-width:0.83520001;stroke-linecap:butt;stroke-linejoin:miter;stroke-miterlimit:10;stroke-dasharray:none;stroke-opacity:1"
           d="m 42.176,66.301 -1.25,-2.504 2.504,0 -1.254,2.504 z" /></g><g
         transform="matrix(1,0,0,-1,0,208.08716)"
         id="g98"><path
           id="path100"
           style="fill:none;stroke:#000000;stroke-width:0.83520001;stroke-linecap:butt;stroke-linejoin:miter;stroke-miterlimit:4;stroke-dasharray:none;stroke-opacity:1"
           d="m 33.824,54.707 16.707,0 0,16.703 -16.707,0 0,-16.703 z" /></g><g
         transform="matrix(1,0,0,-1,0,208.08716)"
         id="g102"><path
           id="path104"
           style="fill:none;stroke:#000000;stroke-width:0.83520001;stroke-linecap:butt;stroke-linejoin:miter;stroke-miterlimit:4;stroke-dasharray:none;stroke-opacity:1"
           d="m 33.824,12.945 16.707,0 0,16.703 -16.707,0 0,-16.703 z" /></g><g
         transform="matrix(1,0,0,-1,0,208.08716)"
         id="g106"><path
           id="path108"
           style="fill:none;stroke:#000000;stroke-width:0.83520001;stroke-linecap:butt;stroke-linejoin:miter;stroke-miterlimit:10;stroke-dasharray:none;stroke-opacity:1"
           d="m 67.234,92.289 c 0,2.785 -1.394,4.176 -4.175,4.176 -2.786,0 -4.176,-1.391 -4.176,-4.176 0,-2.785 1.637,-4.176 4.914,-4.176" /></g><g
         transform="matrix(1,0,0,-1,0,208.08716)"
         id="g110"><path
           id="path112"
           style="fill:#000000;fill-opacity:1;fill-rule:nonzero;stroke:#000000;stroke-width:0.83520001;stroke-linecap:butt;stroke-linejoin:miter;stroke-miterlimit:10;stroke-dasharray:none;stroke-opacity:1"
           d="m 66.301,88.113 -2.504,1.254 0,-2.508 2.504,1.254 z" /></g><g
         transform="matrix(1,0,0,-1,0,208.08716)"
         id="g114"><path
           id="path116"
           style="fill:none;stroke:#000000;stroke-width:0.83520001;stroke-linecap:butt;stroke-linejoin:miter;stroke-miterlimit:10;stroke-dasharray:none;stroke-opacity:1"
           d="m 17.121,92.289 c 0,2.785 1.391,4.176 4.176,4.176 2.785,0 4.176,-1.391 4.176,-4.176 0,-2.785 -1.637,-4.176 -4.914,-4.176" /></g><g
         transform="matrix(1,0,0,-1,0,208.08716)"
         id="g118"><path
           id="path120"
           style="fill:#000000;fill-opacity:1;fill-rule:nonzero;stroke:#000000;stroke-width:0.83520001;stroke-linecap:butt;stroke-linejoin:miter;stroke-miterlimit:10;stroke-dasharray:none;stroke-opacity:1"
           d="m 18.055,88.113 2.504,-1.254 0,2.508 -2.504,-1.254 z" /></g><g
         transform="matrix(1,0,0,-1,0,208.08716)"
         id="g122"><path
           id="path124"
           style="fill:none;stroke:#000000;stroke-width:0.83520001;stroke-linecap:butt;stroke-linejoin:miter;stroke-miterlimit:4;stroke-dasharray:none;stroke-opacity:1"
           d="m 212.586,104.816 147.773,0 c 1.868,0 3.371,1.504 3.371,3.372 l 0,43.374 c 0,1.864 -1.503,3.368 -3.371,3.368 l -147.773,0 c -1.867,0 -3.367,-1.504 -3.367,-3.368 l 0,-43.374 c 0,-1.868 1.5,-3.372 3.367,-3.372 z" /></g><path
         id="path126"
         style="fill:#000000;fill-opacity:1;fill-rule:nonzero;stroke:none"
         d="m 273.742,80.65 -1.906,3.14 -2.031,0 0,-3.14 -1.735,0 0,8.25 4.125,0 c 0.52,0 0.973,-0.059 1.36,-0.172 0.383,-0.117 0.703,-0.281 0.953,-0.5 0.258,-0.211 0.453,-0.465 0.578,-0.766 0.133,-0.305 0.203,-0.64 0.203,-1.015 0,-0.313 -0.047,-0.602 -0.141,-0.86 -0.093,-0.25 -0.226,-0.476 -0.39,-0.672 -0.156,-0.199 -0.352,-0.367 -0.578,-0.5 -0.219,-0.136 -0.461,-0.234 -0.719,-0.297 l 2.234,-3.468 -1.953,0 z m -0.203,5.718 c 0,0.407 -0.133,0.707 -0.391,0.907 -0.261,0.195 -0.636,0.297 -1.125,0.297 l -2.218,0 0,-2.438 2.265,0 c 0.258,0 0.477,0.023 0.657,0.078 0.187,0.063 0.335,0.149 0.453,0.266 0.125,0.113 0.211,0.242 0.265,0.39 0.063,0.157 0.094,0.321 0.094,0.5 z" /><path
         id="path128"
         style="fill:#000000;fill-opacity:1;fill-rule:nonzero;stroke:none"
         d="m 282.582,83.822 c 0,-0.481 -0.07,-0.922 -0.203,-1.329 -0.137,-0.398 -0.34,-0.742 -0.609,-1.031 -0.262,-0.293 -0.594,-0.523 -1,-0.687 -0.407,-0.164 -0.875,-0.25 -1.407,-0.25 -0.523,0 -0.98,0.078 -1.375,0.234 -0.386,0.164 -0.715,0.395 -0.984,0.688 -0.274,0.289 -0.477,0.632 -0.609,1.031 -0.137,0.406 -0.204,0.851 -0.204,1.344 0,0.476 0.063,0.914 0.188,1.312 0.133,0.406 0.332,0.754 0.594,1.047 0.269,0.289 0.601,0.516 1,0.672 0.406,0.164 0.879,0.25 1.422,0.25 0.57,0 1.054,-0.086 1.453,-0.25 0.406,-0.156 0.734,-0.383 0.984,-0.672 0.258,-0.293 0.445,-0.641 0.563,-1.047 0.125,-0.398 0.187,-0.836 0.187,-1.312 z m -1.719,0 c 0,0.757 -0.125,1.304 -0.375,1.64 -0.242,0.344 -0.593,0.516 -1.062,0.516 -0.492,0 -0.867,-0.172 -1.125,-0.516 -0.25,-0.344 -0.375,-0.89 -0.375,-1.64 0,-0.375 0.031,-0.704 0.094,-0.985 0.07,-0.273 0.171,-0.496 0.296,-0.672 0.125,-0.168 0.274,-0.293 0.454,-0.375 0.175,-0.086 0.367,-0.125 0.578,-0.125 0.238,0 0.453,0.039 0.64,0.125 0.188,0.082 0.344,0.207 0.469,0.375 0.133,0.176 0.234,0.399 0.297,0.672 0.07,0.281 0.109,0.61 0.109,0.985 z" /><path
         id="path130"
         style="fill:#000000;fill-opacity:1;fill-rule:nonzero;stroke:none"
         d="m 285.262,86.993 0,-3.562 c 0,-0.242 0.019,-0.465 0.062,-0.672 0.039,-0.211 0.102,-0.387 0.188,-0.531 0.093,-0.149 0.207,-0.262 0.343,-0.344 0.145,-0.086 0.321,-0.125 0.532,-0.125 0.195,0 0.375,0.039 0.531,0.125 0.164,0.094 0.305,0.219 0.422,0.375 0.125,0.164 0.219,0.359 0.281,0.578 0.063,0.227 0.094,0.477 0.094,0.75 l 0,3.406 1.656,0 0,-4.921 c 0,-0.137 0,-0.278 0,-0.422 0,-0.149 0,-0.289 0,-0.422 0.008,-0.125 0.016,-0.242 0.016,-0.344 0.008,-0.105 0.019,-0.184 0.031,-0.234 l -1.578,0 c 0,0.05 -0.008,0.125 -0.016,0.218 -0.012,0.102 -0.023,0.219 -0.031,0.344 0,0.125 -0.008,0.25 -0.016,0.375 0,0.125 0,0.235 0,0.328 l -0.031,0 c -0.219,-0.48 -0.5,-0.836 -0.844,-1.062 -0.336,-0.219 -0.734,-0.328 -1.203,-0.328 -0.375,0 -0.699,0.062 -0.969,0.187 -0.261,0.133 -0.476,0.305 -0.64,0.516 -0.168,0.219 -0.289,0.472 -0.36,0.765 -0.074,0.301 -0.109,0.625 -0.109,0.969 l 0,4.031 1.641,0 z" /><path
         id="path132"
         style="fill:#000000;fill-opacity:1;fill-rule:nonzero;stroke:none"
         d="m 292.488,80.54 c -0.492,0 -0.867,0.129 -1.125,0.391 -0.261,0.269 -0.39,0.672 -0.39,1.203 l 0,3.75 -0.813,0 0,1.109 0.891,0 0.515,1.485 1.032,0 0,-1.485 1.203,0 0,-1.109 -1.203,0 0,-3.297 c 0,-0.312 0.054,-0.543 0.172,-0.687 0.125,-0.149 0.304,-0.219 0.546,-0.219 0.102,0 0.196,0.004 0.282,0.016 0.082,0.019 0.172,0.039 0.265,0.062 l 0,-1.016 c -0.199,-0.062 -0.414,-0.109 -0.64,-0.14 -0.231,-0.039 -0.477,-0.063 -0.735,-0.063 z" /><path
         id="path134"
         style="fill:#000000;fill-opacity:1;fill-rule:nonzero;stroke:none"
         d="m 297.363,80.525 c -0.461,0 -0.871,0.07 -1.234,0.203 -0.367,0.133 -0.68,0.336 -0.938,0.609 -0.261,0.281 -0.461,0.629 -0.593,1.047 -0.137,0.414 -0.203,0.906 -0.203,1.469 0,0.601 0.078,1.109 0.234,1.515 0.164,0.414 0.383,0.754 0.656,1.016 0.281,0.258 0.598,0.441 0.953,0.547 0.364,0.113 0.742,0.172 1.141,0.172 0.5,0 0.926,-0.09 1.281,-0.266 0.352,-0.168 0.645,-0.406 0.875,-0.719 0.227,-0.312 0.395,-0.687 0.5,-1.125 0.102,-0.437 0.156,-0.918 0.156,-1.437 l 0,-0.047 -4.062,0 c 0,-0.273 0.019,-0.523 0.062,-0.75 0.051,-0.23 0.129,-0.43 0.235,-0.594 0.101,-0.168 0.238,-0.297 0.406,-0.39 0.164,-0.094 0.367,-0.141 0.609,-0.141 0.289,0 0.524,0.063 0.704,0.188 0.187,0.125 0.32,0.312 0.406,0.562 l 1.547,-0.125 c -0.075,-0.18 -0.172,-0.371 -0.297,-0.578 -0.125,-0.199 -0.297,-0.387 -0.516,-0.563 -0.211,-0.168 -0.469,-0.308 -0.781,-0.421 -0.313,-0.114 -0.695,-0.172 -1.141,-0.172 z m 0,5.547 c -0.168,0 -0.324,-0.032 -0.468,-0.094 -0.149,-0.055 -0.278,-0.141 -0.391,-0.266 -0.106,-0.125 -0.195,-0.289 -0.266,-0.484 -0.062,-0.188 -0.101,-0.418 -0.109,-0.688 l 2.469,0 c -0.032,0.508 -0.157,0.891 -0.375,1.141 -0.211,0.258 -0.496,0.391 -0.86,0.391 z" /><path
         id="path136"
         style="fill:#000000;fill-opacity:1;fill-rule:nonzero;stroke:none"
         d="m 301.277,80.65 0,4.859 c 0,0.133 -0.007,0.273 -0.015,0.422 0,0.156 -0.008,0.301 -0.016,0.437 0,0.145 -0.008,0.27 -0.016,0.375 0,0.114 0,0.196 0,0.25 l 1.563,0 c 0.008,-0.054 0.016,-0.136 0.016,-0.25 0.007,-0.117 0.019,-0.242 0.031,-0.375 0.008,-0.136 0.015,-0.273 0.015,-0.406 0.008,-0.137 0.016,-0.246 0.016,-0.328 l 0.031,0 c 0.071,0.227 0.149,0.43 0.235,0.609 0.082,0.188 0.179,0.344 0.297,0.469 0.113,0.133 0.25,0.235 0.406,0.297 0.156,0.07 0.348,0.109 0.578,0.109 0.094,0 0.187,-0.011 0.281,-0.031 0.094,-0.023 0.164,-0.043 0.219,-0.062 l 0,-1.375 c -0.106,0.019 -0.211,0.039 -0.313,0.062 -0.105,0.02 -0.234,0.031 -0.39,0.031 -0.406,0 -0.727,-0.168 -0.953,-0.5 -0.231,-0.336 -0.344,-0.828 -0.344,-1.484 l 0,-3.109 -1.641,0 z" /><path
         id="path138"
         style="fill:#000000;fill-opacity:1;fill-rule:nonzero;stroke:none"
         d="m 258.008,66.45 0,5 c 0,0.196 0,0.399 0,0.61 0.008,0.219 0.019,0.414 0.031,0.594 0.008,0.207 0.02,0.406 0.031,0.593 -0.086,-0.304 -0.164,-0.593 -0.234,-0.875 -0.031,-0.117 -0.07,-0.234 -0.109,-0.359 -0.032,-0.125 -0.063,-0.25 -0.094,-0.375 -0.031,-0.117 -0.063,-0.227 -0.094,-0.328 -0.031,-0.094 -0.059,-0.18 -0.078,-0.25 l -1.5,-4.61 -1.219,0 -1.5,4.61 c -0.023,0.07 -0.047,0.156 -0.078,0.25 -0.031,0.101 -0.062,0.211 -0.094,0.328 -0.031,0.125 -0.07,0.25 -0.109,0.375 -0.031,0.125 -0.063,0.242 -0.094,0.359 -0.086,0.282 -0.168,0.571 -0.25,0.875 0.008,-0.218 0.02,-0.437 0.031,-0.656 0.008,-0.187 0.02,-0.387 0.032,-0.594 0.008,-0.211 0.015,-0.39 0.015,-0.547 l 0,-5 -1.547,0 0,8.25 2.329,0 1.468,-4.609 c 0.039,-0.125 0.082,-0.277 0.125,-0.453 0.039,-0.168 0.086,-0.336 0.141,-0.5 0.039,-0.199 0.086,-0.398 0.141,-0.594 0.062,0.196 0.113,0.391 0.156,0.578 0.031,0.082 0.054,0.164 0.078,0.25 0.019,0.082 0.039,0.164 0.062,0.25 0.032,0.082 0.055,0.16 0.079,0.235 0.019,0.07 0.039,0.14 0.062,0.203 l 1.453,4.64 2.297,0 0,-8.25 -1.531,0 z" /><path
         id="path140"
         style="fill:#000000;fill-opacity:1;fill-rule:nonzero;stroke:none"
         d="m 266.742,66.45 -0.734,2.11 -3.141,0 -0.734,-2.11 -1.735,0 3.016,8.25 2.031,0 3,-8.25 -1.703,0 z m -1.937,5.782 c -0.043,0.133 -0.09,0.269 -0.141,0.406 -0.043,0.144 -0.078,0.273 -0.109,0.391 -0.032,0.113 -0.059,0.207 -0.078,0.281 -0.024,0.07 -0.039,0.113 -0.047,0.125 0,-0.012 -0.012,-0.055 -0.032,-0.125 -0.023,-0.074 -0.046,-0.168 -0.078,-0.281 -0.031,-0.118 -0.074,-0.247 -0.125,-0.391 -0.043,-0.137 -0.086,-0.273 -0.125,-0.406 l -0.828,-2.375 2.375,0 -0.812,2.375 z" /><path
         id="path142"
         style="fill:#000000;fill-opacity:1;fill-rule:nonzero;stroke:none"
         d="m 276.082,68.825 c 0,-0.375 -0.07,-0.718 -0.203,-1.031 -0.137,-0.304 -0.352,-0.562 -0.641,-0.781 -0.281,-0.219 -0.648,-0.391 -1.093,-0.516 -0.45,-0.113 -0.981,-0.172 -1.594,-0.172 -0.555,0 -1.039,0.047 -1.453,0.141 -0.418,0.102 -0.778,0.25 -1.078,0.438 -0.293,0.195 -0.532,0.437 -0.719,0.718 -0.188,0.282 -0.324,0.61 -0.406,0.985 l 1.671,0.265 c 0.051,-0.179 0.118,-0.343 0.204,-0.5 0.093,-0.156 0.218,-0.293 0.375,-0.406 0.156,-0.105 0.351,-0.187 0.593,-0.25 0.239,-0.062 0.524,-0.094 0.86,-0.094 0.582,0 1.031,0.086 1.343,0.266 0.313,0.187 0.469,0.469 0.469,0.844 0,0.226 -0.062,0.41 -0.187,0.547 -0.125,0.144 -0.293,0.265 -0.5,0.359 -0.211,0.094 -0.45,0.172 -0.719,0.234 -0.274,0.063 -0.555,0.125 -0.844,0.188 -0.23,0.051 -0.465,0.109 -0.703,0.172 -0.23,0.062 -0.453,0.129 -0.672,0.203 -0.211,0.082 -0.406,0.18 -0.594,0.297 -0.187,0.113 -0.351,0.254 -0.484,0.422 -0.125,0.164 -0.23,0.359 -0.312,0.578 -0.075,0.226 -0.11,0.492 -0.11,0.797 0,0.406 0.078,0.753 0.235,1.046 0.164,0.29 0.394,0.532 0.687,0.719 0.289,0.188 0.641,0.321 1.047,0.406 0.406,0.082 0.844,0.125 1.312,0.125 0.539,0 1.004,-0.043 1.391,-0.125 0.383,-0.085 0.707,-0.214 0.969,-0.39 0.258,-0.168 0.461,-0.383 0.609,-0.641 0.156,-0.262 0.266,-0.562 0.328,-0.906 l -1.672,-0.234 c -0.086,0.351 -0.261,0.617 -0.531,0.796 -0.262,0.188 -0.637,0.282 -1.125,0.282 -0.305,0 -0.558,-0.028 -0.765,-0.078 -0.2,-0.055 -0.36,-0.125 -0.485,-0.219 -0.117,-0.086 -0.199,-0.188 -0.25,-0.313 -0.043,-0.117 -0.062,-0.242 -0.062,-0.375 0,-0.211 0.047,-0.382 0.14,-0.515 0.094,-0.125 0.227,-0.235 0.407,-0.328 0.175,-0.086 0.382,-0.157 0.625,-0.219 0.25,-0.055 0.519,-0.11 0.812,-0.172 0.258,-0.055 0.516,-0.109 0.766,-0.172 0.257,-0.062 0.504,-0.137 0.734,-0.219 0.227,-0.086 0.441,-0.183 0.641,-0.297 0.195,-0.117 0.367,-0.261 0.515,-0.437 0.145,-0.168 0.258,-0.371 0.344,-0.609 0.082,-0.231 0.125,-0.508 0.125,-0.829 z" /><path
         id="path144"
         style="fill:#000000;fill-opacity:1;fill-rule:nonzero;stroke:none"
         d="m 280.895,73.372 0,-6.922 -1.735,0 0,6.922 -2.656,0 0,1.328 7.062,0 0,-1.328 -2.671,0 z" /><path
         id="path146"
         style="fill:#000000;fill-opacity:1;fill-rule:nonzero;stroke:none"
         d="m 284.309,66.45 0,8.25 6.5,0 0,-1.328 -4.766,0 0,-2.078 4.406,0 0,-1.328 -4.406,0 0,-2.172 5,0 0,-1.344 -6.734,0 z" /><path
         id="path148"
         style="fill:#000000;fill-opacity:1;fill-rule:nonzero;stroke:none"
         d="m 297.789,66.45 -1.906,3.141 -2.031,0 0,-3.141 -1.735,0 0,8.25 4.125,0 c 0.52,0 0.973,-0.058 1.36,-0.171 0.382,-0.118 0.703,-0.282 0.953,-0.5 0.257,-0.211 0.453,-0.465 0.578,-0.766 0.133,-0.305 0.203,-0.641 0.203,-1.016 0,-0.312 -0.047,-0.601 -0.141,-0.859 -0.093,-0.25 -0.226,-0.477 -0.39,-0.672 -0.157,-0.199 -0.352,-0.367 -0.578,-0.5 -0.219,-0.137 -0.461,-0.234 -0.719,-0.297 l 2.234,-3.469 -1.953,0 z m -0.203,5.719 c 0,0.406 -0.133,0.707 -0.391,0.906 -0.261,0.196 -0.636,0.297 -1.125,0.297 l -2.218,0 0,-2.437 2.265,0 c 0.258,0 0.477,0.023 0.656,0.078 0.188,0.062 0.336,0.148 0.454,0.266 0.125,0.113 0.211,0.242 0.265,0.39 0.063,0.156 0.094,0.321 0.094,0.5 z" /><path
         id="path150"
         style="fill:#000000;fill-opacity:1;fill-rule:nonzero;stroke:none"
         d="m 299.645,65.435 6.906,0 0,-0.453 -6.906,0 0,0.453 z" /><path
         id="path152"
         style="fill:#000000;fill-opacity:1;fill-rule:nonzero;stroke:none"
         d="m 313.812,68.825 c 0,-0.375 -0.07,-0.718 -0.203,-1.031 -0.136,-0.304 -0.351,-0.562 -0.64,-0.781 -0.281,-0.219 -0.649,-0.391 -1.094,-0.516 -0.449,-0.113 -0.98,-0.172 -1.594,-0.172 -0.554,0 -1.039,0.047 -1.453,0.141 -0.418,0.102 -0.777,0.25 -1.078,0.438 -0.293,0.195 -0.531,0.437 -0.719,0.718 -0.187,0.282 -0.324,0.61 -0.406,0.985 l 1.672,0.265 c 0.051,-0.179 0.117,-0.343 0.203,-0.5 0.094,-0.156 0.219,-0.293 0.375,-0.406 0.156,-0.105 0.352,-0.187 0.594,-0.25 0.238,-0.062 0.523,-0.094 0.859,-0.094 0.582,0 1.031,0.086 1.344,0.266 0.312,0.187 0.469,0.469 0.469,0.844 0,0.226 -0.063,0.41 -0.188,0.547 -0.125,0.144 -0.293,0.265 -0.5,0.359 -0.211,0.094 -0.449,0.172 -0.719,0.234 -0.273,0.063 -0.554,0.125 -0.843,0.188 -0.231,0.051 -0.465,0.109 -0.703,0.172 -0.231,0.062 -0.454,0.129 -0.672,0.203 -0.211,0.082 -0.407,0.18 -0.594,0.297 -0.188,0.113 -0.352,0.254 -0.484,0.422 -0.126,0.164 -0.231,0.359 -0.313,0.578 -0.074,0.226 -0.109,0.492 -0.109,0.797 0,0.406 0.078,0.753 0.234,1.046 0.164,0.29 0.395,0.532 0.688,0.719 0.289,0.188 0.64,0.321 1.046,0.406 0.407,0.082 0.844,0.125 1.313,0.125 0.539,0 1.004,-0.043 1.391,-0.125 0.382,-0.085 0.707,-0.214 0.968,-0.39 0.258,-0.168 0.461,-0.383 0.61,-0.641 0.156,-0.262 0.265,-0.562 0.328,-0.906 l -1.672,-0.234 c -0.086,0.351 -0.262,0.617 -0.531,0.796 -0.262,0.188 -0.637,0.282 -1.125,0.282 -0.305,0 -0.559,-0.028 -0.766,-0.078 -0.199,-0.055 -0.359,-0.125 -0.484,-0.219 -0.118,-0.086 -0.2,-0.188 -0.25,-0.313 -0.043,-0.117 -0.063,-0.242 -0.063,-0.375 0,-0.211 0.047,-0.382 0.141,-0.515 0.094,-0.125 0.226,-0.235 0.406,-0.328 0.176,-0.086 0.383,-0.157 0.625,-0.219 0.25,-0.055 0.52,-0.11 0.813,-0.172 0.257,-0.055 0.515,-0.109 0.765,-0.172 0.258,-0.062 0.504,-0.137 0.735,-0.219 0.226,-0.086 0.441,-0.183 0.64,-0.297 0.195,-0.117 0.367,-0.261 0.516,-0.437 0.144,-0.168 0.258,-0.371 0.344,-0.609 0.082,-0.231 0.124,-0.508 0.124,-0.829 z" /><path
         id="path154"
         style="fill:#000000;fill-opacity:1;fill-rule:nonzero;stroke:none"
         d="m 314.887,66.45 0,8.25 6.5,0 0,-1.328 -4.766,0 0,-2.078 4.406,0 0,-1.328 -4.406,0 0,-2.172 5,0 0,-1.344 -6.734,0 z" /><g
         transform="matrix(1,0,0,-1,0,208.08716)"
         id="g156"><path
           id="path158"
           style="fill:none;stroke:#000000;stroke-width:0.83520001;stroke-linecap:butt;stroke-linejoin:miter;stroke-miterlimit:10;stroke-dasharray:none;stroke-opacity:1"
           d="m 227.488,75.586 10.961,29.23" /></g><g
         transform="matrix(1,0,0,-1,0,208.08716)"
         id="g160"><path
           id="path162"
           style="fill:none;stroke:#000000;stroke-width:0.83520001;stroke-linecap:butt;stroke-linejoin:miter;stroke-miterlimit:10;stroke-dasharray:none;stroke-opacity:1"
           d="m 334.496,104.816 10.965,-29.23" /></g><g
         transform="matrix(1,0,0,-1,0,208.08716)"
         id="g164"><path
           id="path166"
           style="fill:none;stroke:#000000;stroke-width:0.69599998;stroke-linecap:butt;stroke-linejoin:miter;stroke-miterlimit:4;stroke-dasharray:none;stroke-opacity:1"
           d="m 230.098,71.41 c 0,2.305 -1.871,4.176 -4.176,4.176 -2.305,0 -4.176,-1.871 -4.176,-4.176 0,-2.308 1.871,-4.176 4.176,-4.176 2.305,0 4.176,1.868 4.176,4.176 z" /></g><g
         transform="matrix(1,0,0,-1,0,208.08716)"
         id="g168"><path
           id="path170"
           style="fill:none;stroke:#000000;stroke-width:0.69599998;stroke-linecap:butt;stroke-linejoin:miter;stroke-miterlimit:4;stroke-dasharray:none;stroke-opacity:1"
           d="m 351.203,71.41 c 0,2.305 -1.871,4.176 -4.176,4.176 -2.308,0 -4.179,-1.871 -4.179,-4.176 0,-2.308 1.871,-4.176 4.179,-4.176 2.305,0 4.176,1.868 4.176,4.176 z" /></g><g
         transform="matrix(1,0,0,-1,0,208.08716)"
         id="g172"><path
           id="path174"
           style="fill:none;stroke:#000000;stroke-width:0.69599998;stroke-linecap:butt;stroke-linejoin:miter;stroke-miterlimit:4;stroke-dasharray:none;stroke-opacity:1"
           d="m 497.703,12.945 112.07,0 c 4.817,0 8.692,3.879 8.692,8.692 l 0,112.07 c 0,4.816 -3.875,8.695 -8.692,8.695 l -112.07,0 c -4.816,0 -8.695,-3.879 -8.695,-8.695 l 0,-112.07 c 0,-4.813 3.879,-8.692 8.695,-8.692 z" /></g><path
         id="path176"
         style="fill:#000000;fill-opacity:1;fill-rule:nonzero;stroke:none"
         d="m 531.586,125.751 -1.906,3.141 -2.032,0 0,-3.141 -1.734,0 0,8.25 4.125,0 c 0.52,0 0.973,-0.058 1.359,-0.172 0.383,-0.117 0.704,-0.281 0.954,-0.5 0.257,-0.211 0.453,-0.464 0.578,-0.765 0.132,-0.305 0.203,-0.641 0.203,-1.016 0,-0.312 -0.047,-0.601 -0.141,-0.859 -0.094,-0.25 -0.226,-0.477 -0.39,-0.672 -0.157,-0.199 -0.352,-0.367 -0.579,-0.5 -0.218,-0.137 -0.461,-0.235 -0.718,-0.297 l 2.234,-3.469 -1.953,0 z m -0.203,5.719 c 0,0.406 -0.133,0.707 -0.391,0.906 -0.262,0.196 -0.637,0.297 -1.125,0.297 l -2.219,0 0,-2.437 2.266,0 c 0.258,0 0.477,0.023 0.656,0.078 0.188,0.062 0.336,0.148 0.453,0.265 0.125,0.114 0.211,0.243 0.266,0.391 0.063,0.156 0.094,0.32 0.094,0.5 z" /><path
         id="path178"
         style="fill:#000000;fill-opacity:1;fill-rule:nonzero;stroke:none"
         d="m 540.426,128.923 c 0,-0.48 -0.071,-0.922 -0.203,-1.328 -0.137,-0.398 -0.34,-0.742 -0.61,-1.031 -0.261,-0.293 -0.593,-0.524 -1,-0.688 -0.406,-0.164 -0.875,-0.25 -1.406,-0.25 -0.523,0 -0.98,0.078 -1.375,0.235 -0.387,0.164 -0.715,0.394 -0.984,0.687 -0.274,0.289 -0.477,0.633 -0.61,1.031 -0.136,0.407 -0.203,0.852 -0.203,1.344 0,0.477 0.063,0.914 0.188,1.313 0.132,0.406 0.332,0.754 0.593,1.046 0.27,0.29 0.602,0.516 1,0.672 0.407,0.164 0.879,0.25 1.422,0.25 0.571,0 1.055,-0.086 1.453,-0.25 0.407,-0.156 0.735,-0.382 0.985,-0.672 0.258,-0.292 0.445,-0.64 0.562,-1.046 0.125,-0.399 0.188,-0.836 0.188,-1.313 z m -1.719,0 c 0,0.758 -0.125,1.305 -0.375,1.641 -0.242,0.343 -0.594,0.515 -1.062,0.515 -0.493,0 -0.868,-0.172 -1.125,-0.515 -0.25,-0.344 -0.375,-0.891 -0.375,-1.641 0,-0.375 0.031,-0.703 0.093,-0.984 0.071,-0.274 0.172,-0.496 0.297,-0.672 0.125,-0.168 0.274,-0.293 0.453,-0.375 0.176,-0.086 0.367,-0.125 0.578,-0.125 0.239,0 0.454,0.039 0.641,0.125 0.188,0.082 0.344,0.207 0.469,0.375 0.133,0.176 0.234,0.398 0.297,0.672 0.07,0.281 0.109,0.609 0.109,0.984 z" /><path
         id="path180"
         style="fill:#000000;fill-opacity:1;fill-rule:nonzero;stroke:none"
         d="m 547.559,128.939 c 0,-0.481 -0.055,-0.922 -0.157,-1.328 -0.093,-0.399 -0.242,-0.746 -0.437,-1.047 -0.199,-0.293 -0.453,-0.524 -0.766,-0.688 -0.304,-0.164 -0.664,-0.25 -1.078,-0.25 -0.187,0 -0.375,0.024 -0.562,0.063 -0.188,0.043 -0.368,0.101 -0.532,0.187 -0.168,0.094 -0.324,0.211 -0.468,0.36 -0.137,0.144 -0.258,0.32 -0.36,0.531 l -0.015,0 c 0,-0.086 -0.008,-0.18 -0.016,-0.281 0,-0.106 -0.008,-0.211 -0.016,-0.313 0,-0.094 -0.007,-0.183 -0.015,-0.266 -0.012,-0.074 -0.024,-0.125 -0.032,-0.156 l -1.593,0 c 0.008,0.133 0.019,0.328 0.031,0.578 0.008,0.258 0.016,0.551 0.016,0.875 l 0,7.25 1.64,0 0,-2.437 c 0,-0.125 0,-0.25 0,-0.375 0,-0.117 -0.008,-0.219 -0.015,-0.313 0,-0.125 0,-0.242 0,-0.343 l 0.015,0 c 0.196,0.437 0.469,0.75 0.813,0.937 0.351,0.188 0.758,0.281 1.218,0.281 0.407,0 0.754,-0.086 1.047,-0.25 0.289,-0.156 0.532,-0.382 0.719,-0.672 0.188,-0.292 0.328,-0.636 0.422,-1.031 0.094,-0.398 0.141,-0.836 0.141,-1.312 z m -1.719,0 c 0,0.718 -0.11,1.25 -0.328,1.593 -0.211,0.352 -0.532,0.532 -0.969,0.532 -0.168,0 -0.336,-0.039 -0.5,-0.11 -0.168,-0.062 -0.313,-0.179 -0.438,-0.343 -0.125,-0.157 -0.23,-0.375 -0.312,-0.657 -0.074,-0.281 -0.109,-0.636 -0.109,-1.062 0,-0.418 0.035,-0.762 0.109,-1.031 0.082,-0.274 0.187,-0.493 0.312,-0.657 0.125,-0.168 0.266,-0.281 0.422,-0.343 0.164,-0.063 0.332,-0.094 0.5,-0.094 0.414,0 0.739,0.172 0.969,0.515 0.227,0.344 0.344,0.895 0.344,1.657 z" /><path
         id="path182"
         style="fill:#000000;fill-opacity:1;fill-rule:nonzero;stroke:none"
         d="m 554.723,128.923 c 0,-0.48 -0.071,-0.922 -0.203,-1.328 -0.137,-0.398 -0.34,-0.742 -0.61,-1.031 -0.262,-0.293 -0.594,-0.524 -1,-0.688 -0.406,-0.164 -0.875,-0.25 -1.406,-0.25 -0.524,0 -0.981,0.078 -1.375,0.235 -0.387,0.164 -0.715,0.394 -0.984,0.687 -0.274,0.289 -0.477,0.633 -0.61,1.031 -0.137,0.407 -0.203,0.852 -0.203,1.344 0,0.477 0.063,0.914 0.188,1.313 0.132,0.406 0.332,0.754 0.593,1.046 0.27,0.29 0.602,0.516 1,0.672 0.407,0.164 0.879,0.25 1.422,0.25 0.57,0 1.055,-0.086 1.453,-0.25 0.407,-0.156 0.735,-0.382 0.985,-0.672 0.257,-0.292 0.445,-0.64 0.562,-1.046 0.125,-0.399 0.188,-0.836 0.188,-1.313 z m -1.719,0 c 0,0.758 -0.125,1.305 -0.375,1.641 -0.242,0.343 -0.594,0.515 -1.063,0.515 -0.492,0 -0.867,-0.172 -1.125,-0.515 -0.25,-0.344 -0.375,-0.891 -0.375,-1.641 0,-0.375 0.032,-0.703 0.094,-0.984 0.07,-0.274 0.172,-0.496 0.297,-0.672 0.125,-0.168 0.273,-0.293 0.453,-0.375 0.176,-0.086 0.367,-0.125 0.578,-0.125 0.239,0 0.453,0.039 0.641,0.125 0.187,0.082 0.344,0.207 0.469,0.375 0.132,0.176 0.234,0.398 0.297,0.672 0.07,0.281 0.109,0.609 0.109,0.984 z" /><path
         id="path184"
         style="fill:#000000;fill-opacity:1;fill-rule:nonzero;stroke:none"
         d="m 557.48,125.642 c -0.492,0 -0.867,0.129 -1.125,0.39 -0.261,0.27 -0.39,0.672 -0.39,1.204 l 0,3.75 -0.813,0 0,1.109 0.891,0 0.516,1.484 1.031,0 0,-1.484 1.203,0 0,-1.109 -1.203,0 0,-3.297 c 0,-0.313 0.055,-0.543 0.172,-0.688 0.125,-0.148 0.304,-0.219 0.547,-0.219 0.101,0 0.195,0.004 0.281,0.016 0.082,0.02 0.172,0.039 0.265,0.063 l 0,-1.016 c -0.199,-0.063 -0.414,-0.109 -0.64,-0.141 -0.231,-0.039 -0.477,-0.062 -0.735,-0.062 z" /><path
         id="path186"
         style="fill:#000000;fill-opacity:1;fill-rule:nonzero;stroke:none"
         d="m 566.816,127.001 c 0.321,0 0.602,0.039 0.844,0.125 0.238,0.094 0.442,0.211 0.61,0.36 0.175,0.156 0.32,0.328 0.437,0.515 0.113,0.188 0.207,0.375 0.281,0.563 l 1.516,-0.563 c -0.125,-0.304 -0.289,-0.601 -0.484,-0.89 -0.188,-0.282 -0.434,-0.532 -0.735,-0.75 -0.293,-0.219 -0.64,-0.399 -1.047,-0.532 -0.398,-0.132 -0.871,-0.203 -1.422,-0.203 -0.711,0 -1.328,0.106 -1.859,0.313 -0.523,0.218 -0.953,0.519 -1.297,0.906 -0.344,0.383 -0.601,0.836 -0.765,1.359 -0.157,0.52 -0.235,1.094 -0.235,1.719 0,0.645 0.078,1.223 0.235,1.734 0.164,0.52 0.414,0.961 0.75,1.329 0.343,0.363 0.769,0.644 1.281,0.843 0.519,0.196 1.125,0.297 1.812,0.297 0.539,0 1.016,-0.058 1.422,-0.172 0.406,-0.105 0.754,-0.261 1.047,-0.468 0.289,-0.211 0.531,-0.454 0.719,-0.735 0.195,-0.273 0.351,-0.578 0.469,-0.922 l -1.532,-0.406 c -0.054,0.176 -0.136,0.344 -0.25,0.5 -0.117,0.164 -0.261,0.313 -0.437,0.438 -0.168,0.125 -0.371,0.222 -0.61,0.296 -0.23,0.071 -0.492,0.11 -0.781,0.11 -0.43,0 -0.793,-0.07 -1.094,-0.203 -0.293,-0.137 -0.539,-0.328 -0.734,-0.578 -0.187,-0.25 -0.328,-0.555 -0.422,-0.907 -0.094,-0.343 -0.14,-0.73 -0.14,-1.156 0,-0.437 0.046,-0.836 0.14,-1.187 0.094,-0.356 0.235,-0.664 0.422,-0.922 0.195,-0.262 0.445,-0.465 0.75,-0.61 0.313,-0.136 0.68,-0.203 1.109,-0.203 z" /><path
         id="path188"
         style="fill:#000000;fill-opacity:1;fill-rule:nonzero;stroke:none"
         d="m 572.906,125.626 c -0.304,0 -0.574,0.043 -0.812,0.125 -0.242,0.094 -0.446,0.219 -0.61,0.375 -0.168,0.164 -0.296,0.367 -0.39,0.61 -0.086,0.238 -0.125,0.507 -0.125,0.812 0,0.375 0.062,0.688 0.187,0.938 0.133,0.257 0.313,0.468 0.532,0.625 0.226,0.156 0.492,0.269 0.796,0.343 0.313,0.071 0.641,0.114 0.985,0.125 l 1.359,0.016 0,0.328 c 0,0.227 -0.023,0.414 -0.062,0.563 -0.043,0.156 -0.106,0.281 -0.188,0.375 -0.074,0.101 -0.168,0.175 -0.281,0.218 -0.117,0.039 -0.246,0.063 -0.391,0.063 -0.136,0 -0.261,-0.016 -0.375,-0.047 -0.105,-0.023 -0.199,-0.07 -0.281,-0.141 -0.074,-0.062 -0.137,-0.152 -0.188,-0.265 -0.042,-0.117 -0.074,-0.262 -0.093,-0.438 l -1.719,0.078 c 0.039,0.282 0.125,0.532 0.25,0.75 0.125,0.227 0.297,0.426 0.516,0.594 0.226,0.176 0.504,0.305 0.828,0.391 0.32,0.093 0.695,0.14 1.125,0.14 0.394,0 0.742,-0.047 1.047,-0.14 0.312,-0.094 0.578,-0.242 0.796,-0.438 0.219,-0.199 0.379,-0.437 0.485,-0.719 0.113,-0.281 0.172,-0.605 0.172,-0.968 l 0,-2.313 c 0,-0.148 0.004,-0.281 0.015,-0.406 0.02,-0.117 0.047,-0.215 0.078,-0.297 0.04,-0.074 0.094,-0.133 0.157,-0.172 0.07,-0.043 0.164,-0.062 0.281,-0.062 0.125,0 0.242,0.008 0.359,0.031 l 0,-0.891 c -0.093,-0.023 -0.183,-0.043 -0.265,-0.062 -0.074,-0.02 -0.153,-0.035 -0.235,-0.047 -0.074,-0.008 -0.156,-0.02 -0.25,-0.031 -0.086,-0.008 -0.183,-0.016 -0.297,-0.016 -0.417,0 -0.726,0.102 -0.921,0.313 -0.2,0.207 -0.321,0.504 -0.36,0.89 l -0.031,0 c -0.219,-0.386 -0.5,-0.695 -0.844,-0.922 -0.344,-0.218 -0.761,-0.328 -1.25,-0.328 z m 1.922,3.063 -0.844,-0.016 c -0.179,-0.012 -0.343,-0.027 -0.5,-0.047 -0.156,-0.023 -0.296,-0.07 -0.422,-0.14 -0.117,-0.063 -0.21,-0.164 -0.281,-0.297 -0.074,-0.125 -0.109,-0.297 -0.109,-0.516 0,-0.305 0.066,-0.527 0.203,-0.672 0.145,-0.148 0.332,-0.219 0.563,-0.219 0.207,0 0.394,0.04 0.562,0.125 0.176,0.094 0.32,0.211 0.438,0.36 0.124,0.144 0.218,0.312 0.281,0.5 0.07,0.195 0.109,0.394 0.109,0.594 l 0,0.328 z" /><path
         id="path190"
         style="fill:#000000;fill-opacity:1;fill-rule:nonzero;stroke:none"
         d="m 577.961,125.751 0,4.86 c 0,0.132 -0.008,0.273 -0.016,0.421 0,0.157 -0.007,0.301 -0.015,0.438 0,0.145 -0.008,0.27 -0.016,0.375 0,0.113 0,0.195 0,0.25 l 1.563,0 c 0.007,-0.055 0.015,-0.137 0.015,-0.25 0.008,-0.117 0.02,-0.242 0.031,-0.375 0.008,-0.137 0.016,-0.273 0.016,-0.406 0.008,-0.137 0.016,-0.246 0.016,-0.328 l 0.031,0 c 0.07,0.226 0.148,0.429 0.234,0.609 0.082,0.187 0.18,0.344 0.297,0.469 0.113,0.133 0.25,0.234 0.406,0.297 0.157,0.07 0.348,0.109 0.579,0.109 0.093,0 0.187,-0.012 0.281,-0.031 0.094,-0.024 0.164,-0.043 0.219,-0.063 l 0,-1.375 c -0.106,0.02 -0.211,0.039 -0.313,0.063 -0.105,0.019 -0.234,0.031 -0.391,0.031 -0.406,0 -0.726,-0.168 -0.953,-0.5 -0.23,-0.336 -0.343,-0.828 -0.343,-1.484 l 0,-3.11 -1.641,0 z" /><g
         transform="matrix(1,0,0,-1,0,208.08716)"
         id="g192"><path
           id="path194"
           style="fill:none;stroke:#000000;stroke-width:0.69599998;stroke-linecap:butt;stroke-linejoin:miter;stroke-miterlimit:4;stroke-dasharray:none;stroke-opacity:1"
           d="m 530.77,157.02 c 0,5.765 -4.676,10.437 -10.442,10.437 -5.766,0 -10.437,-4.672 -10.437,-10.437 0,-5.77 4.671,-10.442 10.437,-10.442 5.766,0 10.442,4.672 10.442,10.442 z" /></g><g
         transform="matrix(1,0,0,-1,0,208.08716)"
         id="g196"><path
           id="path198"
           style="fill:none;stroke:#000000;stroke-width:0.69599998;stroke-linecap:butt;stroke-linejoin:miter;stroke-miterlimit:4;stroke-dasharray:none;stroke-opacity:1"
           d="m 597.586,157.02 c 0,5.765 -4.676,10.437 -10.441,10.437 -5.766,0 -10.438,-4.672 -10.438,-10.437 0,-5.77 4.672,-10.442 10.438,-10.442 5.765,0 10.441,4.672 10.441,10.442 z" /></g><g
         transform="matrix(1,0,0,-1,0,208.08716)"
         id="g200"><path
           id="path202"
           style="fill:none;stroke:#000000;stroke-width:0.83520001;stroke-linecap:butt;stroke-linejoin:miter;stroke-miterlimit:10;stroke-dasharray:none;stroke-opacity:1"
           d="m 392.961,63.059 c 8.351,0 12.527,4.175 12.527,12.527" /></g><g
         transform="matrix(1,0,0,-1,0,208.08716)"
         id="g204"><path
           id="path206"
           style="fill:none;stroke:#000000;stroke-width:0.83520001;stroke-linecap:butt;stroke-linejoin:miter;stroke-miterlimit:10;stroke-dasharray:none;stroke-opacity:1"
           d="m 392.961,50.531 c 16.703,0 25.059,8.352 25.059,25.055" /></g><g
         transform="matrix(1,0,0,-1,0,208.08716)"
         id="g208"><path
           id="path210"
           style="fill:none;stroke:#000000;stroke-width:0.83520001;stroke-linecap:butt;stroke-linejoin:miter;stroke-miterlimit:10;stroke-dasharray:none;stroke-opacity:1"
           d="m 392.961,38 c 25.059,0 37.586,12.531 37.586,37.586" /></g><g
         transform="matrix(1,0,0,-1,0,208.08716)"
         id="g212"><path
           id="path214"
           style="fill:none;stroke:#000000;stroke-width:0.83520001;stroke-linecap:butt;stroke-linejoin:miter;stroke-miterlimit:10;stroke-dasharray:none;stroke-opacity:1"
           d="m 142.402,50.531 c 8.352,0 12.528,-4.176 12.528,-12.531" /></g><g
         transform="matrix(1,0,0,-1,0,208.08716)"
         id="g216"><path
           id="path218"
           style="fill:none;stroke:#000000;stroke-width:0.83520001;stroke-linecap:butt;stroke-linejoin:miter;stroke-miterlimit:10;stroke-dasharray:none;stroke-opacity:1"
           d="m 142.402,63.059 c 16.703,0 25.055,-8.352 25.055,-25.059" /></g><g
         transform="matrix(1,0,0,-1,0,208.08716)"
         id="g220"><path
           id="path222"
           style="fill:none;stroke:#000000;stroke-width:0.83520001;stroke-linecap:butt;stroke-linejoin:miter;stroke-miterlimit:10;stroke-dasharray:none;stroke-opacity:1"
           d="m 142.402,75.586 c 25.055,0 37.582,-12.527 37.582,-37.586" /></g></g></g></svg>