<?xml version="1.0" encoding="UTF-8" standalone="no"?>
<svg
   xmlns:dc="http://purl.org/dc/elements/1.1/"
   xmlns:cc="http://creativecommons.org/ns#"
   xmlns:rdf="http://www.w3.org/1999/02/22-rdf-syntax-ns#"
   xmlns:svg="http://www.w3.org/2000/svg"
   xmlns="http://www.w3.org/2000/svg"
   viewBox="0 0 161.12498 144.5"
   height="144.5"
   width="161.12498"
   xml:space="preserve"
   version="1.1"
   id="svg2"><metadata
     id="metadata8"><rdf:RDF><cc:Work
         rdf:about=""><dc:format>image/svg+xml</dc:format><dc:type
           rdf:resource="http://purl.org/dc/dcmitype/StillImage" /></cc:Work></rdf:RDF></metadata><defs
     id="defs6"><clipPath
       id="clipPath56"
       clipPathUnits="userSpaceOnUse"><path
         id="path58"
         d="m 0.398,102.202 128,0 0,-12.602 -128,0 0,12.602 z" /></clipPath><clipPath
       id="clipPath66"
       clipPathUnits="userSpaceOnUse"><path
         id="path68"
         d="m 93,93 7,0 0,8 -7,0 0,-8 z" /></clipPath></defs><g
     transform="matrix(1.25,0,0,-1.25,0,144.5)"
     id="g10"><g
       id="g12"><path
         id="path14"
         style="fill:#000000;fill-opacity:1;fill-rule:evenodd;stroke:none"
         d="m 0.5,115.202 127.898,0 0,-12.801 -127.898,0 0,12.801 z" /><path
         id="path16"
         style="fill:#000000;fill-opacity:1;fill-rule:evenodd;stroke:none"
         d="m 128.398,115.1 -0.5,-0.5 -126.898,0 -1,1 128.898,0 -0.5,-0.5 z" /><path
         id="path18"
         style="fill:#000000;fill-opacity:1;fill-rule:evenodd;stroke:none"
         d="m 128.398,0.6 0.5,-0.602 L 0,-0.002 0.5,0.6 1,1.1 l 126.898,0 0.5,-0.5 z" /><path
         id="path20"
         style="fill:#000000;fill-opacity:1;fill-rule:evenodd;stroke:none"
         d="M 0.5,115.1 1,114.6 1,1.1 0.5,0.6 0,-0.002 0,115.6 0.5,115.1 Z" /><path
         id="path22"
         style="fill:#000000;fill-opacity:1;fill-rule:evenodd;stroke:none"
         d="M 64.398,115.1 65,114.6 65,1.1 64.398,0.6 l -0.5,0.5 0,113.5 0.5,0.5 z" /><path
         id="path24"
         style="fill:#000000;fill-opacity:1;fill-rule:evenodd;stroke:none"
         d="m 128.398,115.1 0.5,0.5 0,-115.602 -0.5,0.602 -0.5,0.5 0,113.5 0.5,0.5 z" /><path
         id="path26"
         style="fill:#ffffff;fill-opacity:1;fill-rule:nonzero;stroke:none"
         d="m 24.387,110.936 c -0.731,0 -1.258,-0.203 -1.578,-0.609 -0.325,-0.407 -0.485,-0.961 -0.485,-1.657 0,-0.343 0.035,-0.656 0.11,-0.937 0.082,-0.274 0.203,-0.508 0.359,-0.703 0.164,-0.2 0.367,-0.356 0.609,-0.469 0.239,-0.106 0.52,-0.156 0.844,-0.156 0.164,0 0.313,0 0.438,0 0.125,0.007 0.234,0.023 0.328,0.047 l 0,2.406 1.562,0 0,-3.422 c -0.187,-0.074 -0.492,-0.152 -0.906,-0.234 -0.418,-0.082 -0.93,-0.125 -1.531,-0.125 -0.524,0 -0.996,0.078 -1.422,0.234 -0.418,0.156 -0.777,0.383 -1.078,0.687 -0.305,0.313 -0.539,0.692 -0.703,1.141 -0.157,0.445 -0.235,0.957 -0.235,1.531 0,0.582 0.086,1.098 0.266,1.547 0.187,0.445 0.437,0.82 0.75,1.125 0.312,0.313 0.676,0.547 1.094,0.703 0.425,0.164 0.879,0.25 1.359,0.25 0.32,0 0.613,-0.027 0.875,-0.078 0.269,-0.043 0.5,-0.09 0.687,-0.14 0.188,-0.055 0.344,-0.11 0.469,-0.172 0.125,-0.063 0.211,-0.11 0.266,-0.141 l -0.453,-1.25 c -0.211,0.113 -0.453,0.211 -0.735,0.297 -0.273,0.082 -0.57,0.125 -0.89,0.125 z" /><path
         id="path28"
         style="fill:#ffffff;fill-opacity:1;fill-rule:nonzero;stroke:none"
         d="m 30.074,112.217 c 1.039,0 1.836,-0.183 2.391,-0.547 0.551,-0.367 0.828,-0.961 0.828,-1.781 0,-0.836 -0.281,-1.437 -0.844,-1.812 -0.562,-0.375 -1.367,-0.563 -2.406,-0.563 l -0.484,0 0,-2.312 -1.563,0 0,6.828 c 0.344,0.07 0.703,0.117 1.078,0.14 0.383,0.032 0.719,0.047 1,0.047 z m 0.11,-1.328 c -0.118,0 -0.231,-0.008 -0.344,-0.016 -0.106,-0.011 -0.199,-0.015 -0.281,-0.015 l 0,-2 0.484,0 c 0.539,0 0.945,0.07 1.219,0.219 0.281,0.144 0.422,0.414 0.422,0.812 0,0.195 -0.039,0.359 -0.11,0.484 -0.074,0.125 -0.179,0.223 -0.312,0.297 -0.125,0.082 -0.282,0.141 -0.469,0.172 -0.188,0.031 -0.391,0.047 -0.609,0.047 z" /><path
         id="path30"
         style="fill:#ffffff;fill-opacity:1;fill-rule:nonzero;stroke:none"
         d="m 34.398,112.139 1.562,0 0,-6.938 -1.562,0 0,6.938 z" /><path
         id="path32"
         style="fill:#ffffff;fill-opacity:1;fill-rule:nonzero;stroke:none"
         d="m 38.898,108.67 c 0,-0.343 0.04,-0.652 0.125,-0.922 0.082,-0.273 0.204,-0.507 0.36,-0.703 0.156,-0.199 0.347,-0.351 0.578,-0.453 0.227,-0.105 0.488,-0.156 0.781,-0.156 0.281,0 0.535,0.051 0.766,0.156 0.226,0.102 0.422,0.254 0.578,0.453 0.164,0.196 0.289,0.43 0.375,0.703 0.082,0.27 0.125,0.579 0.125,0.922 0,0.344 -0.043,0.649 -0.125,0.922 -0.086,0.281 -0.211,0.52 -0.375,0.719 -0.156,0.195 -0.352,0.348 -0.578,0.453 -0.231,0.102 -0.485,0.156 -0.766,0.156 -0.293,0 -0.554,-0.058 -0.781,-0.172 -0.231,-0.105 -0.422,-0.257 -0.578,-0.453 -0.156,-0.199 -0.278,-0.437 -0.36,-0.718 -0.085,-0.274 -0.125,-0.575 -0.125,-0.907 z m 5.297,0 c 0,-0.593 -0.09,-1.117 -0.265,-1.562 -0.18,-0.449 -0.422,-0.828 -0.735,-1.141 -0.304,-0.305 -0.668,-0.531 -1.093,-0.687 -0.418,-0.145 -0.872,-0.219 -1.36,-0.219 -0.48,0 -0.93,0.074 -1.344,0.219 -0.418,0.156 -0.781,0.382 -1.093,0.687 -0.313,0.313 -0.563,0.692 -0.75,1.141 -0.18,0.445 -0.266,0.969 -0.266,1.562 0,0.594 0.094,1.114 0.281,1.563 0.188,0.445 0.438,0.82 0.75,1.125 0.321,0.312 0.692,0.547 1.11,0.703 0.414,0.156 0.851,0.234 1.312,0.234 0.469,0 0.91,-0.078 1.328,-0.234 0.426,-0.156 0.797,-0.391 1.11,-0.703 0.312,-0.305 0.554,-0.68 0.734,-1.125 0.188,-0.449 0.281,-0.969 0.281,-1.563 z" /><path
         id="path34"
         style="fill:#ffffff;fill-opacity:1;fill-rule:nonzero;stroke:none"
         d="m 76.297,105.202 0,6.937 4.641,0 0,-1.312 -3.079,0 0,-1.454 2.735,0 0,-1.312 -2.735,0 0,-2.859 -1.562,0 z" /><path
         id="path36"
         style="fill:#ffffff;fill-opacity:1;fill-rule:nonzero;stroke:none"
         d="m 86.727,107.842 c 0,-0.418 -0.063,-0.797 -0.188,-1.14 -0.117,-0.344 -0.289,-0.637 -0.516,-0.875 -0.23,-0.243 -0.507,-0.43 -0.828,-0.563 -0.312,-0.133 -0.664,-0.203 -1.047,-0.203 -0.398,0 -0.75,0.07 -1.062,0.203 -0.313,0.133 -0.586,0.32 -0.813,0.563 -0.23,0.238 -0.406,0.531 -0.531,0.875 -0.125,0.343 -0.187,0.722 -0.187,1.14 0,0.414 0.062,0.789 0.187,1.125 0.133,0.344 0.317,0.633 0.547,0.875 0.227,0.238 0.5,0.426 0.813,0.563 0.32,0.132 0.671,0.203 1.046,0.203 0.375,0 0.719,-0.071 1.032,-0.203 0.32,-0.137 0.593,-0.325 0.812,-0.563 0.227,-0.242 0.406,-0.531 0.531,-0.875 0.133,-0.336 0.204,-0.711 0.204,-1.125 z m -1.532,0 c 0,0.457 -0.093,0.817 -0.281,1.078 -0.18,0.27 -0.434,0.407 -0.766,0.407 -0.343,0 -0.609,-0.137 -0.796,-0.407 -0.188,-0.261 -0.282,-0.621 -0.282,-1.078 0,-0.461 0.094,-0.824 0.282,-1.094 0.187,-0.273 0.453,-0.406 0.796,-0.406 0.332,0 0.586,0.133 0.766,0.406 0.188,0.27 0.281,0.633 0.281,1.094 z" /><path
         id="path38"
         style="fill:#ffffff;fill-opacity:1;fill-rule:nonzero;stroke:none"
         d="m 87.895,110.28 c 0.25,0.07 0.57,0.14 0.968,0.203 0.407,0.062 0.828,0.094 1.266,0.094 0.445,0 0.816,-0.059 1.109,-0.172 0.301,-0.118 0.535,-0.282 0.703,-0.5 0.176,-0.211 0.301,-0.461 0.375,-0.75 0.071,-0.293 0.11,-0.621 0.11,-0.985 l 0,-2.968 -1.485,0 0,2.796 c 0,0.477 -0.062,0.817 -0.187,1.016 -0.125,0.195 -0.367,0.297 -0.719,0.297 -0.105,0 -0.219,-0.008 -0.344,-0.016 -0.117,-0.011 -0.218,-0.023 -0.312,-0.031 l 0,-4.062 -1.484,0 0,5.078 z" /><path
         id="path40"
         style="fill:#ffffff;fill-opacity:1;fill-rule:nonzero;stroke:none"
         d="m 93.531,107.827 c 0,0.382 0.055,0.742 0.172,1.078 0.125,0.332 0.301,0.625 0.531,0.875 0.239,0.25 0.524,0.445 0.86,0.593 0.332,0.157 0.711,0.235 1.14,0.235 0.282,0 0.536,-0.028 0.766,-0.078 0.238,-0.055 0.469,-0.125 0.688,-0.219 l -0.313,-1.188 c -0.137,0.051 -0.289,0.098 -0.453,0.141 -0.168,0.039 -0.356,0.063 -0.563,0.063 -0.437,0 -0.765,-0.141 -0.984,-0.422 -0.219,-0.274 -0.328,-0.633 -0.328,-1.078 0,-0.469 0.098,-0.836 0.297,-1.094 0.207,-0.262 0.566,-0.391 1.078,-0.391 0.176,0 0.367,0.016 0.578,0.047 0.207,0.031 0.395,0.082 0.562,0.156 l 0.219,-1.218 c -0.179,-0.075 -0.398,-0.133 -0.656,-0.188 -0.262,-0.051 -0.547,-0.078 -0.859,-0.078 -0.481,0 -0.891,0.074 -1.235,0.219 -0.343,0.144 -0.633,0.336 -0.859,0.578 -0.219,0.25 -0.383,0.539 -0.484,0.875 -0.106,0.344 -0.157,0.707 -0.157,1.094 z" /><path
         id="path42"
         style="fill:#ffffff;fill-opacity:1;fill-rule:nonzero;stroke:none"
         d="m 98.734,111.764 1.485,0.25 0,-1.547 1.797,0 0,-1.25 -1.797,0 0,-1.844 c 0,-0.312 0.051,-0.562 0.156,-0.75 0.113,-0.187 0.336,-0.281 0.672,-0.281 0.156,0 0.316,0.016 0.484,0.047 0.176,0.031 0.336,0.07 0.485,0.125 l 0.203,-1.156 c -0.18,-0.074 -0.383,-0.137 -0.61,-0.188 -0.218,-0.062 -0.484,-0.093 -0.797,-0.093 -0.406,0 -0.746,0.054 -1.015,0.156 -0.274,0.113 -0.485,0.269 -0.641,0.469 -0.156,0.195 -0.265,0.437 -0.328,0.718 -0.062,0.282 -0.094,0.594 -0.094,0.938 l 0,4.406 z" /><path
         id="path44"
         style="fill:#ffffff;fill-opacity:1;fill-rule:nonzero;stroke:none"
         d="m 104.668,105.202 -1.484,0 0,5.265 1.484,0 0,-5.265 z m 0.141,6.781 c 0,-0.274 -0.09,-0.485 -0.266,-0.641 -0.18,-0.156 -0.387,-0.234 -0.625,-0.234 -0.242,0 -0.449,0.078 -0.625,0.234 -0.18,0.156 -0.266,0.367 -0.266,0.641 0,0.269 0.086,0.484 0.266,0.64 0.176,0.157 0.383,0.235 0.625,0.235 0.238,0 0.445,-0.078 0.625,-0.235 0.176,-0.156 0.266,-0.371 0.266,-0.64 z" /><path
         id="path46"
         style="fill:#ffffff;fill-opacity:1;fill-rule:nonzero;stroke:none"
         d="m 110.996,107.842 c 0,-0.418 -0.062,-0.797 -0.187,-1.14 -0.118,-0.344 -0.289,-0.637 -0.516,-0.875 -0.231,-0.243 -0.508,-0.43 -0.828,-0.563 -0.313,-0.133 -0.664,-0.203 -1.047,-0.203 -0.398,0 -0.75,0.07 -1.063,0.203 -0.312,0.133 -0.585,0.32 -0.812,0.563 -0.231,0.238 -0.406,0.531 -0.531,0.875 -0.125,0.343 -0.188,0.722 -0.188,1.14 0,0.414 0.063,0.789 0.188,1.125 0.133,0.344 0.316,0.633 0.547,0.875 0.226,0.238 0.5,0.426 0.812,0.563 0.32,0.132 0.672,0.203 1.047,0.203 0.375,0 0.719,-0.071 1.031,-0.203 0.321,-0.137 0.594,-0.325 0.813,-0.563 0.226,-0.242 0.406,-0.531 0.531,-0.875 0.133,-0.336 0.203,-0.711 0.203,-1.125 z m -1.531,0 c 0,0.457 -0.094,0.817 -0.281,1.078 -0.18,0.27 -0.434,0.407 -0.766,0.407 -0.344,0 -0.609,-0.137 -0.797,-0.407 -0.187,-0.261 -0.281,-0.621 -0.281,-1.078 0,-0.461 0.094,-0.824 0.281,-1.094 0.188,-0.273 0.453,-0.406 0.797,-0.406 0.332,0 0.586,0.133 0.766,0.406 0.187,0.27 0.281,0.633 0.281,1.094 z" /><path
         id="path48"
         style="fill:#ffffff;fill-opacity:1;fill-rule:nonzero;stroke:none"
         d="m 112.164,110.28 c 0.25,0.07 0.57,0.14 0.969,0.203 0.406,0.062 0.828,0.094 1.265,0.094 0.446,0 0.817,-0.059 1.11,-0.172 0.301,-0.118 0.535,-0.282 0.703,-0.5 0.176,-0.211 0.301,-0.461 0.375,-0.75 0.07,-0.293 0.109,-0.621 0.109,-0.985 l 0,-2.968 -1.484,0 0,2.796 c 0,0.477 -0.063,0.817 -0.188,1.016 -0.125,0.195 -0.367,0.297 -0.718,0.297 -0.106,0 -0.219,-0.008 -0.344,-0.016 -0.117,-0.011 -0.219,-0.023 -0.313,-0.031 l 0,-4.062 -1.484,0 0,5.078 z" /><path
         id="path50"
         style="fill:#000000;fill-opacity:1;fill-rule:nonzero;stroke:none"
         d="m 34.371,97.655 c 0,-0.243 -0.055,-0.477 -0.156,-0.703 -0.094,-0.219 -0.219,-0.438 -0.375,-0.657 -0.156,-0.211 -0.34,-0.422 -0.547,-0.64 -0.199,-0.211 -0.398,-0.414 -0.594,-0.61 -0.117,-0.117 -0.25,-0.25 -0.406,-0.406 -0.148,-0.148 -0.289,-0.305 -0.422,-0.469 -0.125,-0.168 -0.234,-0.328 -0.328,-0.484 -0.094,-0.156 -0.141,-0.289 -0.141,-0.391 l 3.203,0 0,-0.797 -4.203,0 c -0.011,0.039 -0.015,0.082 -0.015,0.125 0,0.039 0,0.079 0,0.11 0,0.312 0.051,0.601 0.156,0.875 0.102,0.269 0.238,0.523 0.406,0.765 0.164,0.239 0.352,0.461 0.563,0.672 0.207,0.219 0.41,0.426 0.609,0.625 0.164,0.157 0.32,0.313 0.469,0.469 0.156,0.156 0.289,0.313 0.406,0.469 0.113,0.156 0.207,0.316 0.281,0.484 0.071,0.164 0.11,0.344 0.11,0.531 0,0.207 -0.039,0.379 -0.11,0.516 -0.062,0.133 -0.148,0.25 -0.25,0.344 -0.105,0.094 -0.23,0.16 -0.375,0.203 -0.148,0.051 -0.297,0.078 -0.453,0.078 C 32,98.764 31.824,98.733 31.668,98.67 31.512,98.616 31.363,98.553 31.23,98.483 31.105,98.42 31,98.346 30.918,98.264 30.832,98.19 30.766,98.131 30.715,98.092 l -0.453,0.672 c 0.062,0.063 0.148,0.141 0.265,0.234 0.125,0.102 0.27,0.196 0.438,0.282 0.164,0.082 0.347,0.156 0.547,0.218 0.207,0.063 0.429,0.094 0.672,0.094 0.726,0 1.273,-0.172 1.64,-0.515 0.364,-0.336 0.547,-0.809 0.547,-1.422 z" /></g><g
       id="g52"><g
         clip-path="url(#clipPath56)"
         id="g54"><g
           transform="translate(0,-0.400002)"
           id="g60"><g
             id="g62"><g
               clip-path="url(#clipPath66)"
               id="g64"><g
                 id="g70"><path
                   id="path72"
                   style="fill:#000000;fill-opacity:1;fill-rule:nonzero;stroke:none"
                   d="m 99.609,96.633 c 0,-0.281 -0.039,-0.559 -0.109,-0.828 -0.074,-0.274 -0.18,-0.528 -0.312,-0.766 -0.137,-0.23 -0.305,-0.445 -0.5,-0.641 -0.188,-0.187 -0.403,-0.351 -0.641,-0.484 -0.242,-0.137 -0.496,-0.246 -0.766,-0.328 -0.261,-0.074 -0.539,-0.109 -0.828,-0.109 -0.281,0 -0.562,0.035 -0.844,0.109 -0.273,0.082 -0.523,0.191 -0.75,0.328 -0.23,0.133 -0.445,0.297 -0.64,0.484 -0.188,0.196 -0.356,0.411 -0.5,0.641 -0.137,0.238 -0.246,0.492 -0.328,0.766 -0.075,0.269 -0.11,0.547 -0.11,0.828 0,0.238 0.024,0.445 0.078,0.625 0.051,0.187 0.118,0.363 0.203,0.531 0.094,0.164 0.196,0.328 0.313,0.484 0.113,0.157 0.242,0.317 0.391,0.485 l 0,0.015 c 0.07,0.071 0.16,0.11 0.265,0.11 0.082,0 0.157,-0.039 0.219,-0.11 0.062,-0.074 0.094,-0.152 0.094,-0.234 0,-0.043 -0.024,-0.094 -0.063,-0.156 -0.031,-0.063 -0.086,-0.133 -0.156,-0.203 -0.063,-0.063 -0.133,-0.141 -0.203,-0.235 -0.074,-0.093 -0.149,-0.203 -0.219,-0.328 -0.062,-0.125 -0.121,-0.265 -0.172,-0.422 -0.043,-0.156 -0.062,-0.336 -0.062,-0.531 0,-0.344 0.062,-0.672 0.187,-0.984 0.133,-0.313 0.313,-0.59 0.532,-0.828 0.218,-0.231 0.476,-0.414 0.781,-0.547 0.301,-0.137 0.629,-0.203 0.984,-0.203 0.238,0 0.469,0.031 0.688,0.093 0.218,0.063 0.41,0.149 0.578,0.266 0.176,0.113 0.343,0.25 0.5,0.406 0.156,0.156 0.285,0.328 0.39,0.516 0.102,0.187 0.18,0.39 0.235,0.609 0.051,0.219 0.078,0.442 0.078,0.672 0,0.195 -0.024,0.375 -0.063,0.531 -0.031,0.157 -0.078,0.297 -0.14,0.422 -0.055,0.125 -0.11,0.235 -0.172,0.328 -0.063,0.094 -0.125,0.176 -0.188,0.25 -0.062,0.071 -0.117,0.133 -0.156,0.188 -0.043,0.062 -0.062,0.113 -0.062,0.156 0,0.039 0.007,0.082 0.031,0.125 0.019,0.051 0.047,0.094 0.078,0.125 0.031,0.031 0.066,0.051 0.109,0.063 0.039,0.019 0.082,0.031 0.125,0.031 0.051,0 0.098,-0.012 0.141,-0.031 0.039,-0.024 0.078,-0.055 0.109,-0.094 0.133,-0.18 0.258,-0.344 0.375,-0.5 0.114,-0.149 0.207,-0.305 0.282,-0.469 0.07,-0.168 0.125,-0.344 0.156,-0.531 0.039,-0.18 0.062,-0.387 0.062,-0.625 z m -2.781,0.344 c 0,-0.094 -0.039,-0.18 -0.109,-0.25 -0.074,-0.063 -0.153,-0.094 -0.235,-0.094 -0.093,0 -0.179,0.031 -0.25,0.094 -0.062,0.07 -0.093,0.156 -0.093,0.25 l 0,2.765 c 0,0.094 0.031,0.172 0.093,0.235 0.071,0.062 0.157,0.093 0.25,0.093 0.082,0 0.161,-0.031 0.235,-0.093 0.07,-0.063 0.109,-0.141 0.109,-0.235 l 0,-2.765 z" /></g></g></g></g></g></g><g
       id="g74"><path
         id="path76"
         style="fill:#000000;fill-opacity:1;fill-rule:nonzero;stroke:none"
         d="m 31.965,80.487 c 0.594,0 1.015,0.113 1.265,0.343 0.258,0.227 0.391,0.54 0.391,0.938 0,0.25 -0.059,0.461 -0.172,0.641 -0.105,0.175 -0.246,0.316 -0.422,0.421 -0.168,0.102 -0.367,0.176 -0.593,0.219 -0.231,0.039 -0.465,0.063 -0.704,0.063 l -0.234,0 0,0.75 0.328,0 c 0.164,0 0.336,0.015 0.516,0.047 0.176,0.039 0.336,0.101 0.484,0.187 0.145,0.094 0.266,0.211 0.36,0.359 0.093,0.145 0.14,0.332 0.14,0.563 0,0.187 -0.039,0.348 -0.109,0.484 -0.063,0.133 -0.153,0.243 -0.266,0.328 -0.105,0.082 -0.23,0.141 -0.375,0.172 -0.148,0.039 -0.297,0.063 -0.453,0.063 -0.324,0 -0.601,-0.047 -0.828,-0.141 -0.219,-0.094 -0.402,-0.187 -0.547,-0.281 l -0.359,0.703 c 0.07,0.051 0.172,0.109 0.297,0.172 0.125,0.062 0.257,0.117 0.406,0.172 0.156,0.062 0.32,0.109 0.5,0.14 0.176,0.04 0.363,0.063 0.562,0.063 0.364,0 0.676,-0.047 0.938,-0.141 0.269,-0.093 0.488,-0.226 0.656,-0.39 0.176,-0.157 0.305,-0.352 0.391,-0.578 0.093,-0.219 0.14,-0.461 0.14,-0.719 0,-0.356 -0.105,-0.664 -0.312,-0.922 -0.211,-0.262 -0.461,-0.453 -0.75,-0.578 0.187,-0.055 0.363,-0.133 0.531,-0.235 0.164,-0.105 0.305,-0.234 0.422,-0.39 0.125,-0.149 0.223,-0.324 0.297,-0.531 0.082,-0.2 0.125,-0.418 0.125,-0.657 0,-0.304 -0.055,-0.586 -0.156,-0.843 -0.106,-0.25 -0.266,-0.469 -0.485,-0.657 -0.211,-0.187 -0.48,-0.34 -0.812,-0.453 -0.325,-0.101 -0.711,-0.156 -1.157,-0.156 -0.179,0 -0.359,0.016 -0.546,0.047 -0.18,0.031 -0.352,0.07 -0.516,0.109 -0.156,0.031 -0.297,0.067 -0.422,0.11 -0.117,0.039 -0.199,0.07 -0.25,0.093 l 0.188,0.813 c 0.113,-0.055 0.3,-0.121 0.562,-0.203 0.258,-0.086 0.582,-0.125 0.969,-0.125 z" /><path
         id="path78"
         style="fill:#000000;fill-opacity:1;fill-rule:nonzero;stroke:none"
         d="m 98.176,85.002 0.594,0.594 c 0.3,-0.312 0.523,-0.641 0.671,-0.984 0.145,-0.367 0.219,-0.758 0.219,-1.172 0,-0.406 -0.074,-0.793 -0.219,-1.156 -0.156,-0.368 -0.382,-0.696 -0.671,-0.985 -0.293,-0.281 -0.622,-0.5 -0.985,-0.656 -0.344,-0.148 -0.726,-0.219 -1.14,-0.219 -0.438,0 -0.825,0.071 -1.157,0.219 -0.375,0.164 -0.703,0.383 -0.984,0.656 -0.293,0.289 -0.516,0.617 -0.672,0.985 -0.148,0.363 -0.219,0.75 -0.219,1.156 0,0.414 0.071,0.805 0.219,1.172 0.156,0.363 0.379,0.691 0.672,0.984 l 0.172,0.172 -1.61,0 0,0.828 2.719,0 0.313,-0.312 0,-2.719 -0.828,0 0,1.609 -0.172,-0.172 c -0.219,-0.211 -0.383,-0.445 -0.485,-0.703 -0.117,-0.273 -0.172,-0.558 -0.172,-0.859 0,-0.293 0.051,-0.574 0.157,-0.844 0.113,-0.262 0.273,-0.496 0.484,-0.703 0.207,-0.211 0.445,-0.371 0.719,-0.484 0.25,-0.106 0.531,-0.157 0.844,-0.157 0.312,0 0.585,0.051 0.828,0.157 0.281,0.125 0.519,0.285 0.718,0.484 0.207,0.207 0.364,0.441 0.469,0.703 0.113,0.27 0.172,0.551 0.172,0.844 0,0.301 -0.055,0.586 -0.156,0.859 -0.106,0.258 -0.274,0.492 -0.5,0.703 z" /><path
         id="path80"
         style="fill:#000000;fill-opacity:1;fill-rule:nonzero;stroke:none"
         d="m 30.105,69.506 c 0.125,0.289 0.297,0.629 0.516,1.016 0.219,0.394 0.461,0.797 0.734,1.203 0.282,0.414 0.579,0.82 0.891,1.219 0.32,0.406 0.645,0.769 0.969,1.093 l 0.89,0 0,-4.406 0.813,0 0,-0.765 -0.813,0 0,-1.766 -0.906,0 0,1.766 -3.094,0 0,0.64 z m 3.094,3.422 C 33,72.717 32.797,72.479 32.59,72.209 32.391,71.948 32.191,71.67 31.996,71.381 31.809,71.1 31.625,70.807 31.449,70.506 31.281,70.202 31.129,69.912 30.996,69.631 l 2.203,0 0,3.297 z" /><path
         id="path82"
         style="fill:#000000;fill-opacity:1;fill-rule:nonzero;stroke:none"
         d="m 100.191,70.459 0,-0.437 -1.921,-1.922 -0.579,0.578 1.141,1.141 -5.953,0 0,0.828 5.953,0 -1.141,1.14 0.579,0.594 1.921,-1.922 z" /><path
         id="path84"
         style="fill:#000000;fill-opacity:1;fill-rule:nonzero;stroke:none"
         d="m 27.836,59.799 c 0.375,0.145 0.738,0.332 1.094,0.563 0.363,0.226 0.695,0.519 1,0.875 l 0.656,0 0,-6.938 -0.922,0 0,5.641 C 29.578,59.866 29.48,59.787 29.367,59.705 29.25,59.631 29.121,59.553 28.977,59.471 28.84,59.397 28.699,59.33 28.555,59.268 28.406,59.205 28.262,59.147 28.117,59.096 l -0.281,0.703 z" /><path
         id="path86"
         style="fill:#000000;fill-opacity:1;fill-rule:nonzero;stroke:none"
         d="m 32.906,56.705 c 0.125,0.29 0.297,0.629 0.516,1.016 0.219,0.395 0.461,0.797 0.734,1.203 0.282,0.414 0.578,0.821 0.891,1.219 0.32,0.406 0.644,0.769 0.969,1.094 l 0.89,0 0,-4.407 0.813,0 0,-0.765 -0.813,0 0,-1.766 -0.906,0 0,1.766 -3.094,0 0,0.64 z M 36,60.127 C 35.801,59.916 35.598,59.678 35.391,59.409 35.191,59.147 34.992,58.87 34.797,58.58 34.609,58.299 34.426,58.006 34.25,57.705 34.082,57.401 33.93,57.112 33.797,56.83 l 2.203,0 0,3.297 z" /><path
         id="path88"
         style="fill:#000000;fill-opacity:1;fill-rule:nonzero;stroke:none"
         d="m 92.43,55.143 0,-0.844 -4.172,0 0,6.938 0.969,0 0,-6.094 3.203,0 z" /><path
         id="path90"
         style="fill:#000000;fill-opacity:1;fill-rule:nonzero;stroke:none"
         d="m 93.449,54.299 0,6.938 4.235,0 0,-0.844 -3.266,0 0,-2.047 2.906,0 0,-0.812 -2.906,0 0,-2.407 3.516,0 0,-0.828 -4.485,0 z" /><path
         id="path92"
         style="fill:#000000;fill-opacity:1;fill-rule:nonzero;stroke:none"
         d="m 104.836,57.768 c 0,-0.606 -0.094,-1.133 -0.281,-1.578 -0.188,-0.438 -0.453,-0.805 -0.797,-1.094 -0.336,-0.281 -0.742,-0.496 -1.219,-0.641 -0.469,-0.148 -0.984,-0.218 -1.547,-0.218 -0.281,0 -0.594,0.015 -0.937,0.047 -0.336,0.019 -0.637,0.062 -0.907,0.125 l 0,6.718 c 0.27,0.071 0.571,0.118 0.907,0.141 0.343,0.019 0.656,0.031 0.937,0.031 0.563,0 1.078,-0.074 1.547,-0.219 0.477,-0.148 0.883,-0.367 1.219,-0.656 0.344,-0.281 0.609,-0.648 0.797,-1.094 0.187,-0.437 0.281,-0.96 0.281,-1.562 z m -3.766,-2.672 c 0.914,0 1.598,0.234 2.047,0.703 0.457,0.469 0.688,1.125 0.688,1.969 0,0.844 -0.231,1.5 -0.688,1.969 -0.449,0.476 -1.133,0.718 -2.047,0.718 -0.273,0 -0.484,-0.007 -0.64,-0.015 -0.149,-0.012 -0.25,-0.016 -0.313,-0.016 l 0,-5.312 c 0.063,0 0.164,-0.008 0.313,-0.016 0.156,0 0.367,0 0.64,0 z" /><path
         id="path94"
         style="fill:#000000;fill-opacity:1;fill-rule:nonzero;stroke:none"
         d="m 27.836,47.1 c 0.375,0.145 0.738,0.332 1.094,0.562 0.363,0.227 0.695,0.52 1,0.875 l 0.656,0 0,-6.937 -0.922,0 0,5.641 C 29.578,47.166 29.48,47.088 29.367,47.006 29.25,46.932 29.121,46.854 28.977,46.772 28.84,46.698 28.699,46.631 28.555,46.569 28.406,46.506 28.262,46.448 28.117,46.397 L 27.836,47.1 Z" /><path
         id="path96"
         style="fill:#000000;fill-opacity:1;fill-rule:nonzero;stroke:none"
         d="m 34.125,41.6 c 0.039,0.531 0.133,1.086 0.281,1.672 0.156,0.594 0.344,1.164 0.563,1.719 0.219,0.562 0.457,1.082 0.719,1.562 0.269,0.477 0.531,0.867 0.781,1.172 l -3.375,0 0,0.812 4.422,0 0,-0.781 C 37.297,47.506 37.051,47.155 36.781,46.709 36.508,46.272 36.254,45.776 36.016,45.225 35.785,44.67 35.582,44.084 35.406,43.459 35.238,42.842 35.133,42.225 35.094,41.6 l -0.969,0 z" /><path
         id="path98"
         style="fill:#000000;fill-opacity:1;fill-rule:nonzero;stroke:none"
         d="m 96.707,41.569 -0.437,0 -1.922,1.922 0.578,0.578 1.156,-1.141 0,5.969 0.828,0 0,-5.969 1.125,1.141 0.594,-0.578 -1.922,-1.922 z" /><path
         id="path100"
         style="fill:#000000;fill-opacity:1;fill-rule:nonzero;stroke:none"
         d="m 31.57,34.057 c 0,-0.242 -0.054,-0.477 -0.156,-0.703 -0.094,-0.219 -0.219,-0.438 -0.375,-0.656 -0.156,-0.211 -0.34,-0.422 -0.547,-0.641 -0.199,-0.211 -0.398,-0.414 -0.594,-0.609 -0.117,-0.118 -0.25,-0.25 -0.406,-0.407 -0.148,-0.148 -0.289,-0.304 -0.422,-0.468 -0.125,-0.168 -0.234,-0.328 -0.328,-0.485 -0.094,-0.156 -0.14,-0.289 -0.14,-0.39 l 3.203,0 0,-0.797 -4.203,0 c -0.012,0.039 -0.016,0.082 -0.016,0.125 0,0.039 0,0.078 0,0.109 0,0.313 0.051,0.602 0.156,0.875 0.102,0.27 0.238,0.524 0.406,0.766 0.164,0.238 0.352,0.461 0.563,0.672 0.207,0.218 0.41,0.425 0.609,0.625 0.164,0.156 0.321,0.312 0.469,0.468 0.156,0.157 0.289,0.313 0.406,0.469 0.114,0.156 0.207,0.317 0.282,0.485 0.07,0.164 0.109,0.343 0.109,0.531 0,0.207 -0.039,0.379 -0.109,0.515 -0.063,0.133 -0.149,0.25 -0.25,0.344 -0.106,0.094 -0.231,0.16 -0.375,0.203 -0.149,0.051 -0.297,0.078 -0.454,0.078 -0.199,0 -0.375,-0.031 -0.531,-0.093 -0.156,-0.055 -0.305,-0.118 -0.437,-0.188 -0.125,-0.062 -0.231,-0.137 -0.313,-0.219 -0.086,-0.074 -0.152,-0.132 -0.203,-0.171 l -0.453,0.671 c 0.062,0.063 0.148,0.141 0.266,0.235 0.125,0.101 0.269,0.195 0.437,0.281 0.164,0.082 0.348,0.156 0.547,0.219 0.207,0.062 0.43,0.094 0.672,0.094 0.726,0 1.273,-0.172 1.64,-0.516 0.364,-0.336 0.547,-0.809 0.547,-1.422 z" /><path
         id="path102"
         style="fill:#000000;fill-opacity:1;fill-rule:nonzero;stroke:none"
         d="m 37.172,34.057 c 0,-0.242 -0.055,-0.477 -0.156,-0.703 -0.094,-0.219 -0.219,-0.438 -0.375,-0.656 -0.157,-0.211 -0.34,-0.422 -0.547,-0.641 -0.199,-0.211 -0.399,-0.414 -0.594,-0.609 -0.117,-0.118 -0.25,-0.25 -0.406,-0.407 -0.149,-0.148 -0.289,-0.304 -0.422,-0.468 -0.125,-0.168 -0.234,-0.328 -0.328,-0.485 -0.094,-0.156 -0.141,-0.289 -0.141,-0.39 l 3.203,0 0,-0.797 -4.203,0 c -0.012,0.039 -0.015,0.082 -0.015,0.125 0,0.039 0,0.078 0,0.109 0,0.313 0.05,0.602 0.156,0.875 0.101,0.27 0.238,0.524 0.406,0.766 0.164,0.238 0.352,0.461 0.562,0.672 0.208,0.218 0.411,0.425 0.61,0.625 0.164,0.156 0.32,0.312 0.469,0.468 0.156,0.157 0.289,0.313 0.406,0.469 0.113,0.156 0.207,0.317 0.281,0.485 0.07,0.164 0.11,0.343 0.11,0.531 0,0.207 -0.04,0.379 -0.11,0.515 -0.062,0.133 -0.148,0.25 -0.25,0.344 -0.105,0.094 -0.23,0.16 -0.375,0.203 -0.148,0.051 -0.297,0.078 -0.453,0.078 -0.199,0 -0.375,-0.031 -0.531,-0.093 -0.157,-0.055 -0.305,-0.118 -0.438,-0.188 -0.125,-0.062 -0.23,-0.137 -0.312,-0.219 -0.086,-0.074 -0.153,-0.132 -0.203,-0.171 l -0.454,0.671 c 0.063,0.063 0.149,0.141 0.266,0.235 0.125,0.101 0.27,0.195 0.438,0.281 0.164,0.082 0.347,0.156 0.546,0.219 0.208,0.062 0.43,0.094 0.672,0.094 0.727,0 1.274,-0.172 1.641,-0.516 0.363,-0.336 0.547,-0.809 0.547,-1.422 z" /><path
         id="path104"
         style="fill:#000000;fill-opacity:1;fill-rule:nonzero;stroke:none"
         d="m 96.27,36.229 0.437,0 1.922,-1.922 -0.594,-0.594 -1.125,1.141 0,-5.953 -0.828,0 0,5.953 -1.156,-1.141 -0.578,0.594 1.922,1.922 z" /><path
         id="path106"
         style="fill:#000000;fill-opacity:1;fill-rule:nonzero;stroke:none"
         d="m 31.57,21.256 c 0,-0.242 -0.054,-0.476 -0.156,-0.703 -0.094,-0.219 -0.219,-0.437 -0.375,-0.656 -0.156,-0.211 -0.34,-0.422 -0.547,-0.641 -0.199,-0.211 -0.398,-0.414 -0.594,-0.609 -0.117,-0.117 -0.25,-0.25 -0.406,-0.406 -0.148,-0.149 -0.289,-0.305 -0.422,-0.469 -0.125,-0.168 -0.234,-0.328 -0.328,-0.485 -0.094,-0.156 -0.14,-0.289 -0.14,-0.39 l 3.203,0 0,-0.797 -4.203,0 c -0.012,0.039 -0.016,0.082 -0.016,0.125 0,0.039 0,0.078 0,0.109 0,0.313 0.051,0.602 0.156,0.875 0.102,0.27 0.238,0.524 0.406,0.766 0.164,0.238 0.352,0.461 0.563,0.672 0.207,0.219 0.41,0.426 0.609,0.625 0.164,0.156 0.321,0.312 0.469,0.469 0.156,0.156 0.289,0.312 0.406,0.468 0.114,0.157 0.207,0.317 0.282,0.485 0.07,0.164 0.109,0.343 0.109,0.531 0,0.207 -0.039,0.379 -0.109,0.516 -0.063,0.132 -0.149,0.25 -0.25,0.343 -0.106,0.094 -0.231,0.161 -0.375,0.203 -0.149,0.051 -0.297,0.079 -0.454,0.079 -0.199,0 -0.375,-0.032 -0.531,-0.094 -0.156,-0.055 -0.305,-0.117 -0.437,-0.188 -0.125,-0.062 -0.231,-0.136 -0.313,-0.218 -0.086,-0.075 -0.152,-0.133 -0.203,-0.172 l -0.453,0.672 c 0.062,0.062 0.148,0.14 0.266,0.234 0.125,0.102 0.269,0.195 0.437,0.281 0.164,0.082 0.348,0.156 0.547,0.219 0.207,0.062 0.43,0.094 0.672,0.094 0.726,0 1.273,-0.172 1.64,-0.516 0.364,-0.336 0.547,-0.808 0.547,-1.422 z" /><path
         id="path108"
         style="fill:#000000;fill-opacity:1;fill-rule:nonzero;stroke:none"
         d="m 34.766,16.787 c 0.593,0 1.015,0.114 1.265,0.344 0.258,0.227 0.391,0.539 0.391,0.938 0,0.25 -0.059,0.461 -0.172,0.64 -0.105,0.176 -0.246,0.317 -0.422,0.422 -0.168,0.102 -0.367,0.176 -0.594,0.219 -0.23,0.039 -0.464,0.062 -0.703,0.062 l -0.234,0 0,0.75 0.328,0 c 0.164,0 0.336,0.016 0.516,0.047 0.175,0.039 0.336,0.102 0.484,0.188 0.145,0.094 0.266,0.211 0.359,0.359 0.094,0.145 0.141,0.332 0.141,0.563 0,0.187 -0.039,0.347 -0.109,0.484 -0.063,0.133 -0.153,0.242 -0.266,0.328 -0.105,0.082 -0.23,0.141 -0.375,0.172 -0.148,0.039 -0.297,0.063 -0.453,0.063 -0.324,0 -0.602,-0.047 -0.828,-0.141 -0.219,-0.094 -0.403,-0.188 -0.547,-0.281 l -0.359,0.703 c 0.07,0.051 0.171,0.109 0.296,0.172 0.125,0.062 0.258,0.117 0.407,0.172 0.156,0.062 0.32,0.109 0.5,0.14 0.175,0.039 0.363,0.063 0.562,0.063 0.363,0 0.676,-0.047 0.938,-0.141 0.269,-0.094 0.488,-0.226 0.656,-0.391 0.176,-0.156 0.305,-0.351 0.391,-0.578 0.093,-0.218 0.14,-0.461 0.14,-0.718 0,-0.356 -0.105,-0.664 -0.312,-0.922 -0.211,-0.262 -0.461,-0.453 -0.75,-0.578 0.187,-0.055 0.363,-0.133 0.531,-0.235 0.164,-0.105 0.305,-0.234 0.422,-0.39 0.125,-0.149 0.222,-0.325 0.297,-0.532 0.082,-0.199 0.125,-0.418 0.125,-0.656 0,-0.305 -0.055,-0.586 -0.157,-0.844 -0.105,-0.25 -0.265,-0.468 -0.484,-0.656 -0.211,-0.187 -0.48,-0.34 -0.812,-0.453 -0.325,-0.102 -0.711,-0.156 -1.157,-0.156 -0.179,0 -0.359,0.015 -0.547,0.047 -0.179,0.031 -0.351,0.07 -0.515,0.109 -0.157,0.031 -0.297,0.066 -0.422,0.109 -0.117,0.039 -0.199,0.071 -0.25,0.094 l 0.187,0.813 c 0.114,-0.055 0.301,-0.121 0.563,-0.204 0.258,-0.085 0.582,-0.125 0.969,-0.125 z" /><path
         id="path110"
         style="fill:#000000;fill-opacity:1;fill-rule:nonzero;stroke:none"
         d="m 92.785,19.022 0,0.437 1.922,1.922 0.594,-0.594 -1.141,-1.14 5.953,0 0,-0.828 -5.953,0 1.141,-1.141 -0.594,-0.578 -1.922,1.922 z" /><path
         id="path112"
         style="fill:#000000;fill-opacity:1;fill-rule:nonzero;stroke:none"
         d="M 31.57,8.557 C 31.57,8.315 31.516,8.08 31.414,7.854 31.32,7.635 31.195,7.416 31.039,7.198 30.883,6.987 30.699,6.776 30.492,6.557 30.293,6.346 30.094,6.143 29.898,5.948 29.781,5.83 29.648,5.698 29.492,5.541 29.344,5.393 29.203,5.237 29.07,5.073 28.945,4.905 28.836,4.745 28.742,4.588 28.648,4.432 28.602,4.299 28.602,4.198 l 3.203,0 0,-0.797 -4.203,0 c -0.012,0.039 -0.016,0.082 -0.016,0.125 0,0.039 0,0.078 0,0.109 0,0.313 0.051,0.602 0.156,0.875 0.102,0.27 0.238,0.524 0.406,0.766 0.164,0.238 0.352,0.461 0.563,0.672 0.207,0.218 0.41,0.425 0.609,0.625 0.164,0.156 0.321,0.312 0.469,0.468 0.156,0.157 0.289,0.313 0.406,0.469 0.114,0.156 0.207,0.317 0.282,0.485 0.07,0.164 0.109,0.343 0.109,0.531 0,0.207 -0.039,0.379 -0.109,0.515 -0.063,0.133 -0.149,0.25 -0.25,0.344 -0.106,0.094 -0.231,0.16 -0.375,0.203 -0.149,0.051 -0.297,0.078 -0.454,0.078 -0.199,0 -0.375,-0.031 -0.531,-0.093 C 28.711,9.518 28.562,9.455 28.43,9.385 28.305,9.323 28.199,9.248 28.117,9.166 28.031,9.092 27.965,9.034 27.914,8.995 l -0.453,0.671 c 0.062,0.063 0.148,0.141 0.266,0.235 0.125,0.101 0.269,0.195 0.437,0.281 0.164,0.082 0.348,0.156 0.547,0.219 0.207,0.062 0.43,0.094 0.672,0.094 0.726,0 1.273,-0.172 1.64,-0.516 C 31.387,9.643 31.57,9.17 31.57,8.557 Z" /><path
         id="path114"
         style="fill:#000000;fill-opacity:1;fill-rule:nonzero;stroke:none"
         d="m 34.125,3.401 c 0.039,0.531 0.133,1.086 0.281,1.672 0.156,0.593 0.344,1.164 0.563,1.718 0.219,0.563 0.457,1.082 0.719,1.563 0.269,0.476 0.531,0.867 0.781,1.172 l -3.375,0 0,0.812 4.422,0 0,-0.781 C 37.297,9.307 37.051,8.955 36.781,8.51 36.508,8.073 36.254,7.577 36.016,7.026 35.785,6.471 35.582,5.885 35.406,5.26 35.238,4.643 35.133,4.026 35.094,3.401 l -0.969,0 z" /><path
         id="path116"
         style="fill:#000000;fill-opacity:1;fill-rule:nonzero;stroke:none"
         d="M 94.816,8.604 C 94.586,8.393 94.418,8.159 94.316,7.901 94.211,7.627 94.16,7.342 94.16,7.041 c 0,-0.293 0.051,-0.574 0.156,-0.843 0.114,-0.262 0.274,-0.496 0.485,-0.703 0.195,-0.2 0.437,-0.36 0.719,-0.485 0.238,-0.105 0.507,-0.156 0.812,-0.156 0.313,0 0.598,0.051 0.859,0.156 0.258,0.113 0.493,0.274 0.704,0.485 0.218,0.207 0.378,0.441 0.484,0.703 0.113,0.269 0.172,0.55 0.172,0.843 0,0.301 -0.059,0.586 -0.172,0.86 -0.106,0.258 -0.266,0.492 -0.484,0.703 l -0.172,0.172 0,-1.61 -0.828,0 0,2.719 0.312,0.313 2.719,0 0,-0.828 -1.61,0 0.172,-0.172 C 98.777,8.905 98.996,8.577 99.145,8.213 99.301,7.846 99.379,7.455 99.379,7.041 99.379,6.635 99.301,6.248 99.145,5.885 98.988,5.518 98.77,5.19 98.488,4.901 98.207,4.627 97.879,4.409 97.504,4.245 97.168,4.096 96.785,4.026 96.348,4.026 c -0.418,0 -0.797,0.07 -1.141,0.219 -0.367,0.156 -0.695,0.375 -0.984,0.656 -0.293,0.289 -0.516,0.617 -0.672,0.984 -0.149,0.363 -0.219,0.75 -0.219,1.156 0,0.414 0.07,0.805 0.219,1.172 0.144,0.344 0.367,0.672 0.672,0.985 l 0.593,-0.594 z" /></g></g></svg>