<?xml version="1.0" encoding="UTF-8" standalone="no"?>
<svg
   xmlns:dc="http://purl.org/dc/elements/1.1/"
   xmlns:cc="http://creativecommons.org/ns#"
   xmlns:rdf="http://www.w3.org/1999/02/22-rdf-syntax-ns#"
   xmlns:svg="http://www.w3.org/2000/svg"
   xmlns="http://www.w3.org/2000/svg"
   viewBox="0 0 276.25955 505.88538"
   height="505.88538"
   width="276.25955"
   xml:space="preserve"
   version="1.1"
   id="svg2"><metadata
     id="metadata8"><rdf:RDF><cc:Work
         rdf:about=""><dc:format>image/svg+xml</dc:format><dc:type
           rdf:resource="http://purl.org/dc/dcmitype/StillImage" /></cc:Work></rdf:RDF></metadata><defs
     id="defs6" /><g
     transform="matrix(1.25,0,0,-1.25,0,505.88539)"
     id="g10"><g
       id="g12"><path
         id="path14"
         style="fill:#000000;fill-opacity:1;fill-rule:nonzero;stroke:none"
         d="m 118.738,321.919 3.379,0 0,-3.379 -3.379,0 0,3.379 z" /><g
         transform="matrix(1,0,0,-1,0,404.70831)"
         id="g16"><path
           id="path18"
           style="fill:none;stroke:#000000;stroke-width:3.37919998;stroke-linecap:square;stroke-linejoin:miter;stroke-miterlimit:10;stroke-dasharray:none;stroke-opacity:1"
           d="m 120.426,52.379 0,30.41" /></g><g
         transform="matrix(1,0,0,-1,0,404.70831)"
         id="g20"><path
           id="path22"
           style="fill:none;stroke:#000000;stroke-width:3.37919998;stroke-linecap:square;stroke-linejoin:miter;stroke-miterlimit:10;stroke-dasharray:none;stroke-opacity:1"
           d="m 103.531,50.688 33.793,0" /></g><path
         id="path24"
         style="fill:#000000;fill-opacity:1;fill-rule:nonzero;stroke:none"
         d="m 88.312,389.029 c 0.415,0 0.817,0.031 1.204,0.093 0.382,0.063 0.738,0.145 1.062,0.25 0.332,0.114 0.629,0.239 0.891,0.375 0.258,0.145 0.476,0.289 0.656,0.438 l 0,1.906 -3.359,0 0,2.125 5.984,0 0,-5.047 c -0.312,-0.324 -0.695,-0.633 -1.141,-0.922 -0.437,-0.293 -0.933,-0.546 -1.484,-0.765 -0.555,-0.211 -1.156,-0.383 -1.813,-0.516 -0.656,-0.133 -1.351,-0.203 -2.078,-0.203 -1.218,0 -2.273,0.18 -3.156,0.531 -0.875,0.364 -1.601,0.864 -2.172,1.5 -0.562,0.633 -0.98,1.383 -1.25,2.25 -0.261,0.875 -0.39,1.828 -0.39,2.86 0,1.082 0.14,2.054 0.422,2.922 0.289,0.863 0.722,1.597 1.296,2.203 0.582,0.613 1.317,1.082 2.204,1.406 0.882,0.332 1.921,0.5 3.109,0.5 0.863,0 1.633,-0.09 2.312,-0.266 0.676,-0.168 1.266,-0.406 1.766,-0.718 0.508,-0.313 0.93,-0.688 1.266,-1.125 0.343,-0.438 0.617,-0.934 0.828,-1.485 l -2.657,-0.797 c -0.124,0.289 -0.289,0.563 -0.484,0.813 -0.187,0.258 -0.43,0.484 -0.719,0.672 -0.293,0.195 -0.632,0.351 -1.015,0.468 -0.375,0.114 -0.809,0.172 -1.297,0.172 -0.719,0 -1.34,-0.117 -1.859,-0.343 -0.524,-0.219 -0.954,-0.54 -1.297,-0.954 -0.336,-0.418 -0.586,-0.918 -0.75,-1.5 -0.157,-0.586 -0.235,-1.242 -0.235,-1.968 0,-0.711 0.082,-1.368 0.25,-1.969 0.164,-0.594 0.422,-1.109 0.766,-1.547 0.344,-0.43 0.773,-0.762 1.297,-1 0.519,-0.242 1.133,-0.359 1.843,-0.359 z" /><path
         id="path26"
         style="fill:#000000;fill-opacity:1;fill-rule:nonzero;stroke:none"
         d="m 108.855,396.372 c 0,-0.593 -0.101,-1.168 -0.296,-1.718 -0.2,-0.555 -0.508,-1.043 -0.922,-1.469 -0.407,-0.418 -0.93,-0.75 -1.563,-1 -0.625,-0.25 -1.371,-0.375 -2.234,-0.375 l -3.422,0 0,-4.844 -2.875,0 0,13.766 6.172,0 c 0.883,0 1.644,-0.11 2.281,-0.328 0.645,-0.211 1.18,-0.508 1.609,-0.891 0.426,-0.387 0.739,-0.844 0.938,-1.375 0.207,-0.531 0.312,-1.121 0.312,-1.766 z m -2.906,-0.046 c 0,0.707 -0.215,1.242 -0.64,1.609 -0.418,0.375 -1.055,0.562 -1.907,0.562 l -2.984,0 0,-4.468 3.062,0 c 0.426,0 0.79,0.05 1.094,0.156 0.313,0.113 0.571,0.269 0.781,0.469 0.207,0.207 0.36,0.453 0.454,0.734 0.093,0.281 0.14,0.594 0.14,0.938 z" /><path
         id="path28"
         style="fill:#000000;fill-opacity:1;fill-rule:nonzero;stroke:none"
         d="m 111.086,400.732 2.875,0 0,-13.766 -2.875,0 0,13.766 z" /><path
         id="path30"
         style="fill:#000000;fill-opacity:1;fill-rule:nonzero;stroke:none"
         d="m 130.082,393.904 c 0,-1.075 -0.164,-2.047 -0.484,-2.922 -0.313,-0.875 -0.774,-1.625 -1.375,-2.25 -0.594,-0.625 -1.325,-1.11 -2.188,-1.453 -0.867,-0.344 -1.84,-0.516 -2.922,-0.516 -1.156,0 -2.168,0.18 -3.031,0.531 -0.867,0.364 -1.59,0.864 -2.172,1.5 -0.574,0.633 -1.008,1.383 -1.297,2.25 -0.281,0.875 -0.422,1.828 -0.422,2.86 0,1.082 0.149,2.054 0.454,2.922 0.3,0.863 0.742,1.597 1.328,2.203 0.593,0.613 1.316,1.082 2.172,1.406 0.863,0.332 1.859,0.5 2.984,0.5 1.113,0 2.101,-0.168 2.969,-0.5 0.863,-0.336 1.586,-0.809 2.172,-1.422 0.593,-0.605 1.039,-1.34 1.343,-2.203 0.313,-0.867 0.469,-1.836 0.469,-2.906 z m -2.937,0 c 0,0.726 -0.09,1.382 -0.266,1.968 -0.168,0.582 -0.422,1.082 -0.766,1.5 -0.336,0.414 -0.75,0.735 -1.25,0.954 -0.5,0.226 -1.078,0.343 -1.734,0.343 -0.668,0 -1.258,-0.117 -1.766,-0.343 -0.5,-0.219 -0.922,-0.54 -1.265,-0.954 -0.336,-0.418 -0.59,-0.918 -0.766,-1.5 -0.168,-0.586 -0.25,-1.242 -0.25,-1.968 0,-0.711 0.082,-1.368 0.25,-1.969 0.176,-0.594 0.43,-1.106 0.766,-1.531 0.343,-0.43 0.765,-0.762 1.265,-1 0.508,-0.243 1.094,-0.36 1.75,-0.36 0.696,0 1.301,0.117 1.813,0.36 0.508,0.238 0.926,0.578 1.25,1.015 0.332,0.438 0.578,0.953 0.734,1.547 0.156,0.594 0.235,1.238 0.235,1.938 z" /><path
         id="path32"
         style="fill:#000000;fill-opacity:1;fill-rule:nonzero;stroke:none"
         d="m 138.672,394.31 0,2.75 2.812,0 0,-2.75 -2.812,0 z m 0,-7.344 0,2.75 2.812,0 0,-2.75 -2.812,0 z" /><path
         id="path34"
         style="fill:#000000;fill-opacity:1;fill-rule:nonzero;stroke:none"
         d="m 163.863,393.904 c 0,-1.075 -0.164,-2.047 -0.484,-2.922 -0.313,-0.875 -0.774,-1.625 -1.375,-2.25 -0.594,-0.625 -1.324,-1.11 -2.188,-1.453 -0.867,-0.344 -1.839,-0.516 -2.921,-0.516 -1.157,0 -2.168,0.18 -3.032,0.531 -0.867,0.364 -1.59,0.864 -2.172,1.5 -0.574,0.633 -1.007,1.383 -1.296,2.25 -0.282,0.875 -0.422,1.828 -0.422,2.86 0,1.082 0.148,2.054 0.453,2.922 0.301,0.863 0.742,1.597 1.328,2.203 0.594,0.613 1.316,1.082 2.172,1.406 0.863,0.332 1.859,0.5 2.984,0.5 1.113,0 2.102,-0.168 2.969,-0.5 0.863,-0.336 1.586,-0.809 2.172,-1.422 0.594,-0.605 1.039,-1.34 1.344,-2.203 0.312,-0.867 0.468,-1.836 0.468,-2.906 z m -2.937,0 c 0,0.726 -0.09,1.382 -0.266,1.968 -0.168,0.582 -0.422,1.082 -0.765,1.5 -0.336,0.414 -0.75,0.735 -1.25,0.954 -0.5,0.226 -1.079,0.343 -1.735,0.343 -0.668,0 -1.258,-0.117 -1.765,-0.343 -0.5,-0.219 -0.922,-0.54 -1.266,-0.954 -0.336,-0.418 -0.59,-0.918 -0.766,-1.5 -0.168,-0.586 -0.25,-1.242 -0.25,-1.968 0,-0.711 0.082,-1.368 0.25,-1.969 0.176,-0.594 0.43,-1.106 0.766,-1.531 0.344,-0.43 0.766,-0.762 1.266,-1 0.507,-0.243 1.093,-0.36 1.75,-0.36 0.695,0 1.3,0.117 1.812,0.36 0.508,0.238 0.926,0.578 1.25,1.015 0.332,0.438 0.578,0.953 0.734,1.547 0.157,0.594 0.235,1.238 0.235,1.938 z" /><path
         id="path36"
         style="fill:#000000;fill-opacity:1;fill-rule:nonzero;stroke:none"
         d="m 168.891,397.529 0,-5.922 c 0,-0.406 0.031,-0.781 0.093,-1.125 0.071,-0.344 0.18,-0.641 0.328,-0.891 0.145,-0.242 0.336,-0.43 0.579,-0.562 0.238,-0.137 0.531,-0.203 0.875,-0.203 0.332,0 0.632,0.07 0.906,0.218 0.269,0.145 0.5,0.352 0.687,0.625 0.196,0.27 0.348,0.594 0.453,0.969 0.114,0.375 0.172,0.785 0.172,1.234 l 0,5.657 2.75,0 0,-8.203 c 0,-0.219 0,-0.454 0,-0.704 0,-0.242 0.004,-0.468 0.016,-0.687 0.008,-0.219 0.02,-0.418 0.031,-0.594 0.008,-0.168 0.02,-0.293 0.031,-0.375 l -2.624,0 c -0.012,0.082 -0.028,0.207 -0.047,0.375 -0.012,0.176 -0.024,0.367 -0.032,0.578 -0.011,0.207 -0.023,0.414 -0.031,0.625 0,0.207 0,0.379 0,0.516 l -0.062,0 c -0.368,-0.793 -0.828,-1.375 -1.391,-1.75 -0.563,-0.363 -1.23,-0.547 -2,-0.547 -0.637,0 -1.18,0.105 -1.625,0.313 -0.438,0.218 -0.797,0.503 -1.078,0.859 -0.274,0.363 -0.469,0.789 -0.594,1.281 -0.125,0.5 -0.187,1.035 -0.187,1.61 l 0,6.703 2.75,0 z" /><path
         id="path38"
         style="fill:#000000;fill-opacity:1;fill-rule:nonzero;stroke:none"
         d="m 181.41,386.794 c -0.812,0 -1.437,0.219 -1.875,0.657 -0.437,0.437 -0.656,1.101 -0.656,2 l 0,6.234 -1.328,0 0,1.844 1.469,0 0.859,2.484 1.719,0 0,-2.484 2,0 0,-1.844 -2,0 0,-5.5 c 0,-0.512 0.097,-0.891 0.297,-1.141 0.195,-0.242 0.5,-0.359 0.906,-0.359 0.164,0 0.316,0.008 0.453,0.031 0.133,0.031 0.289,0.067 0.469,0.11 l 0,-1.704 c -0.344,-0.117 -0.703,-0.195 -1.078,-0.25 -0.375,-0.05 -0.79,-0.078 -1.235,-0.078 z" /><path
         id="path40"
         style="fill:#000000;fill-opacity:1;fill-rule:nonzero;stroke:none"
         d="m 112.5,373.884 c 0,-0.625 -0.105,-1.187 -0.312,-1.687 -0.211,-0.493 -0.516,-0.914 -0.922,-1.266 -0.407,-0.355 -0.918,-0.625 -1.532,-0.813 -0.605,-0.175 -1.312,-0.265 -2.125,-0.265 -0.898,0 -1.652,0.109 -2.265,0.328 -0.617,0.227 -1.121,0.531 -1.516,0.906 -0.398,0.375 -0.695,0.801 -0.89,1.281 -0.2,0.477 -0.329,0.958 -0.391,1.438 l 2.797,0.25 c 0.039,-0.293 0.113,-0.563 0.218,-0.813 0.114,-0.242 0.258,-0.449 0.438,-0.625 0.188,-0.179 0.41,-0.312 0.672,-0.406 0.258,-0.094 0.57,-0.14 0.937,-0.14 0.657,0 1.164,0.16 1.532,0.484 0.363,0.332 0.547,0.832 0.547,1.5 0,0.406 -0.09,0.734 -0.266,0.984 -0.168,0.25 -0.387,0.442 -0.656,0.578 -0.262,0.133 -0.547,0.223 -0.86,0.266 -0.304,0.039 -0.59,0.063 -0.859,0.063 l -0.953,0 0,2.218 0.89,0 c 0.27,0 0.547,0.024 0.828,0.078 0.29,0.051 0.551,0.145 0.782,0.282 0.226,0.133 0.41,0.32 0.547,0.562 0.144,0.25 0.218,0.567 0.218,0.953 0,0.563 -0.164,1.004 -0.484,1.328 -0.313,0.321 -0.773,0.485 -1.375,0.485 -0.562,0 -1.023,-0.156 -1.375,-0.469 -0.344,-0.312 -0.543,-0.758 -0.594,-1.328 l -2.75,0.187 c 0.082,0.645 0.258,1.204 0.531,1.672 0.282,0.477 0.629,0.875 1.047,1.188 0.426,0.312 0.911,0.547 1.453,0.703 0.551,0.156 1.129,0.234 1.735,0.234 0.812,0 1.504,-0.101 2.078,-0.297 0.582,-0.199 1.055,-0.464 1.422,-0.796 0.375,-0.325 0.648,-0.711 0.828,-1.157 0.176,-0.437 0.266,-0.914 0.266,-1.422 0,-0.398 -0.059,-0.773 -0.172,-1.125 -0.117,-0.343 -0.293,-0.656 -0.531,-0.937 -0.243,-0.273 -0.547,-0.508 -0.922,-0.703 -0.368,-0.199 -0.805,-0.352 -1.313,-0.453 l 0,-0.032 c 0.563,-0.074 1.051,-0.203 1.469,-0.39 0.414,-0.188 0.758,-0.43 1.031,-0.719 0.27,-0.281 0.469,-0.605 0.594,-0.969 0.133,-0.367 0.203,-0.75 0.203,-1.156 z" /><path
         id="path42"
         style="fill:#000000;fill-opacity:1;fill-rule:nonzero;stroke:none"
         d="m 117.598,370.712 c 0,-0.437 -0.028,-0.832 -0.078,-1.187 -0.043,-0.352 -0.11,-0.68 -0.204,-0.985 -0.093,-0.312 -0.211,-0.593 -0.343,-0.843 -0.125,-0.25 -0.266,-0.489 -0.422,-0.719 l -1.813,0 c 0.188,0.23 0.36,0.469 0.516,0.719 0.156,0.25 0.289,0.511 0.406,0.781 0.125,0.273 0.219,0.543 0.281,0.812 0.063,0.262 0.094,0.524 0.094,0.782 l -1.265,0 0,2.984 2.828,0 0,-2.344 z" /><path
         id="path44"
         style="fill:#000000;fill-opacity:1;fill-rule:nonzero;stroke:none"
         d="m 129.406,373.884 c 0,-0.625 -0.105,-1.187 -0.312,-1.687 -0.211,-0.493 -0.516,-0.914 -0.922,-1.266 -0.406,-0.355 -0.918,-0.625 -1.531,-0.813 -0.606,-0.175 -1.313,-0.265 -2.125,-0.265 -0.899,0 -1.653,0.109 -2.266,0.328 -0.617,0.227 -1.121,0.531 -1.516,0.906 -0.398,0.375 -0.695,0.801 -0.89,1.281 -0.199,0.477 -0.328,0.958 -0.391,1.438 l 2.797,0.25 c 0.039,-0.293 0.113,-0.563 0.219,-0.813 0.113,-0.242 0.258,-0.449 0.437,-0.625 0.188,-0.179 0.41,-0.312 0.672,-0.406 0.258,-0.094 0.57,-0.14 0.938,-0.14 0.656,0 1.164,0.16 1.531,0.484 0.363,0.332 0.547,0.832 0.547,1.5 0,0.406 -0.09,0.734 -0.266,0.984 -0.168,0.25 -0.387,0.442 -0.656,0.578 -0.262,0.133 -0.547,0.223 -0.86,0.266 -0.304,0.039 -0.589,0.063 -0.859,0.063 l -0.953,0 0,2.218 0.891,0 c 0.269,0 0.547,0.024 0.828,0.078 0.289,0.051 0.551,0.145 0.781,0.282 0.227,0.133 0.41,0.32 0.547,0.562 0.144,0.25 0.219,0.567 0.219,0.953 0,0.563 -0.164,1.004 -0.485,1.328 -0.312,0.321 -0.773,0.485 -1.375,0.485 -0.562,0 -1.023,-0.156 -1.375,-0.469 -0.343,-0.312 -0.543,-0.758 -0.593,-1.328 l -2.75,0.187 c 0.082,0.645 0.257,1.204 0.531,1.672 0.281,0.477 0.629,0.875 1.047,1.188 0.425,0.312 0.91,0.547 1.453,0.703 0.551,0.156 1.129,0.234 1.734,0.234 0.813,0 1.504,-0.101 2.078,-0.297 0.582,-0.199 1.055,-0.464 1.422,-0.796 0.375,-0.325 0.649,-0.711 0.828,-1.157 0.176,-0.437 0.266,-0.914 0.266,-1.422 0,-0.398 -0.059,-0.773 -0.172,-1.125 -0.117,-0.343 -0.293,-0.656 -0.531,-0.937 -0.242,-0.273 -0.547,-0.508 -0.922,-0.703 -0.367,-0.199 -0.805,-0.352 -1.313,-0.453 l 0,-0.032 c 0.563,-0.074 1.051,-0.203 1.469,-0.39 0.414,-0.188 0.758,-0.43 1.031,-0.719 0.27,-0.281 0.469,-0.605 0.594,-0.969 0.133,-0.367 0.203,-0.75 0.203,-1.156 z" /><path
         id="path46"
         style="fill:#000000;fill-opacity:1;fill-rule:nonzero;stroke:none"
         d="m 138.43,370.072 -2.922,0 -5.078,13.765 3,0 2.843,-8.844 c 0.082,-0.292 0.165,-0.593 0.25,-0.906 0.094,-0.304 0.172,-0.578 0.235,-0.828 0.082,-0.305 0.16,-0.59 0.234,-0.859 0.063,0.258 0.129,0.539 0.203,0.843 0.063,0.239 0.133,0.516 0.219,0.829 0.094,0.312 0.188,0.617 0.281,0.921 l 2.813,8.844 2.984,0 -5.062,-13.765 z" /><path
         id="path48"
         style="fill:#000000;fill-opacity:1;fill-rule:nonzero;stroke:none"
         d="m 118.738,321.919 3.379,0 0,-3.379 -3.379,0 0,3.379 z" /><path
         id="path50"
         style="fill:#000000;fill-opacity:1;fill-rule:nonzero;stroke:none"
         d="m 118.738,220.54 3.379,0 0,-3.379 -3.379,0 0,3.379 z" /><g
         transform="matrix(1,0,0,-1,0,404.70831)"
         id="g52"><path
           id="path54"
           style="fill:none;stroke:#000000;stroke-width:3.37919998;stroke-linecap:square;stroke-linejoin:miter;stroke-miterlimit:10;stroke-dasharray:none;stroke-opacity:1"
           d="m 120.426,86.168 0,16.898" /></g><g
         transform="matrix(1,0,0,-1,0,404.70831)"
         id="g56"><path
           id="path58"
           style="fill:none;stroke:#000000;stroke-width:3.37919998;stroke-linecap:square;stroke-linejoin:miter;stroke-miterlimit:10;stroke-dasharray:none;stroke-opacity:1"
           d="m 120.426,167.27 0,16.898" /></g><g
         transform="matrix(1,0,0,-1,0,404.70831)"
         id="g60"><path
           id="path62"
           style="fill:#ffffff;fill-opacity:1;fill-rule:nonzero;stroke:#000000;stroke-width:3.37919998;stroke-linecap:round;stroke-linejoin:round;stroke-miterlimit:10;stroke-dasharray:none;stroke-opacity:1"
           d="m 108.602,104.754 c 22.625,-0.301 23.652,0 23.652,0 l 0,60.828 -23.652,0 0,-60.828 z" /></g><path
         id="path64"
         style="fill:#000000;fill-opacity:1;fill-rule:nonzero;stroke:none"
         d="m 164.449,268.697 -3.203,5.218 -3.375,0 0,-5.218 -2.875,0 0,13.765 6.875,0 c 0.852,0 1.598,-0.101 2.234,-0.297 0.645,-0.187 1.18,-0.461 1.61,-0.812 0.437,-0.356 0.758,-0.789 0.969,-1.297 0.207,-0.5 0.312,-1.07 0.312,-1.703 0,-0.512 -0.078,-0.981 -0.234,-1.406 -0.149,-0.43 -0.356,-0.809 -0.625,-1.141 -0.274,-0.336 -0.594,-0.617 -0.969,-0.844 -0.367,-0.219 -0.766,-0.383 -1.203,-0.484 l 3.719,-5.781 -3.235,0 z m -0.344,9.546 c 0,0.665 -0.226,1.161 -0.671,1.485 -0.438,0.332 -1.063,0.5 -1.875,0.5 l -3.688,0 0,-4.063 3.766,0 c 0.437,0 0.804,0.047 1.109,0.141 0.313,0.102 0.566,0.25 0.766,0.437 0.195,0.188 0.343,0.407 0.437,0.657 0.102,0.25 0.156,0.531 0.156,0.843 z" /><path
         id="path66"
         style="fill:#000000;fill-opacity:1;fill-rule:nonzero;stroke:none"
         d="m 160.305,254.595 0,-2.797 -2.625,0 0,2.797 -6.266,0 0,2.063 5.813,8.906 3.078,0 0,-8.922 1.828,0 0,-2.047 -1.828,0 z m -2.625,6.547 c 0,0.113 0,0.258 0,0.437 0.008,0.176 0.019,0.36 0.031,0.547 0.008,0.188 0.016,0.367 0.016,0.547 0.007,0.176 0.023,0.313 0.046,0.406 -0.031,-0.074 -0.085,-0.179 -0.156,-0.312 -0.074,-0.137 -0.156,-0.281 -0.25,-0.438 -0.086,-0.148 -0.172,-0.296 -0.265,-0.453 -0.094,-0.148 -0.18,-0.273 -0.25,-0.375 l -3.188,-4.859 4.016,0 0,4.5 z" /><path
         id="path68"
         style="fill:#000000;fill-opacity:1;fill-rule:nonzero;stroke:none"
         d="m 172.652,263.376 c -0.625,-0.968 -1.214,-1.918 -1.765,-2.843 -0.543,-0.918 -1.024,-1.84 -1.438,-2.766 -0.406,-0.93 -0.73,-1.883 -0.969,-2.859 -0.242,-0.981 -0.359,-2.016 -0.359,-3.11 l -2.859,0 c 0,1.082 0.129,2.113 0.39,3.094 0.258,0.988 0.61,1.945 1.047,2.875 0.446,0.926 0.961,1.844 1.547,2.75 0.582,0.914 1.203,1.844 1.859,2.781 l -6.843,0 0,2.266 9.39,0 0,-2.188 z" /><path
         id="path70"
         style="fill:#000000;fill-opacity:1;fill-rule:nonzero;stroke:none"
         d="m 183.984,258.689 c 0,-1.324 -0.121,-2.438 -0.359,-3.344 -0.242,-0.898 -0.574,-1.625 -1,-2.187 -0.43,-0.555 -0.934,-0.954 -1.516,-1.204 -0.586,-0.238 -1.218,-0.359 -1.906,-0.359 -0.687,0 -1.324,0.121 -1.906,0.359 -0.574,0.25 -1.07,0.649 -1.485,1.204 -0.417,0.562 -0.746,1.289 -0.984,2.187 -0.23,0.906 -0.344,2.02 -0.344,3.344 0,1.383 0.114,2.531 0.344,3.437 0.227,0.907 0.551,1.629 0.969,2.172 0.426,0.539 0.93,0.922 1.515,1.141 0.594,0.219 1.25,0.328 1.969,0.328 0.676,0 1.301,-0.109 1.875,-0.328 0.571,-0.219 1.067,-0.602 1.485,-1.141 0.425,-0.543 0.754,-1.265 0.984,-2.172 0.238,-0.906 0.359,-2.054 0.359,-3.437 z m -2.75,0 c 0,0.969 -0.039,1.769 -0.109,2.406 -0.074,0.633 -0.187,1.141 -0.344,1.516 -0.156,0.375 -0.359,0.632 -0.609,0.781 -0.25,0.144 -0.555,0.219 -0.906,0.219 -0.387,0 -0.711,-0.078 -0.969,-0.235 -0.262,-0.148 -0.477,-0.414 -0.641,-0.797 -0.156,-0.375 -0.273,-0.882 -0.344,-1.515 -0.062,-0.625 -0.093,-1.418 -0.093,-2.375 0,-0.949 0.035,-1.742 0.109,-2.375 0.07,-0.625 0.188,-1.133 0.344,-1.516 0.156,-0.375 0.359,-0.64 0.609,-0.797 0.258,-0.156 0.571,-0.234 0.938,-0.234 0.363,0 0.672,0.078 0.922,0.234 0.257,0.157 0.468,0.422 0.625,0.797 0.164,0.383 0.285,0.891 0.359,1.516 0.07,0.633 0.109,1.426 0.109,2.375 z" /><path
         id="path72"
         style="fill:#000000;fill-opacity:1;fill-rule:nonzero;stroke:none"
         d="m 192.992,265.767 c 1.07,0 2.035,-0.137 2.891,-0.406 0.863,-0.262 1.594,-0.649 2.187,-1.157 0.602,-0.511 1.063,-1.132 1.375,-1.859 0.321,-0.719 0.485,-1.539 0.485,-2.453 0,-0.668 -0.078,-1.293 -0.235,-1.875 -0.156,-0.574 -0.406,-1.109 -0.75,-1.609 -0.336,-0.493 -0.765,-0.946 -1.297,-1.36 -0.523,-0.418 -1.148,-0.793 -1.875,-1.125 0.196,0.02 0.399,0.035 0.61,0.047 0.176,0.02 0.363,0.035 0.562,0.047 0.207,0.008 0.395,0.016 0.563,0.016 l 2.687,0 0,-2.235 -6.547,0 0,3.016 c 1.176,0.562 2.024,1.219 2.547,1.969 0.532,0.75 0.797,1.609 0.797,2.578 0,0.656 -0.09,1.238 -0.265,1.75 -0.18,0.519 -0.438,0.953 -0.782,1.297 -0.343,0.351 -0.765,0.625 -1.265,0.812 -0.5,0.188 -1.071,0.281 -1.703,0.281 -0.649,0 -1.219,-0.093 -1.719,-0.281 -0.5,-0.187 -0.922,-0.461 -1.266,-0.812 -0.344,-0.344 -0.605,-0.778 -0.781,-1.297 -0.18,-0.512 -0.266,-1.094 -0.266,-1.75 0,-0.969 0.266,-1.828 0.797,-2.578 0.531,-0.75 1.383,-1.407 2.563,-1.969 l 0,-3.016 -6.516,0 0,2.235 2.672,0 c 0.164,0 0.348,-0.008 0.547,-0.016 0.207,-0.012 0.398,-0.027 0.578,-0.047 0.207,-0.012 0.41,-0.027 0.609,-0.047 -0.73,0.332 -1.359,0.707 -1.89,1.125 -0.524,0.414 -0.95,0.867 -1.282,1.36 -0.335,0.5 -0.578,1.035 -0.734,1.609 -0.156,0.582 -0.234,1.207 -0.234,1.875 0,0.914 0.16,1.738 0.484,2.469 0.32,0.726 0.781,1.343 1.375,1.843 0.602,0.508 1.332,0.895 2.188,1.157 0.851,0.269 1.816,0.406 2.89,0.406 z" /><path
         id="path74"
         style="fill:#000000;fill-opacity:1;fill-rule:nonzero;stroke:none"
         d="m 118.738,68.478 3.379,0 0,-3.379 -3.379,0 0,3.379 z" /><g
         transform="matrix(1,0,0,-1,0,404.70831)"
         id="g76"><path
           id="path78"
           style="fill:none;stroke:#000000;stroke-width:3.37919998;stroke-linecap:square;stroke-linejoin:miter;stroke-miterlimit:10;stroke-dasharray:none;stroke-opacity:1"
           d="m 120.426,339.609 0,30.414" /></g><g
         transform="matrix(1,0,0,-1,0,404.70831)"
         id="g80"><path
           id="path82"
           style="fill:#ffffff;fill-opacity:1;fill-rule:nonzero;stroke:#000000;stroke-width:3.37919998;stroke-linecap:square;stroke-linejoin:round;stroke-miterlimit:10;stroke-dasharray:none;stroke-opacity:1"
           d="m 101.84,370.918 37.172,0 -18.586,32.102 -18.586,-32.102 z" /></g><path
         id="path84"
         style="fill:#000000;fill-opacity:1;fill-rule:nonzero;stroke:none"
         d="m 118.738,51.583 3.379,0 0,-3.379 -3.379,0 0,3.379 z" /><path
         id="path86"
         style="fill:#000000;fill-opacity:1;fill-rule:nonzero;stroke:none"
         d="m 118.738,152.958 3.379,0 0,-3.379 -3.379,0 0,3.379 z" /><g
         transform="translate(0,404.70831)"
         id="g88"><path
           id="path90"
           style="fill:none;stroke:#000000;stroke-width:3.37919998;stroke-linecap:round;stroke-linejoin:miter;stroke-miterlimit:10;stroke-dasharray:none;stroke-opacity:1"
           d="m 106.91,-317.215 27.035,0" /></g><g
         transform="translate(0,404.70831)"
         id="g92"><path
           id="path94"
           style="fill:#000000;fill-opacity:1;fill-rule:nonzero;stroke:#000000;stroke-width:2.52031994;stroke-linecap:round;stroke-linejoin:round;stroke-miterlimit:10;stroke-dasharray:none;stroke-opacity:1"
           d="m 120.188,-316.738 -13.278,24.867 26.563,0 -13.285,-24.867 z" /></g><g
         transform="translate(0,404.70831)"
         id="g96"><path
           id="path98"
           style="fill:none;stroke:#000000;stroke-width:3.37919998;stroke-linecap:square;stroke-linejoin:miter;stroke-miterlimit:10;stroke-dasharray:none;stroke-opacity:1"
           d="m 120.426,-353.125 0,97.996" /></g><g
         transform="translate(0,404.70831)"
         id="g100"><path
           id="path102"
           style="fill:#000000;fill-opacity:1;fill-rule:nonzero;stroke:#000000;stroke-width:1.68959999;stroke-linecap:square;stroke-linejoin:round;stroke-miterlimit:10;stroke-dasharray:none;stroke-opacity:1"
           d="m 151.254,-323.102 7.168,7.176 4.781,-11.949 -11.949,4.773 z" /></g><g
         transform="translate(0,404.70831)"
         id="g104"><path
           id="path106"
           style="fill:none;stroke:#000000;stroke-width:3.37919998;stroke-linecap:round;stroke-linejoin:round;stroke-miterlimit:10;stroke-dasharray:none;stroke-opacity:1"
           d="m 144.09,-308.816 14.332,-14.332" /></g><g
         transform="translate(0,404.70831)"
         id="g108"><path
           id="path110"
           style="fill:#000000;fill-opacity:1;fill-rule:nonzero;stroke:#000000;stroke-width:1.68959999;stroke-linecap:round;stroke-linejoin:round;stroke-miterlimit:10;stroke-dasharray:none;stroke-opacity:1"
           d="m 148.418,-341.785 7.172,7.176 4.773,-11.957 -11.945,4.781 z" /></g><g
         transform="translate(0,404.70831)"
         id="g112"><path
           id="path114"
           style="fill:none;stroke:#000000;stroke-width:3.37919998;stroke-linecap:round;stroke-linejoin:round;stroke-miterlimit:10;stroke-dasharray:none;stroke-opacity:1"
           d="m 141.25,-327.418 14.34,-14.34" /></g><g
         transform="matrix(1,0,0,-1,0,404.70831)"
         id="g116"><path
           id="path118"
           style="fill:none;stroke:#000000;stroke-width:3.37919998;stroke-linecap:butt;stroke-linejoin:miter;stroke-miterlimit:10;stroke-dasharray:none;stroke-opacity:1"
           d="m 120.426,185.855 0,67.586" /></g><g
         transform="matrix(1,0,0,-1,0,404.70831)"
         id="g120"><path
           id="path122"
           style="fill:none;stroke:#000000;stroke-width:3.37919998;stroke-linecap:butt;stroke-linejoin:miter;stroke-miterlimit:10;stroke-dasharray:none;stroke-opacity:1"
           d="m 120.426,354.816 0,-16.894" /></g><path
         id="path124"
         style="fill:#000000;fill-opacity:1;fill-rule:nonzero;stroke:none"
         d="m 118.738,203.646 3.379,0 0,-3.379 -3.379,0 0,3.379 z" /><g
         transform="matrix(0,1,1,0,0,404.70831)"
         id="g126"><path
           id="path128"
           style="fill:none;stroke:#000000;stroke-width:3.37919998;stroke-linecap:square;stroke-linejoin:miter;stroke-miterlimit:10;stroke-dasharray:none;stroke-opacity:1"
           d="m -233.164,120.426 28.723,0" /></g><g
         transform="matrix(0,1,1,0,0,404.70831)"
         id="g130"><path
           id="path132"
           style="fill:none;stroke:#000000;stroke-width:3.37919998;stroke-linecap:square;stroke-linejoin:miter;stroke-miterlimit:10;stroke-dasharray:none;stroke-opacity:1"
           d="m -224.871,110.867 -9.547,9.559 9.547,9.562" /></g><path
         id="path134"
         style="fill:#000000;fill-opacity:1;fill-rule:nonzero;stroke:none"
         d="m 154.434,197.982 2.875,0 0,-13.766 -2.875,0 0,13.766 z" /><path
         id="path136"
         style="fill:#000000;fill-opacity:1;fill-rule:nonzero;stroke:none"
         d="m 163.34,192.935 0,-8.719 -2.735,0 0,8.719 -1.546,0 0,1.844 1.546,0 0,1.109 c 0,0.406 0.047,0.773 0.141,1.109 0.094,0.344 0.254,0.641 0.484,0.891 0.239,0.258 0.555,0.461 0.954,0.609 0.406,0.145 0.906,0.219 1.5,0.219 0.312,0 0.617,-0.023 0.921,-0.062 0.301,-0.032 0.571,-0.063 0.813,-0.094 l 0,-1.781 c -0.117,0.031 -0.25,0.05 -0.406,0.062 -0.149,0.02 -0.278,0.031 -0.391,0.031 -0.262,0 -0.476,-0.027 -0.641,-0.078 -0.168,-0.054 -0.296,-0.133 -0.39,-0.234 -0.094,-0.106 -0.164,-0.242 -0.203,-0.406 -0.032,-0.157 -0.047,-0.34 -0.047,-0.547 l 0,-0.828 2.078,0 0,-1.844 -2.078,0 z" /><path
         id="path138"
         style="fill:#000000;fill-opacity:1;fill-rule:nonzero;stroke:none"
         d="m 150.668,167.318 0,2.047 3.406,0 0,9.375 -3.297,-2.063 0,2.172 3.438,2.234 2.594,0 0,-11.718 3.156,0 0,-2.047 -9.297,0 z" /><path
         id="path140"
         style="fill:#000000;fill-opacity:1;fill-rule:nonzero;stroke:none"
         d="m 164.906,167.958 c 0,-0.437 -0.027,-0.832 -0.078,-1.187 -0.043,-0.352 -0.109,-0.68 -0.203,-0.985 -0.094,-0.312 -0.211,-0.593 -0.344,-0.843 -0.125,-0.25 -0.265,-0.489 -0.422,-0.719 l -1.812,0 c 0.187,0.23 0.359,0.469 0.515,0.719 0.157,0.25 0.29,0.511 0.407,0.781 0.125,0.273 0.219,0.543 0.281,0.812 0.062,0.262 0.094,0.524 0.094,0.782 l -1.266,0 0,2.984 2.828,0 0,-2.344 z" /><path
         id="path142"
         style="fill:#000000;fill-opacity:1;fill-rule:nonzero;stroke:none"
         d="m 176.715,171.13 c 0,-0.625 -0.106,-1.187 -0.313,-1.687 -0.211,-0.492 -0.515,-0.914 -0.922,-1.266 -0.406,-0.355 -0.918,-0.625 -1.531,-0.812 -0.605,-0.176 -1.312,-0.266 -2.125,-0.266 -0.898,0 -1.652,0.109 -2.265,0.328 -0.618,0.227 -1.121,0.531 -1.516,0.906 -0.398,0.375 -0.695,0.801 -0.891,1.282 -0.199,0.476 -0.328,0.957 -0.39,1.437 l 2.797,0.25 c 0.039,-0.293 0.113,-0.562 0.218,-0.812 0.114,-0.243 0.258,-0.45 0.438,-0.625 0.187,-0.18 0.41,-0.313 0.672,-0.407 0.258,-0.093 0.57,-0.14 0.937,-0.14 0.656,0 1.164,0.16 1.531,0.484 0.364,0.332 0.547,0.832 0.547,1.5 0,0.406 -0.09,0.734 -0.265,0.984 -0.168,0.25 -0.387,0.442 -0.657,0.579 -0.261,0.132 -0.546,0.222 -0.859,0.265 -0.305,0.039 -0.59,0.063 -0.859,0.063 l -0.953,0 0,2.218 0.89,0 c 0.27,0 0.547,0.024 0.828,0.079 0.289,0.05 0.551,0.144 0.782,0.281 0.226,0.133 0.41,0.32 0.546,0.562 0.145,0.25 0.219,0.567 0.219,0.953 0,0.563 -0.164,1.004 -0.484,1.329 -0.313,0.32 -0.774,0.484 -1.375,0.484 -0.563,0 -1.024,-0.156 -1.375,-0.469 -0.344,-0.312 -0.543,-0.758 -0.594,-1.328 l -2.75,0.188 c 0.082,0.644 0.258,1.203 0.531,1.671 0.282,0.477 0.629,0.875 1.047,1.188 0.426,0.312 0.91,0.547 1.453,0.703 0.551,0.156 1.129,0.234 1.735,0.234 0.812,0 1.504,-0.101 2.078,-0.296 0.582,-0.2 1.055,-0.465 1.422,-0.797 0.375,-0.325 0.648,-0.711 0.828,-1.157 0.176,-0.437 0.265,-0.914 0.265,-1.421 0,-0.399 -0.058,-0.774 -0.171,-1.125 -0.118,-0.344 -0.293,-0.657 -0.532,-0.938 -0.242,-0.273 -0.547,-0.508 -0.922,-0.703 -0.367,-0.199 -0.804,-0.352 -1.312,-0.453 l 0,-0.031 c 0.562,-0.075 1.051,-0.204 1.469,-0.391 0.414,-0.188 0.758,-0.43 1.031,-0.719 0.27,-0.281 0.469,-0.605 0.594,-0.969 0.133,-0.367 0.203,-0.75 0.203,-1.156 z" /><path
         id="path144"
         style="fill:#000000;fill-opacity:1;fill-rule:nonzero;stroke:none"
         d="m 188.113,171.193 c 0,-0.594 -0.101,-1.141 -0.297,-1.641 -0.199,-0.492 -0.5,-0.918 -0.906,-1.281 -0.398,-0.367 -0.906,-0.653 -1.531,-0.86 -0.617,-0.195 -1.352,-0.296 -2.203,-0.296 -0.844,0 -1.578,0.101 -2.203,0.296 -0.625,0.207 -1.141,0.493 -1.547,0.86 -0.406,0.363 -0.711,0.789 -0.906,1.281 -0.188,0.5 -0.282,1.039 -0.282,1.625 0,0.5 0.078,0.941 0.235,1.328 0.156,0.383 0.363,0.719 0.625,1 0.257,0.281 0.554,0.504 0.89,0.672 0.344,0.164 0.692,0.281 1.047,0.344 l 0,0.031 c -0.387,0.082 -0.734,0.223 -1.047,0.422 -0.304,0.195 -0.562,0.43 -0.781,0.703 -0.211,0.27 -0.371,0.57 -0.484,0.906 -0.118,0.344 -0.172,0.696 -0.172,1.063 0,0.539 0.097,1.035 0.297,1.484 0.195,0.446 0.488,0.832 0.875,1.156 0.382,0.321 0.863,0.567 1.437,0.735 0.57,0.176 1.227,0.265 1.969,0.265 0.801,0 1.492,-0.093 2.078,-0.281 0.582,-0.179 1.063,-0.429 1.438,-0.75 0.382,-0.312 0.664,-0.699 0.843,-1.156 0.188,-0.449 0.282,-0.945 0.282,-1.484 0,-0.356 -0.059,-0.7 -0.172,-1.032 -0.118,-0.336 -0.282,-0.64 -0.5,-0.922 -0.211,-0.273 -0.469,-0.5 -0.782,-0.687 -0.312,-0.188 -0.664,-0.324 -1.046,-0.406 l 0,-0.032 c 0.394,-0.062 0.765,-0.183 1.109,-0.359 0.351,-0.168 0.656,-0.391 0.906,-0.672 0.258,-0.281 0.461,-0.617 0.61,-1 0.144,-0.387 0.218,-0.824 0.218,-1.312 z m -3.172,6.281 c 0,0.269 -0.031,0.519 -0.093,0.75 -0.055,0.238 -0.149,0.441 -0.282,0.609 -0.136,0.164 -0.324,0.297 -0.562,0.391 -0.231,0.094 -0.524,0.141 -0.875,0.141 -0.336,0 -0.617,-0.047 -0.844,-0.141 -0.23,-0.094 -0.414,-0.227 -0.547,-0.391 -0.136,-0.168 -0.234,-0.371 -0.297,-0.609 -0.054,-0.231 -0.078,-0.481 -0.078,-0.75 0,-0.242 0.02,-0.481 0.063,-0.719 0.051,-0.23 0.14,-0.437 0.265,-0.625 0.133,-0.187 0.317,-0.34 0.547,-0.453 0.239,-0.117 0.547,-0.172 0.922,-0.172 0.383,0 0.695,0.055 0.938,0.172 0.238,0.113 0.422,0.266 0.547,0.453 0.125,0.196 0.203,0.41 0.234,0.641 0.039,0.238 0.062,0.472 0.062,0.703 z m 0.329,-6.047 c 0,0.27 -0.032,0.535 -0.094,0.797 -0.063,0.258 -0.18,0.488 -0.344,0.687 -0.156,0.207 -0.375,0.368 -0.656,0.485 -0.281,0.125 -0.637,0.187 -1.063,0.187 -0.386,0 -0.715,-0.062 -0.984,-0.187 -0.262,-0.117 -0.477,-0.278 -0.641,-0.485 -0.156,-0.199 -0.273,-0.433 -0.343,-0.703 -0.063,-0.261 -0.094,-0.539 -0.094,-0.828 0,-0.344 0.031,-0.664 0.094,-0.953 0.07,-0.281 0.191,-0.527 0.359,-0.734 0.164,-0.2 0.383,-0.356 0.656,-0.469 0.281,-0.117 0.625,-0.172 1.031,-0.172 0.414,0 0.754,0.055 1.016,0.172 0.27,0.113 0.484,0.273 0.641,0.484 0.156,0.207 0.265,0.457 0.328,0.75 0.062,0.289 0.094,0.614 0.094,0.969 z" /><path
         id="path146"
         style="fill:#000000;fill-opacity:1;fill-rule:nonzero;stroke:none"
         d="m 196.508,167.318 0,5.922 c 0,0.414 -0.031,0.789 -0.094,1.125 -0.055,0.343 -0.141,0.632 -0.266,0.875 -0.125,0.25 -0.293,0.441 -0.5,0.578 -0.21,0.144 -0.46,0.218 -0.75,0.218 -0.281,0 -0.539,-0.078 -0.765,-0.234 -0.231,-0.148 -0.43,-0.355 -0.594,-0.625 -0.156,-0.262 -0.281,-0.578 -0.375,-0.953 -0.094,-0.375 -0.141,-0.789 -0.141,-1.234 l 0,-5.672 -2.75,0 0,8.203 c 0,0.226 0,0.461 0,0.703 0,0.238 -0.007,0.469 -0.015,0.687 -0.012,0.219 -0.024,0.411 -0.031,0.579 0,0.175 -0.012,0.304 -0.032,0.39 l 2.625,0 c 0.008,-0.074 0.02,-0.199 0.032,-0.375 0.019,-0.168 0.035,-0.355 0.046,-0.562 0.008,-0.211 0.02,-0.418 0.032,-0.625 0.008,-0.211 0.015,-0.387 0.015,-0.532 l 0.047,0 c 0.332,0.801 0.75,1.383 1.25,1.75 0.508,0.364 1.113,0.547 1.813,0.547 0.812,0 1.461,-0.199 1.953,-0.593 0.488,-0.387 0.82,-0.954 1,-1.704 l 0.047,0 c 0.187,0.438 0.39,0.801 0.609,1.094 0.219,0.289 0.457,0.524 0.719,0.703 0.269,0.176 0.555,0.301 0.859,0.375 0.313,0.082 0.649,0.125 1.016,0.125 0.582,0 1.07,-0.105 1.469,-0.312 0.406,-0.211 0.734,-0.496 0.984,-0.86 0.25,-0.367 0.43,-0.796 0.547,-1.296 0.113,-0.493 0.172,-1.024 0.172,-1.594 l 0,-6.703 -2.735,0 0,5.922 c 0,0.414 -0.027,0.789 -0.078,1.125 -0.055,0.343 -0.148,0.632 -0.281,0.875 -0.125,0.25 -0.293,0.441 -0.5,0.578 -0.199,0.144 -0.445,0.218 -0.734,0.218 -0.274,0 -0.524,-0.074 -0.75,-0.218 -0.219,-0.137 -0.414,-0.336 -0.579,-0.594 -0.168,-0.262 -0.296,-0.57 -0.39,-0.922 -0.094,-0.355 -0.149,-0.75 -0.156,-1.187 l 0,-5.797 -2.719,0 z" /><path
         id="path148"
         style="fill:#000000;fill-opacity:1;fill-rule:nonzero;stroke:none"
         d="m 217.961,167.318 -1.219,3.515 -5.25,0 -1.219,-3.515 -2.875,0 5.016,13.765 3.406,0 5,-13.765 -2.859,0 z m -3.219,9.64 c -0.086,0.227 -0.164,0.457 -0.234,0.688 -0.074,0.226 -0.141,0.437 -0.203,0.625 -0.055,0.195 -0.094,0.359 -0.125,0.484 -0.032,0.125 -0.055,0.192 -0.063,0.203 -0.012,-0.023 -0.031,-0.093 -0.062,-0.218 -0.032,-0.125 -0.078,-0.282 -0.141,-0.469 -0.055,-0.188 -0.117,-0.399 -0.187,-0.625 -0.075,-0.231 -0.149,-0.461 -0.219,-0.688 l -1.36,-3.953 3.954,0 -1.36,3.953 z" /><path
         id="path150"
         style="fill:#000000;fill-opacity:1;fill-rule:nonzero;stroke:none"
         d="m 68.051,136.064 3.379,0 0,-3.383 -3.379,0 0,3.383 z" /><g
         transform="matrix(0,-1,-1,0,0,404.70831)"
         id="g152"><path
           id="path154"
           style="fill:none;stroke:#000000;stroke-width:3.37919998;stroke-linecap:square;stroke-linejoin:miter;stroke-miterlimit:10;stroke-dasharray:none;stroke-opacity:1"
           d="m 239.922,-69.738 28.723,0" /></g><g
         transform="matrix(0,-1,-1,0,0,404.70831)"
         id="g156"><path
           id="path158"
           style="fill:none;stroke:#000000;stroke-width:3.37919998;stroke-linecap:square;stroke-linejoin:miter;stroke-miterlimit:10;stroke-dasharray:none;stroke-opacity:1"
           d="m 248.215,-79.301 -9.543,9.563 9.543,9.558" /></g><path
         id="path160"
         style="fill:#000000;fill-opacity:1;fill-rule:nonzero;stroke:none"
         d="m -0.016,82.841 0,1.906 c 0.313,0.688 0.692,1.301 1.141,1.844 0.457,0.551 0.93,1.055 1.422,1.516 0.488,0.457 0.973,0.883 1.453,1.281 0.488,0.395 0.926,0.773 1.312,1.141 0.395,0.375 0.711,0.742 0.954,1.109 0.238,0.375 0.359,0.77 0.359,1.188 0,0.613 -0.156,1.066 -0.469,1.359 -0.304,0.289 -0.75,0.437 -1.344,0.437 -0.585,0 -1.031,-0.164 -1.343,-0.484 -0.305,-0.312 -0.5,-0.781 -0.594,-1.406 l -2.766,0.156 c 0.063,0.531 0.192,1.035 0.391,1.516 0.207,0.476 0.5,0.894 0.875,1.25 0.375,0.351 0.844,0.632 1.406,0.843 0.563,0.207 1.235,0.313 2.016,0.313 0.738,0 1.394,-0.09 1.969,-0.266 0.57,-0.168 1.05,-0.418 1.437,-0.75 0.395,-0.336 0.692,-0.742 0.891,-1.218 0.207,-0.481 0.312,-1.028 0.312,-1.641 0,-0.649 -0.133,-1.231 -0.39,-1.75 -0.25,-0.524 -0.575,-1 -0.969,-1.438 C 7.648,89.31 7.207,88.896 6.719,88.513 6.238,88.126 5.77,87.751 5.312,87.388 4.852,87.021 4.438,86.654 4.062,86.279 3.688,85.911 3.41,85.517 3.234,85.091 l 6.391,0 0,-2.25 -9.641,0 z" /><path
         id="path162"
         style="fill:#000000;fill-opacity:1;fill-rule:nonzero;stroke:none"
         d="m 14.801,83.482 c 0,-0.438 -0.028,-0.832 -0.078,-1.188 -0.043,-0.351 -0.11,-0.679 -0.203,-0.984 -0.094,-0.313 -0.211,-0.594 -0.344,-0.844 -0.125,-0.25 -0.266,-0.488 -0.422,-0.719 l -1.813,0 c 0.188,0.231 0.36,0.469 0.516,0.719 0.156,0.25 0.289,0.512 0.406,0.781 0.125,0.274 0.219,0.543 0.282,0.813 0.062,0.262 0.093,0.523 0.093,0.781 l -1.265,0 0,2.985 2.828,0 0,-2.344 z" /><path
         id="path164"
         style="fill:#000000;fill-opacity:1;fill-rule:nonzero;stroke:none"
         d="m 26.613,87.341 c 0,-0.687 -0.101,-1.324 -0.297,-1.906 -0.199,-0.574 -0.492,-1.07 -0.875,-1.484 -0.386,-0.407 -0.871,-0.731 -1.453,-0.969 -0.574,-0.227 -1.246,-0.344 -2.015,-0.344 -1.618,0 -2.86,0.566 -3.735,1.703 -0.867,1.145 -1.297,2.832 -1.297,5.063 0,2.457 0.438,4.304 1.313,5.547 0.883,1.238 2.148,1.859 3.797,1.859 0.539,0 1.035,-0.059 1.484,-0.172 0.457,-0.117 0.86,-0.305 1.203,-0.562 0.352,-0.25 0.657,-0.579 0.907,-0.985 0.25,-0.398 0.445,-0.883 0.593,-1.453 l -2.593,-0.359 c -0.125,0.476 -0.336,0.82 -0.625,1.031 -0.293,0.219 -0.637,0.328 -1.032,0.328 -0.742,0 -1.32,-0.371 -1.734,-1.109 -0.418,-0.731 -0.625,-1.844 -0.625,-3.344 0.289,0.488 0.695,0.863 1.219,1.125 0.519,0.258 1.109,0.391 1.765,0.391 0.602,0 1.149,-0.102 1.641,-0.297 0.5,-0.2 0.922,-0.485 1.266,-0.86 0.343,-0.375 0.609,-0.836 0.796,-1.375 0.196,-0.543 0.297,-1.152 0.297,-1.828 z m -2.765,-0.078 c 0,0.375 -0.043,0.707 -0.125,1 -0.086,0.301 -0.215,0.555 -0.391,0.766 -0.168,0.207 -0.383,0.367 -0.641,0.484 -0.25,0.113 -0.543,0.172 -0.875,0.172 -0.242,0 -0.48,-0.043 -0.718,-0.125 -0.243,-0.074 -0.453,-0.199 -0.641,-0.375 -0.187,-0.18 -0.344,-0.402 -0.469,-0.672 -0.117,-0.262 -0.172,-0.578 -0.172,-0.953 0,-0.399 0.047,-0.766 0.141,-1.109 0.102,-0.336 0.242,-0.625 0.422,-0.875 0.176,-0.25 0.391,-0.45 0.641,-0.594 0.257,-0.137 0.55,-0.203 0.875,-0.203 0.613,0 1.093,0.218 1.437,0.656 0.344,0.445 0.516,1.055 0.516,1.828 z" /><path
         id="path166"
         style="fill:#000000;fill-opacity:1;fill-rule:nonzero;stroke:none"
         d="m 38.055,87.419 c 0,-0.687 -0.11,-1.324 -0.328,-1.906 -0.219,-0.586 -0.543,-1.09 -0.969,-1.516 -0.43,-0.429 -0.961,-0.761 -1.594,-1 -0.637,-0.238 -1.371,-0.359 -2.203,-0.359 -0.773,0 -1.445,0.094 -2.016,0.281 -0.574,0.188 -1.058,0.442 -1.453,0.766 -0.387,0.332 -0.695,0.719 -0.922,1.156 -0.218,0.445 -0.375,0.926 -0.468,1.438 l 2.75,0.218 c 0.05,-0.211 0.125,-0.418 0.218,-0.625 0.094,-0.199 0.223,-0.375 0.391,-0.531 0.176,-0.156 0.383,-0.281 0.625,-0.375 0.25,-0.094 0.551,-0.14 0.906,-0.14 0.688,0 1.235,0.218 1.641,0.656 0.406,0.437 0.609,1.062 0.609,1.875 0,0.363 -0.054,0.691 -0.156,0.984 -0.106,0.301 -0.25,0.555 -0.438,0.766 -0.179,0.207 -0.402,0.363 -0.671,0.469 -0.274,0.113 -0.579,0.171 -0.922,0.171 -0.461,0 -0.836,-0.089 -1.125,-0.265 -0.293,-0.168 -0.543,-0.375 -0.75,-0.625 l -2.672,0 0.484,7.75 8.266,0 0,-2.047 -5.781,0 -0.219,-3.469 c 0.269,0.238 0.613,0.442 1.031,0.61 0.414,0.175 0.899,0.265 1.453,0.265 0.676,0 1.281,-0.117 1.813,-0.344 0.539,-0.218 0.992,-0.527 1.359,-0.921 0.375,-0.399 0.656,-0.875 0.844,-1.438 0.195,-0.555 0.297,-1.168 0.297,-1.844 z" /><path
         id="path168"
         style="fill:#000000;fill-opacity:1;fill-rule:nonzero;stroke:none"
         d="m 46.918,82.841 -2.922,0 -5.078,13.766 3,0 2.844,-8.844 c 0.082,-0.293 0.164,-0.594 0.25,-0.906 0.093,-0.305 0.172,-0.578 0.234,-0.828 0.082,-0.305 0.16,-0.59 0.234,-0.86 0.063,0.258 0.129,0.539 0.204,0.844 0.062,0.238 0.132,0.516 0.218,0.828 0.094,0.313 0.188,0.617 0.282,0.922 l 2.812,8.844 2.984,0 -5.062,-13.766 z" /><path
         id="path170"
         style="fill:#000000;fill-opacity:1;fill-rule:nonzero;stroke:none"
         d="m 25.48,99.736 -2.921,0 -5.079,13.765 3,0 2.844,-8.843 c 0.082,-0.293 0.164,-0.594 0.25,-0.907 0.094,-0.304 0.172,-0.578 0.235,-0.828 0.082,-0.305 0.16,-0.59 0.234,-0.859 0.062,0.258 0.129,0.539 0.203,0.844 0.063,0.238 0.133,0.515 0.219,0.828 0.094,0.312 0.187,0.617 0.281,0.922 l 2.813,8.843 2.984,0 -5.063,-13.765 z" /><path
         id="path172"
         style="fill:#000000;fill-opacity:1;fill-rule:nonzero;stroke:none"
         d="m 35.508,108.454 0,-8.718 -2.735,0 0,8.718 -1.546,0 0,1.844 1.546,0 0,1.11 c 0,0.406 0.047,0.773 0.141,1.109 0.094,0.344 0.254,0.641 0.484,0.891 0.239,0.257 0.555,0.46 0.954,0.609 0.406,0.144 0.906,0.219 1.5,0.219 0.312,0 0.617,-0.024 0.921,-0.063 0.301,-0.031 0.571,-0.062 0.813,-0.094 l 0,-1.781 c -0.117,0.031 -0.25,0.051 -0.406,0.063 -0.149,0.019 -0.278,0.031 -0.391,0.031 -0.262,0 -0.477,-0.027 -0.641,-0.078 -0.168,-0.055 -0.296,-0.133 -0.39,-0.235 -0.094,-0.105 -0.164,-0.242 -0.203,-0.406 -0.032,-0.156 -0.047,-0.34 -0.047,-0.547 l 0,-0.828 2.078,0 0,-1.844 -2.078,0 z" /><path
         id="path174"
         style="fill:#000000;fill-opacity:1;fill-rule:nonzero;stroke:none"
         d="m 68.051,68.478 3.379,0 0,-3.379 -3.379,0 0,3.379 z" /><g
         transform="matrix(1,0,0,-1,0,404.70831)"
         id="g176"><path
           id="path178"
           style="fill:none;stroke:#000000;stroke-width:3.37919998;stroke-linecap:square;stroke-linejoin:miter;stroke-miterlimit:10;stroke-dasharray:none;stroke-opacity:1"
           d="m 69.738,339.609 0,30.414" /></g><g
         transform="matrix(1,0,0,-1,0,404.70831)"
         id="g180"><path
           id="path182"
           style="fill:none;stroke:#000000;stroke-width:3.37919998;stroke-linecap:butt;stroke-linejoin:miter;stroke-miterlimit:10;stroke-dasharray:none;stroke-opacity:1"
           d="m 69.738,270.336 0,67.586" /></g><path
         id="path184"
         style="fill:#000000;fill-opacity:1;fill-rule:nonzero;stroke:none"
         d="m 68.051,321.919 3.379,0 0,-3.379 -3.379,0 0,3.379 z" /><g
         transform="matrix(0,-1,-1,0,0,404.70831)"
         id="g186"><path
           id="path188"
           style="fill:none;stroke:#000000;stroke-width:3.37919998;stroke-linecap:square;stroke-linejoin:miter;stroke-miterlimit:10;stroke-dasharray:none;stroke-opacity:1"
           d="m 54.066,-69.738 28.723,0" /></g><g
         transform="matrix(0,-1,-1,0,0,404.70831)"
         id="g190"><path
           id="path192"
           style="fill:none;stroke:#000000;stroke-width:3.37919998;stroke-linecap:square;stroke-linejoin:miter;stroke-miterlimit:10;stroke-dasharray:none;stroke-opacity:1"
           d="m 62.359,-79.301 -9.547,9.563 9.547,9.558" /></g><path
         id="path194"
         style="fill:#000000;fill-opacity:1;fill-rule:nonzero;stroke:none"
         d="m 9.594,275.587 c 0,-1.324 -0.121,-2.437 -0.36,-3.344 -0.242,-0.898 -0.574,-1.625 -1,-2.187 -0.429,-0.555 -0.933,-0.953 -1.515,-1.203 -0.586,-0.238 -1.219,-0.36 -1.907,-0.36 -0.687,0 -1.324,0.122 -1.906,0.36 -0.574,0.25 -1.07,0.648 -1.484,1.203 -0.418,0.562 -0.746,1.289 -0.984,2.187 -0.231,0.907 -0.344,2.02 -0.344,3.344 0,1.383 0.113,2.531 0.344,3.438 0.226,0.906 0.55,1.629 0.968,2.172 0.426,0.539 0.93,0.921 1.516,1.14 0.594,0.219 1.25,0.328 1.969,0.328 0.675,0 1.3,-0.109 1.875,-0.328 0.57,-0.219 1.066,-0.601 1.484,-1.14 0.426,-0.543 0.754,-1.266 0.984,-2.172 0.239,-0.907 0.36,-2.055 0.36,-3.438 z m -2.75,0 c 0,0.969 -0.039,1.77 -0.11,2.406 -0.074,0.633 -0.187,1.141 -0.343,1.516 -0.157,0.375 -0.36,0.633 -0.61,0.781 -0.25,0.145 -0.554,0.219 -0.906,0.219 -0.387,0 -0.711,-0.078 -0.969,-0.234 -0.261,-0.149 -0.476,-0.414 -0.64,-0.797 -0.157,-0.375 -0.274,-0.883 -0.344,-1.516 -0.063,-0.625 -0.094,-1.418 -0.094,-2.375 0,-0.949 0.035,-1.742 0.11,-2.375 0.07,-0.625 0.187,-1.133 0.343,-1.515 0.157,-0.375 0.36,-0.641 0.61,-0.797 0.257,-0.157 0.57,-0.235 0.937,-0.235 0.363,0 0.672,0.078 0.922,0.235 0.258,0.156 0.469,0.422 0.625,0.797 0.164,0.382 0.285,0.89 0.359,1.515 0.071,0.633 0.11,1.426 0.11,2.375 z" /><path
         id="path196"
         style="fill:#000000;fill-opacity:1;fill-rule:nonzero;stroke:none"
         d="m 14.801,269.337 c 0,-0.437 -0.028,-0.832 -0.078,-1.187 -0.043,-0.352 -0.11,-0.68 -0.203,-0.985 -0.094,-0.312 -0.211,-0.593 -0.344,-0.843 -0.125,-0.25 -0.266,-0.489 -0.422,-0.719 l -1.813,0 c 0.188,0.23 0.36,0.469 0.516,0.719 0.156,0.25 0.289,0.511 0.406,0.781 0.125,0.273 0.219,0.543 0.282,0.812 0.062,0.262 0.093,0.524 0.093,0.782 l -1.265,0 0,2.984 2.828,0 0,-2.344 z" /><path
         id="path198"
         style="fill:#000000;fill-opacity:1;fill-rule:nonzero;stroke:none"
         d="m 26.613,273.197 c 0,-0.688 -0.101,-1.325 -0.297,-1.907 -0.199,-0.574 -0.492,-1.07 -0.875,-1.484 -0.386,-0.406 -0.871,-0.73 -1.453,-0.969 -0.574,-0.226 -1.246,-0.344 -2.015,-0.344 -1.618,0 -2.86,0.567 -3.735,1.704 -0.867,1.144 -1.297,2.832 -1.297,5.062 0,2.457 0.438,4.305 1.313,5.547 0.883,1.238 2.148,1.859 3.797,1.859 0.539,0 1.035,-0.058 1.484,-0.172 0.457,-0.117 0.86,-0.304 1.203,-0.562 0.352,-0.25 0.657,-0.578 0.907,-0.984 0.25,-0.399 0.445,-0.883 0.593,-1.454 l -2.593,-0.359 c -0.125,0.477 -0.336,0.82 -0.625,1.031 -0.293,0.219 -0.637,0.328 -1.032,0.328 -0.742,0 -1.32,-0.371 -1.734,-1.109 -0.418,-0.73 -0.625,-1.844 -0.625,-3.344 0.289,0.489 0.695,0.864 1.219,1.125 0.519,0.258 1.109,0.391 1.765,0.391 0.602,0 1.149,-0.102 1.641,-0.297 0.5,-0.199 0.922,-0.484 1.266,-0.859 0.343,-0.375 0.609,-0.836 0.796,-1.375 0.196,-0.543 0.297,-1.153 0.297,-1.828 z m -2.765,-0.079 c 0,0.375 -0.043,0.708 -0.125,1 -0.086,0.301 -0.215,0.555 -0.391,0.766 -0.168,0.207 -0.383,0.367 -0.641,0.484 -0.25,0.114 -0.543,0.172 -0.875,0.172 -0.242,0 -0.48,-0.043 -0.718,-0.125 -0.243,-0.074 -0.453,-0.199 -0.641,-0.375 -0.187,-0.179 -0.344,-0.402 -0.469,-0.672 -0.117,-0.261 -0.172,-0.578 -0.172,-0.953 0,-0.398 0.047,-0.765 0.141,-1.109 0.102,-0.336 0.242,-0.625 0.422,-0.875 0.176,-0.25 0.391,-0.449 0.641,-0.594 0.257,-0.136 0.55,-0.203 0.875,-0.203 0.613,0 1.093,0.219 1.437,0.656 0.344,0.446 0.516,1.055 0.516,1.828 z" /><path
         id="path200"
         style="fill:#000000;fill-opacity:1;fill-rule:nonzero;stroke:none"
         d="m 38.055,273.275 c 0,-0.688 -0.11,-1.324 -0.328,-1.907 -0.219,-0.585 -0.543,-1.089 -0.969,-1.515 -0.43,-0.43 -0.961,-0.762 -1.594,-1 -0.637,-0.238 -1.371,-0.36 -2.203,-0.36 -0.773,0 -1.445,0.094 -2.016,0.282 -0.574,0.187 -1.058,0.441 -1.453,0.765 -0.387,0.332 -0.695,0.719 -0.922,1.157 -0.218,0.445 -0.375,0.925 -0.468,1.437 l 2.75,0.219 c 0.05,-0.211 0.125,-0.418 0.218,-0.625 0.094,-0.199 0.223,-0.375 0.391,-0.531 0.176,-0.157 0.383,-0.282 0.625,-0.375 0.25,-0.094 0.551,-0.141 0.906,-0.141 0.688,0 1.235,0.219 1.641,0.656 0.406,0.438 0.609,1.063 0.609,1.875 0,0.364 -0.054,0.692 -0.156,0.985 -0.106,0.3 -0.25,0.554 -0.438,0.765 -0.179,0.207 -0.402,0.364 -0.671,0.469 -0.274,0.113 -0.579,0.172 -0.922,0.172 -0.461,0 -0.836,-0.09 -1.125,-0.266 -0.293,-0.168 -0.543,-0.375 -0.75,-0.625 l -2.672,0 0.484,7.75 8.266,0 0,-2.047 -5.781,0 -0.219,-3.468 c 0.269,0.238 0.613,0.441 1.031,0.609 0.414,0.176 0.899,0.266 1.453,0.266 0.676,0 1.281,-0.118 1.813,-0.344 0.539,-0.219 0.992,-0.527 1.359,-0.922 0.375,-0.398 0.656,-0.875 0.844,-1.438 0.195,-0.554 0.297,-1.167 0.297,-1.843 z" /><path
         id="path202"
         style="fill:#000000;fill-opacity:1;fill-rule:nonzero;stroke:none"
         d="m 46.918,268.697 -2.922,0 -5.078,13.765 3,0 2.844,-8.844 c 0.082,-0.292 0.164,-0.593 0.25,-0.906 0.093,-0.304 0.172,-0.578 0.234,-0.828 0.082,-0.305 0.16,-0.59 0.234,-0.859 0.063,0.258 0.129,0.539 0.204,0.843 0.062,0.239 0.132,0.516 0.218,0.829 0.094,0.312 0.188,0.617 0.282,0.921 l 2.812,8.844 2.984,0 -5.062,-13.765 z" /><path
         id="path204"
         style="fill:#000000;fill-opacity:1;fill-rule:nonzero;stroke:none"
         d="m 25.766,285.591 -2.922,0 -5.078,13.766 3,0 2.843,-8.844 c 0.082,-0.293 0.164,-0.594 0.25,-0.906 0.094,-0.305 0.172,-0.578 0.235,-0.828 0.082,-0.305 0.16,-0.59 0.234,-0.86 0.063,0.258 0.129,0.539 0.203,0.844 0.063,0.238 0.133,0.516 0.219,0.828 0.094,0.313 0.188,0.617 0.281,0.922 l 2.813,8.844 2.984,0 -5.062,-13.766 z" /><path
         id="path206"
         style="fill:#000000;fill-opacity:1;fill-rule:nonzero;stroke:none"
         d="m 41.965,285.591 -3.203,5.219 -3.375,0 0,-5.219 -2.875,0 0,13.766 6.875,0 c 0.851,0 1.597,-0.102 2.234,-0.297 0.645,-0.188 1.18,-0.461 1.609,-0.813 0.438,-0.355 0.758,-0.789 0.969,-1.296 0.207,-0.5 0.313,-1.071 0.313,-1.704 0,-0.511 -0.078,-0.98 -0.235,-1.406 -0.148,-0.43 -0.355,-0.808 -0.625,-1.14 -0.273,-0.336 -0.593,-0.618 -0.968,-0.844 -0.368,-0.219 -0.766,-0.383 -1.204,-0.485 l 3.719,-5.781 -3.234,0 z m -0.344,9.547 c 0,0.664 -0.226,1.16 -0.672,1.484 -0.437,0.332 -1.062,0.5 -1.875,0.5 l -3.687,0 0,-4.062 3.765,0 c 0.438,0 0.805,0.047 1.11,0.141 0.312,0.101 0.566,0.25 0.765,0.437 0.196,0.188 0.344,0.406 0.438,0.656 0.101,0.25 0.156,0.532 0.156,0.844 z" /><path
         id="path208"
         style="fill:#000000;fill-opacity:1;fill-rule:nonzero;stroke:none"
         d="m 68.051,254.333 3.379,0 0,-3.379 -3.379,0 0,3.379 z" /><g
         transform="matrix(1,0,0,-1,0,404.70831)"
         id="g210"><path
           id="path212"
           style="fill:none;stroke:#000000;stroke-width:3.37919998;stroke-linecap:square;stroke-linejoin:miter;stroke-miterlimit:10;stroke-dasharray:none;stroke-opacity:1"
           d="m 69.738,153.754 0,30.414" /></g><g
         transform="matrix(1,0,0,-1,0,404.70831)"
         id="g214"><path
           id="path216"
           style="fill:none;stroke:#000000;stroke-width:3.37919998;stroke-linecap:butt;stroke-linejoin:miter;stroke-miterlimit:10;stroke-dasharray:none;stroke-opacity:1"
           d="m 69.738,84.48 0,67.582" /></g></g></g></svg>