<?xml version="1.0" encoding="UTF-8" standalone="no"?>
<svg
   xmlns:dc="http://purl.org/dc/elements/1.1/"
   xmlns:cc="http://creativecommons.org/ns#"
   xmlns:rdf="http://www.w3.org/1999/02/22-rdf-syntax-ns#"
   xmlns:svg="http://www.w3.org/2000/svg"
   xmlns="http://www.w3.org/2000/svg"
   viewBox="0 0 480.4938 512.3089"
   height="512.3089"
   width="480.4938"
   xml:space="preserve"
   version="1.1"
   id="svg2"><metadata
     id="metadata8"><rdf:RDF><cc:Work
         rdf:about=""><dc:format>image/svg+xml</dc:format><dc:type
           rdf:resource="http://purl.org/dc/dcmitype/StillImage" /></cc:Work></rdf:RDF></metadata><defs
     id="defs6" /><g
     transform="matrix(1.25,0,0,-1.25,0,512.30888)"
     id="g10"><g
       id="g12"><path
         id="path14"
         style="fill:#000000;fill-opacity:1;fill-rule:nonzero;stroke:none"
         d="m 43.344,340.21 3.574,0 0,-3.574 -3.574,0 0,3.574 z" /><g
         transform="matrix(1,0,0,-1,0,409.84711)"
         id="g16"><path
           id="path18"
           style="fill:none;stroke:#000000;stroke-width:3.57119989;stroke-linecap:square;stroke-linejoin:miter;stroke-miterlimit:10;stroke-dasharray:none;stroke-opacity:1"
           d="m 45.133,37.496 0,32.141" /></g><g
         transform="matrix(1,0,0,-1,0,409.84711)"
         id="g20"><path
           id="path22"
           style="fill:none;stroke:#000000;stroke-width:3.57119989;stroke-linecap:square;stroke-linejoin:miter;stroke-miterlimit:10;stroke-dasharray:none;stroke-opacity:1"
           d="m 27.273,35.711 35.715,0" /></g><path
         id="path24"
         style="fill:#000000;fill-opacity:1;fill-rule:nonzero;stroke:none"
         d="m 36.676,395.113 c 0,-0.657 -0.11,-1.25 -0.328,-1.782 -0.211,-0.523 -0.532,-0.968 -0.969,-1.343 -0.43,-0.367 -0.965,-0.649 -1.609,-0.844 -0.637,-0.188 -1.375,-0.281 -2.219,-0.281 -0.949,0 -1.746,0.121 -2.391,0.359 -0.648,0.238 -1.18,0.551 -1.594,0.938 -0.406,0.394 -0.714,0.843 -0.921,1.343 -0.211,0.5 -0.344,1.004 -0.407,1.516 l 2.938,0.266 c 0.031,-0.313 0.101,-0.602 0.219,-0.86 0.113,-0.25 0.265,-0.469 0.453,-0.656 0.195,-0.18 0.429,-0.32 0.703,-0.422 0.281,-0.094 0.609,-0.141 0.984,-0.141 0.688,0 1.223,0.165 1.61,0.5 0.382,0.344 0.578,0.868 0.578,1.579 0,0.425 -0.094,0.769 -0.282,1.031 -0.179,0.258 -0.406,0.457 -0.687,0.594 -0.274,0.144 -0.57,0.238 -0.891,0.281 -0.324,0.051 -0.625,0.078 -0.906,0.078 l -1.016,0 0,2.328 0.954,0 c 0.281,0 0.566,0.024 0.859,0.078 0.301,0.063 0.57,0.16 0.812,0.297 0.239,0.145 0.43,0.344 0.579,0.594 0.156,0.258 0.234,0.586 0.234,0.984 0,0.594 -0.168,1.055 -0.5,1.391 -0.324,0.344 -0.805,0.515 -1.438,0.515 -0.605,0 -1.089,-0.167 -1.453,-0.5 -0.367,-0.324 -0.574,-0.781 -0.625,-1.375 l -2.875,0.204 c 0.071,0.675 0.254,1.265 0.547,1.765 0.289,0.5 0.656,0.91 1.094,1.235 0.445,0.332 0.957,0.578 1.531,0.734 0.57,0.156 1.18,0.234 1.828,0.234 0.844,0 1.567,-0.105 2.172,-0.312 0.613,-0.199 1.113,-0.477 1.5,-0.828 0.395,-0.344 0.68,-0.75 0.86,-1.219 0.187,-0.461 0.281,-0.953 0.281,-1.484 0,-0.418 -0.063,-0.813 -0.188,-1.188 -0.117,-0.367 -0.297,-0.695 -0.547,-0.984 -0.25,-0.282 -0.574,-0.528 -0.968,-0.735 -0.387,-0.211 -0.844,-0.367 -1.375,-0.468 l 0,-0.047 c 0.593,-0.063 1.109,-0.199 1.547,-0.407 0.437,-0.199 0.796,-0.449 1.078,-0.75 0.281,-0.304 0.488,-0.648 0.625,-1.031 0.132,-0.375 0.203,-0.773 0.203,-1.187 z" /><path
         id="path26"
         style="fill:#000000;fill-opacity:1;fill-rule:nonzero;stroke:none"
         d="m 42.121,391.769 c 0,-0.461 -0.027,-0.875 -0.078,-1.25 -0.055,-0.375 -0.133,-0.719 -0.234,-1.031 -0.094,-0.321 -0.211,-0.614 -0.344,-0.875 -0.137,-0.27 -0.289,-0.524 -0.453,-0.766 l -1.907,0 c 0.196,0.242 0.379,0.496 0.547,0.766 0.164,0.261 0.305,0.531 0.422,0.812 0.125,0.281 0.223,0.563 0.297,0.844 0.07,0.281 0.109,0.559 0.109,0.828 l -1.328,0 0,3.125 2.969,0 0,-2.453 z" /><path
         id="path28"
         style="fill:#000000;fill-opacity:1;fill-rule:nonzero;stroke:none"
         d="m 54.547,395.113 c 0,-0.657 -0.109,-1.25 -0.328,-1.782 -0.211,-0.523 -0.531,-0.968 -0.969,-1.343 -0.43,-0.367 -0.965,-0.649 -1.609,-0.844 -0.637,-0.188 -1.375,-0.281 -2.219,-0.281 -0.949,0 -1.746,0.121 -2.391,0.359 -0.648,0.238 -1.179,0.551 -1.593,0.938 -0.407,0.394 -0.715,0.843 -0.922,1.343 -0.211,0.5 -0.344,1.004 -0.407,1.516 l 2.938,0.266 c 0.031,-0.313 0.101,-0.602 0.219,-0.86 0.113,-0.25 0.265,-0.469 0.453,-0.656 0.195,-0.18 0.429,-0.32 0.703,-0.422 0.281,-0.094 0.609,-0.141 0.984,-0.141 0.688,0 1.223,0.165 1.61,0.5 0.382,0.344 0.578,0.868 0.578,1.579 0,0.425 -0.094,0.769 -0.282,1.031 -0.179,0.258 -0.406,0.457 -0.687,0.594 -0.273,0.144 -0.57,0.238 -0.891,0.281 -0.324,0.051 -0.625,0.078 -0.906,0.078 l -1.016,0 0,2.328 0.954,0 c 0.281,0 0.566,0.024 0.859,0.078 0.301,0.063 0.57,0.16 0.813,0.297 0.238,0.145 0.429,0.344 0.578,0.594 0.156,0.258 0.234,0.586 0.234,0.984 0,0.594 -0.168,1.055 -0.5,1.391 -0.324,0.344 -0.805,0.515 -1.438,0.515 -0.605,0 -1.089,-0.167 -1.453,-0.5 -0.367,-0.324 -0.574,-0.781 -0.625,-1.375 l -2.875,0.204 c 0.071,0.675 0.254,1.265 0.547,1.765 0.289,0.5 0.656,0.91 1.094,1.235 0.445,0.332 0.957,0.578 1.531,0.734 0.571,0.156 1.18,0.234 1.828,0.234 0.844,0 1.567,-0.105 2.172,-0.312 0.614,-0.199 1.114,-0.477 1.5,-0.828 0.395,-0.344 0.68,-0.75 0.86,-1.219 0.187,-0.461 0.281,-0.953 0.281,-1.484 0,-0.418 -0.063,-0.813 -0.188,-1.188 -0.117,-0.367 -0.296,-0.695 -0.546,-0.984 -0.25,-0.282 -0.575,-0.528 -0.969,-0.735 -0.387,-0.211 -0.844,-0.367 -1.375,-0.468 l 0,-0.047 c 0.594,-0.063 1.109,-0.199 1.547,-0.407 0.437,-0.199 0.797,-0.449 1.078,-0.75 0.281,-0.304 0.488,-0.648 0.625,-1.031 0.133,-0.375 0.203,-0.773 0.203,-1.187 z" /><path
         id="path30"
         style="fill:#000000;fill-opacity:1;fill-rule:nonzero;stroke:none"
         d="m 64.098,391.097 -3.063,0 -5.344,14.453 3.157,0 2.984,-9.281 c 0.094,-0.313 0.18,-0.633 0.266,-0.953 0.093,-0.313 0.175,-0.606 0.25,-0.875 0.082,-0.313 0.16,-0.617 0.234,-0.906 0.07,0.281 0.145,0.578 0.219,0.89 0.07,0.258 0.148,0.551 0.234,0.875 0.094,0.321 0.188,0.645 0.281,0.969 l 2.969,9.281 3.125,0 -5.312,-14.453 z" /><path
         id="path32"
         style="fill:#000000;fill-opacity:1;fill-rule:nonzero;stroke:none"
         d="m 43.344,340.21 3.574,0 0,-3.574 -3.574,0 0,3.574 z" /><path
         id="path34"
         style="fill:#000000;fill-opacity:1;fill-rule:nonzero;stroke:none"
         d="m 43.344,233.074 3.574,0 0,-3.57 -3.574,0 0,3.57 z" /><g
         transform="matrix(1,0,0,-1,0,409.84711)"
         id="g36"><path
           id="path38"
           style="fill:none;stroke:#000000;stroke-width:3.57119989;stroke-linecap:square;stroke-linejoin:miter;stroke-miterlimit:10;stroke-dasharray:none;stroke-opacity:1"
           d="m 45.133,73.211 0,17.855" /></g><g
         transform="matrix(1,0,0,-1,0,409.84711)"
         id="g40"><path
           id="path42"
           style="fill:none;stroke:#000000;stroke-width:3.57119989;stroke-linecap:square;stroke-linejoin:miter;stroke-miterlimit:10;stroke-dasharray:none;stroke-opacity:1"
           d="m 45.133,158.918 0,17.855" /></g><g
         transform="matrix(1,0,0,-1,0,409.84711)"
         id="g44"><path
           id="path46"
           style="fill:#ffffff;fill-opacity:1;fill-rule:nonzero;stroke:#000000;stroke-width:3.57119989;stroke-linecap:round;stroke-linejoin:round;stroke-miterlimit:10;stroke-dasharray:none;stroke-opacity:1"
           d="m 32.633,92.852 c 23.91,-0.321 24.996,0 24.996,0 l 0,64.281 -24.996,0 0,-64.281 z" /></g><path
         id="path48"
         style="fill:#000000;fill-opacity:1;fill-rule:nonzero;stroke:none"
         d="m 91.57,283.964 -3.343,5.485 -3.547,0 0,-5.485 -3.032,0 0,14.453 7.219,0 c 0.906,0 1.692,-0.105 2.36,-0.312 0.675,-0.199 1.238,-0.484 1.687,-0.859 0.445,-0.375 0.781,-0.829 1,-1.36 0.227,-0.523 0.344,-1.117 0.344,-1.781 0,-0.543 -0.086,-1.039 -0.25,-1.484 -0.156,-0.45 -0.375,-0.852 -0.656,-1.204 -0.282,-0.343 -0.622,-0.636 -1.016,-0.875 -0.387,-0.23 -0.809,-0.398 -1.266,-0.5 l 3.907,-6.078 -3.407,0 z m -0.359,10.016 c 0,0.707 -0.231,1.226 -0.688,1.562 -0.461,0.344 -1.117,0.516 -1.968,0.516 l -3.875,0 0,-4.266 3.953,0 c 0.445,0 0.832,0.051 1.156,0.157 0.32,0.113 0.586,0.265 0.797,0.453 0.219,0.195 0.375,0.426 0.469,0.687 0.101,0.27 0.156,0.567 0.156,0.891 z" /><path
         id="path50"
         style="fill:#000000;fill-opacity:1;fill-rule:nonzero;stroke:none"
         d="m 78.285,266.105 0,2.141 3.578,0 0,9.859 -3.468,-2.172 0,2.266 3.625,2.359 2.718,0 0,-12.312 3.313,0 0,-2.141 -9.766,0 z" /><path
         id="path52"
         style="fill:#000000;fill-opacity:1;fill-rule:nonzero;stroke:none"
         d="m 99.699,273.339 c 0,-1.386 -0.125,-2.554 -0.375,-3.5 -0.25,-0.949 -0.601,-1.715 -1.047,-2.297 -0.449,-0.586 -0.98,-1.007 -1.593,-1.265 -0.618,-0.25 -1.282,-0.375 -2,-0.375 -0.731,0 -1.403,0.125 -2.016,0.375 -0.606,0.25 -1.125,0.664 -1.563,1.25 -0.437,0.594 -0.781,1.359 -1.031,2.297 -0.242,0.945 -0.359,2.117 -0.359,3.515 0,1.446 0.117,2.649 0.359,3.61 0.25,0.957 0.594,1.718 1.031,2.281 0.446,0.562 0.977,0.957 1.594,1.187 0.625,0.227 1.313,0.344 2.063,0.344 0.707,0 1.363,-0.117 1.968,-0.344 0.602,-0.23 1.125,-0.625 1.563,-1.187 0.437,-0.563 0.781,-1.324 1.031,-2.281 0.25,-0.961 0.375,-2.164 0.375,-3.61 z m -2.89,0 c 0,1.008 -0.039,1.848 -0.11,2.516 -0.074,0.664 -0.195,1.195 -0.359,1.594 -0.168,0.394 -0.383,0.672 -0.641,0.828 -0.261,0.156 -0.578,0.234 -0.953,0.234 -0.406,0 -0.746,-0.086 -1.016,-0.25 -0.273,-0.156 -0.496,-0.433 -0.671,-0.828 -0.168,-0.398 -0.289,-0.93 -0.36,-1.594 -0.062,-0.668 -0.094,-1.5 -0.094,-2.5 0,-0.992 0.036,-1.82 0.11,-2.484 0.07,-0.668 0.191,-1.203 0.359,-1.609 0.164,-0.399 0.379,-0.68 0.641,-0.844 0.269,-0.156 0.597,-0.235 0.984,-0.235 0.375,0 0.692,0.079 0.953,0.235 0.27,0.164 0.489,0.445 0.657,0.844 0.175,0.406 0.3,0.941 0.375,1.609 0.082,0.664 0.125,1.492 0.125,2.484 z" /><path
         id="path54"
         style="fill:#000000;fill-opacity:1;fill-rule:nonzero;stroke:none"
         d="m 111.625,273.339 c 0,-1.386 -0.125,-2.554 -0.375,-3.5 -0.25,-0.949 -0.602,-1.715 -1.047,-2.297 -0.449,-0.586 -0.98,-1.007 -1.594,-1.265 -0.617,-0.25 -1.281,-0.375 -2,-0.375 -0.73,0 -1.402,0.125 -2.015,0.375 -0.606,0.25 -1.125,0.664 -1.563,1.25 -0.437,0.594 -0.781,1.359 -1.031,2.297 -0.242,0.945 -0.359,2.117 -0.359,3.515 0,1.446 0.117,2.649 0.359,3.61 0.25,0.957 0.594,1.718 1.031,2.281 0.446,0.562 0.977,0.957 1.594,1.187 0.625,0.227 1.313,0.344 2.063,0.344 0.707,0 1.363,-0.117 1.968,-0.344 0.602,-0.23 1.125,-0.625 1.563,-1.187 0.437,-0.563 0.781,-1.324 1.031,-2.281 0.25,-0.961 0.375,-2.164 0.375,-3.61 z m -2.891,0 c 0,1.008 -0.039,1.848 -0.109,2.516 -0.074,0.664 -0.195,1.195 -0.359,1.594 -0.168,0.394 -0.383,0.672 -0.641,0.828 -0.262,0.156 -0.578,0.234 -0.953,0.234 -0.406,0 -0.746,-0.086 -1.016,-0.25 -0.273,-0.156 -0.496,-0.433 -0.672,-0.828 -0.168,-0.398 -0.289,-0.93 -0.359,-1.594 -0.063,-0.668 -0.094,-1.5 -0.094,-2.5 0,-0.992 0.035,-1.82 0.11,-2.484 0.07,-0.668 0.191,-1.203 0.359,-1.609 0.164,-0.399 0.379,-0.68 0.641,-0.844 0.269,-0.156 0.597,-0.235 0.984,-0.235 0.375,0 0.691,0.079 0.953,0.235 0.27,0.164 0.488,0.445 0.656,0.844 0.176,0.406 0.301,0.941 0.375,1.609 0.082,0.664 0.125,1.492 0.125,2.484 z" /><path
         id="path56"
         style="fill:#000000;fill-opacity:1;fill-rule:nonzero;stroke:none"
         d="m 121.285,266.105 -2.953,5.031 -1.25,-0.875 0,-4.156 -2.875,0 0,15.219 2.875,0 0,-8.719 3.969,4.594 3.094,0 -3.907,-4.328 4.203,-6.766 -3.156,0 z" /><path
         id="path58"
         style="fill:#000000;fill-opacity:1;fill-rule:nonzero;stroke:none"
         d="m 133.09,280.761 c 1.125,0 2.133,-0.14 3.031,-0.422 0.906,-0.273 1.672,-0.679 2.297,-1.218 0.625,-0.532 1.102,-1.18 1.437,-1.938 0.344,-0.762 0.516,-1.625 0.516,-2.594 0,-0.699 -0.086,-1.351 -0.25,-1.953 -0.168,-0.605 -0.43,-1.168 -0.781,-1.687 -0.356,-0.524 -0.809,-1 -1.36,-1.438 -0.554,-0.437 -1.214,-0.836 -1.984,-1.187 0.219,0.019 0.438,0.039 0.656,0.062 0.176,0.02 0.368,0.035 0.578,0.047 0.219,0.008 0.415,0.016 0.594,0.016 l 2.828,0 0,-2.344 -6.875,0 0,3.172 c 1.239,0.582 2.133,1.269 2.688,2.062 0.551,0.789 0.828,1.692 0.828,2.703 0,0.688 -0.094,1.301 -0.281,1.844 -0.188,0.539 -0.465,0.992 -0.828,1.36 -0.356,0.375 -0.797,0.656 -1.329,0.843 -0.523,0.196 -1.121,0.297 -1.796,0.297 -0.668,0 -1.266,-0.101 -1.797,-0.297 -0.524,-0.187 -0.965,-0.468 -1.328,-0.843 -0.356,-0.368 -0.633,-0.821 -0.829,-1.36 -0.187,-0.543 -0.281,-1.156 -0.281,-1.844 0,-1.011 0.274,-1.914 0.828,-2.703 0.563,-0.793 1.461,-1.48 2.703,-2.062 l 0,-3.172 -6.843,0 0,2.344 2.812,0 c 0.176,0 0.367,-0.008 0.578,-0.016 0.219,-0.012 0.422,-0.027 0.61,-0.047 0.218,-0.023 0.426,-0.043 0.625,-0.062 -0.762,0.351 -1.418,0.75 -1.969,1.187 -0.555,0.438 -1.008,0.914 -1.359,1.438 -0.344,0.519 -0.602,1.082 -0.766,1.687 -0.156,0.613 -0.234,1.27 -0.234,1.969 0,0.969 0.164,1.832 0.5,2.594 0.332,0.757 0.812,1.406 1.437,1.937 0.633,0.531 1.399,0.93 2.297,1.203 0.906,0.282 1.922,0.422 3.047,0.422 z" /><path
         id="path60"
         style="fill:#000000;fill-opacity:1;fill-rule:nonzero;stroke:none"
         d="m 43.344,197.359 3.574,0 0,-3.57 -3.574,0 0,3.57 z" /><path
         id="path62"
         style="fill:#000000;fill-opacity:1;fill-rule:nonzero;stroke:none"
         d="m 43.344,90.226 3.574,0 0,-3.574 -3.574,0 0,3.574 z" /><g
         transform="matrix(0,1,1,0,0,409.84711)"
         id="g64"><path
           id="path66"
           style="fill:none;stroke:#000000;stroke-width:3.57119989;stroke-linecap:butt;stroke-linejoin:miter;stroke-miterlimit:4;stroke-dasharray:none;stroke-opacity:1"
           d="m -233.02,45.133 c 0,1.969 -1.601,3.57 -3.574,3.57 -1.968,0 -3.57,-1.601 -3.57,-3.57 0,-1.973 1.602,-3.574 3.57,-3.574 1.973,0 3.574,1.601 3.574,3.574 z" /></g><g
         transform="matrix(0,1,1,0,0,409.84711)"
         id="g68"><path
           id="path70"
           style="fill:none;stroke:#000000;stroke-width:1.92695999;stroke-linecap:butt;stroke-linejoin:miter;stroke-miterlimit:4;stroke-dasharray:none;stroke-opacity:1"
           d="m -232.887,31.078 -69.496,0 0,1.672 69.496,0 0,-1.672 z" /></g><g
         transform="matrix(0,1,1,0,0,409.84711)"
         id="g72"><path
           id="path74"
           style="fill:none;stroke:#000000;stroke-width:3.57119989;stroke-linecap:butt;stroke-linejoin:miter;stroke-miterlimit:4;stroke-dasharray:none;stroke-opacity:1"
           d="m -295.516,45.133 c 0,1.969 -1.601,3.57 -3.574,3.57 -1.969,0 -3.57,-1.601 -3.57,-3.57 0,-1.973 1.601,-3.574 3.57,-3.574 1.973,0 3.574,1.601 3.574,3.574 z" /></g><g
         transform="matrix(0,1,1,0,0,409.84711)"
         id="g76"><path
           id="path78"
           style="fill:none;stroke:#000000;stroke-width:3.57119989;stroke-linecap:square;stroke-linejoin:miter;stroke-miterlimit:10;stroke-dasharray:none;stroke-opacity:1"
           d="m -231.234,45.133 15.175,0" /></g><g
         transform="matrix(0,1,1,0,0,409.84711)"
         id="g80"><path
           id="path82"
           style="fill:none;stroke:#000000;stroke-width:3.57119989;stroke-linecap:square;stroke-linejoin:miter;stroke-miterlimit:10;stroke-dasharray:none;stroke-opacity:1"
           d="m -319.621,45.133 15.176,0" /></g><g
         transform="matrix(0,1,1,0,0,409.84711)"
         id="g84"><path
           id="path86"
           style="fill:none;stroke:#000000;stroke-width:3.57119989;stroke-linecap:square;stroke-linejoin:miter;stroke-miterlimit:10;stroke-dasharray:none;stroke-opacity:1"
           d="m -267.633,1.785 0,28.356" /></g><path
         id="path88"
         style="fill:#000000;fill-opacity:1;fill-rule:nonzero;stroke:none"
         d="m 150.48,179.503 3.57,0 0,-3.57 -3.57,0 0,3.57 z" /><path
         id="path90"
         style="fill:#000000;fill-opacity:1;fill-rule:nonzero;stroke:none"
         d="m 150.48,90.226 3.57,0 0,-3.574 -3.57,0 0,3.574 z" /><g
         transform="matrix(1,0,0,-1,0,409.84711)"
         id="g92"><path
           id="path94"
           style="fill:none;stroke:#000000;stroke-width:3.57119989;stroke-linecap:round;stroke-linejoin:miter;stroke-miterlimit:10;stroke-dasharray:none;stroke-opacity:1"
           d="m 132.625,269.625 39.285,0" /></g><g
         transform="matrix(1,0,0,-1,0,409.84711)"
         id="g96"><path
           id="path98"
           style="fill:none;stroke:#000000;stroke-width:3.57119989;stroke-linecap:round;stroke-linejoin:miter;stroke-miterlimit:10;stroke-dasharray:none;stroke-opacity:1"
           d="m 132.625,283.91 39.285,0" /></g><g
         transform="matrix(1,0,0,-1,0,409.84711)"
         id="g100"><path
           id="path102"
           style="fill:none;stroke:#000000;stroke-width:3.57119989;stroke-linecap:square;stroke-linejoin:miter;stroke-miterlimit:10;stroke-dasharray:none;stroke-opacity:1"
           d="m 152.266,233.914 0,33.926" /></g><g
         transform="matrix(1,0,0,-1,0,409.84711)"
         id="g104"><path
           id="path106"
           style="fill:none;stroke:#000000;stroke-width:3.57119989;stroke-linecap:square;stroke-linejoin:miter;stroke-miterlimit:10;stroke-dasharray:none;stroke-opacity:1"
           d="m 152.266,285.695 0,33.926" /></g><path
         id="path108"
         style="fill:#000000;fill-opacity:1;fill-rule:nonzero;stroke:none"
         d="m 213.391,143.285 c 0.562,0 1.05,0.078 1.468,0.234 0.414,0.164 0.774,0.379 1.079,0.641 0.3,0.257 0.55,0.55 0.75,0.875 0.207,0.332 0.374,0.664 0.5,1 l 2.64,-1 c -0.211,-0.524 -0.484,-1.032 -0.828,-1.532 -0.344,-0.492 -0.777,-0.929 -1.297,-1.312 -0.512,-0.387 -1.121,-0.699 -1.828,-0.938 -0.699,-0.226 -1.527,-0.343 -2.484,-0.343 -1.25,0 -2.336,0.183 -3.25,0.546 -0.918,0.375 -1.68,0.895 -2.282,1.563 -0.593,0.664 -1.039,1.457 -1.328,2.375 -0.293,0.914 -0.437,1.922 -0.437,3.016 0,1.125 0.144,2.14 0.437,3.046 0.289,0.907 0.727,1.676 1.313,2.313 0.594,0.645 1.336,1.141 2.234,1.484 0.895,0.344 1.953,0.516 3.172,0.516 0.945,0 1.773,-0.102 2.484,-0.297 0.707,-0.199 1.317,-0.48 1.828,-0.844 0.52,-0.355 0.946,-0.777 1.282,-1.265 0.344,-0.481 0.609,-1.016 0.797,-1.61 l -2.672,-0.718 c -0.094,0.3 -0.242,0.593 -0.438,0.875 -0.199,0.289 -0.449,0.546 -0.75,0.765 -0.304,0.219 -0.664,0.391 -1.078,0.516 -0.406,0.133 -0.871,0.203 -1.391,0.203 -0.73,0 -1.359,-0.121 -1.89,-0.359 -0.524,-0.231 -0.953,-0.563 -1.297,-1 -0.336,-0.438 -0.586,-0.965 -0.75,-1.579 -0.156,-0.617 -0.234,-1.296 -0.234,-2.046 0,-0.762 0.078,-1.454 0.234,-2.079 0.164,-0.625 0.422,-1.164 0.766,-1.609 0.343,-0.449 0.781,-0.805 1.312,-1.062 0.539,-0.25 1.188,-0.375 1.938,-0.375 z" /><path
         id="path110"
         style="fill:#000000;fill-opacity:1;fill-rule:nonzero;stroke:none"
         d="m 203.852,123.257 0,2.141 3.578,0 0,9.859 -3.469,-2.172 0,2.266 3.625,2.359 2.719,0 0,-12.312 3.312,0 0,-2.141 -9.765,0 z" /><path
         id="path112"
         style="fill:#000000;fill-opacity:1;fill-rule:nonzero;stroke:none"
         d="m 225.262,130.492 c 0,-1.387 -0.125,-2.555 -0.375,-3.5 -0.25,-0.95 -0.602,-1.715 -1.047,-2.297 -0.449,-0.586 -0.981,-1.008 -1.594,-1.266 -0.617,-0.25 -1.281,-0.375 -2,-0.375 -0.73,0 -1.402,0.125 -2.016,0.375 -0.605,0.25 -1.125,0.664 -1.562,1.25 -0.438,0.594 -0.781,1.36 -1.031,2.297 -0.242,0.945 -0.36,2.117 -0.36,3.516 0,1.445 0.118,2.648 0.36,3.609 0.25,0.957 0.593,1.719 1.031,2.281 0.445,0.563 0.977,0.957 1.594,1.188 0.625,0.226 1.312,0.344 2.062,0.344 0.707,0 1.364,-0.118 1.969,-0.344 0.602,-0.231 1.125,-0.625 1.562,-1.188 0.438,-0.562 0.782,-1.324 1.032,-2.281 0.25,-0.961 0.375,-2.164 0.375,-3.609 z m -2.891,0 c 0,1.007 -0.039,1.847 -0.109,2.515 -0.074,0.664 -0.196,1.196 -0.36,1.594 -0.168,0.395 -0.382,0.672 -0.64,0.828 -0.262,0.156 -0.578,0.235 -0.953,0.235 -0.407,0 -0.747,-0.086 -1.016,-0.25 -0.273,-0.157 -0.496,-0.434 -0.672,-0.829 -0.168,-0.398 -0.289,-0.929 -0.359,-1.593 -0.063,-0.668 -0.094,-1.5 -0.094,-2.5 0,-0.993 0.035,-1.821 0.109,-2.485 0.071,-0.668 0.192,-1.203 0.36,-1.609 0.164,-0.399 0.379,-0.68 0.64,-0.844 0.27,-0.156 0.598,-0.234 0.985,-0.234 0.375,0 0.691,0.078 0.953,0.234 0.269,0.164 0.488,0.445 0.656,0.844 0.176,0.406 0.301,0.941 0.375,1.609 0.082,0.664 0.125,1.492 0.125,2.485 z" /><path
         id="path114"
         style="fill:#000000;fill-opacity:1;fill-rule:nonzero;stroke:none"
         d="m 237.188,130.492 c 0,-1.387 -0.126,-2.555 -0.376,-3.5 -0.25,-0.95 -0.601,-1.715 -1.046,-2.297 -0.45,-0.586 -0.981,-1.008 -1.594,-1.266 -0.617,-0.25 -1.281,-0.375 -2,-0.375 -0.731,0 -1.402,0.125 -2.016,0.375 -0.605,0.25 -1.125,0.664 -1.562,1.25 -0.438,0.594 -0.782,1.36 -1.032,2.297 -0.242,0.945 -0.359,2.117 -0.359,3.516 0,1.445 0.117,2.648 0.359,3.609 0.25,0.957 0.594,1.719 1.032,2.281 0.445,0.563 0.976,0.957 1.594,1.188 0.624,0.226 1.312,0.344 2.062,0.344 0.707,0 1.363,-0.118 1.969,-0.344 0.601,-0.231 1.125,-0.625 1.562,-1.188 0.438,-0.562 0.781,-1.324 1.031,-2.281 0.25,-0.961 0.376,-2.164 0.376,-3.609 z m -2.891,0 c 0,1.007 -0.039,1.847 -0.109,2.515 -0.075,0.664 -0.196,1.196 -0.36,1.594 -0.168,0.395 -0.383,0.672 -0.64,0.828 -0.262,0.156 -0.579,0.235 -0.954,0.235 -0.406,0 -0.746,-0.086 -1.015,-0.25 -0.274,-0.157 -0.496,-0.434 -0.672,-0.829 -0.168,-0.398 -0.289,-0.929 -0.359,-1.593 -0.063,-0.668 -0.094,-1.5 -0.094,-2.5 0,-0.993 0.035,-1.821 0.109,-2.485 0.07,-0.668 0.192,-1.203 0.359,-1.609 0.165,-0.399 0.379,-0.68 0.641,-0.844 0.27,-0.156 0.598,-0.234 0.985,-0.234 0.374,0 0.691,0.078 0.953,0.234 0.269,0.164 0.488,0.445 0.656,0.844 0.176,0.406 0.301,0.941 0.375,1.609 0.082,0.664 0.125,1.492 0.125,2.485 z" /><path
         id="path116"
         style="fill:#000000;fill-opacity:1;fill-rule:nonzero;stroke:none"
         d="m 246.961,123.257 0,6.219 c 0,0.438 -0.039,0.832 -0.109,1.188 -0.063,0.363 -0.172,0.671 -0.329,0.921 -0.156,0.258 -0.367,0.457 -0.625,0.594 -0.25,0.145 -0.558,0.219 -0.921,0.219 -0.344,0 -0.665,-0.078 -0.954,-0.234 -0.281,-0.149 -0.527,-0.368 -0.734,-0.657 -0.199,-0.281 -0.355,-0.621 -0.469,-1.015 -0.117,-0.387 -0.172,-0.813 -0.172,-1.282 l 0,-5.953 -2.875,0 0,8.61 c 0,0.238 -0.007,0.484 -0.015,0.734 0,0.258 -0.008,0.504 -0.016,0.734 -0.012,0.227 -0.023,0.43 -0.031,0.61 0,0.187 -0.008,0.32 -0.016,0.406 l 2.735,0 c 0.019,-0.086 0.035,-0.219 0.047,-0.406 0.007,-0.18 0.019,-0.375 0.031,-0.594 0.019,-0.219 0.035,-0.437 0.047,-0.656 0.007,-0.219 0.015,-0.403 0.015,-0.547 l 0.047,0 c 0.383,0.844 0.867,1.457 1.453,1.844 0.594,0.382 1.297,0.578 2.11,0.578 0.664,0 1.226,-0.11 1.687,-0.328 0.469,-0.219 0.848,-0.524 1.141,-0.907 0.289,-0.386 0.5,-0.839 0.625,-1.359 0.133,-0.512 0.203,-1.07 0.203,-1.672 l 0,-7.047 -2.875,0 z" /><path
         id="path118"
         style="fill:#000000;fill-opacity:1;fill-rule:nonzero;stroke:none"
         d="m 255.84,135.367 0,-4.469 7.39,0 0,-2.344 -7.39,0 0,-5.297 -3.031,0 0,14.453 10.656,0 0,-2.343 -7.625,0 z" /><path
         id="path120"
         style="fill:#000000;fill-opacity:1;fill-rule:nonzero;stroke:none"
         d="m 150.48,72.371 3.57,0 0,-3.574 -3.57,0 0,3.574 z" /><g
         transform="matrix(1,0,0,-1,0,409.84711)"
         id="g122"><path
           id="path124"
           style="fill:none;stroke:#000000;stroke-width:3.57119989;stroke-linecap:square;stroke-linejoin:miter;stroke-miterlimit:10;stroke-dasharray:none;stroke-opacity:1"
           d="m 152.266,341.051 0,32.14" /></g><g
         transform="matrix(1,0,0,-1,0,409.84711)"
         id="g126"><path
           id="path128"
           style="fill:#ffffff;fill-opacity:1;fill-rule:nonzero;stroke:#000000;stroke-width:3.57119989;stroke-linecap:square;stroke-linejoin:round;stroke-miterlimit:10;stroke-dasharray:none;stroke-opacity:1"
           d="m 132.625,374.137 39.285,0 -19.644,33.925 -19.641,-33.925 z" /></g><path
         id="path130"
         style="fill:#000000;fill-opacity:1;fill-rule:nonzero;stroke:none"
         d="m 43.344,72.371 3.574,0 0,-3.574 -3.574,0 0,3.574 z" /><g
         transform="matrix(1,0,0,-1,0,409.84711)"
         id="g132"><path
           id="path134"
           style="fill:none;stroke:#000000;stroke-width:3.57119989;stroke-linecap:square;stroke-linejoin:miter;stroke-miterlimit:10;stroke-dasharray:none;stroke-opacity:1"
           d="m 45.133,341.051 0,32.14" /></g><g
         transform="matrix(1,0,0,-1,0,409.84711)"
         id="g136"><path
           id="path138"
           style="fill:#ffffff;fill-opacity:1;fill-rule:nonzero;stroke:#000000;stroke-width:3.57119989;stroke-linecap:square;stroke-linejoin:round;stroke-miterlimit:10;stroke-dasharray:none;stroke-opacity:1"
           d="m 25.488,374.137 39.285,0 -19.64,33.925 -19.645,-33.925 z" /></g><g
         transform="matrix(1,0,0,-1,0,409.84711)"
         id="g140"><path
           id="path142"
           style="fill:none;stroke:#000000;stroke-width:3.57119989;stroke-linecap:butt;stroke-linejoin:miter;stroke-miterlimit:10;stroke-dasharray:none;stroke-opacity:1"
           d="m 45.133,178.559 0,35.714" /></g><g
         transform="matrix(1,0,0,-1,0,409.84711)"
         id="g144"><path
           id="path146"
           style="fill:none;stroke:#000000;stroke-width:3.57119989;stroke-linecap:butt;stroke-linejoin:miter;stroke-miterlimit:10;stroke-dasharray:none;stroke-opacity:1"
           d="m 45.133,321.406 0,17.86" /></g><g
         transform="matrix(1,0,0,-1,0,409.84711)"
         id="g148"><path
           id="path150"
           style="fill:none;stroke:#000000;stroke-width:3.57119989;stroke-linecap:butt;stroke-linejoin:miter;stroke-miterlimit:10;stroke-dasharray:none;stroke-opacity:1"
           d="m 152.266,321.406 0,17.86" /></g><path
         id="path152"
         style="fill:#000000;fill-opacity:1;fill-rule:nonzero;stroke:none"
         d="m 346.898,215.218 3.57,0 0,-3.574 -3.57,0 0,3.574 z" /><g
         transform="matrix(-1,0,0,1,0,409.84711)"
         id="g154"><path
           id="path156"
           style="fill:none;stroke:#000000;stroke-width:3.57119989;stroke-linecap:square;stroke-linejoin:miter;stroke-miterlimit:10;stroke-dasharray:none;stroke-opacity:1"
           d="m -382.609,-196.414 32.14,0" /></g><path
         id="path158"
         style="fill:#000000;fill-opacity:1;fill-rule:nonzero;stroke:none"
         d="m 297.73,232.55 c 0.438,0 0.852,0.035 1.25,0.11 0.407,0.07 0.782,0.16 1.125,0.265 0.352,0.114 0.665,0.242 0.938,0.391 0.281,0.144 0.508,0.301 0.687,0.469 l 0,2 -3.531,0 0,2.234 6.297,0 0,-5.313 c -0.324,-0.335 -0.719,-0.656 -1.187,-0.968 -0.469,-0.305 -0.997,-0.571 -1.579,-0.797 -0.574,-0.231 -1.203,-0.414 -1.89,-0.547 -0.688,-0.133 -1.418,-0.203 -2.188,-0.203 -1.281,0 -2.386,0.183 -3.312,0.547 -0.918,0.375 -1.672,0.894 -2.266,1.562 -0.594,0.664 -1.039,1.457 -1.328,2.375 -0.281,0.914 -0.422,1.922 -0.422,3.016 0,1.125 0.149,2.14 0.453,3.047 0.301,0.906 0.754,1.676 1.36,2.312 0.613,0.645 1.383,1.141 2.312,1.485 0.926,0.343 2.016,0.515 3.266,0.515 0.914,0 1.723,-0.09 2.422,-0.265 0.707,-0.18 1.328,-0.434 1.859,-0.766 0.531,-0.324 0.973,-0.715 1.328,-1.172 0.364,-0.461 0.649,-0.976 0.86,-1.547 l -2.782,-0.844 c -0.125,0.301 -0.293,0.586 -0.5,0.86 -0.199,0.269 -0.453,0.504 -0.765,0.703 -0.305,0.195 -0.653,0.352 -1.047,0.469 -0.399,0.125 -0.856,0.187 -1.375,0.187 -0.75,0 -1.403,-0.121 -1.953,-0.359 -0.543,-0.231 -0.992,-0.563 -1.344,-1 -0.356,-0.438 -0.621,-0.965 -0.797,-1.578 -0.168,-0.617 -0.25,-1.297 -0.25,-2.047 0,-0.762 0.086,-1.453 0.266,-2.078 0.175,-0.625 0.441,-1.168 0.797,-1.625 0.351,-0.449 0.8,-0.805 1.343,-1.063 0.551,-0.25 1.203,-0.375 1.953,-0.375 z" /><path
         id="path160"
         style="fill:#000000;fill-opacity:1;fill-rule:nonzero;stroke:none"
         d="m 319.418,240.269 c 0,-0.625 -0.109,-1.23 -0.328,-1.813 -0.211,-0.574 -0.528,-1.085 -0.953,-1.531 -0.43,-0.437 -0.977,-0.789 -1.641,-1.047 -0.668,-0.261 -1.453,-0.39 -2.359,-0.39 l -3.578,0 0,-5.094 -3.032,0 0,14.453 6.485,0 c 0.926,0 1.726,-0.117 2.406,-0.344 0.676,-0.218 1.234,-0.531 1.672,-0.937 0.445,-0.399 0.781,-0.875 1,-1.438 0.219,-0.562 0.328,-1.183 0.328,-1.859 z m -3.047,-0.047 c 0,0.738 -0.226,1.301 -0.672,1.688 -0.449,0.382 -1.121,0.578 -2.015,0.578 l -3.125,0 0,-4.688 3.203,0 c 0.445,0 0.832,0.055 1.156,0.172 0.332,0.125 0.602,0.289 0.812,0.5 0.219,0.207 0.379,0.461 0.485,0.766 0.101,0.301 0.156,0.629 0.156,0.984 z" /><path
         id="path162"
         style="fill:#000000;fill-opacity:1;fill-rule:nonzero;stroke:none"
         d="m 321.84,244.847 3.031,0 0,-14.453 -3.031,0 0,14.453 z" /><path
         id="path164"
         style="fill:#000000;fill-opacity:1;fill-rule:nonzero;stroke:none"
         d="m 341.832,237.691 c 0,-1.137 -0.168,-2.168 -0.5,-3.094 -0.336,-0.918 -0.82,-1.703 -1.453,-2.359 -0.625,-0.657 -1.391,-1.164 -2.297,-1.516 -0.906,-0.351 -1.934,-0.531 -3.078,-0.531 -1.211,0 -2.266,0.183 -3.172,0.547 -0.906,0.375 -1.664,0.894 -2.266,1.562 -0.605,0.664 -1.062,1.457 -1.375,2.375 -0.304,0.914 -0.453,1.922 -0.453,3.016 0,1.125 0.157,2.14 0.469,3.047 0.32,0.906 0.789,1.676 1.406,2.312 0.625,0.645 1.391,1.141 2.297,1.485 0.906,0.343 1.945,0.515 3.125,0.515 1.176,0 2.219,-0.172 3.125,-0.515 0.906,-0.344 1.664,-0.84 2.281,-1.485 0.614,-0.648 1.082,-1.422 1.407,-2.328 0.32,-0.906 0.484,-1.918 0.484,-3.031 z m -3.094,0 c 0,0.75 -0.09,1.43 -0.265,2.047 -0.18,0.613 -0.45,1.14 -0.813,1.578 -0.355,0.437 -0.793,0.769 -1.312,1 -0.524,0.238 -1.125,0.359 -1.813,0.359 -0.711,0 -1.328,-0.121 -1.859,-0.359 -0.531,-0.231 -0.977,-0.563 -1.328,-1 -0.356,-0.438 -0.621,-0.965 -0.797,-1.578 -0.18,-0.617 -0.266,-1.297 -0.266,-2.047 0,-0.762 0.086,-1.453 0.266,-2.078 0.187,-0.625 0.457,-1.164 0.812,-1.61 0.352,-0.449 0.789,-0.804 1.313,-1.062 0.531,-0.25 1.14,-0.375 1.828,-0.375 0.738,0 1.375,0.125 1.906,0.375 0.539,0.258 0.985,0.617 1.328,1.078 0.344,0.457 0.594,1 0.75,1.625 0.164,0.625 0.25,1.305 0.25,2.047 z" /><path
         id="path166"
         style="fill:#000000;fill-opacity:1;fill-rule:nonzero;stroke:none"
         d="m 350.992,238.113 0,2.89 2.953,0 0,-2.89 -2.953,0 z m 0,-7.719 0,2.875 2.953,0 0,-2.875 -2.953,0 z" /><path
         id="path168"
         style="fill:#000000;fill-opacity:1;fill-rule:nonzero;stroke:none"
         d="m 363.48,244.847 3.031,0 0,-14.453 -3.031,0 0,14.453 z" /><path
         id="path170"
         style="fill:#000000;fill-opacity:1;fill-rule:nonzero;stroke:none"
         d="m 376.676,230.394 0,6.219 c 0,0.437 -0.039,0.832 -0.11,1.187 -0.062,0.364 -0.171,0.672 -0.328,0.922 -0.156,0.258 -0.367,0.457 -0.625,0.594 -0.25,0.144 -0.558,0.219 -0.922,0.219 -0.343,0 -0.664,-0.079 -0.953,-0.235 -0.281,-0.148 -0.527,-0.367 -0.734,-0.656 -0.199,-0.281 -0.356,-0.621 -0.469,-1.016 -0.117,-0.386 -0.172,-0.812 -0.172,-1.281 l 0,-5.953 -2.875,0 0,8.609 c 0,0.239 -0.008,0.485 -0.015,0.735 0,0.258 -0.008,0.504 -0.016,0.734 -0.012,0.227 -0.023,0.43 -0.031,0.609 0,0.188 -0.008,0.321 -0.016,0.407 l 2.735,0 c 0.019,-0.086 0.035,-0.219 0.046,-0.407 0.008,-0.179 0.02,-0.375 0.032,-0.593 0.019,-0.219 0.035,-0.438 0.047,-0.657 0.007,-0.218 0.015,-0.402 0.015,-0.546 l 0.047,0 c 0.383,0.843 0.867,1.457 1.453,1.843 0.594,0.383 1.297,0.578 2.11,0.578 0.664,0 1.226,-0.109 1.687,-0.328 0.469,-0.218 0.848,-0.523 1.141,-0.906 0.289,-0.387 0.5,-0.84 0.625,-1.359 0.132,-0.512 0.203,-1.071 0.203,-1.672 l 0,-7.047 -2.875,0 z" /><g
         transform="matrix(1,0,0,-1,0,409.84711)"
         id="g172"><path
           id="path174"
           style="fill:none;stroke:#000000;stroke-width:3.57119989;stroke-linecap:butt;stroke-linejoin:miter;stroke-miterlimit:10;stroke-dasharray:none;stroke-opacity:1"
           d="m 348.684,196.414 -303.551,0 3.57,0" /></g><g
         transform="matrix(1,0,0,-1,0,409.84711)"
         id="g176"><path
           id="path178"
           style="fill:#000000;fill-opacity:1;fill-rule:nonzero;stroke:#000000;stroke-width:3.57119989;stroke-linecap:butt;stroke-linejoin:miter;stroke-miterlimit:4;stroke-dasharray:none;stroke-opacity:1"
           d="m 48.703,196.414 c 0,1.973 -1.601,3.574 -3.57,3.574 -1.973,0 -3.574,-1.601 -3.574,-3.574 0,-1.969 1.601,-3.57 3.574,-3.57 1.969,0 3.57,1.601 3.57,3.57 z" /></g><g
         transform="matrix(1,0,0,-1,0,409.84711)"
         id="g180"><path
           id="path182"
           style="fill:none;stroke:#000000;stroke-width:3.57119989;stroke-linecap:butt;stroke-linejoin:miter;stroke-miterlimit:10;stroke-dasharray:none;stroke-opacity:1"
           d="m 152.266,232.129 0,-35.715 0,3.574" /></g><g
         transform="matrix(1,0,0,-1,0,409.84711)"
         id="g184"><path
           id="path186"
           style="fill:#000000;fill-opacity:1;fill-rule:nonzero;stroke:#000000;stroke-width:3.57119989;stroke-linecap:butt;stroke-linejoin:miter;stroke-miterlimit:4;stroke-dasharray:none;stroke-opacity:1"
           d="m 155.84,196.414 c 0,1.973 -1.602,3.574 -3.574,3.574 -1.973,0 -3.571,-1.601 -3.571,-3.574 0,-1.969 1.598,-3.57 3.571,-3.57 1.972,0 3.574,1.601 3.574,3.57 z" /></g><path
         id="path188"
         style="fill:#000000;fill-opacity:1;fill-rule:nonzero;stroke:none"
         d="m 204.051,215.218 3.57,0 0,-3.574 -3.57,0 0,3.574 z" /><g
         transform="matrix(-1,0,0,1,0,409.84711)"
         id="g190"><path
           id="path192"
           style="fill:none;stroke:#000000;stroke-width:3.57119989;stroke-linecap:square;stroke-linejoin:miter;stroke-miterlimit:10;stroke-dasharray:none;stroke-opacity:1"
           d="m -237.977,-196.414 30.356,0" /></g><g
         transform="matrix(-1,0,0,1,0,409.84711)"
         id="g194"><path
           id="path196"
           style="fill:none;stroke:#000000;stroke-width:3.57119989;stroke-linecap:square;stroke-linejoin:miter;stroke-miterlimit:10;stroke-dasharray:none;stroke-opacity:1"
           d="m -229.211,-206.52 -10.09,10.106 10.09,10.102" /></g><path
         id="path198"
         style="fill:#000000;fill-opacity:1;fill-rule:nonzero;stroke:none"
         d="m 223.32,244.847 3.031,0 0,-14.453 -3.031,0 0,14.453 z" /><path
         id="path200"
         style="fill:#000000;fill-opacity:1;fill-rule:nonzero;stroke:none"
         d="m 229.324,243.488 0,2.125 2.875,0 0,-2.125 -2.875,0 z m 0,-13.094 0,11.094 2.875,0 0,-11.094 -2.875,0 z" /><path
         id="path202"
         style="fill:#000000;fill-opacity:1;fill-rule:nonzero;stroke:none"
         d="m 242.453,230.394 0,6.219 c 0,0.437 -0.039,0.832 -0.109,1.187 -0.063,0.364 -0.172,0.672 -0.328,0.922 -0.157,0.258 -0.368,0.457 -0.625,0.594 -0.25,0.144 -0.559,0.219 -0.922,0.219 -0.344,0 -0.664,-0.079 -0.953,-0.235 -0.282,-0.148 -0.528,-0.367 -0.735,-0.656 -0.199,-0.281 -0.355,-0.621 -0.469,-1.016 -0.117,-0.386 -0.171,-0.812 -0.171,-1.281 l 0,-5.953 -2.875,0 0,8.609 c 0,0.239 -0.008,0.485 -0.016,0.735 0,0.258 -0.008,0.504 -0.016,0.734 -0.011,0.227 -0.023,0.43 -0.031,0.609 0,0.188 -0.008,0.321 -0.015,0.407 l 2.734,0 c 0.019,-0.086 0.035,-0.219 0.047,-0.407 0.008,-0.179 0.019,-0.375 0.031,-0.593 0.02,-0.219 0.035,-0.438 0.047,-0.657 0.008,-0.218 0.015,-0.402 0.015,-0.546 l 0.047,0 c 0.383,0.843 0.868,1.457 1.453,1.843 0.594,0.383 1.297,0.578 2.11,0.578 0.664,0 1.226,-0.109 1.687,-0.328 0.469,-0.218 0.848,-0.523 1.141,-0.906 0.289,-0.387 0.5,-0.84 0.625,-1.359 0.133,-0.512 0.203,-1.071 0.203,-1.672 l 0,-7.047 -2.875,0 z" /></g></g></svg>