<?xml version="1.0" encoding="UTF-8" standalone="no"?>
<svg width="221.192mm" height="150.636mm"
 xmlns="http://www.w3.org/2000/svg" xmlns:xlink="http://www.w3.org/1999/xlink"  version="1.2" baseProfile="tiny">
<title>Qt Svg Document</title>
<desc>Generated with Qt</desc>
<defs>
</defs>
<g fill="none" stroke="black" stroke-width="1" fill-rule="evenodd" stroke-linecap="square" stroke-linejoin="bevel" >

<g fill="#ffffff" fill-opacity="1" stroke="none" transform="matrix(1,0,0,1,0,0)"
font-family="Helvetica" font-size="12" font-weight="400" font-style="normal" 
>
<path vector-effect="non-scaling-stroke" fill-rule="evenodd" d="M0,0 L627,0 L627,427 L0,427 L0,0"/>
</g>

<g fill="none" stroke="#c0c0c0" stroke-opacity="1" stroke-width="1" stroke-linecap="square" stroke-linejoin="bevel" transform="matrix(1,0,0,1,0,0)"
font-family="Helvetica" font-size="12" font-weight="400" font-style="normal" 
>
<polyline fill="none" vector-effect="non-scaling-stroke" points="210,200 538,200 " />
<path vector-effect="non-scaling-stroke" fill-rule="evenodd" d="M489.969,83.8643 C477.633,96.174 470,113.196 470,132 C470,169.555 500.445,200 538,200 "/>
<path vector-effect="non-scaling-stroke" fill-rule="evenodd" d="M538,200 C500.445,200 470,230.445 470,268 C470,286.804 477.633,303.826 489.969,316.136 "/>
<path vector-effect="non-scaling-stroke" fill-rule="evenodd" d="M374,35.8211 C374,35.8807 374,35.9404 374,36 C374,126.575 447.425,200 538,200 "/>
<path vector-effect="non-scaling-stroke" fill-rule="evenodd" d="M538,200 C447.425,200 374,273.425 374,364 C374,364.06 374,364.12 374,364.18 "/>
<path vector-effect="non-scaling-stroke" fill-rule="evenodd" d="M257.986,84.0143 C329.648,155.676 428.648,200 538,200 "/>
<path vector-effect="non-scaling-stroke" fill-rule="evenodd" d="M538,200 C428.648,200 329.648,244.324 257.986,315.986 "/>
<path vector-effect="non-scaling-stroke" fill-rule="evenodd" d="M538,200 C538,132.069 482.931,77 415,77 C347.069,77 292,132.069 292,200 C292,267.931 347.069,323 415,323 C482.931,323 538,267.931 538,200 "/>
<path vector-effect="non-scaling-stroke" fill-rule="evenodd" d="M538,200 C538,154.713 501.287,118 456,118 C410.713,118 374,154.713 374,200 C374,245.287 410.713,282 456,282 C501.287,282 538,245.287 538,200 "/>
<path vector-effect="non-scaling-stroke" fill-rule="evenodd" d="M538,200 C538,177.356 519.644,159 497,159 C474.356,159 456,177.356 456,200 C456,222.644 474.356,241 497,241 C519.644,241 538,222.644 538,200 "/>
</g>

<g fill="none" stroke="#000000" stroke-opacity="1" stroke-width="1" stroke-linecap="square" stroke-linejoin="bevel" transform="matrix(1,0,0,1,0,0)"
font-family="Helvetica" font-size="12" font-weight="400" font-style="normal" 
>
<path vector-effect="non-scaling-stroke" fill-rule="evenodd" d="M538,200 C538,109.425 464.575,36 374,36 C283.425,36 210,109.425 210,200 C210,290.575 283.425,364 374,364 C464.575,364 538,290.575 538,200 "/>
</g>

<g fill="none" stroke="#55ff00" stroke-opacity="1" stroke-width="2" stroke-linecap="square" stroke-linejoin="bevel" transform="matrix(1,0,0,1,0,0)"
font-family="Helvetica" font-size="12" font-weight="400" font-style="normal" 
>
<path vector-effect="none" fill-rule="evenodd" d="M471.845,69.8487 L473.016,70.8351 L474.159,71.8227 L475.281,72.8065 L476.384,73.7829 L477.475,74.7485 L478.562,75.705 L479.65,76.6545 L480.745,77.6008 L481.85,78.5497 L482.966,79.5073 L484.093,80.479 L485.228,81.4709 L486.369,82.4906 L487.507,83.538 L488.64,84.6142 L489.759,85.7196 L490.859,86.8544 L491.935,88.0112 L492.987,89.1853 L494.012,90.372 L495.007,91.5657 L495.979,92.7606 L496.93,93.9529 L497.866,95.1398 L498.79,96.3199 L499.709,97.4947 L500.628,98.6663 L501.549,99.8384 L502.476,101.016 L503.409,102.204 L504.347,103.407 L505.288,104.631 L506.227,105.879 L507.16,107.153 L508.083,108.451 L508.989,109.776 L509.873,111.126 L510.734,112.493 L511.571,113.875 L512.379,115.268 L513.161,116.666 L513.92,118.065 L514.66,119.462 L515.383,120.855 L516.095,122.245 L516.8,123.631 L517.502,125.017 L518.204,126.406 L518.906,127.803 L519.61,129.211 L520.314,130.635 L521.015,132.079 L521.708,133.546 L522.392,135.036 L523.061,136.55 L523.709,138.087 L524.333,139.645 L524.932,141.219 L525.506,142.805 L526.049,144.4 L526.566,145.999 L527.059,147.6 L527.533,149.199 L527.988,150.795 L528.43,152.389 L528.864,153.982 L529.291,155.576 L529.713,157.176 L530.132,158.785 L530.547,160.406 L530.957,162.043 L531.357,163.702 L531.746,165.383 L532.118,167.086 L532.472,168.81 L532.798,170.558 L533.097,172.323 L533.368,174.103 L533.609,175.894 L533.815,177.693 L533.993,179.495 L534.146,181.298 L534.275,183.1 L534.381,184.9 L534.471,186.699 L534.548,188.498 L534.615,190.301 L534.67,192.111 L534.716,193.932 L534.752,195.767 L534.775,197.62 L534.781,199.495 L534.767,201.392 L534.729,203.311 L534.664,205.252 L534.563,207.216 L534.428,209.196 L534.256,211.19 L534.046,213.193 L533.794,215.204 L533.506,217.217 L533.186,219.23 L532.834,221.242 L532.451,223.253 L532.045,225.264 L531.617,227.276 L531.168,229.293 L530.698,231.319 L530.208,233.358 L529.696,235.413 L529.158,237.488 L528.588,239.586 L527.984,241.707 L527.342,243.851 L526.654,246.018 L525.913,248.205 L525.121,250.408 L524.276,252.622 L523.372,254.844 L522.409,257.069 L521.394,259.294 L520.327,261.516 L519.207,263.734 L518.038,265.947 L516.826,268.158 L515.571,270.369 L514.272,272.582 L512.926,274.803 L511.536,277.035 L510.097,279.281 L508.599,281.545 L507.036,283.829 L505.405,286.131 L503.7,288.45 L501.904,290.783 L500.016,293.126 L498.035,295.472 L495.957,297.815 L493.768,300.147 L491.474,302.463 L489.081,304.757 L486.588,307.025 L483.984,309.261 L481.28,311.465 L478.479,313.638 L475.58,315.781 L472.566,317.891 L469.443,319.973 L466.208,322.027 L462.851,324.053 L459.344,326.044 L455.689,327.997 L451.879,329.907 L447.902,331.764 L443.718,333.541 L439.344,335.232 L434.774,336.821 L430.003,338.288 L424.996,339.588 L419.783,340.721 L414.369,341.668 L408.755,342.409 L402.917,342.886 L396.89,343.116 L390.68,343.081 L384.29,342.757 L377.7,342.08 L370.941,341.069 L364.018,339.701 L356.934,337.936 L349.682,335.683 L342.299,332.96 L334.806,329.725 L327.23,325.914 L319.613,321.407 L312.017,316.236 L304.506,310.358 L297.164,303.708 L290.118,296.185 L283.444,287.875 L277.248,278.781 L271.674,268.893 L266.908,258.205 L262.982,246.876 L259.995,234.989 L258.096,222.627 L257.435,209.912 L257.943,197.026 L259.648,184.109 L262.634,171.322 L266.931,158.849 L272.368,146.813 L278.885,135.345 L286.466,124.622 L295.018,114.787 L304.336,105.855 L314.299,97.8926 L324.815,91.0311 L335.733,85.3113 L346.885,80.6479 L358.148,77.0294 L369.399,74.5145 L380.51,73.0428 L391.392,72.4767 L401.966,72.7508 L412.121,73.8589 L421.806,75.6892 L431.013,78.1089 L439.718,81.0396 L447.854,84.4437 L455.442,88.2196 L462.525,92.2778 L469.118,96.562 L475.193,101.038 L480.804,105.65 L486.002,110.355 L490.814,115.128 L495.221,119.953 L499.276,124.809 L503.014,129.682 L506.451,134.561 L509.565,139.439 L512.395,144.305 L514.962,149.15 L517.275,153.966 L519.31,158.736 L521.106,163.453 L522.681,168.107 L524.046,172.691 L525.187,177.181 L526.146,181.581 L526.942,185.888 L527.589,190.098 L528.085,194.196 L528.463,198.199 L528.736,202.111 L528.917,205.938 L528.999,209.674 L529.003,213.339 L528.933,216.94 L528.79,220.482 L528.563,223.96 L528.263,227.387 L527.889,230.764 L527.44,234.089 L526.903,237.353 L526.291,240.56 L525.608,243.706 L524.853,246.787 L524.026,249.79 L523.142,252.724 L522.208,255.586 L521.229,258.376 L520.209,261.089 L519.16,263.736 L518.087,266.324 L516.992,268.856 L515.878,271.333 L514.746,273.768 L513.595,276.167 L512.422,278.531 L511.222,280.863 L509.993,283.166 L508.733,285.44 L507.436,287.683 L506.099,289.888 L504.723,292.057 L503.31,294.185 L501.861,296.265 L500.376,298.293 L498.864,300.27 L497.33,302.195 L495.779,304.067 L494.215,305.885 L492.643,307.659 L491.068,309.391 L489.491,311.085 L487.913,312.745 L486.332,314.38 L484.745,315.994 L483.15,317.587 L481.54,319.162 L479.914,320.721 L478.266,322.261 L476.591,323.78 L474.888,325.271 L473.157,326.735 L471.4,328.165 L469.615,329.554 L467.807,330.899 L465.983,332.202 L464.148,333.462 L462.304,334.673 L460.459,335.842 L458.615,336.974 L456.776,338.074 L454.943,339.142 L453.115,340.187 L451.29,341.215 L449.465,342.228 L447.636,343.228 L445.796,344.217 L443.942,345.194 L442.069,346.157 L440.172,347.101 L438.251,348.022 L436.305,348.916 L434.335,349.778 L432.343,350.598 L430.334,351.377 L428.314,352.113 L426.288,352.807 L424.262,353.453 L422.241,354.061 L420.228,354.633 L418.225,355.177 L416.236,355.692 L414.257,356.19 L412.284,356.674 L410.315,357.149 L408.342,357.614 L406.361,358.072 L404.367,358.52 L402.353,358.956 L400.315,359.372 L398.253,359.765 L396.166,360.128 L394.058,360.455 L391.929,360.736 L389.788,360.972 L387.64,361.163 L385.492,361.305 L383.352,361.398 L381.224,361.451 L379.112,361.468 L377.019,361.456 L374.946,361.42 L372.888,361.368 L370.841,361.307 L368.8,361.239 L366.758,361.165 L364.707,361.087 L362.641,361 L360.554,360.899 L358.439,360.777 L356.299,360.626 L354.134,360.44 L351.945,360.209 L349.739,359.924 L347.525,359.585 L345.31,359.191 L343.103,358.74 L340.913,358.232 L338.746,357.68 L336.606,357.09 L334.496,356.468 L332.415,355.824 L330.357,355.168 L328.316,354.504 L326.285,353.838 L324.253,353.17 L322.21,352.499 L320.149,351.819 L318.061,351.121 L315.941,350.395 L313.792,349.631 L311.614,348.821 L309.411,347.947 L307.195,347.003 L304.976,345.989 L302.764,344.903 L300.576,343.74 L298.42,342.509 L296.303,341.223 L294.229,339.891 L292.206,338.523 L290.228,337.133 L288.284,335.733 L286.367,334.328 L284.464,332.924 L282.561,331.521 L280.645,330.112 L278.705,328.69 L276.728,327.239 L274.713,325.743 L272.662,324.189 L270.58,322.561 L268.474,320.832 L266.362,319.001 L264.261,317.065 L262.189,315.021 L260.17,312.859 L258.214,310.604 L256.333,308.269 L254.531,305.871 L252.822,303.42 L251.189,300.941 L249.619,298.448 L248.098,295.948"/>
</g>

<g fill="none" stroke="#000000" stroke-opacity="1" stroke-width="1" stroke-linecap="square" stroke-linejoin="bevel" transform="matrix(1,0,0,1,372,389)"
font-family="Helvetica" font-size="12" font-weight="400" font-style="normal" 
>
<text fill="#000000" fill-opacity="1" stroke="none" xml:space="preserve" x="0" y="0" font-family="Helvetica" font-size="12" font-weight="400" font-style="normal" 
 > </text>
</g>

<g fill="none" stroke="#55ff00" stroke-opacity="1" stroke-width="1" stroke-linecap="square" stroke-linejoin="bevel" transform="matrix(0,-1,1,0,200,236)"
font-family="Helvetica" font-size="12" font-weight="400" font-style="normal" 
>
<text fill="#55ff00" fill-opacity="1" stroke="none" xml:space="preserve" x="0" y="0" font-family="Helvetica" font-size="12" font-weight="400" font-style="normal" 
 >S11_base</text>
</g>

<g fill="none" stroke="#55ff00" stroke-opacity="1" stroke-width="2" stroke-linecap="square" stroke-linejoin="bevel" transform="matrix(1,0,0,1,0,0)"
font-family="Helvetica" font-size="12" font-weight="400" font-style="normal" 
>
</g>

<g fill="none" stroke="#000000" stroke-opacity="1" stroke-width="1" stroke-linecap="square" stroke-linejoin="bevel" transform="matrix(1,0,0,1,0,0)"
font-family="Helvetica" font-size="12" font-weight="400" font-style="normal" 
>
<text fill="#000000" fill-opacity="1" stroke="none" xml:space="preserve" x="18" y="32" font-family="Helvetica" font-size="12" font-weight="400" font-style="normal" 
 >frequency: 2.362e+09</text>
<text fill="#000000" fill-opacity="1" stroke="none" xml:space="preserve" x="18" y="49" font-family="Helvetica" font-size="12" font-weight="400" font-style="normal" 
 >S11_base: -0.6197+j0.3243</text>
<text fill="#000000" fill-opacity="1" stroke="none" xml:space="preserve" x="18" y="66" font-family="Helvetica" font-size="12" font-weight="400" font-style="normal" 
 >Z11_base: 9.36+j11.89</text>
</g>

<g fill="#ffffff" fill-opacity="1" stroke="none" transform="matrix(1,0,0,1,0,0)"
font-family="Helvetica" font-size="12" font-weight="400" font-style="normal" 
>
<path vector-effect="non-scaling-stroke" fill-rule="evenodd" d="M15,15 L170,15 L170,73 L15,73 L15,15"/>
</g>

<g fill="none" stroke="#000000" stroke-opacity="1" stroke-width="1" stroke-linecap="square" stroke-linejoin="bevel" transform="matrix(1,0,0,1,0,0)"
font-family="Helvetica" font-size="12" font-weight="400" font-style="normal" 
>
<text fill="#000000" fill-opacity="1" stroke="none" xml:space="preserve" x="18" y="32" font-family="Helvetica" font-size="12" font-weight="400" font-style="normal" 
 >frequency: 2.362e+09</text>
<text fill="#000000" fill-opacity="1" stroke="none" xml:space="preserve" x="18" y="49" font-family="Helvetica" font-size="12" font-weight="400" font-style="normal" 
 >S11_base: -0.6197+j0.3243</text>
<text fill="#000000" fill-opacity="1" stroke="none" xml:space="preserve" x="18" y="66" font-family="Helvetica" font-size="12" font-weight="400" font-style="normal" 
 >Z11_base: 9.36+j11.89</text>
</g>

<g fill="none" stroke="#55ff00" stroke-opacity="1" stroke-width="2" stroke-linecap="square" stroke-linejoin="bevel" transform="matrix(1,0,0,1,0,0)"
font-family="Helvetica" font-size="12" font-weight="400" font-style="normal" 
>
</g>

<g fill="none" stroke="#800080" stroke-opacity="1" stroke-width="1" stroke-linecap="square" stroke-linejoin="bevel" transform="matrix(1,0,0,1,0,0)"
font-family="Helvetica" font-size="12" font-weight="400" font-style="normal" 
>
<path vector-effect="non-scaling-stroke" fill-rule="evenodd" d="M15,15 L170,15 L170,73 L15,73 L15,15"/>
<polyline fill="none" vector-effect="non-scaling-stroke" points="169,72 272,147 " />
</g>
</g>
</svg>
