<?xml version="1.0" encoding="UTF-8" standalone="no"?>
<svg width="235.656mm" height="148.872mm"
 xmlns="http://www.w3.org/2000/svg" xmlns:xlink="http://www.w3.org/1999/xlink"  version="1.2" baseProfile="tiny">
<title>Qt Svg Document</title>
<desc>Generated with Qt</desc>
<defs>
</defs>
<g fill="none" stroke="black" stroke-width="1" fill-rule="evenodd" stroke-linecap="square" stroke-linejoin="bevel" >

<g fill="#ffffff" fill-opacity="1" stroke="none" transform="matrix(1,0,0,1,0,0)"
font-family="Helvetica" font-size="12" font-weight="400" font-style="normal" 
>
<path vector-effect="non-scaling-stroke" fill-rule="evenodd" d="M0,0 L668,0 L668,422 L0,422 L0,0"/>
</g>

<g fill="none" stroke="#c0c0c0" stroke-opacity="1" stroke-dasharray="1,2" stroke-dashoffset="0" stroke-width="1" stroke-linecap="square" stroke-linejoin="bevel" transform="matrix(1,0,0,1,0,0)"
font-family="Helvetica" font-size="12" font-weight="400" font-style="normal" 
>
<polyline fill="none" vector-effect="non-scaling-stroke" points="98,45 575,45 " />
<polyline fill="none" vector-effect="non-scaling-stroke" points="98,75 575,75 " />
<polyline fill="none" vector-effect="non-scaling-stroke" points="98,104 575,104 " />
<polyline fill="none" vector-effect="non-scaling-stroke" points="98,134 575,134 " />
<polyline fill="none" vector-effect="non-scaling-stroke" points="98,164 575,164 " />
<polyline fill="none" vector-effect="non-scaling-stroke" points="98,194 575,194 " />
<polyline fill="none" vector-effect="non-scaling-stroke" points="98,224 575,224 " />
<polyline fill="none" vector-effect="non-scaling-stroke" points="98,254 575,254 " />
<polyline fill="none" vector-effect="non-scaling-stroke" points="98,283 575,283 " />
<polyline fill="none" vector-effect="non-scaling-stroke" points="98,313 575,313 " />
<polyline fill="none" vector-effect="non-scaling-stroke" points="496,15 496,343 " />
<polyline fill="none" vector-effect="non-scaling-stroke" points="416,15 416,343 " />
<polyline fill="none" vector-effect="non-scaling-stroke" points="337,15 337,343 " />
<polyline fill="none" vector-effect="non-scaling-stroke" points="257,15 257,343 " />
<polyline fill="none" vector-effect="non-scaling-stroke" points="178,15 178,343 " />
</g>

<g fill="none" stroke="#000000" stroke-opacity="1" stroke-width="1" stroke-linecap="square" stroke-linejoin="bevel" transform="matrix(1,0,0,1,0,0)"
font-family="Helvetica" font-size="12" font-weight="400" font-style="normal" 
>
<polyline fill="none" vector-effect="non-scaling-stroke" points="98,338 98,348 " />
<polyline fill="none" vector-effect="non-scaling-stroke" points="178,338 178,348 " />
<polyline fill="none" vector-effect="non-scaling-stroke" points="257,338 257,348 " />
<polyline fill="none" vector-effect="non-scaling-stroke" points="337,338 337,348 " />
<polyline fill="none" vector-effect="non-scaling-stroke" points="416,338 416,348 " />
<polyline fill="none" vector-effect="non-scaling-stroke" points="496,338 496,348 " />
<polyline fill="none" vector-effect="non-scaling-stroke" points="575,338 575,348 " />
<polyline fill="none" vector-effect="non-scaling-stroke" points="93,343 103,343 " />
<polyline fill="none" vector-effect="non-scaling-stroke" points="93,313 103,313 " />
<polyline fill="none" vector-effect="non-scaling-stroke" points="93,283 103,283 " />
<polyline fill="none" vector-effect="non-scaling-stroke" points="93,254 103,254 " />
<polyline fill="none" vector-effect="non-scaling-stroke" points="93,224 103,224 " />
<polyline fill="none" vector-effect="non-scaling-stroke" points="93,194 103,194 " />
<polyline fill="none" vector-effect="non-scaling-stroke" points="93,164 103,164 " />
<polyline fill="none" vector-effect="non-scaling-stroke" points="93,134 103,134 " />
<polyline fill="none" vector-effect="non-scaling-stroke" points="93,104 103,104 " />
<polyline fill="none" vector-effect="non-scaling-stroke" points="93,75 103,75 " />
<polyline fill="none" vector-effect="non-scaling-stroke" points="93,45 103,45 " />
<polyline fill="none" vector-effect="non-scaling-stroke" points="93,15 103,15 " />
<polyline fill="none" vector-effect="non-scaling-stroke" points="98,15 575,15 " />
<polyline fill="none" vector-effect="non-scaling-stroke" points="575,15 575,343 " />
<polyline fill="none" vector-effect="non-scaling-stroke" points="98,343 575,343 " />
<polyline fill="none" vector-effect="non-scaling-stroke" points="98,15 98,343 " />
</g>

<g fill="none" stroke="#0000ff" stroke-opacity="1" stroke-width="1" stroke-linecap="square" stroke-linejoin="bevel" transform="matrix(1,0,0,1,0,0)"
font-family="Helvetica" font-size="12" font-weight="400" font-style="normal" 
>
<path vector-effect="non-scaling-stroke" fill-rule="evenodd" d="M171.915,343 L171.923,342.989 L172.239,342.598 L172.556,342.214 L172.874,341.837 L173.193,341.465 L173.514,341.101 L173.836,340.742 L174.159,340.391 L174.484,340.045 L174.811,339.707 L175.138,339.376 L175.467,339.051 L175.798,338.733 L176.13,338.423 L176.463,338.12 L176.798,337.823 L177.134,337.534 L177.471,337.253 L177.81,336.979 L178.151,336.712 L178.493,336.454 L178.836,336.203 L179.181,335.959 L179.527,335.724 L179.875,335.497 L180.224,335.277 L180.575,335.067 L180.927,334.864 L181.281,334.67 L181.636,334.484 L181.993,334.307 L182.351,334.139 L182.711,333.979 L183.073,333.829 L183.436,333.687 L183.8,333.555 L184.166,333.432 L184.534,333.318 L184.903,333.214 L185.273,333.12 L185.646,333.036 L186.02,332.961 L186.395,332.897 L186.772,332.843 L187.151,332.799 L187.531,332.766 L187.913,332.743 L188.297,332.731 L188.682,332.73 L189.069,332.74 L189.457,332.762 L189.847,332.795 L190.239,332.839 L190.633,332.896 L191.028,332.964 L191.425,333.044 L191.823,333.137 L192.223,333.242 L192.625,333.36 L193.029,333.49 L193.434,333.634 L193.842,333.791 L194.25,333.961 L194.661,334.145 L195.073,334.343 L195.487,334.555 L195.903,334.782 L196.321,335.023 L196.74,335.279 L197.162,335.55 L197.585,335.836 L198.009,336.138 L198.436,336.455 L198.865,336.789 L199.295,337.139 L199.727,337.506 L200.161,337.89 L200.597,338.291 L201.034,338.71 L201.474,339.146 L201.915,339.601 L202.359,340.074 L202.804,340.566 L203.251,341.077 L203.7,341.608 L204.151,342.158 L204.604,342.729 L204.811,343"/>
<path vector-effect="non-scaling-stroke" fill-rule="evenodd" d="M325.44,343 L326.397,341.455 L327.372,340.051 L328.35,338.81 L329.333,337.735 L330.32,336.831 L331.311,336.101 L332.306,335.55 L333.306,335.184 L334.309,335.008 L335.317,335.029 L336.33,335.254 L337.346,335.692 L338.367,336.353 L339.393,337.246 L340.423,338.383 L341.457,339.778 L342.495,341.444 L343.326,343"/>
<path vector-effect="non-scaling-stroke" fill-rule="evenodd" d="M390.06,343 L390.359,336.742 L391.606,312.993 L392.859,291.24 L394.116,271.263 L395.38,252.887 L396.648,235.965 L397.922,220.374 L399.202,206.007 L400.487,192.771 L401.777,180.582 L403.073,169.363 L404.374,159.045 L405.681,149.561 L406.994,140.852 L408.312,132.859 L409.636,125.53 L410.965,118.814 L412.3,112.663 L413.641,107.033 L414.987,101.882 L416.34,97.1708 L417.698,92.8629 L419.061,88.9247 L420.431,85.3248 L421.806,82.0341 L423.188,79.026 L424.575,76.2759 L425.968,73.7612 L427.367,71.4611 L428.772,69.3568 L430.183,67.4308 L431.6,65.6674 L433.023,64.0522 L434.453,62.5721 L435.888,61.2151 L437.329,59.9704 L438.777,58.8281 L440.231,57.7791 L441.69,56.8154 L443.157,55.9295 L444.629,55.1147 L446.108,54.3647 L447.593,53.6742 L449.084,53.0379 L450.582,52.4514 L452.086,51.9103 L453.596,51.4109 L455.113,50.9498 L456.637,50.5237 L458.167,50.1297 L459.703,49.7653 L461.246,49.4279 L462.796,49.1156 L464.352,48.8262 L465.915,48.5579 L467.484,48.3091 L469.06,48.0782 L470.643,47.8638 L472.233,47.6647 L473.829,47.4796 L475.432,47.3076 L477.043,47.1475 L478.659,46.9985 L480.283,46.8598 L481.914,46.7307 L483.552,46.6103 L485.197,46.498 L486.848,46.3933 L488.507,46.2957 L490.173,46.2045 L491.846,46.1194 L493.526,46.0398 L495.213,45.9655 L496.908,45.896 L498.609,45.831 L500.318,45.7702 L502.035,45.7133 L503.758,45.6601 L505.489,45.6102 L507.227,45.5635 L508.973,45.5197 L510.726,45.4786 L512.487,45.4401 L514.255,45.404 L516.031,45.3701 L517.814,45.3383 L519.605,45.3085 L521.403,45.2805 L523.21,45.2541 L525.024,45.2294 L526.845,45.2061 L528.675,45.1843 L530.512,45.1637 L532.357,45.1443 L534.21,45.1262 L536.071,45.109 L537.939,45.0929 L539.816,45.0777 L541.701,45.0634 L543.594,45.05 L545.495,45.0373 L547.403,45.0253 L549.321,45.014 L551.246,45.0034 L553.179,44.9934 L555.121,44.9839 L557.071,44.975 L559.029,44.9666 L560.996,44.9587 L562.971,44.9512 L564.955,44.9441 L566.947,44.9374 L568.947,44.9311 L570.956,44.9252 L572.974,44.9195 L575,44.9142"/>
</g>

<g fill="none" stroke="#ff0000" stroke-opacity="1" stroke-width="1" stroke-linecap="square" stroke-linejoin="bevel" transform="matrix(1,0,0,1,0,0)"
font-family="Helvetica" font-size="12" font-weight="400" font-style="normal" 
>
<path vector-effect="non-scaling-stroke" fill-rule="evenodd" d="M113.9,45.9442 L113.968,45.9536 L114.036,45.963 L114.104,45.9726 L114.173,45.9821 L114.242,45.9918 L114.311,46.0015 L114.381,46.0114 L114.451,46.0212 L114.521,46.0312 L114.591,46.0413 L114.662,46.0514 L114.733,46.0616 L114.805,46.0719 L114.876,46.0823 L114.948,46.0928 L115.021,46.1033 L115.093,46.114 L115.166,46.1247 L115.239,46.1355 L115.313,46.1464 L115.387,46.1573 L115.461,46.1684 L115.535,46.1796 L115.61,46.1908 L115.685,46.2021 L115.761,46.2136 L115.837,46.2251 L115.913,46.2367 L115.989,46.2484 L116.066,46.2602 L116.143,46.272 L116.22,46.284 L116.298,46.2961 L116.376,46.3082 L116.454,46.3205 L116.533,46.3329 L116.612,46.3453 L116.692,46.3578 L116.771,46.3705 L116.851,46.3833 L116.932,46.3961 L117.013,46.4091 L117.094,46.4221 L117.175,46.4353 L117.257,46.4485 L117.339,46.4619 L117.422,46.4754 L117.505,46.489 L117.588,46.5026 L117.671,46.5164 L117.755,46.5303 L117.839,46.5443 L117.924,46.5584 L118.009,46.5726 L118.094,46.587 L118.18,46.6014 L118.266,46.616 L118.353,46.6306 L118.44,46.6454 L118.527,46.6603 L118.614,46.6753 L118.702,46.6904 L118.791,46.7057 L118.879,46.721 L118.968,46.7365 L119.058,46.7521 L119.148,46.7679 L119.238,46.7837 L119.328,46.7997 L119.419,46.8157 L119.511,46.8319 L119.603,46.8483 L119.695,46.8647 L119.787,46.8813 L119.88,46.898 L119.974,46.9148 L120.067,46.9318 L120.161,46.9489 L120.256,46.9661 L120.351,46.9835 L120.446,47.0009 L120.542,47.0186 L120.638,47.0363 L120.735,47.0542 L120.832,47.0722 L120.929,47.0904 L121.027,47.1086 L121.125,47.1271 L121.224,47.1457 L121.323,47.1644 L121.422,47.1832 L121.522,47.2022 L121.623,47.2213 L121.723,47.2406 L121.825,47.26 L121.926,47.2796 L122.028,47.2993 L122.131,47.3191 L122.234,47.3391 L122.337,47.3593 L122.441,47.3795 L122.545,47.4 L122.65,47.4206 L122.755,47.4413 L122.861,47.4622 L122.967,47.4833 L123.073,47.5045 L123.18,47.5258 L123.288,47.5474 L123.395,47.569 L123.504,47.5909 L123.613,47.6129 L123.722,47.635 L123.832,47.6573 L123.942,47.6798 L124.052,47.7025 L124.164,47.7253 L124.275,47.7482 L124.387,47.7713 L124.5,47.7946 L124.613,47.8181 L124.726,47.8417 L124.84,47.8655 L124.955,47.8895 L125.07,47.9136 L125.185,47.9379 L125.301,47.9624 L125.418,47.9871 L125.535,48.0119 L125.652,48.0369 L125.77,48.0621 L125.889,48.0874 L126.008,48.113 L126.127,48.1387 L126.247,48.1646 L126.368,48.1907 L126.489,48.2169 L126.61,48.2433 L126.732,48.27 L126.855,48.2968 L126.978,48.3238 L127.101,48.351 L127.226,48.3783 L127.35,48.4059 L127.475,48.4336 L127.601,48.4615 L127.727,48.4897 L127.854,48.518 L127.982,48.5465 L128.11,48.5752 L128.238,48.604 L128.367,48.6331 L128.497,48.6624 L128.627,48.6919 L128.757,48.7216 L128.888,48.7514 L129.02,48.7815 L129.153,48.8118 L129.285,48.8422 L129.419,48.8729 L129.553,48.9037 L129.688,48.9348 L129.823,48.9661 L129.958,48.9976 L130.095,49.0293 L130.232,49.0612 L130.369,49.0932 L130.507,49.1255 L130.646,49.1581 L130.785,49.1908 L130.925,49.2237 L131.066,49.2568 L131.207,49.2902 L131.348,49.3237 L131.491,49.3575 L131.633,49.3915 L131.777,49.4257 L131.921,49.4601 L132.066,49.4947 L132.211,49.5295 L132.357,49.5646 L132.503,49.5999 L132.651,49.6353 L132.798,49.6711 L132.947,49.707 L133.096,49.7431 L133.246,49.7795 L133.396,49.816 L133.547,49.8528 L133.699,49.8899 L133.851,49.9271 L134.004,49.9645 L134.158,50.0022 L134.312,50.0401 L134.467,50.0782 L134.622,50.1166 L134.778,50.1552 L134.935,50.1939 L135.093,50.2329 L135.251,50.2722 L135.41,50.3116 L135.57,50.3513 L135.73,50.3912 L135.891,50.4314 L136.052,50.4717 L136.215,50.5123 L136.378,50.5531 L136.542,50.5941 L136.706,50.6354 L136.871,50.6769 L137.037,50.7186 L137.203,50.7605 L137.371,50.8026 L137.539,50.845 L137.707,50.8876 L137.877,50.9305 L138.047,50.9735 L138.218,51.0168 L138.389,51.0603 L138.561,51.104 L138.735,51.1479 L138.908,51.1921 L139.083,51.2365 L139.258,51.2811 L139.434,51.326 L139.611,51.371 L139.788,51.4163 L139.967,51.4618 L140.146,51.5075 L140.325,51.5534 L140.506,51.5996 L140.687,51.646 L140.869,51.6926 L141.052,51.7394 L141.236,51.7864 L141.42,51.8336 L141.606,51.8811 L141.792,51.9287 L141.978,51.9766 L142.166,52.0247 L142.354,52.073 L142.544,52.1215 L142.734,52.1702 L142.924,52.2191 L143.116,52.2682 L143.309,52.3176 L143.502,52.3671 L143.696,52.4168 L143.891,52.4668 L144.087,52.5169 L144.283,52.5672 L144.481,52.6178 L144.679,52.6685 L144.878,52.7194 L145.078,52.7705 L145.279,52.8217 L145.481,52.8732 L145.683,52.9249 L145.887,52.9767 L146.091,53.0287 L146.296,53.0809 L146.502,53.1333 L146.709,53.1859 L146.917,53.2386 L147.125,53.2914 L147.335,53.3445 L147.545,53.3977 L147.757,53.4511 L147.969,53.5046 L148.182,53.5583 L148.396,53.6122 L148.611,53.6661 L148.827,53.7203 L149.044,53.7746 L149.262,53.829 L149.48,53.8835 L149.7,53.9382 L149.921,53.9931 L150.142,54.048 L150.364,54.1031 L150.588,54.1583 L150.812,54.2136 L151.037,54.269 L151.264,54.3246 L151.491,54.3802 L151.719,54.436 L151.948,54.4918 L152.178,54.5478 L152.41,54.6038 L152.642,54.6599 L152.875,54.7161 L153.109,54.7724 L153.344,54.8287 L153.58,54.8851 L153.817,54.9416 L154.055,54.9981 L154.294,55.0547 L154.534,55.1113 L154.776,55.1679 L155.018,55.2246 L155.261,55.2813 L155.505,55.3381 L155.751,55.3949 L155.997,55.4517 L156.244,55.5084 L156.493,55.5652 L156.742,55.622 L156.993,55.6788 L157.245,55.7355 L157.497,55.7923 L157.751,55.849 L158.006,55.9056 L158.262,55.9622 L158.519,56.0188 L158.777,56.0753 L159.037,56.1318 L159.297,56.1882 L159.558,56.2445 L159.821,56.3007 L160.085,56.3568 L160.35,56.4128 L160.616,56.4687 L160.883,56.5245 L161.151,56.5801 L161.42,56.6357 L161.691,56.691 L161.963,56.7462 L162.235,56.8013 L162.509,56.8562 L162.785,56.9109 L163.061,56.9655 L163.339,57.0198 L163.617,57.0739 L163.897,57.1278 L164.178,57.1815 L164.461,57.235 L164.744,57.2882 L165.029,57.3412 L165.315,57.3938 L165.602,57.4463 L165.89,57.4984 L166.18,57.5502 L166.471,57.6017 L166.763,57.653 L167.056,57.7038 L167.351,57.7544 L167.647,57.8045 L167.944,57.8544 L168.242,57.9038 L168.542,57.9529 L168.843,58.0015 L169.145,58.0498 L169.448,58.0976 L169.753,58.145 L170.059,58.192 L170.367,58.2384 L170.675,58.2845 L170.985,58.33 L171.297,58.375 L171.609,58.4195 L171.923,58.4635 L172.239,58.5069 L172.556,58.5498 L172.874,58.5921 L173.193,58.6339 L173.514,58.675 L173.836,58.7155 L174.159,58.7555 L174.484,58.7947 L174.811,58.8333 L175.138,58.8713 L175.467,58.9085 L175.798,58.9451 L176.13,58.9809 L176.463,59.0161 L176.798,59.0504 L177.134,59.084 L177.471,59.1168 L177.81,59.1489 L178.151,59.1801 L178.493,59.2104 L178.836,59.24 L179.181,59.2687 L179.527,59.2965 L179.875,59.3234 L180.224,59.3494 L180.575,59.3745 L180.927,59.3986 L181.281,59.4218 L181.636,59.444 L181.993,59.4652 L182.351,59.4854 L182.711,59.5045 L183.073,59.5226 L183.436,59.5396 L183.8,59.5555 L184.166,59.5703 L184.534,59.584 L184.903,59.5966 L185.273,59.608 L185.646,59.6182 L186.02,59.6272 L186.395,59.635 L186.772,59.6416 L187.151,59.6469 L187.531,59.651 L187.913,59.6537 L188.297,59.6552 L188.682,59.6553 L189.069,59.654 L189.457,59.6514 L189.847,59.6474 L190.239,59.642 L190.633,59.6352 L191.028,59.627 L191.425,59.6172 L191.823,59.606 L192.223,59.5933 L192.625,59.5791 L193.029,59.5633 L193.434,59.546 L193.842,59.5271 L194.25,59.5066 L194.661,59.4845 L195.073,59.4608 L195.487,59.4354 L195.903,59.4084 L196.321,59.3797 L196.74,59.3493 L197.162,59.3171 L197.585,59.2833 L198.009,59.2477 L198.436,59.2102 L198.865,59.1711 L199.295,59.1301 L199.727,59.0873 L200.161,59.0427 L200.597,58.9962 L201.034,58.9478 L201.474,58.8976 L201.915,58.8455 L202.359,58.7915 L202.804,58.7356 L203.251,58.6777 L203.7,58.6179 L204.151,58.5561 L204.604,58.4923 L205.058,58.4266 L205.515,58.3589 L205.974,58.2892 L206.434,58.2174 L206.897,58.1436 L207.361,58.0678 L207.828,57.99 L208.296,57.9102 L208.767,57.8282 L209.239,57.7442 L209.714,57.6582 L210.191,57.5701 L210.669,57.4799 L211.15,57.3877 L211.632,57.2933 L212.117,57.197 L212.604,57.0985 L213.093,56.998 L213.584,56.8954 L214.077,56.7907 L214.572,56.684 L215.069,56.5752 L215.569,56.4644 L216.07,56.3515 L216.574,56.2366 L217.08,56.1197 L217.588,56.0008 L218.098,55.8799 L218.61,55.757 L219.125,55.6322 L219.641,55.5054 L220.16,55.3767 L220.682,55.2461 L221.205,55.1136 L221.73,54.9793 L222.258,54.8432 L222.788,54.7052 L223.321,54.5655 L223.855,54.424 L224.392,54.2809 L224.931,54.1361 L225.473,53.9896 L226.017,53.8416 L226.563,53.692 L227.111,53.541 L227.662,53.3884 L228.215,53.2345 L228.771,53.0792 L229.328,52.9226 L229.889,52.7648 L230.451,52.6058 L231.016,52.4457 L231.584,52.2845 L232.154,52.1223 L232.726,51.9592 L233.301,51.7953 L233.878,51.6306 L234.457,51.4652 L235.039,51.2991 L235.624,51.1326 L236.211,50.9656 L236.801,50.7982 L237.393,50.6306 L237.987,50.4628 L238.585,50.295 L239.184,50.1271 L239.787,49.9594 L240.391,49.792 L240.999,49.6249 L241.609,49.4583 L242.222,49.2923 L242.837,49.127 L243.455,48.9625 L244.075,48.799 L244.698,48.6365 L245.324,48.4753 L245.953,48.3155 L246.584,48.1571 L247.218,48.0004 L247.854,47.8455 L248.493,47.6925 L249.135,47.5416 L249.78,47.393 L250.428,47.2467 L251.078,47.103 L251.731,46.962 L252.387,46.8239 L253.045,46.6889 L253.707,46.5571 L254.371,46.4286 L255.038,46.3038 L255.708,46.1826 L256.381,46.0654 L257.056,45.9523 L257.735,45.8434 L258.416,45.739 L259.1,45.6393 L259.788,45.5443 L260.478,45.4543 L261.171,45.3695 L261.867,45.2901 L262.566,45.2162 L263.268,45.148 L263.973,45.0857 L264.681,45.0294 L265.392,44.9795 L266.106,44.9359 L266.823,44.8989 L267.544,44.8687 L268.267,44.8453 L268.993,44.8291 L269.723,44.8201 L270.455,44.8185 L271.191,44.8244 L271.93,44.838 L272.672,44.8593 L273.417,44.8886 L274.165,44.926 L274.917,44.9715 L275.671,45.0253 L276.429,45.0875 L277.19,45.1581 L277.955,45.2372 L278.722,45.325 L279.493,45.4214 L280.268,45.5265 L281.045,45.6403 L281.826,45.7628 L282.61,45.8942 L283.398,46.0343 L284.189,46.1831 L284.983,46.3406 L285.78,46.5068 L286.581,46.6816 L287.386,46.8649 L288.194,47.0566 L289.005,47.2566 L289.82,47.4648 L290.638,47.6809 L291.46,47.905 L292.285,48.1367 L293.114,48.3758 L293.946,48.6222 L294.782,48.8755 L295.622,49.1356 L296.465,49.4021 L297.311,49.6747 L298.162,49.9532 L299.016,50.237 L299.873,50.5259 L300.734,50.8195 L301.599,51.1174 L302.468,51.419 L303.34,51.724 L304.216,52.0319 L305.096,52.3422 L305.979,52.6542 L306.866,52.9676 L307.757,53.2816 L308.652,53.5958 L309.551,53.9094 L310.453,54.2219 L311.359,54.5326 L312.27,54.8407 L313.184,55.1456 L314.102,55.4466 L315.023,55.743 L315.949,56.0338 L316.879,56.3184 L317.813,56.5959 L318.75,56.8656 L319.692,57.1266 L320.638,57.3779 L321.588,57.6188 L322.541,57.8484 L323.499,58.0657 L324.461,58.2699 L325.427,58.46 L326.397,58.635 L327.372,58.7941 L328.35,58.9363 L329.333,59.0606 L330.32,59.1662 L331.311,59.252 L332.306,59.317 L333.306,59.3605 L334.309,59.3815 L335.317,59.379 L336.33,59.3522 L337.346,59.3002 L338.367,59.2223 L339.393,59.1176 L340.423,58.9855 L341.457,58.8253 L342.495,58.6363 L343.538,58.418 L344.586,58.1701 L345.638,57.8921 L346.694,57.5839 L347.755,57.2454 L348.82,56.8767 L349.89,56.4779 L350.965,56.0496 L352.044,55.5924 L353.128,55.1073 L354.216,54.5952 L355.309,54.0579 L356.407,53.4971 L357.509,52.9151 L358.616,52.3144 L359.728,51.6983 L360.844,51.0703 L361.966,50.4348 L363.092,49.7967 L364.223,49.1614 L365.358,48.5354 L366.499,47.9258 L367.644,47.3408 L368.794,46.7892 L369.95,46.2813 L371.11,45.828 L372.275,45.4417 L373.445,45.1357 L374.62,44.9247 L375.8,44.8242 L376.985,44.8514 L378.175,45.024 L379.37,45.3613 L380.57,45.8828 L381.776,46.6093 L382.986,47.5617 L384.202,48.7612 L385.423,50.2289 L386.649,51.9853 L387.881,54.05 L389.117,56.4416 L390.359,59.1766 L391.606,62.2697 L392.859,65.7328 L394.116,69.5752 L395.38,73.8029 L396.648,78.4189 L397.922,83.4226 L399.202,88.81 L400.487,94.5741 L401.777,100.705 L403.073,107.189 L404.374,114.011 L405.681,121.153 L406.994,128.598 L408.312,136.324 L409.636,144.31 L410.965,152.534 L412.3,160.977 L413.641,169.615 L414.987,178.428 L416.34,187.397 L417.698,196.502 L419.061,205.724 L420.431,215.048 L421.806,224.457 L423.188,233.937 L424.575,243.473 L425.968,253.054 L427.367,262.668 L428.772,272.305 L430.183,281.957 L431.6,291.613 L433.023,301.269 L434.453,310.916 L435.888,320.549 L437.329,330.163 L438.777,339.753 L439.27,343"/>
<path vector-effect="non-scaling-stroke" fill-rule="evenodd" d="M575,978.139"/>
</g>

<g fill="none" stroke="#000000" stroke-opacity="1" stroke-width="1" stroke-linecap="square" stroke-linejoin="bevel" transform="matrix(1,0,0,1,94,361)"
font-family="Helvetica" font-size="12" font-weight="400" font-style="normal" 
>
<text fill="#000000" fill-opacity="1" stroke="none" xml:space="preserve" x="0" y="0" font-family="Helvetica" font-size="12" font-weight="400" font-style="normal" 
 >0</text>
</g>

<g fill="none" stroke="#000000" stroke-opacity="1" stroke-width="1" stroke-linecap="square" stroke-linejoin="bevel" transform="matrix(1,0,0,1,165,361)"
font-family="Helvetica" font-size="12" font-weight="400" font-style="normal" 
>
<text fill="#000000" fill-opacity="1" stroke="none" xml:space="preserve" x="0" y="0" font-family="Helvetica" font-size="12" font-weight="400" font-style="normal" 
 >5e8</text>
</g>

<g fill="none" stroke="#000000" stroke-opacity="1" stroke-width="1" stroke-linecap="square" stroke-linejoin="bevel" transform="matrix(1,0,0,1,244,361)"
font-family="Helvetica" font-size="12" font-weight="400" font-style="normal" 
>
<text fill="#000000" fill-opacity="1" stroke="none" xml:space="preserve" x="0" y="0" font-family="Helvetica" font-size="12" font-weight="400" font-style="normal" 
 >1e9</text>
</g>

<g fill="none" stroke="#000000" stroke-opacity="1" stroke-width="1" stroke-linecap="square" stroke-linejoin="bevel" transform="matrix(1,0,0,1,317,361)"
font-family="Helvetica" font-size="12" font-weight="400" font-style="normal" 
>
<text fill="#000000" fill-opacity="1" stroke="none" xml:space="preserve" x="0" y="0" font-family="Helvetica" font-size="12" font-weight="400" font-style="normal" 
 >1.5e9</text>
</g>

<g fill="none" stroke="#000000" stroke-opacity="1" stroke-width="1" stroke-linecap="square" stroke-linejoin="bevel" transform="matrix(1,0,0,1,403,361)"
font-family="Helvetica" font-size="12" font-weight="400" font-style="normal" 
>
<text fill="#000000" fill-opacity="1" stroke="none" xml:space="preserve" x="0" y="0" font-family="Helvetica" font-size="12" font-weight="400" font-style="normal" 
 >2e9</text>
</g>

<g fill="none" stroke="#000000" stroke-opacity="1" stroke-width="1" stroke-linecap="square" stroke-linejoin="bevel" transform="matrix(1,0,0,1,476,361)"
font-family="Helvetica" font-size="12" font-weight="400" font-style="normal" 
>
<text fill="#000000" fill-opacity="1" stroke="none" xml:space="preserve" x="0" y="0" font-family="Helvetica" font-size="12" font-weight="400" font-style="normal" 
 >2.5e9</text>
</g>

<g fill="none" stroke="#000000" stroke-opacity="1" stroke-width="1" stroke-linecap="square" stroke-linejoin="bevel" transform="matrix(1,0,0,1,562,361)"
font-family="Helvetica" font-size="12" font-weight="400" font-style="normal" 
>
<text fill="#000000" fill-opacity="1" stroke="none" xml:space="preserve" x="0" y="0" font-family="Helvetica" font-size="12" font-weight="400" font-style="normal" 
 >3e9</text>
</g>

<g fill="none" stroke="#000000" stroke-opacity="1" stroke-width="1" stroke-linecap="square" stroke-linejoin="bevel" transform="matrix(1,0,0,1,68,349)"
font-family="Helvetica" font-size="12" font-weight="400" font-style="normal" 
>
<text fill="#000000" fill-opacity="1" stroke="none" xml:space="preserve" x="0" y="0" font-family="Helvetica" font-size="12" font-weight="400" font-style="normal" 
 >-10</text>
</g>

<g fill="none" stroke="#000000" stroke-opacity="1" stroke-width="1" stroke-linecap="square" stroke-linejoin="bevel" transform="matrix(1,0,0,1,77,319)"
font-family="Helvetica" font-size="12" font-weight="400" font-style="normal" 
>
<text fill="#000000" fill-opacity="1" stroke="none" xml:space="preserve" x="0" y="0" font-family="Helvetica" font-size="12" font-weight="400" font-style="normal" 
 >-9</text>
</g>

<g fill="none" stroke="#000000" stroke-opacity="1" stroke-width="1" stroke-linecap="square" stroke-linejoin="bevel" transform="matrix(1,0,0,1,77,289)"
font-family="Helvetica" font-size="12" font-weight="400" font-style="normal" 
>
<text fill="#000000" fill-opacity="1" stroke="none" xml:space="preserve" x="0" y="0" font-family="Helvetica" font-size="12" font-weight="400" font-style="normal" 
 >-8</text>
</g>

<g fill="none" stroke="#000000" stroke-opacity="1" stroke-width="1" stroke-linecap="square" stroke-linejoin="bevel" transform="matrix(1,0,0,1,77,260)"
font-family="Helvetica" font-size="12" font-weight="400" font-style="normal" 
>
<text fill="#000000" fill-opacity="1" stroke="none" xml:space="preserve" x="0" y="0" font-family="Helvetica" font-size="12" font-weight="400" font-style="normal" 
 >-7</text>
</g>

<g fill="none" stroke="#000000" stroke-opacity="1" stroke-width="1" stroke-linecap="square" stroke-linejoin="bevel" transform="matrix(1,0,0,1,77,230)"
font-family="Helvetica" font-size="12" font-weight="400" font-style="normal" 
>
<text fill="#000000" fill-opacity="1" stroke="none" xml:space="preserve" x="0" y="0" font-family="Helvetica" font-size="12" font-weight="400" font-style="normal" 
 >-6</text>
</g>

<g fill="none" stroke="#000000" stroke-opacity="1" stroke-width="1" stroke-linecap="square" stroke-linejoin="bevel" transform="matrix(1,0,0,1,77,200)"
font-family="Helvetica" font-size="12" font-weight="400" font-style="normal" 
>
<text fill="#000000" fill-opacity="1" stroke="none" xml:space="preserve" x="0" y="0" font-family="Helvetica" font-size="12" font-weight="400" font-style="normal" 
 >-5</text>
</g>

<g fill="none" stroke="#000000" stroke-opacity="1" stroke-width="1" stroke-linecap="square" stroke-linejoin="bevel" transform="matrix(1,0,0,1,77,170)"
font-family="Helvetica" font-size="12" font-weight="400" font-style="normal" 
>
<text fill="#000000" fill-opacity="1" stroke="none" xml:space="preserve" x="0" y="0" font-family="Helvetica" font-size="12" font-weight="400" font-style="normal" 
 >-4</text>
</g>

<g fill="none" stroke="#000000" stroke-opacity="1" stroke-width="1" stroke-linecap="square" stroke-linejoin="bevel" transform="matrix(1,0,0,1,77,140)"
font-family="Helvetica" font-size="12" font-weight="400" font-style="normal" 
>
<text fill="#000000" fill-opacity="1" stroke="none" xml:space="preserve" x="0" y="0" font-family="Helvetica" font-size="12" font-weight="400" font-style="normal" 
 >-3</text>
</g>

<g fill="none" stroke="#000000" stroke-opacity="1" stroke-width="1" stroke-linecap="square" stroke-linejoin="bevel" transform="matrix(1,0,0,1,77,110)"
font-family="Helvetica" font-size="12" font-weight="400" font-style="normal" 
>
<text fill="#000000" fill-opacity="1" stroke="none" xml:space="preserve" x="0" y="0" font-family="Helvetica" font-size="12" font-weight="400" font-style="normal" 
 >-2</text>
</g>

<g fill="none" stroke="#000000" stroke-opacity="1" stroke-width="1" stroke-linecap="square" stroke-linejoin="bevel" transform="matrix(1,0,0,1,77,81)"
font-family="Helvetica" font-size="12" font-weight="400" font-style="normal" 
>
<text fill="#000000" fill-opacity="1" stroke="none" xml:space="preserve" x="0" y="0" font-family="Helvetica" font-size="12" font-weight="400" font-style="normal" 
 >-1</text>
</g>

<g fill="none" stroke="#000000" stroke-opacity="1" stroke-width="1" stroke-linecap="square" stroke-linejoin="bevel" transform="matrix(1,0,0,1,82,51)"
font-family="Helvetica" font-size="12" font-weight="400" font-style="normal" 
>
<text fill="#000000" fill-opacity="1" stroke="none" xml:space="preserve" x="0" y="0" font-family="Helvetica" font-size="12" font-weight="400" font-style="normal" 
 >0</text>
</g>

<g fill="none" stroke="#000000" stroke-opacity="1" stroke-width="1" stroke-linecap="square" stroke-linejoin="bevel" transform="matrix(1,0,0,1,82,21)"
font-family="Helvetica" font-size="12" font-weight="400" font-style="normal" 
>
<text fill="#000000" fill-opacity="1" stroke="none" xml:space="preserve" x="0" y="0" font-family="Helvetica" font-size="12" font-weight="400" font-style="normal" 
 >1</text>
</g>

<g fill="none" stroke="#000000" stroke-opacity="1" stroke-width="1" stroke-linecap="square" stroke-linejoin="bevel" transform="matrix(1,0,0,1,281,384)"
font-family="Helvetica" font-size="12" font-weight="400" font-style="normal" 
>
<text fill="#000000" fill-opacity="1" stroke="none" xml:space="preserve" x="0" y="0" font-family="Helvetica" font-size="12" font-weight="400" font-style="normal" 
 >Fréquence (Hz)</text>
</g>

<g fill="none" stroke="#0000ff" stroke-opacity="1" stroke-width="1" stroke-linecap="square" stroke-linejoin="bevel" transform="matrix(0,-1,1,0,61,203)"
font-family="Helvetica" font-size="12" font-weight="400" font-style="normal" 
>
<text fill="#0000ff" fill-opacity="1" stroke="none" xml:space="preserve" x="0" y="0" font-family="Helvetica" font-size="12" font-weight="400" font-style="normal" 
 >dBS11</text>
</g>

<g fill="none" stroke="#ff0000" stroke-opacity="1" stroke-width="1" stroke-linecap="square" stroke-linejoin="bevel" transform="matrix(0,-1,1,0,38,203)"
font-family="Helvetica" font-size="12" font-weight="400" font-style="normal" 
>
<text fill="#ff0000" fill-opacity="1" stroke="none" xml:space="preserve" x="0" y="0" font-family="Helvetica" font-size="12" font-weight="400" font-style="normal" 
 >dBS21</text>
</g>

<g fill="none" stroke="#ff0000" stroke-opacity="1" stroke-width="1" stroke-linecap="square" stroke-linejoin="bevel" transform="matrix(1,0,0,1,0,0)"
font-family="Helvetica" font-size="12" font-weight="400" font-style="normal" 
>
</g>

<g fill="none" stroke="#000000" stroke-opacity="1" stroke-width="1" stroke-linecap="square" stroke-linejoin="bevel" transform="matrix(1,0,0,1,0,0)"
font-family="Helvetica" font-size="12" font-weight="400" font-style="normal" 
>
<text fill="#000000" fill-opacity="1" stroke="none" xml:space="preserve" x="147" y="222" font-family="Helvetica" font-size="12" font-weight="400" font-style="normal" 
 >frequency: 1.486e+09</text>
<text fill="#000000" fill-opacity="1" stroke="none" xml:space="preserve" x="147" y="239" font-family="Helvetica" font-size="12" font-weight="400" font-style="normal" 
 >dBS11: -9.732</text>
</g>

<g fill="#ffffff" fill-opacity="1" stroke="none" transform="matrix(1,0,0,1,0,0)"
font-family="Helvetica" font-size="12" font-weight="400" font-style="normal" 
>
<path vector-effect="non-scaling-stroke" fill-rule="evenodd" d="M144,205 L267,205 L267,246 L144,246 L144,205"/>
</g>

<g fill="none" stroke="#000000" stroke-opacity="1" stroke-width="1" stroke-linecap="square" stroke-linejoin="bevel" transform="matrix(1,0,0,1,0,0)"
font-family="Helvetica" font-size="12" font-weight="400" font-style="normal" 
>
<text fill="#000000" fill-opacity="1" stroke="none" xml:space="preserve" x="147" y="222" font-family="Helvetica" font-size="12" font-weight="400" font-style="normal" 
 >frequency: 1.486e+09</text>
<text fill="#000000" fill-opacity="1" stroke="none" xml:space="preserve" x="147" y="239" font-family="Helvetica" font-size="12" font-weight="400" font-style="normal" 
 >dBS11: -9.732</text>
</g>

<g fill="none" stroke="#ff0000" stroke-opacity="1" stroke-width="1" stroke-linecap="square" stroke-linejoin="bevel" transform="matrix(1,0,0,1,0,0)"
font-family="Helvetica" font-size="12" font-weight="400" font-style="normal" 
>
</g>

<g fill="none" stroke="#800080" stroke-opacity="1" stroke-width="1" stroke-linecap="square" stroke-linejoin="bevel" transform="matrix(1,0,0,1,0,0)"
font-family="Helvetica" font-size="12" font-weight="400" font-style="normal" 
>
<path vector-effect="non-scaling-stroke" fill-rule="evenodd" d="M144,205 L267,205 L267,246 L144,246 L144,205"/>
<polyline fill="none" vector-effect="non-scaling-stroke" points="266,245 334,335 " />
</g>

<g fill="none" stroke="#000000" stroke-opacity="1" stroke-width="1" stroke-linecap="square" stroke-linejoin="bevel" transform="matrix(1,0,0,1,0,0)"
font-family="Helvetica" font-size="12" font-weight="400" font-style="normal" 
>
<text fill="#000000" fill-opacity="1" stroke="none" xml:space="preserve" x="145" y="122" font-family="Helvetica" font-size="12" font-weight="400" font-style="normal" 
 >frequency: 1.839e+09</text>
<text fill="#000000" fill-opacity="1" stroke="none" xml:space="preserve" x="145" y="139" font-family="Helvetica" font-size="12" font-weight="400" font-style="normal" 
 >dBS21: -0.4815</text>
</g>

<g fill="#ffffff" fill-opacity="1" stroke="none" transform="matrix(1,0,0,1,0,0)"
font-family="Helvetica" font-size="12" font-weight="400" font-style="normal" 
>
<path vector-effect="non-scaling-stroke" fill-rule="evenodd" d="M142,105 L265,105 L265,146 L142,146 L142,105"/>
</g>

<g fill="none" stroke="#000000" stroke-opacity="1" stroke-width="1" stroke-linecap="square" stroke-linejoin="bevel" transform="matrix(1,0,0,1,0,0)"
font-family="Helvetica" font-size="12" font-weight="400" font-style="normal" 
>
<text fill="#000000" fill-opacity="1" stroke="none" xml:space="preserve" x="145" y="122" font-family="Helvetica" font-size="12" font-weight="400" font-style="normal" 
 >frequency: 1.839e+09</text>
<text fill="#000000" fill-opacity="1" stroke="none" xml:space="preserve" x="145" y="139" font-family="Helvetica" font-size="12" font-weight="400" font-style="normal" 
 >dBS21: -0.4815</text>
</g>

<g fill="none" stroke="#800080" stroke-opacity="1" stroke-width="1" stroke-linecap="square" stroke-linejoin="bevel" transform="matrix(1,0,0,1,0,0)"
font-family="Helvetica" font-size="12" font-weight="400" font-style="normal" 
>
<path vector-effect="non-scaling-stroke" fill-rule="evenodd" d="M142,105 L265,105 L265,146 L142,146 L142,105"/>
<polyline fill="none" vector-effect="non-scaling-stroke" points="264,105 390,59 " />
</g>
</g>
</svg>
