<?xml version="1.0" encoding="UTF-8" standalone="no"?>
<svg width="235.656mm" height="148.872mm"
 xmlns="http://www.w3.org/2000/svg" xmlns:xlink="http://www.w3.org/1999/xlink"  version="1.2" baseProfile="tiny">
<title>Qt Svg Document</title>
<desc>Generated with Qt</desc>
<defs>
</defs>
<g fill="none" stroke="black" stroke-width="1" fill-rule="evenodd" stroke-linecap="square" stroke-linejoin="bevel" >

<g fill="#ffffff" fill-opacity="1" stroke="none" transform="matrix(1,0,0,1,0,0)"
font-family="Helvetica" font-size="12" font-weight="400" font-style="normal" 
>
<path vector-effect="non-scaling-stroke" fill-rule="evenodd" d="M0,0 L668,0 L668,422 L0,422 L0,0"/>
</g>

<g fill="none" stroke="#c0c0c0" stroke-opacity="1" stroke-dasharray="1,2" stroke-dashoffset="0" stroke-width="1" stroke-linecap="square" stroke-linejoin="bevel" transform="matrix(1,0,0,1,0,0)"
font-family="Helvetica" font-size="12" font-weight="400" font-style="normal" 
>
<polyline fill="none" vector-effect="non-scaling-stroke" points="98,45 575,45 " />
<polyline fill="none" vector-effect="non-scaling-stroke" points="98,104 575,104 " />
<polyline fill="none" vector-effect="non-scaling-stroke" points="98,164 575,164 " />
<polyline fill="none" vector-effect="non-scaling-stroke" points="98,224 575,224 " />
<polyline fill="none" vector-effect="non-scaling-stroke" points="98,283 575,283 " />
<polyline fill="none" vector-effect="non-scaling-stroke" points="496,15 496,343 " />
<polyline fill="none" vector-effect="non-scaling-stroke" points="416,15 416,343 " />
<polyline fill="none" vector-effect="non-scaling-stroke" points="337,15 337,343 " />
<polyline fill="none" vector-effect="non-scaling-stroke" points="257,15 257,343 " />
<polyline fill="none" vector-effect="non-scaling-stroke" points="178,15 178,343 " />
</g>

<g fill="none" stroke="#000000" stroke-opacity="1" stroke-width="1" stroke-linecap="square" stroke-linejoin="bevel" transform="matrix(1,0,0,1,0,0)"
font-family="Helvetica" font-size="12" font-weight="400" font-style="normal" 
>
<polyline fill="none" vector-effect="non-scaling-stroke" points="98,338 98,348 " />
<polyline fill="none" vector-effect="non-scaling-stroke" points="178,338 178,348 " />
<polyline fill="none" vector-effect="non-scaling-stroke" points="257,338 257,348 " />
<polyline fill="none" vector-effect="non-scaling-stroke" points="337,338 337,348 " />
<polyline fill="none" vector-effect="non-scaling-stroke" points="416,338 416,348 " />
<polyline fill="none" vector-effect="non-scaling-stroke" points="496,338 496,348 " />
<polyline fill="none" vector-effect="non-scaling-stroke" points="575,338 575,348 " />
<polyline fill="none" vector-effect="non-scaling-stroke" points="93,343 103,343 " />
<polyline fill="none" vector-effect="non-scaling-stroke" points="93,283 103,283 " />
<polyline fill="none" vector-effect="non-scaling-stroke" points="93,224 103,224 " />
<polyline fill="none" vector-effect="non-scaling-stroke" points="93,164 103,164 " />
<polyline fill="none" vector-effect="non-scaling-stroke" points="93,104 103,104 " />
<polyline fill="none" vector-effect="non-scaling-stroke" points="93,45 103,45 " />
<polyline fill="none" vector-effect="non-scaling-stroke" points="98,15 575,15 " />
<polyline fill="none" vector-effect="non-scaling-stroke" points="575,15 575,343 " />
<polyline fill="none" vector-effect="non-scaling-stroke" points="98,343 575,343 " />
<polyline fill="none" vector-effect="non-scaling-stroke" points="98,15 98,343 " />
</g>

<g fill="none" stroke="#0000ff" stroke-opacity="1" stroke-width="1" stroke-linecap="square" stroke-linejoin="bevel" transform="matrix(1,0,0,1,0,0)"
font-family="Helvetica" font-size="12" font-weight="400" font-style="normal" 
>
<path vector-effect="non-scaling-stroke" fill-rule="evenodd" d="M113.9,167.823 L113.968,167.61 L114.036,167.397 L114.104,167.183 L114.173,166.97 L114.242,166.757 L114.311,166.544 L114.381,166.331 L114.451,166.118 L114.521,165.905 L114.591,165.692 L114.662,165.48 L114.733,165.267 L114.805,165.054 L114.876,164.842 L114.948,164.629 L115.021,164.417 L115.093,164.205 L115.166,163.992 L115.239,163.78 L115.313,163.568 L115.387,163.356 L115.461,163.144 L115.535,162.932 L115.61,162.72 L115.685,162.508 L115.761,162.297 L115.837,162.085 L115.913,161.873 L115.989,161.662 L116.066,161.451 L116.143,161.239 L116.22,161.028 L116.298,160.817 L116.376,160.606 L116.454,160.395 L116.533,160.184 L116.612,159.973 L116.692,159.762 L116.771,159.551 L116.851,159.341 L116.932,159.13 L117.013,158.92 L117.094,158.71 L117.175,158.499 L117.257,158.289 L117.339,158.079 L117.422,157.869 L117.505,157.659 L117.588,157.449 L117.671,157.24 L117.755,157.03 L117.839,156.82 L117.924,156.611 L118.009,156.402 L118.094,156.192 L118.18,155.983 L118.266,155.774 L118.353,155.565 L118.44,155.356 L118.527,155.147 L118.614,154.939 L118.702,154.73 L118.791,154.522 L118.879,154.313 L118.968,154.105 L119.058,153.897 L119.148,153.689 L119.238,153.481 L119.328,153.273 L119.419,153.065 L119.511,152.857 L119.603,152.65 L119.695,152.442 L119.787,152.235 L119.88,152.028 L119.974,151.821 L120.067,151.614 L120.161,151.407 L120.256,151.2 L120.351,150.993 L120.446,150.787 L120.542,150.58 L120.638,150.374 L120.735,150.168 L120.832,149.962 L120.929,149.756 L121.027,149.55 L121.125,149.344 L121.224,149.139 L121.323,148.933 L121.422,148.728 L121.522,148.523 L121.623,148.318 L121.723,148.113 L121.825,147.908 L121.926,147.703 L122.028,147.499 L122.131,147.294 L122.234,147.09 L122.337,146.886 L122.441,146.682 L122.545,146.478 L122.65,146.274 L122.755,146.071 L122.861,145.867 L122.967,145.664 L123.073,145.461 L123.18,145.258 L123.288,145.055 L123.395,144.852 L123.504,144.65 L123.613,144.447 L123.722,144.245 L123.832,144.043 L123.942,143.841 L124.052,143.639 L124.164,143.437 L124.275,143.236 L124.387,143.035 L124.5,142.833 L124.613,142.632 L124.726,142.432 L124.84,142.231 L124.955,142.03 L125.07,141.83 L125.185,141.63 L125.301,141.43 L125.418,141.23 L125.535,141.03 L125.652,140.831 L125.77,140.632 L125.889,140.432 L126.008,140.233 L126.127,140.035 L126.247,139.836 L126.368,139.638 L126.489,139.439 L126.61,139.241 L126.732,139.043 L126.855,138.846 L126.978,138.648 L127.101,138.451 L127.226,138.254 L127.35,138.057 L127.475,137.86 L127.601,137.664 L127.727,137.467 L127.854,137.271 L127.982,137.075 L128.11,136.88 L128.238,136.684 L128.367,136.489 L128.497,136.294 L128.627,136.099 L128.757,135.904 L128.888,135.71 L129.02,135.515 L129.153,135.321 L129.285,135.128 L129.419,134.934 L129.553,134.741 L129.688,134.547 L129.823,134.355 L129.958,134.162 L130.095,133.969 L130.232,133.777 L130.369,133.585 L130.507,133.393 L130.646,133.202 L130.785,133.011 L130.925,132.82 L131.066,132.629 L131.207,132.438 L131.348,132.248 L131.491,132.058 L131.633,131.868 L131.777,131.679 L131.921,131.489 L132.066,131.3 L132.211,131.112 L132.357,130.923 L132.503,130.735 L132.651,130.547 L132.798,130.359 L132.947,130.172 L133.096,129.985 L133.246,129.798 L133.396,129.611 L133.547,129.425 L133.699,129.239 L133.851,129.053 L134.004,128.868 L134.158,128.682 L134.312,128.498 L134.467,128.313 L134.622,128.129 L134.778,127.945 L134.935,127.761 L135.093,127.578 L135.251,127.394 L135.41,127.212 L135.57,127.029 L135.73,126.847 L135.891,126.665 L136.052,126.484 L136.215,126.302 L136.378,126.122 L136.542,125.941 L136.706,125.761 L136.871,125.581 L137.037,125.401 L137.203,125.222 L137.371,125.043 L137.539,124.865 L137.707,124.686 L137.877,124.509 L138.047,124.331 L138.218,124.154 L138.389,123.977 L138.561,123.801 L138.735,123.625 L138.908,123.449 L139.083,123.273 L139.258,123.099 L139.434,122.924 L139.611,122.75 L139.788,122.576 L139.967,122.402 L140.146,122.229 L140.325,122.057 L140.506,121.884 L140.687,121.712 L140.869,121.541 L141.052,121.37 L141.236,121.199 L141.42,121.029 L141.606,120.859 L141.792,120.689 L141.978,120.52 L142.166,120.352 L142.354,120.183 L142.544,120.016 L142.734,119.848 L142.924,119.681 L143.116,119.515 L143.309,119.349 L143.502,119.183 L143.696,119.018 L143.891,118.854 L144.087,118.689 L144.283,118.525 L144.481,118.362 L144.679,118.199 L144.878,118.037 L145.078,117.875 L145.279,117.714 L145.481,117.553 L145.683,117.392 L145.887,117.232 L146.091,117.073 L146.296,116.914 L146.502,116.755 L146.709,116.598 L146.917,116.44 L147.125,116.283 L147.335,116.127 L147.545,115.971 L147.757,115.816 L147.969,115.661 L148.182,115.506 L148.396,115.353 L148.611,115.199 L148.827,115.047 L149.044,114.895 L149.262,114.743 L149.48,114.592 L149.7,114.442 L149.921,114.292 L150.142,114.143 L150.364,113.994 L150.588,113.846 L150.812,113.699 L151.037,113.552 L151.264,113.405 L151.491,113.26 L151.719,113.115 L151.948,112.97 L152.178,112.827 L152.41,112.683 L152.642,112.541 L152.875,112.399 L153.109,112.258 L153.344,112.117 L153.58,111.977 L153.817,111.838 L154.055,111.699 L154.294,111.561 L154.534,111.424 L154.776,111.287 L155.018,111.151 L155.261,111.016 L155.505,110.882 L155.751,110.748 L155.997,110.615 L156.244,110.483 L156.493,110.351 L156.742,110.22 L156.993,110.09 L157.245,109.961 L157.497,109.832 L157.751,109.704 L158.006,109.577 L158.262,109.451 L158.519,109.325 L158.777,109.2 L159.037,109.076 L159.297,108.953 L159.558,108.831 L159.821,108.709 L160.085,108.588 L160.35,108.468 L160.616,108.349 L160.883,108.231 L161.151,108.114 L161.42,107.997 L161.691,107.882 L161.963,107.767 L162.235,107.653 L162.509,107.54 L162.785,107.428 L163.061,107.317 L163.339,107.207 L163.617,107.097 L163.897,106.989 L164.178,106.881 L164.461,106.775 L164.744,106.669 L165.029,106.565 L165.315,106.461 L165.602,106.359 L165.89,106.257 L166.18,106.157 L166.471,106.057 L166.763,105.959 L167.056,105.861 L167.351,105.765 L167.647,105.669 L167.944,105.575 L168.242,105.482 L168.542,105.39 L168.843,105.299 L169.145,105.209 L169.448,105.12 L169.753,105.033 L170.059,104.946 L170.367,104.861 L170.675,104.777 L170.985,104.694 L171.297,104.612 L171.609,104.532 L171.923,104.452 L172.239,104.374 L172.556,104.297 L172.874,104.222 L173.193,104.148 L173.514,104.075 L173.836,104.003 L174.159,103.933 L174.484,103.864 L174.811,103.796 L175.138,103.73 L175.467,103.665 L175.798,103.601 L176.13,103.539 L176.463,103.478 L176.798,103.419 L177.134,103.361 L177.471,103.305 L177.81,103.25 L178.151,103.197 L178.493,103.145 L178.836,103.095 L179.181,103.046 L179.527,102.999 L179.875,102.954 L180.224,102.91 L180.575,102.868 L180.927,102.827 L181.281,102.788 L181.636,102.751 L181.993,102.716 L182.351,102.682 L182.711,102.65 L183.073,102.62 L183.436,102.592 L183.8,102.566 L184.166,102.541 L184.534,102.518 L184.903,102.497 L185.273,102.479 L185.646,102.462 L186.02,102.447 L186.395,102.434 L186.772,102.423 L187.151,102.414 L187.531,102.408 L187.913,102.403 L188.297,102.401 L188.682,102.401 L189.069,102.403 L189.457,102.407 L189.847,102.414 L190.239,102.422 L190.633,102.434 L191.028,102.447 L191.425,102.463 L191.823,102.482 L192.223,102.503 L192.625,102.526 L193.029,102.553 L193.434,102.581 L193.842,102.613 L194.25,102.647 L194.661,102.684 L195.073,102.723 L195.487,102.766 L195.903,102.811 L196.321,102.859 L196.74,102.91 L197.162,102.964 L197.585,103.022 L198.009,103.082 L198.436,103.146 L198.865,103.212 L199.295,103.282 L199.727,103.356 L200.161,103.433 L200.597,103.513 L201.034,103.596 L201.474,103.684 L201.915,103.775 L202.359,103.869 L202.804,103.968 L203.251,104.07 L203.7,104.176 L204.151,104.286 L204.604,104.4 L205.058,104.519 L205.515,104.641 L205.974,104.768 L206.434,104.899 L206.897,105.035 L207.361,105.175 L207.828,105.32 L208.296,105.47 L208.767,105.625 L209.239,105.784 L209.714,105.949 L210.191,106.118 L210.669,106.293 L211.15,106.474 L211.632,106.659 L212.117,106.851 L212.604,107.048 L213.093,107.251 L213.584,107.46 L214.077,107.675 L214.572,107.896 L215.069,108.124 L215.569,108.359 L216.07,108.6 L216.574,108.848 L217.08,109.103 L217.588,109.365 L218.098,109.635 L218.61,109.912 L219.125,110.197 L219.641,110.49 L220.16,110.791 L220.682,111.1 L221.205,111.418 L221.73,111.745 L222.258,112.081 L222.788,112.426 L223.321,112.781 L223.855,113.146 L224.392,113.52 L224.931,113.906 L225.473,114.301 L226.017,114.708 L226.563,115.126 L227.111,115.556 L227.662,115.998 L228.215,116.452 L228.771,116.919 L229.328,117.399 L229.889,117.893 L230.451,118.401 L231.016,118.923 L231.584,119.46 L232.154,120.013 L232.726,120.582 L233.301,121.167 L233.878,121.769 L234.457,122.39 L235.039,123.028 L235.624,123.686 L236.211,124.364 L236.801,125.062 L237.393,125.782 L237.987,126.524 L238.585,127.289 L239.184,128.078 L239.787,128.893 L240.391,129.734 L240.999,130.602 L241.609,131.499 L242.222,132.426 L242.837,133.385 L243.455,134.377 L244.075,135.403 L244.698,136.466 L245.324,137.567 L245.953,138.709 L246.584,139.893 L247.218,141.122 L247.854,142.4 L248.493,143.727 L249.135,145.109 L249.78,146.548 L250.428,148.048 L251.078,149.613 L251.731,151.249 L252.387,152.959 L253.045,154.751 L253.707,156.631 L254.371,158.605 L255.038,160.683 L255.708,162.874 L256.381,165.188 L257.056,167.639 L257.735,170.242 L258.416,173.013 L259.1,175.973 L259.788,179.147 L260.478,182.564 L261.171,186.261 L261.867,190.283 L262.566,194.687 L263.268,199.548 L263.973,204.965 L264.681,211.071 L265.392,218.059 L266.106,226.212 L266.823,235.978 L267.544,248.129 L268.267,264.175 L268.993,287.759 L269.723,332.774 L269.878,343"/>
<path vector-effect="non-scaling-stroke" fill-rule="evenodd" d="M270.811,343 L271.191,302.426 L271.93,272.397 L272.672,253.42 L273.417,239.496 L274.165,228.482 L274.917,219.364 L275.671,211.582 L276.429,204.791 L277.19,198.768 L277.955,193.354 L278.722,188.44 L279.493,183.94 L280.268,179.79 L281.045,175.942 L281.826,172.355 L282.61,168.996 L283.398,165.84 L284.189,162.865 L284.983,160.052 L285.78,157.385 L286.581,154.852 L287.386,152.44 L288.194,150.14 L289.005,147.944 L289.82,145.843 L290.638,143.831 L291.46,141.902 L292.285,140.05 L293.114,138.272 L293.946,136.562 L294.782,134.917 L295.622,133.334 L296.465,131.809 L297.311,130.34 L298.162,128.924 L299.016,127.559 L299.873,126.242 L300.734,124.972 L301.599,123.747 L302.468,122.565 L303.34,121.426 L304.216,120.327 L305.096,119.267 L305.979,118.245 L306.866,117.261 L307.757,116.312 L308.652,115.399 L309.551,114.521 L310.453,113.677 L311.359,112.866 L312.27,112.087 L313.184,111.341 L314.102,110.627 L315.023,109.944 L315.949,109.292 L316.879,108.671 L317.813,108.081 L318.75,107.521 L319.692,106.991 L320.638,106.493 L321.588,106.024 L322.541,105.586 L323.499,105.179 L324.461,104.803 L325.427,104.459 L326.397,104.146 L327.372,103.865 L328.35,103.616 L329.333,103.402 L330.32,103.221 L331.311,103.075 L332.306,102.965 L333.306,102.891 L334.309,102.856 L335.317,102.86 L336.33,102.905 L337.346,102.993 L338.367,103.125 L339.393,103.304 L340.423,103.531 L341.457,103.81 L342.495,104.143 L343.538,104.534 L344.586,104.986 L345.638,105.504 L346.694,106.092 L347.755,106.754 L348.82,107.498 L349.89,108.33 L350.965,109.257 L352.044,110.288 L353.128,111.434 L354.216,112.705 L355.309,114.116 L356.407,115.682 L357.509,117.423 L358.616,119.36 L359.728,121.52 L360.844,123.936 L361.966,126.649 L363.092,129.71 L364.223,133.182 L365.358,137.151 L366.499,141.729 L367.644,147.073 L368.794,153.408 L369.95,161.076 L371.11,170.634 L372.275,183.083 L373.445,200.53 L374.62,228.812 L375.8,303.08 L376.985,258.988 L378.175,211.74 L379.37,186.652 L380.57,169.269 L381.776,155.869 L382.986,144.92 L384.202,135.646 L385.423,127.597 L386.649,120.49 L387.881,114.137 L389.117,108.407 L390.359,103.203 L391.606,98.4532 L392.859,94.1025 L394.116,90.1072 L395.38,86.4319 L396.648,83.0476 L397.922,79.9294 L399.202,77.056 L400.487,74.4088 L401.777,71.971 L403.073,69.7272 L404.374,67.6635 L405.681,65.7668 L406.994,64.0249 L408.312,62.4264 L409.636,60.9606 L410.965,59.6174 L412.3,58.3872 L413.641,57.2612 L414.987,56.231 L416.34,55.2887 L417.698,54.4271 L419.061,53.6395 L420.431,52.9195 L421.806,52.2614 L423.188,51.6598 L424.575,51.1097 L425.968,50.6068 L427.367,50.1468 L428.772,49.7259 L430.183,49.3407 L431.6,48.988 L433.023,48.665 L434.453,48.369 L435.888,48.0976 L437.329,47.8486 L438.777,47.6202 L440.231,47.4104 L441.69,47.2176 L443.157,47.0404 L444.629,46.8775 L446.108,46.7275 L447.593,46.5894 L449.084,46.4621 L450.582,46.3448 L452.086,46.2366 L453.596,46.1367 L455.113,46.0445 L456.637,45.9593 L458.167,45.8805 L459.703,45.8076 L461.246,45.7401 L462.796,45.6777 L464.352,45.6198 L465.915,45.5661 L467.484,45.5164 L469.06,45.4702 L470.643,45.4273 L472.233,45.3875 L473.829,45.3505 L475.432,45.3161 L477.043,45.2841 L478.659,45.2542 L480.283,45.2265 L481.914,45.2007 L483.552,45.1766 L485.197,45.1541 L486.848,45.1332 L488.507,45.1137 L490.173,45.0954 L491.846,45.0784 L493.526,45.0625 L495.213,45.0476 L496.908,45.0338 L498.609,45.0208 L500.318,45.0086 L502.035,44.9972 L503.758,44.9866 L505.489,44.9766 L507.227,44.9673 L508.973,44.9585 L510.726,44.9503 L512.487,44.9426 L514.255,44.9354 L516.031,44.9286 L517.814,44.9222 L519.605,44.9163 L521.403,44.9106 L523.21,44.9054 L525.024,44.9004 L526.845,44.8958 L528.675,44.8914 L530.512,44.8873 L532.357,44.8834 L534.21,44.8798 L536.071,44.8763 L537.939,44.8731 L539.816,44.8701 L541.701,44.8672 L543.594,44.8645 L545.495,44.862 L547.403,44.8596 L549.321,44.8574 L551.246,44.8552 L553.179,44.8532 L555.121,44.8513 L557.071,44.8495 L559.029,44.8479 L560.996,44.8463 L562.971,44.8448 L564.955,44.8434 L566.947,44.842 L568.947,44.8408 L570.956,44.8396 L572.974,44.8384 L575,44.8374"/>
</g>

<g fill="none" stroke="#ff0000" stroke-opacity="1" stroke-width="1" stroke-linecap="square" stroke-linejoin="bevel" transform="matrix(1,0,0,1,0,0)"
font-family="Helvetica" font-size="12" font-weight="400" font-style="normal" 
>
<path vector-effect="non-scaling-stroke" fill-rule="evenodd" d="M113.9,45.0434 L113.968,45.0453 L114.036,45.0471 L114.104,45.049 L114.173,45.051 L114.242,45.0529 L114.311,45.0548 L114.381,45.0568 L114.451,45.0588 L114.521,45.0608 L114.591,45.0628 L114.662,45.0648 L114.733,45.0669 L114.805,45.0689 L114.876,45.071 L114.948,45.0731 L115.021,45.0752 L115.093,45.0773 L115.166,45.0795 L115.239,45.0816 L115.313,45.0838 L115.387,45.086 L115.461,45.0882 L115.535,45.0905 L115.61,45.0927 L115.685,45.095 L115.761,45.0973 L115.837,45.0995 L115.913,45.1019 L115.989,45.1042 L116.066,45.1066 L116.143,45.1089 L116.22,45.1114 L116.298,45.1138 L116.376,45.1162 L116.454,45.1187 L116.533,45.1211 L116.612,45.1236 L116.692,45.1261 L116.771,45.1287 L116.851,45.1312 L116.932,45.1338 L117.013,45.1364 L117.094,45.139 L117.175,45.1416 L117.257,45.1443 L117.339,45.1469 L117.422,45.1496 L117.505,45.1523 L117.588,45.1551 L117.671,45.1578 L117.755,45.1606 L117.839,45.1634 L117.924,45.1662 L118.009,45.1691 L118.094,45.1719 L118.18,45.1748 L118.266,45.1777 L118.353,45.1807 L118.44,45.1836 L118.527,45.1866 L118.614,45.1896 L118.702,45.1926 L118.791,45.1957 L118.879,45.1988 L118.968,45.2018 L119.058,45.205 L119.148,45.2081 L119.238,45.2113 L119.328,45.2145 L119.419,45.2177 L119.511,45.2209 L119.603,45.2242 L119.695,45.2275 L119.787,45.2308 L119.88,45.2341 L119.974,45.2375 L120.067,45.2409 L120.161,45.2443 L120.256,45.2478 L120.351,45.2513 L120.446,45.2547 L120.542,45.2583 L120.638,45.2618 L120.735,45.2654 L120.832,45.269 L120.929,45.2726 L121.027,45.2763 L121.125,45.28 L121.224,45.2837 L121.323,45.2874 L121.422,45.2912 L121.522,45.295 L121.623,45.2988 L121.723,45.3027 L121.825,45.3065 L121.926,45.3105 L122.028,45.3144 L122.131,45.3184 L122.234,45.3224 L122.337,45.3264 L122.441,45.3304 L122.545,45.3345 L122.65,45.3387 L122.755,45.3428 L122.861,45.347 L122.967,45.3512 L123.073,45.3554 L123.18,45.3597 L123.288,45.364 L123.395,45.3683 L123.504,45.3727 L123.613,45.3771 L123.722,45.3816 L123.832,45.386 L123.942,45.3905 L124.052,45.395 L124.164,45.3996 L124.275,45.4042 L124.387,45.4088 L124.5,45.4135 L124.613,45.4182 L124.726,45.4229 L124.84,45.4276 L124.955,45.4324 L125.07,45.4373 L125.185,45.4421 L125.301,45.447 L125.418,45.452 L125.535,45.4569 L125.652,45.4619 L125.77,45.4669 L125.889,45.472 L126.008,45.4771 L126.127,45.4823 L126.247,45.4875 L126.368,45.4927 L126.489,45.4979 L126.61,45.5032 L126.732,45.5085 L126.855,45.5139 L126.978,45.5193 L127.101,45.5247 L127.226,45.5302 L127.35,45.5357 L127.475,45.5413 L127.601,45.5468 L127.727,45.5525 L127.854,45.5581 L127.982,45.5638 L128.11,45.5696 L128.238,45.5753 L128.367,45.5812 L128.497,45.587 L128.627,45.5929 L128.757,45.5988 L128.888,45.6048 L129.02,45.6108 L129.153,45.6169 L129.285,45.623 L129.419,45.6291 L129.553,45.6353 L129.688,45.6415 L129.823,45.6478 L129.958,45.6541 L130.095,45.6604 L130.232,45.6668 L130.369,45.6732 L130.507,45.6797 L130.646,45.6862 L130.785,45.6927 L130.925,45.6993 L131.066,45.7059 L131.207,45.7126 L131.348,45.7193 L131.491,45.726 L131.633,45.7328 L131.777,45.7397 L131.921,45.7466 L132.066,45.7535 L132.211,45.7605 L132.357,45.7675 L132.503,45.7745 L132.651,45.7816 L132.798,45.7888 L132.947,45.7959 L133.096,45.8032 L133.246,45.8105 L133.396,45.8177 L133.547,45.8251 L133.699,45.8325 L133.851,45.84 L134.004,45.8474 L134.158,45.855 L134.312,45.8626 L134.467,45.8702 L134.622,45.8779 L134.778,45.8856 L134.935,45.8933 L135.093,45.9011 L135.251,45.909 L135.41,45.9169 L135.57,45.9248 L135.73,45.9328 L135.891,45.9408 L136.052,45.9489 L136.215,45.957 L136.378,45.9652 L136.542,45.9734 L136.706,45.9816 L136.871,45.9899 L137.037,45.9983 L137.203,46.0067 L137.371,46.0151 L137.539,46.0236 L137.707,46.0321 L137.877,46.0406 L138.047,46.0493 L138.218,46.0579 L138.389,46.0666 L138.561,46.0753 L138.735,46.0841 L138.908,46.093 L139.083,46.1018 L139.258,46.1108 L139.434,46.1198 L139.611,46.1288 L139.788,46.1378 L139.967,46.1469 L140.146,46.156 L140.325,46.1652 L140.506,46.1745 L140.687,46.1837 L140.869,46.1931 L141.052,46.2024 L141.236,46.2118 L141.42,46.2213 L141.606,46.2308 L141.792,46.2403 L141.978,46.2499 L142.166,46.2595 L142.354,46.2691 L142.544,46.2788 L142.734,46.2886 L142.924,46.2984 L143.116,46.3082 L143.309,46.3181 L143.502,46.328 L143.696,46.3379 L143.891,46.3479 L144.087,46.3579 L144.283,46.368 L144.481,46.3781 L144.679,46.3882 L144.878,46.3984 L145.078,46.4086 L145.279,46.4189 L145.481,46.4292 L145.683,46.4395 L145.887,46.4499 L146.091,46.4603 L146.296,46.4707 L146.502,46.4812 L146.709,46.4917 L146.917,46.5023 L147.125,46.5128 L147.335,46.5234 L147.545,46.5341 L147.757,46.5448 L147.969,46.5555 L148.182,46.5662 L148.396,46.577 L148.611,46.5878 L148.827,46.5986 L149.044,46.6095 L149.262,46.6203 L149.48,46.6313 L149.7,46.6422 L149.921,46.6532 L150.142,46.6642 L150.364,46.6752 L150.588,46.6862 L150.812,46.6973 L151.037,46.7083 L151.264,46.7195 L151.491,46.7306 L151.719,46.7417 L151.948,46.7529 L152.178,46.7641 L152.41,46.7753 L152.642,46.7865 L152.875,46.7978 L153.109,46.809 L153.344,46.8203 L153.58,46.8316 L153.817,46.8429 L154.055,46.8542 L154.294,46.8655 L154.534,46.8768 L154.776,46.8881 L155.018,46.8995 L155.261,46.9108 L155.505,46.9222 L155.751,46.9335 L155.997,46.9449 L156.244,46.9562 L156.493,46.9676 L156.742,46.9789 L156.993,46.9903 L157.245,47.0016 L157.497,47.013 L157.751,47.0244 L158.006,47.0357 L158.262,47.047 L158.519,47.0583 L158.777,47.0696 L159.037,47.0809 L159.297,47.0922 L159.558,47.1034 L159.821,47.1147 L160.085,47.1259 L160.35,47.1371 L160.616,47.1483 L160.883,47.1595 L161.151,47.1706 L161.42,47.1817 L161.691,47.1927 L161.963,47.2038 L162.235,47.2148 L162.509,47.2258 L162.785,47.2367 L163.061,47.2477 L163.339,47.2585 L163.617,47.2693 L163.897,47.2801 L164.178,47.2909 L164.461,47.3015 L164.744,47.3122 L165.029,47.3228 L165.315,47.3333 L165.602,47.3438 L165.89,47.3542 L166.18,47.3646 L166.471,47.3749 L166.763,47.3851 L167.056,47.3953 L167.351,47.4054 L167.647,47.4155 L167.944,47.4254 L168.242,47.4353 L168.542,47.4451 L168.843,47.4549 L169.145,47.4645 L169.448,47.4741 L169.753,47.4836 L170.059,47.493 L170.367,47.5022 L170.675,47.5114 L170.985,47.5205 L171.297,47.5295 L171.609,47.5385 L171.923,47.5472 L172.239,47.5559 L172.556,47.5645 L172.874,47.573 L173.193,47.5813 L173.514,47.5895 L173.836,47.5977 L174.159,47.6056 L174.484,47.6135 L174.811,47.6212 L175.138,47.6288 L175.467,47.6363 L175.798,47.6436 L176.13,47.6507 L176.463,47.6577 L176.798,47.6646 L177.134,47.6714 L177.471,47.6779 L177.81,47.6843 L178.151,47.6906 L178.493,47.6966 L178.836,47.7025 L179.181,47.7083 L179.527,47.7138 L179.875,47.7192 L180.224,47.7244 L180.575,47.7294 L180.927,47.7343 L181.281,47.7389 L181.636,47.7433 L181.993,47.7476 L182.351,47.7516 L182.711,47.7554 L183.073,47.7591 L183.436,47.7625 L183.8,47.7657 L184.166,47.7686 L184.534,47.7714 L184.903,47.7739 L185.273,47.7762 L185.646,47.7782 L186.02,47.78 L186.395,47.7816 L186.772,47.7829 L187.151,47.7839 L187.531,47.7847 L187.913,47.7853 L188.297,47.7856 L188.682,47.7856 L189.069,47.7853 L189.457,47.7848 L189.847,47.784 L190.239,47.783 L190.633,47.7816 L191.028,47.7799 L191.425,47.778 L191.823,47.7758 L192.223,47.7732 L192.625,47.7704 L193.029,47.7672 L193.434,47.7637 L193.842,47.76 L194.25,47.7559 L194.661,47.7515 L195.073,47.7467 L195.487,47.7416 L195.903,47.7362 L196.321,47.7305 L196.74,47.7244 L197.162,47.718 L197.585,47.7112 L198.009,47.7041 L198.436,47.6966 L198.865,47.6888 L199.295,47.6806 L199.727,47.672 L200.161,47.6631 L200.597,47.6538 L201.034,47.6441 L201.474,47.6341 L201.915,47.6237 L202.359,47.6129 L202.804,47.6017 L203.251,47.5901 L203.7,47.5781 L204.151,47.5658 L204.604,47.553 L205.058,47.5399 L205.515,47.5263 L205.974,47.5124 L206.434,47.498 L206.897,47.4833 L207.361,47.4681 L207.828,47.4525 L208.296,47.4366 L208.767,47.4202 L209.239,47.4034 L209.714,47.3862 L210.191,47.3686 L210.669,47.3505 L211.15,47.3321 L211.632,47.3132 L212.117,47.2939 L212.604,47.2742 L213.093,47.2542 L213.584,47.2336 L214.077,47.2127 L214.572,47.1913 L215.069,47.1696 L215.569,47.1474 L216.07,47.1248 L216.574,47.1019 L217.08,47.0785 L217.588,47.0547 L218.098,47.0305 L218.61,47.006 L219.125,46.981 L219.641,46.9556 L220.16,46.9299 L220.682,46.9038 L221.205,46.8773 L221.73,46.8504 L222.258,46.8232 L222.788,46.7956 L223.321,46.7676 L223.855,46.7393 L224.392,46.7107 L224.931,46.6818 L225.473,46.6525 L226.017,46.6229 L226.563,46.593 L227.111,46.5627 L227.662,46.5322 L228.215,46.5014 L228.771,46.4704 L229.328,46.4391 L229.889,46.4075 L230.451,46.3757 L231.016,46.3437 L231.584,46.3114 L232.154,46.279 L232.726,46.2464 L233.301,46.2136 L233.878,46.1807 L234.457,46.1476 L235.039,46.1144 L235.624,46.0811 L236.211,46.0477 L236.801,46.0142 L237.393,45.9807 L237.987,45.9471 L238.585,45.9135 L239.184,45.88 L239.787,45.8464 L240.391,45.813 L240.999,45.7795 L241.609,45.7462 L242.222,45.713 L242.837,45.6799 L243.455,45.647 L244.075,45.6143 L244.698,45.5818 L245.324,45.5496 L245.953,45.5176 L246.584,45.486 L247.218,45.4546 L247.854,45.4236 L248.493,45.393 L249.135,45.3629 L249.78,45.3331 L250.428,45.3039 L251.078,45.2751 L251.731,45.2469 L252.387,45.2193 L253.045,45.1923 L253.707,45.166 L254.371,45.1403 L255.038,45.1153 L255.708,45.0911 L256.381,45.0676 L257.056,45.045 L257.735,45.0232 L258.416,45.0023 L259.1,44.9824 L259.788,44.9634 L260.478,44.9454 L261.171,44.9285 L261.867,44.9126 L262.566,44.8978 L263.268,44.8842 L263.973,44.8717 L264.681,44.8604 L265.392,44.8504 L266.106,44.8417 L266.823,44.8343 L267.544,44.8283 L268.267,44.8236 L268.993,44.8204 L269.723,44.8186 L270.455,44.8182 L271.191,44.8194 L271.93,44.8221 L272.672,44.8264 L273.417,44.8323 L274.165,44.8398 L274.917,44.8488 L275.671,44.8596 L276.429,44.872 L277.19,44.8862 L277.955,44.902 L278.722,44.9195 L279.493,44.9388 L280.268,44.9598 L281.045,44.9826 L281.826,45.0071 L282.61,45.0334 L283.398,45.0614 L284.189,45.0912 L284.983,45.1227 L285.78,45.1559 L286.581,45.1909 L287.386,45.2275 L288.194,45.2659 L289.005,45.3059 L289.82,45.3475 L290.638,45.3907 L291.46,45.4355 L292.285,45.4819 L293.114,45.5297 L293.946,45.579 L294.782,45.6296 L295.622,45.6817 L296.465,45.735 L297.311,45.7895 L298.162,45.8452 L299.016,45.9019 L299.873,45.9597 L300.734,46.0185 L301.599,46.078 L302.468,46.1383 L303.34,46.1993 L304.216,46.2609 L305.096,46.323 L305.979,46.3854 L306.866,46.4481 L307.757,46.5109 L308.652,46.5737 L309.551,46.6364 L310.453,46.6989 L311.359,46.761 L312.27,46.8227 L313.184,46.8837 L314.102,46.9439 L315.023,47.0031 L315.949,47.0613 L316.879,47.1182 L317.813,47.1737 L318.75,47.2277 L319.692,47.2798 L320.638,47.3301 L321.588,47.3783 L322.541,47.4242 L323.499,47.4677 L324.461,47.5085 L325.427,47.5465 L326.397,47.5815 L327.372,47.6134 L328.35,47.6418 L329.333,47.6667 L330.32,47.6878 L331.311,47.7049 L332.306,47.718 L333.306,47.7267 L334.309,47.7308 L335.317,47.7303 L336.33,47.725 L337.346,47.7146 L338.367,47.699 L339.393,47.6781 L340.423,47.6516 L341.457,47.6196 L342.495,47.5818 L343.538,47.5381 L344.586,47.4886 L345.638,47.433 L346.694,47.3713 L347.755,47.3036 L348.82,47.2299 L349.89,47.1501 L350.965,47.0645 L352.044,46.973 L353.128,46.876 L354.216,46.7736 L355.309,46.6661 L356.407,46.554 L357.509,46.4376 L358.616,46.3174 L359.728,46.1942 L360.844,46.0686 L361.966,45.9415 L363.092,45.8139 L364.223,45.6868 L365.358,45.5616 L366.499,45.4397 L367.644,45.3227 L368.794,45.2124 L369.95,45.1108 L371.11,45.0201 L372.275,44.9429 L373.445,44.8817 L374.62,44.8395 L375.8,44.8194 L376.985,44.8248 L378.175,44.8593 L379.37,44.9268 L380.57,45.0311 L381.776,45.1764 L382.986,45.3669 L384.202,45.6068 L385.423,45.9003 L386.649,46.2516 L387.881,46.6646 L389.117,47.1429 L390.359,47.6899 L391.606,48.3085 L392.859,49.0011 L394.116,49.7696 L395.38,50.6151 L396.648,51.5383 L397.922,52.5391 L399.202,53.6165 L400.487,54.7694 L401.777,55.9955 L403.073,57.2923 L404.374,58.6567 L405.681,60.0852 L406.994,61.5741 L408.312,63.1193 L409.636,64.7165 L410.965,66.3614 L412.3,68.0498 L413.641,69.7775 L414.987,71.5402 L416.34,73.3339 L417.698,75.1549 L419.061,76.9994 L420.431,78.8642 L421.806,80.746 L423.188,82.6418 L424.575,84.5491 L425.968,86.4653 L427.367,88.3881 L428.772,90.3156 L430.183,92.2458 L431.6,94.1772 L433.023,96.1083 L434.453,98.0377 L435.888,99.9643 L437.329,101.887 L438.777,103.805 L440.231,105.718 L441.69,107.624 L443.157,109.524 L444.629,111.416 L446.108,113.3 L447.593,115.177 L449.084,117.045 L450.582,118.904 L452.086,120.755 L453.596,122.596 L455.113,124.429 L456.637,126.252 L458.167,128.066 L459.703,129.871 L461.246,131.666 L462.796,133.452 L464.352,135.229 L465.915,136.997 L467.484,138.755 L469.06,140.505 L470.643,142.245 L472.233,143.977 L473.829,145.699 L475.432,147.413 L477.043,149.119 L478.659,150.815 L480.283,152.504 L481.914,154.184 L483.552,155.856 L485.197,157.52 L486.848,159.176 L488.507,160.824 L490.173,162.465 L491.846,164.098 L493.526,165.723 L495.213,167.341 L496.908,168.953 L498.609,170.557 L500.318,172.154 L502.035,173.744 L503.758,175.327 L505.489,176.904 L507.227,178.474 L508.973,180.038 L510.726,181.596 L512.487,183.148 L514.255,184.693 L516.031,186.232 L517.814,187.766 L519.605,189.294 L521.403,190.816 L523.21,192.333 L525.024,193.844 L526.845,195.35 L528.675,196.85 L530.512,198.345 L532.357,199.836 L534.21,201.321 L536.071,202.801 L537.939,204.276 L539.816,205.747 L541.701,207.213 L543.594,208.674 L545.495,210.131 L547.403,211.583 L549.321,213.031 L551.246,214.474 L553.179,215.913 L555.121,217.348 L557.071,218.779 L559.029,220.206 L560.996,221.629 L562.971,223.048 L564.955,224.463 L566.947,225.874 L568.947,227.282 L570.956,228.685 L572.974,230.086 L575,231.482"/>
</g>

<g fill="none" stroke="#000000" stroke-opacity="1" stroke-width="1" stroke-linecap="square" stroke-linejoin="bevel" transform="matrix(1,0,0,1,94,361)"
font-family="Helvetica" font-size="12" font-weight="400" font-style="normal" 
>
<text fill="#000000" fill-opacity="1" stroke="none" xml:space="preserve" x="0" y="0" font-family="Helvetica" font-size="12" font-weight="400" font-style="normal" 
 >0</text>
</g>

<g fill="none" stroke="#000000" stroke-opacity="1" stroke-width="1" stroke-linecap="square" stroke-linejoin="bevel" transform="matrix(1,0,0,1,165,361)"
font-family="Helvetica" font-size="12" font-weight="400" font-style="normal" 
>
<text fill="#000000" fill-opacity="1" stroke="none" xml:space="preserve" x="0" y="0" font-family="Helvetica" font-size="12" font-weight="400" font-style="normal" 
 >5e8</text>
</g>

<g fill="none" stroke="#000000" stroke-opacity="1" stroke-width="1" stroke-linecap="square" stroke-linejoin="bevel" transform="matrix(1,0,0,1,244,361)"
font-family="Helvetica" font-size="12" font-weight="400" font-style="normal" 
>
<text fill="#000000" fill-opacity="1" stroke="none" xml:space="preserve" x="0" y="0" font-family="Helvetica" font-size="12" font-weight="400" font-style="normal" 
 >1e9</text>
</g>

<g fill="none" stroke="#000000" stroke-opacity="1" stroke-width="1" stroke-linecap="square" stroke-linejoin="bevel" transform="matrix(1,0,0,1,317,361)"
font-family="Helvetica" font-size="12" font-weight="400" font-style="normal" 
>
<text fill="#000000" fill-opacity="1" stroke="none" xml:space="preserve" x="0" y="0" font-family="Helvetica" font-size="12" font-weight="400" font-style="normal" 
 >1.5e9</text>
</g>

<g fill="none" stroke="#000000" stroke-opacity="1" stroke-width="1" stroke-linecap="square" stroke-linejoin="bevel" transform="matrix(1,0,0,1,403,361)"
font-family="Helvetica" font-size="12" font-weight="400" font-style="normal" 
>
<text fill="#000000" fill-opacity="1" stroke="none" xml:space="preserve" x="0" y="0" font-family="Helvetica" font-size="12" font-weight="400" font-style="normal" 
 >2e9</text>
</g>

<g fill="none" stroke="#000000" stroke-opacity="1" stroke-width="1" stroke-linecap="square" stroke-linejoin="bevel" transform="matrix(1,0,0,1,476,361)"
font-family="Helvetica" font-size="12" font-weight="400" font-style="normal" 
>
<text fill="#000000" fill-opacity="1" stroke="none" xml:space="preserve" x="0" y="0" font-family="Helvetica" font-size="12" font-weight="400" font-style="normal" 
 >2.5e9</text>
</g>

<g fill="none" stroke="#000000" stroke-opacity="1" stroke-width="1" stroke-linecap="square" stroke-linejoin="bevel" transform="matrix(1,0,0,1,562,361)"
font-family="Helvetica" font-size="12" font-weight="400" font-style="normal" 
>
<text fill="#000000" fill-opacity="1" stroke="none" xml:space="preserve" x="0" y="0" font-family="Helvetica" font-size="12" font-weight="400" font-style="normal" 
 >3e9</text>
</g>

<g fill="none" stroke="#000000" stroke-opacity="1" stroke-width="1" stroke-linecap="square" stroke-linejoin="bevel" transform="matrix(1,0,0,1,68,349)"
font-family="Helvetica" font-size="12" font-weight="400" font-style="normal" 
>
<text fill="#000000" fill-opacity="1" stroke="none" xml:space="preserve" x="0" y="0" font-family="Helvetica" font-size="12" font-weight="400" font-style="normal" 
 >-50</text>
</g>

<g fill="none" stroke="#000000" stroke-opacity="1" stroke-width="1" stroke-linecap="square" stroke-linejoin="bevel" transform="matrix(1,0,0,1,68,289)"
font-family="Helvetica" font-size="12" font-weight="400" font-style="normal" 
>
<text fill="#000000" fill-opacity="1" stroke="none" xml:space="preserve" x="0" y="0" font-family="Helvetica" font-size="12" font-weight="400" font-style="normal" 
 >-40</text>
</g>

<g fill="none" stroke="#000000" stroke-opacity="1" stroke-width="1" stroke-linecap="square" stroke-linejoin="bevel" transform="matrix(1,0,0,1,68,230)"
font-family="Helvetica" font-size="12" font-weight="400" font-style="normal" 
>
<text fill="#000000" fill-opacity="1" stroke="none" xml:space="preserve" x="0" y="0" font-family="Helvetica" font-size="12" font-weight="400" font-style="normal" 
 >-30</text>
</g>

<g fill="none" stroke="#000000" stroke-opacity="1" stroke-width="1" stroke-linecap="square" stroke-linejoin="bevel" transform="matrix(1,0,0,1,68,170)"
font-family="Helvetica" font-size="12" font-weight="400" font-style="normal" 
>
<text fill="#000000" fill-opacity="1" stroke="none" xml:space="preserve" x="0" y="0" font-family="Helvetica" font-size="12" font-weight="400" font-style="normal" 
 >-20</text>
</g>

<g fill="none" stroke="#000000" stroke-opacity="1" stroke-width="1" stroke-linecap="square" stroke-linejoin="bevel" transform="matrix(1,0,0,1,68,110)"
font-family="Helvetica" font-size="12" font-weight="400" font-style="normal" 
>
<text fill="#000000" fill-opacity="1" stroke="none" xml:space="preserve" x="0" y="0" font-family="Helvetica" font-size="12" font-weight="400" font-style="normal" 
 >-10</text>
</g>

<g fill="none" stroke="#000000" stroke-opacity="1" stroke-width="1" stroke-linecap="square" stroke-linejoin="bevel" transform="matrix(1,0,0,1,82,51)"
font-family="Helvetica" font-size="12" font-weight="400" font-style="normal" 
>
<text fill="#000000" fill-opacity="1" stroke="none" xml:space="preserve" x="0" y="0" font-family="Helvetica" font-size="12" font-weight="400" font-style="normal" 
 >0</text>
</g>

<g fill="none" stroke="#000000" stroke-opacity="1" stroke-width="1" stroke-linecap="square" stroke-linejoin="bevel" transform="matrix(1,0,0,1,281,384)"
font-family="Helvetica" font-size="12" font-weight="400" font-style="normal" 
>
<text fill="#000000" fill-opacity="1" stroke="none" xml:space="preserve" x="0" y="0" font-family="Helvetica" font-size="12" font-weight="400" font-style="normal" 
 >Fréquence (Hz)</text>
</g>

<g fill="none" stroke="#0000ff" stroke-opacity="1" stroke-width="1" stroke-linecap="square" stroke-linejoin="bevel" transform="matrix(0,-1,1,0,61,203)"
font-family="Helvetica" font-size="12" font-weight="400" font-style="normal" 
>
<text fill="#0000ff" fill-opacity="1" stroke="none" xml:space="preserve" x="0" y="0" font-family="Helvetica" font-size="12" font-weight="400" font-style="normal" 
 >dBS11</text>
</g>

<g fill="none" stroke="#ff0000" stroke-opacity="1" stroke-width="1" stroke-linecap="square" stroke-linejoin="bevel" transform="matrix(0,-1,1,0,38,203)"
font-family="Helvetica" font-size="12" font-weight="400" font-style="normal" 
>
<text fill="#ff0000" fill-opacity="1" stroke="none" xml:space="preserve" x="0" y="0" font-family="Helvetica" font-size="12" font-weight="400" font-style="normal" 
 >dBS21</text>
</g>

<g fill="none" stroke="#ff0000" stroke-opacity="1" stroke-width="1" stroke-linecap="square" stroke-linejoin="bevel" transform="matrix(1,0,0,1,0,0)"
font-family="Helvetica" font-size="12" font-weight="400" font-style="normal" 
>
</g>
</g>
</svg>
