<?xml version="1.0" encoding="UTF-8"?>
<!DOCTYPE svg PUBLIC "-//W3C//DTD SVG 1.1//EN" "http://www.w3.org/Graphics/SVG/1.1/DTD/svg11.dtd">
<svg width="202mm" height="138mm" viewBox="0 0 20200 13800" version="1.1" xmlns="http://www.w3.org/2000/svg" stroke-width="28.222" stroke-linejoin="round" xml:space="preserve">
 <path fill="rgb(255,255,255)" stroke="none" d="M 10094,13836 L 0,13836 0,0 20187,0 20187,13836 10094,13836 Z"/>
 <path fill="rgb(255,255,255)" stroke="none" d="M 10333,11528 L 2783,11528 2783,1878 17883,1878 17883,11528 10333,11528 Z"/>
 <path fill="none" stroke="rgb(183,183,183)" stroke-width="26" stroke-linejoin="round" d="M 5055,1877 L 5055,11527"/>
 <path fill="none" stroke="rgb(183,183,183)" stroke-width="26" stroke-linejoin="round" d="M 6385,1877 L 6385,11527"/>
 <path fill="none" stroke="rgb(183,183,183)" stroke-width="26" stroke-linejoin="round" d="M 7328,1877 L 7328,11527"/>
 <path fill="none" stroke="rgb(183,183,183)" stroke-width="26" stroke-linejoin="round" d="M 8060,1877 L 8060,11527"/>
 <path fill="none" stroke="rgb(183,183,183)" stroke-width="26" stroke-linejoin="round" d="M 8658,1877 L 8658,11527"/>
 <path fill="none" stroke="rgb(183,183,183)" stroke-width="26" stroke-linejoin="round" d="M 9163,1877 L 9163,11527"/>
 <path fill="none" stroke="rgb(183,183,183)" stroke-width="26" stroke-linejoin="round" d="M 9601,1877 L 9601,11527"/>
 <path fill="none" stroke="rgb(183,183,183)" stroke-width="26" stroke-linejoin="round" d="M 9988,1877 L 9988,11527"/>
 <path fill="none" stroke="rgb(183,183,183)" stroke-width="26" stroke-linejoin="round" d="M 12605,1877 L 12605,11527"/>
 <path fill="none" stroke="rgb(183,183,183)" stroke-width="26" stroke-linejoin="round" d="M 13935,1877 L 13935,11527"/>
 <path fill="none" stroke="rgb(183,183,183)" stroke-width="26" stroke-linejoin="round" d="M 14878,1877 L 14878,11527"/>
 <path fill="none" stroke="rgb(183,183,183)" stroke-width="26" stroke-linejoin="round" d="M 15610,1877 L 15610,11527"/>
 <path fill="none" stroke="rgb(183,183,183)" stroke-width="26" stroke-linejoin="round" d="M 16207,1877 L 16207,11527"/>
 <path fill="none" stroke="rgb(183,183,183)" stroke-width="26" stroke-linejoin="round" d="M 16713,1877 L 16713,11527"/>
 <path fill="none" stroke="rgb(183,183,183)" stroke-width="26" stroke-linejoin="round" d="M 17151,1877 L 17151,11527"/>
 <path fill="none" stroke="rgb(183,183,183)" stroke-width="26" stroke-linejoin="round" d="M 17537,1877 L 17537,11527"/>
 <path fill="none" stroke="rgb(135,135,135)" stroke-width="44" stroke-linejoin="round" d="M 17883,1877 L 2783,1877"/>
 <path fill="none" stroke="rgb(135,135,135)" stroke-width="44" stroke-linejoin="round" d="M 17883,2842 L 2783,2842"/>
 <path fill="none" stroke="rgb(135,135,135)" stroke-width="44" stroke-linejoin="round" d="M 17883,3807 L 2783,3807"/>
 <path fill="none" stroke="rgb(135,135,135)" stroke-width="44" stroke-linejoin="round" d="M 17883,4772 L 2783,4772"/>
 <path fill="none" stroke="rgb(135,135,135)" stroke-width="44" stroke-linejoin="round" d="M 17883,5737 L 2783,5737"/>
 <path fill="none" stroke="rgb(135,135,135)" stroke-width="44" stroke-linejoin="round" d="M 17883,6702 L 2783,6702"/>
 <path fill="none" stroke="rgb(135,135,135)" stroke-width="44" stroke-linejoin="round" d="M 17883,7666 L 2783,7666"/>
 <path fill="none" stroke="rgb(135,135,135)" stroke-width="44" stroke-linejoin="round" d="M 17883,8631 L 2783,8631"/>
 <path fill="none" stroke="rgb(135,135,135)" stroke-width="44" stroke-linejoin="round" d="M 17883,9596 L 2783,9596"/>
 <path fill="none" stroke="rgb(135,135,135)" stroke-width="44" stroke-linejoin="round" d="M 17883,10561 L 2783,10561"/>
 <path fill="none" stroke="rgb(135,135,135)" stroke-width="44" stroke-linejoin="round" d="M 17883,11527 L 2783,11527"/>
 <path fill="none" stroke="rgb(183,183,183)" stroke-width="26" stroke-linejoin="round" stroke-dasharray="51,51" d="M 17883,2070 L 2783,2070"/>
 <path fill="none" stroke="rgb(183,183,183)" stroke-width="26" stroke-linejoin="round" stroke-dasharray="51,51" d="M 17883,2263 L 2783,2263"/>
 <path fill="none" stroke="rgb(183,183,183)" stroke-width="26" stroke-linejoin="round" stroke-dasharray="51,51" d="M 17883,2456 L 2783,2456"/>
 <path fill="none" stroke="rgb(183,183,183)" stroke-width="26" stroke-linejoin="round" stroke-dasharray="51,51" d="M 17883,2649 L 2783,2649"/>
 <path fill="none" stroke="rgb(183,183,183)" stroke-width="26" stroke-linejoin="round" stroke-dasharray="51,51" d="M 17883,3035 L 2783,3035"/>
 <path fill="none" stroke="rgb(183,183,183)" stroke-width="26" stroke-linejoin="round" stroke-dasharray="51,51" d="M 17883,3228 L 2783,3228"/>
 <path fill="none" stroke="rgb(183,183,183)" stroke-width="26" stroke-linejoin="round" stroke-dasharray="51,51" d="M 17883,3421 L 2783,3421"/>
 <path fill="none" stroke="rgb(183,183,183)" stroke-width="26" stroke-linejoin="round" stroke-dasharray="51,51" d="M 17883,3614 L 2783,3614"/>
 <path fill="none" stroke="rgb(183,183,183)" stroke-width="26" stroke-linejoin="round" stroke-dasharray="51,51" d="M 17883,4000 L 2783,4000"/>
 <path fill="none" stroke="rgb(183,183,183)" stroke-width="26" stroke-linejoin="round" stroke-dasharray="51,51" d="M 17883,4193 L 2783,4193"/>
 <path fill="none" stroke="rgb(183,183,183)" stroke-width="26" stroke-linejoin="round" stroke-dasharray="51,51" d="M 17883,4386 L 2783,4386"/>
 <path fill="none" stroke="rgb(183,183,183)" stroke-width="26" stroke-linejoin="round" stroke-dasharray="51,51" d="M 17883,4579 L 2783,4579"/>
 <path fill="none" stroke="rgb(183,183,183)" stroke-width="26" stroke-linejoin="round" stroke-dasharray="51,51" d="M 17883,4965 L 2783,4965"/>
 <path fill="none" stroke="rgb(183,183,183)" stroke-width="26" stroke-linejoin="round" stroke-dasharray="51,51" d="M 17883,5158 L 2783,5158"/>
 <path fill="none" stroke="rgb(183,183,183)" stroke-width="26" stroke-linejoin="round" stroke-dasharray="51,51" d="M 17883,5351 L 2783,5351"/>
 <path fill="none" stroke="rgb(183,183,183)" stroke-width="26" stroke-linejoin="round" stroke-dasharray="51,51" d="M 17883,5544 L 2783,5544"/>
 <path fill="none" stroke="rgb(183,183,183)" stroke-width="26" stroke-linejoin="round" stroke-dasharray="51,51" d="M 17883,5930 L 2783,5930"/>
 <path fill="none" stroke="rgb(183,183,183)" stroke-width="26" stroke-linejoin="round" stroke-dasharray="51,51" d="M 17883,6123 L 2783,6123"/>
 <path fill="none" stroke="rgb(183,183,183)" stroke-width="26" stroke-linejoin="round" stroke-dasharray="51,51" d="M 17883,6316 L 2783,6316"/>
 <path fill="none" stroke="rgb(183,183,183)" stroke-width="26" stroke-linejoin="round" stroke-dasharray="51,51" d="M 17883,6509 L 2783,6509"/>
 <path fill="none" stroke="rgb(183,183,183)" stroke-width="26" stroke-linejoin="round" stroke-dasharray="51,51" d="M 17883,6895 L 2783,6895"/>
 <path fill="none" stroke="rgb(183,183,183)" stroke-width="26" stroke-linejoin="round" stroke-dasharray="51,51" d="M 17883,7087 L 2783,7087"/>
 <path fill="none" stroke="rgb(183,183,183)" stroke-width="26" stroke-linejoin="round" stroke-dasharray="51,51" d="M 17883,7280 L 2783,7280"/>
 <path fill="none" stroke="rgb(183,183,183)" stroke-width="26" stroke-linejoin="round" stroke-dasharray="51,51" d="M 17883,7473 L 2783,7473"/>
 <path fill="none" stroke="rgb(183,183,183)" stroke-width="26" stroke-linejoin="round" stroke-dasharray="51,51" d="M 17883,7859 L 2783,7859"/>
 <path fill="none" stroke="rgb(183,183,183)" stroke-width="26" stroke-linejoin="round" stroke-dasharray="51,51" d="M 17883,8052 L 2783,8052"/>
 <path fill="none" stroke="rgb(183,183,183)" stroke-width="26" stroke-linejoin="round" stroke-dasharray="51,51" d="M 17883,8245 L 2783,8245"/>
 <path fill="none" stroke="rgb(183,183,183)" stroke-width="26" stroke-linejoin="round" stroke-dasharray="51,51" d="M 17883,8438 L 2783,8438"/>
 <path fill="none" stroke="rgb(183,183,183)" stroke-width="26" stroke-linejoin="round" stroke-dasharray="51,51" d="M 17883,8824 L 2783,8824"/>
 <path fill="none" stroke="rgb(183,183,183)" stroke-width="26" stroke-linejoin="round" stroke-dasharray="51,51" d="M 17883,9017 L 2783,9017"/>
 <path fill="none" stroke="rgb(183,183,183)" stroke-width="26" stroke-linejoin="round" stroke-dasharray="51,51" d="M 17883,9210 L 2783,9210"/>
 <path fill="none" stroke="rgb(183,183,183)" stroke-width="26" stroke-linejoin="round" stroke-dasharray="51,51" d="M 17883,9403 L 2783,9403"/>
 <path fill="none" stroke="rgb(183,183,183)" stroke-width="26" stroke-linejoin="round" stroke-dasharray="51,51" d="M 17883,9789 L 2783,9789"/>
 <path fill="none" stroke="rgb(183,183,183)" stroke-width="26" stroke-linejoin="round" stroke-dasharray="51,51" d="M 17883,9982 L 2783,9982"/>
 <path fill="none" stroke="rgb(183,183,183)" stroke-width="26" stroke-linejoin="round" stroke-dasharray="51,51" d="M 17883,10175 L 2783,10175"/>
 <path fill="none" stroke="rgb(183,183,183)" stroke-width="26" stroke-linejoin="round" stroke-dasharray="51,51" d="M 17883,10368 L 2783,10368"/>
 <path fill="none" stroke="rgb(183,183,183)" stroke-width="26" stroke-linejoin="round" stroke-dasharray="51,51" d="M 17883,10754 L 2783,10754"/>
 <path fill="none" stroke="rgb(183,183,183)" stroke-width="26" stroke-linejoin="round" stroke-dasharray="51,51" d="M 17883,10947 L 2783,10947"/>
 <path fill="none" stroke="rgb(183,183,183)" stroke-width="26" stroke-linejoin="round" stroke-dasharray="51,51" d="M 17883,11140 L 2783,11140"/>
 <path fill="none" stroke="rgb(183,183,183)" stroke-width="26" stroke-linejoin="round" stroke-dasharray="51,51" d="M 17883,11333 L 2783,11333"/>
 <path fill="none" stroke="rgb(135,135,135)" stroke-width="26" stroke-linejoin="round" d="M 2782,11377 L 2782,11527"/>
 <path fill="none" stroke="rgb(135,135,135)" stroke-width="26" stroke-linejoin="round" d="M 10332,11377 L 10332,11527"/>
 <path fill="none" stroke="rgb(135,135,135)" stroke-width="26" stroke-linejoin="round" d="M 17883,11377 L 17883,11527"/>
 <path fill="none" stroke="rgb(135,135,135)" stroke-width="26" stroke-linejoin="round" d="M 5055,11527 L 5055,11639"/>
 <path fill="none" stroke="rgb(135,135,135)" stroke-width="26" stroke-linejoin="round" d="M 6385,11527 L 6385,11639"/>
 <path fill="none" stroke="rgb(135,135,135)" stroke-width="26" stroke-linejoin="round" d="M 7328,11527 L 7328,11639"/>
 <path fill="none" stroke="rgb(135,135,135)" stroke-width="26" stroke-linejoin="round" d="M 8060,11527 L 8060,11639"/>
 <path fill="none" stroke="rgb(135,135,135)" stroke-width="26" stroke-linejoin="round" d="M 8658,11527 L 8658,11639"/>
 <path fill="none" stroke="rgb(135,135,135)" stroke-width="26" stroke-linejoin="round" d="M 9163,11527 L 9163,11639"/>
 <path fill="none" stroke="rgb(135,135,135)" stroke-width="26" stroke-linejoin="round" d="M 9601,11527 L 9601,11639"/>
 <path fill="none" stroke="rgb(135,135,135)" stroke-width="26" stroke-linejoin="round" d="M 9988,11527 L 9988,11639"/>
 <path fill="none" stroke="rgb(135,135,135)" stroke-width="26" stroke-linejoin="round" d="M 12605,11527 L 12605,11639"/>
 <path fill="none" stroke="rgb(135,135,135)" stroke-width="26" stroke-linejoin="round" d="M 13935,11527 L 13935,11639"/>
 <path fill="none" stroke="rgb(135,135,135)" stroke-width="26" stroke-linejoin="round" d="M 14878,11527 L 14878,11639"/>
 <path fill="none" stroke="rgb(135,135,135)" stroke-width="26" stroke-linejoin="round" d="M 15610,11527 L 15610,11639"/>
 <path fill="none" stroke="rgb(135,135,135)" stroke-width="26" stroke-linejoin="round" d="M 16207,11527 L 16207,11639"/>
 <path fill="none" stroke="rgb(135,135,135)" stroke-width="26" stroke-linejoin="round" d="M 16713,11527 L 16713,11639"/>
 <path fill="none" stroke="rgb(135,135,135)" stroke-width="26" stroke-linejoin="round" d="M 17151,11527 L 17151,11639"/>
 <path fill="none" stroke="rgb(135,135,135)" stroke-width="26" stroke-linejoin="round" d="M 17537,11527 L 17537,11639"/>
 <path fill="none" stroke="rgb(135,135,135)" stroke-width="26" stroke-linejoin="round" d="M 2783,11527 L 17883,11527"/>
 <path fill="none" stroke="rgb(135,135,135)" stroke-width="44" stroke-linejoin="round" d="M 2633,1877 L 2783,1877"/>
 <path fill="none" stroke="rgb(135,135,135)" stroke-width="44" stroke-linejoin="round" d="M 2633,2842 L 2783,2842"/>
 <path fill="none" stroke="rgb(135,135,135)" stroke-width="44" stroke-linejoin="round" d="M 2633,3807 L 2783,3807"/>
 <path fill="none" stroke="rgb(135,135,135)" stroke-width="44" stroke-linejoin="round" d="M 2633,4772 L 2783,4772"/>
 <path fill="none" stroke="rgb(135,135,135)" stroke-width="44" stroke-linejoin="round" d="M 2633,5737 L 2783,5737"/>
 <path fill="none" stroke="rgb(135,135,135)" stroke-width="44" stroke-linejoin="round" d="M 2633,6702 L 2783,6702"/>
 <path fill="none" stroke="rgb(135,135,135)" stroke-width="44" stroke-linejoin="round" d="M 2633,7666 L 2783,7666"/>
 <path fill="none" stroke="rgb(135,135,135)" stroke-width="44" stroke-linejoin="round" d="M 2633,8631 L 2783,8631"/>
 <path fill="none" stroke="rgb(135,135,135)" stroke-width="44" stroke-linejoin="round" d="M 2633,9596 L 2783,9596"/>
 <path fill="none" stroke="rgb(135,135,135)" stroke-width="44" stroke-linejoin="round" d="M 2633,10561 L 2783,10561"/>
 <path fill="none" stroke="rgb(135,135,135)" stroke-width="44" stroke-linejoin="round" d="M 2633,11527 L 2783,11527"/>
 <path fill="none" stroke="rgb(135,135,135)" stroke-width="44" stroke-linejoin="round" d="M 2783,11527 L 2783,1877"/>
 <path fill="none" stroke="rgb(0,69,134)" stroke-width="79" stroke-linejoin="round" d="M 2783,9266 L 2863,9224 2957,9174 3047,9125 3133,9077 3217,9030 3298,8983 3376,8937 3452,8892 3525,8847 3597,8802 3666,8759 3733,8715 3798,8672 3862,8630 3924,8588 3985,8546 4045,8505 4103,8464 4161,8423 4218,8382 4275,8342 4331,8302 4386,8262 4441,8223 4496,8183 4550,8144 4604,8105 4657,8066 4710,8028 4762,7989 4814,7951 4865,7913 4915,7875 4966,7838 5015,7800 5064,7763 5112,7726 5160,7689 5208,7653 5254,7616 5300,7580 5346,7544 5391,7508 5435,7473 5479,7437 5522,7402 5564,7367 5607,7332 5648,7298 5689,7263 5730,7229 5770,7194 5810,7160 5850,7127 5889,7093 5927,7059 5965,7026 6003,6992 6041,6959 6078,6926 6115,6894 6152,6861 6188,6829 6224,6796 6260,6764 6295,6731 6330,6699 6365,6667 6400,6635 6435,6603 6469,6571 6503,6540 6536,6508 6570,6476 6603,6445 6636,6414 6668,6383 6701,6352 6733,6321 6765,6290 6796,6259 6828,6228 6859,6198 6890,6167 6921,6137 6951,6107 6982,6076 7012,6046 7042,6016 7072,5986 7101,5956 7130,5926 7159,5897 7188,5867 7217,5838 7246,5808 7274,5779 7302,5749 7330,5720 7358,5691 7386,5662 7414,5633 7441,5604 7468,5575 7495,5546 7522,5517 7549,5489 7576,5460 7602,5432 7628,5403 7655,5375 7681,5346 7707,5318 7732,5290 7758,5262 7783,5233 7809,5205 7834,5177 7859,5150 7884,5122 7909,5094 7933,5066 7958,5038 7982,5011 8007,4983 8031,4956 8055,4928 8079,4901 8103,4873 8127,4846 8150,4819 8174,4792 8197,4764 8220,4737 8244,4710 8267,4683 8290,4656 8313,4629 8335,4603 8358,4576 8381,4549 8403,4522 8425,4496 8448,4469 8470,4442 8492,4416 8514,4389 8536,4363 8557,4336 8579,4310 8601,4284 8622,4257 8644,4231 8665,4205 8686,4179 8708,4153 8729,4127 8750,4101 8771,4075 8791,4049 8812,4023 8833,3997 8853,3971 8874,3945 8894,3919 8915,3894 8935,3868 8955,3842 8975,3817 8995,3791 9015,3765 9035,3740 9055,3714 9075,3689 9095,3664 9114,3638 9134,3613 9153,3587 9173,3562 9192,3537 9211,3512 9231,3487 9250,3461 9269,3436 9288,3411 9307,3386 9326,3361 9345,3336 9364,3311 9382,3286 9401,3261 9419,3236 9438,3211 9457,3187 9475,3162 9493,3137 9512,3112 9530,3088 9548,3063 9566,3038 9584,3014 9602,2989 9620,2964 9638,2940 9656,2915 9674,2891 9692,2866 9709,2842 9727,2817 9745,2793 9762,2769 9780,2744 9797,2720 9814,2696 9832,2671 9849,2647 9866,2623 9883,2599 9901,2575 9918,2550 9935,2526 9952,2502 9969,2478 9986,2454 10003,2430 10019,2406 10036,2382 10053,2358 10070,2334 10086,2310 10102,2286 10118,2262 10135,2238 10151,2215 10168,2191 10184,2167 10201,2143 10217,2119 10233,2096 10249,2072 10266,2048 10282,2025 10298,2001 10314,1977 10330,1954 10346,1930 10362,1906 10378,1883 10382,1877"/>
 <path fill="none" stroke="rgb(255,66,14)" stroke-width="79" stroke-linejoin="round" d="M 2783,9635 L 2863,9597 2957,9553 3047,9510 3133,9467 3217,9425 3298,9383 3376,9342 3452,9301 3525,9261 3597,9221 3666,9181 3733,9142 3798,9104 3862,9066 3924,9028 3985,8990 4045,8953 4103,8916 4161,8879 4218,8843 4275,8806 4331,8770 4386,8734 4441,8699 4496,8663 4550,8628 4604,8593 4657,8558 4710,8523 4762,8489 4814,8454 4865,8420 4915,8386 4966,8352 5015,8319 5064,8285 5112,8252 5160,8219 5208,8186 5254,8153 5300,8121 5346,8089 5391,8056 5435,8024 5479,7993 5522,7961 5564,7929 5607,7898 5648,7867 5689,7836 5730,7805 5770,7774 5810,7743 5850,7713 5889,7682 5927,7652 5965,7622 6003,7592 6041,7562 6078,7532 6115,7503 6152,7473 6188,7444 6224,7414 6260,7385 6295,7356 6330,7327 6365,7298 6400,7269 6435,7241 6469,7212 6503,7184 6536,7155 6570,7127 6603,7099 6636,7070 6668,7042 6701,7014 6733,6987 6765,6959 6796,6931 6828,6904 6859,6877 6890,6850 6921,6822 6951,6795 6982,6768 7012,6741 7042,6714 7072,6687 7101,6660 7130,6633 7159,6606 7188,6579 7217,6553 7246,6526 7274,6500 7302,6473 7330,6447 7358,6421 7386,6395 7414,6369 7441,6342 7468,6316 7495,6291 7522,6265 7549,6239 7576,6213 7602,6187 7628,6162 7655,6136 7681,6111 7707,6085 7732,6060 7758,6034 7783,6009 7809,5984 7834,5959 7859,5934 7884,5909 7909,5883 7933,5859 7958,5834 7982,5809 8007,5784 8031,5759 8055,5734 8079,5710 8103,5685 8127,5660 8150,5636 8174,5611 8197,5587 8220,5563 8244,5538 8267,5514 8290,5490 8313,5465 8335,5441 8358,5417 8381,5393 8403,5369 8425,5345 8448,5321 8470,5297 8492,5273 8514,5249 8536,5226 8557,5202 8579,5178 8601,5154 8622,5131 8644,5107 8665,5083 8686,5060 8708,5036 8729,5013 8750,4990 8771,4966 8791,4943 8812,4919 8833,4896 8853,4873 8874,4850 8894,4826 8915,4803 8935,4780 8955,4757 8975,4734 8995,4711 9015,4688 9035,4665 9055,4642 9075,4619 9095,4596 9114,4573 9134,4551 9153,4528 9173,4505 9192,4482 9211,4460 9231,4437 9250,4414 9269,4392 9288,4369 9307,4346 9326,4324 9345,4301 9364,4279 9382,4257 9401,4234 9419,4212 9438,4189 9457,4167 9475,4145 9493,4122 9512,4100 9530,4078 9548,4056 9566,4033 9584,4011 9602,3989 9620,3967 9638,3945 9656,3923 9674,3901 9692,3879 9709,3857 9727,3835 9745,3813 9762,3791 9780,3769 9797,3747 9814,3725 9832,3703 9849,3682 9866,3660 9883,3638 9901,3616 9918,3594 9935,3573 9952,3551 9969,3529 9986,3508 10003,3486 10019,3464 10036,3443 10053,3421 10070,3400 10086,3378 10102,3357 10118,3335 10135,3314 10151,3292 10168,3271 10184,3249 10201,3228 10217,3207 10233,3185 10249,3164 10266,3142 10282,3121 10298,3100 10314,3079 10330,3057 10346,3036 10362,3015 10378,2994 10394,2972 10409,2951 10425,2930 10441,2909 10457,2888 10472,2867 10488,2846 10504,2825 10519,2803 10535,2782 10550,2761 10566,2740 10581,2719 10597,2698 10612,2677 10627,2656 10642,2636 10658,2615 10673,2594 10688,2573 10703,2552 10718,2531 10734,2510 10749,2489 10764,2469 10779,2448 10794,2427 10809,2406 10823,2385 10838,2365 10853,2344 10868,2323 10883,2302 10897,2282 10912,2261 10927,2240 10942,2220 10956,2199 10971,2178 10985,2158 11000,2137 11014,2117 11029,2096 11043,2076 11058,2055 11072,2034 11087,2014 11101,1993 11115,1973 11129,1952 11144,1932 11158,1911 11172,1891 11182,1877"/>
 <path fill="none" stroke="rgb(255,211,32)" stroke-width="79" stroke-linejoin="round" d="M 2783,10000 L 2863,9967 2957,9929 3047,9891 3133,9854 3217,9817 3298,9781 3376,9744 3452,9708 3525,9673 3597,9638 3666,9603 3733,9568 3798,9534 3862,9500 3924,9467 3985,9433 4045,9400 4103,9367 4161,9334 4218,9302 4275,9270 4331,9238 4386,9206 4441,9174 4496,9142 4550,9111 4604,9080 4657,9049 4710,9018 4762,8988 4814,8957 4865,8927 4915,8897 4966,8867 5015,8837 5064,8807 5112,8778 5160,8749 5208,8719 5254,8690 5300,8661 5346,8633 5391,8604 5435,8576 5479,8548 5522,8519 5564,8491 5607,8464 5648,8436 5689,8408 5730,8381 5770,8353 5810,8326 5850,8299 5889,8272 5927,8245 5965,8218 6003,8192 6041,8165 6078,8139 6115,8112 6152,8086 6188,8060 6224,8034 6260,8008 6295,7982 6330,7956 6365,7930 6400,7905 6435,7879 6469,7854 6503,7829 6536,7803 6570,7778 6603,7753 6636,7728 6668,7703 6701,7678 6733,7653 6765,7629 6796,7604 6828,7580 6859,7555 6890,7531 6921,7506 6951,7482 6982,7458 7012,7434 7042,7410 7072,7386 7101,7362 7130,7338 7159,7314 7188,7291 7217,7267 7246,7244 7274,7220 7302,7197 7330,7173 7358,7150 7386,7127 7414,7103 7441,7080 7468,7057 7495,7034 7522,7011 7549,6988 7576,6965 7602,6942 7628,6919 7655,6898 7681,6875 7707,6852 7732,6830 7758,6807 7783,6785 7809,6762 7834,6740 7859,6718 7884,6695 7909,6673 7933,6651 7958,6629 7982,6607 8007,6585 8031,6563 8055,6541 8079,6519 8103,6497 8127,6475 8150,6453 8174,6431 8197,6410 8220,6388 8244,6366 8267,6345 8290,6323 8313,6302 8335,6280 8358,6259 8381,6237 8403,6216 8425,6194 8448,6173 8470,6152 8492,6131 8514,6109 8536,6088 8557,6067 8579,6046 8601,6025 8622,6004 8644,5983 8665,5962 8686,5941 8708,5920 8729,5899 8750,5878 8771,5858 8791,5837 8812,5816 8833,5795 8853,5775 8874,5754 8894,5734 8915,5713 8935,5692 8955,5672 8975,5651 8995,5631 9015,5610 9035,5590 9055,5570 9075,5549 9095,5529 9114,5509 9134,5488 9153,5468 9173,5448 9192,5428 9211,5407 9231,5387 9250,5367 9269,5347 9288,5327 9307,5307 9326,5287 9345,5267 9364,5247 9382,5227 9401,5207 9419,5187 9438,5167 9457,5147 9475,5128 9493,5108 9512,5088 9530,5068 9548,5048 9566,5029 9584,5009 9602,4989 9620,4970 9638,4950 9656,4930 9674,4911 9692,4891 9709,4872 9727,4852 9745,4833 9762,4813 9780,4794 9797,4774 9814,4755 9832,4735 9849,4716 9866,4696 9883,4677 9901,4658 9918,4638 9935,4619 9952,4600 9969,4581 9986,4561 10003,4542 10019,4523 10036,4504 10053,4484 10070,4465 10086,4446 10102,4427 10118,4408 10135,4389 10151,4370 10168,4351 10184,4332 10201,4313 10217,4294 10233,4275 10249,4256 10266,4237 10282,4218 10298,4199 10314,4180 10330,4161 10346,4142 10362,4123 10378,4104 10394,4086 10409,4067 10425,4048 10441,4029 10457,4010 10472,3992 10488,3973 10504,3954 10519,3935 10535,3917 10550,3898 10566,3879 10581,3861 10597,3842 10612,3823 10627,3805 10642,3786 10658,3767 10673,3749 10688,3730 10703,3712 10718,3693 10734,3675 10749,3656 10764,3638 10779,3619 10794,3601 10809,3582 10823,3564 10838,3545 10853,3527 10868,3508 10883,3490 10897,3472 10912,3453 10927,3435 10942,3416 10956,3398 10971,3380 10985,3361 11000,3343 11014,3325 11029,3307 11043,3288 11058,3270 11072,3252 11087,3233 11101,3215 11115,3197 11129,3179 11144,3161 11158,3142 11172,3124 11186,3106 11200,3088 11215,3070 11229,3052 11243,3033 11257,3015 11271,2997 11285,2979 11299,2961 11313,2943 11327,2925 11341,2907 11354,2889 11368,2871 11382,2853 11396,2835 11410,2817 11423,2799 11437,2781 11451,2763 11464,2745 11478,2727 11492,2709 11505,2691 11519,2673 11533,2655 11546,2637 11560,2619 11573,2601 11587,2583 11600,2565 11613,2547 11627,2529 11640,2512 11654,2494 11667,2476 11680,2458 11693,2440 11707,2422 11720,2405 11733,2387 11746,2369 11760,2351 11773,2333 11786,2316 11799,2298 11812,2280 11825,2262 11838,2245 11851,2227 11864,2209 11877,2191 11890,2174 11903,2156 11916,2138 11929,2121 11942,2103 11955,2085 11968,2068 11981,2050 11993,2032 12006,2015 12019,1997 12032,1979 12045,1962 12057,1944 12070,1926 12083,1909 12095,1891 12106,1877"/>
 <path fill="none" stroke="rgb(87,157,28)" stroke-width="79" stroke-linejoin="round" d="M 2783,10355 L 2863,10328 2957,10297 3047,10265 3133,10234 3217,10202 3298,10171 3376,10141 3452,10110 3525,10080 3597,10050 3666,10020 3733,9990 3798,9960 3862,9931 3924,9902 3985,9873 4045,9844 4103,9815 4161,9787 4218,9758 4275,9730 4331,9702 4386,9674 4441,9647 4496,9619 4550,9592 4604,9565 4657,9538 4710,9511 4762,9485 4814,9458 4865,9432 4915,9406 4966,9380 5015,9354 5064,9328 5112,9302 5160,9277 5208,9252 5254,9226 5300,9201 5346,9176 5391,9151 5435,9126 5479,9102 5522,9077 5564,9053 5607,9028 5648,9004 5689,8980 5730,8956 5770,8932 5810,8908 5850,8885 5889,8861 5927,8838 5965,8814 6003,8791 6041,8768 6078,8744 6115,8721 6152,8698 6188,8676 6224,8653 6260,8630 6295,8607 6330,8585 6365,8562 6400,8540 6435,8518 6469,8496 6503,8473 6536,8451 6570,8429 6603,8407 6636,8385 6668,8364 6701,8342 6733,8320 6765,8299 6796,8277 6828,8256 6859,8234 6890,8213 6921,8192 6951,8170 6982,8149 7012,8128 7042,8107 7072,8086 7101,8065 7130,8045 7159,8024 7188,8003 7217,7982 7246,7962 7274,7941 7302,7921 7330,7900 7358,7880 7386,7859 7414,7839 7441,7819 7468,7798 7495,7778 7522,7758 7549,7738 7576,7718 7602,7698 7628,7678 7655,7658 7681,7638 7707,7619 7732,7599 7758,7579 7783,7559 7809,7540 7834,7520 7859,7501 7884,7481 7909,7462 7933,7442 7958,7423 7982,7404 8007,7384 8031,7365 8055,7346 8079,7327 8103,7307 8127,7288 8150,7269 8174,7250 8197,7231 8220,7212 8244,7193 8267,7174 8290,7155 8313,7137 8335,7118 8358,7099 8381,7080 8403,7062 8425,7043 8448,7024 8470,7006 8492,6987 8514,6969 8536,6950 8557,6932 8579,6914 8601,6896 8622,6877 8644,6859 8665,6841 8686,6822 8708,6804 8729,6786 8750,6767 8771,6749 8791,6731 8812,6713 8833,6695 8853,6677 8874,6659 8894,6641 8915,6623 8935,6605 8955,6587 8975,6569 8995,6551 9015,6533 9035,6515 9055,6497 9075,6479 9095,6462 9114,6444 9134,6426 9153,6408 9173,6391 9192,6373 9211,6355 9231,6338 9250,6320 9269,6302 9288,6285 9307,6267 9326,6250 9345,6232 9364,6215 9382,6197 9401,6180 9419,6162 9438,6145 9457,6128 9475,6110 9493,6093 9512,6076 9530,6058 9548,6041 9566,6024 9584,6007 9602,5989 9620,5972 9638,5955 9656,5938 9674,5921 9692,5904 9709,5886 9727,5869 9745,5852 9762,5835 9780,5818 9797,5801 9814,5784 9832,5767 9849,5750 9866,5733 9883,5716 9901,5699 9918,5682 9935,5666 9952,5649 9969,5632 9986,5615 10003,5598 10019,5581 10036,5564 10053,5548 10070,5531 10086,5514 10102,5497 10118,5481 10135,5464 10151,5447 10168,5431 10184,5414 10201,5397 10217,5381 10233,5364 10249,5347 10266,5331 10282,5314 10298,5298 10314,5281 10330,5265 10346,5248 10362,5232 10378,5215 10394,5199 10409,5182 10425,5166 10441,5149 10457,5133 10472,5116 10488,5100 10504,5084 10519,5067 10535,5051 10550,5034 10566,5018 10581,5002 10597,4985 10612,4969 10627,4953 10642,4937 10658,4920 10673,4904 10688,4888 10703,4872 10718,4855 10734,4839 10749,4823 10764,4807 10779,4791 10794,4774 10809,4758 10823,4742 10838,4726 10853,4710 10868,4694 10883,4678 10897,4661 10912,4645 10927,4629 10942,4613 10956,4597 10971,4581 10985,4565 11000,4549 11014,4533 11029,4517 11043,4501 11058,4485 11072,4469 11087,4453 11101,4437 11115,4421 11129,4405 11144,4389 11158,4373 11172,4357 11186,4342 11200,4326 11215,4310 11229,4294 11243,4278 11257,4262 11271,4246 11285,4230 11299,4215 11313,4199 11327,4183 11341,4167 11354,4151 11368,4136 11382,4120 11396,4104 11410,4088 11423,4073 11437,4057 11451,4041 11464,4025 11478,4010 11492,3994 11505,3978 11519,3962 11533,3947 11546,3931 11560,3915 11573,3900 11587,3884 11600,3868 11613,3853 11627,3837 11640,3821 11654,3806 11667,3790 11680,3775 11693,3759 11707,3743 11720,3728 11733,3712 11746,3697 11760,3681 11773,3666 11786,3650 11799,3634 11812,3619 11825,3603 11838,3588 11851,3572 11864,3557 11877,3541 11890,3526 11903,3510 11916,3495 11929,3479 11942,3464 11955,3448 11968,3433 11981,3417 11993,3402 12006,3387 12019,3371 12032,3356 12045,3340 12057,3325 12070,3309 12083,3294 12095,3279 12108,3263 12121,3248 12133,3232 12146,3217 12159,3202 12171,3186 12184,3171 12196,3156 12209,3140 12221,3125 12234,3110 12246,3094 12259,3079 12271,3064 12284,3048 12296,3033 12308,3018 12321,3002 12333,2987 12345,2972 12358,2956 12370,2941 12382,2926 12395,2911 12407,2895 12419,2880 12431,2865 12444,2850 12456,2834 12468,2819 12480,2804 12492,2789 12504,2773 12516,2758 12529,2743 12541,2728 12553,2713 12565,2697 12577,2682 12589,2667 12601,2652 12613,2637 12625,2621 12637,2606 12649,2591 12661,2576 12673,2561 12685,2546 12696,2530 12708,2515 12720,2500 12732,2485 12744,2470 12756,2455 12767,2440 12779,2424 12791,2409 12803,2394 12815,2379 12826,2364 12838,2349 12850,2334 12861,2319 12873,2304 12885,2289 12897,2274 12908,2258 12920,2243 12931,2228 12943,2213 12955,2198 12966,2183 12978,2168 12989,2153 13001,2138 13012,2123 13024,2108 13036,2093 13047,2078 13059,2063 13070,2048 13081,2033 13093,2018 13104,2003 13116,1988 13127,1973 13139,1958 13150,1943 13161,1928 13173,1913 13184,1898 13195,1883 13200,1877"/>
 <path fill="none" stroke="rgb(126,0,33)" stroke-width="79" stroke-linejoin="round" d="M 2783,10690 L 2863,10669 2957,10644 3047,10620 3133,10595 3217,10570 3298,10546 3376,10521 3452,10496 3525,10472 3597,10447 3666,10423 3733,10398 3798,10374 3862,10350 3924,10326 3985,10302 4045,10278 4103,10254 4161,10230 4218,10206 4275,10183 4331,10159 4386,10136 4441,10113 4496,10090 4550,10067 4604,10044 4657,10022 4710,9999 4762,9977 4814,9954 4865,9932 4915,9910 4966,9888 5015,9867 5064,9845 5112,9823 5160,9802 5208,9780 5254,9759 5300,9738 5346,9716 5391,9695 5435,9674 5479,9653 5522,9632 5564,9612 5607,9591 5648,9570 5689,9550 5730,9529 5770,9509 5810,9489 5850,9469 5889,9448 5927,9428 5965,9408 6003,9389 6041,9369 6078,9349 6115,9329 6152,9310 6188,9290 6224,9271 6260,9251 6295,9232 6330,9213 6365,9193 6400,9174 6435,9155 6469,9136 6503,9117 6536,9098 6570,9080 6603,9061 6636,9042 6668,9024 6701,9005 6733,8986 6765,8968 6796,8950 6828,8931 6859,8913 6890,8895 6921,8876 6951,8858 6982,8840 7012,8822 7042,8804 7072,8786 7101,8768 7130,8750 7159,8733 7188,8715 7217,8697 7246,8679 7274,8662 7302,8644 7330,8627 7358,8609 7386,8592 7414,8574 7441,8557 7468,8540 7495,8522 7522,8505 7549,8488 7576,8471 7602,8454 7628,8437 7655,8420 7681,8403 7707,8386 7732,8369 7758,8352 7783,8335 7809,8318 7834,8301 7859,8285 7884,8268 7909,8251 7933,8235 7958,8218 7982,8201 8007,8185 8031,8168 8055,8152 8079,8135 8103,8119 8127,8103 8150,8086 8174,8070 8197,8054 8220,8037 8244,8021 8267,8005 8290,7989 8313,7973 8335,7957 8358,7940 8381,7924 8403,7908 8425,7892 8448,7876 8470,7860 8492,7844 8514,7829 8536,7813 8557,7797 8579,7781 8601,7765 8622,7749 8644,7734 8665,7718 8686,7702 8708,7687 8729,7671 8750,7655 8771,7640 8791,7624 8812,7609 8833,7593 8853,7578 8874,7562 8894,7547 8915,7531 8935,7516 8955,7500 8975,7485 8995,7470 9015,7454 9035,7439 9055,7424 9075,7408 9095,7393 9114,7378 9134,7363 9153,7348 9173,7332 9192,7317 9211,7302 9231,7287 9250,7272 9269,7257 9288,7242 9307,7227 9326,7212 9345,7197 9364,7182 9382,7167 9401,7152 9419,7137 9438,7122 9457,7107 9475,7092 9493,7077 9512,7062 9530,7048 9548,7033 9566,7018 9584,7003 9602,6988 9620,6974 9638,6959 9656,6944 9674,6930 9692,6916 9709,6901 9727,6887 9745,6872 9762,6857 9780,6843 9797,6828 9814,6814 9832,6799 9849,6784 9866,6770 9883,6755 9901,6741 9918,6726 9935,6712 9952,6697 9969,6683 9986,6669 10003,6654 10019,6640 10036,6625 10053,6611 10070,6597 10086,6582 10102,6568 10118,6554 10135,6539 10151,6525 10168,6511 10184,6496 10201,6482 10217,6468 10233,6454 10249,6439 10266,6425 10282,6411 10298,6397 10314,6382 10330,6368 10346,6354 10362,6340 10378,6326 10394,6312 10409,6298 10425,6283 10441,6269 10457,6255 10472,6241 10488,6227 10504,6213 10519,6199 10535,6185 10550,6171 10566,6157 10581,6143 10597,6129 10612,6115 10627,6101 10642,6087 10658,6073 10673,6059 10688,6045 10703,6031 10718,6017 10734,6004 10749,5990 10764,5976 10779,5962 10794,5948 10809,5934 10823,5920 10838,5907 10853,5893 10868,5879 10883,5865 10897,5851 10912,5837 10927,5824 10942,5810 10956,5796 10971,5782 10985,5769 11000,5755 11014,5741 11029,5727 11043,5714 11058,5700 11072,5686 11087,5673 11101,5659 11115,5645 11129,5632 11144,5618 11158,5604 11172,5591 11186,5577 11200,5563 11215,5550 11229,5536 11243,5523 11257,5509 11271,5495 11285,5482 11299,5468 11313,5455 11327,5441 11341,5428 11354,5414 11368,5401 11382,5387 11396,5373 11410,5360 11423,5346 11437,5333 11451,5319 11464,5306 11478,5293 11492,5279 11505,5266 11519,5252 11533,5239 11546,5225 11560,5212 11573,5198 11587,5185 11600,5171 11613,5158 11627,5145 11640,5131 11654,5118 11667,5104 11680,5091 11693,5078 11707,5064 11720,5051 11733,5038 11746,5024 11760,5011 11773,4998 11786,4984 11799,4971 11812,4958 11825,4944 11838,4931 11851,4918 11864,4904 11877,4891 11890,4878 11903,4865 11916,4851 11929,4838 11942,4825 11955,4811 11968,4798 11981,4785 11993,4772 12006,4758 12019,4745 12032,4732 12045,4719 12057,4706 12070,4692 12083,4679 12095,4666 12108,4653 12121,4640 12133,4626 12146,4613 12159,4600 12171,4587 12184,4574 12196,4561 12209,4547 12221,4534 12234,4521 12246,4508 12259,4495 12271,4482 12284,4469 12296,4455 12308,4442 12321,4429 12333,4416 12345,4403 12358,4390 12370,4377 12382,4364 12395,4351 12407,4337 12419,4324 12431,4311 12444,4298 12456,4285 12468,4272 12480,4259 12492,4246 12504,4233 12516,4220 12529,4207 12541,4194 12553,4181 12565,4168 12577,4155 12589,4142 12601,4129 12613,4116 12625,4103 12637,4090 12649,4077 12661,4064 12673,4051 12685,4038 12696,4025 12708,4012 12720,3999 12732,3986 12744,3973 12756,3960 12767,3947 12779,3934 12791,3921 12803,3908 12815,3895 12826,3882 12838,3869 12850,3856 12861,3843 12873,3830 12885,3817 12897,3804 12908,3792 12920,3779 12931,3766 12943,3753 12955,3740 12966,3727 12978,3714 12989,3701 13001,3688 13012,3675 13024,3663 13036,3650 13047,3637 13059,3624 13070,3611 13081,3598 13093,3585 13104,3572 13116,3560 13127,3547 13139,3534 13150,3521 13161,3508 13173,3495 13184,3482 13195,3470 13207,3457 13218,3444 13229,3431 13241,3418 13252,3405 13263,3393 13275,3380 13286,3367 13297,3354 13308,3341 13319,3329 13331,3316 13342,3303 13353,3290 13364,3277 13375,3265 13387,3252 13398,3239 13409,3226 13420,3213 13442,3188 13453,3175 13464,3162 13475,3149 13487,3137 13498,3124 13509,3111 13520,3098 13531,3086 13542,3073 13553,3060 13564,3047 13575,3035 13586,3022 13597,3009 13608,2996 13618,2984 13629,2971 13640,2958 13651,2945 13662,2933 13673,2920 13684,2907 13695,2895 13706,2882 13716,2869 13727,2856 13738,2844 13749,2831 13760,2818 13771,2806 13781,2793 13792,2780 13803,2767 13814,2755 13825,2742 13835,2729 13846,2717 13857,2704 13867,2691 13878,2679 13889,2666 13900,2653 13910,2641 13921,2628 13932,2615 13942,2603 13953,2590 13964,2577 13974,2565 13985,2552 13996,2539 14006,2527 14017,2514 14027,2501 14038,2489 14048,2476 14059,2463 14070,2451 14080,2438 14091,2425 14101,2413 14112,2400 14122,2387 14133,2375 14143,2362 14154,2350 14164,2337 14175,2324 14185,2312 14196,2299 14206,2286 14227,2261 14238,2249 14248,2236 14258,2223 14269,2211 14279,2198 14290,2186 14300,2173 14310,2160 14321,2148 14331,2135 14341,2122 14352,2110 14362,2097 14372,2085 14383,2072 14393,2060 14403,2047 14414,2034 14424,2022 14434,2009 14445,1997 14455,1984 14465,1971 14475,1959 14486,1946 14496,1934 14506,1921 14516,1909 14527,1896 14537,1883 14542,1877"/>
 <path fill="none" stroke="rgb(131,202,255)" stroke-width="79" stroke-linejoin="round" d="M 2783,10983 L 2863,10969 2957,10952 3047,10935 3133,10918 3217,10900 3298,10883 3376,10865 3452,10847 3525,10829 3597,10811 3666,10793 3733,10775 3798,10757 3862,10739 3924,10721 3985,10703 4045,10685 4103,10667 4161,10648 4218,10630 4275,10612 4331,10594 4386,10576 4441,10558 4496,10541 4550,10523 4604,10505 4657,10487 4710,10470 4762,10452 4814,10435 4865,10417 4915,10400 4966,10383 5015,10365 5064,10348 5112,10331 5160,10314 5208,10296 5254,10279 5300,10262 5346,10245 5391,10228 5435,10211 5479,10195 5522,10178 5564,10161 5607,10144 5648,10128 5689,10111 5730,10094 5770,10078 5810,10061 5850,10045 5889,10029 5927,10012 5965,9996 6003,9980 6041,9963 6078,9947 6115,9931 6152,9915 6188,9899 6224,9883 6260,9867 6295,9851 6330,9836 6365,9820 6400,9804 6435,9788 6469,9773 6503,9757 6536,9742 6570,9726 6603,9711 6636,9695 6668,9680 6701,9665 6733,9649 6765,9634 6796,9619 6828,9604 6859,9589 6890,9574 6921,9558 6951,9543 6982,9528 7012,9514 7042,9499 7072,9484 7101,9469 7130,9454 7159,9439 7188,9425 7217,9410 7246,9395 7274,9381 7302,9366 7330,9352 7358,9337 7386,9323 7414,9308 7441,9294 7468,9279 7495,9265 7522,9251 7549,9237 7576,9222 7602,9208 7628,9194 7655,9180 7681,9166 7707,9152 7732,9138 7758,9123 7783,9109 7809,9095 7834,9082 7859,9068 7884,9054 7909,9040 7933,9026 7958,9012 7982,8998 8007,8985 8031,8971 8055,8957 8079,8944 8103,8930 8127,8916 8150,8903 8174,8889 8197,8876 8220,8862 8244,8849 8267,8835 8290,8822 8313,8808 8335,8795 8358,8781 8381,8768 8403,8755 8425,8741 8448,8728 8470,8715 8492,8701 8514,8688 8536,8675 8557,8662 8579,8649 8601,8636 8622,8622 8644,8609 8665,8596 8686,8583 8708,8570 8729,8557 8750,8544 8771,8531 8791,8518 8812,8505 8833,8492 8853,8479 8874,8466 8894,8453 8915,8441 8935,8428 8955,8415 8975,8402 8995,8389 9015,8377 9035,8364 9055,8351 9075,8338 9095,8326 9114,8313 9134,8300 9153,8288 9173,8275 9192,8262 9211,8250 9231,8237 9250,8225 9269,8212 9288,8200 9307,8187 9326,8174 9345,8162 9364,8150 9382,8137 9401,8125 9419,8112 9438,8100 9457,8087 9475,8075 9493,8063 9512,8050 9530,8038 9548,8025 9566,8013 9584,8001 9602,7989 9620,7976 9638,7964 9656,7952 9674,7939 9692,7927 9709,7915 9727,7903 9745,7891 9762,7878 9780,7866 9797,7854 9814,7842 9832,7830 9849,7818 9866,7806 9883,7793 9901,7781 9918,7769 9935,7757 9952,7745 9969,7733 9986,7721 10003,7709 10019,7697 10036,7685 10053,7673 10070,7661 10086,7649 10102,7637 10118,7625 10135,7613 10151,7601 10168,7589 10184,7578 10201,7566 10217,7554 10233,7542 10249,7530 10266,7518 10282,7506 10298,7495 10314,7483 10330,7471 10346,7459 10362,7447 10378,7436 10394,7424 10409,7412 10425,7400 10441,7389 10457,7377 10472,7365 10488,7353 10504,7342 10519,7330 10535,7318 10550,7307 10566,7295 10581,7283 10597,7272 10612,7260 10627,7248 10642,7237 10658,7225 10673,7213 10688,7202 10703,7190 10718,7179 10734,7167 10749,7155 10764,7144 10779,7132 10794,7121 10809,7109 10823,7098 10838,7086 10853,7075 10868,7063 10883,7052 10897,7040 10912,7029 10927,7017 10942,7006 10956,6994 10971,6983 10985,6971 11000,6960 11014,6948 11029,6937 11043,6925 11058,6915 11072,6904 11087,6892 11101,6881 11115,6869 11129,6858 11144,6847 11158,6835 11172,6824 11186,6813 11200,6801 11215,6790 11229,6779 11243,6767 11257,6756 11271,6745 11285,6733 11299,6722 11313,6711 11327,6699 11341,6688 11354,6677 11368,6665 11382,6654 11396,6643 11410,6632 11423,6620 11437,6609 11451,6598 11464,6587 11478,6575 11492,6564 11505,6553 11519,6542 11533,6531 11546,6519 11560,6508 11573,6497 11587,6486 11600,6475 11613,6463 11627,6452 11640,6441 11654,6430 11667,6419 11680,6408 11693,6396 11707,6385 11720,6374 11733,6363 11746,6352 11760,6341 11773,6330 11786,6319 11799,6307 11812,6296 11825,6285 11838,6274 11851,6263 11864,6252 11877,6241 11890,6230 11903,6219 11916,6208 11929,6197 11942,6186 11955,6175 11968,6164 11981,6152 11993,6141 12006,6130 12019,6119 12032,6108 12045,6097 12057,6086 12070,6075 12083,6064 12095,6053 12108,6042 12121,6031 12133,6020 12146,6009 12159,5998 12171,5987 12184,5976 12196,5965 12209,5954 12221,5944 12234,5933 12246,5922 12259,5911 12271,5900 12284,5889 12296,5878 12308,5867 12321,5856 12333,5845 12345,5834 12358,5823 12370,5812 12382,5801 12395,5790 12407,5780 12419,5769 12431,5758 12444,5747 12456,5736 12468,5725 12480,5714 12492,5703 12504,5692 12516,5682 12529,5671 12541,5660 12553,5649 12565,5638 12577,5627 12589,5616 12601,5606 12613,5595 12625,5584 12637,5573 12649,5562 12661,5551 12673,5541 12685,5530 12696,5519 12708,5508 12720,5497 12732,5486 12744,5476 12767,5454 12779,5443 12791,5432 12803,5422 12815,5411 12826,5400 12838,5389 12850,5379 12861,5368 12873,5357 12885,5346 12897,5335 12908,5325 12920,5314 12931,5303 12943,5292 12955,5282 12966,5271 12978,5260 12989,5249 13001,5239 13012,5228 13024,5217 13036,5206 13047,5196 13059,5185 13070,5174 13081,5163 13093,5153 13104,5142 13116,5131 13139,5110 13150,5099 13161,5088 13173,5078 13195,5056 13207,5046 13218,5035 13229,5024 13241,5014 13263,4992 13275,4982 13286,4971 13297,4960 13308,4949 13319,4939 13331,4928 13342,4917 13353,4907 13364,4896 13375,4885 13387,4875 13398,4864 13409,4854 13420,4843 13431,4832 13442,4822 13453,4811 13464,4800 13475,4790 13487,4779 13498,4768 13509,4758 13520,4747 13531,4736 13542,4726 13553,4715 13564,4705 13575,4694 13586,4683 13597,4673 13608,4662 13618,4651 13629,4641 13640,4630 13651,4620 13662,4609 13673,4598 13684,4588 13695,4577 13706,4567 13716,4556 13727,4545 13738,4535 13749,4524 13760,4514 13771,4503 13781,4492 13792,4482 13814,4461 13825,4450 13835,4440 13846,4429 13867,4408 13878,4397 13889,4387 13900,4376 13910,4366 13921,4355 13932,4344 13942,4334 13953,4323 13964,4313 13974,4302 13985,4292 13996,4281 14006,4271 14017,4260 14027,4249 14038,4239 14048,4228 14059,4218 14070,4207 14080,4197 14091,4186 14101,4176 14112,4165 14122,4155 14133,4144 14143,4134 14154,4123 14164,4112 14185,4091 14196,4081 14206,4070 14217,4060 14227,4049 14238,4039 14248,4028 14258,4018 14269,4007 14279,3997 14290,3986 14300,3976 14310,3965 14321,3955 14331,3944 14341,3934 14352,3923 14362,3913 14372,3902 14383,3892 14393,3881 14403,3871 14414,3860 14434,3839 14445,3829 14455,3818 14465,3808 14475,3797 14486,3787 14496,3776 14506,3766 14516,3755 14527,3745 14537,3735 14547,3724 14557,3714 14567,3703 14578,3693 14588,3682 14598,3672 14608,3661 14618,3651 14629,3640 14639,3630 14649,3619 14659,3609 14679,3588 14689,3578 14699,3567 14710,3557 14720,3546 14730,3536 14740,3525 14750,3515 14760,3504 14770,3494 14780,3483 14790,3473 14800,3463 14810,3452 14820,3442 14830,3431 14840,3421 14850,3410 14860,3400 14870,3390 14880,3379 14890,3369 14900,3358 14910,3348 14920,3337 14930,3327 14940,3316 14950,3306 14970,3285 14980,3275 14990,3264 15010,3243 15020,3233 15030,3223 15040,3212 15050,3202 15059,3191 15069,3181 15079,3171 15089,3160 15109,3139 15119,3129 15129,3118 15148,3098 15158,3087 15168,3077 15178,3066 15188,3056 15197,3046 15207,3035 15217,3025 15227,3014 15246,2994 15256,2983 15266,2973 15285,2952 15295,2942 15305,2931 15315,2921 15325,2910 15334,2900 15344,2890 15354,2879 15363,2869 15383,2848 15393,2838 15402,2827 15412,2817 15422,2807 15431,2796 15441,2786 15451,2775 15460,2765 15470,2755 15480,2744 15489,2734 15499,2724 15518,2703 15528,2692 15538,2682 15547,2672 15557,2661 15567,2651 15576,2641 15586,2630 15595,2620 15605,2609 15615,2599 15624,2589 15643,2568 15653,2558 15663,2547 15672,2537 15682,2526 15691,2516 15701,2506 15710,2495 15720,2485 15739,2464 15749,2454 15758,2444 15768,2433 15777,2423 15787,2412 15796,2402 15806,2392 15825,2371 15834,2361 15844,2350 15863,2330 15872,2319 15882,2309 15891,2299 15900,2288 15910,2278 15919,2268 15929,2257 15938,2247 15948,2237 15957,2226 15967,2216 15976,2205 15985,2195 15995,2185 16004,2174 16014,2164 16023,2154 16042,2133 16051,2123 16061,2112 16070,2102 16080,2092 16089,2081 16098,2071 16108,2061 16126,2040 16136,2030 16145,2019 16155,2009 16164,1999 16173,1988 16183,1978 16192,1968 16211,1947 16220,1937 16229,1926 16239,1916 16248,1906 16257,1895 16266,1885 16274,1877"/>
 <path fill="none" stroke="rgb(49,64,4)" stroke-width="79" stroke-linejoin="round" d="M 2783,11210 L 2863,11202 2957,11192 3047,11182 3133,11172 3217,11162 3298,11152 3376,11141 3452,11131 3525,11120 3597,11110 3666,11099 3733,11088 3798,11077 3862,11065 3924,11054 3985,11043 4045,11032 4103,11020 4161,11009 4218,10997 4275,10986 4331,10974 4386,10962 4441,10951 4496,10939 4550,10927 4604,10916 4657,10904 4710,10892 4762,10880 4814,10869 4865,10857 4915,10845 4966,10833 5015,10821 5064,10809 5112,10797 5160,10785 5208,10773 5254,10761 5300,10749 5346,10737 5391,10725 5435,10713 5479,10701 5522,10689 5564,10677 5607,10665 5648,10653 5689,10641 5730,10629 5770,10617 5810,10605 5850,10593 5889,10581 5927,10569 5965,10557 6003,10545 6041,10533 6078,10521 6115,10510 6152,10498 6188,10486 6224,10474 6260,10462 6295,10450 6330,10438 6365,10426 6400,10414 6435,10403 6469,10391 6503,10379 6536,10367 6570,10356 6603,10344 6636,10332 6668,10320 6701,10309 6733,10297 6765,10285 6796,10274 6828,10262 6859,10251 6890,10239 6921,10227 6951,10216 6982,10204 7012,10193 7042,10181 7072,10170 7101,10158 7130,10147 7159,10135 7188,10124 7217,10113 7246,10101 7274,10090 7302,10079 7330,10067 7358,10056 7386,10045 7414,10033 7441,10022 7468,10011 7495,10000 7522,9989 7549,9977 7576,9966 7602,9955 7628,9944 7655,9933 7681,9922 7707,9911 7732,9900 7758,9889 7783,9878 7809,9867 7834,9856 7859,9845 7884,9834 7909,9823 7933,9812 7958,9801 7982,9790 8007,9779 8031,9769 8055,9758 8079,9747 8103,9736 8127,9725 8150,9715 8174,9704 8197,9693 8220,9683 8244,9672 8267,9661 8290,9651 8313,9640 8335,9629 8358,9619 8381,9608 8403,9598 8425,9587 8448,9576 8470,9566 8492,9555 8514,9545 8536,9534 8557,9524 8579,9513 8601,9503 8622,9493 8644,9482 8665,9472 8686,9461 8708,9451 8729,9441 8750,9430 8771,9420 8791,9410 8812,9399 8833,9389 8853,9379 8874,9369 8894,9358 8915,9348 8935,9338 8955,9328 8975,9317 8995,9307 9015,9297 9035,9287 9055,9277 9075,9267 9095,9257 9114,9246 9134,9236 9153,9226 9173,9216 9192,9206 9211,9196 9231,9186 9250,9176 9269,9166 9288,9156 9307,9146 9326,9136 9345,9126 9364,9116 9382,9106 9401,9096 9419,9086 9438,9076 9457,9067 9475,9057 9493,9047 9512,9037 9530,9027 9548,9017 9566,9007 9584,8998 9602,8988 9620,8978 9638,8968 9656,8958 9674,8949 9692,8939 9709,8929 9727,8919 9745,8910 9762,8900 9780,8890 9797,8880 9814,8871 9832,8861 9849,8851 9866,8842 9883,8832 9901,8822 9918,8813 9935,8803 9952,8793 9969,8784 9986,8774 10003,8765 10019,8755 10036,8745 10053,8736 10070,8726 10086,8717 10102,8707 10118,8698 10135,8688 10151,8679 10168,8669 10184,8659 10201,8650 10217,8640 10233,8631 10249,8622 10266,8612 10282,8603 10298,8593 10314,8584 10330,8574 10346,8565 10362,8555 10378,8546 10394,8537 10409,8527 10425,8518 10441,8508 10457,8499 10472,8490 10488,8480 10504,8471 10519,8461 10535,8452 10550,8443 10566,8433 10581,8424 10597,8415 10612,8406 10627,8396 10642,8387 10658,8378 10673,8368 10688,8359 10703,8350 10718,8340 10734,8331 10749,8322 10764,8313 10779,8303 10794,8294 10809,8285 10823,8276 10838,8267 10853,8257 10868,8248 10883,8239 10897,8230 10912,8221 10927,8211 10942,8202 10956,8193 10971,8184 10985,8175 11000,8166 11014,8156 11029,8147 11043,8138 11058,8129 11072,8120 11087,8111 11101,8102 11115,8092 11129,8083 11144,8074 11158,8065 11172,8056 11186,8047 11200,8038 11215,8029 11229,8020 11243,8011 11257,8002 11271,7993 11285,7984 11299,7975 11313,7965 11327,7956 11341,7947 11354,7938 11368,7929 11382,7920 11396,7911 11410,7902 11423,7893 11437,7884 11451,7875 11464,7866 11478,7857 11492,7848 11505,7839 11519,7830 11533,7821 11546,7812 11560,7804 11573,7795 11587,7786 11600,7777 11627,7759 11640,7750 11654,7741 11667,7732 11680,7723 11693,7714 11707,7705 11720,7696 11733,7687 11746,7679 11760,7670 11773,7661 11786,7652 11799,7643 11812,7634 11825,7625 11838,7616 11851,7608 11864,7599 11877,7590 11890,7581 11903,7572 11916,7563 11929,7554 11942,7546 11955,7537 11968,7528 11981,7519 11993,7510 12006,7501 12019,7493 12032,7484 12045,7475 12057,7466 12070,7457 12083,7448 12108,7431 12121,7422 12133,7413 12146,7405 12159,7396 12171,7387 12184,7378 12196,7369 12209,7361 12221,7352 12234,7343 12246,7334 12259,7326 12271,7317 12284,7308 12296,7299 12308,7291 12321,7282 12333,7273 12345,7264 12358,7256 12370,7247 12382,7238 12395,7229 12407,7221 12419,7212 12431,7203 12444,7195 12456,7186 12468,7177 12480,7168 12492,7160 12504,7151 12516,7142 12529,7134 12541,7125 12553,7116 12565,7108 12577,7099 12589,7090 12601,7082 12613,7073 12625,7064 12637,7056 12649,7047 12661,7038 12685,7021 12696,7012 12708,7004 12720,6995 12732,6986 12744,6978 12756,6969 12767,6960 12779,6952 12791,6943 12803,6934 12815,6926 12826,6918 12850,6901 12861,6892 12873,6884 12885,6875 12897,6866 12920,6849 12931,6841 12943,6832 12955,6823 12966,6815 12978,6806 12989,6798 13001,6789 13012,6780 13024,6772 13036,6763 13047,6755 13059,6746 13070,6737 13081,6729 13093,6720 13104,6712 13116,6703 13127,6695 13139,6686 13150,6677 13161,6669 13173,6660 13184,6652 13195,6643 13207,6635 13218,6626 13229,6617 13241,6609 13252,6600 13263,6592 13275,6583 13286,6575 13297,6566 13308,6558 13319,6549 13331,6541 13342,6532 13353,6523 13364,6515 13375,6506 13387,6498 13398,6489 13409,6481 13420,6472 13431,6464 13442,6455 13453,6447 13464,6438 13475,6430 13498,6413 13509,6404 13520,6396 13531,6387 13553,6370 13564,6362 13575,6353 13586,6345 13597,6336 13608,6328 13618,6319 13629,6311 13640,6302 13651,6294 13662,6285 13673,6277 13684,6268 13695,6260 13706,6251 13716,6243 13727,6234 13738,6226 13749,6217 13760,6209 13771,6200 13781,6192 13792,6184 13803,6175 13814,6167 13825,6158 13835,6150 13846,6141 13857,6133 13867,6124 13878,6116 13889,6107 13900,6099 13910,6090 13921,6082 13932,6074 13942,6065 13953,6057 13964,6048 13974,6040 13985,6031 14006,6014 14017,6006 14027,5998 14038,5989 14048,5981 14059,5972 14070,5964 14080,5955 14091,5947 14101,5939 14112,5930 14122,5922 14133,5913 14143,5905 14154,5896 14164,5888 14175,5880 14185,5871 14196,5863 14206,5854 14217,5846 14227,5838 14238,5829 14248,5821 14269,5804 14279,5795 14290,5787 14300,5779 14310,5770 14321,5762 14331,5753 14352,5737 14362,5728 14372,5720 14383,5711 14393,5703 14403,5695 14414,5686 14434,5670 14445,5661 14455,5653 14465,5644 14475,5636 14486,5628 14496,5619 14516,5602 14527,5594 14537,5586 14547,5577 14557,5569 14567,5561 14578,5552 14598,5535 14608,5527 14618,5519 14629,5510 14639,5502 14649,5494 14659,5485 14669,5477 14679,5468 14689,5460 14710,5443 14720,5435 14730,5427 14740,5418 14750,5410 14760,5402 14770,5393 14790,5376 14800,5368 14810,5360 14820,5351 14830,5343 14840,5335 14850,5326 14860,5318 14870,5310 14880,5301 14900,5285 14910,5276 14920,5268 14930,5260 14940,5251 14950,5243 14960,5235 14970,5226 14980,5218 14990,5210 15010,5193 15020,5185 15040,5168 15050,5159 15059,5151 15069,5143 15079,5134 15089,5126 15099,5118 15109,5110 15119,5101 15129,5093 15148,5076 15158,5068 15168,5060 15178,5051 15188,5043 15197,5035 15207,5026 15217,5018 15227,5010 15246,4993 15256,4985 15266,4976 15276,4968 15285,4960 15295,4951 15305,4943 15315,4935 15325,4926 15334,4918 15354,4901 15363,4893 15383,4877 15393,4868 15412,4852 15422,4843 15431,4835 15441,4827 15451,4818 15460,4810 15470,4802 15480,4793 15489,4785 15499,4777 15509,4769 15518,4760 15528,4752 15538,4744 15547,4735 15557,4727 15567,4719 15576,4710 15586,4702 15595,4694 15615,4677 15624,4669 15643,4652 15653,4644 15663,4636 15672,4628 15682,4619 15691,4611 15701,4603 15710,4594 15720,4586 15739,4569 15749,4561 15768,4545 15777,4536 15796,4520 15806,4511 15815,4503 15825,4495 15834,4487 15844,4478 15853,4470 15863,4462 15872,4453 15891,4437 15900,4429 15919,4412 15929,4404 15948,4387 15957,4379 15967,4371 15976,4362 15985,4354 15995,4346 16004,4338 16014,4329 16023,4321 16042,4305 16051,4296 16070,4280 16080,4271 16098,4255 16108,4247 16117,4238 16126,4230 16136,4222 16145,4214 16155,4205 16164,4197 16173,4189 16183,4180 16192,4172 16201,4164 16211,4156 16220,4147 16229,4139 16248,4123 16257,4114 16266,4106 16276,4098 16285,4090 16294,4081 16304,4073 16313,4065 16322,4057 16332,4048 16341,4040 16350,4032 16359,4024 16369,4015 16378,4007 16387,3999 16396,3990 16415,3974 16424,3966 16443,3949 16452,3941 16470,3924 16480,3916 16489,3908 16498,3900 16507,3891 16517,3883 16526,3875 16535,3867 16544,3858 16553,3850 16563,3842 16572,3834 16581,3825 16590,3817 16599,3809 16608,3801 16618,3792 16636,3776 16645,3768 16663,3751 16673,3743 16691,3726 16700,3718 16709,3710 16718,3702 16728,3693 16737,3685 16746,3677 16755,3669 16764,3660 16773,3652 16782,3644 16791,3636 16801,3628 16810,3619 16828,3603 16837,3595 16855,3578 16864,3570 16882,3553 16891,3545 16901,3537 16910,3529 16919,3520 16928,3512 16937,3504 16946,3496 16955,3487 16964,3479 16973,3471 16982,3463 16991,3455 17000,3446 17009,3438 17018,3430 17027,3422 17036,3413 17045,3405 17054,3397 17064,3389 17073,3380 17082,3372 17091,3364 17100,3356 17118,3339 17127,3331 17145,3315 17154,3306 17163,3298 17172,3290 17181,3282 17190,3273 17199,3265 17208,3257 17217,3249 17226,3240 17235,3232 17243,3224 17252,3216 17261,3208 17270,3199 17279,3191 17288,3183 17297,3175 17306,3166 17315,3158 17324,3150 17333,3142 17342,3134 17351,3125 17360,3117 17378,3101 17387,3092 17405,3076 17413,3068 17422,3060 17431,3051 17449,3035 17458,3027 17476,3010 17485,3002 17494,2994 17503,2985 17511,2977 17520,2969 17529,2961 17538,2953 17547,2944 17556,2936 17565,2928 17574,2920 17583,2912 17591,2903 17600,2895 17609,2887 17618,2879 17627,2870 17636,2862 17645,2854 17653,2846 17662,2838 17671,2829 17680,2821 17689,2813 17698,2805 17707,2796 17715,2788 17724,2780 17733,2772 17751,2755 17760,2747 17777,2731 17786,2723 17795,2714 17804,2706 17821,2690 17830,2681 17848,2665 17857,2657"/>
 <path fill="none" stroke="rgb(174,207,0)" stroke-width="79" stroke-linejoin="round" d="M 2783,11356 L 2863,11353 2957,11348 3047,11344 3133,11340 3217,11335 3298,11331 3376,11326 3452,11321 3525,11317 3597,11312 3666,11307 3733,11302 3798,11297 3862,11292 3924,11287 3985,11282 4045,11276 4103,11271 4161,11266 4218,11260 4275,11255 4331,11250 4386,11244 4441,11239 4496,11233 4550,11227 4604,11222 4657,11216 4710,11210 4762,11204 4814,11199 4865,11193 4915,11187 4966,11181 5015,11175 5064,11169 5112,11163 5160,11157 5208,11150 5254,11144 5300,11138 5346,11132 5391,11125 5435,11119 5479,11113 5522,11106 5564,11100 5607,11093 5648,11087 5689,11080 5730,11074 5770,11067 5810,11061 5850,11054 5889,11047 5927,11041 5965,11034 6003,11027 6041,11020 6078,11013 6115,11007 6152,11000 6188,10993 6224,10986 6260,10979 6295,10972 6330,10965 6365,10958 6400,10951 6435,10944 6469,10937 6503,10930 6536,10923 6570,10916 6603,10909 6636,10902 6668,10895 6701,10888 6733,10880 6765,10873 6796,10866 6828,10859 6859,10852 6890,10844 6921,10837 6951,10830 6982,10823 7012,10815 7042,10808 7072,10801 7101,10794 7130,10786 7159,10779 7188,10772 7217,10764 7246,10757 7274,10750 7302,10742 7330,10735 7358,10728 7386,10720 7414,10713 7441,10705 7468,10698 7495,10691 7522,10683 7549,10676 7576,10668 7602,10661 7628,10654 7655,10646 7681,10639 7707,10631 7732,10624 7758,10617 7783,10609 7809,10602 7834,10594 7859,10587 7884,10579 7909,10572 7933,10565 7958,10557 7982,10550 8007,10542 8031,10535 8055,10527 8079,10520 8103,10513 8127,10505 8150,10498 8174,10490 8197,10483 8220,10475 8244,10468 8267,10461 8290,10453 8313,10446 8335,10438 8358,10431 8381,10424 8403,10416 8425,10409 8448,10401 8470,10394 8492,10387 8514,10379 8536,10372 8557,10364 8579,10357 8601,10350 8622,10342 8644,10335 8665,10327 8686,10320 8708,10313 8729,10305 8750,10298 8771,10291 8791,10283 8812,10276 8833,10268 8853,10261 8874,10254 8894,10246 8915,10239 8935,10232 8955,10224 8975,10217 8995,10210 9015,10202 9035,10195 9055,10188 9075,10181 9095,10173 9114,10166 9134,10159 9153,10151 9173,10144 9192,10137 9211,10130 9231,10122 9250,10115 9269,10108 9288,10100 9307,10093 9326,10086 9345,10079 9364,10071 9382,10064 9401,10057 9419,10050 9438,10043 9457,10035 9475,10028 9493,10021 9512,10014 9530,10006 9548,9999 9566,9992 9584,9985 9602,9978 9620,9970 9638,9963 9656,9956 9674,9949 9692,9942 9709,9935 9727,9927 9745,9920 9762,9913 9780,9906 9797,9899 9814,9892 9832,9885 9849,9878 9866,9870 9883,9863 9901,9856 9918,9849 9935,9842 9952,9835 9969,9828 9986,9821 10003,9814 10019,9807 10036,9799 10053,9792 10070,9785 10086,9778 10102,9771 10118,9764 10135,9757 10151,9750 10168,9743 10184,9736 10201,9729 10217,9722 10233,9715 10249,9708 10266,9701 10282,9694 10298,9687 10314,9680 10330,9673 10346,9666 10362,9659 10378,9652 10394,9645 10409,9638 10425,9631 10441,9624 10457,9617 10472,9610 10488,9603 10504,9596 10519,9589 10535,9582 10550,9575 10566,9568 10581,9562 10597,9555 10612,9548 10627,9541 10642,9534 10658,9527 10673,9520 10688,9513 10703,9506 10718,9499 10734,9492 10749,9486 10764,9479 10779,9472 10794,9465 10809,9458 10823,9451 10838,9444 10853,9437 10868,9431 10883,9424 10897,9417 10912,9410 10927,9403 10942,9396 10956,9389 10971,9383 10985,9376 11000,9369 11014,9362 11029,9355 11043,9349 11058,9342 11072,9335 11087,9328 11101,9321 11115,9314 11129,9308 11144,9301 11158,9294 11172,9287 11186,9281 11200,9274 11215,9267 11229,9260 11243,9253 11257,9247 11271,9240 11285,9233 11299,9226 11313,9220 11327,9213 11341,9206 11354,9199 11368,9193 11382,9186 11396,9179 11410,9172 11423,9166 11437,9159 11451,9152 11464,9146 11478,9139 11492,9132 11505,9125 11519,9119 11533,9112 11546,9105 11560,9099 11573,9092 11587,9085 11600,9079 11613,9072 11627,9065 11640,9059 11654,9052 11667,9045 11680,9038 11693,9032 11707,9025 11720,9018 11733,9012 11746,9005 11760,8999 11773,8992 11786,8985 11799,8979 11812,8972 11825,8965 11838,8959 11851,8952 11864,8945 11877,8939 11890,8932 11903,8925 11929,8912 11942,8906 11955,8899 11968,8892 11981,8886 11993,8879 12006,8873 12019,8866 12032,8859 12045,8853 12057,8846 12070,8840 12083,8833 12108,8820 12121,8813 12133,8807 12146,8800 12159,8793 12171,8787 12184,8780 12196,8774 12209,8767 12221,8761 12234,8754 12259,8741 12271,8734 12284,8728 12296,8721 12308,8715 12321,8708 12333,8702 12345,8695 12358,8689 12382,8675 12395,8669 12407,8662 12419,8656 12431,8649 12444,8643 12456,8636 12468,8630 12480,8623 12492,8617 12504,8610 12516,8604 12529,8597 12541,8591 12553,8584 12565,8578 12577,8571 12589,8565 12601,8558 12613,8552 12625,8545 12637,8539 12649,8532 12661,8526 12673,8519 12685,8513 12696,8506 12708,8500 12720,8493 12732,8487 12744,8480 12767,8467 12779,8461 12791,8454 12803,8448 12815,8441 12826,8435 12838,8428 12850,8422 12861,8415 12873,8409 12885,8403 12897,8396 12920,8383 12931,8377 12943,8370 12955,8364 12966,8357 12978,8351 12989,8344 13001,8338 13012,8332 13024,8325 13036,8319 13047,8312 13059,8306 13070,8299 13081,8293 13093,8287 13104,8280 13116,8274 13127,8267 13139,8261 13150,8254 13161,8248 13173,8242 13195,8229 13207,8222 13218,8216 13229,8210 13241,8203 13263,8190 13275,8184 13286,8177 13297,8171 13308,8165 13319,8158 13331,8152 13342,8145 13353,8139 13364,8133 13387,8120 13398,8113 13409,8107 13420,8101 13431,8094 13442,8088 13453,8082 13464,8075 13475,8069 13498,8056 13509,8050 13520,8043 13531,8037 13542,8030 13553,8024 13564,8018 13575,8011 13586,8005 13608,7992 13618,7986 13629,7980 13640,7973 13662,7960 13673,7954 13684,7948 13695,7941 13706,7935 13716,7929 13727,7922 13738,7916 13749,7910 13760,7903 13771,7897 13781,7890 13792,7884 13814,7871 13825,7865 13835,7859 13846,7852 13857,7846 13867,7840 13878,7833 13889,7827 13910,7814 13921,7808 13932,7802 13942,7795 13953,7789 13964,7783 13974,7776 13985,7770 13996,7764 14006,7757 14017,7751 14027,7745 14038,7738 14048,7732 14059,7726 14070,7719 14080,7713 14101,7700 14112,7694 14122,7688 14133,7681 14143,7675 14154,7669 14164,7663 14175,7656 14185,7650 14196,7644 14206,7637 14217,7631 14227,7625 14238,7618 14248,7612 14258,7606 14269,7599 14279,7593 14290,7587 14300,7581 14310,7574 14321,7568 14331,7562 14352,7549 14362,7543 14372,7536 14393,7524 14403,7518 14414,7511 14434,7499 14445,7492 14455,7486 14475,7474 14486,7467 14496,7461 14516,7448 14527,7442 14537,7436 14547,7430 14557,7423 14567,7417 14578,7411 14588,7404 14598,7398 14608,7392 14618,7386 14629,7379 14639,7373 14649,7367 14659,7360 14669,7354 14679,7348 14689,7342 14710,7329 14720,7323 14730,7317 14750,7304 14760,7298 14770,7291 14780,7285 14790,7279 14800,7273 14810,7266 14820,7260 14830,7254 14840,7248 14860,7235 14870,7229 14880,7223 14900,7210 14910,7204 14920,7197 14930,7191 14940,7185 14950,7179 14970,7166 14980,7160 14990,7154 15010,7141 15020,7135 15030,7129 15040,7122 15050,7116 15059,7110 15069,7104 15079,7097 15089,7091 15109,7079 15119,7072 15129,7066 15138,7060 15148,7054 15158,7047 15178,7035 15188,7029 15197,7022 15217,7010 15227,7004 15237,6998 15246,6991 15256,6985 15266,6979 15285,6966 15295,6960 15305,6954 15315,6948 15325,6941 15334,6935 15344,6929 15354,6923 15363,6917 15383,6905 15393,6899 15402,6892 15412,6886 15422,6880 15431,6874 15451,6861 15460,6855 15470,6849 15480,6843 15489,6836 15499,6830 15509,6824 15518,6818 15528,6812 15547,6799 15557,6793 15567,6787 15576,6780 15586,6774 15595,6768 15615,6756 15624,6749 15634,6743 15643,6737 15653,6731 15672,6718 15682,6712 15691,6706 15701,6700 15710,6693 15720,6687 15729,6681 15739,6675 15749,6668 15768,6656 15777,6650 15796,6637 15806,6631 15815,6625 15825,6619 15834,6613 15844,6606 15853,6600 15863,6594 15872,6588 15891,6575 15900,6569 15910,6563 15919,6557 15929,6550 15938,6544 15948,6538 15957,6532 15976,6519 15985,6513 15995,6507 16014,6495 16023,6488 16033,6482 16042,6476 16051,6470 16070,6457 16080,6451 16098,6439 16108,6433 16117,6426 16126,6420 16136,6414 16155,6402 16164,6395 16173,6389 16183,6383 16192,6377 16211,6364 16220,6358 16229,6352 16239,6346 16248,6340 16257,6333 16276,6321 16285,6315 16294,6309 16304,6302 16313,6296 16332,6284 16341,6278 16350,6271 16359,6265 16369,6259 16378,6253 16387,6247 16396,6240 16415,6228 16424,6222 16433,6216 16443,6209 16452,6203 16470,6191 16480,6185 16489,6179 16498,6172 16507,6166 16517,6160 16526,6154 16535,6148 16553,6135 16563,6129 16572,6123 16581,6117 16590,6110 16608,6098 16618,6092 16627,6086 16636,6080 16645,6073 16654,6067 16663,6061 16673,6055 16691,6042 16700,6036 16709,6030 16718,6024 16728,6018 16746,6005 16755,5999 16764,5993 16773,5987 16782,5981 16791,5974 16801,5968 16810,5962 16828,5950 16837,5943 16846,5937 16855,5931 16864,5925 16882,5913 16891,5906 16901,5900 16910,5894 16919,5888 16928,5882 16937,5876 16946,5869 16964,5857 16982,5845 16991,5838 17000,5832 17009,5826 17018,5820 17036,5808 17045,5801 17064,5789 17073,5783 17082,5777 17091,5771 17100,5764 17118,5752 17127,5746 17136,5740 17145,5733 17154,5727 17172,5715 17181,5709 17199,5696 17208,5690 17217,5684 17226,5678 17235,5672 17243,5666 17252,5659 17270,5647 17279,5641 17288,5635 17297,5629 17306,5622 17324,5610 17333,5604 17351,5592 17360,5585 17369,5579 17378,5573 17387,5567 17405,5555 17422,5542 17431,5536 17440,5530 17449,5524 17458,5518 17467,5511 17476,5505 17485,5499 17503,5487 17511,5481 17520,5474 17529,5468 17538,5462 17556,5450 17574,5437 17583,5431 17600,5419 17609,5413 17618,5407 17627,5400 17636,5394 17653,5382 17662,5376 17671,5370 17680,5363 17689,5357 17698,5351 17707,5345 17724,5333 17733,5326 17751,5314 17760,5308 17768,5302 17777,5296 17786,5289 17795,5283 17804,5277 17821,5265 17830,5259 17848,5246 17857,5240"/>
 <path fill="none" stroke="rgb(75,31,111)" stroke-width="79" stroke-linejoin="round" d="M 2783,11434 L 2863,11433 2957,11432 3047,11430 3133,11429 3217,11427 3298,11426 3376,11424 3452,11423 3525,11422 3597,11420 3666,11418 3733,11417 3798,11415 3862,11414 3924,11412 3985,11411 4045,11409 4103,11407 4161,11406 4218,11404 4275,11402 4331,11401 4386,11399 4441,11397 4496,11396 4550,11394 4604,11392 4657,11390 4710,11389 4762,11387 4814,11385 4865,11383 4915,11381 4966,11379 5015,11378 5064,11376 5112,11374 5160,11372 5208,11370 5254,11368 5300,11366 5346,11364 5391,11362 5435,11360 5479,11358 5522,11356 5564,11354 5607,11352 5648,11350 5689,11348 5730,11346 5770,11344 5810,11341 5850,11339 5889,11337 5927,11335 5965,11333 6003,11331 6041,11328 6078,11326 6115,11324 6152,11322 6188,11319 6224,11317 6260,11315 6295,11312 6330,11310 6365,11308 6400,11305 6435,11303 6469,11300 6503,11298 6536,11296 6570,11293 6603,11291 6636,11288 6668,11286 6701,11283 6733,11281 6765,11278 6796,11276 6828,11273 6859,11270 6890,11268 6921,11265 6951,11263 6982,11260 7012,11257 7042,11255 7072,11252 7101,11249 7130,11247 7159,11244 7188,11241 7217,11238 7246,11236 7274,11233 7302,11230 7330,11227 7358,11225 7386,11222 7414,11219 7441,11216 7468,11213 7495,11210 7522,11207 7549,11205 7576,11202 7602,11199 7628,11196 7655,11193 7681,11190 7707,11187 7732,11184 7758,11181 7783,11178 7809,11175 7834,11172 7859,11169 7884,11166 7909,11163 7933,11160 7958,11156 7982,11153 8007,11150 8031,11147 8055,11144 8079,11141 8103,11138 8127,11134 8150,11131 8174,11128 8197,11125 8220,11122 8244,11118 8267,11115 8290,11112 8313,11109 8335,11105 8358,11102 8381,11099 8403,11096 8425,11092 8448,11089 8470,11086 8492,11082 8514,11079 8536,11075 8557,11072 8579,11069 8601,11065 8622,11062 8644,11058 8665,11055 8686,11052 8708,11048 8729,11045 8750,11041 8771,11038 8791,11034 8812,11031 8833,11027 8853,11024 8874,11020 8894,11017 8915,11013 8935,11010 8955,11006 8975,11003 8995,10999 9015,10995 9035,10992 9055,10988 9075,10985 9095,10981 9114,10977 9134,10974 9153,10970 9173,10967 9192,10963 9211,10959 9231,10956 9250,10952 9269,10948 9288,10945 9307,10941 9326,10937 9345,10933 9364,10930 9382,10926 9401,10922 9419,10919 9438,10915 9457,10911 9475,10907 9493,10904 9512,10900 9530,10896 9548,10892 9566,10888 9584,10885 9602,10881 9620,10877 9638,10873 9656,10869 9674,10866 9692,10862 9709,10858 9727,10854 9745,10850 9762,10846 9780,10843 9797,10839 9814,10835 9832,10831 9849,10827 9866,10823 9883,10819 9901,10815 9918,10812 9935,10808 9952,10804 9969,10800 9986,10796 10003,10792 10019,10788 10036,10784 10053,10780 10070,10776 10086,10772 10102,10768 10118,10764 10135,10760 10151,10757 10168,10753 10184,10749 10201,10745 10217,10741 10233,10737 10249,10733 10266,10729 10282,10725 10298,10721 10314,10717 10330,10713 10346,10709 10362,10705 10378,10701 10394,10697 10409,10693 10425,10689 10441,10685 10457,10681 10472,10677 10488,10672 10504,10668 10519,10664 10535,10660 10550,10656 10566,10652 10581,10648 10597,10644 10612,10640 10627,10636 10642,10632 10658,10628 10673,10624 10688,10620 10703,10616 10718,10612 10734,10608 10749,10603 10764,10599 10779,10595 10794,10591 10809,10587 10823,10583 10838,10579 10853,10575 10868,10571 10883,10567 10897,10562 10912,10558 10927,10554 10942,10550 10956,10546 10971,10542 10985,10538 11000,10534 11014,10530 11029,10525 11043,10521 11058,10517 11072,10513 11087,10509 11101,10505 11115,10501 11129,10496 11144,10492 11158,10488 11172,10484 11186,10480 11200,10476 11215,10472 11229,10467 11243,10463 11257,10459 11271,10455 11285,10451 11299,10447 11313,10442 11327,10438 11341,10434 11354,10430 11368,10426 11382,10422 11396,10418 11410,10413 11423,10409 11437,10405 11451,10401 11464,10397 11478,10392 11492,10388 11505,10384 11519,10380 11533,10376 11546,10372 11560,10367 11573,10363 11587,10359 11600,10355 11627,10347 11640,10342 11654,10338 11667,10334 11680,10330 11693,10326 11707,10321 11720,10317 11733,10313 11746,10309 11760,10305 11773,10300 11786,10296 11799,10292 11812,10288 11825,10284 11838,10279 11851,10275 11864,10271 11877,10267 11890,10263 11903,10259 11916,10254 11929,10250 11942,10246 11955,10242 11968,10238 11981,10233 11993,10229 12006,10225 12019,10221 12032,10216 12045,10212 12057,10208 12070,10204 12083,10200 12108,10191 12121,10187 12133,10183 12146,10179 12159,10174 12171,10170 12184,10166 12196,10162 12209,10158 12221,10153 12234,10149 12259,10141 12271,10137 12284,10132 12296,10128 12308,10124 12321,10120 12333,10116 12345,10111 12358,10107 12382,10099 12395,10094 12407,10090 12419,10086 12431,10082 12444,10078 12456,10073 12468,10069 12492,10061 12504,10057 12516,10052 12529,10048 12541,10044 12553,10040 12565,10036 12589,10027 12601,10023 12613,10019 12625,10014 12637,10010 12649,10006 12661,10002 12685,9993 12696,9989 12708,9985 12720,9981 12732,9977 12744,9972 12767,9964 12779,9960 12791,9956 12803,9951 12815,9947 12826,9943 12850,9934 12861,9930 12873,9926 12885,9922 12897,9918 12920,9909 12931,9905 12943,9901 12955,9897 12966,9892 12978,9888 12989,9884 13001,9880 13012,9876 13024,9871 13036,9867 13047,9863 13070,9855 13081,9850 13093,9846 13104,9842 13116,9838 13139,9829 13150,9825 13161,9821 13173,9817 13195,9808 13207,9804 13218,9800 13229,9796 13241,9791 13263,9783 13275,9779 13286,9775 13297,9770 13308,9766 13319,9762 13331,9758 13342,9754 13353,9749 13364,9745 13387,9737 13398,9733 13409,9728 13420,9724 13442,9716 13453,9712 13464,9707 13475,9703 13487,9699 13498,9695 13509,9691 13520,9686 13531,9682 13553,9674 13564,9670 13575,9665 13586,9661 13597,9657 13608,9653 13618,9649 13629,9644 13640,9640 13662,9632 13673,9628 13684,9623 13695,9619 13716,9611 13727,9607 13738,9603 13760,9594 13771,9590 13781,9586 13792,9582 13803,9577 13814,9573 13825,9569 13835,9565 13846,9561 13867,9552 13878,9548 13889,9544 13900,9540 13910,9536 13921,9531 13932,9527 13942,9523 13964,9515 13974,9510 13985,9506 14006,9498 14017,9494 14027,9489 14038,9485 14048,9481 14059,9477 14070,9473 14080,9469 14101,9460 14112,9456 14122,9452 14133,9448 14143,9443 14154,9439 14164,9435 14175,9431 14185,9427 14196,9423 14206,9418 14227,9410 14238,9406 14248,9402 14269,9393 14279,9389 14290,9385 14300,9381 14310,9377 14321,9372 14331,9368 14352,9360 14362,9356 14372,9352 14393,9343 14403,9339 14414,9335 14434,9327 14445,9322 14455,9318 14465,9314 14475,9310 14486,9306 14496,9302 14516,9293 14527,9289 14537,9285 14557,9276 14567,9272 14578,9268 14598,9260 14608,9256 14618,9251 14629,9247 14639,9243 14649,9239 14659,9235 14679,9226 14689,9222 14710,9214 14720,9210 14730,9206 14750,9197 14760,9193 14770,9189 14790,9181 14800,9177 14810,9172 14820,9168 14830,9164 14840,9160 14850,9156 14860,9152 14870,9147 14880,9143 14900,9135 14910,9131 14920,9127 14940,9118 14950,9114 14970,9106 14980,9102 14990,9098 15010,9089 15020,9085 15040,9077 15050,9073 15059,9068 15079,9060 15089,9056 15109,9048 15119,9044 15129,9039 15138,9035 15148,9031 15158,9027 15168,9023 15178,9019 15188,9014 15197,9010 15217,9002 15227,8998 15246,8990 15256,8985 15266,8981 15285,8973 15295,8969 15315,8961 15325,8956 15334,8952 15354,8944 15363,8940 15383,8931 15393,8927 15412,8919 15422,8915 15431,8911 15451,8902 15460,8898 15480,8890 15489,8886 15499,8882 15509,8878 15518,8873 15528,8869 15538,8865 15547,8861 15557,8857 15576,8849 15586,8844 15595,8840 15605,8836 15615,8832 15624,8828 15634,8824 15643,8820 15653,8815 15663,8811 15672,8807 15682,8803 15691,8799 15701,8795 15710,8791 15720,8787 15729,8782 15739,8778 15749,8774 15758,8770 15768,8766 15777,8762 15787,8758 15796,8753 15806,8749 15815,8745 15825,8741 15834,8737 15844,8733 15863,8724 15872,8720 15882,8716 15891,8712 15900,8708 15910,8704 15919,8700 15929,8696 15938,8691 15948,8687 15957,8683 15967,8679 15976,8675 15985,8671 15995,8667 16014,8658 16023,8654 16033,8650 16042,8646 16051,8642 16061,8638 16070,8634 16080,8629 16089,8625 16098,8621 16108,8617 16117,8613 16126,8609 16136,8605 16145,8600 16155,8596 16164,8592 16183,8584 16192,8580 16211,8572 16220,8567 16229,8563 16239,8559 16248,8555 16257,8551 16266,8547 16276,8543 16285,8539 16294,8534 16304,8530 16313,8526 16332,8518 16341,8514 16359,8506 16369,8501 16387,8493 16396,8489 16415,8481 16424,8477 16443,8468 16452,8464 16470,8456 16480,8452 16498,8444 16507,8440 16526,8431 16535,8427 16553,8419 16563,8415 16581,8407 16590,8402 16599,8398 16608,8394 16618,8390 16627,8386 16636,8382 16645,8378 16654,8374 16663,8369 16673,8365 16682,8361 16691,8357 16700,8353 16709,8349 16718,8345 16728,8341 16746,8332 16755,8328 16773,8320 16782,8316 16801,8308 16810,8304 16828,8295 16837,8291 16855,8283 16864,8279 16882,8271 16891,8266 16910,8258 16919,8254 16937,8246 16946,8242 16964,8234 16973,8229 16982,8225 16991,8221 17009,8213 17018,8209 17036,8201 17045,8197 17064,8188 17073,8184 17091,8176 17100,8172 17118,8164 17127,8159 17145,8151 17154,8147 17172,8139 17181,8135 17199,8127 17208,8122 17226,8114 17235,8110 17243,8106 17252,8102 17270,8094 17279,8090 17297,8081 17306,8077 17324,8069 17333,8065 17351,8057 17360,8053 17378,8044 17387,8040 17405,8032 17413,8028 17422,8024 17431,8020 17440,8016 17449,8011 17458,8007 17467,8003 17476,7999 17485,7995 17494,7991 17503,7987 17511,7983 17529,7974 17538,7970 17556,7962 17574,7954 17583,7950 17600,7942 17609,7937 17627,7929 17636,7925 17653,7917 17662,7913 17671,7909 17680,7905 17698,7896 17707,7892 17724,7884 17733,7880 17751,7872 17760,7868 17777,7859 17786,7855 17795,7851 17804,7847 17813,7843 17821,7839 17830,7835 17839,7831 17848,7827 17857,7822"/>
 <path fill="none" stroke="rgb(255,149,14)" stroke-width="79" stroke-linejoin="round" d="M 2783,11469 L 2863,11469 2957,11468 3047,11468 3133,11468 3217,11467 3298,11467 3376,11467 3452,11467 3525,11466 3597,11466 3666,11466 3733,11466 3798,11465 3862,11465 3924,11465 3985,11464 4045,11464 4103,11464 4161,11464 4218,11463 4275,11463 4331,11463 4386,11462 4441,11462 4496,11462 4550,11462 4604,11461 4657,11461 4710,11461 4762,11460 4814,11460 4865,11460 4915,11459 4966,11459 5015,11459 5064,11459 5112,11458 5160,11458 5208,11458 5254,11457 5300,11457 5346,11457 5391,11456 5435,11456 5479,11456 5522,11455 5564,11455 5607,11455 5648,11454 5689,11454 5730,11454 5770,11454 5810,11453 5850,11453 5889,11453 5927,11452 5965,11452 6003,11452 6041,11451 6078,11451 6115,11451 6152,11450 6188,11450 6224,11449 6260,11449 6295,11449 6330,11448 6365,11448 6400,11448 6435,11447 6469,11447 6503,11447 6536,11446 6570,11446 6603,11446 6636,11445 6668,11445 6701,11445 6733,11444 6765,11444 6796,11443 6828,11443 6859,11443 6890,11442 6921,11442 6951,11442 6982,11441 7012,11441 7042,11440 7072,11440 7101,11440 7130,11439 7159,11439 7188,11439 7217,11438 7246,11438 7274,11437 7302,11437 7330,11437 7358,11436 7386,11436 7414,11435 7441,11435 7468,11435 7495,11434 7522,11434 7549,11433 7576,11433 7602,11433 7628,11432 7655,11432 7681,11431 7707,11431 7732,11430 7758,11430 7783,11430 7809,11429 7834,11429 7859,11428 7884,11428 7909,11428 7933,11427 7958,11427 7982,11426 8007,11426 8031,11425 8055,11425 8079,11424 8103,11424 8127,11424 8150,11423 8174,11423 8197,11422 8220,11422 8244,11421 8267,11421 8290,11420 8313,11420 8335,11420 8358,11419 8381,11419 8403,11418 8425,11418 8448,11417 8470,11417 8492,11416 8514,11416 8536,11415 8557,11415 8579,11414 8601,11414 8622,11413 8644,11413 8665,11412 8686,11412 8708,11411 8729,11411 8750,11410 8771,11410 8791,11409 8812,11409 8833,11408 8853,11408 8874,11407 8894,11407 8915,11406 8935,11406 8955,11405 8975,11405 8995,11404 9015,11404 9035,11403 9055,11403 9075,11402 9095,11402 9114,11401 9134,11401 9153,11400 9173,11400 9192,11399 9211,11399 9231,11398 9250,11397 9269,11397 9288,11396 9307,11396 9326,11395 9345,11395 9364,11394 9382,11394 9401,11393 9419,11393 9438,11392 9457,11391 9475,11391 9493,11390 9512,11390 9530,11389 9548,11389 9566,11388 9584,11387 9602,11387 9620,11386 9638,11386 9656,11385 9674,11385 9692,11384 9709,11383 9727,11383 9745,11382 9762,11382 9780,11381 9797,11380 9814,11380 9832,11379 9849,11379 9866,11378 9883,11377 9901,11377 9918,11376 9935,11375 9952,11375 9969,11374 9986,11374 10003,11373 10019,11372 10036,11372 10053,11371 10070,11370 10086,11370 10102,11369 10118,11369 10135,11368 10151,11367 10168,11367 10184,11366 10201,11365 10217,11365 10233,11364 10249,11363 10266,11363 10282,11362 10298,11361 10314,11361 10330,11360 10346,11359 10362,11359 10378,11358 10394,11357 10409,11357 10425,11356 10441,11355 10457,11355 10472,11354 10488,11353 10504,11352 10519,11352 10535,11351 10550,11350 10566,11350 10581,11349 10597,11348 10612,11348 10627,11347 10642,11346 10658,11345 10673,11345 10688,11344 10703,11343 10718,11343 10734,11342 10749,11341 10764,11340 10779,11340 10794,11339 10809,11338 10823,11337 10838,11337 10853,11336 10868,11335 10883,11334 10897,11334 10912,11333 10927,11332 10942,11331 10956,11331 10971,11330 10985,11329 11000,11328 11014,11328 11029,11327 11043,11326 11058,11325 11072,11324 11087,11324 11101,11323 11115,11322 11129,11321 11144,11320 11158,11320 11172,11319 11186,11318 11200,11317 11215,11316 11229,11316 11243,11315 11257,11314 11271,11313 11285,11312 11299,11312 11313,11311 11327,11310 11341,11309 11354,11308 11368,11307 11382,11307 11396,11306 11410,11305 11423,11304 11437,11303 11451,11302 11464,11302 11478,11301 11492,11300 11505,11299 11519,11298 11533,11297 11546,11296 11560,11296 11573,11295 11587,11294 11600,11293 11627,11291 11640,11290 11654,11289 11667,11289 11680,11288 11693,11287 11707,11286 11720,11285 11733,11284 11746,11283 11760,11282 11773,11281 11786,11281 11799,11280 11812,11279 11825,11278 11838,11277 11851,11276 11864,11275 11877,11274 11890,11273 11903,11272 11929,11270 11942,11269 11955,11269 11968,11268 11981,11267 11993,11266 12006,11265 12019,11264 12032,11263 12045,11262 12057,11261 12070,11260 12083,11259 12108,11257 12121,11256 12133,11255 12146,11254 12159,11253 12171,11252 12184,11251 12196,11250 12209,11249 12221,11248 12234,11247 12259,11245 12271,11244 12284,11243 12296,11242 12308,11241 12321,11240 12333,11239 12345,11238 12358,11237 12382,11235 12395,11234 12407,11233 12419,11232 12431,11231 12444,11230 12456,11229 12468,11228 12492,11226 12504,11225 12516,11224 12529,11223 12541,11222 12553,11221 12565,11219 12589,11217 12601,11216 12613,11215 12625,11214 12637,11213 12649,11212 12661,11211 12685,11209 12696,11208 12708,11207 12720,11205 12732,11204 12744,11203 12767,11201 12779,11200 12791,11199 12803,11198 12815,11197 12826,11195 12850,11193 12861,11192 12873,11191 12885,11190 12897,11189 12920,11186 12931,11185 12943,11184 12955,11183 12966,11182 12978,11181 13001,11178 13012,11177 13024,11176 13036,11175 13047,11174 13070,11171 13081,11170 13093,11169 13104,11168 13116,11167 13139,11164 13150,11163 13161,11162 13173,11161 13195,11158 13207,11157 13218,11156 13229,11155 13241,11154 13263,11151 13275,11150 13286,11149 13297,11148 13308,11146 13331,11144 13342,11143 13353,11142 13364,11140 13387,11138 13398,11137 13409,11135 13420,11134 13442,11132 13453,11130 13464,11129 13475,11128 13498,11125 13509,11124 13520,11123 13531,11122 13553,11119 13564,11118 13575,11116 13586,11115 13608,11113 13618,11111 13629,11110 13640,11109 13662,11106 13673,11105 13684,11104 13695,11102 13716,11100 13727,11098 13738,11097 13760,11094 13771,11093 13781,11092 13792,11090 13803,11089 13814,11088 13825,11087 13835,11085 13846,11084 13867,11081 13878,11080 13889,11078 13910,11076 13921,11074 13932,11073 13942,11072 13964,11069 13974,11068 13985,11066 14006,11064 14017,11062 14027,11061 14048,11058 14059,11057 14070,11055 14080,11054 14101,11051 14112,11050 14122,11048 14143,11046 14154,11044 14164,11043 14185,11040 14196,11039 14206,11037 14217,11036 14227,11034 14238,11033 14248,11032 14269,11029 14279,11027 14290,11026 14310,11023 14321,11022 14331,11020 14352,11017 14362,11016 14372,11014 14393,11012 14403,11010 14414,11009 14434,11006 14445,11004 14455,11003 14475,11000 14486,10998 14496,10997 14506,10995 14516,10994 14527,10993 14537,10991 14557,10988 14567,10987 14578,10985 14588,10984 14598,10982 14608,10981 14618,10979 14639,10976 14649,10975 14659,10973 14679,10970 14689,10969 14710,10966 14720,10964 14730,10963 14750,10960 14760,10958 14770,10957 14790,10954 14800,10952 14810,10951 14830,10947 14840,10946 14860,10943 14870,10941 14880,10940 14900,10937 14910,10935 14920,10934 14940,10931 14950,10929 14970,10926 14980,10924 14990,10923 15010,10920 15020,10918 15030,10916 15040,10915 15050,10913 15059,10912 15079,10909 15089,10907 15109,10904 15119,10902 15129,10901 15148,10898 15158,10896 15178,10893 15188,10891 15197,10890 15217,10886 15227,10885 15246,10882 15256,10880 15266,10878 15276,10877 15285,10875 15295,10874 15315,10870 15325,10869 15334,10867 15354,10864 15363,10862 15383,10859 15393,10857 15412,10854 15422,10852 15431,10851 15451,10847 15460,10846 15480,10843 15489,10841 15499,10839 15509,10838 15518,10836 15528,10834 15547,10831 15557,10829 15576,10826 15586,10824 15595,10823 15615,10819 15624,10818 15643,10814 15653,10813 15663,10811 15672,10809 15682,10808 15701,10804 15710,10803 15720,10801 15739,10798 15749,10796 15768,10793 15777,10791 15796,10787 15806,10786 15815,10784 15825,10782 15834,10781 15844,10779 15863,10776 15872,10774 15891,10770 15900,10769 15919,10765 15929,10764 15948,10760 15957,10758 15976,10755 15985,10753 15995,10752 16014,10748 16023,10746 16033,10745 16042,10743 16051,10741 16070,10738 16080,10736 16098,10733 16108,10731 16126,10727 16136,10726 16155,10722 16164,10720 16173,10719 16183,10717 16192,10715 16211,10712 16220,10710 16229,10708 16248,10705 16257,10703 16276,10699 16285,10698 16304,10694 16313,10692 16332,10689 16341,10687 16359,10683 16369,10682 16387,10678 16396,10676 16415,10673 16424,10671 16443,10667 16452,10666 16470,10662 16480,10660 16498,10657 16507,10655 16526,10651 16535,10650 16553,10646 16563,10644 16581,10641 16590,10639 16608,10635 16618,10633 16636,10630 16645,10628 16654,10626 16663,10624 16673,10623 16691,10619 16700,10617 16718,10613 16728,10612 16746,10608 16755,10606 16773,10603 16782,10601 16791,10599 16801,10597 16810,10595 16828,10592 16837,10590 16855,10586 16864,10584 16882,10581 16891,10579 16910,10575 16919,10573 16928,10571 16937,10570 16946,10568 16964,10564 16982,10560 16991,10559 17009,10555 17018,10553 17036,10549 17045,10548 17054,10546 17064,10544 17073,10542 17091,10538 17100,10536 17118,10533 17127,10531 17145,10527 17154,10525 17172,10522 17181,10520 17199,10516 17208,10514 17226,10510 17243,10507 17252,10505 17270,10501 17279,10499 17297,10496 17306,10494 17324,10490 17333,10488 17351,10484 17360,10482 17369,10481 17378,10479 17387,10477 17405,10473 17422,10469 17431,10467 17449,10464 17458,10462 17476,10458 17485,10456 17503,10452 17511,10450 17529,10447 17538,10445 17556,10441 17565,10439 17574,10437 17583,10435 17600,10431 17609,10430 17627,10426 17636,10424 17653,10420 17662,10418 17680,10414 17698,10411 17707,10409 17724,10405 17733,10403 17742,10401 17751,10399 17760,10397 17777,10393 17795,10390 17804,10388 17821,10384 17830,10382 17848,10378 17857,10376"/>
 <text class="TextShape"><tspan class="TextParagraph" font-family="Calibri, sans-serif" font-size="353px" font-weight="400"><tspan class="TextPosition" x="2557" y="12042"><tspan fill="rgb(0,0,0)" stroke="none">0,1</tspan></tspan></tspan></text>
 <text class="TextShape"><tspan class="TextParagraph" font-family="Calibri, sans-serif" font-size="353px" font-weight="400"><tspan class="TextPosition" x="10240" y="12042"><tspan fill="rgb(0,0,0)" stroke="none">1</tspan></tspan></tspan></text>
 <text class="TextShape"><tspan class="TextParagraph" font-family="Calibri, sans-serif" font-size="353px" font-weight="400"><tspan class="TextPosition" x="17699" y="12042"><tspan fill="rgb(0,0,0)" stroke="none">10</tspan></tspan></tspan></text>
 <text class="TextShape"><tspan class="TextParagraph" font-family="Calibri, sans-serif" font-size="353px" font-weight="400"><tspan class="TextPosition" x="1872" y="1970"><tspan fill="rgb(0,0,0)" stroke="none">-100</tspan></tspan></tspan></text>
 <text class="TextShape"><tspan class="TextParagraph" font-family="Calibri, sans-serif" font-size="353px" font-weight="400"><tspan class="TextPosition" x="2057" y="2935"><tspan fill="rgb(0,0,0)" stroke="none">-90</tspan></tspan></tspan></text>
 <text class="TextShape"><tspan class="TextParagraph" font-family="Calibri, sans-serif" font-size="353px" font-weight="400"><tspan class="TextPosition" x="2057" y="3900"><tspan fill="rgb(0,0,0)" stroke="none">-80</tspan></tspan></tspan></text>
 <text class="TextShape"><tspan class="TextParagraph" font-family="Calibri, sans-serif" font-size="353px" font-weight="400"><tspan class="TextPosition" x="2057" y="4865"><tspan fill="rgb(0,0,0)" stroke="none">-70</tspan></tspan></tspan></text>
 <text class="TextShape"><tspan class="TextParagraph" font-family="Calibri, sans-serif" font-size="353px" font-weight="400"><tspan class="TextPosition" x="2057" y="5830"><tspan fill="rgb(0,0,0)" stroke="none">-60</tspan></tspan></tspan></text>
 <text class="TextShape"><tspan class="TextParagraph" font-family="Calibri, sans-serif" font-size="353px" font-weight="400"><tspan class="TextPosition" x="2057" y="6795"><tspan fill="rgb(0,0,0)" stroke="none">-50</tspan></tspan></tspan></text>
 <text class="TextShape"><tspan class="TextParagraph" font-family="Calibri, sans-serif" font-size="353px" font-weight="400"><tspan class="TextPosition" x="2057" y="7760"><tspan fill="rgb(0,0,0)" stroke="none">-40</tspan></tspan></tspan></text>
 <text class="TextShape"><tspan class="TextParagraph" font-family="Calibri, sans-serif" font-size="353px" font-weight="400"><tspan class="TextPosition" x="2057" y="8725"><tspan fill="rgb(0,0,0)" stroke="none">-30</tspan></tspan></tspan></text>
 <text class="TextShape"><tspan class="TextParagraph" font-family="Calibri, sans-serif" font-size="353px" font-weight="400"><tspan class="TextPosition" x="2057" y="9690"><tspan fill="rgb(0,0,0)" stroke="none">-20</tspan></tspan></tspan></text>
 <text class="TextShape"><tspan class="TextParagraph" font-family="Calibri, sans-serif" font-size="353px" font-weight="400"><tspan class="TextPosition" x="2057" y="10655"><tspan fill="rgb(0,0,0)" stroke="none">-10</tspan></tspan></tspan></text>
 <text class="TextShape"><tspan class="TextParagraph" font-family="Calibri, sans-serif" font-size="353px" font-weight="400"><tspan class="TextPosition" x="2348" y="11621"><tspan fill="rgb(0,0,0)" stroke="none">0</tspan></tspan></tspan></text>
 <text class="TextShape"><tspan class="TextParagraph" font-family="Calibri, sans-serif" font-size="635px" font-weight="700"><tspan class="TextPosition" x="8625" y="1079"><tspan fill="rgb(0,0,0)" stroke="none">Tchebychev</tspan></tspan></tspan></text>
 <path fill="none" stroke="rgb(255,149,14)" stroke-width="79" stroke-linejoin="round" d="M 18589,4915 L 19389,4915"/>
 <path fill="none" stroke="rgb(75,31,111)" stroke-width="79" stroke-linejoin="round" d="M 18589,5360 L 19389,5360"/>
 <path fill="none" stroke="rgb(174,207,0)" stroke-width="79" stroke-linejoin="round" d="M 18589,5805 L 19389,5805"/>
 <path fill="none" stroke="rgb(49,64,4)" stroke-width="79" stroke-linejoin="round" d="M 18589,6250 L 19389,6250"/>
 <path fill="none" stroke="rgb(131,202,255)" stroke-width="79" stroke-linejoin="round" d="M 18589,6695 L 19389,6695"/>
 <path fill="none" stroke="rgb(126,0,33)" stroke-width="79" stroke-linejoin="round" d="M 18589,7139 L 19389,7139"/>
 <path fill="none" stroke="rgb(87,157,28)" stroke-width="79" stroke-linejoin="round" d="M 18589,7584 L 19389,7584"/>
 <path fill="none" stroke="rgb(255,211,32)" stroke-width="79" stroke-linejoin="round" d="M 18589,8029 L 19389,8029"/>
 <path fill="none" stroke="rgb(255,66,14)" stroke-width="79" stroke-linejoin="round" d="M 18589,8474 L 19389,8474"/>
 <path fill="none" stroke="rgb(0,69,134)" stroke-width="79" stroke-linejoin="round" d="M 18589,8919 L 19389,8919"/>
 <text class="TextShape"><tspan class="TextParagraph" font-family="Calibri, sans-serif" font-size="353px" font-weight="400"><tspan class="TextPosition" x="19489" y="5008"><tspan fill="rgb(0,0,0)" stroke="none">1</tspan></tspan></tspan></text>
 <text class="TextShape"><tspan class="TextParagraph" font-family="Calibri, sans-serif" font-size="353px" font-weight="400"><tspan class="TextPosition" x="19489" y="5453"><tspan fill="rgb(0,0,0)" stroke="none">2</tspan></tspan></tspan></text>
 <text class="TextShape"><tspan class="TextParagraph" font-family="Calibri, sans-serif" font-size="353px" font-weight="400"><tspan class="TextPosition" x="19489" y="5898"><tspan fill="rgb(0,0,0)" stroke="none">3</tspan></tspan></tspan></text>
 <text class="TextShape"><tspan class="TextParagraph" font-family="Calibri, sans-serif" font-size="353px" font-weight="400"><tspan class="TextPosition" x="19489" y="6343"><tspan fill="rgb(0,0,0)" stroke="none">4</tspan></tspan></tspan></text>
 <text class="TextShape"><tspan class="TextParagraph" font-family="Calibri, sans-serif" font-size="353px" font-weight="400"><tspan class="TextPosition" x="19489" y="6788"><tspan fill="rgb(0,0,0)" stroke="none">5</tspan></tspan></tspan></text>
 <text class="TextShape"><tspan class="TextParagraph" font-family="Calibri, sans-serif" font-size="353px" font-weight="400"><tspan class="TextPosition" x="19489" y="7232"><tspan fill="rgb(0,0,0)" stroke="none">6</tspan></tspan></tspan></text>
 <text class="TextShape"><tspan class="TextParagraph" font-family="Calibri, sans-serif" font-size="353px" font-weight="400"><tspan class="TextPosition" x="19489" y="7677"><tspan fill="rgb(0,0,0)" stroke="none">7</tspan></tspan></tspan></text>
 <text class="TextShape"><tspan class="TextParagraph" font-family="Calibri, sans-serif" font-size="353px" font-weight="400"><tspan class="TextPosition" x="19489" y="8122"><tspan fill="rgb(0,0,0)" stroke="none">8</tspan></tspan></tspan></text>
 <text class="TextShape"><tspan class="TextParagraph" font-family="Calibri, sans-serif" font-size="353px" font-weight="400"><tspan class="TextPosition" x="19489" y="8567"><tspan fill="rgb(0,0,0)" stroke="none">9</tspan></tspan></tspan></text>
 <text class="TextShape"><tspan class="TextParagraph" font-family="Calibri, sans-serif" font-size="353px" font-weight="400"><tspan class="TextPosition" x="19489" y="9012"><tspan fill="rgb(0,0,0)" stroke="none">10</tspan></tspan></tspan></text>
 <text class="TextShape"><tspan class="TextParagraph" font-family="Calibri, sans-serif" font-size="635px" font-weight="700"><tspan class="TextPosition" x="9115" y="13478"><tspan fill="rgb(0,0,0)" stroke="none">(w/wn)-1</tspan></tspan></tspan></text>
 <text class="TextShape" transform="translate(1118,7641) rotate(-90) translate(-1118,-7641)"><tspan class="TextParagraph" font-family="Calibri, sans-serif" font-size="635px" font-weight="700"><tspan class="TextPosition" x="1118" y="7641"><tspan fill="rgb(0,0,0)" stroke="none">L (dB)</tspan></tspan></tspan></text>
</svg>