<?xml version="1.0" encoding="UTF-8" standalone="no"?>
<svg
   xmlns:dc="http://purl.org/dc/elements/1.1/"
   xmlns:cc="http://creativecommons.org/ns#"
   xmlns:rdf="http://www.w3.org/1999/02/22-rdf-syntax-ns#"
   xmlns:svg="http://www.w3.org/2000/svg"
   xmlns="http://www.w3.org/2000/svg"
   xmlns:sodipodi="http://sodipodi.sourceforge.net/DTD/sodipodi-0.dtd"
   xmlns:inkscape="http://www.inkscape.org/namespaces/inkscape"
   version="1.1"
   width="499.45895"
   height="117.34342"
   id="svg2"
   inkscape:version="0.91 r13725"
   sodipodi:docname="eq_Step.svg">
  <metadata
     id="metadata126">
    <rdf:RDF>
      <cc:Work
         rdf:about="">
        <dc:format>image/svg+xml</dc:format>
        <dc:type
           rdf:resource="http://purl.org/dc/dcmitype/StillImage" />
        <dc:title></dc:title>
      </cc:Work>
    </rdf:RDF>
  </metadata>
  <sodipodi:namedview
     pagecolor="#ffffff"
     bordercolor="#666666"
     borderopacity="1"
     objecttolerance="10"
     gridtolerance="10"
     guidetolerance="10"
     inkscape:pageopacity="0"
     inkscape:pageshadow="2"
     inkscape:window-width="1920"
     inkscape:window-height="1003"
     id="namedview124"
     showgrid="false"
     fit-margin-top="0"
     fit-margin-left="0"
     fit-margin-right="0"
     fit-margin-bottom="0"
     inkscape:zoom="0.690625"
     inkscape:cx="307.92948"
     inkscape:cy="55.44948"
     inkscape:window-x="0"
     inkscape:window-y="25"
     inkscape:window-maximized="1"
     inkscape:current-layer="svg2" />
  <defs
     id="defs4" />
  <g
     transform="matrix(0.77,0,0,0.77,-840.59052,-465.02606)"
     id="g6">
    <rect
       x="1101.6"
       y="645.59998"
       width="4.8000002"
       height="4.8000002"
       transform="matrix(0,-1,1,0,480,1728)"
       pointer-events="none"
       id="rect8"
       style="fill:#000000;stroke:none" />
    <circle
       cx="1104"
       cy="624"
       transform="matrix(0,-1,1,0,480,1728)"
       pointer-events="none"
       id="ellipse10"
       r="9.9239998"
       style="fill:#ffffff;stroke:#000000;stroke-width:4.80000019" />
    <path
       d="m 1104,636 0,9.6"
       stroke-miterlimit="10"
       transform="matrix(0,-1,1,0,480,1728)"
       pointer-events="none"
       id="path12"
       inkscape:connector-curvature="0"
       style="fill:#ffffff;stroke:#000000;stroke-width:4.80000019;stroke-linecap:square;stroke-miterlimit:10" />
    <rect
       x="1413.6"
       y="621.59998"
       width="4.8000002"
       height="4.8000002"
       pointer-events="none"
       id="rect14"
       style="fill:#000000;stroke:none" />
    <rect
       x="1413.6"
       y="741.59998"
       width="4.8000002"
       height="4.8000002"
       pointer-events="none"
       id="rect16"
       style="fill:#000000;stroke:none" />
    <path
       d="m 1389.6,674.4 c 52.8,0 52.8,0 52.8,0"
       stroke-miterlimit="10"
       pointer-events="none"
       id="path18"
       inkscape:connector-curvature="0"
       style="fill:none;stroke:#000000;stroke-width:4.80000019;stroke-linecap:round;stroke-miterlimit:10" />
    <path
       d="m 1389.6,693.6 c 52.8,0 52.8,0 52.8,0"
       stroke-miterlimit="10"
       pointer-events="none"
       id="path20"
       inkscape:connector-curvature="0"
       style="fill:none;stroke:#000000;stroke-width:4.80000019;stroke-linecap:round;stroke-miterlimit:10" />
    <path
       d="m 1416,626.4 0,45.6"
       stroke-miterlimit="10"
       pointer-events="none"
       id="path22"
       inkscape:connector-curvature="0"
       style="fill:#000000;stroke:#000000;stroke-width:4.80000019;stroke-linecap:square;stroke-miterlimit:10" />
    <path
       d="m 1416,696 0,45.6"
       stroke-miterlimit="10"
       pointer-events="none"
       id="path24"
       inkscape:connector-curvature="0"
       style="fill:#000000;stroke:#000000;stroke-width:4.80000019;stroke-linecap:square;stroke-miterlimit:10" />
    <rect
       x="1269.6"
       y="549.59998"
       width="4.8000002"
       height="4.8000002"
       transform="matrix(0,1,-1,0,1896,-648)"
       pointer-events="none"
       id="rect26"
       style="fill:#000000;stroke:none" />
    <rect
       x="1269.6"
       y="693.59998"
       width="4.8000002"
       height="4.8000002"
       transform="matrix(0,1,-1,0,1896,-648)"
       pointer-events="none"
       id="rect28"
       style="fill:#000000;stroke:none" />
    <path
       d="m 1267.52,600 c -7.26,0.02 -13.17,-5.34 -13.19,-11.97 -0.02,-6.62 5.85,-12.01 13.12,-12.03 0.01,0 0.02,0 0.04,0"
       stroke-miterlimit="10"
       transform="matrix(0,1,-1,0,1896,-648)"
       pointer-events="none"
       id="path30"
       inkscape:connector-curvature="0"
       style="fill:none;stroke:#000000;stroke-width:4.80000019;stroke-linecap:round;stroke-linejoin:round;stroke-miterlimit:10" />
    <path
       d="m 1267.2,576 4.8,0"
       stroke-miterlimit="10"
       transform="matrix(0,1,-1,0,1896,-648)"
       pointer-events="none"
       id="path32"
       inkscape:connector-curvature="0"
       style="fill:none;stroke:#000000;stroke-width:4.80000019;stroke-linecap:round;stroke-linejoin:round;stroke-miterlimit:10" />
    <path
       d="m 1267.2,600 4.8,0"
       stroke-miterlimit="10"
       transform="matrix(0,1,-1,0,1896,-648)"
       pointer-events="none"
       id="path34"
       inkscape:connector-curvature="0"
       style="fill:none;stroke:#000000;stroke-width:4.80000019;stroke-linecap:round;stroke-linejoin:round;stroke-miterlimit:10" />
    <path
       d="m 1267.52,624 c -7.26,0.02 -13.17,-5.34 -13.19,-11.97 -0.02,-6.62 5.85,-12.01 13.12,-12.03 0.01,0 0.02,0 0.04,0"
       stroke-miterlimit="10"
       transform="matrix(0,1,-1,0,1896,-648)"
       pointer-events="none"
       id="path36"
       inkscape:connector-curvature="0"
       style="fill:none;stroke:#000000;stroke-width:4.80000019;stroke-linecap:round;stroke-linejoin:round;stroke-miterlimit:10" />
    <path
       d="m 1267.2,600 4.8,0"
       stroke-miterlimit="10"
       transform="matrix(0,1,-1,0,1896,-648)"
       pointer-events="none"
       id="path38"
       inkscape:connector-curvature="0"
       style="fill:none;stroke:#000000;stroke-width:4.80000019;stroke-linecap:round;stroke-linejoin:round;stroke-miterlimit:10" />
    <path
       d="m 1267.2,624 4.8,0"
       stroke-miterlimit="10"
       transform="matrix(0,1,-1,0,1896,-648)"
       pointer-events="none"
       id="path40"
       inkscape:connector-curvature="0"
       style="fill:none;stroke:#000000;stroke-width:4.80000019;stroke-linecap:round;stroke-linejoin:round;stroke-miterlimit:10" />
    <path
       d="m 1267.52,648 c -7.26,0.02 -13.17,-5.34 -13.19,-11.97 -0.02,-6.62 5.85,-12.01 13.12,-12.03 0.01,0 0.02,0 0.04,0"
       stroke-miterlimit="10"
       transform="matrix(0,1,-1,0,1896,-648)"
       pointer-events="none"
       id="path42"
       inkscape:connector-curvature="0"
       style="fill:none;stroke:#000000;stroke-width:4.80000019;stroke-linecap:round;stroke-linejoin:round;stroke-miterlimit:10" />
    <path
       d="m 1267.2,624 4.8,0"
       stroke-miterlimit="10"
       transform="matrix(0,1,-1,0,1896,-648)"
       pointer-events="none"
       id="path44"
       inkscape:connector-curvature="0"
       style="fill:none;stroke:#000000;stroke-width:4.80000019;stroke-linecap:round;stroke-linejoin:round;stroke-miterlimit:10" />
    <path
       d="m 1267.2,648 4.8,0"
       stroke-miterlimit="10"
       transform="matrix(0,1,-1,0,1896,-648)"
       pointer-events="none"
       id="path46"
       inkscape:connector-curvature="0"
       style="fill:none;stroke:#000000;stroke-width:4.80000019;stroke-linecap:round;stroke-linejoin:round;stroke-miterlimit:10" />
    <path
       d="m 1267.52,672 c -7.26,0.02 -13.17,-5.34 -13.19,-11.97 -0.02,-6.62 5.85,-12.01 13.12,-12.03 0.01,0 0.02,0 0.04,0"
       stroke-miterlimit="10"
       transform="matrix(0,1,-1,0,1896,-648)"
       pointer-events="none"
       id="path48"
       inkscape:connector-curvature="0"
       style="fill:none;stroke:#000000;stroke-width:4.80000019;stroke-linecap:round;stroke-linejoin:round;stroke-miterlimit:10" />
    <path
       d="m 1267.2,648 4.8,0"
       stroke-miterlimit="10"
       transform="matrix(0,1,-1,0,1896,-648)"
       pointer-events="none"
       id="path50"
       inkscape:connector-curvature="0"
       style="fill:none;stroke:#000000;stroke-width:4.80000019;stroke-linecap:round;stroke-linejoin:round;stroke-miterlimit:10" />
    <path
       d="m 1267.2,672 4.8,0"
       stroke-miterlimit="10"
       transform="matrix(0,1,-1,0,1896,-648)"
       pointer-events="none"
       id="path52"
       inkscape:connector-curvature="0"
       style="fill:none;stroke:#000000;stroke-width:4.80000019;stroke-linecap:round;stroke-linejoin:round;stroke-miterlimit:10" />
    <path
       d="m 1272,554.4 0,19.2"
       stroke-miterlimit="10"
       transform="matrix(0,1,-1,0,1896,-648)"
       pointer-events="none"
       id="path54"
       inkscape:connector-curvature="0"
       style="fill:none;stroke:#000000;stroke-width:4.80000019;stroke-linecap:square;stroke-miterlimit:10" />
    <path
       d="m 1272,674.4 0,19.2"
       stroke-miterlimit="10"
       transform="matrix(0,1,-1,0,1896,-648)"
       pointer-events="none"
       id="path56"
       inkscape:connector-curvature="0"
       style="fill:none;stroke:#000000;stroke-width:4.80000019;stroke-linecap:square;stroke-miterlimit:10" />
    <rect
       x="1557.6"
       y="549.59998"
       width="4.8000002"
       height="4.8000002"
       transform="matrix(0,1,-1,0,2184,-936)"
       pointer-events="none"
       id="rect58"
       style="fill:#000000;stroke:none" />
    <rect
       x="1557.6"
       y="693.59998"
       width="4.8000002"
       height="4.8000002"
       transform="matrix(0,1,-1,0,2184,-936)"
       pointer-events="none"
       id="rect60"
       style="fill:#000000;stroke:none" />
    <path
       d="m 1555.52,600 c -7.26,0.02 -13.17,-5.34 -13.19,-11.97 -0.02,-6.62 5.85,-12.01 13.12,-12.03 0.01,0 0.02,0 0.04,0"
       stroke-miterlimit="10"
       transform="matrix(0,1,-1,0,2184,-936)"
       pointer-events="none"
       id="path62"
       inkscape:connector-curvature="0"
       style="fill:none;stroke:#000000;stroke-width:4.80000019;stroke-linecap:round;stroke-linejoin:round;stroke-miterlimit:10" />
    <path
       d="m 1555.2,576 4.8,0"
       stroke-miterlimit="10"
       transform="matrix(0,1,-1,0,2184,-936)"
       pointer-events="none"
       id="path64"
       inkscape:connector-curvature="0"
       style="fill:none;stroke:#000000;stroke-width:4.80000019;stroke-linecap:round;stroke-linejoin:round;stroke-miterlimit:10" />
    <path
       d="m 1555.2,600 4.8,0"
       stroke-miterlimit="10"
       transform="matrix(0,1,-1,0,2184,-936)"
       pointer-events="none"
       id="path66"
       inkscape:connector-curvature="0"
       style="fill:none;stroke:#000000;stroke-width:4.80000019;stroke-linecap:round;stroke-linejoin:round;stroke-miterlimit:10" />
    <path
       d="m 1555.52,624 c -7.26,0.02 -13.17,-5.34 -13.19,-11.97 -0.02,-6.62 5.85,-12.01 13.12,-12.03 0.01,0 0.02,0 0.04,0"
       stroke-miterlimit="10"
       transform="matrix(0,1,-1,0,2184,-936)"
       pointer-events="none"
       id="path68"
       inkscape:connector-curvature="0"
       style="fill:none;stroke:#000000;stroke-width:4.80000019;stroke-linecap:round;stroke-linejoin:round;stroke-miterlimit:10" />
    <path
       d="m 1555.2,600 4.8,0"
       stroke-miterlimit="10"
       transform="matrix(0,1,-1,0,2184,-936)"
       pointer-events="none"
       id="path70"
       inkscape:connector-curvature="0"
       style="fill:none;stroke:#000000;stroke-width:4.80000019;stroke-linecap:round;stroke-linejoin:round;stroke-miterlimit:10" />
    <path
       d="m 1555.2,624 4.8,0"
       stroke-miterlimit="10"
       transform="matrix(0,1,-1,0,2184,-936)"
       pointer-events="none"
       id="path72"
       inkscape:connector-curvature="0"
       style="fill:none;stroke:#000000;stroke-width:4.80000019;stroke-linecap:round;stroke-linejoin:round;stroke-miterlimit:10" />
    <path
       d="m 1555.52,648 c -7.26,0.02 -13.17,-5.34 -13.19,-11.97 -0.02,-6.62 5.85,-12.01 13.12,-12.03 0.01,0 0.02,0 0.04,0"
       stroke-miterlimit="10"
       transform="matrix(0,1,-1,0,2184,-936)"
       pointer-events="none"
       id="path74"
       inkscape:connector-curvature="0"
       style="fill:none;stroke:#000000;stroke-width:4.80000019;stroke-linecap:round;stroke-linejoin:round;stroke-miterlimit:10" />
    <path
       d="m 1555.2,624 4.8,0"
       stroke-miterlimit="10"
       transform="matrix(0,1,-1,0,2184,-936)"
       pointer-events="none"
       id="path76"
       inkscape:connector-curvature="0"
       style="fill:none;stroke:#000000;stroke-width:4.80000019;stroke-linecap:round;stroke-linejoin:round;stroke-miterlimit:10" />
    <path
       d="m 1555.2,648 4.8,0"
       stroke-miterlimit="10"
       transform="matrix(0,1,-1,0,2184,-936)"
       pointer-events="none"
       id="path78"
       inkscape:connector-curvature="0"
       style="fill:none;stroke:#000000;stroke-width:4.80000019;stroke-linecap:round;stroke-linejoin:round;stroke-miterlimit:10" />
    <path
       d="m 1555.52,672 c -7.26,0.02 -13.17,-5.34 -13.19,-11.97 -0.02,-6.62 5.85,-12.01 13.12,-12.03 0.01,0 0.02,0 0.04,0"
       stroke-miterlimit="10"
       transform="matrix(0,1,-1,0,2184,-936)"
       pointer-events="none"
       id="path80"
       inkscape:connector-curvature="0"
       style="fill:none;stroke:#000000;stroke-width:4.80000019;stroke-linecap:round;stroke-linejoin:round;stroke-miterlimit:10" />
    <path
       d="m 1555.2,648 4.8,0"
       stroke-miterlimit="10"
       transform="matrix(0,1,-1,0,2184,-936)"
       pointer-events="none"
       id="path82"
       inkscape:connector-curvature="0"
       style="fill:none;stroke:#000000;stroke-width:4.80000019;stroke-linecap:round;stroke-linejoin:round;stroke-miterlimit:10" />
    <path
       d="m 1555.2,672 4.8,0"
       stroke-miterlimit="10"
       transform="matrix(0,1,-1,0,2184,-936)"
       pointer-events="none"
       id="path84"
       inkscape:connector-curvature="0"
       style="fill:none;stroke:#000000;stroke-width:4.80000019;stroke-linecap:round;stroke-linejoin:round;stroke-miterlimit:10" />
    <path
       d="m 1560,554.4 0,19.2"
       stroke-miterlimit="10"
       transform="matrix(0,1,-1,0,2184,-936)"
       pointer-events="none"
       id="path86"
       inkscape:connector-curvature="0"
       style="fill:none;stroke:#000000;stroke-width:4.80000019;stroke-linecap:square;stroke-miterlimit:10" />
    <path
       d="m 1560,674.4 0,19.2"
       stroke-miterlimit="10"
       transform="matrix(0,1,-1,0,2184,-936)"
       pointer-events="none"
       id="path88"
       inkscape:connector-curvature="0"
       style="fill:none;stroke:#000000;stroke-width:4.80000019;stroke-linecap:square;stroke-miterlimit:10" />
    <rect
       x="1101.6"
       y="765.59998"
       width="4.8000002"
       height="4.8000002"
       transform="matrix(0,-1,1,0,360,1848)"
       pointer-events="none"
       id="rect90"
       style="fill:#000000;stroke:none" />
    <circle
       cx="1104"
       cy="744"
       transform="matrix(0,-1,1,0,360,1848)"
       pointer-events="none"
       id="ellipse92"
       r="9.9239998"
       style="fill:#ffffff;stroke:#000000;stroke-width:4.80000019" />
    <path
       d="m 1104,756 0,9.6"
       stroke-miterlimit="10"
       transform="matrix(0,-1,1,0,360,1848)"
       pointer-events="none"
       id="path94"
       inkscape:connector-curvature="0"
       style="fill:#ffffff;stroke:#000000;stroke-width:4.80000019;stroke-linecap:square;stroke-miterlimit:10" />
    <rect
       x="1725.6"
       y="645.59998"
       width="4.8000002"
       height="4.8000002"
       transform="matrix(0,1,-1,0,2352,-1104)"
       pointer-events="none"
       id="rect96"
       style="fill:#000000;stroke:none" />
    <circle
       cx="1728"
       cy="624"
       transform="matrix(0,1,-1,0,2352,-1104)"
       pointer-events="none"
       id="ellipse98"
       r="9.9239998"
       style="fill:#ffffff;stroke:#000000;stroke-width:4.80000019" />
    <path
       d="m 1728,636 0,9.6"
       stroke-miterlimit="10"
       transform="matrix(0,1,-1,0,2352,-1104)"
       pointer-events="none"
       id="path100"
       inkscape:connector-curvature="0"
       style="fill:#ffffff;stroke:#000000;stroke-width:4.80000019;stroke-linecap:square;stroke-miterlimit:10" />
    <rect
       x="1725.6"
       y="765.59998"
       width="4.8000002"
       height="4.8000002"
       transform="matrix(0,1,-1,0,2472,-984)"
       pointer-events="none"
       id="rect102"
       style="fill:#000000;stroke:none" />
    <circle
       cx="1728"
       cy="744"
       transform="matrix(0,1,-1,0,2472,-984)"
       pointer-events="none"
       id="ellipse104"
       r="9.9239998"
       style="fill:#ffffff;stroke:#000000;stroke-width:4.80000019" />
    <path
       d="m 1728,756 0,9.6"
       stroke-miterlimit="10"
       transform="matrix(0,1,-1,0,2472,-984)"
       pointer-events="none"
       id="path106"
       inkscape:connector-curvature="0"
       style="fill:#ffffff;stroke:#000000;stroke-width:4.80000019;stroke-linecap:square;stroke-miterlimit:10" />
    <path
       d="m 1128,744 576,0"
       stroke-miterlimit="10"
       pointer-events="none"
       id="path108"
       inkscape:connector-curvature="0"
       style="fill:none;stroke:#000000;stroke-width:4.80000019;stroke-miterlimit:10" />
    <path
       d="m 1128,624 72,0"
       stroke-miterlimit="10"
       pointer-events="none"
       id="path110"
       inkscape:connector-curvature="0"
       style="fill:none;stroke:#000000;stroke-width:4.80000019;stroke-miterlimit:10" />
    <path
       d="m 1344,624 144,0"
       stroke-miterlimit="10"
       pointer-events="none"
       id="path112"
       inkscape:connector-curvature="0"
       style="fill:none;stroke:#000000;stroke-width:4.80000019;stroke-miterlimit:10" />
    <path
       d="m 1632,624 72,0"
       stroke-miterlimit="10"
       pointer-events="none"
       id="path114"
       inkscape:connector-curvature="0"
       style="fill:none;stroke:#000000;stroke-width:4.80000019;stroke-miterlimit:10" />
    <path
       d="m 1416,624 0,0"
       stroke-miterlimit="10"
       pointer-events="none"
       id="path116"
       inkscape:connector-curvature="0"
       style="fill:none;stroke:#000000;stroke-width:4.80000019;stroke-miterlimit:10" />
    <circle
       cx="1416"
       cy="624"
       pointer-events="none"
       id="ellipse118"
       r="4.8000002"
       style="fill:#000000;stroke:#000000;stroke-width:4.80000019" />
    <path
       d="m 1416,744 0,0"
       stroke-miterlimit="10"
       pointer-events="none"
       id="path120"
       inkscape:connector-curvature="0"
       style="fill:none;stroke:#000000;stroke-width:4.80000019;stroke-miterlimit:10" />
    <circle
       cx="1416"
       cy="744"
       pointer-events="none"
       id="ellipse122"
       r="4.8000002"
       style="fill:#000000;stroke:#000000;stroke-width:4.80000019" />
  </g>
</svg>
