
<svg xmlns="http://www.w3.org/2000/svg"
     xmlns:xlink="http://www.w3.org/1999/xlink" version="1.1" width="706"
     height="324">
    <defs/>
    <g transform=" scale(0.89) translate(-608,-338)">
        <rect x="826.2" y="376.2" width="3.6" height="3.6" fill="#000000"
              stroke="none" pointer-events="none"/>
        <rect x="826.2" y="484.2" width="3.6" height="3.6" fill="#000000"
              stroke="none" pointer-events="none"/>
        <rect x="772.2" y="376.2" width="3.6" height="3.6" fill="#000000"
              stroke="none" pointer-events="none"/>
        <rect x="772.2" y="484.2" width="3.6" height="3.6" fill="#000000"
              stroke="none" pointer-events="none"/>
        <path d="M 820.14 414 C 814.69 414.01 810.26 410 810.25 405.03 C 810.23 400.06 814.64 396.02 820.09 396 C 820.1 396 820.1 396 820.11 396"
              fill="none" stroke="#000000" stroke-width="3.6"
              stroke-linejoin="round" stroke-linecap="round"
              stroke-miterlimit="10" pointer-events="none"/>
        <path d="M 819.9 396 L 828.03 396" fill="none" stroke="#000000"
              stroke-width="3.6" stroke-linejoin="round" stroke-linecap="round"
              stroke-miterlimit="10" pointer-events="none"/>
        <path d="M 819.9 414 L 823.5 414" fill="none" stroke="#000000"
              stroke-width="3.6" stroke-linejoin="round" stroke-linecap="round"
              stroke-miterlimit="10" pointer-events="none"/>
        <path d="M 820.14 432 C 814.69 432.01 810.26 428 810.25 423.03 C 810.23 418.06 814.64 414.02 820.09 414 C 820.1 414 820.1 414 820.11 414"
              fill="none" stroke="#000000" stroke-width="3.6"
              stroke-linejoin="round" stroke-linecap="round"
              stroke-miterlimit="10" pointer-events="none"/>
        <path d="M 819.9 414 L 823.5 414" fill="none" stroke="#000000"
              stroke-width="3.6" stroke-linejoin="round" stroke-linecap="round"
              stroke-miterlimit="10" pointer-events="none"/>
        <path d="M 819.9 432 L 823.5 432" fill="none" stroke="#000000"
              stroke-width="3.6" stroke-linejoin="round" stroke-linecap="round"
              stroke-miterlimit="10" pointer-events="none"/>
        <path d="M 820.14 450 C 814.69 450.01 810.26 446 810.25 441.03 C 810.23 436.06 814.64 432.02 820.09 432 C 820.1 432 820.1 432 820.11 432"
              fill="none" stroke="#000000" stroke-width="3.6"
              stroke-linejoin="round" stroke-linecap="round"
              stroke-miterlimit="10" pointer-events="none"/>
        <path d="M 819.9 432 L 823.5 432" fill="none" stroke="#000000"
              stroke-width="3.6" stroke-linejoin="round" stroke-linecap="round"
              stroke-miterlimit="10" pointer-events="none"/>
        <path d="M 819.9 450 L 823.5 450" fill="none" stroke="#000000"
              stroke-width="3.6" stroke-linejoin="round" stroke-linecap="round"
              stroke-miterlimit="10" pointer-events="none"/>
        <path d="M 820.14 468 C 814.69 468.01 810.26 464 810.25 459.03 C 810.23 454.06 814.64 450.02 820.09 450 C 820.1 450 820.1 450 820.11 450"
              fill="none" stroke="#000000" stroke-width="3.6"
              stroke-linejoin="round" stroke-linecap="round"
              stroke-miterlimit="10" pointer-events="none"/>
        <path d="M 819.9 450 L 823.5 450" fill="none" stroke="#000000"
              stroke-width="3.6" stroke-linejoin="round" stroke-linecap="round"
              stroke-miterlimit="10" pointer-events="none"/>
        <path d="M 819.9 468 L 827.95 468" fill="none" stroke="#000000"
              stroke-width="3.6" stroke-linejoin="round" stroke-linecap="round"
              stroke-miterlimit="10" pointer-events="none"/>
        <path d="M 828 379.8 L 828 394.2" fill="none" stroke="#000000"
              stroke-width="3.6" stroke-linecap="square" stroke-miterlimit="10"
              pointer-events="none"/>
        <path d="M 828 469.8 L 828 484.2" fill="none" stroke="#000000"
              stroke-width="3.6" stroke-linecap="square" stroke-miterlimit="10"
              pointer-events="none"/>
        <path d="M 803.7 396 L 803.7 468" fill="none" stroke="#000000"
              stroke-width="3.6" stroke-linejoin="round" stroke-linecap="round"
              stroke-miterlimit="10" pointer-events="none"/>
        <path d="M 798.3 396 L 798.3 468" fill="none" stroke="#000000"
              stroke-width="3.6" stroke-linejoin="round" stroke-linecap="round"
              stroke-miterlimit="10" pointer-events="none"/>
        <path d="M 781.86 414 C 787.31 414.01 791.74 410 791.75 405.03 C 791.77 400.06 787.36 396.02 781.91 396 C 781.9 396 781.89 396 781.88 396"
              fill="none" stroke="#000000" stroke-width="3.6"
              stroke-linejoin="round" stroke-linecap="round"
              stroke-miterlimit="10" pointer-events="none"/>
        <path d="M 782.1 396 L 773.96 396" fill="none" stroke="#000000"
              stroke-width="3.6" stroke-linejoin="round" stroke-linecap="round"
              stroke-miterlimit="10" pointer-events="none"/>
        <path d="M 782.1 414 L 778.5 414" fill="none" stroke="#000000"
              stroke-width="3.6" stroke-linejoin="round" stroke-linecap="round"
              stroke-miterlimit="10" pointer-events="none"/>
        <path d="M 781.86 432 C 787.31 432.01 791.74 428 791.75 423.03 C 791.77 418.06 787.36 414.02 781.91 414 C 781.9 414 781.89 414 781.88 414"
              fill="none" stroke="#000000" stroke-width="3.6"
              stroke-linejoin="round" stroke-linecap="round"
              stroke-miterlimit="10" pointer-events="none"/>
        <path d="M 782.1 414 L 778.5 414" fill="none" stroke="#000000"
              stroke-width="3.6" stroke-linejoin="round" stroke-linecap="round"
              stroke-miterlimit="10" pointer-events="none"/>
        <path d="M 782.1 432 L 778.5 432" fill="none" stroke="#000000"
              stroke-width="3.6" stroke-linejoin="round" stroke-linecap="round"
              stroke-miterlimit="10" pointer-events="none"/>
        <path d="M 781.86 450 C 787.31 450.01 791.74 446 791.75 441.03 C 791.77 436.06 787.36 432.02 781.91 432 C 781.9 432 781.89 432 781.88 432"
              fill="none" stroke="#000000" stroke-width="3.6"
              stroke-linejoin="round" stroke-linecap="round"
              stroke-miterlimit="10" pointer-events="none"/>
        <path d="M 782.1 432 L 778.5 432" fill="none" stroke="#000000"
              stroke-width="3.6" stroke-linejoin="round" stroke-linecap="round"
              stroke-miterlimit="10" pointer-events="none"/>
        <path d="M 782.1 450 L 778.5 450" fill="none" stroke="#000000"
              stroke-width="3.6" stroke-linejoin="round" stroke-linecap="round"
              stroke-miterlimit="10" pointer-events="none"/>
        <path d="M 781.86 468 C 787.31 468.01 791.74 464 791.75 459.03 C 791.77 454.06 787.36 450.02 781.91 450 C 781.9 450 781.89 450 781.88 450"
              fill="none" stroke="#000000" stroke-width="3.6"
              stroke-linejoin="round" stroke-linecap="round"
              stroke-miterlimit="10" pointer-events="none"/>
        <path d="M 782.1 450 L 778.5 450" fill="none" stroke="#000000"
              stroke-width="3.6" stroke-linejoin="round" stroke-linecap="round"
              stroke-miterlimit="10" pointer-events="none"/>
        <path d="M 782.1 468 L 773.96 468.16" fill="none" stroke="#000000"
              stroke-width="3.6" stroke-linejoin="round" stroke-linecap="round"
              stroke-miterlimit="10" pointer-events="none"/>
        <path d="M 774 379.8 L 774 394.2" fill="none" stroke="#000000"
              stroke-width="3.6" stroke-linecap="square" stroke-miterlimit="10"
              pointer-events="none"/>
        <path d="M 774 469.8 L 774 484.2" fill="none" stroke="#000000"
              stroke-width="3.6" stroke-linecap="square" stroke-miterlimit="10"
              pointer-events="none"/>
        <ellipse cx="782" cy="405" rx="1.8" ry="1.8" fill="none"
                 stroke="#000000" stroke-width="3.6" pointer-events="none"/>
        <ellipse cx="820" cy="405" rx="1.8" ry="1.8" fill="none"
                 stroke="#000000" stroke-width="3.6" pointer-events="none"/>
        <rect x="774" y="342" width="37.8" height="25.2" fill-opacity="0"
              fill="#dae2f2" stroke="none" pointer-events="none"/>
        <g fill="#000000" font-family="Arial,Helvetica" font-weight="bold"
           text-anchor="middle" font-size="21.6px">
            <text x="792.9" y="361.8">
                ×T1
            </text>
        </g>
        <rect x="1186.2" y="376.2" width="3.6" height="3.6" fill="#000000"
              stroke="none" pointer-events="none"/>
        <rect x="1186.2" y="484.2" width="3.6" height="3.6" fill="#000000"
              stroke="none" pointer-events="none"/>
        <rect x="1132.2" y="376.2" width="3.6" height="3.6" fill="#000000"
              stroke="none" pointer-events="none"/>
        <rect x="1132.2" y="484.2" width="3.6" height="3.6" fill="#000000"
              stroke="none" pointer-events="none"/>
        <path d="M 1180.14 414 C 1174.69 414.01 1170.26 410 1170.25 405.03 C 1170.23 400.06 1174.64 396.02 1180.09 396 C 1180.1 396 1180.1 396 1180.11 396"
              fill="none" stroke="#000000" stroke-width="3.6"
              stroke-linejoin="round" stroke-linecap="round"
              stroke-miterlimit="10" pointer-events="none"/>
        <path d="M 1179.9 396 L 1188.03 396" fill="none" stroke="#000000"
              stroke-width="3.6" stroke-linejoin="round" stroke-linecap="round"
              stroke-miterlimit="10" pointer-events="none"/>
        <path d="M 1179.9 414 L 1183.5 414" fill="none" stroke="#000000"
              stroke-width="3.6" stroke-linejoin="round" stroke-linecap="round"
              stroke-miterlimit="10" pointer-events="none"/>
        <path d="M 1180.14 432 C 1174.69 432.01 1170.26 428 1170.25 423.03 C 1170.23 418.06 1174.64 414.02 1180.09 414 C 1180.1 414 1180.1 414 1180.11 414"
              fill="none" stroke="#000000" stroke-width="3.6"
              stroke-linejoin="round" stroke-linecap="round"
              stroke-miterlimit="10" pointer-events="none"/>
        <path d="M 1179.9 414 L 1183.5 414" fill="none" stroke="#000000"
              stroke-width="3.6" stroke-linejoin="round" stroke-linecap="round"
              stroke-miterlimit="10" pointer-events="none"/>
        <path d="M 1179.9 432 L 1183.5 432" fill="none" stroke="#000000"
              stroke-width="3.6" stroke-linejoin="round" stroke-linecap="round"
              stroke-miterlimit="10" pointer-events="none"/>
        <path d="M 1180.14 450 C 1174.69 450.01 1170.26 446 1170.25 441.03 C 1170.23 436.06 1174.64 432.02 1180.09 432 C 1180.1 432 1180.1 432 1180.11 432"
              fill="none" stroke="#000000" stroke-width="3.6"
              stroke-linejoin="round" stroke-linecap="round"
              stroke-miterlimit="10" pointer-events="none"/>
        <path d="M 1179.9 432 L 1183.5 432" fill="none" stroke="#000000"
              stroke-width="3.6" stroke-linejoin="round" stroke-linecap="round"
              stroke-miterlimit="10" pointer-events="none"/>
        <path d="M 1179.9 450 L 1183.5 450" fill="none" stroke="#000000"
              stroke-width="3.6" stroke-linejoin="round" stroke-linecap="round"
              stroke-miterlimit="10" pointer-events="none"/>
        <path d="M 1180.14 468 C 1174.69 468.01 1170.26 464 1170.25 459.03 C 1170.23 454.06 1174.64 450.02 1180.09 450 C 1180.1 450 1180.1 450 1180.11 450"
              fill="none" stroke="#000000" stroke-width="3.6"
              stroke-linejoin="round" stroke-linecap="round"
              stroke-miterlimit="10" pointer-events="none"/>
        <path d="M 1179.9 450 L 1183.5 450" fill="none" stroke="#000000"
              stroke-width="3.6" stroke-linejoin="round" stroke-linecap="round"
              stroke-miterlimit="10" pointer-events="none"/>
        <path d="M 1179.9 468 L 1187.95 468" fill="none" stroke="#000000"
              stroke-width="3.6" stroke-linejoin="round" stroke-linecap="round"
              stroke-miterlimit="10" pointer-events="none"/>
        <path d="M 1188 379.8 L 1188 394.2" fill="none" stroke="#000000"
              stroke-width="3.6" stroke-linecap="square" stroke-miterlimit="10"
              pointer-events="none"/>
        <path d="M 1188 469.8 L 1188 484.2" fill="none" stroke="#000000"
              stroke-width="3.6" stroke-linecap="square" stroke-miterlimit="10"
              pointer-events="none"/>
        <path d="M 1163.7 396 L 1163.7 468" fill="none" stroke="#000000"
              stroke-width="3.6" stroke-linejoin="round" stroke-linecap="round"
              stroke-miterlimit="10" pointer-events="none"/>
        <path d="M 1158.3 396 L 1158.3 468" fill="none" stroke="#000000"
              stroke-width="3.6" stroke-linejoin="round" stroke-linecap="round"
              stroke-miterlimit="10" pointer-events="none"/>
        <path d="M 1141.86 414 C 1147.31 414.01 1151.74 410 1151.75 405.03 C 1151.77 400.06 1147.36 396.02 1141.91 396 C 1141.9 396 1141.89 396 1141.88 396"
              fill="none" stroke="#000000" stroke-width="3.6"
              stroke-linejoin="round" stroke-linecap="round"
              stroke-miterlimit="10" pointer-events="none"/>
        <path d="M 1142.1 396 L 1133.96 396" fill="none" stroke="#000000"
              stroke-width="3.6" stroke-linejoin="round" stroke-linecap="round"
              stroke-miterlimit="10" pointer-events="none"/>
        <path d="M 1142.1 414 L 1138.5 414" fill="none" stroke="#000000"
              stroke-width="3.6" stroke-linejoin="round" stroke-linecap="round"
              stroke-miterlimit="10" pointer-events="none"/>
        <path d="M 1141.86 432 C 1147.31 432.01 1151.74 428 1151.75 423.03 C 1151.77 418.06 1147.36 414.02 1141.91 414 C 1141.9 414 1141.89 414 1141.88 414"
              fill="none" stroke="#000000" stroke-width="3.6"
              stroke-linejoin="round" stroke-linecap="round"
              stroke-miterlimit="10" pointer-events="none"/>
        <path d="M 1142.1 414 L 1138.5 414" fill="none" stroke="#000000"
              stroke-width="3.6" stroke-linejoin="round" stroke-linecap="round"
              stroke-miterlimit="10" pointer-events="none"/>
        <path d="M 1142.1 432 L 1138.5 432" fill="none" stroke="#000000"
              stroke-width="3.6" stroke-linejoin="round" stroke-linecap="round"
              stroke-miterlimit="10" pointer-events="none"/>
        <path d="M 1141.86 450 C 1147.31 450.01 1151.74 446 1151.75 441.03 C 1151.77 436.06 1147.36 432.02 1141.91 432 C 1141.9 432 1141.89 432 1141.88 432"
              fill="none" stroke="#000000" stroke-width="3.6"
              stroke-linejoin="round" stroke-linecap="round"
              stroke-miterlimit="10" pointer-events="none"/>
        <path d="M 1142.1 432 L 1138.5 432" fill="none" stroke="#000000"
              stroke-width="3.6" stroke-linejoin="round" stroke-linecap="round"
              stroke-miterlimit="10" pointer-events="none"/>
        <path d="M 1142.1 450 L 1138.5 450" fill="none" stroke="#000000"
              stroke-width="3.6" stroke-linejoin="round" stroke-linecap="round"
              stroke-miterlimit="10" pointer-events="none"/>
        <path d="M 1141.86 468 C 1147.31 468.01 1151.74 464 1151.75 459.03 C 1151.77 454.06 1147.36 450.02 1141.91 450 C 1141.9 450 1141.89 450 1141.88 450"
              fill="none" stroke="#000000" stroke-width="3.6"
              stroke-linejoin="round" stroke-linecap="round"
              stroke-miterlimit="10" pointer-events="none"/>
        <path d="M 1142.1 450 L 1138.5 450" fill="none" stroke="#000000"
              stroke-width="3.6" stroke-linejoin="round" stroke-linecap="round"
              stroke-miterlimit="10" pointer-events="none"/>
        <path d="M 1142.1 468 L 1133.96 468.16" fill="none" stroke="#000000"
              stroke-width="3.6" stroke-linejoin="round" stroke-linecap="round"
              stroke-miterlimit="10" pointer-events="none"/>
        <path d="M 1134 379.8 L 1134 394.2" fill="none" stroke="#000000"
              stroke-width="3.6" stroke-linecap="square" stroke-miterlimit="10"
              pointer-events="none"/>
        <path d="M 1134 469.8 L 1134 484.2" fill="none" stroke="#000000"
              stroke-width="3.6" stroke-linecap="square" stroke-miterlimit="10"
              pointer-events="none"/>
        <ellipse cx="1142" cy="405" rx="1.8" ry="1.8" fill="none"
                 stroke="#000000" stroke-width="3.6" pointer-events="none"/>
        <ellipse cx="1180" cy="405" rx="1.8" ry="1.8" fill="none"
                 stroke="#000000" stroke-width="3.6" pointer-events="none"/>
        <rect x="1134" y="342" width="37.8" height="25.2" fill-opacity="0"
              fill="#dae2f2" stroke="none" pointer-events="none"/>
        <g fill="#000000" font-family="Arial,Helvetica" font-weight="bold"
           text-anchor="middle" font-size="21.6px">
            <text x="1152.9" y="361.8">
                ×T2
            </text>
        </g>
        <path d="M 828 486 L 1134 486" fill="none" stroke="#000000"
              stroke-width="3.6" stroke-miterlimit="10" pointer-events="none"/>
        <rect x="988.2" y="376.2" width="3.6" height="3.6" fill="#000000"
              stroke="none" pointer-events="none"/>
        <rect x="988.2" y="484.2" width="3.6" height="3.6" fill="#000000"
              stroke="none" pointer-events="none"/>
        <path d="M 990 379.8 L 990 397.8" fill="#000000" stroke="#000000"
              stroke-width="3.6" stroke-linecap="square" stroke-miterlimit="10"
              pointer-events="none"/>
        <path d="M 990 466.2 L 990 484.2" fill="#000000" stroke="#000000"
              stroke-width="3.6" stroke-linecap="square" stroke-miterlimit="10"
              pointer-events="none"/>
        <path d="M 977.4 399.6 C 1001.51 399.28 1002.6 399.6 1002.6 399.6 L 1002.6 464.4 L 977.4 464.4 Z"
              fill="#ffffff" stroke="#000000" stroke-width="3.6"
              stroke-linejoin="round" stroke-linecap="round"
              stroke-miterlimit="10" pointer-events="none"/>
        <rect x="1026" y="414" width="19.8" height="25.2" fill-opacity="0"
              fill="#dae2f2" stroke="none" pointer-events="none"/>
        <g fill="#000000" font-family="Arial,Helvetica" font-weight="bold"
           text-anchor="middle" font-size="21.6px">
            <text x="1035.9" y="433.8">
                jB
            </text>
        </g>
        <path d="M 828 378 L 1134 378" fill="none" stroke="#000000"
              stroke-width="3.6" stroke-miterlimit="10" pointer-events="none"/>
        <rect x="628.2" y="394.2" width="3.6" height="3.6" fill="#000000"
              stroke="none" transform="rotate(270,630,378)"
              pointer-events="none"/>
        <ellipse cx="630" cy="378" rx="7.443" ry="7.443" fill="#ffffff"
                 stroke="#000000" stroke-width="3.6"
                 transform="rotate(270,630,378)" pointer-events="none"/>
        <path d="M 630 387 L 630 394.2" fill="#ffffff" stroke="#000000"
              stroke-width="3.6" stroke-linecap="square" stroke-miterlimit="10"
              transform="rotate(270,630,378)" pointer-events="none"/>
        <rect x="628.2" y="502.2" width="3.6" height="3.6" fill="#000000"
              stroke="none" transform="rotate(270,630,486)"
              pointer-events="none"/>
        <ellipse cx="630" cy="486" rx="7.443" ry="7.443" fill="#ffffff"
                 stroke="#000000" stroke-width="3.6"
                 transform="rotate(270,630,486)" pointer-events="none"/>
        <path d="M 630 495 L 630 502.2" fill="#ffffff" stroke="#000000"
              stroke-width="3.6" stroke-linecap="square" stroke-miterlimit="10"
              transform="rotate(270,630,486)" pointer-events="none"/>
        <rect x="1330.2" y="394.2" width="3.6" height="3.6" fill="#000000"
              stroke="none" transform="rotate(90,1332,378)"
              pointer-events="none"/>
        <ellipse cx="1332" cy="378" rx="7.443" ry="7.443" fill="#ffffff"
                 stroke="#000000" stroke-width="3.6"
                 transform="rotate(90,1332,378)" pointer-events="none"/>
        <path d="M 1332 387 L 1332 394.2" fill="#ffffff" stroke="#000000"
              stroke-width="3.6" stroke-linecap="square" stroke-miterlimit="10"
              transform="rotate(90,1332,378)" pointer-events="none"/>
        <rect x="1330.2" y="502.2" width="3.6" height="3.6" fill="#000000"
              stroke="none" transform="rotate(90,1332,486)"
              pointer-events="none"/>
        <ellipse cx="1332" cy="486" rx="7.443" ry="7.443" fill="#ffffff"
                 stroke="#000000" stroke-width="3.6"
                 transform="rotate(90,1332,486)" pointer-events="none"/>
        <path d="M 1332 495 L 1332 502.2" fill="#ffffff" stroke="#000000"
              stroke-width="3.6" stroke-linecap="square" stroke-miterlimit="10"
              transform="rotate(90,1332,486)" pointer-events="none"/>
        <path d="M 648 378 L 774 378" fill="none" stroke="#000000"
              stroke-width="3.6" stroke-miterlimit="10" pointer-events="none"/>
        <path d="M 774 486 L 648 486" fill="none" stroke="#000000"
              stroke-width="3.6" stroke-miterlimit="10" pointer-events="none"/>
        <path d="M 1188 486 L 1314 486" fill="none" stroke="#000000"
              stroke-width="3.6" stroke-miterlimit="10" pointer-events="none"/>
        <path d="M 1188 378 L 1314 378" fill="none" stroke="#000000"
              stroke-width="3.6" stroke-miterlimit="10" pointer-events="none"/>
        <path d="M 990 486 L 990 486" fill="none" stroke="#000000"
              stroke-width="3.6" stroke-miterlimit="10" pointer-events="none"/>
        <ellipse cx="990" cy="486" rx="3.6" ry="3.6" fill="#000000"
                 stroke="#000000" stroke-width="3.6" pointer-events="none"/>
        <path d="M 990 378 L 990 378" fill="none" stroke="#000000"
              stroke-width="3.6" stroke-miterlimit="10" pointer-events="none"/>
        <ellipse cx="990" cy="378" rx="3.6" ry="3.6" fill="#000000"
                 stroke="#000000" stroke-width="3.6" pointer-events="none"/>
        <path d="M 866.21 645.16 L 990 486" fill="none" stroke="#000000"
              stroke-width="3.6" stroke-miterlimit="10" pointer-events="none"/>
        <ellipse cx="864" cy="648" rx="3.6" ry="3.6" fill="none"
                 stroke="#000000" stroke-width="3.6" pointer-events="none"/>
        <path d="M 866.21 537.16 L 990 378" fill="none" stroke="#000000"
              stroke-width="3.6" stroke-miterlimit="10" pointer-events="none"/>
        <ellipse cx="864" cy="540" rx="3.6" ry="3.6" fill="none"
                 stroke="#000000" stroke-width="3.6" pointer-events="none"/>
        <path d="M 642.12 504 L 761.88 504" fill="none" stroke="#000000"
              stroke-width="3.6" stroke-miterlimit="10" pointer-events="none"/>
        <path d="M 634.02 504 L 644.82 498.6 L 642.12 504 L 644.82 509.4 Z"
              fill="#000000" stroke="#000000" stroke-width="3.6"
              stroke-miterlimit="10" pointer-events="none"/>
        <path d="M 769.98 504 L 759.18 509.4 L 761.88 504 L 759.18 498.6 Z"
              fill="#000000" stroke="#000000" stroke-width="3.6"
              stroke-miterlimit="10" pointer-events="none"/>
        <g fill="#000000" font-family="Arial,Helvetica" text-anchor="middle"
           font-size="19.8px">
            <rect fill="#FFFFFF" stroke="none" x="691" y="510" width="26"
                  height="26" stroke-width="0"/>
            <text x="702" y="525.6">
                L1
            </text>
        </g>
        <path d="M 1200.12 504 L 1319.88 504" fill="none" stroke="#000000"
              stroke-width="3.6" stroke-miterlimit="10" pointer-events="none"/>
        <path d="M 1192.02 504 L 1202.82 498.6 L 1200.12 504 L 1202.82 509.4 Z"
              fill="#000000" stroke="#000000" stroke-width="3.6"
              stroke-miterlimit="10" pointer-events="none"/>
        <path d="M 1327.98 504 L 1317.18 509.4 L 1319.88 504 L 1317.18 498.6 Z"
              fill="#000000" stroke="#000000" stroke-width="3.6"
              stroke-miterlimit="10" pointer-events="none"/>
        <g fill="#000000" font-family="Arial,Helvetica" text-anchor="middle"
           font-size="19.8px">
            <rect fill="#FFFFFF" stroke="none" x="1249" y="510" width="26"
                  height="26" stroke-width="0"/>
            <text x="1260" y="525.6">
                L3
            </text>
        </g>
        <path d="M 871.44 674.43 L 982.56 531.57" fill="none" stroke="#000000"
              stroke-width="3.6" stroke-miterlimit="10" pointer-events="none"/>
        <path d="M 866.47 680.82 L 868.84 668.98 L 871.44 674.43 L 877.36 675.61 Z"
              fill="#000000" stroke="#000000" stroke-width="3.6"
              stroke-miterlimit="10" pointer-events="none"/>
        <path d="M 987.53 525.18 L 985.16 537.02 L 982.56 531.57 L 976.64 530.39 Z"
              fill="#000000" stroke="#000000" stroke-width="3.6"
              stroke-miterlimit="10" pointer-events="none"/>
        <g fill="#000000" font-family="Arial,Helvetica" font-size="19.8px">
            <rect fill="#FFFFFF" stroke="none" x="931" y="609" width="26"
                  height="26" stroke-width="0"/>
            <text x="930.6" y="624.6">
                L2
            </text>
        </g>
    </g>
</svg>