<?xml version="1.0" encoding="UTF-8" standalone="no"?>
<!DOCTYPE svg PUBLIC "-//W3C//DTD SVG 1.0//EN" "http://www.w3.org/TR/2001/PR-SVG-20010719/DTD/svg10.dtd">
<svg width="18cm" height="5cm" viewBox="271 95 350 97" xmlns="http://www.w3.org/2000/svg" xmlns:xlink="http://www.w3.org/1999/xlink">
  <line style="fill: none; fill-opacity:0; stroke-width: 1; stroke: #000000" x1="342.317" y1="153.552" x2="550.297" y2="153.554"/>
  <g>
    <line style="fill: none; fill-opacity:0; stroke-width: 1; stroke: #000000" x1="446.307" y1="153.553" x2="428.294" y2="191.349"/>
    <path style="fill: #000000" d="M 428.294 191.349 C 428.249,191.328 428.225,191.261 428.247,191.216 C 428.268,191.171 428.335,191.147 428.38,191.169 C 428.425,191.19 428.449,191.257 428.427,191.302 C 428.406,191.347 428.339,191.371 428.294,191.349z"/>
    <path style="fill: none; fill-opacity:0; stroke-width: 1; stroke: #000000" d="M 428.294 191.349 C 428.249,191.328 428.225,191.261 428.247,191.216 C 428.268,191.171 428.335,191.147 428.38,191.169 C 428.425,191.19 428.449,191.257 428.427,191.302 C 428.406,191.347 428.339,191.371 428.294,191.349"/>
  </g>
  <g>
    <line style="fill: none; fill-opacity:0; stroke-width: 1; stroke: #000000" x1="368.302" y1="129.564" x2="350.294" y2="167.349"/>
    <path style="fill: #000000" d="M 350.294 167.349 C 350.249,167.328 350.225,167.261 350.247,167.216 C 350.268,167.171 350.335,167.147 350.38,167.169 C 350.425,167.19 350.449,167.257 350.427,167.302 C 350.406,167.347 350.339,167.371 350.294,167.349z"/>
    <path style="fill: none; fill-opacity:0; stroke-width: 1; stroke: #000000" d="M 350.294 167.349 C 350.249,167.328 350.225,167.261 350.247,167.216 C 350.268,167.171 350.335,167.147 350.38,167.169 C 350.425,167.19 350.449,167.257 350.427,167.302 C 350.406,167.347 350.339,167.371 350.294,167.349"/>
  </g>
  <g>
    <line style="fill: none; fill-opacity:0; stroke-width: 1; stroke: #000000" x1="368.314" y1="153.561" x2="350.294" y2="191.349"/>
    <path style="fill: #000000" d="M 350.294 191.349 C 350.249,191.328 350.225,191.261 350.247,191.216 C 350.268,191.171 350.335,191.147 350.38,191.169 C 350.425,191.19 350.449,191.257 350.427,191.302 C 350.406,191.347 350.339,191.371 350.294,191.349z"/>
    <path style="fill: none; fill-opacity:0; stroke-width: 1; stroke: #000000" d="M 350.294 191.349 C 350.249,191.328 350.225,191.261 350.247,191.216 C 350.268,191.171 350.335,191.147 350.38,191.169 C 350.425,191.19 350.449,191.257 350.427,191.302 C 350.406,191.347 350.339,191.371 350.294,191.349"/>
  </g>
  <g>
    <line style="fill: none; fill-opacity:0; stroke-width: 1; stroke: #000000" x1="524.3" y1="153.559" x2="506.294" y2="191.349"/>
    <path style="fill: #000000" d="M 506.294 191.349 C 506.249,191.328 506.225,191.261 506.247,191.216 C 506.268,191.171 506.335,191.147 506.38,191.169 C 506.425,191.19 506.449,191.257 506.427,191.302 C 506.406,191.347 506.339,191.371 506.294,191.349z"/>
    <path style="fill: none; fill-opacity:0; stroke-width: 1; stroke: #000000" d="M 506.294 191.349 C 506.249,191.328 506.225,191.261 506.247,191.216 C 506.268,191.171 506.335,191.147 506.38,191.169 C 506.425,191.19 506.449,191.257 506.427,191.302 C 506.406,191.347 506.339,191.371 506.294,191.349"/>
  </g>
  <g>
    <line style="fill: none; fill-opacity:0; stroke-width: 1; stroke: #000000" x1="432.232" y1="103.683" x2="406.232" y2="103.691"/>
    <path style="fill: #000000" d="M 432.232 103.683 C 432.232,103.733 432.182,103.783 432.132,103.783 C 432.082,103.783 432.032,103.733 432.032,103.683 C 432.032,103.633 432.082,103.583 432.132,103.583 C 432.182,103.583 432.232,103.633 432.232,103.683z"/>
    <path style="fill: none; fill-opacity:0; stroke-width: 1; stroke: #000000" d="M 432.232 103.683 C 432.232,103.733 432.182,103.783 432.132,103.783 C 432.082,103.783 432.032,103.733 432.032,103.683 C 432.032,103.633 432.082,103.583 432.132,103.583 C 432.182,103.583 432.232,103.633 432.232,103.683"/>
    <path style="fill: #000000" d="M 406.232 103.691 C 406.232,103.641 406.282,103.591 406.332,103.591 C 406.382,103.591 406.432,103.641 406.432,103.691 C 406.432,103.741 406.382,103.791 406.332,103.791 C 406.282,103.791 406.232,103.741 406.232,103.691z"/>
    <path style="fill: none; fill-opacity:0; stroke-width: 1; stroke: #000000" d="M 406.232 103.691 C 406.232,103.641 406.282,103.591 406.332,103.591 C 406.382,103.591 406.432,103.641 406.432,103.691 C 406.432,103.741 406.382,103.791 406.332,103.791 C 406.282,103.791 406.232,103.741 406.232,103.691"/>
  </g>
  <g>
    <line style="fill: none; fill-opacity:0; stroke-width: 1; stroke: #000000" x1="342.317" y1="129.552" x2="394.287" y2="129.576"/>
    <path style="fill: #000000" d="M 394.287 129.576 C 394.287,129.626 394.237,129.676 394.187,129.676 C 394.137,129.676 394.087,129.626 394.087,129.576 C 394.087,129.526 394.137,129.476 394.187,129.476 C 394.237,129.476 394.287,129.526 394.287,129.576z"/>
    <path style="fill: none; fill-opacity:0; stroke-width: 1; stroke: #000000" d="M 394.287 129.576 C 394.287,129.626 394.237,129.676 394.187,129.676 C 394.137,129.676 394.087,129.626 394.087,129.576 C 394.087,129.526 394.137,129.476 394.187,129.476 C 394.237,129.476 394.287,129.526 394.287,129.576"/>
  </g>
  <g>
    <line style="fill: none; fill-opacity:0; stroke-width: 1; stroke: #000000" x1="420.294" y1="129.539" x2="472.294" y2="129.539"/>
    <path style="fill: #000000" d="M 420.294 129.539 C 420.294,129.489 420.344,129.439 420.394,129.439 C 420.444,129.439 420.494,129.489 420.494,129.539 C 420.494,129.589 420.444,129.639 420.394,129.639 C 420.344,129.639 420.294,129.589 420.294,129.539z"/>
    <path style="fill: none; fill-opacity:0; stroke-width: 1; stroke: #000000" d="M 420.294 129.539 C 420.294,129.489 420.344,129.439 420.394,129.439 C 420.444,129.439 420.494,129.489 420.494,129.539 C 420.494,129.589 420.444,129.639 420.394,129.639 C 420.344,129.639 420.294,129.589 420.294,129.539"/>
    <path style="fill: #000000" d="M 472.294 129.539 C 472.294,129.589 472.244,129.639 472.194,129.639 C 472.144,129.639 472.094,129.589 472.094,129.539 C 472.094,129.489 472.144,129.439 472.194,129.439 C 472.244,129.439 472.294,129.489 472.294,129.539z"/>
    <path style="fill: none; fill-opacity:0; stroke-width: 1; stroke: #000000" d="M 472.294 129.539 C 472.294,129.589 472.244,129.639 472.194,129.639 C 472.144,129.639 472.094,129.589 472.094,129.539 C 472.094,129.489 472.144,129.439 472.194,129.439 C 472.244,129.439 472.294,129.489 472.294,129.539"/>
  </g>
  <g>
    <line style="fill: none; fill-opacity:0; stroke-width: 1; stroke: #000000" x1="550.297" y1="129.554" x2="498.294" y2="129.539"/>
    <path style="fill: #000000" d="M 498.294 129.539 C 498.294,129.489 498.344,129.439 498.394,129.439 C 498.444,129.439 498.494,129.489 498.494,129.539 C 498.494,129.589 498.444,129.639 498.394,129.639 C 498.344,129.639 498.294,129.589 498.294,129.539z"/>
    <path style="fill: none; fill-opacity:0; stroke-width: 1; stroke: #000000" d="M 498.294 129.539 C 498.294,129.489 498.344,129.439 498.394,129.439 C 498.444,129.439 498.494,129.489 498.494,129.539 C 498.494,129.589 498.444,129.639 498.394,129.639 C 498.344,129.639 498.294,129.589 498.294,129.539"/>
  </g>
  <line style="fill: none; fill-opacity:0; stroke-width: 1; stroke-dasharray: 4; stroke: #bf00bf" x1="386.294" y1="121.539" x2="386.294" y2="157.539"/>
  <line style="fill: none; fill-opacity:0; stroke-width: 1; stroke-dasharray: 4; stroke: #bf00bf" x1="430.294" y1="121.539" x2="430.294" y2="157.539"/>
  <line style="fill: none; fill-opacity:0; stroke-width: 1; stroke-dasharray: 4; stroke: #bf00bf" x1="462.294" y1="121.539" x2="462.294" y2="157.539"/>
  <line style="fill: none; fill-opacity:0; stroke-width: 1; stroke-dasharray: 4; stroke: #bf00bf" x1="506.294" y1="121.539" x2="506.294" y2="157.539"/>
  <g>
    <line style="fill: none; fill-opacity:0; stroke-width: 1; stroke: #000000" x1="446.294" y1="129.539" x2="428.294" y2="167.539"/>
    <path style="fill: #000000" d="M 428.294 167.539 C 428.249,167.518 428.225,167.451 428.246,167.406 C 428.268,167.361 428.334,167.337 428.38,167.359 C 428.425,167.38 428.449,167.447 428.427,167.492 C 428.406,167.537 428.339,167.561 428.294,167.539z"/>
    <path style="fill: none; fill-opacity:0; stroke-width: 1; stroke: #000000" d="M 428.294 167.539 C 428.249,167.518 428.225,167.451 428.246,167.406 C 428.268,167.361 428.334,167.337 428.38,167.359 C 428.425,167.38 428.449,167.447 428.427,167.492 C 428.406,167.537 428.339,167.561 428.294,167.539"/>
  </g>
  <g>
    <line style="fill: none; fill-opacity:0; stroke-width: 1; stroke: #000000" x1="524.296" y1="129.547" x2="506.294" y2="167.349"/>
    <path style="fill: #000000" d="M 506.294 167.349 C 506.249,167.328 506.225,167.261 506.247,167.216 C 506.268,167.171 506.335,167.147 506.38,167.169 C 506.425,167.19 506.449,167.257 506.427,167.302 C 506.406,167.347 506.339,167.371 506.294,167.349z"/>
    <path style="fill: none; fill-opacity:0; stroke-width: 1; stroke: #000000" d="M 506.294 167.349 C 506.249,167.328 506.225,167.261 506.247,167.216 C 506.268,167.171 506.335,167.147 506.38,167.169 C 506.425,167.19 506.449,167.257 506.427,167.302 C 506.406,167.347 506.339,167.371 506.294,167.349"/>
  </g>
  <line style="fill: none; fill-opacity:0; stroke-width: 1; stroke: #000000" x1="432.294" y1="103.539" x2="420.294" y2="129.539"/>
  <line style="fill: none; fill-opacity:0; stroke-width: 1; stroke: #000000" x1="406.294" y1="103.539" x2="394.294" y2="129.539"/>
  <g>
    <line style="fill: none; fill-opacity:0; stroke-width: 1; stroke: #000000" x1="510.144" y1="103.859" x2="484.144" y2="103.867"/>
    <path style="fill: #000000" d="M 510.144 103.859 C 510.144,103.909 510.094,103.959 510.044,103.959 C 509.994,103.959 509.944,103.909 509.944,103.859 C 509.944,103.809 509.994,103.759 510.044,103.759 C 510.094,103.759 510.144,103.809 510.144,103.859z"/>
    <path style="fill: none; fill-opacity:0; stroke-width: 1; stroke: #000000" d="M 510.144 103.859 C 510.144,103.909 510.094,103.959 510.044,103.959 C 509.994,103.959 509.944,103.909 509.944,103.859 C 509.944,103.809 509.994,103.759 510.044,103.759 C 510.094,103.759 510.144,103.809 510.144,103.859"/>
    <path style="fill: #000000" d="M 484.144 103.867 C 484.144,103.817 484.194,103.767 484.244,103.767 C 484.294,103.767 484.344,103.817 484.344,103.867 C 484.344,103.917 484.294,103.967 484.244,103.967 C 484.194,103.967 484.144,103.917 484.144,103.867z"/>
    <path style="fill: none; fill-opacity:0; stroke-width: 1; stroke: #000000" d="M 484.144 103.867 C 484.144,103.817 484.194,103.767 484.244,103.767 C 484.294,103.767 484.344,103.817 484.344,103.867 C 484.344,103.917 484.294,103.967 484.244,103.967 C 484.194,103.967 484.144,103.917 484.144,103.867"/>
  </g>
  <line style="fill: none; fill-opacity:0; stroke-width: 1; stroke: #000000" x1="510.206" y1="103.715" x2="498.206" y2="129.715"/>
  <line style="fill: none; fill-opacity:0; stroke-width: 1; stroke: #000000" x1="484.206" y1="103.715" x2="472.206" y2="129.715"/>
  <g>
    <rect style="fill: #ffffff" x="558.297" y="121.554" width="40" height="40"/>
    <rect style="fill: none; fill-opacity:0; stroke-width: 1; stroke: #000000" x="558.297" y="121.554" width="40" height="40"/>
    <line style="fill: none; fill-opacity:0; stroke-width: 1; stroke: #000000" x1="598.297" y1="129.554" x2="606.297" y2="129.554"/>
    <line style="fill: none; fill-opacity:0; stroke-width: 1; stroke: #000000" x1="598.297" y1="153.554" x2="606.297" y2="153.554"/>
    <line style="fill: none; fill-opacity:0; stroke-width: 1; stroke: #000000" x1="558.297" y1="129.554" x2="550.297" y2="129.554"/>
    <line style="fill: none; fill-opacity:0; stroke-width: 1; stroke: #000000" x1="558.297" y1="153.554" x2="550.297" y2="153.554"/>
  </g>
  <g>
    <line style="fill: none; fill-opacity:0; stroke-width: 1; stroke: #000000" x1="606.297" y1="153.554" x2="615.797" y2="153.554"/>
    <path style="fill: #ffffff" d="M 619.797 153.554 C 619.797,154.554 618.797,155.554 617.797,155.554 C 616.797,155.554 615.797,154.554 615.797,153.554 C 615.797,152.554 616.797,151.554 617.797,151.554 C 618.797,151.554 619.797,152.554 619.797,153.554z"/>
    <path style="fill: none; fill-opacity:0; stroke-width: 1; stroke: #000000" d="M 619.797 153.554 C 619.797,154.554 618.797,155.554 617.797,155.554 C 616.797,155.554 615.797,154.554 615.797,153.554 C 615.797,152.554 616.797,151.554 617.797,151.554 C 618.797,151.554 619.797,152.554 619.797,153.554"/>
  </g>
  <g>
    <line style="fill: none; fill-opacity:0; stroke-width: 1; stroke: #000000" x1="606.297" y1="129.554" x2="615.826" y2="129.554"/>
    <path style="fill: #ffffff" d="M 619.826 129.554 C 619.826,130.554 618.826,131.554 617.826,131.554 C 616.826,131.554 615.826,130.554 615.826,129.554 C 615.826,128.554 616.826,127.554 617.826,127.554 C 618.826,127.554 619.826,128.554 619.826,129.554z"/>
    <path style="fill: none; fill-opacity:0; stroke-width: 1; stroke: #000000" d="M 619.826 129.554 C 619.826,130.554 618.826,131.554 617.826,131.554 C 616.826,131.554 615.826,130.554 615.826,129.554 C 615.826,128.554 616.826,127.554 617.826,127.554 C 618.826,127.554 619.826,128.554 619.826,129.554"/>
  </g>
  <g>
    <rect style="fill: #ffffff" x="294.317" y="121.552" width="40" height="40"/>
    <rect style="fill: none; fill-opacity:0; stroke-width: 1; stroke: #000000" x="294.317" y="121.552" width="40" height="40"/>
    <line style="fill: none; fill-opacity:0; stroke-width: 1; stroke: #000000" x1="334.317" y1="129.552" x2="342.317" y2="129.552"/>
    <line style="fill: none; fill-opacity:0; stroke-width: 1; stroke: #000000" x1="334.317" y1="153.552" x2="342.317" y2="153.552"/>
    <line style="fill: none; fill-opacity:0; stroke-width: 1; stroke: #000000" x1="294.317" y1="129.552" x2="286.317" y2="129.552"/>
    <line style="fill: none; fill-opacity:0; stroke-width: 1; stroke: #000000" x1="294.317" y1="153.552" x2="286.317" y2="153.552"/>
  </g>
  <g>
    <line style="fill: none; fill-opacity:0; stroke-width: 1; stroke: #000000" x1="276.811" y1="129.555" x2="286.317" y2="129.552"/>
    <path style="fill: #ffffff" d="M 272.811 129.556 C 272.811,128.556 273.811,127.556 274.811,127.555 C 275.811,127.555 276.811,128.555 276.811,129.555 C 276.812,130.555 275.812,131.555 274.812,131.555 C 273.812,131.556 272.812,130.556 272.811,129.556z"/>
    <path style="fill: none; fill-opacity:0; stroke-width: 1; stroke: #000000" d="M 272.811 129.556 C 272.811,128.556 273.811,127.556 274.811,127.555 C 275.811,127.555 276.811,128.555 276.811,129.555 C 276.812,130.555 275.812,131.555 274.812,131.555 C 273.812,131.556 272.812,130.556 272.811,129.556"/>
  </g>
  <text font-size="6.77323" style="fill: #000000;text-anchor:start;font-family:sans-serif;font-style:normal;font-weight:normal" x="308" y="144">
    <tspan x="308" y="144">λ/8</tspan>
  </text>
  <text font-size="6.77323" style="fill: #000000;text-anchor:start;font-family:sans-serif;font-style:normal;font-weight:normal" x="572" y="144">
    <tspan x="572" y="144">λ/8</tspan>
  </text>
  <g>
    <line style="fill: none; fill-opacity:0; stroke-width: 1; stroke: #000000" x1="276.817" y1="153.549" x2="286.317" y2="153.552"/>
    <path style="fill: #ffffff" d="M 272.817 153.548 C 272.817,152.548 273.817,151.549 274.817,151.549 C 275.817,151.549 276.817,152.549 276.817,153.549 C 276.816,154.549 275.816,155.549 274.816,155.549 C 273.816,155.549 272.816,154.548 272.817,153.548z"/>
    <path style="fill: none; fill-opacity:0; stroke-width: 1; stroke: #000000" d="M 272.817 153.548 C 272.817,152.548 273.817,151.549 274.817,151.549 C 275.817,151.549 276.817,152.549 276.817,153.549 C 276.816,154.549 275.816,155.549 274.816,155.549 C 273.816,155.549 272.816,154.548 272.817,153.548"/>
  </g>
  <text font-size="6.77323" style="fill: #000000;text-anchor:start;font-family:sans-serif;font-style:normal;font-weight:normal" x="310" y="120">
    <tspan x="310" y="120">1</tspan>
  </text>
  <text font-size="6.77323" style="fill: #000000;text-anchor:start;font-family:sans-serif;font-style:normal;font-weight:normal" x="362" y="126">
    <tspan x="362" y="126">1,70</tspan>
  </text>
  <text font-size="6.77323" style="fill: #000000;text-anchor:start;font-family:sans-serif;font-style:normal;font-weight:normal" x="518" y="126">
    <tspan x="518" y="126">1,70</tspan>
  </text>
  <text font-size="6.77323" style="fill: #000000;text-anchor:start;font-family:sans-serif;font-style:normal;font-weight:normal" x="410" y="102">
    <tspan x="410" y="102">1,23</tspan>
  </text>
  <text font-size="6.77323" style="fill: #000000;text-anchor:start;font-family:sans-serif;font-style:normal;font-weight:normal" x="490" y="102">
    <tspan x="490" y="102">1,23</tspan>
  </text>
  <text font-size="6.77323" style="fill: #000000;text-anchor:start;font-family:sans-serif;font-style:normal;font-weight:normal" x="438" y="126">
    <tspan x="438" y="126">2,54</tspan>
  </text>
  <text font-size="6.77323" style="fill: #000000;text-anchor:start;font-family:sans-serif;font-style:normal;font-weight:normal" x="576" y="120">
    <tspan x="576" y="120">1</tspan>
  </text>
</svg>
