<?xml version="1.0" encoding="UTF-8" standalone="no"?>
<!DOCTYPE svg PUBLIC "-//W3C//DTD SVG 1.0//EN" "http://www.w3.org/TR/2001/PR-SVG-20010719/DTD/svg10.dtd">
<svg width="19cm" height="5cm" viewBox="154 83 378 97" xmlns="http://www.w3.org/2000/svg" xmlns:xlink="http://www.w3.org/1999/xlink">
  <g>
    <rect style="fill: #ffffff" x="229" y="109.45" width="40" height="40"/>
    <rect style="fill: none; fill-opacity:0; stroke-width: 1; stroke: #000000" x="229" y="109.45" width="40" height="40"/>
    <line style="fill: none; fill-opacity:0; stroke-width: 1; stroke: #000000" x1="269" y1="117.45" x2="277" y2="117.45"/>
    <line style="fill: none; fill-opacity:0; stroke-width: 1; stroke: #000000" x1="269" y1="141.45" x2="277" y2="141.45"/>
    <line style="fill: none; fill-opacity:0; stroke-width: 1; stroke: #000000" x1="229" y1="117.45" x2="221" y2="117.45"/>
    <line style="fill: none; fill-opacity:0; stroke-width: 1; stroke: #000000" x1="229" y1="141.45" x2="221" y2="141.45"/>
  </g>
  <line style="fill: none; fill-opacity:0; stroke-width: 1; stroke: #000000" x1="277" y1="141.45" x2="409" y2="141.45"/>
  <line style="fill: none; fill-opacity:0; stroke-width: 1; stroke: #000000" x1="277" y1="117.45" x2="291.028" y2="117.45"/>
  <line style="fill: none; fill-opacity:0; stroke-width: 1; stroke: #000000" x1="207" y1="117.45" x2="221" y2="117.45"/>
  <line style="fill: none; fill-opacity:0; stroke-width: 1; stroke: #000000" x1="207" y1="141.45" x2="221" y2="141.45"/>
  <g>
    <line style="fill: none; fill-opacity:0; stroke-width: 1; stroke: #000000" x1="303" y1="91.45" x2="291" y2="117.45"/>
    <path style="fill: #000000" d="M 303 91.45 C 303.045,91.471 303.07,91.5373 303.049,91.5827 C 303.028,91.6281 302.962,91.6525 302.916,91.6316 C 302.871,91.6106 302.846,91.5443 302.867,91.4989 C 302.888,91.4535 302.955,91.429 303,91.45z"/>
    <path style="fill: none; fill-opacity:0; stroke-width: 1; stroke: #000000" d="M 303 91.45 C 303.045,91.471 303.07,91.5373 303.049,91.5827 C 303.028,91.6281 302.962,91.6525 302.916,91.6316 C 302.871,91.6106 302.846,91.5443 302.867,91.4989 C 302.888,91.4535 302.955,91.429 303,91.45"/>
    <path style="fill: #000000" d="M 291 117.45 C 290.955,117.429 290.93,117.363 290.951,117.317 C 290.972,117.272 291.038,117.247 291.084,117.268 C 291.129,117.289 291.154,117.356 291.133,117.401 C 291.112,117.447 291.045,117.471 291,117.45z"/>
    <path style="fill: none; fill-opacity:0; stroke-width: 1; stroke: #000000" d="M 291 117.45 C 290.955,117.429 290.93,117.363 290.951,117.317 C 290.972,117.272 291.038,117.247 291.084,117.268 C 291.129,117.289 291.154,117.356 291.133,117.401 C 291.112,117.447 291.045,117.471 291,117.45"/>
  </g>
  <line style="fill: none; fill-opacity:0; stroke-width: 1; stroke: #000000" x1="303" y1="91.45" x2="329" y2="91.45"/>
  <g>
    <line style="fill: none; fill-opacity:0; stroke-width: 1; stroke: #000000" x1="329" y1="91.45" x2="317" y2="117.45"/>
    <path style="fill: #000000" d="M 329 91.45 C 329.045,91.471 329.07,91.5373 329.049,91.5827 C 329.028,91.6281 328.962,91.6525 328.916,91.6316 C 328.871,91.6106 328.846,91.5443 328.867,91.4989 C 328.888,91.4535 328.955,91.429 329,91.45z"/>
    <path style="fill: none; fill-opacity:0; stroke-width: 1; stroke: #000000" d="M 329 91.45 C 329.045,91.471 329.07,91.5373 329.049,91.5827 C 329.028,91.6281 328.962,91.6525 328.916,91.6316 C 328.871,91.6106 328.846,91.5443 328.867,91.4989 C 328.888,91.4535 328.955,91.429 329,91.45"/>
    <path style="fill: #000000" d="M 317 117.45 C 316.955,117.429 316.93,117.363 316.951,117.317 C 316.972,117.272 317.038,117.247 317.084,117.268 C 317.129,117.289 317.154,117.356 317.133,117.401 C 317.112,117.447 317.045,117.471 317,117.45z"/>
    <path style="fill: none; fill-opacity:0; stroke-width: 1; stroke: #000000" d="M 317 117.45 C 316.955,117.429 316.93,117.363 316.951,117.317 C 316.972,117.272 317.038,117.247 317.084,117.268 C 317.129,117.289 317.154,117.356 317.133,117.401 C 317.112,117.447 317.045,117.471 317,117.45"/>
  </g>
  <line style="fill: none; fill-opacity:0; stroke-width: 1; stroke: #000000" x1="317" y1="117.45" x2="369" y2="117.45"/>
  <g>
    <line style="fill: none; fill-opacity:0; stroke-width: 1; stroke: #000000" x1="381" y1="91.45" x2="369" y2="117.45"/>
    <path style="fill: #000000" d="M 381 91.45 C 381.045,91.471 381.07,91.5373 381.049,91.5827 C 381.028,91.6281 380.962,91.6525 380.916,91.6316 C 380.871,91.6106 380.846,91.5443 380.867,91.4989 C 380.888,91.4535 380.955,91.429 381,91.45z"/>
    <path style="fill: none; fill-opacity:0; stroke-width: 1; stroke: #000000" d="M 381 91.45 C 381.045,91.471 381.07,91.5373 381.049,91.5827 C 381.028,91.6281 380.962,91.6525 380.916,91.6316 C 380.871,91.6106 380.846,91.5443 380.867,91.4989 C 380.888,91.4535 380.955,91.429 381,91.45"/>
    <path style="fill: #000000" d="M 369 117.45 C 368.955,117.429 368.93,117.363 368.951,117.317 C 368.972,117.272 369.038,117.247 369.084,117.268 C 369.129,117.289 369.154,117.356 369.133,117.401 C 369.112,117.447 369.045,117.471 369,117.45z"/>
    <path style="fill: none; fill-opacity:0; stroke-width: 1; stroke: #000000" d="M 369 117.45 C 368.955,117.429 368.93,117.363 368.951,117.317 C 368.972,117.272 369.038,117.247 369.084,117.268 C 369.129,117.289 369.154,117.356 369.133,117.401 C 369.112,117.447 369.045,117.471 369,117.45"/>
  </g>
  <g>
    <rect style="fill: #ffffff" x="417" y="109.45" width="40" height="40"/>
    <rect style="fill: none; fill-opacity:0; stroke-width: 1; stroke: #000000" x="417" y="109.45" width="40" height="40"/>
    <line style="fill: none; fill-opacity:0; stroke-width: 1; stroke: #000000" x1="457" y1="117.45" x2="465" y2="117.45"/>
    <line style="fill: none; fill-opacity:0; stroke-width: 1; stroke: #000000" x1="457" y1="141.45" x2="465" y2="141.45"/>
    <line style="fill: none; fill-opacity:0; stroke-width: 1; stroke: #000000" x1="417" y1="117.45" x2="409" y2="117.45"/>
    <line style="fill: none; fill-opacity:0; stroke-width: 1; stroke: #000000" x1="417" y1="141.45" x2="409" y2="141.45"/>
  </g>
  <line style="fill: none; fill-opacity:0; stroke-width: 1; stroke: #000000" x1="395" y1="117.45" x2="409" y2="117.45"/>
  <g>
    <line style="fill: none; fill-opacity:0; stroke-width: 1; stroke: #000000" x1="407" y1="91.45" x2="395" y2="117.45"/>
    <path style="fill: #000000" d="M 407 91.45 C 407.045,91.471 407.07,91.5373 407.049,91.5827 C 407.028,91.6281 406.962,91.6525 406.916,91.6316 C 406.871,91.6106 406.846,91.5443 406.867,91.4989 C 406.888,91.4535 406.955,91.429 407,91.45z"/>
    <path style="fill: none; fill-opacity:0; stroke-width: 1; stroke: #000000" d="M 407 91.45 C 407.045,91.471 407.07,91.5373 407.049,91.5827 C 407.028,91.6281 406.962,91.6525 406.916,91.6316 C 406.871,91.6106 406.846,91.5443 406.867,91.4989 C 406.888,91.4535 406.955,91.429 407,91.45"/>
    <path style="fill: #000000" d="M 395 117.45 C 394.955,117.429 394.93,117.363 394.951,117.317 C 394.972,117.272 395.038,117.247 395.084,117.268 C 395.129,117.289 395.154,117.356 395.133,117.401 C 395.112,117.447 395.045,117.471 395,117.45z"/>
    <path style="fill: none; fill-opacity:0; stroke-width: 1; stroke: #000000" d="M 395 117.45 C 394.955,117.429 394.93,117.363 394.951,117.317 C 394.972,117.272 395.038,117.247 395.084,117.268 C 395.129,117.289 395.154,117.356 395.133,117.401 C 395.112,117.447 395.045,117.471 395,117.45"/>
  </g>
  <line style="fill: none; fill-opacity:0; stroke-width: 1; stroke: #000000" x1="381" y1="91.45" x2="407" y2="91.45"/>
  <line style="fill: none; fill-opacity:0; stroke-width: 1; stroke: #000000" x1="465" y1="117.45" x2="479" y2="117.45"/>
  <line style="fill: none; fill-opacity:0; stroke-width: 1; stroke: #000000" x1="465" y1="141.45" x2="479" y2="141.45"/>
  <g>
    <line style="fill: none; fill-opacity:0; stroke-width: 1; stroke: #000000" x1="491" y1="91.45" x2="479" y2="117.45"/>
    <path style="fill: #000000" d="M 491 91.45 C 491.045,91.471 491.07,91.5373 491.049,91.5827 C 491.028,91.6281 490.962,91.6525 490.916,91.6316 C 490.871,91.6106 490.846,91.5443 490.867,91.4989 C 490.888,91.4535 490.955,91.429 491,91.45z"/>
    <path style="fill: none; fill-opacity:0; stroke-width: 1; stroke: #000000" d="M 491 91.45 C 491.045,91.471 491.07,91.5373 491.049,91.5827 C 491.028,91.6281 490.962,91.6525 490.916,91.6316 C 490.871,91.6106 490.846,91.5443 490.867,91.4989 C 490.888,91.4535 490.955,91.429 491,91.45"/>
    <path style="fill: #000000" d="M 479 117.45 C 478.955,117.429 478.93,117.363 478.951,117.317 C 478.972,117.272 479.038,117.247 479.084,117.268 C 479.129,117.289 479.154,117.356 479.133,117.401 C 479.112,117.447 479.045,117.471 479,117.45z"/>
    <path style="fill: none; fill-opacity:0; stroke-width: 1; stroke: #000000" d="M 479 117.45 C 478.955,117.429 478.93,117.363 478.951,117.317 C 478.972,117.272 479.038,117.247 479.084,117.268 C 479.129,117.289 479.154,117.356 479.133,117.401 C 479.112,117.447 479.045,117.471 479,117.45"/>
  </g>
  <line style="fill: none; fill-opacity:0; stroke-width: 1; stroke: #000000" x1="491" y1="91.45" x2="517" y2="91.45"/>
  <g>
    <line style="fill: none; fill-opacity:0; stroke-width: 1; stroke: #000000" x1="517" y1="91.45" x2="505" y2="117.45"/>
    <path style="fill: #000000" d="M 517 91.45 C 517.045,91.471 517.07,91.5373 517.049,91.5827 C 517.028,91.6281 516.962,91.6525 516.916,91.6316 C 516.871,91.6106 516.846,91.5443 516.867,91.4989 C 516.888,91.4535 516.955,91.429 517,91.45z"/>
    <path style="fill: none; fill-opacity:0; stroke-width: 1; stroke: #000000" d="M 517 91.45 C 517.045,91.471 517.07,91.5373 517.049,91.5827 C 517.028,91.6281 516.962,91.6525 516.916,91.6316 C 516.871,91.6106 516.846,91.5443 516.867,91.4989 C 516.888,91.4535 516.955,91.429 517,91.45"/>
    <path style="fill: #000000" d="M 505 117.45 C 504.955,117.429 504.93,117.363 504.951,117.317 C 504.972,117.272 505.038,117.247 505.084,117.268 C 505.129,117.289 505.154,117.356 505.133,117.401 C 505.112,117.447 505.045,117.471 505,117.45z"/>
    <path style="fill: none; fill-opacity:0; stroke-width: 1; stroke: #000000" d="M 505 117.45 C 504.955,117.429 504.93,117.363 504.951,117.317 C 504.972,117.272 505.038,117.247 505.084,117.268 C 505.129,117.289 505.154,117.356 505.133,117.401 C 505.112,117.447 505.045,117.471 505,117.45"/>
  </g>
  <g>
    <line style="fill: none; fill-opacity:0; stroke-width: 1; stroke: #000000" x1="505" y1="117.45" x2="526.5" y2="117.45"/>
    <path style="fill: #ffffff" d="M 530.5 117.45 C 530.5,118.45 529.5,119.45 528.5,119.45 C 527.5,119.45 526.5,118.45 526.5,117.45 C 526.5,116.45 527.5,115.45 528.5,115.45 C 529.5,115.45 530.5,116.45 530.5,117.45z"/>
    <path style="fill: none; fill-opacity:0; stroke-width: 1; stroke: #000000" d="M 530.5 117.45 C 530.5,118.45 529.5,119.45 528.5,119.45 C 527.5,119.45 526.5,118.45 526.5,117.45 C 526.5,116.45 527.5,115.45 528.5,115.45 C 529.5,115.45 530.5,116.45 530.5,117.45"/>
  </g>
  <g>
    <line style="fill: none; fill-opacity:0; stroke-width: 1; stroke: #000000" x1="479" y1="141.45" x2="526.5" y2="141.45"/>
    <path style="fill: #ffffff" d="M 530.5 141.45 C 530.5,142.45 529.5,143.45 528.5,143.45 C 527.5,143.45 526.5,142.45 526.5,141.45 C 526.5,140.45 527.5,139.45 528.5,139.45 C 529.5,139.45 530.5,140.45 530.5,141.45z"/>
    <path style="fill: none; fill-opacity:0; stroke-width: 1; stroke: #000000" d="M 530.5 141.45 C 530.5,142.45 529.5,143.45 528.5,143.45 C 527.5,143.45 526.5,142.45 526.5,141.45 C 526.5,140.45 527.5,139.45 528.5,139.45 C 529.5,139.45 530.5,140.45 530.5,141.45"/>
  </g>
  <g>
    <line style="fill: none; fill-opacity:0; stroke-width: 1; stroke: #000000" x1="219" y1="91.45" x2="207" y2="117.45"/>
    <path style="fill: #000000" d="M 219 91.45 C 219.045,91.471 219.07,91.5373 219.049,91.5827 C 219.028,91.6281 218.962,91.6525 218.916,91.6316 C 218.871,91.6106 218.846,91.5443 218.867,91.4989 C 218.888,91.4535 218.955,91.429 219,91.45z"/>
    <path style="fill: none; fill-opacity:0; stroke-width: 1; stroke: #000000" d="M 219 91.45 C 219.045,91.471 219.07,91.5373 219.049,91.5827 C 219.028,91.6281 218.962,91.6525 218.916,91.6316 C 218.871,91.6106 218.846,91.5443 218.867,91.4989 C 218.888,91.4535 218.955,91.429 219,91.45"/>
    <path style="fill: #000000" d="M 207 117.45 C 206.955,117.429 206.93,117.363 206.951,117.317 C 206.972,117.272 207.038,117.247 207.084,117.268 C 207.129,117.289 207.154,117.356 207.133,117.401 C 207.112,117.447 207.045,117.471 207,117.45z"/>
    <path style="fill: none; fill-opacity:0; stroke-width: 1; stroke: #000000" d="M 207 117.45 C 206.955,117.429 206.93,117.363 206.951,117.317 C 206.972,117.272 207.038,117.247 207.084,117.268 C 207.129,117.289 207.154,117.356 207.133,117.401 C 207.112,117.447 207.045,117.471 207,117.45"/>
  </g>
  <line style="fill: none; fill-opacity:0; stroke-width: 1; stroke: #000000" x1="193" y1="91.45" x2="219" y2="91.45"/>
  <g>
    <line style="fill: none; fill-opacity:0; stroke-width: 1; stroke: #000000" x1="193" y1="91.45" x2="181" y2="117.45"/>
    <path style="fill: #000000" d="M 193 91.45 C 193.045,91.471 193.07,91.5373 193.049,91.5827 C 193.028,91.6281 192.962,91.6525 192.916,91.6316 C 192.871,91.6106 192.846,91.5443 192.867,91.4989 C 192.888,91.4535 192.955,91.429 193,91.45z"/>
    <path style="fill: none; fill-opacity:0; stroke-width: 1; stroke: #000000" d="M 193 91.45 C 193.045,91.471 193.07,91.5373 193.049,91.5827 C 193.028,91.6281 192.962,91.6525 192.916,91.6316 C 192.871,91.6106 192.846,91.5443 192.867,91.4989 C 192.888,91.4535 192.955,91.429 193,91.45"/>
    <path style="fill: #000000" d="M 181 117.45 C 180.955,117.429 180.93,117.363 180.951,117.317 C 180.972,117.272 181.038,117.247 181.084,117.268 C 181.129,117.289 181.154,117.356 181.133,117.401 C 181.112,117.447 181.045,117.471 181,117.45z"/>
    <path style="fill: none; fill-opacity:0; stroke-width: 1; stroke: #000000" d="M 181 117.45 C 180.955,117.429 180.93,117.363 180.951,117.317 C 180.972,117.272 181.038,117.247 181.084,117.268 C 181.129,117.289 181.154,117.356 181.133,117.401 C 181.112,117.447 181.045,117.471 181,117.45"/>
  </g>
  <g>
    <line style="fill: none; fill-opacity:0; stroke-width: 1; stroke: #000000" x1="159.5" y1="141.45" x2="207" y2="141.45"/>
    <path style="fill: #ffffff" d="M 155.5 141.45 C 155.5,140.45 156.5,139.45 157.5,139.45 C 158.5,139.45 159.5,140.45 159.5,141.45 C 159.5,142.45 158.5,143.45 157.5,143.45 C 156.5,143.45 155.5,142.45 155.5,141.45z"/>
    <path style="fill: none; fill-opacity:0; stroke-width: 1; stroke: #000000" d="M 155.5 141.45 C 155.5,140.45 156.5,139.45 157.5,139.45 C 158.5,139.45 159.5,140.45 159.5,141.45 C 159.5,142.45 158.5,143.45 157.5,143.45 C 156.5,143.45 155.5,142.45 155.5,141.45"/>
  </g>
  <g>
    <line style="fill: none; fill-opacity:0; stroke-width: 1; stroke: #000000" x1="159.5" y1="117.45" x2="181" y2="117.45"/>
    <path style="fill: #ffffff" d="M 155.5 117.45 C 155.5,116.45 156.5,115.45 157.5,115.45 C 158.5,115.45 159.5,116.45 159.5,117.45 C 159.5,118.45 158.5,119.45 157.5,119.45 C 156.5,119.45 155.5,118.45 155.5,117.45z"/>
    <path style="fill: none; fill-opacity:0; stroke-width: 1; stroke: #000000" d="M 155.5 117.45 C 155.5,116.45 156.5,115.45 157.5,115.45 C 158.5,115.45 159.5,116.45 159.5,117.45 C 159.5,118.45 158.5,119.45 157.5,119.45 C 156.5,119.45 155.5,118.45 155.5,117.45"/>
  </g>
  <g>
    <line style="fill: none; fill-opacity:0; stroke-width: 1; stroke: #000000" x1="343" y1="141.45" x2="324.986" y2="179.246"/>
    <path style="fill: #000000" d="M 324.986 179.246 C 324.941,179.224 324.917,179.158 324.939,179.113 C 324.96,179.068 325.027,179.044 325.072,179.065 C 325.117,179.087 325.141,179.154 325.119,179.199 C 325.098,179.244 325.031,179.268 324.986,179.246z"/>
    <path style="fill: none; fill-opacity:0; stroke-width: 1; stroke: #000000" d="M 324.986 179.246 C 324.941,179.224 324.917,179.158 324.939,179.113 C 324.96,179.068 325.027,179.044 325.072,179.065 C 325.117,179.087 325.141,179.154 325.119,179.199 C 325.098,179.244 325.031,179.268 324.986,179.246"/>
  </g>
  <g>
    <line style="fill: none; fill-opacity:0; stroke-width: 1; stroke: #000000" x1="343" y1="117.45" x2="324.986" y2="155.246"/>
    <path style="fill: #000000" d="M 324.986 155.246 C 324.941,155.224 324.917,155.158 324.939,155.113 C 324.96,155.068 325.027,155.044 325.072,155.065 C 325.117,155.087 325.141,155.154 325.119,155.199 C 325.098,155.244 325.031,155.268 324.986,155.246z"/>
    <path style="fill: none; fill-opacity:0; stroke-width: 1; stroke: #000000" d="M 324.986 155.246 C 324.941,155.224 324.917,155.158 324.939,155.113 C 324.96,155.068 325.027,155.044 325.072,155.065 C 325.117,155.087 325.141,155.154 325.119,155.199 C 325.098,155.244 325.031,155.268 324.986,155.246"/>
  </g>
  <line style="fill: none; fill-opacity:0; stroke-width: 1; stroke-dasharray: 4; stroke: #bf00bf" x1="325" y1="109.45" x2="325" y2="145.45"/>
  <line style="fill: none; fill-opacity:0; stroke-width: 1; stroke-dasharray: 4; stroke: #bf00bf" x1="361" y1="109.45" x2="361" y2="145.45"/>
  <line style="fill: none; fill-opacity:0; stroke-width: 1; stroke-dasharray: 4; stroke: #bf00bf" x1="405" y1="109.45" x2="405" y2="145.45"/>
  <line style="fill: none; fill-opacity:0; stroke-width: 1; stroke-dasharray: 4; stroke: #bf00bf" x1="281" y1="109.45" x2="281" y2="145.45"/>
  <text font-size="6.77333" style="fill: #000000;text-anchor:start;font-family:sans-serif;font-style:normal;font-weight:normal" x="243" y="133.45">
    <tspan x="243" y="133.45">λ/8</tspan>
  </text>
  <text font-size="6.77333" style="fill: #000000;text-anchor:start;font-family:sans-serif;font-style:normal;font-weight:normal" x="431" y="133.45">
    <tspan x="431" y="133.45">λ/8</tspan>
  </text>
  <text font-size="6.77333" style="fill: #000000;text-anchor:start;font-family:sans-serif;font-style:normal;font-weight:normal" x="309" y="89.45">
    <tspan x="309" y="89.45">1,23</tspan>
  </text>
  <text font-size="6.77333" style="fill: #000000;text-anchor:start;font-family:sans-serif;font-style:normal;font-weight:normal" x="385" y="89.45">
    <tspan x="385" y="89.45">1,23</tspan>
  </text>
  <text font-size="6.77333" style="fill: #000000;text-anchor:start;font-family:sans-serif;font-style:normal;font-weight:normal" x="335" y="113.45">
    <tspan x="335" y="113.45">2,54</tspan>
  </text>
  <text font-size="6.77333" style="fill: #000000;text-anchor:start;font-family:sans-serif;font-style:normal;font-weight:normal" x="243" y="105.45">
    <tspan x="243" y="105.45">0,37</tspan>
  </text>
  <text font-size="6.77333" style="fill: #000000;text-anchor:start;font-family:sans-serif;font-style:normal;font-weight:normal" x="431" y="105.45">
    <tspan x="431" y="105.45">0,37</tspan>
  </text>
  <text font-size="6.77333" style="fill: #000000;text-anchor:start;font-family:sans-serif;font-style:normal;font-weight:normal" x="199" y="89.45">
    <tspan x="199" y="89.45">0,63</tspan>
  </text>
  <text font-size="6.77333" style="fill: #000000;text-anchor:start;font-family:sans-serif;font-style:normal;font-weight:normal" x="497" y="89.45">
    <tspan x="497" y="89.45">0,63</tspan>
  </text>
</svg>
