<?xml version="1.0" encoding="UTF-8" standalone="no"?>
<!DOCTYPE svg PUBLIC "-//W3C//DTD SVG 1.0//EN" "http://www.w3.org/TR/2001/PR-SVG-20010719/DTD/svg10.dtd">
<svg width="11cm" height="5cm" viewBox="619 422 210 96" xmlns="http://www.w3.org/2000/svg" xmlns:xlink="http://www.w3.org/1999/xlink">
  <g>
    <line style="fill: none; fill-opacity:0; stroke-width: 1; stroke: #000000" x1="624.5" y1="480" x2="823.5" y2="480"/>
    <path style="fill: #ffffff" d="M 620.5 480 C 620.5,479 621.5,478 622.5,478 C 623.5,478 624.5,479 624.5,480 C 624.5,481 623.5,482 622.5,482 C 621.5,482 620.5,481 620.5,480z"/>
    <path style="fill: none; fill-opacity:0; stroke-width: 1; stroke: #000000" d="M 620.5 480 C 620.5,479 621.5,478 622.5,478 C 623.5,478 624.5,479 624.5,480 C 624.5,481 623.5,482 622.5,482 C 621.5,482 620.5,481 620.5,480"/>
    <path style="fill: #ffffff" d="M 827.5 480 C 827.5,481 826.5,482 825.5,482 C 824.5,482 823.5,481 823.5,480 C 823.5,479 824.5,478 825.5,478 C 826.5,478 827.5,479 827.5,480z"/>
    <path style="fill: none; fill-opacity:0; stroke-width: 1; stroke: #000000" d="M 827.5 480 C 827.5,481 826.5,482 825.5,482 C 824.5,482 823.5,481 823.5,480 C 823.5,479 824.5,478 825.5,478 C 826.5,478 827.5,479 827.5,480"/>
  </g>
  <g>
    <line style="fill: none; fill-opacity:0; stroke-width: 1; stroke: #000000" x1="724" y1="480" x2="706" y2="517.811"/>
    <path style="fill: #000000" d="M 706 517.811 C 705.955,517.789 705.931,517.723 705.953,517.677 C 705.974,517.632 706.041,517.609 706.086,517.63 C 706.131,517.652 706.155,517.718 706.133,517.763 C 706.112,517.809 706.045,517.832 706,517.811z"/>
    <path style="fill: none; fill-opacity:0; stroke-width: 1; stroke: #000000" d="M 706 517.811 C 705.955,517.789 705.931,517.723 705.953,517.677 C 705.974,517.632 706.041,517.609 706.086,517.63 C 706.131,517.652 706.155,517.718 706.133,517.763 C 706.112,517.809 706.045,517.832 706,517.811"/>
  </g>
  <g>
    <line style="fill: none; fill-opacity:0; stroke-width: 1; stroke: #000000" x1="646" y1="456.166" x2="628" y2="493.811"/>
    <path style="fill: #000000" d="M 628 493.811 C 627.955,493.789 627.931,493.722 627.953,493.677 C 627.974,493.632 628.041,493.609 628.086,493.63 C 628.131,493.652 628.155,493.718 628.133,493.764 C 628.112,493.809 628.045,493.832 628,493.811z"/>
    <path style="fill: none; fill-opacity:0; stroke-width: 1; stroke: #000000" d="M 628 493.811 C 627.955,493.789 627.931,493.722 627.953,493.677 C 627.974,493.632 628.041,493.609 628.086,493.63 C 628.131,493.652 628.155,493.718 628.133,493.764 C 628.112,493.809 628.045,493.832 628,493.811"/>
  </g>
  <g>
    <line style="fill: none; fill-opacity:0; stroke-width: 1; stroke: #000000" x1="646" y1="480" x2="628" y2="517.811"/>
    <path style="fill: #000000" d="M 628 517.811 C 627.955,517.789 627.931,517.723 627.953,517.677 C 627.974,517.632 628.041,517.609 628.086,517.63 C 628.131,517.652 628.155,517.718 628.133,517.763 C 628.112,517.809 628.045,517.832 628,517.811z"/>
    <path style="fill: none; fill-opacity:0; stroke-width: 1; stroke: #000000" d="M 628 517.811 C 627.955,517.789 627.931,517.723 627.953,517.677 C 627.974,517.632 628.041,517.609 628.086,517.63 C 628.131,517.652 628.155,517.718 628.133,517.763 C 628.112,517.809 628.045,517.832 628,517.811"/>
  </g>
  <g>
    <line style="fill: none; fill-opacity:0; stroke-width: 1; stroke: #000000" x1="802" y1="480" x2="784" y2="517.811"/>
    <path style="fill: #000000" d="M 784 517.811 C 783.955,517.789 783.931,517.723 783.953,517.677 C 783.974,517.632 784.041,517.609 784.086,517.63 C 784.131,517.652 784.155,517.718 784.133,517.763 C 784.112,517.809 784.045,517.832 784,517.811z"/>
    <path style="fill: none; fill-opacity:0; stroke-width: 1; stroke: #000000" d="M 784 517.811 C 783.955,517.789 783.931,517.723 783.953,517.677 C 783.974,517.632 784.041,517.609 784.086,517.63 C 784.131,517.652 784.155,517.718 784.133,517.763 C 784.112,517.809 784.045,517.832 784,517.811"/>
  </g>
  <g>
    <line style="fill: none; fill-opacity:0; stroke-width: 1; stroke: #000000" x1="709.938" y1="430.144" x2="683.938" y2="430.152"/>
    <path style="fill: #000000" d="M 709.938 430.144 C 709.938,430.194 709.888,430.244 709.838,430.244 C 709.788,430.244 709.738,430.194 709.738,430.144 C 709.737,430.094 709.787,430.044 709.837,430.044 C 709.887,430.044 709.937,430.094 709.938,430.144z"/>
    <path style="fill: none; fill-opacity:0; stroke-width: 1; stroke: #000000" d="M 709.938 430.144 C 709.938,430.194 709.888,430.244 709.838,430.244 C 709.788,430.244 709.738,430.194 709.738,430.144 C 709.737,430.094 709.787,430.044 709.837,430.044 C 709.887,430.044 709.937,430.094 709.938,430.144"/>
    <path style="fill: #000000" d="M 683.938 430.152 C 683.937,430.102 683.987,430.051 684.037,430.051 C 684.087,430.051 684.137,430.101 684.138,430.151 C 684.138,430.201 684.088,430.251 684.038,430.251 C 683.988,430.251 683.938,430.202 683.938,430.152z"/>
    <path style="fill: none; fill-opacity:0; stroke-width: 1; stroke: #000000" d="M 683.938 430.152 C 683.937,430.102 683.987,430.051 684.037,430.051 C 684.087,430.051 684.137,430.101 684.138,430.151 C 684.138,430.201 684.088,430.251 684.038,430.251 C 683.988,430.251 683.938,430.202 683.938,430.152"/>
  </g>
  <g>
    <line style="fill: none; fill-opacity:0; stroke-width: 1; stroke: #000000" x1="624.5" y1="456" x2="672" y2="456"/>
    <path style="fill: #ffffff" d="M 620.5 456 C 620.5,455 621.5,454 622.5,454 C 623.5,454 624.5,455 624.5,456 C 624.5,457 623.5,458 622.5,458 C 621.5,458 620.5,457 620.5,456z"/>
    <path style="fill: none; fill-opacity:0; stroke-width: 1; stroke: #000000" d="M 620.5 456 C 620.5,455 621.5,454 622.5,454 C 623.5,454 624.5,455 624.5,456 C 624.5,457 623.5,458 622.5,458 C 621.5,458 620.5,457 620.5,456"/>
    <path style="fill: #000000" d="M 672 456 C 672,456.05 671.95,456.1 671.9,456.1 C 671.85,456.1 671.8,456.05 671.8,456 C 671.8,455.95 671.85,455.9 671.9,455.9 C 671.95,455.9 672,455.95 672,456z"/>
    <path style="fill: none; fill-opacity:0; stroke-width: 1; stroke: #000000" d="M 672 456 C 672,456.05 671.95,456.1 671.9,456.1 C 671.85,456.1 671.8,456.05 671.8,456 C 671.8,455.95 671.85,455.9 671.9,455.9 C 671.95,455.9 672,455.95 672,456"/>
  </g>
  <g>
    <line style="fill: none; fill-opacity:0; stroke-width: 1; stroke: #000000" x1="698" y1="456" x2="750" y2="456"/>
    <path style="fill: #000000" d="M 698 456 C 698,455.95 698.05,455.9 698.1,455.9 C 698.15,455.9 698.2,455.95 698.2,456 C 698.2,456.05 698.15,456.1 698.1,456.1 C 698.05,456.1 698,456.05 698,456z"/>
    <path style="fill: none; fill-opacity:0; stroke-width: 1; stroke: #000000" d="M 698 456 C 698,455.95 698.05,455.9 698.1,455.9 C 698.15,455.9 698.2,455.95 698.2,456 C 698.2,456.05 698.15,456.1 698.1,456.1 C 698.05,456.1 698,456.05 698,456"/>
    <path style="fill: #000000" d="M 750 456 C 750,456.05 749.95,456.1 749.9,456.1 C 749.85,456.1 749.8,456.05 749.8,456 C 749.8,455.95 749.85,455.9 749.9,455.9 C 749.95,455.9 750,455.95 750,456z"/>
    <path style="fill: none; fill-opacity:0; stroke-width: 1; stroke: #000000" d="M 750 456 C 750,456.05 749.95,456.1 749.9,456.1 C 749.85,456.1 749.8,456.05 749.8,456 C 749.8,455.95 749.85,455.9 749.9,455.9 C 749.95,455.9 750,455.95 750,456"/>
  </g>
  <g>
    <line style="fill: none; fill-opacity:0; stroke-width: 1; stroke: #000000" x1="823.5" y1="456" x2="776" y2="456"/>
    <path style="fill: #ffffff" d="M 827.5 456 C 827.5,457 826.5,458 825.5,458 C 824.5,458 823.5,457 823.5,456 C 823.5,455 824.5,454 825.5,454 C 826.5,454 827.5,455 827.5,456z"/>
    <path style="fill: none; fill-opacity:0; stroke-width: 1; stroke: #000000" d="M 827.5 456 C 827.5,457 826.5,458 825.5,458 C 824.5,458 823.5,457 823.5,456 C 823.5,455 824.5,454 825.5,454 C 826.5,454 827.5,455 827.5,456"/>
    <path style="fill: #000000" d="M 776 456 C 776,455.95 776.05,455.9 776.1,455.9 C 776.15,455.9 776.2,455.95 776.2,456 C 776.2,456.05 776.15,456.1 776.1,456.1 C 776.05,456.1 776,456.05 776,456z"/>
    <path style="fill: none; fill-opacity:0; stroke-width: 1; stroke: #000000" d="M 776 456 C 776,455.95 776.05,455.9 776.1,455.9 C 776.15,455.9 776.2,455.95 776.2,456 C 776.2,456.05 776.15,456.1 776.1,456.1 C 776.05,456.1 776,456.05 776,456"/>
  </g>
  <line style="fill: none; fill-opacity:0; stroke-width: 1; stroke-dasharray: 4; stroke: #bf00bf" x1="664" y1="452" x2="664" y2="488"/>
  <line style="fill: none; fill-opacity:0; stroke-width: 1; stroke-dasharray: 4; stroke: #bf00bf" x1="708" y1="452" x2="708" y2="488"/>
  <line style="fill: none; fill-opacity:0; stroke-width: 1; stroke-dasharray: 4; stroke: #bf00bf" x1="740" y1="452" x2="740" y2="488"/>
  <line style="fill: none; fill-opacity:0; stroke-width: 1; stroke-dasharray: 4; stroke: #bf00bf" x1="784" y1="452" x2="784" y2="488"/>
  <g>
    <line style="fill: none; fill-opacity:0; stroke-width: 1; stroke: #000000" x1="724" y1="456.095" x2="706" y2="494"/>
    <path style="fill: #000000" d="M 706 494 C 705.955,493.979 705.931,493.912 705.953,493.867 C 705.974,493.822 706.041,493.798 706.086,493.819 C 706.131,493.841 706.155,493.907 706.133,493.953 C 706.112,493.998 706.045,494.021 706,494z"/>
    <path style="fill: none; fill-opacity:0; stroke-width: 1; stroke: #000000" d="M 706 494 C 705.955,493.979 705.931,493.912 705.953,493.867 C 705.974,493.822 706.041,493.798 706.086,493.819 C 706.131,493.841 706.155,493.907 706.133,493.953 C 706.112,493.998 706.045,494.021 706,494"/>
  </g>
  <g>
    <line style="fill: none; fill-opacity:0; stroke-width: 1; stroke: #000000" x1="802" y1="456.024" x2="784" y2="493.811"/>
    <path style="fill: #000000" d="M 784 493.811 C 783.955,493.789 783.931,493.723 783.953,493.677 C 783.974,493.632 784.041,493.609 784.086,493.63 C 784.131,493.652 784.155,493.718 784.133,493.763 C 784.112,493.809 784.045,493.832 784,493.811z"/>
    <path style="fill: none; fill-opacity:0; stroke-width: 1; stroke: #000000" d="M 784 493.811 C 783.955,493.789 783.931,493.723 783.953,493.677 C 783.974,493.632 784.041,493.609 784.086,493.63 C 784.131,493.652 784.155,493.718 784.133,493.763 C 784.112,493.809 784.045,493.832 784,493.811"/>
  </g>
  <line style="fill: none; fill-opacity:0; stroke-width: 1; stroke: #000000" x1="710" y1="430" x2="698" y2="456"/>
  <line style="fill: none; fill-opacity:0; stroke-width: 1; stroke: #000000" x1="684" y1="430" x2="672" y2="456"/>
  <g>
    <line style="fill: none; fill-opacity:0; stroke-width: 1; stroke: #000000" x1="787.849" y1="430.32" x2="761.849" y2="430.328"/>
    <path style="fill: #000000" d="M 787.849 430.32 C 787.849,430.37 787.799,430.42 787.749,430.42 C 787.699,430.42 787.649,430.37 787.649,430.32 C 787.649,430.27 787.699,430.22 787.749,430.22 C 787.799,430.22 787.849,430.27 787.849,430.32z"/>
    <path style="fill: none; fill-opacity:0; stroke-width: 1; stroke: #000000" d="M 787.849 430.32 C 787.849,430.37 787.799,430.42 787.749,430.42 C 787.699,430.42 787.649,430.37 787.649,430.32 C 787.649,430.27 787.699,430.22 787.749,430.22 C 787.799,430.22 787.849,430.27 787.849,430.32"/>
    <path style="fill: #000000" d="M 761.849 430.328 C 761.849,430.278 761.899,430.228 761.949,430.228 C 761.999,430.228 762.049,430.278 762.049,430.328 C 762.049,430.378 761.999,430.428 761.949,430.428 C 761.899,430.428 761.849,430.378 761.849,430.328z"/>
    <path style="fill: none; fill-opacity:0; stroke-width: 1; stroke: #000000" d="M 761.849 430.328 C 761.849,430.278 761.899,430.228 761.949,430.228 C 761.999,430.228 762.049,430.278 762.049,430.328 C 762.049,430.378 761.999,430.428 761.949,430.428 C 761.899,430.428 761.849,430.378 761.849,430.328"/>
  </g>
  <line style="fill: none; fill-opacity:0; stroke-width: 1; stroke: #000000" x1="787.912" y1="430.177" x2="775.912" y2="456.177"/>
  <line style="fill: none; fill-opacity:0; stroke-width: 1; stroke: #000000" x1="761.912" y1="430.177" x2="749.912" y2="456.177"/>
  <text font-size="5.64436" style="fill: #000000;text-anchor:start;font-family:sans-serif;font-style:normal;font-weight:normal" x="688" y="428">
    <tspan x="688" y="428">1,23</tspan>
  </text>
  <text font-size="5.64436" style="fill: #000000;text-anchor:start;font-family:sans-serif;font-style:normal;font-weight:normal" x="720" y="452">
    <tspan x="720" y="452">2,54</tspan>
  </text>
  <text font-size="5.64436" style="fill: #000000;text-anchor:start;font-family:sans-serif;font-style:normal;font-weight:normal" x="768" y="428">
    <tspan x="768" y="428">1,23</tspan>
  </text>
  <text font-size="5.64436" style="fill: #000000;text-anchor:start;font-family:sans-serif;font-style:normal;font-weight:normal" x="640" y="452">
    <tspan x="640" y="452">1,70</tspan>
  </text>
  <text font-size="5.64436" style="fill: #000000;text-anchor:start;font-family:sans-serif;font-style:normal;font-weight:normal" x="796" y="452">
    <tspan x="796" y="452">1,70</tspan>
  </text>
</svg>
