
<svg xmlns="http://www.w3.org/2000/svg"
     xmlns:xlink="http://www.w3.org/1999/xlink" version="1.1" width="1112"
     height="443">
    <defs/>
    <g transform=" scale(0.92) translate(-1010,-331.4)">
        <rect x="1167.4" y="491.4" width="5.2" height="5.2" fill="#000000"
              stroke="none" pointer-events="none"/>
        <rect x="1167.4" y="621.4" width="5.2" height="5.2" fill="#000000"
              stroke="none" pointer-events="none"/>
        <path d="M 1141.4 548.6 C 1198.6 548.6 1198.6 548.6 1198.6 548.6"
              fill="none" stroke="#000000" stroke-width="5.2"
              stroke-linecap="round" stroke-miterlimit="10"
              pointer-events="none"/>
        <path d="M 1141.4 569.4 C 1198.6 569.4 1198.6 569.4 1198.6 569.4"
              fill="none" stroke="#000000" stroke-width="5.2"
              stroke-linecap="round" stroke-miterlimit="10"
              pointer-events="none"/>
        <path d="M 1170 496.6 L 1170 546" fill="#000000" stroke="#000000"
              stroke-width="5.2" stroke-linecap="square" stroke-miterlimit="10"
              pointer-events="none"/>
        <path d="M 1170 572 L 1170 621.4" fill="#000000" stroke="#000000"
              stroke-width="5.2" stroke-linecap="square" stroke-miterlimit="10"
              pointer-events="none"/>
        <rect x="1118" y="702" width="104" height="33.8" fill-opacity="0"
              fill="#dae2f2" stroke="none" pointer-events="none"/>
        <g fill="#000000" font-family="Arial,Helvetica" font-weight="bold"
           text-anchor="middle" font-size="31.200000000000003px">
            <text x="1170" y="729.3">
                g1=1,70
            </text>
        </g>
        <rect x="1092" y="754" width="156" height="33.8" fill-opacity="0"
              fill="#dae2f2" stroke="none" pointer-events="none"/>
        <g fill="#000000" font-family="Arial,Helvetica" font-weight="bold"
           text-anchor="middle" font-size="31.200000000000003px">
            <text x="1170" y="781.3">
                C=2,9409pF
            </text>
        </g>
        <rect x="1583.4" y="491.4" width="5.2" height="5.2" fill="#000000"
              stroke="none" pointer-events="none"/>
        <rect x="1583.4" y="621.4" width="5.2" height="5.2" fill="#000000"
              stroke="none" pointer-events="none"/>
        <path d="M 1557.4 548.6 C 1614.6 548.6 1614.6 548.6 1614.6 548.6"
              fill="none" stroke="#000000" stroke-width="5.2"
              stroke-linecap="round" stroke-miterlimit="10"
              pointer-events="none"/>
        <path d="M 1557.4 569.4 C 1614.6 569.4 1614.6 569.4 1614.6 569.4"
              fill="none" stroke="#000000" stroke-width="5.2"
              stroke-linecap="round" stroke-miterlimit="10"
              pointer-events="none"/>
        <path d="M 1586 496.6 L 1586 546" fill="#000000" stroke="#000000"
              stroke-width="5.2" stroke-linecap="square" stroke-miterlimit="10"
              pointer-events="none"/>
        <path d="M 1586 572 L 1586 621.4" fill="#000000" stroke="#000000"
              stroke-width="5.2" stroke-linecap="square" stroke-miterlimit="10"
              pointer-events="none"/>
        <rect x="1534" y="702" width="104" height="33.8" fill-opacity="0"
              fill="#dae2f2" stroke="none" pointer-events="none"/>
        <g fill="#000000" font-family="Arial,Helvetica" font-weight="bold"
           text-anchor="middle" font-size="31.200000000000003px">
            <text x="1586" y="729.3">
                g3=2,54
            </text>
        </g>
        <rect x="1508" y="754" width="156" height="33.8" fill-opacity="0"
              fill="#dae2f2" stroke="none" pointer-events="none"/>
        <g fill="#000000" font-family="Arial,Helvetica" font-weight="bold"
           text-anchor="middle" font-size="31.200000000000003px">
            <text x="1586" y="781.3">
                C=4,3941pF
            </text>
        </g>
        <rect x="1375.4" y="361.4" width="5.2" height="5.2" fill="#000000"
              stroke="none" transform="rotate(90,1378,442)"
              pointer-events="none"/>
        <rect x="1375.4" y="517.4" width="5.2" height="5.2" fill="#000000"
              stroke="none" transform="rotate(90,1378,442)"
              pointer-events="none"/>
        <path d="M 1373.15 416 C 1365.28 416.02 1358.88 410.22 1358.86 403.04 C 1358.83 395.86 1365.2 390.02 1373.07 390 C 1373.08 390 1373.1 390 1373.11 390"
              fill="none" stroke="#000000" stroke-width="5.2"
              stroke-linejoin="round" stroke-linecap="round"
              stroke-miterlimit="10" transform="rotate(90,1378,442)"
              pointer-events="none"/>
        <path d="M 1372.8 390 L 1378 390" fill="none" stroke="#000000"
              stroke-width="5.2" stroke-linejoin="round" stroke-linecap="round"
              stroke-miterlimit="10" transform="rotate(90,1378,442)"
              pointer-events="none"/>
        <path d="M 1372.8 416 L 1378 416" fill="none" stroke="#000000"
              stroke-width="5.2" stroke-linejoin="round" stroke-linecap="round"
              stroke-miterlimit="10" transform="rotate(90,1378,442)"
              pointer-events="none"/>
        <path d="M 1373.15 442 C 1365.28 442.02 1358.88 436.22 1358.86 429.04 C 1358.83 421.86 1365.2 416.02 1373.07 416 C 1373.08 416 1373.1 416 1373.11 416"
              fill="none" stroke="#000000" stroke-width="5.2"
              stroke-linejoin="round" stroke-linecap="round"
              stroke-miterlimit="10" transform="rotate(90,1378,442)"
              pointer-events="none"/>
        <path d="M 1372.8 416 L 1378 416" fill="none" stroke="#000000"
              stroke-width="5.2" stroke-linejoin="round" stroke-linecap="round"
              stroke-miterlimit="10" transform="rotate(90,1378,442)"
              pointer-events="none"/>
        <path d="M 1372.8 442 L 1378 442" fill="none" stroke="#000000"
              stroke-width="5.2" stroke-linejoin="round" stroke-linecap="round"
              stroke-miterlimit="10" transform="rotate(90,1378,442)"
              pointer-events="none"/>
        <path d="M 1373.15 468 C 1365.28 468.02 1358.88 462.22 1358.86 455.04 C 1358.83 447.86 1365.2 442.02 1373.07 442 C 1373.08 442 1373.1 442 1373.11 442"
              fill="none" stroke="#000000" stroke-width="5.2"
              stroke-linejoin="round" stroke-linecap="round"
              stroke-miterlimit="10" transform="rotate(90,1378,442)"
              pointer-events="none"/>
        <path d="M 1372.8 442 L 1378 442" fill="none" stroke="#000000"
              stroke-width="5.2" stroke-linejoin="round" stroke-linecap="round"
              stroke-miterlimit="10" transform="rotate(90,1378,442)"
              pointer-events="none"/>
        <path d="M 1372.8 468 L 1378 468" fill="none" stroke="#000000"
              stroke-width="5.2" stroke-linejoin="round" stroke-linecap="round"
              stroke-miterlimit="10" transform="rotate(90,1378,442)"
              pointer-events="none"/>
        <path d="M 1373.15 494 C 1365.28 494.02 1358.88 488.22 1358.86 481.04 C 1358.83 473.86 1365.2 468.02 1373.07 468 C 1373.08 468 1373.1 468 1373.11 468"
              fill="none" stroke="#000000" stroke-width="5.2"
              stroke-linejoin="round" stroke-linecap="round"
              stroke-miterlimit="10" transform="rotate(90,1378,442)"
              pointer-events="none"/>
        <path d="M 1372.8 468 L 1378 468" fill="none" stroke="#000000"
              stroke-width="5.2" stroke-linejoin="round" stroke-linecap="round"
              stroke-miterlimit="10" transform="rotate(90,1378,442)"
              pointer-events="none"/>
        <path d="M 1372.8 494 L 1378 494" fill="none" stroke="#000000"
              stroke-width="5.2" stroke-linejoin="round" stroke-linecap="round"
              stroke-miterlimit="10" transform="rotate(90,1378,442)"
              pointer-events="none"/>
        <path d="M 1378 366.6 L 1378 387.4" fill="none" stroke="#000000"
              stroke-width="5.2" stroke-linecap="square" stroke-miterlimit="10"
              transform="rotate(90,1378,442)" pointer-events="none"/>
        <path d="M 1378 496.6 L 1378 517.4" fill="none" stroke="#000000"
              stroke-width="5.2" stroke-linecap="square" stroke-miterlimit="10"
              transform="rotate(90,1378,442)" pointer-events="none"/>
        <rect x="1326" y="702" width="104" height="33.8" fill-opacity="0"
              fill="#dae2f2" stroke="none" pointer-events="none"/>
        <g fill="#000000" font-family="Arial,Helvetica" font-weight="bold"
           text-anchor="middle" font-size="31.200000000000003px">
            <text x="1378" y="729.3">
                g2=1,23
            </text>
        </g>
        <rect x="1300" y="754" width="156" height="33.8" fill-opacity="0"
              fill="#dae2f2" stroke="none" pointer-events="none"/>
        <g fill="#000000" font-family="Arial,Helvetica" font-weight="bold"
           text-anchor="middle" font-size="31.200000000000003px">
            <text x="1378" y="781.3">
                L=5,3196nH
            </text>
        </g>
        <rect x="1999.4" y="491.4" width="5.2" height="5.2" fill="#000000"
              stroke="none" pointer-events="none"/>
        <rect x="1999.4" y="621.4" width="5.2" height="5.2" fill="#000000"
              stroke="none" pointer-events="none"/>
        <path d="M 1973.4 548.6 C 2030.6 548.6 2030.6 548.6 2030.6 548.6"
              fill="none" stroke="#000000" stroke-width="5.2"
              stroke-linecap="round" stroke-miterlimit="10"
              pointer-events="none"/>
        <path d="M 1973.4 569.4 C 2030.6 569.4 2030.6 569.4 2030.6 569.4"
              fill="none" stroke="#000000" stroke-width="5.2"
              stroke-linecap="round" stroke-miterlimit="10"
              pointer-events="none"/>
        <path d="M 2002 496.6 L 2002 546" fill="#000000" stroke="#000000"
              stroke-width="5.2" stroke-linecap="square" stroke-miterlimit="10"
              pointer-events="none"/>
        <path d="M 2002 572 L 2002 621.4" fill="#000000" stroke="#000000"
              stroke-width="5.2" stroke-linecap="square" stroke-miterlimit="10"
              pointer-events="none"/>
        <rect x="1950" y="702" width="104" height="33.8" fill-opacity="0"
              fill="#dae2f2" stroke="none" pointer-events="none"/>
        <g fill="#000000" font-family="Arial,Helvetica" font-weight="bold"
           text-anchor="middle" font-size="31.200000000000003px">
            <text x="2002" y="729.3">
                g5=1,70
            </text>
        </g>
        <rect x="1924" y="754" width="156" height="33.8" fill-opacity="0"
              fill="#dae2f2" stroke="none" pointer-events="none"/>
        <g fill="#000000" font-family="Arial,Helvetica" font-weight="bold"
           text-anchor="middle" font-size="31.200000000000003px">
            <text x="2002" y="781.3">
                C=2,9409pF
            </text>
        </g>
        <rect x="1791.4" y="361.4" width="5.2" height="5.2" fill="#000000"
              stroke="none" transform="rotate(90,1794,442)"
              pointer-events="none"/>
        <rect x="1791.4" y="517.4" width="5.2" height="5.2" fill="#000000"
              stroke="none" transform="rotate(90,1794,442)"
              pointer-events="none"/>
        <path d="M 1789.15 416 C 1781.28 416.02 1774.88 410.22 1774.86 403.04 C 1774.83 395.86 1781.2 390.02 1789.07 390 C 1789.08 390 1789.1 390 1789.11 390"
              fill="none" stroke="#000000" stroke-width="5.2"
              stroke-linejoin="round" stroke-linecap="round"
              stroke-miterlimit="10" transform="rotate(90,1794,442)"
              pointer-events="none"/>
        <path d="M 1788.8 390 L 1794 390" fill="none" stroke="#000000"
              stroke-width="5.2" stroke-linejoin="round" stroke-linecap="round"
              stroke-miterlimit="10" transform="rotate(90,1794,442)"
              pointer-events="none"/>
        <path d="M 1788.8 416 L 1794 416" fill="none" stroke="#000000"
              stroke-width="5.2" stroke-linejoin="round" stroke-linecap="round"
              stroke-miterlimit="10" transform="rotate(90,1794,442)"
              pointer-events="none"/>
        <path d="M 1789.15 442 C 1781.28 442.02 1774.88 436.22 1774.86 429.04 C 1774.83 421.86 1781.2 416.02 1789.07 416 C 1789.08 416 1789.1 416 1789.11 416"
              fill="none" stroke="#000000" stroke-width="5.2"
              stroke-linejoin="round" stroke-linecap="round"
              stroke-miterlimit="10" transform="rotate(90,1794,442)"
              pointer-events="none"/>
        <path d="M 1788.8 416 L 1794 416" fill="none" stroke="#000000"
              stroke-width="5.2" stroke-linejoin="round" stroke-linecap="round"
              stroke-miterlimit="10" transform="rotate(90,1794,442)"
              pointer-events="none"/>
        <path d="M 1788.8 442 L 1794 442" fill="none" stroke="#000000"
              stroke-width="5.2" stroke-linejoin="round" stroke-linecap="round"
              stroke-miterlimit="10" transform="rotate(90,1794,442)"
              pointer-events="none"/>
        <path d="M 1789.15 468 C 1781.28 468.02 1774.88 462.22 1774.86 455.04 C 1774.83 447.86 1781.2 442.02 1789.07 442 C 1789.08 442 1789.1 442 1789.11 442"
              fill="none" stroke="#000000" stroke-width="5.2"
              stroke-linejoin="round" stroke-linecap="round"
              stroke-miterlimit="10" transform="rotate(90,1794,442)"
              pointer-events="none"/>
        <path d="M 1788.8 442 L 1794 442" fill="none" stroke="#000000"
              stroke-width="5.2" stroke-linejoin="round" stroke-linecap="round"
              stroke-miterlimit="10" transform="rotate(90,1794,442)"
              pointer-events="none"/>
        <path d="M 1788.8 468 L 1794 468" fill="none" stroke="#000000"
              stroke-width="5.2" stroke-linejoin="round" stroke-linecap="round"
              stroke-miterlimit="10" transform="rotate(90,1794,442)"
              pointer-events="none"/>
        <path d="M 1789.15 494 C 1781.28 494.02 1774.88 488.22 1774.86 481.04 C 1774.83 473.86 1781.2 468.02 1789.07 468 C 1789.08 468 1789.1 468 1789.11 468"
              fill="none" stroke="#000000" stroke-width="5.2"
              stroke-linejoin="round" stroke-linecap="round"
              stroke-miterlimit="10" transform="rotate(90,1794,442)"
              pointer-events="none"/>
        <path d="M 1788.8 468 L 1794 468" fill="none" stroke="#000000"
              stroke-width="5.2" stroke-linejoin="round" stroke-linecap="round"
              stroke-miterlimit="10" transform="rotate(90,1794,442)"
              pointer-events="none"/>
        <path d="M 1788.8 494 L 1794 494" fill="none" stroke="#000000"
              stroke-width="5.2" stroke-linejoin="round" stroke-linecap="round"
              stroke-miterlimit="10" transform="rotate(90,1794,442)"
              pointer-events="none"/>
        <path d="M 1794 366.6 L 1794 387.4" fill="none" stroke="#000000"
              stroke-width="5.2" stroke-linecap="square" stroke-miterlimit="10"
              transform="rotate(90,1794,442)" pointer-events="none"/>
        <path d="M 1794 496.6 L 1794 517.4" fill="none" stroke="#000000"
              stroke-width="5.2" stroke-linecap="square" stroke-miterlimit="10"
              transform="rotate(90,1794,442)" pointer-events="none"/>
        <rect x="1742" y="702" width="104" height="33.8" fill-opacity="0"
              fill="#dae2f2" stroke="none" pointer-events="none"/>
        <g fill="#000000" font-family="Arial,Helvetica" font-weight="bold"
           text-anchor="middle" font-size="31.200000000000003px">
            <text x="1794" y="729.3">
                g4=1,23
            </text>
        </g>
        <rect x="1716" y="754" width="156" height="33.8" fill-opacity="0"
              fill="#dae2f2" stroke="none" pointer-events="none"/>
        <g fill="#000000" font-family="Arial,Helvetica" font-weight="bold"
           text-anchor="middle" font-size="31.200000000000003px">
            <text x="1794" y="781.3">
                L=5,3196nH
            </text>
        </g>
        <rect x="1037.4" y="465.4" width="5.2" height="5.2" fill="#000000"
              stroke="none" transform="rotate(270,1040,442)"
              pointer-events="none"/>
        <ellipse cx="1040" cy="442" rx="10.751" ry="10.751" fill="#ffffff"
                 stroke="#000000" stroke-width="5.2"
                 transform="rotate(270,1040,442)" pointer-events="none"/>
        <path d="M 1040 455 L 1040 465.4" fill="#ffffff" stroke="#000000"
              stroke-width="5.2" stroke-linecap="square" stroke-miterlimit="10"
              transform="rotate(270,1040,442)" pointer-events="none"/>
        <rect x="2129.4" y="465.4" width="5.2" height="5.2" fill="#000000"
              stroke="none" transform="rotate(90,2132,442)"
              pointer-events="none"/>
        <ellipse cx="2132" cy="442" rx="10.751" ry="10.751" fill="#ffffff"
                 stroke="#000000" stroke-width="5.2"
                 transform="rotate(90,2132,442)" pointer-events="none"/>
        <path d="M 2132 455 L 2132 465.4" fill="#ffffff" stroke="#000000"
              stroke-width="5.2" stroke-linecap="square" stroke-miterlimit="10"
              transform="rotate(90,2132,442)" pointer-events="none"/>
        <rect x="1037.4" y="699.4" width="5.2" height="5.2" fill="#000000"
              stroke="none" transform="rotate(270,1040,676)"
              pointer-events="none"/>
        <ellipse cx="1040" cy="676" rx="10.751" ry="10.751" fill="#ffffff"
                 stroke="#000000" stroke-width="5.2"
                 transform="rotate(270,1040,676)" pointer-events="none"/>
        <path d="M 1040 689 L 1040 699.4" fill="#ffffff" stroke="#000000"
              stroke-width="5.2" stroke-linecap="square" stroke-miterlimit="10"
              transform="rotate(270,1040,676)" pointer-events="none"/>
        <rect x="2129.4" y="699.4" width="5.2" height="5.2" fill="#000000"
              stroke="none" transform="rotate(90,2132,676)"
              pointer-events="none"/>
        <ellipse cx="2132" cy="676" rx="10.751" ry="10.751" fill="#ffffff"
                 stroke="#000000" stroke-width="5.2"
                 transform="rotate(90,2132,676)" pointer-events="none"/>
        <path d="M 2132 689 L 2132 699.4" fill="#ffffff" stroke="#000000"
              stroke-width="5.2" stroke-linecap="square" stroke-miterlimit="10"
              transform="rotate(90,2132,676)" pointer-events="none"/>
        <path d="M 1066 676 L 2106 676" fill="none" stroke="#000000"
              stroke-width="5.2" stroke-miterlimit="10" pointer-events="none"/>
        <path d="M 1066 442 L 1300 442" fill="none" stroke="#000000"
              stroke-width="5.2" stroke-miterlimit="10" pointer-events="none"/>
        <path d="M 1456 442 L 1716 442" fill="none" stroke="#000000"
              stroke-width="5.2" stroke-miterlimit="10" pointer-events="none"/>
        <path d="M 1872 442 L 2106 442" fill="none" stroke="#000000"
              stroke-width="5.2" stroke-miterlimit="10" pointer-events="none"/>
        <path d="M 2002 624 L 2002 676 L 2002 670.8" fill="none"
              stroke="#000000" stroke-width="5.2" stroke-miterlimit="10"
              pointer-events="none"/>
        <ellipse cx="2002" cy="676" rx="5.2" ry="5.2" fill="#000000"
                 stroke="#000000" stroke-width="5.2" pointer-events="none"/>
        <path d="M 1586 624 L 1586 676 L 1586 670.8" fill="none"
              stroke="#000000" stroke-width="5.2" stroke-miterlimit="10"
              pointer-events="none"/>
        <ellipse cx="1586" cy="676" rx="5.2" ry="5.2" fill="#000000"
                 stroke="#000000" stroke-width="5.2" pointer-events="none"/>
        <path d="M 1586 494 L 1586 442 L 1586 447.2" fill="none"
              stroke="#000000" stroke-width="5.2" stroke-miterlimit="10"
              pointer-events="none"/>
        <ellipse cx="1586" cy="442" rx="5.2" ry="5.2" fill="#000000"
                 stroke="#000000" stroke-width="5.2" pointer-events="none"/>
        <path d="M 2002 494 L 2002 442 L 2002 447.2" fill="none"
              stroke="#000000" stroke-width="5.2" stroke-miterlimit="10"
              pointer-events="none"/>
        <ellipse cx="2002" cy="442" rx="5.2" ry="5.2" fill="#000000"
                 stroke="#000000" stroke-width="5.2" pointer-events="none"/>
        <path d="M 1170 494 L 1170 442 L 1170 447.2" fill="none"
              stroke="#000000" stroke-width="5.2" stroke-miterlimit="10"
              pointer-events="none"/>
        <ellipse cx="1170" cy="442" rx="5.2" ry="5.2" fill="#000000"
                 stroke="#000000" stroke-width="5.2" pointer-events="none"/>
        <path d="M 1170 624 L 1170 676 L 1170 670.8" fill="none"
              stroke="#000000" stroke-width="5.2" stroke-miterlimit="10"
              pointer-events="none"/>
        <ellipse cx="1170" cy="676" rx="5.2" ry="5.2" fill="#000000"
                 stroke="#000000" stroke-width="5.2" pointer-events="none"/>
        <path d="M 1274 338 L 1274 806" fill="none" stroke="#bf00bf"
              stroke-width="5.2" stroke-miterlimit="10"
              stroke-dasharray="5.2 5.2" pointer-events="none"/>
        <path d="M 1482 338 L 1482 806" fill="none" stroke="#bf00bf"
              stroke-width="5.2" stroke-miterlimit="10"
              stroke-dasharray="5.2 5.2" pointer-events="none"/>
        <path d="M 1690 338 L 1690 806" fill="none" stroke="#bf00bf"
              stroke-width="5.2" stroke-miterlimit="10"
              stroke-dasharray="5.2 5.2" pointer-events="none"/>
        <path d="M 1898 338 L 1898 806" fill="none" stroke="#bf00bf"
              stroke-width="5.2" stroke-miterlimit="10"
              stroke-dasharray="5.2 5.2" pointer-events="none"/>
    </g>
</svg>