
<svg xmlns="http://www.w3.org/2000/svg"
     xmlns:xlink="http://www.w3.org/1999/xlink" version="1.1" width="1088"
     height="333">
    <defs/>
    <g transform=" scale(0.89) translate(-836,-975.390625)">
        <rect x="1005.2" y="1117.2" width="5.6" height="5.6" fill="#000000"
              stroke="none" pointer-events="none"/>
        <rect x="1005.2" y="1257.2" width="5.6" height="5.6" fill="#000000"
              stroke="none" pointer-events="none"/>
        <path d="M 977.2 1178.8 C 1038.8 1178.8 1038.8 1178.8 1038.8 1178.8"
              fill="none" stroke="#000000" stroke-width="5.6"
              stroke-linecap="round" stroke-miterlimit="10"
              pointer-events="none"/>
        <path d="M 977.2 1201.2 C 1038.8 1201.2 1038.8 1201.2 1038.8 1201.2"
              fill="none" stroke="#000000" stroke-width="5.6"
              stroke-linecap="round" stroke-miterlimit="10"
              pointer-events="none"/>
        <path d="M 1008 1122.8 L 1008 1176" fill="#000000" stroke="#000000"
              stroke-width="5.6" stroke-linecap="square" stroke-miterlimit="10"
              pointer-events="none"/>
        <path d="M 1008 1204 L 1008 1257.2" fill="#000000" stroke="#000000"
              stroke-width="5.6" stroke-linecap="square" stroke-miterlimit="10"
              pointer-events="none"/>
        <rect x="924" y="1176" width="33.6" height="36.4" fill-opacity="0"
              fill="#dae2f2" stroke="none" pointer-events="none"/>
        <g fill="#000000" font-family="Arial,Helvetica" font-weight="bold"
           text-anchor="middle" font-size="33.599999999999994px">
            <text x="940.8" y="1205.4">
                g1
            </text>
        </g>
        <rect x="1397.2" y="1117.2" width="5.6" height="5.6" fill="#000000"
              stroke="none" pointer-events="none"/>
        <rect x="1397.2" y="1257.2" width="5.6" height="5.6" fill="#000000"
              stroke="none" pointer-events="none"/>
        <path d="M 1369.2 1178.8 C 1430.8 1178.8 1430.8 1178.8 1430.8 1178.8"
              fill="none" stroke="#000000" stroke-width="5.6"
              stroke-linecap="round" stroke-miterlimit="10"
              pointer-events="none"/>
        <path d="M 1369.2 1201.2 C 1430.8 1201.2 1430.8 1201.2 1430.8 1201.2"
              fill="none" stroke="#000000" stroke-width="5.6"
              stroke-linecap="round" stroke-miterlimit="10"
              pointer-events="none"/>
        <path d="M 1400 1122.8 L 1400 1176" fill="#000000" stroke="#000000"
              stroke-width="5.6" stroke-linecap="square" stroke-miterlimit="10"
              pointer-events="none"/>
        <path d="M 1400 1204 L 1400 1257.2" fill="#000000" stroke="#000000"
              stroke-width="5.6" stroke-linecap="square" stroke-miterlimit="10"
              pointer-events="none"/>
        <rect x="1316" y="1176" width="33.6" height="36.4" fill-opacity="0"
              fill="#dae2f2" stroke="none" pointer-events="none"/>
        <g fill="#000000" font-family="Arial,Helvetica" font-weight="bold"
           text-anchor="middle" font-size="33.599999999999994px">
            <text x="1332.8" y="1205.4">
                g3
            </text>
        </g>
        <rect x="1201.2" y="977.2" width="5.6" height="5.6" fill="#000000"
              stroke="none" transform="rotate(90,1204,1064)"
              pointer-events="none"/>
        <rect x="1201.2" y="1145.2" width="5.6" height="5.6" fill="#000000"
              stroke="none" transform="rotate(90,1204,1064)"
              pointer-events="none"/>
        <path d="M 1198.78 1036 C 1190.3 1036.02 1183.41 1029.77 1183.38 1022.04 C 1183.36 1014.31 1190.21 1008.02 1198.69 1008 C 1198.7 1008 1198.72 1008 1198.73 1008"
              fill="none" stroke="#000000" stroke-width="5.6"
              stroke-linejoin="round" stroke-linecap="round"
              stroke-miterlimit="10" transform="rotate(90,1204,1064)"
              pointer-events="none"/>
        <path d="M 1198.4 1008 L 1204 1008" fill="none" stroke="#000000"
              stroke-width="5.6" stroke-linejoin="round" stroke-linecap="round"
              stroke-miterlimit="10" transform="rotate(90,1204,1064)"
              pointer-events="none"/>
        <path d="M 1198.4 1036 L 1204 1036" fill="none" stroke="#000000"
              stroke-width="5.6" stroke-linejoin="round" stroke-linecap="round"
              stroke-miterlimit="10" transform="rotate(90,1204,1064)"
              pointer-events="none"/>
        <path d="M 1198.78 1064 C 1190.3 1064.02 1183.41 1057.77 1183.38 1050.04 C 1183.36 1042.31 1190.21 1036.02 1198.69 1036 C 1198.7 1036 1198.72 1036 1198.73 1036"
              fill="none" stroke="#000000" stroke-width="5.6"
              stroke-linejoin="round" stroke-linecap="round"
              stroke-miterlimit="10" transform="rotate(90,1204,1064)"
              pointer-events="none"/>
        <path d="M 1198.4 1036 L 1204 1036" fill="none" stroke="#000000"
              stroke-width="5.6" stroke-linejoin="round" stroke-linecap="round"
              stroke-miterlimit="10" transform="rotate(90,1204,1064)"
              pointer-events="none"/>
        <path d="M 1198.4 1064 L 1204 1064" fill="none" stroke="#000000"
              stroke-width="5.6" stroke-linejoin="round" stroke-linecap="round"
              stroke-miterlimit="10" transform="rotate(90,1204,1064)"
              pointer-events="none"/>
        <path d="M 1198.78 1092 C 1190.3 1092.02 1183.41 1085.77 1183.38 1078.04 C 1183.36 1070.31 1190.21 1064.02 1198.69 1064 C 1198.7 1064 1198.72 1064 1198.73 1064"
              fill="none" stroke="#000000" stroke-width="5.6"
              stroke-linejoin="round" stroke-linecap="round"
              stroke-miterlimit="10" transform="rotate(90,1204,1064)"
              pointer-events="none"/>
        <path d="M 1198.4 1064 L 1204 1064" fill="none" stroke="#000000"
              stroke-width="5.6" stroke-linejoin="round" stroke-linecap="round"
              stroke-miterlimit="10" transform="rotate(90,1204,1064)"
              pointer-events="none"/>
        <path d="M 1198.4 1092 L 1204 1092" fill="none" stroke="#000000"
              stroke-width="5.6" stroke-linejoin="round" stroke-linecap="round"
              stroke-miterlimit="10" transform="rotate(90,1204,1064)"
              pointer-events="none"/>
        <path d="M 1198.78 1120 C 1190.3 1120.02 1183.41 1113.77 1183.38 1106.04 C 1183.36 1098.31 1190.21 1092.02 1198.69 1092 C 1198.7 1092 1198.72 1092 1198.73 1092"
              fill="none" stroke="#000000" stroke-width="5.6"
              stroke-linejoin="round" stroke-linecap="round"
              stroke-miterlimit="10" transform="rotate(90,1204,1064)"
              pointer-events="none"/>
        <path d="M 1198.4 1092 L 1204 1092" fill="none" stroke="#000000"
              stroke-width="5.6" stroke-linejoin="round" stroke-linecap="round"
              stroke-miterlimit="10" transform="rotate(90,1204,1064)"
              pointer-events="none"/>
        <path d="M 1198.4 1120 L 1204 1120" fill="none" stroke="#000000"
              stroke-width="5.6" stroke-linejoin="round" stroke-linecap="round"
              stroke-miterlimit="10" transform="rotate(90,1204,1064)"
              pointer-events="none"/>
        <path d="M 1204 982.8 L 1204 1005.2" fill="none" stroke="#000000"
              stroke-width="5.6" stroke-linecap="square" stroke-miterlimit="10"
              transform="rotate(90,1204,1064)" pointer-events="none"/>
        <path d="M 1204 1122.8 L 1204 1145.2" fill="none" stroke="#000000"
              stroke-width="5.6" stroke-linecap="square" stroke-miterlimit="10"
              transform="rotate(90,1204,1064)" pointer-events="none"/>
        <rect x="1176" y="980" width="33.6" height="36.4" fill-opacity="0"
              fill="#dae2f2" stroke="none" pointer-events="none"/>
        <g fill="#000000" font-family="Arial,Helvetica" font-weight="bold"
           text-anchor="middle" font-size="33.599999999999994px">
            <text x="1192.8" y="1009.4">
                g2
            </text>
        </g>
        <rect x="1789.2" y="1117.2" width="5.6" height="5.6" fill="#000000"
              stroke="none" pointer-events="none"/>
        <rect x="1789.2" y="1257.2" width="5.6" height="5.6" fill="#000000"
              stroke="none" pointer-events="none"/>
        <path d="M 1761.2 1178.8 C 1822.8 1178.8 1822.8 1178.8 1822.8 1178.8"
              fill="none" stroke="#000000" stroke-width="5.6"
              stroke-linecap="round" stroke-miterlimit="10"
              pointer-events="none"/>
        <path d="M 1761.2 1201.2 C 1822.8 1201.2 1822.8 1201.2 1822.8 1201.2"
              fill="none" stroke="#000000" stroke-width="5.6"
              stroke-linecap="round" stroke-miterlimit="10"
              pointer-events="none"/>
        <path d="M 1792 1122.8 L 1792 1176" fill="#000000" stroke="#000000"
              stroke-width="5.6" stroke-linecap="square" stroke-miterlimit="10"
              pointer-events="none"/>
        <path d="M 1792 1204 L 1792 1257.2" fill="#000000" stroke="#000000"
              stroke-width="5.6" stroke-linecap="square" stroke-miterlimit="10"
              pointer-events="none"/>
        <rect x="1708" y="1176" width="33.6" height="36.4" fill-opacity="0"
              fill="#dae2f2" stroke="none" pointer-events="none"/>
        <g fill="#000000" font-family="Arial,Helvetica" font-weight="bold"
           text-anchor="middle" font-size="33.599999999999994px">
            <text x="1724.8" y="1205.4">
                g5
            </text>
        </g>
        <rect x="1593.2" y="977.2" width="5.6" height="5.6" fill="#000000"
              stroke="none" transform="rotate(90,1596,1064)"
              pointer-events="none"/>
        <rect x="1593.2" y="1145.2" width="5.6" height="5.6" fill="#000000"
              stroke="none" transform="rotate(90,1596,1064)"
              pointer-events="none"/>
        <path d="M 1590.78 1036 C 1582.3 1036.02 1575.41 1029.77 1575.38 1022.04 C 1575.36 1014.31 1582.21 1008.02 1590.69 1008 C 1590.7 1008 1590.72 1008 1590.73 1008"
              fill="none" stroke="#000000" stroke-width="5.6"
              stroke-linejoin="round" stroke-linecap="round"
              stroke-miterlimit="10" transform="rotate(90,1596,1064)"
              pointer-events="none"/>
        <path d="M 1590.4 1008 L 1596 1008" fill="none" stroke="#000000"
              stroke-width="5.6" stroke-linejoin="round" stroke-linecap="round"
              stroke-miterlimit="10" transform="rotate(90,1596,1064)"
              pointer-events="none"/>
        <path d="M 1590.4 1036 L 1596 1036" fill="none" stroke="#000000"
              stroke-width="5.6" stroke-linejoin="round" stroke-linecap="round"
              stroke-miterlimit="10" transform="rotate(90,1596,1064)"
              pointer-events="none"/>
        <path d="M 1590.78 1064 C 1582.3 1064.02 1575.41 1057.77 1575.38 1050.04 C 1575.36 1042.31 1582.21 1036.02 1590.69 1036 C 1590.7 1036 1590.72 1036 1590.73 1036"
              fill="none" stroke="#000000" stroke-width="5.6"
              stroke-linejoin="round" stroke-linecap="round"
              stroke-miterlimit="10" transform="rotate(90,1596,1064)"
              pointer-events="none"/>
        <path d="M 1590.4 1036 L 1596 1036" fill="none" stroke="#000000"
              stroke-width="5.6" stroke-linejoin="round" stroke-linecap="round"
              stroke-miterlimit="10" transform="rotate(90,1596,1064)"
              pointer-events="none"/>
        <path d="M 1590.4 1064 L 1596 1064" fill="none" stroke="#000000"
              stroke-width="5.6" stroke-linejoin="round" stroke-linecap="round"
              stroke-miterlimit="10" transform="rotate(90,1596,1064)"
              pointer-events="none"/>
        <path d="M 1590.78 1092 C 1582.3 1092.02 1575.41 1085.77 1575.38 1078.04 C 1575.36 1070.31 1582.21 1064.02 1590.69 1064 C 1590.7 1064 1590.72 1064 1590.73 1064"
              fill="none" stroke="#000000" stroke-width="5.6"
              stroke-linejoin="round" stroke-linecap="round"
              stroke-miterlimit="10" transform="rotate(90,1596,1064)"
              pointer-events="none"/>
        <path d="M 1590.4 1064 L 1596 1064" fill="none" stroke="#000000"
              stroke-width="5.6" stroke-linejoin="round" stroke-linecap="round"
              stroke-miterlimit="10" transform="rotate(90,1596,1064)"
              pointer-events="none"/>
        <path d="M 1590.4 1092 L 1596 1092" fill="none" stroke="#000000"
              stroke-width="5.6" stroke-linejoin="round" stroke-linecap="round"
              stroke-miterlimit="10" transform="rotate(90,1596,1064)"
              pointer-events="none"/>
        <path d="M 1590.78 1120 C 1582.3 1120.02 1575.41 1113.77 1575.38 1106.04 C 1575.36 1098.31 1582.21 1092.02 1590.69 1092 C 1590.7 1092 1590.72 1092 1590.73 1092"
              fill="none" stroke="#000000" stroke-width="5.6"
              stroke-linejoin="round" stroke-linecap="round"
              stroke-miterlimit="10" transform="rotate(90,1596,1064)"
              pointer-events="none"/>
        <path d="M 1590.4 1092 L 1596 1092" fill="none" stroke="#000000"
              stroke-width="5.6" stroke-linejoin="round" stroke-linecap="round"
              stroke-miterlimit="10" transform="rotate(90,1596,1064)"
              pointer-events="none"/>
        <path d="M 1590.4 1120 L 1596 1120" fill="none" stroke="#000000"
              stroke-width="5.6" stroke-linejoin="round" stroke-linecap="round"
              stroke-miterlimit="10" transform="rotate(90,1596,1064)"
              pointer-events="none"/>
        <path d="M 1596 982.8 L 1596 1005.2" fill="none" stroke="#000000"
              stroke-width="5.6" stroke-linecap="square" stroke-miterlimit="10"
              transform="rotate(90,1596,1064)" pointer-events="none"/>
        <path d="M 1596 1122.8 L 1596 1145.2" fill="none" stroke="#000000"
              stroke-width="5.6" stroke-linecap="square" stroke-miterlimit="10"
              transform="rotate(90,1596,1064)" pointer-events="none"/>
        <rect x="1568" y="980" width="33.6" height="36.4" fill-opacity="0"
              fill="#dae2f2" stroke="none" pointer-events="none"/>
        <g fill="#000000" font-family="Arial,Helvetica" font-weight="bold"
           text-anchor="middle" font-size="33.599999999999994px">
            <text x="1584.8" y="1009.4">
                g4
            </text>
        </g>
        <rect x="865.2" y="1089.2" width="5.6" height="5.6" fill="#000000"
              stroke="none" transform="rotate(270,868,1064)"
              pointer-events="none"/>
        <ellipse cx="868" cy="1064" rx="11.578" ry="11.578" fill="#ffffff"
                 stroke="#000000" stroke-width="5.6"
                 transform="rotate(270,868,1064)" pointer-events="none"/>
        <path d="M 868 1078 L 868 1089.2" fill="#ffffff" stroke="#000000"
              stroke-width="5.6" stroke-linecap="square" stroke-miterlimit="10"
              transform="rotate(270,868,1064)" pointer-events="none"/>
        <rect x="1929.2" y="1089.2" width="5.6" height="5.6" fill="#000000"
              stroke="none" transform="rotate(90,1932,1064)"
              pointer-events="none"/>
        <ellipse cx="1932" cy="1064" rx="11.578" ry="11.578" fill="#ffffff"
                 stroke="#000000" stroke-width="5.6"
                 transform="rotate(90,1932,1064)" pointer-events="none"/>
        <path d="M 1932 1078 L 1932 1089.2" fill="#ffffff" stroke="#000000"
              stroke-width="5.6" stroke-linecap="square" stroke-miterlimit="10"
              transform="rotate(90,1932,1064)" pointer-events="none"/>
        <rect x="865.2" y="1341.2" width="5.6" height="5.6" fill="#000000"
              stroke="none" transform="rotate(270,868,1316)"
              pointer-events="none"/>
        <ellipse cx="868" cy="1316" rx="11.578" ry="11.578" fill="#ffffff"
                 stroke="#000000" stroke-width="5.6"
                 transform="rotate(270,868,1316)" pointer-events="none"/>
        <path d="M 868 1330 L 868 1341.2" fill="#ffffff" stroke="#000000"
              stroke-width="5.6" stroke-linecap="square" stroke-miterlimit="10"
              transform="rotate(270,868,1316)" pointer-events="none"/>
        <rect x="1929.2" y="1341.2" width="5.6" height="5.6" fill="#000000"
              stroke="none" transform="rotate(90,1932,1316)"
              pointer-events="none"/>
        <ellipse cx="1932" cy="1316" rx="11.578" ry="11.578" fill="#ffffff"
                 stroke="#000000" stroke-width="5.6"
                 transform="rotate(90,1932,1316)" pointer-events="none"/>
        <path d="M 1932 1330 L 1932 1341.2" fill="#ffffff" stroke="#000000"
              stroke-width="5.6" stroke-linecap="square" stroke-miterlimit="10"
              transform="rotate(90,1932,1316)" pointer-events="none"/>
        <path d="M 896 1316 L 1904 1316" fill="none" stroke="#000000"
              stroke-width="5.6" stroke-miterlimit="10" pointer-events="none"/>
        <path d="M 896 1064 L 1120 1064" fill="none" stroke="#000000"
              stroke-width="5.6" stroke-miterlimit="10" pointer-events="none"/>
        <path d="M 1288 1064 L 1512 1064" fill="none" stroke="#000000"
              stroke-width="5.6" stroke-miterlimit="10" pointer-events="none"/>
        <path d="M 1680 1064 L 1904 1064" fill="none" stroke="#000000"
              stroke-width="5.6" stroke-miterlimit="10" pointer-events="none"/>
        <path d="M 1792 1260 L 1792 1310.4" fill="none" stroke="#000000"
              stroke-width="5.6" stroke-miterlimit="10" pointer-events="none"/>
        <ellipse cx="1792" cy="1316" rx="5.6" ry="5.6" fill="#000000"
                 stroke="#000000" stroke-width="5.6" pointer-events="none"/>
        <path d="M 1400 1260 L 1400 1310.4" fill="none" stroke="#000000"
              stroke-width="5.6" stroke-miterlimit="10" pointer-events="none"/>
        <ellipse cx="1400" cy="1316" rx="5.6" ry="5.6" fill="#000000"
                 stroke="#000000" stroke-width="5.6" pointer-events="none"/>
        <path d="M 1400 1120 L 1400 1069.6" fill="none" stroke="#000000"
              stroke-width="5.6" stroke-miterlimit="10" pointer-events="none"/>
        <ellipse cx="1400" cy="1064" rx="5.6" ry="5.6" fill="#000000"
                 stroke="#000000" stroke-width="5.6" pointer-events="none"/>
        <path d="M 1792 1120 L 1792 1069.6" fill="none" stroke="#000000"
              stroke-width="5.6" stroke-miterlimit="10" pointer-events="none"/>
        <ellipse cx="1792" cy="1064" rx="5.6" ry="5.6" fill="#000000"
                 stroke="#000000" stroke-width="5.6" pointer-events="none"/>
        <path d="M 1008 1120 L 1008 1064 L 1008 1069.6" fill="none"
              stroke="#000000" stroke-width="5.6" stroke-miterlimit="10"
              pointer-events="none"/>
        <ellipse cx="1008" cy="1064" rx="5.6" ry="5.6" fill="#000000"
                 stroke="#000000" stroke-width="5.6" pointer-events="none"/>
        <path d="M 1008 1260 L 1008 1316 L 1008 1310.4" fill="none"
              stroke="#000000" stroke-width="5.6" stroke-miterlimit="10"
              pointer-events="none"/>
        <ellipse cx="1008" cy="1316" rx="5.6" ry="5.6" fill="#000000"
                 stroke="#000000" stroke-width="5.6" pointer-events="none"/>
    </g>
</svg>