
<svg xmlns="http://www.w3.org/2000/svg"
     xmlns:xlink="http://www.w3.org/1999/xlink" version="1.1" width="928"
     height="257">
    <defs/>
    <g transform=" scale(0.87) translate(-556,-395.03125)">
        <path d="M 1392 560 L 1472 432" fill="none" stroke="#000000"
              stroke-width="3.2" stroke-miterlimit="10" pointer-events="none"/>
        <rect x="750.4" y="510.4" width="3.2" height="3.2" fill="#000000"
              stroke="none" transform="rotate(90,752,560)" pointer-events="none"/>
        <rect x="750.4" y="606.4" width="3.2" height="3.2" fill="#000000"
              stroke="none" transform="rotate(90,752,560)" pointer-events="none"/>
        <path d="M 749.02 544 C 744.17 544.01 740.23 540.44 740.22 536.02 C 740.21 531.61 744.12 528.01 748.97 528 C 748.97 528 748.98 528 748.99 528"
              fill="none" stroke="#000000" stroke-width="3.2"
              stroke-linejoin="round" stroke-linecap="round"
              stroke-miterlimit="10" transform="rotate(90,752,560)"
              pointer-events="none"/>
        <path d="M 748.8 528 L 752 528" fill="none" stroke="#000000"
              stroke-width="3.2" stroke-linejoin="round" stroke-linecap="round"
              stroke-miterlimit="10" transform="rotate(90,752,560)"
              pointer-events="none"/>
        <path d="M 748.8 544 L 752 544" fill="none" stroke="#000000"
              stroke-width="3.2" stroke-linejoin="round" stroke-linecap="round"
              stroke-miterlimit="10" transform="rotate(90,752,560)"
              pointer-events="none"/>
        <path d="M 749.02 560 C 744.17 560.01 740.23 556.44 740.22 552.02 C 740.21 547.61 744.12 544.01 748.97 544 C 748.97 544 748.98 544 748.99 544"
              fill="none" stroke="#000000" stroke-width="3.2"
              stroke-linejoin="round" stroke-linecap="round"
              stroke-miterlimit="10" transform="rotate(90,752,560)"
              pointer-events="none"/>
        <path d="M 748.8 544 L 752 544" fill="none" stroke="#000000"
              stroke-width="3.2" stroke-linejoin="round" stroke-linecap="round"
              stroke-miterlimit="10" transform="rotate(90,752,560)"
              pointer-events="none"/>
        <path d="M 748.8 560 L 752 560" fill="none" stroke="#000000"
              stroke-width="3.2" stroke-linejoin="round" stroke-linecap="round"
              stroke-miterlimit="10" transform="rotate(90,752,560)"
              pointer-events="none"/>
        <path d="M 749.02 576 C 744.17 576.01 740.23 572.44 740.22 568.02 C 740.21 563.61 744.12 560.01 748.97 560 C 748.97 560 748.98 560 748.99 560"
              fill="none" stroke="#000000" stroke-width="3.2"
              stroke-linejoin="round" stroke-linecap="round"
              stroke-miterlimit="10" transform="rotate(90,752,560)"
              pointer-events="none"/>
        <path d="M 748.8 560 L 752 560" fill="none" stroke="#000000"
              stroke-width="3.2" stroke-linejoin="round" stroke-linecap="round"
              stroke-miterlimit="10" transform="rotate(90,752,560)"
              pointer-events="none"/>
        <path d="M 748.8 576 L 752 576" fill="none" stroke="#000000"
              stroke-width="3.2" stroke-linejoin="round" stroke-linecap="round"
              stroke-miterlimit="10" transform="rotate(90,752,560)"
              pointer-events="none"/>
        <path d="M 749.02 592 C 744.17 592.01 740.23 588.44 740.22 584.02 C 740.21 579.61 744.12 576.01 748.97 576 C 748.97 576 748.98 576 748.99 576"
              fill="none" stroke="#000000" stroke-width="3.2"
              stroke-linejoin="round" stroke-linecap="round"
              stroke-miterlimit="10" transform="rotate(90,752,560)"
              pointer-events="none"/>
        <path d="M 748.8 576 L 752 576" fill="none" stroke="#000000"
              stroke-width="3.2" stroke-linejoin="round" stroke-linecap="round"
              stroke-miterlimit="10" transform="rotate(90,752,560)"
              pointer-events="none"/>
        <path d="M 748.8 592 L 752 592" fill="none" stroke="#000000"
              stroke-width="3.2" stroke-linejoin="round" stroke-linecap="round"
              stroke-miterlimit="10" transform="rotate(90,752,560)"
              pointer-events="none"/>
        <path d="M 752 513.6 L 752 526.4" fill="none" stroke="#000000"
              stroke-width="3.2" stroke-linecap="square" stroke-miterlimit="10"
              transform="rotate(90,752,560)" pointer-events="none"/>
        <path d="M 752 593.6 L 752 606.4" fill="none" stroke="#000000"
              stroke-width="3.2" stroke-linecap="square" stroke-miterlimit="10"
              transform="rotate(90,752,560)" pointer-events="none"/>
        <rect x="574.4" y="574.4" width="3.2" height="3.2" fill="#000000"
              stroke="none" transform="rotate(270,576,560)"
              pointer-events="none"/>
        <ellipse cx="576" cy="560" rx="6.616" ry="6.616" fill="#ffffff"
                 stroke="#000000" stroke-width="3.2"
                 transform="rotate(270,576,560)" pointer-events="none"/>
        <path d="M 576 568 L 576 574.4" fill="#ffffff" stroke="#000000"
              stroke-width="3.2" stroke-linecap="square" stroke-miterlimit="10"
              transform="rotate(270,576,560)" pointer-events="none"/>
        <rect x="574.4" y="686.4" width="3.2" height="3.2" fill="#000000"
              stroke="none" transform="rotate(270,576,672)"
              pointer-events="none"/>
        <ellipse cx="576" cy="672" rx="6.616" ry="6.616" fill="#ffffff"
                 stroke="#000000" stroke-width="3.2"
                 transform="rotate(270,576,672)" pointer-events="none"/>
        <path d="M 576 680 L 576 686.4" fill="#ffffff" stroke="#000000"
              stroke-width="3.2" stroke-linecap="square" stroke-miterlimit="10"
              transform="rotate(270,576,672)" pointer-events="none"/>
        <path d="M 592 560 L 704 560" fill="none" stroke="#000000"
              stroke-width="3.2" stroke-miterlimit="10" pointer-events="none"/>
        <path d="M 592 672 L 912 672" fill="none" stroke="#000000"
              stroke-width="3.2" stroke-miterlimit="10" pointer-events="none"/>
        <rect x="926.4" y="574.4" width="3.2" height="3.2" fill="#000000"
              stroke="none" transform="rotate(90,928,560)" pointer-events="none"/>
        <ellipse cx="928" cy="560" rx="6.616" ry="6.616" fill="#ffffff"
                 stroke="#000000" stroke-width="3.2"
                 transform="rotate(90,928,560)" pointer-events="none"/>
        <path d="M 928 568 L 928 574.4" fill="#ffffff" stroke="#000000"
              stroke-width="3.2" stroke-linecap="square" stroke-miterlimit="10"
              transform="rotate(90,928,560)" pointer-events="none"/>
        <path d="M 800 560 L 912 560" fill="none" stroke="#000000"
              stroke-width="3.2" stroke-miterlimit="10" pointer-events="none"/>
        <path d="M 1264 560 L 1344 432" fill="none" stroke="#000000"
              stroke-width="3.2" stroke-miterlimit="10" pointer-events="none"/>
        <rect x="686.4" y="574.4" width="3.2" height="3.2" fill="#000000"
              stroke="none" transform="rotate(270,688,560)"
              pointer-events="none"/>
        <ellipse cx="688" cy="560" rx="6.616" ry="6.616" fill="#ffffff"
                 stroke="#000000" stroke-width="3.2"
                 transform="rotate(270,688,560)" pointer-events="none"/>
        <path d="M 688 568 L 688 574.4" fill="#ffffff" stroke="#000000"
              stroke-width="3.2" stroke-linecap="square" stroke-miterlimit="10"
              transform="rotate(270,688,560)" pointer-events="none"/>
        <rect x="814.4" y="574.4" width="3.2" height="3.2" fill="#000000"
              stroke="none" transform="rotate(90,816,560)" pointer-events="none"/>
        <ellipse cx="816" cy="560" rx="6.616" ry="6.616" fill="#ffffff"
                 stroke="#000000" stroke-width="3.2"
                 transform="rotate(90,816,560)" pointer-events="none"/>
        <path d="M 816 568 L 816 574.4" fill="#ffffff" stroke="#000000"
              stroke-width="3.2" stroke-linecap="square" stroke-miterlimit="10"
              transform="rotate(90,816,560)" pointer-events="none"/>
        <rect x="926.4" y="686.4" width="3.2" height="3.2" fill="#000000"
              stroke="none" transform="rotate(90,928,672)" pointer-events="none"/>
        <ellipse cx="928" cy="672" rx="6.616" ry="6.616" fill="#ffffff"
                 stroke="#000000" stroke-width="3.2"
                 transform="rotate(90,928,672)" pointer-events="none"/>
        <path d="M 928 680 L 928 686.4" fill="#ffffff" stroke="#000000"
              stroke-width="3.2" stroke-linecap="square" stroke-miterlimit="10"
              transform="rotate(90,928,672)" pointer-events="none"/>
        <rect x="1150.4" y="574.4" width="3.2" height="3.2" fill="#000000"
              stroke="none" transform="rotate(270,1152,560)"
              pointer-events="none"/>
        <ellipse cx="1152" cy="560" rx="6.616" ry="6.616" fill="#ffffff"
                 stroke="#000000" stroke-width="3.2"
                 transform="rotate(270,1152,560)" pointer-events="none"/>
        <path d="M 1152 568 L 1152 574.4" fill="#ffffff" stroke="#000000"
              stroke-width="3.2" stroke-linecap="square" stroke-miterlimit="10"
              transform="rotate(270,1152,560)" pointer-events="none"/>
        <rect x="1150.4" y="686.4" width="3.2" height="3.2" fill="#000000"
              stroke="none" transform="rotate(270,1152,672)"
              pointer-events="none"/>
        <ellipse cx="1152" cy="672" rx="6.616" ry="6.616" fill="#ffffff"
                 stroke="#000000" stroke-width="3.2"
                 transform="rotate(270,1152,672)" pointer-events="none"/>
        <path d="M 1152 680 L 1152 686.4" fill="#ffffff" stroke="#000000"
              stroke-width="3.2" stroke-linecap="square" stroke-miterlimit="10"
              transform="rotate(270,1152,672)" pointer-events="none"/>
        <path d="M 1168 672 L 1488 672" fill="none" stroke="#000000"
              stroke-width="3.2" stroke-miterlimit="10" pointer-events="none"/>
        <rect x="1502.4" y="574.4" width="3.2" height="3.2" fill="#000000"
              stroke="none" transform="rotate(90,1504,560)"
              pointer-events="none"/>
        <ellipse cx="1504" cy="560" rx="6.616" ry="6.616" fill="#ffffff"
                 stroke="#000000" stroke-width="3.2"
                 transform="rotate(90,1504,560)" pointer-events="none"/>
        <path d="M 1504 568 L 1504 574.4" fill="#ffffff" stroke="#000000"
              stroke-width="3.2" stroke-linecap="square" stroke-miterlimit="10"
              transform="rotate(90,1504,560)" pointer-events="none"/>
        <rect x="1262.4" y="574.4" width="3.2" height="3.2" fill="#000000"
              stroke="none" transform="rotate(90,1264,560)"
              pointer-events="none"/>
        <ellipse cx="1264" cy="560" rx="6.616" ry="6.616" fill="#ffffff"
                 stroke="#000000" stroke-width="3.2"
                 transform="rotate(90,1264,560)" pointer-events="none"/>
        <path d="M 1264 568 L 1264 574.4" fill="#ffffff" stroke="#000000"
              stroke-width="3.2" stroke-linecap="square" stroke-miterlimit="10"
              transform="rotate(90,1264,560)" pointer-events="none"/>
        <rect x="1280" y="464" width="27.2" height="20.8" fill-opacity="0"
              fill="#dae2f2" stroke="none" pointer-events="none"/>
        <g fill="#000000" font-family="Arial,Helvetica" font-weight="bold"
           text-anchor="middle" font-size="19.200000000000003px">
            <text x="1293.6" y="480.8">
                λ/8
            </text>
        </g>
        <rect x="1390.4" y="574.4" width="3.2" height="3.2" fill="#000000"
              stroke="none" transform="rotate(270,1392,560)"
              pointer-events="none"/>
        <ellipse cx="1392" cy="560" rx="6.616" ry="6.616" fill="#ffffff"
                 stroke="#000000" stroke-width="3.2"
                 transform="rotate(270,1392,560)" pointer-events="none"/>
        <path d="M 1392 568 L 1392 574.4" fill="#ffffff" stroke="#000000"
              stroke-width="3.2" stroke-linecap="square" stroke-miterlimit="10"
              transform="rotate(270,1392,560)" pointer-events="none"/>
        <rect x="1502.4" y="686.4" width="3.2" height="3.2" fill="#000000"
              stroke="none" transform="rotate(90,1504,672)"
              pointer-events="none"/>
        <ellipse cx="1504" cy="672" rx="6.616" ry="6.616" fill="#ffffff"
                 stroke="#000000" stroke-width="3.2"
                 transform="rotate(90,1504,672)" pointer-events="none"/>
        <path d="M 1504 680 L 1504 686.4" fill="#ffffff" stroke="#000000"
              stroke-width="3.2" stroke-linecap="square" stroke-miterlimit="10"
              transform="rotate(90,1504,672)" pointer-events="none"/>
        <path d="M 1248 560 L 1168 560" fill="none" stroke="#000000"
              stroke-width="3.2" stroke-miterlimit="10" pointer-events="none"/>
        <path d="M 1408 560 L 1488 560" fill="none" stroke="#000000"
              stroke-width="3.2" stroke-miterlimit="10" pointer-events="none"/>
        <rect x="1342.4" y="446.4" width="3.2" height="3.2" fill="#000000"
              stroke="none" transform="rotate(270,1344,432)"
              pointer-events="none"/>
        <ellipse cx="1344" cy="432" rx="6.616" ry="6.616" fill="#ffffff"
                 stroke="#000000" stroke-width="3.2"
                 transform="rotate(270,1344,432)" pointer-events="none"/>
        <path d="M 1344 440 L 1344 446.4" fill="#ffffff" stroke="#000000"
              stroke-width="3.2" stroke-linecap="square" stroke-miterlimit="10"
              transform="rotate(270,1344,432)" pointer-events="none"/>
        <rect x="1392" y="400" width="28.8" height="20.8" fill-opacity="0"
              fill="#dae2f2" stroke="none" pointer-events="none"/>
        <g fill="#000000" font-family="Arial,Helvetica" font-weight="bold"
           text-anchor="middle" font-size="19.200000000000003px">
            <text x="1406.4" y="416.8">
                CC
            </text>
        </g>
        <rect x="1470.4" y="446.4" width="3.2" height="3.2" fill="#000000"
              stroke="none" transform="rotate(90,1472,432)"
              pointer-events="none"/>
        <ellipse cx="1472" cy="432" rx="6.616" ry="6.616" fill="#ffffff"
                 stroke="#000000" stroke-width="3.2"
                 transform="rotate(90,1472,432)" pointer-events="none"/>
        <path d="M 1472 440 L 1472 446.4" fill="#ffffff" stroke="#000000"
              stroke-width="3.2" stroke-linecap="square" stroke-miterlimit="10"
              transform="rotate(90,1472,432)" pointer-events="none"/>
        <path d="M 1360 432 L 1456 432" fill="none" stroke="#000000"
              stroke-width="3.2" stroke-miterlimit="10" pointer-events="none"/>
        <path d="M 1018.78 608 L 1061.22 608" fill="none" stroke="#000000"
              stroke-width="3.2" stroke-miterlimit="10" pointer-events="none"/>
        <path d="M 1011.58 608 L 1021.18 603.2 L 1018.78 608 L 1021.18 612.8 Z"
              fill="#000000" stroke="#000000" stroke-width="3.2"
              stroke-miterlimit="10" pointer-events="none"/>
        <path d="M 1068.42 608 L 1058.82 612.8 L 1061.22 608 L 1058.82 603.2 Z"
              fill="#000000" stroke="#000000" stroke-width="3.2"
              stroke-miterlimit="10" pointer-events="none"/>
    </g>
</svg>