
<svg xmlns="http://www.w3.org/2000/svg"
     xmlns:xlink="http://www.w3.org/1999/xlink" version="1.1" width="809"
     height="419">
    <defs>
        <linearGradient x1="0%" y1="0%" x2="0%" y2="100%"
                        id="mx-gradient-ffffff-1-ffffff-1-s-0">
            <stop offset="0%" style="stop-color:#ffffff"/>
            <stop offset="100%" style="stop-color:#ffffff"/>
        </linearGradient>
    </defs>
    <g transform=" scale(0.91) translate(-402,-204.453125)">
        <rect x="560" y="280" width="126" height="126"
              fill="url(#mx-gradient-ffffff-1-ffffff-1-s-0)" stroke="#000000"
              stroke-width="1.4" pointer-events="none"/>
        <rect x="712.6" y="292.6" width="2.8" height="2.8" fill="#000000"
              stroke="none" pointer-events="none"/>
        <path d="M 687.4 294 L 712.6 294" fill="#000000" stroke="#000000"
              stroke-width="2.8" stroke-linecap="square" stroke-miterlimit="10"
              pointer-events="none"/>
        <rect x="530.6" y="292.6" width="2.8" height="2.8" fill="#000000"
              stroke="none" pointer-events="none"/>
        <path d="M 533.4 294 L 558.6 294" fill="#000000" stroke="#000000"
              stroke-width="2.8" stroke-linecap="square" stroke-miterlimit="10"
              pointer-events="none"/>
        <rect x="712.6" y="390.6" width="2.8" height="2.8" fill="#000000"
              stroke="none" pointer-events="none"/>
        <path d="M 687.4 392 L 712.6 392" fill="#000000" stroke="#000000"
              stroke-width="2.8" stroke-linecap="square" stroke-miterlimit="10"
              pointer-events="none"/>
        <rect x="530.6" y="390.6" width="2.8" height="2.8" fill="#000000"
              stroke="none" pointer-events="none"/>
        <path d="M 533.4 392 L 558.6 392" fill="#000000" stroke="#000000"
              stroke-width="2.8" stroke-linecap="square" stroke-miterlimit="10"
              pointer-events="none"/>
        <rect x="616" y="252" width="22.4" height="19.6" fill-opacity="0"
              fill="#dae2f2" stroke="none" pointer-events="none"/>
        <g fill="#000000" font-family="Arial,Helvetica" font-weight="bold"
           text-anchor="middle" font-size="16.799999999999997px">
            <text x="627.2" y="267.4">
                λ/8
            </text>
        </g>
        <rect x="616" y="336" width="19.6" height="19.6" fill-opacity="0"
              fill="#dae2f2" stroke="none" pointer-events="none"/>
        <g fill="#000000" font-family="Arial,Helvetica" font-weight="bold"
           text-anchor="middle" font-size="16.799999999999997px">
            <text x="625.8" y="351.4">
                Z1
            </text>
        </g>
        <rect x="488.6" y="306.6" width="2.8" height="2.8" fill="#000000"
              stroke="none" pointer-events="none"/>
        <rect x="488.6" y="376.6" width="2.8" height="2.8" fill="#000000"
              stroke="none" pointer-events="none"/>
        <path d="M 474.6 337.4 C 505.4 337.4 505.4 337.4 505.4 337.4"
              fill="none" stroke="#000000" stroke-width="2.8"
              stroke-linecap="round" stroke-miterlimit="10"
              pointer-events="none"/>
        <path d="M 474.6 348.6 C 505.4 348.6 505.4 348.6 505.4 348.6"
              fill="none" stroke="#000000" stroke-width="2.8"
              stroke-linecap="round" stroke-miterlimit="10"
              pointer-events="none"/>
        <path d="M 490 309.4 L 490 336" fill="#000000" stroke="#000000"
              stroke-width="2.8" stroke-linecap="square" stroke-miterlimit="10"
              pointer-events="none"/>
        <path d="M 490 350 L 490 376.6" fill="#000000" stroke="#000000"
              stroke-width="2.8" stroke-linecap="square" stroke-miterlimit="10"
              pointer-events="none"/>
        <rect x="420" y="336" width="39.2" height="18.2" fill-opacity="0"
              fill="#dae2f2" stroke="none" pointer-events="none"/>
        <g fill="#000000" font-family="Arial,Helvetica" font-weight="bold"
           text-anchor="middle" font-size="16.799999999999997px">
            <text x="439.6" y="350.7">
                1 / Z2
            </text>
        </g>
        <rect x="560" y="532" width="126" height="126"
              fill="url(#mx-gradient-ffffff-1-ffffff-1-s-0)" stroke="#000000"
              stroke-width="1.4" pointer-events="none"/>
        <rect x="712.6" y="544.6" width="2.8" height="2.8" fill="#000000"
              stroke="none" pointer-events="none"/>
        <path d="M 687.4 546 L 712.6 546" fill="#000000" stroke="#000000"
              stroke-width="2.8" stroke-linecap="square" stroke-miterlimit="10"
              pointer-events="none"/>
        <rect x="530.6" y="544.6" width="2.8" height="2.8" fill="#000000"
              stroke="none" pointer-events="none"/>
        <path d="M 533.4 546 L 558.6 546" fill="#000000" stroke="#000000"
              stroke-width="2.8" stroke-linecap="square" stroke-miterlimit="10"
              pointer-events="none"/>
        <rect x="712.6" y="642.6" width="2.8" height="2.8" fill="#000000"
              stroke="none" pointer-events="none"/>
        <path d="M 687.4 644 L 712.6 644" fill="#000000" stroke="#000000"
              stroke-width="2.8" stroke-linecap="square" stroke-miterlimit="10"
              pointer-events="none"/>
        <rect x="530.6" y="642.6" width="2.8" height="2.8" fill="#000000"
              stroke="none" pointer-events="none"/>
        <path d="M 533.4 644 L 558.6 644" fill="#000000" stroke="#000000"
              stroke-width="2.8" stroke-linecap="square" stroke-miterlimit="10"
              pointer-events="none"/>
        <rect x="616" y="504" width="22.4" height="19.6" fill-opacity="0"
              fill="#dae2f2" stroke="none" pointer-events="none"/>
        <g fill="#000000" font-family="Arial,Helvetica" font-weight="bold"
           text-anchor="middle" font-size="16.799999999999997px">
            <text x="627.2" y="519.4">
                λ/8
            </text>
        </g>
        <rect x="616" y="588" width="19.6" height="19.6" fill-opacity="0"
              fill="#dae2f2" stroke="none" pointer-events="none"/>
        <g fill="#000000" font-family="Arial,Helvetica" font-weight="bold"
           text-anchor="middle" font-size="16.799999999999997px">
            <text x="625.8" y="603.4">
                Z2
            </text>
        </g>
        <rect x="488.6" y="502.6" width="2.8" height="2.8" fill="#000000"
              stroke="none" transform="rotate(90,490,546)" pointer-events="none"/>
        <rect x="488.6" y="586.6" width="2.8" height="2.8" fill="#000000"
              stroke="none" transform="rotate(90,490,546)" pointer-events="none"/>
        <path d="M 487.39 532 C 483.15 532.01 479.7 528.89 479.69 525.02 C 479.68 521.15 483.11 518.01 487.35 518 C 487.35 518 487.36 518 487.37 518"
              fill="none" stroke="#000000" stroke-width="2.8"
              stroke-linejoin="round" stroke-linecap="round"
              stroke-miterlimit="10" transform="rotate(90,490,546)"
              pointer-events="none"/>
        <path d="M 487.2 518 L 490 518" fill="none" stroke="#000000"
              stroke-width="2.8" stroke-linejoin="round" stroke-linecap="round"
              stroke-miterlimit="10" transform="rotate(90,490,546)"
              pointer-events="none"/>
        <path d="M 487.2 532 L 490 532" fill="none" stroke="#000000"
              stroke-width="2.8" stroke-linejoin="round" stroke-linecap="round"
              stroke-miterlimit="10" transform="rotate(90,490,546)"
              pointer-events="none"/>
        <path d="M 487.39 546 C 483.15 546.01 479.7 542.89 479.69 539.02 C 479.68 535.15 483.11 532.01 487.35 532 C 487.35 532 487.36 532 487.37 532"
              fill="none" stroke="#000000" stroke-width="2.8"
              stroke-linejoin="round" stroke-linecap="round"
              stroke-miterlimit="10" transform="rotate(90,490,546)"
              pointer-events="none"/>
        <path d="M 487.2 532 L 490 532" fill="none" stroke="#000000"
              stroke-width="2.8" stroke-linejoin="round" stroke-linecap="round"
              stroke-miterlimit="10" transform="rotate(90,490,546)"
              pointer-events="none"/>
        <path d="M 487.2 546 L 490 546" fill="none" stroke="#000000"
              stroke-width="2.8" stroke-linejoin="round" stroke-linecap="round"
              stroke-miterlimit="10" transform="rotate(90,490,546)"
              pointer-events="none"/>
        <path d="M 487.39 560 C 483.15 560.01 479.7 556.89 479.69 553.02 C 479.68 549.15 483.11 546.01 487.35 546 C 487.35 546 487.36 546 487.37 546"
              fill="none" stroke="#000000" stroke-width="2.8"
              stroke-linejoin="round" stroke-linecap="round"
              stroke-miterlimit="10" transform="rotate(90,490,546)"
              pointer-events="none"/>
        <path d="M 487.2 546 L 490 546" fill="none" stroke="#000000"
              stroke-width="2.8" stroke-linejoin="round" stroke-linecap="round"
              stroke-miterlimit="10" transform="rotate(90,490,546)"
              pointer-events="none"/>
        <path d="M 487.2 560 L 490 560" fill="none" stroke="#000000"
              stroke-width="2.8" stroke-linejoin="round" stroke-linecap="round"
              stroke-miterlimit="10" transform="rotate(90,490,546)"
              pointer-events="none"/>
        <path d="M 487.39 574 C 483.15 574.01 479.7 570.89 479.69 567.02 C 479.68 563.15 483.11 560.01 487.35 560 C 487.35 560 487.36 560 487.37 560"
              fill="none" stroke="#000000" stroke-width="2.8"
              stroke-linejoin="round" stroke-linecap="round"
              stroke-miterlimit="10" transform="rotate(90,490,546)"
              pointer-events="none"/>
        <path d="M 487.2 560 L 490 560" fill="none" stroke="#000000"
              stroke-width="2.8" stroke-linejoin="round" stroke-linecap="round"
              stroke-miterlimit="10" transform="rotate(90,490,546)"
              pointer-events="none"/>
        <path d="M 487.2 574 L 490 574" fill="none" stroke="#000000"
              stroke-width="2.8" stroke-linejoin="round" stroke-linecap="round"
              stroke-miterlimit="10" transform="rotate(90,490,546)"
              pointer-events="none"/>
        <path d="M 490 505.4 L 490 516.6" fill="none" stroke="#000000"
              stroke-width="2.8" stroke-linecap="square" stroke-miterlimit="10"
              transform="rotate(90,490,546)" pointer-events="none"/>
        <path d="M 490 575.4 L 490 586.6" fill="none" stroke="#000000"
              stroke-width="2.8" stroke-linecap="square" stroke-miterlimit="10"
              transform="rotate(90,490,546)" pointer-events="none"/>
        <rect x="476" y="560" width="18.2" height="18.2" fill-opacity="0"
              fill="#dae2f2" stroke="none" pointer-events="none"/>
        <g fill="#000000" font-family="Arial,Helvetica" font-weight="bold"
           text-anchor="middle" font-size="16.799999999999997px">
            <text x="485.1" y="574.7">
                Z1
            </text>
        </g>
        <rect x="418.6" y="558.6" width="2.8" height="2.8" fill="#000000"
              stroke="none" transform="rotate(270,420,546)"
              pointer-events="none"/>
        <ellipse cx="420" cy="546" rx="5.789" ry="5.789" fill="#ffffff"
                 stroke="#000000" stroke-width="2.8"
                 transform="rotate(270,420,546)" pointer-events="none"/>
        <path d="M 420 553 L 420 558.6" fill="#ffffff" stroke="#000000"
              stroke-width="2.8" stroke-linecap="square" stroke-miterlimit="10"
              transform="rotate(270,420,546)" pointer-events="none"/>
        <rect x="418.6" y="656.6" width="2.8" height="2.8" fill="#000000"
              stroke="none" transform="rotate(270,420,644)"
              pointer-events="none"/>
        <ellipse cx="420" cy="644" rx="5.789" ry="5.789" fill="#ffffff"
                 stroke="#000000" stroke-width="2.8"
                 transform="rotate(270,420,644)" pointer-events="none"/>
        <path d="M 420 651 L 420 656.6" fill="#ffffff" stroke="#000000"
              stroke-width="2.8" stroke-linecap="square" stroke-miterlimit="10"
              transform="rotate(270,420,644)" pointer-events="none"/>
        <rect x="418.6" y="404.6" width="2.8" height="2.8" fill="#000000"
              stroke="none" transform="rotate(270,420,392)"
              pointer-events="none"/>
        <ellipse cx="420" cy="392" rx="5.789" ry="5.789" fill="#ffffff"
                 stroke="#000000" stroke-width="2.8"
                 transform="rotate(270,420,392)" pointer-events="none"/>
        <path d="M 420 399 L 420 404.6" fill="#ffffff" stroke="#000000"
              stroke-width="2.8" stroke-linecap="square" stroke-miterlimit="10"
              transform="rotate(270,420,392)" pointer-events="none"/>
        <rect x="418.6" y="306.6" width="2.8" height="2.8" fill="#000000"
              stroke="none" transform="rotate(270,420,294)"
              pointer-events="none"/>
        <ellipse cx="420" cy="294" rx="5.789" ry="5.789" fill="#ffffff"
                 stroke="#000000" stroke-width="2.8"
                 transform="rotate(270,420,294)" pointer-events="none"/>
        <path d="M 420 301 L 420 306.6" fill="#ffffff" stroke="#000000"
              stroke-width="2.8" stroke-linecap="square" stroke-miterlimit="10"
              transform="rotate(270,420,294)" pointer-events="none"/>
        <path d="M 434 392 L 532 392" fill="none" stroke="#000000"
              stroke-width="2.8" stroke-miterlimit="10" pointer-events="none"/>
        <path d="M 434 294 L 532 294" fill="none" stroke="#000000"
              stroke-width="2.8" stroke-miterlimit="10" pointer-events="none"/>
        <path d="M 490 308 L 490 294 L 490 296.8" fill="none" stroke="#000000"
              stroke-width="2.8" stroke-miterlimit="10" pointer-events="none"/>
        <ellipse cx="490" cy="294" rx="2.8" ry="2.8" fill="#000000"
                 stroke="#000000" stroke-width="2.8" pointer-events="none"/>
        <path d="M 490 378 L 490 392 L 490 389.2" fill="none" stroke="#000000"
              stroke-width="2.8" stroke-miterlimit="10" pointer-events="none"/>
        <ellipse cx="490" cy="392" rx="2.8" ry="2.8" fill="#000000"
                 stroke="#000000" stroke-width="2.8" pointer-events="none"/>
        <path d="M 434 546 L 448 546" fill="none" stroke="#000000"
              stroke-width="2.8" stroke-miterlimit="10" pointer-events="none"/>
        <path d="M 434 644 L 532 644" fill="none" stroke="#000000"
              stroke-width="2.8" stroke-miterlimit="10" pointer-events="none"/>
        <rect x="726.6" y="404.6" width="2.8" height="2.8" fill="#000000"
              stroke="none" transform="rotate(90,728,392)" pointer-events="none"/>
        <ellipse cx="728" cy="392" rx="5.789" ry="5.789" fill="#ffffff"
                 stroke="#000000" stroke-width="2.8"
                 transform="rotate(90,728,392)" pointer-events="none"/>
        <path d="M 728 399 L 728 404.6" fill="#ffffff" stroke="#000000"
              stroke-width="2.8" stroke-linecap="square" stroke-miterlimit="10"
              transform="rotate(90,728,392)" pointer-events="none"/>
        <rect x="726.6" y="306.6" width="2.8" height="2.8" fill="#000000"
              stroke="none" transform="rotate(90,728,294)" pointer-events="none"/>
        <ellipse cx="728" cy="294" rx="5.789" ry="5.789" fill="#ffffff"
                 stroke="#000000" stroke-width="2.8"
                 transform="rotate(90,728,294)" pointer-events="none"/>
        <path d="M 728 301 L 728 306.6" fill="#ffffff" stroke="#000000"
              stroke-width="2.8" stroke-linecap="square" stroke-miterlimit="10"
              transform="rotate(90,728,294)" pointer-events="none"/>
        <rect x="726.6" y="558.6" width="2.8" height="2.8" fill="#000000"
              stroke="none" transform="rotate(90,728,546)" pointer-events="none"/>
        <ellipse cx="728" cy="546" rx="5.789" ry="5.789" fill="#ffffff"
                 stroke="#000000" stroke-width="2.8"
                 transform="rotate(90,728,546)" pointer-events="none"/>
        <path d="M 728 553 L 728 558.6" fill="#ffffff" stroke="#000000"
              stroke-width="2.8" stroke-linecap="square" stroke-miterlimit="10"
              transform="rotate(90,728,546)" pointer-events="none"/>
        <rect x="726.6" y="656.6" width="2.8" height="2.8" fill="#000000"
              stroke="none" transform="rotate(90,728,644)" pointer-events="none"/>
        <ellipse cx="728" cy="644" rx="5.789" ry="5.789" fill="#ffffff"
                 stroke="#000000" stroke-width="2.8"
                 transform="rotate(90,728,644)" pointer-events="none"/>
        <path d="M 728 651 L 728 656.6" fill="#ffffff" stroke="#000000"
              stroke-width="2.8" stroke-linecap="square" stroke-miterlimit="10"
              transform="rotate(90,728,644)" pointer-events="none"/>
        <rect x="798" y="210" width="81.2" height="16.8" fill-opacity="0"
              fill="#dae2f2" stroke="none" pointer-events="none"/>
        <g fill="#000000" font-family="Arial,Helvetica" font-weight="bold"
           text-anchor="middle" font-size="16.799999999999997px">
            <text x="838.6" y="224">
                n²=1+Z2/Z1
            </text>
        </g>
        <rect x="966" y="280" width="126" height="126"
              fill="url(#mx-gradient-ffffff-1-ffffff-1-s-0)" stroke="#000000"
              stroke-width="1.4" pointer-events="none"/>
        <rect x="1118.6" y="292.6" width="2.8" height="2.8" fill="#000000"
              stroke="none" pointer-events="none"/>
        <path d="M 1093.4 294 L 1118.6 294" fill="#000000" stroke="#000000"
              stroke-width="2.8" stroke-linecap="square" stroke-miterlimit="10"
              pointer-events="none"/>
        <rect x="936.6" y="292.6" width="2.8" height="2.8" fill="#000000"
              stroke="none" pointer-events="none"/>
        <path d="M 939.4 294 L 964.6 294" fill="#000000" stroke="#000000"
              stroke-width="2.8" stroke-linecap="square" stroke-miterlimit="10"
              pointer-events="none"/>
        <rect x="1118.6" y="390.6" width="2.8" height="2.8" fill="#000000"
              stroke="none" pointer-events="none"/>
        <path d="M 1093.4 392 L 1118.6 392" fill="#000000" stroke="#000000"
              stroke-width="2.8" stroke-linecap="square" stroke-miterlimit="10"
              pointer-events="none"/>
        <rect x="936.6" y="390.6" width="2.8" height="2.8" fill="#000000"
              stroke="none" pointer-events="none"/>
        <path d="M 939.4 392 L 964.6 392" fill="#000000" stroke="#000000"
              stroke-width="2.8" stroke-linecap="square" stroke-miterlimit="10"
              pointer-events="none"/>
        <rect x="1022" y="252" width="22.4" height="19.6" fill-opacity="0"
              fill="#dae2f2" stroke="none" pointer-events="none"/>
        <g fill="#000000" font-family="Arial,Helvetica" font-weight="bold"
           text-anchor="middle" font-size="16.799999999999997px">
            <text x="1033.2" y="267.4">
                λ/8
            </text>
        </g>
        <rect x="1008" y="336" width="44.8" height="18.2" fill-opacity="0"
              fill="#dae2f2" stroke="none" pointer-events="none"/>
        <g fill="#000000" font-family="Arial,Helvetica" font-weight="bold"
           text-anchor="middle" font-size="16.799999999999997px">
            <text x="1030.4" y="350.7">
                Z2 / n²
            </text>
        </g>
        <rect x="966" y="532" width="126" height="126"
              fill="url(#mx-gradient-ffffff-1-ffffff-1-s-0)" stroke="#000000"
              stroke-width="1.4" pointer-events="none"/>
        <rect x="1118.6" y="544.6" width="2.8" height="2.8" fill="#000000"
              stroke="none" pointer-events="none"/>
        <path d="M 1093.4 546 L 1118.6 546" fill="#000000" stroke="#000000"
              stroke-width="2.8" stroke-linecap="square" stroke-miterlimit="10"
              pointer-events="none"/>
        <rect x="936.6" y="544.6" width="2.8" height="2.8" fill="#000000"
              stroke="none" pointer-events="none"/>
        <path d="M 939.4 546 L 964.6 546" fill="#000000" stroke="#000000"
              stroke-width="2.8" stroke-linecap="square" stroke-miterlimit="10"
              pointer-events="none"/>
        <rect x="1118.6" y="642.6" width="2.8" height="2.8" fill="#000000"
              stroke="none" pointer-events="none"/>
        <path d="M 1093.4 644 L 1118.6 644" fill="#000000" stroke="#000000"
              stroke-width="2.8" stroke-linecap="square" stroke-miterlimit="10"
              pointer-events="none"/>
        <rect x="936.6" y="642.6" width="2.8" height="2.8" fill="#000000"
              stroke="none" pointer-events="none"/>
        <path d="M 939.4 644 L 964.6 644" fill="#000000" stroke="#000000"
              stroke-width="2.8" stroke-linecap="square" stroke-miterlimit="10"
              pointer-events="none"/>
        <rect x="1022" y="504" width="22.4" height="19.6" fill-opacity="0"
              fill="#dae2f2" stroke="none" pointer-events="none"/>
        <g fill="#000000" font-family="Arial,Helvetica" font-weight="bold"
           text-anchor="middle" font-size="16.799999999999997px">
            <text x="1033.2" y="519.4">
                λ/8
            </text>
        </g>
        <rect x="1008" y="588" width="32.2" height="18.2" fill-opacity="0"
              fill="#dae2f2" stroke="none" pointer-events="none"/>
        <g fill="#000000" font-family="Arial,Helvetica" font-weight="bold"
           text-anchor="middle" font-size="16.799999999999997px">
            <text x="1024.1" y="602.7">
                n²Z1
            </text>
        </g>
        <rect x="922.6" y="656.6" width="2.8" height="2.8" fill="#000000"
              stroke="none" transform="rotate(270,924,644)"
              pointer-events="none"/>
        <ellipse cx="924" cy="644" rx="5.789" ry="5.789" fill="#ffffff"
                 stroke="#000000" stroke-width="2.8"
                 transform="rotate(270,924,644)" pointer-events="none"/>
        <path d="M 924 651 L 924 656.6" fill="#ffffff" stroke="#000000"
              stroke-width="2.8" stroke-linecap="square" stroke-miterlimit="10"
              transform="rotate(270,924,644)" pointer-events="none"/>
        <rect x="922.6" y="558.6" width="2.8" height="2.8" fill="#000000"
              stroke="none" transform="rotate(270,924,546)"
              pointer-events="none"/>
        <ellipse cx="924" cy="546" rx="5.789" ry="5.789" fill="#ffffff"
                 stroke="#000000" stroke-width="2.8"
                 transform="rotate(270,924,546)" pointer-events="none"/>
        <path d="M 924 553 L 924 558.6" fill="#ffffff" stroke="#000000"
              stroke-width="2.8" stroke-linecap="square" stroke-miterlimit="10"
              transform="rotate(270,924,546)" pointer-events="none"/>
        <rect x="922.6" y="306.6" width="2.8" height="2.8" fill="#000000"
              stroke="none" transform="rotate(270,924,294)"
              pointer-events="none"/>
        <ellipse cx="924" cy="294" rx="5.789" ry="5.789" fill="#ffffff"
                 stroke="#000000" stroke-width="2.8"
                 transform="rotate(270,924,294)" pointer-events="none"/>
        <path d="M 924 301 L 924 306.6" fill="#ffffff" stroke="#000000"
              stroke-width="2.8" stroke-linecap="square" stroke-miterlimit="10"
              transform="rotate(270,924,294)" pointer-events="none"/>
        <rect x="922.6" y="404.6" width="2.8" height="2.8" fill="#000000"
              stroke="none" transform="rotate(270,924,392)"
              pointer-events="none"/>
        <ellipse cx="924" cy="392" rx="5.789" ry="5.789" fill="#ffffff"
                 stroke="#000000" stroke-width="2.8"
                 transform="rotate(270,924,392)" pointer-events="none"/>
        <path d="M 924 399 L 924 404.6" fill="#ffffff" stroke="#000000"
              stroke-width="2.8" stroke-linecap="square" stroke-miterlimit="10"
              transform="rotate(270,924,392)" pointer-events="none"/>
        <rect x="1160.6" y="558.6" width="2.8" height="2.8" fill="#000000"
              stroke="none" pointer-events="none"/>
        <rect x="1160.6" y="628.6" width="2.8" height="2.8" fill="#000000"
              stroke="none" pointer-events="none"/>
        <path d="M 1146.6 589.4 C 1177.4 589.4 1177.4 589.4 1177.4 589.4"
              fill="none" stroke="#000000" stroke-width="2.8"
              stroke-linecap="round" stroke-miterlimit="10"
              pointer-events="none"/>
        <path d="M 1146.6 600.6 C 1177.4 600.6 1177.4 600.6 1177.4 600.6"
              fill="none" stroke="#000000" stroke-width="2.8"
              stroke-linecap="round" stroke-miterlimit="10"
              pointer-events="none"/>
        <path d="M 1162 561.4 L 1162 588" fill="#000000" stroke="#000000"
              stroke-width="2.8" stroke-linecap="square" stroke-miterlimit="10"
              pointer-events="none"/>
        <path d="M 1162 602 L 1162 628.6" fill="#000000" stroke="#000000"
              stroke-width="2.8" stroke-linecap="square" stroke-miterlimit="10"
              pointer-events="none"/>
        <rect x="1190" y="588" width="53.2" height="18.2" fill-opacity="0"
              fill="#dae2f2" stroke="none" pointer-events="none"/>
        <g fill="#000000" font-family="Arial,Helvetica" font-weight="bold"
           text-anchor="middle" font-size="16.799999999999997px">
            <text x="1216.6" y="602.7">
                1 / n²Z2
            </text>
        </g>
        <rect x="1160.6" y="250.6" width="2.8" height="2.8" fill="#000000"
              stroke="none" transform="rotate(90,1162,294)"
              pointer-events="none"/>
        <rect x="1160.6" y="334.6" width="2.8" height="2.8" fill="#000000"
              stroke="none" transform="rotate(90,1162,294)"
              pointer-events="none"/>
        <path d="M 1159.39 280 C 1155.15 280.01 1151.7 276.89 1151.69 273.02 C 1151.68 269.15 1155.11 266.01 1159.35 266 C 1159.35 266 1159.36 266 1159.37 266"
              fill="none" stroke="#000000" stroke-width="2.8"
              stroke-linejoin="round" stroke-linecap="round"
              stroke-miterlimit="10" transform="rotate(90,1162,294)"
              pointer-events="none"/>
        <path d="M 1159.2 266 L 1162 266" fill="none" stroke="#000000"
              stroke-width="2.8" stroke-linejoin="round" stroke-linecap="round"
              stroke-miterlimit="10" transform="rotate(90,1162,294)"
              pointer-events="none"/>
        <path d="M 1159.2 280 L 1162 280" fill="none" stroke="#000000"
              stroke-width="2.8" stroke-linejoin="round" stroke-linecap="round"
              stroke-miterlimit="10" transform="rotate(90,1162,294)"
              pointer-events="none"/>
        <path d="M 1159.39 294 C 1155.15 294.01 1151.7 290.89 1151.69 287.02 C 1151.68 283.15 1155.11 280.01 1159.35 280 C 1159.35 280 1159.36 280 1159.37 280"
              fill="none" stroke="#000000" stroke-width="2.8"
              stroke-linejoin="round" stroke-linecap="round"
              stroke-miterlimit="10" transform="rotate(90,1162,294)"
              pointer-events="none"/>
        <path d="M 1159.2 280 L 1162 280" fill="none" stroke="#000000"
              stroke-width="2.8" stroke-linejoin="round" stroke-linecap="round"
              stroke-miterlimit="10" transform="rotate(90,1162,294)"
              pointer-events="none"/>
        <path d="M 1159.2 294 L 1162 294" fill="none" stroke="#000000"
              stroke-width="2.8" stroke-linejoin="round" stroke-linecap="round"
              stroke-miterlimit="10" transform="rotate(90,1162,294)"
              pointer-events="none"/>
        <path d="M 1159.39 308 C 1155.15 308.01 1151.7 304.89 1151.69 301.02 C 1151.68 297.15 1155.11 294.01 1159.35 294 C 1159.35 294 1159.36 294 1159.37 294"
              fill="none" stroke="#000000" stroke-width="2.8"
              stroke-linejoin="round" stroke-linecap="round"
              stroke-miterlimit="10" transform="rotate(90,1162,294)"
              pointer-events="none"/>
        <path d="M 1159.2 294 L 1162 294" fill="none" stroke="#000000"
              stroke-width="2.8" stroke-linejoin="round" stroke-linecap="round"
              stroke-miterlimit="10" transform="rotate(90,1162,294)"
              pointer-events="none"/>
        <path d="M 1159.2 308 L 1162 308" fill="none" stroke="#000000"
              stroke-width="2.8" stroke-linejoin="round" stroke-linecap="round"
              stroke-miterlimit="10" transform="rotate(90,1162,294)"
              pointer-events="none"/>
        <path d="M 1159.39 322 C 1155.15 322.01 1151.7 318.89 1151.69 315.02 C 1151.68 311.15 1155.11 308.01 1159.35 308 C 1159.35 308 1159.36 308 1159.37 308"
              fill="none" stroke="#000000" stroke-width="2.8"
              stroke-linejoin="round" stroke-linecap="round"
              stroke-miterlimit="10" transform="rotate(90,1162,294)"
              pointer-events="none"/>
        <path d="M 1159.2 308 L 1162 308" fill="none" stroke="#000000"
              stroke-width="2.8" stroke-linejoin="round" stroke-linecap="round"
              stroke-miterlimit="10" transform="rotate(90,1162,294)"
              pointer-events="none"/>
        <path d="M 1159.2 322 L 1162 322" fill="none" stroke="#000000"
              stroke-width="2.8" stroke-linejoin="round" stroke-linecap="round"
              stroke-miterlimit="10" transform="rotate(90,1162,294)"
              pointer-events="none"/>
        <path d="M 1162 253.4 L 1162 264.6" fill="none" stroke="#000000"
              stroke-width="2.8" stroke-linecap="square" stroke-miterlimit="10"
              transform="rotate(90,1162,294)" pointer-events="none"/>
        <path d="M 1162 323.4 L 1162 334.6" fill="none" stroke="#000000"
              stroke-width="2.8" stroke-linecap="square" stroke-miterlimit="10"
              transform="rotate(90,1162,294)" pointer-events="none"/>
        <rect x="1148" y="308" width="44.8" height="18.2" fill-opacity="0"
              fill="#dae2f2" stroke="none" pointer-events="none"/>
        <g fill="#000000" font-family="Arial,Helvetica" font-weight="bold"
           text-anchor="middle" font-size="16.799999999999997px">
            <text x="1170.4" y="322.7">
                Z1 / n²
            </text>
        </g>
        <rect x="1230.6" y="306.6" width="2.8" height="2.8" fill="#000000"
              stroke="none" transform="rotate(90,1232,294)"
              pointer-events="none"/>
        <ellipse cx="1232" cy="294" rx="5.789" ry="5.789" fill="#ffffff"
                 stroke="#000000" stroke-width="2.8"
                 transform="rotate(90,1232,294)" pointer-events="none"/>
        <path d="M 1232 301 L 1232 306.6" fill="#ffffff" stroke="#000000"
              stroke-width="2.8" stroke-linecap="square" stroke-miterlimit="10"
              transform="rotate(90,1232,294)" pointer-events="none"/>
        <rect x="1230.6" y="404.6" width="2.8" height="2.8" fill="#000000"
              stroke="none" transform="rotate(90,1232,392)"
              pointer-events="none"/>
        <ellipse cx="1232" cy="392" rx="5.789" ry="5.789" fill="#ffffff"
                 stroke="#000000" stroke-width="2.8"
                 transform="rotate(90,1232,392)" pointer-events="none"/>
        <path d="M 1232 399 L 1232 404.6" fill="#ffffff" stroke="#000000"
              stroke-width="2.8" stroke-linecap="square" stroke-miterlimit="10"
              transform="rotate(90,1232,392)" pointer-events="none"/>
        <rect x="1230.6" y="558.6" width="2.8" height="2.8" fill="#000000"
              stroke="none" transform="rotate(90,1232,546)"
              pointer-events="none"/>
        <ellipse cx="1232" cy="546" rx="5.789" ry="5.789" fill="#ffffff"
                 stroke="#000000" stroke-width="2.8"
                 transform="rotate(90,1232,546)" pointer-events="none"/>
        <path d="M 1232 553 L 1232 558.6" fill="#ffffff" stroke="#000000"
              stroke-width="2.8" stroke-linecap="square" stroke-miterlimit="10"
              transform="rotate(90,1232,546)" pointer-events="none"/>
        <rect x="1230.6" y="656.6" width="2.8" height="2.8" fill="#000000"
              stroke="none" transform="rotate(90,1232,644)"
              pointer-events="none"/>
        <ellipse cx="1232" cy="644" rx="5.789" ry="5.789" fill="#ffffff"
                 stroke="#000000" stroke-width="2.8"
                 transform="rotate(90,1232,644)" pointer-events="none"/>
        <path d="M 1232 651 L 1232 656.6" fill="#ffffff" stroke="#000000"
              stroke-width="2.8" stroke-linecap="square" stroke-miterlimit="10"
              transform="rotate(90,1232,644)" pointer-events="none"/>
        <path d="M 1120 644 L 1218 644" fill="none" stroke="#000000"
              stroke-width="2.8" stroke-miterlimit="10" pointer-events="none"/>
        <path d="M 1218 546 L 1120 546" fill="none" stroke="#000000"
              stroke-width="2.8" stroke-miterlimit="10" pointer-events="none"/>
        <path d="M 1120 392 L 1218 392" fill="none" stroke="#000000"
              stroke-width="2.8" stroke-miterlimit="10" pointer-events="none"/>
        <path d="M 1218 294 L 1204 294" fill="none" stroke="#000000"
              stroke-width="2.8" stroke-miterlimit="10" pointer-events="none"/>
        <path d="M 1162 560 L 1162 546 L 1162 548.8" fill="none"
              stroke="#000000" stroke-width="2.8" stroke-miterlimit="10"
              pointer-events="none"/>
        <ellipse cx="1162" cy="546" rx="2.8" ry="2.8" fill="#000000"
                 stroke="#000000" stroke-width="2.8" pointer-events="none"/>
        <path d="M 1162 630 L 1162 644 L 1162 641.2" fill="none"
              stroke="#000000" stroke-width="2.8" stroke-miterlimit="10"
              pointer-events="none"/>
        <ellipse cx="1162" cy="644" rx="2.8" ry="2.8" fill="#000000"
                 stroke="#000000" stroke-width="2.8" pointer-events="none"/>
        <path d="M 807.43 350 L 844.57 350" fill="none" stroke="#000000"
              stroke-width="2.8" stroke-miterlimit="10" pointer-events="none"/>
        <path d="M 801.13 350 L 809.53 345.8 L 807.43 350 L 809.53 354.2 Z"
              fill="#000000" stroke="#000000" stroke-width="2.8"
              stroke-miterlimit="10" pointer-events="none"/>
        <path d="M 850.87 350 L 842.47 354.2 L 844.57 350 L 842.47 345.8 Z"
              fill="#000000" stroke="#000000" stroke-width="2.8"
              stroke-miterlimit="10" pointer-events="none"/>
        <path d="M 807.43 602 L 844.57 602" fill="none" stroke="#000000"
              stroke-width="2.8" stroke-miterlimit="10" pointer-events="none"/>
        <path d="M 801.13 602 L 809.53 597.8 L 807.43 602 L 809.53 606.2 Z"
              fill="#000000" stroke="#000000" stroke-width="2.8"
              stroke-miterlimit="10" pointer-events="none"/>
        <path d="M 850.87 602 L 842.47 606.2 L 844.57 602 L 842.47 597.8 Z"
              fill="#000000" stroke="#000000" stroke-width="2.8"
              stroke-miterlimit="10" pointer-events="none"/>
    </g>
</svg>